<?xml version="1.0" ?>
<svg xmlns="http://www.w3.org/2000/svg" version="1.1" width="106" height="134">
  <defs/>
  <g>
    <path d="M 65.42053985595703 45.20000076293945 C 65.22054290771484 76.5 64.72054290771484 91.5999984741211 63.82054138183594 94.19999694824219 C 60.22053909301758 105.4000015258789 45.620540618896484 106.0999984741211 41.120540618896484 95.4000015258789 C 40.253257751464844 93.13024139404297 39.779788970947266 90.72908782958984 39.72053909301758 88.30000305175781 C 39.72053909301758 81.5 40.120540618896484 81.5999984741211 19.220539093017578 84.4000015258789 C 8.920539855957031 85.80000305175781 0.32054001092910767 87.0999984741211 0.12054000049829483 87.30000305175781 C -0.5794600248336792 88.0 1.9205399751663208 100.30000305175781 3.7205400466918945 105.30000305175781 C 11.120539665222168 125.0999984741211 26.620540618896484 134.0 53.82054138183594 134.0 C 64.72054290771484 134.0 72.62053680419922 132.5 80.22054290771484 129.10000610351562 C 88.02053833007812 125.5 96.92053985595703 117.30000305175781 100.22054290771484 110.69999694824219 C 105.52053833007812 99.80000305175781 105.92053985595703 95.30000305175781 106.42053985595703 45.70000076293945 L 106.92053985595703 -1.4210854715202004e-14 L 65.92053985595703 -1.4210854715202004e-14 L 65.42053985595703 45.20000076293945" stroke-width="1.0" fill="rgb(0, 0, 0)" opacity="1.0"/>
  </g>
</svg>
