<?xml version="1.0" ?>
<svg xmlns="http://www.w3.org/2000/svg" version="1.1" width="140" height="133">
  <defs/>
  <g>
    <path d="M 0.20000000298023224 66.19999694824219 L 0.5 132.5 L 20.799999237060547 132.8000030517578 L 41.0 133.0 L 41.0 116.80000305175781 L 41.099998474121094 100.5 L 51.5 89.5 C 57.20000076293945 83.5 62.099998474121094 78.69999694824219 62.29999923706055 79.0 C 62.599998474121094 79.30000305175781 68.9000015258789 91.5 76.5 106.19999694824219 L 90.19999694824219 133.0 L 115.0999984741211 133.0 C 128.8000030517578 133.0 140.0 132.8000030517578 140.0 132.5 C 140.0 132.10000610351562 95.69999694824219 59.20000076293945 91.30000305175781 52.400001525878906 C 90.0999984741211 50.5 91.5 48.79999923706055 113.5 25.899999618530273 C 126.4000015258789 12.5 137.0 1.2000000476837158 137.0 0.699999988079071 C 137.0 0.30000001192092896 125.0 0.10000000149011612 110.30000305175781 0.20000000298023224 L 83.5999984741211 0.5 L 62.5 25.0 L 41.5 49.5 L 41.20000076293945 24.700000762939453 L 41.0 0.0 L 0.0 0.0 L 0.20000000298023224 66.19999694824219" stroke-width="1.0" fill="rgb(0, 0, 0)" opacity="1.0"/>
  </g>
</svg>
