<?xml version="1.0" ?>
<svg xmlns="http://www.w3.org/2000/svg" version="1.1" width="148" height="132">
  <defs/>
  <g>
    <path d="M 0.0 66.0 L 0.0 132.0 L 2.299999952316284 132.5 C 3.5 132.8000030517578 11.0 132.89999389648438 19.0 132.8000030517578 L 33.5 132.5 L 34.0 84.5999984741211 L 34.5 36.70000076293945 L 46.5 83.5 C 53.0 109.19999694824219 59.0 130.89999389648438 59.79999923706055 131.6999969482422 C 60.900001525878906 132.6999969482422 64.30000305175781 133.0 75.30000305175781 132.8000030517578 L 89.5 132.5 L 102.0 83.69999694824219 L 114.5 34.900001525878906 L 114.80000305175781 83.4000015258789 L 115.0 131.89999389648438 L 118.30000305175781 132.5 C 123.8562240600586 132.92202758789062 129.4322052001953 133.02220153808594 135.0 132.8000030517578 L 148.5 132.5 L 148.5 0.5 L 121.80000305175781 0.20000000298023224 L 95.19999694824219 0.0 L 93.5999984741211 5.199999809265137 C 92.80000305175781 8.100000381469727 88.19999694824219 26.0 83.4000015258789 44.900001525878906 C 77.30000305175781 68.5999984741211 74.4000015258789 78.69999694824219 73.80000305175781 77.4000015258789 C 73.4000015258789 76.4000015258789 68.9000015258789 59.5 63.900001525878906 40.0 C 58.900001525878906 20.5 54.400001525878906 3.5 53.900001525878906 2.299999952316284 L 53.0 0.0 L 0.0 0.0 L 0.0 66.0" stroke-width="1.0" fill="rgb(0, 0, 0)" opacity="1.0"/>
  </g>
</svg>
