<?xml version="1.0" ?>
<svg xmlns="http://www.w3.org/2000/svg" version="1.1" width="140" height="148">
  <defs/>
  <g>
    <path d="M 55.98768997192383 0.5977100133895874 C 27.987689971923828 3.897710084915161 8.287690162658691 20.697710037231445 1.8876899480819702 46.997711181640625 C -0.612309992313385 56.79771041870117 -0.612309992313385 80.59770965576172 1.7876900434494019 89.49771118164062 C 4.475510120391846 100.53638458251953 10.230281829833984 110.58990478515625 18.3876895904541 118.49771118164062 C 27.487689971923828 127.49771118164062 35.787689208984375 131.897705078125 48.98768997192383 134.59771728515625 C 63.887691497802734 137.6977081298828 87.08769226074219 136.49771118164062 97.58769226074219 132.09771728515625 C 100.88768768310547 130.6977081298828 101.08769226074219 130.79771423339844 105.58769226074219 134.09771728515625 C 113.08769226074219 139.59771728515625 127.68769073486328 148.49771118164062 129.18768310546875 148.49771118164062 C 130.3876953125 148.49771118164062 140.48768615722656 129.09771728515625 140.48768615722656 126.7977066040039 C 140.48768615722656 126.39771270751953 137.68768310546875 124.49771118164062 134.18768310546875 122.69770812988281 C 131.03677368164062 120.99223327636719 127.99732208251953 119.0884017944336 125.08769226074219 116.99771118164062 L 122.18769073486328 114.69770812988281 L 124.18769073486328 111.89771270751953 C 128.4513397216797 105.37560272216797 131.65756225585938 98.22068786621094 133.68768310546875 90.69770812988281 C 135.3876953125 84.49771118164062 135.78768920898438 80.09770965576172 135.78768920898438 67.99771118164062 C 135.78768920898438 50.897708892822266 133.98768615722656 41.997711181640625 128.28768920898438 31.197710037231445 C 123.78768920898438 22.59770965576172 112.78768920898438 11.797710418701172 104.28768920898438 7.697710037231445 C 91.28768920898438 1.3977099657058716 72.88768768310547 -1.3022899627685547 55.98768997192383 0.5977100133895874" stroke-width="1.0" fill="rgb(0, 0, 0)" opacity="1.0"/>
  </g>
</svg>
