<?xml version="1.0" ?>
<svg xmlns="http://www.w3.org/2000/svg" version="1.1" width="129" height="132">
  <defs/>
  <g>
    <path d="M 0.0 66.0 L 0.0 132.0 L 41.0 132.0 L 41.20000076293945 105.19999694824219 L 41.5 78.5 L 45.900001525878906 78.80000305175781 C 51.20000076293945 79.0999984741211 55.20000076293945 81.0999984741211 57.79999923706055 84.69999694824219 C 58.900001525878906 86.30000305175781 65.0999984741211 97.30000305175781 71.5999984741211 109.30000305175781 C 78.0 121.4000015258789 83.80000305175781 131.39999389648438 84.4000015258789 131.60000610351562 C 85.0999984741211 131.8000030517578 95.5 131.89999389648438 107.69999694824219 131.8000030517578 L 129.89999389648438 131.5 L 118.9000015258789 110.4000015258789 C 107.0 87.5 101.19999694824219 79.69999694824219 93.30000305175781 75.5999984741211 L 88.80000305175781 73.4000015258789 L 93.19999694824219 72.0999984741211 C 103.28704833984375 68.88626861572266 111.62860870361328 61.70024871826172 116.30000305175781 52.20000076293945 C 119.5 45.400001525878906 119.5 27.600000381469727 116.4000015258789 20.899999618530273 C 113.4000015258789 14.5 107.5999984741211 8.300000190734863 101.5999984741211 5.300000190734863 C 92.5999984741211 0.699999988079071 85.0 0.10000000149011612 40.79999923706055 0.0 L 0.0 0.0 L 0.0 66.0" stroke-width="1.0" fill="rgb(0, 0, 0)" opacity="1.0"/>
  </g>
</svg>
