<?xml version="1.0" ?>
<svg xmlns="http://www.w3.org/2000/svg" version="1.1" width="119" height="135">
  <defs/>
  <g>
    <path d="M 44.0188102722168 0.5876500010490417 C 25.518810272216797 3.687649965286255 13.81881046295166 11.287650108337402 7.718810081481934 24.48764991760254 C 5.518809795379639 29.087650299072266 5.118810176849365 31.687650680541992 5.018809795379639 38.18764877319336 C 5.018809795379639 45.28765106201172 5.41880989074707 46.98765182495117 8.31881046295166 52.88764953613281 C 14.718810081481934 65.9876480102539 28.018810272216797 73.4876480102539 57.21881103515625 80.587646484375 C 69.11881256103516 83.4876480102539 75.11881256103516 86.38764953613281 77.51880645751953 90.18765258789062 C 80.51880645751953 94.9876480102539 80.11881256103516 99.88764953613281 76.51880645751953 104.087646484375 C 72.61881256103516 108.4876480102539 68.01880645751953 109.9876480102539 60.21881103515625 109.4876480102539 C 48.9188117980957 108.68765258789062 43.11880874633789 103.9876480102539 39.9188117980957 92.78765106201172 L 38.318809509277344 87.4876480102539 L 30.618810653686523 88.087646484375 C 26.41880989074707 88.38764953613281 17.91880989074707 88.9876480102539 11.718810081481934 89.28765106201172 C 5.518809795379639 89.68765258789062 0.31880998611450195 90.28765106201172 0.11880999803543091 90.587646484375 C -0.681190013885498 92.087646484375 2.7188100814819336 104.68765258789062 5.518809795379639 110.28765106201172 C 11.91880989074707 123.38764953613281 22.718809127807617 131.18765258789062 38.818809509277344 134.18765258789062 C 49.0188102722168 136.087646484375 71.81880950927734 136.087646484375 81.01880645751953 134.18765258789062 C 96.91880798339844 130.8876495361328 109.41880798339844 121.38764953613281 115.81880950927734 107.9876480102539 C 118.71881103515625 101.78765106201172 119.01880645751953 100.38764953613281 119.01880645751953 91.18765258789062 C 119.01880645751953 82.4876480102539 118.61881256103516 80.4876480102539 116.41880798339844 75.68765258789062 C 109.61881256103516 61.18764877319336 99.31880950927734 55.087650299072266 67.81880950927734 47.087650299072266 C 58.318809509277344 44.68764877319336 49.11880874633789 41.98765182495117 47.5188102722168 41.18764877319336 C 41.21881103515625 37.98765182495117 41.318809509277344 31.187650680541992 47.5188102722168 26.887649536132812 C 52.0188102722168 23.887649536132812 61.11880874633789 23.787649154663086 67.21881103515625 26.787649154663086 C 70.81880950927734 28.48764991760254 72.01880645751953 29.887649536132812 74.61881256103516 35.28765106201172 C 76.91880798339844 40.18764877319336 78.11881256103516 41.68764877319336 79.31880950927734 41.28765106201172 C 80.21881103515625 41.087650299072266 88.01880645751953 40.587650299072266 96.51880645751953 40.18764877319336 C 105.01880645751953 39.88764953613281 112.71881103515625 39.38764953613281 113.61881256103516 39.087650299072266 C 117.51880645751953 37.98765182495117 110.71881103515625 19.887649536132812 103.61881256103516 12.787650108337402 C 98.91880798339844 8.087650299072266 92.31880950927734 4.487649917602539 83.91880798339844 2.187649965286255 C 77.21881103515625 0.2876499891281128 52.0188102722168 -0.7123500108718872 44.0188102722168 0.5876500010490417" stroke-width="1.0" fill="rgb(0, 0, 0)" opacity="1.0"/>
  </g>
</svg>
