<?xml version="1.0" ?>
<svg xmlns="http://www.w3.org/2000/svg" version="1.1" width="121" height="132">
  <defs/>
  <g>
    <path d="M 0.0 66.0999984741211 L 0.0 132.1999969482422 L 41.29999923706055 131.6999969482422 C 93.9000015258789 131.10000610351562 99.5999984741211 130.1999969482422 110.0999984741211 120.30000305175781 C 115.91354370117188 115.14531707763672 119.70588684082031 108.09226989746094 120.80000305175781 100.4000015258789 C 122.5999984741211 89.30000305175781 119.69999694824219 78.4000015258789 113.19999694824219 71.5999984741211 C 109.5999984741211 67.9000015258789 99.0999984741211 62.0 96.0 62.0 C 95.19999694824219 62.0 96.5 60.79999923706055 99.0 59.400001525878906 C 104.9000015258789 56.099998474121094 109.69999694824219 51.5 112.30000305175781 46.5 C 114.0999984741211 43.20000076293945 114.5 40.900001525878906 114.5 32.5 C 114.5 24.0 114.19999694824219 21.899999618530273 112.30000305175781 18.5 C 108.07242584228516 10.597016334533691 100.87799835205078 4.697585582733154 92.30000305175781 2.0999999046325684 C 86.4000015258789 0.10000000149011612 84.0 0.0 43.0 0.0 L 0.0 0.0 L 0.0 66.0999984741211" stroke-width="1.0" fill="rgb(0, 0, 0)" opacity="1.0"/>
  </g>
</svg>
