<?xml version="1.0" ?>
<svg xmlns="http://www.w3.org/2000/svg" version="1.1" width="127" height="133">
  <defs/>
  <g>
    <path d="M 0.5 44.20000076293945 C 0.800000011920929 82.9000015258789 1.100000023841858 89.30000305175781 2.700000047683716 95.0 C 5.400000095367432 104.9000015258789 9.800000190734863 112.80000305175781 16.100000381469727 119.0999984741211 C 26.700000762939453 129.6999969482422 36.400001525878906 132.8000030517578 60.70000076293945 133.6999969482422 C 78.80000305175781 134.3000030517578 89.4000015258789 132.89999389648438 98.9000015258789 128.5 C 106.30000305175781 125.19999694824219 117.9000015258789 113.4000015258789 121.5 105.80000305175781 C 126.9000015258789 94.4000015258789 127.19999694824219 91.19999694824219 127.19999694824219 43.70000076293945 L 127.19999694824219 0.0 L 86.19999694824219 0.0 L 86.19999694824219 43.70000076293945 C 86.19999694824219 84.0999984741211 86.0 87.80000305175781 84.30000305175781 91.5 C 80.69999694824219 99.30000305175781 74.0999984741211 103.0 64.0 103.0 C 56.79999923706055 103.0 51.099998474121094 100.69999694824219 47.0 96.4000015258789 C 41.79999923706055 90.80000305175781 41.79999923706055 90.5999984741211 41.400001525878906 43.70000076293945 L 41.099998474121094 0.0 L 0.0 0.0 L 0.5 44.20000076293945" stroke-width="1.0" fill="rgb(0, 0, 0)" opacity="1.0"/>
  </g>
</svg>
