<?xml version="1.0" ?>
<svg xmlns="http://www.w3.org/2000/svg" version="1.1" width="142" height="132">
  <defs/>
  <g>
    <path d="M 2.9000000953674316 7.699999809265137 C 5.599999904632568 15.199999809265137 10.100000381469727 27.200000762939453 37.29999923706055 99.0 L 49.599998474121094 131.5 L 71.69999694824219 131.8000030517578 L 93.80000305175781 132.0 L 94.80000305175781 129.3000030517578 C 95.30000305175781 127.69999694824219 106.0 99.19999694824219 118.4000015258789 65.69999694824219 C 130.8000030517578 32.29999923706055 141.1999969482422 3.9000000953674316 141.60000610351562 2.5 L 142.1999969482422 1.4210854715202004e-14 L 101.0999984741211 1.4210854715202004e-14 L 98.5999984741211 8.199999809265137 C 81.30000305175781 64.69999694824219 72.4000015258789 92.80000305175781 71.9000015258789 92.19999694824219 C 71.30000305175781 91.5999984741211 43.0 1.7000000476837158 43.0 0.5 C 43.0 0.20000000298023224 33.29999923706055 0.0 21.5 0.0 L 0.0 0.0 L 2.9000000953674316 7.699999809265137" stroke-width="1.0" fill="rgb(0, 0, 0)" opacity="1.0"/>
  </g>
</svg>
