<?xml version="1.0" ?>
<svg xmlns="http://www.w3.org/2000/svg" version="1.1" width="184" height="132">
  <defs/>
  <g>
    <path d="M 0.0 1.2000000476837158 C 0.0 1.899999976158142 6.5 31.5 14.399999618530273 67.0 L 28.700000762939453 131.5 L 48.79999923706055 131.8000030517578 L 68.9000015258789 132.0 L 70.30000305175781 127.30000305175781 C 71.0999984741211 124.5999984741211 76.19999694824219 106.4000015258789 81.5999984741211 86.80000305175781 C 87.69999694824219 64.69999694824219 91.80000305175781 51.599998474121094 92.19999694824219 52.5 C 92.69999694824219 53.29999923706055 97.9000015258789 71.30000305175781 103.9000015258789 92.69999694824219 L 114.80000305175781 131.5 L 134.8000030517578 131.8000030517578 C 153.3000030517578 132.0 154.89999389648438 131.89999389648438 155.39999389648438 130.3000030517578 C 156.0 128.3000030517578 176.60000610351562 34.5 180.60000610351562 16.0 C 181.89999389648438 9.699999809265137 183.1999969482422 3.5 183.5 2.200000047683716 L 184.0 0.0 L 145.39999389648438 0.0 L 141.6999969482422 19.700000762939453 C 139.60000610351562 30.600000381469727 136.5 46.79999923706055 134.8000030517578 55.79999923706055 C 133.10000610351562 64.80000305175781 131.60000610351562 71.9000015258789 131.3000030517578 71.69999694824219 C 131.10000610351562 71.4000015258789 126.5 55.29999923706055 121.0999984741211 35.900001525878906 L 111.4000015258789 0.5 L 91.9000015258789 0.20000000298023224 L 72.5 0.0 L 64.5999984741211 28.700000762939453 C 60.20000076293945 44.599998474121094 55.70000076293945 60.900001525878906 54.5 65.0 C 52.29999923706055 72.4000015258789 52.20000076293945 72.4000015258789 51.5 69.0 C 51.099998474121094 67.0999984741211 48.0 50.900001525878906 44.70000076293945 33.0 L 38.5 0.5 L 19.200000762939453 0.20000000298023224 C 4.199999809265137 0.0 0.0 0.20000000298023224 0.0 1.2000000476837158" stroke-width="1.0" fill="rgb(0, 0, 0)" opacity="1.0"/>
  </g>
</svg>
