<?xml version="1.0" ?>
<svg xmlns="http://www.w3.org/2000/svg" version="1.1" width="142" height="132">
  <defs/>
  <g>
    <path d="M 0.0 0.4000000059604645 C 0.0 0.6000000238418579 11.5 17.899999618530273 25.5 38.79999923706055 L 51.0 76.80000305175781 L 51.0 132.0 L 92.0 132.0 L 92.0 76.80000305175781 L 116.5 40.29999923706055 C 130.0 20.200000762939453 141.5 2.9000000953674316 142.10000610351562 1.899999976158142 C 143.0 0.10000000149011612 142.3000030517578 -1.3322676295501878e-15 120.5999984741211 -1.3322676295501878e-15 L 98.0999984741211 -1.3322676295501878e-15 L 84.9000015258789 22.0 C 77.5999984741211 34.099998474121094 71.5 43.79999923706055 71.19999694824219 43.5 C 70.9000015258789 43.20000076293945 65.0 33.5 58.0 21.799999237060547 L 45.29999923706055 0.5 L 22.600000381469727 0.20000000298023224 C 10.199999809265137 0.10000000149011612 0.0 0.20000000298023224 0.0 0.4000000059604645" stroke-width="1.0" fill="rgb(0, 0, 0)" opacity="1.0"/>
  </g>
</svg>
