<?xml version="1.0" ?>
<svg xmlns="http://www.w3.org/2000/svg" version="1.1" width="134" height="135">
  <defs/>
  <g>
    <path d="M 58.525001525878906 0.3737800121307373 C 29.424999237060547 3.1737799644470215 9.625 19.273780822753906 2.325000047683716 46.07378005981445 C -0.7749999761581421 57.47378158569336 -0.7749999761581421 78.7737808227539 2.325000047683716 89.67378234863281 C 7.324999809265137 107.373779296875 18.625 122.2737808227539 31.825000762939453 128.6737823486328 C 43.125 134.1737823486328 51.32500076293945 135.6737823486328 69.5250015258789 135.77377319335938 C 95.82499694824219 135.873779296875 107.0250015258789 132.373779296875 132.3249969482422 116.2737808227539 L 134.52499389648438 114.873779296875 L 134.3249969482422 86.873779296875 L 134.02499389648438 58.873779296875 L 102.82499694824219 58.57378005981445 L 71.5250015258789 58.373779296875 L 71.5250015258789 86.373779296875 L 98.625 86.373779296875 L 98.32499694824219 92.57377624511719 L 98.0250015258789 98.873779296875 L 91.5250015258789 102.07377624511719 C 75.32499694824219 109.9737777709961 57.724998474121094 108.2737808227539 48.92499923706055 97.9737777709961 C 39.724998474121094 87.17378234863281 37.92499923706055 59.273780822753906 45.625 43.67377853393555 C 50.32500076293945 33.873779296875 58.224998474121094 29.373779296875 70.42500305175781 29.373779296875 C 79.92500305175781 29.373779296875 86.42500305175781 32.57378005981445 90.125 39.07378005981445 C 91.625 41.67377853393555 92.92500305175781 43.97378158569336 93.0250015258789 44.17377853393555 C 93.2249984741211 44.47378158569336 131.72500610351562 37.47378158569336 132.22500610351562 36.97378158569336 C 132.9250030517578 36.273780822753906 127.82499694824219 24.573780059814453 124.7249984741211 20.17378044128418 C 118.0250015258789 10.373780250549316 108.7249984741211 4.473780155181885 95.82499694824219 1.9737800359725952 C 87.2249984741211 0.2737799882888794 68.32499694824219 -0.5262200236320496 58.525001525878906 0.3737800121307373" stroke-width="1.0" fill="rgb(0, 0, 0)" opacity="1.0"/>
  </g>
</svg>
