<svg xmlns="http://www.w3.org/2000/svg" viewBox="0 0 84.39816 85.93774"><defs><style>.cls-1{fill:#b2ce5b;}.cls-2{fill:#fff;}.cls-3{fill:#ffe600;}</style></defs><g id="图层_2" data-name="图层 2"><g id="OBJECTS"><path class="cls-1" d="M24.00183,27.9814c-1.80156-1.8748,5.27626-.95408,6.3454-1.304q-1.5588-1.78935-3.1274-3.5712c-4.0079,1.03154-6.80224-.78224-.7971-.9075C24.646,20.06552,9.073,3.699,18.669,12.1632c-2.617-11.59193,2.0269-6.10818,1.1078,1.0414q2.42805,2.3025,4.8325,4.7002c-2.80024-13.38007,1.26767-7.83672,1.1652,1.1646,2.861,2.8915,5.6634,5.8789,8.3529,8.9462-.80446-13.15023,2.85841-7.95291.7477.8578a142.45275,142.45275,0,0,1,8.9963,11.4949C50.98774,29.08047,20.459-2.62731,9.60729.17447,3.18088,1.467,7.364,17.25559,16.69582,28.12865c11.03769,12.47172,21.09306,13.38262,26.179,12.83715-3.9255-4.3938-7.7818-8.8325-11.6395-13.267A18.60542,18.60542,0,0,1,24.00183,27.9814Z"/><path class="cls-1" d="M21.80633,46.0216c-1.9955-.691,3.45338-2.65176,4.1073-3.3102-1.1972-.476-12.8486-4.9771-17.0924-6.4309a.30071.30071,0,0,1,.177-.5744c1.011.2757,7.7366,2.236,9.4903,2.7943-7.01154-8.63421-2.00774-6.1502,1.2777.4086,3.1495,1.0263,6.2922,2.1439,9.3829,3.3614-5.4346-9.10561-.89847-6.84423.8612.3422a115.99293,115.99293,0,0,1,10.799,4.9666C41.75173,36.754,7.82744,25.18472,1.01661,31.25942c-4.05674,3.609,4.618,13.02216,15.55554,17.59329,12.6413,4.91234,20.26019,1.8221,23.73858-.46931-4.4802-1.7169-8.9271-3.4922-13.3734-5.2638A15.152,15.152,0,0,1,21.80633,46.0216Z"/><path class="cls-2" d="M46.49843,42.9419c14.057,13.4375-7.32247,33.068-21.62914,22.832C10.13179,53.41,27.99076,33.39011,43.77043,39.7131"/><path class="cls-2" d="M57.93583,48.1949C43.41921,61.13476,25.55776,38.25648,36.90288,24.81252,50.40352,11.109,68.93419,30.50849,61.37213,45.7332"/><path class="cls-2" d="M56.43563,56.9597c12.25848,8.66172,1.24722,35.327-14.036,27.58532-12.64992-8.2354-4.32654-33.25957,11.34664-30.35642"/><path class="cls-2" d="M66.40143,74.1401C82.26351,78.06,91.47009,59.46079,77.62806,50.10853c-8.44858-6.54891-33.06148-1.19092-28.3981,12.297C54.07351,67.18467,59.7802,72.04709,66.40143,74.1401Z"/><path class="cls-2" d="M82.82873,43.4459c2.27159-7.1485-3.1116-12.2518-4.9246-13.1906C67.24792,24.898,55.4124,33.21334,50.913,43.05724,48.31553,48.1589,48.60263,58.6838,56.97413,56.3451,59.82343,55.5492,76.99113,61.8154,82.82873,43.4459Z"/><path class="cls-3" d="M46.93933,52.0639c.072-7.86416,13.19015-6.931,12.24039.8488C59.85621,58.27292,47.03266,64.324,46.93933,52.0639Z"/></g></g></svg>