<svg xmlns="http://www.w3.org/2000/svg" viewBox="0 0 56.64932 89.45281"><defs><style>.cls-1{fill:#90d3c7;}.cls-2{fill:#f4971c;}</style></defs><g id="图层_2" data-name="图层 2"><g id="OBJECTS"><path class="cls-1" d="M25.36066,18.88014C30.60949,44.013,42.0759,66.925,56.508,87.96926a.99531.99531,0,0,1-1.56014,1.19268c-17.0826-18.2058-27.7752-45.4309-31.0644-69.8915-.1268-.9427,1.2384-1.3756,1.4772-.3903Z"/><path class="cls-1" d="M35.08606,54.98374c-2.34643,6.39283-18.99727.47306-20.23-5.36323C14.94588,43.4423,35.40358,50.74038,35.08606,54.98374Z"/><path class="cls-1" d="M37.38836,55.85154c-6.10874-3.00941,1.53847-18.94052,7.47256-19.54931C50.995,37.045,41.57431,56.61614,37.38836,55.85154Z"/><path class="cls-1" d="M42.75486,71.22894c-2.95049,6.13746-18.95453-1.35587-19.62041-7.28376C23.81782,57.804,43.47906,67.03593,42.75486,71.22894Z"/><path class="cls-1" d="M44.96306,72.31414C39.19183,68.701,48.26562,53.65835,54.28092,53.574,60.27608,55.00322,49.14265,73.37231,44.96306,72.31414Z"/><path class="cls-2" d="M38.339,32.48864c-7.371,7.0868-20.273,10.3663-28.6197,4.8682,0,0-14.06349-8.9778-8.35649-19.356,3.91439-7.1186,9.52579-3.0455,9.52579-3.0455C4.79747-.60322,26.58239-5.78128,31.47616,7.93594,44.37448-6.8444,53.21552,20.22379,38.339,32.48864Z"/><path class="cls-1" d="M29.72516,39.09994s14.1575-3.1421,13.5559-12.9908S26.15036,28.13774,29.72516,39.09994Z"/><path class="cls-1" d="M30.78406,38.37694s-11.5899,8.7169-18.6835,1.8583C5.00706,33.37664,24.77677,28.53524,30.78406,38.37694Z"/></g></g></svg>