<svg xmlns="http://www.w3.org/2000/svg" viewBox="0 0 55.76168 59.83422"><defs><style>.cls-1{fill:#90d3c7;}.cls-2{fill:#ffe600;}</style></defs><g id="图层_2" data-name="图层 2"><g id="OBJECTS"><path class="cls-1" d="M53.25226,59.13156A132.37774,132.37774,0,0,0,10.863,11.45606a1.29612,1.29612,0,0,1,1.4884-2.1205A135.26675,135.26675,0,0,1,55.607,58.05216c.7762,1.4766-1.5809,2.5516-2.35469,1.0794Z"/><path class="cls-1" d="M27.92265,24.186a37.00408,37.00408,0,0,0-2.3363-12.7457c-.5765-1.5533,1.7735-2.6453,2.3547-1.0794,1.21086,1.67735,5.01725,20.38946-.0184,13.8251Z"/><path class="cls-1" d="M35.64885,32.61156c-2.00018,1.42806-22.62338-.257-14.7362-3.49211a28.50009,28.50009,0,0,0,14.3214.93461,1.29625,1.29625,0,0,1,.4148,2.5575Z"/><path class="cls-1" d="M45.20305,43.58226a33.691,33.691,0,0,0,2.0476-12.3149c4.8225-5.52624,1.57609,11.47368.38022,13.21615a1.29558,1.29558,0,0,1-2.42782-.90125Z"/><path class="cls-1" d="M49.84855,52.32806c-2.081.57262-19.73658-3.23757-12.4441-5.49365A32.43047,32.43047,0,0,0,50.105,49.75006c1.66631.0425,1.4054,2.6204-.2564,2.578Z"/><path class="cls-2" d="M9.643,2.79166C17.36026,5.647,14.13774,17.80307,5.90844,15.71485-4.452,13.72093.10389-.74933,9.643,2.79166Z"/><path class="cls-2" d="M31.04805,3.74786C31.98882,13.411,19.55364,14.977,20.32448,4.552,21.44385-.39164,29.91675-2.21894,31.04805,3.74786Z"/><path class="cls-2" d="M21.25075,27.663c3.95486,9.3201-11.80388,12.05177-11.018,1.8993C11.06255,24.07076,18.72945,22.531,21.25075,27.663Z"/><path class="cls-2" d="M53.55715,25.07386c-.84341,8.36507-13.15738,7.10576-12.79939-1.09214C41.72507,16.56248,54.85807,16.12936,53.55715,25.07386Z"/><path class="cls-2" d="M38.18385,43.95556c-4.48029-7.27031-16.18759-3.24912-10.73644,6.19483C31.32768,55.09008,40.15512,49.78553,38.18385,43.95556Z"/></g></g></svg>