<svg xmlns="http://www.w3.org/2000/svg" viewBox="0 0 61.70797 112.84648"><defs><style>.cls-1{fill:#90d3c7;}.cls-2{fill:#f4971c;}</style></defs><g id="图层_2" data-name="图层 2"><g id="OBJECTS"><path class="cls-1" d="M30.641,59.14273c5.52507,2.29754,11.3721-12.58493,8.17021-16.53448C34.65934,39.08552,27.64082,56.89346,30.641,59.14273Z"/><path class="cls-1" d="M46.03915,41.341c3.59723,4.802,16.17206-4.57426,15.65323-9.75283C60.01812,26.407,44.67346,37.849,46.03915,41.341Z"/><path class="cls-1" d="M42.03375,60.88723c1.96463,3.11389,10.31788-3.11613,9.73156-6.06354C50.88023,51.51513,41.04567,58.86678,42.03375,60.88723Z"/><path class="cls-1" d="M22.659,78.452C19.31661,79.99636,24.41,89.08688,27.40856,88.88814,30.80405,88.44,24.79063,77.73446,22.659,78.452Z"/><path class="cls-1" d="M31.55975,69.90933c.46146-5.96588-15.50208-6.88394-18.25714-2.61069C11.2491,72.34138,30.35731,73.46092,31.55975,69.90933Z"/><path class="cls-1" d="M20.32,46.12123c8.8287,10.9094,12.50731,23.0069,10.3764,37.0572-.1.6589.8975.8308,1.11991.2371,4.41109-11.778.80519-31.3545-10.15741-38.7866a1.01511,1.01511,0,0,0-1.3389,1.4923Z"/><path class="cls-2" d="M18.27145,49.27163c6.40191-1.9448,11.3435-9.6597,10.10991-16.0824,0,0-1.90551-10.7504-9.60891-9.8992-5.2836.5835-4.2265,4.9962-4.2265,4.9962-7.67071-6.6791-18.7954,2.39037-9.399,10.688,0,0-4.9887-1.4092-5.1465,4.8754C-.07585,46.88853,9.51885,51.93083,18.27145,49.27163Z"/><path class="cls-1" d="M23.73385,47.08233s5.867-6.4499,5.2829-9.502c-.5842-3.0521-5.4611,8.3625-5.4611,8.3625s1.5335-8.8234.1731-10.1195c-1.36039-1.296-1.5602,9.6041-1.5602,9.6041s-4.8508-7.5467-6.7057-7.5395c-1.8548.0074,4.8594,8.1687,4.8594,8.1687s-9.8463-1.7011-9.4897-.4327,10.6617,1.8248,10.6617,1.8248C8.83513,49.7109,10.95379,55.16117,23.73385,47.08233Z"/><path class="cls-1" d="M43.58885,24.33683c1.2674,31.922-13.63449,59.879-28.53449,87.1923a.84622.84622,0,0,0,1.393.9593c15.58407-21.196,36.38255-62.23279,29.94926-88.69194-.57117-1.27-2.86726-.95866-2.80777.54034Z"/><path class="cls-2" d="M40.57105,25.94563c6.35631,2.0895,14.83531-1.3814,17.5188-7.3457,0,0,4.6218-9.8913-2.1703-13.6239-4.6587-2.5603-6.3307,1.6576-6.3307,1.6576-2.28-9.86876-16.88678-8.70285-13.83549,3.3408,0,0-3.27121-4.0214-7.01361,1.03C26.93005,13.44683,31.88115,23.08893,40.57105,25.94563Z"/><path class="cls-1" d="M46.29915,27.29513s8.509-1.9039,9.7857-4.737c1.2768-2.8331-9.2761,3.7022-9.2761,3.7022s6.32761-6.3376,5.9598-8.1801c-.368-1.8428-6.7986,6.9607-6.7986,6.9607s.3703-8.9634-1.1514-10.0239c-1.5218-1.0607-.7209,9.4774-.7209,9.4774s-7.078-7.0532-7.5155-5.8103c-.4376,1.2426,7.6741,7.623,7.6741,7.623C32.7234,20.90368,31.20842,26.57021,46.29915,27.29513Z"/></g></g></svg>