<svg xmlns="http://www.w3.org/2000/svg" viewBox="0 0 116.68065 83.13859"><defs><style>.cls-1{fill:#b2ce5b;}.cls-2{fill:#f2b696;}.cls-3{fill:#f0869e;}.cls-4{fill:#ee7264;}</style></defs><g id="图层_2" data-name="图层 2"><g id="OBJECTS"><path class="cls-1" d="M78.73343,29.5953c2.99447-.96026-1.78373,6.23492-1.9708,7.5696q2.76975-.73455,5.5365-1.4838c1.02036-4.89323,4.47528-6.95413,1.40811-.3797,3.12962-.74688,29.53409-9.00767,15.00649-3.0489,14.10466,3.40426,5.51552,5.4316-1.7189.6448q-3.78915,1.4028-7.6687,2.7292c16.19371,4.17138,7.83031,5.54295-1.883.6412-4.6581,1.5578-9.3888,3.0009-14.1458,4.279,14.93231,6.2881,7.03381,7.28773-1.32809.3527a172.01233,172.01233,0,0,1-17.25,3.6169c8.43412,13.72856,59.06383-2.43842,61.81459-15.68836,2.02624-7.65139-17.30871-11.53826-34.0642-7.22623C63.0728,26.90944,56.7241,37.3173,54.60333,43.118c6.8531-1.9098,13.7182-3.7208,20.5793-5.5356A22.46648,22.46648,0,0,1,78.73343,29.5953Z"/><path class="cls-1" d="M60.36013,17.5974c1.81069-1.80444,1.03284,5.16989,1.396,6.2148,1.15411-1.0431,12.24311-11.2658,16.081-15.0882a.36308.36308,0,0,1,.5278.4981c-.83769.9483-6.5476,7.1892-8.0876,8.7914,13.1-2.99312,7.73,1.10473-1.124,1.1664-2.7912,2.8647-5.6776,5.6734-8.6447,8.3726,12.91326-1.02732,7.87051,2.667-.8298.7506a140.07688,140.07688,0,0,1-11.1389,9.0509C59.76513,44.14705,90.3877,13.56394,87.43827,2.9461,86.05185-3.34861,70.6055,1.04776,60.084,10.4176,48.02149,21.49308,47.30683,31.39494,47.93463,36.385c4.2489-3.9381,8.5433-7.8091,12.8334-11.6814A18.2962,18.2962,0,0,1,60.36013,17.5974Z"/><path class="cls-2" d="M63.80283,47.618c3.95164-4.30167,2.48912-11.68195-3.1342-13.3836,2.56139-10.53681-7.89946-11.348-10.73239-9.3784-.13078-6.57959-8.4171-10.95892-13.21181-6.0772-4.6953-8.3096-14.6691.4466-14.6691.4466-2.44493-2.5457-16.07062,2.37583-11.8597,11.9345C-3.07832,29.21355-1.10751,43.99232,5.74043,44.9666c-8.31463.5184-7.76623,12.86977,2.7542,12.9677-9.59581,8.69011.5564,18.50681,7.6374,13.8968.4917,7.308,10.52857,10.84189,14.4446,4.1823,4.71191,13.56815,17.28289,4.6124,17.6424-1.1135,1.81.90558,15.22521-.63813,12.4906-12.173C72.85634,61.5315,70.57962,49.287,63.80283,47.618Z"/><path class="cls-3" d="M47.66493,48.4868a3.69473,3.69473,0,0,0-1.4105-6.0232c1.25194-4.61873-3.69144-5.15284-4.8301-4.2207-.05882-2.9615-3.7885-4.93189-5.9459-2.7351-2.11319-3.7397-6.6019.201-6.6019.201-.91038-1.21357-7.35121,1.20773-5.3374,5.3711C17.601,40.12838,18.48842,46.95,21.534,47.2936c-3.60021.06116-3.53246,5.88591,1.2396,5.8361-4.38561,3.75324.44787,8.41337,3.4372,6.2542.22122,3.28891,4.73842,4.87934,6.5007,1.8822,1.99859,6.0768,7.87993,2.029,7.9399-.5011.70891.46776,6.93468-.40782,5.6214-5.4785C51.7059,54.92212,50.60431,49.01273,47.66493,48.4868Z"/><path class="cls-4" d="M42.92873,43.5585c8.44281,10.86755-10.62692,22.69612-17.37106,11.86672C18.00931,44.71648,35.83828,31.16767,42.92873,43.5585Z"/></g></g></svg>