<svg xmlns="http://www.w3.org/2000/svg" viewBox="0 0 69.23787 110.71273"><defs><style>.cls-1{fill:#fff;}.cls-2{fill:#ee7264;}</style></defs><g id="图层_2" data-name="图层 2"><g id="OBJECTS"><path class="cls-1" d="M47.21478,51.71405s-12.8077,7.6115-33.8083,1.986c-21.0005-5.6254-12.774-18.9557-5.7691-17.7359C-.94945,21.5638,14.95806,3.69168,31.96658,14.94005c2.63659-19.94232,30.99859-21.04771,27.9232,3.5505C77.15575,13.50666,64.80387,41.76738,47.21478,51.71405Z"/><path class="cls-2" d="M45.92819,53.451s-16.36531,5.4336-21.41411,1.9298c-5.04889-3.5036,10.6928-4.1513,10.6928-4.1513-16.01061-7.40813-10.11608-10.5459,4.1429-6.2562-6.40915-13.93109-4.71692-21.13535,7.6268-4.4049,0,0,4.432-12.9587,6.6614-11.6098,3.2841,1.987-.5741,12.1074-.5741,12.1074s7.4798-7.3653,8.699-4.1313C62.982,40.16865,55.38119,47.16335,45.92819,53.451Z"/><path class="cls-2" d="M52.84678,80.71015c6.0917,4.59651,18.31337-10.55265,16.134-17.15264C65.0635,57.853,50.1605,76.60231,52.84678,80.71015Z"/><path class="cls-2" d="M52.821,79.34035c-1.28747,7.5415-20.675,4.75122-23.4999-1.50871C28.28641,70.98924,51.97709,74.50538,52.821,79.34035Z"/><path class="cls-2" d="M46.09868,50.57142a.78134.78134,0,0,0,0-1.56174.78134.78134,0,0,0,0,1.56174Z"/><path class="cls-2" d="M45.07719,50.25275A307.68236,307.68236,0,0,1,53.2985,110.108c.06628.9178,1.36548.7081,1.50169-.0749,3.41149-19.6108.38509-42.2709-7.62451-60.4479a1.11515,1.11515,0,0,0-2.09849.6676Z"/></g></g></svg>