<svg xmlns="http://www.w3.org/2000/svg" viewBox="0 0 79.99651 64.50616"><defs><style>.cls-1{fill:#b2ce5b;}.cls-2{fill:#ffe600;}.cls-3{fill:#2d3a56;}</style></defs><g id="图层_2" data-name="图层 2"><g id="OBJECTS"><path class="cls-1" d="M61.26392,19.63023c1.13517-1.69908,1.99567,3.73679,2.6235,4.5765.65831-1.1074,6.9347-11.9066,9.0374-15.8692a.30069.30069,0,0,1,.5394.2651c-.4311.9551-3.4241,7.289-4.2511,8.9332,9.629-5.56751,6.38919-1.01612-.60439,1.1976-1.50861,2.949-3.10621,5.877-4.79441,8.7379,9.84672-3.93573,6.90049.1883-.4732.7968a116.00984,116.00984,0,0,1-6.6022,9.8841C67.2814,40.78451,84.039,9.1,79.1101,1.419c-2.92647-4.57346-13.58617,2.51405-19.81945,12.5971-6.83818,11.71207-4.98382,19.72208-3.26753,23.51729,2.3997-4.1546,4.8518-8.2672,7.3002-12.3798A15.15214,15.15214,0,0,1,61.26392,19.63023Z"/><path class="cls-1" d="M25.02673,47.72213c-2.11082.063,2.28616-3.70554,2.66349-4.5533-1.2881-.0197-13.7786-.0884-18.262.0601a.3007.3007,0,0,1-.03849-.5998c1.04289-.1014,8.02619-.658,9.86389-.7591-9.62139-5.58041-4.06156-5.03592,1.3395-.0719,3.30861-.1594,6.6434-.231,9.965-.1908-8.4014-6.66781-3.26258-6.06068.92661.0139a116.01035,116.01035,0,0,1,11.85889.8066C40.58126,31.99922,4.33088,33.24571.349,41.30789c-2.51015,4.81446,8.9427,10.53231,20.79053,10.92,13.56178.10164,19.5862-5.49351,22.02369-8.87112-4.7978-.0135-9.5853-.0933-14.371-.17A15.1508,15.1508,0,0,1,25.02673,47.72213Z"/><path class="cls-2" d="M54.73342,27.06653c12.6797,1.4695,22.40631,15.9716,16.8125,27.4452-5.5935,11.4737-23.9357,13.5728-31.9768,3.6594C30.5451,46.76087,39.072,26.29257,54.73342,27.06653Z"/><path class="cls-3" d="M51.62822,40.32323c.547,5.68313,4.78686,7.166,3.60851-.3273,7.08,2.39853,3.965-2.1268.18279-3.2848,6.05816-3.02365,1.76926-5.99252-1.9534-1.7098-1.179-4.02105-8.25808-3.39577-3.45439,1.66C44.92349,38.43957,46.32153,45.284,51.62822,40.32323Z"/></g></g></svg>