<svg xmlns="http://www.w3.org/2000/svg" viewBox="0 0 97.85079 67.43397"><defs><style>.cls-1{fill:#729f3a;}</style></defs><g id="图层_2" data-name="图层 2"><g id="OBJECTS"><path class="cls-1" d="M94.05117,66.27521c-11.196-26.24776-39.05188-43.90485-67.63768-42.90558a1.18385,1.18385,0,0,1-.08066-2.36459c29.755-1.57567,59.10295,16.401,71.31623,43.65379C98.74467,66.97672,95.06778,68.66466,94.05117,66.27521Z"/><path class="cls-1" d="M37.64327,24.11961s-11.1818,12.9637-32.5102,4.5412c-21.32849-8.4224,30.5778-20.0835,32.5773-6.2123"/><path class="cls-1" d="M54.77979,27.02021c3.055,8.07966-18.36422,23.309-28.76752,14.95093C25.08927,40.42151,41.178,22.026,54.77979,27.02021Z"/><path class="cls-1" d="M53.85417,26.08871s-10.1429-2.6311-14.32038-12.7953C29.88372-7.46684,46.03662-.7064,54.20874,11.85268,58.39217,19.85131,58.807,25.79471,53.85417,26.08871Z"/><path class="cls-1" d="M84.80137,46.48721s-5.9733,10.0089-22.8012,7.4188c-.7426-.0643-7.2398-.7033-8.5899-4.4833-1.07548-3.0115,5.338-4.7495,11.3456-5.9069C73.27479,41.87471,78.62327,42.75421,84.80137,46.48721Z"/><path class="cls-1" d="M84.42957,46.60991s-12.84478-9.5722-15.84078-21.4657c-2.996-11.8936-.01322-15.66.85488-16.1525C78.0598,6.31058,96.12994,41.36349,84.42957,46.60991Z"/></g></g></svg>