<svg xmlns="http://www.w3.org/2000/svg" viewBox="0 0 79.8019 75.59709"><defs><style>.cls-1{fill:#f4971c;}.cls-2{fill:#fff;}.cls-3{fill:#f2b696;}</style></defs><g id="图层_2" data-name="图层 2"><g id="OBJECTS"><path class="cls-1" d="M77.56743,32.575c1.81118-6.97932.32063-12.85726-14.19912-10.8911,2.91512-3.8941,4.7757-7.8089,4.6313-10.0088-.4316-6.5763-7.09718-4.6292-10.6766-7.4135C50.78841-3.945,44.05409.11116,38.979,12.907,34.86273-1.4808,26.54472-3.445,19.53007,6.282c-9.18629,2.11661-13.52281,10.30576-2.20775,21.7287-6.6896-.442-13.2993.763-15.4126,2.752-4.7991,4.517.9439,8.4208,1.073,12.9538-.9903,6.60993-.02294,12.73572,14.4942,9.8059-3.1743,4.6138-5.1377,9.4208-4.77149,11.8673.97539,6.5179,7.45659,4.0248,11.25459,6.5027,7.80835,8.2919,14.30647,1.83935,17.784-11.1747,2.7568,6.8805,7.5995,13.1557,10.6496,14.1499,6.266,2.0425,6.9346-4.8695,10.8495-7.1583,10.75826-3.25757,8.19854-11.7-1.8719-20.7711,6.8236,1.1292,13.8515.4968,16.1914-1.365C82.71971,41.46972,77.32021,37.10312,77.56743,32.575Z"/><path class="cls-2" d="M37.40281,47.08442a4.72543,4.72543,0,0,1-1.5095-4.145c-5.18069.445-6.24757-7.20026-.95079-7.8683-1.58473-5.15184,6.3603-8.086,7.64239-2.4433,4.605-3.207,8.31743,3.06583,3.62752,5.8927,3.96507,2.60105,1.05393,9.09711-3.48762,6.6012C42.03737,47.2545,38.46223,48.36771,37.40281,47.08442Z"/><path class="cls-1" d="M39.26481,36.20282c-4.836,1.8457.9371,8.52867,3.18142,3.27467C42.44611,39.47782,43.269,35.30872,39.26481,36.20282Z"/><path class="cls-3" d="M22.11,16.626c.91117,1.37858,3.77809,7.32182,5.59991,5.34943C28.2548,20.50951,22.01819,12.0517,22.11,16.626Z"/><path class="cls-3" d="M27.42622,13.18032c.71853,1.25307,3.65452,9.54618,4.97778,5.76924-.21118-1.14181-4.66105-9.86736-4.97778-5.76924Z"/><path class="cls-3" d="M60.598,60.098c-1.48532-1.89285-3.12913-4.68691-5.54963-5.27586-2.96374.69946,6.62743,10.19225,5.54963,5.27586Z"/><path class="cls-3" d="M55.69661,64.11182c-.85313-1.16583-4.68993-9.08215-5.58663-5.182.33637,1.11134,5.72617,9.28987,5.58663,5.182Z"/><path class="cls-3" d="M50.94191,11.565c-.82258,1.433-4.84532,6.66408-2.26484,7.40582,1.5546-.1715,6.31049-9.54212,2.26484-7.40582Z"/><path class="cls-3" d="M56.40791,14.76752c-.79672,1.2047-6.88813,7.55242-2.91925,7.03849.92535-.70143,6.72332-8.59586,2.91925-7.03849Z"/><path class="cls-3" d="M29.38472,65.47642c1.02426-2.17726,2.78254-4.90061,2.22167-7.32788-1.956-2.33395-6.13028,10.49862-2.22167,7.32788Z"/><path class="cls-3" d="M23.59743,62.89962c.65839-1.28569,6.00849-8.26957,2.121-7.31872-.84191.79965-5.72884,9.28811-2.121,7.31872Z"/><path class="cls-3" d="M68.39891,32.11182c-1.646.14493-8.2375-.16267-7.37016,2.37824,1.02987,1.17725,11.43667-.28185,7.37016-2.37824Z"/><path class="cls-3" d="M68.89861,38.42722c-1.44418.03547-10.135-1.33028-7.4432,1.6314,1.10455.35789,10.89628.598,7.4432-1.6314Z"/><path class="cls-3" d="M11.847,45.26612c1.62148-.32711,8.20378-.751,7.06111-3.18059C17.75631,41.02937,7.57205,43.63368,11.847,45.26612Z"/><path class="cls-3" d="M10.65043,39.045c1.43423-.196,10.21783.19922,7.21649-2.44636C16.7335,36.36469,6.969,37.21283,10.65043,39.045Z"/></g></g></svg>