<svg xmlns="http://www.w3.org/2000/svg" viewBox="0 0 63.68534 94.57483"><defs><style>.cls-1{fill:#729f3a;}</style></defs><g id="图层_2" data-name="图层 2"><g id="OBJECTS"><path class="cls-1" d="M48.02984,16.43167C27.29172,30.64456,13.41792,60.66524,24.2576,84.84264a19.43559,19.43559,0,0,0,7.01194,8.17483.831.831,0,0,1-.85017,1.42722C5.14984,73.369,22.94689,29.83222,46.36122,14.00655A1.47218,1.47218,0,0,1,48.02984,16.43167Z"/><path class="cls-1" d="M40.11164,21.23637c3.14492,1.43026,29.99782-5.6608,22.13962-18.82757C53.6993-6.9162,38.38209,13.29089,40.11164,21.23637Z"/><path class="cls-1" d="M26.25354,40.34737c2.095,1.90313,28.05793,4.00845,24.81978-9.20826C46.08068,21.41257,27.10715,32.85982,26.25354,40.34737Z"/><path class="cls-1" d="M19.18124,59.40307c1.167,1.85482,32.25027,4.84133,28.16406-10.44968C41.68056,37.91619,20.14989,50.90608,19.18124,59.40307Z"/><path class="cls-1" d="M26.87954,39.97577c2.14629-.677,13.76573-27.17069-.91485-28.11148C14.48172,13.617,19.62259,36.5925,26.87954,39.97577Z"/><path class="cls-1" d="M20.728,58.49427c1.59574-2.214-4.53913-32.22207-18.16893-24.13637C-6.88983,42.999,12.24819,59.851,20.728,58.49427Z"/><path class="cls-1" d="M20.92914,80.74557c1.394,1.98752,35.91394,3.60329,30.56872-13.07928C44.63693,55.77174,21.53933,71.29973,20.92914,80.74557Z"/><path class="cls-1" d="M21.53374,77.14907c.5531-2.11492-12.80718-22.82039-20.66127-12.7796C-3.68411,73.60307,15.57618,80.64151,21.53374,77.14907Z"/></g></g></svg>