<svg xmlns="http://www.w3.org/2000/svg" viewBox="0 0 61.21708 63.0707"><defs><style>.cls-1{fill:#fff;}.cls-2{fill:#ffe600;}</style></defs><g id="图层_2" data-name="图层 2"><g id="OBJECTS"><path class="cls-1" d="M55.90243,36.76355c5.58092,7.34049-1.33053,17.81817-6.739,4.4243-5.92881,6.10578-16.64458,1.683-5.8282-5.8174-7.78055-.44216-10.04124-13.33063,1.9819-7.998-3.14619-11.07743,10.96175-11.31713,6.7284,1.476C60.42682,24.51657,65.73955,33.46618,55.90243,36.76355Z"/><path class="cls-2" d="M51.25463,33.20105c-.29578-1.51125-2.185-2.85446-3.49349-1.65054C45.30876,35.04973,53.1721,39.469,51.25463,33.20105Z"/><path class="cls-1" d="M22.36443,48.86055c8.91,8.15892,1.64667,19.06636-6.3759,5.7933-4.76,15.20866-16.47694,7.59926-6.8872-5.39-15.65008-1.62584-8.674-14.2495,2.6371-8.4283-.88079-9.59223,9.01489-11.14157,8.8546-.5896C32.20926,34.24739,36.93738,47.72612,22.36443,48.86055Z"/><path class="cls-2" d="M17.46974,45.67875c-.52344-1.74519-2.85364-2.97186-3.67268-.83451-1.12973,2.74823,4.97739,3.64207,3.589.79421"/><path class="cls-1" d="M36.01333,8.58755c9.57,1.01954,6.68686,10.50647-3.40659,7.4601.6724,10.735-9.60666,9.934-7.54151-.6744-8.84172,4.1886-14.44548-4.04584-2.6516-7.0991-7.184-11.89009,3.16357-9.585,6.3475-1.7564C33.1584-2.77018,43.75083.13308,36.01333,8.58755Z"/><path class="cls-2" d="M30.43063,11.30965a2.01816,2.01816,0,0,0-3.93174-.8937,2.01813,2.01813,0,0,0,3.91214.9756"/></g></g></svg>