<svg xmlns="http://www.w3.org/2000/svg" viewBox="0 0 41.1341 80.56968"><defs><style>.cls-1{fill:#90d3c7;}.cls-2{fill:#f0869e;}</style></defs><g id="图层_2" data-name="图层 2"><g id="OBJECTS"><path class="cls-1" d="M16.38561,3.8876c3.48627,25.4374.37053,50.86819-6.16593,75.53448a.99528.99528,0,0,0,1.86983.60012c9.98542-22.8812,10.9256-52.1158,5.8187-76.2624-.1968-.9306-1.6282-.8805-1.5226.1278Z"/><path class="cls-1" d="M20.77121,31.3636c5.078-4.45936,12.35494-11.73364,15.57848-18.31425-.75375-5.54863-9.03884,6.65324-10.37493,8.1783C24.85869,22.79878,16.93639,31.04384,20.77121,31.3636Z"/><path class="cls-1" d="M19.335,41.1617c4.38253,5.21125,18.01341-5.87023,17.25868-11.83877C34.3427,23.58551,17.70483,37.17041,19.335,41.1617Z"/><path class="cls-1" d="M17.45721,42.7516c4.71859-4.909-7.74228-17.29154-13.59748-15.90987C-1.60746,29.68666,13.66075,44.79487,17.45721,42.7516Z"/><path class="cls-1" d="M16.64461,62.6847c4.38267,5.21112,18.0132-5.87022,17.25868-11.83877C31.65226,45.10847,15.01437,58.6934,16.64461,62.6847Z"/><path class="cls-1" d="M14.76681,64.2745c4.71858-4.90907-7.74224-17.29133-13.59748-15.90987C-4.29786,51.20969,10.97044,66.31785,14.76681,64.2745Z"/><path class="cls-2" d="M35.81951,8.357c7.59632,1.0037,6.81542,12.63184-.84879,12.60753C25.50112,20.39986,26.8857,8.00181,35.81951,8.357Z"/><path class="cls-2" d="M17.26581.0001C23.95855-.03573,26.159,10.06875,19.163,11.74783,9.48314,14.59963,7.41943.38664,17.26581.0001Z"/></g></g></svg>