<svg xmlns="http://www.w3.org/2000/svg" viewBox="0 0 67.08146 69.4912"><defs><style>.cls-1{fill:#f2b696;}.cls-2{fill:#f7c1a9;}.cls-3{fill:#ffe600;}</style></defs><g id="图层_2" data-name="图层 2"><g id="OBJECTS"><path class="cls-1" d="M15.19109,33.39609c-15.71095.29359-16.45421-20.65911-2.5867-15.8373,0,0-6.2904-7.4259,2.0233-12.5892,8.3136-5.1632,18.525,12.3161,18.525,12.3161S33.06019-.22991,43.40649.00229c10.3465.2322,11.1982,8.0458,11.1982,8.0458,19.22644,5.62792,5.9807,21.91826-3.4824,24.2793,16.27251-1.72827,24.06169,21.98136,3.9219,24.7129a12.43021,12.43021,0,0,1-8.2703,12.0226C37.905,72.481,30.36279,54.318,30.36279,54.318s-5.4151,9.8064-11.4243,9.677a9.2453,9.2453,0,0,1-8.5998-11.5304C-6.0987,53.10568-1.79018,33.26175,15.19109,33.39609Z"/><path class="cls-2" d="M31.41089,35.26689c-2.49477-.14692-11.83546-9.8956-11.49078-7.55737.54568,1.66271,11.85862,10.521,11.49078,7.55737Z"/><path class="cls-2" d="M34.28179,32.109c-.19592-1.49238-8.324-10.72389-8.47586-7.54755,1.63129.66724,8.61753,9.413,8.47586,7.54755Z"/><path class="cls-2" d="M36.13089,31.04019c1.36059-.73507,8.62221-9.78681,5.898-9.706-.314,1.58031-8.05411,10.2804-5.898,9.706Z"/><path class="cls-2" d="M36.42679,33.48889c2.66569.68319,15.13616-10.00714,11.31938-10.00759a29.251,29.251,0,0,1-11.54161,9.362C35.87019,33.01979,36.03639,33.586,36.42679,33.48889Z"/><path class="cls-2" d="M35.50419,40.18669c-.42637,1.72212,5.887,11.44336,6.63108,8.88923-2.37514-1.04093-6.495-11.28271-6.63108-8.88923Z"/><path class="cls-2" d="M38.26829,38.04239a20.22845,20.22845,0,0,1,13.3214,6.96437c.3988.40663,1.1404-.13007.8068-.62277-2.8805-4.2545-8.8377-7.4436-14.0169-7.1643C37.93409,37.24369,37.77969,37.94959,38.26829,38.04239Z"/><path class="cls-2" d="M30.86439,40.31489c-.27244,1.70743-6.468,7.49293-5.09231,7.51767,1.286-.29088,7.80061-7.8673,5.09231-7.51767Z"/><path class="cls-2" d="M29.293,37.32579c-.97032.54012-7.76547,3.31479-6.14067,4.05015,1.02981-.62981,7.53742-3.07282,6.14067-4.05015Z"/><path class="cls-3" d="M41.31259,34.62989c2.95654,8.57333-11.45275,11.8986-13.35793,3.71C25.52236,30.05577,39.52325,25.39367,41.31259,34.62989Z"/></g></g></svg>