<svg xmlns="http://www.w3.org/2000/svg" viewBox="0 0 58.63699 57.18614"><defs><style>.cls-1{fill:#b2ce5b;}.cls-2{fill:#ee7264;}</style></defs><g id="图层_2" data-name="图层 2"><g id="OBJECTS"><path class="cls-1" d="M.10277,57.05286c2.46769,1.91988,17.23361-17.51377,19.53081-18.9751,8.64069,8.1744,21.73389,9.9628,32.53279,4.9655a1.59571,1.59571,0,0,0-1.3406-2.8962A27.25179,27.25179,0,0,1,23.98,37.47446c2.34251,1.05112,29.99919-8.31655,19.65263-9.98253-4.798,2.729-17.01918,6.657-21.36243,6.59013,4.77075-5.38246,9.72947-11.5232,15.06927-16.334a1.5951,1.5951,0,0,0,.12453-2.25266c-2.76432-2.05538-9.70016,7.25473-12.0788,9.21154.00041.001-4.8717,6.11056-4.9074,5.92816-1.51194-6.795,2.03671-15.205,5.32887-21.32616-1.9597-10.79253-11.14517,18.15467-8.63977,20.81746a27.25048,27.25048,0,0,1-2.257-23.9716,1.59561,1.59561,0,0,0-2.9656-1.1786c-4.0004,10.0592-2.68669,21.0764,4.23331,29.3223C14.90254,36.96505-1.44121,54.34356.10277,57.05286Z"/><path class="cls-2" d="M57.82858,38.11656c3.45291,5.80249-5.017,11.61074-9.18439,6.29605C43.80013,37.69873,53.32513,31.69974,57.82858,38.11656Z"/><path class="cls-2" d="M51.46858,24.484c3.67867,4.60978-2.10964,11.64864-7.09042,7.726C37.12049,27.07108,45.82553,17.884,51.46858,24.484Z"/><path class="cls-2" d="M41.98987,8.99776c-5.46468-3.53083-11.56011,4.94068-6.8254,9.14617C41.0358,21.82152,48.87332,13.54731,41.98987,8.99776Z"/><path class="cls-2" d="M29.34858,4.17056C23.70328.2501,18.527,9.52318,25.06813,12.06123,31.22643,15.12426,34.33446,7.8657,29.34858,4.17056Z"/><path class="cls-2" d="M9.77317,3.11656c-2.34124,3.84343,2.95761,6.727,6.2222,6.94993C26.49578,7.044,15.18108-5.83734,9.77317,3.11656Z"/></g></g></svg>