<svg xmlns="http://www.w3.org/2000/svg" viewBox="0 0 73.70568 64.12885"><defs><style>.cls-1{fill:#b2ce5b;}.cls-2{fill:#ee7264;}.cls-3{fill:#f4971c;}</style></defs><g id="图层_2" data-name="图层 2"><g id="OBJECTS"><path class="cls-1" d="M43.44984,14.56126c1.63432-1.50157.72377,4.519,1.0047,5.4465,1.0377-.8677,11.0151-9.3784,14.4777-12.571a.31575.31575,0,0,1,.442.4505c-.7597.7959-5.9299,6.0271-7.3216,7.3676,11.48322-2.16171,6.676,1.21946-1.0157.9758-2.5211,2.3956-5.12318,4.7393-7.7916,6.9852,11.12342-.46939,6.76928,2.5896-.7462.6243a121.788,121.788,0,0,1-9.98129,7.491C42.04327,37.60959,69.675,12.06244,67.468,2.73818,66.4744-2.77752,52.906.525,43.45035,8.31358c-10.85162,9.219-11.80447,17.7986-11.426,22.15538,3.8236-3.2794,7.68449-6.499,11.54179-9.7198A15.90644,15.90644,0,0,1,43.44984,14.56126Z"/><path class="cls-1" d="M49.66364,34.42416c2.15725.52192-3.35122,3.11656-3.9655,3.8663,1.2984.3791,13.9224,3.9308,18.5021,5.0304a.31572.31572,0,0,1-.1282.6179c-1.084-.1881-8.3078-1.5715-10.1962-1.9815,8.18643,8.33472,2.7049,6.22712-1.376-.3007-3.3935-.7611-6.7889-1.6182-10.1399-2.585,6.64565,9.09264,1.61182,7.04282-.9341-.2724a121.77058,121.77058,0,0,1-11.779-4.1226C29.733,46.08487,66.337,54.82025,72.85484,47.79679c3.883-4.17372-6.11565-13.15439-18.00038-16.84984-13.69922-3.88364-21.35729.10028-24.766,2.83971,4.8527,1.3512,9.67649,2.7667,14.49919,4.1785A15.90568,15.90568,0,0,1,49.66364,34.42416Z"/><path class="cls-2" d="M19.36255,24.81986c-13.3135,1.5346-23.5351,16.7542-17.6696,28.8042,5.8651,12.0501,25.1216,14.2659,33.5706,3.8629C44.74542,45.513,35.8062,24.01729,19.36255,24.81986Z"/><path class="cls-3" d="M22.71685,34.93716c5.945.76623,7.35812,5.26542-.4655,3.7755,2.26327,7.54059-2.33567,4.10688-3.4532.0807-3.37238,6.23306-6.37359,1.72154-1.7281-2.1076-4.17975-1.37316-3.28423-8.78062,1.85871-3.5688C20.967,27.83759,28.10186,29.53636,22.71685,34.93716Z"/></g></g></svg>