<svg xmlns="http://www.w3.org/2000/svg" viewBox="0 0 67.35447 54.36791"><defs><style>.cls-1{fill:#93bfd8;}.cls-2{fill:#fff;}</style></defs><g id="图层_2" data-name="图层 2"><g id="OBJECTS"><path class="cls-1" d="M42.00982,49.47391c-4.50314,8.04664-16.86881,5.89119-6.7461-4.4134-7.96451-2.99923-8.18624-14.59,3.0079-7.6656-2.60881-7.35908,8.09751-14.62865,8.1245-1.3748,8.82593-7.296,14.81764,5.4933,1.3319,6.7585C55.04473,48.73455,48.95941,57.17773,42.00982,49.47391Z"/><path class="cls-2" d="M43.42142,43.79051c2.16959-1.298.9399-5.19881-1.6117-3.606C38.84045,42.24068,39.55855,47.11523,43.42142,43.79051Z"/><path class="cls-1" d="M18.66272,22.85841c-3.92485,11.42551-16.82515,9.11927-7.8565-3.5341C-5.03895,21.02947-2.737,7.24923,12.99972,10.85821c-4.75516-14.99861,9.60393-13.63988,8.7804-.9456,8.444-4.63591,13.81344,3.8195,4.0744,7.8836C35.9907,26.05322,25.51883,35.76765,18.66272,22.85841Z"/><path class="cls-2" d="M18.49712,17.79251c1.39127-1.17636,1.58621-3.8027-.70054-3.70048-2.97062.06087-1.35313,6.01715.70414,3.60768"/><path class="cls-1" d="M59.90712,19.99251c2.89006,9.13119-6.941,10.37459-8.1998-.1463-9.57457,4.90082-12.94259-4.84374-2.3915-7.1839-7.369-6.43534-2.05573-14.86021,5.4511-5.2646,8.00381-11.3068,10.07592-.97215,4.1437,5.1191C69.0565,12.78945,70.8572,23.70424,59.90712,19.99251Z"/><path class="cls-2" d="M55.18312,15.96a2.01607,2.01607,0,1,0-.0829.0147"/></g></g></svg>