<?xml version="1.0" ?>
<svg xmlns="http://www.w3.org/2000/svg" version="1.1" width="94" height="227">
  <defs/>
  <g>
    <path d="M 41.668251037597656 0.5080999732017517 C 40.86662673950195 1.0207809209823608 39.88408279418945 1.1663432121276855 38.9682502746582 0.9081000089645386 C 36.668251037597656 0.008100000210106373 35.5682487487793 3.908099889755249 36.76824951171875 8.708100318908691 C 37.36825180053711 11.108099937438965 38.36825180053711 13.408100128173828 38.86825180053711 13.708100318908691 C 39.40444564819336 14.267760276794434 39.561161041259766 15.090514183044434 39.26824951171875 15.808099746704102 C 38.668251037597656 17.508100509643555 40.168251037597656 26.10810089111328 41.668251037597656 29.208099365234375 C 42.201377868652344 30.117324829101562 42.47786331176758 31.154144287109375 42.4682502746582 32.208099365234375 C 42.0682487487793 33.50809860229492 43.5682487487793 43.808101654052734 44.36825180053711 45.00809860229492 C 44.90781021118164 47.4734992980957 45.20919418334961 49.985042572021484 45.26824951171875 52.50809860229492 C 45.36825180053711 56.10810089111328 45.76824951171875 59.708099365234375 46.168251037597656 60.50809860229492 C 46.75370407104492 62.65966033935547 47.056251525878906 64.87834167480469 47.0682487487793 67.10810089111328 C 47.26824951171875 69.80809783935547 47.5682487487793 74.80809783935547 47.86825180053711 78.10810089111328 C 49.668251037597656 97.00810241699219 50.5682487487793 144.90809631347656 49.168251037597656 146.30810546875 C 48.86825180053711 146.70809936523438 48.5682487487793 149.90809631347656 48.5682487487793 153.40809631347656 C 48.37773513793945 158.5760040283203 47.80955123901367 163.7230682373047 46.86825180053711 168.80810546875 C 44.9682502746582 178.90809631347656 43.76824951171875 180.30810546875 36.26824951171875 180.70809936523438 L 31.56825065612793 181.0081024169922 L 26.868249893188477 174.0081024169922 C 24.168249130249023 170.10809326171875 21.56825065612793 166.10809326171875 20.968250274658203 165.10809326171875 C 18.868249893188477 161.40809631347656 16.868249893188477 161.0081024169922 14.068249702453613 163.60809326171875 C 12.66825008392334 164.90809631347656 11.568249702453613 166.5081024169922 11.568249702453613 167.20809936523438 C 11.568249702453613 167.90809631347656 10.468250274658203 170.20809936523438 9.068249702453613 172.20809936523438 C 7.48805046081543 174.61517333984375 6.274767875671387 177.2439422607422 5.468249797821045 180.0081024169922 C 4.868249893188477 182.30810546875 3.66825008392334 185.5081024169922 2.968250036239624 187.30810546875 C 2.16825008392334 189.0081024169922 1.0682499408721924 193.90809631347656 0.5682500004768372 198.20809936523438 C -0.3317500054836273 205.0081024169922 -0.2317499965429306 206.30810546875 1.3682500123977661 209.0081024169922 C 2.4712939262390137 210.83229064941406 4.019733905792236 212.34632873535156 5.868249893188477 213.40809631347656 C 7.368249893188477 214.10809326171875 8.568249702453613 215.10809326171875 8.568249702453613 215.60809326171875 C 8.568249702453613 216.80810546875 15.268250465393066 221.10809326171875 18.56825065612793 222.0081024169922 C 19.968250274658203 222.40809631347656 22.668249130249023 223.5081024169922 24.56825065612793 224.30810546875 C 30.56825065612793 227.10809326171875 50.168251037597656 228.0081024169922 52.9682502746582 225.70809936523438 C 53.64350128173828 225.01773071289062 54.65876388549805 224.783447265625 55.5682487487793 225.10809326171875 C 58.4682502746582 226.90809631347656 78.26824951171875 211.80810546875 78.96824645996094 207.30810546875 C 79.03955841064453 206.33151245117188 79.50972747802734 205.42733764648438 80.26824951171875 204.80810546875 C 81.96824645996094 203.70809936523438 86.76824951171875 193.5081024169922 86.16825103759766 192.10809326171875 C 85.91899108886719 191.16868591308594 86.27740478515625 190.17308044433594 87.06825256347656 189.60809326171875 C 88.36824798583984 188.5081024169922 90.36824798583984 181.5081024169922 91.06825256347656 175.90809631347656 C 91.26824951171875 174.30810546875 91.96824645996094 170.80810546875 92.56825256347656 168.10809326171875 C 93.1710205078125 165.58880615234375 93.37349700927734 162.9903564453125 93.16825103759766 160.40809631347656 C 92.86824798583984 158.90809631347656 93.06825256347656 157.40809631347656 93.46824645996094 157.10809326171875 C 94.76824951171875 156.40809631347656 94.66825103759766 79.40809631347656 93.36824798583984 77.90809631347656 C 92.86273956298828 77.20669555664062 92.78581237792969 76.28350067138672 93.16825103759766 75.50810241699219 C 93.56825256347656 74.80809783935547 93.76824951171875 71.50810241699219 93.56825256347656 68.20809936523438 C 93.46824645996094 64.80809783935547 93.16825103759766 58.708099365234375 92.96824645996094 54.60810089111328 C 91.76824951171875 27.008100509643555 90.36824798583984 14.408100128173828 88.36824798583984 11.908100128173828 C 87.86942291259766 11.290525436401367 87.71873474121094 10.461735725402832 87.96824645996094 9.708100318908691 C 88.96824645996094 8.108099937438965 85.96824645996094 1.9081000089645386 83.56825256347656 0.6080999970436096 C 82.26057434082031 -0.02120305225253105 80.77120971679688 -0.1630474478006363 79.36824798583984 0.20810000598430634 C 76.86824798583984 1.0081000328063965 47.26824951171875 0.9081000089645386 44.668251037597656 0.20810000598430634 C 43.66835021972656 -0.09692003577947617 42.587947845458984 0.011120013892650604 41.668251037597656 0.5080999732017517" stroke-width="1.0" fill="rgb(0, 0, 0)" opacity="1.0"/>
  </g>
</svg>
