<?xml version="1.0" ?>
<svg xmlns="http://www.w3.org/2000/svg" version="1.1" width="152" height="223">
  <defs/>
  <g>
    <path d="M 46.44607925415039 0.21278999745845795 C 46.146080017089844 0.4127900004386902 38.646080017089844 0.7127900123596191 29.646080017089844 0.8127899765968323 L 13.446080207824707 1.0127899646759033 L 10.946080207824707 4.8127899169921875 C 9.586039543151855 6.758392810821533 8.664804458618164 8.976179122924805 8.24608039855957 11.312789916992188 C 8.099555015563965 13.00904369354248 7.659692287445068 14.666988372802734 6.946080207824707 16.21278953552246 C 5.646080017089844 18.51279067993164 3.5460801124572754 32.112789154052734 3.1460800170898438 40.81278991699219 C 3.018972158432007 43.363616943359375 2.718276262283325 45.902828216552734 2.246079921722412 48.41278839111328 C 1.84607994556427 49.41278839111328 1.446079969406128 57.01279067993164 1.1460800170898438 65.31278991699219 C 0.9460800290107727 73.51278686523438 0.5460799932479858 80.91278839111328 0.24607999622821808 81.7127914428711 C -0.35392001271247864 83.41278839111328 0.24607999622821808 172.01278686523438 0.9460800290107727 183.11279296875 C 2.246079921722412 203.4127960205078 2.6460800170898438 207.01278686523438 3.6460800170898438 208.01278686523438 C 4.352957725524902 209.1505126953125 4.701376914978027 210.47450256347656 4.646080017089844 211.8127899169922 C 4.646080017089844 216.11279296875 7.746079921722412 221.61279296875 10.646080017089844 222.4127960205078 C 12.046079635620117 222.8127899169922 21.546079635620117 223.11279296875 31.74608039855957 223.11279296875 C 52.94607925415039 223.11279296875 54.24607849121094 222.71278381347656 53.24607849121094 216.71278381347656 C 52.94607925415039 214.71278381347656 52.24607849121094 209.51278686523438 51.646080017089844 205.21278381347656 C 51.146080017089844 200.8127899169922 50.146080017089844 196.71278381347656 49.54608154296875 196.01278686523438 C 48.936256408691406 195.25546264648438 48.71440124511719 194.25711059570312 48.94607925415039 193.3127899169922 C 49.44607925415039 192.01278686523438 48.04608154296875 182.51278686523438 46.94607925415039 179.61279296875 C 46.422672271728516 176.84124755859375 46.12171173095703 174.0323028564453 46.04608154296875 171.21278381347656 C 45.8460807800293 167.4127960205078 45.146080017089844 163.71278381347656 44.646080017089844 163.11279296875 C 43.54608154296875 161.8127899169922 44.8460807800293 153.01278686523438 46.54608154296875 149.71278381347656 C 47.146080017089844 148.71278381347656 47.24607849121094 147.51278686523438 46.8460807800293 147.11279296875 C 46.44607925415039 146.8127899169922 46.94607925415039 145.8127899169922 47.94607925415039 145.11279296875 C 50.08479309082031 143.16769409179688 51.996917724609375 140.98719787597656 53.646080017089844 138.61279296875 C 56.30440902709961 135.2219696044922 59.39766311645508 132.1959686279297 62.8460807800293 129.61279296875 C 65.74607849121094 127.41278839111328 68.64608001708984 125.2127914428711 69.34607696533203 124.61279296875 C 70.10660552978516 124.0509033203125 71.00504302978516 123.70535278320312 71.94608306884766 123.61279296875 C 73.54608154296875 123.61279296875 82.64608001708984 133.11279296875 82.74607849121094 134.8127899169922 C 82.74607849121094 135.51278686523438 84.14608001708984 138.3127899169922 85.74607849121094 141.11279296875 C 88.94608306884766 146.71278381347656 88.74607849121094 146.11279296875 91.14608001708984 153.61279296875 C 91.99332427978516 156.29750061035156 93.063720703125 158.90660095214844 94.34607696533203 161.4127960205078 C 95.04608154296875 162.61279296875 95.44608306884766 164.11279296875 95.14608001708984 164.61279296875 C 94.84607696533203 165.11279296875 95.34607696533203 168.11279296875 96.14608001708984 171.3127899169922 C 97.07903289794922 174.52516174316406 97.78082275390625 177.80020141601562 98.24607849121094 181.11279296875 C 98.44608306884766 183.3127899169922 99.04608154296875 187.8127899169922 99.64608001708984 191.11279296875 C 100.14608001708984 194.4127960205078 100.74607849121094 202.21278381347656 100.94608306884766 208.4127960205078 C 101.24607849121094 217.4127960205078 101.64608001708984 220.01278686523438 102.94608306884766 221.4127960205078 C 104.54608154296875 222.9127960205078 107.34607696533203 223.11279296875 126.74607849121094 223.21278381347656 C 154.24607849121094 223.4127960205078 152.74607849121094 224.21278381347656 152.1460723876953 209.4127960205078 C 151.44607543945312 192.8127899169922 150.1460723876953 183.01278686523438 148.44607543945312 180.9127960205078 C 147.94944763183594 180.3334197998047 147.79721069335938 179.53416442871094 148.04608154296875 178.8127899169922 C 148.74607849121094 177.61279296875 145.54608154296875 165.61279296875 144.54608154296875 165.61279296875 C 144.04608154296875 165.61279296875 143.6460723876953 164.51278686523438 143.6460723876953 163.11279296875 C 143.6460723876953 160.21278381347656 140.94607543945312 152.8127899169922 138.94607543945312 150.51278686523438 C 138.18577575683594 149.57144165039062 137.73208618164062 148.41976928710938 137.6460723876953 147.21278381347656 C 137.6460723876953 145.21278381347656 134.04608154296875 137.8127899169922 131.84608459472656 135.3127899169922 C 130.9855499267578 134.37632751464844 130.36753845214844 133.24330139160156 130.04608154296875 132.01278686523438 C 129.6460723876953 129.61279296875 124.64608001708984 121.51278686523438 123.04608154296875 120.91278839111328 C 122.2325439453125 120.57217407226562 121.68766021728516 119.79377746582031 121.64608001708984 118.91278839111328 C 121.64608001708984 116.91278839111328 115.94608306884766 108.91278839111328 113.74607849121094 107.61279296875 C 112.55528259277344 106.85828399658203 111.69698333740234 105.6781234741211 111.34607696533203 104.31278991699219 C 110.94608306884766 103.11279296875 108.64608001708984 99.91278839111328 106.14608001708984 97.31278991699219 C 103.64608001708984 94.7127914428711 101.64608001708984 92.11279296875 101.64608001708984 91.61279296875 C 101.64608001708984 90.51278686523438 108.24607849121094 80.51278686523438 109.54608154296875 79.61279296875 C 111.14608001708984 78.41278839111328 117.64608001708984 69.81278991699219 117.64608001708984 68.81278991699219 C 117.77490234375 67.989013671875 118.29743957519531 67.27986145019531 119.04608154296875 66.91278839111328 C 120.74607849121094 65.91278839111328 126.74607849121094 57.81278991699219 127.04608154296875 56.112789154052734 C 127.14608001708984 55.41278839111328 128.44607543945312 53.41278839111328 130.04608154296875 51.51279067993164 C 131.80506896972656 49.43248748779297 133.25344848632812 47.10835647583008 134.34608459472656 44.612789154052734 C 135.24607849121094 42.712791442871094 136.24607849121094 40.41278839111328 136.74607849121094 39.612789154052734 C 139.1460723876953 35.81278991699219 142.6460723876953 27.312789916992188 142.1460723876953 26.812789916992188 C 141.84608459472656 26.51279067993164 142.24607849121094 25.312789916992188 142.94607543945312 24.21278953552246 C 144.84608459472656 21.21278953552246 145.74607849121094 17.21278953552246 146.24607849121094 8.812789916992188 C 146.6460723876953 1.7127900123596191 146.6460723876953 1.6127899885177612 143.94607543945312 0.5127900242805481 C 141.72451782226562 -0.05613120645284653 139.40911865234375 -0.15828093886375427 137.1460723876953 0.21278999745845795 C 134.94607543945312 0.6127899885177612 127.14608001708984 0.8127899765968323 119.94608306884766 0.8127899765968323 C 106.84607696533203 0.6127899885177612 106.64608001708984 0.7127900123596191 105.04608154296875 3.112790107727051 C 104.14608001708984 4.512790203094482 103.64608001708984 5.912789821624756 103.94608306884766 6.212790012359619 C 104.24607849121094 6.512790203094482 103.64608001708984 8.412790298461914 102.64608001708984 10.412790298461914 C 101.29200744628906 13.198843955993652 100.22000885009766 16.11334991455078 99.44608306884766 19.112789154052734 C 98.74607849121094 21.812789916992188 97.94608306884766 24.312789916992188 97.54608154296875 24.612789154052734 C 96.64608001708984 25.312789916992188 92.54608154296875 34.712791442871094 92.04608154296875 37.01279067993164 C 91.89905548095703 37.94550704956055 91.48185729980469 38.81467056274414 90.84607696533203 39.51279067993164 C 89.34607696533203 40.51279067993164 83.34607696533203 51.612789154052734 84.34607696533203 51.612789154052734 C 84.74607849121094 51.612789154052734 84.44608306884766 52.212791442871094 83.54608154296875 52.91278839111328 C 81.24607849121094 54.712791442871094 75.64608001708984 63.212791442871094 75.64608001708984 65.01278686523438 C 75.58904266357422 65.96398162841797 75.06480407714844 66.82523345947266 74.24607849121094 67.31278991699219 C 72.74607849121094 68.11279296875 65.64608001708984 77.01278686523438 65.64608001708984 78.11279296875 C 65.64608001708984 78.41278839111328 63.24607849121094 81.11279296875 60.44607925415039 84.2127914428711 C 57.54608154296875 87.31278991699219 55.24607849121094 90.2127914428711 55.44607925415039 90.7127914428711 C 55.54608154296875 91.2127914428711 54.8460807800293 91.91278839111328 53.94607925415039 92.31278991699219 C 52.30691909790039 93.10041809082031 50.76350402832031 94.07344055175781 49.3460807800293 95.2127914428711 C 47.04608154296875 97.11279296875 46.24607849121094 97.31278991699219 44.74607849121094 96.41278839111328 C 43.24607849121094 95.51278686523438 42.8460807800293 93.81278991699219 42.646080017089844 87.7127914428711 C 42.44607925415039 83.51278686523438 42.44607925415039 79.2127914428711 42.44607925415039 78.11279296875 C 43.24607849121094 63.81278991699219 43.44607925415039 60.91278839111328 44.04608154296875 59.612789154052734 C 44.605098724365234 57.14809799194336 44.93980026245117 54.637847900390625 45.04608154296875 52.112789154052734 C 45.13579177856445 49.592018127441406 45.436851501464844 47.08321762084961 45.94607925415039 44.612789154052734 C 47.146080017089844 41.51279067993164 48.8460807800293 31.412790298461914 48.24607849121094 30.912790298461914 C 47.95688247680664 30.342464447021484 48.079139709472656 29.64967918395996 48.54608154296875 29.21278953552246 C 49.94607925415039 27.412790298461914 52.74607849121094 16.612789154052734 52.04608154296875 15.512789726257324 C 51.74607849121094 14.912790298461914 52.146080017089844 13.712789535522461 53.04608154296875 12.812789916992188 C 55.3460807800293 10.11279010772705 56.146080017089844 3.3127899169921875 54.24607849121094 1.7127900123596191 C 53.49711990356445 1.0088638067245483 52.45387268066406 0.7107929587364197 51.44607925415039 0.9127900004386902 C 50.462120056152344 1.1151387691497803 49.43852233886719 0.9739531874656677 48.54608154296875 0.5127900242805481 C 47.646080017089844 0.012790000066161156 46.646080017089844 -0.08720999956130981 46.44607925415039 0.21278999745845795" stroke-width="1.0" fill="rgb(0, 0, 0)" opacity="1.0"/>
  </g>
</svg>
