<?xml version="1.0" ?>
<svg xmlns="http://www.w3.org/2000/svg" version="1.1" width="132" height="222">
  <defs/>
  <g>
    <path d="M 21.204050064086914 2.0999999046325684 C 19.404050827026367 4.300000190734863 16.204050064086914 14.699999809265137 17.104049682617188 15.600000381469727 C 17.30405044555664 15.800000190734863 16.904050827026367 17.600000381469727 16.104049682617188 19.600000381469727 C 15.044413566589355 22.395423889160156 14.371528625488281 25.322471618652344 14.104049682617188 28.299999237060547 C 13.700361251831055 32.20079803466797 13.065916061401367 36.074249267578125 12.204050064086914 39.900001525878906 C 11.40404987335205 43.5 11.004050254821777 47.20000076293945 11.30405044555664 48.20000076293945 C 11.626466751098633 49.26910400390625 11.40208625793457 50.428401947021484 10.704050064086914 51.29999923706055 C 10.104049682617188 52.099998474121094 9.504050254821777 55.79999923706055 9.30405044555664 59.70000076293945 C 9.104049682617188 63.5 8.604049682617188 67.19999694824219 8.204050064086914 67.80000305175781 C 7.804049968719482 68.5 7.404049873352051 72.0999984741211 7.204050064086914 75.9000015258789 C 7.104050159454346 79.5999984741211 6.604050159454346 83.19999694824219 6.204050064086914 83.80000305175781 C 5.598409652709961 86.56082916259766 5.263490676879883 89.3741455078125 5.204050064086914 92.19999694824219 C 5.104050159454346 96.19999694824219 4.704050064086914 100.0999984741211 4.304049968719482 100.9000015258789 C 3.6040499210357666 102.69999694824219 2.40405011177063 118.0999984741211 2.3040499687194824 126.5999984741211 C 2.3040499687194824 130.10000610351562 1.9040499925613403 132.89999389648438 1.4040499925613403 132.89999389648438 C 0.9040499925613403 132.89999389648438 0.6040499806404114 136.39999389648438 0.8040500283241272 140.60000610351562 C 0.9040499925613403 144.89999389648438 0.7040500044822693 149.10000610351562 0.3040499985218048 149.89999389648438 C 0.004050000105053186 150.6999969482422 -0.09594999998807907 157.5 0.10405000299215317 164.89999389648438 C 0.40404999256134033 172.3000030517578 0.8040500283241272 186.0 1.0040500164031982 195.39999389648438 C 1.2040499448776245 204.6999969482422 1.5040500164031982 213.3000030517578 1.6040500402450562 214.39999389648438 C 2.0040500164031982 218.1999969482422 4.004049777984619 220.8000030517578 7.104050159454346 221.8000030517578 C 9.004050254821777 222.39999389648438 33.30405044555664 222.6999969482422 69.904052734375 222.60000610351562 C 121.5040512084961 222.39999389648438 129.80404663085938 222.1999969482422 131.1040496826172 220.89999389648438 C 132.404052734375 219.60000610351562 132.404052734375 218.1999969482422 131.6040496826172 211.89999389648438 C 131.00404357910156 207.8000030517578 129.904052734375 203.10000610351562 129.1040496826172 201.5 C 128.404052734375 199.89999389648438 128.00404357910156 198.3000030517578 128.2040557861328 197.8000030517578 C 128.904052734375 196.8000030517578 126.80404663085938 188.1999969482422 125.30404663085938 185.39999389648438 C 124.63761901855469 183.6642303466797 124.20059967041016 181.84889221191406 124.0040512084961 180.0 C 123.70404815673828 175.3000030517578 118.0040512084961 163.89999389648438 116.0040512084961 163.89999389648438 C 113.80404663085938 163.89999389648438 107.904052734375 167.6999969482422 106.70404815673828 170.0 C 106.10404968261719 171.0 105.10404968261719 171.89999389648438 104.60404968261719 171.89999389648438 C 103.5040512084961 171.89999389648438 96.30404663085938 177.10000610351562 94.20404815673828 179.3000030517578 C 93.20404815673828 180.39999389648438 84.904052734375 183.8000030517578 81.0040512084961 184.60000610351562 C 79.70404815673828 184.89999389648438 78.70404815673828 185.39999389648438 78.70404815673828 185.8000030517578 C 78.70404815673828 186.6999969482422 60.404048919677734 185.89999389648438 59.70404815673828 185.0 C 59.404048919677734 184.6999969482422 56.60404968261719 182.60000610351562 53.504051208496094 180.5 C 50.30405044555664 178.3000030517578 47.70404815673828 176.10000610351562 47.70404815673828 175.5 C 47.70404815673828 174.1999969482422 43.504051208496094 163.60000610351562 42.70404815673828 162.89999389648438 C 42.30405044555664 162.60000610351562 42.004051208496094 159.5 41.904048919677734 156.0 C 41.70404815673828 152.5 41.30405044555664 148.89999389648438 40.80405044555664 148.0 C 40.30405044555664 147.10000610351562 40.20404815673828 142.89999389648438 40.60404968261719 138.60000610351562 C 41.004051208496094 134.3000030517578 40.904048919677734 130.5 40.504051208496094 130.3000030517578 C 40.004051208496094 130.0 40.10404968261719 129.0 40.70404815673828 128.0 C 41.20404815673828 127.0 41.70404815673828 123.0999984741211 41.80405044555664 119.30000305175781 C 41.80492401123047 115.74315643310547 42.13972854614258 112.19425201416016 42.80405044555664 108.69999694824219 C 43.4485969543457 105.90660858154297 43.85009765625 103.06265258789062 44.004051208496094 100.19999694824219 C 44.08894729614258 98.06803131103516 44.424591064453125 95.9534683227539 45.004051208496094 93.9000015258789 C 46.20404815673828 90.80000305175781 47.504051208496094 82.69999694824219 47.004051208496094 80.80000305175781 C 46.70404815673828 79.80000305175781 46.904048919677734 78.9000015258789 47.404048919677734 78.9000015258789 C 48.504051208496094 78.9000015258789 50.70404815673828 70.19999694824219 50.70404815673828 65.80000305175781 C 50.70404815673828 64.19999694824219 51.10404968261719 62.900001525878906 51.504051208496094 62.900001525878906 C 52.30405044555664 62.900001525878906 55.20404815673828 53.70000076293945 55.20404815673828 50.900001525878906 C 55.30363082885742 50.03487777709961 55.5399055480957 49.191043853759766 55.904048919677734 48.400001525878906 C 57.404048919677734 46.0 60.70404815673828 36.20000076293945 60.70404815673828 34.20000076293945 C 60.61403274536133 33.29194641113281 60.90358352661133 32.3870964050293 61.504051208496094 31.700000762939453 C 62.404048919677734 31.399999618530273 66.70404815673828 21.200000762939453 66.70404815673828 19.5 C 67.28353881835938 17.371654510498047 68.12319946289062 15.322869300842285 69.20404815673828 13.399999618530273 C 72.10404968261719 7.400000095367432 72.20404815673828 5.099999904632568 69.80404663085938 2.200000047683716 C 68.10404968261719 0.10000000149011612 67.30404663085938 0.10000000149011612 45.504051208496094 1.865174681370263e-14 C 23.80405044555664 0.0 23.00404930114746 0.10000000149011612 21.204050064086914 2.0999999046325684" stroke-width="1.0" fill="rgb(0, 0, 0)" opacity="1.0"/>
  </g>
</svg>
