<?xml version="1.0" ?>
<svg xmlns="http://www.w3.org/2000/svg" version="1.1" width="176" height="230">
  <defs/>
  <g>
    <path d="M 76.23126983642578 0.8633700013160706 C 74.66199493408203 1.2260947227478027 73.17131042480469 1.869799017906189 71.83126831054688 2.7633700370788574 C 70.94379425048828 3.356673240661621 69.8987808227539 3.670178174972534 68.83126831054688 3.66336989402771 C 66.5312728881836 3.66336989402771 58.23126983642578 8.363369941711426 56.53126907348633 10.563369750976562 C 56.096736907958984 11.3353910446167 55.379844665527344 11.908904075622559 54.53126907348633 12.163370132446289 C 52.831268310546875 12.163370132446289 45.03126907348633 18.963369369506836 44.13127136230469 21.263370513916016 C 43.73126983642578 22.563369750976562 42.73126983642578 23.66337013244629 42.03126907348633 23.66337013244629 C 40.63127136230469 23.763370513916016 33.73126983642578 32.06336975097656 33.73126983642578 33.663368225097656 C 33.46993637084961 34.560420989990234 32.9041633605957 35.33835983276367 32.13127136230469 35.86336898803711 C 30.031269073486328 37.46337127685547 25.23126983642578 45.263370513916016 24.73126983642578 47.763370513916016 C 24.250011444091797 49.21184158325195 23.46597671508789 50.54129409790039 22.431270599365234 51.663368225097656 C 20.830869674682617 53.710147857666016 19.580608367919922 56.0079231262207 18.73126983642578 58.46337127685547 C 17.73126983642578 61.06336975097656 15.631270408630371 65.96337127685547 14.031270027160645 69.46337127685547 C 12.431269645690918 72.96337127685547 11.331270217895508 76.46337127685547 11.631270408630371 77.16336822509766 C 11.845576286315918 78.17162322998047 11.545890808105469 79.22052764892578 10.831270217895508 79.96337127685547 C 9.331270217895508 81.46337127685547 5.831270217895508 92.56336975097656 6.631269931793213 93.36337280273438 C 6.931270122528076 93.66336822509766 6.5312700271606445 95.16336822509766 5.631269931793213 96.76336669921875 C 4.831270217895508 98.36337280273438 3.931269884109497 102.46337127685547 3.5312700271606445 105.86337280273438 C 3.3508706092834473 108.5722885131836 2.881539821624756 111.25418090820312 2.131269931793213 113.86337280273438 C -1.3687299489974976 120.66336822509766 -0.2687300145626068 174.6633758544922 3.3312699794769287 174.6633758544922 C 3.8312699794769287 174.6633758544922 4.131269931793213 175.6633758544922 4.0312700271606445 176.86337280273438 C 3.8312699794769287 179.96336364746094 7.0312700271606445 189.26336669921875 8.831270217895508 190.6633758544922 C 9.604522705078125 191.4090576171875 10.098673820495605 192.39735412597656 10.231269836425781 193.46336364746094 C 10.231269836425781 195.76336669921875 15.031270027160645 203.46336364746094 17.23126983642578 204.6633758544922 C 18.331270217895508 205.26336669921875 19.23126983642578 206.26336669921875 19.23126983642578 206.96336364746094 C 19.23126983642578 208.6633758544922 26.23126983642578 215.26336669921875 28.931270599365234 216.06336975097656 C 30.052125930786133 216.42047119140625 31.009260177612305 217.16490173339844 31.631269454956055 218.1633758544922 C 32.23126983642578 219.86337280273438 41.931270599365234 224.96336364746094 43.23126983642578 224.1633758544922 C 43.63127136230469 223.86337280273438 44.63127136230469 224.26336669921875 45.431270599365234 224.96336364746094 C 46.931270599365234 226.46336364746094 52.53126907348633 227.86337280273438 64.23126983642578 229.6633758544922 C 73.23126983642578 231.06336975097656 116.63127136230469 230.46336364746094 118.5312728881836 228.86337280273438 C 119.68671417236328 228.19863891601562 120.998291015625 227.85348510742188 122.33126831054688 227.86337280273438 C 125.83126831054688 227.96336364746094 135.2312774658203 224.76336669921875 135.2312774658203 223.56336975097656 C 135.2312774658203 223.06336975097656 136.03126525878906 222.6633758544922 136.9312744140625 222.6633758544922 C 139.33126831054688 222.6633758544922 149.2312774658203 216.46336364746094 149.2312774658203 214.96336364746094 C 149.24392700195312 214.25070190429688 149.818603515625 213.676025390625 150.53126525878906 213.6633758544922 C 152.33126831054688 213.6633758544922 159.83126831054688 205.6633758544922 160.7312774658203 202.86337280273438 C 161.03126525878906 201.6633758544922 161.7312774658203 200.6633758544922 162.2312774658203 200.6633758544922 C 163.53126525878906 200.6633758544922 169.2312774658203 190.46336364746094 168.53126525878906 189.36337280273438 C 168.2312774658203 188.96336364746094 168.7312774658203 187.76336669921875 169.53126525878906 186.86337280273438 C 171.33126831054688 184.76336669921875 174.4312744140625 174.76336669921875 173.6312713623047 173.46336364746094 C 173.37185668945312 172.69432067871094 173.56494140625 171.84475708007812 174.1312713623047 171.26336669921875 C 178.1312713623047 166.46336364746094 177.2312774658203 112.96337127685547 173.03126525878906 107.96337127685547 C 172.47691345214844 107.18016052246094 172.2941436767578 106.19315338134766 172.53126525878906 105.26336669921875 C 173.2312774658203 103.46337127685547 170.83126831054688 93.16336822509766 169.33126831054688 91.36337280273438 C 168.7312774658203 90.56336975097656 168.53126525878906 89.76336669921875 168.83126831054688 89.46337127685547 C 169.53126525878906 88.66336822509766 166.6312713623047 78.86337280273438 165.2312774658203 77.06336975097656 C 164.41204833984375 75.83558654785156 163.89779663085938 74.4299545288086 163.7312774658203 72.96337127685547 C 163.4312744140625 70.46337127685547 160.7312774658203 63.86336898803711 158.33126831054688 59.663368225097656 C 157.83126831054688 58.86336898803711 156.4312744140625 55.763370513916016 155.1312713623047 52.86336898803711 C 153.83126831054688 49.96337127685547 152.2312774658203 47.163368225097656 151.4312744140625 46.763370513916016 C 150.6540069580078 46.26339340209961 150.11276245117188 45.46955490112305 149.9312744140625 44.56336975097656 C 149.53126525878906 41.96337127685547 144.2312774658203 33.763370513916016 142.2312774658203 32.663368225097656 C 141.20086669921875 32.14962387084961 140.46353149414062 31.191076278686523 140.2312774658203 30.063369750976562 C 140.2312774658203 27.763370513916016 123.83126831054688 11.7633695602417 119.73126983642578 10.063369750976562 C 117.83126831054688 9.2633695602417 116.23126983642578 8.2633695602417 116.23126983642578 7.763370037078857 C 116.23126983642578 6.563370227813721 106.23126983642578 2.2633700370788574 103.73126983642578 2.4633700847625732 C 102.7013168334961 2.590424060821533 101.67919921875 2.1740050315856934 101.0312728881836 1.3633699417114258 C 100.13127136230469 -0.13662999868392944 81.13127136230469 -0.5366299748420715 76.23126983642578 0.8633700013160706" stroke-width="1.0" fill="rgb(0, 0, 0)" opacity="1.0"/>
    <path d="M 96.1500015258789 50.27988815307617 C 99.33494567871094 51.98527908325195 102.20875549316406 54.216705322265625 104.6500015258789 56.87989044189453 C 106.8499984741211 59.37989044189453 109.75 62.579891204833984 111.1500015258789 63.979888916015625 C 112.44999694824219 65.37989044189453 113.6500015258789 66.87989044189453 113.6500015258789 67.47988891601562 C 113.75 69.07988739013672 119.1500015258789 78.97988891601562 119.94999694824219 78.97988891601562 C 120.3499984741211 78.97988891601562 121.25 81.27989196777344 121.8499984741211 84.07988739013672 C 122.5508041381836 86.90009307861328 123.52196502685547 89.6461410522461 124.75 92.27989196777344 C 125.59244537353516 94.10367584228516 126.22968292236328 96.01539611816406 126.6500015258789 97.97988891601562 C 126.8499984741211 99.37989044189453 127.55000305175781 102.47988891601562 128.14999389648438 104.97988891601562 C 130.25 112.87989044189453 131.14999389648438 121.07988739013672 131.75 136.47988891601562 C 132.35000610351562 150.1798858642578 132.14999389648438 152.07989501953125 130.14999389648438 157.97988891601562 C 128.9499969482422 161.57989501953125 127.8499984741211 165.1798858642578 127.6500015258789 166.1798858642578 C 127.1500015258789 168.27989196777344 116.1500015258789 179.3798828125 114.1500015258789 179.57989501953125 C 111.60546112060547 180.23338317871094 109.10121154785156 181.0347442626953 106.6500015258789 181.97988891601562 C 101.94999694824219 183.6798858642578 98.3499984741211 184.07989501953125 90.1500015258789 184.1798858642578 C 85.16529846191406 184.22010803222656 80.18462371826172 183.88583374023438 75.25 183.1798858642578 C 72.75 182.57989501953125 70.44999694824219 182.27989196777344 69.94999694824219 182.57989501953125 C 69.55000305175781 182.8798828125 66.3499984741211 181.27989196777344 62.849998474121094 179.1798858642578 C 60.258445739746094 177.49249267578125 57.551815032958984 175.9888153076172 54.75 174.6798858642578 C 53.650001525878906 174.27989196777344 53.150001525878906 173.6798858642578 53.45000076293945 173.3798828125 C 53.75 173.07989501953125 52.650001525878906 170.97988891601562 51.04999923706055 168.6798858642578 C 49.45000076293945 166.47988891601562 48.150001525878906 164.07989501953125 48.150001525878906 163.27989196777344 C 48.150001525878906 162.57989501953125 47.75 161.97988891601562 47.25 161.97988891601562 C 46.75 161.97988891601562 46.04999923706055 158.6798858642578 45.650001525878906 154.6798858642578 C 45.25 150.77989196777344 44.54999923706055 146.97988891601562 44.04999923706055 146.47988891601562 C 43.650001525878906 145.8798828125 43.650001525878906 142.27989196777344 44.25 138.47988891601562 C 44.75 134.6798858642578 44.95000076293945 130.97988891601562 44.650001525878906 130.1798858642578 C 44.473270416259766 128.3314208984375 44.64283752441406 126.46619415283203 45.150001525878906 124.67989349365234 C 45.706138610839844 121.97533416748047 46.073692321777344 119.23539733886719 46.25 116.47988891601562 C 46.461971282958984 113.62812805175781 46.998779296875 110.80989074707031 47.849998474121094 108.07988739013672 C 48.63474655151367 105.46426391601562 49.20332336425781 102.78860473632812 49.54999923706055 100.07988739013672 C 49.96283721923828 97.10736083984375 50.80495071411133 94.21049499511719 52.04999923706055 91.47988891601562 C 53.199066162109375 88.8936996459961 54.135498046875 86.21817779541016 54.849998474121094 83.47988891601562 C 55.11140060424805 81.86566925048828 55.72603225708008 80.32908630371094 56.650001525878906 78.97988891601562 C 58.650001525878906 76.37989044189453 62.349998474121094 69.57988739013672 62.75 67.67989349365234 C 63.122215270996094 66.29708862304688 63.92841720581055 65.07025146484375 65.05000305175781 64.17989349365234 C 67.04730987548828 62.270477294921875 68.9179458618164 60.232818603515625 70.6500015258789 58.079891204833984 C 75.05000305175781 52.67988967895508 85.44999694824219 46.77988815307617 89.1500015258789 47.579891204833984 C 91.55990600585938 48.26716995239258 93.90277099609375 49.17084503173828 96.1500015258789 50.27988815307617" stroke-width="1.0" fill="rgb(255, 255, 255)" opacity="1.0"/>
  </g>
</svg>
