<?xml version="1.0" ?>
<svg xmlns="http://www.w3.org/2000/svg" version="1.1" width="171" height="237">
  <defs/>
  <g>
    <path d="M 71.08805084228516 0.5894500017166138 C 70.78804779052734 1.0894500017166138 68.48805236816406 1.4894499778747559 65.98805236816406 1.5894500017166138 C 63.00065994262695 1.720023274421692 60.057884216308594 2.3626980781555176 57.28805160522461 3.489449977874756 C 54.8880500793457 4.589449882507324 50.588050842285156 6.489449977874756 47.68804931640625 7.8894500732421875 C 44.68804931640625 9.18945026397705 41.68804931640625 11.089449882507324 40.9880485534668 12.089449882507324 C 40.30168914794922 13.111867904663086 39.27357864379883 13.856362342834473 38.088050842285156 14.18945026397705 C 35.9880485534668 14.489450454711914 29.48805046081543 20.689449310302734 28.388050079345703 23.489450454711914 C 27.888050079345703 24.78944969177246 26.98805046081543 25.78944969177246 26.288049697875977 25.78944969177246 C 24.68804931640625 25.78944969177246 18.48805046081543 34.689449310302734 18.48805046081543 36.98944854736328 C 18.460920333862305 38.00231170654297 17.937458038330078 38.93706512451172 17.088050842285156 39.48944854736328 C 15.288049697875977 40.48944854736328 10.388050079345703 50.789451599121094 11.188050270080566 51.98944854736328 C 11.48805046081543 52.48944854736328 10.98805046081543 53.689449310302734 10.188050270080566 54.58945083618164 C 8.388050079345703 56.58945083618164 5.58804988861084 65.7894515991211 6.188049793243408 67.48944854736328 C 6.388050079345703 68.08944702148438 5.888050079345703 69.689453125 5.08804988861084 70.98944854736328 C 3.58804988861084 73.2894515991211 1.5880500078201294 84.7894515991211 0.6880499720573425 96.2894515991211 C -0.21195000410079956 106.7894515991211 -0.21195000410079956 136.08944702148438 0.5880500078201294 141.78944396972656 C 1.0880500078201294 144.78944396972656 1.8880499601364136 150.689453125 2.4880499839782715 154.78944396972656 C 3.08804988861084 158.8894500732422 4.288050174713135 163.28944396972656 5.08804988861084 164.58944702148438 C 5.888050079345703 165.78944396972656 6.288050174713135 167.189453125 6.08804988861084 167.689453125 C 5.288050174713135 168.8894500732422 9.48805046081543 180.78944396972656 10.58804988861084 180.78944396972656 C 11.08804988861084 180.78944396972656 11.48805046081543 181.689453125 11.48805046081543 182.8894500732422 C 11.48805046081543 185.189453125 16.18804931640625 193.8894500732422 18.18804931640625 195.08944702148438 C 18.9191951751709 195.55433654785156 19.39795684814453 196.32772827148438 19.48805046081543 197.189453125 C 19.48805046081543 199.08944702148438 26.588050842285156 207.78944396972656 28.18804931640625 207.78944396972656 C 28.888050079345703 207.78944396972656 29.888050079345703 208.689453125 30.288049697875977 209.689453125 C 31.18804931640625 212.189453125 39.4880485534668 218.78944396972656 41.78805160522461 218.78944396972656 C 42.68804931640625 218.78944396972656 43.4880485534668 219.28944396972656 43.4880485534668 219.78944396972656 C 43.4880485534668 220.9894561767578 53.18804931640625 225.78944396972656 55.588050842285156 225.78944396972656 C 57.26860427856445 226.04090881347656 58.892730712890625 226.582275390625 60.3880500793457 227.3894500732422 C 63.129302978515625 228.4814453125 66.0389633178711 229.09043884277344 68.98805236816406 229.189453125 C 71.98805236816406 229.28944396972656 74.68804931640625 229.689453125 75.08805084228516 230.08944702148438 C 76.28804779052734 231.189453125 87.28804779052734 230.8894500732422 88.08805084228516 229.689453125 C 88.38804626464844 229.08944702148438 89.78804779052734 228.8894500732422 91.18804931640625 229.28944396972656 C 94.08805084228516 229.9894561767578 104.48805236816406 227.8894500732422 104.48805236816406 226.58944702148438 C 104.48805236816406 226.189453125 105.68804931640625 225.78944396972656 107.08805084228516 225.78944396972656 C 109.98805236816406 225.78944396972656 119.48805236816406 221.9894561767578 119.48805236816406 220.78944396972656 C 119.48805236816406 220.28944396972656 120.98805236816406 219.4894561767578 122.78804779052734 218.8894500732422 C 125.26942443847656 217.8506622314453 127.51459503173828 216.31985473632812 129.38804626464844 214.3894500732422 L 132.58804321289062 211.08944702148438 L 138.28805541992188 216.3894500732422 C 141.38804626464844 219.3894500732422 144.18804931640625 221.78944396972656 144.58804321289062 221.78944396972656 C 144.98805236816406 221.78944396972656 147.88804626464844 224.28944396972656 150.98805236816406 227.28944396972656 C 154.18804931640625 230.28944396972656 157.38804626464844 232.78944396972656 158.08804321289062 232.78944396972656 C 158.83163452148438 232.75997924804688 159.45831298828125 233.3388671875 159.48779296875 234.0824432373047 L 159.48805236816406 234.0894012451172 C 159.48805236816406 235.48939514160156 163.48805236816406 237.78939819335938 165.88804626464844 237.78939819335938 C 168.98805236816406 237.78939819335938 170.58804321289062 234.0894012451172 171.18804931640625 225.48939514160156 C 171.58804321289062 220.1894073486328 171.38804626464844 216.389404296875 170.78805541992188 215.5894012451172 C 170.03294372558594 214.28448486328125 169.65232849121094 212.79661560058594 169.68804931640625 211.28939819335938 C 169.58804321289062 207.78939819335938 166.68804931640625 199.78939819335938 165.48805236816406 199.78939819335938 C 165.08804321289062 199.78939819335938 164.18804931640625 198.48939514160156 163.68804931640625 196.78939819335938 C 162.28805541992188 192.98939514160156 156.48805236816406 185.6894073486328 155.28805541992188 186.389404296875 C 153.28805541992188 187.6894073486328 152.78805541992188 182.1894073486328 154.68804931640625 177.889404296875 C 155.68804931640625 175.48939514160156 156.28805541992188 173.28939819335938 155.98805236816406 172.98939514160156 C 155.68804931640625 172.6894073486328 156.08804321289062 171.48939514160156 156.88804626464844 170.28939819335938 C 158.68804931640625 167.5894012451172 161.48805236816406 158.1894073486328 160.78805541992188 157.389404296875 C 160.48805236816406 157.0894012451172 160.98805236816406 155.28939819335938 161.88804626464844 153.28939819335938 C 163.030029296875 150.47946166992188 163.73812866210938 147.51222229003906 163.98805236816406 144.48939514160156 C 164.30221557617188 141.3292236328125 164.80308532714844 138.19039916992188 165.48805236816406 135.0894012451172 C 166.78805541992188 129.48939514160156 166.08804321289062 94.18939971923828 164.58804321289062 92.38939666748047 C 163.8817138671875 91.10969543457031 163.6682891845703 89.61569213867188 163.98805236816406 88.18939971923828 C 164.17652893066406 85.35166931152344 163.83746337890625 82.50357818603516 162.98805236816406 79.78939819335938 C 162.18804931640625 76.78939819335938 161.28805541992188 72.88939666748047 161.08804321289062 71.28939819335938 C 160.38804626464844 65.9894027709961 158.48805236816406 59.789398193359375 157.38804626464844 59.789398193359375 C 156.78805541992188 59.789398193359375 156.48805236816406 58.98939895629883 156.68804931640625 57.98939895629883 C 156.98805236816406 55.58940124511719 153.28805541992188 45.68939971923828 151.78805541992188 45.08940124511719 C 150.9649658203125 44.5716552734375 150.4720458984375 43.66164779663086 150.48805236816406 42.68939971923828 C 150.48805236816406 40.289398193359375 144.88804626464844 31.18939971923828 142.98805236816406 30.389400482177734 C 142.1234893798828 30.039039611816406 141.53907775878906 29.220855712890625 141.48805236816406 28.289400100708008 C 141.48805236816406 26.289400100708008 133.68804931640625 17.789400100708008 131.88804626464844 17.789400100708008 C 131.14447021484375 17.818857192993164 130.51780700683594 17.239971160888672 130.48831176757812 16.496400833129883 L 130.48805236816406 16.489450454711914 C 130.48805236816406 14.989450454711914 121.48805236816406 8.789449691772461 119.28804779052734 8.789449691772461 C 118.367431640625 8.783421516418457 117.49359130859375 8.382912635803223 116.88804626464844 7.689449787139893 C 115.78804779052734 5.8894500732421875 107.68804931640625 2.6894500255584717 104.18804931640625 2.589449882507324 C 102.38804626464844 2.489449977874756 100.68804931640625 1.9894499778747559 100.28804779052734 1.4894499778747559 C 99.48805236816406 0.1894499957561493 71.88804626464844 -0.6105499863624573 71.08805084228516 0.5894500017166138" stroke-width="1.0" fill="rgb(0, 0, 0)" opacity="1.0"/>
    <path d="M 97.41266632080078 48.39842987060547 C 102.31266784667969 49.798431396484375 104.31266784667969 51.09843063354492 108.91266632080078 56.09843063354492 C 112.0126724243164 59.39842987060547 114.6126708984375 62.298431396484375 114.6126708984375 62.59843063354492 C 114.7126693725586 63.798431396484375 118.5126724243164 73.19843292236328 119.41266632080078 74.29843139648438 C 120.06731414794922 75.53532409667969 120.44280242919922 76.90071868896484 120.5126724243164 78.29843139648438 C 120.98648834228516 82.44781494140625 121.75509643554688 86.5582046508789 122.81266784667969 90.59842681884766 C 124.41266632080078 95.29843139648438 124.5126724243164 139.49842834472656 122.81266784667969 142.19842529296875 C 122.31266784667969 143.0984344482422 120.7126693725586 152.8984375 120.6126708984375 155.5984344482422 C 120.4796371459961 156.7944793701172 120.10542297363281 157.95111083984375 119.5126724243164 158.99842834472656 C 118.5126724243164 160.69842529296875 118.2126693725586 160.69842529296875 115.31266784667969 159.19842529296875 C 114.0056381225586 158.44729614257812 112.58817291259766 157.90731811523438 111.1126708984375 157.5984344482422 C 109.96976470947266 157.27734375 108.93382263183594 156.65577697753906 108.1126708984375 155.79843139648438 C 106.0369644165039 154.21206665039062 103.82884979248047 152.80690002441406 101.5126724243164 151.5984344482422 C 97.1126708984375 149.19842529296875 84.1126708984375 137.29843139648438 84.1126708984375 135.5984344482422 C 84.1126708984375 134.19842529296875 80.1126708984375 125.69843292236328 79.1126708984375 125.09842681884766 C 78.7126693725586 124.79843139648438 77.1126708984375 125.09842681884766 75.7126693725586 125.69843292236328 C 73.81266784667969 126.59842681884766 73.0126724243164 127.99842834472656 72.2126693725586 131.49842834472656 C 70.91266632080078 137.8984375 71.6126708984375 150.8984375 73.5126724243164 154.79843139648438 C 74.35352325439453 156.35057067871094 74.89620971679688 158.04647827148438 75.1126708984375 159.79843139648438 C 75.1126708984375 162.0984344482422 78.41266632080078 168.79843139648438 80.81266784667969 171.19842529296875 C 81.60448455810547 171.87535095214844 82.22184753417969 172.73280334472656 82.6126708984375 173.69842529296875 C 82.6126708984375 175.29843139648438 89.5126724243164 182.79843139648438 91.7126693725586 183.5984344482422 C 93.0126724243164 184.0984344482422 94.1126708984375 185.19842529296875 94.1126708984375 185.99842834472656 C 94.09101104736328 186.7920379638672 94.57176971435547 187.51318359375 95.31266784667969 187.79843139648438 C 96.0126724243164 188.0984344482422 95.1126708984375 188.8984375 93.41266632080078 189.79843139648438 C 90.81266784667969 191.0984344482422 88.81266784667969 191.19842529296875 81.6126708984375 190.3984375 C 76.91266632080078 189.8984375 72.2126693725586 188.8984375 71.31266784667969 188.0984344482422 C 70.41266632080078 187.29843139648438 67.6126708984375 185.0984344482422 65.2126693725586 183.0984344482422 C 62.19852066040039 180.47657775878906 59.6904182434082 177.3245086669922 57.81267166137695 173.79843139648438 C 56.1126708984375 170.69842529296875 54.41267013549805 167.79843139648438 53.91267013549805 167.49842834472656 C 53.41267013549805 167.19842529296875 52.81267166137695 165.49842834472656 52.6126708984375 163.79843139648438 C 52.212669372558594 160.29843139648438 50.212669372558594 152.49842834472656 49.31267166137695 151.19842529296875 C 49.01266860961914 150.69842529296875 48.6126708984375 147.19842529296875 48.41267013549805 143.29843139648438 C 48.212669372558594 139.49842834472656 47.81267166137695 135.99842834472656 47.51266860961914 135.49842834472656 C 46.81267166137695 134.19842529296875 46.712669372558594 105.49842834472656 47.51266860961914 103.59842681884766 C 48.031681060791016 100.96097564697266 48.332698822021484 98.2852783203125 48.41267013549805 95.59842681884766 C 48.51266860961914 91.99842834472656 48.91267013549805 88.59842681884766 49.212669372558594 88.09842681884766 C 50.212669372558594 86.39842987060547 52.51266860961914 76.19843292236328 52.212669372558594 74.69843292236328 C 52.08180618286133 73.95535278320312 52.346981048583984 73.19771575927734 52.91267013549805 72.69843292236328 C 54.212669372558594 71.89842987060547 59.1126708984375 61.99842834472656 59.1126708984375 60.09843063354492 C 59.1126708984375 59.298431396484375 59.41267013549805 58.59843063354492 59.91267013549805 58.59843063354492 C 60.31267166137695 58.59843063354492 63.01266860961914 56.298431396484375 66.0126724243164 53.49842834472656 C 68.91266632080078 50.698429107666016 72.31266784667969 48.198429107666016 73.5126724243164 48.09843063354492 C 74.6126708984375 47.89842987060547 77.91266632080078 47.298431396484375 80.6126708984375 46.698429107666016 C 86.31266784667969 45.59843063354492 89.1126708984375 45.89842987060547 97.41266632080078 48.39842987060547" stroke-width="1.0" fill="rgb(255, 255, 255)" opacity="1.0"/>
  </g>
</svg>
