<?xml version="1.0" ?>
<svg xmlns="http://www.w3.org/2000/svg" version="1.1" width="167" height="226">
  <defs/>
  <g>
    <path d="M 66.89234924316406 0.24375000596046448 C 66.59234619140625 0.543749988079071 63.49235153198242 0.9437500238418579 59.99235153198242 1.243749976158142 C 56.166683197021484 1.470153570175171 52.3591194152832 1.9377493858337402 48.592350006103516 2.643749952316284 C 45.89234924316406 3.143749952316284 40.79235076904297 4.043749809265137 37.39234924316406 4.743750095367432 C 33.89234924316406 5.34375 31.092350006103516 6.243750095367432 31.092350006103516 6.643750190734863 C 31.092350006103516 7.143750190734863 29.592350006103516 7.443749904632568 27.692350387573242 7.443749904632568 C 24.592350006103516 7.443749904632568 19.49234962463379 9.443750381469727 13.092350006103516 13.143750190734863 C 10.592350006103516 14.543749809265137 6.592350006103516 24.043750762939453 7.692349910736084 25.84375 C 7.992350101470947 26.34375 7.692349910736084 27.34375 7.092350006103516 28.243749618530273 C 5.392350196838379 30.243749618530273 3.192349910736084 40.14374923706055 3.7923500537872314 42.64374923706055 C 4.092350006103516 43.743751525878906 3.8923499584198 44.64374923706055 3.2923500537872314 44.64374923706055 C 2.192349910736084 44.64374923706055 1.0923500061035156 49.84375 0.3923499882221222 57.64374923706055 C -0.8076500296592712 71.54374694824219 0.3923499882221222 73.04374694824219 8.992349624633789 68.54374694824219 C 12.328691482543945 66.76373291015625 15.477828025817871 64.65314483642578 18.392349243164062 62.243751525878906 C 20.558155059814453 60.280250549316406 22.940109252929688 58.569271087646484 25.49234962463379 57.14374923706055 C 27.95062828063965 55.88365936279297 30.208507537841797 54.266075134277344 32.19234848022461 52.34375 C 33.69234848022461 50.84375 35.39234924316406 49.64374923706055 36.092350006103516 49.64374923706055 C 37.39234924316406 49.64374923706055 44.99235153198242 45.943748474121094 47.092350006103516 44.243751525878906 C 48.69234848022461 42.943748474121094 56.49235153198242 40.943748474121094 61.592350006103516 40.443748474121094 L 64.59234619140625 40.14374923706055 L 65.19235229492188 48.64374923706055 C 65.49234771728516 53.34375 65.39234924316406 57.84375 64.99234771728516 58.64374923706055 C 63.69234848022461 61.04375076293945 62.19234848022461 69.84375 62.79235076904297 71.34375 C 63.071075439453125 72.23949432373047 62.8834228515625 73.21527862548828 62.29235076904297 73.9437484741211 C 61.39234924316406 75.04374694824219 60.592350006103516 78.84375 59.592350006103516 87.2437515258789 C 59.39234924316406 88.84375 58.69234848022461 92.84375 58.092350006103516 96.04374694824219 C 57.49235153198242 99.34375 57.29235076904297 102.64375305175781 57.592350006103516 103.4437484741211 C 57.87228775024414 104.32533264160156 57.724327087402344 105.28707885742188 57.19234848022461 106.04374694824219 C 56.19234848022461 107.14375305175781 55.19234848022461 118.4437484741211 54.592350006103516 132.6437530517578 C 54.49235153198242 136.24374389648438 54.19234848022461 141.84375 54.092350006103516 145.24374389648438 C 53.89234924316406 148.5437469482422 54.092350006103516 151.84375 54.49235153198242 152.5437469482422 C 54.84722137451172 153.4510040283203 54.69502258300781 154.4783477783203 54.092350006103516 155.24374389648438 C 53.19234848022461 156.24374389648438 52.99235153198242 158.44375610351562 53.49235153198242 162.44375610351562 C 53.89234924316406 165.5437469482422 54.39234924316406 175.44375610351562 54.49235153198242 184.34375 C 54.69234848022461 194.74374389648438 55.29235076904297 201.1437530517578 55.99235153198242 202.0437469482422 C 56.6422233581543 202.86209106445312 56.83066177368164 203.9550323486328 56.49235153198242 204.94375610351562 C 55.79235076904297 207.0437469482422 57.99235153198242 217.6437530517578 59.19234848022461 217.6437530517578 C 59.69234848022461 217.6437530517578 60.092350006103516 218.6437530517578 60.092350006103516 219.94375610351562 C 60.27792739868164 221.64761352539062 61.099239349365234 223.2188262939453 62.39234924316406 224.34375 C 64.49234771728516 226.34375 65.59234619140625 226.44375610351562 86.89234924316406 226.34375 C 111.69235229492188 226.24374389648438 113.09234619140625 225.94375610351562 113.09234619140625 220.34375 C 113.06501770019531 218.39964294433594 112.51214599609375 216.4991455078125 111.49234771728516 214.84375 C 110.69235229492188 213.6437530517578 110.19235229492188 212.24374389648438 110.49234771728516 211.74374389648438 C 111.19235229492188 210.6437530517578 107.99234771728516 199.34375 106.79235076904297 198.5437469482422 C 106.21094512939453 198.00831604003906 106.04849243164062 197.15542602539062 106.39234924316406 196.44375610351562 C 106.99234771728516 194.74374389648438 105.49234771728516 186.1437530517578 103.89234924316406 182.94375610351562 C 103.3303451538086 182.05117797851562 103.15020751953125 180.97035217285156 103.39234924316406 179.94375610351562 C 103.69235229492188 179.5437469482422 103.49234771728516 177.1437530517578 102.99234771728516 174.6437530517578 C 100.29235076904297 161.0437469482422 98.99234771728516 141.1437530517578 99.09234619140625 115.14375305175781 C 99.09234619140625 92.54374694824219 99.49234771728516 83.84375 100.89234924316406 75.14375305175781 C 101.33868408203125 72.73767852783203 101.50646209716797 70.2882080078125 101.39234924316406 67.84375 C 101.11393737792969 66.98011016845703 101.30318450927734 66.03387451171875 101.89234924316406 65.34375 C 102.49234771728516 64.7437515258789 103.49234771728516 61.243751525878906 104.19235229492188 57.64374923706055 C 105.49234771728516 51.14374923706055 107.29235076904297 47.64374923706055 111.99234771728516 42.34375 C 114.09234619140625 40.04375076293945 114.99234771728516 39.743751525878906 117.99234771728516 40.243751525878906 C 120.51367950439453 40.6885871887207 122.99020385742188 41.35791778564453 125.39234924316406 42.243751525878906 C 127.39234924316406 42.943748474121094 129.09234619140625 43.34375 129.09234619140625 42.943748474121094 C 129.09234619140625 42.54375076293945 131.69235229492188 44.743751525878906 134.89234924316406 47.743751525878906 C 137.9923553466797 50.84375 141.39234924316406 53.64374923706055 142.39234924316406 53.943748474121094 C 143.29054260253906 54.293827056884766 143.9369659423828 55.09235382080078 144.09234619140625 56.04375076293945 C 144.09234619140625 57.84375 149.9923553466797 62.84375 151.4923553466797 62.34375 C 152.46360778808594 61.75442886352539 153.23129272460938 60.882049560546875 153.69235229492188 59.84375 C 154.41802978515625 58.45508575439453 155.28961181640625 57.147705078125 156.29234313964844 55.943748474121094 C 158.69235229492188 53.243751525878906 162.09234619140625 45.943748474121094 162.09234619140625 43.64374923706055 C 162.09234619140625 42.54375076293945 162.4923553466797 41.64374923706055 162.9923553466797 41.64374923706055 C 164.29234313964844 41.64374923706055 166.9923553466797 33.04375076293945 167.59234619140625 26.943750381469727 C 168.09234619140625 22.143749237060547 167.79234313964844 21.443750381469727 164.9923553466797 18.143749237060547 C 163.29234313964844 16.243749618530273 161.29234313964844 14.643750190734863 160.59234619140625 14.643750190734863 C 159.49436950683594 14.454030990600586 158.48165893554688 13.93021297454834 157.69235229492188 13.143750190734863 C 155.69235229492188 11.043749809265137 147.4923553466797 7.643750190734863 144.59234619140625 7.643750190734863 C 143.56295776367188 7.71344518661499 142.54042053222656 7.431365966796875 141.69235229492188 6.84375 C 141.09234619140625 5.943749904632568 130.89234924316406 3.4437499046325684 129.4923553466797 3.84375 C 127.980224609375 3.7578258514404297 126.49308013916016 3.4198386669158936 125.09234619140625 2.84375 C 121.82612609863281 1.9171943664550781 118.47665405273438 1.3142894506454468 115.09234619140625 1.0437500476837158 C 105.89234924316406 0.24375000596046448 67.49234771728516 -0.35624998807907104 66.89234924316406 0.24375000596046448" stroke-width="1.0" fill="rgb(0, 0, 0)" opacity="1.0"/>
  </g>
</svg>
