<?xml version="1.0" ?>
<svg xmlns="http://www.w3.org/2000/svg" version="1.1" width="162" height="227">
  <defs/>
  <g>
    <path d="M 12.539400100708008 1.2102899551391602 C 11.919376373291016 1.8278080224990845 11.530929565429688 2.6400136947631836 11.439399719238281 3.5102899074554443 C 11.285778999328613 4.428431510925293 10.784402847290039 5.252120018005371 10.039400100708008 5.8102898597717285 C 8.539400100708008 7.110290050506592 6.039400100708008 16.11029052734375 6.2393999099731445 19.410289764404297 C 6.278147220611572 20.513219833374023 5.962751865386963 21.59958267211914 5.339399814605713 22.510290145874023 C 4.839399814605713 23.210290908813477 4.139400005340576 26.910289764404297 3.9393999576568604 30.910289764404297 C 3.8272204399108887 33.633018493652344 3.492774486541748 36.3420295715332 2.9393999576568604 39.01028823852539 C 2.339400053024292 39.9102897644043 2.039400100708008 43.61029052734375 0.7394000291824341 67.91029357910156 C -1.0606000423431396 99.11029052734375 0.6394000053405762 148.21029663085938 3.539400100708008 150.01028442382812 C 4.139400005340576 150.31028747558594 4.339399814605713 151.51028442382812 4.039400100708008 152.51028442382812 C 3.339400053024292 154.71029663085938 5.7393999099731445 164.31028747558594 7.4394001960754395 166.41029357910156 C 8.032488822937012 167.0572967529297 8.25823974609375 167.96029663085938 8.039400100708008 168.81028747558594 C 7.2393999099731445 170.01028442382812 10.939399719238281 179.61029052734375 12.939399719238281 181.61029052734375 C 13.739399909973145 182.41029357910156 14.239399909973145 183.51028442382812 13.939399719238281 183.91029357910156 C 13.239399909973145 185.01028442382812 19.23940086364746 195.91029357910156 20.539400100708008 195.91029357910156 C 21.039400100708008 195.91029357910156 22.039400100708008 197.41029357910156 22.73940086364746 199.21029663085938 C 24.139400482177734 202.41029357910156 30.639400482177734 208.91029357910156 32.43939971923828 208.91029357910156 C 33.039398193359375 208.91029357910156 33.43939971923828 209.51028442382812 33.43939971923828 210.31028747558594 C 33.43939971923828 211.91029357910156 39.73939895629883 216.41029357910156 44.23939895629883 218.01028442382812 C 45.93939971923828 218.61029052734375 47.43939971923828 219.41029357910156 47.43939971923828 219.91029357910156 C 47.43939971923828 221.01028442382812 56.23939895629883 224.21029663085938 59.33940124511719 224.11029052734375 C 60.73939895629883 224.11029052734375 62.23939895629883 224.61029052734375 62.639400482177734 225.21029663085938 C 62.93939971923828 225.81028747558594 66.53939819335938 226.41029357910156 70.63939666748047 226.51028442382812 C 74.63939666748047 226.61029052734375 78.63939666748047 227.01028442382812 79.53939819335938 227.41029357910156 C 81.93939971923828 228.31028747558594 103.2394027709961 225.11029052734375 106.83940124511719 223.31028747558594 C 108.6024398803711 222.3829345703125 110.48777770996094 221.70960998535156 112.43939971923828 221.31028747558594 C 115.43939971923828 220.71029663085938 121.43939971923828 217.21029663085938 123.2394027709961 215.01028442382812 C 123.76441192626953 214.23739624023438 124.54235076904297 213.671630859375 125.43939971923828 213.41029357910156 C 127.03939819335938 213.41029357910156 135.4394073486328 205.81028747558594 135.4394073486328 204.41029357910156 C 135.67971801757812 203.31065368652344 136.41934204101562 202.38612365722656 137.4394073486328 201.91029357910156 C 139.4394073486328 200.81028747558594 144.73939514160156 192.61029052734375 145.139404296875 190.01028442382812 C 145.224853515625 189.1992645263672 145.66400146484375 188.46734619140625 146.3394012451172 188.01028442382812 C 147.3394012451172 187.31028747558594 151.9394073486328 177.21029663085938 152.03939819335938 175.41029357910156 C 152.42942810058594 173.75311279296875 152.99948120117188 172.14353942871094 153.73939514160156 170.61029052734375 C 154.89297485351562 167.888916015625 155.69931030273438 165.0331268310547 156.139404296875 162.11029052734375 C 156.3111114501953 160.11744689941406 156.78311157226562 158.16201782226562 157.53939819335938 156.31028747558594 C 158.53939819335938 155.11029052734375 159.9394073486328 145.11029052734375 161.4394073486328 128.91029357910156 C 162.03939819335938 123.11029052734375 162.23939514160156 102.91029357910156 161.9394073486328 83.41029357910156 C 161.53939819335938 47.3102912902832 160.9394073486328 35.61029052734375 159.53939819335938 30.410289764404297 C 159.0203399658203 28.619586944580078 158.7181854248047 26.77303695678711 158.639404296875 24.910289764404297 C 158.53939819335938 21.010290145874023 157.3394012451172 15.610289573669434 156.139404296875 13.410289764404297 C 155.46702575683594 12.095765113830566 155.02720642089844 10.674800872802734 154.8394012451172 9.21028995513916 C 154.23939514160156 4.3102898597717285 147.53939819335938 -1.7897100448608398 145.8394012451172 1.0102900266647339 Q 145.23939514160156 1.910290002822876 144.03939819335938 1.0102900266647339 C 142.139404296875 -0.589709997177124 115.43939971923828 -0.18971000611782074 112.93939971923828 1.5102900266647339 C 111.7394027709961 2.3102900981903076 110.43939971923828 2.610290050506592 109.93939971923828 2.21028995513916 C 108.63939666748047 0.910290002822876 110.2394027709961 12.010290145874023 111.7394027709961 14.310290336608887 C 112.60836791992188 15.697739601135254 113.1234359741211 17.27729606628418 113.2394027709961 18.910289764404297 C 113.2394027709961 22.210290908813477 115.33940124511719 30.11029052734375 116.63939666748047 31.61029052734375 C 117.26797485351562 32.441619873046875 117.4194564819336 33.53984069824219 117.03939819335938 34.51028823852539 C 116.7394027709961 35.3102912902832 117.03939819335938 39.3102912902832 117.83940124511719 43.210289001464844 C 120.38105010986328 57.096466064453125 121.58655548095703 71.1941909790039 121.43939971923828 85.31028747558594 C 121.43939971923828 90.91029357910156 121.93939971923828 95.81028747558594 122.53939819335938 96.51029205322266 C 123.10867309570312 97.13067626953125 123.29973602294922 98.00955963134766 123.03939819335938 98.81028747558594 C 122.43939971923828 99.61029052734375 121.43939971923828 114.91029357910156 121.03939819335938 127.41029357910156 C 121.02670288085938 129.1004638671875 120.79134368896484 130.78160095214844 120.33940124511719 132.41029357910156 C 119.63939666748047 133.41029357910156 118.2394027709961 140.71029663085938 117.93939971923828 144.41029357910156 C 117.2557373046875 147.17120361328125 116.28372955322266 149.8526153564453 115.03939819335938 152.41029357910156 C 113.76325988769531 154.8723907470703 112.72521209716797 157.45077514648438 111.93939971923828 160.11029052734375 C 111.48207092285156 161.42922973632812 110.7296142578125 162.62631225585938 109.7394027709961 163.61029052734375 C 108.7394027709961 164.71029663085938 106.33940124511719 167.31028747558594 104.43939971923828 169.51028442382812 C 101.63939666748047 172.61029052734375 99.13939666748047 174.01028442382812 92.93939971923828 176.11029052734375 C 88.13939666748047 177.71029663085938 83.7394027709961 178.61029052734375 81.93939971923828 178.31028747558594 C 75.2394027709961 177.21029663085938 69.83940124511719 175.51028442382812 68.33940124511719 174.01028442382812 C 67.53939819335938 173.11029052734375 65.03939819335938 170.81028747558594 62.83940124511719 168.81028747558594 C 59.43939971923828 165.81028747558594 51.33940124511719 151.81028747558594 50.93939971923828 148.41029357910156 C 50.1012077331543 144.01467895507812 48.99921798706055 139.67349243164062 47.639400482177734 135.41029357910156 C 47.11071014404297 133.48536682128906 46.80866622924805 131.5052947998047 46.73939895629883 129.51028442382812 C 46.5438232421875 126.68487548828125 46.142765045166016 123.87744903564453 45.539398193359375 121.11029052734375 C 44.94247055053711 119.13533782958984 44.77204132080078 117.05608367919922 45.039398193359375 115.01029205322266 C 45.2764892578125 112.27142333984375 45.141937255859375 109.51307678222656 44.639400482177734 106.81028747558594 C 44.115577697753906 102.69698333740234 44.048500061035156 98.53834533691406 44.43939971923828 94.41029357910156 C 44.83940124511719 90.51029205322266 44.73939895629883 86.91029357910156 44.33940124511719 86.41029357910156 C 43.908241271972656 85.61022186279297 43.98652648925781 84.63163757324219 44.539398193359375 83.91029357910156 C 45.039398193359375 83.11029052734375 45.43939971923828 79.21028900146484 45.43939971923828 75.41029357910156 C 45.450775146484375 71.05818939208984 45.78502655029297 66.71292877197266 46.43939971923828 62.4102897644043 C 47.039398193359375 59.11029052734375 47.33940124511719 55.4102897644043 46.93939971923828 54.210289001464844 C 46.639400482177734 53.01028823852539 46.83940124511719 51.8102912902832 47.33940124511719 51.51028823852539 C 48.23939895629883 50.9102897644043 50.039398193359375 40.61029052734375 49.639400482177734 37.51028823852539 C 49.53639221191406 36.460514068603516 49.78242874145508 35.406070709228516 50.33940124511719 34.51028823852539 C 51.539398193359375 32.9102897644043 53.73939895629883 22.910289764404297 53.039398193359375 22.210290908813477 C 52.73939895629883 21.81028938293457 53.039398193359375 20.61029052734375 53.73939895629883 19.510290145874023 C 57.539398193359375 13.510290145874023 58.23939895629883 2.110290050506592 54.83940124511719 0.910290002822876 C 51.639400482177734 -0.28970998525619507 13.739399909973145 0.010289999656379223 12.539400100708008 1.2102899551391602" stroke-width="1.0" fill="rgb(0, 0, 0)" opacity="1.0"/>
  </g>
</svg>
