<?xml version="1.0" ?>
<svg xmlns="http://www.w3.org/2000/svg" version="1.1" width="218" height="229">
  <defs/>
  <g>
    <path d="M 5.68326997756958 1.930999994277954 C 4.581650733947754 3.0807533264160156 3.790224313735962 4.491556644439697 3.383270025253296 6.031000137329102 C 0.983269989490509 18.0310001373291 0.5832700133323669 21.33099937438965 1.0832699537277222 24.83099937438965 C 1.383270025253296 27.0310001373291 1.18326997756958 29.0310001373291 0.783270001411438 29.33099937438965 C -0.11672999709844589 29.930999755859375 -0.31672999262809753 89.83100128173828 0.5832700133323669 91.33100128173828 C 0.8832700252532959 91.83100128173828 1.283270001411438 95.63099670410156 1.4832700490951538 99.73100280761719 C 1.5832699537277222 104.03099822998047 2.18326997756958 107.53099822998047 2.883270025253296 107.93099975585938 C 3.5909526348114014 108.46675872802734 3.8390562534332275 109.41781616210938 3.4832699298858643 110.23100280761719 C 2.7832698822021484 111.93099975585938 4.18326997756958 120.63099670410156 5.68326997756958 124.33100128173828 C 6.588405132293701 127.10968017578125 7.290256500244141 129.95050048828125 7.783269882202148 132.83099365234375 C 8.383270263671875 136.43099975585938 9.283269882202148 139.531005859375 9.783269882202148 139.83099365234375 C 10.183270454406738 140.13099670410156 10.783269882202148 142.43099975585938 11.183270454406738 145.031005859375 C 11.792433738708496 148.22462463378906 12.835428237915039 151.31996154785156 14.283269882202148 154.2310028076172 C 15.583270072937012 156.63099670410156 16.383270263671875 158.83099365234375 16.183269500732422 159.13099670410156 C 15.483269691467285 159.83099365234375 19.583269119262695 169.83099365234375 21.28326988220215 171.531005859375 C 22.083269119262695 172.33099365234375 22.583269119262695 173.43099975585938 22.28326988220215 173.83099365234375 C 21.683269500732422 174.83099365234375 26.4832706451416 184.93099975585938 27.9832706451416 185.93099975585938 C 28.616857528686523 186.6694793701172 29.032367706298828 187.5697479248047 29.183269500732422 188.531005859375 C 29.883270263671875 191.7310028076172 34.68326950073242 200.83099365234375 35.78327178955078 200.83099365234375 C 36.383270263671875 200.83099365234375 36.78327178955078 201.531005859375 36.78327178955078 202.33099365234375 C 36.78327178955078 204.43099975585938 43.48326873779297 214.83099365234375 44.78327178955078 214.83099365234375 C 45.28327178955078 214.83099365234375 45.78327178955078 215.43099975585938 45.78327178955078 216.2310028076172 C 45.78327178955078 218.031005859375 53.78327178955078 228.2310028076172 54.58327102661133 227.43099975585938 C 54.883270263671875 227.13099670410156 55.883270263671875 227.531005859375 56.883270263671875 228.43099975585938 C 58.18326950073242 229.63099670410156 59.08327102661133 229.7310028076172 60.68326950073242 228.93099975585938 C 62.98326873779297 227.63099670410156 67.78327178955078 221.7310028076172 67.78327178955078 220.031005859375 C 67.90789794921875 219.23402404785156 68.38557434082031 218.53587341308594 69.08326721191406 218.13099670410156 C 70.98326873779297 216.93099975585938 76.78327178955078 207.13099670410156 75.98326873779297 206.33099365234375 C 75.58326721191406 205.93099975585938 75.98326873779297 205.13099670410156 76.88327026367188 204.531005859375 C 78.88327026367188 203.031005859375 83.78327178955078 194.63099670410156 83.78327178955078 192.63099670410156 C 84.02526092529297 191.2620849609375 84.68965148925781 190.00323486328125 85.68327331542969 189.031005859375 C 87.24710845947266 186.85403442382812 88.61893463134766 184.54534912109375 89.78327178955078 182.13099670410156 C 91.78369140625 177.631591796875 94.22920227050781 173.34356689453125 97.08326721191406 169.33099365234375 C 98.78327178955078 166.531005859375 100.28327178955078 163.93099975585938 100.28327178955078 163.33099365234375 C 100.28327178955078 162.83099365234375 101.48326873779297 161.7310028076172 102.98326873779297 160.93099975585938 C 105.58326721191406 159.43099975585938 105.78327178955078 159.531005859375 109.18327331542969 163.031005859375 C 111.18327331542969 165.031005859375 112.78327178955078 167.2310028076172 112.78327178955078 167.83099365234375 C 112.78327178955078 168.43099975585938 114.48326873779297 171.531005859375 116.48326873779297 174.63099670410156 C 118.3692626953125 177.3990478515625 119.9770736694336 180.34671020507812 121.28327178955078 183.43099975585938 C 122.51913452148438 186.13507080078125 123.9565200805664 188.74241638183594 125.58326721191406 191.2310028076172 C 127.38327026367188 193.83099365234375 128.78326416015625 196.43099975585938 128.78326416015625 197.031005859375 C 128.78326416015625 198.7310028076172 133.88327026367188 207.2310028076172 135.4832763671875 208.13099670410156 C 136.26832580566406 208.68345642089844 136.74942016601562 209.57164001464844 136.78326416015625 210.531005859375 C 136.78326416015625 212.531005859375 142.6832733154297 221.83099365234375 143.88327026367188 221.83099365234375 C 144.38327026367188 221.83099365234375 145.28326416015625 222.93099975585938 145.78326416015625 224.2310028076172 C 147.1832733154297 228.13099670410156 151.28326416015625 230.33099365234375 154.28326416015625 229.031005859375 C 155.6832733154297 228.33099365234375 156.78326416015625 227.43099975585938 156.78326416015625 226.83099365234375 C 156.78326416015625 226.33099365234375 158.58326721191406 224.031005859375 160.78326416015625 221.7310028076172 C 163.04000854492188 219.33740234375 164.95787048339844 216.6456756591797 166.4832763671875 213.7310028076172 C 167.38327026367188 211.63099670410156 168.4832763671875 209.83099365234375 168.88327026367188 209.83099365234375 C 169.88327026367188 209.83099365234375 175.78326416015625 200.13099670410156 175.78326416015625 198.33099365234375 C 175.8437957763672 197.40676879882812 176.3716583251953 196.5772705078125 177.1832733154297 196.13099670410156 C 178.78326416015625 195.2310028076172 183.78326416015625 185.531005859375 183.78326416015625 183.43099975585938 C 183.73727416992188 182.71270751953125 184.08103942871094 182.02517700195312 184.6832733154297 181.63099670410156 C 185.9832763671875 181.13099670410156 190.78326416015625 171.13099670410156 190.78326416015625 168.83099365234375 C 190.78326416015625 167.7310028076172 191.1832733154297 166.83099365234375 191.6832733154297 166.83099365234375 C 192.58326721191406 166.83099365234375 196.88327026367188 157.43099975585938 197.28326416015625 154.83099365234375 C 197.90184020996094 152.6339569091797 198.70468139648438 150.49302673339844 199.6832733154297 148.43099975585938 C 201.04066467285156 145.64987182617188 201.98397827148438 142.68516540527344 202.4832763671875 139.63099670410156 C 202.78326416015625 137.531005859375 203.38327026367188 135.83099365234375 203.78326416015625 135.83099365234375 C 204.1832733154297 135.83099365234375 205.28326416015625 133.031005859375 206.1832733154297 129.63099670410156 C 207.1832733154297 126.13099670410156 208.58326721191406 121.33100128173828 209.28326416015625 118.83100128173828 C 210.6832733154297 114.33100128173828 211.6832733154297 109.83100128173828 213.78326416015625 97.83100128173828 C 214.38327026367188 94.23100280761719 215.38327026367188 89.23100280761719 215.88327026367188 86.73100280761719 C 217.38327026367188 80.03099822998047 217.88327026367188 72.63099670410156 218.38327026367188 50.83100128173828 C 218.88327026367188 28.930999755859375 217.58326721191406 11.531000137329102 215.38327026367188 9.230999946594238 C 214.5579071044922 8.59859561920166 214.16896057128906 7.548468112945557 214.38327026367188 6.531000137329102 C 214.58326721191406 5.830999851226807 213.6832733154297 4.13100004196167 212.1832733154297 2.8310000896453857 C 209.6832733154297 0.3310000002384186 209.28326416015625 0.3310000002384186 192.08326721191406 0.3310000002384186 C 175.78326416015625 0.3310000002384186 174.4832763671875 0.4309999942779541 173.1832733154297 2.3310000896453857 C 172.37039184570312 3.494746685028076 172.04718017578125 4.9312357902526855 172.28326416015625 6.330999851226807 C 172.6832733154297 7.431000232696533 173.4832763671875 11.630999565124512 174.28326416015625 15.630999565124512 C 174.9832763671875 19.631000518798828 176.1832733154297 23.631000518798828 176.78326416015625 24.33099937438965 C 177.4766082763672 25.125133514404297 177.7379913330078 26.208024978637695 177.4832763671875 27.231000900268555 C 177.1832733154297 28.0310001373291 177.58326721191406 31.430999755859375 178.28326416015625 34.930999755859375 C 180.08326721191406 42.930999755859375 180.9832763671875 53.53099822998047 180.88327026367188 66.33100128173828 C 180.88327026367188 78.13099670410156 180.1832733154297 90.73100280761719 179.4832763671875 92.83100128173828 C 178.1832733154297 96.33100128173828 176.78326416015625 105.03099822998047 177.38327026367188 105.93099975585938 C 177.63966369628906 106.68414306640625 177.4883575439453 107.51631164550781 176.9832763671875 108.13099670410156 C 175.78326416015625 109.63099670410156 172.78326416015625 120.53099822998047 173.4832763671875 121.23100280761719 C 173.6832733154297 121.43099975585938 173.28326416015625 122.73100280761719 172.4832763671875 124.03099822998047 C 171.18270874023438 126.52877807617188 170.11163330078125 129.13949584960938 169.28326416015625 131.83099365234375 C 168.564208984375 134.21653747558594 167.69583129882812 136.55447387695312 166.6832733154297 138.83099365234375 C 163.88327026367188 143.63099670410156 160.38327026367188 150.43099975585938 160.28326416015625 151.13099670410156 C 160.28326416015625 152.43099975585938 155.4832763671875 155.83099365234375 153.78326416015625 155.7310028076172 C 151.28326416015625 155.7310028076172 148.38327026367188 152.531005859375 146.88327026367188 148.33099365234375 C 146.1832733154297 146.13099670410156 144.6832733154297 142.531005859375 143.78326416015625 140.33099365234375 C 142.48805236816406 137.26524353027344 141.483642578125 134.08460998535156 140.78326416015625 130.83099365234375 C 140.1553497314453 128.0601043701172 139.28533935546875 125.34970092773438 138.1832733154297 122.73100280761719 C 137.4832763671875 121.23100280761719 137.08326721191406 119.83100128173828 137.38327026367188 119.53099822998047 C 137.9832763671875 118.93099975585938 135.9832763671875 108.03099822998047 135.08326721191406 106.43099975585938 C 134.78326416015625 105.93099975585938 134.38327026367188 102.53099822998047 134.1832733154297 98.73100280761719 C 133.9832763671875 94.93099975585938 133.58326721191406 91.23100280761719 133.1832733154297 90.63099670410156 C 131.88327026367188 88.63099670410156 130.9832763671875 39.73099899291992 132.1832733154297 36.83100128173828 C 132.70301818847656 34.02272033691406 133.03707885742188 31.183229446411133 133.1832733154297 28.33099937438965 C 133.39210510253906 24.6361026763916 133.85992431640625 20.960411071777344 134.58326721191406 17.33099937438965 C 135.60992431640625 12.670842170715332 136.0466766357422 7.900107383728027 135.88327026367188 3.13100004196167 C 135.6832733154297 0.9309999942779541 129.08326721191406 0.03099999949336052 111.18327331542969 0.03099999949336052 C 93.28327178955078 -0.0689999982714653 92.98326873779297 -0.0689999982714653 90.78327178955078 2.3310000896453857 C 88.68327331542969 4.63100004196167 88.58326721191406 5.13100004196167 89.68327331542969 10.031000137329102 C 91.18327331542969 16.731000900268555 92.78327178955078 30.930999755859375 93.28327178955078 41.33100128173828 C 93.98326873779297 55.33100128173828 94.08326721191406 68.63099670410156 93.48326873779297 69.53099822998047 C 93.08326721191406 70.13099670410156 92.78327178955078 73.63099670410156 92.68327331542969 77.43099975585938 C 92.70602416992188 81.02701568603516 92.3371810913086 84.61482238769531 91.58326721191406 88.13099670410156 C 90.96965026855469 91.02566528320312 90.63478088378906 93.97245788574219 90.58326721191406 96.93099975585938 C 90.48326873779297 99.63099670410156 90.08326721191406 101.83100128173828 89.68327331542969 101.83100128173828 C 89.08326721191406 101.83100128173828 87.78327178955078 108.13099670410156 87.18327331542969 114.13099670410156 C 87.08585357666016 115.5370101928711 86.67588806152344 116.90354919433594 85.98326873779297 118.13099670410156 C 84.88327026367188 119.43099975585938 82.38327026367188 127.43099975585938 82.28327178955078 129.93099975585938 C 82.20462799072266 131.01425170898438 81.8235092163086 132.0536651611328 81.18327331542969 132.93099975585938 C 79.48326873779297 135.031005859375 75.68327331542969 142.7310028076172 75.28327178955078 144.93099975585938 C 74.88327026367188 146.93099975585938 65.68327331542969 156.83099365234375 64.08326721191406 156.83099365234375 C 63.58327102661133 156.83099365234375 61.68326950073242 154.2310028076172 59.78327178955078 151.031005859375 C 57.883270263671875 147.93099975585938 56.08327102661133 145.13099670410156 55.78327178955078 144.83099365234375 C 54.82492446899414 142.3938446044922 54.05597686767578 139.88641357421875 53.48326873779297 137.33099365234375 C 52.48326873779297 133.43099975585938 51.18326950073242 130.13099670410156 50.68326950073242 130.031005859375 C 50.18326950073242 129.83099365234375 49.78327178955078 128.2310028076172 49.78327178955078 126.43099975585938 C 49.566829681396484 123.52204132080078 49.06440353393555 120.64146423339844 48.28327178955078 117.83100128173828 C 47.29713439941406 113.79331970214844 46.66143798828125 109.67803955078125 46.383270263671875 105.53099822998047 C 46.08327102661133 101.83100128173828 45.58327102661133 98.33100128173828 45.18326950073242 97.63099670410156 C 44.383270263671875 96.33100128173828 44.18326950073242 90.63099670410156 43.78327178955078 64.13099670410156 C 43.68326950073242 54.13100051879883 43.78327178955078 45.53099822998047 44.18326950073242 45.03099822998047 C 44.48326873779297 44.53099822998047 44.78327178955078 40.73099899291992 44.883270263671875 36.73099899291992 C 44.98326873779297 32.63100051879883 45.383270263671875 28.83099937438965 45.78327178955078 28.33099937438965 C 46.48326873779297 27.430999755859375 47.98326873779297 19.631000518798828 48.28327178955078 15.831000328063965 C 48.587921142578125 14.317625999450684 49.05738830566406 12.842164039611816 49.68326950073242 11.430999755859375 C 50.38673782348633 9.339591979980469 50.69200897216797 7.134867191314697 50.58327102661133 4.931000232696533 C 50.18326950073242 0.531000018119812 50.883270263671875 0.6309999823570251 25.883270263671875 0.3310000002384186 C 9.283269882202148 0.23100000619888306 7.283269882202148 0.3310000002384186 5.68326997756958 1.930999994277954" stroke-width="1.0" fill="rgb(0, 0, 0)" opacity="1.0"/>
  </g>
</svg>
