<?xml version="1.0" ?>
<svg xmlns="http://www.w3.org/2000/svg" version="1.1" width="164" height="223">
  <defs/>
  <g>
    <path d="M 13.793000221252441 0.8062199950218201 C 12.525252342224121 1.3280211687088013 11.124397277832031 1.433085322380066 9.793000221252441 1.106220006942749 C 5.993000030517578 0.4062199890613556 1.4930000305175781 4.406219959259033 1.593000054359436 8.406220436096191 C 1.6390475034713745 10.159096717834473 1.2975904941558838 11.900527000427246 0.5929999947547913 13.506219863891602 C -1.5069999694824219 17.706220626831055 2.3929998874664307 50.506221771240234 5.692999839782715 56.906219482421875 C 6.793000221252441 58.906219482421875 7.493000030517578 60.80622100830078 7.192999839782715 61.10622024536133 C 6.39300012588501 61.80622100830078 10.493000030517578 71.80622100830078 12.392999649047852 73.90621948242188 C 13.293000221252441 75.00621795654297 13.793000221252441 76.10621643066406 13.493000030517578 76.40621948242188 C 12.692999839782715 77.20622253417969 16.39299964904785 84.70622253417969 19.093000411987305 87.60621643066406 C 20.1619930267334 88.62377166748047 20.953636169433594 89.89727783203125 21.39299964904785 91.30622100830078 C 21.69300079345703 93.40621948242188 25.69300079345703 99.60621643066406 28.19300079345703 101.90621948242188 C 29.0825252532959 102.68110656738281 29.798171997070312 103.63530731201172 30.292999267578125 104.70622253417969 C 30.292999267578125 106.10621643066406 37.292999267578125 114.70622253417969 38.393001556396484 114.80622100830078 C 38.99300003051758 114.80622100830078 40.09299850463867 116.10621643066406 40.792999267578125 117.80622100830078 C 42.340965270996094 120.52080535888672 44.335594177246094 122.95492553710938 46.69300079345703 125.00621795654297 C 49.19300079345703 127.40621948242188 51.292999267578125 129.60621643066406 51.292999267578125 130.0062255859375 C 52.67236328125 132.1120147705078 54.282318115234375 134.057373046875 56.09299850463867 135.80621337890625 C 58.69300079345703 138.7062225341797 60.792999267578125 141.7062225341797 60.792999267578125 142.40621948242188 C 60.36393356323242 144.63897705078125 59.693321228027344 146.81846618652344 58.792999267578125 148.90621948242188 C 57.792999267578125 151.80621337890625 57.09299850463867 154.5062255859375 57.292999267578125 154.90621948242188 C 57.59299850463867 155.30621337890625 57.09299850463867 156.30621337890625 56.292999267578125 157.2062225341797 C 54.393001556396484 159.10621643066406 50.792999267578125 167.40621948242188 50.792999267578125 170.0062255859375 C 50.707000732421875 171.2132110595703 50.25331115722656 172.3648681640625 49.49300003051758 173.30621337890625 C 48.792999267578125 174.0062255859375 47.59299850463867 177.2062225341797 46.893001556396484 180.40621948242188 C 46.19300079345703 183.7062225341797 45.09299850463867 188.0062255859375 44.49300003051758 190.2062225341797 C 43.893001556396484 192.30621337890625 43.393001556396484 198.90621948242188 43.292999267578125 204.80621337890625 C 43.292999267578125 214.7062225341797 43.49300003051758 215.80621337890625 45.59299850463867 218.0062255859375 C 46.792999267578125 219.40621948242188 47.49300003051758 220.7062225341797 47.19300079345703 221.10621643066406 C 45.49300003051758 222.7062225341797 52.893001556396484 223.7062225341797 67.39299774169922 223.7062225341797 C 89.29299926757812 223.60621643066406 92.09300231933594 223.30621337890625 94.49299621582031 220.0062255859375 C 96.19300079345703 217.7062225341797 96.39299774169922 216.5062255859375 95.59300231933594 211.30621337890625 C 94.69300079345703 204.30621337890625 94.29299926757812 187.40621948242188 95.09300231933594 186.10621643066406 C 95.39299774169922 185.7062225341797 95.99299621582031 181.90621948242188 96.29299926757812 177.80621337890625 C 96.69300079345703 173.7062225341797 97.39299774169922 169.80621337890625 97.79299926757812 169.30621337890625 C 98.59300231933594 168.2062225341797 100.99299621582031 160.30621337890625 101.19300079345703 157.80621337890625 C 101.3637924194336 156.74490356445312 101.73725128173828 155.72637939453125 102.29299926757812 154.80621337890625 C 104.49299621582031 151.40621948242188 107.79299926757812 143.5062255859375 107.79299926757812 141.7062225341797 C 107.79299926757812 140.7062225341797 108.19300079345703 139.80621337890625 108.69300079345703 139.80621337890625 C 109.59300231933594 139.80621337890625 115.79299926757812 129.5062255859375 115.79299926757812 127.90621948242188 C 115.79299926757812 127.40621948242188 116.99299621582031 125.70622253417969 118.59300231933594 124.10621643066406 C 120.38545227050781 121.9684066772461 121.95993041992188 119.65694427490234 123.29299926757812 117.20622253417969 C 124.60201263427734 114.74754333496094 126.21463775634766 112.46299743652344 128.09300231933594 110.40621948242188 C 129.93142700195312 108.17401885986328 131.5395965576172 105.76176452636719 132.89300537109375 103.20622253417969 C 133.9929962158203 100.80622100830078 135.29299926757812 98.80622100830078 135.6929931640625 98.60621643066406 C 136.9929962158203 98.00621795654297 142.79299926757812 89.00621795654297 142.79299926757812 87.40621948242188 C 142.8527069091797 86.48136138916016 143.33143615722656 85.6343765258789 144.09300231933594 85.10621643066406 C 146.09300231933594 83.90621948242188 151.89300537109375 73.20622253417969 150.9929962158203 72.40621948242188 C 150.59300231933594 72.00621795654297 150.9929962158203 71.10621643066406 151.89300537109375 70.50621795654297 C 153.59300231933594 69.20622253417969 156.89300537109375 61.60622024536133 157.29299926757812 58.006221771240234 C 157.49038696289062 56.7650032043457 157.93226623535156 55.57533264160156 158.59300231933594 54.506221771240234 C 159.58937072753906 52.376808166503906 160.29566955566406 50.123390197753906 160.6929931640625 47.80622100830078 C 161.39300537109375 44.80622100830078 162.29299926757812 40.406219482421875 162.89300537109375 38.006221771240234 C 164.39300537109375 30.906219482421875 165.1929931640625 10.206219673156738 163.89300537109375 9.406220436096191 C 163.12425231933594 8.562932014465332 162.72772216796875 7.44545316696167 162.79299926757812 6.306220054626465 C 162.79299926757812 1.5062199831008911 159.09300231933594 0.4062199890613556 142.4929962158203 0.10621999949216843 C 132.4929962158203 -0.09378000348806381 127.09300231933594 0.20622000098228455 126.19300079345703 0.906220018863678 C 125.40188598632812 1.5267877578735352 124.36892700195312 1.7481364011764526 123.39299774169922 1.5062199831008911 C 122.5120849609375 1.2551721334457397 121.56401824951172 1.4827070236206055 120.89299774169922 2.106220006942749 C 119.49299621582031 3.5062201023101807 119.49299621582031 12.506219863891602 120.89299774169922 13.406220436096191 C 121.49299621582031 13.706219673156738 121.69300079345703 15.006219863891602 121.49299621582031 16.206220626831055 C 121.19300079345703 17.30621910095215 121.29299926757812 21.406219482421875 121.69300079345703 25.30621910095215 C 122.19300079345703 29.106220245361328 122.19300079345703 32.70621871948242 121.79299926757812 33.30622100830078 C 120.99299621582031 34.406219482421875 119.29299926757812 44.70621871948242 119.59300231933594 46.20621871948242 C 119.79299926757812 46.60622024536133 119.39299774169922 47.506221771240234 118.89299774169922 48.20621871948242 C 117.79299926757812 49.506221771240234 113.79299926757812 59.906219482421875 113.79299926757812 61.406219482421875 C 113.79299926757812 62.10622024536133 112.19300079345703 65.00621795654297 110.19300079345703 67.90621948242188 C 108.29299926757812 70.80622100830078 106.39299774169922 74.50621795654297 106.09300231933594 76.00621795654297 C 105.79299926757812 77.50621795654297 105.19300079345703 78.80622100830078 104.79299926757812 78.80622100830078 C 103.59300231933594 78.80622100830078 96.79299926757812 88.60621643066406 96.79299926757812 90.30622100830078 C 96.79299926757812 91.10621643066406 96.39299774169922 91.80622100830078 95.79299926757812 91.80622100830078 C 95.29299926757812 91.80622100830078 92.69300079345703 93.80622100830078 90.09300231933594 96.30622100830078 C 85.09300231933594 101.10621643066406 84.29299926757812 101.50621795654297 82.39299774169922 99.50621795654297 C 81.69300079345703 98.90621948242188 79.09300231933594 96.50621795654297 76.69300079345703 94.20622253417969 C 73.99714660644531 91.6060562133789 71.67501831054688 88.64450073242188 69.79299926757812 85.40621948242188 C 68.51465606689453 82.96903991699219 67.00790405273438 80.65868377685547 65.29299926757812 78.50621795654297 C 64.19300079345703 77.30622100830078 63.292999267578125 75.90621948242188 63.292999267578125 75.30622100830078 C 63.19300079345703 73.60621643066406 58.49300003051758 62.80622100830078 57.792999267578125 62.80622100830078 C 57.393001556396484 62.80622100830078 56.792999267578125 60.906219482421875 56.49300003051758 58.506221771240234 C 55.98823928833008 55.39823532104492 55.28683090209961 52.32539749145508 54.393001556396484 49.30622100830078 C 52.292999267578125 41.906219482421875 50.893001556396484 29.0062198638916 51.893001556396484 25.906219482421875 C 52.58953094482422 22.885568618774414 52.99141311645508 19.804473876953125 53.09299850463867 16.706220626831055 C 53.393001556396484 13.006219863891602 53.792999267578125 9.606220245361328 54.19300079345703 9.006219863891602 C 55.99300003051758 6.006219863891602 49.792999267578125 0.10621999949216843 46.292999267578125 1.4062199592590332 C 45.354835510253906 1.7793985605239868 44.289146423339844 1.6271570920944214 43.49300003051758 1.0062199831008911 C 41.99300003051758 -0.19378000497817993 15.793000221252441 -0.393779993057251 13.793000221252441 0.8062199950218201" stroke-width="1.0" fill="rgb(0, 0, 0)" opacity="1.0"/>
  </g>
</svg>
