<?xml version="1.0" ?>
<svg xmlns="http://www.w3.org/2000/svg" version="1.1" width="157" height="222">
  <defs/>
  <g>
    <path d="M 15.600000381469727 0.7191600203514099 C 12.899999618530273 1.7191599607467651 11.699999809265137 4.319159984588623 13.300000190734863 5.919159889221191 C 14.048347473144531 6.967634201049805 14.434520721435547 8.231475830078125 14.399999618530273 9.519160270690918 C 14.399999618530273 12.819160461425781 17.600000381469727 22.619159698486328 18.600000381469727 22.619159698486328 C 19.100000381469727 22.619159698486328 19.399999618530273 23.419160842895508 19.299999237060547 24.31916046142578 C 18.899999618530273 26.81916046142578 22.200000762939453 36.21915817260742 24.0 37.61915969848633 C 24.77688217163086 38.40274429321289 25.269641876220703 39.4234619140625 25.399999618530273 40.519161224365234 C 25.723360061645508 42.24150848388672 26.40472412109375 43.87677764892578 27.399999618530273 45.31916046142578 C 29.700000762939453 49.21915817260742 33.70000076293945 49.81916046142578 35.400001525878906 46.61915969848633 C 36.0 45.519161224365234 36.900001525878906 44.61915969848633 37.5 44.61915969848633 C 38.70000076293945 44.61915969848633 47.599998474121094 38.71915817260742 48.5 37.31916046142578 C 48.900001525878906 36.81916046142578 50.400001525878906 36.31916046142578 52.0 36.11915969848633 C 57.29999923706055 35.519161224365234 62.900001525878906 34.31916046142578 63.900001525878906 33.519161224365234 C 64.5 33.11915969848633 68.30000305175781 33.11915969848633 72.4000015258789 33.61915969848633 C 76.5 34.11915969848633 80.19999694824219 34.21915817260742 80.5999984741211 34.019161224365234 C 81.0 33.81916046142578 82.4000015258789 35.019161224365234 83.80000305175781 36.919158935546875 C 86.5 40.419158935546875 87.69999694824219 48.21915817260742 85.69999694824219 49.419158935546875 C 85.0999984741211 49.81916046142578 83.0999984741211 53.019161224365234 81.30000305175781 56.519161224365234 C 79.6600112915039 59.752220153808594 77.68231964111328 62.802555084228516 75.4000015258789 65.6191635131836 C 73.66265106201172 67.61151123046875 72.1532974243164 69.79169464111328 70.9000015258789 72.1191635131836 C 69.44990539550781 74.65570068359375 67.74077606201172 77.03507995605469 65.80000305175781 79.21916198730469 C 64.10249328613281 81.135009765625 62.595394134521484 83.21145629882812 61.29999923706055 85.41915893554688 C 59.90285110473633 87.84700775146484 58.26096725463867 90.12553405761719 56.400001525878906 92.21916198730469 C 54.535545349121094 94.4046859741211 52.862701416015625 96.74666595458984 51.400001525878906 99.21916198730469 C 50.234981536865234 101.31222534179688 48.8250732421875 103.25923919677734 47.20000076293945 105.01915740966797 C 45.29570388793945 107.22311401367188 43.65153884887695 109.63902282714844 42.29999923706055 112.21916198730469 C 41.20000076293945 114.6191635131836 39.900001525878906 116.6191635131836 39.5 116.81916046142578 C 38.20000076293945 117.41915893554688 32.400001525878906 126.41915893554688 32.400001525878906 128.0191650390625 C 32.34296417236328 128.97035217285156 31.818721771240234 129.83160400390625 31.0 130.31915283203125 C 29.100000381469727 131.41915893554688 23.399999618530273 140.91915893554688 23.399999618530273 143.0191650390625 C 23.399999618530273 143.91915893554688 23.0 144.61915588378906 22.399999618530273 144.61915588378906 C 21.299999237060547 144.61915588378906 16.5 153.7191619873047 15.800000190734863 156.91915893554688 C 15.63850212097168 157.92645263671875 15.186720848083496 158.86476135253906 14.5 159.61915588378906 C 13.100000381469727 160.41915893554688 8.399999618530273 171.31915283203125 9.100000381469727 172.0191650390625 C 9.5 172.31915283203125 9.0 173.41915893554688 8.199999809265137 174.31915283203125 C 6.300000190734863 176.5191650390625 3.0 186.5191650390625 3.799999952316284 187.31915283203125 C 4.099999904632568 187.7191619873047 3.700000047683716 189.0191650390625 2.799999952316284 190.41915893554688 C 1.100000023841858 192.91915893554688 1.1546319456101628e-14 201.7191619873047 1.1546319456101628e-14 212.0191650390625 C 1.1546319456101628e-14 216.7191619873047 0.4000000059604645 218.11915588378906 2.0 219.2191619873047 C 3.0 219.91915893554688 4.599999904632568 221.11915588378906 5.400000095367432 221.81915283203125 C 6.5 222.81915283203125 20.600000381469727 223.11915588378906 73.9000015258789 222.91915893554688 C 154.5 222.81915283203125 147.0 222.91915893554688 149.39999389648438 221.61915588378906 C 151.5 220.5191650390625 152.10000610351562 216.7191619873047 150.3000030517578 214.91915893554688 C 149.48776245117188 213.5555419921875 149.0400848388672 212.00584411621094 149.0 210.41915893554688 C 148.48956298828125 207.50856018066406 147.58103942871094 204.6820526123047 146.3000030517578 202.0191650390625 C 145.37196350097656 200.11927795410156 144.60267639160156 198.1458740234375 144.0 196.11915588378906 C 143.89999389648438 194.0191650390625 140.1999969482422 185.0191650390625 138.6999969482422 183.31915283203125 C 137.8000030517578 182.41915893554688 137.39999389648438 181.31915283203125 137.6999969482422 181.0191650390625 C 138.0 180.61915588378906 137.0 177.7191619873047 135.3000030517578 174.5191650390625 C 132.8000030517578 169.41915893554688 132.0 168.61915588378906 129.5 168.61915588378906 C 126.9000015258789 168.61915588378906 117.4000015258789 174.81915283203125 117.4000015258789 176.61915588378906 C 117.4000015258789 177.0191650390625 113.69999694824219 179.11915588378906 109.19999694824219 181.31915283203125 C 98.0999984741211 186.81915283203125 88.30000305175781 188.2191619873047 77.0999984741211 185.91915893554688 C 68.5999984741211 184.2191619873047 65.0 181.81915283203125 62.0 175.81915283203125 C 60.400001525878906 172.7191619873047 60.400001525878906 172.2191619873047 62.400001525878906 165.7191619873047 C 63.285369873046875 162.9757843017578 63.9540901184082 160.1671600341797 64.4000015258789 157.31915283203125 C 64.37055206298828 156.5983123779297 64.66380310058594 155.90184020996094 65.19999694824219 155.41915893554688 C 66.4000015258789 155.0191650390625 72.69999694824219 143.61915588378906 71.80000305175781 143.61915588378906 C 71.4000015258789 143.61915588378906 72.19999694824219 142.41915893554688 73.5999984741211 140.91915893554688 C 75.5957260131836 138.6335906982422 77.30812072753906 136.1153564453125 78.69999694824219 133.41915893554688 C 79.84833526611328 131.15357971191406 81.22193145751953 129.00942993164062 82.80000305175781 127.01915740966797 C 85.19999694824219 124.6191635131836 90.5999984741211 116.6191635131836 89.80000305175781 116.6191635131836 C 89.4000015258789 116.6191635131836 90.69999694824219 115.01915740966797 92.5999984741211 113.1191635131836 C 94.68207550048828 110.94427490234375 96.49508666992188 108.52692413330078 98.0 105.91915893554688 C 99.52445220947266 103.2066879272461 101.37117767333984 100.68842315673828 103.5 98.41915893554688 C 105.57333374023438 96.22394561767578 107.3547134399414 93.77035522460938 108.80000305175781 91.1191635131836 C 109.69999694824219 89.21916198730469 110.80000305175781 87.6191635131836 111.19999694824219 87.6191635131836 C 112.4000015258789 87.6191635131836 119.4000015258789 77.81916046142578 119.4000015258789 76.1191635131836 C 119.3655014038086 75.35301208496094 119.93672943115234 74.69390869140625 120.69999694824219 74.6191635131836 C 121.9000015258789 74.51915740966797 128.89999389648438 65.01915740966797 128.89999389648438 63.419158935546875 C 129.06492614746094 62.74443435668945 129.49844360351562 62.166419982910156 130.10000610351562 61.81916046142578 C 131.89999389648438 60.71915817260742 138.39999389648438 51.31916046142578 138.39999389648438 49.919158935546875 C 138.49404907226562 49.08491897583008 138.9757843017578 48.34379196166992 139.6999969482422 47.919158935546875 C 141.60000610351562 46.71915817260742 147.39999389648438 37.21915817260742 147.39999389648438 35.31916046142578 C 147.39999389648438 34.31916046142578 147.8000030517578 33.61915969848633 148.39999389648438 33.61915969848633 C 149.60000610351562 33.61915969848633 154.39999389648438 24.31916046142578 154.39999389648438 22.119159698486328 C 154.6016845703125 20.67597007751465 155.15074157714844 19.30332374572754 156.0 18.119159698486328 C 157.02481079101562 16.027751922607422 157.6037139892578 13.746164321899414 157.6999969482422 11.419159889221191 C 157.8000030517578 7.819159984588623 157.3000030517578 6.51915979385376 154.60000610351562 3.6191599369049072 L 151.39999389648438 0.119159996509552 L 84.5999984741211 0.01916000060737133 C 47.900001525878906 -0.08083999902009964 16.899999618530273 0.21916000545024872 15.600000381469727 0.7191600203514099" stroke-width="1.0" fill="rgb(0, 0, 0)" opacity="1.0"/>
  </g>
</svg>
