<?xml version="1.0" ?>
<svg xmlns="http://www.w3.org/2000/svg" version="1.1" width="157" height="230">
  <defs/>
  <g>
    <path d="M 88.87367248535156 0.7555599808692932 C 88.47367095947266 1.3555599451065063 87.07366943359375 1.5555599927902222 85.77366638183594 1.255560040473938 C 82.87367248535156 0.5555599927902222 72.27366638183594 2.65556001663208 72.27366638183594 3.9555599689483643 C 72.27366638183594 4.555560111999512 71.47367095947266 4.855559825897217 70.57366943359375 4.65556001663208 C 68.57366943359375 4.15556001663208 58.17367172241211 8.355560302734375 57.2736701965332 9.955559730529785 C 56.47918701171875 10.659589767456055 55.51358413696289 11.142391204833984 54.473670959472656 11.355560302734375 C 51.57366943359375 11.855560302734375 43.67367172241211 17.355560302734375 42.973670959472656 19.355560302734375 C 42.61823654174805 20.173320770263672 41.85824203491211 20.743318557739258 40.973670959472656 20.855560302734375 C 39.3736686706543 20.855560302734375 31.273670196533203 28.9555606842041 31.273670196533203 30.655559539794922 C 31.273670196533203 31.25555992126465 30.37367057800293 32.25556182861328 29.273670196533203 32.855560302734375 C 26.87367057800293 34.15555953979492 21.273670196533203 42.15555953979492 21.273670196533203 44.25556182861328 C 21.273670196533203 45.15555953979492 20.87367057800293 45.855560302734375 20.273670196533203 45.855560302734375 C 18.973669052124023 45.855560302734375 14.073670387268066 54.55556106567383 13.673669815063477 57.55556106567383 C 13.573670387268066 58.95555877685547 12.97367000579834 60.45555877685547 12.47367000579834 60.75556182861328 C 11.173669815063477 61.55556106567383 7.073669910430908 71.95555877685547 7.773670196533203 72.65556335449219 C 8.073670387268066 72.95555877685547 7.673669815063477 74.15556335449219 6.8736701011657715 75.35556030273438 C 5.672975540161133 77.89323425292969 4.831559658050537 80.58576202392578 4.3736701011657715 83.35556030273438 C 3.6736700534820557 86.65556335449219 2.6736700534820557 90.75556182861328 2.1736700534820557 92.55555725097656 C 0.3736700117588043 98.35556030273438 -0.2263299971818924 111.75556182861328 0.07366999983787537 135.05555725097656 C 0.19061969220638275 138.09280395507812 0.626344621181488 141.10935974121094 1.373669981956482 144.05555725097656 C 2.0265676975250244 146.8550567626953 2.4942479133605957 149.69454956054688 2.773669958114624 152.55555725097656 C 2.966240644454956 155.11488342285156 3.609459400177002 157.6200408935547 4.673669815063477 159.95556640625 C 5.514522552490234 161.50770568847656 6.057212829589844 163.20361328125 6.273670196533203 164.95556640625 C 6.273670196533203 167.35556030273438 9.173669815063477 174.95556640625 10.97367000579834 176.95556640625 C 11.696672439575195 177.842041015625 12.148113250732422 178.91854858398438 12.273670196533203 180.05555725097656 C 12.273670196533203 181.95556640625 16.87367057800293 190.25555419921875 18.773670196533203 191.85556030273438 C 19.52189826965332 192.42820739746094 20.051301956176758 193.23995971679688 20.273670196533203 194.1555633544922 C 20.273670196533203 195.85556030273438 27.57366943359375 204.85556030273438 28.973669052124023 204.85556030273438 C 29.773670196533203 204.85556030273438 30.673669815063477 205.85556030273438 31.173669815063477 207.05555725097656 C 32.17367172241211 209.75555419921875 39.473670959472656 215.85556030273438 41.57366943359375 215.85556030273438 C 42.46941375732422 215.93955993652344 43.242225646972656 216.5191650390625 43.57366943359375 217.35556030273438 C 44.2736701965332 219.1555633544922 53.473670959472656 223.85556030273438 56.2736701965332 223.85556030273438 C 57.3736686706543 223.85556030273438 58.2736701965332 224.25555419921875 58.2736701965332 224.85556030273438 C 58.2736701965332 225.85556030273438 68.37367248535156 229.1555633544922 70.47367095947266 228.75555419921875 C 72.30464172363281 228.82449340820312 74.11931610107422 229.12693786621094 75.87367248535156 229.6555633544922 C 81.27366638183594 231.25555419921875 102.57366943359375 230.6555633544922 104.67366790771484 228.95556640625 C 105.34892272949219 228.26519775390625 106.36418151855469 228.03089904785156 107.27366638183594 228.35556030273438 C 108.57366943359375 229.1555633544922 118.17366790771484 226.05555725097656 120.57366943359375 224.05555725097656 C 121.47367095947266 223.25555419921875 122.57366943359375 222.75555419921875 122.87367248535156 223.1555633544922 C 123.77366638183594 224.05555725097656 133.17367553710938 217.95556640625 134.37367248535156 215.75555419921875 C 134.87367248535156 214.6555633544922 135.77366638183594 214.05555725097656 136.17367553710938 214.25555419921875 C 137.27366638183594 214.95556640625 145.57366943359375 206.25555419921875 145.87367248535156 204.1555633544922 C 145.98614501953125 203.2751007080078 146.5041961669922 202.49803161621094 147.27366638183594 202.05555725097656 C 148.87367248535156 201.45556640625 153.27366638183594 192.25555419921875 153.27366638183594 189.45556640625 C 153.27366638183594 188.1555633544922 153.67367553710938 186.85556030273438 154.27366638183594 186.6555633544922 C 157.87367248535156 185.45556640625 157.57366943359375 155.25555419921875 153.87367248535156 146.35556030273438 C 152.47366333007812 143.1555633544922 149.27366638183594 141.45556640625 149.27366638183594 143.95556640625 C 149.27366638183594 144.55555725097656 147.87367248535156 147.95556640625 146.17367553710938 151.55555725097656 C 144.86935424804688 154.13330078125 143.76608276367188 156.80792236328125 142.87367248535156 159.55555725097656 C 142.75265502929688 160.40640258789062 142.28128051757812 161.1678466796875 141.57366943359375 161.6555633544922 C 141.07366943359375 162.05555725097656 138.47366333007812 164.75555419921875 135.77366638183594 167.75555419921875 C 129.77366638183594 174.55555725097656 119.37367248535156 180.05555725097656 111.27366638183594 180.55555725097656 C 108.46299743652344 180.70716857910156 105.6785659790039 181.1768341064453 102.97367095947266 181.95556640625 C 101.17366790771484 182.75555419921875 99.87367248535156 182.75555419921875 98.97367095947266 182.1555633544922 C 97.87367248535156 181.25555419921875 91.97367095947266 179.95556640625 86.67366790771484 179.55555725097656 C 85.42265319824219 179.39674377441406 84.22502899169922 178.95191955566406 83.17366790771484 178.25555419921875 C 80.9703369140625 176.73239135742188 78.66490173339844 175.3625030517578 76.27366638183594 174.1555633544922 C 71.37367248535156 171.55555725097656 58.2736701965332 160.1555633544922 58.2736701965332 158.45556640625 C 58.2736701965332 158.05555725097656 56.473670959472656 155.05555725097656 54.2736701965332 151.75555419921875 C 52.07366943359375 148.45556640625 50.2736701965332 145.25555419921875 50.2736701965332 144.6555633544922 C 50.2736701965332 143.05555725097656 46.973670959472656 132.45556640625 46.2736701965332 131.85556030273438 C 45.8736686706543 131.55555725097656 45.57366943359375 128.25555419921875 45.3736686706543 124.45555877685547 C 45.2736701965332 120.55555725097656 44.7736701965332 116.95555877685547 44.2736701965332 116.35556030273438 C 43.67367172241211 115.55555725097656 43.67367172241211 113.05555725097656 44.3736686706543 109.35556030273438 C 44.946739196777344 106.4932632446289 45.115047454833984 103.56466674804688 44.8736686706543 100.65556335449219 C 44.57366943359375 99.05555725097656 44.67367172241211 96.95555877685547 45.2736701965332 96.05555725097656 C 46.67367172241211 93.35556030273438 48.3736686706543 84.85556030273438 47.67367172241211 83.75556182861328 C 47.44553756713867 82.77745819091797 47.7495231628418 81.75150299072266 48.473670959472656 81.05555725097656 C 50.17367172241211 79.05555725097656 54.2736701965332 69.25556182861328 54.2736701965332 67.25556182861328 C 54.2736701965332 66.45555877685547 54.67367172241211 65.85556030273438 55.17367172241211 65.85556030273438 C 55.57366943359375 65.85556030273438 57.8736686706543 63.15555953979492 60.07366943359375 59.75556182861328 C 65.47367095947266 51.855560302734375 74.67366790771484 44.855560302734375 83.27366638183594 42.355560302734375 C 85.81816101074219 41.70191192626953 88.3224105834961 40.90055465698242 90.77366638183594 39.95555877685547 C 91.37367248535156 39.65555953979492 95.77366638183594 39.55556106567383 100.67366790771484 39.75556182861328 C 108.07366943359375 40.05556106567383 110.37367248535156 40.45555877685547 113.47367095947266 42.45555877685547 C 119.27366638183594 46.15555953979492 120.97367095947266 48.15555953979492 121.67366790771484 52.45555877685547 C 123.27366638183594 61.45555877685547 123.37367248535156 61.855560302734375 126.77366638183594 63.45555877685547 C 130.47366333007812 65.15556335449219 137.07366943359375 64.65556335449219 140.77366638183594 62.45555877685547 C 142.2063751220703 61.60174560546875 143.75604248046875 60.96166229248047 145.37367248535156 60.55556106567383 C 148.27366638183594 59.855560302734375 154.27366638183594 53.65555953979492 154.27366638183594 51.45555877685547 C 154.51974487304688 49.97745132446289 155.02772521972656 48.55514144897461 155.77366638183594 47.25556182861328 C 157.47366333007812 43.95555877685547 157.77366638183594 35.25556182861328 156.17367553710938 34.355560302734375 C 155.52383422851562 33.77401351928711 155.3583221435547 32.822357177734375 155.77366638183594 32.05556106567383 C 156.47366333007812 30.155559539794922 151.57366943359375 19.855560302734375 149.87367248535156 19.855560302734375 C 149.17367553710938 19.855560302734375 148.07366943359375 18.75555992126465 147.47366333007812 17.4555606842041 C 146.27366638183594 14.855560302734375 137.87367248535156 8.555560111999512 136.87367248535156 9.555560111999512 C 136.57366943359375 9.855560302734375 135.47366333007812 9.355560302734375 134.37367248535156 8.455559730529785 C 131.97366333007812 6.255559921264648 122.47367095947266 2.65556001663208 121.17366790771484 3.4555599689483643 C 120.42003631591797 3.7050728797912598 119.59124755859375 3.5543839931488037 118.97367095947266 3.0555601119995117 C 116.97367095947266 1.4555599689483643 112.67366790771484 0.8555600047111511 100.87367248535156 0.15556000173091888 C 92.97367095947266 -0.14443999528884888 89.27366638183594 -0.044440001249313354 88.87367248535156 0.7555599808692932" stroke-width="1.0" fill="rgb(0, 0, 0)" opacity="1.0"/>
  </g>
</svg>
