<?xml version="1.0" ?>
<svg xmlns="http://www.w3.org/2000/svg" version="1.1" width="159" height="222">
  <defs/>
  <g>
    <path d="M 13.634360313415527 2.081929922103882 C 10.5343599319458 4.681930065155029 7.834360122680664 10.781929969787598 7.834360122680664 15.381930351257324 C 7.834360122680664 17.281930923461914 7.434360027313232 18.781930923461914 6.934360027313232 18.781930923461914 C 5.734360218048096 18.781930923461914 4.334360122680664 28.781930923461914 3.4343600273132324 42.981929779052734 C 3.1343600749969482 46.78192901611328 2.7343599796295166 50.18193054199219 2.4343600273132324 50.68193054199219 C 1.0343600511550903 52.88193130493164 -0.8656399846076965 158.2819366455078 0.43435999751091003 161.7819366455078 C 0.7343599796295166 162.58192443847656 1.1343599557876587 170.08192443847656 1.2343599796295166 178.38192749023438 C 1.4343600273132324 186.6819305419922 1.8343600034713745 193.98193359375 2.2343599796295166 194.58192443847656 C 2.8420257568359375 197.2436981201172 3.2101619243621826 199.9545135498047 3.334359884262085 202.6819305419922 C 3.534359931945801 206.48193359375 4.134359836578369 210.48193359375 4.734360218048096 211.48193359375 C 5.405231475830078 212.9639129638672 5.940744400024414 214.50350952148438 6.334360122680664 216.08192443847656 C 6.744474411010742 217.78907775878906 7.568751335144043 219.3689422607422 8.734359741210938 220.6819305419922 C 10.434359550476074 222.38192749023438 13.0343599319458 222.58192443847656 52.43436050415039 222.58192443847656 C 80.23435974121094 222.58192443847656 95.63436126708984 222.2819366455078 98.33435821533203 221.58192443847656 C 100.0426254272461 221.0047607421875 101.83132934570312 220.70101928710938 103.63436126708984 220.6819305419922 C 105.73435974121094 221.08192443847656 115.83435821533203 217.7819366455078 115.83435821533203 216.7819366455078 C 115.83435821533203 216.1819305419922 116.83435821533203 215.7819366455078 118.13436126708984 215.7819366455078 C 120.63436126708984 215.7819366455078 129.83436584472656 210.38192749023438 131.1343536376953 208.1819305419922 C 131.55979919433594 207.396728515625 132.34593200683594 206.87265014648438 133.23435974121094 206.7819366455078 C 134.93435668945312 206.7819366455078 141.83436584472656 199.2819366455078 141.83436584472656 197.38192749023438 C 141.83436584472656 196.6819305419922 142.83436584472656 195.38192749023438 144.1343536376953 194.48193359375 C 145.33436584472656 193.6819305419922 147.43435668945312 190.58192443847656 148.73435974121094 187.6819305419922 C 150.1343536376953 184.6819305419922 152.23435974121094 179.98193359375 153.53436279296875 177.1819305419922 C 154.86402893066406 174.51882934570312 155.7104949951172 171.64085388183594 156.03436279296875 168.6819305419922 C 155.9650421142578 167.17364501953125 156.23855590820312 165.66928100585938 156.83436584472656 164.2819366455078 C 157.44032287597656 163.17591857910156 157.91038513183594 162.000732421875 158.23435974121094 160.7819366455078 C 159.1343536376953 157.2819366455078 160.1343536376953 120.88192749023438 159.33436584472656 118.88192749023438 C 158.93435668945312 117.98193359375 158.53436279296875 114.18193054199219 158.33436584472656 110.48193359375 C 158.1343536376953 106.78192901611328 157.53436279296875 103.0819320678711 156.83436584472656 102.28192901611328 C 156.14102172851562 101.48779296875 155.879638671875 100.4049072265625 156.1343536376953 99.38192749023438 C 156.83436584472656 97.5819320678711 154.43435668945312 87.28192901611328 152.83436584472656 85.38192749023438 C 152.23435974121094 84.48193359375 151.93435668945312 83.48193359375 152.23435974121094 82.98193359375 C 152.93435668945312 81.78192901611328 150.03436279296875 72.78192901611328 148.23435974121094 70.68193054199219 C 147.36312866210938 69.60333251953125 146.87115478515625 68.26795196533203 146.83436584472656 66.88192749023438 C 146.83436584472656 64.18193054199219 143.03436279296875 56.58192825317383 141.23435974121094 55.481929779052734 C 140.36129760742188 54.9047966003418 139.83560180664062 53.928504943847656 139.83436584472656 52.88193130493164 C 139.83436584472656 50.78192901611328 134.23435974121094 41.78192901611328 132.93435668945312 41.78192901611328 C 132.43435668945312 41.78192901611328 131.6343536376953 40.78192901611328 131.23435974121094 39.481929779052734 C 130.23435974121094 36.38193130493164 123.83435821533203 28.781930923461914 122.23435974121094 28.781930923461914 C 121.43435668945312 28.781930923461914 120.33435821533203 27.681930541992188 119.93435668945312 26.381929397583008 C 118.93435668945312 23.981929779052734 111.83435821533203 17.781930923461914 110.03436279296875 17.781930923461914 C 109.21058654785156 17.65311050415039 108.50142669677734 17.130573272705078 108.13436126708984 16.381929397583008 C 106.93435668945312 14.381930351257324 97.73435974121094 8.781929969787598 95.63436126708984 8.781929969787598 C 94.63436126708984 8.781929969787598 93.83435821533203 8.381930351257324 93.83435821533203 7.881929874420166 C 93.83435821533203 6.681930065155029 84.03436279296875 2.7819299697875977 80.93435668945312 2.7819299697875977 C 79.5223617553711 2.817812204360962 78.14242553710938 2.357832908630371 77.03436279296875 1.4819300174713135 C 76.03436279296875 0.5819299817085266 68.23435974121094 0.18193000555038452 46.034358978271484 0.0819299966096878 C 16.734359741210938 -0.11806999891996384 16.334360122680664 -0.11806999891996384 13.634360313415527 2.081929922103882" stroke-width="1.0" fill="rgb(0, 0, 0)" opacity="1.0"/>
    <path d="M 73.9000015258789 36.900001525878906 C 76.5 38.20000076293945 78.9000015258789 39.599998474121094 79.19999694824219 40.099998474121094 C 79.86595153808594 40.744239807128906 80.7762222290039 41.07193374633789 81.69999694824219 41.0 C 82.69999694824219 41.0 83.5999984741211 41.400001525878906 83.5999984741211 41.900001525878906 C 83.5999984741211 42.400001525878906 86.0999984741211 45.29999923706055 89.0999984741211 48.400001525878906 C 92.0999984741211 51.400001525878906 94.5999984741211 54.099998474121094 94.5999984741211 54.400001525878906 C 94.5999984741211 55.400001525878906 101.5 65.9000015258789 102.5999984741211 66.5 C 103.14825439453125 66.76405334472656 103.3786392211914 67.42256164550781 103.11458587646484 67.97081756591797 C 103.11458587646484 67.9708251953125 103.11457824707031 67.9708251953125 103.11457824707031 67.97083282470703 L 103.0999984741211 68.0 C 102.80000305175781 68.4000015258789 104.0 71.9000015258789 105.80000305175781 75.69999694824219 C 107.5 79.4000015258789 108.80000305175781 82.9000015258789 108.69999694824219 83.30000305175781 C 108.5999984741211 83.80000305175781 109.5 87.30000305175781 110.69999694824219 91.19999694824219 C 111.93132781982422 95.61711883544922 112.76795196533203 100.1348648071289 113.19999694824219 104.69999694824219 C 113.2636489868164 107.22860717773438 113.59890747070312 109.74304962158203 114.19999694824219 112.19999694824219 C 115.0 113.4000015258789 115.0 129.8000030517578 114.19999694824219 139.5 C 113.82696533203125 143.88491821289062 112.95465087890625 148.21292114257812 111.5999984741211 152.39999389648438 C 110.68181610107422 154.92893981933594 110.01199340820312 157.541259765625 109.5999984741211 160.1999969482422 C 109.41278839111328 161.67356872558594 108.74498748779297 163.04432678222656 107.69999694824219 164.10000610351562 C 105.95408630371094 166.42799377441406 104.41490173339844 168.90408325195312 103.0999984741211 171.5 C 101.5999984741211 174.5 100.0 177.0 99.5 177.0 C 98.69999694824219 177.0 89.5999984741211 183.5 88.5999984741211 184.89999389648438 C 87.5 186.3000030517578 71.19999694824219 189.0 70.19999694824219 188.0 C 69.56051635742188 187.42848205566406 68.75411987304688 187.07786560058594 67.9000015258789 187.0 C 66.12137603759766 186.7042694091797 64.40033721923828 186.13058471679688 62.79999923706055 185.3000030517578 C 61.33136749267578 184.57162475585938 59.789337158203125 184.0017547607422 58.20000076293945 183.60000610351562 C 57.49207305908203 183.3087921142578 56.944984436035156 182.7252197265625 56.70000076293945 182.0 C 55.31130599975586 179.41412353515625 53.77545166015625 176.91000366210938 52.099998474121094 174.5 C 49.900001525878906 171.1999969482422 48.29999923706055 168.10000610351562 48.400001525878906 167.6999969482422 C 48.157508850097656 165.4910430908203 47.68836975097656 163.3129119873047 47.0 161.1999969482422 C 45.86906433105469 156.68746948242188 45.000938415527344 152.1131134033203 44.400001525878906 147.5 C 43.5 139.5 43.0 69.80000305175781 43.900001525878906 68.30000305175781 C 44.099998474121094 67.9000015258789 44.900001525878906 64.30000305175781 45.599998474121094 60.5 C 46.48540115356445 55.84349822998047 47.929161071777344 51.31077194213867 49.900001525878906 47.0 C 51.11454772949219 44.647666931152344 52.150794982910156 42.20747756958008 53.0 39.70000076293945 C 53.099998474121094 38.79999923706055 58.20000076293945 36.0 61.5 35.099998474121094 C 65.5 34.0 68.9000015258789 34.5 73.9000015258789 36.900001525878906" stroke-width="1.0" fill="rgb(255, 255, 255)" opacity="1.0"/>
  </g>
</svg>
