<?xml version="1.0" ?>
<svg xmlns="http://www.w3.org/2000/svg" version="1.1" width="143" height="222">
  <defs/>
  <g>
    <path d="M 20.76951026916504 2.9000000953674316 C 19.227279663085938 5.42306661605835 18.143896102905273 8.199237823486328 17.569509506225586 11.100000381469727 C 16.96950912475586 14.0 16.069509506225586 17.899999618530273 15.569510459899902 19.600000381469727 C 14.71024227142334 22.88641357421875 14.075445175170898 26.227453231811523 13.669509887695312 29.600000381469727 C 13.169509887695312 33.400001525878906 12.269510269165039 38.79999923706055 11.669509887695312 41.79999923706055 C 11.069510459899902 44.70000076293945 10.769510269165039 47.79999923706055 11.169509887695312 48.599998474121094 C 11.457345962524414 49.51371383666992 11.309898376464844 50.50898742675781 10.769510269165039 51.29999923706055 C 10.269510269165039 51.900001525878906 9.269510269165039 56.70000076293945 8.669509887695312 61.900001525878906 C 8.069510459899902 67.0999984741211 7.069509983062744 75.19999694824219 6.469510078430176 79.9000015258789 C 5.969510078430176 84.5999984741211 5.369510173797607 90.69999694824219 5.1695098876953125 93.5999984741211 C 5.047830104827881 96.05766296386719 4.713243007659912 98.50015258789062 4.1695098876953125 100.9000015258789 C 3.530245542526245 103.99539184570312 3.162184238433838 107.1406478881836 3.069509983062744 110.30000305175781 C 2.76951003074646 114.19999694824219 2.1695098876953125 121.9000015258789 1.5695099830627441 127.4000015258789 C 1.0695099830627441 132.89999389648438 0.3695099949836731 151.8000030517578 0.16951000690460205 169.39999389648438 C -0.43048998713493347 206.3000030517578 0.4695099890232086 217.8000030517578 4.369510173797607 220.89999389648438 C 6.469510078430176 222.60000610351562 10.769510269165039 222.6999969482422 73.96951293945312 222.6999969482422 C 111.06951141357422 222.6999969482422 141.8695068359375 222.39999389648438 142.46951293945312 222.0 C 144.76951599121094 220.60000610351562 144.0695037841797 213.60000610351562 141.0695037841797 207.39999389648438 C 139.46951293945312 204.10000610351562 138.26951599121094 201.10000610351562 138.46951293945312 200.6999969482422 C 138.76951599121094 199.60000610351562 133.8695068359375 189.10000610351562 132.76951599121094 188.39999389648438 C 132.0179901123047 187.75189208984375 131.61131286621094 186.79066467285156 131.6695098876953 185.8000030517578 C 131.6695098876953 183.1999969482422 126.96951293945312 173.89999389648438 125.66950988769531 173.89999389648438 C 125.06951141357422 173.89999389648438 124.16950988769531 172.6999969482422 123.66950988769531 171.3000030517578 C 122.8695068359375 169.3000030517578 122.2695083618164 168.89999389648438 120.3695068359375 169.39999389648438 C 117.16950988769531 170.39999389648438 111.66950988769531 173.89999389648438 111.66950988769531 175.0 C 111.66950988769531 175.5 110.96951293945312 175.89999389648438 110.16950988769531 175.89999389648438 C 108.16950988769531 175.89999389648438 97.06951141357422 181.5 96.16950988769531 182.89999389648438 C 95.9264144897461 183.4300994873047 95.32102966308594 183.68954467773438 94.7695083618164 183.5 C 94.46951293945312 183.1999969482422 90.96951293945312 184.0 87.16950988769531 185.10000610351562 C 82.94574737548828 186.3144073486328 78.56352233886719 186.88746643066406 74.16950988769531 186.8000030517578 C 70.8695068359375 186.6999969482422 67.06951141357422 186.60000610351562 65.66950988769531 186.6999969482422 C 64.63397216796875 186.76992797851562 63.59849548339844 186.5628204345703 62.66950988769531 186.10000610351562 C 60.5361213684082 184.63609313964844 58.25739288330078 183.3961944580078 55.869510650634766 182.39999389648438 C 50.269508361816406 179.6999969482422 49.369510650634766 178.8000030517578 46.56951141357422 173.39999389648438 C 44.769508361816406 170.10000610351562 43.06951141357422 167.1999969482422 42.769508361816406 166.89999389648438 C 42.369510650634766 166.60000610351562 41.56951141357422 162.39999389648438 40.96950912475586 157.60000610351562 C 40.06951141357422 150.10000610351562 40.16950988769531 147.89999389648438 41.769508361816406 142.1999969482422 C 42.769508361816406 138.5 43.369510650634766 135.1999969482422 43.06951141357422 134.8000030517578 C 42.869510650634766 134.39999389648438 45.16950988769531 131.5 48.16950988769531 128.3000030517578 C 51.16950988769531 125.0 53.66950988769531 122.0999984741211 53.66950988769531 121.5999984741211 C 53.66950988769531 121.19999694824219 54.269508361816406 120.9000015258789 54.96950912475586 120.9000015258789 C 57.76292419433594 120.15287017822266 60.50252914428711 119.21739959716797 63.16950988769531 118.0999984741211 C 68.96951293945312 115.69999694824219 70.7695083618164 115.4000015258789 73.96951293945312 116.0999984741211 C 76.4454345703125 116.63817596435547 78.94927215576172 117.03878784179688 81.46951293945312 117.30000305175781 C 84.02287292480469 117.58993530273438 86.51773071289062 118.26422119140625 88.8695068359375 119.30000305175781 C 94.16950988769531 121.5999984741211 96.7695083618164 121.69999694824219 97.7695083618164 119.5999984741211 C 98.2695083618164 118.69999694824219 99.16950988769531 117.0999984741211 99.66950988769531 116.0999984741211 C 101.96951293945312 112.19999694824219 104.8695068359375 105.30000305175781 105.06951141357422 103.19999694824219 C 105.1932373046875 101.94062805175781 105.64112091064453 100.73478698730469 106.3695068359375 99.69999694824219 C 108.16950988769531 97.5999984741211 111.66950988769531 87.69999694824219 111.06951141357422 86.69999694824219 C 110.7695083618164 86.19999694824219 111.2695083618164 84.9000015258789 112.16950988769531 83.9000015258789 C 113.35894012451172 82.1718978881836 114.1136474609375 80.18221282958984 114.3695068359375 78.0999984741211 C 114.7695083618164 74.9000015258789 114.56951141357422 73.9000015258789 113.06951141357422 73.0999984741211 C 112.35270690917969 72.61294555664062 111.52982330322266 72.30435943603516 110.66950988769531 72.19999694824219 C 110.3695068359375 72.19999694824219 108.46951293945312 71.5999984741211 106.2695083618164 70.9000015258789 C 103.67536926269531 70.12822723388672 100.93955993652344 69.95723724365234 98.2695083618164 70.4000015258789 C 96.06951141357422 70.69999694824219 92.3695068359375 71.19999694824219 90.2695083618164 71.5 C 84.7695083618164 72.0999984741211 78.8695068359375 73.80000305175781 78.16950988769531 74.9000015258789 C 77.8695068359375 75.5 76.56951141357422 75.9000015258789 75.3695068359375 75.9000015258789 C 72.66950988769531 75.9000015258789 64.66950988769531 78.80000305175781 62.56951141357422 80.5999984741211 C 61.66950988769531 81.4000015258789 60.56951141357422 81.9000015258789 60.06951141357422 81.69999694824219 C 58.52201461791992 81.68849182128906 56.9783935546875 81.85627746582031 55.46950912475586 82.19999694824219 C 50.769508361816406 83.19999694824219 46.46950912475586 81.19999694824219 46.06951141357422 77.80000305175781 C 45.869510650634766 76.5 45.369510650634766 72.9000015258789 44.869510650634766 69.9000015258789 C 44.269508361816406 66.9000015258789 44.269508361816406 63.79999923706055 44.769508361816406 62.900001525878906 C 45.76115798950195 60.45558547973633 46.5961799621582 57.95051956176758 47.269508361816406 55.400001525878906 C 48.66950988769531 50.400001525878906 50.06951141357422 48.400001525878906 55.06951141357422 43.400001525878906 C 58.369510650634766 40.099998474121094 61.56951141357422 37.400001525878906 62.16950988769531 37.400001525878906 C 62.66950988769531 37.29999923706055 65.8695068359375 36.5 69.16950988769531 35.400001525878906 C 74.8695068359375 33.599998474121094 93.66950988769531 32.5 93.66950988769531 34.0 C 93.66950988769531 34.5 96.56951141357422 35.400001525878906 105.46951293945312 37.599998474121094 C 107.21287536621094 38.1497917175293 108.81636047363281 39.07094192504883 110.16950988769531 40.29999923706055 C 111.94989776611328 41.87110900878906 113.89447021484375 43.2457160949707 115.96951293945312 44.400001525878906 L 119.3695068359375 46.20000076293945 L 122.7695083618164 42.79999923706055 C 124.93987274169922 40.4611701965332 126.72843933105469 37.79519271850586 128.0695037841797 34.900001525878906 C 128.85398864746094 32.84999465942383 129.75547790527344 30.846702575683594 130.76951599121094 28.899999618530273 C 133.96951293945312 23.399999618530273 137.46951293945312 16.100000381469727 137.0695037841797 15.600000381469727 C 136.76951599121094 15.300000190734863 137.3695068359375 13.800000190734863 138.5695037841797 12.199999809265137 C 141.3695068359375 8.199999809265137 142.0695037841797 4.800000190734863 140.26951599121094 2.4000000953674316 C 138.8695068359375 0.4000000059604645 137.5695037841797 0.4000000059604645 80.8695068359375 0.20000000298023224 L 22.96950912475586 -3.3861802251067274e-15 L 20.76951026916504 2.9000000953674316" stroke-width="1.0" fill="rgb(0, 0, 0)" opacity="1.0"/>
  </g>
</svg>
