<?xml version="1.0" ?>
<svg xmlns="http://www.w3.org/2000/svg" version="1.1" width="140" height="222">
  <defs/>
  <g>
    <path d="M 13.199999809265137 1.7000000476837158 C 12.115538597106934 2.5204591751098633 11.340246200561523 3.6833975315093994 11.0 5.0 C 10.739745140075684 6.053385257720947 10.262955665588379 7.041021823883057 9.600000381469727 7.900000095367432 C 8.0 10.0 6.199999809265137 16.299999237060547 6.099999904632568 20.0 C 6.135108470916748 21.558759689331055 5.791985034942627 23.102815628051758 5.099999904632568 24.5 C 4.5 25.200000762939453 4.0 28.899999618530273 3.799999952316284 32.70000076293945 C 3.700000047683716 36.5 3.299999952316284 40.0 3.0 40.5 C 1.399999976158142 43.099998474121094 0.0 84.19999694824219 0.0 127.30000305175781 C 0.10000000149011612 177.8000030517578 0.20000000298023224 183.60000610351562 1.399999976158142 184.3000030517578 C 1.899999976158142 184.6999969482422 2.0999999046325684 186.5 1.7000000476837158 188.5 C 0.800000011920929 193.39999389648438 4.599999904632568 216.8000030517578 6.400000095367432 216.8000030517578 C 6.900000095367432 216.8000030517578 7.5 217.89999389648438 7.900000095367432 219.3000030517578 C 8.16181755065918 220.54745483398438 8.969223022460938 221.61175537109375 10.100000381469727 222.1999969482422 C 11.100000381469727 222.5 21.299999237060547 222.6999969482422 32.900001525878906 222.6999969482422 L 54.0 222.6999969482422 L 55.20000076293945 220.1999969482422 C 56.29999923706055 217.60000610351562 55.0 208.3000030517578 53.20000076293945 206.39999389648438 C 52.54094314575195 205.13760375976562 52.230281829833984 203.7223663330078 52.29999923706055 202.3000030517578 C 52.08216857910156 199.42405700683594 51.5797119140625 196.57679748535156 50.79999923706055 193.8000030517578 C 49.874542236328125 190.08375549316406 49.206295013427734 186.30813598632812 48.79999923706055 182.5 C 48.5 179.3000030517578 47.900001525878906 175.89999389648438 47.400001525878906 175.0 C 46.900001525878906 174.10000610351562 46.5 170.0 46.400001525878906 165.89999389648438 C 46.39722442626953 163.1558074951172 46.19670486450195 160.41537475585938 45.79999923706055 157.6999969482422 C 45.5 157.3000030517578 45.79999923706055 153.8000030517578 46.400001525878906 150.10000610351562 C 47.0 146.39999389648438 47.599998474121094 142.60000610351562 47.70000076293945 141.6999969482422 C 47.79999923706055 139.6999969482422 57.29999923706055 126.80000305175781 58.599998474121094 126.80000305175781 C 61.19314956665039 126.11917877197266 63.73321533203125 125.25020599365234 66.19999694824219 124.19999694824219 C 72.69999694824219 121.5999984741211 74.5 121.4000015258789 87.30000305175781 122.19999694824219 C 89.12737274169922 122.39557647705078 90.9144287109375 122.86763000488281 92.5999984741211 123.5999984741211 C 99.5999984741211 126.5999984741211 103.30000305175781 125.9000015258789 103.30000305175781 121.69999694824219 C 103.30000305175781 120.5999984741211 103.69999694824219 119.80000305175781 104.19999694824219 119.80000305175781 C 105.19999694824219 119.80000305175781 108.5 110.9000015258789 108.9000015258789 107.0 C 108.99163818359375 105.76407623291016 109.36813354492188 104.5661392211914 110.0 103.5 C 111.30000305175781 101.80000305175781 113.30000305175781 94.5 113.30000305175781 91.5 C 113.30000305175781 90.0999984741211 113.69999694824219 88.69999694824219 114.19999694824219 88.4000015258789 C 114.69999694824219 88.0999984741211 115.4000015258789 86.19999694824219 115.80000305175781 84.19999694824219 C 116.69999694824219 79.4000015258789 114.19999694824219 76.4000015258789 110.0999984741211 77.30000305175781 C 108.19999694824219 77.80000305175781 107.30000305175781 77.5999984741211 107.30000305175781 76.69999694824219 C 107.30000305175781 75.80000305175781 105.80000305175781 75.69999694824219 101.5999984741211 76.30000305175781 C 98.4000015258789 76.69999694824219 93.5999984741211 77.19999694824219 90.80000305175781 77.4000015258789 C 84.69999694824219 77.9000015258789 78.5999984741211 79.5 77.80000305175781 80.80000305175781 C 77.5 81.4000015258789 76.30000305175781 81.80000305175781 75.0999984741211 81.80000305175781 C 74.0 81.80000305175781 70.30000305175781 83.0999984741211 66.9000015258789 84.69999694824219 C 60.0 87.9000015258789 53.20000076293945 89.19999694824219 48.900001525878906 88.0 C 46.20000076293945 87.30000305175781 45.900001525878906 86.69999694824219 45.599998474121094 82.19999694824219 C 45.404991149902344 79.56584930419922 44.969852447509766 76.95500946044922 44.29999923706055 74.4000015258789 C 43.648643493652344 72.28228759765625 43.648643493652344 70.01771545410156 44.29999923706055 67.9000015258789 C 44.931575775146484 65.23941802978516 45.33305740356445 62.5294189453125 45.5 59.79999923706055 C 45.79999923706055 56.400001525878906 47.0 53.5 50.599998474121094 48.0 C 53.29999923706055 44.099998474121094 55.79999923706055 40.79999923706055 56.29999923706055 40.79999923706055 C 58.720176696777344 39.815765380859375 61.06050491333008 38.64560317993164 63.29999923706055 37.29999923706055 C 66.69999694824219 35.400001525878906 70.0999984741211 33.900001525878906 70.69999694824219 34.0 C 73.40767669677734 33.99882125854492 76.11273956298828 33.83184051513672 78.80000305175781 33.5 C 83.30884552001953 33.023189544677734 87.8646469116211 33.25941467285156 92.30000305175781 34.20000076293945 C 95.9000015258789 35.0 99.19999694824219 35.400001525878906 99.5999984741211 35.099998474121094 C 100.0999984741211 34.79999923706055 101.19999694824219 35.29999923706055 102.0999984741211 36.0 C 104.69999694824219 38.20000076293945 113.4000015258789 42.79999923706055 115.0 42.79999923706055 C 115.85856628417969 42.91826629638672 116.58570098876953 43.49232482910156 116.9000015258789 44.29999923706055 C 118.0 47.0 121.19999694824219 45.900001525878906 123.80000305175781 42.099998474121094 C 125.19999694824219 40.0 126.30000305175781 37.599998474121094 126.30000305175781 36.70000076293945 C 126.44169616699219 35.53582000732422 127.01214599609375 34.46622848510742 127.9000015258789 33.70000076293945 C 130.0 32.0 134.5 23.0 133.8000030517578 21.799999237060547 C 133.5 21.399999618530273 134.0 20.299999237060547 134.8000030517578 19.399999618530273 C 137.39999389648438 16.899999618530273 140.3000030517578 9.5 140.3000030517578 5.5 C 140.3000030517578 2.5 139.8000030517578 1.600000023841858 138.0 0.8999999761581421 C 136.6999969482422 0.4000000059604645 108.5999984741211 0.0 75.5 0.0 C 21.200000762939453 0.0 15.0 0.20000000298023224 13.199999809265137 1.7000000476837158" stroke-width="1.0" fill="rgb(0, 0, 0)" opacity="1.0"/>
  </g>
</svg>
