<?xml version="1.0" ?>
<svg xmlns="http://www.w3.org/2000/svg" version="1.1" width="161" height="230">
  <defs/>
  <g>
    <path d="M 88.26338195800781 0.34891000390052795 C 86.77144622802734 0.4724034070968628 85.33102416992188 0.9525449872016907 84.0633773803711 1.7489099502563477 C 83.2660903930664 2.359180450439453 82.22261047363281 2.545516014099121 81.26338195800781 2.2489099502563477 C 79.46337890625 1.4489099979400635 69.76338195800781 4.248909950256348 67.66338348388672 6.148910045623779 C 66.76338195800781 6.948910236358643 65.8633804321289 7.248909950256348 65.5633773803711 6.948910236358643 C 64.66338348388672 6.148910045623779 56.66337966918945 10.348910331726074 53.56338119506836 13.248909950256348 C 52.611202239990234 14.323848724365234 51.40922164916992 15.148062705993652 50.06338119506836 15.648909568786621 C 48.76337814331055 15.348910331726074 40.863380432128906 21.948909759521484 40.76337814331055 23.348909378051758 C 40.76337814331055 24.04891014099121 39.66337966918945 25.04891014099121 38.363380432128906 25.448909759521484 C 36.16337966918945 26.348909378051758 29.26338005065918 34.04890823364258 29.26338005065918 35.74890899658203 C 28.95610237121582 36.56864929199219 28.395673751831055 37.26918411254883 27.663379669189453 37.74890899658203 C 25.063379287719727 39.84891128540039 19.563379287719727 48.448909759521484 20.26338005065918 49.448909759521484 C 20.563379287719727 50.04890823364258 20.163379669189453 50.74890899658203 19.363380432128906 51.24890899658203 C 17.563379287719727 52.24890899658203 12.76338005065918 61.948909759521484 12.76338005065918 64.44891357421875 C 12.76338005065918 65.54891204833984 12.363380432128906 66.54891204833984 11.863380432128906 66.74890899658203 C 10.663379669189453 67.24890899658203 6.663380146026611 78.54891204833984 7.363379955291748 79.64891052246094 C 7.574430465698242 80.53024291992188 7.351441860198975 81.45936584472656 6.76338005065918 82.14891052246094 C 5.063379764556885 84.04891204833984 2.7633800506591797 94.34890747070312 3.4633800983428955 96.24890899658203 C 3.7393651008605957 97.066650390625 3.503657102584839 97.97019958496094 2.863379955291748 98.54891204833984 C 2.063380002975464 98.94891357421875 1.463379979133606 102.24890899658203 1.363379955291748 106.64891052246094 C 1.2722115516662598 109.67089080810547 0.9377970695495605 112.68062591552734 0.3633800148963928 115.64891052246094 C -0.536620020866394 117.74890899658203 0.3633800148963928 142.94891357421875 1.6633800268173218 152.0489044189453 C 2.049057722091675 155.44932556152344 2.78633451461792 158.8005828857422 3.863379955291748 162.0489044189453 C 4.600053310394287 163.90692138671875 5.071349143981934 165.85943603515625 5.26338005065918 167.84890747070312 C 5.872704982757568 170.60501098632812 6.777955532073975 173.2872314453125 7.963379859924316 175.84890747070312 C 9.363380432128906 178.64891052246094 11.463379859924316 183.44891357421875 12.76338005065918 186.34890747070312 C 14.163379669189453 189.34890747070312 16.063379287719727 192.34890747070312 17.063379287719727 193.0489044189453 C 18.022624969482422 193.71339416503906 18.75545883178711 194.65560913085938 19.163379669189453 195.74891662597656 C 19.463380813598633 198.14891052246094 25.863380432128906 205.64891052246094 28.463380813598633 206.64891052246094 C 29.76338005065918 207.14891052246094 30.663379669189453 207.94891357421875 30.363380432128906 208.34890747070312 C 29.663379669189453 209.44891357421875 38.96337890625 216.5489044189453 41.06338119506836 216.5489044189453 C 42.04912185668945 216.57806396484375 42.95279312133789 217.10520935058594 43.46337890625 217.94891357421875 C 44.56338119506836 219.84890747070312 54.66337966918945 224.74891662597656 55.863380432128906 223.94891357421875 C 56.46337890625 223.64891052246094 57.66337966918945 224.0489044189453 58.56338119506836 224.84890747070312 C 60.26337814331055 226.24891662597656 69.5633773803711 228.84890747070312 71.3633804321289 228.44891357421875 C 73.0276107788086 228.54542541503906 74.67347717285156 228.8477325439453 76.26338195800781 229.34890747070312 C 79.46337890625 230.24891662597656 98.5633773803711 230.44891357421875 106.76338195800781 229.5489044189453 C 112.5633773803711 229.0489044189453 120.76338195800781 227.14891052246094 120.76338195800781 226.44891357421875 C 120.76338195800781 225.94891357421875 121.8633804321289 225.5489044189453 123.16338348388672 225.5489044189453 C 126.3633804321289 225.5489044189453 135.06338500976562 221.74891662597656 136.06338500976562 219.94891357421875 C 136.7086944580078 219.04901123046875 137.7562713623047 218.5252227783203 138.86337280273438 218.5489044189453 C 142.6633758544922 218.5489044189453 157.7633819580078 201.74891662597656 157.7633819580078 197.44891357421875 C 158.0112762451172 195.7357940673828 158.55252075195312 194.0782012939453 159.36337280273438 192.5489044189453 C 161.2633819580078 188.84890747070312 161.86337280273438 178.14891052246094 160.6633758544922 169.0489044189453 C 160.1633758544922 165.74891662597656 159.6633758544922 160.14891052246094 159.36337280273438 156.5489044189453 C 158.46337890625 143.84890747070312 157.6633758544922 137.0489044189453 156.6633758544922 133.0489044189453 C 155.9484100341797 130.09283447265625 155.48013305664062 127.08248901367188 155.2633819580078 124.04891204833984 C 155.08131408691406 121.32386779785156 154.5434112548828 118.63436126708984 153.6633758544922 116.04891204833984 C 153.05337524414062 114.6943130493164 152.7136993408203 113.2336654663086 152.6633758544922 111.74890899658203 C 152.96337890625 110.04891204833984 150.06338500976562 105.54891204833984 148.6633758544922 105.54891204833984 C 147.0449981689453 105.96086883544922 145.4708251953125 106.5302505493164 143.96337890625 107.24890899658203 C 142.26914978027344 108.04415130615234 140.49148559570312 108.64788818359375 138.6633758544922 109.04891204833984 C 135.46337890625 109.44891357421875 126.76338195800781 112.74890899658203 126.76338195800781 113.64891052246094 C 126.76338195800781 114.14891052246094 125.8633804321289 114.54891204833984 124.76338195800781 114.54891204833984 C 121.96337890625 114.54891204833984 112.16338348388672 118.34890747070312 110.76338195800781 120.04891204833984 C 110.0633773803711 120.84890747070312 109.16338348388672 121.24890899658203 108.66338348388672 120.94891357421875 C 107.5633773803711 120.34890747070312 98.76338195800781 125.24890899658203 98.76338195800781 126.44891357421875 C 98.76338195800781 128.24891662597656 110.26338195800781 138.44891357421875 113.76338195800781 139.74891662597656 C 114.5633773803711 140.0489044189453 116.5633773803711 143.5489044189453 118.0633773803711 147.44891357421875 C 120.46337890625 153.84890747070312 120.66338348388672 155.24891662597656 119.8633804321289 159.34890747070312 C 118.3633804321289 166.64891052246094 116.46337890625 171.34890747070312 114.76338195800781 171.94891357421875 C 111.29574584960938 173.87307739257812 108.01490783691406 176.11610412597656 104.96337890625 178.64891052246094 C 104.26338195800781 179.24891662597656 101.5633773803711 179.94891357421875 98.96337890625 180.14891052246094 C 96.27027893066406 180.44937133789062 93.59846496582031 180.9169464111328 90.96337890625 181.5489044189453 C 88.66338348388672 182.14891052246094 85.5633773803711 181.94891357421875 80.96337890625 181.0489044189453 C 78.16191864013672 180.3826141357422 75.32368469238281 179.88174438476562 72.46337890625 179.5489044189453 C 71.37310028076172 179.50424194335938 70.32411193847656 179.11961364746094 69.46337890625 178.44891357421875 C 66.29457092285156 176.08872985839844 62.98878479003906 173.91827392578125 59.56338119506836 171.94891357421875 C 58.56338119506836 171.34890747070312 56.363380432128906 168.24891662597656 54.66337966918945 164.94891357421875 C 53.326202392578125 162.33377075195312 51.78826141357422 159.82626342773438 50.06338119506836 157.44891357421875 C 49.363380432128906 156.5489044189453 48.76337814331055 155.44891357421875 48.96337890625 154.94891357421875 C 49.16337966918945 153.94891357421875 46.863380432128906 143.5489044189453 46.06338119506836 142.24891662597656 C 45.66337966918945 141.5489044189453 44.96337890625 132.84890747070312 44.56338119506836 124.54891204833984 C 44.46337890625 120.54891204833984 45.56338119506836 105.74890899658203 46.06338119506836 104.84890747070312 C 46.667686462402344 102.5931396484375 47.03632736206055 100.28076171875 47.16337966918945 97.94891357421875 C 47.64357376098633 93.8985366821289 48.548553466796875 89.909912109375 49.863380432128906 86.04891204833984 C 50.79254150390625 83.6016616821289 51.56084442138672 81.09632873535156 52.16337966918945 78.54891204833984 C 53.1170654296875 75.7780990600586 54.322078704833984 73.10028839111328 55.76337814331055 70.54891204833984 C 57.1251106262207 68.02664947509766 58.32746505737305 65.42154693603516 59.363380432128906 62.74890899658203 C 59.83173751831055 61.55198669433594 60.62909698486328 60.51195526123047 61.66337966918945 59.74890899658203 C 63.69266128540039 57.80493927001953 65.59648895263672 55.734107971191406 67.3633804321289 53.54890823364258 C 69.3633804321289 51.04890823364258 71.26338195800781 49.14891052246094 71.66338348388672 49.24890899658203 C 71.96337890625 49.34891128540039 72.96337890625 48.84891128540039 73.76338195800781 48.04890823364258 C 75.3462905883789 46.91551208496094 77.01842498779297 45.912227630615234 78.76338195800781 45.04890823364258 C 80.441162109375 44.141300201416016 82.04598236083984 43.1048583984375 83.5633773803711 41.948909759521484 C 84.26338195800781 41.14891052246094 85.26338195800781 40.74890899658203 85.76338195800781 41.04890823364258 C 86.16338348388672 41.34891128540039 89.66338348388672 40.948909759521484 93.3633804321289 40.14891052246094 C 99.3633804321289 38.84891128540039 101.0633773803711 38.84891128540039 108.16338348388672 40.34891128540039 C 114.76338195800781 41.64891052246094 116.66338348388672 42.448909759521484 118.76338195800781 44.84891128540039 C 122.26338195800781 49.04890823364258 124.46337890625 53.74890899658203 124.5633773803711 57.54890823364258 C 124.63856506347656 59.39091491699219 125.26569366455078 61.167789459228516 126.3633804321289 62.64891052246094 C 127.96337890625 64.34890747070312 129.06338500976562 64.54891204833984 134.56338500976562 64.04891204833984 C 138.06338500976562 63.74890899658203 142.36337280273438 62.948909759521484 144.06338500976562 62.14891052246094 C 148.6633758544922 60.24890899658203 155.46337890625 53.64891052246094 157.06338500976562 49.54890823364258 C 158.86337280273438 45.04890823364258 158.7633819580078 29.748910903930664 156.96337890625 28.648910522460938 C 156.0851287841797 27.860729217529297 155.48822021484375 26.80735969543457 155.2633819580078 25.648910522460938 C 154.7633819580078 23.148910522460938 153.7633819580078 21.648910522460938 149.86337280273438 17.348909378051758 C 148.56338500976562 15.848910331726074 147.06338500976562 14.848910331726074 146.6633758544922 15.148909568786621 C 146.2633819580078 15.348910331726074 145.36337280273438 14.648909568786621 144.7633819580078 13.548910140991211 C 143.56338500976562 11.248909950256348 134.86337280273438 6.548910140991211 131.7633819580078 6.548910140991211 C 130.6633758544922 6.548910140991211 129.7633819580078 6.148910045623779 129.7633819580078 5.648910045623779 C 129.7633819580078 4.548910140991211 118.0633773803711 1.2489099502563477 116.66338348388672 2.048909902572632 C 115.8382797241211 2.40790057182312 114.87648010253906 2.2075254917144775 114.26338195800781 1.5489100217819214 C 112.96337890625 0.4489099979400635 93.96337890625 -0.5510900020599365 88.26338195800781 0.34891000390052795" stroke-width="1.0" fill="rgb(0, 0, 0)" opacity="1.0"/>
  </g>
</svg>
