<?xml version="1.0" ?>
<svg xmlns="http://www.w3.org/2000/svg" version="1.1" width="162" height="223">
  <defs/>
  <g>
    <path d="M 58.008399963378906 0.20810000598430634 C 57.80839920043945 0.5080999732017517 48.1083984375 0.7081000208854675 36.6083984375 0.7081000208854675 L 15.608400344848633 0.8080999851226807 L 14.008399963378906 3.608099937438965 C 13.008479118347168 5.241910457611084 12.42474365234375 7.096126556396484 12.30840015411377 9.008099555969238 C 12.30840015411377 10.408100128173828 11.90839958190918 11.608099937438965 11.40839958190918 11.608099937438965 C 10.508399963378906 11.608099937438965 7.908400058746338 22.3080997467041 8.40839958190918 24.10810089111328 C 8.31474781036377 25.805387496948242 8.012474060058594 27.48468780517578 7.508399963378906 29.10810089111328 C 6.742281436920166 32.39999771118164 6.207640171051025 35.74150466918945 5.908400058746338 39.10810089111328 C 5.818686485290527 41.62887191772461 5.517630577087402 44.137672424316406 5.008399963378906 46.60810089111328 C 4.108399868011475 48.90810012817383 2.208400011062622 73.30809783935547 1.908400058746338 85.10810089111328 C 1.80840003490448 88.90809631347656 1.408400058746338 92.70809936523438 1.0083999633789062 93.30809783935547 C 0.10840000212192535 94.70809936523438 0.10840000212192535 95.50810241699219 0.00839999970048666 144.10809326171875 C -0.09160000085830688 177.70809936523438 0.7084000110626221 202.90809631347656 2.0083999633789062 205.0081024169922 C 2.4914374351501465 206.24766540527344 2.6631181240081787 207.58677673339844 2.5083999633789062 208.90809631347656 C 2.1084001064300537 213.30810546875 4.208399772644043 219.70809936523438 6.608399868011475 221.70809936523438 C 8.508399963378906 223.20809936523438 11.30840015411377 223.40809631347656 31.108400344848633 223.40809631347656 L 53.40840148925781 223.40809631347656 L 54.80839920043945 220.60809326171875 C 56.1083984375 218.20809936523438 56.008399963378906 217.30810546875 54.30839920043945 212.70809936523438 C 53.20840072631836 209.90809631347656 51.90840148925781 206.80810546875 51.40840148925781 205.80810546875 C 50.20840072631836 203.5081024169922 47.30839920043945 191.10809326171875 46.70840072631836 186.10809326171875 C 46.508399963378906 183.90809631347656 45.90840148925781 179.80810546875 45.40840148925781 177.10809326171875 C 44.83417510986328 173.16537475585938 44.50022506713867 169.19137573242188 44.40840148925781 165.20809936523438 C 44.30839920043945 161.30810546875 44.008399963378906 157.90809631347656 43.70840072631836 157.5081024169922 C 43.508399963378906 157.10809326171875 44.008399963378906 153.90809631347656 45.008399963378906 150.40809631347656 C 45.90840148925781 147.0081024169922 46.70840072631836 143.40809631347656 46.80839920043945 142.60809326171875 C 46.90840148925781 141.10809326171875 47.90840148925781 139.80810546875 53.6083984375 133.10809326171875 C 54.72454833984375 131.89671325683594 55.63643264770508 130.51199340820312 56.30839920043945 129.0081024169922 C 56.40840148925781 128.5081024169922 59.1083984375 126.70809936523438 62.508399963378906 125.10810089111328 C 64.98783111572266 123.92304992675781 67.39234161376953 122.58721923828125 69.7083969116211 121.10810089111328 C 71.0083999633789 119.90809631347656 83.30840301513672 116.60810089111328 88.30840301513672 116.10810089111328 C 99.7083969116211 115.00810241699219 105.0083999633789 115.30809783935547 111.6083984375 117.70809936523438 C 118.40840148925781 120.10810089111328 118.5083999633789 120.10810089111328 120.5083999633789 125.60810089111328 C 121.90840148925781 129.70809936523438 122.5083999633789 134.0081024169922 122.6083984375 142.40809631347656 C 122.7083969116211 148.5081024169922 122.5083999633789 153.70809936523438 122.1083984375 153.90809631347656 C 121.7083969116211 154.0081024169922 121.2083969116211 157.40809631347656 120.90840148925781 161.40809631347656 C 120.6083984375 165.30810546875 120.1083984375 169.10809326171875 119.7083969116211 169.70809936523438 C 118.6083984375 171.5081024169922 116.40840148925781 182.0081024169922 117.0083999633789 182.90809631347656 C 117.16017150878906 183.66395568847656 116.93658447265625 184.44651794433594 116.40840148925781 185.0081024169922 C 114.7083969116211 187.0081024169922 112.1083984375 194.80810546875 112.1083984375 197.80810546875 C 112.2083969116211 199.40809631347656 111.80840301513672 200.60809326171875 111.40840148925781 200.60809326171875 C 110.30840301513672 200.60809326171875 106.7083969116211 210.90809631347656 105.80840301513672 216.20809936523438 C 104.80840301513672 222.90809631347656 105.30840301513672 223.10809326171875 131.20840454101562 223.30810546875 C 152.8083953857422 223.40809631347656 158.20840454101562 222.90809631347656 156.70840454101562 220.5081024169922 C 156.4084014892578 219.90809631347656 156.8083953857422 218.70809936523438 157.6083984375 217.80810546875 C 159.70840454101562 215.5081024169922 160.50840759277344 210.0081024169922 161.9084014892578 188.10809326171875 C 162.70840454101562 176.10809326171875 162.8083953857422 111.40809631347656 162.00840759277344 100.10810089111328 C 160.50840759277344 78.10810089111328 160.1083984375 74.10810089111328 159.20840454101562 72.90809631347656 C 158.57908630371094 72.04243469238281 158.39385986328125 70.93107604980469 158.70840454101562 69.90809631347656 C 159.00840759277344 68.90809631347656 158.8083953857422 65.60810089111328 158.20840454101562 62.60810089111328 C 157.70840454101562 59.60810089111328 157.00840759277344 55.708099365234375 156.9084014892578 54.10810089111328 C 156.3083953857422 48.308101654052734 155.00840759277344 41.10810089111328 154.4084014892578 40.10810089111328 C 153.92015075683594 38.587310791015625 153.65078735351562 37.004783630371094 153.6083984375 35.40810012817383 C 153.31214904785156 32.672462463378906 152.673828125 29.984806060791016 151.70840454101562 27.408100128173828 C 151.0011749267578 25.52699851989746 150.4656524658203 23.58574676513672 150.1083984375 21.60810089111328 C 150.1083984375 19.3080997467041 147.20840454101562 10.308099746704102 145.9084014892578 8.708100318908691 C 145.0356903076172 7.294919490814209 144.33091735839844 5.784700393676758 143.8083953857422 4.208099842071533 L 142.8083953857422 1.1081000566482544 L 126.80840301513672 1.0081000328063965 C 118.0083999633789 0.9081000089645386 108.5083999633789 0.5080999732017517 105.6083984375 0.20810000598430634 C 102.40840148925781 -0.19189999997615814 100.2083969116211 0.008100000210106373 99.80840301513672 0.6080999970436096 C 99.11432647705078 1.2693389654159546 98.09822082519531 1.4647431373596191 97.2083969116211 1.1081000566482544 C 93.2083969116211 -0.19189999997615814 93.5083999633789 5.608099937438965 97.7083969116211 11.908100128173828 C 99.1083984375 13.908100128173828 100.1083984375 15.608099937438965 99.80840301513672 15.608099937438965 C 99.1083984375 15.608099937438965 104.40840148925781 27.10810089111328 105.40840148925781 27.708099365234375 C 105.90840148925781 28.008100509643555 106.6083984375 29.508100509643555 106.90840148925781 31.10810089111328 C 107.69139862060547 34.00809097290039 108.76343536376953 36.82218933105469 110.1083984375 39.50809860229492 C 111.5083999633789 42.60810089111328 112.80840301513672 45.50809860229492 112.80840301513672 46.10810089111328 C 113.0083999633789 48.90810012817383 115.7083969116211 58.60810089111328 116.30840301513672 58.60810089111328 C 116.7083969116211 58.60810089111328 117.1083984375 62.40810012817383 117.2083969116211 67.10810089111328 C 117.40840148925781 75.40809631347656 117.30840301513672 75.70809936523438 114.80840301513672 76.60810089111328 C 113.40840148925781 77.10810089111328 103.5083999633789 77.80809783935547 92.90840148925781 78.00810241699219 C 81.6083984375 78.20809936523438 72.7083969116211 78.90809631347656 71.5083999633789 79.50810241699219 C 69.96908569335938 80.21078491210938 68.30036163330078 80.58539581298828 66.6083984375 80.60810089111328 C 63.508399963378906 80.60810089111328 55.20840072631836 84.10810089111328 54.1083984375 85.80809783935547 C 53.008399963378906 87.70809936523438 48.40840148925781 85.10810089111328 47.20840072631836 81.90809631347656 C 46.6083984375 80.30809783935547 45.70840072631836 78.40809631347656 45.30839920043945 77.60810089111328 C 44.90840148925781 76.70809936523438 45.008399963378906 73.10810089111328 45.508399963378906 69.60810089111328 C 45.945472717285156 66.83084106445312 46.079593658447266 64.01432037353516 45.90840148925781 61.208099365234375 C 45.59686279296875 60.19770050048828 45.74301528930664 59.10157775878906 46.30839920043945 58.208099365234375 C 47.272071838378906 55.76237869262695 47.943389892578125 53.211360931396484 48.30839920043945 50.60810089111328 C 48.801414489746094 47.727603912353516 49.503265380859375 44.886775970458984 50.40840148925781 42.10810089111328 C 51.87685775756836 38.16824722290039 53.04682540893555 34.123497009277344 53.90840148925781 30.008100509643555 C 54.112327575683594 28.610824584960938 54.55189895629883 27.258289337158203 55.20840072631836 26.008100509643555 C 57.1083984375 22.60810089111328 59.30839920043945 16.408100128173828 59.30839920043945 14.308099746704102 C 59.40882110595703 12.899824142456055 59.97124481201172 11.564066886901855 60.90840148925781 10.508099555969238 C 62.00991439819336 8.878670692443848 62.633426666259766 6.973487854003906 62.70840072631836 5.0081000328063965 C 62.80839920043945 2.108099937438965 62.30839920043945 1.2080999612808228 60.6083984375 0.6080999970436096 C 59.508399963378906 0.10809999704360962 58.30839920043945 -0.09189999848604202 58.008399963378906 0.20810000598430634" stroke-width="1.0" fill="rgb(0, 0, 0)" opacity="1.0"/>
  </g>
</svg>
