<?xml version="1.0" ?>
<svg xmlns="http://www.w3.org/2000/svg" version="1.1" width="58" height="223">
  <defs/>
  <g>
    <path d="M 16.633769989013672 0.4488399922847748 C 12.233770370483398 2.048840045928955 7.133769989013672 10.548839569091797 7.23376989364624 15.948840141296387 C 7.23376989364624 17.44883918762207 6.933770179748535 18.94883918762207 6.433770179748535 19.24884033203125 C 5.23376989364624 20.048839569091797 3.5337700843811035 31.548839569091797 2.933769941329956 43.5488395690918 C 2.8725624084472656 46.308528900146484 2.5375869274139404 49.05532455444336 1.933769941329956 51.74884033203125 C 0.2337699979543686 54.5488395690918 -0.7662299871444702 154.44883728027344 0.7337700128555298 180.24884033203125 C 1.7337700128555298 197.54884338378906 3.3337700366973877 211.14883422851562 4.433770179748535 211.54884338378906 C 5.0337700843811035 211.74884033203125 5.433770179748535 213.24884033203125 5.433770179748535 214.94883728027344 C 5.433770179748535 216.84884643554688 6.433770179748535 218.84884643554688 8.333769798278809 220.74884033203125 L 11.133769989013672 223.64883422851562 L 31.533769607543945 223.64883422851562 C 58.233768463134766 223.64883422851562 57.13376998901367 223.84884643554688 56.93376922607422 217.94883728027344 C 56.63376998901367 211.24884033203125 55.333770751953125 204.74884033203125 54.233768463134766 204.74884033203125 C 53.733768463134766 204.74884033203125 53.43376922607422 203.74884033203125 53.53377151489258 202.44883728027344 C 53.833770751953125 199.54884338378906 52.43376922607422 189.54884338378906 51.43376922607422 188.24884033203125 C 51.03377151489258 187.64883422851562 50.63376998901367 185.24884033203125 50.53377151489258 182.84884643554688 C 50.43595886230469 179.9810028076172 50.03369903564453 177.1316680908203 49.333770751953125 174.34884643554688 C 48.649070739746094 171.52194213867188 48.18104553222656 168.64694213867188 47.93376922607422 165.74884033203125 C 47.13376998901367 151.64883422851562 46.03377151489258 140.64883422851562 45.43376922607422 140.24884033203125 C 45.03377151489258 139.94883728027344 44.93376922607422 136.64883422851562 45.233768463134766 132.84884643554688 C 45.43376922607422 129.04884338378906 45.333770751953125 125.04884338378906 44.93376922607422 124.04884338378906 C 44.13376998901367 121.94883728027344 44.03377151489258 90.44883728027344 44.833770751953125 86.74884033203125 C 45.35760498046875 83.43731689453125 45.69148254394531 80.09851837158203 45.833770751953125 76.74884033203125 C 46.53377151489258 67.14884185791016 48.03377151489258 54.648841857910156 49.43376922607422 48.24884033203125 C 49.95271682739258 46.225555419921875 50.15511703491211 44.134090423583984 50.03377151489258 42.0488395690918 C 49.733768463134766 41.348838806152344 50.13376998901367 39.5488395690918 50.93376922607422 38.0488395690918 C 52.00625228881836 35.21708679199219 52.71198272705078 32.25973892211914 53.03377151489258 29.24884033203125 C 53.43376922607422 25.94883918762207 54.03377151489258 22.74884033203125 54.43376922607422 22.24884033203125 C 55.333770751953125 21.048839569091797 57.63376998901367 11.448840141296387 57.333770751953125 10.148839950561523 C 57.317203521728516 8.89760684967041 57.48569107055664 7.650796890258789 57.833770751953125 6.448840141296387 C 58.375244140625 5.1096391677856445 58.26441192626953 3.594959259033203 57.53377151489258 2.3488399982452393 C 56.13376998901367 0.6488400101661682 49.833770751953125 -0.6511600017547607 48.233768463134766 0.34883999824523926 C 47.03377151489258 1.048840045928955 19.93376922607422 1.1488399505615234 18.633769989013672 0.4488399922847748 C 17.982481002807617 0.2463325411081314 17.285058975219727 0.2463325411081314 16.633769989013672 0.4488399922847748" stroke-width="1.0" fill="rgb(0, 0, 0)" opacity="1.0"/>
  </g>
</svg>
