<?xml version="1.0" ?>
<svg xmlns="http://www.w3.org/2000/svg" version="1.1" width="600" height="600">
  <defs/>
  <g>
    <path d="M 1.6737945079803467 4.441104412078857 C 1.7087944746017456 8.74610424041748 1.778794527053833 13.051104545593262 1.813794493675232 17.321104049682617 Q 20.976293563842773 17.37360382080078 40.1387939453125 17.426105499267578 C 40.698795318603516 17.426105499267578 41.328792572021484 17.391103744506836 41.74879455566406 17.006105422973633 C 42.30879592895508 16.481103897094727 42.203792572021484 15.606104850769043 42.06379318237305 14.87110424041748 C 41.39879608154297 11.126104354858398 40.733795166015625 7.381103992462158 40.06879425048828 3.6711044311523438 C 39.928794860839844 2.9361045360565186 39.78879165649414 2.166104555130005 39.2637939453125 1.6411044597625732 C 38.598793029785156 0.9761044979095459 37.54879379272461 0.9411044716835022 36.60379409790039 0.9411044716835022 C 24.668794631958008 0.9411044716835022 12.733794212341309 0.9761044979095459 0.7987944483757019 0.9761044979095459 L 1.6737945079803467 4.441104412078857" stroke-width="1.0" fill="rgb(245, 200, 30)" opacity="1.0"/>
    <path d="M 0.7987944483757019 4.441104412078857 C 0.8337945342063904 8.74610424041748 0.9037944674491882 13.051104545593262 0.9387944936752319 17.321104049682617 C 0.9340779185295105 17.799636840820312 1.3181816339492798 18.191387176513672 1.7967143058776855 18.196104049682617 C 1.8024075031280518 18.19615936279297 1.8081012964248657 18.19615936279297 1.813794493675232 18.196104049682617 C 8.28879451751709 18.196104049682617 14.7637939453125 18.231103897094727 21.238794326782227 18.231103897094727 C 24.493793487548828 18.231103897094727 27.748794555664062 18.231103897094727 31.003793716430664 18.266103744506836 L 35.86879348754883 18.266103744506836 C 37.40879440307617 18.266103744506836 38.983795166015625 18.336103439331055 40.52379608154297 18.266103744506836 C 41.23634338378906 18.279144287109375 41.9262580871582 18.015722274780273 42.448795318603516 17.531105041503906 C 42.88270950317383 17.00101661682129 43.095794677734375 16.324167251586914 43.043792724609375 15.641103744506836 C 42.978477478027344 14.898868560791016 42.86152648925781 14.162083625793457 42.69379425048828 13.436104774475098 C 42.553794860839844 12.631104469299316 42.41379165649414 11.861104011535645 42.27379608154297 11.056103706359863 C 41.99379348754883 9.481103897094727 41.71379089355469 7.871104717254639 41.43379592895508 6.296104431152344 C 41.293792724609375 5.491104602813721 41.15379333496094 4.721104145050049 41.0137939453125 3.916104555130005 C 40.909175872802734 3.211768388748169 40.733272552490234 2.519882917404175 40.488792419433594 1.8511043787002563 C 39.893795013427734 0.5211045145988464 38.52879333496094 0.1011044979095459 37.16379165649414 0.031104497611522675 C 35.62379455566406 -0.03889549896121025 34.08379364013672 0.031104497611522675 32.543792724609375 0.031104497611522675 L 22.778793334960938 0.031104497611522675 C 16.303794860839844 0.031104497611522675 9.793793678283691 0.031104497611522675 3.3187944889068604 0.06610450148582458 L 0.8687945008277893 0.06610450148582458 C 0.38262662291526794 0.06999611109495163 -0.008335518650710583 0.46726781129837036 -0.004443900194019079 0.9534357190132141 C -0.00381398550234735 1.0321290493011475 0.007365090772509575 1.1103825569152832 0.02879449911415577 1.1861045360565186 C 0.3087944984436035 2.341104507446289 0.5887945294380188 3.4961042404174805 0.8687945008277893 4.616104602813721 C 1.1137944459915161 5.701104164123535 2.828794240951538 5.2461042404174805 2.5487945079803467 4.161104679107666 C 2.268794298171997 3.0061044692993164 1.9887944459915161 1.8511043787002563 1.7087944746017456 0.7311044931411743 C 1.428794503211975 1.1161044836044312 1.148794412612915 1.466104507446289 0.8687945008277893 1.8511043787002563 L 35.86879348754883 1.8511043787002563 C 36.48728942871094 1.8277722597122192 37.10661697387695 1.839457631111145 37.723793029785156 1.8861043453216553 C 38.194740295410156 1.904297113418579 38.62661361694336 2.15295147895813 38.87879180908203 2.5511043071746826 C 39.19379425048828 3.0761044025421143 39.22879409790039 3.77610445022583 39.33379364013672 4.336104393005371 C 39.613792419433594 5.876104354858398 39.893795013427734 7.381103992462158 40.1387939453125 8.921104431152344 C 40.418792724609375 10.426104545593262 40.66379165649414 11.93110466003418 40.94379425048828 13.436104774475098 C 41.04879379272461 14.101104736328125 41.223793029785156 14.801104545593262 41.293792724609375 15.466104507446289 C 41.328792572021484 15.851104736328125 41.39879608154297 16.34110450744629 40.97879409790039 16.481103897094727 C 40.418792724609375 16.656105041503906 39.68379592895508 16.551105499267578 39.12379455566406 16.551105499267578 L 32.08879089355469 16.551105499267578 C 28.97379493713379 16.551105499267578 25.858795166015625 16.551105499267578 22.778793334960938 16.516103744506836 C 16.58379364013672 16.516103744506836 10.423794746398926 16.481103897094727 4.228794097900391 16.481103897094727 L 1.8837944269180298 16.481103897094727 C 2.16379451751709 16.761104583740234 2.478794574737549 17.07610511779785 2.7587943077087402 17.356103897094727 C 2.723794460296631 13.051104545593262 2.653794527053833 8.74610424041748 2.6187944412231445 4.476104259490967 C 2.5487945079803467 3.321100950241089 0.7987944483757019 3.321100950241089 0.7987944483757019 4.441104412078857" stroke-width="1.0" fill="rgb(0, 0, 0)" opacity="1.0"/>
  </g>
</svg>
