<?xml version="1.0" ?>
<svg xmlns="http://www.w3.org/2000/svg" version="1.1" width="600" height="600">
  <defs/>
  <g>
    <path d="M 6.9696760177612305 4.117977142333984 C 6.181151390075684 12.273131370544434 4.126497745513916 20.25558090209961 0.8796759843826294 27.77797508239746 Q 15.632176399230957 22.3704776763916 30.384675979614258 16.962976455688477 C 23.160049438476562 10.375060081481934 14.968249320983887 4.933532238006592 6.0946760177612305 0.8279774785041809 L 6.9696760177612305 4.117977142333984" stroke-width="1.0" fill="rgb(118, 77, 152)" opacity="1.0"/>
    <path d="M 6.0946760177612305 4.117977142333984 C 5.480072498321533 10.360342025756836 4.1169514656066895 16.50613784790039 2.0346760749816895 22.422977447509766 C 1.4396759271621704 24.102975845336914 0.8096759915351868 25.74797821044922 0.10967600345611572 27.35797691345215 C -0.060597192496061325 27.67023468017578 -0.03325032442808151 28.053091049194336 0.17967601120471954 28.33797836303711 C 0.39875608682632446 28.607011795043945 0.7511537671089172 28.72899627685547 1.0896759033203125 28.65297508239746 C 8.75467586517334 25.852975845336914 16.384675979614258 23.052976608276367 24.0496768951416 20.25297737121582 C 26.219675064086914 19.44797706604004 28.4246768951416 18.64297866821289 30.594675064086914 17.837976455688477 C 31.063613891601562 17.703718185424805 31.334922790527344 17.21472930908203 31.20066261291504 16.745792388916016 C 31.159866333007812 16.603307723999023 31.083871841430664 16.473379135131836 30.97967529296875 16.367977142333984 C 25.296850204467773 11.192177772521973 19.02353858947754 6.704527378082275 12.289676666259766 2.9979774951934814 C 10.399675369262695 1.9479774236679077 8.474676132202148 1.0029774904251099 6.514675617218018 0.09297750145196915 C 5.84967565536499 -0.22202250361442566 5.009675979614258 0.3029775023460388 5.2196760177612305 1.0729774236679077 C 5.499675750732422 2.157977342605591 5.779675483703613 3.2429773807525635 6.0946760177612305 4.327977657318115 C 6.374675750732422 5.41297721862793 8.054675102233887 4.957977771759033 7.7746758460998535 3.8729774951934814 C 7.494676113128662 2.787977457046509 7.2146759033203125 1.7029775381088257 6.8996758460998535 0.617977499961853 C 6.479675769805908 0.9329774379730225 6.059676170349121 1.2829774618148804 5.604675769805908 1.5979775190353394 C 12.441043853759766 4.75901985168457 18.87917709350586 8.718235969543457 24.78467559814453 13.392977714538574 Q 27.304676055908203 15.38797664642334 29.719675064086914 17.59297752380371 C 29.859676361083984 17.102977752685547 29.96467399597168 16.61297607421875 30.10467529296875 16.12297821044922 C 22.439674377441406 18.922977447509766 14.809675216674805 21.722976684570312 7.144676208496094 24.522977828979492 C 4.97467565536499 25.32797622680664 2.7696759700775146 26.132976531982422 0.5996759533882141 26.937978744506836 C 0.9146759510040283 27.35797691345215 1.2646759748458862 27.77797508239746 1.5796760320663452 28.23297691345215 C 4.147170543670654 22.28251838684082 5.980659484863281 16.04160499572754 7.039675712585449 9.647977828979492 C 7.354675769805908 7.792977333068848 7.59967565536499 5.972977638244629 7.7746758460998535 4.082977771759033 C 7.767161846160889 3.602875232696533 7.3797783851623535 3.215491533279419 6.8996758460998535 3.207977533340454 C 6.445193290710449 3.2741572856903076 6.104918479919434 3.65881609916687 6.0946760177612305 4.117977142333984" stroke-width="1.0" fill="rgb(0, 0, 0)" opacity="1.0"/>
  </g>
</svg>
