<?xml version="1.0" ?>
<svg xmlns="http://www.w3.org/2000/svg" version="1.1" width="600" height="600">
  <defs/>
  <g>
    <path d="M 0.8813279867172241 4.1743974685668945 C 1.1613279581069946 9.599396705627441 1.4413280487060547 15.024396896362305 1.7563281059265137 20.44939613342285 C 1.7913280725479126 21.114397048950195 1.8613280057907104 21.81439781188965 2.281327962875366 22.304397583007812 C 2.8063278198242188 22.899396896362305 3.6463279724121094 23.004398345947266 4.416327953338623 23.07439613342285 C 11.031328201293945 23.599397659301758 17.611328125 24.15939712524414 24.226327896118164 24.684396743774414 C 24.8563289642334 24.719396591186523 25.52132797241211 24.789398193359375 26.081327438354492 24.43939781188965 C 26.921329498291016 23.914398193359375 27.02632713317871 22.794395446777344 27.06132698059082 21.81439781188965 C 27.200950622558594 15.714999198913574 26.955463409423828 9.612868309020996 26.326326370239258 3.5443975925445557 C 26.256328582763672 2.8093974590301514 26.15132713317871 2.0393974781036377 25.626327514648438 1.5143975019454956 C 24.996328353881836 0.9193974733352661 24.016326904296875 0.9193974733352661 23.176326751708984 0.9543974995613098 C 15.861328125 1.269397497177124 8.511327743530273 1.584397554397583 1.196328043937683 1.899397373199463 L 0.8813279867172241 4.1743974685668945" stroke-width="1.0" fill="rgb(127, 190, 72)" opacity="1.0"/>
    <path d="M 0.006327999755740166 4.1743974685668945 C 0.18132799863815308 7.3593974113464355 0.35632798075675964 10.544397354125977 0.4963279962539673 13.69439697265625 C 0.5663279891014099 15.304396629333496 0.6713280081748962 16.914398193359375 0.7413279414176941 18.559398651123047 C 0.7763280272483826 19.294397354125977 0.8113279938697815 20.06439781188965 0.8463280200958252 20.799396514892578 C 0.8611959218978882 21.49492835998535 1.0670326948165894 22.1729793548584 1.4413280487060547 22.759395599365234 C 2.3163280487060547 23.94939613342285 3.8913280963897705 23.914398193359375 5.221328258514404 24.01939582824707 C 6.83132791519165 24.15939712524414 8.406328201293945 24.26439666748047 10.016327857971191 24.40439796447754 C 13.236328125 24.649396896362305 16.456327438354492 24.929397583007812 19.641326904296875 25.174396514892578 C 21.216327667236328 25.31439781188965 22.79132843017578 25.454397201538086 24.3663272857666 25.559396743774414 C 25.101327896118164 25.594396591186523 25.871328353881836 25.559396743774414 26.466327667236328 25.13939666748047 C 26.978784561157227 24.780994415283203 27.359848022460938 24.264713287353516 27.551326751708984 23.669395446777344 C 27.73223304748535 23.091472625732422 27.826587677001953 22.489953994750977 27.831327438354492 21.884397506713867 C 27.8663272857666 21.114397048950195 27.8663272857666 20.309398651123047 27.8663272857666 19.539398193359375 C 27.8663272857666 17.964397430419922 27.8663272857666 16.38939666748047 27.831327438354492 14.779397010803223 C 27.76132583618164 11.629396438598633 27.551326751708984 8.44439697265625 27.27132797241211 5.294397354125977 C 27.201326370239258 4.524397373199463 27.131328582763672 3.754397392272949 27.02632713317871 2.9843974113464355 C 26.972558975219727 2.3505899906158447 26.768596649169922 1.738705039024353 26.43132781982422 1.1993975639343262 C 25.55632781982422 -0.02560250088572502 24.051326751708984 -0.02560250088572502 22.68632698059082 0.009397500194609165 C 16.281328201293945 0.2893975079059601 9.911328315734863 0.569397509098053 3.5063278675079346 0.8493975400924683 C 2.7013280391693115 0.8843975067138672 1.8613280057907104 0.9193974733352661 1.0563279390335083 0.9543974995613098 C 0.5815250873565674 0.9742045402526855 0.2011350393295288 1.3545945882797241 0.18132799863815308 1.829397439956665 C 0.1792372167110443 2.6142466068267822 0.12075329571962357 3.3979310989379883 0.006327999755740166 4.1743974685668945 C -0.06367199867963791 4.629397392272949 0.4613279700279236 5.0493974685668945 0.8813279867172241 5.0493974685668945 C 1.3561309576034546 5.029590129852295 1.7365208864212036 4.649200439453125 1.7563281059265137 4.1743974685668945 C 1.8263280391693115 3.4393973350524902 1.9313280582427979 2.6693975925445557 2.0013279914855957 1.934397578239441 L 1.1263279914855957 2.8093974590301514 C 7.146327495574951 2.529397487640381 13.166327476501465 2.284397602081299 19.186328887939453 2.004397392272949 C 20.656328201293945 1.934397578239441 22.126327514648438 1.829397439956665 23.56132698059082 1.829397439956665 C 24.016326904296875 1.829397439956665 24.576326370239258 1.829397439956665 24.926326751708984 2.1093976497650146 C 25.2413272857666 2.389397382736206 25.31132698059082 2.9143974781036377 25.381328582763672 3.264397382736206 C 25.591327667236328 4.699397563934326 25.661327362060547 6.204397678375244 25.801326751708984 7.639397621154785 C 25.906328201293945 9.144397735595703 26.01132583618164 10.614398002624512 26.081327438354492 12.119397163391113 C 26.221328735351562 15.09439754486084 26.256328582763672 18.03439712524414 26.18632698059082 21.009397506713867 C 26.18632698059082 21.70939826965332 26.326326370239258 23.28439712524414 25.55632781982422 23.704397201538086 C 25.066328048706055 23.94939613342285 24.331327438354492 23.809396743774414 23.80632781982422 23.739397048950195 C 23.036327362060547 23.669395446777344 22.301326751708984 23.599397659301758 21.531328201293945 23.56439781188965 C 18.55632781982422 23.319395065307617 15.581328392028809 23.07439613342285 12.571327209472656 22.829397201538086 C 11.066328048706055 22.68939781188965 9.561327934265137 22.584396362304688 8.056327819824219 22.444395065307617 C 6.691328048706055 22.339397430419922 5.291327953338623 22.304397583007812 3.926327705383301 22.094396591186523 C 3.5063278675079346 22.024396896362305 2.981327772140503 21.919397354125977 2.8063278198242188 21.49939727783203 C 2.6505799293518066 20.953481674194336 2.5797512531280518 20.38685417175293 2.596328020095825 19.81939697265625 C 2.5263280868530273 18.31439781188965 2.421327829360962 16.809398651123047 2.351327896118164 15.304396629333496 C 2.2113280296325684 12.329397201538086 2.036327838897705 9.354397773742676 1.8963279724121094 6.379397392272949 C 1.8613280057907104 5.644397258758545 1.8263280391693115 4.8743977546691895 1.7913280725479126 4.139397621154785 C 1.7213349342346191 3.054394006729126 -0.028665000572800636 3.054394006729126 0.006327999755740166 4.1743974685668945" stroke-width="1.0" fill="rgb(0, 0, 0)" opacity="1.0"/>
  </g>
</svg>
