<?xml version="1.0" ?>
<svg xmlns="http://www.w3.org/2000/svg" version="1.1" width="600" height="600">
  <defs/>
  <g>
    <path d="M 0.9547999501228333 3.436650037765503 C 0.9547999501228333 7.741649627685547 0.9197999835014343 12.081649780273438 0.9197999835014343 16.38665008544922 C 0.9197999835014343 17.051651000976562 0.9547999501228333 17.8216495513916 1.3747999668121338 18.311649322509766 C 1.8997999429702759 18.90665054321289 2.809799909591675 18.97665023803711 3.5797998905181885 18.97665023803711 C 8.409799575805664 18.97665023803711 13.20479965209961 19.01165008544922 18.034799575805664 19.01165008544922 C 18.4197998046875 23.49165153503418 18.769798278808594 28.006649017333984 19.154800415039062 32.48664855957031 C 19.189800262451172 33.04664993286133 19.25979995727539 33.67665100097656 19.679800033569336 34.061649322509766 C 20.1697998046875 34.55165100097656 20.939800262451172 34.51665115356445 21.604799270629883 34.48164749145508 C 26.504798889160156 34.131649017333984 31.40479850769043 33.781646728515625 36.269798278808594 33.43164825439453 C 36.7947998046875 33.39664840698242 37.424800872802734 33.3266487121582 37.73979949951172 32.87165069580078 C 38.019798278808594 32.48664855957031 37.984798431396484 31.96164894104004 37.949798583984375 31.471649169921875 C 37.074798583984375 22.61665153503418 35.95479965209961 13.761650085449219 34.58980178833008 4.976649761199951 C 34.379798889160156 3.6466498374938965 34.06480026245117 2.1416499614715576 32.97979736328125 1.4066499471664429 C 32.06979751586914 0.8116499781608582 30.9148006439209 0.8116499781608582 29.829797744750977 0.8816500306129456 Q 15.339799880981445 1.6166499853134155 0.8497999906539917 2.3516499996185303 L 0.9547999501228333 3.436650037765503" stroke-width="1.0" fill="rgb(159, 159, 159)" opacity="1.0"/>
    <path d="M 0.07980000227689743 3.436650037765503 C 0.07980000227689743 5.676650047302246 0.07980000227689743 7.91664981842041 0.04480000212788582 10.191649436950684 C 0.04480000212788582 12.361649513244629 -0.025199998170137405 14.53165054321289 0.009800000116229057 16.701650619506836 C 0.04480000212788582 17.716650009155273 0.2547999918460846 18.6966495513916 1.1297999620437622 19.326650619506836 C 1.864799976348877 19.85165023803711 2.8447999954223633 19.88665008544922 3.7547998428344727 19.88665008544922 C 5.959799766540527 19.88665008544922 8.164799690246582 19.88665008544922 10.369799613952637 19.921649932861328 C 12.924799919128418 19.921649932861328 15.4798002243042 19.921649932861328 18.034799575805664 19.956649780273438 L 17.159799575805664 19.081649780273438 Q 17.57979965209961 24.22665023803711 17.999799728393555 29.37164878845215 C 18.069799423217773 30.24664878845215 18.139799118041992 31.08664894104004 18.20979881286621 31.96164894104004 C 18.279800415039062 32.69664764404297 18.279800415039062 33.466651916503906 18.594799041748047 34.166648864746094 C 19.32979965209961 35.70664978027344 21.184799194335938 35.46165084838867 22.58479881286621 35.35664749145508 Q 27.729799270629883 34.98915100097656 32.87480163574219 34.62165069580078 C 33.71480178833008 34.55165100097656 34.5547981262207 34.51665115356445 35.394798278808594 34.44664764404297 C 36.164798736572266 34.376651763916016 37.004798889160156 34.41164779663086 37.70479965209961 34.061649322509766 C 39.34980010986328 33.291648864746094 38.789798736572266 31.26165008544922 38.64979934692383 29.826650619506836 Q 37.59980010986328 19.589149475097656 36.129798889160156 9.35165023803711 C 35.88479995727539 7.7066497802734375 35.674800872802734 6.061649799346924 35.394798278808594 4.416650295257568 C 35.18479919433594 3.121649742126465 34.764801025390625 1.7566499710083008 33.71480178833008 0.8816500306129456 C 32.45479965209961 -0.13334999978542328 30.844799041748047 -0.028349999338388443 29.339799880981445 0.04165000095963478 C 27.624799728393555 0.1116499975323677 25.909799575805664 0.21665000915527344 24.194799423217773 0.28665000200271606 L 3.5097999572753906 1.336650013923645 C 2.6347999572753906 1.371649980545044 1.7597999572753906 1.4416499137878418 0.8848000168800354 1.4766498804092407 C -0.23519998788833618 1.5466500520706177 -0.23519998788833618 3.296649932861328 0.8848000168800354 3.2266499996185303 C 7.394800186157227 2.9116499423980713 13.939799308776855 2.561649799346924 20.449800491333008 2.246649980545044 C 23.704797744750977 2.0716500282287598 26.924800872802734 1.8966500759124756 30.179798126220703 1.7566499710083008 C 31.299800872802734 1.7216500043869019 32.52479934692383 1.7216500043869019 33.1547966003418 2.806649923324585 C 33.78479766845703 3.8916501998901367 33.85479736328125 5.291650295257568 34.0297966003418 6.5166497230529785 Q 35.49980163574219 16.0716495513916 36.549800872802734 25.73164939880371 Q 36.81230163574219 28.146648406982422 37.074798583984375 30.561649322509766 C 37.109798431396484 30.911649703979492 37.144798278808594 31.296649932861328 37.1797981262207 31.646648406982422 C 37.1797981262207 31.8216495513916 37.24980163574219 32.20664978027344 37.144798278808594 32.381649017333984 C 36.89979934692383 32.69664764404297 35.9197998046875 32.626651763916016 35.56979751586914 32.66164779663086 C 32.38479995727539 32.906646728515625 29.1648006439209 33.11664962768555 25.979799270629883 33.36164855957031 C 24.40479850769043 33.466651916503906 22.829797744750977 33.64165115356445 21.289798736572266 33.71165084838867 C 20.83479881286621 33.71165084838867 20.37980079650879 33.74665069580078 20.20479965209961 33.256649017333984 C 20.04671859741211 32.58013916015625 19.97614097595215 31.886133193969727 19.99479866027832 31.191650390625 C 19.714799880981445 27.971649169921875 19.469799041748047 24.751649856567383 19.189800262451172 21.49664878845215 Q 19.08479881286621 20.28915023803711 18.979799270629883 19.081649780273438 C 18.9722957611084 18.601543426513672 18.58490753173828 18.21415138244629 18.104799270629883 18.206649780273438 C 13.904800415039062 18.206649780273438 9.6697998046875 18.171649932861328 5.469799995422363 18.171649932861328 C 4.594799995422363 18.171649932861328 3.614799976348877 18.276649475097656 2.7048001289367676 18.10165023803711 C 1.9347999095916748 17.96164894104004 1.829800009727478 17.436649322509766 1.829800009727478 16.736650466918945 C 1.7947999238967896 14.671648979187012 1.829800009727478 12.64164924621582 1.864799976348877 10.57664966583252 C 1.864799976348877 8.196650505065918 1.8997999429702759 5.851649761199951 1.8997999429702759 3.4716498851776123 C 1.829800009727478 2.2816288471221924 0.07980000227689743 2.2816288471221924 0.07980000227689743 3.4366252422332764 L 0.07980000227689743 3.436650037765503" stroke-width="1.0" fill="rgb(0, 0, 0)" opacity="1.0"/>
  </g>
</svg>
