<?xml version="1.0" ?>
<svg xmlns="http://www.w3.org/2000/svg" version="1.1" width="600" height="600">
  <defs/>
  <g>
    <path d="M 9.64799976348877 1.0529999732971191 L 25.677000045776367 2.3399999141693115 C 22.819583892822266 10.57089900970459 19.055438995361328 18.45840072631836 14.453999519348145 25.856998443603516 C 8.646992683410645 19.151464462280273 3.9799585342407227 11.538269996643066 0.6389999389648438 3.32099986076355 C 0.37930524349212646 2.8800928592681885 0.34586185216903687 2.3416545391082764 0.5490000247955322 1.8719998598098755 C 0.8694344758987427 1.522199034690857 1.325782060623169 1.3284975290298462 1.7999999523162842 1.340999960899353 L 8.87399959564209 0.44099998474121094 L 9.64799976348877 1.0529999732971191" stroke-width="1.0" fill="rgb(243, 235, 51)" opacity="1.0"/>
    <path d="M 9.64799976348877 1.5029999017715454 L 25.677000045776367 2.7899997234344482 L 25.244998931884766 2.2139999866485596 C 22.378995895385742 10.396441459655762 18.63092613220215 18.242643356323242 14.066999435424805 25.613998413085938 L 14.768999099731445 25.52400016784668 C 10.795022964477539 20.90054702758789 7.350613594055176 15.847137451171875 4.5 10.457999229431152 Q 3.4469997882843018 8.531999588012695 2.5199999809265137 6.542999744415283 C 2.2230000495910645 5.88599967956543 1.9259999990463257 5.220000267028809 1.619999885559082 4.553999900817871 C 1.3140000104904175 3.888000011444092 0.36899998784065247 2.438999891281128 1.3140000104904175 1.8539998531341553 C 2.095395803451538 1.6164404153823853 2.909466505050659 1.5040500164031982 3.7259998321533203 1.5210000276565552 L 6.156000137329102 1.215000033378601 L 7.479000091552734 1.0439999103546143 C 7.863746643066406 0.9601531028747559 8.255403518676758 0.9119492173194885 8.648999214172363 0.8999999761581421 C 8.882999420166016 0.9449999332427979 9.215999603271484 1.3050000667572021 9.42300033569336 1.4579999446868896 C 9.890999794006348 1.7910000085830688 10.322999954223633 1.0169999599456787 9.873000144958496 0.6749999523162842 C 9.625746726989746 0.4462616741657257 9.350564002990723 0.24970300495624542 9.053999900817871 0.08999999612569809 C 8.235698699951172 0.009835849516093731 7.4096550941467285 0.07689476758241653 6.614999771118164 0.2879999876022339 L 3.5279998779296875 0.6749999523162842 C 2.707130193710327 0.7177256941795349 1.8912795782089233 0.8291148543357849 1.0889999866485596 1.0080000162124634 C -0.0989999994635582 1.3769999742507935 -0.17999999225139618 2.4030001163482666 0.1889999955892563 3.437999963760376 C 0.7829999923706055 5.021999835968018 1.5299999713897705 6.560999870300293 2.25 8.09999942779541 C 5.3965163230896 14.623172760009766 9.394379615783691 20.70016860961914 14.138999938964844 26.171998977661133 C 14.316130638122559 26.346328735351562 14.601045608520508 26.344057083129883 14.775375366210938 26.16692543029785 C 14.800559043884277 26.141334533691406 14.822590827941895 26.112823486328125 14.840999603271484 26.081998825073242 C 19.44200897216797 18.639892578125 23.217344284057617 10.718024253845215 26.099998474121094 2.4570000171661377 C 26.164621353149414 2.217020034790039 26.022464752197266 1.9700921773910522 25.78248405456543 1.905470848083496 C 25.745145797729492 1.8954163789749146 25.706666946411133 1.890216588973999 25.667999267578125 1.8899998664855957 L 9.64799976348877 0.6029999852180481 C 9.071999549865723 0.5490000247955322 9.071999549865723 1.4490000009536743 9.64799976348877 1.5029999017715454" stroke-width="1.0" fill="rgb(50, 51, 51)" opacity="1.0"/>
  </g>
</svg>
