<?xml version="1.0" ?>
<svg xmlns="http://www.w3.org/2000/svg" version="1.1" width="600" height="600">
  <defs/>
  <g>
    <path d="M 0.44099998474121094 0.5400000214576721 C 4.578039646148682 0.37188345193862915 8.721162796020508 0.42896780371665955 12.851999282836914 0.7110000252723694 C 13.514493942260742 0.6883049011230469 14.159893989562988 0.9238759279251099 14.652000427246094 1.3679999113082886 C 15.000593185424805 1.968153476715088 15.075926780700684 2.6887240409851074 14.859000205993652 3.3480000495910645 C 13.778885841369629 8.865394592285156 11.299671173095703 14.01286506652832 7.658999919891357 18.296998977661133 C 5.5169997215271 12.383999824523926 2.924999952316284 6.974999904632568 0.7199999690055847 1.0619999170303345 L 0.44099998474121094 0.5400000214576721" stroke-width="1.0" fill="rgb(243, 235, 51)" opacity="1.0"/>
    <path d="M 0.44099998474121094 0.9900000095367432 C 3.32099986076355 0.8819999694824219 6.191999912261963 0.8639999628067017 9.062999725341797 0.9900000095367432 C 10.412999153137207 0.9900000095367432 11.762999534606934 1.0619999170303345 13.104000091552734 1.2059999704360962 C 13.949999809265137 1.2960000038146973 14.571000099182129 1.628999948501587 14.552999496459961 2.5920000076293945 C 14.492761611938477 3.2592124938964844 14.369206428527832 3.9191837310791016 14.184000015258789 4.563000202178955 C 12.998950958251953 9.507441520690918 10.678666114807129 14.107951164245605 7.406999588012695 18.0 L 8.154000282287598 18.197998046875 C 6.974999904632568 15.047999382019043 5.660999774932861 11.960999488830566 4.346999645233154 8.864999771118164 C 3.6630001068115234 7.199999809265137 2.9789998531341553 5.597999572753906 2.3219997882843018 3.9689998626708984 C 1.7999999523162842 2.753999948501587 1.4399999380111694 1.4759999513626099 0.8370000123977661 0.3149999976158142 C 0.5669999718666077 -0.1979999989271164 -0.21599999070167542 0.26099997758865356 0.053999997675418854 0.7739999890327454 C 0.7019999623298645 2.006999969482422 1.125 3.383999824523926 1.6469999551773071 4.679999828338623 C 2.2319998741149902 6.119999885559082 2.8350000381469727 7.551000118255615 3.4469997882843018 8.981999397277832 C 4.769999980926514 12.104999542236328 6.146999835968018 15.227999687194824 7.298999309539795 18.413999557495117 C 7.372987270355225 18.65645980834961 7.629519939422607 18.79303550720215 7.871981143951416 18.71904754638672 C 7.9405059814453125 18.698137283325195 8.003183364868164 18.66147804260254 8.054999351501465 18.61199951171875 C 11.792905807495117 14.242633819580078 14.313520431518555 8.965485572814941 15.362998962402344 3.312000036239624 C 15.5339994430542 2.3309998512268066 15.515999794006348 1.215000033378601 14.552999496459961 0.6119999885559082 C 13.59000015258789 0.008999999612569809 11.852999687194824 0.13500000536441803 10.628999710083008 0.08100000023841858 C 7.199999809265137 0.0 3.8340001106262207 0.0 0.44099998474121094 0.08999999612569809 C -0.13500000536441803 0.11699999123811722 -0.13500000536441803 1.0169999599456787 0.44099998474121094 0.9900000095367432" stroke-width="1.0" fill="rgb(50, 51, 51)" opacity="1.0"/>
  </g>
</svg>
