<?xml version="1.0" ?>
<svg xmlns="http://www.w3.org/2000/svg" version="1.1" width="600" height="600">
  <defs/>
  <g>
    <path d="M 0.8009999394416809 6.884999752044678 C 6.614999771118164 5.336999893188477 12.806999206542969 2.177999973297119 18.630001068115234 0.6389999389648438 C 19.242216110229492 0.3773544728755951 19.934782028198242 0.3773544728755951 20.546998977661133 0.6389999389648438 C 21.140445709228516 1.1513954401016235 21.449010848999023 1.91945481300354 21.375 2.6999998092651367 C 21.67928123474121 7.599437713623047 21.37699317932129 12.51770305633545 20.475000381469727 17.343000411987305 C 13.616999626159668 13.392000198364258 6.461999893188477 12.851999282836914 0.44999998807907104 7.730999946594238 L 0.8009999394416809 6.884999752044678" stroke-width="1.0" fill="rgb(243, 235, 51)" opacity="1.0"/>
    <path d="M 0.8999999761581421 7.316999912261963 C 6.524999618530273 5.796000003814697 11.753999710083008 3.1589999198913574 17.32499885559082 1.4670000076293945 C 17.971969604492188 1.2269424200057983 18.641286849975586 1.0520752668380737 19.322998046875 0.9449999332427979 C 20.628000259399414 0.8370000123977661 20.816999435424805 1.6740000247955322 20.906999588012695 2.690999984741211 C 21.030033111572266 4.322941780090332 21.063081741333008 5.960422515869141 21.006000518798828 7.595999240875244 C 20.931533813476562 10.825033187866211 20.594423294067383 14.042652130126953 19.99799919128418 17.216999053955078 L 20.663999557495117 16.946998596191406 C 14.255999565124512 13.293000221252441 6.542999744415283 12.24899959564209 0.7739999890327454 7.415999412536621 L 0.8999999761581421 7.856999397277832 L 1.2419999837875366 6.956999778747559 C 1.4579999446868896 6.416999816894531 0.5849999785423279 6.182999610900879 0.34199997782707214 6.7139997482299805 L 0.0 7.613999843597412 C -0.05855374038219452 7.788365840911865 -0.0050957477651536465 7.980814456939697 0.13500000536441803 8.09999942779541 C 5.985000133514404 12.995999336242676 13.715999603271484 14.066999435424805 20.222999572753906 17.774999618530273 C 20.45102882385254 17.896692276000977 20.734535217285156 17.810489654541016 20.856225967407227 17.582462310791016 C 20.86945343017578 17.557676315307617 20.880422592163086 17.53175163269043 20.88899803161621 17.505001068115234 C 21.553613662719727 13.96691608428955 21.902982711791992 10.376838684082031 21.933000564575195 6.7769999504089355 C 22.026447296142578 5.130193710327148 21.957111358642578 3.478184223175049 21.725997924804688 1.84499990940094 C 21.62200927734375 0.7700236439704895 20.69931411743164 -0.03832181915640831 19.619998931884766 0.0 C 18.131906509399414 0.18369057774543762 16.677406311035156 0.5776174068450928 15.299999237060547 1.1699999570846558 C 13.607999801635742 1.746000051498413 11.942999839782715 2.3940000534057617 10.277999877929688 3.0420000553131104 C 7.142214775085449 4.352297306060791 3.936311960220337 5.488034248352051 0.6749999523162842 6.443999767303467 C 0.4339276850223541 6.506131649017334 0.2888679504394531 6.751927375793457 0.35099998116493225 6.993000030517578 C 0.41313204169273376 7.234072208404541 0.6589276790618896 7.37913179397583 0.8999999761581421 7.316999912261963" stroke-width="1.0" fill="rgb(50, 51, 51)" opacity="1.0"/>
  </g>
</svg>
