<?xml version="1.0" ?>
<svg xmlns="http://www.w3.org/2000/svg" version="1.1" width="600" height="600">
  <defs/>
  <g>
    <path d="M 5.6519999504089355 3.8519999980926514 C 4.541893005371094 10.599425315856934 2.80332612991333 17.228275299072266 0.45899999141693115 23.652000427246094 C 6.5604634284973145 19.638803482055664 12.17246150970459 14.926898956298828 17.180999755859375 9.612000465393066 L 6.047999858856201 0.44099998474121094 L 5.6519999504089355 3.8519999980926514" stroke-width="1.0" fill="rgb(243, 235, 51)" opacity="1.0"/>
    <path d="M 5.220000267028809 3.7259998321533203 C 4.087770938873291 10.471445083618164 2.3404815196990967 17.099092483520508 0.0 23.525999069213867 C -0.06191852688789368 23.766691207885742 0.08300548791885376 24.012004852294922 0.3236968219280243 24.073923110961914 C 0.43630027770996094 24.102890014648438 0.5557454228401184 24.087148666381836 0.6570000052452087 24.030000686645508 C 6.79130744934082 19.978675842285156 12.441161155700684 15.237750053405762 17.496000289916992 9.899999618530273 C 17.667512893676758 9.725020408630371 17.667512893676758 9.444979667663574 17.496000289916992 9.269999504089355 L 6.36299991607666 0.12600000202655792 C 6.185539245605469 -0.047994211316108704 5.900628566741943 -0.0451841875910759 5.726634502410889 0.13227637112140656 C 5.645686626434326 0.21483691036701202 5.599624156951904 0.3253878653049469 5.597999572753906 0.44099998474121094 L 5.202000141143799 3.8519999980926514 C 5.138999938964844 4.418999671936035 6.039000034332275 4.418999671936035 6.1020002365112305 3.8519999980926514 L 6.497999668121338 0.44099998474121094 L 5.732999801635742 0.7559999823570251 L 16.856998443603516 9.899999618530273 L 16.856998443603516 9.269999504089355 C 11.867366790771484 14.550536155700684 6.2901201248168945 19.243032455444336 0.23399998247623444 23.255998611450195 L 0.8999999761581421 23.759998321533203 C 3.24013614654541 17.3349666595459 4.9785990715026855 10.706510543823242 6.0929999351501465 3.9600000381469727 C 6.182999610900879 3.4019999504089355 5.309999942779541 3.1589999198913574 5.220000267028809 3.7259998321533203" stroke-width="1.0" fill="rgb(50, 51, 51)" opacity="1.0"/>
  </g>
</svg>
