<?xml version="1.0" ?>
<svg xmlns="http://www.w3.org/2000/svg" version="1.1" width="600" height="600">
  <defs/>
  <g>
    <path d="M 25.855810165405273 10.858333587646484 C 26.459535598754883 8.531893730163574 25.96268653869629 6.572579860687256 21.122770309448242 7.227966785430908 C 22.0944766998291 5.929933547973633 22.714670181274414 4.625 22.666536331176758 3.891700029373169 C 22.522668838500977 1.699600100517273 20.300809860229492 2.348633289337158 19.107669830322266 1.420533299446106 C 16.92947006225586 -1.3149999380111694 14.684696197509766 0.03705333545804024 12.993000030517578 4.302333354949951 C 11.620909690856934 -0.4936000108718872 8.84823989868164 -1.1483333110809326 6.51002311706543 2.0940001010894775 C 3.4479265213012695 2.79953670501709 2.002419948577881 5.5292534828186035 5.774106979370117 9.336899757385254 C 3.5442399978637695 9.189566612243652 1.3410066366195679 9.591233253479004 0.636573314666748 10.254233360290527 C -0.9631266593933105 11.759900093078613 0.9512066841125488 13.061165809631348 0.9942399859428406 14.572166442871094 C 0.664139986038208 16.775476455688477 0.9865933060646057 18.817407608032227 5.825639724731445 17.84079933166504 C 4.767539978027344 19.378732681274414 4.113073348999023 20.98106575012207 4.235143184661865 21.796567916870117 C 4.56027364730835 23.969200134277344 6.720673084259033 23.138166427612305 7.986673355102539 23.964134216308594 C 10.589456558227539 26.72810173034668 12.755496978759766 24.57724952697754 13.9146728515625 20.239233016967773 C 14.833606719970703 22.532732009887695 16.447839736938477 24.624465942382812 17.464540481567383 24.95586585998535 C 19.553205490112305 25.636701583862305 19.776073455810547 23.332700729370117 21.081039428710938 22.569765090942383 C 24.66712760925293 21.483909606933594 23.813886642456055 18.669767379760742 20.457073211669922 15.64606761932373 C 22.731605529785156 16.0224666595459 25.07423973083496 15.811667442321777 25.85420799255371 15.19106674194336 C 27.5732364654541 13.82323932647705 25.773405075073242 12.367706298828125 25.855810165405273 10.858333587646484" stroke-width="0.0" fill="rgb(244, 151, 28)" opacity="1.0"/>
    <path d="M 12.467602729797363 15.694806098937988 C 12.082012176513672 15.345599174499512 11.893708229064941 14.82852840423584 11.964436531066895 14.313139915466309 C 10.237540245056152 14.461472511291504 9.881913185119629 11.913052558898926 11.647506713867188 11.690373420715332 C 11.119263648986816 9.973093032836914 13.767605781555176 8.995039939880371 14.19497013092041 10.87593936920166 C 15.72996997833252 9.806940078735352 16.96744728088379 11.897883415222168 15.404143333435059 12.84017276763916 C 16.725833892822266 13.70719051361084 15.755454063415527 15.872543334960938 14.24160385131836 15.040573120117188 C 14.012455940246582 15.751500129699707 12.820743560791016 16.122570037841797 12.467602729797363 15.694806098937988" stroke-width="0.0" fill="rgb(255, 255, 255)" opacity="1.0"/>
    <path d="M 13.088269233703613 12.067606925964355 C 11.476269721984863 12.682839393615723 13.400635719299316 14.910496711730957 14.148743629455566 13.159163475036621 C 14.148703575134277 13.159274101257324 14.42300033569336 11.769573211669922 13.088269233703613 12.067606925964355" stroke-width="0.0" fill="rgb(244, 151, 28)" opacity="1.0"/>
    <path d="M 7.37000036239624 5.541999816894531 C 7.673723220825195 6.001526355743408 8.629363059997559 7.982606887817383 9.2366361618042 7.325143337249756 C 9.418267250061035 6.836503505706787 7.339396953582764 4.017233371734619 7.37000036239624 5.541999816894531" stroke-width="0.0" fill="rgb(242, 182, 150)" opacity="1.0"/>
    <path d="M 9.142073631286621 4.393439769744873 C 9.381583213806152 4.811130046844482 10.360246658325195 7.575500011444092 10.8013334274292 6.3165202140808105 C 10.730940818786621 5.935916900634766 9.247650146484375 3.027400016784668 9.142073631286621 4.393439769744873" stroke-width="0.0" fill="rgb(242, 182, 150)" opacity="1.0"/>
    <path d="M 20.19933319091797 20.03266716003418 C 19.704225540161133 19.401716232299805 19.15629005432129 18.47036361694336 18.349456787109375 18.274045944213867 C 17.361543655395508 18.507200241088867 20.5585994720459 21.671463012695312 20.19933319091797 20.03266716003418" stroke-width="0.0" fill="rgb(242, 182, 150)" opacity="1.0"/>
    <path d="M 18.565536499023438 21.37060546875 C 18.281160354614258 20.981996536254883 17.002225875854492 18.343223571777344 16.703327178955078 19.643274307250977 C 16.81545066833496 20.01371955871582 18.612051010131836 22.739896774291992 18.565536499023438 21.37060546875" stroke-width="0.0" fill="rgb(242, 182, 150)" opacity="1.0"/>
    <path d="M 16.980636596679688 3.8549997806549072 C 16.706443786621094 4.332666873931885 15.36552906036377 6.07636022567749 16.225690841674805 6.323606491088867 C 16.7438907623291 6.266439914703369 18.329187393188477 3.142900228500366 16.980636596679688 3.8549997806549072" stroke-width="0.0" fill="rgb(242, 182, 150)" opacity="1.0"/>
    <path d="M 18.802637100219727 4.922506809234619 C 18.537063598632812 5.324073314666748 16.506593704223633 7.4399800300598145 17.829553604125977 7.268669605255127 C 18.138002395629883 7.034860134124756 20.070659637451172 4.403383255004883 18.802637100219727 4.922506809234619" stroke-width="0.0" fill="rgb(242, 182, 150)" opacity="1.0"/>
    <path d="M 9.794906616210938 21.825471878051758 C 10.136326789855957 21.099720001220703 10.722419738769531 20.191936492919922 10.535463333129883 19.38284683227539 C 9.883463859558105 18.6048641204834 8.492036819458008 22.882387161254883 9.794906616210938 21.825471878051758" stroke-width="0.0" fill="rgb(242, 182, 150)" opacity="1.0"/>
    <path d="M 7.865809917449951 20.96653938293457 C 8.085272789001465 20.53797721862793 9.868639945983887 18.21001625061035 8.572810173034668 18.526966094970703 C 8.292173385620117 18.793516159057617 6.663196563720703 21.623003005981445 7.865809917449951 20.96653938293457" stroke-width="0.0" fill="rgb(242, 182, 150)" opacity="1.0"/>
    <path d="M 22.799636840820312 10.703940391540527 C 22.25096893310547 10.752249717712402 20.053804397583008 10.6497163772583 20.34291648864746 11.496685981750488 C 20.686206817626953 11.889102935791016 24.155141830444336 11.40273666381836 22.799636840820312 10.703940391540527" stroke-width="0.0" fill="rgb(242, 182, 150)" opacity="1.0"/>
    <path d="M 22.966203689575195 12.809073448181152 C 22.48480987548828 12.82089614868164 19.58786964416504 12.365646362304688 20.485136032104492 13.352873802185059 C 20.85331916809082 13.47217082977295 24.117231369018555 13.552206993103027 22.966203689575195 12.809073448181152" stroke-width="0.0" fill="rgb(242, 182, 150)" opacity="1.0"/>
    <path d="M 3.949000120162964 15.088706970214844 C 4.489493370056152 14.979670524597168 6.683593273162842 14.838374137878418 6.302703380584717 14.028510093688965 C 5.918769836425781 13.676456451416016 2.5240166187286377 14.544559478759766 3.949000120162964 15.088706970214844" stroke-width="0.0" fill="rgb(242, 182, 150)" opacity="1.0"/>
    <path d="M 3.550143241882324 13.014999389648438 C 4.028219699859619 12.949666023254395 6.9560866355896 13.081406593322754 5.9556403160095215 12.199546813964844 C 5.57783317565918 12.121562957763672 2.322999954223633 12.404276847839355 3.550143241882324 13.014999389648438" stroke-width="0.0" fill="rgb(242, 182, 150)" opacity="1.0"/>
  </g>
</svg>
