<?xml version="1.0" ?>
<svg xmlns="http://www.w3.org/2000/svg" version="1.1" width="600" height="600">
  <defs/>
  <g>
    <path d="M 14.003273010253906 16.491304397583008 C 12.502226829528809 19.17351722717285 8.38033676147461 18.455034255981445 11.754573822021484 15.020169258117676 C 9.099736213684082 14.020426750183105 9.025826454162598 10.15683650970459 12.757206916809082 12.464969635009766 C 11.887603759765625 10.011942863464355 15.456376075744629 7.5887532234191895 15.465373039245605 12.00670337677002 C 18.407350540161133 9.574703216552734 20.404586791992188 13.83780288696289 15.909339904785156 14.259536743164062 C 18.348243713378906 16.244850158691406 16.31980323791504 19.05924415588379 14.003273010253906 16.491304397583008" stroke-width="0.0" fill="rgb(147, 191, 216)" opacity="1.0"/>
    <path d="M 14.473807334899902 14.59683609008789 C 15.197003364562988 14.164170265197754 14.78710651397705 12.863900184631348 13.936573028564453 13.39483642578125 C 12.946816444396973 14.08022689819336 13.18618392944336 15.705077171325684 14.473807334899902 14.59683609008789" stroke-width="0.0" fill="rgb(255, 255, 255)" opacity="1.0"/>
    <path d="M 6.220906734466553 7.619470119476318 C 4.912623405456543 11.427973747253418 0.6125233173370361 10.659226417541504 3.6020734310150146 6.441436767578125 C -1.6796499490737915 7.009823322296143 -0.9123333096504211 2.416409969329834 4.333240032196045 3.619403123855591 C 2.7481868267059326 -1.3801332712173462 7.534549713134766 -0.9272233843803406 7.260040283203125 3.3042032718658447 C 10.074706077575684 1.7589000463485718 11.864520072937012 4.5773701667785645 8.618173599243164 5.932069778442383 C 11.996899604797363 8.684407234191895 8.50627613067627 11.922550201416016 6.220906734466553 7.619470119476318" stroke-width="0.0" fill="rgb(147, 191, 216)" opacity="1.0"/>
    <path d="M 6.165706634521484 5.930836200714111 C 6.629463195800781 5.538716793060303 6.694443225860596 4.663269996643066 5.932193279266357 4.697343349456787 C 4.941986560821533 4.717633247375488 5.481150150299072 6.703060150146484 6.166906356811523 5.899903774261475 L 6.165706634521484 5.930836200714111" stroke-width="0.0" fill="rgb(255, 255, 255)" opacity="1.0"/>
    <path d="M 19.969039916992188 6.664169788360596 C 20.93239402770996 9.707900047302246 17.65537452697754 10.122366905212402 17.23577308654785 6.615403652191162 C 14.04425048828125 8.24901008605957 12.921576499938965 5.000823497772217 16.43860626220703 4.220769882202148 C 13.98227310180664 2.0756566524505615 15.753363609313965 -0.7326333522796631 18.255640029907227 2.4659032821655273 C 20.92357635498047 -1.303030014038086 21.614280700683594 2.1418533325195312 19.636873245239258 4.17227029800415 C 23.018835067749023 4.263149738311768 23.61906623840332 7.901413440704346 19.969039916992188 6.664169788360596" stroke-width="0.0" fill="rgb(147, 191, 216)" opacity="1.0"/>
    <path d="M 18.394372940063477 5.320000171661377 C 18.758386611938477 5.247581481933594 18.99477195739746 4.893782615661621 18.922353744506836 4.529767990112305 C 18.84993553161621 4.1657538414001465 18.496137619018555 3.929368257522583 18.132123947143555 4.001786708831787 C 17.768108367919922 4.07420539855957 17.531723022460938 4.428004264831543 17.604141235351562 4.792018413543701 C 17.67443084716797 5.145328998565674 18.01080322265625 5.38037633895874 18.36673927307129 5.324900150299072 L 18.394372940063477 5.320000171661377" stroke-width="0.0" fill="rgb(255, 255, 255)" opacity="1.0"/>
  </g>
</svg>
