<?xml version="1.0" ?>
<svg xmlns="http://www.w3.org/2000/svg" version="1.1" width="600" height="600">
  <defs/>
  <g>
    <path d="M 0.03425666689872742 19.017620086669922 C 0.8568200469017029 19.65757942199707 5.7787933349609375 13.179696083068848 6.54452657699585 12.692585945129395 C 9.424756050109863 15.417386054992676 13.789156913757324 16.013521194458008 17.388790130615234 14.347752571105957 C 17.655378341674805 14.22435474395752 17.771455764770508 13.908207893371582 17.64805793762207 13.641619682312012 C 17.524658203125 13.375031471252441 17.208511352539062 13.258954048156738 16.941923141479492 13.382353782653809 C 14.011000633239746 14.686272621154785 10.60965633392334 14.34765625 7.993333339691162 12.491486549377441 C 8.774169921875 12.8418607711792 17.99306297302246 9.719303131103516 14.544209480285645 9.163976669311523 C 12.944876670837402 10.073643684387207 8.871150016784668 11.382976531982422 7.423400402069092 11.360687255859375 C 9.013649940490723 9.566533088684082 10.666556358337402 7.519620418548584 12.446490287780762 5.916019916534424 C 12.665301322937012 5.720183849334717 12.683926582336426 5.3840460777282715 12.488090515136719 5.165234088897705 C 12.488059997558594 5.165200710296631 12.488030433654785 5.165166854858398 12.48799991607666 5.165133476257324 C 11.566559791564941 4.480006694793701 9.254612922668457 7.583376407623291 8.4617338180542 8.23564624786377 C 8.461870193481445 8.235980033874512 6.837833404541016 10.272500038146973 6.825933456420898 10.211699485778809 C 6.321953296661377 7.946699619293213 7.504836559295654 5.143366813659668 8.60222339630127 3.102979898452759 C 7.9489898681640625 -0.49452999234199524 4.887166500091553 9.154536247253418 5.722300052642822 10.042133331298828 C 4.2446160316467285 7.639858245849609 3.966639757156372 4.687469959259033 4.969966411590576 2.0515999794006348 C 5.078287601470947 1.7785581350326538 4.9447550773620605 1.4694023132324219 4.671713352203369 1.3610811233520508 C 4.398906230926514 1.252853274345398 4.089993000030518 1.3860582113265991 3.981433153152466 1.6587333679199219 C 2.6479666233062744 5.011800289154053 3.0858700275421143 8.684200286865234 5.392536640167236 11.432833671569824 C 4.967513561248779 12.321682929992676 -0.480403333902359 18.114519119262695 0.03425666689872742 19.017620086669922" stroke-width="0.0" fill="rgb(178, 206, 91)" opacity="1.0"/>
    <path d="M 19.276193618774414 12.705520629882812 C 20.42716407775879 14.63968276977539 17.60386085510254 16.57576560974121 16.214731216430664 14.804203033447266 C 14.600043296813965 12.566243171691895 17.775043487548828 10.566579818725586 19.276193618774414 12.705520629882812" stroke-width="0.0" fill="rgb(238, 114, 100)" opacity="1.0"/>
    <path d="M 17.156192779541016 8.161333084106445 C 18.382417678833008 9.69792652130127 16.452980041503906 12.04421329498291 14.792719841003418 10.736666679382324 C 12.373497009277344 9.023693084716797 15.275177001953125 5.961333751678467 17.156192779541016 8.161333084106445" stroke-width="0.0" fill="rgb(238, 114, 100)" opacity="1.0"/>
    <path d="M 13.996623039245605 2.999253273010254 C 12.175063133239746 1.822309970855713 10.143253326416016 4.646146774291992 11.721489906311035 6.047976970672607 C 13.678600311279297 7.273839950561523 16.291107177734375 4.515769958496094 13.996623039245605 2.999253273010254" stroke-width="0.0" fill="rgb(238, 114, 100)" opacity="1.0"/>
    <path d="M 9.782859802246094 1.3901866674423218 C 7.901093006134033 0.08336666226387024 6.175666809082031 3.17439341545105 8.356043815612793 4.020410060882568 C 10.40881061553955 5.041419982910156 11.444820404052734 2.6218998432159424 9.782859802246094 1.3901866674423218" stroke-width="0.0" fill="rgb(238, 114, 100)" opacity="1.0"/>
    <path d="M 3.257723569869995 1.0388532876968384 C 2.4773099422454834 2.3199965953826904 4.243593215942383 3.281186819076538 5.331789970397949 3.355496644973755 C 8.831927299499512 2.3480000495910645 5.060359954833984 -1.9457799196243286 3.257723569869995 1.0388532876968384" stroke-width="0.0" fill="rgb(238, 114, 100)" opacity="1.0"/>
  </g>
</svg>
