<?xml version="1.0" ?>
<svg xmlns="http://www.w3.org/2000/svg" version="1.1" width="600" height="600">
  <defs/>
  <g>
    <path d="M 0.5567232966423035 13.367000579833984 C 8.074723243713379 14.148833274841309 15.745113372802734 9.967886924743652 19.188905715942383 3.219449996948242 C 19.27354621887207 3.068364381790161 19.464637756347656 3.014498710632324 19.615724563598633 3.099137544631958 C 19.75876808166504 3.179271697998047 19.815927505493164 3.3560779094696045 19.746862411499023 3.5047833919525146 C 16.286283493041992 10.598116874694824 8.35004997253418 15.083450317382812 0.4685100018978119 14.408059120178223 C 0.18147636950016022 14.378422737121582 -0.027185186743736267 14.121711730957031 0.0024513653479516506 13.834677696228027 C 0.031321536749601364 13.555066108703613 0.2762410342693329 13.348411560058594 0.5567232966423035 13.367000579833984" stroke-width="0.0" fill="rgb(114, 159, 58)" opacity="1.0"/>
    <path d="M 17.479089736938477 5.796936511993408 C 17.479089736938477 5.796936511993408 16.681690216064453 2.745736837387085 20.188756942749023 0.3911699950695038 C 23.69585609436035 -1.963396668434143 20.038490295410156 7.128570079803467 17.725557327270508 5.9818034172058105 L 17.479089736938477 5.796936511993408" stroke-width="0.0" fill="rgb(114, 159, 58)" opacity="1.0"/>
    <path d="M 13.916259765625 9.590169906616211 C 11.6624174118042 9.19616985321045 11.081787109375 2.2590067386627197 14.390593528747559 1.015720009803772 C 14.868355751037598 1.0145033597946167 16.890056610107422 7.163903713226318 13.916259765625 9.590169906616211" stroke-width="0.0" fill="rgb(114, 159, 58)" opacity="1.0"/>
    <path d="M 14.253490447998047 9.504870414733887 C 15.56845760345459 8.31021785736084 17.339237213134766 7.748800277709961 19.102323532104492 7.967569828033447 C 25.180891036987305 8.593466758728027 21.419240951538086 11.309903144836426 17.450439453125 11.506829261779785 C 15.062789916992188 11.380904197692871 13.652156829833984 10.673436164855957 14.253490447998047 9.504870414733887" stroke-width="0.0" fill="rgb(114, 159, 58)" opacity="1.0"/>
    <path d="M 6.1700568199157715 13.050969123840332 C 8.351553916931152 11.965773582458496 16.39701271057129 11.32330322265625 18.065664291381836 15.467890739440918 C 17.323726654052734 18.068893432617188 5.5652031898498535 16.846933364868164 6.1700568199157715 13.050969123840332" stroke-width="0.0" fill="rgb(114, 159, 58)" opacity="1.0"/>
    <path d="M 6.348789691925049 13.713536262512207 C 5.605269908905029 11.409919738769531 6.211973190307617 3.3253333568573 10.553629875183105 2.326430082321167 C 13.010852813720703 3.4568233489990234 10.007906913757324 14.890880584716797 6.348789691925049 13.713536262512207" stroke-width="0.0" fill="rgb(114, 159, 58)" opacity="1.0"/>
  </g>
</svg>
