<?xml version="1.0" ?>
<svg xmlns="http://www.w3.org/2000/svg" version="1.1" width="600" height="600">
  <defs/>
  <g>
    <path d="M 8.453553199768066 6.293380260467529 C 10.203163146972656 14.671000480651855 14.025300025939941 22.308334350585938 18.836000442504883 29.323087692260742 C 18.921968460083008 29.484899520874023 18.86048698425293 29.685766220092773 18.69867515563965 29.7717342376709 C 18.57331085205078 29.838340759277344 18.419458389282227 29.81780242919922 18.315954208374023 29.72064781188965 C 12.621753692626953 23.65204620361328 9.0575532913208 14.577013969421387 7.961153030395508 6.4234795570373535 C 7.918886661529541 6.109246730804443 8.373953819274902 5.964946746826172 8.453553199768066 6.293380260467529" stroke-width="0.0" fill="rgb(144, 211, 199)" opacity="1.0"/>
    <path d="M 11.695353507995605 18.327913284301758 C 10.91321086883545 20.4588565826416 5.3629302978515625 18.485599517822266 4.952020168304443 16.540170669555664 C 4.981959819793701 14.480766296386719 11.801193237304688 16.91345977783203 11.695353507995605 18.327913284301758" stroke-width="0.0" fill="rgb(144, 211, 199)" opacity="1.0"/>
    <path d="M 12.462786674499512 18.61717987060547 C 10.426539421081543 17.614042282104492 12.97560977935791 12.303672790527344 14.95363998413086 12.100743293762207 C 16.998332977294922 12.348332405090332 13.85810375213623 18.872045516967773 12.462786674499512 18.61717987060547" stroke-width="0.0" fill="rgb(144, 211, 199)" opacity="1.0"/>
    <path d="M 14.251620292663574 23.74298095703125 C 13.268123626708984 25.788801193237305 7.933443069458008 23.29102325439453 7.711483478546143 21.315059661865234 C 7.939273357391357 19.26799964904785 14.493020057678223 22.345308303833008 14.251620292663574 23.74298095703125" stroke-width="0.0" fill="rgb(144, 211, 199)" opacity="1.0"/>
    <path d="M 14.987686157226562 24.104713439941406 C 13.063942909240723 22.900331497192383 16.08854103088379 17.886117935180664 18.093639373779297 17.857999801635742 C 20.09202766418457 18.33440589904785 16.380884170532227 24.457435607910156 14.987686157226562 24.104713439941406" stroke-width="0.0" fill="rgb(144, 211, 199)" opacity="1.0"/>
    <path d="M 12.779666900634766 10.829546928405762 C 10.322667121887207 13.191813468933105 6.021999835968018 14.284979820251465 3.239766836166382 12.452279090881348 C 3.239766836166382 12.452279090881348 -1.4480633735656738 9.45967960357666 0.45427000522613525 6.000279903411865 C 1.7590667009353638 3.627413511276245 3.629533529281616 4.985113620758057 3.629533529281616 4.985113620758057 C 1.5991567373275757 -0.20107333362102509 8.860796928405762 -1.9270933866500854 10.492053031921387 2.645313262939453 C 14.79149341583252 -2.2814667224884033 17.738506317138672 6.741262912750244 12.779666900634766 10.829546928405762" stroke-width="0.0" fill="rgb(244, 151, 28)" opacity="1.0"/>
    <path d="M 9.908387184143066 13.033313751220703 C 9.908387184143066 13.033313751220703 14.62755298614502 11.985946655273438 14.427020072937012 8.703046798706055 C 14.226486206054688 5.420146942138672 8.71678638458252 9.379246711730957 9.908387184143066 13.033313751220703" stroke-width="0.0" fill="rgb(144, 211, 199)" opacity="1.0"/>
    <path d="M 10.261353492736816 12.792313575744629 C 10.261353492736816 12.792313575744629 6.3980536460876465 15.69794750213623 4.033520221710205 13.411746978759766 C 1.6690200567245483 11.1255464553833 8.258923530578613 9.511746406555176 10.261353492736816 12.792313575744629" stroke-width="0.0" fill="rgb(144, 211, 199)" opacity="1.0"/>
  </g>
</svg>
