<?xml version="1.0" ?>
<svg xmlns="http://www.w3.org/2000/svg" version="1.1" width="600" height="600">
  <defs/>
  <g>
    <path d="M 10.213666915893555 19.714242935180664 C 12.0553560256958 20.48008918762207 14.004366874694824 15.519267082214355 12.9370698928833 14.202750205993652 C 11.553112983703613 13.028507232666016 9.213606834411621 18.964487075805664 10.213666915893555 19.714242935180664" stroke-width="0.0" fill="rgb(144, 211, 199)" opacity="1.0"/>
    <path d="M 15.346383094787598 13.780333518981934 C 16.545459747314453 15.381000518798828 20.737070083618164 12.255579948425293 20.56412696838379 10.529389381408691 C 20.006040573120117 8.802332878112793 14.891152381896973 12.6163330078125 15.346383094787598 13.780333518981934" stroke-width="0.0" fill="rgb(144, 211, 199)" opacity="1.0"/>
    <path d="M 14.011249542236328 20.295743942260742 C 14.666126251220703 21.333707809448242 17.450544357299805 19.25703239440918 17.255102157592773 18.27456283569336 C 16.9600772857666 17.171709060668945 13.681889533996582 19.62225914001465 14.011249542236328 20.295743942260742" stroke-width="0.0" fill="rgb(144, 211, 199)" opacity="1.0"/>
    <path d="M 7.552999973297119 26.150667190551758 C 6.438869953155518 26.66545295715332 8.136666297912598 29.695627212524414 9.136186599731445 29.629379272460938 C 10.268016815185547 29.48000144958496 8.263543128967285 25.91148567199707 7.552999973297119 26.150667190551758" stroke-width="0.0" fill="rgb(144, 211, 199)" opacity="1.0"/>
    <path d="M 10.519916534423828 23.303110122680664 C 10.673736572265625 21.314483642578125 5.3525567054748535 21.00846290588379 4.434203624725342 22.432878494262695 C 3.749699831008911 24.113792419433594 10.11910343170166 24.486974716186523 10.519916534423828 23.303110122680664" stroke-width="0.0" fill="rgb(144, 211, 199)" opacity="1.0"/>
    <path d="M 6.7733330726623535 15.373744010925293 C 9.716233253479004 19.010210037231445 10.942436218261719 23.042709350585938 10.232132911682129 27.72614288330078 C 10.198800086975098 27.945777893066406 10.53130054473877 28.003076553344727 10.605437278747559 27.80517578125 C 12.075800895690918 23.879175186157227 10.873832702636719 17.35367774963379 7.219633102416992 14.876309394836426 C 7.062621593475342 14.774968147277832 6.853184223175049 14.820098876953125 6.751842975616455 14.977110862731934 C 6.672487258911133 15.100059509277344 6.681158065795898 15.260088920593262 6.7733330726623535 15.373744010925293" stroke-width="0.0" fill="rgb(144, 211, 199)" opacity="1.0"/>
    <path d="M 6.09048318862915 16.42387580871582 C 8.224453926086426 15.77561092376709 9.871649742126465 13.20397663116455 9.460453033447266 11.063076972961426 C 9.460453033447266 11.063076972961426 8.82528305053711 7.479609966278076 6.257483005523682 7.763343334197998 C 4.496283054351807 7.95784330368042 4.848649978637695 9.428743362426758 4.848649978637695 9.428743362426758 C 2.2917466163635254 7.202376842498779 -1.4164834022521973 10.225533485412598 1.715649962425232 12.991410255432129 C 1.715649962425232 12.991410255432129 0.05275000259280205 12.521676063537598 0.00014999999257270247 14.61654281616211 C -0.025283334776759148 15.629509925842285 3.172950029373169 17.31027603149414 6.09048318862915 16.42387580871582" stroke-width="0.0" fill="rgb(244, 151, 28)" opacity="1.0"/>
    <path d="M 7.911283493041992 15.694109916687012 C 7.911283493041992 15.694109916687012 9.866950035095215 13.544143676757812 9.672249794006348 12.526776313781738 C 9.477517127990723 11.50940990447998 7.851883411407471 15.314276695251465 7.851883411407471 15.314276695251465 C 7.851883411407471 15.314276695251465 8.363049507141113 12.373143196105957 7.909583568572998 11.941109657287598 C 7.456120014190674 11.509109497070312 7.389516830444336 15.142476081848145 7.389516830444336 15.142476081848145 C 7.389516830444336 15.142476081848145 5.772583484649658 12.626910209655762 5.154283046722412 12.629310607910156 C 4.536016941070557 12.631775856018066 6.774083614349365 15.35221004486084 6.774083614349365 15.35221004486084 C 6.774083614349365 15.35221004486084 3.491983413696289 14.785176277160645 3.6108500957489014 15.207977294921875 C 3.7297165393829346 15.630776405334473 7.164749622344971 15.816243171691895 7.164749622344971 15.816243171691895 C 2.9450433254241943 16.57029914855957 3.6512632369995117 18.387056350708008 7.911283493041992 15.694109916687012" stroke-width="0.0" fill="rgb(144, 211, 199)" opacity="1.0"/>
    <path d="M 14.529616355895996 8.112277030944824 C 14.952083587646484 18.75294303894043 9.984786033630371 28.071943283081055 5.018120288848877 37.17637634277344 C 4.934397220611572 37.3077507019043 4.97302770614624 37.482120513916016 5.104403018951416 37.56584548950195 C 5.229194164276123 37.6453742980957 5.394227981567383 37.61494445800781 5.482452869415283 37.49614334106445 C 10.677143096923828 30.430809020996094 17.609970092773438 16.75187873840332 15.465540885925293 7.932163238525391 C 15.275150299072266 7.508829593658447 14.509787559509277 7.61260986328125 14.529616355895996 8.112277030944824" stroke-width="0.0" fill="rgb(144, 211, 199)" opacity="1.0"/>
    <path d="M 13.523682594299316 8.648543357849121 C 15.64245319366455 9.345043182373047 18.468786239624023 8.188076972961426 19.363283157348633 6.199976444244385 C 19.363283157348633 6.199976444244385 20.90388298034668 2.902876615524292 18.639850616455078 1.6586766242980957 C 17.086950302124023 0.8052433133125305 16.52961540222168 2.211210012435913 16.52961540222168 2.211210012435913 C 15.76961612701416 -1.0783766508102417 10.900689125061035 -0.689740002155304 11.917786598205566 3.324810028076172 C 11.917786598205566 3.324810028076172 10.827383995056152 1.984343409538269 9.579916954040527 3.6681432723999023 C 8.976683616638184 4.482276439666748 10.627049446105957 7.696310043334961 13.523682594299316 8.648543357849121" stroke-width="0.0" fill="rgb(244, 151, 28)" opacity="1.0"/>
    <path d="M 15.433049201965332 9.098376274108887 C 15.433049201965332 9.098376274108887 18.269384384155273 8.463743209838867 18.694950103759766 7.519376754760742 C 19.12055015563965 6.575010299682617 15.602916717529297 8.753443717956543 15.602916717529297 8.753443717956543 C 15.602916717529297 8.753443717956543 17.712120056152344 6.640909671783447 17.58951759338379 6.026743412017822 C 17.46685028076172 5.412477016448975 15.323317527770996 8.346976280212402 15.323317527770996 8.346976280212402 C 15.323317527770996 8.346976280212402 15.446749687194824 5.3591766357421875 14.9395170211792 5.005676746368408 C 14.432250022888184 4.6521100997924805 14.69921588897705 8.164810180664062 14.69921588897705 8.164810180664062 C 14.69921588897705 8.164810180664062 12.339882850646973 5.813743591308594 12.194049835205078 6.228043079376221 C 12.04818344116211 6.642242908477783 14.752082824707031 8.769043922424316 14.752082824707031 8.769043922424316 C 10.90779972076416 6.967893600463867 10.402806282043457 8.856736183166504 15.433049201965332 9.098376274108887" stroke-width="0.0" fill="rgb(144, 211, 199)" opacity="1.0"/>
  </g>
</svg>
