<?xml version="1.0" ?>
<svg xmlns="http://www.w3.org/2000/svg" version="1.1" width="600" height="600">
  <defs/>
  <g>
    <path d="M 8.000609397888184 9.327133178710938 C 7.400089740753174 8.702199935913086 9.759363174438477 9.009106636047363 10.115743637084961 8.89246654510498 Q 9.596142768859863 8.296016693115234 9.07327651977539 7.702066421508789 C 7.73730993270874 8.045912742614746 6.805862903594971 7.441319942474365 8.807576179504395 7.399566650390625 C 8.215332984924316 6.688506603240967 3.0243332386016846 1.2329999208450317 6.2230000495910645 4.0543999671936035 C 5.350666522979736 0.19042332470417023 6.8986334800720215 2.0183398723602295 6.59226655960083 4.401533603668213 Q 7.40161657333374 5.169033527374268 8.203100204467773 5.96826696395874 C 7.269686222076416 1.508243441581726 8.625657081604004 3.3560266494750977 8.591500282287598 6.356466770172119 C 9.545166969299316 7.3202996253967285 10.479300498962402 8.316100120544434 11.375800132751465 9.338533401489258 C 11.107646942138672 4.955123424530029 12.32860279083252 6.687563419342041 11.625033378601074 9.624466896057129 C 12.689444541931152 10.849591255187988 13.690346717834473 12.1284818649292 14.623799324035645 13.456100463867188 C 16.995912551879883 9.693490028381348 6.819666385650635 -0.8757700324058533 3.202430009841919 0.05815666913986206 C 1.0602933168411255 0.48899999260902405 2.4546666145324707 5.751863479614258 5.565273284912109 9.376216888427734 C 9.244503021240234 13.533455848693848 12.596293449401855 13.837089538574219 14.291606903076172 13.655266761779785 C 12.983107566833496 12.190666198730469 11.697673797607422 10.711100578308105 10.411772727966309 9.232933044433594 C 9.62197208404541 9.421895027160645 8.802746772766113 9.453900337219238 8.000609397888184 9.327133178710938" stroke-width="0.0" fill="rgb(178, 206, 91)" opacity="1.0"/>
    <path d="M 7.2687764167785645 15.340533256530762 C 6.603609561920166 15.110199928283691 8.419903755187988 14.456612586975098 8.637876510620117 14.237133026123047 C 8.238810539245605 14.07846736907959 4.355010032653809 12.578099250793457 2.9404098987579346 12.093499183654785 C 2.8881075382232666 12.075359344482422 2.860414505004883 12.018253326416016 2.8785552978515625 11.965950965881348 C 2.895806312561035 11.916214942932129 2.9485909938812256 11.888298034667969 2.9994099140167236 11.902033805847168 C 3.3364098072052 11.99393367767334 5.578277111053467 12.647366523742676 6.162843227386475 12.833466529846191 C 3.8256633281707764 9.95539665222168 5.49359655380249 10.783400535583496 6.588743209838867 12.969666481018066 C 7.638576507568359 13.311766624450684 8.686142921447754 13.68429946899414 9.716376304626465 14.090133666992188 C 7.904843807220459 11.054930686950684 9.416886329650879 11.808723449707031 10.003443717956543 14.20419979095459 C 11.23083782196045 14.694161415100098 12.432303428649902 15.246731758117676 13.603110313415527 15.859733581542969 C 13.917243957519531 12.251334190368652 2.6091465950012207 8.394906044006348 0.33887001872062683 10.419806480407715 C -1.0133765935897827 11.622806549072266 1.8782033920288086 14.760527610778809 5.524049758911133 16.284236907958984 C 9.73781681060791 17.921682357788086 12.277446746826172 16.891603469848633 13.436909675598145 16.12779998779297 C 11.943509101867676 15.555500030517578 10.461210250854492 14.963733673095703 8.979109764099121 14.373199462890625 C 8.477824211120605 14.80450439453125 7.896717548370361 15.133167266845703 7.2687764167785645 15.340533256530762" stroke-width="0.0" fill="rgb(178, 206, 91)" opacity="1.0"/>
    <path d="M 15.499476432800293 14.313965797424316 C 20.185144424438477 18.793132781982422 13.058653831481934 25.336633682250977 8.289763450622559 21.92463493347168 C 3.377263307571411 17.803333282470703 9.330253601074219 11.130036354064941 14.590144157409668 13.237700462341309 L 15.499476432800293 14.313965797424316" stroke-width="0.0" fill="rgb(255, 255, 255)" opacity="1.0"/>
    <path d="M 19.31194305419922 16.064966201782227 C 14.473069190979004 20.378253936767578 8.519253730773926 12.75216007232666 12.300960540771484 8.27083969116211 C 16.801172256469727 3.703000068664551 22.978063583374023 10.169496536254883 20.45737648010254 15.244400024414062 L 19.31194305419922 16.064966201782227" stroke-width="0.0" fill="rgb(255, 255, 255)" opacity="1.0"/>
    <path d="M 18.81187629699707 18.9865665435791 C 22.898035049438477 21.873807907104492 19.227617263793945 30.762231826782227 14.133210182189941 28.181673049926758 C 9.916569709777832 25.436540603637695 12.69102954864502 17.095149993896484 17.915422439575195 18.0628662109375 L 18.81187629699707 18.9865665435791" stroke-width="0.0" fill="rgb(255, 255, 255)" opacity="1.0"/>
    <path d="M 22.13381004333496 24.71336555480957 C 27.421171188354492 26.01999855041504 30.49003028869629 19.820262908935547 25.876020431518555 16.702842712402344 C 23.05982780456543 14.51987361907959 14.8555269241333 16.305870056152344 16.40998649597168 20.801843643188477 C 18.024503707885742 22.39488983154297 19.926733016967773 24.015695571899414 22.13381004333496 24.71336555480957" stroke-width="0.0" fill="rgb(255, 255, 255)" opacity="1.0"/>
    <path d="M 27.609575271606445 14.481966972351074 C 28.36677360534668 12.099133491516113 26.572378158569336 10.398033142089844 25.968042373657227 10.085100173950195 C 22.415971755981445 8.299333572387695 18.470800399780273 11.071113586425781 16.970998764038086 14.352413177490234 C 16.10517692565918 16.052967071533203 16.200876235961914 19.56126594543457 18.991376876831055 18.781700134277344 C 19.941143035888672 18.516399383544922 25.66370964050293 20.605133056640625 27.609575271606445 14.481966972351074" stroke-width="0.0" fill="rgb(255, 255, 255)" opacity="1.0"/>
    <path d="M 15.646443367004395 17.354633331298828 C 15.670443534851074 14.733246803283691 20.04315948486328 15.044300079345703 19.726573944091797 17.6375675201416 C 19.952070236206055 19.424306869506836 15.6775541305542 21.44133186340332 15.646443367004395 17.354633331298828" stroke-width="0.0" fill="rgb(255, 230, 0)" opacity="1.0"/>
  </g>
</svg>
