<?xml version="1.0" ?>
<svg xmlns="http://www.w3.org/2000/svg" version="1.1" width="600" height="600">
  <defs/>
  <g>
    <path d="M 8.270979881286621 15.730297088623047 C 8.272046089172363 17.270097732543945 6.8287129402160645 18.079030990600586 3.449613332748413 19.15936279296875 C 0.6257133483886719 20.062196731567383 0.3889133036136627 16.926729202270508 2.760080099105835 17.032962799072266 C -1.2599667310714722 17.06912612915039 -0.6862533092498779 13.640963554382324 3.170483350753784 14.63772964477539 C 3.170483350753784 14.63772964477539 1.049446702003479 13.978630065917969 1.168946623802185 13.189995765686035 C 1.5728799104690552 10.52400016784668 8.26984691619873 14.153862953186035 8.270979881286621 15.730297088623047" stroke-width="0.0" fill="rgb(147, 191, 216)" opacity="1.0"/>
    <path d="M 17.850175857543945 20.099332809448242 C 16.284706115722656 18.38857078552246 11.80461597442627 22.353666305541992 12.146559715270996 24.373741149902344 C 12.99425983428955 26.29387664794922 18.461835861206055 21.43416404724121 17.850175857543945 20.099332809448242" stroke-width="0.0" fill="rgb(144, 211, 199)" opacity="1.0"/>
    <path d="M 8.278817176818848 16.66802978515625 C 13.67254638671875 17.237829208374023 17.983243942260742 19.53946304321289 21.239442825317383 23.962064743041992 C 21.392175674438477 24.169496536254883 21.711776733398438 23.94392967224121 21.61034393310547 23.720895767211914 C 19.598209381103516 19.296430587768555 13.264046669006348 14.930663108825684 8.237080574035645 15.894363403320312 C 8.025273323059082 15.939919471740723 7.890502452850342 16.1485538482666 7.936059474945068 16.360361099243164 C 7.971741199493408 16.526256561279297 8.110045433044434 16.650402069091797 8.278817176818848 16.66802978515625" stroke-width="0.0" fill="rgb(144, 211, 199)" opacity="1.0"/>
    <path d="M 9.717280387878418 10.793963432312012 C 9.26391315460205 12.604256629943848 4.451136589050293 11.297630310058594 4.058656692504883 9.761186599731445 C 3.9113333225250244 8.062867164611816 9.754620552062988 9.642840385437012 9.717280387878418 10.793963432312012" stroke-width="0.0" fill="rgb(144, 211, 199)" opacity="1.0"/>
    <path d="M 14.82141399383545 16.646928787231445 C 12.504715919494629 16.7296199798584 12.274640083312988 10.672379493713379 13.95914363861084 9.571709632873535 C 15.931729316711426 8.854582786560059 16.2082462310791 16.16456413269043 14.82141399383545 16.646928787231445" stroke-width="0.0" fill="rgb(144, 211, 199)" opacity="1.0"/>
    <path d="M 9.016280174255371 7.072363376617432 C 10.275946617126465 11.960597038269043 13.012879371643066 15.897796630859375 17.595613479614258 18.916196823120117 C 17.68695831298828 18.96520233154297 17.721281051635742 19.078977584838867 17.67227554321289 19.170324325561523 C 17.62354850769043 19.26114845275879 17.51070213317871 19.295686721801758 17.41948699951172 19.247697830200195 C 13.0023832321167 17.354562759399414 8.058819770812988 11.552996635437012 8.285616874694824 7.021830081939697 C 8.305486679077148 6.624696731567383 8.9135160446167 6.673563480377197 9.016280174255371 7.072363376617432" stroke-width="0.0" fill="rgb(144, 211, 199)" opacity="1.0"/>
    <path d="M 8.706279754638672 16.35629653930664 C 8.706279754638672 16.35629653930664 8.363746643066406 17.674962997436523 7.378746509552002 17.526395797729492 C 6.009903430938721 16.982561111450195 8.365543365478516 11.996077537536621 8.706279754638672 16.35629653930664" stroke-width="0.0" fill="rgb(144, 211, 199)" opacity="1.0"/>
    <path d="M 9.136746406555176 7.890596389770508 C 7.684046268463135 8.401163101196289 6.443113327026367 7.306829929351807 4.305413246154785 4.4755635261535645 C 2.5190134048461914 2.109529972076416 5.3994832038879395 0.8485299944877625 6.083846569061279 3.121263265609741 C 4.719456672668457 -0.6604533195495605 8.144347190856934 -1.2532633543014526 8.479947090148926 2.7159299850463867 C 8.479947090148926 2.7159299850463867 8.400046348571777 0.4962633550167084 9.183816909790039 0.3480633497238159 C 11.833279609680176 -0.15297000110149384 10.62399959564209 7.367896556854248 9.136746406555176 7.890596389770508" stroke-width="0.0" fill="rgb(147, 191, 216)" opacity="1.0"/>
    <path d="M 8.690079689025879 8.508530616760254 C 8.690079689025879 8.508530616760254 7.332380294799805 8.621663093566895 7.146613597869873 7.642963409423828 C 7.22866678237915 6.161190032958984 12.682843208312988 6.755350112915039 8.690079689025879 8.508530616760254" stroke-width="0.0" fill="rgb(144, 211, 199)" opacity="1.0"/>
  </g>
</svg>
