<?xml version="1.0" ?>
<svg xmlns="http://www.w3.org/2000/svg" version="1.1" width="600" height="600">
  <defs/>
  <g>
    <path d="M 14.483280181884766 4.853753566741943 C 15.028053283691406 4.353229999542236 14.724536895751953 6.360086441040039 14.818180084228516 6.669252872467041 C 15.164080619812012 6.3800201416015625 18.489879608154297 3.5431201457977295 19.644079208374023 2.4789199829101562 C 19.68695640563965 2.439671516418457 19.75353240966797 2.442612886428833 19.79277992248535 2.4854896068573 C 19.830121994018555 2.5262813568115234 19.82952308654785 2.5890133380889893 19.791414260864258 2.62908673286438 C 19.538179397583008 2.8943865299224854 17.81477928161621 4.638120174407959 17.350879669189453 5.084953308105469 C 21.178619384765625 4.364383220672607 19.576213836669922 5.4914398193359375 17.012313842773438 5.410219669342041 C 16.171945571899414 6.20875358581543 15.304587364196777 6.989986419677734 14.415112495422363 7.738620281219482 C 18.1229190826416 7.582156658172607 16.671541213989258 8.60181999206543 14.166380882263184 7.946720123291016 C 13.100749015808105 8.835365295410156 11.990260124206543 9.668791770935059 10.839282989501953 10.443719863891602 C 14.014423370361328 12.536529541015625 23.225000381469727 4.020813465118408 22.489334106445312 0.912726640701294 C 22.15813446044922 -0.9258399605751038 17.635332107543945 0.17499999701976776 14.483450889587402 2.771193265914917 C 10.866242408752441 5.844192981719971 10.548626899719238 8.704060554504395 10.674782752990723 10.156319618225098 C 11.94931697845459 9.063186645507812 13.236279487609863 7.989986419677734 14.522046089172363 6.91638708114624 C 14.374201774597168 6.238011837005615 14.361030578613281 5.537204742431641 14.483280181884766 4.853753566741943" stroke-width="0.0" fill="rgb(178, 206, 91)" opacity="1.0"/>
    <path d="M 16.554546356201172 11.474720001220703 C 17.273630142211914 11.648693084716797 15.43747329711914 12.51357364654541 15.232712745666504 12.7634859085083 C 15.665513038635254 12.889853477478027 19.87351417541504 14.073753356933594 21.40007972717285 14.440287590026855 C 21.456544876098633 14.454063415527344 21.491151809692383 14.511006355285645 21.47737693786621 14.567473411560059 C 21.464271545410156 14.621184349060059 21.411840438842773 14.655598640441895 21.357345581054688 14.646252632141113 C 20.996013641357422 14.583553314208984 18.58807945251465 14.122420310974121 17.9586124420166 13.985753059387207 C 20.687423706054688 16.763994216918945 18.860246658325195 16.061460494995117 17.49994659423828 13.885519981384277 C 16.3687801361084 13.631819725036621 15.236980438232422 13.34611988067627 14.119979858398438 13.023853302001953 C 16.335195541381836 16.054733276367188 14.65725326538086 15.3714599609375 13.808612823486328 12.933053016662598 C 12.477208137512207 12.542396545410156 11.166709899902344 12.083727836608887 9.882279396057129 11.558853149414062 C 9.91100025177002 15.36162281036377 22.112333297729492 18.27341651916504 24.284948348999023 15.932263374328613 C 25.57927894592285 14.541023254394531 22.246397018432617 11.547466278076172 18.284820556640625 10.31564998626709 C 13.718413352966309 9.021103858947754 11.165722846984863 10.349076271057129 10.029486656188965 11.262219429016113 C 11.647052764892578 11.71261978149414 13.254982948303223 12.184453010559082 14.862549781799316 12.65505313873291 C 15.343823432922363 12.154617309570312 15.91870403289795 11.753582000732422 16.554546356201172 11.474720001220703" stroke-width="0.0" fill="rgb(178, 206, 91)" opacity="1.0"/>
    <path d="M 6.454183578491211 8.273286819458008 C 2.016350030899048 8.784819602966309 -1.3908500671386719 13.858019828796387 0.5643166899681091 17.87468719482422 C 2.519350051879883 21.891386032104492 8.938183784484863 22.629987716674805 11.7545166015625 19.162321090698242 C 14.915139198303223 15.171000480651855 11.935399055480957 8.005763053894043 6.454183578491211 8.273286819458008" stroke-width="0.0" fill="rgb(238, 114, 100)" opacity="1.0"/>
    <path d="M 7.5722832679748535 11.645720481872559 C 9.553950309753418 11.901129722595215 10.02499008178711 13.400859832763672 7.417116641998291 12.904220581054688 C 8.171540260314941 15.417750358581543 6.638559818267822 14.273179054260254 6.266049861907959 12.931120872497559 C 5.141923427581787 15.008807182312012 4.141520023345947 13.504966735839844 5.690016269683838 12.22858715057373 C 4.296766757965088 11.770866394042969 4.595273494720459 9.301712989807129 6.309587001800537 11.038986206054688 C 6.988999843597412 9.279196739196777 9.367286682128906 9.845453262329102 7.5722832679748535 11.645720481872559" stroke-width="0.0" fill="rgb(244, 151, 28)" opacity="1.0"/>
  </g>
</svg>
