<?xml version="1.0" ?>
<svg xmlns="http://www.w3.org/2000/svg" version="1.1" width="600" height="600">
  <defs/>
  <g>
    <path d="M 17.75075340270996 19.710519790649414 C 14.406768798828125 13.340587615966797 9.556000709533691 7.884893894195557 3.621000051498413 3.8186867237091064 C 3.430499792098999 3.675006628036499 3.3925445079803467 3.404099702835083 3.536224603652954 3.213599920272827 C 3.6730051040649414 3.032247543334961 3.9268581867218018 2.9877851009368896 4.117133617401123 3.1118533611297607 C 10.17452621459961 7.26928186416626 15.12425708770752 12.843914985656738 18.53566551208496 19.350719451904297 C 18.794401168823242 19.842920303344727 18.008699417114258 20.20125389099121 17.750770568847656 19.710519790649414 L 17.75075340270996 19.710519790649414" stroke-width="0.0" fill="rgb(144, 211, 199)" opacity="1.0"/>
    <path d="M 9.307549476623535 8.062000274658203 C 9.299871444702148 6.611029148101807 9.03624153137207 5.172793865203857 8.528782844543457 3.8134334087371826 C 8.336616516113281 3.2956666946411133 9.119950294494629 2.931666612625122 9.31368350982666 3.4536333084106445 C 9.717303276062012 4.012750148773193 10.986100196838379 10.250120162963867 9.307549476623535 8.062000274658203" stroke-width="0.0" fill="rgb(144, 211, 199)" opacity="1.0"/>
    <path d="M 11.882949829101562 10.87052059173584 C 11.21622371673584 11.346539497375488 4.341823101043701 10.7848539352417 6.970882892608643 9.706482887268066 C 8.509522438049316 10.215847969055176 10.152894020080566 10.32309341430664 11.744683265686035 10.018019676208496 C 11.981429100036621 9.988061904907227 12.19763469696045 10.155695915222168 12.227592468261719 10.392440795898438 C 12.256081581115723 10.617578506469727 12.105549812316895 10.826390266418457 11.882949829101562 10.87052059173584" stroke-width="0.0" fill="rgb(144, 211, 199)" opacity="1.0"/>
    <path d="M 15.067683219909668 14.527420043945312 C 15.548932075500488 13.213565826416016 15.780417442321777 11.821346282958984 15.750216484069824 10.422453880310059 C 17.357717514038086 8.58037281036377 16.27557945251465 14.247013092041016 15.876956939697266 14.827836036682129 C 15.78650188446045 15.048527717590332 15.53426742553711 15.154106140136719 15.313575744628906 15.063651084899902 C 15.103280067443848 14.977456092834473 14.995777130126953 14.743020057678223 15.067683219909668 14.527420043945312" stroke-width="0.0" fill="rgb(144, 211, 199)" opacity="1.0"/>
    <path d="M 16.616182327270508 17.442686080932617 C 15.922516822814941 17.633560180664062 10.037323951721191 16.363496780395508 12.46815013885498 15.611470222473145 C 13.799031257629395 16.21852684020996 15.239273071289062 16.549161911010742 16.7016658782959 16.58335304260254 C 17.257102966308594 16.59752082824707 17.170133590698242 17.456819534301758 16.616199493408203 17.442686080932617 L 16.616182327270508 17.442686080932617" stroke-width="0.0" fill="rgb(144, 211, 199)" opacity="1.0"/>
    <path d="M 3.2143332958221436 0.9305533766746521 C 5.786753177642822 1.8823332786560059 4.71258020401001 5.934356689453125 1.969480037689209 5.238283634185791 C -1.4840000867843628 4.573643207550049 0.034630000591278076 -0.2497766613960266 3.2143332958221436 0.9305533766746521" stroke-width="0.0" fill="rgb(255, 230, 0)" opacity="1.0"/>
    <path d="M 10.349349975585938 1.2492866516113281 C 10.66294002532959 4.470333576202393 6.517879962921143 4.99233341217041 6.774826526641846 1.5173333883285522 C 7.147949695587158 -0.1305466741323471 9.972249984741211 -0.7396466732025146 10.349349975585938 1.2492866516113281" stroke-width="0.0" fill="rgb(255, 230, 0)" opacity="1.0"/>
    <path d="M 7.083583354949951 9.220999717712402 C 8.401869773864746 12.3277006149292 3.148956537246704 13.23825740814209 3.410916566848755 9.854100227355957 C 3.687516450881958 8.023587226867676 6.243150234222412 7.51033353805542 7.083583354949951 9.220999717712402" stroke-width="0.0" fill="rgb(255, 230, 0)" opacity="1.0"/>
    <path d="M 17.852384567260742 8.357953071594238 C 17.571247100830078 11.146309852600098 13.46658992767334 10.726539611816406 13.585919380187988 7.993906497955322 C 13.908356666564941 5.520826816558838 18.28602409362793 5.376453399658203 17.852384567260742 8.357953071594238" stroke-width="0.0" fill="rgb(255, 230, 0)" opacity="1.0"/>
    <path d="M 12.727950096130371 14.65185260772705 C 11.234519958496094 12.228416442871094 7.332086563110352 13.56881332397461 9.149136543273926 16.716796875 C 10.442560195922852 18.363359451293945 13.385040283203125 16.595176696777344 12.727950096130371 14.65185260772705" stroke-width="0.0" fill="rgb(255, 230, 0)" opacity="1.0"/>
  </g>
</svg>
