<?xml version="1.0" ?>
<svg xmlns="http://www.w3.org/2000/svg" version="1.1" width="600" height="600">
  <defs/>
  <g>
    <path d="M 31.35038948059082 22.09173583984375 C 27.618391036987305 13.342483520507812 18.333097457885742 7.456786632537842 8.804496765136719 7.789876937866211 C 8.58655834197998 7.788965225219727 8.410622596740723 7.611551761627197 8.411534309387207 7.393612384796143 C 8.412396430969238 7.187381267547607 8.571916580200195 7.016593933105469 8.777609825134277 7.00167989730835 C 18.69594383239746 6.476457118988037 28.478593826293945 12.468680381774902 32.549686431884766 21.552942276000977 C 32.91489028930664 22.32557487487793 31.689260482788086 22.888219833374023 31.35038948059082 22.09173583984375" stroke-width="0.0" fill="rgb(114, 159, 58)" opacity="1.0"/>
    <path d="M 12.54775619506836 8.039870262145996 C 12.54775619506836 8.039870262145996 8.820489883422852 12.361103057861328 1.7110233306884766 9.553603172302246 C -5.398473262786865 6.7461371421813965 11.9036226272583 2.859103202819824 12.570122718811035 7.4828362464904785 L 12.54775619506836 8.039870262145996" stroke-width="0.0" fill="rgb(114, 159, 58)" opacity="1.0"/>
    <path d="M 18.259929656982422 9.006736755371094 C 19.278263092041016 11.699955940246582 12.13852310180664 16.776403427124023 8.670756340026855 13.99038028717041 C 8.363089561462402 13.473835945129395 13.726000785827637 7.341999530792236 18.259929656982422 9.006736755371094" stroke-width="0.0" fill="rgb(114, 159, 58)" opacity="1.0"/>
    <path d="M 17.951391220092773 8.696236610412598 C 17.951391220092773 8.696236610412598 14.570423126220703 7.819202899932861 13.177929878234863 4.431136608123779 C 9.9612398147583 -2.4889466762542725 15.345540046691895 -0.23546665906906128 18.069580078125 3.9508934020996094 C 19.46405601501465 6.617103576660156 19.602333068847656 8.598237037658691 17.951391220092773 8.696236610412598" stroke-width="0.0" fill="rgb(114, 159, 58)" opacity="1.0"/>
    <path d="M 28.267122268676758 15.495736122131348 C 28.267122268676758 15.495736122131348 26.276023864746094 18.8320369720459 20.666723251342773 17.968669891357422 C 20.419189453125 17.947237014770508 18.253456115722656 17.734235763549805 17.803422927856445 16.4742374420166 C 17.444929122924805 15.470402717590332 19.58275604248047 14.891070365905762 21.585289001464844 14.505269050598145 C 24.424928665161133 13.958236694335938 26.20775604248047 14.25140380859375 28.267122268676758 15.495736122131348" stroke-width="0.0" fill="rgb(114, 159, 58)" opacity="1.0"/>
    <path d="M 28.143190383911133 15.536636352539062 C 28.143190383911133 15.536636352539062 23.861597061157227 12.345902442932129 22.862930297851562 8.381403923034668 C 21.8642635345459 4.4168701171875 22.858522415161133 3.1614034175872803 23.147890090942383 2.997236490249634 C 26.019933700561523 2.1035265922546387 32.043312072753906 13.787830352783203 28.143190383911133 15.536636352539062" stroke-width="0.0" fill="rgb(114, 159, 58)" opacity="1.0"/>
  </g>
</svg>
