<?xml version="1.0" ?>
<svg xmlns="http://www.w3.org/2000/svg" version="1.1" width="600" height="600">
  <defs/>
  <g>
    <path d="M 10.871979713439941 6.170756816864014 C 11.289999961853027 5.632997035980225 11.446053504943848 7.460963726043701 11.634613037109375 7.755123138427734 C 11.879979133605957 7.402690410614014 14.225314140319824 3.9625566005706787 15.019279479980469 2.6954567432403564 C 15.048853874206543 2.6486566066741943 15.110767364501953 2.6346919536590576 15.157567024230957 2.6642658710479736 C 15.20207691192627 2.692392587661743 15.217239379882812 2.7501628398895264 15.192279815673828 2.796523332595825 C 15.026080131530762 3.1037566661834717 13.879313468933105 5.137889862060547 13.564979553222656 5.664756774902344 C 16.899702072143555 4.044260025024414 15.713566780090332 5.4799065589904785 13.335380554199219 6.04845666885376 C 12.763213157653809 6.992790222167969 12.161946296691895 7.927989959716797 11.532146453857422 8.838756561279297 C 14.900103569030762 7.766046524047852 13.821907043457031 9.066606521606445 11.35574722290039 9.092323303222656 C 10.599164009094238 10.175901412963867 9.787532806396484 11.219982147216797 8.924046516418457 12.22045612335205 C 12.366103172302246 13.347999572753906 18.6961669921875 3.21506667137146 17.241376876831055 0.5433666706085205 C 16.37795066833496 -1.0472466945648193 12.664176940917969 1.0538567304611206 10.350333213806152 4.256959915161133 C 7.796406269073486 7.987133026123047 8.221033096313477 10.69472599029541 8.7008695602417 11.99755573272705 C 9.598170280456543 10.67375659942627 10.511902809143066 9.36512279510498 11.424403190612793 8.05642318725586 C 11.118576049804688 7.470099925994873 10.930882453918457 6.829418659210205 10.871979713439941 6.170756816864014" stroke-width="0.0" fill="rgb(178, 206, 91)" opacity="1.0"/>
    <path d="M 14.434212684631348 11.735856056213379 C 15.137749671936035 11.716750144958496 13.66897964477539 12.969059944152832 13.54244613647461 13.251357078552246 C 13.971813201904297 13.25902271270752 18.13521385192871 13.292590141296387 19.629846572875977 13.246922492980957 C 19.685182571411133 13.245429039001465 19.73125457763672 13.289077758789062 19.73274803161621 13.344414710998535 C 19.73417091369629 13.397063255310059 19.694604873657227 13.4418306350708 19.642179489135742 13.446890830993652 C 19.29441261291504 13.479823112487793 16.96621322631836 13.659356117248535 16.353546142578125 13.691490173339844 C 19.555967330932617 15.559876441955566 17.703006744384766 15.373579978942871 15.90697956085205 13.714323997497559 C 14.803980827331543 13.764622688293457 13.692349433898926 13.785622596740723 12.585179328918457 13.769390106201172 C 15.379956245422363 15.99919605255127 13.667476654052734 15.792363166809082 12.276313781738281 13.763957023620605 C 10.954987525939941 13.738560676574707 9.635833740234375 13.645427703857422 8.32404613494873 13.484923362731934 C 9.235957145690918 16.96351432800293 21.32037925720215 16.57904624938965 22.654586791992188 13.895035743713379 C 23.495376586914062 12.292369842529297 19.68272590637207 10.376652717590332 15.733776092529297 10.237250328063965 C 11.213250160217285 10.191826820373535 9.200349807739258 12.051690101623535 8.384980201721191 13.175490379333496 C 9.984246253967285 13.184056282043457 11.57997989654541 13.214756965637207 13.17514705657959 13.244422912597656 C 13.492012023925781 12.663979530334473 13.91979694366455 12.151423454284668 14.434212684631348 11.735856056213379" stroke-width="0.0" fill="rgb(178, 206, 91)" opacity="1.0"/>
    <path d="M 4.35071325302124 11.324690818786621 C 0.4009133279323578 12.906657218933105 -1.4589200019836426 18.422189712524414 1.3441133499145508 21.623254776000977 C 4.147016525268555 24.82438850402832 10.230380058288574 23.89485740661621 11.94951343536377 20.002756118774414 C 13.853827476501465 15.543183326721191 9.320436477661133 9.70557975769043 4.35071325302124 11.324690818786621" stroke-width="0.0" fill="rgb(255, 230, 0)" opacity="1.0"/>
    <path d="M 6.223146438598633 14.143523216247559 C 8.108242988586426 13.881730079650879 8.916573524475098 15.141857147216797 6.395879745483398 15.33885669708252 C 7.720723628997803 17.449155807495117 6.012686252593994 16.78890037536621 5.344879627227783 15.651989936828613 C 4.832676410675049 17.850053787231445 3.538546562194824 16.688796997070312 4.6395134925842285 15.150723457336426 C 3.2445132732391357 15.079193115234375 2.90028977394104 12.735492706298828 4.910813331604004 13.902389526367188 C 5.074309825897217 12.13461685180664 7.429566860198975 12.036116600036621 6.223146438598633 14.143523216247559" stroke-width="0.0" fill="rgb(45, 58, 86)" opacity="1.0"/>
  </g>
</svg>
