<?xml version="1.0" ?>
<svg xmlns="http://www.w3.org/2000/svg" version="1.1" width="600" height="600">
  <defs/>
  <g>
    <path d="M 26.244476318359375 9.865099906921387 C 27.242631912231445 9.545013427734375 25.649900436401367 11.943406105041504 25.587541580200195 12.388300895690918 Q 26.510793685913086 12.143450736999512 27.43304443359375 11.893699645996094 C 27.773162841796875 10.26262378692627 28.924802780151367 9.57565689086914 27.90241241455078 11.767132759094238 C 28.945619583129883 11.518173217773438 37.74711227416992 8.76457691192627 32.90457534790039 10.750832557678223 C 37.60612869262695 11.885586738586426 34.74308395385742 12.56136703491211 32.331607818603516 10.965766906738281 Q 31.068559646606445 11.433365821838379 29.77537727355957 11.875499725341797 C 35.17327880859375 13.265959739685059 32.38547897338867 13.723149299621582 29.1477108001709 12.0892333984375 C 27.595008850097656 12.608500480651855 26.018110275268555 13.089533805847168 24.432443618774414 13.5155668258667 C 29.409879684448242 15.611599922180176 26.77704620361328 15.944809913635254 23.98974609375 13.633132934570312 C 22.094942092895508 14.133007049560547 20.175756454467773 14.535411834716797 18.23974609375 14.838767051696777 C 21.051118850708008 19.414953231811523 37.92769241333008 14.025959968566895 38.844608306884766 9.609313011169434 C 39.520023345947266 7.058849811553955 33.07503890991211 5.7632269859313965 27.48987579345703 7.2005696296691895 C 21.024267196655273 8.969813346862793 18.90803337097168 12.439099311828613 18.201108932495117 14.372666358947754 C 20.485475540161133 13.736065864562988 22.77384376525879 13.132400512695312 25.060876846313477 12.527466773986816 C 25.27730369567871 11.571080207824707 25.679445266723633 10.666508674621582 26.244476318359375 9.865099906921387" stroke-width="0.0" fill="rgb(178, 206, 91)" opacity="1.0"/>
    <path d="M 20.12004280090332 5.865800380706787 C 20.72360610961914 5.264319896697998 20.464323043823242 7.589096546173096 20.585376739501953 7.9374003410339355 C 20.97007942199707 7.589700222015381 24.666412353515625 4.182133197784424 25.945709228515625 2.9079999923706055 C 25.993242263793945 2.8610055446624756 26.069869995117188 2.861440896987915 26.116865158081055 2.9089725017547607 C 26.161575317382812 2.954193115234375 26.163660049438477 3.0263020992279053 26.12164306640625 3.074033498764038 C 25.8424129486084 3.3901331424713135 23.939109802246094 5.470433712005615 23.4257755279541 6.004499912261963 C 27.792442321777344 5.00679349899292 26.002443313598633 6.372743606567383 23.051109313964844 6.393299579620361 C 22.120710372924805 7.348199844360352 21.15857696533203 8.284433364868164 20.16954231262207 9.18416690826416 C 24.473962783813477 8.841727256774902 22.793046951293945 10.073166847229004 19.892942428588867 9.434367179870605 C 18.70765495300293 10.502808570861816 17.468374252319336 11.509785652160645 16.179975509643555 12.451333045959473 C 19.921709060668945 14.715682983398438 30.129234313964844 4.521313190460205 29.146089553833008 0.9820333123207092 C 28.683950424194336 -1.1162033081054688 23.535165786743164 0.3492533266544342 20.027999877929688 3.4725332260131836 C 16.00716209411621 7.164360046386719 15.768943786621094 10.464980125427246 15.97821044921875 12.12833309173584 C 17.39451026916504 10.815632820129395 18.82597541809082 9.525300025939941 20.256010055541992 8.234533309936523 C 20.05605697631836 7.461470127105713 20.009859085083008 6.656665325164795 20.12004280090332 5.865800380706787" stroke-width="0.0" fill="rgb(178, 206, 91)" opacity="1.0"/>
    <path d="M 21.267610549926758 15.872666358947754 C 22.584823608398438 14.438776969909668 22.097314834594727 11.978683471679688 20.222875595092773 11.411467552185059 C 21.07667350769043 7.899196624755859 17.589723587036133 7.628799915313721 16.645414352416992 8.285333633422852 C 16.60181999206543 6.092136383056641 13.839713096618652 4.632359981536865 12.241477012634277 6.259599685668945 C 10.676376342773438 3.4897334575653076 7.351776599884033 6.408466815948486 7.351776599884033 6.408466815948486 C 6.536799907684326 5.559900283813477 1.9949034452438354 7.20041036605835 3.398543357849121 10.38663387298584 C -1.0261067152023315 9.737850189208984 -0.3691699802875519 14.664107322692871 1.913476586341858 14.988865852355957 C -0.8580666184425354 15.161666870117188 -0.675266683101654 19.278789520263672 2.831543207168579 19.311433792114258 C -0.36705997586250305 22.20813751220703 3.017009973526001 25.480369567871094 5.377343654632568 23.943700790405273 C 5.541243076324463 26.37969970703125 8.886866569519043 27.557662963867188 10.19221019744873 25.337799072265625 C 11.762846946716309 29.860517501831055 15.953173637390137 26.875267028808594 16.073009490966797 24.96663475036621 C 16.67634391784668 25.26849365234375 21.148080825805664 24.753923416137695 20.236543655395508 20.908966064453125 C 24.285446166992188 20.510499954223633 23.526540756225586 16.428998947143555 21.267610549926758 15.872666358947754" stroke-width="0.0" fill="rgb(242, 182, 150)" opacity="1.0"/>
    <path d="M 15.888309478759766 16.162267684936523 C 16.3579044342041 15.670201301574707 16.339685440063477 14.89062213897705 15.84762191772461 14.421029090881348 C 15.72442626953125 14.303460121154785 15.578186988830566 14.21271800994873 15.418143272399902 14.154533386230469 C 15.835456848144531 12.614956855773926 14.187663078308105 12.436920166015625 13.808110237121582 12.747633934020996 C 13.78850269317627 11.760466575622559 12.545276641845703 11.103669166564941 11.826144218444824 11.835933685302734 C 11.121746063232422 10.589366912841797 9.625510215759277 11.902934074401855 9.625510215759277 11.902934074401855 C 9.322050094604492 11.49841022491455 7.175106525421143 12.305510520935059 7.846376419067383 13.693299293518066 C 5.867000102996826 13.376126289367676 6.162806987762451 15.65000057220459 7.177999973297119 15.764533042907715 C 5.977930068969727 15.784919738769531 6.000513076782227 17.726503372192383 7.59119987487793 17.70989990234375 C 6.129330158233643 18.960979461669922 7.740489959716797 20.51435661315918 8.736933708190918 19.794633865356445 C 8.810673713684082 20.89093589782715 10.316407203674316 21.421079635620117 10.90383243560791 20.422033309936523 C 11.570030212402344 22.447633743286133 13.530476570129395 21.09836769104004 13.550467491149902 20.2549991607666 C 13.78676986694336 20.410921096801758 15.86202621459961 20.119060516357422 15.424266815185547 18.4288330078125 C 17.235300064086914 18.307373046875 16.86810302734375 16.337575912475586 15.888309478759766 16.162267684936523" stroke-width="0.0" fill="rgb(240, 134, 158)" opacity="1.0"/>
    <path d="M 14.309576988220215 14.519499778747559 C 17.12384605407715 18.14201545715332 10.7672700881958 22.084875106811523 8.5192232131958 18.475072860717773 C 6.003103256225586 14.90549373626709 11.946093559265137 10.389223098754883 14.309576988220215 14.519499778747559" stroke-width="0.0" fill="rgb(238, 114, 100)" opacity="1.0"/>
  </g>
</svg>
