<?xml version="1.0" ?>
<svg xmlns="http://www.w3.org/2000/svg" version="1.1" width="600" height="600">
  <defs/>
  <g>
    <path d="M 5.063696384429932 11.132030487060547 C -0.17328667640686035 11.22989273071289 -0.42104002833366394 4.245660305023193 4.201463222503662 5.852930068969727 C 4.201463222503662 5.852930068969727 2.104663372039795 3.3776299953460693 4.87589693069458 1.6565300226211548 C 7.647096633911133 -0.0645366683602333 11.050896644592285 5.76189661026001 11.050896644592285 5.76189661026001 C 11.050896644592285 5.76189661026001 11.020062446594238 -0.0766366645693779 14.468830108642578 0.0007633333443664014 C 17.91766357421875 0.07816333323717117 18.201562881469727 2.682696580886841 18.201562881469727 2.682696580886841 C 24.610376358032227 4.5586700439453125 20.19512939453125 9.988783836364746 17.04076385498047 10.775795936584473 C 22.464933395385742 10.199706077575684 25.06132698059082 18.102916717529297 18.34806251525879 19.013429641723633 C 18.39243507385254 20.804861068725586 17.2801456451416 22.42180633544922 15.591297149658203 23.020963668823242 C 12.63499927520752 24.16033363342285 10.120929718017578 18.106000900268555 10.120929718017578 18.106000900268555 C 10.120929718017578 18.106000900268555 8.315896034240723 21.374799728393555 6.312829971313477 21.331666946411133 C 4.612085819244385 21.26596450805664 3.2866222858428955 19.83397674560547 3.3523247241973877 18.13323211669922 C 3.3607358932495117 17.91550636291504 3.3922135829925537 17.69928550720215 3.446229934692383 17.48819923400879 C -2.032900094985962 17.701892852783203 -0.596726655960083 11.087249755859375 5.063696384429932 11.132030487060547" stroke-width="0.0" fill="rgb(242, 182, 150)" opacity="1.0"/>
    <path d="M 10.470296859741211 11.755630493164062 C 9.638707160949707 11.706656455993652 6.525143146514893 8.457097053527832 6.6400370597839355 9.236506462097168 C 6.821929931640625 9.790743827819824 10.592909812927246 12.74350643157959 10.470296859741211 11.755630493164062" stroke-width="0.0" fill="rgb(247, 193, 169)" opacity="1.0"/>
    <path d="M 11.427264213562012 10.70300006866455 C 11.361956596374512 10.20553970336914 8.652596473693848 7.12837028503418 8.60197639465332 8.187150001525879 C 9.145739555358887 8.409563064575195 11.474486351013184 11.324816703796387 11.427264213562012 10.70300006866455" stroke-width="0.0" fill="rgb(247, 193, 169)" opacity="1.0"/>
    <path d="M 12.04362964630127 10.34673023223877 C 12.497160911560059 10.101706504821777 14.91770076751709 7.0844597816467285 14.009629249572754 7.111396789550781 C 13.904963493347168 7.638166427612305 11.32492733001709 10.538196563720703 12.04362964630127 10.34673023223877" stroke-width="0.0" fill="rgb(247, 193, 169)" opacity="1.0"/>
    <path d="M 12.14226245880127 11.1629638671875 C 13.030826568603516 11.390693664550781 17.187650680541992 7.827250003814697 15.915390014648438 7.8271002769470215 C 14.923027038574219 9.18117618560791 13.597857475280762 10.25609016418457 12.06818675994873 10.947766304016113 C 11.956729888916016 11.006596565246582 12.012129783630371 11.195332527160645 12.14226245880127 11.1629638671875" stroke-width="0.0" fill="rgb(247, 193, 169)" opacity="1.0"/>
    <path d="M 11.834729194641113 13.395564079284668 C 11.692606925964355 13.969603538513184 13.797062873840332 17.21001625061035 14.045089721679688 16.358640670776367 C 13.253376960754395 16.01166343688965 11.88008975982666 12.597736358642578 11.834729194641113 13.395564079284668" stroke-width="0.0" fill="rgb(247, 193, 169)" opacity="1.0"/>
    <path d="M 12.756096839904785 12.68079662322998 C 14.47949504852295 12.855509757995605 16.069547653198242 13.686782836914062 17.196563720703125 15.002253532409668 C 17.329496383666992 15.137797355651855 17.576696395874023 14.95889663696289 17.465496063232422 14.794663429260254 C 16.50533103942871 13.376496315002441 14.519596099853516 12.313464164733887 12.793196678161621 12.406562805175781 C 12.644696235656738 12.414563179016113 12.593230247497559 12.649863243103027 12.756096839904785 12.68079662322998" stroke-width="0.0" fill="rgb(247, 193, 169)" opacity="1.0"/>
    <path d="M 10.288129806518555 13.438297271728516 C 10.19731616973877 14.007439613342285 8.13213062286377 15.93593978881836 8.590693473815918 15.94418716430664 C 9.019360542297363 15.8472261428833 11.190896034240723 13.32175350189209 10.288129806518555 13.438297271728516" stroke-width="0.0" fill="rgb(247, 193, 169)" opacity="1.0"/>
    <path d="M 9.76433277130127 12.441929817199707 C 9.440893173217773 12.621970176696777 7.175843715667725 13.546859741210938 7.717443466186523 13.791979789733887 C 8.060713768005371 13.582043647766113 10.2299165725708 12.767706871032715 9.76433277130127 12.441929817199707" stroke-width="0.0" fill="rgb(247, 193, 169)" opacity="1.0"/>
    <path d="M 13.77086353302002 11.543296813964844 C 14.756377220153809 14.401073455810547 9.953280448913574 15.509495735168457 9.318220138549805 12.779963493347168 C 8.507452964782715 10.018589973449707 13.174416542053223 8.464556694030762 13.77086353302002 11.543296813964844" stroke-width="0.0" fill="rgb(255, 230, 0)" opacity="1.0"/>
  </g>
</svg>
