<?xml version="1.0" ?>
<svg xmlns="http://www.w3.org/2000/svg" version="1.1" width="51" height="87">
  <defs/>
  <g>
    <path d="M 37.864498138427734 40.33761978149414 C 37.77522277832031 38.17637252807617 36.90903854370117 36.119930267333984 35.42509841918945 34.546119689941406 C 27.45730972290039 27.513919830322266 20.3518009185791 31.27952003479004 16.78689956665039 34.19411849975586 C 15.224024772644043 35.73324966430664 14.203560829162598 37.738521575927734 13.879199981689453 39.907920837402344 C 11.75951862335205 55.89528274536133 15.156145095825195 72.12747192382812 23.508100509643555 85.92362213134766 C 24.06194305419922 87.0680923461914 25.438701629638672 87.5468978881836 26.58317756652832 86.99305725097656 C 26.95425033569336 86.81348419189453 27.270299911499023 86.53756713867188 27.498310089111328 86.19412231445312 C 37.68439865112305 72.6003189086914 37.99980163574219 49.43431854248047 37.864498138427734 40.33761978149414" stroke-width="1.0" fill="rgb(242, 103, 94)" opacity="1.0"/>
    <path d="M 48.326499938964844 18.487520217895508 C 44.95240020751953 1.005120038986206 33.035400390625 0.013419999741017818 25.49340057373047 0.013419999741017818 C 5.828400135040283 -0.5827800035476685 2.255199909210205 18.88011932373047 2.255199909210205 18.88011932373047 C -5.093999862670898 53.238521575927734 7.615499973297119 70.91091918945312 10.595499992370605 73.09352111816406 C 11.317131042480469 73.67433166503906 12.070746421813965 74.21424865722656 12.852800369262695 74.7107162475586 C 14.148200035095215 75.526123046875 14.72249984741211 74.634521484375 14.126310348510742 72.86202239990234 C 10.165875434875488 61.01042938232422 9.21513843536377 48.35992431640625 11.359700202941895 36.04951858520508 C 11.445184707641602 35.5380859375 11.659790992736816 35.05693435668945 11.983200073242188 34.65161895751953 C 12.216099739074707 34.35622024536133 17.800100326538086 27.484619140625 26.007600784301758 27.484619140625 C 31.029600143432617 27.484619140625 35.772701263427734 29.992919921875 40.100399017333984 34.94411849975586 C 40.58542251586914 35.500179290771484 40.852699279785156 36.213050842285156 40.85279846191406 36.95092010498047 C 40.85279846191406 37.24052047729492 40.86259841918945 37.679420471191406 40.87430953979492 38.242919921875 C 41.13238525390625 46.027549743652344 40.7202262878418 53.819950103759766 39.642398834228516 61.53392028808594 C 39.10908508300781 65.19027709960938 38.33659362792969 68.80773162841797 37.329898834228516 72.36299896240234 C 36.80939865112305 74.15989685058594 36.51490020751953 75.48799896240234 36.76300048828125 75.34639739990234 C 36.931400299072266 75.25270080566406 37.08089828491211 75.16380310058594 37.2063102722168 75.08080291748047 C 59.05009841918945 59.199920654296875 49.11940002441406 22.257999420166016 48.326499938964844 18.487520217895508" stroke-width="1.0" fill="rgb(61, 196, 255)" opacity="1.0"/>
    <path d="M 16.326000213623047 19.025619506835938 C 18.001190185546875 19.025339126586914 19.35942840576172 20.383119583129883 19.359710693359375 22.05830955505371 C 19.3599910736084 23.73349952697754 18.00221061706543 25.091737747192383 16.3270206451416 25.09202003479004 C 14.651829719543457 25.092302322387695 13.293591499328613 23.734519958496094 13.293310165405273 22.059329986572266 C 13.293310165405273 22.058992385864258 13.293310165405273 22.058656692504883 13.293310165405273 22.058319091796875 C 13.292895317077637 20.383819580078125 14.650010108947754 19.026033401489258 16.32451057434082 19.025619506835938 C 16.32500648498535 19.025619506835938 16.325502395629883 19.025619506835938 16.326000213623047 19.025619506835938" stroke-width="1.0" fill="rgb(255, 255, 255)" opacity="1.0"/>
    <path d="M 35.35580062866211 19.025619506835938 C 37.03099060058594 19.02539825439453 38.38917922973633 20.383230209350586 38.389400482177734 22.058420181274414 C 38.38962173461914 23.733610153198242 37.03179168701172 25.091798782348633 35.35660171508789 25.09202003479004 C 33.6814079284668 25.092241287231445 32.323219299316406 23.73440933227539 32.323001861572266 22.059219360351562 C 32.322998046875 22.05891990661621 32.322998046875 22.05862045288086 32.323001861572266 22.058319091796875 C 32.32282257080078 20.383583068847656 33.68032455444336 19.02579689025879 35.35506057739258 19.025619506835938 C 35.355308532714844 19.025619506835938 35.355552673339844 19.025619506835938 35.35580062866211 19.025619506835938" stroke-width="1.0" fill="rgb(255, 255, 255)" opacity="1.0"/>
    <path d="M 35.35580062866211 20.617919921875 C 36.59128952026367 20.61756134033203 37.5931396484375 21.618831634521484 37.59349822998047 22.854320526123047 C 37.5938606262207 24.08980941772461 36.59259033203125 25.09166145324707 35.35710144042969 25.09202003479004 C 34.121612548828125 25.092378616333008 33.11975860595703 24.091108322143555 33.11940002441406 22.855619430541992 C 33.11940002441406 22.85531997680664 33.11940002441406 22.85502052307129 33.11940002441406 22.854719161987305 C 33.11925506591797 21.6195125579834 34.1204719543457 20.61806297302246 35.35567855834961 20.617919921875 C 35.35572052001953 20.617919921875 35.35575866699219 20.617919921875 35.35580062866211 20.617919921875" stroke-width="1.0" fill="rgb(57, 46, 42)" opacity="1.0"/>
    <path d="M 16.326000213623047 20.617919921875 C 17.56148910522461 20.617782592773438 18.563161849975586 21.619232177734375 18.56329917907715 22.854719161987305 C 18.563438415527344 24.090208053588867 17.561988830566406 25.091882705688477 16.326499938964844 25.09202003479004 C 15.091011047363281 25.0921573638916 14.089338302612305 24.090707778930664 14.089200019836426 22.855220794677734 C 14.089200019836426 22.855052947998047 14.089200019836426 22.854887008666992 14.089200019836426 22.854719161987305 C 14.089006423950195 21.61956214904785 15.090143203735352 20.618112564086914 16.325300216674805 20.617919921875 C 16.325532913208008 20.617919921875 16.325767517089844 20.617919921875 16.326000213623047 20.617919921875" stroke-width="1.0" fill="rgb(57, 46, 42)" opacity="1.0"/>
  </g>
</svg>
