<?xml version="1.0" ?>
<svg xmlns="http://www.w3.org/2000/svg" version="1.1" width="104" height="96">
  <defs/>
  <g>
    <path d="M 100.59710693359375 88.3451919555664 C 100.18891143798828 86.69278717041016 103.49160766601562 86.38028717041016 104.15960693359375 81.12248992919922 C 104.83142852783203 75.85488891601562 100.60101318359375 80.91838836669922 100.60101318359375 80.91838836669922 C 100.60101318359375 80.91838836669922 97.50531005859375 84.48088836669922 85.12442779541016 83.70159149169922 C 73.71820831298828 82.99069213867188 60.11851119995117 77.24359130859375 60.577510833740234 56.99068832397461 C 60.61071014404297 55.65959167480469 61.03070831298828 54.46818923950195 61.43500900268555 54.30609130859375 C 61.841209411621094 54.146888732910156 62.962310791015625 54.746490478515625 63.65570831298828 55.874488830566406 C 65.38961029052734 59.06036376953125 66.76331329345703 62.42942810058594 67.75142669677734 65.91938781738281 C 68.14391326904297 67.18399047851562 69.0912094116211 67.36078643798828 69.5580062866211 66.11659240722656 C 71.07750701904297 61.979888916015625 69.9662094116211 56.32469177246094 68.89591217041016 52.6332893371582 C 68.53764343261719 51.33775329589844 68.870361328125 49.94902038574219 69.77680969238281 48.95648956298828 C 70.63760375976562 48.20439529418945 71.94511413574219 48.292510986328125 72.69721221923828 49.1533088684082 C 72.73684692382812 49.198673248291016 72.77448272705078 49.24574279785156 72.81001281738281 49.29439163208008 C 78.6361083984375 55.98479080200195 83.94081115722656 59.25429153442383 90.54631042480469 59.25429153442383 C 98.44081115722656 59.25429153442383 105.7162094116211 56.77878952026367 103.86071014404297 31.700590133666992 C 101.99942779541016 6.628389835357666 91.16351318359375 -1.1138099431991577 82.80999755859375 0.12738999724388123 C 78.65998840332031 0.7509209513664246 74.7969741821289 2.6194159984588623 71.73179626464844 5.485789775848389 C 71.09025573730469 6.04603385925293 70.53773498535156 6.700664520263672 70.09320068359375 7.427189826965332 C 69.45629119873047 7.0032477378845215 68.85530090332031 6.527680397033691 68.29630279541016 6.0052900314331055 C 58.90235137939453 -1.7736637592315674 45.322471618652344 -1.8366245031356812 35.8568000793457 5.854889869689941 C 34.82170104980469 6.684989929199219 34.052101135253906 7.3939900398254395 34.04819869995117 7.342189788818359 C 33.57759475708008 6.664079189300537 33.03038787841797 6.042476177215576 32.41741943359375 5.489689826965332 C 29.351318359375 2.6242008209228516 25.488935470581055 0.7549830079078674 21.339309692382812 0.12838999927043915 C 12.987709999084473 -1.1255099773406982 2.153709888458252 6.6165900230407715 0.29243001341819763 31.69278907775879 C -1.5630899667739868 56.766990661621094 5.712309837341309 59.244590759277344 13.606809616088867 59.244590759277344 C 20.18100929260254 59.244590759277344 25.470109939575195 56.01118850708008 31.25921058654785 49.38618850708008 C 32.13220977783203 48.38029098510742 33.10491180419922 47.86859130859375 33.487709045410156 48.242591857910156 C 33.87443161010742 48.614688873291016 34.163509368896484 48.901790618896484 34.13031005859375 48.87638854980469 C 33.77564239501953 49.58941650390625 33.484161376953125 50.332157135009766 33.25920867919922 51.09608840942383 C 32.12643051147461 54.582489013671875 30.38810920715332 61.35689163208008 32.13220977783203 66.1117935180664 C 32.591209411621094 67.35688781738281 33.54631042480469 67.1869888305664 33.93301010131836 65.91938781738281 C 34.862709045410156 62.89398956298828 36.64590835571289 57.67818832397461 38.58142852783203 55.05809020996094 C 39.36661148071289 53.98768997192383 40.290428161621094 54.59318923950195 40.24943161010742 55.92039108276367 C 40.00143051147461 63.989688873291016 42.65761184692383 78.68988800048828 54.77680969238281 88.03659057617188 C 67.45250701904297 97.8128890991211 85.92910766601562 97.56778717041016 95.94281005859375 93.39009094238281 C 97.37846374511719 92.9330825805664 98.90658569335938 92.84772491455078 100.38420867919922 93.1419906616211 C 101.40975189208984 93.31449890136719 102.4517593383789 93.36824798583984 103.48960876464844 93.30219268798828 C 107.20060729980469 93.09129333496094 101.0111083984375 89.99649047851562 100.59710693359375 88.3451919555664" stroke-width="1.0" fill="rgb(128, 123, 115)" opacity="1.0"/>
    <path d="M 58.208431243896484 24.173290252685547 C 58.207889556884766 22.0499267578125 59.928775787353516 20.328161239624023 62.05213928222656 20.327621459960938 C 64.17550659179688 20.32707977294922 65.89727020263672 22.0479679107666 65.89781188964844 24.17133140563965 C 65.89835357666016 26.29395294189453 64.17861938476562 28.015409469604492 62.055999755859375 28.017000198364258 C 59.93214416503906 28.018098831176758 58.209529876708984 26.297266006469727 58.208431243896484 24.173410415649414 C 58.208431243896484 24.173370361328125 58.208431243896484 24.173330307006836 58.208431243896484 24.173290252685547" stroke-width="1.0" fill="rgb(255, 255, 255)" opacity="1.0"/>
    <path d="M 38.50143051147461 24.173290252685547 C 38.501407623291016 22.050451278686523 40.2222900390625 20.329532623291016 42.345130920410156 20.329509735107422 C 44.46796798706055 20.32948875427246 46.18888854980469 22.050371170043945 46.18891143798828 24.17321014404297 C 46.18893051147461 26.295307159423828 44.469207763671875 28.015918731689453 42.347110748291016 28.016990661621094 C 40.22385787963867 28.01726531982422 38.50224685668945 26.296541213989258 38.50143051147461 24.173290252685547" stroke-width="1.0" fill="rgb(255, 255, 255)" opacity="1.0"/>
    <path d="M 42.34320831298828 28.858789443969727 C 41.04934310913086 28.858264923095703 40.000885009765625 27.8089542388916 40.00141143798828 26.515090942382812 C 40.00193405151367 25.22122573852539 41.051246643066406 24.172765731811523 42.34511184692383 24.173290252685547 C 43.63823318481445 24.17381477355957 44.68638610839844 25.221967697143555 44.68690872192383 26.515090942382812 C 44.68714904785156 27.809242248535156 43.638221740722656 28.858552932739258 42.34407043457031 28.858789443969727 C 42.34378433227539 28.858789443969727 42.34349822998047 28.858789443969727 42.34320831298828 28.858789443969727" stroke-width="1.0" fill="rgb(0, 0, 0)" opacity="1.0"/>
    <path d="M 59.71031188964844 26.515090942382812 C 59.71080780029297 25.2211971282959 60.7601203918457 24.172693252563477 62.054012298583984 24.17319107055664 C 63.347904205322266 24.173690795898438 64.39640808105469 25.22300148010254 64.39591217041016 26.51689338684082 C 64.3954086303711 27.809301376342773 63.34841537475586 28.857189178466797 62.05601119995117 28.858789443969727 C 60.76228332519531 28.860557556152344 59.71207809448242 27.81321907043457 59.71031188964844 26.519493103027344 C 59.71030807495117 26.518024444580078 59.71030807495117 26.516557693481445 59.71031188964844 26.515090942382812" stroke-width="1.0" fill="rgb(0, 0, 0)" opacity="1.0"/>
    <path d="M 78.57170867919922 17.21718978881836 C 78.57170867919922 17.21718978881836 79.8861083984375 6.4056901931762695 88.42710876464844 11.334389686584473 C 96.97010803222656 16.262189865112305 103.5404281616211 40.246490478515625 97.30020904541016 45.50339126586914 C 91.0560073852539 50.75918960571289 81.5287094116211 48.72209167480469 80.21430969238281 42.677188873291016 C 78.89981079101562 36.63228988647461 78.57170867919922 17.21718978881836 78.57170867919922 17.21718978881836" stroke-width="1.0" fill="rgb(191, 185, 172)" opacity="1.0"/>
    <path d="M 29.13421058654785 17.21718978881836 C 29.13421058654785 17.21718978881836 27.86850929260254 6.4056901931762695 19.643909454345703 11.334389686584473 C 11.419309616088867 16.262189865112305 5.093210220336914 40.246490478515625 11.102910041809082 45.50339126586914 C 17.11271095275879 50.75918960571289 26.288509368896484 48.72209167480469 27.55211067199707 42.677188873291016 C 28.81781005859375 36.63228988647461 29.13421058654785 17.21718978881836 29.13421058654785 17.21718978881836" stroke-width="1.0" fill="rgb(191, 185, 172)" opacity="1.0"/>
    <path d="M 33.487709045410156 48.375389099121094 L 36.84511184692383 46.16059112548828 L 40.00143051147461 55.42329025268555 C 38.13431930541992 57.195762634277344 36.667911529541016 59.34708023071289 35.70061111450195 61.73289108276367 C 34.5443115234375 65.13719177246094 33.79631042480469 73.82369232177734 31.407609939575195 62.98868942260742 C 31.387718200683594 58.04242706298828 32.088443756103516 53.11964416503906 33.487709045410156 48.375389099121094" stroke-width="1.0" fill="rgb(255, 255, 255)" opacity="1.0"/>
    <path d="M 68.48960876464844 48.375389099121094 L 64.55210876464844 46.16059112548828 L 60.85491180419922 55.42329025268555 C 60.85491180419922 55.42329025268555 64.54242706298828 58.32759094238281 65.89781188964844 61.73289108276367 C 67.25142669677734 65.13719177246094 68.12642669677734 73.82369232177734 70.92710876464844 62.98868942260742 C 70.94860076904297 58.01465606689453 70.12435913085938 53.07316207885742 68.48960876464844 48.375389099121094" stroke-width="1.0" fill="rgb(255, 255, 255)" opacity="1.0"/>
  </g>
</svg>
