<?xml version="1.0" ?>
<svg xmlns="http://www.w3.org/2000/svg" version="1.1" width="68" height="91">
  <defs/>
  <g>
    <circle r="27.17382049560547" cx="33.927310943603516" cy="43.8466911315918" stroke-width="1.0" fill="rgb(135, 84, 22)" opacity="1.0"/>
    <circle r="14.92428970336914" cx="16.18124008178711" cy="19.2587890625" stroke-width="1.0" fill="rgb(135, 84, 22)" opacity="1.0"/>
    <circle r="14.92428970336914" cx="48.942928314208984" cy="19.2587890625" stroke-width="1.0" fill="rgb(135, 84, 22)" opacity="1.0"/>
    <path d="M 38.8701286315918 35.342708587646484 C 38.87057113647461 33.337310791015625 40.49662780761719 31.71196746826172 42.50202941894531 31.71240997314453 C 44.50743103027344 31.712852478027344 46.13277053833008 33.33890914916992 46.132328033447266 35.34431076049805 C 46.13188934326172 37.34908676147461 44.506805419921875 38.97416687011719 42.50202941894531 38.974609375 C 40.49683380126953 38.97304916381836 38.87168884277344 37.34790802001953 38.8701286315918 35.342708587646484" stroke-width="1.0" fill="rgb(0, 0, 0)" opacity="1.0"/>
    <path d="M 20.732940673828125 35.342708587646484 C 20.733381271362305 33.337310791015625 22.359437942504883 31.71196746826172 24.364839553833008 31.71240997314453 C 26.370241165161133 31.712852478027344 27.995582580566406 33.33890914916992 27.995140075683594 35.34431076049805 C 27.99469757080078 37.34908676147461 26.36961555480957 38.97416687011719 24.364839553833008 38.974609375 C 22.359643936157227 38.97304916381836 20.734500885009766 37.34790802001953 20.732940673828125 35.342708587646484" stroke-width="1.0" fill="rgb(0, 0, 0)" opacity="1.0"/>
    <path d="M 66.37452697753906 24.20461082458496 C 67.83252716064453 24.458009719848633 68.53423309326172 22.613309860229492 67.64112854003906 21.033710479736328 C 66.56962585449219 19.18906593322754 65.29242706298828 17.47186279296875 63.83399963378906 15.914999961853027 C 62.60449981689453 14.580100059509277 61.58789825439453 15.100099563598633 61.03129959106445 16.831499099731445 C 60.13491439819336 19.43070411682129 58.286865234375 21.59366226196289 55.85940170288086 22.884700775146484 C 55.85940170288086 22.884700775146484 55.635799407958984 23.013599395751953 55.36090087890625 23.177200317382812 C 55.08689880371094 23.34079933166504 53.80080032348633 22.451099395751953 52.490299224853516 21.192399978637695 L 51.769500732421875 20.501399993896484 C 50.45899963378906 19.242599487304688 49.62009811401367 17.979999542236328 49.895999908447266 17.67620086669922 L 50.39889907836914 17.12689971923828 C 50.58156204223633 16.893911361694336 50.731109619140625 16.63677406311035 50.843299865722656 16.36280059814453 C 51.024898529052734 15.908699989318848 50.66849899291992 15.547300338745117 50.22999954223633 15.7391996383667 C 49.96504211425781 15.85136604309082 49.71858596801758 16.00298309326172 49.499000549316406 16.188899993896484 C 49.499000549316406 16.188899993896484 49.25199890136719 16.417499542236328 48.946800231933594 16.693300247192383 C 48.6392936706543 16.971332550048828 48.16800308227539 16.960174560546875 47.874000549316406 16.66790008544922 L 47.35110092163086 16.136199951171875 C 47.35110092163086 16.136199951171875 46.40679931640625 15.152299880981445 45.24420166015625 13.938899993896484 C 44.082000732421875 12.724599838256836 43.269100189208984 11.51710033416748 43.43170928955078 11.241700172424316 L 43.72560119628906 10.742600440979004 C 45.57754898071289 7.4221577644348145 49.12504196166992 5.409968852996826 52.92530059814453 5.524400234222412 C 53.717952728271484 5.526732921600342 54.50905227661133 5.594665050506592 55.29050064086914 5.727499961853027 C 56.584999084472656 5.94189977645874 56.32619857788086 5.51609992980957 54.61180114746094 4.917500019073486 C 52.22233581542969 4.106786251068115 49.709686279296875 3.719438076019287 47.1870002746582 3.772900104522705 C 45.37110137939453 3.8011999130249023 44.849098205566406 3.363300085067749 45.59429931640625 2.172300100326538 C 46.33940124511719 0.9785000085830688 44.90679931640625 -0.21439999341964722 43.1083984375 0.05510000139474869 C 40.85476303100586 0.3661559522151947 38.673980712890625 1.073706030845642 36.66699981689453 2.1449999809265137 C 35.001216888427734 3.015444278717041 33.01387023925781 3.0108823776245117 31.352100372314453 2.1328001022338867 C 29.3530330657959 1.0583387613296509 27.178367614746094 0.3490036725997925 24.930240631103516 0.038109999150037766 C 23.135339736938477 -0.22999000549316406 21.699739456176758 0.962909996509552 22.446840286254883 2.1538100242614746 C 23.19293975830078 3.346709966659546 22.669540405273438 3.78371000289917 20.85304069519043 3.75531005859375 C 18.730798721313477 3.7160069942474365 16.613933563232422 3.9820969104766846 14.567440032958984 4.54541015625 C 12.819840431213379 5.036610126495361 11.991740226745605 5.62401008605957 12.607939720153809 5.572710037231445 C 12.969340324401855 5.543409824371338 13.342340469360352 5.5283098220825195 13.724140167236328 5.5283098220825195 C 17.5244197845459 5.41347599029541 21.072004318237305 7.42584228515625 22.92344093322754 10.746609687805176 C 22.92344093322754 10.746609687805176 23.055240631103516 10.969209671020508 23.21734046936035 11.243610382080078 C 23.381439208984375 11.517609596252441 22.49224090576172 12.80420970916748 21.238340377807617 14.114709854125977 L 20.513240814208984 14.871109962463379 C 19.256940841674805 16.182109832763672 17.990739822387695 17.00531005859375 17.687040328979492 16.709409713745117 C 17.31083106994629 16.32311248779297 16.879976272583008 15.994107246398926 16.408239364624023 15.73291015625 C 15.971739768981934 15.547309875488281 15.618240356445312 15.908709526062012 15.802339553833008 16.359310150146484 C 16.049646377563477 16.843305587768555 16.368494033813477 17.287260055541992 16.748140335083008 17.676210403442383 C 17.02444076538086 17.980009078979492 16.18514060974121 19.242610931396484 14.875040054321289 20.50140953063965 L 14.154840469360352 21.19240951538086 C 12.844340324401855 22.45111083984375 11.55813980102539 23.340810775756836 11.283740043640137 23.177209854125977 L 10.786140441894531 22.88471031188965 C 8.757328987121582 21.77774429321289 7.115707874298096 20.076627731323242 6.081639766693115 18.00971031188965 C 5.301839828491211 16.369110107421875 4.144139766693115 15.89111042022705 2.98934006690979 17.292509078979492 C 2.0197348594665527 18.458086013793945 1.1520957946777344 19.704837799072266 0.3959999978542328 21.018999099731445 C -0.4984999895095825 22.598600387573242 0.2070000022649765 24.442399978637695 1.663599967956543 24.189899444580078 C 3.1191999912261963 23.937000274658203 3.6201000213623047 24.61669921875 3.111299991607666 26.35890007019043 C 1.861299991607666 30.63909912109375 0.09380000084638596 38.7411994934082 1.486299991607666 47.055599212646484 C 1.7870999574661255 48.84370040893555 3.4946000576019287 49.71480178833008 4.839399814605713 48.63859939575195 C 6.183599948883057 47.56439971923828 6.409200191497803 47.67179870605469 6.289100170135498 49.48429870605469 C 6.009799957275391 53.64939880371094 6.428699970245361 61.79880142211914 11.262200355529785 73.8281021118164 C 11.93850040435791 75.51360321044922 13.03219985961914 75.79779815673828 13.528800010681152 74.44719696044922 C 14.026399612426758 73.095703125 15.038100242614746 73.220703125 16.097200393676758 74.69329833984375 C 18.788543701171875 78.40613555908203 21.898197174072266 81.79694366455078 25.36479949951172 84.79879760742188 C 26.73590087890625 85.99120330810547 28.34079933166504 85.91400146484375 28.437999725341797 84.62889862060547 C 28.535200119018555 83.3467025756836 28.968299865722656 83.6426010131836 29.95560073852539 85.16790008544922 C 31.247894287109375 87.1900405883789 32.79911422729492 89.03448486328125 34.56978988647461 90.654296875 C 35.91849136352539 91.86910247802734 37.47608947753906 91.18550109863281 38.39849090576172 89.62110137939453 C 39.79655075073242 87.30406951904297 41.854923248291016 85.45751953125 44.30958938598633 84.31829833984375 C 48.262699127197266 82.39649963378906 50.990699768066406 77.9823989868164 52.46628952026367 74.98729705810547 C 53.26908874511719 73.35929870605469 54.02389144897461 73.1073989868164 54.52199172973633 74.46089935302734 C 55.01908874511719 75.8125 56.111289978027344 75.52539825439453 56.78908920288086 73.8447036743164 C 61.6249885559082 61.81340026855469 62.04248809814453 53.66210174560547 61.76319122314453 49.49409866333008 C 61.641090393066406 47.68159866333008 61.864288330078125 47.57609939575195 63.21139144897461 48.65129852294922 C 64.55370330810547 49.727500915527344 66.26219177246094 48.85929870605469 66.56449127197266 47.06829833984375 C 67.95799255371094 38.75490188598633 66.1869888305664 30.64940071105957 64.9389877319336 26.371999740600586 C 64.41899871826172 24.631309509277344 64.9195327758789 23.95071029663086 66.37452697753906 24.20461082458496" stroke-width="1.0" fill="rgb(251, 176, 64)" opacity="1.0"/>
    <path d="M 10.268139839172363 20.68840980529785 C 11.066957473754883 21.21414566040039 12.122274398803711 21.122446060180664 12.818440437316895 20.46681022644043 L 14.007340431213379 19.328109741210938 C 14.610596656799316 18.616355895996094 14.758198738098145 17.6241397857666 14.388239860534668 16.767610549926758 C 14.270650863647461 16.43906021118164 14.190248489379883 16.09836769104004 14.148539543151855 15.751910209655762 C 14.111238479614258 14.838357925415039 14.821578979492188 14.06753921508789 15.735130310058594 14.030237197875977 C 15.783717155456543 14.028253555297852 15.832366943359375 14.028410911560059 15.880940437316895 14.030710220336914 C 16.218364715576172 14.07468032836914 16.54952621459961 14.1577730178833 16.867740631103516 14.27830982208252 C 17.711545944213867 14.665735244750977 18.703392028808594 14.529207229614258 19.41114044189453 13.928210258483887 L 20.549339294433594 12.740209579467773 C 21.209762573242188 12.051545143127441 21.29214096069336 10.99240779876709 20.746139526367188 10.20991039276123 C 17.355539321899414 6.11230993270874 12.262740135192871 6.9546098709106445 9.731040000915527 7.720709800720215 C 8.745417594909668 8.08629322052002 7.945956707000732 8.829331398010254 7.509339809417725 9.78561019897461 C 6.607940196990967 12.213410377502441 5.625539779663086 17.096710205078125 10.268139839172363 20.68840980529785" stroke-width="1.0" fill="rgb(201, 132, 40)" opacity="1.0"/>
    <path d="M 46.056739807128906 10.20991039276123 C 45.510597229003906 10.992431640625 45.5931510925293 12.051745414733887 46.253929138183594 12.740209579467773 L 47.38922882080078 13.928210258483887 C 48.097137451171875 14.528851509094238 49.088768005371094 14.665349960327148 49.9326286315918 14.27830982208252 C 50.25120162963867 14.158367156982422 50.58245849609375 14.07529354095459 50.91992950439453 14.030710220336914 C 51.83295822143555 13.986959457397461 52.60858154296875 14.69164752960205 52.6523323059082 15.60467529296875 C 52.65468215942383 15.653721809387207 52.65484619140625 15.702848434448242 52.652828216552734 15.751910209655762 C 52.613040924072266 16.098705291748047 52.532588958740234 16.439617156982422 52.41313171386719 16.767610549926758 C 52.04393768310547 17.62424087524414 52.19147491455078 18.616037368774414 52.794029235839844 19.328109741210938 L 53.98242950439453 20.46681022644043 C 54.678382873535156 21.122478485107422 55.73360061645508 21.21418571472168 56.532230377197266 20.68840980529785 C 61.177330017089844 17.096710205078125 60.192928314208984 12.213410377502441 59.29352951049805 9.78561019897461 C 58.85759735107422 8.82938289642334 58.0586051940918 8.08627700805664 57.07332992553711 7.720709800720215 C 54.540531158447266 6.9546098709106445 49.44832992553711 6.11230993270874 46.056739807128906 10.20991039276123" stroke-width="1.0" fill="rgb(201, 132, 40)" opacity="1.0"/>
    <path d="M 47.55183029174805 24.775909423828125 C 46.42949676513672 24.201435089111328 45.18562698364258 23.904855728149414 43.92483139038086 23.911109924316406 C 39.998626708984375 24.083881378173828 36.48775863647461 26.40788459777832 34.79492950439453 29.95461082458496 C 34.66653060913086 30.209409713745117 34.537628173828125 30.486309051513672 34.40433120727539 30.800809860229492 C 34.16998291015625 31.35370635986328 33.531795501708984 31.611942291259766 32.97890090942383 31.377593994140625 C 32.71769332885742 31.26688003540039 32.510101318359375 31.05845832824707 32.400428771972656 30.796810150146484 C 32.2700309753418 30.49070930480957 32.14413070678711 30.216310501098633 32.00883102416992 29.956010818481445 C 30.31776237487793 26.408910751342773 26.80771255493164 24.084142684936523 22.881940841674805 23.911109924316406 C 21.621448516845703 23.9061279296875 20.37803840637207 24.202640533447266 19.25543975830078 24.775909423828125 C 17.100130081176758 25.917156219482422 15.552735328674316 27.9450626373291 15.021039962768555 30.325210571289062 C 14.398480415344238 32.97254180908203 14.756709098815918 35.75580596923828 16.029340744018555 38.159210205078125 C 17.942440032958984 41.88861083984375 19.476640701293945 43.8418083190918 22.539140701293945 44.1533088684082 C 23.137561798095703 44.21542739868164 23.57232093811035 44.75090026855469 23.510202407836914 45.34932327270508 C 23.482437133789062 45.61680221557617 23.35671615600586 45.86456298828125 23.15723991394043 46.0449104309082 C 20.659740447998047 48.310508728027344 20.148540496826172 51.30860900878906 20.148540496826172 55.113311767578125 C 20.148540496826172 62.516685485839844 26.150163650512695 68.518310546875 33.55353927612305 68.518310546875 C 40.95691680908203 68.518310546875 46.95854187011719 62.516685485839844 46.95854187011719 55.113311767578125 C 46.95854187011719 51.83401107788086 46.58504104614258 48.45901107788086 43.873138427734375 46.02540969848633 C 43.426448822021484 45.62331771850586 43.39029312133789 44.935245513916016 43.79238510131836 44.488555908203125 C 43.96755599975586 44.29395294189453 44.20701599121094 44.16903305053711 44.46683883666992 44.13671112060547 C 47.41653823852539 43.76361083984375 48.85163879394531 41.911109924316406 50.778839111328125 38.161109924316406 C 52.05080795288086 35.75785446166992 52.40901184082031 32.97514724731445 51.787139892578125 30.328109741210938 C 51.25347900390625 27.947887420654297 49.70635223388672 25.91971206665039 47.55183029174805 24.775909423828125" stroke-width="1.0" fill="rgb(201, 132, 40)" opacity="1.0"/>
  </g>
</svg>
