<?xml version="1.0" ?>
<svg xmlns="http://www.w3.org/2000/svg" version="1.1" width="90" height="67">
  <defs/>
  <g>
    <path d="M 77.62689971923828 42.60469055175781 C 77.62689971923828 54.380088806152344 73.04190063476562 63.92599105834961 67.38569641113281 63.92599105834961 L 22.039499282836914 63.92599105834961 C 16.38330078125 63.92599105834961 11.797800064086914 54.380088806152344 11.797800064086914 42.60469055175781 L 11.797800064086914 42.60469055175781 C 11.797800064086914 30.828290939331055 16.38330078125 21.28289031982422 22.039499282836914 21.28289031982422 L 67.38569641113281 21.28289031982422 C 73.04190063476562 21.28289031982422 77.62689971923828 30.828290939331055 77.62689971923828 42.60469055175781" stroke-width="1.0" fill="rgb(195, 228, 237)" opacity="1.0"/>
    <path d="M 33.40380096435547 17.017789840698242 C 33.40446090698242 15.150735855102539 34.91854476928711 13.637727737426758 36.78559875488281 13.63839054107666 C 38.652652740478516 13.639053344726562 40.1656608581543 15.153136253356934 40.165000915527344 17.02018928527832 C 40.164337158203125 18.88650131225586 38.65141296386719 20.39920425415039 36.785099029541016 20.39958953857422 C 34.91800308227539 20.39828872680664 33.40482711791992 18.884885787963867 33.40380096435547 17.017789840698242" stroke-width="1.0" fill="rgb(195, 228, 237)" opacity="1.0"/>
    <path d="M 50.44279861450195 16.939189910888672 C 50.44343566894531 15.072108268737793 51.95751953125 13.55905532836914 53.82460021972656 13.559690475463867 C 55.691680908203125 13.560325622558594 57.204734802246094 15.074408531188965 57.204097747802734 16.941490173339844 C 57.20346450805664 18.807828903198242 55.6905403137207 20.320575714111328 53.82419967651367 20.32098960876465 C 51.95708465576172 20.31969451904297 50.44387435913086 18.806304931640625 50.44279861450195 16.939189910888672" stroke-width="1.0" fill="rgb(195, 228, 237)" opacity="1.0"/>
    <path d="M 73.68840026855469 27.20138931274414 C 72.76295471191406 26.982114791870117 72.03485870361328 26.26868438720703 71.79679870605469 25.347890853881836 C 70.93236541748047 22.36098289489746 67.81023406982422 20.640380859375 64.82332611083984 21.50481605529785 C 62.99325180053711 22.034454345703125 61.5551643371582 23.45366859436035 61.001399993896484 25.27659034729004 C 60.788734436035156 26.181995391845703 60.01585388183594 26.84653663635254 59.08879852294922 26.92108917236328 L 32.46969985961914 26.92108917236328 C 31.542829513549805 26.846101760864258 30.770170211791992 26.18174934387207 30.557100296020508 25.27659034729004 C 29.6472225189209 22.296875 26.49408531188965 20.618942260742188 23.51436996459961 21.528820037841797 C 21.719484329223633 22.076902389526367 20.314682006835938 23.48170280456543 19.766599655151367 25.27659034729004 C 19.527048110961914 26.18683624267578 18.783824920654297 26.877166748046875 17.858400344848633 27.04899024963379 C 7.678527355194092 28.245498657226562 0.004588982556015253 36.87034225463867 0.0 47.12028884887695 L 0.0 47.790191650390625 C -0.0007898080511949956 58.945411682128906 9.04147720336914 67.98925018310547 20.196699142456055 67.99038696289062 L 70.35199737548828 67.99038696289062 C 81.50675201416016 67.98974609375 90.54894256591797 58.94651794433594 90.54830169677734 47.791770935058594 C 90.54830169677734 47.79124450683594 90.54830169677734 47.79071807861328 90.54830169677734 47.790191650390625 L 90.54830169677734 47.12028884887695 C 90.54756927490234 37.25398635864258 83.41901397705078 28.83205223083496 73.68840026855469 27.20138931274414" stroke-width="1.0" fill="rgb(163, 171, 173)" opacity="1.0"/>
    <path d="M 10.874500274658203 20.23358917236328 C 11.653094291687012 20.52490997314453 12.048108100891113 21.392248153686523 11.756787300109863 22.170841217041016 C 11.74118423461914 22.212543487548828 11.723737716674805 22.2535343170166 11.704500198364258 22.293689727783203 C 10.916276931762695 24.115936279296875 10.46910572052002 26.067346572875977 10.385199546813965 28.050989151000977 C 10.37399959564209 28.30289077758789 10.370599746704102 28.557790756225586 10.370599746704102 28.807790756225586 C 10.37399959564209 29.22188949584961 11.065400123596191 29.231689453125 11.926199913024902 28.894689559936523 C 13.219991683959961 28.394081115722656 14.557416915893555 28.014522552490234 15.921299934387207 27.760889053344727 C 16.827600479125977 27.591989517211914 19.351999282836914 26.097890853881836 19.766599655151367 25.27659034729004 C 21.028799057006836 22.774089813232422 22.013599395751953 21.740890502929688 24.999500274658203 21.740890502929688 C 27.934499740600586 21.740890502929688 29.27239990234375 22.845890045166016 30.557100296020508 25.27659034729004 C 31.443798065185547 26.36375617980957 32.6818962097168 27.107641220092773 34.058101654052734 27.380090713500977 L 57.17570114135742 27.380090713500977 C 58.099098205566406 27.380090713500977 60.13669967651367 26.904489517211914 60.56930160522461 26.089990615844727 C 61.857398986816406 23.660390853881836 63.30070114135742 21.740890502929688 66.23290252685547 21.740890502929688 C 69.27100372314453 21.740890502929688 70.55760192871094 22.780990600585938 71.79679870605469 25.347890853881836 C 72.71585083007812 26.530439376831055 73.93727111816406 27.442773818969727 75.33200073242188 27.988489151000977 C 76.43944549560547 28.254186630249023 77.52457427978516 28.605510711669922 78.57759857177734 29.039289474487305 C 79.43009948730469 29.393789291381836 80.13330078125 29.35858917236328 80.15570068359375 28.894689559936523 C 80.17040252685547 28.61539077758789 80.17669677734375 28.335189819335938 80.17669677734375 28.050989151000977 C 80.18807220458984 25.92949104309082 79.73858642578125 23.830827713012695 78.85929870605469 21.900089263916016 C 78.46489715576172 21.09925651550293 78.79438018798828 20.130327224731445 79.59521484375 19.735925674438477 C 79.59713745117188 19.734975814819336 79.59906768798828 19.734031677246094 79.60099792480469 19.733089447021484 C 85.33149719238281 16.73649024963379 89.99649810791016 9.63109016418457 80.08100128173828 2.36149001121521 C 71.2031021118164 -4.148210048675537 67.03170013427734 4.383490085601807 65.52529907226562 8.938190460205078 C 65.2833251953125 9.753976821899414 64.42584228515625 10.219144821166992 63.61005783081055 9.9771728515625 C 63.56956100463867 9.965160369873047 63.52957534790039 9.951488494873047 63.49020004272461 9.936189651489258 C 60.06128692626953 8.67432689666748 56.517234802246094 7.750667572021484 52.908599853515625 7.178390026092529 C 50.640098571777344 6.780990123748779 41.444801330566406 6.898190021514893 37.50830078125 7.203289985656738 C 36.40080642700195 7.315713882446289 35.300106048583984 7.487191200256348 34.210899353027344 7.716989994049072 C 31.404752731323242 8.309292793273926 28.654598236083984 9.141277313232422 25.990699768066406 10.203789710998535 C 25.256351470947266 10.528373718261719 24.397916793823242 10.19619369506836 24.073333740234375 9.461845397949219 C 24.0434513092041 9.394238471984863 24.018768310546875 9.324450492858887 23.999500274658203 9.253089904785156 C 22.582500457763672 4.791689872741699 18.42620086669922 -4.298110008239746 9.341300010681152 2.364989995956421 C -1.1723999977111816 10.071490287780762 4.714300155639648 17.59878921508789 10.874500274658203 20.23358917236328" stroke-width="1.0" fill="rgb(31, 98, 128)" opacity="1.0"/>
    <path d="M 68.77780151367188 7.604690074920654 C 68.26934051513672 8.333144187927246 68.34620666503906 9.319318771362305 68.9614028930664 9.960189819335938 L 70.01850128173828 11.066590309143066 C 70.677734375 11.625683784484863 71.60100555419922 11.75266170501709 72.38670349121094 11.392290115356445 C 72.68327331542969 11.280887603759766 72.9915542602539 11.203557968139648 73.30560302734375 11.161789894104004 C 74.15584564208984 11.121036529541016 74.8781509399414 11.777261734008789 74.91890716552734 12.627511024475098 C 74.92108154296875 12.672941207885742 74.92124938964844 12.718445777893066 74.91940307617188 12.763890266418457 C 74.88212585449219 13.086779594421387 74.80721282958984 13.404202461242676 74.69619750976562 13.70969009399414 C 74.35225677490234 14.507157325744629 74.48958587646484 15.430614471435547 75.05069732666016 16.093490600585938 L 76.1572036743164 17.15349006652832 C 76.80516815185547 17.763893127441406 77.78752899169922 17.849384307861328 78.53119659423828 17.360090255737305 C 82.85590362548828 14.015789985656738 81.93939971923828 9.469889640808105 81.10199737548828 7.209690093994141 C 80.69621276855469 6.31914758682251 79.95216369628906 5.627103805541992 79.03459930419922 5.286789894104004 C 76.67669677734375 4.573890209197998 71.93550109863281 3.789789915084839 68.77780151367188 7.604690074920654" stroke-width="1.0" fill="rgb(238, 211, 210)" opacity="1.0"/>
    <path d="M 10.179200172424316 17.02899932861328 C 10.78652572631836 17.677579879760742 11.76753044128418 17.806596755981445 12.521900177001953 17.337099075317383 L 13.822699546813965 16.53190040588379 C 14.506275177001953 16.00274085998535 14.821884155273438 15.125811576843262 14.63230037689209 14.282400131225586 C 14.583781242370605 13.969280242919922 14.571800231933594 13.65158462524414 14.596599578857422 13.335700035095215 C 14.732316970825195 12.495973587036133 15.523070335388184 11.925260543823242 16.362796783447266 12.0609769821167 C 16.408262252807617 12.06832504272461 16.4533748626709 12.077709197998047 16.49799919128418 12.089099884033203 C 16.80621910095215 12.19207763671875 17.10122299194336 12.331036567687988 17.37689971923828 12.503100395202637 C 18.085891723632812 13.004983901977539 19.018049240112305 13.061746597290039 19.782699584960938 12.6496000289917 L 21.049299240112305 11.786299705505371 C 21.780546188354492 11.278481483459473 22.067241668701172 10.334884643554688 21.74209976196289 9.506099700927734 C 19.36520004272461 4.583199977874756 14.727499961853027 4.539299964904785 12.343199729919434 4.8902997970581055 C 11.388106346130371 5.103221416473389 10.557267189025879 5.688040256500244 10.034600257873535 6.5152997970581055 C 8.848600387573242 8.674489974975586 7.100100040435791 13.150589942932129 10.179200172424316 17.02899932861328" stroke-width="1.0" fill="rgb(238, 211, 210)" opacity="1.0"/>
  </g>
</svg>
