<?xml version="1.0" ?>
<svg xmlns="http://www.w3.org/2000/svg" version="1.1" width="123" height="73">
  <defs/>
  <g>
    <path d="M 77.827392578125 33.063720703125 C 77.8272705078125 35.855648040771484 75.56411743164062 38.11898422241211 72.77218627929688 38.119319915771484 L 72.77218627929688 38.119319915771484 C 69.98052978515625 38.11872482299805 67.71781158447266 35.855377197265625 67.71798706054688 33.063720703125 L 67.71798706054688 33.063720703125 C 67.7182388305664 30.27252960205078 69.98100280761719 28.009946823120117 72.77218627929688 28.009920120239258 L 72.77218627929688 28.009920120239258 C 75.56364440917969 28.009693145751953 77.82684326171875 30.272262573242188 77.827392578125 33.063720703125" stroke-width="1.0" fill="rgb(10, 58, 46)" opacity="1.0"/>
    <path d="M 51.20970153808594 33.063720703125 C 51.20976257324219 35.85572052001953 48.94649887084961 38.11915969848633 46.15449905395508 38.119319915771484 L 46.15449905395508 38.119319915771484 C 43.362937927246094 38.11868667602539 41.10038757324219 35.855281829833984 41.100799560546875 33.063720703125 L 41.100799560546875 33.063720703125 C 41.10081481933594 30.272628784179688 43.36341094970703 28.009992599487305 46.15449905395508 28.009920120239258 L 46.15449905395508 28.009920120239258 C 48.946006774902344 28.009517669677734 51.20929718017578 30.272153854370117 51.20970153808594 33.06365966796875 C 51.20970153808594 33.06367874145508 51.20970153808594 33.06370162963867 51.20970153808594 33.063720703125" stroke-width="1.0" fill="rgb(10, 58, 46)" opacity="1.0"/>
    <path d="M 91.17459106445312 51.4299201965332 C 91.17459106445312 58.892818450927734 80.57688903808594 64.94261932373047 67.50418853759766 64.94261932373047 L 54.66579818725586 64.94261932373047 C 41.59299850463867 64.94261932373047 30.99489974975586 58.892818450927734 30.99489974975586 51.4299201965332 L 30.99489974975586 51.4299201965332 C 30.99489974975586 43.96601867675781 41.59299850463867 37.916221618652344 54.66579818725586 37.916221618652344 L 67.50418853759766 37.916221618652344 C 80.57688903808594 37.916221618652344 91.17459106445312 43.96601867675781 91.17459106445312 51.4299201965332" stroke-width="1.0" fill="rgb(174, 38, 90)" opacity="1.0"/>
    <path d="M 72.7243881225586 9.75652027130127 C 81.87137603759766 14.267899513244629 89.98828125 20.619443893432617 96.56668853759766 28.413320541381836 C 97.79080200195312 29.892820358276367 99.10518646240234 29.670120239257812 99.54029083251953 27.80582046508789 C 102.55879974365234 14.821020126342773 100.8639907836914 6.908420085906982 99.3224868774414 2.979219913482666 C 98.3399887084961 1.093946933746338 96.3632583618164 -0.06071271747350693 94.23848724365234 0.009519999846816063 C 86.64344024658203 0.6671959757804871 79.26670837402344 2.889747142791748 72.5724868774414 6.537320137023926 C 70.88938903808594 7.4435200691223145 71.006591796875 8.904000282287598 72.7243881225586 9.75652027130127" stroke-width="1.0" fill="rgb(206, 142, 66)" opacity="1.0"/>
    <path d="M 81.37869262695312 10.854720115661621 C 87.06582641601562 12.867956161499023 92.27600860595703 16.0338191986084 96.68289184570312 20.154020309448242 C 97.50508880615234 20.937719345092773 98.26148986816406 20.71501922607422 98.38699340820312 19.59052085876465 C 99.25608825683594 11.752619743347168 97.70919036865234 7.222819805145264 96.53099060058594 5.021719932556152 C 95.8223876953125 3.9828288555145264 94.58081817626953 3.442328453063965 93.33759307861328 3.6315200328826904 C 88.92198181152344 4.54664421081543 84.74354553222656 6.36572790145874 81.06519317626953 8.974320411682129 C 80.139892578125 9.623720169067383 80.31079864501953 10.473819732666016 81.37869262695312 10.854720115661621" stroke-width="1.0" fill="rgb(10, 58, 46)" opacity="1.0"/>
    <path d="M 23.915800094604492 29.909420013427734 C 30.479673385620117 22.102863311767578 38.58558654785156 15.736574172973633 47.72529983520508 11.20971965789795 C 49.45289993286133 10.373220443725586 49.550498962402344 9.043620109558105 47.845001220703125 8.176919937133789 C 35.95429992675781 2.1452200412750244 27.866500854492188 1.902519941329956 23.682899475097656 2.4621200561523438 C 21.617481231689453 2.965991497039795 20.02419090270996 4.609945297241211 19.5851993560791 6.690120220184326 C 18.410972595214844 14.222772598266602 18.808820724487305 21.916948318481445 20.753700256347656 29.288320541381836 C 21.231700897216797 31.138919830322266 22.67799949645996 31.373220443725586 23.915800094604492 29.909420013427734" stroke-width="1.0" fill="rgb(206, 142, 66)" opacity="1.0"/>
    <path d="M 27.72879981994629 22.635419845581055 C 31.041162490844727 17.593402862548828 35.35881423950195 13.289539337158203 40.411399841308594 9.99332046508789 C 41.36940002441406 9.382519721984863 41.33330154418945 8.594420433044434 40.27170181274414 8.20382022857666 C 32.867401123046875 5.488920211791992 28.099899291992188 5.909820079803467 25.68090057373047 6.529019832611084 C 24.502893447875977 6.969294548034668 23.681673049926758 8.0460205078125 23.568599700927734 9.2985200881958 C 23.403701782226562 13.804911613464355 24.172924041748047 18.29668426513672 25.827899932861328 22.49142074584961 C 26.237600326538086 23.54412078857422 27.103300094604492 23.58172035217285 27.72879981994629 22.635419845581055" stroke-width="1.0" fill="rgb(10, 58, 46)" opacity="1.0"/>
    <path d="M 122.08129119873047 27.355619430541992 C 114.42131805419922 28.71133804321289 107.04345703125 31.343992233276367 100.2555923461914 35.14371871948242 C 93.77368927001953 22.53141975402832 76.86988830566406 9.257519721984863 61.19749069213867 9.257519721984863 C 45.89139938354492 9.257519721984863 29.410400390625 21.924020767211914 22.615489959716797 34.26871871948242 C 15.991026878356934 30.638748168945312 8.817099571228027 28.117488861083984 1.378190040588379 26.804920196533203 C 0.7385337948799133 26.693939208984375 0.1300216168165207 27.122514724731445 0.019039999693632126 27.762170791625977 C -0.09194161742925644 28.401826858520508 0.3366338014602661 29.010337829589844 0.9762899875640869 29.121320724487305 C 8.182107925415039 30.407859802246094 15.127838134765625 32.868648529052734 21.53639030456543 36.405521392822266 C 21.145158767700195 37.250343322753906 20.797697067260742 38.11475372314453 20.495389938354492 38.99531936645508 C 16.3342342376709 37.48426055908203 11.99758243560791 36.50928497314453 7.590089797973633 36.09392166137695 C 6.943305969238281 36.037776947021484 6.373470783233643 36.51658630371094 6.317327976226807 37.16337203979492 C 6.2611846923828125 37.81015396118164 6.739994049072266 38.37998962402344 7.386778354644775 38.436134338378906 C 7.389114856719971 38.436336517333984 7.391452312469482 38.43653106689453 7.393789768218994 38.43672180175781 C 11.649124145507812 38.84782409667969 15.834617614746094 39.80017852783203 19.84889030456543 41.270721435546875 C 19.617795944213867 42.26432800292969 19.474807739257812 43.27638244628906 19.42159080505371 44.29512023925781 C 19.42159080505371 44.29512023925781 19.294689178466797 44.517818450927734 19.098390579223633 44.92012023925781 C 15.743693351745605 44.91015625 12.44654655456543 45.79143524169922 9.544190406799316 47.473819732666016 C 8.99493408203125 47.81981658935547 8.830158233642578 48.545562744140625 9.176154136657715 49.094818115234375 C 9.392112731933594 49.437644958496094 9.769415855407715 49.64506912231445 10.174590110778809 49.64371871948242 C 10.396018028259277 49.645423889160156 10.613104820251465 49.582298278808594 10.799090385437012 49.462120056152344 C 13.012251853942871 48.17478942871094 15.505209922790527 47.444828033447266 18.063190460205078 47.335121154785156 C 17.0803165435791 49.811275482177734 16.680862426757812 52.48051071166992 16.895790100097656 55.135921478271484 C 17.032989501953125 56.258018493652344 17.624290466308594 56.20331954956055 18.432889938354492 55.41421890258789 C 18.924280166625977 54.93500900268555 19.51361846923828 54.567893981933594 20.160390853881836 54.33811950683594 C 21.225290298461914 53.95331954956055 21.595489501953125 54.70232009887695 21.09449005126953 55.717018127441406 C 19.899690628051758 58.13982009887695 18.48798942565918 62.983619689941406 21.30398941040039 69.67891693115234 C 21.742389678955078 70.72482299804688 22.19508934020996 70.61251831054688 22.330289840698242 69.48551940917969 C 22.536396026611328 67.5118408203125 23.055953979492188 65.58365631103516 23.8693904876709 63.77362060546875 C 24.36648941040039 62.758018493652344 24.710689544677734 62.94062042236328 24.679889678955078 64.07241821289062 C 24.654916763305664 64.78132629394531 24.724733352661133 65.49039459228516 24.887489318847656 66.18081665039062 C 25.153589248657227 67.28141784667969 26.14719009399414 67.251220703125 26.822490692138672 66.34391784667969 C 27.566627502441406 65.29603576660156 28.474571228027344 64.374755859375 29.511489868164062 63.615421295166016 C 30.448989868164062 62.97671890258789 32.1227912902832 63.384918212890625 33.05929183959961 64.02262115478516 C 40.99388885498047 69.44161987304688 51.340091705322266 73.28732299804688 61.197479248046875 73.28732299804688 C 71.11837768554688 73.28732299804688 81.53147888183594 69.39762115478516 89.48407745361328 63.926021575927734 C 90.41818237304688 63.284420013427734 92.094482421875 62.88692092895508 93.00018310546875 63.56761932373047 C 93.94949340820312 64.33252716064453 94.76612091064453 65.24879455566406 95.41718292236328 66.2795181274414 C 96.04218292236328 67.22582244873047 96.97779083251953 67.27651977539062 97.24437713623047 66.18081665039062 C 97.4075698852539 65.48908233642578 97.4791488647461 64.7789077758789 97.45728302001953 64.06851959228516 C 97.42157745361328 62.93571853637695 97.76927947998047 62.751220703125 98.26879119873047 63.769718170166016 C 99.0811538696289 65.58140563964844 99.60017395019531 67.51077270507812 99.80638122558594 69.48551940917969 C 99.94258117675781 70.61251831054688 100.39617919921875 70.71991729736328 100.83418273925781 69.67012023925781 C 103.65007781982422 62.97972106933594 102.2394790649414 58.1340217590332 101.04518127441406 55.717018127441406 C 100.54518127441406 54.69942092895508 100.91478729248047 53.95042037963867 101.9748764038086 54.33612060546875 C 102.6215591430664 54.56486129760742 103.21082305908203 54.93138122558594 103.7018814086914 55.41032028198242 C 104.51487731933594 56.20331954956055 105.107177734375 56.254119873046875 105.2560806274414 55.13201904296875 C 105.48986053466797 52.66579055786133 105.19591522216797 50.17805099487305 104.39379119873047 47.83422088623047 C 107.29586791992188 47.8199577331543 110.15035247802734 48.57147216796875 112.66918182373047 50.01292037963867 C 112.85686492919922 50.132171630859375 113.07421875 50.196434020996094 113.29657745361328 50.198421478271484 C 113.94764709472656 50.19548416137695 114.47306060791016 49.66530990600586 114.47012329101562 49.014244079589844 C 114.46830749511719 48.61283493041992 114.26236724853516 48.23992919921875 113.92357635498047 48.024620056152344 C 110.76013946533203 46.213504791259766 107.15210723876953 45.32605743408203 103.50948333740234 45.46311950683594 C 103.25758361816406 44.88201904296875 103.05687713623047 44.48262023925781 102.9894790649414 44.34981918334961 C 102.95294952392578 43.611549377441406 102.86961364746094 42.876338958740234 102.73998260498047 42.14862060546875 C 107.02301788330078 40.500545501708984 111.50904083251953 39.43854522705078 116.07637786865234 38.99142074584961 C 116.72332763671875 38.93547821044922 117.20243072509766 38.36567306518555 117.146484375 37.71872329711914 C 117.09053802490234 37.07177734375 116.52073669433594 36.59267807006836 115.87378692626953 36.64862060546875 C 111.18779754638672 37.09849166870117 106.58291625976562 38.172462463378906 102.18138122558594 39.842018127441406 Q 101.80278015136719 38.59687042236328 101.27758026123047 37.32542037963867 C 107.8646240234375 33.594139099121094 115.03733825683594 31.00823211669922 122.48998260498047 29.677919387817383 C 123.13092041015625 29.56311798095703 123.55744934082031 28.95046615600586 123.44264221191406 28.309520721435547 C 123.32833099365234 27.671321868896484 122.72016143798828 27.24517822265625 122.08128356933594 27.355619430541992 L 122.08129119873047 27.355619430541992" stroke-width="1.0" fill="rgb(206, 142, 66)" opacity="1.0"/>
    <path d="M 67.63700103759766 46.818519592285156 L 68.12670135498047 46.175018310546875 C 68.34200286865234 45.883018493652344 69.089599609375 44.793121337890625 68.8196029663086 44.247318267822266 C 68.45390319824219 43.55881881713867 66.13059997558594 42.488521575927734 61.19649887084961 42.488521575927734 C 60.78881072998047 42.488521575927734 60.50559997558594 42.51292037963867 60.44559860229492 42.51292037963867 C 59.1374397277832 42.531211853027344 57.83182907104492 42.63395690917969 56.53691101074219 42.820518493652344 C 54.39181137084961 43.15351867675781 52.96800994873047 44.820518493652344 53.355709075927734 45.411319732666016 C 53.59378433227539 45.764892578125 53.86825180053711 46.09254837036133 54.17461013793945 46.388919830322266 C 54.268310546875 46.473819732666016 54.358211517333984 46.582218170166016 54.4397087097168 46.67301940917969 C 55.43810272216797 47.795658111572266 56.51189422607422 48.848899841308594 57.65361022949219 49.82542037963867 C 59.53049850463867 51.460121154785156 63.020809173583984 51.608619689941406 64.7571029663086 49.994319915771484 C 65.80143737792969 49.01540756225586 66.76456451416016 47.95331573486328 67.63700103759766 46.818519592285156" stroke-width="1.0" fill="rgb(174, 38, 90)" opacity="1.0"/>
    <path d="M 86.35858917236328 43.81071853637695 C 86.3587646484375 47.06654357910156 83.71953582763672 49.70604705810547 80.46370697021484 49.70621871948242 C 80.46366882324219 49.70621871948242 80.46363067626953 49.70621871948242 80.46359252929688 49.70621871948242 L 80.46359252929688 49.70621871948242 C 77.2079086303711 49.70586013793945 74.56889343261719 47.066402435302734 74.569091796875 43.81071853637695 L 74.569091796875 43.81071853637695 C 74.5693359375 40.55537796020508 77.208251953125 37.91646194458008 80.46359252929688 37.916221618652344 L 80.46359252929688 37.916221618652344 C 83.7191162109375 37.916221618652344 86.35831451416016 40.55519485473633 86.35858917236328 43.81071853637695" stroke-width="1.0" fill="rgb(223, 168, 189)" opacity="1.0"/>
    <path d="M 46.99589920043945 43.81071853637695 C 46.99602127075195 47.066593170166016 44.356712341308594 49.70609664916992 41.100799560546875 49.70621871948242 L 41.100799560546875 49.70621871948242 C 37.845115661621094 49.70586013793945 35.20610809326172 47.066402435302734 35.206298828125 43.81071853637695 L 35.206298828125 43.81071853637695 C 35.20654296875 40.55537796020508 37.845458984375 37.91646194458008 41.100799560546875 37.916221618652344 L 41.100799560546875 37.916221618652344 C 44.356346130371094 37.916202545166016 46.99558639526367 40.555171966552734 46.99589920043945 43.81071853637695" stroke-width="1.0" fill="rgb(223, 168, 189)" opacity="1.0"/>
  </g>
</svg>
