<?xml version="1.0" ?>
<svg xmlns="http://www.w3.org/2000/svg" version="1.1" width="100" height="94">
  <defs/>
  <g>
    <path d="M 83.41799926757812 51.353599548339844 C 74.43270111083984 41.29199981689453 62.904300689697266 35.723201751708984 56.608421325683594 33.234901428222656 C 56.42580032348633 31.979000091552734 56.21390151977539 30.798900604248047 55.99129867553711 29.661699295043945 L 64.55380249023438 27.597700119018555 L 79.03720092773438 33.05910110473633 L 93.783203125 26.290599822998047 L 92.99520111083984 24.577699661254883 L 78.966796875 31.016199111938477 L 64.67479705810547 25.628000259399414 L 55.84379959106445 27.754899978637695 C 57.00362777709961 25.50101661682129 57.595638275146484 22.998048782348633 57.56842041015625 20.46339988708496 C 57.568138122558594 19.347122192382812 57.459556579589844 18.23350715637207 57.24420166015625 17.138200759887695 L 64.38870239257812 15.6318998336792 L 67.4717025756836 6.62060022354126 L 83.51959991455078 1.8047000169754028 L 82.97657012939453 0.0 L 66.00299835205078 5.091800212860107 L 62.9541015625 14.004899978637695 L 56.76179885864258 15.308099746704102 C 56.19233322143555 13.36422061920166 55.08941650390625 11.618871688842773 53.57820129394531 10.270099639892578 C 55.94541931152344 9.553299903869629 57.57041931152344 8.164600372314453 57.57041931152344 6.548900127410889 C 57.57041931152344 4.204100131988525 54.19142150878906 2.302799940109253 50.02349853515625 2.302799940109253 C 45.85649871826172 2.302799940109253 42.47560119628906 4.204100131988525 42.47560119628906 6.548900127410889 C 42.47560119628906 8.164600372314453 44.10060119628906 9.553299903869629 46.466800689697266 10.270099639892578 C 44.9770622253418 11.598390579223633 43.88486099243164 13.313783645629883 43.31159973144531 15.225600242614746 L 37.50389862060547 14.004899978637695 L 34.45709991455078 5.091800212860107 L 17.47657012939453 0.0010000000474974513 L 16.935569763183594 1.8062000274658203 L 32.981468200683594 6.62060022354126 L 36.06446838378906 15.6318998336792 L 42.818389892578125 17.055200576782227 C 42.58917236328125 18.177762985229492 42.47367858886719 19.320571899414062 42.473670959472656 20.466299057006836 C 42.432777404785156 23.13313865661621 43.08454895019531 25.76495933532715 44.36526870727539 28.10449981689453 C 44.30767059326172 28.357500076293945 44.26076889038086 28.648000717163086 44.20507049560547 28.91510009765625 L 33.34376907348633 26.300800323486328 L 19.050769805908203 31.68899917602539 L 5.02446985244751 25.250499725341797 L 4.236390113830566 26.963899612426758 L 18.98339080810547 33.731998443603516 L 33.46677017211914 28.273000717163086 L 43.83599853515625 30.770099639892578 C 43.68170166015625 31.657800674438477 43.537200927734375 32.5796012878418 43.404300689697266 33.52539825439453 C 36.98249816894531 36.1421012878418 25.96980094909668 41.65629959106445 17.306699752807617 51.35649871826172 C 5.655270099639893 64.404296875 -3.827130079269409 80.86039733886719 1.5400700569152832 85.6592025756836 C 2.449171781539917 86.42251586914062 3.6120517253875732 86.81608581542969 4.79787015914917 86.76180267333984 L 4.801770210266113 86.76180267333984 C 11.148469924926758 86.76180267333984 22.820390701293945 78.46389770507812 33.84376907348633 66.12210083007812 C 37.303348541259766 62.199954986572266 40.26703643798828 57.866912841796875 42.667999267578125 53.220699310302734 C 42.737300872802734 54.43560028076172 42.830101013183594 55.61330032348633 42.9375 56.76570129394531 C 40.563385009765625 63.18025588989258 39.32451629638672 69.95926666259766 39.27642059326172 76.79889678955078 L 23.729469299316406 93.27149963378906 L 25.100570678710938 94.56549835205078 L 41.16307067871094 77.5458984375 L 41.16307067871094 77.1718978881836 C 41.17599868774414 71.77332305908203 41.95259094238281 66.40371704101562 43.46976852416992 61.22269821166992 C 44.75876998901367 69.9677963256836 47.197269439697266 75.8926010131836 50.019569396972656 75.8926010131836 C 53.02347183227539 75.8926010131836 55.60747146606445 69.18360137939453 56.81547164916992 59.49129867553711 C 58.684268951416016 65.19937133789062 59.64421844482422 71.16571807861328 59.66017150878906 77.1718978881836 L 59.66017150878906 77.5458984375 L 75.72267150878906 94.5634994506836 L 77.0937728881836 93.27050018310547 L 61.54587173461914 76.7968978881836 C 61.50007629394531 69.37117767333984 60.04153060913086 62.02200698852539 57.248069763183594 55.1416015625 C 57.327171325683594 54.120201110839844 57.394569396972656 53.08700180053711 57.44239044189453 52.02050018310547 C 59.952388763427734 57.116764068603516 63.125762939453125 61.858455657958984 66.87986755371094 66.12210083007812 C 77.90426635742188 78.46389770507812 89.5751724243164 86.76180267333984 95.92286682128906 86.76180267333984 C 97.10958862304688 86.81623077392578 98.27342224121094 86.42267608642578 99.1835708618164 85.6592025756836 C 104.55177307128906 80.85649871826172 95.06739044189453 64.40239715576172 83.41799926757812 51.353599548339844" stroke-width="1.0" fill="rgb(98, 114, 119)" opacity="1.0"/>
    <path d="M 32.4345703125 64.86329650878906 C 22.082069396972656 76.45800018310547 10.460000038146973 84.87020111083984 4.801770210266113 84.87020111083984 C 4.079415798187256 84.91766357421875 3.3650074005126953 84.69645690917969 2.795870065689087 84.24909973144531 C -0.4462299942970276 81.34970092773438 5.293970108032227 67.64459991455078 18.715869903564453 52.6083984375 C 29.172870635986328 40.89950180053711 43.20800018310547 35.43899917602539 47.75 33.899898529052734 C 46.73339080810547 38.58940124511719 42.89356994628906 53.15140151977539 32.4345703125 64.86329650878906" stroke-width="1.0" fill="rgb(195, 228, 237)" opacity="1.0"/>
    <path d="M 97.92677307128906 84.24909973144531 C 97.35833740234375 84.69632720947266 96.64459228515625 84.91754913330078 95.92286682128906 84.87020111083984 C 90.2626724243164 84.87020111083984 78.6396713256836 76.45800018310547 68.28807067871094 64.86329650878906 C 57.83007049560547 53.15140151977539 53.99026870727539 38.58649826049805 52.973670959472656 33.899898529052734 C 57.514671325683594 35.436100006103516 71.5419692993164 40.88679885864258 82.00787353515625 52.6083984375 C 95.42967224121094 67.64459991455078 101.16899871826172 81.34970092773438 97.92677307128906 84.24909973144531" stroke-width="1.0" fill="rgb(195, 228, 237)" opacity="1.0"/>
    <path d="M 49.21586990356445 4.111400127410889 C 49.21614456176758 4.983512878417969 48.50938415527344 5.690723896026611 47.63726806640625 5.690999507904053 C 46.76515579223633 5.691275596618652 46.057945251464844 4.9845123291015625 46.05767059326172 4.112399578094482 C 46.057395935058594 3.2402865886688232 46.764156341552734 2.5330758094787598 47.636268615722656 2.53279972076416 C 47.63673782348633 2.53279972076416 47.637203216552734 2.53279972076416 47.63766860961914 2.5327999591827393 C 48.509342193603516 2.5330374240875244 49.21585464477539 3.2397263050079346 49.21586990356445 4.111400127410889" stroke-width="1.0" fill="rgb(255, 255, 255)" opacity="1.0"/>
    <circle r="1.5788500308990479" cx="51.88676834106445" cy="4.111400127410889" stroke-width="1.0" fill="rgb(255, 255, 255)" opacity="1.0"/>
    <path d="M 52.60939025878906 3.2553999423980713 C 52.60942459106445 3.6545140743255615 52.28590393066406 3.9780869483947754 51.88679122924805 3.9781200885772705 C 51.487674713134766 3.9781532287597656 51.16410446166992 3.6546339988708496 51.16407012939453 3.2555201053619385 C 51.16403579711914 2.8564059734344482 51.48755645751953 2.5328330993652344 51.88666915893555 2.5327999591827393 C 51.88670349121094 2.5327999591827393 51.88673782348633 2.5327999591827393 51.88676834106445 2.5327999591827393 C 52.285831451416016 2.532855272293091 52.60932540893555 2.8563387393951416 52.60939025878906 3.2553999423980713" stroke-width="1.0" fill="rgb(64, 64, 64)" opacity="1.0"/>
    <path d="M 48.35939025878906 3.2553999423980713 C 48.35969924926758 3.654790163040161 48.03617858886719 3.9788105487823486 47.63679122924805 3.9791195392608643 C 47.23740005493164 3.979428768157959 46.91337966918945 3.655909776687622 46.91307067871094 3.2565197944641113 C 46.91276168823242 2.8571295738220215 47.23627853393555 2.533109188079834 47.63566970825195 2.5327999591827393 C 47.635704040527344 2.5327999591827393 47.635738372802734 2.5327999591827393 47.63576889038086 2.5327999591827393 C 48.0350341796875 2.532418966293335 48.3590087890625 2.85577654838562 48.35939025878906 3.255039691925049 C 48.35939025878906 3.255159616470337 48.35939025878906 3.255279779434204 48.35939025878906 3.2553999423980713" stroke-width="1.0" fill="rgb(64, 64, 64)" opacity="1.0"/>
  </g>
</svg>
