<?xml version="1.0" ?>
<svg xmlns="http://www.w3.org/2000/svg" version="1.1" width="107" height="87">
  <defs/>
  <g>
    <path d="M 96.14550018310547 33.9911994934082 C 96.14563751220703 36.11534118652344 94.42394256591797 37.837486267089844 92.29979705810547 37.83789825439453 L 92.29979705810547 37.83789825439453 C 90.17578887939453 37.837181091308594 88.45426177978516 36.11521530151367 88.4541015625 33.9911994934082 L 88.4541015625 33.9911994934082 C 88.45481872558594 31.86773681640625 90.17633819580078 30.146665573120117 92.29979705810547 30.146499633789062 L 92.29979705810547 30.146499633789062 C 94.42340087890625 30.14632797241211 96.1451187133789 31.867597579956055 96.14550018310547 33.9911994934082" stroke-width="1.0" fill="rgb(193, 216, 244)" opacity="1.0"/>
    <path d="M 86.17769622802734 33.79100036621094 C 86.17769622802734 48.79779815673828 74.9072036743164 60.96390151977539 61.00389862060547 60.96390151977539 L 30.016599655151367 60.96390151977539 C 16.11319923400879 60.96390151977539 4.842700004577637 48.79779815673828 4.842700004577637 33.79100036621094 L 4.842700004577637 33.79100036621094 C 4.842700004577637 18.783199310302734 16.11319923400879 6.616199970245361 30.016599655151367 6.616199970245361 L 61.00389862060547 6.616199970245361 C 74.9072036743164 6.616199970245361 86.17769622802734 18.783199310302734 86.17769622802734 33.79100036621094" stroke-width="1.0" fill="rgb(193, 216, 244)" opacity="1.0"/>
    <path d="M 66.08000183105469 59.7588005065918 C 67.27606964111328 68.17877197265625 68.98927307128906 76.51713562011719 71.20989990234375 84.72660064697266 C 72.03119659423828 87.80370330810547 72.75189971923828 87.66310119628906 73.46869659423828 87.66310119628906 L 76.11720275878906 87.66310119628906 C 77.48139953613281 87.66310119628906 77.1963119506836 83.4072036743164 77.1963119506836 83.4072036743164 C 77.1963119506836 83.4072036743164 75.53710174560547 68.27729797363281 76.02050018310547 56.53030014038086 C 73.6708984375 58.58300018310547 68.73631286621094 59.7588005065918 66.08000183105469 59.7588005065918" stroke-width="1.0" fill="rgb(57, 46, 42)" opacity="1.0"/>
    <path d="M 54.08300018310547 61.987300872802734 C 54.515037536621094 69.70250701904297 55.47956848144531 77.37864685058594 56.96969985961914 84.96089935302734 C 57.51459884643555 87.7958984375 58.24610137939453 87.66310119628906 58.96379852294922 87.66310119628906 L 61.612308502197266 87.66310119628906 C 62.97560119628906 87.66310119628906 63.07709884643555 83.74510192871094 63.07709884643555 83.74510192871094 C 62.933963775634766 75.48576354980469 63.34733581542969 67.2261734008789 64.31439971923828 59.02239990234375 C 61.783199310302734 60.91210174560547 56.739200592041016 61.987300872802734 54.08300018310547 61.987300872802734" stroke-width="1.0" fill="rgb(57, 46, 42)" opacity="1.0"/>
    <path d="M 21.928699493408203 56.000999450683594 C 23.49799919128418 67.86129760742188 27.21769905090332 79.14450073242188 28.573200225830078 84.5322036743164 C 29.400400161743164 87.8125 30.11520004272461 87.6552963256836 30.83690071105957 87.6552963256836 L 33.977500915527344 87.6552963256836 C 34.759700775146484 87.6552963256836 34.502899169921875 83.8115005493164 34.502899169921875 83.8115005493164 C 32.736961364746094 76.20653533935547 31.969432830810547 68.40389251708984 32.21969985961914 60.60060119628906 C 28.97949981689453 60.335899353027344 24.29680061340332 58.559600830078125 21.928699493408203 56.000999450683594" stroke-width="1.0" fill="rgb(57, 46, 42)" opacity="1.0"/>
    <path d="M 11.754799842834473 51.69729995727539 C 12.977499961853027 61.41889953613281 13.655200004577637 77.48629760742188 14.956000328063965 83.92479705810547 C 15.735309600830078 87.8427963256836 16.608400344848633 87.66310119628906 17.47260093688965 87.66310119628906 L 19.51460075378418 87.66310119628906 C 21.153310775756836 87.66310119628906 21.095699310302734 82.24510192871094 21.095699310302734 82.24510192871094 C 21.432666778564453 72.82659149169922 22.25143814086914 63.4315071105957 23.548799514770508 54.09669876098633 C 20.30069923400879 52.25680160522461 14.867199897766113 51.12009811401367 11.754799842834473 51.69729995727539" stroke-width="1.0" fill="rgb(57, 46, 42)" opacity="1.0"/>
    <path d="M 39.52730941772461 7.728499889373779 C 42.68113708496094 7.7894606590271 45.643211364746094 9.254749298095703 47.60540008544922 11.724599838256836 C 48.727500915527344 9.336899757385254 51.9286994934082 7.958000183105469 55.22460174560547 7.958000183105469 C 59.76559829711914 7.958000183105469 64.47949981689453 10.586899757385254 64.12889862060547 16.859399795532227 C 65.58692932128906 15.999066352844238 67.24938201904297 15.546411514282227 68.94230651855469 15.548800468444824 C 75.16790008544922 15.548800468444824 80.93160247802734 21.46579933166504 79.70500183105469 26.45210075378418 C 73.90910339355469 30.4414005279541 80.76850128173828 39.04100036621094 77.52731323242188 44.45119857788086 C 79.466796875 51.595699310302734 74.14640045166016 55.684600830078125 68.89640045166016 55.684600830078125 C 66.45145416259766 55.7380256652832 64.09664154052734 54.76136016845703 62.40719985961914 52.99319839477539 C 63.20109939575195 57.273399353027344 58.76169967651367 60.1171989440918 53.93450164794922 60.1171989440918 C 49.446990966796875 60.28510284423828 45.36750030517578 57.52749252319336 43.85060119628906 53.30080032348633 C 40.6875 57.59370040893555 37.15909957885742 59.20209884643555 33.9921989440918 59.20209884643555 C 28.627899169921875 59.20209884643555 24.305599212646484 54.59469985961914 24.511699676513672 50.67580032348633 C 23.38517951965332 51.22498321533203 22.14565086364746 51.502567291259766 20.892499923706055 51.48630142211914 C 14.839799880981445 51.48630142211914 8.202099800109863 45.69729995727539 14.395500183105469 38.59280014038086 C 10.842700004577637 37.892601013183594 7.727499961853027 35.605499267578125 7.727499961853027 31.363300323486328 C 7.887683868408203 27.542797088623047 11.067361831665039 24.5482234954834 14.890600204467773 24.61720085144043 C 15.794365882873535 24.626508712768555 16.6933650970459 24.749542236328125 17.5664005279541 24.983400344848633 C 14.699199676513672 19.047800064086914 19.887699127197266 13.91409969329834 25.67970085144043 13.91409969329834 C 27.638216018676758 13.911473274230957 29.55112075805664 14.505159378051758 31.163999557495117 15.61620044708252 C 31.923799514770508 10.284199714660645 35.58489990234375 7.728499889373779 39.52730941772461 7.728499889373779" stroke-width="1.0" fill="rgb(105, 148, 224)" opacity="1.0"/>
    <path d="M 106.38569641113281 40.17580032348633 C 108.02339935302734 33.36909866333008 98.90619659423828 12.012700080871582 73.85150146484375 19.555700302124023 C 61.075199127197266 13.694299697875977 55.210899353027344 24.050800323486328 55.13959884643555 26.656200408935547 C 55.05860137939453 29.493200302124023 64.98819732666016 29.730499267578125 68.341796875 29.370100021362305 C 67.47460174560547 30.573200225830078 68.28119659423828 29.616199493408203 67.74610137939453 33.325199127197266 C 67.07710266113281 37.97169876098633 68.470703125 41.81439971923828 71.4823989868164 45.8838005065918 C 77.07319641113281 53.40530014038086 115.6240005493164 55.311500549316406 106.38569641113281 40.17580032348633" stroke-width="1.0" fill="rgb(112, 105, 98)" opacity="1.0"/>
    <path d="M 86.21379852294922 37.83689880371094 C 86.2138671875 39.961307525634766 84.49174499511719 41.68353271484375 82.36734008789062 41.68360137939453 C 82.36729431152344 41.68360137939453 82.36724853515625 41.68360137939453 82.36720275878906 41.68360137939453 L 82.36720275878906 41.68360137939453 C 80.24320983886719 41.6835823059082 78.5213851928711 39.961734771728516 78.52140045166016 37.83774185180664 C 78.52140045166016 37.837459564208984 78.52140045166016 37.837181091308594 78.52140045166016 37.83689880371094 L 78.52140045166016 37.83689880371094 C 78.52202606201172 35.713199615478516 80.24349975585938 33.99177551269531 82.36720275878906 33.9911994934082 L 82.36720275878906 33.9911994934082 C 84.49104309082031 33.99174118041992 86.21276092529297 35.71305847167969 86.21379852294922 37.83689880371094" stroke-width="1.0" fill="rgb(239, 212, 222)" opacity="1.0"/>
  </g>
</svg>
