<?xml version="1.0" ?>
<svg xmlns="http://www.w3.org/2000/svg" version="1.1" width="128" height="76">
  <defs/>
  <g>
    <path d="M 2.7565500736236572 46.92831039428711 L 4.455349922180176 52.12950897216797 L 5.709249973297119 48.30131149291992 Q 6.608650207519531 48.705711364746094 7.579850196838379 49.12950897216797 L 8.940150260925293 53.30720901489258 L 9.974349975585938 50.149009704589844 C 10.790249824523926 50.49861145019531 11.61205005645752 50.846309661865234 12.418649673461914 51.18220901489258 L 13.870849609375 55.63140869140625 L 14.97385025024414 52.26231002807617 C 17.626249313354492 53.37160873413086 19.904050827026367 54.3502082824707 21.031450271606445 54.9459114074707 L 20.88105010986328 56.54740905761719 L 17.726350784301758 57.65481185913086 L 20.664749145507812 58.957611083984375 L 20.416250228881836 61.6627082824707 L 17.726350784301758 62.608009338378906 L 20.226749420166016 63.71931076049805 L 20.0002498626709 66.20761108398438 L 16.15744972229004 67.56111145019531 L 19.734149932861328 69.15090942382812 L 19.4289493560791 72.5006103515625 C 20.654550552368164 73.2506103515625 32.093048095703125 63.6334114074707 47.186248779296875 55.35601043701172 L 72.9758529663086 61.16661071777344 C 74.25809478759766 61.47122573852539 75.54450225830078 60.6786994934082 75.84912109375 59.396453857421875 C 75.859375 59.35329818725586 75.86841583251953 59.30986785888672 75.87625122070312 59.26620864868164 L 62.46455001831055 48.26620864868164 C 67.9438705444336 46.14930725097656 73.68003845214844 44.769412994384766 79.52265167236328 44.1627082824707 C 82.05494689941406 44.61771011352539 98.68724822998047 41.260311126708984 103.84545135498047 55.0377082824707 C 103.86326599121094 55.05446243286133 103.87959289550781 55.072731018066406 103.89424896240234 55.09231185913086 L 99.62625122070312 72.84040832519531 C 99.08370971679688 74.13179779052734 99.60482788085938 75.62434387207031 100.833251953125 76.29740905761719 L 112.89234924316406 63.525909423828125 L 112.82205200195312 63.4127082824707 L 128.8483428955078 59.510311126708984 C 129.1154327392578 58.1468620300293 128.26722717285156 56.81326675415039 126.91915130615234 56.47711181640625 L 111.9592514038086 52.11581039428711 C 111.94599914550781 52.06714630126953 111.92488861083984 52.02096939086914 111.8967514038086 51.97911071777344 C 110.77465057373047 49.13731002807617 99.04125213623047 36.07670974731445 94.3283462524414 32.51420974731445 C 89.56121826171875 28.736995697021484 84.36437225341797 25.53643035888672 78.845947265625 22.979110717773438 C 73.19015502929688 20.379911422729492 67.17951202392578 18.635595321655273 61.010948181152344 17.80331039428711 C 58.46674728393555 17.45522689819336 55.90111541748047 17.2874755859375 53.333248138427734 17.30130958557129 L 47.48414993286133 0.1724099963903427 C 46.29191589355469 -0.29170656204223633 44.949180603027344 0.29854851961135864 44.48506546020508 1.490781545639038 C 44.4578971862793 1.5605649948120117 44.43413162231445 1.6316245794296265 44.413848876953125 1.7037099599838257 L 38.43135070800781 19.219310760498047 C 34.04399108886719 20.33838653564453 29.773357391357422 21.873334884643555 25.67745018005371 23.80331039428711 C 23.00352668762207 25.066781997680664 20.483856201171875 26.633718490600586 18.168149948120117 28.473209381103516 C 15.852250099182129 30.336509704589844 -3.0280001163482666 43.283809661865234 0.4191499948501587 45.64699935913086 C 1.1737761497497559 46.11736297607422 1.9541290998458862 46.545135498046875 2.7565500736236572 46.92831039428711" stroke-width="1.0" fill="rgb(99, 101, 101)" opacity="1.0"/>
    <path d="M 41.862548828125 33.44881057739258 C 42.64671325683594 34.36833572387695 43.33120346069336 35.36838912963867 43.90454864501953 36.43220901489258 C 44.47661209106445 37.4976806640625 44.927650451660156 38.62382125854492 45.24924850463867 39.78961181640625 C 45.60508728027344 41.04098129272461 45.74559020996094 42.34374237060547 45.66474914550781 43.642208099365234 C 44.537384033203125 42.9903450012207 43.53199768066406 42.14734649658203 42.69355010986328 41.150909423828125 C 41.90536117553711 40.23516082763672 41.22101974487305 39.234928131103516 40.65304946899414 38.16851043701172 C 40.08572769165039 37.10026931762695 39.637088775634766 35.97311782836914 39.31515121459961 34.80720901489258 C 38.954402923583984 33.558109283447266 38.811214447021484 32.25625991821289 38.891849517822266 30.95861053466797 C 40.01676559448242 31.613309860229492 41.02146911621094 32.455509185791016 41.862548828125 33.44881057739258" stroke-width="1.0" fill="rgb(197, 201, 201)" opacity="1.0"/>
    <path d="M 35.02804946899414 35.40481185913086 C 35.81614685058594 36.321224212646484 36.49925994873047 37.32291793823242 37.06465148925781 38.39120864868164 C 37.64091110229492 39.45262145996094 38.09388732910156 40.57645797729492 38.41474914550781 41.74081039428711 C 38.78070831298828 42.99183654785156 38.92143249511719 44.297943115234375 38.83034896850586 45.598209381103516 C 37.70247268676758 44.9469108581543 36.697113037109375 44.103485107421875 35.859649658203125 43.10601043701172 C 35.07136154174805 42.19075012207031 34.387603759765625 41.190433502197266 33.821048736572266 40.12361145019531 C 33.25331115722656 39.05704116821289 32.80400466918945 37.931541442871094 32.48115158081055 36.767208099365234 C 32.125091552734375 35.5155029296875 31.983125686645508 34.21262741088867 32.061248779296875 32.91360855102539 C 33.18353271484375 33.57085037231445 34.18660354614258 34.41312026977539 35.02804946899414 35.40481185913086" stroke-width="1.0" fill="rgb(197, 201, 201)" opacity="1.0"/>
    <path d="M 11.616450309753418 36.249610900878906 C 12.665183067321777 36.24856185913086 13.51619815826416 37.097877502441406 13.51724624633789 38.146610260009766 C 13.518293380737305 39.19534683227539 12.668976783752441 40.04636001586914 11.620244026184082 40.04740905761719 C 10.572097778320312 40.04845428466797 9.72132682800293 39.20005416870117 9.719449996948242 38.15190887451172 C 9.715500831604004 37.105255126953125 10.56078052520752 36.253570556640625 11.60743522644043 36.2496223449707 C 11.610440254211426 36.249610900878906 11.613445281982422 36.24960708618164 11.616450309753418 36.249610900878906" stroke-width="1.0" fill="rgb(0, 0, 0)" opacity="1.0"/>
  </g>
</svg>
