<?xml version="1.0" ?>
<svg xmlns="http://www.w3.org/2000/svg" version="1.1" width="52" height="91">
  <defs/>
  <g>
    <path d="M 49.20423126220703 26.610530853271484 C 48.949859619140625 24.832143783569336 49.42472839355469 23.026416778564453 50.52104187011719 21.603229522705078 C 51.810630798339844 19.57832908630371 52.17782974243164 15.889829635620117 47.93952941894531 11.280929565429688 C 45.170928955078125 8.328829765319824 26.00012969970703 -13.427570343017578 2.031330108642578 12.757530212402344 C 2.031330108642578 12.757530212402344 -1.8407700061798096 17.08902931213379 1.1070400476455688 20.592529296875 C 3.38657283782959 23.669233322143555 3.4607272148132324 27.85399627685547 1.2916300296783447 31.00952911376953 C 0.0005300000193528831 33.4055290222168 -1.4725699424743652 35.24872970581055 5.716430187225342 41.70183181762695 C 5.716430187225342 41.70183181762695 26.00012969970703 61.613529205322266 47.93952941894531 41.51633071899414 C 49.60363006591797 39.85173034667969 52.52743148803711 36.512428283691406 52.2164306640625 33.1555290222168 C 52.027931213378906 31.144729614257812 49.54199981689453 28.59882926940918 49.20423126220703 26.610530853271484" stroke-width="1.0" fill="rgb(234, 245, 249)" opacity="1.0"/>
    <path d="M 35.2159309387207 31.130130767822266 C 32.88623046875 29.89598846435547 31.076194763183594 27.867504119873047 30.114330291748047 25.412830352783203 C 29.358152389526367 23.531587600708008 27.540210723876953 22.293724060058594 25.51272964477539 22.279529571533203 C 23.58654022216797 22.342905044555664 21.899858474731445 23.58987045288086 21.2745304107666 25.412830352783203 C 20.310087203979492 27.866395950317383 18.500097274780273 29.89423179626465 16.171430587768555 31.130130767822266 C 13.897529602050781 32.60662841796875 11.62263011932373 34.63542938232422 15.740830421447754 37.03092956542969 C 19.858430862426758 39.42742919921875 22.687129974365234 41.02463150024414 25.268129348754883 40.96453094482422 L 26.120729446411133 40.96453094482422 C 28.70223045349121 41.02463150024414 31.529830932617188 39.42742919921875 35.648040771484375 37.03092956542969 C 39.76573181152344 34.63542938232422 37.49082946777344 32.60472869873047 35.2159309387207 31.130130767822266" stroke-width="1.0" fill="rgb(255, 51, 0)" opacity="1.0"/>
    <path d="M 40.106529235839844 50.717529296875 C 36.055171966552734 52.66277313232422 31.620147705078125 53.67759323120117 27.125999450683594 53.68772888183594 C 22.378620147705078 53.64412307739258 17.69698143005371 52.573001861572266 13.40293025970459 50.54800033569336 C 11.571330070495605 49.70330047607422 11.114330291748047 50.19990158081055 12.110429763793945 51.95429992675781 C 13.590956687927246 54.54679489135742 14.616230964660645 57.37384796142578 15.141730308532715 60.31269836425781 C 16.223230361938477 65.90889739990234 16.401430130004883 74.09439849853516 15.702230453491211 87.3102035522461 C 15.578666687011719 89.21975708007812 17.026500701904297 90.86792755126953 18.936058044433594 90.99149322509766 C 19.006458282470703 90.99604797363281 19.076982498168945 90.99845123291016 19.14752960205078 90.99870300292969 L 26.890729904174805 91.09639739990234 L 27.000530242919922 91.09639739990234 L 34.746131896972656 90.99870300292969 C 36.657203674316406 90.99190521240234 38.200931549072266 89.43717193603516 38.19414138793945 87.52609252929688 C 38.193885803222656 87.45407104492188 38.19137954711914 87.38207244873047 38.18663024902344 87.3102035522461 C 37.462528228759766 73.73500061035156 37.61772918701172 65.69159698486328 38.68413162231445 60.031898498535156 C 39.1732063293457 57.263057708740234 40.10054397583008 54.589881896972656 41.43122863769531 52.112998962402344 C 42.38433074951172 50.338130950927734 41.930728912353516 49.85612869262695 40.106529235839844 50.717529296875" stroke-width="1.0" fill="rgb(117, 123, 125)" opacity="1.0"/>
    <path d="M 37.63093185424805 17.058330535888672 C 39.29289245605469 17.058080673217773 40.640380859375 18.405166625976562 40.640628814697266 20.067129135131836 C 40.64087677001953 21.729093551635742 39.293792724609375 23.076581954956055 37.63182830810547 23.07682991027832 C 35.96986770629883 23.077077865600586 34.622379302978516 21.729991912841797 34.62213134765625 20.068029403686523 C 34.62213134765625 20.067895889282227 34.62213134765625 20.06776237487793 34.62213134765625 20.067630767822266 C 34.62187576293945 18.405893325805664 35.968772888183594 17.058584213256836 37.63050842285156 17.058330535888672 C 37.63064956665039 17.058330535888672 37.63079071044922 17.058330535888672 37.63093185424805 17.058330535888672" stroke-width="1.0" fill="rgb(0, 0, 0)" opacity="1.0" stroke="rgb(0, 0, 0)" stroke-opacity="1.0" stroke-linecap="round" stroke-linejoin="round"/>
    <path d="M 14.382430076599121 17.058330535888672 C 16.04439353942871 17.058080673217773 17.391881942749023 18.405166625976562 17.39212989807129 20.067129135131836 C 17.392377853393555 21.729093551635742 16.0452938079834 23.076581954956055 14.383330345153809 23.07682991027832 C 12.721366882324219 23.077077865600586 11.373878479003906 21.729991912841797 11.373629570007324 20.068029403686523 C 11.373629570007324 20.067895889282227 11.373629570007324 20.06776237487793 11.373629570007324 20.067630767822266 C 11.373370170593262 18.405899047851562 12.720258712768555 17.058589935302734 14.381990432739258 17.058330535888672 C 14.382136344909668 17.058330535888672 14.382283210754395 17.058330535888672 14.382430076599121 17.058330535888672" stroke-width="1.0" fill="rgb(0, 0, 0)" opacity="1.0" stroke="rgb(0, 0, 0)" stroke-opacity="1.0" stroke-linecap="round" stroke-linejoin="round"/>
  </g>
</svg>
