<?xml version="1.0" ?>
<svg xmlns="http://www.w3.org/2000/svg" version="1.1" width="54" height="89">
  <defs/>
  <g>
    <path d="M 25.75933074951172 26.707000732421875 C 27.039865493774414 28.108034133911133 29.213708877563477 28.205717086791992 30.614742279052734 26.925180435180664 C 30.732316970825195 26.817720413208008 30.84227752685547 26.702213287353516 30.943830490112305 26.579500198364258 C 31.68412971496582 25.724000930786133 32.493629455566406 24.7908992767334 33.23683166503906 23.936899185180664 C 34.63433074951172 22.32710075378418 34.70072937011719 19.417400360107422 34.951629638671875 17.303600311279297 C 35.01578903198242 16.278392791748047 35.88932418823242 15.493504524230957 36.915531158447266 15.538999557495117 C 39.04253005981445 15.422300338745117 40.800331115722656 14.836400032043457 39.7690315246582 12.971599578857422 C 39.0097541809082 11.610883712768555 37.61208724975586 10.728205680847168 36.05712890625 10.627400398254395 C 33.936031341552734 10.420299530029297 31.907730102539062 9.819700241088867 32.64603042602539 7.823699951171875 C 33.155521392822266 6.184720993041992 34.610958099365234 5.020623683929443 36.32183074951172 4.883699893951416 C 37.77998352050781 4.958641529083252 39.10834503173828 5.744922637939453 39.87553024291992 6.987199783325195 C 41.14794158935547 8.69379997253418 41.56782913208008 8.664999961853027 41.03562927246094 6.60099983215332 C 39.60894012451172 1.0302000045776367 36.03953170776367 -0.20419999957084656 31.24073028564453 0.025800000876188278 C 23.131330490112305 0.41200000047683716 20.927230834960938 10.389599800109863 20.268030166625977 17.095600128173828 C 20.234100341796875 19.51346206665039 21.13294219970703 21.851459503173828 22.777830123901367 23.623899459838867 C 23.739730834960938 24.60494041442871 24.81100082397461 25.717239379882812 25.75933074951172 26.707000732421875" stroke-width="1.0" fill="rgb(163, 38, 4)" opacity="1.0"/>
    <path d="M 37.70262908935547 21.5522403717041 C 36.55604553222656 20.39830207824707 34.69110870361328 20.39234161376953 33.53717041015625 21.538923263549805 C 33.42536163330078 21.6500186920166 33.32265090942383 21.769908905029297 33.23003005981445 21.89743995666504 L 30.119630813598633 25.82513999938965 C 29.22500991821289 27.047340393066406 27.50898551940918 27.312896728515625 26.286785125732422 26.41827392578125 C 26.117267608642578 26.294191360473633 25.962568283081055 26.15104103088379 25.825729370117188 25.991640090942383 L 21.790529251098633 21.640140533447266 C 20.787561416625977 20.46181869506836 19.019277572631836 20.31966781616211 17.84095573425293 21.322635650634766 C 17.690231323242188 21.450929641723633 17.553525924682617 21.59483528137207 17.433130264282227 21.75193977355957 C 1.2739399671554565 42.43893814086914 -0.051270000636577606 75.56343841552734 0.0014299999456852674 86.09864044189453 C -0.07631851732730865 87.21096801757812 0.0417042151093483 88.32830810546875 0.35012999176979065 89.39984130859375 C 0.9258083701133728 88.77642822265625 1.394066333770752 88.06182861328125 1.7358299493789673 87.28514099121094 C 2.354029893875122 86.1181411743164 3.3169400691986084 86.1181411743164 3.8843300342559814 87.28514099121094 C 4.185927391052246 88.06625366210938 4.631819248199463 88.78363800048828 5.198729991912842 89.39984130859375 C 5.790573596954346 88.78462982177734 6.267499923706055 88.06842803955078 6.606939792633057 87.28514099121094 C 7.225130081176758 86.1181411743164 8.188940048217773 86.1181411743164 8.757329940795898 87.28514099121094 C 9.059128761291504 88.06637573242188 9.50537395477295 88.78378295898438 10.07273006439209 89.39984130859375 C 10.66399097442627 88.78455352783203 11.140276908874512 88.06834411621094 11.479029655456543 87.28514099121094 C 12.098130226135254 86.1181411743164 13.062029838562012 86.1181411743164 13.629429817199707 87.28514099121094 C 13.931825637817383 88.06520080566406 14.376544952392578 88.78227233886719 14.940939903259277 89.39984130859375 C 15.533645629882812 88.7849349975586 16.011240005493164 88.06868743896484 16.351030349731445 87.28514099121094 C 16.96923065185547 86.1181411743164 17.93412971496582 86.1181411743164 18.500530242919922 87.28514099121094 C 18.802249908447266 88.06575775146484 19.24741554260254 88.78301239013672 19.813030242919922 89.39984130859375 C 20.405040740966797 88.78497314453125 20.881689071655273 88.06867980957031 21.220230102539062 87.28514099121094 C 21.84132957458496 86.1181411743164 22.804229736328125 86.1181411743164 23.37162971496582 87.28514099121094 C 23.672008514404297 88.06685638427734 24.1180362701416 88.78446197509766 24.6860294342041 89.39984130859375 C 25.277254104614258 88.7845230102539 25.753536224365234 88.06832122802734 26.092330932617188 87.28514099121094 C 26.710430145263672 86.1181411743164 27.675329208374023 86.1181411743164 28.241729736328125 87.28514099121094 C 28.544511795043945 88.06500244140625 28.989185333251953 88.7820053100586 29.55323028564453 89.39984130859375 C 30.14690589904785 88.78589630126953 30.624361038208008 88.06941223144531 30.96242904663086 87.28514099121094 C 31.582529067993164 86.1181411743164 32.54732894897461 86.1181411743164 33.11183166503906 87.28514099121094 C 33.413368225097656 88.06673431396484 33.86001968383789 88.78424835205078 34.42823028564453 89.39984130859375 C 35.0208740234375 88.78568267822266 35.49730682373047 88.06920623779297 35.83443069458008 87.28514099121094 C 36.4565315246582 86.1181411743164 37.42042922973633 86.1181411743164 37.98683166503906 87.28514099121094 C 38.28824996948242 88.06656646728516 38.73453903198242 88.78404235839844 39.30223083496094 89.39984130859375 C 39.8940544128418 88.78520965576172 40.370113372802734 88.06883239746094 40.7075309753418 87.28514099121094 C 41.32762908935547 86.1181411743164 42.29153060913086 86.1181411743164 42.86183166503906 87.28514099121094 C 43.16110610961914 88.06697082519531 43.60654067993164 88.78466033935547 44.17433166503906 89.39984130859375 C 44.76637649536133 88.78499603271484 45.2430305480957 88.0687026977539 45.5815315246582 87.28514099121094 C 46.201629638671875 86.1181411743164 47.165531158447266 86.1181411743164 47.73394012451172 87.28514099121094 C 48.035037994384766 88.06626892089844 48.4806022644043 88.78368377685547 49.04732894897461 89.39984130859375 C 49.63859176635742 88.78455352783203 50.11487579345703 88.06834411621094 50.45362854003906 87.28514099121094 C 51.074729919433594 86.1181411743164 52.037628173828125 86.1181411743164 52.60594177246094 87.28514099121094 C 52.912750244140625 88.05028533935547 53.33567810058594 88.76356506347656 53.85982894897461 89.39984130859375 C 54.125633239746094 88.32071685791016 54.23322296142578 87.20870208740234 54.179229736328125 86.09864044189453 C 54.98973083496094 44.738739013671875 42.97800064086914 27.223140716552734 37.70262908935547 21.5522403717041" stroke-width="1.0" fill="rgb(211, 118, 26)" opacity="1.0"/>
    <path d="M 16.388229370117188 40.819339752197266 C 16.38957977294922 39.412471771240234 17.531164169311523 38.273075103759766 18.938030242919922 38.27442169189453 C 20.344898223876953 38.27577209472656 21.484296798706055 39.4173583984375 21.482948303222656 40.82422637939453 C 21.481597900390625 42.2310905456543 20.34001350402832 43.37049102783203 18.933147430419922 43.369140625 C 18.93280792236328 43.369140625 18.93246841430664 43.369140625 18.932130813598633 43.369140625 C 17.52676010131836 43.364585876464844 16.389528274536133 42.22471618652344 16.388229370117188 40.819339752197266" stroke-width="1.0" fill="rgb(255, 255, 255)" opacity="1.0"/>
    <path d="M 33.27983093261719 40.819339752197266 C 33.281185150146484 39.412479400634766 34.422767639160156 38.27309036254883 35.82963180541992 38.274444580078125 C 37.23649215698242 38.27579879760742 38.37588119506836 39.417381286621094 38.37452697753906 40.82424545288086 C 38.373172760009766 42.23110580444336 37.231590270996094 43.3704948425293 35.82472610473633 43.369140625 C 35.82439422607422 43.369140625 35.82406234741211 43.369140625 35.82373046875 43.369140625 C 34.41836166381836 43.364585876464844 33.2811279296875 42.22471618652344 33.27983093261719 40.819339752197266" stroke-width="1.0" fill="rgb(255, 255, 255)" opacity="1.0"/>
    <path d="M 35.558128356933594 54.535640716552734 L 33.16352844238281 59.88764190673828 C 32.64068603515625 60.89456558227539 32.24947738647461 61.96453857421875 31.999530792236328 63.07123947143555 C 32.05357360839844 63.13558578491211 32.10038757324219 63.20567321777344 32.139129638671875 63.28023910522461 C 35.26322937011719 69.67424011230469 36.20072937011719 75.25823974609375 34.600128173828125 77.83103942871094 C 34.12498474121094 78.6688003540039 33.2380485534668 79.18844604492188 32.274940490722656 79.1933364868164 C 31.3559513092041 79.20457458496094 30.460020065307617 78.90560150146484 29.7319393157959 78.34474182128906 C 28.533729553222656 77.42774200439453 27.48872947692871 77.49463653564453 26.157730102539062 78.4599380493164 C 25.36211395263672 79.0659408569336 24.40170669555664 79.41692352294922 23.402830123901367 79.46674346923828 C 23.35457420349121 79.46939086914062 23.30617332458496 79.46727752685547 23.258329391479492 79.46044158935547 C 22.212724685668945 79.37003326416016 21.278905868530273 78.76995849609375 20.762229919433594 77.85643768310547 C 18.574729919433594 74.08103942871094 22.669429779052734 64.37793731689453 23.14212989807129 63.28654098510742 C 23.167409896850586 63.22756576538086 23.19917106628418 63.17158889770508 23.23682975769043 63.1196403503418 C 22.878890991210938 62.04739761352539 22.416717529296875 61.0128173828125 21.8569393157959 60.030738830566406 L 19.27393913269043 54.97214126586914 C 18.60409164428711 53.66229248046875 18.951461791992188 52.06175994873047 20.10403060913086 51.14744186401367 L 25.661630630493164 46.748538970947266 C 26.788522720336914 45.86247253417969 28.376596450805664 45.86690139770508 29.4985294342041 46.759239196777344 L 34.66352844238281 50.8686408996582 C 35.764259338378906 51.74318313598633 36.1324577331543 53.25244903564453 35.558128356933594 54.535640716552734" stroke-width="1.0" fill="rgb(226, 184, 166)" opacity="1.0"/>
    <path d="M 36.07963180541992 43.51464080810547 C 35.225162506103516 43.51588439941406 34.53147506713867 42.8242073059082 34.53023147583008 41.96974182128906 C 34.528987884521484 41.11527633666992 35.220664978027344 40.42158508300781 36.075130462646484 40.42034149169922 C 36.929595947265625 40.41910171508789 37.623287200927734 41.110774993896484 37.62452697753906 41.965240478515625 C 37.62453079223633 41.96590805053711 37.62453079223633 41.966575622558594 37.62453079223633 41.96723937988281 C 37.623985290527344 42.82064437866211 36.93303298950195 43.512718200683594 36.07963180541992 43.51464080810547" stroke-width="1.0" fill="rgb(0, 0, 0)" opacity="1.0"/>
    <path d="M 30.828630447387695 66.06974029541016 L 30.649940490722656 66.41204071044922 C 29.737674713134766 67.93433380126953 27.764076232910156 68.4288558959961 26.241783142089844 67.51659393310547 C 25.78835105895996 67.24486541748047 25.408958435058594 66.86547088623047 25.137229919433594 66.41204071044922 C 25.137229919433594 66.41204071044922 25.056129455566406 66.25773620605469 24.961429595947266 66.06974029541016 C 24.86182975769043 65.88184356689453 24.530729293823242 66.36373901367188 24.245630264282227 67.1640396118164 C 23.029830932617188 70.60784149169922 22.005329132080078 74.85833740234375 22.927230834960938 76.45014190673828 C 23.010168075561523 76.60140991210938 23.12842559814453 76.73040771484375 23.271940231323242 76.82614135742188 C 23.929161071777344 76.98350524902344 24.62232780456543 76.84132385253906 25.16452980041504 76.43794250488281 C 26.395780563354492 75.42547607421875 27.078203201293945 73.8921890258789 27.006330490112305 72.29974365234375 C 27.01758575439453 72.06500244140625 27.114126205444336 71.84244537353516 27.277830123901367 71.67384338378906 C 27.643144607543945 71.39933776855469 28.145915985107422 71.39933776855469 28.51123046875 71.67384338378906 C 28.67493438720703 71.84244537353516 28.771474838256836 72.06500244140625 28.782730102539062 72.29974365234375 C 28.709287643432617 73.89270782470703 29.392440795898438 75.42679595947266 30.625530242919922 76.43794250488281 C 31.168672561645508 76.84171295166016 31.862886428833008 76.98388671875 32.52103042602539 76.82614135742188 C 32.66294860839844 76.72943115234375 32.78005599975586 76.6006088256836 32.862831115722656 76.45014190673828 C 33.78953170776367 74.85833740234375 32.762229919433594 70.60784149169922 31.544429779052734 67.1640396118164 C 31.260229110717773 66.36373901367188 30.92622947692871 65.88184356689453 30.828630447387695 66.06974029541016" stroke-width="1.0" fill="rgb(111, 4, 50)" opacity="1.0"/>
    <path d="M 29.25933074951172 46.58684158325195 C 28.286487579345703 45.86832809448242 26.95916175842285 45.86695098876953 25.984830856323242 46.583438873291016 L 22.224130630493164 49.560001373291016 C 21.305400848388672 50.33448791503906 21.023529052734375 51.63060760498047 21.537630081176758 52.71670150756836 L 26.783729553222656 62.993099212646484 C 27.310029983520508 64.02339935302734 28.11772918701172 64.00289916992188 28.589330673217773 62.95109939575195 L 33.30712890625 52.39929962158203 C 33.761024475097656 51.27225112915039 33.44871139526367 49.98133087158203 32.52983093261719 49.1864013671875 L 29.25933074951172 46.58684158325195" stroke-width="1.0" fill="rgb(163, 38, 4)" opacity="1.0"/>
    <path d="M 17.655729293823242 42.3154411315918 C 17.656503677368164 41.46166229248047 18.349254608154297 40.77016830444336 19.20302963256836 40.77094268798828 C 20.056806564331055 40.7717170715332 20.748302459716797 41.4644660949707 20.747528076171875 42.318241119384766 C 20.746755599975586 43.172019958496094 20.054004669189453 43.8635139465332 19.200227737426758 43.86273956298828 C 19.200061798095703 43.86273956298828 19.19989585876465 43.86273956298828 19.199729919433594 43.86273956298828 C 18.346832275390625 43.86004638671875 17.656600952148438 43.16834259033203 17.655729293823242 42.3154411315918" stroke-width="1.0" fill="rgb(0, 0, 0)" opacity="1.0"/>
  </g>
</svg>
