<?xml version="1.0" ?>
<svg xmlns="http://www.w3.org/2000/svg" version="1.1" width="128" height="86">
  <defs/>
  <g>
    <path d="M 119.59481048583984 53.25490188598633 C 122.98931121826172 50.125999450683594 127.8683090209961 46.30080032348633 126.41610717773438 44.049800872802734 C 84.1993179321289 -21.2460994720459 37.62022018432617 16.51959991455078 24.100719451904297 29.904300689697266 C 21.882919311523438 32.099700927734375 19.131919860839844 31.72949981689453 17.274520874023438 29.21980094909668 C 13.275660514831543 24.076757431030273 9.021631240844727 19.137298583984375 4.528429985046387 14.420000076293945 C 2.397520065307617 12.139200210571289 -0.019379999488592148 12.804200172424316 0.00011999999696854502 15.92389965057373 C 0.06362000107765198 25.412200927734375 4.759920120239258 37.31639862060547 7.759920120239258 43.966800689697266 C 9.043120384216309 46.80860137939453 8.695429801940918 51.11629867553711 7.475719928741455 53.98929977416992 C 4.501120090484619 60.98149871826172 2.497220039367676 71.32129669189453 1.4600199460983276 77.65339660644531 C 0.9581199884414673 80.7333984375 2.8038198947906494 81.93949890136719 5.173920154571533 79.908203125 C 8.529430389404297 77.0302963256836 12.9727201461792 72.87409973144531 16.156320571899414 69.83889770507812 C 18.41901969909668 67.68949890136719 21.36142921447754 68.21099853515625 23.839019775390625 70.10449981689453 C 25.42292022705078 71.3125 27.304819107055664 72.53810119628906 29.009920120239258 73.58399963378906 C 31.67292022705078 75.21489715576172 37.9044303894043 77.51080322265625 36.4913215637207 80.1259994506836 C 35.07822036743164 82.73729705810547 35.06161880493164 83.4208984375 38.07242965698242 82.59870147705078 C 41.613807678222656 81.78829193115234 45.30147933959961 81.8748779296875 48.80091857910156 82.85060119628906 C 85.58992004394531 94.70220184326172 110.42491912841797 77.63189697265625 119.66900634765625 69.43659973144531 C 122.00401306152344 67.36430358886719 124.29701232910156 65.36329650878906 125.0558090209961 65.23930358886719 C 125.40930938720703 65.18070220947266 125.85650634765625 65.10649871826172 126.42201232910156 65.01270294189453 C 127.94542694091797 64.75879669189453 124.79891204833984 62.52640151977539 121.71691131591797 60.59769821166992 C 119.06260681152344 58.93949890136719 117.30181121826172 55.37409973144531 119.59481048583984 53.25490188598633" stroke-width="1.0" fill="rgb(142, 211, 214)" opacity="1.0"/>
    <path d="M 85.12122344970703 7.692399978637695 C 85.12122344970703 7.692399978637695 39.487430572509766 42.99810028076172 80.45999908447266 86.55960083007812 C 80.45999908447266 86.55960083007812 117.88088989257812 81.0468978881836 128.4775848388672 63.417999267578125 L 118.56549072265625 55.256900787353516 L 128.4775848388672 45.64950180053711 C 128.4775848388672 45.64950180053711 121.15930938720703 26.081100463867188 85.12122344970703 7.692399978637695" stroke-width="1.0" fill="rgb(240, 217, 220)" opacity="1.0"/>
    <path d="M 100.22860717773438 39.73149871826172 C 100.22888946533203 42.74128723144531 97.78919982910156 45.18142318725586 94.77941131591797 45.18170166015625 C 91.76962280273438 45.181976318359375 89.32948303222656 42.742286682128906 89.32920837402344 39.73249816894531 C 89.32893371582031 36.722713470458984 91.76862335205078 34.28257751464844 94.77841186523438 34.28229904174805 C 94.77874755859375 34.28229904174805 94.77909088134766 34.28229904174805 94.77942657470703 34.28229904174805 C 97.78858184814453 34.28314971923828 100.22776794433594 36.722347259521484 100.22860717773438 39.73149871826172" stroke-width="1.0" fill="rgb(255, 255, 255)" opacity="1.0"/>
    <circle r="2.7040998935699463" cx="95.40831756591797" cy="42.94540023803711" stroke-width="1.0" fill="rgb(64, 62, 57)" opacity="1.0"/>
    <path d="M 80.04112243652344 7.522500038146973 C 70.36921691894531 6.548399925231934 57.27552032470703 10.3149995803833 47.7413215637207 12.878499984741211 C 43.795021057128906 13.936599731445312 43.88391876220703 9.713399887084961 43.4034309387207 5.854499816894531 C 43.07822036743164 3.253499984741211 42.2140007019043 0.7495999932289124 40.16421890258789 0.0 C 40.15542984008789 -0.002400000113993883 70.67292022705078 3.5201001167297363 85.12122344970703 7.692399978637695 C 89.0392074584961 8.827699661254883 84.09971618652344 7.932199954986572 80.04112243652344 7.522500038146973" stroke-width="1.0" fill="rgb(77, 153, 153)" opacity="1.0"/>
  </g>
</svg>
