<?xml version="1.0" ?>
<svg xmlns="http://www.w3.org/2000/svg" version="1.1" width="61" height="91">
  <defs/>
  <g>
    <path d="M 61.42721176147461 44.51232147216797 C 62.49460983276367 35.428321838378906 64.59420776367188 2.1753199100494385 34.349609375 0.08312000334262848 C 31.960830688476562 -0.05360865592956543 29.56537628173828 -0.02149546705186367 27.181119918823242 0.17922000586986542 C -3.00927996635437 3.2256200313568115 -0.14008000493049622 40.45561981201172 0.6029999852180481 44.321319580078125 C 2.253591775894165 58.9036979675293 2.075613021850586 73.63517761230469 0.07320000231266022 88.17342376708984 C -0.21529999375343323 90.13481903076172 0.36959999799728394 90.37651824951172 1.461400032043457 88.72032165527344 C 2.8519999980926514 86.60601806640625 4.257299900054932 84.47711944580078 5.44920015335083 82.7959213256836 C 6.598599910736084 81.18222045898438 7.996600151062012 81.56011962890625 8.658699989318848 83.42881774902344 C 9.43973445892334 85.70952606201172 10.57291316986084 87.85394287109375 12.01710033416748 89.78421783447266 C 13.221199989318848 91.35801696777344 15.035099983215332 90.83602142333984 15.666999816894531 88.95712280273438 C 16.18600082397461 87.41412353515625 16.807600021362305 85.54251861572266 17.357900619506836 83.78572082519531 C 17.95170021057129 81.8951187133789 18.684600830078125 81.94242095947266 19.470199584960938 83.75981903076172 C 20.41816520690918 85.81370544433594 21.51498794555664 87.79554748535156 22.75189971923828 89.68952178955078 C 23.799800872802734 91.37162017822266 25.154800415039062 91.19391632080078 25.815399169921875 89.32482147216797 C 26.83839988708496 86.43611907958984 27.977500915527344 83.50592041015625 29.11618995666504 80.71932220458984 C 29.866762161254883 78.58301544189453 29.826562881469727 76.2484130859375 29.00288963317871 74.13922119140625 L 20.217300415039062 54.92142105102539 C 19.624387741088867 53.73929977416992 19.138385772705078 52.50652313232422 18.765100479125977 51.23781967163086 L 18.80470085144043 50.81652069091797 C 19.09310531616211 48.32405471801758 19.690631866455078 45.87717819213867 20.583499908447266 43.532318115234375 C 23.460899353027344 36.19292068481445 28.215299606323242 35.0997200012207 30.79298973083496 35.0997200012207 C 33.875213623046875 35.106529235839844 36.78997802734375 36.50307083129883 38.72658920288086 38.90092086791992 C 41.0800895690918 41.716819763183594 42.30958938598633 45.832618713378906 42.382789611816406 51.131919860839844 C 42.382789611816406 51.131919860839844 42.382789611816406 51.260318756103516 42.386688232421875 51.42292022705078 C 42.382476806640625 51.616539001464844 42.348060607910156 51.80831527709961 42.284690856933594 51.9913215637207 L 42.179691314697266 52.26422119140625 C 40.92628860473633 55.63682174682617 33.94478988647461 71.14362335205078 33.647499084472656 71.8042221069336 C 33.647499084472656 71.8042221069336 33.04439163208008 73.1451187133789 32.30078887939453 74.79991912841797 C 31.62128257751465 76.83453369140625 31.688426971435547 79.04460906982422 32.49018859863281 81.03421783447266 C 33.53992462158203 83.69361114501953 34.3985710144043 86.42450714111328 35.05958938598633 89.20612335205078 C 35.51559066772461 91.1333236694336 37.04050064086914 91.72081756591797 38.13719177246094 90.07131958007812 C 39.24060821533203 88.33366394042969 40.128944396972656 86.46844482421875 40.78268814086914 84.51661682128906 C 41.43989181518555 82.64652252197266 42.815391540527344 82.3833236694336 43.70259094238281 84.15292358398438 C 44.479469299316406 85.75639343261719 45.02088165283203 87.46358489990234 45.310089111328125 89.22171783447266 C 45.71628952026367 91.16221618652344 47.24559020996094 91.5752182006836 48.21918869018555 89.8492202758789 C 49.41518020629883 87.62461853027344 50.29134750366211 85.2424087524414 50.8217887878418 82.77301788330078 C 51.268089294433594 80.8418197631836 52.54539108276367 80.41561889648438 53.86669158935547 81.89311981201172 C 55.566890716552734 83.79641723632812 57.958499908447266 86.54302215576172 60.33150100708008 89.51962280273438 C 61.568790435791016 91.0669174194336 62.09029006958008 90.81111907958984 61.69089126586914 88.86872100830078 C 59.0629997253418 76.0074234008789 59.88920974731445 57.642120361328125 61.42721176147461 44.51232147216797" stroke-width="1.0" fill="rgb(255, 144, 95)" opacity="1.0"/>
    <path d="M 22.6406192779541 27.94931983947754 C 21.274599075317383 27.95053482055664 20.166236877441406 26.844141006469727 20.165021896362305 25.478120803833008 C 20.163806915283203 24.112098693847656 21.270200729370117 23.00373649597168 22.63622283935547 23.002521514892578 C 24.002243041992188 23.001306533813477 25.110605239868164 24.107702255249023 25.111820220947266 25.473722457885742 C 25.1118221282959 25.475187301635742 25.1118221282959 25.476654052734375 25.111820220947266 25.478120803833008 C 25.11082649230957 26.842514038085938 24.005014419555664 27.948328018188477 22.6406192779541 27.94931983947754" stroke-width="1.0" fill="rgb(0, 0, 0)" opacity="1.0"/>
    <path d="M 39.08251953125 27.94931983947754 C 37.71649932861328 27.94943618774414 36.60902786254883 26.84214973449707 36.608909606933594 25.47612953186035 C 36.608795166015625 24.110107421875 37.71607971191406 23.002635955810547 39.08210372924805 23.002519607543945 C 40.448123931884766 23.002405166625977 41.55559539794922 24.109689712524414 41.55570983886719 25.475711822509766 C 41.55570983886719 25.47651481628418 41.55570983886719 25.477317810058594 41.55570983886719 25.478120803833008 C 41.553924560546875 26.84296226501465 40.447364807128906 27.948631286621094 39.08251953125 27.94931983947754" stroke-width="1.0" fill="rgb(0, 0, 0)" opacity="1.0"/>
    <path d="M 37.87841033935547 54.490318298339844 C 38.769962310791016 52.30590057373047 39.14414978027344 49.944862365722656 38.971710205078125 47.591819763183594 C 37.902809143066406 40.37112045288086 33.92721176147461 38.233421325683594 30.793010711669922 38.233421325683594 C 25.79591941833496 38.233421325683594 23.539520263671875 43.775421142578125 22.579120635986328 47.591819763183594 C 22.202133178710938 49.890228271484375 22.49453353881836 52.248573303222656 23.421419143676758 54.385318756103516 L 29.302709579467773 67.25 C 30.12652015686035 69.05419921875 31.45261001586914 69.04889678955078 32.262210845947266 67.24030303955078 C 33.82571029663086 63.74372100830078 36.2866096496582 58.20951843261719 37.87841033935547 54.490318298339844" stroke-width="1.0" fill="rgb(175, 49, 0)" opacity="1.0"/>
  </g>
</svg>
