<?xml version="1.0" ?>
<svg xmlns="http://www.w3.org/2000/svg" version="1.1" width="79" height="91">
  <defs/>
  <g>
    <path d="M 65.17140197753906 70.7041015625 C 65.34519958496094 68.06880187988281 65.9823989868164 54.53950119018555 61.6161994934082 46.78710174560547 L 60.969200134277344 45.64400100708008 L 62.16600036621094 45.09270095825195 C 62.80270004272461 44.798301696777344 64.56790161132812 44.28120040893555 67.88719940185547 43.3120002746582 C 71.19380187988281 42.35150146484375 77.23829650878906 40.59320068359375 79.32620239257812 39.65420150756836 C 77.7802963256836 37.16550064086914 72.92479705810547 35.32419967651367 68.62789916992188 33.69430160522461 C 65.07759857177734 32.349098205566406 61.729000091552734 31.08099937438965 59.7588005065918 29.39299964904785 C 57.94478225708008 27.817026138305664 56.21315383911133 26.148649215698242 54.57080078125 24.394500732421875 C 52.005401611328125 21.74650001525879 49.816898345947266 19.478500366210938 46.382301330566406 17.671300888061523 C 45.16210174560547 17.034099578857422 42.57469940185547 16.680099487304688 39.08890151977539 16.680099487304688 C 36.65380096435547 16.680099487304688 34.669898986816406 16.848600387573242 34.650901794433594 16.848600387573242 L 34.09230041503906 16.89739990234375 L 33.69430160522461 16.5039005279541 C 28.05270004272461 10.967700004577637 24.097700119018555 10.35830020904541 21.48240089416504 9.955499649047852 C 20.354982376098633 9.867191314697266 19.2583065032959 9.545087814331055 18.26219940185547 9.009699821472168 C 16.999053955078125 8.043074607849121 15.8198881149292 6.9713921546936035 14.737299919128418 5.806099891662598 C 12.68019962310791 3.761199951171875 8.89009952545166 0.0 7.407199859619141 0.0 C 5.517099857330322 0.20990000665187836 4.685100078582764 1.6933000087738037 4.561999797821045 5.116700172424316 L 4.539100170135498 5.678699970245361 L 4.703100204467773 5.602499961853027 L 4.462900161743164 7.708399772644043 C 4.443449020385742 7.910557746887207 4.403374195098877 8.110197067260742 4.343299865722656 8.304200172424316 C 4.667070388793945 9.428298950195312 5.14104700088501 10.503567695617676 5.752399921417236 11.500900268554688 C 6.406498432159424 12.578816413879395 6.927403926849365 13.732109069824219 7.303699970245361 14.935500144958496 L 7.361299991607666 15.134699821472168 L 7.349599838256836 15.336400032043457 C 7.3888020515441895 16.597209930419922 6.398493766784668 17.65107536315918 5.1376848220825195 17.690279006958008 C 5.066877365112305 17.692480087280273 4.996005535125732 17.69138526916504 4.925300121307373 17.687000274658203 C 4.031853199005127 17.628643035888672 3.1506030559539795 17.44823455810547 2.3060998916625977 17.150800704956055 C 1.5580331087112427 16.90491485595703 0.7843108773231506 16.745344161987305 0.0 16.675199508666992 C 1.4053000211715698 19.3705997467041 7.348100185394287 30.027299880981445 19.323200225830078 42.58340072631836 C 29.70599937438965 50.55120086669922 24.75189971923828 79.46189880371094 22.789100646972656 88.94180297851562 C 26.997600555419922 86.92040252685547 36.65380096435547 82.76219940185547 44.8588981628418 82.76219940185547 C 49.321800231933594 82.76219940185547 52.77439880371094 84.00240325927734 55.109901428222656 86.45159912109375 C 58.26559829711914 89.76260375976562 61.64059829711914 91.44529724121094 65.14309692382812 91.45159912109375 C 66.50637817382812 91.4510726928711 67.85719299316406 91.19210052490234 69.1240005493164 90.68840026855469 C 66.24320220947266 86.45449829101562 65.36669921875 74.44329833984375 65.16449737548828 70.80709838867188 L 65.17140197753906 70.7041015625" stroke-width="1.0" fill="rgb(93, 92, 89)" opacity="1.0"/>
    <path d="M 11.689000129699707 9.871500015258789 C 11.505227088928223 9.871638298034668 11.356138229370117 9.722772598266602 11.355999946594238 9.538999557495117 C 11.355862617492676 9.35522747039795 11.504727363586426 9.206138610839844 11.68850040435791 9.206000328063965 C 11.872272491455078 9.205862045288086 12.0213623046875 9.354727745056152 12.021499633789062 9.53849983215332 C 12.021500587463379 9.538666725158691 12.021500587463379 9.538833618164062 12.021499633789062 9.538999557495117 C 12.021224975585938 9.72252082824707 11.872520446777344 9.871224403381348 11.689000129699707 9.871500015258789" stroke-width="1.0" fill="rgb(153, 153, 153)" opacity="1.0"/>
    <path d="M 10.01710033416748 8.253399848937988 C 9.841667175292969 8.253538131713867 9.69933795928955 8.111433029174805 9.699200630187988 7.935999870300293 C 9.69906234741211 7.760566711425781 9.841167449951172 7.61823844909668 10.016600608825684 7.618100166320801 C 10.192033767700195 7.61796236038208 10.334362030029297 7.760066986083984 10.334500312805176 7.935500144958496 C 10.334500312805176 7.935666561126709 10.334500312805176 7.93583345413208 10.334500312805176 7.935999870300293 C 10.334328651428223 8.111224174499512 10.1923246383667 8.253229141235352 10.01710033416748 8.253399848937988" stroke-width="1.0" fill="rgb(153, 153, 153)" opacity="1.0"/>
    <path d="M 10.01710033416748 10.898900032043457 C 9.841667175292969 10.899038314819336 9.69933795928955 10.756933212280273 9.699200630187988 10.581500053405762 C 9.69906234741211 10.40606689453125 9.841167449951172 10.263738632202148 10.016600608825684 10.26360034942627 C 10.192033767700195 10.26346206665039 10.334362030029297 10.405567169189453 10.334500312805176 10.581000328063965 C 10.334500312805176 10.581167221069336 10.334500312805176 10.58133316040039 10.334500312805176 10.581500053405762 C 10.334505081176758 10.756789207458496 10.19240951538086 10.898894309997559 10.017120361328125 10.898900032043457 C 10.01711368560791 10.898900032043457 10.017107009887695 10.898900032043457 10.01710033416748 10.898900032043457" stroke-width="1.0" fill="rgb(153, 153, 153)" opacity="1.0"/>
    <polygon points="60.16299819946289 41.60200119018555 60.16299819946289 31.527999877929688 71.49600219726562 37.97800064086914 60.16299819946289 41.60200119018555" stroke-width="1.0" fill="rgb(219, 218, 218)" opacity="1.0"/>
    <path d="M 23.847700119018555 49.54240036010742 C 23.847700119018555 49.54240036010742 45.7953987121582 55.144500732421875 51.479000091552734 83.96430206298828 C 51.479000091552734 83.96430206298828 38.749000549316406 81.09960174560547 22.789100646972656 88.94180297851562 L 23.847700119018555 49.54240036010742" stroke-width="1.0" fill="rgb(153, 153, 153)" opacity="1.0"/>
    <path d="M 42.94770050048828 20.892499923706055 C 44.289100646972656 21.8125 44.9828987121582 23.1289005279541 44.5 23.83300018310547 C 44.0161018371582 24.537099838256836 42.53860092163086 24.364200592041016 41.19729995727539 23.444299697875977 C 39.8583984375 22.525800704956055 39.16310119628906 21.20800018310547 39.64649963378906 20.5039005279541 C 40.129398345947266 19.799800872802734 41.6088981628418 19.974599838256836 42.94770050048828 20.892499923706055" stroke-width="1.0" fill="rgb(13, 13, 12)" opacity="1.0"/>
    <path d="M 4.561999797821045 5.116700172424316 L 8.829099655151367 5.116700172424316 C 8.829099655151367 5.116700172424316 9.590800285339355 0.7705000042915344 8.49899959564209 0.38519999384880066 C 7.407199859619141 0.0 4.325699806213379 0.6014999747276306 4.561999797821045 5.116700172424316" stroke-width="1.0" fill="rgb(53, 51, 48)" opacity="1.0"/>
  </g>
</svg>
