<?xml version="1.0" ?>
<svg xmlns="http://www.w3.org/2000/svg" version="1.1" width="88" height="91">
  <defs/>
  <g>
    <path d="M 80.8932113647461 33.42399978637695 C 87.40190887451172 23.62660026550293 89.85021209716797 12.559700012207031 88.34430694580078 0.2603999972343445 C 72.67241668701172 -1.409999966621399 62.70270919799805 4.982069969177246 57.92341995239258 18.71246910095215 L 57.94881057739258 18.751070022583008 L 30.827709197998047 18.751070022583008 L 30.852109909057617 18.71246910095215 C 26.07090950012207 4.980070114135742 16.102109909057617 -1.409999966621399 0.42831000685691833 0.26186999678611755 C -1.0862900018692017 12.654370307922363 1.408810019493103 23.792070388793945 8.028909683227539 33.64316940307617 C 7.550105094909668 35.38588333129883 7.307371139526367 37.18497848510742 7.3072099685668945 38.992271423339844 C 7.3072099685668945 51.37166976928711 7.4058098793029785 53.69197082519531 9.50841999053955 64.2940673828125 C 16.39320945739746 99.08997344970703 70.49471282958984 101.9512710571289 79.47621154785156 64.2940673828125 C 82.04161071777344 53.53916931152344 81.67442321777344 51.2818717956543 81.67442321777344 38.992271423339844 C 81.67631530761719 37.10873794555664 81.41333770751953 35.23429489135742 80.8932113647461 33.42399978637695" stroke-width="1.0" fill="rgb(153, 153, 153)" opacity="1.0"/>
    <path d="M 61.643211364746094 29.773069381713867 C 64.2555160522461 29.772794723510742 66.3734359741211 31.890262603759766 66.37371063232422 34.50257110595703 C 66.37398529052734 37.11487579345703 64.25651550292969 39.232791900634766 61.64421081542969 39.233070373535156 C 59.03190231323242 39.23334503173828 56.91398620605469 37.115875244140625 56.91371154785156 34.503570556640625 C 56.91371154785156 34.50340270996094 56.91371154785156 34.50323486328125 56.91371154785156 34.50307083129883 C 56.91340637207031 31.891067504882812 59.03060531616211 29.773374557495117 61.642608642578125 29.773069381713867 C 61.6428108215332 29.773069381713867 61.643009185791016 29.773069381713867 61.643211364746094 29.773069381713867" stroke-width="1.0" fill="rgb(255, 255, 255)" opacity="1.0"/>
    <path d="M 61.643211364746094 33.15436935424805 C 63.49140167236328 33.15400695800781 64.98995208740234 34.6519660949707 64.99031829833984 36.500160217285156 C 64.99068450927734 38.34835433959961 63.49272155761719 39.84690475463867 61.64453125 39.84727096557617 C 59.79633712768555 39.847633361816406 58.29778289794922 38.349674224853516 58.297420501708984 36.50148010253906 C 58.297420501708984 36.50117492675781 58.297420501708984 36.50087356567383 58.297420501708984 36.50056838989258 C 58.29704284667969 34.652889251708984 59.794578552246094 33.154747009277344 61.64226150512695 33.15436935424805 C 61.642578125 33.15436935424805 61.64289474487305 33.15436935424805 61.643211364746094 33.15436935424805" stroke-width="1.0" fill="rgb(57, 46, 42)" opacity="1.0"/>
    <path d="M 28.2379093170166 29.773069381713867 C 30.850215911865234 29.772789001464844 32.9681396484375 31.8902530670166 32.96841812133789 34.502559661865234 C 32.96870040893555 37.1148681640625 30.85123634338379 39.2327880859375 28.238929748535156 39.233070373535156 C 25.626623153686523 39.23335266113281 23.50870132446289 37.11588668823242 23.508420944213867 34.503578186035156 C 23.508420944213867 34.50341033935547 23.508420944213867 34.503238677978516 23.508420944213867 34.50307083129883 C 23.50808334350586 31.89109992980957 25.62523078918457 29.773406982421875 28.237199783325195 29.773069381713867 C 28.237436294555664 29.773069381713867 28.237672805786133 29.773069381713867 28.2379093170166 29.773069381713867" stroke-width="1.0" fill="rgb(255, 255, 255)" opacity="1.0"/>
    <path d="M 9.368709564208984 26.554269790649414 C 3.6575543880462646 20.01300811767578 1.4463638067245483 11.12149429321289 3.428309917449951 2.667069911956787 C 12.262310028076172 2.501070022583008 17.52111053466797 6.562570095062256 19.517210006713867 14.465970039367676 L 9.368709564208984 26.554269790649414" stroke-width="1.0" fill="rgb(219, 218, 218)" opacity="1.0"/>
    <path d="M 73.43611145019531 57.392669677734375 L 50.586509704589844 57.392669677734375 L 50.58161163330078 57.428768157958984 L 72.53671264648438 63.76087188720703 L 72.0797119140625 65.34777069091797 L 50.18220901489258 59.03276824951172 C 49.677391052246094 61.03030776977539 48.282962799072266 62.68524169921875 46.400001525878906 63.521568298339844 L 46.400001525878906 75.9229965209961 L 53.109901428222656 75.9229965209961 C 52.13050079345703 86.27159881591797 35.324798583984375 84.30970001220703 36.27790069580078 75.9229965209961 L 42.87950134277344 75.9229965209961 L 42.87950134277344 63.503570556640625 C 40.96582794189453 62.67947769165039 39.50273132324219 61.067142486572266 38.867801666259766 59.08266830444336 L 17.148000717163086 65.34777069091797 L 16.69099998474121 63.76087188720703 L 38.40879821777344 57.4981689453125 L 38.38629913330078 57.392669677734375 L 15.791609764099121 57.392669677734375 L 15.791609764099121 55.742271423339844 L 38.15681076049805 55.742271423339844 L 38.143211364746094 55.5606689453125 L 16.691999435424805 49.374168395996094 L 17.148000717163086 47.78717041015625 L 38.163700103759766 53.84777069091797 C 38.498619079589844 51.795352935791016 40.268646240234375 50.2861442565918 42.348201751708984 50.279869079589844 L 46.58549880981445 50.279869079589844 C 48.696327209472656 50.2872428894043 50.48271942138672 51.84086608886719 50.782798767089844 53.93027114868164 L 72.07969665527344 47.78717041015625 L 72.5376968383789 49.374168395996094 L 50.79059982299805 55.64466857910156 L 50.7848014831543 55.742271423339844 L 73.43609619140625 55.742271423339844 L 73.43609619140625 57.392669677734375 L 73.43611145019531 57.392669677734375" stroke-width="1.0" fill="rgb(170, 70, 70)" opacity="1.0"/>
    <path d="M 79.40580749511719 26.551870346069336 L 69.2574234008789 14.465999603271484 C 71.25550842285156 6.562099933624268 76.51130676269531 2.5011000633239746 85.34921264648438 2.667099952697754 C 87.3284683227539 11.121235847473145 85.1163101196289 20.011226654052734 79.40580749511719 26.551870346069336" stroke-width="1.0" fill="rgb(219, 218, 218)" opacity="1.0"/>
    <path d="M 28.2379093170166 33.15436935424805 C 30.086103439331055 33.15395736694336 31.58469581604004 34.651878356933594 31.58510971069336 36.50006866455078 C 31.58552360534668 38.348262786865234 30.087602615356445 39.84685516357422 28.239410400390625 39.84727096557617 C 26.391216278076172 39.84768295288086 24.892623901367188 38.349761962890625 24.892210006713867 36.50157165527344 C 24.892210006713867 36.50123596191406 24.892210006713867 36.50090408325195 24.892210006713867 36.50056838989258 C 24.891883850097656 34.65283966064453 26.38949966430664 33.15469741821289 28.23723030090332 33.15436935424805 C 28.237457275390625 33.15436935424805 28.23768424987793 33.15436935424805 28.2379093170166 33.15436935424805" stroke-width="1.0" fill="rgb(57, 46, 42)" opacity="1.0"/>
  </g>
</svg>
