<?xml version="1.0" ?>
<svg xmlns="http://www.w3.org/2000/svg" version="1.1" width="93" height="89">
  <defs/>
  <g>
    <path d="M 93.26828002929688 58.43939971923828 C 92.88831329345703 57.4452018737793 92.12677001953125 56.64408874511719 91.15306854248047 56.214298248291016 L 83.85227966308594 52.972599029541016 C 82.73245239257812 52.4874267578125 81.45341491699219 52.53391647338867 80.37177276611328 53.099098205566406 C 79.38441467285156 52.62825393676758 78.26505279541016 52.511688232421875 77.20187377929688 52.76900100708008 L 68.72136688232422 54.88669967651367 L 67.37177276611328 48.66310119628906 C 67.65184783935547 48.63205337524414 67.92884826660156 48.57766342163086 68.19986724853516 48.5004997253418 L 77.20187377929688 44.781700134277344 C 77.5524673461914 44.69329833984375 77.9606704711914 44.58250045776367 78.3649673461914 44.446800231933594 C 78.4440689086914 44.48830032348633 78.52606964111328 44.52239990234375 78.6031723022461 44.557098388671875 L 78.8024673461914 44.63909912109375 L 87.59446716308594 43.854000091552734 C 88.01818084716797 44.2772102355957 88.35432434082031 44.779788970947266 88.58367156982422 45.33300018310547 C 88.94107055664062 46.033199310302734 89.27896881103516 46.69089889526367 90.01537322998047 46.69089889526367 C 90.76828002929688 46.69089889526367 91.09056854248047 45.96039962768555 91.22917175292969 45.64739990234375 C 92.12487030029297 43.62024688720703 91.20989990234375 41.25065231323242 89.18428039550781 40.35150146484375 L 81.87667083740234 37.11029815673828 C 80.7573013305664 36.63098907470703 79.48214721679688 36.677947998046875 78.40106964111328 37.23830032348633 C 77.41678619384766 36.762939453125 76.29759216308594 36.645503997802734 75.23606872558594 36.90620040893555 L 65.76236724853516 39.27050018310547 C 65.66767120361328 39.2953987121582 65.5699691772461 39.32270050048828 65.46846771240234 39.35689926147461 L 67.92936706542969 37.61520004272461 C 68.51244354248047 37.20127487182617 68.9795150756836 36.64461135864258 69.28587341308594 35.99850082397461 C 70.2569580078125 35.35588455200195 70.93882751464844 34.35956573486328 71.186279296875 33.22169876098633 L 72.04367065429688 29.361299514770508 C 75.92446899414062 21.82710075378418 76.23896789550781 15.285599708557129 72.97917175292969 9.924300193786621 C 69.28196716308594 3.836899995803833 61.75267028808594 1.2207000255584717 59.86587142944336 1.2207000255584717 C 59.343353271484375 1.15059494972229 58.854618072509766 1.4935818910598755 58.74287033081055 2.0088000297546387 C 58.569068908691406 2.911600112915039 59.611968994140625 3.325700044631958 60.37466812133789 3.6317999362945557 C 61.99162292480469 4.18258810043335 63.311859130859375 5.372548580169678 64.02706909179688 6.923799991607666 C 64.64192962646484 8.770746231079102 64.60504150390625 10.772656440734863 63.922569274902344 12.59570026397705 C 63.533870697021484 13.271900177001953 63.19596862792969 13.271900177001953 63.085670471191406 13.271900177001953 C 61.87377166748047 13.271900177001953 59.860069274902344 10.739700317382812 58.81517028808594 8.939399719238281 L 58.05046844482422 7.625999927520752 L 57.297569274902344 8.94480037689209 C 55.77399444580078 11.453930854797363 55.393497467041016 14.493965148925781 56.251670837402344 17.30120086669922 C 57.61886978149414 21.825199127197266 61.653968811035156 25.087900161743164 63.51237106323242 26.392099380493164 C 63.38016128540039 26.679906845092773 63.27931213378906 26.981107711791992 63.211570739746094 27.29050064086914 L 62.32686996459961 31.26849937438965 C 62.31707000732422 31.321300506591797 62.30828094482422 31.37350082397461 62.30147171020508 31.428699493408203 L 58.948001861572266 33.807098388671875 C 58.92259979248047 33.825199127197266 58.89910125732422 33.84130096435547 58.875701904296875 33.85940170288086 C 58.321990966796875 33.74861145019531 57.75878143310547 33.692176818847656 57.19409942626953 33.69089889526367 L 37.03099822998047 33.69089889526367 C 36.80149841308594 33.69089889526367 36.57389831542969 33.70069885253906 36.34149932861328 33.72359848022461 C 36.06081008911133 33.281150817871094 35.69581604003906 32.89824676513672 35.267311096191406 32.59669876098633 L 31.90399932861328 30.21339988708496 C 31.897199630737305 30.161100387573242 31.885499954223633 30.10449981689453 31.875699996948242 30.04439926147461 L 30.99090003967285 26.071800231933594 C 30.92159080505371 25.7628231048584 30.820833206176758 25.461753845214844 30.690200805664062 25.17329978942871 C 32.987998962402344 23.537599563598633 41.885501861572266 16.428199768066406 36.90399932861328 7.724100112915039 L 36.154998779296875 6.405200004577637 L 35.38840103149414 7.719200134277344 C 34.34450149536133 9.517999649047852 32.32590103149414 12.052200317382812 31.11400032043457 12.052200317382812 C 31.001699447631836 12.052200317382812 30.671600341796875 12.052200317382812 30.327899932861328 11.474599838256836 C 29.604433059692383 9.62894344329834 29.550859451293945 7.588070869445801 30.17650032043457 5.706999778747559 C 30.889360427856445 4.153693199157715 32.209259033203125 2.9616129398345947 33.826900482177734 2.410099983215332 C 34.58760070800781 2.1073999404907227 35.63059997558594 1.6899000406265259 35.45970153808594 0.7871000170707703 C 35.345794677734375 0.27251845598220825 34.857120513916016 -0.06937012821435928 34.33467102050781 0.0 C 32.44797134399414 0.0 24.924470901489258 2.6185998916625977 21.223369598388672 8.704099655151367 C 17.961570739746094 14.06879997253418 18.2780704498291 20.608400344848633 22.16377067565918 28.141599655151367 L 23.015369415283203 32.00339889526367 C 23.269989013671875 33.138431549072266 23.951486587524414 34.132015228271484 24.918670654296875 34.77830123901367 C 25.2238826751709 35.4267463684082 25.69146156311035 35.985328674316406 26.27606964111328 36.399898529052734 L 29.23607063293457 38.49700164794922 C 29.210670471191406 38.54930114746094 29.184280395507812 38.60060119628906 29.160869598388672 38.652801513671875 C 28.72930335998535 38.37358093261719 28.254926681518555 38.16691207885742 27.75657081604004 38.04100036621094 L 18.28676986694336 35.68450164794922 C 17.224559783935547 35.4242057800293 16.105100631713867 35.53784942626953 15.116869926452637 36.00630187988281 C 14.03335189819336 35.44563293457031 12.755327224731445 35.401180267333984 11.635470390319824 35.88520050048828 L 4.341469764709473 39.12200164794922 C 3.3735084533691406 39.54635238647461 2.616407632827759 40.34150695800781 2.240000009536743 41.3291015625 C 1.8460570573806763 42.36155700683594 1.881926417350769 43.50876998901367 2.339600086212158 44.51459884643555 C 2.61299991607666 45.14350128173828 3.0046000480651855 45.46139907836914 3.507499933242798 45.46139907836914 C 4.24970006942749 45.46139907836914 4.5817999839782715 44.807098388671875 4.947000026702881 44.088401794433594 C 5.173753261566162 43.53882598876953 5.508495807647705 43.04035186767578 5.931399822235107 42.622501373291016 L 14.664799690246582 43.40919876098633 L 14.731200218200684 43.41350173950195 L 14.938199996948242 43.319801330566406 C 15.010499954223633 43.28710174560547 15.083700180053711 43.25339889526367 15.152099609375 43.21480178833008 C 15.496143341064453 43.33583450317383 15.847389221191406 43.435325622558594 16.203800201416016 43.512699127197266 L 25.443099975585938 47.313499450683594 C 25.934362411499023 47.43817901611328 26.44327163696289 47.47828674316406 26.947999954223633 47.432098388671875 L 25.370800018310547 53.79930114746094 L 16.320999145507812 51.547298431396484 C 15.258017539978027 51.28278350830078 14.136160850524902 51.39568328857422 13.147199630737305 51.86669921875 C 12.063837051391602 51.31297302246094 10.790932655334473 51.267208099365234 9.670599937438965 51.74169921875 L 2.37280011177063 54.98630142211914 C 1.3929842710494995 55.41643142700195 0.6296417713165283 56.22573471069336 0.2574700117111206 57.229000091552734 C -0.12030661106109619 58.253875732421875 -0.08029933273792267 59.386146545410156 0.36886999011039734 60.38180160522461 Q 0.7789899706840515 61.32740020751953 1.5348700284957886 61.3286018371582 C 2.283869981765747 61.3286018371582 2.6178700923919678 60.661598205566406 2.97337007522583 59.950199127197266 C 3.203965902328491 59.401817321777344 3.5400655269622803 58.904090881347656 3.9625699520111084 58.48529815673828 L 12.70376968383789 59.270999908447266 L 12.770170211791992 59.27730178833008 L 12.982170104980469 59.17919921875 C 13.049469947814941 59.14739990234375 13.115870475769043 59.11280059814453 13.185279846191406 59.07809829711914 C 13.529882431030273 59.19501876831055 13.880276679992676 59.29411315917969 14.23507022857666 59.375 L 23.467470169067383 63.17430114746094 C 23.7281551361084 63.23881149291992 23.994260787963867 63.27901840209961 24.26236915588379 63.29439926147461 C 24.77750587463379 64.5195083618164 25.398000717163086 65.69759368896484 26.116870880126953 66.81539916992188 L 20.57200050354004 70.14689636230469 C 19.63365364074707 70.70990753173828 18.92325782775879 71.58505249023438 18.565200805664062 72.61910247802734 C 17.399520874023438 72.9842758178711 16.461750030517578 73.857421875 16.014400482177734 74.99410247802734 L 13.151100158691406 82.44280242919922 C 12.760174751281738 83.43382263183594 12.784102439880371 84.5404052734375 13.217499732971191 85.51360321044922 C 13.670159339904785 86.52088928222656 14.51142692565918 87.30194854736328 15.549500465393066 87.67870330810547 C 15.767728805541992 87.76483154296875 15.999539375305176 87.81146240234375 16.234100341796875 87.81639862060547 C 16.589462280273438 87.83028411865234 16.92986297607422 87.67261505126953 17.149099349975586 87.3926010131836 C 17.528099060058594 86.86810302734375 17.332700729370117 86.2782974243164 17.084699630737305 85.5322036743164 C 16.85655975341797 84.98192596435547 16.74258804321289 84.39104461669922 16.74970054626465 83.79540252685547 L 23.48699951171875 78.16449737548828 L 23.540700912475586 78.12010192871094 L 23.619800567626953 77.89450073242188 C 23.643310546875 77.8281021118164 23.663799285888672 77.75830078125 23.686309814453125 77.69190216064453 C 24.008499145507812 77.5342025756836 24.33370018005371 77.35199737548828 24.640399932861328 77.16400146484375 L 31.967500686645508 74.1156997680664 C 34.76139831542969 76.85449981689453 37.12770080566406 78.24359893798828 39.004600524902344 78.24359893798828 L 56.53779983520508 78.24359893798828 C 58.089599609375 78.24359893798828 59.823001861572266 77.28900146484375 61.698001861572266 75.40670013427734 L 68.75749969482422 78.33979797363281 C 69.16670227050781 78.58489990234375 69.51139831542969 78.77629852294922 69.82589721679688 78.92769622802734 C 69.84931182861328 79.00050354003906 69.8718032836914 79.07659912109375 69.90010070800781 79.14939880371094 L 69.95870208740234 79.30269622802734 L 76.760498046875 85.02539825439453 C 76.7671890258789 85.62252807617188 76.65289306640625 86.21483612060547 76.42449951171875 86.7666015625 C 76.1803970336914 87.51270294189453 75.98799896240234 88.10060119628906 76.36399841308594 88.62200164794922 C 76.56929016113281 88.90858459472656 76.90428161621094 89.07352447509766 77.25659942626953 89.0615005493164 C 77.53535461425781 89.0499267578125 77.80938720703125 88.98562622070312 78.06420135498047 88.87200164794922 C 80.1310806274414 88.06869506835938 81.15863800048828 85.74475860595703 80.36199951171875 83.67530059814453 L 77.4988021850586 76.22699737548828 C 77.05093383789062 75.09027099609375 76.11347198486328 74.21672058105469 74.947998046875 73.85009765625 C 74.59064483642578 72.81566619873047 73.8804931640625 71.94007873535156 72.94210052490234 71.37689971923828 L 67.08080291748047 67.8573989868164 C 67.71260070800781 66.68939971923828 68.25360107421875 65.57659912109375 68.69110107421875 64.53510284423828 C 69.18690490722656 64.56364440917969 69.68395233154297 64.50750732421875 70.16089630126953 64.36910247802734 L 79.1677017211914 60.65039825439453 C 79.54170227050781 60.55419921875 79.94409942626953 60.444801330566406 80.33080291748047 60.31050109863281 C 80.39720153808594 60.345699310302734 80.46649932861328 60.38180160522461 80.53980255126953 60.41210174560547 L 80.7468032836914 60.50680160522461 L 89.55149841308594 59.71969985961914 C 89.97673797607422 60.13626480102539 90.31412506103516 60.633872985839844 90.543701171875 61.183101654052734 C 90.89720153808594 61.8911018371582 91.2322006225586 62.5546989440918 91.97820281982422 62.5546989440918 C 92.73410034179688 62.5546989440918 93.04949951171875 61.82809829711914 93.18920135498047 61.51319885253906 C 93.62604522705078 60.5405158996582 93.65453338623047 59.43326187133789 93.26828002929688 58.43939971923828" stroke-width="1.0" fill="rgb(242, 103, 94)" opacity="1.0"/>
    <path d="M 38.823001861572266 35.626399993896484 C 39.926490783691406 35.626426696777344 40.82102584838867 36.5210075378418 40.82099914550781 37.6245002746582 C 40.82097244262695 38.72799301147461 39.9263916015625 39.622528076171875 38.822898864746094 39.622501373291016 C 37.71944808959961 39.62247085571289 36.824928283691406 38.72795486450195 36.82490158081055 37.6245002746582 C 36.82484436035156 36.521034240722656 37.71933364868164 35.6264533996582 38.82279968261719 35.626399993896484 C 38.82286834716797 35.626399993896484 38.822933197021484 35.626399993896484 38.823001861572266 35.626399993896484" stroke-width="1.0" fill="rgb(0, 0, 0)" opacity="1.0" stroke="rgb(0, 0, 0)" stroke-opacity="1.0" stroke-linecap="round" stroke-linejoin="round"/>
    <path d="M 54.61106872558594 35.626399993896484 C 55.714561462402344 35.626426696777344 56.60909652709961 36.5210075378418 56.60906982421875 37.6245002746582 C 56.60904312133789 38.72799301147461 55.71446228027344 39.622528076171875 54.61096954345703 39.622501373291016 C 53.50751495361328 39.62247085571289 52.612998962402344 38.72795486450195 52.61296844482422 37.6245002746582 C 52.6129150390625 36.521034240722656 53.50740432739258 35.6264533996582 54.610870361328125 35.626399993896484 C 54.61093521118164 35.626399993896484 54.61100387573242 35.626399993896484 54.61106872558594 35.626399993896484" stroke-width="1.0" fill="rgb(0, 0, 0)" opacity="1.0" stroke="rgb(0, 0, 0)" stroke-opacity="1.0" stroke-linecap="round" stroke-linejoin="round"/>
  </g>
</svg>
