<?xml version="1.0" ?>
<svg xmlns="http://www.w3.org/2000/svg" version="1.1" width="109" height="97">
  <defs/>
  <g>
    <path d="M 103.81739807128906 33.394500732421875 L 103.77490234375 33.335899353027344 C 102.86280059814453 32.082000732421875 101.91310119628906 30.78510093688965 100.91549682617188 29.337900161743164 C 96.3198013305664 22.665000915527344 92.06109619140625 19.423799514770508 87.88719940185547 19.423799514770508 C 87.69730377197266 19.423799514770508 87.5073013305664 19.42770004272461 87.31590270996094 19.44529914855957 C 86.30570220947266 17.91010093688965 83.14209747314453 12.296899795532227 80.45220184326172 7.392600059509277 C 77.4823989868164 2.8534998893737793 74.7041015625 0.44040000438690186 71.92919921875 0.0215000007301569 L 71.66410064697266 0.0 C 70.67579650878906 0.0 69.82029724121094 0.7041000127792358 69.12359619140625 2.111299991607666 C 68.83599853515625 2.8534998893737793 69.02739715576172 4.042900085449219 71.80570220947266 10.386699676513672 C 69.75779724121094 6.959000110626221 67.4384994506836 3.598599910736084 64.54199981689453 2.5185000896453857 C 63.95212936401367 2.275876760482788 63.323158264160156 2.1422150135040283 62.68560028076172 2.124000072479248 C 61.88975143432617 2.074350595474243 61.1311149597168 2.4665048122406006 60.71139907836914 3.1445000171661377 C 59.89059829711914 4.472599983215332 60.410701751708984 6.947199821472168 62.28960037231445 10.689399719238281 C 64.2197036743164 15.206000328063965 65.8676986694336 19.10740089416504 66.92379760742188 21.674800872802734 C 68.59230041503906 25.78809928894043 68.65139770507812 27.136699676513672 68.74759674072266 29.1875 L 68.75489807128906 29.404300689697266 C 68.7842025756836 29.86520004272461 68.80269622802734 30.356399536132812 68.85060119628906 30.944299697875977 C 68.88580322265625 31.197200775146484 68.60009765625 31.502899169921875 68.0468978881836 31.8085994720459 C 67.6504898071289 32.04728317260742 67.20325469970703 32.18883514404297 66.74169921875 32.22169876098633 C 66.6490249633789 32.22557830810547 66.55644226074219 32.211971282958984 66.46880340576172 32.18159866333008 C 63.46390151977539 30.84670066833496 61.16849899291992 29.788999557495117 59.6328010559082 29.029300689697266 L 59.42290115356445 28.947200775146484 C 54.32471466064453 27.708450317382812 49.10342788696289 27.046762466430664 43.857398986816406 26.974599838256836 C 22.403799057006836 26.974599838256836 16.334999084472656 40.93259811401367 13.070799827575684 48.43450164794922 L 12.829099655151367 49.00189971923828 L 12.770000457763672 49.186500549316406 C 11.36817455291748 55.759769439697266 10.460867881774902 62.42884063720703 10.055700302124023 69.13770294189453 C 9.402799606323242 68.51069641113281 8.673800468444824 67.7509994506836 8.024900436401367 67.07420349121094 C 5.617199897766113 64.55660247802734 4.30709981918335 63.24509811401367 3.1294000148773193 63.24509811401367 C 1.0527000427246094 63.24509811401367 0.0 65.03900146484375 0.0 68.57710266113281 C 0.0 72.11329650878906 4.069399833679199 79.0176010131836 9.315400123596191 82.61329650878906 C 10.468469619750977 83.41032409667969 11.997244834899902 83.39977264404297 13.139200210571289 82.58689880371094 C 13.423639297485352 82.39897155761719 13.732073783874512 82.25016784667969 14.05620002746582 82.14450073242188 C 16.034948348999023 84.03160858154297 18.11745262145996 85.80683135986328 20.29400062561035 87.46189880371094 C 20.928199768066406 88.31739807128906 21.602100372314453 89.16110229492188 22.284700393676758 89.97949981689453 C 23.000211715698242 91.01390075683594 23.93500328063965 91.8778076171875 25.022499084472656 92.50969696044922 C 27.454099655151367 93.56739807128906 31.057600021362305 94.35639953613281 36.041500091552734 94.93160247802734 C 38.52000045776367 95.24510192871094 42.200199127197266 95.83879852294922 45.15629959106445 96.31050109863281 L 45.61090087890625 96.37689971923828 C 47.100101470947266 96.61720275878906 47.98979949951172 96.76069641113281 48.519500732421875 96.841796875 L 48.52880096435547 97.01170349121094 L 48.769500732421875 97.0 C 49.18050765991211 97.00859832763672 49.58839797973633 96.92691040039062 49.96440124511719 96.76069641113281 C 51.36244583129883 96.43756866455078 52.538394927978516 95.49760437011719 53.161598205566406 94.2051010131836 C 54.39059829711914 91.72750091552734 53.667999267578125 90.1572036743164 52.84130096435547 89.26850128173828 C 51.85820388793945 88.38139343261719 50.81698989868164 87.56090545654297 49.72460174560547 86.8125 C 49.012176513671875 86.33438110351562 48.24928283691406 85.93614959716797 47.44969940185547 85.625 C 60.19340133666992 87.0302963256836 69.86820220947266 88.55269622802734 71.34329986572266 89.37889862060547 C 72.99510192871094 93.220703125 76.41310119628906 95.50679779052734 81.54740142822266 96.19239807128906 C 83.96440124511719 96.19239807128906 85.63819885253906 95.25579833984375 86.49710083007812 93.41310119628906 C 87.34519958496094 91.73829650878906 86.63379669189453 89.86229705810547 84.37550354003906 87.80470275878906 L 80.99420166015625 85.30079650878906 C 79.99385070800781 84.65934753417969 79.19058990478516 83.75349426269531 78.67340087890625 82.68360137939453 C 77.62989807128906 81.16010284423828 77.70359802246094 80.54779815673828 77.72560119628906 80.44139862060547 C 77.74019622802734 80.38569641113281 77.76080322265625 80.30860137939453 77.9175033569336 80.2197036743164 C 81.91596984863281 77.90850830078125 85.30287170410156 74.6734390258789 87.7948989868164 70.78510284423828 C 90.26531982421875 67.36683654785156 91.76614379882812 63.34453582763672 92.13870239257812 59.14350128173828 C 95.47899627685547 58.92770004272461 100.05130004882812 56.357398986816406 103.3364028930664 54.222599029541016 C 107.39209747314453 51.58689880371094 109.44580078125 48.47850036621094 109.44580078125 44.99020004272461 C 109.44969940185547 41.08980178833008 106.96440124511719 37.68939971923828 103.81739807128906 33.394500732421875" stroke-width="1.0" fill="rgb(154, 225, 229)" opacity="1.0"/>
    <circle r="1.8125" cx="90.21389770507812" cy="31.1289005279541" stroke-width="1.0" fill="rgb(52, 59, 61)" opacity="1.0"/>
    <circle r="3.625" cx="80.83059692382812" cy="42.48139953613281" stroke-width="1.0" fill="rgb(248, 168, 172)" opacity="1.0"/>
    <polygon points="85.70559692382812 40.03419876098633 103.31500244140625 41.70119857788086" stroke-width="0.5" fill="none" stroke="rgb(107, 127, 132)" stroke-opacity="1.0" stroke-linecap="round" stroke-linejoin="round"/>
    <polygon points="86.00489807128906 49.033199310302734 103.01609802246094 42.48440170288086" stroke-width="0.5" fill="none" stroke="rgb(107, 127, 132)" stroke-opacity="1.0" stroke-linecap="round" stroke-linejoin="round"/>
    <polygon points="91.59230041503906 51.72169876098633 103.49120330810547 42.48440170288086" stroke-width="0.5" fill="none" stroke="rgb(107, 127, 132)" stroke-opacity="1.0" stroke-linecap="round" stroke-linejoin="round"/>
    <path d="M 107.66899871826172 39.08489990234375 L 103.09329986572266 41.65530014038086 L 109.3949966430664 45.877899169921875 C 109.3949966430664 45.877899169921875 108.19090270996094 39.97560119628906 107.66899871826172 39.08489990234375" stroke-width="1.0" fill="rgb(244, 110, 117)" opacity="1.0"/>
    <path d="M 71.88089752197266 25.485300064086914 L 78.54740142822266 21.818300247192383 C 78.54740142822266 21.818300247192383 72.88089752197266 10.152299880981445 67.54740142822266 7.152299880981445 C 62.21390151977539 4.152299880981445 68.88089752197266 20.152299880981445 71.88089752197266 25.485300064086914" stroke-width="1.0" fill="rgb(197, 201, 201)" opacity="1.0"/>
    <path d="M 79.59329986572266 20.171899795532227 L 84.45559692382812 17.019500732421875 C 84.45559692382812 17.019500732421875 80.32279968261719 6.992199897766113 76.43260192871094 4.414000034332275 C 72.54299926757812 1.8349000215530396 77.40579986572266 15.587900161743164 79.59329986572266 20.171899795532227" stroke-width="1.0" fill="rgb(197, 201, 201)" opacity="1.0"/>
    <polygon points="107.03900146484375 51.077999114990234 103.49099731445312 51.077999114990234 104.43800354003906 53.452999114990234 107.03900146484375 51.077999114990234" stroke-width="1.0" fill="rgb(107, 127, 132)" opacity="1.0"/>
    <polygon points="52.630001068115234 91.46700286865234 48.44499969482422 90.00499725341797 52.630001068115234 93.1050033569336 52.630001068115234 91.46700286865234" stroke-width="1.0" fill="rgb(107, 127, 132)" opacity="1.0"/>
    <polygon points="52.345001220703125 94.72599792480469 48.73099899291992 93.1050033569336 51.93000030517578 95.40799713134766 52.345001220703125 94.72599792480469" stroke-width="1.0" fill="rgb(107, 127, 132)" opacity="1.0"/>
    <polygon points="85.71299743652344 89.8550033569336 82.4219970703125 89.8550033569336 86.14600372314453 90.5989990234375 85.71299743652344 89.8550033569336" stroke-width="1.0" fill="rgb(107, 127, 132)" opacity="1.0"/>
    <polygon points="86.48999786376953 92.80799865722656 83.25499725341797 91.25800323486328 86.20500183105469 93.63600158691406 86.48999786376953 92.80799865722656" stroke-width="1.0" fill="rgb(107, 127, 132)" opacity="1.0"/>
  </g>
</svg>
