<?xml version="1.0" ?>
<svg xmlns="http://www.w3.org/2000/svg" version="1.1" width="89" height="86">
  <defs/>
  <g>
    <path d="M 23.03973960876465 44.092491149902344 C 22.203401565551758 46.96730041503906 20.894855499267578 49.68303680419922 19.167640686035156 52.12858963012695 C 19.167640686035156 52.12858963012695 8.722339630126953 53.20579147338867 6.0778398513793945 48.617889404296875 L 2.740000009536743 42.84638977050781 C 5.48799991607666 43.019290924072266 9.104280471801758 41.627689361572266 12.107179641723633 39.89908981323242 C 12.822999954223633 39.48208999633789 13.534879684448242 39.02608871459961 14.231180191040039 38.539791107177734 C 14.926480293273926 38.587589263916016 21.69308090209961 34.77899169921875 22.17258071899414 34.926490783691406 C 23.980140686035156 35.472389221191406 24.23314094543457 39.73609161376953 23.03973960876465 44.092491149902344" stroke-width="1.0" fill="rgb(170, 138, 125)" opacity="1.0"/>
    <path d="M 16.67453956604004 37.11008834838867 C 16.574960708618164 34.289791107177734 16.432340621948242 36.57878875732422 17.76144027709961 36.013389587402344 C 19.159839630126953 35.41379165649414 18.72134017944336 34.74578857421875 20.805339813232422 34.74578857421875 C 21.18914031982422 34.74578857421875 21.790739059448242 33.37858963012695 22.17254066467285 33.39128875732422 C 21.742128372192383 31.97323226928711 21.178071975708008 30.59923553466797 20.487960815429688 29.287790298461914 C 17.41864013671875 23.969390869140625 11.912739753723145 24.384489059448242 6.599339962005615 27.452789306640625 L 2.4733400344848633 21.864990234375 L 1.4186400175094604 25.52018928527832 L 5.260439872741699 28.314189910888672 C 0.7848399877548218 31.356189727783203 -1.598960041999817 35.55929183959961 1.2096400260925293 40.41178894042969 C 2.5836400985717773 42.79458999633789 7.197959899902344 41.87668991088867 11.60513973236084 39.67449188232422 L 16.67453956604004 37.11008834838867" stroke-width="1.0" fill="rgb(57, 46, 42)" opacity="1.0"/>
    <path d="M 88.89034271240234 25.428390502929688 C 84.63543701171875 19.4313907623291 76.08074188232422 17.34539031982422 72.7995376586914 22.177490234375 C 70.5045394897461 25.55438995361328 71.8336410522461 30.74778938293457 76.782958984375 37.23609161376953 C 82.99484252929688 45.35519027709961 84.1618423461914 52.05929183959961 82.10424041748047 59.23208999633789 C 77.70474243164062 74.54268646240234 65.2243423461914 76.65689086914062 53.451839447021484 79.45968627929688 C 46.34733963012695 84.99188995361328 36.750640869140625 84.74778747558594 34.118839263916016 86.42449188232422 C 32.67073059082031 87.05331420898438 31.047372817993164 87.15185546875 29.53384017944336 86.70278930664062 C 28.94696044921875 86.31999206542969 30.65403938293457 85.60518646240234 31.13644027709961 85.31218719482422 C 29.88243865966797 85.39873504638672 28.64988136291504 85.68217468261719 27.484039306640625 86.15209197998047 C 27.762439727783203 85.04369354248047 29.659839630126953 82.53189086914062 30.649139404296875 82.5973892211914 C 28.81123924255371 80.83659362792969 23.495840072631836 81.11009216308594 19.236040115356445 82.38838958740234 C 19.088102340698242 81.02172088623047 19.79059600830078 79.70349884033203 21.007539749145508 79.06419372558594 C 22.587905883789062 78.24971771240234 24.30841064453125 77.74238586425781 26.07784080505371 77.569091796875 C 26.10424041748047 74.69109344482422 22.027040481567383 71.94599151611328 21.432340621948242 68.07688903808594 C 20.103239059448242 59.51628875732422 25.201839447021484 58.239990234375 26.012439727783203 52.733089447021484 C 27.711639404296875 41.15108871459961 18.907960891723633 37.7936897277832 16.67453956604004 37.11008834838867 C 15.361040115356445 36.710689544677734 12.684240341186523 36.327789306640625 11.632539749145508 36.9352912902832 C 11.552629470825195 35.41376495361328 12.311389923095703 33.97041320800781 13.610039710998535 33.17359161376953 C 17.637439727783203 31.45189094543457 23.42453956604004 33.45969009399414 24.817039489746094 32.25168991088867 C 24.948253631591797 29.968935012817383 25.333465576171875 27.70791244506836 25.965539932250977 25.51049041748047 C 26.502639770507812 24.002689361572266 20.91473960876465 26.568090438842773 18.01333999633789 23.759489059448242 C 17.02113914489746 22.81218910217285 14.762439727783203 22.211589813232422 14.73013973236084 20.335689544677734 C 14.666740417480469 16.6022891998291 21.024139404296875 12.194990158081055 26.930339813232422 9.54458999633789 C 26.807340621948242 8.758489608764648 26.868839263916016 3.2223899364471436 28.85814094543457 4.081789970397949 C 30.21437644958496 4.766017436981201 31.372623443603516 5.786412715911865 32.22233963012695 7.045589923858643 C 32.22233963012695 7.045589923858643 34.639339447021484 -1.2542099952697754 36.532958984375 0.16279000043869019 C 38.42063903808594 1.5758899450302124 38.96744155883789 9.279990196228027 39.697959899902344 10.565190315246582 C 40.43724060058594 11.853190422058105 41.96063995361328 11.721389770507812 43.47724151611328 15.27219009399414 C 45.790740966796875 20.692089080810547 42.67844009399414 22.081790924072266 44.90884017944336 26.002689361572266 C 49.083641052246094 33.35129165649414 62.42544174194336 46.44498825073242 61.43524169921875 62.33269119262695 C 61.291969299316406 64.78648376464844 60.85525894165039 67.21428680419922 60.13444137573242 69.56419372558594 C 60.14324188232422 69.56419372558594 60.15203857421875 69.57389068603516 60.15596008300781 69.57389068603516 C 67.8493423461914 48.242889404296875 53.46554183959961 35.03289031982422 48.53683853149414 21.152090072631836 C 50.649139404296875 12.808289527893066 55.47233963012695 5.343490123748779 64.40003967285156 2.5318899154663086 C 77.53099822998047 -1.593999981880188 91.99384307861328 8.740889549255371 88.89034271240234 25.428390502929688" stroke-width="1.0" fill="rgb(160, 114, 72)" opacity="1.0"/>
    <path d="M 27.069000244140625 14.26928997039795 C 26.583599090576172 13.425490379333496 25.121700286865234 13.35519027709961 23.81410026550293 14.112990379333496 C 22.50550079345703 14.868889808654785 21.84440040588379 16.163789749145508 22.330699920654297 17.006589889526367 C 22.81800079345703 17.84929084777832 24.270200729370117 17.928390502929688 25.58169937133789 17.17159080505371 C 26.88644027709961 16.41568946838379 27.55143928527832 15.115889549255371 27.069000244140625 14.26928997039795" stroke-width="1.0" fill="rgb(255, 255, 255)" opacity="1.0"/>
    <path d="M 23.557340621948242 14.546589851379395 C 22.777544021606445 14.890581130981445 22.410808563232422 15.790809631347656 22.728239059448242 16.581790924072266 C 23.255386352539062 17.250619888305664 24.217880249023438 17.381072998046875 24.90403938293457 16.876689910888672 C 25.687946319580078 16.53724479675293 26.05835723876953 15.63477611541748 25.73896026611328 14.842490196228027 C 25.211944580078125 14.169221878051758 24.244651794433594 14.03802490234375 23.557340621948242 14.546589851379395" stroke-width="1.0" fill="rgb(99, 68, 42)" opacity="1.0"/>
    <polygon points="33.82899856567383 8.484999656677246 35.85900115966797 2.890000104904175 37.720001220703125 10.355999946594238 33.82899856567383 8.484999656677246" stroke-width="1.0" fill="rgb(226, 184, 166)" opacity="1.0"/>
    <polygon points="28.249000549316406 8.798999786376953 29.093000411987305 6.00600004196167 31.29400062561035 8.484999656677246 28.249000549316406 8.798999786376953" stroke-width="1.0" fill="rgb(226, 184, 166)" opacity="1.0"/>
    <polygon points="14.920999526977539 21.172000885009766 16.746999740600586 20.548999786376953 15.833999633789062 22.259000778198242 14.920999526977539 21.172000885009766" stroke-width="1.0" fill="rgb(57, 46, 42)" opacity="1.0"/>
    <path d="M 18.573999404907227 24.216489791870117 C 18.573999404907227 24.216489791870117 21.99287986755371 22.867889404296875 22.584680557250977 21.659889221191406 L 20.577880859375 25.011390686035156 L 18.573999404907227 24.216489791870117" stroke-width="1.0" fill="rgb(57, 46, 42)" opacity="1.0"/>
    <path d="M 62.72523880004883 3.1295900344848633 C 62.72523880004883 3.1295900344848633 53.23603820800781 10.082690238952637 57.04364013671875 21.864990234375 C 60.84833908081055 33.64519119262695 63.63833999633789 51.27798843383789 62.72523880004883 57.325889587402344 C 62.72523880004883 57.325889587402344 60.061241149902344 43.23019027709961 53.44995880126953 31.840490341186523 C 46.83753967285156 20.45189094543457 43.67454147338867 14.900090217590332 62.72523880004883 3.1295900344848633" stroke-width="1.0" fill="rgb(132, 90, 56)" opacity="1.0"/>
    <path d="M 24.23314094543457 42.63549041748047 C 24.23314094543457 42.63549041748047 35.01333999633789 53.01829147338867 31.29364013671875 67.68919372558594 C 27.570959091186523 82.35909271240234 25.882539749145508 78.58759307861328 25.882539749145508 78.58759307861328 C 25.882539749145508 78.58759307861328 26.242839813232422 75.04759216308594 22.17254066467285 71.00849151611328 C 22.17254066467285 71.00849151611328 19.117839813232422 66.12368774414062 22.584640502929688 59.863990783691406 C 26.04953956604004 53.60519027709961 26.478239059448242 47.733089447021484 24.23314094543457 42.63549041748047" stroke-width="1.0" fill="rgb(226, 184, 166)" opacity="1.0"/>
  </g>
</svg>
