<?xml version="1.0" ?>
<svg xmlns="http://www.w3.org/2000/svg" version="1.1" width="99" height="81">
  <defs/>
  <g>
    <path d="M 87.52152252197266 39.6161994934082 C 87.52072143554688 61.49482345581055 69.78394317626953 79.23030090332031 47.90531921386719 79.22949981689453 C 26.026697158813477 79.22869873046875 8.291219711303711 61.491920471191406 8.292019844055176 39.61330032348633 C 8.292820930480957 17.73526382446289 26.028682708740234 2.7628062525764108e-05 47.90671920776367 0.0 C 69.78533935546875 -3.3151944080600515e-05 87.521484375 17.73606300354004 87.52152252197266 39.614681243896484 C 87.52152252197266 39.61518478393555 87.52152252197266 39.615692138671875 87.52152252197266 39.6161994934082" stroke-width="1.0" fill="rgb(240, 253, 255)" opacity="1.0"/>
    <path d="M 89.44532012939453 40.677799224853516 C 89.44523620605469 18.213314056396484 71.2341079711914 0.0023171736393123865 48.76961898803711 0.0024000387638807297 C 26.305133819580078 0.0024829041212797165 8.094137191772461 18.213613510131836 8.094220161437988 40.6781005859375 C 8.094303131103516 63.14183807373047 26.304264068603516 81.35252380371094 48.768001556396484 81.35350036621094 C 71.22240447998047 81.32835388183594 89.41928100585938 63.132205963134766 89.44532012939453 40.677799224853516" stroke-width="1.0" fill="rgb(217, 217, 217)" opacity="1.0"/>
    <path d="M 43.892120361328125 39.950199127197266 C 45.21662521362305 36.77678680419922 45.44462203979492 33.2522087097168 44.540000915527344 29.934600830078125 C 43.78280258178711 26.947010040283203 41.67283630371094 24.4849796295166 38.83639907836914 23.279300689697266 C 37.77703857421875 22.85634994506836 36.64646911621094 22.640222549438477 35.50579833984375 22.64259910583496 C 30.63960075378418 22.64259910583496 25.89109992980957 26.347700119018555 23.681100845336914 31.870100021362305 C 20.89739990234375 38.83399963378906 23.16309928894043 46.3125 28.738300323486328 48.54010009765625 C 29.797191619873047 48.96347427368164 30.927518844604492 49.17961883544922 32.067909240722656 49.17679977416992 C 36.932621002197266 49.17679977416992 41.682621002197266 45.46979904174805 43.892120361328125 39.950199127197266" stroke-width="1.0" fill="rgb(64, 64, 64)" opacity="1.0"/>
    <path d="M 75.03121948242188 55.65629959106445 C 75.03022766113281 58.452903747558594 72.76232147216797 60.71919250488281 69.9657211303711 60.71820068359375 C 67.16911315917969 60.71720504760742 64.90282440185547 58.449302673339844 64.90382385253906 55.6526985168457 C 64.90481567382812 52.85707092285156 67.17118835449219 50.5911865234375 69.9668197631836 50.59080123901367 C 72.76236724853516 50.589359283447266 75.02977752685547 52.854427337646484 75.03121948242188 55.64997863769531 C 75.03121948242188 55.65208435058594 75.03121948242188 55.65419387817383 75.03121948242188 55.65629959106445" stroke-width="1.0" fill="rgb(220, 159, 166)" opacity="1.0"/>
    <path d="M 31.360820770263672 55.65629959106445 C 31.359825134277344 58.452903747558594 29.0919246673584 60.71919250488281 26.295320510864258 60.71820068359375 C 23.498716354370117 60.71720504760742 21.232425689697266 58.449302673339844 21.233421325683594 55.6526985168457 C 21.23441505432129 52.85707092285156 23.500791549682617 50.5911865234375 26.296419143676758 50.59080123901367 C 29.092145919799805 50.589534759521484 31.359556198120117 52.85489273071289 31.360820770263672 55.65061950683594 C 31.360820770263672 55.65251159667969 31.360820770263672 55.6544075012207 31.360820770263672 55.65629959106445" stroke-width="1.0" fill="rgb(220, 159, 166)" opacity="1.0"/>
    <path d="M 68.8398208618164 35.91019821166992 C 68.83951568603516 38.85147476196289 66.45489501953125 41.23560333251953 63.51361846923828 41.23529815673828 C 60.57234573364258 41.2349967956543 58.18821716308594 38.85037612915039 58.18851852416992 35.90909957885742 C 58.18882369995117 32.96805953979492 60.57307815551758 30.584028244018555 63.51411819458008 30.583999633789062 C 66.45555114746094 30.584165573120117 68.83992767333984 32.96876907348633 68.8398208618164 35.91019821166992" stroke-width="1.0" fill="rgb(255, 255, 255)" opacity="1.0"/>
    <path d="M 39.573219299316406 35.91019821166992 C 39.57291793823242 38.85147476196289 37.18829345703125 41.23560333251953 34.24702072143555 41.23529815673828 C 31.305744171142578 41.2349967956543 28.921615600585938 38.85037612915039 28.921920776367188 35.90909957885742 C 28.922224044799805 32.96805953979492 31.30647850036621 30.584028244018555 34.247520446777344 30.583999633789062 C 37.18894958496094 30.584165573120117 39.57332992553711 32.96876907348633 39.573219299316406 35.91019821166992" stroke-width="1.0" fill="rgb(255, 255, 255)" opacity="1.0"/>
    <path d="M 66.40093231201172 38.34870147705078 C 66.40090942382812 39.94301223754883 65.10844421386719 41.235443115234375 63.514129638671875 41.23542022705078 C 61.91981506347656 41.23539733886719 60.62738800048828 39.94293212890625 60.627410888671875 38.3486213684082 C 60.62743377685547 36.75434112548828 61.91984176635742 35.46192932128906 63.51411819458008 35.46189880371094 C 65.10832977294922 35.46220779418945 66.4006118774414 36.75448989868164 66.40093231201172 38.34870147705078" stroke-width="1.0" fill="rgb(32, 32, 32)" opacity="1.0"/>
    <path d="M 37.13431930541992 38.34870147705078 C 37.13429260253906 39.94300842285156 35.841827392578125 41.23542785644531 34.247520446777344 41.23540115356445 C 32.65321350097656 41.23537063598633 31.36079216003418 39.942909240722656 31.360820770263672 38.34859848022461 C 31.36084747314453 36.754329681396484 32.65325164794922 35.46192932128906 34.247520446777344 35.46189880371094 C 35.84172821044922 35.46220779418945 37.134010314941406 36.754493713378906 37.13431930541992 38.34870147705078" stroke-width="1.0" fill="rgb(32, 32, 32)" opacity="1.0"/>
    <path d="M 62.48881912231445 57.063499450683594 C 62.01881790161133 60.93544387817383 58.66352844238281 63.80345916748047 54.765621185302734 63.66510009765625 C 53.42428970336914 63.68879699707031 52.09814453125 63.378334045410156 50.90671920776367 62.76169967651367 C 49.60287857055664 61.9541015625 47.954261779785156 61.9541015625 46.650421142578125 62.76169967651367 C 45.458858489990234 63.37650680541992 44.1336669921875 63.686866760253906 42.79301834106445 63.66510009765625 C 38.897212982177734 63.80479431152344 35.5413818359375 60.9423828125 35.0649299621582 57.073299407958984 C 34.951316833496094 56.11257553100586 35.63709259033203 55.24128723144531 36.597618103027344 55.125999450683594 C 37.542911529541016 55.060298919677734 38.38399124145508 55.722084045410156 38.542518615722656 56.65629959106445 C 38.84098815917969 58.74758529663086 40.68312072753906 60.26740264892578 42.79301834106445 60.16310119628906 C 44.1815299987793 60.2660026550293 45.51993942260742 59.622474670410156 46.30662155151367 58.47370147705078 C 46.49551010131836 58.18534469604492 46.652976989746094 57.87759017944336 46.77632141113281 57.55569839477539 C 45.69413375854492 56.81278991699219 44.66885757446289 55.99020767211914 43.70901870727539 55.09479904174805 C 42.02293014526367 53.57229995727539 40.57221984863281 52.06840133666992 40.56393051147461 52.0546989440918 C 40.362613677978516 51.793643951416016 40.26472091674805 51.46746826171875 40.28902053833008 51.13869857788086 C 40.34763717651367 50.78995132446289 40.57615661621094 50.49333190917969 40.89841842651367 50.34769821166992 C 43.45215606689453 49.15449905395508 46.22172546386719 48.49267578125 49.03902053833008 48.402400970458984 C 51.72212219238281 48.450599670410156 54.35605239868164 49.130767822265625 56.727020263671875 50.387699127197266 C 56.989959716796875 50.57181167602539 57.17868423461914 50.84360122680664 57.25931930541992 51.154300689697266 C 57.307769775390625 51.48329162597656 57.203880310058594 51.81645584106445 56.977020263671875 52.059600830078125 C 56.82912063598633 52.21580123901367 55.418418884277344 53.66120147705078 53.83641815185547 55.09479904174805 C 52.879486083984375 55.98762893676758 51.85710144042969 56.8076171875 50.7778205871582 57.54790115356445 C 51.36941146850586 59.213775634765625 52.99810028076172 60.28173065185547 54.76171875 60.16019821166992 C 56.15060806274414 60.264427185058594 57.48967742919922 59.62012481689453 58.27492904663086 58.46979904174805 C 58.462249755859375 58.19044494628906 58.61844253540039 57.89142990112305 58.740718841552734 57.57809829711914 C 58.816062927246094 57.373382568359375 58.88029098510742 57.16474533081055 58.93312072753906 56.95309829711914 C 59.016868591308594 56.39673614501953 59.27580642700195 55.881561279296875 59.67232131958008 55.482398986816406 C 59.977760314941406 55.243751525878906 60.354103088378906 55.11385726928711 60.74171829223633 55.11330032348633 C 60.781219482421875 55.11330032348633 60.93212127685547 55.12310028076172 60.96781921386719 55.12699890136719 C 61.91728210449219 55.251102447509766 62.593204498291016 56.11166763305664 62.48881912231445 57.063499450683594" stroke-width="1.0" fill="rgb(64, 64, 64)" opacity="1.0"/>
    <path d="M 75.96732330322266 8.229499816894531 C 75.96732330322266 8.229499816894531 86.40972137451172 1.9179999828338623 95.44193267822266 9.243200302124023 C 95.44193267822266 9.243200302124023 105.46871948242188 19.511699676513672 92.20951843261719 28.978500366210938 L 90.55171966552734 28.978500366210938 L 75.96732330322266 9.354499816894531 L 75.96732330322266 8.229499816894531" stroke-width="1.0" fill="rgb(64, 64, 64)" opacity="1.0"/>
    <path d="M 5.720719814300537 29.391599655151367 C 5.720719814300537 29.391599655151367 -3.5556700229644775 20.39459991455078 1.5166300535202026 9.170900344848633 C 1.5166300535202026 9.170900344848633 9.337929725646973 -3.861299991607666 22.601520538330078 7.170899868011475 L 23.047819137573242 8.870100021362305 L 6.871620178222656 29.088899612426758 L 5.720719814300537 29.391599655151367" stroke-width="1.0" fill="rgb(64, 64, 64)" opacity="1.0"/>
  </g>
</svg>
