<?xml version="1.0" ?>
<svg xmlns="http://www.w3.org/2000/svg" version="1.1" width="108" height="99">
  <defs/>
  <g>
    <path d="M 49.24993133544922 70.10862731933594 C 49.711334228515625 70.10971069335938 50.084503173828125 70.48462677001953 50.08342742919922 70.94602966308594 C 50.08234786987305 71.40743255615234 49.70743179321289 71.78060150146484 49.246028900146484 71.77952575683594 C 48.78594970703125 71.77845001220703 48.413330078125 71.40560913085938 48.41252899169922 70.9455337524414 C 48.41132354736328 70.48452758789062 48.784061431884766 70.10983276367188 49.24506378173828 70.10862731933594 C 49.24668502807617 70.10862731933594 49.24830627441406 70.10862731933594 49.24993133544922 70.10862731933594" stroke-width="1.0" fill="rgb(184, 248, 255)" opacity="1.0"/>
    <path d="M 54.046329498291016 57.85763168334961 C 54.50803756713867 57.85625076293945 54.883445739746094 58.22941970825195 54.884822845458984 58.69112777709961 C 54.88620376586914 59.152835845947266 54.51303482055664 59.52824401855469 54.051326751708984 59.52962112426758 C 53.58961868286133 59.531002044677734 53.214210510253906 59.157833099365234 53.21282958984375 58.69612503051758 C 53.212825775146484 58.69462585449219 53.212825775146484 58.6931266784668 53.21282958984375 58.69163131713867 C 53.21351623535156 58.23150634765625 53.586204528808594 57.85859298706055 54.046329498291016 57.85763168334961" stroke-width="1.0" fill="rgb(184, 248, 255)" opacity="1.0"/>
    <circle r="0.8407999873161316" cx="41.71672821044922" cy="70.89083099365234" stroke-width="1.0" fill="rgb(184, 248, 255)" opacity="1.0"/>
    <path d="M 41.71672821044922 62.42013168334961 C 42.809146881103516 62.41824722290039 43.69625473022461 63.30229949951172 43.69813537597656 64.39471435546875 C 43.70001983642578 65.48713684082031 42.81596755981445 66.37423706054688 41.723548889160156 66.3761215209961 C 40.631134033203125 66.37800598144531 39.74402618408203 65.49395751953125 39.74214172363281 64.40153503417969 C 39.74214172363281 64.40056610107422 39.74214172363281 64.39959716796875 39.74214172363281 64.39862823486328 C 39.743377685546875 63.3079719543457 40.62607955932617 62.423526763916016 41.71672821044922 62.42013168334961" stroke-width="1.0" fill="rgb(184, 248, 255)" opacity="1.0"/>
    <path d="M 105.12242889404297 25.152530670166016 C 111.47303009033203 17.599830627441406 101.36763000488281 22.803930282592773 101.36763000488281 22.803930282592773 C 104.43982696533203 13.422030448913574 98.00232696533203 19.262929916381836 98.00232696533203 19.262929916381836 C 98.10682678222656 24.357629776000977 95.9520263671875 25.52263069152832 95.9520263671875 25.52263069152832 C 86.55943298339844 37.00703048706055 76.80072784423828 37.343929290771484 76.80072784423828 37.343929290771484 C 76.80072784423828 37.343929290771484 76.61763000488281 35.541229248046875 76.24503326416016 32.84783172607422 C 82.26702880859375 28.986530303955078 84.58442687988281 21.22772979736328 84.58442687988281 21.22772979736328 C 86.81582641601562 13.762929916381836 90.72402954101562 13.664230346679688 90.72402954101562 13.664230346679688 C 106.4017333984375 7.763830184936523 91.29242706298828 9.040229797363281 91.29242706298828 9.040229797363281 C 99.51553344726562 -4.590670108795166 87.63613891601562 6.144730091094971 87.63613891601562 6.144730091094971 C 83.60832977294922 -6.708769798278809 83.03022766113281 4.592929840087891 83.03022766113281 4.592929840087891 C 84.9548568725586 13.316313743591309 82.12653350830078 22.407352447509766 75.59272766113281 28.499229431152344 C 75.08293151855469 25.509929656982422 74.41832733154297 22.134929656982422 73.58833312988281 19.034330368041992 C 71.3436279296875 10.776530265808105 64.22402954101562 14.971830368041992 58.0018310546875 17.63302993774414 C 51.78453063964844 20.298030853271484 49.31193161010742 25.25213050842285 51.740631103515625 26.800029754638672 C 54.182029724121094 28.338130950927734 55.03023147583008 30.93383026123047 55.465728759765625 37.934730529785156 C 55.913028717041016 44.93383026123047 44.02233123779297 51.15353012084961 38.2264289855957 53.93962860107422 C 32.4227294921875 56.72383117675781 17.16253089904785 56.05582809448242 14.956430435180664 55.79903030395508 C 13.801477432250977 55.76836395263672 12.738235473632812 55.16261291503906 12.122929573059082 54.184730529785156 C 9.25922966003418 50.17692947387695 8.692330360412598 54.78633117675781 8.692330360412598 54.78633117675781 L 9.949139595031738 57.51972961425781 C -13.033769607543945 62.14183044433594 10.999930381774902 61.267730712890625 10.999930381774902 61.267730712890625 C 0.3422299921512604 70.0207290649414 13.371930122375488 63.603729248046875 13.371930122375488 63.603729248046875 C 13.294830322265625 60.86442947387695 23.746530532836914 59.90842819213867 23.746530532836914 59.90842819213867 C 40.08002853393555 57.72673034667969 38.45063018798828 73.16133117675781 38.45063018798828 73.16133117675781 C 30.52923011779785 93.02852630615234 14.144929885864258 87.05973052978516 14.144929885864258 87.05973052978516 C 3.232330083847046 87.59593200683594 13.583430290222168 91.6798324584961 13.583430290222168 91.6798324584961 C -0.2661699950695038 99.02562713623047 15.851030349731445 95.61152648925781 15.851030349731445 95.61152648925781 C 9.745030403137207 103.3673324584961 19.296329498291016 97.36933135986328 19.296329498291016 97.36933135986328 C 21.503829956054688 94.22283172607422 26.164430618286133 91.63693237304688 26.164430618286133 91.63693237304688 C 78.51113891601562 66.13983154296875 78.88513946533203 43.662330627441406 78.88513946533203 43.662330627441406 C 93.47992706298828 38.3420295715332 94.28803253173828 35.06462860107422 96.74793243408203 32.27362823486328 C 99.1971435546875 29.48362922668457 103.89002990722656 30.42593002319336 103.89002990722656 30.42593002319336 C 114.16493225097656 29.599830627441406 105.12242889404297 25.152530670166016 105.12242889404297 25.152530670166016" stroke-width="1.0" fill="rgb(118, 193, 116)" opacity="1.0"/>
    <path d="M 64.63372802734375 34.16522979736328 C 61.03630065917969 34.68414306640625 57.697147369384766 32.19468307495117 57.16743087768555 28.59882926940918 C 56.35255813598633 25.15627098083496 58.48271942138672 21.704938888549805 61.92527770996094 20.89006805419922 C 65.36783599853516 20.0751953125 68.81916809082031 22.20535659790039 69.63404083251953 25.64791488647461 C 69.69184875488281 25.892127990722656 69.7352523803711 26.139524459838867 69.76403045654297 26.388830184936523 C 70.48979949951172 29.951963424682617 68.19499969482422 33.43037033081055 64.63372802734375 34.16522979736328" stroke-width="1.0" fill="rgb(255, 255, 255)" opacity="1.0"/>
    <path d="M 63.636138916015625 22.29313087463379 C 65.82793426513672 21.90650177001953 67.91815185546875 23.369874954223633 68.30477905273438 25.56166648864746 C 68.69140625 27.75345802307129 67.22803497314453 29.843679428100586 65.03624725341797 30.230308532714844 C 62.844451904296875 30.61693572998047 60.75423049926758 29.153562545776367 60.36760330200195 26.96177101135254 C 60.367279052734375 26.959924697875977 60.3669548034668 26.95807647705078 60.36663055419922 26.95623016357422 C 59.98455047607422 24.766313552856445 61.44712448120117 22.680335998535156 63.636138916015625 22.29313087463379" stroke-width="1.0" fill="rgb(106, 115, 98)" opacity="1.0"/>
    <path d="M 72.5790023803711 34.70433044433594 C 72.8293685913086 36.13599395751953 71.87173461914062 37.49955368041992 70.44007110595703 37.74991989135742 C 69.00840759277344 38.00028991699219 67.64485168457031 37.042659759521484 67.39447784423828 35.610992431640625 C 67.14420318603516 34.17983627319336 68.10107421875 32.816627502441406 69.53211212158203 32.56563186645508 C 70.96236419677734 32.31364059448242 72.32608795166016 33.26881408691406 72.57807922363281 34.69906997680664 C 72.57838439941406 34.70082092285156 72.57869720458984 34.70257568359375 72.5790023803711 34.70433044433594" stroke-width="1.0" fill="rgb(240, 203, 192)" opacity="1.0"/>
  </g>
</svg>
