<?xml version="1.0" ?>
<svg xmlns="http://www.w3.org/2000/svg" version="1.1" width="100" height="95">
  <defs/>
  <g>
    <path d="M 90.37728118896484 12.230400085449219 C 90.37728118896484 13.415327072143555 89.41670989990234 14.375900268554688 88.23178100585938 14.375900268554688 C 87.0468521118164 14.375900268554688 86.0862808227539 13.415327072143555 86.0862808227539 12.230400085449219 C 86.0862808227539 11.045473098754883 87.0468521118164 10.08489990234375 88.23178100585938 10.08489990234375 C 89.41669464111328 10.084933280944824 90.37725067138672 11.045486450195312 90.37728118896484 12.230400085449219" stroke-width="1.0" fill="rgb(73, 43, 38)" opacity="1.0"/>
    <path d="M 78.43489074707031 92.154296875 C 75.86459350585938 92.54979705810547 72.52668762207031 91.62300109863281 70.27568817138672 90.96279907226562 C 69.56878662109375 90.71988677978516 68.84115600585938 90.54207611083984 68.10189056396484 90.43160247802734 L 67.85968780517578 90.4657974243164 L 67.62339782714844 90.31729888916016 C 64.4074935913086 87.99019622802734 62.58428955078125 84.20989990234375 62.1946907043457 79.08979797363281 L 62.14878845214844 78.4697036743164 L 62.764991760253906 78.4365005493164 C 66.8440933227539 78.21189880371094 69.32939910888672 74.49410247802734 71.72789001464844 70.90029907226562 C 73.54718780517578 68.17479705810547 75.26399230957031 65.60929870605469 77.63799285888672 64.47460174560547 L 77.83918762207031 64.41889953613281 C 88.58428192138672 63.317298889160156 94.61457824707031 54.39350128173828 96.26988220214844 37.144500732421875 C 96.76007843017578 32.051700592041016 95.25418090820312 29.03019905090332 93.66047668457031 25.82710075378418 C 92.84636688232422 24.272489547729492 92.14217376708984 22.662748336791992 91.5530776977539 21.009700775146484 L 91.3537826538086 20.411100387573242 L 91.95539855957031 20.227500915527344 C 92.70567321777344 19.941207885742188 93.4146499633789 19.55665397644043 94.06378173828125 19.083900451660156 C 95.37665557861328 18.05149269104004 96.96158599853516 17.42342758178711 98.62528228759766 17.27630043029785 C 99.1209716796875 17.277027130126953 99.61365509033203 17.353439331054688 100.0862808227539 17.502899169921875 C 99.76687622070312 15.963800430297852 98.45439910888672 14.813400268554688 97.17218017578125 13.691399574279785 C 96.09272766113281 12.89857006072998 95.20723724365234 11.87114429473877 94.5823974609375 10.68649959564209 L 94.44078063964844 10.324199676513672 L 94.70928192138672 10.038000106811523 C 95.16239929199219 9.547800064086914 95.81088256835938 5.690400123596191 95.83917999267578 3.8691000938415527 C 95.20452880859375 4.08493709564209 94.6025390625 4.386926174163818 94.05007934570312 4.766600131988525 C 93.63528442382812 5.0596842765808105 93.17955017089844 5.290026664733887 92.69757843017578 5.450200080871582 L 91.58039855957031 5.696199893951416 L 91.99447631835938 4.632800102233887 C 92.14265441894531 3.066267490386963 91.95179748535156 1.4861948490142822 91.43488311767578 0.0 C 90.8205795288086 0.25189998745918274 90.67018127441406 1.1904000043869019 90.5998764038086 2.8768999576568604 C 90.55888366699219 3.9579999446868896 90.52568054199219 4.813399791717529 90.01497650146484 5.249000072479248 L 89.53157806396484 5.661099910736084 L 89.21807861328125 5.258699893951416 L 88.86947631835938 5.265600204467773 C 87.88697814941406 5.265600204467773 86.56178283691406 4.844699859619141 85.00718688964844 1.5536999702453613 C 85.00068664550781 1.5419516563415527 84.99481201171875 1.5298681259155273 84.98959350585938 1.5175000429153442 C 85.000244140625 3.473698139190674 85.13887023925781 5.427103519439697 85.40458679199219 7.365200042724609 L 85.47978973388672 7.954999923706055 L 84.89389038085938 8.044899940490723 C 79.3117904663086 8.895500183105469 75.97689056396484 12.706000328063965 72.77468872070312 16.868099212646484 C 71.62261962890625 18.689037322998047 70.69593048095703 20.64314079284668 70.0149917602539 22.6875 C 67.78939819335938 28.371000289916992 65.01789093017578 35.447200775146484 58.272789001464844 35.447200775146484 C 57.69196701049805 35.51972579956055 57.10712432861328 35.5552978515625 56.52178955078125 35.5536994934082 C 48.09209060668945 35.5536994934082 39.58818817138672 28.506799697875977 33.38119125366211 23.356399536132812 C 31.871400833129883 22.106399536132812 30.446590423583984 20.924800872802734 29.222990036010742 20.012699127197266 L 29.090190887451172 19.8789005279541 C 28.645790100097656 19.246999740600586 28.157489776611328 18.481399536132812 27.636089324951172 17.65329933166504 C 25.283489227294922 13.953100204467773 22.059890747070312 8.820300102233887 18.02379035949707 9.347599983215332 C 17.026262283325195 9.593598365783691 16.138256072998047 10.162959098815918 15.49839973449707 10.96679973602295 C 14.579520225524902 12.015983581542969 13.391070365905762 12.793733596801758 12.061790466308594 13.215800285339355 C 7.29518985748291 14.375900268554688 -0.17940999567508698 17.2539005279541 0.003289999905973673 20.034099578857422 C 0.19268999993801117 22.887699127197266 10.837189674377441 27.061500549316406 17.50419044494629 29.01849937438965 L 17.1653995513916 30.19529914855957 C 17.103790283203125 30.172800064086914 10.817689895629883 28.43160057067871 7.5901899337768555 28.43160057067871 C 6.445590019226074 28.43160057067871 6.213190078735352 28.656200408935547 6.206399917602539 28.668899536132812 C 6.206399917602539 28.668899536132812 6.203400135040283 29.137699127197266 7.7004899978637695 30.420900344848633 C 9.45413875579834 31.439111709594727 11.315059661865234 32.26017379760742 13.249290466308594 32.86909866333008 C 17.20149040222168 34.35929870605469 21.673189163208008 36.04290008544922 23.163400650024414 37.947200775146484 L 23.399690628051758 38.249000549316406 L 23.261089324951172 38.67959976196289 C 23.1285457611084 38.943416595458984 22.84799575805664 39.099185943603516 22.55398941040039 39.072200775146484 C 21.109323501586914 38.84972381591797 19.68600845336914 38.505733489990234 18.299190521240234 38.04389953613281 C 15.57448959350586 37.27830123901367 12.184889793395996 36.32320022583008 10.746399879455566 36.32320022583008 L 10.746399879455566 36.32320022583008 C 12.27178955078125 38.48820114135742 18.362590789794922 43.51169967651367 20.697589874267578 45.35540008544922 L 20.837190628051758 45.50870132446289 L 22.14488983154297 47.60540008544922 L 21.86648941040039 47.94430160522461 C 21.016889572143555 48.98529815673828 25.460290908813477 54.43840026855469 26.96908950805664 55.72159957885742 L 29.37339973449707 57.77439880371094 L 26.3782901763916 56.76559829711914 C 26.342090606689453 56.754798889160156 26.318689346313477 56.749000549316406 26.293289184570312 56.7411994934082 C 26.291290283203125 56.877899169921875 26.30208969116211 57.067298889160156 26.31378936767578 57.19919967651367 C 26.325490951538086 57.352500915527344 26.332399368286133 57.502899169921875 26.332399368286133 57.64939880371094 C 27.670820236206055 58.91933822631836 28.68947982788086 60.48817825317383 29.30500030517578 62.227500915527344 C 29.723093032836914 63.320762634277344 30.273418426513672 64.3587417602539 30.943700790405273 65.31829833984375 C 32.799198150634766 67.8125 36.199501037597656 68.79879760742188 39.79520034790039 69.841796875 C 41.85806655883789 70.3863754272461 43.875022888183594 71.09197235107422 45.82749938964844 71.95210266113281 L 45.87141036987305 71.58200073242188 C 51.08720016479492 72.14550018310547 58.76789855957031 65.98040008544922 61.77470016479492 61.47850036621094 C 65.6937026977539 55.35350036621094 63.858699798583984 50.220699310302734 61.73759841918945 44.27629852294922 C 61.46220016479492 43.51169967651367 61.18389892578125 42.7333984375 60.91440963745117 41.94430160522461 C 60.790409088134766 41.58300018310547 60.66440963745117 41.216800689697266 60.54520034790039 40.84659957885742 C 60.523799896240234 40.779300689697266 60.50230026245117 40.70989990234375 60.479801177978516 40.6416015625 L 61.64580154418945 40.27050018310547 C 62.03940963745117 41.50680160522461 62.46609878540039 42.69820022583008 62.88309860229492 43.868099212646484 C 65.02469635009766 49.854400634765625 67.04720306396484 55.50870132446289 62.79520034790039 62.146400451660156 C 59.843101501464844 66.57710266113281 52.93880081176758 72.25090026855469 47.388999938964844 72.79389953613281 C 50.18566131591797 74.3999252319336 52.21982955932617 77.06219482421875 53.03450012207031 80.18260192871094 C 53.257408142089844 81.19406127929688 53.59112548828125 82.17786407470703 54.029598236083984 83.11620330810547 C 54.9631462097168 84.93954467773438 55.37252426147461 86.98614501953125 55.21220016479492 89.0282974243164 L 55.19559860229492 89.23819732666016 L 55.04330062866211 89.39939880371094 C 54.315799713134766 90.14640045166016 52.83330154418945 90.43840026855469 51.25230026245117 90.73919677734375 C 50.37015914916992 90.8889389038086 49.49954605102539 91.10005187988281 48.64680099487305 91.37100219726562 C 49.7565803527832 91.24715423583984 50.85902404785156 91.06463623046875 51.949501037597656 90.82420349121094 C 51.96609878540039 90.82420349121094 51.98270034790039 90.81929779052734 51.993499755859375 90.81929779052734 C 53.4539909362793 90.46733856201172 54.94551467895508 90.2596435546875 56.44660186767578 90.19920349121094 C 57.590579986572266 90.14571380615234 58.723289489746094 90.44573974609375 59.690799713134766 91.05850219726562 L 60.14189910888672 91.36129760742188 L 59.88999938964844 91.8447036743164 C 59.659053802490234 92.254638671875 59.37792205810547 92.63419342041016 59.0531005859375 92.97460174560547 C 58.86085891723633 93.17274475097656 58.68482971191406 93.38599395751953 58.52669906616211 93.61229705810547 C 59.12055587768555 93.5185775756836 59.69296646118164 93.3198013305664 60.217098236083984 93.02529907226562 C 61.004356384277344 92.58837890625 61.874820709228516 92.32220458984375 62.77180099487305 92.24410247802734 C 62.89680099487305 92.24410247802734 63.025699615478516 92.23819732666016 63.14780044555664 92.23819732666016 C 65.30140686035156 92.37564086914062 67.41120910644531 92.90899658203125 69.37140655517578 93.8115005493164 C 70.72805786132812 94.4509506225586 72.18318939208984 94.8560791015625 73.67510223388672 95.00969696044922 C 73.495849609375 94.71566009521484 73.40438842773438 94.37650299072266 73.4114990234375 94.0322036743164 C 73.45581817626953 93.52471160888672 73.87020111083984 93.1291275024414 74.37920379638672 93.1083984375 C 75.31553649902344 93.01167297363281 76.2584228515625 92.99497985839844 77.19760131835938 93.05850219726562 C 77.80889892578125 93.08000183105469 78.46029663085938 93.10350036621094 79.10769653320312 93.10350036621094 C 80.18052673339844 93.13685607910156 81.25296020507812 93.02582550048828 82.29620361328125 92.77339935302734 C 82.14779663085938 92.72360229492188 81.99250030517578 92.66400146484375 81.83040618896484 92.61519622802734 C 81.09329986572266 92.45899963378906 80.43488311767578 92.04785919189453 79.97100067138672 91.4541015625 L 78.43489074707031 92.154296875" stroke-width="1.0" fill="rgb(224, 126, 39)" opacity="1.0"/>
    <path d="M 92.11067962646484 23.154300689697266 C 92.11067962646484 23.154300689697266 69.20149230957031 43.25189971923828 77.45539855957031 64.21769714355469 C 77.45539855957031 64.21769714355469 86.83917999267578 65.67769622802734 92.79518127441406 53.144500732421875 C 92.79518127441406 53.144500732421875 100.0862808227539 36.53900146484375 94.24347686767578 27.009700775146484 L 92.11067962646484 23.154300689697266" stroke-width="1.0" fill="rgb(249, 226, 207)" opacity="1.0"/>
    <path d="M 84.89389038085938 8.044899940490723 L 85.00718688964844 1.5536999702453613 L 88.86947631835938 5.265600204467773 C 88.86947631835938 5.265600204467773 90.2287826538086 0.8222000002861023 91.43488311767578 0.0 C 91.43488311767578 0.0 92.99347686767578 3.136699914932251 91.58039855957031 5.696199893951416 L 95.83917999267578 3.8691000938415527 C 95.83917999267578 3.8691000938415527 97.00418090820312 6.724599838256836 95.39488220214844 8.916000366210938 C 95.39488220214844 8.916000366210938 92.24839782714844 10.069299697875977 90.3821792602539 8.916000366210938 C 88.51587677001953 7.760700225830078 84.89389038085938 8.044899940490723 84.89389038085938 8.044899940490723" stroke-width="1.0" fill="rgb(198, 47, 16)" opacity="1.0"/>
    <path d="M 95.49839782714844 18.208900451660156 L 96.51200103759766 13.105400085449219 C 97.9887924194336 14.314199447631836 99.20478820800781 15.810251235961914 100.0863037109375 17.502899169921875 C 100.0863037109375 17.502899169921875 96.93287658691406 17.33300018310547 95.49839782714844 18.208900451660156" stroke-width="1.0" fill="rgb(198, 47, 16)" opacity="1.0"/>
  </g>
</svg>
