<?xml version="1.0" ?>
<svg xmlns="http://www.w3.org/2000/svg" version="1.1" width="118" height="62">
  <defs/>
  <g>
    <path d="M 117.67900085449219 27.674150466918945 C 116.71443939208984 26.701440811157227 115.14396667480469 26.69483757019043 114.17125701904297 27.659400939941406 C 114.16632080078125 27.664297103881836 114.16140747070312 27.669214248657227 114.15650939941406 27.674150466918945 C 113.3410415649414 28.50235366821289 113.21875 29.789159774780273 113.86360168457031 30.756149291992188 L 102.7531967163086 41.8714485168457 C 102.42019653320312 41.64384841918945 102.05989837646484 41.47684860229492 101.72000122070312 41.29035186767578 L 105.06079864501953 28.82455062866211 C 106.4169921875 28.90763282775879 107.58375549316406 27.875574111938477 107.66683959960938 26.519378662109375 C 107.73899841308594 25.341569900512695 106.96472930908203 24.278406143188477 105.82160186767578 23.98564910888672 C 104.51083374023438 23.620773315429688 103.15245819091797 24.3875675201416 102.78758239746094 25.698331832885742 C 102.47061157226562 26.836986541748047 103.00697326660156 28.040294647216797 104.0656967163086 28.565750122070312 L 100.78839874267578 40.784549713134766 C 99.37716674804688 40.16596984863281 97.86602783203125 39.806697845458984 96.32740020751953 39.72394943237305 C 85.064697265625 39.10285186767578 86.77960205078125 50.847049713134766 82.26100158691406 50.847049713134766 C 81.21029663085938 50.847049713134766 75.92220306396484 48.458351135253906 75.92220306396484 48.458351135253906 L 72.29329681396484 49.2015495300293 C 59.661399841308594 51.034549713134766 47.76789855957031 42.222049713134766 47.311798095703125 41.88214874267578 L 45.86940002441406 40.788448333740234 C 44.2730712890625 43.693702697753906 41.94346618652344 46.13004684448242 39.11259841918945 47.85485076904297 C 36.193206787109375 49.304115295410156 32.9658317565918 50.02358627319336 29.707300186157227 49.9515495300293 C 25.080400466918945 49.9515495300293 19.24151039123535 48.663448333740234 16.629199981689453 45.7796516418457 C 16.217100143432617 45.32455062866211 15.891900062561035 44.8343505859375 15.513999938964844 44.36555099487305 C 2.185800075531006 51.185848236083984 -3.2790000438690186 62.46025085449219 1.9768999814987183 62.46025085449219 L 96.324462890625 62.46025085449219 C 102.60157775878906 62.45822525024414 107.6892318725586 57.369266510009766 107.68965148925781 51.0921516418457 C 107.68549346923828 47.75775146484375 106.1628646850586 44.606781005859375 103.55294799804688 42.531551361083984 L 114.58914947509766 31.488649368286133 C 115.5539321899414 32.13724899291992 116.8417739868164 32.0180778503418 117.67115020751953 31.203449249267578 C 118.64789581298828 30.235124588012695 118.65472412109375 28.6583309173584 117.6864013671875 27.681581497192383 C 117.6839370727539 27.679100036621094 117.68147277832031 27.67662239074707 117.67900085449219 27.674150466918945" stroke-width="1.0" fill="rgb(244, 191, 115)" opacity="1.0"/>
    <path d="M 37.91334915161133 45.66044998168945 C 48.4963493347168 39.9056510925293 44.60865020751953 18.428049087524414 31.691650390625 25.89484977722168 C 44.60475158691406 15.162449836730957 50.0334587097168 36.38214874267578 48.81275177001953 39.883148193359375 C 48.81275177001953 39.883148193359375 60.16334915161133 48.458351135253906 71.925048828125 46.72494888305664 C 71.925048828125 31.827449798583984 66.6633529663086 7.500349998474121 45.074459075927734 1.3147499561309814 C 16.289350509643555 -6.932250022888184 1.6662499904632568 25.5843505859375 18.469999313354492 44.10485076904297 C 21.309850692749023 47.23085021972656 31.790250778198242 49.00035095214844 37.91334915161133 45.66044998168945" stroke-width="1.0" fill="rgb(193, 189, 188)" opacity="1.0"/>
    <path d="M 97.11446380615234 48.07265090942383 C 97.1141586303711 49.05558395385742 96.31709289550781 49.852169036865234 95.33415985107422 49.851871490478516 C 94.35122680664062 49.85157012939453 93.55464172363281 49.05450439453125 93.55493927001953 48.071571350097656 C 93.55523681640625 47.08902359008789 94.35169982910156 46.292598724365234 95.3342514038086 46.29235076904297 C 96.31743621826172 46.29242706298828 97.11443328857422 47.08946228027344 97.11446380615234 48.07265090942383" stroke-width="1.0" fill="rgb(114, 84, 51)" opacity="1.0"/>
  </g>
</svg>
