<?xml version="1.0" ?>
<svg xmlns="http://www.w3.org/2000/svg" version="1.1" width="600" height="600">
  <defs/>
  <g>
    <path d="M 27.30000114440918 19.16400146484375 C 24.76799964904785 23.3070011138916 21.059999465942383 26.937002182006836 16.422000885009766 28.388999938964844 C 11.784000396728516 29.841001510620117 6.177000522613525 28.71900177001953 3.1530001163482666 24.900001525878906 C 0.8220000267028809 21.97800064086914 0.30000001192092896 17.889001846313477 1.0950000286102295 14.223000526428223 C 1.6050000190734863 11.847001075744629 2.6610000133514404 9.528000831604004 4.455000400543213 7.887000560760498 C 6.249000072479248 6.246000289916992 8.847000122070312 5.400000095367432 11.187000274658203 6.039000034332275 C 13.63800048828125 6.7230000495910645 15.387001037597656 8.8410005569458 16.944000244140625 10.839000701904297 L 16.608001708984375 10.800000190734863 C 16.410001754760742 9.324000358581543 16.21500015258789 7.830000400543213 16.38300132751465 6.3510003089904785 C 16.551000595092773 4.872000217437744 17.124000549316406 3.375000238418579 18.246000289916992 2.4000000953674316 C 19.635000228881836 1.1760001182556152 21.600000381469727 0.9180000424385071 23.448001861572266 0.8070000410079956 C 24.375001907348633 0.753000020980835 25.32900047302246 0.7230000495910645 26.2080020904541 1.0230001211166382 C 27.576000213623047 1.5 28.57200050354004 2.700000047683716 29.253002166748047 3.9660003185272217 C 30.819002151489258 6.91200065612793 31.03499984741211 10.454999923706055 30.279001235961914 13.704000473022461 C 29.52300262451172 16.953001022338867 27.851999282836914 19.929000854492188 25.836002349853516 22.58700180053711 L 27.30000114440918 19.16400146484375" stroke-width="1.0" fill="rgb(228, 0, 127)" opacity="1.0"/>
    <path d="M 26.663999557495117 18.786001205444336 C 24.600000381469727 22.110000610351562 21.83700180053711 25.0830020904541 18.30000114440918 26.83500099182129 C 15.001328468322754 28.503894805908203 11.149957656860352 28.69684410095215 7.701000213623047 27.36600112915039 C 6.090518474578857 26.72862434387207 4.681240558624268 25.66959571838379 3.621000051498413 24.30000114440918 C 2.4615044593811035 22.719074249267578 1.7542203664779663 20.85234260559082 1.5750000476837158 18.900001525878906 C 1.3717660903930664 16.87627601623535 1.5945466756820679 14.832417488098145 2.2290000915527344 12.90000057220459 C 2.829000234603882 11.03700065612793 3.881999969482422 9.210000991821289 5.468999862670898 8.015999794006348 C 6.9840006828308105 6.87600040435791 9.0 6.255000591278076 10.869000434875488 6.73799991607666 C 12.73799991607666 7.2210001945495605 14.220001220703125 8.700000762939453 15.447001457214355 10.17300033569336 C 15.777000427246094 10.566000938415527 16.095001220703125 10.971000671386719 16.413000106811523 11.373000144958496 L 17.142000198364258 10.119000434875488 L 16.80000114440918 10.068000793457031 L 17.358001708984375 10.800000190734863 C 17.034000396728516 8.367000579833984 16.58700180053711 5.301000118255615 18.399002075195312 3.3000001907348633 C 19.185001373291016 2.433000087738037 20.270999908447266 2.0190000534057617 21.399002075195312 1.8000000715255737 C 21.978845596313477 1.6915631294250488 22.565048217773438 1.6204172372817993 23.154001235961914 1.5870000123977661 C 23.852182388305664 1.51563560962677 24.55582046508789 1.51563560962677 25.25400161743164 1.5870000123977661 C 27.70199966430664 1.90500009059906 28.96200180053711 4.598999977111816 29.5260009765625 6.720000267028809 C 30.15236473083496 9.251168251037598 30.083959579467773 11.904470443725586 29.328001022338867 14.40000057220459 C 28.500001907348633 17.24700164794922 26.97300148010254 19.845001220703125 25.200000762939453 22.200000762939453 L 26.496000289916992 22.95599937438965 L 27.96000099182129 19.54199981689453 C 28.153825759887695 19.182214736938477 28.03581428527832 18.73377799987793 27.69000244140625 18.516000747680664 C 27.3316650390625 18.310630798339844 26.874832153320312 18.430850982666016 26.663999557495117 18.786001205444336 L 25.200000762939453 22.200000762939453 C 24.99123764038086 22.557880401611328 25.112119674682617 23.017236709594727 25.470001220703125 23.22599983215332 C 25.827880859375 23.434762954711914 26.2872371673584 23.313880920410156 26.496000289916992 22.95599937438965 C 29.98200225830078 18.336000442504883 32.45100021362305 12.498000144958496 31.05000114440918 6.630000591278076 C 30.450000762939453 4.080000400543213 28.976999282836914 1.0770000219345093 26.274002075195312 0.2580000162124634 C 24.900001525878906 -0.16200001537799835 23.309999465942383 0.015000000596046448 21.900001525878906 0.20100001990795135 C 20.553001403808594 0.37800002098083496 19.200000762939453 0.7260000705718994 18.09000015258789 1.5600000619888306 C 16.86588478088379 2.532973289489746 16.03998565673828 3.9201419353485107 15.768000602722168 5.460000514984131 C 15.404999732971191 7.2330002784729 15.618000984191895 9.030000686645508 15.855000495910645 10.806000709533691 C 15.862619400024414 11.14028549194336 16.084041595458984 11.431885719299316 16.404001235961914 11.529000282287598 L 16.739999771118164 11.583000183105469 C 17.147912979125977 11.679558753967285 17.556865692138672 11.42715835571289 17.653425216674805 11.019246101379395 C 17.71164321899414 10.773309707641602 17.64362335205078 10.514527320861816 17.472002029418945 10.329000473022461 C 16.143001556396484 8.619000434875488 14.700000762939453 6.8460001945495605 12.750000953674316 5.8560004234313965 C 10.689001083374023 4.815000057220459 8.40000057220459 4.884000301361084 6.300000190734863 5.796000003814697 C 2.052000045776367 7.653000354766846 0.13500000536441803 12.642000198364258 0.0 16.998001098632812 C -0.0824822410941124 19.207202911376953 0.37038296461105347 21.403602600097656 1.3200000524520874 23.400001525878906 C 2.242626190185547 25.267953872680664 3.6841819286346436 26.830333709716797 5.4720001220703125 27.900001525878906 C 8.916000366210938 29.98200225830078 13.356000900268555 30.25800132751465 17.11800193786621 28.9320011138916 C 21.263999938964844 27.474000930786133 24.618000030517578 24.413999557495117 27.093000411987305 20.850000381469727 C 27.39299964904785 20.417999267578125 27.69300079345703 19.976999282836914 27.96000099182129 19.527000427246094 C 28.46700096130371 18.720001220703125 27.171001434326172 17.964000701904297 26.663999557495117 18.786001205444336" stroke-width="1.0" fill="rgb(35, 24, 21)" opacity="1.0"/>
  </g>
</svg>
