<?xml version="1.0" ?>
<svg xmlns="http://www.w3.org/2000/svg" version="1.1" width="600" height="600">
  <defs/>
  <g>
    <path d="M 15.399999618530273 29.581998825073242 C 13.257643699645996 28.53096580505371 11.183844566345215 27.345605850219727 9.190999984741211 26.03299903869629 C 6.551999568939209 24.290000915527344 3.9759998321533203 22.218000411987305 2.6599998474121094 19.347999572753906 C 0.44099998474121094 14.482999801635742 2.5199999809265137 8.526000022888184 6.236999988555908 4.689999580383301 C 7.413000106811523 3.4719998836517334 8.967000007629395 2.3309998512268066 10.647000312805176 2.5899999141693115 C 11.667884826660156 2.821624994277954 12.615459442138672 3.3026273250579834 13.404999732971191 3.989999771118164 C 15.946000099182129 5.894000053405762 18.802000045776367 8.637999534606934 17.927000045776367 11.690000534057617 L 18.703998565673828 14.196000099182129 C 18.19999885559082 10.927000045776367 17.815000534057617 7.195999622344971 19.94999885559082 4.689999580383301 C 21.10142707824707 3.4590327739715576 22.5965518951416 2.6029341220855713 24.24100112915039 2.2330000400543213 C 27.74100112915039 1.2949999570846558 31.68199920654297 1.7289999723434448 34.53799819946289 3.919999837875366 C 37.39399719238281 6.110999584197998 38.856998443603516 10.220000267028809 37.492000579833984 13.545000076293945 C 36.644996643066406 15.645000457763672 34.894996643066406 17.17099952697754 33.13100051879883 18.55699920654297 C 27.48741912841797 22.999225616455078 21.161481857299805 26.497875213623047 14.398999214172363 28.91699981689453 L 15.399999618530273 29.581998825073242" stroke-width="1.0" fill="rgb(35, 24, 21)" opacity="1.0"/>
    <path d="M 16.274999618530273 28.069997787475586 C 12.984999656677246 26.445999145507812 9.561999320983887 24.569997787475586 6.867000102996826 22.06399917602539 C 4.507999897003174 19.865999221801758 3.18500018119812 17.072999954223633 3.562999963760376 13.810999870300293 C 3.997464656829834 10.728689193725586 5.454320907592773 7.881532669067383 7.699999809265137 5.7260003089904785 C 8.819999694824219 4.619999885559082 10.023999214172363 3.8499999046325684 11.48699951171875 4.752999782562256 C 12.908406257629395 5.6238884925842285 14.178104400634766 6.720983505249023 15.246000289916992 8.00100040435791 C 15.760628700256348 8.587356567382812 16.127811431884766 9.288121223449707 16.316999435424805 10.045000076293945 C 16.464000701904297 10.779999732971191 16.10700035095215 11.444999694824219 16.281999588012695 12.201000213623047 C 16.457000732421875 12.956999778747559 16.792999267578125 13.83899974822998 17.045000076293945 14.651000022888184 C 17.31643295288086 15.569939613342285 18.264984130859375 16.110645294189453 19.194000244140625 15.87600040435791 C 20.109148025512695 15.59550666809082 20.64651870727539 14.649737358093262 20.41900062561035 13.720000267028809 C 20.068620681762695 11.98086166381836 19.9930362701416 10.197547912597656 20.19499969482422 8.4350004196167 C 20.421613693237305 6.730653285980225 21.49687957763672 5.2574334144592285 23.051000595092773 4.521999835968018 C 26.31828498840332 2.942584753036499 30.16952133178711 3.1622772216796875 33.236000061035156 5.102999687194824 C 35.79100036621094 6.832000255584717 37.176998138427734 10.583999633789062 35.6510009765625 13.411999702453613 C 34.683937072753906 14.950380325317383 33.41752243041992 16.2786865234375 31.927000045776367 17.3179988861084 C 30.274999618530273 18.612998962402344 28.538999557495117 19.816999435424805 26.76099967956543 20.944000244140625 C 22.737262725830078 23.507122039794922 18.443771362304688 25.619831085205078 13.958000183105469 27.24399757385254 C 13.021690368652344 27.53993034362793 12.502562522888184 28.538860321044922 12.798494338989258 29.475168228149414 C 12.925138473510742 29.8758602142334 13.189610481262207 30.2187442779541 13.545000076293945 30.44300079345703 L 14.539000511169434 31.10099983215332 C 16.415000915527344 32.354000091552734 18.171998977661133 29.329999923706055 16.30299949645996 28.083999633789062 L 15.309000015258789 27.38399887084961 L 14.888999938964844 30.582998275756836 C 19.664794921875 28.874521255493164 24.239608764648438 26.649314880371094 28.531997680664062 23.946998596191406 C 30.62980079650879 22.608707427978516 32.6534423828125 21.157575607299805 34.593997955322266 19.600000381469727 C 36.46308898925781 18.25151824951172 37.97650909423828 16.46904754638672 39.00400161743164 14.406000137329102 C 40.8589973449707 10.13599967956543 39.045997619628906 5.110000133514404 35.41999816894531 2.3940000534057617 C 31.79399871826172 -0.32199999690055847 26.389999389648438 -0.6510000228881836 22.183000564575195 1.084999918937683 C 19.64859390258789 2.038689613342285 17.712961196899414 4.132596969604492 16.96099853515625 6.733999729156494 C 16.26099967956543 9.323999404907227 16.618000030517578 12.046998977661133 17.017000198364258 14.651000022888184 L 20.39099884033203 13.720000267028809 L 19.600000381469727 11.199999809265137 L 19.600000381469727 12.130999565124512 C 20.621999740600586 8.175999641418457 17.61199951171875 5.026000022888184 14.699999809265137 2.799999952316284 C 13.125 1.5749999284744263 11.444999694824219 0.5320000052452087 9.351999282836914 0.875 C 7.377999782562256 1.190000057220459 5.746999740600586 2.5759999752044678 4.452000141143799 4.0320000648498535 C 2.0390822887420654 6.7254109382629395 0.5118578672409058 10.095078468322754 0.07699999958276749 13.684999465942383 C -0.2861659526824951 17.302654266357422 0.9310934543609619 20.900842666625977 3.4160001277923584 23.55500030517578 C 6.37000036239624 26.83799934387207 10.590999603271484 29.155000686645508 14.51099967956543 31.086999893188477 C 15.347352027893066 31.5517520904541 16.401287078857422 31.277481079101562 16.904998779296875 30.464000701904297 C 17.380189895629883 29.627355575561523 17.10045623779297 28.564367294311523 16.274999618530273 28.069997787475586" stroke-width="1.0" fill="rgb(35, 24, 21)" opacity="1.0"/>
  </g>
</svg>
