<?xml version="1.0" ?>
<svg xmlns="http://www.w3.org/2000/svg" version="1.1" width="600" height="600">
  <defs/>
  <g>
    <path d="M 16.09800148010254 37.656002044677734 C 16.317001342773438 35.298004150390625 14.994000434875488 33.08700180053711 13.54800033569336 31.215002059936523 C 10.713000297546387 27.549001693725586 7.200000286102295 24.429000854492188 4.515000343322754 20.655000686645508 C 1.8300000429153442 16.881000518798828 -0.036000002175569534 12.129000663757324 1.0800000429153442 7.63200044631958 C 2.196000099182129 3.134999990463257 7.200000286102295 -0.4950000047683716 11.531999588012695 1.1399999856948853 C 16.1820011138916 2.892000198364258 17.32200050354004 8.886000633239746 17.33100128173828 13.85400104522705 L 19.562999725341797 11.244000434875488 C 20.130001068115234 7.344000339508057 23.238000869750977 3.768000364303589 27.150001525878906 3.186000108718872 C 31.062002182006836 2.6040000915527344 35.310001373291016 5.502000331878662 35.7390022277832 9.432000160217285 C 36.03900146484375 12.021000862121582 34.79100036621094 14.532000541687012 33.4530029296875 16.75800132751465 C 29.07236099243164 24.059343338012695 23.219078063964844 30.36829948425293 16.266000747680664 35.28300094604492 L 16.09800148010254 37.656002044677734" stroke-width="1.0" fill="rgb(255, 241, 0)" opacity="1.0"/>
    <path d="M 16.84800148010254 37.656002044677734 C 17.03700065612793 35.33399963378906 15.909000396728516 33.156002044677734 14.577000617980957 31.356000900268555 C 13.125746726989746 29.447858810424805 11.5693359375 27.622028350830078 9.914999961853027 25.887001037597656 C 6.834000587463379 22.533000946044922 3.6660001277923584 19.056001663208008 2.2230000495910645 14.640000343322754 C 1.5510001182556152 12.57300090789795 1.2630000114440918 10.343999862670898 1.7190001010894775 8.199000358581543 C 2.1038830280303955 6.428454399108887 3.02958607673645 4.821317195892334 4.368000507354736 3.6000001430511475 C 5.595000267028809 2.4689998626708984 7.200000286102295 1.6169999837875366 8.888999938964844 1.5 C 10.531106948852539 1.398327350616455 12.14093017578125 1.9878708124160767 13.329000473022461 3.126000165939331 C 15.795001029968262 5.466000080108643 16.413000106811523 9.300000190734863 16.551000595092773 12.558000564575195 C 16.57200050354004 12.99000072479248 16.58100128173828 13.422000885009766 16.58100128173828 13.85400104522705 C 16.58100128173828 14.454000473022461 17.424001693725586 14.892000198364258 17.862001419067383 14.381999969482422 L 19.941001892089844 11.952000617980957 C 20.13497543334961 11.754331588745117 20.26644515991211 11.503914833068848 20.319002151489258 11.232000350952148 C 20.406404495239258 10.722476959228516 20.534820556640625 10.220846176147461 20.703001022338867 9.732000350952148 C 21.028470993041992 8.791618347167969 21.50247573852539 7.90944242477417 22.10700225830078 7.11899995803833 C 23.2968807220459 5.514403820037842 25.029455184936523 4.397026062011719 26.98200225830078 3.9750001430511475 C 28.84800148010254 3.6030001640319824 30.795001983642578 4.1579999923706055 32.33100128173828 5.2350006103515625 C 33.867000579833984 6.312000751495361 34.965003967285156 8.04900074005127 35.031002044677734 9.956999778747559 C 35.1150016784668 12.495000839233398 33.7650032043457 14.826000213623047 32.48099899291992 16.91699981689453 C 29.94045066833496 21.055591583251953 26.910627365112305 24.873088836669922 23.457000732421875 28.28700065612793 C 21.71645164489746 30.007972717285156 19.87413787841797 31.622879028320312 17.940000534057617 33.12300109863281 Q 17.229000091552734 33.672000885009766 16.5 34.20000076293945 C 16.056001663208008 34.520999908447266 15.560999870300293 34.746002197265625 15.510001182556152 35.34600067138672 C 15.459000587463379 35.94600296020508 15.425999641418457 36.54600143432617 15.383999824523926 37.145999908447266 L 15.345001220703125 37.665000915527344 C 15.345001220703125 38.07921600341797 15.680787086486816 38.415000915527344 16.095001220703125 38.415000915527344 C 16.509214401245117 38.415000915527344 16.845001220703125 38.07921600341797 16.845001220703125 37.665000915527344 L 17.01300048828125 35.29199981689453 L 16.641000747680664 35.94000244140625 C 23.457109451293945 31.12390899658203 29.23725700378418 24.988752365112305 33.638999938964844 17.898000717163086 C 34.77300262451172 16.065000534057617 35.90400314331055 14.118000984191895 36.3390007019043 11.982000350952148 C 36.77080535888672 10.088512420654297 36.458251953125 8.101489067077637 35.46600341796875 6.432000637054443 C 33.546756744384766 3.3925626277923584 29.951475143432617 1.8520690202713013 26.427000045776367 2.559000015258789 C 22.470001220703125 3.431999921798706 19.43400001525879 7.1100006103515625 18.84000015258789 11.043001174926758 L 19.031999588012695 10.713000297546387 L 16.80000114440918 13.32300090789795 L 18.08100128173828 13.85400104522705 C 18.08100128173828 10.233000755310059 17.59800148010254 6.12000036239624 15.336000442504883 3.1470000743865967 C 14.235377311706543 1.6331710815429688 12.62421989440918 0.5686566829681396 10.800000190734863 0.15000000596046448 C 8.871105194091797 -0.21198773384094238 6.876404762268066 0.14215148985385895 5.190000057220459 1.1460000276565552 C 3.466513156890869 2.1405599117279053 2.0633578300476074 3.607211112976074 1.1460000276565552 5.373000144958496 C 0.16441158950328827 7.377896785736084 -0.20495565235614777 9.62748908996582 0.08400000631809235 11.8410005569458 C 0.6420000791549683 16.749000549316406 3.4800002574920654 20.892000198364258 6.657000541687012 24.51900291442871 C 8.28600025177002 26.37900161743164 10.01400089263916 28.155000686645508 11.622000694274902 30.036001205444336 C 13.122000694274902 31.779001235961914 14.733000755310059 33.70500183105469 15.246000289916992 35.99700164794922 C 15.363862037658691 36.5416374206543 15.398255348205566 37.10102844238281 15.348000526428223 37.656002044677734 C 15.348000526428223 38.070213317871094 15.68378734588623 38.406002044677734 16.09800148010254 38.406002044677734 C 16.51221466064453 38.406002044677734 16.84800148010254 38.070213317871094 16.84800148010254 37.656002044677734" stroke-width="1.0" fill="rgb(35, 24, 21)" opacity="1.0"/>
  </g>
</svg>
