<?xml version="1.0" ?>
<svg xmlns="http://www.w3.org/2000/svg" version="1.1" width="600" height="600">
  <defs/>
  <g>
    <path d="M 31.72319984436035 15.01416015625 C 28.356800079345703 9.475336074829102 21.913543701171875 10.60981559753418 16.853796005249023 12.756479263305664 C 18.829652786254883 8.661348342895508 20.03689956665039 11.853151321411133 20.805316925048828 4.45851993560791 C 18.835071563720703 4.111579895019531 17.178068161010742 6.863744258880615 16.632043838500977 8.504739761352539 C 16.171939849853516 9.788680076599121 16.68716049194336 11.44320011138916 16.29759979248047 12.674799919128418 C 15.452400207519531 12.198439598083496 15.249277114868164 10.586999893188477 14.960235595703125 9.790440559387207 C 14.282244682312012 8.028109550476074 13.242584228515625 6.4273576736450195 11.908235549926758 5.091320037841797 C 9.519559860229492 2.7688000202178955 5.26855993270874 1.257688045501709 2.06795597076416 2.566080093383789 C 2.8900439739227295 3.7679519653320312 4.431156158447266 4.25951623916626 5.262440204620361 5.535987854003906 C 6.413355827331543 6.816679954528809 6.879956245422363 8.453840255737305 8.54183578491211 9.175439834594727 C 11.208891868591309 10.094171524047852 14.407588005065918 10.563664436340332 16.09755516052246 13.095840454101562 C 12.790403366088867 12.771039962768555 10.51545524597168 15.682428359985352 10.631316184997559 18.842920303344727 C 11.107955932617188 18.991840362548828 11.450756072998047 18.489681243896484 11.853156089782715 18.307159423828125 C 14.005155563354492 18.06707191467285 15.594240188598633 16.4350643157959 16.37734031677246 14.484235763549805 C 16.586036682128906 14.030599594116211 16.591556549072266 13.160200119018555 17.20887565612793 13.161836624145508 C 18.977128982543945 13.324666976928711 19.78952407836914 14.915899276733398 21.288646697998047 15.670292854309082 C 24.59649658203125 18.079423904418945 29.27853775024414 18.886436462402344 33.060401916503906 17.124691009521484 C 32.84951400756836 16.3652400970459 32.1617546081543 15.676401138305664 31.72319984436035 15.01416015625" stroke-width="0.0" fill="rgb(100, 157, 68)" opacity="1.0"/>
  </g>
</svg>
