<?xml version="1.0" ?>
<svg xmlns="http://www.w3.org/2000/svg" version="1.1" width="600" height="600">
  <defs/>
  <g>
    <path d="M 2.190716028213501 10.606400489807129 C 2.857435941696167 11.889280319213867 3.9921557903289795 11.19711971282959 3.5894761085510254 12.850959777832031 C 2.219804048538208 16.424888610839844 5.019164085388184 15.877967834472656 6.926896095275879 17.223167419433594 C 6.2892961502075195 20.521625518798828 7.709784030914307 23.08907699584961 11.23875617980957 23.563568115234375 C 12.754876136779785 23.74632453918457 14.771316528320312 22.833805084228516 15.225236892700195 24.535762786865234 C 15.170631408691406 28.705480575561523 17.364791870117188 28.710693359375 20.82083511352539 27.933517456054688 C 21.955387115478516 27.722244262695312 23.729068756103516 26.78336524963379 24.807235717773438 27.405513763427734 C 25.48167610168457 27.794757843017578 25.338476181030273 28.73959732055664 25.947673797607422 29.084075927734375 C 26.738195419311523 29.531116485595703 28.554515838623047 28.660837173461914 29.45267677307129 28.692596435546875 C 30.62567710876465 28.734155654907227 33.08787536621094 30.757877349853516 34.059234619140625 29.4199161529541 C 35.219635009765625 27.821598052978516 32.044273376464844 26.53763771057129 31.786956787109375 25.365875244140625 C 31.646514892578125 24.726396560668945 32.04759979248047 23.467676162719727 31.488595962524414 22.959636688232422 C 30.985076904296875 22.501956939697266 29.952917098999023 23.103275299072266 29.470117568969727 22.542715072631836 C 28.35831642150879 21.251834869384766 31.692157745361328 19.59919548034668 31.41915512084961 16.06075668334961 C 31.330474853515625 14.911195755004883 31.66475486755371 13.58167552947998 30.565515518188477 12.864835739135742 C 28.9075870513916 11.644815444946289 26.891489028930664 14.543235778808594 25.292036056518555 13.274991989135742 C 24.851757049560547 12.773956298828125 24.941715240478516 10.693315505981445 24.90975570678711 10.039916038513184 C 25.257356643676758 5.6912641525268555 22.24394416809082 0.15207600593566895 17.9006290435791 4.538140296936035 C 15.706436157226562 6.164400100708008 15.163235664367676 0.21459999680519104 11.942075729370117 2.6184401512145996 C 10.445755958557129 3.7351200580596924 11.112035751342773 2.717679977416992 9.543875694274902 2.2659599781036377 C 8.439716339111328 1.9478800296783447 7.788036346435547 2.812079906463623 7.211795806884766 3.51636004447937 C 6.613516330718994 4.2476396560668945 7.187075614929199 4.050360202789307 6.104676246643066 4.214600086212158 C 4.746399879455566 4.005548000335693 2.928611993789673 5.134400367736816 3.0722479820251465 6.614875793457031 C 3.9105401039123535 8.47575569152832 1.346832036972046 8.8161039352417 2.190716028213501 10.606400489807129" stroke-width="0.0" fill="rgb(100, 157, 68)" opacity="1.0"/>
  </g>
</svg>
