<?xml version="1.0" ?>
<svg xmlns="http://www.w3.org/2000/svg" version="1.1" width="600" height="600">
  <defs/>
  <g>
    <path d="M 44.910400390625 35.87999725341797 C 40.89913558959961 36.88451385498047 37.42837142944336 39.074275970458984 33.901248931884766 41.171058654785156 C 32.26095962524414 41.83230972290039 30.3055477142334 43.76505661010742 31.625646591186523 45.541053771972656 C 31.519611358642578 45.619937896728516 31.411968231201172 45.696537017822266 31.3002872467041 45.767417907714844 C 30.311443328857422 43.422218322753906 29.32588768005371 41.07624816894531 28.396411895751953 38.70657730102539 C 28.54775619506836 38.52771759033203 28.72121238708496 38.36635208129883 28.878887176513672 38.19149398803711 C 32.447906494140625 38.82086944580078 35.82738494873047 36.28947067260742 38.25640106201172 33.91413116455078 C 40.7351188659668 30.656448364257812 42.268253326416016 26.4523983001709 43.21411895751953 22.52640151977539 C 42.81190490722656 24.32795524597168 36.81620788574219 26.230499267578125 35.03323745727539 27.391727447509766 C 31.442581176757812 29.24538230895996 26.634265899658203 33.46194839477539 28.51107406616211 37.89459991455078 C 28.40787696838379 38.000160217285156 28.30551528930664 38.10651779174805 28.200916290283203 38.21080017089844 C 26.973888397216797 35.097068786621094 25.79306983947754 31.96354103088379 24.5231990814209 28.867717742919922 C 24.559314727783203 28.807720184326172 24.584758758544922 28.739349365234375 24.615917205810547 28.676239013671875 C 34.43874740600586 26.800167083740234 32.464263916015625 16.196640014648438 35.88911819458008 9.443920135498047 L 36.077754974365234 9.134320259094238 C 34.85072326660156 10.890764236450195 32.95271682739258 12.018872261047363 31.245807647705078 13.2857084274292 C 27.11480140686035 16.33839988708496 23.03634262084961 21.222135543823242 23.60427474975586 26.65679931640625 Q 23.243375778198242 25.79201889038086 22.887075424194336 24.925079345703125 C 26.05531883239746 15.950700759887695 19.790544509887695 10.909024238586426 14.87279987335205 4.607016086578369 C 14.389673233032227 3.6793856620788574 13.678865432739258 2.8896539211273193 12.807035446166992 2.311879873275757 C 13.602155685424805 3.156100034713745 14.435888290405273 6.178544044494629 14.161160469055176 7.733708381652832 C 13.853671073913574 14.556623458862305 15.58195972442627 22.137706756591797 22.483915328979492 25.04483985900879 C 22.957075119018555 26.23335838317871 23.440357208251953 27.417200088500977 23.919755935668945 28.602319717407227 C 23.813199996948242 28.56924057006836 23.707275390625 28.53428077697754 23.600875854492188 28.500560760498047 C 22.74820899963379 23.188243865966797 16.121400833129883 22.547039031982422 11.758580207824707 22.230224609375 C 8.684484481811523 22.107248306274414 5.2626237869262695 23.504919052124023 2.3856759071350098 22.15176010131836 C 7.10297155380249 24.439056396484375 11.336799621582031 28.569416046142578 16.55343246459961 30.042800903320312 C 18.776111602783203 30.23171615600586 21.996232986450195 30.975025177001953 23.584596633911133 29.045068740844727 C 23.78083610534668 29.1102294921875 23.976116180419922 29.17818832397461 24.173315048217773 29.239986419677734 C 25.363216400146484 32.233524322509766 26.5074520111084 35.24612045288086 27.699474334716797 38.24066925048828 C 27.63187599182129 38.224266052246094 27.56107521057129 38.21162796020508 27.492916107177734 38.19586944580078 C 23.460155487060547 29.8602294921875 12.857635498046875 34.73618698120117 5.932915687561035 35.1165885925293 C 8.618576049804688 35.394187927246094 10.969888687133789 37.34354019165039 13.117715835571289 38.87578582763672 C 17.568767547607422 41.041866302490234 23.47773551940918 41.86442947387695 27.693317413330078 38.77321243286133 C 27.77303123474121 38.79121017456055 27.85365867614746 38.82048034667969 27.93375587463379 38.83116912841797 C 28.846521377563477 41.14331817626953 29.803356170654297 43.43498992919922 30.754837036132812 45.72985076904297 C 30.616357803344727 45.70273208618164 30.478317260742188 45.67305374145508 30.340194702148438 45.644771575927734 C 30.073352813720703 41.79393768310547 25.11675262451172 42.468143463134766 22.342483520507812 42.129764556884766 C 19.293983459472656 41.563209533691406 16.268312454223633 42.509361267089844 13.214315414428711 42.1013298034668 L 13.438995361328125 42.165889739990234 C 18.522523880004883 43.95429229736328 25.00933265686035 51.04669189453125 30.194717407226562 46.12681198120117 C 30.45895767211914 46.185890197753906 30.72335433959961 46.243492126464844 30.9879150390625 46.297210693359375 C 32.310916900634766 49.098175048828125 32.84751510620117 52.28911590576172 34.613155364990234 54.854087829589844 C 34.593421936035156 55.407814025878906 35.49028778076172 55.167510986328125 35.21406936645508 54.68164825439453 C 33.52566909790039 52.073150634765625 32.79726791381836 48.99248504638672 31.478036880493164 46.19029235839844 C 31.628475189208984 46.0910530090332 31.77199935913086 45.98289108276367 31.912799835205078 45.871253967285156 C 38.40760040283203 48.808143615722656 40.90399932861328 38.99690628051758 44.910400390625 35.87999725341797" stroke-width="0.0" fill="rgb(232, 159, 36)" opacity="1.0"/>
  </g>
</svg>
