<?xml version="1.0" ?>
<svg xmlns="http://www.w3.org/2000/svg" version="1.1" width="600" height="600">
  <defs/>
  <g>
    <path d="M 34.81311798095703 25.203121185302734 C 35.233917236328125 24.278629302978516 30.680673599243164 24.15463638305664 32.9519157409668 20.795978546142578 C 33.354270935058594 20.31757926940918 32.97279739379883 20.24803924560547 32.16975021362305 19.72332000732422 C 31.36667251586914 19.198558807373047 28.60563087463379 19.641319274902344 27.80679702758789 19.006919860839844 C 27.007953643798828 18.372560501098633 27.46099281311035 16.578920364379883 26.493432998657227 14.620920181274414 C 25.52587127685547 12.662960052490234 22.039596557617188 9.126480102539062 20.682111740112305 7.318120002746582 C 19.32467269897461 5.50984001159668 17.640432357788086 2.207159996032715 17.41703224182129 2.3083598613739014 C 15.92218017578125 3.1353759765625 15.069987297058105 5.04253625869751 14.386759757995605 6.911908149719238 C 13.134223937988281 9.128503799438477 12.632256507873535 12.341596603393555 10.925871849060059 14.132743835449219 C 10.16242790222168 15.875787734985352 11.204328536987305 20.38741111755371 7.5625200271606445 18.832996368408203 C 6.523352146148682 18.738399505615234 5.962752342224121 19.046159744262695 4.837271690368652 19.77128028869629 C 3.7117919921875 20.49635887145996 2.15639591217041 20.98543930053711 2.196431875228882 21.371158599853516 C 2.2365119457244873 21.756839752197266 3.052191972732544 21.952838897705078 3.6318321228027344 22.578760147094727 C 4.709183692932129 24.84992790222168 4.841968059539795 25.896785736083984 6.334467887878418 29.377910614013672 C 6.939890384674072 30.66779136657715 6.660627841949463 32.19969177246094 5.638991832733154 33.19295883178711 C 5.411352157592773 33.40375900268555 5.771791934967041 34.021278381347656 7.285151481628418 34.62820053100586 C 15.117019653320312 37.92340087890625 20.32729148864746 24.66465187072754 18.921390533447266 33.15406036376953 C 18.87531089782715 34.359840393066406 18.616395950317383 39.673362731933594 18.989471435546875 39.962059020996094 C 19.362546920776367 40.25075912475586 20.256153106689453 39.84606170654297 20.256153106689453 39.84606170654297 C 18.636714935302734 20.960832595825195 21.821496963500977 37.28858184814453 30.064950942993164 33.0882453918457 C 32.72108840942383 31.419757843017578 32.030250549316406 27.42070960998535 34.81311798095703 25.203121185302734" stroke-width="0.0" fill="rgb(169, 200, 37)" opacity="1.0"/>
  </g>
</svg>
