<?xml version="1.0" ?>
<svg xmlns="http://www.w3.org/2000/svg" version="1.1" width="600" height="600">
  <defs/>
  <g>
    <path d="M 43.48815155029297 23.92095947265625 C 44.98704528808594 23.396635055541992 42.82883834838867 21.753482818603516 41.9789924621582 21.770238876342773 C 41.82538986206055 21.160280227661133 42.558189392089844 21.126800537109375 42.391029357910156 20.575759887695312 C 42.20103073120117 19.949718475341797 41.116512298583984 19.885879516601562 40.667598724365234 19.88644027709961 C 38.75019073486328 19.8887996673584 40.586402893066406 19.374839782714844 39.82915496826172 18.651599884033203 C 39.12123107910156 17.975439071655273 37.480751037597656 19.266679763793945 37.03931427001953 18.54368019104004 C 37.45626449584961 17.519439697265625 36.69330978393555 17.457048416137695 35.729637145996094 17.63534927368164 C 34.88959884643555 17.838520050048828 34.16203689575195 18.90791893005371 33.30583190917969 18.823558807373047 C 33.47154998779297 18.58527946472168 33.3568000793457 18.426559448242188 33.41919708251953 18.188159942626953 C 30.601999282836914 18.718639373779297 26.847332000732422 23.566999435424805 25.350399017333984 25.998998641967773 C 24.043201446533203 26.114831924438477 23.944751739501953 25.248228073120117 23.912471771240234 24.073440551757812 C 27.939830780029297 20.199644088745117 34.832313537597656 16.706031799316406 34.07080078125 10.193319320678711 C 33.84984588623047 10.293905258178711 33.61201858520508 10.352270126342773 33.36960220336914 10.365400314331055 C 32.89148712158203 8.737192153930664 34.03093719482422 6.006224155426025 31.191030502319336 7.4435601234436035 C 30.592510223388672 6.540040016174316 31.226150512695312 4.727080345153809 30.395910263061523 4.012279987335205 C 29.467233657836914 3.2126801013946533 29.37331199645996 5.2848801612854 28.325231552124023 5.030680179595947 C 27.9851131439209 4.2199201583862305 28.31171226501465 3.1163201332092285 27.311351776123047 2.6305201053619385 C 26.331710815429688 2.1547598838806152 26.28171157836914 3.2129199504852295 25.641311645507812 3.697399854660034 C 24.886871337890625 2.454319953918457 24.67788314819336 2.3111560344696045 23.84267234802246 3.5980000495910645 C 23.521312713623047 3.2137598991394043 23.50179100036621 2.626840114593506 23.446271896362305 2.1516799926757812 C 22.562231063842773 1.9288400411605835 22.24671173095703 3.346560001373291 22.20863151550293 3.9943599700927734 C 21.81595230102539 3.4768002033233643 21.193599700927734 1.8013200759887695 20.470991134643555 2.966279983520508 C 20.296852111816406 4.236231803894043 19.990331649780273 4.707603931427002 19.10367202758789 3.469640016555786 C 18.110111236572266 3.8095600605010986 17.579030990600586 5.346159934997559 17.575870513916016 6.300439834594727 C 16.80187225341797 6.288359642028809 16.73899269104004 5.307040214538574 16.2259521484375 6.6080002784729 C 16.075511932373047 6.989480018615723 16.309473037719727 8.213399887084961 16.080951690673828 8.45088005065918 C 15.683871269226074 8.86359977722168 15.564631462097168 8.04163932800293 15.17755126953125 8.835160255432129 C 14.906512260437012 9.39072036743164 15.157951354980469 10.44555950164795 15.166071891784668 11.04088020324707 C 13.390400886535645 10.405252456665039 13.934280395507812 11.710260391235352 14.224000930786133 12.826400756835938 C 15.395808219909668 17.783891677856445 19.901880264282227 21.169048309326172 23.375864028930664 24.236799240112305 C 23.40946388244629 25.311540603637695 23.61346435546875 26.02451515197754 22.52239227294922 26.10732078552246 C 20.576536178588867 23.9717960357666 17.408855438232422 20.036800384521484 14.40907096862793 19.490480422973633 C 14.415231704711914 19.69260025024414 14.291911125183105 19.904359817504883 14.345232009887695 20.123559951782227 C 13.484271049499512 19.385839462280273 12.10151195526123 18.064760208129883 10.917871475219727 18.769079208374023 C 11.0531005859375 19.071043014526367 11.126944541931152 19.396879196166992 11.135111808776855 19.72764015197754 C 10.070219993591309 18.518808364868164 7.169699668884277 18.278228759765625 8.05675220489502 20.566120147705078 C 6.203683853149414 20.43147087097168 3.6577839851379395 20.14515495300293 5.334752082824707 22.824399948120117 C 3.3112359046936035 22.943395614624023 2.486207962036133 23.374401092529297 3.7447078227996826 25.329730987548828 C 3.7748360633850098 26.255178451538086 1.8688039779663086 25.723560333251953 2.140739917755127 27.115859985351562 C 2.2868399620056152 27.676807403564453 2.6579718589782715 27.892974853515625 2.641091823577881 28.472631454467773 C 2.7546920776367188 29.193201065063477 2.6570920944213867 29.218759536743164 3.1760001182556152 29.69923973083496 C 3.546112060546875 30.04195785522461 3.563512086868286 29.881601333618164 3.683311939239502 30.274240493774414 C 3.6034839153289795 31.27886390686035 3.7688159942626953 32.54958724975586 5.0593719482421875 32.588966369628906 C 6.302000045776367 32.72072219848633 5.9217119216918945 32.54164123535156 6.257599830627441 33.60932159423828 C 6.827631950378418 35.42103958129883 9.405912399291992 34.13867950439453 10.699199676513672 34.24176025390625 C 10.387384414672852 35.79051971435547 10.705599784851074 36.264652252197266 12.308564186096191 35.77912902832031 C 13.288592338562012 35.47663879394531 14.413111686706543 34.03620147705078 15.358671188354492 34.227359771728516 C 15.315423965454102 37.21514129638672 17.428272247314453 34.94422149658203 18.33651351928711 33.81064224243164 C 17.572540283203125 35.446983337402344 18.382648468017578 36.364158630371094 19.67954444885254 34.958961486816406 C 20.122072219848633 34.405357360839844 20.52347183227539 32.35499954223633 20.852001190185547 34.14543914794922 C 23.35063934326172 33.011871337890625 23.619014739990234 29.235492706298828 22.813032150268555 26.78143882751465 C 23.554458618164062 26.77425193786621 24.294803619384766 26.7230167388916 25.0301513671875 26.628000259399414 C 24.59935188293457 27.27077293395996 25.07369613647461 32.33913803100586 26.115833282470703 30.58251953125 C 26.793033599853516 31.414371490478516 26.620792388916016 33.314571380615234 27.879098892211914 33.607078552246094 C 28.14347267150879 33.602760314941406 28.173751831054688 33.173316955566406 28.299999237060547 33.17695999145508 C 28.592071533203125 33.185401916503906 31.5230712890625 36.51211929321289 31.24491310119629 34.402278900146484 C 32.029598236083984 34.279598236083984 32.59711456298828 35.382198333740234 33.27735137939453 35.632041931152344 C 35.149600982666016 36.31951904296875 33.8223991394043 34.49892044067383 34.67659378051758 33.91564178466797 C 35.331153869628906 33.46868133544922 36.09291076660156 34.774959564208984 36.79003143310547 34.74932098388672 C 37.78615188598633 34.71268081665039 37.37314987182617 33.927162170410156 37.527950286865234 33.31480026245117 C 38.596397399902344 33.206600189208984 40.94395065307617 34.16364288330078 40.851234436035156 32.40176010131836 C 41.319271087646484 32.191280364990234 42.0601921081543 32.594200134277344 42.38991165161133 32.077640533447266 C 42.62175369262695 31.714441299438477 42.1339111328125 31.244680404663086 42.397789001464844 30.850399017333984 C 42.84339141845703 30.184560775756836 43.71219253540039 30.859039306640625 43.979469299316406 29.928157806396484 C 44.144351959228516 29.353759765625 43.628150939941406 28.819799423217773 43.3980712890625 28.394241333007812 C 42.45191192626953 26.64419937133789 44.11091232299805 27.365880966186523 44.41911315917969 26.149038314819336 C 44.679954528808594 25.119159698486328 43.38467025756836 24.728641510009766 43.48815155029297 23.92095947265625" stroke-width="0.0" fill="rgb(133, 189, 71)" opacity="1.0"/>
  </g>
</svg>
