<?xml version="1.0" ?>
<svg xmlns="http://www.w3.org/2000/svg" version="1.1" width="600" height="600">
  <defs/>
  <g>
    <path d="M 23.36383628845215 12.442999839782715 C 23.072437286376953 12.216400146484375 22.395795822143555 12.34119987487793 22.240596771240234 11.966039657592773 C 23.92181968688965 5.553324222564697 17.81430435180664 12.009592056274414 15.999292373657227 13.312507629394531 C 15.50739574432373 13.606907844543457 15.11259651184082 13.794400215148926 15.126835823059082 13.014108657836914 C 15.358479499816895 10.65650749206543 20.11233139038086 8.34925651550293 18.255672454833984 5.948624134063721 C 17.625476837158203 5.73886775970459 17.601436614990234 6.32562780380249 17.604595184326172 5.488028049468994 C 17.606515884399414 4.98818826675415 17.749435424804688 4.669867992401123 17.176115036010742 4.427587985992432 C 15.16071891784668 4.037772178649902 13.861108779907227 7.082684516906738 12.981515884399414 8.31242847442627 C 12.445436477661133 7.786707878112793 12.666555404663086 5.992747783660889 12.585115432739258 5.319947719573975 C 12.352148056030273 2.7440438270568848 10.525232315063477 1.4421360492706299 9.430476188659668 4.525588035583496 C 8.300375938415527 4.16353178024292 8.695772171020508 1.7777200937271118 6.9107561111450195 2.5455880165100098 C 5.810403823852539 3.733935832977295 8.472672462463379 5.684592247009277 5.418275833129883 4.941408157348633 C 3.361999988555908 4.9325480461120605 6.568556308746338 7.984208106994629 7.100035667419434 8.350467681884766 C 7.66183614730835 8.73766803741455 8.71871566772461 9.617268562316895 7.2786760330200195 9.663347244262695 C 5.98011589050293 9.70490837097168 4.492475986480713 9.301467895507812 3.359236240386963 10.203388214111328 C 1.0394359827041626 12.049707412719727 10.621556282043457 13.857028007507324 9.95931625366211 15.81470775604248 C 8.695223808288574 16.80366325378418 5.752732276916504 15.553812026977539 4.055359840393066 16.850008010864258 C 1.2657840251922607 18.39200782775879 2.396684169769287 18.741077423095703 4.495051860809326 19.884408950805664 C 4.962756156921387 20.480091094970703 3.7439560890197754 20.949331283569336 4.32480001449585 21.62569236755371 C 7.542443752288818 23.013500213623047 12.098983764648438 19.671104431152344 15.2526273727417 21.923784255981445 C 16.948131561279297 23.459911346435547 17.69290542602539 25.937164306640625 19.030664443969727 27.784902572631836 C 19.319116592407227 28.216693878173828 19.88319969177246 30.19773292541504 20.49811553955078 29.80133056640625 C 21.081836700439453 29.425012588500977 19.902637481689453 28.203372955322266 19.658077239990234 27.805932998657227 C 15.111300468444824 20.55904769897461 15.228609085083008 19.991531372070312 22.141942977905273 15.114596366882324 C 22.833675384521484 14.6000394821167 24.534835815429688 13.353559494018555 23.36383628845215 12.442999839782715" stroke-width="0.0" fill="rgb(169, 200, 37)" opacity="1.0"/>
  </g>
</svg>
