<?xml version="1.0" ?>
<svg xmlns="http://www.w3.org/2000/svg" version="1.1" width="600" height="600">
  <defs/>
  <g>
    <path d="M 39.466670989990234 16.329679489135742 C 35.672271728515625 14.822123527526855 32.087833404541016 12.636899948120117 27.873342514038086 13.997784614562988 C 26.18756675720215 14.345004081726074 24.314599990844727 14.488748550415039 22.863231658935547 15.526639938354492 C 22.285892486572266 16.112239837646484 21.768680572509766 16.682132720947266 20.893756866455078 16.75320053100586 C 20.87203598022461 16.079639434814453 21.86680030822754 15.215719223022461 22.253036499023438 14.66051959991455 C 23.201627731323242 12.453043937683105 25.990163803100586 13.18712043762207 27.582077026367188 12.191080093383789 C 26.846553802490234 11.905280113220215 25.728717803955078 12.118520736694336 25.127315521240234 11.80143928527832 C 25.627676010131836 10.639080047607422 27.990676879882812 9.297280311584473 28.744476318359375 8.775320053100586 C 27.673877716064453 8.224279403686523 25.565275192260742 9.37012004852295 24.690401077270508 10.890439987182617 C 25.294715881347656 9.387840270996094 25.979755401611328 4.103839874267578 24.587200164794922 2.7474398612976074 C 23.534687042236328 5.524819374084473 23.089637756347656 8.495515823364258 23.28203582763672 11.459400177001953 C 23.17729949951172 13.474519729614258 21.106136322021484 14.80492877960205 20.230236053466797 16.60455894470215 C 20.06467628479004 16.01020050048828 20.162275314331055 14.620280265808105 19.788837432861328 14.052119255065918 C 20.488595962524414 12.146719932556152 19.357555389404297 10.814199447631836 18.283676147460938 9.127240180969238 C 17.15312385559082 5.960247993469238 15.106663703918457 3.5971999168395996 11.708436012268066 2.7770400047302246 C 11.404699325561523 2.317039966583252 10.615132331848145 1.7811081409454346 11.336875915527344 2.683120012283325 C 11.29640007019043 2.6745200157165527 11.25411605834961 2.662479877471924 11.214356422424316 2.655359983444214 C 11.22227668762207 3.8269600868225098 12.158075332641602 4.786719799041748 12.803875923156738 5.702719688415527 C 14.987428665161133 8.50044059753418 17.02669906616211 12.207015991210938 19.570756912231445 14.426159858703613 C 19.957000732421875 16.253313064575195 19.726430892944336 17.951435089111328 18.307056427001953 19.282960891723633 C 16.593730926513672 21.561628341674805 15.094561576843262 23.993694305419922 13.828656196594238 26.548160552978516 C 13.788496017456055 24.74599838256836 13.657546997070312 22.947004318237305 13.436304092407227 21.158023834228516 C 12.610467910766602 19.55514907836914 12.047431945800781 18.16153335571289 12.279104232788086 16.335264205932617 C 11.487276077270508 10.679555892944336 5.730128288269043 6.962431907653809 2.3437039852142334 3.5986320972442627 C 3.249160051345825 8.961999893188477 3.096935987472534 15.601736068725586 7.298343658447266 19.732685089111328 C 9.484060287475586 20.88194465637207 11.245355606079102 22.913619995117188 13.148157119750977 24.284358978271484 C 13.11335563659668 30.801959991455078 7.1720123291015625 36.33833694458008 5.271803855895996 42.539276123046875 C 4.852835655212402 43.698402404785156 3.5002360343933105 45.702476501464844 4.2074761390686035 46.92975997924805 C 8.379836082458496 44.77033615112305 12.312948226928711 22.170398712158203 17.902118682861328 28.273651123046875 C 20.2166690826416 32.1092529296875 22.837718963623047 34.320404052734375 26.810321807861328 36.43660354614258 C 27.64835548400879 36.997440338134766 29.033676147460938 38.60095977783203 30.189075469970703 38.696842193603516 C 30.975448608398438 40.06993865966797 31.471643447875977 40.38665008544922 30.445999145507812 38.6903190612793 C 30.499277114868164 38.685264587402344 30.552093505859375 38.67618179321289 30.604000091552734 38.66315841674805 C 30.423168182373047 35.456295013427734 28.121063232421875 33.0434684753418 26.44168472290039 30.46904945373535 C 24.387887954711914 28.636571884155273 21.55265998840332 27.8187313079834 19.039031982421875 26.808679580688477 C 17.619800567626953 26.210500717163086 16.22058868408203 26.854068756103516 14.790315628051758 26.9224796295166 C 14.566520690917969 25.159252166748047 20.315114974975586 17.683551788330078 22.035076141357422 17.021760940551758 C 29.779687881469727 17.043851852416992 29.763076782226562 20.974454879760742 38.404197692871094 16.118240356445312 C 38.666194915771484 16.092191696166992 39.48912811279297 16.600000381469727 39.466670989990234 16.329679489135742" stroke-width="0.0" fill="rgb(33, 133, 73)" opacity="1.0"/>
  </g>
</svg>
