<svg xmlns="http://www.w3.org/2000/svg" viewBox="0 0 68.85 68.87"><defs><style>.cls-1{fill:#8fc31f;}.cls-2{fill:#231815;}</style></defs><g id="图层_2" data-name="图层 2"><g id="图层_1-2" data-name="图层 1"><path class="cls-1" d="M3.49,12.09A80.76,80.76,0,0,0,20.73,3.86a8.12,8.12,0,0,1,3.13-1.41A7.63,7.63,0,0,1,27.08,3L66.39,15.72A154,154,0,0,0,54.85,51c-.42,2.15-.86,4.43-2.33,6a11.84,11.84,0,0,1-4.23,2.55L32.22,66.34,50.93,22.22,2.48,13.05Z"/><path class="cls-2" d="M4.16,14.5a88.63,88.63,0,0,0,11.5-4.86q2.74-1.41,5.37-3a20.64,20.64,0,0,1,2.46-1.49A3.38,3.38,0,0,1,26,5.26c8.48,2.58,16.88,5.47,25.31,8.2l14.45,4.67-1.5-3.67a160,160,0,0,0-9,24.1c-1.14,4.07-2.08,8.18-2.92,12.32-.3,1.47-.57,3.18-1.58,4.36-1.19,1.39-3.33,2-5,2.68l-14.24,6,2.83,3.67L53.09,23.48c.57-1.35.27-3.34-1.49-3.67L3.14,10.64l1.1,4.18,1-1c2.34-2.22-1.2-5.75-3.54-3.54l-1,1a2.51,2.51,0,0,0,1.1,4.17l48.46,9.17L48.78,21,30.06,65.08a2.56,2.56,0,0,0,.2,2.77,2.43,2.43,0,0,0,2.62.9L46,63.23c4.08-1.72,8.36-3,10.18-7.48A31.84,31.84,0,0,0,57.59,50q.69-3.3,1.52-6.56,1.64-6.42,3.83-12.68A149.09,149.09,0,0,1,68.55,17a2.54,2.54,0,0,0-1.49-3.67L40.77,4.8C36.43,3.4,32.1,2,27.75.59A8.5,8.5,0,0,0,21,.82c-1.8.9-3.46,2.12-5.22,3.1A78.55,78.55,0,0,1,2.83,9.68a2.56,2.56,0,0,0-1.75,3.07A2.52,2.52,0,0,0,4.16,14.5Z"/></g></g></svg>