<svg xmlns="http://www.w3.org/2000/svg" viewBox="0 0 97.13 89.77"><defs><style>.cls-1{fill:#231815;}.cls-2{fill:#b4d128;}</style></defs><g id="图层_2" data-name="图层 2"><g id="图层_1-2" data-name="图层 1"><path class="cls-1" d="M6.56,21.77,36.31,5a17,17,0,0,1,6-2.44A16.48,16.48,0,0,1,48,3.12Q71.64,8.37,94.68,15.93L74.93,60a24.24,24.24,0,0,1-3.11,5.56c-2,2.45-4.9,4-7.7,5.49L33.34,87.33,51,36.54,2.47,24Z"/><path class="cls-2" d="M7.82,23.92l16.39-9.24,8-4.5c2.55-1.44,5.06-3,7.7-4.29S45,5,47.81,5.63q4.48,1,9,2.09,8.82,2.15,17.56,4.62,9.92,2.79,19.69,6l-1.5-3.68L76.44,50.54c-1.34,3-2.66,6-4,9a15.71,15.71,0,0,1-4.58,6.4,52.3,52.3,0,0,1-7.41,4.26l-8.58,4.54L32.08,85.17,35.75,88,53.37,37.21a2.53,2.53,0,0,0-1.74-3.08L3.13,21.59l.6,4.57,4.09-2.24c2.83-1.54.31-5.86-2.52-4.31L1.2,21.85a2.53,2.53,0,0,0,.6,4.57L50.3,39l-1.75-3.08L30.93,86.66c-.76,2.18,1.86,3.78,3.67,2.82l17.81-9.43,9-4.77c2.66-1.41,5.42-2.71,7.94-4.36a18.31,18.31,0,0,0,6-6.23c1.53-2.68,2.66-5.63,3.92-8.45l8.14-18.16L96.84,17.2a2.56,2.56,0,0,0-1.5-3.68Q77.4,7.64,59,3.13,54.57,2,50.09,1C47,.32,43.8-.46,40.61.33c-2.92.73-5.56,2.49-8.15,4L24.27,8.9,5.3,19.61C2.5,21.19,5,25.51,7.82,23.92Z"/></g></g></svg>