<?xml version="1.0" ?>
<svg xmlns="http://www.w3.org/2000/svg" version="1.1" width="600" height="600">
  <defs/>
  <g>
    <path d="M 4.668266773223877 2.9007668495178223 C 5.8960442543029785 10.51187801361084 2.446044683456421 18.02298927307129 1.5127110481262207 25.678544998168945 C 1.3071556091308594 27.345211029052734 1.2516001462936401 29.117435455322266 2.1182668209075928 30.539655685424805 C 2.8849334716796875 31.806324005126953 4.268266677856445 32.57854461669922 5.657155990600586 33.1063232421875 C 9.886238098144531 34.75776290893555 14.620964050292969 34.51293182373047 18.657154083251953 32.43410110473633 C 22.596044540405273 30.306324005126953 25.446044921875 26.13965606689453 25.684934616088867 21.667434692382812 C 25.85784339904785 19.70526695251465 25.349721908569336 17.743410110473633 24.246044158935547 16.111879348754883 C 22.41271209716797 13.6063232421875 19.134933471679688 12.778545379638672 16.273822784423828 11.550766944885254 C 11.346944808959961 9.44651985168457 7.177050590515137 5.89280891418457 4.318266868591309 1.3618777990341187 L 4.668266773223877 2.9007668495178223" stroke-width="1.0" fill="rgb(62, 63, 150)" opacity="1.0"/>
    <path d="M 3.329383373260498 3.2729945182800293 C 4.379383563995361 10.050772666931152 1.6071611642837524 16.711883544921875 0.46827223896980286 23.27299690246582 C -0.08728333562612534 26.378551483154297 -0.6428388953208923 30.0618839263916 1.9293832778930664 32.46744155883789 C 4.151605606079102 34.572998046875 7.657161712646484 35.36743927001953 10.62938404083252 35.52854919433594 C 16.773828506469727 35.86188507080078 22.890493392944336 32.706329345703125 25.629383087158203 27.084104537963867 C 27.006650924682617 24.398090362548828 27.411054611206055 21.317947387695312 26.773828506469727 18.36743927001953 C 26.046049118041992 15.33966064453125 23.812715530395508 13.284106254577637 21.06271743774414 12.011883735656738 C 19.59049415588379 11.334105491638184 18.046051025390625 10.8341064453125 16.56827163696289 10.172994613647461 C 15.050505638122559 9.493407249450684 13.599725723266602 8.673158645629883 12.234939575195312 7.722994804382324 C 9.552427291870117 5.835118293762207 7.269748210906982 3.4353792667388916 5.518272399902344 0.6618833541870117 C 5.113576412200928 0.006656603422015905 4.254339218139648 -0.1964387744665146 3.5991127490997314 0.20825712382793427 C 3.0821728706359863 0.5275409817695618 2.831474542617798 1.1447908878326416 2.9793832302093506 1.7341057062149048 L 3.329383373260498 3.2563278675079346 C 3.723827838897705 5.000772476196289 6.401605606079102 4.26188325881958 6.0071611404418945 2.517439126968384 L 5.657161235809326 0.9952166676521301 L 3.118272066116333 2.0618834495544434 C 6.211056709289551 6.959312915802002 10.744667053222656 10.778725624084473 16.096050262451172 12.995217323303223 C 18.31827163696289 13.928550720214844 20.940494537353516 14.611883163452148 22.673828125 16.417438507080078 C 24.407163619995117 18.22299575805664 24.601606369018555 21.161882400512695 24.00716209411621 23.539663314819336 C 22.723827362060547 28.684106826782227 18.046051025390625 32.317440032958984 12.823827743530273 32.745216369628906 C 10.146050453186035 32.967437744140625 7.162716865539551 32.55632781982422 4.807161331176758 31.18966293334961 C 3.737949848175049 30.636402130126953 2.9999587535858154 29.602802276611328 2.8238279819488525 28.411884307861328 C 2.7023165225982666 26.940784454345703 2.812927007675171 25.459726333618164 3.1516058444976807 24.022994995117188 C 4.384939193725586 16.86743927001953 7.146050453186035 9.895216941833496 6.0071611404418945 2.528550148010254 C 5.796669960021973 1.7926160097122192 5.035998821258545 1.360416293144226 4.296050071716309 1.5563278198242188 C 3.567412853240967 1.7789767980575562 3.141967296600342 2.5345096588134766 3.329383373260498 3.2729945182800293" stroke-width="1.0" fill="rgb(143, 165, 67)" opacity="1.0"/>
  </g>
</svg>
