<?xml version="1.0" ?>
<svg xmlns="http://www.w3.org/2000/svg" version="1.1" width="600" height="600">
  <defs/>
  <g>
    <path d="M 6.42222261428833 1.388888955116272 C 7.2833333015441895 7.544444561004639 1.6000001430511475 12.277778625488281 1.4222222566604614 18.488887786865234 C 1.415051817893982 21.236038208007812 2.600898027420044 23.850980758666992 4.672222137451172 25.655555725097656 C 6.735841274261475 27.42458152770996 9.27868938446045 28.540340423583984 11.977777481079102 28.861112594604492 C 15.652482032775879 29.4079532623291 19.401042938232422 28.608919143676758 22.533334732055664 26.611112594604492 C 25.671226501464844 24.558156967163086 27.684789657592773 21.1707820892334 27.988889694213867 17.433332443237305 C 28.07564353942871 16.53778839111328 27.93817710876465 15.634727478027344 27.588890075683594 14.80555534362793 C 27.09479331970215 13.879694938659668 26.35212516784668 13.110089302062988 25.44444465637207 12.583333015441895 C 22.188888549804688 10.4833345413208 18.172222137451172 10.044445037841797 14.483333587646484 8.855555534362793 C 10.794445037841797 7.6666669845581055 6.97777795791626 5.216667175292969 6.42222261428833 1.388888955116272" stroke-width="1.0" fill="rgb(62, 63, 150)" opacity="1.0"/>
    <path d="M 5.011111736297607 1.388888955116272 C 5.700000286102295 6.761111259460449 1.3611111640930176 11.088889122009277 0.28333333134651184 16.122222900390625 C -0.4150379002094269 19.09357261657715 0.19158907234668732 22.22174644470215 1.9500000476837158 24.7166690826416 C 3.863672971725464 27.282344818115234 6.615599632263184 29.096651077270508 9.727778434753418 29.844446182250977 C 15.738889694213867 31.38888931274414 22.66111183166504 29.74444580078125 26.561113357543945 24.7166690826416 C 28.344446182250977 22.427778244018555 29.572223663330078 19.411109924316406 29.338890075683594 16.46666717529297 C 29.2512264251709 14.775741577148438 28.441980361938477 13.20378303527832 27.116668701171875 12.15000057220459 C 25.81955909729004 11.148367881774902 24.36948013305664 10.362361907958984 22.822223663330078 9.822222709655762 C 19.649999618530273 8.633333206176758 16.155555725097656 8.316666603088379 13.088889122009277 6.888888835906982 C 10.572222709655762 5.722222328186035 8.183333396911621 3.9055557250976562 7.688889026641846 1.0166667699813843 C 7.478522300720215 0.2809833288192749 6.716475486755371 -0.14952360093593597 5.97777795791626 0.05000000447034836 C 5.250696659088135 0.26777446269989014 4.824422359466553 1.01987886428833 5.011111736297607 1.7555556297302246 C 5.972222328186035 7.372222900390625 11.977777481079102 9.76111125946045 16.827777862548828 11.0 C 19.60555648803711 11.70555591583252 22.488889694213867 12.30555534362793 24.894445419311523 13.933333396911621 C 26.022642135620117 14.619805335998535 26.667463302612305 15.883655548095703 26.561113357543945 17.200000762939453 C 26.518163681030273 18.41869354248047 26.23694610595703 19.617176055908203 25.733333587646484 20.727779388427734 C 23.416667938232422 25.866668701171875 17.7277774810791 28.149999618530273 12.344444274902344 27.52777862548828 C 9.57540225982666 27.279245376586914 6.977124214172363 26.082155227661133 4.988888740539551 24.13888931274414 C 3.205343008041382 22.32422637939453 2.399660587310791 19.76463508605957 2.8222222328186035 17.255556106567383 C 3.816666603088379 11.7333345413208 8.48888874053955 7.255556106567383 7.72777795791626 1.388888955116272 C 7.704638957977295 0.6316182017326355 7.096159934997559 0.02313879504799843 6.338889122009277 0.0 C 5.597054958343506 0.03550377115607262 5.013221263885498 0.6462085843086243 5.011111736297607 1.388888955116272" stroke-width="1.0" fill="rgb(143, 165, 67)" opacity="1.0"/>
  </g>
</svg>
