<?xml version="1.0" ?>
<svg xmlns="http://www.w3.org/2000/svg" version="1.1" width="600" height="600">
  <defs/>
  <g>
    <path d="M 10.739533424377441 2.7907943725585938 C 16.1284236907959 5.013016700744629 17.067312240600586 12.679682731628418 14.522866249084473 17.924129486083984 C 11.978422164916992 23.1685733795166 7.156199932098389 26.863018035888672 3.29508900642395 31.257463455200195 C 2.2506444454193115 32.4407958984375 1.2117555141448975 33.85746383666992 1.3561999797821045 35.424129486083984 C 1.467311143875122 36.62413024902344 2.245089054107666 37.6463508605957 3.02286696434021 38.563018798828125 C 5.345088958740234 41.34079360961914 8.183978080749512 44.04635238647461 11.767311096191406 44.524131774902344 C 16.13397789001465 45.07968521118164 20.189533233642578 42.174129486083984 23.156200408935547 38.91301727294922 C 26.811758041381836 34.8963508605957 29.74509048461914 29.540796279907227 28.63397979736328 24.235239028930664 C 28.178129196166992 22.356956481933594 27.42812728881836 20.562572479248047 26.41175651550293 18.91857147216797 C 22.46018409729004 12.072044372558594 17.11984634399414 6.128032207489014 10.733977317810059 1.4685722589492798 L 10.739533424377441 2.7907943725585938" stroke-width="1.0" fill="rgb(33, 72, 157)" opacity="1.0"/>
    <path d="M 10.039527893066406 3.9907946586608887 C 12.6450834274292 5.101905345916748 14.000639915466309 7.479683876037598 14.389528274536133 10.274127960205078 C 14.738679885864258 13.217921257019043 14.078622817993164 16.19307518005371 12.517306327819824 18.713016510009766 C 10.52286148071289 22.046350479125977 7.617305755615234 24.75190544128418 4.895083427429199 27.513017654418945 C 3.4950835704803467 28.929683685302734 1.9673056602478027 30.374130249023438 0.9061944484710693 32.074127197265625 C -0.28364336490631104 33.851383209228516 -0.30329418182373047 36.16581344604492 0.8561944365501404 37.963016510009766 C 1.970651626586914 39.61592102050781 3.30304217338562 41.11088943481445 4.817305564880371 42.4074592590332 C 6.280290126800537 43.77456283569336 8.013973236083984 44.81931686401367 9.906194686889648 45.47412872314453 C 13.933972358703613 46.75190353393555 17.967304229736328 45.12412643432617 21.145084381103516 42.64079666137695 C 24.31844711303711 40.15925979614258 26.87092399597168 36.973419189453125 28.60064125061035 33.33523941040039 C 30.40619659423828 29.44635009765625 30.82286262512207 25.257461547851562 29.15619659423828 21.25190544128418 C 27.54508399963379 17.4185733795166 25.033971786499023 13.874128341674805 22.43397331237793 10.65190601348877 C 19.912185668945312 7.521790504455566 17.064695358276367 4.668712615966797 13.939528465270996 2.140794515609741 C 13.11730670928955 1.4796833992004395 12.27286148071289 0.8352389335632324 11.428417205810547 0.21301667392253876 C 10.583971977233887 -0.4092055559158325 9.322861671447754 0.43523889780044556 9.33952808380127 1.4130167961120605 L 9.367305755615234 2.763016939163208 C 9.400639533996582 4.551905632019043 12.178417205810547 4.557461261749268 12.145084381103516 2.763016939163208 L 12.117305755615234 1.4130167961120605 L 10.028416633605957 2.6130168437957764 C 16.209604263305664 7.147983551025391 21.378602981567383 12.920536994934082 25.206195831298828 19.563016891479492 C 26.211750030517578 21.318571090698242 27.178417205810547 23.185239791870117 27.428417205810547 25.21857261657715 C 27.618083953857422 26.989442825317383 27.40538787841797 28.780282974243164 26.806194305419922 30.457462310791016 C 25.622861862182617 33.951908111572266 23.256195068359375 37.063018798828125 20.57841682434082 39.50746154785156 C 18.050640106201172 41.83523941040039 14.611749649047852 43.87412643432617 11.061750411987305 42.93524169921875 C 9.463383674621582 42.45409393310547 7.998859882354736 41.60771560668945 6.783972263336182 40.463016510009766 C 5.366995334625244 39.28825759887695 4.1379780769348145 37.90373992919922 3.1395280361175537 36.357460021972656 C 2.1784167289733887 34.6907958984375 3.328416585922241 33.26301574707031 4.428416728973389 32.035240173339844 C 5.645083427429199 30.6685733795166 6.939527988433838 29.379684448242188 8.228416442871094 28.08523941040039 C 10.906194686889648 25.39634895324707 13.622861862182617 22.60746192932129 15.417305946350098 19.19635009765625 C 18.37841796875 13.607460975646973 18.128416061401367 4.4130167961120605 11.439528465270996 1.557461142539978 C 10.773256301879883 1.198527216911316 9.942817687988281 1.4170634746551514 9.539527893066406 2.0574610233306885 C 9.140253067016602 2.7160041332244873 9.350430488586426 3.5735349655151367 10.00897216796875 3.972811222076416 L 10.039527893066406 3.9907946586608887" stroke-width="1.0" fill="rgb(143, 165, 67)" opacity="1.0"/>
  </g>
</svg>
