<?xml version="1.0" ?>
<svg xmlns="http://www.w3.org/2000/svg" version="1.1" width="600" height="600">
  <defs/>
  <g>
    <path d="M 10.42104434967041 2.162222146987915 C 12.72104549407959 4.428889274597168 12.92104434967041 8.195555686950684 11.80993366241455 11.228889465332031 C 10.698822021484375 14.262223243713379 8.509933471679688 16.78444480895996 6.443266868591309 19.245555877685547 C 4.37660026550293 21.706666946411133 2.3377110958099365 24.39555549621582 1.5932667255401611 27.53999900817871 C 1.1854361295700073 29.03251075744629 1.2711836099624634 30.61688995361328 1.8377110958099365 32.05666732788086 C 2.312077283859253 33.02131271362305 2.9729626178741455 33.88235092163086 3.7821555137634277 34.59000015258789 C 8.593267440795898 39.1511116027832 16.143266677856445 40.923336029052734 22.18215560913086 38.189998626708984 C 28.221044540405273 35.4566650390625 31.915489196777344 27.945554733276367 29.64882469177246 21.712223052978516 C 26.5488224029541 13.15666675567627 14.83215618133545 10.04555606842041 12.054377555847168 1.3733333349227905 L 10.42104434967041 2.162222146987915" stroke-width="1.0" fill="rgb(111, 198, 207)" opacity="1.0"/>
    <path d="M 9.437700271606445 3.1455888748168945 C 11.898811340332031 5.651144504547119 11.254366874694824 9.640033721923828 9.732145309448242 12.451144218444824 C 7.77103328704834 16.09003448486328 4.598811149597168 18.873367309570312 2.387700080871582 22.345590591430664 C 0.10992223024368286 25.92336654663086 -1.2400778532028198 30.678924560546875 1.6265889406204224 34.30670166015625 C 3.9099223613739014 37.206703186035156 7.52103328704834 39.23448181152344 11.071033477783203 40.19559097290039 C 14.633011817932129 41.225223541259766 18.430892944335938 41.088958740234375 21.909921646118164 39.80670166015625 C 25.167795181274414 38.52355194091797 27.894094467163086 36.17329025268555 29.64325714111328 33.14003372192383 C 31.409778594970703 30.166051864624023 32.074459075927734 26.66565704345703 31.521034240722656 23.251144409179688 C 30.965478897094727 20.167810440063477 29.187702178955078 17.45114517211914 27.076589584350586 15.228922843933105 C 22.998811721801758 10.990034103393555 17.076589584350586 8.112256050109863 14.243255615234375 2.8566999435424805 C 13.91861343383789 2.2667553424835205 13.650742530822754 1.6473065614700317 13.443256378173828 1.006700038909912 C 13.219710350036621 0.26011401414871216 12.433262825012207 -0.16389399766921997 11.686676979064941 0.059651609510183334 C 11.588522911071777 0.08904138952493668 11.493861198425293 0.12903405725955963 11.404367446899414 0.17892222106456757 L 9.737700462341309 0.967811107635498 C 9.082019805908203 1.360105037689209 8.861976623535156 2.205665349960327 9.243255615234375 2.8678109645843506 C 9.641210556030273 3.5154366493225098 10.478070259094238 3.7356626987457275 11.143255233764648 3.3678112030029297 L 12.776589393615723 2.5789222717285156 L 10.737700462341309 1.7455888986587524 C 12.648811340332031 7.573367118835449 17.959922790527344 10.940033912658691 22.404367446899414 14.706700325012207 C 24.565479278564453 16.52892303466797 26.604366302490234 18.484477996826172 27.882144927978516 21.00670051574707 C 29.14429473876953 23.637714385986328 29.302316665649414 26.66410255432129 28.321033477783203 29.412256240844727 C 27.358171463012695 32.27141571044922 25.426462173461914 34.70423126220703 22.85992431640625 36.290035247802734 C 20.04209327697754 37.91609573364258 16.738506317138672 38.48900604248047 13.537700653076172 37.90670394897461 C 10.194219589233398 37.35587692260742 7.095559120178223 35.80654525756836 4.648811340332031 33.462257385253906 C 4.0198869705200195 32.90315628051758 3.5048956871032715 32.22781753540039 3.1321444511413574 31.47336769104004 C 2.7816927433013916 30.570417404174805 2.681874990463257 29.589513778686523 2.8432555198669434 28.634479522705078 C 3.1896376609802246 26.7309513092041 3.9585039615631104 24.92933464050293 5.093255519866943 23.362255096435547 C 7.543255805969238 19.684478759765625 11.015478134155273 16.695589065551758 12.798811912536621 12.595589637756348 C 14.398811340332031 8.890033721923828 14.437700271606445 4.234477996826172 11.448811531066895 1.1900334358215332 C 10.148811340332031 -0.09885555505752563 8.18215560913086 1.8900278806686401 9.437700271606445 3.1455888748168945" stroke-width="1.0" fill="rgb(143, 165, 67)" opacity="1.0"/>
  </g>
</svg>
