<?xml version="1.0" ?>
<svg xmlns="http://www.w3.org/2000/svg" version="1.1" width="600" height="600">
  <defs/>
  <g>
    <path d="M 10.587499618530273 0.22968749701976776 C 10.300000190734863 0.3671875 10.050000190734863 0.5296875238418579 10.012499809265137 0.6171875 C 9.970237731933594 0.7062786817550659 9.885360717773438 0.7675788402557373 9.787500381469727 0.7796875238418579 C 9.487500190734863 0.8296874761581421 8.6875 1.3546874523162842 8.425000190734863 1.6921875476837158 C 8.300000190734863 1.8546874523162842 8.149999618530273 1.9921875 8.100000381469727 1.9921875 C 7.974999904632568 1.9921875 6.787499904632568 3.0171875953674316 6.787499904632568 3.129687547683716 C 6.787499904632568 3.192187547683716 6.487500190734863 3.542187452316284 6.137499809265137 3.917187452316284 C 5.775000095367432 4.292187690734863 5.387499809265137 4.692187309265137 5.287499904632568 4.829687595367432 C 4.5 5.8046875 4.262499809265137 6.142187595367432 4.237500190734863 6.317187309265137 C 4.204167366027832 6.455911636352539 4.124865531921387 6.579270362854004 4.012499809265137 6.667187690734863 C 3.762500047683716 6.854687690734863 3.1624999046325684 7.904687404632568 3.1624999046325684 8.154687881469727 C 3.158856153488159 8.277905464172363 3.092963457107544 8.390864372253418 2.987499952316284 8.454687118530273 C 2.762500047683716 8.592187881469727 2.137500047683716 9.842187881469727 2.2249999046325684 9.9921875 C 2.2567527294158936 10.062957763671875 2.225123405456543 10.146068572998047 2.1543538570404053 10.17782211303711 L 2.1500000953674316 10.1796875 C 1.975000023841858 10.292187690734863 1.524999976158142 11.329687118530273 1.475000023841858 11.779687881469727 C 1.4576390981674194 11.956146240234375 1.402197003364563 12.126737594604492 1.3125 12.279687881469727 C 1.149999976158142 12.479687690734863 0.7749999761581421 13.754687309265137 0.8500000238418579 13.8671875 C 0.887499988079071 13.917187690734863 0.824999988079071 14.129687309265137 0.7124999761581421 14.342187881469727 C 0.5826782584190369 14.679461479187012 0.49859800934791565 15.032598495483398 0.4625000059604645 15.392187118530273 C 0.43012258410453796 15.72226333618164 0.3673565089702606 16.048646926879883 0.2750000059604645 16.3671875 C 0.08749999850988388 16.8671875 -3.3306690738754696e-16 18.4921875 -3.3306690738754696e-16 21.2421875 C 0.012500000186264515 24.342187881469727 0.08749999850988388 25.479686737060547 0.32499998807907104 25.942188262939453 C 0.4137233793735504 26.097990036010742 0.4570262134075165 26.275531768798828 0.44999998807907104 26.454687118530273 C 0.36250001192092896 26.6796875 0.925000011920929 27.7421875 1.212499976158142 27.892187118530273 C 1.3611828088760376 27.975830078125 1.4996156692504883 28.076509475708008 1.625 28.192188262939453 C 1.7374999523162842 28.3046875 2.5 28.342187881469727 4.537499904632568 28.342187881469727 C 6.8125 28.354686737060547 7.324999809265137 28.317188262939453 7.474999904632568 28.167186737060547 C 7.566489219665527 28.078384399414062 7.631418228149414 27.96584129333496 7.662499904632568 27.842187881469727 C 7.662499904632568 27.6796875 7.037499904632568 26.579687118530273 6.887499809265137 26.479686737060547 C 6.803330898284912 26.395671844482422 6.750405311584473 26.285409927368164 6.737500190734863 26.167186737060547 C 6.675000190734863 25.8671875 6.150000095367432 24.704687118530273 6.050000190734863 24.6171875 C 6.0 24.579687118530273 5.887499809265137 24.154687881469727 5.800000190734863 23.6796875 C 5.699999809265137 23.192188262939453 5.587500095367432 22.7421875 5.525000095367432 22.667186737060547 C 5.462500095367432 22.592187881469727 5.474999904632568 22.1796875 5.5625 21.729686737060547 C 5.637499809265137 21.292186737060547 5.699999809265137 20.842187881469727 5.712500095367432 20.729686737060547 C 5.724999904632568 20.6171875 6.012499809265137 20.229686737060547 6.362500190734863 19.879688262939453 C 6.699999809265137 19.517187118530273 7.0 19.167186737060547 7.012499809265137 19.104686737060547 C 7.056172847747803 19.02982521057129 7.138535499572754 18.986221313476562 7.224999904632568 18.9921875 C 7.488818645477295 18.93574333190918 7.74484395980835 18.84760284423828 7.987500190734863 18.729686737060547 C 8.324999809265137 18.592187881469727 8.712499618530273 18.4296875 8.850000381469727 18.3671875 C 9.237500190734863 18.204687118530273 10.737500190734863 17.979686737060547 11.824999809265137 17.9296875 C 12.362500190734863 17.892187118530273 12.850000381469727 17.842187881469727 12.912500381469727 17.8046875 C 12.962499618530273 17.779687881469727 13.475000381469727 17.842187881469727 14.050000190734863 17.954687118530273 C 14.875 18.1171875 15.162500381469727 18.2421875 15.4375 18.517187118530273 C 16.024999618530273 19.1171875 16.137500762939453 19.542186737060547 16.0 20.7421875 C 15.960652351379395 21.184207916259766 15.889636993408203 21.622833251953125 15.787500381469727 22.0546875 C 15.537500381469727 22.654687881469727 15.3125 23.479686737060547 15.375 23.542186737060547 C 15.425000190734863 23.579687118530273 15.362500190734863 23.717187881469727 15.262499809265137 23.829687118530273 C 15.037500381469727 24.104686737060547 14.537500381469727 25.279687881469727 14.537500381469727 25.542186737060547 C 14.54325008392334 25.631973266601562 14.50027847290039 25.71791648864746 14.425000190734863 25.767187118530273 C 14.262499809265137 25.829687118530273 13.662500381469727 27.067188262939453 13.662500381469727 27.342187881469727 C 13.663389205932617 27.469940185546875 13.619117736816406 27.593900680541992 13.537500381469727 27.692188262939453 C 13.462499618530273 27.767187118530273 13.475000381469727 27.904687881469727 13.600000381469727 28.092187881469727 C 13.787500381469727 28.354686737060547 13.850000381469727 28.354686737060547 16.712499618530273 28.342187881469727 C 18.3125 28.342187881469727 19.700000762939453 28.292186737060547 19.787500381469727 28.2421875 C 20.137500762939453 28.017187118530273 20.6875 26.8046875 20.712499618530273 26.1796875 C 20.725000381469727 25.904687881469727 20.774999618530273 25.604686737060547 20.837499618530273 25.517187118530273 C 21.137500762939453 25.029687881469727 21.162500381469727 16.254688262939453 20.862499237060547 15.754687309265137 C 20.8125 15.6796875 20.75 15.254687309265137 20.725000381469727 14.792187690734863 C 20.6875 14.342187881469727 20.625 13.904687881469727 20.5625 13.817187309265137 C 20.5 13.7421875 20.412500381469727 13.354687690734863 20.375 12.967187881469727 C 20.337228775024414 12.567594528198242 20.240339279174805 12.175823211669922 20.087499618530273 11.8046875 C 19.975000381469727 11.567187309265137 19.912500381469727 11.329687118530273 19.950000762939453 11.292187690734863 C 20.037500381469727 11.204687118530273 19.575000762939453 9.854687690734863 19.412500381469727 9.692187309265137 C 19.326841354370117 9.581591606140137 19.282615661621094 9.444491386413574 19.287500381469727 9.3046875 C 19.287500381469727 9.004687309265137 18.825000762939453 7.967187404632568 18.649999618530273 7.854687690734863 C 18.575000762939453 7.817187309265137 18.5 7.629687309265137 18.487499237060547 7.454687595367432 C 18.4375 7.079687595367432 17.825000762939453 5.9921875 17.662500381469727 5.9921875 C 17.587499618530273 5.9921875 17.537500381469727 5.904687404632568 17.537500381469727 5.779687404632568 C 17.537500381469727 5.4921875 16.8125 4.392187595367432 16.512500762939453 4.229687690734863 C 16.387500762939453 4.167187690734863 16.3125 4.0546875 16.350000381469727 3.9921875 C 16.450000762939453 3.8296875953674316 14.274999618530273 1.6046874523162842 13.824999809265137 1.4171874523162842 C 13.600000381469727 1.3171875476837158 13.412500381469727 1.1796875 13.412500381469727 1.1171875 C 13.412500381469727 0.917187511920929 12.274999618530273 0.2421875 11.962499618530273 0.2421875 C 11.829750061035156 0.25114014744758606 11.699017524719238 0.2060597985982895 11.600000381469727 0.1171875 C 11.487500190734863 -0.0703125 11.162500381469727 -0.03281249850988388 10.587499618530273 0.22968749701976776" stroke-width="0.0" fill="rgb(0, 0, 0)" opacity="1.0"/>
    <path d="M 11.874184608459473 5.580282688140869 C 12.0343599319458 5.707549571990967 12.210947036743164 5.812661170959473 12.399185180664062 5.892782688140869 C 12.538283348083496 5.96327543258667 12.645486831665039 6.083878517150879 12.699185371398926 6.230282306671143 C 12.861920356750488 6.572895050048828 13.063222885131836 6.895817756652832 13.299184799194336 7.192782402038574 C 13.574185371398926 7.567782402038574 13.811684608459473 7.9302825927734375 13.811684608459473 8.005282402038574 C 13.824185371398926 8.192782402038574 14.374184608459473 9.367782592773438 14.486684799194336 9.442782402038574 C 14.5366849899292 9.4802827835083 14.674184799194336 10.005282402038574 14.7866849899292 10.6052827835083 C 14.9741849899292 11.6052827835083 14.9741849899292 11.7302827835083 14.799184799194336 12.005282402038574 C 14.561684608459473 12.3552827835083 14.124184608459473 12.4802827835083 12.874184608459473 12.517782211303711 C 11.386685371398926 12.555282592773438 10.086685180664062 12.680282592773438 9.749184608459473 12.805282592773438 C 9.373313903808594 12.909392356872559 8.988136291503906 12.976380348205566 8.5991849899292 13.005282402038574 C 8.136685371398926 13.055282592773438 7.724184989929199 13.142782211303711 7.686685085296631 13.205282211303711 C 7.561685085296631 13.392782211303711 6.424184799194336 13.342782974243164 6.261684894561768 13.142782211303711 C 6.011684894561768 12.842782974243164 6.186685085296631 11.705282211303711 6.611684799194336 10.842782974243164 C 6.824184894561768 10.405282974243164 6.974184989929199 10.005282402038574 6.936685085296631 9.942782402038574 C 6.901663780212402 9.87525749206543 6.928013324737549 9.792126655578613 6.995538711547852 9.757104873657227 L 6.999185085296631 9.755282402038574 C 7.161684989929199 9.655282974243164 7.999185085296631 8.3552827835083 7.999185085296631 8.205282211303711 C 7.999185085296631 8.155282974243164 8.199185371398926 7.880282402038574 8.461685180664062 7.6177825927734375 C 8.70584487915039 7.362357139587402 8.92750072479248 7.086332321166992 9.124184608459473 6.792782306671143 C 9.236684799194336 6.605282306671143 9.686684608459473 6.167782306671143 10.136685371398926 5.830282688140869 C 10.999184608459473 5.167782306671143 11.274185180664062 5.1177825927734375 11.874184608459473 5.580282688140869" stroke-width="0.0" fill="rgb(255, 255, 255)" opacity="1.0"/>
  </g>
</svg>
