<?xml version="1.0" ?>
<svg xmlns="http://www.w3.org/2000/svg" version="1.1" width="600" height="600">
  <defs/>
  <g>
    <path d="M 2.6505062580108643 0.26249998807907104 C 2.425506353378296 0.5375000238418579 2.0255062580108643 1.837499976158142 2.1380062103271484 1.9500000476837158 C 2.16300630569458 1.975000023841858 2.113006353378296 2.200000047683716 2.0130062103271484 2.450000047683716 C 1.8805516958236694 2.7994279861450195 1.7964410781860352 3.165308952331543 1.7630062103271484 3.5374999046325684 C 1.7125451564788818 4.025099754333496 1.633239507675171 4.509281158447266 1.5255062580108643 4.987500190734863 C 1.4255062341690063 5.4375 1.3755062818527222 5.900000095367432 1.41300630569458 6.025000095367432 C 1.453308343887329 6.158638000488281 1.4252607822418213 6.3035502433776855 1.3380062580108643 6.412499904632568 C 1.2630062103271484 6.512499809265137 1.1880062818527222 6.974999904632568 1.16300630569458 7.462500095367432 C 1.1380062103271484 7.9375 1.0755062103271484 8.399999618530273 1.0255062580108643 8.475000381469727 C 0.9755062460899353 8.5625 0.9255062341690063 9.012499809265137 0.9005062580108643 9.487500190734863 C 0.8880062699317932 9.949999809265137 0.8255062699317932 10.399999618530273 0.7755062580108643 10.475000381469727 C 0.6998012065887451 10.820103645324707 0.6579363346099854 11.171768188476562 0.6505062580108643 11.524999618530273 C 0.6380062699317932 12.024999618530273 0.5880062580108643 12.512499809265137 0.5380062460899353 12.612500190734863 C 0.4505062401294708 12.837499618530273 0.30050626397132874 14.762499809265137 0.2880062460899353 15.824999809265137 C 0.2880062460899353 16.262500762939453 0.23800624907016754 16.612499237060547 0.17550624907016754 16.612499237060547 C 0.11300624907016754 16.612499237060547 0.07550624758005142 17.049999237060547 0.1005062535405159 17.575000762939453 C 0.11300624907016754 18.112499237060547 0.08800625056028366 18.637500762939453 0.0380062498152256 18.737499237060547 C 0.0005062500131316483 18.837499618530273 -0.011993749998509884 19.6875 0.013006250374019146 20.612499237060547 C 0.05050624907016754 21.537500381469727 0.1005062535405159 23.25 0.12550625205039978 24.424999237060547 C 0.15050624310970306 25.587499618530273 0.18800625205039978 26.662500381469727 0.20050625503063202 26.799999237060547 C 0.2505062520503998 27.274999618530273 0.5005062222480774 27.600000381469727 0.8880062699317932 27.725000381469727 C 1.1255062818527222 27.799999237060547 4.16300630569458 27.837499618530273 8.738006591796875 27.825000762939453 C 15.188006401062012 27.799999237060547 16.225505828857422 27.774999618530273 16.38800621032715 27.612499237060547 C 16.550506591796875 27.450000762939453 16.550506591796875 27.274999618530273 16.45050621032715 26.487499237060547 C 16.375505447387695 25.975000381469727 16.238006591796875 25.387500762939453 16.13800621032715 25.1875 C 16.050506591796875 24.987499237060547 16.000505447387695 24.787500381469727 16.0255069732666 24.725000381469727 C 16.113006591796875 24.600000381469727 15.850505828857422 23.524999618530273 15.663005828857422 23.174999237060547 C 15.579702377319336 22.95802879333496 15.52507495880127 22.731111526489258 15.500506401062012 22.5 C 15.463006019592285 21.912500381469727 14.750506401062012 20.487499237060547 14.500506401062012 20.487499237060547 C 14.225505828857422 20.487499237060547 13.488006591796875 20.962499618530273 13.338006019592285 21.25 C 13.263006210327148 21.375 13.138006210327148 21.487499237060547 13.075506210327148 21.487499237060547 C 12.938006401062012 21.487499237060547 12.038005828857422 22.137500762939453 11.775506019592285 22.412500381469727 C 11.650506019592285 22.549999237060547 10.613006591796875 22.975000381469727 10.125506401062012 23.075000762939453 C 9.963006019592285 23.112499237060547 9.838006019592285 23.174999237060547 9.838006019592285 23.225000381469727 C 9.838006019592285 23.337499618530273 7.550506114959717 23.237499237060547 7.463006019592285 23.125 C 7.425506114959717 23.087499618530273 7.075506210327148 22.825000762939453 6.688006401062012 22.5625 C 6.28800630569458 22.287500381469727 5.963006019592285 22.012500762939453 5.963006019592285 21.9375 C 5.963006019592285 21.774999618530273 5.438006401062012 20.450000762939453 5.338006019592285 20.362499237060547 C 5.28800630569458 20.325000762939453 5.250506401062012 19.9375 5.238006114959717 19.5 C 5.213006019592285 19.0625 5.16300630569458 18.612499237060547 5.10050630569458 18.5 C 5.03800630569458 18.387500762939453 5.025506019592285 17.862499237060547 5.075506210327148 17.325000762939453 C 5.125506401062012 16.787500381469727 5.113006114959717 16.3125 5.063006401062012 16.287500381469727 C 5.000506401062012 16.25 5.013006210327148 16.125 5.088006019592285 16.0 C 5.150506019592285 15.875 5.213006019592285 15.387499809265137 5.22550630569458 14.912500381469727 C 5.225615501403809 14.467894554138184 5.267466068267822 14.02428150177002 5.35050630569458 13.587499618530273 C 5.431074619293213 13.238326072692871 5.48126220703125 12.882831573486328 5.500506401062012 12.524999618530273 C 5.511118412017822 12.258503913879395 5.553073883056641 11.994183540344238 5.625506401062012 11.737500190734863 C 5.775506019592285 11.350000381469727 5.938006401062012 10.337499618530273 5.875506401062012 10.100000381469727 C 5.838006019592285 9.975000381469727 5.863006114959717 9.862500190734863 5.925506114959717 9.862500190734863 C 6.063006401062012 9.862500190734863 6.338006019592285 8.774999618530273 6.338006019592285 8.225000381469727 C 6.338006019592285 8.024999618530273 6.388006210327148 7.862500190734863 6.438006401062012 7.862500190734863 C 6.53800630569458 7.862500190734863 6.900506019592285 6.712500095367432 6.900506019592285 6.362500190734863 C 6.912953853607178 6.254359722137451 6.942488193511963 6.148880481719971 6.988006114959717 6.050000190734863 C 7.175506114959717 5.75 7.588006019592285 4.525000095367432 7.588006019592285 4.275000095367432 C 7.576754093170166 4.161493301391602 7.612947940826416 4.048387050628662 7.688006401062012 3.9625000953674316 C 7.800506114959717 3.924999952316284 8.338006019592285 2.6500000953674316 8.338006019592285 2.4375 C 8.410442352294922 2.171456813812256 8.515399932861328 1.9153586626052856 8.650506019592285 1.6749999523162842 C 9.013006210327148 0.925000011920929 9.025506019592285 0.637499988079071 8.725505828857422 0.2750000059604645 C 8.513006210327148 0.012500000186264515 8.413005828857422 0.012500000186264515 5.688006401062012 2.3314683517128287e-15 C 2.97550630569458 0.0 2.8755061626434326 0.012500000186264515 2.6505062580108643 0.26249998807907104" stroke-width="0.0" fill="rgb(0, 0, 0)" opacity="1.0"/>
  </g>
</svg>
