<?xml version="1.0" ?>
<svg xmlns="http://www.w3.org/2000/svg" version="1.1" width="600" height="600">
  <defs/>
  <g>
    <path d="M 1.875328779220581 0.28085124492645264 C 1.4628287553787231 0.5683512687683105 0.9628287553787231 1.5183511972427368 0.9628287553787231 2.0058512687683105 C 0.952438235282898 2.1828291416168213 0.9100884199142456 2.3564634323120117 0.8378287553787231 2.5183513164520264 C 0.7628287672996521 2.6433513164520264 0.6753287315368652 3.105851173400879 0.6503287553787231 3.530851364135742 C 0.6128287315368652 3.968351364135742 0.5253287553787231 4.593351364135742 0.46282875537872314 4.930851459503174 C 0.3869001269340515 5.301248073577881 0.3450586497783661 5.677821159362793 0.33782875537872314 6.055851459503174 C 0.3253287374973297 6.343351364135742 0.3003287613391876 7.018351078033447 0.2628287374973297 7.5683512687683105 C 0.2253287434577942 8.118350982666016 0.17532874643802643 9.493350982666016 0.1378287523984909 10.630850791931152 C -0.012171249836683273 16.855852127075195 -0.037171248346567154 18.168352127075195 0.05032875016331673 18.293352127075195 C 0.10032875090837479 18.38085174560547 0.12532874941825867 19.305850982666016 0.11282874643802643 20.355852127075195 C 0.10032875090837479 21.418352127075195 0.12532874941825867 22.343351364135742 0.17532874643802643 22.418352127075195 C 0.2253287434577942 22.50585174560547 0.25032874941825867 22.94335174560547 0.2253287434577942 23.405851364135742 C 0.21282875537872314 23.868350982666016 0.23782874643802643 24.31835174560547 0.2878287434577942 24.405851364135742 C 0.3503287434577942 24.493350982666016 0.40032875537872314 24.905851364135742 0.4128287434577942 25.33085060119629 C 0.4253287613391876 25.75585174560547 0.5253287553787231 26.26835060119629 0.6378287672996521 26.468351364135742 C 0.7378287315368652 26.680850982666016 0.8003287315368652 26.88085174560547 0.7628287672996521 26.918352127075195 C 0.6503287553787231 27.01835060119629 1.062828779220581 27.730852127075195 1.312828779220581 27.868350982666016 C 1.5753287076950073 28.00585174560547 6.050328731536865 28.01835060119629 6.4128289222717285 27.88085174560547 C 6.592489719390869 27.782957077026367 6.717001438140869 27.60771942138672 6.750328540802002 27.405851364135742 C 6.825328826904297 27.055850982666016 6.6003289222717285 25.95585060119629 6.387828826904297 25.605852127075195 C 6.309824466705322 25.437124252319336 6.267280101776123 25.254182815551758 6.262828826904297 25.06835174560547 C 6.230353355407715 24.708595275878906 6.163378715515137 24.352792739868164 6.062828540802002 24.00585174560547 C 5.812828540802002 23.168352127075195 5.625328540802002 22.168352127075195 5.437828540802002 20.718351364135742 C 5.362828731536865 20.118350982666016 5.275328636169434 19.63085174560547 5.2253289222717285 19.63085174560547 C 5.187828540802002 19.63085174560547 5.137828826904297 19.20585060119629 5.125328540802002 18.69335174560547 C 5.112828731536865 18.180850982666016 5.062828540802002 17.69335174560547 5.012828826904297 17.618350982666016 C 4.9128289222717285 17.45585060119629 4.837828636169434 15.968351364135742 4.8503289222717285 14.605851173400879 C 4.8503289222717285 14.068350791931152 4.825328826904297 13.580851554870605 4.775328636169434 13.505850791931152 C 4.675328731536865 13.330851554870605 4.650328636169434 11.143351554870605 4.762828826904297 11.043351173400879 C 4.800328731536865 11.005850791931152 4.837828636169434 10.555850982666016 4.837828636169434 10.055850982666016 C 4.837828636169434 9.555850982666016 4.887828826904297 9.018351554870605 4.950328826904297 8.855851173400879 C 5.337828636169434 7.843351364135742 5.525328636169434 7.5058512687683105 5.6628289222717285 7.5058512687683105 C 5.8503289222717285 7.5058512687683105 7.0378289222717285 8.855851173400879 7.000328540802002 9.005850791931152 C 6.962828636169434 9.155851364135742 7.575328826904297 10.480851173400879 7.7253289222717285 10.568350791931152 C 7.807276248931885 10.670634269714355 7.847469329833984 10.800145149230957 7.837828636169434 10.930850982666016 C 7.837828636169434 11.093351364135742 8.00032901763916 11.543351173400879 8.200328826904297 11.955851554870605 C 8.373934745788574 12.302244186401367 8.52021312713623 12.66167163848877 8.637828826904297 13.030851364135742 C 8.731109619140625 13.351590156555176 8.848098754882812 13.664953231811523 8.987829208374023 13.968351364135742 C 9.128022193908691 14.25779914855957 9.228915214538574 14.564681053161621 9.28782844543457 14.880850791931152 C 9.357942581176758 15.21973991394043 9.449799537658691 15.553764343261719 9.56282901763916 15.880850791931152 C 9.72409725189209 16.351802825927734 9.857659339904785 16.831790924072266 9.962828636169434 17.31835174560547 C 10.025566101074219 17.659221649169922 10.130541801452637 17.99094581604004 10.275328636169434 18.305850982666016 C 10.369250297546387 18.416276931762695 10.406235694885254 18.564218521118164 10.37532901763916 18.70585060119629 C 10.28782844543457 18.930850982666016 10.712828636169434 20.168352127075195 10.91282844543457 20.293352127075195 C 11.021961212158203 20.365493774414062 11.08767318725586 20.487529754638672 11.087828636169434 20.618350982666016 C 11.087828636169434 21.155851364135742 11.87532901763916 21.530851364135742 13.06282901763916 21.530851364135742 C 13.450328826904297 21.530851364135742 13.950328826904297 21.180850982666016 14.112829208374023 20.780851364135742 C 14.177063941955566 20.601430892944336 14.252203941345215 20.426103591918945 14.337828636169434 20.25585174560547 C 14.440315246582031 19.948776245117188 14.52380657196045 19.635683059692383 14.587828636169434 19.31835174560547 C 14.66282844543457 18.905851364135742 14.81282901763916 18.243350982666016 14.91282844543457 17.843351364135742 C 15.018385887145996 17.476314544677734 15.085413932800293 17.099279403686523 15.112829208374023 16.718351364135742 C 15.10485553741455 16.537954330444336 15.139097213745117 16.358184814453125 15.212828636169434 16.19335174560547 C 15.37532901763916 15.980851173400879 15.700328826904297 14.718351364135742 15.637828826904297 14.605851173400879 C 15.606719970703125 14.515679359436035 15.625749588012695 14.415773391723633 15.68782901763916 14.343351364135742 C 15.900328636169434 14.093351364135742 16.362829208374023 12.768351554870605 16.28782844543457 12.643351554870605 C 16.250328063964844 12.580851554870605 16.28782844543457 12.468351364135742 16.387828826904297 12.393351554870605 C 16.487829208374023 12.318350791931152 16.687828063964844 11.893351554870605 16.83782958984375 11.468351364135742 C 17.04411506652832 10.923588752746582 17.27774429321289 10.38957691192627 17.53782844543457 9.868350982666016 C 17.77532958984375 9.405851364135742 17.96282958984375 8.968351364135742 17.96282958984375 8.880850791931152 C 17.96282958984375 8.705851554870605 19.125328063964844 7.5058512687683105 19.300329208374023 7.5058512687683105 C 19.512828826904297 7.5058512687683105 20.050329208374023 8.968351364135742 20.062828063964844 9.568350791931152 C 20.137828826904297 12.880850791931152 20.10032844543457 14.855851173400879 19.887828826904297 17.38085174560547 C 19.750328063964844 19.218351364135742 19.700328826904297 19.63085174560547 19.58782958984375 20.06835174560547 C 19.514707565307617 20.40544319152832 19.472862243652344 20.748565673828125 19.46282958984375 21.093351364135742 C 19.460729598999023 21.390230178833008 19.414386749267578 21.685136795043945 19.325328826904297 21.968351364135742 C 19.229402542114258 22.286022186279297 19.166568756103516 22.61275863647461 19.137828826904297 22.94335174560547 C 19.091827392578125 23.386207580566406 19.012434005737305 23.8249568939209 18.90032958984375 24.25585174560547 C 18.79669189453125 24.602659225463867 18.72555160522461 24.95836067199707 18.687828063964844 25.31835174560547 C 18.691972732543945 25.49036979675293 18.65781593322754 25.661157608032227 18.58782958984375 25.81835174560547 C 18.475954055786133 26.065505981445312 18.39613914489746 26.325950622558594 18.35032844543457 26.593351364135742 C 18.175329208374023 27.293352127075195 18.27532958984375 27.64335060119629 18.687828063964844 27.868350982666016 C 18.800329208374023 27.930850982666016 20.075328826904297 27.980852127075195 21.52532958984375 27.980852127075195 C 24.96282958984375 27.980852127075195 24.887828826904297 28.030851364135742 25.33782958984375 25.50585174560547 C 25.41282844543457 25.055850982666016 25.47532844543457 24.468351364135742 25.487829208374023 24.19335174560547 C 25.512828826904297 22.64335060119629 25.562828063964844 21.655851364135742 25.625328063964844 21.555850982666016 C 25.72532844543457 21.38085174560547 25.700328826904297 9.768351554870605 25.58782958984375 9.693350791931152 C 25.53782844543457 9.668351173400879 25.52532958984375 9.243350982666016 25.562828063964844 8.768351554870605 C 25.58782958984375 8.293351173400879 25.575328826904297 7.793351173400879 25.52532958984375 7.668351173400879 C 25.47532844543457 7.543351173400879 25.425329208374023 7.043351173400879 25.40032958984375 6.5683512687683105 C 25.33782958984375 4.855851173400879 25.22532844543457 3.730851173400879 25.075328826904297 3.5558512210845947 C 24.997756958007812 3.4569623470306396 24.970088958740234 3.3278424739837646 25.000328063964844 3.2058513164520264 C 25.08782958984375 2.980851173400879 24.78782844543457 1.6933512687683105 24.58782958984375 1.4558511972427368 C 24.512828826904297 1.3433512449264526 24.47532844543457 1.2183512449264526 24.512828826904297 1.1558512449264526 C 24.550329208374023 1.0933512449264526 24.46282958984375 0.8683512210845947 24.325328826904297 0.6558512449264526 C 24.03782844543457 0.18085125088691711 23.512828826904297 -0.06914874911308289 23.262828826904297 0.1433512568473816 C 23.1756534576416 0.23106032609939575 23.037391662597656 0.24169586598873138 22.937828063964844 0.16835124790668488 C 22.687828063964844 -0.019148750230669975 21.52532958984375 -0.031648751348257065 21.237829208374023 0.1433512568473816 C 21.03782844543457 0.2683512568473816 20.950328826904297 0.2683512568473816 20.78782844543457 0.1433512568473816 C 20.550329208374023 -0.056648749858140945 19.66282844543457 0.06835124641656876 19.21282958984375 0.35585126280784607 C 19.0976619720459 0.44389835000038147 18.965839385986328 0.5076830387115479 18.825328826904297 0.5433512330055237 C 18.71282958984375 0.5058512687683105 17.58782958984375 1.5058512687683105 17.58782958984375 1.6308512687683105 C 17.58782958984375 1.6933512687683105 17.312828063964844 2.030851364135742 16.96282958984375 2.3933513164520264 C 16.625328063964844 2.7558512687683105 16.33782958984375 3.1183512210845947 16.33782958984375 3.218351364135742 C 16.29705238342285 3.3736610412597656 16.204437255859375 3.510378360748291 16.075328826904297 3.605851173400879 C 15.72532844543457 3.8933513164520264 15.087828636169434 4.8183512687683105 15.087828636169434 5.043351173400879 C 15.082658767700195 5.149875164031982 15.020580291748047 5.245380878448486 14.925329208374023 5.293351173400879 C 14.825328826904297 5.330851078033447 14.60032844543457 5.680851459503174 14.400328636169434 6.093351364135742 C 14.212828636169434 6.493351459503174 14.00032901763916 6.905851364135742 13.93782901763916 7.0058512687683105 C 13.425329208374023 7.9433512687683105 13.212828636169434 8.405851364135742 13.212828636169434 8.618350982666016 C 13.212828636169434 8.943350791931152 12.81282901763916 9.080851554870605 12.650328636169434 8.805850982666016 C 12.587828636169434 8.693350791931152 12.400328636169434 8.405851364135742 12.237829208374023 8.168351173400879 C 12.075328826904297 7.918351173400879 11.97532844543457 7.6933512687683105 12.012828826904297 7.668351173400879 C 12.087828636169434 7.580851078033447 11.387828826904297 6.180851459503174 11.212828636169434 6.0683512687683105 C 11.13259506225586 5.994354248046875 11.0872220993042 5.889996528625488 11.087828636169434 5.780851364135742 C 11.087828636169434 5.655851364135742 10.900328636169434 5.280851364135742 10.66282844543457 4.9433512687683105 C 10.425329208374023 4.593351364135742 10.112829208374023 4.080851078033447 9.962828636169434 3.793351173400879 C 9.792731285095215 3.464688539505005 9.582819938659668 3.158216714859009 9.337828636169434 2.8808512687683105 C 9.154605865478516 2.6965880393981934 9.006367683410645 2.480583906173706 8.900328636169434 2.2433512210845947 C 8.85032844543457 2.093351364135742 8.425329208374023 1.5933512449264526 7.962828636169434 1.1308512687683105 C 7.087828636169434 0.25585123896598816 6.562828540802002 0.0058512501418590546 5.987828731536865 0.18085125088691711 C 5.8503289222717285 0.23085124790668488 5.700328826904297 0.21835124492645264 5.6628289222717285 0.1433512568473816 C 5.562828540802002 -0.00664875004440546 4.187828540802002 0.0058512501418590546 3.9878287315368652 0.16835124790668488 C 3.9155521392822266 0.24832627177238464 3.792128086090088 0.25456714630126953 3.7121529579162598 0.18229062855243683 C 3.703249216079712 0.17424404621124268 3.6951067447662354 0.1653934270143509 3.687828779220581 0.15585124492645264 C 3.4253299236297607 -0.106648750603199 2.3128299713134766 -0.019148750230669975 1.875328779220581 0.28085124492645264" stroke-width="0.0" fill="rgb(0, 0, 0)" opacity="1.0"/>
  </g>
</svg>
