<?xml version="1.0" ?>
<svg xmlns="http://www.w3.org/2000/svg" version="1.1" width="600" height="600">
  <defs/>
  <g>
    <path d="M 1.718136191368103 0.2750000059604645 C 1.639939785003662 0.41953498125076294 1.5337008237838745 0.5470218062400818 1.405636191368103 0.6499999761581421 C 1.2056362628936768 0.762499988079071 0.8306362628936768 1.962499976158142 0.9306362271308899 2.137500047683716 C 0.9617452621459961 2.2276721000671387 0.942715585231781 2.327578067779541 0.8806362748146057 2.4000000953674316 C 0.7181362509727478 2.5875000953674316 0.45563626289367676 3.9749999046325684 0.5556362271308899 4.137499809265137 C 0.5931362509727478 4.199999809265137 0.5681362748146057 4.400000095367432 0.5056362748146057 4.587500095367432 C 0.35563623905181885 4.962500095367432 0.23063625395298004 6.650000095367432 0.16813625395298004 9.012499809265137 C 0.14313624799251556 9.887499809265137 0.0931362509727478 10.649999618530273 0.06813625246286392 10.699999809265137 C -0.056863751262426376 10.912500381469727 0.005636250134557486 20.424999237060547 0.13063624501228333 20.575000762939453 C 0.21713469922542572 20.66289520263672 0.21600230038166046 20.804269790649414 0.1281069666147232 20.89076805114746 C 0.12487782537937164 20.893945693969727 0.1215527132153511 20.897024154663086 0.11813624948263168 20.899999618530273 C 0.04313625022768974 21.0 0.005636250134557486 21.100000381469727 0.030636249110102654 21.125 C 0.05563624948263168 21.149999618530273 0.11813624948263168 21.924999237060547 0.16813625395298004 22.850000381469727 C 0.20563624799251556 23.774999618530273 0.2806362509727478 24.587499618530273 0.3181362450122833 24.649999618530273 C 0.38518625497817993 24.928342819213867 0.41875725984573364 25.213695526123047 0.41813623905181885 25.5 C 0.4431362450122833 25.924999237060547 0.5306362509727478 26.362499237060547 0.6556362509727478 26.537500381469727 C 0.7554429769515991 26.679697036743164 0.8039303421974182 26.851606369018555 0.7931362390518188 27.024999618530273 C 0.7556362748146057 27.112499237060547 0.8556362390518188 27.337499618530273 1.0181362628936768 27.512500762939453 C 1.3056362867355347 27.825000762939453 1.318136215209961 27.825000762939453 3.5431363582611084 27.837499618530273 C 4.780636310577393 27.837499618530273 5.855636119842529 27.787500381469727 5.930636405944824 27.725000381469727 C 6.143136024475098 27.549999237060547 5.968136310577393 25.587499618530273 5.705636024475098 25.274999618530273 C 5.631752014160156 25.183940887451172 5.608295440673828 25.061967849731445 5.643136024475098 24.950000762939453 C 5.705636024475098 24.787500381469727 5.530636310577393 23.600000381469727 5.393136024475098 23.237499237060547 C 5.327710151672363 22.89105796813965 5.290090084075928 22.539939880371094 5.280636310577393 22.1875 C 5.255636215209961 21.700000762939453 5.180636405944824 21.287500381469727 5.130636215209961 21.25 C 5.080636024475098 21.200000762939453 5.030636310577393 20.887500762939453 5.030636310577393 20.549999237060547 C 5.030636310577393 20.200000762939453 4.993136405944824 19.5 4.943136215209961 18.987499237060547 C 4.793136119842529 17.25 4.705636024475098 15.1875 4.705636024475098 12.862500190734863 C 4.693136215209961 10.912500381469727 4.743136405944824 10.1875 4.930636405944824 9.050000190734863 C 4.943136215209961 8.975000381469727 4.955636024475098 8.887499809265137 4.968136310577393 8.824999809265137 C 4.993136405944824 8.662500381469727 5.693136215209961 9.087499618530273 5.955636024475098 9.425000190734863 C 6.093136310577393 9.600000381469727 6.268136024475098 9.737500190734863 6.343136310577393 9.737500190734863 C 6.418736457824707 9.731671333312988 6.485236644744873 9.787088394165039 6.493136405944824 9.862500190734863 C 6.530636310577393 10.112500190734863 6.568136215209961 10.1875 6.955636024475098 10.800000190734863 C 7.180636405944824 11.137499809265137 7.443136215209961 11.462499618530273 7.543136119842529 11.524999618530273 C 7.655636310577393 11.574999809265137 7.705636024475098 11.675000190734863 7.668136119842529 11.737500190734863 C 7.593136310577393 11.850000381469727 8.305636405944824 13.112500190734863 8.530635833740234 13.262499809265137 C 8.610128402709961 13.324153900146484 8.663643836975098 13.413346290588379 8.680636405944824 13.512499809265137 C 8.680636405944824 13.649999618530273 9.055636405944824 14.399999618530273 9.468135833740234 15.112500190734863 C 9.530635833740234 15.212499618530273 9.730636596679688 15.649999618530273 9.930636405944824 16.075000762939453 C 10.118136405944824 16.512500762939453 10.318136215209961 16.862499237060547 10.380636215209961 16.862499237060547 C 10.430636405944824 16.862499237060547 10.480636596679688 16.975000381469727 10.480636596679688 17.100000381469727 C 10.480636596679688 17.399999618530273 10.943136215209961 18.487499237060547 11.180636405944824 18.75 C 11.280635833740234 18.862499237060547 11.355636596679688 19.0 11.330636024475098 19.0625 C 11.293136596679688 19.225000381469727 11.605636596679688 20.125 11.818136215209961 20.475000381469727 C 11.924626350402832 20.64702033996582 11.99678897857666 20.838037490844727 12.030635833740234 21.037500381469727 C 12.080636024475098 21.5 12.493136405944824 22.612499237060547 12.618136405944824 22.612499237060547 C 12.680636405944824 22.612499237060547 12.718135833740234 22.737499237060547 12.705636024475098 22.899999618530273 C 12.680636405944824 23.200000762939453 12.955636024475098 24.337499618530273 13.105636596679688 24.549999237060547 C 13.155635833740234 24.612499237060547 13.230636596679688 24.987499237060547 13.280635833740234 25.362499237060547 C 13.32748794555664 25.724271774291992 13.41125774383545 26.080293655395508 13.530635833740234 26.424999237060547 C 13.635279655456543 26.6700496673584 13.727070808410645 26.92038917541504 13.805636405944824 27.174999237060547 C 13.993136405944824 27.787500381469727 14.305636405944824 27.862499237060547 16.793136596679688 27.837499618530273 C 18.030635833740234 27.837499618530273 19.13063621520996 27.774999618530273 19.25563621520996 27.725000381469727 C 19.493135452270508 27.600000381469727 19.918136596679688 26.5625 19.805635452270508 26.375 C 19.762975692749023 26.31906509399414 19.77373695373535 26.2391357421875 19.829673767089844 26.196475982666016 C 19.833965301513672 26.193201065063477 19.838462829589844 26.190202713012695 19.843135833740234 26.1875 C 20.030635833740234 26.075000762939453 20.19313621520996 24.799999237060547 20.280635833740234 22.737499237060547 C 20.305635452270508 22.287500381469727 20.343135833740234 21.587499618530273 20.355636596679688 21.162500381469727 C 20.38063621520996 20.75 20.355636596679688 20.337499618530273 20.305635452270508 20.25 C 20.255949020385742 20.147462844848633 20.270599365234375 20.02536964416504 20.343135833740234 19.9375 C 20.468135833740234 19.787500381469727 20.44313621520996 11.949999809265137 20.31813621520996 9.050000190734863 C 20.293136596679688 8.425000190734863 20.25563621520996 7.512499809265137 20.25563621520996 7.012499809265137 C 20.243135452270508 6.512499809265137 20.205636978149414 6.037499904632568 20.155635833740234 5.962500095367432 C 20.105636596679688 5.875 20.055635452270508 5.5 20.043136596679688 5.125 C 20.018136978149414 4.099999904632568 19.743135452270508 2.2125000953674316 19.593135833740234 2.0374999046325684 C 19.491252899169922 1.852859616279602 19.431489944458008 1.6479612588882446 19.418136596679688 1.4375 C 19.380849838256836 1.127966284751892 19.27861976623535 0.8297950625419617 19.118135452270508 0.5625 C 18.793136596679688 0.05000000074505806 18.518136978149414 7.993605777301127e-15 16.168136596679688 7.993605777301127e-15 C 14.768136024475098 7.993605777301127e-15 14.505636215209961 0.03750000149011612 14.255636215209961 0.23749999701976776 C 13.993136405944824 0.44999998807907104 13.993136405944824 0.5 14.118136405944824 1.1375000476837158 C 14.166755676269531 1.4082597494125366 14.24644947052002 1.67250657081604 14.355636596679688 1.9249999523162842 C 14.405635833740234 1.9874999523162842 14.480636596679688 2.4000000953674316 14.530635833740234 2.8375000953674316 C 14.555370330810547 3.1901135444641113 14.62252140045166 3.5384597778320312 14.730636596679688 3.875 C 14.805636405944824 4.012499809265137 14.893136024475098 4.462500095367432 14.918136596679688 4.875 C 14.955636024475098 5.287499904632568 15.030635833740234 5.724999904632568 15.093135833740234 5.837500095367432 C 15.189863204956055 6.210225582122803 15.252619743347168 6.590948581695557 15.280635833740234 6.974999904632568 C 15.318136215209961 7.474999904632568 15.393136024475098 7.949999809265137 15.443136215209961 8.024999618530273 C 15.480636596679688 8.087499618530273 15.530635833740234 8.487500190734863 15.555636405944824 8.912500381469727 C 15.568136215209961 9.324999809265137 15.618136405944824 10.212499618530273 15.668136596679688 10.862500190734863 C 15.793136596679688 12.6875 15.780635833740234 14.487500190734863 15.630636215209961 14.637499809265137 C 15.530635833740234 14.737500190734863 15.418136596679688 14.637499809265137 15.230636596679688 14.3125 C 15.080636024475098 14.0625 14.905635833740234 13.862500190734863 14.843135833740234 13.862500190734863 C 14.780635833740234 13.862500190734863 14.730636596679688 13.762499809265137 14.730636596679688 13.625 C 14.730636596679688 13.337499618530273 14.118136405944824 12.212499618530273 13.893136024475098 12.074999809265137 C 13.795003890991211 12.005942344665527 13.734867095947266 11.894920349121094 13.730636596679688 11.774999618530273 C 13.730636596679688 11.512499809265137 12.993136405944824 10.237500190734863 12.843135833740234 10.237500190734863 C 12.780635833740234 10.237500190734863 12.730636596679688 10.149999618530273 12.730636596679688 10.037500381469727 C 12.730636596679688 9.774999618530273 11.993136405944824 8.487500190734863 11.843135833740234 8.487500190734863 C 11.780635833740234 8.487500190734863 11.730636596679688 8.399999618530273 11.730636596679688 8.287500381469727 C 11.730636596679688 8.024999618530273 11.018136024475098 6.837500095367432 10.780635833740234 6.699999809265137 C 10.679184913635254 6.6442155838012695 10.613203048706055 6.540529251098633 10.605636596679688 6.425000190734863 C 10.605636596679688 6.1875 9.905635833740234 5.087500095367432 9.668136596679688 4.949999809265137 C 9.56277084350586 4.890180587768555 9.492897033691406 4.783040523529053 9.480636596679688 4.662499904632568 C 9.480636596679688 4.400000095367432 8.793136596679688 3.4124999046325684 8.543136596679688 3.325000047683716 C 8.431389808654785 3.259669065475464 8.360694885253906 3.141843557357788 8.355636596679688 3.012500047683716 C 8.355636596679688 2.887500047683716 8.080636024475098 2.487499952316284 7.730636119842529 2.125 C 7.393136024475098 1.7625000476837158 7.105636119842529 1.4249999523162842 7.105636119842529 1.3624999523162842 C 7.105636119842529 1.1875 5.930636405944824 0.23749999701976776 5.705636024475098 0.23749999701976776 C 5.598704814910889 0.23944777250289917 5.495347499847412 0.19900350272655487 5.418136119842529 0.125 C 5.380636215209961 0.05000000074505806 4.568136215209961 8.93729534823251e-15 3.6056363582611084 8.93729534823251e-15 C 1.9306362867355347 0.0 1.843136191368103 0.012500000186264515 1.718136191368103 0.2750000059604645" stroke-width="0.0" fill="rgb(0, 0, 0)" opacity="1.0"/>
  </g>
</svg>
