<?xml version="1.0" ?>
<svg xmlns="http://www.w3.org/2000/svg" version="1.1" width="600" height="600">
  <defs/>
  <g>
    <path d="M 8.886006355285645 0.07368125021457672 C 8.848505973815918 0.13618125021457672 8.561006546020508 0.18618124723434448 8.248506546020508 0.19868125021457672 C 7.875082492828369 0.2150029093027115 7.507235527038574 0.2953372597694397 7.161006450653076 0.4361812472343445 C 6.861006259918213 0.5736812353134155 6.3235063552856445 0.8111812472343445 5.961006164550781 0.9861812591552734 C 5.586006164550781 1.1486812829971313 5.211006164550781 1.3861812353134155 5.12350606918335 1.5111812353134155 C 5.037711143493652 1.6389834880828857 4.9091973304748535 1.732045292854309 4.7610063552856445 1.7736812829971313 C 4.49850606918335 1.8111813068389893 3.6860063076019287 2.586181163787842 3.548506259918213 2.9361813068389893 C 3.486006259918213 3.0986812114715576 3.3735063076019287 3.2236812114715576 3.286006212234497 3.2236812114715576 C 3.0860061645507812 3.2236812114715576 2.3110063076019287 4.336181163787842 2.3110063076019287 4.62368106842041 C 2.307615041732788 4.750288963317871 2.2421822547912598 4.867133140563965 2.1360063552856445 4.93618106842041 C 1.911006212234497 5.06118106842041 1.298506259918213 6.348681449890137 1.3985062837600708 6.49868106842041 C 1.4360063076019287 6.56118106842041 1.3735063076019287 6.711181163787842 1.2735062837600708 6.823681354522705 C 1.048506259918213 7.073681354522705 0.698506236076355 8.223681449890137 0.773506224155426 8.43618106842041 C 0.7985062599182129 8.511180877685547 0.7360062599182129 8.711181640625 0.636006236076355 8.87368106842041 C 0.448506236076355 9.161181449890137 0.19850625097751617 10.598681449890137 0.08600624650716782 12.036181449890137 C -0.026493750512599945 13.348681449890137 -0.026493750512599945 17.011180877685547 0.07350625097751617 17.72368049621582 C 0.13600625097751617 18.09868049621582 0.2360062450170517 18.836181640625 0.31100624799728394 19.34868049621582 C 0.386006236076355 19.861181259155273 0.5360062718391418 20.41118049621582 0.636006236076355 20.573680877685547 C 0.7360062599182129 20.72368049621582 0.7860062718391418 20.898681640625 0.761006236076355 20.961181640625 C 0.6610062718391418 21.111181259155273 1.1860063076019287 22.59868049621582 1.323506236076355 22.59868049621582 C 1.386006236076355 22.59868049621582 1.4360063076019287 22.711181640625 1.4360063076019287 22.861181259155273 C 1.4360063076019287 23.148681640625 2.0235061645507812 24.236181259155273 2.2735061645507812 24.386180877685547 C 2.3648993968963623 24.444292068481445 2.4247446060180664 24.540966033935547 2.4360063076019287 24.648681640625 C 2.4360063076019287 24.886180877685547 3.3235063552856445 25.97368049621582 3.5235061645507812 25.97368049621582 C 3.611006259918213 25.97368049621582 3.736006259918213 26.086181640625 3.786006212234497 26.211181640625 C 3.8985061645507812 26.523681640625 4.93600606918335 27.34868049621582 5.223506450653076 27.34868049621582 C 5.336006164550781 27.34868049621582 5.43600606918335 27.41118049621582 5.43600606918335 27.47368049621582 C 5.43600606918335 27.623682022094727 6.648506164550781 28.22368049621582 6.9485063552856445 28.22368049621582 C 7.158575534820557 28.25511360168457 7.361591339111328 28.322784423828125 7.548506259918213 28.423681259155273 C 7.891162872314453 28.5601806640625 8.254870414733887 28.63630485534668 8.623506546020508 28.648681640625 C 8.998506546020508 28.66118049621582 9.336006164550781 28.711181640625 9.386006355285645 28.761180877685547 C 9.536005973815918 28.898681640625 10.911005973815918 28.861181259155273 11.011006355285645 28.711181640625 C 11.048505783081055 28.636180877685547 11.223505973815918 28.611181259155273 11.398506164550781 28.66118049621582 C 11.761006355285645 28.748682022094727 13.061006546020508 28.486181259155273 13.061006546020508 28.323680877685547 C 13.061006546020508 28.273681640625 13.211006164550781 28.22368049621582 13.386006355285645 28.22368049621582 C 13.748506546020508 28.22368049621582 14.936006546020508 27.748682022094727 14.936006546020508 27.59868049621582 C 14.936006546020508 27.53618049621582 15.123506546020508 27.436182022094727 15.348505973815918 27.361181259155273 C 15.65867805480957 27.231332778930664 15.939324378967285 27.039981842041016 16.173505783081055 26.798681259155273 L 16.573505401611328 26.386180877685547 L 17.286006927490234 27.048681259155273 C 17.673505783081055 27.423681259155273 18.02350616455078 27.72368049621582 18.073505401611328 27.72368049621582 C 18.123506546020508 27.72368049621582 18.486005783081055 28.03618049621582 18.873506546020508 28.41118049621582 C 19.27350616455078 28.78618049621582 19.673505783081055 29.09868049621582 19.761005401611328 29.09868049621582 C 19.853954315185547 29.09499740600586 19.932289123535156 29.1673583984375 19.93597412109375 29.260305404663086 L 19.936006546020508 29.26117515563965 C 19.936006546020508 29.436174392700195 20.436006546020508 29.723674774169922 20.736005783081055 29.723674774169922 C 21.123506546020508 29.723674774169922 21.323505401611328 29.26117515563965 21.39850616455078 28.186174392700195 C 21.448505401611328 27.5236759185791 21.423505783081055 27.048675537109375 21.348506927490234 26.94867515563965 C 21.254117965698242 26.785560607910156 21.206541061401367 26.599576950073242 21.21100616455078 26.411174774169922 C 21.198505401611328 25.973674774169922 20.83600616455078 24.973674774169922 20.686006546020508 24.973674774169922 C 20.636005401611328 24.973674774169922 20.52350616455078 24.811174392700195 20.46100616455078 24.598674774169922 C 20.286006927490234 24.123674392700195 19.561006546020508 23.2111759185791 19.411006927490234 23.298675537109375 C 19.161006927490234 23.4611759185791 19.098506927490234 22.7736759185791 19.33600616455078 22.236175537109375 C 19.46100616455078 21.936174392700195 19.536006927490234 21.661174774169922 19.498506546020508 21.623674392700195 C 19.46100616455078 21.5861759185791 19.511005401611328 21.436174392700195 19.611005783081055 21.286174774169922 C 19.83600616455078 20.94867515563965 20.186006546020508 19.7736759185791 20.098506927490234 19.673675537109375 C 20.061006546020508 19.63617515563965 20.123506546020508 19.411174774169922 20.236005783081055 19.161174774169922 C 20.378753662109375 18.809932708740234 20.467266082763672 18.439027786254883 20.498506546020508 18.061174392700195 C 20.537776947021484 17.666152954101562 20.600385665893555 17.273799896240234 20.686006546020508 16.88617515563965 C 20.848506927490234 16.186174392700195 20.761005401611328 11.773674964904785 20.573505401611328 11.548674583435059 C 20.485214233398438 11.388711929321289 20.45853614807129 11.201961517333984 20.498506546020508 11.023674964904785 C 20.522066116333008 10.66895866394043 20.47968292236328 10.312947273254395 20.373506546020508 9.973674774169922 C 20.27350616455078 9.598674774169922 20.161006927490234 9.111174583435059 20.136005401611328 8.911174774169922 C 20.048505783081055 8.248675346374512 19.811006546020508 7.473674774169922 19.673505783081055 7.473674774169922 C 19.598506927490234 7.473674774169922 19.561006546020508 7.3736748695373535 19.58600616455078 7.2486748695373535 C 19.623506546020508 6.948675155639648 19.161006927490234 5.711174964904785 18.973506927490234 5.636175155639648 C 18.870620727539062 5.5714569091796875 18.809005737304688 5.457705974578857 18.811006546020508 5.336174964904785 C 18.811006546020508 5.036174774169922 18.111005783081055 3.898674964904785 17.873506546020508 3.798675060272217 C 17.76543617248535 3.754879951477051 17.692384719848633 3.652606964111328 17.686006546020508 3.536175012588501 C 17.686006546020508 3.286175012588501 16.71100616455078 2.223675012588501 16.486005783081055 2.223675012588501 C 16.39305877685547 2.2273571491241455 16.314725875854492 2.154996395111084 16.311038970947266 2.0620501041412354 L 16.311006546020508 2.0611813068389893 C 16.311006546020508 1.8736813068389893 15.186006546020508 1.0986812114715576 14.911005973815918 1.0986812114715576 C 14.795928955078125 1.0979276895523071 14.686698913574219 1.0478640794754028 14.611005783081055 0.9611812233924866 C 14.473505973815918 0.7361812591552734 13.461006164550781 0.33618125319480896 13.023506164550781 0.3236812353134155 C 12.798505783081055 0.3111812472343445 12.586006164550781 0.24868124723434448 12.536005973815918 0.18618124723434448 C 12.436006546020508 0.02368124946951866 8.986005783081055 -0.07631874829530716 8.886006355285645 0.07368125021457672" stroke-width="0.0" fill="rgb(0, 0, 0)" opacity="1.0"/>
    <path d="M 12.176583290100098 6.049803733825684 C 12.789083480834961 6.224803924560547 13.039083480834961 6.387303829193115 13.614083290100098 7.012303829193115 C 14.00158405303955 7.424803733825684 14.326583862304688 7.787303924560547 14.326583862304688 7.824803829193115 C 14.339083671569824 7.974803924560547 14.81408405303955 9.14980411529541 14.926583290100098 9.287303924560547 C 15.008414268493652 9.441915512084961 15.055350303649902 9.612589836120605 15.06408405303955 9.787303924560547 C 15.123311042785645 10.305976867675781 15.21938705444336 10.819775581359863 15.351583480834961 11.324803352355957 C 15.551583290100098 11.912303924560547 15.56408405303955 17.43730354309082 15.351583480834961 17.774803161621094 C 15.289083480834961 17.887304306030273 15.089083671569824 19.1123046875 15.076583862304688 19.449804306030273 C 15.059954643249512 19.59930992126465 15.013177871704102 19.74388885498047 14.93908405303955 19.87480354309082 C 14.81408405303955 20.087303161621094 14.776583671569824 20.087303161621094 14.414083480834961 19.899803161621094 C 14.250704765319824 19.805912017822266 14.073521614074707 19.738414764404297 13.889083862304688 19.699804306030273 C 13.746220588684082 19.65966796875 13.616727828979492 19.581972122192383 13.514083862304688 19.474803924560547 C 13.254620552062988 19.276508331298828 12.978606224060059 19.100862503051758 12.68908405303955 18.949804306030273 C 12.139083862304688 18.649803161621094 10.514083862304688 17.162303924560547 10.514083862304688 16.949804306030273 C 10.514083862304688 16.774803161621094 10.014083862304688 15.71230411529541 9.889083862304688 15.637303352355957 C 9.839083671569824 15.599803924560547 9.639083862304688 15.637303352355957 9.464083671569824 15.71230411529541 C 9.226583480834961 15.824803352355957 9.12658405303955 15.99980354309082 9.026583671569824 16.43730354309082 C 8.864083290100098 17.2373046875 8.951583862304688 18.8623046875 9.18908405303955 19.349803924560547 C 9.294190406799316 19.543821334838867 9.36202621459961 19.755809783935547 9.389083862304688 19.974803924560547 C 9.389083862304688 20.262304306030273 9.801583290100098 21.099803924560547 10.101583480834961 21.399803161621094 C 10.200560569763184 21.484418869018555 10.277730941772461 21.59160041809082 10.326583862304688 21.712303161621094 C 10.326583862304688 21.912303924560547 11.18908405303955 22.849803924560547 11.464083671569824 22.949804306030273 C 11.62658405303955 23.012304306030273 11.764083862304688 23.149803161621094 11.764083862304688 23.24980354309082 C 11.76137638092041 23.3490047454834 11.821471214294434 23.43914794921875 11.914083480834961 23.474803924560547 C 12.00158405303955 23.512304306030273 11.889083862304688 23.6123046875 11.676583290100098 23.724803924560547 C 11.351583480834961 23.887304306030273 11.101583480834961 23.899803161621094 10.201583862304688 23.7998046875 C 9.614083290100098 23.7373046875 9.026583671569824 23.6123046875 8.914083480834961 23.512304306030273 C 8.801583290100098 23.412303924560547 8.451583862304688 23.137304306030273 8.151583671569824 22.887304306030273 C 7.774815082550049 22.559572219848633 7.461302280426025 22.165563583374023 7.226583957672119 21.724803924560547 C 7.0140838623046875 21.337303161621094 6.801583766937256 20.974803924560547 6.739083766937256 20.93730354309082 C 6.676583766937256 20.899803161621094 6.601583957672119 20.68730354309082 6.5765838623046875 20.474803924560547 C 6.526583671569824 20.037303924560547 6.276583671569824 19.06230354309082 6.164083957672119 18.899803161621094 C 6.126583576202393 18.837303161621094 6.0765838623046875 18.399803161621094 6.051583766937256 17.912303924560547 C 6.026583671569824 17.43730354309082 5.976583957672119 16.99980354309082 5.939083576202393 16.93730354309082 C 5.851583957672119 16.774803161621094 5.839083671569824 13.18730354309082 5.939083576202393 12.949803352355957 C 6.003960132598877 12.620121955871582 6.0415873527526855 12.285659790039062 6.051583766937256 11.949803352355957 C 6.064083576202393 11.49980354309082 6.114083766937256 11.074803352355957 6.151583671569824 11.012303352355957 C 6.276583671569824 10.799803733825684 6.564083576202393 9.52480411529541 6.526583671569824 9.33730411529541 C 6.510225772857666 9.24441909790039 6.543372631072998 9.149714469909668 6.614083766937256 9.08730411529541 C 6.776583671569824 8.987303733825684 7.3890838623046875 7.74980354309082 7.3890838623046875 7.512303829193115 C 7.3890838623046875 7.412303924560547 7.426583766937256 7.324803829193115 7.489083766937256 7.324803829193115 C 7.539083957672119 7.324803829193115 7.876583576202393 7.037303924560547 8.25158405303955 6.68730354309082 C 8.614083290100098 6.337303638458252 9.039083480834961 6.024803638458252 9.18908405303955 6.012303829193115 C 9.326583862304688 5.987303733825684 9.739083290100098 5.912303924560547 10.076583862304688 5.837303638458252 C 10.789083480834961 5.699803829193115 11.139083862304688 5.737303733825684 12.176583290100098 6.049803733825684" stroke-width="0.0" fill="rgb(255, 255, 255)" opacity="1.0"/>
  </g>
</svg>
