<?xml version="1.0" ?>
<svg xmlns="http://www.w3.org/2000/svg" version="1.1" width="600" height="600">
  <defs/>
  <g>
    <path d="M 1.7547287940979004 0.09088499844074249 C 1.6422287225723267 0.16588500142097473 1.4672287702560425 0.4283849895000458 1.1422287225723267 0.9908850193023682 C 1.000808835029602 1.3103630542755127 0.9000221490859985 1.6463189125061035 0.8422287702560425 1.9908850193023682 C 0.7672287225723267 2.365885019302368 0.6547287702560425 2.940885066986084 0.5797287225723267 3.2908849716186523 C 0.5081561803817749 3.5894381999969482 0.48703131079673767 3.8978612422943115 0.5172287225723267 4.203384876251221 C 0.5579522252082825 4.359776496887207 0.5355014801025391 4.525911808013916 0.45472875237464905 4.665884971618652 C 0.32972875237464905 4.815885066986084 0.2797287404537201 5.390884876251221 0.14222875237464905 8.478384971618652 C 0.10472875088453293 9.340885162353516 0.05472875013947487 10.103384971618652 0.0172287505120039 10.190884590148926 C -0.011347602121531963 10.271564483642578 0.013635003007948399 10.361502647399902 0.07972875237464905 10.415884971618652 C 0.16722874343395233 10.465885162353516 0.1547287553548813 10.578385353088379 0.07972875237464905 10.728384971618652 C 0.004728749860078096 10.878384590148926 -0.02027124911546707 13.015885353088379 0.0172287505120039 16.753385543823242 C 0.06722874939441681 22.47838592529297 0.1297287493944168 24.36588478088379 0.2797287404537201 24.72838592529297 C 0.3423951268196106 25.024700164794922 0.38002777099609375 25.325761795043945 0.39222875237464905 25.628385543823242 C 0.4047287404537201 26.028385162353516 0.5172287225723267 26.49088478088379 0.6297287344932556 26.66588592529297 C 0.7358856201171875 26.813905715942383 0.8045179843902588 26.98548698425293 0.8297287225723267 27.16588592529297 C 0.8640850782394409 27.32831382751465 0.9468965530395508 27.47650146484375 1.0672287940979004 27.590885162353516 C 1.2922286987304688 27.815885543823242 1.4922287464141846 27.828384399414062 4.079728603363037 27.815885543823242 C 6.3797287940979 27.79088592529297 6.854728698730469 27.765884399414062 6.954728603363037 27.60338592529297 C 7.092228889465332 27.378385543823242 6.992228984832764 26.703384399414062 6.742228984832764 26.153385162353516 C 6.642228603363037 25.940885543823242 6.579728603363037 25.715885162353516 6.604728698730469 25.653385162353516 C 6.642228603363037 25.465885162353516 6.4422287940979 24.30338478088379 6.329728603363037 24.16588592529297 C 6.279728889465332 24.090885162353516 6.1922287940979 23.61588478088379 6.142228603363037 23.10338592529297 C 6.104728698730469 22.590885162353516 6.0047287940979 22.090885162353516 5.929728984832764 22.015884399414062 C 5.855844020843506 21.92482566833496 5.832387447357178 21.802852630615234 5.867228984832764 21.690885543823242 C 5.904728889465332 21.590885162353516 5.8797287940979 21.11588478088379 5.829728603363037 20.60338592529297 C 5.742228984832764 19.765884399414062 5.7547287940979 19.653385162353516 6.042228698730469 19.11588478088379 C 6.217228889465332 18.80338478088379 6.429728984832764 18.41588592529297 6.5047287940979 18.265884399414062 C 6.579728603363037 18.10338592529297 6.679728984832764 17.97838592529297 6.729728698730469 17.97838592529297 C 6.829728603363037 17.97838592529297 8.117228507995605 17.203384399414062 8.204729080200195 17.090885162353516 C 8.36034870147705 17.011625289916992 8.530463218688965 16.96484375 8.704729080200195 16.953384399414062 C 9.167228698730469 16.878385543823242 10.204729080200195 17.253385543823242 10.204729080200195 17.49088478088379 C 10.204729080200195 17.55338478088379 10.492228507995605 17.97838592529297 10.829729080200195 18.41588592529297 C 11.179728507995605 18.86588478088379 11.429728507995605 19.22838592529297 11.404728889465332 19.22838592529297 C 11.304728507995605 19.22838592529297 11.954729080200195 20.61588478088379 12.142229080200195 20.815885543823242 C 12.254728317260742 20.91588592529297 12.304728507995605 21.04088592529297 12.267229080200195 21.10338592529297 C 12.204729080200195 21.215885162353516 12.554728507995605 22.340885162353516 12.729728698730469 22.565885543823242 C 12.820802688598633 22.727256774902344 12.876214981079102 22.906280517578125 12.892229080200195 23.090885162353516 C 12.954729080200195 23.528385162353516 13.204729080200195 24.49088478088379 13.304728507995605 24.653385162353516 C 13.37324333190918 24.982494354248047 13.410905838012695 25.317277908325195 13.417228698730469 25.653385162353516 C 13.442228317260742 26.140884399414062 13.517229080200195 26.590885162353516 13.579729080200195 26.653385162353516 C 13.629728317260742 26.703384399414062 13.654728889465332 26.940885543823242 13.617228507995605 27.16588592529297 C 13.517229080200195 27.778385162353516 13.829729080200195 27.840885162353516 16.992229461669922 27.828384399414062 C 20.117229461669922 27.80338478088379 20.154727935791016 27.80338478088379 20.029727935791016 26.92838478088379 C 19.992229461669922 26.640884399414062 19.942228317260742 26.003385543823242 19.904727935791016 25.49088478088379 C 19.879728317260742 24.99088478088379 19.79222869873047 24.515884399414062 19.717227935791016 24.440885543823242 C 19.62078285217285 24.287817001342773 19.57285499572754 24.109172821044922 19.579729080200195 23.92838478088379 C 19.579729080200195 23.390884399414062 19.342227935791016 22.578384399414062 19.117229461669922 22.328384399414062 C 19.017229080200195 22.215885162353516 18.967227935791016 22.065885543823242 19.004728317260742 22.003385543823242 C 19.067228317260742 21.903385162353516 18.692228317260742 20.965885162353516 18.342227935791016 20.35338592529297 C 18.29222869873047 20.253385543823242 18.10472869873047 19.890884399414062 17.942228317260742 19.55338478088379 C 17.78752899169922 19.239036560058594 17.594383239746094 18.945119857788086 17.367229461669922 18.67838478088379 C 17.204729080200195 18.54088592529297 17.079729080200195 18.340885162353516 17.079729080200195 18.253385543823242 C 17.079729080200195 18.05338478088379 16.367229461669922 17.078384399414062 16.129728317260742 16.940885543823242 C 16.031578063964844 16.887704849243164 15.966068267822266 16.789438247680664 15.954729080200195 16.67838478088379 C 15.954729080200195 16.590885162353516 15.642229080200195 16.190885543823242 15.267229080200195 15.790884971618652 C 15.022754669189453 15.550950050354004 14.793160438537598 15.296309471130371 14.579729080200195 15.028385162353516 C 14.509062767028809 14.88086986541748 14.420930862426758 14.742377281188965 14.317228317260742 14.615884780883789 C 14.104728698730469 14.315884590148926 14.067228317260742 14.190884590148926 14.167228698730469 13.890885353088379 C 14.229728698730469 13.703385353088379 14.354728698730469 13.540884971618652 14.417228698730469 13.540884971618652 C 14.617228507995605 13.540884971618652 15.704729080200195 12.703385353088379 15.842228889465332 12.440884590148926 C 15.896918296813965 12.332006454467773 15.998075485229492 12.253839492797852 16.117229461669922 12.228384971618652 C 16.342227935791016 12.228384971618652 17.154727935791016 11.353384971618652 17.267229080200195 11.003384590148926 C 17.304729461669922 10.853384971618652 17.41722869873047 10.728384971618652 17.504728317260742 10.728384971618652 C 17.704729080200195 10.728384971618652 18.329729080200195 9.603384971618652 18.329729080200195 9.240884780883789 C 18.329729080200195 9.103384971618652 18.379728317260742 8.978384971618652 18.454729080200195 8.978384971618652 C 18.629728317260742 8.978384971618652 18.97972869873047 7.678384780883789 18.892229080200195 7.315885066986084 C 18.842227935791016 7.140884876251221 18.867229461669922 6.965885162353516 18.942228317260742 6.928384780883789 C 19.117229461669922 6.815885066986084 19.117229461669922 6.178384780883789 18.942228317260742 5.328384876251221 C 18.704729080200195 4.140884876251221 18.442228317260742 3.3408849239349365 18.254728317260742 3.2658851146698 C 18.14859962463379 3.21523380279541 18.080663681030273 3.1084775924682617 18.079729080200195 2.990885019302368 C 18.079729080200195 2.7158849239349365 17.242229461669922 1.7283849716186523 17.017229080200195 1.7283849716186523 C 16.88629150390625 1.7073336839675903 16.77410125732422 1.6231907606124878 16.717227935791016 1.5033849477767944 C 16.579729080200195 1.2533849477767944 15.354728698730469 0.5408849716186523 15.242228507995605 0.6408849954605103 C 15.204729080200195 0.6783850193023682 14.954729080200195 0.5908849835395813 14.679728507995605 0.45338499546051025 C 14.312146186828613 0.27899855375289917 13.911521911621094 0.18523532152175903 13.504728317260742 0.17838500440120697 C 13.129728317260742 0.17838500440120697 12.829729080200195 0.1283850073814392 12.829729080200195 0.07838500291109085 C 12.829729080200195 -0.03411500155925751 1.9047287702560425 -0.021615000441670418 1.7547287940979004 0.09088499844074249" stroke-width="0.0" fill="rgb(0, 0, 0)" opacity="1.0"/>
    <path d="M 10.038559913635254 3.4749999046325684 C 10.535177230834961 3.4897964000701904 11.02042293548584 3.627211093902588 11.45106029510498 3.875 C 11.813559532165527 4.074999809265137 12.213560104370117 4.287499904632568 12.338560104370117 4.349999904632568 C 12.463560104370117 4.412499904632568 12.63856029510498 4.724999904632568 12.751059532165527 5.037499904632568 C 12.976059913635254 5.712500095367432 13.126059532165527 6.925000190734863 12.976059913635254 6.925000190734863 C 12.92605972290039 6.925000190734863 12.776060104370117 7.150000095367432 12.651060104370117 7.425000190734863 C 12.554472923278809 7.65566873550415 12.423855781555176 7.870556354522705 12.26356029510498 8.0625 C 12.163559913635254 8.137499809265137 12.11355972290039 8.237500190734863 12.151060104370117 8.287500381469727 C 12.17605972290039 8.337499618530273 11.86355972290039 8.649999618530273 11.463560104370117 9.0 C 11.063559532165527 9.337499618530273 10.726059913635254 9.6875 10.726059913635254 9.762499809265137 C 10.713560104370117 9.850000381469727 10.663559913635254 9.9375 10.588560104370117 9.9375 C 10.338560104370117 9.975000381469727 10.26356029510498 10.012499809265137 9.626059532165527 10.425000190734863 C 9.26356029510498 10.649999618530273 8.963560104370117 10.887499809265137 8.963560104370117 10.9375 C 8.963560104370117 11.0 8.876059532165527 11.050000190734863 8.776060104370117 11.050000190734863 C 8.563559532165527 11.050000190734863 7.3135600090026855 11.649999618530273 7.213560104370117 11.800000190734863 C 7.176060199737549 11.850000381469727 6.863560199737549 11.9375 6.526060104370117 11.975000381469727 C 5.988560199737549 12.050000190734863 5.851059913635254 12.024999618530273 5.601059913635254 11.8125 C 5.263559818267822 11.524999618530273 5.213560104370117 11.237500190734863 5.213560104370117 9.675000190734863 C 5.213560104370117 8.324999809265137 5.288559913635254 7.400000095367432 5.476059913635254 6.612500190734863 C 5.551060199737549 6.262499809265137 5.6260600090026855 5.875 5.638559818267822 5.724999904632568 C 5.638559818267822 5.587500095367432 5.926060199737549 5.099999904632568 6.2510600090026855 4.662499904632568 C 6.838560104370117 3.862499952316284 6.863560199737549 3.8375000953674316 7.663559913635254 3.674999952316284 C 8.11355972290039 3.575000047683716 8.51356029510498 3.450000047683716 8.55105972290039 3.4000000953674316 C 8.57606029510498 3.3375000953674316 8.76356029510498 3.325000047683716 8.963560104370117 3.362499952316284 C 9.151060104370117 3.4000000953674316 9.63856029510498 3.450000047683716 10.038559913635254 3.4749999046325684" stroke-width="0.0" fill="rgb(255, 255, 255)" opacity="1.0"/>
  </g>
</svg>
