<?xml version="1.0" ?>
<svg xmlns="http://www.w3.org/2000/svg" version="1.1" width="600" height="600">
  <defs/>
  <g>
    <path d="M 7.873451232910156 0.10198000073432922 C 7.7945966720581055 0.18882609903812408 7.670632362365723 0.21857744455337524 7.560951232910156 0.17698000371456146 C 7.2984514236450195 0.10198000073432922 6.148451328277588 0.3769800066947937 5.910951137542725 0.5519800186157227 C 5.698390483856201 0.6686036586761475 5.471456527709961 0.7568557262420654 5.2359514236450195 0.8144800066947937 C 4.896840572357178 0.9344894886016846 4.583127975463867 1.1167818307876587 4.310951232910156 1.3519799709320068 C 4.073451042175293 1.564479947090149 3.823451280593872 1.751979947090149 3.7234511375427246 1.7644799947738647 C 3.510951280593872 1.8019800186157227 2.573451280593872 2.726979970932007 2.573451280593872 2.901979923248291 C 2.573451280593872 2.9894800186157227 2.460951328277588 3.151979923248291 2.3109512329101562 3.289479970932007 C 1.9984512329101562 3.5769801139831543 1.42345130443573 4.651979923248291 1.5359512567520142 4.764480113983154 C 1.573451280593872 4.801980018615723 1.5234512090682983 4.939479827880859 1.4109512567520142 5.064479827880859 C 1.1609512567520142 5.326980113983154 0.9109512567520142 6.401979923248291 1.0234512090682983 6.739480018615723 C 1.058127999305725 6.88712215423584 1.0261294841766357 7.042543411254883 0.9359512329101562 7.164480209350586 C 0.8359512686729431 7.289480209350586 0.8234512209892273 7.551980018615723 0.8859512209892273 8.06447982788086 C 0.9359512329101562 8.451979637145996 0.9984512329101562 8.976980209350586 1.0234512090682983 9.21448040008545 C 1.0859512090682983 9.889479637145996 1.3359512090682983 10.68947982788086 1.5234512090682983 10.851980209350586 C 1.6234608888626099 10.932085037231445 1.6866257190704346 11.04939079284668 1.698451280593872 11.176980018615723 C 1.698451280593872 11.46448040008545 2.1734511852264404 12.08948040008545 3.1109511852264404 12.989480018615723 C 3.585951328277588 13.46448040008545 4.085951328277588 13.83948040008545 4.210951328277588 13.83948040008545 C 4.340005874633789 13.833281517028809 4.461300373077393 13.901206970214844 4.523451328277588 14.014479637145996 C 4.560951232910156 14.114480018615723 4.910951137542725 14.351980209350586 5.2984514236450195 14.539480209350586 C 5.685951232910156 14.726980209350586 6.098451137542725 14.926980018615723 6.198451042175293 14.989480018615723 C 6.710951328277588 15.27698040008545 7.5484514236450195 15.614480018615723 7.8609514236450195 15.65198040008545 C 8.037410736083984 15.669341087341309 8.208001136779785 15.724782943725586 8.36095142364502 15.81447982788086 C 8.598451614379883 16.00197982788086 9.723451614379883 16.339479446411133 9.848451614379883 16.264480590820312 C 9.95691204071045 16.23749351501465 10.071505546569824 16.270915985107422 10.14845085144043 16.351980209350586 C 10.373451232910156 16.539480209350586 11.54845142364502 17.089479446411133 11.723451614379883 17.089479446411133 C 11.86095142364502 17.089479446411133 13.473451614379883 18.426979064941406 13.435951232910156 18.489479064941406 C 13.452692031860352 18.601964950561523 13.495497703552246 18.7089786529541 13.560951232910156 18.801979064941406 C 13.679797172546387 19.091936111450195 13.767782211303711 19.393598556518555 13.823451042175293 19.701980590820312 C 13.92345142364502 20.226980209350586 13.89845085144043 20.401979446411133 13.67345142364502 20.864479064941406 C 13.260951042175293 21.726980209350586 12.998451232910156 21.976980209350586 12.04845142364502 22.426979064941406 C 11.514053344726562 22.708782196044922 10.926300048828125 22.874887466430664 10.323451042175293 22.914480209350586 C 9.873451232910156 22.951980590820312 9.448451042175293 23.00197982788086 9.36095142364502 23.026979446411133 C 9.17345142364502 23.089479446411133 6.910951137542725 22.81447982788086 6.823451042175293 22.714479446411133 C 6.561822891235352 22.573989868164062 6.29026460647583 22.45283317565918 6.010951042175293 22.351980209350586 C 4.510951042175293 21.75197982788086 3.085951328277588 19.81447982788086 2.710951328277588 17.839479446411133 C 2.6234512329101562 17.389480590820312 2.4859511852264404 16.989479064941406 2.4234511852264404 16.951980590820312 C 2.3456783294677734 16.88327407836914 2.320514440536499 16.772552490234375 2.3609511852264404 16.676979064941406 C 2.3990015983581543 16.554609298706055 2.359523296356201 16.421369552612305 2.260951280593872 16.339479446411133 C 2.1234512329101562 16.226980209350586 1.98595130443573 16.301979064941406 1.5859512090682983 16.664480209350586 C 1.29845130443573 16.914480209350586 1.073451280593872 17.226980209350586 1.073451280593872 17.351980209350586 C 1.073451280593872 17.489479064941406 1.0234512090682983 17.589479446411133 0.9484512209892273 17.589479446411133 C 0.7859512567520142 17.589479446411133 0.2984512448310852 18.56447982788086 0.2609512507915497 18.964479446411133 C 0.2207489162683487 19.25536346435547 0.16230031847953796 19.54343032836914 0.08595124632120132 19.826980590820312 C -0.12654875218868256 20.576980590820312 0.08595124632120132 22.87697982788086 0.3859512507915497 23.214479446411133 C 0.49845126271247864 23.339479446411133 0.5609512329101562 23.514480590820312 0.5109512209892273 23.576980590820312 C 0.41095125675201416 23.75197982788086 1.0609512329101562 24.951980590820312 1.3484512567520142 25.101980209350586 C 1.4633162021636963 25.152122497558594 1.5470468997955322 25.254459381103516 1.573451280593872 25.37697982788086 C 1.573451280593872 25.576980590820312 2.5984511375427246 26.589479446411133 2.7984511852264404 26.589479446411133 C 2.8734512329101562 26.589479446411133 2.9984512329101562 26.68947982788086 3.0609512329101562 26.826980590820312 C 3.135951280593872 26.951980590820312 3.510951280593872 27.214479446411133 3.9109511375427246 27.401979446411133 C 4.310951232910156 27.601980209350586 4.748451232910156 27.81447982788086 4.873451232910156 27.87697982788086 C 5.373451232910156 28.114479064941406 6.398451328277588 28.426979064941406 6.5484514236450195 28.37697982788086 C 6.668410778045654 28.353057861328125 6.792725086212158 28.385286331176758 6.885951042175293 28.464479446411133 C 6.9859514236450195 28.551979064941406 7.448451042175293 28.651979446411133 7.910951137542725 28.676979064941406 C 8.385951042175293 28.714479446411133 9.08595085144043 28.764480590820312 9.48595142364502 28.801979064941406 C 9.885951042175293 28.839479446411133 10.29845142364502 28.826980590820312 10.42345142364502 28.776979446411133 C 10.535951614379883 28.726980209350586 11.010951042175293 28.676979064941406 11.48595142364502 28.651979446411133 C 11.948451042175293 28.639480590820312 12.39845085144043 28.56447982788086 12.473451614379883 28.489479064941406 C 12.597397804260254 28.390113830566406 12.75210952758789 28.337068557739258 12.910951614379883 28.339479446411133 C 13.285951614379883 28.339479446411133 14.573451042175293 27.851980209350586 14.573451042175293 27.701980590820312 C 14.573451042175293 27.639480590820312 14.67345142364502 27.589479446411133 14.785951614379883 27.589479446411133 C 15.08595085144043 27.589479446411133 16.32345199584961 26.81447982788086 16.32345199584961 26.62697982788086 C 16.31926727294922 26.54147720336914 16.385189056396484 26.468774795532227 16.470691680908203 26.464590072631836 C 16.47161102294922 26.46454620361328 16.472530364990234 26.464508056640625 16.473451614379883 26.464479446411133 C 16.673450469970703 26.464479446411133 17.69845199584961 25.464479446411133 17.69845199584961 25.264480590820312 C 17.69845199584961 25.18947982788086 17.810951232910156 25.026979446411133 17.96095085144043 24.889480590820312 C 18.27345085144043 24.601980209350586 18.848451614379883 23.526979446411133 18.735950469970703 23.414480209350586 C 18.69845199584961 23.37697982788086 18.748451232910156 23.239479064941406 18.848451614379883 23.12697982788086 C 19.223451614379883 22.701980590820312 19.373451232910156 21.81447982788086 19.373451232910156 19.964479446411133 C 19.373451232910156 18.451980590820312 19.33595085144043 18.06447982788086 19.13595199584961 17.651979446411133 C 19.02777862548828 17.42827796936035 18.9439640045166 17.19359588623047 18.88595199584961 16.951980590820312 C 18.848451614379883 16.651979446411133 18.21095085144043 15.614480018615723 18.01095199584961 15.539480209350586 C 17.907691955566406 15.503358840942383 17.83462142944336 15.410801887512207 17.82345199584961 15.301980018615723 C 17.82345199584961 15.101980209350586 16.810951232910156 14.08948040008545 16.598451614379883 14.08948040008545 C 16.49266815185547 14.071168899536133 16.40331268310547 14.000624656677246 16.360950469970703 13.90198040008545 C 16.27345085144043 13.664480209350586 15.285951614379883 12.96448040008545 14.948451042175293 12.90198040008545 C 14.772770881652832 12.85944938659668 14.61253833770752 12.76850700378418 14.48595142364502 12.639479637145996 C 14.248451232910156 12.414480209350586 13.27345085144043 11.96448040008545 12.98595142364502 11.96448040008545 C 12.8478364944458 11.943390846252441 12.720474243164062 11.877513885498047 12.623451232910156 11.77698040008545 C 12.52345085144043 11.676980018615723 12.123451232910156 11.50197982788086 11.723451614379883 11.389479637145996 C 11.33595085144043 11.27698040008545 10.89845085144043 11.139479637145996 10.760951042175293 11.076979637145996 C 9.83595085144043 10.701979637145996 9.510951042175293 10.58948040008545 9.248451232910156 10.58948040008545 C 9.11605167388916 10.595892906188965 8.986257553100586 10.551136016845703 8.885951042175293 10.46448040008545 C 8.83595085144043 10.389479637145996 8.510951042175293 10.18947982788086 8.160951614379883 10.00197982788086 C 7.510951042175293 9.664480209350586 7.435951232910156 9.639479637145996 7.198451042175293 9.601980209350586 C 7.135951042175293 9.601980209350586 7.073451042175293 9.50197982788086 7.073451042175293 9.40198040008545 C 7.073451042175293 9.301980018615723 7.023451328277588 9.21448040008545 6.948451042175293 9.21448040008545 C 6.760951042175293 9.21448040008545 6.010951042175293 8.051980018615723 5.9859514236450195 7.714479923248291 C 5.990954875946045 7.374156951904297 6.028627872467041 7.035100936889648 6.098451137542725 6.701980113983154 C 6.223451137542725 6.026979923248291 6.248451232910156 5.989480018615723 7.035951137542725 5.451980113983154 C 7.4859514236450195 5.151979923248291 7.948451042175293 4.889480113983154 8.060951232910156 4.876979827880859 C 8.17345142364502 4.876979827880859 8.635951042175293 4.801980018615723 9.08595085144043 4.739480018615723 C 9.604193687438965 4.633881092071533 10.140298843383789 4.655324935913086 10.64845085144043 4.801980018615723 C 11.04845142364502 4.901979923248291 11.473451614379883 4.989480018615723 11.573451042175293 5.001979827880859 C 11.67345142364502 5.014480113983154 12.11095142364502 5.264480113983154 12.535951614379883 5.551980018615723 C 12.96095085144043 5.851980209350586 13.373451232910156 6.089479923248291 13.435951232910156 6.089479923248291 C 13.522001266479492 6.100269317626953 13.583327293395996 6.178320407867432 13.573451042175293 6.264480113983154 C 13.573451042175293 6.564479827880859 14.64845085144043 7.439479827880859 15.135951042175293 7.539480209350586 C 15.54845142364502 7.614480018615723 15.635951042175293 7.576980113983154 16.08595085144043 7.139480113983154 C 16.348451614379883 6.876979827880859 16.57345199584961 6.589479923248291 16.57345199584961 6.501979827880859 C 16.588729858398438 6.395567417144775 16.653696060180664 6.302759170532227 16.748451232910156 6.251979827880859 C 16.998451232910156 6.114480018615723 17.57345199584961 5.076980113983154 17.57345199584961 4.764480113983154 C 17.58029556274414 4.604278564453125 17.647241592407227 4.452535152435303 17.76095199584961 4.339479923248291 C 17.860950469970703 4.251979827880859 17.94845199584961 3.976979970932007 17.94845199584961 3.714479923248291 C 17.94845199584961 3.3269801139831543 17.848451614379883 3.1394801139831543 17.423450469970703 2.6894800662994385 C 16.848451614379883 2.089479923248291 16.173450469970703 1.5894800424575806 15.96095085144043 1.5894800424575806 C 15.749495506286621 1.5177971124649048 15.551080703735352 1.4122573137283325 15.373451232910156 1.2769800424575806 C 15.0725679397583 1.079455018043518 14.743969917297363 0.9277947545051575 14.39845085144043 0.8269799947738647 C 14.086527824401855 0.7418003082275391 13.781492233276367 0.6331573128700256 13.48595142364502 0.5019800066947937 C 12.873451232910156 0.23948000371456146 11.573451042175293 0.07698000222444534 9.67345142364502 0.014480000361800194 C 8.535951614379883 -0.023019999265670776 7.935951232910156 0.014480000361800194 7.873451232910156 0.10198000073432922" stroke-width="0.0" fill="rgb(0, 0, 0)" opacity="1.0"/>
  </g>
</svg>
