<?xml version="1.0" ?>
<svg xmlns="http://www.w3.org/2000/svg" version="1.1" width="600" height="600">
  <defs/>
  <g>
    <path d="M 1.6884137392044067 0.2874999940395355 C 1.3384137153625488 0.574999988079071 0.8384137749671936 1.6749999523162842 0.9384137392044067 1.962499976158142 C 0.9668686985969543 2.0707316398620605 0.9438074231147766 2.186038017272949 0.8759137392044067 2.2750000953674316 C 0.6884137392044067 2.5 0.5009137392044067 3.762500047683716 0.41341376304626465 5.387499809265137 C 0.38841375708580017 5.849999904632568 0.3384137451648712 6.287499904632568 0.3009137511253357 6.349999904632568 C 0.25091373920440674 6.412499904632568 0.20091375708580017 7.375 0.1759137511253357 8.475000381469727 C 0.13841375708580017 9.574999809265137 0.08841375261545181 10.524999618530273 0.06341374665498734 10.574999809265137 C -0.049086250364780426 10.762499809265137 0.0009137499728240073 20.174999237060547 0.1134137511253357 20.387500762939453 C 0.18841375410556793 20.512500762939453 0.1759137511253357 20.625 0.10091374814510345 20.674999237060547 C 0.025913750752806664 20.712499618530273 0.0009137499728240073 20.875 0.038413748145103455 21.024999618530273 C 0.10373745858669281 21.53089714050293 0.1412937492132187 22.039993286132812 0.15091374516487122 22.549999237060547 C 0.2384137511253357 24.337499618530273 0.4634137451648712 26.274999618530273 0.6009137630462646 26.412500381469727 C 0.6915447115898132 26.549072265625 0.7354082465171814 26.711366653442383 0.7259137630462646 26.875 C 0.7561841607093811 27.117507934570312 0.8610106110572815 27.34463119506836 1.0259137153625488 27.524999618530273 L 1.3259137868881226 27.850000381469727 L 7.3634138107299805 27.8125 C 11.013413429260254 27.787500381469727 13.713414192199707 27.725000381469727 14.163414001464844 27.637500762939453 C 15.075913429260254 27.475000381469727 15.725914001464844 27.25 15.725914001464844 27.100000381469727 C 15.725914001464844 27.037500381469727 15.850914001464844 26.987499237060547 16.000913619995117 26.987499237060547 C 16.350914001464844 26.987499237060547 17.475914001464844 26.237499237060547 17.475914001464844 26.012500762939453 C 17.475914001464844 25.912500381469727 17.58841323852539 25.8125 17.725914001464844 25.774999618530273 C 18.000913619995117 25.700000762939453 18.725914001464844 24.674999237060547 18.725914001464844 24.362499237060547 C 18.73137855529785 24.22260856628418 18.79477310180664 24.091289520263672 18.90091323852539 24.0 C 19.07591438293457 23.850000381469727 19.350914001464844 22.912500381469727 19.350914001464844 22.424999237060547 C 19.363412857055664 22.287500381469727 19.38841438293457 21.825000762939453 19.425912857055664 21.387500762939453 C 19.46341323852539 20.950000762939453 19.46341323852539 20.5 19.413414001464844 20.387500762939453 C 19.338369369506836 20.148502349853516 19.296314239501953 19.90037727355957 19.288414001464844 19.649999618530273 C 19.251291275024414 19.28101921081543 19.14975357055664 18.92140769958496 18.988412857055664 18.587499618530273 C 18.878206253051758 18.363323211669922 18.790285110473633 18.128864288330078 18.725914001464844 17.887500762939453 C 18.725914001464844 17.600000381469727 18.113412857055664 16.524999618530273 17.913414001464844 16.450000762939453 C 17.805683135986328 16.392730712890625 17.734888076782227 16.284175872802734 17.725914001464844 16.162500381469727 C 17.725914001464844 15.887499809265137 16.96341323852539 14.875 16.750913619995117 14.862500190734863 C 16.663414001464844 14.862500190734863 16.550912857055664 14.737500190734863 16.488412857055664 14.574999809265137 C 16.425912857055664 14.425000190734863 16.100914001464844 14.050000190734863 15.775914192199707 13.737500190734863 C 15.23841381072998 13.25 14.98841381072998 12.962499618530273 14.150914192199707 11.949999809265137 C 13.975914001464844 11.737500190734863 14.013413429260254 11.662500381469727 14.600914001464844 11.0 C 14.938413619995117 10.587499618530273 15.225914001464844 10.199999809265137 15.225914001464844 10.125 C 15.234435081481934 10.043001174926758 15.306136131286621 9.982331275939941 15.388413429260254 9.987500190734863 C 15.588414192199707 9.987500190734863 16.300912857055664 9.125 16.475914001464844 8.6875 C 16.538414001464844 8.5 16.65091323852539 8.362500190734863 16.725914001464844 8.362500190734863 C 16.850914001464844 8.362500190734863 17.500913619995117 7.175000190734863 17.538414001464844 6.862500190734863 C 17.57563591003418 6.678641319274902 17.630041122436523 6.498684883117676 17.70091438293457 6.324999809265137 C 18.01341438293457 5.587500095367432 17.788414001464844 2.9625000953674316 17.40091323852539 2.8125 C 17.28704261779785 2.7447924613952637 17.219758987426758 2.6198368072509766 17.225914001464844 2.487499952316284 C 17.225914001464844 2.1624999046325684 16.38841438293457 1.2374999523162842 16.08841323852539 1.2374999523162842 C 15.957171440124512 1.2391250133514404 15.836240768432617 1.166567087173462 15.775914192199707 1.0499999523162842 C 15.700913429260254 0.8500000238418579 14.400914192199707 0.32499998807907104 14.225914001464844 0.42500001192092896 C 14.17591381072998 0.44999998807907104 13.938413619995117 0.38749998807907104 13.713414192199707 0.2750000059604645 C 13.338414192199707 0.07500000298023224 12.67591381072998 0.05000000074505806 7.6634135246276855 0.02500000037252903 L 2.0384137630462646 -1.1747547379314938e-14 L 1.6884137392044067 0.2874999940395355" stroke-width="0.0" fill="rgb(0, 0, 0)" opacity="1.0"/>
    <path d="M 11.087499618530273 3.825000047683716 C 11.6875 4.0 11.850000381469727 4.112500190734863 11.975000381469727 4.425000190734863 C 12.175000190734863 4.912499904632568 12.300000190734863 6.112500190734863 12.149999618530273 6.199999809265137 C 12.050000190734863 6.262499809265137 11.387499809265137 7.487500190734863 11.362500190734863 7.625 C 11.362500190734863 7.662499904632568 11.024999618530273 8.0 10.612500190734863 8.375 C 10.199999809265137 8.737500190734863 9.8125 9.112500190734863 9.762499809265137 9.212499618530273 C 9.704388618469238 9.303893089294434 9.607715606689453 9.363738059997559 9.5 9.375 C 9.350000381469727 9.375 8.300000190734863 10.087499618530273 8.162500381469727 10.287500381469727 C 8.040555000305176 10.394719123840332 7.906276226043701 10.487035751342773 7.762499809265137 10.5625 C 7.302942276000977 10.791799545288086 6.856426239013672 11.046355247497559 6.425000190734863 11.324999809265137 C 6.125 11.550000190734863 5.3125 11.387499809265137 5.150000095367432 11.087499618530273 C 5.012499809265137 10.824999809265137 4.962500095367432 8.5 5.087500095367432 8.287500381469727 C 5.125 8.237500190734863 5.199999809265137 7.762499809265137 5.25 7.25 C 5.300000190734863 6.737500190734863 5.375 6.287499904632568 5.412499904632568 6.25 C 5.583948612213135 5.978552341461182 5.734387397766113 5.694390296936035 5.862500190734863 5.400000095367432 C 6.199999809265137 4.699999809265137 6.324999809265137 4.5625 7.0625 4.137499809265137 C 7.712500095367432 3.762500047683716 8.012499809265137 3.6624999046325684 8.587499618530273 3.637500047683716 C 8.975000381469727 3.625 9.425000190734863 3.575000047683716 9.574999809265137 3.512500047683716 C 9.748486518859863 3.452425241470337 9.936408042907715 3.448054790496826 10.112500190734863 3.5 C 10.25 3.549999952316284 10.6875 3.700000047683716 11.087499618530273 3.825000047683716" stroke-width="0.0" fill="rgb(255, 255, 255)" opacity="1.0"/>
    <path d="M 11.123225212097168 16.013458251953125 C 11.473224639892578 16.325958251953125 11.823225021362305 16.575958251953125 11.898224830627441 16.575958251953125 C 11.973888397216797 16.57662010192871 12.035062789916992 16.637794494628906 12.035724639892578 16.713457107543945 C 12.035724639892578 16.888458251953125 12.898224830627441 18.1009578704834 13.123225212097168 18.23845672607422 C 13.215397834777832 18.301578521728516 13.274895668029785 18.40226936340332 13.285724639892578 18.513458251953125 C 13.285724639892578 18.61345672607422 13.448225021362305 19.05095672607422 13.648224830627441 19.4759578704834 C 13.998225212097168 20.23845672607422 14.010725021362305 20.438457489013672 13.935725212097168 21.825958251953125 C 13.910724639892578 22.150957107543945 13.748225212097168 22.450958251953125 13.273224830627441 23.000957489013672 C 12.748225212097168 23.61345672607422 12.510725021362305 23.7884578704834 11.935725212097168 23.9759578704834 C 11.630276679992676 24.06856346130371 11.32986831665039 24.177043914794922 11.035724639892578 24.30095672607422 C 10.873225212097168 24.388458251953125 9.498225212097168 24.500957489013672 8.723224639892578 24.48845672607422 C 8.585724830627441 24.4759578704834 8.098224639892578 24.375957489013672 7.635725021362305 24.263458251953125 C 6.898224830627441 24.063457489013672 6.748225212097168 23.9759578704834 6.423224925994873 23.500957489013672 C 6.210724830627441 23.213457107543945 6.035725116729736 22.9134578704834 6.035725116729736 22.8509578704834 C 6.011905670166016 22.744808197021484 5.949548244476318 22.65127182006836 5.860724925994873 22.588457107543945 C 5.773224830627441 22.513458251953125 5.685725212097168 22.188457489013672 5.673224925994873 21.8509578704834 C 5.67420768737793 21.52678871154785 5.636439800262451 21.203662872314453 5.560725212097168 20.888458251953125 C 5.492232322692871 20.370624542236328 5.467144966125488 19.847970962524414 5.485724925994873 19.325958251953125 L 5.510725021362305 18.138458251953125 L 6.048224925994873 17.7259578704834 C 6.348225116729736 17.500957489013672 6.660725116729736 17.263458251953125 6.748225212097168 17.200958251953125 C 6.828941345214844 17.13074493408203 6.929326057434082 17.087099075317383 7.035725116729736 17.075958251953125 C 7.248225212097168 17.075958251953125 8.323225021362305 16.42595672607422 8.498225212097168 16.200958251953125 C 8.573225021362305 16.1009578704834 8.673225402832031 16.05095672607422 8.723224639892578 16.1009578704834 C 8.773224830627441 16.138458251953125 9.110725402832031 16.013458251953125 9.498225212097168 15.813457489013672 C 9.873225212097168 15.613457679748535 10.248225212097168 15.450957298278809 10.335724830627441 15.450957298278809 C 10.410724639892578 15.450957298278809 10.760725021362305 15.700957298278809 11.123225212097168 16.013458251953125" stroke-width="0.0" fill="rgb(255, 255, 255)" opacity="1.0"/>
  </g>
</svg>
