<?xml version="1.0" ?>
<svg xmlns="http://www.w3.org/2000/svg" version="1.1" width="600" height="600">
  <defs/>
  <g>
    <path d="M 8.361543655395508 0.03046875074505806 C 8.324043273925781 0.06796874850988388 7.936543941497803 0.11796875298023224 7.499043941497803 0.15546874701976776 C 7.0208353996276855 0.18376919627189636 6.5448899269104 0.24221867322921753 6.0740437507629395 0.3304687440395355 C 5.736543655395508 0.3929687440395355 5.099043846130371 0.5054687261581421 4.674043655395508 0.592968761920929 C 4.236543655395508 0.66796875 3.8865437507629395 0.780468761920929 3.8865437507629395 0.8304687738418579 C 3.8865437507629395 0.8929687738418579 3.6990437507629395 0.930468738079071 3.4615437984466553 0.930468738079071 C 3.0740437507629395 0.930468738079071 2.4365437030792236 1.1804687976837158 1.6365437507629395 1.642968773841858 C 1.3240437507629395 1.817968726158142 0.8240437507629395 3.0054688453674316 0.9615437388420105 3.23046875 C 0.9990437626838684 3.29296875 0.9615437388420105 3.41796875 0.8865437507629395 3.530468702316284 C 0.6740437746047974 3.780468702316284 0.3990437388420105 5.017968654632568 0.47404375672340393 5.330468654632568 C 0.5115437507629395 5.467968940734863 0.486543744802475 5.580468654632568 0.41154375672340393 5.580468654632568 C 0.2740437388420105 5.580468654632568 0.13654375076293945 6.23046875 0.049043748527765274 7.205468654632568 C -0.1009562537074089 8.942968368530273 0.049043748527765274 9.130468368530273 1.1240437030792236 8.567968368530273 C 1.5410864353179932 8.345466613769531 1.9347285032272339 8.081643104553223 2.299043655395508 7.780468940734863 C 2.5697693824768066 7.535031318664551 2.867513656616211 7.3211588859558105 3.1865437030792236 7.142968654632568 C 3.493828535079956 6.985457420349121 3.7760634422302246 6.783259391784668 4.024043560028076 6.54296875 C 4.211543560028076 6.35546875 4.424043655395508 6.205468654632568 4.5115437507629395 6.205468654632568 C 4.674043655395508 6.205468654632568 5.624043941497803 5.742968559265137 5.8865437507629395 5.530468940734863 C 6.086543560028076 5.367968559265137 7.061543941497803 5.117968559265137 7.6990437507629395 5.055468559265137 L 8.074043273925781 5.017968654632568 L 8.149044036865234 6.080468654632568 C 8.186543464660645 6.66796875 8.174043655395508 7.23046875 8.124043464660645 7.330468654632568 C 7.961543560028076 7.630468845367432 7.774043560028076 8.73046875 7.849043846130371 8.91796875 C 7.883884429931641 9.029936790466309 7.8604278564453125 9.151909828186035 7.786543846130371 9.242968559265137 C 7.674043655395508 9.380468368530273 7.5740437507629395 9.85546875 7.4490437507629395 10.905468940734863 C 7.424043655395508 11.10546875 7.336543560028076 11.60546875 7.2615437507629395 12.005468368530273 C 7.186543941497803 12.41796875 7.161543846130371 12.830469131469727 7.1990437507629395 12.930468559265137 C 7.234035968780518 13.040666580200195 7.215540885925293 13.160884857177734 7.149043560028076 13.255468368530273 C 7.024043560028076 13.392969131469727 6.899043560028076 14.805468559265137 6.8240437507629395 16.580469131469727 C 6.811543941497803 17.030467987060547 6.774043560028076 17.73046875 6.7615437507629395 18.155467987060547 C 6.736543655395508 18.567968368530273 6.7615437507629395 18.98046875 6.811543941497803 19.067968368530273 C 6.855902671813965 19.18137550354004 6.836877822875977 19.30979347229004 6.7615437507629395 19.405467987060547 C 6.649043560028076 19.530467987060547 6.624043941497803 19.805469512939453 6.686543941497803 20.305469512939453 C 6.736543655395508 20.692968368530273 6.799043655395508 21.930469512939453 6.811543941497803 23.04296875 C 6.836543560028076 24.342967987060547 6.911543846130371 25.142969131469727 6.999043941497803 25.255468368530273 C 7.080277919769287 25.35776138305664 7.103832721710205 25.4943790435791 7.061543941497803 25.617969512939453 C 6.974043846130371 25.880468368530273 7.249043941497803 27.205469131469727 7.399043560028076 27.205469131469727 C 7.461543560028076 27.205469131469727 7.5115437507629395 27.330469131469727 7.5115437507629395 27.492969512939453 C 7.534740924835205 27.705951690673828 7.637404918670654 27.902353286743164 7.799043655395508 28.04296875 C 8.061543464660645 28.29296875 8.199043273925781 28.305469512939453 10.861543655395508 28.29296875 C 13.961544036865234 28.280467987060547 14.136543273925781 28.242969512939453 14.136543273925781 27.54296875 C 14.133127212524414 27.299955368041992 14.064018249511719 27.062393188476562 13.936543464660645 26.85546875 C 13.836544036865234 26.705469131469727 13.774044036865234 26.530467987060547 13.811543464660645 26.467967987060547 C 13.899044036865234 26.330469131469727 13.499043464660645 24.91796875 13.349043846130371 24.817968368530273 C 13.276368141174316 24.751039505004883 13.256061553955078 24.644428253173828 13.299043655395508 24.555469512939453 C 13.374043464660645 24.342967987060547 13.186543464660645 23.267969131469727 12.986543655395508 22.867969512939453 C 12.916293144226074 22.756397247314453 12.893775939941406 22.621294021606445 12.924043655395508 22.492969512939453 C 12.961544036865234 22.442968368530273 12.936543464660645 22.142969131469727 12.874043464660645 21.830469131469727 C 12.536543846130371 20.130468368530273 12.374043464660645 17.642969131469727 12.386543273925781 14.392969131469727 C 12.386543273925781 11.567968368530273 12.436543464660645 10.48046875 12.611543655395508 9.392969131469727 C 12.667335510253906 9.092209815979004 12.688307762145996 8.786026000976562 12.674043655395508 8.48046875 C 12.639242172241211 8.372513771057129 12.662898063659668 8.254234313964844 12.736543655395508 8.16796875 C 12.811543464660645 8.092968940734863 12.936543464660645 7.655468940734863 13.024044036865234 7.205468654632568 C 13.186543464660645 6.392968654632568 13.411543846130371 5.955468654632568 13.999043464660645 5.29296875 C 14.261543273925781 5.005468845367432 14.374043464660645 4.967968940734863 14.749043464660645 5.030468940734863 C 15.064209938049316 5.086073398590088 15.373775482177734 5.169739723205566 15.674043655395508 5.280468940734863 C 15.924043655395508 5.367968559265137 16.13654327392578 5.41796875 16.13654327392578 5.367968559265137 C 16.13654327392578 5.317968845367432 16.461544036865234 5.592968940734863 16.861543655395508 5.967968940734863 C 17.24904441833496 6.35546875 17.674043655395508 6.705468654632568 17.799043655395508 6.742968559265137 C 17.911317825317383 6.786728382110596 17.99212074279785 6.886544227600098 18.01154327392578 7.005468845367432 C 18.01154327392578 7.23046875 18.74904441833496 7.85546875 18.93654441833496 7.79296875 C 19.057950973510742 7.719303607940674 19.153911590576172 7.610256195068359 19.211544036865234 7.48046875 C 19.30225372314453 7.306885719299316 19.41120147705078 7.143463134765625 19.536542892456055 6.992968559265137 C 19.836544036865234 6.655468940734863 20.26154327392578 5.742968559265137 20.26154327392578 5.455468654632568 C 20.26154327392578 5.317968845367432 20.31154441833496 5.205468654632568 20.37404441833496 5.205468654632568 C 20.536542892456055 5.205468654632568 20.87404441833496 4.130468845367432 20.94904327392578 3.367968797683716 C 21.01154327392578 2.7679686546325684 20.974042892456055 2.680468797683716 20.62404441833496 2.2679686546325684 C 20.411542892456055 2.030468702316284 20.161542892456055 1.830468773841858 20.07404327392578 1.830468773841858 C 19.936796188354492 1.8067538738250732 19.81020736694336 1.7412766218185425 19.711544036865234 1.642968773841858 C 19.461544036865234 1.380468726158142 18.43654441833496 0.9554687738418579 18.07404327392578 0.9554687738418579 C 17.945369720458984 0.9641806483268738 17.81755256652832 0.9289207458496094 17.711544036865234 0.85546875 C 17.63654327392578 0.742968738079071 16.361543655395508 0.43046873807907104 16.18654441833496 0.48046875 C 15.997528076171875 0.4697282314300537 15.81163501739502 0.4274798333644867 15.636543273925781 0.35546875 C 15.228265762329102 0.23964929580688477 14.809581756591797 0.16428618133068085 14.386543273925781 0.13046875596046448 C 13.236543655395508 0.03046875074505806 8.436543464660645 -0.04453124850988388 8.361543655395508 0.03046875074505806" stroke-width="0.0" fill="rgb(0, 0, 0)" opacity="1.0"/>
  </g>
</svg>
