<?xml version="1.0" ?>
<svg xmlns="http://www.w3.org/2000/svg" version="1.1" width="600" height="600">
  <defs/>
  <g>
    <path d="M 1.567425012588501 0.15128624439239502 C 1.489922046661377 0.22847600281238556 1.441366195678711 0.33000171184539795 1.4299249649047852 0.43878623843193054 C 1.4107223749160767 0.5535539388656616 1.3480503559112549 0.6565150022506714 1.254925012588501 0.7262862324714661 C 1.067425012588501 0.888786256313324 0.754925012588501 2.0137863159179688 0.7799249887466431 2.426286220550537 C 0.7847684025764465 2.564152479171753 0.7453439831733704 2.6999478340148926 0.6674249768257141 2.813786268234253 C 0.6049249768257141 2.9012863636016846 0.517425000667572 3.363786220550537 0.49242499470710754 3.863786220550537 C 0.4784025549888611 4.204127311706543 0.4365968108177185 4.54275369644165 0.36742499470710754 4.876286029815674 C 0.2924250066280365 4.988786220550537 0.254925012588501 5.451286315917969 0.09242500364780426 8.488786697387695 C -0.13257500529289246 12.388786315917969 0.07992500066757202 18.526287078857422 0.442425012588501 18.751285552978516 C 0.517425000667572 18.788785934448242 0.5424249768257141 18.938785552978516 0.504925012588501 19.063785552978516 C 0.4174250066280365 19.338787078857422 0.7174249887466431 20.538785934448242 0.9299250245094299 20.801286697387695 C 1.0040611028671265 20.88216209411621 1.0322799682617188 20.995037078857422 1.004925012588501 21.101285934448242 C 0.9049249887466431 21.251285552978516 1.3674249649047852 22.45128631591797 1.6174249649047852 22.70128631591797 C 1.717424988746643 22.801286697387695 1.779924988746643 22.938785552978516 1.7424249649047852 22.988786697387695 C 1.654924988746643 23.126285552978516 2.4049251079559326 24.488786697387695 2.567425012588501 24.488786697387695 C 2.629925012588501 24.488786697387695 2.754925012588501 24.676286697387695 2.8424251079559326 24.901287078857422 C 3.017425060272217 25.301286697387695 3.829925060272217 26.113786697387695 4.054924964904785 26.113786697387695 C 4.129924774169922 26.113786697387695 4.179924964904785 26.188785552978516 4.179924964904785 26.288785934448242 C 4.179924964904785 26.488786697387695 4.9674248695373535 27.051286697387695 5.5299248695373535 27.251285552978516 C 5.742424964904785 27.32628631591797 5.929924964904785 27.426286697387695 5.929924964904785 27.488786697387695 C 5.929924964904785 27.626285552978516 7.0299248695373535 28.026287078857422 7.417425155639648 28.01378631591797 C 7.5924248695373535 28.01378631591797 7.7799248695373535 28.07628631591797 7.829925060272217 28.151287078857422 C 7.867424964904785 28.226285934448242 8.317424774169922 28.301286697387695 8.829924583435059 28.313785552978516 C 9.329924583435059 28.32628631591797 9.829924583435059 28.376285552978516 9.942424774169922 28.426286697387695 C 10.242424964904785 28.538785934448242 12.904925346374512 28.13878631591797 13.354925155639648 27.913785934448242 C 13.575304985046387 27.797866821289062 13.810972213745117 27.713701248168945 14.054924964904785 27.663785934448242 C 14.429924964904785 27.588787078857422 15.179924964904785 27.151287078857422 15.404925346374512 26.876285552978516 C 15.470551490783691 26.779674530029297 15.567793846130371 26.708953857421875 15.679924964904785 26.676286697387695 C 15.879924774169922 26.676286697387695 16.9299259185791 25.726285934448242 16.9299259185791 25.551286697387695 C 16.959964752197266 25.41383171081543 17.052417755126953 25.29826545715332 17.1799259185791 25.238786697387695 C 17.4299259185791 25.101285934448242 18.092424392700195 24.07628631591797 18.142425537109375 23.751285552978516 C 18.153106689453125 23.6499080657959 18.20800018310547 23.55841827392578 18.29242515563965 23.501285552978516 C 18.41742515563965 23.413785934448242 18.9924259185791 22.151287078857422 19.004924774169922 21.926286697387695 C 19.053678512573242 21.719139099121094 19.124935150146484 21.517942428588867 19.217424392700195 21.32628631591797 C 19.361621856689453 20.986114501953125 19.462413787841797 20.629140853881836 19.517425537109375 20.26378631591797 C 19.538888931274414 20.014680862426758 19.597888946533203 19.770252227783203 19.692424774169922 19.538785934448242 C 19.817424774169922 19.38878631591797 19.9924259185791 18.13878631591797 20.1799259185791 16.113786697387695 C 20.254924774169922 15.388786315917969 20.279924392700195 12.863786697387695 20.2424259185791 10.426286697387695 C 20.192424774169922 5.9137864112854 20.1174259185791 4.451286315917969 19.942424774169922 3.801286220550537 C 19.87754249572754 3.5774483680725098 19.839773178100586 3.3466296195983887 19.829925537109375 3.113786220550537 C 19.817424774169922 2.626286268234253 19.66742515563965 1.9512861967086792 19.517425537109375 1.676286220550537 C 19.433378219604492 1.5119706392288208 19.378400802612305 1.3343501091003418 19.35492515563965 1.151286244392395 C 19.279924392700195 0.5387862324714661 18.442424774169922 -0.22371375560760498 18.22992515563965 0.12628625333309174 Q 18.154924392700195 0.2387862503528595 18.004924774169922 0.12628625333309174 C 17.767425537109375 -0.0737137496471405 14.429924964904785 -0.023713750764727592 14.117424964904785 0.18878625333309174 C 13.967425346374512 0.28878626227378845 13.804924964904785 0.326286256313324 13.742424964904785 0.276286244392395 C 13.579924583435059 0.1137862503528595 13.779925346374512 1.501286268234253 13.967425346374512 1.7887862920761108 C 14.076045989990234 1.9622174501419067 14.140429496765137 2.1596620082855225 14.154925346374512 2.363786220550537 C 14.154925346374512 2.7762863636016846 14.417425155639648 3.7637863159179688 14.579924583435059 3.9512863159179688 C 14.658496856689453 4.055202484130859 14.6774320602417 4.192480087280273 14.629924774169922 4.313786029815674 C 14.592425346374512 4.4137864112854 14.629924774169922 4.9137864112854 14.729925155639648 5.4012861251831055 C 15.04763126373291 7.137058258056641 15.198319435119629 8.899273872375488 15.179924964904785 10.663785934448242 C 15.179924964904785 11.363786697387695 15.242424964904785 11.976285934448242 15.317424774169922 12.063786506652832 C 15.38858413696289 12.141334533691406 15.412467002868652 12.251194953918457 15.379924774169922 12.351285934448242 C 15.304924964904785 12.451286315917969 15.179924964904785 14.363786697387695 15.129924774169922 15.926286697387695 C 15.128337860107422 16.137557983398438 15.098917961120605 16.347700119018555 15.042425155639648 16.551286697387695 C 14.954924583435059 16.676286697387695 14.779925346374512 17.588787078857422 14.742424964904785 18.051286697387695 C 14.656967163085938 18.396400451660156 14.535466194152832 18.731576919555664 14.379924774169922 19.051286697387695 C 14.220407485961914 19.35904884338379 14.090651512145996 19.681346893310547 13.992424964904785 20.01378631591797 C 13.935258865356445 20.178653717041016 13.841201782226562 20.328289031982422 13.717425346374512 20.45128631591797 C 13.592425346374512 20.588787078857422 13.292425155639648 20.913785934448242 13.054924964904785 21.188785552978516 C 12.704924583435059 21.57628631591797 12.392424583435059 21.751285552978516 11.617424964904785 22.01378631591797 C 11.017424583435059 22.213787078857422 10.467425346374512 22.32628631591797 10.242424964904785 22.288785934448242 C 9.404925346374512 22.151287078857422 8.729925155639648 21.938785552978516 8.542425155639648 21.751285552978516 C 8.442424774169922 21.63878631591797 8.129924774169922 21.351285934448242 7.854925155639648 21.101285934448242 C 7.429924964904785 20.726285934448242 6.417425155639648 18.976285934448242 6.367424964904785 18.551286697387695 C 6.262650966644287 18.001834869384766 6.124902248382568 17.459186553955078 5.954925060272217 16.926286697387695 C 5.888838768005371 16.685670852661133 5.851083278656006 16.438161849975586 5.8424248695373535 16.188785552978516 C 5.8179779052734375 15.835609436035156 5.767845630645752 15.484681129455566 5.692424774169922 15.138786315917969 C 5.617808818817139 14.89191722869873 5.596505165100098 14.632010459899902 5.629924774169922 14.376286506652832 C 5.6595611572265625 14.033927917480469 5.642742156982422 13.68913459777832 5.579925060272217 13.351285934448242 C 5.514447212219238 12.837122917175293 5.5060625076293945 12.317293167114258 5.554924964904785 11.801286697387695 C 5.604925155639648 11.313786506652832 5.5924248695373535 10.863786697387695 5.542425155639648 10.801286697387695 C 5.488530158996582 10.701277732849121 5.498315811157227 10.578954696655273 5.567424774169922 10.488786697387695 C 5.629924774169922 10.388786315917969 5.679924964904785 9.901286125183105 5.679924964904785 9.426286697387695 C 5.681346893310547 8.88227367401123 5.723128318786621 8.339116096496582 5.804924964904785 7.801286220550537 C 5.879924774169922 7.388786315917969 5.917425155639648 6.926286220550537 5.867424964904785 6.7762861251831055 C 5.829925060272217 6.626286029815674 5.854925155639648 6.4762864112854 5.917425155639648 6.438786029815674 C 6.0299248695373535 6.363786220550537 6.254924774169922 5.076286315917969 6.204925060272217 4.688786029815674 C 6.192049026489258 4.5575642585754395 6.222803592681885 4.4257588386535645 6.292425155639648 4.313786029815674 C 6.442424774169922 4.113786220550537 6.7174248695373535 2.863786220550537 6.629924774169922 2.7762863636016846 C 6.5924248695373535 2.7262861728668213 6.629924774169922 2.5762863159179688 6.7174248695373535 2.438786268234253 C 7.192424774169922 1.688786268234253 7.2799248695373535 0.263786256313324 6.854925155639648 0.1137862503528595 C 6.454925060272217 -0.036213748157024384 1.717424988746643 0.0012862499570474029 1.567425012588501 0.15128624439239502" stroke-width="0.0" fill="rgb(0, 0, 0)" opacity="1.0"/>
  </g>
</svg>
