<?xml version="1.0" ?>
<svg xmlns="http://www.w3.org/2000/svg" version="1.1" width="600" height="600">
  <defs/>
  <g>
    <path d="M 1.4636625051498413 0.12048999965190887 C 1.1011625528335571 0.24548999965190887 0.6761624813079834 0.8329899907112122 0.6761624813079834 1.1829899549484253 C 0.6761624813079834 1.3454899787902832 0.6261625289916992 1.482990026473999 0.5636625289916992 1.482990026473999 C 0.41366249322891235 1.482990026473999 0.1511625051498413 2.8954899311065674 0.25116249918937683 3.157989978790283 C 0.2890127897262573 3.2917423248291016 0.2611849009990692 3.4355196952819824 0.1761624962091446 3.545490026473999 C 0.05116249993443489 3.682990074157715 0.01366250030696392 4.6454901695251465 0.0011625000042840838 7.2704901695251465 C -0.01133750006556511 10.720490455627441 0.07616250216960907 12.420490264892578 0.3011625111103058 13.170490264892578 C 0.38210755586624146 13.541622161865234 0.4405474364757538 13.917306900024414 0.47616249322891235 14.295490264892578 C 0.5261625051498413 14.707989692687988 0.6386625170707703 15.170490264892578 0.7511625289916992 15.332989692687988 C 0.8511624932289124 15.482990264892578 0.9011625051498413 15.670490264892578 0.8636624813079834 15.732990264892578 C 0.7761625051498413 15.882989883422852 1.1886625289916992 17.357990264892578 1.3261624574661255 17.357990264892578 C 1.3761625289916992 17.357990264892578 1.4261624813079834 17.4954891204834 1.4261624813079834 17.670490264892578 C 1.4261624813079834 18.032989501953125 1.7636624574661255 18.957990646362305 2.013662576675415 19.2454891204834 C 2.108701467514038 19.3631591796875 2.165412425994873 19.507116317749023 2.1761624813079834 19.657989501953125 C 2.1761624813079834 19.832990646362305 2.438662528991699 20.395490646362305 2.9136624336242676 21.232990264892578 C 2.9636623859405518 21.332990646362305 3.126162528991699 21.645490646362305 3.251162528991699 21.920490264892578 C 3.4128811359405518 22.24431800842285 3.614443778991699 22.546661376953125 3.8511624336242676 22.82048988342285 C 4.038662433624268 23.045490264892578 4.163662433624268 23.232990264892578 4.1136627197265625 23.232990264892578 C 3.9886624813079834 23.232990264892578 4.838662624359131 24.3704891204834 5.1136627197265625 24.5579891204834 C 5.251162528991699 24.657989501953125 5.3636627197265625 24.782989501953125 5.3636627197265625 24.832990646362305 C 5.3636627197265625 25.020490646362305 6.338662624359131 26.107990264892578 6.513662338256836 26.107990264892578 C 6.626293182373047 26.126224517822266 6.721149444580078 26.20210838317871 6.763662338256836 26.3079891204834 C 6.8636627197265625 26.582990646362305 7.6761627197265625 27.332990646362305 7.9886627197265625 27.4329891204834 C 8.145956039428711 27.496253967285156 8.283886909484863 27.599700927734375 8.388662338256836 27.732990264892578 C 8.576162338256836 28.00798988342285 9.663662910461426 28.657989501953125 9.763662338256836 28.5579891204834 C 9.801162719726562 28.520490646362305 9.9386625289917 28.545490264892578 10.076162338256836 28.6204891204834 C 10.263662338256836 28.720489501953125 10.463662147521973 28.6829891204834 10.988662719726562 28.4329891204834 C 11.351162910461426 28.2454891204834 11.6886625289917 28.020490646362305 11.726162910461426 27.920490264892578 C 11.76031494140625 27.820913314819336 11.847058296203613 27.748626708984375 11.951162338256836 27.732990264892578 C 12.138662338256836 27.732990264892578 14.551162719726562 25.295490264892578 14.551162719726562 25.107990264892578 C 14.551162719726562 25.032989501953125 14.763662338256836 24.770490646362305 15.038662910461426 24.4954891204834 C 15.326316833496094 24.200899124145508 15.566658973693848 23.863574981689453 15.7511625289917 23.4954891204834 C 15.8761625289917 23.220489501953125 16.013662338256836 22.982990264892578 16.063661575317383 22.982990264892578 C 16.201162338256836 22.982990264892578 16.926162719726562 21.795490264892578 16.926162719726562 21.582990646362305 C 16.944368362426758 21.44114112854004 17.0158748626709 21.311534881591797 17.126161575317383 21.220489501953125 C 17.363662719726562 21.032989501953125 17.938661575317383 19.920490264892578 17.85116195678711 19.82048988342285 C 17.813661575317383 19.795490264892578 17.91366195678711 19.57048988342285 18.076162338256836 19.332990646362305 C 18.26982307434082 19.023807525634766 18.42513084411621 18.692201614379883 18.53866195678711 18.345489501953125 C 18.616809844970703 18.076866149902344 18.712858200073242 17.813777923583984 18.826162338256836 17.5579891204834 C 19.076162338256836 17.082990646362305 19.388662338256836 16.045490264892578 19.326162338256836 15.870490074157715 C 19.29776382446289 15.77966022491455 19.327455520629883 15.680688858032227 19.40116310119629 15.620490074157715 C 19.563661575317383 15.520489692687988 19.926162719726562 14.132989883422852 19.83866310119629 13.907990455627441 C 19.807207107543945 13.789989471435547 19.83519172668457 13.6640625 19.91366195678711 13.570489883422852 C 20.388662338256836 12.982990264892578 20.52616310119629 4.745490074157715 20.063661575317383 3.8829898834228516 C 19.99018669128418 3.7132787704467773 19.951913833618164 3.5304224491119385 19.951162338256836 3.345489978790283 C 19.96366310119629 2.845489978790283 19.66366195678711 1.732990026473999 19.53866195678711 1.732990026473999 C 19.47616195678711 1.732990026473999 19.426162719726562 1.607990026473999 19.426162719726562 1.4704899787902832 C 19.426162719726562 1.045490026473999 18.91366195678711 0.2579900026321411 18.563661575317383 0.1329900026321411 C 18.138662338256836 -0.017009999603033066 14.1886625289917 -0.054510001093149185 13.863662719726562 0.095490001142025 C 13.726162910461426 0.1579899936914444 13.513662338256836 0.24548999965190887 13.401162147521973 0.2829900085926056 C 13.088662147521973 0.3829900026321411 13.113662719726562 1.0704900026321411 13.451162338256836 1.607990026473999 C 13.6712064743042 2.004908323287964 13.85930061340332 2.418715715408325 14.013662338256836 2.845489978790283 C 14.176162719726562 3.295490026473999 14.363662719726562 3.6954898834228516 14.4386625289917 3.745490074157715 C 14.517866134643555 3.802215576171875 14.556896209716797 3.899789810180664 14.538662910461426 3.995490074157715 C 14.488662719726562 4.23298978805542 14.801162719726562 5.507989883422852 14.951162338256836 5.695489883422852 C 15.025046348571777 5.786549091339111 15.048502922058105 5.908522129058838 15.013662338256836 6.0204901695251465 C 14.999165534973145 6.301174640655518 15.020164489746094 6.582566261291504 15.076162338256836 6.85798978805542 C 15.288662910461426 8.157990455627441 15.4386625289917 11.907990455627441 15.276162147521973 12.170490264892578 C 15.1886625289917 12.332989692687988 15.0011625289917 13.620490074157715 15.038662910461426 13.832989692687988 C 15.048489570617676 13.94433307647705 15.017379760742188 14.055438995361328 14.951162338256836 14.145489692687988 C 14.8136625289917 14.307990074157715 14.538662910461426 15.245490074157715 14.476162910461426 15.720490455627441 C 14.463662147521973 15.882989883422852 14.401162147521973 16.0579891204834 14.338662147521973 16.095489501953125 C 14.201162338256836 16.1829891204834 13.676162719726562 17.457990646362305 13.676162719726562 17.6829891204834 C 13.664900779724121 17.790706634521484 13.605055809020996 17.887378692626953 13.513662338256836 17.94548988342285 C 13.338662147521973 18.0579891204834 12.663662910461426 19.07048988342285 12.6261625289917 19.282989501953125 C 12.601162910461426 19.420490264892578 11.051162719726562 21.020490646362305 10.926162719726562 21.045490264892578 C 10.888662338256836 21.0579891204834 10.6886625289917 21.095489501953125 10.488662719726562 21.145490646362305 C 10.076162338256836 21.2454891204834 9.301162719726562 20.957990646362305 9.301162719726562 20.707990646362305 C 9.301162719726562 20.63298988342285 9.151162147521973 20.395490646362305 8.963662147521973 20.170490264892578 C 8.201162338256836 19.282989501953125 8.113662719726562 19.157989501953125 7.976162433624268 18.845489501953125 C 7.888662338256836 18.670490264892578 7.6761627197265625 18.282989501953125 7.476162433624268 17.970489501953125 C 7.2248616218566895 17.53550910949707 7.011569976806641 17.07965087890625 6.838662624359131 16.607990264892578 C 6.688662528991699 16.157989501953125 6.501162528991699 15.782990455627441 6.4261627197265625 15.757989883422852 C 6.3636627197265625 15.732990264892578 6.3011627197265625 15.557990074157715 6.3011627197265625 15.370490074157715 C 6.259433269500732 15.000815391540527 6.179849147796631 14.636404037475586 6.063662528991699 14.282990455627441 C 5.908613681793213 13.777231216430664 5.799833297729492 13.258432388305664 5.7386627197265625 12.732990264892578 C 5.714365482330322 12.420148849487305 5.659946918487549 12.110381126403809 5.576162338256836 11.807990074157715 C 5.4261627197265625 11.557990074157715 5.576162338256836 7.85798978805542 5.788662433624268 6.495490074157715 C 5.851162433624268 6.04548978805542 5.888662338256836 5.6454901695251465 5.851162433624268 5.595489978790283 C 5.813662528991699 5.532989978790283 5.851162433624268 5.3954901695251465 5.913662433624268 5.2704901695251465 C 6.076162338256836 4.98298978805542 6.3011627197265625 3.9579899311065674 6.3011627197265625 3.557990074157715 C 6.3011627197265625 3.3829898834228516 6.351162433624268 3.232990026473999 6.401162624359131 3.232990026473999 C 6.513662338256836 3.232990026473999 6.9886627197265625 1.8704899549484253 6.951162338256836 1.6954900026321411 C 6.967345714569092 1.5572491884231567 7.023860931396484 1.4268295764923096 7.1136627197265625 1.3204900026321411 C 7.538662433624268 0.7204899787902832 7.263662338256836 0.1329900026321411 6.526162624359131 0.095490001142025 C 5.126162528991699 0.032990001142024994 1.6511625051498413 0.045490000396966934 1.4636625051498413 0.12048999965190887" stroke-width="0.0" fill="rgb(0, 0, 0)" opacity="1.0"/>
  </g>
</svg>
