<?xml version="1.0" ?>
<svg xmlns="http://www.w3.org/2000/svg" version="1.1" width="600" height="600">
  <defs/>
  <g>
    <path d="M 2.2947587966918945 0.09906125068664551 C 1.957258701324463 0.14906124770641327 1.6322587728500366 0.24906125664710999 1.5572587251663208 0.32406124472618103 C 1.3572587966918945 0.5240612626075745 1.2947587966918945 2.074061155319214 1.4447587728500366 2.824061155319214 C 1.5275400876998901 3.228527069091797 1.585978388786316 3.6375954151153564 1.6197587251663208 4.049061298370361 C 1.6500385999679565 4.421747207641602 1.7342497110366821 4.7880659103393555 1.8697587251663208 5.136561393737793 C 1.9822587966918945 5.374061107635498 2.069758653640747 5.624061107635498 2.0447587966918945 5.686561107635498 C 1.9947587251663208 5.886561393737793 2.444758653640747 7.08656120300293 2.644758701324463 7.236561298370361 C 2.7418689727783203 7.334509372711182 2.80346417427063 7.462099075317383 2.819758653640747 7.599061012268066 C 2.819758653640747 7.861561298370361 3.5447587966918945 9.111560821533203 3.694758653640747 9.111560821533203 C 3.769758701324463 9.111560821533203 3.819758653640747 9.199061393737793 3.819758653640747 9.311561584472656 C 3.819758653640747 9.561561584472656 4.707258701324463 10.724061012268066 4.894758701324463 10.736560821533203 C 4.9822587966918945 10.736560821533203 5.069758892059326 10.861560821533203 5.119758605957031 11.011561393737793 C 5.157258987426758 11.174060821533203 5.444758892059326 11.574061393737793 5.769758701324463 11.924060821533203 C 6.332258701324463 12.52406120300293 6.3572587966918945 12.58656120300293 6.369758605957031 13.311561584472656 C 6.382258892059326 14.074061393737793 6.382258892059326 14.074061393737793 5.6697587966918945 14.849061012268066 C 5.269758701324463 15.27406120300293 4.944758892059326 15.71156120300293 4.944758892059326 15.811561584472656 C 4.948441505432129 15.904510498046875 4.876077175140381 15.9828462600708 4.783128261566162 15.986529350280762 C 4.782838344573975 15.986540794372559 4.782548427581787 15.986551284790039 4.782258987426758 15.986560821533203 C 4.582258701324463 15.986560821533203 3.757258653640747 16.949060440063477 3.644758701324463 17.324060440063477 C 3.6074600219726562 17.461082458496094 3.517627477645874 17.577863693237305 3.394758701324463 17.64906120300293 C 3.1572587490081787 17.736560821533203 2.444758653640747 18.786561965942383 2.444758653640747 19.036561965942383 C 2.444758653640747 19.14906120300293 2.394758701324463 19.236560821533203 2.319758653640747 19.236560821533203 C 2.1572587490081787 19.236560821533203 1.5447587966918945 20.324060440063477 1.4947587251663208 20.686561584472656 C 1.4748955965042114 20.869239807128906 1.3958865404129028 21.04042625427246 1.269758701324463 21.174060821533203 C 1.087686538696289 21.454450607299805 0.952578604221344 21.762664794921875 0.8697587251663208 22.08656120300293 C 0.7572587728500366 22.474061965942383 0.6197587251663208 22.911561965942383 0.5572587251663208 23.049060821533203 C 0.3697587549686432 23.499061584472656 0.19475874304771423 24.46156120300293 0.26975876092910767 24.674060821533203 C 0.31005507707595825 24.792007446289062 0.29146823287010193 24.922115325927734 0.2197587490081787 25.02406120300293 C 0.14475874602794647 25.111560821533203 0.05725875124335289 25.699060440063477 0.03225874900817871 26.324060440063477 C -0.05524124950170517 27.986560821533203 -0.14274124801158905 27.924060821533203 2.3447587490081787 27.949060440063477 C 4.694758892059326 27.974061965942383 5.319758892059326 27.874061584472656 5.319758892059326 27.449060440063477 C 5.31712532043457 27.30185317993164 5.3608551025390625 27.15754508972168 5.444758892059326 27.036561965942383 C 5.519758701324463 26.96156120300293 5.582258701324463 26.52406120300293 5.6072587966918945 26.036561965942383 C 5.619758605957031 25.561561584472656 5.6697587966918945 25.111560821533203 5.719758987426758 25.049060821533203 C 5.807258605957031 24.886560440063477 5.994758605957031 23.599061965942383 5.957258701324463 23.386560440063477 C 5.947431564331055 23.275218963623047 5.978541374206543 23.164112091064453 6.0447587966918945 23.074060440063477 C 6.219758987426758 22.849061965942383 6.569758892059326 21.736560821533203 6.569758892059326 21.411561965942383 C 6.569758892059326 21.261560440063477 6.619758605957031 21.111560821533203 6.682258605957031 21.08656120300293 C 6.7947587966918945 21.049060821533203 7.444758892059326 19.811561584472656 7.444758892059326 19.636560440063477 C 7.444758892059326 19.561561584472656 7.707258701324463 19.236560821533203 8.019759178161621 18.911561965942383 C 8.332259178161621 18.574060440063477 8.632258415222168 18.174060821533203 8.694758415222168 18.011560440063477 C 8.757258415222168 17.861560821533203 8.857258796691895 17.749061584472656 8.907258987426758 17.761560440063477 C 8.969758987426758 17.77406120300293 9.194758415222168 17.686561584472656 9.419758796691895 17.574060440063477 C 9.707259178161621 17.411561965942383 9.882258415222168 17.386560440063477 10.057258605957031 17.474061965942383 C 10.182258605957031 17.549060821533203 10.319758415222168 17.574060440063477 10.357258796691895 17.52406120300293 C 10.407258987426758 17.486560821533203 10.482258796691895 17.561561584472656 10.519759178161621 17.686561584472656 C 10.706931114196777 18.023469924926758 10.920076370239258 18.34527587890625 11.157258987426758 18.64906120300293 C 11.457259178161621 19.036561965942383 11.694758415222168 19.424060821533203 11.694758415222168 19.486560821533203 C 11.694758415222168 19.561561584472656 11.869758605957031 19.986560821533203 12.094758987426758 20.449060440063477 C 12.319758415222168 20.924060821533203 12.482258796691895 21.349061965942383 12.469758987426758 21.39906120300293 C 12.508748054504395 21.71793556213379 12.57994556427002 22.032039642333984 12.682258605957031 22.33656120300293 C 12.839092254638672 22.90622901916504 12.951924324035645 23.487106323242188 13.019759178161621 24.074060440063477 C 13.057258605957031 24.574060440063477 13.132258415222168 24.986560821533203 13.182258605957031 24.986560821533203 C 13.219758987426758 24.986560821533203 13.269759178161621 25.39906120300293 13.269759178161621 25.886560440063477 C 13.282258987426758 27.074060440063477 13.407258987426758 27.58656120300293 13.744758605957031 27.799060821533203 C 14.069758415222168 27.999061584472656 18.782258987426758 28.049060821533203 19.032258987426758 27.83656120300293 C 19.109455108642578 27.774208068847656 19.213054656982422 27.755373001098633 19.30725860595703 27.786561965942383 C 19.382259368896484 27.83656120300293 19.49475860595703 27.749061584472656 19.569759368896484 27.611560821533203 C 19.757259368896484 27.261560440063477 19.632259368896484 24.224061965942383 19.43225860595703 24.099061965942383 C 19.34379768371582 24.03209114074707 19.312786102294922 23.9132080078125 19.357257843017578 23.811561584472656 C 19.457258224487305 23.574060440063477 19.219758987426758 22.374061584472656 19.044757843017578 22.14906120300293 C 18.9613037109375 22.016931533813477 18.90993309020996 21.867101669311523 18.894758224487305 21.71156120300293 C 18.844758987426758 21.224061965942383 18.43225860595703 20.111560821533203 18.30725860595703 20.111560821533203 C 18.24475860595703 20.111560821533203 18.194759368896484 19.999061584472656 18.194759368896484 19.861560821533203 C 18.194759368896484 19.561561584472656 17.769758224487305 18.661561965942383 17.469758987426758 18.324060440063477 C 17.365943908691406 18.213926315307617 17.2889461517334 18.08131980895996 17.24475860595703 17.936561584472656 C 17.207258224487305 17.699060440063477 16.569759368896484 16.699060440063477 16.344758987426758 16.511560440063477 C 16.23581886291504 16.436607360839844 16.15629005432129 16.326148986816406 16.11975860595703 16.199060440063477 C 16.094758987426758 15.986560821533203 15.294758796691895 14.861560821533203 15.182258605957031 14.861560821533203 C 15.032258987426758 14.861560821533203 14.619758605957031 13.874061584472656 14.532258987426758 13.33656120300293 C 14.482258796691895 13.036561012268066 14.519759178161621 12.83656120300293 14.607258796691895 12.77406120300293 C 14.844758987426758 12.611560821533203 15.694758415222168 11.52406120300293 15.694758415222168 11.374061584472656 C 15.711359977722168 11.273143768310547 15.78419303894043 11.190598487854004 15.882258415222168 11.161561012268066 C 16.132259368896484 11.061561584472656 16.944759368896484 9.936561584472656 16.944759368896484 9.686561584472656 C 16.944759368896484 9.574061393737793 16.99475860595703 9.486560821533203 17.069759368896484 9.486560821533203 C 17.219758987426758 9.486560821533203 17.957258224487305 8.049060821533203 17.857257843017578 7.936561107635498 C 17.819759368896484 7.89906120300293 17.86975860595703 7.761561393737793 17.969758987426758 7.64906120300293 C 18.207258224487305 7.386561393737793 18.594758987426758 6.124061107635498 18.49475860595703 5.96156120300293 C 18.462331771850586 5.865429401397705 18.486467361450195 5.759234428405762 18.55725860595703 5.686561107635498 C 18.732257843017578 5.474061012268066 18.944759368896484 3.4115612506866455 18.93225860595703 2.0240612030029297 C 18.907258987426758 0.5865612626075745 18.594758987426758 -0.03843874856829643 18.007259368896484 0.18656125664710999 C 17.88998794555664 0.2332085818052292 17.756776809692383 0.2141783982515335 17.657258987426758 0.13656124472618103 C 17.407258987426758 -0.07593874633312225 14.144759178161621 -0.025938749313354492 13.694758415222168 0.18656125664710999 L 13.319758415222168 0.37406125664711 L 13.319758415222168 2.3365612030029297 C 13.319758415222168 4.08656120300293 13.144759178161621 5.824061393737793 12.907258987426758 6.361561298370361 C 12.682258605957031 6.874061107635498 12.444758415222168 7.674061298370361 12.444758415222168 7.924061298370361 C 12.444758415222168 8.08656120300293 12.394759178161621 8.236560821533203 12.344758987426758 8.261561393737793 C 12.219758987426758 8.311561584472656 11.444758415222168 9.574061393737793 11.444758415222168 9.736560821533203 C 11.444758415222168 9.799060821533203 11.244758605957031 9.886561393737793 11.007258415222168 9.936561584472656 C 10.657258987426758 9.999061584472656 10.507258415222168 9.949061393737793 10.182258605957031 9.674060821533203 C 9.897296905517578 9.410131454467773 9.65671443939209 9.102017402648926 9.469758987426758 8.761561393737793 C 9.307258605957031 8.436561584472656 9.082259178161621 8.036561012268066 8.969758987426758 7.861561298370361 C 8.864718437194824 7.7116007804870605 8.79232406616211 7.541261672973633 8.757258415222168 7.361561298370361 C 8.653580665588379 6.893754005432129 8.51570987701416 6.4341864585876465 8.344758987426758 5.986561298370361 C 8.207259178161621 5.636561393737793 7.944758892059326 3.9240612983703613 7.869758605957031 2.9240612983703613 C 7.832258701324463 2.374061346054077 7.757258892059326 1.8740612268447876 7.707258701324463 1.8240612745285034 C 7.644758701324463 1.7615612745285034 7.619758605957031 1.5115612745285034 7.657258987426758 1.2615612745285034 C 7.691971778869629 0.988502025604248 7.666370391845703 0.7111520767211914 7.582258701324463 0.44906124472618103 C 7.469758987426758 0.17406125366687775 7.369758605957031 0.09906125068664551 7.0447587966918945 0.09906125068664551 C 6.819758892059326 0.09906125068664551 5.7947587966918945 0.07406125217676163 4.757258892059326 0.06156124919652939 C 3.7322587966918945 0.03656125068664551 2.6197588443756104 0.06156124919652939 2.2947587966918945 0.09906125068664551" stroke-width="0.0" fill="rgb(0, 0, 0)" opacity="1.0"/>
  </g>
</svg>
