<?xml version="1.0" ?>
<svg xmlns="http://www.w3.org/2000/svg" version="1.1" width="600" height="600">
  <defs/>
  <g>
    <path d="M 1.7241250276565552 0.10077749937772751 C 1.5656565427780151 0.16600264608860016 1.390549659729004 0.17913566529750824 1.2241250276565552 0.13827750086784363 C 0.7491250038146973 0.05077749863266945 0.18662500381469727 0.5507774949073792 0.1991250067949295 1.050777554512024 C 0.20488093793392181 1.269887089729309 0.16219881176948547 1.4875658750534058 0.07412499934434891 1.6882774829864502 C -0.18837499618530273 2.213277578353882 0.29912498593330383 6.313277721405029 0.7116249799728394 7.113277435302734 C 0.8491250276565552 7.363277435302734 0.9366250038146973 7.600777626037598 0.8991249799728394 7.638277530670166 C 0.7991250157356262 7.725777626037598 1.3116250038146973 8.975777626037598 1.5491249561309814 9.238277435302734 C 1.6616250276565552 9.375777244567871 1.7241250276565552 9.513277053833008 1.6866250038146973 9.550777435302734 C 1.5866249799728394 9.650777816772461 2.0491249561309814 10.588277816772461 2.386625051498413 10.950777053833008 C 2.520249128341675 11.077971458435059 2.619204521179199 11.237159729003906 2.6741249561309814 11.413277626037598 C 2.711625099182129 11.675777435302734 3.211625099182129 12.450777053833008 3.524125099182129 12.738277435302734 C 3.6353156566619873 12.835138320922852 3.724771499633789 12.954413414001465 3.7866249084472656 13.088277816772461 C 3.7866249084472656 13.263277053833008 4.661624908447266 14.338277816772461 4.7991251945495605 14.350777626037598 C 4.874125003814697 14.350777626037598 5.011624813079834 14.513277053833008 5.099124908447266 14.725777626037598 C 5.292620658874512 15.06510066986084 5.541949272155762 15.369365692138672 5.836625099182129 15.625777244567871 C 6.149125099182129 15.925777435302734 6.411624908447266 16.200777053833008 6.411624908447266 16.250778198242188 C 6.58404541015625 16.514001846313477 6.785289764404297 16.757171630859375 7.011624813079834 16.97577667236328 C 7.336625099182129 17.33827781677246 7.599124908447266 17.71327781677246 7.599124908447266 17.800777435302734 C 7.545491695404053 18.079872131347656 7.461665153503418 18.35230827331543 7.349124908447266 18.613277435302734 C 7.224124908447266 18.97577667236328 7.136624813079834 19.313278198242188 7.161624908447266 19.363277435302734 C 7.199124813079834 19.41327667236328 7.136624813079834 19.53827667236328 7.036624908447266 19.65077781677246 C 6.7991251945495605 19.888277053833008 6.349124908447266 20.925777435302734 6.349124908447266 21.250778198242188 C 6.338375091552734 21.40165138244629 6.28166389465332 21.545608520507812 6.186625003814697 21.66327667236328 C 6.099124908447266 21.750778198242188 5.949124813079834 22.15077781677246 5.8616251945495605 22.550777435302734 C 5.774125099182129 22.96327781677246 5.636624813079834 23.500778198242188 5.561625003814697 23.77577781677246 C 5.4866251945495605 24.03827667236328 5.4241251945495605 24.863277435302734 5.411624908447266 25.60077667236328 C 5.411624908447266 26.83827781677246 5.436625003814697 26.97577667236328 5.699124813079834 27.250778198242188 C 5.849124908447266 27.425777435302734 5.936625003814697 27.58827781677246 5.899125099182129 27.638277053833008 C 5.686625003814697 27.83827781677246 6.6116251945495605 27.96327781677246 8.424124717712402 27.96327781677246 C 11.161624908447266 27.950777053833008 11.511625289916992 27.91327667236328 11.811624526977539 27.500778198242188 C 12.024125099182129 27.21327781677246 12.049124717712402 27.063278198242188 11.949125289916992 26.41327667236328 C 11.836625099182129 25.53827667236328 11.786624908447266 23.425777435302734 11.886625289916992 23.263277053833008 C 11.924124717712402 23.21327781677246 11.999124526977539 22.738277435302734 12.036624908447266 22.22577667236328 C 12.086625099182129 21.71327781677246 12.174124717712402 21.22577667236328 12.224124908447266 21.16327667236328 C 12.324125289916992 21.02577781677246 12.624124526977539 20.03827667236328 12.649125099182129 19.72577667236328 C 12.6704740524292 19.59311294555664 12.717156410217285 19.465797424316406 12.786624908447266 19.35077667236328 C 13.061624526977539 18.925777435302734 13.474124908447266 17.938278198242188 13.474124908447266 17.71327781677246 C 13.474124908447266 17.58827781677246 13.524125099182129 17.47577667236328 13.586625099182129 17.47577667236328 C 13.699125289916992 17.47577667236328 14.474124908447266 16.188278198242188 14.474124908447266 15.988277435302734 C 14.474124908447266 15.925777435302734 14.624124526977539 15.713277816772461 14.824125289916992 15.513277053833008 C 15.048181533813477 15.246050834655762 15.244991302490234 14.957118034362793 15.411624908447266 14.650777816772461 C 15.575251579284668 14.343442916870117 15.776829719543457 14.05787467956543 16.011625289916992 13.800777435302734 C 16.24142837524414 13.52175235748291 16.44244956970215 13.220220565795898 16.61162567138672 12.900777816772461 C 16.74912452697754 12.600777626037598 16.911624908447266 12.350777626037598 16.961624145507812 12.325777053833008 C 17.12412452697754 12.250777244567871 17.849124908447266 11.125777244567871 17.849124908447266 10.925777435302734 C 17.85658836364746 10.81017017364502 17.91642951965332 10.704297065734863 18.011625289916992 10.638277053833008 C 18.261625289916992 10.488277435302734 18.98662567138672 9.150777816772461 18.87412452697754 9.050777435302734 C 18.824125289916992 9.000777244567871 18.87412452697754 8.888277053833008 18.98662567138672 8.813277244567871 C 19.199125289916992 8.650777816772461 19.61162567138672 7.700777530670166 19.661624908447266 7.250777721405029 C 19.686298370361328 7.095625400543213 19.741533279418945 6.946916580200195 19.824125289916992 6.813277721405029 C 19.948671340942383 6.547101020812988 20.036958694458008 6.265423774719238 20.086624145507812 5.975777626037598 C 20.17412567138672 5.600777626037598 20.286624908447266 5.050777435302734 20.36162567138672 4.750777721405029 C 20.54912567138672 3.8632774353027344 20.649124145507812 1.2757774591445923 20.48662567138672 1.175777554512024 C 20.390531539916992 1.0703665018081665 20.340965270996094 0.9306816458702087 20.349124908447266 0.7882775068283081 C 20.349124908447266 0.1882774978876114 19.886625289916992 0.05077749863266945 17.81162452697754 0.013277499936521053 C 16.56162452697754 -0.011722500436007977 15.886625289916992 0.025777500122785568 15.774125099182129 0.11327750235795975 C 15.675235748291016 0.1908484697341919 15.54611587524414 0.21851705014705658 15.424124717712402 0.1882774978876114 C 15.314010620117188 0.15689651668071747 15.195502281188965 0.18533837795257568 15.111624717712402 0.26327750086784363 C 14.936624526977539 0.4382775127887726 14.936624526977539 1.5632774829864502 15.111624717712402 1.675777554512024 C 15.186624526977539 1.7132774591445923 15.211625099182129 1.8757774829864502 15.186624526977539 2.025777578353882 C 15.149125099182129 2.1632773876190186 15.161624908447266 2.6757774353027344 15.211625099182129 3.1632773876190186 C 15.274125099182129 3.638277530670166 15.274125099182129 4.088277339935303 15.224124908447266 4.163277626037598 C 15.124124526977539 4.300777435302734 14.911624908447266 5.588277339935303 14.949125289916992 5.775777339935303 C 14.974124908447266 5.825777530670166 14.924124717712402 5.938277721405029 14.861624717712402 6.025777339935303 C 14.724124908447266 6.188277721405029 14.224124908447266 7.488277435302734 14.224124908447266 7.675777435302734 C 14.224124908447266 7.763277530670166 14.024125099182129 8.125777244567871 13.774125099182129 8.488277435302734 C 13.536624908447266 8.850777626037598 13.299124717712402 9.313277244567871 13.261625289916992 9.500777244567871 C 13.224124908447266 9.688277244567871 13.149125099182129 9.850777626037598 13.099124908447266 9.850777626037598 C 12.949125289916992 9.850777626037598 12.099124908447266 11.075777053833008 12.099124908447266 11.288277626037598 C 12.099124908447266 11.388277053833008 12.049124717712402 11.475777626037598 11.974124908447266 11.475777626037598 C 11.911624908447266 11.475777626037598 11.586625099182129 11.725777626037598 11.261625289916992 12.038277626037598 C 10.636625289916992 12.638277053833008 10.536624908447266 12.688277244567871 10.299124717712402 12.438277244567871 C 10.211625099182129 12.363277435302734 9.886625289916992 12.063277244567871 9.586625099182129 11.775777816772461 C 9.249643325805664 11.450757026672363 8.95937728881836 11.080562591552734 8.724124908447266 10.675777435302734 C 8.564332008361816 10.371129989624023 8.375988006591797 10.082335472106934 8.161624908447266 9.813277244567871 C 8.024125099182129 9.663277626037598 7.911624908447266 9.488277435302734 7.911624908447266 9.413277626037598 C 7.899125099182129 9.200777053833008 7.311625003814697 7.850777626037598 7.224124908447266 7.850777626037598 C 7.1741251945495605 7.850777626037598 7.099124908447266 7.613277435302734 7.061625003814697 7.313277721405029 C 6.99852991104126 6.924779415130615 6.910853862762451 6.540674686431885 6.7991251945495605 6.163277626037598 C 6.536624908447266 5.238277435302734 6.3616251945495605 3.62577748298645 6.4866251945495605 3.2382774353027344 C 6.573691368103027 2.8606960773468018 6.623926639556885 2.4755592346191406 6.636624813079834 2.088277578353882 C 6.6741251945495605 1.6257774829864502 6.724124908447266 1.200777530670166 6.774125099182129 1.1257774829864502 C 6.999125003814697 0.7507774829864502 6.224124908447266 0.013277499936521053 5.786624908447266 0.17577749490737915 C 5.669354438781738 0.22242482006549835 5.5361433029174805 0.20339463651180267 5.436625003814697 0.1257774978876114 C 5.249125003814697 -0.02422250062227249 1.9741250276565552 -0.04922249913215637 1.7241250276565552 0.10077749937772751" stroke-width="0.0" fill="rgb(0, 0, 0)" opacity="1.0"/>
  </g>
</svg>
