<?xml version="1.0" ?>
<svg xmlns="http://www.w3.org/2000/svg" version="1.1" width="600" height="600">
  <defs/>
  <g>
    <path d="M 1.9500000476837158 0.08989500254392624 C 1.6124999523162842 0.21489499509334564 1.462499976158142 0.5398949980735779 1.662500023841858 0.7398949861526489 C 1.7560434341430664 0.8709542751312256 1.8043150901794434 1.0289344787597656 1.7999999523162842 1.1898950338363647 C 1.7999999523162842 1.6023950576782227 2.200000047683716 2.827394962310791 2.325000047683716 2.827394962310791 C 2.387500047683716 2.827394962310791 2.424999952316284 2.9273951053619385 2.4124999046325684 3.0398950576782227 C 2.362499952316284 3.3523950576782227 2.7750000953674316 4.527394771575928 3.0 4.702394962310791 C 3.0971102714538574 4.800343036651611 3.158705234527588 4.9279327392578125 3.174999952316284 5.064895153045654 C 3.2154200077056885 5.28018856048584 3.3005905151367188 5.484597206115723 3.424999952316284 5.664895057678223 C 3.7125000953674316 6.152394771575928 4.212500095367432 6.227395057678223 4.425000190734863 5.827394962310791 C 4.5 5.689895153045654 4.612500190734863 5.577394962310791 4.6875 5.577394962310791 C 4.837500095367432 5.577394962310791 5.949999809265137 4.839894771575928 6.0625 4.664895057678223 C 6.112500190734863 4.602395057678223 6.300000190734863 4.539895057678223 6.5 4.514894962310791 C 7.162499904632568 4.439895153045654 7.862500190734863 4.289895057678223 7.987500190734863 4.189895153045654 C 8.0625 4.139894962310791 8.537500381469727 4.139894962310791 9.050000190734863 4.202394962310791 C 9.5625 4.264894962310791 10.024999618530273 4.277394771575928 10.074999809265137 4.252395153045654 C 10.125 4.227395057678223 10.300000190734863 4.377395153045654 10.475000381469727 4.614894866943359 C 10.8125 5.052394866943359 10.962499618530273 6.027394771575928 10.712499618530273 6.177394866943359 C 10.637499809265137 6.227395057678223 10.387499809265137 6.627395153045654 10.162500381469727 7.064895153045654 C 9.957501411437988 7.469027519226074 9.71028995513916 7.8503193855285645 9.425000190734863 8.20239543914795 C 9.207831382751465 8.451438903808594 9.01916217803955 8.72396183013916 8.862500190734863 9.01489543914795 C 8.681238174438477 9.331962585449219 8.467597007751465 9.629384994506836 8.225000381469727 9.902395248413086 C 8.012811660766602 10.141876220703125 7.8244242668151855 10.401432037353516 7.662499904632568 10.67739486694336 C 7.487856388092041 10.980875968933105 7.282620906829834 11.265691757202148 7.050000190734863 11.527395248413086 C 6.816943168640137 11.800585746765137 6.607837677001953 12.09333324432373 6.425000190734863 12.402395248413086 C 6.279372692108154 12.66402816772461 6.1031341552734375 12.907404899597168 5.900000095367432 13.127394676208496 C 5.661962985992432 13.402889251708984 5.456442356109619 13.704877853393555 5.287499904632568 14.027395248413086 C 5.150000095367432 14.32739543914795 4.987500190734863 14.57739543914795 4.9375 14.602395057678223 C 4.775000095367432 14.67739486694336 4.050000190734863 15.80239486694336 4.050000190734863 16.002395629882812 C 4.04287052154541 16.121294021606445 3.9773402214050293 16.22895050048828 3.875 16.289894104003906 C 3.637500047683716 16.42739486694336 2.924999952316284 17.61489486694336 2.924999952316284 17.877395629882812 C 2.924999952316284 17.98989486694336 2.875 18.077394485473633 2.799999952316284 18.077394485473633 C 2.6624999046325684 18.077394485473633 2.0625 19.214895248413086 1.975000023841858 19.61489486694336 C 1.95481276512146 19.740806579589844 1.898340106010437 19.858095169067383 1.8125 19.952394485473633 C 1.6375000476837158 20.05239486694336 1.0499999523162842 21.414894104003906 1.1375000476837158 21.502395629882812 C 1.1875 21.539894104003906 1.125 21.67739486694336 1.024999976158142 21.789894104003906 C 0.7875000238418579 22.064895629882812 0.375 23.314895629882812 0.4749999940395355 23.414894104003906 C 0.512499988079071 23.464895248413086 0.4625000059604645 23.627395629882812 0.3499999940395355 23.80239486694336 C 0.13750000298023224 24.11489486694336 1.4432899320127035e-15 25.214895248413086 1.4432899320127035e-15 26.502395629882812 C 1.4432899320127035e-15 27.089895248413086 0.05000000074505806 27.264894485473633 0.25 27.402395248413086 C 0.375 27.48989486694336 0.574999988079071 27.639894485473633 0.675000011920929 27.727394104003906 C 0.8125 27.852394104003906 2.575000047683716 27.889894485473633 9.237500190734863 27.86489486694336 C 19.3125 27.852394104003906 18.375 27.86489486694336 18.674999237060547 27.702394485473633 C 18.9375 27.564895629882812 19.012500762939453 27.089895248413086 18.787500381469727 26.86489486694336 C 18.685970306396484 26.694442749023438 18.6300106048584 26.500730514526367 18.625 26.30239486694336 C 18.561195373535156 25.938570022583008 18.447629928588867 25.585256576538086 18.287500381469727 25.252395629882812 C 18.17149543762207 25.014909744262695 18.075334548950195 24.768234252929688 18.0 24.514894485473633 C 17.987499237060547 24.252395629882812 17.524999618530273 23.127395629882812 17.337499618530273 22.914894104003906 C 17.225000381469727 22.80239486694336 17.174999237060547 22.664894104003906 17.212499618530273 22.627395629882812 C 17.25 22.577394485473633 17.125 22.214895248413086 16.912500381469727 21.814895629882812 C 16.600000381469727 21.17739486694336 16.5 21.077394485473633 16.1875 21.077394485473633 C 15.862500190734863 21.077394485473633 14.675000190734863 21.852394104003906 14.675000190734863 22.077394485473633 C 14.675000190734863 22.127395629882812 14.212499618530273 22.389894485473633 13.649999618530273 22.664894104003906 C 12.262499809265137 23.352394104003906 11.037500381469727 23.527395248413086 9.637499809265137 23.23989486694336 C 8.574999809265137 23.027395248413086 8.125 22.727394104003906 7.75 21.977394104003906 C 7.550000190734863 21.589895248413086 7.550000190734863 21.527395248413086 7.800000190734863 20.714895248413086 C 7.910671234130859 20.371973037719727 7.994261264801025 20.02089500427246 8.050000190734863 19.664894104003906 C 8.046319007873535 19.57478904724121 8.082975387573242 19.487730026245117 8.149999618530273 19.42739486694336 C 8.300000190734863 19.377395629882812 9.087499618530273 17.952394485473633 8.975000381469727 17.952394485473633 C 8.925000190734863 17.952394485473633 9.024999618530273 17.80239486694336 9.199999809265137 17.61489486694336 C 9.44946575164795 17.329198837280273 9.663515090942383 17.014419555664062 9.837499618530273 16.67739486694336 C 9.98104190826416 16.394197463989258 10.152741432189941 16.126178741455078 10.350000381469727 15.877394676208496 C 10.649999618530273 15.57739543914795 11.324999809265137 14.57739543914795 11.225000381469727 14.57739543914795 C 11.175000190734863 14.57739543914795 11.337499618530273 14.377394676208496 11.574999809265137 14.13989543914795 C 11.835259437561035 13.868034362792969 12.061885833740234 13.565865516662598 12.25 13.23989486694336 C 12.440556526184082 12.900835990905762 12.67139720916748 12.586052894592285 12.9375 12.30239486694336 C 13.196666717529297 12.027993202209473 13.419339179992676 11.721294403076172 13.600000381469727 11.38989543914795 C 13.712499618530273 11.152395248413086 13.850000381469727 10.95239543914795 13.899999618530273 10.95239543914795 C 14.050000190734863 10.95239543914795 14.925000190734863 9.727395057678223 14.925000190734863 9.51489543914795 C 14.920687675476074 9.419126510620117 14.992091178894043 9.336738586425781 15.087499618530273 9.32739543914795 C 15.237500190734863 9.314894676208496 16.112499237060547 8.127394676208496 16.112499237060547 7.927394866943359 C 16.133115768432617 7.843054294586182 16.187305450439453 7.7708024978637695 16.262500762939453 7.727395057678223 C 16.487499237060547 7.589894771575928 17.299999237060547 6.414895057678223 17.299999237060547 6.239894866943359 C 17.311756134033203 6.13561487197876 17.371973037719727 6.04297399520874 17.462499618530273 5.989894866943359 C 17.700000762939453 5.839894771575928 18.424999237060547 4.652394771575928 18.424999237060547 4.414895057678223 C 18.424999237060547 4.289895057678223 18.475000381469727 4.202394962310791 18.549999237060547 4.202394962310791 C 18.700000762939453 4.202394962310791 19.299999237060547 3.0398950576782227 19.299999237060547 2.764894962310791 C 19.325210571289062 2.584496259689331 19.393842697143555 2.4129154682159424 19.5 2.264894962310791 C 19.628101348876953 2.0034689903259277 19.700464248657227 1.7182705402374268 19.712499618530273 1.427394986152649 C 19.725000381469727 0.9773949980735779 19.662500381469727 0.81489497423172 19.325000762939453 0.4523949921131134 L 18.924999237060547 0.014894999563694 L 10.574999809265137 0.0023950000759214163 C 5.987500190734863 -0.010104999877512455 2.112499952316284 0.02739500068128109 1.9500000476837158 0.08989500254392624" stroke-width="0.0" fill="rgb(0, 0, 0)" opacity="1.0"/>
  </g>
</svg>
