<?xml version="1.0" ?>
<svg xmlns="http://www.w3.org/2000/svg" version="1.1" width="600" height="600">
  <defs/>
  <g>
    <path d="M 11.109209060668945 0.09444499760866165 C 11.059208869934082 0.1694449931383133 10.884208679199219 0.19444499909877777 10.721708297729492 0.15694500505924225 C 10.359209060668945 0.06944499909877777 9.034208297729492 0.33194500207901 9.034208297729492 0.49444499611854553 C 9.034208297729492 0.569445013999939 8.934208869934082 0.6069449782371521 8.821708679199219 0.58194500207901 C 8.571708679199219 0.51944500207901 7.271708965301514 1.0444450378417969 7.15920877456665 1.2444449663162231 C 7.059898376464844 1.3324487209320068 6.939198017120361 1.392798900604248 6.809208869934082 1.4194450378417969 C 6.446708679199219 1.4819450378417969 5.459208965301514 2.169445037841797 5.371708869934082 2.419445037841797 C 5.327279567718506 2.521665096282959 5.232280254364014 2.5929148197174072 5.121708869934082 2.606945037841797 C 4.921708583831787 2.606945037841797 3.9092087745666504 3.6194450855255127 3.9092087745666504 3.8319449424743652 C 3.9092087745666504 3.906944990158081 3.796708822250366 4.03194522857666 3.6592087745666504 4.106945037841797 C 3.359208822250366 4.269444942474365 2.6592087745666504 5.269444942474365 2.6592087745666504 5.53194522857666 C 2.6592087745666504 5.644444942474365 2.609208822250366 5.731945037841797 2.5342087745666504 5.731945037841797 C 2.371708631515503 5.731945037841797 1.7592087984085083 6.8194451332092285 1.7092087268829346 7.1944451332092285 C 1.6967087984085083 7.369444847106934 1.6217087507247925 7.556944847106934 1.5592087507247925 7.59444522857666 C 1.3967087268829346 7.6944451332092285 0.8842087388038635 8.994444847106934 0.9717087745666504 9.081945419311523 C 1.0092087984085083 9.119444847106934 0.9592087268829346 9.269445419311523 0.8592087626457214 9.419445037841797 C 0.7091219425201416 9.736654281616211 0.6039449572563171 10.073220252990723 0.5467087626457214 10.419445037841797 C 0.45920875668525696 10.831945419311523 0.33420875668525696 11.34444522857666 0.27170875668525696 11.56944465637207 C 0.04670875146985054 12.294445037841797 -0.02829124964773655 13.96944522857666 0.00920874997973442 16.88194465637207 C 0.023827461525797844 17.261600494384766 0.078293077647686 17.638669967651367 0.17170874774456024 18.00694465637207 C 0.25332096219062805 18.356882095336914 0.31178098917007446 18.71181869506836 0.346708744764328 19.06944465637207 C 0.3707800805568695 19.389360427856445 0.45118242502212524 19.702505111694336 0.5842087268829346 19.99444580078125 C 0.6893153190612793 20.18846321105957 0.7571516036987305 20.40045166015625 0.7842087745666504 20.61944580078125 C 0.7842087745666504 20.919445037841797 1.1467087268829346 21.86944580078125 1.3717087507247925 22.11944580078125 C 1.4620840549468994 22.230255126953125 1.5185141563415527 22.364818572998047 1.5342087745666504 22.50694465637207 C 1.5342087745666504 22.74444580078125 2.109208822250366 23.781944274902344 2.3467087745666504 23.981945037841797 C 2.440237283706665 24.053525924682617 2.5064127445220947 24.15499496459961 2.5342087745666504 24.269445419311523 C 2.5342087745666504 24.481945037841797 3.4467086791992188 25.606945037841797 3.621708631515503 25.606945037841797 C 3.7217087745666504 25.606945037841797 3.8342087268829346 25.731945037841797 3.8967087268829346 25.88194465637207 C 4.021708965301514 26.219444274902344 4.934208869934082 26.981945037841797 5.196708679199219 26.981945037841797 C 5.308676719665527 26.99244499206543 5.405278205871582 27.064895629882812 5.446708679199219 27.169445037841797 C 5.53420877456665 27.394445419311523 6.684208869934082 27.981945037841797 7.03420877456665 27.981945037841797 C 7.171708583831787 27.981945037841797 7.28420877456665 28.031944274902344 7.28420877456665 28.106945037841797 C 7.28420877456665 28.231945037841797 8.546709060668945 28.644445419311523 8.809208869934082 28.594444274902344 C 9.038080215454102 28.60306167602539 9.264914512634277 28.640867233276367 9.484209060668945 28.706945419311523 C 10.159208297729492 28.906944274902344 12.821708679199219 28.831945419311523 13.084208488464355 28.61944580078125 C 13.168615341186523 28.53314971923828 13.295522689819336 28.503862380981445 13.409208297729492 28.544445037841797 C 13.571708679199219 28.644445419311523 14.771708488464355 28.25694465637207 15.071708679199219 28.00694465637207 C 15.184208869934082 27.906944274902344 15.321708679199219 27.844444274902344 15.359209060668945 27.894445419311523 C 15.471708297729492 28.00694465637207 16.646709442138672 27.24444580078125 16.796709060668945 26.969444274902344 C 16.859209060668945 26.831945419311523 16.971708297729492 26.75694465637207 17.021709442138672 26.781944274902344 C 17.159208297729492 26.86944580078125 18.19670867919922 25.781944274902344 18.234209060668945 25.519445419311523 C 18.248268127441406 25.409387588500977 18.313024520874023 25.312253952026367 18.409208297729492 25.25694465637207 C 18.609209060668945 25.18194580078125 19.159208297729492 24.031944274902344 19.159208297729492 23.68194580078125 C 19.159208297729492 23.519445419311523 19.209209442138672 23.356945037841797 19.284208297729492 23.331945419311523 C 19.734209060668945 23.18194580078125 19.69670867919922 19.406944274902344 19.234209060668945 18.294445037841797 C 19.059207916259766 17.894445419311523 18.659208297729492 17.68194580078125 18.659208297729492 17.99444580078125 C 18.659208297729492 18.06944465637207 18.484209060668945 18.49444580078125 18.271709442138672 18.94444465637207 C 18.10866928100586 19.26666259765625 17.970760345458984 19.600990295410156 17.859209060668945 19.94444465637207 C 17.84408187866211 20.050800323486328 17.785160064697266 20.145980834960938 17.69670867919922 20.206945419311523 C 17.63420867919922 20.25694465637207 17.309207916259766 20.594444274902344 16.971708297729492 20.969444274902344 C 16.221708297729492 21.81944465637207 14.921709060668945 22.50694465637207 13.909208297729492 22.56944465637207 C 13.55787467956543 22.588396072387695 13.209820747375488 22.647104263305664 12.871708869934082 22.74444580078125 C 12.646708488464355 22.844444274902344 12.484209060668945 22.844444274902344 12.371708869934082 22.769445419311523 C 12.234209060668945 22.656944274902344 11.496708869934082 22.49444580078125 10.834208488464355 22.44444465637207 C 10.677831649780273 22.424592971801758 10.528128623962402 22.368989944458008 10.396708488464355 22.281944274902344 C 10.121292114257812 22.091548919677734 9.833112716674805 21.920312881469727 9.534208297729492 21.769445419311523 C 8.921709060668945 21.44444465637207 7.28420877456665 20.019445419311523 7.28420877456665 19.80694580078125 C 7.28420877456665 19.75694465637207 7.059208869934082 19.38194465637207 6.78420877456665 18.969444274902344 C 6.509208679199219 18.55694580078125 6.28420877456665 18.156944274902344 6.28420877456665 18.081945419311523 C 6.28420877456665 17.88194465637207 5.871708869934082 16.55694580078125 5.78420877456665 16.481945037841797 C 5.734208583831787 16.44444465637207 5.696708679199219 16.031944274902344 5.671708583831787 15.556944847106934 C 5.65920877456665 15.06944465637207 5.59670877456665 14.619444847106934 5.53420877456665 14.544445037841797 C 5.459208965301514 14.44444465637207 5.459208965301514 14.13194465637207 5.546708583831787 13.669445037841797 C 5.618342399597168 13.311657905578613 5.639380931854248 12.94558334350586 5.609208583831787 12.581945419311523 C 5.571708679199219 12.38194465637207 5.584208965301514 12.119444847106934 5.65920877456665 12.00694465637207 C 5.834208965301514 11.669445037841797 6.046708583831787 10.606945037841797 5.959208965301514 10.46944522857666 C 5.930692195892334 10.347182273864746 5.968690395355225 10.218937873840332 6.059208869934082 10.13194465637207 C 6.271708965301514 9.88194465637207 6.78420877456665 8.65694522857666 6.78420877456665 8.40694522857666 C 6.78420877456665 8.306944847106934 6.834208965301514 8.231945037841797 6.896708965301514 8.231945037841797 C 6.946708679199219 8.231945037841797 7.234208583831787 7.894444942474365 7.509208679199219 7.46944522857666 C 8.184208869934082 6.481945037841797 9.334208488464355 5.606945037841797 10.409208297729492 5.294445037841797 C 10.727270126342773 5.212738990783691 11.040301322937012 5.112569332122803 11.346708297729492 4.994444847106934 C 11.421709060668945 4.956944942474365 11.971708297729492 4.9444451332092285 12.584208488464355 4.96944522857666 C 13.509208679199219 5.0069451332092285 13.796709060668945 5.056944847106934 14.184208869934082 5.306944847106934 C 14.909208297729492 5.769444942474365 15.121708869934082 6.019444942474365 15.209208488464355 6.556944847106934 C 15.409208297729492 7.681944847106934 15.421709060668945 7.731945037841797 15.846708297729492 7.931944847106934 C 16.309207916259766 8.144445419311523 17.13420867919922 8.081945419311523 17.596708297729492 7.806944847106934 C 17.77579689025879 7.700218200683594 17.969505310058594 7.620207786560059 18.171709060668945 7.5694451332092285 C 18.534208297729492 7.481945037841797 19.284208297729492 6.706944942474365 19.284208297729492 6.431944847106934 C 19.31496810913086 6.247181415557861 19.37846565246582 6.069392681121826 19.471708297729492 5.90694522857666 C 19.684207916259766 5.494444847106934 19.721708297729492 4.40694522857666 19.521709442138672 4.294445037841797 C 19.440479278564453 4.221751689910889 19.419790267944336 4.102794647216797 19.471708297729492 4.0069451332092285 C 19.559207916259766 3.7694449424743652 18.94670867919922 2.481945037841797 18.734209060668945 2.481945037841797 C 18.646709442138672 2.481945037841797 18.50920867919922 2.344444990158081 18.434207916259766 2.1819450855255127 C 18.284208297729492 1.8569450378417969 17.234209060668945 1.069445013999939 17.109209060668945 1.194445013999939 C 17.07170867919922 1.2319450378417969 16.934207916259766 1.1694450378417969 16.796709060668945 1.0569449663162231 C 16.496707916259766 0.781944990158081 15.309208869934082 0.33194500207901 15.146708488464355 0.43194499611854553 C 15.052504539489746 0.46313410997390747 14.948905944824219 0.44429799914360046 14.871708869934082 0.38194501399993896 C 14.621708869934082 0.18194499611854553 14.084208488464355 0.10694500058889389 12.609209060668945 0.01944500021636486 C 11.621708869934082 -0.01805499941110611 11.159208297729492 -0.005555000156164169 11.109209060668945 0.09444499760866165" stroke-width="0.0" fill="rgb(0, 0, 0)" opacity="1.0"/>
  </g>
</svg>
