<?xml version="1.0" ?>
<svg xmlns="http://www.w3.org/2000/svg" version="1.1" width="600" height="600">
  <defs/>
  <g>
    <path d="M 1.704295039176941 0.26024124026298523 C 1.316794991493225 0.5852412581443787 0.979295015335083 1.3477412462234497 0.979295015335083 1.9227412939071655 C 0.979295015335083 2.1602413654327393 0.929295003414154 2.3477413654327393 0.866795003414154 2.3477413654327393 C 0.716795027256012 2.3477413654327393 0.541795015335083 3.5977413654327393 0.42929500341415405 5.372741222381592 C 0.39179500937461853 5.84774112701416 0.3417949974536896 6.272741317749023 0.30429500341415405 6.335241317749023 C 0.1292950063943863 6.610241413116455 -0.10820499807596207 19.785242080688477 0.054294999688863754 20.222742080688477 C 0.09179499745368958 20.32274055480957 0.14179499447345734 21.26024055480957 0.15429499745368958 22.297740936279297 C 0.17929500341415405 23.335241317749023 0.22929500043392181 24.24774169921875 0.2792949974536896 24.32274055480957 C 0.3552532196044922 24.65546226501465 0.4012702405452728 24.994314193725586 0.4167949855327606 25.335241317749023 C 0.4417949914932251 25.81024169921875 0.5167949795722961 26.31024169921875 0.591795027256012 26.43524169921875 C 0.6756539344787598 26.6204891204834 0.7425930500030518 26.812938690185547 0.791795015335083 27.01024055480957 C 0.8430593013763428 27.223634719848633 0.9460939168930054 27.421117782592773 1.0917949676513672 27.585241317749023 C 1.3042949438095093 27.797740936279297 1.629294991493225 27.82274055480957 6.554295063018799 27.82274055480957 C 10.029294967651367 27.82274055480957 11.95429515838623 27.785242080688477 12.291794776916504 27.69774055480957 C 12.505328178405762 27.625595092773438 12.72891616821289 27.587627410888672 12.95429515838623 27.585241317749023 C 13.216794967651367 27.63524055480957 14.479294776916504 27.222742080688477 14.479294776916504 27.097742080688477 C 14.479294776916504 27.022741317749023 14.604294776916504 26.972742080688477 14.76679515838623 26.972742080688477 C 15.07929515838623 26.972742080688477 16.22929573059082 26.297740936279297 16.391794204711914 26.022741317749023 C 16.444974899291992 25.924591064453125 16.543241500854492 25.859081268310547 16.654294967651367 25.847742080688477 C 16.86679458618164 25.847742080688477 17.72929573059082 24.910242080688477 17.72929573059082 24.672740936279297 C 17.72929573059082 24.585241317749023 17.85429573059082 24.422740936279297 18.016794204711914 24.31024169921875 C 18.16679573059082 24.210241317749023 18.42929458618164 23.82274055480957 18.591794967651367 23.460241317749023 C 18.766794204711914 23.085241317749023 19.029294967651367 22.49774169921875 19.191795349121094 22.147741317749023 C 19.358003616333008 21.81485366821289 19.46381187438965 21.455106735229492 19.504295349121094 21.085241317749023 C 19.495630264282227 20.896705627441406 19.52981948852539 20.708660125732422 19.60429573059082 20.535242080688477 C 19.68004035949707 20.396989822387695 19.738798141479492 20.250091552734375 19.779294967651367 20.097742080688477 C 19.891794204711914 19.660242080688477 20.016794204711914 15.110240936279297 19.91679573059082 14.860240936279297 C 19.86679458618164 14.74774169921875 19.816795349121094 14.272741317749023 19.79179573059082 13.81024169921875 C 19.766794204711914 13.34774112701416 19.691795349121094 12.885241508483887 19.60429573059082 12.78524112701416 C 19.517627716064453 12.68597412109375 19.484954833984375 12.550613403320312 19.516794204711914 12.422740936279297 C 19.60429573059082 12.197741508483887 19.30429458618164 10.91024112701416 19.10429573059082 10.672740936279297 C 19.029294967651367 10.56024169921875 18.99179458618164 10.43524169921875 19.029294967651367 10.37274169921875 C 19.11679458618164 10.22274112701416 18.754295349121094 9.09774112701416 18.529294967651367 8.835241317749023 C 18.420391082763672 8.700416564941406 18.35889434814453 8.533493995666504 18.35429573059082 8.360240936279297 C 18.35429573059082 8.022741317749023 17.879295349121094 7.0727410316467285 17.654294967651367 6.935241222381592 C 17.545162200927734 6.863099575042725 17.479450225830078 6.741063117980957 17.47929573059082 6.610241413116455 C 17.47929573059082 6.34774112701416 16.779294967651367 5.22274112701416 16.61679458618164 5.22274112701416 C 16.55429458618164 5.22274112701416 16.454294204711914 5.09774112701416 16.404294967651367 4.935241222381592 C 16.279294967651367 4.547741413116455 15.479294776916504 3.5977413654327393 15.279294967651367 3.5977413654327393 C 15.17929458618164 3.5977413654327393 15.041794776916504 3.4602413177490234 14.99179458618164 3.297741174697876 C 14.86679458618164 2.997741222381592 13.979294776916504 2.2227413654327393 13.754295349121094 2.2227413654327393 C 13.651323318481445 2.206638813018799 13.562678337097168 2.1413216590881348 13.51679515838623 2.047741174697876 C 13.36679458618164 1.7977412939071655 12.216794967651367 1.0977412462234497 11.95429515838623 1.0977412462234497 C 11.82929515838623 1.0977412462234497 11.729294776916504 1.0477412939071655 11.729294776916504 0.9852412343025208 C 11.729294776916504 0.8352412581443787 10.504295349121094 0.3477412462234497 10.11679458618164 0.3477412462234497 C 9.940295219421387 0.35222652554512024 9.767803192138672 0.2947291135787964 9.629295349121094 0.18524125218391418 C 9.504295349121094 0.07274124771356583 8.529294967651367 0.022741250693798065 5.7542948722839355 0.010241249576210976 C 2.091794967651367 -0.01475874986499548 2.041795015335083 -0.01475874986499548 1.704295039176941 0.26024124026298523" stroke-width="0.0" fill="rgb(0, 0, 0)" opacity="1.0"/>
    <path d="M 9.237500190734863 4.612500190734863 C 9.5625 4.775000095367432 9.862500190734863 4.949999809265137 9.899999618530273 5.012499809265137 C 9.983243942260742 5.093029975891113 10.097027778625488 5.133991718292236 10.212499618530273 5.125 C 10.337499618530273 5.125 10.449999809265137 5.175000190734863 10.449999809265137 5.237500190734863 C 10.449999809265137 5.300000190734863 10.762499809265137 5.662499904632568 11.137499809265137 6.050000190734863 C 11.512499809265137 6.425000190734863 11.824999809265137 6.762499809265137 11.824999809265137 6.800000190734863 C 11.824999809265137 6.925000190734863 12.6875 8.237500190734863 12.824999809265137 8.3125 C 12.893531799316406 8.34550666809082 12.922329902648926 8.427820205688477 12.889323234558105 8.496352195739746 C 12.889323234558105 8.496353149414062 12.889322280883789 8.496353149414062 12.889322280883789 8.496354103088379 L 12.887499809265137 8.5 C 12.850000381469727 8.550000190734863 13.0 8.987500190734863 13.225000381469727 9.462499618530273 C 13.4375 9.925000190734863 13.600000381469727 10.362500190734863 13.587499618530273 10.412500381469727 C 13.574999809265137 10.475000381469727 13.6875 10.912500381469727 13.837499618530273 11.399999618530273 C 13.991415977478027 11.952139854431152 14.095993995666504 12.516858100891113 14.149999618530273 13.087499618530273 C 14.15795612335205 13.403575897216797 14.19986343383789 13.717881202697754 14.274999618530273 14.024999618530273 C 14.375 14.175000190734863 14.375 16.225000381469727 14.274999618530273 17.4375 C 14.228370666503906 17.985614776611328 14.119331359863281 18.526615142822266 13.949999809265137 19.049999237060547 C 13.835227012634277 19.366117477416992 13.75149917602539 19.692657470703125 13.699999809265137 20.024999618530273 C 13.67659854888916 20.209196090698242 13.593123435974121 20.38054084777832 13.462499618530273 20.512500762939453 C 13.244260787963867 20.803499221801758 13.051862716674805 21.11301040649414 12.887499809265137 21.4375 C 12.699999809265137 21.8125 12.5 22.125 12.4375 22.125 C 12.337499618530273 22.125 11.199999809265137 22.9375 11.074999809265137 23.112499237060547 C 10.9375 23.287500381469727 8.899999618530273 23.625 8.774999618530273 23.5 C 8.695064544677734 23.428560256958008 8.59426498413086 23.384733200073242 8.487500190734863 23.375 C 8.265172004699707 23.33803367614746 8.050042152404785 23.26632308959961 7.849999904632568 23.162500381469727 C 7.666420936584473 23.071453094482422 7.473667144775391 23.000219345092773 7.275000095367432 22.950000762939453 C 7.186509132385254 22.913599014282227 7.1181230545043945 22.840652465820312 7.087500095367432 22.75 C 6.913913249969482 22.42676544189453 6.721931457519531 22.113750457763672 6.512499809265137 21.8125 C 6.237500190734863 21.399999618530273 6.037499904632568 21.012500762939453 6.050000190734863 20.962499618530273 C 6.019688606262207 20.68638038635254 5.96104621887207 20.414113998413086 5.875 20.149999618530273 C 5.733633041381836 19.585933685302734 5.625117301940918 19.01413917541504 5.550000190734863 18.4375 C 5.4375 17.4375 5.375 8.725000381469727 5.487500190734863 8.537500381469727 C 5.512499809265137 8.487500190734863 5.612500190734863 8.037500381469727 5.699999809265137 7.5625 C 5.810675144195557 6.980437278747559 5.991145133972168 6.413846492767334 6.237500190734863 5.875 C 6.389318466186523 5.580958366394043 6.5188493728637695 5.27593469619751 6.625 4.962500095367432 C 6.637499809265137 4.849999904632568 7.275000095367432 4.5 7.6875 4.387499809265137 C 8.1875 4.25 8.612500190734863 4.3125 9.237500190734863 4.612500190734863" stroke-width="0.0" fill="rgb(255, 255, 255)" opacity="1.0"/>
  </g>
</svg>
