<?xml version="1.0" ?>
<svg xmlns="http://www.w3.org/2000/svg" version="1.1" width="600" height="600">
  <defs/>
  <g>
    <path d="M 2.59618878364563 0.36250001192092896 C 2.403409957885742 0.6778833270072937 2.267987012863159 1.024904727935791 2.1961886882781982 1.3875000476837158 C 2.1211886405944824 1.75 2.0086886882781982 2.237499952316284 1.9461888074874878 2.450000047683716 C 1.8387802839279175 2.8608016967773438 1.7594306468963623 3.2784316539764404 1.708688735961914 3.700000047683716 C 1.646188735961914 4.175000190734863 1.5336887836456299 4.849999904632568 1.458688735961914 5.224999904632568 C 1.3836888074874878 5.587500095367432 1.3461887836456299 5.974999904632568 1.396188735961914 6.074999809265137 C 1.4321682453155518 6.18921422958374 1.4137372970581055 6.313623428344727 1.3461887836456299 6.412499904632568 C 1.2836887836456299 6.487500190734863 1.1586887836456299 7.087500095367432 1.083688735961914 7.737500190734863 C 1.0086888074874878 8.387499809265137 0.883688747882843 9.399999618530273 0.808688759803772 9.987500190734863 C 0.746188759803772 10.574999809265137 0.6711887717247009 11.337499618530273 0.6461887359619141 11.699999809265137 C 0.6309787631034851 12.007207870483398 0.589155375957489 12.312519073486328 0.5211887359619141 12.612500190734863 C 0.44128069281578064 12.99942398071289 0.39527302980422974 13.39258098602295 0.383688747882843 13.787500381469727 C 0.3461887538433075 14.274999618530273 0.27118873596191406 15.237500190734863 0.19618874788284302 15.925000190734863 C 0.13368874788284302 16.612499237060547 0.04618874937295914 18.975000381469727 0.021188750863075256 21.174999237060547 C -0.053811248391866684 25.787500381469727 0.05868874862790108 27.225000381469727 0.5461887717247009 27.612499237060547 C 0.808688759803772 27.825000762939453 1.3461887836456299 27.837499618530273 9.24618911743164 27.837499618530273 C 13.883688926696777 27.837499618530273 17.733688354492188 27.799999237060547 17.80868911743164 27.75 C 18.096189498901367 27.575000762939453 18.00868797302246 26.700000762939453 17.63368797302246 25.924999237060547 C 17.43368911743164 25.512500762939453 17.283689498901367 25.137500762939453 17.30868911743164 25.087499618530273 C 17.346189498901367 24.950000762939453 16.733688354492188 23.637500762939453 16.596189498901367 23.549999237060547 C 16.502248764038086 23.46898651123047 16.451414108276367 23.348833084106445 16.458688735961914 23.225000381469727 C 16.458688735961914 22.899999618530273 15.87118911743164 21.737499237060547 15.708688735961914 21.737499237060547 C 15.633688926696777 21.737499237060547 15.521188735961914 21.587499618530273 15.458688735961914 21.412500381469727 C 15.358688354492188 21.162500381469727 15.28368854522705 21.112499237060547 15.046188354492188 21.174999237060547 C 14.646188735961914 21.299999237060547 13.958688735961914 21.737499237060547 13.958688735961914 21.875 C 13.958688735961914 21.9375 13.87118911743164 21.987499237060547 13.771188735961914 21.987499237060547 C 13.521188735961914 21.987499237060547 12.133688926696777 22.6875 12.021188735961914 22.862499237060547 C 11.990801811218262 22.928762435913086 11.915128707885742 22.961193084716797 11.84618854522705 22.9375 C 11.80868911743164 22.899999618530273 11.37118911743164 23.0 10.896188735961914 23.137500762939453 C 10.368218421936035 23.2893009185791 9.820440292358398 23.360933303833008 9.271188735961914 23.350000381469727 C 8.858688354492188 23.337499618530273 8.383688926696777 23.325000762939453 8.208688735961914 23.337499618530273 C 8.079246520996094 23.346240997314453 7.949811935424805 23.32035255432129 7.833688735961914 23.262500762939453 C 7.567015171051025 23.079511642456055 7.282174110412598 22.924524307250977 6.983688831329346 22.799999237060547 C 6.283688545227051 22.462499618530273 6.171188831329346 22.350000381469727 5.821188926696777 21.674999237060547 C 5.596188545227051 21.262500762939453 5.383688926696777 20.899999618530273 5.346188545227051 20.862499237060547 C 5.296188831329346 20.825000762939453 5.196188926696777 20.299999237060547 5.121188640594482 19.700000762939453 C 5.008688926696777 18.762500762939453 5.021188735961914 18.487499237060547 5.221188545227051 17.774999618530273 C 5.346188545227051 17.3125 5.421188831329346 16.899999618530273 5.383688926696777 16.850000381469727 C 5.358688831329346 16.799999237060547 5.646188735961914 16.4375 6.021188735961914 16.037500381469727 C 6.396188735961914 15.625 6.708688735961914 15.262499809265137 6.708688735961914 15.199999809265137 C 6.708688735961914 15.149999618530273 6.783688545227051 15.112500190734863 6.871188640594482 15.112500190734863 C 7.220365524291992 15.019108772277832 7.562816143035889 14.902174949645996 7.896188735961914 14.762499809265137 C 8.62118911743164 14.462499618530273 8.84618854522705 14.425000190734863 9.24618911743164 14.512499809265137 C 9.555679321289062 14.579771995544434 9.868659019470215 14.62984848022461 10.18368911743164 14.662500381469727 C 10.502859115600586 14.698741912841797 10.814716339111328 14.783027648925781 11.108688354492188 14.912500381469727 C 11.771188735961914 15.199999809265137 12.09618854522705 15.212499618530273 12.22118854522705 14.949999809265137 C 12.28368854522705 14.837499618530273 12.396188735961914 14.637499809265137 12.458688735961914 14.512499809265137 C 12.74618911743164 14.024999618530273 13.108688354492188 13.162500381469727 13.133688926696777 12.899999618530273 C 13.149154663085938 12.742578506469727 13.205140113830566 12.591848373413086 13.296188354492188 12.462499618530273 C 13.521188735961914 12.199999809265137 13.958688735961914 10.962499618530273 13.883688926696777 10.837499618530273 C 13.84618854522705 10.774999618530273 13.90868854522705 10.612500190734863 14.021188735961914 10.487500190734863 C 14.169867515563965 10.27148723602295 14.264205932617188 10.02277660369873 14.296188354492188 9.762499809265137 C 14.34618854522705 9.362500190734863 14.321188926696777 9.237500190734863 14.133688926696777 9.137499809265137 C 14.044088363647461 9.076618194580078 13.941227912902832 9.038044929504395 13.833688735961914 9.024999618530273 C 13.796188354492188 9.024999618530273 13.55868911743164 8.949999809265137 13.28368854522705 8.862500190734863 C 12.959421157836914 8.76602840423584 12.61744499206543 8.744654655456543 12.28368854522705 8.800000190734863 C 12.008688926696777 8.837499618530273 11.546188354492188 8.899999618530273 11.28368854522705 8.9375 C 10.59618854522705 9.012499809265137 9.858688354492188 9.225000381469727 9.771188735961914 9.362500190734863 C 9.733688354492188 9.4375 9.571188926696777 9.487500190734863 9.421188354492188 9.487500190734863 C 9.083688735961914 9.487500190734863 8.083688735961914 9.850000381469727 7.821188926696777 10.074999809265137 C 7.708688735961914 10.175000190734863 7.571188926696777 10.237500190734863 7.508688926696777 10.212499618530273 C 7.31525182723999 10.211061477661133 7.1222991943359375 10.232034683227539 6.933688640594482 10.274999618530273 C 6.346188545227051 10.399999618530273 5.808688640594482 10.149999618530273 5.758688926696777 9.725000381469727 C 5.733688831329346 9.5625 5.671188831329346 9.112500190734863 5.608688831329346 8.737500190734863 C 5.533688545227051 8.362500190734863 5.533688545227051 7.974999904632568 5.596188545227051 7.862500190734863 C 5.720144748687744 7.556948184967041 5.824522495269775 7.243814945220947 5.908688545227051 6.925000190734863 C 6.083688735961914 6.300000190734863 6.258688926696777 6.050000190734863 6.883688926696777 5.425000190734863 C 7.296188831329346 5.012499809265137 7.696188926696777 4.675000190734863 7.771188735961914 4.675000190734863 C 7.833688735961914 4.662499904632568 8.233688354492188 4.5625 8.646188735961914 4.425000190734863 C 9.358688354492188 4.199999809265137 11.708688735961914 4.0625 11.708688735961914 4.25 C 11.708688735961914 4.3125 12.071188926696777 4.425000190734863 13.18368911743164 4.699999809265137 C 13.401609420776367 4.768723964691162 13.602045059204102 4.8838677406311035 13.771188735961914 5.037499904632568 C 13.99373722076416 5.233888626098633 14.236808776855469 5.405714511871338 14.49618911743164 5.550000190734863 L 14.921188354492188 5.775000095367432 L 15.34618854522705 5.349999904632568 C 15.617484092712402 5.05764627456665 15.841054916381836 4.724399089813232 16.00868797302246 4.362500190734863 C 16.106748580932617 4.1062493324279785 16.21943473815918 3.855837821960449 16.346189498901367 3.612499952316284 C 16.74618911743164 2.924999952316284 17.18368911743164 2.012500047683716 17.13368797302246 1.9500000476837158 C 17.096189498901367 1.912500023841858 17.171188354492188 1.725000023841858 17.32118797302246 1.524999976158142 C 17.671188354492188 1.024999976158142 17.75868797302246 0.6000000238418579 17.533689498901367 0.30000001192092896 C 17.358688354492188 0.05000000074505806 17.19618797302246 0.05000000074505806 10.108688354492188 0.02500000037252903 L 2.8711886405944824 -4.2327252813834093e-16 L 2.59618878364563 0.36250001192092896" stroke-width="0.0" fill="rgb(0, 0, 0)" opacity="1.0"/>
  </g>
</svg>
