<?xml version="1.0" ?>
<svg xmlns="http://www.w3.org/2000/svg" version="1.1" width="600" height="600">
  <defs/>
  <g>
    <path d="M 1.649999976158142 0.21250000596046448 C 1.5144423246383667 0.3150573968887329 1.4175307750701904 0.4604246914386749 1.375 0.625 C 1.3424681425094604 0.7566731572151184 1.2828694581985474 0.8801277279853821 1.2000000476837158 0.987500011920929 C 1.0 1.25 0.7749999761581421 2.0374999046325684 0.762499988079071 2.5 C 0.7668885588645935 2.694844961166382 0.7239981293678284 2.8878519535064697 0.637499988079071 3.0625 C 0.5625 3.1500000953674316 0.5 3.612499952316284 0.4749999940395355 4.087500095367432 C 0.4625000059604645 4.5625 0.4124999940395355 5.0 0.375 5.0625 C 0.17499999701976776 5.387499809265137 0.0 10.524999618530273 0.0 15.912500381469727 C 0.012500000186264515 22.225000381469727 0.02500000037252903 22.950000762939453 0.17499999701976776 23.037500381469727 C 0.23749999701976776 23.087499618530273 0.26249998807907104 23.3125 0.21250000596046448 23.5625 C 0.10000000149011612 24.174999237060547 0.574999988079071 27.100000381469727 0.800000011920929 27.100000381469727 C 0.862500011920929 27.100000381469727 0.9375 27.237499237060547 0.987500011920929 27.412500381469727 C 1.0202271938323975 27.568431854248047 1.1211528778076172 27.70146942138672 1.2625000476837158 27.774999618530273 C 1.3875000476837158 27.8125 2.6624999046325684 27.837499618530273 4.112500190734863 27.837499618530273 L 6.75 27.837499618530273 L 6.900000095367432 27.524999618530273 C 7.037499904632568 27.200000762939453 6.875 26.037500381469727 6.650000095367432 25.799999237060547 C 6.567617893218994 25.642200469970703 6.528785228729248 25.465295791625977 6.537499904632568 25.287500381469727 C 6.510271072387695 24.928007125854492 6.4474639892578125 24.572099685668945 6.349999904632568 24.225000381469727 C 6.234317779541016 23.760469436645508 6.150786876678467 23.288516998291016 6.099999904632568 22.8125 C 6.0625 22.412500381469727 5.987500190734863 21.987499237060547 5.925000190734863 21.875 C 5.862500190734863 21.762500762939453 5.8125 21.25 5.800000190734863 20.737499237060547 C 5.799653053283691 20.39447593688965 5.774588108062744 20.051921844482422 5.724999904632568 19.712499618530273 C 5.6875 19.662500381469727 5.724999904632568 19.225000381469727 5.800000190734863 18.762500762939453 C 5.875 18.299999237060547 5.949999809265137 17.825000762939453 5.962500095367432 17.712499618530273 C 5.974999904632568 17.462499618530273 7.162499904632568 15.850000381469727 7.324999809265137 15.850000381469727 C 7.649143695831299 15.764897346496582 7.966651916503906 15.656275749206543 8.274999618530273 15.524999618530273 C 9.087499618530273 15.199999809265137 9.3125 15.175000190734863 10.912500381469727 15.274999618530273 C 11.140921592712402 15.299447059631348 11.364303588867188 15.358453750610352 11.574999809265137 15.449999809265137 C 12.449999809265137 15.824999809265137 12.912500381469727 15.737500190734863 12.912500381469727 15.212499618530273 C 12.912500381469727 15.074999809265137 12.962499618530273 14.975000381469727 13.024999618530273 14.975000381469727 C 13.149999618530273 14.975000381469727 13.5625 13.862500190734863 13.612500190734863 13.375 C 13.623954772949219 13.22050952911377 13.671016693115234 13.070767402648926 13.75 12.9375 C 13.912500381469727 12.725000381469727 14.162500381469727 11.8125 14.162500381469727 11.4375 C 14.162500381469727 11.262499809265137 14.212499618530273 11.087499618530273 14.274999618530273 11.050000190734863 C 14.337499618530273 11.012499809265137 14.425000190734863 10.774999618530273 14.475000381469727 10.524999618530273 C 14.587499618530273 9.925000190734863 14.274999618530273 9.550000190734863 13.762499809265137 9.662500381469727 C 13.524999618530273 9.725000381469727 13.412500381469727 9.699999809265137 13.412500381469727 9.587499618530273 C 13.412500381469727 9.475000381469727 13.225000381469727 9.462499618530273 12.699999809265137 9.537500381469727 C 12.300000190734863 9.587499618530273 11.699999809265137 9.649999618530273 11.350000381469727 9.675000190734863 C 10.587499618530273 9.737500190734863 9.824999809265137 9.9375 9.725000381469727 10.100000381469727 C 9.6875 10.175000190734863 9.537500381469727 10.225000381469727 9.387499809265137 10.225000381469727 C 9.25 10.225000381469727 8.787500381469727 10.387499809265137 8.362500190734863 10.587499618530273 C 7.5 10.987500190734863 6.650000095367432 11.149999618530273 6.112500190734863 11.0 C 5.775000095367432 10.912500381469727 5.737500190734863 10.837499618530273 5.699999809265137 10.274999618530273 C 5.675623893737793 9.945731163024902 5.621231555938721 9.619376182556152 5.537499904632568 9.300000190734863 C 5.456080436706543 9.035285949707031 5.456080436706543 8.752214431762695 5.537499904632568 8.487500190734863 C 5.6164469718933105 8.154927253723145 5.666632175445557 7.8161773681640625 5.6875 7.474999904632568 C 5.724999904632568 7.050000190734863 5.875 6.6875 6.324999809265137 6.0 C 6.662499904632568 5.512499809265137 6.974999904632568 5.099999904632568 7.037499904632568 5.099999904632568 C 7.340022087097168 4.976970672607422 7.63256311416626 4.830700397491455 7.912499904632568 4.662499904632568 C 8.337499618530273 4.425000190734863 8.762499809265137 4.237500190734863 8.837499618530273 4.25 C 9.175959587097168 4.249852657318115 9.514092445373535 4.22898006439209 9.850000381469727 4.1875 C 10.413605690002441 4.127898693084717 10.983080863952637 4.157426834106445 11.537500381469727 4.275000095367432 C 11.987500190734863 4.375 12.399999618530273 4.425000190734863 12.449999809265137 4.387499809265137 C 12.512499809265137 4.349999904632568 12.649999618530273 4.412499904632568 12.762499809265137 4.5 C 13.087499618530273 4.775000095367432 14.175000190734863 5.349999904632568 14.375 5.349999904632568 C 14.482320785522461 5.36478328704834 14.573212623596191 5.436540603637695 14.612500190734863 5.537499904632568 C 14.75 5.875 15.149999618530273 5.737500190734863 15.475000381469727 5.262499809265137 C 15.649999618530273 5.0 15.787500381469727 4.699999809265137 15.787500381469727 4.587500095367432 C 15.805212020874023 4.441977500915527 15.876518249511719 4.308278560638428 15.987500190734863 4.212500095367432 C 16.25 4.0 16.8125 2.875 16.725000381469727 2.7249999046325684 C 16.6875 2.674999952316284 16.75 2.5374999046325684 16.850000381469727 2.424999952316284 C 17.174999237060547 2.112499952316284 17.537500381469727 1.1875 17.537500381469727 0.6875 C 17.537500381469727 0.3125 17.475000381469727 0.20000000298023224 17.25 0.11249999701976776 C 17.087499618530273 0.05000000074505806 13.574999809265137 0.0 9.4375 0.0 C 2.6500000953674316 0.0 1.875 0.02500000037252903 1.649999976158142 0.21250000596046448" stroke-width="0.0" fill="rgb(0, 0, 0)" opacity="1.0"/>
  </g>
</svg>
