<?xml version="1.0" ?>
<svg xmlns="http://www.w3.org/2000/svg" version="1.1" width="600" height="600">
  <defs/>
  <g>
    <path d="M 11.032922744750977 0.043613750487565994 C 10.846430778503418 0.05905042588710785 10.666378021240234 0.11906812340021133 10.507922172546387 0.21861374378204346 C 10.4082612991333 0.29489755630493164 10.277826309204102 0.31818950176239014 10.157922744750977 0.28111374378204346 C 9.93292236328125 0.18111374974250793 8.720422744750977 0.5311137437820435 8.45792293548584 0.7686137557029724 C 8.345422744750977 0.8686137795448303 8.232922554016113 0.9061137437820435 8.195422172546387 0.8686137795448303 C 8.08292293548584 0.7686137557029724 7.082922458648682 1.2936137914657593 6.695422649383545 1.6561137437820435 C 6.576400279998779 1.7904810905456543 6.42615270614624 1.8935078382492065 6.257922649383545 1.9561136960983276 C 6.095422267913818 1.9186137914657593 5.107922554016113 2.7436137199401855 5.095422267913818 2.9186136722564697 C 5.095422267913818 3.0061137676239014 4.957922458648682 3.1311137676239014 4.795422554016113 3.1811137199401855 C 4.520422458648682 3.2936136722564697 3.6579225063323975 4.256113529205322 3.6579225063323975 4.468613624572754 C 3.6195127964019775 4.571081161499023 3.549459218978882 4.6586480140686035 3.4579224586486816 4.718613624572754 C 3.132922410964966 4.981113910675049 2.445422410964966 6.0561137199401855 2.5329225063323975 6.1811137199401855 C 2.570422410964966 6.256113529205322 2.5204224586486816 6.343613624572754 2.4204225540161133 6.406113624572754 C 2.195422410964966 6.531113624572754 1.5954225063323975 7.7436137199401855 1.5954225063323975 8.056114196777344 C 1.5954225063323975 8.19361400604248 1.5454225540161133 8.31861400604248 1.4829225540161133 8.343613624572754 C 1.3329224586486816 8.406113624572754 0.8329225182533264 9.81861400604248 0.9204224944114685 9.956113815307617 C 0.9468038082122803 10.066280364990234 0.9189302325248718 10.18242073059082 0.8454225063323975 10.268613815307617 C 0.6329224705696106 10.50611400604248 0.34542250633239746 11.79361343383789 0.43292251229286194 12.031113624572754 C 0.46742063760757446 12.133331298828125 0.43795713782310486 12.246274948120117 0.3579224944114685 12.31861400604248 C 0.257922500371933 12.368614196777344 0.18292249739170074 12.781113624572754 0.1704224944114685 13.331113815307617 C 0.15902644395828247 13.708861351013184 0.11722463369369507 14.085078239440918 0.0454225018620491 14.456113815307617 C -0.06707750260829926 14.718613624572754 0.0454225018620491 17.868614196777344 0.20792250335216522 19.006113052368164 C 0.25613221526145935 19.43116569519043 0.34829181432724 19.850072860717773 0.4829224944114685 20.256113052368164 C 0.5750066637992859 20.488365173339844 0.6339186429977417 20.73242950439453 0.6579225063323975 20.98111343383789 C 0.734088122844696 21.325626373291016 0.8472444415092468 21.660903930664062 0.9954224824905396 21.98111343383789 C 1.1704225540161133 22.331113815307617 1.4329224824905396 22.931114196777344 1.5954225063323975 23.29361343383789 C 1.7704224586486816 23.66861343383789 2.007922410964966 24.04361343383789 2.132922410964966 24.131113052368164 C 2.2528281211853027 24.214174270629883 2.3444323539733887 24.331951141357422 2.3954224586486816 24.46861457824707 C 2.432922601699829 24.768613815307617 3.2329225540161133 25.706113815307617 3.557922601699829 25.831113815307617 C 3.7204225063323975 25.893613815307617 3.8329224586486816 25.993614196777344 3.7954225540161133 26.04361343383789 C 3.7079224586486816 26.181114196777344 4.87042236328125 27.068613052368164 5.132922649383545 27.068613052368164 C 5.256140232086182 27.07225799560547 5.369099140167236 27.138151168823242 5.43292236328125 27.243614196777344 C 5.570422649383545 27.48111343383789 6.832922458648682 28.09361457824707 6.982922554016113 27.993614196777344 C 7.05792236328125 27.956113815307617 7.207922458648682 28.006113052368164 7.320422649383545 28.10611343383789 C 7.532922267913818 28.28111457824707 8.695422172546387 28.60611343383789 8.920422554016113 28.556114196777344 C 9.128451347351074 28.568178176879883 9.334184646606445 28.605966567993164 9.532922744750977 28.66861343383789 C 9.93292236328125 28.78111457824707 12.320422172546387 28.806114196777344 13.345422744750977 28.693613052368164 C 14.070422172546387 28.631113052368164 15.095422744750977 28.393613815307617 15.095422744750977 28.306114196777344 C 15.095422744750977 28.243614196777344 15.232922554016113 28.193613052368164 15.39542293548584 28.193613052368164 C 15.795422554016113 28.193613052368164 16.882923126220703 27.71861457824707 17.007923126220703 27.493614196777344 C 17.088586807250977 27.381126403808594 17.219533920288086 27.31565284729004 17.357921600341797 27.318613052368164 C 17.832921981811523 27.318613052368164 19.720422744750977 25.21861457824707 19.720422744750977 24.681114196777344 C 19.75140953063965 24.46697425842285 19.81906509399414 24.259775161743164 19.920421600341797 24.068613052368164 C 20.157922744750977 23.60611343383789 20.232921600341797 22.268613815307617 20.082921981811523 21.131113052368164 C 20.020421981811523 20.71861457824707 19.957921981811523 20.018613815307617 19.920421600341797 19.568613052368164 C 19.80792236328125 17.98111343383789 19.707921981811523 17.131113052368164 19.582921981811523 16.631113052368164 C 19.49355125427246 16.26160430908203 19.435016632080078 15.885311126708984 19.407922744750977 15.50611400604248 C 19.385164260864258 15.165483474731445 19.31792640686035 14.82929515838623 19.207921981811523 14.50611400604248 C 19.131671905517578 14.33678913116455 19.08921241760254 14.154208183288574 19.082921981811523 13.968613624572754 C 19.12042236328125 13.75611400604248 18.757923126220703 13.19361400604248 18.582921981811523 13.19361400604248 C 18.380624771118164 13.245108604431152 18.183853149414062 13.31628131866455 17.99542236328125 13.406113624572754 C 17.78364372253418 13.505518913269043 17.56143569946289 13.580986022949219 17.332921981811523 13.63111400604248 C 16.93292236328125 13.681114196777344 15.845422744750977 14.093613624572754 15.845422744750977 14.206113815307617 C 15.845422744750977 14.268613815307617 15.732922554016113 14.31861400604248 15.595422744750977 14.31861400604248 C 15.24542236328125 14.31861400604248 14.02042293548584 14.79361343383789 13.845422744750977 15.00611400604248 C 13.757922172546387 15.10611343383789 13.64542293548584 15.156113624572754 13.58292293548584 15.118614196777344 C 13.445422172546387 15.04361343383789 12.345422744750977 15.656113624572754 12.345422744750977 15.806114196777344 C 12.345422744750977 16.03111457824707 13.782922744750977 17.306114196777344 14.220422744750977 17.46861457824707 C 14.320422172546387 17.506113052368164 14.570422172546387 17.943613052368164 14.757922172546387 18.431114196777344 C 15.05792236328125 19.23111343383789 15.08292293548584 19.40611457824707 14.982922554016113 19.91861343383789 C 14.795422554016113 20.831113815307617 14.55792236328125 21.41861343383789 14.345422744750977 21.493614196777344 C 13.911968231201172 21.734134674072266 13.501863479614258 22.01451301574707 13.12042236328125 22.331113815307617 C 13.032922744750977 22.40611457824707 12.695422172546387 22.493614196777344 12.37042236328125 22.518613815307617 C 12.033784866333008 22.556171417236328 11.699808120727539 22.6146183013916 11.37042236328125 22.693613052368164 C 11.08292293548584 22.768613815307617 10.695422172546387 22.743614196777344 10.12042236328125 22.631113052368164 C 9.77023983001709 22.547826766967773 9.415460586547852 22.485218048095703 9.05792236328125 22.443613052368164 C 8.921637535095215 22.438030242919922 8.79051399230957 22.389951705932617 8.68292236328125 22.306114196777344 C 8.286821365356445 22.011091232299805 7.873598098754883 21.739784240722656 7.445422649383545 21.493614196777344 C 7.320422649383545 21.41861343383789 7.045422554016113 21.03111457824707 6.832922458648682 20.618614196777344 C 6.665775299072266 20.29172134399414 6.473532676696777 19.978282928466797 6.257922649383545 19.681114196777344 C 6.170422554016113 19.568613052368164 6.095422267913818 19.431114196777344 6.12042236328125 19.368614196777344 C 6.145422458648682 19.243614196777344 5.857922554016113 17.943613052368164 5.757922649383545 17.78111457824707 C 5.707922458648682 17.693613052368164 5.62042236328125 16.60611343383789 5.570422649383545 15.56861400604248 C 5.55792236328125 15.06861400604248 5.695422649383545 13.218613624572754 5.757922649383545 13.10611343383789 C 5.833460807800293 12.824142456054688 5.879540920257568 12.53509521484375 5.895422458648682 12.243614196777344 C 5.955446720123291 11.737317085266113 6.068569183349609 11.238739013671875 6.232922554016113 10.75611400604248 C 6.349067687988281 10.450207710266113 6.44510555267334 10.137041091918945 6.520422458648682 9.81861400604248 C 6.6396331787109375 9.472262382507324 6.790259838104248 9.13753604888916 6.970422267913818 8.81861400604248 C 7.140638828277588 8.503331184387207 7.290933132171631 8.177693367004395 7.420422554016113 7.843613624572754 C 7.478967189788818 7.693998336791992 7.57863712310791 7.563994407653809 7.707922458648682 7.468613624572754 C 7.961582660675049 7.225617408752441 8.19956111907959 6.966763496398926 8.420422554016113 6.693613529205322 C 8.670422554016113 6.381113529205322 8.907922744750977 6.143613815307617 8.95792293548584 6.156113624572754 C 8.99542236328125 6.168613910675049 9.12042236328125 6.106113910675049 9.220422744750977 6.006113529205322 C 9.418286323547363 5.864439010620117 9.627303123474121 5.739028453826904 9.845422744750977 5.631113529205322 C 10.055145263671875 5.517662525177002 10.25574779510498 5.3881072998046875 10.445422172546387 5.2436137199401855 C 10.532922744750977 5.143613815307617 10.657922744750977 5.093613624572754 10.720422744750977 5.131113529205322 C 10.77042293548584 5.168613910675049 11.20792293548584 5.1186137199401855 11.670422554016113 5.018613815307617 C 12.420422554016113 4.856113910675049 12.632922172546387 4.856113910675049 13.52042293548584 5.043613910675049 C 14.345422744750977 5.206113815307617 14.58292293548584 5.3061137199401855 14.845422744750977 5.606113910675049 C 15.282922744750977 6.131113529205322 15.55792236328125 6.718613624572754 15.570422172546387 7.193613529205322 C 15.57982063293457 7.423864364624023 15.658211708068848 7.6459736824035645 15.795422554016113 7.831113815307617 C 15.99542236328125 8.04361343383789 16.132923126220703 8.06861400604248 16.820423126220703 8.00611400604248 C 17.257923126220703 7.968613624572754 17.795421600341797 7.8686137199401855 18.007923126220703 7.768613815307617 C 18.582921981811523 7.531113624572754 19.43292236328125 6.706113815307617 19.632923126220703 6.193613529205322 C 19.857921600341797 5.631113529205322 19.845422744750977 3.718613862991333 19.62042236328125 3.581113815307617 C 19.51064109802246 3.482591152191162 19.43602752685547 3.3509199619293213 19.407922744750977 3.206113815307617 C 19.345422744750977 2.893613815307617 19.220422744750977 2.706113815307617 18.732921600341797 2.1686136722564697 C 18.570423126220703 1.9811137914657593 18.382923126220703 1.8561137914657593 18.332921981811523 1.8936136960983276 C 18.282922744750977 1.9186137914657593 18.170421600341797 1.8311136960983276 18.095422744750977 1.6936137676239014 C 17.945423126220703 1.4061137437820435 16.857921600341797 0.8186137676239014 16.470422744750977 0.8186137676239014 C 16.332921981811523 0.8186137676239014 16.220422744750977 0.7686137557029724 16.220422744750977 0.7061137557029724 C 16.220422744750977 0.5686137676239014 14.757922172546387 0.15611374378204346 14.58292293548584 0.256113737821579 C 14.479784965515137 0.30098757147789 14.359560012817383 0.2759406864643097 14.282922744750977 0.19361375272274017 C 14.12042236328125 0.056113749742507935 11.74542236328125 -0.06888625025749207 11.032922744750977 0.043613750487565994" stroke-width="0.0" fill="rgb(0, 0, 0)" opacity="1.0"/>
  </g>
</svg>
