<?xml version="1.0" ?>
<svg xmlns="http://www.w3.org/2000/svg" version="1.1" width="600" height="600">
  <defs/>
  <g>
    <path d="M 7.251049995422363 0.026012500748038292 C 7.226049900054932 0.06351249665021896 6.0135498046875 0.08851250261068344 4.5760498046875 0.08851250261068344 L 1.951050043106079 0.10101249814033508 L 1.7510499954223633 0.4510124921798706 C 1.626059889793396 0.6552388072013855 1.5530929565429688 0.8870158195495605 1.5385500192642212 1.1260124444961548 C 1.5385500192642212 1.3010125160217285 1.4885499477386475 1.4510124921798706 1.4260499477386475 1.4510124921798706 C 1.3135499954223633 1.4510124921798706 0.9885500073432922 2.7885124683380127 1.0510499477386475 3.01351261138916 C 1.0393434762954712 3.2256734371185303 1.0015592575073242 3.4355859756469727 0.9385499954223633 3.63851261138916 C 0.8427851796150208 4.049999713897705 0.7759550213813782 4.467688083648682 0.7385500073432922 4.88851261138916 C 0.7273358106613159 5.203608989715576 0.6897038221359253 5.517209053039551 0.6260499954223633 5.82601261138916 C 0.5135499835014343 6.1135125160217285 0.27605000138282776 9.163512229919434 0.23855000734329224 10.63851261138916 C 0.22605000436306 11.11351203918457 0.17605000734329224 11.588512420654297 0.12604999542236328 11.663512229919434 C 0.01355000026524067 11.838512420654297 0.01355000026524067 11.938512802124023 0.0010499999625608325 18.013511657714844 C -0.01145000010728836 22.213512420654297 0.08855000138282776 25.36351203918457 0.2510499954223633 25.626012802124023 C 0.3114296793937683 25.78095817565918 0.33288976550102234 25.948347091674805 0.3135499954223633 26.11351203918457 C 0.2635500133037567 26.66351318359375 0.5260499715805054 27.463512420654297 0.8260499835014343 27.713512420654297 C 1.0635499954223633 27.901012420654297 1.4135500192642212 27.92601203918457 3.888550043106079 27.92601203918457 L 6.676050186157227 27.92601203918457 L 6.851049900054932 27.576011657714844 C 7.0135498046875 27.276012420654297 7.001049995422363 27.16351318359375 6.788549900054932 26.588512420654297 C 6.651050090789795 26.23851203918457 6.488550186157227 25.85101318359375 6.426050186157227 25.72601318359375 C 6.276050090789795 25.438512802124023 5.913549900054932 23.888511657714844 5.838550090789795 23.263511657714844 C 5.813549995422363 22.98851203918457 5.738550186157227 22.47601318359375 5.676050186157227 22.138511657714844 C 5.60427188873291 21.645671844482422 5.562528133392334 21.148921966552734 5.551050186157227 20.651012420654297 C 5.538549900054932 20.16351318359375 5.501049995422363 19.73851203918457 5.463550090789795 19.688512802124023 C 5.438549995422363 19.638511657714844 5.501049995422363 19.23851203918457 5.626049995422363 18.80101203918457 C 5.738550186157227 18.376012802124023 5.838550090789795 17.92601203918457 5.851049900054932 17.826011657714844 C 5.863550186157227 17.638511657714844 5.988550186157227 17.47601318359375 6.7010498046875 16.638511657714844 C 6.840568542480469 16.487089157104492 6.954554080963135 16.31399917602539 7.038549900054932 16.126012802124023 C 7.051050186157227 16.063512802124023 7.3885498046875 15.838512420654297 7.813549995422363 15.63851261138916 C 8.123478889465332 15.490381240844727 8.424042701721191 15.323402404785156 8.713549613952637 15.13851261138916 C 8.876049995422363 14.98851203918457 10.41355037689209 14.57601261138916 11.03855037689209 14.51351261138916 C 12.463549613952637 14.376012802124023 13.126049995422363 14.413512229919434 13.9510498046875 14.713512420654297 C 14.801050186157227 15.01351261138916 14.813549995422363 15.01351261138916 15.063549995422363 15.70101261138916 C 15.238550186157227 16.213512420654297 15.313549995422363 16.751012802124023 15.3260498046875 17.80101203918457 C 15.338549613952637 18.563512802124023 15.313549995422363 19.213512420654297 15.2635498046875 19.23851203918457 C 15.213549613952637 19.251012802124023 15.151049613952637 19.67601203918457 15.113550186157227 20.17601203918457 C 15.0760498046875 20.66351318359375 15.0135498046875 21.138511657714844 14.963549613952637 21.213512420654297 C 14.8260498046875 21.438512802124023 14.551050186157227 22.751012802124023 14.626049995422363 22.86351203918457 C 14.645021438598633 22.95799446105957 14.617073059082031 23.055814743041992 14.551050186157227 23.126012802124023 C 14.338549613952637 23.376012802124023 14.0135498046875 24.35101318359375 14.0135498046875 24.72601318359375 C 14.026049613952637 24.92601203918457 13.97605037689209 25.076011657714844 13.926050186157227 25.076011657714844 C 13.78855037689209 25.076011657714844 13.338549613952637 26.36351203918457 13.22605037689209 27.026012420654297 C 13.10105037689209 27.86351203918457 13.16355037689209 27.888511657714844 16.401050567626953 27.91351318359375 C 19.101049423217773 27.92601203918457 19.776050567626953 27.86351203918457 19.588550567626953 27.563512802124023 C 19.551050186157227 27.48851203918457 19.601049423217773 27.338512420654297 19.7010498046875 27.22601318359375 C 19.963550567626953 26.938512802124023 20.06355094909668 26.251012802124023 20.238550186157227 23.513511657714844 C 20.338550567626953 22.013511657714844 20.351049423217773 13.92601203918457 20.25105094909668 12.51351261138916 C 20.06355094909668 9.76351261138916 20.0135498046875 9.26351261138916 19.901050567626953 9.11351203918457 C 19.822385787963867 9.005304336547852 19.799232482910156 8.866384506225586 19.838550567626953 8.73851203918457 C 19.87605094909668 8.61351203918457 19.851049423217773 8.20101261138916 19.776050567626953 7.82601261138916 C 19.713550567626953 7.45101261138916 19.62605094909668 6.963512420654297 19.613550186157227 6.76351261138916 C 19.538549423217773 6.038512706756592 19.37605094909668 5.13851261138916 19.301050186157227 5.01351261138916 C 19.240018844604492 4.823413848876953 19.206348419189453 4.625597953796387 19.2010498046875 4.4260125160217285 C 19.164018630981445 4.084057807922363 19.084228515625 3.748100757598877 18.963550567626953 3.4260125160217285 C 18.875146865844727 3.1908748149871826 18.80820655822754 2.94821834564209 18.7635498046875 2.70101261138916 C 18.7635498046875 2.4135124683380127 18.401050567626953 1.2885124683380127 18.238550186157227 1.0885125398635864 C 18.12946128845215 0.9118649363517761 18.041364669799805 0.7230875492095947 17.976049423217773 0.5260124802589417 L 17.851049423217773 0.1385125070810318 L 15.85105037689209 0.12601250410079956 C 14.751049995422363 0.11351250112056732 13.563549995422363 0.06351249665021896 13.2010498046875 0.026012500748038292 C 12.801050186157227 -0.023987499997019768 12.526049613952637 0.0010125000262632966 12.47605037689209 0.0760124996304512 C 12.389290809631348 0.15866737067699432 12.262277603149414 0.1830928921699524 12.151049613952637 0.1385125070810318 C 11.651049613952637 -0.023987499997019768 11.688549995422363 0.7010124921798706 12.213549613952637 1.4885125160217285 C 12.3885498046875 1.7385125160217285 12.5135498046875 1.9510124921798706 12.47605037689209 1.9510124921798706 C 12.3885498046875 1.9510124921798706 13.051050186157227 3.38851261138916 13.176050186157227 3.463512420654297 C 13.238550186157227 3.5010125637054443 13.3260498046875 3.6885125637054443 13.363550186157227 3.88851261138916 C 13.461424827575684 4.251011371612549 13.595429420471191 4.602773666381836 13.7635498046875 4.938512325286865 C 13.938549995422363 5.32601261138916 14.10105037689209 5.688512325286865 14.10105037689209 5.76351261138916 C 14.126049995422363 6.1135125160217285 14.463549613952637 7.32601261138916 14.53855037689209 7.32601261138916 C 14.588549613952637 7.32601261138916 14.6385498046875 7.8010125160217285 14.651049613952637 8.38851261138916 C 14.676050186157227 9.42601203918457 14.66355037689209 9.463512420654297 14.35105037689209 9.57601261138916 C 14.176050186157227 9.63851261138916 12.938549995422363 9.726012229919434 11.613550186157227 9.751012802124023 C 10.2010498046875 9.776012420654297 9.088549613952637 9.86351203918457 8.938549995422363 9.938512802124023 C 8.746135711669922 10.026348114013672 8.537545204162598 10.073174476623535 8.3260498046875 10.07601261138916 C 7.938549995422363 10.07601261138916 6.901050090789795 10.51351261138916 6.7635498046875 10.726012229919434 C 6.626049995422363 10.963512420654297 6.051050186157227 10.63851261138916 5.901050090789795 10.23851203918457 C 5.8260498046875 10.038512229919434 5.713550090789795 9.80101203918457 5.663549900054932 9.70101261138916 C 5.613550186157227 9.588512420654297 5.626049995422363 9.13851261138916 5.688549995422363 8.70101261138916 C 5.7431840896606445 8.35385513305664 5.759949207305908 8.001790046691895 5.738550186157227 7.651012420654297 C 5.699607849121094 7.524712562561035 5.71787691116333 7.387697219848633 5.788549900054932 7.276012420654297 C 5.909008979797363 6.970297336578369 5.992923736572266 6.6514201164245605 6.038549900054932 6.32601261138916 C 6.100176811218262 5.9659504890441895 6.187908172607422 5.610846996307373 6.301050186157227 5.26351261138916 C 6.484607219696045 4.771030902862549 6.630853176116943 4.265437126159668 6.738550186157227 3.7510125637054443 C 6.764040946960449 3.576353073120117 6.8189873695373535 3.4072861671447754 6.901050090789795 3.2510125637054443 C 7.1385498046875 2.82601261138916 7.413549900054932 2.0510125160217285 7.413549900054932 1.7885124683380127 C 7.426102638244629 1.6124780178070068 7.496405601501465 1.445508360862732 7.613550186157227 1.3135124444961548 C 7.75123929977417 1.109833836555481 7.829178333282471 0.8716859817504883 7.838550090789795 0.6260125041007996 C 7.851049900054932 0.2635124921798706 7.788549900054932 0.15101249516010284 7.5760498046875 0.0760124996304512 C 7.438549995422363 0.013512499630451202 7.288549900054932 -0.011487499810755253 7.251049995422363 0.026012500748038292" stroke-width="0.0" fill="rgb(0, 0, 0)" opacity="1.0"/>
  </g>
</svg>
