<?xml version="1.0" ?>
<svg xmlns="http://www.w3.org/2000/svg" version="1.1" width="600" height="600">
  <defs/>
  <g>
    <path d="M 2.079221248626709 0.05610499903559685 C 1.5292212963104248 0.2561050057411194 0.891721248626709 1.3186049461364746 0.90422123670578 1.9936050176620483 C 0.90422123670578 2.181104898452759 0.8667212724685669 2.368604898452759 0.8042212724685669 2.4061050415039062 C 0.65422123670578 2.5061049461364746 0.44172126054763794 3.9436049461364746 0.3667212426662445 5.443604946136475 C 0.3590703010559082 5.7885661125183105 0.31719836592674255 6.13191556930542 0.2417212426662445 6.468605041503906 C 0.029221249744296074 6.818604946136475 -0.09577874839305878 19.30610466003418 0.09172125160694122 22.531105041503906 C 0.21672125160694122 24.693605422973633 0.41672125458717346 26.393604278564453 0.5542212724685669 26.443605422973633 C 0.6292212605476379 26.468605041503906 0.6792212724685669 26.656105041503906 0.6792212724685669 26.86860466003418 C 0.6792212724685669 27.10610580444336 0.8042212724685669 27.35610580444336 1.041721224784851 27.593605041503906 L 1.391721248626709 27.956104278564453 L 3.941721200942993 27.956104278564453 C 7.279221057891846 27.956104278564453 7.141721248626709 27.98110580444336 7.116721153259277 27.24360466003418 C 7.079221248626709 26.406105041503906 6.916721343994141 25.593605041503906 6.779221057891846 25.593605041503906 C 6.716721057891846 25.593605041503906 6.679221153259277 25.468605041503906 6.691721439361572 25.30610466003418 C 6.729221343994141 24.943605422973633 6.554221153259277 23.693605422973633 6.429221153259277 23.531105041503906 C 6.379221439361572 23.456104278564453 6.329221248626709 23.156105041503906 6.316721439361572 22.85610580444336 C 6.304494857788086 22.49762535095215 6.254212379455566 22.14145851135254 6.166721343994141 21.79360580444336 C 6.081133842468262 21.440242767333984 6.02263069152832 21.080867767333984 5.991721153259277 20.718605041503906 C 5.891721248626709 18.956104278564453 5.754221439361572 17.581104278564453 5.679221153259277 17.531105041503906 C 5.629221439361572 17.49360466003418 5.616721153259277 17.081104278564453 5.654221057891846 16.60610580444336 C 5.679221153259277 16.131105422973633 5.666721343994141 15.631105422973633 5.616721153259277 15.506105422973633 C 5.516721248626709 15.24360466003418 5.504221439361572 11.30610466003418 5.604221343994141 10.843605041503906 C 5.669700622558594 10.429664611816406 5.711435317993164 10.012314796447754 5.729221343994141 9.593605041503906 C 5.816721439361572 8.39360523223877 6.004221439361572 6.8311052322387695 6.179221153259277 6.031105041503906 C 6.244089603424072 5.778194427490234 6.269389629364014 5.516761302947998 6.254221439361572 5.256104946136475 C 6.216721057891846 5.168604850769043 6.266721248626709 4.943604946136475 6.366721153259277 4.756104946136475 C 6.500781536102295 4.402135848999023 6.588997840881348 4.032467365264893 6.629221439361572 3.6561050415039062 C 6.679221153259277 3.243604898452759 6.754221439361572 2.8436050415039062 6.804221153259277 2.7811050415039062 C 6.916721343994141 2.6311049461364746 7.204221248626709 1.4311050176620483 7.166721343994141 1.2686049938201904 C 7.1646504402160645 1.1122008562088013 7.18571138381958 0.9563496112823486 7.229221343994141 0.8061050176620483 C 7.296905517578125 0.6387048959732056 7.283051490783691 0.4493699073791504 7.191721439361572 0.2936049997806549 C 7.016721248626709 0.08110500127077103 6.229221343994141 -0.08139500021934509 6.029221057891846 0.04360499978065491 C 5.879221439361572 0.13110500574111938 2.4917211532592773 0.14360499382019043 2.329221248626709 0.05610499903559685 C 2.247810125350952 0.030791567638516426 2.160632371902466 0.030791567638516426 2.079221248626709 0.05610499903559685" stroke-width="0.0" fill="rgb(0, 0, 0)" opacity="1.0"/>
  </g>
</svg>
