<?xml version="1.0" ?>
<svg xmlns="http://www.w3.org/2000/svg" version="1.1" width="600" height="600">
  <defs/>
  <g>
    <path d="M 1.3960000276565552 4.835999965667725 C 3.816814422607422 4.01536226272583 6.1316728591918945 2.91029953956604 8.291999816894531 1.5440000295639038 C 8.664369583129883 1.2689213752746582 9.091240882873535 1.0766245126724243 9.544000625610352 0.9800000190734863 C 9.98418140411377 0.9594904184341431 10.423583030700684 1.0345436334609985 10.831999778747559 1.2000000476837158 L 26.555999755859375 6.288000106811523 C 24.4539737701416 10.788680076599121 22.904050827026367 15.527091979980469 21.940000534057617 20.399999618530273 C 21.772001266479492 21.260000228881836 21.59600067138672 22.172000885009766 21.00800132751465 22.80000114440918 C 20.5219783782959 23.25516700744629 19.9454345703125 23.60272789001465 19.31599998474121 23.81999969482422 L 12.88800048828125 26.535999298095703 L 20.371999740600586 8.887999534606934 L 0.9920000433921814 5.220000267028809 L 1.3960000276565552 4.835999965667725" stroke-width="1.0" fill="rgb(143, 195, 31)" opacity="1.0"/>
    <path d="M 1.6639999151229858 5.800000190734863 C 3.241123676300049 5.2609357833862305 4.7782697677612305 4.611324310302734 6.263999938964844 3.8560001850128174 Q 7.360000133514404 3.2919998168945312 8.41200065612793 2.6559998989105225 C 8.72574234008789 2.43469500541687 9.05454158782959 2.2355449199676514 9.395999908447266 2.06000018119812 C 9.723888397216797 1.945120096206665 10.083418846130371 1.9608763456344604 10.40000057220459 2.1040000915527344 C 13.791999816894531 3.136000156402588 17.152000427246094 4.291999816894531 20.52400016784668 5.384000301361084 L 26.304000854492188 7.251999855041504 L 25.70400047302246 5.783999919891357 C 24.2471981048584 8.89549732208252 23.04330825805664 12.119247436523438 22.104000091552734 15.42400074005127 C 21.648000717163086 17.052000045776367 21.272001266479492 18.696001052856445 20.93600082397461 20.352001190185547 C 20.81599998474121 20.940000534057617 20.70800018310547 21.624000549316406 20.303998947143555 22.09600067138672 C 19.828001022338867 22.652000427246094 18.972000122070312 22.8960018157959 18.303998947143555 23.167999267578125 L 12.608000755310059 25.5679988861084 L 13.739999771118164 27.035999298095703 L 21.236000061035156 9.392000198364258 C 21.464000701904297 8.85200023651123 21.3439998626709 8.055999755859375 20.639999389648438 7.923999786376953 L 1.25600004196167 4.25600004196167 L 1.6959999799728394 5.927999973297119 L 2.0959999561309814 5.5279998779296875 C 3.0320000648498535 4.640000343322754 1.6160000562667847 3.2279999256134033 0.6800000071525574 4.111999988555908 L 0.2800000011920929 4.51200008392334 C -0.10821801424026489 4.907917022705078 -0.10197676718235016 5.54358434677124 0.2939402163028717 5.931802272796631 C 0.4131205976009369 6.0486650466918945 0.5595565438270569 6.133969783782959 0.7199999690055847 6.179999828338623 L 20.104000091552734 9.848000526428223 L 19.511999130249023 8.40000057220459 L 12.02400016784668 26.032001495361328 C 11.830606460571289 26.38496208190918 11.861907005310059 26.8184814453125 12.104000091552734 27.139999389648438 C 12.344029426574707 27.466873168945312 12.761772155761719 27.61037254333496 13.152000427246094 27.5 L 18.399999618530273 25.29199981689453 C 20.032001495361328 24.604000091552734 21.744001388549805 24.09200096130371 22.472000122070312 22.30000114440918 C 22.73102378845215 21.552513122558594 22.91983985900879 20.782520294189453 23.036001205444336 20.0 Q 23.312000274658203 18.68000030517578 23.644001007080078 17.375999450683594 Q 24.30000114440918 14.808000564575195 25.176000595092773 12.303999900817871 C 25.832050323486328 10.433174133300781 26.580978393554688 8.596226692199707 27.420001983642578 6.800000190734863 C 27.693212509155273 6.309885501861572 27.517377853393555 5.691087245941162 27.027265548706055 5.417874813079834 C 26.962827682495117 5.381955623626709 26.894672393798828 5.353160381317139 26.823999404907227 5.332000255584717 L 16.308000564575195 1.9200000762939453 C 14.572000503540039 1.3600000143051147 12.839999198913574 0.800000011920929 11.100000381469727 0.23599998652935028 C 10.225920677185059 -0.10755620151758194 9.248665809631348 -0.07425712794065475 8.40000057220459 0.328000009059906 C 7.680000305175781 0.6880000233650208 7.016000270843506 1.1759999990463257 6.311999797821045 1.568000078201294 C 4.658290386199951 2.490525245666504 2.924567699432373 3.2616634368896484 1.1319999694824219 3.872000217437744 C 0.6082646250724792 4.028835773468018 0.3001057803630829 4.569434642791748 0.4320000112056732 5.099999904632568 C 0.5817257761955261 5.631307125091553 1.1309404373168945 5.943360805511475 1.6639999151229858 5.800000190734863" stroke-width="1.0" fill="rgb(35, 24, 21)" opacity="1.0"/>
  </g>
</svg>
