<?xml version="1.0" ?>
<svg xmlns="http://www.w3.org/2000/svg" version="1.1" width="600" height="600">
  <defs/>
  <g>
    <path d="M 2.624000072479248 8.708000183105469 L 14.524001121520996 2.0 C 15.254055976867676 1.523861050605774 16.068843841552734 1.1925146579742432 16.924001693725586 1.0240000486373901 C 17.689924240112305 0.9654871225357056 18.460180282592773 1.0412944555282593 19.200000762939453 1.2480000257492065 Q 28.6560001373291 3.3480000495910645 37.87200164794922 6.372000217437744 L 29.972000122070312 24.0 C 29.656982421875 24.79283332824707 29.23870277404785 25.540624618530273 28.72800064086914 26.2239990234375 C 27.92799949645996 27.20400047302246 26.76799964904785 27.823999404907227 25.648000717163086 28.420001983642578 L 13.336000442504883 34.932003021240234 L 20.399999618530273 14.616000175476074 L 0.9880000352859497 9.600000381469727 L 2.624000072479248 8.708000183105469" stroke-width="1.0" fill="rgb(35, 24, 21)" opacity="1.0"/>
    <path d="M 3.128000020980835 9.567999839782715 L 9.684000015258789 5.872000217437744 L 12.883999824523926 4.072000026702881 C 13.903999328613281 3.496000051498413 14.907999992370605 2.871999979019165 15.96399974822998 2.3559999465942383 C 17.020000457763672 1.840000033378601 18.0 2.0 19.124000549316406 2.252000093460083 Q 20.916000366210938 2.6520001888275146 22.724000930786133 3.0880000591278076 Q 26.251998901367188 3.947999954223633 29.748001098632812 4.936000347137451 Q 33.715999603271484 6.052000045776367 37.624000549316406 7.335999965667725 L 37.02399826049805 5.863999843597412 L 30.57600212097168 20.216001510620117 C 30.03999900817871 21.416000366210938 29.511999130249023 22.61600112915039 28.976001739501953 23.81599998474121 C 28.592426300048828 24.81094741821289 27.961978912353516 25.691923141479492 27.144001007080078 26.376001358032227 C 26.204147338867188 27.023916244506836 25.21283531188965 27.593820571899414 24.18000030517578 28.079999923706055 L 20.74799919128418 29.895999908447266 L 12.832000732421875 34.06800079345703 L 14.300000190734863 35.20000076293945 L 21.347999572753906 14.883999824523926 C 21.489362716674805 14.352429389953613 21.180259704589844 13.805277824401855 20.652000427246094 13.652000427246094 L 1.252000093460083 8.636000633239746 L 1.4919999837875366 10.46399974822998 L 3.128000020980835 9.567999839782715 C 4.259999752044678 8.95199966430664 3.252000093460083 7.223999977111816 2.120000123977661 7.844000339508057 L 0.48000001907348633 8.74000072479248 C 0.005230684764683247 9.034918785095215 -0.14056722819805145 9.658873558044434 0.15435124933719635 10.13364315032959 C 0.28394705057144165 10.342270851135254 0.48499009013175964 10.496649742126465 0.7199999690055847 10.567999839782715 L 20.1200008392334 15.600000381469727 L 19.420000076293945 14.367999076843262 L 12.372000694274902 34.66400146484375 C 12.067999839782715 35.5359992980957 13.116000175476074 36.176002502441406 13.839999198913574 35.7920036315918 L 20.964000701904297 32.02000045776367 L 24.564001083374023 30.11199951171875 C 25.628000259399414 29.548002243041992 26.73200035095215 29.027999877929688 27.739999771118164 28.368000030517578 C 28.7275333404541 27.740921020507812 29.550495147705078 26.88641357421875 30.139999389648438 25.876001358032227 C 30.751998901367188 24.803998947143555 31.20400047302246 23.624000549316406 31.707998275756836 22.496000289916992 L 34.9640007019043 15.232001304626465 L 38.736000061035156 6.880000591278076 C 39.00788497924805 6.384103298187256 38.826290130615234 5.761693477630615 38.33039093017578 5.489808559417725 C 38.26858139038086 5.455921173095703 38.20344161987305 5.428506374359131 38.1359977722168 5.408000469207764 Q 30.96000099182129 3.055999994277954 23.600000381469727 1.252000093460083 Q 21.828001022338867 0.800000011920929 20.036001205444336 0.4000000059604645 C 18.80000114440918 0.12800000607967377 17.520000457763672 -0.18400000035762787 16.244001388549805 0.13200001418590546 C 15.07599925994873 0.42399999499320984 14.019999504089355 1.128000020980835 12.984000205993652 1.7319999933242798 L 9.708000183105469 3.559999942779541 L 2.120000123977661 7.844000339508057 C 1.0 8.476000785827637 2.0 10.204000473022461 3.128000020980835 9.567999839782715" stroke-width="1.0" fill="rgb(180, 209, 40)" opacity="1.0"/>
  </g>
</svg>
