<svg xmlns="http://www.w3.org/2000/svg" viewBox="0 0 104.83 99.19"><defs><style>.cls-1{fill:#e4007f;}.cls-2{fill:#231815;}</style></defs><g id="图层_2" data-name="图层 2"><g id="图层_1-2" data-name="图层 1"><path class="cls-1" d="M91,63.88C82.56,77.69,70.2,89.79,54.74,94.63S20.59,95.73,10.51,83C2.74,73.26,1,59.63,3.65,47.41c1.7-7.92,5.22-15.65,11.2-21.12S29.49,18,37.29,20.13c8.17,2.28,14,9.34,19.19,16L55.36,36c-.66-4.92-1.31-9.9-.75-14.83S57.08,11.25,60.82,8C65.45,3.92,72,3.06,78.16,2.69c3.09-.18,6.27-.28,9.2.72C91.92,5,95.24,9,97.51,13.22c5.22,9.82,5.94,21.63,3.42,32.46S92.84,66.43,86.12,75.29Z"/><path class="cls-2" d="M88.88,62.62C82,73.7,72.79,83.61,61,89.45a43.54,43.54,0,0,1-35.33,1.77A32.17,32.17,0,0,1,12.07,81,36,36,0,0,1,5.25,63,48.56,48.56,0,0,1,7.43,43c2-6.21,5.51-12.3,10.8-16.28,5.05-3.8,11.77-5.87,18-4.26S47.4,29,51.49,33.91c1.1,1.31,2.16,2.66,3.22,4l2.43-4.18L56,33.56,57.86,36c-1.08-8.11-2.57-18.33,3.47-25,2.62-2.89,6.24-4.27,10-5a46,46,0,0,1,5.85-.71,34.42,34.42,0,0,1,7,0C92.34,6.35,96.54,15.33,98.42,22.4A48.29,48.29,0,0,1,97.76,48C95,57.49,89.91,66.15,84,74l4.32,2.52L93.2,65.14a2.59,2.59,0,0,0-.9-3.42,2.52,2.52,0,0,0-3.42.9L84,74a2.5,2.5,0,0,0,4.32,2.52C99.94,61.12,108.17,41.66,103.5,22.1c-2-8.5-6.91-18.51-15.92-21.24C83-.54,77.7.05,73,.67c-4.49.59-9,1.75-12.7,4.53a21.35,21.35,0,0,0-7.74,13c-1.21,5.91-.5,11.9.29,17.82a2.58,2.58,0,0,0,1.83,2.41l1.12.18a2.53,2.53,0,0,0,2.44-4.18C53.81,28.73,49,22.82,42.5,19.52,35.63,16.05,28,16.28,21,19.32,6.84,25.51.45,42.14,0,56.66A45.71,45.71,0,0,0,4.4,78a36.12,36.12,0,0,0,13.84,15c11.48,6.94,26.28,7.86,38.82,3.44,13.82-4.86,25-15.06,33.25-26.94,1-1.44,2-2.91,2.89-4.41C94.89,62.4,90.57,59.88,88.88,62.62Z"/></g></g></svg>