<svg xmlns="http://www.w3.org/2000/svg" viewBox="0 0 56.77 44.84"><defs><style>.cls-1{fill:#231815;}</style></defs><g id="图层_2" data-name="图层 2"><g id="图层_1-2" data-name="图层 1"><path class="cls-1" d="M22,42.26a80.92,80.92,0,0,1-8.87-5.07C9.36,34.7,5.68,31.74,3.8,27.64.63,20.69,3.6,12.18,8.91,6.7c1.68-1.74,3.9-3.37,6.3-3a9.05,9.05,0,0,1,3.94,2c3.63,2.72,7.71,6.64,6.46,11l1.11,3.58c-.72-4.67-1.27-10,1.78-13.58a12,12,0,0,1,6.13-3.51c5-1.34,10.63-.72,14.71,2.41s6.17,9,4.22,13.75c-1.21,3-3.71,5.18-6.23,7.16A95,95,0,0,1,20.57,41.31Z"/><path class="cls-1" d="M23.25,40.1c-4.7-2.32-9.59-5-13.44-8.58-3.37-3.14-5.26-7.13-4.72-11.79A19.85,19.85,0,0,1,11,8.18c1.6-1.58,3.32-2.68,5.41-1.39a21.88,21.88,0,0,1,5.37,4.64,7,7,0,0,1,1.53,2.92c.21,1.05-.3,2-.05,3.08s.73,2.34,1.09,3.5a2.55,2.55,0,0,0,3.07,1.75,2.58,2.58,0,0,0,1.75-3.08,24.25,24.25,0,0,1-.32-7.55,7.24,7.24,0,0,1,4.08-5.59,15,15,0,0,1,14.55.83c3.65,2.47,5.63,7.83,3.45,11.87a19.37,19.37,0,0,1-5.32,5.58c-2.36,1.85-4.84,3.57-7.38,5.18a92.93,92.93,0,0,1-18.29,9,2.54,2.54,0,0,0-.59,4.57l1.42.94c2.68,1.79,5.19-2.53,2.52-4.31l-1.42-1-.6,4.57a99.47,99.47,0,0,0,19.49-9.48A98.27,98.27,0,0,0,49.42,28a20.32,20.32,0,0,0,6.3-7.42c2.65-6.1.06-13.28-5.12-17.16S37.7-.93,31.69,1.55a12.26,12.26,0,0,0-7.46,8.07c-1,3.7-.49,7.59.08,11.31l4.82-1.33L28,16v1.33C29.46,11.68,25.16,7.18,21,4,18.75,2.25,16.35.76,13.36,1.25c-2.82.45-5.15,2.43-7,4.51A25.21,25.21,0,0,0,.11,19.55a18,18,0,0,0,4.77,14.1c4.22,4.69,10.25,8,15.85,10.76a2.56,2.56,0,0,0,3.42-.89A2.53,2.53,0,0,0,23.25,40.1Z"/></g></g></svg>