<?xml version="1.0" encoding="utf-8" ?>
<svg baseProfile="tiny" height="600" version="1.2" width="600" xmlns="http://www.w3.org/2000/svg" xmlns:ev="http://www.w3.org/2001/xml-events" xmlns:xlink="http://www.w3.org/1999/xlink"><defs /><path d="M275,55 274,56 274,59 273,60 273,62 272,63 272,64 271,65 271,66 270,67 270,68 269,69 269,70 267,72 267,73 263,77 263,78 255,86 254,86 251,89 250,89 248,91 247,91 246,92 245,92 244,93 243,93 242,94 241,94 240,95 239,95 238,96 237,96 236,97 235,97 234,98 232,98 231,99 230,99 229,100 228,100 227,99 227,93 228,92 228,80 227,79 227,77 226,76 226,75 225,74 225,73 223,71 223,77 222,78 222,81 221,82 221,84 220,85 220,87 218,89 218,90 217,91 217,92 214,95 214,96 208,102 207,102 206,101 206,100 207,99 207,98 208,97 208,96 209,95 209,94 210,93 210,92 211,91 211,89 212,88 212,87 213,86 213,84 214,83 214,81 215,80 215,79 216,78 216,76 217,75 217,71 218,70 218,69 217,68 217,67 215,67 214,68 214,69 213,70 213,72 212,73 212,74 211,75 211,76 210,77 210,79 209,80 209,81 207,83 207,85 205,87 205,88 204,89 204,90 202,92 202,93 200,95 200,96 197,99 197,100 192,105 191,105 190,104 190,96 189,95 189,90 188,89 188,84 189,83 189,81 190,80 190,76 191,75 191,64 190,63 190,62 188,62 188,65 187,66 187,70 186,71 186,74 185,75 185,76 183,78 182,78 182,79 181,80 182,81 182,87 181,88 181,89 180,90 180,91 179,92 179,93 178,94 178,95 177,96 177,97 175,99 175,100 173,102 173,103 169,107 167,105 167,103 166,102 166,99 165,98 165,96 164,95 164,94 163,93 163,92 161,90 159,90 159,95 160,96 160,99 161,100 161,103 162,104 162,109 163,110 163,116 164,117 164,126 163,127 163,137 162,138 162,139 153,148 153,149 148,154 148,155 146,157 146,159 145,160 145,162 144,163 144,172 143,173 143,174 141,176 141,177 138,180 138,181 137,182 136,182 136,183 135,184 134,184 131,187 130,187 128,189 127,189 126,190 125,190 124,191 123,191 121,193 120,193 120,194 119,195 119,196 118,197 118,198 119,199 119,200 121,202 122,202 131,211 132,211 133,212 140,212 141,211 142,211 143,210 144,210 146,208 147,208 150,205 150,204 152,202 153,202 155,200 156,200 157,199 158,199 159,198 160,198 161,197 162,197 163,196 164,196 166,194 167,194 168,193 169,193 170,192 171,192 172,191 173,191 174,190 175,190 176,189 178,189 179,188 181,188 182,187 185,187 186,186 192,186 193,185 205,185 206,186 211,186 212,187 213,187 216,190 217,190 218,189 218,187 217,186 217,184 213,180 212,180 211,179 210,179 209,178 211,176 218,176 219,177 221,177 224,180 224,181 225,182 226,182 226,181 227,180 227,179 226,178 226,177 223,174 222,174 221,173 218,173 217,172 213,172 212,171 210,171 209,170 209,169 210,168 212,168 213,167 215,167 216,166 228,166 229,167 231,167 232,168 233,168 236,171 236,172 238,174 238,175 239,176 239,184 238,185 238,187 237,188 237,190 236,191 236,192 235,193 235,194 234,195 234,196 233,197 233,198 231,200 231,201 226,206 226,207 222,211 221,211 217,215 216,215 215,216 214,216 212,218 211,218 210,219 208,219 206,221 205,221 204,222 203,222 202,223 201,223 200,224 199,224 198,225 197,225 196,226 194,226 193,227 191,227 190,228 187,228 186,229 180,229 179,230 177,230 176,231 175,231 174,232 173,232 172,233 171,233 167,237 166,237 165,238 164,238 163,239 162,239 161,240 159,240 158,241 156,241 155,242 153,242 152,243 141,243 140,242 138,242 137,241 136,241 135,240 133,240 132,239 131,239 130,238 129,238 128,237 126,237 125,236 124,236 123,235 117,235 113,239 107,239 106,238 95,238 93,240 93,247 94,248 94,252 95,253 95,256 96,257 96,259 97,260 98,260 99,259 99,256 100,255 100,253 102,251 103,251 104,252 104,256 105,257 105,258 106,259 106,261 107,262 107,263 108,264 108,266 109,267 109,268 110,269 110,270 111,270 112,269 112,261 113,260 113,256 114,255 116,255 117,256 118,256 122,260 122,261 123,262 123,268 124,269 124,271 121,274 116,274 116,276 119,276 120,277 124,277 125,278 132,278 132,271 131,270 131,265 135,261 136,261 137,260 138,260 139,259 140,259 141,258 144,258 145,259 146,259 147,260 149,260 150,261 151,261 157,267 157,268 158,269 158,270 146,282 146,283 141,288 141,289 138,292 138,293 135,296 135,297 133,299 133,300 131,302 131,303 129,305 129,306 127,308 127,309 120,316 119,316 118,317 116,317 115,318 114,318 113,319 111,319 110,320 101,320 98,317 97,317 94,314 93,314 91,312 90,312 89,311 88,311 86,309 85,309 83,307 82,307 81,306 80,306 77,303 76,303 74,301 72,301 67,306 67,307 66,308 66,309 65,310 65,311 64,312 64,313 60,317 60,318 59,319 59,320 58,321 58,324 57,325 57,326 58,327 58,326 60,324 60,323 65,318 65,317 69,313 70,313 71,312 73,312 74,313 75,313 77,315 77,316 78,317 78,318 77,319 75,319 74,320 72,320 67,325 67,326 66,327 66,329 65,330 65,331 64,332 64,336 63,337 63,346 62,347 62,349 63,350 64,350 64,349 65,348 65,345 66,344 66,342 67,341 67,340 68,339 68,338 73,333 74,333 75,332 76,332 77,333 77,336 76,337 76,339 75,340 75,342 76,343 78,343 80,341 80,340 83,337 84,337 85,338 85,353 83,355 82,355 81,354 79,354 78,353 76,353 76,355 77,355 88,366 89,366 90,365 90,364 91,363 91,362 92,361 92,360 93,359 93,358 94,357 94,356 95,355 95,354 97,352 97,351 101,347 102,347 103,346 104,346 105,345 107,345 108,344 109,344 110,343 112,343 114,345 114,346 113,347 113,350 112,351 112,355 111,356 111,360 110,361 110,366 109,367 109,400 110,401 110,406 111,407 111,411 112,412 112,414 113,415 113,417 114,418 114,420 115,421 115,422 116,423 116,425 117,426 117,427 118,428 118,429 119,430 119,431 120,432 120,433 122,435 122,436 124,438 124,439 127,442 127,443 133,449 134,449 139,454 140,454 143,457 144,457 148,461 149,461 152,464 153,464 154,465 155,465 157,467 158,467 159,468 160,468 161,469 162,469 163,470 164,470 165,471 166,471 167,472 169,472 170,473 173,473 174,474 174,475 172,477 170,477 169,478 168,478 167,479 165,479 164,480 163,480 162,481 161,481 160,482 159,481 157,481 156,480 153,480 152,479 148,479 147,478 140,478 139,477 135,477 132,474 132,473 130,471 130,470 128,468 128,467 123,462 116,462 115,463 114,463 113,464 112,464 110,466 109,466 100,475 100,476 97,479 97,480 96,481 96,487 98,489 98,488 99,487 99,486 100,485 100,483 107,476 108,476 110,474 111,474 112,473 114,473 115,474 116,474 119,477 119,478 117,480 115,480 114,481 112,481 111,482 109,482 105,486 105,487 104,488 104,489 103,490 103,493 102,494 102,498 101,499 101,508 102,508 103,509 103,508 104,507 104,504 105,503 105,502 106,501 106,500 107,499 107,498 110,495 110,494 112,492 114,492 115,493 115,495 114,496 114,497 113,498 113,508 114,509 114,514 115,515 115,518 116,519 117,519 118,518 118,510 119,509 119,508 120,507 120,506 125,501 126,501 128,499 129,499 131,497 132,497 133,496 135,496 136,495 137,495 138,494 141,494 142,493 149,493 150,494 154,494 155,495 157,495 158,496 160,496 161,497 162,497 164,499 165,499 170,504 173,504 174,505 175,505 179,509 179,510 180,511 180,512 181,513 181,514 183,516 183,517 183,512 182,511 182,509 181,508 181,506 180,505 180,503 179,502 179,501 178,500 178,499 177,498 177,497 176,496 176,493 178,491 180,491 181,490 184,490 185,489 214,489 215,488 215,483 218,480 240,480 241,479 247,479 248,478 254,478 255,477 258,477 259,476 262,476 263,475 266,475 267,474 269,474 270,473 273,473 274,472 276,472 277,471 279,471 280,470 282,470 283,469 284,469 285,468 287,468 288,467 291,467 292,466 293,466 294,465 296,465 297,464 298,464 299,463 300,463 301,462 302,462 303,461 304,461 305,460 306,460 308,458 309,458 310,457 311,457 313,455 314,455 315,454 317,454 318,455 318,457 319,458 319,460 321,462 321,463 324,466 325,466 326,467 327,467 328,468 330,468 331,469 334,469 335,470 337,470 340,473 340,476 339,477 338,477 337,478 336,478 335,479 334,479 332,481 331,481 329,483 328,483 325,486 324,486 320,490 319,490 314,495 312,495 307,490 302,490 301,491 300,491 298,493 298,494 295,497 295,498 294,499 294,501 293,502 293,503 292,504 292,507 291,508 291,509 290,510 290,512 289,513 289,516 288,517 288,519 287,520 287,523 286,524 286,526 287,526 294,519 294,518 302,510 303,510 304,509 306,509 307,510 307,515 306,516 306,523 305,524 305,529 306,530 306,531 307,531 307,529 309,527 309,526 310,525 310,524 312,522 312,521 313,520 313,519 314,518 314,517 315,516 315,515 319,511 320,511 321,512 321,519 320,520 320,524 321,525 321,530 322,531 322,533 323,534 324,534 324,533 325,532 325,528 326,527 326,525 327,524 327,523 328,522 328,521 331,518 331,517 336,512 336,510 337,509 337,507 338,506 338,505 339,504 339,503 340,502 340,501 342,499 342,498 348,492 349,492 352,489 353,489 355,487 356,487 357,486 358,486 360,484 361,484 362,483 363,483 364,482 365,482 366,481 367,481 368,480 372,480 373,479 374,479 375,480 376,480 377,479 377,478 375,476 373,476 372,475 370,475 369,474 361,474 358,471 358,470 355,467 355,464 362,457 363,457 365,455 366,455 367,454 368,454 370,452 371,452 372,451 373,451 375,449 376,449 378,447 379,447 382,444 383,444 391,436 391,435 394,432 394,431 395,430 395,427 397,425 408,425 409,426 415,426 416,427 429,427 430,428 440,428 441,427 451,427 452,426 456,426 457,425 461,425 462,424 464,424 465,423 467,423 468,422 469,422 470,421 472,421 473,420 474,420 475,419 476,419 477,418 478,418 479,417 480,417 482,415 483,415 484,414 485,414 487,412 488,412 491,409 492,409 498,403 499,403 504,398 504,397 510,391 510,390 513,387 513,386 515,384 515,383 517,381 517,380 519,378 519,377 520,376 520,375 522,373 522,372 523,371 523,370 524,369 524,368 525,367 525,366 526,365 526,364 530,360 531,360 533,358 534,358 536,356 537,356 538,355 539,355 540,354 541,354 542,353 544,353 545,352 547,352 548,351 551,351 552,350 554,350 555,349 556,349 557,348 558,348 563,343 563,342 565,340 565,339 566,338 566,337 567,336 567,334 568,333 568,332 569,331 569,329 570,328 570,325 571,324 571,317 570,316 570,312 569,312 569,315 568,316 568,321 567,322 567,324 566,325 566,326 564,328 564,329 560,333 559,333 557,335 556,335 555,336 552,336 551,337 547,337 546,336 546,335 553,328 553,327 555,325 555,324 556,323 556,322 557,321 557,319 558,318 558,316 559,315 559,310 560,309 560,300 559,299 559,297 558,296 558,295 557,294 557,293 553,289 552,289 551,288 550,288 549,287 548,287 547,286 544,286 543,285 539,285 538,284 535,284 534,283 527,283 526,284 525,284 528,284 529,285 534,285 535,286 536,286 537,287 538,287 540,289 540,290 541,291 541,292 542,293 542,295 543,296 543,304 542,305 542,306 541,307 540,307 538,305 538,304 532,298 531,298 530,297 529,297 528,296 527,296 527,297 532,302 532,303 533,304 533,306 534,307 534,310 535,311 535,317 534,318 534,320 532,322 529,322 528,321 527,321 526,320 518,320 517,321 514,321 513,322 510,322 509,323 508,323 508,324 514,324 515,325 516,325 521,330 521,331 522,332 522,334 523,335 523,343 522,344 522,347 521,348 521,350 520,351 520,352 519,353 519,354 518,355 518,356 516,358 516,359 513,362 513,363 508,368 508,369 500,377 499,377 495,381 494,381 492,383 491,383 490,384 489,384 487,386 486,386 485,387 484,387 483,388 481,388 480,389 478,389 477,390 476,390 475,391 472,391 471,392 468,392 467,393 463,393 462,394 443,394 442,393 440,393 439,392 437,392 436,391 434,391 433,390 432,390 431,389 430,389 428,387 427,387 424,384 424,383 427,380 428,380 433,375 433,374 434,373 434,372 435,371 435,369 436,368 436,367 435,366 435,367 431,371 430,371 429,372 428,372 427,373 425,373 424,374 423,374 422,375 420,375 419,376 417,376 416,377 413,377 412,376 413,375 413,374 414,373 415,373 415,372 418,369 418,368 419,367 419,366 420,365 420,360 419,360 418,361 418,362 417,363 417,364 413,368 412,368 410,370 409,370 408,371 407,371 406,372 405,372 404,373 401,373 400,374 397,374 396,375 388,375 387,374 386,374 384,372 386,370 386,369 387,368 387,367 388,366 388,365 389,364 389,362 390,361 390,352 389,352 388,353 388,355 380,363 379,363 377,365 376,365 375,366 374,366 372,368 371,368 370,369 369,369 368,370 367,370 366,371 365,371 364,372 355,372 354,373 343,373 342,374 337,374 336,375 333,375 332,376 329,376 328,377 326,377 325,376 329,372 330,372 333,369 334,369 335,368 336,368 338,366 339,366 341,364 342,364 343,363 344,363 345,362 346,362 347,361 348,361 349,360 350,360 351,359 354,359 355,358 359,358 360,357 362,357 363,356 364,356 364,355 359,355 358,356 354,356 353,357 348,357 347,358 344,358 343,359 341,359 340,360 338,360 337,361 336,361 335,362 333,362 332,363 331,363 330,364 329,364 328,365 327,365 326,366 325,366 323,368 322,368 320,370 319,370 316,373 315,373 309,379 308,379 308,380 307,381 306,381 306,382 290,398 289,398 288,399 287,399 286,400 285,400 284,401 283,401 282,402 280,402 279,403 278,403 277,404 274,404 273,405 270,405 269,406 265,406 264,407 244,407 243,406 239,406 238,405 234,405 233,404 231,404 230,403 229,403 228,402 227,402 226,401 225,401 224,400 223,400 222,399 221,399 218,396 217,396 214,393 215,392 216,392 217,391 220,391 221,390 224,390 225,389 227,389 228,388 231,388 232,387 235,387 236,386 238,386 239,385 240,385 239,384 237,384 236,385 230,385 229,386 224,386 223,387 216,387 215,386 211,386 210,385 208,385 207,384 206,384 205,383 204,383 203,382 202,382 197,377 197,376 196,375 196,373 195,372 195,367 196,366 201,371 202,371 206,375 207,375 209,377 210,377 211,378 213,378 214,379 219,379 220,378 219,378 218,377 217,377 216,376 214,376 213,375 212,375 210,373 209,373 206,370 206,369 204,367 204,366 203,365 203,363 202,362 202,361 201,360 201,357 200,356 200,351 199,350 199,341 200,340 200,335 201,334 201,330 202,329 202,328 203,327 204,327 205,328 205,329 206,330 206,331 207,332 207,334 213,340 214,340 215,341 217,341 214,338 214,337 213,336 213,335 212,334 212,333 211,332 211,328 210,327 210,324 211,323 211,318 212,317 212,315 213,314 213,313 214,312 214,310 216,308 216,307 217,306 217,305 219,303 219,302 222,299 222,298 226,294 227,294 231,290 232,290 235,287 236,287 239,284 240,284 242,282 243,282 246,279 247,279 249,277 250,277 252,275 253,275 254,274 255,274 256,275 256,280 255,281 255,298 256,299 256,301 257,302 257,304 258,305 258,307 260,309 260,310 261,311 262,311 262,310 261,309 261,304 260,303 260,301 261,300 261,292 262,291 262,287 263,286 263,284 264,283 264,282 265,281 265,279 267,277 267,275 269,273 269,272 271,270 271,269 273,267 273,266 275,264 275,263 277,261 277,260 279,258 279,257 282,254 282,253 285,250 285,249 290,244 291,244 292,245 292,247 293,248 293,253 294,254 294,256 295,257 295,259 296,260 296,261 297,262 297,263 299,265 300,265 300,262 299,261 299,251 300,250 300,244 301,243 301,239 302,238 302,235 303,234 303,232 304,231 304,230 305,229 305,227 306,226 306,225 307,224 307,223 308,222 308,221 309,220 309,218 310,217 310,216 311,215 311,214 312,213 312,212 313,211 313,209 314,208 314,207 315,206 315,205 316,204 316,202 318,200 319,200 321,202 321,203 324,206 324,207 328,211 329,211 331,213 332,213 333,214 334,214 335,215 336,215 337,216 343,216 339,212 339,211 338,210 338,209 337,208 337,207 336,206 336,205 334,203 334,202 333,201 333,199 332,198 332,196 331,195 331,189 330,188 330,181 329,180 329,175 328,174 328,169 327,168 327,166 326,165 326,162 325,161 325,158 324,157 324,155 323,154 323,152 322,151 322,147 323,146 324,147 327,147 328,148 337,148 338,147 340,147 339,146 337,146 336,145 335,145 334,144 333,144 332,143 331,143 330,142 329,142 327,140 326,140 323,137 322,137 320,135 320,134 318,132 318,131 317,130 317,129 315,127 315,126 313,124 313,123 307,117 307,116 306,116 301,111 300,111 298,109 297,109 295,107 294,107 293,106 293,105 294,104 300,104 301,103 303,103 304,102 306,102 307,101 308,101 311,98 312,98 312,97 314,95 314,93 313,93 312,94 311,94 310,95 309,95 308,96 307,96 306,97 294,97 293,96 289,96 288,95 286,95 285,94 281,94 280,93 276,93 275,92 270,92 269,91 269,90 270,89 270,88 271,87 271,86 272,85 272,84 273,83 273,82 274,81 274,79 275,78 275,76 276,75 276,72 277,71 277,58 276,57 276,56Z" fill="none" stroke="black" /></svg>