<?xml version="1.0" ?>
<svg xmlns="http://www.w3.org/2000/svg" version="1.1" width="144" height="203">
  <defs/>
  <g>
    <path d="M 39.836830139160156 2.4000000953674316 C 38.29874038696289 6.708000183105469 56.15782928466797 3.9808499813079834 60.23664855957031 7.6006999015808105 C 66.83683013916016 11.0 68.03682708740234 13.600000381469727 68.93682861328125 25.200000762939453 C 69.93682861328125 38.70000076293945 69.93682861328125 132.8000030517578 68.93682861328125 158.5 C 68.03682708740234 180.89999389648438 66.83683013916016 185.1999969482422 60.53683090209961 189.0 C 49.05582809448242 194.43431091308594 24.21721076965332 189.3120880126953 38.337589263916016 171.00094604492188 C 45.28036880493164 160.2737579345703 44.46302032470703 150.84036254882812 36.1373405456543 142.8997344970703 C 14.863269805908203 125.4726791381836 -8.74866008758545 151.7325897216797 3.2381200790405273 174.50027465820312 C 14.563050270080566 198.70237731933594 48.12112045288086 207.35592651367188 73.53733825683594 201.3983612060547 C 126.38134002685547 180.71795654296875 114.33953094482422 169.3155059814453 117.73961639404297 82.40216064453125 L 118.33683013916016 15.300000190734863 C 122.76177215576172 8.441340446472168 128.47982788085938 4.987770080566406 139.03707885742188 5.000219821929932 C 146.30099487304688 5.257820129394531 144.6179962158203 4.01800012588501 144.83682250976562 0.0 L 39.836830139160156 0.0 L 39.836830139160156 2.4000000953674316" stroke-width="1.0" fill="rgb(0, 0, 0)" opacity="0.5"/>
  </g>
</svg>
