<?xml version="1.0" ?>
<svg xmlns="http://www.w3.org/2000/svg" version="1.1" width="234" height="199">
  <defs/>
  <g>
    <path d="M 0.06769999861717224 2.4000000953674316 C -1.3144299983978271 6.9811201095581055 18.856300354003906 4.07213020324707 24.9672908782959 12.300780296325684 C 27.067699432373047 14.600000381469727 27.46769905090332 16.399999618530273 28.2677001953125 26.200000762939453 C 28.7677001953125 32.400001525878906 29.067699432373047 69.69999694824219 28.867700576782227 109.0 C 26.56916046142578 189.00970458984375 36.03718185424805 187.91342163085938 8.16940975189209 193.7014923095703 C -1.4085899591445923 194.49375915527344 0.25157999992370605 194.25732421875 0.06769999861717224 199.0 L 102.06770324707031 199.0 C 101.95496368408203 194.54823303222656 103.23240661621094 194.4327850341797 95.06770324707031 193.1999969482422 C 91.2677001953125 192.60000610351562 86.46769714355469 191.1999969482422 84.56770324707031 190.0 C 74.18370056152344 192.5591278076172 77.92169952392578 129.9635772705078 76.8676986694336 111.30000305175781 C 78.88398742675781 109.76010131835938 82.89701080322266 106.59892272949219 84.8676986694336 105.0 L 110.7677001953125 137.0 C 136.0677032470703 168.39999389648438 143.36770629882812 178.5 144.2677001953125 183.5 C 145.2677001953125 188.8000030517578 141.86770629882812 191.5 131.86770629882812 193.5 C 128.42604064941406 193.7816925048828 129.11802673339844 196.60679626464844 129.0677032470703 199.0 L 234.0677032470703 199.0 C 235.05592346191406 192.1798858642578 229.95269775390625 193.86607360839844 225.06752014160156 192.39974975585938 C 198.3002471923828 179.2346954345703 191.12985229492188 160.2845458984375 158.0659942626953 122.60182189941406 C 128.0677032470703 85.4000015258789 121.1677017211914 76.5 122.2677001953125 75.5 C 135.01577758789062 67.77629089355469 195.75460815429688 10.506999969482422 216.96624755859375 6.5977702140808105 C 224.86300659179688 5.324810028076172 223.51121520996094 4.603899955749512 224.16769409179688 0.0 L 144.9676971435547 0.0 C 144.88314819335938 7.533599853515625 148.55999755859375 5.435699939727783 155.3679962158203 6.5 C 169.5676727294922 8.100000381469727 171.26766967773438 18.899999618530273 159.26766967773438 30.200000762939453 C 154.66766357421875 34.599998474121094 78.66767120361328 95.0 77.66767120361328 95.0 C 77.26766967773438 95.0 77.06767272949219 77.80000305175781 77.26766967773438 56.70000076293945 C 77.66767120361328 16.399999618530273 77.66767120361328 16.5 82.46766662597656 11.100000381469727 C 86.613037109375 4.525310039520264 101.20034790039062 8.196000099182129 100.8680419921875 2.7007200717926025 L 101.1677017211914 0.0 L 0.06769999861717224 0.0 L 0.06769999861717224 2.4000000953674316" stroke-width="1.0" fill="rgb(0, 0, 0)" opacity="0.5"/>
  </g>
</svg>
