<?xml version="1.0" ?>
<svg xmlns="http://www.w3.org/2000/svg" version="1.1" width="182" height="199">
  <defs/>
  <g>
    <path d="M 0.07756000012159348 2.4000000953674316 C -1.2990700006484985 6.453589916229248 16.056560516357422 4.691490173339844 19.87727928161621 8.600729942321777 C 28.077560424804688 13.399999618530273 27.577560424804688 7.900000095367432 27.577560424804688 99.5 L 27.577560424804688 180.5 C 23.68470001220703 188.85226440429688 20.23879051208496 192.4700927734375 7.377299785614014 193.59974670410156 C -1.2317700386047363 194.3394012451172 0.22429999709129333 194.5107421875 0.07756000012159348 199.0 L 175.77755737304688 199.0 C 177.34173583984375 183.65054321289062 179.41123962402344 164.9232635498047 181.17750549316406 149.1999969482422 C 183.5775604248047 127.19999694824219 183.5775604248047 128.0 180.6775665283203 128.0 C 177.5775604248047 128.0 176.97755432128906 129.0 173.6775665283203 139.0 C 163.6775665283203 169.6999969482422 149.3775634765625 184.3000030517578 126.57756042480469 187.10000610351562 C 117.41014862060547 187.73489379882812 78.17127990722656 190.7425079345703 77.37837982177734 180.00021362304688 C 75.67755889892578 176.6999969482422 75.57756042480469 171.0 75.57756042480469 97.5 L 75.57756042480469 18.5 C 79.69711303710938 9.831159591674805 83.34828186035156 6.097829818725586 96.67787170410156 5.300350189208984 C 106.57099914550781 4.482639789581299 104.8918228149414 4.822120189666748 105.07756042480469 0.0 L 0.07756000012159348 0.0 L 0.07756000012159348 2.4000000953674316" stroke-width="1.0" fill="rgb(0, 0, 0)" opacity="0.5"/>
  </g>
</svg>
