<?xml version="1.0" ?>
<svg xmlns="http://www.w3.org/2000/svg" version="1.1" width="273" height="199">
  <defs/>
  <g>
    <path d="M 0.0560000017285347 2.5 C -1.4026000499725342 8.753000259399414 26.10531997680664 -0.8932399749755859 27.555740356445312 21.200559616088867 C 28.313739776611328 32.630401611328125 27.66628074645996 145.6358642578125 27.555950164794922 176.50071716308594 C 23.85750961303711 185.56097412109375 18.068090438842773 192.1326141357422 6.655590057373047 192.6995086669922 C -1.7748899459838867 193.1693115234375 0.3543800115585327 194.26617431640625 0.0560000017285347 199.0 C 17.131149291992188 198.92308044433594 51.48788833618164 198.67250061035156 68.55599975585938 198.5 C 70.53605651855469 187.97300720214844 54.656070709228516 197.8572235107422 43.75600051879883 183.79954528808594 C 34.376529693603516 171.2225341796875 40.69844055175781 26.340179443359375 39.95254135131836 21.500539779663086 C 39.21583938598633 18.47208023071289 117.9786605834961 201.60133361816406 117.25614929199219 198.50018310546875 C 122.58515167236328 200.46145629882812 136.1449737548828 158.5265655517578 158.6575927734375 108.60224151611328 C 179.156005859375 59.70000076293945 196.25599670410156 19.5 196.55599975585938 19.200000762939453 C 196.8560028076172 18.899999618530273 196.95599365234375 55.0 196.8560028076172 99.5999984741211 C 196.55599975585938 176.10000610351562 196.45599365234375 180.6999969482422 194.656005859375 184.1999969482422 C 192.200439453125 192.47906494140625 178.34814453125 193.046875 169.05599975585938 193.3000030517578 L 169.05599975585938 199.0 L 273.0559997558594 199.0 L 273.0559997558594 193.0 C 264.11688232421875 193.66380310058594 251.15487670898438 191.91778564453125 247.55630493164062 184.79916381835938 C 245.656005859375 181.60000610351562 245.55599975585938 179.1999969482422 245.25599670410156 104.0 C 245.05599975585938 61.400001525878906 245.25599670410156 24.200000762939453 245.55599975585938 21.299999237060547 C 248.0749969482422 -0.9061200022697449 272.38037109375 9.176190376281738 273.0567321777344 2.4008901119232178 L 273.0559997558594 0.0 L 191.55599975585938 0.0 C 181.8921356201172 23.54237937927246 141.00088500976562 123.28809356689453 138.156005859375 129.1997833251953 C 134.8356475830078 124.5770034790039 92.0948715209961 23.4242000579834 82.25599670410156 0.5 C 61.76818084716797 0.3278999924659729 20.539289474487305 0.07712999731302261 0.0560000017285347 0.0 L 0.0560000017285347 2.5" stroke-width="1.0" fill="rgb(0, 0, 0)" opacity="0.5"/>
  </g>
</svg>
