<?xml version="1.0" ?>
<svg xmlns="http://www.w3.org/2000/svg" version="1.1" width="207" height="204">
  <defs/>
  <g>
    <path d="M 0.3599100112915039 2.7054500579833984 C 1.360219955444336 10.526379585266113 11.184490203857422 -2.079040050506592 30.259910583496094 24.40545082092285 C 30.105289459228516 62.09495162963867 29.813400268554688 137.83494567871094 29.659910202026367 175.5056915283203 L 26.659910202026367 181.5054473876953 C 19.38534927368164 198.63119506835938 -2.0569100379943848 188.33807373046875 0.15990999341011047 199.0054473876953 L 71.159912109375 199.0054473876953 C 71.01052856445312 194.90609741210938 72.39015197753906 194.3049774169922 64.95990753173828 193.60545349121094 C 57.759910583496094 192.90545654296875 49.159908294677734 189.10545349121094 46.159908294677734 185.30545043945312 C 41.259910583496094 179.0054473876953 41.159908294677734 177.2054443359375 41.35990905761719 105.90544891357422 L 41.659908294677734 39.305450439453125 C 62.31713104248047 64.09062194824219 184.42572021484375 216.91357421875 178.1573944091797 203.8030548095703 L 180.659912109375 203.5054473876953 C 180.91358947753906 158.1120147705078 181.40753173828125 66.87908172607422 181.659912109375 21.505159378051758 L 183.9599151611328 16.805450439453125 C 189.8354034423828 2.664949893951416 208.13821411132812 11.333720207214355 207.25990295410156 0.005450000055134296 L 141.159912109375 0.005450000055134296 C 138.7540740966797 12.53201961517334 166.35943603515625 -2.5904300212860107 169.0594940185547 28.305870056152344 C 170.25990295410156 37.205448150634766 170.55990600585938 122.00544738769531 169.4599151611328 122.00544738769531 C 164.47291564941406 117.11406707763672 89.31790924072266 22.166519165039062 71.659912109375 0.10544999688863754 C 53.81391143798828 0.03305000066757202 17.901630401611328 -0.017090000212192535 0.05990999937057495 0.005450000055134296 L 0.3599100112915039 2.7054500579833984" stroke-width="1.0" fill="rgb(0, 0, 0)" opacity="0.5"/>
  </g>
</svg>
