<?xml version="1.0" ?>
<svg xmlns="http://www.w3.org/2000/svg" version="1.1" width="214" height="199">
  <defs/>
  <g>
    <path d="M 0.05982000008225441 2.5 C -1.2758599519729614 7.846570014953613 20.14229965209961 3.242500066757202 25.559389114379883 14.200719833374023 C 27.5598201751709 17.600000381469727 27.5598201751709 19.200000762939453 27.5598201751709 99.69999694824219 C 27.5598201751709 175.5 27.459819793701172 181.89999389648438 25.859819412231445 184.89999389648438 C 18.698640823364258 198.0879364013672 -2.9737401008605957 188.69613647460938 0.5598199963569641 198.6999969482422 C 25.859560012817383 198.87179565429688 76.7680435180664 199.12271118164062 102.05982208251953 199.1999969482422 C 101.85005950927734 193.48020935058594 103.72660064697266 194.43060302734375 90.659912109375 192.79977416992188 C 84.85981750488281 192.10000610351562 80.55982208251953 189.8000030517578 77.65982055664062 185.89999389648438 C 75.65982055664062 183.10000610351562 75.55982208251953 181.89999389648438 75.25981903076172 145.60000610351562 L 74.95982360839844 108.19999694824219 L 87.55982208251953 108.19999694824219 L 151.559814453125 199.1999969482422 L 214.059814453125 199.1999969482422 C 215.2572784423828 187.40541076660156 208.20408630371094 199.63357543945312 194.65988159179688 182.29954528808594 C 191.59523010253906 175.70608520507812 130.76034545898438 100.77725982666016 143.45697021484375 103.80146789550781 C 174.18896484375 95.6514663696289 190.15951538085938 67.22099304199219 180.3583526611328 36.99922180175781 C 156.59518432617188 -4.968160152435303 144.0181884765625 2.818700075149536 63.36159133911133 0.4974699914455414 L 0.05982000008225441 0.0 L 0.05982000008225441 2.5" stroke-width="1.0" fill="rgb(0, 0, 0)" opacity="0.5"/>
  </g>
</svg>
