<?xml version="1.0" ?>
<svg xmlns="http://www.w3.org/2000/svg" version="1.1" width="139" height="208">
  <defs/>
  <g>
    <path d="M 49.099998474121094 1.30594003200531 C 14.405229568481445 7.194419860839844 -7.7340898513793945 41.600521087646484 2.8008999824523926 74.40666961669922 C 9.100000381469727 92.70594024658203 24.399999618530273 106.40593719482422 56.099998474121094 122.20600128173828 C 87.4000015258789 137.80599975585938 98.69999694824219 146.00599670410156 103.5999984741211 156.6060028076172 C 110.69999694824219 171.70599365234375 101.5999984741211 189.80599975585938 84.30000305175781 195.20599365234375 C 50.599578857421875 205.3701171875 15.981599807739258 176.6873016357422 7.801000118255615 141.50558471679688 C 5.01432991027832 131.69500732421875 5.347089767456055 133.3829345703125 0.0 133.20599365234375 L 0.0 208.20599365234375 C 3.0630600452423096 208.1143341064453 6.019420146942139 208.79791259765625 7.5 205.30555725097656 C 20.17976951599121 183.41226196289062 45.130001068115234 212.78456115722656 74.70020294189453 207.90463256835938 C 127.96482849121094 210.22592163085938 161.5751953125 145.43006896972656 123.99835205078125 108.1046371459961 C 114.9000015258789 98.90593719482422 105.0999984741211 92.60594177246094 77.69999694824219 78.50594329833984 C 46.817230224609375 61.5961799621582 29.463520050048828 56.05942153930664 32.998260498046875 32.20677947998047 C 51.642738342285156 -11.455789566040039 113.3977279663086 20.598539352416992 120.19776153564453 60.20663833618164 C 121.29296875 68.13115692138672 123.30290985107422 65.86824798583984 128.1999969482422 66.20594024658203 C 127.61385345458984 51.1639404296875 126.9260025024414 33.970458984375 126.4000015258789 17.90593910217285 C 125.80000305175781 0.6059399843215942 125.69999694824219 0.20593999326229095 123.5999984741211 0.20593999326229095 C 121.80000305175781 0.20593999326229095 121.19999694824219 1.1059399843215942 120.0999984741211 4.905940055847168 C 115.55779266357422 28.125329971313477 86.29254913330078 -7.023230075836182 49.099998474121094 1.30594003200531" stroke-width="1.0" fill="rgb(0, 0, 0)" opacity="0.5"/>
  </g>
</svg>
