<?xml version="1.0" ?>
<svg xmlns="http://www.w3.org/2000/svg" version="1.1" width="179" height="199">
  <defs/>
  <g>
    <path d="M 0.0 27.0 L 0.0 54.0 C 4.969940185546875 53.78470993041992 5.229229927062988 55.5667610168457 7.199999809265137 46.70000076293945 C 16.617740631103516 12.437899589538574 34.04288864135742 11.7802095413208 65.0999984741211 11.800000190734863 C 63.82365036010742 49.938331604003906 66.9697265625 184.2842559814453 62.40275955200195 184.99444580078125 C 56.97330093383789 196.44932556152344 36.4930305480957 191.28213500976562 36.999420166015625 196.59912109375 L 37.0 199.0 L 141.0 199.0 C 143.16661071777344 188.99986267089844 125.41825866699219 198.52308654785156 115.5999984741211 185.6995849609375 C 113.5 182.89999389648438 113.5 182.3000030517578 113.19999694824219 97.30000305175781 L 113.0 11.800000190734863 C 128.81117248535156 12.230669975280762 149.28021240234375 10.967499732971191 157.2991485595703 21.901090621948242 C 163.3000030517578 27.5 167.5 35.29999923706055 170.89999389648438 46.70000076293945 C 173.42677307128906 55.60054016113281 173.73268127441406 53.797401428222656 179.0 54.0 L 179.0 0.0 L 0.0 0.0 L 0.0 27.0" stroke-width="1.0" fill="rgb(0, 0, 0)" opacity="0.5"/>
  </g>
</svg>
