<?xml version="1.0" ?>
<svg xmlns="http://www.w3.org/2000/svg" version="1.1" width="206" height="203">
  <defs/>
  <g>
    <path d="M 0.05950000137090683 2.4000000953674316 C -1.236430048942566 7.4591898918151855 19.0185604095459 2.2357499599456787 23.558879852294922 13.000720024108887 C 25.45949935913086 16.399999618530273 25.559499740600586 18.5 26.159500122070312 83.0 C 26.859500885009766 156.60000610351562 26.859500885009766 156.60000610351562 33.45949935913086 170.39999389648438 C 60.32065963745117 220.8489990234375 166.97633361816406 213.8741912841797 175.65867614746094 151.0011749267578 C 177.0594940185547 143.10000610351562 177.45950317382812 131.60000610351562 177.95950317382812 81.0 C 178.5594940185547 20.799999237060547 178.5594940185547 20.5 180.75950622558594 16.299999237060547 C 184.6595001220703 9.100000381469727 191.95950317382812 5.0 201.1595001220703 5.0 C 207.42431640625 5.318999767303467 205.83889770507812 3.5733399391174316 206.0594940185547 -3.552713678800501e-15 L 137.0594940185547 -3.552713678800501e-15 C 137.2071075439453 3.043720006942749 135.98025512695312 5.3406901359558105 140.85943603515625 4.9999098777771 C 175.37957763671875 8.636019706726074 162.35888671875 30.524250030517578 164.7616729736328 85.69905853271484 C 164.3594970703125 150.60000610351562 164.1595001220703 152.3000030517578 157.95950317382812 164.0 C 148.95950317382812 181.0 128.3594970703125 190.39999389648438 107.3594970703125 187.1999969482422 C 94.07008361816406 185.7821044921875 81.5893325805664 176.5228271484375 77.55956268310547 164.89956665039062 C 74.7594985961914 155.5 73.8594970703125 132.6999969482422 74.2594985961914 74.5 C 74.65950012207031 15.5 74.7594985961914 15.199999809265137 79.3594970703125 10.100000381469727 C 83.36150360107422 3.150369882583618 103.58149719238281 7.159140110015869 103.86004638671875 2.2009201049804688 L 104.15950012207031 0.0 L 0.05950000137090683 0.0 L 0.05950000137090683 2.4000000953674316" stroke-width="1.0" fill="rgb(0, 0, 0)" opacity="0.5"/>
  </g>
</svg>
