<?xml version="1.0" ?>
<svg xmlns="http://www.w3.org/2000/svg" version="1.1" width="285" height="203">
  <defs/>
  <g>
    <path d="M 0.0 2.5 C 0.20468999445438385 8.4923095703125 10.383830070495605 1.6731599569320679 17.199140548706055 19.000619888305664 C 21.200000762939453 27.0 43.0 82.4000015258789 81.0999984741211 181.1999969482422 C 91.34693145751953 205.53880310058594 87.21772003173828 202.54940795898438 95.5 203.0 C 104.9752197265625 179.78616333007812 143.91073608398438 83.42154693603516 146.89988708496094 77.20021057128906 C 144.77223205566406 64.47247314453125 181.81434631347656 169.61163330078125 194.5 203.0 L 200.5 203.0 C 214.3341522216797 165.1852569580078 258.50482177734375 44.13417053222656 265.2998046875 26.70046043395996 C 274.4037780761719 -1.7072399854660034 286.0835876464844 11.120380401611328 285.0 0.0 L 235.0 0.0 C 235.05299377441406 3.5630500316619873 234.08421325683594 5.017600059509277 239.8000030517578 5.599870204925537 C 252.8000030517578 7.400000095367432 256.20001220703125 13.600000381469727 252.5 28.200000762939453 C 251.0 33.599998474121094 217.6999969482422 125.80000305175781 216.10000610351562 128.8000030517578 C 209.61285400390625 119.0739974975586 205.46421813964844 100.07450103759766 192.99855041503906 69.0010986328125 C 182.54420471191406 34.2718391418457 162.4320068359375 6.950170040130615 187.29873657226562 5.800600051879883 C 196.1346893310547 4.513150215148926 194.8957061767578 4.556429862976074 195.0 0.0 L 102.0 0.0 C 101.68157196044922 14.466130256652832 118.12644958496094 -11.44906997680664 134.8983917236328 42.80086898803711 C 138.1999969482422 51.79999923706055 141.0 59.70000076293945 141.0 60.29999923706055 C 141.0 61.70000076293945 111.80000305175781 135.10000610351562 111.4000015258789 134.6999969482422 C 109.94400024414062 126.28228759765625 62.45008087158203 22.970190048217773 68.49614715576172 11.100879669189453 C 72.8620834350586 2.5509400367736816 85.68374633789062 9.3987398147583 84.0 0.0 L 0.0 0.0 L 0.0 2.5" stroke-width="1.0" fill="rgb(0, 0, 0)" opacity="0.5"/>
  </g>
</svg>
