<?xml version="1.0" ?>
<svg xmlns="http://www.w3.org/2000/svg" version="1.1" width="214" height="199">
  <defs/>
  <g>
    <path d="M 4.4146599769592285 1.5 C 3.31466007232666 4.199999809265137 4.714660167694092 5.5 9.914660453796387 6.900000095367432 C 23.766260147094727 8.284919738769531 72.8920669555664 90.71678924560547 87.41683197021484 109.89800262451172 C 79.37982940673828 118.63500213623047 30.753389358520508 189.42999267578125 7.016469955444336 192.40133666992188 C -1.062190055847168 193.96548461914062 0.09990999847650528 194.44613647460938 0.014659999869763851 199.0 L 77.01466369628906 199.0 C 76.88191223144531 194.77590942382812 78.26551055908203 194.32354736328125 70.41465759277344 193.60000610351562 C 51.314659118652344 191.60000610351562 46.21466064453125 182.39999389648438 56.11465835571289 167.8000030517578 C 62.61465835571289 158.1999969482422 93.31465911865234 121.0999984741211 94.51466369628906 121.4000015258789 C 95.81465911865234 121.69999694824219 128.01466369628906 168.89999389648438 132.01466369628906 176.10000610351562 C 135.51466369628906 182.8000030517578 135.71466064453125 184.8000030517578 132.91465759277344 188.3000030517578 C 130.16209411621094 193.73353576660156 115.22559356689453 191.87623596191406 116.01422119140625 196.49925231933594 L 116.01466369628906 199.0 L 214.01466369628906 199.0 C 213.9927215576172 195.0184326171875 214.7645263671875 194.2830047607422 208.51454162597656 192.5 C 188.7984619140625 187.83856201171875 132.76123046875 88.53025817871094 126.71185302734375 82.5024185180664 C 126.71466064453125 81.0 174.81466674804688 23.100000381469727 181.61465454101562 16.399999618530273 C 187.91465759277344 10.199999809265137 193.81466674804688 7.199999809265137 201.61465454101562 6.199999809265137 C 208.8395538330078 5.665999889373779 207.46165466308594 4.282410144805908 208.11465454101562 -8.881784197001252e-16 L 133.91465759277344 -8.881784197001252e-16 C 134.52413940429688 4.139190196990967 133.25015258789062 5.617179870605469 140.01466369628906 6.099800109863281 C 158.22976684570312 8.7846097946167 160.74853515625 20.6458797454834 147.91482543945312 37.599239349365234 C 140.61465454101562 47.900001525878906 120.61466217041016 71.9000015258789 119.51466369628906 71.5999984741211 C 119.01466369628906 71.5 110.71466064453125 59.79999923706055 101.21466064453125 45.70000076293945 C 85.4600830078125 20.259130477905273 79.8522720336914 18.666210174560547 86.21308135986328 9.300080299377441 C 89.08899688720703 4.294589996337891 104.35199737548828 8.21969985961914 103.81494140625 2.7005999088287354 L 104.11466217041016 0.0 L 54.5146598815918 0.0 C 11.414660453796387 0.0 4.9146599769592285 0.20000000298023224 4.4146599769592285 1.5" stroke-width="1.0" fill="rgb(0, 0, 0)" opacity="0.5"/>
  </g>
</svg>
