<?xml version="1.0" ?>
<svg xmlns="http://www.w3.org/2000/svg" version="1.1" width="211" height="199">
  <defs/>
  <g>
    <path d="M 0.0 2.299999952316284 C 0.0 4.300000190734863 0.800000011920929 4.800000190734863 6.099999904632568 5.800000190734863 C 17.700000762939453 8.300000190734863 18.799999237060547 9.899999618530273 56.5 78.5 L 82.19999694824219 125.30000305175781 C 81.62471008300781 140.05288696289062 83.57958984375 189.36117553710938 75.79907989501953 188.59884643554688 C 72.25591278076172 193.35400390625 58.08879852294922 193.18087768554688 50.0 193.0 L 50.0 199.0 C 77.79263305664062 198.92300415039062 133.71681213378906 198.67233276367188 161.5 198.5 C 161.2211151123047 193.0749969482422 163.4403839111328 193.73916625976562 151.50009155273438 192.99986267089844 C 140.60000610351562 192.5 136.5 190.89999389648438 132.60000610351562 185.6999969482422 C 130.60000610351562 183.0 130.5 181.60000610351562 130.1999969482422 149.60000610351562 L 129.89999389648438 116.30000305175781 C 147.22764587402344 89.02982330322266 194.51513671875 0.17371000349521637 205.5 6.3011698722839355 C 211.6002655029297 4.499100208282471 211.0229949951172 3.7892799377441406 211.0 0.0 L 150.0 0.0 C 150.1027374267578 4.446569919586182 148.83872985839844 4.494239807128906 157.10000610351562 5.900000095367432 C 173.5 8.600000381469727 175.60000610351562 13.600000381469727 167.1999969482422 30.100000381469727 C 164.60000610351562 35.29999923706055 153.8000030517578 54.099998474121094 143.10000610351562 71.9000015258789 C 125.9000015258789 100.80000305175781 123.5999984741211 104.19999694824219 122.4000015258789 102.5999984741211 C 119.5999984741211 98.69999694824219 80.0 25.200000762939453 78.0 20.100000381469727 C 74.0999984741211 10.0 76.9000015258789 6.099999904632568 88.9000015258789 5.199999809265137 C 97.40631103515625 4.733119964599609 95.822998046875 4.408209800720215 96.0 0.0 L 0.0 0.0 L 0.0 2.299999952316284" stroke-width="1.0" fill="rgb(0, 0, 0)" opacity="0.5"/>
  </g>
</svg>
