<?xml version="1.0" ?>
<svg xmlns="http://www.w3.org/2000/svg" version="1.1" width="191" height="199">
  <defs/>
  <g>
    <path d="M 20.299999237060547 13.725000381469727 C 19.700000762939453 21.325000762939453 18.5 34.224998474121094 17.700000762939453 42.42499923706055 C 17.444339752197266 52.22275161743164 14.263620376586914 59.44599914550781 19.299320220947266 58.525001525878906 C 21.200000762939453 58.42499923706055 22.0 57.025001525878906 24.299999237060547 50.224998474121094 C 29.700000762939453 34.224998474121094 37.599998474121094 24.225000381469727 50.099998474121094 17.625 C 59.34170150756836 9.562000274658203 96.81179809570312 11.10431957244873 117.30000305175781 11.524999618530273 C 93.72183227539062 49.26409149169922 8.396909713745117 185.50558471679688 0.0 199.02499389648438 C 45.761810302734375 198.94784545898438 137.8498077392578 198.69705200195312 183.60000610351562 198.52499389648438 C 185.17926025390625 184.95916748046875 190.84031677246094 134.0140838623047 191.19985961914062 129.22512817382812 C 191.1999969482422 127.42500305175781 190.60000610351562 127.0250015258789 188.39999389648438 127.0250015258789 C 185.8000030517578 127.0250015258789 185.5 127.42500305175781 183.8000030517578 134.125 C 167.3707733154297 195.50025939941406 107.6072006225586 188.68978881835938 63.19905090332031 187.3245849609375 C 60.434879302978516 190.35597229003906 181.65121459960938 -2.7811200618743896 179.1990509033203 0.42673999071121216 C 172.57949829101562 0.02573000080883503 49.71588134765625 -0.04805999994277954 21.5 0.02500000037252903 L 20.299999237060547 13.725000381469727" stroke-width="1.0" fill="rgb(0, 0, 0)" opacity="0.5"/>
  </g>
</svg>
