<?xml version="1.0" ?>
<svg xmlns="http://www.w3.org/2000/svg" version="1.1" width="201" height="199">
  <defs/>
  <g>
    <path d="M 0.03629999980330467 2.5 C -1.0258899927139282 7.75432014465332 21.54460906982422 3.9658799171447754 25.8356990814209 14.50072956085205 C 27.43630027770996 17.399999618530273 27.536300659179688 24.0 27.836299896240234 94.69999694824219 C 28.036300659179688 137.0 27.836299896240234 174.60000610351562 27.536300659179688 178.1999969482422 C 26.47783088684082 190.5927276611328 17.244699478149414 193.71044921875 4.536709785461426 194.20069885253906 C -1.1723999977111816 193.82754516601562 0.21671000123023987 195.8358154296875 0.03629999980330467 199.1999969482422 C 68.11035919189453 196.8272247314453 139.87368774414062 210.63299560546875 176.63499450683594 168.999755859375 C 194.35557556152344 149.39222717285156 202.07008361816406 128.46136474609375 201.43679809570312 99.70044708251953 C 202.95199584960938 49.37425994873047 171.34927368164062 11.37576961517334 123.53634643554688 3.0 C 114.43634796142578 1.100000023841858 108.53630065917969 0.8999999761581421 56.83634948730469 0.5 L 0.03629999980330467 0.0 L 0.03629999980330467 2.5" stroke-width="1.0" fill="rgb(0, 0, 0)" opacity="0.5"/>
  </g>
</svg>
