<?xml version="1.0" ?>
<svg xmlns="http://www.w3.org/2000/svg" version="1.1" width="180" height="199">
  <defs/>
  <g>
    <path d="M 0.0 2.4000000953674316 C 0.0 4.699999809265137 0.4000000059604645 4.800000190734863 7.300000190734863 5.199999809265137 C 19.899999618530273 5.800000190734863 26.200000762939453 10.899999618530273 27.5 21.299999237060547 C 27.799999237060547 24.200000762939453 28.0 61.099998474121094 27.799999237060547 103.5 C 24.873319625854492 187.39199829101562 37.62628936767578 191.65692138671875 0.0 193.0 L 0.0 199.0 C 42.72100067138672 198.92286682128906 128.6898651123047 198.6720428466797 171.39999389648438 198.5 C 172.703369140625 193.09474182128906 177.99436950683594 154.2594757080078 180.2999267578125 137.0001220703125 C 180.39999389648438 136.10000610351562 179.5 135.39999389648438 177.89999389648438 135.1999969482422 C 175.5 134.89999389648438 175.10000610351562 135.5 172.60000610351562 142.6999969482422 C 162.61842346191406 182.39999389648438 111.28125 194.78680419921875 81.3984375 184.49888610839844 C 76.19999694824219 181.1999969482422 76.0 179.10000610351562 76.0 139.5 L 76.0 102.9000015258789 C 100.88291931152344 104.06475830078125 111.29154968261719 112.29387664794922 117.59966278076172 147.70046997070312 C 117.63094329833984 150.6834716796875 121.79412078857422 149.9078826904297 124.0 150.0 L 124.0 45.0 C 119.84142303466797 44.870731353759766 116.68392181396484 44.618560791015625 117.0002670288086 50.800270080566406 C 113.57562255859375 75.1688003540039 104.61962127685547 92.84607696533203 76.0 92.30000305175781 L 76.0 10.699999809265137 C 114.79900360107422 11.564370155334473 149.73680114746094 8.475079536437988 158.798828125 50.80118179321289 C 160.7288360595703 59.365318298339844 161.10682678222656 57.85118103027344 166.0 58.0 L 166.0 0.0 L 0.0 0.0 L 0.0 2.4000000953674316" stroke-width="1.0" fill="rgb(0, 0, 0)" opacity="0.5"/>
  </g>
</svg>
