<?xml version="1.0" ?>
<svg xmlns="http://www.w3.org/2000/svg" version="1.1" width="168" height="199">
  <defs/>
  <g>
    <path d="M 0.009999999776482582 2.4000000953674316 C 0.009999999776482582 4.599999904632568 0.5099999904632568 4.800000190734863 7.809999942779541 5.400000095367432 C 36.11568832397461 13.104069709777832 24.987289428710938 4.874470233917236 27.812389373779297 94.29846954345703 C 28.010000228881836 137.3000030517578 27.809999465942383 174.8000030517578 27.510000228881836 177.6999969482422 C 26.209999084472656 188.10000610351562 20.709999084472656 192.5 7.710000038146973 193.60000610351562 C -1.3319200277328491 194.48646545410156 0.15987999737262726 194.36227416992188 0.009999999776482582 199.0 L 104.01000213623047 199.0 C 103.85542297363281 194.383544921875 105.34919738769531 194.4828643798828 96.41000366210938 193.60000610351562 C 87.91000366210938 192.89999389648438 82.01000213623047 190.3000030517578 78.61000061035156 185.6999969482422 C 76.61000061035156 182.89999389648438 76.51000213623047 181.60000610351562 76.20999908447266 143.3000030517578 L 75.91000366210938 103.69999694824219 C 105.1722183227539 104.203369140625 120.40763854980469 116.93472290039062 123.70919799804688 145.1009979248047 C 124.1533432006836 152.72242736816406 125.61913299560547 150.7106475830078 130.00999450683594 151.0 L 130.00999450683594 51.0 C 125.09185791015625 51.247318267822266 124.53916931152344 49.324440002441406 123.31011962890625 58.099998474121094 C 118.35623168945312 84.72672271728516 102.20877838134766 93.74214935302734 76.01000213623047 93.30000305175781 L 76.01000213623047 11.800000190734863 C 113.41445922851562 12.829000473022461 152.72999572753906 7.553309917449951 160.0092010498047 48.80073928833008 C 162.09010314941406 59.43291091918945 161.90972900390625 57.22200012207031 167.50999450683594 57.5 C 167.6815643310547 43.16728973388672 167.93258666992188 14.32783031463623 168.00999450683594 0.0 L 0.009999999776482582 0.0 L 0.009999999776482582 2.4000000953674316" stroke-width="1.0" fill="rgb(0, 0, 0)" opacity="0.5"/>
  </g>
</svg>
