<?xml version="1.0" ?>
<svg xmlns="http://www.w3.org/2000/svg" version="1.1" width="220" height="208">
  <defs/>
  <g>
    <path d="M 87.09532928466797 2.1431798934936523 C -69.98307037353516 44.71791076660156 -3.2247700691223145 273.59332275390625 196.39532470703125 191.24317932128906 L 196.7953338623047 164.44317626953125 C 197.0953369140625 139.74317932128906 197.2953338623047 137.3431854248047 199.0953369140625 134.24317932128906 C 202.0953369140625 129.14317321777344 205.5953369140625 127.04318237304688 213.49533081054688 125.84317779541016 C 222.1714630126953 124.53401947021484 220.4624481201172 124.24040985107422 220.0953369140625 119.64318084716797 L 123.09532928466797 119.64318084716797 C 122.99964904785156 123.8425521850586 120.56169128417969 125.53292083740234 128.29525756835938 125.14290618896484 C 148.4121551513672 129.599365234375 147.81503295898438 124.78648376464844 148.3959503173828 163.24148559570312 L 148.69532775878906 191.04318237304688 C 55.389610290527344 225.54864501953125 40.40700149536133 112.12776947021484 63.297271728515625 49.340850830078125 C 76.44593811035156 11.908670425415039 120.62846374511719 1.523300051689148 152.8960723876953 20.54384994506836 C 167.19532775878906 28.54322052001953 181.7953338623047 46.04322052001953 188.19532775878906 62.743221282958984 C 191.4794158935547 71.22859191894531 191.5440673828125 70.06355285644531 196.5953369140625 70.14321899414062 L 196.5953369140625 0.14322000741958618 C 186.54075622558594 -1.6254099607467651 189.9717559814453 13.563929557800293 177.39491271972656 14.142999649047852 C 171.16224670410156 13.333120346069336 142.84283447265625 2.2983100414276123 135.79525756835938 1.6436200141906738 C 123.79532623291016 -0.456820011138916 98.69532775878906 -0.2568199932575226 87.09532928466797 2.1431798934936523" stroke-width="1.0" fill="rgb(0, 0, 0)" opacity="0.5"/>
  </g>
</svg>
