<?xml version="1.0" ?>
<svg xmlns="http://www.w3.org/2000/svg" version="1.1" width="222" height="199">
  <defs/>
  <g>
    <path d="M 0.8262100219726562 0.708840012550354 C -3.613149881362915 10.134180068969727 10.907090187072754 3.0938398838043213 18.926090240478516 8.609410285949707 C 34.889869689941406 -0.07481999695301056 25.078140258789062 144.2430877685547 27.626209259033203 182.5088348388672 C 23.49570083618164 190.0025634765625 19.531999588012695 193.3274688720703 7.926000118255615 193.80856323242188 C -1.3244400024414062 194.30108642578125 0.30399999022483826 194.33627319335938 0.12625999748706818 199.0088348388672 L 104.12625885009766 199.0088348388672 C 103.8941421508789 195.01304626464844 105.58965301513672 193.75384521484375 98.42626190185547 194.00900268554688 C 89.22962188720703 194.47409057617188 79.3879623413086 190.33180236816406 77.12625885009766 181.5083770751953 C 75.90780639648438 175.21348571777344 76.12599182128906 119.82279205322266 76.12625885009766 104.00884246826172 L 146.22625732421875 104.00884246826172 L 145.92625427246094 143.20884704589844 C 145.6262664794922 182.0088348388672 145.6262664794922 182.5088348388672 143.32626342773438 186.1088409423828 C 140.32626342773438 191.1088409423828 133.42625427246094 194.0088348388672 124.72625732421875 194.0088348388672 C 116.48596954345703 193.84483337402344 118.37850952148438 194.66749572753906 118.12625885009766 199.0088348388672 L 222.1262664794922 199.0088348388672 C 221.89703369140625 194.95803833007812 223.58755493164062 193.7935028076172 216.42625427246094 194.00889587402344 C 204.02626037597656 194.0088348388672 196.52626037597656 189.20889282226562 195.02626037597656 180.40884399414062 C 193.82626342773438 173.1088409423828 193.92625427246094 26.40884017944336 195.1262664794922 19.90884017944336 C 196.66046142578125 7.742499828338623 210.00277709960938 5.069690227508545 222.22625732421875 6.008840084075928 C 222.08163452148438 4.637020111083984 221.78085327148438 1.8770999908447266 221.6262664794922 0.508840024471283 L 118.62625885009766 0.508840024471283 C 118.47171020507812 1.876710057258606 118.17076110839844 4.6381001472473145 118.02626037597656 6.008840084075928 C 124.35147094726562 6.001840114593506 131.78587341308594 5.531839847564697 136.92616271972656 8.609189987182617 C 145.82626342773438 13.00883960723877 145.6262664794922 12.00883960723877 145.92625427246094 54.208839416503906 L 146.22625732421875 91.00884246826172 L 76.12625885009766 91.00884246826172 C 76.14280700683594 76.06838989257812 75.85436248779297 24.912839889526367 77.22637176513672 19.00905990600586 C 78.7794418334961 7.9105401039123535 92.65515899658203 5.036880016326904 104.12621307373047 6.008840084075928 L 104.12621307373047 0.008840000256896019 C 85.34661865234375 0.062460001558065414 5.513919830322266 -0.2532399892807007 0.8262100219726562 0.708840012550354" stroke-width="1.0" fill="rgb(0, 0, 0)" opacity="0.5"/>
  </g>
</svg>
