<?xml version="1.0" ?>
<svg xmlns="http://www.w3.org/2000/svg" version="1.1" width="600" height="600">
  <defs/>
  <g>
    <path d="M 358.1000061035156 320.8999938964844 C 348.9380798339844 321.1791076660156 343.26275634765625 333.8404541015625 348.5837097167969 341.2315368652344 C 353.9046936035156 348.62261962890625 367.06781005859375 347.6714172363281 371.8910827636719 339.87359619140625 C 376.71435546875 332.0758056640625 372.4549255371094 320.4765930175781 363.95281982421875 317.02117919921875 L 358.1000061035156 320.8999938964844" stroke-width="0.6000000238418579" fill="rgb(233, 92, 21)" opacity="1.0"/>
    <path d="M 90.89999389648438 189.10009765625 C 86.08802795410156 188.6043701171875 80.28860473632812 188.51132202148438 77.54325866699219 192.5142822265625 C 76.51272583007812 194.1497802734375 76.01507568359375 196.0648193359375 76.11903381347656 197.9951171875 C 76.24772644042969 202.77816772460938 78.68673706054688 207.20211791992188 82.66264343261719 209.8641357421875 C 86.04107666015625 212.11358642578125 90.15898132324219 212.7919921875 94.1534423828125 213.355224609375 C 96.39781188964844 213.66793823242188 98.79232788085938 213.92874145507812 100.824462890625 212.9544677734375 C 103.52249145507812 211.63360595703125 104.78144836425781 208.5047607421875 105.4703369140625 205.58175659179688 C 106.48387145996094 201.30523681640625 106.79853820800781 196.892822265625 106.40211486816406 192.5157470703125 C 106.26223754882812 191.003662109375 106.01446533203125 189.43060302734375 105.13099670410156 188.1961669921875 C 104.25083923339844 187.09039306640625 103.06793212890625 186.26458740234375 101.72653198242188 185.81948852539062 C 97.71011352539062 184.31103515625 93.23414611816406 184.64044189453125 89.4818115234375 186.72061157226562 L 90.89999389648438 189.10009765625" stroke-width="0.6000000238418579" fill="rgb(70, 150, 179)" opacity="1.0"/>
    <path d="M 469.0999755859375 445.0999755859375 C 463.6849365234375 444.152587890625 457.64306640625 443.329833984375 453.092529296875 446.40777587890625 C 448.2061767578125 449.7171630859375 446.88311767578125 456.5675048828125 448.195556640625 462.3211669921875 C 448.70062255859375 464.539794921875 449.5814208984375 466.761962890625 451.2493896484375 468.30926513671875 C 452.6199951171875 469.581787109375 454.405517578125 470.297607421875 456.1795654296875 470.8883056640625 C 461.7718505859375 472.7579345703125 468.14697265625 473.616943359375 473.39849853515625 470.93817138671875 C 478.6893310546875 468.234619140625 481.88531494140625 461.90521240234375 480.885009765625 456.043212890625 C 479.884765625 450.18115234375 474.823974609375 445.2274169921875 468.93109130859375 444.400146484375 L 469.0999755859375 445.0999755859375" stroke-width="0.6000000238418579" fill="rgb(140, 28, 33)" opacity="1.0"/>
    <path d="M 96.0 196.0 C 95.02349853515625 196.73348999023438 94.0155029296875 197.50750732421875 93.43499755859375 198.5830078125 C 92.85450744628906 199.65850830078125 92.8275146484375 201.13897705078125 93.70050048828125 201.99398803710938 C 94.78048706054688 203.0469970703125 96.75149536132812 202.59698486328125 97.656005859375 201.386474609375 C 98.56050109863281 200.17596435546875 98.60549926757812 198.5155029296875 98.29049682617188 197.03948974609375 C 98.23876953125 196.57281494140625 98.01397705078125 196.14251708984375 97.66049194335938 195.83349609375 C 97.28250122070312 195.5679931640625 96.62100219726562 195.68951416015625 96.5264892578125 196.14398193359375 L 96.0 196.0" stroke-width="0.6000000238418579" fill="rgb(159, 159, 159)" opacity="1.0"/>
    <path d="M 378.8999938964844 309.1000061035156 C 373.9095458984375 310.0760192871094 369.144775390625 312.7830810546875 366.32891845703125 317.0140686035156 C 363.5130615234375 321.2450256347656 362.9151611328125 327.05133056640625 365.4270935058594 331.49420166015625 C 367.20703125 334.63311767578125 370.3609619140625 336.85546875 373.7917785644531 337.9837951660156 C 377.2226257324219 339.1120910644531 380.917236328125 339.228271484375 384.51055908203125 338.859130859375 C 386.07421875 338.69757080078125 387.7026672363281 338.4149169921875 388.93365478515625 337.44384765625 C 390.3454895019531 336.3311767578125 390.9761047363281 334.5216064453125 391.4577941894531 332.78411865234375 C 392.8175964355469 327.8787536621094 393.4774169921875 322.578125 391.8708801269531 317.7472839355469 C 390.2642822265625 312.9164123535156 385.91986083984375 308.7369079589844 380.84368896484375 308.5865173339844 L 378.8999938964844 309.1000061035156" stroke-width="0.6000000238418579" fill="rgb(159, 159, 159)" opacity="1.0"/>
    <path d="M 95.89999389648438 442.0999755859375 C 90.57339477539062 442.2081298828125 84.65728759765625 442.5589599609375 80.93637084960938 446.357421875 C 77.31254577636719 450.04638671875 76.96133422851562 455.7567138671875 76.92047119140625 460.929931640625 C 76.906982421875 463.03155517578125 76.92636108398438 465.2303466796875 77.90797424316406 467.08734130859375 C 79.56634521484375 470.22906494140625 83.42274475097656 471.4625244140625 86.94883728027344 471.85028076171875 C 90.22151184082031 472.21142578125 93.52908325195312 472.100830078125 96.77032470703125 471.521728515625 C 102.03352355957031 470.58349609375 107.61552429199219 467.82275390625 109.18856811523438 462.71527099609375 C 110.04183959960938 459.9591064453125 109.55686950683594 456.9136962890625 108.41465759277344 454.25946044921875 C 107.27243041992188 451.60516357421875 105.5048828125 449.2724609375 103.72708129882812 446.9945068359375 C 101.94927978515625 444.7164306640625 100.15361022949219 442.51617431640625 97.65824890136719 441.200927734375 L 95.89999389648438 442.0999755859375" stroke-width="0.6000000238418579" fill="rgb(218, 166, 20)" opacity="1.0"/>
    <path d="M 97.10000610351562 149.10000610351562 C 88.80841064453125 147.82774353027344 81.05535888671875 153.51803588867188 79.78311157226562 161.80963134765625 C 79.67414855957031 162.5196533203125 79.61572265625 163.23648071289062 79.60821533203125 163.95477294921875 C 79.58023071289062 166.68408203125 80.3680419921875 169.5303955078125 82.29376220703125 171.46286010742188 C 83.92098999023438 173.0960693359375 86.17788696289062 173.925537109375 88.41366577148438 174.4818115234375 C 94.40036010742188 175.96255493164062 100.67434692382812 175.81329345703125 106.58389282226562 174.04959106445312 C 108.14517211914062 173.58074951171875 109.71707153320312 172.97427368164062 110.91157531738281 171.85986328125 C 112.91801452636719 169.99014282226562 113.49955749511719 166.9822998046875 113.15916442871094 164.25897216796875 C 112.65660095214844 160.2154541015625 110.36166381835938 156.50735473632812 107.22933959960938 153.89996337890625 C 104.0970458984375 151.29257202148438 100.18487548828125 149.7260284423828 96.17202758789062 149.01614379882812 L 97.10000610351562 149.10000610351562" stroke-width="0.6000000238418579" fill="rgb(143, 165, 67)" opacity="1.0"/>
    <path d="M 464.0999755859375 341.1000061035156 C 454.9381103515625 341.3791198730469 449.26275634765625 354.04046630859375 454.583740234375 361.4315490722656 C 459.9046630859375 368.8226318359375 473.06781005859375 367.8714294433594 477.89111328125 360.0736083984375 C 482.71435546875 352.27581787109375 478.4549560546875 340.6766052246094 469.95281982421875 337.22119140625 L 464.0999755859375 341.1000061035156" stroke-width="0.6000000238418579" fill="rgb(233, 92, 21)" opacity="1.0"/>
    <path d="M 101.89999389648438 205.89999389648438 C 97.08802795410156 205.404296875 91.28860473632812 205.31121826171875 88.54325866699219 209.31417846679688 C 87.51272583007812 210.94970703125 87.01507568359375 212.86471557617188 87.11903381347656 214.7950439453125 C 87.24772644042969 219.57806396484375 89.68673706054688 224.00204467773438 93.66264343261719 226.66403198242188 C 97.04107666015625 228.91348266601562 101.15898132324219 229.5919189453125 105.1534423828125 230.15512084960938 C 107.39781188964844 230.46783447265625 109.79232788085938 230.7286376953125 111.824462890625 229.75439453125 C 114.52249145507812 228.43353271484375 115.78144836425781 225.30465698242188 116.4703369140625 222.38165283203125 C 117.48387145996094 218.10513305664062 117.79853820800781 213.6927490234375 117.40211486816406 209.31564331054688 C 117.26223754882812 207.80355834960938 117.01446533203125 206.23049926757812 116.13099670410156 204.99606323242188 C 115.25083923339844 203.89028930664062 114.06793212890625 203.06451416015625 112.72653198242188 202.619384765625 C 108.71011352539062 201.1109619140625 104.23414611816406 201.44033813476562 100.4818115234375 203.5205078125 L 101.89999389648438 205.89999389648438" stroke-width="0.6000000238418579" fill="rgb(70, 150, 179)" opacity="1.0"/>
    <path d="M 97.89999389648438 87.10000610351562 C 92.48497009277344 86.152587890625 86.44305419921875 85.32980346679688 81.89248657226562 88.40777587890625 C 77.00614929199219 91.71713256835938 75.68310546875 98.56753540039062 76.99554443359375 104.3211669921875 C 77.50062561035156 106.53974914550781 78.38145446777344 108.76197814941406 80.04937744140625 110.30926513671875 C 81.42001342773438 111.58175659179688 83.20552062988281 112.297607421875 84.97958374023438 112.88833618164062 C 90.57183837890625 114.7579345703125 96.947021484375 115.61697387695312 102.198486328125 112.93814086914062 C 107.48931884765625 110.23464965820312 110.68531799316406 103.90519714355469 109.68502807617188 98.04316711425781 C 108.68473815917969 92.18115234375 103.62396240234375 87.22744750976562 97.7310791015625 86.40011596679688 L 97.89999389648438 87.10000610351562" stroke-width="0.6000000238418579" fill="rgb(140, 28, 33)" opacity="1.0"/>
    <path d="M 105.89996337890625 433.9000244140625 C 104.96920776367188 434.690673828125 104.00942993164062 435.5238037109375 103.49447631835938 436.63214111328125 C 102.97952270507812 437.740478515625 103.04133605957031 439.219970703125 103.96403503417969 440.0211181640625 C 105.105224609375 441.0074462890625 107.04568481445312 440.4400634765625 107.8759765625 439.177490234375 C 108.70626831054688 437.9149169921875 108.651611328125 436.2547607421875 108.24868774414062 434.80029296875 C 108.1690673828125 434.3375244140625 107.91888427734375 433.9215087890625 107.54750061035156 433.63421630859375 C 107.15426635742188 433.391845703125 106.50123596191406 433.5528564453125 106.43414306640625 434.01214599609375 L 105.89996337890625 433.9000244140625" stroke-width="0.6000000238418579" fill="rgb(159, 159, 159)" opacity="1.0"/>
    <path d="M 456.9000244140625 70.10000610351562 C 451.9095458984375 71.07600402832031 447.144775390625 73.7830810546875 444.32891845703125 78.01405334472656 C 441.5130615234375 82.24502563476562 440.9151611328125 88.05131530761719 443.4271240234375 92.49418640136719 C 445.20703125 95.63308715820312 448.3609619140625 97.85546875 451.791748046875 98.9837646484375 C 455.22265625 100.11209106445312 458.917236328125 100.22825622558594 462.51055908203125 99.85911560058594 C 464.07421875 99.69755554199219 465.70263671875 99.4149169921875 466.93365478515625 98.44384765625 C 468.345458984375 97.3311767578125 468.97607421875 95.5216064453125 469.457763671875 93.78408813476562 C 470.817626953125 88.87873840332031 471.4774169921875 83.578125 469.870849609375 78.74728393554688 C 468.2642822265625 73.91641235351562 463.91986083984375 69.73690795898438 458.84368896484375 69.58651733398438 L 456.9000244140625 70.10000610351562" stroke-width="0.6000000238418579" fill="rgb(159, 159, 159)" opacity="1.0"/>
    <path d="M 101.89999389648438 92.89999389648438 C 96.57337951660156 93.00808715820312 90.65728759765625 93.35897827148438 86.93635559082031 97.15744018554688 C 83.31253051757812 100.84637451171875 82.96131896972656 106.55670166015625 82.92047119140625 111.72996520996094 C 82.90696716308594 113.83155822753906 82.92634582519531 116.03036499023438 83.907958984375 117.8873291015625 C 85.56634521484375 121.029052734375 89.4227294921875 122.26252746582031 92.94882202148438 122.6502685546875 C 96.22149658203125 123.01144409179688 99.52908325195312 122.90080261230469 102.77030944824219 122.32176208496094 C 108.03350830078125 121.38346862792969 113.61550903320312 118.62277221679688 115.18856811523438 113.5152587890625 C 116.04183959960938 110.75912475585938 115.55685424804688 107.71372985839844 114.41464233398438 105.0594482421875 C 113.27243041992188 102.4051513671875 111.50486755371094 100.07246398925781 109.72706604003906 97.79446411132812 C 107.94927978515625 95.51646423339844 106.15359497070312 93.31619262695312 103.65823364257812 92.00094604492188 L 101.89999389648438 92.89999389648438" stroke-width="0.6000000238418579" fill="rgb(218, 166, 20)" opacity="1.0"/>
    <path d="M 107.10000610351562 139.10000610351562 C 98.80841064453125 137.82774353027344 91.05535888671875 143.51803588867188 89.78311157226562 151.8096160888672 C 89.67414855957031 152.51963806152344 89.61572265625 153.23648071289062 89.60821533203125 153.9547576904297 C 89.58023071289062 156.68408203125 90.3680419921875 159.5303955078125 92.29376220703125 161.46286010742188 C 93.92098999023438 163.0960693359375 96.17788696289062 163.925537109375 98.41366577148438 164.4818115234375 C 104.40036010742188 165.96255493164062 110.67434692382812 165.81329345703125 116.58389282226562 164.04959106445312 C 118.14517211914062 163.58074951171875 119.71707153320312 162.97427368164062 120.91157531738281 161.85986328125 C 122.91801452636719 159.99014282226562 123.49955749511719 156.9822998046875 123.15916442871094 154.25897216796875 C 122.65660095214844 150.21546936035156 120.36166381835938 146.50735473632812 117.22933959960938 143.89996337890625 C 114.0970458984375 141.29257202148438 110.18487548828125 139.7260284423828 106.17202758789062 139.01614379882812 L 107.10000610351562 139.10000610351562" stroke-width="0.6000000238418579" fill="rgb(143, 165, 67)" opacity="1.0"/>
    <path d="M 396.1000061035156 288.8999938964844 C 386.9380798339844 289.1791076660156 381.26275634765625 301.8404541015625 386.5837097167969 309.2315368652344 C 391.9046936035156 316.62261962890625 405.06781005859375 315.6714172363281 409.8910827636719 307.87359619140625 C 414.71435546875 300.0758056640625 410.4549255371094 288.4765930175781 401.95281982421875 285.02117919921875 L 396.1000061035156 288.8999938964844" stroke-width="0.6000000238418579" fill="rgb(233, 92, 21)" opacity="1.0"/>
    <path d="M 109.89999389648438 98.89999389648438 C 105.08802795410156 98.404296875 99.28860473632812 98.31124877929688 96.54325866699219 102.31419372558594 C 95.51272583007812 103.94970703125 95.01507568359375 105.86471557617188 95.11903381347656 107.7950439453125 C 95.24772644042969 112.57809448242188 97.68673706054688 117.00204467773438 101.66264343261719 119.66403198242188 C 105.04107666015625 121.91349792480469 109.15898132324219 122.59190368652344 113.1534423828125 123.15512084960938 C 115.39781188964844 123.46786499023438 117.79232788085938 123.72866821289062 119.824462890625 122.75437927246094 C 122.52249145507812 121.43353271484375 123.78144836425781 118.30465698242188 124.4703369140625 115.38168334960938 C 125.48387145996094 111.10513305664062 125.79853820800781 106.6927490234375 125.40211486816406 102.31565856933594 C 125.26223754882812 100.80355834960938 125.01446533203125 99.23049926757812 124.13099670410156 97.99606323242188 C 123.25083923339844 96.89028930664062 122.06793212890625 96.06451416015625 120.72653198242188 95.61941528320312 C 116.71011352539062 94.1109619140625 112.23414611816406 94.44033813476562 108.4818115234375 96.52052307128906 L 109.89999389648438 98.89999389648438" stroke-width="0.6000000238418579" fill="rgb(70, 150, 179)" opacity="1.0"/>
    <path d="M 442.0999755859375 84.10000610351562 C 436.6849365234375 83.152587890625 430.64306640625 82.32980346679688 426.092529296875 85.40777587890625 C 421.2061767578125 88.71713256835938 419.88311767578125 95.56752014160156 421.195556640625 101.3211669921875 C 421.70062255859375 103.53974914550781 422.5814208984375 105.761962890625 424.2493896484375 107.30926513671875 C 425.6199951171875 108.58175659179688 427.405517578125 109.297607421875 429.1795654296875 109.88833618164062 C 434.7718505859375 111.7579345703125 441.14697265625 112.61697387695312 446.39849853515625 109.93814086914062 C 451.6893310546875 107.23464965820312 454.88531494140625 100.90519714355469 453.885009765625 95.04318237304688 C 452.884765625 89.18115234375 447.823974609375 84.22744750976562 441.93109130859375 83.40011596679688 L 442.0999755859375 84.10000610351562" stroke-width="0.6000000238418579" fill="rgb(140, 28, 33)" opacity="1.0"/>
    <path d="M 120.0 419.0 C 119.02349853515625 419.7335205078125 118.0155029296875 420.5074462890625 117.43499755859375 421.5830078125 C 116.85450744628906 422.658447265625 116.8275146484375 424.13897705078125 117.70050048828125 424.9940185546875 C 118.78048706054688 426.0469970703125 120.75149536132812 425.59698486328125 121.656005859375 424.386474609375 C 122.56050109863281 423.176025390625 122.60549926757812 421.5155029296875 122.29049682617188 420.03948974609375 C 122.23876953125 419.57281494140625 122.01397705078125 419.14251708984375 121.66049194335938 418.83349609375 C 121.28250122070312 418.5679931640625 120.62100219726562 418.68951416015625 120.5264892578125 419.14398193359375 L 120.0 419.0" stroke-width="0.6000000238418579" fill="rgb(159, 159, 159)" opacity="1.0"/>
    <path d="M 437.9000244140625 413.9000244140625 C 432.9095458984375 414.8759765625 428.144775390625 417.58306884765625 425.32891845703125 421.8140869140625 C 422.5130615234375 426.0450439453125 421.9151611328125 431.851318359375 424.4271240234375 436.294189453125 C 426.20703125 439.43310546875 429.3609619140625 441.65545654296875 432.791748046875 442.7838134765625 C 436.22265625 443.912109375 439.917236328125 444.02825927734375 443.51055908203125 443.65911865234375 C 445.07421875 443.49755859375 446.70263671875 443.21490478515625 447.93365478515625 442.24383544921875 C 449.345458984375 441.13116455078125 449.97607421875 439.32159423828125 450.457763671875 437.5841064453125 C 451.817626953125 432.6787109375 452.4774169921875 427.37811279296875 450.870849609375 422.5472412109375 C 449.2642822265625 417.7164306640625 444.91986083984375 413.536865234375 439.84368896484375 413.386474609375 L 437.9000244140625 413.9000244140625" stroke-width="0.6000000238418579" fill="rgb(159, 159, 159)" opacity="1.0"/>
    <path d="M 436.9000244140625 274.8999938964844 C 431.5733642578125 275.0080871582031 425.65728759765625 275.3589782714844 421.9364013671875 279.1574401855469 C 418.3125 282.84637451171875 417.9613037109375 288.55670166015625 417.92047119140625 293.7299499511719 C 417.906982421875 295.83154296875 417.9263916015625 298.0303649902344 418.907958984375 299.8873291015625 C 420.56634521484375 303.029052734375 424.4227294921875 304.26251220703125 427.9488525390625 304.6502685546875 C 431.22149658203125 305.0114440917969 434.529052734375 304.9007873535156 437.77032470703125 304.3217468261719 C 443.03350830078125 303.3834533691406 448.615478515625 300.6227722167969 450.1885986328125 295.5152587890625 C 451.0418701171875 292.7591247558594 450.556884765625 289.7137145996094 449.4146728515625 287.0594482421875 C 448.2724609375 284.4051513671875 446.5048828125 282.07244873046875 444.72705078125 279.7944641113281 C 442.94927978515625 277.5164489746094 441.153564453125 275.316162109375 438.658203125 274.0009460449219 L 436.9000244140625 274.8999938964844" stroke-width="0.6000000238418579" fill="rgb(218, 166, 20)" opacity="1.0"/>
    <path d="M 437.0999755859375 368.8999938964844 C 428.80841064453125 367.6277160644531 421.05535888671875 373.3180236816406 419.7830810546875 381.609619140625 C 419.6741943359375 382.3196105957031 419.61572265625 383.0364685058594 419.60821533203125 383.7547607421875 C 419.5802001953125 386.48406982421875 420.3680419921875 389.3304138183594 422.29376220703125 391.2628479003906 C 423.9210205078125 392.89605712890625 426.1778564453125 393.72552490234375 428.4136962890625 394.28179931640625 C 434.400390625 395.7625427246094 440.67431640625 395.6133117675781 446.5838623046875 393.8495788574219 C 448.1451416015625 393.3807678222656 449.717041015625 392.7742614746094 450.91162109375 391.65985107421875 C 452.91802978515625 389.7901306152344 453.49957275390625 386.78228759765625 453.1591796875 384.0589599609375 C 452.6566162109375 380.0154724121094 450.3616943359375 376.3073425292969 447.2293701171875 373.699951171875 C 444.0970458984375 371.0925598144531 440.1849365234375 369.5260314941406 436.1719970703125 368.8161315917969 L 437.0999755859375 368.8999938964844" stroke-width="0.6000000238418579" fill="rgb(143, 165, 67)" opacity="1.0"/>
    <path d="M 437.9000244140625 368.1000061035156 C 428.83740234375 369.4739074707031 424.71856689453125 382.7236328125 430.8861083984375 389.424560546875 C 437.0535888671875 396.12548828125 450.0081787109375 393.6053466796875 453.86328125 385.28619384765625 C 457.7183837890625 376.9670715332031 452.10101318359375 365.9612121582031 443.24639892578125 363.5484313964844 L 437.9000244140625 368.1000061035156" stroke-width="0.6000000238418579" fill="rgb(233, 92, 21)" opacity="1.0"/>
    <path d="M 438.9000244140625 90.89999389648438 C 434.0880126953125 90.404296875 428.28857421875 90.31124877929688 425.543212890625 94.31419372558594 C 424.5126953125 95.94970703125 424.01507568359375 97.86471557617188 424.1190185546875 99.7950439453125 C 424.2476806640625 104.57809448242188 426.686767578125 109.00204467773438 430.66259765625 111.66403198242188 C 434.04107666015625 113.91349792480469 438.158935546875 114.59190368652344 442.1534423828125 115.15512084960938 C 444.3978271484375 115.46786499023438 446.79229736328125 115.72866821289062 448.824462890625 114.75437927246094 C 451.5224609375 113.43353271484375 452.78143310546875 110.30465698242188 453.4703369140625 107.38168334960938 C 454.48388671875 103.10513305664062 454.79852294921875 98.6927490234375 454.402099609375 94.31565856933594 C 454.26220703125 92.80355834960938 454.01446533203125 91.23049926757812 453.1309814453125 89.99606323242188 C 452.2508544921875 88.89028930664062 451.06793212890625 88.06451416015625 449.7265625 87.61941528320312 C 445.7100830078125 86.1109619140625 441.234130859375 86.44033813476562 437.4818115234375 88.52052307128906 L 438.9000244140625 90.89999389648438" stroke-width="0.6000000238418579" fill="rgb(70, 150, 179)" opacity="1.0"/>
    <path d="M 433.9000244140625 408.1000061035156 C 428.4105224609375 407.8076477050781 422.3134765625 407.7140808105469 418.1641845703125 411.3146667480469 C 413.7091064453125 415.1851806640625 413.2156982421875 422.1446533203125 415.20745849609375 427.6998291015625 C 415.9744873046875 429.842041015625 417.114990234375 431.94281005859375 418.9561767578125 433.279296875 C 420.46929931640625 434.3785400390625 422.32763671875 434.87548828125 424.15966796875 435.2496337890625 C 429.935546875 436.436279296875 436.36767578125 436.5260009765625 441.2607421875 433.23779296875 C 446.1898193359375 429.9202880859375 448.60516357421875 423.2537841796875 446.9102783203125 417.5537109375 C 445.2154541015625 411.8535461425781 439.5980224609375 407.54132080078125 433.64849853515625 407.4253845214844 L 433.9000244140625 408.1000061035156" stroke-width="0.6000000238418579" fill="rgb(140, 28, 33)" opacity="1.0"/>
    <path d="M 122.10000610351562 228.10000610351562 C 120.6124267578125 229.08364868164062 119.07537841796875 230.12356567382812 118.13504028320312 231.64041137695312 C 117.19474792480469 233.1572265625 117.0257568359375 235.3128662109375 118.223388671875 236.63555908203125 C 119.70538330078125 238.26498413085938 122.61773681640625 237.78164672851562 124.04214477539062 236.09640502929688 C 125.466552734375 234.41116333007812 125.67752075195312 231.9947509765625 125.34762573242188 229.81573486328125 C 125.31307983398438 229.1309814453125 125.02313232421875 228.48410034179688 124.53494262695312 228.002685546875 C 124.00721740722656 227.58258056640625 123.03236389160156 227.7017822265625 122.85481262207031 228.35598754882812 L 122.10000610351562 228.10000610351562" stroke-width="0.6000000238418579" fill="rgb(159, 159, 159)" opacity="1.0"/>
    <path d="M 124.10000610351562 230.10000610351562 C 116.69454956054688 230.642578125 109.31369018554688 233.73422241210938 104.49183654785156 239.37579345703125 C 99.66996765136719 245.017333984375 97.78819274902344 253.33038330078125 100.65316772460938 260.21051025390625 C 102.68490600585938 265.0722351074219 106.8687744140625 268.8454284667969 111.64532470703125 271.0809020996094 C 116.42190551757812 273.31640625 121.7578125 274.1306457519531 127.03170776367188 274.2236633300781 C 129.32681274414062 274.26275634765625 131.73707580566406 274.1376647949219 133.69143676757812 272.945068359375 C 135.93270874023438 271.57879638671875 137.1632843017578 269.0656433105469 138.16531372070312 266.63092041015625 C 140.99417114257812 259.75714111328125 142.87734985351562 252.18798828125 141.39273071289062 244.9036865234375 C 139.90809631347656 237.619384765625 134.3404083251953 230.80075073242188 127.00762939453125 229.69537353515625 L 124.10000610351562 230.10000610351562" stroke-width="0.6000000238418579" fill="rgb(159, 159, 159)" opacity="1.0"/>
    <path d="M 284.8999938964844 109.10000610351562 C 277.12188720703125 109.25782775878906 268.48297119140625 109.77021789550781 263.0495300292969 115.31687927246094 C 257.7579040527344 120.70358276367188 257.2450256347656 129.0420379638672 257.1853942871094 136.59622192382812 C 257.1656799316406 139.6650390625 257.1939697265625 142.8758087158203 258.6273498535156 145.58743286132812 C 261.0489807128906 150.17507934570312 266.68023681640625 151.9762420654297 271.82916259765625 152.54246520996094 C 276.6080627441406 153.06985473632812 281.4378967285156 152.9082794189453 286.1708679199219 152.062744140625 C 293.85638427734375 150.69261169433594 302.0074462890625 146.66134643554688 304.3044738769531 139.2031707763672 C 305.5504455566406 135.17857360839844 304.8422546386719 130.7315673828125 303.1743469238281 126.85566711425781 C 301.5064392089844 122.97978210449219 298.9253845214844 119.573486328125 296.3293762207031 116.2470703125 C 293.7333679199219 112.920654296875 291.11126708984375 109.70771789550781 287.46746826171875 107.78717041015625 L 284.8999938964844 109.10000610351562" stroke-width="0.6000000238418579" fill="rgb(218, 166, 20)" opacity="1.0"/>
    <path d="M 230.89999389648438 112.89999389648438 C 218.656982421875 112.50498962402344 208.41180419921875 122.10971069335938 208.01681518554688 134.35272216796875 C 207.98297119140625 135.40109252929688 208.0235595703125 136.45054626464844 208.13824462890625 137.49319458007812 C 208.57479858398438 141.4548797607422 210.21444702148438 145.44358825683594 213.34405517578125 147.9084930419922 C 215.98861694335938 149.9917755126953 219.405517578125 150.79974365234375 222.74404907226562 151.21536254882812 C 231.6820068359375 152.31552124023438 240.75155639648438 151.00242614746094 249.010498046875 147.4124755859375 C 251.1920166015625 146.45986938476562 253.36480712890625 145.30581665039062 254.9017333984375 143.4813995361328 C 257.48370361328125 140.42007446289062 257.8009948730469 135.95782470703125 256.8314514160156 132.06922912597656 C 255.39605712890625 126.29507446289062 251.4207763671875 121.32046508789062 246.4239501953125 118.08798217773438 C 241.4271240234375 114.85549926757812 235.481689453125 113.268310546875 229.5400390625 112.94064331054688 L 230.89999389648438 112.89999389648438" stroke-width="0.6000000238418579" fill="rgb(143, 165, 67)" opacity="1.0"/>
    <path d="M 235.10000610351562 111.10000610351562 C 221.86642456054688 113.10623168945312 215.85198974609375 132.45394897460938 224.8580322265625 142.23892211914062 C 233.86407470703125 152.02383422851562 252.78082275390625 148.34384155273438 258.4101867675781 136.19593811035156 C 264.0395202636719 124.04801940917969 255.83685302734375 107.97683715820312 242.90701293945312 104.45361328125 L 235.10000610351562 111.10000610351562" stroke-width="0.6000000238418579" fill="rgb(233, 92, 21)" opacity="1.0"/>
    <path d="M 214.10000610351562 112.10000610351562 C 207.2105712890625 110.54019165039062 198.8192138671875 109.39149475097656 194.139404296875 114.71481323242188 C 192.3594970703125 116.90573120117188 191.30328369140625 119.59500122070312 191.1165771484375 122.41165161132812 C 190.467041015625 129.36827087402344 193.2296142578125 136.2082061767578 198.52828979492188 140.7624053955078 C 203.03289794921875 144.61412048339844 208.8841552734375 146.31747436523438 214.57666015625 147.83226013183594 C 217.77572631835938 148.677978515625 221.2015380859375 149.47463989257812 224.31793212890625 148.4174346923828 C 228.46023559570312 146.9741973876953 230.83233642578125 142.65821838378906 232.34201049804688 138.5410919189453 C 234.5589599609375 132.51841735839844 235.78643798828125 126.1766357421875 235.97689819335938 119.76168823242188 C 236.0384521484375 117.54510498046875 235.9542236328125 115.22128295898438 234.88922119140625 113.2772216796875 C 233.8065185546875 111.52029418945312 232.2359619140625 110.1163330078125 230.36907958984375 109.236572265625 C 224.81002807617188 106.34761047363281 218.26348876953125 106.04269409179688 212.4599609375 108.4024658203125 L 214.10000610351562 112.10000610351562" stroke-width="0.6000000238418579" fill="rgb(70, 150, 179)" opacity="1.0"/>
    <path d="M 257.1000061035156 112.89999389648438 C 249.08401489257812 112.47308349609375 240.18099975585938 112.33645629882812 234.1219482421875 117.59417724609375 C 227.61654663085938 123.24603271484375 226.89599609375 133.40858459472656 229.804443359375 141.5204315185547 C 230.92449951171875 144.6484832763672 232.5899658203125 147.71615600585938 235.27847290039062 149.66775512695312 C 237.48797607421875 151.27291870117188 240.20162963867188 151.9986114501953 242.8768310546875 152.54489135742188 C 251.31094360351562 154.27774047851562 260.70343017578125 154.40867614746094 267.848388671875 149.60708618164062 C 275.0461120605469 144.76284790039062 278.5730285644531 135.02813720703125 276.09814453125 126.70458984375 C 273.6232604980469 118.38105773925781 265.4205322265625 112.08418273925781 256.7327575683594 111.91488647460938 L 257.1000061035156 112.89999389648438" stroke-width="0.6000000238418579" fill="rgb(140, 28, 33)" opacity="1.0"/>
    <path d="M 318.8999938964844 107.89999389648438 C 317.5408630371094 109.05464172363281 316.1393737792969 110.27108764648438 315.38739013671875 111.88958740234375 C 314.63543701171875 113.50807189941406 314.7257080078125 115.66842651367188 316.07305908203125 116.83824157714844 C 317.7394714355469 118.27853393554688 320.5730285644531 117.45004272460938 321.7854309082031 115.60638427734375 C 322.99786376953125 113.76275634765625 322.91802978515625 111.33845520019531 322.3296813964844 109.21463012695312 C 322.2134094238281 108.5389404296875 321.84808349609375 107.931396484375 321.3057861328125 107.51190185546875 C 320.7315673828125 107.15800476074219 319.7779846191406 107.39303588867188 319.6800231933594 108.06378173828125 L 318.8999938964844 107.89999389648438" stroke-width="0.6000000238418579" fill="rgb(159, 159, 159)" opacity="1.0"/>
    <path d="M 213.10000610351562 113.89999389648438 C 205.694580078125 114.44258117675781 198.313720703125 117.53421020507812 193.4918212890625 123.17576599121094 C 188.66998291015625 128.81732177734375 186.7882080078125 137.13040161132812 189.65316772460938 144.010498046875 C 191.68490600585938 148.87222290039062 195.8687744140625 152.6454315185547 200.64532470703125 154.8809051513672 C 205.42193603515625 157.11639404296875 210.7578125 157.9306640625 216.03173828125 158.02365112304688 C 218.32684326171875 158.062744140625 220.737060546875 157.93768310546875 222.69143676757812 156.74505615234375 C 224.93270874023438 155.37879943847656 226.16329956054688 152.86563110351562 227.16531372070312 150.430908203125 C 229.99420166015625 143.55712890625 231.87734985351562 135.9879913330078 230.39276123046875 128.7036895751953 C 228.90811157226562 121.41937255859375 223.34042358398438 114.60073852539062 216.00762939453125 113.495361328125 L 213.10000610351562 113.89999389648438" stroke-width="0.6000000238418579" fill="rgb(159, 159, 159)" opacity="1.0"/>
    <path d="M 276.1000061035156 110.10000610351562 C 268.3589172363281 109.3255615234375 259.7208251953125 108.80007934570312 253.66244506835938 113.65640258789062 C 247.76400756835938 118.37091064453125 246.25662231445312 126.58798217773438 245.29306030273438 134.08070373535156 C 244.9061279296875 137.12510681152344 244.54986572265625 140.316162109375 245.6483154296875 143.1798858642578 C 247.50332641601562 148.02444458007812 252.87847900390625 150.48678588867188 257.9225769042969 151.66531372070312 C 262.6039733886719 152.76100158691406 267.4184265136719 153.1787872314453 272.21856689453125 152.90591430664062 C 280.0128479003906 152.4656982421875 288.5878601074219 149.439208984375 291.76123046875 142.30963134765625 C 293.48004150390625 138.46315002441406 293.3092956542969 133.9633331298828 292.11737060546875 129.9156494140625 C 290.9254455566406 125.86796569824219 288.7707214355469 122.17718505859375 286.59161376953125 118.56390380859375 C 284.4124755859375 114.95065307617188 282.1938781738281 111.44691467285156 278.80615234375 109.10397338867188 L 276.1000061035156 110.10000610351562" stroke-width="0.6000000238418579" fill="rgb(218, 166, 20)" opacity="1.0"/>
    <path d="M 245.10000610351562 112.89999389648438 C 232.85699462890625 112.50498962402344 222.61181640625 122.10971069335938 222.21682739257812 134.35272216796875 C 222.1829833984375 135.40109252929688 222.22357177734375 136.45054626464844 222.3382568359375 137.49319458007812 C 222.77481079101562 141.4548797607422 224.41448974609375 145.44358825683594 227.5440673828125 147.9084930419922 C 230.18862915039062 149.9917755126953 233.60552978515625 150.79974365234375 236.94406127929688 151.21536254882812 C 245.88201904296875 152.31552124023438 254.95156860351562 151.00242614746094 263.2105407714844 147.4124755859375 C 265.39202880859375 146.45986938476562 267.5648498535156 145.30581665039062 269.10174560546875 143.4813995361328 C 271.6837158203125 140.42007446289062 272.0010070800781 135.9578094482422 271.0314636230469 132.0692138671875 C 269.5960388183594 126.29507446289062 265.62078857421875 121.32046508789062 260.62396240234375 118.08798217773438 C 255.62713623046875 114.85549926757812 249.68170166015625 113.268310546875 243.74005126953125 112.94064331054688 L 245.10000610351562 112.89999389648438" stroke-width="0.6000000238418579" fill="rgb(143, 165, 67)" opacity="1.0"/>
    <path d="M 247.89999389648438 111.10000610351562 C 234.66641235351562 113.10623168945312 228.6519775390625 132.45394897460938 237.65802001953125 142.23892211914062 C 246.6640625 152.02383422851562 265.580810546875 148.34384155273438 271.2101745605469 136.19593811035156 C 276.8395080566406 124.04801940917969 268.6368408203125 107.97683715820312 255.70700073242188 104.45361328125 L 247.89999389648438 111.10000610351562" stroke-width="0.6000000238418579" fill="rgb(233, 92, 21)" opacity="1.0"/>
    <path d="M 354.1000061035156 102.10000610351562 C 347.0733947753906 101.37615966796875 338.6048583984375 101.24026489257812 334.59600830078125 107.08552551269531 C 333.0911560058594 109.47378540039062 332.3644714355469 112.2701416015625 332.51629638671875 115.08888244628906 C 332.7041931152344 122.0732421875 336.2657470703125 128.5332794189453 342.0715026855469 132.42041015625 C 347.00482177734375 135.70516967773438 353.0179443359375 136.69580078125 358.850830078125 137.5182342529297 C 362.12811279296875 137.97491455078125 365.6246643066406 138.35574340820312 368.5920715332031 136.93304443359375 C 372.5318298339844 135.00430297851562 374.3702087402344 130.43540954589844 375.37615966796875 126.16714477539062 C 376.8561706542969 119.92239379882812 377.3156433105469 113.47927856445312 376.73675537109375 107.08766174316406 C 376.5325012207031 104.879638671875 376.17071533203125 102.58261108398438 374.8806457519531 100.78004455566406 C 373.59539794921875 99.16535949707031 371.8680725097656 97.95950317382812 369.9093017578125 97.30955505371094 C 364.04437255859375 95.10685729980469 357.5083923339844 95.58784484863281 352.02911376953125 98.62539672851562 L 354.1000061035156 102.10000610351562" stroke-width="0.6000000238418579" fill="rgb(70, 150, 179)" opacity="1.0"/>
    <path d="M 352.1000061035156 104.89999389648438 C 344.1927795410156 103.51655578613281 335.3701477050781 102.31510925292969 328.7252197265625 106.80966186523438 C 321.59002685546875 111.64210510253906 319.6580505371094 121.64530944824219 321.57452392578125 130.0469970703125 C 322.31207275390625 133.28665161132812 323.5982971191406 136.5316162109375 326.0338439941406 138.79104614257812 C 328.0353088378906 140.649169921875 330.642578125 141.69448852539062 333.2331237792969 142.55709838867188 C 341.399169921875 145.2871551513672 350.7084045410156 146.54153442382812 358.3768310546875 142.6298370361328 C 366.1026611328125 138.68206787109375 370.76959228515625 129.4395751953125 369.3089294433594 120.879638671875 C 367.8482666015625 112.31967163085938 360.4583435058594 105.08612060546875 351.85333251953125 103.87799072265625 L 352.1000061035156 104.89999389648438" stroke-width="0.6000000238418579" fill="rgb(140, 28, 33)" opacity="1.0"/>
    <path d="M 362.0 102.0 C 360.5740966796875 103.07107543945312 359.1021423339844 104.2012939453125 358.2544860839844 105.77178955078125 C 357.4068298339844 107.34225463867188 357.3674011230469 109.504150390625 358.6421813964844 110.75265502929688 C 360.21923828125 112.290283203125 363.09735107421875 111.63316345214844 364.41815185546875 109.86553955078125 C 365.73895263671875 108.09793090820312 365.80462646484375 105.67320251464844 365.34466552734375 103.51791381835938 C 365.2691345214844 102.83645629882812 364.9408874511719 102.20811462402344 364.4247131347656 101.75685119628906 C 363.8727722167969 101.36917114257812 362.90679931640625 101.54660034179688 362.768798828125 102.21026611328125 L 362.0 102.0" stroke-width="0.6000000238418579" fill="rgb(159, 159, 159)" opacity="1.0"/>
    <path d="M 357.1000061035156 103.89999389648438 C 349.6945495605469 104.44258117675781 342.3136901855469 107.53421020507812 337.4918518066406 113.17576599121094 C 332.66998291015625 118.81732177734375 330.7882080078125 127.13040161132812 333.6531677246094 134.010498046875 C 335.6849060058594 138.87222290039062 339.8687744140625 142.6454315185547 344.64532470703125 144.8809051513672 C 349.4219055175781 147.11639404296875 354.7578125 147.93064880371094 360.03173828125 148.02365112304688 C 362.3268127441406 148.06275939941406 364.7370910644531 147.9376678466797 366.6914367675781 146.74505615234375 C 368.9327087402344 145.37879943847656 370.1632995605469 142.86563110351562 371.1653137207031 140.430908203125 C 373.9941711425781 133.55712890625 375.8773498535156 125.98799133300781 374.3927307128906 118.70368957519531 C 372.9081115722656 111.41937255859375 367.3404235839844 104.60073852539062 360.00762939453125 103.495361328125 L 357.1000061035156 103.89999389648438" stroke-width="0.6000000238418579" fill="rgb(159, 159, 159)" opacity="1.0"/>
    <path d="M 368.0 102.0 C 360.2264099121094 101.69113159179688 351.57232666015625 101.6845703125 345.8160705566406 106.89544677734375 C 340.2109375 111.95516967773438 339.1990051269531 120.24784851074219 338.68646240234375 127.78486633300781 C 338.4827880859375 130.84698486328125 338.3185119628906 134.0536651611328 339.5867004394531 136.84637451171875 C 341.7288818359375 141.5709686279297 347.24200439453125 143.70657348632812 352.34771728515625 144.58050537109375 C 357.08636474609375 145.3935089111328 361.9172058105469 145.5218505859375 366.6923522949219 144.96163940429688 C 374.44622802734375 144.05484008789062 382.8243408203125 140.51959228515625 385.564453125 133.2125701904297 C 387.0495300292969 129.26992797851562 386.6092529296875 124.7884521484375 385.1767883300781 120.81951904296875 C 383.7442626953125 116.8505859375 381.37213134765625 113.29566955566406 378.9802551269531 109.81956481933594 C 376.58837890625 106.34347534179688 374.1636657714844 102.97908020019531 370.6415710449219 100.84347534179688 L 368.0 102.0" stroke-width="0.6000000238418579" fill="rgb(218, 166, 20)" opacity="1.0"/>
    <path d="M 429.0 167.0 C 416.802734375 165.87158203125 406.0000305175781 174.84466552734375 404.8716125488281 187.04196166992188 C 404.77496337890625 188.08642578125 404.7525634765625 189.13641357421875 404.8045349121094 190.18405151367188 C 405.0027160644531 194.164794921875 406.4002380371094 198.24462890625 409.37640380859375 200.89276123046875 C 411.89129638671875 203.13088989257812 415.2535400390625 204.14227294921875 418.5611572265625 204.75735473632812 C 427.4171142578125 206.3914794921875 436.549072265625 205.62460327148438 445.0084228515625 202.53634643554688 C 447.24310302734375 201.71624755859375 449.481201171875 200.694580078125 451.124755859375 198.96560668945312 C 453.88568115234375 196.06463623046875 454.469970703125 191.62939453125 453.7353515625 187.689697265625 C 452.64874267578125 181.83984375 448.97894287109375 176.63580322265625 444.1849365234375 173.10952758789062 C 439.39093017578125 169.58322143554688 433.5513916015625 167.64239501953125 427.6400146484375 166.95901489257812 L 429.0 167.0" stroke-width="0.6000000238418579" fill="rgb(143, 165, 67)" opacity="1.0"/>
    <path d="M 131.0 408.0 C 117.669921875 409.2090759277344 110.50616455078125 428.161376953125 118.90921020507812 438.46875 C 127.31231689453125 448.776123046875 146.4157257080078 446.237060546875 152.76336669921875 434.44854736328125 C 159.11102294921875 422.6600341796875 151.88681030273438 406.12591552734375 139.19149780273438 401.8337097167969 L 131.0 408.0" stroke-width="0.6000000238418579" fill="rgb(233, 92, 21)" opacity="1.0"/>
    <path d="M 429.0 173.0 C 422.0294189453125 171.85614013671875 413.58428955078125 171.212646484375 409.23211669921875 176.8070068359375 C 407.5867919921875 179.10073852539062 406.6937561035156 181.8485107421875 406.67626953125 184.6712646484375 C 406.44500732421875 191.65432739257812 409.61279296875 198.3162841796875 415.175048828125 202.5445556640625 C 419.9024658203125 206.11923217773438 425.8453369140625 207.46865844726562 431.618408203125 208.63937377929688 C 434.8624267578125 209.291748046875 438.32989501953125 209.88156127929688 441.37725830078125 208.63937377929688 C 445.42559814453125 206.95034790039062 447.53466796875 202.4998779296875 448.794677734375 198.29965209960938 C 450.646484375 192.15487670898438 451.49151611328125 185.75091552734375 451.29693603515625 179.33609008789062 C 451.2254638671875 177.11981201171875 451.0020751953125 174.80520629882812 449.8223876953125 172.92852783203125 C 448.63629150390625 171.23965454101562 446.984375 169.93240356445312 445.068115234375 169.16616821289062 C 439.3458251953125 166.61575317382812 432.792724609375 166.70394897460938 427.14117431640625 169.407470703125 L 429.0 173.0" stroke-width="0.6000000238418579" fill="rgb(70, 150, 179)" opacity="1.0"/>
    <path d="M 428.0999755859375 171.10000610351562 C 420.1927490234375 169.716552734375 411.3701477050781 168.51510620117188 404.7252197265625 173.00967407226562 C 397.59002685546875 177.84210205078125 395.6580505371094 187.84530639648438 397.57452392578125 196.24700927734375 C 398.31207275390625 199.48663330078125 399.5982971191406 202.73162841796875 402.0338439941406 204.99102783203125 C 404.0353088378906 206.84918212890625 406.642578125 207.89450073242188 409.2331237792969 208.75711059570312 C 417.399169921875 211.4871826171875 426.7083740234375 212.74154663085938 434.3768310546875 208.829833984375 C 442.1026611328125 204.882080078125 446.76959228515625 195.63958740234375 445.3089599609375 187.07965087890625 C 443.8482666015625 178.51968383789062 436.4583740234375 171.2861328125 427.85333251953125 170.0780029296875 L 428.0999755859375 171.10000610351562" stroke-width="0.6000000238418579" fill="rgb(140, 28, 33)" opacity="1.0"/>
    <path d="M 147.0 115.0 C 145.5740966796875 116.07107543945312 144.10215759277344 117.2012939453125 143.25448608398438 118.77178955078125 C 142.40682983398438 120.34225463867188 142.36740112304688 122.504150390625 143.64219665527344 123.75265502929688 C 145.21922302246094 125.290283203125 148.09735107421875 124.63316345214844 149.41815185546875 122.86553955078125 C 150.7389373779297 121.09793090820312 150.80462646484375 118.67320251464844 150.34466552734375 116.51791381835938 C 150.26913452148438 115.83645629882812 149.94090270996094 115.20811462402344 149.4247283935547 114.75685119628906 C 148.8727569580078 114.36917114257812 147.9068145751953 114.54660034179688 147.768798828125 115.21026611328125 L 147.0 115.0" stroke-width="0.6000000238418579" fill="rgb(159, 159, 159)" opacity="1.0"/>
    <path d="M 429.0 168.0 C 421.640380859375 168.98565673828125 414.458251953125 172.51431274414062 409.98333740234375 178.43487548828125 C 405.5084228515625 184.35540771484375 404.1285400390625 192.766357421875 407.4009094238281 199.4622802734375 C 409.72052001953125 204.19342041015625 414.12310791015625 207.70895385742188 419.025146484375 209.65399169921875 C 423.9271240234375 211.59902954101562 429.30224609375 212.09185791015625 434.572265625 211.86846923828125 C 436.8656005859375 211.76986694335938 439.2640380859375 211.50048828125 441.143310546875 210.19281005859375 C 443.29864501953125 208.69461059570312 444.3763427734375 206.1121826171875 445.23052978515625 203.62176513671875 C 447.64215087890625 196.59072875976562 449.06805419921875 188.92227172851562 447.1492919921875 181.7401123046875 C 445.23052978515625 174.55792236328125 439.2640380859375 168.08544921875 431.878173828125 167.4217529296875 L 429.0 168.0" stroke-width="0.6000000238418579" fill="rgb(159, 159, 159)" opacity="1.0"/>
    <path d="M 428.0999755859375 181.10000610351562 C 420.35888671875 180.3255615234375 411.7208251953125 179.80007934570312 405.6624450683594 184.65643310546875 C 399.7640075683594 189.37091064453125 398.2566223144531 197.5880126953125 397.2930603027344 205.08071899414062 C 396.9061279296875 208.1251220703125 396.54986572265625 211.316162109375 397.6483154296875 214.17990112304688 C 399.5033264160156 219.02444458007812 404.87847900390625 221.48678588867188 409.9225769042969 222.66531372070312 C 414.60400390625 223.760986328125 419.41845703125 224.17877197265625 424.21856689453125 223.90594482421875 C 432.0128173828125 223.4656982421875 440.587890625 220.439208984375 443.76123046875 213.30963134765625 C 445.48004150390625 209.463134765625 445.309326171875 204.96334838867188 444.11737060546875 200.9156494140625 C 442.9254150390625 196.86798095703125 440.770751953125 193.17718505859375 438.59161376953125 189.56390380859375 C 436.4124755859375 185.95065307617188 434.19384765625 182.44692993164062 430.80615234375 180.10397338867188 L 428.0999755859375 181.10000610351562" stroke-width="0.6000000238418579" fill="rgb(218, 166, 20)" opacity="1.0"/>
    <path d="M 430.9000244140625 166.89999389648438 C 418.656982421875 166.5050048828125 408.41180419921875 176.10968017578125 408.0168151855469 188.35272216796875 C 407.98297119140625 189.40109252929688 408.0235900878906 190.45053100585938 408.1382751464844 191.4931640625 C 408.5747985839844 195.45489501953125 410.2144470214844 199.44357299804688 413.34405517578125 201.90850830078125 C 415.9886474609375 203.99176025390625 419.405517578125 204.79974365234375 422.7440185546875 205.21533203125 C 431.6820068359375 206.31552124023438 440.7515869140625 205.00241088867188 449.010498046875 201.4124755859375 C 451.1920166015625 200.4598388671875 453.3648681640625 199.30581665039062 454.9017333984375 197.48138427734375 C 457.48370361328125 194.42007446289062 457.801025390625 189.95782470703125 456.8314208984375 186.0692138671875 C 455.39599609375 180.2950439453125 451.4207763671875 175.3204345703125 446.4239501953125 172.08795166015625 C 441.4271240234375 168.85546875 435.481689453125 167.268310546875 429.5400390625 166.94061279296875 L 430.9000244140625 166.89999389648438" stroke-width="0.6000000238418579" fill="rgb(143, 165, 67)" opacity="1.0"/>
    <path d="M 140.89999389648438 115.10000610351562 C 124.46591186523438 117.59141540527344 116.99693298339844 141.61831665039062 128.18101501464844 153.76974487304688 C 139.36514282226562 165.92111206054688 162.85687255859375 161.35113525390625 169.84765625 146.26528930664062 C 176.83840942382812 131.179443359375 166.65194702148438 111.22149658203125 150.59507751464844 106.84620666503906 L 140.89999389648438 115.10000610351562" stroke-width="0.6000000238418579" fill="rgb(233, 92, 21)" opacity="1.0"/>
    <path d="M 430.9000244140625 160.10000610351562 C 422.17401123046875 159.20111083984375 411.65740966796875 159.0323486328125 406.67901611328125 166.291259765625 C 404.81024169921875 169.25711059570312 403.9078063964844 172.72976684570312 404.0963439941406 176.23019409179688 C 404.3297119140625 184.9036865234375 408.7525939941406 192.92605590820312 415.96240234375 197.7532958984375 C 422.0888671875 201.83245849609375 429.5562744140625 203.06268310546875 436.7998046875 204.083984375 C 440.86968994140625 204.651123046875 445.21185302734375 205.12405395507812 448.89691162109375 203.3572998046875 C 453.78948974609375 200.96209716796875 456.072509765625 195.2882080078125 457.3216552734375 189.98770141601562 C 459.15966796875 182.232666015625 459.730224609375 174.2313232421875 459.0113525390625 166.29391479492188 C 458.7576904296875 163.55191040039062 458.30841064453125 160.6993408203125 456.706298828125 158.4608154296875 C 455.1102294921875 156.45562744140625 452.9652099609375 154.95816040039062 450.53271484375 154.15101623535156 C 443.2493896484375 151.4156036376953 435.1326904296875 152.01290893554688 428.3282470703125 155.7850799560547 L 430.9000244140625 160.10000610351562" stroke-width="0.6000000238418579" fill="rgb(70, 150, 179)" opacity="1.0"/>
    <path d="M 378.1000061035156 100.10000610351562 C 368.2804260253906 98.3819580078125 357.3240966796875 96.88995361328125 349.0721435546875 102.47151184082031 C 340.2113037109375 108.47265625 337.8121032714844 120.89508056640625 340.19207763671875 131.3286895751953 C 341.10797119140625 135.35183715820312 342.70526123046875 139.381591796875 345.7298583984375 142.1874542236328 C 348.2153625488281 144.49496459960938 351.45318603515625 145.7930908203125 354.6702575683594 146.86431884765625 C 364.8111877441406 150.254638671875 376.3718566894531 151.8123779296875 385.89483642578125 146.9546356201172 C 395.4891662597656 142.0521240234375 401.2847595214844 130.57437133789062 399.4708557128906 119.94424438476562 C 397.6569519042969 109.3140869140625 388.47979736328125 100.33111572265625 377.7936706542969 98.83082580566406 L 378.1000061035156 100.10000610351562" stroke-width="0.6000000238418579" fill="rgb(140, 28, 33)" opacity="1.0"/>
    <path d="M 132.0 407.0 C 130.22923278808594 408.3301086425781 128.4013214111328 409.7336730957031 127.34864807128906 411.6839904785156 C 126.29598999023438 413.63427734375 126.24703979492188 416.3189697265625 127.83012390136719 417.86944580078125 C 129.78855895996094 419.7789306640625 133.3627471923828 418.962890625 135.00296020507812 416.767822265625 C 136.6431884765625 414.57269287109375 136.72476196289062 411.5615539550781 136.153564453125 408.885009765625 C 136.05975341796875 408.03875732421875 135.6521453857422 407.2584533691406 135.01113891601562 406.69805908203125 C 134.32568359375 406.2165832519531 133.12611389160156 406.43695068359375 132.95474243164062 407.2611083984375 L 132.0 407.0" stroke-width="0.6000000238418579" fill="rgb(159, 159, 159)" opacity="1.0"/>
    <path d="M 427.0999755859375 189.89999389648438 C 417.903564453125 190.57379150390625 408.7377014160156 194.41314697265625 402.74969482421875 201.4190673828125 C 396.76165771484375 208.42498779296875 394.4248046875 218.74856567382812 397.982666015625 227.2926025390625 C 400.5057373046875 233.33010864257812 405.70147705078125 238.01583862304688 411.63323974609375 240.79196166992188 C 417.56500244140625 243.568115234375 424.19140625 244.57928466796875 430.74072265625 244.69476318359375 C 433.5909423828125 244.74334716796875 436.5841064453125 244.5880126953125 439.0111083984375 243.10696411132812 C 441.79443359375 241.4102783203125 443.3226318359375 238.289306640625 444.56695556640625 235.2657470703125 C 448.0799560546875 226.72958374023438 450.4185791015625 217.32986450195312 448.574951171875 208.28387451171875 C 446.731201171875 199.23788452148438 439.8170166015625 190.77020263671875 430.7108154296875 189.39752197265625 L 427.0999755859375 189.89999389648438" stroke-width="0.6000000238418579" fill="rgb(159, 159, 159)" opacity="1.0"/>
    <path d="M 387.8999938964844 101.89999389648438 C 378.24078369140625 102.09599304199219 367.5125732421875 102.7322998046875 360.76507568359375 109.62040710449219 C 354.1936950683594 116.30987548828125 353.5567932128906 126.66493225097656 353.48272705078125 136.0460662841797 C 353.4582214355469 139.85707092285156 353.4933776855469 143.84434509277344 355.2734375 147.21177673339844 C 358.28070068359375 152.90892028808594 365.27386474609375 155.14569091796875 371.66802978515625 155.84884643554688 C 377.6026916503906 156.5037841796875 383.6005859375 156.30313110351562 389.47821044921875 155.25311279296875 C 399.0224609375 153.55162048339844 409.1448059082031 148.54541015625 411.99737548828125 139.2834930419922 C 413.544677734375 134.2855682373047 412.66522216796875 128.7630615234375 410.59393310546875 123.94979858398438 C 408.52264404296875 119.13655090332031 405.3173828125 114.90646362304688 402.0935363769531 110.77555847167969 C 398.86968994140625 106.6446533203125 395.61346435546875 102.65469360351562 391.08837890625 100.2696533203125 L 387.8999938964844 101.89999389648438" stroke-width="0.6000000238418579" fill="rgb(218, 166, 20)" opacity="1.0"/>
    <path d="M 389.8999938964844 100.10000610351562 C 374.8641052246094 97.79287719726562 360.8048095703125 108.11160278320312 358.4977111816406 123.14749145507812 C 358.3001403808594 124.43501281738281 358.1941833496094 125.73492431640625 358.1805725097656 127.0374755859375 C 358.12982177734375 131.98680114746094 359.55841064453125 137.14828491210938 363.0505065917969 140.65257263183594 C 366.0013122558594 143.61422729492188 370.09393310546875 145.1183624267578 374.1482849121094 146.12710571289062 C 385.0044860839844 148.81227111816406 396.3816833496094 148.5416259765625 407.0979919433594 145.3433380126953 C 409.9291687011719 144.4931640625 412.7796630859375 143.39334106445312 414.94580078125 141.3724822998047 C 418.584228515625 137.98196411132812 419.6387939453125 132.5275421142578 419.021484375 127.58909606933594 C 418.11016845703125 120.25666809082031 413.94854736328125 113.53240966796875 408.2684326171875 108.80419921875 C 402.5883483886719 104.07595825195312 395.4941101074219 101.2352294921875 388.21722412109375 99.94790649414062 L 389.8999938964844 100.10000610351562" stroke-width="0.6000000238418579" fill="rgb(143, 165, 67)" opacity="1.0"/>
    <path d="M 131.10000610351562 406.8999938964844 C 114.48587036132812 407.4061279296875 104.19427490234375 430.3660888671875 113.84324645996094 443.76904296875 C 123.49227905273438 457.171875 147.3621368408203 455.447021484375 156.10861206054688 441.3065185546875 C 164.85507202148438 427.16607666015625 157.13107299804688 406.1322326660156 141.7134552001953 399.8661804199219 L 131.10000610351562 406.8999938964844" stroke-width="0.6000000238418579" fill="rgb(233, 92, 21)" opacity="1.0"/>
    <path d="M 427.9000244140625 202.89999389648438 C 419.17401123046875 202.0010986328125 408.65740966796875 201.83233642578125 403.67901611328125 209.09124755859375 C 401.81024169921875 212.05709838867188 400.9078063964844 215.52975463867188 401.0963439941406 219.03018188476562 C 401.3297119140625 227.70367431640625 405.7525939941406 235.72604370117188 412.96240234375 240.55328369140625 C 419.0888671875 244.6324462890625 426.5562744140625 245.8626708984375 433.7998046875 246.88397216796875 C 437.86968994140625 247.45111083984375 442.21185302734375 247.92404174804688 445.89691162109375 246.15728759765625 C 450.78948974609375 243.7620849609375 453.072509765625 238.08819580078125 454.3216552734375 232.78768920898438 C 456.15966796875 225.03265380859375 456.730224609375 217.03131103515625 456.0113525390625 209.09390258789062 C 455.7576904296875 206.35189819335938 455.30841064453125 203.49932861328125 453.706298828125 201.26080322265625 C 452.1102294921875 199.255615234375 449.9652099609375 197.75814819335938 447.53271484375 196.95098876953125 C 440.2493896484375 194.215576171875 432.1326904296875 194.81289672851562 425.3282470703125 198.5850830078125 L 427.9000244140625 202.89999389648438" stroke-width="0.6000000238418579" fill="rgb(70, 150, 179)" opacity="1.0"/>
    <path d="M 429.0999755859375 134.89999389648438 C 419.2803955078125 133.1819610595703 408.3240966796875 131.68995666503906 400.0721435546875 137.27149963378906 C 391.2113037109375 143.27264404296875 388.8121032714844 155.69508361816406 391.19207763671875 166.12869262695312 C 392.10797119140625 170.15185546875 393.70526123046875 174.18157958984375 396.7298583984375 176.9874267578125 C 399.2153625488281 179.29495239257812 402.45318603515625 180.59307861328125 405.6702575683594 181.664306640625 C 415.8111572265625 185.05462646484375 427.371826171875 186.61236572265625 436.89483642578125 181.754638671875 C 446.4891357421875 176.85211181640625 452.2847900390625 165.3743896484375 450.4708251953125 154.74423217773438 C 448.656982421875 144.1140899658203 439.47979736328125 135.13111877441406 428.793701171875 133.63082885742188 L 429.0999755859375 134.89999389648438" stroke-width="0.6000000238418579" fill="rgb(140, 28, 33)" opacity="1.0"/>
    <path d="M 398.8999938964844 100.10000610351562 C 397.2121887207031 101.53388977050781 395.4717102050781 103.04452514648438 394.5378723144531 105.05445861816406 C 393.60406494140625 107.06436157226562 393.7161865234375 109.7471923828125 395.389404296875 111.19992065429688 C 397.45880126953125 112.98855590820312 400.9776306152344 111.95965576171875 402.4832763671875 109.67015075683594 C 403.9889221191406 107.38064575195312 403.8898010253906 104.37002563476562 403.15911865234375 101.73255920410156 C 403.0147399902344 100.89344787597656 402.5610656738281 100.13897705078125 401.8876037597656 99.6180419921875 C 401.17449951171875 99.17855834960938 399.9903259277344 99.47042846679688 399.8686828613281 100.30339050292969 L 398.8999938964844 100.10000610351562" stroke-width="0.6000000238418579" fill="rgb(159, 159, 159)" opacity="1.0"/>
    <path d="M 426.9000244140625 217.89999389648438 C 417.850341796875 219.66986083984375 409.21002197265625 224.578857421875 404.103759765625 232.25125122070312 C 398.99749755859375 239.92364501953125 397.9132995605469 250.45272827148438 402.4683837890625 258.5093994140625 C 405.69610595703125 264.2014465332031 411.4154052734375 268.2314758300781 417.6368408203125 270.27752685546875 C 423.8582763671875 272.3236083984375 430.55804443359375 272.5342712402344 437.07415771484375 271.8648681640625 C 439.90966796875 271.5718994140625 442.8626708984375 271.0593566894531 445.094970703125 269.2984313964844 C 447.6551513671875 267.2807312011719 448.7987060546875 263.9992980957031 449.67218017578125 260.8485107421875 C 452.1380615234375 251.95318603515625 453.3345947265625 242.34109497070312 450.4212646484375 233.58087158203125 C 447.5079345703125 224.82061767578125 439.6297607421875 217.2415771484375 430.4246826171875 216.9688720703125 L 426.9000244140625 217.89999389648438" stroke-width="0.6000000238418579" fill="rgb(159, 159, 159)" opacity="1.0"/>
    <path d="M 423.0999755859375 252.89999389648438 C 413.48681640625 251.93826293945312 402.75958251953125 251.28570556640625 395.23602294921875 257.3164978027344 C 387.91107177734375 263.1711730957031 386.03912353515625 273.37554931640625 384.842529296875 282.6803283691406 C 384.36199951171875 286.46099853515625 383.9195556640625 290.423828125 385.28369140625 293.9801330566406 C 387.58734130859375 299.9963073730469 394.2624206542969 303.0541687011719 400.5264587402344 304.5177001953125 C 406.3399963378906 305.8783874511719 412.31884765625 306.397216796875 418.27984619140625 306.058349609375 C 427.9591064453125 305.51165771484375 438.6080322265625 301.75323486328125 442.548828125 292.8994140625 C 444.683349609375 288.1226501464844 444.4713134765625 282.5345764160156 442.9910888671875 277.50799560546875 C 441.51092529296875 272.48138427734375 438.8350830078125 267.89801025390625 436.12896728515625 263.4108581542969 C 433.4228515625 258.9237365722656 430.6676025390625 254.57266235351562 426.46063232421875 251.6630859375 L 423.0999755859375 252.89999389648438" stroke-width="0.6000000238418579" fill="rgb(218, 166, 20)" opacity="1.0"/>
    <path d="M 409.8999938964844 102.10000610351562 C 394.696044921875 101.60946655273438 381.97314453125 113.53703308105469 381.48260498046875 128.74098205566406 C 381.4405822753906 130.0428924560547 381.4909973144531 131.3461456298828 381.6334228515625 132.6409454345703 C 382.175537109375 137.56076049804688 384.21173095703125 142.5141143798828 388.0982360839844 145.57516479492188 C 391.3823547363281 148.16226196289062 395.6256103515625 149.1656494140625 399.7715759277344 149.68177795410156 C 410.87115478515625 151.04800415039062 422.1341552734375 149.41732788085938 432.3905029296875 144.95916748046875 C 435.09954833984375 143.77618408203125 437.7978515625 142.34304809570312 439.70648193359375 140.077392578125 C 442.912841796875 136.27569580078125 443.306884765625 130.7342529296875 442.1029052734375 125.90521240234375 C 440.3203125 118.734619140625 435.3836669921875 112.55691528320312 429.1783447265625 108.54266357421875 C 422.97308349609375 104.52842712402344 415.58978271484375 102.55738830566406 408.21112060546875 102.15045166015625 L 409.8999938964844 102.10000610351562" stroke-width="0.6000000238418579" fill="rgb(143, 165, 67)" opacity="1.0"/>
    <path d="M 426.9000244140625 117.89999389648438 C 410.4659118652344 120.39141845703125 402.9969482421875 144.41831970214844 414.1810302734375 156.56973266601562 C 425.3651123046875 168.72113037109375 448.8568115234375 164.151123046875 455.84765625 149.06527709960938 C 462.83837890625 133.9794464111328 452.6519775390625 114.02151489257812 436.5950927734375 109.64620971679688 L 426.9000244140625 117.89999389648438" stroke-width="0.6000000238418579" fill="rgb(233, 92, 21)" opacity="1.0"/>
    <path d="M 424.9000244140625 112.10000610351562 C 416.17401123046875 111.20111083984375 405.65740966796875 111.0323486328125 400.67901611328125 118.291259765625 C 398.81024169921875 121.25709533691406 397.9078063964844 124.72976684570312 398.0963439941406 128.23019409179688 C 398.3297119140625 136.90370178222656 402.7525939941406 144.92605590820312 409.9624328613281 149.75328063964844 C 416.0888671875 153.8324432373047 423.5562744140625 155.06265258789062 430.7998046875 156.083984375 C 434.86968994140625 156.651123046875 439.21185302734375 157.1240234375 442.89691162109375 155.35728454589844 C 447.78948974609375 152.9620819091797 450.072509765625 147.2882080078125 451.3216552734375 141.98770141601562 C 453.15966796875 134.232666015625 453.730224609375 126.23129272460938 453.0113525390625 118.29391479492188 C 452.7576904296875 115.55189514160156 452.30841064453125 112.6993408203125 450.706298828125 110.4608154296875 C 449.1102294921875 108.45562744140625 446.9652099609375 106.95814514160156 444.53271484375 106.1510009765625 C 437.2493896484375 103.41558837890625 429.1326904296875 104.01290893554688 422.3282470703125 107.78507995605469 L 424.9000244140625 112.10000610351562" stroke-width="0.6000000238418579" fill="rgb(70, 150, 179)" opacity="1.0"/>
    <path d="M 312.0 391.0 C 302.0950927734375 389.8738708496094 291.0689697265625 389.0415344238281 283.16656494140625 395.1078796386719 C 274.6815185546875 401.6295471191406 273.03155517578125 414.1734619140625 276.0328674316406 424.44561767578125 C 277.1883850097656 428.4066162109375 279.0244445800781 432.33331298828125 282.2118225097656 434.9527587890625 C 284.83123779296875 437.1070556640625 288.1410827636719 438.208740234375 291.41656494140625 439.0850830078125 C 301.7425842285156 441.8612060546875 313.3758544921875 442.72296142578125 322.59039306640625 437.30291748046875 C 331.87347412109375 431.83392333984375 336.97039794921875 420.029296875 334.5223388671875 409.52703857421875 C 332.0742492675781 399.0248107910156 322.3749694824219 390.6083068847656 311.61810302734375 389.7514953613281 L 312.0 391.0" stroke-width="0.6000000238418579" fill="rgb(140, 28, 33)" opacity="1.0"/>
    <path d="M 311.0 391.0 C 308.9385070800781 392.5484619140625 306.81048583984375 394.1824645996094 305.5849914550781 396.4530029296875 C 304.3594970703125 398.7234802246094 304.3025207519531 401.8489990234375 306.1455078125 403.65399169921875 C 308.42547607421875 405.8769836425781 312.58648681640625 404.9269714355469 314.4960021972656 402.3714599609375 C 316.405517578125 399.81597900390625 316.50048828125 396.3104553222656 315.83551025390625 393.1944885253906 C 315.7262878417969 392.20928955078125 315.2517395019531 391.3008728027344 314.5054931640625 390.6484680175781 C 313.70751953125 390.0879821777344 312.3110046386719 390.344482421875 312.1114807128906 391.3039855957031 L 311.0 391.0" stroke-width="0.6000000238418579" fill="rgb(159, 159, 159)" opacity="1.0"/>
    <path d="M 325.8999938964844 389.1000061035156 C 315.3645935058594 391.16046142578125 305.3056640625 396.8753967285156 299.361083984375 405.8074645996094 C 293.41650390625 414.739501953125 292.1542663574219 426.9971923828125 297.45721435546875 436.3765869140625 C 301.21484375 443.003173828125 307.8731689453125 447.69488525390625 315.11602783203125 450.076904296875 C 322.35888671875 452.4588623046875 330.15863037109375 452.7041015625 337.7445373535156 451.9248046875 C 341.0455627441406 451.583740234375 344.4834289550781 450.987060546875 347.0821838378906 448.93701171875 C 350.06268310546875 446.5880126953125 351.39404296875 442.767822265625 352.410888671875 439.0997314453125 C 355.2816162109375 428.7440185546875 356.6745910644531 417.5538330078125 353.282958984375 407.3553771972656 C 349.89129638671875 397.1568603515625 340.7196960449219 388.33349609375 330.0033874511719 388.0159912109375 L 325.8999938964844 389.1000061035156" stroke-width="0.6000000238418579" fill="rgb(159, 159, 159)" opacity="1.0"/>
    <path d="M 267.1000061035156 393.10003662109375 C 255.85491943359375 393.32818603515625 243.36541748046875 394.0689697265625 235.51007080078125 402.0879211425781 C 227.85980224609375 409.87567138671875 227.11831665039062 421.9307861328125 227.03204345703125 432.8521728515625 C 227.0035400390625 437.288818359375 227.04446411132812 441.93072509765625 229.11676025390625 445.85101318359375 C 232.61776733398438 452.4835205078125 240.759033203125 455.0875244140625 248.2030029296875 455.9061279296875 C 255.11199951171875 456.66864013671875 262.0946350097656 456.43505859375 268.937255859375 455.212646484375 C 280.0484619140625 453.2318115234375 291.83270263671875 447.4036865234375 295.1535949707031 436.6212158203125 C 296.9549560546875 430.802734375 295.9311218261719 424.37353515625 293.5198059082031 418.77001953125 C 291.1084289550781 413.16650390625 287.376953125 408.2419128417969 283.6238098144531 403.43280029296875 C 279.8706970214844 398.6236877441406 276.0798645019531 393.9786682128906 270.8118591308594 391.2020263671875 L 267.1000061035156 393.10003662109375" stroke-width="0.6000000238418579" fill="rgb(218, 166, 20)" opacity="1.0"/>
    <path d="M 235.89996337890625 394.1000061035156 C 218.39547729492188 391.41412353515625 202.0279541015625 403.42694091796875 199.342041015625 420.931396484375 C 199.112060546875 422.4302978515625 198.98870849609375 423.94366455078125 198.97286987304688 425.4600830078125 C 198.91375732421875 431.221923828125 200.576904296875 437.2308349609375 204.642333984375 441.31048583984375 C 208.07757568359375 444.7584228515625 212.8421630859375 446.50946044921875 217.5621337890625 447.683837890625 C 230.20071411132812 450.809814453125 243.44580078125 450.4947509765625 255.9215087890625 446.7713623046875 C 259.217529296875 445.7816162109375 262.5359802246094 444.501220703125 265.0577087402344 442.1485595703125 C 269.2935485839844 438.201416015625 270.521240234375 431.8514404296875 269.8026123046875 426.10223388671875 C 268.7416687011719 417.56597900390625 263.89678955078125 409.73773193359375 257.28411865234375 404.2332458496094 C 250.67147827148438 398.728759765625 242.4124755859375 395.421630859375 233.94091796875 393.9229431152344 L 235.89996337890625 394.1000061035156" stroke-width="0.6000000238418579" fill="rgb(143, 165, 67)" opacity="1.0"/>
    <path d="M 286.8999938964844 391.1000061035156 C 267.7677917480469 394.0004577636719 259.0725402832031 421.9720458984375 272.0928039550781 436.1185302734375 C 285.1131286621094 450.264892578125 312.46173095703125 444.944580078125 320.6002502441406 427.3819580078125 C 328.73876953125 409.8193664550781 316.8798828125 386.5847473144531 298.18682861328125 381.4911193847656 L 286.8999938964844 391.1000061035156" stroke-width="0.6000000238418579" fill="rgb(233, 92, 21)" opacity="1.0"/>
    <path d="M 328.1000061035156 389.1000061035156 C 317.94140625 388.05352783203125 305.69818115234375 387.8570861816406 299.9024353027344 396.3077392578125 C 297.72686767578125 399.760498046875 296.67626953125 403.8033142089844 296.895751953125 407.8784484863281 C 297.16741943359375 417.9759521484375 302.3164367675781 427.3154296875 310.71002197265625 432.9351806640625 C 317.84228515625 437.68408203125 326.5356140136719 439.1162109375 334.9684143066406 440.3052978515625 C 339.7065124511719 440.9654541015625 344.7615661621094 441.51605224609375 349.0516357421875 439.459228515625 C 354.7474670410156 436.6707763671875 357.4052734375 430.0654296875 358.859619140625 423.8946533203125 C 360.9992980957031 414.866455078125 361.66357421875 405.5513610839844 360.8266906738281 396.3108215332031 C 360.5313720703125 393.1186218261719 360.00830078125 389.7977294921875 358.1432189941406 387.19171142578125 C 356.28509521484375 384.8572998046875 353.787841796875 383.1139831542969 350.9560241699219 382.17431640625 C 342.4768981933594 378.98980712890625 333.02764892578125 379.6851806640625 325.1060485839844 384.07666015625 L 328.1000061035156 389.1000061035156" stroke-width="0.6000000238418579" fill="rgb(70, 150, 179)" opacity="1.0"/>
    <path d="M 293.1000061035156 391.1000061035156 C 281.66827392578125 389.09991455078125 268.9131164550781 387.3629455566406 259.3063659667969 393.8608703613281 C 248.99075317382812 400.8472900390625 246.19766235351562 415.3092041015625 248.9683837890625 427.455810546875 C 250.03463745117188 432.13946533203125 251.8941650390625 436.830810546875 255.41534423828125 440.09735107421875 C 258.3089294433594 442.78369140625 262.07830810546875 444.294921875 265.82354736328125 445.54205322265625 C 277.62945556640625 449.489013671875 291.088134765625 451.302490234375 302.1745910644531 445.647216796875 C 313.3441162109375 439.9398193359375 320.0912170410156 426.57763671875 317.9794921875 414.2022705078125 C 315.8677978515625 401.8268737792969 305.1839294433594 391.36907958984375 292.7433776855469 389.6224670410156 L 293.1000061035156 391.1000061035156" stroke-width="0.6000000238418579" fill="rgb(140, 28, 33)" opacity="1.0"/>
    <path d="M 338.0 390.0 C 335.9385070800781 391.5484619140625 333.81048583984375 393.1824645996094 332.5849914550781 395.4530029296875 C 331.3594970703125 397.7234802246094 331.3025207519531 400.8489990234375 333.1455078125 402.65399169921875 C 335.42547607421875 404.8769836425781 339.58648681640625 403.9269714355469 341.4960021972656 401.3714599609375 C 343.405517578125 398.81597900390625 343.50048828125 395.3104553222656 342.83551025390625 392.1944885253906 C 342.7262878417969 391.20928955078125 342.2517395019531 390.3008728027344 341.5054931640625 389.6484680175781 C 340.70751953125 389.0879821777344 339.3110046386719 389.344482421875 339.1114807128906 390.3039855957031 L 338.0 390.0" stroke-width="0.6000000238418579" fill="rgb(159, 159, 159)" opacity="1.0"/>
    <path d="M 342.8995056152344 388.1000061035156 C 332.3641052246094 390.16046142578125 322.30517578125 395.8753967285156 316.360595703125 404.8074645996094 C 310.416015625 413.739501953125 309.1537780761719 425.9971923828125 314.45672607421875 435.3765869140625 C 318.21435546875 442.003173828125 324.8726806640625 446.69488525390625 332.11553955078125 449.076904296875 C 339.3583984375 451.4588623046875 347.15814208984375 451.7041015625 354.7440490722656 450.9248046875 C 358.0450744628906 450.583740234375 361.4829406738281 449.987060546875 364.0816955566406 447.93701171875 C 367.06219482421875 445.5880126953125 368.3935546875 441.767822265625 369.410400390625 438.0997314453125 C 372.2811279296875 427.7440185546875 373.6741027832031 416.5538330078125 370.282470703125 406.3553771972656 C 366.89080810546875 396.1568603515625 357.7192077636719 387.33349609375 347.0028991699219 387.0159912109375 L 342.8995056152344 388.1000061035156" stroke-width="0.6000000238418579" fill="rgb(159, 159, 159)" opacity="1.0"/>
    <path d="M 262.8999938964844 393.1000061035156 C 251.70849609375 391.9803771972656 239.2200927734375 391.2206726074219 230.4613037109375 398.2416076660156 C 221.93374633789062 405.0575256347656 219.75445556640625 416.93719482421875 218.3614501953125 427.7696533203125 C 217.802001953125 432.1710205078125 217.28692626953125 436.78448486328125 218.87503051757812 440.9246826171875 C 221.556884765625 447.9285888671875 229.327880859375 451.48846435546875 236.62033081054688 453.1922607421875 C 243.38833618164062 454.7763671875 250.3487548828125 455.38037109375 257.2884826660156 454.98583984375 C 268.5569152832031 454.34942626953125 280.9541015625 449.97393798828125 285.5419006347656 439.66650390625 C 288.02685546875 434.10546875 287.780029296875 427.5999755859375 286.05682373046875 421.74810791015625 C 284.3335876464844 415.896240234375 281.2184753417969 410.56036376953125 278.0680236816406 405.3365478515625 C 274.9176025390625 400.11273193359375 271.7100830078125 395.04730224609375 266.8123779296875 391.6600036621094 L 262.8999938964844 393.1000061035156" stroke-width="0.6000000238418579" fill="rgb(218, 166, 20)" opacity="1.0"/>
    <path d="M 267.0 393.0 C 249.365966796875 391.36859130859375 233.74822998046875 404.34124755859375 232.1168212890625 421.97528076171875 C 231.97711181640625 423.48529052734375 231.9447021484375 425.0032958984375 232.01983642578125 426.5179443359375 C 232.30636596679688 432.27301025390625 234.32681274414062 438.17138671875 238.62957763671875 441.9998779296875 C 242.265380859375 445.235595703125 247.1263427734375 446.69775390625 251.90826416015625 447.58697509765625 C 264.7115783691406 449.94952392578125 277.9139404296875 448.8408203125 290.1438903808594 444.3759765625 C 293.3746337890625 443.1904296875 296.6103515625 441.71331787109375 298.9864807128906 439.21368408203125 C 302.9779968261719 435.0196533203125 303.8227233886719 428.6075439453125 302.7606506347656 422.9117431640625 C 301.1897277832031 414.4544677734375 295.8841552734375 406.9307861328125 288.9533386230469 401.8327331542969 C 282.02252197265625 396.7346496582031 273.580078125 393.9287109375 265.03387451171875 392.94073486328125 L 267.0 393.0" stroke-width="0.6000000238418579" fill="rgb(143, 165, 67)" opacity="1.0"/>
    <path d="M 225.10000610351562 393.1000061035156 C 205.9677734375 396.0004577636719 197.27255249023438 423.9720458984375 210.2928466796875 438.1185302734375 C 223.31317138671875 452.264892578125 250.6617431640625 446.944580078125 258.8002624511719 429.3819580078125 C 266.93878173828125 411.8193664550781 255.07989501953125 388.5847473144531 236.3868408203125 383.4911193847656 L 225.10000610351562 393.1000061035156" stroke-width="0.6000000238418579" fill="rgb(233, 92, 21)" opacity="1.0"/>
    <path d="M 271.1000061035156 392.1000061035156 C 260.94140625 391.05352783203125 248.69818115234375 390.8570861816406 242.90243530273438 399.3077392578125 C 240.72686767578125 402.760498046875 239.67626953125 406.8033142089844 239.895751953125 410.8784484863281 C 240.16741943359375 420.9759521484375 245.31646728515625 430.3154296875 253.71002197265625 435.9351806640625 C 260.84228515625 440.68408203125 269.5356140136719 442.1162109375 277.9684143066406 443.3052978515625 C 282.7065124511719 443.9654541015625 287.7615661621094 444.51605224609375 292.0516357421875 442.459228515625 C 297.7474670410156 439.6707763671875 300.4052734375 433.0654296875 301.859619140625 426.8946533203125 C 303.9992980957031 417.866455078125 304.66357421875 408.5513610839844 303.8266906738281 399.3108215332031 C 303.5313720703125 396.1186218261719 303.00830078125 392.7977294921875 301.1432189941406 390.19171142578125 C 299.28509521484375 387.8572998046875 296.787841796875 386.1139831542969 293.9560241699219 385.17431640625 C 285.4768981933594 381.98980712890625 276.02764892578125 382.6851806640625 268.1060485839844 387.07666015625 L 271.1000061035156 392.1000061035156" stroke-width="0.6000000238418579" fill="rgb(70, 150, 179)" opacity="1.0"/>
    <path d="M 344.1000061035156 388.1000061035156 C 332.66827392578125 386.09991455078125 319.9131164550781 384.3629455566406 310.3063659667969 390.8608703613281 C 299.9907531738281 397.8472900390625 297.1976623535156 412.3092041015625 299.9683532714844 424.455810546875 C 301.0346374511719 429.13946533203125 302.8941650390625 433.830810546875 306.41534423828125 437.09735107421875 C 309.3089294433594 439.78369140625 313.07830810546875 441.294921875 316.82354736328125 442.54205322265625 C 328.62945556640625 446.489013671875 342.088134765625 448.302490234375 353.1745910644531 442.647216796875 C 364.3441162109375 436.9398193359375 371.0912170410156 423.57763671875 368.9794921875 411.2022705078125 C 366.8677978515625 398.8268737792969 356.1839294433594 388.36907958984375 343.7433776855469 386.6224670410156 L 344.1000061035156 388.1000061035156" stroke-width="0.6000000238418579" fill="rgb(140, 28, 33)" opacity="1.0"/>
    <path d="M 353.0 389.0 C 350.9385070800781 390.5484619140625 348.81048583984375 392.1824645996094 347.5849914550781 394.4530029296875 C 346.3594970703125 396.7234802246094 346.3025207519531 399.8489990234375 348.1455078125 401.65399169921875 C 350.42547607421875 403.8769836425781 354.58648681640625 402.9269714355469 356.4960021972656 400.3714599609375 C 358.405517578125 397.81597900390625 358.50048828125 394.3104553222656 357.83551025390625 391.1944885253906 C 357.7262878417969 390.20928955078125 357.2517395019531 389.3008728027344 356.5054931640625 388.6484680175781 C 355.70751953125 388.0879821777344 354.3110046386719 388.344482421875 354.1114807128906 389.3039855957031 L 353.0 389.0" stroke-width="0.6000000238418579" fill="rgb(159, 159, 159)" opacity="1.0"/>
    <path d="M 195.10000610351562 393.1000061035156 C 184.39373779296875 393.8844299316406 173.72296142578125 398.3540954589844 166.75186157226562 406.5102844238281 C 159.78076171875 414.66644287109375 157.0601806640625 426.6849365234375 161.20217895507812 436.6317138671875 C 164.1395263671875 443.66046142578125 170.18829345703125 449.115478515625 177.09390258789062 452.347412109375 C 183.99954223632812 455.579345703125 191.71383666992188 456.7564697265625 199.3385009765625 456.8909912109375 C 202.65658569335938 456.947509765625 206.14117431640625 456.76666259765625 208.96664428710938 455.04248046875 C 212.2069091796875 453.06719970703125 213.98602294921875 449.433837890625 215.4346923828125 445.91387939453125 C 219.52444458007812 435.97625732421875 222.24700927734375 425.0333251953125 220.10064697265625 414.502197265625 C 217.95428466796875 403.9709777832031 209.9049072265625 394.11309814453125 199.30364990234375 392.5150146484375 L 195.10000610351562 393.1000061035156" stroke-width="0.6000000238418579" fill="rgb(159, 159, 159)" opacity="1.0"/>
    <path d="M 365.1000061035156 388.1000061035156 C 353.8549499511719 388.3281555175781 341.3653869628906 389.0688781738281 333.51007080078125 397.0878601074219 C 325.8597717285156 404.8755798339844 325.1182861328125 416.93072509765625 325.0320129394531 427.85205078125 C 325.00347900390625 432.28875732421875 325.04437255859375 436.9306640625 327.1166687011719 440.8509521484375 C 330.61767578125 447.48345947265625 338.7589416503906 450.08746337890625 346.2029113769531 450.9061279296875 C 353.1119079589844 451.6685791015625 360.09454345703125 451.43499755859375 366.9371643066406 450.212646484375 C 378.0483703613281 448.2318115234375 389.8326110839844 442.4036865234375 393.1535339355469 431.6212158203125 C 394.95489501953125 425.802734375 393.93109130859375 419.37353515625 391.5197448730469 413.77001953125 C 389.1083984375 408.16650390625 385.3769226074219 403.2419128417969 381.623779296875 398.43280029296875 C 377.8706970214844 393.6236877441406 374.0798645019531 388.9786376953125 368.8118591308594 386.2020263671875 L 365.1000061035156 388.1000061035156" stroke-width="0.6000000238418579" fill="rgb(218, 166, 20)" opacity="1.0"/>
    <path d="M 365.0 389.0 C 347.365966796875 387.36859130859375 331.74822998046875 400.34124755859375 330.1168212890625 417.97528076171875 C 329.97711181640625 419.48529052734375 329.9447021484375 421.0032958984375 330.01983642578125 422.5179443359375 C 330.3063659667969 428.27301025390625 332.3268127441406 434.17138671875 336.62957763671875 437.9998779296875 C 340.265380859375 441.235595703125 345.1263732910156 442.69775390625 349.9082946777344 443.58697509765625 C 362.7115783691406 445.94952392578125 375.9139404296875 444.8408203125 388.1438903808594 440.3759765625 C 391.3746337890625 439.1904296875 394.6103515625 437.71331787109375 396.9864807128906 435.21368408203125 C 400.9779968261719 431.0196533203125 401.8227233886719 424.6075439453125 400.7606506347656 418.9117431640625 C 399.1897277832031 410.4544372558594 393.8841552734375 402.9307861328125 386.9533386230469 397.8327331542969 C 380.02252197265625 392.7346496582031 371.580078125 389.9287109375 363.03387451171875 388.94073486328125 L 365.0 389.0" stroke-width="0.6000000238418579" fill="rgb(143, 165, 67)" opacity="1.0"/>
    <path d="M 370.1000061035156 389.1000061035156 C 350.9678039550781 392.0004577636719 342.2725524902344 419.9720458984375 355.2928161621094 434.1185302734375 C 368.3131408691406 448.264892578125 395.6617431640625 442.944580078125 403.8002624511719 425.3819580078125 C 411.93878173828125 407.8193664550781 400.07989501953125 384.5847473144531 381.3868408203125 379.4911193847656 L 370.1000061035156 389.1000061035156" stroke-width="0.6000000238418579" fill="rgb(233, 92, 21)" opacity="1.0"/>
    <path d="M 374.8999938964844 389.1000061035156 C 364.74139404296875 388.05352783203125 352.4981689453125 387.8570861816406 346.7024230957031 396.3077392578125 C 344.52685546875 399.760498046875 343.47625732421875 403.8033142089844 343.69573974609375 407.8784484863281 C 343.9674072265625 417.9759521484375 349.1164245605469 427.3154296875 357.510009765625 432.9351806640625 C 364.64227294921875 437.68408203125 373.3356018066406 439.1162109375 381.7684020996094 440.3052978515625 C 386.5065002441406 440.9654541015625 391.5615539550781 441.51605224609375 395.85162353515625 439.459228515625 C 401.5474548339844 436.6707763671875 404.20526123046875 430.0654296875 405.65960693359375 423.8946533203125 C 407.7992858886719 414.866455078125 408.46356201171875 405.5513610839844 407.6266784667969 396.3108215332031 C 407.33135986328125 393.1186218261719 406.80828857421875 389.7977294921875 404.9432067871094 387.19171142578125 C 403.0850830078125 384.8572998046875 400.58782958984375 383.1139831542969 397.7560119628906 382.17431640625 C 389.2768859863281 378.98980712890625 379.82763671875 379.6851806640625 371.9060363769531 384.07666015625 L 374.8999938964844 389.1000061035156" stroke-width="0.6000000238418579" fill="rgb(70, 150, 179)" opacity="1.0"/>
    <path d="M 384.0 390.0 C 372.4689025878906 388.6889953613281 359.6325378417969 387.7200012207031 350.4327087402344 394.78228759765625 C 340.5545959472656 402.37469482421875 338.63372802734375 416.9781494140625 342.1278076171875 428.93670654296875 C 343.4730224609375 433.5479736328125 345.61053466796875 438.119384765625 349.32122802734375 441.16888427734375 C 352.3706970214844 443.6768798828125 356.22393798828125 444.95941162109375 360.0372009277344 445.979736328125 C 372.05853271484375 449.21160888671875 385.60174560546875 450.21484375 396.3291320800781 443.9049072265625 C 407.13629150390625 437.5379638671875 413.070068359375 423.7952880859375 410.22003173828125 411.5688171386719 C 407.3700256347656 399.3423156738281 396.07830810546875 389.5439758300781 383.555419921875 388.5465087890625 L 384.0 390.0" stroke-width="0.6000000238418579" fill="rgb(140, 28, 33)" opacity="1.0"/>
    <path d="M 398.0 391.0 C 395.9385070800781 392.5484619140625 393.81048583984375 394.1824645996094 392.5849914550781 396.4530029296875 C 391.3594970703125 398.7234802246094 391.3025207519531 401.8489990234375 393.1455078125 403.65399169921875 C 395.42547607421875 405.8769836425781 399.58648681640625 404.9269714355469 401.4960021972656 402.3714599609375 C 403.405517578125 399.81597900390625 403.50048828125 396.3104553222656 402.83551025390625 393.1944885253906 C 402.7262878417969 392.20928955078125 402.2517395019531 391.3008728027344 401.5054931640625 390.6484680175781 C 400.70751953125 390.0879821777344 399.3110046386719 390.344482421875 399.1114807128906 391.3039855957031 L 398.0 391.0" stroke-width="0.6000000238418579" fill="rgb(159, 159, 159)" opacity="1.0"/>
    <path d="M 407.8999938964844 389.1000061035156 C 397.3645935058594 391.16046142578125 387.3056640625 396.8753967285156 381.361083984375 405.8074645996094 C 375.41650390625 414.739501953125 374.1542663574219 426.9971923828125 379.45721435546875 436.3765869140625 C 383.21484375 443.003173828125 389.8731689453125 447.69488525390625 397.11602783203125 450.076904296875 C 404.35888671875 452.4588623046875 412.15863037109375 452.7041015625 419.7445068359375 451.9248046875 C 423.0455322265625 451.583740234375 426.4833984375 450.987060546875 429.0821533203125 448.93701171875 C 432.06268310546875 446.5880126953125 433.39404296875 442.767822265625 434.410888671875 439.0997314453125 C 437.2816162109375 428.7440185546875 438.674560546875 417.5538330078125 435.282958984375 407.3553771972656 C 431.89129638671875 397.1568603515625 422.7197265625 388.33349609375 412.00341796875 388.0159912109375 L 407.8999938964844 389.1000061035156" stroke-width="0.6000000238418579" fill="rgb(159, 159, 159)" opacity="1.0"/>
    <path d="M 410.8999938964844 389.1000061035156 C 399.6549377441406 389.32818603515625 387.1653747558594 390.0689697265625 379.3100891113281 398.08795166015625 C 371.6598205566406 405.87567138671875 370.9183349609375 417.93084716796875 370.83209228515625 428.8521728515625 C 370.8035888671875 433.288818359375 370.8445129394531 437.9307861328125 372.91680908203125 441.85107421875 C 376.4178466796875 448.4835205078125 384.5591125488281 451.0875244140625 392.0030822753906 451.9061279296875 C 398.9120788574219 452.6685791015625 405.89471435546875 452.43505859375 412.7373046875 451.212646484375 C 423.8485107421875 449.23175048828125 435.63275146484375 443.40362548828125 438.95361328125 432.62109375 C 440.7550048828125 426.8026123046875 439.731201171875 420.3734130859375 437.31982421875 414.76995849609375 C 434.908447265625 409.16644287109375 431.17694091796875 404.24188232421875 427.423828125 399.4327697753906 C 423.67071533203125 394.6236572265625 419.8798828125 389.9786071777344 414.61181640625 387.2019958496094 L 410.8999938964844 389.1000061035156" stroke-width="0.6000000238418579" fill="rgb(218, 166, 20)" opacity="1.0"/>
    <path d="M 144.89999389648438 250.10000610351562 C 127.19987487792969 249.5289306640625 112.38812255859375 263.4147644042969 111.81704711914062 281.1148986816406 C 111.76814270019531 282.63055419921875 111.82684326171875 284.14776611328125 111.99264526367188 285.6551513671875 C 112.62374877929688 291.3826904296875 114.9942626953125 297.1492919921875 119.51882934570312 300.712890625 C 123.34213256835938 303.7247619628906 128.2820587158203 304.89288330078125 133.1086883544922 305.49371337890625 C 146.03060913085938 307.08428955078125 159.1427001953125 305.1858825683594 171.08294677734375 299.9957580566406 C 174.23681640625 298.6185607910156 177.37811279296875 296.95013427734375 179.60009765625 294.3125 C 183.33291625976562 289.88665771484375 183.7916259765625 283.4354248046875 182.38992309570312 277.81353759765625 C 180.314697265625 269.4656982421875 174.56753540039062 262.27374267578125 167.34344482421875 257.6004333496094 C 160.11941528320312 252.9271240234375 151.52391052246094 250.63250732421875 142.93385314941406 250.15875244140625 L 144.89999389648438 250.10000610351562" stroke-width="0.6000000238418579" fill="rgb(143, 165, 67)" opacity="1.0"/>
    <path d="M 144.89999389648438 265.8999938964844 C 125.76777648925781 268.8004455566406 117.07254028320312 296.7720642089844 130.0928192138672 310.91851806640625 C 143.11314392089844 325.06488037109375 170.46173095703125 319.7445983886719 178.60025024414062 302.1819763183594 C 186.73876953125 284.6193542480469 174.8798828125 261.3847351074219 156.18682861328125 256.2911071777344 L 144.89999389648438 265.8999938964844" stroke-width="0.6000000238418579" fill="rgb(233, 92, 21)" opacity="1.0"/>
    <path d="M 145.89999389648438 335.1000061035156 C 135.74139404296875 334.05352783203125 123.4981689453125 333.8570861816406 117.70242309570312 342.3077392578125 C 115.52684020996094 345.760498046875 114.47625732421875 349.8033142089844 114.69573974609375 353.8784484863281 C 114.9674072265625 363.9759521484375 120.11643981933594 373.3154296875 128.510009765625 378.9351806640625 C 135.6422882080078 383.6840515136719 144.3356170654297 385.1162414550781 152.7683868408203 386.3052673339844 C 157.5064697265625 386.9654846191406 162.56155395507812 387.51605224609375 166.85162353515625 385.4592590332031 C 172.5474853515625 382.6708068847656 175.20526123046875 376.0653991699219 176.65960693359375 369.8946533203125 C 178.79928588867188 360.8664245605469 179.46356201171875 351.5513610839844 178.62667846679688 342.3108215332031 C 178.33135986328125 339.1186218261719 177.80828857421875 335.7977294921875 175.94320678710938 333.19171142578125 C 174.0850830078125 330.8572998046875 171.58782958984375 329.1139831542969 168.75601196289062 328.17431640625 C 160.27691650390625 324.98980712890625 150.82762145996094 325.6851806640625 142.90603637695312 330.07666015625 L 145.89999389648438 335.1000061035156" stroke-width="0.6000000238418579" fill="rgb(70, 150, 179)" opacity="1.0"/>
    <path d="M 143.10000610351562 299.1000061035156 C 131.66827392578125 297.09991455078125 118.91311645507812 295.3629455566406 109.30636596679688 301.8608703613281 C 98.99075317382812 308.8472900390625 96.19766235351562 323.3092346191406 98.96836853027344 335.455810546875 C 100.03463745117188 340.13946533203125 101.89418029785156 344.8308410644531 105.41534423828125 348.09735107421875 C 108.30892944335938 350.7837219238281 112.07832336425781 352.2949523925781 115.82356262207031 353.54205322265625 C 127.62945556640625 357.489013671875 141.088134765625 359.302490234375 152.17459106445312 353.647216796875 C 163.3441162109375 347.9398193359375 170.09124755859375 334.57763671875 167.9794921875 322.2022705078125 C 165.8677978515625 309.8268737792969 155.18392944335938 299.36907958984375 142.74337768554688 297.6224670410156 L 143.10000610351562 299.1000061035156" stroke-width="0.6000000238418579" fill="rgb(140, 28, 33)" opacity="1.0"/>
    <path d="M 144.0 264.0 C 141.9385223388672 265.5484619140625 139.8105010986328 267.1824645996094 138.58499145507812 269.4530029296875 C 137.35951232910156 271.7234802246094 137.30250549316406 274.8489990234375 139.1455078125 276.65399169921875 C 141.42547607421875 278.8769836425781 145.58648681640625 277.9269714355469 147.49598693847656 275.3714599609375 C 149.40550231933594 272.81597900390625 149.50047302246094 269.3104553222656 148.8354949951172 266.1944885253906 C 148.72628784179688 265.20928955078125 148.2517547607422 264.3008728027344 147.50550842285156 263.6484680175781 C 146.70750427246094 263.0879821777344 145.31100463867188 263.344482421875 145.11148071289062 264.3039855957031 L 144.0 264.0" stroke-width="0.6000000238418579" fill="rgb(159, 159, 159)" opacity="1.0"/>
    <path d="M 144.89999389648438 276.8999938964844 C 134.36460876464844 278.96044921875 124.30567932128906 284.6753845214844 118.361083984375 293.6074523925781 C 112.41648864746094 302.53948974609375 111.15426635742188 314.7972106933594 116.45721435546875 324.1766052246094 C 120.21485900878906 330.8031921386719 126.87315368652344 335.494873046875 134.1160125732422 337.8768615722656 C 141.35890197753906 340.25885009765625 149.15863037109375 340.50408935546875 156.74453735351562 339.72479248046875 C 160.0455322265625 339.38372802734375 163.48342895507812 338.78704833984375 166.08218383789062 336.73699951171875 C 169.06268310546875 334.3880310058594 170.39404296875 330.5678405761719 171.410888671875 326.8997497558594 C 174.2816162109375 316.54400634765625 175.67459106445312 305.35382080078125 172.282958984375 295.1553649902344 C 168.89129638671875 284.95684814453125 159.71969604492188 276.13348388671875 149.00338745117188 275.81597900390625 L 144.89999389648438 276.8999938964844" stroke-width="0.6000000238418579" fill="rgb(159, 159, 159)" opacity="1.0"/>
    <path d="M 144.10000610351562 339.8999938964844 C 132.9084930419922 338.7803649902344 120.42008972167969 338.0206604003906 111.66131591796875 345.0415954589844 C 103.13375854492188 351.8575134277344 100.95448303222656 363.7371826171875 99.56144714355469 374.56964111328125 C 99.00201416015625 378.9710388183594 98.4869384765625 383.58447265625 100.07504272460938 387.7246398925781 C 102.75689697265625 394.7285461425781 110.52789306640625 398.2884521484375 117.82034301757812 399.9922790527344 C 124.58834838867188 401.57635498046875 131.54876708984375 402.18035888671875 138.48849487304688 401.7858581542969 C 149.75692749023438 401.1494140625 162.15411376953125 396.77392578125 166.74191284179688 386.46649169921875 C 169.22686767578125 380.9054870605469 168.98004150390625 374.39996337890625 167.2568359375 368.548095703125 C 165.53363037109375 362.69622802734375 162.41848754882812 357.3603515625 159.26803588867188 352.13653564453125 C 156.11761474609375 346.9127197265625 152.91009521484375 341.8472900390625 148.01239013671875 338.4599914550781 L 144.10000610351562 339.8999938964844" stroke-width="0.6000000238418579" fill="rgb(218, 166, 20)" opacity="1.0"/>
    <path d="M 145.89999389648438 340.1000061035156 C 128.1998748779297 339.5289306640625 113.38812255859375 353.4147644042969 112.81704711914062 371.1148986816406 C 112.76814270019531 372.63055419921875 112.82684326171875 374.14776611328125 112.99264526367188 375.6551513671875 C 113.62374877929688 381.3826904296875 115.9942626953125 387.1492919921875 120.51882934570312 390.712890625 C 124.34213256835938 393.7247619628906 129.2820587158203 394.89288330078125 134.1086883544922 395.49371337890625 C 147.03060913085938 397.08428955078125 160.1427001953125 395.1858825683594 172.08294677734375 389.9957580566406 C 175.23681640625 388.6185607910156 178.37811279296875 386.95013427734375 180.60009765625 384.3125 C 184.33291625976562 379.88665771484375 184.7916259765625 373.4354248046875 183.38992309570312 367.81353759765625 C 181.314697265625 359.4656982421875 175.56753540039062 352.27374267578125 168.34344482421875 347.6004333496094 C 161.11941528320312 342.9271240234375 152.52391052246094 340.6324768066406 143.93385314941406 340.15875244140625 L 145.89999389648438 340.1000061035156" stroke-width="0.6000000238418579" fill="rgb(143, 165, 67)" opacity="1.0"/>
    <path d="M 150.0 371.0 C 130.72828674316406 372.74798583984375 120.37141418457031 400.14788818359375 132.5199737548828 415.04962158203125 C 144.66859436035156 429.9512939453125 172.2869873046875 426.280517578125 181.4639892578125 409.23748779296875 C 190.6409912109375 392.1944885253906 180.19671630859375 368.29058837890625 161.84271240234375 362.085205078125 L 150.0 371.0" stroke-width="0.6000000238418579" fill="rgb(233, 92, 21)" opacity="1.0"/>
    <path d="M 159.89999389648438 383.1000061035156 C 149.74139404296875 382.05352783203125 137.49815368652344 381.8570861816406 131.70242309570312 390.3077392578125 C 129.52684020996094 393.760498046875 128.47625732421875 397.8033142089844 128.69573974609375 401.8784484863281 C 128.9674072265625 411.9759521484375 134.11643981933594 421.3154296875 142.510009765625 426.9351806640625 C 149.6422882080078 431.68408203125 158.33563232421875 433.1162109375 166.76837158203125 434.3052978515625 C 171.5064697265625 434.9654541015625 176.56155395507812 435.51605224609375 180.85162353515625 433.459228515625 C 186.5474853515625 430.6707763671875 189.20526123046875 424.0654296875 190.65960693359375 417.8946533203125 C 192.79928588867188 408.8664245605469 193.46356201171875 399.5513610839844 192.62667846679688 390.3108215332031 C 192.33135986328125 387.1186218261719 191.80828857421875 383.7977294921875 189.94320678710938 381.19171142578125 C 188.0850830078125 378.8572998046875 185.58782958984375 377.1139831542969 182.75601196289062 376.17431640625 C 174.27691650390625 372.98980712890625 164.82763671875 373.6851806640625 156.90603637695312 378.07666015625 L 159.89999389648438 383.1000061035156" stroke-width="0.6000000238418579" fill="rgb(70, 150, 179)" opacity="1.0"/>
  </g>
</svg>
