<?xml version="1.0" ?>
<svg xmlns="http://www.w3.org/2000/svg" version="1.1" width="600" height="600">
  <defs/>
  <g>
    <path d="M 354.6633605957031 328.7227478027344 C 353.08905029296875 328.35943603515625 351.55377197265625 330.26324462890625 352.12933349609375 331.7618103027344 C 352.7049255371094 333.2603759765625 354.9914245605469 333.68853759765625 356.1633605957031 332.5755920410156 C 357.33526611328125 331.462646484375 357.1293640136719 329.2943420410156 355.83502197265625 328.32403564453125 L 354.6633605957031 328.7227478027344" stroke-width="0.6000000238418579" fill="rgb(233, 92, 21)" opacity="1.0"/>
    <path d="M 98.00627136230469 194.99114990234375 C 97.13650512695312 195.2890625 96.12843322753906 195.735107421875 95.97369384765625 196.64453125 C 95.92620849609375 197.00885009765625 95.992919921875 197.37890625 96.1646728515625 197.70370483398438 C 96.5679931640625 198.51873779296875 97.34133911132812 199.08770751953125 98.23947143554688 199.230224609375 C 99.00163269042969 199.34915161132812 99.76620483398438 199.13809204101562 100.50030517578125 198.9169921875 C 100.9124755859375 198.7921142578125 101.34640502929688 198.64630126953125 101.61941528320312 198.3162841796875 C 101.97969055175781 197.8734130859375 101.94760131835938 197.23321533203125 101.83355712890625 196.67401123046875 C 101.66767883300781 195.8553466796875 101.37039184570312 195.06893920898438 100.95321655273438 194.34527587890625 C 100.80859375 194.09552001953125 100.6405029296875 193.8438720703125 100.38970947265625 193.70126342773438 C 100.14973449707031 193.58059692382812 99.87983703613281 193.5323486328125 99.6129150390625 193.56243896484375 C 98.79971313476562 193.6221923828125 98.05366516113281 194.03570556640625 97.57197570800781 194.693603515625 L 98.00627136230469 194.99114990234375" stroke-width="0.6000000238418579" fill="rgb(70, 150, 179)" opacity="1.0"/>
    <path d="M 464.8428955078125 437.4576416015625 C 464.12353515625 436.8843994140625 463.3021240234375 436.2791748046875 462.3870849609375 436.366455078125 C 461.4041748046875 436.46075439453125 460.66064453125 437.36077880859375 460.3922119140625 438.31103515625 C 460.28851318359375 438.6773681640625 460.23974609375 439.0743408203125 460.36065673828125 439.435302734375 C 460.4599609375 439.7320556640625 460.664794921875 439.98028564453125 460.8779296875 440.209228515625 C 461.5494384765625 440.93212890625 462.4168701171875 441.56939697265625 463.40283203125 441.596923828125 C 464.3966064453125 441.6240234375 465.3734130859375 440.95068359375 465.6964111328125 440.009521484375 C 466.0194091796875 439.06842041015625 465.67333984375 437.9351806640625 464.8741455078125 437.34130859375 L 464.8428955078125 437.4576416015625" stroke-width="0.6000000238418579" fill="rgb(140, 28, 33)" opacity="1.0"/>
    <path d="M 96.0 196.0 C 95.84521484375 196.11627197265625 95.6854248046875 196.23895263671875 95.59341430664062 196.409423828125 C 95.50140380859375 196.57989501953125 95.49711608886719 196.8145751953125 95.635498046875 196.95013427734375 C 95.80670166015625 197.11703491210938 96.11911010742188 197.04571533203125 96.26249694824219 196.85382080078125 C 96.4058837890625 196.66192626953125 96.41299438476562 196.39874267578125 96.36306762695312 196.164794921875 C 96.35487365722656 196.0908203125 96.31924438476562 196.0225830078125 96.26321411132812 195.97360229492188 C 96.20329284667969 195.9315185546875 96.09843444824219 195.95077514648438 96.08346557617188 196.0228271484375 L 96.0 196.0" stroke-width="0.6000000238418579" fill="rgb(159, 159, 159)" opacity="1.0"/>
    <path d="M 380.6389465332031 306.0843505859375 C 379.8562927246094 306.3735656738281 379.1556701660156 306.9372253417969 378.81072998046875 307.6965026855469 C 378.4658203125 308.4557800292969 378.52154541015625 309.41192626953125 379.0451354980469 310.0655517578125 C 379.4158935546875 310.5271911621094 379.9851379394531 310.8042907714844 380.5704650878906 310.8968811035156 C 381.15582275390625 310.989501953125 381.7572937011719 310.9112548828125 382.3296203613281 310.7570495605469 C 382.57861328125 310.6897888183594 382.8349609375 310.6012268066406 383.0088195800781 310.4115905761719 C 383.2082824707031 310.19427490234375 383.26287841796875 309.8846130371094 383.29522705078125 309.59051513671875 C 383.3865966796875 308.7602844238281 383.35418701171875 307.8843994140625 382.967041015625 307.1441650390625 C 382.57989501953125 306.4039001464844 381.76641845703125 305.8410949707031 380.9402770996094 305.9501037597656 L 380.6389465332031 306.0843505859375" stroke-width="0.6000000238418579" fill="rgb(159, 159, 159)" opacity="1.0"/>
    <path d="M 102.11907958984375 435.21160888671875 C 101.2662353515625 435.5970458984375 100.3349609375 436.0623779296875 99.99638366699219 436.9329833984375 C 99.66593933105469 437.77911376953125 100.00369262695312 438.72564697265625 100.35447692871094 439.56402587890625 C 100.49748229980469 439.9044189453125 100.65251159667969 440.2581787109375 100.9393310546875 440.49029541015625 C 101.42422485351562 440.8831787109375 102.13229370117188 440.81591796875 102.72857666015625 440.635009765625 C 103.2821044921875 440.46728515625 103.80868530273438 440.22088623046875 104.29217529296875 439.9034423828125 C 105.07742309570312 439.3883056640625 105.78826904296875 438.5567626953125 105.68948364257812 437.6231689453125 C 105.63690185546875 437.119140625 105.34817504882812 436.6607666015625 104.9803466796875 436.3109130859375 C 104.61248779296875 435.961181640625 104.16586303710938 435.70654296875 103.72135925292969 435.46142578125 C 103.27685546875 435.21630859375 102.8348388671875 434.9849853515625 102.3409423828125 434.9449462890625 L 102.11907958984375 435.21160888671875" stroke-width="0.6000000238418579" fill="rgb(218, 166, 20)" opacity="1.0"/>
    <path d="M 97.44570922851562 142.95986938476562 C 95.98497009277344 142.46182250976562 94.39706420898438 143.24224853515625 93.89901733398438 144.70298767089844 C 93.85638427734375 144.82806396484375 93.82266235351562 144.9560089111328 93.79811096191406 145.08587646484375 C 93.7049560546875 145.57931518554688 93.75578308105469 146.12026977539062 94.04220581054688 146.53244018554688 C 94.28422546386719 146.88076782226562 94.66622924804688 147.1038360595703 95.05322265625 147.27674865722656 C 96.08976745605469 147.7381591796875 97.23094177246094 147.9136199951172 98.35821533203125 147.78489685058594 C 98.6561279296875 147.7503662109375 98.96041870117188 147.69125366210938 99.21273803710938 147.5279541015625 C 99.63648986816406 147.2540740966797 99.83889770507812 146.72804260253906 99.86514282226562 146.2238006591797 C 99.90461730957031 145.4752197265625 99.60862731933594 144.72952270507812 99.12544250488281 144.1561737060547 C 98.64227294921875 143.58282470703125 97.98423767089844 143.17282104492188 97.28033447265625 142.91473388671875 L 97.44570922851562 142.95986938476562" stroke-width="0.6000000238418579" fill="rgb(143, 165, 67)" opacity="1.0"/>
    <path d="M 459.29736328125 337.4582214355469 C 457.60809326171875 336.9590148925781 455.811767578125 338.9295654296875 456.33935546875 340.5982971191406 C 456.8668212890625 342.26702880859375 459.326904296875 342.8837890625 460.67559814453125 341.74993896484375 C 462.0242919921875 340.6160888671875 461.9432373046875 338.2428894042969 460.59869384765625 337.1015930175781 L 459.29736328125 337.4582214355469" stroke-width="0.6000000238418579" fill="rgb(233, 92, 21)" opacity="1.0"/>
    <path d="M 107.59036254882812 212.0086669921875 C 106.6982421875 212.21905517578125 105.65438842773438 212.56292724609375 105.41180419921875 213.4500732421875 C 105.32901000976562 213.806884765625 105.35897827148438 214.18060302734375 105.49758911132812 214.5196533203125 C 105.81794738769531 215.3677978515625 106.52951049804688 216.008056640625 107.40666198730469 216.23736572265625 C 108.15121459960938 216.43002319335938 108.93046569824219 216.29547119140625 109.68046569824219 216.14797973632812 C 110.10163879394531 216.064453125 110.54644775390625 215.9622802734375 110.84963989257812 215.66156005859375 C 111.25045776367188 215.25741577148438 111.28131103515625 214.61911010742188 111.22291564941406 214.0531005859375 C 111.13848876953125 213.224609375 110.9205322265625 212.41525268554688 110.57748413085938 211.65643310546875 C 110.45845031738281 211.39447021484375 110.31631469726562 211.1282958984375 110.08145141601562 210.96224975585938 C 109.85516357421875 210.81903076171875 109.59210205078125 210.7447509765625 109.32432556152344 210.74847412109375 C 108.51162719726562 210.7281494140625 107.73094177246094 211.06533813476562 107.1885986328125 211.67092895507812 L 107.59036254882812 212.0086669921875" stroke-width="0.6000000238418579" fill="rgb(70, 150, 179)" opacity="1.0"/>
    <path d="M 102.14088439941406 80.11030578613281 C 101.27374267578125 79.58889770507812 100.29067993164062 79.04739379882812 99.30532836914062 79.27452087402344 C 98.24699401855469 79.51913452148438 97.56600952148438 80.60791015625 97.41024780273438 81.68289184570312 C 97.35003662109375 82.09735107421875 97.35409545898438 82.53732299804688 97.53802490234375 82.91351318359375 C 97.68910217285156 83.22282409667969 97.94830322265625 83.46403503417969 98.21383666992188 83.6829833984375 C 99.05032348632812 84.37449645996094 100.08821105957031 84.94432067871094 101.16748046875 84.8321533203125 C 102.25515747070312 84.71836853027344 103.2232666015625 83.8431396484375 103.43978881835938 82.77020263671875 C 103.65634155273438 81.69728088378906 103.11540222167969 80.5113525390625 102.15823364257812 79.97892761230469 L 102.14088439941406 80.11030578613281" stroke-width="0.6000000238418579" fill="rgb(140, 28, 33)" opacity="1.0"/>
    <path d="M 100.62249755859375 433.4893798828125 C 100.42349243164062 433.55438232421875 100.2171630859375 433.624267578125 100.06350708007812 433.7667236328125 C 99.90988159179688 433.9091796875 99.82366943359375 434.14788818359375 99.91806030273438 434.3348388671875 C 100.03509521484375 434.5654296875 100.37980651855469 434.601318359375 100.59347534179688 434.4549560546875 C 100.80715942382812 434.3084716796875 100.90625 434.04150390625 100.93670654296875 433.78466796875 C 100.9541015625 433.7060546875 100.94142150878906 433.623779296875 100.90115356445312 433.5540771484375 C 100.8544921875 433.4901123046875 100.74041748046875 433.4732666015625 100.69998168945312 433.54180908203125 L 100.62249755859375 433.4893798828125" stroke-width="0.6000000238418579" fill="rgb(159, 159, 159)" opacity="1.0"/>
    <path d="M 462.73583984375 64.3497314453125 C 461.92376708984375 64.87359619140625 461.2735595703125 65.6871337890625 461.0745849609375 66.63230895996094 C 460.875732421875 67.57748413085938 461.1793212890625 68.64443969726562 461.9356689453125 69.25163269042969 C 462.47100830078125 69.68025207519531 463.18426513671875 69.85028076171875 463.8692626953125 69.80770874023438 C 464.5543212890625 69.76513671875 465.21466064453125 69.52532958984375 465.8228759765625 69.20700073242188 C 466.0875244140625 69.06829833984375 466.35498046875 68.9036865234375 466.50384521484375 68.64555358886719 C 466.6746826171875 68.34968566894531 466.658447265625 67.98587036132812 466.62109375 67.64524841308594 C 466.51544189453125 66.68362426757812 466.2584228515625 65.70156860351562 465.634521484375 64.96209716796875 C 465.01055908203125 64.22262573242188 463.94927978515625 63.79103088378906 463.042724609375 64.12214660644531 L 462.73583984375 64.3497314453125" stroke-width="0.6000000238418579" fill="rgb(159, 159, 159)" opacity="1.0"/>
    <path d="M 96.00082397460938 100.14276123046875 C 95.01434326171875 100.11648559570312 93.91665649414062 100.13003540039062 93.19522094726562 100.800537109375 C 92.49267578125 101.45159912109375 92.37811279296875 102.50509643554688 92.32562255859375 103.46192932128906 C 92.30487060546875 103.85066223144531 92.28936767578125 104.25765991210938 92.45486450195312 104.60977172851562 C 92.73440551757812 105.20547485351562 93.43722534179688 105.46719360351562 94.08627319335938 105.56954956054688 C 94.68865966796875 105.664794921875 95.30160522460938 105.67304992675781 95.90634155273438 105.59405517578125 C 96.8883056640625 105.46615600585938 97.94509887695312 105.00384521484375 98.280517578125 104.07249450683594 C 98.46231079101562 103.5699462890625 98.3990478515625 103.00225830078125 98.21075439453125 102.50123596191406 C 98.0224609375 102.00021362304688 97.71568298339844 101.55325317382812 97.40652465820312 101.1163330078125 C 97.09738159179688 100.67939758300781 96.78424072265625 100.25669860839844 96.33395385742188 99.99166870117188 L 96.00082397460938 100.14276123046875" stroke-width="0.6000000238418579" fill="rgb(218, 166, 20)" opacity="1.0"/>
    <path d="M 112.12229919433594 132.55517578125 C 110.55101013183594 132.7202911376953 109.41107177734375 134.12791442871094 109.57618713378906 135.69920349121094 C 109.59033203125 135.83375549316406 109.61398315429688 135.96713256835938 109.64700317382812 136.09832763671875 C 109.77255249023438 136.5968475341797 110.05227661132812 137.07762145996094 110.49557495117188 137.33746337890625 C 110.87014770507812 137.5570831298828 111.32096862792969 137.60015869140625 111.75485229492188 137.59446716308594 C 112.916259765625 137.57765197753906 114.052001953125 137.25018310546875 115.04405212402344 136.64605712890625 C 115.30601501464844 136.4859161376953 115.56332397460938 136.30020141601562 115.72756958007812 136.04002380371094 C 116.00357055664062 135.60340881347656 115.96554565429688 135.0276641845703 115.773193359375 134.54788208007812 C 115.48809814453125 133.8353729248047 114.892578125 133.26974487304688 114.19720458984375 132.9447021484375 C 113.5018310546875 132.6196746826172 112.71420288085938 132.5215606689453 111.94924926757812 132.58432006835938 L 112.12229919433594 132.55517578125" stroke-width="0.6000000238418579" fill="rgb(143, 165, 67)" opacity="1.0"/>
    <path d="M 390.0269775390625 295.4886169433594 C 388.4065246582031 294.8790588378906 386.5054016113281 296.68292236328125 386.9037780761719 298.3563232421875 C 387.3021545410156 300.0296936035156 389.6698303222656 300.80938720703125 391.0726623535156 299.7938537597656 C 392.4754638671875 298.7782897949219 392.56488037109375 296.44610595703125 391.3280334472656 295.23162841796875 L 390.0269775390625 295.4886169433594" stroke-width="0.6000000238418579" fill="rgb(233, 92, 21)" opacity="1.0"/>
    <path d="M 116.8873291015625 105.45639038085938 C 116.03335571289062 105.75921630859375 115.044677734375 106.20950317382812 114.90187072753906 107.10736083984375 C 114.85894775390625 107.46688842773438 114.92863464355469 107.83088684082031 115.10134887695312 108.14910888671875 C 115.50747680664062 108.94801330566406 116.275634765625 109.50050354003906 117.1622314453125 109.63137817382812 C 117.91458129882812 109.740478515625 118.66580200195312 109.52435302734375 119.38688659667969 109.29864501953125 C 119.791748046875 109.17120361328125 120.21781921386719 109.02291870117188 120.48333740234375 108.69476318359375 C 120.83367919921875 108.25448608398438 120.79525756835938 107.62394714355469 120.67691040039062 107.07405090332031 C 120.50473022460938 106.26905822753906 120.20339965820312 105.49725341796875 119.78459167480469 104.78854370117188 C 119.639404296875 104.54396057128906 119.47108459472656 104.2977294921875 119.222412109375 104.15986633300781 C 118.98464965820312 104.04351806640625 118.7181396484375 103.99885559082031 118.45542907714844 104.03134155273438 C 117.65467834472656 104.098876953125 116.92385864257812 104.51429748535156 116.4561767578125 105.16777038574219 L 116.8873291015625 105.45639038085938" stroke-width="0.6000000238418579" fill="rgb(70, 150, 179)" opacity="1.0"/>
    <path d="M 435.254638671875 77.048583984375 C 434.447021484375 76.4674072265625 433.5274658203125 75.85714721679688 432.54345703125 75.99996948242188 C 431.4864501953125 76.15402221679688 430.73095703125 77.16586303710938 430.4913330078125 78.20675659179688 C 430.39874267578125 78.6080322265625 430.36712646484375 79.03952026367188 430.51690673828125 79.42308044433594 C 430.639892578125 79.73843383789062 430.8743896484375 79.99580383300781 431.116943359375 80.23187255859375 C 431.88067626953125 80.97726440429688 432.8516845703125 81.61970520019531 433.91845703125 81.59716796875 C 434.9935302734375 81.57369995117188 436.01318359375 80.79434204101562 436.31219482421875 79.76042175292969 C 436.61126708984375 78.72648620605469 436.1771240234375 77.5205078125 435.2822265625 76.92123413085938 L 435.254638671875 77.048583984375" stroke-width="0.6000000238418579" fill="rgb(140, 28, 33)" opacity="1.0"/>
    <path d="M 120.0 419.0 C 119.84521484375 419.11627197265625 119.6854248046875 419.23895263671875 119.59341430664062 419.409423828125 C 119.50140380859375 419.5799560546875 119.49711608886719 419.8145751953125 119.635498046875 419.95013427734375 C 119.80670166015625 420.1170654296875 120.11911010742188 420.04571533203125 120.26249694824219 419.85382080078125 C 120.4058837890625 419.6619873046875 120.41299438476562 419.39874267578125 120.36306762695312 419.164794921875 C 120.35487365722656 419.0908203125 120.31924438476562 419.0225830078125 120.26321411132812 418.9736328125 C 120.20329284667969 418.9315185546875 120.09843444824219 418.9508056640625 120.08346557617188 419.0228271484375 L 120.0 419.0" stroke-width="0.6000000238418579" fill="rgb(159, 159, 159)" opacity="1.0"/>
    <path d="M 445.263916015625 421.4033203125 C 444.52081298828125 421.960205078125 443.952392578125 422.78369140625 443.82537841796875 423.70306396484375 C 443.6983642578125 424.6224365234375 444.061279296875 425.6246337890625 444.8271484375 426.1556396484375 C 445.369140625 426.5303955078125 446.064208984375 426.6453857421875 446.718017578125 426.55841064453125 C 447.3717041015625 426.471435546875 447.98846435546875 426.1971435546875 448.550048828125 425.85101318359375 C 448.7943115234375 425.70025634765625 449.03961181640625 425.5244140625 449.1649169921875 425.2669677734375 C 449.30865478515625 424.971923828125 449.2686767578125 424.624267578125 449.2098388671875 424.30029296875 C 449.0438232421875 423.3857421875 448.7313232421875 422.4617919921875 448.08349609375 421.7950439453125 C 447.4356689453125 421.1282958984375 446.3892822265625 420.78607177734375 445.542724609375 421.16455078125 L 445.263916015625 421.4033203125" stroke-width="0.6000000238418579" fill="rgb(159, 159, 159)" opacity="1.0"/>
    <path d="M 443.58935546875 281.29327392578125 C 442.6944580078125 281.73431396484375 441.7188720703125 282.2633361816406 441.38916015625 283.2029113769531 C 441.0672607421875 284.1161804199219 441.4608154296875 285.11260986328125 441.8643798828125 285.99334716796875 C 442.0289306640625 286.3508605957031 442.2066650390625 286.7222900390625 442.52056884765625 286.9593505859375 C 443.0511474609375 287.36065673828125 443.80316162109375 287.2638244628906 444.4320068359375 287.0497741699219 C 445.0157470703125 286.851318359375 445.5679931640625 286.570068359375 446.07183837890625 286.2146301269531 C 446.89013671875 285.6377868652344 447.6177978515625 284.7265625 447.47930908203125 283.73541259765625 C 447.40533447265625 283.2001953125 447.0814208984375 282.7221374511719 446.677001953125 282.3625793457031 C 446.2725830078125 282.0030212402344 445.7877197265625 281.74761962890625 445.305419921875 281.5023193359375 C 444.82305908203125 281.25701904296875 444.3438720703125 281.02630615234375 443.81622314453125 281.0012512207031 L 443.58935546875 281.29327392578125" stroke-width="0.6000000238418579" fill="rgb(218, 166, 20)" opacity="1.0"/>
    <path d="M 430.3092041015625 374.43951416015625 C 429.038818359375 373.5627136230469 427.2982177734375 373.88177490234375 426.4215087890625 375.152099609375 C 426.34637451171875 375.2608947753906 426.27911376953125 375.3748474121094 426.22015380859375 375.4931640625 C 425.9962158203125 375.9427185058594 425.89794921875 376.4771728515625 426.0615234375 376.9517822265625 C 426.19964599609375 377.3529052734375 426.506591796875 377.6715393066406 426.83203125 377.9432373046875 C 427.7041015625 378.66937255859375 428.754638671875 379.14874267578125 429.87457275390625 379.3315734863281 C 430.170654296875 379.37939453125 430.4796142578125 379.4053039550781 430.76690673828125 379.3168029785156 C 431.249267578125 379.1684875488281 431.587158203125 378.7173156738281 431.7496337890625 378.2391357421875 C 431.9913330078125 377.5294189453125 431.90936279296875 376.731201171875 431.600341796875 376.04791259765625 C 431.29132080078125 375.3646240234375 430.76953125 374.7909851074219 430.162353515625 374.35107421875 L 430.3092041015625 374.43951416015625" stroke-width="0.6000000238418579" fill="rgb(143, 165, 67)" opacity="1.0"/>
    <path d="M 444.58441162109375 361.43243408203125 C 443.1502685546875 362.4026794433594 443.523681640625 364.99700927734375 445.1197509765625 365.63909912109375 C 446.7158203125 366.2811584472656 448.720703125 364.79937744140625 448.70269775390625 363.0674133300781 C 448.6846923828125 361.3354797363281 446.8328857421875 359.9144592285156 445.126708984375 360.22198486328125 L 444.58441162109375 361.43243408203125" stroke-width="0.6000000238418579" fill="rgb(233, 92, 21)" opacity="1.0"/>
    <path d="M 445.8055419921875 89.70018005371094 C 445.0137939453125 90.00271606445312 444.0994873046875 90.44622802734375 443.986328125 91.28909301757812 C 443.954345703125 91.62628173828125 444.0277099609375 91.96507263183594 444.19647216796875 92.25875854492188 C 444.5943603515625 92.99661254882812 445.3251953125 93.495849609375 446.15728759765625 93.59814453125 C 446.86328125 93.68310546875 447.5609130859375 93.46395874023438 448.2301025390625 93.23654174804688 C 448.6058349609375 93.10818481445312 449.0008544921875 92.9598388671875 449.24176025390625 92.64697265625 C 449.55938720703125 92.227294921875 449.5091552734375 91.63851928710938 449.385986328125 91.12698364257812 C 449.206787109375 90.37811279296875 448.907470703125 89.66319274902344 448.499755859375 89.00994873046875 C 448.3583984375 88.78451538085938 448.1954345703125 88.55807495117188 447.95977783203125 88.43479919433594 C 447.7347412109375 88.33139038085938 447.48455810546875 88.295654296875 447.2396240234375 88.33200073242188 C 446.4923095703125 88.413330078125 445.818359375 88.818359375 445.39581298828125 89.4400634765625 L 445.8055419921875 89.70018005371094" stroke-width="0.6000000238418579" fill="rgb(70, 150, 179)" opacity="1.0"/>
    <path d="M 441.76275634765625 400.6753234863281 C 440.9697265625 401.06890869140625 440.107177734375 401.5384521484375 439.810302734375 402.3719177246094 C 439.491943359375 403.2674560546875 439.9736328125 404.2825927734375 440.6927490234375 404.9040222167969 C 440.969970703125 405.14373779296875 441.29620361328125 405.34808349609375 441.6602783203125 405.3897705078125 C 441.95947265625 405.42413330078125 442.25946044921875 405.3467102050781 442.5460205078125 405.254150390625 C 443.45001220703125 404.9633483886719 444.3592529296875 404.4667053222656 444.78515625 403.6181640625 C 445.2138671875 402.7626647949219 445.0247802734375 401.636474609375 444.33587646484375 400.9712219238281 C 443.64691162109375 400.3059387207031 442.5177001953125 400.1458740234375 441.674072265625 400.6006164550781 L 441.76275634765625 400.6753234863281" stroke-width="0.6000000238418579" fill="rgb(140, 28, 33)" opacity="1.0"/>
    <path d="M 117.07803344726562 220.14532470703125 C 116.28688049316406 220.21102905273438 115.46438598632812 220.28811645507812 114.77278137207031 220.6790771484375 C 114.08120727539062 221.07000732421875 113.55403137207031 221.87530517578125 113.73855590820312 222.64788818359375 C 113.96846008300781 223.60101318359375 115.20875549316406 224.03546142578125 116.12535095214844 223.68234252929688 C 117.04193115234375 223.3292236328125 117.64129638671875 222.43109130859375 117.97869873046875 221.5098876953125 C 118.11172485351562 221.2352294921875 118.13693237304688 220.920654296875 118.04936218261719 220.6282958984375 C 117.9332275390625 220.35137939453125 117.52719116210938 220.1893310546875 117.31790161132812 220.40673828125 L 117.07803344726562 220.14532470703125" stroke-width="0.6000000238418579" fill="rgb(159, 159, 159)" opacity="1.0"/>
    <path d="M 117.70913696289062 225.501220703125 C 114.59490966796875 224.39389038085938 111.03347778320312 224.32943725585938 108.05712890625 225.7628173828125 C 105.080810546875 227.19619750976562 102.82302856445312 230.24530029296875 102.75605773925781 233.56207275390625 C 102.71168518066406 235.90716552734375 103.73931884765625 238.19482421875 105.28425598144531 239.96231079101562 C 106.82919311523438 241.72982788085938 108.85691833496094 243.0186767578125 110.98876953125 244.00259399414062 C 111.916748046875 244.43020629882812 112.92111206054688 244.81158447265625 113.93121337890625 244.67630004882812 C 115.08935546875 244.521728515625 116.04147338867188 243.7186279296875 116.88644409179688 242.906494140625 C 119.27186584472656 240.61361694335938 121.39677429199219 237.86782836914062 122.09860229492188 234.63397216796875 C 122.80039978027344 231.40008544921875 121.75527954101562 227.62356567382812 118.96626281738281 225.85791015625 L 117.70913696289062 225.501220703125" stroke-width="0.6000000238418579" fill="rgb(159, 159, 159)" opacity="1.0"/>
    <path d="M 292.80169677734375 106.85397338867188 C 289.9152526855469 108.56082153320312 286.7807922363281 110.58308410644531 285.916015625 113.81620788574219 C 285.0705871582031 116.95924377441406 286.64434814453125 120.19808959960938 288.22210693359375 123.04653930664062 C 288.8647766113281 124.20272827148438 289.5555114746094 125.40203857421875 290.66796875 126.11636352539062 C 292.548828125 127.32557678222656 295.0443115234375 126.80889892578125 297.09710693359375 125.9307861328125 C 299.0028076171875 125.11648559570312 300.78167724609375 124.03274536132812 302.3793029785156 122.71278381347656 C 304.97418212890625 120.57046508789062 307.1801452636719 117.33056640625 306.4626159667969 114.04423522949219 C 306.0778503417969 112.26950073242188 304.8699951171875 110.7501220703125 303.4228820800781 109.64842224121094 C 301.9757385253906 108.54673767089844 300.2853088378906 107.81475830078125 298.60614013671875 107.11593627929688 C 296.927001953125 106.4171142578125 295.2621154785156 105.76641845703125 293.4874267578125 105.81729125976562 L 292.80169677734375 106.85397338867188" stroke-width="0.6000000238418579" fill="rgb(218, 166, 20)" opacity="1.0"/>
    <path d="M 228.67718505859375 120.644287109375 C 223.4666748046875 120.24234008789062 218.9168701171875 124.14047241210938 218.514892578125 129.35098266601562 C 218.48049926757812 129.7971649169922 218.477783203125 130.24522399902344 218.50677490234375 130.69178771972656 C 218.61721801757812 132.3886260986328 219.23995971679688 134.1199188232422 220.52679443359375 135.23019409179688 C 221.61416625976562 136.16856384277344 223.0550537109375 136.578125 224.47003173828125 136.81895446777344 C 228.25848388671875 137.45838928222656 232.1490478515625 137.07177734375 235.737548828125 135.6992950439453 C 236.68548583984375 135.33489990234375 237.63357543945312 134.88449096679688 238.32342529296875 134.13624572753906 C 239.4822998046875 132.88075256347656 239.70266723632812 130.98495483398438 239.3636474609375 129.30911254882812 C 238.86199951171875 126.82073974609375 237.26263427734375 124.62466430664062 235.19464111328125 123.15164184570312 C 233.12664794921875 121.6785888671875 230.6229248046875 120.888671875 228.0968017578125 120.63565063476562 L 228.67718505859375 120.644287109375" stroke-width="0.6000000238418579" fill="rgb(143, 165, 67)" opacity="1.0"/>
    <path d="M 227.7462158203125 103.173583984375 C 223.28997802734375 106.72705078125 225.18389892578125 115.14419555664062 230.5869140625 116.83993530273438 C 235.98992919921875 118.53567504882812 242.18719482421875 113.156494140625 241.6817626953125 107.4776611328125 C 241.17633056640625 101.798828125 234.73336791992188 97.61293029785156 229.21377563476562 99.06167602539062 L 227.7462158203125 103.173583984375" stroke-width="0.6000000238418579" fill="rgb(233, 92, 21)" opacity="1.0"/>
    <path d="M 207.8658447265625 104.23736572265625 C 205.5814208984375 102.263671875 202.64794921875 100.14297485351562 199.8126220703125 101.20936584472656 C 198.70077514648438 101.67764282226562 197.76165771484375 102.47940063476562 197.12481689453125 103.50405883789062 C 195.48089599609375 105.99687194824219 195.14715576171875 109.13186645507812 196.22952270507812 111.91488647460938 C 197.1536865234375 114.27330017089844 199.01776123046875 116.09234619140625 200.85986328125 117.808349609375 C 201.89617919921875 118.77061462402344 203.02789306640625 119.75997924804688 204.41574096679688 119.98800659179688 C 206.26809692382812 120.27676391601562 208.03057861328125 119.12617492675781 209.4278564453125 117.87713623046875 C 211.47506713867188 116.05172729492188 213.21331787109375 113.90699768066406 214.5751953125 111.52613830566406 C 215.04412841796875 110.70260620117188 215.47970581054688 109.809326171875 215.46902465820312 108.86203002929688 C 215.41403198242188 107.98171997070312 215.10409545898438 107.13644409179688 214.57699584960938 106.42922973632812 C 213.06158447265625 104.22183227539062 210.65408325195312 102.79034423828125 207.990966796875 102.51315307617188 L 207.8658447265625 104.23736572265625" stroke-width="0.6000000238418579" fill="rgb(70, 150, 179)" opacity="1.0"/>
    <path d="M 258.84771728515625 120.87295532226562 C 255.7843017578125 122.40170288085938 252.45294189453125 124.22480773925781 251.3118896484375 127.45040893554688 C 250.08819580078125 130.91616821289062 251.95977783203125 134.83766174316406 254.7459716796875 137.23464965820312 C 255.81982421875 138.15927124023438 257.083251953125 138.94671630859375 258.4913330078125 139.10482788085938 C 259.6488037109375 139.23524475097656 260.80816650390625 138.9333038330078 261.9154968261719 138.57290649414062 C 265.4089050292969 137.44061279296875 268.9206237792969 135.5123748779297 270.5605163574219 132.22743225097656 C 272.2109680175781 128.91555786132812 271.470458984375 124.56211853027344 268.8005676269531 121.995361328125 C 266.13067626953125 119.4285888671875 261.7625427246094 118.81913757324219 258.504150390625 120.58482360839844 L 258.84771728515625 120.87295532226562" stroke-width="0.6000000238418579" fill="rgb(140, 28, 33)" opacity="1.0"/>
    <path d="M 318.8014831542969 110.98171997070312 C 318.09771728515625 111.46041870117188 317.37066650390625 111.96627807617188 316.931396484375 112.69601440429688 C 316.49212646484375 113.42575073242188 316.4249267578125 114.45553588867188 317.0047302246094 115.07928466796875 C 317.7221374511719 115.84764099121094 319.1089782714844 115.59881591796875 319.7782287597656 114.78567504882812 C 320.4474792480469 113.97256469726562 320.5330810546875 112.81805419921875 320.3620300292969 111.78024291992188 C 320.3412780761719 111.45367431640625 320.1988830566406 111.14677429199219 319.962890625 110.92007446289062 C 319.70843505859375 110.722900390625 319.24395751953125 110.78585815429688 319.1632995605469 111.09916687011719 L 318.8014831542969 110.98171997070312" stroke-width="0.6000000238418579" fill="rgb(159, 159, 159)" opacity="1.0"/>
    <path d="M 205.54345703125 121.7796630859375 C 202.46600341796875 120.61376953125 198.92202758789062 120.47686767578125 195.929931640625 121.84295654296875 C 192.93783569335938 123.20904541015625 190.62802124023438 126.19819641113281 190.49362182617188 129.49856567382812 C 190.40155029296875 131.8320770263672 191.3778076171875 134.1303253173828 192.879638671875 135.92135620117188 C 194.3814697265625 137.71241760253906 196.3736572265625 139.03683471679688 198.47573852539062 140.05979919433594 C 199.39077758789062 140.5044403076172 200.38278198242188 140.90460205078125 201.39105224609375 140.79055786132812 C 202.547119140625 140.66033935546875 203.51132202148438 139.8803253173828 204.3690185546875 139.08912658691406 C 206.79046630859375 136.85537719726562 208.9617919921875 134.1654510498047 209.72647094726562 130.9606170654297 C 210.49114990234375 127.75576782226562 209.52789306640625 123.97502136230469 206.78759765625 122.16043090820312 L 205.54345703125 121.7796630859375" stroke-width="0.6000000238418579" fill="rgb(159, 159, 159)" opacity="1.0"/>
    <path d="M 278.8482666015625 109.34974670410156 C 275.6396789550781 109.890625 272.0966491699219 110.63084411621094 270.18768310546875 113.25802612304688 C 268.3276062011719 115.81034851074219 268.625244140625 119.29177856445312 269.06243896484375 122.42098999023438 C 269.241943359375 123.69194030761719 269.449951171875 125.0186767578125 270.2088317871094 126.052978515625 C 271.4913024902344 127.80307006835938 273.9313659667969 128.20399475097656 276.09637451171875 128.12344360351562 C 278.1059265136719 128.04945373535156 280.0943908691406 127.68728637695312 282.0009765625 127.04806518554688 C 285.0971374511719 126.01123046875 288.2231750488281 123.84490966796875 288.7175598144531 120.61859130859375 C 288.98699951171875 118.87722778320312 288.4220886230469 117.08056640625 287.4949951171875 115.57887268066406 C 286.5679016113281 114.07717895507812 285.2917175292969 112.82563781738281 284.01422119140625 111.60804748535156 C 282.7367248535156 110.39045715332031 281.45538330078125 109.22140502929688 279.8302917480469 108.64956665039062 L 278.8482666015625 109.34974670410156" stroke-width="0.6000000238418579" fill="rgb(218, 166, 20)" opacity="1.0"/>
    <path d="M 240.48590087890625 120.28851318359375 C 235.84735107421875 122.521728515625 233.8974609375 128.09237670898438 236.13067626953125 132.73089599609375 C 236.3218994140625 133.1280975341797 236.54107666015625 133.51123046875 236.78652954101562 133.87742614746094 C 237.71942138671875 135.26866149902344 239.10589599609375 136.43605041503906 240.751220703125 136.74598693847656 C 242.14163208007812 137.00804138183594 243.57183837890625 136.64474487304688 244.8966064453125 136.15049743652344 C 248.44076538085938 134.82261657714844 251.56475830078125 132.56997680664062 253.94403076171875 129.6265869140625 C 254.5716552734375 128.84751892089844 255.1568603515625 127.99505615234375 255.37478637695312 127.01646423339844 C 255.74163818359375 125.37380981445312 254.99224853515625 123.64949035644531 253.87493896484375 122.38911437988281 C 252.21746826171875 120.51675415039062 249.76907348632812 119.43612670898438 247.27877807617188 119.2032470703125 C 244.78848266601562 118.97035217285156 242.2646484375 119.53492736816406 239.987060546875 120.56806945800781 L 240.48590087890625 120.28851318359375" stroke-width="0.6000000238418579" fill="rgb(143, 165, 67)" opacity="1.0"/>
    <path d="M 252.06439208984375 103.1124267578125 C 247.65155029296875 106.68374633789062 249.59844970703125 115.05361938476562 254.9920654296875 116.7037353515625 C 260.38568115234375 118.35379028320312 266.51947021484375 112.9515380859375 265.9751892089844 107.29904174804688 C 265.4309387207031 101.64654541015625 258.9836120605469 97.52374267578125 253.49652099609375 99.00639343261719 L 252.06439208984375 103.1124267578125" stroke-width="0.6000000238418579" fill="rgb(233, 92, 21)" opacity="1.0"/>
    <path d="M 346.63153076171875 94.26454162597656 C 343.7014465332031 94.55838012695312 340.23187255859375 95.2132568359375 339.0851745605469 97.93649291992188 C 338.6709899902344 99.0379638671875 338.60882568359375 100.2408447265625 338.9072570800781 101.379150390625 C 339.56988525390625 104.21548461914062 341.5661315917969 106.55471801757812 344.2630310058594 107.65504455566406 C 346.5531005859375 108.58256530761719 349.0917053222656 108.48269653320312 351.5425720214844 108.32925415039062 C 352.919189453125 108.24081420898438 354.37896728515625 108.10302734375 355.47137451171875 107.27316284179688 C 356.91839599609375 106.15505981445312 357.2858581542969 104.13510131835938 357.338623046875 102.30776977539062 C 357.41912841796875 99.633544921875 357.0662841796875 96.96391296386719 356.29376220703125 94.40242004394531 C 356.025146484375 93.51789855957031 355.6846923828125 92.61024475097656 355.0066833496094 91.98236083984375 C 354.3464050292969 91.43081665039062 353.5398864746094 91.08329772949219 352.6855163574219 90.98219299316406 C 350.10577392578125 90.57467651367188 347.47711181640625 91.31936645507812 345.4944152832031 93.01937866210938 L 346.63153076171875 94.26454162597656" stroke-width="0.6000000238418579" fill="rgb(70, 150, 179)" opacity="1.0"/>
    <path d="M 344.1174011230469 112.74273681640625 C 341.39935302734375 110.57415771484375 338.2955322265625 108.28457641601562 334.83612060546875 108.61244201660156 C 331.1201171875 108.96685791015625 328.3076171875 112.36764526367188 327.2906188964844 115.95919799804688 C 326.89788818359375 117.34378051757812 326.712646484375 118.84439086914062 327.1689758300781 120.20916748046875 C 327.543701171875 121.33123779296875 328.3175048828125 122.27020263671875 329.1229553222656 123.13626098632812 C 331.6596374511719 125.87043762207031 334.9374084472656 128.28123474121094 338.6647644042969 128.38754272460938 C 342.42144775390625 128.49208068847656 346.1154479980469 125.94863891601562 347.3385925292969 122.39163208007812 C 348.5617370605469 118.83460998535156 347.25567626953125 114.5499267578125 344.2359619140625 112.30302429199219 L 344.1174011230469 112.74273681640625" stroke-width="0.6000000238418579" fill="rgb(140, 28, 33)" opacity="1.0"/>
    <path d="M 362.0 102.0 C 361.3734130859375 102.47067260742188 360.7265930175781 102.96733093261719 360.35406494140625 103.657470703125 C 359.9815979003906 104.34759521484375 359.9642639160156 105.297607421875 360.5244445800781 105.84625244140625 C 361.21746826171875 106.52194213867188 362.4822082519531 106.23318481445312 363.0626220703125 105.4564208984375 C 363.6430358886719 104.67965698242188 363.6719055175781 103.6141357421875 363.46978759765625 102.66702270507812 C 363.43658447265625 102.36758422851562 363.2923278808594 102.09146118164062 363.0655212402344 101.89315795898438 C 362.8229675292969 101.7227783203125 362.39849853515625 101.80075073242188 362.33782958984375 102.09239196777344 L 362.0 102.0" stroke-width="0.6000000238418579" fill="rgb(159, 159, 159)" opacity="1.0"/>
    <path d="M 356.1585388183594 111.23544311523438 C 353.0159606933594 111.6885986328125 349.9601745605469 113.22834777832031 348.072265625 115.77914428710938 C 346.18438720703125 118.3299560546875 345.630615234375 121.93228149414062 347.05865478515625 124.78125 C 348.07086181640625 126.79421997070312 349.968505859375 128.27842712402344 352.0728759765625 129.08897399902344 C 354.17730712890625 129.8995361328125 356.47772216796875 130.08709716796875 358.7301330566406 129.9688720703125 C 359.7102966308594 129.91683959960938 360.7346496582031 129.79132080078125 361.5325927734375 129.22409057617188 C 362.4477233886719 128.57420349121094 362.8973693847656 127.46536254882812 363.2519226074219 126.39680480957031 C 364.2527770996094 123.38006591796875 364.8294372558594 120.09501647949219 363.97808837890625 117.03230285644531 C 363.126708984375 113.96957397460938 360.5476379394531 111.22775268554688 357.3866882324219 110.97579956054688 L 356.1585388183594 111.23544311523438" stroke-width="0.6000000238418579" fill="rgb(159, 159, 159)" opacity="1.0"/>
    <path d="M 368.27752685546875 104.55252075195312 C 365.1039733886719 104.96697998046875 361.5943603515625 105.56513977050781 359.62200927734375 108.07774353027344 C 357.7004699707031 110.5185546875 357.8658752441406 113.951416015625 358.18133544921875 117.04319763183594 C 358.31134033203125 118.29901123046875 358.46734619140625 119.61068725585938 359.17547607421875 120.65505981445312 C 360.37213134765625 122.422119140625 362.75592041015625 122.90531921386719 364.88690185546875 122.90521240234375 C 366.8648376464844 122.9058837890625 368.8326110839844 122.62254333496094 370.7300109863281 122.06385803222656 C 373.8111572265625 121.15782165527344 376.96295166015625 119.14263916015625 377.5667419433594 115.98947143554688 C 377.89520263671875 114.28765869140625 377.4055480957031 112.50103759765625 376.54913330078125 110.99111938476562 C 375.6927185058594 109.48121643066406 374.4840393066406 108.20440673828125 373.2727966308594 106.9609375 C 372.06158447265625 105.71748352050781 370.8448181152344 104.5216064453125 369.26837158203125 103.90016174316406 L 368.27752685546875 104.55252075195312" stroke-width="0.6000000238418579" fill="rgb(218, 166, 20)" opacity="1.0"/>
    <path d="M 428.6473388671875 166.6473388671875 C 423.6123046875 166.0618896484375 419.0560302734375 169.66891479492188 418.4705810546875 174.70391845703125 C 418.42041015625 175.13507080078125 418.40093994140625 175.5692138671875 418.4122314453125 176.00311279296875 C 418.45550537109375 177.65185546875 418.9940185546875 179.353271484375 420.199462890625 180.47772216796875 C 421.21807861328125 181.4281005859375 422.59918212890625 181.87921142578125 423.9615478515625 182.16583251953125 C 427.60931396484375 182.92803955078125 431.3946533203125 182.6995849609375 434.92425537109375 181.50430297851562 C 435.856689453125 181.186767578125 436.79254150390625 180.785888671875 437.4892578125 180.08660888671875 C 438.65966796875 178.913330078125 438.944580078125 177.08419799804688 438.678955078125 175.44720458984375 C 438.286376953125 173.0166015625 436.81878662109375 170.8280029296875 434.869873046875 169.32257080078125 C 432.9208984375 167.81710815429688 430.52398681640625 166.9573974609375 428.08514404296875 166.6171875 L 428.6473388671875 166.6473388671875" stroke-width="0.6000000238418579" fill="rgb(143, 165, 67)" opacity="1.0"/>
    <path d="M 134.71873474121094 409.3323974609375 C 129.35076904296875 411.26318359375 128.4322967529297 419.8494873046875 133.00543212890625 423.1978759765625 C 137.57858276367188 426.5462646484375 145.184814453125 423.4466552734375 146.5363311767578 417.9027099609375 C 147.88784790039062 412.358642578125 143.13194274902344 406.3154602050781 137.43475341796875 405.90911865234375 L 134.71873474121094 409.3323974609375" stroke-width="0.6000000238418579" fill="rgb(233, 92, 21)" opacity="1.0"/>
    <path d="M 428.1806640625 173.77130126953125 C 425.31890869140625 173.1455078125 421.8355712890625 172.69482421875 419.9111328125 174.91668701171875 C 419.1796875 175.8306884765625 418.74993896484375 176.94915771484375 418.68115234375 178.11773681640625 C 418.43304443359375 181.00460815429688 419.599609375 183.8326416015625 421.81085205078125 185.70504760742188 C 423.690673828125 187.28857421875 426.122314453125 187.97705078125 428.4876708984375 188.58779907226562 C 429.81689453125 188.9287109375 431.239990234375 189.24862670898438 432.529052734375 188.8006591796875 C 434.242431640625 188.18951416015625 435.21295166015625 186.3924560546875 435.826416015625 184.68048095703125 C 436.72735595703125 182.1761474609375 437.21697998046875 179.54248046875 437.2763671875 176.88165283203125 C 437.29510498046875 175.96224975585938 437.2530517578125 174.99884033203125 436.805419921875 174.1959228515625 C 436.35107421875 173.47064208984375 435.69549560546875 172.89321899414062 434.91864013671875 172.53408813476562 C 432.6044921875 171.35305786132812 429.88873291015625 171.24664306640625 427.4892578125 172.24295043945312 L 428.1806640625 173.77130126953125" stroke-width="0.6000000238418579" fill="rgb(70, 150, 179)" opacity="1.0"/>
    <path d="M 420.109619140625 163.6033935546875 C 417.49993896484375 161.49209594726562 414.5186767578125 159.26144409179688 411.1769714355469 159.55520629882812 C 407.5873718261719 159.8729248046875 404.8499450683594 163.13739013671875 403.84454345703125 166.59783935546875 C 403.45635986328125 167.931884765625 403.26763916015625 169.37930297851562 403.69921875 170.69979858398438 C 404.0535583496094 171.78546142578125 404.7944030761719 172.69699096679688 405.5662536621094 173.538330078125 C 407.9970703125 176.1944580078125 411.1454772949219 178.54330444335938 414.7430419921875 178.67041015625 C 418.368896484375 178.7960205078125 421.95159912109375 176.364990234375 423.15576171875 172.939208984375 C 424.35992431640625 169.51348876953125 423.12725830078125 165.36862182617188 420.2269287109375 163.17971801757812 L 420.109619140625 163.6033935546875" stroke-width="0.6000000238418579" fill="rgb(140, 28, 33)" opacity="1.0"/>
    <path d="M 147.0 115.0 C 146.37339782714844 115.47067260742188 145.72657775878906 115.96733093261719 145.3540802001953 116.657470703125 C 144.98158264160156 117.34759521484375 144.96426391601562 118.297607421875 145.5244598388672 118.84625244140625 C 146.21746826171875 119.52194213867188 147.4822235107422 119.23318481445312 148.0626220703125 118.4564208984375 C 148.64303588867188 117.67965698242188 148.67190551757812 116.6141357421875 148.4697723388672 115.66702270507812 C 148.43658447265625 115.36758422851562 148.29234313964844 115.09146118164062 148.06552124023438 114.89315795898438 C 147.82296752929688 114.7227783203125 147.3984832763672 114.80075073242188 147.3378448486328 115.09239196777344 L 147.0 115.0" stroke-width="0.6000000238418579" fill="rgb(159, 159, 159)" opacity="1.0"/>
    <path d="M 427.1590576171875 169.96615600585938 C 424.0728759765625 169.96746826171875 420.919921875 171.02618408203125 418.75079345703125 173.21917724609375 C 416.5816650390625 175.41217041015625 415.55059814453125 178.8013916015625 416.530517578125 181.73989868164062 C 417.22589111328125 183.81658935546875 418.8463134765625 185.50701904296875 420.75885009765625 186.57791137695312 C 422.67138671875 187.6488037109375 424.858642578125 188.1474609375 427.04205322265625 188.34527587890625 C 427.9923095703125 188.4307861328125 428.99517822265625 188.45169067382812 429.84130859375 188.01632690429688 C 430.8116455078125 187.51763916015625 431.39764404296875 186.51300048828125 431.88653564453125 185.53399658203125 C 433.2667236328125 182.77001953125 434.27587890625 179.68927001953125 433.88043212890625 176.6248779296875 C 433.4849853515625 173.56048583984375 431.3828125 170.56585693359375 428.3765869140625 169.88623046875 L 427.1590576171875 169.96615600585938" stroke-width="0.6000000238418579" fill="rgb(159, 159, 159)" opacity="1.0"/>
    <path d="M 420.0751953125 177.20111083984375 C 417.38818359375 175.35134887695312 414.3212890625 173.41162109375 411.1138000488281 173.97052001953125 C 407.9937438964844 174.5096435546875 405.7784729003906 177.22332763671875 403.9094543457031 179.7808837890625 C 403.1517333984375 180.82098388671875 402.3756103515625 181.921142578125 402.2000427246094 183.19522094726562 C 401.90185546875 185.34991455078125 403.37847900390625 187.34130859375 404.9930725097656 188.794189453125 C 406.4912109375 190.143310546875 408.1752624511719 191.270263671875 409.9937438964844 192.14065551757812 C 412.9459228515625 193.55499267578125 416.7078857421875 194.17718505859375 419.315185546875 192.19985961914062 C 420.724365234375 191.13442993164062 421.571533203125 189.44696044921875 421.9521484375 187.71905517578125 C 422.332763671875 185.99114990234375 422.28759765625 184.19967651367188 422.21771240234375 182.43173217773438 C 422.1478271484375 180.663818359375 422.0413818359375 178.9281005859375 421.2706298828125 177.3824462890625 L 420.0751953125 177.20111083984375" stroke-width="0.6000000238418579" fill="rgb(218, 166, 20)" opacity="1.0"/>
    <path d="M 438.930908203125 174.4608154296875 C 434.17266845703125 176.56341552734375 432.01983642578125 182.12521362304688 434.1224365234375 186.88345336914062 C 434.302490234375 187.2908935546875 434.51123046875 187.68505859375 434.74700927734375 188.06298828125 C 435.64337158203125 189.498779296875 437.005126953125 190.72348022460938 438.6566162109375 191.0906982421875 C 440.05224609375 191.40118408203125 441.5086669921875 191.08139038085938 442.86285400390625 190.6258544921875 C 446.48602294921875 189.40155029296875 449.71533203125 187.22946166992188 452.2152099609375 184.335205078125 C 452.874755859375 183.56903076171875 453.493896484375 182.72738647460938 453.7462158203125 181.74624633789062 C 454.1707763671875 180.09933471679688 453.4708251953125 178.33319091796875 452.3839111328125 177.0234375 C 450.7716064453125 175.077880859375 448.33447265625 173.90582275390625 445.8271484375 173.58856201171875 C 443.3197021484375 173.27130126953125 440.752197265625 173.75836181640625 438.41790771484375 174.72671508789062 L 438.930908203125 174.4608154296875" stroke-width="0.6000000238418579" fill="rgb(143, 165, 67)" opacity="1.0"/>
    <path d="M 141.79348754882812 111.38249206542969 C 133.0107421875 114.32394409179688 131.21163940429688 128.22853088378906 138.51470947265625 133.82789611816406 C 145.8177947998047 139.42723083496094 158.27569580078125 134.66891479492188 160.66854858398438 125.71821594238281 C 163.0614013671875 116.76751708984375 155.558349609375 106.78730773925781 146.32508850097656 105.92320251464844 L 141.79348754882812 111.38249206542969" stroke-width="0.6000000238418579" fill="rgb(233, 92, 21)" opacity="1.0"/>
    <path d="M 438.922119140625 152.5155029296875 C 434.677490234375 154.44322204589844 429.80712890625 157.1861572265625 429.4697265625 161.8516845703125 C 429.40765380859375 163.713623046875 429.9249267578125 165.54891967773438 430.9501953125 167.1043701171875 C 433.38330078125 171.02127075195312 437.56396484375 173.515869140625 442.16650390625 173.79708862304688 C 446.0712890625 174.025634765625 449.8272705078125 172.58749389648438 453.424560546875 171.113525390625 C 455.4439697265625 170.2822265625 457.56304931640625 169.334716796875 458.77996826171875 167.535888671875 C 460.38238525390625 165.12484741210938 459.908203125 161.90936279296875 459.05987548828125 159.1424560546875 C 457.8233642578125 155.09146118164062 455.9393310546875 151.26734924316406 453.48089599609375 147.81838989257812 C 452.629150390625 146.62835693359375 451.65802001953125 145.44007873535156 450.3226318359375 144.84266662597656 C 449.0526123046875 144.3507080078125 447.6668701171875 144.23892211914062 446.3343505859375 144.5209503173828 C 442.25909423828125 145.2191619873047 438.6953125 147.66995239257812 436.5849609375 151.22547912597656 L 438.922119140625 152.5155029296875" stroke-width="0.6000000238418579" fill="rgb(70, 150, 179)" opacity="1.0"/>
    <path d="M 378.9000244140625 92.20144653320312 C 374.8121337890625 89.02545166015625 370.147705078125 85.6767578125 365.0041809082031 86.23130798339844 C 359.479248046875 86.830322265625 355.3578186035156 91.94686889648438 353.912841796875 97.31295776367188 C 353.3548583984375 99.38165283203125 353.10791015625 101.61904907226562 353.8134460449219 103.64193725585938 C 354.392822265625 105.30509948730469 355.5628356933594 106.68801879882812 356.7784729003906 107.9617919921875 C 360.607177734375 111.98324584960938 365.5329284667969 115.509033203125 371.0836486816406 115.59567260742188 C 376.6780090332031 115.67910766601562 382.1281433105469 111.82186889648438 383.880615234375 106.50325012207031 C 385.63311767578125 101.18463134765625 383.60650634765625 94.83139038085938 379.0680847167969 91.54461669921875 L 378.9000244140625 92.20144653320312" stroke-width="0.6000000238418579" fill="rgb(140, 28, 33)" opacity="1.0"/>
    <path d="M 130.73460388183594 405.66851806640625 C 129.66412353515625 406.33990478515625 128.5576171875 407.05035400390625 127.86569213867188 408.1087646484375 C 127.17376708984375 409.16717529296875 127.01731872558594 410.69122314453125 127.84310913085938 411.6485900878906 C 128.86509704589844 412.8280029296875 130.93630981445312 412.5352783203125 131.97401428222656 411.3658447265625 C 133.01171875 410.1964111328125 133.2023468017578 408.48834228515625 133.0058135986328 406.939208984375 C 132.99301147460938 406.4535827636719 132.79864501953125 405.99041748046875 132.46104431152344 405.6410827636719 C 132.09439086914062 405.33453369140625 131.40182495117188 405.40234375 131.26490783691406 405.8627014160156 L 130.73460388183594 405.66851806640625" stroke-width="0.6000000238418579" fill="rgb(159, 159, 159)" opacity="1.0"/>
    <path d="M 419.20977783203125 197.39202880859375 C 414.73577880859375 195.23004150390625 409.423583984375 194.55380249023438 404.7419738769531 196.21139526367188 C 400.0603332519531 197.86898803710938 396.18951416015625 202.058349609375 395.54937744140625 207.00448608398438 C 395.1011962890625 210.50201416015625 396.2645568847656 214.08831787109375 398.28570556640625 216.98147583007812 C 400.3068542480469 219.8746337890625 403.12750244140625 222.13104248046875 406.15338134765625 223.94863891601562 C 407.4706726074219 224.73883056640625 408.90960693359375 225.47235107421875 410.4412841796875 225.43463134765625 C 412.19732666015625 225.3922119140625 413.7510986328125 224.34698486328125 415.1461181640625 223.27081298828125 C 419.0845947265625 220.23245239257812 422.7073974609375 216.47479248046875 424.2828369140625 211.7559814453125 C 425.8582763671875 207.03713989257812 424.9112548828125 201.22280883789062 421.030517578125 198.1298828125 L 419.20977783203125 197.39202880859375" stroke-width="0.6000000238418579" fill="rgb(159, 159, 159)" opacity="1.0"/>
    <path d="M 385.398681640625 108.55928039550781 C 380.2748718261719 108.52835083007812 374.5781555175781 108.71591186523438 370.9046630859375 112.27362060546875 C 367.3272705078125 115.72845458984375 366.84503173828125 121.20956420898438 366.6748046875 126.18215942382812 C 366.6086120605469 128.20233154296875 366.5715637207031 130.3167724609375 367.4682922363281 132.126953125 C 368.983154296875 135.18942260742188 372.6595153808594 136.47293090820312 376.03973388671875 136.9349822998047 C 379.1769714355469 137.3650665283203 382.3597106933594 137.34243774414062 385.49053955078125 136.8677978515625 C 390.5744323730469 136.0989532470703 396.01092529296875 133.5861053466797 397.652587890625 128.7154998779297 C 398.542724609375 126.08732604980469 398.1535339355469 123.14715576171875 397.1225891113281 120.56637573242188 C 396.0916442871094 117.98558044433594 394.45135498046875 115.69815063476562 392.7998352050781 113.46304321289062 C 391.1483154296875 111.22793579101562 389.4776306152344 109.06709289550781 387.1118469238281 107.73944091796875 L 385.398681640625 108.55928039550781" stroke-width="0.6000000238418579" fill="rgb(218, 166, 20)" opacity="1.0"/>
    <path d="M 396.8799743652344 92.41708374023438 C 390.242431640625 88.041748046875 381.3147277832031 89.87564086914062 376.93939208984375 96.51318359375 C 376.5647277832031 97.08154296875 376.2308654785156 97.67578125 375.9402770996094 98.29141235351562 C 374.83660888671875 100.630859375 374.3892517089844 103.39373779296875 375.2833251953125 105.81967163085938 C 376.0387268066406 107.86984252929688 377.654296875 109.47686767578125 379.3597412109375 110.84028625488281 C 383.9298095703125 114.48348999023438 389.3920593261719 116.83657836914062 395.17901611328125 117.65510559082031 C 396.7090148925781 117.868896484375 398.3026428222656 117.96832275390625 399.77215576171875 117.48104858398438 C 402.23968505859375 116.66448974609375 403.93023681640625 114.30410766601562 404.7142639160156 111.82412719726562 C 405.8808288574219 108.14306640625 405.37109375 104.0418701171875 403.7048645019531 100.55740356445312 C 402.03863525390625 97.07295227050781 399.2890930175781 94.17642211914062 396.1139831542969 91.97781372070312 L 396.8799743652344 92.41708374023438" stroke-width="0.6000000238418579" fill="rgb(143, 165, 67)" opacity="1.0"/>
    <path d="M 123.32791137695312 414.6953125 C 115.12278747558594 410.5771484375 104.09150695800781 419.0291748046875 105.25897216796875 428.07568359375 C 106.42648315429688 437.1221923828125 118.47703552246094 442.55413818359375 126.44094848632812 437.9813232421875 C 134.40484619140625 433.408447265625 136.17710876464844 421.1600341796875 130.3321990966797 414.0657958984375 L 123.32791137695312 414.6953125" stroke-width="0.6000000238418579" fill="rgb(233, 92, 21)" opacity="1.0"/>
    <path d="M 435.885986328125 199.34051513671875 C 431.6265869140625 201.271240234375 426.73876953125 204.01934814453125 426.3968505859375 208.699462890625 C 426.33331298828125 210.56723022460938 426.85089111328125 212.40872192382812 427.8782958984375 213.9698486328125 C 430.3162841796875 217.90093994140625 434.5084228515625 220.40646362304688 439.12530517578125 220.69189453125 C 443.0423583984375 220.92401123046875 446.811279296875 219.4840087890625 450.4210205078125 218.00796508789062 C 452.44744873046875 217.175537109375 454.57391357421875 216.2265625 455.7960205078125 214.4228515625 C 457.40521240234375 212.00537109375 456.931884765625 208.77935791015625 456.0828857421875 206.00302124023438 C 454.8453369140625 201.93832397460938 452.9581298828125 198.1007080078125 450.494384765625 194.6390380859375 C 449.64080810546875 193.44464111328125 448.66748046875 192.25186157226562 447.3282470703125 191.651611328125 C 446.0545654296875 191.15716552734375 444.66448974609375 191.04400634765625 443.3275146484375 191.32595825195312 C 439.2388916015625 192.0234375 435.6619873046875 194.47943115234375 433.54241943359375 198.044677734375 L 435.885986328125 199.34051513671875" stroke-width="0.6000000238418579" fill="rgb(70, 150, 179)" opacity="1.0"/>
    <path d="M 421.18524169921875 139.26988220214844 C 417.161376953125 135.86422729492188 412.558349609375 132.25827026367188 407.3013916015625 132.6032257080078 C 401.6545104980469 132.97718811035156 397.2430725097656 138.00733947753906 395.5441589355469 143.40545654296875 C 394.88824462890625 145.48646545410156 394.5415954589844 147.7523956298828 395.1732482910156 149.84066772460938 C 395.69183349609375 151.55752563476562 396.82330322265625 153.01446533203125 398.005859375 154.36227416992188 C 401.7299499511719 158.61712646484375 406.59136962890625 162.41439819335938 412.2352294921875 162.7391357421875 C 417.9237060546875 163.0625 423.63330078125 159.37030029296875 425.64312744140625 154.0335693359375 C 427.65289306640625 148.69683837890625 425.86175537109375 142.14634704589844 421.38421630859375 138.60874938964844 L 421.18524169921875 139.26988220214844" stroke-width="0.6000000238418579" fill="rgb(140, 28, 33)" opacity="1.0"/>
    <path d="M 404.46240234375 92.18699645996094 C 404.0001220703125 93.38818359375 403.5323181152344 94.64315795898438 403.6150207519531 95.92849731445312 C 403.69769287109375 97.21382141113281 404.5012512207031 98.55152893066406 405.7591552734375 98.8272705078125 C 407.3126525878906 99.1641845703125 408.8218688964844 97.6602783203125 408.9531555175781 96.07321166992188 C 409.0844421386719 94.48614501953125 408.1963195800781 92.97756958007812 407.0897521972656 91.83511352539062 C 406.78265380859375 91.44712829589844 406.3412780761719 91.18838500976562 405.85272216796875 91.10992431640625 C 405.3666076660156 91.08407592773438 404.8435974121094 91.56243896484375 405.01324462890625 92.02128601074219 L 404.46240234375 92.18699645996094" stroke-width="0.6000000238418579" fill="rgb(159, 159, 159)" opacity="1.0"/>
    <path d="M 434.1622314453125 225.3056640625 C 430.0830078125 228.21392822265625 426.9112548828125 232.58319091796875 426.1085205078125 237.52566528320312 C 425.30584716796875 242.4681396484375 427.134521484375 247.92037963867188 431.197509765625 250.88284301757812 C 434.0728759765625 252.97369384765625 437.807373046875 253.68270874023438 441.3447265625 253.29742431640625 C 444.88201904296875 252.91217041015625 448.24371337890625 251.51150512695312 451.31689453125 249.71673583984375 C 452.65374755859375 248.93490600585938 453.99951171875 248.01806640625 454.708251953125 246.6455078125 C 455.5216064453125 245.07229614257812 455.3502197265625 243.19210815429688 455.0745849609375 241.43722534179688 C 454.29638671875 236.48284912109375 452.72930908203125 231.458984375 449.3204345703125 227.77972412109375 C 445.9114990234375 224.10040283203125 440.311767578125 222.12063598632812 435.69677734375 224.0533447265625 L 434.1622314453125 225.3056640625" stroke-width="0.6000000238418579" fill="rgb(159, 159, 159)" opacity="1.0"/>
    <path d="M 416.145263671875 255.32525634765625 C 411.6845703125 252.609130859375 406.608642578125 249.78326416015625 401.53173828125 250.9638671875 C 396.59283447265625 252.10504150390625 393.2948913574219 256.6410827636719 390.5364074707031 260.89654541015625 C 389.4183654785156 262.6269226074219 388.27630615234375 264.4549865722656 388.10980224609375 266.50726318359375 C 387.8261413574219 269.9781188964844 390.36474609375 273.02899169921875 393.0757141113281 275.20672607421875 C 395.5911865234375 277.22900390625 398.38397216796875 278.8796081542969 401.36865234375 280.1080017089844 C 406.21417236328125 282.1043701171875 412.2830810546875 282.761962890625 416.273681640625 279.3678283691406 C 418.4307861328125 277.53863525390625 419.6337890625 274.7654113769531 420.08746337890625 271.9693908691406 C 420.5411376953125 269.1733703613281 420.30841064453125 266.3138427734375 420.0384521484375 263.4941711425781 C 419.7684326171875 260.67449951171875 419.4427490234375 257.90966796875 418.0723876953125 255.50799560546875 L 416.145263671875 255.32525634765625" stroke-width="0.6000000238418579" fill="rgb(218, 166, 20)" opacity="1.0"/>
    <path d="M 413.8408203125 94.09315490722656 C 406.6707763671875 97.6351318359375 403.7296447753906 106.31895446777344 407.2716064453125 113.489013671875 C 407.5749206542969 114.10299682617188 407.92138671875 114.69467163085938 408.30841064453125 115.25962829589844 C 409.77947998046875 117.40602111816406 411.95147705078125 119.19754028320312 414.51214599609375 119.653076171875 C 416.676025390625 120.03823852539062 418.8919677734375 119.45140075683594 420.94189453125 118.66281127929688 C 426.4263916015625 116.54434204101562 431.2435302734375 112.99604797363281 434.89300537109375 108.38650512695312 C 435.8555908203125 107.16644287109375 436.751220703125 105.83306884765625 437.0743408203125 104.30953979492188 C 437.6182861328125 101.75216674804688 436.4271240234375 99.08551025390625 434.6717529296875 97.14529418945312 C 432.067626953125 94.26300048828125 428.2474365234375 92.62295532226562 424.37548828125 92.3004150390625 C 420.5035400390625 91.97784423828125 416.59197998046875 92.89457702636719 413.0704345703125 94.53524780273438 L 413.8408203125 94.09315490722656" stroke-width="0.6000000238418579" fill="rgb(143, 165, 67)" opacity="1.0"/>
    <path d="M 434.738037109375 125.015380859375 C 427.58935546875 130.40420532226562 430.2032470703125 143.7010498046875 438.614013671875 146.59457397460938 C 447.02490234375 149.48806762695312 456.9852294921875 141.30709838867188 456.4344482421875 132.36907958984375 C 455.8836669921875 123.43106079101562 445.94647216796875 116.58326721191406 437.2181396484375 118.62196350097656 L 434.738037109375 125.015380859375" stroke-width="0.6000000238418579" fill="rgb(233, 92, 21)" opacity="1.0"/>
    <path d="M 432.8936767578125 104.65608215332031 C 428.6588134765625 106.55729675292969 423.7972412109375 109.26754760742188 423.44110107421875 113.911865234375 C 423.37127685546875 115.76560974121094 423.87841796875 117.59536743164062 424.892578125 119.14865112304688 C 427.2984619140625 123.05943298339844 431.45068359375 125.56149291992188 436.032470703125 125.86140441894531 C 439.919677734375 126.10585021972656 443.666015625 124.69000244140625 447.25439453125 123.23780822753906 C 449.268798828125 122.41879272460938 451.3829345703125 121.48445129394531 452.6025390625 119.698486328125 C 454.20849609375 117.30459594726562 453.750244140625 114.1007080078125 452.91748046875 111.34185791015625 C 451.7037353515625 107.302734375 449.84417724609375 103.4866943359375 447.4110107421875 100.04176330566406 C 446.56805419921875 98.85310363769531 445.606201171875 97.66566467285156 444.279052734375 97.06503295898438 C 443.0164794921875 96.56967163085938 441.6370849609375 96.45237731933594 440.30902099609375 96.72744750976562 C 436.248046875 97.40510559082031 432.68878173828125 99.83010864257812 430.57208251953125 103.36143493652344 L 432.8936767578125 104.65608215332031" stroke-width="0.6000000238418579" fill="rgb(70, 150, 179)" opacity="1.0"/>
    <path d="M 312.0 391.0 C 306.86602783203125 390.4162902832031 301.15087890625 389.9848937988281 297.05487060546875 393.12921142578125 C 292.6568298339844 396.50958251953125 291.8016052246094 403.0114440917969 293.3572692871094 408.33575439453125 C 293.9562072753906 410.38885498046875 294.9078674316406 412.4241943359375 296.55999755859375 413.7818603515625 C 297.9176940917969 414.8985595703125 299.6332702636719 415.46954345703125 301.3310546875 415.923828125 C 306.68328857421875 417.36279296875 312.713134765625 417.80938720703125 317.4892883300781 415.00006103515625 C 322.30096435546875 412.165283203125 324.9428405761719 406.0466613769531 323.6739196777344 400.6030578613281 C 322.405029296875 395.15948486328125 317.37762451171875 390.7969665527344 311.80206298828125 390.35284423828125 L 312.0 391.0" stroke-width="0.6000000238418579" fill="rgb(140, 28, 33)" opacity="1.0"/>
    <path d="M 311.0 391.0 C 309.65399169921875 392.01104736328125 308.2645263671875 393.07794189453125 307.46435546875 394.5604248046875 C 306.6642150878906 396.04290771484375 306.6269836425781 398.0836486816406 307.8303527832031 399.26220703125 C 309.3190002441406 400.7136535644531 312.0358581542969 400.0933837890625 313.28265380859375 398.4248046875 C 314.5294189453125 396.7562255859375 314.5914306640625 394.4673767089844 314.1572570800781 392.432861328125 C 314.0859375 391.7895812988281 313.7760925292969 391.1964416503906 313.2888488769531 390.7704772949219 C 312.767822265625 390.4045104980469 311.8559875488281 390.5719909667969 311.7257385253906 391.198486328125 L 311.0 391.0" stroke-width="0.6000000238418579" fill="rgb(159, 159, 159)" opacity="1.0"/>
    <path d="M 321.9637451171875 395.1478576660156 C 315.6625671386719 395.866943359375 309.4704895019531 398.7605895996094 305.55047607421875 403.7419128417969 C 301.6304626464844 408.7232360839844 300.31195068359375 415.8828125 302.9948425292969 421.6553955078125 C 304.8968505859375 425.7342529296875 308.597900390625 428.8096923828125 312.7516174316406 430.5523681640625 C 316.9053039550781 432.29498291015625 321.48724365234375 432.805419921875 325.9913024902344 432.70245361328125 C 327.9513244628906 432.656494140625 330.00396728515625 432.46636962890625 331.630615234375 431.3809814453125 C 333.4961242675781 430.13751220703125 334.45941162109375 427.9501953125 335.23040771484375 425.83770751953125 C 337.40692138671875 419.8736572265625 338.75238037109375 413.34893798828125 337.2335205078125 407.1837158203125 C 335.71466064453125 401.0184631347656 330.7273254394531 395.3918151855469 324.4311828613281 394.7019958496094 L 321.9637451171875 395.1478576660156" stroke-width="0.6000000238418579" fill="rgb(159, 159, 159)" opacity="1.0"/>
    <path d="M 269.0311279296875 398.0564270019531 C 262.7776794433594 400.1097412109375 255.9156494140625 402.6629943847656 252.8931884765625 408.4953918457031 C 249.94580078125 414.163330078125 251.59524536132812 421.0361328125 253.41717529296875 427.1622314453125 C 254.16094970703125 429.6497802734375 254.978759765625 432.24029541015625 256.8096923828125 434.0791015625 C 259.904541015625 437.1910400390625 264.9061584472656 437.2540283203125 269.2118225097656 436.4373779296875 C 273.20849609375 435.68096923828125 277.07586669921875 434.35455322265625 280.6955261230469 432.498779296875 C 286.57391357421875 429.48760986328125 292.17010498046875 424.2083740234375 292.1820068359375 417.60601806640625 C 292.1936340332031 414.0416259765625 290.519775390625 410.61932373046875 288.21087646484375 407.8966369628906 C 285.9019775390625 405.1739501953125 282.9706115722656 403.0572509765625 280.0469055175781 401.00885009765625 C 277.12322998046875 398.9604797363281 274.2065124511719 397.0103454589844 270.783203125 396.3587341308594 L 269.0311279296875 398.0564270019531" stroke-width="0.6000000238418579" fill="rgb(218, 166, 20)" opacity="1.0"/>
    <path d="M 229.02352905273438 401.149169921875 C 218.7271728515625 399.1110534667969 208.7281494140625 405.8056945800781 206.69003295898438 416.10205078125 C 206.5155029296875 416.98370361328125 206.40374755859375 417.87664794921875 206.3555908203125 418.774169921875 C 206.17324829101562 422.1844482421875 207.00436401367188 425.78515625 209.30731201171875 428.3048095703125 C 211.25326538085938 430.43426513671875 214.02975463867188 431.593017578125 216.79461669921875 432.4090576171875 C 224.19842529296875 434.5833740234375 232.04937744140625 434.735595703125 239.53192138671875 432.849853515625 C 241.5089111328125 432.34814453125 243.50665283203125 431.6748046875 245.06002807617188 430.34619140625 C 247.669189453125 428.1173095703125 248.55853271484375 424.388671875 248.28005981445312 420.9659423828125 C 247.87014770507812 415.8841552734375 245.2015380859375 411.1248779296875 241.42669677734375 407.69635009765625 C 237.65191650390625 404.267822265625 232.84603881835938 402.0982971191406 227.8680419921875 400.9942321777344 L 229.02352905273438 401.149169921875" stroke-width="0.6000000238418579" fill="rgb(143, 165, 67)" opacity="1.0"/>
    <path d="M 289.59661865234375 383.0309753417969 C 280.7464599609375 390.2901916503906 284.7828369140625 407.140380859375 295.6796875 410.39599609375 C 306.5765686035156 413.65155029296875 318.8724060058594 402.6778259277344 317.70013427734375 391.2880554199219 C 316.5278625488281 379.8982849121094 303.4736633300781 371.6709899902344 292.4297790527344 374.7331237792969 L 289.59661865234375 383.0309753417969" stroke-width="0.6000000238418579" fill="rgb(233, 92, 21)" opacity="1.0"/>
    <path d="M 334.8540344238281 381.0726013183594 C 329.41741943359375 383.5668029785156 323.18194580078125 387.1100158691406 322.7718811035156 393.09783935546875 C 322.7014465332031 395.4870910644531 323.3741149902344 397.8393249511719 324.69720458984375 399.8300476074219 C 327.8382568359375 404.84368896484375 333.2145690917969 408.02386474609375 339.1212158203125 408.36212158203125 C 344.1324157714844 408.6361999511719 348.94451904296875 406.7725524902344 353.55279541015625 404.86370849609375 C 356.1397399902344 403.7872314453125 358.85394287109375 402.5611267089844 360.406494140625 400.2471008300781 C 362.4506530761719 397.1457824707031 361.82647705078125 393.0224609375 360.72442626953125 389.47650146484375 C 359.1180725097656 384.2849426269531 356.6820068359375 379.38763427734375 353.5107421875 374.9745178222656 C 352.4120788574219 373.4518127441406 351.16021728515625 371.93194580078125 349.4439392089844 371.1719970703125 C 347.8119812011719 370.5470275878906 346.0334167480469 370.410400390625 344.32513427734375 370.7787780761719 C 339.09979248046875 371.69464111328125 334.53924560546875 374.8565979003906 331.84906005859375 379.42889404296875 L 334.8540344238281 381.0726013183594" stroke-width="0.6000000238418579" fill="rgb(70, 150, 179)" opacity="1.0"/>
    <path d="M 300.0509948730469 397.6310119628906 C 293.4315185546875 399.0458984375 286.15374755859375 400.8921203613281 282.377197265625 406.5044860839844 C 278.3239440917969 412.53582763671875 279.97174072265625 420.96734619140625 284.1229553222656 426.9315185546875 C 285.7225036621094 429.23175048828125 287.7527770996094 431.3629150390625 290.3705139160156 432.36053466796875 C 292.52215576171875 433.18145751953125 294.89080810546875 433.17559814453125 297.188720703125 433.0321044921875 C 304.4357604980469 432.58843994140625 312.1107177734375 430.6300048828125 316.87158203125 425.150146484375 C 321.6659851074219 419.62408447265625 322.3968505859375 410.923828125 318.55206298828125 404.6919860839844 C 314.707275390625 398.46014404296875 306.6451721191406 395.1374816894531 299.5354309082031 396.9097900390625 L 300.0509948730469 397.6310119628906" stroke-width="0.6000000238418579" fill="rgb(140, 28, 33)" opacity="1.0"/>
    <path d="M 338.0 390.0 C 336.65399169921875 391.01104736328125 335.2645263671875 392.07794189453125 334.46435546875 393.5604248046875 C 333.6642150878906 395.04290771484375 333.6269836425781 397.0836486816406 334.8303527832031 398.26220703125 C 336.3190002441406 399.7136535644531 339.0358581542969 399.0933837890625 340.28265380859375 397.4248046875 C 341.5294189453125 395.7562255859375 341.5914306640625 393.4673767089844 341.1572570800781 391.432861328125 C 341.0859375 390.7895812988281 340.7760925292969 390.1964416503906 340.2888488769531 389.7704772949219 C 339.767822265625 389.4045104980469 338.8559875488281 389.5719909667969 338.7257385253906 390.198486328125 L 338.0 390.0" stroke-width="0.6000000238418579" fill="rgb(159, 159, 159)" opacity="1.0"/>
    <path d="M 348.5413818359375 392.1074523925781 C 342.2420959472656 392.7390441894531 336.0220031738281 395.54266357421875 332.04119873046875 400.46112060546875 C 328.0603942871094 405.3795471191406 326.64642333984375 412.5078125 329.24542236328125 418.3062744140625 C 331.088134765625 422.40350341796875 334.740234375 425.52386474609375 338.86236572265625 427.320068359375 C 342.9845275878906 429.1162109375 347.5509033203125 429.6883544921875 352.0480041503906 429.6470947265625 C 354.0050048828125 429.6280517578125 356.0564270019531 429.46636962890625 357.69488525390625 428.4052734375 C 359.57391357421875 427.1895751953125 360.5653381347656 425.01953125 361.3637390136719 422.9215087890625 C 363.6177673339844 416.99835205078125 365.0498962402344 410.504150390625 363.6181640625 404.32965087890625 C 362.1864013671875 398.1551208496094 357.2853088378906 392.47076416015625 351.01031494140625 391.6961669921875 L 348.5413818359375 392.1074523925781" stroke-width="0.6000000238418579" fill="rgb(159, 159, 159)" opacity="1.0"/>
    <path d="M 266.9327087402344 386.0840148925781 C 261.4524230957031 382.6087951660156 255.21026611328125 378.9833068847656 248.8763427734375 380.335205078125 C 242.7147216796875 381.6412658691406 238.51495361328125 387.20196533203125 234.99176025390625 392.42633056640625 C 233.5635986328125 394.5507507324219 232.10342407226562 396.7960205078125 231.85015869140625 399.34185791015625 C 231.41928100585938 403.6474304199219 234.50408935546875 407.4951171875 237.82281494140625 410.26190185546875 C 240.90213012695312 412.8311767578125 244.33441162109375 414.9449462890625 248.01458740234375 416.53857421875 C 253.9892578125 419.1282958984375 261.51409912109375 420.08245849609375 266.5485534667969 415.9560546875 C 269.2697448730469 413.7322998046875 270.8270263671875 410.31427001953125 271.453857421875 406.85089111328125 C 272.0806884765625 403.3875427246094 271.85626220703125 399.8298034667969 271.5845947265625 396.3206787109375 C 271.3129577636719 392.8115539550781 270.9708557128906 389.36932373046875 269.32275390625 386.3546447753906 L 266.9327087402344 386.0840148925781" stroke-width="0.6000000238418579" fill="rgb(218, 166, 20)" opacity="1.0"/>
    <path d="M 267.0 393.0 C 256.73309326171875 392.0501403808594 247.64013671875 399.6031188964844 246.69027709960938 409.8700256347656 C 246.60894775390625 410.7491760253906 246.590087890625 411.63299560546875 246.63381958007812 412.51483154296875 C 246.80062866210938 415.8656005859375 247.97698974609375 419.2996826171875 250.48211669921875 421.52874755859375 C 252.5989990234375 423.41259765625 255.42913818359375 424.26397705078125 258.2132873535156 424.78167724609375 C 265.6676330566406 426.1572265625 273.35430908203125 425.51171875 280.474853515625 422.9122314453125 C 282.3558654785156 422.221923828125 284.2397766113281 421.3619384765625 285.6231994628906 419.9066162109375 C 287.9471435546875 417.4647216796875 288.43896484375 413.7314453125 287.8205871582031 410.41522216796875 C 286.9059753417969 405.4912109375 283.81695556640625 401.1108093261719 279.78167724609375 398.1426086425781 C 275.7464294433594 395.1744079589844 270.8310546875 393.54071044921875 265.85528564453125 392.9654846191406 L 267.0 393.0" stroke-width="0.6000000238418579" fill="rgb(143, 165, 67)" opacity="1.0"/>
    <path d="M 217.2626953125 385.02685546875 C 207.95806884765625 391.73736572265625 210.94677734375 408.84381103515625 221.64422607421875 412.7786865234375 C 232.3416748046875 416.7135009765625 245.32427978515625 406.50189208984375 244.86062622070312 395.0357666015625 C 244.39697265625 383.5696105957031 231.85101318359375 374.52728271484375 220.61322021484375 376.9028625488281 L 217.2626953125 385.02685546875" stroke-width="0.6000000238418579" fill="rgb(233, 92, 21)" opacity="1.0"/>
    <path d="M 263.87451171875 384.0372619628906 C 258.35223388671875 386.33111572265625 251.99365234375 389.6439514160156 251.365966796875 395.61114501953125 C 251.2086181640625 397.99554443359375 251.79498291015625 400.37005615234375 253.04434204101562 402.4070739746094 C 255.9998779296875 407.53033447265625 261.2552490234375 410.90325927734375 267.14398193359375 411.45623779296875 C 272.14044189453125 411.91253662109375 277.0158386230469 410.2258605957031 281.6892395019531 408.4866027832031 C 284.3128967285156 407.50537109375 287.0691833496094 406.3792724609375 288.70452880859375 404.12396240234375 C 290.8596496582031 401.1000061035156 290.38623046875 396.9578857421875 289.4143371582031 393.37518310546875 C 287.99853515625 388.13006591796875 285.74310302734375 383.1487121582031 282.73553466796875 378.6242980957031 C 281.693359375 377.06304931640625 280.4980163574219 375.4990234375 278.81103515625 374.67730712890625 C 277.2033996582031 373.9934997558594 275.4314880371094 373.792236328125 273.71142578125 374.09808349609375 C 268.45770263671875 374.8227844238281 263.786376953125 377.8157043457031 260.9322509765625 382.28570556640625 L 263.87451171875 384.0372619628906" stroke-width="0.6000000238418579" fill="rgb(70, 150, 179)" opacity="1.0"/>
    <path d="M 336.7371826171875 380.2943420410156 C 331.57696533203125 375.99176025390625 325.6766052246094 371.4393310546875 318.9801025390625 371.9283752441406 C 311.786865234375 372.4580078125 306.2118835449219 378.91021728515625 304.097412109375 385.8058776855469 C 303.281005859375 388.4642028808594 302.86053466796875 391.3553161621094 303.68511962890625 394.01080322265625 C 304.3621826171875 396.1940002441406 305.81787109375 398.0401916503906 307.3376770019531 399.746826171875 C 312.1239013671875 405.13446044921875 318.3552551269531 409.92828369140625 325.5512390136719 410.2891540527344 C 332.803955078125 410.6478271484375 340.0460205078125 405.8885803222656 342.5572814941406 399.0682373046875 C 345.0685119628906 392.2478942871094 342.7242431640625 383.9163513183594 336.98455810546875 379.44989013671875 L 336.7371826171875 380.2943420410156" stroke-width="0.6000000238418579" fill="rgb(140, 28, 33)" opacity="1.0"/>
    <path d="M 353.0 389.0 C 351.65399169921875 390.01104736328125 350.2645263671875 391.07794189453125 349.46435546875 392.5604248046875 C 348.6642150878906 394.04290771484375 348.6269836425781 396.0836486816406 349.8303527832031 397.26220703125 C 351.3190002441406 398.7136535644531 354.0358581542969 398.0933837890625 355.28265380859375 396.4248046875 C 356.5294189453125 394.7562255859375 356.5914306640625 392.4673767089844 356.1572570800781 390.432861328125 C 356.0859375 389.7895812988281 355.7760925292969 389.1964416503906 355.2888488769531 388.7704772949219 C 354.767822265625 388.4045104980469 353.8559875488281 388.5719909667969 353.7257385253906 389.198486328125 L 353.0 389.0" stroke-width="0.6000000238418579" fill="rgb(159, 159, 159)" opacity="1.0"/>
    <path d="M 190.92877197265625 396.2464904785156 C 184.57244873046875 397.2928161621094 178.4361572265625 400.5397033691406 174.70977783203125 405.790283203125 C 170.9833984375 411.0408630371094 170.0057373046875 418.3704833984375 173.01776123046875 424.091796875 C 175.15240478515625 428.13409423828125 179.06170654296875 431.06805419921875 183.36322021484375 432.6270751953125 C 187.66473388671875 434.1861572265625 192.33868408203125 434.4736328125 196.90283203125 434.1427001953125 C 198.88894653320312 433.99755859375 200.96176147460938 433.70147705078125 202.55743408203125 432.51861572265625 C 204.38742065429688 431.163330078125 205.25469970703125 428.8958740234375 205.9306640625 426.7139892578125 C 207.8388671875 420.55413818359375 208.875732421875 413.8671875 207.02490234375 407.6889953613281 C 205.174072265625 401.51080322265625 199.83160400390625 396.0533752441406 193.4095458984375 395.6701354980469 L 190.92877197265625 396.2464904785156" stroke-width="0.6000000238418579" fill="rgb(159, 159, 159)" opacity="1.0"/>
    <path d="M 360.7657775878906 380.323486328125 C 354.3189392089844 381.0416259765625 347.18408203125 382.1191711425781 343.0909423828125 387.13507080078125 C 339.103515625 392.0074768066406 339.3070068359375 398.97021484375 339.8276672363281 405.2475280761719 C 340.04290771484375 407.7972717285156 340.30877685546875 410.4612731933594 341.70367431640625 412.604736328125 C 344.0608215332031 416.2314453125 348.872802734375 417.302001953125 353.19110107421875 417.383544921875 C 357.19915771484375 417.4608154296875 361.1975402832031 416.96209716796875 365.0638732910156 415.9027099609375 C 371.3423156738281 414.1849365234375 377.80645751953125 410.22222900390625 379.1509094238281 403.85577392578125 C 379.88177490234375 400.4197998046875 378.95806884765625 396.78057861328125 377.280517578125 393.6880187988281 C 375.60296630859375 390.595458984375 373.20263671875 387.9617919921875 370.7958984375 385.39556884765625 C 368.3891906738281 382.8293151855469 365.9693298339844 380.35931396484375 362.79864501953125 379.03955078125 L 360.7657775878906 380.323486328125" stroke-width="0.6000000238418579" fill="rgb(218, 166, 20)" opacity="1.0"/>
    <path d="M 364.6476135253906 389.3526306152344 C 354.3611755371094 388.6443786621094 345.4482421875 396.4090576171875 344.739990234375 406.6954650878906 C 344.6793518066406 407.5762939453125 344.6812744140625 408.4603271484375 344.7457275390625 409.34088134765625 C 344.99127197265625 412.686767578125 346.248046875 416.09234619140625 348.8049011230469 418.2618408203125 C 350.9654541015625 420.095458984375 353.8148498535156 420.88006591796875 356.61041259765625 421.33221435546875 C 364.09503173828125 422.5321044921875 371.76446533203125 421.7060546875 378.82196044921875 418.93994140625 C 380.68621826171875 418.20556640625 382.54937744140625 417.301513671875 383.8982238769531 415.8140869140625 C 386.1641540527344 413.3182373046875 386.5680847167969 409.5744323730469 385.8719177246094 406.273681640625 C 384.841796875 401.37249755859375 381.6506652832031 397.0658874511719 377.54669189453125 394.193359375 C 373.4427490234375 391.3208312988281 368.4903259277344 389.8031311035156 363.50238037109375 389.3450622558594 L 364.6476135253906 389.3526306152344" stroke-width="0.6000000238418579" fill="rgb(143, 165, 67)" opacity="1.0"/>
    <path d="M 362.8599853515625 381.51580810546875 C 353.82623291015625 388.53326416015625 357.4120178222656 405.4737243652344 368.2117919921875 409.014892578125 C 379.01153564453125 412.5560302734375 391.5860290527344 401.9190673828125 390.7167663574219 390.509521484375 C 389.8475036621094 379.1000061035156 377.02435302734375 370.53485107421875 365.9102478027344 373.30126953125 L 362.8599853515625 381.51580810546875" stroke-width="0.6000000238418579" fill="rgb(233, 92, 21)" opacity="1.0"/>
    <path d="M 382.4223937988281 381.0704040527344 C 376.994384765625 383.60443115234375 370.7732849121094 387.1943054199219 370.4024658203125 393.19366455078125 C 370.3478088378906 395.5868835449219 371.037109375 397.9381103515625 372.3753967285156 399.9229431152344 C 375.5544128417969 404.9230651855469 380.9597473144531 408.0721740722656 386.8773193359375 408.37164306640625 C 391.897705078125 408.61279296875 396.7044982910156 406.7143859863281 401.3068542480469 404.7720947265625 C 403.8904113769531 403.6768493652344 406.6004638671875 402.430908203125 408.1399230957031 400.1031494140625 C 410.16644287109375 396.9836730957031 409.5139465332031 392.85845947265625 408.3866882324219 389.3146057128906 C 406.7434387207031 384.1261291503906 404.271240234375 379.2378234863281 401.0659484863281 374.83929443359375 C 399.95556640625 373.3216552734375 398.6917419433594 371.8078918457031 396.9678955078125 371.0582275390625 C 395.3293762207031 370.44317626953125 393.5472717285156 370.31817626953125 391.83892822265625 370.6984558105469 C 386.6120300292969 371.6504211425781 382.0658264160156 374.8473815917969 379.4020690917969 379.44427490234375 L 382.4223937988281 381.0704040527344" stroke-width="0.6000000238418579" fill="rgb(70, 150, 179)" opacity="1.0"/>
    <path d="M 379.31201171875 396.63580322265625 C 372.820556640625 398.66094970703125 365.7103271484375 401.17822265625 362.4494323730469 407.1404113769531 C 358.95037841796875 413.5472412109375 361.37542724609375 421.82989501953125 366.0774841308594 427.41375732421875 C 367.8894958496094 429.56744384765625 370.1167907714844 431.5123291015625 372.8273620605469 432.2691650390625 C 375.05535888671875 432.89215087890625 377.4242858886719 432.6680908203125 379.70977783203125 432.31292724609375 C 386.91845703125 431.2015380859375 394.41571044921875 428.53533935546875 398.6734313964844 422.6151123046875 C 402.96044921875 416.6453857421875 402.89013671875 407.87481689453125 398.4699401855469 401.9949951171875 C 394.0497741699219 396.1151428222656 385.67877197265625 393.5339660644531 378.7298278808594 395.9618225097656 L 379.31201171875 396.63580322265625" stroke-width="0.6000000238418579" fill="rgb(140, 28, 33)" opacity="1.0"/>
    <path d="M 398.0 391.0 C 396.65399169921875 392.01104736328125 395.2645263671875 393.07794189453125 394.46435546875 394.5604248046875 C 393.6642150878906 396.04290771484375 393.6269836425781 398.0836486816406 394.8303527832031 399.26220703125 C 396.3190002441406 400.7136535644531 399.0358581542969 400.0933837890625 400.28265380859375 398.4248046875 C 401.5294189453125 396.7562255859375 401.5914306640625 394.4673767089844 401.1572570800781 392.432861328125 C 401.0859375 391.7895812988281 400.7760925292969 391.1964416503906 400.2888488769531 390.7704772949219 C 399.767822265625 390.4045104980469 398.8559875488281 390.5719909667969 398.7257385253906 391.198486328125 L 398.0 391.0" stroke-width="0.6000000238418579" fill="rgb(159, 159, 159)" opacity="1.0"/>
    <path d="M 415.95849609375 381.8848571777344 C 411.2655029296875 386.07928466796875 407.9073486328125 391.9729919433594 407.586669921875 398.2557678222656 C 407.2659606933594 404.5385437011719 410.30157470703125 411.0950012207031 415.7840576171875 414.23406982421875 C 419.66302490234375 416.448486328125 424.4244384765625 416.81878662109375 428.78863525390625 415.84979248046875 C 433.15283203125 414.88079833984375 437.15765380859375 412.66796875 440.747802734375 410.0028381347656 C 442.3094482421875 408.84210205078125 443.863525390625 407.51153564453125 444.559326171875 405.69976806640625 C 445.35797119140625 403.6230163574219 444.8846435546875 401.2986755371094 444.2984619140625 399.1452331542969 C 442.643310546875 393.06561279296875 439.993408203125 387.0080871582031 435.22894287109375 382.8836669921875 C 430.4644775390625 378.75921630859375 423.1986083984375 377.05926513671875 417.7020263671875 380.10931396484375 L 415.95849609375 381.8848571777344" stroke-width="0.6000000238418579" fill="rgb(159, 159, 159)" opacity="1.0"/>
    <path d="M 415.51568603515625 393.4229431152344 C 409.6173400878906 396.3918151855469 403.189697265625 399.9473876953125 401.0599670410156 406.1842346191406 C 398.9802551269531 412.2467041015625 401.6407165527344 418.8197021484375 404.3610534667969 424.626220703125 C 405.4696350097656 426.9833984375 406.66693115234375 429.431640625 408.7574462890625 430.9832763671875 C 412.2916259765625 433.60955810546875 417.2633056640625 432.9268798828125 421.4134521484375 431.47515869140625 C 425.2659912109375 430.129150390625 428.9052734375 428.2369384765625 432.219970703125 425.85650634765625 C 437.603515625 421.9931640625 442.369140625 415.92169189453125 441.397216796875 409.3694763183594 C 440.877685546875 405.8313903808594 438.70709228515625 402.6853942871094 436.0107421875 400.328125 C 433.3143310546875 397.97088623046875 430.09063720703125 396.30755615234375 426.884765625 394.7109069824219 C 423.6788330078125 393.1142272949219 420.4945068359375 391.614013671875 417.00103759765625 391.4775390625 L 415.51568603515625 393.4229431152344" stroke-width="0.6000000238418579" fill="rgb(218, 166, 20)" opacity="1.0"/>
    <path d="M 147.7869873046875 242.05361938476562 C 138.11810302734375 246.06378173828125 133.53082275390625 257.1528625488281 137.54100036621094 266.8217468261719 C 137.88438415527344 267.64971923828125 138.2860870361328 268.4522399902344 138.74305725097656 269.2233581542969 C 140.47998046875 272.153076171875 143.16290283203125 274.67950439453125 146.46817016601562 275.4944152832031 C 149.26129150390625 276.183349609375 152.20582580566406 275.60723876953125 154.95101928710938 274.75335693359375 C 162.2960205078125 272.4576110839844 168.89239501953125 268.237060546875 174.05487060546875 262.5301208496094 C 175.41693115234375 261.0193176269531 176.701171875 259.35479736328125 177.25405883789062 257.3927001953125 C 178.18417358398438 254.09930419921875 176.85748291015625 250.51412963867188 174.7314453125 247.82928466796875 C 171.57785034179688 243.84109497070312 166.72927856445312 241.37094116210938 161.699951171875 240.6170654296875 C 156.67059326171875 239.86318969726562 151.48313903808594 240.7244873046875 146.74276733398438 242.56484985351562 L 147.7869873046875 242.05361938476562" stroke-width="0.6000000238418579" fill="rgb(143, 165, 67)" opacity="1.0"/>
    <path d="M 152.97886657714844 272.94476318359375 C 144.05764770507812 280.2690734863281 148.1356964111328 297.259033203125 159.12564086914062 300.5370178222656 C 170.1156005859375 303.81494140625 182.509765625 292.74334716796875 181.3223876953125 281.25836181640625 C 180.13504028320312 269.77337646484375 166.96734619140625 261.48291015625 155.83203125 264.57586669921875 L 152.97886657714844 272.94476318359375" stroke-width="0.6000000238418579" fill="rgb(233, 92, 21)" opacity="1.0"/>
    <path d="M 153.2729034423828 327.5169372558594 C 147.713134765625 329.7425231933594 141.3026580810547 332.9776611328125 140.59681701660156 338.9451599121094 C 140.40834045410156 341.3309020996094 140.9647979736328 343.71636962890625 142.18951416015625 345.7724304199219 C 145.08285522460938 350.9411926269531 150.302001953125 354.3869323730469 156.19189453125 355.0169677734375 C 161.18948364257812 355.53863525390625 166.09359741210938 353.9127197265625 170.796142578125 352.2315368652344 C 173.43621826171875 351.28289794921875 176.21096801757812 350.1908874511719 177.87783813476562 347.95361328125 C 180.07516479492188 344.9532775878906 179.65472412109375 340.7991943359375 178.72784423828125 337.1988220214844 C 177.37799072265625 331.9279479980469 175.18389892578125 326.9103698730469 172.23065185546875 322.3406066894531 C 171.20724487304688 320.7636413574219 170.03048706054688 319.18194580078125 168.35174560546875 318.33721923828125 C 166.75070190429688 317.6316223144531 164.9788818359375 317.4071350097656 163.25244140625 317.69110107421875 C 157.98193359375 318.34881591796875 153.2652130126953 321.28546142578125 150.3491668701172 325.72479248046875 L 153.2729034423828 327.5169372558594" stroke-width="0.6000000238418579" fill="rgb(70, 150, 179)" opacity="1.0"/>
    <path d="M 135.14337158203125 293.519287109375 C 129.83889770507812 289.1463928222656 123.77569580078125 284.5221252441406 116.92668151855469 285.0607604980469 C 109.56967163085938 285.643798828125 103.90225219726562 292.2774963378906 101.77813720703125 299.34515380859375 C 100.9580078125 302.0697937011719 100.54428100585938 305.03033447265625 101.4031982421875 307.7427062988281 C 102.10842895507812 309.97265625 103.60842895507812 311.85333251953125 105.1732177734375 313.59088134765625 C 110.10122680664062 319.07611083984375 116.50447082519531 323.9455261230469 123.86941528320312 324.27362060546875 C 131.29237365722656 324.59918212890625 138.67520141601562 319.68817138671875 141.20571899414062 312.6953125 C 143.73623657226562 305.70245361328125 141.2899627685547 297.19110107421875 135.39166259765625 292.6538391113281 L 135.14337158203125 293.519287109375" stroke-width="0.6000000238418579" fill="rgb(140, 28, 33)" opacity="1.0"/>
    <path d="M 144.0 264.0 C 142.65399169921875 265.01104736328125 141.26454162597656 266.07794189453125 140.46435546875 267.5604248046875 C 139.66419982910156 269.04290771484375 139.62698364257812 271.0836486816406 140.83035278320312 272.26220703125 C 142.3190155029297 273.7136535644531 145.03587341308594 273.0933837890625 146.28265380859375 271.4248046875 C 147.52943420410156 269.7562255859375 147.59144592285156 267.4673767089844 147.15725708007812 265.432861328125 C 147.08595275878906 264.7895812988281 146.77610778808594 264.1964416503906 146.2888641357422 263.7704772949219 C 145.767822265625 263.4045104980469 144.8560028076172 263.5719909667969 144.72572326660156 264.198486328125 L 144.0 264.0" stroke-width="0.6000000238418579" fill="rgb(159, 159, 159)" opacity="1.0"/>
    <path d="M 152.56053161621094 283.7892150878906 C 147.70265197753906 287.8354797363281 144.12525939941406 293.63427734375 143.58338928222656 299.9299621582031 C 143.04151916503906 306.2256774902344 145.85926818847656 312.9136047363281 151.25294494628906 316.25665283203125 C 155.06932067871094 318.6153869628906 159.8360595703125 319.1537780761719 164.2509765625 318.3338317871094 C 168.66586303710938 317.5138854980469 172.7635498046875 315.4327697753906 176.46078491210938 312.883056640625 C 178.069091796875 311.77252197265625 179.67568969726562 310.4912414550781 180.43756103515625 308.6968994140625 C 181.31201171875 306.6401062011719 180.91827392578125 304.290283203125 180.4051513671875 302.1080322265625 C 178.95648193359375 295.9471130371094 176.50845336914062 289.7735290527344 171.87005615234375 285.4664611816406 C 167.23162841796875 281.15936279296875 159.99734497070312 279.1985168457031 154.3729248046875 282.06787109375 L 152.56053161621094 283.7892150878906" stroke-width="0.6000000238418579" fill="rgb(159, 159, 159)" opacity="1.0"/>
    <path d="M 136.04473876953125 345.58258056640625 C 130.70143127441406 341.6742248535156 124.5927734375 337.56134033203125 118.05384826660156 338.5088195800781 C 111.69343566894531 339.4212951660156 107.04208374023438 344.7974548339844 103.10220336914062 349.87701416015625 C 101.50469970703125 351.94287109375 99.86642456054688 354.1295471191406 99.43632507324219 356.703857421875 C 98.70634460449219 361.05743408203125 101.58607482910156 365.1828308105469 104.77700805664062 368.2237854003906 C 107.73764038085938 371.0474548339844 111.08837890625 373.431396484375 114.7266845703125 375.3025817871094 C 120.63314819335938 378.3430480957031 128.22825622558594 379.8235778808594 133.63217163085938 375.96392822265625 C 136.55259704589844 373.884521484375 138.36911010742188 370.51055908203125 139.24156188964844 367.0275573730469 C 140.11398315429688 363.5445556640625 140.1262969970703 359.9078674316406 140.0872344970703 356.3174743652344 C 140.04820251464844 352.72711181640625 139.9329071044922 349.20001220703125 138.4593048095703 346.0198059082031 L 136.04473876953125 345.58258056640625" stroke-width="0.6000000238418579" fill="rgb(218, 166, 20)" opacity="1.0"/>
    <path d="M 153.92626953125 336.03948974609375 C 144.725830078125 340.9878845214844 141.27886962890625 352.457763671875 146.2272491455078 361.658203125 C 146.65097045898438 362.446044921875 147.13006591796875 363.20281982421875 147.66090393066406 363.9228515625 C 149.67845153808594 366.6584777832031 152.59507751464844 368.89910888671875 155.95864868164062 369.37799072265625 C 158.80108642578125 369.782958984375 161.66741943359375 368.9166259765625 164.30804443359375 367.79437255859375 C 171.37225341796875 364.7806701660156 177.5006103515625 359.9304504394531 182.056640625 353.74755859375 C 183.2581787109375 352.1112060546875 184.36709594726562 350.3299560546875 184.72003173828125 348.32635498046875 C 185.31451416015625 344.96307373046875 183.6387939453125 341.5355529785156 181.25933837890625 339.0820007324219 C 177.729248046875 335.4368896484375 172.667724609375 333.46856689453125 167.5982666015625 333.22259521484375 C 162.52880859375 332.9765930175781 157.46371459960938 334.3503112792969 152.94044494628906 336.6514892578125 L 153.92626953125 336.03948974609375" stroke-width="0.6000000238418579" fill="rgb(143, 165, 67)" opacity="1.0"/>
    <path d="M 142.94659423828125 377.0025329589844 C 132.22250366210938 372.66717529296875 119.23060607910156 384.4060363769531 121.61891174316406 395.6479187011719 C 124.00727844238281 406.88983154296875 139.69447326660156 412.4830322265625 149.22970581054688 405.92852783203125 C 158.76492309570312 399.37396240234375 159.74203491210938 383.811279296875 151.6786346435547 375.4978942871094 L 142.94659423828125 377.0025329589844" stroke-width="0.6000000238418579" fill="rgb(233, 92, 21)" opacity="1.0"/>
    <path d="M 167.8577880859375 375.5533142089844 C 162.39031982421875 378.06842041015625 156.12017822265625 381.6398010253906 155.71377563476562 387.6648254394531 C 155.64535522460938 390.0688171386719 156.3245849609375 392.434814453125 157.6578369140625 394.4364013671875 C 160.82333374023438 399.47760009765625 166.23590087890625 402.67181396484375 172.17919921875 403.0060729980469 C 177.22146606445312 403.2767028808594 182.06121826171875 401.3966369628906 186.69583129882812 399.4713134765625 C 189.29754638671875 398.3855895996094 192.02716064453125 397.149169921875 193.58688354492188 394.8193359375 C 195.640380859375 391.6968688964844 195.00814819335938 387.5488586425781 193.89569091796875 383.9822692871094 C 192.27413940429688 378.7604675292969 189.81808471679688 373.8356018066406 186.622802734375 369.39862060546875 C 185.51580810546875 367.86767578125 184.25469970703125 366.33978271484375 182.527099609375 365.576904296875 C 180.88449096679688 364.94976806640625 179.0948486328125 364.81414794921875 177.37646484375 365.1865234375 C 172.1199951171875 366.1133728027344 167.53466796875 369.2994689941406 164.8326416015625 373.902587890625 L 167.8577880859375 375.5533142089844" stroke-width="0.6000000238418579" fill="rgb(70, 150, 179)" opacity="1.0"/>
  </g>
</svg>
