<?xml version="1.0" ?>
<svg xmlns="http://www.w3.org/2000/svg" version="1.1" width="600" height="600">
  <defs/>
  <g>
    <path d="M 354.28314208984375 330.9786071777344 C 354.0836486816406 330.92388916015625 353.8772888183594 331.1593933105469 353.9430847167969 331.3540954589844 C 354.0088806152344 331.548828125 354.29913330078125 331.6155700683594 354.4548645019531 331.47930908203125 C 354.610595703125 331.34307861328125 354.5956115722656 331.06463623046875 354.43511962890625 330.9337463378906 L 354.28314208984375 330.9786071777344" stroke-width="0.6000000238418579" fill="rgb(233, 92, 21)" opacity="1.0"/>
    <path d="M 99.79696655273438 196.4302978515625 C 99.582275390625 196.52645874023438 99.3358154296875 196.66357421875 99.31756591796875 196.89892578125 C 99.31393432617188 196.99285888671875 99.33956909179688 197.08563232421875 99.39089965820312 197.16436767578125 C 99.51264953613281 197.3626708984375 99.72296142578125 197.4896240234375 99.95512390136719 197.5050048828125 C 100.152099609375 197.517578125 100.34201049804688 197.44598388671875 100.52391052246094 197.37255859375 C 100.62603759765625 197.33111572265625 100.73321533203125 197.28387451171875 100.79507446289062 197.19342041015625 C 100.87657165527344 197.07217407226562 100.85348510742188 196.9097900390625 100.8114013671875 196.76995849609375 C 100.75006103515625 196.56521606445312 100.656005859375 196.37176513671875 100.5328369140625 196.19708251953125 C 100.49017333984375 196.13681030273438 100.44148254394531 196.07659912109375 100.374267578125 196.04611206054688 C 100.310302734375 196.02093505859375 100.24040222167969 196.01495361328125 100.173095703125 196.02880859375 C 99.96726989746094 196.06298828125 99.78680419921875 196.18572998046875 99.67938232421875 196.36459350585938 L 99.79696655273438 196.4302978515625" stroke-width="0.6000000238418579" fill="rgb(70, 150, 179)" opacity="1.0"/>
    <path d="M 464.39044189453125 435.65093994140625 C 464.34228515625 435.6026611328125 464.286865234375 435.5511474609375 464.21875 435.5498046875 C 464.1455078125 435.5484619140625 464.0831298828125 435.6085205078125 464.055419921875 435.67626953125 C 464.044677734375 435.702392578125 464.0377197265625 435.731201171875 464.0435791015625 435.7587890625 C 464.04833984375 435.781494140625 464.0614013671875 435.801513671875 464.07513427734375 435.8201904296875 C 464.1185302734375 435.87908935546875 464.177001953125 435.933349609375 464.2493896484375 435.9437255859375 C 464.3223876953125 435.9541015625 464.4000244140625 435.9127197265625 464.4317626953125 435.84613037109375 C 464.4635009765625 435.779541015625 464.44757080078125 435.693115234375 464.39373779296875 435.64263916015625 L 464.39044189453125 435.65093994140625" stroke-width="0.6000000238418579" fill="rgb(140, 28, 33)" opacity="1.0"/>
    <path d="M 95.08868408203125 194.8770751953125 C 95.09619140625 194.8720703125 95.10397338867188 194.8668212890625 95.10870361328125 194.859130859375 C 95.11344909667969 194.85150146484375 95.11428833007812 194.840576171875 95.10824584960938 194.83392333984375 C 95.10073852539062 194.82568359375 95.08602905273438 194.828125 95.07884216308594 194.836669921875 C 95.0716552734375 194.84518432617188 95.07058715820312 194.857421875 95.072265625 194.868408203125 C 95.07244873046875 194.87188720703125 95.07391357421875 194.8751220703125 95.07638549804688 194.8775634765625 C 95.07905578613281 194.87969970703125 95.083984375 194.87908935546875 95.08486938476562 194.87576293945312 L 95.08868408203125 194.8770751953125" stroke-width="0.6000000238418579" fill="rgb(159, 159, 159)" opacity="1.0"/>
    <path d="M 380.5749206542969 304.5804748535156 C 380.5347595214844 304.5962219238281 380.4991149902344 304.6260681152344 380.4820556640625 304.6656494140625 C 380.4649658203125 304.70526123046875 380.46881103515625 304.754638671875 380.4965515136719 304.7878723144531 C 380.51617431640625 304.8113708496094 380.5458984375 304.82513427734375 380.57623291015625 304.8293151855469 C 380.6065979003906 304.8335266113281 380.6376037597656 304.828857421875 380.6670227050781 304.8203125 C 380.6798400878906 304.81658935546875 380.6929931640625 304.8117370605469 380.7017822265625 304.8017578125 C 380.7118835449219 304.79034423828125 380.7143859863281 304.7742614746094 380.71575927734375 304.759033203125 C 380.71966552734375 304.7160339355469 380.71710205078125 304.6707763671875 380.69635009765625 304.6329040527344 C 380.6755676269531 304.59503173828125 380.6329650878906 304.5667724609375 380.5903625488281 304.5732421875 L 380.5749206542969 304.5804748535156" stroke-width="0.6000000238418579" fill="rgb(159, 159, 159)" opacity="1.0"/>
    <path d="M 103.32182312011719 433.876220703125 C 103.20088195800781 433.94281005859375 103.0693359375 434.0220947265625 103.0296630859375 434.154052734375 C 102.99090576171875 434.2823486328125 103.05158996582031 434.4176025390625 103.11293029785156 434.536865234375 C 103.13790893554688 434.585205078125 103.16482543945312 434.635498046875 103.209716796875 434.666259765625 C 103.28558349609375 434.7183837890625 103.38894653320312 434.7003173828125 103.47454833984375 434.666748046875 C 103.55398559570312 434.6356201171875 103.62857055664062 434.59326171875 103.69598388671875 434.54095458984375 C 103.80548095703125 434.4560546875 103.90036010742188 434.3255615234375 103.87496948242188 434.1893310546875 C 103.86137390136719 434.1158447265625 103.81356811523438 434.0517578125 103.75540161132812 434.004638671875 C 103.69723510742188 433.95745849609375 103.62860107421875 433.9251708984375 103.56036376953125 433.894287109375 C 103.49215698242188 433.8634033203125 103.42445373535156 433.8345947265625 103.35134887695312 433.83441162109375 L 103.32182312011719 433.876220703125" stroke-width="0.6000000238418579" fill="rgb(218, 166, 20)" opacity="1.0"/>
    <path d="M 98.52153015136719 141.8380889892578 C 98.213623046875 141.7364959716797 97.88165283203125 141.9037322998047 97.78004455566406 142.21165466308594 C 97.77133178710938 142.23802185058594 97.7645263671875 142.2649688720703 97.7596435546875 142.29229736328125 C 97.7410888671875 142.39614868164062 97.75289916992188 142.50970458984375 97.81391906738281 142.59568786621094 C 97.865478515625 142.66836547851562 97.94619750976562 142.71444702148438 98.02786254882812 142.74996948242188 C 98.24658203125 142.84475708007812 98.4866943359375 142.87924194335938 98.72325134277344 142.849853515625 C 98.7857666015625 142.8419952392578 98.84956359863281 142.8289337158203 98.90223693847656 142.7941131591797 C 98.99069213867188 142.73568725585938 99.03211975097656 142.624755859375 99.03659057617188 142.51876831054688 C 99.0433349609375 142.36141967773438 98.97959899902344 142.20538330078125 98.87689208984375 142.08592224121094 C 98.77420043945312 141.9664764404297 98.63510131835938 141.8817138671875 98.4866943359375 141.82894897460938 L 98.52153015136719 141.8380889892578" stroke-width="0.6000000238418579" fill="rgb(143, 165, 67)" opacity="1.0"/>
    <path d="M 458.3924560546875 337.5677795410156 C 457.92626953125 337.3995056152344 457.388916015625 337.92315673828125 457.5093994140625 338.400634765625 C 457.62982177734375 338.8781433105469 458.310546875 339.0922546386719 458.708251953125 338.7961730957031 C 459.10595703125 338.5000915527344 459.12255859375 337.8321533203125 458.763916015625 337.4892272949219 L 458.3924560546875 337.5677795410156" stroke-width="0.6000000238418579" fill="rgb(233, 92, 21)" opacity="1.0"/>
    <path d="M 108.8944091796875 213.234130859375 C 108.66204833984375 213.30361938476562 108.3917236328125 213.41073608398438 108.34150695800781 213.64886474609375 C 108.32521057128906 213.744384765625 108.33895874023438 213.84262084960938 108.380859375 213.92999267578125 C 108.47872924804688 214.14901733398438 108.67666625976562 214.3070068359375 108.91191101074219 214.3538818359375 C 109.111572265625 214.39312744140625 109.31529235839844 214.34542846679688 109.51107788085938 214.29473876953125 C 109.62101745605469 214.26611328125 109.73690795898438 214.232177734375 109.81228637695312 214.14801025390625 C 109.91184997558594 214.0350341796875 109.9100341796875 213.865966796875 109.88577270507812 213.71734619140625 C 109.85052490234375 213.4998779296875 109.78033447265625 213.28948974609375 109.67787170410156 213.09442138671875 C 109.642333984375 213.027099609375 109.60064697265625 212.95901489257812 109.5360107421875 212.9188232421875 C 109.47401428222656 212.884521484375 109.40336608886719 212.8690185546875 109.33270263671875 212.87420654296875 C 109.11773681640625 212.88153076171875 108.91680908203125 212.98275756835938 108.78302001953125 213.15118408203125 L 108.8944091796875 213.234130859375" stroke-width="0.6000000238418579" fill="rgb(70, 150, 179)" opacity="1.0"/>
    <path d="M 102.46139526367188 78.742919921875 C 102.28631591796875 78.61691284179688 102.08697509765625 78.48458862304688 101.87362670898438 78.51553344726562 C 101.64448547363281 78.54891967773438 101.48068237304688 78.76828002929688 101.4287109375 78.99395751953125 C 101.40863037109375 79.08094787597656 101.40176391601562 79.17449951171875 101.43423461914062 79.25765991210938 C 101.46090698242188 79.32601928710938 101.51174926757812 79.38182067871094 101.56430053710938 79.43301391601562 C 101.72988891601562 79.5946044921875 101.94039916992188 79.73390197753906 102.17166137695312 79.72903442382812 C 102.40475463867188 79.72395324707031 102.62580871582031 79.55500793457031 102.69065856933594 79.33084106445312 C 102.75550842285156 79.106689453125 102.66140747070312 78.84524536132812 102.4674072265625 78.71530151367188 L 102.46139526367188 78.742919921875" stroke-width="0.6000000238418579" fill="rgb(140, 28, 33)" opacity="1.0"/>
    <path d="M 99.3505859375 432.1834716796875 C 99.32797241210938 432.18792724609375 99.30450439453125 432.1927490234375 99.28582763671875 432.206298828125 C 99.26715087890625 432.21978759765625 99.25454711914062 432.2447509765625 99.26235961914062 432.266357421875 C 99.27206420898438 432.2930908203125 99.30921936035156 432.3016357421875 99.33450317382812 432.28851318359375 C 99.35980224609375 432.275390625 99.37417602539062 432.24755859375 99.38095092773438 432.21990966796875 C 99.38389587402344 432.2115478515625 99.38360595703125 432.202392578125 99.38014221191406 432.19427490234375 C 99.37590026855469 432.1866455078125 99.36367797851562 432.18328857421875 99.35833740234375 432.19024658203125 L 99.3505859375 432.1834716796875" stroke-width="0.6000000238418579" fill="rgb(159, 159, 159)" opacity="1.0"/>
    <path d="M 463.8795166015625 63.3369140625 C 463.67718505859375 63.48907470703125 463.5225830078125 63.71388244628906 463.4884033203125 63.964599609375 C 463.4542236328125 64.21530151367188 463.5535888671875 64.48838806152344 463.76263427734375 64.6328125 C 463.91058349609375 64.7347412109375 464.10015869140625 64.76576232910156 464.2783203125 64.74174499511719 C 464.45654296875 64.71774291992188 464.62457275390625 64.64265441894531 464.77752685546875 64.54803466796875 C 464.84405517578125 64.50682067871094 464.910888671875 64.45877075195312 464.94488525390625 64.38851928710938 C 464.98394775390625 64.30799865722656 464.972900390625 64.21322631835938 464.9566650390625 64.12493896484375 C 464.9110107421875 63.87565612792969 464.82537841796875 63.623870849609375 464.6484375 63.44239807128906 C 464.47149658203125 63.26091003417969 464.18603515625 63.1680908203125 463.9554443359375 63.27166748046875 L 463.8795166015625 63.3369140625" stroke-width="0.6000000238418579" fill="rgb(159, 159, 159)" opacity="1.0"/>
    <path d="M 94.7808837890625 101.65385437011719 C 94.56607055664062 101.64010620117188 94.32670593261719 101.63412475585938 94.16400146484375 101.77439880371094 C 94.00555419921875 101.91058349609375 93.97201538085938 102.1392822265625 93.95278930664062 102.34742736816406 C 93.94509887695312 102.43197631835938 93.93841552734375 102.52056884765625 93.97161865234375 102.59866333007812 C 94.0277099609375 102.73078918457031 94.17877197265625 102.79354858398438 94.31939697265625 102.82115173339844 C 94.44992065429688 102.84681701660156 94.58346557617188 102.85360717773438 94.71592712402344 102.84130859375 C 94.93099975585938 102.8214111328125 95.16511535644531 102.729248046875 95.24580383300781 102.52896118164062 C 95.28952026367188 102.42091369628906 95.28034973144531 102.29666137695312 95.24337768554688 102.1859130859375 C 95.2064208984375 102.07516479492188 95.1431884765625 101.97525024414062 95.07936096191406 101.87750244140625 C 95.01553344726562 101.77975463867188 94.95071411132812 101.68505859375 94.854736328125 101.62362670898438 L 94.7808837890625 101.65385437011719" stroke-width="0.6000000238418579" fill="rgb(218, 166, 20)" opacity="1.0"/>
    <path d="M 113.20169067382812 131.09893798828125 C 112.83096313476562 131.16043090820312 112.58026123046875 131.5108184814453 112.64175415039062 131.8815460205078 C 112.64703369140625 131.91329956054688 112.654541015625 131.9446258544922 112.66424560546875 131.97531127929688 C 112.70111083984375 132.09188842773438 112.77435302734375 132.2020721435547 112.88330078125 132.25747680664062 C 112.975341796875 132.30430603027344 113.0830078125 132.30813598632812 113.18594360351562 132.30064392089844 C 113.46145629882812 132.28016662597656 113.72647094726562 132.18629455566406 113.95343017578125 132.02877807617188 C 114.01336669921875 131.98704528808594 114.07182312011719 131.93930053710938 114.10713195800781 131.8751983642578 C 114.16647338867188 131.76760864257812 114.14926147460938 131.63145446777344 114.0968017578125 131.520263671875 C 114.01899719238281 131.3551483154297 113.86956787109375 131.2292938232422 113.69985961914062 131.1619873046875 C 113.53013610839844 131.0946807861328 113.34173583984375 131.0825653076172 113.1610107421875 131.10830688476562 L 113.20169067382812 131.09893798828125" stroke-width="0.6000000238418579" fill="rgb(143, 165, 67)" opacity="1.0"/>
    <path d="M 388.8284606933594 296.83251953125 C 388.42138671875 296.6432189941406 387.8945617675781 297.07244873046875 387.96484375 297.5129089355469 C 388.0351257324219 297.9533996582031 388.632080078125 298.2012634277344 389.0146484375 297.96612548828125 C 389.397216796875 297.7309875488281 389.4659423828125 297.1297302246094 389.1698913574219 296.79150390625 L 388.8284606933594 296.83251953125" stroke-width="0.6000000238418579" fill="rgb(233, 92, 21)" opacity="1.0"/>
    <path d="M 118.36982727050781 107.05453491210938 C 118.16989135742188 107.14639282226562 117.94058227539062 107.27685546875 117.92561340332031 107.49713134765625 C 117.92306518554688 107.58502197265625 117.94786071777344 107.67153930664062 117.99656677246094 107.74473571777344 C 118.11221313476562 107.92910766601562 118.31002807617188 108.04598999023438 118.52731323242188 108.05831909179688 C 118.711669921875 108.06829833984375 118.88864135742188 107.99964904785156 119.05813598632812 107.92935180664062 C 119.15325927734375 107.88969421386719 119.25308227539062 107.84454345703125 119.31015014648438 107.7593994140625 C 119.38528442382812 107.645263671875 119.36224365234375 107.49359130859375 119.32164001464844 107.36318969726562 C 119.262451171875 107.1722412109375 119.17274475097656 106.99214172363281 119.05599975585938 106.82986450195312 C 119.01556396484375 106.77386474609375 118.969482421875 106.71798706054688 118.90634155273438 106.6900634765625 C 118.84628295898438 106.6671142578125 118.78085327148438 106.662109375 118.718017578125 106.67568969726562 C 118.52581787109375 106.70948791503906 118.35812377929688 106.82589721679688 118.25924682617188 106.994140625 L 118.36982727050781 107.05453491210938" stroke-width="0.6000000238418579" fill="rgb(70, 150, 179)" opacity="1.0"/>
    <path d="M 433.967041015625 75.5103759765625 C 433.82470703125 75.38673400878906 433.6617431640625 75.25567626953125 433.4736328125 75.26557922363281 C 433.271484375 75.27635192871094 433.1114501953125 75.45419311523438 433.0482177734375 75.64645385742188 C 433.0238037109375 75.72056579589844 433.0103759765625 75.80143737792969 433.031982421875 75.87640380859375 C 433.0496826171875 75.93803405761719 433.0894775390625 75.99066162109375 433.13116455078125 76.03939819335938 C 433.26239013671875 76.19326782226562 433.4344482421875 76.331298828125 433.6361083984375 76.34550476074219 C 433.83941650390625 76.35969543457031 434.0452880859375 76.23028564453125 434.11962890625 76.04037475585938 C 434.1939697265625 75.8504638671875 434.1329345703125 75.61538696289062 433.97442626953125 75.48681640625 L 433.967041015625 75.5103759765625" stroke-width="0.6000000238418579" fill="rgb(140, 28, 33)" opacity="1.0"/>
    <path d="M 120.0 419.0 C 120.00918579101562 418.99310302734375 120.0186767578125 418.98583984375 120.02413940429688 418.9757080078125 C 120.02960205078125 418.965576171875 120.02986145019531 418.95166015625 120.02163696289062 418.943603515625 C 120.011474609375 418.9337158203125 119.992919921875 418.9378662109375 119.98440551757812 418.9493408203125 C 119.97589111328125 418.960693359375 119.97547912597656 418.976318359375 119.97843933105469 418.990234375 C 119.97892761230469 418.99462890625 119.98104858398438 418.9986572265625 119.984375 419.0015869140625 C 119.98793029785156 419.0040283203125 119.99415588378906 419.0029296875 119.99504089355469 418.9986572265625 L 120.0 419.0" stroke-width="0.6000000238418579" fill="rgb(159, 159, 159)" opacity="1.0"/>
    <path d="M 446.9427490234375 423.0977783203125 C 446.7987060546875 423.2291259765625 446.6964111328125 423.41265869140625 446.6883544921875 423.607421875 C 446.6802978515625 423.8021240234375 446.77630615234375 424.0042724609375 446.94708251953125 424.099853515625 C 447.06787109375 424.16729736328125 447.2154541015625 424.1773681640625 447.350341796875 424.14599609375 C 447.4852294921875 424.11468505859375 447.608642578125 424.044921875 447.71905517578125 423.9613037109375 C 447.76708984375 423.9249267578125 447.8148193359375 423.8831787109375 447.8358154296875 423.826904296875 C 447.8599853515625 423.7623291015625 447.8446044921875 423.6904296875 447.8258056640625 423.6239013671875 C 447.772705078125 423.43609619140625 447.6888427734375 423.249267578125 447.53997802734375 423.1229248046875 C 447.39117431640625 422.99658203125 447.16558837890625 422.9461669921875 446.9962158203125 423.042236328125 L 446.9427490234375 423.0977783203125" stroke-width="0.6000000238418579" fill="rgb(159, 159, 159)" opacity="1.0"/>
    <path d="M 444.990234375 282.5141296386719 C 444.7835693359375 282.6396179199219 444.5592041015625 282.7880554199219 444.49957275390625 283.02191162109375 C 444.4412841796875 283.249267578125 444.55743408203125 283.4814758300781 444.673583984375 283.685546875 C 444.72088623046875 283.7684020996094 444.771728515625 283.85430908203125 444.8525390625 283.9048767089844 C 444.9891357421875 283.990478515625 445.168701171875 283.9511413574219 445.31591796875 283.8861083984375 C 445.45263671875 283.8258056640625 445.580078125 283.7461853027344 445.69415283203125 283.649658203125 C 445.87945556640625 283.4930114746094 446.03582763671875 283.2575378417969 445.9813232421875 283.02117919921875 C 445.95208740234375 282.8935241699219 445.86376953125 282.78497314453125 445.7584228515625 282.7067565917969 C 445.6531982421875 282.6285095214844 445.53070068359375 282.5771484375 445.4090576171875 282.5281677246094 C 445.287353515625 282.47918701171875 445.166748046875 282.43365478515625 445.038818359375 282.4388122558594 L 444.990234375 282.5141296386719" stroke-width="0.6000000238418579" fill="rgb(218, 166, 20)" opacity="1.0"/>
    <path d="M 429.052490234375 374.3163757324219 C 428.8118896484375 374.1139831542969 428.45269775390625 374.14501953125 428.25030517578125 374.3856506347656 C 428.2330322265625 374.40625 428.2171630859375 374.4280700683594 428.202880859375 374.450927734375 C 428.1488037109375 374.5377502441406 428.1185302734375 374.64422607421875 428.1424560546875 374.74365234375 C 428.1627197265625 374.8276672363281 428.2188720703125 374.8982238769531 428.279541015625 374.9595947265625 C 428.4423828125 375.12371826171875 428.6461181640625 375.24127197265625 428.86968994140625 375.3000183105469 C 428.9288330078125 375.3154296875 428.990966796875 375.32666015625 429.0509033203125 375.31427001953125 C 429.151611328125 375.2935485839844 429.2288818359375 375.2085876464844 429.2711181640625 375.1147766113281 C 429.3338623046875 374.97552490234375 429.3326416015625 374.81207275390625 429.283203125 374.6675109863281 C 429.2337646484375 374.5229797363281 429.1390380859375 374.39654541015625 429.0244140625 374.29559326171875 L 429.052490234375 374.3163757324219" stroke-width="0.6000000238418579" fill="rgb(143, 165, 67)" opacity="1.0"/>
    <path d="M 445.91845703125 360.2216491699219 C 445.5858154296875 360.4924011230469 445.73468017578125 361.1243591308594 446.142578125 361.24786376953125 C 446.5504150390625 361.3713684082031 447.01263427734375 360.9618835449219 446.9703369140625 360.5349426269531 C 446.927978515625 360.1080322265625 446.43994140625 359.7979431152344 446.0257568359375 359.9111328125 L 445.91845703125 360.2216491699219" stroke-width="0.6000000238418579" fill="rgb(233, 92, 21)" opacity="1.0"/>
    <path d="M 447.50341796875 88.29217529296875 C 447.3961181640625 88.34716796875 447.2735595703125 88.42399597167969 447.27056884765625 88.54495239257812 C 447.271240234375 88.5931396484375 447.286865234375 88.63993835449219 447.31524658203125 88.67886352539062 C 447.3829345703125 88.77711486816406 447.4940185546875 88.83645629882812 447.61328125 88.83810424804688 C 447.71441650390625 88.8392333984375 447.8096923828125 88.7974853515625 447.90087890625 88.7550048828125 C 447.9520263671875 88.7310791015625 448.005615234375 88.70401000976562 448.034912109375 88.65603637695312 C 448.0733642578125 88.59176635742188 448.05712890625 88.50927734375 448.0318603515625 88.43881225585938 C 447.9949951171875 88.33564758300781 447.94158935546875 88.2391357421875 447.8739013671875 88.15301513671875 C 447.85040283203125 88.12332153320312 447.8238525390625 88.09379577636719 447.78863525390625 88.07998657226562 C 447.7552490234375 88.06883239746094 447.71923828125 88.067626953125 447.6851806640625 88.07655334472656 C 447.5806884765625 88.09957885742188 447.49163818359375 88.16725158691406 447.44146728515625 88.26168823242188 L 447.50341796875 88.29217529296875" stroke-width="0.6000000238418579" fill="rgb(70, 150, 179)" opacity="1.0"/>
    <path d="M 443.988525390625 398.91766357421875 C 444.010986328125 398.9024658203125 444.0352783203125 398.8846740722656 444.04083251953125 398.858154296875 C 444.04681396484375 398.8296813964844 444.028076171875 398.80084228515625 444.003662109375 398.7849426269531 C 443.9942626953125 398.77880859375 443.9835205078125 398.77392578125 443.9722900390625 398.774169921875 C 443.96307373046875 398.77435302734375 443.954345703125 398.7779235839844 443.94598388671875 398.7818908691406 C 443.91973876953125 398.79443359375 443.8941650390625 398.813232421875 443.884765625 398.8407287597656 C 443.875244140625 398.86846923828125 443.8856201171875 398.90185546875 443.9091796875 398.9192199707031 C 443.932861328125 398.93658447265625 443.9677734375 398.93682861328125 443.99151611328125 398.9195556640625 L 443.988525390625 398.91766357421875" stroke-width="0.6000000238418579" fill="rgb(140, 28, 33)" opacity="1.0"/>
    <path d="M 116.64321899414062 217.91229248046875 C 115.97552490234375 217.86819458007812 115.2802734375 217.82968139648438 114.6549072265625 218.06912231445312 C 114.02957153320312 218.30859375 113.489501953125 218.91400146484375 113.54676818847656 219.5810546875 C 113.61929321289062 220.404296875 114.598876953125 220.92138671875 115.40705871582031 220.74160766601562 C 116.21524047851562 220.56182861328125 116.82708740234375 219.8880615234375 117.22344970703125 219.162353515625 C 117.36866760253906 218.94998168945312 117.42900085449219 218.69091796875 117.39253234863281 218.436279296875 C 117.33033752441406 218.19094848632812 117.01211547851562 218.005126953125 116.81050109863281 218.16018676757812 L 116.64321899414062 217.91229248046875" stroke-width="0.6000000238418579" fill="rgb(159, 159, 159)" opacity="1.0"/>
    <path d="M 116.52774047851562 225.1400146484375 C 114.07867431640625 224.05447387695312 111.20433044433594 223.78439331054688 108.711181640625 224.76065063476562 C 106.21804809570312 225.73687744140625 104.20672607421875 228.06292724609375 103.9495849609375 230.7393798828125 C 103.77020263671875 232.63189697265625 104.460693359375 234.54360961914062 105.60107421875 236.066650390625 C 106.74147033691406 237.58966064453125 108.30136108398438 238.75540161132812 109.96405029296875 239.68106079101562 C 110.68783569335938 240.08343505859375 111.4761962890625 240.453125 112.30082702636719 240.4056396484375 C 113.24627685546875 240.35159301757812 114.06491088867188 239.76083374023438 114.7974853515625 239.15618896484375 C 116.86569213867188 237.44915771484375 118.75106811523438 235.36013793945312 119.51618957519531 232.78955078125 C 120.28131103515625 230.218994140625 119.66781616210938 227.1029052734375 117.52188110351562 225.5052490234375 L 116.52774047851562 225.1400146484375" stroke-width="0.6000000238418579" fill="rgb(159, 159, 159)" opacity="1.0"/>
    <path d="M 295.0733337402344 106.01896667480469 C 293.03790283203125 107.63568115234375 290.8454895019531 109.52090454101562 290.5242919921875 112.09523010253906 C 290.2084045410156 114.59832763671875 291.76031494140625 116.91847229003906 293.27386474609375 118.93840026855469 C 293.88995361328125 119.758056640625 294.5475158691406 120.60574340820312 295.4775085449219 121.0362548828125 C 297.04998779296875 121.76535034179688 298.9114074707031 121.10397338867188 300.39459228515625 120.21200561523438 C 301.77154541015625 119.38465881347656 303.0225830078125 118.36386108398438 304.109375 117.18087768554688 C 305.874755859375 115.26069641113281 307.2250671386719 112.5389404296875 306.32562255859375 110.091552734375 C 305.84197998046875 108.76957702636719 304.7533874511719 107.73097229003906 303.5253601074219 107.03846740722656 C 302.2973327636719 106.34597778320312 300.9216613769531 105.96316528320312 299.5581970214844 105.6046142578125 C 298.1947326660156 105.24606323242188 296.8472900390625 104.92295837402344 295.4899597167969 105.15020751953125 L 295.0733337402344 106.01896667480469" stroke-width="0.6000000238418579" fill="rgb(218, 166, 20)" opacity="1.0"/>
    <path d="M 226.54360961914062 122.54278564453125 C 222.6170654296875 121.69975280761719 218.75054931640625 124.19943237304688 217.90753173828125 128.12596130371094 C 217.8353271484375 128.4622039794922 217.787109375 128.80313110351562 217.76315307617188 129.14617919921875 C 217.67242431640625 130.4497528076172 217.96826171875 131.8323516845703 218.83380126953125 132.8104705810547 C 219.565185546875 133.63711547851562 220.6202392578125 134.09747314453125 221.6729736328125 134.42669677734375 C 224.4920654296875 135.3040313720703 227.49468994140625 135.41053771972656 230.36886596679688 134.73513793945312 C 231.1282958984375 134.55532836914062 231.89669799804688 134.31004333496094 232.4991455078125 133.81130981445312 C 233.51104736328125 132.97463989257812 233.87420654296875 131.55364990234375 233.78872680664062 130.2425079345703 C 233.66314697265625 128.2958526611328 232.67147827148438 126.45867919921875 231.2484130859375 125.12380981445312 C 229.82537841796875 123.7889404296875 228.00015258789062 122.92941284179688 226.10250854492188 122.47640991210938 L 226.54360961914062 122.54278564453125" stroke-width="0.6000000238418579" fill="rgb(143, 165, 67)" opacity="1.0"/>
    <path d="M 226.09686279296875 101.15512084960938 C 223.02041625976562 104.36097717285156 225.3529052734375 110.66940307617188 229.702880859375 111.421875 C 234.05291748046875 112.17433166503906 238.28619384765625 107.37797546386719 237.309326171875 103.0421142578125 C 236.33245849609375 98.70623779296875 230.9217529296875 96.13697814941406 226.80633544921875 97.8262939453125 L 226.09686279296875 101.15512084960938" stroke-width="0.6000000238418579" fill="rgb(233, 92, 21)" opacity="1.0"/>
    <path d="M 207.0518798828125 102.17356872558594 C 205.44973754882812 100.4608154296875 203.3582763671875 98.5810546875 201.08026123046875 99.17132568359375 C 200.18280029296875 99.4415283203125 199.391357421875 99.9835205078125 198.81500244140625 100.72259521484375 C 197.33984375 102.51287841796875 196.82388305664062 104.90711975097656 197.4307861328125 107.14608764648438 C 197.95050048828125 109.04400634765625 199.24066162109375 110.60269165039062 200.5223388671875 112.07997131347656 C 201.24365234375 112.90864562988281 202.036376953125 113.76611328125 203.08969116210938 114.0565185546875 C 204.496826171875 114.43212890625 205.95306396484375 113.68846130371094 207.13528442382812 112.83866882324219 C 208.86703491210938 111.59716796875 210.38641357421875 110.08352661132812 211.63446044921875 108.35650634765625 C 212.0645751953125 107.75897216796875 212.47457885742188 107.10479736328125 212.54434204101562 106.37213134765625 C 212.5743408203125 105.68759155273438 212.404541015625 105.00909423828125 212.05560302734375 104.41940307617188 C 211.06674194335938 102.58944702148438 209.32489013671875 101.28536987304688 207.29049682617188 100.85195922851562 L 207.0518798828125 102.17356872558594" stroke-width="0.6000000238418579" fill="rgb(70, 150, 179)" opacity="1.0"/>
    <path d="M 260.9833984375 123.30776977539062 C 258.828857421875 124.81124877929688 256.50384521484375 126.56817626953125 255.99862670898438 129.1446990966797 C 255.45758056640625 131.91278076171875 257.3173828125 134.6803741455078 259.7008972167969 136.188232421875 C 260.61962890625 136.76998901367188 261.66693115234375 137.22637939453125 262.75360107421875 137.1887969970703 C 263.64691162109375 137.15823364257812 264.4932861328125 136.7992401123047 265.2936096191406 136.40170288085938 C 267.8189392089844 135.15106201171875 270.2691345214844 133.2941131591797 271.1463928222656 130.61669921875 C 272.0286560058594 127.91767883300781 270.97918701171875 124.695556640625 268.66497802734375 123.04579162597656 C 266.3507385253906 121.39602661132812 262.96636962890625 121.42228698730469 260.6903076171875 123.12747192382812 L 260.9833984375 123.30776977539062" stroke-width="0.6000000238418579" fill="rgb(140, 28, 33)" opacity="1.0"/>
    <path d="M 318.7546081542969 111.6904296875 C 318.1034851074219 112.1138916015625 317.4306335449219 112.56170654296875 317.0160827636719 113.21920776367188 C 316.6015319824219 113.87667846679688 316.5207824707031 114.81494140625 317.0379943847656 115.39495849609375 C 317.67803955078125 116.10951232910156 318.9480285644531 115.90866088867188 319.5739440917969 115.17942810058594 C 320.19989013671875 114.4501953125 320.2997741699219 113.39849853515625 320.163330078125 112.44842529296875 C 320.1505432128906 112.15008544921875 320.0263977050781 111.86740112304688 319.8153991699219 111.65611267089844 C 319.5869445800781 111.47140502929688 319.1619873046875 111.52008056640625 319.0824890136719 111.80441284179688 L 318.7546081542969 111.6904296875" stroke-width="0.6000000238418579" fill="rgb(159, 159, 159)" opacity="1.0"/>
    <path d="M 203.79193115234375 123.9864501953125 C 201.38677978515625 122.85513305664062 198.5416259765625 122.52322387695312 196.046875 123.43608093261719 C 193.55206298828125 124.34893798828125 191.50518798828125 126.61141967773438 191.19049072265625 129.2605743408203 C 190.97039794921875 131.1338348388672 191.61279296875 133.04551696777344 192.71005249023438 134.58164978027344 C 193.80731201171875 136.1177978515625 195.32867431640625 137.30886840820312 196.95733642578125 138.2640838623047 C 197.66635131835938 138.67935180664062 198.44012451171875 139.06362915039062 199.2591552734375 139.0348663330078 C 200.19818115234375 139.0023193359375 201.02337646484375 138.43455505371094 201.76351928710938 137.85110473632812 C 203.85302734375 136.20388793945312 205.76974487304688 134.17369079589844 206.5859375 131.64088439941406 C 207.40216064453125 129.10806274414062 206.86297607421875 126.00344848632812 204.76992797851562 124.37088012695312 L 203.79193115234375 123.9864501953125" stroke-width="0.6000000238418579" fill="rgb(159, 159, 159)" opacity="1.0"/>
    <path d="M 279.0399475097656 108.59292602539062 C 276.6655578613281 109.09307861328125 274.0479736328125 109.75189208984375 272.7051086425781 111.76722717285156 C 271.3963928222656 113.72531127929688 271.72357177734375 116.31036376953125 272.1440734863281 118.62876892089844 C 272.3162841796875 119.57032775878906 272.5114440917969 120.5526123046875 273.10821533203125 121.30030822753906 C 274.11676025390625 122.56550598144531 275.9470520019531 122.79037475585938 277.55780029296875 122.66482543945312 C 279.0528869628906 122.54885864257812 280.5235900878906 122.21881103515625 281.92486572265625 121.68478393554688 C 284.200439453125 120.81851196289062 286.4641418457031 119.10971069335938 286.73486328125 116.69076538085938 C 286.8829040527344 115.38508605957031 286.4075927734375 114.06346130371094 285.67132568359375 112.97259521484375 C 284.9350891113281 111.88174438476562 283.9462890625 110.98782348632812 282.9575500488281 110.11924743652344 C 281.96881103515625 109.25067138671875 280.9786682128906 108.41839599609375 279.75048828125 108.04150390625 L 279.0399475097656 108.59292602539062" stroke-width="0.6000000238418579" fill="rgb(218, 166, 20)" opacity="1.0"/>
    <path d="M 241.729736328125 121.29171752929688 C 238.498046875 123.40267944335938 237.58950805664062 127.73374938964844 239.70046997070312 130.96543884277344 C 239.8812255859375 131.24217224121094 240.08139038085938 131.50572204589844 240.2994384765625 131.75413513183594 C 241.12820434570312 132.69786071777344 242.27239990234375 133.43109130859375 243.52578735351562 133.50169372558594 C 244.5849609375 133.5614471435547 245.613037109375 133.15240478515625 246.5499267578125 132.65625 C 249.05593872070312 131.32470703125 251.15972900390625 129.346435546875 252.6427001953125 126.92695617675781 C 253.03363037109375 126.28675842285156 253.38592529296875 125.59613037109375 253.452880859375 124.84739685058594 C 253.5660400390625 123.59048461914062 252.84136962890625 122.38128662109375 251.88824462890625 121.55278015136719 C 250.47406005859375 120.32174682617188 248.54876708984375 119.75617980957031 246.67465209960938 119.824951171875 C 244.80056762695312 119.89372253417969 242.97900390625 120.55865478515625 241.38604736328125 121.54803466796875 L 241.729736328125 121.29171752929688" stroke-width="0.6000000238418579" fill="rgb(143, 165, 67)" opacity="1.0"/>
    <path d="M 251.4873046875 100.9324951171875 C 248.48748779296875 104.15081787109375 250.8875732421875 110.36312866210938 255.20526123046875 111.04557800292969 C 259.52294921875 111.72801208496094 263.645263671875 106.9183349609375 262.61572265625 102.63949584960938 C 261.5861511230469 98.36067199707031 256.19219970703125 95.89471435546875 252.141845703125 97.62648010253906 L 251.4873046875 100.9324951171875" stroke-width="0.6000000238418579" fill="rgb(233, 92, 21)" opacity="1.0"/>
    <path d="M 344.3228454589844 92.18719482421875 C 342.1239013671875 92.20135498046875 339.4986877441406 92.44630432128906 338.4562072753906 94.3909912109375 C 338.07147216796875 95.18106079101562 337.9413757324219 96.07102966308594 338.0838928222656 96.93815612792969 C 338.3787536621094 99.09312438964844 339.6998291015625 100.97149658203125 341.628173828125 101.97763061523438 C 343.26611328125 102.826904296875 345.1604919433594 102.9296875 346.99334716796875 102.98649597167969 C 348.02301025390625 103.01675415039062 349.117919921875 103.01609802246094 349.9880065917969 102.47528076171875 C 351.1418151855469 101.74490356445312 351.55584716796875 100.26872253417969 351.72247314453125 98.91380310058594 C 351.9688415527344 96.93118286132812 351.8926696777344 94.9217529296875 351.4969177246094 92.96347045898438 C 351.35888671875 92.287109375 351.1690673828125 91.58856201171875 350.7087707519531 91.074462890625 C 350.2563171386719 90.61834716796875 349.680908203125 90.30374145507812 349.052734375 90.16899108886719 C 347.1631774902344 89.68612670898438 345.1568908691406 90.05648803710938 343.5642395019531 91.18215942382812 L 344.3228454589844 92.18719482421875" stroke-width="0.6000000238418579" fill="rgb(70, 150, 179)" opacity="1.0"/>
    <path d="M 341.8015441894531 114.7393798828125 C 339.91058349609375 112.77011108398438 337.7319030761719 110.666748046875 335.00543212890625 110.563720703125 C 332.0765380859375 110.45481872558594 329.535400390625 112.81048583984375 328.3719482421875 115.50054931640625 C 327.9229431152344 116.53753662109375 327.6233825683594 117.686279296875 327.8372497558594 118.79576110839844 C 328.0126953125 119.7078857421875 328.51776123046875 120.51882934570312 329.0549621582031 121.27629089355469 C 330.7462158203125 123.6669921875 333.0477294921875 125.88272094726562 335.9377746582031 126.35140991210938 C 338.850830078125 126.82174682617188 341.9892883300781 125.22463989257812 343.3095703125 122.58279418945312 C 344.6298828125 119.94096374511719 344.0569763183594 116.47090148925781 341.9393615722656 114.40943908691406 L 341.8015441894531 114.7393798828125" stroke-width="0.6000000238418579" fill="rgb(140, 28, 33)" opacity="1.0"/>
    <path d="M 361.6704406738281 102.32955932617188 C 361.1567077636719 102.69805908203125 360.626220703125 103.08717346191406 360.3135681152344 103.63720703125 C 360.0008850097656 104.18721008300781 359.9700927734375 104.953125 360.41217041015625 105.40556335449219 C 360.9591369628906 105.96281433105469 361.9843444824219 105.75233459472656 362.46624755859375 105.13613891601562 C 362.9481201171875 104.51992797851562 362.99029541015625 103.66105651855469 362.84405517578125 102.89358520507812 C 362.8226013183594 102.65147399902344 362.7111511230469 102.42620849609375 362.5317077636719 102.26226806640625 C 362.339111328125 102.12054443359375 361.995361328125 102.17591857910156 361.9412841796875 102.41006469726562 L 361.6704406738281 102.32955932617188" stroke-width="0.6000000238418579" fill="rgb(159, 159, 159)" opacity="1.0"/>
    <path d="M 355.7375793457031 113.73594665527344 C 353.34527587890625 114.2481689453125 351.0763854980469 115.5911865234375 349.7580261230469 117.65060424804688 C 348.4396667480469 119.70999145507812 348.2017517089844 122.50822448730469 349.4481201171875 124.62396240234375 C 350.33123779296875 126.11869812011719 351.8674621582031 127.16078186035156 353.5274963378906 127.67417907714844 C 355.18756103515625 128.18759155273438 356.9658508300781 128.21185302734375 358.6912536621094 128.00352478027344 C 359.4420471191406 127.91241455078125 360.2230224609375 127.76251220703125 360.8068542480469 127.28485107421875 C 361.47650146484375 126.73751831054688 361.7643737792969 125.86163330078125 361.981201171875 125.02166748046875 C 362.5933532714844 122.65031433105469 362.86541748046875 120.09481811523438 362.05120849609375 117.78469848632812 C 361.2370300292969 115.47454833984375 359.1113586425781 113.50119018554688 356.668212890625 113.47230529785156 L 355.7375793457031 113.73594665527344" stroke-width="0.6000000238418579" fill="rgb(159, 159, 159)" opacity="1.0"/>
    <path d="M 367.10601806640625 106.39816284179688 C 364.84747314453125 106.73483276367188 362.3515930175781 107.2069091796875 360.9770812988281 109.0247802734375 C 359.63787841796875 110.79078674316406 359.80023193359375 113.23751831054688 360.0652160644531 115.43899536132812 C 360.1741943359375 116.33314514160156 360.30242919921875 117.26683044433594 360.8210754394531 118.002685546875 C 361.69757080078125 119.24777221679688 363.404296875 119.56166076660156 364.9244689941406 119.5340576171875 C 366.33544921875 119.50897216796875 367.7355041503906 119.28141784667969 369.0818176269531 118.85835266113281 C 371.26806640625 118.17221069335938 373.4903869628906 116.69393920898438 373.88037109375 114.43679809570312 C 374.0926818847656 113.21853637695312 373.7203063964844 111.95036315917969 373.08984375 110.88432312011719 C 372.45941162109375 109.81826782226562 371.5806884765625 108.92308044433594 370.7005615234375 108.05169677734375 C 369.8204650878906 107.18031311035156 368.93701171875 106.34294128417969 367.8044128417969 105.92001342773438 L 367.10601806640625 106.39816284179688" stroke-width="0.6000000238418579" fill="rgb(218, 166, 20)" opacity="1.0"/>
    <path d="M 429.4716796875 165.2066650390625 C 425.8355712890625 164.84259033203125 422.5927734375 167.49505615234375 422.2286376953125 171.13116455078125 C 422.197509765625 171.4425048828125 422.1884765625 171.75567626953125 422.20159912109375 172.06832885742188 C 422.251708984375 173.25628662109375 422.659423828125 174.47650146484375 423.5413818359375 175.273193359375 C 424.2864990234375 175.946533203125 425.2872314453125 176.25579833984375 426.2725830078125 176.44674682617188 C 428.9107666015625 176.95416259765625 431.63671875 176.7459716796875 434.167236328125 175.84375 C 434.835693359375 175.6041259765625 435.505615234375 175.30441284179688 435.9998779296875 174.79232788085938 C 436.8299560546875 173.93313598632812 437.0142822265625 172.61135864257812 436.803955078125 171.4344482421875 C 436.4930419921875 169.6868896484375 435.40997314453125 168.12619018554688 433.98779296875 167.06344604492188 C 432.565673828125 166.00070190429688 430.8280029296875 165.4085693359375 429.0660400390625 165.19140625 L 429.4716796875 165.2066650390625" stroke-width="0.6000000238418579" fill="rgb(143, 165, 67)" opacity="1.0"/>
    <path d="M 136.8433074951172 411.2640686035156 C 132.9449462890625 413.33099365234375 133.18313598632812 420.0059814453125 137.05177307128906 422.0682373046875 C 140.92041015625 424.130615234375 146.40438842773438 420.92333984375 146.83132934570312 416.5302734375 C 147.25828552246094 412.13726806640625 142.95423889160156 408.0316467285156 138.5475311279297 408.3451843261719 L 136.8433074951172 411.2640686035156" stroke-width="0.6000000238418579" fill="rgb(233, 92, 21)" opacity="1.0"/>
    <path d="M 429.08056640625 175.44061279296875 C 427.016845703125 174.90234375 424.49591064453125 174.47341918945312 423.031494140625 176.03390502929688 C 422.472900390625 176.6776123046875 422.1278076171875 177.478759765625 422.0438232421875 178.326904296875 C 421.77960205078125 180.4197998046875 422.546142578125 182.51092529296875 424.1004638671875 183.93719482421875 C 425.4219970703125 185.1436767578125 427.1710205078125 185.715087890625 428.8739013671875 186.22802734375 C 429.83099365234375 186.51458740234375 430.85693359375 186.78860473632812 431.8077392578125 186.5001220703125 C 433.0718994140625 186.105224609375 433.830078125 184.82611083984375 434.3260498046875 183.5985107421875 C 435.0540771484375 181.80279541015625 435.4866943359375 179.901123046875 435.6070556640625 177.96719360351562 C 435.6473388671875 177.29888916015625 435.644775390625 176.59683227539062 435.3424072265625 175.999755859375 C 435.032958984375 175.45895385742188 434.57275390625 175.0198974609375 434.01806640625 174.736083984375 C 432.368896484375 173.80978393554688 430.3963623046875 173.653564453125 428.62188720703125 174.30874633789062 L 429.08056640625 175.44061279296875" stroke-width="0.6000000238418579" fill="rgb(70, 150, 179)" opacity="1.0"/>
    <path d="M 417.58795166015625 161.8216552734375 C 415.891845703125 160.00457763671875 413.935546875 158.06170654296875 411.4548034667969 157.93280029296875 C 408.78985595703125 157.79595947265625 406.4461975097656 159.90771484375 405.3524169921875 162.3416748046875 C 404.9302978515625 163.2799072265625 404.6427917480469 164.32183837890625 404.8232116699219 165.33462524414062 C 404.97119140625 166.167236328125 405.4205627441406 166.9119873046875 405.89984130859375 167.60845947265625 C 407.40869140625 169.806640625 409.4753723144531 171.8533935546875 412.100341796875 172.3172607421875 C 414.7462158203125 172.782958984375 417.6239013671875 171.369384765625 418.85986328125 168.98138427734375 C 420.0958251953125 166.5933837890625 419.618896484375 163.427001953125 417.7176513671875 161.5230712890625 L 417.58795166015625 161.8216552734375" stroke-width="0.6000000238418579" fill="rgb(140, 28, 33)" opacity="1.0"/>
    <path d="M 147.0 115.0 C 146.4952392578125 115.379150390625 145.97418212890625 115.77923583984375 145.67410278320312 116.33518981933594 C 145.37403869628906 116.89112854003906 145.36009216308594 117.65643310546875 145.8113555908203 118.098388671875 C 146.36961364746094 118.6427001953125 147.38845825195312 118.41009521484375 147.85601806640625 117.78436279296875 C 148.3235626220703 117.15863037109375 148.34681701660156 116.30029296875 148.18399047851562 115.53732299804688 C 148.15725708007812 115.29611206054688 148.0410614013672 115.07366943359375 147.85833740234375 114.91392517089844 C 147.66294860839844 114.77668762207031 147.3209991455078 114.83950805664062 147.27215576171875 115.07443237304688 L 147.0 115.0" stroke-width="0.6000000238418579" fill="rgb(159, 159, 159)" opacity="1.0"/>
    <path d="M 425.4949951171875 171.9970703125 C 423.25787353515625 171.7169189453125 420.8760986328125 172.19708251953125 419.10400390625 173.58905029296875 C 417.33203125 174.98104858398438 416.27587890625 177.34375 416.718505859375 179.56292724609375 C 417.03338623046875 181.13153076171875 418.053955078125 182.50442504882812 419.3426513671875 183.45489501953125 C 420.63134765625 184.40533447265625 422.17138671875 184.96600341796875 423.7359619140625 185.30825805664062 C 424.4168701171875 185.456787109375 425.1419677734375 185.56332397460938 425.794921875 185.3248291015625 C 426.543701171875 185.0517578125 427.0599365234375 184.376953125 427.50347900390625 183.71185302734375 C 428.75567626953125 181.83416748046875 429.767822265625 179.69305419921875 429.76025390625 177.43585205078125 C 429.7528076171875 175.17861938476562 428.50189208984375 172.8165283203125 426.384765625 172.050048828125 L 425.4949951171875 171.9970703125" stroke-width="0.6000000238418579" fill="rgb(159, 159, 159)" opacity="1.0"/>
    <path d="M 417.3975830078125 178.94937133789062 C 415.5457763671875 177.33349609375 413.41748046875 175.61761474609375 410.96868896484375 175.7596435546875 C 408.58709716796875 175.89447021484375 406.69537353515625 177.73468017578125 405.07623291015625 179.4879150390625 C 404.4195556640625 180.20111083984375 403.743896484375 180.9576416015625 403.5027770996094 181.8961181640625 C 403.09405517578125 183.48309326171875 404.0276794433594 185.10073852539062 405.1109924316406 186.32720947265625 C 406.1160583496094 187.4659423828125 407.2794494628906 188.4544677734375 408.56549072265625 189.26251220703125 C 410.6532287597656 190.5753173828125 413.415283203125 191.364990234375 415.5369873046875 190.109619140625 C 416.6834716796875 189.43359375 417.46282958984375 188.24356079101562 417.896484375 186.98309326171875 C 418.3302001953125 185.72265625 418.45068359375 184.3779296875 418.5506591796875 183.0487060546875 C 418.650634765625 181.719482421875 418.72039794921875 180.4112548828125 418.2767333984375 179.18804931640625 L 417.3975830078125 178.94937133789062" stroke-width="0.6000000238418579" fill="rgb(218, 166, 20)" opacity="1.0"/>
    <path d="M 441.459716796875 176.74069213867188 C 438.070556640625 178.846435546875 437.0301513671875 183.3009033203125 439.1358642578125 186.6900634765625 C 439.316162109375 186.98025512695312 439.516845703125 187.25732421875 439.736328125 187.51913452148438 C 440.5706787109375 188.51382446289062 441.7359619140625 189.29840087890625 443.029541015625 189.40069580078125 C 444.1226806640625 189.4873046875 445.1947021484375 189.08868408203125 446.174560546875 188.59793090820312 C 448.79547119140625 187.2806396484375 451.01593017578125 185.28558349609375 452.605224609375 182.820068359375 C 453.024169921875 182.16763305664062 453.4044189453125 181.46218872070312 453.4912109375 180.69000244140625 C 453.6375732421875 179.39373779296875 452.9171142578125 178.12716674804688 451.9515380859375 177.24862670898438 C 450.5189208984375 175.94329833984375 448.5426025390625 175.313720703125 446.604248046875 175.3408203125 C 444.6658935546875 175.36798095703125 442.76788330078125 176.01242065429688 441.0985107421875 176.99749755859375 L 441.459716796875 176.74069213867188" stroke-width="0.6000000238418579" fill="rgb(143, 165, 67)" opacity="1.0"/>
    <path d="M 142.20411682128906 110.677978515625 C 134.54884338378906 113.58920288085938 133.45376586914062 125.93841552734375 140.1054229736328 130.62594604492188 C 146.75711059570312 135.31344604492188 157.59490966796875 130.66624450683594 159.3907470703125 122.67288208007812 C 161.18661499023438 114.67950439453125 154.20248413085938 106.12843322753906 146.01380920410156 105.69332885742188 L 142.20411682128906 110.677978515625" stroke-width="0.6000000238418579" fill="rgb(233, 92, 21)" opacity="1.0"/>
    <path d="M 441.2869873046875 150.77456665039062 C 437.9990234375 152.8590850830078 434.2877197265625 155.69009399414062 434.54742431640625 159.58773803710938 C 434.711181640625 161.13482666015625 435.35089111328125 162.59298706054688 436.37847900390625 163.76104736328125 C 438.8431396484375 166.71957397460938 442.58892822265625 168.2999267578125 446.427978515625 168.00103759765625 C 449.683837890625 167.7391357421875 452.62420654296875 166.11590576171875 455.42913818359375 164.48141479492188 C 457.0032958984375 163.56069946289062 458.646484375 162.5323486328125 459.4451904296875 160.904052734375 C 460.4920654296875 158.72491455078125 459.728515625 156.12030029296875 458.7073974609375 153.9298553466797 C 457.2169189453125 150.72225952148438 455.21710205078125 147.7770538330078 452.7855224609375 145.20848083496094 C 451.94366455078125 144.32261657714844 451.00323486328125 143.45199584960938 449.829833984375 143.1121063232422 C 448.72259521484375 142.85189819335938 447.5635986328125 142.9194793701172 446.49407958984375 143.30661010742188 C 443.2042236328125 144.3546905517578 440.539794921875 146.79319763183594 439.205078125 149.9775390625 L 441.2869873046875 150.77456665039062" stroke-width="0.6000000238418579" fill="rgb(70, 150, 179)" opacity="1.0"/>
    <path d="M 379.2138671875 89.5787353515625 C 376.4121398925781 86.516357421875 373.17803955078125 83.23959350585938 369.0379943847656 82.98300170898438 C 364.5904846191406 82.71002197265625 360.64190673828125 86.197021484375 358.77496337890625 90.24282836914062 C 358.0544738769531 91.80242919921875 357.5570373535156 93.53738403320312 357.84136962890625 95.23147583007812 C 358.0745849609375 96.62419128417969 358.81243896484375 97.875244140625 359.60113525390625 99.04617309570312 C 362.0838317871094 102.74172973632812 365.5005187988281 106.19378662109375 369.8757629394531 107.01214599609375 C 374.2859191894531 107.8338623046875 379.114501953125 105.52163696289062 381.21807861328125 101.55488586425781 C 383.3216857910156 97.588134765625 382.5782775878906 92.29312133789062 379.4354248046875 89.08230590820312 L 379.2138671875 89.5787353515625" stroke-width="0.6000000238418579" fill="rgb(140, 28, 33)" opacity="1.0"/>
    <path d="M 129.01705932617188 405.6627197265625 C 127.93051147460938 406.1865539550781 126.80569458007812 406.7436218261719 126.03738403320312 407.67462158203125 C 125.26910400390625 408.6056213378906 124.95960998535156 410.03497314453125 125.64187622070312 411.030517578125 C 126.48680114746094 412.2574462890625 128.4827117919922 412.19866943359375 129.59078979492188 411.1988525390625 C 130.69886779785156 410.19903564453125 131.06024169921875 408.5987243652344 131.03749084472656 407.1082763671875 C 131.07667541503906 406.6462097167969 130.94122314453125 406.1862487792969 130.65786743164062 405.81915283203125 C 130.3424072265625 405.48956298828125 129.67819213867188 405.480712890625 129.49964904785156 405.9029846191406 L 129.01705932617188 405.6627197265625" stroke-width="0.6000000238418579" fill="rgb(159, 159, 159)" opacity="1.0"/>
    <path d="M 417.0614013671875 199.559326171875 C 413.53277587890625 197.23956298828125 409.13250732421875 196.07818603515625 405.0035705566406 196.95333862304688 C 400.8746337890625 197.8284912109375 397.1468505859375 200.927001953125 396.0566711425781 205.02288818359375 C 395.28955078125 207.919677734375 395.87030029296875 211.07073974609375 397.25091552734375 213.73333740234375 C 398.63153076171875 216.39599609375 400.75665283203125 218.61117553710938 403.1036071777344 220.47952270507812 C 404.12542724609375 221.2919921875 405.25604248046875 222.07025146484375 406.5506896972656 222.20904541015625 C 408.034912109375 222.36886596679688 409.46038818359375 221.66131591796875 410.7555847167969 220.90997314453125 C 414.41217041015625 218.78875732421875 417.8829345703125 216.02633666992188 419.73583984375 212.22613525390625 C 421.58868408203125 208.4259033203125 421.4383544921875 203.42178344726562 418.51318359375 200.38372802734375 L 417.0614013671875 199.559326171875" stroke-width="0.6000000238418579" fill="rgb(159, 159, 159)" opacity="1.0"/>
    <path d="M 385.3561096191406 110.96952819824219 C 381.1291809082031 111.28741455078125 376.44451904296875 111.82388305664062 373.6539611816406 115.00357055664062 C 370.9357604980469 118.092041015625 370.90545654296875 122.643798828125 371.0983581542969 126.75540161132812 C 371.1791687011719 128.42555236816406 371.29034423828125 130.1715087890625 372.15106201171875 131.60398864746094 C 373.6053771972656 134.0276336669922 376.7227478027344 134.83956909179688 379.5408935546875 134.9940185546875 C 382.15655517578125 135.13839721679688 384.77935791015625 134.9064178466797 387.3291015625 134.3052215576172 C 391.469482421875 133.33055114746094 395.78375244140625 130.89422607421875 396.81097412109375 126.76812744140625 C 397.3687744140625 124.54141235351562 396.850830078125 122.14315795898438 395.82781982421875 120.08425903320312 C 394.8047790527344 118.02536010742188 393.2989501953125 116.24919128417969 391.7873840332031 114.51690673828125 C 390.27581787109375 112.78463745117188 388.7534484863281 111.1148681640625 386.7137451171875 110.1787109375 L 385.3561096191406 110.96952819824219" stroke-width="0.6000000238418579" fill="rgb(218, 166, 20)" opacity="1.0"/>
    <path d="M 399.0654602050781 89.8304443359375 C 393.5450744628906 86.47406005859375 386.3490295410156 88.22831726074219 382.9926452636719 93.74868774414062 C 382.7052307128906 94.22140502929688 382.45172119140625 94.71389770507812 382.2340087890625 95.22250366210938 C 381.4071044921875 97.15518188476562 381.1257629394531 99.41227722167969 381.9238586425781 101.35592651367188 C 382.59814453125 102.99851989746094 383.9578857421875 104.25570678710938 385.3833923339844 105.31234741210938 C 389.2030029296875 108.135498046875 393.7088623046875 109.88444519042969 398.43292236328125 110.37748718261719 C 399.6818542480469 110.50570678710938 400.9790344238281 110.5391845703125 402.15802001953125 110.099853515625 C 404.1377258300781 109.36346435546875 405.4406433105469 107.39637756347656 406.0037841796875 105.35903930664062 C 406.8419494628906 102.33491516113281 406.3063049316406 99.01934814453125 404.8497009277344 96.23893737792969 C 403.39312744140625 93.45855712890625 401.0741882324219 91.18777465820312 398.4303283691406 89.49642944335938 L 399.0654602050781 89.8304443359375" stroke-width="0.6000000238418579" fill="rgb(143, 165, 67)" opacity="1.0"/>
    <path d="M 120.93109130859375 416.90985107421875 C 114.29364013671875 412.3538818359375 103.70231628417969 418.3817138671875 103.63809204101562 426.3802490234375 C 103.57389831542969 434.3787841796875 113.39552307128906 440.5345458984375 120.85952758789062 437.51123046875 C 128.3235321044922 434.4879150390625 131.32345581054688 424.0579833984375 127.09129333496094 417.1978759765625 L 120.93109130859375 416.90985107421875" stroke-width="0.6000000238418579" fill="rgb(233, 92, 21)" opacity="1.0"/>
    <path d="M 438.1112060546875 197.54937744140625 C 434.7816162109375 199.6588134765625 431.023193359375 202.52392578125 431.284912109375 206.47021484375 C 431.4501953125 208.03662109375 432.097412109375 209.51312255859375 433.137451171875 210.69607543945312 C 435.6318359375 213.6922607421875 439.42376708984375 215.29351806640625 443.31072998046875 214.9920654296875 C 446.6072998046875 214.72796630859375 449.584716796875 213.08547973632812 452.4251708984375 211.4315185546875 C 454.019287109375 210.49984741210938 455.6832275390625 209.45919799804688 456.492431640625 207.81088256835938 C 457.552978515625 205.60494995117188 456.78082275390625 202.96762084960938 455.7476806640625 200.74957275390625 C 454.2396240234375 197.50152587890625 452.2158203125 194.51901245117188 449.7547607421875 191.91766357421875 C 448.9027099609375 191.0205078125 447.95086669921875 190.13873291015625 446.762939453125 189.79421997070312 C 445.6419677734375 189.5303955078125 444.468505859375 189.59844970703125 443.3856201171875 189.99005126953125 C 440.054443359375 191.0501708984375 437.35601806640625 193.5181884765625 436.003662109375 196.74176025390625 L 438.1112060546875 197.54937744140625" stroke-width="0.6000000238418579" fill="rgb(70, 150, 179)" opacity="1.0"/>
    <path d="M 419.2305908203125 137.94464111328125 C 416.384521484375 134.64321899414062 413.09130859375 131.10336303710938 408.75341796875 130.70567321777344 C 404.0933532714844 130.28125 399.8404541015625 133.8191680908203 397.75531005859375 138.00816345214844 C 396.95068359375 139.6229248046875 396.3747253417969 141.42868041992188 396.62066650390625 143.2157745361328 C 396.8222961425781 144.68495178222656 397.55804443359375 146.0210418701172 398.3496398925781 147.27462768554688 C 400.8411865234375 151.23080444335938 404.3206481933594 154.96031188964844 408.8879699707031 155.95497131347656 C 413.4918212890625 156.9542236328125 418.632080078125 154.67678833007812 420.963134765625 150.57810974121094 C 423.294189453125 146.4794158935547 422.67803955078125 140.89822387695312 419.478515625 137.430419921875 L 419.2305908203125 137.94464111328125" stroke-width="0.6000000238418579" fill="rgb(140, 28, 33)" opacity="1.0"/>
    <path d="M 403.9826354980469 90.16592407226562 C 403.6094055175781 91.36395263671875 403.2342834472656 92.61468505859375 403.3965759277344 93.85986328125 C 403.55889892578125 95.10502624511719 404.4258728027344 96.355224609375 405.6672058105469 96.54336547851562 C 407.1999816894531 96.77217102050781 408.5724182128906 95.21293640136719 408.59906005859375 93.66058349609375 C 408.62567138671875 92.10821533203125 407.6655578613281 90.69718933105469 406.5162658691406 89.65621948242188 C 406.1927795410156 89.29833984375 405.74688720703125 89.07473754882812 405.2666015625 89.02952575683594 C 404.7920227050781 89.03533935546875 404.3136901855469 89.53404235839844 404.5079650878906 89.96963500976562 L 403.9826354980469 90.16592407226562" stroke-width="0.6000000238418579" fill="rgb(159, 159, 159)" opacity="1.0"/>
    <path d="M 435.93145751953125 227.440185546875 C 432.63128662109375 230.1778564453125 430.197265625 234.10586547851562 429.82122802734375 238.375 C 429.4451904296875 242.64410400390625 431.34722900390625 247.18377685546875 435.00079345703125 249.4583740234375 C 437.5859375 251.06326293945312 440.818115234375 251.43484497070312 443.8134765625 250.88470458984375 C 446.808837890625 250.33453369140625 449.59075927734375 248.92864990234375 452.10174560546875 247.204345703125 C 453.19403076171875 246.453369140625 454.285400390625 245.5865478515625 454.8045654296875 244.37060546875 C 455.400390625 242.976806640625 455.136474609375 241.38259887695312 454.7913818359375 239.90185546875 C 453.8172607421875 235.72149658203125 452.165283203125 231.53115844726562 449.0252685546875 228.603759765625 C 445.88519287109375 225.67636108398438 440.9814453125 224.33673095703125 437.1629638671875 226.27517700195312 L 435.93145751953125 227.440185546875" stroke-width="0.6000000238418579" fill="rgb(159, 159, 159)" opacity="1.0"/>
    <path d="M 414.6376953125 256.31085205078125 C 411.1011962890625 253.68353271484375 407.056396484375 250.91632080078125 402.70025634765625 251.51449584960938 C 398.46307373046875 252.09027099609375 395.3411560058594 255.6448974609375 392.69415283203125 259.0057067871094 C 391.620849609375 260.3725891113281 390.5198059082031 261.81964111328125 390.2208557128906 263.5306701660156 C 389.7135314941406 266.4242248535156 391.6094970703125 269.18377685546875 393.7179260253906 271.2232360839844 C 395.6741638183594 273.116943359375 397.8922119140625 274.7199401855469 400.30413818359375 275.9831848144531 C 404.21966552734375 278.0357360839844 409.26666259765625 279.05853271484375 412.88189697265625 276.51678466796875 C 414.83563232421875 275.1474609375 416.0611572265625 272.9111633300781 416.658935546875 270.59765625 C 417.25677490234375 268.2841491699219 417.282958984375 265.86407470703125 417.27471923828125 263.474609375 C 417.2664794921875 261.0851135253906 417.207275390625 258.7373962402344 416.2423095703125 256.61376953125 L 414.6376953125 256.31085205078125" stroke-width="0.6000000238418579" fill="rgb(218, 166, 20)" opacity="1.0"/>
    <path d="M 412.07080078125 91.56179809570312 C 406.4986877441406 95.05120849609375 404.810302734375 102.39701843261719 408.2997131347656 107.96914672851562 C 408.5985107421875 108.4462890625 408.9307861328125 108.90164184570312 409.29400634765625 109.33175659179688 C 410.6745300292969 110.96588134765625 412.59912109375 112.2518310546875 414.731201171875 112.41290283203125 C 416.532958984375 112.54920959472656 418.2969970703125 111.88616943359375 419.9085693359375 111.07180786132812 C 424.21954345703125 108.88601684570312 427.8665771484375 105.58580017089844 430.470947265625 101.51400756835938 C 431.15753173828125 100.43655395507812 431.77996826171875 99.27194213867188 431.91839599609375 97.99909973144531 C 432.152099609375 95.86238098144531 430.95751953125 93.77960205078125 429.36138916015625 92.33761596679688 C 426.9932861328125 90.19515991210938 423.733154296875 89.16926574707031 420.5394287109375 89.22526550292969 C 417.34576416015625 89.28126525878906 414.22210693359375 90.35418701171875 411.4771728515625 91.987060546875 L 412.07080078125 91.56179809570312" stroke-width="0.6000000238418579" fill="rgb(143, 165, 67)" opacity="1.0"/>
    <path d="M 436.72418212890625 127.02865600585938 C 431.09228515625 132.18118286132812 434.38671875 143.25633239746094 441.7601318359375 145.03189086914062 C 449.133544921875 146.8074188232422 456.9261474609375 139.057373046875 455.7354736328125 131.5151824951172 C 454.5447998046875 123.97299194335938 445.55584716796875 118.96444702148438 438.31201171875 121.40113830566406 L 436.72418212890625 127.02865600585938" stroke-width="0.6000000238418579" fill="rgb(233, 92, 21)" opacity="1.0"/>
    <path d="M 435.51123046875 102.28726196289062 C 432.3118896484375 104.43696594238281 428.71307373046875 107.33665466308594 429.07275390625 111.18754577636719 C 429.2755126953125 112.7144775390625 429.947021484375 114.140869140625 430.994873046875 115.26992797851562 C 433.51214599609375 118.13327026367188 437.2611083984375 119.59886169433594 441.052978515625 119.20196533203125 C 444.26861572265625 118.8570556640625 447.1361083984375 117.173095703125 449.869384765625 115.48150634765625 C 451.40313720703125 114.52879333496094 453.00244140625 113.46772766113281 453.7501220703125 111.8350830078125 C 454.7288818359375 109.65072631835938 453.9046630859375 107.09288024902344 452.8363037109375 104.95175170898438 C 451.27667236328125 101.81623840332031 449.2198486328125 98.95384216308594 446.74554443359375 96.47557067871094 C 445.88897705078125 95.62094116210938 444.935302734375 94.78396606445312 443.76495361328125 94.47845458984375 C 442.6622314453125 94.25006103515625 441.516845703125 94.34744262695312 440.468505859375 94.75875854492188 C 437.239990234375 95.8826904296875 434.6669921875 98.36634826660156 433.4296875 101.55319213867188 L 435.51123046875 102.28726196289062" stroke-width="0.6000000238418579" fill="rgb(70, 150, 179)" opacity="1.0"/>
    <path d="M 312.0 391.0 C 307.9190979003906 390.5360412597656 303.3762512207031 390.193115234375 300.1203918457031 392.6924743652344 C 296.6244812011719 395.37945556640625 295.9446716308594 400.54766845703125 297.1812438964844 404.7798767089844 C 297.6573181152344 406.4118347167969 298.4137878417969 408.0296630859375 299.7270202636719 409.10888671875 C 300.8062438964844 409.9964904785156 302.169921875 410.45037841796875 303.51947021484375 410.81146240234375 C 307.77386474609375 411.9552307128906 312.5668640136719 412.310302734375 316.36334228515625 410.0771789550781 C 320.18804931640625 407.82391357421875 322.28802490234375 402.9602966308594 321.2793884277344 398.63330078125 C 320.270751953125 394.3062744140625 316.2745666503906 390.838623046875 311.8426513671875 390.485595703125 L 312.0 391.0" stroke-width="0.6000000238418579" fill="rgb(140, 28, 33)" opacity="1.0"/>
    <path d="M 311.0 391.0 C 309.6507568359375 392.01348876953125 308.2579650878906 393.08294677734375 307.45587158203125 394.5689697265625 C 306.65380859375 396.0550231933594 306.6164855957031 398.10064697265625 307.8227233886719 399.28204345703125 C 309.3149719238281 400.7369689941406 312.0383605957031 400.1152038574219 313.2881164550781 398.442626953125 C 314.53790283203125 396.7700500488281 314.6000671386719 394.4757080078125 314.1648254394531 392.4363098144531 C 314.0933532714844 391.7914733886719 313.78277587890625 391.1969299316406 313.2943420410156 390.7699279785156 C 312.7720642089844 390.403076171875 311.8580627441406 390.57098388671875 311.72747802734375 391.1989440917969 L 311.0 391.0" stroke-width="0.6000000238418579" fill="rgb(159, 159, 159)" opacity="1.0"/>
    <path d="M 323.132080078125 397.65936279296875 C 317.91455078125 398.8977355957031 313.0076904296875 401.9507141113281 310.218505859375 406.5274658203125 C 307.4293518066406 411.10418701171875 307.0435791015625 417.24761962890625 309.87738037109375 421.823486328125 C 311.8849792480469 425.05615234375 315.3018493652344 427.2652587890625 318.9644775390625 428.3099365234375 C 322.6271057128906 429.3544921875 326.5251159667969 429.321533203125 330.2959899902344 428.7813720703125 C 331.93682861328125 428.54534912109375 333.6408996582031 428.17901611328125 334.8971862792969 427.10400390625 C 336.3380432128906 425.87213134765625 336.92645263671875 423.9388427734375 337.36090087890625 422.08770751953125 C 338.58740234375 416.861572265625 339.0597229003906 411.2484130859375 337.16363525390625 406.2255859375 C 335.26751708984375 401.2027587890625 330.5138244628906 396.9814453125 325.15863037109375 397.0365295410156 L 323.132080078125 397.65936279296875" stroke-width="0.6000000238418579" fill="rgb(159, 159, 159)" opacity="1.0"/>
    <path d="M 267.41143798828125 400.5762634277344 C 262.2683410644531 402.4614562988281 256.6332092285156 404.77972412109375 254.28466796875 409.7165832519531 C 251.99392700195312 414.51446533203125 253.56076049804688 420.1842041015625 255.2498779296875 425.2279052734375 C 255.9390869140625 427.27587890625 256.6927490234375 429.4073486328125 258.2677917480469 430.8848876953125 C 260.9302062988281 433.385498046875 265.09210205078125 433.2960205078125 268.6501770019531 432.49468994140625 C 271.9530029296875 431.752197265625 275.132080078125 430.5391845703125 278.0901184082031 428.89300537109375 C 282.89410400390625 426.2218017578125 287.3990478515625 421.67205810546875 287.2216796875 416.18017578125 C 287.1302795410156 413.21514892578125 285.6409912109375 410.4161071777344 283.6433410644531 408.21697998046875 C 281.64569091796875 406.0178527832031 279.1474914550781 404.34039306640625 276.6575927734375 402.7195739746094 C 274.167724609375 401.0987243652344 271.6864318847656 399.5594177246094 268.8205871582031 399.114501953125 L 267.41143798828125 400.5762634277344" stroke-width="0.6000000238418579" fill="rgb(218, 166, 20)" opacity="1.0"/>
    <path d="M 227.22213745117188 403.71453857421875 C 218.56549072265625 401.40869140625 209.6785888671875 406.55706787109375 207.37277221679688 415.2137451171875 C 207.17529296875 415.95501708984375 207.03070068359375 416.7093505859375 206.94000244140625 417.4710693359375 C 206.59591674804688 420.3656005859375 207.10446166992188 423.478271484375 208.92645263671875 425.7518310546875 C 210.4659423828125 427.6732177734375 212.76654052734375 428.8138427734375 215.07623291015625 429.6619873046875 C 221.26177978515625 431.92364501953125 227.9400634765625 432.48785400390625 234.41738891601562 431.2960205078125 C 236.1290283203125 430.97808837890625 237.86776733398438 430.5152587890625 239.26434326171875 429.4696044921875 C 241.60995483398438 427.7156982421875 242.5738525390625 424.5892333984375 242.526123046875 421.65863037109375 C 242.45831298828125 417.3077392578125 240.44888305664062 413.10650634765625 237.42361450195312 409.9774169921875 C 234.39837646484375 406.8483581542969 230.42526245117188 404.7345275878906 226.24658203125 403.51861572265625 L 227.22213745117188 403.71453857421875" stroke-width="0.6000000238418579" fill="rgb(143, 165, 67)" opacity="1.0"/>
    <path d="M 287.7522888183594 380.3439025878906 C 281.4084777832031 387.7594299316406 287.31427001953125 401.29974365234375 296.9471435546875 402.4041442871094 C 306.58001708984375 403.5085144042969 315.260986328125 392.4603271484375 312.57513427734375 383.0753173828125 C 309.8892822265625 373.6903381347656 297.7027587890625 368.7351989746094 288.89044189453125 372.9556579589844 L 287.7522888183594 380.3439025878906" stroke-width="0.6000000238418579" fill="rgb(233, 92, 21)" opacity="1.0"/>
    <path d="M 337.30859375 378.4023742675781 C 333.19525146484375 381.2552490234375 328.5776672363281 385.0897216796875 329.1185607910156 390.0834045410156 C 329.4111633300781 392.06231689453125 330.31060791015625 393.90167236328125 331.69287109375 395.34771728515625 C 335.01666259765625 399.01763916015625 339.9130554199219 400.848876953125 344.829345703125 400.2607116699219 C 348.9984436035156 399.7511291503906 352.68975830078125 397.5093994140625 356.2065124511719 395.2603454589844 C 358.1799621582031 393.9937744140625 360.236328125 392.585205078125 361.1759338378906 390.4508056640625 C 362.405029296875 387.59552001953125 361.28564453125 384.2898254394531 359.85723876953125 381.5299377441406 C 357.7718200683594 377.48822021484375 355.0459899902344 373.8106994628906 351.7854309082031 370.6400146484375 C 350.65673828125 369.5466613769531 349.4022521972656 368.4781188964844 347.8766174316406 368.1038513183594 C 346.4403076171875 367.8283996582031 344.954833984375 367.9768371582031 343.6014099121094 368.53106689453125 C 339.4305114746094 370.0525207519531 336.1369934082031 373.3270263671875 334.59149169921875 377.48907470703125 L 337.30859375 378.4023742675781" stroke-width="0.6000000238418579" fill="rgb(70, 150, 179)" opacity="1.0"/>
    <path d="M 301.0821533203125 400.2093811035156 C 295.7685546875 402.0240478515625 289.95501708984375 404.258544921875 287.394775390625 409.25177001953125 C 284.647705078125 414.61724853515625 286.8319091796875 421.4005126953125 290.836181640625 425.906005859375 C 292.37933349609375 427.643798828125 294.2606506347656 429.2000732421875 296.5146789550781 429.76507568359375 C 298.36749267578125 430.230224609375 300.31793212890625 429.9930419921875 302.1966247558594 429.6495361328125 C 308.12237548828125 428.57330322265625 314.2520751953125 426.2073974609375 317.6360778808594 421.226806640625 C 321.0431823730469 416.204833984375 320.7918701171875 408.96685791015625 317.0137634277344 404.21087646484375 C 313.23565673828125 399.4548645019531 306.2691345214844 397.5087585449219 300.5867614746094 399.6658935546875 L 301.0821533203125 400.2093811035156" stroke-width="0.6000000238418579" fill="rgb(140, 28, 33)" opacity="1.0"/>
    <path d="M 338.0 390.0 C 336.6507568359375 391.01348876953125 335.2579650878906 392.08294677734375 334.45587158203125 393.5689697265625 C 333.65380859375 395.0550231933594 333.6164855957031 397.10064697265625 334.8227233886719 398.28204345703125 C 336.3149719238281 399.7369689941406 339.0383605957031 399.1152038574219 340.2881164550781 397.442626953125 C 341.53790283203125 395.7700500488281 341.6000671386719 393.4757080078125 341.1648254394531 391.4363098144531 C 341.0933532714844 390.7914733886719 340.78277587890625 390.1969299316406 340.2943420410156 389.7699279785156 C 339.7720642089844 389.403076171875 338.8580627441406 389.57098388671875 338.72747802734375 390.1989440917969 L 338.0 390.0" stroke-width="0.6000000238418579" fill="rgb(159, 159, 159)" opacity="1.0"/>
    <path d="M 350.6327209472656 394.5722351074219 C 345.38079833984375 395.5993957519531 340.36639404296875 398.4483337402344 337.40301513671875 402.9010009765625 C 334.43963623046875 407.3536376953125 333.8104248046875 413.46417236328125 336.4539794921875 418.13983154296875 C 338.3271789550781 421.44317626953125 341.6463928222656 423.781982421875 345.2569580078125 424.9693603515625 C 348.8675842285156 426.1568603515625 352.7557678222656 426.279052734375 356.537353515625 425.89056396484375 C 358.18292236328125 425.7205810546875 359.896728515625 425.423095703125 361.19219970703125 424.401123046875 C 362.677978515625 423.23016357421875 363.3416748046875 421.3258056640625 363.84857177734375 419.4971923828125 C 365.27960205078125 414.3348388671875 365.9739990234375 408.7565002441406 364.2832336425781 403.67254638671875 C 362.59246826171875 398.58856201171875 358.0203857421875 394.1900939941406 352.67828369140625 394.0318603515625 L 350.6327209472656 394.5722351074219" stroke-width="0.6000000238418579" fill="rgb(159, 159, 159)" opacity="1.0"/>
    <path d="M 266.988037109375 383.5921936035156 C 263.0291748046875 380.0648193359375 258.47589111328125 376.31549072265625 253.18988037109375 376.5672912597656 C 248.04888916015625 376.804931640625 243.92669677734375 380.7327575683594 240.39447021484375 384.4789123535156 C 238.96182250976562 386.00286865234375 237.48733520507812 387.6199645996094 236.94619750976562 389.6391906738281 C 236.02896118164062 393.05377197265625 238.007080078125 396.564453125 240.3167724609375 399.2345275878906 C 242.45965576171875 401.7136535644531 244.9473876953125 403.8722229003906 247.703857421875 405.6441955566406 C 252.17852783203125 408.52301025390625 258.11956787109375 410.2882385253906 262.7249755859375 407.62738037109375 C 265.21337890625 406.1944885253906 266.92138671875 403.6445617675781 267.8851318359375 400.93499755859375 C 268.8489074707031 398.2254333496094 269.1387939453125 395.32708740234375 269.3841552734375 392.4617004394531 C 269.6295166015625 389.5963439941406 269.8092346191406 386.77557373046875 268.87933349609375 384.126708984375 L 266.988037109375 383.5921936035156" stroke-width="0.6000000238418579" fill="rgb(218, 166, 20)" opacity="1.0"/>
    <path d="M 265.73236083984375 394.305419921875 C 257.30718994140625 392.8069152832031 249.262451171875 398.422119140625 247.76394653320312 406.8472900390625 C 247.6356201171875 407.5687561035156 247.55865478515625 408.29840087890625 247.53359985351562 409.0307312011719 C 247.43890380859375 411.8135070800781 248.17330932617188 414.7353515625 250.09039306640625 416.7528076171875 C 251.71026611328125 418.4578857421875 253.9918212890625 419.3585205078125 256.25848388671875 419.97998046875 C 262.3280029296875 421.63525390625 268.7300109863281 421.6351318359375 274.79949951171875 419.979736328125 C 276.4031066894531 419.5394287109375 278.0209045410156 418.958984375 279.26611328125 417.8514404296875 C 281.357666015625 415.9932861328125 282.0236511230469 412.93988037109375 281.7425231933594 410.154296875 C 281.3280334472656 406.0184326171875 279.07745361328125 402.18115234375 275.94622802734375 399.44610595703125 C 272.81500244140625 396.7110900878906 268.8632507324219 395.0186462402344 264.78802490234375 394.1973876953125 L 265.73236083984375 394.305419921875" stroke-width="0.6000000238418579" fill="rgb(143, 165, 67)" opacity="1.0"/>
    <path d="M 214.6607666015625 382.3626403808594 C 207.52682495117188 389.1163024902344 212.00900268554688 403.295166015625 221.53579711914062 405.4181823730469 C 231.06259155273438 407.5411376953125 240.919921875 397.3976745605469 239.22235107421875 387.7187194824219 C 237.52474975585938 378.039794921875 225.84820556640625 371.7921447753906 216.58050537109375 375.08648681640625 L 214.6607666015625 382.3626403808594" stroke-width="0.6000000238418579" fill="rgb(233, 92, 21)" opacity="1.0"/>
    <path d="M 263.52392578125 381.3707275390625 C 259.303466796875 384.0688781738281 254.5418701171875 387.7296142578125 254.89501953125 392.74346923828125 C 255.11322021484375 394.7333068847656 255.9434814453125 396.6064147949219 257.2713623046875 398.1043701171875 C 260.4570617675781 401.89910888671875 265.284423828125 403.91436767578125 270.22265625 403.51104736328125 C 274.4107666015625 403.158203125 278.1862487792969 401.0553283691406 281.78741455078125 398.9385681152344 C 283.8084411621094 397.7462158203125 285.9176940917969 396.4150390625 286.9375 394.3160095214844 C 288.2738952636719 391.5070495605469 287.27880859375 388.15936279296875 285.9542236328125 385.34588623046875 C 284.02081298828125 381.2259216308594 281.4333190917969 377.446044921875 278.2920837402344 374.15289306640625 C 277.20452880859375 373.0171203613281 275.9902648925781 371.9014587402344 274.478759765625 371.4698486328125 C 273.0528259277344 371.1404113769531 271.5618591308594 371.2330017089844 270.1876220703125 371.736328125 C 265.9596862792969 373.1009216308594 262.5431823730469 376.25152587890625 260.84124755859375 380.3553161621094 L 263.52392578125 381.3707275390625" stroke-width="0.6000000238418579" fill="rgb(70, 150, 179)" opacity="1.0"/>
    <path d="M 334.7478942871094 377.6625671386719 C 331.20428466796875 373.4376525878906 327.09906005859375 368.9034729003906 321.61865234375 368.32611083984375 C 315.7311096191406 367.7094421386719 310.290771484375 372.1119384765625 307.5813903808594 377.37518310546875 C 306.5359191894531 379.4040222167969 305.77642822265625 381.6783752441406 306.05694580078125 383.94317626953125 C 306.2868347167969 385.8050842285156 307.1946716308594 387.5077819824219 308.1745300292969 389.1070861816406 C 311.2584533691406 394.1541748046875 315.59600830078125 398.93145751953125 321.3564758300781 400.2678527832031 C 327.1630859375 401.6107482910156 333.7042541503906 398.81787109375 336.72320556640625 393.673095703125 C 339.74212646484375 388.5283508300781 339.0582580566406 381.457763671875 335.0703430175781 377.0163269042969 L 334.7478942871094 377.6625671386719" stroke-width="0.6000000238418579" fill="rgb(140, 28, 33)" opacity="1.0"/>
    <path d="M 353.0 389.0 C 351.6507568359375 390.01348876953125 350.2579650878906 391.08294677734375 349.45587158203125 392.5689697265625 C 348.65380859375 394.0550231933594 348.6164855957031 396.10064697265625 349.8227233886719 397.28204345703125 C 351.3149719238281 398.7369689941406 354.0383605957031 398.1152038574219 355.2881164550781 396.442626953125 C 356.53790283203125 394.7700500488281 356.6000671386719 392.4757080078125 356.1648254394531 390.4363098144531 C 356.0933532714844 389.7914733886719 355.78277587890625 389.1969299316406 355.2943420410156 388.7699279785156 C 354.7720642089844 388.403076171875 353.8580627441406 388.57098388671875 353.72747802734375 389.1989440917969 L 353.0 389.0" stroke-width="0.6000000238418579" fill="rgb(159, 159, 159)" opacity="1.0"/>
    <path d="M 189.77337646484375 398.365478515625 C 184.30056762695312 399.3028259277344 179.0296630859375 402.13568115234375 175.84716796875 406.68206787109375 C 172.6646728515625 411.2284851074219 171.86294555664062 417.551513671875 174.49102783203125 422.46600341796875 C 176.353515625 425.938232421875 179.7393798828125 428.4451904296875 183.45565795898438 429.7650146484375 C 187.17193603515625 431.08477783203125 191.2021484375 431.306396484375 195.13421630859375 430.9957275390625 C 196.84527587890625 430.8594970703125 198.6302490234375 430.59271240234375 199.99896240234375 429.564208984375 C 201.5687255859375 428.3858642578125 202.3035888671875 426.4266357421875 202.8740234375 424.54229736328125 C 204.48434448242188 419.2222900390625 205.3406982421875 413.452880859375 203.7109375 408.13812255859375 C 202.08111572265625 402.8233337402344 197.44586181640625 398.1492919921875 191.90838623046875 397.8548278808594 L 189.77337646484375 398.365478515625" stroke-width="0.6000000238418579" fill="rgb(159, 159, 159)" opacity="1.0"/>
    <path d="M 358.47894287109375 377.7550354003906 C 353.2279357910156 378.3477783203125 347.4169006347656 379.234130859375 344.0884704589844 383.3251953125 C 340.8459777832031 387.2992248535156 341.02008056640625 392.9710998535156 341.4517517089844 398.084228515625 C 341.6301574707031 400.1611022949219 341.84991455078125 402.33099365234375 342.98883056640625 404.0754699707031 C 344.91339111328125 407.027099609375 348.834716796875 407.89349365234375 352.3526611328125 407.9547424316406 C 355.6178894042969 408.0128479003906 358.8745422363281 407.601806640625 362.0229187011719 406.73419189453125 C 367.13555908203125 405.3272705078125 372.3967590332031 402.09136962890625 373.484375 396.90338134765625 C 374.0756530761719 394.1034240722656 373.3188171386719 391.1398620605469 371.9485168457031 388.62255859375 C 370.5782165527344 386.1052551269531 368.6196594238281 383.9626159667969 366.65594482421875 381.87493896484375 C 364.6922607421875 379.7872619628906 362.718017578125 377.7779846191406 360.1334533691406 376.7066650390625 L 358.47894287109375 377.7550354003906" stroke-width="0.6000000238418579" fill="rgb(218, 166, 20)" opacity="1.0"/>
    <path d="M 364.356201171875 390.7199401855469 C 355.8145751953125 390.9341735839844 349.06390380859375 398.0321960449219 349.27813720703125 406.5738220214844 C 349.2964782714844 407.30523681640625 349.36669921875 408.034423828125 349.48822021484375 408.75592041015625 C 349.9505615234375 411.497314453125 351.2518005371094 414.20947265625 353.52972412109375 415.8009033203125 C 355.45458984375 417.14599609375 357.8663635253906 417.57208251953125 360.2078857421875 417.72802734375 C 366.4761047363281 418.136962890625 372.739501953125 416.860107421875 378.347412109375 414.030029296875 C 379.8284912109375 413.2794189453125 381.29547119140625 412.388916015625 382.2928466796875 411.0570373535156 C 383.9685363769531 408.8219909667969 384.0111389160156 405.7018737792969 383.1805419921875 403.03265380859375 C 381.9501953125 399.0690002441406 378.9830627441406 395.763671875 375.3741455078125 393.7123107910156 C 371.7652893066406 391.6609802246094 367.5615539550781 390.7933044433594 363.4107666015625 390.8025817871094 L 364.356201171875 390.7199401855469" stroke-width="0.6000000238418579" fill="rgb(143, 165, 67)" opacity="1.0"/>
    <path d="M 360.4419250488281 378.93194580078125 C 353.88470458984375 386.1419677734375 359.36956787109375 399.8370361328125 368.9517517089844 401.2314147949219 C 378.5339660644531 402.6257629394531 387.53424072265625 391.8603820800781 385.13763427734375 382.4107666015625 C 382.7409973144531 372.961181640625 370.7264099121094 367.64556884765625 361.8019714355469 371.5914001464844 L 360.4419250488281 378.93194580078125" stroke-width="0.6000000238418579" fill="rgb(233, 92, 21)" opacity="1.0"/>
    <path d="M 384.9157409667969 378.40325927734375 C 380.80340576171875 381.3179016113281 376.1933898925781 385.22601318359375 376.7891845703125 390.24847412109375 C 377.10406494140625 392.23797607421875 378.0285339355469 394.08074951171875 379.43511962890625 395.5225524902344 C 382.8193664550781 399.1836242675781 387.7681579589844 400.97723388671875 392.7121887207031 400.33465576171875 C 396.9046936035156 399.7788391113281 400.598388671875 397.48388671875 404.1162414550781 395.183349609375 C 406.09027099609375 393.8878173828125 408.1463317871094 392.44854736328125 409.0705261230469 390.2898254394531 C 410.2787780761719 387.40234375 409.1178283691406 384.08538818359375 407.6513366699219 381.3211975097656 C 405.5101623535156 377.2731018066406 402.7279052734375 373.5982666015625 399.4124450683594 370.439208984375 C 398.2648010253906 369.34991455078125 396.9907531738281 368.286865234375 395.4508056640625 367.9256591796875 C 394.0018005371094 367.6630554199219 392.5076599121094 367.8277587890625 391.1506042480469 368.399658203125 C 386.9666748046875 369.97430419921875 383.68408203125 373.3050842285156 382.1706237792969 377.51153564453125 L 384.9157409667969 378.40325927734375" stroke-width="0.6000000238418579" fill="rgb(70, 150, 179)" opacity="1.0"/>
    <path d="M 380.091796875 399.1720886230469 C 374.8993835449219 401.5098571777344 369.2421875 404.3191223144531 367.1322021484375 409.6042785644531 C 364.8690490722656 415.2830810546875 367.71978759765625 421.9241943359375 372.1914978027344 426.09234619140625 C 373.9149169921875 427.70013427734375 375.9624938964844 429.09246826171875 378.2921447753906 429.448486328125 C 380.2071228027344 429.74188232421875 382.1539001464844 429.31683349609375 384.0180969238281 428.791259765625 C 389.8988037109375 427.1407470703125 395.8627624511719 424.16876220703125 398.8056640625 418.8179931640625 C 401.7679138183594 413.4232177734375 400.8255615234375 406.13909912109375 396.558349609375 401.696533203125 C 392.2911682128906 397.2539367675781 385.072021484375 395.9518127441406 379.5398864746094 398.67047119140625 L 380.091796875 399.1720886230469" stroke-width="0.6000000238418579" fill="rgb(140, 28, 33)" opacity="1.0"/>
    <path d="M 398.0 391.0 C 396.6507568359375 392.01348876953125 395.2579650878906 393.08294677734375 394.45587158203125 394.5689697265625 C 393.65380859375 396.0550231933594 393.6164855957031 398.10064697265625 394.8227233886719 399.28204345703125 C 396.3149719238281 400.7369689941406 399.0383605957031 400.1152038574219 400.2881164550781 398.442626953125 C 401.53790283203125 396.7700500488281 401.6000671386719 394.4757080078125 401.1648254394531 392.4363098144531 C 401.0933532714844 391.7914733886719 400.78277587890625 391.1969299316406 400.2943420410156 390.7699279785156 C 399.7720642089844 390.403076171875 398.8580627441406 390.57098388671875 398.72747802734375 391.1989440917969 L 398.0 391.0" stroke-width="0.6000000238418579" fill="rgb(159, 159, 159)" opacity="1.0"/>
    <path d="M 418.56903076171875 379.3305969238281 C 415.3111572265625 383.4934997558594 413.4085693359375 388.86328125 414.0745849609375 394.10455322265625 C 414.7406005859375 399.3458251953125 418.22174072265625 404.3158874511719 423.2191162109375 406.0982971191406 C 426.75390625 407.35400390625 430.744873046875 406.9544372558594 434.208984375 405.506591796875 C 437.673095703125 404.05877685546875 440.65576171875 401.635986328125 443.2286376953125 398.9007568359375 C 444.3475341796875 397.70977783203125 445.43505859375 396.3795166015625 445.74169921875 394.7786865234375 C 446.0941162109375 392.94354248046875 445.3583984375 391.0922546386719 444.55462646484375 389.3989562988281 C 442.285400390625 384.61846923828125 439.197021484375 380.0036926269531 434.64715576171875 377.30029296875 C 430.0972900390625 374.5968933105469 423.83892822265625 374.2684326171875 419.7471923828125 377.6044006347656 L 418.56903076171875 379.3305969238281" stroke-width="0.6000000238418579" fill="rgb(159, 159, 159)" opacity="1.0"/>
    <path d="M 417.071044921875 395.9149169921875 C 412.2615966796875 398.65081787109375 407.03411865234375 401.90020751953125 405.5176696777344 407.2103271484375 C 404.03564453125 412.372314453125 406.54217529296875 417.75958251953125 409.066162109375 422.5028076171875 C 410.0943298339844 424.42816162109375 411.2006530761719 426.426025390625 413.0162353515625 427.6353759765625 C 416.085693359375 429.68255615234375 420.2171630859375 428.8994140625 423.62835693359375 427.507568359375 C 426.7950439453125 426.217041015625 429.75994873046875 424.47845458984375 432.432373046875 422.3450927734375 C 436.77294921875 418.88262939453125 440.5023193359375 413.5985107421875 439.40972900390625 408.15673828125 C 438.82415771484375 405.2180480957031 436.87359619140625 402.67779541015625 434.51666259765625 400.8200378417969 C 432.15972900390625 398.9622802734375 429.39111328125 397.7077331542969 426.64013671875 396.5082092285156 C 423.8892822265625 395.30865478515625 421.1605224609375 394.18890380859375 418.231201171875 394.2236022949219 L 417.071044921875 395.9149169921875" stroke-width="0.6000000238418579" fill="rgb(218, 166, 20)" opacity="1.0"/>
    <path d="M 146.6310577392578 239.4637451171875 C 138.74520874023438 243.53863525390625 135.6558380126953 253.2347412109375 139.73074340820312 261.12060546875 C 140.07968139648438 261.7958679199219 140.47607421875 262.44549560546875 140.91696166992188 263.064697265625 C 142.59262084960938 265.4171142578125 145.0390625 267.361572265625 147.88992309570312 267.8156433105469 C 150.299072265625 268.1995849609375 152.74639892578125 267.5037841796875 155.00555419921875 266.58740234375 C 161.04934692382812 264.12615966796875 166.32391357421875 260.0915222167969 170.28131103515625 254.90264892578125 C 171.32504272460938 253.52932739257812 172.29214477539062 252.0316162109375 172.6201171875 250.3343505859375 C 173.17233276367188 247.4853515625 171.79681396484375 244.5499267578125 169.8096923828125 242.43206787109375 C 166.86178588867188 239.2857666015625 162.58932495117188 237.54251098632812 158.285888671875 237.26239013671875 C 153.98248291015625 236.9822998046875 149.66006469726562 238.07827758789062 145.78494262695312 239.9698486328125 L 146.6310577392578 239.4637451171875" stroke-width="0.6000000238418579" fill="rgb(143, 165, 67)" opacity="1.0"/>
    <path d="M 155.62953186035156 272.59478759765625 C 149.14688110351562 280.17620849609375 155.18679809570312 294.0152587890625 165.03347778320312 295.141845703125 C 174.88015747070312 296.26837158203125 183.75091552734375 284.97320556640625 181.0032958984375 275.3808288574219 C 178.25564575195312 265.7884216308594 165.79779052734375 260.72637939453125 156.79116821289062 265.04248046875 L 155.62953186035156 272.59478759765625" stroke-width="0.6000000238418579" fill="rgb(233, 92, 21)" opacity="1.0"/>
    <path d="M 154.27069091796875 325.0755615234375 C 149.8355255126953 327.45269775390625 144.7841339111328 330.7522277832031 144.75137329101562 335.80133056640625 C 144.81651306152344 337.8111572265625 145.50372314453125 339.7512512207031 146.71823120117188 341.3539733886719 C 149.61651611328125 345.40032958984375 154.2962646484375 347.7909240722656 159.27346801757812 347.7676086425781 C 163.4954833984375 347.737060546875 167.43905639648438 345.9218444824219 171.20916748046875 344.07928466796875 C 173.3253173828125 343.04083251953125 175.54055786132812 341.8700866699219 176.72378540039062 339.8463439941406 C 178.27883911132812 337.1358947753906 177.54022216796875 333.7061767578125 176.43038940429688 330.78607177734375 C 174.81149291992188 326.510498046875 172.51123046875 322.525146484375 169.61883544921875 318.98455810546875 C 168.6170654296875 317.76318359375 167.48687744140625 316.5521240234375 166.0062255859375 316.0032958984375 C 164.6033935546875 315.5634460449219 163.1029052734375 315.541259765625 161.68768310546875 315.939453125 C 157.34780883789062 316.9803161621094 153.6829833984375 319.8725891113281 151.66200256347656 323.85174560546875 L 154.27069091796875 325.0755615234375" stroke-width="0.6000000238418579" fill="rgb(70, 150, 179)" opacity="1.0"/>
    <path d="M 132.97268676757812 293.53363037109375 C 128.97811889648438 289.27532958984375 124.37164306640625 284.7230529785156 118.54386901855469 284.4347229003906 C 112.28335571289062 284.1287841796875 106.79055786132812 289.102783203125 104.23551940917969 294.8262634277344 C 103.24946594238281 297.0325622558594 102.5802001953125 299.48162841796875 103.00985717773438 301.8594970703125 C 103.36231994628906 303.81439208984375 104.422119140625 305.5611267089844 105.552001953125 307.1943054199219 C 109.10893249511719 312.3488464355469 113.97528076171875 317.1444396972656 120.14376831054688 318.2187805175781 C 126.36138916015625 319.2972412109375 133.11256408691406 315.9602355957031 136.0018310546875 310.34381103515625 C 138.89111328125 304.7273864746094 137.75259399414062 297.2926025390625 133.27560424804688 292.83148193359375 L 132.97268676757812 293.53363037109375" stroke-width="0.6000000238418579" fill="rgb(140, 28, 33)" opacity="1.0"/>
    <path d="M 142.69400024414062 265.2761535644531 C 141.25381469726562 266.1714782714844 139.76507568359375 267.1190185546875 138.8308563232422 268.5357360839844 C 137.8966522216797 269.9524841308594 137.67857360839844 271.9969482421875 138.78170776367188 273.2861328125 C 140.14695739746094 274.87445068359375 142.92811584472656 274.4926452636719 144.32696533203125 272.9287109375 C 145.725830078125 271.36480712890625 145.99075317382812 269.07354736328125 145.73524475097656 266.9935607910156 C 145.7206573486328 266.3417663574219 145.4622802734375 265.7191467285156 145.01107788085938 265.24853515625 C 144.52066040039062 264.8351745605469 143.59085083007812 264.9224853515625 143.40464782714844 265.5395812988281 L 142.69400024414062 265.2761535644531" stroke-width="0.6000000238418579" fill="rgb(159, 159, 159)" opacity="1.0"/>
    <path d="M 154.33621215820312 285.9386901855469 C 150.57998657226562 289.7664794921875 148.0534210205078 294.9646301269531 148.13104248046875 300.32421875 C 148.2086639404297 305.6838073730469 151.1551055908203 311.0889587402344 155.99139404296875 313.4521789550781 C 159.412841796875 315.11865234375 163.481689453125 315.16802978515625 167.13818359375 314.1008605957031 C 170.794677734375 313.03369140625 174.07623291015625 310.9290466308594 176.98004150390625 308.46295166015625 C 178.24310302734375 307.3890075683594 179.49020385742188 306.1711120605469 179.98077392578125 304.5919189453125 C 180.54400634765625 302.7817077636719 180.01202392578125 300.8319091796875 179.39352416992188 299.03369140625 C 177.6473388671875 293.9570007324219 175.056640625 288.9545593261719 170.77587890625 285.7135314941406 C 166.4951171875 282.47247314453125 160.2227783203125 281.4322509765625 155.7196044921875 284.3318786621094 L 154.33621215820312 285.9386901855469" stroke-width="0.6000000238418579" fill="rgb(159, 159, 159)" opacity="1.0"/>
    <path d="M 133.79281616210938 345.8741760253906 C 129.8231964111328 341.96875 125.24159240722656 337.79962158203125 119.68379211425781 337.78948974609375 C 114.27882385253906 337.77197265625 109.75103759765625 341.6781921386719 105.85157775878906 345.4244384765625 C 104.26971435546875 346.9486389160156 102.63914489746094 348.5683898925781 101.96675109863281 350.65838623046875 C 100.82745361328125 354.1925048828125 102.72023010253906 357.9776306152344 105.00445556640625 360.89825439453125 C 107.12356567382812 363.60992431640625 109.62106323242188 366.00323486328125 112.42050170898438 368.0049743652344 C 116.96484375 371.2568664550781 123.10507202148438 373.416748046875 128.073974609375 370.8645935058594 C 130.75851440429688 369.49072265625 132.68243408203125 366.90460205078125 133.83396911621094 364.1124267578125 C 134.98548889160156 361.3202209472656 135.43994140625 358.2950439453125 135.8459930419922 355.3021545410156 C 136.25204467773438 352.30926513671875 136.5869140625 349.3597412109375 135.7489471435547 346.5329895019531 L 133.79281616210938 345.8741760253906" stroke-width="0.6000000238418579" fill="rgb(218, 166, 20)" opacity="1.0"/>
    <path d="M 156.4683837890625 337.8692932128906 C 149.1080780029297 342.89813232421875 147.21804809570312 352.9415588378906 152.2469024658203 360.3018798828125 C 152.67752075195312 360.9321594238281 153.15231323242188 361.53106689453125 153.66769409179688 362.0941467285156 C 155.62643432617188 364.2333679199219 158.30340576171875 365.8714294433594 161.20065307617188 365.9743347167969 C 163.6490478515625 366.0615234375 166.0030517578125 365.06781005859375 168.14242553710938 363.8773193359375 C 173.8646240234375 360.6828308105469 178.62710571289062 356.014404296875 181.9351806640625 350.3570556640625 C 182.80706787109375 348.8601989746094 183.58731079101562 347.24871826171875 183.70602416992188 345.51678466796875 C 183.90701293945312 342.6093444824219 182.1759033203125 339.8522033691406 179.935546875 337.9849853515625 C 176.611328125 335.21051025390625 172.13897705078125 333.9969787597656 167.81524658203125 334.2456359863281 C 163.49148559570312 334.4942626953125 159.31759643554688 336.1168518066406 155.68711853027344 338.4775390625 L 156.4683837890625 337.8692932128906" stroke-width="0.6000000238418579" fill="rgb(143, 165, 67)" opacity="1.0"/>
    <path d="M 140.65672302246094 377.0582275390625 C 132.0072784423828 371.8825378417969 119.24220275878906 380.2406921386719 119.78555297851562 390.24078369140625 C 120.32894897460938 400.2408752441406 133.08209228515625 407.1674499511719 142.17347717285156 402.8074951171875 C 151.26486206054688 398.44757080078125 154.20042419433594 385.180419921875 148.3770294189453 376.9378967285156 L 140.65672302246094 377.0582275390625" stroke-width="0.6000000238418579" fill="rgb(233, 92, 21)" opacity="1.0"/>
    <path d="M 170.229736328125 373.3503723144531 C 165.99105834960938 376.2261047363281 161.22610473632812 380.1008605957031 161.72702026367188 385.21600341796875 C 162.00558471679688 387.24383544921875 162.90652465820312 389.13531494140625 164.30560302734375 390.62939453125 C 167.6678466796875 394.4193115234375 172.658447265625 396.3445129394531 177.69488525390625 395.79443359375 C 181.9659423828125 395.31689453125 185.76641845703125 393.06201171875 189.3883056640625 390.7978515625 C 191.42083740234375 389.52264404296875 193.5396728515625 388.1031188964844 194.52352905273438 385.9291076660156 C 195.81112670898438 383.02056884765625 194.7005615234375 379.62646484375 193.26809692382812 376.78759765625 C 191.1768798828125 372.6302795410156 188.426513671875 368.8388671875 185.12374877929688 365.5603942871094 C 183.98040771484375 364.4298095703125 182.70806884765625 363.32330322265625 181.15103149414062 362.92431640625 C 179.684326171875 362.62738037109375 178.162841796875 362.7636413574219 176.772216796875 363.31646728515625 C 172.48867797851562 364.8293151855469 169.08438110351562 368.14508056640625 167.45925903320312 372.3873291015625 L 170.229736328125 373.3503723144531" stroke-width="0.6000000238418579" fill="rgb(70, 150, 179)" opacity="1.0"/>
  </g>
</svg>
