<?xml version="1.0" ?>
<svg xmlns="http://www.w3.org/2000/svg" version="1.1" width="600" height="600">
  <defs/>
  <g>
    <path d="M 354.189208984375 331.6356201171875 C 354.3763122558594 331.6893005371094 354.5730895996094 331.469970703125 354.5133361816406 331.2860107421875 C 354.4535827636719 331.1020812988281 354.1811828613281 331.03607177734375 354.03314208984375 331.1625671386719 C 353.88507080078125 331.2890625 353.8961181640625 331.5512390136719 354.04571533203125 331.6761779785156 L 354.189208984375 331.6356201171875" stroke-width="0.6000000238418579" fill="rgb(233, 92, 21)" opacity="1.0"/>
    <path d="M 100.35122680664062 196.83447265625 C 100.31071472167969 196.85394287109375 100.26434326171875 196.88137817382812 100.26205444335938 196.92642211914062 C 100.2618408203125 196.94439697265625 100.2672119140625 196.96197509765625 100.27740478515625 196.97674560546875 C 100.30168151855469 197.01397705078125 100.34249877929688 197.03717041015625 100.38690185546875 197.03890991210938 C 100.42459106445312 197.04031372070312 100.46049499511719 197.02566528320312 100.49485778808594 197.01071166992188 C 100.51416015625 197.00228881835938 100.53437805175781 196.99273681640625 100.54574584960938 196.97512817382812 C 100.5606689453125 196.9515380859375 100.55545043945312 196.920654296875 100.54669189453125 196.8941650390625 C 100.533935546875 196.85537719726562 100.51498413085938 196.81890869140625 100.49057006835938 196.78619384765625 C 100.48211669921875 196.77490234375 100.47250366210938 196.76364135742188 100.45951843261719 196.7581787109375 C 100.44717407226562 196.753662109375 100.43379211425781 196.75286865234375 100.4210205078125 196.75588989257812 C 100.38186645507812 196.76345825195312 100.34803771972656 196.78781127929688 100.32843017578125 196.822509765625 L 100.35122680664062 196.83447265625" stroke-width="0.6000000238418579" fill="rgb(70, 150, 179)" opacity="1.0"/>
    <path d="M 464.2294921875 435.12591552734375 C 464.34765625 435.2525634765625 464.4840087890625 435.387939453125 464.6568603515625 435.39691162109375 C 464.842529296875 435.406494140625 465.005859375 435.25933837890625 465.08203125 435.0897216796875 C 465.1114501953125 435.0244140625 465.1314697265625 434.9517822265625 465.11895751953125 434.8812255859375 C 465.108642578125 434.8232421875 465.07733154296875 434.7713623046875 465.0439453125 434.7227783203125 C 464.9388427734375 434.569580078125 464.7947998046875 434.427001953125 464.6119384765625 434.3946533203125 C 464.4276123046875 434.3621826171875 464.22705078125 434.460693359375 464.1409912109375 434.6270751953125 C 464.0548095703125 434.79345703125 464.0880126953125 435.0140380859375 464.220458984375 435.146728515625 L 464.2294921875 435.12591552734375" stroke-width="0.6000000238418579" fill="rgb(140, 28, 33)" opacity="1.0"/>
    <path d="M 94.81103515625 194.50942993164062 C 94.86740112304688 194.47341918945312 94.9256591796875 194.43533325195312 94.9617919921875 194.3790283203125 C 94.99795532226562 194.32269287109375 95.00555419921875 194.241943359375 94.96142578125 194.191650390625 C 94.90682983398438 194.12969970703125 94.79733276367188 194.14608764648438 94.742919921875 194.20843505859375 C 94.68852233886719 194.27081298828125 94.67919921875 194.36126708984375 94.69027709960938 194.44317626953125 C 94.691162109375 194.4688720703125 94.70166015625 194.4932861328125 94.71968078613281 194.51165771484375 C 94.73922729492188 194.5277099609375 94.77584838867188 194.5238037109375 94.78289794921875 194.4993896484375 L 94.81103515625 194.50942993164062" stroke-width="0.6000000238418579" fill="rgb(159, 159, 159)" opacity="1.0"/>
    <path d="M 380.5397033691406 304.140380859375 C 380.7081604003906 304.0732727050781 380.8573303222656 303.94696044921875 380.9281311035156 303.7801208496094 C 380.9989013671875 303.6132507324219 380.9815979003906 303.40582275390625 380.8642578125 303.26666259765625 C 380.7811584472656 303.16839599609375 380.6559753417969 303.1112976074219 380.5282897949219 303.0943603515625 C 380.4006042480469 303.07745361328125 380.2703552246094 303.09771728515625 380.1468505859375 303.1343688964844 C 380.0931091308594 303.15032958984375 380.03790283203125 303.1709899902344 380.00115966796875 303.213134765625 C 379.9590148925781 303.2614440917969 379.9488220214844 303.3290100097656 379.94342041015625 303.3930969238281 C 379.9281005859375 303.573974609375 379.9399108886719 303.76409912109375 380.028076171875 303.9228210449219 C 380.1162414550781 304.08154296875 380.2960510253906 304.19940185546875 380.4749755859375 304.17120361328125 L 380.5397033691406 304.140380859375" stroke-width="0.6000000238418579" fill="rgb(159, 159, 159)" opacity="1.0"/>
    <path d="M 103.67893981933594 433.4871826171875 C 103.75411987304688 433.44354248046875 103.83580017089844 433.3917236328125 103.85887145996094 433.30810546875 C 103.88142395019531 433.226806640625 103.84127807617188 433.1424560546875 103.80093383789062 433.06829833984375 C 103.78451538085938 433.0382080078125 103.766845703125 433.0069580078125 103.73814392089844 432.98822021484375 C 103.68962097167969 432.95648193359375 103.62481689453125 432.9693603515625 103.5714111328125 432.99169921875 C 103.5218505859375 433.012451171875 103.47549438476562 433.0401611328125 103.43380737304688 433.0740966796875 C 103.36610412597656 433.129150390625 103.30825805664062 433.212646484375 103.32620239257812 433.29803466796875 C 103.3358154296875 433.3441162109375 103.3668212890625 433.3837890625 103.40411376953125 433.41259765625 C 103.44142150878906 433.44146728515625 103.485107421875 433.4608154296875 103.52850341796875 433.479248046875 C 103.5718994140625 433.4976806640625 103.61492919921875 433.514892578125 103.66094970703125 433.513916015625 L 103.67893981933594 433.4871826171875" stroke-width="0.6000000238418579" fill="rgb(218, 166, 20)" opacity="1.0"/>
    <path d="M 98.84988403320312 141.5199432373047 C 98.86550903320312 141.52503967285156 98.88229370117188 141.5165252685547 98.88739013671875 141.5009002685547 C 98.88783264160156 141.49957275390625 98.88818359375 141.49819946289062 98.888427734375 141.49681091308594 C 98.88934326171875 141.49156188964844 98.88873291015625 141.48580932617188 98.8856201171875 141.48146057128906 C 98.88299560546875 141.477783203125 98.87890625 141.4754638671875 98.874755859375 141.4736785888672 C 98.86366271972656 141.46890258789062 98.85150146484375 141.46719360351562 98.83950805664062 141.46871948242188 C 98.83636474609375 141.46913146972656 98.8331298828125 141.4698028564453 98.83045959472656 141.47157287597656 C 98.82598876953125 141.47454833984375 98.82391357421875 141.48016357421875 98.82369995117188 141.48553466796875 C 98.82337951660156 141.49351501464844 98.82662963867188 141.50140380859375 98.83184814453125 141.5074462890625 C 98.83706665039062 141.5134735107422 98.84413146972656 141.5177459716797 98.85165405273438 141.52040100097656 L 98.84988403320312 141.5199432373047" stroke-width="0.6000000238418579" fill="rgb(143, 165, 67)" opacity="1.0"/>
    <path d="M 458.13446044921875 337.6382141113281 C 457.9970703125 337.5859680175781 457.8350830078125 337.7384948730469 457.868408203125 337.8807067871094 C 457.9017333984375 338.0229187011719 458.10247802734375 338.08984375 458.221923828125 338.0040588378906 C 458.34130859375 337.91827392578125 458.349609375 337.7203063964844 458.2449951171875 337.6167907714844 L 458.13446044921875 337.6382141113281" stroke-width="0.6000000238418579" fill="rgb(233, 92, 21)" opacity="1.0"/>
    <path d="M 109.28932189941406 213.60385131835938 C 109.23504638671875 213.62109375 109.17202758789062 213.6473388671875 109.16119384765625 213.70343017578125 C 109.15774536132812 213.72592163085938 109.161376953125 213.74893188476562 109.17156982421875 213.769287109375 C 109.19541931152344 213.8203125 109.24252319335938 213.85659790039062 109.29794311523438 213.86663818359375 C 109.344970703125 213.87506103515625 109.39260864257812 213.863037109375 109.4383544921875 213.850341796875 C 109.46405029296875 213.84320068359375 109.49111938476562 213.83477783203125 109.50848388671875 213.814697265625 C 109.53138732910156 213.78778076171875 109.5302734375 213.74810791015625 109.52398681640625 213.71331787109375 C 109.51484680175781 213.66238403320312 109.49752807617188 213.61328125 109.47268676757812 213.56790161132812 C 109.46406555175781 213.55224609375 109.45401000976562 213.53643798828125 109.43867492675781 213.52725219726562 C 109.42398071289062 213.51947021484375 109.40733337402344 213.51611328125 109.39076232910156 213.517578125 C 109.34033203125 213.52017211914062 109.2935791015625 213.54473876953125 109.26284790039062 213.5848388671875 L 109.28932189941406 213.60385131835938" stroke-width="0.6000000238418579" fill="rgb(70, 150, 179)" opacity="1.0"/>
    <path d="M 102.56478881835938 78.34957885742188 C 102.57028198242188 78.35372924804688 102.5765380859375 78.35809326171875 102.58335876464844 78.35726928710938 C 102.5906982421875 78.35638427734375 102.5960693359375 78.34950256347656 102.597900390625 78.34234619140625 C 102.59861755371094 78.339599609375 102.59890747070312 78.33660888671875 102.59793090820312 78.33393859863281 C 102.59713745117188 78.33172607421875 102.59555053710938 78.32992553710938 102.59391784667969 78.3282470703125 C 102.58876037597656 78.32296752929688 102.5821533203125 78.318359375 102.57476806640625 78.31834411621094 C 102.56733703613281 78.31832885742188 102.56016540527344 78.32354736328125 102.55792236328125 78.33065795898438 C 102.55569458007812 78.33773803710938 102.55848693847656 78.34616088867188 102.5645751953125 78.35044860839844 L 102.56478881835938 78.34957885742188" stroke-width="0.6000000238418579" fill="rgb(140, 28, 33)" opacity="1.0"/>
    <path d="M 99.02433776855469 431.8359375 C 99.05328369140625 431.831298828125 99.08332824707031 431.826171875 99.10769653320312 431.809814453125 C 99.13204956054688 431.79345703125 99.149169921875 431.7623291015625 99.14019775390625 431.73443603515625 C 99.12904357910156 431.699951171875 99.0821533203125 431.6875 99.04942321777344 431.703125 C 99.01667785644531 431.7186279296875 98.99716186523438 431.75341796875 98.98733520507812 431.78826904296875 C 98.98321533203125 431.79876708984375 98.98316955566406 431.8104248046875 98.98721313476562 431.8209228515625 C 98.99227905273438 431.830810546875 99.0076904296875 431.8355712890625 99.0147705078125 431.8270263671875 L 99.02433776855469 431.8359375" stroke-width="0.6000000238418579" fill="rgb(159, 159, 159)" opacity="1.0"/>
    <path d="M 464.1976318359375 63.05403137207031 C 464.1539306640625 63.08837890625 464.1209716796875 63.138458251953125 464.1146240234375 63.19367980957031 C 464.10821533203125 63.2489013671875 464.13128662109375 63.308441162109375 464.1778564453125 63.339202880859375 C 464.2108154296875 63.360931396484375 464.25262451171875 63.36688232421875 464.2916259765625 63.36079406738281 C 464.3306884765625 63.354705810546875 464.36724853515625 63.33746337890625 464.400390625 63.31597900390625 C 464.414794921875 63.30662536621094 464.4293212890625 63.29576110839844 464.4364013671875 63.280181884765625 C 464.4447021484375 63.26231384277344 464.4417724609375 63.241546630859375 464.4378662109375 63.22222900390625 C 464.4266357421875 63.16767883300781 464.40673828125 63.112762451171875 464.3670654296875 63.07371520996094 C 464.327392578125 63.03465270996094 464.26422119140625 63.01556396484375 464.21405029296875 63.03935241699219 L 464.1976318359375 63.05403137207031" stroke-width="0.6000000238418579" fill="rgb(159, 159, 159)" opacity="1.0"/>
    <path d="M 94.45541381835938 102.07403564453125 C 94.45584106445312 102.07406616210938 94.45632934570312 102.07406616210938 94.45664978027344 102.07379150390625 C 94.45697021484375 102.07353210449219 94.45703125 102.07305908203125 94.45709228515625 102.07266235351562 C 94.45709228515625 102.07247924804688 94.45712280273438 102.07229614257812 94.45706176757812 102.0721435546875 C 94.45693969726562 102.07188415527344 94.45663452148438 102.07174682617188 94.45635986328125 102.07168579101562 C 94.45608520507812 102.07164001464844 94.45582580566406 102.07162475585938 94.45556640625 102.0716552734375 C 94.45513916015625 102.07168579101562 94.45465087890625 102.07186889648438 94.45449829101562 102.072265625 C 94.45440673828125 102.07247924804688 94.45440673828125 102.07272338867188 94.45449829101562 102.07295227050781 C 94.45455932617188 102.07318115234375 94.45468139648438 102.0733642578125 94.45480346679688 102.07357788085938 C 94.45494079589844 102.07376098632812 94.45506286621094 102.07395935058594 94.45526123046875 102.0740966796875 L 94.45541381835938 102.07403564453125" stroke-width="0.6000000238418579" fill="rgb(218, 166, 20)" opacity="1.0"/>
    <path d="M 113.50164794921875 130.67572021484375 C 113.46151733398438 130.68309020996094 113.43496704101562 130.72158813476562 113.44232177734375 130.76170349121094 C 113.44296264648438 130.76515197753906 113.44384765625 130.76853942871094 113.4449462890625 130.7718505859375 C 113.44915771484375 130.784423828125 113.45732116699219 130.79624938964844 113.46923828125 130.80206298828125 C 113.47933959960938 130.80697631835938 113.49102783203125 130.80718994140625 113.50218200683594 130.80618286132812 C 113.53204345703125 130.80345153808594 113.56063842773438 130.7927703857422 113.58497619628906 130.77525329589844 C 113.59140014648438 130.77059936523438 113.59765625 130.76531982421875 113.60137939453125 130.75828552246094 C 113.60760498046875 130.7465057373047 113.60549926757812 130.73175048828125 113.59957885742188 130.71978759765625 C 113.59083557128906 130.70201110839844 113.57438659667969 130.68862915039062 113.55584716796875 130.681640625 C 113.53729248046875 130.67465209960938 113.51681518554688 130.67367553710938 113.49725341796875 130.67681884765625 L 113.50164794921875 130.67572021484375" stroke-width="0.6000000238418579" fill="rgb(143, 165, 67)" opacity="1.0"/>
    <path d="M 388.4899597167969 297.2177734375 C 388.4061584472656 297.17657470703125 388.294677734375 297.2634582519531 388.3072814941406 297.3553466796875 C 388.3199157714844 297.447265625 388.44293212890625 297.50152587890625 388.5235595703125 297.454345703125 C 388.6041564941406 297.4071960449219 388.6211853027344 297.282470703125 388.5611572265625 297.2107849121094 L 388.4899597167969 297.2177734375" stroke-width="0.6000000238418579" fill="rgb(233, 92, 21)" opacity="1.0"/>
    <path d="M 118.79908752441406 107.53646850585938 C 118.77224731445312 107.54965209960938 118.74153137207031 107.56817626953125 118.74026489257812 107.59817504882812 C 118.740234375 107.61013793945312 118.74391174316406 107.62179565429688 118.75079345703125 107.63157653808594 C 118.76715087890625 107.65621948242188 118.79446411132812 107.67141723632812 118.82403564453125 107.67231750488281 C 118.84912109375 107.67303466796875 118.8729248046875 107.6630859375 118.89570617675781 107.65292358398438 C 118.90850830078125 107.64720153808594 118.92190551757812 107.64071655273438 118.92935180664062 107.62893676757812 C 118.93917846679688 107.6131591796875 118.93551635742188 107.59263610839844 118.92953491210938 107.57505798339844 C 118.92080688476562 107.54931640625 118.90798950195312 107.525146484375 118.89154052734375 107.50350952148438 C 118.8858642578125 107.49603271484375 118.87939453125 107.48861694335938 118.8707275390625 107.48504638671875 C 118.86247253417969 107.48213195800781 118.85357666015625 107.481689453125 118.84507751464844 107.48374938964844 C 118.81907653808594 107.489013671875 118.79669189453125 107.50543212890625 118.78384399414062 107.52864074707031 L 118.79908752441406 107.53646850585938" stroke-width="0.6000000238418579" fill="rgb(70, 150, 179)" opacity="1.0"/>
    <path d="M 433.594482421875 75.07218933105469 C 433.6219482421875 75.09738159179688 433.6534423828125 75.1241455078125 433.690673828125 75.1231689453125 C 433.730712890625 75.12208557128906 433.7633056640625 75.0877685546875 433.77679443359375 75.05007934570312 C 433.781982421875 75.03555297851562 433.78509521484375 75.0196533203125 433.78125 75.00469970703125 C 433.77801513671875 74.992431640625 433.77044677734375 74.9818115234375 433.762451171875 74.97196960449219 C 433.7373046875 74.94085693359375 433.7039794921875 74.91268920898438 433.6641845703125 74.9088134765625 C 433.6241455078125 74.90495300292969 433.582763671875 74.92945861816406 433.5670166015625 74.96661376953125 C 433.5513916015625 75.00376892089844 433.56219482421875 75.05056762695312 433.5928955078125 75.07681274414062 L 433.594482421875 75.07218933105469" stroke-width="0.6000000238418579" fill="rgb(140, 28, 33)" opacity="1.0"/>
    <path d="M 120.0 419.0 C 120.05636596679688 418.9576416015625 120.11453247070312 418.9129638671875 120.14804077148438 418.8509521484375 C 120.18153381347656 418.788818359375 120.18310546875 418.703369140625 120.13272094726562 418.654052734375 C 120.07037353515625 418.59326171875 119.95663452148438 418.6192626953125 119.9044189453125 418.6890869140625 C 119.85223388671875 418.759033203125 119.84963989257812 418.8548583984375 119.8677978515625 418.94000244140625 C 119.87078857421875 418.9669189453125 119.88375854492188 418.99176025390625 119.9041748046875 419.0096435546875 C 119.92597961425781 419.02490234375 119.96415710449219 419.0179443359375 119.9696044921875 418.99169921875 L 120.0 419.0" stroke-width="0.6000000238418579" fill="rgb(159, 159, 159)" opacity="1.0"/>
    <path d="M 447.426025390625 423.59002685546875 C 447.43280029296875 423.58349609375 447.4375 423.57452392578125 447.4376220703125 423.56512451171875 C 447.437744140625 423.55572509765625 447.432861328125 423.546142578125 447.4244384765625 423.541748046875 C 447.4185791015625 423.5386962890625 447.41143798828125 423.538330078125 447.405029296875 423.5400390625 C 447.3985595703125 423.541748046875 447.3927001953125 423.5452880859375 447.387451171875 423.5494384765625 C 447.38519287109375 423.55126953125 447.3829345703125 423.5533447265625 447.38201904296875 423.55609130859375 C 447.3809814453125 423.5592041015625 447.38177490234375 423.56268310546875 447.3828125 423.56585693359375 C 447.3856201171875 423.5748291015625 447.389892578125 423.583740234375 447.397216796875 423.589599609375 C 447.404541015625 423.595458984375 447.41552734375 423.59765625 447.42352294921875 423.5927734375 L 447.426025390625 423.59002685546875" stroke-width="0.6000000238418579" fill="rgb(159, 159, 159)" opacity="1.0"/>
    <path d="M 445.39654541015625 282.8659973144531 C 445.3695068359375 282.88336181640625 445.3402099609375 282.9038391113281 445.3330078125 282.93511962890625 C 445.3260498046875 282.9655456542969 445.34228515625 282.9960021972656 445.3583984375 283.0227355957031 C 445.364990234375 283.0335693359375 445.37200927734375 283.0448303222656 445.3829345703125 283.05126953125 C 445.4013671875 283.06219482421875 445.425048828125 283.0563659667969 445.4444580078125 283.0472106933594 C 445.46240234375 283.03875732421875 445.47906494140625 283.0277404785156 445.493896484375 283.0145263671875 C 445.51800537109375 282.9930725097656 445.5379638671875 282.9612731933594 445.5299072265625 282.9300537109375 C 445.525634765625 282.9131774902344 445.5135498046875 282.8990478515625 445.499267578125 282.8890075683594 C 445.4849853515625 282.87896728515625 445.46856689453125 282.87255859375 445.4522705078125 282.866455078125 C 445.4359130859375 282.8603515625 445.41973876953125 282.8547058105469 445.4027099609375 282.8558349609375 L 445.39654541015625 282.8659973144531" stroke-width="0.6000000238418579" fill="rgb(218, 166, 20)" opacity="1.0"/>
    <path d="M 428.69940185546875 374.1828918457031 C 428.7236328125 374.20440673828125 428.7606201171875 374.2022399902344 428.78216552734375 374.17803955078125 C 428.7840576171875 374.17596435546875 428.78570556640625 374.17376708984375 428.7872314453125 374.17144775390625 C 428.7930908203125 374.16265869140625 428.7965087890625 374.15179443359375 428.7943115234375 374.1414794921875 C 428.79248046875 374.1327819824219 428.786865234375 374.1253662109375 428.78076171875 374.1188659667969 C 428.7645263671875 374.10150146484375 428.743896484375 374.0888366699219 428.72100830078125 374.0821533203125 C 428.7149658203125 374.08038330078125 428.7086181640625 374.0790710449219 428.702392578125 374.0801696777344 C 428.69195556640625 374.0820007324219 428.68377685546875 374.0905456542969 428.67919921875 374.1000671386719 C 428.67230224609375 374.1142272949219 428.6719970703125 374.1310729980469 428.6766357421875 374.1460876464844 C 428.68133544921875 374.1611022949219 428.690673828125 374.17437744140625 428.7022705078125 374.18511962890625 L 428.69940185546875 374.1828918457031" stroke-width="0.6000000238418579" fill="rgb(143, 165, 67)" opacity="1.0"/>
    <path d="M 446.3294677734375 359.8757019042969 C 446.277099609375 359.9206237792969 446.3035888671875 360.0216369628906 446.36968994140625 360.0398254394531 C 446.435791015625 360.0579833984375 446.5084228515625 359.990234375 446.4998779296875 359.9217529296875 C 446.4913330078125 359.853271484375 446.41156005859375 359.805419921875 446.345458984375 359.8253173828125 L 446.3294677734375 359.8757019042969" stroke-width="0.6000000238418579" fill="rgb(233, 92, 21)" opacity="1.0"/>
    <path d="M 447.9969482421875 87.91181945800781 C 448.0704345703125 87.8712158203125 448.154052734375 87.8150634765625 448.15350341796875 87.73080444335938 C 448.1519775390625 87.69728088378906 448.14013671875 87.66505432128906 448.1195068359375 87.63856506347656 C 448.0703125 87.5716552734375 447.99169921875 87.53277587890625 447.90863037109375 87.53422546386719 C 447.838134765625 87.53564453125 447.77276611328125 87.5667724609375 447.710205078125 87.59832763671875 C 447.6751708984375 87.61610412597656 447.638427734375 87.6361083984375 447.619140625 87.67013549804688 C 447.59375 87.7156982421875 447.6068115234375 87.77276611328125 447.6259765625 87.82125854492188 C 447.65386962890625 87.89227294921875 447.693115234375 87.95828247070312 447.74212646484375 88.01673889160156 C 447.7591552734375 88.03689575195312 447.7781982421875 88.056884765625 447.8031005859375 88.06571960449219 C 447.8265380859375 88.07275390625 447.8515625 88.07281494140625 447.8751220703125 88.06585693359375 C 447.94732666015625 88.04756164550781 448.00787353515625 87.99850463867188 448.040771484375 87.93168640136719 L 447.9969482421875 87.91181945800781" stroke-width="0.6000000238418579" fill="rgb(70, 150, 179)" opacity="1.0"/>
    <path d="M 444.6318359375 398.4155578613281 C 444.86517333984375 398.244140625 445.1165771484375 398.0443115234375 445.16534423828125 397.75909423828125 C 445.217529296875 397.45269775390625 445.005126953125 397.1528015136719 444.738525390625 396.9930725097656 C 444.6357421875 396.93145751953125 444.51910400390625 396.8840026855469 444.3995361328125 396.89105224609375 C 444.3011474609375 396.8968200683594 444.2088623046875 396.93865966796875 444.121826171875 396.984619140625 C 443.846923828125 397.1291809082031 443.58203125 397.3403625488281 443.4925537109375 397.6376953125 C 443.402587890625 397.9374084472656 443.52691650390625 398.28955078125 443.78631591796875 398.465087890625 C 444.045654296875 398.640625 444.41845703125 398.62860107421875 444.6646728515625 398.43463134765625 L 444.6318359375 398.4155578613281" stroke-width="0.6000000238418579" fill="rgb(140, 28, 33)" opacity="1.0"/>
    <path d="M 116.50363159179688 217.23773193359375 C 115.85862731933594 217.16455078125 115.18666076660156 217.09552001953125 114.56974792480469 217.29904174804688 C 113.95285034179688 217.5025634765625 113.40188598632812 218.06460571289062 113.42697143554688 218.713623046875 C 113.459716796875 219.51467895507812 114.3853759765625 220.06045532226562 115.17672729492188 219.923095703125 C 115.96807861328125 219.78570556640625 116.59170532226562 219.16070556640625 117.0089111328125 218.47552490234375 C 117.1593017578125 218.2763671875 117.22958374023438 218.028076171875 117.20585632324219 217.7796630859375 C 117.15676879882812 217.53909301757812 116.85687255859375 217.34451293945312 116.65444946289062 217.485595703125 L 116.50363159179688 217.23773193359375" stroke-width="0.6000000238418579" fill="rgb(159, 159, 159)" opacity="1.0"/>
    <path d="M 116.16415405273438 225.064208984375 C 113.86842346191406 223.98626708984375 111.15336608886719 223.67144775390625 108.7734375 224.54412841796875 C 106.39352416992188 225.41677856445312 104.44183349609375 227.57696533203125 104.143310546875 230.10501098632812 C 103.93452453613281 231.89260864257812 104.5487060546875 233.71630859375 105.59674072265625 235.181396484375 C 106.64476013183594 236.646484375 108.09719848632812 237.781982421875 109.65191650390625 238.69241333007812 C 110.32870483398438 239.08819580078125 111.06729125976562 239.454345703125 111.84878540039062 239.4263916015625 C 112.74479675292969 239.39471435546875 113.53182983398438 238.8524169921875 114.23768615722656 238.29519653320312 C 116.23043823242188 236.7220458984375 118.05802917480469 234.7835693359375 118.83518981933594 232.36627197265625 C 119.61236572265625 229.94891357421875 119.09588623046875 226.98681640625 117.09759521484375 225.43038940429688 L 116.16415405273438 225.064208984375" stroke-width="0.6000000238418579" fill="rgb(159, 159, 159)" opacity="1.0"/>
    <path d="M 295.721923828125 105.798828125 C 293.8898620605469 107.37577819824219 291.9217529296875 109.20799255371094 291.7177429199219 111.61187744140625 C 291.5160217285156 113.94940185546875 293.04315185546875 116.04841613769531 294.5237121582031 117.86985778808594 C 295.126220703125 118.60891723632812 295.76837158203125 119.37246704101562 296.6483154296875 119.7384033203125 C 298.13623046875 120.35821533203125 299.8416442871094 119.67538452148438 301.1871337890625 118.79214477539062 C 302.4363098144531 117.97283935546875 303.56134033203125 116.97840881347656 304.52783203125 115.83929443359375 C 306.0978088378906 113.99026489257812 307.25274658203125 111.41162109375 306.3271789550781 109.17044067382812 C 305.82928466796875 107.95977783203125 304.7796630859375 107.03460693359375 303.6131286621094 106.4361572265625 C 302.4466247558594 105.83773803710938 301.1542663574219 105.532470703125 299.8741455078125 105.24929809570312 C 298.5940246582031 104.96614074707031 297.33013916015625 104.71533203125 296.0771789550781 104.97628784179688 L 295.721923828125 105.798828125" stroke-width="0.6000000238418579" fill="rgb(218, 166, 20)" opacity="1.0"/>
    <path d="M 225.90301513671875 123.06304931640625 C 222.29409790039062 122.1368408203125 218.61767578125 124.31159973144531 217.69143676757812 127.92051696777344 C 217.61212158203125 128.2295379638672 217.55484008789062 128.54380798339844 217.52001953125 128.8609619140625 C 217.38784790039062 130.0660400390625 217.61114501953125 131.358642578125 218.37744140625 132.29727172851562 C 219.02499389648438 133.09054565429688 219.986083984375 133.5561981201172 220.94985961914062 133.90017700195312 C 223.5308837890625 134.8173828125 226.31045532226562 135.02676391601562 228.999755859375 134.506591796875 C 229.71038818359375 134.36788940429688 230.4317626953125 134.1688232421875 231.00863647460938 133.7286834716797 C 231.97750854492188 132.9903564453125 232.3665771484375 131.68646240234375 232.33563232421875 130.46786499023438 C 232.29095458984375 128.6586456298828 231.43936157226562 126.91900634765625 230.16937255859375 125.62910461425781 C 228.89935302734375 124.33920288085938 227.239013671875 123.47512817382812 225.49655151367188 122.98526000976562 L 225.90301513671875 123.06304931640625" stroke-width="0.6000000238418579" fill="rgb(143, 165, 67)" opacity="1.0"/>
    <path d="M 225.5245361328125 100.58914184570312 C 222.75872802734375 103.68580627441406 225.14776611328125 109.49903869628906 229.2352294921875 110.05635070800781 C 233.32269287109375 110.6136474609375 237.11566162109375 105.99301147460938 236.0584716796875 101.9765625 C 235.00128173828125 97.96011352539062 229.86260986328125 95.74163818359375 226.0758056640625 97.456787109375 L 225.5245361328125 100.58914184570312" stroke-width="0.6000000238418579" fill="rgb(233, 92, 21)" opacity="1.0"/>
    <path d="M 206.8065185546875 101.58401489257812 C 205.363037109375 99.94212341308594 203.46844482421875 98.13056945800781 201.3289794921875 98.61503601074219 C 200.48504638671875 98.84097290039062 199.73202514648438 99.32321166992188 199.17379760742188 99.99525451660156 C 197.74786376953125 101.62088012695312 197.19830322265625 103.83680725097656 197.69940185546875 105.94033813476562 C 198.1290283203125 107.7236328125 199.2862548828125 109.21298217773438 200.43792724609375 110.62625122070312 C 201.086181640625 111.41909790039062 201.80014038085938 112.24079895019531 202.773193359375 112.54168701171875 C 204.07342529296875 112.93209838867188 205.45162963867188 112.28108215332031 206.57757568359375 111.5233154296875 C 208.22677612304688 110.41636657714844 209.6859130859375 109.04977416992188 210.8984375 107.4765625 C 211.31634521484375 106.93218994140625 211.7171630859375 106.33447265625 211.80325317382812 105.65383911132812 C 211.85089111328125 105.01690673828125 211.71218872070312 104.37985229492188 211.404052734375 103.82037353515625 C 210.53530883789062 102.08692932128906 208.94989013671875 100.82182312011719 207.06686401367188 100.3594970703125 L 206.8065185546875 101.58401489257812" stroke-width="0.6000000238418579" fill="rgb(70, 150, 179)" opacity="1.0"/>
    <path d="M 261.53460693359375 124.00895690917969 C 259.5970153808594 125.4827880859375 257.51123046875 127.19775390625 257.14141845703125 129.60235595703125 C 256.7456970214844 132.18565368652344 258.57269287109375 134.67727661132812 260.8367004394531 135.9827117919922 C 261.7093811035156 136.4864044189453 262.69635009765625 136.869140625 263.70098876953125 136.79306030273438 C 264.5268859863281 136.73081970214844 265.29681396484375 136.3662872314453 266.0226745605469 135.9678192138672 C 268.31317138671875 134.7139892578125 270.5110168457031 132.90167236328125 271.2214660644531 130.38954162597656 C 271.93572998046875 127.85719299316406 270.8416748046875 124.91397094726562 268.63641357421875 123.47451782226562 C 266.43115234375 122.03506469726562 263.298828125 122.18798828125 261.25640869140625 123.85317993164062 L 261.53460693359375 124.00895690917969" stroke-width="0.6000000238418579" fill="rgb(140, 28, 33)" opacity="1.0"/>
    <path d="M 318.8058776855469 111.96829223632812 C 318.1529846191406 112.38624572753906 317.47821044921875 112.82835388183594 317.0597229003906 113.48159790039062 C 316.6412658691406 114.13482666015625 316.5539245605469 115.0706787109375 317.06597900390625 115.65328979492188 C 317.6996154785156 116.37106323242188 318.9685974121094 116.17971801757812 319.5985412597656 115.45640563964844 C 320.228515625 114.73309326171875 320.3357849121094 113.68414306640625 320.2064208984375 112.73492431640625 C 320.19580078125 112.43708801269531 320.0739440917969 112.154052734375 319.8648376464844 111.94166564941406 C 319.63818359375 111.75567626953125 319.21368408203125 111.80120849609375 319.1322937011719 112.08441162109375 L 318.8058776855469 111.96829223632812" stroke-width="0.6000000238418579" fill="rgb(159, 159, 159)" opacity="1.0"/>
    <path d="M 203.2845458984375 124.61050415039062 C 201.0355224609375 123.48951721191406 198.35345458984375 123.11466979980469 195.975830078125 123.92388916015625 C 193.59814453125 124.73310852050781 191.61483764648438 126.82760620117188 191.260498046875 129.3247833251953 C 191.01220703125 131.09063720703125 191.57830810546875 132.91134643554688 192.5823974609375 134.38685607910156 C 193.5865478515625 135.8623809814453 194.9989013671875 137.02085876464844 196.51776123046875 137.95870971679688 C 197.17901611328125 138.366455078125 197.902099609375 138.7462921142578 198.6768798828125 138.73670959472656 C 199.56512451171875 138.7261199951172 200.3572998046875 138.2071990966797 201.06939697265625 137.671630859375 C 203.07977294921875 136.15960693359375 204.93505859375 134.2818603515625 205.76092529296875 131.90542602539062 C 206.58682250976562 129.5289764404297 206.1439208984375 126.58294677734375 204.20068359375 124.994873046875 L 203.2845458984375 124.61050415039062" stroke-width="0.6000000238418579" fill="rgb(159, 159, 159)" opacity="1.0"/>
    <path d="M 279.1092224121094 108.28265380859375 C 276.9405517578125 108.76470947265625 274.5508728027344 109.39447021484375 273.34197998046875 111.253173828125 C 272.16375732421875 113.05911254882812 272.4895935058594 115.42240905761719 272.89813232421875 117.54061889648438 C 273.06536865234375 118.40087890625 273.2540588378906 119.29817199707031 273.8079833984375 119.97662353515625 C 274.74420166015625 121.12464904785156 276.422119140625 121.3118896484375 277.8954772949219 121.18057250976562 C 279.2630615234375 121.05918884277344 280.6061096191406 120.7420654296875 281.883544921875 120.23892211914062 C 283.9580383300781 119.42268371582031 286.0130615234375 117.83523559570312 286.2362976074219 115.61795043945312 C 286.3585510253906 114.42108154296875 285.90997314453125 113.21597290039062 285.2248229980469 112.22477722167969 C 284.5397033691406 111.23358154296875 283.6253356933594 110.42526245117188 282.7113037109375 109.64013671875 C 281.7972717285156 108.85501098632812 280.88232421875 108.10313415527344 279.75408935546875 107.77058410644531 L 279.1092224121094 108.28265380859375" stroke-width="0.6000000238418579" fill="rgb(218, 166, 20)" opacity="1.0"/>
    <path d="M 241.94964599609375 121.5057373046875 C 239.0615234375 123.56234741210938 238.38742065429688 127.57087707519531 240.44403076171875 130.4590301513672 C 240.6201171875 130.70632934570312 240.81356811523438 130.9408416748047 241.02288818359375 131.16078186035156 C 241.81829833984375 131.99635314941406 242.89547729492188 132.62710571289062 244.04843139648438 132.64566040039062 C 245.02273559570312 132.66143798828125 245.951171875 132.24810791015625 246.79275512695312 131.7581787109375 C 249.04364013671875 130.44366455078125 250.9014892578125 128.55043029785156 252.17333984375 126.27516174316406 C 252.50848388671875 125.67317199707031 252.80633544921875 125.02633666992188 252.84017944335938 124.336669921875 C 252.89764404296875 123.17892456054688 252.18798828125 122.09587097167969 251.28265380859375 121.37062072753906 C 249.9393310546875 120.29296875 248.15142822265625 119.84490966796875 246.4339599609375 119.97714233398438 C 244.7164306640625 120.10939025878906 243.06915283203125 120.786865234375 241.64364624023438 121.75364685058594 L 241.94964599609375 121.5057373046875" stroke-width="0.6000000238418579" fill="rgb(143, 165, 67)" opacity="1.0"/>
    <path d="M 251.26577758789062 100.30880737304688 C 248.59075927734375 103.41958618164062 251.05902099609375 109.1185302734375 255.107666015625 109.59323120117188 C 259.1562805175781 110.06790161132812 262.81781005859375 105.43243408203125 261.6987609863281 101.48391723632812 C 260.5797119140625 97.53543090820312 255.46163940429688 95.43905639648438 251.75225830078125 97.20388793945312 L 251.26577758789062 100.30880737304688" stroke-width="0.6000000238418579" fill="rgb(233, 92, 21)" opacity="1.0"/>
    <path d="M 343.6639709472656 91.58856201171875 C 341.6457214355469 91.54638671875 339.23046875 91.70535278320312 338.2250671386719 93.46380615234375 C 337.8522033691406 94.17916870117188 337.7104797363281 94.99261474609375 337.81951904296875 95.79190063476562 C 338.0360412597656 97.77685546875 339.2012634277344 99.53372192382812 340.94561767578125 100.50537109375 C 342.42742919921875 101.3258056640625 344.1632385253906 101.46762084960938 345.84381103515625 101.56573486328125 C 346.7879333496094 101.61932373046875 347.792724609375 101.64617919921875 348.604736328125 101.17169189453125 C 349.6818542480469 100.53038024902344 350.0988464355469 99.18612670898438 350.2857360839844 97.94692993164062 C 350.5615234375 96.13371276855469 350.5419921875 94.28781127929688 350.2279357910156 92.4808349609375 C 350.11822509765625 91.856689453125 349.9615783691406 91.21087646484375 349.5520324707031 90.72756958007812 C 349.1482849121094 90.29766845703125 348.6281433105469 89.9945068359375 348.0550842285156 89.8551025390625 C 346.3331604003906 89.3646240234375 344.4827880859375 89.6541748046875 342.9930114746094 90.64723205566406 L 343.6639709472656 91.58856201171875" stroke-width="0.6000000238418579" fill="rgb(70, 150, 179)" opacity="1.0"/>
    <path d="M 341.13885498046875 115.31500244140625 C 339.4422302246094 113.40765380859375 337.4815368652344 111.36471557617188 334.9377746582031 111.17131042480469 C 332.2050476074219 110.96517944335938 329.7467956542969 113.07559204101562 328.5638732910156 115.54757690429688 C 328.1073913574219 116.50048828125 327.78656005859375 117.56314086914062 327.94683837890625 118.60739135742188 C 328.0782775878906 119.46588134765625 328.5212707519531 120.2415771484375 328.9962158203125 120.96844482421875 C 330.4912109375 123.26246643066406 332.5626525878906 125.41474914550781 335.2462463378906 125.95565795898438 C 337.9512939453125 126.49893188476562 340.9405822753906 125.1185302734375 342.2683410644531 122.69718933105469 C 343.59613037109375 120.27586364746094 343.18450927734375 117.01321411132812 341.27935791015625 115.01162719726562 L 341.13885498046875 115.31500244140625" stroke-width="0.6000000238418579" fill="rgb(140, 28, 33)" opacity="1.0"/>
    <path d="M 361.23028564453125 102.77040100097656 C 360.7308654785156 103.10659790039062 360.2148742675781 103.46194458007812 359.90167236328125 103.97662353515625 C 359.5884704589844 104.49128723144531 359.5374450683594 105.21945190429688 359.9454040527344 105.66262817382812 C 360.45025634765625 106.20855712890625 361.4320373535156 106.03726196289062 361.908203125 105.46440124511719 C 362.3843688964844 104.89154052734375 362.4488525390625 104.07521057128906 362.3313903808594 103.34054565429688 C 362.3178405761719 103.10948181152344 362.2181396484375 102.89190673828125 362.052001953125 102.73077392578125 C 361.8726806640625 102.59042358398438 361.5439147949219 102.63337707519531 361.4858093261719 102.85470581054688 L 361.23028564453125 102.77040100097656" stroke-width="0.6000000238418579" fill="rgb(159, 159, 159)" opacity="1.0"/>
    <path d="M 355.3161315917969 114.51492309570312 C 353.0980529785156 115.00637817382812 351.00006103515625 116.26846313476562 349.7894287109375 118.18951416015625 C 348.5788269042969 120.11056518554688 348.37640380859375 122.71054077148438 349.5477600097656 124.66696166992188 C 350.3776550292969 126.04911804199219 351.8110656738281 127.00662231445312 353.35595703125 127.472412109375 C 354.90087890625 127.93817138671875 356.55230712890625 127.94895935058594 358.15313720703125 127.74411010742188 C 358.8497314453125 127.65455627441406 359.57391357421875 127.51019287109375 360.1129150390625 127.06277465820312 C 360.7311096191406 126.55010986328125 360.9926452636719 125.73486328125 361.1884460449219 124.95346069335938 C 361.7412109375 122.74740600585938 361.9769592285156 120.37260437011719 361.2056579589844 118.23281860351562 C 360.4343566894531 116.09304809570312 358.44744873046875 114.274658203125 356.1785583496094 114.26394653320312 L 355.3161315917969 114.51492309570312" stroke-width="0.6000000238418579" fill="rgb(159, 159, 159)" opacity="1.0"/>
    <path d="M 366.64422607421875 106.71823120117188 C 364.6204528808594 106.9949951171875 362.3829345703125 107.39030456542969 361.1338806152344 109.00146484375 C 359.9169616699219 110.56661987304688 360.0357971191406 112.7568359375 360.2490539550781 114.72880554199219 C 360.3368835449219 115.52975463867188 360.4414978027344 116.36627197265625 360.8974609375 117.03005981445312 C 361.6679992675781 118.15316772460938 363.1911926269531 118.45236206054688 364.55120849609375 118.44406127929688 C 365.81353759765625 118.43684387207031 367.0682678222656 118.2484130859375 368.27703857421875 117.884521484375 C 370.23992919921875 117.29440307617188 372.24365234375 115.99613952636719 372.6167907714844 113.9814453125 C 372.8198547363281 112.89407348632812 372.5004577636719 111.7557373046875 371.94805908203125 110.79541015625 C 371.3956604003906 109.83509826660156 370.61932373046875 109.02490234375 369.8415222167969 108.23600769042969 C 369.063720703125 107.44709777832031 368.2825622558594 106.68858337402344 367.2740478515625 106.29806518554688 L 366.64422607421875 106.71823120117188" stroke-width="0.6000000238418579" fill="rgb(218, 166, 20)" opacity="1.0"/>
    <path d="M 429.9876708984375 164.60516357421875 C 426.71160888671875 164.3795166015625 423.87286376953125 166.85238647460938 423.647216796875 170.12847900390625 C 423.6279296875 170.40902709960938 423.6285400390625 170.6905517578125 423.6490478515625 170.97100830078125 C 423.7271728515625 172.03665161132812 424.12744140625 173.12127685546875 424.9417724609375 173.81228637695312 C 425.6298828125 174.39630126953125 426.537353515625 174.64617919921875 427.42767333984375 174.79022216796875 C 429.8114013671875 175.17242431640625 432.2540283203125 174.909423828125 434.5018310546875 174.02847290039062 C 435.0955810546875 173.79461669921875 435.68896484375 173.5067138671875 436.1185302734375 173.032958984375 C 436.84027099609375 172.23809814453125 436.96893310546875 171.04574584960938 436.74725341796875 169.9945068359375 C 436.419189453125 168.43353271484375 435.40289306640625 167.0618896484375 434.0958251953125 166.14697265625 C 432.788818359375 165.23208618164062 431.2115478515625 164.7486572265625 429.6229248046875 164.60272216796875 L 429.9876708984375 164.60516357421875" stroke-width="0.6000000238418579" fill="rgb(143, 165, 67)" opacity="1.0"/>
    <path d="M 137.4691619873047 411.8683166503906 C 133.91604614257812 413.93994140625 134.38888549804688 420.14788818359375 138.069580078125 421.9232177734375 C 141.75027465820312 423.69854736328125 146.7373046875 420.5052490234375 146.9697723388672 416.3975830078125 C 147.2022247314453 412.2899169921875 143.03916931152344 408.6279296875 138.94667053222656 409.0856628417969 L 137.4691619873047 411.8683166503906" stroke-width="0.6000000238418579" fill="rgb(233, 92, 21)" opacity="1.0"/>
    <path d="M 429.57958984375 176.08798217773438 C 427.7034912109375 175.64080810546875 425.416015625 175.30126953125 424.1219482421875 176.74017333984375 C 423.629150390625 177.33282470703125 423.33251953125 178.06378173828125 423.2728271484375 178.83221435546875 C 423.073974609375 180.7294921875 423.80706787109375 182.60546875 425.2396240234375 183.865234375 C 426.45751953125 184.93072509765625 428.0498046875 185.41387939453125 429.5992431640625 185.84503173828125 C 430.4700927734375 186.0858154296875 431.4029541015625 186.31390380859375 432.25701904296875 186.034912109375 C 433.39239501953125 185.6536865234375 434.0533447265625 184.48269653320312 434.478271484375 183.36328125 C 435.1021728515625 181.72586059570312 435.4569091796875 179.99822998046875 435.52874755859375 178.24740600585938 C 435.5523681640625 177.64242553710938 435.53662109375 177.00772094726562 435.2518310546875 176.47366333007812 C 434.961669921875 175.99066162109375 434.5372314453125 175.60247802734375 434.0302734375 175.35650634765625 C 432.521484375 174.55059814453125 430.73504638671875 174.44708251953125 429.143310546875 175.07342529296875 L 429.57958984375 176.08798217773438" stroke-width="0.6000000238418579" fill="rgb(70, 150, 179)" opacity="1.0"/>
    <path d="M 416.8624267578125 161.50128173828125 C 415.381103515625 159.78179931640625 413.6669921875 157.93801879882812 411.40838623046875 157.73016357421875 C 408.98199462890625 157.50836181640625 406.7669372558594 159.34976196289062 405.68048095703125 161.53057861328125 C 405.26123046875 162.3712158203125 404.96099853515625 163.31134033203125 405.0887451171875 164.24191284179688 C 405.1934814453125 165.00692749023438 405.57635498046875 165.7027587890625 405.98828125 166.3555908203125 C 407.284912109375 168.416015625 409.0959777832031 170.3585205078125 411.47393798828125 170.87725830078125 C 413.8709716796875 171.39837646484375 416.5478515625 170.21343994140625 417.7623291015625 168.0797119140625 C 418.976806640625 165.94598388671875 418.656982421875 163.039794921875 416.99163818359375 161.23358154296875 L 416.8624267578125 161.50128173828125" stroke-width="0.6000000238418579" fill="rgb(140, 28, 33)" opacity="1.0"/>
    <path d="M 147.0 115.0 C 146.52166748046875 115.35929870605469 146.0278778076172 115.73844909667969 145.7435302734375 116.26528930664062 C 145.45916748046875 116.7921142578125 145.44593811035156 117.51736450195312 145.8735809326172 117.93618774414062 C 146.40261840820312 118.45199584960938 147.3681182861328 118.2315673828125 147.8112030029297 117.63858032226562 C 148.2542724609375 117.04562377929688 148.27630615234375 116.23220825195312 148.12200927734375 115.50920104980469 C 148.09666442871094 115.28060913085938 147.98655700683594 115.06982421875 147.8134002685547 114.91842651367188 C 147.62823486328125 114.78837585449219 147.30419921875 114.847900390625 147.25790405273438 115.07052612304688 L 147.0 115.0" stroke-width="0.6000000238418579" fill="rgb(159, 159, 159)" opacity="1.0"/>
    <path d="M 424.9617919921875 172.67578125 C 422.9493408203125 172.34613037109375 420.780029296875 172.6988525390625 419.1307373046875 173.89654541015625 C 417.4814453125 175.09423828125 416.44622802734375 177.19381713867188 416.7705078125 179.21484375 C 417.0015869140625 180.6434326171875 417.877197265625 181.91925048828125 419.009521484375 182.82232666015625 C 420.1419677734375 183.7254638671875 421.514892578125 184.28485107421875 422.9173583984375 184.64761352539062 C 423.52783203125 184.80511474609375 424.1795654296875 184.9261474609375 424.77789306640625 184.73291015625 C 425.4639892578125 184.51162719726562 425.9537353515625 183.9193115234375 426.3773193359375 183.333251953125 C 427.57330322265625 181.67877197265625 428.561279296875 179.77801513671875 428.63153076171875 177.73745727539062 C 428.7017822265625 175.69692993164062 427.65179443359375 173.51910400390625 425.7642822265625 172.7540283203125 L 424.9617919921875 172.67578125" stroke-width="0.6000000238418579" fill="rgb(159, 159, 159)" opacity="1.0"/>
    <path d="M 416.52593994140625 179.5384521484375 C 414.874267578125 177.99603271484375 412.971435546875 176.35308837890625 410.71661376953125 176.40771484375 C 408.523681640625 176.45773315429688 406.7281188964844 178.09030151367188 405.18572998046875 179.65130615234375 C 404.5600891113281 180.286376953125 403.91571044921875 180.96075439453125 403.6650390625 181.81573486328125 C 403.24017333984375 183.26153564453125 404.0480651855469 184.777099609375 405.005615234375 185.93783569335938 C 405.89398193359375 187.01553344726562 406.9324951171875 187.9600830078125 408.08935546875 188.7425537109375 C 409.96728515625 190.0137939453125 412.48114013671875 190.82513427734375 414.469970703125 189.73724365234375 C 415.5445556640625 189.1514892578125 416.2977294921875 188.08200073242188 416.73541259765625 186.93707275390625 C 417.173095703125 185.7921142578125 417.325439453125 184.56005859375 417.45849609375 183.34158325195312 C 417.5916748046875 182.12310791015625 417.6962890625 180.9229736328125 417.32647705078125 179.7850341796875 L 416.52593994140625 179.5384521484375" stroke-width="0.6000000238418579" fill="rgb(218, 166, 20)" opacity="1.0"/>
    <path d="M 442.15704345703125 177.33001708984375 C 439.09869384765625 179.40521240234375 438.3016357421875 183.56674194335938 440.3768310546875 186.62509155273438 C 440.5545654296875 186.88699340820312 440.7506103515625 187.13592529296875 440.9635009765625 187.37008666992188 C 441.7728271484375 188.2596435546875 442.8804931640625 188.94235229492188 444.08154296875 188.9888916015625 C 445.0965576171875 189.0283203125 446.0738525390625 188.61944580078125 446.9625244140625 188.12872314453125 C 449.3392333984375 186.8118896484375 451.32000732421875 184.8826904296875 452.6990966796875 182.54150390625 C 453.0626220703125 181.92205810546875 453.38824462890625 181.25497436523438 453.43975830078125 180.53704833984375 C 453.5269775390625 179.33187866210938 452.81292724609375 178.18646240234375 451.88653564453125 177.4093017578125 C 450.511962890625 176.2545166015625 448.6593017578125 175.74542236328125 446.8663330078125 175.8427734375 C 445.0733642578125 175.9400634765625 443.3406982421875 176.60723876953125 441.832275390625 177.5811767578125 L 442.15704345703125 177.33001708984375" stroke-width="0.6000000238418579" fill="rgb(143, 165, 67)" opacity="1.0"/>
    <path d="M 142.29296875 110.49710083007812 C 134.9019775390625 113.38775634765625 133.9535369873047 125.36347961425781 140.44140625 129.8447723388672 C 146.92929077148438 134.32603454589844 157.38818359375 129.7242889404297 159.05532836914062 121.96275329589844 C 160.72250366210938 114.20121765136719 153.8772430419922 105.97940063476562 145.9388885498047 105.63250732421875 L 142.29296875 110.49710083007812" stroke-width="0.6000000238418579" fill="rgb(233, 92, 21)" opacity="1.0"/>
    <path d="M 442.0050048828125 150.62991333007812 C 438.9586181640625 152.72454833984375 435.5367431640625 155.54261779785156 435.9212646484375 159.2322998046875 C 436.13140869140625 160.6947021484375 436.7901611328125 162.05584716796875 437.80670166015625 163.12799072265625 C 440.25048828125 165.84835815429688 443.8612060546875 167.21551513671875 447.49383544921875 166.7958984375 C 450.574462890625 166.43203735351562 453.307373046875 164.78750610351562 455.911376953125 163.13702392578125 C 457.3726806640625 162.20751953125 458.8956298828125 161.17343139648438 459.59600830078125 159.59988403320312 C 460.5123291015625 157.49481201171875 459.695556640625 155.050048828125 458.64886474609375 153.0074462890625 C 457.120849609375 150.01620483398438 455.11871337890625 147.29200744628906 452.72015380859375 144.9405059814453 C 451.88983154296875 144.12962341308594 450.966552734375 143.33670043945312 449.8409423828125 143.05569458007812 C 448.781005859375 142.84796142578125 447.6834716796875 142.95314025878906 446.68218994140625 143.3583984375 C 443.59722900390625 144.4695281982422 441.155029296875 146.87802124023438 440.0010986328125 149.94723510742188 L 442.0050048828125 150.62991333007812" stroke-width="0.6000000238418579" fill="rgb(70, 150, 179)" opacity="1.0"/>
    <path d="M 378.9066467285156 88.73806762695312 C 376.4535827636719 85.73953247070312 373.6086730957031 82.51889038085938 369.76361083984375 82.06614685058594 C 365.63287353515625 81.58226013183594 361.7731018066406 84.62823486328125 359.8244323730469 88.3023681640625 C 359.072509765625 89.71865844726562 358.5194091796875 91.30987548828125 358.6969909667969 92.90333557128906 C 358.84246826171875 94.21331787109375 359.4655456542969 95.41729736328125 360.1401672363281 96.54924011230469 C 362.2632141113281 100.12139892578125 365.2692565917969 103.51480102539062 369.3045349121094 104.50321960449219 C 373.3721618652344 105.49658203125 377.9914245605469 103.59085083007812 380.1565246582031 100.00259399414062 C 382.3216247558594 96.41433715820312 381.90203857421875 91.44131469726562 379.13873291015625 88.286865234375 L 378.9066467285156 88.73806762695312" stroke-width="0.6000000238418579" fill="rgb(140, 28, 33)" opacity="1.0"/>
    <path d="M 128.61756896972656 405.9544372558594 C 127.50521850585938 406.4549255371094 126.35328674316406 406.98797607421875 125.5517578125 407.9085998535156 C 124.750244140625 408.8291931152344 124.39920043945312 410.26580810546875 125.06228637695312 411.2903747558594 C 125.88360595703125 412.55322265625 127.90278625488281 412.547119140625 129.04962158203125 411.5660400390625 C 130.19644165039062 410.5849914550781 130.60450744628906 408.9769287109375 130.621337890625 407.4696960449219 C 130.6732940673828 407.0036315917969 130.5486602783203 406.5350646972656 130.2720184326172 406.1564025878906 C 129.96194458007812 405.8148193359375 129.29075622558594 405.7881164550781 129.09898376464844 406.210205078125 L 128.61756896972656 405.9544372558594" stroke-width="0.6000000238418579" fill="rgb(159, 159, 159)" opacity="1.0"/>
    <path d="M 416.44879150390625 200.18707275390625 C 413.16632080078125 197.8470458984375 409.0106201171875 196.5806884765625 405.0403747558594 197.26678466796875 C 401.0701599121094 197.952880859375 397.40252685546875 200.7742919921875 396.21502685546875 204.6422119140625 C 395.37890625 207.3779296875 395.8193664550781 210.40472412109375 397.04046630859375 212.994384765625 C 398.26153564453125 215.58407592773438 400.2089538574219 217.77374267578125 402.3804626464844 219.64056396484375 C 403.325927734375 220.452392578125 404.3764343261719 221.23553466796875 405.6064453125 221.41458129882812 C 407.0165100097656 221.6204833984375 408.40179443359375 220.99688720703125 409.66436767578125 220.32681274414062 C 413.2288818359375 218.43505859375 416.6392822265625 215.92495727539062 418.543701171875 212.3665771484375 C 420.4481201171875 208.8082275390625 420.48492431640625 204.02923583984375 417.80401611328125 201.02578735351562 L 416.44879150390625 200.18707275390625" stroke-width="0.6000000238418579" fill="rgb(159, 159, 159)" opacity="1.0"/>
    <path d="M 385.5208740234375 111.70492553710938 C 381.5452880859375 112.12652587890625 377.14453125 112.76739501953125 374.6055603027344 115.84542846679688 C 372.1322021484375 118.83534240722656 372.2349548339844 123.127197265625 372.535400390625 126.99765014648438 C 372.6597595214844 128.56979370117188 372.81494140625 130.21250915527344 373.66766357421875 131.5380859375 C 375.1085510253906 133.78091430664062 378.0707702636719 134.45640563964844 380.73187255859375 134.52072143554688 C 383.20184326171875 134.58135986328125 385.6676940917969 134.28701782226562 388.0539855957031 133.64671325683594 C 391.9290466308594 132.6084442138672 395.92584228515625 130.187255859375 396.7751770019531 126.26791381835938 C 397.23681640625 124.15267944335938 396.6793518066406 121.90678405761719 395.6555480957031 119.995361328125 C 394.6317138671875 118.08393859863281 393.16094970703125 116.45297241210938 391.6860046386719 114.86354064941406 C 390.2110900878906 113.27410888671875 388.7277526855469 111.74394226074219 386.7779235839844 110.92024230957031 L 385.5208740234375 111.70492553710938" stroke-width="0.6000000238418579" fill="rgb(218, 166, 20)" opacity="1.0"/>
    <path d="M 399.7427062988281 89.06076049804688 C 394.5129089355469 85.98567199707031 387.7804870605469 87.73240661621094 384.7054138183594 92.96218872070312 C 384.44207763671875 93.41001892089844 384.21087646484375 93.87596130371094 384.01348876953125 94.35652160644531 C 383.2638244628906 96.18264770507812 383.0308837890625 98.30583190917969 383.8071594238281 100.11978149414062 C 384.4630126953125 101.65274047851562 385.75714111328125 102.81436157226562 387.1102294921875 103.78677368164062 C 390.7356872558594 106.38470458984375 394.99066162109375 107.96450805664062 399.4331359863281 108.36207580566406 C 400.6075744628906 108.46519470214844 401.8260192871094 108.47866821289062 402.92694091796875 108.04983520507812 C 404.77557373046875 107.33102416992188 405.97174072265625 105.46600341796875 406.4723205566406 103.54525756835938 C 407.21746826171875 100.69416809082031 406.66864013671875 97.58842468261719 405.2624816894531 94.99794006347656 C 403.8563537597656 92.40745544433594 401.6475524902344 90.30740356445312 399.1417236328125 88.75592041015625 L 399.7427062988281 89.06076049804688" stroke-width="0.6000000238418579" fill="rgb(143, 165, 67)" opacity="1.0"/>
    <path d="M 120.23764038085938 417.529052734375 C 113.99832153320312 412.8751220703125 103.5367431640625 418.29595947265625 103.17059326171875 426.02099609375 C 102.80445861816406 433.74609375 112.0592041015625 440.066650390625 119.38522338867188 437.4295654296875 C 126.71122741699219 434.79248046875 130.0060272216797 424.830078125 126.17811584472656 418.04156494140625 L 120.23764038085938 417.529052734375" stroke-width="0.6000000238418579" fill="rgb(233, 92, 21)" opacity="1.0"/>
    <path d="M 438.7784423828125 197.114501953125 C 435.6898193359375 199.249755859375 432.2218017578125 202.12066650390625 432.621826171875 205.86703491210938 C 432.8389892578125 207.35174560546875 433.5115966796875 208.73248291015625 434.5467529296875 209.8187255859375 C 437.0357666015625 212.57528686523438 440.7064208984375 213.95449829101562 444.394775390625 213.51895141601562 C 447.5225830078125 213.1414794921875 450.2939453125 211.46417236328125 452.9344482421875 209.78118896484375 C 454.4161376953125 208.83340454101562 455.96026611328125 207.77920532226562 456.66748046875 206.17926025390625 C 457.5926513671875 204.0389404296875 456.7568359375 201.55807495117188 455.68853759765625 199.48626708984375 C 454.12890625 196.45220947265625 452.0885009765625 193.69061279296875 449.6463623046875 191.30853271484375 C 448.801025390625 190.48712158203125 447.8612060546875 189.6842041015625 446.71728515625 189.40170288085938 C 445.6402587890625 189.19345092773438 444.52581787109375 189.3031005859375 443.510009765625 189.71728515625 C 440.379638671875 190.85372924804688 437.905517578125 193.30618286132812 436.741455078125 196.42633056640625 L 438.7784423828125 197.114501953125" stroke-width="0.6000000238418579" fill="rgb(70, 150, 179)" opacity="1.0"/>
    <path d="M 418.69189453125 137.5198974609375 C 416.15179443359375 134.2822265625 413.20037841796875 130.8001708984375 409.1267395019531 130.2358856201172 C 404.7503967285156 129.63235473632812 400.585205078125 132.78341674804688 398.4360046386719 136.64306640625 C 397.6067199707031 138.13084411621094 396.9847717285156 139.80870056152344 397.1387939453125 141.50482177734375 C 397.2648620605469 142.899169921875 397.90045166015625 144.19131469726562 398.5923156738281 145.40809631347656 C 400.76947021484375 149.247802734375 403.88824462890625 152.91683959960938 408.1522521972656 154.0541229248047 C 412.4505615234375 155.1973419189453 417.3975830078125 153.27371215820312 419.7747802734375 149.5099639892578 C 422.1519775390625 145.7462158203125 421.8143310546875 140.4557647705078 418.9481201171875 137.04576110839844 L 418.69189453125 137.5198974609375" stroke-width="0.6000000238418579" fill="rgb(140, 28, 33)" opacity="1.0"/>
    <path d="M 403.8774719238281 89.48312377929688 C 403.52496337890625 90.70608520507812 403.1716613769531 91.98252868652344 403.3632507324219 93.24169921875 C 403.5548400878906 94.5008544921875 404.4610900878906 95.74984741210938 405.72393798828125 95.91371154785156 C 407.2832336425781 96.11251831054688 408.64117431640625 94.50161743164062 408.634521484375 92.92686462402344 C 408.6278991699219 91.35211181640625 407.6236877441406 89.94204711914062 406.4356689453125 88.91134643554688 C 406.0998840332031 88.55543518066406 405.64288330078125 88.33834838867188 405.15484619140625 88.30291748046875 C 404.6737365722656 88.319091796875 404.1994934082031 88.83517456054688 404.40594482421875 89.27267456054688 L 403.8774719238281 89.48312377929688" stroke-width="0.6000000238418579" fill="rgb(159, 159, 159)" opacity="1.0"/>
    <path d="M 436.462890625 228.0572509765625 C 433.36517333984375 230.74313354492188 431.1202392578125 234.548828125 430.849853515625 238.6376953125 C 430.57940673828125 242.7265625 432.49224853515625 247.02658081054688 436.03228759765625 249.124755859375 C 438.5369873046875 250.60504150390625 441.634521484375 250.89288330078125 444.4864501953125 250.30450439453125 C 447.33837890625 249.7161865234375 449.9683837890625 248.314208984375 452.332763671875 246.613525390625 C 453.36126708984375 245.87286376953125 454.386474609375 245.021484375 454.857421875 243.8482666015625 C 455.39794921875 242.50347900390625 455.1124267578125 240.9849853515625 454.751708984375 239.57672119140625 C 453.7332763671875 235.600830078125 452.06671142578125 231.62954711914062 449.0040283203125 228.8966064453125 C 445.9412841796875 226.16363525390625 441.22564697265625 224.98526000976562 437.6158447265625 226.91790771484375 L 436.462890625 228.0572509765625" stroke-width="0.6000000238418579" fill="rgb(159, 159, 159)" opacity="1.0"/>
    <path d="M 414.20458984375 256.6075744628906 C 410.91632080078125 254.02587890625 407.1493835449219 251.29867553710938 403.0020446777344 251.7559814453125 C 398.9681091308594 252.195068359375 395.91680908203125 255.48806762695312 393.3208923339844 258.60919189453125 C 392.2681884765625 259.8786926269531 391.1871643066406 261.2235107421875 390.8603515625 262.8390197753906 C 390.30596923828125 265.571044921875 392.0346984863281 268.2366638183594 393.9831848144531 270.224609375 C 395.791015625 272.0704345703125 397.8545227050781 273.6470947265625 400.11053466796875 274.9063720703125 C 403.7729187011719 276.952392578125 408.53460693359375 278.05023193359375 412.0283203125 275.7304992675781 C 413.91619873046875 274.4809265136719 415.13525390625 272.3905944824219 415.7608642578125 270.21112060546875 C 416.38641357421875 268.0316162109375 416.472412109375 265.73663330078125 416.5250244140625 263.4697570800781 C 416.57763671875 261.202880859375 416.58074951171875 258.9743347167969 415.7191162109375 256.93548583984375 L 414.20458984375 256.6075744628906" stroke-width="0.6000000238418579" fill="rgb(218, 166, 20)" opacity="1.0"/>
    <path d="M 411.6206970214844 90.80328369140625 C 406.4834899902344 94.28045654296875 405.13775634765625 101.26380920410156 408.6149597167969 106.40101623535156 C 408.9127197265625 106.84092712402344 409.2413024902344 107.25914001464844 409.5982360839844 107.65255737304688 C 410.9548034667969 109.14714050292969 412.81268310546875 110.29518127441406 414.82855224609375 110.37557983398438 C 416.5321044921875 110.44366455078125 418.1732177734375 109.75930786132812 419.66558837890625 108.93734741210938 C 423.65728759765625 106.731689453125 426.985595703125 103.49745178222656 429.3048095703125 99.57061767578125 C 429.9161376953125 98.5316162109375 430.4639892578125 97.41258239746094 430.55181884765625 96.20770263671875 C 430.70050048828125 94.18505859375 429.50421142578125 92.26115417480469 427.9508056640625 90.95497131347656 C 425.64599609375 89.01416015625 422.537353515625 88.1561279296875 419.52783203125 88.3160400390625 C 416.5181884765625 88.4759521484375 413.6087646484375 89.5924072265625 411.0751647949219 91.22418212890625 L 411.6206970214844 90.80328369140625" stroke-width="0.6000000238418579" fill="rgb(143, 165, 67)" opacity="1.0"/>
    <path d="M 437.244873046875 127.3446044921875 C 431.99188232421875 132.42616271972656 435.440185546875 142.93836975097656 442.5445556640625 144.4412841796875 C 449.64892578125 145.9441680908203 456.9007568359375 138.3189697265625 455.5601806640625 131.13206481933594 C 454.21954345703125 123.94515991210938 445.4827880859375 119.39102172851562 438.6146240234375 121.91619873046875 L 437.244873046875 127.3446044921875" stroke-width="0.6000000238418579" fill="rgb(233, 92, 21)" opacity="1.0"/>
    <path d="M 436.31341552734375 101.70260620117188 C 433.38726806640625 103.88900756835938 430.11865234375 106.80418395996094 430.6417236328125 110.431884765625 C 430.90606689453125 111.86746215820312 431.609375 113.18563842773438 432.65460205078125 114.20455932617188 C 435.1729736328125 116.79522705078125 438.790771484375 118.00453186035156 442.36083984375 117.44900512695312 C 445.3880615234375 116.97001647949219 448.02215576171875 115.24017333984375 450.52880859375 113.50949096679688 C 451.935302734375 112.53501892089844 453.398681640625 111.45489501953125 454.02886962890625 109.87417602539062 C 454.8516845703125 107.76031494140625 453.9501953125 105.37847900390625 452.83746337890625 103.40263366699219 C 451.21258544921875 100.50894165039062 449.13006591796875 97.8973388671875 446.670654296875 95.66909790039062 C 445.8194580078125 94.90083312988281 444.8770751953125 94.15391540527344 443.7548828125 93.92027282714844 C 442.7003173828125 93.75640869140625 441.62091064453125 93.90290832519531 440.648193359375 94.34193420410156 C 437.645751953125 95.55885314941406 435.328369140625 98.0316162109375 434.3084716796875 101.1065673828125 L 436.31341552734375 101.70260620117188" stroke-width="0.6000000238418579" fill="rgb(70, 150, 179)" opacity="1.0"/>
    <path d="M 312.0 391.0 C 308.22015380859375 390.57025146484375 304.0124206542969 390.25262451171875 300.99676513671875 392.567626953125 C 297.7587585449219 395.056396484375 297.12908935546875 399.84332275390625 298.2744445800781 403.7633056640625 C 298.71539306640625 405.27490234375 299.4160461425781 406.77337646484375 300.6324157714844 407.7729797363281 C 301.63201904296875 408.5951232910156 302.89508056640625 409.0155029296875 304.14508056640625 409.3499450683594 C 308.08563232421875 410.40936279296875 312.5250549316406 410.73822021484375 316.04144287109375 408.66986083984375 C 319.5840148925781 406.5827941894531 321.529052734375 402.0780029296875 320.5948486328125 398.0701904296875 C 319.6606140136719 394.0623779296875 315.959228515625 390.85052490234375 311.8542785644531 390.5235595703125 L 312.0 391.0" stroke-width="0.6000000238418579" fill="rgb(140, 28, 33)" opacity="1.0"/>
    <path d="M 311.0 391.0 C 309.6232604980469 392.03411865234375 308.2021179199219 393.1253662109375 307.3836669921875 394.6416931152344 C 306.56524658203125 396.1579895019531 306.5271911621094 398.24530029296875 307.7580261230469 399.45074462890625 C 309.2806396484375 400.9353332519531 312.05950927734375 400.3009033203125 313.3347473144531 398.59423828125 C 314.6099853515625 396.8876037597656 314.67340087890625 394.5465087890625 314.22930908203125 392.4655456542969 C 314.1563720703125 391.8076171875 313.8394470214844 391.200927734375 313.3410949707031 390.7652282714844 C 312.80816650390625 390.39093017578125 311.8755187988281 390.5622253417969 311.7422790527344 391.2030029296875 L 311.0 391.0" stroke-width="0.6000000238418579" fill="rgb(159, 159, 159)" opacity="1.0"/>
    <path d="M 323.68182373046875 398.5106506347656 C 318.8096923828125 399.9009094238281 314.3077697753906 402.9907531738281 311.869384765625 407.428955078125 C 309.43096923828125 411.8671569824219 309.3275146484375 417.68212890625 312.1964111328125 421.8809814453125 C 314.228515625 424.8470458984375 317.54736328125 426.787109375 321.0487365722656 427.61767578125 C 324.55010986328125 428.4482421875 328.2279357910156 428.251708984375 331.76422119140625 427.58184814453125 C 333.302978515625 427.2894287109375 334.8958435058594 426.871337890625 336.0360107421875 425.8033447265625 C 337.3437194824219 424.57958984375 337.8170471191406 422.729736328125 338.1485900878906 420.964111328125 C 339.0845031738281 415.979248046875 339.2921142578125 410.6611328125 337.289306640625 406.00067138671875 C 335.2864685058594 401.3402099609375 330.6204833984375 397.55755615234375 325.56817626953125 397.8367919921875 L 323.68182373046875 398.5106506347656" stroke-width="0.6000000238418579" fill="rgb(159, 159, 159)" opacity="1.0"/>
    <path d="M 267.1667175292969 401.4299621582031 C 262.35382080078125 403.2301025390625 257.08203125 405.4395446777344 254.90939331054688 410.0850830078125 C 252.79013061523438 414.59991455078125 254.29486083984375 419.9088134765625 255.91049194335938 424.62969970703125 C 256.56964111328125 426.5465087890625 257.2897644042969 428.5413818359375 258.7763366699219 429.91766357421875 C 261.2892761230469 432.2469482421875 265.1928405761719 432.1373291015625 268.5256042480469 431.36370849609375 C 271.6192626953125 430.64678955078125 274.59393310546875 429.4893798828125 277.35858154296875 427.9268798828125 C 281.8485412597656 425.3914794921875 286.04638671875 421.0958251953125 285.8461608886719 415.9451904296875 C 285.74212646484375 413.16436767578125 284.32781982421875 410.5478820800781 282.4403381347656 408.4972839355469 C 280.5528564453125 406.44671630859375 278.19903564453125 404.8885803222656 275.8533935546875 403.38348388671875 C 273.5077209472656 401.8783874511719 271.170654296875 400.4497375488281 268.47955322265625 400.050048828125 L 267.1667175292969 401.4299621582031" stroke-width="0.6000000238418579" fill="rgb(218, 166, 20)" opacity="1.0"/>
    <path d="M 226.72354125976562 404.5517272949219 C 218.52481079101562 402.2914123535156 210.04605102539062 407.1054382324219 207.78570556640625 415.30419921875 C 207.5921630859375 416.0062255859375 207.44866943359375 416.72113037109375 207.35629272460938 417.4434814453125 C 207.00576782226562 420.1884765625 207.46286010742188 423.1474609375 209.1737060546875 425.32080078125 C 210.61932373046875 427.157470703125 212.79388427734375 428.25921630859375 214.97943115234375 429.0833740234375 C 220.83270263671875 431.28143310546875 227.167724609375 431.8720703125 233.32647705078125 430.79412841796875 C 234.95394897460938 430.5064697265625 236.60836791992188 430.0814208984375 237.9427490234375 429.100341796875 C 240.18389892578125 427.45458984375 241.12469482421875 424.49462890625 241.10357666015625 421.7122802734375 C 241.0750732421875 417.5814208984375 239.20220947265625 413.57659912109375 236.35614013671875 410.5812072753906 C 233.51007080078125 407.5858459472656 229.755859375 405.5464172363281 225.799072265625 404.3576965332031 L 226.72354125976562 404.5517272949219" stroke-width="0.6000000238418579" fill="rgb(143, 165, 67)" opacity="1.0"/>
    <path d="M 287.0621643066406 379.4500427246094 C 281.44525146484375 386.8251953125 287.7764587402344 399.3489074707031 296.97216796875 399.8770446777344 C 306.1678466796875 400.4051513671875 313.8055725097656 389.45867919921875 310.75225830078125 380.7024230957031 C 307.698974609375 371.9461669921875 295.8736877441406 367.90350341796875 287.74334716796875 372.38140869140625 L 287.0621643066406 379.4500427246094" stroke-width="0.6000000238418579" fill="rgb(233, 92, 21)" opacity="1.0"/>
    <path d="M 338.04541015625 377.51507568359375 C 334.337158203125 380.42022705078125 330.2088623046875 384.27508544921875 330.9901428222656 388.9368591308594 C 331.3732604980469 390.7799377441406 332.31884765625 392.458740234375 333.696533203125 393.74163818359375 C 337.0198059082031 397.0075378417969 341.71990966796875 398.4601135253906 346.3063659667969 397.638671875 C 350.1951599121094 396.931884765625 353.5403747558594 394.6239929199219 356.7212219238281 392.3187561035156 C 358.50592041015625 391.02093505859375 360.3607482910156 389.5851745605469 361.126708984375 387.5285949707031 C 362.1252136230469 384.7789611816406 360.8927917480469 381.7346496582031 359.3999328613281 379.219970703125 C 357.2196960449219 375.5370178222656 354.457763671875 372.23126220703125 351.22119140625 369.4308776855469 C 350.1010437011719 368.4654541015625 348.8640441894531 367.53021240234375 347.41033935546875 367.2620544433594 C 346.0458984375 367.08184814453125 344.6584777832031 367.30255126953125 343.41729736328125 367.8972473144531 C 339.5821533203125 369.5546875 336.6671447753906 372.81109619140625 335.44287109375 376.8056945800781 L 338.04541015625 377.51507568359375" stroke-width="0.6000000238418579" fill="rgb(70, 150, 179)" opacity="1.0"/>
    <path d="M 300.7796936035156 401.0745544433594 C 295.81048583984375 402.8014221191406 290.3750305175781 404.92413330078125 288.0014343261719 409.6151428222656 C 285.4546813964844 414.6558837890625 287.53515625 421.0001220703125 291.3094177246094 425.201171875 C 292.763916015625 426.821533203125 294.5343322753906 428.2701416015625 296.64898681640625 428.7882080078125 C 298.38720703125 429.2147216796875 300.2134094238281 428.982666015625 301.9718017578125 428.6513671875 C 307.5182189941406 427.61328125 313.2492370605469 425.3658447265625 316.3946838378906 420.68255615234375 C 319.5615234375 415.9603271484375 319.28973388671875 409.18035888671875 315.7261047363281 404.74346923828125 C 312.1625061035156 400.3065490722656 305.62579345703125 398.5182800292969 300.3128356933594 400.5678405761719 L 300.7796936035156 401.0745544433594" stroke-width="0.6000000238418579" fill="rgb(140, 28, 33)" opacity="1.0"/>
    <path d="M 337.6759338378906 390.3240661621094 C 336.2765808105469 391.3286437988281 334.8315124511719 392.389404296875 333.9801330566406 393.88836669921875 C 333.1287841796875 395.3872985839844 333.04559326171875 397.4742126464844 334.2506103515625 398.7065124511719 C 335.7414855957031 400.2243347167969 338.5346374511719 399.6498107910156 339.8470153808594 397.9703674316406 C 341.159423828125 396.2909240722656 341.2734680175781 393.9507141113281 340.8742370605469 391.8597412109375 C 340.8155212402344 391.2000732421875 340.51165771484375 390.58642578125 340.0225830078125 390.1398620605469 C 339.4976501464844 389.7539367675781 338.56109619140625 389.9051208496094 338.41400146484375 390.54315185546875 L 337.6759338378906 390.3240661621094" stroke-width="0.6000000238418579" fill="rgb(159, 159, 159)" opacity="1.0"/>
    <path d="M 351.21368408203125 395.413330078125 C 346.27978515625 396.524169921875 341.6190185546875 399.34967041015625 338.938720703125 403.6352844238281 C 336.2584228515625 407.9208984375 335.8275146484375 413.710205078125 338.44989013671875 418.05645751953125 C 340.307861328125 421.126953125 343.5060119628906 423.24755859375 346.9486083984375 424.272705078125 C 350.3912353515625 425.29779052734375 354.0675964355469 425.3092041015625 357.62957763671875 424.841064453125 C 359.1795654296875 424.63641357421875 360.79058837890625 424.3095703125 361.987060546875 423.3094482421875 C 363.35931396484375 422.16357421875 363.9353332519531 420.3468017578125 364.3652648925781 418.6058349609375 C 365.5790100097656 413.69073486328125 366.0857238769531 408.4024353027344 364.3525085449219 403.64495849609375 C 362.6192321777344 398.8874816894531 358.1824035644531 394.85467529296875 353.1316223144531 394.8481140136719 L 351.21368408203125 395.413330078125" stroke-width="0.6000000238418579" fill="rgb(159, 159, 159)" opacity="1.0"/>
    <path d="M 266.5498046875 382.75506591796875 C 263.0507507324219 379.26904296875 259.0103759765625 375.5457458496094 254.08099365234375 375.5057373046875 C 249.28717041015625 375.4601135253906 245.24951171875 378.8994445800781 241.77001953125 382.2004089355469 C 240.3585205078125 383.54345703125 238.90325927734375 384.97100830078125 238.29522705078125 386.8209533691406 C 237.26504516601562 389.94915771484375 238.9227294921875 393.3169250488281 240.93243408203125 395.9200744628906 C 242.79684448242188 398.33697509765625 244.9986572265625 400.4736328125 247.47042846679688 402.2646484375 C 251.48284912109375 405.1742248535156 256.9168395996094 407.1241760253906 261.33819580078125 404.88824462890625 C 263.7268981933594 403.6846618652344 265.4477233886719 401.4016418457031 266.484619140625 398.9315490722656 C 267.52154541015625 396.4614562988281 267.94146728515625 393.7808532714844 268.31829833984375 391.12860107421875 C 268.69512939453125 388.4763488769531 269.0085754394531 385.8621520996094 268.2810974121094 383.3503112792969 L 266.5498046875 382.75506591796875" stroke-width="0.6000000238418579" fill="rgb(218, 166, 20)" opacity="1.0"/>
    <path d="M 265.16314697265625 394.8882751464844 C 257.3177185058594 393.183837890625 249.57598876953125 398.162109375 247.87158203125 406.0075378417969 C 247.72561645507812 406.6793518066406 247.62750244140625 407.36065673828125 247.5780029296875 408.0463562011719 C 247.3902587890625 410.6518859863281 247.97488403320312 413.41729736328125 249.700439453125 415.3768310546875 C 251.15850830078125 417.032958984375 253.26544189453125 417.9583740234375 255.36834716796875 418.6217041015625 C 260.999755859375 420.3892822265625 267.0017395019531 420.6168212890625 272.7508239746094 419.2806396484375 C 274.2698669433594 418.9249267578125 275.80718994140625 418.438232421875 277.01397705078125 417.4442138671875 C 279.0409240722656 415.7764892578125 279.77386474609375 412.9376220703125 279.6093444824219 410.3160705566406 C 279.3677978515625 406.4239196777344 277.3943176269531 402.74639892578125 274.5559997558594 400.0709228515625 C 271.7176818847656 397.39544677734375 268.0730285644531 395.6682434082031 264.2816467285156 394.75341796875 L 265.16314697265625 394.8882751464844" stroke-width="0.6000000238418579" fill="rgb(143, 165, 67)" opacity="1.0"/>
    <path d="M 213.80950927734375 381.496826171875 C 207.3232421875 388.2406921386719 212.22015380859375 401.531005859375 221.37896728515625 403.1259765625 C 230.53778076171875 404.7209167480469 239.46392822265625 394.63043212890625 237.41708374023438 385.49725341796875 C 235.3702392578125 376.3641052246094 223.98211669921875 370.9407043457031 215.31146240234375 374.4884338378906 L 213.80950927734375 381.496826171875" stroke-width="0.6000000238418579" fill="rgb(233, 92, 21)" opacity="1.0"/>
    <path d="M 263.78375244140625 380.49798583984375 C 259.9621887207031 383.2660827636719 255.684326171875 386.968994140625 256.2904968261719 391.6648864746094 C 256.60443115234375 393.5242614746094 257.48760986328125 395.24041748046875 258.8182373046875 396.5765380859375 C 262.0216064453125 399.9710998535156 266.6715393066406 401.60247802734375 271.2935791015625 400.9532775878906 C 275.212890625 400.3925476074219 278.6485290527344 398.2085876464844 281.91949462890625 396.0210876464844 C 283.75494384765625 394.789306640625 285.665771484375 393.4221496582031 286.5101318359375 391.39239501953125 C 287.6133728027344 388.677734375 286.4945983886719 385.5838623046875 285.0951232910156 383.0103759765625 C 283.0517272949219 379.24151611328125 280.4117736816406 375.8282165527344 277.27764892578125 372.9029235839844 C 276.1928405761719 371.894287109375 274.9898986816406 370.91143798828125 273.54486083984375 370.5881652832031 C 272.1858825683594 370.3562927246094 270.78875732421875 370.52484130859375 269.5238952636719 371.07330322265625 C 265.6224060058594 372.5876770019531 262.5816345214844 375.7373352050781 261.20538330078125 379.689697265625 L 263.78375244140625 380.49798583984375" stroke-width="0.6000000238418579" fill="rgb(70, 150, 179)" opacity="1.0"/>
    <path d="M 334.3667907714844 376.7811279296875 C 331.3015441894531 372.6514892578125 327.7305908203125 368.2027893066406 322.66021728515625 367.36181640625 C 317.2129821777344 366.4617004394531 311.9042053222656 370.25927734375 309.0903015136719 375.0093994140625 C 308.0046081542969 376.84039306640625 307.1716003417969 378.9158020019531 307.307373046875 381.0399169921875 C 307.4183349609375 382.7861022949219 308.16925048828125 384.4216003417969 308.9929504394531 385.9648132324219 C 311.5846862792969 390.83447265625 315.3584899902344 395.5223388671875 320.6475830078125 397.08551025390625 C 325.979248046875 398.6572570800781 332.22381591796875 396.41925048828125 335.3193664550781 391.7965393066406 C 338.4148864746094 387.173828125 338.1696472167969 380.5531921386719 334.7027893066406 376.19732666015625 L 334.3667907714844 376.7811279296875" stroke-width="0.6000000238418579" fill="rgb(140, 28, 33)" opacity="1.0"/>
    <path d="M 353.0 389.0 C 351.6232604980469 390.03411865234375 350.2021179199219 391.1253662109375 349.3836669921875 392.6416931152344 C 348.56524658203125 394.1579895019531 348.5271911621094 396.24530029296875 349.7580261230469 397.45074462890625 C 351.2806396484375 398.9353332519531 354.05950927734375 398.3009033203125 355.3347473144531 396.59423828125 C 356.6099853515625 394.8876037597656 356.67340087890625 392.5465087890625 356.22930908203125 390.4655456542969 C 356.1563720703125 389.8076171875 355.8394470214844 389.200927734375 355.3410949707031 388.7652282714844 C 354.80816650390625 388.39093017578125 353.8755187988281 388.5622253417969 353.7422790527344 389.2030029296875 L 353.0 389.0" stroke-width="0.6000000238418579" fill="rgb(159, 159, 159)" opacity="1.0"/>
    <path d="M 189.36553955078125 398.9931945800781 C 184.15313720703125 399.86407470703125 179.12554931640625 402.539794921875 176.07891845703125 406.8544921875 C 173.03231811523438 411.1692199707031 172.24472045898438 417.18408203125 174.7269287109375 421.8717041015625 C 176.486083984375 425.18359375 179.69888305664062 427.58282470703125 183.23074340820312 428.85333251953125 C 186.76260375976562 430.1239013671875 190.59750366210938 430.3504638671875 194.34109497070312 430.0699462890625 C 195.97015380859375 429.94696044921875 197.67001342773438 429.70001220703125 198.9766845703125 428.72650146484375 C 200.47528076171875 427.611083984375 201.18231201171875 425.749267578125 201.7325439453125 423.9580078125 C 203.28582763671875 418.90087890625 204.123291015625 413.4132080078125 202.59274291992188 408.3484802246094 C 201.06219482421875 403.28375244140625 196.668701171875 398.8172302246094 191.3995361328125 398.5154724121094 L 189.36553955078125 398.9931945800781" stroke-width="0.6000000238418579" fill="rgb(159, 159, 159)" opacity="1.0"/>
    <path d="M 357.69012451171875 376.9305725097656 C 352.8133850097656 377.4944152832031 347.41705322265625 378.3323974609375 344.3351745605469 382.14141845703125 C 341.33282470703125 385.8414611816406 341.5087890625 391.11029052734375 341.9226379394531 395.8593444824219 C 342.0935974121094 397.7883605957031 342.3031921386719 399.80364990234375 343.36566162109375 401.42144775390625 C 345.1609802246094 404.1587219238281 348.8061218261719 404.9537658691406 352.0744934082031 405.0018615722656 C 355.1080627441406 405.0476379394531 358.13250732421875 404.6575927734375 361.05523681640625 403.8436584472656 C 365.8013916015625 402.5238037109375 370.6809997558594 399.50439453125 371.67840576171875 394.6819763183594 C 372.2206726074219 392.07928466796875 371.5101318359375 389.3280029296875 370.2308044433594 386.9928283691406 C 368.9514465332031 384.6576843261719 367.1265563964844 382.67205810546875 365.2969970703125 380.7375183105469 C 363.46746826171875 378.8029479980469 361.6283264160156 376.9412536621094 359.22454833984375 375.95245361328125 L 357.69012451171875 376.9305725097656" stroke-width="0.6000000238418579" fill="rgb(218, 166, 20)" opacity="1.0"/>
    <path d="M 364.7552795410156 391.2502746582031 C 356.7635803222656 391.69921875 350.6489562988281 398.541748046875 351.097900390625 406.533447265625 C 351.1363525390625 407.2177734375 351.2232971191406 407.8985290527344 351.3580627441406 408.570556640625 C 351.87066650390625 411.1240234375 353.16796875 413.625732421875 355.34716796875 415.04962158203125 C 357.1886291503906 416.25311279296875 359.4592590332031 416.58197021484375 361.6562805175781 416.659912109375 C 367.53741455078125 416.860595703125 373.3650207519531 415.48284912109375 378.53369140625 412.66986083984375 C 379.898681640625 411.92401123046875 381.24639892578125 411.0475158691406 382.1415710449219 409.7713928222656 C 383.6456298828125 407.6298828125 383.59478759765625 404.7071228027344 382.7394714355469 402.2319641113281 C 381.47216796875 398.5563659667969 378.5977783203125 395.54766845703125 375.158935546875 393.7318420410156 C 371.7201232910156 391.9159851074219 367.75872802734375 391.22576904296875 363.8724365234375 391.35516357421875 L 364.7552795410156 391.2502746582031" stroke-width="0.6000000238418579" fill="rgb(143, 165, 67)" opacity="1.0"/>
    <path d="M 359.7482604980469 378.0679016113281 C 353.9246520996094 385.2594909667969 359.8692626953125 397.9433288574219 369.02862548828125 398.74371337890625 C 378.18798828125 399.5440673828125 386.134033203125 388.8492431640625 383.34796142578125 380.0218505859375 C 380.5618591308594 371.1944580078125 368.8833312988281 366.8092956542969 360.6380920410156 371.035400390625 L 359.7482604980469 378.0679016113281" stroke-width="0.6000000238418579" fill="rgb(233, 92, 21)" opacity="1.0"/>
    <path d="M 385.74658203125 377.5232238769531 C 382.03399658203125 380.50286865234375 377.90826416015625 384.4471435546875 378.7531433105469 389.1484680175781 C 379.16217041015625 391.0063171386719 380.1376037597656 392.69146728515625 381.5449523925781 393.9714050292969 C 384.9418640136719 397.2320556640625 389.70843505859375 398.6439514160156 394.33319091796875 397.7594299316406 C 398.25433349609375 396.9990539550781 401.6071472167969 394.6272277832031 404.79388427734375 392.2600402832031 C 406.58184814453125 390.9273986816406 408.4390563964844 389.45458984375 409.1886291503906 387.36737060546875 C 410.1649169921875 384.57708740234375 408.8833923339844 381.5155029296875 407.34503173828125 378.99224853515625 C 405.09820556640625 375.296630859375 402.2680358886719 371.9890441894531 398.96429443359375 369.1977844238281 C 397.8209533691406 368.2355651855469 396.5599060058594 367.30523681640625 395.0877685546875 367.051513671875 C 393.7068786621094 366.8856506347656 392.3075866699219 367.1251525878906 391.0604553222656 367.7408142089844 C 387.204833984375 369.4612121582031 384.2980041503906 372.786376953125 383.10833740234375 376.8373107910156 L 385.74658203125 377.5232238769531" stroke-width="0.6000000238418579" fill="rgb(70, 150, 179)" opacity="1.0"/>
    <path d="M 380.6174011230469 400.0301818847656 C 375.8353576660156 402.4498596191406 370.63641357421875 405.33270263671875 368.8783264160156 410.3918762207031 C 366.99298095703125 415.82769775390625 369.95684814453125 421.949951171875 374.3390808105469 425.6778564453125 C 376.0281066894531 427.1158447265625 378.0126953125 428.3375244140625 380.21820068359375 428.57275390625 C 382.03118896484375 428.766845703125 383.8434143066406 428.28411865234375 385.57366943359375 427.7103271484375 C 391.0322265625 425.907470703125 396.5125732421875 422.8585205078125 399.0509948730469 417.70208740234375 C 401.6057434082031 412.50341796875 400.40869140625 405.6951904296875 396.2070007324219 401.70050048828125 C 392.0052795410156 397.705810546875 385.16229248046875 396.7898254394531 380.07708740234375 399.5821228027344 L 380.6174011230469 400.0301818847656" stroke-width="0.6000000238418579" fill="rgb(140, 28, 33)" opacity="1.0"/>
    <path d="M 398.3240661621094 391.3240661621094 C 396.9690246582031 392.3884582519531 395.5707702636719 393.5109558105469 394.7846984863281 395.04571533203125 C 393.9986877441406 396.5804443359375 394.0057373046875 398.6695861816406 395.2632141113281 399.8489990234375 C 396.81866455078125 401.3014221191406 399.5851745605469 400.6065673828125 400.8241271972656 398.87152099609375 C 402.0630798339844 397.136474609375 402.075927734375 394.7928771972656 401.5866394042969 392.72052001953125 C 401.4994201660156 392.0638427734375 401.16925048828125 391.4637145996094 400.6612243652344 391.03857421875 C 400.11993408203125 390.67559814453125 399.1905517578125 390.8671569824219 399.07110595703125 391.5111389160156 L 398.3240661621094 391.3240661621094" stroke-width="0.6000000238418579" fill="rgb(159, 159, 159)" opacity="1.0"/>
    <path d="M 419.39208984375 378.47039794921875 C 416.552490234375 382.56756591796875 415.0548095703125 387.72686767578125 415.96826171875 392.62481689453125 C 416.8818359375 397.5227355957031 420.4306640625 402.011474609375 425.2327880859375 403.4163513183594 C 428.6292724609375 404.40533447265625 432.3646240234375 403.81103515625 435.5467529296875 402.2586669921875 C 438.7288818359375 400.706298828125 441.4044189453125 398.26239013671875 443.6771240234375 395.54669189453125 C 444.66546630859375 394.3642883300781 445.6165771484375 393.0525207519531 445.8177490234375 391.5286560058594 C 446.04925537109375 389.78173828125 445.25543212890625 388.0790710449219 444.4061279296875 386.52886962890625 C 442.008544921875 382.1523742675781 438.84881591796875 377.97662353515625 434.41766357421875 375.68023681640625 C 429.9864501953125 373.3838195800781 424.07666015625 373.4166564941406 420.4068603515625 376.7809143066406 L 419.39208984375 378.47039794921875" stroke-width="0.6000000238418579" fill="rgb(159, 159, 159)" opacity="1.0"/>
    <path d="M 417.2052001953125 396.752197265625 C 412.6552734375 399.28021240234375 407.7073974609375 402.28729248046875 406.2307434082031 407.2678527832031 C 404.787841796875 412.1094970703125 407.09466552734375 417.20062255859375 409.4239807128906 421.6861572265625 C 410.3728942871094 423.5069580078125 411.3946533203125 425.396728515625 413.091064453125 426.55145263671875 C 415.958984375 428.50616455078125 419.85260009765625 427.80853271484375 423.074462890625 426.5316162109375 C 426.0653076171875 425.34765625 428.8707275390625 423.740234375 431.40472412109375 421.7587890625 C 435.5203857421875 418.54296875 439.078369140625 413.6077880859375 438.10205078125 408.4786682128906 C 437.5791015625 405.7088623046875 435.768310546875 403.30096435546875 433.56884765625 401.53118896484375 C 431.369384765625 399.76141357421875 428.7769775390625 398.55511474609375 426.20068359375 397.4007568359375 C 423.6243896484375 396.24639892578125 421.0682373046875 395.1673278808594 418.31243896484375 395.1722412109375 L 417.2052001953125 396.752197265625" stroke-width="0.6000000238418579" fill="rgb(218, 166, 20)" opacity="1.0"/>
    <path d="M 146.24989318847656 238.63421630859375 C 138.89730834960938 242.69317626953125 136.22727966308594 251.94403076171875 140.28623962402344 259.296630859375 C 140.63380432128906 259.9262390136719 141.02560424804688 260.5303955078125 141.45867919921875 261.10455322265625 C 143.10464477539062 263.2859191894531 145.46900939941406 265.06146240234375 148.1771697998047 265.4168395996094 C 150.46572875976562 265.7173767089844 152.76234436035156 264.9956970214844 154.875244140625 264.0702819824219 C 160.52755737304688 261.58538818359375 165.41140747070312 257.63238525390625 169.01953125 252.62191772460938 C 169.97100830078125 251.2958984375 170.8468017578125 249.85421752929688 171.11285400390625 248.24041748046875 C 171.5611572265625 245.531494140625 170.18389892578125 242.7908935546875 168.24948120117188 240.83941650390625 C 165.37957763671875 237.94024658203125 161.29336547851562 236.4024658203125 157.21588134765625 236.24935913085938 C 153.138427734375 236.09625244140625 149.07875061035156 237.2451171875 145.46278381347656 239.1348876953125 L 146.24989318847656 238.63421630859375" stroke-width="0.6000000238418579" fill="rgb(143, 165, 67)" opacity="1.0"/>
    <path d="M 156.48428344726562 272.1733703613281 C 150.72549438476562 279.76495361328125 157.25762939453125 292.6249084472656 166.71044921875 293.149658203125 C 176.1632080078125 293.6743469238281 183.9920654296875 282.40802001953125 180.83648681640625 273.4139709472656 C 177.680908203125 264.419921875 165.5184326171875 260.2879943847656 157.17050170898438 264.90655517578125 L 156.48428344726562 272.1733703613281" stroke-width="0.6000000238418579" fill="rgb(233, 92, 21)" opacity="1.0"/>
    <path d="M 154.41543579101562 324.2442626953125 C 150.32217407226562 326.6470031738281 145.68186950683594 329.941650390625 145.835693359375 334.70172119140625 C 145.9706268310547 336.5936279296875 146.68930053710938 338.3970642089844 147.8926239013672 339.86322021484375 C 150.7723388671875 343.5709533691406 155.27052307128906 345.6529235839844 159.96078491210938 345.4488830566406 C 163.93896484375 345.265625 167.5894775390625 343.4104919433594 171.075439453125 341.53594970703125 C 173.03195190429688 340.479736328125 175.0770263671875 339.2952880859375 176.11822509765625 337.3445739746094 C 177.48471069335938 334.7330322265625 176.6630859375 331.5274963378906 175.51025390625 328.81585693359375 C 173.82797241210938 324.84527587890625 171.51416015625 321.17315673828125 168.65847778320312 317.9419250488281 C 167.66964721679688 316.827392578125 166.56008911132812 315.727294921875 165.14447021484375 315.2641906738281 C 163.80621337890625 314.90093994140625 162.39117431640625 314.9349060058594 161.07183837890625 315.36199951171875 C 157.01953125 316.50177001953125 153.67117309570312 319.36187744140625 151.91192626953125 323.18621826171875 L 154.41543579101562 324.2442626953125" stroke-width="0.6000000238418579" fill="rgb(70, 150, 179)" opacity="1.0"/>
    <path d="M 132.33905029296875 293.6243896484375 C 128.71177673339844 289.46484375 124.51657104492188 285.006591796875 119.02140808105469 284.5343017578125 C 113.11805725097656 284.030517578125 107.7587890625 288.5406188964844 105.14886474609375 293.8594970703125 C 104.14170837402344 295.9098205566406 103.42547607421875 298.2002868652344 103.74977111816406 300.4612121582031 C 104.01564025878906 302.3199462890625 104.95681762695312 304.0063171386719 105.96810913085938 305.58782958984375 C 109.15121459960938 310.5789794921875 113.58357238769531 315.2759704589844 119.37361145019531 316.50244140625 C 125.20993041992188 317.7345275878906 131.70175170898438 314.8139343261719 134.62371826171875 309.6076354980469 C 137.5457000732422 304.4013366699219 136.7252960205078 297.3392028808594 132.6492919921875 292.9715270996094 L 132.33905029296875 293.6243896484375" stroke-width="0.6000000238418579" fill="rgb(140, 28, 33)" opacity="1.0"/>
    <path d="M 142.1124725341797 265.8463134765625 C 140.60354614257812 266.70458984375 139.0428924560547 267.61431884765625 138.0306854248047 269.0261535644531 C 137.0185089111328 270.43798828125 136.71376037597656 272.52056884765625 137.79063415527344 273.88330078125 C 139.12367248535156 275.5625 141.98373413085938 275.2830810546875 143.47708129882812 273.7392578125 C 144.97042846679688 272.1954345703125 145.3329620361328 269.8623352050781 145.1547088623047 267.7245178222656 C 145.16583251953125 267.0572204589844 144.92640686035156 266.4100341796875 144.48367309570312 265.91064453125 C 143.99855041503906 265.4682312011719 143.04397583007812 265.5203857421875 142.828857421875 266.1441650390625 L 142.1124725341797 265.8463134765625" stroke-width="0.6000000238418579" fill="rgb(159, 159, 159)" opacity="1.0"/>
    <path d="M 154.7381134033203 286.6942443847656 C 151.25051879882812 290.3887023925781 148.9527587890625 295.3585205078125 149.12454223632812 300.4335632324219 C 149.2963409423828 305.5085754394531 152.1862335205078 310.5741271972656 156.81036376953125 312.72381591796875 C 160.08157348632812 314.239501953125 163.9364013671875 314.211669921875 167.380126953125 313.1338195800781 C 170.8238525390625 312.0559997558594 173.89349365234375 310.00238037109375 176.59866333007812 307.6133117675781 C 177.7752685546875 306.5729675292969 178.93417358398438 305.3965148925781 179.36984252929688 303.89178466796875 C 179.87014770507812 302.1668701171875 179.33050537109375 300.329833984375 178.71173095703125 298.6379699707031 C 176.9647216796875 293.86151123046875 174.41915893554688 289.17083740234375 170.30511474609375 286.1795349121094 C 166.19110107421875 283.1882019042969 160.23104858398438 282.31793212890625 156.01895141601562 285.14697265625 L 154.7381134033203 286.6942443847656" stroke-width="0.6000000238418579" fill="rgb(159, 159, 159)" opacity="1.0"/>
    <path d="M 133.134521484375 345.9825134277344 C 129.5535125732422 342.14898681640625 125.406982421875 338.0429992675781 120.17640686035156 337.8125915527344 C 115.0899658203125 337.58135986328125 110.6732177734375 341.07794189453125 106.85418701171875 344.448974609375 C 105.30477905273438 345.8206787109375 103.70574951171875 347.2803955078125 102.98983764648438 349.22076416015625 C 101.777099609375 352.5018005371094 103.40817260742188 356.1395568847656 105.44203186035156 358.9792175292969 C 107.32878112792969 361.6156311035156 109.58432006835938 363.9674377441406 112.13960266113281 365.96270751953125 C 116.28749084472656 369.2039489746094 121.9808349609375 371.4808044433594 126.75895690917969 369.27618408203125 C 129.34024047851562 368.0897521972656 131.2537841796875 365.7321472167969 132.44854736328125 363.14990234375 C 133.643310546875 360.5676574707031 134.1912384033203 357.73846435546875 134.6923370361328 354.93768310546875 C 135.1934356689453 352.1369323730469 135.62582397460938 349.3741455078125 134.94944763183594 346.6803283691406 L 133.134521484375 345.9825134277344" stroke-width="0.6000000238418579" fill="rgb(218, 166, 20)" opacity="1.0"/>
    <path d="M 157.28402709960938 338.5629577636719 C 150.39952087402344 343.48394775390625 148.8077850341797 353.05419921875 153.72879028320312 359.938720703125 C 154.15016174316406 360.5282287597656 154.61285400390625 361.0871276855469 155.1133270263672 361.6111755371094 C 157.01541137695312 363.6020812988281 159.58908081054688 365.1029357910156 162.3409423828125 365.14227294921875 C 164.66647338867188 365.17578125 166.88067626953125 364.1852722167969 168.88720703125 363.0123291015625 C 174.25387573242188 359.8652648925781 178.68002319335938 355.3386535644531 181.70587158203125 349.9026794433594 C 182.50326538085938 348.4644470214844 183.21136474609375 346.9193115234375 183.2891845703125 345.27313232421875 C 183.42144775390625 342.5096130371094 181.72296142578125 339.92767333984375 179.55908203125 338.2005615234375 C 176.34820556640625 335.6341857910156 172.0791015625 334.5724182128906 167.98040771484375 334.8954162597656 C 163.88174438476562 335.2183837890625 159.95294189453125 336.8423767089844 156.55474853515625 339.1559753417969 L 157.28402709960938 338.5629577636719" stroke-width="0.6000000238418579" fill="rgb(143, 165, 67)" opacity="1.0"/>
    <path d="M 139.9868621826172 376.9718322753906 C 131.9243621826172 371.6230773925781 119.3115234375 379.0675354003906 119.38618469238281 388.6803894042969 C 119.46087646484375 398.293212890625 131.38006591796875 405.5039367675781 140.29193115234375 401.72918701171875 C 149.20379638671875 397.9544677734375 152.6107177734375 385.3642883300781 147.39483642578125 377.2010498046875 L 139.9868621826172 376.9718322753906" stroke-width="0.6000000238418579" fill="rgb(233, 92, 21)" opacity="1.0"/>
    <path d="M 170.94219970703125 372.7051086425781 C 167.05484008789062 375.62872314453125 162.71453857421875 379.52423095703125 163.42617797851562 384.3526916503906 C 163.78414916992188 386.26318359375 164.72613525390625 388.01556396484375 166.12225341796875 389.36798095703125 C 169.486572265625 392.80718994140625 174.30911254882812 394.4024353027344 179.0606689453125 393.6477966308594 C 183.08963012695312 392.9973449707031 186.59002685546875 390.6828918457031 189.92068481445312 388.36785888671875 C 191.78952026367188 387.0643615722656 193.73358154296875 385.6199645996094 194.56622314453125 383.512451171875 C 195.65298461914062 380.6942138671875 194.44268798828125 377.52630615234375 192.95269775390625 374.89990234375 C 190.7769775390625 371.053466796875 187.99298095703125 367.58453369140625 184.708740234375 364.6276550292969 C 183.572021484375 363.6081848144531 182.31402587890625 362.6175231933594 180.81875610351562 362.31109619140625 C 179.41387939453125 362.0972900390625 177.97708129882812 362.296875 176.68365478515625 362.8855285644531 C 172.69073486328125 364.5185241699219 169.6151123046875 367.8209228515625 168.2698974609375 371.9197692871094 L 170.94219970703125 372.7051086425781" stroke-width="0.6000000238418579" fill="rgb(70, 150, 179)" opacity="1.0"/>
  </g>
</svg>
