<?xml version="1.0" ?>
<svg xmlns="http://www.w3.org/2000/svg" version="1.1" width="600" height="600">
  <defs/>
  <g>
    <path d="M 354.0902404785156 332.250244140625 C 354.63787841796875 332.4138488769531 355.22259521484375 331.77618408203125 355.05303955078125 331.2342224121094 C 354.88348388671875 330.6922607421875 354.08587646484375 330.4897766113281 353.64715576171875 330.85638427734375 C 353.2084655761719 331.2229919433594 353.23248291015625 331.99310302734375 353.66766357421875 332.3647155761719 L 354.0902404785156 332.250244140625" stroke-width="0.6000000238418579" fill="rgb(233, 92, 21)" opacity="1.0"/>
    <path d="M 100.87033081054688 197.212646484375 C 100.98809814453125 197.15240478515625 101.12254333496094 197.0682373046875 101.12594604492188 196.935546875 C 101.12525939941406 196.8826904296875 101.10818481445312 196.83135986328125 101.07707214355469 196.78863525390625 C 101.00294494628906 196.68081665039062 100.88116455078125 196.6156005859375 100.75033569335938 196.61370849609375 C 100.63935852050781 196.61236572265625 100.5347900390625 196.6580810546875 100.43476867675781 196.70458984375 C 100.37863159179688 196.7308349609375 100.31980895996094 196.760498046875 100.28768920898438 196.81307983398438 C 100.24545288085938 196.883544921875 100.26312255859375 196.97406005859375 100.29081726074219 197.05133056640625 C 100.33120727539062 197.16455078125 100.3896484375 197.27044677734375 100.4638671875 197.36495971679688 C 100.48957824707031 197.3975830078125 100.5186767578125 197.42999267578125 100.55731201171875 197.44512939453125 C 100.59396362304688 197.4573974609375 100.63339233398438 197.458740234375 100.6707763671875 197.44903564453125 C 100.78536987304688 197.42385864257812 100.88314819335938 197.34967041015625 100.93827819824219 197.24612426757812 L 100.87033081054688 197.212646484375" stroke-width="0.6000000238418579" fill="rgb(70, 150, 179)" opacity="1.0"/>
    <path d="M 464.0887451171875 434.6341552734375 C 464.353271484375 434.93560791015625 464.65899658203125 435.2586669921875 465.05841064453125 435.29180908203125 C 465.48748779296875 435.3271484375 465.8759765625 434.998291015625 466.064453125 434.611328125 C 466.13720703125 434.46209716796875 466.18878173828125 434.2955322265625 466.16473388671875 434.13128662109375 C 466.14501953125 433.99627685546875 466.0762939453125 433.8739013671875 466.00244140625 433.75927734375 C 465.7701416015625 433.397216796875 465.447021484375 433.056884765625 465.02606201171875 432.968994140625 C 464.6016845703125 432.88067626953125 464.130615234375 433.09423828125 463.91937255859375 433.47320556640625 C 463.7081298828125 433.8521728515625 463.769287109375 434.3651123046875 464.06640625 434.681640625 L 464.0887451171875 434.6341552734375" stroke-width="0.6000000238418579" fill="rgb(140, 28, 33)" opacity="1.0"/>
    <path d="M 94.54573059082031 194.10693359375 C 94.64947509765625 194.04290771484375 94.7567138671875 193.97512817382812 94.82418823242188 193.87350463867188 C 94.89166259765625 193.7718505859375 94.90780639648438 193.62493896484375 94.82879638671875 193.53201293945312 C 94.73101806640625 193.41751098632812 94.531005859375 193.4443359375 94.43008422851562 193.55645751953125 C 94.32916259765625 193.66854858398438 94.30960083007812 193.83319091796875 94.32748413085938 193.9827880859375 C 94.32839965820312 194.0296630859375 94.34683227539062 194.074462890625 94.379150390625 194.1083984375 C 94.414306640625 194.13824462890625 94.48117065429688 194.13217163085938 94.49470520019531 194.08782958984375 L 94.54573059082031 194.10693359375" stroke-width="0.6000000238418579" fill="rgb(159, 159, 159)" opacity="1.0"/>
    <path d="M 380.49603271484375 303.7237854003906 C 380.8611755371094 303.57611083984375 381.1836853027344 303.30010986328125 381.3355407714844 302.9368896484375 C 381.4873962402344 302.57366943359375 381.4473876953125 302.1233215332031 381.1909484863281 301.82244873046875 C 381.0093994140625 301.60992431640625 380.73681640625 301.48736572265625 380.4593200683594 301.4520568847656 C 380.1817932128906 301.416748046875 379.89910888671875 301.4623107910156 379.63128662109375 301.54327392578125 C 379.5147705078125 301.5785827636719 379.39508056640625 301.6240539550781 379.3157653808594 301.71600341796875 C 379.2247619628906 301.8214111328125 379.2034606933594 301.9682922363281 379.1924133300781 302.1075439453125 C 379.16119384765625 302.5005798339844 379.1890563964844 302.91339111328125 379.38232421875 303.2571105957031 C 379.57562255859375 303.6008605957031 379.967529296875 303.854736328125 380.35577392578125 303.79144287109375 L 380.49603271484375 303.7237854003906" stroke-width="0.6000000238418579" fill="rgb(159, 159, 159)" opacity="1.0"/>
    <path d="M 104.00616455078125 433.1226806640625 C 104.26101684570312 432.96728515625 104.53756713867188 432.783447265625 104.61062622070312 432.49462890625 C 104.68206787109375 432.2138671875 104.53805541992188 431.927490234375 104.39418029785156 431.6759033203125 C 104.3355712890625 431.57373046875 104.27264404296875 431.4677734375 104.17276000976562 431.40557861328125 C 104.00389099121094 431.30023193359375 103.78239440917969 431.3492431640625 103.60073852539062 431.429931640625 C 103.43209838867188 431.504638671875 103.27508544921875 431.603271484375 103.13447570800781 431.72271728515625 C 102.90609741210938 431.91650390625 102.71368408203125 432.20758056640625 102.78152465820312 432.499267578125 C 102.81793212890625 432.65673828125 102.92727661132812 432.79052734375 103.05740356445312 432.8868408203125 C 103.18756103515625 432.983154296875 103.33889770507812 433.0462646484375 103.48921203613281 433.10638427734375 C 103.63951110839844 433.16656494140625 103.78848266601562 433.22247314453125 103.94639587402344 433.2158203125 L 104.00616455078125 433.1226806640625" stroke-width="0.6000000238418579" fill="rgb(218, 166, 20)" opacity="1.0"/>
    <path d="M 99.15298461914062 141.22474670410156 C 99.4718017578125 141.32789611816406 99.81385803222656 141.15306091308594 99.91700744628906 140.83425903320312 C 99.92584228515625 140.8069610595703 99.93272399902344 140.77906799316406 99.93760681152344 140.75079345703125 C 99.95614624023438 140.6433563232422 99.94326782226562 140.52609252929688 99.87969970703125 140.43759155273438 C 99.82595825195312 140.36279296875 99.74227905273438 140.31565856933594 99.65766906738281 140.27944946289062 C 99.43107604980469 140.18280029296875 99.1827392578125 140.1486053466797 98.93846130371094 140.18038940429688 C 98.8739013671875 140.18890380859375 98.80804443359375 140.20277404785156 98.75382995605469 140.23907470703125 C 98.66276550292969 140.2999725341797 98.62062072753906 140.4148712158203 98.61663818359375 140.5244140625 C 98.61062622070312 140.68707275390625 98.67741394042969 140.8479461669922 98.78427124023438 140.97076416015625 C 98.89111328125 141.0935821533203 99.03535461425781 141.18035888671875 99.18905639648438 141.23397827148438 L 99.15298461914062 141.22474670410156" stroke-width="0.6000000238418579" fill="rgb(143, 165, 67)" opacity="1.0"/>
    <path d="M 457.8997802734375 337.71533203125 C 458.0640869140625 337.78082275390625 458.2618408203125 337.6004333496094 458.2244873046875 337.4287414550781 C 458.18719482421875 337.2570495605469 457.94696044921875 337.17266845703125 457.8016357421875 337.2735595703125 C 457.6563720703125 337.37445068359375 457.642578125 337.6124572753906 457.76641845703125 337.73895263671875 L 457.8997802734375 337.71533203125" stroke-width="0.6000000238418579" fill="rgb(233, 92, 21)" opacity="1.0"/>
    <path d="M 109.65371704101562 213.94949340820312 C 109.76345825195312 213.91265869140625 109.89068603515625 213.8572998046875 109.910888671875 213.742919921875 C 109.91714477539062 213.69711303710938 109.90902709960938 213.65045166015625 109.88766479492188 213.60943603515625 C 109.8375244140625 213.50653076171875 109.7406005859375 213.434326171875 109.62765502929688 213.41567993164062 C 109.53179931640625 213.40011596679688 109.43539428710938 213.42608642578125 109.34280395507812 213.453369140625 C 109.29083251953125 213.46875 109.236083984375 213.48675537109375 109.20146179199219 213.52810668945312 C 109.15576171875 213.58355712890625 109.1593017578125 213.6641845703125 109.17323303222656 213.73468017578125 C 109.1934814453125 213.83786010742188 109.23028564453125 213.93707275390625 109.28224182128906 214.02850341796875 C 109.30026245117188 214.06005859375 109.32122802734375 214.09185791015625 109.35269165039062 214.11001586914062 C 109.38279724121094 214.12539672851562 109.416748046875 214.13168334960938 109.45036315917969 214.12811279296875 C 109.55278015136719 214.1212158203125 109.64701843261719 214.06973266601562 109.70816040039062 213.9873046875 L 109.65371704101562 213.94949340820312" stroke-width="0.6000000238418579" fill="rgb(70, 150, 179)" opacity="1.0"/>
    <path d="M 102.66110229492188 77.9810791015625 C 102.82966613769531 78.11457824707031 103.02212524414062 78.2554931640625 103.23599243164062 78.23443603515625 C 103.4656982421875 78.21170043945312 103.63888549804688 78.00076293945312 103.70098876953125 77.7784423828125 C 103.7249755859375 77.69271850585938 103.736083984375 77.59988403320312 103.70758056640625 77.51559448242188 C 103.68414306640625 77.44627380371094 103.63607788085938 77.38838195800781 103.58609008789062 77.33499145507812 C 103.42860412597656 77.16647338867188 103.22537231445312 77.01811218261719 102.99484252929688 77.01235961914062 C 102.76249694824219 77.0067138671875 102.53460693359375 77.16482543945312 102.45974731445312 77.38507080078125 C 102.38490295410156 77.60531616210938 102.46661376953125 77.8699951171875 102.65386962890625 78.00830078125 L 102.66110229492188 77.9810791015625" stroke-width="0.6000000238418579" fill="rgb(140, 28, 33)" opacity="1.0"/>
    <path d="M 98.72976684570312 431.50732421875 C 98.807861328125 431.497314453125 98.88900756835938 431.486083984375 98.955810546875 431.4443359375 C 99.02262878417969 431.402587890625 99.07135009765625 431.320556640625 99.0496826171875 431.2447509765625 C 99.02276611328125 431.1513671875 98.89797973632812 431.11376953125 98.8087158203125 431.1527099609375 C 98.71945190429688 431.19171142578125 98.66398620605469 431.2833251953125 98.63458251953125 431.37603759765625 C 98.62260437011719 431.40380859375 98.62147521972656 431.43505859375 98.63142395019531 431.46368408203125 C 98.64413452148438 431.4906005859375 98.68507385253906 431.5048828125 98.70486450195312 431.482421875 L 98.72976684570312 431.50732421875" stroke-width="0.6000000238418579" fill="rgb(159, 159, 159)" opacity="1.0"/>
    <path d="M 464.4908447265625 62.787567138671875 C 464.5902099609375 62.7064208984375 464.6639404296875 62.589447021484375 464.67620849609375 62.46180725097656 C 464.6884765625 62.33416748046875 464.632568359375 62.197906494140625 464.5238037109375 62.128997802734375 C 464.44683837890625 62.08038330078125 464.3502197265625 62.06852722167969 464.260498046875 62.08428955078125 C 464.17071533203125 62.100067138671875 464.087158203125 62.1414794921875 464.0115966796875 62.19248962402344 C 463.978759765625 62.21470642089844 463.9459228515625 62.240386962890625 463.93011474609375 62.276641845703125 C 463.9119873046875 62.318206787109375 463.91949462890625 62.365966796875 463.929443359375 62.41035461425781 C 463.9576416015625 62.53565979003906 464.006103515625 62.661407470703125 464.099365234375 62.749725341796875 C 464.192626953125 62.83802795410156 464.339111328125 62.879241943359375 464.4537353515625 62.82212829589844 L 464.4908447265625 62.787567138671875" stroke-width="0.6000000238418579" fill="rgb(159, 159, 159)" opacity="1.0"/>
    <path d="M 94.15110778808594 102.46685791015625 C 94.35247802734375 102.48393249511719 94.5770263671875 102.49417114257812 94.73246765136719 102.36566162109375 C 94.88381958007812 102.24090576171875 94.91973876953125 102.02688598632812 94.94181823730469 101.8319091796875 C 94.95066833496094 101.752685546875 94.95866394042969 101.66966247558594 94.92901611328125 101.59571838378906 C 94.87893676757812 101.47061157226562 94.73834228515625 101.40878295898438 94.60687255859375 101.38015747070312 C 94.48486328125 101.35354614257812 94.35964965820312 101.34457397460938 94.23509216308594 101.35354614257812 C 94.0328369140625 101.3680419921875 93.81130981445312 101.45002746582031 93.731689453125 101.63644409179688 C 93.68855285644531 101.73703002929688 93.69476318359375 101.85382080078125 93.727294921875 101.95849609375 C 93.75985717773438 102.06314086914062 93.8172607421875 102.15817260742188 93.87528991699219 102.25115966796875 C 93.93330383300781 102.34414672851562 93.9923095703125 102.43426513671875 94.08120727539062 102.49378967285156 L 94.15110778808594 102.46685791015625" stroke-width="0.6000000238418579" fill="rgb(218, 166, 20)" opacity="1.0"/>
    <path d="M 113.78305053710938 130.2783966064453 C 114.04963684082031 130.2250213623047 114.22247314453125 129.9656524658203 114.16909790039062 129.69906616210938 C 114.16452026367188 129.67623901367188 114.15835571289062 129.6537628173828 114.15060424804688 129.63182067871094 C 114.12112426757812 129.54840087890625 114.06552124023438 129.4705047607422 113.98541259765625 129.4330596923828 C 113.91773986816406 129.4014129638672 113.83981323242188 129.40122985839844 113.76556396484375 129.40911865234375 C 113.56683349609375 129.4305419921875 113.37747192382812 129.50479125976562 113.21714782714844 129.62413024902344 C 113.17481994628906 129.65574645996094 113.13369750976562 129.69168090820312 113.10971069335938 129.73887634277344 C 113.06939697265625 129.81809997558594 113.08511352539062 129.9161376953125 113.12571716308594 129.99526977539062 C 113.18594360351562 130.11279296875 113.2969970703125 130.2001953125 113.42134094238281 130.24478149414062 C 113.54566955566406 130.28936767578125 113.68218994140625 130.29360961914062 113.81224060058594 130.27064514160156 L 113.78305053710938 130.2783966064453" stroke-width="0.6000000238418579" fill="rgb(143, 165, 67)" opacity="1.0"/>
    <path d="M 388.17376708984375 297.5776672363281 C 388.3848571777344 297.6868591308594 388.6730651855469 297.4715576171875 388.64569091796875 297.2370300292969 C 388.6183166503906 297.00250244140625 388.3081359863281 296.85809326171875 388.1005554199219 296.97393798828125 C 387.8929748535156 297.08978271484375 387.8432312011719 297.4062805175781 387.9922790527344 297.5917663574219 L 388.17376708984375 297.5776672363281" stroke-width="0.6000000238418579" fill="rgb(233, 92, 21)" opacity="1.0"/>
    <path d="M 119.20028686523438 107.98672485351562 C 119.3310546875 107.91851806640625 119.48019409179688 107.823486328125 119.48280334472656 107.67552185058594 C 119.4815673828125 107.61660766601562 119.46206665039062 107.55950927734375 119.427001953125 107.51214599609375 C 119.3433837890625 107.39260864257812 119.20703125 107.32101440429688 119.0611572265625 107.32003784179688 C 118.93740844726562 107.31954956054688 118.82122802734375 107.3714599609375 118.71014404296875 107.42420959472656 C 118.64778137207031 107.45394897460938 118.58247375488281 107.48751831054688 118.54713439941406 107.54644775390625 C 118.50067138671875 107.6253662109375 118.52117919921875 107.72613525390625 118.55274963378906 107.81207275390625 C 118.59878540039062 107.93789672851562 118.66488647460938 108.05546569824219 118.74848937988281 108.16018676757812 C 118.77743530273438 108.19630432128906 118.81016540527344 108.23216247558594 118.85337829589844 108.24874877929688 C 118.89434814453125 108.2620849609375 118.93830871582031 108.26324462890625 118.97991943359375 108.25202941894531 C 119.10745239257812 108.22296142578125 119.21580505371094 108.139404296875 119.27633666992188 108.02345275878906 L 119.20028686523438 107.98672485351562" stroke-width="0.6000000238418579" fill="rgb(70, 150, 179)" opacity="1.0"/>
    <path d="M 433.2462158203125 74.6650390625 C 433.42559814453125 74.83767700195312 433.631591796875 75.02149963378906 433.88037109375 75.0211181640625 C 434.1475830078125 75.02053833007812 434.3707275390625 74.79681396484375 434.467041015625 74.54754638671875 C 434.5042724609375 74.45147705078125 434.52740478515625 74.34573364257812 434.50390625 74.24542236328125 C 434.48468017578125 74.1629638671875 434.435791015625 74.09088134765625 434.3841552734375 74.0238037109375 C 434.221435546875 73.81204223632812 434.00384521484375 73.61843872070312 433.7388916015625 73.58609008789062 C 433.4718017578125 73.55368041992188 433.1915283203125 73.71044921875 433.08074951171875 73.95585632324219 C 432.96990966796875 74.20127868652344 433.0345458984375 74.515380859375 433.23486328125 74.69558715820312 L 433.2462158203125 74.6650390625" stroke-width="0.6000000238418579" fill="rgb(140, 28, 33)" opacity="1.0"/>
    <path d="M 120.0 419.0 C 120.10079956054688 418.92431640625 120.20486450195312 418.8443603515625 120.26480102539062 418.73333740234375 C 120.32473754882812 418.622314453125 120.3275146484375 418.469482421875 120.23739624023438 418.3812255859375 C 120.12590026855469 418.2724609375 119.92242431640625 418.3189697265625 119.82904052734375 418.44390869140625 C 119.73565673828125 418.56884765625 119.73101806640625 418.7403564453125 119.7635498046875 418.8927001953125 C 119.76889038085938 418.94085693359375 119.79208374023438 418.98529052734375 119.82858276367188 419.0172119140625 C 119.86759948730469 419.0445556640625 119.93588256835938 419.03204345703125 119.94564819335938 418.985107421875 L 120.0 419.0" stroke-width="0.6000000238418579" fill="rgb(159, 159, 159)" opacity="1.0"/>
    <path d="M 447.8780517578125 424.0504150390625 C 448.01885986328125 423.9075927734375 448.11376953125 423.71343994140625 448.111328125 423.5130615234375 C 448.10888671875 423.3126220703125 447.99920654296875 423.1102294921875 447.81854248046875 423.021484375 C 447.6907958984375 422.9588623046875 447.53857421875 422.9566650390625 447.40179443359375 422.9962158203125 C 447.26495361328125 423.03582763671875 447.14208984375 423.1142578125 447.0333251953125 423.2061767578125 C 446.9859619140625 423.2462158203125 446.939208984375 423.29168701171875 446.9207763671875 423.3507080078125 C 446.8995361328125 423.4183349609375 446.91925048828125 423.4913330078125 446.9422607421875 423.55859375 C 447.007080078125 423.74853515625 447.103515625 423.93585205078125 447.2633056640625 424.05743408203125 C 447.423095703125 424.178955078125 447.6575927734375 424.2183837890625 447.826171875 424.1103515625 L 447.8780517578125 424.0504150390625" stroke-width="0.6000000238418579" fill="rgb(159, 159, 159)" opacity="1.0"/>
    <path d="M 445.7774658203125 283.1905822753906 C 445.912841796875 283.0990295410156 446.059326171875 282.99139404296875 446.09185791015625 282.8315734863281 C 446.12371826171875 282.6761779785156 446.03759765625 282.52325439453125 445.95245361328125 282.38934326171875 C 445.91778564453125 282.3349914550781 445.880615234375 282.2786865234375 445.82440185546875 282.2472229003906 C 445.7293701171875 282.1939392089844 445.6094970703125 282.2264404296875 445.51220703125 282.27520751953125 C 445.421875 282.3204650878906 445.3385009765625 282.37841796875 445.26470947265625 282.4473571777344 C 445.144775390625 282.5592346191406 445.04705810546875 282.72332763671875 445.0916748046875 282.881103515625 C 445.1156005859375 282.96630859375 445.1788330078125 283.0366516113281 445.25250244140625 283.0859680175781 C 445.326171875 283.13531494140625 445.4105224609375 283.1659240722656 445.4942626953125 283.1949768066406 C 445.5780029296875 283.2239990234375 445.66094970703125 283.2507629394531 445.74713134765625 283.2430419921875 L 445.7774658203125 283.1905822753906" stroke-width="0.6000000238418579" fill="rgb(218, 166, 20)" opacity="1.0"/>
    <path d="M 428.3692626953125 374.05810546875 C 428.6297607421875 374.3020324707031 429.0386962890625 374.2886047363281 429.2825927734375 374.02813720703125 C 429.303466796875 374.0058288574219 429.32275390625 373.9820556640625 429.34027099609375 373.95703125 C 429.4068603515625 373.8619079589844 429.4476318359375 373.7430419921875 429.4263916015625 373.6289367675781 C 429.4085693359375 373.5325012207031 429.3492431640625 373.44915771484375 429.2841796875 373.37591552734375 C 429.109619140625 373.1800537109375 428.8857421875 373.0345153808594 428.635986328125 372.95440673828125 C 428.56988525390625 372.933349609375 428.5001220703125 372.9168701171875 428.431396484375 372.9272766113281 C 428.3160400390625 372.9447021484375 428.223388671875 373.0362854003906 428.169921875 373.14007568359375 C 428.09033203125 373.2940979003906 428.081787109375 373.4794006347656 428.12908935546875 373.6462097167969 C 428.1763916015625 373.81298828125 428.27606201171875 373.9620056152344 428.39984130859375 374.0833435058594 L 428.3692626953125 374.05810546875" stroke-width="0.6000000238418579" fill="rgb(143, 165, 67)" opacity="1.0"/>
    <path d="M 446.712158203125 359.5484924316406 C 446.910400390625 359.3700866699219 446.7984619140625 358.9822082519531 446.5413818359375 358.9180603027344 C 446.2843017578125 358.8538818359375 446.009765625 359.1224060058594 446.0491943359375 359.3862609863281 C 446.088623046875 359.6501159667969 446.4012451171875 359.82769775390625 446.655029296875 359.7446594238281 L 446.712158203125 359.5484924316406" stroke-width="0.6000000238418579" fill="rgb(233, 92, 21)" opacity="1.0"/>
    <path d="M 448.45562744140625 87.54782104492188 C 448.693603515625 87.4071044921875 448.9632568359375 87.21432495117188 448.953369140625 86.9371337890625 C 448.94512939453125 86.82696533203125 448.9029541015625 86.72206115722656 448.83258056640625 86.63690185546875 C 448.6641845703125 86.42149353027344 448.4017333984375 86.30108642578125 448.128662109375 86.31385803222656 C 447.89697265625 86.32528686523438 447.6846923828125 86.43402099609375 447.4820556640625 86.54385375976562 C 447.3682861328125 86.60574340820312 447.2493896484375 86.67510986328125 447.1890869140625 86.78892517089844 C 447.11004638671875 86.9412841796875 447.15850830078125 87.12783813476562 447.2261962890625 87.28555297851562 C 447.32489013671875 87.5164794921875 447.4603271484375 87.72991943359375 447.62725830078125 87.91757202148438 C 447.68505859375 87.9822998046875 447.7498779296875 88.04615783691406 447.8323974609375 88.07286071777344 C 447.91046142578125 88.09376525878906 447.99285888671875 88.09152221679688 448.069580078125 88.06640625 C 448.305419921875 87.99923706054688 448.4998779296875 87.83203125 448.60162353515625 87.60896301269531 L 448.45562744140625 87.54782104492188" stroke-width="0.6000000238418579" fill="rgb(70, 150, 179)" opacity="1.0"/>
    <path d="M 445.220458984375 397.9296875 C 445.6429443359375 397.5950622558594 446.09710693359375 397.2064208984375 446.16845703125 396.6726379394531 C 446.244873046875 396.0991516113281 445.82965087890625 395.5556335449219 445.3228759765625 395.27655029296875 C 445.1275634765625 395.16888427734375 444.907470703125 395.0884704589844 444.6854248046875 395.10968017578125 C 444.5029296875 395.1270446777344 444.3341064453125 395.2110595703125 444.1751708984375 395.3023986816406 C 443.6737060546875 395.5898742675781 443.19512939453125 396.00054931640625 443.048828125 396.55963134765625 C 442.9017333984375 397.1231994628906 443.15667724609375 397.7698669433594 443.6510009765625 398.078857421875 C 444.1453857421875 398.3878479003906 444.83795166015625 398.34039306640625 445.28271484375 397.96295166015625 L 445.220458984375 397.9296875" stroke-width="0.6000000238418579" fill="rgb(140, 28, 33)" opacity="1.0"/>
    <path d="M 116.50375366210938 216.627685546875 C 115.87139892578125 216.5289306640625 115.2122802734375 216.43310546875 114.59616088867188 216.6080322265625 C 113.98002624511719 216.78298950195312 113.41400146484375 217.3138427734375 113.41183471679688 217.9542236328125 C 113.41093444824219 218.74468994140625 114.30023193359375 219.3206787109375 115.08547973632812 219.21810913085938 C 115.87071228027344 219.11553955078125 116.51092529296875 218.525634765625 116.95025634765625 217.86798095703125 C 117.10665893554688 217.67800903320312 117.1861572265625 217.43634033203125 117.173095703125 217.19061279296875 C 117.13468933105469 216.95159912109375 116.84732055664062 216.74749755859375 116.64205932617188 216.87811279296875 L 116.50375366210938 216.627685546875" stroke-width="0.6000000238418579" fill="rgb(159, 159, 159)" opacity="1.0"/>
    <path d="M 115.79638671875 224.95083618164062 C 113.62452697753906 223.8741455078125 111.03646850585938 223.51812744140625 108.74453735351562 224.30364990234375 C 106.45259094238281 225.0892333984375 104.54371643066406 227.11380004882812 104.20709228515625 229.52346801757812 C 103.97125244140625 231.2274169921875 104.52108764648438 232.98260498046875 105.4927978515625 234.40386962890625 C 106.46450805664062 235.8251953125 107.829345703125 236.93978881835938 109.29649353027344 237.84133911132812 C 109.9351806640625 238.2332763671875 110.63351440429688 238.59820556640625 111.38087463378906 238.58734130859375 C 112.23773193359375 238.57528686523438 113.00080871582031 238.07305908203125 113.6866455078125 237.554931640625 C 115.62284851074219 236.0921630859375 117.40863037109375 234.2769775390625 118.20039367675781 231.9827880859375 C 118.99215698242188 229.6885986328125 118.55880737304688 226.84762573242188 116.68092346191406 225.3197021484375 L 115.79638671875 224.95083618164062" stroke-width="0.6000000238418579" fill="rgb(159, 159, 159)" opacity="1.0"/>
    <path d="M 296.326171875 105.62982177734375 C 294.6626892089844 107.17147827148438 292.8804016113281 108.95716857910156 292.7718505859375 111.21815490722656 C 292.6632080078125 113.41682434082031 294.1673583984375 115.33232116699219 295.6182556152344 116.98919677734375 C 296.2086486816406 117.66140747070312 296.8370361328125 118.355224609375 297.6746826171875 118.66806030273438 C 299.09112548828125 119.19796752929688 300.6666564941406 118.4990234375 301.8978271484375 117.62454223632812 C 303.0408630371094 116.81333923339844 304.0615234375 115.84219360351562 304.9284973144531 114.74085998535156 C 306.3369140625 112.95310974121094 307.33099365234375 110.49554443359375 306.3860168457031 108.426025390625 C 305.87750244140625 107.30801391601562 304.8614807128906 106.4766845703125 303.74713134765625 105.95571899414062 C 302.63275146484375 105.43476867675781 301.4105224609375 105.19305419921875 300.20050048828125 104.97161865234375 C 298.990478515625 104.75018310546875 297.7967529296875 104.55853271484375 296.6309509277344 104.84634399414062 L 296.326171875 105.62982177734375" stroke-width="0.6000000238418579" fill="rgb(218, 166, 20)" opacity="1.0"/>
    <path d="M 225.30206298828125 123.5263671875 C 221.9576416015625 122.53358459472656 218.441650390625 124.43997192382812 217.4488525390625 127.78439331054688 C 217.36383056640625 128.07078552246094 217.29925537109375 128.3628387451172 217.25555419921875 128.65835571289062 C 217.08978271484375 129.7813262939453 217.25350952148438 130.99859619140625 217.937744140625 131.9036407470703 C 218.51593017578125 132.6685333251953 219.39892578125 133.13783264160156 220.2886962890625 133.49337768554688 C 222.67166137695312 134.4418182373047 225.26513671875 134.73489379882812 227.7996826171875 134.3421630859375 C 228.46945190429688 134.2372283935547 229.1513671875 134.076171875 229.70654296875 133.68450927734375 C 230.638916015625 133.0275421142578 231.04849243164062 131.8210906982422 231.0621337890625 130.67977905273438 C 231.08358764648438 128.98536682128906 230.34759521484375 127.32785034179688 229.204345703125 126.07650756835938 C 228.06109619140625 124.8251953125 226.53775024414062 123.95864868164062 224.92446899414062 123.43937683105469 L 225.30206298828125 123.5263671875" stroke-width="0.6000000238418579" fill="rgb(143, 165, 67)" opacity="1.0"/>
    <path d="M 225.069580078125 100.0732421875 C 222.555908203125 103.08326721191406 224.99365234375 108.495849609375 228.86962890625 108.89361572265625 C 232.74560546875 109.29136657714844 236.18106079101562 104.81048583984375 235.0570068359375 101.05221557617188 C 233.93292236328125 97.2939453125 229.012451171875 95.36106872558594 225.49163818359375 97.09902954101562 L 225.069580078125 100.0732421875" stroke-width="0.6000000238418579" fill="rgb(233, 92, 21)" opacity="1.0"/>
    <path d="M 206.557861328125 101.03948974609375 C 205.24468994140625 99.4556884765625 203.51177978515625 97.69998168945312 201.48602294921875 98.09747314453125 C 200.68597412109375 98.28701782226562 199.9644775390625 98.72015380859375 199.42108154296875 99.33712768554688 C 198.03546142578125 100.82749938964844 197.4581298828125 102.89703369140625 197.87222290039062 104.88945007324219 C 198.22784423828125 106.57867431640625 199.27587890625 108.01119995117188 200.32073974609375 109.37200927734375 C 200.908935546875 110.13546752929688 201.55819702148438 110.92788696289062 202.46533203125 111.2374267578125 C 203.67782592773438 111.64007568359375 204.99200439453125 111.06521606445312 206.07180786132812 110.383056640625 C 207.6533203125 109.38665771484375 209.06317138671875 108.140869140625 210.24658203125 106.69398498535156 C 210.654541015625 106.19326782226562 211.04788208007812 105.64192199707031 211.14736938476562 105.00401306152344 C 211.20953369140625 104.40615844726562 211.09640502929688 103.8031005859375 210.82177734375 103.2684326171875 C 210.0517578125 101.6141357421875 208.5948486328125 100.38088989257812 206.8360595703125 99.89469909667969 L 206.557861328125 101.03948974609375" stroke-width="0.6000000238418579" fill="rgb(70, 150, 179)" opacity="1.0"/>
    <path d="M 262.0496520996094 124.66854858398438 C 260.2919616699219 126.11370849609375 258.40435791015625 127.78933715820312 258.1439208984375 130.04843139648438 C 257.8656311035156 132.47537231445312 259.6602783203125 134.73809814453125 261.8211364746094 135.8773956298828 C 262.6540832519531 136.3170166015625 263.5895080566406 136.6396026611328 264.52520751953125 136.53302001953125 C 265.29443359375 136.4456787109375 266.0007019042969 136.07797241210938 266.66461181640625 135.68011474609375 C 268.75970458984375 134.427978515625 270.7485656738281 132.65745544433594 271.3233337402344 130.28585815429688 C 271.90093994140625 127.895263671875 270.77496337890625 125.18479919433594 268.66424560546875 123.91824340820312 C 266.55352783203125 122.65170288085938 263.6331481933594 122.90528869628906 261.7843017578125 124.53288269042969 L 262.0496520996094 124.66854858398438" stroke-width="0.6000000238418579" fill="rgb(140, 28, 33)" opacity="1.0"/>
    <path d="M 318.87359619140625 112.368896484375 C 318.20892333984375 112.78897094726562 317.52191162109375 113.23342895507812 317.0936279296875 113.89352416992188 C 316.66534423828125 114.55361938476562 316.5712585449219 115.5023193359375 317.0871887207031 116.09626770019531 C 317.72564697265625 116.8280029296875 319.01385498046875 116.64141845703125 319.6570739746094 115.91146850585938 C 320.30029296875 115.18153381347656 320.4152526855469 114.11825561523438 320.28961181640625 113.15472412109375 C 320.2806091308594 112.85255432128906 320.1586608886719 112.56475830078125 319.9478454589844 112.34811401367188 C 319.7190246582031 112.15814208984375 319.2882080078125 112.20181274414062 319.2040100097656 112.48858642578125 L 318.87359619140625 112.368896484375" stroke-width="0.6000000238418579" fill="rgb(159, 159, 159)" opacity="1.0"/>
    <path d="M 202.83010864257812 125.19580078125 C 200.70660400390625 124.08221435546875 198.15533447265625 123.67192077636719 195.8712158203125 124.39718627929688 C 193.58709716796875 125.12245178222656 191.65390014648438 127.08158874511719 191.26681518554688 129.45687866210938 C 190.99526977539062 131.1365966796875 191.49951171875 132.88462829589844 192.428466796875 134.3119659423828 C 193.35736083984375 135.73931884765625 194.68197631835938 136.87222290039062 196.112548828125 137.7967529296875 C 196.73529052734375 138.19871520996094 197.41766357421875 138.57528686523438 198.15695190429688 138.58135986328125 C 199.00454711914062 138.58871459960938 199.77044677734375 138.10923767089844 200.46029663085938 137.6123046875 C 202.40789794921875 136.2093505859375 204.21466064453125 134.45448303222656 205.0491943359375 132.20364379882812 C 205.8837890625 129.95278930664062 205.5191650390625 127.13363647460938 203.696533203125 125.58047485351562 L 202.83010864257812 125.19580078125" stroke-width="0.6000000238418579" fill="rgb(159, 159, 159)" opacity="1.0"/>
    <path d="M 279.1715393066406 107.92385864257812 C 277.1751403808594 108.38897705078125 274.9761962890625 108.99249267578125 273.8782653808594 110.71878051757812 C 272.80816650390625 112.39610290527344 273.1309814453125 114.57354736328125 273.52783203125 116.52407836914062 C 273.6902160644531 117.31622314453125 273.8727111816406 118.142333984375 274.3901672363281 118.76312255859375 C 275.2647399902344 119.81355285644531 276.81463623046875 119.97055053710938 278.1728210449219 119.83554077148438 C 279.4334716796875 119.71070861816406 280.669677734375 119.40550231933594 281.84356689453125 118.92926025390625 C 283.74993896484375 118.15669250488281 285.631103515625 116.6727294921875 285.8162536621094 114.62484741210938 C 285.9178161621094 113.5194091796875 285.4925842285156 112.41171264648438 284.85113525390625 111.50363159179688 C 284.2096862792969 110.59553527832031 283.3584899902344 109.85832214355469 282.5077819824219 109.14251708984375 C 281.6570739746094 108.42669677734375 280.8058166503906 107.7415771484375 279.76171875 107.44534301757812 L 279.1715393066406 107.92385864257812" stroke-width="0.6000000238418579" fill="rgb(218, 166, 20)" opacity="1.0"/>
    <path d="M 242.17300415039062 121.67788696289062 C 239.57162475585938 123.68351745605469 239.08868408203125 127.41824340820312 241.09429931640625 130.0196075439453 C 241.26605224609375 130.24237060546875 241.453369140625 130.45266723632812 241.65487670898438 130.64891052246094 C 242.420654296875 131.39447021484375 243.44012451171875 131.9404754638672 244.50811767578125 131.91708374023438 C 245.41067504882812 131.8973846435547 246.25567626953125 131.4820556640625 247.01751708984375 130.99887084960938 C 249.0550537109375 129.7026824951172 250.7083740234375 127.88458251953125 251.80572509765625 125.73342895507812 C 252.09481811523438 125.16432189941406 252.3477783203125 124.55500793457031 252.35482788085938 123.91534423828125 C 252.3673095703125 122.84152221679688 251.67218017578125 121.86383056640625 250.80853271484375 121.22427368164062 C 249.52694702148438 120.27389526367188 247.85601806640625 119.92202758789062 246.2706298828125 120.10491943359375 C 244.685302734375 120.28779602050781 243.18411254882812 120.97296142578125 241.8984375 121.91816711425781 L 242.17300415039062 121.67788696289062" stroke-width="0.6000000238418579" fill="rgb(143, 165, 67)" opacity="1.0"/>
    <path d="M 251.09130859375 99.73382568359375 C 248.6812744140625 102.7564697265625 251.2047119140625 108.0362548828125 255.03350830078125 108.34164428710938 C 258.8622741699219 108.64700317382812 262.1478576660156 104.15419006347656 260.9560852050781 100.47543334960938 C 259.7642822265625 96.79666137695312 254.87179565429688 95.001708984375 251.44076538085938 96.793212890625 L 251.09130859375 99.73382568359375" stroke-width="0.6000000238418579" fill="rgb(233, 92, 21)" opacity="1.0"/>
    <path d="M 343.0381164550781 91.01692199707031 C 341.1705627441406 90.92916870117188 338.9306335449219 91.01803588867188 337.95733642578125 92.62179565429688 C 337.5948486328125 93.27508544921875 337.44403076171875 94.0247802734375 337.5256652832031 94.76744079589844 C 337.67822265625 96.61039733886719 338.714599609375 98.26507568359375 340.30615234375 99.20677185058594 C 341.6582336425781 100.00213623046875 343.26190185546875 100.17532348632812 344.8154296875 100.30673217773438 C 345.688232421875 100.37911987304688 346.61785888671875 100.42823791503906 347.381103515625 100.008544921875 C 348.393798828125 99.44081115722656 348.81231689453125 98.20631408691406 349.0152587890625 97.06355285644531 C 349.3143615722656 95.3914794921875 349.3408508300781 93.6820068359375 349.0937194824219 92.00146484375 C 349.0072021484375 91.42095947265625 348.87774658203125 90.81927490234375 348.51025390625 90.36192321777344 C 348.1468200683594 89.95416259765625 347.6725769042969 89.66094970703125 347.1453857421875 89.51803588867188 C 345.5630187988281 89.02236938476562 343.8428955078125 89.24575805664062 342.4396667480469 90.12921142578125 L 343.0381164550781 91.01692199707031" stroke-width="0.6000000238418579" fill="rgb(70, 150, 179)" opacity="1.0"/>
    <path d="M 340.51806640625 115.87051391601562 C 338.9817810058594 114.01425170898438 337.2010192871094 112.02120971679688 334.8079528808594 111.75318908691406 C 332.23712158203125 111.46682739257812 329.8472900390625 113.37490844726562 328.6482849121094 115.66693115234375 C 328.1856384277344 116.55044555664062 327.84722900390625 117.54205322265625 327.96331787109375 118.53250122070312 C 328.05841064453125 119.34671020507812 328.4502258300781 120.09333801269531 328.873779296875 120.79498291015625 C 330.20684814453125 123.00918579101562 332.08843994140625 125.10911560058594 334.6016845703125 125.70960998535156 C 337.13507080078125 126.31307983398438 340.00128173828125 125.11148071289062 341.335205078125 122.87211608886719 C 342.66912841796875 120.63275146484375 342.3905944824219 117.54124450683594 340.66082763671875 115.58908081054688 L 340.51806640625 115.87051391601562" stroke-width="0.6000000238418579" fill="rgb(140, 28, 33)" opacity="1.0"/>
    <path d="M 360.83551025390625 103.27828979492188 C 360.3433837890625 103.59112548828125 359.8347473144531 103.92208862304688 359.51837158203125 104.41246032714844 C 359.2020263671875 104.90283203125 359.13409423828125 105.60659790039062 359.5178527832031 106.04608154296875 C 359.9927978515625 106.5875244140625 360.94781494140625 106.4466552734375 361.4234313964844 105.904052734375 C 361.8990173339844 105.36148071289062 361.98223876953125 104.57269287109375 361.8871765136719 103.85835266113281 C 361.8799133300781 103.63427734375 361.7889404296875 103.42108154296875 361.6321716308594 103.26080322265625 C 361.46209716796875 103.120361328125 361.1426696777344 103.15359497070312 361.0807800292969 103.36642456054688 L 360.83551025390625 103.27828979492188" stroke-width="0.6000000238418579" fill="rgb(159, 159, 159)" opacity="1.0"/>
    <path d="M 354.8315124511719 115.25489807128906 C 352.7541198730469 115.72010803222656 350.7908935546875 116.90719604492188 349.66058349609375 118.70986938476562 C 348.5302734375 120.51254272460938 348.3460693359375 122.94924926757812 349.4478454589844 124.78001403808594 C 350.2284240722656 126.07339477539062 351.5736083984375 126.96759033203125 353.0222473144531 127.4007568359375 C 354.4708557128906 127.83392333984375 356.01837158203125 127.84053039550781 357.5179748535156 127.64517211914062 C 358.1705017089844 127.55978393554688 358.8487854003906 127.4229736328125 359.3529052734375 127.00259399414062 C 359.93109130859375 126.52088928222656 360.1744384765625 125.75640869140625 360.35626220703125 125.0238037109375 C 360.8695373535156 122.95545959472656 361.0854187011719 120.72967529296875 360.3581237792969 118.72624206542969 C 359.6308288574219 116.72280883789062 357.7651672363281 115.02310180664062 355.63909912109375 115.01791381835938 L 354.8315124511719 115.25489807128906" stroke-width="0.6000000238418579" fill="rgb(159, 159, 159)" opacity="1.0"/>
    <path d="M 366.2309265136719 106.69049072265625 C 364.40887451171875 106.92105102539062 362.3935546875 107.25628662109375 361.2560119628906 108.69357299804688 C 360.14776611328125 110.08981323242188 360.2348327636719 112.06008911132812 360.40875244140625 113.83497619628906 C 360.48046875 114.555908203125 360.5670166015625 115.3089599609375 360.9709777832031 115.90988159179688 C 361.6535949707031 116.92660522460938 363.0203857421875 117.2093505859375 364.2432556152344 117.21417236328125 C 365.37823486328125 117.21908569335938 366.5080871582031 117.06100463867188 367.59814453125 116.7447509765625 C 369.3682861328125 116.23190307617188 371.1815185546875 115.08273315429688 371.53521728515625 113.27471923828125 C 371.72760009765625 112.29890441894531 371.4507141113281 111.27255249023438 370.9627380371094 110.40414428710938 C 370.4747314453125 109.53573608398438 369.7840881347656 108.80029296875 369.0918884277344 108.083984375 C 368.3996887207031 107.36767578125 367.7041931152344 106.67863464355469 366.8009948730469 106.31842041015625 L 366.2309265136719 106.69049072265625" stroke-width="0.6000000238418579" fill="rgb(218, 166, 20)" opacity="1.0"/>
    <path d="M 430.47808837890625 163.96356201171875 C 427.5157470703125 163.83819580078125 425.01263427734375 166.1380615234375 424.88726806640625 169.10040283203125 C 424.87652587890625 169.35406494140625 424.8837890625 169.60818481445312 424.9090576171875 169.86083984375 C 425.0050048828125 170.82080078125 425.3922119140625 171.79022216796875 426.14373779296875 172.3944091796875 C 426.77874755859375 172.90509033203125 427.60382080078125 173.10894775390625 428.410888671875 173.2176513671875 C 430.571533203125 173.50567626953125 432.76995849609375 173.20989990234375 434.7777099609375 172.36105346679688 C 435.30804443359375 172.13580322265625 435.8367919921875 171.86175537109375 436.21319580078125 171.42388916015625 C 436.8455810546875 170.689208984375 436.9332275390625 169.60992431640625 436.7080078125 168.6663818359375 C 436.3746337890625 167.26528930664062 435.42449951171875 166.05157470703125 434.222900390625 165.25701904296875 C 433.0213623046875 164.46246337890625 431.586181640625 164.0638427734375 430.1488037109375 163.9700927734375 L 430.47808837890625 163.96356201171875" stroke-width="0.6000000238418579" fill="rgb(143, 165, 67)" opacity="1.0"/>
    <path d="M 138.08204650878906 412.4505615234375 C 134.8123321533203 414.5296630859375 135.48265075683594 420.3565673828125 139.0120086669922 421.89434814453125 C 142.5413818359375 423.43212890625 147.1202850341797 420.2449951171875 147.1901092529297 416.3697509765625 C 147.25994873046875 412.494384765625 143.2080535888672 409.1980285644531 139.3720245361328 409.7773742675781 L 138.08204650878906 412.4505615234375" stroke-width="0.6000000238418579" fill="rgb(233, 92, 21)" opacity="1.0"/>
    <path d="M 430.1448974609375 176.7691650390625 C 428.426025390625 176.4105224609375 426.335693359375 176.16043090820312 425.195068359375 177.503173828125 C 424.761962890625 178.05517578125 424.5107421875 178.72802734375 424.47625732421875 179.4288330078125 C 424.3441162109375 181.1605224609375 425.0595703125 182.84878540039062 426.3956298828125 183.95831298828125 C 427.531494140625 184.89657592773438 428.99285888671875 185.29522705078125 430.41400146484375 185.647705078125 C 431.212646484375 185.84442138671875 432.0673828125 186.0279541015625 432.83746337890625 185.7520751953125 C 433.86083984375 185.37591552734375 434.4322509765625 184.29327392578125 434.7900390625 183.263671875 C 435.315673828125 181.75750732421875 435.593994140625 180.17617797851562 435.6142578125 178.5810546875 C 435.6202392578125 178.0299072265625 435.5894775390625 177.45272827148438 435.31658935546875 176.97406005859375 C 435.04010009765625 176.5419921875 434.64385986328125 176.19967651367188 434.1761474609375 175.9888916015625 C 432.7823486328125 175.29434204101562 431.154052734375 175.24615478515625 429.7216796875 175.85711669921875 L 430.1448974609375 176.7691650390625" stroke-width="0.6000000238418579" fill="rgb(70, 150, 179)" opacity="1.0"/>
    <path d="M 416.1962890625 161.239990234375 C 414.891845703125 159.60757446289062 413.37750244140625 157.85296630859375 411.3065490722656 157.5849609375 C 409.0816955566406 157.29840087890625 406.98114013671875 158.917236328125 405.90740966796875 160.88677978515625 C 405.49310302734375 161.64593505859375 405.1849060058594 162.50070190429688 405.27081298828125 163.3612060546875 C 405.3411560058594 164.06863403320312 405.6697692871094 164.72183227539062 406.0265808105469 165.33648681640625 C 407.14947509765625 167.2762451171875 408.74969482421875 169.12503051757812 410.919921875 169.68310546875 C 413.1075439453125 170.24407958984375 415.6107177734375 169.244873046875 416.8006591796875 167.32302856445312 C 417.9906005859375 165.40118408203125 417.7950439453125 162.71649169921875 416.32427978515625 160.998046875 L 416.1962890625 161.239990234375" stroke-width="0.6000000238418579" fill="rgb(140, 28, 33)" opacity="1.0"/>
    <path d="M 147.0 115.0 C 146.54100036621094 115.34477233886719 146.06719970703125 115.70858764648438 145.79432678222656 116.21412658691406 C 145.52146911621094 116.71966552734375 145.5087890625 117.41555786132812 145.91912841796875 117.81744384765625 C 146.42677307128906 118.31240844726562 147.35324096679688 118.10089111328125 147.7783966064453 117.53189086914062 C 148.20355224609375 116.96290588378906 148.22470092773438 116.18240356445312 148.07664489746094 115.48861694335938 C 148.0523223876953 115.26925659179688 147.94667053222656 115.06698608398438 147.780517578125 114.92172241210938 C 147.6028289794922 114.79693603515625 147.29190063476562 114.85404968261719 147.2474822998047 115.06768798828125 L 147.0 115.0" stroke-width="0.6000000238418579" fill="rgb(159, 159, 159)" opacity="1.0"/>
    <path d="M 424.3843994140625 173.32968139648438 C 422.5670166015625 172.955322265625 420.5816650390625 173.19549560546875 419.037841796875 174.22317504882812 C 417.49395751953125 175.2508544921875 416.474853515625 177.12124633789062 416.69464111328125 178.970703125 C 416.8516845703125 180.278076171875 417.6004638671875 181.470458984375 418.596435546875 182.33352661132812 C 419.59246826171875 183.19659423828125 420.81982421875 183.756103515625 422.08148193359375 184.13796997070312 C 422.630615234375 184.3038330078125 423.2186279296875 184.43804931640625 423.769775390625 184.2845458984375 C 424.40179443359375 184.10882568359375 424.8690185546875 183.5885009765625 425.27587890625 183.07144165039062 C 426.424560546875 181.61163330078125 427.393310546875 179.92019653320312 427.53289794921875 178.06768798828125 C 427.6724853515625 176.21514892578125 426.7987060546875 174.19622802734375 425.111083984375 173.43060302734375 L 424.3843994140625 173.32968139648438" stroke-width="0.6000000238418579" fill="rgb(159, 159, 159)" opacity="1.0"/>
    <path d="M 415.667724609375 180.12603759765625 C 414.18212890625 178.64739990234375 412.4669189453125 177.06820678710938 410.37506103515625 177.05221557617188 C 408.3407897949219 177.03378295898438 406.6280822753906 178.49407958984375 405.1521911621094 179.89556884765625 C 404.553466796875 180.46575927734375 403.93621826171875 181.07183837890625 403.6785583496094 181.85699462890625 C 403.24200439453125 183.18463134765625 403.94610595703125 184.61343383789062 404.7994384765625 185.71771240234375 C 405.5910949707031 186.74298095703125 406.5258483886719 187.64923095703125 407.57513427734375 188.40875244140625 C 409.27838134765625 189.64266967773438 411.584716796875 190.46905517578125 413.46044921875 189.51937866210938 C 414.473876953125 189.00814819335938 415.20367431640625 188.03900146484375 415.6431884765625 186.9906005859375 C 416.082763671875 185.94219970703125 416.26043701171875 184.80459594726562 416.4197998046875 183.67901611328125 C 416.5792236328125 182.553466796875 416.711669921875 181.44406127929688 416.4024658203125 180.3782958984375 L 415.667724609375 180.12603759765625" stroke-width="0.6000000238418579" fill="rgb(218, 166, 20)" opacity="1.0"/>
    <path d="M 442.8116455078125 177.834716796875 C 440.0323486328125 179.88418579101562 439.440673828125 183.79876708984375 441.4901123046875 186.57809448242188 C 441.6656494140625 186.81610107421875 441.8577880859375 187.04135131835938 442.065185546875 187.25213623046875 C 442.853271484375 188.05300903320312 443.9124755859375 188.64984130859375 445.03558349609375 188.6492919921875 C 445.984619140625 188.64892578125 446.88214111328125 188.23138427734375 447.69378662109375 187.74066162109375 C 449.864501953125 186.4241943359375 451.6431884765625 184.55044555664062 452.844970703125 182.31414794921875 C 453.16162109375 181.72247314453125 453.4412841796875 181.0877685546875 453.46307373046875 180.41558837890625 C 453.5003662109375 179.28720092773438 452.791748046875 178.24395751953125 451.8983154296875 177.55230712890625 C 450.57275390625 176.5245361328125 448.8243408203125 176.11709594726562 447.1539306640625 176.27362060546875 C 445.4835205078125 176.43017578125 443.8902587890625 177.11651611328125 442.5177001953125 178.0810546875 L 442.8116455078125 177.834716796875" stroke-width="0.6000000238418579" fill="rgb(143, 165, 67)" opacity="1.0"/>
    <path d="M 142.43894958496094 110.33114624023438 C 135.2746124267578 113.21173095703125 134.46229553222656 124.87214660644531 140.81593322753906 129.17233276367188 C 147.16958618164062 133.47250366210938 157.302978515625 128.89881896972656 158.85345458984375 121.33193969726562 C 160.4039306640625 113.76506042480469 153.6680908203125 105.828857421875 145.94134521484375 105.56455993652344 L 142.43894958496094 110.33114624023438" stroke-width="0.6000000238418579" fill="rgb(233, 92, 21)" opacity="1.0"/>
    <path d="M 442.70159912109375 150.61212158203125 C 439.8646240234375 152.70835876464844 436.6932373046875 155.506591796875 437.1795654296875 159.012451171875 C 437.427490234375 160.40008544921875 438.099853515625 161.6766357421875 439.1038818359375 162.66595458984375 C 441.5224609375 165.1806640625 445.0098876953125 166.36712646484375 448.460205078125 165.84909057617188 C 451.3858642578125 165.40216064453125 453.9384765625 163.74530029296875 456.3680419921875 162.08697509765625 C 457.73126220703125 161.1531982421875 459.14990234375 160.11767578125 459.76666259765625 158.594482421875 C 460.57208251953125 156.55746459960938 459.7138671875 154.2527618408203 458.6495361328125 152.33900451660156 C 457.09539794921875 149.53628540039062 455.09783935546875 147.00360107421875 452.734375 144.83917236328125 C 451.91632080078125 144.09291076660156 451.0101318359375 143.3667755126953 449.927734375 143.13536071777344 C 448.91021728515625 142.9716796875 447.8670654296875 143.1075897216797 446.925537109375 143.52651977539062 C 444.0198974609375 144.68618774414062 441.769287109375 147.0620880126953 440.7685546875 150.0261993408203 L 442.70159912109375 150.61212158203125" stroke-width="0.6000000238418579" fill="rgb(70, 150, 179)" opacity="1.0"/>
    <path d="M 378.5807189941406 87.9482421875 C 376.4310302734375 85.01954650878906 373.92529296875 81.86357116699219 370.3468017578125 81.25042724609375 C 366.5023193359375 80.59405517578125 362.7379150390625 83.25662231445312 360.7322998046875 86.60147094726562 C 359.95849609375 87.89077758789062 359.36224365234375 89.35368347167969 359.45013427734375 90.85464477539062 C 359.5219421386719 92.08856201171875 360.04620361328125 93.24668884277344 360.62225341796875 94.33990478515625 C 362.4346923828125 97.78956604003906 365.08282470703125 101.11524963378906 368.8130798339844 102.2393798828125 C 372.57342529296875 103.3697509765625 376.9929504394531 101.81234741210938 379.197021484375 98.55857849121094 C 381.4010925292969 95.3048095703125 381.2528076171875 90.62710571289062 378.82025146484375 87.53712463378906 L 378.5807189941406 87.9482421875" stroke-width="0.6000000238418579" fill="rgb(140, 28, 33)" opacity="1.0"/>
    <path d="M 128.2347412109375 406.29583740234375 C 127.08419799804688 406.78009033203125 125.892333984375 407.2966613769531 125.04928588867188 408.218505859375 C 124.20625305175781 409.14031982421875 123.81118774414062 410.6013488769531 124.4639892578125 411.6661682128906 C 125.272705078125 412.978759765625 127.33868408203125 413.02294921875 128.53651428222656 412.0478515625 C 129.73435974121094 411.07281494140625 130.19203186035156 409.43780517578125 130.24691772460938 407.89617919921875 C 130.3117218017578 407.420654296875 130.1959228515625 406.9381408691406 129.92236328125 406.5438232421875 C 129.61366271972656 406.18658447265625 128.92762756347656 406.1424865722656 128.7208709716797 406.5695495605469 L 128.2347412109375 406.29583740234375" stroke-width="0.6000000238418579" fill="rgb(159, 159, 159)" opacity="1.0"/>
    <path d="M 415.867919921875 200.75848388671875 C 412.8045654296875 198.40460205078125 408.8680419921875 197.04904174804688 405.0421142578125 197.56976318359375 C 401.2161560058594 198.0904541015625 397.6066589355469 200.66665649414062 396.33648681640625 204.33023071289062 C 395.4417419433594 206.92156982421875 395.7596130371094 209.83554077148438 396.84014892578125 212.357666015625 C 397.920654296875 214.87982177734375 399.7105407714844 217.0438232421875 401.7261047363281 218.90631103515625 C 402.6037292480469 219.71627807617188 403.5829162597656 220.50238037109375 404.7547607421875 220.71612548828125 C 406.09814453125 220.96176147460938 407.4462890625 220.412109375 408.6784973144531 219.813720703125 C 412.1573486328125 218.1243896484375 415.509765625 215.83755493164062 417.455810546875 212.49505615234375 C 419.4019775390625 209.15252685546875 419.6014404296875 204.57684326171875 417.136962890625 201.6082763671875 L 415.867919921875 200.75848388671875" stroke-width="0.6000000238418579" fill="rgb(159, 159, 159)" opacity="1.0"/>
    <path d="M 385.69439697265625 112.38088989257812 C 381.9476318359375 112.88975524902344 377.80499267578125 113.61770629882812 375.4900817871094 116.59805297851562 C 373.2347412109375 119.4932861328125 373.4509582519531 123.54789733886719 373.84234619140625 127.19862365722656 C 374.0035400390625 128.68145751953125 374.19580078125 130.2301483154297 375.0387268066406 131.4596710205078 C 376.4631652832031 133.5400390625 379.2823181152344 134.09646606445312 381.7998962402344 134.08343505859375 C 384.1366271972656 134.07225036621094 386.45965576171875 133.72557067871094 388.6978454589844 133.05404663085938 C 392.33245849609375 131.96498107910156 396.0438232421875 129.56515502929688 396.738037109375 125.83631896972656 C 397.1157531738281 123.82379150390625 396.5264587402344 121.71603393554688 395.50555419921875 119.93740844726562 C 394.484619140625 118.15876770019531 393.0489196777344 116.65766906738281 391.6104431152344 115.19596862792969 C 390.1719665527344 113.73426818847656 388.7272033691406 112.32881164550781 386.86102294921875 111.60418701171875 L 385.69439697265625 112.38088989257812" stroke-width="0.6000000238418579" fill="rgb(218, 166, 20)" opacity="1.0"/>
    <path d="M 400.27581787109375 88.3736572265625 C 395.3277282714844 85.48928833007812 388.978271484375 87.16226196289062 386.09393310546875 92.1103515625 C 385.846923828125 92.5340576171875 385.63031005859375 92.97474670410156 385.4456787109375 93.42910766601562 C 384.7444763183594 95.15571594238281 384.5321350097656 97.16091918945312 385.27142333984375 98.87057495117188 C 385.89605712890625 100.3154296875 387.12188720703125 101.40742492675781 388.4027099609375 102.32061767578125 C 391.8345642089844 104.76023864746094 395.8570556640625 106.23648071289062 400.0523376464844 106.59597778320312 C 401.1614074707031 106.68913269042969 402.3117370605469 106.697509765625 403.3495178222656 106.28875732421875 C 405.0921325683594 105.60357666015625 406.2147216796875 103.83865356445312 406.680419921875 102.02362060546875 C 407.37371826171875 99.32943725585938 406.84454345703125 96.39944458007812 405.5078430175781 93.95892333984375 C 404.1711730957031 91.5184326171875 402.0785217285156 89.54377746582031 399.7073974609375 88.08802795410156 L 400.27581787109375 88.3736572265625" stroke-width="0.6000000238418579" fill="rgb(143, 165, 67)" opacity="1.0"/>
    <path d="M 119.58389282226562 418.1009521484375 C 113.69557189941406 413.35894775390625 103.34600830078125 418.24359130859375 102.7122802734375 425.728515625 C 102.07856750488281 433.21343994140625 110.83369445800781 439.6817626953125 118.03948974609375 437.3861083984375 C 125.24530029296875 435.0904541015625 128.80224609375 425.5394287109375 125.33139038085938 418.81243896484375 L 119.58389282226562 418.1009521484375" stroke-width="0.6000000238418579" fill="rgb(233, 92, 21)" opacity="1.0"/>
    <path d="M 439.401123046875 196.72174072265625 C 436.52398681640625 198.87399291992188 433.31036376953125 201.74334716796875 433.82684326171875 205.31146240234375 C 434.087646484375 206.72344970703125 434.7801513671875 208.01971435546875 435.80889892578125 209.02142333984375 C 438.28753662109375 211.56842041015625 441.846923828125 212.75601196289062 445.35833740234375 212.2076416015625 C 448.3358154296875 211.73480224609375 450.92596435546875 210.03179931640625 453.3907470703125 208.32803344726562 C 454.77374267578125 207.36871337890625 456.21258544921875 206.305419921875 456.8316650390625 204.75018310546875 C 457.63983154296875 202.67041015625 456.7518310546875 200.3280029296875 455.65618896484375 198.385009765625 C 454.0562744140625 195.53948974609375 452.00634765625 192.9716796875 449.5859375 190.78115844726562 C 448.7481689453125 190.02590942382812 447.82080078125 189.29168701171875 446.716796875 189.0625 C 445.679443359375 188.90185546875 444.61767578125 189.04656982421875 443.6611328125 189.47894287109375 C 440.7083740234375 190.6776123046875 438.43017578125 193.11123657226562 437.4285888671875 196.13650512695312 L 439.401123046875 196.72174072265625" stroke-width="0.6000000238418579" fill="rgb(70, 150, 179)" opacity="1.0"/>
    <path d="M 418.1888427734375 137.1432647705078 C 415.9154052734375 133.97549438476562 413.2625732421875 130.5597381591797 409.42919921875 129.86058044433594 C 405.31085205078125 129.11199951171875 401.2403259277344 131.9261932373047 399.04949951171875 135.49281311035156 C 398.2042236328125 136.86758422851562 397.5474853515625 138.43072509765625 397.6246032714844 140.0425567626953 C 397.6874694824219 141.3675994873047 398.23681640625 142.6165313720703 398.8424377441406 143.79638671875 C 400.7478942871094 147.5193634033203 403.5516357421875 151.11891174316406 407.5420227050781 152.36819458007812 C 411.5645751953125 153.62449645996094 416.32550048828125 152.00389099121094 418.728271484375 148.53729248046875 C 421.131103515625 145.07070922851562 421.02569580078125 140.04891967773438 418.45062255859375 136.70480346679688 L 418.1888427734375 137.1432647705078" stroke-width="0.6000000238418579" fill="rgb(140, 28, 33)" opacity="1.0"/>
    <path d="M 403.9334411621094 88.77301025390625 C 403.6074523925781 90.03558349609375 403.28216552734375 91.35296630859375 403.5144348144531 92.63703918457031 C 403.7467041015625 93.92109680175781 404.71063232421875 95.17428588867188 406.0086364746094 95.30593872070312 C 407.61126708984375 95.46490478515625 408.95587158203125 93.77621459960938 408.9039611816406 92.16363525390625 C 408.8520812988281 90.55105590820312 407.7832336425781 89.13571166992188 406.5370178222656 88.11415100097656 C 406.18292236328125 87.75927734375 405.70867919921875 87.55003356933594 405.2078552246094 87.52772521972656 C 404.7156066894531 87.55807495117188 404.2446594238281 88.10018920898438 404.4686279296875 88.5423583984375 L 403.9334411621094 88.77301025390625" stroke-width="0.6000000238418579" fill="rgb(159, 159, 159)" opacity="1.0"/>
    <path d="M 436.963134765625 228.62667846679688 C 434.0462646484375 231.2652587890625 431.96978759765625 234.96072387695312 431.7928466796875 238.887939453125 C 431.615966796875 242.815185546875 433.537353515625 246.90090942382812 436.9749755859375 248.84197998046875 C 439.4072265625 250.21124267578125 442.38397216796875 250.42486572265625 445.10748291015625 249.80303955078125 C 447.83099365234375 249.18121337890625 450.3253173828125 247.78350830078125 452.55877685546875 246.10467529296875 C 453.5302734375 245.37347412109375 454.4964599609375 244.53622436523438 454.9244384765625 243.4014892578125 C 455.415771484375 242.10073852539062 455.111328125 240.65008544921875 454.7369384765625 239.30657958984375 C 453.679931640625 235.51370239257812 452.00146484375 231.73834228515625 449.0087890625 229.17880249023438 C 446.01611328125 226.61929321289062 441.4693603515625 225.58416748046875 438.0460205078125 227.5106201171875 L 436.963134765625 228.62667846679688" stroke-width="0.6000000238418579" fill="rgb(159, 159, 159)" opacity="1.0"/>
    <path d="M 413.786376953125 256.9408264160156 C 410.7215881347656 254.40960693359375 407.205322265625 251.728759765625 403.25250244140625 252.06588745117188 C 399.407958984375 252.3883056640625 396.43023681640625 255.446533203125 393.889404296875 258.3520812988281 C 392.8589782714844 259.533935546875 391.7998352050781 260.7867736816406 391.451171875 262.31463623046875 C 390.8599853515625 264.8983459472656 392.4404296875 267.4726867675781 394.2456970214844 269.40802001953125 C 395.92059326171875 271.20501708984375 397.8448486328125 272.7521667480469 399.95953369140625 274.0021667480469 C 403.3924865722656 276.0330505371094 407.89263916015625 277.1885681152344 411.2679138183594 275.06585693359375 C 413.091796875 273.9225769042969 414.2996826171875 271.9643859863281 414.945556640625 269.90753173828125 C 415.5914306640625 267.85064697265625 415.7271728515625 265.6712951660156 415.8304443359375 263.51788330078125 C 415.93377685546875 261.3644714355469 415.98919677734375 259.2463073730469 415.2181396484375 257.2881164550781 L 413.786376953125 256.9408264160156" stroke-width="0.6000000238418579" fill="rgb(218, 166, 20)" opacity="1.0"/>
    <path d="M 411.3236083984375 90.10882568359375 C 406.582275390625 93.588134765625 405.5592041015625 100.25225830078125 409.0384826660156 104.99359130859375 C 409.33642578125 105.39959716796875 409.66278076171875 105.783935546875 410.0151062011719 106.14376831054688 C 411.3541259765625 107.5107421875 413.15557861328125 108.53134155273438 415.06817626953125 108.53482055664062 C 416.6844482421875 108.53793334960938 418.2144775390625 107.83042907714844 419.5986328125 106.99795532226562 C 423.3006591796875 104.7645263671875 426.33709716796875 101.58059692382812 428.392578125 97.77693176269531 C 428.9342041015625 96.77059936523438 429.412841796875 95.69073486328125 429.45263671875 94.546142578125 C 429.5206298828125 92.6246337890625 428.3179931640625 90.84518432617188 426.79931640625 89.66378784179688 C 424.54583740234375 87.90827941894531 421.57000732421875 87.20748901367188 418.72467041015625 87.46749877929688 C 415.87933349609375 87.72747802734375 413.163330078125 88.89004516601562 410.8219909667969 90.52723693847656 L 411.3236083984375 90.10882568359375" stroke-width="0.6000000238418579" fill="rgb(143, 165, 67)" opacity="1.0"/>
    <path d="M 437.68804931640625 127.53739929199219 C 432.76165771484375 132.55886840820312 436.343994140625 142.58656311035156 443.2174072265625 143.8538360595703 C 450.09075927734375 145.12109375 456.8763427734375 137.60191345214844 455.4056396484375 130.72067260742188 C 453.9349365234375 123.83944702148438 445.4140625 119.67745971679688 438.869384765625 122.27993774414062 L 437.68804931640625 127.53739929199219" stroke-width="0.6000000238418579" fill="rgb(233, 92, 21)" opacity="1.0"/>
    <path d="M 437.05865478515625 101.14598083496094 C 434.3720703125 103.35627746582031 431.39208984375 106.27516174316406 432.0511474609375 109.70318603515625 C 432.3665771484375 111.05718994140625 433.09429931640625 112.27999877929688 434.134033203125 113.20285034179688 C 436.645263671875 115.55548095703125 440.1409912109375 116.54501342773438 443.5126953125 115.85763549804688 C 446.37139892578125 115.26722717285156 448.80047607421875 113.50428771972656 451.1082763671875 111.7462158203125 C 452.4029541015625 110.75653076171875 453.7470703125 109.66380310058594 454.2763671875 108.13189697265625 C 454.965087890625 106.084228515625 454.00146484375 103.85830688476562 452.8548583984375 102.02804565429688 C 451.1802978515625 99.34736633300781 449.082763671875 96.95541381835938 446.643798828125 94.9449462890625 C 445.7998046875 94.25192260742188 444.8699951171875 93.58326721191406 443.7919921875 93.41091918945312 C 442.78143310546875 93.30194091796875 441.760986328125 93.48934936523438 440.8551025390625 93.9503173828125 C 438.0528564453125 95.24166870117188 435.9581298828125 97.69732666015625 435.1246337890625 100.66813659667969 L 437.05865478515625 101.14598083496094" stroke-width="0.6000000238418579" fill="rgb(70, 150, 179)" opacity="1.0"/>
    <path d="M 311.6806335449219 390.6806335449219 C 308.1851501464844 390.2076416015625 304.2908630371094 389.83013916015625 301.4495849609375 391.9166259765625 C 298.3988037109375 394.1597900390625 297.7206115722656 398.58489990234375 298.7049865722656 402.2413635253906 C 299.08392333984375 403.65130615234375 299.703857421875 405.05426025390625 300.81170654296875 406.0049133300781 C 301.72210693359375 406.7867736816406 302.8846740722656 407.201416015625 304.0368347167969 407.5361328125 C 307.6688232421875 408.5959777832031 311.7777099609375 408.98846435546875 315.0782775878906 407.1405029296875 C 318.4034423828125 405.2757263183594 320.29547119140625 401.13812255859375 319.508544921875 397.4044189453125 C 318.72161865234375 393.67071533203125 315.35382080078125 390.6202087402344 311.554931640625 390.236083984375 L 311.6806335449219 390.6806335449219" stroke-width="0.6000000238418579" fill="rgb(140, 28, 33)" opacity="1.0"/>
    <path d="M 311.0 391.0 C 309.58392333984375 392.0636901855469 308.1221008300781 393.1861267089844 307.2802734375 394.7458190917969 C 306.4384765625 396.30548095703125 306.3993225097656 398.45245361328125 307.6653137207031 399.6923522949219 C 309.23150634765625 401.2193908691406 312.0898132324219 400.56683349609375 313.4014892578125 398.8113708496094 C 314.71319580078125 397.0559387207031 314.7784423828125 394.6479187011719 314.3216247558594 392.5074462890625 C 314.2466125488281 391.8306884765625 313.920654296875 391.2066650390625 313.40802001953125 390.7585144042969 C 312.85986328125 390.3735046386719 311.90057373046875 390.5497131347656 311.7635192871094 391.20880126953125 L 311.0 391.0" stroke-width="0.6000000238418579" fill="rgb(159, 159, 159)" opacity="1.0"/>
    <path d="M 324.2668762207031 399.3499450683594 C 319.7337646484375 400.8755798339844 315.6246337890625 403.9875793457031 313.5207824707031 408.2801818847656 C 311.4169006347656 412.57281494140625 311.5755615234375 418.060791015625 314.4658508300781 421.89385986328125 C 316.5127868652344 424.601318359375 319.7278747558594 426.2845458984375 323.06622314453125 426.91351318359375 C 326.4045715332031 427.54248046875 329.8640441894531 427.195068359375 333.1692199707031 426.40771484375 C 334.60736083984375 426.06414794921875 336.09100341796875 425.5997314453125 337.1191101074219 424.5423583984375 C 338.29833984375 423.3306884765625 338.6632080078125 421.5655517578125 338.8980407714844 419.885986328125 C 339.56097412109375 415.14404296875 339.5224609375 410.1199951171875 337.42852783203125 405.8134765625 C 335.3345947265625 401.5069580078125 330.7679748535156 398.1455078125 326.0160217285156 398.6313781738281 L 324.2668762207031 399.3499450683594" stroke-width="0.6000000238418579" fill="rgb(159, 159, 159)" opacity="1.0"/>
    <path d="M 267.2887268066406 402.28472900390625 C 262.8041076660156 404.0289001464844 257.8948059082031 406.161865234375 255.91705322265625 410.5381774902344 C 253.9876708984375 414.7913818359375 255.46127319335938 419.7440185546875 257.0315246582031 424.144775390625 C 257.67205810546875 425.9315185546875 258.37060546875 427.79058837890625 259.7793273925781 429.0611572265625 C 262.1606750488281 431.2115478515625 265.81439208984375 431.06146240234375 268.92559814453125 430.2965087890625 C 271.8135986328125 429.5875244140625 274.5848388671875 428.46759033203125 277.15447998046875 426.97088623046875 C 281.3277587890625 424.542236328125 285.2060852050781 420.46881103515625 284.95587158203125 415.64849853515625 C 284.8245849609375 413.0460205078125 283.46844482421875 410.61328125 281.6761474609375 408.7161865234375 C 279.88385009765625 406.8191223144531 277.6609191894531 405.3888244628906 275.44622802734375 404.00811767578125 C 273.2315673828125 402.6274108886719 271.0258483886719 401.3181457519531 268.5011901855469 400.9766845703125 L 267.2887268066406 402.28472900390625" stroke-width="0.6000000238418579" fill="rgb(218, 166, 20)" opacity="1.0"/>
    <path d="M 226.3114013671875 405.3397216796875 C 218.54345703125 403.15240478515625 210.47308349609375 407.6764221191406 208.2857666015625 415.44439697265625 C 208.09848022460938 416.10955810546875 207.9586181640625 416.78717041015625 207.8671875 417.47216796875 C 207.52035522460938 420.074951171875 207.93875122070312 422.8851318359375 209.55087280273438 424.9561767578125 C 210.9130859375 426.70654296875 212.97076416015625 427.76324462890625 215.04034423828125 428.556640625 C 220.58306884765625 430.67266845703125 226.59124755859375 431.2659912109375 232.4407958984375 430.2750244140625 C 233.986572265625 430.010498046875 235.55862426757812 429.61578369140625 236.82989501953125 428.6917724609375 C 238.96502685546875 427.141845703125 239.87310791015625 424.3380126953125 239.86749267578125 421.69775390625 C 239.86187744140625 417.77783203125 238.10546875 413.968017578125 235.42041015625 411.1109924316406 C 232.7353515625 408.2539367675781 229.18359375 406.2992858886719 225.4351806640625 405.15081787109375 L 226.3114013671875 405.3397216796875" stroke-width="0.6000000238418579" fill="rgb(143, 165, 67)" opacity="1.0"/>
    <path d="M 286.3433837890625 378.56195068359375 C 281.3951416015625 385.85870361328125 288.0615234375 397.4200134277344 296.8210754394531 397.44097900390625 C 305.5806579589844 397.4619140625 312.26116943359375 386.6683044433594 308.9042663574219 378.51318359375 C 305.54736328125 370.3580322265625 294.107177734375 367.1372375488281 286.6208190917969 371.8141784667969 L 286.3433837890625 378.56195068359375" stroke-width="0.6000000238418579" fill="rgb(233, 92, 21)" opacity="1.0"/>
    <path d="M 338.6416931152344 376.6319885253906 C 335.319091796875 379.5596008300781 331.6537780761719 383.4013366699219 332.6398620605469 387.7340393066406 C 333.0993957519531 389.4429931640625 334.0779113769531 390.9672546386719 335.4404296875 392.0965270996094 C 338.7364807128906 394.9813232421875 343.2263488769531 396.089599609375 347.4861755371094 395.06988525390625 C 351.09747314453125 394.1956481933594 354.1117858886719 391.84820556640625 356.9719543457031 389.51220703125 C 358.57647705078125 388.1973876953125 360.2393798828125 386.74932861328125 360.8466796875 384.7776794433594 C 361.6346130371094 382.14300537109375 360.3128662109375 379.35272216796875 358.775390625 377.0736999511719 C 356.52947998046875 373.7355041503906 353.7580871582031 370.7828674316406 350.56866455078125 368.33026123046875 C 349.46502685546875 367.4849548339844 348.2533874511719 366.6743469238281 346.87451171875 366.50152587890625 C 345.584228515625 366.40643310546875 344.2940979003906 366.6888122558594 343.1615295410156 367.3142395019531 C 339.6521301269531 369.07781982421875 337.0930480957031 372.2920837402344 336.16070556640625 376.1073913574219 L 338.6416931152344 376.6319885253906" stroke-width="0.6000000238418579" fill="rgb(70, 150, 179)" opacity="1.0"/>
    <path d="M 300.35491943359375 401.9371337890625 C 295.6898193359375 403.50421142578125 290.584716796875 405.4370422363281 288.31878662109375 409.8020935058594 C 285.88751220703125 414.4925537109375 287.7720031738281 420.4473876953125 291.26171875 424.41387939453125 C 292.6065673828125 425.9437255859375 294.24859619140625 427.3160400390625 296.2216796875 427.8211669921875 C 297.843505859375 428.2369384765625 299.55401611328125 428.0377197265625 301.2021179199219 427.744873046875 C 306.4004821777344 426.82769775390625 311.78326416015625 424.78106689453125 314.7711181640625 420.4307861328125 C 317.77935791015625 416.044189453125 317.5909729003906 409.69940185546875 314.3005676269531 405.5143737792969 C 311.0101623535156 401.329345703125 304.9129333496094 399.5929870605469 299.9231262207031 401.4586181640625 L 300.35491943359375 401.9371337890625" stroke-width="0.6000000238418579" fill="rgb(140, 28, 33)" opacity="1.0"/>
    <path d="M 337.24310302734375 390.7431640625 C 335.7729797363281 391.7353210449219 334.254150390625 392.7839050292969 333.3332214355469 394.3011779785156 C 332.412353515625 395.81842041015625 332.2644958496094 397.9637451171875 333.4678955078125 399.2679138183594 C 334.95697021484375 400.87445068359375 337.8487243652344 400.3664855957031 339.2494812011719 398.6772155761719 C 340.65020751953125 396.9879150390625 340.8373718261719 394.5828552246094 340.4888916015625 392.41900634765625 C 340.4481201171875 391.73834228515625 340.1536865234375 391.0977478027344 339.6636962890625 390.6235656738281 C 339.13494873046875 390.21075439453125 338.1665954589844 390.3384094238281 337.99615478515625 390.99066162109375 L 337.24310302734375 390.7431640625" stroke-width="0.6000000238418579" fill="rgb(159, 159, 159)" opacity="1.0"/>
    <path d="M 351.4865417480469 396.2614440917969 C 346.8453369140625 397.3902587890625 342.48974609375 400.1338195800781 340.02801513671875 404.22418212890625 C 337.5662536621094 408.3145751953125 337.25299072265625 413.78851318359375 339.7996826171875 417.850341796875 C 341.6038818359375 420.7198486328125 344.65826416015625 422.670654296875 347.92578125 423.5830078125 C 351.19329833984375 424.495361328125 354.6651611328125 424.44671630859375 358.0212707519531 423.947021484375 C 359.4816589355469 423.7286376953125 360.9976806640625 423.3939208984375 362.1113586425781 422.43017578125 C 363.388671875 421.32586669921875 363.9032287597656 419.60089111328125 364.28106689453125 417.949951171875 C 365.3477478027344 413.28887939453125 365.7406921386719 408.28680419921875 364.0270080566406 403.8222351074219 C 362.31329345703125 399.357666015625 358.0582580566406 395.62115478515625 353.2885437011719 395.6966552734375 L 351.4865417480469 396.2614440917969" stroke-width="0.6000000238418579" fill="rgb(159, 159, 159)" opacity="1.0"/>
    <path d="M 266.0329895019531 381.9158020019531 C 262.9660949707031 378.49578857421875 259.4089660644531 374.8271484375 254.83367919921875 374.5322570800781 C 250.3846435546875 374.2392272949219 246.45550537109375 377.2218017578125 243.05194091796875 380.1051025390625 C 241.67098999023438 381.2784423828125 240.24505615234375 382.5279541015625 239.58370971679688 384.2139892578125 C 238.46353149414062 387.06494140625 239.82672119140625 390.2788391113281 241.55679321289062 392.8011779785156 C 243.16168212890625 395.1429443359375 245.09451293945312 397.24212646484375 247.296142578125 399.03448486328125 C 250.869873046875 401.946044921875 255.8138427734375 404.0408630371094 260.03631591796875 402.19580078125 C 262.3173522949219 401.20306396484375 264.0346374511719 399.1730651855469 265.12664794921875 396.93359375 C 266.2186584472656 394.6941223144531 266.748779296875 392.2269287109375 267.23736572265625 389.7837829589844 C 267.7259521484375 387.34063720703125 268.1537170410156 384.9295349121094 267.6095275878906 382.5590515136719 L 266.0329895019531 381.9158020019531" stroke-width="0.6000000238418579" fill="rgb(218, 166, 20)" opacity="1.0"/>
    <path d="M 264.5426940917969 395.5080261230469 C 257.2602233886719 393.61041259765625 249.81829833984375 397.9757385253906 247.92068481445312 405.2582092285156 C 247.7581787109375 405.8818054199219 247.64013671875 406.5161437988281 247.56741333007812 407.1564636230469 C 247.29153442382812 409.58953857421875 247.73291015625 412.2020263671875 249.2738037109375 414.10357666015625 C 250.5758056640625 415.710693359375 252.51361083984375 416.6583251953125 254.45770263671875 417.36029052734375 C 259.66412353515625 419.2320556640625 265.2767639160156 419.6756591796875 270.71258544921875 418.6448974609375 C 272.1489562988281 418.3701171875 273.60748291015625 417.97332763671875 274.7759094238281 417.088623046875 C 276.73834228515625 415.60455322265625 277.5338134765625 412.9737548828125 277.48040771484375 410.51220703125 C 277.40362548828125 406.8575744628906 275.6965026855469 403.3374938964844 273.1408996582031 400.7226867675781 C 270.5853271484375 398.10791015625 267.23809814453125 396.35028076171875 263.7222900390625 395.3478698730469 L 264.5426940917969 395.5080261230469" stroke-width="0.6000000238418579" fill="rgb(143, 165, 67)" opacity="1.0"/>
    <path d="M 212.9827880859375 380.6929016113281 C 207.05718994140625 387.3775634765625 212.24404907226562 399.8652648925781 221.04254150390625 401.0313720703125 C 229.841064453125 402.1974182128906 237.96426391601562 392.2257385253906 235.65740966796875 383.5929870605469 C 233.35052490234375 374.96026611328125 222.27691650390625 370.2286682128906 214.14361572265625 373.94927978515625 L 212.9827880859375 380.6929016113281" stroke-width="0.6000000238418579" fill="rgb(233, 92, 21)" opacity="1.0"/>
    <path d="M 264.1734313964844 379.637451171875 C 260.73101806640625 382.4479064941406 256.91046142578125 386.1620788574219 257.73583984375 390.54412841796875 C 258.1321716308594 392.2752380371094 259.055908203125 393.8406982421875 260.379638671875 395.0245361328125 C 263.5760803222656 398.04180908203125 268.03668212890625 399.3226013183594 272.346923828125 398.4607849121094 C 276.0013732910156 397.7203674316406 279.1127014160156 395.4801025390625 282.06903076171875 393.2455139160156 C 283.7276611328125 391.987548828125 285.4498596191406 390.5981750488281 286.1332702636719 388.6439208984375 C 287.0228576660156 386.03155517578125 285.80267333984375 383.18359375 284.346923828125 380.8401794433594 C 282.2206726074219 377.4078674316406 279.55291748046875 374.34234619140625 276.4471130371094 371.76251220703125 C 275.3722839355469 370.87322998046875 274.1878356933594 370.0146179199219 272.8116149902344 369.7892761230469 C 271.52130126953125 369.64520263671875 270.2169189453125 369.87969970703125 269.05755615234375 370.4641418457031 C 265.4717712402344 372.1002197265625 262.7842102050781 375.2269287109375 261.7052917480469 379.01776123046875 L 264.1734313964844 379.637451171875" stroke-width="0.6000000238418579" fill="rgb(70, 150, 179)" opacity="1.0"/>
    <path d="M 334.3746032714844 375.90008544921875 C 331.7520446777344 371.89404296875 328.67694091796875 367.5637512207031 324.0106201171875 366.5043640136719 C 318.99725341796875 365.36932373046875 313.8551940917969 368.6079406738281 310.9797058105469 372.8685302734375 C 309.8703308105469 374.5107727050781 308.982421875 376.3940124511719 308.9922180175781 378.3755798339844 C 308.9996643066406 380.00457763671875 309.6079406738281 381.5657653808594 310.2889404296875 383.045166015625 C 312.430908203125 387.7130432128906 315.6814270019531 392.2767028808594 320.511474609375 394.0193176269531 C 325.380615234375 395.772216796875 331.30694580078125 394.0343322753906 334.4372253417969 389.9076232910156 C 337.5674743652344 385.7808837890625 337.7023010253906 379.61419677734375 334.7188720703125 375.37591552734375 L 334.3746032714844 375.90008544921875" stroke-width="0.6000000238418579" fill="rgb(140, 28, 33)" opacity="1.0"/>
    <path d="M 353.0 389.0 C 351.58392333984375 390.0636901855469 350.1221008300781 391.1861267089844 349.2802734375 392.7458190917969 C 348.4384765625 394.30548095703125 348.3993225097656 396.45245361328125 349.6653137207031 397.6923522949219 C 351.23150634765625 399.2193908691406 354.0898132324219 398.56683349609375 355.4014892578125 396.8113708496094 C 356.71319580078125 395.0559387207031 356.7784423828125 392.6479187011719 356.3216247558594 390.5074462890625 C 356.2466125488281 389.8306884765625 355.920654296875 389.2066650390625 355.40802001953125 388.7585144042969 C 354.85986328125 388.3735046386719 353.90057373046875 388.5497131347656 353.7635192871094 389.20880126953125 L 353.0 389.0" stroke-width="0.6000000238418579" fill="rgb(159, 159, 159)" opacity="1.0"/>
    <path d="M 189.0736083984375 399.5843200683594 C 184.11801147460938 400.40875244140625 179.3369140625 402.94903564453125 176.43792724609375 407.0487060546875 C 173.53890991210938 411.1483459472656 172.7862548828125 416.86566162109375 175.14279174804688 421.32342529296875 C 176.81289672851562 424.4730224609375 179.865478515625 426.755859375 183.22210693359375 427.9659423828125 C 186.5787353515625 429.176025390625 190.22412109375 429.39398193359375 193.78302001953125 429.12982177734375 C 195.33172607421875 429.013916015625 196.94781494140625 428.7802734375 198.19061279296875 427.855712890625 C 199.61593627929688 426.79632568359375 200.28927612304688 425.02691650390625 200.8134765625 423.324462890625 C 202.29339599609375 418.5181884765625 203.09310913085938 413.30194091796875 201.64151000976562 408.486328125 C 200.18988037109375 403.67071533203125 196.01626586914062 399.4218444824219 191.00750732421875 399.13153076171875 L 189.0736083984375 399.5843200683594" stroke-width="0.6000000238418579" fill="rgb(159, 159, 159)" opacity="1.0"/>
    <path d="M 356.88665771484375 376.1444091796875 C 352.3653564453125 376.6306457519531 347.36077880859375 377.3669738769531 344.4779968261719 380.8723449707031 C 341.6697082519531 384.2773742675781 341.7937927246094 389.1589660644531 342.14202880859375 393.5609130859375 C 342.2861328125 395.3489074707031 342.46539306640625 397.2171630859375 343.4375305175781 398.7235107421875 C 345.08026123046875 401.2721862792969 348.45074462890625 402.0355529785156 351.4777526855469 402.1042175292969 C 354.28729248046875 402.1690673828125 357.0915832519531 401.8301086425781 359.8047790527344 401.0977783203125 C 364.2107238769531 399.9103088378906 368.7528076171875 397.1496276855469 369.7123107910156 392.6901550292969 C 370.23382568359375 390.2834167480469 369.5959777832031 387.7297668457031 368.4282531738281 385.5573425292969 C 367.260498046875 383.3849182128906 365.5848083496094 381.5322265625 363.90447998046875 379.726806640625 C 362.2241516113281 377.9214172363281 360.5343933105469 376.18341064453125 358.3151550292969 375.249755859375 L 356.88665771484375 376.1444091796875" stroke-width="0.6000000238418579" fill="rgb(218, 166, 20)" opacity="1.0"/>
    <path d="M 365.11077880859375 391.75457763671875 C 357.6471862792969 392.3547668457031 352.0832824707031 398.89178466796875 352.6835021972656 406.3553771972656 C 352.7348937988281 406.9944763183594 352.83154296875 407.629150390625 352.9727783203125 408.25457763671875 C 353.509765625 410.6309814453125 354.7794189453125 412.94122314453125 356.8495178222656 414.22369384765625 C 358.5987854003906 415.3076171875 360.72967529296875 415.56390380859375 362.7860412597656 415.5872802734375 C 368.29052734375 415.6422119140625 373.7093200683594 414.22222900390625 378.4795227050781 411.47491455078125 C 379.73919677734375 410.7466125488281 380.97979736328125 409.8965148925781 381.78814697265625 408.6828918457031 C 383.1463623046875 406.646240234375 383.03289794921875 403.9140625 382.1771240234375 401.61865234375 C 380.9090270996094 398.20989990234375 378.1530456542969 395.4610595703125 374.8961486816406 393.84051513671875 C 371.63922119140625 392.219970703125 367.91900634765625 391.66387939453125 364.2875061035156 391.8725891113281 L 365.11077880859375 391.75457763671875" stroke-width="0.6000000238418579" fill="rgb(143, 165, 67)" opacity="1.0"/>
    <path d="M 359.32989501953125 377.2021179199219 C 354.19317626953125 384.3416748046875 360.52093505859375 396.0556945800781 369.2557373046875 396.3192443847656 C 377.99053955078125 396.582763671875 384.95159912109375 386.0039978027344 381.829833984375 377.77838134765625 C 378.7080993652344 369.55279541015625 367.3887023925781 366.02398681640625 359.79345703125 370.48065185546875 L 359.32989501953125 377.2021179199219" stroke-width="0.6000000238418579" fill="rgb(233, 92, 21)" opacity="1.0"/>
    <path d="M 386.58123779296875 376.66131591796875 C 383.24627685546875 379.67803955078125 379.57550048828125 383.62750244140625 380.63421630859375 388.0137939453125 C 381.12347412109375 389.74298095703125 382.1372375488281 391.2777404785156 383.53570556640625 392.40631103515625 C 386.9207458496094 395.29180908203125 391.494384765625 396.3576354980469 395.8062744140625 395.2657470703125 C 399.4615783691406 394.3302001953125 402.49114990234375 391.90667724609375 405.3643798828125 389.4967956542969 C 406.9761657714844 388.1404724121094 408.64544677734375 386.6480712890625 409.2359619140625 384.6380310058594 C 410.0011291503906 381.95233154296875 408.62200927734375 379.13665771484375 407.03070068359375 376.8429260253906 C 404.7059631347656 373.4831237792969 401.8527526855469 370.52178955078125 398.58172607421875 368.0736999511719 C 397.44989013671875 367.23004150390625 396.2088623046875 366.4230041503906 394.8064880371094 366.26580810546875 C 393.49505615234375 366.18634033203125 392.1888427734375 366.49017333984375 391.047119140625 367.1402587890625 C 387.5071105957031 368.97747802734375 384.95123291015625 372.2751159667969 384.05511474609375 376.1615295410156 L 386.58123779296875 376.66131591796875" stroke-width="0.6000000238418579" fill="rgb(70, 150, 179)" opacity="1.0"/>
    <path d="M 381.2033386230469 400.87701416015625 C 376.82135009765625 403.3616943359375 372.0685729980469 406.29974365234375 370.6431884765625 411.1279296875 C 369.1151428222656 416.31536865234375 372.1703796386719 421.931396484375 376.4507141113281 425.236328125 C 378.1004943847656 426.51123046875 380.0181579589844 427.56988525390625 382.09930419921875 427.6925048828125 C 383.81011962890625 427.7940673828125 385.49005126953125 427.2601318359375 387.0889892578125 426.6444091796875 C 392.13360595703125 424.708740234375 397.1431884765625 421.6021728515625 399.296875 416.64794921875 C 401.4639892578125 411.6533508300781 400.0369873046875 405.3145751953125 395.9142761230469 401.75115966796875 C 391.7915954589844 398.187744140625 385.3261413574219 397.63238525390625 380.6761169433594 400.48040771484375 L 381.2033386230469 400.87701416015625" stroke-width="0.6000000238418579" fill="rgb(140, 28, 33)" opacity="1.0"/>
    <path d="M 398.75811767578125 391.76141357421875 C 397.39532470703125 392.8980407714844 395.98980712890625 394.0958251953125 395.2269592285156 395.6994934082031 C 394.464111328125 397.3031311035156 394.5344543457031 399.4535827636719 395.86456298828125 400.6297607421875 C 397.5096740722656 402.07794189453125 400.3366394042969 401.27911376953125 401.5596923828125 399.45556640625 C 402.78271484375 397.6320495605469 402.7251892089844 395.21905517578125 402.1589050292969 393.1004638671875 C 402.0492858886719 392.42706298828125 401.6912841796875 391.8192443847656 401.15545654296875 391.3969421386719 C 400.5872802734375 391.0396423339844 399.6363220214844 391.264892578125 399.5328063964844 391.9314270019531 L 398.75811767578125 391.76141357421875" stroke-width="0.6000000238418579" fill="rgb(159, 159, 159)" opacity="1.0"/>
    <path d="M 420.207275390625 377.61224365234375 C 417.75518798828125 381.62255859375 416.62371826171875 386.56036376953125 417.74798583984375 391.1219482421875 C 418.872314453125 395.68353271484375 422.4554443359375 399.71771240234375 427.052001953125 400.7811279296875 C 430.302734375 401.5288391113281 433.78717041015625 400.7677917480469 436.69903564453125 399.1346435546875 C 439.61090087890625 397.50152587890625 441.997802734375 395.0564270019531 443.99072265625 392.37725830078125 C 444.8572998046875 391.2108154296875 445.681884765625 389.924560546875 445.7890625 388.4791564941406 C 445.9127197265625 386.8221130371094 445.073486328125 385.2620544433594 444.19036865234375 383.8485412597656 C 441.697021484375 379.85791015625 438.4971923828125 376.0973815917969 434.2017822265625 374.1746826171875 C 429.90631103515625 372.25201416015625 424.3446044921875 372.60186767578125 421.0714111328125 375.9670104980469 L 420.207275390625 377.61224365234375" stroke-width="0.6000000238418579" fill="rgb(159, 159, 159)" opacity="1.0"/>
    <path d="M 417.22430419921875 397.5783996582031 C 412.91748046875 399.88739013671875 408.2303466796875 402.6405334472656 406.7739562988281 407.2951354980469 C 405.3512268066406 411.81976318359375 407.4449462890625 416.631591796875 409.5683288574219 420.8751220703125 C 410.4334411621094 422.5977783203125 411.365966796875 424.3861083984375 412.942138671875 425.4940185546875 C 415.6068115234375 427.369384765625 419.271728515625 426.7694091796875 422.314208984375 425.61614990234375 C 425.1385498046875 424.546875 427.79473876953125 423.0775146484375 430.201416015625 421.253173828125 C 434.1102294921875 418.29229736328125 437.51983642578125 413.70965576171875 436.6756591796875 408.8810119628906 C 436.2237548828125 406.2735290527344 434.557861328125 403.98760986328125 432.51806640625 402.2952575683594 C 430.47833251953125 400.6029052734375 428.06170654296875 399.4339904785156 425.6595458984375 398.31402587890625 C 423.25738525390625 397.194091796875 420.873046875 396.14508056640625 418.2860107421875 396.11083984375 L 417.22430419921875 397.5783996582031" stroke-width="0.6000000238418579" fill="rgb(218, 166, 20)" opacity="1.0"/>
    <path d="M 145.91964721679688 237.8546142578125 C 139.0699920654297 241.87823486328125 136.77902221679688 250.6927490234375 140.80264282226562 257.54241943359375 C 141.1471710205078 258.12896728515625 141.53289794921875 258.6903076171875 141.95687866210938 259.2222900390625 C 143.5683135986328 261.2432861328125 145.84877014160156 262.8624267578125 148.41842651367188 263.1300354003906 C 150.58993530273438 263.35638427734375 152.74325561523438 262.61602783203125 154.7177276611328 261.6876220703125 C 159.99945068359375 259.1953125 164.51751708984375 255.334228515625 167.80255126953125 250.5054931640625 C 168.66876220703125 249.2276611328125 169.46041870117188 247.84234619140625 169.6712646484375 246.30975341796875 C 170.02670288085938 243.73699951171875 168.65521240234375 241.180419921875 166.77685546875 239.38409423828125 C 163.99005126953125 236.71527099609375 160.0875244140625 235.36447143554688 156.22821044921875 235.32269287109375 C 152.3689422607422 235.2808837890625 148.55935668945312 236.46975708007812 145.18804931640625 238.347900390625 L 145.91964721679688 237.8546142578125" stroke-width="0.6000000238418579" fill="rgb(143, 165, 67)" opacity="1.0"/>
    <path d="M 157.3167724609375 271.6664123535156 C 152.24453735351562 279.2368469238281 159.20166015625 291.1478576660156 168.25552368164062 291.1188659667969 C 177.30938720703125 291.08984375 184.15185546875 279.8951110839844 180.63504028320312 271.48553466796875 C 177.11822509765625 263.075927734375 165.27520751953125 259.8131103515625 157.56451416015625 264.6904296875 L 157.3167724609375 271.6664123535156" stroke-width="0.6000000238418579" fill="rgb(233, 92, 21)" opacity="1.0"/>
    <path d="M 154.5122833251953 323.4043884277344 C 150.74853515625 325.8258361816406 146.50379943847656 329.1086730957031 146.83218383789062 333.5872802734375 C 147.03224182128906 335.364501953125 147.77882385253906 337.035888671875 148.96902465820312 338.37078857421875 C 151.82498168945312 341.7529296875 156.14306640625 343.541015625 160.55401611328125 343.1679992675781 C 164.29486083984375 342.8420104980469 167.66259765625 340.9535217285156 170.87457275390625 339.0531005859375 C 172.6771240234375 337.9826354980469 174.55816650390625 336.78790283203125 175.46392822265625 334.9099426269531 C 176.65066528320312 332.39691162109375 175.7530517578125 329.4085388183594 174.5623779296875 326.8983154296875 C 172.824462890625 323.22235107421875 170.50299072265625 319.8519592285156 167.68804931640625 316.9178161621094 C 166.7135009765625 315.9059143066406 165.62576293945312 314.9122619628906 164.27423095703125 314.530517578125 C 162.99942016601562 314.2398681640625 161.66754150390625 314.326416015625 160.44110107421875 314.7796325683594 C 156.667236328125 316.0096435546875 153.62290954589844 318.833251953125 152.11289978027344 322.50408935546875 L 154.5122833251953 323.4043884277344" stroke-width="0.6000000238418579" fill="rgb(70, 150, 179)" opacity="1.0"/>
    <path d="M 131.75335693359375 293.7265625 C 128.46612548828125 289.6904602050781 124.65301513671875 285.35479736328125 119.48800659179688 284.7351989746094 C 113.939208984375 284.07293701171875 108.74417114257812 288.154296875 106.11514282226562 293.0852966308594 C 105.1007080078125 294.9860534667969 104.35285949707031 297.1224365234375 104.5867919921875 299.2640075683594 C 104.7784423828125 301.0245666503906 105.61212158203125 302.6440734863281 106.51522827148438 304.1669921875 C 109.35737609863281 308.9728698730469 113.38645935058594 313.5411376953125 118.80548095703125 314.88104248046875 C 124.26797485351562 316.2276611328125 130.48016357421875 313.6805725097656 133.39976501464844 308.8656005859375 C 136.3193817138672 304.0506591796875 135.77015686035156 297.3675231933594 132.06651306152344 293.1210021972656 L 131.75335693359375 293.7265625" stroke-width="0.6000000238418579" fill="rgb(140, 28, 33)" opacity="1.0"/>
    <path d="M 141.67495727539062 266.3426513671875 C 140.09011840820312 267.1772155761719 138.45022583007812 268.0630798339844 137.3590850830078 269.4851379394531 C 136.26795959472656 270.9071960449219 135.88392639160156 273.04461669921875 136.9488067626953 274.4860534667969 C 138.2672576904297 276.26239013671875 141.22607421875 276.07000732421875 142.8177947998047 274.5279846191406 C 144.40953063964844 272.9859313964844 144.86155700683594 270.5920715332031 144.7493438720703 268.3814697265625 C 144.78317260742188 267.6936950683594 144.55795288085938 267.01824951171875 144.1181182861328 266.4884338378906 C 143.6326446533203 266.01593017578125 142.64649963378906 266.0377502441406 142.4037628173828 266.6737976074219 L 141.67495727539062 266.3426513671875" stroke-width="0.6000000238418579" fill="rgb(159, 159, 159)" opacity="1.0"/>
    <path d="M 155.0650177001953 287.4693603515625 C 151.81253051757812 291.0159606933594 149.70433044433594 295.7541809082031 149.93641662597656 300.5582580566406 C 150.16851806640625 305.3623352050781 152.9747314453125 310.1202697753906 157.38351440429688 312.09295654296875 C 160.5023193359375 313.48370361328125 164.15274047851562 313.4046325683594 167.39947509765625 312.33673095703125 C 170.64620971679688 311.26885986328125 173.52529907226562 309.2819519042969 176.05462646484375 306.98236083984375 C 177.15472412109375 305.98095703125 178.2362060546875 304.8509521484375 178.62826538085938 303.4198913574219 C 179.0784912109375 301.7794189453125 178.54229736328125 300.0469970703125 177.93310546875 298.453125 C 176.2132568359375 293.953369140625 173.73828125 289.5457458496094 169.80108642578125 286.7690124511719 C 165.8638916015625 283.9922790527344 160.2073974609375 283.24957275390625 156.25689697265625 285.9864501953125 L 155.0650177001953 287.4693603515625" stroke-width="0.6000000238418579" fill="rgb(159, 159, 159)" opacity="1.0"/>
    <path d="M 132.52247619628906 346.0650939941406 C 129.3016357421875 342.3307189941406 125.55975341796875 338.3193054199219 120.6551513671875 337.907958984375 C 115.88595581054688 337.50115966796875 111.60687255859375 340.6209716796875 107.89395141601562 343.6451110839844 C 106.38743591308594 344.8758239746094 104.83100891113281 346.1873779296875 104.08624267578125 347.98333740234375 C 102.82479858398438 351.02008056640625 104.2213134765625 354.4978942871094 106.02590942382812 357.24102783203125 C 107.69992065429688 359.7878112792969 109.73094177246094 362.08099365234375 112.05680847167969 364.0504150390625 C 115.83221435546875 367.24957275390625 121.09523010253906 369.6004943847656 125.66558837890625 367.70770263671875 C 128.13446044921875 366.6894836425781 130.01976013183594 364.5462646484375 131.23828125 362.16522216796875 C 132.456787109375 359.7842102050781 133.07691955566406 357.1470947265625 133.65199279785156 354.5349426269531 C 134.22708129882812 351.92279052734375 134.7362060546875 349.3437805175781 134.20126342773438 346.7882080078125 L 132.52247619628906 346.0650939941406" stroke-width="0.6000000238418579" fill="rgb(218, 166, 20)" opacity="1.0"/>
    <path d="M 158.08224487304688 339.2838134765625 C 151.62107849121094 344.05316162109375 150.2495880126953 353.1573181152344 155.01895141601562 359.61846923828125 C 155.42733764648438 360.1717529296875 155.87448120117188 360.6953430175781 156.35699462890625 361.1853332519531 C 158.19073486328125 363.046875 160.65460205078125 364.43365478515625 163.26638793945312 364.4310607910156 C 165.4735107421875 364.4290771484375 167.56015014648438 363.45709228515625 169.44708251953125 362.31500244140625 C 174.4937744140625 359.25091552734375 178.62796020507812 354.8914489746094 181.42022705078125 349.689453125 C 182.156005859375 348.31317138671875 182.80548095703125 346.8367614746094 182.85543823242188 345.2735900878906 C 182.94085693359375 342.6494140625 181.291748046875 340.2240905761719 179.21337890625 338.6166687011719 C 176.12939453125 336.22808837890625 172.0631103515625 335.2825622558594 168.17861938476562 335.6485290527344 C 164.29415893554688 336.01446533203125 160.58978271484375 337.6124572753906 157.39886474609375 339.8570861816406 L 158.08224487304688 339.2838134765625" stroke-width="0.6000000238418579" fill="rgb(143, 165, 67)" opacity="1.0"/>
    <path d="M 139.3618927001953 376.83526611328125 C 131.84371948242188 371.3597412109375 119.41802978515625 377.9791564941406 119.0858154296875 387.2140808105469 C 118.75361633300781 396.4490051269531 129.89736938476562 403.874755859375 138.61459350585938 400.6241149902344 C 147.33181762695312 397.37347412109375 151.13270568847656 385.4255065917969 146.4665985107422 377.3666687011719 L 139.3618927001953 376.83526611328125" stroke-width="0.6000000238418579" fill="rgb(233, 92, 21)" opacity="1.0"/>
    <path d="M 171.63021850585938 372.0936584472656 C 168.07003784179688 375.0388488769531 164.122802734375 378.9261779785156 165.01040649414062 383.4766845703125 C 165.43411254882812 385.2738342285156 166.405029296875 386.8952331542969 167.789306640625 388.1171569824219 C 171.1329345703125 391.23272705078125 175.77926635742188 392.53436279296875 180.2548828125 391.6093444824219 C 184.04937744140625 390.81494140625 187.2691650390625 388.4648132324219 190.32785034179688 386.12158203125 C 192.04388427734375 384.8025207519531 193.82513427734375 383.346435546875 194.52252197265625 381.3099670410156 C 195.4298095703125 378.5879211425781 194.14205932617188 375.6351013183594 192.61273193359375 373.2084045410156 C 190.37896728515625 369.6541442871094 187.58468627929688 366.4848937988281 184.33819580078125 363.8235168457031 C 183.2147216796875 362.9061279296875 181.97747802734375 362.0213928222656 180.54510498046875 361.7963562011719 C 179.20257568359375 361.6552734375 177.84799194335938 361.9078369140625 176.64654541015625 362.5233154296875 C 172.92941284179688 364.2484436035156 170.15618896484375 367.5173645019531 169.0599365234375 371.4659729003906 L 171.63021850585938 372.0936584472656" stroke-width="0.6000000238418579" fill="rgb(70, 150, 179)" opacity="1.0"/>
  </g>
</svg>
