<?xml version="1.0" ?>
<svg xmlns="http://www.w3.org/2000/svg" version="1.1" width="600" height="600">
  <defs/>
  <g>
    <path d="M 354.019775390625 332.8327941894531 C 354.90740966796875 333.1079406738281 355.8687744140625 332.08099365234375 355.6021423339844 331.197021484375 C 355.3355407714844 330.3130187988281 354.0421142578125 329.970458984375 353.3227233886719 330.5591735839844 C 352.6033020019531 331.14788818359375 352.6294860839844 332.4003601074219 353.330810546875 333.0118408203125 L 354.019775390625 332.8327941894531" stroke-width="0.6000000238418579" fill="rgb(233, 92, 21)" opacity="1.0"/>
    <path d="M 101.35591125488281 197.56216430664062 C 101.61981201171875 197.4193115234375 101.92025756835938 197.2213134765625 101.92095947265625 196.920166015625 C 101.91659545898438 196.80035400390625 101.8751220703125 196.684814453125 101.80230712890625 196.58953857421875 C 101.62847900390625 196.34893798828125 101.34881591796875 196.20751953125 101.052001953125 196.21014404296875 C 100.80021667480469 196.2130126953125 100.56549072265625 196.32220458984375 100.34109497070312 196.43301391601562 C 100.21516418457031 196.4954833984375 100.08334350585938 196.56582641601562 100.01327514648438 196.68682861328125 C 99.92120361328125 196.84881591796875 99.96609497070312 197.05319213867188 100.03298950195312 197.22705078125 C 100.13058471679688 197.48162841796875 100.26873779296875 197.71875 100.44210815429688 197.92916870117188 C 100.50213623046875 198.00177001953125 100.56985473632812 198.07373046875 100.65827941894531 198.1060791015625 C 100.74203491210938 198.1319580078125 100.83154296875 198.1329345703125 100.91583251953125 198.10882568359375 C 101.17439270019531 198.04568481445312 101.39224243164062 197.872314453125 101.51177978515625 197.634521484375 L 101.35591125488281 197.56216430664062" stroke-width="0.6000000238418579" fill="rgb(70, 150, 179)" opacity="1.0"/>
    <path d="M 463.96417236328125 434.168212890625 C 464.3594970703125 434.64599609375 464.81781005859375 435.1590576171875 465.4337158203125 435.2281494140625 C 466.095458984375 435.3018798828125 466.7105712890625 434.8109130859375 467.019287109375 434.220947265625 C 467.138427734375 433.99359130859375 467.22552490234375 433.7384033203125 467.1956787109375 433.4833984375 C 467.1712646484375 433.27386474609375 467.0704345703125 433.0816650390625 466.96142578125 432.901123046875 C 466.61834716796875 432.3311767578125 466.1341552734375 431.79058837890625 465.4873046875 431.635986328125 C 464.835205078125 431.4805908203125 464.09747314453125 431.78973388671875 463.7540283203125 432.3660888671875 C 463.41064453125 432.9423828125 463.4822998046875 433.7381591796875 463.92742919921875 434.24066162109375 L 463.96417236328125 434.168212890625" stroke-width="0.6000000238418579" fill="rgb(140, 28, 33)" opacity="1.0"/>
    <path d="M 94.30255126953125 194.02212524414062 C 94.45295715332031 193.93267822265625 94.60845947265625 193.83795166015625 94.70773315429688 193.6937255859375 C 94.80697631835938 193.54946899414062 94.83363342285156 193.3389892578125 94.72245788574219 193.20376586914062 C 94.5848388671875 193.037109375 94.29714965820312 193.07086181640625 94.14967346191406 193.2293701171875 C 94.00218200683594 193.3878173828125 93.97018432617188 193.6236572265625 93.9923095703125 193.8387451171875 C 93.99249267578125 193.90603637695312 94.01788330078125 193.97079467773438 94.0634765625 194.020263671875 C 94.11322021484375 194.06390380859375 94.20932006835938 194.0567626953125 94.22978210449219 193.99349975585938 L 94.30255126953125 194.02212524414062" stroke-width="0.6000000238418579" fill="rgb(159, 159, 159)" opacity="1.0"/>
    <path d="M 380.4731140136719 303.3309326171875 C 381.0270080566406 303.1037902832031 381.51513671875 302.6819152832031 381.7432861328125 302.1287536621094 C 381.971435546875 301.57562255859375 381.9073181152344 300.89141845703125 381.5153503417969 300.43597412109375 C 381.23785400390625 300.11431884765625 380.8226623535156 299.9300231933594 380.400634765625 299.87841796875 C 379.97857666015625 299.8267822265625 379.54925537109375 299.8981018066406 379.1427917480469 300.02313232421875 C 378.9659423828125 300.07763671875 378.78436279296875 300.14764404296875 378.66448974609375 300.2879943847656 C 378.5269775390625 300.4488525390625 378.4956359863281 300.6722717285156 378.4798583984375 300.88397216796875 C 378.4353332519531 301.4815979003906 378.4806823730469 302.10882568359375 378.7769775390625 302.62982177734375 C 379.07330322265625 303.1508483886719 379.6708068847656 303.5338439941406 380.26043701171875 303.434814453125 L 380.4731140136719 303.3309326171875" stroke-width="0.6000000238418579" fill="rgb(159, 159, 159)" opacity="1.0"/>
    <path d="M 104.26593017578125 432.791748046875 C 104.68751525878906 432.522705078125 105.14448547363281 432.2054443359375 105.25701904296875 431.7191162109375 C 105.36711120605469 431.246337890625 105.11613464355469 430.7716064453125 104.86654663085938 430.35498046875 C 104.764892578125 430.1859130859375 104.65585327148438 430.0106201171875 104.48641967773438 429.9097900390625 C 104.199951171875 429.73907470703125 103.83059692382812 429.8287353515625 103.52908325195312 429.969970703125 C 103.2491455078125 430.10107421875 102.98948669433594 430.2716064453125 102.75802612304688 430.4764404296875 C 102.38211059570312 430.808837890625 102.0697021484375 431.302978515625 102.19329833984375 431.7891845703125 C 102.25962829589844 432.0517578125 102.44735717773438 432.2720947265625 102.66864013671875 432.42901611328125 C 102.88992309570312 432.58587646484375 103.14559936523438 432.6864013671875 103.3994140625 432.7821044921875 C 103.65322875976562 432.87774658203125 103.90469360351562 432.96630859375 104.16896057128906 432.94970703125 L 104.26593017578125 432.791748046875" stroke-width="0.6000000238418579" fill="rgb(218, 166, 20)" opacity="1.0"/>
    <path d="M 99.45588684082031 140.9488983154297 C 100.06365966796875 141.14382934570312 100.71438598632812 140.8091583251953 100.90933227539062 140.2013702392578 C 100.926025390625 140.14932250976562 100.93899536132812 140.09616088867188 100.94816589355469 140.0422821044922 C 100.98297119140625 139.83753967285156 100.95787048339844 139.61422729492188 100.83633422851562 139.44595336914062 C 100.73361206054688 139.30374145507812 100.573974609375 139.21438598632812 100.41265869140625 139.1457977294922 C 99.98056030273438 138.9628143310547 99.50735473632812 138.89886474609375 99.04217529296875 138.96058654785156 C 98.91925048828125 138.97711181640625 98.79388427734375 139.0038604736328 98.69076538085938 139.0732879638672 C 98.51760864257812 139.18972778320312 98.4378662109375 139.4087677001953 98.43081665039062 139.6174774169922 C 98.42015075683594 139.9273223876953 98.54815673828125 140.2334442138672 98.75228881835938 140.46688842773438 C 98.95640563964844 140.70033264160156 99.23159790039062 140.86489868164062 99.52459716796875 140.96632385253906 L 99.45588684082031 140.9488983154297" stroke-width="0.6000000238418579" fill="rgb(143, 165, 67)" opacity="1.0"/>
    <path d="M 457.6822509765625 337.7919006347656 C 458.12823486328125 337.9775085449219 458.67578125 337.49285888671875 458.580810546875 337.0224304199219 C 458.48583984375 336.5519714355469 457.83319091796875 336.3117370605469 457.4322509765625 336.58135986328125 C 457.03125 336.8509826660156 456.98388671875 337.50042724609375 457.3170166015625 337.85101318359375 L 457.6822509765625 337.7919006347656" stroke-width="0.6000000238418579" fill="rgb(233, 92, 21)" opacity="1.0"/>
    <path d="M 109.98446655273438 214.27078247070312 C 110.24789428710938 214.177978515625 110.55290222167969 214.03973388671875 110.59747314453125 213.7630615234375 C 110.61091613769531 213.65228271484375 110.58966064453125 213.5400390625 110.53660583496094 213.44183349609375 C 110.41189575195312 213.19537353515625 110.17546081542969 213.02459716796875 109.90225219726562 212.98370361328125 C 109.67041015625 212.94964599609375 109.438720703125 213.01580810546875 109.21632385253906 213.08493041992188 C 109.09146118164062 213.12396240234375 108.96002197265625 213.16943359375 108.87799072265625 213.27041625976562 C 108.76972961425781 213.40591430664062 108.78118896484375 213.60028076171875 108.81735229492188 213.76986694335938 C 108.86993408203125 214.01809692382812 108.96234130859375 214.25619506835938 109.09101867675781 214.47491455078125 C 109.1356201171875 214.55035400390625 109.18734741210938 214.62637329101562 109.263916015625 214.66900634765625 C 109.33714294433594 214.70501708984375 109.41925048828125 214.71893310546875 109.50025939941406 214.7091064453125 C 109.74713134765625 214.68878173828125 109.97264099121094 214.5611572265625 110.11720275878906 214.3599853515625 L 109.98446655273438 214.27078247070312" stroke-width="0.6000000238418579" fill="rgb(70, 150, 179)" opacity="1.0"/>
    <path d="M 102.75596618652344 77.63917541503906 C 103.07412719726562 77.90216064453125 103.43783569335938 78.1802978515625 103.84913635253906 78.14846801757812 C 104.29092407226562 78.11404418945312 104.63174438476562 77.71615600585938 104.75982666015625 77.29194641113281 C 104.80929565429688 77.12840270996094 104.8343505859375 76.95066833496094 104.78298950195312 76.78775024414062 C 104.74081420898438 76.65377807617188 104.65090942382812 76.54074096679688 104.55706787109375 76.43629455566406 C 104.2615966796875 76.10655212402344 103.87750244140625 75.81367492675781 103.435302734375 75.79339599609375 C 102.98960876464844 75.77328491210938 102.54592895507812 76.06759643554688 102.3934326171875 76.48727416992188 C 102.24095153808594 76.906982421875 102.38717651367188 77.41822814941406 102.74099731445312 77.69113159179688 L 102.75596618652344 77.63917541503906" stroke-width="0.6000000238418579" fill="rgb(140, 28, 33)" opacity="1.0"/>
    <path d="M 98.53080749511719 431.1759033203125 C 98.6568603515625 431.16375732421875 98.78790283203125 431.149658203125 98.89736938476562 431.0858154296875 C 99.00686645507812 431.02197265625 99.08921813964844 430.8924560546875 99.05813598632812 430.76959228515625 C 99.0194091796875 430.6180419921875 98.82064819335938 430.5513916015625 98.67520141601562 430.60968017578125 C 98.52973937988281 430.66796875 98.43606567382812 430.8125 98.38421630859375 430.960205078125 C 98.36358642578125 431.0042724609375 98.3602294921875 431.0545654296875 98.37483215332031 431.1009521484375 C 98.39395141601562 431.1448974609375 98.45907592773438 431.16986083984375 98.49197387695312 431.134765625 L 98.53080749511719 431.1759033203125" stroke-width="0.6000000238418579" fill="rgb(159, 159, 159)" opacity="1.0"/>
    <path d="M 464.7435302734375 62.54353332519531 C 464.97454833984375 62.34776306152344 465.1435546875 62.068572998046875 465.1669921875 61.76679992675781 C 465.1904296875 61.46504211425781 465.052734375 61.145843505859375 464.79302978515625 60.987884521484375 C 464.6092529296875 60.87644958496094 464.3807373046875 60.85258483886719 464.16961669921875 60.89363098144531 C 463.95849609375 60.9346923828125 463.7630615234375 61.0360107421875 463.5870361328125 61.159637451171875 C 463.5103759765625 61.213470458984375 463.4339599609375 61.27549743652344 463.398193359375 61.36175537109375 C 463.357177734375 61.46061706542969 463.376953125 61.572998046875 463.4024658203125 61.67732238769531 C 463.47430419921875 61.971832275390625 463.593994140625 62.26654052734375 463.81793212890625 62.470977783203125 C 464.0418701171875 62.6754150390625 464.38916015625 62.76641845703125 464.6573486328125 62.626708984375 L 464.7435302734375 62.54353332519531" stroke-width="0.6000000238418579" fill="rgb(159, 159, 159)" opacity="1.0"/>
    <path d="M 93.86398315429688 102.82835388183594 C 94.25653076171875 102.86532592773438 94.69448852539062 102.88941955566406 95.0001220703125 102.64151000976562 C 95.29768371582031 102.40083312988281 95.37167358398438 101.98391723632812 95.41830444335938 101.60389709472656 C 95.43701171875 101.44949340820312 95.45413208007812 101.28765869140625 95.39761352539062 101.142822265625 C 95.30218505859375 100.89784240722656 95.02902221679688 100.77462768554688 94.77304077148438 100.71636962890625 C 94.53544616699219 100.6622314453125 94.29132080078125 100.6424560546875 94.04811096191406 100.65771484375 C 93.6531982421875 100.68231201171875 93.21949768066406 100.83822631835938 93.06076049804688 101.20050048828125 C 92.97477722167969 101.39595031738281 92.9847412109375 101.62396240234375 93.04635620117188 101.82876586914062 C 93.10794067382812 102.03355407714844 93.21823120117188 102.219970703125 93.32974243164062 102.4024658203125 C 93.44125366210938 102.5849609375 93.55471801757812 102.76187133789062 93.72711181640625 102.879638671875 L 93.86398315429688 102.82835388183594" stroke-width="0.6000000238418579" fill="rgb(218, 166, 20)" opacity="1.0"/>
    <path d="M 114.04742431640625 129.90711975097656 C 114.60336303710938 129.78709411621094 114.95674133300781 129.23912048339844 114.83671569824219 128.6831817626953 C 114.82644653320312 128.63558959960938 114.81278991699219 128.58876037597656 114.7958984375 128.5430908203125 C 114.73162841796875 128.3695526123047 114.61286926269531 128.20834350585938 114.44415283203125 128.13253784179688 C 114.30157470703125 128.06846618652344 114.13856506347656 128.07052612304688 113.98350524902344 128.08938598632812 C 113.56851196289062 128.1404571533203 113.17474365234375 128.30169677734375 112.8431396484375 128.55638122558594 C 112.75559997558594 128.62384033203125 112.67071533203125 128.70028686523438 112.62200927734375 128.79977416992188 C 112.54017639160156 128.96673583984375 112.57611083984375 129.1713104248047 112.66355895996094 129.33555603027344 C 112.793212890625 129.57948303222656 113.02828979492188 129.75881958007812 113.28976440429688 129.84817504882812 C 113.55122375488281 129.93753051757812 113.8369140625 129.94210815429688 114.10823059082031 129.88998413085938 L 114.04742431640625 129.90711975097656" stroke-width="0.6000000238418579" fill="rgb(143, 165, 67)" opacity="1.0"/>
    <path d="M 387.87127685546875 297.9096984863281 C 388.35638427734375 298.1724548339844 389.03485107421875 297.68548583984375 388.981689453125 297.1399230957031 C 388.9285583496094 296.5943603515625 388.2149353027344 296.2454528808594 387.7279968261719 296.50518798828125 C 387.2410583496094 296.764892578125 387.11163330078125 297.4972839355469 387.4493713378906 297.9343566894531 L 387.87127685546875 297.9096984863281" stroke-width="0.6000000238418579" fill="rgb(233, 92, 21)" opacity="1.0"/>
    <path d="M 119.57258605957031 108.42384338378906 C 119.84915161132812 108.27151489257812 120.1636962890625 108.06086730957031 120.16213989257812 107.74404907226562 C 120.15660095214844 107.61801147460938 120.11209106445312 107.49676513671875 120.03472900390625 107.3970947265625 C 119.8499755859375 107.14529418945312 119.55465698242188 106.99867248535156 119.24240112304688 107.00372314453125 C 118.97752380371094 107.0086669921875 118.73141479492188 107.12539672851562 118.49618530273438 107.24369812011719 C 118.36416625976562 107.31037902832031 118.22601318359375 107.38542175292969 118.15322875976562 107.51324462890625 C 118.0576171875 107.68441772460938 118.10641479492188 107.89907836914062 118.17816162109375 108.08148193359375 C 118.28280639648438 108.34857177734375 118.42999267578125 108.59696960449219 118.614013671875 108.81703186035156 C 118.677734375 108.8929443359375 118.74951171875 108.96810913085938 118.84280395507812 109.00148010253906 C 118.93113708496094 109.028076171875 119.02529907226562 109.02838134765625 119.11380004882812 109.00238037109375 C 119.38534545898438 108.9339599609375 119.61318969726562 108.74986267089844 119.73713684082031 108.49874877929688 L 119.57258605957031 108.42384338378906" stroke-width="0.6000000238418579" fill="rgb(70, 150, 179)" opacity="1.0"/>
    <path d="M 432.92578125 74.288330078125 C 433.2432861328125 74.6085205078125 433.6087646484375 74.9500732421875 434.059326171875 74.95980834960938 C 434.5433349609375 74.96995544433594 434.9566650390625 74.57412719726562 435.1416015625 74.12673950195312 C 435.2130126953125 73.95428466796875 435.2593994140625 73.76376342773438 435.22119140625 73.58110046386719 C 435.189697265625 73.43093872070312 435.1041259765625 73.29835510253906 435.013427734375 73.1746826171875 C 434.72772216796875 72.78437805175781 434.3416748046875 72.42459106445312 433.8631591796875 72.35491943359375 C 433.3807373046875 72.28501892089844 432.86669921875 72.55717468261719 432.65576171875 72.99700927734375 C 432.4447021484375 73.43684387207031 432.54864501953125 74.00839233398438 432.90386962890625 74.34320068359375 L 432.92578125 74.288330078125" stroke-width="0.6000000238418579" fill="rgb(140, 28, 33)" opacity="1.0"/>
    <path d="M 120.0 419.0 C 120.14321899414062 418.8924560546875 120.29107666015625 418.7789306640625 120.376220703125 418.62109375 C 120.46136474609375 418.46337890625 120.46533203125 418.2462158203125 120.3372802734375 418.120849609375 C 120.17886352539062 417.96636962890625 119.8897705078125 418.0323486328125 119.75711059570312 418.2099609375 C 119.62443542480469 418.387451171875 119.61782836914062 418.63104248046875 119.66403198242188 418.8475341796875 C 119.671630859375 418.916015625 119.70458984375 418.9791259765625 119.75643920898438 419.0244140625 C 119.8118896484375 419.0633544921875 119.90890502929688 419.0455322265625 119.92277526855469 418.9788818359375 L 120.0 419.0" stroke-width="0.6000000238418579" fill="rgb(159, 159, 159)" opacity="1.0"/>
    <path d="M 448.30224609375 424.48681640625 C 448.5640869140625 424.2080078125 448.73614501953125 423.8333740234375 448.7222900390625 423.4512939453125 C 448.7083740234375 423.0692138671875 448.48974609375 422.6883544921875 448.1412353515625 422.52740478515625 C 447.89459228515625 422.4139404296875 447.6043701171875 422.416748046875 447.3453369140625 422.49853515625 C 447.086181640625 422.58038330078125 446.85546875 422.735595703125 446.65228271484375 422.916015625 C 446.56390380859375 422.99456787109375 446.47686767578125 423.0833740234375 446.4443359375 423.19677734375 C 446.406982421875 423.32672119140625 446.447998046875 423.4649658203125 446.49493408203125 423.5921630859375 C 446.62738037109375 423.95147705078125 446.8199462890625 424.30419921875 447.1302490234375 424.528564453125 C 447.44061279296875 424.75299072265625 447.8895263671875 424.8173828125 448.20611572265625 424.60357666015625 L 448.30224609375 424.48681640625" stroke-width="0.6000000238418579" fill="rgb(159, 159, 159)" opacity="1.0"/>
    <path d="M 446.1356201171875 283.4994201660156 C 446.42041015625 283.2974853515625 446.728271484375 283.0606689453125 446.7901611328125 282.7177429199219 C 446.850830078125 282.38433837890625 446.65966796875 282.0617980957031 446.471435546875 281.7798156738281 C 446.394775390625 281.6653747558594 446.3128662109375 281.546875 446.1912841796875 281.4823303222656 C 445.9857177734375 281.373046875 445.731201171875 281.4481201171875 445.5257568359375 281.556884765625 C 445.3349609375 281.6578063964844 445.15972900390625 281.7855529785156 445.00531005859375 281.9362487792969 C 444.7545166015625 282.1808776855469 444.553466796875 282.5360412597656 444.65625 282.8708801269531 C 444.71142578125 283.0517272949219 444.849853515625 283.198974609375 445.00946044921875 283.30084228515625 C 445.1690673828125 283.4027099609375 445.350830078125 283.464111328125 445.531005859375 283.5221862792969 C 445.7113037109375 283.58026123046875 445.8896484375 283.6334533691406 446.0733642578125 283.6128845214844 L 446.1356201171875 283.4994201660156" stroke-width="0.6000000238418579" fill="rgb(218, 166, 20)" opacity="1.0"/>
    <path d="M 428.06036376953125 373.93365478515625 C 428.53399658203125 374.3991394042969 429.2952880859375 374.39251708984375 429.7607421875 373.91888427734375 C 429.8006591796875 373.8783264160156 429.8375244140625 373.8349914550781 429.871337890625 373.7892150878906 C 429.9993896484375 373.615234375 430.08056640625 373.3959655761719 430.04632568359375 373.1827392578125 C 430.0174560546875 373.0025329589844 429.910888671875 372.84478759765625 429.79296875 372.70556640625 C 429.47705078125 372.3334045410156 429.06719970703125 372.0525817871094 428.6060791015625 371.892333984375 C 428.48406982421875 371.8501892089844 428.35504150390625 371.8163757324219 428.22674560546875 371.8326721191406 C 428.0113525390625 371.8598937988281 427.83477783203125 372.0261535644531 427.7305908203125 372.216796875 C 427.57574462890625 372.499755859375 427.551513671875 372.8441162109375 427.6319580078125 373.15655517578125 C 427.71246337890625 373.468994140625 427.8912353515625 373.75067138671875 428.1160888671875 373.98199462890625 L 428.06036376953125 373.93365478515625" stroke-width="0.6000000238418579" fill="rgb(143, 165, 67)" opacity="1.0"/>
    <path d="M 447.06494140625 359.2460632324219 C 447.49102783203125 358.8450622558594 447.22650146484375 357.99981689453125 446.65948486328125 357.8717346191406 C 446.0924072265625 357.74365234375 445.50360107421875 358.3460693359375 445.60302734375 358.9228210449219 C 445.7025146484375 359.49957275390625 446.3968505859375 359.8736877441406 446.9493408203125 359.6790771484375 L 447.06494140625 359.2460632324219" stroke-width="0.6000000238418579" fill="rgb(233, 92, 21)" opacity="1.0"/>
    <path d="M 448.8880615234375 87.21575927734375 C 449.27777099609375 86.97067260742188 449.7177734375 86.63749694824219 449.688720703125 86.176513671875 C 449.6700439453125 85.99349975585938 449.59503173828125 85.82080078125 449.4739990234375 85.6822509765625 C 449.183837890625 85.33137512207031 448.7415771484375 85.14291381835938 448.28753662109375 85.17662048339844 C 447.9024658203125 85.20620727539062 447.5540771484375 85.39688110351562 447.2216796875 85.58895874023438 C 447.03515625 85.69717407226562 446.8404541015625 85.81806945800781 446.7452392578125 86.01026916503906 C 446.62060546875 86.26748657226562 446.709716796875 86.5758056640625 446.82958984375 86.83523559570312 C 447.00439453125 87.21514892578125 447.2396240234375 87.56427001953125 447.526123046875 87.8690185546875 C 447.625244140625 87.97412109375 447.736083984375 88.07748413085938 447.87469482421875 88.1181640625 C 448.0054931640625 88.1494140625 448.142578125 88.14190673828125 448.2691650390625 88.09658813476562 C 448.65869140625 87.97406005859375 448.9747314453125 87.68684387207031 449.1339111328125 87.31088256835938 L 448.8880615234375 87.21575927734375" stroke-width="0.6000000238418579" fill="rgb(70, 150, 179)" opacity="1.0"/>
    <path d="M 445.773193359375 397.46905517578125 C 446.3671875 396.9648132324219 447.00445556640625 396.3809814453125 447.0814208984375 395.60614013671875 C 447.16363525390625 394.77374267578125 446.53704833984375 394.00872802734375 445.7911376953125 393.63031005859375 C 445.5035400390625 393.4842834472656 445.18157958984375 393.3788757324219 444.86181640625 393.42041015625 C 444.598876953125 393.4544677734375 444.359130859375 393.58416748046875 444.1339111328125 393.72393798828125 C 443.42340087890625 394.1639099121094 442.75201416015625 394.7807922363281 442.5679931640625 395.5958251953125 C 442.38311767578125 396.4173889160156 442.783203125 397.33929443359375 443.5126953125 397.7615661621094 C 444.24212646484375 398.1838073730469 445.2406005859375 398.0812683105469 445.86480712890625 397.5140686035156 L 445.773193359375 397.46905517578125" stroke-width="0.6000000238418579" fill="rgb(140, 28, 33)" opacity="1.0"/>
    <path d="M 116.46189880371094 216.078857421875 C 115.8323974609375 215.9549560546875 115.176025390625 215.8330078125 114.55198669433594 215.98394775390625 C 113.92796325683594 216.1348876953125 113.34010314941406 216.644287109375 113.31268310546875 217.28561401367188 C 113.28060913085938 218.07733154296875 114.14862060546875 218.68927001953125 114.93917846679688 218.61749267578125 C 115.729736328125 218.54574584960938 116.39424133300781 217.98016357421875 116.8602294921875 217.3387451171875 C 117.02438354492188 217.15460205078125 117.113525390625 216.91567993164062 117.110107421875 216.6690673828125 C 117.08108520507812 216.42816162109375 116.80130004882812 216.21240234375 116.59054565429688 216.3350830078125 L 116.46189880371094 216.078857421875" stroke-width="0.6000000238418579" fill="rgb(159, 159, 159)" opacity="1.0"/>
    <path d="M 115.4163818359375 224.81878662109375 C 113.34077453613281 223.73577880859375 110.84889221191406 223.34027099609375 108.62013244628906 224.05300903320312 C 106.391357421875 224.7657470703125 104.50772094726562 226.68252563476562 104.13455200195312 229.00253295898438 C 103.87277221679688 230.64312744140625 104.36863708496094 232.34890747070312 105.27850341796875 233.74072265625 C 106.18836975097656 235.13250732421875 107.48397827148438 236.23602294921875 108.88262939453125 237.1358642578125 C 109.49151611328125 237.527099609375 110.15852355957031 237.89337158203125 110.88038635253906 237.8978271484375 C 111.70797729492188 237.9033203125 112.45484924316406 237.43359375 113.12742614746094 236.947021484375 C 115.02621459960938 235.57327270507812 116.78681945800781 233.856201171875 117.59716796875 231.65679931640625 C 118.40753173828125 229.4573974609375 118.04583740234375 226.70550537109375 116.26310729980469 225.19265747070312 L 115.4163818359375 224.81878662109375" stroke-width="0.6000000238418579" fill="rgb(159, 159, 159)" opacity="1.0"/>
    <path d="M 296.8936462402344 105.45767211914062 C 295.3674621582031 106.97299194335938 293.7366943359375 108.72344970703125 293.7076416015625 110.86970520019531 C 293.6764221191406 112.9569091796875 295.1643981933594 114.72314453125 296.5934753417969 116.24600219726562 C 297.1749267578125 116.86376953125 297.7930908203125 117.50079345703125 298.5971374511719 117.76992797851562 C 299.956787109375 118.22589111328125 301.4270935058594 117.5120849609375 302.5653381347656 116.6431884765625 C 303.6221008300781 115.83709716796875 304.55767822265625 114.88345336914062 305.3433532714844 113.81141662597656 C 306.6197509765625 112.07121276855469 307.4816589355469 109.70974731445312 306.5185546875 107.77931213378906 C 306.0001525878906 106.73637390136719 305.0101623535156 105.981689453125 303.93707275390625 105.52435302734375 C 302.8639831542969 105.0670166015625 301.6977844238281 104.8778076171875 300.5438537597656 104.70745849609375 C 299.389892578125 104.537109375 298.2523498535156 104.39443969726562 297.15692138671875 104.70524597167969 L 296.8936462402344 105.45767211914062" stroke-width="0.6000000238418579" fill="rgb(218, 166, 20)" opacity="1.0"/>
    <path d="M 224.753173828125 123.95256042480469 C 221.620849609375 122.90353393554688 218.23126220703125 124.59234619140625 217.18222045898438 127.72463989257812 C 217.0924072265625 127.99285888671875 217.02169799804688 128.26710510253906 216.970703125 128.5453338623047 C 216.77703857421875 129.60255432128906 216.89208984375 130.7598114013672 217.50994873046875 131.638671875 C 218.031982421875 132.38140869140625 218.85220336914062 132.85443115234375 219.68252563476562 133.22003173828125 C 221.90643310546875 134.19558715820312 224.35101318359375 134.55787658691406 226.7623291015625 134.26927185058594 C 227.3995361328125 134.19192504882812 228.05014038085938 134.0618438720703 228.58831787109375 133.70941162109375 C 229.49212646484375 133.11827087402344 229.91925048828125 131.9900360107422 229.96954345703125 130.91046142578125 C 230.04534912109375 129.30775451660156 229.40313720703125 127.71514892578125 228.3623046875 126.49356079101562 C 227.32147216796875 125.27200317382812 225.90829467773438 124.402099609375 224.398681640625 123.85786437988281 L 224.753173828125 123.95256042480469" stroke-width="0.6000000238418579" fill="rgb(143, 165, 67)" opacity="1.0"/>
    <path d="M 224.6976318359375 99.6087646484375 C 222.38250732421875 102.55926513671875 224.870361328125 107.66218566894531 228.58700561523438 107.92953491210938 C 232.30364990234375 108.19686889648438 235.45709228515625 103.81353759765625 234.27316284179688 100.25372314453125 C 233.0892333984375 96.69393920898438 228.32940673828125 94.98957824707031 225.01446533203125 96.75343322753906 L 224.6976318359375 99.6087646484375" stroke-width="0.6000000238418579" fill="rgb(233, 92, 21)" opacity="1.0"/>
    <path d="M 206.32098388671875 100.53677368164062 C 205.11248779296875 98.99560546875 203.50909423828125 97.27993774414062 201.57110595703125 97.60562133789062 C 200.80487060546875 97.76522827148438 200.10711669921875 98.15866088867188 199.573974609375 98.73165893554688 C 198.216796875 100.11392211914062 197.61370849609375 102.06825256347656 197.9560546875 103.97492980957031 C 198.2506103515625 105.59158325195312 199.21075439453125 106.98193359375 200.16970825195312 108.303955078125 C 200.7095947265625 109.04571533203125 201.30685424804688 109.81658935546875 202.16204833984375 110.13467407226562 C 203.30535888671875 110.54931640625 204.57083129882812 110.036376953125 205.61602783203125 109.41525268554688 C 207.1468505859375 108.50816345214844 208.52069091796875 107.35928344726562 209.68438720703125 106.01315307617188 C 210.0855712890625 105.54728698730469 210.47418212890625 105.0328369140625 210.58538818359375 104.42840576171875 C 210.66006469726562 103.86111450195312 210.56805419921875 103.28433227539062 210.32058715820312 102.76841735839844 C 209.63079833984375 101.17425537109375 208.27642822265625 99.96292114257812 206.61544799804688 99.45463562011719 L 206.32098388671875 100.53677368164062" stroke-width="0.6000000238418579" fill="rgb(70, 150, 179)" opacity="1.0"/>
    <path d="M 262.5616760253906 125.27676391601562 C 260.9520568847656 126.70077514648438 259.2277526855469 128.34677124023438 259.0591125488281 130.4878692626953 C 258.8793640136719 132.78799438476562 260.6505126953125 134.8623046875 262.7288818359375 135.86378479003906 C 263.5300598144531 136.25025939941406 264.4239501953125 136.5227813720703 265.303466796875 136.3902130126953 C 266.0264892578125 136.28150939941406 266.6805419921875 135.9103240966797 267.2935485839844 135.5121307373047 C 269.22821044921875 134.25875854492188 271.04486083984375 132.519775390625 271.5063171386719 130.26174926757812 C 271.9698181152344 127.98570251464844 270.81451416015625 125.46595764160156 268.7790832519531 124.3426513671875 C 266.74365234375 123.2193603515625 263.9960021972656 123.55845642089844 262.30657958984375 125.15777587890625 L 262.5616760253906 125.27676391601562" stroke-width="0.6000000238418579" fill="rgb(140, 28, 33)" opacity="1.0"/>
    <path d="M 318.8809814453125 112.76773071289062 C 318.1932678222656 113.19467163085938 317.48236083984375 113.646484375 317.0360107421875 114.32244873046875 C 316.58966064453125 114.9984130859375 316.4849548339844 115.9742431640625 317.0111083984375 116.58993530273438 C 317.66229248046875 117.34848022460938 318.9899597167969 117.16708374023438 319.65814208984375 116.42100524902344 C 320.3263244628906 115.6749267578125 320.4534606933594 114.58132934570312 320.3321228027344 113.58840942382812 C 320.32537841796875 113.27728271484375 320.20220947265625 112.98001098632812 319.98699951171875 112.7552490234375 C 319.7530212402344 112.55780029296875 319.3091735839844 112.59918212890625 319.2201232910156 112.89369201660156 L 318.8809814453125 112.76773071289062" stroke-width="0.6000000238418579" fill="rgb(159, 159, 159)" opacity="1.0"/>
    <path d="M 202.42010498046875 125.73033142089844 C 200.39389038085938 124.61752319335938 197.9422607421875 124.1746826171875 195.72711181640625 124.83139038085938 C 193.51193237304688 125.48811340332031 191.61212158203125 127.34068298339844 191.1949462890625 129.6230926513672 C 190.90200805664062 131.23715209960938 191.35562133789062 132.9314727783203 192.22454833984375 134.32455444335938 C 193.09347534179688 135.7176513671875 194.3492431640625 136.83425903320312 195.7110595703125 137.75198364257812 C 196.30389404296875 138.1510009765625 196.95465087890625 138.52664184570312 197.66714477539062 138.5462188720703 C 198.4840087890625 138.56903076171875 199.231201171875 138.12106323242188 199.90536499023438 137.65487670898438 C 201.8087158203125 136.33868408203125 203.58285522460938 134.6806640625 204.4290771484375 132.52651977539062 C 205.27529907226562 130.3723602294922 204.97613525390625 127.64814758300781 203.24810791015625 126.11721801757812 L 202.42010498046875 125.73033142089844" stroke-width="0.6000000238418579" fill="rgb(159, 159, 159)" opacity="1.0"/>
    <path d="M 279.2323303222656 107.57502746582031 C 277.37615966796875 108.02584838867188 275.3324890136719 108.60737609863281 274.3244934082031 110.22549438476562 C 273.3420104980469 111.79776000976562 273.6618347167969 113.8238525390625 274.0486145019531 115.63787841796875 C 274.20684814453125 116.37458801269531 274.38409423828125 117.14276123046875 274.8717041015625 117.7166748046875 C 275.6957702636719 118.68783569335938 277.1413269042969 118.82060241699219 278.4056701660156 118.68293762207031 C 279.5792541503906 118.55561828613281 280.7284851074219 118.26043701171875 281.8181457519531 117.80645751953125 C 283.5877685546875 117.06993103027344 285.32763671875 115.6707763671875 285.4822998046875 113.76095581054688 C 285.5672912597656 112.73004150390625 285.161376953125 111.70161437988281 284.5557861328125 110.86105346679688 C 283.95013427734375 110.0205078125 283.15057373046875 109.34100341796875 282.35162353515625 108.68144226074219 C 281.5527038574219 108.02188110351562 280.7535400390625 107.39091491699219 279.778076171875 107.12399291992188 L 279.2323303222656 107.57502746582031" stroke-width="0.6000000238418579" fill="rgb(218, 166, 20)" opacity="1.0"/>
    <path d="M 242.354248046875 121.84164428710938 C 239.98495483398438 123.80540466308594 239.65618896484375 127.31803894042969 241.61996459960938 129.68731689453125 C 241.78814697265625 129.89019775390625 241.970458984375 130.08090209960938 242.16561889648438 130.2579803466797 C 242.9072265625 130.9307098388672 243.8797607421875 131.40821838378906 244.87890625 131.35101318359375 C 245.7232666015625 131.30274963378906 246.50067138671875 130.88595581054688 247.197998046875 130.4084014892578 C 249.06283569335938 129.12750244140625 250.5506591796875 127.37063598632812 251.50698852539062 125.32032775878906 C 251.75885009765625 124.7779541015625 251.97555541992188 124.1990966796875 251.96099853515625 123.59999084472656 C 251.93719482421875 122.59417724609375 251.25408935546875 121.7017822265625 250.42431640625 121.13156127929688 C 249.19302368164062 120.28408813476562 247.616943359375 120.0098876953125 246.13870239257812 120.23350524902344 C 244.66046142578125 120.45712280273438 243.277587890625 121.14822387695312 242.1051025390625 122.07568359375 L 242.354248046875 121.84164428710938" stroke-width="0.6000000238418579" fill="rgb(143, 165, 67)" opacity="1.0"/>
    <path d="M 250.8795166015625 99.19847106933594 C 248.6805419921875 102.15890502929688 251.25875854492188 107.11013793945312 254.91900634765625 107.2762451171875 C 258.57928466796875 107.44235229492188 261.5649719238281 103.05171203613281 260.3086242675781 99.5833740234375 C 259.05224609375 96.11502075195312 254.3292236328125 94.56353759765625 251.11666870117188 96.383544921875 L 250.8795166015625 99.19847106933594" stroke-width="0.6000000238418579" fill="rgb(233, 92, 21)" opacity="1.0"/>
    <path d="M 342.47967529296875 90.4984130859375 C 340.73175048828125 90.37457275390625 338.6309814453125 90.40792846679688 337.68328857421875 91.88896179199219 C 337.3291015625 92.49301147460938 337.1710510253906 93.19210815429688 337.23101806640625 93.88980102539062 C 337.3329162597656 95.62002563476562 338.26708984375 97.19354248046875 339.73736572265625 98.11135864257812 C 340.986572265625 98.88671875 342.48529052734375 99.08473205566406 343.9380187988281 99.24246215820312 C 344.75421142578125 99.32974243164062 345.6241760253906 99.396484375 346.3486633300781 99.02023315429688 C 347.3102111816406 98.51083374023438 347.7298583984375 97.36346435546875 347.9454650878906 96.29721069335938 C 348.26300048828125 94.73715209960938 348.3258972167969 93.135986328125 348.13177490234375 91.55583190917969 C 348.0636291503906 91.00999450683594 347.95574951171875 90.44332885742188 347.6216125488281 90.00660705566406 C 347.2901611328125 89.61642456054688 346.8523254394531 89.33113098144531 346.3615417480469 89.18548583984375 C 344.8899230957031 88.685791015625 343.273193359375 88.85678100585938 341.9386901855469 89.6533203125 L 342.47967529296875 90.4984130859375" stroke-width="0.6000000238418579" fill="rgb(70, 150, 179)" opacity="1.0"/>
    <path d="M 339.9446716308594 116.3626708984375 C 338.53912353515625 114.54385375976562 336.90484619140625 112.58685302734375 334.63177490234375 112.25502014160156 C 332.1898193359375 111.9000244140625 329.8504333496094 113.64303588867188 328.6341857910156 115.79008483886719 C 328.1648864746094 116.61770629882812 327.8106384277344 117.55233764648438 327.8897399902344 118.50035095214844 C 327.9544372558594 119.27969360351562 328.3041687011719 120.0040283203125 328.6856384277344 120.68649291992188 C 329.8860168457031 122.84010314941406 331.613037109375 124.9022216796875 333.9900817871094 125.55490112304688 C 336.38623046875 126.21102905273438 339.1573181152344 125.15679931640625 340.5005187988281 123.06425476074219 C 341.8437194824219 120.97171020507812 341.6767272949219 118.01530456542969 340.0897521972656 116.09889221191406 L 339.9446716308594 116.3626708984375" stroke-width="0.6000000238418579" fill="rgb(140, 28, 33)" opacity="1.0"/>
    <path d="M 360.7690734863281 103.77972412109375 C 360.28131103515625 104.08436584472656 359.7771301269531 104.40673828125 359.4613037109375 104.88783264160156 C 359.1455078125 105.36892700195312 359.072998046875 106.06240844726562 359.447998046875 106.49880981445312 C 359.912109375 107.03646850585938 360.85498046875 106.905029296875 361.3282470703125 106.37368774414062 C 361.801513671875 105.84236145019531 361.8897399902344 105.06515502929688 361.8016357421875 104.3599853515625 C 361.7962341308594 104.13894653320312 361.7081604003906 103.92799377441406 361.5548095703125 103.76873779296875 C 361.3882141113281 103.62889099121094 361.0729675292969 103.65914916992188 361.01025390625 103.86856079101562 L 360.7690734863281 103.77972412109375" stroke-width="0.6000000238418579" fill="rgb(159, 159, 159)" opacity="1.0"/>
    <path d="M 354.3515930175781 115.93154907226562 C 352.3838806152344 116.37432861328125 350.5250244140625 117.50093078613281 349.4559326171875 119.20993041992188 C 348.3868103027344 120.91893005371094 348.2146911621094 123.22770690917969 349.26031494140625 124.96112060546875 C 350.00115966796875 126.18572998046875 351.2764892578125 127.03158569335938 352.64935302734375 127.4405517578125 C 354.0222473144531 127.84954833984375 355.4884033203125 127.85427856445312 356.9089660644531 127.667724609375 C 357.527099609375 127.586181640625 358.1695861816406 127.45590209960938 358.64678955078125 127.05711364746094 C 359.1941223144531 126.60017395019531 359.42388916015625 125.87567138671875 359.595458984375 125.18138122558594 C 360.0797119140625 123.22128295898438 360.28204345703125 121.1123046875 359.5910339355469 119.21493530273438 C 358.9000244140625 117.31756591796875 357.1307678222656 115.70906066894531 355.1164855957031 115.70620727539062 L 354.3515930175781 115.93154907226562" stroke-width="0.6000000238418579" fill="rgb(159, 159, 159)" opacity="1.0"/>
    <path d="M 365.96978759765625 106.68197631835938 C 364.31817626953125 106.88763427734375 362.4912414550781 107.18777465820312 361.457763671875 108.48825073242188 C 360.450927734375 109.75155639648438 360.5262756347656 111.53724670410156 360.6806945800781 113.14602661132812 C 360.744384765625 113.79946899414062 360.8214416503906 114.4820556640625 361.18646240234375 115.02735900878906 C 361.8032531738281 115.94998168945312 363.0413818359375 116.20867919921875 364.1495361328125 116.21524047851562 C 365.1781005859375 116.22174072265625 366.2022705078125 116.08052062988281 367.190673828125 115.7958984375 C 368.7957763671875 115.33432006835938 370.4410400390625 114.29617309570312 370.76483154296875 112.6583251953125 C 370.9409484863281 111.77436828613281 370.6918640136719 110.84375 370.2511901855469 110.055908203125 C 369.810546875 109.26806640625 369.1859436035156 108.600341796875 368.5599670410156 107.94993591308594 C 367.9339599609375 107.29954528808594 367.304931640625 106.67387390136719 366.487060546875 106.34580993652344 L 365.96978759765625 106.68197631835938" stroke-width="0.6000000238418579" fill="rgb(218, 166, 20)" opacity="1.0"/>
    <path d="M 430.88720703125 163.37249755859375 C 428.1845703125 163.3157958984375 425.9476318359375 165.46075439453125 425.89093017578125 168.1634521484375 C 425.8861083984375 168.39486694335938 425.89764404296875 168.6263427734375 425.925537109375 168.85614013671875 C 426.03173828125 169.72930908203125 426.40350341796875 170.60540771484375 427.1002197265625 171.14154052734375 C 427.68896484375 171.59469604492188 428.445068359375 171.76446533203125 429.18280029296875 171.847900390625 C 431.15789794921875 172.06842041015625 433.156005859375 171.756103515625 434.9696044921875 170.943359375 C 435.4486083984375 170.72772216796875 435.92523193359375 170.4676513671875 436.25982666015625 170.06121826171875 C 436.822021484375 169.37924194335938 436.880859375 168.39373779296875 436.65728759765625 167.5380859375 C 436.326171875 166.2674560546875 435.4365234375 165.1795654296875 434.3258056640625 164.47869873046875 C 433.21514892578125 163.77783203125 431.899169921875 163.44235229492188 430.58721923828125 163.38482666015625 L 430.88720703125 163.37249755859375" stroke-width="0.6000000238418579" fill="rgb(143, 165, 67)" opacity="1.0"/>
    <path d="M 138.66888427734375 413.0179443359375 C 135.62234497070312 415.113037109375 136.4619140625 420.64654541015625 139.8804168701172 421.9915771484375 C 143.2989044189453 423.336669921875 147.55580139160156 420.1400146484375 147.4891357421875 416.442138671875 C 147.4224853515625 412.744140625 143.4452362060547 409.74005126953125 139.80709838867188 410.4244079589844 L 138.66888427734375 413.0179443359375" stroke-width="0.6000000238418579" fill="rgb(233, 92, 21)" opacity="1.0"/>
    <path d="M 430.754638671875 177.45108032226562 C 429.1656494140625 177.17343139648438 427.23876953125 177.006591796875 426.23175048828125 178.27374267578125 C 425.8505859375 178.79364013671875 425.6402587890625 179.41897583007812 425.62957763671875 180.06350708007812 C 425.560302734375 181.65753173828125 426.2679443359375 183.18624877929688 427.528076171875 184.16488647460938 C 428.59912109375 184.9923095703125 429.9530029296875 185.314453125 431.26849365234375 185.59539794921875 C 432.0076904296875 185.75204467773438 432.798095703125 185.8948974609375 433.49688720703125 185.61843872070312 C 434.42529296875 185.2423095703125 434.9173583984375 184.23101806640625 435.21502685546875 183.27490234375 C 435.65240478515625 181.87612915039062 435.8604736328125 180.415771484375 435.8311767578125 178.95050048828125 C 435.820068359375 178.44427490234375 435.7745361328125 177.91522216796875 435.50958251953125 177.48388671875 C 435.24267578125 177.095458984375 434.86859130859375 176.79302978515625 434.432861328125 176.61355590820312 C 433.1322021484375 176.01766967773438 431.6356201171875 176.0223388671875 430.33868408203125 176.6263427734375 L 430.754638671875 177.45108032226562" stroke-width="0.6000000238418579" fill="rgb(70, 150, 179)" opacity="1.0"/>
    <path d="M 415.5787353515625 160.96044921875 C 414.4188232421875 159.40048217773438 413.067626953125 157.7200927734375 411.15081787109375 157.40383911132812 C 409.0915222167969 157.06536865234375 407.0860900878906 158.50250244140625 406.0240173339844 160.29888916015625 C 405.6142272949219 160.9913330078125 405.3000183105469 161.77606201171875 405.3520202636719 162.57891845703125 C 405.39453125 163.2388916015625 405.67889404296875 163.85687255859375 405.99072265625 164.43991088867188 C 406.9719543457031 166.27975463867188 408.39990234375 168.05047607421875 410.39959716796875 168.6396484375 C 412.4154052734375 169.2320556640625 414.7750244140625 168.38409423828125 415.943603515625 166.63577270507812 C 417.11224365234375 164.887451171875 417.0174560546875 162.385009765625 415.70556640625 160.73968505859375 L 415.5787353515625 160.96044921875" stroke-width="0.6000000238418579" fill="rgb(140, 28, 33)" opacity="1.0"/>
    <path d="M 147.0 115.0 C 146.55308532714844 115.335693359375 146.0917510986328 115.68994140625 145.82608032226562 116.18215942382812 C 145.56039428710938 116.67437744140625 145.5480499267578 117.35195922851562 145.9475860595703 117.74327087402344 C 146.44186401367188 118.22518920898438 147.34393310546875 118.01924133300781 147.75790405273438 117.46524047851562 C 148.17185974121094 116.91122436523438 148.1924591064453 116.15126037597656 148.0482940673828 115.47573852539062 C 148.0246124267578 115.26217651367188 147.92173767089844 115.06521606445312 147.7599639892578 114.92379760742188 C 147.5869598388672 114.80227661132812 147.28421020507812 114.85789489746094 147.240966796875 115.06590270996094 L 147.0 115.0" stroke-width="0.6000000238418579" fill="rgb(159, 159, 159)" opacity="1.0"/>
    <path d="M 423.75860595703125 173.892822265625 C 422.10601806640625 173.476806640625 420.27490234375 173.617919921875 418.8173828125 174.49920654296875 C 417.35986328125 175.3804931640625 416.35015869140625 177.055908203125 416.47802734375 178.7615966796875 C 416.5699462890625 179.9674072265625 417.20928955078125 181.09130859375 418.0887451171875 181.92291259765625 C 418.9681396484375 182.75454711914062 420.0718994140625 183.31689453125 421.2142333984375 183.71762084960938 C 421.71142578125 183.8917236328125 422.24560546875 184.038330078125 422.7574462890625 183.91949462890625 C 423.34429931640625 183.78350830078125 423.793701171875 183.32473754882812 424.18768310546875 182.8665771484375 C 425.29986572265625 181.57302856445312 426.2562255859375 180.05978393554688 426.458251953125 178.36566162109375 C 426.6602783203125 176.6715087890625 425.93914794921875 174.78424072265625 424.4212646484375 174.01443481445312 L 423.75860595703125 173.892822265625" stroke-width="0.6000000238418579" fill="rgb(159, 159, 159)" opacity="1.0"/>
    <path d="M 414.8466796875 180.68182373046875 C 413.49658203125 179.25466918945312 411.9339599609375 177.726806640625 409.9745788574219 177.6529541015625 C 408.0691833496094 177.57843017578125 406.42340087890625 178.89834594726562 405.0011901855469 180.16983032226562 C 404.4241943359375 180.68719482421875 403.8288269042969 181.2376708984375 403.5653381347656 181.96600341796875 C 403.11895751953125 183.1976318359375 403.7384033203125 184.55609130859375 404.5068054199219 185.61468505859375 C 405.2196350097656 186.5975341796875 406.0699157714844 187.47293090820312 407.0315856933594 188.214111328125 C 408.5926513671875 189.4180908203125 410.73016357421875 190.25726318359375 412.51434326171875 189.4202880859375 C 413.4781494140625 188.9698486328125 414.189208984375 188.08242797851562 414.6304931640625 187.112548828125 C 415.07183837890625 186.1427001953125 415.27032470703125 185.08184814453125 415.45135498046875 184.03179931640625 C 415.63232421875 182.98171997070312 415.7877197265625 181.946044921875 415.528076171875 180.9388427734375 L 414.8466796875 180.68182373046875" stroke-width="0.6000000238418579" fill="rgb(218, 166, 20)" opacity="1.0"/>
    <path d="M 443.41485595703125 178.25241088867188 C 440.8653564453125 180.285400390625 440.44671630859375 184.00018310546875 442.47967529296875 186.5496826171875 C 442.65380859375 186.76797485351562 442.8431396484375 186.97366333007812 443.04632568359375 187.1651611328125 C 443.81854248046875 187.89276123046875 444.8392333984375 188.41815185546875 445.89892578125 188.3775634765625 C 446.79449462890625 188.34335327148438 447.62646484375 187.91738891601562 448.374755859375 187.4254150390625 C 450.3760986328125 186.10577392578125 451.98760986328125 184.2742919921875 453.0418701171875 182.12130737304688 C 453.319580078125 181.5517578125 453.560791015625 180.94284057617188 453.557373046875 180.30783081054688 C 453.55230712890625 179.24176025390625 452.846435546875 178.28265380859375 451.97882080078125 177.661865234375 C 450.69134521484375 176.7393798828125 449.027099609375 176.41726684570312 447.45648193359375 176.62457275390625 C 445.8858642578125 176.83184814453125 444.406982421875 177.53631591796875 443.146240234375 178.495361328125 L 443.41485595703125 178.25241088867188" stroke-width="0.6000000238418579" fill="rgb(143, 165, 67)" opacity="1.0"/>
    <path d="M 142.6187744140625 110.21028137207031 C 135.64930725097656 113.07968139648438 134.95057678222656 124.46731567382812 141.18670654296875 128.61322021484375 C 147.42286682128906 132.75909423828125 157.276611328125 128.2131805419922 158.7288818359375 120.81504821777344 C 160.18109130859375 113.41693115234375 153.54257202148438 105.72520446777344 145.99879455566406 105.52960205078125 L 142.6187744140625 110.21028137207031" stroke-width="0.6000000238418579" fill="rgb(233, 92, 21)" opacity="1.0"/>
    <path d="M 443.36846923828125 150.70562744140625 C 440.71142578125 152.7989959716797 437.75457763671875 155.57516479492188 438.32476806640625 158.92108154296875 C 438.603515625 160.24380493164062 439.2857666015625 161.44744873046875 440.277587890625 162.36590576171875 C 442.6702880859375 164.70452880859375 446.04815673828125 165.73834228515625 449.3399658203125 165.13946533203125 C 452.1309814453125 164.62432861328125 454.528564453125 162.96051025390625 456.80804443359375 161.2989501953125 C 458.0870361328125 160.363525390625 459.41607666015625 159.32891845703125 459.9620361328125 157.85064697265625 C 460.67364501953125 155.874267578125 459.78271484375 153.69065856933594 458.705810546875 151.8878936767578 C 457.133056640625 149.24757385253906 455.14324951171875 146.87924194335938 452.81365966796875 144.87472534179688 C 452.0074462890625 144.18368530273438 451.1173095703125 143.51455688476562 450.072998046875 143.32485961914062 C 449.09283447265625 143.19815063476562 448.0970458984375 143.35934448242188 447.2069091796875 143.788818359375 C 444.456298828125 144.9865264892578 442.3695068359375 147.33056640625 441.498291015625 150.20135498046875 L 443.36846923828125 150.70562744140625" stroke-width="0.6000000238418579" fill="rgb(70, 150, 179)" opacity="1.0"/>
    <path d="M 378.2867736816406 87.2054443359375 C 376.3995361328125 84.34793090820312 374.18768310546875 81.25982666015625 370.8472595214844 80.51565551757812 C 367.2584533691406 79.71839904785156 363.5902099609375 82.04953002929688 361.5460205078125 85.10501098632812 C 360.7573547363281 86.28274536132812 360.1277770996094 87.6322021484375 360.1405334472656 89.04940795898438 C 360.15057373046875 90.21443176269531 360.5901184082031 91.3292236328125 361.08148193359375 92.38531494140625 C 362.62689208984375 95.71755981445312 364.9648742675781 98.97209167480469 368.4243469238281 100.20440673828125 C 371.9118347167969 101.44400024414062 376.1452941894531 100.18389892578125 378.3721008300781 97.22340393066406 C 380.5989074707031 94.26290893554688 380.677490234375 89.85212707519531 378.5314636230469 86.82955932617188 L 378.2867736816406 87.2054443359375" stroke-width="0.6000000238418579" fill="rgb(140, 28, 33)" opacity="1.0"/>
    <path d="M 127.90873718261719 406.6883850097656 C 126.7081298828125 407.1636047363281 125.46408081054688 407.67132568359375 124.57174682617188 408.60589599609375 C 123.679443359375 409.54046630859375 123.2384033203125 411.0426025390625 123.88981628417969 412.15826416015625 C 124.69699096679688 413.53369140625 126.83251953125 413.62530517578125 128.0929412841797 412.6435546875 C 129.35336303710938 411.6618347167969 129.86302185058594 409.9811706542969 129.9540557861328 408.3880920410156 C 130.03164672851562 407.8977966308594 129.922607421875 407.3962097167969 129.64846801757812 406.98236083984375 C 129.33717346191406 406.6060485839844 128.6287078857422 406.5451965332031 128.4053955078125 406.9822692871094 L 127.90873718261719 406.6883850097656" stroke-width="0.6000000238418579" fill="rgb(159, 159, 159)" opacity="1.0"/>
    <path d="M 415.32550048828125 201.29287719726562 C 412.45697021484375 198.93121337890625 408.716796875 197.50088500976562 405.02227783203125 197.87774658203125 C 401.3277587890625 198.25457763671875 397.77484130859375 200.6142578125 396.4354248046875 204.09481811523438 C 395.4915771484375 206.55682373046875 395.70294189453125 209.36813354492188 396.6600341796875 211.82748413085938 C 397.6171569824219 214.28683471679688 399.2677307128906 216.42486572265625 401.1449890136719 218.28033447265625 C 401.96240234375 219.0872802734375 402.87823486328125 219.87457275390625 403.9977722167969 220.117919921875 C 405.2811584472656 220.39749145507812 406.5948181152344 219.9127197265625 407.79864501953125 219.37738037109375 C 411.197265625 217.86593627929688 414.4937744140625 215.77609252929688 416.4725341796875 212.62600708007812 C 418.4512939453125 209.47592163085938 418.7908935546875 205.083984375 416.5179443359375 202.15078735351562 L 415.32550048828125 201.29287719726562" stroke-width="0.6000000238418579" fill="rgb(159, 159, 159)" opacity="1.0"/>
    <path d="M 385.7894592285156 113.01156616210938 C 382.24749755859375 113.58306884765625 378.335205078125 114.37173461914062 376.21002197265625 117.25364685058594 C 374.1393127441406 120.05340576171875 374.44049072265625 123.89431762695312 374.8982849121094 127.34796142578125 C 375.0863342285156 128.75070190429688 375.3053894042969 130.2151641845703 376.13409423828125 131.36148071289062 C 377.5345764160156 133.30105590820312 380.2218933105469 133.7620391845703 382.6096496582031 133.6900177001953 C 384.825927734375 133.6240234375 387.021240234375 133.24012756347656 389.1283874511719 132.5500946044922 C 392.5502014160156 131.43092346191406 396.0137634277344 129.0665740966797 396.5838928222656 125.51309204101562 C 396.8945007324219 123.59515380859375 396.2855529785156 121.60977172851562 395.2749938964844 119.94683837890625 C 394.2644348144531 118.28388977050781 392.8670349121094 116.89404296875 391.4678955078125 115.5416259765625 C 390.06878662109375 114.189208984375 388.6650390625 112.89028930664062 386.8776550292969 112.24717712402344 L 385.7894592285156 113.01156616210938" stroke-width="0.6000000238418579" fill="rgb(218, 166, 20)" opacity="1.0"/>
    <path d="M 400.65655517578125 87.7392578125 C 395.9747619628906 84.97079467773438 389.93511962890625 86.52186584472656 387.16668701171875 91.20367431640625 C 386.9295959472656 91.60456848144531 386.7212829589844 92.02178955078125 386.54327392578125 92.45217895507812 C 385.86712646484375 94.08767700195312 385.6535949707031 95.99063110351562 386.34552001953125 97.61859130859375 C 386.93011474609375 98.994384765625 388.0877380371094 100.03865051269531 389.2986755371094 100.9134521484375 C 392.543212890625 103.25057983398438 396.3544006347656 104.67631530761719 400.3362731933594 105.04258728027344 C 401.3889465332031 105.13763427734375 402.4812927246094 105.15240478515625 403.46923828125 104.77040100097656 C 405.128173828125 104.13005065917969 406.2046813964844 102.46066284179688 406.6576843261719 100.73980712890625 C 407.3320617675781 98.18539428710938 406.8468933105469 95.39981079101562 405.5920104980469 93.07427978515625 C 404.33709716796875 90.74874877929688 402.3615417480469 88.86111450195312 400.1184387207031 87.46463012695312 L 400.65655517578125 87.7392578125" stroke-width="0.6000000238418579" fill="rgb(143, 165, 67)" opacity="1.0"/>
    <path d="M 118.95748901367188 418.62158203125 C 113.38656616210938 413.7984619140625 103.13629150390625 418.197265625 102.25935363769531 425.4658203125 C 101.3824462890625 432.734375 109.68585205078125 439.3385009765625 116.78419494628906 437.3524169921875 C 123.88253784179688 435.3663330078125 127.67845153808594 426.186767578125 124.53106689453125 419.51397705078125 L 118.95748901367188 418.62158203125" stroke-width="0.6000000238418579" fill="rgb(233, 92, 21)" opacity="1.0"/>
    <path d="M 439.98541259765625 196.43374633789062 C 437.29248046875 198.5955810546875 434.29986572265625 201.45721435546875 434.9132080078125 204.86761474609375 C 435.2100830078125 206.21533203125 435.9178466796875 207.43768310546875 436.9388427734375 208.3660888671875 C 439.4033203125 210.73114013671875 442.86126708984375 211.7550048828125 446.21612548828125 211.1129150390625 C 449.060546875 210.56097412109375 451.4925537109375 208.84011840820312 453.80413818359375 207.12261962890625 C 455.10107421875 206.15573120117188 456.4482421875 205.087158203125 456.9918212890625 203.57293701171875 C 457.69976806640625 201.5487060546875 456.7698974609375 199.327880859375 455.6536865234375 197.49755859375 C 454.0234375 194.81683349609375 451.9700927734375 192.41766357421875 449.5732421875 190.39309692382812 C 448.74371337890625 189.69515991210938 447.828857421875 189.0203857421875 446.7608642578125 188.83648681640625 C 445.7591552734375 188.71624755859375 444.7440185546875 188.89013671875 443.83941650390625 189.33685302734375 C 441.0426025390625 190.585205078125 438.9342041015625 192.99761962890625 438.071533203125 195.9364013671875 L 439.98541259765625 196.43374633789062" stroke-width="0.6000000238418579" fill="rgb(70, 150, 179)" opacity="1.0"/>
    <path d="M 417.716552734375 136.7944793701172 C 415.6766357421875 133.69764709472656 413.28558349609375 130.35069274902344 409.6693420410156 129.5404510498047 C 405.7841491699219 128.67237854003906 401.808837890625 131.1918487548828 399.5911865234375 134.49786376953125 C 398.735595703125 135.7721710205078 398.05206298828125 137.2326202392578 398.0639953613281 138.7672882080078 C 398.07330322265625 140.0288848876953 398.5478515625 141.2366485595703 399.0785217285156 142.3809051513672 C 400.74761962890625 145.99136352539062 403.2750549316406 149.51869201660156 407.01959228515625 150.8577117919922 C 410.7944641113281 152.2046356201172 415.3804931640625 150.845703125 417.79571533203125 147.64279174804688 C 420.21099853515625 144.4398956298828 420.3018798828125 139.66366577148438 417.9820556640625 136.3877716064453 L 417.716552734375 136.7944793701172" stroke-width="0.6000000238418579" fill="rgb(140, 28, 33)" opacity="1.0"/>
    <path d="M 404.0691223144531 88.03704833984375 C 403.775390625 89.35281372070312 403.4842529296875 90.72517395019531 403.7680969238281 92.04409790039062 C 404.05194091796875 93.36300659179688 405.09075927734375 94.62503051757812 406.4364929199219 94.71676635742188 C 408.09796142578125 94.8262939453125 409.4296875 93.03546142578125 409.32098388671875 91.37091064453125 C 409.2123107910156 89.70639038085938 408.0595397949219 88.2803955078125 406.7369384765625 87.26734924316406 C 406.3589172363281 86.91275024414062 405.86175537109375 86.71272277832031 405.3434753417969 86.70677185058594 C 404.8358459472656 86.75494384765625 404.36773681640625 87.33119201660156 404.6142578125 87.78042602539062 L 404.0691223144531 88.03704833984375" stroke-width="0.6000000238418579" fill="rgb(159, 159, 159)" opacity="1.0"/>
    <path d="M 437.45343017578125 229.17144775390625 C 434.69793701171875 231.76641845703125 432.771484375 235.36199951171875 432.6771240234375 239.14389038085938 C 432.582763671875 242.92578125 434.51025390625 246.81964111328125 437.855224609375 248.62078857421875 C 440.2216796875 249.8912353515625 443.08984375 250.03927612304688 445.6981201171875 249.388427734375 C 448.3065185546875 248.737548828125 450.6793212890625 247.3446044921875 452.7957763671875 245.68624877929688 C 453.7164306640625 244.96401977539062 454.6297607421875 244.13980102539062 455.0196533203125 243.039794921875 C 455.46728515625 241.77880859375 455.1463623046875 240.38897705078125 454.76019287109375 239.1036376953125 C 453.6700439453125 235.47479248046875 451.982177734375 231.87484741210938 449.05340576171875 229.4700927734375 C 446.1246337890625 227.0653076171875 441.730224609375 226.15716552734375 438.4737548828125 228.0767822265625 L 437.45343017578125 229.17144775390625" stroke-width="0.6000000238418579" fill="rgb(159, 159, 159)" opacity="1.0"/>
    <path d="M 413.41046142578125 257.2228698730469 C 410.5485534667969 254.74688720703125 407.2601318359375 252.11868286132812 403.4905090332031 252.35345458984375 C 399.82421875 252.57659912109375 396.92340087890625 255.42254638671875 394.4417419433594 258.13275146484375 C 393.43524169921875 259.2351989746094 392.39984130859375 260.4045715332031 392.03472900390625 261.8511962890625 C 391.4157409667969 264.2975158691406 392.86395263671875 266.7821960449219 394.5400390625 268.6636047363281 C 396.0950927734375 270.4104309082031 397.8929138183594 271.9249572753906 399.8784484863281 273.1607666015625 C 403.1017150878906 275.1685485839844 407.35980224609375 276.3663635253906 410.6186218261719 274.41949462890625 C 412.3795166015625 273.37103271484375 413.57177734375 271.5335388183594 414.2313232421875 269.5898742675781 C 414.890869140625 267.64617919921875 415.06756591796875 265.5748291015625 415.2127685546875 263.5274658203125 C 415.3580322265625 261.4801025390625 415.4569091796875 259.4652099609375 414.7657470703125 257.5846252441406 L 413.41046142578125 257.2228698730469" stroke-width="0.6000000238418579" fill="rgb(218, 166, 20)" opacity="1.0"/>
    <path d="M 411.161376953125 89.45236206054688 C 406.7806396484375 92.94784545898438 406.06298828125 99.332763671875 409.5584716796875 103.7135009765625 C 409.8577880859375 104.088623046875 410.183349609375 104.44203186035156 410.5326843261719 104.77108764648438 C 411.86029052734375 106.02117919921875 413.61492919921875 106.92364501953125 415.43621826171875 106.85333251953125 C 416.975341796875 106.7940673828125 418.405029296875 106.06149291992188 419.69097900390625 105.21554565429688 C 423.1300048828125 102.94638061523438 425.898681640625 99.79779052734375 427.70953369140625 96.09683227539062 C 428.1865234375 95.11775207519531 428.6007080078125 94.07110595703125 428.5946044921875 92.97969055175781 C 428.5853271484375 91.14743041992188 427.37164306640625 89.49932861328125 425.880126953125 88.43287658691406 C 423.666748046875 86.84803771972656 420.8062744140625 86.29531860351562 418.10693359375 86.65240478515625 C 415.4075927734375 87.00949096679688 412.8662109375 88.22103881835938 410.6998291015625 89.87007141113281 L 411.161376953125 89.45236206054688" stroke-width="0.6000000238418579" fill="rgb(143, 165, 67)" opacity="1.0"/>
    <path d="M 438.0794677734375 127.65353393554688 C 433.4326171875 132.6286163330078 437.1365966796875 142.24493408203125 443.81640625 143.30772399902344 C 450.4962158203125 144.3704833984375 456.8824462890625 136.934814453125 455.296142578125 130.3124237060547 C 453.7098388671875 123.69003295898438 445.367431640625 119.86587524414062 439.09747314453125 122.53909301757812 L 438.0794677734375 127.65353393554688" stroke-width="0.6000000238418579" fill="rgb(233, 92, 21)" opacity="1.0"/>
    <path d="M 437.761474609375 100.6734619140625 C 435.2830810546875 102.89892578125 432.55340576171875 105.8143310546875 433.32568359375 109.066162109375 C 433.68341064453125 110.34829711914062 434.43017578125 111.48785400390625 435.46295166015625 112.32760620117188 C 437.96240234375 114.47409057617188 441.3472900390625 115.27595520019531 444.5440673828125 114.47889709472656 C 447.254150390625 113.79583740234375 449.50469970703125 112.00894165039062 451.63946533203125 110.23171997070312 C 452.8370361328125 109.23146057128906 454.0775146484375 108.13056945800781 454.5203857421875 106.643310546875 C 455.0943603515625 104.65608215332031 454.08056640625 102.56674194335938 452.9080810546875 100.86344909667969 C 451.1951904296875 98.3685302734375 449.08984375 96.16729736328125 446.67364501953125 94.34512329101562 C 445.83758544921875 93.71713256835938 444.9205322265625 93.11599731445312 443.8822021484375 92.99574279785156 C 442.9110107421875 92.93331909179688 441.94268798828125 93.15483093261719 441.09521484375 93.63327026367188 C 438.4681396484375 94.9844970703125 436.5660400390625 97.420166015625 435.8917236328125 100.29641723632812 L 437.761474609375 100.6734619140625" stroke-width="0.6000000238418579" fill="rgb(70, 150, 179)" opacity="1.0"/>
    <path d="M 311.9301452636719 390.3318786621094 C 308.676025390625 389.9324035644531 305.05230712890625 389.626220703125 302.43560791015625 391.5980224609375 C 299.6259460449219 393.7178649902344 299.0464172363281 397.83831787109375 300.0032653808594 401.225341796875 C 300.3716125488281 402.5314025878906 300.9638977050781 403.82818603515625 302.0044250488281 404.6990051269531 C 302.8595275878906 405.41522216796875 303.9447937011719 405.7872314453125 305.0194396972656 406.0850830078125 C 308.4071960449219 407.0284423828125 312.23046875 407.3460693359375 315.2768249511719 405.5906677246094 C 318.3458251953125 403.81939697265625 320.0567932128906 399.95220947265625 319.2825622558594 396.4911193847656 C 318.50836181640625 393.030029296875 315.34332275390625 390.23358154296875 311.8082275390625 389.920166015625 L 311.9301452636719 390.3318786621094" stroke-width="0.6000000238418579" fill="rgb(140, 28, 33)" opacity="1.0"/>
    <path d="M 311.0 391.0 C 309.5339660644531 392.1012268066406 308.0205993652344 393.26324462890625 307.1490478515625 394.8779602050781 C 306.2775573730469 396.49261474609375 306.23699951171875 398.7153625488281 307.5476989746094 399.9989929199219 C 309.1690979003906 401.57989501953125 312.12823486328125 400.904296875 313.4862060546875 399.0869445800781 C 314.84417724609375 397.2695617675781 314.9117126464844 394.7765808105469 314.4388122558594 392.5606384277344 C 314.36114501953125 391.8600158691406 314.023681640625 391.2139587402344 313.49298095703125 390.75 C 312.92547607421875 390.3514099121094 311.9323425292969 390.5338439941406 311.7904357910156 391.2161865234375 L 311.0 391.0" stroke-width="0.6000000238418579" fill="rgb(159, 159, 159)" opacity="1.0"/>
    <path d="M 324.8990783691406 400.159912109375 C 320.698974609375 401.8042907714844 316.9707336425781 404.9234924316406 315.18536376953125 409.0630798339844 C 313.39996337890625 413.20263671875 313.8003845214844 418.36474609375 316.6981506347656 421.843017578125 C 318.75006103515625 424.2996826171875 321.8554382324219 425.7381591796875 325.0286865234375 426.17791748046875 C 328.20196533203125 426.61767578125 331.4447021484375 426.13226318359375 334.5219421386719 425.2393798828125 C 335.86083984375 424.85009765625 337.23712158203125 424.3447265625 338.15716552734375 423.3017578125 C 339.2125244140625 422.1065673828125 339.4754638671875 420.42718505859375 339.619873046875 418.8343505859375 C 340.0274658203125 414.3375244140625 339.76141357421875 409.6069030761719 337.59210205078125 405.6462097167969 C 335.42279052734375 401.6855163574219 330.96759033203125 398.7281188964844 326.5137939453125 399.403076171875 L 324.8990783691406 400.159912109375" stroke-width="0.6000000238418579" fill="rgb(159, 159, 159)" opacity="1.0"/>
    <path d="M 267.5902099609375 403.1352233886719 C 263.4324951171875 404.84716796875 258.8851318359375 406.9302062988281 257.11785888671875 411.0551452636719 C 255.39349365234375 415.06427001953125 256.8612976074219 419.6641845703125 258.40924072265625 423.7467041015625 C 259.0404968261719 425.404296875 259.7273254394531 427.1282958984375 261.0668029785156 428.2894287109375 C 263.33111572265625 430.25469970703125 266.7419128417969 430.0472412109375 269.6344909667969 429.275390625 C 272.3196105957031 428.5599365234375 274.8880615234375 427.462646484375 277.2612609863281 426.01708984375 C 281.1155090332031 423.67138671875 284.66400146484375 419.79443359375 284.34161376953125 415.295654296875 C 284.1711120605469 412.8665771484375 282.8594055175781 410.6187744140625 281.1500549316406 408.8793640136719 C 279.4407043457031 407.13995361328125 277.33758544921875 405.8445739746094 275.24310302734375 404.5953369140625 C 273.1486511230469 403.3460998535156 271.0638732910156 402.1634826660156 268.69891357421875 401.890869140625 L 267.5902099609375 403.1352233886719" stroke-width="0.6000000238418579" fill="rgb(218, 166, 20)" opacity="1.0"/>
    <path d="M 225.98974609375 406.0545654296875 C 218.63546752929688 403.9593505859375 210.97512817382812 408.22265625 208.8798828125 415.57696533203125 C 208.70050048828125 416.2066650390625 208.56597900390625 416.848388671875 208.47735595703125 417.4971923828125 C 208.14114379882812 419.9625244140625 208.5294189453125 422.6265869140625 210.05099487304688 424.59368896484375 C 211.336669921875 426.2562255859375 213.28338623046875 427.26348876953125 215.24212646484375 428.021240234375 C 220.488037109375 430.04248046875 226.17947387695312 430.6221923828125 231.72518920898438 429.7001953125 C 233.190673828125 429.4541015625 234.68145751953125 429.0845947265625 235.88873291015625 428.2127685546875 C 237.91644287109375 426.750244140625 238.7850341796875 424.0960693359375 238.78741455078125 421.59423828125 C 238.79348754882812 417.8798828125 237.1402587890625 414.2647705078125 234.60430908203125 411.5497131347656 C 232.068359375 408.83465576171875 228.70849609375 406.97216796875 225.1600341796875 405.8730163574219 L 225.98974609375 406.0545654296875" stroke-width="0.6000000238418579" fill="rgb(143, 165, 67)" opacity="1.0"/>
    <path d="M 285.6331787109375 377.6844177246094 C 281.30291748046875 384.8775939941406 288.2366943359375 395.5288391113281 296.5675354003906 395.0983581542969 C 304.89837646484375 394.6678466796875 310.69610595703125 384.06036376953125 307.0845947265625 376.47796630859375 C 303.4730529785156 368.8955993652344 292.4285583496094 366.4210510253906 285.550048828125 371.25347900390625 L 285.6331787109375 377.6844177246094" stroke-width="0.6000000238418579" fill="rgb(233, 92, 21)" opacity="1.0"/>
    <path d="M 339.13067626953125 375.7490539550781 C 336.17340087890625 378.6736145019531 332.9441833496094 382.4737548828125 334.10284423828125 386.4830017089844 C 334.62603759765625 388.0605773925781 335.6258850097656 389.4369201660156 336.9644470214844 390.4221496582031 C 340.2107849121094 392.9490051269531 344.48052978515625 393.7456359863281 348.4196472167969 392.55938720703125 C 351.7585144042969 391.5445861816406 354.4580383300781 389.18072509765625 357.0136413574219 386.83587646484375 C 358.4471130371094 385.516357421875 359.9280700683594 384.06878662109375 360.3909912109375 382.1872863769531 C 360.98748779296875 379.67431640625 359.597412109375 377.12945556640625 358.03271484375 375.0755920410156 C 355.74652099609375 372.06689453125 352.9884338378906 369.4480895996094 349.86541748046875 367.3207092285156 C 348.7849426269531 366.5877685546875 347.6050720214844 365.8931579589844 346.3028564453125 365.8055725097656 C 345.087890625 365.7861022949219 343.89349365234375 366.1205749511719 342.86529541015625 366.7682189941406 C 339.6700439453125 368.6113586425781 337.44415283203125 371.763427734375 336.77606201171875 375.3912048339844 L 339.13067626953125 375.7490539550781" stroke-width="0.6000000238418579" fill="rgb(70, 150, 179)" opacity="1.0"/>
    <path d="M 299.8475036621094 402.8018798828125 C 295.4622802734375 404.1822509765625 290.6595458984375 405.89642333984375 288.46527099609375 409.9329833984375 C 286.1106872558594 414.2705078125 287.7645263671875 419.8660888671875 290.9531555175781 423.633056640625 C 292.18194580078125 425.0859375 293.6911315917969 426.39697265625 295.5249938964844 426.904052734375 C 297.0323486328125 427.32135009765625 298.6335754394531 427.165771484375 300.1781311035156 426.92169189453125 C 305.0498352050781 426.1578369140625 310.1139221191406 424.34234619140625 312.98223876953125 420.3323974609375 C 315.87030029296875 416.2890625 315.8075866699219 410.35955810546875 312.80902099609375 406.3919677734375 C 309.8104553222656 402.42437744140625 304.1465759277344 400.69378662109375 299.4527282714844 402.34722900390625 L 299.8475036621094 402.8018798828125" stroke-width="0.6000000238418579" fill="rgb(140, 28, 33)" opacity="1.0"/>
    <path d="M 336.7597351074219 391.2447814941406 C 335.2040100097656 392.22442626953125 333.59600830078125 393.260986328125 332.5920715332031 394.802734375 C 331.5881652832031 396.3444519042969 331.36456298828125 398.562255859375 332.56854248046875 399.9529724121094 C 334.05859375 401.66632080078125 337.0712585449219 401.2349548339844 338.5779724121094 399.53076171875 C 340.0846862792969 397.8265686035156 340.3575439453125 395.3409118652344 340.0675354003906 393.08758544921875 C 340.0476379394531 392.3810729980469 339.76361083984375 391.7076721191406 339.2715148925781 391.2003479003906 C 338.7372741699219 390.7552795410156 337.72979736328125 390.8557434082031 337.53179931640625 391.5259094238281 L 336.7597351074219 391.2447814941406" stroke-width="0.6000000238418579" fill="rgb(159, 159, 159)" opacity="1.0"/>
    <path d="M 351.4750671386719 397.1146240234375 C 347.1015319824219 398.2027893066406 343.0055236816406 400.8131408691406 340.703125 404.684814453125 C 338.4007263183594 408.55645751953125 338.13238525390625 413.722900390625 340.5555114746094 417.542724609375 C 342.2720947265625 420.2412109375 345.1637268066406 422.06671142578125 348.2513122558594 422.9112548828125 C 351.3388977050781 423.755859375 354.6144714355469 423.69268798828125 357.7785949707031 423.2044677734375 C 359.1554260253906 422.9912109375 360.5841979980469 422.6678466796875 361.6302185058594 421.7529296875 C 362.8299255371094 420.70458984375 363.30682373046875 419.074462890625 363.6551208496094 417.514892578125 C 364.63836669921875 413.1116943359375 364.9842529296875 408.39007568359375 363.3450927734375 404.1861267089844 C 361.7059326171875 399.9821472167969 357.67254638671875 396.477783203125 353.1725158691406 396.57275390625 L 351.4750671386719 397.1146240234375" stroke-width="0.6000000238418579" fill="rgb(159, 159, 159)" opacity="1.0"/>
    <path d="M 265.4595642089844 381.0739440917969 C 262.7950744628906 377.74029541015625 259.6889343261719 374.1501770019531 255.4608154296875 373.6357421875 C 251.349609375 373.129638671875 247.54818725585938 375.68914794921875 244.23944091796875 378.1842346191406 C 242.89678955078125 379.1997985839844 241.50836181640625 380.28363037109375 240.80618286132812 381.8126525878906 C 239.61703491210938 384.3979797363281 240.71218872070312 387.45074462890625 242.18402099609375 389.8813781738281 C 243.54925537109375 392.137939453125 245.23147583007812 394.186767578125 247.17913818359375 395.9651794433594 C 250.34051513671875 398.85394287109375 254.81585693359375 401.0572814941406 258.8294982910156 399.5683288574219 C 260.99749755859375 398.7676696777344 262.6972351074219 396.9752502441406 263.8280334472656 394.9555969238281 C 264.9588317871094 392.9359436035156 265.5804443359375 390.6754455566406 266.16229248046875 388.43511962890625 C 266.744140625 386.19476318359375 267.26788330078125 383.98095703125 266.8879699707031 381.75360107421875 L 265.4595642089844 381.0739440917969" stroke-width="0.6000000238418579" fill="rgb(218, 166, 20)" opacity="1.0"/>
    <path d="M 263.88671875 396.12945556640625 C 257.1490173339844 394.05517578125 250.0054931640625 397.8356018066406 247.93121337890625 404.57330322265625 C 247.75360107421875 405.1502380371094 247.61712646484375 405.73907470703125 247.5228271484375 406.3353271484375 C 247.16494750976562 408.60107421875 247.47097778320312 411.0641174316406 248.83514404296875 412.9068603515625 C 249.98779296875 414.4642333984375 251.76248168945312 415.4305419921875 253.55313110351562 416.1671142578125 C 258.3489685058594 418.13214111328125 263.58349609375 418.7772216796875 268.7129211425781 418.035400390625 C 270.0684509277344 417.83697509765625 271.44970703125 417.52545166015625 272.5794372558594 416.745361328125 C 274.4768371582031 415.4368896484375 275.3291015625 413.0074462890625 275.37994384765625 410.70147705078125 C 275.45782470703125 407.2781066894531 274.0044250488281 403.9137878417969 271.7198486328125 401.36199951171875 C 269.435302734375 398.8101806640625 266.374755859375 397.02813720703125 263.12548828125 395.9459533691406 L 263.88671875 396.12945556640625" stroke-width="0.6000000238418579" fill="rgb(143, 165, 67)" opacity="1.0"/>
    <path d="M 212.23455810546875 379.94232177734375 C 206.81988525390625 386.55816650390625 212.25070190429688 398.30462646484375 220.7086181640625 399.088134765625 C 229.16653442382812 399.87158203125 236.55889892578125 390.029541015625 234.0274658203125 381.8610534667969 C 231.49606323242188 373.6925354003906 220.72808837890625 369.58514404296875 213.0904541015625 373.4496765136719 L 212.23455810546875 379.94232177734375" stroke-width="0.6000000238418579" fill="rgb(233, 92, 21)" opacity="1.0"/>
    <path d="M 264.644287109375 378.7986755371094 C 261.5599060058594 381.62542724609375 258.168701171875 385.3219909667969 259.1802062988281 389.3963317871094 C 259.6458435058594 391.0021057128906 260.5982666015625 392.423828125 261.9061584472656 393.46533203125 C 265.0728454589844 396.1293640136719 269.3343505859375 397.09326171875 273.3392639160156 396.0513610839844 C 276.7342834472656 395.1588439941406 279.53814697265625 392.8858337402344 282.1966552734375 390.6264343261719 C 283.68798828125 389.3548278808594 285.2319641113281 387.956298828125 285.7691955566406 386.08270263671875 C 286.46478271484375 383.5794677734375 285.16473388671875 380.96826171875 283.67034912109375 378.84393310546875 C 281.48724365234375 375.73223876953125 278.81488037109375 372.9944152832031 275.75689697265625 370.7366638183594 C 274.69879150390625 369.9586181640625 273.5393371582031 369.2153015136719 272.23370361328125 369.0775146484375 C 271.0131530761719 369.01153564453125 269.79974365234375 369.3020935058594 268.7414855957031 369.913818359375 C 265.45916748046875 371.64447021484375 263.1012878417969 374.7278747558594 262.2911071777344 378.3489990234375 L 264.644287109375 378.7986755371094" stroke-width="0.6000000238418579" fill="rgb(70, 150, 179)" opacity="1.0"/>
    <path d="M 334.1910400390625 375.0419006347656 C 331.9702453613281 371.1803894042969 329.3465576171875 366.99346923828125 325.0694274902344 365.75909423828125 C 320.4740295410156 364.4358215332031 315.52435302734375 367.16778564453125 312.625 370.9706115722656 C 311.5065002441406 372.4363708496094 310.58074951171875 374.1378173828125 310.4834899902344 375.97882080078125 C 310.4029541015625 377.4921875 310.8841552734375 378.9748229980469 311.437255859375 380.3854064941406 C 313.1761474609375 384.8358154296875 315.9502258300781 389.2489318847656 320.3427429199219 391.12664794921875 C 324.7710266113281 393.01605224609375 330.36859130859375 391.72003173828125 333.4974060058594 388.05517578125 C 336.626220703125 384.3903503417969 337.0824279785156 378.67010498046875 334.5389099121094 374.57354736328125 L 334.1910400390625 375.0419006347656" stroke-width="0.6000000238418579" fill="rgb(140, 28, 33)" opacity="1.0"/>
    <path d="M 353.0 389.0 C 351.5339660644531 390.1012268066406 350.0205993652344 391.26324462890625 349.1490478515625 392.8779602050781 C 348.2775573730469 394.49261474609375 348.23699951171875 396.7153625488281 349.5476989746094 397.9989929199219 C 351.1690979003906 399.57989501953125 354.12823486328125 398.904296875 355.4862060546875 397.0869445800781 C 356.84417724609375 395.2695617675781 356.9117126464844 392.7765808105469 356.4388122558594 390.5606384277344 C 356.36114501953125 389.8600158691406 356.023681640625 389.2139587402344 355.49298095703125 388.75 C 354.92547607421875 388.3514099121094 353.9323425292969 388.5338439941406 353.7904357910156 389.2161865234375 L 353.0 389.0" stroke-width="0.6000000238418579" fill="rgb(159, 159, 159)" opacity="1.0"/>
    <path d="M 188.81622314453125 400.14105224609375 C 184.11517333984375 400.92071533203125 179.578857421875 403.3280029296875 176.8270263671875 407.2153625488281 C 174.07516479492188 411.1026916503906 173.35848999023438 416.5255126953125 175.5916748046875 420.75506591796875 C 177.17431640625 423.743408203125 180.06878662109375 425.9102783203125 183.25213623046875 427.0596923828125 C 186.43548583984375 428.209228515625 189.89321899414062 428.41766357421875 193.2691650390625 428.1688232421875 C 194.73822021484375 428.0596923828125 196.27130126953125 427.83880615234375 197.45062255859375 426.96240234375 C 198.80313110351562 425.95819091796875 199.44268798828125 424.2801513671875 199.94073486328125 422.66552734375 C 201.34683227539062 418.107177734375 202.10791015625 413.15966796875 200.7332763671875 408.59112548828125 C 199.358642578125 404.0225524902344 195.40179443359375 399.9902648925781 190.65081787109375 399.7124938964844 L 188.81622314453125 400.14105224609375" stroke-width="0.6000000238418579" fill="rgb(159, 159, 159)" opacity="1.0"/>
    <path d="M 356.1177673339844 375.421142578125 C 351.932373046875 375.7810363769531 347.29571533203125 376.36236572265625 344.5641174316406 379.54296875 C 341.9032287597656 382.63238525390625 341.9215393066406 387.14337158203125 342.1563415527344 391.2157897949219 C 342.254150390625 392.8700256347656 342.3828430175781 394.5990295410156 343.2509765625 396.0094299316406 C 344.7178955078125 398.395751953125 347.81573486328125 399.1672668457031 350.6100769042969 399.2904052734375 C 353.2036437988281 399.40570068359375 355.8003234863281 399.14801025390625 358.32061767578125 398.5251770019531 C 362.41326904296875 397.5153503417969 366.6627197265625 395.05523681640625 367.6368713378906 390.95550537109375 C 368.166015625 388.7429504394531 367.6272888183594 386.3718566894531 366.5916442871094 384.3424072265625 C 365.5559997558594 382.31298828125 364.044921875 380.5688171386719 362.52862548828125 378.86822509765625 C 361.0123291015625 377.1676330566406 359.4859619140625 375.52911376953125 357.45477294921875 374.623046875 L 356.1177673339844 375.421142578125" stroke-width="0.6000000238418579" fill="rgb(218, 166, 20)" opacity="1.0"/>
    <path d="M 365.5433044433594 392.29266357421875 C 358.589111328125 393.0585632324219 353.572509765625 399.31695556640625 354.3384094238281 406.2711486816406 C 354.4039611816406 406.86663818359375 354.51171875 407.45672607421875 354.66082763671875 408.0369567871094 C 355.2277526855469 410.2416687011719 356.47711181640625 412.3643798828125 358.4457702636719 413.5052490234375 C 360.1093444824219 414.469482421875 362.1065673828125 414.650146484375 364.02777099609375 414.61541748046875 C 369.1702575683594 414.5152587890625 374.192138671875 413.0400390625 378.5717468261719 410.3428955078125 C 379.7281799316406 409.6280212402344 380.86346435546875 408.7999572753906 381.5850524902344 407.64422607421875 C 382.79754638671875 405.7047119140625 382.61639404296875 403.15606689453125 381.7539978027344 401.0357971191406 C 380.4758605957031 397.88702392578125 377.8262634277344 395.39556884765625 374.7398376464844 393.9716491699219 C 371.6534118652344 392.5477294921875 368.1636047363281 392.1307067871094 364.77764892578125 392.425537109375 L 365.5433044433594 392.29266357421875" stroke-width="0.6000000238418579" fill="rgb(143, 165, 67)" opacity="1.0"/>
    <path d="M 359.2674865722656 376.3321838378906 C 354.775390625 383.3939514160156 361.4232482910156 394.1787414550781 369.7358093261719 393.95458984375 C 378.04833984375 393.7303771972656 384.0867614746094 383.30218505859375 380.6741638183594 375.6573181152344 C 377.2615966796875 368.0124206542969 366.31622314453125 365.2749328613281 359.3427429199219 369.9214782714844 L 359.2674865722656 376.3321838378906" stroke-width="0.6000000238418579" fill="rgb(233, 92, 21)" opacity="1.0"/>
    <path d="M 387.4028625488281 375.8358459472656 C 384.4203796386719 378.8613586425781 381.1715393066406 382.7846984863281 382.4070739746094 386.86456298828125 C 382.96197509765625 388.46905517578125 384.00103759765625 389.8618469238281 385.38104248046875 390.8507385253906 C 388.7296142578125 393.389404296875 393.1009521484375 394.1475830078125 397.1088562011719 392.8847961425781 C 400.50592041015625 391.8049011230469 403.232421875 389.35540771484375 405.81219482421875 386.92724609375 C 407.2591247558594 385.5608825683594 408.7529296875 384.0631103515625 409.2013244628906 382.1353759765625 C 409.77789306640625 379.5609436035156 408.32501220703125 376.9797668457031 406.7001953125 374.90234375 C 404.3260192871094 371.8590393066406 401.4749450683594 369.2200927734375 398.25750732421875 367.08782958984375 C 397.1444396972656 366.3532409667969 395.9302978515625 365.65911865234375 394.59912109375 365.58660888671875 C 393.35791015625 365.58251953125 392.142333984375 365.9396667480469 391.1005859375 366.614501953125 C 387.8609924316406 368.53857421875 385.6285095214844 371.7869567871094 384.9932861328125 375.5009460449219 L 387.4028625488281 375.8358459472656" stroke-width="0.6000000238418579" fill="rgb(70, 150, 179)" opacity="1.0"/>
    <path d="M 381.8351745605469 401.7004089355469 C 377.8431091308594 404.230712890625 373.52447509765625 407.2029724121094 372.41107177734375 411.7932434082031 C 371.2179870605469 416.7249755859375 374.3398132324219 421.84722900390625 378.5032653808594 424.7471923828125 C 380.1080627441406 425.865966796875 381.95391845703125 426.76971435546875 383.9098815917969 426.788818359375 C 385.517822265625 426.80517578125 387.0675354003906 426.2274169921875 388.53759765625 425.5767822265625 C 393.1759033203125 423.5303955078125 397.72747802734375 420.388427734375 399.517578125 415.646484375 C 401.31842041015625 410.8660888671875 399.6891784667969 404.9915466308594 395.6615295410156 401.842041015625 C 391.6339111328125 398.6925354003906 385.5493469238281 398.4698791503906 381.32281494140625 401.35302734375 L 381.8351745605469 401.7004089355469" stroke-width="0.6000000238418579" fill="rgb(140, 28, 33)" opacity="1.0"/>
    <path d="M 399.242431640625 392.27813720703125 C 397.8616638183594 393.4939880371094 396.4383239746094 394.7743835449219 395.69232177734375 396.45758056640625 C 394.9463195800781 398.1407470703125 395.0789794921875 400.3674621582031 396.49017333984375 401.5494079589844 C 398.2353515625 403.0045166015625 401.1429138183594 402.09808349609375 402.3597412109375 400.1742248535156 C 403.5765686035156 398.2503662109375 403.4498596191406 395.7512512207031 402.8041076660156 393.57135009765625 C 402.67181396484375 392.87652587890625 402.28387451171875 392.2565612792969 401.7168273925781 391.8337707519531 C 401.1180419921875 391.479248046875 400.1387634277344 391.7391357421875 400.0500183105469 392.43280029296875 L 399.242431640625 392.27813720703125" stroke-width="0.6000000238418579" fill="rgb(159, 159, 159)" opacity="1.0"/>
    <path d="M 421.015625 376.7665100097656 C 418.9189453125 380.6710205078125 418.11444091796875 385.37890625 419.41351318359375 389.6136169433594 C 420.71258544921875 393.84832763671875 424.2984619140625 397.4568176269531 428.6815185546875 398.21527099609375 C 431.7811279296875 398.7475891113281 435.02099609375 397.8472900390625 437.6759033203125 396.1562805175781 C 440.330810546875 394.46527099609375 442.44866943359375 392.0376281738281 444.183349609375 389.410400390625 C 444.9375 388.26666259765625 445.6458740234375 387.0123291015625 445.67047119140625 385.64605712890625 C 445.699462890625 384.07965087890625 444.8271484375 382.6553955078125 443.921142578125 381.37139892578125 C 441.363525390625 377.74639892578125 438.15283203125 374.37530517578125 434.00787353515625 372.79205322265625 C 429.8629150390625 371.20880126953125 424.6458740234375 371.8316650390625 421.7423095703125 375.1721496582031 L 421.015625 376.7665100097656" stroke-width="0.6000000238418579" fill="rgb(159, 159, 159)" opacity="1.0"/>
    <path d="M 417.162353515625 398.3785095214844 C 413.092041015625 400.4700927734375 408.65826416015625 402.9713134765625 407.218505859375 407.3057861328125 C 405.8123779296875 411.5191345214844 407.69415283203125 416.05877685546875 409.61297607421875 420.06689453125 C 410.3948669433594 421.69403076171875 411.23876953125 423.3837890625 412.69647216796875 424.4468994140625 C 415.160888671875 426.2464599609375 418.602294921875 425.74456787109375 421.46990966796875 424.7144775390625 C 424.1319580078125 423.7593994140625 426.64300537109375 422.427001953125 428.92626953125 420.7581787109375 C 432.63470458984375 418.0496826171875 435.902099609375 413.8145751953125 435.19061279296875 409.279541015625 C 434.81005859375 406.8306579589844 433.28765869140625 404.6630554199219 431.4053955078125 403.0450744628906 C 429.523193359375 401.4271240234375 427.279541015625 400.2931213378906 425.048583984375 399.2052001953125 C 422.817626953125 398.1172790527344 420.60223388671875 397.0960693359375 418.180419921875 397.0217590332031 L 417.162353515625 398.3785095214844" stroke-width="0.6000000238418579" fill="rgb(218, 166, 20)" opacity="1.0"/>
    <path d="M 145.572265625 237.123291015625 C 139.1933135986328 241.08306884765625 137.232177734375 249.46429443359375 141.19195556640625 255.84323120117188 C 141.53102111816406 256.38946533203125 141.90841674804688 256.91094970703125 142.32130432128906 257.4037780761719 C 143.89048767089844 259.276123046875 146.08253479003906 260.7532958984375 148.51661682128906 260.94683837890625 C 150.57357788085938 261.110595703125 152.59103393554688 260.3613586425781 154.43515014648438 259.4385986328125 C 159.36801147460938 256.96185302734375 163.5477294921875 253.20947265625 166.54013061523438 248.57122802734375 C 167.32904052734375 247.34390258789062 168.0450439453125 246.01675415039062 168.20889282226562 244.56381225585938 C 168.4853515625 242.124755859375 167.1304931640625 239.74090576171875 165.31430053710938 238.08700561523438 C 162.61956787109375 235.62969970703125 158.901123046875 234.4434814453125 155.25376892089844 234.49310302734375 C 151.60641479492188 234.54266357421875 148.03440856933594 235.75390625 144.8924102783203 237.60626220703125 L 145.572265625 237.123291015625" stroke-width="0.6000000238418579" fill="rgb(143, 165, 67)" opacity="1.0"/>
    <path d="M 158.12860107421875 271.0987243652344 C 153.7064666748047 278.6143798828125 161.01870727539062 289.6038513183594 169.66619873046875 289.0698547363281 C 178.313720703125 288.5357971191406 184.2242431640625 277.4588317871094 180.39434814453125 269.6218566894531 C 176.564453125 261.7848815917969 165.068359375 259.3302307128906 157.97509765625 264.4207458496094 L 158.12860107421875 271.0987243652344" stroke-width="0.6000000238418579" fill="rgb(233, 92, 21)" opacity="1.0"/>
    <path d="M 154.54812622070312 322.55999755859375 C 151.09725952148438 324.9861755371094 147.2267608642578 328.2422180175781 147.7094268798828 332.4473876953125 C 147.9666290283203 334.1133728027344 148.73446655273438 335.6585388183594 149.90704345703125 336.86962890625 C 152.7276611328125 339.9443054199219 156.86358642578125 341.4610900878906 161.00326538085938 340.93902587890625 C 164.51370239257812 340.4871826171875 167.61224365234375 338.5782775878906 170.5635986328125 336.66412353515625 C 172.21978759765625 335.5862121582031 173.945068359375 334.38818359375 174.725341796875 332.58453369140625 C 175.7457275390625 330.1718444824219 174.78466796875 327.3922119140625 173.56613159179688 325.07421875 C 171.78707885742188 321.6795959472656 169.47027587890625 318.5953063964844 166.70562744140625 315.94097900390625 C 165.7486572265625 315.02569580078125 164.68576049804688 314.13201904296875 163.39813232421875 313.8248291015625 C 162.18630981445312 313.6004638671875 160.93536376953125 313.7335205078125 159.79782104492188 314.2078552246094 C 156.29132080078125 315.5123596191406 153.53355407714844 318.2894287109375 152.25357055664062 321.80499267578125 L 154.54812622070312 322.55999755859375" stroke-width="0.6000000238418579" fill="rgb(70, 150, 179)" opacity="1.0"/>
    <path d="M 131.21006774902344 293.86505126953125 C 128.2377166748047 289.9742736816406 124.77975463867188 285.7864685058594 119.94198608398438 285.052734375 C 114.74468994140625 284.2676696777344 109.7410888671875 287.95269775390625 107.12504577636719 292.5116271972656 C 106.11566162109375 294.2689208984375 105.35003662109375 296.25555419921875 105.50727844238281 298.2757873535156 C 105.63591003417969 299.93658447265625 106.37228393554688 301.4836120605469 107.1767578125 302.9418029785156 C 109.7081298828125 307.54327392578125 113.36233520507812 311.9560852050781 118.41783142089844 313.3744201660156 C 123.51397705078125 314.80035400390625 129.42892456054688 312.58758544921875 132.31475830078125 308.146240234375 C 135.20059204101562 303.7049255371094 134.8798828125 297.40570068359375 131.522216796875 293.3049011230469 L 131.21006774902344 293.86505126953125" stroke-width="0.6000000238418579" fill="rgb(140, 28, 33)" opacity="1.0"/>
    <path d="M 141.2950897216797 266.8691711425781 C 139.62646484375 267.6890563964844 137.89920043945312 268.56060791015625 136.7257537841797 270.0044250488281 C 135.55233764648438 271.4482116699219 135.091796875 273.65484619140625 136.15484619140625 275.18133544921875 C 137.47125244140625 277.062744140625 140.54684448242188 276.9490661621094 142.24317932128906 275.3952941894531 C 143.93951416015625 273.841552734375 144.47804260253906 271.3708190917969 144.42581176757812 269.07391357421875 C 144.4808807373047 268.36126708984375 144.26681518554688 267.6539001464844 143.82583618164062 267.09136962890625 C 143.33583068847656 266.5870056152344 142.31199645996094 266.5810241699219 142.04165649414062 267.23394775390625 L 141.2950897216797 266.8691711425781" stroke-width="0.6000000238418579" fill="rgb(159, 159, 159)" opacity="1.0"/>
    <path d="M 155.3302764892578 288.2605895996094 C 152.2871856689453 291.65057373046875 150.33929443359375 296.1570129394531 150.6073760986328 300.70220947265625 C 150.87545776367188 305.2474060058594 153.57974243164062 309.7230224609375 157.77297973632812 311.54595947265625 C 160.7392578125 312.8310546875 164.1939697265625 312.71942138671875 167.25656127929688 311.67584228515625 C 170.31915283203125 310.6322937011719 173.02450561523438 308.7225036621094 175.39559936523438 306.52020263671875 C 176.4268798828125 305.56121826171875 177.43923950195312 304.4806213378906 177.79592895507812 303.1220397949219 C 178.20559692382812 301.56463623046875 177.68060302734375 299.9301452636719 177.087890625 298.4275207519531 C 175.41455078125 294.1853332519531 173.02734375 290.03802490234375 169.27239990234375 287.44921875 C 165.51748657226562 284.86041259765625 160.15557861328125 284.2143249511719 156.443603515625 286.8448486328125 L 155.3302764892578 288.2605895996094" stroke-width="0.6000000238418579" fill="rgb(159, 159, 159)" opacity="1.0"/>
    <path d="M 131.94873046875 346.1707763671875 C 129.06056213378906 342.5603332519531 125.69381713867188 338.6722717285156 121.11288452148438 338.1167907714844 C 116.65867614746094 337.5703430175781 112.54139709472656 340.344970703125 108.95785522460938 343.0495910644531 C 107.50372314453125 344.15045166015625 106.00001525878906 345.3252868652344 105.23995971679688 346.98211669921875 C 103.95281982421875 349.7835388183594 105.14065551757812 353.0903625488281 106.73629760742188 355.7230224609375 C 108.21640014648438 358.1671447753906 110.039794921875 360.3860778808594 112.150634765625 362.3118896484375 C 115.57693481445312 365.44012451171875 120.42642211914062 367.8251953125 124.77407836914062 366.2102966308594 C 127.12249755859375 365.3418884277344 128.96316528320312 363.39923095703125 130.18736267089844 361.2106628417969 C 131.4115447998047 359.0220947265625 132.083984375 356.5728454589844 132.71334838867188 354.14544677734375 C 133.34271240234375 351.7180480957031 133.90911865234375 349.3193664550781 133.4965362548828 346.9064636230469 L 131.94873046875 346.1707763671875" stroke-width="0.6000000238418579" fill="rgb(218, 166, 20)" opacity="1.0"/>
    <path d="M 158.86044311523438 340.02105712890625 C 152.78668212890625 344.6092224121094 151.5823516845703 353.2524108886719 156.1705322265625 359.326171875 C 156.56341552734375 359.84625244140625 156.99267578125 360.33782958984375 157.45513916015625 360.79718017578125 C 159.21267700195312 362.54229736328125 161.5625 363.8307800292969 164.037841796875 363.8009338378906 C 166.12973022460938 363.77587890625 168.09722900390625 362.8327331542969 169.8736572265625 361.73046875 C 174.62466430664062 358.7734069824219 178.49725341796875 354.59814453125 181.08914184570312 349.6384582519531 C 181.77203369140625 348.3263244628906 182.37213134765625 346.9201354980469 182.403076171875 345.4380798339844 C 182.45645141601562 342.9500427246094 180.86798095703125 340.66864013671875 178.88128662109375 339.1669616699219 C 175.93325805664062 336.9354553222656 172.0693359375 336.08197021484375 168.39154052734375 336.4696044921875 C 164.71371459960938 336.8572082519531 161.219482421875 338.41064453125 158.21875 340.5715637207031 L 158.86044311523438 340.02105712890625" stroke-width="0.6000000238418579" fill="rgb(143, 165, 67)" opacity="1.0"/>
    <path d="M 138.7566680908203 376.68963623046875 C 131.75209045410156 371.1243591308594 119.54364013671875 376.9850769042969 118.85212707519531 385.8468322753906 C 118.16064453125 394.7086181640625 128.57093811035156 402.29425048828125 137.07960510253906 399.5216064453125 C 145.5882568359375 396.7489929199219 149.72267150878906 385.419677734375 145.56317138671875 377.4867248535156 L 138.7566680908203 376.68963623046875" stroke-width="0.6000000238418579" fill="rgb(233, 92, 21)" opacity="1.0"/>
    <path d="M 172.2763671875 371.5159606933594 C 169.01971435546875 374.4570617675781 165.4345703125 378.30804443359375 166.46420288085938 382.589111328125 C 166.94024658203125 384.2768249511719 167.92828369140625 385.7752685546875 169.29202270507812 386.87762451171875 C 172.5928955078125 389.6960144042969 177.05502319335938 390.73968505859375 181.26348876953125 389.6776428222656 C 184.83108520507812 388.7676086425781 187.789306640625 386.4051208496094 190.59490966796875 384.0558166503906 C 192.1688232421875 382.73358154296875 193.79888916015625 381.27862548828125 194.376708984375 379.3176574707031 C 195.12548828125 376.6975402832031 193.781982421875 373.9488830566406 192.23095703125 371.7093811035156 C 189.96511840820312 368.42901611328125 187.18328857421875 365.53704833984375 183.99334716796875 363.1455993652344 C 182.88955688476562 362.3214416503906 181.67919921875 361.532958984375 180.31085205078125 361.3784484863281 C 179.03121948242188 361.29986572265625 177.75634765625 361.5953063964844 176.6417236328125 362.228759765625 C 173.1859130859375 364.01873779296875 170.68923950195312 367.2345886230469 169.81173706054688 371.0262756347656 L 172.2763671875 371.5159606933594" stroke-width="0.6000000238418579" fill="rgb(70, 150, 179)" opacity="1.0"/>
  </g>
</svg>
