<?xml version="1.0" ?>
<svg xmlns="http://www.w3.org/2000/svg" version="1.1" width="600" height="600">
  <defs/>
  <g>
    <path d="M 353.91131591796875 333.4135437011719 C 355.1240234375 333.8021545410156 356.4547424316406 332.4075012207031 356.1009521484375 331.1927185058594 C 355.74713134765625 329.9779357910156 353.9792785644531 329.4916687011719 352.98583984375 330.2889709472656 C 351.99237060546875 331.0862731933594 352.01190185546875 332.8028564453125 352.96490478515625 333.6498718261719 L 353.91131591796875 333.4135437011719" stroke-width="0.6000000238418579" fill="rgb(233, 92, 21)" opacity="1.0"/>
    <path d="M 101.79354858398438 197.904296875 C 102.19520568847656 197.67523193359375 102.65122985839844 197.36001586914062 102.64208984375 196.89617919921875 C 102.63125610351562 196.71173095703125 102.56344604492188 196.53515625 102.44802856445312 196.390869140625 C 102.17207336425781 196.02618408203125 101.73648071289062 195.81787109375 101.27935791015625 195.83203125 C 100.89163208007812 195.84500122070312 100.53378295898438 196.021240234375 100.19192504882812 196.19955444335938 C 100.00006103515625 196.300048828125 99.79940795898438 196.41290283203125 99.69558715820312 196.60165405273438 C 99.55929565429688 196.8543701171875 99.63539123535156 197.1676025390625 99.74436950683594 197.43316650390625 C 99.90338134765625 197.82196044921875 100.124267578125 198.1824951171875 100.39846801757812 198.500732421875 C 100.493408203125 198.61050415039062 100.60015869140625 198.71902465820312 100.73747253417969 198.765869140625 C 100.86737060546875 198.80288696289062 101.0052490234375 198.80133056640625 101.13429260253906 198.76132202148438 C 101.53041076660156 198.6552734375 101.86007690429688 198.38076782226562 102.03610229492188 198.01040649414062 L 101.79354858398438 197.904296875" stroke-width="0.6000000238418579" fill="rgb(70, 150, 179)" opacity="1.0"/>
    <path d="M 463.87322998046875 433.73828125 C 464.3876953125 434.39569091796875 464.985595703125 435.102783203125 465.8118896484375 435.21826171875 C 466.69952392578125 435.341796875 467.54522705078125 434.70355224609375 467.982177734375 433.92108154296875 C 468.1507568359375 433.6195068359375 468.27734375 433.27923583984375 468.2464599609375 432.93511962890625 C 468.2213134765625 432.6522216796875 468.0926513671875 432.38995361328125 467.95257568359375 432.1429443359375 C 467.5118408203125 431.363525390625 466.88006591796875 430.618408203125 466.015380859375 430.38671875 C 465.1436767578125 430.1536865234375 464.1396484375 430.542724609375 463.656494140625 431.3056640625 C 463.17333984375 432.068603515625 463.240478515625 433.1419677734375 463.8211669921875 433.83441162109375 L 463.87322998046875 433.73828125" stroke-width="0.6000000238418579" fill="rgb(140, 28, 33)" opacity="1.0"/>
    <path d="M 94.00297546386719 193.7271728515625 C 94.19937133789062 193.61199951171875 94.4024658203125 193.489990234375 94.53274536132812 193.3031005859375 C 94.66305541992188 193.1162109375 94.69941711425781 192.84259033203125 94.55584716796875 192.66574096679688 C 94.37811279296875 192.44781494140625 94.0035400390625 192.48944091796875 93.81036376953125 192.6944580078125 C 93.61720275878906 192.89950561523438 93.57369995117188 193.20608520507812 93.60076904296875 193.48614501953125 C 93.6004638671875 193.57366943359375 93.63299560546875 193.65811157226562 93.69190979003906 193.72283935546875 C 93.75628662109375 193.780029296875 93.88137817382812 193.77154541015625 93.90850830078125 193.6893310546875 L 94.00297546386719 193.7271728515625" stroke-width="0.6000000238418579" fill="rgb(159, 159, 159)" opacity="1.0"/>
    <path d="M 380.4793395996094 302.947021484375 C 381.2184753417969 302.6402282714844 381.86859130859375 302.0735168457031 382.1704406738281 301.3327941894531 C 382.4722595214844 300.5920715332031 382.3826599121094 299.6778259277344 381.85614013671875 299.07122802734375 C 381.48333740234375 298.642822265625 380.92730712890625 298.3988342285156 380.3628234863281 298.33221435546875 C 379.79833984375 298.265625 379.2248840332031 298.3633728027344 378.6822204589844 298.5328369140625 C 378.44610595703125 298.606689453125 378.20379638671875 298.7012939453125 378.0443420410156 298.88958740234375 C 377.8614196777344 299.10540771484375 377.8208312988281 299.4042663574219 377.8009338378906 299.68731689453125 C 377.7447814941406 300.4864807128906 377.8089904785156 301.3246765136719 378.2080383300781 302.0194396972656 C 378.6070861816406 302.7142333984375 379.40802001953125 303.2228088378906 380.19561767578125 303.0870666503906 L 380.4793395996094 302.947021484375" stroke-width="0.6000000238418579" fill="rgb(159, 159, 159)" opacity="1.0"/>
    <path d="M 104.42210388183594 432.50177001953125 C 105.00018310546875 432.11639404296875 105.62603759765625 431.6629638671875 105.768798828125 430.98443603515625 C 105.9085693359375 430.32470703125 105.54678344726562 429.6722412109375 105.18853759765625 429.1005859375 C 105.04266357421875 428.86859130859375 104.8863525390625 428.628173828125 104.64820861816406 428.49285888671875 C 104.24557495117188 428.26373291015625 103.73507690429688 428.39849853515625 103.32020568847656 428.6031494140625 C 102.93505859375 428.7928466796875 102.57914733886719 429.0369873046875 102.26338195800781 429.327880859375 C 101.75048828125 429.8001708984375 101.33033752441406 430.49505615234375 101.51551818847656 431.16693115234375 C 101.61495971679688 431.52978515625 101.88182067871094 431.83062744140625 102.19352722167969 432.0423583984375 C 102.50521850585938 432.254150390625 102.86312866210938 432.38665771484375 103.21832275390625 432.512451171875 C 103.57353210449219 432.6383056640625 103.92523193359375 432.7542724609375 104.29182434082031 432.723876953125 L 104.42210388183594 432.50177001953125" stroke-width="0.6000000238418579" fill="rgb(218, 166, 20)" opacity="1.0"/>
    <path d="M 99.74188232421875 140.67759704589844 C 100.63046264648438 140.9602508544922 101.5799560546875 140.46905517578125 101.86260986328125 139.58045959472656 C 101.88681030273438 139.50436401367188 101.90557861328125 139.42665100097656 101.91879272460938 139.347900390625 C 101.96891784667969 139.04867553710938 101.93148803710938 138.7225341796875 101.75332641601562 138.4771270751953 C 101.602783203125 138.26971435546875 101.3692626953125 138.1397247314453 101.13333129882812 138.04010009765625 C 100.50143432617188 137.77427673339844 99.80990600585938 137.68251037597656 99.13055419921875 137.77430725097656 C 98.95101928710938 137.7988739013672 98.7679443359375 137.83837890625 98.6175537109375 137.94015502929688 C 98.364990234375 138.1108856201172 98.249267578125 138.43116760253906 98.23971557617188 138.736083984375 C 98.22518920898438 139.18878173828125 98.41326904296875 139.6355438232422 98.7122802734375 139.9758758544922 C 99.01130676269531 140.31619262695312 99.41390991210938 140.5556640625 99.84233093261719 140.7028045654297 L 99.74188232421875 140.67759704589844" stroke-width="0.6000000238418579" fill="rgb(143, 165, 67)" opacity="1.0"/>
    <path d="M 457.47528076171875 337.8837585449219 C 458.1904296875 338.1932373046875 459.0845947265625 337.423828125 458.94207763671875 336.6628112792969 C 458.799560546875 335.90179443359375 457.752197265625 335.49951171875 457.09930419921875 335.9253845214844 C 456.4464111328125 336.3512878417969 456.355224609375 337.3977966308594 456.884765625 337.9708557128906 L 457.47528076171875 337.8837585449219" stroke-width="0.6000000238418579" fill="rgb(233, 92, 21)" opacity="1.0"/>
    <path d="M 110.2515869140625 214.5675048828125 C 110.66239929199219 214.4161376953125 111.13743591308594 214.1927490234375 111.20114135742188 213.75808715820312 C 111.21975708007812 213.5841064453125 111.18394470214844 213.40866088867188 111.09861755371094 213.25592041015625 C 110.89767456054688 212.872314453125 110.52326965332031 212.60992431640625 110.0941162109375 212.5518798828125 C 109.72996520996094 212.50360107421875 109.3682861328125 212.61248779296875 109.02120971679688 212.72576904296875 C 108.82635498046875 212.78973388671875 108.62136840820312 212.86392211914062 108.4949951171875 213.0240478515625 C 108.32833862304688 213.23883056640625 108.35061645507812 213.54327392578125 108.41104125976562 213.8082275390625 C 108.49897766113281 214.1961669921875 108.64912414550781 214.56732177734375 108.85565185546875 214.90725708007812 C 108.92724609375 215.02459716796875 109.01002502441406 215.142578125 109.1309814453125 215.20770263671875 C 109.24655151367188 215.26251220703125 109.37557983398438 215.28253173828125 109.5023193359375 215.2652587890625 C 109.88882446289062 215.2279052734375 110.23947143554688 215.02288818359375 110.46160888671875 214.70440673828125 L 110.2515869140625 214.5675048828125" stroke-width="0.6000000238418579" fill="rgb(70, 150, 179)" opacity="1.0"/>
    <path d="M 102.83439636230469 77.33143615722656 C 103.29263305664062 77.72573852539062 103.81710815429688 78.1435546875 104.42025756835938 78.10893249511719 C 105.06814575195312 78.07135009765625 105.5787353515625 77.4986572265625 105.77861022949219 76.8812255859375 C 105.85577392578125 76.64320373535156 105.89764404296875 76.38369750976562 105.82717895507812 76.14363098144531 C 105.76931762695312 75.94625854492188 105.64093017578125 75.77813720703125 105.506591796875 75.62246704101562 C 105.08352661132812 75.13107299804688 104.52960205078125 74.69107055664062 103.88272094726562 74.64852905273438 C 103.230712890625 74.60612487792969 102.572509765625 75.024169921875 102.3370361328125 75.63427734375 C 102.1015625 76.24435424804688 102.30082702636719 76.9971923828125 102.81095886230469 77.40707397460938 L 102.83439636230469 77.33143615722656" stroke-width="0.6000000238418579" fill="rgb(140, 28, 33)" opacity="1.0"/>
    <path d="M 98.39398193359375 430.8927001953125 C 98.56739807128906 430.881103515625 98.74771118164062 430.8670654296875 98.90048217773438 430.783935546875 C 99.05322265625 430.70074462890625 99.17144775390625 430.5262451171875 99.13372802734375 430.3565673828125 C 99.08673095703125 430.1470947265625 98.81672668457031 430.04766845703125 98.61483764648438 430.12176513671875 C 98.4129638671875 430.19586181640625 98.27864074707031 430.390380859375 98.20156860351562 430.59088134765625 C 98.17149353027344 430.6505126953125 98.16488647460938 430.7193603515625 98.18302917480469 430.78363037109375 C 98.20748901367188 430.8446044921875 98.29580688476562 430.88153076171875 98.34237670898438 430.83465576171875 L 98.39398193359375 430.8927001953125" stroke-width="0.6000000238418579" fill="rgb(159, 159, 159)" opacity="1.0"/>
    <path d="M 464.98724365234375 62.30033874511719 C 465.34222412109375 61.98907470703125 465.59832763671875 61.54939270019531 465.6268310546875 61.078369140625 C 465.6553955078125 60.60736083984375 465.432373046875 60.11341857910156 465.02337646484375 59.874053955078125 C 464.7340087890625 59.7052001953125 464.3770751953125 59.674041748046875 464.049072265625 59.743621826171875 C 463.7210693359375 59.81318664550781 463.4190673828125 59.976318359375 463.14794921875 60.17366027832031 C 463.0299072265625 60.259613037109375 462.9124755859375 60.358306884765625 462.85894775390625 60.49369812011719 C 462.797607421875 60.648895263671875 462.8314208984375 60.823577880859375 462.8739013671875 60.98551940917969 C 462.99365234375 61.44270324707031 463.1881103515625 61.89894104003906 463.54254150390625 62.211700439453125 C 463.89697265625 62.524444580078125 464.4407958984375 62.657135009765625 464.855224609375 62.43226623535156 L 464.98724365234375 62.30033874511719" stroke-width="0.6000000238418579" fill="rgb(159, 159, 159)" opacity="1.0"/>
    <path d="M 93.61756896972656 103.16360473632812 C 94.19549560546875 103.22322082519531 94.84048461914062 103.26446533203125 95.29403686523438 102.9031982421875 C 95.73562622070312 102.55247497558594 95.85009765625 101.93917846679688 95.92379760742188 101.37982177734375 C 95.95339965820312 101.15255737304688 95.98074340820312 100.91433715820312 95.89938354492188 100.70022583007812 C 95.761962890625 100.33798217773438 95.36111450195312 100.15286254882812 94.98468017578125 100.06367492675781 C 94.63534545898438 99.98077392578125 94.27587890625 99.94845581054688 93.91734313964844 99.96771240234375 C 93.33515930175781 99.99879455566406 92.69406127929688 100.22283935546875 92.4554443359375 100.75453186035156 C 92.326171875 101.04139709472656 92.337890625 101.37748718261719 92.42596435546875 101.6800537109375 C 92.5140380859375 101.98260498046875 92.67410278320312 102.25872802734375 92.83599853515625 102.52908325195312 C 92.99790954589844 102.79942321777344 93.16278076171875 103.06159973144531 93.41523742675781 103.23736572265625 L 93.61756896972656 103.16360473632812" stroke-width="0.6000000238418579" fill="rgb(218, 166, 20)" opacity="1.0"/>
    <path d="M 114.30307006835938 129.55926513671875 C 115.13739013671875 129.36680603027344 115.65771484375 128.53443908691406 115.46524047851562 127.70013427734375 C 115.44876098632812 127.62869262695312 115.42724609375 127.55850219726562 115.40081787109375 127.4901123046875 C 115.3004150390625 127.23025512695312 115.11822509765625 126.99008178710938 114.86264038085938 126.87954711914062 C 114.64666748046875 126.7861328125 114.40133666992188 126.79269409179688 114.16830444335938 126.82437133789062 C 113.54470825195312 126.9100341796875 112.95538330078125 127.16110229492188 112.46160888671875 127.55149841308594 C 112.33126831054688 127.6549072265625 112.20510864257812 127.77178955078125 112.1339111328125 127.92257690429688 C 112.01425170898438 128.17562866210938 112.07269287109375 128.48281860351562 112.20780944824219 128.72821044921875 C 112.40815734863281 129.09266662597656 112.76580810546875 129.35763549804688 113.16128540039062 129.48660278320312 C 113.55677795410156 129.61557006835938 113.98690795898438 129.61639404296875 114.39424133300781 129.5321807861328 L 114.30307006835938 129.55926513671875" stroke-width="0.6000000238418579" fill="rgb(143, 165, 67)" opacity="1.0"/>
    <path d="M 387.58062744140625 298.22015380859375 C 388.32562255859375 298.64105224609375 389.3912353515625 297.9046936035156 389.3239440917969 297.05718994140625 C 389.2566223144531 296.20965576171875 388.1596374511719 295.64886474609375 387.3973388671875 296.03814697265625 C 386.6350402832031 296.4273986816406 386.4140319824219 297.5595703125 386.9256896972656 298.2467346191406 L 387.58062744140625 298.22015380859375" stroke-width="0.6000000238418579" fill="rgb(233, 92, 21)" opacity="1.0"/>
    <path d="M 119.91314697265625 108.81951904296875 C 120.32760620117188 108.57955932617188 120.79783630371094 108.24993896484375 120.78521728515625 107.76956176757812 C 120.77273559570312 107.57858276367188 120.70132446289062 107.39617919921875 120.58079528808594 107.24749755859375 C 120.29248046875 106.87164306640625 119.83987426757812 106.6588134765625 119.36650085449219 106.67655944824219 C 118.96498107910156 106.692626953125 118.59552001953125 106.87759399414062 118.24263000488281 107.06463623046875 C 118.04458618164062 107.17001342773438 117.83749389648438 107.28826904296875 117.73126220703125 107.48446655273438 C 117.591796875 107.74716186523438 117.67274475097656 108.07110595703125 117.78741455078125 108.34539794921875 C 117.95474243164062 108.7470703125 118.18598937988281 109.11898803710938 118.47216796875 109.44677734375 C 118.57125854492188 109.55982971191406 118.68255615234375 109.6715087890625 118.82510375976562 109.71908569335938 C 118.95991516113281 109.75656127929688 119.10272216796875 109.75399780273438 119.23609924316406 109.71170043945312 C 119.64567565917969 109.59915161132812 119.98526000976562 109.31260681152344 120.16510009765625 108.92779541015625 L 119.91314697265625 108.81951904296875" stroke-width="0.6000000238418579" fill="rgb(70, 150, 179)" opacity="1.0"/>
    <path d="M 432.62158203125 73.94378662109375 C 433.0675048828125 74.41339111328125 433.58154296875 74.91519165039062 434.2281494140625 74.94322204589844 C 434.9227294921875 74.97291564941406 435.52862548828125 74.41748046875 435.80810546875 73.78092956542969 C 435.916015625 73.53555297851562 435.98858642578125 73.26345825195312 435.9393310546875 73.0 C 435.89892578125 72.78340148925781 435.7801513671875 72.59037780761719 435.65374755859375 72.41000366210938 C 435.2557373046875 71.84068298339844 434.71270751953125 71.31207275390625 434.02783203125 71.19708251953125 C 433.33740234375 71.08168029785156 432.59088134765625 71.45639038085938 432.274169921875 72.081298828125 C 431.95751953125 72.70620727539062 432.0888671875 73.53009033203125 432.5885009765625 74.02186584472656 L 432.62158203125 73.94378662109375" stroke-width="0.6000000238418579" fill="rgb(140, 28, 33)" opacity="1.0"/>
    <path d="M 119.68824768066406 418.688232421875 C 119.87028503417969 418.54541015625 120.05813598632812 418.3948974609375 120.163818359375 418.18896484375 C 120.26953125 417.9830322265625 120.26881408691406 417.7025146484375 120.10012817382812 417.5440673828125 C 119.89144897460938 417.348876953125 119.51995849609375 417.44189453125 119.35343933105469 417.6746826171875 C 119.18692016601562 417.907470703125 119.1849365234375 418.2220458984375 119.25039672851562 418.5003662109375 C 119.26202392578125 418.5885009765625 119.30628967285156 418.66912841796875 119.37445068359375 418.72625732421875 C 119.44708251953125 418.7750244140625 119.57186889648438 418.74945068359375 119.58798217773438 418.6629638671875 L 119.68824768066406 418.688232421875" stroke-width="0.6000000238418579" fill="rgb(159, 159, 159)" opacity="1.0"/>
    <path d="M 448.69854736328125 424.8822021484375 C 449.072265625 424.4656982421875 449.31146240234375 423.912109375 449.2784423828125 423.353759765625 C 449.245361328125 422.79547119140625 448.9130859375 422.2457275390625 448.39794921875 422.02191162109375 C 448.0335693359375 421.8641357421875 447.60919189453125 421.8779296875 447.2330322265625 422.0062255859375 C 446.8568115234375 422.1343994140625 446.5245361328125 422.369140625 446.23333740234375 422.6396484375 C 446.106689453125 422.75750732421875 445.98236083984375 422.8902587890625 445.9385986328125 423.05712890625 C 445.8883056640625 423.24847412109375 445.95281982421875 423.44921875 446.025634765625 423.6337890625 C 446.2313232421875 424.1549072265625 446.524658203125 424.664306640625 446.9859619140625 424.982177734375 C 447.447265625 425.30010986328125 448.10589599609375 425.37933349609375 448.56182861328125 425.05615234375 L 448.69854736328125 424.8822021484375" stroke-width="0.6000000238418579" fill="rgb(159, 159, 159)" opacity="1.0"/>
    <path d="M 446.47344970703125 283.760498046875 C 446.89892578125 283.4453125 447.3582763671875 283.0765686035156 447.44140625 282.55462646484375 C 447.52288818359375 282.04718017578125 447.22283935546875 281.56414794921875 446.9285888671875 281.1424865722656 C 446.80877685546875 280.97137451171875 446.6806640625 280.7942810058594 446.49432373046875 280.7002258300781 C 446.17919921875 280.5409851074219 445.795654296875 280.662841796875 445.487548828125 280.8342590332031 C 445.2015380859375 280.9932556152344 444.9398193359375 281.1925048828125 444.71044921875 281.4258728027344 C 444.3377685546875 281.8046875 444.044189453125 282.3495788574219 444.21044921875 282.8540344238281 C 444.29986572265625 283.1264953613281 444.514404296875 283.3454284667969 444.7596435546875 283.494873046875 C 445.0048828125 283.644287109375 445.2823486328125 283.731689453125 445.5574951171875 283.8140563964844 C 445.8326416015625 283.89642333984375 446.104736328125 283.9714660644531 446.3826904296875 283.93450927734375 L 446.47344970703125 283.760498046875" stroke-width="0.6000000238418579" fill="rgb(218, 166, 20)" opacity="1.0"/>
    <path d="M 427.7689208984375 373.7942199707031 C 428.43804931640625 374.4822692871094 429.538330078125 374.4975891113281 430.226318359375 373.8284606933594 C 430.2852783203125 373.7711486816406 430.34002685546875 373.7097473144531 430.3902587890625 373.64471435546875 C 430.5810546875 373.3974914550781 430.7054443359375 373.08331298828125 430.6629638671875 372.77410888671875 C 430.6270751953125 372.51275634765625 430.478271484375 372.2813720703125 430.31256103515625 372.0763854980469 C 429.8681640625 371.5282897949219 429.28515625 371.1091613769531 428.62408447265625 370.862548828125 C 428.44921875 370.79766845703125 428.263916015625 370.7445983886719 428.0780029296875 370.7639465332031 C 427.765869140625 370.79620361328125 427.50531005859375 371.0306701660156 427.3485107421875 371.3027648925781 C 427.11553955078125 371.70654296875 427.0692138671875 372.20330810546875 427.17535400390625 372.6573791503906 C 427.28143310546875 373.1114501953125 427.530517578125 373.5242919921875 427.84783935546875 373.8658752441406 L 427.7689208984375 373.7942199707031" stroke-width="0.6000000238418579" fill="rgb(143, 165, 67)" opacity="1.0"/>
    <path d="M 447.3902587890625 358.94769287109375 C 448.028564453125 358.3210754394531 447.59716796875 357.03765869140625 446.726318359375 356.8600769042969 C 445.8555908203125 356.6825256347656 444.974853515625 357.6222229003906 445.1453857421875 358.5005798339844 C 445.31591796875 359.3789367675781 446.38916015625 359.928466796875 447.22747802734375 359.61328125 L 447.3902587890625 358.94769287109375" stroke-width="0.6000000238418579" fill="rgb(233, 92, 21)" opacity="1.0"/>
    <path d="M 449.29248046875 86.90594482421875 C 449.8253173828125 86.55136108398438 450.425048828125 86.07254028320312 450.3681640625 85.43284606933594 C 450.3355712890625 85.17915344238281 450.22515869140625 84.94180297851562 450.052001953125 84.75357055664062 C 449.6361083984375 84.2762451171875 449.01470947265625 84.03012084960938 448.384765625 84.09323120117188 C 447.8505859375 84.14811706542969 447.37322998046875 84.42561340332031 446.91815185546875 84.7044677734375 C 446.6627197265625 84.86154174804688 446.39642333984375 85.03652954101562 446.27105712890625 85.30706787109375 C 446.10693359375 85.66905212402344 446.24188232421875 86.09439086914062 446.417724609375 86.45069885253906 C 446.67431640625 86.97250366210938 447.0137939453125 87.44931030273438 447.42279052734375 87.86264038085938 C 447.5643310546875 88.00518798828125 447.72210693359375 88.14486694335938 447.916259765625 88.19645690917969 C 448.09912109375 88.23519897460938 448.2894287109375 88.21987915039062 448.4637451171875 88.15234375 C 449.000732421875 87.96810913085938 449.4298095703125 87.5576171875 449.6375732421875 87.02935791015625 L 449.29248046875 86.90594482421875" stroke-width="0.6000000238418579" fill="rgb(70, 150, 179)" opacity="1.0"/>
    <path d="M 446.2933349609375 397.0586242675781 C 447.0460205078125 396.3772277832031 447.8516845703125 395.59033203125 447.9197998046875 394.57794189453125 C 447.9923095703125 393.4903869628906 447.1444091796875 392.52001953125 446.15716552734375 392.0581359863281 C 445.776611328125 391.8798828125 445.35284423828125 391.7559509277344 444.9381103515625 391.8233337402344 C 444.59710693359375 391.8785705566406 444.2901611328125 392.0574645996094 444.002685546875 392.2488708496094 C 443.095458984375 392.8514099121094 442.2467041015625 393.6827392578125 442.0408935546875 394.751953125 C 441.834228515625 395.8296813964844 442.3935546875 397.0137939453125 443.3612060546875 397.5334777832031 C 444.32879638671875 398.0531311035156 445.625 397.87811279296875 446.4144287109375 397.11346435546875 L 446.2933349609375 397.0586242675781" stroke-width="0.6000000238418579" fill="rgb(140, 28, 33)" opacity="1.0"/>
    <path d="M 116.50222778320312 215.55172729492188 C 115.86599731445312 215.401123046875 115.20230102539062 215.25140380859375 114.56092834472656 215.380859375 C 113.91958618164062 215.51031494140625 113.30111694335938 216.0062255859375 113.24827575683594 216.65826416015625 C 113.18482971191406 217.4632568359375 114.04501342773438 218.12017822265625 114.85287475585938 218.07781982421875 C 115.66073608398438 218.03546142578125 116.35942077636719 217.48532104492188 116.85890197753906 216.8502197265625 C 117.03321838378906 216.66912841796875 117.13330078125 216.42926025390625 117.139404296875 216.177978515625 C 117.11920166015625 215.9315185546875 116.84266662597656 215.700927734375 116.623291015625 215.81768798828125 L 116.50222778320312 215.55172729492188" stroke-width="0.6000000238418579" fill="rgb(159, 159, 159)" opacity="1.0"/>
    <path d="M 115.04078674316406 224.70135498046875 C 113.03450012207031 223.60400390625 110.6085205078125 223.17013549804688 108.4183349609375 223.82357788085938 C 106.2281494140625 224.47698974609375 104.35198974609375 226.31289672851562 103.94319152832031 228.57144165039062 C 103.65618896484375 230.16864013671875 104.10783386230469 231.84393310546875 104.96978759765625 233.22052001953125 C 105.83174133300781 234.59710693359375 107.075927734375 235.69952392578125 108.42462158203125 236.60504150390625 C 109.01176452636719 236.99874877929688 109.65614318847656 237.36920166015625 110.36102294921875 237.38735961914062 C 111.16912841796875 237.40853881835938 111.907470703125 236.964111328125 112.5736083984375 236.50177001953125 C 114.45419311523438 235.19650268554688 116.20639038085938 233.55328369140625 117.039794921875 231.4208984375 C 117.87322998046875 229.28848266601562 117.57261657714844 226.5941162109375 115.86054992675781 225.0826416015625 L 115.04078674316406 224.70135498046875" stroke-width="0.6000000238418579" fill="rgb(159, 159, 159)" opacity="1.0"/>
    <path d="M 297.4271545410156 105.30859375 C 296.00994873046875 106.80972290039062 294.49969482421875 108.53970336914062 294.5383605957031 110.5997314453125 C 294.5731506347656 112.60317993164062 296.0555114746094 114.25154113769531 297.47381591796875 115.66824340820312 C 298.05084228515625 116.24290466308594 298.66363525390625 116.83489990234375 299.44342041015625 117.06814575195312 C 300.7619934082031 117.46343994140625 302.1504821777344 116.73300170898438 303.2155456542969 115.86405944824219 C 304.2044372558594 115.05792236328125 305.0724182128906 114.11395263671875 305.79296875 113.06109619140625 C 306.96356201171875 111.3519287109375 307.71722412109375 109.05960083007812 306.73333740234375 107.23741149902344 C 306.20361328125 106.25289916992188 305.23040771484375 105.5595703125 304.18670654296875 105.15408325195312 C 303.14300537109375 104.74859619140625 302.0182800292969 104.60325622558594 300.9058837890625 104.47561645507812 C 299.7934875488281 104.34796142578125 298.6977233886719 104.24636840820312 297.6564025878906 104.57853698730469 L 297.4271545410156 105.30859375" stroke-width="0.6000000238418579" fill="rgb(218, 166, 20)" opacity="1.0"/>
    <path d="M 224.262939453125 124.35110473632812 C 221.29080200195312 123.25021362304688 217.98898315429688 124.76715087890625 216.88809204101562 127.73927307128906 C 216.7938232421875 127.9937744140625 216.71771240234375 128.254638671875 216.66036987304688 128.51991271972656 C 216.442626953125 129.52793884277344 216.5179443359375 130.64125061035156 217.08383178710938 131.50277709960938 C 217.56201171875 132.23089599609375 218.33425903320312 132.70936584472656 219.11947631835938 133.08511352539062 C 221.22271728515625 134.08804321289062 223.55609130859375 134.50950622558594 225.87725830078125 134.30575561523438 C 226.49072265625 134.25086975097656 227.11859130859375 134.14584350585938 227.6453857421875 133.8241424560547 C 228.530029296875 133.28460693359375 228.97381591796875 132.21556091308594 229.05474853515625 131.1817626953125 C 229.17596435546875 129.6470489501953 228.60833740234375 128.10028076171875 227.64715576171875 126.89724731445312 C 226.68597412109375 125.69424438476562 225.35711669921875 124.81719970703125 223.92584228515625 124.24955749511719 L 224.262939453125 124.35110473632812" stroke-width="0.6000000238418579" fill="rgb(143, 165, 67)" opacity="1.0"/>
    <path d="M 224.36672973632812 99.151123046875 C 222.20855712890625 102.07659912109375 224.76611328125 106.94914245605469 228.37490844726562 107.10107421875 C 231.98370361328125 107.25300598144531 234.91278076171875 102.91510009765625 233.6630859375 99.5001220703125 C 232.41339111328125 96.08511352539062 227.75247192382812 94.5709228515625 224.5914306640625 96.37545776367188 L 224.36672973632812 99.151123046875" stroke-width="0.6000000238418579" fill="rgb(233, 92, 21)" opacity="1.0"/>
    <path d="M 206.11590576171875 100.06263732910156 C 204.98855590820312 98.54776000976562 203.48480224609375 96.85513305664062 201.60891723632812 97.12190246582031 C 200.86651611328125 97.25712585449219 200.18438720703125 97.619384765625 199.6566162109375 98.15872192382812 C 198.3148193359375 99.4580078125 197.68603515625 101.32707214355469 197.96966552734375 103.17317199707031 C 198.21426391601562 104.73855590820312 199.10589599609375 106.10202026367188 199.99807739257812 107.39958190917969 C 200.50042724609375 108.12765502929688 201.057373046875 108.88522338867188 201.8739013671875 109.21258544921875 C 202.9658203125 109.64004516601562 204.19805908203125 109.17640686035156 205.2205810546875 108.6031494140625 C 206.71810913085938 107.76605224609375 208.07025146484375 106.69207763671875 209.224609375 105.42291259765625 C 209.62261962890625 104.98361206054688 210.00970458984375 104.4971923828125 210.131591796875 103.91731262207031 C 210.21734619140625 103.37232971191406 210.1427001953125 102.81414794921875 209.91671752929688 102.31086730957031 C 209.29061889648438 100.75753784179688 208.0146484375 99.55705261230469 206.426025390625 99.02676391601562 L 206.11590576171875 100.06263732910156" stroke-width="0.6000000238418579" fill="rgb(70, 150, 179)" opacity="1.0"/>
    <path d="M 263.0606994628906 125.83416748046875 C 261.5711669921875 127.24833679199219 259.9794921875 128.8783721923828 259.8903503417969 130.92904663085938 C 259.7959289550781 133.13198852539062 261.5572204589844 135.05372619628906 263.57598876953125 135.94046020507812 C 264.35418701171875 136.28268432617188 265.2171325683594 136.51295471191406 266.0527038574219 136.35679626464844 C 266.7396240234375 136.22869873046875 267.35186767578125 135.85220336914062 267.9239807128906 135.4512939453125 C 269.729736328125 134.18917846679688 271.40643310546875 132.4672088623047 271.7713623046875 130.29502868652344 C 272.13763427734375 128.1055450439453 270.94952392578125 125.73768615722656 268.96771240234375 124.733154296875 C 266.98590087890625 123.72860717773438 264.3729248046875 124.14479064941406 262.8130798339844 125.72909545898438 L 263.0606994628906 125.83416748046875" stroke-width="0.6000000238418579" fill="rgb(140, 28, 33)" opacity="1.0"/>
    <path d="M 318.7362976074219 113.1695556640625 C 318.0128479003906 113.6058349609375 317.26483154296875 114.06777954101562 316.7898864746094 114.76719665527344 C 316.3149719238281 115.46661376953125 316.1925354003906 116.48358154296875 316.73333740234375 117.13320922851562 C 317.4026794433594 117.93363952636719 318.7906799316406 117.76222229003906 319.498046875 116.99263000488281 C 320.2054443359375 116.2230224609375 320.3529052734375 115.08346557617188 320.2396545410156 114.04560852050781 C 320.2367858886719 113.7208251953125 320.1123046875 113.40892028808594 319.8907165527344 113.17144775390625 C 319.6492004394531 112.96221923828125 319.1854553222656 112.99943542480469 319.0885314941406 113.30557250976562 L 318.7362976074219 113.1695556640625" stroke-width="0.6000000238418579" fill="rgb(159, 159, 159)" opacity="1.0"/>
    <path d="M 202.026123046875 126.21939086914062 C 200.07049560546875 125.09762573242188 197.68795776367188 124.6214599609375 195.51605224609375 125.22174072265625 C 193.34414672851562 125.82200622558594 191.4581298828125 127.59408569335938 191.010009765625 129.81211853027344 C 190.69515991210938 131.3806915283203 191.1068115234375 133.04104614257812 191.92889404296875 134.41517639160156 C 192.7509765625 135.789306640625 193.955322265625 136.90084838867188 195.26657104492188 137.8203582763672 C 195.83743286132812 138.2201690673828 196.46517944335938 138.59823608398438 197.15960693359375 138.63021850585938 C 197.95571899414062 138.66725158691406 198.6923828125 138.24395751953125 199.35821533203125 137.8015594482422 C 201.238037109375 136.55258178710938 202.99798583984375 134.9679412841797 203.86212158203125 132.8827362060547 C 204.72625732421875 130.7975311279297 204.48385620117188 128.13572692871094 202.8265380859375 126.61163330078125 L 202.026123046875 126.21939086914062" stroke-width="0.6000000238418579" fill="rgb(159, 159, 159)" opacity="1.0"/>
    <path d="M 279.33233642578125 107.31196594238281 C 277.5843505859375 107.75384521484375 275.6605224609375 108.32073974609375 274.723388671875 109.85690307617188 C 273.8099060058594 111.34954833984375 274.1296081542969 113.25909423828125 274.51068115234375 114.96788024902344 C 274.66650390625 115.66183471679688 274.8406066894531 116.38531494140625 275.3058776855469 116.92271423339844 C 276.0922546386719 117.83209228515625 277.45782470703125 117.94467163085938 278.64996337890625 117.8035888671875 C 279.7565612792969 117.67308044433594 280.8386535644531 117.38433837890625 281.8631591796875 116.94622802734375 C 283.52691650390625 116.2354736328125 285.1568298339844 114.8995361328125 285.28594970703125 113.09555053710938 C 285.3570861816406 112.12176513671875 284.9649353027344 111.15464782714844 284.3858947753906 110.36660766601562 C 283.8068542480469 109.57858276367188 283.0461730957031 108.94427490234375 282.2862854003906 108.32878112792969 C 281.5263977050781 107.71328735351562 280.76654052734375 107.12478637695312 279.8434753417969 106.88143920898438 L 279.33233642578125 107.31196594238281" stroke-width="0.6000000238418579" fill="rgb(218, 166, 20)" opacity="1.0"/>
    <path d="M 242.62921142578125 121.97654724121094 C 240.444580078125 123.91696166992188 240.24664306640625 127.26095581054688 242.18704223632812 129.44557189941406 C 242.35321044921875 129.63262939453125 242.53240966796875 129.80767822265625 242.72335815429688 129.96939086914062 C 243.448974609375 130.58370971679688 244.3873291015625 131.0052947998047 245.3336181640625 130.9185791015625 C 246.13333129882812 130.84536743164062 246.85751342773438 130.4246368408203 247.50375366210938 129.9488067626953 C 249.2318115234375 128.6727752685547 250.58670043945312 126.95730590820312 251.42767333984375 124.98062133789062 C 251.6490478515625 124.457763671875 251.8359375 123.90142822265625 251.80267333984375 123.3333740234375 C 251.7474365234375 122.37966918945312 251.07022094726562 121.55500793457031 250.26431274414062 121.04080200195312 C 249.068359375 120.27656555175781 247.5638427734375 120.0675048828125 246.1683349609375 120.32768249511719 C 244.77276611328125 120.58786010742188 243.48294067382812 121.28855895996094 242.400390625 122.20672607421875 L 242.62921142578125 121.97654724121094" stroke-width="0.6000000238418579" fill="rgb(143, 165, 67)" opacity="1.0"/>
    <path d="M 250.61181640625 98.70545959472656 C 248.57586669921875 101.634521484375 251.2191162109375 106.34304809570312 254.762939453125 106.392333984375 C 258.3067932128906 106.44161987304688 261.05987548828125 102.10586547851562 259.7397155761719 98.79081726074219 C 258.4195861816406 95.47576904296875 253.80609130859375 94.11941528320312 250.7554931640625 95.97674560546875 L 250.61181640625 98.70545959472656" stroke-width="0.6000000238418579" fill="rgb(233, 92, 21)" opacity="1.0"/>
    <path d="M 341.9710693359375 90.00764465332031 C 340.3128356933594 89.8541259765625 338.3161315917969 89.84271240234375 337.38531494140625 91.23043823242188 C 337.036376953125 91.79710388183594 336.87188720703125 92.45809936523438 336.91455078125 93.12222290039062 C 336.9758605957031 94.76824951171875 337.8311767578125 96.282470703125 339.20928955078125 97.1846923828125 C 340.3802795410156 97.947021484375 341.80023193359375 98.16592407226562 343.1772766113281 98.3455810546875 C 343.95098876953125 98.44526672363281 344.77618408203125 98.52651977539062 345.4722595214844 98.18391418457031 C 346.3963317871094 97.71963500976562 346.8185729980469 96.63809204101562 347.0453186035156 95.62942504882812 C 347.3790283203125 94.1536865234375 347.4716491699219 92.6336669921875 347.3196105957031 91.12831115722656 C 347.2660827636719 90.60829162597656 347.1752014160156 90.06765747070312 346.86669921875 89.6458740234375 C 346.5597839355469 89.26835632324219 346.1496276855469 88.98828125 345.6863098144531 88.83984375 C 344.29833984375 88.33486938476562 342.7586975097656 88.46417236328125 341.47442626953125 89.19357299804688 L 341.9710693359375 90.00764465332031" stroke-width="0.6000000238418579" fill="rgb(70, 150, 179)" opacity="1.0"/>
    <path d="M 339.40692138671875 116.825439453125 C 338.1060485839844 115.02825927734375 336.5886535644531 113.0908203125 334.4058532714844 112.70187377929688 C 332.0607604980469 112.28547668457031 329.75115966796875 113.89617919921875 328.5128173828125 115.93064880371094 C 328.0350646972656 116.71485900878906 327.6650085449219 117.60580444335938 327.71258544921875 118.52275085449219 C 327.7514343261719 119.27655029296875 328.06689453125 119.98593139648438 328.41424560546875 120.65585327148438 C 329.507080078125 122.76982116699219 331.1107177734375 124.81146240234375 333.3841552734375 125.51307678222656 C 335.6759033203125 126.21859741210938 338.381103515625 125.28546142578125 339.7402648925781 123.30740356445312 C 341.09942626953125 121.329345703125 341.02783203125 118.47219848632812 339.55487060546875 116.57534790039062 L 339.40692138671875 116.825439453125" stroke-width="0.6000000238418579" fill="rgb(140, 28, 33)" opacity="1.0"/>
    <path d="M 360.7157897949219 104.07821655273438 C 360.222412109375 104.37918090820312 359.7123718261719 104.69778442382812 359.3899230957031 105.17788696289062 C 359.0675048828125 105.65798950195312 358.9872741699219 106.35408020019531 359.3594970703125 106.79656982421875 C 359.8201599121094 107.34176635742188 360.76904296875 107.21966552734375 361.250244140625 106.69073486328125 C 361.7314453125 106.16183471679688 361.82830810546875 105.38177490234375 361.7472229003906 104.6722412109375 C 361.744140625 104.4500732421875 361.65789794921875 104.23715209960938 361.5054931640625 104.07546997070312 C 361.33953857421875 103.93319702148438 361.0224304199219 103.96026611328125 360.95721435546875 104.1700439453125 L 360.7157897949219 104.07821655273438" stroke-width="0.6000000238418579" fill="rgb(159, 159, 159)" opacity="1.0"/>
    <path d="M 353.89715576171875 116.57046508789062 C 352.0083312988281 116.99708557128906 350.22454833984375 118.08016967773438 349.19940185546875 119.72177124023438 C 348.1742858886719 121.36337280273438 348.0108337402344 123.58013916015625 349.01605224609375 125.24356079101562 C 349.728271484375 126.41873168945312 350.9533386230469 127.22982788085938 352.271728515625 127.62142944335938 C 353.59014892578125 128.01303100585938 354.9977722167969 128.0164337158203 356.3614807128906 127.83624267578125 C 356.95489501953125 127.75747680664062 357.5716552734375 127.63189697265625 358.0295104980469 127.2486572265625 C 358.55462646484375 126.80953979492188 358.7746887207031 126.11376953125 358.9388427734375 125.44706726074219 C 359.40228271484375 123.56483459472656 359.5948791503906 121.53988647460938 358.92999267578125 119.71876525878906 C 358.2651062011719 117.89764404296875 356.56524658203125 116.35470581054688 354.63134765625 116.35354614257812 L 353.89715576171875 116.57046508789062" stroke-width="0.6000000238418579" fill="rgb(159, 159, 159)" opacity="1.0"/>
    <path d="M 365.753662109375 106.63490295410156 C 364.23944091796875 106.82244873046875 362.564453125 107.09649658203125 361.6162414550781 108.28805541992188 C 360.6924743652344 109.445556640625 360.7604675292969 111.08261108398438 360.90106201171875 112.55752563476562 C 360.9590759277344 113.15658569335938 361.029296875 113.78239440917969 361.3635559082031 114.28250122070312 C 361.9284362792969 115.12869262695312 363.0633239746094 115.3665771484375 364.0791931152344 115.373291015625 C 365.0221252441406 115.37986755371094 365.9610900878906 115.25100708007812 366.8674011230469 114.99067687988281 C 368.339111328125 114.56851196289062 369.8480224609375 113.6177978515625 370.1458435058594 112.11654663085938 C 370.30780029296875 111.30628967285156 370.08001708984375 110.45301818847656 369.6765441894531 109.73049926757812 C 369.2730407714844 109.00798034667969 368.70086669921875 108.39547729492188 368.12738037109375 107.79885864257812 C 367.5539245605469 107.20223999023438 366.9776306152344 106.6282958984375 366.22808837890625 106.32705688476562 L 365.753662109375 106.63490295410156" stroke-width="0.6000000238418579" fill="rgb(218, 166, 20)" opacity="1.0"/>
    <path d="M 431.2821044921875 162.850830078125 C 428.785400390625 162.84710693359375 426.75830078125 164.86810302734375 426.754638671875 167.3648681640625 C 426.7542724609375 167.57867431640625 426.7691650390625 167.79220581054688 426.799072265625 168.00390625 C 426.912841796875 168.80828857421875 427.2718505859375 169.61062622070312 427.9249267578125 170.09320068359375 C 428.476806640625 170.50103759765625 429.177978515625 170.64422607421875 429.8607177734375 170.70794677734375 C 431.6885986328125 170.87603759765625 433.528076171875 170.55166625976562 435.1881103515625 169.76849365234375 C 435.6265869140625 169.56076049804688 436.06201171875 169.31201171875 436.36370849609375 168.93069458007812 C 436.87054443359375 168.29083251953125 436.9072265625 167.37973022460938 436.685302734375 166.59359741210938 C 436.356689453125 165.42620849609375 435.515625 164.43768310546875 434.477294921875 163.8104248046875 C 433.4390869140625 163.1832275390625 432.21783447265625 162.89715576171875 431.0052490234375 162.86761474609375 L 431.2821044921875 162.850830078125" stroke-width="0.6000000238418579" fill="rgb(143, 165, 67)" opacity="1.0"/>
    <path d="M 139.20037841796875 413.6002197265625 C 136.318603515625 415.72125244140625 137.30239868164062 421.047607421875 140.6507110595703 422.2425537109375 C 143.9990234375 423.4375 148.01734924316406 420.21337890625 147.83811950683594 416.6385498046875 C 147.65890502929688 413.0638427734375 143.71864318847656 410.2814636230469 140.22084045410156 411.0563049316406 L 139.20037841796875 413.6002197265625" stroke-width="0.6000000238418579" fill="rgb(233, 92, 21)" opacity="1.0"/>
    <path d="M 431.3858642578125 178.11538696289062 C 429.89935302734375 177.90850830078125 428.1021728515625 177.81561279296875 427.206787109375 179.02642822265625 C 426.869140625 179.52215576171875 426.6937255859375 180.11044311523438 426.70458984375 180.71011352539062 C 426.691650390625 182.194580078125 427.3990478515625 183.59323120117188 428.6024169921875 184.4625244140625 C 429.6251220703125 185.19732666015625 430.8944091796875 185.45318603515625 432.126708984375 185.67193603515625 C 432.81915283203125 185.793701171875 433.5587158203125 185.9010009765625 434.1995849609375 185.62136840820312 C 435.05072021484375 185.24163818359375 435.47564697265625 184.285400390625 435.7215576171875 183.38671875 C 436.0830078125 182.0718994140625 436.2293701171875 180.707275390625 436.15478515625 179.345703125 C 436.12811279296875 178.87530517578125 436.06866455078125 178.38482666015625 435.808349609375 177.9923095703125 C 435.5477294921875 177.63973999023438 435.1900634765625 177.37063598632812 434.779052734375 177.21780395507812 C 433.55035400390625 176.70571899414062 432.158935546875 176.7584228515625 430.972412109375 177.3619384765625 L 431.3858642578125 178.11538696289062" stroke-width="0.6000000238418579" fill="rgb(70, 150, 179)" opacity="1.0"/>
    <path d="M 415.00244140625 160.68505859375 C 413.95843505859375 159.18023681640625 412.738037109375 157.55609130859375 410.9428405761719 157.19903564453125 C 409.0141906738281 156.81661987304688 407.0813293457031 158.10787963867188 406.0256652832031 159.7666015625 C 405.61834716796875 160.40597534179688 405.2982177734375 161.13519287109375 405.3223571777344 161.892822265625 C 405.34197998046875 162.515625 405.59063720703125 163.1063232421875 405.8662414550781 163.66497802734375 C 406.7333068847656 165.42782592773438 408.023193359375 167.139404296875 409.88800048828125 167.75604248046875 C 411.7678527832031 168.37619018554688 414.01605224609375 167.65069580078125 415.1705322265625 166.04052734375 C 416.324951171875 164.43035888671875 416.3131103515625 162.07098388671875 415.128662109375 160.4810791015625 L 415.00244140625 160.68505859375" stroke-width="0.6000000238418579" fill="rgb(140, 28, 33)" opacity="1.0"/>
    <path d="M 147.0 115.0 C 146.5576171875 115.33229064941406 146.10096740722656 115.68293762207031 145.83798217773438 116.170166015625 C 145.5749969482422 116.65739440917969 145.56277465820312 117.32810974121094 145.95826721191406 117.7154541015625 C 146.44752502441406 118.19247436523438 147.3404541015625 117.98861694335938 147.75021362304688 117.44023132324219 C 148.15997314453125 116.891845703125 148.18035888671875 116.13958740234375 148.03765869140625 115.47091674804688 C 148.01422119140625 115.25950622558594 147.9123992919922 115.0645751953125 147.75225830078125 114.924560546875 C 147.5810089111328 114.80429077148438 147.2813262939453 114.85934448242188 147.23851013183594 115.06523132324219 L 147.0 115.0" stroke-width="0.6000000238418579" fill="rgb(159, 159, 159)" opacity="1.0"/>
    <path d="M 423.1015625 174.35516357421875 C 421.5836181640625 173.899658203125 419.87646484375 173.95431518554688 418.485595703125 174.71221923828125 C 417.0947265625 175.47015380859375 416.086669921875 176.98455810546875 416.13427734375 178.57452392578125 C 416.1693115234375 179.6986083984375 416.7164306640625 180.76943969726562 417.4986572265625 181.57879638671875 C 418.281005859375 182.38812255859375 419.282958984375 182.9566650390625 420.3275146484375 183.37661743164062 C 420.7822265625 183.55911254882812 421.2723388671875 183.7176513671875 421.7528076171875 183.62860107421875 C 422.3037109375 183.5267333984375 422.74041748046875 183.11929321289062 423.12554931640625 182.7100830078125 C 424.21282958984375 181.55474853515625 425.16448974609375 180.18881225585938 425.42291259765625 178.623291015625 C 425.68133544921875 177.05780029296875 425.09014892578125 175.27435302734375 423.712158203125 174.49578857421875 L 423.1015625 174.35516357421875" stroke-width="0.6000000238418579" fill="rgb(159, 159, 159)" opacity="1.0"/>
    <path d="M 414.0655517578125 181.1920166015625 C 412.822998046875 179.802001953125 411.38165283203125 178.31072998046875 409.5249328613281 178.1881103515625 C 407.71942138671875 178.06634521484375 406.1228332519531 179.27432250976562 404.7395935058594 180.4423828125 C 404.1783752441406 180.91769409179688 403.59881591796875 181.42388916015625 403.329345703125 182.1077880859375 C 402.87286376953125 183.26416015625 403.424072265625 184.56939697265625 404.1246337890625 185.59423828125 C 404.77447509765625 186.54571533203125 405.5575866699219 187.39892578125 406.4499816894531 188.1278076171875 C 407.8985595703125 189.311767578125 409.9037780761719 190.1651611328125 411.61871337890625 189.41900634765625 C 412.545166015625 189.017578125 413.243408203125 188.19476318359375 413.6881103515625 187.28656005859375 C 414.1326904296875 186.37835693359375 414.34942626953125 185.37734985351562 414.54931640625 184.38607788085938 C 414.7491455078125 183.39483642578125 414.92431640625 182.41650390625 414.7049560546875 181.4541015625 L 414.0655517578125 181.1920166015625" stroke-width="0.6000000238418579" fill="rgb(218, 166, 20)" opacity="1.0"/>
    <path d="M 443.9847412109375 178.60626220703125 C 441.62109375 180.638427734375 441.35235595703125 184.20193481445312 443.384521484375 186.5655517578125 C 443.55853271484375 186.7679443359375 443.7467041015625 186.957763671875 443.94757080078125 187.133544921875 C 444.7109375 187.80126953125 445.70458984375 188.26712036132812 446.7154541015625 188.19091796875 C 447.56976318359375 188.1265869140625 448.3494873046875 187.69027709960938 449.0469970703125 187.19384765625 C 450.9122314453125 185.86248779296875 452.38690185546875 184.0560302734375 453.31793212890625 181.9620361328125 C 453.5631103515625 181.40811157226562 453.77197265625 180.81793212890625 453.746337890625 180.21142578125 C 453.70379638671875 179.19320678710938 452.99560546875 178.30191040039062 452.1448974609375 177.73956298828125 C 450.88232421875 176.90380859375 449.2811279296875 176.6549072265625 447.7880859375 176.90838623046875 C 446.2950439453125 177.16192626953125 444.9072265625 177.88714599609375 443.7366943359375 178.84783935546875 L 443.9847412109375 178.60626220703125" stroke-width="0.6000000238418579" fill="rgb(143, 165, 67)" opacity="1.0"/>
    <path d="M 142.8751220703125 110.13179016113281 C 136.08505249023438 112.9888916015625 135.48812866210938 124.12408447265625 141.61444091796875 128.12905883789062 C 147.7407684326172 132.13400268554688 157.33718872070312 127.6165771484375 158.70068359375 120.37490844726562 C 160.064208984375 113.13323974609375 153.517822265625 105.66572570800781 146.143310546875 105.53152465820312 L 142.8751220703125 110.13179016113281" stroke-width="0.6000000238418579" fill="rgb(233, 92, 21)" opacity="1.0"/>
    <path d="M 444.0062255859375 150.8544921875 C 441.5042724609375 152.9439697265625 438.73223876953125 155.69940185546875 439.3734130859375 158.90679931640625 C 439.67822265625 160.17327880859375 440.3685302734375 161.31396484375 441.34912109375 162.17147827148438 C 443.71820068359375 164.3585205078125 447.0003662109375 165.26153564453125 450.15484619140625 164.59426879882812 C 452.8292236328125 164.0213623046875 455.093017578125 162.35284423828125 457.24322509765625 160.68966674804688 C 458.44952392578125 159.75344848632812 459.701416015625 158.7203369140625 460.18670654296875 157.2813720703125 C 460.81787109375 155.35801696777344 459.899658203125 153.27906799316406 458.812744140625 151.57208251953125 C 457.2252197265625 149.07192993164062 455.2435302734375 146.84521484375 452.9444580078125 144.97830200195312 C 452.1488037109375 144.33477783203125 451.2730712890625 143.7146759033203 450.26177978515625 143.5606231689453 C 449.314208984375 143.46548461914062 448.359375 143.6481170654297 447.5137939453125 144.0862579345703 C 444.89703369140625 145.31552124023438 442.9512939453125 147.6308135986328 442.19085693359375 150.42010498046875 L 444.0062255859375 150.8544921875" stroke-width="0.6000000238418579" fill="rgb(70, 150, 179)" opacity="1.0"/>
    <path d="M 377.9896240234375 86.5181884765625 C 376.326171875 83.72836303710938 374.365234375 80.70590209960938 371.2326965332031 79.85504150390625 C 367.86712646484375 78.94303894042969 364.289794921875 80.99166870117188 362.2195739746094 83.79751586914062 C 361.4209289550781 84.87899780273438 360.7655334472656 86.130126953125 360.71575927734375 87.47344970703125 C 360.6744384765625 88.57774353027344 361.0422668457031 89.65318298339844 361.46173095703125 90.67526245117188 C 362.78057861328125 93.89997863769531 364.8537902832031 97.08563232421875 368.07781982421875 98.40420532226562 C 371.32806396484375 99.73089599609375 375.39422607421875 98.72171020507812 377.63330078125 96.01383972167969 C 379.87237548828125 93.30596923828125 380.1393127441406 89.13023376464844 378.2378845214844 86.1727294921875 L 377.9896240234375 86.5181884765625" stroke-width="0.6000000238418579" fill="rgb(140, 28, 33)" opacity="1.0"/>
    <path d="M 127.58566284179688 407.0940246582031 C 126.32261657714844 407.56353759765625 125.01351928710938 408.0660095214844 124.06202697753906 409.02154541015625 C 123.11056518554688 409.9770812988281 122.61749267578125 411.53466796875 123.272705078125 412.7130126953125 C 124.08473205566406 414.1656494140625 126.31082153320312 414.30804443359375 127.64739990234375 413.3114013671875 C 128.9839630126953 412.314697265625 129.55252075195312 410.5723571777344 129.68240356445312 408.9122314453125 C 129.77410888671875 408.40234375 129.6713409423828 407.87664794921875 129.39437866210938 407.4388732910156 C 129.0778350830078 407.0394287109375 128.33998107910156 406.9604187011719 128.097412109375 407.4115295410156 L 127.58566284179688 407.0940246582031" stroke-width="0.6000000238418579" fill="rgb(159, 159, 159)" opacity="1.0"/>
    <path d="M 414.83056640625 201.76608276367188 C 412.13671875 199.40118408203125 408.5739440917969 197.90774536132812 405.0 198.15823364257812 C 401.426025390625 198.40875244140625 397.9280090332031 200.57550048828125 396.5301513671875 203.89071655273438 C 395.5448303222656 206.23587036132812 395.6627502441406 208.95315551757812 396.510498046875 211.35382080078125 C 397.3582458496094 213.75448608398438 398.8844909667969 215.86651611328125 400.637939453125 217.7130126953125 C 401.4014892578125 218.51608276367188 402.2605285644531 219.30322265625 403.3326110839844 219.57208251953125 C 404.56158447265625 219.880859375 405.8431091308594 219.45352172851562 407.0202331542969 218.97412109375 C 410.3435363769531 217.62054443359375 413.58599853515625 215.70611572265625 415.59027099609375 212.7291259765625 C 417.59454345703125 209.7520751953125 418.0562744140625 205.52752685546875 415.95416259765625 202.6297607421875 L 414.83056640625 201.76608276367188" stroke-width="0.6000000238418579" fill="rgb(159, 159, 159)" opacity="1.0"/>
    <path d="M 385.8223876953125 113.59756469726562 C 382.4640808105469 114.21197509765625 378.7577819824219 115.0404052734375 376.79345703125 117.8245849609375 C 374.8793640136719 120.52952575683594 375.2425537109375 124.17764282226562 375.7470397949219 127.4542236328125 C 375.9539489746094 128.78497314453125 376.19158935546875 130.17385864257812 377.0028991699219 131.2478790283203 C 378.37396240234375 133.065185546875 380.9398193359375 133.45010375976562 383.21002197265625 133.33392333984375 C 385.31719970703125 133.2268829345703 387.3980712890625 132.81784057617188 389.38897705078125 132.11929321289062 C 392.6220703125 130.98622131347656 395.8700256347656 128.66770935058594 396.34149169921875 125.27566528320312 C 396.59869384765625 123.44477844238281 395.979736328125 121.568115234375 394.985107421875 120.00619506835938 C 393.990478515625 118.44430541992188 392.63330078125 117.14993286132812 391.27520751953125 115.89122009277344 C 389.9171142578125 114.63250732421875 388.5556945800781 113.42477416992188 386.8424072265625 112.84860229492188 L 385.8223876953125 113.59756469726562" stroke-width="0.6000000238418579" fill="rgb(218, 166, 20)" opacity="1.0"/>
    <path d="M 400.9173583984375 87.17892456054688 C 396.4744567871094 84.47779846191406 390.6830749511719 85.88980102539062 387.98193359375 90.33270263671875 C 387.7506408691406 90.71315002441406 387.546630859375 91.10952758789062 387.37139892578125 91.51885986328125 C 386.7059631347656 93.07431030273438 386.4795837402344 94.89083862304688 387.1219482421875 96.455078125 C 387.6646728515625 97.77703857421875 388.7590026855469 98.78878784179688 389.9062805175781 99.63916015625 C 392.98040771484375 101.91116333007812 396.6067810058594 103.31861877441406 400.40875244140625 103.71533203125 C 401.41387939453125 103.81849670410156 402.4578552246094 103.84539794921875 403.4067077636719 103.49179077148438 C 404.9999694824219 102.89910888671875 406.04852294921875 101.31594848632812 406.501708984375 99.67626953125 C 407.17620849609375 97.242431640625 406.7450256347656 94.57403564453125 405.57269287109375 92.33639526367188 C 404.4003601074219 90.09873962402344 402.5340270996094 88.27127075195312 400.40618896484375 86.91012573242188 L 400.9173583984375 87.17892456054688" stroke-width="0.6000000238418579" fill="rgb(143, 165, 67)" opacity="1.0"/>
    <path d="M 118.39181518554688 419.0823974609375 C 113.1124267578125 414.19439697265625 102.96656799316406 418.1533203125 101.87423706054688 425.2177734375 C 100.78193664550781 432.2822265625 108.66983032226562 438.9970703125 115.66136169433594 437.2900390625 C 122.65289306640625 435.58294677734375 126.6558837890625 426.7486572265625 123.80172729492188 420.1346435546875 L 118.39181518554688 419.0823974609375" stroke-width="0.6000000238418579" fill="rgb(233, 92, 21)" opacity="1.0"/>
    <path d="M 440.53125 196.17730712890625 C 437.99951171875 198.344482421875 435.2000732421875 201.19573974609375 435.89544677734375 204.46661376953125 C 436.2227783203125 205.75750732421875 436.94268798828125 206.9150390625 437.955810546875 207.77944946289062 C 440.4049072265625 209.98568725585938 443.77142333984375 210.86801147460938 446.98779296875 210.1466064453125 C 449.71466064453125 209.5277099609375 452.00811767578125 207.79379272460938 454.18548583984375 206.06683349609375 C 455.40704345703125 205.09475708007812 456.6739501953125 204.0230712890625 457.152099609375 202.54598999023438 C 457.7734375 200.57196044921875 456.80889892578125 198.4581298828125 455.67657470703125 196.72662353515625 C 454.0225830078125 194.1905517578125 451.968994140625 191.93890380859375 449.595458984375 190.05902099609375 C 448.77410888671875 189.41107177734375 447.87109375 188.78802490234375 446.83544921875 188.64312744140625 C 445.86553955078125 188.55767822265625 444.8917236328125 188.7562255859375 444.03271484375 189.21466064453125 C 441.373046875 190.50387573242188 439.4127197265625 192.89495849609375 438.6700439453125 195.75582885742188 L 440.53125 196.17730712890625" stroke-width="0.6000000238418579" fill="rgb(70, 150, 179)" opacity="1.0"/>
    <path d="M 417.27197265625 136.47900390625 C 415.4361572265625 133.4519500732422 413.27423095703125 130.1737823486328 409.8531188964844 129.27200317382812 C 406.177490234375 128.30551147460938 402.2952880859375 130.5675506591797 400.0618896484375 133.64256286621094 C 399.2002868652344 134.82778930664062 398.4961853027344 136.19674682617188 398.4529113769531 137.66127014160156 C 398.4169006347656 138.86517333984375 398.82659912109375 140.03428649902344 399.2920837402344 141.1448211669922 C 400.7558898925781 144.648681640625 403.0414733886719 148.10379028320312 406.5661315917969 149.5145721435547 C 410.11944580078125 150.93397521972656 414.54290771484375 149.80084228515625 416.961181640625 146.8312530517578 C 419.37939453125 143.8616485595703 419.63623046875 139.3083038330078 417.5396728515625 136.10044860839844 L 417.27197265625 136.47900390625" stroke-width="0.6000000238418579" fill="rgb(140, 28, 33)" opacity="1.0"/>
    <path d="M 404.2914733886719 87.27998352050781 C 404.0367126464844 88.66143798828125 403.786865234375 90.10171508789062 404.1336364746094 91.46401977539062 C 404.48040771484375 92.8262939453125 405.611083984375 94.10003662109375 407.01593017578125 94.14329528808594 C 408.7501525878906 94.19281005859375 410.0672607421875 92.27638244628906 409.88946533203125 90.54742431640625 C 409.7116394042969 88.81845092773438 408.4559631347656 87.37838745117188 407.0394287109375 86.37493896484375 C 406.632080078125 86.02037048339844 406.1065979003906 85.8314208984375 405.5667419433594 85.8453369140625 C 405.0400390625 85.91520690917969 404.57501220703125 86.53341674804688 404.8491516113281 86.99160766601562 L 404.2914733886719 87.27998352050781" stroke-width="0.6000000238418579" fill="rgb(159, 159, 159)" opacity="1.0"/>
    <path d="M 437.91796875 229.69708251953125 C 435.3065185546875 232.2476806640625 433.511962890625 235.74856567382812 433.4873046875 239.39697265625 C 433.46270751953125 243.04541015625 435.3896484375 246.76626586914062 438.64666748046875 248.44439697265625 C 440.950927734375 249.62789916992188 443.7191162109375 249.72030639648438 446.222900390625 249.04693603515625 C 448.7265625 248.37356567382812 450.99017333984375 246.98876953125 453.00189208984375 245.35250854492188 C 453.876953125 244.63995361328125 454.74322509765625 243.82916259765625 455.099853515625 242.7615966796875 C 455.50933837890625 241.537841796875 455.175537109375 240.20330810546875 454.7806396484375 238.97064208984375 C 453.6656494140625 235.49066162109375 451.9749755859375 232.0489501953125 449.10870361328125 229.781494140625 C 446.242431640625 227.5140380859375 441.989013671875 226.71548461914062 438.8826904296875 228.6236572265625 L 437.91796875 229.69708251953125" stroke-width="0.6000000238418579" fill="rgb(159, 159, 159)" opacity="1.0"/>
    <path d="M 413.061767578125 257.4272766113281 C 410.3858947753906 255.00897216796875 407.3067321777344 252.43682861328125 403.7099609375 252.58270263671875 C 400.2119140625 252.71969604492188 397.3891296386719 255.37164306640625 394.96856689453125 257.90283203125 C 393.98675537109375 258.93255615234375 392.9760437011719 260.02545166015625 392.5982666015625 261.3963317871094 C 391.9579772949219 263.71453857421875 393.2866516113281 266.11199951171875 394.84490966796875 267.93927001953125 C 396.29058837890625 269.6358642578125 397.972412109375 271.1160583496094 399.8388671875 272.3345947265625 C 402.8687438964844 274.314208984375 406.9013671875 275.5434265136719 410.0467529296875 273.7555847167969 C 411.7462158203125 272.7928771972656 412.9202880859375 271.0666198730469 413.58880615234375 269.2281799316406 C 414.25732421875 267.3897705078125 414.46844482421875 265.4197082519531 414.6490478515625 263.4718322753906 C 414.8297119140625 261.52398681640625 414.96551513671875 259.60614013671875 414.345703125 257.7999267578125 L 413.061767578125 257.4272766113281" stroke-width="0.6000000238418579" fill="rgb(218, 166, 20)" opacity="1.0"/>
    <path d="M 411.1129150390625 88.8502197265625 C 407.0571594238281 92.37265014648438 406.62481689453125 98.51597595214844 410.1472473144531 102.57171630859375 C 410.4488830566406 102.91900634765625 410.7747802734375 103.24447631835938 411.1224365234375 103.545654296875 C 412.44378662109375 104.6898193359375 414.16015625 105.48402404785156 415.901611328125 105.34397888183594 C 417.3731689453125 105.22576904296875 418.713134765625 104.46711730957031 419.91082763671875 103.60562133789062 C 423.11370849609375 101.29519653320312 425.6395263671875 98.16934204101562 427.2259521484375 94.552734375 C 427.6436767578125 93.59605407714844 427.99853515625 92.57717895507812 427.94903564453125 91.53219604492188 C 427.86700439453125 89.77786254882812 426.638916015625 88.24798583984375 425.16790771484375 87.28622436523438 C 422.9849853515625 85.85684204101562 420.2235107421875 85.44171142578125 417.6527099609375 85.8914794921875 C 415.0819091796875 86.34121704101562 412.6964111328125 87.60295104980469 410.6875915527344 89.2686767578125 L 411.1129150390625 88.8502197265625" stroke-width="0.6000000238418579" fill="rgb(143, 165, 67)" opacity="1.0"/>
    <path d="M 438.43701171875 127.74702453613281 C 434.0277099609375 132.69125366210938 437.84661865234375 141.9637451171875 444.3690185546875 142.84805297851562 C 450.8914794921875 143.73231506347656 456.9378662109375 136.3552703857422 455.2462158203125 129.94805908203125 C 453.5545654296875 123.54084777832031 445.352783203125 120.00732421875 439.3128662109375 122.74850463867188 L 438.43701171875 127.74702453613281" stroke-width="0.6000000238418579" fill="rgb(233, 92, 21)" opacity="1.0"/>
    <path d="M 438.400634765625 100.22705078125 C 436.1029052734375 102.4627685546875 433.59002685546875 105.37168884277344 434.4580078125 108.46926879882812 C 434.8514404296875 109.68852233886719 435.6134033203125 110.75567626953125 436.6390380859375 111.52348327636719 C 439.12548828125 113.49151611328125 442.41162109375 114.13229370117188 445.455322265625 113.24261474609375 C 448.0352783203125 112.48130798339844 450.130859375 110.6761474609375 452.11541748046875 108.88475036621094 C 453.22857666015625 107.87664794921875 454.379150390625 106.7701416015625 454.747802734375 105.32276916503906 C 455.2232666015625 103.3895263671875 454.167724609375 101.41925048828125 452.97454833984375 99.82632446289062 C 451.231201171875 97.492919921875 449.1217041015625 95.45706176757812 446.727783203125 93.7977294921875 C 445.8995361328125 93.22599792480469 444.99444580078125 92.68319702148438 443.9912109375 92.6075439453125 C 443.05487060546875 92.58493041992188 442.13214111328125 92.83526611328125 441.3355712890625 93.3280029296875 C 438.861083984375 94.72869873046875 437.12567138671875 97.14436340332031 436.5880126953125 99.93646240234375 L 438.400634765625 100.22705078125" stroke-width="0.6000000238418579" fill="rgb(70, 150, 179)" opacity="1.0"/>
    <path d="M 312.3006286621094 389.8821105957031 C 309.2530822753906 389.5802307128906 305.8624572753906 389.37359619140625 303.4620361328125 391.27215576171875 C 300.8846740722656 393.31317138671875 300.4336242675781 397.1736755371094 301.4012145996094 400.3156433105469 C 301.7737731933594 401.5272216796875 302.355224609375 402.7252502441406 303.345947265625 403.51568603515625 C 304.16015625 404.165771484375 305.1817321777344 404.4894714355469 306.1917724609375 404.7441101074219 C 309.3760070800781 405.5509338378906 312.9532775878906 405.7638854980469 315.7596130371094 404.0580139160156 C 318.5868225097656 402.3368225097656 320.0999450683594 398.6880798339844 319.30126953125 395.47296142578125 C 318.5025939941406 392.2578430175781 315.4858093261719 389.7156677246094 312.1777648925781 389.50030517578125 L 312.3006286621094 389.8821105957031" stroke-width="0.6000000238418579" fill="rgb(140, 28, 33)" opacity="1.0"/>
    <path d="M 311.0 391.0 C 309.47491455078125 392.14556884765625 307.9006042480469 393.3544006347656 306.99395751953125 395.03411865234375 C 306.08734130859375 396.7138366699219 306.0451965332031 399.0260925292969 307.40863037109375 400.3614196777344 C 309.0953674316406 402.0060119628906 312.1736755371094 401.3031921386719 313.5863342285156 399.4126281738281 C 314.9989929199219 397.5220642089844 315.06927490234375 394.9286804199219 314.5773010253906 392.6235046386719 C 314.49652099609375 391.8946533203125 314.14544677734375 391.22259521484375 313.5933837890625 390.73992919921875 C 313.0030212402344 390.3252868652344 311.9698791503906 390.5150451660156 311.822265625 391.2248840332031 L 311.0 391.0" stroke-width="0.6000000238418579" fill="rgb(159, 159, 159)" opacity="1.0"/>
    <path d="M 325.4559020996094 400.9442443847656 C 321.5699462890625 402.66168212890625 318.187744140625 405.7479248046875 316.6751403808594 409.71575927734375 C 315.16253662109375 413.68359375 315.748291015625 418.525146484375 318.6160583496094 421.68115234375 C 320.64642333984375 423.90985107421875 323.626953125 425.137939453125 326.6309814453125 425.42327880859375 C 329.6349792480469 425.70867919921875 332.6669006347656 425.12060546875 335.526611328125 424.1558837890625 C 336.7708435058594 423.7352294921875 338.0455322265625 423.20404052734375 338.8691101074219 422.185302734375 C 339.81390380859375 421.017822265625 339.9933776855469 419.42681884765625 340.06475830078125 417.92205810546875 C 340.2663269042969 413.67376708984375 339.8244934082031 409.2327880859375 337.62274169921875 405.5933837890625 C 335.4209899902344 401.9539489746094 331.1087341308594 399.3512268066406 326.9447937011719 400.16668701171875 L 325.4559020996094 400.9442443847656" stroke-width="0.6000000238418579" fill="rgb(159, 159, 159)" opacity="1.0"/>
    <path d="M 267.9902648925781 403.97979736328125 C 264.152099609375 405.6658020019531 259.9588623046875 407.70611572265625 258.40118408203125 411.58929443359375 C 256.88104248046875 415.36358642578125 258.34906005859375 419.61920166015625 259.88055419921875 423.390869140625 C 260.50494384765625 424.922119140625 261.1825866699219 426.51416015625 262.456298828125 427.56732177734375 C 264.6095275878906 429.34991455078125 267.7841491699219 429.08251953125 270.4635009765625 428.3001708984375 C 272.9507141113281 427.57501220703125 275.3208923339844 426.4964599609375 277.50152587890625 425.0975341796875 C 281.0430603027344 422.827392578125 284.26629638671875 419.13671875 283.86810302734375 414.950439453125 C 283.65643310546875 412.6900634765625 282.3849792480469 410.6234130859375 280.7539367675781 409.0392761230469 C 279.1228942871094 407.45513916015625 277.1344909667969 406.29339599609375 275.1551208496094 405.17449951171875 C 273.17578125 404.05560302734375 271.2069091796875 402.99859619140625 268.99664306640625 402.7958679199219 L 267.9902648925781 403.97979736328125" stroke-width="0.6000000238418579" fill="rgb(218, 166, 20)" opacity="1.0"/>
    <path d="M 225.70413208007812 406.726318359375 C 218.753173828125 404.733642578125 211.5029296875 408.75311279296875 209.51025390625 415.70404052734375 C 209.33963012695312 416.29925537109375 209.21142578125 416.90582275390625 209.12664794921875 417.5191650390625 C 208.80487060546875 419.849853515625 209.16787719726562 422.36962890625 210.60360717773438 424.2320556640625 C 211.8167724609375 425.80615234375 213.656005859375 426.76165771484375 215.50701904296875 427.4813232421875 C 220.46441650390625 429.40069580078125 225.84530639648438 429.957763671875 231.09075927734375 429.09454345703125 C 232.47689819335938 428.86407470703125 233.88714599609375 428.5169677734375 235.0301513671875 427.6944580078125 C 236.94976806640625 426.314697265625 237.7752685546875 423.8062744140625 237.7813720703125 421.4405517578125 C 237.79290771484375 417.92828369140625 236.23529052734375 414.5072021484375 233.84149169921875 411.9359130859375 C 231.44775390625 409.3646240234375 228.2735595703125 407.5982360839844 224.9197998046875 406.5533447265625 L 225.70413208007812 406.726318359375" stroke-width="0.6000000238418579" fill="rgb(143, 165, 67)" opacity="1.0"/>
    <path d="M 285.0971374511719 376.823974609375 C 281.3400573730469 383.9008483886719 288.4942932128906 393.69464111328125 296.4108581542969 392.8567199707031 C 304.327392578125 392.0187072753906 309.30755615234375 381.6129150390625 305.4767150878906 374.5729064941406 C 301.6459045410156 367.5329284667969 290.99432373046875 365.741943359375 284.6877136230469 370.7000427246094 L 285.0971374511719 376.823974609375" stroke-width="0.6000000238418579" fill="rgb(233, 92, 21)" opacity="1.0"/>
    <path d="M 339.3149719238281 374.86993408203125 C 336.70025634765625 377.767333984375 333.8774108886719 381.49951171875 335.1764831542969 385.1938171386719 C 335.75067138671875 386.6438903808594 336.76068115234375 387.88006591796875 338.06719970703125 388.7317810058594 C 341.2431335449219 390.9261169433594 345.28564453125 391.4449768066406 348.9128112792969 390.1238098144531 C 351.98675537109375 388.9952392578125 354.3898620605469 386.6368408203125 356.6591796875 384.303955078125 C 357.93182373046875 382.99139404296875 359.24212646484375 381.5563659667969 359.5755920410156 379.7690124511719 C 360.00054931640625 377.3829650878906 358.56268310546875 375.0728759765625 356.9873962402344 373.2320861816406 C 354.6853332519531 370.5351867675781 351.9619140625 368.22869873046875 348.92279052734375 366.40203857421875 C 347.87152099609375 365.7729187011719 346.7291564941406 365.1850280761719 345.5045166015625 365.17236328125 C 344.365234375 365.2188415527344 343.2640686035156 365.5958251953125 342.3353271484375 366.25732421875 C 339.4400329589844 368.1542663574219 337.52264404296875 371.2258605957031 337.0899963378906 374.66009521484375 L 339.3149719238281 374.86993408203125" stroke-width="0.6000000238418579" fill="rgb(70, 150, 179)" opacity="1.0"/>
    <path d="M 299.2962341308594 403.66522216796875 C 295.17584228515625 404.8580017089844 290.6588134765625 406.3531188964844 288.524658203125 410.0709533691406 C 286.2345275878906 414.06610107421875 287.6562194824219 419.3214111328125 290.5491027832031 422.9041748046875 C 291.66387939453125 424.2860107421875 293.04327392578125 425.5416259765625 294.7429504394531 426.05419921875 C 296.1400146484375 426.47607421875 297.636962890625 426.3656005859375 299.0830078125 426.17132568359375 C 303.64385986328125 425.56414794921875 308.40692138671875 423.98016357421875 311.169189453125 420.3017578125 C 313.95062255859375 416.592529296875 314.0203552246094 411.0601806640625 311.3091125488281 407.29437255859375 C 308.59783935546875 403.528564453125 303.35198974609375 401.7917785644531 298.9378356933594 403.2325744628906 L 299.2962341308594 403.66522216796875" stroke-width="0.6000000238418579" fill="rgb(140, 28, 33)" opacity="1.0"/>
    <path d="M 336.2731018066406 391.7466735839844 C 334.6193542480469 392.71148681640625 332.9091796875 393.7336730957031 331.8099670410156 395.302978515625 C 330.71075439453125 396.87225341796875 330.39984130859375 399.1726989746094 331.6039733886719 400.6625671386719 C 333.09442138671875 402.4983825683594 336.2452697753906 402.15557861328125 337.87353515625 400.4349365234375 C 339.5018005371094 398.7142639160156 339.8734130859375 396.13677978515625 339.6509704589844 393.7812805175781 C 339.6551513671875 393.0451965332031 339.3832702636719 392.3343200683594 338.88897705078125 391.7889404296875 C 338.3486022949219 391.306884765625 337.2964782714844 391.3759460449219 337.0667724609375 392.0664978027344 L 336.2731018066406 391.7466735839844" stroke-width="0.6000000238418579" fill="rgb(159, 159, 159)" opacity="1.0"/>
    <path d="M 351.3035583496094 397.9704895019531 C 347.17999267578125 398.9864807128906 343.3146667480469 401.43743896484375 341.13677978515625 405.080810546875 C 338.9588928222656 408.72418212890625 338.6949462890625 413.59197998046875 340.9700622558594 417.1966552734375 C 342.58184814453125 419.7431640625 345.302734375 421.46954345703125 348.2103576660156 422.27203369140625 C 351.1180114746094 423.07452392578125 354.20477294921875 423.02203369140625 357.1874084472656 422.5687255859375 C 358.4852600097656 422.3707275390625 359.8323059082031 422.069091796875 360.8199462890625 421.209228515625 C 361.95269775390625 420.2239990234375 362.40557861328125 418.68896484375 362.73712158203125 417.219970703125 C 363.6731262207031 413.07293701171875 364.0091857910156 408.6244812011719 362.4736328125 404.6595153808594 C 360.93804931640625 400.694580078125 357.1448669433594 397.3836975097656 352.90423583984375 397.4635314941406 L 351.3035583496094 397.9704895019531" stroke-width="0.6000000238418579" fill="rgb(159, 159, 159)" opacity="1.0"/>
    <path d="M 264.8378601074219 380.2301025390625 C 262.544677734375 376.9990234375 259.8557434082031 373.50689697265625 255.96392822265625 372.8061218261719 C 252.18011474609375 372.11932373046875 248.52102661132812 374.2903747558594 245.322021484375 376.4278564453125 C 244.02374267578125 377.2980651855469 242.679443359375 378.2291564941406 241.94760131835938 379.60919189453125 C 240.70846557617188 381.94256591796875 241.5618896484375 384.8301696777344 242.79742431640625 387.1610412597656 C 243.943359375 389.324951171875 245.39407348632812 391.3131103515625 247.10516357421875 393.06463623046875 C 249.88247680664062 395.90966796875 253.9139404296875 398.1889343261719 257.7130432128906 397.0213623046875 C 259.76495361328125 396.39404296875 261.4353332519531 394.82269287109375 262.5904541015625 393.01055908203125 C 263.74554443359375 391.19842529296875 264.44140625 389.1361083984375 265.099365234375 387.0903625488281 C 265.75732421875 385.04461669921875 266.3600158691406 383.0203552246094 266.1258544921875 380.93572998046875 L 264.8378601074219 380.2301025390625" stroke-width="0.6000000238418579" fill="rgb(218, 166, 20)" opacity="1.0"/>
    <path d="M 263.19769287109375 396.4608154296875 C 256.98431396484375 394.2304992675781 250.13934326171875 397.45941162109375 247.90899658203125 403.67279052734375 C 247.718017578125 404.204833984375 247.56503295898438 404.749755859375 247.451171875 405.3034973144531 C 247.01885986328125 407.40753173828125 247.19915771484375 409.7247009277344 248.39593505859375 411.5071716308594 C 249.4071044921875 413.0135498046875 251.025634765625 413.993896484375 252.66897583007812 414.75994873046875 C 257.0705871582031 416.80450439453125 261.9393615722656 417.6331787109375 266.76953125 417.1600341796875 C 268.04608154296875 417.03277587890625 269.3515319824219 416.80078125 270.4419250488281 416.11968994140625 C 272.2731018066406 414.977294921875 273.1748962402344 412.741455078125 273.3216857910156 410.5865783691406 C 273.5419006347656 407.3876037597656 272.32708740234375 404.177978515625 270.29986572265625 401.6925964355469 C 268.27264404296875 399.2072448730469 265.4864196777344 397.4085388183594 262.4934997558594 396.25640869140625 L 263.19769287109375 396.4608154296875" stroke-width="0.6000000238418579" fill="rgb(143, 165, 67)" opacity="1.0"/>
    <path d="M 211.53533935546875 379.24102783203125 C 206.58255004882812 385.7706604003906 212.20126342773438 396.8311462402344 220.33154296875 397.2821350097656 C 228.4617919921875 397.73309326171875 235.19488525390625 388.042724609375 232.48046875 380.3071594238281 C 229.76611328125 372.5715637207031 219.30511474609375 369.0181884765625 212.12530517578125 372.99090576171875 L 211.53533935546875 379.24102783203125" stroke-width="0.6000000238418579" fill="rgb(233, 92, 21)" opacity="1.0"/>
    <path d="M 265.1762390136719 378.0089111328125 C 262.4248352050781 380.82806396484375 259.4306335449219 384.48095703125 260.5951843261719 388.2582092285156 C 261.11712646484375 389.74334716796875 262.0870361328125 391.0299377441406 263.3711853027344 391.94049072265625 C 266.48785400390625 394.27886962890625 270.5445861816406 394.9615783691406 274.25494384765625 393.7720947265625 C 277.3997802734375 392.7550354003906 279.91650390625 390.4711608886719 282.2972717285156 388.207763671875 C 283.632568359375 386.9341125488281 285.0107116699219 385.5384216308594 285.4175109863281 383.7489013671875 C 285.940185546875 381.3591613769531 284.5810852050781 378.9725341796875 283.06488037109375 377.0538330078125 C 280.8493957519531 374.2430419921875 278.19354248046875 371.8093566894531 275.20037841796875 369.8471984863281 C 274.1648864746094 369.1712341308594 273.0359191894531 368.53326416015625 271.80126953125 368.4721984863281 C 270.6503601074219 368.4741516113281 269.52490234375 368.8109436035156 268.5621032714844 369.4414978027344 C 265.5671691894531 371.2405700683594 263.5122375488281 374.2629089355469 262.9404602050781 377.7095642089844 L 265.1762390136719 378.0089111328125" stroke-width="0.6000000238418579" fill="rgb(70, 150, 179)" opacity="1.0"/>
    <path d="M 333.8365478515625 374.2322998046875 C 331.9725646972656 370.5293884277344 329.7510070800781 366.5032653808594 325.8404541015625 365.13519287109375 C 321.6387634277344 363.6681213378906 316.8983154296875 365.95086669921875 314.0076599121094 369.3346252441406 C 312.892578125 370.6387939453125 311.9444274902344 372.1719665527344 311.7589111328125 373.8775939941406 C 311.6058654785156 375.2796630859375 311.9763488769531 376.6822204589844 312.41741943359375 378.0215148925781 C 313.80316162109375 382.2467346191406 316.15277099609375 386.4908142089844 320.1372985839844 388.462646484375 C 324.1544494628906 390.4471435546875 329.4226989746094 389.53216552734375 332.5194396972656 386.2884826660156 C 335.6161804199219 383.0447998046875 336.3357238769531 377.7530822753906 334.1839904785156 373.8150634765625 L 333.8365478515625 374.2322998046875" stroke-width="0.6000000238418579" fill="rgb(140, 28, 33)" opacity="1.0"/>
    <path d="M 353.0 389.0 C 351.47491455078125 390.14556884765625 349.9006042480469 391.3544006347656 348.99395751953125 393.03411865234375 C 348.08734130859375 394.7138366699219 348.0451965332031 397.0260925292969 349.40863037109375 398.3614196777344 C 351.0953674316406 400.0060119628906 354.1736755371094 399.3031921386719 355.5863342285156 397.4126281738281 C 356.9989929199219 395.5220642089844 357.06927490234375 392.9286804199219 356.5773010253906 390.6235046386719 C 356.49652099609375 389.8946533203125 356.14544677734375 389.22259521484375 355.5933837890625 388.73992919921875 C 355.0030212402344 388.3252868652344 353.9698791503906 388.5150451660156 353.822265625 389.2248840332031 L 353.0 389.0" stroke-width="0.6000000238418579" fill="rgb(159, 159, 159)" opacity="1.0"/>
    <path d="M 188.59786987304688 400.6676940917969 C 184.1531982421875 401.4073181152344 179.8651123046875 403.68585205078125 177.26513671875 407.3629455566406 C 174.66513061523438 411.0400390625 173.99026489257812 416.16796875 176.10400390625 420.166015625 C 177.60202026367188 422.9908447265625 180.3399658203125 425.0382080078125 183.3505859375 426.1234130859375 C 186.3612060546875 427.20867919921875 189.6307373046875 427.404052734375 192.82275390625 427.1669921875 C 194.2117919921875 427.06298828125 195.6612548828125 426.8533935546875 196.77587890625 426.0240478515625 C 198.05422973632812 425.0738525390625 198.6580810546875 423.48681640625 199.12820434570312 421.9599609375 C 200.45538330078125 417.6490478515625 201.1724853515625 412.9705810546875 199.870361328125 408.6515197753906 C 198.56820678710938 404.3323974609375 194.82473754882812 400.521728515625 190.33233642578125 400.26153564453125 L 188.59786987304688 400.6676940917969" stroke-width="0.6000000238418579" fill="rgb(159, 159, 159)" opacity="1.0"/>
    <path d="M 355.3677978515625 374.80035400390625 C 351.50140380859375 375.0213928222656 347.2132873535156 375.4345703125 344.61199951171875 378.2933349609375 C 342.0783386230469 381.0699768066406 341.9759826660156 385.2273864746094 342.084716796875 388.98638916015625 C 342.1311340332031 390.5133361816406 342.20404052734375 392.11004638671875 342.966796875 393.4327087402344 C 344.2554931640625 395.6705017089844 347.0898132324219 396.46331787109375 349.66156005859375 396.6506652832031 C 352.04852294921875 396.825439453125 354.4482116699219 396.6565856933594 356.78717041015625 396.1492614746094 C 360.5852966308594 395.32684326171875 364.5662536621094 393.172119140625 365.572265625 389.4198913574219 C 366.11834716796875 387.3949890136719 365.6846008300781 385.1957702636719 364.78387451171875 383.2982482910156 C 363.88311767578125 381.40069580078125 362.5367431640625 379.7535095214844 361.18438720703125 378.14630126953125 C 359.83203125 376.53912353515625 358.4687805175781 374.9888610839844 356.6209411621094 374.1002197265625 L 355.3677978515625 374.80035400390625" stroke-width="0.6000000238418579" fill="rgb(218, 166, 20)" opacity="1.0"/>
    <path d="M 366.0425720214844 392.85003662109375 C 359.57757568359375 393.7848815917969 355.0945129394531 399.78363037109375 356.02935791015625 406.2486267089844 C 356.1094055175781 406.8022155761719 356.2286376953125 407.34942626953125 356.3861083984375 407.88616943359375 C 356.98492431640625 409.9255065917969 358.21795654296875 411.8667907714844 360.09112548828125 412.8690185546875 C 361.6739807128906 413.716064453125 363.54339599609375 413.821533203125 365.3350524902344 413.728271484375 C 370.1305236816406 413.47198486328125 374.7699279785156 411.9364013671875 378.7713317871094 409.2809753417969 C 379.82781982421875 408.5772705078125 380.8609924316406 407.7686462402344 381.4977111816406 406.6673583984375 C 382.5677490234375 404.8191223144531 382.3180236816406 402.4466247558594 381.4461669921875 400.49542236328125 C 380.15380859375 397.5976257324219 377.6025085449219 395.35662841796875 374.6773681640625 394.1256103515625 C 371.7522277832031 392.8946228027344 368.4825439453125 392.615966796875 365.3323059082031 392.9982604980469 L 366.0425720214844 392.85003662109375" stroke-width="0.6000000238418579" fill="rgb(143, 165, 67)" opacity="1.0"/>
    <path d="M 359.4854431152344 375.4613342285156 C 355.59710693359375 382.4270324707031 362.51318359375 392.3260803222656 370.41107177734375 391.65802001953125 C 378.3089904785156 390.98992919921875 383.484619140625 380.7361755371094 379.8190002441406 373.6480407714844 C 376.15338134765625 366.5599060058594 365.58807373046875 364.5537109375 359.2063293457031 369.3568420410156 L 359.4854431152344 375.4613342285156" stroke-width="0.6000000238418579" fill="rgb(233, 92, 21)" opacity="1.0"/>
    <path d="M 388.18499755859375 375.04315185546875 C 385.52545166015625 378.0508117675781 382.6604919433594 381.91937255859375 384.03521728515625 385.7060852050781 C 384.64093017578125 387.1917724609375 385.6927490234375 388.452880859375 387.04559326171875 389.3154296875 C 390.3354187011719 391.5396423339844 394.4992370605469 392.0313415527344 398.2166442871094 390.63458251953125 C 401.36700439453125 389.4416809082031 403.81451416015625 386.99066162109375 406.1246337890625 384.5672912597656 C 407.42010498046875 383.2038879394531 408.7530517578125 381.71405029296875 409.0774841308594 379.8719787597656 C 409.48980712890625 377.4131164550781 407.9867248535156 375.0517578125 406.34710693359375 373.174560546875 C 403.95098876953125 370.4242858886719 401.12548828125 368.0799560546875 397.980224609375 366.2325439453125 C 396.89227294921875 365.5963134765625 395.7110290527344 365.0034484863281 394.451171875 365.003173828125 C 393.2796936035156 365.06280517578125 392.15087890625 365.4620361328125 391.202392578125 366.15216064453125 C 388.2438049316406 368.1336364746094 386.3033752441406 371.313232421875 385.89404296875 374.8504333496094 L 388.18499755859375 375.04315185546875" stroke-width="0.6000000238418579" fill="rgb(70, 150, 179)" opacity="1.0"/>
    <path d="M 382.50250244140625 402.5118103027344 C 378.8878479003906 405.0660705566406 374.988525390625 408.0490417480469 374.1630859375 412.39453125 C 373.2791748046875 417.0631103515625 376.4398193359375 421.70703125 380.47015380859375 424.2235107421875 C 382.023681640625 425.19439697265625 383.7925720214844 425.95281982421875 385.6228332519531 425.878662109375 C 387.12744140625 425.818359375 388.5496826171875 425.20513916015625 389.89398193359375 424.5274658203125 C 394.1358337402344 422.3953857421875 398.2449951171875 419.24273681640625 399.69622802734375 414.72357177734375 C 401.1556701660156 410.16790771484375 399.3555908203125 404.750244140625 395.4405517578125 401.9940185546875 C 391.5255126953125 399.23779296875 385.8243103027344 399.31573486328125 382.0069580078125 402.21099853515625 L 382.50250244140625 402.5118103027344" stroke-width="0.6000000238418579" fill="rgb(140, 28, 33)" opacity="1.0"/>
    <path d="M 399.7922668457031 392.8104248046875 C 398.3902282714844 394.11669921875 396.94573974609375 395.4913635253906 396.2182312011719 397.2656555175781 C 395.4907531738281 399.0399169921875 395.6940002441406 401.3543395996094 397.1977844238281 402.543701171875 C 399.0573425292969 404.0076599121094 402.05804443359375 402.9789123535156 403.2687072753906 400.9403076171875 C 404.4793701171875 398.9017333984375 404.2743835449219 396.303466796875 403.5382995605469 394.052734375 C 403.3802490234375 393.3331604003906 402.9582214355469 392.69903564453125 402.3554992675781 392.27545166015625 C 401.7217102050781 391.923828125 400.7097473144531 392.2230529785156 400.6376037597656 392.9478454589844 L 399.7922668457031 392.8104248046875" stroke-width="0.6000000238418579" fill="rgb(159, 159, 159)" opacity="1.0"/>
    <path d="M 421.77276611328125 375.9792175292969 C 419.990478515625 379.75994873046875 419.4647216796875 384.2336730957031 420.89697265625 388.1580810546875 C 422.32916259765625 392.0824890136719 425.88433837890625 395.30438232421875 430.0498046875 395.802734375 C 432.995361328125 396.1513366699219 436.00244140625 395.14373779296875 438.4195556640625 393.4202575683594 C 440.83673095703125 391.69677734375 442.7117919921875 389.3059387207031 444.216064453125 386.74603271484375 C 444.8701171875 385.63165283203125 445.47540283203125 384.4153747558594 445.4312744140625 383.1273498535156 C 445.38134765625 381.650634765625 444.48956298828125 380.3522033691406 443.57305908203125 379.1875 C 440.9854736328125 375.8993835449219 437.79541015625 372.882568359375 433.81353759765625 371.5956726074219 C 429.8316650390625 370.30877685546875 424.94873046875 371.1524658203125 422.37860107421875 374.4417724609375 L 421.77276611328125 375.9792175292969" stroke-width="0.6000000238418579" fill="rgb(159, 159, 159)" opacity="1.0"/>
    <path d="M 417.0670166015625 399.124755859375 C 413.23291015625 401.0133361816406 409.0530090332031 403.2786865234375 407.6398010253906 407.3033752441406 C 406.25994873046875 411.2154846191406 407.9451599121094 415.4844970703125 409.67340087890625 419.2576904296875 C 410.3777160644531 420.78948974609375 411.13897705078125 422.3807373046875 412.48333740234375 423.3966064453125 C 414.75604248046875 425.11614990234375 417.97760009765625 424.7020263671875 420.6717529296875 423.78564453125 C 423.17266845703125 422.93603515625 425.53863525390625 421.731689453125 427.697265625 420.20947265625 C 431.203125 417.7391357421875 434.3214111328125 413.836181640625 433.7288818359375 409.59002685546875 C 433.41241455078125 407.2972412109375 432.025146484375 405.2489929199219 430.29315185546875 403.7082824707031 C 428.5611572265625 402.1675720214844 426.4840087890625 401.07305908203125 424.41802978515625 400.02178955078125 C 422.35205078125 398.9704895019531 420.2994384765625 397.9817810058594 418.0391845703125 397.87396240234375 L 417.0670166015625 399.124755859375" stroke-width="0.6000000238418579" fill="rgb(218, 166, 20)" opacity="1.0"/>
    <path d="M 145.28591918945312 236.43630981445312 C 139.35618591308594 240.31845092773438 137.69630432128906 248.27255249023438 141.5784454345703 254.2022705078125 C 141.91087341308594 254.71005249023438 142.27891540527344 255.193603515625 142.67977905273438 255.6492919921875 C 144.20327758789062 257.3804931640625 146.30557250976562 258.724609375 148.6070556640625 258.8518371582031 C 150.5519561767578 258.95953369140625 152.43878173828125 258.2065124511719 154.15809631347656 257.293701171875 C 158.75689697265625 254.84405517578125 162.61590576171875 251.20767211914062 165.334228515625 246.76239013671875 C 166.05078125 245.586181640625 166.6962890625 244.31741333007812 166.81781005859375 242.9425048828125 C 167.02316284179688 240.63446044921875 165.6903076171875 238.4156494140625 163.93865966796875 236.89617919921875 C 161.33966064453125 234.63858032226562 157.80352783203125 233.60382080078125 154.36257934570312 233.73367309570312 C 150.92164611816406 233.863525390625 147.5782928466797 235.08792114257812 144.65533447265625 236.90756225585938 L 145.28591918945312 236.43630981445312" stroke-width="0.6000000238418579" fill="rgb(143, 165, 67)" opacity="1.0"/>
    <path d="M 158.89813232421875 270.4883117675781 C 155.0908203125 277.9138488769531 162.6866455078125 288.0065002441406 170.91830444335938 287.0162048339844 C 179.14993286132812 286.0258483886719 184.18145751953125 275.115478515625 180.08746337890625 267.8411560058594 C 175.99346923828125 260.56683349609375 164.87457275390625 258.860107421875 158.3807373046875 264.1170959472656 L 158.89813232421875 270.4883117675781" stroke-width="0.6000000238418579" fill="rgb(233, 92, 21)" opacity="1.0"/>
    <path d="M 154.55677795410156 321.7135314941406 C 151.40321350097656 324.1338806152344 147.88722229003906 327.35211181640625 148.50738525390625 331.29248046875 C 148.81520080566406 332.8509521484375 149.59902954101562 334.2755432128906 150.7508087158203 335.3696594238281 C 153.5277099609375 338.1534729003906 157.48165893554688 339.41864013671875 161.35879516601562 338.76397705078125 C 164.646240234375 338.2002258300781 167.48846435546875 336.2807922363281 170.19192504882812 334.36224365234375 C 171.70880126953125 333.2820739746094 173.28604125976562 332.0860900878906 173.94967651367188 330.3570861816406 C 174.8153076171875 328.04522705078125 173.8009033203125 325.4659423828125 172.56228637695312 323.3314514160156 C 170.75341796875 320.205322265625 168.45053100585938 317.3926086425781 165.74288940429688 315.0023498535156 C 164.8057861328125 314.17828369140625 163.76980590820312 313.37872314453125 162.54534912109375 313.14019775390625 C 161.3955078125 312.9766845703125 160.222900390625 313.15130615234375 159.1705322265625 313.6427001953125 C 155.92037963867188 315.0091247558594 153.43324279785156 317.7325744628906 152.36659240722656 321.09307861328125 L 154.55677795410156 321.7135314941406" stroke-width="0.6000000238418579" fill="rgb(70, 150, 179)" opacity="1.0"/>
    <path d="M 130.69818115234375 294.038330078125 C 128.01918029785156 290.3124694824219 124.89326477050781 286.29510498046875 120.380859375 285.476318359375 C 115.53300476074219 284.5996398925781 110.74520874023438 287.9161071777344 108.17050170898438 292.11614990234375 C 107.1771240234375 293.735107421875 106.40586853027344 295.57550048828125 106.49830627441406 297.47247314453125 C 106.57369995117188 299.03192138671875 107.22158813476562 300.5012512207031 107.93565368652344 301.88922119140625 C 110.18222045898438 306.2689514160156 113.48587036132812 310.50244140625 118.18365478515625 311.9685363769531 C 122.91934204101562 313.44287109375 128.5209503173828 311.53045654296875 131.34523010253906 307.4479064941406 C 134.16949462890625 303.3653564453125 134.04013061523438 297.4551086425781 131.00582885742188 293.5220031738281 L 130.69818115234375 294.038330078125" stroke-width="0.6000000238418579" fill="rgb(140, 28, 33)" opacity="1.0"/>
    <path d="M 141.00204467773438 267.3512268066406 C 139.24497985839844 268.16845703125 137.4256591796875 269.0382080078125 136.17071533203125 270.5166320800781 C 134.91580200195312 271.99505615234375 134.3867645263672 274.2842102050781 135.46054077148438 275.89862060546875 C 136.79043579101562 277.888427734375 139.9979248046875 277.83843994140625 141.80020141601562 276.2571105957031 C 143.60247802734375 274.6757507324219 144.2186737060547 272.11309814453125 144.2153778076172 269.7183837890625 C 144.2886199951172 268.97698974609375 144.081298828125 268.235107421875 143.63429260253906 267.6391296386719 C 143.13491821289062 267.1026306152344 142.06814575195312 267.0735778808594 141.7718963623047 267.7479553222656 L 141.00204467773438 267.3512268066406" stroke-width="0.6000000238418579" fill="rgb(159, 159, 159)" opacity="1.0"/>
    <path d="M 155.53453063964844 289.05694580078125 C 152.6822967529297 292.2844543457031 150.8737335205078 296.5594787597656 151.16061401367188 300.8548583984375 C 151.44749450683594 305.15020751953125 154.03720092773438 309.3619079589844 158.01516723632812 311.05462646484375 C 160.82916259765625 312.247802734375 164.09463500976562 312.11688232421875 166.98257446289062 311.10772705078125 C 169.87051391601562 310.0985412597656 172.41427612304688 308.27301025390625 174.639892578125 306.1733703613281 C 175.60791015625 305.25909423828125 176.55709838867188 304.2300109863281 176.88433837890625 302.94287109375 C 177.26025390625 301.4674072265625 176.7518310546875 299.9258728027344 176.180419921875 298.5095520019531 C 174.567138671875 294.5110168457031 172.27963256835938 290.6073913574219 168.71044921875 288.1873474121094 C 165.1412353515625 285.7673034667969 160.06695556640625 285.19586181640625 156.57672119140625 287.7102355957031 L 155.53453063964844 289.05694580078125" stroke-width="0.6000000238418579" fill="rgb(159, 159, 159)" opacity="1.0"/>
    <path d="M 131.40232849121094 346.2476501464844 C 128.82276916503906 342.78131103515625 125.8052978515625 339.0400695800781 121.54502868652344 338.3717041015625 C 117.40280151367188 337.7159118652344 113.46682739257812 340.1728515625 110.0316162109375 342.5818786621094 C 108.63754272460938 343.56256103515625 107.19479370117188 344.6107177734375 106.43081665039062 346.13330078125 C 105.13720703125 348.70770263671875 106.13862609863281 351.8349609375 107.54293823242188 354.3458557128906 C 108.84548950195312 356.6769104003906 110.47601318359375 358.808837890625 112.38459777832031 360.6764221191406 C 115.48248291015625 363.7099304199219 119.93385314941406 366.0958557128906 124.047119140625 364.72955322265625 C 126.26882934570312 363.99517822265625 128.05136108398438 362.24090576171875 129.2661895751953 360.2368469238281 C 130.48098754882812 358.2327880859375 131.18899536132812 355.96722412109375 131.85606384277344 353.7206726074219 C 132.5231170654297 351.4740905761719 133.1304473876953 349.2523193359375 132.82391357421875 346.98529052734375 L 131.40232849121094 346.2476501464844" stroke-width="0.6000000238418579" fill="rgb(218, 166, 20)" opacity="1.0"/>
    <path d="M 159.62457275390625 340.7631530761719 C 153.91598510742188 345.1524353027344 152.84646606445312 353.3384094238281 157.23574829101562 359.0469970703125 C 157.61160278320312 359.53582763671875 158.02166748046875 359.99737548828125 158.46282958984375 360.4281921386719 C 160.1395263671875 362.0648193359375 162.37274169921875 363.2647705078125 164.71417236328125 363.2165222167969 C 166.69281005859375 363.17596435546875 168.54638671875 362.26788330078125 170.21795654296875 361.2108459472656 C 174.68844604492188 358.3752136230469 178.318115234375 354.394287109375 180.72998046875 349.6816101074219 C 181.36541748046875 348.4348449707031 181.92172241210938 347.0998229980469 181.93902587890625 345.69757080078125 C 181.96945190429688 343.343505859375 180.44839477539062 341.19818115234375 178.556884765625 339.7936706542969 C 175.75015258789062 337.70648193359375 172.08807373046875 336.9302978515625 168.61209106445312 337.32666015625 C 165.1361083984375 337.7229919433594 161.84320068359375 339.220703125 159.02200317382812 341.2890930175781 L 159.62457275390625 340.7631530761719" stroke-width="0.6000000238418579" fill="rgb(143, 165, 67)" opacity="1.0"/>
    <path d="M 138.19296264648438 376.58197021484375 C 131.6749725341797 370.970458984375 119.72517395019531 376.1379699707031 118.72518920898438 384.6246337890625 C 117.72523498535156 393.111328125 127.43832397460938 400.7926940917969 135.71702575683594 398.4515380859375 C 143.9957275390625 396.1103515625 148.3965301513672 385.3836975097656 144.7012939453125 377.6054992675781 L 138.19296264648438 376.58197021484375" stroke-width="0.6000000238418579" fill="rgb(233, 92, 21)" opacity="1.0"/>
    <path d="M 172.88510131835938 370.99554443359375 C 169.90982055664062 373.9075927734375 166.65780639648438 377.6946716308594 167.79681396484375 381.71380615234375 C 168.31234741210938 383.29559326171875 169.30599975585938 384.678466796875 170.6407470703125 385.67156982421875 C 173.87713623046875 388.2176818847656 178.1468505859375 389.0372009277344 182.095947265625 387.8702392578125 C 185.44329833984375 386.8717346191406 188.15765380859375 384.51959228515625 190.7279052734375 382.18572998046875 C 192.1695556640625 380.87237548828125 193.65945434570312 379.4310607910156 194.132568359375 377.5501403808594 C 194.74267578125 375.037841796875 193.36444091796875 372.4833068847656 191.80886840820312 370.41937255859375 C 189.53607177734375 367.39593505859375 186.78887939453125 364.7602844238281 183.67388916015625 362.61468505859375 C 182.59616088867188 361.87542724609375 181.41876220703125 361.1740417480469 180.11572265625 361.07965087890625 C 178.899658203125 361.0538635253906 177.702392578125 361.3824462890625 176.66986083984375 362.025390625 C 173.46197509765625 363.853759765625 171.21759033203125 366.9973449707031 170.53009033203125 370.6251525878906 L 172.88510131835938 370.99554443359375" stroke-width="0.6000000238418579" fill="rgb(70, 150, 179)" opacity="1.0"/>
  </g>
</svg>
