<?xml version="1.0" ?>
<svg xmlns="http://www.w3.org/2000/svg" version="1.1" width="600" height="600">
  <defs/>
  <g>
    <path d="M 353.77593994140625 334.5955505371094 C 355.6202697753906 335.224365234375 357.6955871582031 333.1283264160156 357.18865966796875 331.25982666015625 C 356.6817321777344 329.391357421875 353.9908447265625 328.597412109375 352.4483947753906 329.78912353515625 C 350.9059753417969 330.9808044433594 350.88726806640625 333.6075439453125 352.3213195800781 334.93035888671875 L 353.77593994140625 334.5955505371094" stroke-width="0.6000000238418579" fill="rgb(233, 92, 21)" opacity="1.0"/>
    <path d="M 102.6246337890625 198.56640625 C 103.29112243652344 198.150146484375 104.04409790039062 197.58380126953125 103.99699401855469 196.7967529296875 C 103.966064453125 196.48428344726562 103.83892822265625 196.1890869140625 103.63311767578125 195.951904296875 C 103.13967895507812 195.35140991210938 102.38580322265625 195.02728271484375 101.61053466796875 195.0823974609375 C 100.9530029296875 195.13079833984375 100.3572998046875 195.45440673828125 99.78890991210938 195.78048706054688 C 99.46992492675781 195.96417236328125 99.13687133789062 196.16949462890625 98.97341918945312 196.4970703125 C 98.7591552734375 196.93545532226562 98.90969848632812 197.46221923828125 99.11280822753906 197.90573120117188 C 99.40927124023438 198.55517578125 99.80888366699219 199.15240478515625 100.29617309570312 199.67413330078125 C 100.46487426757812 199.8541259765625 100.65350341796875 200.0311279296875 100.88987731933594 200.101318359375 C 101.11300659179688 200.15533447265625 101.3470458984375 200.143310546875 101.56343078613281 200.06661987304688 C 102.2288818359375 199.85955810546875 102.77000427246094 199.37103271484375 103.04376220703125 198.7301025390625 L 102.6246337890625 198.56640625" stroke-width="0.6000000238418579" fill="rgb(70, 150, 179)" opacity="1.0"/>
    <path d="M 463.8631591796875 432.97430419921875 C 464.591796875 434.0084228515625 465.44287109375 435.1241455078125 466.6845703125 435.36181640625 C 468.0185546875 435.6163330078125 469.34716796875 434.71478271484375 470.0679931640625 433.5638427734375 C 470.34619140625 433.1202392578125 470.5635986328125 432.61492919921875 470.543212890625 432.091796875 C 470.5264892578125 431.66168212890625 470.351806640625 431.25494384765625 470.15869140625 430.8704833984375 C 469.55096435546875 429.6572265625 468.6514892578125 428.4814453125 467.36041259765625 428.0648193359375 C 466.05889892578125 427.6458740234375 464.50970458984375 428.158203125 463.7203369140625 429.276123046875 C 462.9310302734375 430.39404296875 462.9510498046875 432.0235595703125 463.7769775390625 433.1158447265625 L 463.8631591796875 432.97430419921875" stroke-width="0.6000000238418579" fill="rgb(140, 28, 33)" opacity="1.0"/>
    <path d="M 93.42449951171875 193.07574462890625 C 93.71502685546875 192.90625 94.0155029296875 192.72665405273438 94.2086181640625 192.45095825195312 C 94.4017333984375 192.17523193359375 94.45635986328125 191.77108764648438 94.24481201171875 191.50933837890625 C 93.98297119140625 191.18679809570312 93.42938232421875 191.24700927734375 93.14332580566406 191.54931640625 C 92.85725402832031 191.85162353515625 92.79196166992188 192.304443359375 92.8310546875 192.71829223632812 C 92.83030700683594 192.84759521484375 92.87806701660156 192.97247314453125 92.96490478515625 193.06829833984375 C 93.05984497070312 193.15301513671875 93.24468994140625 193.140869140625 93.28504943847656 193.01956176757812 L 93.42449951171875 193.07574462890625" stroke-width="0.6000000238418579" fill="rgb(159, 159, 159)" opacity="1.0"/>
    <path d="M 380.4970397949219 302.2796936035156 C 381.6103820800781 301.8072814941406 382.58612060546875 300.943115234375 383.033447265625 299.82012939453125 C 383.48077392578125 298.6971435546875 383.3345031738281 297.3165588378906 382.5315856933594 296.4061279296875 C 381.9631042480469 295.76318359375 381.1199035644531 295.4010314941406 380.26605224609375 295.3070983886719 C 379.4122314453125 295.2131652832031 378.5467529296875 295.36773681640625 377.72869873046875 295.6302490234375 C 377.37274169921875 295.74468994140625 377.0076904296875 295.8905029296875 376.7689514160156 296.177001953125 C 376.4950866699219 296.50531005859375 376.4372863769531 296.9574279785156 376.4106140136719 297.38543701171875 C 376.33526611328125 298.5937805175781 376.4422607421875 299.8597106933594 377.0535583496094 300.9049377441406 C 377.6648864746094 301.9501647949219 378.88128662109375 302.709228515625 380.0699462890625 302.4947204589844 L 380.4970397949219 302.2796936035156" stroke-width="0.6000000238418579" fill="rgb(159, 159, 159)" opacity="1.0"/>
    <path d="M 104.37142944335938 432.0521240234375 C 105.24005126953125 431.41766357421875 106.17808532714844 430.6748046875 106.35391235351562 429.61572265625 C 106.5263671875 428.5860595703125 105.9234619140625 427.60076904296875 105.33139038085938 426.740234375 C 105.09036254882812 426.39111328125 104.8326416015625 426.029541015625 104.45529174804688 425.8360595703125 C 103.81729125976562 425.50830078125 103.03659057617188 425.7506103515625 102.40841674804688 426.09466552734375 C 101.82524108886719 426.4136962890625 101.2908935546875 426.81494140625 100.82176208496094 427.285888671875 C 100.05972290039062 428.05029296875 99.45590209960938 429.15313720703125 99.78689575195312 430.18017578125 C 99.96478271484375 430.73486328125 100.39753723144531 431.1824951171875 100.89373779296875 431.48931884765625 C 101.38992309570312 431.796142578125 101.95233154296875 431.9774169921875 102.51010131835938 432.14849853515625 C 103.06787109375 432.319580078125 103.61961364746094 432.47564697265625 104.18464660644531 432.40435791015625 L 104.37142944335938 432.0521240234375" stroke-width="0.6000000238418579" fill="rgb(218, 166, 20)" opacity="1.0"/>
    <path d="M 100.25228881835938 140.1404266357422 C 101.70388793945312 140.5949249267578 103.24908447265625 139.78662109375 103.70358276367188 138.33502197265625 C 103.74250793457031 138.21070861816406 103.77255249023438 138.0838165283203 103.79351806640625 137.95526123046875 C 103.87307739257812 137.46676635742188 103.80958557128906 136.93502807617188 103.51715087890625 136.53602600097656 C 103.27005004882812 136.19882202148438 102.88813781738281 135.98849487304688 102.50254821777344 135.82772827148438 C 101.46981811523438 135.39878845214844 100.341064453125 135.25421142578125 99.23356628417969 135.40899658203125 C 98.94088745117188 135.4503936767578 98.64254760742188 135.5161895751953 98.39797973632812 135.68333435058594 C 97.98725891113281 135.96371459960938 97.80087280273438 136.4870147705078 97.78752136230469 136.9844970703125 C 97.76718139648438 137.72305297851562 98.07730102539062 138.45042419433594 98.56759643554688 139.0033721923828 C 99.05789184570312 139.55630493164062 99.71640014648438 139.94395446777344 100.41635131835938 140.18080139160156 L 100.25228881835938 140.1404266357422" stroke-width="0.6000000238418579" fill="rgb(143, 165, 67)" opacity="1.0"/>
    <path d="M 457.08935546875 338.12506103515625 C 458.3359375 338.7025451660156 459.9461669921875 337.3866882324219 459.7291259765625 336.0390930175781 C 459.51214599609375 334.6914978027344 457.684326171875 333.9355773925781 456.5146484375 334.6568603515625 C 455.34490966796875 335.3781433105469 455.13726806640625 337.2184143066406 456.04473876953125 338.2520751953125 L 457.08935546875 338.12506103515625" stroke-width="0.6000000238418579" fill="rgb(233, 92, 21)" opacity="1.0"/>
    <path d="M 110.69815063476562 215.06732177734375 C 111.40176391601562 214.78759765625 112.21322631835938 214.3804931640625 112.30424499511719 213.626220703125 C 112.32879638671875 213.32464599609375 112.25914001464844 213.02288818359375 112.10491943359375 212.76254272460938 C 111.74063110351562 212.10818481445312 111.081787109375 211.67095947265625 110.33731079101562 211.58953857421875 C 109.70559692382812 211.5220947265625 109.0850830078125 211.7261962890625 108.49002075195312 211.9373779296875 C 108.15594482421875 212.0565185546875 107.80479431152344 212.19375610351562 107.5933837890625 212.47613525390625 C 107.31466674804688 212.85479736328125 107.3665771484375 213.38015747070312 107.48269653320312 213.83563232421875 C 107.65179443359375 214.50244140625 107.92770385742188 215.13751220703125 108.29971313476562 215.71612548828125 C 108.42864990234375 215.91583251953125 108.57696533203125 216.11614990234375 108.78895568847656 216.22344970703125 C 108.99118041992188 216.31314086914062 109.21511840820312 216.342041015625 109.43348693847656 216.30667114257812 C 110.10003662109375 216.22509765625 110.697265625 215.855224609375 111.06729125976562 215.2947998046875 L 110.69815063476562 215.06732177734375" stroke-width="0.6000000238418579" fill="rgb(70, 150, 179)" opacity="1.0"/>
    <path d="M 103.05575561523438 76.76388549804688 C 103.7806396484375 77.43582153320312 104.61231994628906 78.15017700195312 105.59988403320312 78.13003540039062 C 106.66073608398438 78.10775756835938 107.52958679199219 77.20289611816406 107.89346313476562 76.2061767578125 C 108.033935546875 75.82192993164062 108.11801147460938 75.40045166015625 108.01737976074219 75.00395202636719 C 107.93475341796875 74.677978515625 107.73516845703125 74.39552307128906 107.52505493164062 74.13307189941406 C 106.86349487304688 73.30461120605469 105.98504638671875 72.55223083496094 104.9306640625 72.44366455078125 C 103.867919921875 72.33499145507812 102.76724243164062 72.97825622558594 102.34564208984375 73.96086120605469 C 101.924072265625 74.94345092773438 102.20414733886719 76.185546875 103.01289367675781 76.88604736328125 L 103.05575561523438 76.76388549804688" stroke-width="0.6000000238418579" fill="rgb(140, 28, 33)" opacity="1.0"/>
    <path d="M 98.20697021484375 430.26458740234375 C 98.47911071777344 430.2607421875 98.76223754882812 430.25372314453125 99.00798034667969 430.13629150390625 C 99.25372314453125 430.018798828125 99.45297241210938 429.75579833984375 99.40805053710938 429.48724365234375 C 99.35183715820312 429.15582275390625 98.93785095214844 428.97802734375 98.61604309082031 429.0772705078125 C 98.29425048828125 429.17645263671875 98.068115234375 429.46954345703125 97.9310302734375 429.77667236328125 C 97.87907409667969 429.86749267578125 97.86305236816406 429.9744873046875 97.88612365722656 430.0765380859375 C 97.91932678222656 430.1739501953125 98.05438232421875 430.23895263671875 98.13107299804688 430.1695556640625 L 98.20697021484375 430.26458740234375" stroke-width="0.6000000238418579" fill="rgb(159, 159, 159)" opacity="1.0"/>
    <path d="M 465.42205810546875 61.836456298828125 C 466.01611328125 61.28218078613281 466.43328857421875 60.51228332519531 466.45733642578125 59.7005615234375 C 466.48138427734375 58.888824462890625 466.071533203125 58.051055908203125 465.35528564453125 57.66105651855469 C 464.84857177734375 57.38597106933594 464.2330322265625 57.351318359375 463.6724853515625 57.488433837890625 C 463.1119384765625 57.62553405761719 462.6011962890625 57.92216491699219 462.14520263671875 58.276031494140625 C 461.9468994140625 58.430145263671875 461.75 58.60615539550781 461.6651611328125 58.841888427734375 C 461.56787109375 59.11212158203125 461.6353759765625 59.41078186035156 461.7169189453125 59.68708801269531 C 461.94732666015625 60.467132568359375 462.3060302734375 61.24159240722656 462.93231201171875 61.7607421875 C 463.55859375 62.279876708984375 464.5009765625 62.479217529296875 465.201904296875 62.07041931152344 L 465.42205810546875 61.836456298828125" stroke-width="0.6000000238418579" fill="rgb(159, 159, 159)" opacity="1.0"/>
    <path d="M 93.25308227539062 103.74462890625 C 94.20263671875 103.8587646484375 95.2630615234375 103.94448852539062 96.01956176757812 103.3624267578125 C 96.75607299804688 102.79740905761719 96.96145629882812 101.7911376953125 97.09823608398438 100.87257385253906 C 97.15322875976562 100.49932861328125 97.204833984375 100.10800170898438 97.07682800292969 99.75332641601562 C 96.86068725585938 99.15335083007812 96.2060546875 98.83755493164062 95.58897399902344 98.68035888671875 C 95.01626586914062 98.53422546386719 94.42555236816406 98.47109985351562 93.83489990234375 98.49288940429688 C 92.87582397460938 98.52792358398438 91.81448364257812 98.87892150878906 91.40699768066406 99.7474365234375 C 91.18632507324219 100.21600341796875 91.1962890625 100.76950073242188 91.3328857421875 101.26991271972656 C 91.469482421875 101.77032470703125 91.72528076171875 102.22923278808594 91.98428344726562 102.67866516113281 C 92.24327087402344 103.12811279296875 92.50738525390625 103.56417846679688 92.91802978515625 103.86044311523438 L 93.25308227539062 103.74462890625" stroke-width="0.6000000238418579" fill="rgb(218, 166, 20)" opacity="1.0"/>
    <path d="M 114.7427978515625 128.92124938964844 C 116.13079833984375 128.56260681152344 116.96525573730469 127.14668273925781 116.60662841796875 125.75869750976562 C 116.57589721679688 125.63983154296875 116.53680419921875 125.5233154296875 116.48959350585938 125.40998840332031 C 116.3101806640625 124.97943115234375 115.99472045898438 124.58544921875 115.56210327148438 124.41162109375 C 115.196533203125 124.26470947265625 114.78619384765625 124.28643798828125 114.39756774902344 124.34965515136719 C 113.3575439453125 124.52030944824219 112.38218688964844 124.96632385253906 111.57281494140625 125.641357421875 C 111.35916137695312 125.82015991210938 111.15313720703125 126.02128601074219 111.04057312011719 126.27676391601562 C 110.85136413574219 126.70556640625 110.96261596679688 127.2171630859375 111.19949340820312 127.62197875976562 C 111.55078125 128.22320556640625 112.16098022460938 128.6510467529297 112.82856750488281 128.84959411621094 C 113.49615478515625 129.04815673828125 114.21612548828125 129.03070068359375 114.89419555664062 128.87191772460938 L 114.7427978515625 128.92124938964844" stroke-width="0.6000000238418579" fill="rgb(143, 165, 67)" opacity="1.0"/>
    <path d="M 387.08062744140625 298.7617492675781 C 388.33526611328125 299.5255432128906 390.20465087890625 298.32177734375 390.1365966796875 296.8639831542969 C 390.0685119628906 295.4061584472656 388.21783447265625 294.3826904296875 386.88818359375 295.0079040527344 C 385.5585632324219 295.6331481933594 385.1160583496094 297.5631408691406 385.95550537109375 298.7707214355469 L 387.08062744140625 298.7617492675781" stroke-width="0.6000000238418579" fill="rgb(233, 92, 21)" opacity="1.0"/>
    <path d="M 120.50462341308594 109.59564208984375 C 121.18600463867188 109.164794921875 121.95523071289062 108.5794677734375 121.90242004394531 107.77227783203125 C 121.868896484375 107.45187377929688 121.73678588867188 107.14974975585938 121.52427673339844 106.90762329101562 C 121.01461791992188 106.29435729980469 120.23934936523438 105.96617126464844 119.44429016113281 106.02713012695312 C 118.76998901367188 106.08056640625 118.16070556640625 106.41595458984375 117.57945251464844 106.75373840332031 C 117.25323486328125 106.94400024414062 116.9127197265625 107.15655517578125 116.74691772460938 107.49354553222656 C 116.52960205078125 107.94454956054688 116.68707275390625 108.48410034179688 116.89797973632812 108.93794250488281 C 117.20584106445312 109.6025390625 117.61923217773438 110.21292114257812 118.12213134765625 110.74542236328125 C 118.29623413085938 110.9290771484375 118.49076843261719 111.10958862304688 118.73367309570312 111.18026733398438 C 118.962890625 111.23443603515625 119.20292663574219 111.22071838378906 119.42448425292969 111.14080810546875 C 120.10600280761719 110.92459106445312 120.65835571289062 110.4202880859375 120.935546875 109.76119995117188 L 120.50462341308594 109.59564208984375" stroke-width="0.6000000238418579" fill="rgb(70, 150, 179)" opacity="1.0"/>
    <path d="M 432.04547119140625 73.33157348632812 C 432.73248291015625 74.11502075195312 433.52685546875 74.95454406738281 434.56463623046875 75.04083251953125 C 435.679443359375 75.13287353515625 436.68896484375 74.27853393554688 437.178955078125 73.27294921875 C 437.3680419921875 72.88531494140625 437.5020751953125 72.45248413085938 437.43963623046875 72.02578735351562 C 437.388427734375 71.67498779296875 437.20989990234375 71.35708618164062 437.01812744140625 71.05902099609375 C 436.41455078125 70.11834716796875 435.5751953125 69.23385620117188 434.4814453125 69.00534057617188 C 433.37884521484375 68.77577209472656 432.1546630859375 69.33059692382812 431.605712890625 70.31509399414062 C 431.0567626953125 71.29957580566406 431.21539306640625 72.63250732421875 431.98724365234375 73.45500183105469 L 432.04547119140625 73.33157348632812" stroke-width="0.6000000238418579" fill="rgb(140, 28, 33)" opacity="1.0"/>
    <path d="M 120.37387084960938 417.9288330078125 C 120.6495361328125 417.73101806640625 120.9342041015625 417.5220947265625 121.10195922851562 417.2269287109375 C 121.26969909667969 416.93170166015625 121.28616333007812 416.5206298828125 121.04885864257812 416.27789306640625 C 120.7552490234375 415.9788818359375 120.205078125 416.0919189453125 119.94651794433594 416.42266845703125 C 119.68795776367188 416.75341796875 119.6654052734375 417.21435546875 119.74397277832031 417.626220703125 C 119.75552368164062 417.75616455078125 119.81533813476562 417.8770751953125 119.91165161132812 417.96502685546875 C 120.01504516601562 418.04107666015625 120.19950866699219 418.0113525390625 120.228515625 417.8856201171875 L 120.37387084960938 417.9288330078125" stroke-width="0.6000000238418579" fill="rgb(159, 159, 159)" opacity="1.0"/>
    <path d="M 449.419677734375 425.6082763671875 C 450.00341796875 424.90087890625 450.35748291015625 423.9781494140625 450.2655029296875 423.06610107421875 C 450.1734619140625 422.154052734375 449.592041015625 421.2764892578125 448.7332763671875 420.9449462890625 C 448.1258544921875 420.7113037109375 447.431884765625 420.7626953125 446.8245849609375 420.998291015625 C 446.21728515625 421.23382568359375 445.6890869140625 421.640625 445.2305908203125 422.103515625 C 445.03125 422.3050537109375 444.836669921875 422.5308837890625 444.7762451171875 422.80712890625 C 444.7069091796875 423.12384033203125 444.82623291015625 423.4482421875 444.9580078125 423.7454833984375 C 445.3302001953125 424.58477783203125 445.8450927734375 425.3990478515625 446.6220703125 425.8883056640625 C 447.3990478515625 426.3775634765625 448.4830322265625 426.46258544921875 449.2076416015625 425.90234375 L 449.419677734375 425.6082763671875" stroke-width="0.6000000238418579" fill="rgb(159, 159, 159)" opacity="1.0"/>
    <path d="M 447.0819091796875 284.176513671875 C 447.778564453125 283.6185302734375 448.5286865234375 282.9681091308594 448.6353759765625 282.08367919921875 C 448.7403564453125 281.2237548828125 448.2042236328125 280.42926025390625 447.681640625 279.73779296875 C 447.468994140625 279.4571838378906 447.241943359375 279.16705322265625 446.9219970703125 279.0205383300781 C 446.381103515625 278.77239990234375 445.7427978515625 279.0021057128906 445.23480224609375 279.3104553222656 C 444.76318359375 279.59649658203125 444.3349609375 279.9487609863281 443.9635009765625 280.3564758300781 C 443.3599853515625 281.018310546875 442.900146484375 281.95477294921875 443.21240234375 282.79388427734375 C 443.38037109375 283.24713134765625 443.755615234375 283.60223388671875 444.17822265625 283.83831787109375 C 444.6009521484375 284.0743713378906 445.0738525390625 284.2038879394531 445.54248046875 284.3251037597656 C 446.01123046875 284.4462890625 446.47430419921875 284.55535888671875 446.9400634765625 284.47540283203125 L 447.0819091796875 284.176513671875" stroke-width="0.6000000238418579" fill="rgb(218, 166, 20)" opacity="1.0"/>
    <path d="M 427.19720458984375 373.35565185546875 C 428.2269287109375 374.50396728515625 429.9925537109375 374.60009765625 431.14093017578125 373.57037353515625 C 431.2392578125 373.4822082519531 431.3311767578125 373.38714599609375 431.41607666015625 373.28594970703125 C 431.738525390625 372.9013977050781 431.958740234375 372.405029296875 431.91058349609375 371.9057312011719 C 431.86993408203125 371.4837646484375 431.64605712890625 371.1025695800781 431.39324951171875 370.76263427734375 C 430.71533203125 369.8536376953125 429.80645751953125 369.1427307128906 428.76092529296875 368.7037658691406 C 428.484375 368.5882263183594 428.19024658203125 368.490966796875 427.8905029296875 368.50994873046875 C 427.38720703125 368.5414733886719 426.95361328125 368.9010314941406 426.6842041015625 369.3277282714844 C 426.28375244140625 369.9609069824219 426.1771240234375 370.755615234375 426.3179931640625 371.4916076660156 C 426.45880126953125 372.2276306152344 426.8319091796875 372.90673828125 427.31927490234375 373.4758605957031 L 427.19720458984375 373.35565185546875" stroke-width="0.6000000238418579" fill="rgb(143, 165, 67)" opacity="1.0"/>
    <path d="M 447.97491455078125 358.3683776855469 C 449.013916015625 357.2674865722656 448.20147705078125 355.12493896484375 446.7174072265625 354.880859375 C 445.2332763671875 354.6368103027344 443.80462646484375 356.2828063964844 444.149658203125 357.7572021484375 C 444.4947509765625 359.2315979003906 446.3453369140625 360.09161376953125 447.74261474609375 359.50445556640625 L 447.97491455078125 358.3683776855469" stroke-width="0.6000000238418579" fill="rgb(233, 92, 21)" opacity="1.0"/>
    <path d="M 450.03363037109375 86.37208557128906 C 450.8404541015625 85.77897644042969 451.74267578125 84.98681640625 451.6070556640625 83.99124145507812 C 451.53765869140625 83.59713745117188 451.34765625 83.23428344726562 451.0633544921875 82.95274353027344 C 450.37847900390625 82.2371826171875 449.3892822265625 81.89794921875 448.40948486328125 82.0426025390625 C 447.57861328125 82.16744995117188 446.852783203125 82.63601684570312 446.1619873046875 83.1051025390625 C 445.7742919921875 83.36923217773438 445.370849609375 83.66220092773438 445.1947021484375 84.09417724609375 C 444.9647216796875 84.67189025878906 445.2066650390625 85.32675170898438 445.507568359375 85.87075805664062 C 445.94677734375 86.66748046875 446.5120849609375 87.38784790039062 447.1815185546875 88.00393676757812 C 447.4132080078125 88.21635437011719 447.669921875 88.42312622070312 447.97705078125 88.48956298828125 C 448.26580810546875 88.5367431640625 448.56201171875 88.49887084960938 448.82958984375 88.380615234375 C 449.6552734375 88.05343627929688 450.29583740234375 87.38052368164062 450.58197021484375 86.53976440429688 L 450.03363037109375 86.37208557128906" stroke-width="0.6000000238418579" fill="rgb(70, 150, 179)" opacity="1.0"/>
    <path d="M 447.2476806640625 396.2466125488281 C 448.2933349609375 395.1845703125 449.40777587890625 393.9635009765625 449.4222412109375 392.47412109375 C 449.436767578125 390.87420654296875 448.1124267578125 389.52362060546875 446.626708984375 388.929931640625 C 446.053955078125 388.7008056640625 445.4224853515625 388.554931640625 444.8203125 388.6886291503906 C 444.3253173828125 388.79833984375 443.8905029296875 389.08636474609375 443.48541259765625 389.39111328125 C 442.206787109375 390.3505859375 441.03289794921875 391.64044189453125 440.8214111328125 393.22467041015625 C 440.609375 394.82147216796875 441.5289306640625 396.5096435546875 442.99078369140625 397.18963623046875 C 444.45263671875 397.8696594238281 446.33740234375 397.50390625 447.42987060546875 396.3167724609375 L 447.2476806640625 396.2466125488281" stroke-width="0.6000000238418579" fill="rgb(140, 28, 33)" opacity="1.0"/>
    <path d="M 116.6160888671875 214.667236328125 C 115.9334716796875 214.45834350585938 115.22088623046875 214.24847412109375 114.51298522949219 214.3443603515625 C 113.80508422851562 214.44024658203125 113.09634399414062 214.93701171875 112.99284362792969 215.64373779296875 C 112.86703491210938 216.516357421875 113.75796508789062 217.29269409179688 114.64117431640625 217.30340576171875 C 115.52435302734375 217.31414794921875 116.3243408203125 216.763916015625 116.91326904296875 216.10714721679688 C 117.11593627929688 215.92208862304688 117.24188232421875 215.66778564453125 117.26622009277344 215.39443969726562 C 117.26156616210938 215.12451171875 116.97650146484375 214.853759765625 116.729248046875 214.96554565429688 L 116.6160888671875 214.667236328125" stroke-width="0.6000000238418579" fill="rgb(159, 159, 159)" opacity="1.0"/>
    <path d="M 114.362060546875 224.5849609375 C 112.42172241210938 223.43527221679688 110.04519653320312 222.92535400390625 107.86422729492188 223.49517822265625 C 105.6832275390625 224.06497192382812 103.77166748046875 225.81094360351562 103.29214477539062 228.02328491210938 C 102.955078125 229.58786010742188 103.34344482421875 231.25448608398438 104.14637756347656 232.64059448242188 C 104.94931030273438 234.02670288085938 106.13827514648438 235.15554809570312 107.43695068359375 236.09381103515625 C 108.00234985351562 236.50180053710938 108.62493896484375 236.88882446289062 109.319091796875 236.93060302734375 C 110.11491394042969 236.9788818359375 110.85775756835938 236.56585693359375 111.530029296875 236.13275146484375 C 113.42796325683594 234.909912109375 115.21078491210938 233.34967041015625 116.10458374023438 231.27606201171875 C 116.99838256835938 229.20245361328125 116.79345703125 226.5364990234375 115.15716552734375 224.98858642578125 L 114.362060546875 224.5849609375" stroke-width="0.6000000238418579" fill="rgb(159, 159, 159)" opacity="1.0"/>
    <path d="M 298.42706298828125 105.11593627929688 C 297.15545654296875 106.6336669921875 295.8077697753906 108.37579345703125 295.9618225097656 110.34591674804688 C 296.10894775390625 112.2620849609375 297.6218566894531 113.75607299804688 299.06024169921875 115.03189086914062 C 299.64532470703125 115.54930114746094 300.2656555175781 116.08126831054688 301.0254821777344 116.26031494140625 C 302.3103942871094 116.56387329101562 303.5982666015625 115.78564453125 304.5686340332031 114.89320373535156 C 305.4696044921875 114.06521606445312 306.2470397949219 113.11213684082031 306.8771057128906 112.06314086914062 C 307.9007568359375 110.36026000976562 308.49212646484375 108.12272644042969 307.44659423828125 106.43399047851562 C 306.8835144042969 105.521484375 305.912353515625 104.9129638671875 304.8900451660156 104.58401489257812 C 303.8677673339844 104.25509643554688 302.78265380859375 104.17984008789062 301.7103576660156 104.12081909179688 C 300.6380920410156 104.06178283691406 299.58319091796875 104.02676391601562 298.6050720214844 104.40394592285156 L 298.42706298828125 105.11593627929688" stroke-width="0.6000000238418579" fill="rgb(218, 166, 20)" opacity="1.0"/>
    <path d="M 223.38397216796875 125.09622192382812 C 220.5889892578125 123.87551879882812 217.33367919921875 125.15171813964844 216.11300659179688 127.94667053222656 C 216.00848388671875 128.18600463867188 215.92108154296875 128.4324493408203 215.85140991210938 128.6841583251953 C 215.5869140625 129.640625 215.59820556640625 130.71432495117188 216.0946044921875 131.57305908203125 C 216.51400756835938 132.2987823486328 217.22967529296875 132.8008270263672 217.96343994140625 133.20489501953125 C 219.92901611328125 134.28379821777344 222.1475830078125 134.8167266845703 224.38876342773438 134.74832153320312 C 224.98114013671875 134.729248046875 225.590087890625 134.66278076171875 226.11380004882812 134.38262939453125 C 226.99331665039062 133.91281127929688 227.47830200195312 132.91012573242188 227.61279296875 131.92138671875 C 227.81344604492188 130.45362854003906 227.35296630859375 128.9364776611328 226.49554443359375 127.72799682617188 C 225.63812255859375 126.51950073242188 224.40957641601562 125.60403442382812 223.065673828125 124.98016357421875 L 223.38397216796875 125.09622192382812" stroke-width="0.6000000238418579" fill="rgb(143, 165, 67)" opacity="1.0"/>
    <path d="M 223.86846923828125 98.34226989746094 C 221.90310668945312 101.3240966796875 224.66482543945312 105.97134399414062 228.212890625 105.93318176269531 C 231.76095581054688 105.89500427246094 234.40933227539062 101.48760986328125 233.0062255859375 98.20234680175781 C 231.60308837890625 94.91709899902344 226.95223999023438 93.67347717285156 223.94488525390625 95.60769653320312 L 223.86846923828125 98.34226989746094" stroke-width="0.6000000238418579" fill="rgb(233, 92, 21)" opacity="1.0"/>
    <path d="M 205.65606689453125 99.20059204101562 C 204.63348388671875 97.68006896972656 203.25424194335938 95.96981811523438 201.42364501953125 96.14157104492188 C 200.69775390625 96.23828125 200.01983642578125 96.55783081054688 199.4832763671875 97.05618286132812 C 198.12255859375 98.25346374511719 197.42660522460938 100.0360107421875 197.61605834960938 101.83854675292969 C 197.78070068359375 103.3671875 198.58181762695312 104.73004150390625 199.38653564453125 106.029052734375 C 199.83978271484375 106.75801086425781 200.34454345703125 107.51806640625 201.120849609375 107.87319946289062 C 202.15945434570312 108.33804321289062 203.37527465820312 107.94569396972656 204.3929443359375 107.4373779296875 C 205.88323974609375 106.69529724121094 207.24359130859375 105.71688842773438 208.42120361328125 104.54013061523438 C 208.82733154296875 104.13275146484375 209.22503662109375 103.67919921875 209.37002563476562 103.12275695800781 C 209.4783935546875 102.59848022460938 209.43185424804688 102.05400085449219 209.23611450195312 101.55570983886719 C 208.70111083984375 100.02110290527344 207.5198974609375 98.79843139648438 206.004638671875 98.21089172363281 L 205.65606689453125 99.20059204101562" stroke-width="0.6000000238418579" fill="rgb(70, 150, 179)" opacity="1.0"/>
    <path d="M 263.928955078125 126.82833862304688 C 262.5975341796875 128.26393127441406 261.18206787109375 129.9110565185547 261.2214660644531 131.86734008789062 C 261.26507568359375 133.96881103515625 263.0570983886719 135.6903533935547 265.0313415527344 136.4116668701172 C 265.7923889160156 136.69009399414062 266.6272888183594 136.8568878173828 267.4127502441406 136.65771484375 C 268.0585021972656 136.49423217773438 268.6181335449219 136.09898376464844 269.13812255859375 135.68292236328125 C 270.779541015625 134.3728485107422 272.2703857421875 132.6331024169922 272.4859619140625 130.54452514648438 C 272.7017822265625 128.43939208984375 271.4280700683594 126.25871276855469 269.4818420410156 125.423095703125 C 267.5356140136719 124.58749389648438 265.07501220703125 125.14169311523438 263.68701171875 126.74337768554688 L 263.928955078125 126.82833862304688" stroke-width="0.6000000238418579" fill="rgb(140, 28, 33)" opacity="1.0"/>
    <path d="M 318.6513366699219 113.8907470703125 C 317.8270263671875 114.36557006835938 316.9745178222656 114.86874389648438 316.424072265625 115.64541625976562 C 315.8736267089844 116.42210388183594 315.71282958984375 117.56422424316406 316.3070068359375 118.30776977539062 C 317.04248046875 119.22396850585938 318.6089172363281 119.06231689453125 319.42266845703125 118.21188354492188 C 320.23638916015625 117.3614501953125 320.4281005859375 116.08184814453125 320.32403564453125 114.91091918945312 C 320.328125 114.54519653320312 320.19500732421875 114.19126892089844 319.950927734375 113.91893005371094 C 319.6837463378906 113.67793273925781 319.16082763671875 113.70936584472656 319.0447998046875 114.05181884765625 L 318.6513366699219 113.8907470703125" stroke-width="0.6000000238418579" fill="rgb(159, 159, 159)" opacity="1.0"/>
    <path d="M 201.33477783203125 127.08364868164062 C 199.44873046875 125.91473388671875 197.12115478515625 125.36654663085938 194.9647216796875 125.88421630859375 C 192.80825805664062 126.40188598632812 190.89373779296875 128.08175659179688 190.378662109375 130.2484588623047 C 190.01641845703125 131.7808074951172 190.36572265625 133.42774963378906 191.1282958984375 134.80691528320312 C 191.89089965820312 136.1860809326172 193.03823852539062 137.31976318359375 194.2972412109375 138.26815795898438 C 194.84536743164062 138.6805419921875 195.45016479492188 139.07345581054688 196.13214111328125 139.128173828125 C 196.91397094726562 139.19126892089844 197.65277099609375 138.79959106445312 198.322509765625 138.38674926757812 C 200.21337890625 137.22120666503906 201.99761962890625 135.7214813232422 202.91744995117188 133.69937133789062 C 203.8372802734375 131.67726135253906 203.68804931640625 129.05093383789062 202.10891723632812 127.49627685546875 L 201.33477783203125 127.08364868164062" stroke-width="0.6000000238418579" fill="rgb(159, 159, 159)" opacity="1.0"/>
    <path d="M 279.56787109375 106.84733581542969 C 277.9447937011719 107.29180908203125 276.1598815917969 107.85618591308594 275.3135986328125 109.30694580078125 C 274.48858642578125 110.7166748046875 274.822021484375 112.49275207519531 275.20904541015625 114.08038330078125 C 275.3672180175781 114.72509765625 275.54296875 115.39704895019531 275.9870300292969 115.88999938964844 C 276.7375793457031 116.72416687011719 278.0140075683594 116.80413818359375 279.1239013671875 116.65057373046875 C 280.1541748046875 116.50843811035156 281.1586608886719 116.2191162109375 282.1066589355469 115.79144287109375 C 283.646240234375 115.09757995605469 285.1426696777344 113.82093811035156 285.2300109863281 112.13511657714844 C 285.27850341796875 111.22506713867188 284.894775390625 110.32977294921875 284.3399353027344 109.60504150390625 C 283.78509521484375 108.88027954101562 283.0635986328125 108.30233764648438 282.3431396484375 107.74192810058594 C 281.6227111816406 107.1815185546875 280.9028015136719 106.64630126953125 280.0369567871094 106.43618774414062 L 279.56787109375 106.84733581542969" stroke-width="0.6000000238418579" fill="rgb(218, 166, 20)" opacity="1.0"/>
    <path d="M 242.76309204101562 122.15411376953125 C 240.81283569335938 124.11343383789062 240.8201904296875 127.28279113769531 242.779541015625 129.23304748535156 C 242.94729614257812 129.40005493164062 243.126708984375 129.554931640625 243.31640625 129.69654846191406 C 244.03732299804688 130.23451232910156 244.94793701171875 130.57810974121094 245.8365478515625 130.4412384033203 C 246.58746337890625 130.3256378173828 247.24688720703125 129.88624572753906 247.82952880859375 129.39935302734375 C 249.38723754882812 128.0939483642578 250.5670166015625 126.395263671875 251.24630737304688 124.479736328125 C 251.42498779296875 123.97311401367188 251.56915283203125 123.4368896484375 251.5047607421875 122.90238952636719 C 251.39715576171875 122.0050048828125 250.709716796875 121.26557922363281 249.9188232421875 120.82682800292969 C 248.74502563476562 120.17462158203125 247.3121337890625 120.06460571289062 246.0093994140625 120.39138793945312 C 244.70663452148438 120.71817016601562 243.529296875 121.45481872558594 242.56039428710938 122.384765625 L 242.76309204101562 122.15411376953125" stroke-width="0.6000000238418579" fill="rgb(143, 165, 67)" opacity="1.0"/>
    <path d="M 250.02978515625 97.77241516113281 C 248.20391845703125 100.75149536132812 251.05413818359375 105.20693969726562 254.52243041992188 105.05538940429688 C 257.99072265625 104.90380859375 260.43853759765625 100.50869750976562 258.9607238769531 97.34135437011719 C 257.4828796386719 94.17401123046875 252.89495849609375 93.10769653320312 250.01644897460938 95.09591674804688 L 250.02978515625 97.77241516113281" stroke-width="0.6000000238418579" fill="rgb(233, 92, 21)" opacity="1.0"/>
    <path d="M 341.0826416015625 89.13742065429688 C 339.51458740234375 88.93089294433594 337.6200866699219 88.84683227539062 336.6858215332031 90.12966918945312 C 336.3338928222656 90.65463256835938 336.1535339355469 91.27589416503906 336.1696472167969 91.90771484375 C 336.1674499511719 93.47210693359375 336.92364501953125 94.94049072265625 338.1983947753906 95.84725952148438 C 339.28173828125 96.61367797851562 340.6212463378906 96.87350463867188 341.9215087890625 97.09452819824219 C 342.6521301269531 97.21749877929688 343.4322814941406 97.32489013671875 344.1054382324219 97.02528381347656 C 344.9994201660156 96.61857604980469 345.4398193359375 95.60763549804688 345.6919860839844 94.65873718261719 C 346.06280517578125 93.27046203613281 346.2064514160156 91.83132934570312 346.1174011230469 90.39715576171875 C 346.085693359375 89.90167236328125 346.0192565917969 89.38528442382812 345.741943359375 88.97366333007812 C 345.46453857421875 88.60414123535156 345.0855712890625 88.32330322265625 344.65130615234375 88.16543579101562 C 343.3526306152344 87.63528442382812 341.8867492675781 87.70152282714844 340.64117431640625 88.34664916992188 L 341.0826416015625 89.13742065429688" stroke-width="0.6000000238418579" fill="rgb(70, 150, 179)" opacity="1.0"/>
    <path d="M 338.40655517578125 117.70695495605469 C 337.2485046386719 115.89764404296875 335.8889465332031 113.94076538085938 333.8004150390625 113.44393920898438 C 331.5565490722656 112.91159057617188 329.2347412109375 114.34072875976562 327.925048828125 116.23886108398438 C 327.4197692871094 116.97048950195312 327.0127258300781 117.81124877929688 327.0079650878906 118.70028686523438 C 327.0037841796875 119.43112182617188 327.26947021484375 120.13430786132812 327.5681457519531 120.8011474609375 C 328.5075378417969 122.90516662597656 329.9447021484375 124.96755981445312 332.103515625 125.77163696289062 C 334.27984619140625 126.58053588867188 336.9465637207031 125.8282470703125 338.36993408203125 123.99136352539062 C 339.7933044433594 122.15446472167969 339.8822937011719 119.38856506347656 338.56341552734375 117.473388671875 L 338.40655517578125 117.70695495605469" stroke-width="0.6000000238418579" fill="rgb(140, 28, 33)" opacity="1.0"/>
    <path d="M 360.62432861328125 104.81272888183594 C 360.09197998046875 105.12722778320312 359.54150390625 105.46035766601562 359.1893005371094 105.96910095214844 C 358.83709716796875 106.47784423828125 358.7407531738281 107.22128295898438 359.13226318359375 107.70030212402344 C 359.6168518066406 108.29052734375 360.6337890625 108.17424011230469 361.15655517578125 107.61569213867188 C 361.6793518066406 107.05712890625 361.7947998046875 106.22409057617188 361.7187805175781 105.46380615234375 C 361.7188415527344 105.22608947753906 361.6297607421875 104.99700927734375 361.46917724609375 104.82174682617188 C 361.2938232421875 104.66702270507812 360.95416259765625 104.69119262695312 360.8811950683594 104.91461181640625 L 360.62432861328125 104.81272888183594" stroke-width="0.6000000238418579" fill="rgb(159, 159, 159)" opacity="1.0"/>
    <path d="M 353.12554931640625 117.77874755859375 C 351.3049621582031 118.19503784179688 349.58734130859375 119.24418640136719 348.60284423828125 120.83006286621094 C 347.6183776855469 122.41595458984375 347.4664001464844 124.5543212890625 348.4401550292969 126.15605163574219 C 349.13006591796875 127.28762817382812 350.31365966796875 128.06675720214844 351.5862121582031 128.44105529785156 C 352.8587341308594 128.81536865234375 354.2163391113281 128.81504821777344 355.5311279296875 128.6377716064453 C 356.1032409667969 128.56027221679688 356.69775390625 128.43759155273438 357.1383361816406 128.06680297851562 C 357.6436767578125 127.64193725585938 357.8541259765625 126.9703369140625 358.0107421875 126.32691955566406 C 358.452880859375 124.51040649414062 358.63348388671875 122.55693054199219 357.987548828125 120.80224609375 C 357.3416442871094 119.04757690429688 355.6982421875 117.5638427734375 353.8330993652344 117.56765747070312 L 353.12554931640625 117.77874755859375" stroke-width="0.6000000238418579" fill="rgb(159, 159, 159)" opacity="1.0"/>
    <path d="M 365.1874694824219 106.43775939941406 C 363.8489685058594 106.58389282226562 362.36749267578125 106.80429077148438 361.5155944824219 107.84359741210938 C 360.6856994628906 108.85313415527344 360.7247619628906 110.29849243164062 360.8299865722656 111.60171508789062 C 360.8735046386719 112.13107299804688 360.9274597167969 112.68414306640625 361.2160339355469 113.12971496582031 C 361.7036437988281 113.88357543945312 362.7019958496094 114.10800170898438 363.5982971191406 114.12689208984375 C 364.4302062988281 114.14474487304688 365.2604064941406 114.04306030273438 366.06341552734375 113.82492065429688 C 367.3674011230469 113.47122192382812 368.71099853515625 112.65162658691406 368.9929504394531 111.33074951171875 C 369.146240234375 110.61787414550781 368.9561462402344 109.862060546875 368.6093444824219 109.2193603515625 C 368.2625427246094 108.57669067382812 367.7655029296875 108.02891540527344 367.2671203613281 107.49514770507812 C 366.7687072753906 106.96136474609375 366.2675476074219 106.44757080078125 365.6100158691406 106.17218017578125 L 365.1874694824219 106.43775939941406" stroke-width="0.6000000238418579" fill="rgb(218, 166, 20)" opacity="1.0"/>
    <path d="M 432.02490234375 161.8721923828125 C 429.7835693359375 161.94842529296875 428.02850341796875 163.8271484375 428.104736328125 166.06842041015625 C 428.11126708984375 166.26031494140625 428.13140869140625 166.4515380859375 428.1650390625 166.640625 C 428.292724609375 167.3590087890625 428.640625 168.0677490234375 429.2421875 168.4801025390625 C 429.75054931640625 168.82861328125 430.384521484375 168.934814453125 430.9993896484375 168.97024536132812 C 432.6455078125 169.0628662109375 434.28631591796875 168.71307373046875 435.75146484375 167.95721435546875 C 436.138427734375 167.75674438476562 436.5213623046875 167.51959228515625 436.780029296875 167.16769409179688 C 437.214599609375 166.57717895507812 437.21844482421875 165.7581787109375 436.99420166015625 165.05960083007812 C 436.6619873046875 164.022216796875 435.87548828125 163.16168212890625 434.923583984375 162.63177490234375 C 433.9715576171875 162.101806640625 432.8663330078125 161.88397216796875 431.7769775390625 161.8961181640625 L 432.02490234375 161.8721923828125" stroke-width="0.6000000238418579" fill="rgb(143, 165, 67)" opacity="1.0"/>
    <path d="M 140.13975524902344 414.5057373046875 C 137.4482879638672 416.7496337890625 138.72518920898438 421.89801025390625 142.06893920898438 422.867919921875 C 145.41268920898438 423.837890625 149.14987182617188 420.44842529296875 148.7631072998047 416.964599609375 C 148.37635803222656 413.4808349609375 144.3600311279297 410.9942321777344 140.98672485351562 411.9586486816406 L 140.13975524902344 414.5057373046875" stroke-width="0.6000000238418579" fill="rgb(233, 92, 21)" opacity="1.0"/>
    <path d="M 432.548095703125 179.27008056640625 C 431.18359375 179.1627197265625 429.54248046875 179.176025390625 428.79327392578125 180.32705688476562 C 428.512939453125 180.79672241210938 428.38525390625 181.341796875 428.4278564453125 181.8870849609375 C 428.4969482421875 183.23916625976562 429.217041015625 184.473876953125 430.35986328125 185.19970703125 C 431.33087158203125 185.81289672851562 432.50030517578125 185.97665405273438 433.634033203125 186.10870361328125 C 434.27099609375 186.18182373046875 434.9500732421875 186.23922729492188 435.518310546875 185.94976806640625 C 436.27239990234375 185.55770874023438 436.607177734375 184.6640625 436.78204345703125 183.83258056640625 C 437.03955078125 182.615966796875 437.098388671875 181.36572265625 436.95635986328125 180.13031005859375 C 436.906494140625 179.70355224609375 436.82562255859375 179.26031494140625 436.5672607421875 178.91717529296875 C 436.310791015625 178.61041259765625 435.9705810546875 178.3848876953125 435.58807373046875 178.26815795898438 C 434.441650390625 177.868896484375 433.1778564453125 177.99267578125 432.130615234375 178.606689453125 L 432.548095703125 179.27008056640625" stroke-width="0.6000000238418579" fill="rgb(70, 150, 179)" opacity="1.0"/>
    <path d="M 413.9468994140625 160.26837158203125 C 413.0592041015625 158.81021118164062 412.01397705078125 157.23123168945312 410.3635559082031 156.79922485351562 C 408.5903625488281 156.33621215820312 406.7201843261719 157.43017578125 405.6457824707031 158.91485595703125 C 405.2312927246094 159.487060546875 404.89288330078125 160.14776611328125 404.87322998046875 160.85400390625 C 404.8568420410156 161.4345703125 405.0553894042969 161.99798583984375 405.28076171875 162.53314208984375 C 405.9895324707031 164.22149658203125 407.0945129394531 165.88568115234375 408.7952880859375 166.56304931640625 C 410.5098876953125 167.24456787109375 412.6419677734375 166.69451904296875 413.8056640625 165.26055908203125 C 414.96923828125 163.82659912109375 415.08935546875 161.63070678710938 414.07568359375 160.0855712890625 L 413.9468994140625 160.26837158203125" stroke-width="0.6000000238418579" fill="rgb(140, 28, 33)" opacity="1.0"/>
    <path d="M 147.0 115.0 C 146.54229736328125 115.34381103515625 146.06982421875 115.70658874511719 145.7977294921875 116.210693359375 C 145.52565002441406 116.71481323242188 145.5129852294922 117.40875244140625 145.92218017578125 117.80949401855469 C 146.4283905029297 118.30305480957031 147.35223388671875 118.09213256835938 147.7761993408203 117.52474975585938 C 148.2001495361328 116.95736694335938 148.2212371826172 116.17904663085938 148.07359313964844 115.48724365234375 C 148.04934692382812 115.26849365234375 147.94400024414062 115.06680297851562 147.77830505371094 114.92195129394531 C 147.60113525390625 114.79751586914062 147.29107666015625 114.85446166992188 147.2467803955078 115.06748962402344 L 147.0 115.0" stroke-width="0.6000000238418579" fill="rgb(159, 159, 159)" opacity="1.0"/>
    <path d="M 421.834228515625 175.1495361328125 C 420.492919921875 174.61862182617188 418.94049072265625 174.53570556640625 417.6202392578125 175.1151123046875 C 416.29998779296875 175.69451904296875 415.268310546875 176.98971557617188 415.18798828125 178.43539428710938 C 415.132568359375 179.45758056640625 415.545654296875 180.47119140625 416.1922607421875 181.26593017578125 C 416.83892822265625 182.06060791015625 417.70355224609375 182.65399169921875 418.6182861328125 183.115966796875 C 419.0164794921875 183.3167724609375 419.4486083984375 183.49853515625 419.891357421875 183.455078125 C 420.39886474609375 183.40548706054688 420.8265380859375 183.06985473632812 421.20751953125 182.7286376953125 C 422.2833251953125 181.76522827148438 423.25238037109375 180.60028076171875 423.6082763671875 179.2005615234375 C 423.964111328125 177.80084228515625 423.56640625 176.13751220703125 422.3770751953125 175.324462890625 L 421.834228515625 175.1495361328125" stroke-width="0.6000000238418579" fill="rgb(159, 159, 159)" opacity="1.0"/>
    <path d="M 412.6185302734375 182.11236572265625 C 411.5174560546875 180.74417114257812 410.23431396484375 179.27105712890625 408.49365234375 179.06512451171875 C 406.8011779785156 178.86248779296875 405.2403259277344 179.92098999023438 403.88214111328125 180.9522705078125 C 403.3310241699219 181.37203979492188 402.7611389160156 181.8199462890625 402.4742736816406 182.45013427734375 C 401.98846435546875 183.51568603515625 402.4433288574219 184.77041625976562 403.0523376464844 185.76864624023438 C 403.61724853515625 186.69537353515625 404.31231689453125 187.53619384765625 405.1162414550781 188.265380859375 C 406.4211730957031 189.4498291015625 408.2658386230469 190.35040283203125 409.91546630859375 189.732177734375 C 410.8065185546875 189.39971923828125 411.5035400390625 188.6597900390625 411.96612548828125 187.82708740234375 C 412.4287109375 186.99444580078125 412.681396484375 186.0633544921875 412.917724609375 185.140625 C 413.1541748046875 184.2178955078125 413.36663818359375 183.30615234375 413.207275390625 182.39007568359375 L 412.6185302734375 182.11236572265625" stroke-width="0.6000000238418579" fill="rgb(218, 166, 20)" opacity="1.0"/>
    <path d="M 444.9805908203125 179.14801025390625 C 442.8624267578125 181.23968505859375 442.8409423828125 184.6524658203125 444.9326171875 186.77066040039062 C 445.11175537109375 186.9520263671875 445.30352783203125 187.1204833984375 445.5064697265625 187.27471923828125 C 446.2777099609375 187.86068725585938 447.255126953125 188.23910522460938 448.21319580078125 188.0999755859375 C 449.0228271484375 187.98245239257812 449.73699951171875 187.51544189453125 450.368896484375 186.99658203125 C 452.058349609375 185.6053466796875 453.344482421875 183.78717041015625 454.0936279296875 181.7308349609375 C 454.290771484375 181.18698120117188 454.450927734375 180.61090087890625 454.3865966796875 180.0347900390625 C 454.279052734375 179.06747436523438 453.545654296875 178.264892578125 452.6981201171875 177.78512573242188 C 451.440185546875 177.07196044921875 449.8983154296875 176.94021606445312 448.49249267578125 177.280029296875 C 447.086669921875 177.61981201171875 445.8121337890625 178.402099609375 444.76019287109375 179.39447021484375 L 444.9805908203125 179.14801025390625" stroke-width="0.6000000238418579" fill="rgb(143, 165, 67)" opacity="1.0"/>
    <path d="M 143.48585510253906 109.97920227050781 C 137.0898895263672 112.80133056640625 136.70578002929688 123.376708984375 142.5843048095703 127.0765380859375 C 148.4628448486328 130.77633666992188 157.49444580078125 126.33285522460938 158.66964721679688 119.43928527832031 C 159.8448486328125 112.54571533203125 153.5110626220703 105.56733703613281 146.5115509033203 105.56072998046875 L 143.48585510253906 109.97920227050781" stroke-width="0.6000000238418579" fill="rgb(233, 92, 21)" opacity="1.0"/>
    <path d="M 445.17779541015625 151.02801513671875 C 442.932861328125 153.11280822753906 440.467529296875 155.83596801757812 441.227783203125 158.8145751953125 C 441.5765380859375 159.9881591796875 442.28082275390625 161.02459716796875 443.2435302734375 161.78094482421875 C 445.5751953125 163.7164306640625 448.70037841796875 164.40167236328125 451.6279296875 163.61941528320312 C 454.10968017578125 162.94949340820312 456.15185546875 161.27154541015625 458.087646484375 159.604248046875 C 459.173583984375 158.66592407226562 460.29736328125 157.6343994140625 460.6817626953125 156.25985717773438 C 461.17901611328125 154.42349243164062 460.2144775390625 152.5177001953125 459.10992431640625 150.9693603515625 C 457.496337890625 148.7013397216797 455.5262451171875 146.70945739746094 453.276123046875 145.07095336914062 C 452.49761962890625 144.50633239746094 451.64501953125 143.96763610839844 450.688232421875 143.873046875 C 449.794189453125 143.8306121826172 448.9071044921875 144.0492401123047 448.1351318359375 144.5022735595703 C 445.739990234375 145.78538513183594 444.0283203125 148.0546112060547 443.4525146484375 150.7100830078125 L 445.17779541015625 151.02801513671875" stroke-width="0.6000000238418579" fill="rgb(70, 150, 179)" opacity="1.0"/>
    <path d="M 377.5253601074219 85.29473876953125 C 376.2140808105469 82.61180114746094 374.6479797363281 79.69302368164062 371.84283447265625 78.67453002929688 C 368.82879638671875 77.58224487304688 365.39495849609375 79.18637084960938 363.2842102050781 81.59919738769531 C 362.4700012207031 82.52914428710938 361.7740783691406 83.62544250488281 361.62603759765625 84.8524169921875 C 361.5039367675781 85.86102294921875 361.7589111328125 86.87442016601562 362.0652770996094 87.84283447265625 C 363.0276794433594 90.89794921875 364.6841735839844 93.97480773925781 367.5374755859375 95.42880249023438 C 370.4142150878906 96.89224243164062 374.2166442871094 96.27775573730469 376.4746398925781 93.96755981445312 C 378.7326354980469 91.65737915039062 379.2956848144531 87.85188293457031 377.7791442871094 84.99716186523438 L 377.5253601074219 85.29473876953125" stroke-width="0.6000000238418579" fill="rgb(140, 28, 33)" opacity="1.0"/>
    <path d="M 127.0045166015625 408.0304260253906 C 125.58634948730469 408.49920654296875 124.11582946777344 409.00262451171875 123.02304077148438 410.0224609375 C 121.93028259277344 411.0422668457031 121.32086181640625 412.74755859375 121.998779296875 414.0794677734375 C 122.83926391601562 415.7215576171875 125.29936218261719 415.9697265625 126.82037353515625 414.91998291015625 C 128.3413848876953 413.8702392578125 129.0419464111328 411.9632873535156 129.2532501220703 410.129638671875 C 129.3755340576172 409.5685729980469 129.28305053710938 408.9820556640625 128.99403381347656 408.4858703613281 C 128.6596221923828 408.0305480957031 127.84550476074219 407.9130554199219 127.55848693847656 408.40289306640625 L 127.0045166015625 408.0304260253906" stroke-width="0.6000000238418579" fill="rgb(159, 159, 159)" opacity="1.0"/>
    <path d="M 413.9085693359375 202.5867919921875 C 411.5262145996094 200.23382568359375 408.2857666015625 198.64581298828125 404.9392395019531 198.6834716796875 C 401.59271240234375 198.72113037109375 398.21197509765625 200.54986572265625 396.7267150878906 203.56475830078125 C 395.6792907714844 205.6976318359375 395.6402587890625 208.23797607421875 396.2991943359375 210.52313232421875 C 396.9581298828125 212.80828857421875 398.2655944824219 214.8614501953125 399.79949951171875 216.67947387695312 C 400.46746826171875 217.47021484375 401.22540283203125 218.2513427734375 402.21038818359375 218.56082153320312 C 403.3395080566406 218.9161376953125 404.5579528808594 218.58792114257812 405.68194580078125 218.20538330078125 C 408.8551940917969 217.1253662109375 411.9837951660156 215.51788330078125 414.0159912109375 212.8516845703125 C 416.04827880859375 210.1854248046875 416.71044921875 206.27127075195312 414.9090576171875 203.45379638671875 L 413.9085693359375 202.5867919921875" stroke-width="0.6000000238418579" fill="rgb(159, 159, 159)" opacity="1.0"/>
    <path d="M 385.9917297363281 114.6500244140625 C 382.9515075683594 115.33851623535156 379.6020202636719 116.23550415039062 377.9161682128906 118.85025024414062 C 376.2731018066406 121.39077758789062 376.74346923828125 124.7049560546875 377.32855224609375 127.67477416992188 C 377.5680236816406 128.88088989257812 377.8377380371094 130.1388397216797 378.6187744140625 131.0876922607422 C 379.9388122558594 132.6932830810547 382.294189453125 132.94664001464844 384.3607482910156 132.75413513183594 C 386.2789611816406 132.57618713378906 388.1616516113281 132.12371826171875 389.95123291015625 131.4105987548828 C 392.8574523925781 130.25375366210938 395.7320251464844 128.014892578125 396.0328674316406 124.90252685546875 C 396.1977233886719 123.22250366210938 395.5615539550781 121.53408813476562 394.5946960449219 120.14714050292969 C 393.6278076171875 118.76019287109375 392.3403625488281 117.63113403320312 391.0534973144531 116.53462219238281 C 389.7666015625 115.4381103515625 388.4786071777344 114.38824462890625 386.8937072753906 113.92793273925781 L 385.9917297363281 114.6500244140625" stroke-width="0.6000000238418579" fill="rgb(218, 166, 20)" opacity="1.0"/>
    <path d="M 401.2602844238281 86.19718933105469 C 397.19482421875 83.54714965820312 391.75079345703125 84.694580078125 389.1007385253906 88.76004028320312 C 388.8738098144531 89.10816955566406 388.671875 89.47195434570312 388.4964294433594 89.84866333007812 C 387.8300476074219 91.28019714355469 387.56561279296875 92.9681396484375 388.1190185546875 94.44622802734375 C 388.5865478515625 95.69534301757812 389.5777587890625 96.6712646484375 390.62310791015625 97.49818420410156 C 393.4242248535156 99.70779418945312 396.76593017578125 101.1270751953125 400.301025390625 101.60861206054688 C 401.2356872558594 101.73431396484375 402.20880126953125 101.79000854492188 403.10430908203125 101.48797607421875 C 404.60797119140625 100.98178100585938 405.632568359375 99.53562927246094 406.1033935546875 98.01931762695312 C 406.803955078125 95.76861572265625 406.4799499511719 93.2667236328125 405.451904296875 91.14491271972656 C 404.42388916015625 89.02310180664062 402.73638916015625 87.26359558105469 400.79132080078125 85.93144226074219 L 401.2602844238281 86.19718933105469" stroke-width="0.6000000238418579" fill="rgb(143, 165, 67)" opacity="1.0"/>
    <path d="M 117.43682861328125 419.8671875 C 112.70884704589844 414.93084716796875 102.86154174804688 418.10693359375 101.42295837402344 424.74407958984375 C 99.98440551757812 431.38128662109375 107.08197021484375 438.1988525390625 113.8095703125 436.978515625 C 120.53717041015625 435.75811767578125 124.8369140625 427.60845947265625 122.50723266601562 421.1734619140625 L 117.43682861328125 419.8671875" stroke-width="0.6000000238418579" fill="rgb(233, 92, 21)" opacity="1.0"/>
    <path d="M 441.5050048828125 195.91366577148438 C 439.244140625 198.078857421875 436.76812744140625 200.89971923828125 437.5916748046875 203.93084716796875 C 437.96636962890625 205.1243896484375 438.7021484375 206.1722412109375 439.6976318359375 206.92984008789062 C 442.1102294921875 208.87063598632812 445.31378173828125 209.52166748046875 448.29248046875 208.676513671875 C 450.8175048828125 207.953125 452.8775634765625 206.20675659179688 454.8291015625 204.47299194335938 C 455.92376708984375 203.49728393554688 457.0557861328125 202.42578125 457.4268798828125 201.01544189453125 C 457.90606689453125 199.1314697265625 456.89068603515625 197.19955444335938 455.7379150390625 195.635009765625 C 454.05377197265625 193.34320068359375 452.009765625 191.339111328125 449.6851806640625 189.700439453125 C 448.8809814453125 189.13580322265625 448.00140380859375 188.59881591796875 447.0224609375 188.5172119140625 C 446.1083984375 188.4879150390625 445.2054443359375 188.72518920898438 444.42388916015625 189.20013427734375 C 441.9970703125 190.54864501953125 440.28387451171875 192.8939208984375 439.7373046875 195.61593627929688 L 441.5050048828125 195.91366577148438" stroke-width="0.6000000238418579" fill="rgb(70, 150, 179)" opacity="1.0"/>
    <path d="M 416.4736328125 135.94808959960938 C 414.9732666015625 133.05223083496094 413.188720703125 129.90538024902344 410.09979248046875 128.8650665283203 C 406.7809753417969 127.74954223632812 403.0727233886719 129.58883666992188 400.8298034667969 132.27731323242188 C 399.9645690917969 133.31350708007812 399.2327575683594 134.5283203125 399.10247802734375 135.87179565429688 C 398.9949645996094 136.97616577148438 399.29931640625 138.0761260986328 399.6585693359375 139.1256866455078 C 400.7875061035156 142.4368133544922 402.67486572265625 145.7539520263672 405.8274841308594 147.26853942871094 C 409.00592041015625 148.79281616210938 413.14190673828125 148.02462768554688 415.5482177734375 145.44447326660156 C 417.95458984375 142.86431884765625 418.4720458984375 138.69485473632812 416.7431640625 135.61668395996094 L 416.4736328125 135.94808959960938" stroke-width="0.6000000238418579" fill="rgb(140, 28, 33)" opacity="1.0"/>
    <path d="M 404.857177734375 85.71499633789062 C 404.7037353515625 87.2579345703125 404.5610656738281 88.86514282226562 405.0675354003906 90.33181762695312 C 405.573974609375 91.79849243164062 406.9345703125 93.09579467773438 408.48382568359375 93.01446533203125 C 410.39599609375 92.9097900390625 411.6689147949219 90.680908203125 411.3146667480469 88.79537963867188 C 410.9604187011719 86.90988159179688 409.4470520019531 85.44108581542969 407.79681396484375 84.46730041503906 C 407.3161926269531 84.11466979980469 406.7208557128906 83.95504760742188 406.1282958984375 84.0198974609375 C 405.55535888671875 84.14508056640625 405.1005554199219 84.86776733398438 405.4441223144531 85.34661865234375 L 404.857177734375 85.71499633789062" stroke-width="0.6000000238418579" fill="rgb(159, 159, 159)" opacity="1.0"/>
    <path d="M 438.751708984375 230.654052734375 C 436.400146484375 233.106689453125 434.8377685546875 236.41845703125 434.92626953125 239.8133544921875 C 435.01483154296875 243.208251953125 436.9212646484375 246.61090087890625 440.0025634765625 248.07254028320312 C 442.182373046875 249.1031494140625 444.760498046875 249.10455322265625 447.06915283203125 248.40158081054688 C 449.3778076171875 247.69863891601562 451.4412841796875 246.34115600585938 453.2628173828125 244.75747680664062 C 454.05511474609375 244.06781005859375 454.83624267578125 243.28704833984375 455.13543701171875 242.28302001953125 C 455.47900390625 241.13201904296875 455.1275634765625 239.90069580078125 454.7225341796875 238.7659912109375 C 453.5789794921875 235.5626220703125 451.90093994140625 232.41241455078125 449.1651611328125 230.39059448242188 C 446.4293212890625 228.36874389648438 442.44793701171875 227.75579833984375 439.6163330078125 229.62591552734375 L 438.751708984375 230.654052734375" stroke-width="0.6000000238418579" fill="rgb(159, 159, 159)" opacity="1.0"/>
    <path d="M 412.406982421875 257.78759765625 C 410.06732177734375 255.49649047851562 407.3674621582031 253.0511474609375 404.0992431640625 253.05279541015625 C 400.9208984375 253.04989624023438 398.26373291015625 255.35308837890625 395.975830078125 257.56134033203125 C 395.0477294921875 258.4598083496094 394.0910949707031 259.4145202636719 393.6985778808594 260.6444091796875 C 393.033447265625 262.72418212890625 394.1516418457031 264.9473876953125 395.4988708496094 266.6617126464844 C 396.7486877441406 268.25335693359375 398.2205810546875 269.6573181152344 399.8695068359375 270.83056640625 C 402.5461730957031 272.7366027832031 406.1598205566406 273.998291015625 409.0782470703125 272.49072265625 C 410.65496826171875 271.6791687011719 411.78277587890625 270.1557922363281 412.4560546875 268.5122985839844 C 413.12939453125 266.86883544921875 413.39251708984375 265.08929443359375 413.627197265625 263.32879638671875 C 413.86187744140625 261.56829833984375 414.05474853515625 259.83343505859375 413.55810546875 258.1723327636719 L 412.406982421875 257.78759765625" stroke-width="0.6000000238418579" fill="rgb(218, 166, 20)" opacity="1.0"/>
    <path d="M 411.2475891113281 87.81158447265625 C 407.74371337890625 91.4083251953125 407.8189697265625 97.16452026367188 411.4157409667969 100.66839599609375 C 411.7237243652344 100.96844482421875 412.0526123046875 101.24624633789062 412.39990234375 101.499755859375 C 413.71978759765625 102.46273803710938 415.38037109375 103.06900024414062 416.99163818359375 102.80303955078125 C 418.353271484375 102.57843017578125 419.5423583984375 101.76748657226562 420.591064453125 100.87179565429688 C 423.394775390625 98.47041320800781 425.50439453125 95.36210632324219 426.70068359375 91.86978149414062 C 427.015380859375 90.94610595703125 427.26666259765625 89.96939086914062 427.1392822265625 88.99984741210938 C 426.92633056640625 87.3720703125 425.663330078125 86.04252624511719 424.21826171875 85.26109313964844 C 422.0736083984375 84.09945678710938 419.468994140625 83.92764282226562 417.1092529296875 84.54661560058594 C 414.74951171875 85.16558837890625 412.6256103515625 86.52651977539062 410.8839416503906 88.23446655273438 L 411.2475891113281 87.81158447265625" stroke-width="0.6000000238418579" fill="rgb(143, 165, 67)" opacity="1.0"/>
    <path d="M 439.0224609375 127.97235107421875 C 434.99346923828125 132.87525939941406 439.0074462890625 141.60255432128906 445.2845458984375 142.1966094970703 C 451.5616455078125 142.79061889648438 457.06341552734375 135.49581909179688 455.1964111328125 129.4286651611328 C 453.329345703125 123.36152648925781 445.3424072265625 120.29678344726562 439.6673583984375 123.1541748046875 L 439.0224609375 127.97235107421875" stroke-width="0.6000000238418579" fill="rgb(233, 92, 21)" opacity="1.0"/>
    <path d="M 439.6041259765625 99.31735229492188 C 437.60882568359375 101.57394409179688 435.4593505859375 104.4764404296875 436.4908447265625 107.31748962402344 C 436.9453125 108.43212890625 437.7344970703125 109.3782958984375 438.74951171875 110.02540588378906 C 441.2177734375 111.69412231445312 444.341796875 112.06297302246094 447.130859375 111.01498413085938 C 449.494384765625 110.11993408203125 451.3306884765625 108.28097534179688 453.0638427734375 106.4627685546875 C 454.0357666015625 105.4398193359375 455.03582763671875 104.322021484375 455.2791748046875 102.93997192382812 C 455.5885009765625 101.09516906738281 454.46075439453125 99.32351684570312 453.2305908203125 97.9151611328125 C 451.43280029296875 95.85173034667969 449.3128662109375 94.09291076660156 446.953125 92.70689392089844 C 446.1368408203125 92.22958374023438 445.25054931640625 91.78477478027344 444.3052978515625 91.78457641601562 C 443.4263916015625 91.82936096191406 442.5794677734375 92.12890625 441.867919921875 92.64669799804688 C 439.648193359375 94.13337707519531 438.1923828125 96.51895141601562 437.8853759765625 99.17282104492188 L 439.6041259765625 99.31735229492188" stroke-width="0.6000000238418579" fill="rgb(70, 150, 179)" opacity="1.0"/>
    <path d="M 313.1657409667969 388.89910888671875 C 310.4307861328125 388.73236083984375 307.3923034667969 388.6623840332031 305.31036376953125 390.44110107421875 C 303.0750732421875 392.3531799316406 302.802490234375 395.8200378417969 303.7739562988281 398.5964660644531 C 304.1480407714844 399.6671142578125 304.7084655761719 400.71856689453125 305.6210021972656 401.3917541503906 C 306.3709716796875 401.9454345703125 307.2953186035156 402.2002258300781 308.2070007324219 402.3937072753906 C 311.0812683105469 403.0072937011719 314.2868347167969 403.0766296386719 316.7381896972656 401.4564514160156 C 319.2076721191406 399.82183837890625 320.4370422363281 396.50836181640625 319.6141357421875 393.66082763671875 C 318.79119873046875 390.81329345703125 316.0079040527344 388.6424560546875 313.04296875 388.5618896484375 L 313.1657409667969 388.89910888671875" stroke-width="0.6000000238418579" fill="rgb(140, 28, 33)" opacity="1.0"/>
    <path d="M 311.0 391.0 C 309.3356628417969 392.2501525878906 307.61761474609375 393.5693664550781 306.6282043457031 395.4024353027344 C 305.6388244628906 397.2355041503906 305.5928039550781 399.7588806152344 307.08074951171875 401.21612548828125 C 308.9214782714844 403.0108642578125 312.2808532714844 402.2438659667969 313.8224792480469 400.1806945800781 C 315.3641052246094 398.1175231933594 315.4407958984375 395.2873840332031 314.9039306640625 392.771728515625 C 314.81573486328125 391.976318359375 314.4326171875 391.242919921875 313.83013916015625 390.7161865234375 C 313.1858825683594 390.263671875 312.0584411621094 390.4707946777344 311.8973388671875 391.24542236328125 L 311.0 391.0" stroke-width="0.6000000238418579" fill="rgb(159, 159, 159)" opacity="1.0"/>
    <path d="M 325.8592529296875 402.44366455078125 C 322.4931640625 404.1031188964844 319.6223449707031 406.9520263671875 318.43414306640625 410.5097961425781 C 317.2459411621094 414.06756591796875 317.94195556640625 418.31884765625 320.5896301269531 420.9981689453125 C 322.4639892578125 422.8900146484375 325.1399230957031 423.8636474609375 327.8016662597656 424.00439453125 C 330.4634704589844 424.1451416015625 333.1175537109375 423.5140380859375 335.605712890625 422.5567626953125 C 336.68829345703125 422.13958740234375 337.7936096191406 421.6236572265625 338.4828186035156 420.694091796875 C 339.2734375 419.62872314453125 339.37298583984375 418.21795654296875 339.38037109375 416.88726806640625 C 339.401123046875 413.1304931640625 338.846923828125 409.2273864746094 336.7691650390625 406.0968017578125 C 334.6913757324219 402.96624755859375 330.789306640625 400.8286437988281 327.14453125 401.7023620605469 L 325.8592529296875 402.44366455078125" stroke-width="0.6000000238418579" fill="rgb(159, 159, 159)" opacity="1.0"/>
    <path d="M 268.9912414550781 405.63055419921875 C 265.7581481933594 407.26214599609375 262.2350769042969 409.2157897949219 261.0706787109375 412.637451171875 C 259.93359375 415.9635009765625 261.39642333984375 419.5667724609375 262.89166259765625 422.7496337890625 C 263.5009765625 424.041748046875 264.1590270996094 425.3837890625 265.306396484375 426.2335205078125 C 267.24615478515625 427.67181396484375 269.97235107421875 427.2945556640625 272.24755859375 426.4959716796875 C 274.359619140625 425.755615234375 276.35443115234375 424.7158203125 278.1709289550781 423.40838623046875 C 281.1211853027344 421.28656005859375 283.7312927246094 417.95404052734375 283.19451904296875 414.3612060546875 C 282.9075622558594 412.421142578125 281.71533203125 410.697021484375 280.2352294921875 409.40576171875 C 278.7550964355469 408.1145324707031 276.9861755371094 407.2041931152344 275.2270812988281 406.33038330078125 C 273.46795654296875 405.45654296875 271.7207336425781 404.6356201171875 269.8047180175781 404.56280517578125 L 268.9912414550781 405.63055419921875" stroke-width="0.6000000238418579" fill="rgb(218, 166, 20)" opacity="1.0"/>
    <path d="M 225.15087890625 407.92510986328125 C 219.0078125 406.1224670410156 212.5665283203125 409.6410827636719 210.76385498046875 415.7841796875 C 210.6094970703125 416.3101806640625 210.49267578125 416.84649658203125 210.4141845703125 417.38909912109375 C 210.116455078125 419.4508056640625 210.42391967773438 421.68365478515625 211.68475341796875 423.340576171875 C 212.7501220703125 424.74090576171875 214.37326049804688 425.5970458984375 216.00811767578125 426.244384765625 C 220.38653564453125 427.97119140625 225.14752197265625 428.49407958984375 229.79638671875 427.7587890625 C 231.02490234375 427.5623779296875 232.275390625 427.262939453125 233.29190063476562 426.541015625 C 234.99908447265625 425.33001708984375 235.74383544921875 423.11376953125 235.76229858398438 421.01922607421875 C 235.79193115234375 417.90966796875 234.43173217773438 414.8721923828125 232.32659912109375 412.58245849609375 C 230.221435546875 410.2926940917969 227.42095947265625 408.7112731933594 224.45745849609375 407.76763916015625 L 225.15087890625 407.92510986328125" stroke-width="0.6000000238418579" fill="rgb(143, 165, 67)" opacity="1.0"/>
    <path d="M 284.37939453125 375.2165222167969 C 281.6302185058594 382.0106506347656 289.0655822753906 390.2449645996094 296.18914794921875 388.7339782714844 C 303.312744140625 387.2229309082031 306.85992431640625 377.2843322753906 302.7087707519531 371.2413024902344 C 298.5576171875 365.1982727050781 288.69696044921875 364.57598876953125 283.42779541015625 369.68341064453125 L 284.37939453125 375.2165222167969" stroke-width="0.6000000238418579" fill="rgb(233, 92, 21)" opacity="1.0"/>
    <path d="M 338.900390625 373.12298583984375 C 336.8940124511719 375.9082946777344 334.78619384765625 379.4435119628906 336.2783203125 382.5479736328125 C 336.92022705078125 383.7602844238281 337.9224853515625 384.74359130859375 339.1468811035156 385.36212158203125 C 342.1351623535156 386.97412109375 345.71942138671875 387.0377502441406 348.76300048828125 385.53277587890625 C 351.3415222167969 384.24951171875 353.2149353027344 381.9558410644531 354.97381591796875 379.6973571777344 C 355.95977783203125 378.4270935058594 356.9668884277344 377.04608154296875 357.0859680175781 375.4512939453125 C 357.227294921875 373.3243103027344 355.74737548828125 371.44342041015625 354.19256591796875 369.986083984375 C 351.9197692871094 367.85040283203125 349.3162841796875 366.0966796875 346.48309326171875 364.7929382324219 C 345.5033264160156 364.3443603515625 344.4478759765625 363.94061279296875 343.3760070800781 364.0476989746094 C 342.3844909667969 364.1982421875 341.4581604003906 364.634033203125 340.71002197265625 365.3019714355469 C 338.36181640625 367.23974609375 336.98187255859375 370.11004638671875 336.9349670410156 373.1542053222656 L 338.900390625 373.12298583984375" stroke-width="0.6000000238418579" fill="rgb(70, 150, 179)" opacity="1.0"/>
    <path d="M 298.2578125 405.311767578125 C 294.6319885253906 406.1854553222656 290.64971923828125 407.3061218261719 288.6496276855469 410.4512634277344 C 286.5030822753906 413.8310546875 287.5308837890625 418.45166015625 289.9024353027344 421.67755126953125 C 290.8162536621094 422.92169189453125 291.96490478515625 424.06658935546875 293.4209899902344 424.5787353515625 C 294.6177978515625 425.000244140625 295.92236328125 424.9632568359375 297.1860046386719 424.8514404296875 C 301.17132568359375 424.5037841796875 305.37078857421875 423.31561279296875 307.9149169921875 420.2294921875 C 310.4768981933594 417.1173095703125 310.7554016113281 412.3148193359375 308.5488586425781 408.9371643066406 C 306.34228515625 405.5594787597656 301.85430908203125 403.8443298339844 297.96356201171875 404.921875 L 298.2578125 405.311767578125" stroke-width="0.6000000238418579" fill="rgb(140, 28, 33)" opacity="1.0"/>
    <path d="M 335.55731201171875 392.0782775878906 C 333.68670654296875 393.0154724121094 331.7505798339844 394.0112609863281 330.4426574707031 395.646240234375 C 329.134765625 397.28118896484375 328.6357421875 399.7683410644531 329.8453063964844 401.47686767578125 C 331.3430480957031 403.58258056640625 334.8031005859375 403.4278869628906 336.6984558105469 401.66461181640625 C 338.5938415527344 399.9013671875 339.1783447265625 397.1163330078125 339.0995788574219 394.53204345703125 C 339.15533447265625 393.7296142578125 338.90826416015625 392.9354553222656 338.4071350097656 392.3062744140625 C 337.8513488769531 391.74298095703125 336.69915771484375 391.7451477050781 336.4006042480469 392.4822692871094 L 335.55731201171875 392.0782775878906" stroke-width="0.6000000238418579" fill="rgb(159, 159, 159)" opacity="1.0"/>
    <path d="M 350.6072692871094 399.668701171875 C 346.9433288574219 400.478271484375 343.47698974609375 402.5608215332031 341.47564697265625 405.7325439453125 C 339.4743347167969 408.9042663574219 339.13751220703125 413.19830322265625 341.0702819824219 416.43072509765625 C 342.439697265625 418.71435546875 344.8062438964844 420.29718017578125 347.357421875 421.06793212890625 C 349.9085998535156 421.8387451171875 352.6361999511719 421.85809326171875 355.2803649902344 421.521240234375 C 356.4309387207031 421.3740234375 357.627197265625 421.13629150390625 358.5178527832031 420.3978271484375 C 359.5393981933594 419.5516357421875 359.9721374511719 418.2054443359375 360.2962646484375 416.9150390625 C 361.2113342285156 413.27197265625 361.60296630859375 409.349853515625 360.3310852050781 405.8149719238281 C 359.0592041015625 402.28009033203125 355.779296875 399.27484130859375 352.03192138671875 399.2550048828125 L 350.6072692871094 399.668701171875" stroke-width="0.6000000238418579" fill="rgb(159, 159, 159)" opacity="1.0"/>
    <path d="M 263.5008544921875 378.5854797363281 C 261.844482421875 375.58953857421875 259.87359619140625 372.3311767578125 256.5999450683594 371.35308837890625 C 253.41766357421875 370.3974304199219 250.0660400390625 371.9075622558594 247.11270141601562 373.4333190917969 C 245.91384887695312 374.0549011230469 244.66958618164062 374.72430419921875 243.90777587890625 375.83837890625 C 242.61819458007812 377.721923828125 243.07162475585938 380.28369140625 243.906982421875 382.4044494628906 C 244.68154907226562 384.3731689453125 245.73480224609375 386.2204895019531 247.03451538085938 387.88983154296875 C 249.14389038085938 390.60113525390625 252.384765625 392.947998046875 255.759521484375 392.3130187988281 C 257.5819396972656 391.9728698730469 259.1680908203125 390.7852783203125 260.3351135253906 389.3411560058594 C 261.50213623046875 387.89703369140625 262.299072265625 386.19366455078125 263.0618591308594 384.5008544921875 C 263.8246154785156 382.8080749511719 264.5378723144531 381.12835693359375 264.5384521484375 379.3158874511719 L 263.5008544921875 378.5854797363281" stroke-width="0.6000000238418579" fill="rgb(218, 166, 20)" opacity="1.0"/>
    <path d="M 261.7442321777344 396.28155517578125 C 256.5013122558594 393.809326171875 250.2469482421875 396.055419921875 247.77471923828125 401.29833984375 C 247.56304931640625 401.747314453125 247.38345336914062 402.2107238769531 247.23733520507812 402.6850891113281 C 246.68243408203125 404.4876708984375 246.64501953125 406.5281066894531 247.541015625 408.18670654296875 C 248.29803466796875 409.58843994140625 249.63018798828125 410.5814208984375 251.00201416015625 411.3893127441406 C 254.67703247070312 413.54669189453125 258.8627014160156 414.68072509765625 263.1241760253906 414.673583984375 C 264.2506103515625 414.6697998046875 265.4111328125 414.576904296875 266.42144775390625 414.0733642578125 C 268.1180725097656 413.22906494140625 269.09442138671875 411.3507080078125 269.404052734375 409.4797058105469 C 269.86572265625 406.7022705078125 269.0740661621094 403.7947692871094 267.5113830566406 401.451904296875 C 265.9486999511719 399.1090393066406 263.66485595703125 397.302490234375 261.1459655761719 396.04364013671875 L 261.7442321777344 396.28155517578125" stroke-width="0.6000000238418579" fill="rgb(143, 165, 67)" opacity="1.0"/>
    <path d="M 210.21209716796875 377.99639892578125 C 206.0421142578125 384.2701721191406 211.829833984375 394.095458984375 219.3143310546875 394.0438232421875 C 226.79885864257812 393.9921569824219 232.421142578125 384.71685791015625 229.4881591796875 377.77557373046875 C 226.55520629882812 370.8343200683594 216.7548828125 368.1732482910156 210.39556884765625 372.228759765625 L 210.21209716796875 377.99639892578125" stroke-width="0.6000000238418579" fill="rgb(233, 92, 21)" opacity="1.0"/>
    <path d="M 266.33892822265625 376.5896301269531 C 264.1766662597656 379.3352966308594 261.8785400390625 382.8393249511719 263.2609558105469 386.0621032714844 C 263.8609924316406 387.3232421875 264.8376159667969 388.3670959472656 266.0560607910156 389.0496826171875 C 269.0253601074219 390.81964111328125 272.66839599609375 391.04058837890625 275.829833984375 389.6424560546875 C 278.50860595703125 388.4496154785156 280.51416015625 386.1982116699219 282.4017028808594 383.9776611328125 C 283.4599914550781 382.7285461425781 284.5445861816406 381.36773681640625 284.7352600097656 379.7507629394531 C 284.9717102050781 377.5934143066406 283.54840087890625 375.61572265625 282.0304260253906 374.0655517578125 C 279.81170654296875 371.79412841796875 277.239990234375 369.89678955078125 274.41497802734375 368.4471435546875 C 273.4379577636719 367.9481506347656 272.3819885253906 367.491455078125 271.28704833984375 367.55364990234375 C 270.2719421386719 367.6635437011719 269.3106994628906 368.0664367675781 268.5205993652344 368.7132263183594 C 266.047607421875 370.5818786621094 264.5188293457031 373.4413146972656 264.3384094238281 376.53570556640625 L 266.33892822265625 376.5896301269531" stroke-width="0.6000000238418579" fill="rgb(70, 150, 179)" opacity="1.0"/>
    <path d="M 332.9054870605469 372.72442626953125 C 331.62823486328125 369.3499450683594 330.07080078125 365.6632080078125 326.81005859375 364.1239318847656 C 323.3062744140625 362.4725341796875 318.9956359863281 364.01806640625 316.1862487792969 366.6845703125 C 315.1026306152344 367.71221923828125 314.1427001953125 368.9532470703125 313.8272399902344 370.4128112792969 C 313.5674743652344 371.612548828125 313.7608337402344 372.8602294921875 314.02099609375 374.0596008300781 C 314.8368835449219 377.8427734375 316.4853515625 381.7297668457031 319.75531005859375 383.7983703613281 C 323.0523681640625 385.88092041015625 327.6956787109375 385.5672607421875 330.67071533203125 383.0406799316406 C 333.6457824707031 380.5141296386719 334.74908447265625 375.9989318847656 333.2441101074219 372.39483642578125 L 332.9054870605469 372.72442626953125" stroke-width="0.6000000238418579" fill="rgb(140, 28, 33)" opacity="1.0"/>
    <path d="M 352.33270263671875 389.7196044921875 C 350.6154479980469 390.89617919921875 348.8415222167969 392.1393737792969 347.773193359375 393.927734375 C 346.70489501953125 395.716064453125 346.549072265625 398.2351379394531 347.9721984863281 399.755859375 C 349.7331237792969 401.6291198730469 353.12286376953125 401.00909423828125 354.7529296875 399.014892578125 C 356.38299560546875 397.0207214355469 356.58282470703125 394.1964416503906 356.15594482421875 391.6596984863281 C 356.10247802734375 390.8611755371094 355.75164794921875 390.11175537109375 355.1726379394531 389.55926513671875 C 354.5486755371094 389.0791320800781 353.4132080078125 389.2369384765625 353.21856689453125 390.0038757324219 L 352.33270263671875 389.7196044921875" stroke-width="0.6000000238418579" fill="rgb(159, 159, 159)" opacity="1.0"/>
    <path d="M 188.17532348632812 401.6309509277344 C 184.25686645507812 402.2804870605469 180.4755859375 404.2867126464844 178.181640625 407.5267028808594 C 175.88766479492188 410.7666931152344 175.28994750976562 415.28668212890625 177.15106201171875 418.812255859375 C 178.47003173828125 421.30316162109375 180.8824462890625 423.10943603515625 183.5357666015625 424.0677490234375 C 186.18905639648438 425.02606201171875 189.07113647460938 425.2000732421875 191.88507080078125 424.99285888671875 C 193.10955810546875 424.9019775390625 194.38742065429688 424.718017578125 195.37045288085938 423.987548828125 C 196.49786376953125 423.150634765625 197.03103637695312 421.751953125 197.4462890625 420.40618896484375 C 198.61859130859375 416.6068115234375 199.2532958984375 412.48309326171875 198.10781860351562 408.6750183105469 C 196.96234130859375 404.866943359375 193.66448974609375 401.5057067871094 189.70452880859375 401.27386474609375 L 188.17532348632812 401.6309509277344" stroke-width="0.6000000238418579" fill="rgb(159, 159, 159)" opacity="1.0"/>
    <path d="M 353.87774658203125 374.3497009277344 C 350.585693359375 374.35272216796875 346.9265441894531 374.49871826171875 344.5823059082031 376.80084228515625 C 342.29937744140625 379.0364990234375 342.0140686035156 382.56011962890625 341.9269104003906 385.7556457519531 C 341.8934020996094 387.0538330078125 341.87908935546875 388.4124755859375 342.4632873535156 389.57147216796875 C 343.4502258300781 391.5322570800781 345.81793212890625 392.3404541015625 347.99169921875 392.6221923828125 C 350.00921630859375 392.8844909667969 352.053955078125 392.855712890625 354.0633239746094 392.5367736816406 C 357.3261413574219 392.02008056640625 360.8077087402344 390.38134765625 361.8406677246094 387.2447814941406 C 362.4007873535156 385.55224609375 362.13763427734375 383.6650085449219 361.4637451171875 382.01153564453125 C 360.7898254394531 380.3580627441406 359.72576904296875 378.8957824707031 358.65472412109375 377.4671630859375 C 357.5836486816406 376.0385437011719 356.5006408691406 374.65771484375 354.9747314453125 373.8153076171875 L 353.87774658203125 374.3497009277344" stroke-width="0.6000000238418579" fill="rgb(218, 166, 20)" opacity="1.0"/>
    <path d="M 367.2120666503906 392.27166748046875 C 361.6465148925781 393.5252990722656 358.1510314941406 399.0533447265625 359.4046630859375 404.618896484375 C 359.5119934082031 405.095458984375 359.65301513671875 405.5638427734375 359.82666015625 406.02044677734375 C 360.4867248535156 407.7554016113281 361.6923522949219 409.3618469238281 363.3914794921875 410.1070861816406 C 364.8273010253906 410.73699951171875 366.4621887207031 410.70166015625 368.015869140625 410.4986267089844 C 372.17388916015625 409.9493713378906 376.1090393066406 408.29681396484375 379.4125061035156 405.71258544921875 C 380.2845458984375 405.0280456542969 381.129150390625 404.2536926269531 381.6086730957031 403.2514953613281 C 382.4146728515625 401.5694580078125 382.035888671875 399.52069091796875 381.1440734863281 397.8810119628906 C 379.82171630859375 395.44580078125 377.4478759765625 393.66802978515625 374.81719970703125 392.79510498046875 C 372.1865539550781 391.92218017578125 369.3206481933594 391.90191650390625 366.6037292480469 392.44903564453125 L 367.2120666503906 392.27166748046875" stroke-width="0.6000000238418579" fill="rgb(143, 165, 67)" opacity="1.0"/>
    <path d="M 360.2742614746094 373.76959228515625 C 357.4718322753906 380.4945983886719 364.7778625488281 388.7557678222656 371.8741455078125 387.3270568847656 C 378.97039794921875 385.8982849121094 382.59832763671875 376.055908203125 378.5342102050781 370.0065612792969 C 374.4700927734375 363.95721435546875 364.6751708984375 363.2373962402344 359.3852233886719 368.260009765625 L 360.2742614746094 373.76959228515625" stroke-width="0.6000000238418579" fill="rgb(233, 92, 21)" opacity="1.0"/>
    <path d="M 389.6440124511719 373.58905029296875 C 387.5456848144531 376.49658203125 385.34075927734375 380.18731689453125 386.8965148925781 383.4314270019531 C 387.56585693359375 384.6983337402344 388.61187744140625 385.7263488769531 389.8902282714844 386.3735656738281 C 393.0101318359375 388.06011962890625 396.75396728515625 388.1298522949219 399.93450927734375 386.5606384277344 C 402.62908935546875 385.22259521484375 404.5880126953125 382.8284912109375 406.42730712890625 380.4710388183594 C 407.4583740234375 379.14508056640625 408.5115966796875 377.7034912109375 408.637451171875 376.03778076171875 C 408.7870178222656 373.8161926269531 407.242919921875 371.85015869140625 405.6202087402344 370.32647705078125 C 403.2481384277344 368.0935974121094 400.5303039550781 366.2593688964844 397.5721130371094 364.89495849609375 C 396.5491027832031 364.42547607421875 395.447021484375 364.0027770996094 394.32733154296875 364.1136474609375 C 393.2914733886719 364.2699890136719 392.3235168457031 364.724365234375 391.54144287109375 365.42132568359375 C 389.08685302734375 367.4432678222656 387.6427917480469 370.4401550292969 387.59100341796875 373.6198425292969 L 389.6440124511719 373.58905029296875" stroke-width="0.6000000238418579" fill="rgb(70, 150, 179)" opacity="1.0"/>
    <path d="M 383.87457275390625 404.0754089355469 C 380.9590148925781 406.601806640625 377.83343505859375 409.5245056152344 377.4912414550781 413.36468505859375 C 377.1260986328125 417.4901123046875 380.2669677734375 421.2462158203125 383.9792175292969 423.082275390625 C 385.4101867675781 423.790771484375 387.00970458984375 424.2965087890625 388.5908508300781 424.07476806640625 C 389.8907165527344 423.8929443359375 391.0715637207031 423.23876953125 392.1792907714844 422.53533935546875 C 395.6751708984375 420.3212890625 398.9681701660156 417.2332763671875 399.83819580078125 413.188720703125 C 400.7122497558594 409.1116943359375 398.6849670410156 404.5674133300781 395.0521240234375 402.51348876953125 C 391.41925048828125 400.4595642089844 386.4809265136719 401.01751708984375 383.41888427734375 403.85711669921875 L 383.87457275390625 404.0754089355469" stroke-width="0.6000000238418579" fill="rgb(140, 28, 33)" opacity="1.0"/>
    <path d="M 400.8948059082031 393.8085632324219 C 399.4527893066406 395.32757568359375 397.968994140625 396.9241027832031 397.2942199707031 398.90850830078125 C 396.61944580078125 400.89288330078125 396.9962158203125 403.4042053222656 398.71649169921875 404.6009826660156 C 400.8432922363281 406.0735168457031 404.0480041503906 404.7501220703125 405.232177734375 402.44500732421875 C 406.4163818359375 400.1398620605469 406.0186462402344 397.3190002441406 405.0648193359375 394.9128723144531 C 404.84417724609375 394.1384582519531 404.3412780761719 393.47491455078125 403.65533447265625 393.05316162109375 C 402.9403381347656 392.7120666503906 401.85638427734375 393.1062927246094 401.82623291015625 393.9018249511719 L 400.8948059082031 393.8085632324219" stroke-width="0.6000000238418579" fill="rgb(159, 159, 159)" opacity="1.0"/>
    <path d="M 423.09625244140625 374.55267333984375 C 421.83544921875 378.04949951171875 421.7452392578125 382.0544738769531 423.3424072265625 385.40887451171875 C 424.9395751953125 388.7632751464844 428.357421875 391.317626953125 432.0872802734375 391.4094543457031 C 434.724365234375 391.4710388183594 437.30224609375 390.32672119140625 439.29766845703125 388.5980529785156 C 441.293212890625 386.869384765625 442.75274658203125 384.5953674316406 443.869873046875 382.2027587890625 C 444.35546875 381.1612548828125 444.789306640625 380.03363037109375 444.6422119140625 378.8969421386719 C 444.47412109375 377.59368896484375 443.57568359375 376.5189208984375 442.66656494140625 375.56463623046875 C 440.099853515625 372.8704833984375 437.0224609375 370.4670715332031 433.3890380859375 369.66168212890625 C 429.75567626953125 368.8562927246094 425.5032958984375 370.0128479003906 423.503662109375 373.1406555175781 L 423.09625244140625 374.55267333984375" stroke-width="0.6000000238418579" fill="rgb(159, 159, 159)" opacity="1.0"/>
    <path d="M 416.9635009765625 400.4862976074219 C 413.601806640625 402.0212707519531 409.9316711425781 403.8730773925781 408.60809326171875 407.31573486328125 C 407.31622314453125 410.66192626953125 408.66436767578125 414.394287109375 410.0622863769531 417.6993408203125 C 410.6321716308594 419.0411376953125 411.2497253417969 420.435791015625 412.3858642578125 421.347900390625 C 414.3065185546875 422.8917236328125 417.101318359375 422.6156005859375 419.453125 421.8919677734375 C 421.63623046875 421.2210693359375 423.711669921875 420.240234375 425.615966796875 418.9793701171875 C 428.708740234375 416.933349609375 431.5029296875 413.63916015625 431.0986328125 409.9542236328125 C 430.88330078125 407.9645690917969 429.7362060546875 406.1590576171875 428.2784423828125 404.7834777832031 C 426.820556640625 403.4079284667969 425.0531005859375 402.4092102050781 423.294189453125 401.44818115234375 C 421.53521728515625 400.48712158203125 419.78631591796875 399.5804748535156 417.83551025390625 399.429931640625 L 416.9635009765625 400.4862976074219" stroke-width="0.6000000238418579" fill="rgb(218, 166, 20)" opacity="1.0"/>
    <path d="M 144.7330322265625 235.17312622070312 C 139.6370086669922 238.83602905273438 138.47523498535156 245.93655395507812 142.1381378173828 251.0325927734375 C 142.4517822265625 251.46896362304688 142.79600524902344 251.88253784179688 143.16819763183594 252.27020263671875 C 144.5826873779297 253.74298095703125 146.49427795410156 254.85101318359375 148.53517150878906 254.87481689453125 C 150.25987243652344 254.89511108398438 151.9000244140625 254.15621948242188 153.38580322265625 253.28244018554688 C 157.35964965820312 250.93804931640625 160.63330078125 247.57241821289062 162.86669921875 243.53515625 C 163.45526123046875 242.46697998046875 163.97735595703125 241.3197021484375 164.0318603515625 240.09872436523438 C 164.12457275390625 238.04901123046875 162.85992431640625 236.13751220703125 161.25177001953125 234.86090087890625 C 158.86553955078125 232.96389770507812 155.6974334716797 232.184814453125 152.658447265625 232.432373046875 C 149.6194610595703 232.67987060546875 146.70896911621094 233.89190673828125 144.193359375 235.61431884765625 L 144.7330322265625 235.17312622070312" stroke-width="0.6000000238418579" fill="rgb(143, 165, 67)" opacity="1.0"/>
    <path d="M 160.31399536132812 269.3460388183594 C 157.5797119140625 276.452880859375 165.4508056640625 284.8736267089844 172.82366943359375 283.17657470703125 C 180.196533203125 281.4795227050781 183.70355224609375 271.0919494628906 179.28326416015625 264.88873291015625 C 174.86297607421875 258.685546875 164.60870361328125 258.21551513671875 159.22650146484375 263.6153259277344 L 160.31399536132812 269.3460388183594" stroke-width="0.6000000238418579" fill="rgb(233, 92, 21)" opacity="1.0"/>
    <path d="M 154.58718872070312 320.111328125 C 151.9656524658203 322.4809265136719 149.0799102783203 325.5833435058594 149.91055297851562 329.03045654296875 C 150.2945098876953 330.389404296875 151.09068298339844 331.5957336425781 152.1892852783203 332.4830017089844 C 154.84840393066406 334.75146484375 158.44210815429688 335.5903625488281 161.83074951171875 334.7336730957031 C 164.70343017578125 333.99957275390625 167.08480834960938 332.0960388183594 169.34332275390625 330.2032165527344 C 170.61032104492188 329.13787841796875 171.92251586914062 327.96563720703125 172.38714599609375 326.38629150390625 C 172.98919677734375 324.27606201171875 171.90634155273438 322.06304931640625 170.65655517578125 320.2601623535156 C 168.83074951171875 317.6192932128906 166.58953857421875 315.2913818359375 164.01986694335938 313.3666687011719 C 163.1307373046875 312.703369140625 162.15576171875 312.0688171386719 161.05377197265625 311.9448547363281 C 160.02328491210938 311.88201904296875 158.99676513671875 312.1203918457031 158.099365234375 312.6308898925781 C 155.31703186035156 314.07354736328125 153.3076171875 316.66412353515625 152.602294921875 319.71783447265625 L 154.58718872070312 320.111328125" stroke-width="0.6000000238418579" fill="rgb(70, 150, 179)" opacity="1.0"/>
    <path d="M 129.7473907470703 294.4824523925781 C 127.59664916992188 291.135498046875 125.07220458984375 287.5159606933594 121.20260620117188 286.60284423828125 C 117.04519653320312 285.62445068359375 112.75003051757812 288.2790222167969 110.33085632324219 291.7987060546875 C 109.39755249023438 293.15533447265625 108.64653015136719 294.71380615234375 108.64070129394531 296.36029052734375 C 108.63540649414062 297.71380615234375 109.12979125976562 299.01519775390625 109.68519592285156 300.2491760253906 C 111.43194580078125 304.14263916015625 114.10049438476562 307.95733642578125 118.10128784179688 309.43927001953125 C 122.134521484375 310.9300231933594 127.07073974609375 309.5278625488281 129.7006378173828 306.1211853027344 C 132.33056640625 302.71453857421875 132.48606872558594 297.5918273925781 130.037109375 294.04937744140625 L 129.7473907470703 294.4824523925781" stroke-width="0.6000000238418579" fill="rgb(140, 28, 33)" opacity="1.0"/>
    <path d="M 140.61997985839844 268.2965087890625 C 138.67160034179688 269.130126953125 136.65338134765625 270.0190124511719 135.2313995361328 271.5924072265625 C 133.8094482421875 273.1658020019531 133.1533966064453 275.65008544921875 134.2722625732422 277.45123291015625 C 135.65835571289062 279.67144775390625 139.1660919189453 279.7257995605469 141.1898651123047 278.0584716796875 C 143.213623046875 276.39117431640625 143.97422790527344 273.61090087890625 144.05198669433594 270.9931945800781 C 144.15724182128906 270.1852722167969 143.95582580566406 269.3672790527344 143.48745727539062 268.70062255859375 C 142.95982360839844 268.09722900390625 141.79473876953125 268.02923583984375 141.44801330566406 268.7563171386719 L 140.61997985839844 268.2965087890625" stroke-width="0.6000000238418579" fill="rgb(159, 159, 159)" opacity="1.0"/>
    <path d="M 155.9217071533203 290.5329895019531 C 153.4256591796875 293.4393005371094 151.87100219726562 297.26409912109375 152.18019104003906 301.08062744140625 C 152.48939514160156 304.89715576171875 154.8455810546875 308.6102600097656 158.40472412109375 310.06561279296875 C 160.92239379882812 311.0914001464844 163.824951171875 310.9338684082031 166.38064575195312 310.0 C 168.93637084960938 309.066162109375 171.17572021484375 307.41058349609375 173.128662109375 305.5152282714844 C 173.97808837890625 304.68994140625 174.80929565429688 303.76275634765625 175.08416748046875 302.6139221191406 C 175.39990234375 301.29693603515625 174.9283447265625 299.932373046875 174.40231323242188 298.679931640625 C 172.91720581054688 295.14410400390625 170.83364868164062 291.701171875 167.62890625 289.5937805175781 C 164.42413330078125 287.4864196777344 159.904052734375 287.04205322265625 156.8316650390625 289.3221740722656 L 155.9217071533203 290.5329895019531" stroke-width="0.6000000238418579" fill="rgb(159, 159, 159)" opacity="1.0"/>
    <path d="M 130.40762329101562 346.4046630859375 C 128.37454223632812 343.2752990722656 125.9791259765625 339.8849182128906 122.34376525878906 339.074951171875 C 118.80946350097656 338.2822265625 115.28201293945312 340.1838684082031 112.1888427734375 342.0716247558594 C 110.93341064453125 342.8403625488281 109.63230895996094 343.66461181640625 108.89022827148438 344.93499755859375 C 107.63386535644531 347.08294677734375 108.3253173828125 349.8334045410156 109.39787292480469 352.07470703125 C 110.39259338378906 354.15545654296875 111.68093872070312 356.0825500488281 113.22344970703125 357.79705810546875 C 115.72706604003906 360.5818176269531 119.43283081054688 362.8827209472656 123.05319213867188 361.930908203125 C 125.00845336914062 361.419921875 126.64120483398438 360.0057373046875 127.79832458496094 358.3450927734375 C 128.9554443359375 356.6844177246094 129.69007873535156 354.7705383300781 130.38839721679688 352.87078857421875 C 131.08670043945312 350.9710388183594 131.732177734375 349.0893859863281 131.59242248535156 347.1185302734375 L 130.40762329101562 346.4046630859375" stroke-width="0.6000000238418579" fill="rgb(218, 166, 20)" opacity="1.0"/>
    <path d="M 161.00408935546875 342.12744140625 C 155.99514770507812 346.09173583984375 155.14830017089844 353.3659973144531 159.11260986328125 358.37493896484375 C 159.45205688476562 358.8038635253906 159.821533203125 359.2081604003906 160.21820068359375 359.5848083496094 C 161.72576904296875 361.015625 163.72158813476562 362.0522155761719 165.79782104492188 361.9803161621094 C 167.5523681640625 361.9197082519531 169.18521118164062 361.0911865234375 170.65475463867188 360.1328125 C 174.58480834960938 357.5619812011719 177.75482177734375 353.9857482910156 179.83551025390625 349.7756042480469 C 180.38363647460938 348.6618347167969 180.8604736328125 347.4707336425781 180.8583984375 346.22674560546875 C 180.85610961914062 344.1382751464844 179.480224609375 342.2543029785156 177.78500366210938 341.0320129394531 C 175.26947021484375 339.2156066894531 172.01153564453125 338.57269287109375 168.93328857421875 338.96746826171875 C 165.85498046875 339.3622741699219 162.95281982421875 340.731689453125 160.47613525390625 342.6014709472656 L 161.00408935546875 342.12744140625" stroke-width="0.6000000238418579" fill="rgb(143, 165, 67)" opacity="1.0"/>
    <path d="M 137.15599060058594 376.5387268066406 C 131.56163024902344 370.98675537109375 120.3033447265625 374.935791015625 118.83915710449219 382.628662109375 C 117.375 390.321533203125 125.75582885742188 397.97265625 133.47515869140625 396.3692321777344 C 141.19447326660156 394.7657775878906 145.91256713867188 385.24578857421875 143.03892517089844 377.8962097167969 L 137.15599060058594 376.5387268066406" stroke-width="0.6000000238418579" fill="rgb(233, 92, 21)" opacity="1.0"/>
    <path d="M 174.0225830078125 370.032958984375 C 171.55886840820312 372.82232666015625 168.90521240234375 376.40985107421875 170.18154907226562 379.91925048828125 C 170.74383544921875 381.29608154296875 171.719482421875 382.46453857421875 172.97393798828125 383.26336669921875 C 176.024658203125 385.3233642578125 179.88458251953125 385.7769470214844 183.32977294921875 384.4802551269531 C 186.2493896484375 383.372802734375 188.51678466796875 381.0995178222656 190.65689086914062 378.8519287109375 C 191.85699462890625 377.58740234375 193.09182739257812 376.2057189941406 193.3916015625 374.4980163574219 C 193.7724609375 372.2185363769531 192.3779296875 370.0304260253906 190.85708618164062 368.2912292480469 C 188.634521484375 365.74310302734375 186.01416015625 363.5715026855469 183.09765625 361.8606872558594 C 182.08883666992188 361.2715148925781 180.99359130859375 360.72259521484375 179.82571411132812 360.7229919433594 C 178.73983764648438 360.7789001464844 177.69369506835938 361.14959716796875 176.81484985351562 361.789794921875 C 174.07342529296875 363.62811279296875 172.27642822265625 366.57647705078125 171.89886474609375 369.85552978515625 L 174.0225830078125 370.032958984375" stroke-width="0.6000000238418579" fill="rgb(70, 150, 179)" opacity="1.0"/>
  </g>
</svg>
