<?xml version="1.0" ?>
<svg xmlns="http://www.w3.org/2000/svg" version="1.1" width="600" height="600">
  <defs/>
  <g>
    <path d="M 357.26641845703125 321.7994079589844 C 349.11883544921875 321.5946350097656 343.4549560546875 332.5548400878906 347.8136901855469 339.37933349609375 C 352.1724853515625 346.2038269042969 363.90545654296875 346.00958251953125 368.5726623535156 339.3250732421875 C 373.2398681640625 332.64056396484375 370.0313720703125 322.1325988769531 362.654052734375 318.64495849609375 L 357.26641845703125 321.7994079589844" stroke-width="0.6000000238418579" fill="rgb(233, 92, 21)" opacity="1.0"/>
    <path d="M 91.79998779296875 189.74725341796875 C 87.50308227539062 189.5635986328125 82.35130310058594 189.78985595703125 80.12806701660156 193.48858642578125 C 79.30059814453125 194.99493408203125 78.9609375 196.72097778320312 79.156005859375 198.42852783203125 C 79.52493286132812 202.66650390625 81.92509460449219 206.4627685546875 85.59536743164062 208.61346435546875 C 88.71343994140625 210.42987060546875 92.40408325195312 210.8126220703125 95.97906494140625 211.0997314453125 C 97.98753356933594 211.25775146484375 100.12648010253906 211.3616943359375 101.87806701660156 210.3887939453125 C 104.2021484375 209.07293701171875 105.15280151367188 206.22906494140625 105.60850524902344 203.59832763671875 C 106.28024291992188 199.7490234375 106.32449340820312 195.81640625 105.73959350585938 191.95297241210938 C 105.534912109375 190.61846923828125 105.23124694824219 189.23562622070312 104.38145446777344 188.1871337890625 C 103.54144287109375 187.252685546875 102.44766235351562 186.58282470703125 101.2335205078125 186.25921630859375 C 97.58871459960938 185.13442993164062 93.63395690917969 185.66513061523438 90.41464233398438 187.7110595703125 L 91.79998779296875 189.74725341796875" stroke-width="0.6000000238418579" fill="rgb(70, 150, 179)" opacity="1.0"/>
    <path d="M 468.203369140625 444.20318603515625 C 463.4482421875 443.073974609375 458.130126953125 442.02197265625 453.927734375 444.5111083984375 C 449.41510009765625 447.187744140625 447.87603759765625 453.1966552734375 448.7342529296875 458.37261962890625 C 449.0643310546875 460.368408203125 449.7276611328125 462.387451171875 451.12548828125 463.8494873046875 C 452.2740478515625 465.0517578125 453.8204345703125 465.7821044921875 455.3634033203125 466.40087890625 C 460.2266845703125 468.35791015625 465.83856201171875 469.45989990234375 470.6417236328125 467.3623046875 C 475.4810791015625 465.244873046875 478.654541015625 459.79803466796875 478.0791015625 454.54248046875 C 477.503662109375 449.28692626953125 473.27630615234375 444.6212158203125 468.0906982421875 443.57305908203125 L 468.203369140625 444.20318603515625" stroke-width="0.6000000238418579" fill="rgb(140, 28, 33)" opacity="1.0"/>
    <path d="M 96.0 196.0 C 95.1318359375 196.652099609375 94.23565673828125 197.34024047851562 93.71955871582031 198.29644775390625 C 93.20346069335938 199.25262451171875 93.17947387695312 200.56887817382812 93.95561218261719 201.32901000976562 C 94.91578674316406 202.26519775390625 96.66812133789062 201.8651123046875 97.4722900390625 200.78890991210938 C 98.27642822265625 199.71270751953125 98.31643676757812 198.23641967773438 98.03639221191406 196.9241943359375 C 97.99038696289062 196.50927734375 97.79055786132812 196.126708984375 97.47628784179688 195.85195922851562 C 97.14022827148438 195.61590576171875 96.55210876464844 195.72393798828125 96.46807861328125 196.12802124023438 L 96.0 196.0" stroke-width="0.6000000238418579" fill="rgb(159, 159, 159)" opacity="1.0"/>
    <path d="M 379.7461242675781 309.5815734863281 C 375.3633117675781 310.6905822753906 371.26495361328125 313.32537841796875 368.9708251953125 317.21826171875 C 366.67669677734375 321.1111755371094 366.4281311035156 326.2947692871094 368.8740234375 330.1168212890625 C 370.6067199707031 332.8168640136719 373.5146484375 334.636474609375 376.6152038574219 335.47137451171875 C 379.71575927734375 336.3062744140625 383.00128173828125 336.2298583984375 386.1733093261719 335.7275085449219 C 387.5535888671875 335.508056640625 388.9855041503906 335.1780090332031 390.0311279296875 334.256103515625 C 391.2303771972656 333.19970703125 391.7022705078125 331.5626220703125 392.0454406738281 329.9967346191406 C 393.0141906738281 325.575927734375 393.3423156738281 320.8382568359375 391.6813049316406 316.62774658203125 C 390.020263671875 312.417236328125 385.9603576660156 308.9180603027344 381.4466857910156 309.03125 L 379.7461242675781 309.5815734863281" stroke-width="0.6000000238418579" fill="rgb(159, 159, 159)" opacity="1.0"/>
    <path d="M 96.77679443359375 441.2020263671875 C 92.05380249023438 441.56396484375 86.81968688964844 442.1708984375 83.70632934570312 445.728515625 C 80.67372131347656 449.18408203125 80.6470947265625 454.2706298828125 80.869140625 458.86492919921875 C 80.96209716796875 460.731201171875 81.089111328125 462.68206787109375 82.05320739746094 464.281494140625 C 83.68220520019531 466.987548828125 87.16708374023438 467.889892578125 90.31651306152344 468.0579833984375 C 93.23965454101562 468.2152099609375 96.17022705078125 467.9517822265625 99.01852416992188 467.27593994140625 C 103.64375305175781 466.18023681640625 108.46096801757812 463.45086669921875 109.60232543945312 458.83843994140625 C 110.22213745117188 456.3492431640625 109.63955688476562 453.6700439453125 108.49307250976562 451.3709716796875 C 107.34658813476562 449.07177734375 105.66107177734375 447.08935546875 103.96919250488281 445.156005859375 C 102.27731323242188 443.22259521484375 100.57345581054688 441.359130859375 98.29266357421875 440.316162109375 L 96.77679443359375 441.2020263671875" stroke-width="0.6000000238418579" fill="rgb(218, 166, 20)" opacity="1.0"/>
    <path d="M 96.29281616210938 148.2157440185547 C 88.99359130859375 146.68421936035156 81.83485412597656 151.35986328125 80.30332946777344 158.65908813476562 C 80.17218017578125 159.28411865234375 80.08554077148438 159.91766357421875 80.04405212402344 160.55496215820312 C 79.88687133789062 162.9765625 80.44821166992188 165.5416259765625 82.0640869140625 167.35055541992188 C 83.42947387695312 168.87933349609375 85.392822265625 169.72515869140625 87.35067749023438 170.327392578125 C 92.59361267089844 171.9322509765625 98.17062377929688 172.10397338867188 103.50238037109375 170.82476806640625 C 104.9111328125 170.48428344726562 106.33601379394531 170.0220947265625 107.45048522949219 169.09066772460938 C 109.3223876953125 167.52813720703125 109.9844970703125 164.88607788085938 109.81436157226562 162.451904296875 C 109.56428527832031 158.83792114257812 107.70675659179688 155.4347381591797 105.05244445800781 152.96810913085938 C 102.39816284179688 150.50149536132812 99.00108337402344 148.9210968017578 95.47306823730469 148.09629821777344 L 96.29281616210938 148.2157440185547" stroke-width="0.6000000238418579" fill="rgb(143, 165, 67)" opacity="1.0"/>
    <path d="M 463.2269287109375 340.30255126953125 C 455.080078125 340.0818176269531 449.39501953125 351.0304260253906 453.740234375 357.8631591796875 C 458.08544921875 364.6958923339844 469.8182373046875 364.524658203125 474.498291015625 357.849609375 C 479.17840576171875 351.1745300292969 475.99066162109375 340.6607666015625 468.6204833984375 337.1588134765625 L 463.2269287109375 340.30255126953125" stroke-width="0.6000000238418579" fill="rgb(233, 92, 21)" opacity="1.0"/>
    <path d="M 102.73184204101562 206.79946899414062 C 98.43597412109375 206.59246826171875 93.28298950195312 206.790771484375 91.0396728515625 210.4774169921875 C 90.20404052734375 211.979248046875 89.85501098632812 213.70343017578125 90.04080200195312 215.41204833984375 C 90.38671875 219.6519775390625 92.76625061035156 223.46124267578125 96.42481994628906 225.63186645507812 C 99.53302001953125 227.4652099609375 103.2215576171875 227.86798095703125 106.79495239257812 228.17449951171875 C 108.80255126953125 228.34344482421875 110.94091796875 228.458984375 112.69778442382812 227.49563598632812 C 115.02899169921875 226.1923828125 115.99508666992188 223.35369873046875 116.46507263183594 220.72543334960938 C 117.15771484375 216.87982177734375 117.22332763671875 212.94744873046875 116.65939331054688 209.08087158203125 C 116.46197509765625 207.74526977539062 116.16580200195312 206.36077880859375 115.32171630859375 205.30767822265625 C 114.48678588867188 204.36865234375 113.39665222167969 203.69287109375 112.18426513671875 203.36270141601562 C 108.54559326171875 202.21810913085938 104.58798217773438 202.72732543945312 101.35757446289062 204.75576782226562 L 102.73184204101562 206.79946899414062" stroke-width="0.6000000238418579" fill="rgb(70, 150, 179)" opacity="1.0"/>
    <path d="M 98.79946899414062 86.20025634765625 C 94.02896118164062 85.137451171875 88.69659423828125 84.15969848632812 84.52926635742188 86.70730590820312 C 80.05426025390625 89.4466552734375 78.59915161132812 95.47660827636719 79.529541015625 100.6402587890625 C 79.88742065429688 102.63128662109375 80.578857421875 104.64093017578125 81.99691772460938 106.08331298828125 C 83.16221618652344 107.26948547363281 84.71870422363281 107.97825622558594 86.2701416015625 108.575439453125 C 91.16036987304688 110.46450805664062 96.7872314453125 111.48806762695312 101.56072998046875 109.32363891601562 C 106.37020874023438 107.13888549804688 109.46743774414062 101.64816284179688 108.8187255859375 96.40103149414062 C 108.16998291015625 91.15390014648438 103.87789916992188 86.5474853515625 98.67807006835938 85.57176208496094 L 98.79946899414062 86.20025634765625" stroke-width="0.6000000238418579" fill="rgb(140, 28, 33)" opacity="1.0"/>
    <path d="M 105.31246948242188 433.92919921875 C 104.46102905273438 434.6029052734375 103.58247375488281 435.31329345703125 103.09060668945312 436.2821044921875 C 102.59873962402344 437.2509765625 102.60784912109375 438.56732177734375 103.40283203125 439.30767822265625 C 104.38619995117188 440.2193603515625 106.12783813476562 439.775390625 106.9046630859375 438.6793212890625 C 107.68145751953125 437.583251953125 107.684326171875 436.1065673828125 107.37136840820312 434.80181884765625 C 107.31497192382812 434.38818359375 107.10557556152344 434.01080322265625 106.78451538085938 433.7440185546875 C 106.442626953125 433.51654052734375 105.85745239257812 433.63934326171875 105.78361511230469 434.04541015625 L 105.31246948242188 433.92919921875" stroke-width="0.6000000238418579" fill="rgb(159, 159, 159)" opacity="1.0"/>
    <path d="M 457.798828125 69.20867919921875 C 453.4215087890625 70.3399658203125 449.33642578125 72.99562072753906 447.06201171875 76.9002685546875 C 444.78759765625 80.80490112304688 444.5653076171875 85.98988342285156 447.03070068359375 89.79962158203125 C 448.77716064453125 92.49093627929688 451.6943359375 94.29585266113281 454.7991943359375 95.11502075195312 C 457.90411376953125 95.9342041015625 461.1893310546875 95.84109497070312 464.35888671875 95.3226318359375 C 465.738037109375 95.09619140625 467.1683349609375 94.75885009765625 468.2093505859375 93.83160400390625 C 469.40325927734375 92.76911926269531 469.8668212890625 91.12959289550781 470.2020263671875 89.56192016601562 C 471.1484375 85.13607788085938 471.4525146484375 80.3966064453125 469.77001953125 76.19444274902344 C 468.087646484375 71.99226379394531 464.00982666015625 68.51359558105469 459.49664306640625 68.64971923828125 L 457.798828125 69.20867919921875" stroke-width="0.6000000238418579" fill="rgb(159, 159, 159)" opacity="1.0"/>
    <path d="M 101.3304443359375 93.79592895507812 C 96.608154296875 94.16929626464844 91.37527465820312 94.78887939453125 88.2703857421875 98.35421752929688 C 85.24600219726562 101.81727600097656 85.23167419433594 106.90408325195312 85.46485900878906 111.49801635742188 C 85.56233215332031 113.36410522460938 85.69406127929688 115.31475830078125 86.66206359863281 116.91189575195312 C 88.29766845703125 119.6141357421875 91.78488159179688 120.50811767578125 94.93484497070312 120.66864013671875 C 97.85850524902344 120.81875610351562 100.78855895996094 120.54827880859375 103.63534545898438 119.86550903320312 C 108.25811767578125 118.758544921875 113.06893920898438 116.01741027832031 114.19917297363281 111.40202331542969 C 114.81298828125 108.91122436523438 114.22390747070312 106.23336791992188 113.07183837890625 103.93690490722656 C 111.91973876953125 101.64044189453125 110.22935485839844 99.6619873046875 108.53271484375 97.73262023925781 C 106.83609008789062 95.80325317382812 105.12765502929688 93.94378662109375 102.84425354003906 92.90634155273438 L 101.3304443359375 93.79592895507812" stroke-width="0.6000000238418579" fill="rgb(218, 166, 20)" opacity="1.0"/>
    <path d="M 107.54342651367188 138.20005798339844 C 100.15452575683594 137.17822265625 93.33627319335938 142.33975219726562 92.31442260742188 149.72865295410156 C 92.2269287109375 150.36135864257812 92.18441772460938 150.99948120117188 92.18722534179688 151.63821411132812 C 92.19833374023438 154.0652618408203 92.93630981445312 156.5855712890625 94.67396545410156 158.2783203125 C 96.14228820800781 159.708984375 98.15985107421875 160.41668701171875 100.15504455566406 160.88177490234375 C 105.49739074707031 162.119384765625 111.07366943359375 161.90396118164062 116.30464172363281 160.25790405273438 C 117.68661499023438 159.82046508789062 119.07620239257812 159.260498046875 120.12355041503906 158.25390625 C 121.88284301757812 156.5650634765625 122.3602294921875 153.88308715820312 122.02166748046875 151.46624755859375 C 121.52151489257812 147.87777709960938 119.43215942382812 144.61111450195312 116.61282348632812 142.33416748046875 C 113.79347229003906 140.05722045898438 110.29447937011719 138.7159881591797 106.71725463867188 138.13772583007812 L 107.54342651367188 138.20005798339844" stroke-width="0.6000000238418579" fill="rgb(143, 165, 67)" opacity="1.0"/>
    <path d="M 395.2138977050781 289.79852294921875 C 387.0671691894531 289.5677795410156 381.3684997558594 300.5096435546875 385.7054138183594 307.3478698730469 C 390.0423278808594 314.1860656738281 401.7756042480469 314.02923583984375 406.4639892578125 307.3597717285156 C 411.1523742675781 300.6903076171875 407.97747802734375 290.1723937988281 400.6114501953125 286.6613464355469 L 395.2138977050781 289.79852294921875" stroke-width="0.6000000238418579" fill="rgb(233, 92, 21)" opacity="1.0"/>
    <path d="M 110.7947998046875 99.74188232421875 C 106.49801635742188 99.55584716796875 101.34609985351562 99.77926635742188 99.12081909179688 103.47674560546875 C 98.29251098632812 104.98263549804688 97.951904296875 106.70848083496094 98.14602661132812 108.41616821289062 C 98.51260375976562 112.65431213378906 100.91065979003906 116.45188903808594 104.57974243164062 118.6046142578125 C 107.69680786132812 120.42276000976562 111.38723754882812 120.80757141113281 114.96205139160156 121.09664916992188 C 116.97042846679688 121.25578308105469 119.10931396484375 121.36090087890625 120.86143493652344 120.38900756835938 C 123.18624877929688 119.07438659667969 124.13848876953125 116.2310791015625 124.59564208984375 113.6005859375 C 125.26950073242188 109.75166320800781 125.31594848632812 105.81906127929688 124.733154296875 101.95529174804688 C 124.52923583984375 100.62069702148438 124.22633361816406 99.23768615722656 123.37712097167969 98.18873596191406 C 122.53762817382812 97.25381469726562 121.44422912597656 96.58334350585938 120.23025512695312 96.25909423828125 C 116.58609008789062 95.13226318359375 112.63104248046875 95.6607666015625 109.41058349609375 97.70492553710938 L 110.7947998046875 99.74188232421875" stroke-width="0.6000000238418579" fill="rgb(70, 150, 179)" opacity="1.0"/>
    <path d="M 441.20831298828125 83.2216796875 C 436.453125 82.09315490722656 431.135009765625 81.04193115234375 426.93304443359375 83.53163146972656 C 422.42083740234375 86.20883178710938 420.8826904296875 92.21786499023438 421.74163818359375 97.39364624023438 C 422.07196044921875 99.38935852050781 422.735595703125 101.40826416015625 424.133544921875 102.87004089355469 C 425.28228759765625 104.0721435546875 426.8287353515625 104.80230712890625 428.37176513671875 105.42080688476562 C 433.2352294921875 107.37716674804688 438.84716796875 108.478271484375 443.64990234375 106.38003540039062 C 448.4888916015625 104.26197814941406 451.6614990234375 98.81478881835938 451.0853271484375 93.55940246582031 C 450.5091552734375 88.30401611328125 446.28125 83.63897705078125 441.0955810546875 82.59159851074219 L 441.20831298828125 83.2216796875" stroke-width="0.6000000238418579" fill="rgb(140, 28, 33)" opacity="1.0"/>
    <path d="M 120.0 419.0 C 119.1318359375 419.652099609375 118.23565673828125 420.3402099609375 117.71955871582031 421.29644775390625 C 117.20346069335938 422.25262451171875 117.17947387695312 423.56884765625 117.95561218261719 424.3289794921875 C 118.91578674316406 425.26519775390625 120.66812133789062 424.8651123046875 121.4722900390625 423.7889404296875 C 122.27642822265625 422.71270751953125 122.31643676757812 421.2364501953125 122.03639221191406 419.9241943359375 C 121.99038696289062 419.50927734375 121.79055786132812 419.126708984375 121.47628784179688 418.8519287109375 C 121.14022827148438 418.61590576171875 120.55210876464844 418.72393798828125 120.46807861328125 419.1280517578125 L 120.0 419.0" stroke-width="0.6000000238418579" fill="rgb(159, 159, 159)" opacity="1.0"/>
    <path d="M 438.7977294921875 414.7982177734375 C 434.4202880859375 415.92822265625 430.334716796875 418.58270263671875 428.059326171875 422.486572265625 C 425.783935546875 426.390380859375 425.560302734375 431.5750732421875 428.02447509765625 435.38531494140625 C 429.7701416015625 438.0770263671875 432.686767578125 439.882568359375 435.791259765625 440.70257568359375 C 438.895751953125 441.5225830078125 442.18084716796875 441.43035888671875 445.35040283203125 440.91278076171875 C 446.7296142578125 440.68670654296875 448.159912109375 440.3497314453125 449.2010498046875 439.4228515625 C 450.395263671875 438.3607177734375 450.8592529296875 436.721435546875 451.19488525390625 435.1539306640625 C 452.142333984375 430.728515625 452.44775390625 425.9893798828125 450.7664794921875 421.786865234375 C 449.08526611328125 417.58447265625 445.00860595703125 414.1048583984375 440.49560546875 414.23974609375 L 438.7977294921875 414.7982177734375" stroke-width="0.6000000238418579" fill="rgb(159, 159, 159)" opacity="1.0"/>
    <path d="M 437.796630859375 275.794189453125 C 433.074951171875 276.174072265625 427.843017578125 276.8009033203125 424.7431640625 280.3704528808594 C 421.7236328125 283.837646484375 421.71630859375 288.92437744140625 421.95587158203125 293.51788330078125 C 422.055908203125 295.3838195800781 422.1903076171875 297.3342590332031 423.1605224609375 298.9300231933594 C 424.79986572265625 301.62994384765625 428.2882080078125 302.5190734863281 431.4383544921875 302.67523193359375 C 434.3621826171875 302.8213195800781 437.291748046875 302.5467834472656 440.1375732421875 301.8600769042969 C 444.75872802734375 300.7467346191406 449.565673828125 297.9990234375 450.689453125 293.38214111328125 C 451.29986572265625 290.89056396484375 450.70709228515625 288.21356201171875 449.5518798828125 285.9187316894531 C 448.3966064453125 283.6239013671875 446.7034912109375 281.6478271484375 445.0042724609375 279.7208251953125 C 443.30499267578125 277.7938537597656 441.593994140625 275.9367980957031 439.3092041015625 274.90252685546875 L 437.796630859375 275.794189453125" stroke-width="0.6000000238418579" fill="rgb(218, 166, 20)" opacity="1.0"/>
    <path d="M 436.24462890625 369.7149353027344 C 428.9521484375 368.1541748046875 421.7752685546875 372.8006591796875 420.2144775390625 380.0931091308594 C 420.080810546875 380.7175598144531 419.99163818359375 381.3507080078125 419.9476318359375 381.98779296875 C 419.7806396484375 384.4085998535156 420.3316650390625 386.9756774902344 421.940185546875 388.79095458984375 C 423.29925537109375 390.3251037597656 425.259033203125 391.1787414550781 427.21435546875 391.788818359375 C 432.45037841796875 393.4145812988281 438.0262451171875 393.6087341308594 443.3626708984375 392.3511047363281 C 444.772705078125 392.01629638671875 446.1993408203125 391.5598449707031 447.31744384765625 390.63299560546875 C 449.1954345703125 389.078125 449.8681640625 386.4389343261719 449.70782470703125 384.0043029785156 C 449.4722900390625 380.38958740234375 447.62860107421875 376.9792175292969 444.98443603515625 374.50213623046875 C 442.34027099609375 372.0250549316406 438.9498291015625 370.4311218261719 435.4254150390625 369.5921936035156 L 436.24462890625 369.7149353027344" stroke-width="0.6000000238418579" fill="rgb(143, 165, 67)" opacity="1.0"/>
    <path d="M 438.769775390625 367.2040100097656 C 430.79742431640625 368.89801025390625 427.83514404296875 380.8744812011719 433.660400390625 386.49957275390625 C 439.4857177734375 392.1246032714844 450.8526611328125 389.20941162109375 453.83905029296875 381.6232604980469 C 456.825439453125 374.037109375 451.2630615234375 364.5620422363281 443.277099609375 362.88397216796875 L 438.769775390625 367.2040100097656" stroke-width="0.6000000238418579" fill="rgb(233, 92, 21)" opacity="1.0"/>
    <path d="M 439.6641845703125 91.72947692871094 C 435.36846923828125 91.51553344726562 430.2149658203125 91.70547485351562 427.965576171875 95.38864135742188 C 427.12744140625 96.88922119140625 426.77557373046875 98.61288452148438 426.9586181640625 100.3218994140625 C 427.29766845703125 104.56259155273438 429.671142578125 108.37588500976562 433.326416015625 110.55253601074219 C 436.4317626953125 112.3909912109375 440.11981201171875 112.79978942871094 443.69287109375 113.11212158203125 C 445.7003173828125 113.2843017578125 447.838623046875 113.4033203125 449.5970458984375 112.44276428222656 C 451.9305419921875 111.14321899414062 452.9012451171875 108.30596923828125 453.37548828125 105.6783447265625 C 454.074462890625 101.83367919921875 454.14642333984375 97.9012451171875 453.5887451171875 94.03353881835938 C 453.3934326171875 92.69757080078125 453.0994873046875 91.31253051757812 452.257080078125 90.25802612304688 C 451.42364501953125 89.31761169433594 450.3345947265625 88.6400146484375 449.1226806640625 88.307861328125 C 445.48565673828125 87.15731811523438 441.52703857421875 87.66015625 438.293212890625 89.68344116210938 L 439.6641845703125 91.72947692871094" stroke-width="0.6000000238418579" fill="rgb(70, 150, 179)" opacity="1.0"/>
    <path d="M 434.77490234375 407.20526123046875 C 429.88751220703125 407.2289123535156 424.47119140625 407.4603271484375 420.97406005859375 410.8700866699219 C 417.219482421875 414.53521728515625 417.1405029296875 420.73773193359375 419.19482421875 425.5655517578125 C 419.98614501953125 427.4273681640625 421.1068115234375 429.233154296875 422.80987548828125 430.32440185546875 C 424.2095947265625 431.2220458984375 425.8846435546875 431.5672607421875 427.52996826171875 431.8048095703125 C 432.7176513671875 432.5601806640625 438.4312744140625 432.3079833984375 442.60455322265625 429.13714599609375 C 446.80841064453125 425.9384765625 448.60833740234375 419.8968505859375 446.81005859375 414.925048828125 C 445.01171875 409.95318603515625 439.80352783203125 406.4154968261719 434.516845703125 406.61944580078125 L 434.77490234375 407.20526123046875" stroke-width="0.6000000238418579" fill="rgb(140, 28, 33)" opacity="1.0"/>
    <path d="M 121.22891235351562 227.20004272460938 C 119.80241394042969 228.02484130859375 118.3271484375 228.89886474609375 117.37583923339844 230.24578857421875 C 116.424560546875 231.5926513671875 116.14927673339844 233.57147216796875 117.18060302734375 234.8577880859375 C 118.45719909667969 236.4427490234375 121.17010498046875 236.15826416015625 122.57720947265625 234.682861328125 C 123.98432922363281 233.20745849609375 124.31277465820312 230.99041748046875 124.12921142578125 228.96240234375 C 124.13529968261719 228.32894897460938 123.9036865234375 227.71624755859375 123.4801025390625 227.24517822265625 C 123.01664733886719 226.8284912109375 122.11091613769531 226.8843994140625 121.91091918945312 227.47796630859375 L 121.22891235351562 227.20004272460938" stroke-width="0.6000000238418579" fill="rgb(159, 159, 159)" opacity="1.0"/>
    <path d="M 123.2008056640625 229.20501708984375 C 116.34054565429688 229.29598999023438 109.36199951171875 231.7393798828125 104.60270690917969 236.6761474609375 C 99.84342956542969 241.6129150390625 97.64816284179688 249.17630004882812 99.91020202636719 255.680419921875 C 101.51531982421875 260.27691650390625 105.16560363769531 263.9883728027344 109.44757080078125 266.3143310546875 C 113.72955322265625 268.6402893066406 118.60598754882812 269.68634033203125 123.46513366699219 270.063720703125 C 125.57981872558594 270.2266845703125 127.80978393554688 270.2445983886719 129.6782989501953 269.2526550292969 C 131.82102966308594 268.116455078125 133.09498596191406 265.86651611328125 134.15380859375 263.6763000488281 C 137.1430206298828 257.4928283691406 139.29844665527344 250.61569213867188 138.3319091796875 243.8150634765625 C 137.36534118652344 237.014404296875 132.60711669921875 230.41754150390625 125.90496826171875 228.99258422851562 L 123.2008056640625 229.20501708984375" stroke-width="0.6000000238418579" fill="rgb(159, 159, 159)" opacity="1.0"/>
    <path d="M 285.7999572753906 108.53567504882812 C 278.63421630859375 109.11154174804688 270.6941223144531 110.06207275390625 265.98919677734375 115.47885131835938 C 261.40625 120.74024963378906 261.39447021484375 128.45993041992188 261.7573547363281 135.43113708496094 C 261.908935546875 138.2628936767578 262.1126403808594 141.222900390625 263.5848083496094 143.64480590820312 C 266.0722961425781 147.742431640625 271.36614990234375 149.09228515625 276.14678955078125 149.3297119140625 C 280.583984375 149.5518035888672 285.030029296875 149.13558959960938 289.3489074707031 148.09384155273438 C 296.3621826171875 146.40487670898438 303.6576232910156 142.23556518554688 305.3638000488281 135.2291259765625 C 306.2904357910156 131.44793701171875 305.3912048339844 127.38523864746094 303.6383361816406 123.90242004394531 C 301.88543701171875 120.41960144042969 299.3162536621094 117.42045593261719 296.7377014160156 114.49580383300781 C 294.1591491699219 111.57115173339844 291.56280517578125 108.75262451171875 288.09552001953125 107.18270874023438 L 285.7999572753906 108.53567504882812" stroke-width="0.6000000238418579" fill="rgb(218, 166, 20)" opacity="1.0"/>
    <path d="M 231.79959106445312 113.77896118164062 C 220.48263549804688 113.94123840332031 211.43997192382812 123.24702453613281 211.60226440429688 134.56398010253906 C 211.61614990234375 135.53305053710938 211.69879150390625 136.4999237060547 211.8494873046875 137.4573211669922 C 212.42291259765625 141.09506225585938 214.10791015625 144.70596313476562 217.1025390625 146.8463134765625 C 219.63302612304688 148.65533447265625 222.82150268554688 149.25401306152344 225.9207763671875 149.4939422607422 C 234.21759033203125 150.12472534179688 242.53204345703125 148.5224609375 250.00030517578125 144.85362243652344 C 251.9727783203125 143.88050842285156 253.9285888671875 142.72186279296875 255.26858520507812 140.97183227539062 C 257.5199279785156 138.0352020263672 257.6207580566406 133.9029998779297 256.55853271484375 130.3556671142578 C 254.98519897460938 125.08805847167969 251.10205078125 120.66769409179688 246.35101318359375 117.89924621582031 C 241.60000610351562 115.13079833984375 236.04425048828125 113.92172241210938 230.546142578125 113.87498474121094 L 231.79959106445312 113.77896118164062" stroke-width="0.6000000238418579" fill="rgb(143, 165, 67)" opacity="1.0"/>
    <path d="M 234.2052001953125 110.20033264160156 C 222.11087036132812 112.783447265625 217.63507080078125 130.96102905273438 226.48318481445312 139.48709106445312 C 235.33132934570312 148.0131072998047 252.57464599609375 143.57156372070312 257.0939636230469 132.05575561523438 C 261.61328125 120.53993225097656 253.15802001953125 106.17156982421875 241.03765869140625 103.63803100585938 L 234.2052001953125 110.20033264160156" stroke-width="0.6000000238418579" fill="rgb(233, 92, 21)" opacity="1.0"/>
    <path d="M 213.20404052734375 111.20001220703125 C 206.936279296875 109.37973022460938 199.26052856445312 107.85543823242188 194.64947509765625 112.50588989257812 C 192.886474609375 114.42800903320312 191.76333618164062 116.84982299804688 191.43508911132812 119.437255859375 C 190.45062255859375 125.81741333007812 192.61965942382812 132.27894592285156 197.25436401367188 136.77284240722656 C 201.19561767578125 140.57484436035156 206.4979248046875 142.47000122070312 211.6641845703125 144.18243408203125 C 214.56787109375 145.13966369628906 217.683349609375 146.064208984375 220.61618041992188 145.26177978515625 C 224.5166015625 144.16015625 226.94354248046875 140.3109130859375 228.56396484375 136.59730529785156 C 230.94229125976562 131.16537475585938 232.42572021484375 125.38430786132812 232.95675659179688 119.47833251953125 C 233.13629150390625 117.4373779296875 233.1873779296875 115.2894287109375 232.31280517578125 113.43743896484375 C 231.41156005859375 111.75701904296875 230.04080200195312 110.37515258789062 228.36773681640625 109.46031188964844 C 223.400634765625 106.48785400390625 217.37957763671875 105.84397888183594 211.896240234375 107.69891357421875 L 213.20404052734375 111.20001220703125" stroke-width="0.6000000238418579" fill="rgb(70, 150, 179)" opacity="1.0"/>
    <path d="M 256.2454528808594 113.77691650390625 C 248.82833862304688 113.81535339355469 240.60867309570312 114.16937255859375 235.30316162109375 119.34588623046875 C 229.60723876953125 124.91004943847656 229.49053955078125 134.32301330566406 232.61077880859375 141.64869689941406 C 233.81259155273438 144.47369384765625 235.51422119140625 147.2135467529297 238.09942626953125 148.8687744140625 C 240.22406005859375 150.23028564453125 242.76629638671875 150.7533416748047 245.26339721679688 151.11300659179688 C 253.13662719726562 152.25665283203125 261.8074645996094 151.8709716796875 268.13922119140625 147.056640625 C 274.5173034667969 142.2001190185547 277.2457275390625 133.0304718017578 274.5140380859375 125.48614501953125 C 271.7823486328125 117.94180297851562 263.87646484375 112.57574462890625 255.85357666015625 112.88803100585938 L 256.2454528808594 113.77691650390625" stroke-width="0.6000000238418579" fill="rgb(140, 28, 33)" opacity="1.0"/>
    <path d="M 318.4825134277344 108.20376586914062 C 317.1949462890625 109.23196411132812 315.8664855957031 110.31607055664062 315.1266174316406 111.78970336914062 C 314.38677978515625 113.2633056640625 314.4095458984375 115.26097106933594 315.62103271484375 116.37911987304688 C 317.1195983886719 117.75601196289062 319.7596740722656 117.07035827636719 320.93109130859375 115.4017333984375 C 322.1025085449219 113.73310852050781 322.0968017578125 111.49197387695312 321.6130065917969 109.51406860351562 C 321.52459716796875 108.88677978515625 321.2042541503906 108.31546020507812 320.7151794433594 107.912841796875 C 320.19482421875 107.56988525390625 319.3075866699219 107.76019287109375 319.19830322265625 108.37689208984375 L 318.4825134277344 108.20376586914062" stroke-width="0.6000000238418579" fill="rgb(159, 159, 159)" opacity="1.0"/>
    <path d="M 212.2017822265625 114.7821044921875 C 205.34146118164062 114.87774658203125 198.36447143554688 117.32594299316406 193.60845947265625 122.26603698730469 C 188.8524169921875 127.20611572265625 186.66229248046875 134.7711181640625 188.92877197265625 141.27381896972656 C 190.53704833984375 145.86927795410156 194.18991088867188 149.57833862304688 198.47354125976562 151.90142822265625 C 202.75717163085938 154.22451782226562 207.6343994140625 155.26727294921875 212.493896484375 155.641357421875 C 214.60873413085938 155.8029022216797 216.8387451171875 155.81927490234375 218.70660400390625 154.82606506347656 C 220.8486328125 153.68836975097656 222.12109375 151.4375457763672 223.17843627929688 149.24655151367188 C 226.16348266601562 143.06094360351562 228.31427001953125 136.18222045898438 227.34307861328125 129.3821258544922 C 226.37188720703125 122.58203125 221.60906982421875 115.98828125 214.9058837890625 114.56784057617188 L 212.2017822265625 114.7821044921875" stroke-width="0.6000000238418579" fill="rgb(159, 159, 159)" opacity="1.0"/>
    <path d="M 275.250732421875 109.93963623046875 C 268.1015930175781 109.18698120117188 260.12237548828125 108.66007995605469 254.50115966796875 113.11837768554688 C 249.02835083007812 117.44639587402344 247.59616088867188 125.0318603515625 246.66998291015625 131.9506072998047 C 246.2978515625 134.76181030273438 245.953369140625 137.70867919921875 246.95465087890625 140.3600616455078 C 248.6455078125 144.84536743164062 253.60040283203125 147.14633178710938 258.255615234375 148.2594451904297 C 262.57598876953125 149.29428100585938 267.0226135253906 149.703369140625 271.4593200683594 149.47421264648438 C 278.6634216308594 149.10476684570312 286.601318359375 146.34930419921875 289.56768798828125 139.7766876220703 C 291.1742858886719 136.230712890625 291.0380859375 132.072021484375 289.95611572265625 128.32620239257812 C 288.8741149902344 124.58038330078125 286.90081787109375 121.15975952148438 284.9045715332031 117.81060791015625 C 282.9083557128906 114.46148681640625 280.8750915527344 111.21337890625 277.7560119628906 109.03224182128906 L 275.250732421875 109.93963623046875" stroke-width="0.6000000238418579" fill="rgb(218, 166, 20)" opacity="1.0"/>
    <path d="M 244.20181274414062 113.79484558105469 C 232.887939453125 114.10128784179688 223.96463012695312 123.52143859863281 224.27108764648438 134.8353271484375 C 224.29730224609375 135.80413818359375 224.39227294921875 136.7698516845703 224.55517578125 137.72525024414062 C 225.17486572265625 141.35536193847656 226.90573120117188 144.94447326660156 229.92733764648438 147.04649353027344 C 232.48065185546875 148.82308959960938 235.67645263671875 149.381103515625 238.77850341796875 149.58152770996094 C 247.0826416015625 150.1065673828125 255.37591552734375 148.3985137939453 262.79681396484375 144.63485717773438 C 264.7566833496094 143.63670349121094 266.6975402832031 142.4532470703125 268.01513671875 140.68629455566406 C 270.2288818359375 137.72125244140625 270.27703857421875 133.588134765625 269.16973876953125 130.0546417236328 C 267.5294189453125 124.80755615234375 263.59033203125 120.43707275390625 258.804443359375 117.72938537597656 C 254.0185546875 115.02169799804688 248.4478759765625 113.88352966308594 242.94970703125 113.90682983398438 L 244.20181274414062 113.79484558105469" stroke-width="0.6000000238418579" fill="rgb(143, 165, 67)" opacity="1.0"/>
    <path d="M 248.7662353515625 110.20001220703125 C 236.67193603515625 112.78314208984375 232.1961669921875 130.96072387695312 241.04428100585938 139.48675537109375 C 249.8924560546875 148.01275634765625 267.1357116699219 143.57118225097656 271.655029296875 132.05535888671875 C 276.17431640625 120.53955078125 267.7190246582031 106.17120361328125 255.59866333007812 103.6376953125 L 248.7662353515625 110.20001220703125" stroke-width="0.6000000238418579" fill="rgb(233, 92, 21)" opacity="1.0"/>
    <path d="M 353.20831298828125 101.20187377929688 C 346.68792724609375 100.91493225097656 338.869384765625 101.2484130859375 335.4884338378906 106.85713195800781 C 334.22979736328125 109.14154052734375 333.7110290527344 111.76020812988281 334.0037841796875 114.35189819335938 C 334.5555114746094 120.78392028808594 338.1905822753906 126.54953002929688 343.75628662109375 129.82037353515625 C 348.4846496582031 132.58285522460938 354.08465576171875 133.17080688476562 359.5093078613281 133.61337280273438 C 362.55694580078125 133.85702514648438 365.8027038574219 134.01885986328125 368.4626770019531 132.54583740234375 C 371.99212646484375 130.5533447265625 373.44024658203125 126.239501953125 374.1368408203125 122.24807739257812 C 375.16363525390625 116.40788269042969 375.23834228515625 110.44000244140625 374.3581237792969 104.575927734375 C 374.0500793457031 102.55036926269531 373.5919189453125 100.45124816894531 372.3043212890625 98.85848999023438 C 371.0313720703125 97.43878173828125 369.372802734375 96.42013549804688 367.5308837890625 95.9267578125 C 362.0018615722656 94.21279907226562 355.9992980957031 95.01055908203125 351.10992431640625 98.10919189453125 L 353.20831298828125 101.20187377929688" stroke-width="0.6000000238418579" fill="rgb(70, 150, 179)" opacity="1.0"/>
    <path d="M 351.2052001953125 105.78701782226562 C 343.9873046875 104.08030700683594 335.9151611328125 102.49160766601562 329.5414123535156 106.27523803710938 C 322.697021484375 110.34381103515625 320.3702392578125 119.46505737304688 321.6802673339844 127.31875610351562 C 322.18408203125 130.34703063964844 323.1936950683594 133.41009521484375 325.31707763671875 135.62672424316406 C 327.0619201660156 137.44960021972656 329.4097900390625 138.55575561523438 331.752197265625 139.49249267578125 C 339.1354675292969 142.45535278320312 347.653564453125 144.119384765625 354.9395751953125 140.9290771484375 C 362.2805480957031 137.70867919921875 367.0885314941406 129.4380340576172 366.20751953125 121.46319580078125 C 365.3265075683594 113.48834228515625 358.9043884277344 106.4139404296875 351.0333557128906 104.8309326171875 L 351.2052001953125 105.78701782226562" stroke-width="0.6000000238418579" fill="rgb(140, 28, 33)" opacity="1.0"/>
    <path d="M 362.0 102.0 C 360.6824951171875 102.98963928222656 359.32244873046875 104.033935546875 358.5392150878906 105.48504638671875 C 357.7560119628906 106.93612670898438 357.7195739746094 108.93365478515625 358.8974609375 110.08724975585938 C 360.3546142578125 111.50798034667969 363.0139465332031 110.90081787109375 364.23431396484375 109.267578125 C 365.4546813964844 107.63433837890625 365.515380859375 105.39395141601562 365.09039306640625 103.40252685546875 C 365.0205993652344 102.77287292480469 364.7173156738281 102.19229125976562 364.2403869628906 101.77532958984375 C 363.7303771972656 101.4171142578125 362.8378601074219 101.5810546875 362.7103576660156 102.19427490234375 L 362.0 102.0" stroke-width="0.6000000238418579" fill="rgb(159, 159, 159)" opacity="1.0"/>
    <path d="M 356.3591003417969 104.61109924316406 C 349.49993896484375 104.76963806152344 342.54571533203125 107.28169250488281 337.835205078125 112.26516723632812 C 333.12469482421875 117.2486572265625 331.0039978027344 124.8333740234375 333.33001708984375 131.3150177001953 C 334.9803466796875 135.89552307128906 338.6670837402344 139.5709228515625 342.9718017578125 141.85462951660156 C 347.27655029296875 144.1383514404297 352.16314697265625 145.13633728027344 357.02581787109375 145.46585083007812 C 359.1420593261719 145.6079864501953 361.37213134765625 145.60391235351562 363.2308044433594 144.5936279296875 C 365.3622741699219 143.43634033203125 366.6140441894531 141.17393493652344 367.6512451171875 138.97335815429688 C 370.5794677734375 132.76065063476562 372.6670837402344 125.86251831054688 371.6335754394531 119.07164001464844 C 370.60009765625 112.28073120117188 365.77703857421875 105.73095703125 359.06109619140625 104.37203979492188 L 356.3591003417969 104.61109924316406" stroke-width="0.6000000238418579" fill="rgb(159, 159, 159)" opacity="1.0"/>
    <path d="M 368.0 102.0 C 360.8175048828125 101.71463012695312 352.8214416503906 101.70855712890625 347.50286865234375 106.52322387695312 C 342.3239440917969 111.19821166992188 341.3889465332031 118.86033630371094 340.9153747558594 125.82426452636719 C 340.7271728515625 128.65354919433594 340.57537841796875 131.6164093017578 341.7471618652344 134.19676208496094 C 343.7264404296875 138.56211853027344 348.82037353515625 140.53533935546875 353.5378723144531 141.34283447265625 C 357.91619873046875 142.09400939941406 362.3797302246094 142.21258544921875 366.7917785644531 141.69497680664062 C 373.9560546875 140.85711669921875 381.6971435546875 137.5906982421875 384.2289123535156 130.83926391601562 C 385.6010437011719 127.1964111328125 385.19427490234375 123.05569458007812 383.8707275390625 119.3885498046875 C 382.547119140625 115.72140502929688 380.3553466796875 112.43678283691406 378.1453552246094 109.22499084472656 C 375.93536376953125 106.01321411132812 373.69500732421875 102.90463256835938 370.4407043457031 100.93142700195312 L 368.0 102.0" stroke-width="0.6000000238418579" fill="rgb(218, 166, 20)" opacity="1.0"/>
    <path d="M 429.0 167.0 C 417.7301025390625 165.95736694335938 407.74884033203125 174.2481689453125 406.7062072753906 185.51806640625 C 406.6169128417969 186.48309326171875 406.5962219238281 187.4532470703125 406.64422607421875 188.42123413085938 C 406.8273620605469 192.09930419921875 408.1186218261719 195.86895751953125 410.8684997558594 198.31573486328125 C 413.192138671875 200.3836669921875 416.298828125 201.31817626953125 419.35491943359375 201.886474609375 C 427.5374755859375 203.3963623046875 435.97509765625 202.687744140625 443.791259765625 199.83432006835938 C 445.85595703125 199.07659912109375 447.9239501953125 198.13262939453125 449.4425048828125 196.53509521484375 C 451.99346923828125 193.85467529296875 452.5333251953125 189.7567138671875 451.8546142578125 186.11651611328125 C 450.8505859375 180.71148681640625 447.4598388671875 175.90313720703125 443.03033447265625 172.64495849609375 C 438.600830078125 169.38681030273438 433.205322265625 167.59353637695312 427.743408203125 166.96212768554688 L 429.0 167.0" stroke-width="0.6000000238418579" fill="rgb(143, 165, 67)" opacity="1.0"/>
    <path d="M 131.0 408.0 C 118.68345642089844 409.1171569824219 112.06437683105469 426.62841796875 119.82852172851562 436.152099609375 C 127.59271240234375 445.67578125 145.2436065673828 443.3297119140625 151.10862731933594 432.43756103515625 C 156.9736328125 421.54541015625 150.2987060546875 406.2684020996094 138.56866455078125 402.30255126953125 L 131.0 408.0" stroke-width="0.6000000238418579" fill="rgb(233, 92, 21)" opacity="1.0"/>
    <path d="M 429.0 173.0 C 422.5594482421875 171.943115234375 414.75640869140625 171.34857177734375 410.73516845703125 176.51754760742188 C 409.2149658203125 178.63687133789062 408.3898010253906 181.17572021484375 408.3736572265625 183.78384399414062 C 408.1600036621094 190.2359619140625 411.0868835449219 196.391357421875 416.2261962890625 200.29815673828125 C 420.59423828125 203.60101318359375 426.085205078125 204.84783935546875 431.4193115234375 205.92953491210938 C 434.416748046875 206.53228759765625 437.6204833984375 207.0772705078125 440.4361572265625 205.92953491210938 C 444.1766357421875 204.36892700195312 446.1253662109375 200.25686645507812 447.28961181640625 196.3759765625 C 449.0006103515625 190.69842529296875 449.7813720703125 184.7813720703125 449.6015625 178.85430908203125 C 449.5355224609375 176.80654907226562 449.3291015625 174.66793823242188 448.2391357421875 172.9339599609375 C 447.1431884765625 171.37350463867188 445.616943359375 170.1656494140625 443.84637451171875 169.45767211914062 C 438.5592041015625 167.1011962890625 432.50439453125 167.18267822265625 427.282470703125 169.68063354492188 L 429.0 173.0" stroke-width="0.6000000238418579" fill="rgb(70, 150, 179)" opacity="1.0"/>
    <path d="M 427.2008056640625 170.20571899414062 C 419.9842529296875 168.49322509765625 411.9133605957031 166.89804077148438 405.5365295410156 170.67657470703125 C 398.6888427734375 174.73968505859375 396.354736328125 183.859130859375 397.6584777832031 191.71392822265625 C 398.1598815917969 194.74261474609375 399.16705322265625 197.8065185546875 401.2886657714844 200.02487182617188 C 403.03204345703125 201.84915161132812 405.3790588378906 202.95721435546875 407.7207336425781 203.89581298828125 C 415.1016845703125 206.86459350585938 423.61846923828125 208.53546142578125 430.9071044921875 205.35098266601562 C 438.250732421875 202.13641357421875 443.0653076171875 193.86959838867188 442.190673828125 185.89398193359375 C 441.3160400390625 177.91839599609375 434.89959716796875 170.83880615234375 427.02978515625 169.24951171875 L 427.2008056640625 170.20571899414062" stroke-width="0.6000000238418579" fill="rgb(140, 28, 33)" opacity="1.0"/>
    <path d="M 147.0 115.0 C 145.6824951171875 115.98963928222656 144.3224639892578 117.033935546875 143.5392303466797 118.48504638671875 C 142.75601196289062 119.93612670898438 142.71958923339844 121.93365478515625 143.8974609375 123.08724975585938 C 145.35459899902344 124.50798034667969 148.01393127441406 123.90081787109375 149.23431396484375 122.267578125 C 150.45469665527344 120.63433837890625 150.51539611816406 118.39395141601562 150.09039306640625 116.40252685546875 C 150.02059936523438 115.77287292480469 149.71731567382812 115.19229125976562 149.24038696289062 114.77532958984375 C 148.7303924560547 114.4171142578125 147.83787536621094 114.5810546875 147.71035766601562 115.19427490234375 L 147.0 115.0" stroke-width="0.6000000238418579" fill="rgb(159, 159, 159)" opacity="1.0"/>
    <path d="M 429.0 168.0 C 422.20001220703125 168.91070556640625 415.56390380859375 172.17108154296875 411.42926025390625 177.64144897460938 C 407.29461669921875 183.11181640625 406.0196228027344 190.88323974609375 409.043212890625 197.07003784179688 C 411.1864318847656 201.44146728515625 415.2542724609375 204.68966674804688 419.7835693359375 206.48681640625 C 424.3128662109375 208.28396606445312 429.279296875 208.73931884765625 434.1485595703125 208.53289794921875 C 436.26751708984375 208.44183349609375 438.48358154296875 208.19290161132812 440.22003173828125 206.98468017578125 C 442.21142578125 205.60040283203125 443.2071533203125 203.21432495117188 443.9964599609375 200.91323852539062 C 446.22467041015625 194.41680908203125 447.54217529296875 187.33145141601562 445.769287109375 180.69537353515625 C 443.9964599609375 174.05926513671875 438.48358154296875 168.07891845703125 431.6593017578125 167.4656982421875 L 429.0 168.0" stroke-width="0.6000000238418579" fill="rgb(159, 159, 159)" opacity="1.0"/>
    <path d="M 427.2156982421875 180.23333740234375 C 420.117919921875 179.095947265625 412.17919921875 178.13916015625 406.3258361816406 182.28732299804688 C 400.627685546875 186.31341552734375 398.78826904296875 193.81011962890625 397.4900207519531 200.66845703125 C 396.96673583984375 203.455322265625 396.4637145996094 206.379150390625 397.3204040527344 209.08056640625 C 398.7666015625 213.65036010742188 403.58984375 216.21530151367188 408.17791748046875 217.5780029296875 C 412.4359130859375 218.84445190429688 416.853759765625 219.492919921875 421.296142578125 219.50360107421875 C 428.50927734375 219.52352905273438 436.583984375 217.20068359375 439.90057373046875 210.798095703125 C 441.6961669921875 207.34417724609375 441.78460693359375 203.18438720703125 440.906494140625 199.3858642578125 C 440.02825927734375 195.5872802734375 438.2425537109375 192.0653076171875 436.43011474609375 188.61346435546875 C 434.61767578125 185.16165161132812 432.7628173828125 181.8087158203125 429.76611328125 179.4625244140625 L 427.2156982421875 180.23333740234375" stroke-width="0.6000000238418579" fill="rgb(218, 166, 20)" opacity="1.0"/>
    <path d="M 431.79974365234375 167.79876708984375 C 420.48602294921875 168.111572265625 411.5679931640625 177.5367431640625 411.8808288574219 188.85049438476562 C 411.9075927734375 189.81927490234375 412.00311279296875 190.78497314453125 412.16650390625 191.740234375 C 412.78826904296875 195.37002563476562 414.52117919921875 198.95816040039062 417.5439453125 201.0584716796875 C 420.0982666015625 202.83364868164062 423.29443359375 203.389892578125 426.3966064453125 203.58856201171875 C 434.7010498046875 204.10888671875 442.99334716796875 202.39617919921875 450.412109375 198.62835693359375 C 452.3714599609375 197.62908935546875 454.3116455078125 196.44451904296875 455.62823486328125 194.67681884765625 C 457.84033203125 191.71054077148438 457.88616943359375 187.577392578125 456.77685546875 184.04452514648438 C 455.13360595703125 178.79833984375 451.1920166015625 174.4300537109375 446.40460205078125 171.72509765625 C 441.6171875 169.02008056640625 436.0458984375 167.88504028320312 430.54766845703125 167.91143798828125 L 431.79974365234375 167.79876708984375" stroke-width="0.6000000238418579" fill="rgb(143, 165, 67)" opacity="1.0"/>
    <path d="M 141.1667022705078 114.38119506835938 C 125.82499694824219 117.24119567871094 119.5799560546875 140.02407836914062 130.46060180664062 151.07098388671875 C 141.34129333496094 162.1177978515625 163.23947143554688 157.0831298828125 169.31988525390625 142.7052459716797 C 175.40032958984375 128.32736206054688 165.207763671875 109.92356872558594 150.00180053710938 106.32821655273438 L 141.1667022705078 114.38119506835938" stroke-width="0.6000000238418579" fill="rgb(233, 92, 21)" opacity="1.0"/>
    <path d="M 431.79791259765625 159.27752685546875 C 423.57049560546875 158.924560546875 413.7060546875 159.35626220703125 409.4479675292969 166.43771362304688 C 407.86309814453125 169.32177734375 407.21221923828125 172.6265869140625 407.585205078125 175.896240234375 C 408.29034423828125 184.010986328125 412.8848876953125 191.28057861328125 419.91192626953125 195.39971923828125 C 425.8817138671875 198.878662109375 432.9482421875 199.6126708984375 439.7933349609375 200.16351318359375 C 443.6390380859375 200.4666748046875 447.73455810546875 200.66632080078125 451.08868408203125 198.80404663085938 C 455.53912353515625 196.28512573242188 457.3602294921875 190.84014892578125 458.233642578125 185.80307006835938 C 459.52099609375 178.432861328125 459.60693359375 170.90283203125 458.4881591796875 163.505126953125 C 458.0966796875 160.94985961914062 457.515625 158.30194091796875 455.8887939453125 156.29412841796875 C 454.2806396484375 154.5045928955078 452.1865234375 153.2216339111328 449.86181640625 152.60169982910156 C 442.88330078125 150.44686889648438 435.310791015625 151.46182250976562 429.14599609375 155.3782958984375 L 431.79791259765625 159.27752685546875" stroke-width="0.6000000238418579" fill="rgb(70, 150, 179)" opacity="1.0"/>
    <path d="M 377.2059020996094 99.2039794921875 C 368.08538818359375 97.10830688476562 357.8880310058594 95.1683349609375 349.87646484375 99.99311828613281 C 341.27337646484375 105.18115234375 338.4105529785156 116.70808410644531 340.126220703125 126.60667419433594 C 340.78607177734375 130.42343139648438 342.0843811035156 134.28005981445312 344.78118896484375 137.05982971191406 C 346.99725341796875 139.34580993652344 349.9684143066406 140.7227020263672 352.93133544921875 141.88584899902344 C 362.2705078125 145.5651092529297 373.0311279296875 147.59654235839844 382.1984558105469 143.51309204101562 C 391.43487548828125 139.39120483398438 397.4350280761719 128.9176788330078 396.25970458984375 118.86280822753906 C 395.08441162109375 108.80793762207031 386.925048828125 99.93344116210938 376.9814147949219 97.99905395507812 L 377.2059020996094 99.2039794921875" stroke-width="0.6000000238418579" fill="rgb(140, 28, 33)" opacity="1.0"/>
    <path d="M 132.0 407.0 C 130.33766174316406 408.2486572265625 128.6216583251953 409.5662841796875 127.6334228515625 411.3971862792969 C 126.64523315429688 413.22802734375 126.59927368164062 415.7484130859375 128.08543395996094 417.2039794921875 C 129.9239501953125 418.99652099609375 133.27931213378906 418.23046875 134.81910705566406 416.16973876953125 C 136.35890197753906 414.1090087890625 136.43548583984375 411.2822570800781 135.89926147460938 408.76959228515625 C 135.81118774414062 407.97515869140625 135.42852783203125 407.24261474609375 134.82676696777344 406.7165222167969 C 134.18328857421875 406.2645568847656 133.0571746826172 406.4714050292969 132.8962860107422 407.2451171875 L 132.0 407.0" stroke-width="0.6000000238418579" fill="rgb(159, 159, 159)" opacity="1.0"/>
    <path d="M 426.206298828125 190.75711059570312 C 417.5506591796875 190.871826171875 408.7457275390625 193.95465087890625 402.7408447265625 200.183349609375 C 396.7359619140625 206.41207885742188 393.9660949707031 215.954833984375 396.820068359375 224.16116333007812 C 398.84521484375 229.9605712890625 403.4508056640625 234.6434326171875 408.8533630371094 237.578125 C 414.2559814453125 240.51287841796875 420.4085693359375 241.83273315429688 426.5394287109375 242.30889892578125 C 429.20751953125 242.51455688476562 432.0211181640625 242.53717041015625 434.378662109375 241.28564453125 C 437.0821533203125 239.85211181640625 438.6895751953125 237.01336669921875 440.0255126953125 234.24993896484375 C 443.79705810546875 226.44821166992188 446.5166015625 217.77130126953125 445.2972412109375 209.19088745117188 C 444.0777587890625 200.61041259765625 438.0743408203125 192.28704833984375 429.6181640625 190.48910522460938 L 426.206298828125 190.75711059570312" stroke-width="0.6000000238418579" fill="rgb(159, 159, 159)" opacity="1.0"/>
    <path d="M 388.676025390625 102.5750732421875 C 379.6316223144531 103.2491455078125 369.6075439453125 104.39019775390625 363.63226318359375 111.18949890136719 C 357.81195068359375 117.79364013671875 357.7406005859375 127.5325927734375 358.14739990234375 136.33001708984375 C 358.3179016113281 139.90362548828125 358.5532531738281 143.63941955566406 360.3927917480469 146.7056121826172 C 363.5009765625 151.89334106445312 370.16973876953125 153.63504028320312 376.1991882324219 153.9695587158203 C 381.7954406738281 154.28221130371094 387.4075927734375 153.7896728515625 392.86383056640625 152.50701904296875 C 401.7240295410156 150.4275665283203 410.9583435058594 145.22100830078125 413.162109375 136.394287109375 C 414.35882568359375 131.6307830810547 413.25408935546875 126.49874877929688 411.06817626953125 122.09205627441406 C 408.8822326660156 117.68536376953125 405.6629638671875 113.88287353515625 402.4313049316406 110.17431640625 C 399.19964599609375 106.46575927734375 395.94476318359375 102.89094543457031 391.5820007324219 100.88497924804688 L 388.676025390625 102.5750732421875" stroke-width="0.6000000238418579" fill="rgb(218, 166, 20)" opacity="1.0"/>
    <path d="M 390.62615966796875 99.29649353027344 C 376.6554870605469 96.33937072753906 362.9327697753906 105.26762390136719 359.97564697265625 119.23831176757812 C 359.722412109375 120.43460083007812 359.5544128417969 121.64736938476562 359.4728088378906 122.86749267578125 C 359.16363525390625 127.50363159179688 360.2297668457031 132.41683959960938 363.31756591796875 135.8858642578125 C 365.92669677734375 138.8177032470703 369.68310546875 140.44378662109375 373.4297790527344 141.60354614257812 C 383.4630126953125 144.694091796875 394.1407470703125 145.0417938232422 404.35382080078125 142.61056518554688 C 407.0523681640625 141.96337890625 409.7821350097656 141.08322143554688 411.919189453125 139.30361938476562 C 415.50860595703125 136.31813049316406 416.7852783203125 131.26162719726562 416.4677734375 126.60037231445312 C 416.001220703125 119.67974853515625 412.4560546875 113.15737915039062 407.3822021484375 108.425537109375 C 402.3083801269531 103.69369506835938 395.809326171875 100.65618896484375 389.0570068359375 99.06500244140625 L 390.62615966796875 99.29649353027344" stroke-width="0.6000000238418579" fill="rgb(143, 165, 67)" opacity="1.0"/>
    <path d="M 130.2000274658203 407.762451171875 C 114.60189819335938 407.3015441894531 103.66487121582031 428.23876953125 111.9527587890625 441.3421630859375 C 120.24069213867188 454.445556640625 142.70700073242188 454.1728515625 151.69956970214844 441.4136962890625 C 160.692138671875 428.654541015625 154.63778686523438 408.5082702636719 140.54217529296875 401.7682800292969 L 130.2000274658203 407.762451171875" stroke-width="0.6000000238418579" fill="rgb(233, 92, 21)" opacity="1.0"/>
    <path d="M 428.7999267578125 203.66796875 C 420.572509765625 203.31683349609375 410.7081604003906 203.75067138671875 406.45166015625 210.83303833007812 C 404.8674621582031 213.71743774414062 404.2173156738281 217.02236938476562 404.59100341796875 220.29190063476562 C 405.29791259765625 228.40643310546875 409.8940734863281 235.67498779296875 416.9219970703125 239.7926025390625 C 422.8924560546875 243.27020263671875 429.95916748046875 244.00262451171875 436.8043212890625 244.55194091796875 C 440.65008544921875 244.85427856445312 444.74560546875 245.05303955078125 448.099365234375 243.19000244140625 C 452.5491943359375 240.67013549804688 454.369140625 235.22479248046875 455.2413330078125 230.18753051757812 C 456.527099609375 222.81704711914062 456.611328125 215.28707885742188 455.490966796875 207.8896484375 C 455.098876953125 205.33447265625 454.51727294921875 202.68670654296875 452.8900146484375 200.67926025390625 C 451.281494140625 198.89007568359375 449.1871337890625 197.60760498046875 446.8623046875 196.9881591796875 C 439.88330078125 194.83489990234375 432.31103515625 195.85150146484375 426.1470947265625 199.76934814453125 L 428.7999267578125 203.66796875" stroke-width="0.6000000238418579" fill="rgb(70, 150, 179)" opacity="1.0"/>
    <path d="M 428.20458984375 135.7974853515625 C 419.099609375 133.63519287109375 408.91668701171875 131.62074279785156 400.87005615234375 136.3868408203125 C 392.229248046875 141.51187133789062 389.2822570800781 153.017578125 390.9255065917969 162.928466796875 C 391.5574645996094 166.74993896484375 392.8275451660156 170.615966796875 395.50396728515625 173.41537475585938 C 397.7032470703125 175.71749877929688 400.6642761230469 177.11605834960938 403.6186218261719 178.30084228515625 C 412.9306640625 182.04827880859375 423.6761474609375 184.1583251953125 432.8731689453125 180.1419677734375 C 442.139404296875 176.08770751953125 448.2159423828125 165.65826416015625 447.11419677734375 155.59507751464844 C 446.012451171875 145.5318603515625 437.9180908203125 136.59796142578125 427.9888916015625 134.59095764160156 L 428.20458984375 135.7974853515625" stroke-width="0.6000000238418579" fill="rgb(140, 28, 33)" opacity="1.0"/>
    <path d="M 399.7254638671875 99.20040893554688 C 398.2239074707031 100.638427734375 396.6773376464844 102.15132141113281 395.9145202636719 104.0870361328125 C 395.1517333984375 106.022705078125 395.4067077636719 108.53054809570312 397.0558776855469 109.79841613769531 C 399.0950927734375 111.35891723632812 402.3351135253906 110.1981201171875 403.6181335449219 107.96847534179688 C 404.9011535644531 105.73881530761719 404.6400451660156 102.92308044433594 403.8079528808594 100.4923095703125 C 403.6257629394531 99.71405029296875 403.1584777832031 99.03237915039062 402.4982604980469 98.58181762695312 C 401.8054504394531 98.20980834960938 400.7120361328125 98.54949951171875 400.64459228515625 99.33688354492188 L 399.7254638671875 99.20040893554688" stroke-width="0.6000000238418579" fill="rgb(159, 159, 159)" opacity="1.0"/>
    <path d="M 427.717529296875 218.709716796875 C 419.32989501953125 220.85009765625 411.49285888671875 225.91082763671875 407.1152648925781 233.37353515625 C 402.7376403808594 240.83624267578125 402.28173828125 250.76239013671875 406.9797058105469 258.0711669921875 C 410.30780029296875 263.23431396484375 415.8826904296875 266.7071838378906 421.8226318359375 268.2937927246094 C 427.7625732421875 269.88043212890625 434.05322265625 269.72137451171875 440.1248779296875 268.74725341796875 C 442.766845703125 268.32177734375 445.50732421875 267.68426513671875 447.505859375 265.9150390625 C 449.7979736328125 263.8877258300781 450.69525146484375 260.7513122558594 451.34619140625 257.7517395019531 C 453.18408203125 249.2833251953125 453.7940673828125 240.210693359375 450.597412109375 232.15512084960938 C 447.400634765625 224.09954833984375 439.613525390625 217.41522216796875 430.9715576171875 217.64944458007812 L 427.717529296875 218.709716796875" stroke-width="0.6000000238418579" fill="rgb(159, 159, 159)" opacity="1.0"/>
    <path d="M 422.21563720703125 253.39608764648438 C 413.260009765625 251.96368408203125 403.2432861328125 250.759521484375 395.85955810546875 255.9954833984375 C 388.6717224121094 261.07733154296875 386.35369873046875 270.53668212890625 384.71826171875 279.1903381347656 C 384.0590515136719 282.7067565917969 383.4255065917969 286.3959655761719 384.50738525390625 289.8040466308594 C 386.33380126953125 295.5692138671875 392.4202575683594 298.8036193847656 398.2095642089844 300.5212097167969 C 403.5824279785156 302.1175231933594 409.1566467285156 302.9340515136719 414.7615966796875 302.94586181640625 C 423.862548828125 302.9682922363281 434.04949951171875 300.03448486328125 438.231689453125 291.955078125 C 440.49591064453125 287.5965881347656 440.60595703125 282.34814453125 439.49658203125 277.5558166503906 C 438.38714599609375 272.76348876953125 436.1328125 268.3204345703125 433.8447265625 263.9659423828125 C 431.556640625 259.6114196777344 429.215087890625 255.38168334960938 425.433349609375 252.422607421875 L 422.21563720703125 253.39608764648438" stroke-width="0.6000000238418579" fill="rgb(218, 166, 20)" opacity="1.0"/>
    <path d="M 410.77899169921875 101.20030212402344 C 396.5042724609375 101.59611511230469 385.253173828125 113.48893737792969 385.64898681640625 127.763671875 C 385.682861328125 128.9860076904297 385.8034362792969 130.20440673828125 386.009765625 131.4097137451172 C 386.7945861816406 135.98941040039062 388.9813537597656 140.51644897460938 392.7955017089844 143.16616821289062 C 396.01849365234375 145.40570068359375 400.0511779785156 146.10716247558594 403.96527099609375 146.35752868652344 C 414.4432373046875 147.01324462890625 424.9056396484375 144.85145568847656 434.265625 140.09677124023438 C 436.7376708984375 138.83578491210938 439.185546875 137.34100341796875 440.8465576171875 135.11056518554688 C 443.63726806640625 131.36770629882812 443.6947021484375 126.15281677246094 442.294677734375 121.6954345703125 C 440.2208251953125 115.07640075683594 435.24725341796875 109.56524658203125 429.2066650390625 106.15278625488281 C 423.166015625 102.74032592773438 416.136474609375 101.30876159667969 409.1992492675781 101.34262084960938 L 410.77899169921875 101.20030212402344" stroke-width="0.6000000238418579" fill="rgb(143, 165, 67)" opacity="1.0"/>
    <path d="M 427.7982177734375 118.7999267578125 C 412.538330078125 122.0594482421875 406.8915100097656 144.99488830566406 418.05572509765625 155.7523193359375 C 429.219970703125 166.50970458984375 450.9764404296875 160.90521240234375 456.6783447265625 146.3751678466797 C 462.3802490234375 131.84510803222656 451.7115478515625 113.71621704101562 436.41876220703125 110.51983642578125 L 427.7982177734375 118.7999267578125" stroke-width="0.6000000238418579" fill="rgb(233, 92, 21)" opacity="1.0"/>
    <path d="M 425.7999267578125 111.20828247070312 C 417.57257080078125 110.85641479492188 407.708251953125 111.28939819335938 403.4511413574219 118.371337890625 C 401.8666687011719 121.25556945800781 401.2162170410156 124.5604248046875 401.5896301269531 127.82998657226562 C 402.29583740234375 135.94456481933594 406.89129638671875 143.2135009765625 413.9188232421875 147.33172607421875 C 419.88897705078125 150.80982971191406 426.95556640625 151.5429229736328 433.8006591796875 152.09283447265625 C 437.6463623046875 152.39552307128906 441.7418212890625 152.59461975097656 445.095703125 150.73193359375 C 449.5457763671875 148.21246337890625 451.3662109375 142.76730346679688 452.2388916015625 137.73013305664062 C 453.5252685546875 130.35980224609375 453.6102294921875 122.82986450195312 452.490478515625 115.432373046875 C 452.0986328125 112.87716674804688 451.517333984375 110.2293701171875 449.8902587890625 108.22175598144531 C 448.2818603515625 106.43246459960938 446.1876220703125 105.1497802734375 443.86285400390625 104.5301513671875 C 436.88409423828125 102.37625122070312 429.311767578125 103.39218139648438 423.14752197265625 107.3094482421875 L 425.7999267578125 111.20828247070312" stroke-width="0.6000000238418579" fill="rgb(70, 150, 179)" opacity="1.0"/>
    <path d="M 312.0 391.0 C 302.70172119140625 389.9428405761719 292.3509216308594 389.1614990234375 284.9324951171875 394.8562927246094 C 276.9671325683594 400.978515625 275.418212890625 412.75421142578125 278.2357177734375 422.397216796875 C 279.3204650878906 426.1156005859375 281.0440673828125 429.80181884765625 284.0362548828125 432.2608642578125 C 286.4952392578125 434.283203125 289.6023254394531 435.3173828125 292.6772155761719 436.14007568359375 C 302.3708190917969 438.7462158203125 313.2915954589844 439.55511474609375 321.9417724609375 434.467041015625 C 330.65631103515625 429.3330078125 335.4410705566406 418.2513427734375 333.1429138183594 408.392333984375 C 330.84478759765625 398.5333251953125 321.7395324707031 390.6322937011719 311.6415100097656 389.82794189453125 L 312.0 391.0" stroke-width="0.6000000238418579" fill="rgb(140, 28, 33)" opacity="1.0"/>
    <path d="M 311.0 391.0 C 309.04693603515625 392.467041015625 307.03082275390625 394.0151062011719 305.8697814941406 396.16619873046875 C 304.708740234375 398.3172607421875 304.6547546386719 401.2784118652344 306.40081787109375 402.98846435546875 C 308.5608825683594 405.09454345703125 312.5030517578125 404.19451904296875 314.3121337890625 401.7734069824219 C 316.1212158203125 399.352294921875 316.211181640625 396.0311584472656 315.5811767578125 393.0790710449219 C 315.47772216796875 392.14569091796875 315.02813720703125 391.2850646972656 314.3211364746094 390.6669616699219 C 313.5650939941406 390.1359558105469 312.2420654296875 390.37896728515625 312.05303955078125 391.2879943847656 L 311.0 391.0" stroke-width="0.6000000238418579" fill="rgb(159, 159, 159)" opacity="1.0"/>
    <path d="M 325.3971862792969 389.3774719238281 C 315.3606872558594 391.02142333984375 305.6688232421875 396.139892578125 299.7792053222656 404.4247131347656 C 293.88958740234375 412.70953369140625 292.3369445800781 424.28009033203125 297.0850830078125 433.31646728515625 C 300.45013427734375 439.7010498046875 306.6183776855469 444.337890625 313.4075012207031 446.8046875 C 320.1966552734375 449.271484375 327.575439453125 449.7310791015625 334.7815856933594 449.21435546875 C 337.9173889160156 448.98760986328125 341.19024658203125 448.5228271484375 343.7109069824219 446.6573486328125 C 346.6017761230469 444.5198974609375 347.9738464355469 440.941162109375 349.043701171875 437.49737548828125 C 352.06402587890625 427.7747802734375 353.7093811035156 417.2188720703125 350.7950439453125 407.462646484375 C 347.88067626953125 397.70635986328125 339.45294189453125 389.0837097167969 329.314453125 388.4706115722656 L 325.3971862792969 389.3774719238281" stroke-width="0.6000000238418579" fill="rgb(159, 159, 159)" opacity="1.0"/>
    <path d="M 266.5887451171875 392.4170837402344 C 255.93597412109375 392.17315673828125 244.0843505859375 392.3634948730469 236.32135009765625 399.6322021484375 C 228.76187133789062 406.6903991699219 227.56704711914062 418.07025146484375 227.03875732421875 428.40374755859375 C 226.830322265625 432.6019287109375 226.67919921875 436.99713134765625 228.48028564453125 440.79241943359375 C 231.52276611328125 447.2132568359375 239.12197875976562 450.01092529296875 246.13421630859375 451.09014892578125 C 252.642333984375 452.0943603515625 259.260986328125 452.15887451171875 265.7875061035156 451.28173828125 C 276.38525390625 449.86126708984375 287.77734375 444.826904296875 291.361572265625 434.757080078125 C 293.30450439453125 429.3236083984375 292.598388671875 423.19647216796875 290.54522705078125 417.794189453125 C 288.4920349121094 412.391845703125 285.1615905761719 407.578125 281.8059387207031 402.872802734375 C 278.4502868652344 398.1675109863281 275.0522155761719 393.6159362792969 270.17962646484375 390.7724304199219 L 266.5887451171875 392.4170837402344" stroke-width="0.6000000238418579" fill="rgb(218, 166, 20)" opacity="1.0"/>
    <path d="M 235.25531005859375 394.74639892578125 C 218.57785034179688 392.91448974609375 203.57302856445312 404.94915771484375 201.7410888671875 421.6265869140625 C 201.584228515625 423.0546875 201.52886962890625 424.49212646484375 201.575439453125 425.9281005859375 C 201.75332641601562 431.38427734375 203.57135009765625 437.00439453125 207.5849609375 440.70086669921875 C 210.9764404296875 443.82501220703125 215.55728149414062 445.2890625 220.07254028320312 446.2091064453125 C 232.16217041015625 448.65509033203125 244.68621826171875 447.8193359375 256.34368896484375 443.788818359375 C 259.4233093261719 442.71820068359375 262.5123596191406 441.37164306640625 264.8038024902344 439.04248046875 C 268.6529541015625 435.13446044921875 269.55731201171875 429.07421875 268.643798828125 423.66162109375 C 267.29315185546875 415.6248779296875 262.3896789550781 408.41180419921875 255.9072265625 403.4700012207031 C 249.4248046875 398.5281982421875 241.47323608398438 395.7330627441406 233.39385986328125 394.6583251953125 L 235.25531005859375 394.74639892578125" stroke-width="0.6000000238418579" fill="rgb(143, 165, 67)" opacity="1.0"/>
    <path d="M 287.79388427734375 390.2022705078125 C 269.8651428222656 394.0296936035156 263.2276306152344 420.97509765625 276.3426513671875 433.615234375 C 289.4577331542969 446.2552490234375 315.01947021484375 439.6737060546875 321.7204895019531 422.60357666015625 C 328.4215087890625 405.533447265625 315.8896789550781 384.2328796386719 297.9230651855469 380.4754638671875 L 287.79388427734375 390.2022705078125" stroke-width="0.6000000238418579" fill="rgb(233, 92, 21)" opacity="1.0"/>
    <path d="M 328.62640380859375 388.2083740234375 C 318.960693359375 387.783447265625 307.3706970214844 388.2782897949219 302.35919189453125 396.5927734375 C 300.49359130859375 399.97918701171875 299.7247619628906 403.861083984375 300.15887451171875 407.70294189453125 C 300.9771728515625 417.23760986328125 306.3661193847656 425.7841796875 314.6167907714844 430.6324462890625 C 321.6261901855469 434.7271728515625 329.92755126953125 435.598388671875 337.9689636230469 436.2540283203125 C 342.48675537109375 436.61505126953125 347.2982177734375 436.854736328125 351.2412109375 434.67095947265625 C 356.4730224609375 431.7171630859375 358.61944580078125 425.322265625 359.65179443359375 419.4053955078125 C 361.1734924316406 410.74798583984375 361.28387451171875 401.9013366699219 359.9786376953125 393.2085876464844 C 359.5218811035156 390.2059631347656 358.8425598144531 387.09429931640625 356.93377685546875 384.73333740234375 C 355.0466613769531 382.6288757324219 352.58795166015625 381.11895751953125 349.8575134277344 380.3876953125 C 341.66131591796875 377.8473205566406 332.7633056640625 379.0303039550781 325.5155944824219 383.6239929199219 L 328.62640380859375 388.2083740234375" stroke-width="0.6000000238418579" fill="rgb(70, 150, 179)" opacity="1.0"/>
    <path d="M 293.66314697265625 391.4568786621094 C 282.8318176269531 389.56719970703125 270.7467956542969 387.9273986816406 261.6483459472656 394.087890625 C 251.87850952148438 400.71148681640625 249.23892211914062 414.41400146484375 251.86941528320312 425.92041015625 C 252.8817138671875 430.35723876953125 254.64556884765625 434.80096435546875 257.9830322265625 437.89404296875 C 260.7256164550781 440.43780517578125 264.29742431640625 441.86785888671875 267.8462219238281 443.047607421875 C 279.0329284667969 446.7816162109375 291.78448486328125 448.49359130859375 302.28521728515625 443.1307373046875 C 312.8645935058594 437.71844482421875 319.250732421875 425.05609130859375 317.2444763183594 413.3326416015625 C 315.2381896972656 401.609130859375 305.111572265625 391.706298828125 293.3246154785156 390.0572204589844 L 293.66314697265625 391.4568786621094" stroke-width="0.6000000238418579" fill="rgb(140, 28, 33)" opacity="1.0"/>
    <path d="M 338.0 390.0 C 336.04693603515625 391.467041015625 334.03082275390625 393.0151062011719 332.8697814941406 395.16619873046875 C 331.708740234375 397.3172607421875 331.6547546386719 400.2784118652344 333.40081787109375 401.98846435546875 C 335.5608825683594 404.09454345703125 339.5030517578125 403.19451904296875 341.3121337890625 400.7734069824219 C 343.1212158203125 398.352294921875 343.211181640625 395.0311584472656 342.5811767578125 392.0790710449219 C 342.47772216796875 391.14569091796875 342.02813720703125 390.2850646972656 341.3211364746094 389.6669616699219 C 340.5650939941406 389.1359558105469 339.2420654296875 389.37896728515625 339.05303955078125 390.2879943847656 L 338.0 390.0" stroke-width="0.6000000238418579" fill="rgb(159, 159, 159)" opacity="1.0"/>
    <path d="M 343.7248840332031 387.30224609375 C 333.8559265136719 389.7591247558594 324.61376953125 395.6507873535156 319.41937255859375 404.3882141113281 C 314.2249755859375 413.1256103515625 313.6210021972656 424.7841796875 319.0901184082031 433.40325927734375 C 322.9645690917969 439.49212646484375 329.4903259277344 443.610595703125 336.45794677734375 445.5155029296875 C 343.42559814453125 447.42041015625 350.8172302246094 447.27685546875 357.9571838378906 446.1741943359375 C 361.0640563964844 445.69256591796875 364.2880859375 444.96240234375 366.6482238769531 442.8975830078125 C 369.3551330566406 440.5316162109375 370.4308166503906 436.85296630859375 371.21630859375 433.3333740234375 C 373.4337463378906 423.39697265625 374.2128601074219 412.74212646484375 370.5126953125 403.2560729980469 C 366.8125 393.7699890136719 357.70977783203125 385.8633117675781 347.5551452636719 386.0789794921875 L 343.7248840332031 387.30224609375" stroke-width="0.6000000238418579" fill="rgb(159, 159, 159)" opacity="1.0"/>
    <path d="M 262.7251892089844 392.2393493652344 C 252.19488525390625 390.6102294921875 240.41937255859375 389.2555236816406 231.77587890625 395.4513854980469 C 223.361572265625 401.4650573730469 220.6949462890625 412.5924072265625 218.82546997070312 422.7691650390625 C 218.07208251953125 426.9044189453125 217.34988403320312 431.2425537109375 218.64138793945312 435.2401123046875 C 220.82177734375 442.00250244140625 227.99197387695312 445.7659912109375 234.803955078125 447.7491455078125 C 241.12591552734375 449.5924072265625 247.6798095703125 450.518310546875 254.26498413085938 450.49853515625 C 264.9574890136719 450.47027587890625 276.9082336425781 446.96234130859375 281.7733154296875 437.44500732421875 C 284.40728759765625 432.310791015625 284.5050964355469 426.1439208984375 283.1729431152344 420.5201416015625 C 281.84075927734375 414.896484375 279.16552734375 409.69000244140625 276.4512023925781 404.5877685546875 C 273.7369079589844 399.4855041503906 270.9604797363281 394.5301818847656 266.49969482421875 391.0763244628906 L 262.7251892089844 392.2393493652344" stroke-width="0.6000000238418579" fill="rgb(218, 166, 20)" opacity="1.0"/>
    <path d="M 267.0 393.0 C 250.29379272460938 391.45440673828125 235.497802734375 403.7445373535156 233.95220947265625 420.45074462890625 C 233.81985473632812 421.88128662109375 233.7891845703125 423.3194580078125 233.8603515625 424.75433349609375 C 234.13177490234375 430.20660400390625 236.04595947265625 435.79461669921875 240.122314453125 439.42169189453125 C 243.56683349609375 442.4871826171875 248.17202758789062 443.8724365234375 252.70233154296875 444.71484375 C 264.83197021484375 446.953125 277.3396911621094 445.9027099609375 288.9261779785156 441.6728515625 C 291.9869384765625 440.549560546875 295.0523681640625 439.1502685546875 297.3034973144531 436.7821044921875 C 301.0849914550781 432.8087158203125 301.8852844238281 426.7340087890625 300.87908935546875 421.337890625 C 299.39080810546875 413.3255615234375 294.3644104003906 406.19781494140625 287.7982482910156 401.36798095703125 C 281.2320861816406 396.53814697265625 273.2338562011719 393.8798522949219 265.1373291015625 392.94384765625 L 267.0 393.0" stroke-width="0.6000000238418579" fill="rgb(143, 165, 67)" opacity="1.0"/>
    <path d="M 224.20138549804688 392.200439453125 C 206.27301025390625 396.0295715332031 199.63809204101562 422.9755859375 212.75433349609375 435.614501953125 C 225.87060546875 448.2532958984375 251.43170166015625 441.6693115234375 258.131103515625 424.5985107421875 C 264.83050537109375 407.5277404785156 252.29660034179688 386.2283630371094 234.32965087890625 382.47265625 L 224.20138549804688 392.200439453125" stroke-width="0.6000000238418579" fill="rgb(233, 92, 21)" opacity="1.0"/>
    <path d="M 270.20135498046875 391.2005615234375 C 260.54058837890625 390.6748352050781 248.94607543945312 391.048828125 243.84814453125 399.3105773925781 C 241.94732666015625 402.6773681640625 241.1380615234375 406.551025390625 241.53207397460938 410.397216796875 C 242.25091552734375 419.93988037109375 247.55044555664062 428.54217529296875 255.7501220703125 433.4761962890625 C 262.7164001464844 437.643798828125 271.00823974609375 438.6015625 279.0423889160156 439.341064453125 C 283.55615234375 439.7491455078125 288.3648681640625 440.0389404296875 292.3304138183594 437.896484375 C 297.5927734375 434.997314453125 299.80572509765625 428.625244140625 300.8997497558594 422.719482421875 C 302.5116271972656 414.078369140625 302.7142333984375 405.23333740234375 301.499755859375 396.5274353027344 C 301.0743408203125 393.5202331542969 300.427490234375 390.40167236328125 298.5434265136719 388.0209045410156 C 296.6783752441406 385.8968811035156 294.23553466796875 384.36138916015625 291.51287841796875 383.6017150878906 C 283.3436279296875 380.97601318359375 274.4337463378906 382.0661315917969 267.1385192871094 386.583984375 L 270.20135498046875 391.2005615234375" stroke-width="0.6000000238418579" fill="rgb(70, 150, 179)" opacity="1.0"/>
    <path d="M 343.3009338378906 387.2430419921875 C 332.5935363769531 384.7458190917969 320.620361328125 382.42742919921875 311.1892395019531 388.065185546875 C 301.0617370605469 394.1274108886719 297.65399169921875 407.65911865234375 299.6316223144531 419.2952880859375 C 300.3922424316406 423.7821044921875 301.90277099609375 428.318115234375 305.06048583984375 431.5943603515625 C 307.6552734375 434.28863525390625 311.1407470703125 435.917724609375 314.6173400878906 437.295654296875 C 325.5755920410156 441.6541748046875 338.2101745605469 444.082275390625 348.996337890625 439.3199462890625 C 359.8638000488281 434.5126953125 366.9534606933594 422.23065185546875 365.61126708984375 410.41290283203125 C 364.26904296875 398.5951843261719 354.7169189453125 388.1374206542969 343.0418395996094 385.8265380859375 L 343.3009338378906 387.2430419921875" stroke-width="0.6000000238418579" fill="rgb(140, 28, 33)" opacity="1.0"/>
    <path d="M 353.0 389.0 C 351.04693603515625 390.467041015625 349.03082275390625 392.0151062011719 347.8697814941406 394.16619873046875 C 346.708740234375 396.3172607421875 346.6547546386719 399.2784118652344 348.40081787109375 400.98846435546875 C 350.5608825683594 403.09454345703125 354.5030517578125 402.19451904296875 356.3121337890625 399.7734069824219 C 358.1212158203125 397.352294921875 358.211181640625 394.0311584472656 357.5811767578125 391.0790710449219 C 357.47772216796875 390.14569091796875 357.02813720703125 389.2850646972656 356.3211364746094 388.6669616699219 C 355.5650939941406 388.1359558105469 354.2420654296875 388.37896728515625 354.05303955078125 389.2879943847656 L 353.0 389.0" stroke-width="0.6000000238418579" fill="rgb(159, 159, 159)" opacity="1.0"/>
    <path d="M 194.21353149414062 392.2605285644531 C 184.04595947265625 392.49725341796875 173.738037109375 396.2227478027344 166.7567138671875 403.61114501953125 C 159.77536010742188 410.9995422363281 156.6336669921875 422.2432861328125 160.083251953125 431.8507080078125 C 162.53076171875 438.64013671875 167.99667358398438 444.08740234375 174.37832641601562 447.4715576171875 C 180.760009765625 450.855712890625 188.00384521484375 452.3338623046875 195.21212768554688 452.821044921875 C 198.34912109375 453.03125 201.65484619140625 453.024658203125 204.4097900390625 451.526611328125 C 207.569091796875 449.810546875 209.42404174804688 446.45660400390625 210.96099853515625 443.1943359375 C 215.300048828125 433.9842529296875 218.39288330078125 423.75830078125 216.85919189453125 413.692138671875 C 215.32546997070312 403.6259765625 208.17440795898438 393.91815185546875 198.21875 391.9054870605469 L 194.21353149414062 392.2605285644531" stroke-width="0.6000000238418579" fill="rgb(159, 159, 159)" opacity="1.0"/>
    <path d="M 364.2007141113281 387.2452392578125 C 353.5479736328125 386.9991149902344 341.6962890625 387.18701171875 333.9317932128906 394.4541320800781 C 326.370849609375 401.5107727050781 325.1736755371094 412.890380859375 324.6432800292969 423.22381591796875 C 324.4339599609375 427.42193603515625 324.2819519042969 431.817138671875 326.082275390625 435.61279296875 C 329.1234130859375 442.0343017578125 336.7220458984375 444.83349609375 343.73406982421875 445.9141845703125 C 350.2420349121094 446.9197998046875 356.86065673828125 446.985595703125 363.3873596191406 446.10980224609375 C 373.98541259765625 444.6915283203125 385.3785705566406 439.6595458984375 388.9648742675781 429.59039306640625 C 390.908935546875 424.15728759765625 390.20404052734375 418.030029296875 388.1520080566406 412.6273193359375 C 386.09991455078125 407.2245178222656 382.77044677734375 402.4101257324219 379.415771484375 397.7041015625 C 376.06109619140625 392.99810791015625 372.6639709472656 388.4458312988281 367.7919616699219 385.601318359375 L 364.2007141113281 387.2452392578125" stroke-width="0.6000000238418579" fill="rgb(218, 166, 20)" opacity="1.0"/>
    <path d="M 365.0 389.0 C 348.2937927246094 387.45440673828125 333.497802734375 399.7445373535156 331.95220947265625 416.45074462890625 C 331.8198547363281 417.88128662109375 331.7891845703125 419.3194580078125 331.8603515625 420.75433349609375 C 332.13177490234375 426.20660400390625 334.0459289550781 431.79461669921875 338.1222839355469 435.42169189453125 C 341.5668029785156 438.4871826171875 346.1720275878906 439.8724365234375 350.70233154296875 440.71484375 C 362.83197021484375 442.953125 375.3396911621094 441.9027099609375 386.9261779785156 437.6728515625 C 389.9869384765625 436.549560546875 393.0523681640625 435.1502685546875 395.3034973144531 432.7821044921875 C 399.0849914550781 428.8087158203125 399.8852844238281 422.7340087890625 398.87908935546875 417.337890625 C 397.39080810546875 409.3255920410156 392.3644104003906 402.19781494140625 385.7982482910156 397.36798095703125 C 379.2320861816406 392.53814697265625 371.2338562011719 389.8798522949219 363.1373291015625 388.94384765625 L 365.0 389.0" stroke-width="0.6000000238418579" fill="rgb(143, 165, 67)" opacity="1.0"/>
    <path d="M 369.35302734375 388.2264099121094 C 351.41973876953125 392.03240966796875 344.7501220703125 418.9698486328125 357.8500061035156 431.6256103515625 C 370.949951171875 444.28125 396.5195007324219 437.730224609375 403.2408752441406 420.66815185546875 C 409.9622497558594 403.6060485839844 397.45587158203125 382.2905578613281 379.4938049316406 378.5116882324219 L 369.35302734375 388.2264099121094" stroke-width="0.6000000238418579" fill="rgb(233, 92, 21)" opacity="1.0"/>
    <path d="M 375.7960205078125 388.20751953125 C 366.12982177734375 387.7937927246094 354.5404357910156 388.3021240234375 349.53857421875 396.62237548828125 C 347.6768798828125 400.0109558105469 346.9125671386719 403.8937683105469 347.35113525390625 407.735107421875 C 348.1805419921875 417.268798828125 353.5793762207031 425.80908203125 361.8356628417969 430.6478271484375 C 368.84979248046875 434.734375 377.15216064453125 435.595947265625 385.1943359375 436.2423095703125 C 389.7125549316406 436.5980224609375 394.5242614746094 436.8321533203125 398.4647216796875 434.643798828125 C 403.693115234375 431.68389892578125 405.83209228515625 425.28656005859375 406.85760498046875 419.3685302734375 C 408.3692321777344 410.7093200683594 408.4693298339844 401.862548828125 407.154052734375 393.17132568359375 C 406.69378662109375 390.16925048828125 406.0108642578125 387.0583801269531 404.0993347167969 384.6996154785156 C 402.20977783203125 382.59735107421875 399.74932861328125 381.09027099609375 397.0180358886719 380.3622131347656 C 388.81890869140625 377.83135986328125 379.9222717285156 379.024658203125 372.67987060546875 383.6267395019531 L 375.7960205078125 388.20751953125" stroke-width="0.6000000238418579" fill="rgb(70, 150, 179)" opacity="1.0"/>
    <path d="M 384.6528015136719 390.6529235839844 C 373.6847229003906 389.887451171875 361.4953308105469 389.4994812011719 353.0789794921875 396.5631103515625 C 344.04248046875 404.1564636230469 342.826416015625 418.0576171875 346.6264953613281 429.232177734375 C 348.08984375 433.541259765625 350.3014221191406 437.7799072265625 353.93927001953125 440.51324462890625 C 356.9289245605469 442.7613525390625 360.62884521484375 443.81634521484375 364.2801208496094 444.62481689453125 C 375.7913513183594 447.188232421875 388.65118408203125 447.57940673828125 398.5444030761719 441.1649169921875 C 408.5107727050781 434.6932373046875 413.5604248046875 421.4412841796875 410.35888671875 409.986572265625 C 407.1573791503906 398.5318603515625 396.06597900390625 389.723388671875 384.1720886230469 389.2955322265625 L 384.6528015136719 390.6529235839844" stroke-width="0.6000000238418579" fill="rgb(140, 28, 33)" opacity="1.0"/>
    <path d="M 398.0 391.0 C 396.04693603515625 392.467041015625 394.03082275390625 394.0151062011719 392.8697814941406 396.16619873046875 C 391.708740234375 398.3172607421875 391.6547546386719 401.2784118652344 393.40081787109375 402.98846435546875 C 395.5608825683594 405.09454345703125 399.5030517578125 404.19451904296875 401.3121337890625 401.7734069824219 C 403.1212158203125 399.352294921875 403.211181640625 396.0311584472656 402.5811767578125 393.0790710449219 C 402.47772216796875 392.14569091796875 402.02813720703125 391.2850646972656 401.3211364746094 390.6669616699219 C 400.5650939941406 390.1359558105469 399.2420654296875 390.37896728515625 399.05303955078125 391.2879943847656 L 398.0 391.0" stroke-width="0.6000000238418579" fill="rgb(159, 159, 159)" opacity="1.0"/>
    <path d="M 408.7961120605469 388.2017822265625 C 398.94927978515625 390.7460021972656 389.7596435546875 396.7193603515625 384.642822265625 405.50250244140625 C 379.5260009765625 414.28564453125 379.02532958984375 425.94915771484375 384.5706481933594 434.5194091796875 C 388.4989013671875 440.57373046875 395.0609130859375 444.63427734375 402.045166015625 446.4774169921875 C 409.0294494628906 448.320556640625 416.4195556640625 448.11151123046875 423.54949951171875 446.9456787109375 C 426.6519775390625 446.43646240234375 429.86944580078125 445.67779541015625 432.211181640625 443.5921630859375 C 434.8970947265625 441.20220947265625 435.94012451171875 437.51416015625 436.69439697265625 433.98779296875 C 438.82373046875 424.031982421875 439.5084228515625 413.3707275390625 435.724365234375 403.917724609375 C 431.94024658203125 394.4647521972656 422.767822265625 386.6390075683594 412.61541748046875 386.94464111328125 L 408.7961120605469 388.2017822265625" stroke-width="0.6000000238418579" fill="rgb(159, 159, 159)" opacity="1.0"/>
    <path d="M 411.7239074707031 388.2239074707031 C 401.0953674316406 388.9826354980469 389.3140869140625 390.2864074707031 382.2688903808594 398.2528076171875 C 375.4064636230469 405.9905090332031 375.286865234375 417.43231201171875 375.7324523925781 427.76971435546875 C 375.9196472167969 431.9688720703125 376.1824645996094 436.35888671875 378.3323974609375 439.968017578125 C 381.965087890625 446.07440185546875 389.7936706542969 448.14520263671875 396.8763427734375 448.56036376953125 C 403.4501037597656 448.9482421875 410.0455017089844 448.39019775390625 416.46063232421875 446.9033203125 C 426.8779296875 444.49273681640625 437.74627685546875 438.4095458984375 440.36785888671875 428.04736328125 C 441.79132080078125 422.4552001953125 440.51226806640625 416.421630859375 437.96026611328125 411.23626708984375 C 435.40826416015625 406.0509033203125 431.63995361328125 401.5716247558594 427.85675048828125 397.20263671875 C 424.0736083984375 392.8336486816406 420.26263427734375 388.6217346191406 415.144287109375 386.2489318847656 L 411.7239074707031 388.2239074707031" stroke-width="0.6000000238418579" fill="rgb(218, 166, 20)" opacity="1.0"/>
    <path d="M 145.77273559570312 249.20037841796875 C 129.0011749267578 249.64825439453125 115.76817321777344 263.6073303222656 116.21601867675781 280.37890625 C 116.25436401367188 281.8150329589844 116.39454650878906 283.24664306640625 116.635498046875 284.6629943847656 C 117.55204772949219 290.0445251464844 120.11578369140625 295.36590576171875 124.59375 298.4836120605469 C 128.37771606445312 301.11865234375 133.11477661132812 301.9476318359375 137.71304321289062 302.2464904785156 C 150.02256774902344 303.0295104980469 162.3172607421875 300.50225830078125 173.31988525390625 294.9273376464844 C 176.22573852539062 293.4488220214844 179.10348510742188 291.6955871582031 181.05767822265625 289.07708740234375 C 184.3409423828125 284.6830139160156 184.4146728515625 278.5562438964844 182.77523803710938 273.3176574707031 C 180.3466796875 265.53857421875 174.50994873046875 259.0576477050781 167.41702270507812 255.0411376953125 C 160.32412719726562 251.024658203125 152.06695556640625 249.33428955078125 143.9165496826172 249.36569213867188 L 145.77273559570312 249.20037841796875" stroke-width="0.6000000238418579" fill="rgb(143, 165, 67)" opacity="1.0"/>
    <path d="M 145.79957580566406 266.79925537109375 C 127.87130737304688 270.6289978027344 121.2373046875 297.57525634765625 134.35397338867188 310.21368408203125 C 147.470703125 322.85205078125 173.03158569335938 316.2671813964844 179.73040771484375 299.1961669921875 C 186.42919921875 282.12518310546875 173.89459228515625 260.8262023925781 155.92750549316406 257.07110595703125 L 145.79957580566406 266.79925537109375" stroke-width="0.6000000238418579" fill="rgb(233, 92, 21)" opacity="1.0"/>
    <path d="M 146.7986602783203 334.2084045410156 C 137.13246154785156 333.795166015625 125.5430908203125 334.3040466308594 120.54165649414062 342.62457275390625 C 118.68014526367188 346.0132141113281 117.916015625 349.89605712890625 118.35479736328125 353.73736572265625 C 119.18463134765625 363.2710266113281 124.58390808105469 371.81103515625 132.84042358398438 376.6492919921875 C 139.85475158691406 380.73553466796875 148.1571502685547 381.5967102050781 156.1993408203125 382.2426452636719 C 160.71755981445312 382.5981750488281 165.529296875 382.83203125 169.46963500976562 380.6435241699219 C 174.6978759765625 377.683349609375 176.8365478515625 371.2859191894531 177.86175537109375 365.3678283691406 C 179.3729248046875 356.7085876464844 179.47259521484375 347.86181640625 178.1568603515625 339.170654296875 C 177.69647216796875 336.1686096191406 177.013427734375 333.0577697753906 175.10174560546875 330.6991271972656 C 173.21209716796875 328.5969543457031 170.7515869140625 327.0899963378906 168.020263671875 326.362060546875 C 159.82101440429688 323.83160400390625 150.92445373535156 325.0253601074219 143.6822967529297 329.6277770996094 L 146.7986602783203 334.2084045410156" stroke-width="0.6000000238418579" fill="rgb(70, 150, 179)" opacity="1.0"/>
    <path d="M 142.2095489501953 298.2242431640625 C 131.51132202148438 295.68792724609375 119.54669189453125 293.3257751464844 110.09503173828125 298.92901611328125 C 99.9454345703125 304.9542236328125 96.48825073242188 318.473388671875 98.42337036132812 330.11676025390625 C 99.16757202148438 334.60626220703125 100.6614990234375 339.1477966308594 103.80723571777344 342.435546875 C 106.39218139648438 345.1392822265625 109.87167358398438 346.7810974121094 113.34320068359375 348.1717529296875 C 124.28544616699219 352.5703125 136.9110870361328 355.04449462890625 147.71458435058594 350.3216247558594 C 158.59957885742188 345.55413818359375 165.73406982421875 333.298095703125 164.43505859375 321.47552490234375 C 163.13604736328125 309.6529235839844 153.6221923828125 299.1603088378906 141.95562744140625 296.80682373046875 L 142.2095489501953 298.2242431640625" stroke-width="0.6000000238418579" fill="rgb(140, 28, 33)" opacity="1.0"/>
    <path d="M 144.0 264.0 C 142.04693603515625 265.467041015625 140.0308380126953 267.0151062011719 138.86978149414062 269.16619873046875 C 137.70875549316406 271.3172607421875 137.65475463867188 274.2784118652344 139.4008331298828 275.98846435546875 C 141.56088256835938 278.09454345703125 145.5030517578125 277.19451904296875 147.3121337890625 274.7734069824219 C 149.1212158203125 272.352294921875 149.21119689941406 269.0311584472656 148.5811767578125 266.0790710449219 C 148.4777069091797 265.14569091796875 148.02813720703125 264.2850646972656 147.32113647460938 263.6669616699219 C 146.5651092529297 263.1359558105469 145.24205017089844 263.37896728515625 145.0530242919922 264.2879943847656 L 144.0 264.0" stroke-width="0.6000000238418579" fill="rgb(159, 159, 159)" opacity="1.0"/>
    <path d="M 145.7042694091797 277.61712646484375 C 135.84140014648438 280.0985107421875 126.61387634277344 286.0131530761719 121.441162109375 294.76348876953125 C 116.26846313476562 303.51385498046875 115.69345092773438 315.1739501953125 121.18399047851562 323.7794189453125 C 125.07357788085938 329.858642578125 131.6095733642578 333.9609069824219 138.58193969726562 335.8485412597656 C 145.5543212890625 337.7361755371094 152.9456024169922 337.5742492675781 160.08282470703125 336.453857421875 C 163.18850708007812 335.9644775390625 166.41073608398438 335.226318359375 168.7657470703125 333.1556396484375 C 171.466796875 330.78289794921875 172.5333251953125 327.1015930175781 173.31005859375 323.580078125 C 175.50286865234375 313.6380920410156 176.2554931640625 302.9813232421875 172.53176879882812 293.50445556640625 C 168.80801391601562 284.02752685546875 159.68560791015625 276.1434631347656 149.531494140625 276.3843688964844 L 145.7042694091797 277.61712646484375" stroke-width="0.6000000238418579" fill="rgb(159, 159, 159)" opacity="1.0"/>
    <path d="M 143.20021057128906 340.79998779296875 C 132.6798858642578 339.107421875 120.9127197265625 337.68182373046875 112.2320556640625 343.82550048828125 C 103.78164672851562 349.78839111328125 101.04803466796875 360.8995056152344 99.11724853515625 371.0647888183594 C 98.3389892578125 375.1954650878906 97.59065246582031 379.5291748046875 98.85804748535156 383.5344543457031 C 100.99765014648438 390.30987548828125 108.14505004882812 394.116455078125 114.94497680664062 396.14068603515625 C 121.2557373046875 398.02197265625 127.80393981933594 398.9873046875 134.38912963867188 399.0072326660156 C 145.08163452148438 399.0434265136719 157.05331420898438 395.6075439453125 161.97564697265625 386.1196594238281 C 164.6405029296875 381.0013732910156 164.77548217773438 374.835205078125 163.47723388671875 369.20355224609375 C 162.178955078125 363.5718994140625 159.53515625 358.34942626953125 156.85159301757812 353.23089599609375 C 154.16807556152344 348.11236572265625 151.4215850830078 343.140380859375 146.98165893554688 339.65972900390625 L 143.20021057128906 340.79998779296875" stroke-width="0.6000000238418579" fill="rgb(218, 166, 20)" opacity="1.0"/>
    <path d="M 146.79656982421875 339.2000732421875 C 130.025390625 339.6639709472656 116.80572509765625 353.63580322265625 117.26962280273438 370.406982421875 C 117.30934143066406 371.84307861328125 117.45091247558594 373.2745666503906 117.69320678710938 374.690673828125 C 118.61491394042969 380.07135009765625 121.18377685546875 385.3902893066406 125.66473388671875 388.50372314453125 C 129.45123291015625 391.1351318359375 134.18910217285156 391.9595947265625 138.7876739501953 392.2540588378906 C 151.0979766845703 393.0252685546875 163.3902587890625 390.4862365722656 174.38763427734375 384.9007568359375 C 177.29205322265625 383.4194641113281 180.16812133789062 381.6634521484375 182.11981201171875 379.0430603027344 C 185.39886474609375 374.6458740234375 185.46673583984375 368.51898193359375 183.822265625 363.2819519042969 C 181.38626098632812 355.50518798828125 175.54330444335938 349.02984619140625 168.446533203125 345.0201110839844 C 161.3497314453125 341.0103759765625 153.0909423828125 339.3279113769531 144.94053649902344 339.3671569824219 L 146.79656982421875 339.2000732421875" stroke-width="0.6000000238418579" fill="rgb(143, 165, 67)" opacity="1.0"/>
    <path d="M 149.34707641601562 371.6529235839844 C 131.03448486328125 372.5129089355469 120.10220336914062 398.01971435546875 130.98638916015625 412.62493896484375 C 141.8706512451172 427.2301025390625 168.16259765625 424.894287109375 177.5511474609375 409.1415710449219 C 186.93972778320312 393.3887939453125 178.03973388671875 370.3333435058594 160.92364501953125 363.7033386230469 L 149.34707641601562 371.6529235839844" stroke-width="0.6000000238418579" fill="rgb(233, 92, 21)" opacity="1.0"/>
    <path d="M 160.791748046875 382.2008056640625 C 151.12557983398438 381.78729248046875 139.5362091064453 382.29583740234375 134.53451538085938 390.6161804199219 C 132.67291259765625 394.0047912597656 131.90867614746094 397.8876037597656 132.3473358154297 401.72894287109375 C 133.17689514160156 411.2626037597656 138.57591247558594 419.802734375 146.83229064941406 424.6412353515625 C 153.84649658203125 428.72772216796875 162.14886474609375 429.589111328125 170.1910400390625 430.2353515625 C 174.709228515625 430.5909423828125 179.52093505859375 430.824951171875 183.46136474609375 428.6365966796875 C 188.689697265625 425.676513671875 190.82855224609375 419.2791748046875 191.85391235351562 413.36114501953125 C 193.3653564453125 404.701904296875 193.46530151367188 395.85516357421875 192.14984130859375 387.1639709472656 C 191.68951416015625 384.16192626953125 191.00653076171875 381.0510559082031 189.094970703125 378.6923522949219 C 187.20535278320312 376.5901184082031 184.744873046875 375.0830993652344 182.01358032226562 374.3550720214844 C 173.81439208984375 371.82440185546875 164.91781616210938 373.01788330078125 157.675537109375 377.6200866699219 L 160.791748046875 382.2008056640625" stroke-width="0.6000000238418579" fill="rgb(70, 150, 179)" opacity="1.0"/>
  </g>
</svg>
