<?xml version="1.0" ?>
<svg xmlns="http://www.w3.org/2000/svg" version="1.1" width="600" height="600">
  <defs/>
  <g>
    <path d="M 353.7197570800781 335.2217712402344 C 355.8793029785156 335.9808349609375 358.34033203125 333.5415954589844 357.7655029296875 331.3410949707031 C 357.190673828125 329.1405944824219 354.03851318359375 328.17822265625 352.21343994140625 329.5610656738281 C 350.3883972167969 330.9438781738281 350.33740234375 334.02923583984375 352.0073547363281 335.5989685058594 L 353.7197570800781 335.2217712402344" stroke-width="0.6000000238418579" fill="rgb(233, 92, 21)" opacity="1.0"/>
    <path d="M 102.96211242675781 198.880615234375 C 103.76309204101562 198.3594970703125 104.66584777832031 197.65396118164062 104.59085083007812 196.69805908203125 C 104.54620361328125 196.31881713867188 104.38497924804688 195.9627685546875 104.12940979003906 195.67904663085938 C 103.51593017578125 194.96002197265625 102.59201049804688 194.58291625976562 101.65061950683594 194.6673583984375 C 100.85223388671875 194.74102783203125 100.13522338867188 195.14791870117188 99.45149230957031 195.55718994140625 C 99.06777954101562 195.7877197265625 98.66744995117188 196.04486083984375 98.47610473632812 196.44677734375 C 98.22543334960938 196.98468017578125 98.42034912109375 197.62176513671875 98.67730712890625 198.15643310546875 C 99.0523681640625 198.93939208984375 99.55171203613281 199.65652465820312 100.15594482421875 200.27993774414062 C 100.3651123046875 200.49493408203125 100.59844970703125 200.7059326171875 100.88743591308594 200.78594970703125 C 101.15994262695312 200.84661865234375 101.4442138671875 200.82672119140625 101.70559692382812 200.72860717773438 C 102.51004028320312 200.46185302734375 103.156982421875 199.85565185546875 103.47540283203125 199.07025146484375 L 102.96211242675781 198.880615234375" stroke-width="0.6000000238418579" fill="rgb(70, 150, 179)" opacity="1.0"/>
    <path d="M 463.8555908203125 432.62164306640625 C 464.68377685546875 433.856201171875 465.65362548828125 435.18994140625 467.1060791015625 435.50250244140625 C 468.66650390625 435.83740234375 470.25164794921875 434.81396484375 471.1295166015625 433.4810791015625 C 471.46820068359375 432.9674072265625 471.7373046875 432.379638671875 471.727294921875 431.764404296875 C 471.7193603515625 431.2586669921875 471.5250244140625 430.776123046875 471.30841064453125 430.3192138671875 C 470.6270751953125 428.87744140625 469.60198974609375 427.471923828125 468.0963134765625 426.94775390625 C 466.5784912109375 426.4205322265625 464.74462890625 426.9808349609375 463.7872314453125 428.27294921875 C 462.82977294921875 429.56512451171875 462.8094482421875 431.48016357421875 463.75048828125 432.78558349609375 L 463.8555908203125 432.62164306640625" stroke-width="0.6000000238418579" fill="rgb(140, 28, 33)" opacity="1.0"/>
    <path d="M 93.07701110839844 192.93728637695312 C 93.41590881347656 192.73361206054688 93.76629638671875 192.5179443359375 93.98907470703125 192.19091796875 C 94.21183776855469 191.8638916015625 94.26985168457031 191.38803100585938 94.01719665527344 191.0836181640625 C 93.7044677734375 190.70852661132812 93.05474853515625 190.78778076171875 92.72314453125 191.14749145507812 C 92.39154052734375 191.5072021484375 92.32174682617188 192.0404052734375 92.3740234375 192.5262451171875 C 92.3751220703125 192.67822265625 92.43318176269531 192.82427978515625 92.53672790527344 192.93560791015625 C 92.64961242675781 193.03369140625 92.86668395996094 193.0166015625 92.91226196289062 192.87338256835938 L 93.07701110839844 192.93728637695312" stroke-width="0.6000000238418579" fill="rgb(159, 159, 159)" opacity="1.0"/>
    <path d="M 380.6065673828125 301.9777526855469 C 381.9143371582031 301.419921875 383.0594787597656 300.4018859863281 383.5828552246094 299.0807189941406 C 384.106201171875 297.75958251953125 383.93121337890625 296.136962890625 382.98529052734375 295.0684509277344 C 382.3155517578125 294.3138732910156 381.32354736328125 293.8900146484375 380.319580078125 293.781494140625 C 379.31561279296875 293.6729431152344 378.29852294921875 293.8565673828125 377.3374328613281 294.1669921875 C 376.91925048828125 294.3023376464844 376.49041748046875 294.47454833984375 376.21038818359375 294.8118591308594 C 375.8891906738281 295.1984558105469 375.8222351074219 295.73004150390625 375.79180908203125 296.2332763671875 C 375.7059326171875 297.6539306640625 375.8345031738281 299.14190673828125 376.55548095703125 300.3692626953125 C 377.27642822265625 301.5966491699219 378.7080993652344 302.4862976074219 380.10498046875 302.2314758300781 L 380.6065673828125 301.9777526855469" stroke-width="0.6000000238418579" fill="rgb(159, 159, 159)" opacity="1.0"/>
    <path d="M 104.18719482421875 431.893310546875 C 105.19108581542969 431.1221923828125 106.27354431152344 430.22149658203125 106.45025634765625 428.97052001953125 C 106.62384033203125 427.754150390625 105.88650512695312 426.6121826171875 105.16543579101562 425.61663818359375 C 104.87191772460938 425.212646484375 104.55841064453125 424.794677734375 104.10897827148438 424.57769775390625 C 103.34904479980469 424.21026611328125 102.43743896484375 424.517578125 101.70816040039062 424.940185546875 C 101.03114318847656 425.33221435546875 100.41390991210938 425.81939697265625 99.8753662109375 426.3868408203125 C 99.00057983398438 427.30792236328125 98.32157897949219 428.62255859375 98.740234375 429.8214111328125 C 98.96530151367188 430.46893310546875 99.48715209960938 430.9832763671875 100.07965087890625 431.3302001953125 C 100.67216491699219 431.67706298828125 101.33900451660156 431.87432861328125 102.00009155273438 432.0596923828125 C 102.66119384765625 432.24505615234375 103.31474304199219 432.41302490234375 103.97747802734375 432.3131103515625 L 104.18719482421875 431.893310546875" stroke-width="0.6000000238418579" fill="rgb(218, 166, 20)" opacity="1.0"/>
    <path d="M 100.43351745605469 139.92135620117188 C 102.1778564453125 140.4613494873047 104.02967834472656 139.48504638671875 104.56967163085938 137.74070739746094 C 104.61592102050781 137.59133911132812 104.65150451660156 137.43887329101562 104.67617797851562 137.2844696044922 C 104.769775390625 136.69775390625 104.69151306152344 136.05966186523438 104.33892822265625 135.58181762695312 C 104.04098510742188 135.17796325683594 103.58169555664062 134.9269561767578 103.11819458007812 134.73544311523438 C 101.87678527832031 134.22451782226562 100.52120971679688 134.05531311035156 99.19229125976562 134.2454071044922 C 98.84112548828125 134.29623413085938 98.48321533203125 134.37637329101562 98.19027709960938 134.57797241210938 C 97.69830322265625 134.91612243652344 97.4765625 135.54505920410156 97.46246337890625 136.14230346679688 C 97.44091796875 137.02899169921875 97.81600952148438 137.90098571777344 98.40670776367188 138.56288146972656 C 98.9974365234375 139.22476196289062 99.7894287109375 139.6875762939453 100.630615234375 139.9691925048828 L 100.43351745605469 139.92135620117188" stroke-width="0.6000000238418579" fill="rgb(143, 165, 67)" opacity="1.0"/>
    <path d="M 456.90771484375 338.2622375488281 C 458.4315185546875 338.98968505859375 460.4293212890625 337.39532470703125 460.1817626953125 335.73602294921875 C 459.9342041015625 334.07672119140625 457.698486328125 333.1216735839844 456.2506103515625 333.99151611328125 C 454.802734375 334.86138916015625 454.52142333984375 337.12017822265625 455.6220703125 338.4034729003906 L 456.90771484375 338.2622375488281" stroke-width="0.6000000238418579" fill="rgb(233, 92, 21)" opacity="1.0"/>
    <path d="M 110.887939453125 215.27386474609375 C 111.74542236328125 214.92193603515625 112.73318481445312 214.41265869140625 112.83439636230469 213.4881591796875 C 112.86036682128906 213.11868286132812 112.77104187011719 212.750244140625 112.5787353515625 212.43368530273438 C 112.12400817871094 211.63763427734375 111.3116455078125 211.11135864257812 110.39926147460938 211.02175903320312 C 109.62509155273438 210.94775390625 108.86830139160156 211.20596313476562 108.14277648925781 211.47247314453125 C 107.7354736328125 211.62283325195312 107.3074951171875 211.79556274414062 107.05253601074219 212.14404296875 C 106.71649169921875 212.611328125 106.78713989257812 213.25369262695312 106.9354248046875 213.80963134765625 C 107.15142822265625 214.62359619140625 107.49772644042969 215.39715576171875 107.96090698242188 216.1004638671875 C 108.12142944335938 216.3431396484375 108.3056640625 216.58633422851562 108.56661987304688 216.71481323242188 C 108.81533813476562 216.82186889648438 109.08985900878906 216.854248046875 109.35667419433594 216.80795288085938 C 110.17147827148438 216.6990966796875 110.89750671386719 216.23828125 111.34283447265625 215.54730224609375 L 110.887939453125 215.27386474609375" stroke-width="0.6000000238418579" fill="rgb(70, 150, 179)" opacity="1.0"/>
    <path d="M 103.1695556640625 76.51106262207031 C 104.02642822265625 77.33367919921875 105.01075744628906 78.20950317382812 106.19781494140625 78.20602416992188 C 107.47299194335938 78.20155334472656 108.53598022460938 77.13253784179688 108.994140625 75.94253540039062 C 109.17098999023438 75.48379516601562 109.2808837890625 74.9791259765625 109.16827392578125 74.50059509277344 C 109.07586669921875 74.107177734375 108.84194946289062 73.76359558105469 108.59501647949219 73.44381713867188 C 107.8175048828125 72.43447875976562 106.77780151367188 71.51197814941406 105.51315307617188 71.359375 C 104.23846435546875 71.20645141601562 102.90240478515625 71.95628356933594 102.37518310546875 73.12808227539062 C 101.84799194335938 74.29989624023438 102.15843200683594 75.79824829101562 103.115478515625 76.65693664550781 L 103.1695556640625 76.51106262207031" stroke-width="0.6000000238418579" fill="rgb(140, 28, 33)" opacity="1.0"/>
    <path d="M 97.90133666992188 429.8809814453125 C 98.22760009765625 429.8802490234375 98.56709289550781 429.87591552734375 98.86335754394531 429.7386474609375 C 99.15960693359375 429.6014404296875 99.40225219726562 429.28900146484375 99.35223388671875 428.9664306640625 C 99.28964233398438 428.568359375 98.79592895507812 428.34930419921875 98.40875244140625 428.463623046875 C 98.02157592773438 428.577880859375 97.74630737304688 428.92596435546875 97.57757568359375 429.2921142578125 C 97.51397705078125 429.4002685546875 97.49322509765625 429.5283203125 97.5194091796875 429.6510009765625 C 97.55781555175781 429.76824951171875 97.71878051757812 429.8480224609375 97.81172180175781 429.76593017578125 L 97.90133666992188 429.8809814453125" stroke-width="0.6000000238418579" fill="rgb(159, 159, 159)" opacity="1.0"/>
    <path d="M 465.6646728515625 61.66572570800781 C 466.3792724609375 60.980316162109375 466.87457275390625 60.035125732421875 466.89013671875 59.045623779296875 C 466.90576171875 58.05609130859375 466.3922119140625 57.042144775390625 465.512939453125 56.57902526855469 C 464.89080810546875 56.25238037109375 464.14019775390625 56.22053527832031 463.45947265625 56.397064208984375 C 462.7786865234375 56.573577880859375 462.161376953125 56.943634033203125 461.6116943359375 57.382537841796875 C 461.37261962890625 57.57366943359375 461.13568115234375 57.79145812988281 461.03631591796875 58.08013916015625 C 460.9222412109375 58.41107177734375 461.009521484375 58.77386474609375 461.1136474609375 59.109161376953125 C 461.40753173828125 60.0557861328125 461.857666015625 60.993438720703125 462.629638671875 61.61546325683594 C 463.4014892578125 62.23748779296875 464.55322265625 62.46449279785156 465.400390625 61.95452880859375 L 465.6646728515625 61.66572570800781" stroke-width="0.6000000238418579" fill="rgb(159, 159, 159)" opacity="1.0"/>
    <path d="M 93.08445739746094 104.00369262695312 C 94.22756958007812 104.14999389648438 95.5045166015625 104.26310729980469 96.42146301269531 103.56875610351562 C 97.31414794921875 102.89474487304688 97.5709228515625 101.68415832519531 97.74423217773438 100.57859802246094 C 97.81396484375 100.12937927246094 97.8797607421875 99.65830993652344 97.72879028320312 99.22976684570312 C 97.47390747070312 98.50482177734375 96.68804931640625 98.11825561523438 95.94595336914062 97.92312622070312 C 95.25721740722656 97.74176025390625 94.5460205078125 97.66021728515625 93.8341064453125 97.68099975585938 C 92.67816162109375 97.71435546875 91.39605712890625 98.12745666503906 90.89701843261719 99.17021179199219 C 90.62678527832031 99.73275756835938 90.6336669921875 100.3997802734375 90.79364013671875 101.00401306152344 C 90.95358276367188 101.60824584960938 91.257568359375 102.16357421875 91.56549072265625 102.70751953125 C 91.87339782714844 103.25146484375 92.18760681152344 103.77934265136719 92.67967224121094 104.14012145996094 L 93.08445739746094 104.00369262695312" stroke-width="0.6000000238418579" fill="rgb(218, 166, 20)" opacity="1.0"/>
    <path d="M 114.94314575195312 128.64480590820312 C 116.61813354492188 128.19052124023438 117.60772705078125 126.46438598632812 117.15342712402344 124.78939819335938 C 117.11453247070312 124.64596557617188 117.06549072265625 124.5054931640625 117.0067138671875 124.36898803710938 C 116.78326416015625 123.85040283203125 116.39569091796875 123.37803649902344 115.86947631835938 123.17391967773438 C 115.4248046875 123.00137329101562 114.92839050292969 123.03363037109375 114.4588623046875 123.11579895019531 C 113.20237731933594 123.33747863769531 112.02815246582031 123.89154052734375 111.05818176269531 124.72044372558594 C 110.80215454101562 124.93997192382812 110.5556640625 125.18644714355469 110.42312622070312 125.49734497070312 C 110.2003173828125 126.0191650390625 110.3424072265625 126.6368408203125 110.63504028320312 127.12344360351562 C 111.06900024414062 127.84614562988281 111.81387329101562 128.35519409179688 112.6248779296875 128.5858612060547 C 113.43589782714844 128.8165283203125 114.30717468261719 128.78494262695312 115.12570190429688 128.58290100097656 L 114.94314575195312 128.64480590820312" stroke-width="0.6000000238418579" fill="rgb(143, 165, 67)" opacity="1.0"/>
    <path d="M 386.8374328613281 298.9813232421875 C 388.3562316894531 299.9367370605469 390.6611633300781 298.4998779296875 390.6041259765625 296.718017578125 C 390.54705810546875 294.9361572265625 388.30487060546875 293.65289306640625 386.66961669921875 294.39276123046875 C 385.0343322753906 295.13262939453125 384.45928955078125 297.48211669921875 385.4629821777344 298.97210693359375 L 386.8374328613281 298.9813232421875" stroke-width="0.6000000238418579" fill="rgb(233, 92, 21)" opacity="1.0"/>
    <path d="M 120.75494384765625 109.96878051757812 C 121.57266235351562 109.43099975585938 122.49365234375 108.70381164550781 122.41200256347656 107.72517395019531 C 122.36434936523438 107.33697509765625 122.19741821289062 106.97314453125 121.93421936035156 106.68385314941406 C 121.30227661132812 105.95053100585938 120.35408020019531 105.56903076171875 119.39035034179688 105.6602783203125 C 118.57302856445312 105.73979187011719 117.84075927734375 106.16015625 117.14256286621094 106.58279418945312 C 116.750732421875 106.82083129882812 116.34202575683594 107.08622741699219 116.14810180664062 107.49887084960938 C 115.89410400390625 108.051025390625 116.09695434570312 108.7025146484375 116.36285400390625 109.24884033203125 C 116.75096130371094 110.04884338378906 117.26602172851562 110.78076171875 117.88801574707031 111.41619873046875 C 118.10334777832031 111.63533020019531 118.3433837890625 111.8502197265625 118.6397705078125 111.93072509765625 C 118.919189453125 111.99148559570312 119.21023559570312 111.96963500976562 119.47744750976562 111.86782836914062 C 120.29997253417969 111.59056091308594 120.95947265625 110.96641540527344 121.2816162109375 110.160400390625 L 120.75494384765625 109.96878051757812" stroke-width="0.6000000238418579" fill="rgb(70, 150, 179)" opacity="1.0"/>
    <path d="M 431.771240234375 73.0640869140625 C 432.57623291015625 74.01641845703125 433.508544921875 75.0382080078125 434.748291015625 75.16403198242188 C 436.08026123046875 75.29837036132812 437.30670166015625 74.29808044433594 437.91485595703125 73.10549926757812 C 438.1495361328125 72.64581298828125 438.31927490234375 72.13082885742188 438.25390625 71.61891174316406 C 438.2003173828125 71.19805908203125 437.9935302734375 70.81381225585938 437.7705078125 70.4530029296875 C 437.0687255859375 69.3143310546875 436.083740234375 68.23776245117188 434.7799072265625 67.9405517578125 C 433.46563720703125 67.64190673828125 431.9888916015625 68.27915954589844 431.3106689453125 69.44520568847656 C 430.63238525390625 70.61125183105469 430.793212890625 72.2095947265625 431.6988525390625 73.21051025390625 L 431.771240234375 73.0640869140625" stroke-width="0.6000000238418579" fill="rgb(140, 28, 33)" opacity="1.0"/>
    <path d="M 120.83804321289062 417.4449462890625 C 121.16796875 417.221435546875 121.50881958007812 416.9853515625 121.71514892578125 416.64404296875 C 121.92147827148438 416.3028564453125 121.95391845703125 415.82080078125 121.68304443359375 415.52825927734375 C 121.347900390625 415.1678466796875 120.69839477539062 415.2830810546875 120.38432312011719 415.6630859375 C 120.07025146484375 416.043212890625 120.02908325195312 416.5836181640625 120.10818481445312 417.069580078125 C 120.11761474609375 417.2225341796875 120.18399047851562 417.3663330078125 120.29425048828125 417.47265625 C 120.4132080078125 417.56524658203125 120.63072204589844 417.53619384765625 120.66876220703125 417.38958740234375 L 120.83804321289062 417.4449462890625" stroke-width="0.6000000238418579" fill="rgb(159, 159, 159)" opacity="1.0"/>
    <path d="M 449.73974609375 425.93768310546875 C 450.427001953125 425.07177734375 450.8326416015625 423.95159912109375 450.70086669921875 422.8546142578125 C 450.569091796875 421.757568359375 449.8482666015625 420.7132568359375 448.8057861328125 420.33331298828125 C 448.068359375 420.065673828125 447.233154296875 420.14349365234375 446.5067138671875 420.4412841796875 C 445.78021240234375 420.73907470703125 445.1529541015625 421.241455078125 444.61102294921875 421.80975341796875 C 444.37530517578125 422.0572509765625 444.14599609375 422.3338623046875 444.07958984375 422.66815185546875 C 444.00323486328125 423.0513916015625 444.1544189453125 423.43963623046875 444.320068359375 423.794921875 C 444.78778076171875 424.7978515625 445.427001953125 425.767333984375 446.37457275390625 426.3392333984375 C 447.3221435546875 426.91107177734375 448.6304931640625 426.98876953125 449.49090576171875 426.2969970703125 L 449.73974609375 425.93768310546875" stroke-width="0.6000000238418579" fill="rgb(159, 159, 159)" opacity="1.0"/>
    <path d="M 447.34423828125 284.3643493652344 C 448.1773681640625 283.6728820800781 449.073486328125 282.8681640625 449.1842041015625 281.79327392578125 C 449.29327392578125 280.74810791015625 448.626220703125 279.79583740234375 447.9779052734375 278.9682312011719 C 447.7139892578125 278.6324157714844 447.43255615234375 278.2853088378906 447.04144287109375 278.1143493652344 C 446.38006591796875 277.8248291015625 445.61083984375 278.1169128417969 445.001220703125 278.50164794921875 C 444.4351806640625 278.8584899902344 443.92340087890625 279.2947998046875 443.4814453125 279.7971496582031 C 442.763427734375 280.6125793457031 442.22552490234375 281.7580871582031 442.62200927734375 282.7691955566406 C 442.835205078125 283.31536865234375 443.2978515625 283.7381286621094 443.8154296875 284.0155029296875 C 444.3330078125 284.2928771972656 444.9093017578125 284.4399719238281 445.4803466796875 284.5770568847656 C 446.05133056640625 284.71417236328125 446.6153564453125 284.8366394042969 447.17852783203125 284.7298583984375 L 447.34423828125 284.3643493652344" stroke-width="0.6000000238418579" fill="rgb(218, 166, 20)" opacity="1.0"/>
    <path d="M 426.9093017578125 373.03277587890625 C 428.1131591796875 374.4239501953125 430.2169189453125 374.5757751464844 431.6080322265625 373.37188720703125 C 431.7271728515625 373.268798828125 431.8388671875 373.1573791503906 431.94219970703125 373.0384826660156 C 432.3348388671875 372.5866394042969 432.60791015625 371.9992980957031 432.56103515625 371.40283203125 C 432.52142333984375 370.89874267578125 432.262451171875 370.43939208984375 431.9681396484375 370.0286560058594 C 431.1788330078125 368.9303283691406 430.10980224609375 368.0633850097656 428.87213134765625 367.5178527832031 C 428.5447998046875 367.37420654296875 428.196044921875 367.2520446777344 427.838134765625 367.26837158203125 C 427.23724365234375 367.2953796386719 426.7125244140625 367.7150573730469 426.3822021484375 368.21826171875 C 425.891357421875 368.9649658203125 425.74755859375 369.9104919433594 425.89996337890625 370.7912292480469 C 426.05242919921875 371.67193603515625 426.48309326171875 372.48968505859375 427.0523681640625 373.1787109375 L 426.9093017578125 373.03277587890625" stroke-width="0.6000000238418579" fill="rgb(143, 165, 67)" opacity="1.0"/>
    <path d="M 448.2735595703125 358.0738830566406 C 449.5126953125 356.7149963378906 448.48114013671875 354.1294250488281 446.67333984375 353.8638916015625 C 444.8656005859375 353.598388671875 443.16455078125 355.6275329589844 443.6143798828125 357.4112548828125 C 444.06427001953125 359.1949768066406 446.330078125 360.2010192871094 448.01507568359375 359.45867919921875 L 448.2735595703125 358.0738830566406" stroke-width="0.6000000238418579" fill="rgb(233, 92, 21)" opacity="1.0"/>
    <path d="M 450.35711669921875 86.15316772460938 C 451.3001708984375 85.42803955078125 452.35137939453125 84.46405029296875 452.16473388671875 83.28509521484375 C 452.07220458984375 82.81881713867188 451.8372802734375 82.39273071289062 451.4923095703125 82.06564331054688 C 450.66058349609375 81.23336791992188 449.47705078125 80.85586547851562 448.3170166015625 81.05282592773438 C 447.33343505859375 81.222412109375 446.4833984375 81.79757690429688 445.67498779296875 82.37240600585938 C 445.2213134765625 82.69607543945312 444.74969482421875 83.05438232421875 444.5516357421875 83.57194519042969 C 444.293212890625 84.26399230957031 444.597412109375 85.03555297851562 444.96868896484375 85.67393493652344 C 445.51080322265625 86.60891723632812 446.20068359375 87.44996643066406 447.0115966796875 88.16448974609375 C 447.292236328125 88.41082763671875 447.60247802734375 88.64981079101562 447.96893310546875 88.72084045410156 C 448.3131103515625 88.76947021484375 448.6639404296875 88.71688842773438 448.97869873046875 88.56954956054688 C 449.950927734375 88.15977478027344 450.6944580078125 87.34413146972656 451.0126953125 86.33822631835938 L 450.35711669921875 86.15316772460938" stroke-width="0.6000000238418579" fill="rgb(70, 150, 179)" opacity="1.0"/>
    <path d="M 447.6402587890625 395.87335205078125 C 448.82073974609375 394.60809326171875 450.076171875 393.1561279296875 450.0465087890625 391.4270324707031 C 450.0135498046875 389.5696105957031 448.434326171875 388.0433349609375 446.69140625 387.4006042480469 C 446.01947021484375 387.1524963378906 445.28204345703125 387.00286865234375 444.5872802734375 387.17681884765625 C 444.01617431640625 387.319580078125 443.5205078125 387.66741943359375 443.059814453125 388.03375244140625 C 441.6055908203125 389.187255859375 440.283447265625 390.72088623046875 440.0872802734375 392.5662536621094 C 439.8909912109375 394.42620849609375 441.01092529296875 396.3569030761719 442.728759765625 397.1005859375 C 444.4466552734375 397.8442687988281 446.62286376953125 397.3609924316406 447.8538818359375 395.9490966796875 L 447.6402587890625 395.87335205078125" stroke-width="0.6000000238418579" fill="rgb(140, 28, 33)" opacity="1.0"/>
    <path d="M 116.43009948730469 214.2855224609375 C 115.70892333984375 214.03970336914062 114.95579528808594 213.7918701171875 114.19737243652344 213.870361328125 C 113.43896484375 213.9488525390625 112.66616821289062 214.4549560546875 112.531982421875 215.20538330078125 C 112.36843872070312 216.132080078125 113.29277038574219 216.990234375 114.23460388183594 217.0313720703125 C 115.17642211914062 217.072509765625 116.04835510253906 216.512451171875 116.69869995117188 215.83160400390625 C 116.921142578125 215.6409912109375 117.06405639648438 215.37396240234375 117.09921264648438 215.08316040039062 C 117.10333251953125 214.79501342773438 116.80831909179688 214.49664306640625 116.54080200195312 214.6075439453125 L 116.43009948730469 214.2855224609375" stroke-width="0.6000000238418579" fill="rgb(159, 159, 159)" opacity="1.0"/>
    <path d="M 114.06245422363281 224.548828125 C 112.12724304199219 223.36196899414062 109.74322509765625 222.81228637695312 107.5394287109375 223.352294921875 C 105.33563232421875 223.89227294921875 103.38494873046875 225.62017822265625 102.86834716796875 227.83941650390625 C 102.50511169433594 229.408935546875 102.87039184570312 231.09225463867188 103.6572265625 232.4996337890625 C 104.44406127929688 233.90701293945312 105.62338256835938 235.0614013671875 106.916015625 236.025634765625 C 107.47879028320312 236.4449462890625 108.09945678710938 236.843994140625 108.79745483398438 236.896728515625 C 109.59765625 236.95751953125 110.35165405273438 236.55322265625 111.03489685058594 236.12762451171875 C 112.96383666992188 234.92608642578125 114.7821044921875 233.38311767578125 115.7135009765625 231.30987548828125 C 116.6448974609375 229.23660278320312 116.47955322265625 226.55029296875 114.85647583007812 224.96728515625 L 114.06245422363281 224.548828125" stroke-width="0.6000000238418579" fill="rgb(159, 159, 159)" opacity="1.0"/>
    <path d="M 298.885009765625 105.05209350585938 C 297.6552734375 106.60305786132812 296.35552978515625 108.38027954101562 296.5626220703125 110.3448486328125 C 296.7613525390625 112.25569152832031 298.3134765625 113.70777893066406 299.7852783203125 114.94387817382812 C 300.3839111328125 115.44515991210938 301.0181579589844 115.96000671386719 301.7822570800781 116.118408203125 C 303.074462890625 116.3870849609375 304.34039306640625 115.57467651367188 305.2860107421875 114.65667724609375 C 306.16400146484375 113.80496215820312 306.9151306152344 112.83160400390625 307.5164489746094 111.766357421875 C 308.4934387207031 110.03707885742188 309.0240173339844 107.78517150878906 307.9336853027344 106.1258544921875 C 307.34637451171875 105.22918701171875 306.3594970703125 104.64729309082031 305.32904052734375 104.34617614746094 C 304.298583984375 104.04505920410156 303.2122497558594 103.99913024902344 302.1391296386719 103.96908569335938 C 301.0660095214844 103.93902587890625 300.01092529296875 103.9324951171875 299.043701171875 104.33580017089844 L 298.885009765625 105.05209350585938" stroke-width="0.6000000238418579" fill="rgb(218, 166, 20)" opacity="1.0"/>
    <path d="M 222.9742431640625 125.41815185546875 C 220.20208740234375 124.119140625 216.9017333984375 125.3133544921875 215.60269165039062 128.08554077148438 C 215.491455078125 128.3229217529297 215.397216796875 128.56788635253906 215.32061767578125 128.81861877441406 C 215.02987670898438 129.77134704589844 215.0126953125 130.8490447998047 215.488037109375 131.72389221191406 C 215.8896484375 132.46324157714844 216.59445190429688 132.98599243164062 217.32000732421875 133.41091918945312 C 219.26370239257812 134.545654296875 221.47576904296875 135.13926696777344 223.72647094726562 135.1300811767578 C 224.32138061523438 135.12664794921875 224.9342041015625 135.07611083984375 225.4671630859375 134.8088836669922 C 226.36212158203125 134.3607940673828 226.8753662109375 133.3675079345703 227.03656005859375 132.3789520263672 C 227.27685546875 130.91146850585938 226.85504150390625 129.37689208984375 226.0267333984375 128.14151000976562 C 225.19842529296875 126.9061279296875 223.98992919921875 125.95491027832031 222.657958984375 125.29325866699219 L 222.9742431640625 125.41815185546875" stroke-width="0.6000000238418579" fill="rgb(143, 165, 67)" opacity="1.0"/>
    <path d="M 223.6943359375 97.97454833984375 C 221.7763671875 101.04364013671875 224.68826293945312 105.68408203125 228.28189086914062 105.55838012695312 C 231.87554931640625 105.43267822265625 234.45050048828125 100.90254211425781 232.94842529296875 97.608642578125 C 231.44635009765625 94.31474304199219 226.70401000976562 93.16891479492188 223.7047119140625 95.20223999023438 L 223.6943359375 97.97454833984375" stroke-width="0.6000000238418579" fill="rgb(233, 92, 21)" opacity="1.0"/>
    <path d="M 205.44036865234375 98.81124877929688 C 204.44482421875 97.25848388671875 203.09457397460938 95.50692749023438 201.24853515625 95.63937377929688 C 200.51596069335938 95.72067260742188 199.82662963867188 96.02729797363281 199.27569580078125 96.5169677734375 C 197.87994384765625 97.69183349609375 197.14019775390625 99.4703369140625 197.29107666015625 101.28849792480469 C 197.42303466796875 102.83047485351562 198.19915771484375 104.21966552734375 198.98031616210938 105.544677734375 C 199.42034912109375 106.28826904296875 199.91152954101562 107.06430053710938 200.6849365234375 107.43881225585938 C 201.71987915039062 107.92955017089844 202.95208740234375 107.5615234375 203.9874267578125 107.07243347167969 C 205.5035400390625 106.35855102539062 206.89413452148438 105.40396118164062 208.105224609375 104.24569702148438 C 208.52288818359375 103.84469604492188 208.93313598632812 103.39703369140625 209.09133911132812 102.84027099609375 C 209.21197509765625 102.3150634765625 209.1771240234375 101.76608276367188 208.99114990234375 101.26031494140625 C 208.48663330078125 99.70416259765625 207.32489013671875 98.44764709472656 205.81298828125 97.82293701171875 L 205.44036865234375 98.81124877929688" stroke-width="0.6000000238418579" fill="rgb(70, 150, 179)" opacity="1.0"/>
    <path d="M 264.3204040527344 127.28106689453125 C 263.0329284667969 128.7517852783203 261.6676025390625 130.43603515625 261.76300048828125 132.38711547851562 C 261.8667297363281 134.48292541503906 263.7043151855469 136.14952087402344 265.6950988769531 136.812744140625 C 266.4625549316406 137.0687713623047 267.30047607421875 137.21128845214844 268.0785827636719 136.9900360107422 C 268.7182922363281 136.80838012695312 269.26544189453125 136.39791870117188 269.7724304199219 135.9678192138672 C 271.37286376953125 134.61346435546875 272.81072998046875 132.83462524414062 272.96600341796875 130.74423217773438 C 273.1210632324219 128.6373291015625 271.7875061035156 126.49771118164062 269.8214111328125 125.71961975097656 C 267.8553161621094 124.9415283203125 265.4157409667969 125.56509399414062 264.0765380859375 127.20320129394531 L 264.3204040527344 127.28106689453125" stroke-width="0.6000000238418579" fill="rgb(140, 28, 33)" opacity="1.0"/>
    <path d="M 318.6041259765625 114.19320678710938 C 317.7146911621094 114.69465637207031 316.79473876953125 115.22625732421875 316.19622802734375 116.05441284179688 C 315.5977478027344 116.88253784179688 315.4138488769531 118.10678100585938 316.0442199707031 118.91070556640625 C 316.82452392578125 119.90135192871094 318.5073547363281 119.74336242675781 319.38916015625 118.83865356445312 C 320.27093505859375 117.9339599609375 320.4893798828125 116.5625 320.3893127441406 115.30470275878906 C 320.3973388671875 114.9122314453125 320.2579650878906 114.53103637695312 319.9986572265625 114.236328125 C 319.71429443359375 113.97502136230469 319.1527404785156 114.00357055664062 319.0248107910156 114.3699951171875 L 318.6041259765625 114.19320678710938" stroke-width="0.6000000238418579" fill="rgb(159, 159, 159)" opacity="1.0"/>
    <path d="M 201.03564453125 127.49063110351562 C 199.1536865234375 126.28524780273438 196.81771850585938 125.69839477539062 194.63818359375 126.18754577636719 C 192.45867919921875 126.67669677734375 190.50546264648438 128.33993530273438 189.954345703125 130.5143585205078 C 189.566650390625 132.0522003173828 189.89385986328125 133.71607971191406 190.6412353515625 135.11643981933594 C 191.388671875 136.51681518554688 192.52725219726562 137.67568969726562 193.78103637695312 138.64962768554688 C 194.326904296875 139.07315063476562 194.93014526367188 139.47787475585938 195.61614990234375 139.5431671142578 C 196.40261840820312 139.61839294433594 197.15252685546875 139.23495483398438 197.83319091796875 138.8291778564453 C 199.7548828125 137.68357849121094 201.57421875 136.1998291015625 202.53082275390625 134.1770782470703 C 203.48739624023438 132.15431213378906 203.37628173828125 129.50706481933594 201.80914306640625 127.91775512695312 L 201.03564453125 127.49063110351562" stroke-width="0.6000000238418579" fill="rgb(159, 159, 159)" opacity="1.0"/>
    <path d="M 279.7741394042969 106.71017456054688 C 278.1696472167969 107.16946411132812 276.40606689453125 107.74951171875 275.5834045410156 109.19784545898438 C 274.7813415527344 110.60523986816406 275.1322937011719 112.36271667480469 275.5342102050781 113.93269348144531 C 275.6983947753906 114.57023620605469 275.88037109375 115.23458862304688 276.32635498046875 115.71835327148438 C 277.0802001953125 116.53700256347656 278.34686279296875 116.60173034667969 279.4457702636719 116.43678283691406 C 280.4658203125 116.28408813476562 281.4586486816406 115.98568725585938 282.3938903808594 115.55076599121094 C 283.9126892089844 114.84512329101562 285.382080078125 113.56202697753906 285.449462890625 111.88925170898438 C 285.4871520996094 110.98623657226562 285.0964050292969 110.102783203125 284.5379333496094 109.39041137695312 C 283.97943115234375 108.67803955078125 283.25732421875 108.1131591796875 282.5364990234375 107.56564331054688 C 281.815673828125 107.01812744140625 281.0956726074219 106.49557495117188 280.234619140625 106.29708862304688 L 279.7741394042969 106.71017456054688" stroke-width="0.6000000238418579" fill="rgb(218, 166, 20)" opacity="1.0"/>
    <path d="M 242.813232421875 122.23590087890625 C 240.9195556640625 124.24531555175781 241.01339721679688 127.40939331054688 243.02279663085938 129.3030548095703 C 243.19488525390625 129.4652099609375 243.37823486328125 129.6149444580078 243.57147216796875 129.75115966796875 C 244.305908203125 130.26858520507812 245.22442626953125 130.5867919921875 246.10787963867188 130.42588806152344 C 246.85446166992188 130.28997802734375 247.50082397460938 129.8332977294922 248.0692138671875 129.331298828125 C 249.58883666992188 127.9854736328125 250.72039794921875 126.25730895996094 251.3463134765625 124.32632446289062 C 251.51092529296875 123.81564331054688 251.64016723632812 123.27633666992188 251.561279296875 122.74444580078125 C 251.42938232421875 121.8514404296875 250.722900390625 121.1319580078125 249.9212646484375 120.71548461914062 C 248.7315673828125 120.09635925292969 247.2979736328125 120.02561950683594 246.0062255859375 120.38743591308594 C 244.7144775390625 120.74923706054688 243.55914306640625 121.51683044433594 242.61715698242188 122.47172546386719 L 242.813232421875 122.23590087890625" stroke-width="0.6000000238418579" fill="rgb(143, 165, 67)" opacity="1.0"/>
    <path d="M 249.7703857421875 97.34609985351562 C 248.00067138671875 100.41261291503906 251.00704956054688 104.84939575195312 254.51617431640625 104.60302734375 C 258.0252685546875 104.35662841796875 260.3870849609375 99.83914184570312 258.80535888671875 96.67037963867188 C 257.2236022949219 93.50161743164062 252.5477294921875 92.5443115234375 249.68524169921875 94.63531494140625 L 249.7703857421875 97.34609985351562" stroke-width="0.6000000238418579" fill="rgb(233, 92, 21)" opacity="1.0"/>
    <path d="M 340.66912841796875 88.74693298339844 C 339.1033935546875 88.51081848144531 337.2085876464844 88.39115905761719 336.2493591308594 89.65776062011719 C 335.88726806640625 90.17666625976562 335.695068359375 90.795166015625 335.6993713378906 91.42791748046875 C 335.6678466796875 92.99378967285156 336.39727783203125 94.47781372070312 337.65631103515625 95.40936279296875 C 338.7263488769531 96.19683837890625 340.06231689453125 96.48202514648438 341.3597106933594 96.72763061523438 C 342.0887451171875 96.86442565917969 342.8676452636719 96.98654174804688 343.5470886230469 96.69924926757812 C 344.4495849609375 96.30888366699219 344.90936279296875 95.30520629882812 345.1795654296875 94.36009216308594 C 345.5767517089844 92.97738647460938 345.7475280761719 91.53952026367188 345.6852722167969 90.10226440429688 C 345.6628112792969 89.60569763183594 345.6059875488281 89.08755493164062 345.33612060546875 88.67033386230469 C 345.0653381347656 88.29524230957031 344.6912841796875 88.00703430175781 344.259521484375 87.84085083007812 C 342.9695129394531 87.28585815429688 341.5009460449219 87.32467651367188 340.2420349121094 87.94709777832031 L 340.66912841796875 88.74693298339844" stroke-width="0.6000000238418579" fill="rgb(70, 150, 179)" opacity="1.0"/>
    <path d="M 337.9456481933594 118.16403198242188 C 336.8318786621094 116.32070922851562 335.51995849609375 114.32429504394531 333.4396667480469 113.77229309082031 C 331.20458984375 113.1806640625 328.84063720703125 114.55288696289062 327.4788818359375 116.42131042480469 C 326.95355224609375 117.1414794921875 326.5238342285156 117.97357177734375 326.4960632324219 118.86444091796875 C 326.4729309082031 119.5968017578125 326.72100830078125 120.30844116210938 327.0030822753906 120.98448181152344 C 327.89007568359375 123.11749267578125 329.27703857421875 125.22166442871094 331.4198303222656 126.08343505859375 C 333.5800476074219 126.95046997070312 336.27215576171875 126.26554870605469 337.7462463378906 124.46142578125 C 339.2203369140625 122.65731811523438 339.3811340332031 119.8875732421875 338.1089172363281 117.93402099609375 L 337.9456481933594 118.16403198242188" stroke-width="0.6000000238418579" fill="rgb(140, 28, 33)" opacity="1.0"/>
    <path d="M 360.4322814941406 105.23361206054688 C 359.8623352050781 105.55926513671875 359.27288818359375 105.90443420410156 358.89117431640625 106.43905639648438 C 358.5094909667969 106.97366333007812 358.39581298828125 107.76138305664062 358.80401611328125 108.27587890625 C 359.3093566894531 108.90985107421875 360.390625 108.80206298828125 360.95416259765625 108.21717834472656 C 361.5177001953125 107.63229370117188 361.6530456542969 106.74980163574219 361.58404541015625 105.94155883789062 C 361.5877685546875 105.68922424316406 361.4967346191406 105.44467163085938 361.3289794921875 105.25616455078125 C 361.14520263671875 105.0892333984375 360.7842712402344 105.10966491699219 360.7033996582031 105.345703125 L 360.4322814941406 105.23361206054688" stroke-width="0.6000000238418579" fill="rgb(159, 159, 159)" opacity="1.0"/>
    <path d="M 352.7713317871094 118.33087158203125 C 350.94287109375 118.751708984375 349.21875 119.80816650390625 348.2319641113281 121.40283203125 C 347.24517822265625 122.99749755859375 347.09552001953125 125.14602661132812 348.07611083984375 126.75381469726562 C 348.77081298828125 127.8896484375 349.9610290527344 128.6707305908203 351.2400207519531 129.04495239257812 C 352.5190124511719 129.419189453125 353.8829345703125 129.4169464111328 355.20355224609375 129.23695373535156 C 355.7782287597656 129.15829467773438 356.3753356933594 129.03419494628906 356.81744384765625 128.6610565185547 C 357.32452392578125 128.23350524902344 357.5350036621094 127.5584716796875 357.69140625 126.91183471679688 C 358.1330261230469 125.08624267578125 358.3116760253906 123.12344360351562 357.6602478027344 121.36152648925781 C 357.0088195800781 119.599609375 355.3556823730469 118.11131286621094 353.48187255859375 118.1177978515625 L 352.7713317871094 118.33087158203125" stroke-width="0.6000000238418579" fill="rgb(159, 159, 159)" opacity="1.0"/>
    <path d="M 364.8988952636719 106.44363403320312 C 363.5999755859375 106.57330322265625 362.16180419921875 106.773681640625 361.32659912109375 107.77359008789062 C 360.51300048828125 108.74484252929688 360.53790283203125 110.14639282226562 360.62823486328125 111.41073608398438 C 360.6656494140625 111.92431640625 360.7130126953125 112.46098327636719 360.98876953125 112.8955078125 C 361.4547424316406 113.63072204589844 362.4205627441406 113.85723876953125 363.289306640625 113.88359069824219 C 364.0956726074219 113.90835571289062 364.9013977050781 113.81723022460938 365.68182373046875 113.61296081542969 C 366.94915771484375 113.28175354003906 368.259033203125 112.49925231933594 368.5442199707031 111.22125244140625 C 368.69921875 110.53155517578125 368.521728515625 109.797119140625 368.1912841796875 109.17095947265625 C 367.86083984375 108.5447998046875 367.3839111328125 108.00930786132812 366.905517578125 107.48736572265625 C 366.4271240234375 106.96543884277344 365.9458923339844 106.46282958984375 365.3109130859375 106.18997192382812 L 364.8988952636719 106.44363403320312" stroke-width="0.6000000238418579" fill="rgb(218, 166, 20)" opacity="1.0"/>
    <path d="M 432.3623046875 161.38973999023438 C 430.1702880859375 161.50067138671875 428.483154296875 163.36758422851562 428.5941162109375 165.55963134765625 C 428.60357666015625 165.747314453125 428.6263427734375 165.93414306640625 428.662353515625 166.11859130859375 C 428.7989501953125 166.819580078125 429.15087890625 167.50750732421875 429.7462158203125 167.90130615234375 C 430.2493896484375 168.23410034179688 430.8714599609375 168.32772827148438 431.4737548828125 168.35247802734375 C 433.08612060546875 168.41644287109375 434.6861572265625 168.04754638671875 436.1077880859375 167.28411865234375 C 436.483154296875 167.0816650390625 436.85406494140625 166.8433837890625 437.1014404296875 166.49481201171875 C 437.51715087890625 165.909912109375 437.5076904296875 165.1083984375 437.27691650390625 164.42840576171875 C 436.93499755859375 163.4185791015625 436.15142822265625 162.5892333984375 435.21124267578125 162.0860595703125 C 434.2711181640625 161.5828857421875 433.1859130859375 161.38760375976562 432.12005615234375 161.41714477539062 L 432.3623046875 161.38973999023438" stroke-width="0.6000000238418579" fill="rgb(143, 165, 67)" opacity="1.0"/>
    <path d="M 140.55616760253906 414.98193359375 C 137.89071655273438 417.3238525390625 139.3184051513672 422.50164794921875 142.72850036621094 423.3956298828125 C 146.1385955810547 424.28961181640625 149.83245849609375 420.7606201171875 149.34950256347656 417.244384765625 C 148.86654663085938 413.7281494140625 144.73582458496094 411.3166198730469 141.34661865234375 412.38140869140625 L 140.55616760253906 414.98193359375" stroke-width="0.6000000238418579" fill="rgb(233, 92, 21)" opacity="1.0"/>
    <path d="M 433.10302734375 179.7989501953125 C 431.75592041015625 179.72943115234375 430.1395263671875 179.78610229492188 429.4320068359375 180.93994140625 C 429.16827392578125 181.41009521484375 429.0570068359375 181.95050048828125 429.1134033203125 182.486572265625 C 429.21734619140625 183.8167724609375 429.9595947265625 185.01406860351562 431.104736328125 185.69879150390625 C 432.07763671875 186.277099609375 433.23406982421875 186.40740966796875 434.3544921875 186.50738525390625 C 434.9840087890625 186.5625 435.654541015625 186.60104370117188 436.20654296875 186.30078125 C 436.93914794921875 185.89453125 437.24517822265625 185.0052490234375 437.3953857421875 184.181396484375 C 437.6168212890625 182.97601318359375 437.6416015625 181.74273681640625 437.4688720703125 180.5294189453125 C 437.4083251953125 180.11029052734375 437.31695556640625 179.67578125 437.0533447265625 179.34454345703125 C 436.79248046875 179.04916381835938 436.4512939453125 178.83602905273438 436.0714111328125 178.73117065429688 C 434.931396484375 178.3682861328125 433.6895751953125 178.52374267578125 432.6741943359375 179.156494140625 L 433.10302734375 179.7989501953125" stroke-width="0.6000000238418579" fill="rgb(70, 150, 179)" opacity="1.0"/>
    <path d="M 413.4385986328125 160.12017822265625 C 412.59710693359375 158.6488037109375 411.60260009765625 157.05322265625 409.97625732421875 156.57958984375 C 408.2289123535156 156.07183837890625 406.3429870605469 157.10684204101562 405.23626708984375 158.55117797851562 C 404.809326171875 159.10787963867188 404.45550537109375 159.75445556640625 404.4167785644531 160.45486450195312 C 404.384765625 161.0306396484375 404.5664978027344 161.59524536132812 404.7756652832031 162.13250732421875 C 405.4332275390625 163.8275146484375 406.4847106933594 165.50927734375 408.1543884277344 166.22781372070312 C 409.837646484375 166.9508056640625 411.96875 166.46282958984375 413.16265869140625 165.07119750976562 C 414.3565673828125 163.6795654296875 414.535400390625 161.50341796875 413.5714111328125 159.9422607421875 L 413.4385986328125 160.12017822265625" stroke-width="0.6000000238418579" fill="rgb(140, 28, 33)" opacity="1.0"/>
    <path d="M 147.0 115.0 C 146.5214080810547 115.3594970703125 146.02737426757812 115.73883056640625 145.7428741455078 116.26594543457031 C 145.4583740234375 116.79306030273438 145.4451446533203 117.51864624023438 145.8730010986328 117.93769836425781 C 146.40231323242188 118.45378112792969 147.36831665039062 118.23323059082031 147.81161499023438 117.63995361328125 C 148.25491333007812 117.04669189453125 148.27696228027344 116.23284912109375 148.12258911132812 115.50946044921875 C 148.09722900390625 115.28074645996094 147.98707580566406 115.06985473632812 147.81382751464844 114.91839599609375 C 147.62857055664062 114.78826904296875 147.30435180664062 114.84782409667969 147.25804138183594 115.07057189941406 L 147.0 115.0" stroke-width="0.6000000238418579" fill="rgb(159, 159, 159)" opacity="1.0"/>
    <path d="M 421.25604248046875 175.48602294921875 C 419.9578857421875 174.9114990234375 418.4345703125 174.76919555664062 417.11358642578125 175.28729248046875 C 415.7926025390625 175.80538940429688 414.7274169921875 177.03863525390625 414.5919189453125 178.45709228515625 C 414.4974365234375 179.4600830078125 414.8638916015625 180.47296142578125 415.46875 181.27975463867188 C 416.073486328125 182.0865478515625 416.9005126953125 182.703857421875 417.78192138671875 183.19390869140625 C 418.16558837890625 183.406982421875 418.58349609375 183.6026611328125 419.0205078125 183.57720947265625 C 419.521484375 183.54830932617188 419.9552001953125 183.2349853515625 420.34326171875 182.91436767578125 C 421.438720703125 182.00912475585938 422.437255859375 180.9014892578125 422.842041015625 179.53900146484375 C 423.2467041015625 178.176513671875 422.920654296875 176.52532958984375 421.782958984375 175.6793212890625 L 421.25604248046875 175.48602294921875" stroke-width="0.6000000238418579" fill="rgb(159, 159, 159)" opacity="1.0"/>
    <path d="M 411.9931945800781 182.55145263671875 C 410.9298095703125 181.16632080078125 409.68780517578125 179.67279052734375 407.96221923828125 179.42849731445312 C 406.2843933105469 179.18856811523438 404.708740234375 180.20526123046875 403.3351745605469 181.19952392578125 C 402.7778015136719 181.604248046875 402.20111083984375 182.03656005859375 401.901611328125 182.65643310546875 C 401.39447021484375 183.70458984375 401.8180847167969 184.96221923828125 402.4007568359375 185.9683837890625 C 402.94122314453125 186.9024658203125 403.613037109375 187.75408935546875 404.3955993652344 188.4971923828125 C 405.6658020019531 189.70428466796875 407.4790344238281 190.6414794921875 409.1329040527344 190.064453125 C 410.0262451171875 189.75421142578125 410.7359313964844 189.0345458984375 411.2146911621094 188.21734619140625 C 411.6934509277344 187.400146484375 411.9658508300781 186.4803466796875 412.2218017578125 185.5684814453125 C 412.477783203125 184.6566162109375 412.709716796875 183.75515747070312 412.5721435546875 182.84091186523438 L 411.9931945800781 182.55145263671875" stroke-width="0.6000000238418579" fill="rgb(218, 166, 20)" opacity="1.0"/>
    <path d="M 445.416259765625 179.3516845703125 C 443.36572265625 181.51104736328125 443.453857421875 184.92385864257812 445.61328125 186.97442626953125 C 445.79815673828125 187.1500244140625 445.99530029296875 187.312255859375 446.203125 187.4599609375 C 446.9931640625 188.02102661132812 447.982421875 188.36798095703125 448.9359130859375 188.19805908203125 C 449.74163818359375 188.0545654296875 450.44061279296875 187.564697265625 451.0556640625 187.02560424804688 C 452.7000732421875 185.58038330078125 453.9276123046875 183.72119140625 454.610595703125 181.6412353515625 C 454.7901611328125 181.09112548828125 454.9317626953125 180.51004028320312 454.848876953125 179.93606567382812 C 454.7103271484375 178.972412109375 453.9512939453125 178.19354248046875 453.0885009765625 177.7410888671875 C 451.8079833984375 177.0684814453125 450.2620849609375 176.986328125 448.867431640625 177.3712158203125 C 447.47283935546875 177.75613403320312 446.22369384765625 178.5792236328125 445.203857421875 179.605224609375 L 445.416259765625 179.3516845703125" stroke-width="0.6000000238418579" fill="rgb(143, 165, 67)" opacity="1.0"/>
    <path d="M 143.68719482421875 109.92437744140625 C 137.53411865234375 112.68391418457031 137.22532653808594 122.88717651367188 142.91734313964844 126.42170715332031 C 148.60935974121094 129.9562225341797 157.2952880859375 125.61734008789062 158.388671875 118.9609375 C 159.4820556640625 112.30455017089844 153.33175659179688 105.61018371582031 146.5800018310547 105.6446533203125 L 143.68719482421875 109.92437744140625" stroke-width="0.6000000238418579" fill="rgb(233, 92, 21)" opacity="1.0"/>
    <path d="M 445.72418212890625 151.06915283203125 C 443.59130859375 153.1493377685547 441.25927734375 155.8553924560547 442.06927490234375 158.7330322265625 C 442.43621826171875 159.86566162109375 443.1455078125 160.8565673828125 444.0994873046875 161.5689697265625 C 446.412353515625 163.3951416015625 449.466796875 163.98699951171875 452.29443359375 163.1568603515625 C 454.691162109375 162.44656372070312 456.6365966796875 160.7667236328125 458.4788818359375 159.09979248046875 C 459.51226806640625 158.1617431640625 460.580322265625 157.13214111328125 460.9212646484375 155.78671264648438 C 461.36102294921875 153.98960876464844 460.3779296875 152.15975952148438 459.267333984375 150.68077087402344 C 457.64471435546875 148.51422119140625 455.68206787109375 146.62460327148438 453.45556640625 145.085205078125 C 452.685302734375 144.55479431152344 451.84356689453125 144.05136108398438 450.91119384765625 143.98216247558594 C 450.041015625 143.96217346191406 449.1837158203125 144.19581604003906 448.44403076171875 144.65460205078125 C 446.14599609375 145.95899963378906 444.535888671875 148.20579528808594 444.039306640625 150.8011016845703 L 445.72418212890625 151.06915283203125" stroke-width="0.6000000238418579" fill="rgb(70, 150, 179)" opacity="1.0"/>
    <path d="M 377.3197021484375 84.762451171875 C 376.14593505859375 82.11642456054688 374.7337951660156 79.23281860351562 372.0531311035156 78.14541625976562 C 369.17279052734375 76.97903442382812 365.78887939453125 78.40948486328125 363.65753173828125 80.67088317871094 C 362.8354187011719 81.54241943359375 362.12188720703125 82.57937622070312 361.93438720703125 83.76258850097656 C 361.7798767089844 84.73519897460938 361.9904479980469 85.72601318359375 362.2524108886719 86.67510986328125 C 363.0748596191406 89.66909790039062 364.5688781738281 92.70907592773438 367.2805480957031 94.22006225585938 C 370.0145568847656 95.74102783203125 373.7199401855469 95.28244018554688 375.9902038574219 93.12579345703125 C 378.260498046875 90.9691162109375 378.94268798828125 87.30308532714844 377.57623291015625 84.48330688476562 L 377.3197021484375 84.762451171875" stroke-width="0.6000000238418579" fill="rgb(140, 28, 33)" opacity="1.0"/>
    <path d="M 126.85023498535156 408.3999938964844 C 125.34423828125 408.8782043457031 123.78244018554688 409.3924560546875 122.61376953125 410.4576110839844 C 121.44512939453125 411.52276611328125 120.77923583984375 413.319091796875 121.47976684570312 414.73638916015625 C 122.34840393066406 416.48388671875 124.9476318359375 416.77703857421875 126.56964111328125 415.685546875 C 128.19166564941406 414.59405517578125 128.95648193359375 412.5855712890625 129.2028350830078 410.6485595703125 C 129.33917236328125 410.05657958984375 129.24864196777344 409.4350280761719 128.94911193847656 408.90655517578125 C 128.6010284423828 408.4207458496094 127.74130249023438 408.28631591796875 127.43159484863281 408.8009033203125 L 126.85023498535156 408.3999938964844" stroke-width="0.6000000238418579" fill="rgb(159, 159, 159)" opacity="1.0"/>
    <path d="M 413.49560546875 202.93646240234375 C 411.2596740722656 200.60543823242188 408.1763916015625 198.98968505859375 404.94842529296875 198.93878173828125 C 401.720458984375 198.88787841796875 398.4128112792969 200.56317138671875 396.90203857421875 203.431640625 C 395.8364562988281 205.46102905273438 395.73260498046875 207.90963745117188 396.3084411621094 210.13031005859375 C 396.88427734375 212.35101318359375 398.09149169921875 214.36492919921875 399.5232238769531 216.157958984375 C 400.146728515625 216.93789672851562 400.8572082519531 217.71087646484375 401.7989501953125 218.03494262695312 C 402.87847900390625 218.40701293945312 404.06195068359375 218.12225341796875 405.15576171875 217.78268432617188 C 408.2438049316406 216.823974609375 411.30255126953125 215.35546875 413.3316650390625 212.83746337890625 C 415.36083984375 210.31939697265625 416.101318359375 206.56234741210938 414.437744140625 203.79855346679688 L 413.49560546875 202.93646240234375" stroke-width="0.6000000238418579" fill="rgb(159, 159, 159)" opacity="1.0"/>
    <path d="M 386.05743408203125 115.12774658203125 C 383.1561584472656 115.84182739257812 379.96221923828125 116.76126098632812 378.3932800292969 119.29718017578125 C 376.864013671875 121.76119995117188 377.37396240234375 124.92890930175781 377.9877014160156 127.76457214355469 C 378.2387390136719 128.91615295410156 378.5196838378906 130.11688232421875 379.2851257324219 131.01226806640625 C 380.5788269042969 132.52740478515625 382.8406066894531 132.7281494140625 384.817626953125 132.5067596435547 C 386.6527404785156 132.30198669433594 388.4489440917969 131.8347625732422 390.1512451171875 131.11940002441406 C 392.9157409667969 129.95884704589844 395.6305847167969 127.76193237304688 395.8633117675781 124.77384948730469 C 395.9913024902344 123.16087341308594 395.35150146484375 121.55415344238281 394.400146484375 120.24224853515625 C 393.44879150390625 118.93035888671875 392.19482421875 117.87130737304688 390.94195556640625 116.84346008300781 C 389.6891174316406 115.81559753417969 388.43603515625 114.83245849609375 386.908935546875 114.41963195800781 L 386.05743408203125 115.12774658203125" stroke-width="0.6000000238418579" fill="rgb(218, 166, 20)" opacity="1.0"/>
    <path d="M 401.3416748046875 85.77560424804688 C 397.4234313964844 83.117431640625 392.0921936035156 84.138916015625 389.43402099609375 88.05715942382812 C 389.2064208984375 88.39266967773438 389.00286865234375 88.74392700195312 388.824951171875 89.10824584960938 C 388.1492004394531 90.49273681640625 387.86090087890625 92.13456726074219 388.3741760253906 93.58636474609375 C 388.80780029296875 94.81327819824219 389.7572021484375 95.78309631347656 390.7620544433594 96.60855102539062 C 393.454833984375 98.81434631347656 396.68914794921875 100.2589111328125 400.12896728515625 100.79216003417969 C 401.0384521484375 100.93157958984375 401.9867248535156 101.00341796875 402.86572265625 100.724853515625 C 404.3416748046875 100.25808715820312 405.36712646484375 98.86578369140625 405.8536682128906 97.39508056640625 C 406.5775146484375 95.21212768554688 406.3064270019531 92.76571655273438 405.3416748046875 90.67742919921875 C 404.3769836425781 88.58914184570312 402.762451171875 86.8424072265625 400.88897705078125 85.50794982910156 L 401.3416748046875 85.77560424804688" stroke-width="0.6000000238418579" fill="rgb(143, 165, 67)" opacity="1.0"/>
    <path d="M 117.09234619140625 420.2127685546875 C 112.64595031738281 415.3221435546875 103.04707336425781 418.14495849609375 101.48971557617188 424.5247802734375 C 99.932373046875 430.9046630859375 106.62214660644531 437.6732177734375 113.15615844726562 436.66259765625 C 119.690185546875 435.65185546875 124.05133056640625 427.8818359375 121.9609375 421.60284423828125 L 117.09234619140625 420.2127685546875" stroke-width="0.6000000238418579" fill="rgb(233, 92, 21)" opacity="1.0"/>
    <path d="M 441.93505859375 195.86691284179688 C 439.79583740234375 198.0201416015625 437.4637451171875 200.81414794921875 438.3350830078125 203.732421875 C 438.72705078125 204.88031005859375 439.465576171875 205.87826538085938 440.44873046875 206.588623046875 C 442.83404541015625 208.4117431640625 445.95501708984375 208.965576171875 448.822021484375 208.07455444335938 C 451.25201416015625 207.3125 453.206787109375 205.570068359375 455.056640625 203.84246826171875 C 456.09423828125 202.87030029296875 457.1656494140625 201.80438232421875 457.49139404296875 200.4283447265625 C 457.9105224609375 198.5906982421875 456.87969970703125 196.74249267578125 455.724609375 195.2537841796875 C 454.036865234375 193.0728759765625 452.00732421875 191.17953491210938 449.714599609375 189.64715576171875 C 448.92138671875 189.1192626953125 448.055908203125 188.61993408203125 447.10498046875 188.564453125 C 446.21826171875 188.55804443359375 445.3487548828125 188.809814453125 444.6026611328125 189.2890625 C 442.28271484375 190.6546630859375 440.6787109375 192.96923828125 440.2144775390625 195.62091064453125 L 441.93505859375 195.86691284179688" stroke-width="0.6000000238418579" fill="rgb(70, 150, 179)" opacity="1.0"/>
    <path d="M 416.09307861328125 135.74876403808594 C 414.7318115234375 132.9174346923828 413.10400390625 129.83628845214844 410.1598815917969 128.74583435058594 C 406.9965515136719 127.57635498046875 403.373291015625 129.24063110351562 401.1364440917969 131.7646484375 C 400.27362060546875 132.7374267578125 399.5340881347656 133.88601684570312 399.3700256347656 135.17579650878906 C 399.2347412109375 136.23602294921875 399.4961242675781 137.3038330078125 399.8118591308594 138.32469177246094 C 400.8036193847656 141.545166015625 402.5254211425781 144.79322814941406 405.5172424316406 146.34214782714844 C 408.5336608886719 147.90113830566406 412.5379638671875 147.28045654296875 414.928955078125 144.8654327392578 C 417.320068359375 142.45040893554688 417.9381103515625 138.4508514404297 416.362060546875 135.4374237060547 L 416.09307861328125 135.74876403808594" stroke-width="0.6000000238418579" fill="rgb(140, 28, 33)" opacity="1.0"/>
    <path d="M 405.0478210449219 84.91258239746094 C 404.9576110839844 86.54692077636719 404.88177490234375 88.24853515625 405.4840087890625 89.77182006835938 C 406.0862121582031 91.29507446289062 407.58135986328125 92.60008239746094 409.2114562988281 92.4423828125 C 411.22320556640625 92.24322509765625 412.462158203125 89.83348083496094 412.00103759765625 87.86141967773438 C 411.5398864746094 85.88937377929688 409.87567138671875 84.41061401367188 408.0901184082031 83.46025085449219 C 407.5668640136719 83.11068725585938 406.93157958984375 82.969970703125 406.3096618652344 83.06588745117188 C 405.71124267578125 83.22450256347656 405.26513671875 84.00778198242188 405.6497497558594 84.496826171875 L 405.0478210449219 84.91258239746094" stroke-width="0.6000000238418579" fill="rgb(159, 159, 159)" opacity="1.0"/>
    <path d="M 439.06036376953125 231.10247802734375 C 436.83074951171875 233.4896240234375 435.37042236328125 236.69265747070312 435.4981689453125 239.95489501953125 C 435.6259765625 243.21710205078125 437.501220703125 246.46395874023438 440.4814453125 247.83026123046875 C 442.58978271484375 248.7935791015625 445.0679931640625 248.76251220703125 447.2783203125 248.05780029296875 C 449.48870849609375 247.35308837890625 451.4552001953125 246.02227783203125 453.186279296875 244.47711181640625 C 453.939208984375 243.80419921875 454.68023681640625 243.04391479492188 454.9552001953125 242.07501220703125 C 455.27099609375 240.96432495117188 454.917724609375 239.78509521484375 454.51416015625 238.69949340820312 C 453.3746337890625 235.63458251953125 451.7220458984375 232.6275634765625 449.06689453125 230.71844482421875 C 446.4117431640625 228.809326171875 442.576904296875 228.2701416015625 439.8785400390625 230.10333251953125 L 439.06036376953125 231.10247802734375" stroke-width="0.6000000238418579" fill="rgb(159, 159, 159)" opacity="1.0"/>
    <path d="M 412.103759765625 257.9649353027344 C 409.9202575683594 255.74688720703125 407.3970947265625 253.37603759765625 404.29119873046875 253.3206787109375 C 401.2707824707031 253.2625732421875 398.70550537109375 255.40509033203125 396.4927978515625 257.4638366699219 C 395.59515380859375 258.3014831542969 394.66943359375 259.1921081542969 394.27496337890625 260.3540954589844 C 393.606689453125 262.3189392089844 394.630615234375 264.4512023925781 395.88104248046875 266.10382080078125 C 397.04107666015625 267.6381530761719 398.4154052734375 268.99798583984375 399.96197509765625 270.1416931152344 C 402.4725341796875 271.9996337890625 405.88470458984375 273.2615966796875 408.68438720703125 271.8797302246094 C 410.1969299316406 271.13592529296875 411.29522705078125 269.7078857421875 411.9637145996094 268.1577453613281 C 412.6322021484375 266.6076354980469 412.9132080078125 264.92108154296875 413.1668701171875 263.25213623046875 C 413.42059326171875 261.58319091796875 413.63409423828125 259.9378356933594 413.1910400390625 258.3506164550781 L 412.103759765625 257.9649353027344" stroke-width="0.6000000238418579" fill="rgb(218, 166, 20)" opacity="1.0"/>
    <path d="M 411.4120178222656 87.36647033691406 C 408.1496887207031 91.00714111328125 408.4563903808594 96.60311889648438 412.0970458984375 99.86546325683594 C 412.4088134765625 100.14480590820312 412.739990234375 100.40170288085938 413.08807373046875 100.63418579101562 C 414.4110107421875 101.51734924316406 416.05084228515625 102.03970336914062 417.6072998046875 101.71566772460938 C 418.92266845703125 101.44194030761719 420.04638671875 100.60491943359375 421.03009033203125 99.69114685058594 C 423.659912109375 97.24160766601562 425.5858154296875 94.13258361816406 426.6077880859375 90.68707275390625 C 426.87646484375 89.77587890625 427.081298828125 88.81562805175781 426.91802978515625 87.87771606445312 C 426.6448974609375 86.30300903320312 425.3624267578125 85.06100463867188 423.92510986328125 84.35951232910156 C 421.79193115234375 83.31657409667969 419.25140380859375 83.25509643554688 416.981201171875 83.952880859375 C 414.71099853515625 84.65068054199219 412.7003173828125 86.06060791015625 411.0754699707031 87.79257202148438 L 411.4120178222656 87.36647033691406" stroke-width="0.6000000238418579" fill="rgb(143, 165, 67)" opacity="1.0"/>
    <path d="M 439.2783203125 128.1051483154297 C 435.41644287109375 132.98109436035156 439.504150390625 141.4629364013672 445.6661376953125 141.93429565429688 C 451.828125 142.4056396484375 457.091064453125 135.15966796875 455.154296875 129.24685668945312 C 453.217529296875 123.33406066894531 445.3363037109375 120.47160339355469 439.82525634765625 123.37197875976562 L 439.2783203125 128.1051483154297" stroke-width="0.6000000238418579" fill="rgb(233, 92, 21)" opacity="1.0"/>
    <path d="M 440.18060302734375 98.83854675292969 C 438.316650390625 101.10353088378906 436.3250732421875 104.00244140625 437.427001953125 106.731689453125 C 437.9078369140625 107.80075073242188 438.70849609375 108.69430541992188 439.7186279296875 109.28903198242188 C 442.1783447265625 110.82777404785156 445.2313232421875 111.078857421875 447.909423828125 109.962646484375 C 450.1787109375 109.00997924804688 451.9022216796875 107.15693664550781 453.526123046875 105.32760620117188 C 454.43670654296875 104.29853820800781 455.371337890625 103.17617797851562 455.56048583984375 101.82278442382812 C 455.7978515625 100.01675415039062 454.63909912109375 98.33154296875 453.393310546875 97.00341796875 C 451.57244873046875 95.05738830566406 449.44866943359375 93.41891479492188 447.104248046875 92.15155029296875 C 446.2933349609375 91.7152099609375 445.41552734375 91.31294250488281 444.49560546875 91.34539794921875 C 443.641845703125 91.4193115234375 442.82794189453125 91.74008178710938 442.1533203125 92.2685546875 C 440.04443359375 93.79202270507812 438.7100830078125 96.16390991210938 438.50286865234375 98.75723266601562 L 440.18060302734375 98.83854675292969" stroke-width="0.6000000238418579" fill="rgb(70, 150, 179)" opacity="1.0"/>
    <path d="M 313.6030578613281 388.437255859375 C 310.97003173828125 388.32525634765625 308.0468444824219 388.31170654296875 306.0762023925781 390.05902099609375 C 303.96044921875 391.9372863769531 303.75958251953125 395.2760009765625 304.7428894042969 397.92877197265625 C 305.12158203125 398.9517517089844 305.6791076660156 399.9529724121094 306.5685729980469 400.5841979980469 C 307.299560546875 401.1033935546875 308.19293212890625 401.33209228515625 309.0730895996094 401.50201416015625 C 311.84796142578125 402.041259765625 314.93182373046875 402.0512390136719 317.26055908203125 400.4498596191406 C 319.6064147949219 398.83428955078125 320.73004150390625 395.6261291503906 319.8883361816406 392.90234375 C 319.046630859375 390.1785583496094 316.3316955566406 388.14019775390625 313.4790344238281 388.1151428222656 L 313.6030578613281 388.437255859375" stroke-width="0.6000000238418579" fill="rgb(140, 28, 33)" opacity="1.0"/>
    <path d="M 311.0 391.0 C 309.25811767578125 392.30841064453125 307.46002197265625 393.6890869140625 306.4245300292969 395.6075744628906 C 305.3890380859375 397.52606201171875 305.34088134765625 400.1669921875 306.89813232421875 401.692138671875 C 308.8246154785156 403.57049560546875 312.34051513671875 402.76776123046875 313.9539794921875 400.60845947265625 C 315.56744384765625 398.44915771484375 315.647705078125 395.4871520996094 315.0858154296875 392.8542785644531 C 314.9935302734375 392.0218200683594 314.5925598144531 391.2542419433594 313.9620056152344 390.7029724121094 C 313.2877502441406 390.2293701171875 312.1077575683594 390.4461364746094 311.93914794921875 391.2568359375 L 311.0 391.0" stroke-width="0.6000000238418579" fill="rgb(159, 159, 159)" opacity="1.0"/>
    <path d="M 325.9106140136719 403.1720886230469 C 322.7711486816406 404.7620544433594 320.1080322265625 407.4622802734375 319.0298156738281 410.8102111816406 C 317.95159912109375 414.158203125 318.6470947265625 418.13739013671875 321.15673828125 420.6229248046875 C 322.9333190917969 422.3779296875 325.4522399902344 423.2637939453125 327.949462890625 423.36895751953125 C 330.44671630859375 423.47412109375 332.928955078125 422.85552978515625 335.2523193359375 421.932861328125 C 336.26318359375 421.53076171875 337.2944030761719 421.0357666015625 337.9312438964844 420.1572265625 C 338.6618347167969 419.150390625 338.7409362792969 417.8265380859375 338.73443603515625 416.5787353515625 C 338.71600341796875 413.055908203125 338.156982421875 409.4018249511719 336.1771545410156 406.4873962402344 C 334.1973571777344 403.5729675292969 330.5169677734375 401.6080322265625 327.1082763671875 402.4640197753906 L 325.9106140136719 403.1720886230469" stroke-width="0.6000000238418579" fill="rgb(159, 159, 159)" opacity="1.0"/>
    <path d="M 269.56854248046875 406.43255615234375 C 266.6152038574219 408.0341491699219 263.4018249511719 409.9423522949219 262.41583251953125 413.147216796875 C 261.45257568359375 416.2625732421875 262.9078674316406 419.5638427734375 264.38165283203125 422.474365234375 C 264.9820861816406 423.65576171875 265.62908935546875 424.8822021484375 266.7163391113281 425.63873291015625 C 268.55450439453125 426.9193115234375 271.0721740722656 426.4947509765625 273.16009521484375 425.69189453125 C 275.09832763671875 424.94744873046875 276.91961669921875 423.92852783203125 278.5682067871094 422.6663818359375 C 281.245849609375 420.617919921875 283.5748291015625 417.45611572265625 282.9786071777344 414.13916015625 C 282.6593322753906 412.3480224609375 281.50653076171875 410.78192138671875 280.0986022949219 409.6251220703125 C 278.690673828125 408.46832275390625 277.0254211425781 407.6726379394531 275.3702392578125 406.91058349609375 C 273.7150573730469 406.14849853515625 272.07232666015625 405.4351501464844 270.2936096191406 405.42010498046875 L 269.56854248046875 406.43255615234375" stroke-width="0.6000000238418579" fill="rgb(218, 166, 20)" opacity="1.0"/>
    <path d="M 224.8916015625 408.4772033691406 C 219.15576171875 406.76885986328125 213.12103271484375 410.0338439941406 211.4127197265625 415.7696533203125 C 211.26641845703125 416.2608642578125 211.1551513671875 416.76177978515625 211.07977294921875 417.2686767578125 C 210.79364013671875 419.19488525390625 211.0726318359375 421.28338623046875 212.24505615234375 422.8370361328125 C 213.23568725585938 424.150146484375 214.74978637695312 424.95654296875 216.275634765625 425.56787109375 C 220.3621826171875 427.1986083984375 224.81082153320312 427.7054443359375 229.15945434570312 427.03564453125 C 230.30862426757812 426.856689453125 231.478759765625 426.5814208984375 232.43170166015625 425.910400390625 C 234.0322265625 424.7847900390625 234.73675537109375 422.7158203125 234.76193237304688 420.75787353515625 C 234.80136108398438 417.85113525390625 233.54132080078125 415.0064697265625 231.58203125 412.8580322265625 C 229.62274169921875 410.7096252441406 227.0107421875 409.220703125 224.24395751953125 408.3273620605469 L 224.8916015625 408.4772033691406" stroke-width="0.6000000238418579" fill="rgb(143, 165, 67)" opacity="1.0"/>
    <path d="M 284.1724548339844 374.4935607910156 C 281.8572082519531 381.1104736328125 289.3380126953125 388.6368103027344 296.0745544433594 386.86688232421875 C 302.8110656738281 385.0969543457031 305.7447204589844 375.43927001953125 301.5019226074219 369.85601806640625 C 297.2591552734375 364.27276611328125 287.8099365234375 364.1299743652344 283.00982666015625 369.25091552734375 L 284.1724548339844 374.4935607910156" stroke-width="0.6000000238418579" fill="rgb(233, 92, 21)" opacity="1.0"/>
    <path d="M 338.49285888671875 372.2550048828125 C 336.75006103515625 374.9638366699219 334.94915771484375 378.3803405761719 336.5003356933594 381.2158203125 C 337.16156005859375 382.3201904296875 338.149169921875 383.1921691894531 339.32696533203125 383.71142578125 C 342.2065734863281 385.0746765136719 345.5682678222656 384.9576416015625 348.3460693359375 383.3974304199219 C 350.69903564453125 382.06793212890625 352.3414611816406 379.8263244628906 353.8782958984375 377.6233825683594 C 354.7395935058594 376.3844909667969 355.615234375 375.040771484375 355.6482238769531 373.5405578613281 C 355.6758117675781 371.5404968261719 354.1963806152344 369.8509826660156 352.66766357421875 368.56201171875 C 350.4327087402344 366.67279052734375 347.90673828125 365.15777587890625 345.1876525878906 364.07574462890625 C 344.2474670410156 363.70367431640625 343.23858642578125 363.3773498535156 342.2394714355469 363.530517578125 C 341.3177795410156 363.720458984375 340.47125244140625 364.1744689941406 339.8031311035156 364.83721923828125 C 337.6982727050781 366.7687072753906 336.5466613769531 369.52630615234375 336.6527099609375 372.381103515625 L 338.49285888671875 372.2550048828125" stroke-width="0.6000000238418579" fill="rgb(70, 150, 179)" opacity="1.0"/>
    <path d="M 297.7979431152344 406.0790100097656 C 294.3984069824219 406.8255615234375 290.6616516113281 407.7957763671875 288.7359924316406 410.6923522949219 C 286.6692199707031 413.80517578125 287.54071044921875 418.1357421875 289.6923522949219 421.1904296875 C 290.52142333984375 422.36859130859375 291.5714416503906 423.45855712890625 292.9203186035156 423.9639892578125 C 294.02899169921875 424.3798828125 295.24688720703125 424.37005615234375 296.4280090332031 424.2896728515625 C 300.1529846191406 424.040771484375 304.0936584472656 423.01165771484375 306.52581787109375 420.180419921875 C 308.9751281738281 417.3251953125 309.3258972167969 412.849609375 307.3310852050781 409.6564025878906 C 305.33624267578125 406.46319580078125 301.18133544921875 404.7779235839844 297.5307922363281 405.70965576171875 L 297.7979431152344 406.0790100097656" stroke-width="0.6000000238418579" fill="rgb(140, 28, 33)" opacity="1.0"/>
    <path d="M 335.5032958984375 392.0201110839844 C 333.52203369140625 392.95440673828125 331.4707336425781 393.9484558105469 330.06103515625 395.62713623046875 C 328.6513671875 397.3057861328125 328.06707763671875 399.8965759277344 329.2904968261719 401.7149963378906 C 330.8056945800781 403.9562683105469 334.4310302734375 403.8805847167969 336.4588317871094 402.082275390625 C 338.4866027832031 400.2839660644531 339.16778564453125 397.383544921875 339.14971923828125 394.6766662597656 C 339.22808837890625 393.8381652832031 338.9892883300781 393.00079345703125 338.4804382324219 392.32977294921875 C 337.9127502441406 391.7263488769531 336.70672607421875 391.69989013671875 336.3758850097656 392.4639587402344 L 335.5032958984375 392.0201110839844" stroke-width="0.6000000238418579" fill="rgb(159, 159, 159)" opacity="1.0"/>
    <path d="M 350.16510009765625 400.4994201660156 C 346.7178649902344 401.199462890625 343.43536376953125 403.0958251953125 341.5086364746094 406.03662109375 C 339.5818786621094 408.9774169921875 339.197265625 412.996826171875 340.95703125 416.0576171875 C 342.2039489746094 418.2200927734375 344.3967590332031 419.74169921875 346.775634765625 420.50506591796875 C 349.1545104980469 421.2684326171875 351.7108154296875 421.33038330078125 354.19464111328125 421.05712890625 C 355.27545166015625 420.9375 356.4005432128906 420.73388671875 357.2472229003906 420.0560302734375 C 358.2182922363281 419.279296875 358.6454772949219 418.0244140625 358.97003173828125 416.820068359375 C 359.88616943359375 413.4200439453125 360.316162109375 409.7500915527344 359.1807556152344 406.4164123535156 C 358.0453186035156 403.08270263671875 355.01922607421875 400.2132263183594 351.507080078125 400.134521484375 L 350.16510009765625 400.4994201660156" stroke-width="0.6000000238418579" fill="rgb(159, 159, 159)" opacity="1.0"/>
    <path d="M 262.82489013671875 377.79888916015625 C 261.42987060546875 374.9236755371094 259.7546691894531 371.78814697265625 256.75164794921875 370.7135314941406 C 253.8326416015625 369.6643371582031 250.63311767578125 370.90533447265625 247.80410766601562 372.1807556152344 C 246.65560913085938 372.7005615234375 245.46240234375 373.2626647949219 244.69680786132812 374.2633361816406 C 243.40097045898438 375.9549865722656 243.69622802734375 378.36566162109375 244.36944580078125 380.3841857910156 C 244.99356079101562 382.25799560546875 245.88351440429688 384.0324401855469 247.01205444335938 385.65325927734375 C 248.843505859375 388.2856750488281 251.7479248046875 390.6346740722656 254.92547607421875 390.21063232421875 C 256.6412658691406 389.98419189453125 258.178955078125 388.9560546875 259.3387145996094 387.6678771972656 C 260.4984436035156 386.37969970703125 261.3260803222656 384.83148193359375 262.1213684082031 383.2913818359375 C 262.9166564941406 381.7513122558594 263.66510009765625 380.2209777832031 263.75579833984375 378.5314025878906 L 262.82489013671875 377.79888916015625" stroke-width="0.6000000238418579" fill="rgb(218, 166, 20)" opacity="1.0"/>
    <path d="M 260.9882507324219 395.95037841796875 C 256.18536376953125 393.3863830566406 250.21328735351562 395.20135498046875 247.6492919921875 400.0042419433594 C 247.42971801757812 400.41552734375 247.2396240234375 400.84185791015625 247.08038330078125 401.280029296875 C 246.47567749023438 402.94512939453125 246.34527587890625 404.85748291015625 247.10833740234375 406.45526123046875 C 247.7530517578125 407.8055725097656 248.95635986328125 408.7992858886719 250.20553588867188 409.6212158203125 C 253.55230712890625 411.816650390625 257.4259033203125 413.075927734375 261.42388916015625 413.268310546875 C 262.48077392578125 413.31732177734375 263.57379150390625 413.284423828125 264.5450744628906 412.85919189453125 C 266.17608642578125 412.1463623046875 267.1796875 410.4299011230469 267.55755615234375 408.6891784667969 C 268.1203308105469 406.105224609375 267.5134582519531 403.34075927734375 266.15692138671875 401.0699768066406 C 264.8003845214844 398.7991638183594 262.7423095703125 396.997802734375 260.4381408691406 395.6992492675781 L 260.9882507324219 395.95037841796875" stroke-width="0.6000000238418579" fill="rgb(143, 165, 67)" opacity="1.0"/>
    <path d="M 209.58795166015625 377.4407653808594 C 205.75552368164062 383.5365905761719 211.52392578125 392.78460693359375 218.67434692382812 392.55389404296875 C 225.82473754882812 392.3231201171875 230.97216796875 383.3240661621094 228.00140380859375 376.7626037597656 C 225.0306396484375 370.2011413574219 215.60171508789062 367.8959045410156 209.62347412109375 371.9252014160156 L 209.58795166015625 377.4407653808594" stroke-width="0.6000000238418579" fill="rgb(233, 92, 21)" opacity="1.0"/>
    <path d="M 266.8978576660156 375.95654296875 C 264.9908447265625 378.6421813964844 262.9914245605469 382.04803466796875 264.4433898925781 385.01708984375 C 265.06719970703125 386.1761474609375 266.0353088378906 387.11309814453125 267.21417236328125 387.6986083984375 C 270.0920104980469 389.22589111328125 273.53155517578125 389.2635498046875 276.442138671875 387.7996520996094 C 278.90789794921875 386.5515441894531 280.6905212402344 384.3385009765625 282.36346435546875 382.15997314453125 C 283.3012390136719 380.9346923828125 284.2585754394531 379.60302734375 284.3624267578125 378.072021484375 C 284.4841613769531 376.03021240234375 283.0518798828125 374.2351379394531 281.550537109375 372.846923828125 C 279.3558044433594 370.8125305175781 276.8462829589844 369.1467590332031 274.1192932128906 367.9142761230469 C 273.1762390136719 367.490234375 272.160888671875 367.1097106933594 271.13311767578125 367.2194519042969 C 270.1827087402344 367.370361328125 269.2967224121094 367.7945861816406 268.5832214355469 368.4403381347656 C 266.34271240234375 370.3149719238281 265.037353515625 373.0780944824219 265.01220703125 375.9992980957031 L 266.8978576660156 375.95654296875" stroke-width="0.6000000238418579" fill="rgb(70, 150, 179)" opacity="1.0"/>
    <path d="M 332.42047119140625 372.05279541015625 C 331.3745422363281 368.8363037109375 330.0801696777344 365.31500244140625 327.09539794921875 363.728759765625 C 323.8880920410156 362.02667236328125 319.7831115722656 363.28216552734375 317.03399658203125 365.654052734375 C 315.9736633300781 366.568115234375 315.0196533203125 367.68743896484375 314.6593933105469 369.0400695800781 C 314.36279296875 370.1518859863281 314.4883728027344 371.3287658691406 314.67864990234375 372.4633483886719 C 315.2744140625 376.0419921875 316.6451416015625 379.7548828125 319.614990234375 381.8371887207031 C 322.6095886230469 383.93377685546875 326.97125244140625 383.84649658203125 329.8692932128906 381.613037109375 C 332.7673034667969 379.37957763671875 334.0011291503906 375.2008361816406 332.752197265625 371.75921630859375 L 332.42047119140625 372.05279541015625" stroke-width="0.6000000238418579" fill="rgb(140, 28, 33)" opacity="1.0"/>
    <path d="M 351.88055419921875 390.2104187011719 C 350.0497131347656 391.3912353515625 348.15765380859375 392.64013671875 346.9878845214844 394.47991943359375 C 345.818115234375 396.3196716308594 345.5816650390625 398.95050048828125 347.02618408203125 400.5829162597656 C 348.81378173828125 402.5939636230469 352.3780822753906 402.04412841796875 354.14154052734375 400.0054016113281 C 355.9049987792969 397.9666748046875 356.1963806152344 395.0178527832031 355.8237609863281 392.3515319824219 C 355.7911071777344 391.51458740234375 355.4459228515625 390.7203369140625 354.8562927246094 390.12548828125 C 354.2174987792969 389.60498046875 353.0250244140625 389.7369689941406 352.79901123046875 390.53363037109375 L 351.88055419921875 390.2104187011719" stroke-width="0.6000000238418579" fill="rgb(159, 159, 159)" opacity="1.0"/>
    <path d="M 187.96343994140625 402.0726013183594 C 184.3172607421875 402.67242431640625 180.797119140625 404.5345458984375 178.6593017578125 407.54620361328125 C 176.52142333984375 410.5578308105469 175.960205078125 414.76220703125 177.6876220703125 418.04425048828125 C 178.911865234375 420.3631591796875 181.1541748046875 422.04638671875 183.62152099609375 422.94091796875 C 186.0888671875 423.83551025390625 188.76995849609375 424.00067138671875 191.3880615234375 423.81109619140625 C 192.52734375 423.7279052734375 193.71636962890625 423.5582275390625 194.63177490234375 422.87982177734375 C 195.68157958984375 422.1025390625 196.17919921875 420.8018798828125 196.56707763671875 419.55035400390625 C 197.66204833984375 416.01702880859375 198.2572021484375 412.1812744140625 197.19589233398438 408.6372375488281 C 196.13458251953125 405.0931701660156 193.0703125 401.96234130859375 189.38650512695312 401.74212646484375 L 187.96343994140625 402.0726013183594" stroke-width="0.6000000238418579" fill="rgb(159, 159, 159)" opacity="1.0"/>
    <path d="M 353.4790344238281 374.3846435546875 C 350.4302978515625 374.3607177734375 347.04046630859375 374.4662170410156 344.8507995605469 376.5791320800781 C 342.7184753417969 378.6309814453125 342.4256591796875 381.891845703125 342.3190002441406 384.8504333496094 C 342.2774353027344 386.0523986816406 342.2531433105469 387.3105163574219 342.7847595214844 388.3885498046875 C 343.6828308105469 390.21240234375 345.86895751953125 390.9800720214844 347.8797302246094 391.2586669921875 C 349.7460021972656 391.5179443359375 351.63983154296875 391.5079040527344 353.50323486328125 391.2288513183594 C 356.529052734375 390.77685546875 359.7666015625 389.2875061035156 360.7486572265625 386.39117431640625 C 361.2811279296875 384.82830810546875 361.052734375 383.07843017578125 360.44207763671875 381.5417175292969 C 359.8314208984375 380.0049743652344 358.8578796386719 378.64215087890625 357.8775634765625 377.3104248046875 C 356.8973083496094 375.9787292480469 355.9055480957031 374.6911926269531 354.499267578125 373.8986511230469 L 353.4790344238281 374.3846435546875" stroke-width="0.6000000238418579" fill="rgb(218, 166, 20)" opacity="1.0"/>
    <path d="M 367.8605041503906 391.8818054199219 C 362.6903076171875 393.27838134765625 359.6311950683594 398.601806640625 361.0278015136719 403.7720031738281 C 361.1473693847656 404.2147216796875 361.2982177734375 404.6484069824219 361.47918701171875 405.0697937011719 C 362.1671142578125 406.6708068847656 363.3616027832031 408.1296691894531 364.9847717285156 408.7611999511719 C 366.3564453125 409.2950439453125 367.8883972167969 409.1970520019531 369.3375244140625 408.9449768066406 C 373.2155456542969 408.264892578125 376.84075927734375 406.5588073730469 379.8365478515625 404.0039978027344 C 380.6272888183594 403.3273620605469 381.3887023925781 402.5675964355469 381.7986755371094 401.6086120605469 C 382.4878845214844 399.9990539550781 382.0513610839844 398.092529296875 381.1498718261719 396.590087890625 C 379.8130187988281 394.3585510253906 377.51605224609375 392.7853698730469 375.0141296386719 392.0710144042969 C 372.51220703125 391.3566589355469 369.823486328125 391.45135498046875 367.2969665527344 392.072265625 L 367.8605041503906 391.8818054199219" stroke-width="0.6000000238418579" fill="rgb(143, 165, 67)" opacity="1.0"/>
    <path d="M 360.7372131347656 372.9508361816406 C 358.419921875 379.52105712890625 365.8357849121094 387.0192565917969 372.53497314453125 385.2769775390625 C 379.234130859375 383.53466796875 382.1734924316406 373.944091796875 377.9708251953125 368.3849182128906 C 373.76812744140625 362.82574462890625 364.3778381347656 362.6604309082031 359.59478759765625 367.73779296875 L 360.7372131347656 372.9508361816406" stroke-width="0.6000000238418579" fill="rgb(233, 92, 21)" opacity="1.0"/>
    <path d="M 390.32550048828125 372.915771484375 C 388.4715576171875 375.74810791015625 386.55072021484375 379.32366943359375 388.15740966796875 382.3163146972656 C 388.8431701660156 383.48236083984375 389.87384033203125 384.40692138671875 391.1073303222656 384.9623718261719 C 394.1222229003906 386.4188537597656 397.65606689453125 386.32366943359375 400.58819580078125 384.7070007324219 C 403.0719299316406 383.3292541503906 404.8165283203125 380.98712158203125 406.4498291015625 378.6847229003906 C 407.365234375 377.389892578125 408.29656982421875 375.9850158691406 408.3436584472656 374.40869140625 C 408.3891906738281 372.3070373535156 406.8484191894531 370.5192565917969 405.2525329589844 369.1520080566406 C 402.9194030761719 367.14813232421875 400.27734375 365.53509521484375 397.4288024902344 364.3754577636719 C 396.4438171386719 363.9766845703125 395.3862609863281 363.6253967285156 394.33502197265625 363.7781066894531 C 393.3648376464844 363.9700927734375 392.4714660644531 364.4402160644531 391.76385498046875 365.13116455078125 C 389.53582763671875 367.1435852050781 388.3027648925781 370.03204345703125 388.390625 373.0330810546875 L 390.32550048828125 372.915771484375" stroke-width="0.6000000238418579" fill="rgb(70, 150, 179)" opacity="1.0"/>
    <path d="M 384.5310363769531 404.8066711425781 C 381.9275817871094 407.2802734375 379.1457214355469 410.1313781738281 378.99127197265625 413.7169189453125 C 378.82763671875 417.5687255859375 381.9084777832031 420.9276123046875 385.43878173828125 422.4766845703125 C 386.7996826171875 423.07452392578125 388.3086242675781 423.4765625 389.76947021484375 423.2030029296875 C 390.970458984375 422.978515625 392.0406494140625 422.31982421875 393.04071044921875 421.61846923828125 C 396.1971130371094 419.4105224609375 399.12762451171875 416.39862060546875 399.76422119140625 412.60040283203125 C 400.40313720703125 408.77197265625 398.32421875 404.6326599121094 394.8584289550781 402.87762451171875 C 391.39263916015625 401.1225891113281 386.82427978515625 401.85198974609375 384.0979919433594 404.62310791015625 L 384.5310363769531 404.8066711425781" stroke-width="0.6000000238418579" fill="rgb(140, 28, 33)" opacity="1.0"/>
    <path d="M 401.4295654296875 394.292724609375 C 399.97161865234375 395.9307861328125 398.4726257324219 397.6513671875 397.8332214355469 399.7506408691406 C 397.19384765625 401.84991455078125 397.6725769042969 404.4652404785156 399.51300048828125 405.6597595214844 C 401.7881164550781 407.1291809082031 405.0971984863281 405.63653564453125 406.2588806152344 403.18450927734375 C 407.4205627441406 400.7324523925781 406.90948486328125 397.7939147949219 405.8304443359375 395.30810546875 C 405.573486328125 394.505126953125 405.02490234375 393.8276672363281 404.29290771484375 393.409423828125 C 403.53326416015625 393.07647705078125 402.41217041015625 393.5254821777344 402.4073791503906 394.3590087890625 L 401.4295654296875 394.292724609375" stroke-width="0.6000000238418579" fill="rgb(159, 159, 159)" opacity="1.0"/>
    <path d="M 423.68963623046875 373.9395446777344 C 422.6407470703125 377.2818908691406 422.714111328125 381.05645751953125 424.3505859375 384.1517028808594 C 425.987060546875 387.2469787597656 429.30615234375 389.5169677734375 432.8216552734375 389.45599365234375 C 435.30712890625 389.40972900390625 437.689208984375 388.2303771972656 439.499755859375 386.5238342285156 C 441.310302734375 384.8172607421875 442.5947265625 382.618408203125 443.552001953125 380.3214111328125 C 443.96795654296875 379.3215637207031 444.3319091796875 378.24267578125 444.14849853515625 377.17822265625 C 443.938720703125 375.957763671875 443.05029296875 374.9812927246094 442.156494140625 374.11871337890625 C 439.63323974609375 371.6834411621094 436.640625 369.5421142578125 433.187744140625 368.92742919921875 C 429.7347412109375 368.312744140625 425.77655029296875 369.56982421875 424.0174560546875 372.59393310546875 L 423.68963623046875 373.9395446777344" stroke-width="0.6000000238418579" fill="rgb(159, 159, 159)" opacity="1.0"/>
    <path d="M 416.95361328125 401.1026611328125 C 413.82257080078125 402.48553466796875 410.4021301269531 404.1583251953125 409.1366882324219 407.33148193359375 C 407.90167236328125 410.4156494140625 409.1072692871094 413.887939453125 410.3638916015625 416.9649658203125 C 410.876220703125 418.2142333984375 411.4320983886719 419.512939453125 412.47381591796875 420.370849609375 C 414.23486328125 421.82275390625 416.826416015625 421.5992431640625 419.0128173828125 420.9560546875 C 421.04248046875 420.35986328125 422.9759521484375 419.47540283203125 424.754150390625 418.32958984375 C 427.64202880859375 416.47021484375 430.26776123046875 413.4515380859375 429.935791015625 410.0341491699219 C 429.75927734375 408.1889343261719 428.71771240234375 406.5035705566406 427.3834228515625 405.2127990722656 C 426.049072265625 403.9220275878906 424.42364501953125 402.97674560546875 422.8056640625 402.06640625 C 421.187744140625 401.15606689453125 419.578369140625 400.2962341308594 417.7734375 400.13433837890625 L 416.95361328125 401.1026611328125" stroke-width="0.6000000238418579" fill="rgb(218, 166, 20)" opacity="1.0"/>
    <path d="M 144.4630889892578 234.60430908203125 C 139.75265502929688 238.12548828125 138.78854370117188 244.79852294921875 142.30970764160156 249.50897216796875 C 142.61122131347656 249.91229248046875 142.94097900390625 250.29376220703125 143.29647827148438 250.65045166015625 C 144.64756774902344 252.00555419921875 146.4580078125 253.01019287109375 148.37059020996094 252.99676513671875 C 149.98687744140625 252.98556518554688 151.5106201171875 252.2645263671875 152.88739013671875 251.41986083984375 C 156.56951904296875 249.15371704101562 159.5777587890625 245.9429931640625 161.59954833984375 242.1212158203125 C 162.13226318359375 241.110107421875 162.60134887695312 240.02606201171875 162.63101196289062 238.88113403320312 C 162.68194580078125 236.95907592773438 161.46359252929688 235.1903076171875 159.93450927734375 234.0223388671875 C 157.66555786132812 232.28680419921875 154.68359375 231.61236572265625 151.84060668945312 231.89755249023438 C 148.9976348876953 232.18270874023438 146.29196166992188 233.3692626953125 143.96517944335938 235.02716064453125 L 144.4630889892578 234.60430908203125" stroke-width="0.6000000238418579" fill="rgb(143, 165, 67)" opacity="1.0"/>
    <path d="M 160.97314453125 268.8199462890625 C 158.70755004882812 275.6963195800781 166.57452392578125 283.3264465332031 173.49716186523438 281.3714294433594 C 180.41976928710938 279.4164123535156 183.266357421875 269.38848876953125 178.77969360351562 263.7034912109375 C 174.29302978515625 258.0185241699219 164.53317260742188 258.0497741699219 159.6734619140625 263.4284362792969 L 160.97314453125 268.8199462890625" stroke-width="0.6000000238418579" fill="rgb(233, 92, 21)" opacity="1.0"/>
    <path d="M 154.62249755859375 319.3692932128906 C 152.2349853515625 321.6958312988281 149.62432861328125 324.7225341796875 150.52931213378906 327.9427795410156 C 150.93931579589844 329.21026611328125 151.7325439453125 330.3193359375 152.79957580566406 331.11688232421875 C 155.38656616210938 333.1613464355469 158.80401611328125 333.8250427246094 161.96820068359375 332.8975830078125 C 164.65029907226562 332.10394287109375 166.82791137695312 330.2252502441406 168.89007568359375 328.3609924316406 C 170.04678344726562 327.3118896484375 171.2423095703125 326.160400390625 171.62448120117188 324.6551208496094 C 172.11740112304688 322.64453125 171.018310546875 320.59661865234375 169.7763671875 318.94122314453125 C 167.96176147460938 316.5162658691406 165.76666259765625 314.4010009765625 163.276123046875 312.6774597167969 C 162.41448974609375 312.0836181640625 161.472900390625 311.5199279785156 160.42971801757812 311.4420471191406 C 159.4560546875 311.41925048828125 158.49676513671875 311.6802673339844 157.66885375976562 312.1932678222656 C 155.0969696044922 313.65167236328125 153.2943115234375 316.1648864746094 152.73741149902344 319.0685729980469 L 154.62249755859375 319.3692932128906" stroke-width="0.6000000238418579" fill="rgb(70, 150, 179)" opacity="1.0"/>
    <path d="M 129.30206298828125 294.7454833984375 C 127.38665771484375 291.60430908203125 125.13168334960938 288.2029724121094 121.5740966796875 287.2744140625 C 117.75187683105469 286.27923583984375 113.72306823730469 288.6397705078125 111.4097900390625 291.8410339355469 C 110.51736450195312 293.0749206542969 109.7890625 294.49932861328125 109.74777221679688 296.02142333984375 C 109.71337890625 297.27264404296875 110.14207458496094 298.486572265625 110.62863159179688 299.6395263671875 C 112.15864562988281 303.2771301269531 114.54258728027344 306.862060546875 118.20906066894531 308.3193054199219 C 121.90531921386719 309.78546142578125 126.49945068359375 308.5967712402344 129.00511169433594 305.5046081542969 C 131.51075744628906 302.4124450683594 131.76620483398438 297.6798400878906 129.57936096191406 294.3514099121094 L 129.30206298828125 294.7454833984375" stroke-width="0.6000000238418579" fill="rgb(140, 28, 33)" opacity="1.0"/>
    <path d="M 140.60137939453125 268.7675476074219 C 138.55850219726562 269.63360595703125 136.44232177734375 270.55731201171875 134.9480438232422 272.1997375488281 C 133.4537811279297 273.8421630859375 132.75828552246094 276.44097900390625 133.92352294921875 278.3306884765625 C 135.36708068847656 280.66009521484375 139.03956604003906 280.7291259765625 141.16424560546875 278.9904479980469 C 143.28892517089844 277.2517395019531 144.0949249267578 274.3434143066406 144.18539428710938 271.6029052734375 C 144.29840087890625 270.7573547363281 144.09034729003906 269.90020751953125 143.60227966308594 269.2005920410156 C 143.0519256591797 268.5670166015625 141.83229064941406 268.4917907714844 141.4667510986328 269.2518615722656 L 140.60137939453125 268.7675476074219" stroke-width="0.6000000238418579" fill="rgb(159, 159, 159)" opacity="1.0"/>
    <path d="M 156.13449096679688 291.1872253417969 C 153.8092803955078 293.93560791015625 152.3750762939453 297.5404968261719 152.6922149658203 301.1246337890625 C 153.00936889648438 304.708740234375 155.24929809570312 308.1814270019531 158.6038818359375 309.5242004394531 C 160.976806640625 310.4705505371094 163.703125 310.3022766113281 166.09814453125 309.40692138671875 C 168.49319458007812 308.5115966796875 170.58590698242188 306.9402770996094 172.4078369140625 305.14569091796875 C 173.20025634765625 304.3642578125 173.974853515625 303.4872131347656 174.22512817382812 302.40576171875 C 174.51263427734375 301.1660461425781 174.05999755859375 299.8870849609375 173.5570068359375 298.7138671875 C 172.1368408203125 295.40167236328125 170.15496826171875 292.18096923828125 167.12887573242188 290.22308349609375 C 164.10275268554688 288.2651672363281 159.852294921875 287.8791198730469 156.9810791015625 290.0430908203125 L 156.13449096679688 291.1872253417969" stroke-width="0.6000000238418579" fill="rgb(159, 159, 159)" opacity="1.0"/>
    <path d="M 129.95066833496094 346.4886169433594 C 128.15582275390625 343.5428161621094 126.03315734863281 340.34619140625 122.69583129882812 339.5006103515625 C 119.45144653320312 338.6736755371094 116.141357421875 340.33642578125 113.23289489746094 341.99798583984375 C 112.0523681640625 342.6747131347656 110.82814025878906 343.4014892578125 110.1085205078125 344.55548095703125 C 108.8902587890625 346.50653076171875 109.45559692382812 349.06634521484375 110.38670349121094 351.1659240722656 C 111.25016784667969 353.11505126953125 112.3890380859375 354.9300842285156 113.76844787597656 356.5554504394531 C 116.00726318359375 359.1954345703125 119.36976623535156 361.42047119140625 122.74032592773438 360.6378173828125 C 124.56059265136719 360.2179260253906 126.10700988769531 358.9549255371094 127.22055053710938 357.4514465332031 C 128.33409118652344 355.9479675292969 129.0640411376953 354.1992492675781 129.76004028320312 352.4626159667969 C 130.4560546875 350.7259521484375 131.1027374267578 349.0046081542969 131.02630615234375 347.17987060546875 L 129.95066833496094 346.4886169433594" stroke-width="0.6000000238418579" fill="rgb(218, 166, 20)" opacity="1.0"/>
    <path d="M 161.61093139648438 342.74676513671875 C 156.94287109375 346.4846496582031 156.18878173828125 353.29901123046875 159.92669677734375 357.96710205078125 C 160.24676513671875 358.3668212890625 160.59478759765625 358.7433166503906 160.9681396484375 359.09381103515625 C 162.3870849609375 360.42529296875 164.260986328125 361.3850402832031 166.20428466796875 361.30670166015625 C 167.8465576171875 361.2406311035156 169.3707275390625 360.4563293457031 170.7413330078125 359.55126953125 C 174.40679931640625 357.1236572265625 177.35540771484375 353.7588806152344 179.2808837890625 349.8064270019531 C 179.78805541992188 348.7608337402344 180.22811889648438 347.64324951171875 180.21954345703125 346.4786682128906 C 180.206298828125 344.5235595703125 178.90823364257812 342.7671813964844 177.314697265625 341.6319580078125 C 174.9500732421875 339.94488525390625 171.896728515625 339.3603515625 169.01708984375 339.746337890625 C 166.137451171875 340.1322937011719 163.42782592773438 341.42974853515625 161.11920166015625 343.1933288574219 L 161.61093139648438 342.74676513671875" stroke-width="0.6000000238418579" fill="rgb(143, 165, 67)" opacity="1.0"/>
    <path d="M 136.6857452392578 376.5108947753906 C 131.5485076904297 371.0686950683594 120.7418212890625 374.46771240234375 119.114013671875 381.72308349609375 C 117.48623657226562 388.97845458984375 125.20289611816406 396.4991455078125 132.578369140625 395.21649169921875 C 139.953857421875 393.9338684082031 144.7262725830078 385.0453186035156 142.22674560546875 377.98138427734375 L 136.6857452392578 376.5108947753906" stroke-width="0.6000000238418579" fill="rgb(233, 92, 21)" opacity="1.0"/>
    <path d="M 174.568359375 369.5723571777344 C 172.34014892578125 372.2710876464844 169.9583740234375 375.72589111328125 171.26776123046875 378.9842834472656 C 171.83932495117188 380.2607116699219 172.79287719726562 381.3283386230469 173.99691772460938 382.03985595703125 C 176.92861938476562 383.8804626464844 180.57061767578125 384.1859436035156 183.7679443359375 382.8594055175781 C 186.47732543945312 381.7271728515625 188.53720092773438 379.5196533203125 190.47824096679688 377.34027099609375 C 191.56658935546875 376.1142272949219 192.68389892578125 374.7769775390625 192.91217041015625 373.16259765625 C 193.19882202148438 371.00830078125 191.81964111328125 368.9954528808594 190.33584594726562 367.408447265625 C 188.16717529296875 365.0831604003906 185.636474609375 363.12420654296875 182.84185791015625 361.6075744628906 C 181.875244140625 361.08538818359375 180.82867431640625 360.603759765625 179.7310791015625 360.64068603515625 C 178.71224975585938 360.72723388671875 177.74063110351562 361.1083679199219 176.9346923828125 361.7375793457031 C 174.4156494140625 363.5511169433594 172.81903076171875 366.37841796875 172.56683349609375 369.4720764160156 L 174.568359375 369.5723571777344" stroke-width="0.6000000238418579" fill="rgb(70, 150, 179)" opacity="1.0"/>
  </g>
</svg>
