<?xml version="1.0" ?>
<svg xmlns="http://www.w3.org/2000/svg" version="1.1" width="600" height="600">
  <defs/>
  <g>
    <path d="M 353.6297607421875 336.5516662597656 C 356.4193115234375 337.60015869140625 359.69085693359375 334.4942626953125 359.0043640136719 331.6140441894531 C 358.3178405761719 328.73382568359375 354.2420349121094 327.39288330078125 351.82781982421875 329.1416015625 C 349.41363525390625 330.8902893066406 349.26080322265625 334.90472412109375 351.3903503417969 336.99462890625 L 353.6297607421875 336.5516662597656" stroke-width="0.6000000238418579" fill="rgb(233, 92, 21)" opacity="1.0"/>
    <path d="M 103.5289306640625 199.3731689453125 C 104.61294555664062 198.615478515625 105.82928466796875 197.5980224609375 105.68159484863281 196.2791748046875 C 105.60240173339844 195.75662231445312 105.36300659179688 195.27151489257812 104.99642944335938 194.89077758789062 C 104.11477661132812 193.92437744140625 102.81938171386719 193.44522094726562 101.52105712890625 193.60528564453125 C 100.4200439453125 193.743896484375 99.44692993164062 194.3397216796875 98.51994323730469 194.937255859375 C 97.999755859375 195.2738037109375 97.45780944824219 195.64788818359375 97.21160888671875 196.21270751953125 C 96.88960266113281 196.96826171875 97.18850708007812 197.840576171875 97.56851196289062 198.568359375 C 98.12335205078125 199.63421630859375 98.8470458984375 200.60321044921875 99.71151733398438 201.43780517578125 C 100.01075744628906 201.7255859375 100.34323120117188 202.0067138671875 100.74664306640625 202.1041259765625 C 101.12640380859375 202.175537109375 101.51870727539062 202.1348876953125 101.87576293945312 201.9871826171875 C 102.97628784179688 201.58123779296875 103.84330749511719 200.71295166015625 104.24765014648438 199.61187744140625 L 103.5289306640625 199.3731689453125" stroke-width="0.6000000238418579" fill="rgb(70, 150, 179)" opacity="1.0"/>
    <path d="M 463.2886962890625 431.96551513671875 C 464.295654296875 433.60595703125 465.4805908203125 435.3819580078125 467.34326171875 435.8621826171875 C 469.344482421875 436.376953125 471.4486083984375 435.1357421875 472.6539306640625 433.45733642578125 C 473.118896484375 432.8104248046875 473.49774169921875 432.0640869140625 473.5169677734375 431.2677001953125 C 473.53302001953125 430.613037109375 473.306884765625 429.9786376953125 473.050537109375 429.37615966796875 C 472.24444580078125 427.4754638671875 470.99169921875 425.6036376953125 469.0711669921875 424.84686279296875 C 467.1351318359375 424.0855712890625 464.73345947265625 424.71453857421875 463.4273681640625 426.336181640625 C 462.1212158203125 427.957763671875 461.99493408203125 430.43414306640625 463.1441650390625 432.172119140625 L 463.2886962890625 431.96551513671875" stroke-width="0.6000000238418579" fill="rgb(140, 28, 33)" opacity="1.0"/>
    <path d="M 92.9892578125 192.55450439453125 C 93.44915771484375 192.28857421875 93.92477416992188 192.00674438476562 94.2314453125 191.57247924804688 C 94.53813171386719 191.13821411132812 94.62686157226562 190.500244140625 94.29432678222656 190.08554077148438 C 93.88272094726562 189.5745849609375 93.00807189941406 189.66632080078125 92.554443359375 190.14202880859375 C 92.10079956054688 190.61773681640625 91.99493408203125 191.33251953125 92.05415344238281 191.98635864257812 C 92.05221557617188 192.19061279296875 92.12689208984375 192.38812255859375 92.26345825195312 192.53997802734375 C 92.41290283203125 192.67431640625 92.70489501953125 192.65628051757812 92.76937866210938 192.46490478515625 L 92.9892578125 192.55450439453125" stroke-width="0.6000000238418579" fill="rgb(159, 159, 159)" opacity="1.0"/>
    <path d="M 380.6583557128906 301.37725830078125 C 382.3553466796875 300.6395568847656 383.8365478515625 299.30438232421875 384.5058288574219 297.580322265625 C 385.17510986328125 295.8562316894531 384.9328308105469 293.7460632324219 383.6922302246094 292.36395263671875 C 382.8138427734375 291.3879089355469 381.5190124511719 290.84515380859375 380.21142578125 290.712890625 C 378.90386962890625 290.5806579589844 377.58184814453125 290.8287353515625 376.33380126953125 291.2413330078125 C 375.7908020019531 291.42120361328125 375.2342224121094 291.6492004394531 374.8728332519531 292.0906982421875 C 374.4582824707031 292.5966796875 374.3758850097656 293.28912353515625 374.3408203125 293.9443054199219 C 374.24176025390625 295.7939758300781 374.42242431640625 297.72930908203125 375.3717041015625 299.3202209472656 C 376.32098388671875 300.9111022949219 378.1921691894531 302.05609130859375 380.0078430175781 301.71197509765625 L 380.6583557128906 301.37725830078125" stroke-width="0.6000000238418579" fill="rgb(159, 159, 159)" opacity="1.0"/>
    <path d="M 103.59979248046875 431.670166015625 C 104.85272216796875 430.59344482421875 106.19876098632812 429.34228515625 106.33950805664062 427.69952392578125 C 106.47862243652344 426.10211181640625 105.43606567382812 424.666748046875 104.42520141601562 423.421142578125 C 104.01382446289062 422.915771484375 103.57537841796875 422.3935546875 102.97421264648438 422.14300537109375 C 101.95765686035156 421.7186279296875 100.79176330566406 422.184326171875 99.87173461914062 422.7872314453125 C 99.01759338378906 423.34649658203125 98.2481689453125 424.0255126953125 97.5870361328125 424.803466796875 C 96.5130615234375 426.0662841796875 95.72236633300781 427.8280029296875 96.35369873046875 429.3602294921875 C 96.69332885742188 430.1878662109375 97.41017150878906 430.8206787109375 98.20707702636719 431.2303466796875 C 99.00398254394531 431.63995361328125 99.88703918457031 431.8492431640625 100.76174926757812 432.04345703125 C 101.636474609375 432.2376708984375 102.5001220703125 432.4097900390625 103.35655212402344 432.23211669921875 L 103.59979248046875 431.670166015625" stroke-width="0.6000000238418579" fill="rgb(218, 166, 20)" opacity="1.0"/>
    <path d="M 100.62564086914062 139.54705810546875 C 102.99362182617188 140.25975036621094 105.49099731445312 138.91786193847656 106.20367431640625 136.5498809814453 C 106.26470947265625 136.34710693359375 106.311279296875 136.1402587890625 106.34303283691406 135.930908203125 C 106.46354675292969 135.13536071777344 106.35075378417969 134.27206420898438 105.8681640625 133.6287078857422 C 105.46040344238281 133.08499145507812 104.83575439453125 132.74996948242188 104.20600891113281 132.4955596923828 C 102.5194091796875 131.81689453125 100.68186950683594 131.60220336914062 98.88424682617188 131.873779296875 C 98.40921020507812 131.9463653564453 97.92539978027344 132.05870056152344 97.53085327148438 132.3348388671875 C 96.86819458007812 132.7980194091797 96.57461547851562 133.65208435058594 96.5618896484375 134.46104431152344 C 96.54214477539062 135.66204833984375 97.05941772460938 136.83892822265625 97.86642456054688 137.72897338867188 C 98.67343139648438 138.6190185546875 99.75091552734375 139.23733520507812 100.89306640625 139.6097412109375 L 100.62564086914062 139.54705810546875" stroke-width="0.6000000238418579" fill="rgb(143, 165, 67)" opacity="1.0"/>
    <path d="M 456.570556640625 338.18927001953125 C 458.7025146484375 339.2626037597656 461.5732421875 337.0687255859375 461.27264404296875 334.7163391113281 C 460.9720458984375 332.3639831542969 457.84075927734375 330.9478454589844 455.76873779296875 332.1341552734375 C 453.69677734375 333.32049560546875 453.2320556640625 336.50439453125 454.7493896484375 338.3507080078125 L 456.570556640625 338.18927001953125" stroke-width="0.6000000238418579" fill="rgb(233, 92, 21)" opacity="1.0"/>
    <path d="M 111.09219360351562 215.6253662109375 C 112.28242492675781 215.10552978515625 113.6502685546875 214.36114501953125 113.76313781738281 213.06280517578125 C 113.78794860839844 212.54437255859375 113.65127563476562 212.031005859375 113.37196350097656 211.59356689453125 C 112.70999145507812 210.49258422851562 111.55546569824219 209.78076171875 110.27447509765625 209.68377685546875 C 109.1876220703125 209.60430908203125 108.13548278808594 209.98977661132812 107.12741088867188 210.38583374023438 C 106.56150817871094 210.6092529296875 105.96736145019531 210.8646240234375 105.62109375 211.36077880859375 C 105.16494750976562 212.02597045898438 105.28402709960938 212.92364501953125 105.5091552734375 213.69784545898438 C 105.83723449707031 214.83135986328125 106.34658813476562 215.90423583984375 107.01751708984375 216.875 C 107.24996948242188 217.20993041992188 107.51568603515625 217.54489135742188 107.88528442382812 217.71670532226562 C 108.23709106445312 217.85888671875 108.6226806640625 217.8956298828125 108.99501037597656 217.82244873046875 C 110.13308715820312 217.64443969726562 111.13577270507812 216.97613525390625 111.738037109375 215.99420166015625 L 111.09219360351562 215.6253662109375" stroke-width="0.6000000238418579" fill="rgb(70, 150, 179)" opacity="1.0"/>
    <path d="M 103.29736328125 76.17779541015625 C 104.41316223144531 77.331787109375 105.6983642578125 78.56402587890625 107.30160522460938 78.61906433105469 C 109.02386474609375 78.67715454101562 110.51312255859375 77.2869873046875 111.19169616699219 75.7030029296875 C 111.45358276367188 75.0924072265625 111.62738037109375 74.4163818359375 111.4993896484375 73.76451110839844 C 111.39437866210938 73.22859191894531 111.09577941894531 72.75282287597656 110.77838134765625 72.30856323242188 C 109.7791748046875 70.90640258789062 108.4215087890625 69.60833740234375 106.72137451171875 69.33865356445312 C 105.0076904296875 69.06802368164062 103.16569519042969 70.013427734375 102.39480590820312 71.56936645507812 C 101.6239013671875 73.12530517578125 101.9677734375 75.16435241699219 103.21701049804688 76.3720703125 L 103.29736328125 76.17779541015625" stroke-width="0.6000000238418579" fill="rgb(140, 28, 33)" opacity="1.0"/>
    <path d="M 97.05307006835938 429.2552490234375 C 97.504150390625 429.259765625 97.97358703613281 429.2593994140625 98.38546752929688 429.0745849609375 C 98.79731750488281 428.8897705078125 99.13795471191406 428.4617919921875 99.07420349121094 428.0150146484375 C 98.9942626953125 427.463623046875 98.31536865234375 427.152587890625 97.77816772460938 427.30413818359375 C 97.24099731445312 427.4556884765625 96.85462951660156 427.932373046875 96.61526489257812 428.435791015625 C 96.52554321289062 428.584228515625 96.49472045898438 428.7608642578125 96.52890014648438 428.930908203125 C 96.58003234863281 429.09368896484375 96.80125427246094 429.20672607421875 96.93109130859375 429.0947265625 L 97.05307006835938 429.2552490234375" stroke-width="0.6000000238418579" fill="rgb(159, 159, 159)" opacity="1.0"/>
    <path d="M 466.12518310546875 61.39752197265625 C 467.09454345703125 60.41900634765625 467.749755859375 59.087066650390625 467.736328125 57.710479736328125 C 467.722900390625 56.333892822265625 466.9727783203125 54.942108154296875 465.73358154296875 54.32928466796875 C 464.85693359375 53.897125244140625 463.81195068359375 53.87950134277344 462.87158203125 54.14912414550781 C 461.93115234375 54.41874694824219 461.0858154296875 54.955291748046875 460.3370361328125 55.585113525390625 C 460.0113525390625 55.85939025878906 459.6895751953125 56.17066955566406 459.5616455078125 56.575653076171875 C 459.414794921875 57.03987121582031 459.549072265625 57.54127502441406 459.7056884765625 58.00386047363281 C 460.14801025390625 59.309814453125 460.8072509765625 60.597747802734375 461.9027099609375 61.435333251953125 C 462.99822998046875 62.27293395996094 464.60791015625 62.5477294921875 465.7679443359375 61.808502197265625 L 466.12518310546875 61.39752197265625" stroke-width="0.6000000238418579" fill="rgb(159, 159, 159)" opacity="1.0"/>
    <path d="M 92.70289611816406 104.46527099609375 C 94.25431823730469 104.68313598632812 95.98822021484375 104.85806274414062 97.24617004394531 103.929443359375 C 98.47079467773438 103.028076171875 98.83993530273438 101.38674926757812 99.09385681152344 99.88681030273438 C 99.19610595703125 99.27734375 99.29336547851562 98.63809204101562 99.09527587890625 98.05307006835938 C 98.76083374023438 97.06341552734375 97.69900512695312 96.52488708496094 96.69349670410156 96.24734497070312 C 95.76031494140625 95.98934936523438 94.794921875 95.86672973632812 93.82685852050781 95.88316345214844 C 92.2550048828125 95.9093017578125 90.50534057617188 96.44956970214844 89.8096923828125 97.85873413085938 C 89.43301391601562 98.61892700195312 89.43130493164062 99.52572631835938 89.63871765136719 100.3497314453125 C 89.84613037109375 101.17373657226562 90.2501220703125 101.93365478515625 90.65963745117188 102.67814636230469 C 91.06915283203125 103.42265319824219 91.48751831054688 104.14543151855469 92.150390625 104.64401245117188 L 92.70289611816406 104.46527099609375" stroke-width="0.6000000238418579" fill="rgb(218, 166, 20)" opacity="1.0"/>
    <path d="M 115.35220336914062 128.13278198242188 C 117.63897705078125 127.45928955078125 118.94677734375 125.05950927734375 118.27328491210938 122.77273559570312 C 118.21560668945312 122.57691955566406 118.14410400390625 122.38543701171875 118.05934143066406 122.19973754882812 C 117.73710632324219 121.49418640136719 117.19085693359375 120.85699462890625 116.46217346191406 120.59226989746094 C 115.84640502929688 120.36849975585938 115.1656494140625 120.42752075195312 114.52328491210938 120.55426025390625 C 112.80435180664062 120.89593505859375 111.20823669433594 121.69161987304688 109.9007568359375 122.85867309570312 C 109.5556640625 123.16773986816406 109.22447204589844 123.51350402832031 109.05166625976562 123.94439697265625 C 108.76113891601562 124.6676025390625 108.97459411621094 125.51164245605469 109.39088439941406 126.17118835449219 C 110.00823974609375 127.15081787109375 111.04624938964844 127.82778930664062 112.16683959960938 128.1205291748047 C 113.28741455078125 128.41326904296875 114.48297119140625 128.34408569335938 115.60107421875 128.04234313964844 L 115.35220336914062 128.13278198242188" stroke-width="0.6000000238418579" fill="rgb(143, 165, 67)" opacity="1.0"/>
    <path d="M 386.3843994140625 299.37603759765625 C 388.4747009277344 300.7695617675781 391.7540283203125 298.843994140625 391.7402648925781 296.34796142578125 C 391.72650146484375 293.8518981933594 388.6358642578125 291.97265625 386.3196716308594 292.9475402832031 C 384.00347900390625 293.9224548339844 383.11151123046875 297.1895446777344 384.4610290527344 299.31219482421875 L 386.3843994140625 299.37603759765625" stroke-width="0.6000000238418579" fill="rgb(233, 92, 21)" opacity="1.0"/>
    <path d="M 121.21847534179688 110.598876953125 C 122.32394409179688 109.81961059570312 123.5635986328125 108.77410888671875 123.40716552734375 107.426025390625 C 123.32403564453125 106.8919677734375 123.07722473144531 106.39686584472656 122.70077514648438 106.009033203125 C 121.79519653320312 105.02435302734375 120.46852111816406 104.53968811035156 119.14144897460938 104.708740234375 C 118.01611328125 104.85501098632812 117.02340698242188 105.46829223632812 116.07789611816406 106.08319091796875 C 115.54733276367188 106.42947387695312 114.99464416503906 106.81427001953125 114.74517822265625 107.39288330078125 C 114.41900634765625 108.16683959960938 114.72824096679688 109.05767822265625 115.119873046875 109.80038452148438 C 115.69163513183594 110.8880615234375 116.43568420410156 111.87603759765625 117.32315063476562 112.72596740722656 C 117.63035583496094 113.01904296875 117.97149658203125 113.30514526367188 118.38446044921875 113.40312194824219 C 118.77310180664062 113.47457885742188 119.17413330078125 113.43141174316406 119.53866577148438 113.27886962890625 C 120.66241455078125 112.85922241210938 121.54548645019531 111.96771240234375 121.9544677734375 110.84002685546875 L 121.21847534179688 110.598876953125" stroke-width="0.6000000238418579" fill="rgb(70, 150, 179)" opacity="1.0"/>
    <path d="M 431.2841796875 72.56343078613281 C 432.3243408203125 73.88031005859375 433.532470703125 75.2962646484375 435.19439697265625 75.52093505859375 C 436.97979736328125 75.76119995117188 438.674072265625 74.47068786621094 439.5452880859375 72.8939208984375 C 439.8814697265625 72.2861328125 440.13287353515625 71.60110473632812 440.0677490234375 70.90966796875 C 440.0145263671875 70.34123229980469 439.75360107421875 69.81517028808594 439.4698486328125 69.31991577148438 C 438.576904296875 67.75706481933594 437.30023193359375 66.26507568359375 435.5599365234375 65.8070068359375 C 433.8056640625 65.3465576171875 431.7908935546875 66.13760375976562 430.8265380859375 67.67555236816406 C 429.8621826171875 69.21351623535156 430.0069580078125 71.37040710449219 431.1802978515625 72.75711059570312 L 431.2841796875 72.56343078613281" stroke-width="0.6000000238418579" fill="rgb(140, 28, 33)" opacity="1.0"/>
    <path d="M 120.98837280273438 417.279052734375 C 121.42837524414062 416.9774169921875 121.88290405273438 416.6585693359375 122.15653991699219 416.2001953125 C 122.43017578125 415.74176025390625 122.46987915039062 415.09613037109375 122.10501098632812 414.70654296875 C 121.65353393554688 414.2265625 120.78485107421875 414.38580322265625 120.36727905273438 414.89703369140625 C 119.94967651367188 415.40826416015625 119.89871215820312 416.132080078125 120.00834655761719 416.7822265625 C 120.02212524414062 416.98681640625 120.11210632324219 417.17889404296875 120.26054382324219 417.3204345703125 C 120.42050170898438 417.44342041015625 120.71148681640625 417.40289306640625 120.76132202148438 417.206298828125 L 120.98837280273438 417.279052734375" stroke-width="0.6000000238418579" fill="rgb(159, 159, 159)" opacity="1.0"/>
    <path d="M 450.35723876953125 426.572021484375 C 451.2540283203125 425.3583984375 451.7545166015625 423.8111572265625 451.5230712890625 422.32080078125 C 451.29168701171875 420.83050537109375 450.2591552734375 419.4398193359375 448.819091796875 418.9705810546875 C 447.800537109375 418.64019775390625 446.66485595703125 418.78570556640625 445.6878662109375 419.2261962890625 C 444.7108154296875 419.6666259765625 443.8787841796875 420.38153076171875 443.166259765625 421.182373046875 C 442.8563232421875 421.531005859375 442.5565185546875 421.919189453125 442.481689453125 422.37841796875 C 442.39556884765625 422.90484619140625 442.6201171875 423.42730712890625 442.86285400390625 423.90411376953125 C 443.548095703125 425.25030517578125 444.46575927734375 426.542724609375 445.785400390625 427.27825927734375 C 447.10504150390625 428.0137939453125 448.8934326171875 428.05810546875 450.03466796875 427.0738525390625 L 450.35723876953125 426.572021484375" stroke-width="0.6000000238418579" fill="rgb(159, 159, 159)" opacity="1.0"/>
    <path d="M 447.824951171875 284.6873474121094 C 448.93994140625 283.7005615234375 450.136474609375 282.55535888671875 450.24176025390625 281.0730895996094 C 450.34613037109375 279.6317138671875 449.3876953125 278.3518981933594 448.46038818359375 277.24267578125 C 448.0830078125 276.7926025390625 447.6810302734375 276.3277893066406 447.135986328125 276.1098937988281 C 446.21429443359375 275.7408142089844 445.16973876953125 276.17584228515625 444.34857177734375 276.73126220703125 C 443.586181640625 277.2464904785156 442.9017333984375 277.8684997558594 442.316162109375 278.57830810546875 C 441.3648681640625 279.7304382324219 440.675537109375 281.32843017578125 441.26458740234375 282.7008972167969 C 441.58154296875 283.44232177734375 442.23583984375 284.0032043457031 442.95941162109375 284.36187744140625 C 443.6829833984375 284.7205505371094 444.4814453125 284.8975524902344 445.2723388671875 285.06109619140625 C 446.0631103515625 285.224609375 446.84375 285.36834716796875 447.6131591796875 285.19696044921875 L 447.824951171875 284.6873474121094" stroke-width="0.6000000238418579" fill="rgb(218, 166, 20)" opacity="1.0"/>
    <path d="M 426.29266357421875 372.2423400878906 C 427.85308837890625 374.15692138671875 430.670166015625 374.4440002441406 432.584716796875 372.8835754394531 C 432.7486572265625 372.7499694824219 432.9029541015625 372.6048889160156 433.04638671875 372.4494323730469 C 433.5911865234375 371.858642578125 433.98089599609375 371.0812683105469 433.94158935546875 370.2789611816406 C 433.908447265625 369.6009521484375 433.5791015625 368.9742736816406 433.20037841796875 368.41143798828125 C 432.1846923828125 366.90625 430.78448486328125 365.7004699707031 429.145263671875 364.91937255859375 C 428.7115478515625 364.7136535644531 428.2484130859375 364.535888671875 427.7674560546875 364.5435791015625 C 426.9600830078125 364.5560302734375 426.23931884765625 365.0984191894531 425.776123046875 365.7605895996094 C 425.08782958984375 366.74322509765625 424.8572998046875 368.00634765625 425.0269775390625 369.19427490234375 C 425.19671630859375 370.3822021484375 425.74224853515625 371.4966735839844 426.4788818359375 372.4438171386719 L 426.29266357421875 372.2423400878906" stroke-width="0.6000000238418579" fill="rgb(143, 165, 67)" opacity="1.0"/>
    <path d="M 448.80499267578125 357.4914245605469 C 450.463623046875 355.5546569824219 448.9222412109375 352.015869140625 446.4053955078125 351.7259826660156 C 443.8885498046875 351.4361267089844 441.6187744140625 354.32177734375 442.3193359375 356.7743835449219 C 443.01983642578125 359.22698974609375 446.20343017578125 360.52337646484375 448.506591796875 359.4217834472656 L 448.80499267578125 357.4914245605469" stroke-width="0.6000000238418579" fill="rgb(233, 92, 21)" opacity="1.0"/>
    <path d="M 450.95819091796875 85.70730590820312 C 452.17333984375 84.69454956054688 453.519775390625 83.35873413085938 453.2100830078125 81.802001953125 C 453.06280517578125 81.18728637695312 452.7283935546875 80.6334228515625 452.2529296875 80.21684265136719 C 451.10430908203125 79.15444946289062 449.511962890625 78.71469116210938 447.98095703125 79.03701782226562 C 446.682861328125 79.31375122070312 445.58355712890625 80.12237548828125 444.5394287109375 80.92843627929688 C 443.95355224609375 81.38218688964844 443.3455810546875 81.8829345703125 443.109375 82.58099365234375 C 442.80224609375 83.51402282714844 443.246826171875 84.52328491210938 443.7734375 85.35214233398438 C 444.5426025390625 86.56611633300781 445.5032958984375 87.6475830078125 446.6180419921875 88.55462646484375 C 447.00384521484375 88.86726379394531 447.42852783203125 89.16859436035156 447.919189453125 89.24383544921875 C 448.37896728515625 89.29043579101562 448.8424072265625 89.2022705078125 449.2529296875 88.99005126953125 C 450.5233154296875 88.39474487304688 451.4686279296875 87.27214050292969 451.83892822265625 85.91896057128906 L 450.95819091796875 85.70730590820312" stroke-width="0.6000000238418579" fill="rgb(70, 150, 179)" opacity="1.0"/>
    <path d="M 448.330078125 395.1130676269531 C 449.7333984375 393.4544677734375 451.21917724609375 391.55712890625 451.07659912109375 389.390625 C 450.92205810546875 387.06341552734375 448.8486328125 385.2456970214844 446.623779296875 384.5459289550781 C 445.76611328125 384.2757568359375 444.832275390625 384.133056640625 443.9716796875 384.3935241699219 C 443.26416015625 384.6073913574219 442.66375732421875 385.07379150390625 442.1083984375 385.561279296875 C 440.3551025390625 387.0964050292969 438.79052734375 389.1002197265625 438.6571044921875 391.4262390136719 C 438.52423095703125 393.7706298828125 440.04632568359375 396.12347412109375 442.245849609375 396.9513854980469 C 444.4454345703125 397.7792663574219 447.14501953125 397.0406188964844 448.60260009765625 395.1950378417969 L 448.330078125 395.1130676269531" stroke-width="0.6000000238418579" fill="rgb(140, 28, 33)" opacity="1.0"/>
    <path d="M 116.50161743164062 213.72247314453125 C 115.66465759277344 213.41302490234375 114.79034423828125 213.10025024414062 113.90005493164062 213.16937255859375 C 113.00979614257812 213.238525390625 112.08981323242188 213.807861328125 111.91021728515625 214.68243408203125 C 111.69091796875 215.762451171875 112.74736022949219 216.79489135742188 113.84878540039062 216.871337890625 C 114.95022583007812 216.94775390625 115.98785400390625 216.3182373046875 116.76968383789062 215.54061889648438 C 117.03582763671875 215.32415771484375 117.21115112304688 215.01580810546875 117.26104736328125 214.6763916015625 C 117.27450561523438 214.33917236328125 116.93807983398438 213.98095703125 116.62155151367188 214.102783203125 L 116.50161743164062 213.72247314453125" stroke-width="0.6000000238418579" fill="rgb(159, 159, 159)" opacity="1.0"/>
    <path d="M 113.56353759765625 224.5069580078125 C 111.60736083984375 223.2332763671875 109.17218017578125 222.60211181640625 106.89199829101562 223.09597778320312 C 104.61181640625 223.58984375 102.55880737304688 225.31170654296875 101.96623229980469 227.57843017578125 C 101.54930114746094 229.18157958984375 101.87802124023438 230.92193603515625 102.647705078125 232.390380859375 C 103.41738891601562 233.85879516601562 104.59751892089844 235.07806396484375 105.89939880371094 236.1051025390625 C 106.46621704101562 236.55166625976562 107.09307861328125 236.97909545898438 107.80906677246094 237.05264282226562 C 108.6298828125 237.13735961914062 109.41610717773438 236.74273681640625 110.13018798828125 236.32427978515625 C 112.146240234375 235.14276123046875 114.0579833984375 233.6072998046875 115.0728759765625 231.50213623046875 C 116.0877685546875 229.39697265625 115.99241638183594 226.6312255859375 114.36805725097656 224.95907592773438 L 113.56353759765625 224.5069580078125" stroke-width="0.6000000238418579" fill="rgb(159, 159, 159)" opacity="1.0"/>
    <path d="M 299.72265625 104.93765258789062 C 298.5318298339844 106.6024169921875 297.2803039550781 108.50450134277344 297.59466552734375 110.52301025390625 C 297.89764404296875 112.4864501953125 299.57501220703125 113.9068603515625 301.1583557128906 115.1082763671875 C 301.8022766113281 115.59539794921875 302.48370361328125 116.0947265625 303.281005859375 116.21926879882812 C 304.6293640136719 116.43067932128906 305.8953552246094 115.52684020996094 306.8250427246094 114.53033447265625 C 307.6883239746094 113.60575866699219 308.41436767578125 112.56201171875 308.98095703125 111.4310302734375 C 309.901611328125 109.59498596191406 310.3344421386719 107.24198913574219 309.1234436035156 105.58392333984375 C 308.4709777832031 104.68785095214844 307.42193603515625 104.13729858398438 306.34222412109375 103.87899780273438 C 305.2625427246094 103.62069702148438 304.13818359375 103.62881469726562 303.02825927734375 103.65264892578125 C 301.9183654785156 103.67648315429688 300.82830810546875 103.72369384765625 299.84991455078125 104.18971252441406 L 299.72265625 104.93765258789062" stroke-width="0.6000000238418579" fill="rgb(218, 166, 20)" opacity="1.0"/>
    <path d="M 222.22845458984375 125.988037109375 C 219.39035034179688 124.4859619140625 215.8719482421875 125.56904602050781 214.369873046875 128.40716552734375 C 214.24124145507812 128.6501922607422 214.13003540039062 128.90203857421875 214.03704833984375 129.1608123779297 C 213.68389892578125 130.14413452148438 213.61105346679688 131.2722930908203 214.06448364257812 132.21304321289062 C 214.44757080078125 133.00807189941406 215.15936279296875 133.59161376953125 215.89785766601562 134.07373046875 C 217.87640380859375 135.36151123046875 220.16363525390625 136.09603881835938 222.52203369140625 136.2010040283203 C 223.14544677734375 136.2277069091797 223.7900390625 136.20596313476562 224.36199951171875 135.95314025878906 C 225.32244873046875 135.52926635742188 225.91073608398438 134.51480102539062 226.12991333007812 133.48733520507812 C 226.45635986328125 131.962158203125 226.09259033203125 130.33299255371094 225.2877197265625 128.99656677246094 C 224.48284912109375 127.66015625 223.26519775390625 126.60208129882812 221.90350341796875 125.84107971191406 L 222.22845458984375 125.988037109375" stroke-width="0.6000000238418579" fill="rgb(143, 165, 67)" opacity="1.0"/>
    <path d="M 223.46365356445312 97.29786682128906 C 221.56219482421875 100.65945434570312 224.88330078125 105.470703125 228.70867919921875 105.16888427734375 C 232.53402709960938 104.8670654296875 235.06768798828125 99.91717529296875 233.3125 96.47564697265625 C 231.55728149414062 93.03411865234375 226.44790649414062 92.03396606445312 223.34524536132812 94.341796875 L 223.46365356445312 97.29786682128906" stroke-width="0.6000000238418579" fill="rgb(233, 92, 21)" opacity="1.0"/>
    <path d="M 205.09259033203125 98.0926513671875 C 204.11190795898438 96.42108154296875 202.76712036132812 94.52603149414062 200.82351684570312 94.58834838867188 C 200.05099487304688 94.64326477050781 199.3145751953125 94.9365234375 198.71578979492188 95.42770385742188 C 197.20156860351562 96.60316467285156 196.35101318359375 98.43963623046875 196.433837890625 100.35475158691406 C 196.50827026367188 101.9791259765625 197.265380859375 103.46986389160156 198.03042602539062 104.8934326171875 C 198.46148681640625 105.69241333007812 198.94491577148438 106.52757263183594 199.7413330078125 106.95291137695312 C 200.8074951171875 107.51112365722656 202.116455078125 107.17596435546875 203.22378540039062 106.70552062988281 C 204.84521484375 106.01904296875 206.34481811523438 105.07463073730469 207.66448974609375 103.908935546875 C 208.11965942382812 103.50531005859375 208.5689697265625 103.0523681640625 208.7581787109375 102.47439575195312 C 208.90664672851562 101.92800903320312 208.89291381835938 101.3502197265625 208.71868896484375 100.81147766113281 C 208.253662109375 99.15673828125 207.08621215820312 97.78926086425781 205.52484130859375 97.070556640625 L 205.09259033203125 98.0926513671875" stroke-width="0.6000000238418579" fill="rgb(70, 150, 179)" opacity="1.0"/>
    <path d="M 264.88909912109375 128.11341857910156 C 263.6286926269531 129.7024383544922 262.29833984375 131.5166778564453 262.4953308105469 133.53399658203125 C 262.7082214355469 135.70091247558594 264.696533203125 137.33578491210938 266.79315185546875 137.9230499267578 C 267.6014099121094 138.1498260498047 268.4770202636719 138.25540161132812 269.2723388671875 137.98695373535156 C 269.92620849609375 137.7665252685547 270.4726257324219 137.3135986328125 270.9764404296875 136.8423614501953 C 272.56707763671875 135.3582000732422 273.96783447265625 133.4423065185547 274.023681640625 131.26797485351562 C 274.07843017578125 129.07655334472656 272.5887145996094 126.92608642578125 270.51190185546875 126.21852111816406 C 268.4350891113281 125.51095581054688 265.9380187988281 126.27987670898438 264.6324157714844 128.0449981689453 L 264.88909912109375 128.11341857910156" stroke-width="0.6000000238418579" fill="rgb(140, 28, 33)" opacity="1.0"/>
    <path d="M 318.4158935546875 114.37640380859375 C 317.37042236328125 114.94010925292969 316.2887878417969 115.5382080078125 315.57452392578125 116.48828125 C 314.8602600097656 117.43832397460938 314.6195373535156 118.858154296875 315.33502197265625 119.8070068359375 C 316.2208557128906 120.976318359375 318.18157958984375 120.82949829101562 319.2270202636719 119.79660034179688 C 320.2724304199219 118.76373291015625 320.55657958984375 117.17341613769531 320.4677734375 115.70831298828125 C 320.4857482910156 115.25202941894531 320.3320007324219 114.80560302734375 320.0368957519531 114.4571533203125 C 319.7118835449219 114.14700317382812 319.0581359863281 114.16787719726562 318.90130615234375 114.59124755859375 L 318.4158935546875 114.37640380859375" stroke-width="0.6000000238418579" fill="rgb(159, 159, 159)" opacity="1.0"/>
    <path d="M 200.52011108398438 128.21319580078125 C 198.6131591796875 126.91795349121094 196.220947265625 126.24783325195312 193.96002197265625 126.69155883789062 C 191.69915771484375 127.13525390625 189.638916015625 128.79583740234375 189.01016235351562 131.02252197265625 C 188.567626953125 132.59738159179688 188.858642578125 134.3220977783203 189.59033203125 135.7867889404297 C 190.322021484375 137.25149536132812 191.4637451171875 138.47808837890625 192.72940063476562 139.51719665527344 C 193.28045654296875 139.9690704345703 193.89117431640625 140.40316772460938 194.5966796875 140.4895782470703 C 195.405517578125 140.5890350341797 196.18939208984375 140.21453857421875 196.90252685546875 139.81509399414062 C 198.91586303710938 138.68736267089844 200.83303833007812 137.20811462402344 201.87567138671875 135.14910888671875 C 202.91827392578125 133.09007263183594 202.87738037109375 130.35745239257812 201.3057861328125 128.6751251220703 L 200.52011108398438 128.21319580078125" stroke-width="0.6000000238418579" fill="rgb(159, 159, 159)" opacity="1.0"/>
    <path d="M 280.130859375 106.50241088867188 C 278.47735595703125 107.01225280761719 276.6614990234375 107.65060424804688 275.8392028808594 109.16920471191406 C 275.0374450683594 110.64492797851562 275.43817138671875 112.45928955078125 275.8878173828125 114.07821655273438 C 276.0714416503906 114.73561096191406 276.2740173339844 115.42042541503906 276.7464904785156 115.91250610351562 C 277.54510498046875 116.7452392578125 278.8594665527344 116.78567504882812 279.9951171875 116.59158325195312 C 281.0492248535156 116.41183471679688 282.07208251953125 116.08164978027344 283.0323486328125 115.61114501953125 C 284.59185791015625 114.84774780273438 286.0880126953125 113.48683166503906 286.1226501464844 111.75148010253906 C 286.1427307128906 110.81465148925781 285.7190856933594 109.9071044921875 285.1252136230469 109.18045043945312 C 284.53131103515625 108.45376586914062 283.77093505859375 107.88340759277344 283.0122375488281 107.33103942871094 C 282.2535400390625 106.77865600585938 281.4961853027344 106.25216674804688 280.5994873046875 106.06452941894531 L 280.130859375 106.50241088867188" stroke-width="0.6000000238418579" fill="rgb(218, 166, 20)" opacity="1.0"/>
    <path d="M 242.799560546875 122.22225952148438 C 240.93280029296875 124.43984985351562 241.2171630859375 127.7508544921875 243.43475341796875 129.6176300048828 C 243.6246337890625 129.77748107910156 243.82562255859375 129.9236602783203 244.03619384765625 130.05506896972656 C 244.83645629882812 130.5542449951172 245.81796264648438 130.83377075195312 246.7344970703125 130.6131591796875 C 247.50906372070312 130.42681884765625 248.15972900390625 129.91012573242188 248.72601318359375 129.3505096435547 C 250.23971557617188 127.85047912597656 251.32415771484375 125.97250366210938 251.86672973632812 123.91168212890625 C 252.00921630859375 123.36669921875 252.11300659179688 122.7938232421875 251.99905395507812 122.24093627929688 C 251.80828857421875 121.31263732910156 251.02545166015625 120.60003662109375 250.16070556640625 120.21063232421875 C 248.87725830078125 119.63162231445312 247.37042236328125 119.64176940917969 246.0377197265625 120.09696960449219 C 244.70501708984375 120.55215454101562 243.53912353515625 121.42466735839844 242.60791015625 122.48097229003906 L 242.799560546875 122.22225952148438" stroke-width="0.6000000238418579" fill="rgb(143, 165, 67)" opacity="1.0"/>
    <path d="M 249.40185546875 96.5423583984375 C 247.6746826171875 99.90704345703125 251.115234375 104.48300170898438 254.84628295898438 104.035888671875 C 258.5773620605469 103.58877563476562 260.860107421875 98.64486694335938 259.0061340332031 95.3470458984375 C 257.1521301269531 92.04920959472656 252.11300659179688 91.2733154296875 249.168701171875 93.65458679199219 L 249.40185546875 96.5423583984375" stroke-width="0.6000000238418579" fill="rgb(233, 92, 21)" opacity="1.0"/>
    <path d="M 339.8492736816406 88.04733276367188 C 338.2073669433594 87.73809814453125 336.2139892578125 87.53900146484375 335.1537780761719 88.83766174316406 C 334.7519836425781 89.37088012695312 334.5255432128906 90.01565551757812 334.5057067871094 90.68304443359375 C 334.4122009277344 92.33297729492188 335.1242370605469 93.92587280273438 336.4159851074219 94.95661926269531 C 337.51397705078125 95.82815551757812 338.9117431640625 96.18028259277344 340.27032470703125 96.48919677734375 C 341.0337829589844 96.6614990234375 341.85040283203125 96.82023620605469 342.5779113769531 96.54345703125 C 343.5445556640625 96.16656494140625 344.0680236816406 95.12591552734375 344.3893127441406 94.13973999023438 C 344.8613586425781 92.69703674316406 345.09674072265625 91.18743896484375 345.0863952636719 89.66950988769531 C 345.0818176269531 89.14505004882812 345.0418701171875 88.59649658203125 344.7733459472656 88.14617919921875 C 344.50225830078125 87.740234375 344.1189270019531 87.42193603515625 343.6700744628906 87.2301025390625 C 342.3311462402344 86.59521484375 340.7810974121094 86.57965087890625 339.4297180175781 87.1875 L 339.8492736816406 88.04733276367188" stroke-width="0.6000000238418579" fill="rgb(70, 150, 179)" opacity="1.0"/>
    <path d="M 337.11212158203125 118.95954895019531 C 336.0527038574219 117.0010986328125 334.79620361328125 114.87480163574219 332.6750793457031 114.20230102539062 C 330.39605712890625 113.48126220703125 327.88720703125 114.78192138671875 326.388916015625 116.64437866210938 C 325.8109436035156 117.36222839355469 325.3262023925781 118.20036315917969 325.2536315917969 119.1190185546875 C 325.1936950683594 119.87417602539062 325.4148254394531 120.62129211425781 325.6728515625 121.33334350585938 C 326.4837951660156 123.57977294921875 327.8125 125.82106018066406 329.98291015625 126.8165283203125 C 332.1710510253906 127.81829833984375 334.98492431640625 127.24356079101562 336.5960693359375 125.45304870605469 C 338.20721435546875 123.66253662109375 338.5096435546875 120.81015014648438 337.29205322265625 118.73004150390625 L 337.11212158203125 118.95954895019531" stroke-width="0.6000000238418579" fill="rgb(140, 28, 33)" opacity="1.0"/>
    <path d="M 359.7150573730469 105.53437805175781 C 359.0289306640625 105.88023376464844 358.3187561035156 106.2476806640625 357.83990478515625 106.84930419921875 C 357.3610534667969 107.45091247558594 357.17999267578125 108.36477661132812 357.625732421875 108.99114990234375 C 358.1777038574219 109.76312255859375 359.4482421875 109.70321655273438 360.14276123046875 109.053955078125 C 360.8372497558594 108.40469360351562 361.0494079589844 107.38136291503906 361.0181579589844 106.43234252929688 C 361.03790283203125 106.13760375976562 360.94647216796875 105.84616088867188 360.7618713378906 105.61555480957031 C 360.5572509765625 105.4091796875 360.13409423828125 105.4110107421875 360.0251159667969 105.68197631835938 L 359.7150573730469 105.53437805175781" stroke-width="0.6000000238418579" fill="rgb(159, 159, 159)" opacity="1.0"/>
    <path d="M 352.1921691894531 119.37014770507812 C 350.2731628417969 119.82221984863281 348.4672546386719 120.94161987304688 347.4389953613281 122.62254333496094 C 346.41070556640625 124.303466796875 346.26507568359375 126.56185913085938 347.3041076660156 128.2459716796875 C 348.0401916503906 129.4357147216797 349.2950439453125 130.25 350.6409912109375 130.63632202148438 C 351.9869079589844 131.02264404296875 353.4200439453125 131.01290893554688 354.8067321777344 130.81666564941406 C 355.41015625 130.7309112548828 356.0368957519531 130.59727478027344 356.4994201660156 130.20281982421875 C 357.0299377441406 129.75082397460938 357.2474365234375 129.04039001464844 357.4083251953125 128.36009216308594 C 357.86248779296875 126.439453125 358.03961181640625 124.37606811523438 357.3456115722656 122.52822875976562 C 356.651611328125 120.68038940429688 354.906494140625 119.12548828125 352.9376220703125 119.14242553710938 L 352.1921691894531 119.37014770507812" stroke-width="0.6000000238418579" fill="rgb(159, 159, 159)" opacity="1.0"/>
    <path d="M 364.6767578125 106.83195495605469 C 363.3611755371094 106.96420288085938 361.9045715332031 107.16819763183594 361.059326171875 108.18157958984375 C 360.2359313964844 109.16595458984375 360.26214599609375 110.58555603027344 360.3545227050781 111.86614990234375 C 360.392822265625 112.38632202148438 360.441162109375 112.92987060546875 360.7207946777344 113.36981201171875 C 361.1932678222656 114.11418151855469 362.1717224121094 114.34292602539062 363.05169677734375 114.3690185546875 C 363.86846923828125 114.39352416992188 364.68450927734375 114.30062866210938 365.474853515625 114.09318542480469 C 366.75830078125 113.75680541992188 368.08453369140625 112.96328735351562 368.37249755859375 111.66860961914062 C 368.52899169921875 110.96987915039062 368.34869384765625 110.22610473632812 368.0135498046875 109.59210205078125 C 367.67840576171875 108.95809936523438 367.1949157714844 108.41604614257812 366.7099914550781 107.88772583007812 C 366.2250671386719 107.35940551757812 365.7372741699219 106.85064697265625 365.0939025878906 106.57470703125 L 364.6767578125 106.83195495605469" stroke-width="0.6000000238418579" fill="rgb(218, 166, 20)" opacity="1.0"/>
    <path d="M 432.85791015625 160.5447998046875 C 430.60009765625 160.71734619140625 428.90966796875 162.6875 429.0821533203125 164.9453125 C 429.096923828125 165.138671875 429.1253662109375 165.3306884765625 429.1673583984375 165.52001953125 C 429.326904296875 166.23931884765625 429.70806884765625 166.93951416015625 430.33251953125 167.329833984375 C 430.8602294921875 167.65972900390625 431.50433349609375 167.73980712890625 432.126220703125 167.74932861328125 C 433.790771484375 167.7725830078125 435.43115234375 167.34967041015625 436.8770751953125 166.52459716796875 C 437.2589111328125 166.30584716796875 437.63507080078125 166.05029296875 437.8809814453125 165.68423461914062 C 438.294189453125 165.0699462890625 438.26318359375 164.24359130859375 438.00714111328125 163.54837036132812 C 437.62774658203125 162.5159912109375 436.797607421875 161.681396484375 435.81463623046875 161.1873779296875 C 434.8316650390625 160.69342041015625 433.707275390625 160.520751953125 432.6087646484375 160.57949829101562 L 432.85791015625 160.5447998046875" stroke-width="0.6000000238418579" fill="rgb(143, 165, 67)" opacity="1.0"/>
    <path d="M 141.29150390625 415.8138427734375 C 138.5699462890625 418.444580078125 140.35372924804688 423.8895263671875 144.03280639648438 424.6693115234375 C 147.71188354492188 425.4490966796875 151.46913146972656 421.50140380859375 150.77626037597656 417.779052734375 C 150.08338928222656 414.056640625 145.55950927734375 411.6963195800781 142.00198364257812 413.0028076171875 L 141.29150390625 415.8138427734375" stroke-width="0.6000000238418579" fill="rgb(233, 92, 21)" opacity="1.0"/>
    <path d="M 434.0631103515625 180.7218017578125 C 432.6607666015625 180.71533203125 430.98492431640625 180.85302734375 430.30645751953125 182.0858154296875 C 430.0555419921875 182.5869140625 429.96630859375 183.15350341796875 430.051025390625 183.70748901367188 C 430.223876953125 185.08377075195312 431.0531005859375 186.2908935546875 432.2757568359375 186.94610595703125 C 433.314208984375 187.49920654296875 434.52154541015625 187.578125 435.68994140625 187.62725830078125 C 436.3463134765625 187.65380859375 437.0445556640625 187.66110229492188 437.60321044921875 187.32235717773438 C 438.3441162109375 186.86474609375 438.6185302734375 185.92630004882812 438.734375 185.0634765625 C 438.90545654296875 183.8009033203125 438.87103271484375 182.51895141601562 438.6324462890625 181.26739501953125 C 438.5491943359375 180.8350830078125 438.43310546875 180.3883056640625 438.1431884765625 180.05722045898438 C 437.85791015625 179.76318359375 437.4931640625 179.5584716796875 437.093505859375 179.4681396484375 C 435.8919677734375 179.14691162109375 434.6099853515625 179.36892700195312 433.58642578125 180.0755615234375 L 434.0631103515625 180.7218017578125" stroke-width="0.6000000238418579" fill="rgb(70, 150, 179)" opacity="1.0"/>
    <path d="M 412.482666015625 159.927734375 C 411.6833801269531 158.3519287109375 410.7312927246094 156.63876342773438 409.062744140625 156.06072998046875 C 407.27001953125 155.44088745117188 405.2524719238281 156.41998291015625 404.0248107910156 157.865966796875 C 403.55120849609375 158.42327880859375 403.1490783691406 159.07797241210938 403.0722351074219 159.80520629882812 C 403.0088195800781 160.40298461914062 403.1685485839844 161.00030517578125 403.3582763671875 161.57058715820312 C 403.95440673828125 163.36965942382812 404.96136474609375 165.175537109375 406.6622009277344 166.01080322265625 C 408.3769836425781 166.8514404296875 410.6212158203125 166.45458984375 411.9369201660156 165.06805419921875 C 413.2525634765625 163.6815185546875 413.55242919921875 161.42514038085938 412.6302490234375 159.74945068359375 L 412.482666015625 159.927734375" stroke-width="0.6000000238418579" fill="rgb(140, 28, 33)" opacity="1.0"/>
    <path d="M 147.0 115.0 C 146.44886779785156 115.41398620605469 145.8799285888672 115.850830078125 145.5522918701172 116.45785522460938 C 145.2246551513672 117.06488037109375 145.2094268798828 117.90048217773438 145.7021484375 118.383056640625 C 146.31170654296875 118.97737121582031 147.4241485595703 118.723388671875 147.93466186523438 118.04017639160156 C 148.44515991210938 117.35696411132812 148.47056579589844 116.41976928710938 148.2927703857422 115.58670043945312 C 148.26358032226562 115.32330322265625 148.13670349121094 115.0804443359375 147.93719482421875 114.90602111816406 C 147.72386169433594 114.75616455078125 147.35049438476562 114.82475280761719 147.29714965820312 115.08126831054688 L 147.0 115.0" stroke-width="0.6000000238418579" fill="rgb(159, 159, 159)" opacity="1.0"/>
    <path d="M 420.26409912109375 175.95980834960938 C 418.965087890625 175.26687622070312 417.40045166015625 175.00390625 415.994873046875 175.43930053710938 C 414.58929443359375 175.87469482421875 413.393798828125 177.0692138671875 413.1458740234375 178.52593994140625 C 412.97186279296875 179.55609130859375 413.27392578125 180.63156127929688 413.8380126953125 181.511962890625 C 414.4022216796875 182.39236450195312 415.2105712890625 183.09368896484375 416.0849609375 183.66754150390625 C 416.465576171875 183.91705322265625 416.8829345703125 184.1512451171875 417.3367919921875 184.15814208984375 C 417.857177734375 184.16635131835938 418.3294677734375 183.87527465820312 418.7552490234375 183.57315063476562 C 419.9571533203125 182.72021484375 421.0740966796875 181.65057373046875 421.59619140625 180.27218627929688 C 422.118408203125 178.893798828125 421.90673828125 177.16128540039062 420.79443359375 176.19976806640625 L 420.26409912109375 175.95980834960938" stroke-width="0.6000000238418579" fill="rgb(159, 159, 159)" opacity="1.0"/>
    <path d="M 410.8410339355469 183.36151123046875 C 409.7987976074219 181.87994384765625 408.57611083984375 180.27828979492188 406.7981872558594 179.95050048828125 C 405.0696105957031 179.62930297851562 403.3926086425781 180.61489868164062 401.926025390625 181.58599853515625 C 401.330810546875 181.98138427734375 400.7144470214844 182.40451049804688 400.3772277832031 183.0340576171875 C 399.8062744140625 184.09844970703125 400.1909484863281 185.42022705078125 400.7513732910156 186.48822021484375 C 401.2711486816406 187.47970581054688 401.93060302734375 188.39141845703125 402.7095642089844 189.1954345703125 C 403.973876953125 190.50140380859375 405.8126525878906 191.5511474609375 407.5517272949219 191.02459716796875 C 408.49102783203125 190.74169921875 409.2576904296875 190.02645874023438 409.7892150878906 189.2001953125 C 410.3207702636719 188.3739013671875 410.642822265625 187.43240356445312 410.9475402832031 186.49835205078125 C 411.2522277832031 185.5643310546875 411.5316162109375 184.64004516601562 411.42852783203125 183.6865234375 L 410.8410339355469 183.36151123046875" stroke-width="0.6000000238418579" fill="rgb(218, 166, 20)" opacity="1.0"/>
    <path d="M 446.2098388671875 179.6690673828125 C 444.20849609375 182.054443359375 444.51983642578125 185.61053466796875 446.90521240234375 187.61187744140625 C 447.1094970703125 187.78323364257812 447.32562255859375 187.93988037109375 447.55206298828125 188.0806884765625 C 448.41259765625 188.615478515625 449.46734619140625 188.91397094726562 450.45147705078125 188.6754150390625 C 451.283203125 188.47384643554688 451.981201171875 187.91766357421875 452.5885009765625 187.3155517578125 C 454.2117919921875 185.70159912109375 455.37335205078125 183.68240356445312 455.9525146484375 181.4677734375 C 456.1046142578125 180.88211059570312 456.215087890625 180.26654052734375 456.0916748046875 179.6728515625 C 455.8851318359375 178.676025390625 455.04296875 177.9119873046875 454.1134033203125 177.4952392578125 C 452.7337646484375 176.87554931640625 451.1151123046875 176.88909912109375 449.68438720703125 177.38043212890625 C 448.253662109375 177.87173461914062 447.0028076171875 178.81103515625 446.00439453125 179.94732666015625 L 446.2098388671875 179.6690673828125" stroke-width="0.6000000238418579" fill="rgb(143, 165, 67)" opacity="1.0"/>
    <path d="M 144.12173461914062 109.86044311523438 C 138.6177978515625 112.39784240722656 138.43553161621094 121.57026672363281 143.5838623046875 124.69358825683594 C 148.73219299316406 127.81687927246094 156.49765014648438 123.83650207519531 157.41812133789062 117.84426879882812 C 158.33859252929688 111.85205078125 152.74891662597656 105.893310546875 146.6815185546875 105.98731994628906 L 144.12173461914062 109.86044311523438" stroke-width="0.6000000238418579" fill="rgb(233, 92, 21)" opacity="1.0"/>
    <path d="M 446.73529052734375 151.1256561279297 C 444.81939697265625 153.16983032226562 442.7427978515625 155.81036376953125 443.625244140625 158.4794921875 C 444.0177001953125 159.52801513671875 444.7259521484375 160.428955078125 445.652099609375 161.05792236328125 C 447.90191650390625 162.67587280273438 450.79638671875 163.10296630859375 453.4176025390625 162.20382690429688 C 455.63916015625 161.43539428710938 457.3958740234375 159.77520751953125 459.05621337890625 158.13153076171875 C 459.9874267578125 157.2066650390625 460.947265625 156.19442749023438 461.2108154296875 154.9160919189453 C 461.548095703125 153.20928955078125 460.54736328125 151.53179931640625 459.441650390625 150.18927001953125 C 457.8258056640625 148.22244262695312 455.90234375 146.53013610839844 453.74578857421875 145.17794799804688 C 452.999755859375 144.71217346191406 452.18780517578125 144.27476501464844 451.3089599609375 144.2490997314453 C 450.49066162109375 144.2670440673828 449.6951904296875 144.52272033691406 449.0196533203125 144.98492431640625 C 446.9158935546875 146.30726623535156 445.4981689453125 148.4859161376953 445.1412353515625 150.9449462890625 L 446.73529052734375 151.1256561279297" stroke-width="0.6000000238418579" fill="rgb(70, 150, 179)" opacity="1.0"/>
    <path d="M 376.94586181640625 83.80120849609375 C 375.995361328125 81.19879150390625 374.8325500488281 78.35415649414062 372.3426818847656 77.14309692382812 C 369.667236328125 75.84376525878906 366.3436584472656 76.99185180664062 364.1627197265625 79.01409912109375 C 363.3215026855469 79.79344177246094 362.5733337402344 80.73771667480469 362.3180847167969 81.85556030273438 C 362.1078796386719 82.77439880371094 362.24517822265625 83.734130859375 362.4342041015625 84.65733337402344 C 363.0267639160156 87.56939697265625 364.2577209472656 90.56863403320312 366.7499084472656 92.18618774414062 C 369.2627868652344 93.81471252441406 372.83074951171875 93.61541748046875 375.1376647949219 91.70213317871094 C 377.4445495605469 89.78884887695312 378.33209228515625 86.3319091796875 377.2088317871094 83.5511474609375 L 376.94586181640625 83.80120849609375" stroke-width="0.6000000238418579" fill="rgb(140, 28, 33)" opacity="1.0"/>
    <path d="M 126.74490356445312 409.16845703125 C 125.05023193359375 409.6869201660156 123.29254150390625 410.24505615234375 121.96923828125 411.42578125 C 120.64596557617188 412.6064453125 119.87782287597656 414.6131591796875 120.64663696289062 416.21099853515625 C 121.60008239746094 418.18121337890625 124.51165771484375 418.540771484375 126.34371948242188 417.3359375 C 128.17578125 416.131103515625 129.057373046875 413.8876953125 129.35665893554688 411.7181701660156 C 129.51658630371094 411.0558776855469 129.4224395751953 410.35772705078125 129.09278869628906 409.761474609375 C 128.7081756591797 409.2124938964844 127.74557495117188 409.0515441894531 127.39213562011719 409.6249694824219 L 126.74490356445312 409.16845703125" stroke-width="0.6000000238418579" fill="rgb(159, 159, 159)" opacity="1.0"/>
    <path d="M 412.709716796875 203.55279541015625 C 410.7703552246094 201.31497192382812 408.02203369140625 199.69284057617188 405.0688171386719 199.49676513671875 C 402.1156005859375 199.30072021484375 399.0094909667969 200.68154907226562 397.493408203125 203.238037109375 C 396.42376708984375 205.04681396484375 396.21533203125 207.28399658203125 396.6397705078125 209.34396362304688 C 397.064208984375 211.4039306640625 398.07635498046875 213.30377197265625 399.3042297363281 215.01181030273438 C 399.8390197753906 215.75479125976562 400.4537658691406 216.49542236328125 401.3010559082031 216.83575439453125 C 402.2722473144531 217.22637939453125 403.3690490722656 217.02047729492188 404.38629150390625 216.76019287109375 C 407.2581481933594 216.02532958984375 410.12677001953125 214.82232666015625 412.1011962890625 212.6107177734375 C 414.07568359375 210.39910888671875 414.92767333984375 206.99334716796875 413.53240966796875 204.38577270507812 L 412.709716796875 203.55279541015625" stroke-width="0.6000000238418579" fill="rgb(159, 159, 159)" opacity="1.0"/>
    <path d="M 386.26666259765625 115.9970703125 C 383.6237487792969 116.74861145019531 380.7185974121094 117.698486328125 379.3600158691406 120.08059692382812 C 378.0354919433594 122.39535522460938 378.6081848144531 125.28981018066406 379.2653503417969 127.875732421875 C 379.53387451171875 128.9258270263672 379.8315124511719 130.0200958251953 380.56439208984375 130.81785583496094 C 381.8031005859375 132.16781616210938 383.8883056640625 132.2780303955078 385.697998046875 132.0096435546875 C 387.3778076171875 131.76116943359375 389.0132141113281 131.2727813720703 390.55419921875 130.55943298339844 C 393.0567321777344 129.40206909179688 395.4796142578125 127.29388427734375 395.5953674316406 124.54008483886719 C 395.6600341796875 123.05349731445312 395.0192565917969 121.597900390625 394.1018371582031 120.4234619140625 C 393.1844482421875 119.2490234375 391.9972229003906 118.31692504882812 390.8120422363281 117.41342163085938 C 389.62689208984375 116.50994873046875 388.4429931640625 115.64756774902344 387.0259704589844 115.31831359863281 L 386.26666259765625 115.9970703125" stroke-width="0.6000000238418579" fill="rgb(218, 166, 20)" opacity="1.0"/>
    <path d="M 401.46234130859375 85.05911254882812 C 397.77642822265625 82.37078857421875 392.6091003417969 83.17953491210938 389.9207763671875 86.86544799804688 C 389.6905822753906 87.18106079101562 389.4830627441406 87.51263427734375 389.2997741699219 87.85763549804688 C 388.6036071777344 89.16867065429688 388.2721252441406 90.740234375 388.7187194824219 92.15512084960938 C 389.0960388183594 93.350830078125 389.97845458984375 94.31588745117188 390.9190368652344 95.14373779296875 C 393.4397277832031 97.35621643066406 396.5068664550781 98.85340881347656 399.80181884765625 99.47979736328125 C 400.67303466796875 99.64389038085938 401.5838317871094 99.74417114257812 402.4394226074219 99.50477600097656 C 403.87603759765625 99.10372924804688 404.9092102050781 97.796630859375 405.42596435546875 96.3963623046875 C 406.19464111328125 94.3179931640625 406.01385498046875 91.95327758789062 405.15338134765625 89.91064453125 C 404.29290771484375 87.8680419921875 402.7955017089844 86.13302612304688 401.0351867675781 84.7864990234375 L 401.46234130859375 85.05911254882812" stroke-width="0.6000000238418579" fill="rgb(143, 165, 67)" opacity="1.0"/>
    <path d="M 116.63760375976562 420.79742431640625 C 112.81010437011719 416.18487548828125 103.99893188476562 418.3486328125 102.32667541503906 424.064208984375 C 100.65444946289062 429.77978515625 106.43721008300781 436.185546875 112.397705078125 435.5377197265625 C 118.35818481445312 434.8900146484375 122.62733459472656 428.02996826171875 120.99101257324219 422.2562255859375 L 116.63760375976562 420.79742431640625" stroke-width="0.6000000238418579" fill="rgb(233, 92, 21)" opacity="1.0"/>
    <path d="M 442.705078125 195.75564575195312 C 440.80859375 197.845947265625 438.760009765625 200.53961181640625 439.69244384765625 203.2137451171875 C 440.1048583984375 204.26348876953125 440.83294677734375 205.15939331054688 441.776123046875 205.77783203125 C 444.0687255859375 207.37078857421875 446.9912109375 207.75375366210938 449.6168212890625 206.80526733398438 C 451.84197998046875 205.9949951171875 453.5843505859375 204.2940673828125 455.22991943359375 202.61129760742188 C 456.15277099609375 201.66455078125 457.1031494140625 200.62924194335938 457.34765625 199.33731079101562 C 457.6595458984375 197.61260986328125 456.6241455078125 195.93927001953125 455.488525390625 194.60501098632812 C 453.828857421875 192.6502685546875 451.86376953125 190.97705078125 449.66943359375 189.65023803710938 C 448.91033935546875 189.19326782226562 448.0853271484375 188.76593017578125 447.19970703125 188.75442504882812 C 446.375732421875 188.78585815429688 445.5787353515625 189.05636596679688 444.90576171875 189.532958984375 C 442.808349609375 190.8992919921875 441.4158935546875 193.11688232421875 441.096435546875 195.59963989257812 L 442.705078125 195.75564575195312" stroke-width="0.6000000238418579" fill="rgb(70, 150, 179)" opacity="1.0"/>
    <path d="M 415.43109130859375 135.44139099121094 C 414.3106689453125 132.75286865234375 412.9559326171875 129.8199005126953 410.2840881347656 128.66490173339844 C 407.4132080078125 127.42588806152344 403.9765625 128.78768920898438 401.7809753417969 131.01393127441406 C 400.93408203125 131.8719024658203 400.19268798828125 132.89874267578125 399.9770812988281 134.08473205566406 C 399.7994689941406 135.05960083007812 399.98870849609375 136.06109619140625 400.2305603027344 137.02182006835938 C 400.9896240234375 140.0523681640625 402.4231872558594 143.14450073242188 405.1165466308594 144.726318359375 C 407.8321228027344 146.3186798095703 411.57000732421875 145.94186401367188 413.9029541015625 143.82415771484375 C 416.2359619140625 141.70643615722656 417.0057373046875 138.03416442871094 415.695556640625 135.16644287109375 L 415.43109130859375 135.44139099121094" stroke-width="0.6000000238418579" fill="rgb(140, 28, 33)" opacity="1.0"/>
    <path d="M 404.8059387207031 83.31098937988281 C 404.8493347167969 85.1390380859375 404.9146423339844 87.04075622558594 405.7193908691406 88.68418884277344 C 406.5241394042969 90.32760620117188 408.3040771484375 91.64935302734375 410.1055908203125 91.33026123046875 C 412.3284912109375 90.931396484375 413.4962158203125 88.138671875 412.80908203125 85.9830322265625 C 412.1219482421875 83.82740783691406 410.1383972167969 82.3270263671875 408.06622314453125 81.42579650878906 C 407.4527282714844 81.08255004882812 406.73284912109375 80.98175048828125 406.0486755371094 81.143310546875 C 405.39617919921875 81.37261962890625 404.96832275390625 82.28421020507812 405.439697265625 82.79499816894531 L 404.8059387207031 83.31098937988281" stroke-width="0.6000000238418579" fill="rgb(159, 159, 159)" opacity="1.0"/>
    <path d="M 439.6612548828125 231.89410400390625 C 437.69580078125 234.109619140625 436.44671630859375 237.04681396484375 436.638427734375 240.000732421875 C 436.830078125 242.95465087890625 438.60528564453125 245.85400390625 441.33837890625 247.0230712890625 C 443.271728515625 247.84716796875 445.517333984375 247.76141357421875 447.50439453125 247.07122802734375 C 449.491455078125 246.381103515625 451.242919921875 245.129150390625 452.7760009765625 243.68829345703125 C 453.44281005859375 243.0609130859375 454.0968017578125 242.35452270507812 454.323486328125 241.46990966796875 C 454.5838623046875 240.45584106445312 454.236328125 239.39520263671875 453.84521484375 238.42059326171875 C 452.74114990234375 235.6690673828125 451.17333984375 232.98193359375 448.72222900390625 231.31326293945312 C 446.27117919921875 229.64459228515625 442.7828369140625 229.24505615234375 440.379638671875 230.96942138671875 L 439.6612548828125 231.89410400390625" stroke-width="0.6000000238418579" fill="rgb(159, 159, 159)" opacity="1.0"/>
    <path d="M 411.5146789550781 258.3749694824219 C 409.62945556640625 256.32666015625 407.4451904296875 254.13153076171875 404.6705017089844 253.98873901367188 C 401.9722595214844 253.8460693359375 399.6147766113281 255.6842041015625 397.5749816894531 257.45806884765625 C 396.7474060058594 258.1799011230469 395.8931579589844 258.9482116699219 395.5056457519531 259.9750671386719 C 394.8492126464844 261.7113952636719 395.7004699707031 263.648193359375 396.76861572265625 265.16302490234375 C 397.75946044921875 266.5694580078125 398.9471435546875 267.8262939453125 400.2952880859375 268.8951110839844 C 402.483642578125 270.63134765625 405.49591064453125 271.8619384765625 408.0400695800781 270.7107849121094 C 409.41448974609375 270.0913391113281 410.4391784667969 268.8477783203125 411.08331298828125 267.482177734375 C 411.7274475097656 266.1166076660156 412.029296875 264.617431640625 412.30621337890625 263.1331481933594 C 412.5831298828125 261.6488952636719 412.8233642578125 260.18450927734375 412.47503662109375 258.75238037109375 L 411.5146789550781 258.3749694824219" stroke-width="0.6000000238418579" fill="rgb(218, 166, 20)" opacity="1.0"/>
    <path d="M 411.859375 86.6427001953125 C 409.0259704589844 90.33953857421875 409.7259216308594 95.63336181640625 413.4227294921875 98.46676635742188 C 413.73931884765625 98.70939636230469 414.07269287109375 98.92926025390625 414.42041015625 99.12471008300781 C 415.7415771484375 99.86712646484375 417.337646484375 100.24362182617188 418.7926025390625 99.8221435546875 C 420.022216796875 99.466064453125 421.0286865234375 98.58883666992188 421.896484375 97.64892578125 C 424.2159423828125 95.12985229492188 425.81854248046875 92.03564453125 426.53790283203125 88.68777465820312 C 426.7265625 87.80252075195312 426.85107421875 86.87533569335938 426.62744140625 85.99624633789062 C 426.2530517578125 84.52020263671875 424.9439697265625 83.43392944335938 423.52734375 82.87245178222656 C 421.42462158203125 82.03741455078125 419.006591796875 82.16448974609375 416.90087890625 82.9931640625 C 414.795166015625 83.82180786132812 412.9879150390625 85.30805969238281 411.5707702636719 87.07206726074219 L 411.859375 86.6427001953125" stroke-width="0.6000000238418579" fill="rgb(143, 165, 67)" opacity="1.0"/>
    <path d="M 439.75146484375 128.3931121826172 C 436.24066162109375 133.13185119628906 440.37353515625 141.04498291015625 446.2274169921875 141.30345153808594 C 452.0814208984375 141.56192016601562 456.84759521484375 134.5343780517578 454.83154296875 128.9901580810547 C 452.8155517578125 123.4459228515625 445.25927734375 120.9739990234375 440.125244140625 123.89093017578125 L 439.75146484375 128.3931121826172" stroke-width="0.6000000238418579" fill="rgb(233, 92, 21)" opacity="1.0"/>
    <path d="M 441.2294921875 97.92706298828125 C 439.60614013671875 100.1800537109375 437.900634765625 103.0396728515625 439.107421875 105.55116271972656 C 439.62652587890625 106.53195190429688 440.437255859375 107.32748413085938 441.4276123046875 107.8280029296875 C 443.8448486328125 109.13232421875 446.74432373046875 109.18414306640625 449.20660400390625 107.96701049804688 C 451.29266357421875 106.92919921875 452.808349609375 105.07391357421875 454.2314453125 103.24710083007812 C 455.0291748046875 102.2196044921875 455.843994140625 101.10252380371094 455.9405517578125 99.81243896484375 C 456.0550537109375 98.09182739257812 454.85809326171875 96.57012939453125 453.6004638671875 95.39103698730469 C 451.7620849609375 93.66314697265625 449.65618896484375 92.24420166015625 447.3643798828125 91.18923950195312 C 446.57183837890625 90.82626342773438 445.7181396484375 90.49952697753906 444.8509521484375 90.58604431152344 C 444.048828125 90.70773315429688 443.2994384765625 91.0601806640625 442.6942138671875 91.60041809082031 C 440.79443359375 93.16773986816406 439.67779541015625 95.48956298828125 439.6395263671875 97.95211791992188 L 441.2294921875 97.92706298828125" stroke-width="0.6000000238418579" fill="rgb(70, 150, 179)" opacity="1.0"/>
    <path d="M 314.5197448730469 387.3970031738281 C 311.9966125488281 387.3738708496094 309.19891357421875 387.4541931152344 307.3689880371094 389.1890869140625 C 305.4043273925781 391.053955078125 305.3186950683594 394.2552490234375 306.34429931640625 396.7623291015625 C 306.73931884765625 397.7291259765625 307.3047790527344 398.6694030761719 308.1760559082031 399.24505615234375 C 308.89208984375 399.7185363769531 309.7543029785156 399.90887451171875 310.6019287109375 400.04339599609375 C 313.27447509765625 400.4708251953125 316.22576904296875 400.3819580078125 318.40301513671875 398.7752685546875 C 320.59625244140625 397.1544189453125 321.569091796875 394.04864501953125 320.6767272949219 391.4690856933594 C 319.7843322753906 388.8895263671875 317.1213073730469 387.0256652832031 314.3907775878906 387.0927429199219 L 314.5197448730469 387.3970031738281" stroke-width="0.6000000238418579" fill="rgb(140, 28, 33)" opacity="1.0"/>
    <path d="M 310.35736083984375 391.7132873535156 C 308.3934631347656 393.0678405761719 306.3648681640625 394.49896240234375 305.1468811035156 396.5523681640625 C 303.9289245605469 398.605712890625 303.7593078613281 401.4933166503906 305.395751953125 403.2310791015625 C 307.4205627441406 405.3716735839844 311.30322265625 404.64898681640625 313.1642761230469 402.357666015625 C 315.0252990722656 400.0663757324219 315.2442626953125 396.8288879394531 314.7460021972656 393.923095703125 C 314.6818542480469 393.0081481933594 314.277099609375 392.1505126953125 313.611572265625 391.5194091796875 C 312.8947448730469 390.9713439941406 311.593994140625 391.1562805175781 311.3736267089844 392.0359191894531 L 310.35736083984375 391.7132873535156" stroke-width="0.6000000238418579" fill="rgb(159, 159, 159)" opacity="1.0"/>
    <path d="M 325.9405822753906 404.56048583984375 C 323.2089538574219 405.9974060058594 320.9101257324219 408.4015197753906 320.00994873046875 411.3521728515625 C 319.10980224609375 414.3028564453125 319.7737121582031 417.7830810546875 322.00830078125 419.9287109375 C 323.590087890625 421.4437255859375 325.81109619140625 422.1864013671875 328.00250244140625 422.2447509765625 C 330.1939392089844 422.3031005859375 332.3623962402344 421.72698974609375 334.38739013671875 420.8863525390625 C 335.2684326171875 420.52001953125 336.1660461425781 420.0718994140625 336.7126159667969 419.2928466796875 C 337.33966064453125 418.39990234375 337.3910827636719 417.2379150390625 337.36846923828125 416.1436767578125 C 337.30450439453125 413.05462646484375 336.76470947265625 409.8576354980469 334.98895263671875 407.3286437988281 C 333.21319580078125 404.7996520996094 329.958984375 403.1263732910156 326.9812927246094 403.9233093261719 L 325.9405822753906 404.56048583984375" stroke-width="0.6000000238418579" fill="rgb(159, 159, 159)" opacity="1.0"/>
    <path d="M 270.7256164550781 407.9283752441406 C 268.25738525390625 409.458251953125 265.580078125 411.26568603515625 264.8897399902344 414.08050537109375 C 264.2145080566406 416.8170166015625 265.635498046875 419.5927734375 267.05291748046875 422.0303955078125 C 267.63018798828125 423.01983642578125 268.2498779296875 424.04571533203125 269.2259521484375 424.64404296875 C 270.8761901855469 425.6571044921875 273.0274353027344 425.1646728515625 274.78887939453125 424.36737060546875 C 276.4241027832031 423.6279296875 277.9447021484375 422.6575927734375 279.3040771484375 421.48590087890625 C 281.51202392578125 419.58428955078125 283.3634338378906 416.7393798828125 282.6828918457031 413.90704345703125 C 282.3177490234375 412.37744140625 281.24456787109375 411.0837707519531 279.9717712402344 410.15606689453125 C 278.698974609375 409.2283630371094 277.2221984863281 408.6251525878906 275.75579833984375 408.0504150390625 C 274.2893981933594 407.4756774902344 272.836181640625 406.9423522949219 271.30059814453125 407.0184631347656 L 270.7256164550781 407.9283752441406" stroke-width="0.6000000238418579" fill="rgb(218, 166, 20)" opacity="1.0"/>
    <path d="M 224.43621826171875 409.45477294921875 C 219.5023193359375 407.943359375 214.27737426757812 410.7178039550781 212.76596069335938 415.6517333984375 C 212.63653564453125 416.07421875 212.5372314453125 416.50531005859375 212.46881103515625 416.94189453125 C 212.20919799804688 418.6007080078125 212.43572998046875 420.4031982421875 213.43609619140625 421.7506103515625 C 214.28140258789062 422.889404296875 215.5814208984375 423.5948486328125 216.89288330078125 424.1322021484375 C 220.4052734375 425.565673828125 224.2374267578125 426.032470703125 227.9912109375 425.4842529296875 C 228.98321533203125 425.337646484375 229.99392700195312 425.108154296875 230.820068359375 424.5360107421875 C 232.20755004882812 423.5762939453125 232.82888793945312 421.797119140625 232.86376953125 420.1092529296875 C 232.91726684570312 417.6033935546875 231.8499755859375 415.142333984375 230.17514038085938 413.27679443359375 C 228.50030517578125 411.4112854003906 226.25830078125 410.11004638671875 223.87881469726562 409.32122802734375 L 224.43621826171875 409.45477294921875" stroke-width="0.6000000238418579" fill="rgb(143, 165, 67)" opacity="1.0"/>
    <path d="M 283.9324951171875 373.1854248046875 C 282.36651611328125 379.3607482910156 289.7412109375 385.5747985839844 295.6976623535156 383.43310546875 C 301.6540832519531 381.2914123535156 303.53631591796875 372.31396484375 299.24847412109375 367.59954833984375 C 294.9606018066406 362.8851318359375 286.3953552246094 363.5125732421875 282.460205078125 368.5326843261719 L 283.9324951171875 373.1854248046875" stroke-width="0.6000000238418579" fill="rgb(233, 92, 21)" opacity="1.0"/>
    <path d="M 337.54522705078125 370.5779724121094 C 336.24359130859375 373.1241760253906 334.9528503417969 376.3006896972656 336.5723876953125 378.6693115234375 C 337.2535705566406 379.5868225097656 338.2026672363281 380.2703857421875 339.2887878417969 380.6256408691406 C 341.9524841308594 381.5769348144531 344.91204833984375 381.17816162109375 347.22894287109375 379.55572509765625 C 349.1907958984375 378.1744384765625 350.4447937011719 376.0498352050781 351.6089172363281 373.9686279296875 C 352.2609558105469 372.7984619140625 352.91644287109375 371.5344543457031 352.81378173828125 370.2062072753906 C 352.6623840332031 368.4368896484375 351.20697021484375 367.07427978515625 349.7431640625 366.0699157714844 C 347.6027526855469 364.5973205566406 345.23809814453125 363.4808654785156 342.74090576171875 362.7638854980469 C 341.8775939941406 362.517822265625 340.9576416015625 362.31817626953125 340.0884704589844 362.5412902832031 C 339.2908935546875 362.7900695800781 338.58294677734375 363.2655334472656 338.05096435546875 363.90972900390625 C 336.3611755371094 365.801025390625 335.58612060546875 368.33837890625 335.9306640625 370.85107421875 L 337.54522705078125 370.5779724121094" stroke-width="0.6000000238418579" fill="rgb(70, 150, 179)" opacity="1.0"/>
    <path d="M 296.9361572265625 407.5181579589844 C 293.9279479980469 408.0599670410156 290.6163330078125 408.7868347167969 288.8298645019531 411.2646179199219 C 286.912353515625 413.92742919921875 287.5328063964844 417.7568359375 289.31915283203125 420.50927734375 C 290.0074462890625 421.57080078125 290.8926086425781 422.5623779296875 292.0594787597656 423.0509033203125 C 293.0185546875 423.45281982421875 294.0876770019531 423.48480224609375 295.1268615722656 423.45361328125 C 298.4040832519531 423.359375 301.8966064453125 422.587646484375 304.1253967285156 420.18408203125 C 306.3699951171875 417.7601318359375 306.8270263671875 413.8441162109375 305.1828918457031 410.9753723144531 C 303.53875732421875 408.1065979003906 299.9486999511719 406.4891662597656 296.7140197753906 407.18511962890625 L 296.9361572265625 407.5181579589844" stroke-width="0.6000000238418579" fill="rgb(140, 28, 33)" opacity="1.0"/>
    <path d="M 335.51263427734375 391.6759948730469 C 333.2912902832031 392.58502197265625 330.9898376464844 393.555419921875 329.351318359375 395.3116455078125 C 327.71282958984375 397.0678405761719 326.92529296875 399.86932373046875 328.1600036621094 401.9290466308594 C 329.6897888183594 404.4681701660156 333.66107177734375 404.5926513671875 335.9827575683594 402.7408752441406 C 338.304443359375 400.88909912109375 339.2156677246094 397.75433349609375 339.3507080078125 394.7913818359375 C 339.4844055175781 393.87835693359375 339.27099609375 392.94842529296875 338.7525634765625 392.1850891113281 C 338.1658935546875 391.4923400878906 336.8477478027344 391.3944396972656 336.44207763671875 392.2115783691406 L 335.51263427734375 391.6759948730469" stroke-width="0.6000000238418579" fill="rgb(159, 159, 159)" opacity="1.0"/>
    <path d="M 349.3346862792969 402.0780944824219 C 346.2923889160156 402.58868408203125 343.3587646484375 404.1527099609375 341.5821838378906 406.6726379394531 C 339.80560302734375 409.19256591796875 339.3484191894531 412.7039794921875 340.7993469238281 415.439208984375 C 341.82763671875 417.371826171875 343.7040710449219 418.7708740234375 345.7662658691406 419.51104736328125 C 347.8284912109375 420.251220703125 350.067138671875 420.3818359375 352.2522888183594 420.216552734375 C 353.2031555175781 420.14404296875 354.1953125 419.9991455078125 354.9576721191406 419.4302978515625 C 355.83197021484375 418.778564453125 356.243896484375 417.69140625 356.5643005371094 416.6456298828125 C 357.4688720703125 413.6929931640625 357.95538330078125 410.4892272949219 357.059814453125 407.533447265625 C 356.16424560546875 404.5776672363281 353.5976867675781 401.9722900390625 350.52178955078125 401.7983703613281 L 349.3346862792969 402.0780944824219" stroke-width="0.6000000238418579" fill="rgb(159, 159, 159)" opacity="1.0"/>
    <path d="M 261.57220458984375 376.39569091796875 C 260.5860900878906 373.73699951171875 259.3747863769531 370.824462890625 256.814453125 369.61846923828125 C 254.326171875 368.442138671875 251.39422607421875 369.2644958496094 248.78656005859375 370.14892578125 C 247.72775268554688 370.5097961425781 246.6258544921875 370.9041748046875 245.86407470703125 371.7224426269531 C 244.57489013671875 373.1056823730469 244.62945556640625 375.260009765625 245.05136108398438 377.100341796875 C 245.44232177734375 378.80865478515625 246.0765380859375 380.45196533203125 246.93460083007812 381.97998046875 C 248.32696533203125 384.4615783691406 250.69119262695312 386.7846374511719 253.5338134765625 386.6819152832031 C 255.06854248046875 386.6286926269531 256.51458740234375 385.8521728515625 257.6490478515625 384.8136901855469 C 258.78350830078125 383.7751770019531 259.64691162109375 382.4786071777344 260.4810485839844 381.1864318847656 C 261.3151550292969 379.894287109375 262.1070861816406 378.6067199707031 262.33172607421875 377.12225341796875 L 261.57220458984375 376.39569091796875" stroke-width="0.6000000238418579" fill="rgb(218, 166, 20)" opacity="1.0"/>
    <path d="M 259.5708312988281 395.2239990234375 C 255.5120849609375 392.5376892089844 250.04412841796875 393.6502990722656 247.35781860351562 397.7090759277344 C 247.1278076171875 398.0566101074219 246.9227294921875 398.4200439453125 246.74411010742188 398.796630859375 C 246.06573486328125 400.2276611328125 245.7886962890625 401.9186706542969 246.33331298828125 403.4049377441406 C 246.79345703125 404.6610107421875 247.78076171875 405.646728515625 248.82333374023438 406.4833984375 C 251.61715698242188 408.7190856933594 254.95864868164062 410.16595458984375 258.5007019042969 410.6736755371094 C 259.43719482421875 410.8063049316406 260.4127502441406 410.8689880371094 261.31298828125 410.5723571777344 C 262.8246154785156 410.0752258300781 263.8623352050781 408.6320495605469 264.34515380859375 407.1145935058594 C 265.0635681152344 404.86224365234375 264.75616455078125 402.35076904296875 263.739990234375 400.215576171875 C 262.7238464355469 398.0803527832031 261.04376220703125 396.3038635253906 259.10235595703125 394.9541931152344 L 259.5708312988281 395.2239990234375" stroke-width="0.6000000238418579" fill="rgb(143, 165, 67)" opacity="1.0"/>
    <path d="M 208.46725463867188 376.41595458984375 C 205.28070068359375 382.0646057128906 210.86700439453125 390.13751220703125 217.29022216796875 389.623291015625 C 223.71337890625 389.1090393066406 227.95849609375 380.7919921875 225.00439453125 375.01617431640625 C 222.05029296875 369.2403564453125 213.4683837890625 367.57073974609375 208.2626953125 371.4521789550781 L 208.46725463867188 376.41595458984375" stroke-width="0.6000000238418579" fill="rgb(233, 92, 21)" opacity="1.0"/>
    <path d="M 267.7633972167969 374.8194580078125 C 266.2806091308594 377.35626220703125 264.7724609375 380.54034423828125 266.2967834472656 383.06414794921875 C 266.9425048828125 384.0448913574219 267.8766174316406 384.8011169433594 268.9703369140625 385.2284851074219 C 271.6479797363281 386.3586730957031 274.7073059082031 386.1209411621094 277.17822265625 384.59063720703125 C 279.2708740234375 383.2871398925781 280.6803894042969 381.1800842285156 281.9952087402344 379.11236572265625 C 282.7319030761719 377.9496154785156 283.4775695800781 376.6908264160156 283.44915771484375 375.32220458984375 C 283.39630126953125 373.4982604980469 281.9820556640625 372.0160827636719 280.5384826660156 370.9009094238281 C 278.4278869628906 369.2662048339844 276.06658935546875 367.98388671875 273.54620361328125 367.1037292480469 C 272.6747741699219 366.8013000488281 271.7425537109375 366.543212890625 270.8379211425781 366.7217712402344 C 270.0052795410156 366.9308166503906 269.25146484375 367.37762451171875 268.6683654785156 368.0076904296875 C 266.8252868652344 369.85015869140625 265.8832092285156 372.40838623046875 266.0911865234375 375.0061340332031 L 267.7633972167969 374.8194580078125" stroke-width="0.6000000238418579" fill="rgb(70, 150, 179)" opacity="1.0"/>
    <path d="M 331.60546875 370.8249816894531 C 330.9247131347656 367.8822021484375 330.0466003417969 364.64892578125 327.51434326171875 363.00592041015625 C 324.7930908203125 361.2425842285156 321.0435791015625 362.0408020019531 318.41363525390625 363.9375 C 317.3993225097656 364.6683654785156 316.4636535644531 365.5901184082031 316.0381164550781 366.7655029296875 C 315.68792724609375 367.73162841796875 315.708251953125 368.78839111328125 315.7894287109375 369.81256103515625 C 316.04156494140625 373.0426025390625 316.97271728515625 376.4522399902344 319.45318603515625 378.535400390625 C 321.9545593261719 380.6331787109375 325.84173583984375 380.89422607421875 328.5934143066406 379.1322326660156 C 331.3450927734375 377.3702392578125 332.76727294921875 373.7484130859375 331.92340087890625 370.5895690917969 L 331.60546875 370.8249816894531" stroke-width="0.6000000238418579" fill="rgb(140, 28, 33)" opacity="1.0"/>
    <path d="M 351.43426513671875 390.8238830566406 C 349.3448791503906 391.9759826660156 347.1834716796875 393.1978454589844 345.76666259765625 395.1197509765625 C 344.3498840332031 397.0416259765625 343.8931579589844 399.8982238769531 345.3483581542969 401.7906799316406 C 347.1498107910156 404.12274169921875 351.0855712890625 403.7907409667969 353.166015625 401.69622802734375 C 355.2464599609375 399.6016845703125 355.78717041015625 396.4018249511719 355.58111572265625 393.4605407714844 C 355.6085510253906 392.5436706542969 355.2912902832031 391.64984130859375 354.6919250488281 390.9554443359375 C 354.0332336425781 390.3385925292969 352.72039794921875 390.3929138183594 352.41339111328125 391.24627685546875 L 351.43426513671875 390.8238830566406" stroke-width="0.6000000238418579" fill="rgb(159, 159, 159)" opacity="1.0"/>
    <path d="M 187.58697509765625 402.87420654296875 C 184.4871826171875 403.3778991699219 181.49240112304688 404.9546203613281 179.67050170898438 407.5105895996094 C 177.84857177734375 410.0665283203125 177.3646240234375 413.6387939453125 178.82723999023438 416.4310302734375 C 179.86383056640625 418.40380859375 181.76669311523438 419.83807373046875 183.86212158203125 420.6024169921875 C 185.95758056640625 421.3668212890625 188.23590087890625 421.51165771484375 190.4613037109375 421.35491943359375 C 191.4296875 421.2861328125 192.44049072265625 421.1439208984375 193.21957397460938 420.56884765625 C 194.11309814453125 419.909912109375 194.53817749023438 418.805419921875 194.869873046875 417.742431640625 C 195.80633544921875 414.7413330078125 196.31854248046875 411.48248291015625 195.4224853515625 408.46868896484375 C 194.5263671875 405.4549255371094 191.9273681640625 402.78900146484375 188.79693603515625 402.595703125 L 187.58697509765625 402.87420654296875" stroke-width="0.6000000238418579" fill="rgb(159, 159, 159)" opacity="1.0"/>
    <path d="M 353.4216003417969 374.5823669433594 C 350.7374572753906 374.60125732421875 347.7547302246094 374.738525390625 345.8548889160156 376.62725830078125 C 344.0046691894531 378.46148681640625 343.78961181640625 381.3358459472656 343.7344970703125 383.9417419433594 C 343.71368408203125 385.0003662109375 343.7087707519531 386.1081848144531 344.1908874511719 387.0502624511719 C 345.0053405761719 388.64404296875 346.93988037109375 389.2911682128906 348.713623046875 389.5100402832031 C 350.35992431640625 389.7138366699219 352.02691650390625 389.68017578125 353.66363525390625 389.4101257324219 C 356.3213806152344 388.9725646972656 359.1518859863281 387.6190490722656 359.9784240722656 385.0565185546875 C 360.42669677734375 383.6737365722656 360.20269775390625 382.1363220214844 359.6449890136719 380.7915344238281 C 359.0872802734375 379.4467468261719 358.21240234375 378.2597961425781 357.3320007324219 377.1003112792969 C 356.45159912109375 375.94085693359375 355.5616760253906 374.8204345703125 354.3133544921875 374.14117431640625 L 353.4216003417969 374.5823669433594" stroke-width="0.6000000238418579" fill="rgb(218, 166, 20)" opacity="1.0"/>
    <path d="M 369.0441589355469 391.1698303222656 C 364.51385498046875 392.7809753417969 362.1474304199219 397.75958251953125 363.758544921875 402.2898864746094 C 363.8965148925781 402.6778259277344 364.06182861328125 403.0554504394531 364.25323486328125 403.4200134277344 C 364.9808044433594 404.8050231933594 366.15185546875 406.0274353027344 367.64886474609375 406.4793701171875 C 368.9139099121094 406.8614196777344 370.2783203125 406.6667175292969 371.5578308105469 406.3398742675781 C 374.9815368652344 405.4603271484375 378.1073303222656 403.6800537109375 380.6104431152344 401.1840515136719 C 381.2709655761719 400.5231628417969 381.8994445800781 399.7899169921875 382.199462890625 398.90289306640625 C 382.7039794921875 397.4140625 382.1800842285156 395.738037109375 381.2682189941406 394.4561462402344 C 379.9158020019531 392.55206298828125 377.7499084472656 391.3043212890625 375.4605712890625 390.8396301269531 C 373.17120361328125 390.37493896484375 370.7711486816406 390.6474609375 368.55303955078125 391.3796691894531 L 369.0441589355469 391.1698303222656" stroke-width="0.6000000238418579" fill="rgb(143, 165, 67)" opacity="1.0"/>
    <path d="M 361.63775634765625 371.42431640625 C 360.1611022949219 377.5906677246094 367.58258056640625 383.67718505859375 373.4820251464844 381.4669189453125 C 379.3814392089844 379.25665283203125 381.1357421875 370.2974548339844 376.80609130859375 365.6625061035156 C 372.4764099121094 361.02752685546875 363.960693359375 361.765380859375 360.1109313964844 366.8134460449219 L 361.63775634765625 371.42431640625" stroke-width="0.6000000238418579" fill="rgb(233, 92, 21)" opacity="1.0"/>
    <path d="M 391.6028747558594 371.6751708984375 C 390.1712646484375 374.32073974609375 388.7355651855469 377.62945556640625 390.38031005859375 380.1603088378906 C 391.07403564453125 381.1419982910156 392.0552978515625 381.8842468261719 393.1887512207031 382.28460693359375 C 395.9665222167969 383.3507080078125 399.0887145996094 383.0043029785156 401.56524658203125 381.355224609375 C 403.6624450683594 379.95098876953125 405.0335693359375 377.7475891113281 406.3091125488281 375.587646484375 C 407.0236511230469 374.3731384277344 407.7441711425781 373.0600280761719 407.6689453125 371.66064453125 C 407.5533752441406 369.7962341308594 406.056396484375 368.3274230957031 404.5417785644531 367.2350769042969 C 402.3271484375 365.6336669921875 399.867919921875 364.4012756347656 397.25946044921875 363.5857238769531 C 396.357666015625 363.3056640625 395.3951416015625 363.0730285644531 394.4755859375 363.2862243652344 C 393.6307067871094 363.5281982421875 392.8744812011719 364.0107727050781 392.29913330078125 364.67510986328125 C 390.4754638671875 366.62237548828125 389.5978088378906 369.2716369628906 389.8982238769531 371.9225769042969 L 391.6028747558594 371.6751708984375" stroke-width="0.6000000238418579" fill="rgb(70, 150, 179)" opacity="1.0"/>
    <path d="M 385.70306396484375 406.13848876953125 C 383.6344299316406 408.45745849609375 381.43890380859375 411.1147155761719 381.56158447265625 414.21783447265625 C 381.6953430175781 417.55120849609375 384.5919189453125 420.22796630859375 387.7469177246094 421.3118896484375 C 388.9631652832031 421.7303466796875 390.29315185546875 421.9693603515625 391.5334167480469 421.629150390625 C 392.5531005859375 421.349853515625 393.42901611328125 420.7054443359375 394.24139404296875 420.029296875 C 396.8058166503906 417.89990234375 399.1180725097656 415.0933837890625 399.39599609375 411.7724914550781 C 399.67376708984375 408.42535400390625 397.5855407714844 405.00408935546875 394.47149658203125 403.7379150390625 C 391.3574523925781 402.47174072265625 387.4698486328125 403.4267883300781 385.3165283203125 406.0111083984375 L 385.70306396484375 406.13848876953125" stroke-width="0.6000000238418579" fill="rgb(140, 28, 33)" opacity="1.0"/>
    <path d="M 402.570556640625 395.28961181640625 C 401.1006164550781 397.1904296875 399.5920104980469 399.1845397949219 399.05169677734375 401.5276794433594 C 398.51141357421875 403.87078857421875 399.2323913574219 406.69354248046875 401.33453369140625 407.8601989746094 C 403.9325866699219 409.2945556640625 407.43707275390625 407.412841796875 408.5216369628906 404.6446228027344 C 409.606201171875 401.87640380859375 408.8254699707031 398.7027893066406 407.45806884765625 396.0669860839844 C 407.11651611328125 395.2086181640625 406.46563720703125 394.509521484375 405.63385009765625 394.1076354980469 C 404.77825927734375 393.8011169433594 403.5867004394531 394.37664794921875 403.64447021484375 395.2881774902344 L 402.570556640625 395.28961181640625" stroke-width="0.6000000238418579" fill="rgb(159, 159, 159)" opacity="1.0"/>
    <path d="M 424.7919921875 372.8412170410156 C 424.090087890625 375.8688659667969 424.4102783203125 379.2029113769531 426.06719970703125 381.83038330078125 C 427.72418212890625 384.4578552246094 430.8138427734375 386.2414855957031 433.91961669921875 385.9498291015625 C 436.11517333984375 385.7408142089844 438.142578125 384.53643798828125 439.62884521484375 382.90435791015625 C 441.1151123046875 381.27227783203125 442.10260009765625 379.24029541015625 442.7940673828125 377.1435852050781 C 443.094482421875 376.2309875488281 443.343505859375 375.251953125 443.1092529296875 374.3227233886719 C 442.8411865234375 373.2572937011719 441.98919677734375 372.45355224609375 441.1402587890625 371.75091552734375 C 438.743408203125 369.76727294921875 435.9512939453125 368.07537841796875 432.855224609375 367.7651062011719 C 429.75909423828125 367.454833984375 426.34259033203125 368.8345642089844 424.990966796875 371.6286926269531 L 424.7919921875 372.8412170410156" stroke-width="0.6000000238418579" fill="rgb(159, 159, 159)" opacity="1.0"/>
    <path d="M 416.9508056640625 402.2189025878906 C 414.24169921875 403.3441467285156 411.27923583984375 404.7122497558594 410.13458251953125 407.40692138671875 C 409.0177001953125 410.0259094238281 409.9845275878906 413.02392578125 411.0025939941406 415.68426513671875 C 411.41778564453125 416.764404296875 411.86932373046875 417.8876953125 412.74554443359375 418.642578125 C 414.2266845703125 419.920166015625 416.45147705078125 419.7779541015625 418.3370361328125 419.2685546875 C 420.08740234375 418.79638671875 421.7608642578125 418.07537841796875 423.30615234375 417.1275634765625 C 425.81597900390625 415.58941650390625 428.1231689453125 413.052978515625 427.90380859375 410.1186218261719 C 427.7877197265625 408.5342712402344 426.9273681640625 407.0704345703125 425.8087158203125 405.9390869140625 C 424.6900634765625 404.8077392578125 423.3154296875 403.96685791015625 421.9464111328125 403.15606689453125 C 420.5775146484375 402.3453063964844 419.21502685546875 401.57794189453125 417.671630859375 401.40484619140625 L 416.9508056640625 402.2189025878906" stroke-width="0.6000000238418579" fill="rgb(218, 166, 20)" opacity="1.0"/>
    <path d="M 143.93692016601562 233.57723999023438 C 139.9377899169922 236.77880859375 139.29122924804688 242.6160888671875 142.49278259277344 246.615234375 C 142.76693725585938 246.95767211914062 143.06503295898438 247.28024291992188 143.38482666015625 247.58050537109375 C 144.60020446777344 248.72119140625 146.20538330078125 249.54351806640625 147.8700714111328 249.4765625 C 149.27685546875 249.42013549804688 150.58258056640625 248.7484130859375 151.75677490234375 247.9732666015625 C 154.8969268798828 245.89404296875 157.423095703125 243.01190185546875 159.07281494140625 239.6263427734375 C 159.50738525390625 238.73068237304688 159.88446044921875 237.77337646484375 159.87722778320312 236.7757568359375 C 159.86602783203125 235.1009521484375 158.75424194335938 233.59628295898438 157.3892822265625 232.6236572265625 C 155.36386108398438 231.17828369140625 152.74832153320312 230.67724609375 150.281494140625 231.00762939453125 C 147.81468200683594 231.3380126953125 145.49343872070312 232.44921875 143.51565551757812 233.959716796875 L 143.93692016601562 233.57723999023438" stroke-width="0.6000000238418579" fill="rgb(143, 165, 67)" opacity="1.0"/>
    <path d="M 162.2418212890625 267.8636474609375 C 160.78662109375 274.1350402832031 168.36526489257812 280.26177978515625 174.33929443359375 277.9754943847656 C 180.31332397460938 275.689208984375 182.030517578125 266.5802307128906 177.60137939453125 261.9051818847656 C 173.17230224609375 257.2301330566406 164.5313720703125 258.0401306152344 160.65869140625 263.19305419921875 L 162.2418212890625 267.8636474609375" stroke-width="0.6000000238418579" fill="rgb(233, 92, 21)" opacity="1.0"/>
    <path d="M 154.72158813476562 318.01043701171875 C 152.74215698242188 320.22607421875 150.60748291015625 323.0780029296875 151.61050415039062 325.8854064941406 C 152.05313110351562 326.9870910644531 152.82672119140625 327.9242858886719 153.8245849609375 328.56768798828125 C 156.25067138671875 330.22601318359375 159.330078125 330.6055908203125 162.08624267578125 329.5860290527344 C 164.4219970703125 328.71514892578125 166.242431640625 326.9106140136719 167.9610595703125 325.12603759765625 C 168.92486572265625 324.1219787597656 169.9168701171875 323.0245361328125 170.16390991210938 321.6626281738281 C 170.47830200195312 319.8446044921875 169.37490844726562 318.0915222167969 168.168701171875 316.6961975097656 C 166.40591430664062 314.6519470214844 164.32388305664062 312.9064636230469 162.00335693359375 311.5274963378906 C 161.20065307617188 311.0525817871094 160.32876586914062 310.6094055175781 159.39645385742188 310.60443115234375 C 158.52935791015625 310.6441650390625 157.6925048828125 310.9353332519531 156.988037109375 311.4424743652344 C 154.7911834716797 312.8975830078125 153.34326171875 315.2431640625 153.02700805664062 317.85919189453125 L 154.72158813476562 318.01043701171875" stroke-width="0.6000000238418579" fill="rgb(70, 150, 179)" opacity="1.0"/>
    <path d="M 128.50003051757812 295.257568359375 C 126.992431640625 292.52838134765625 125.20681762695312 289.5665588378906 122.22842407226562 288.6510925292969 C 119.02838134765625 287.6695861816406 115.53146362304688 289.52178955078125 113.45651245117188 292.1481628417969 C 112.65606689453125 293.16046142578125 111.9876708984375 294.34002685546875 111.89739990234375 295.6272277832031 C 111.82278442382812 296.68536376953125 112.14164733886719 297.728759765625 112.51171875 298.7226257324219 C 113.67494201660156 301.8581237792969 115.56309509277344 304.98004150390625 118.61447143554688 306.3471374511719 C 121.69075012207031 307.72283935546875 125.62371826171875 306.88336181640625 127.85760498046875 304.3563232421875 C 130.09146118164062 301.8293151855469 130.479736328125 297.8315734863281 128.74913024902344 294.9339904785156 L 128.50003051757812 295.257568359375" stroke-width="0.6000000238418579" fill="rgb(140, 28, 33)" opacity="1.0"/>
    <path d="M 140.66714477539062 269.6250305175781 C 138.4371795654297 270.59246826171875 136.12744140625 271.6237487792969 134.50555419921875 273.4366760253906 C 132.88369750976562 275.24957275390625 132.14559936523438 278.10284423828125 133.4393768310547 280.1622619628906 C 135.04209899902344 282.7008361816406 139.0657958984375 282.7428283691406 141.37738037109375 280.8186950683594 C 143.68896484375 278.8945617675781 144.54527282714844 275.7012023925781 144.61927795410156 272.6982421875 C 144.73533630371094 271.77093505859375 144.4995574951172 270.8338623046875 143.95848083496094 270.0719299316406 C 143.34979248046875 269.3829040527344 142.01304626464844 269.3116760253906 141.61956787109375 270.14764404296875 L 140.66714477539062 269.6250305175781" stroke-width="0.6000000238418579" fill="rgb(159, 159, 159)" opacity="1.0"/>
    <path d="M 156.49923706054688 292.4115295410156 C 154.493408203125 294.8428649902344 153.2769012451172 298.0143737792969 153.59341430664062 301.1487121582031 C 153.90994262695312 304.2830810546875 155.90858459472656 307.29901123046875 158.8599853515625 308.43817138671875 C 160.9476318359375 309.24090576171875 163.3326416015625 309.06402587890625 165.41970825195312 308.25421142578125 C 167.50677490234375 307.4444274902344 169.32183837890625 306.04608154296875 170.89739990234375 304.4552001953125 C 171.5826416015625 303.7624816894531 172.25128173828125 302.98626708984375 172.45864868164062 302.0367736816406 C 172.6968994140625 300.9483337402344 172.28680419921875 299.83355712890625 171.83367919921875 298.8119201660156 C 170.55447387695312 295.9276123046875 168.78448486328125 293.12945556640625 166.114013671875 291.4482116699219 C 163.4434814453125 289.7669677734375 159.7181396484375 289.47509765625 157.22802734375 291.40069580078125 L 156.49923706054688 292.4115295410156" stroke-width="0.6000000238418579" fill="rgb(159, 159, 159)" opacity="1.0"/>
    <path d="M 129.1037139892578 346.6159973144531 C 127.712158203125 344.031494140625 126.05340576171875 341.2189636230469 123.25592041015625 340.34912109375 C 120.53656005859375 339.4993896484375 117.64849853515625 340.7621765136719 115.10176086425781 342.04217529296875 C 114.06794738769531 342.5636901855469 112.99473571777344 343.125732421875 112.3309326171875 344.07366943359375 C 111.207275390625 345.6763000488281 111.57159423828125 347.8770751953125 112.267578125 349.7033996582031 C 112.91291809082031 351.39874267578125 113.79835510253906 352.99267578125 114.89677429199219 354.43634033203125 C 116.67945861816406 356.7811279296875 119.435791015625 358.82427978515625 122.3353271484375 358.3120422363281 C 123.90110778808594 358.03778076171875 125.27239990234375 357.0346984863281 126.28677368164062 355.8076477050781 C 127.3011474609375 354.5805969238281 128.00070190429688 353.12774658203125 128.67086791992188 351.6836242675781 C 129.3410186767578 350.239501953125 129.9685821533203 348.80615234375 129.9863739013672 347.25213623046875 L 129.1037139892578 346.6159973144531" stroke-width="0.6000000238418579" fill="rgb(218, 166, 20)" opacity="1.0"/>
    <path d="M 162.70355224609375 343.892578125 C 158.69479370117188 347.1630859375 158.0963134765625 353.0641174316406 161.3668212890625 357.0728759765625 C 161.64688110351562 357.4161376953125 161.950927734375 357.7391052246094 162.27670288085938 358.03936767578125 C 163.51470947265625 359.17999267578125 165.1434326171875 359.9954528808594 166.82394409179688 359.91229248046875 C 168.24407958984375 359.8421630859375 169.55645751953125 359.1516418457031 170.73501586914062 358.35784912109375 C 173.88677978515625 356.228759765625 176.4110107421875 353.29461669921875 178.04547119140625 349.86016845703125 C 178.4759521484375 348.9516296386719 178.84783935546875 347.9813232421875 178.83120727539062 346.97393798828125 C 178.80426025390625 345.2826843261719 177.66748046875 343.7735290527344 176.27996826171875 342.8040466308594 C 174.22100830078125 341.36328125 171.574951171875 340.8817138671875 169.08685302734375 341.2383728027344 C 166.59872436523438 341.5950622558594 164.26492309570312 342.7388916015625 162.28167724609375 344.28277587890625 L 162.70355224609375 343.892578125" stroke-width="0.6000000238418579" fill="rgb(143, 165, 67)" opacity="1.0"/>
    <path d="M 135.81524658203125 376.4317626953125 C 131.59620666503906 371.3759765625 121.92262268066406 373.7799987792969 120.10287475585938 380.06439208984375 C 118.28314208984375 386.3487548828125 124.65576171875 393.3686218261719 131.20213317871094 392.6387939453125 C 137.74850463867188 391.9089660644531 142.41778564453125 384.3593444824219 140.60247802734375 378.0211486816406 L 135.81524658203125 376.4317626953125" stroke-width="0.6000000238418579" fill="rgb(233, 92, 21)" opacity="1.0"/>
    <path d="M 175.5469970703125 368.6994934082031 C 173.74908447265625 371.16937255859375 171.85763549804688 374.3061828613281 173.17181396484375 377.0755615234375 C 173.73770141601562 378.15728759765625 174.62530517578125 379.03680419921875 175.71221923828125 379.5926818847656 C 178.36447143554688 381.0404968261719 181.553955078125 381.1129455566406 184.26922607421875 379.7870788574219 C 186.56964111328125 378.6564636230469 188.24697875976562 376.62353515625 189.822265625 374.62139892578125 C 190.70535278320312 373.49530029296875 191.60772705078125 372.2707214355469 191.72076416015625 370.85198974609375 C 191.85592651367188 368.959716796875 190.54721069335938 367.279296875 189.16998291015625 365.9754943847656 C 187.15676879882812 364.0648193359375 184.84759521484375 362.4925842285156 182.33197021484375 361.3197937011719 C 181.4620361328125 360.916259765625 180.5245361328125 360.5522766113281 179.57015991210938 360.642822265625 C 178.68707275390625 360.7724304199219 177.86077880859375 361.1561584472656 177.1920166015625 361.74725341796875 C 175.09368896484375 363.46136474609375 173.85293579101562 366.0096740722656 173.7977294921875 368.71856689453125 L 175.5469970703125 368.6994934082031" stroke-width="0.6000000238418579" fill="rgb(70, 150, 179)" opacity="1.0"/>
  </g>
</svg>
