<?xml version="1.0" ?>
<svg xmlns="http://www.w3.org/2000/svg" version="1.1" width="600" height="600">
  <defs/>
  <g>
    <path d="M 353.5204772949219 337.9902038574219 C 356.7991943359375 339.3307189941406 360.791748046875 335.751708984375 360.0739440917969 332.30633544921875 C 359.35614013671875 328.8609313964844 354.55914306640625 327.1292419433594 351.63134765625 329.1248779296875 C 348.70355224609375 331.1205139160156 348.3855895996094 335.88494873046875 350.8447265625 338.4404296875 L 353.5204772949219 337.9902038574219" stroke-width="0.6000000238418579" fill="rgb(233, 92, 21)" opacity="1.0"/>
    <path d="M 103.989990234375 199.80667114257812 C 105.34791564941406 198.7943115234375 106.86500549316406 197.4442138671875 106.624267578125 195.76177978515625 C 106.50241088867188 195.09600830078125 106.17695617675781 194.48440551757812 105.69277954101562 194.01141357421875 C 104.52633666992188 192.80889892578125 102.849365234375 192.246337890625 101.19369506835938 192.50213623046875 C 99.78976440429688 192.72274780273438 98.56747436523438 193.5235595703125 97.404296875 194.3248291015625 C 96.75161743164062 194.77597045898438 96.07254028320312 195.27609252929688 95.77952575683594 196.00872802734375 C 95.39695739746094 196.988525390625 95.81376647949219 198.0933837890625 96.3287353515625 199.0101318359375 C 97.08074951171875 200.35272216796875 98.04510498046875 201.56475830078125 99.18438720703125 202.59921264648438 C 99.5787353515625 202.95587158203125 100.01531982421875 203.30267333984375 100.53555297851562 203.41156005859375 C 101.02444458007812 203.48809814453125 101.52505493164062 203.42068481445312 101.976318359375 203.21759033203125 C 103.36912536621094 202.65481567382812 104.4449462890625 201.50936889648438 104.91937255859375 200.08404541015625 L 103.989990234375 199.80667114257812" stroke-width="0.6000000238418579" fill="rgb(70, 150, 179)" opacity="1.0"/>
    <path d="M 462.363037109375 431.411865234375 C 463.44586181640625 433.31787109375 464.72613525390625 435.385009765625 466.82769775390625 436.0035400390625 C 469.085693359375 436.66668701171875 471.5284423828125 435.3350830078125 472.965087890625 433.47125244140625 C 473.51934814453125 432.75286865234375 473.9793701171875 431.91796875 474.031982421875 431.0123291015625 C 474.07550048828125 430.26776123046875 473.842529296875 429.536865234375 473.57403564453125 428.84130859375 C 472.7298583984375 426.646728515625 471.376220703125 424.4678955078125 469.219482421875 423.532470703125 C 467.0452880859375 422.5911865234375 464.287353515625 423.2144775390625 462.7381591796875 425.009765625 C 461.18896484375 426.80517578125 460.9495849609375 429.618896484375 462.190673828125 431.64141845703125 L 462.363037109375 431.411865234375" stroke-width="0.6000000238418579" fill="rgb(140, 28, 33)" opacity="1.0"/>
    <path d="M 92.550537109375 192.27642822265625 C 93.14595031738281 191.91720581054688 93.76155090332031 191.536865234375 94.15237426757812 190.9610595703125 C 94.54318237304688 190.38531494140625 94.643798828125 189.5482177734375 94.19854736328125 189.01358032226562 C 93.64747619628906 188.3548583984375 92.50505065917969 188.49615478515625 91.92291259765625 189.1297607421875 C 91.34078979492188 189.7633056640625 91.2196044921875 190.70132446289062 91.31295776367188 191.55557250976562 C 91.31536865234375 191.82290649414062 91.41790771484375 192.07958984375 91.60032653808594 192.2750244140625 C 91.79913330078125 192.44720458984375 92.18086242675781 192.41650390625 92.26058959960938 192.16448974609375 L 92.550537109375 192.27642822265625" stroke-width="0.6000000238418579" fill="rgb(159, 159, 159)" opacity="1.0"/>
    <path d="M 380.35076904296875 300.7917785644531 C 382.2891540527344 299.9146423339844 383.9692077636719 298.354248046875 384.70916748046875 296.36065673828125 C 385.4491271972656 294.3670654296875 385.1344909667969 291.9451904296875 383.68450927734375 290.3774108886719 C 382.6579895019531 289.2702941894531 381.1600341796875 288.6684875488281 379.65447998046875 288.538818359375 C 378.14892578125 288.40911865234375 376.63323974609375 288.71697998046875 375.2054748535156 289.21270751953125 C 374.5842590332031 289.42877197265625 373.94830322265625 289.7004089355469 373.54034423828125 290.21417236328125 C 373.0723876953125 290.802978515625 372.9895324707031 291.6004943847656 372.9604187011719 292.3543395996094 C 372.8782043457031 294.48260498046875 373.1190185546875 296.7044982910156 374.23760986328125 298.51727294921875 C 375.356201171875 300.3300476074219 377.5270690917969 301.6144104003906 379.6086120605469 301.1877136230469 L 380.35076904296875 300.7917785644531" stroke-width="0.6000000238418579" fill="rgb(159, 159, 159)" opacity="1.0"/>
    <path d="M 102.70018005371094 431.4932861328125 C 104.09860229492188 430.11572265625 105.59335327148438 428.52392578125 105.62762451171875 426.5650634765625 C 105.66363525390625 424.66009521484375 104.31185913085938 423.04266357421875 103.01298522949219 421.6475830078125 C 102.4844970703125 421.08160400390625 101.922607421875 420.4979248046875 101.18968200683594 420.2493896484375 C 99.95033264160156 419.828369140625 98.60577392578125 420.474609375 97.56375122070312 421.2635498046875 C 96.59628295898438 421.9954833984375 95.73895263671875 422.862548828125 95.01795959472656 423.838134765625 C 93.84671020507812 425.421875 93.051513671875 427.57421875 93.92361450195312 429.339599609375 C 94.39303588867188 430.29339599609375 95.29391479492188 430.98577880859375 96.27169799804688 431.4071044921875 C 97.24948120117188 431.828369140625 98.31320190429688 432.0052490234375 99.3658447265625 432.1649169921875 C 100.41848754882812 432.32452392578125 101.45622253417969 432.4588623046875 102.45716857910156 432.1790771484375 L 102.70018005371094 431.4932861328125" stroke-width="0.6000000238418579" fill="rgb(218, 166, 20)" opacity="1.0"/>
    <path d="M 100.76127624511719 139.1657257080078 C 103.71763610839844 140.03005981445312 106.81491088867188 138.33412170410156 107.67922973632812 135.37777709960938 C 107.75326538085938 135.12461853027344 107.8092041015625 134.8665313720703 107.84671020507812 134.60545349121094 C 107.98896789550781 133.6134033203125 107.8399658203125 132.53929138183594 107.23257446289062 131.74273681640625 C 106.71934509277344 131.06954956054688 105.93803405761719 130.65843200683594 105.15118408203125 130.34776306152344 C 103.04383850097656 129.5190887451172 100.7530517578125 129.26979064941406 98.51678466796875 129.62576293945312 C 97.92581176757812 129.72084045410156 97.3243408203125 129.8655242919922 96.83563232421875 130.2133331298828 C 96.01486206054688 130.79676818847656 95.65763854980469 131.8634033203125 95.64974975585938 132.87109375 C 95.63699340820312 134.3671417236328 96.2928466796875 135.82786560058594 97.30673217773438 136.928466796875 C 98.32064819335938 138.02908325195312 99.66876220703125 138.78857421875 101.094970703125 139.2411651611328 L 100.76127624511719 139.1657257080078" stroke-width="0.6000000238418579" fill="rgb(143, 165, 67)" opacity="1.0"/>
    <path d="M 456.32568359375 337.906005859375 C 459.115966796875 339.37884521484375 462.9658203125 336.5525207519531 462.6285400390625 333.4359436035156 C 462.2911376953125 330.3193664550781 458.18890380859375 328.36798095703125 455.4202880859375 329.883056640625 C 452.651611328125 331.39813232421875 451.956298828125 335.59417724609375 453.91461181640625 338.07293701171875 L 456.32568359375 337.906005859375" stroke-width="0.6000000238418579" fill="rgb(233, 92, 21)" opacity="1.0"/>
    <path d="M 111.03909301757812 215.83740234375 C 112.56289672851562 215.12969970703125 114.30970764160156 214.12628173828125 114.41703796386719 212.44387817382812 C 114.43368530273438 211.77267456054688 114.24166870117188 211.11285400390625 113.867431640625 210.555419921875 C 112.97857666015625 209.1512451171875 111.46429443359375 208.2650146484375 109.80474853515625 208.17776489257812 C 108.39680480957031 208.10733032226562 107.047607421875 208.63711547851562 105.75569152832031 209.1793212890625 C 105.03047180175781 209.48507690429688 104.26969909667969 209.8330078125 103.83663940429688 210.48504638671875 C 103.26652526855469 211.35882568359375 103.44725036621094 212.51620483398438 103.76144409179688 213.51077270507812 C 104.21945190429688 214.9669189453125 104.91012573242188 216.33929443359375 105.80667114257812 217.57470703125 C 106.11724853515625 218.0009765625 106.47088623046875 218.42626953125 106.95394897460938 218.637451171875 C 107.41317749023438 218.81088256835938 107.91293334960938 218.846923828125 108.39227294921875 218.7412109375 C 109.85879516601562 218.47711181640625 111.13565063476562 217.5830078125 111.88528442382812 216.295166015625 L 111.03909301757812 215.83740234375" stroke-width="0.6000000238418579" fill="rgb(70, 150, 179)" opacity="1.0"/>
    <path d="M 103.34765625 76.22711181640625 C 104.63946533203125 77.70291137695312 106.13331604003906 79.28446960449219 108.08648681640625 79.44865417480469 C 110.18475341796875 79.62374877929688 112.0863037109375 78.01739501953125 113.01026916503906 76.12544250488281 C 113.3668212890625 75.39614868164062 113.61981201171875 74.58168029785156 113.50306701660156 73.77841186523438 C 113.4073486328125 73.1180419921875 113.07174682617188 72.51937866210938 112.7113037109375 71.9580078125 C 111.5767822265625 70.1864013671875 109.99848937988281 68.5201416015625 107.94003295898438 68.088134765625 C 105.8651123046875 67.6541748046875 103.55999755859375 68.6964111328125 102.52508544921875 70.54855346679688 C 101.49014282226562 72.40071105957031 101.78640747070312 74.90988159179688 103.23782348632812 76.4593505859375 L 103.34765625 76.22711181640625" stroke-width="0.6000000238418579" fill="rgb(140, 28, 33)" opacity="1.0"/>
    <path d="M 96.20401000976562 428.7000732421875 C 96.80902099609375 428.71038818359375 97.43865966796875 428.7144775390625 97.99288940429688 428.4705810546875 C 98.547119140625 428.2266845703125 99.00814819335938 427.656005859375 98.92695617675781 427.0560302734375 C 98.8250732421875 426.315673828125 97.91746520996094 425.89190673828125 97.19546508789062 426.09002685546875 C 96.47348022460938 426.2880859375 95.95062255859375 426.9237060546875 95.62469482421875 427.5966796875 C 95.5029296875 427.794921875 95.45988464355469 428.03155517578125 95.50405883789062 428.2598876953125 C 95.57109069824219 428.478759765625 95.86671447753906 428.632568359375 96.04196166992188 428.48358154296875 L 96.20401000976562 428.7000732421875" stroke-width="0.6000000238418579" fill="rgb(159, 159, 159)" opacity="1.0"/>
    <path d="M 466.54302978515625 61.25848388671875 C 467.760009765625 59.971160888671875 468.5625 58.23883056640625 468.50390625 56.46919250488281 C 468.4453125 54.699554443359375 467.43896484375 52.93251037597656 465.8271484375 52.1817626953125 C 464.6868896484375 51.65242004394531 463.34271240234375 51.66114807128906 462.14166259765625 52.036102294921875 C 460.94061279296875 52.411041259765625 459.8697509765625 53.1263427734375 458.9259033203125 53.95867919921875 C 458.51531982421875 54.321136474609375 458.1109619140625 54.731048583984375 457.9586181640625 55.25563049316406 C 457.78375244140625 55.856964111328125 457.971435546875 56.497650146484375 458.186767578125 57.087738037109375 C 458.794677734375 58.75367736816406 459.68115234375 60.38990783691406 461.1148681640625 61.433990478515625 C 462.548583984375 62.47807312011719 464.6265869140625 62.783050537109375 466.09600830078125 61.79768371582031 L 466.54302978515625 61.25848388671875" stroke-width="0.6000000238418579" fill="rgb(159, 159, 159)" opacity="1.0"/>
    <path d="M 92.42494201660156 104.81086730957031 C 94.33442687988281 105.10409545898438 96.4696044921875 105.34730529785156 98.03543090820312 104.22222900390625 C 99.55972290039062 103.1302490234375 100.04092407226562 101.1123046875 100.37779235839844 99.26687622070312 C 100.5135498046875 98.51699829101562 100.64360046386719 97.7303466796875 100.40863037109375 97.00584411621094 C 100.011962890625 95.78025817871094 98.71122741699219 95.09939575195312 97.47579956054688 94.7412109375 C 96.32925415039062 94.4083251953125 95.14083862304688 94.24179077148438 93.94696044921875 94.24671936035156 C 92.00839233398438 94.25401306152344 89.84243774414062 94.89242553710938 88.96232604980469 96.61892700195312 C 88.48582458496094 97.55029296875 88.46934509277344 98.66836547851562 88.71200561523438 99.68768310546875 C 88.95468139648438 100.70700073242188 89.44075012207031 101.650390625 89.93389892578125 102.57489013671875 C 90.42703247070312 103.49935913085938 90.93141174316406 104.397216796875 91.74085998535156 105.02249145507812 L 92.42494201660156 104.81086730957031" stroke-width="0.6000000238418579" fill="rgb(218, 166, 20)" opacity="1.0"/>
    <path d="M 115.7099609375 127.74722290039062 C 118.5841064453125 126.83645629882812 120.17575073242188 123.76820373535156 119.26498413085938 120.89405822753906 C 119.18701171875 120.64794921875 119.09165954589844 120.40768432617188 118.97967529296875 120.175048828125 C 118.553955078125 119.29122924804688 117.84677124023438 118.4996337890625 116.91851806640625 118.18374633789062 C 116.13410949707031 117.91671752929688 115.27484130859375 118.00894165039062 114.46588134765625 118.18582153320312 C 112.30116271972656 118.66229248046875 110.30349731445312 119.70968627929688 108.68040466308594 121.21920776367188 C 108.25204467773438 121.61892700195312 107.84219360351562 122.064697265625 107.63482666015625 122.614013671875 C 107.28616333007812 123.5360107421875 107.577880859375 124.59774780273438 108.12132263183594 125.42097473144531 C 108.92727661132812 126.64370727539062 110.25732421875 127.472900390625 111.68182373046875 127.8140869140625 C 113.10633850097656 128.15525817871094 114.6163330078125 128.036865234375 116.02230834960938 127.62643432617188 L 115.7099609375 127.74722290039062" stroke-width="0.6000000238418579" fill="rgb(143, 165, 67)" opacity="1.0"/>
    <path d="M 386.39739990234375 299.78106689453125 C 389.0607604980469 301.66949462890625 393.39276123046875 299.29058837890625 393.4681701660156 296.0475769042969 C 393.5435791015625 292.8045654296875 389.5989074707031 290.2477722167969 386.5536193847656 291.42767333984375 C 383.50830078125 292.6075439453125 382.2274475097656 296.8183288574219 383.9012145996094 299.626220703125 L 386.39739990234375 299.78106689453125" stroke-width="0.6000000238418579" fill="rgb(233, 92, 21)" opacity="1.0"/>
    <path d="M 121.62481689453125 110.85238647460938 C 123.00885009765625 109.81832885742188 124.55487060546875 108.4395751953125 124.30754089355469 106.7237548828125 C 124.18254089355469 106.04475402832031 123.84992980957031 105.42127990722656 123.35556030273438 104.9393310546875 C 122.16448974609375 103.7139892578125 120.453369140625 103.14193725585938 118.76481628417969 103.40463256835938 C 117.33303833007812 103.63113403320312 116.08712768554688 104.44924926757812 114.90151977539062 105.26777648925781 C 114.23625183105469 105.72865295410156 113.54411315917969 106.239501953125 113.24600219726562 106.98713684082031 C 112.8568115234375 107.98690795898438 113.28314208984375 109.11347961425781 113.80940246582031 110.04803466796875 C 114.577880859375 111.41668701171875 115.56280517578125 112.65194702148438 116.72601318359375 113.70590209960938 C 117.12860107421875 114.06927490234375 117.57431030273438 114.42257690429688 118.10507202148438 114.53309631347656 C 118.60383605957031 114.61062622070312 119.1143798828125 114.54135131835938 119.574462890625 114.33370971679688 C 120.99453735351562 113.75819396972656 122.09068298339844 112.58868408203125 122.57310485839844 111.13432312011719 L 121.62481689453125 110.85238647460938" stroke-width="0.6000000238418579" fill="rgb(70, 150, 179)" opacity="1.0"/>
    <path d="M 430.831787109375 72.1231689453125 C 432.05267333984375 73.7666015625 433.47491455078125 75.53695678710938 435.49346923828125 75.87091064453125 C 437.66204833984375 76.22834777832031 439.7747802734375 74.71575927734375 440.8941650390625 72.82438659667969 C 441.3260498046875 72.0953369140625 441.6573486328125 71.26901245117188 441.6029052734375 70.42349243164062 C 441.5584716796875 69.72837829589844 441.25927734375 69.07743835449219 440.93115234375 68.4632568359375 C 439.89862060546875 66.525146484375 438.3956298828125 64.65962219238281 436.2899169921875 64.0382080078125 C 434.167236328125 63.41339111328125 431.6817626953125 64.3052978515625 430.4501953125 66.14599609375 C 429.21868896484375 67.9866943359375 429.3173828125 70.62220764160156 430.6981201171875 72.35562133789062 L 430.831787109375 72.1231689453125" stroke-width="0.6000000238418579" fill="rgb(140, 28, 33)" opacity="1.0"/>
    <path d="M 120.31819152832031 417.55810546875 C 120.87042236328125 417.13519287109375 121.44036865234375 416.68902587890625 121.76524353027344 416.0733642578125 C 122.09011840820312 415.457763671875 122.09759521484375 414.614501953125 121.59584045410156 414.1322021484375 C 120.97515869140625 413.5382080078125 119.85504150390625 413.8050537109375 119.34634399414062 414.499267578125 C 118.83767700195312 415.1934814453125 118.82089233398438 416.139404296875 119.00816345214844 416.97833251953125 C 119.04011535644531 417.24383544921875 119.17042541503906 417.4876708984375 119.37338256835938 417.661865234375 C 119.590087890625 417.81103515625 119.96617126464844 417.73828125 120.017578125 417.47894287109375 L 120.31819152832031 417.55810546875" stroke-width="0.6000000238418579" fill="rgb(159, 159, 159)" opacity="1.0"/>
    <path d="M 450.9273681640625 427.1474609375 C 452.0029296875 425.5948486328125 452.57000732421875 423.639892578125 452.2235107421875 421.7841796875 C 451.87701416015625 419.928466796875 450.531982421875 418.22802734375 448.71240234375 417.69610595703125 C 447.42547607421875 417.3216552734375 446.01019287109375 417.547119140625 444.8046875 418.135498046875 C 443.59912109375 418.7239990234375 442.58551025390625 419.650146484375 441.724609375 420.67926025390625 C 441.3502197265625 421.1273193359375 440.989990234375 421.62445068359375 440.91387939453125 422.20184326171875 C 440.8262939453125 422.86376953125 441.127197265625 423.5087890625 441.4490966796875 424.0960693359375 C 442.35791015625 425.754150390625 443.555419921875 427.3360595703125 445.2344970703125 428.205810546875 C 446.91363525390625 429.0755615234375 449.15283203125 429.0626220703125 450.54296875 427.78765869140625 L 450.9273681640625 427.1474609375" stroke-width="0.6000000238418579" fill="rgb(159, 159, 159)" opacity="1.0"/>
    <path d="M 448.23626708984375 284.993896484375 C 449.5999755859375 283.71502685546875 451.0604248046875 282.2344055175781 451.13897705078125 280.3701477050781 C 451.2178955078125 278.5572509765625 449.9686279296875 276.985595703125 448.7646484375 275.6268615722656 C 448.27471923828125 275.07562255859375 447.75341796875 274.5067443847656 447.0614013671875 274.2529602050781 C 445.8912353515625 273.8230285644531 444.59588623046875 274.4068298339844 443.58526611328125 275.1336364746094 C 442.64697265625 275.807861328125 441.8104248046875 276.61334228515625 441.10107421875 277.525390625 C 439.9488525390625 279.0058898925781 439.14129638671875 281.0364990234375 439.9302978515625 282.7378234863281 C 440.35491943359375 283.6569519042969 441.1964111328125 284.3372802734375 442.1175537109375 284.76129150390625 C 443.0386962890625 285.185302734375 444.04736328125 285.3786315917969 445.04583740234375 285.5552673339844 C 446.0443115234375 285.73193359375 447.029296875 285.88409423828125 447.98883056640625 285.6412048339844 L 448.23626708984375 284.993896484375" stroke-width="0.6000000238418579" fill="rgb(218, 166, 20)" opacity="1.0"/>
    <path d="M 425.54827880859375 371.2064514160156 C 427.43212890625 373.6036071777344 430.902587890625 374.01971435546875 433.2996826171875 372.1358642578125 C 433.5050048828125 371.97454833984375 433.698486328125 371.79888916015625 433.87890625 371.61016845703125 C 434.5643310546875 370.89300537109375 435.06231689453125 369.942138671875 435.0313720703125 368.95111083984375 C 435.00537109375 368.11358642578125 434.61260986328125 367.3329162597656 434.1575927734375 366.6299743652344 C 432.93707275390625 364.7500305175781 431.2354736328125 363.231201171875 429.2294921875 362.2312316894531 C 428.69873046875 361.9678039550781 428.131103515625 361.73828125 427.537353515625 361.7372131347656 C 426.54058837890625 361.7348937988281 425.63916015625 362.3884582519531 425.052978515625 363.195556640625 C 424.18194580078125 364.3931884765625 423.8697509765625 365.9470520019531 424.0531005859375 367.4168701171875 C 424.2364501953125 368.8866882324219 424.88531494140625 370.2740783691406 425.773681640625 371.4591979980469 L 425.54827880859375 371.2064514160156" stroke-width="0.6000000238418579" fill="rgb(143, 165, 67)" opacity="1.0"/>
    <path d="M 449.294677734375 356.9454040527344 C 451.37451171875 354.3800964355469 449.255615234375 349.8523254394531 445.987060546875 349.5647888183594 C 442.718505859375 349.27728271484375 439.8804931640625 353.09234619140625 440.8729248046875 356.2431945800781 C 441.86541748046875 359.3940734863281 446.03228759765625 360.96142578125 448.9757080078125 359.4549560546875 L 449.294677734375 356.9454040527344" stroke-width="0.6000000238418579" fill="rgb(233, 92, 21)" opacity="1.0"/>
    <path d="M 451.4595947265625 85.18934631347656 C 452.88812255859375 83.91758728027344 454.46258544921875 82.25027465820312 454.027099609375 80.38124084472656 C 453.8248291015625 79.64418029785156 453.39886474609375 78.988037109375 452.80792236328125 78.50335693359375 C 451.3780517578125 77.26475524902344 449.43646240234375 76.79606628417969 447.5989990234375 77.24591064453125 C 446.041259765625 77.6314697265625 444.74462890625 78.6519775390625 443.5145263671875 79.66720581054688 C 442.824462890625 80.23861694335938 442.1094970703125 80.86769104003906 441.8515625 81.72056579589844 C 441.51708984375 82.86019897460938 442.0941162109375 84.06233215332031 442.76318359375 85.043212890625 C 443.7406005859375 86.47994995117188 444.944091796875 87.74899291992188 446.32696533203125 88.80117797851562 C 446.80548095703125 89.16378784179688 447.33056640625 89.51119995117188 447.92645263671875 89.58279418945312 C 448.48388671875 89.62100219726562 449.04046630859375 89.49618530273438 449.5281982421875 89.22355651855469 C 451.03997802734375 88.45413208007812 452.1380615234375 87.06025695800781 452.53228759765625 85.410400390625 L 451.4595947265625 85.18934631347656" stroke-width="0.6000000238418579" fill="rgb(70, 150, 179)" opacity="1.0"/>
    <path d="M 448.8763427734375 394.35565185546875 C 450.3111572265625 392.50152587890625 451.8236083984375 390.3861083984375 451.5679931640625 388.05712890625 C 451.2918701171875 385.55548095703125 448.9710693359375 383.6933898925781 446.53955078125 383.0436706542969 C 445.6021728515625 382.79278564453125 444.588623046875 382.6828918457031 443.673095703125 383.00421142578125 C 442.92041015625 383.2680358886719 442.29510498046875 383.79913330078125 441.71929931640625 384.3507995605469 C 439.9013671875 386.08831787109375 438.308837890625 388.32220458984375 438.2745361328125 390.8361511230469 C 438.2415771484375 393.369873046875 439.9932861328125 395.8348083496094 442.403564453125 396.62384033203125 C 444.8138427734375 397.412841796875 447.68939208984375 396.4894714355469 449.1739501953125 394.4311828613281 L 448.8763427734375 394.35565185546875" stroke-width="0.6000000238418579" fill="rgb(140, 28, 33)" opacity="1.0"/>
    <path d="M 117.15422058105469 213.45938110351562 C 116.15264892578125 213.11328125 115.10662841796875 212.76416015625 114.05134582519531 212.86886596679688 C 112.99607849121094 212.97357177734375 111.91828918457031 213.6729736328125 111.72727966308594 214.71588134765625 C 111.49436950683594 216.0037841796875 112.77493286132812 217.20272827148438 114.0845947265625 217.2655029296875 C 115.39425659179688 217.3282470703125 116.6102294921875 216.55438232421875 117.51873779296875 215.61126708984375 C 117.8292236328125 215.34747314453125 118.029541015625 214.9769287109375 118.08016967773438 214.57266235351562 C 118.08757019042969 214.17193603515625 117.67901611328125 213.75521850585938 117.30628967285156 213.90789794921875 L 117.15422058105469 213.45938110351562" stroke-width="0.6000000238418579" fill="rgb(159, 159, 159)" opacity="1.0"/>
    <path d="M 113.14283752441406 224.37149047851562 C 111.20208740234375 223.0380859375 108.76220703125 222.340576171875 106.45040893554688 222.78143310546875 C 104.13864135742188 223.22235107421875 102.02517700195312 224.90728759765625 101.37080383300781 227.17828369140625 C 100.91018676757812 228.78448486328125 101.19805908203125 230.54779052734375 101.93743896484375 232.0478515625 C 102.67681884765625 233.5479736328125 103.83633422851562 234.80706787109375 105.12347412109375 235.8753662109375 C 105.68386840820312 236.33990478515625 106.30532836914062 236.78665161132812 107.02548217773438 236.8787841796875 C 107.85110473632812 236.98477172851562 108.65383911132812 236.60650634765625 109.38442993164062 236.202392578125 C 111.44708251953125 235.06146240234375 113.41342163085938 233.56097412109375 114.4896240234375 231.4635009765625 C 115.56582641601562 229.36602783203125 115.53897094726562 226.5745849609375 113.94281005859375 224.84759521484375 L 113.14283752441406 224.37149047851562" stroke-width="0.6000000238418579" fill="rgb(159, 159, 159)" opacity="1.0"/>
    <path d="M 300.46075439453125 104.84938049316406 C 299.2857971191406 106.65438842773438 298.0579833984375 108.71163940429688 298.48162841796875 110.81900024414062 C 298.8907470703125 112.86898803710938 300.7195739746094 114.28469848632812 302.439453125 115.47457885742188 C 303.13885498046875 115.9569091796875 303.8782043457031 116.45034790039062 304.7220764160156 116.54446411132812 C 306.1492614746094 116.70445251464844 307.4383544921875 115.69589233398438 308.3696594238281 114.60545349121094 C 309.2344665527344 113.59367370605469 309.94952392578125 112.46295166015625 310.492919921875 111.24790954589844 C 311.3759460449219 109.27534484863281 311.7223205566406 106.7818603515625 310.3727722167969 105.09481811523438 C 309.6455383300781 104.18295288085938 308.517333984375 103.65264892578125 307.3704528808594 103.43093872070312 C 306.2235412597656 103.20925903320312 305.0419616699219 103.26968383789062 303.8763427734375 103.34599304199219 C 302.710693359375 103.42228698730469 301.5669860839844 103.522216796875 300.55999755859375 104.05728149414062 L 300.46075439453125 104.84938049316406" stroke-width="0.6000000238418579" fill="rgb(218, 166, 20)" opacity="1.0"/>
    <path d="M 221.5374755859375 126.59310913085938 C 218.54864501953125 124.84268188476562 214.70672607421875 125.84661865234375 212.956298828125 128.83544921875 C 212.806396484375 129.0913848876953 212.67486572265625 129.35763549804688 212.5626220703125 129.63218688964844 C 212.13644409179688 130.67550659179688 212.00555419921875 131.88790893554688 212.4505615234375 132.92274475097656 C 212.8265380859375 133.79730224609375 213.5665283203125 134.45919799804688 214.33999633789062 135.01303100585938 C 216.41241455078125 136.4926300048828 218.84326171875 137.39035034179688 221.37991333007812 137.6129150390625 C 222.050537109375 137.6706085205078 222.74618530273438 137.67709350585938 223.37429809570312 137.43118286132812 C 224.42901611328125 137.01895141601562 225.11004638671875 135.95298767089844 225.3939208984375 134.85589599609375 C 225.8165283203125 133.2274169921875 225.5001220703125 131.454833984375 224.69473266601562 129.97727966308594 C 223.88937377929688 128.49972534179688 222.62625122070312 127.30294799804688 221.194091796875 126.419677734375 L 221.5374755859375 126.59310913085938" stroke-width="0.6000000238418579" fill="rgb(143, 165, 67)" opacity="1.0"/>
    <path d="M 223.34042358398438 96.71859741210938 C 221.39895629882812 100.45863342285156 225.20904541015625 105.57447814941406 229.36834716796875 105.09530639648438 C 233.52764892578125 104.61611938476562 236.09613037109375 99.11940002441406 234.0472412109375 95.43563842773438 C 231.99835205078125 91.75189208984375 226.38790893554688 90.86180114746094 223.0953369140625 93.49996948242188 L 223.34042358398438 96.71859741210938" stroke-width="0.6000000238418579" fill="rgb(233, 92, 21)" opacity="1.0"/>
    <path d="M 204.84344482421875 97.45489501953125 C 203.85455322265625 95.62864685058594 202.48394775390625 93.54971313476562 200.40008544921875 93.54508972167969 C 199.57073974609375 93.57553100585938 198.771240234375 93.862548828125 198.1119384765625 94.36660766601562 C 196.44708251953125 95.56988525390625 195.46868896484375 97.50546264648438 195.48709106445312 99.55953979492188 C 195.50714111328125 101.30194091796875 196.26324462890625 102.92630004882812 197.03033447265625 104.47900390625 C 197.462646484375 105.35050964355469 197.94970703125 106.2626953125 198.7869873046875 106.74746704101562 C 199.90835571289062 107.38446044921875 201.322509765625 107.07359313964844 202.52569580078125 106.61041259765625 C 204.28741455078125 105.93475341796875 205.92816162109375 104.9783935546875 207.38427734375 103.7784423828125 C 207.8865966796875 103.36285400390625 208.3843994140625 102.894287109375 208.60830688476562 102.28224182128906 C 208.787353515625 101.7025146484375 208.79388427734375 101.08320617675781 208.62704467773438 100.49984741210938 C 208.1898193359375 98.7105712890625 206.98971557617188 97.20317077636719 205.34393310546875 96.3760986328125 L 204.84344482421875 97.45489501953125" stroke-width="0.6000000238418579" fill="rgb(70, 150, 179)" opacity="1.0"/>
    <path d="M 265.36578369140625 128.869384765625 C 264.0907287597656 130.6208038330078 262.7509765625 132.6156463623047 263.0501403808594 134.75987243652344 C 263.3729248046875 137.06304931640625 265.5669860839844 138.72012329101562 267.8304138183594 139.25440979003906 C 268.7030334472656 139.4607696533203 269.6421203613281 139.53482055664062 270.47906494140625 139.21327209472656 C 271.16717529296875 138.94918823242188 271.7303466796875 138.44171142578125 272.24725341796875 137.9165802001953 C 273.87933349609375 136.26251220703125 275.2897644042969 134.15606689453125 275.2534484863281 131.8331298828125 C 275.2152404785156 129.4919891357422 273.53057861328125 127.26268005371094 271.282958984375 126.59915161132812 C 269.03533935546875 125.93562316894531 266.40435791015625 126.86636352539062 265.0888366699219 128.80767822265625 L 265.36578369140625 128.869384765625" stroke-width="0.6000000238418579" fill="rgb(140, 28, 33)" opacity="1.0"/>
    <path d="M 317.9945983886719 114.71914672851562 C 316.7615966796875 115.34066772460938 315.48541259765625 116.00100708007812 314.6248779296875 117.08212280273438 C 313.76434326171875 118.16323852539062 313.43902587890625 119.80548095703125 314.24005126953125 120.93112182617188 C 315.23193359375 122.31838989257812 317.5151672363281 122.210693359375 318.7632141113281 121.0439453125 C 320.01123046875 119.87721252441406 320.3924865722656 118.03823852539062 320.3363342285156 116.33282470703125 C 320.371826171875 115.80316162109375 320.2074890136719 115.27944946289062 319.8757629394531 114.86502075195312 C 319.5080261230469 114.49417114257812 318.74761962890625 114.49745178222656 318.5517883300781 114.98440551757812 L 317.9945983886719 114.71914672851562" stroke-width="0.6000000238418579" fill="rgb(159, 159, 159)" opacity="1.0"/>
    <path d="M 200.08355712890625 128.87496948242188 C 198.178955078125 127.51596069335938 195.7672119140625 126.77987670898438 193.462646484375 127.17709350585938 C 191.15811157226562 127.57431030273438 189.02862548828125 129.2109832763672 188.33840942382812 131.45567321777344 C 187.8524169921875 133.04331970214844 188.1072998046875 134.80023193359375 188.81539916992188 136.30361938476562 C 189.52349853515625 137.80702209472656 190.65325927734375 139.0784454345703 191.91314697265625 140.1625213623047 C 192.46170043945312 140.6339569091797 193.07122802734375 141.08876037597656 193.78509521484375 141.1929931640625 C 194.60348510742188 141.31288146972656 195.40765380859375 140.95126342773438 196.14068603515625 140.5626678466797 C 198.21005249023438 139.465576171875 200.19012451171875 138.009521484375 201.29638671875 135.94468688964844 C 202.402587890625 133.87982177734375 202.42523193359375 131.10604858398438 200.86993408203125 129.3621063232422 L 200.08355712890625 128.87496948242188" stroke-width="0.6000000238418579" fill="rgb(159, 159, 159)" opacity="1.0"/>
    <path d="M 280.599365234375 106.32574462890625 C 278.8077697753906 106.91865539550781 276.8420104980469 107.65531921386719 275.97930908203125 109.32960510253906 C 275.1380615234375 110.9566650390625 275.6156005859375 112.92611694335938 276.1420593261719 114.68136596679688 C 276.35699462890625 115.39410400390625 276.59320068359375 116.13629150390625 277.1194152832031 116.66229248046875 C 278.00885009765625 117.55245971679688 279.44293212890625 117.56716918945312 280.6769104003906 117.33013916015625 C 281.82232666015625 117.11058044433594 282.9302673339844 116.72767639160156 283.96685791015625 116.19316101074219 C 285.6502685546875 115.32586669921875 287.2512512207031 113.8084716796875 287.250244140625 111.91543579101562 C 287.2511901855469 110.89346313476562 286.76898193359375 109.91334533691406 286.1051330566406 109.13424682617188 C 285.4413146972656 108.35516357421875 284.59942626953125 107.75022888183594 283.759765625 107.16488647460938 C 282.9201354980469 106.57952880859375 282.0825500488281 106.0223388671875 281.1005859375 105.83779907226562 L 280.599365234375 106.32574462890625" stroke-width="0.6000000238418579" fill="rgb(218, 166, 20)" opacity="1.0"/>
    <path d="M 242.7811279296875 122.09690856933594 C 240.859619140625 124.64175415039062 241.36492919921875 128.26246643066406 243.9097900390625 130.18397521972656 C 244.12771606445312 130.34852600097656 244.35702514648438 130.4973907470703 244.59600830078125 130.62948608398438 C 245.50421142578125 131.1312255859375 246.59869384765625 131.381103515625 247.59271240234375 131.0853729248047 C 248.4327392578125 130.83554077148438 249.117431640625 130.23001098632812 249.70687866210938 129.582275390625 C 251.2823486328125 127.84625244140625 252.3642578125 125.72004699707031 252.8402099609375 123.42453002929688 C 252.9649658203125 122.81756591796875 253.04562377929688 122.18218994140625 252.88824462890625 121.58145141601562 C 252.62457275390625 120.57281494140625 251.72308349609375 119.83560180664062 250.75042724609375 119.45820617675781 C 249.30682373046875 118.89691162109375 247.65206909179688 118.995849609375 246.21453857421875 119.57354736328125 C 244.77703857421875 120.1512451171875 243.547119140625 121.17764282226562 242.585693359375 122.39227294921875 L 242.7811279296875 122.09690856933594" stroke-width="0.6000000238418579" fill="rgb(143, 165, 67)" opacity="1.0"/>
    <path d="M 248.97885131835938 95.86593627929688 C 247.24264526367188 99.6268310546875 251.216796875 104.4769287109375 255.27923583984375 103.81710815429688 C 259.3416442871094 103.15725708007812 261.6136169433594 97.64285278320312 259.4340515136719 94.11883544921875 C 257.25445556640625 90.59481811523438 251.70477294921875 89.97613525390625 248.5916748046875 92.716552734375 L 248.97885131835938 95.86593627929688" stroke-width="0.6000000238418579" fill="rgb(233, 92, 21)" opacity="1.0"/>
    <path d="M 339.2137451171875 87.39622497558594 C 337.407470703125 87.00164794921875 335.20892333984375 86.71766662597656 333.9946594238281 88.1202392578125 C 333.53314208984375 88.69720458984375 333.2620544433594 89.40315246582031 333.2187805175781 90.14071655273438 C 333.0625915527344 91.9627685546875 333.7992248535156 93.74749755859375 335.195068359375 94.928955078125 C 336.3817138671875 95.9281005859375 337.9165344238281 96.3623046875 339.4094543457031 96.74746704101562 C 340.2484130859375 96.96246337890625 341.1466369628906 97.1641845703125 341.9601745605469 96.88128662109375 C 343.0414733886719 96.49533081054688 343.6537780761719 95.36099243164062 344.04071044921875 94.28042602539062 C 344.6090087890625 92.69970703125 344.91766357421875 91.03744506835938 344.95477294921875 89.35809326171875 C 344.96649169921875 88.77780151367188 344.9398498535156 88.16976928710938 344.6572265625 87.66305541992188 C 344.370361328125 87.20538330078125 343.9565124511719 86.84103393554688 343.4661560058594 86.61447143554688 C 342.0054626464844 85.869384765625 340.2914123535156 85.80258178710938 338.77716064453125 86.43173217773438 L 339.2137451171875 87.39622497558594" stroke-width="0.6000000238418579" fill="rgb(70, 150, 179)" opacity="1.0"/>
    <path d="M 336.36407470703125 119.64413452148438 C 335.3502197265625 117.56146240234375 334.13897705078125 115.2955322265625 331.9643249511719 114.50210571289062 C 329.6277770996094 113.65118408203125 326.9622802734375 114.89128112792969 325.3221130371094 116.76028442382812 C 324.6894226074219 117.48062133789062 324.1482849121094 118.33015441894531 324.0319519042969 119.28170776367188 C 323.9360046386719 120.06390380859375 324.132568359375 120.85028076171875 324.3690185546875 121.60183715820312 C 325.11181640625 123.97276306152344 326.3929748535156 126.36140441894531 328.60443115234375 127.49270629882812 C 330.83404541015625 128.63134765625 333.78424072265625 128.15933227539062 335.53851318359375 126.3701171875 C 337.29278564453125 124.5809326171875 337.7341613769531 121.62979125976562 336.5613098144531 119.41360473632812 L 336.36407470703125 119.64413452148438" stroke-width="0.6000000238418579" fill="rgb(140, 28, 33)" opacity="1.0"/>
    <path d="M 358.8294982910156 105.45840454101562 C 357.9793701171875 105.8155517578125 357.09869384765625 106.19654846191406 356.4754943847656 106.8770751953125 C 355.8523254394531 107.5576171875 355.5597839355469 108.63665771484375 356.0414733886719 109.42352294921875 C 356.6382141113281 110.39352416992188 358.164306640625 110.42716979980469 359.0495910644531 109.70748901367188 C 359.9349060058594 108.98780822753906 360.2737731933594 107.7802734375 360.3150939941406 106.64152526855469 C 360.3631896972656 106.29029846191406 360.27789306640625 105.93380737304688 360.07598876953125 105.64241027832031 C 359.84814453125 105.37837219238281 359.3414001464844 105.345458984375 359.1884765625 105.66082763671875 L 358.8294982910156 105.45840454101562" stroke-width="0.6000000238418579" fill="rgb(159, 159, 159)" opacity="1.0"/>
    <path d="M 351.7197570800781 120.318603515625 C 349.6510009765625 120.81753540039062 347.7081298828125 122.0361328125 346.60784912109375 123.85638427734375 C 345.507568359375 125.6766357421875 345.36328125 128.11514282226562 346.4944152832031 129.92698669433594 C 347.2957763671875 131.20697021484375 348.6549072265625 132.0787353515625 350.10986328125 132.48800659179688 C 351.5648498535156 132.8972930908203 353.1116943359375 132.87860107421875 354.60736083984375 132.65884399414062 C 355.2581787109375 132.5628204345703 355.93389892578125 132.4149932861328 356.430908203125 131.98658752441406 C 357.0009460449219 131.49566650390625 357.2316589355469 130.72760009765625 357.40142822265625 129.99237060546875 C 357.8806457519531 127.91667175292969 358.0600280761719 125.68844604492188 357.30035400390625 123.69790649414062 C 356.5406799316406 121.70736694335938 354.6481628417969 120.03900146484375 352.5230712890625 120.06854248046875 L 351.7197570800781 120.318603515625" stroke-width="0.6000000238418579" fill="rgb(159, 159, 159)" opacity="1.0"/>
    <path d="M 364.7157897949219 107.453369140625 C 363.2568664550781 107.61946105957031 361.64239501953125 107.86727905273438 360.7185974121094 109.00492858886719 C 359.81866455078125 110.11003112792969 359.8685302734375 111.68603515625 359.98980712890625 113.106689453125 C 360.0399169921875 113.68374633789062 360.1015625 114.28662109375 360.4184875488281 114.77105712890625 C 360.95404052734375 115.59072875976562 362.04388427734375 115.8304443359375 363.02142333984375 115.84652709960938 C 363.9287414550781 115.86181640625 364.83355712890625 115.74673461914062 365.7081604003906 115.50483703613281 C 367.12841796875 115.112548828125 368.5895080566406 114.21200561523438 368.8903503417969 112.7701416015625 C 369.0539245605469 111.99197387695312 368.84283447265625 111.168701171875 368.46142578125 110.46957397460938 C 368.0799865722656 109.77044677734375 367.53521728515625 109.17559814453125 366.989013671875 108.59602355957031 C 366.44281005859375 108.01644897460938 365.8937072753906 107.45864868164062 365.1752624511719 107.16162109375 L 364.7157897949219 107.453369140625" stroke-width="0.6000000238418579" fill="rgb(218, 166, 20)" opacity="1.0"/>
    <path d="M 433.2332763671875 159.765380859375 C 430.70025634765625 160.010986328125 428.84588623046875 162.26348876953125 429.0914306640625 164.7965087890625 C 429.11248779296875 165.013427734375 429.14886474609375 165.22857666015625 429.2003173828125 165.4403076171875 C 429.3961181640625 166.24493408203125 429.8404541015625 167.02294921875 430.55108642578125 167.44720458984375 C 431.151611328125 167.80584716796875 431.877197265625 167.88104248046875 432.57611083984375 167.87750244140625 C 434.447021484375 167.86550903320312 436.2806396484375 167.35275268554688 437.8863525390625 166.39251708984375 C 438.3104248046875 166.13800048828125 438.727294921875 165.84222412109375 438.9952392578125 165.42529296875 C 439.4454345703125 164.7255859375 439.3916015625 163.7977294921875 439.0880126953125 163.02243041992188 C 438.6380615234375 161.87109375 437.6861572265625 160.95230102539062 436.5703125 160.41973876953125 C 435.4544677734375 159.88714599609375 434.1871337890625 159.71893310546875 432.9542236328125 159.81008911132812 L 433.2332763671875 159.765380859375" stroke-width="0.6000000238418579" fill="rgb(143, 165, 67)" opacity="1.0"/>
    <path d="M 141.9218292236328 416.51153564453125 C 139.07130432128906 419.511474609375 141.2726287841797 425.3760986328125 145.32745361328125 426.056884765625 C 149.38229370117188 426.73779296875 153.30291748046875 422.251220703125 152.37319946289062 418.217529296875 C 151.4434814453125 414.18377685546875 146.3924560546875 411.81573486328125 142.5673065185547 413.407958984375 L 141.9218292236328 416.51153564453125" stroke-width="0.6000000238418579" fill="rgb(233, 92, 21)" opacity="1.0"/>
    <path d="M 434.99267578125 181.48748779296875 C 433.4210205078125 181.55227661132812 431.55023193359375 181.79266357421875 430.853271484375 183.2088623046875 C 430.597900390625 183.78326416015625 430.5269775390625 184.42276000976562 430.650390625 185.03912353515625 C 430.914794921875 186.57244873046875 431.90594482421875 187.88250732421875 433.3095703125 188.55386352539062 C 434.501708984375 189.12033081054688 435.8585205078125 189.146728515625 437.17034912109375 189.14178466796875 C 437.9072265625 189.1378173828125 438.68994140625 189.110107421875 439.298583984375 188.70184326171875 C 440.10528564453125 188.1510009765625 440.3646240234375 187.08538818359375 440.4500732421875 186.11257934570312 C 440.576904296875 184.68902587890625 440.4725341796875 183.25433349609375 440.140869140625 181.8641357421875 C 440.025390625 181.384033203125 439.872314453125 180.88934326171875 439.530517578125 180.53326416015625 C 439.1956787109375 180.21841430664062 438.7764892578125 180.0078125 438.32403564453125 179.92706298828125 C 436.961181640625 179.62884521484375 435.5360107421875 179.9434814453125 434.4254150390625 180.787841796875 L 434.99267578125 181.48748779296875" stroke-width="0.6000000238418579" fill="rgb(70, 150, 179)" opacity="1.0"/>
    <path d="M 411.6253356933594 159.66409301757812 C 410.82489013671875 157.89068603515625 409.8631591796875 155.9585723876953 408.0566101074219 155.23931884765625 C 406.11553955078125 154.4678497314453 403.84722900390625 155.4440460205078 402.4244689941406 156.97332763671875 C 401.87567138671875 157.56268310546875 401.4006042480469 158.26278686523438 401.2796936035156 159.05889892578125 C 401.1800537109375 159.71331787109375 401.325927734375 160.37835693359375 401.506103515625 161.01519775390625 C 402.0719299316406 163.02401733398438 403.08935546875 165.06085205078125 404.9185791015625 166.064697265625 C 406.76287841796875 167.07513427734375 409.25146484375 166.75079345703125 410.76806640625 165.29132080078125 C 412.28466796875 163.83184814453125 412.727294921875 161.36474609375 411.79656982421875 159.475341796875 L 411.6253356933594 159.66409301757812" stroke-width="0.6000000238418579" fill="rgb(140, 28, 33)" opacity="1.0"/>
    <path d="M 147.0 115.0 C 146.33897399902344 115.49652099609375 145.6566162109375 116.02047729492188 145.26364135742188 116.74853515625 C 144.8706817626953 117.47657775878906 144.85240173339844 118.47879028320312 145.44337463378906 119.05758666992188 C 146.17446899414062 119.7703857421875 147.5087127685547 119.46577453613281 148.1210174560547 118.64633178710938 C 148.73330688476562 117.826904296875 148.76376342773438 116.70283508300781 148.550537109375 115.70367431640625 C 148.51551818847656 115.38777160644531 148.3633575439453 115.09648132324219 148.12405395507812 114.88728332519531 C 147.86817932128906 114.70755004882812 147.42037963867188 114.78981018066406 147.3563995361328 115.09747314453125 L 147.0 115.0" stroke-width="0.6000000238418579" fill="rgb(159, 159, 159)" opacity="1.0"/>
    <path d="M 419.4029541015625 176.3433837890625 C 418.00067138671875 175.47442626953125 416.2701416015625 175.06695556640625 414.6668701171875 175.451904296875 C 413.0635986328125 175.8369140625 411.64031982421875 177.0859375 411.2574462890625 178.69683837890625 C 410.9881896972656 179.83612060546875 411.2479553222656 181.060546875 411.81500244140625 182.08590698242188 C 412.38201904296875 183.11126708984375 413.235107421875 183.95407104492188 414.171142578125 184.65911865234375 C 414.5787353515625 184.9656982421875 415.02838134765625 185.2578125 415.535400390625 185.2984619140625 C 416.11669921875 185.3453369140625 416.66595458984375 185.0540771484375 417.16387939453125 184.74713134765625 C 418.569580078125 183.8804931640625 419.8961181640625 182.765380859375 420.57989501953125 181.261962890625 C 421.263671875 179.758544921875 421.152587890625 177.805908203125 419.978515625 176.650146484375 L 419.4029541015625 176.3433837890625" stroke-width="0.6000000238418579" fill="rgb(159, 159, 159)" opacity="1.0"/>
    <path d="M 409.8020935058594 183.97601318359375 C 408.7364501953125 182.32952880859375 407.4806213378906 180.5455322265625 405.57080078125 180.11654663085938 C 403.7140808105469 179.69674682617188 401.8585205078125 180.69293212890625 400.2311706542969 181.6822509765625 C 399.5707092285156 182.08511352539062 398.8861389160156 182.51708984375 398.4949951171875 183.18408203125 C 397.832763671875 184.31179809570312 398.19366455078125 185.75790405273438 398.75531005859375 186.93682861328125 C 399.27618408203125 188.03125 399.9515380859375 189.045166015625 400.7606506347656 189.9476318359375 C 402.0738830566406 191.4134521484375 404.01934814453125 192.62603759765625 405.9228820800781 192.12908935546875 C 406.950927734375 191.86233520507812 407.810302734375 191.12060546875 408.4199523925781 190.2489013671875 C 409.0295715332031 189.377197265625 409.4173889160156 188.37200927734375 409.7861022949219 187.37423706054688 C 410.15484619140625 186.37646484375 410.4957580566406 185.38812255859375 410.4241027832031 184.35223388671875 L 409.8020935058594 183.97601318359375" stroke-width="0.6000000238418579" fill="rgb(218, 166, 20)" opacity="1.0"/>
    <path d="M 446.96630859375 179.8341064453125 C 444.96484375 182.54541015625 445.54022216796875 186.36590576171875 448.25152587890625 188.36740112304688 C 448.48370361328125 188.53878784179688 448.72772216796875 188.6934814453125 448.9818115234375 188.83035278320312 C 449.947265625 189.35018920898438 451.1068115234375 189.60174560546875 452.15380859375 189.27783203125 C 453.0386962890625 189.00421142578125 453.75531005859375 188.35650634765625 454.370849609375 187.66522216796875 C 456.015869140625 185.8126220703125 457.1348876953125 183.5533447265625 457.611572265625 181.1220703125 C 457.736572265625 180.47921752929688 457.814453125 179.80682373046875 457.64129638671875 179.173828125 C 457.35113525390625 178.11090087890625 456.3900146484375 177.3421630859375 455.35784912109375 176.9544677734375 C 453.82586669921875 176.3778076171875 452.07830810546875 176.50128173828125 450.5657958984375 177.12823486328125 C 449.05328369140625 177.75515747070312 447.7652587890625 178.8538818359375 446.76312255859375 180.14849853515625 L 446.96630859375 179.8341064453125" stroke-width="0.6000000238418579" fill="rgb(143, 165, 67)" opacity="1.0"/>
    <path d="M 144.41165161132812 109.7991943359375 C 139.75033569335938 111.99716186523438 139.6627655029297 119.7977294921875 144.06329345703125 122.4156494140625 C 148.46383666992188 125.03352355957031 155.03749084472656 121.59197998046875 155.776123046875 116.49006652832031 C 156.5147705078125 111.38816833496094 151.71812438964844 106.36257934570312 146.55975341796875 106.48709106445312 L 144.41165161132812 109.7991943359375" stroke-width="0.6000000238418579" fill="rgb(233, 92, 21)" opacity="1.0"/>
    <path d="M 447.66064453125 151.10592651367188 C 445.9854736328125 153.04486083984375 444.1854248046875 155.53469848632812 445.0904541015625 157.94125366210938 C 445.4879150390625 158.88494873046875 446.16845703125 159.68206787109375 447.0380859375 160.22259521484375 C 449.1539306640625 161.61798095703125 451.8148193359375 161.9012451171875 454.177001953125 160.98263549804688 C 456.1787109375 160.1982421875 457.72271728515625 158.61611938476562 459.17926025390625 157.0526123046875 C 459.9959716796875 156.17303466796875 460.8358154296875 155.2124786376953 461.029296875 154.03451538085938 C 461.2744140625 152.46229553222656 460.2978515625 150.96630859375 459.23779296875 149.78033447265625 C 457.6884765625 148.04269409179688 455.8680419921875 146.56729125976562 453.8472900390625 145.41134643554688 C 453.1483154296875 145.01329040527344 452.39013671875 144.64358520507812 451.5860595703125 144.6526336669922 C 450.8388671875 144.6992950439453 450.1214599609375 144.9623565673828 449.52117919921875 145.40972900390625 C 447.6475830078125 146.69595336914062 446.4324951171875 148.7393341064453 446.19720458984375 150.99972534179688 L 447.66064453125 151.10592651367188" stroke-width="0.6000000238418579" fill="rgb(70, 150, 179)" opacity="1.0"/>
    <path d="M 376.462890625 82.92674255371094 C 375.7022399902344 80.36567687988281 374.7515869140625 77.55886840820312 372.4269104003906 76.24575805664062 C 369.9288024902344 74.836669921875 366.66192626953125 75.74476623535156 364.4429931640625 77.56192016601562 C 363.587158203125 78.26217651367188 362.8111572265625 79.126708984375 362.4992370605469 80.18746948242188 C 362.24249267578125 81.05938720703125 362.3177795410156 81.99124145507812 362.44500732421875 82.89100646972656 C 362.84283447265625 85.72891235351562 363.8498840332031 88.68855285644531 366.1527404785156 90.39306640625 C 368.474853515625 92.10934448242188 371.9207458496094 92.12892150878906 374.2544250488281 90.42410278320312 C 376.588134765625 88.71926879882812 377.6471862792969 85.44461059570312 376.7308044433594 82.70166015625 L 376.462890625 82.92674255371094" stroke-width="0.6000000238418579" fill="rgb(140, 28, 33)" opacity="1.0"/>
    <path d="M 126.74737548828125 409.82952880859375 C 124.85658264160156 410.4266357421875 122.89569091796875 411.0688171386719 121.42703247070312 412.40313720703125 C 119.95841979980469 413.7374267578125 119.11921691894531 415.9903564453125 119.9954833984375 417.770263671875 C 121.08203125 419.9649658203125 124.34315490722656 420.337890625 126.38076782226562 418.971435546875 C 128.4183807373047 417.60498046875 129.3821258544922 415.086181640625 129.69512939453125 412.6558837890625 C 129.86740112304688 411.9132995605469 129.75503540039062 411.1331481933594 129.3802032470703 410.4693603515625 C 128.94436645507812 409.8590393066406 127.86578369140625 409.68865966796875 127.47611999511719 410.3337707519531 L 126.74737548828125 409.82952880859375" stroke-width="0.6000000238418579" fill="rgb(159, 159, 159)" opacity="1.0"/>
    <path d="M 412.0843505859375 204.11822509765625 C 410.45391845703125 202.06329345703125 408.08392333984375 200.52224731445312 405.47784423828125 200.23541259765625 C 402.8717956542969 199.94854736328125 400.06988525390625 201.05136108398438 398.6300354003906 203.25564575195312 C 397.614013671875 204.81536865234375 397.3436584472656 206.78729248046875 397.6402282714844 208.62664794921875 C 397.9367980957031 210.46600341796875 398.7596130371094 212.18621826171875 399.78076171875 213.74493408203125 C 400.22552490234375 214.42300415039062 400.74114990234375 215.10205078125 401.4779357910156 215.43576049804688 C 402.32244873046875 215.81875610351562 403.301025390625 215.6785888671875 404.2112731933594 215.4873046875 C 406.78106689453125 214.9471435546875 409.365966796875 213.99261474609375 411.1982421875 212.11114501953125 C 413.030517578125 210.2296142578125 413.91522216796875 207.24822998046875 412.780517578125 204.886962890625 L 412.0843505859375 204.11822509765625" stroke-width="0.6000000238418579" fill="rgb(159, 159, 159)" opacity="1.0"/>
    <path d="M 386.3394470214844 116.80792236328125 C 383.949951171875 117.56329345703125 381.3266296386719 118.50643920898438 380.15130615234375 120.7142333984375 C 379.0052490234375 122.85971069335938 379.604248046875 125.48330688476562 380.2720642089844 127.8233642578125 C 380.5447692871094 128.77357482910156 380.8451843261719 129.76329040527344 381.5345153808594 130.47109985351562 C 382.6996765136719 131.66893005371094 384.6036376953125 131.71401977539062 386.2463684082031 131.4212646484375 C 387.77117919921875 131.15013122558594 389.2491760253906 130.66143798828125 390.6351013183594 129.97015380859375 C 392.8858642578125 128.84854125976562 395.0387268066406 126.86221313476562 395.07110595703125 124.34857177734375 C 395.090576171875 122.9915771484375 394.46771240234375 121.68154907226562 393.60015869140625 120.63522338867188 C 392.7325744628906 119.58889770507812 391.6254577636719 118.77066040039062 390.5209655761719 117.97845458984375 C 389.41650390625 117.18624877929688 388.31427001953125 116.43148803710938 387.013671875 116.1689453125 L 386.3394470214844 116.80792236328125" stroke-width="0.6000000238418579" fill="rgb(218, 166, 20)" opacity="1.0"/>
    <path d="M 401.5606384277344 84.41162109375 C 398.11309814453125 81.73025512695312 393.1446228027344 82.35136413574219 390.4632568359375 85.79891967773438 C 390.233642578125 86.0941162109375 390.0252685546875 86.40525817871094 389.8396911621094 86.72996520996094 C 389.134765625 87.96389770507812 388.7711181640625 89.45791625976562 389.15667724609375 90.82501220703125 C 389.48236083984375 91.98031616210938 390.2982177734375 92.92985534667969 391.17376708984375 93.74981689453125 C 393.5203857421875 95.94143676757812 396.4110412597656 97.46473693847656 399.54541015625 98.16151428222656 C 400.3742370605469 98.34429931640625 401.2427978515625 98.46717834472656 402.0685729980469 98.26339721679688 C 403.4551086425781 97.92208862304688 404.48236083984375 96.701904296875 405.01824951171875 95.37727355957031 C 405.81524658203125 93.41122436523438 405.712158203125 91.14311218261719 404.94915771484375 89.16311645507812 C 404.1861572265625 87.18313598632812 402.8045654296875 85.4786376953125 401.15997314453125 84.13815307617188 L 401.5606384277344 84.41162109375" stroke-width="0.6000000238418579" fill="rgb(143, 165, 67)" opacity="1.0"/>
    <path d="M 116.5020751953125 421.302978515625 C 113.35113525390625 417.22247314453125 105.71168518066406 418.8165283203125 104.10171508789062 423.67919921875 C 102.49176025390625 428.54193115234375 107.26933288574219 434.222900390625 112.41256713867188 433.845947265625 C 117.55580139160156 433.468994140625 121.43263244628906 427.700927734375 120.20028686523438 422.6883544921875 L 116.5020751953125 421.302978515625" stroke-width="0.6000000238418579" fill="rgb(233, 92, 21)" opacity="1.0"/>
    <path d="M 443.38134765625 195.69900512695312 C 441.74951171875 197.6478271484375 440.0023193359375 200.14498901367188 440.93695068359375 202.51806640625 C 441.34564208984375 203.44796752929688 442.0328369140625 204.2281494140625 442.9036865234375 204.75091552734375 C 445.023681640625 206.10247802734375 447.667236328125 206.34259033203125 449.99603271484375 205.39520263671875 C 451.969482421875 204.58651733398438 453.4765625 202.99359130859375 454.897216796875 201.42050170898438 C 455.69384765625 200.53555297851562 456.51202392578125 199.5699462890625 456.6859130859375 198.39862060546875 C 456.9049072265625 196.83544921875 455.91339111328125 195.36663818359375 454.84368896484375 194.20660400390625 C 453.28033447265625 192.50689697265625 451.4521484375 191.07144165039062 449.43011474609375 189.9559326171875 C 448.730712890625 189.57183837890625 447.9730224609375 189.216796875 447.1756591796875 189.23809814453125 C 446.435302734375 189.29583740234375 445.727783203125 189.5677490234375 445.1392822265625 190.02069091796875 C 443.3006591796875 191.3251953125 442.1268310546875 193.37054443359375 441.92816162109375 195.61614990234375 L 443.38134765625 195.69900512695312" stroke-width="0.6000000238418579" fill="rgb(70, 150, 179)" opacity="1.0"/>
    <path d="M 414.869140625 135.15797424316406 C 413.962646484375 132.6542510986328 412.8526611328125 129.91714477539062 410.4629211425781 128.74652099609375 C 407.8949890136719 127.49055480957031 404.6976318359375 128.58506774902344 402.5960998535156 130.52281188964844 C 401.7854919433594 131.2695770263672 401.0639343261719 132.1751251220703 400.8155822753906 133.24879455566406 C 400.6111145019531 134.13133239746094 400.740478515625 135.05409240722656 400.919677734375 135.94189453125 C 401.4814147949219 138.74227905273438 402.6564025878906 141.628173828125 405.0473327636719 143.18948364257812 C 407.4580993652344 144.76138305664062 410.8878173828125 144.5794219970703 413.110107421875 142.74673461914062 C 415.3323974609375 140.91404724121094 416.1947021484375 137.59396362304688 415.12255859375 134.91836547851562 L 414.869140625 135.15797424316406" stroke-width="0.6000000238418579" fill="rgb(140, 28, 33)" opacity="1.0"/>
    <path d="M 404.072509765625 81.73348999023438 C 404.2283020019531 83.76640319824219 404.412841796875 85.88005065917969 405.4055480957031 87.66262817382812 C 406.3982238769531 89.44517517089844 408.4578552246094 90.812255859375 410.44500732421875 90.35101318359375 C 412.89666748046875 89.77618408203125 414.03265380859375 86.59793090820312 413.14080810546875 84.23812866210938 C 412.2490234375 81.87832641601562 409.9521484375 80.3243408203125 407.59185791015625 79.44268798828125 C 406.8885498046875 79.0965576171875 406.0810852050781 79.02667236328125 405.32879638671875 79.24679565429688 C 404.6157531738281 79.54049682617188 404.1929626464844 80.58065795898438 404.7478332519531 81.12168884277344 L 404.072509765625 81.73348999023438" stroke-width="0.6000000238418579" fill="rgb(159, 159, 159)" opacity="1.0"/>
    <path d="M 440.17535400390625 232.56378173828125 C 438.5020751953125 234.5413818359375 437.469970703125 237.1353759765625 437.69805908203125 239.7144775390625 C 437.9261474609375 242.29351806640625 439.537841796875 244.79248046875 441.95172119140625 245.7587890625 C 443.6591796875 246.43984985351562 445.62103271484375 246.31884765625 447.344482421875 245.67465209960938 C 449.06793212890625 245.03045654296875 450.5738525390625 243.89984130859375 451.8848876953125 242.6085205078125 C 452.45513916015625 242.0462646484375 453.0125732421875 241.4151611328125 453.19268798828125 240.63699340820312 C 453.39959716796875 239.74493408203125 453.073974609375 238.8245849609375 452.7120361328125 237.9803466796875 C 451.690185546875 235.596923828125 450.26416015625 233.279296875 448.08673095703125 231.870361328125 C 445.90924072265625 230.46136474609375 442.8507080078125 230.1834716796875 440.78460693359375 231.74053955078125 L 440.17535400390625 232.56378173828125" stroke-width="0.6000000238418579" fill="rgb(159, 159, 159)" opacity="1.0"/>
    <path d="M 410.9938049316406 258.8094482421875 C 409.3901672363281 256.9599304199219 407.52752685546875 254.97354125976562 405.0924072265625 254.77569580078125 C 402.7245178222656 254.5799560546875 400.6044616699219 256.1341552734375 398.76531982421875 257.6401062011719 C 398.01910400390625 258.25299072265625 397.2481994628906 258.9060363769531 396.8808288574219 259.7984924316406 C 396.25860595703125 261.3075256347656 396.9563293457031 263.0320739746094 397.8556823730469 264.39141845703125 C 398.6899108886719 265.6534118652344 399.7010803222656 266.7890930175781 400.858154296875 267.7637023925781 C 402.73638916015625 269.3468322753906 405.3519287109375 270.5069885253906 407.6181640625 269.5614929199219 C 408.8423767089844 269.0528564453125 409.7754211425781 267.9865417480469 410.377197265625 266.8030700683594 C 410.9789733886719 265.61956787109375 411.28338623046875 264.3097229003906 411.5654602050781 263.0123291015625 C 411.8475341796875 261.7149353027344 412.096923828125 260.43408203125 411.82806396484375 259.1662292480469 L 410.9938049316406 258.8094482421875" stroke-width="0.6000000238418579" fill="rgb(218, 166, 20)" opacity="1.0"/>
    <path d="M 412.404052734375 86.17182922363281 C 409.9730529785156 89.8095703125 410.9512939453125 94.72923278808594 414.58905029296875 97.16021728515625 C 414.9005126953125 97.36837768554688 415.2264404296875 97.55418395996094 415.564208984375 97.71624755859375 C 416.847900390625 98.33175659179688 418.3668212890625 98.58755493164062 419.705078125 98.10391235351562 C 420.8359375 97.69532775878906 421.72601318359375 96.81179809570312 422.4822998046875 95.87794494628906 C 424.503173828125 93.37547302246094 425.817138671875 90.37753295898438 426.2877197265625 87.19557189941406 C 426.41064453125 86.35427856445312 426.470947265625 85.47758483886719 426.2078857421875 84.66714477539062 C 425.76702880859375 83.30633544921875 424.473876953125 82.36776733398438 423.11175537109375 81.92767333984375 C 421.0899658203125 81.27288818359375 418.83111572265625 81.53915405273438 416.90771484375 82.44406127929688 C 414.9842529296875 83.34896850585938 413.380615234375 84.85211181640625 412.15960693359375 86.59185791015625 L 412.404052734375 86.17182922363281" stroke-width="0.6000000238418579" fill="rgb(143, 165, 67)" opacity="1.0"/>
    <path d="M 440.17626953125 128.6102752685547 C 437.1112060546875 133.01467895507812 441.0833740234375 140.0997772216797 446.4141845703125 140.17691040039062 C 451.74505615234375 140.25401306152344 455.89013671875 133.7341766357422 453.906982421875 128.74635314941406 C 451.9239501953125 123.758544921875 444.9852294921875 121.71430969238281 440.3946533203125 124.50567626953125 L 440.17626953125 128.6102752685547" stroke-width="0.6000000238418579" fill="rgb(233, 92, 21)" opacity="1.0"/>
    <path d="M 442.199951171875 97.1546630859375 C 440.8177490234375 99.32025146484375 439.39111328125 102.05044555664062 440.63653564453125 104.30754089355469 C 441.1671142578125 105.18649291992188 441.957275390625 105.879150390625 442.898193359375 106.28993225097656 C 445.19891357421875 107.36898803710938 447.8798828125 107.26596069335938 450.0909423828125 106.0135498046875 C 451.9638671875 104.94635009765625 453.26739501953125 103.15374755859375 454.48687744140625 101.39222717285156 C 455.1702880859375 100.401611328125 455.86480712890625 99.32736206054688 455.8868408203125 98.13067626953125 C 455.903076171875 96.53536987304688 454.71826171875 95.19204711914062 453.4952392578125 94.16835021972656 C 451.7071533203125 92.66793823242188 449.6881103515625 91.46682739257812 447.5162353515625 90.61161804199219 C 446.7652587890625 90.31756591796875 445.9595947265625 90.06019592285156 445.1632080078125 90.18524169921875 C 444.4285888671875 90.33937072753906 443.75469970703125 90.70393371582031 443.2237548828125 91.23445129394531 C 441.5504150390625 92.78106689453125 440.63983154296875 94.98385620117188 440.732666015625 97.26052856445312 L 442.199951171875 97.1546630859375" stroke-width="0.6000000238418579" fill="rgb(70, 150, 179)" opacity="1.0"/>
    <path d="M 315.5595703125 386.1841125488281 C 313.0581970214844 386.25115966796875 310.2884216308594 386.43048095703125 308.5367431640625 388.2151184082031 C 306.6561584472656 390.1333312988281 306.6854248046875 393.30902099609375 307.7912292480469 395.757080078125 C 308.2171936035156 396.7011413574219 308.81109619140625 397.6128234863281 309.6950988769531 398.1522521972656 C 310.421630859375 398.5959777832031 311.28289794921875 398.75384521484375 312.12774658203125 398.8569641113281 C 314.7915954589844 399.1852722167969 317.7132873535156 398.9919738769531 319.81378173828125 397.322021484375 C 321.9295654296875 395.63751220703125 322.782958984375 392.5248718261719 321.8066101074219 390.0002136230469 C 320.8302307128906 387.4755859375 318.1246032714844 385.72332763671875 315.4209289550781 385.8871765136719 L 315.5595703125 386.1841125488281" stroke-width="0.6000000238418579" fill="rgb(140, 28, 33)" opacity="1.0"/>
    <path d="M 309.41094970703125 392.7482604980469 C 307.1807861328125 394.0983581542969 304.87506103515625 395.5278015136719 303.4131774902344 397.6885986328125 C 301.9512939453125 399.8493957519531 301.578857421875 402.98822021484375 303.25115966796875 404.9900207519531 C 305.3209228515625 407.4564514160156 309.6030578613281 406.9201354980469 311.7818603515625 404.54156494140625 C 313.9606628417969 402.1629638671875 314.40960693359375 398.6456604003906 314.0547180175781 395.4436340332031 C 314.0441589355469 394.44140625 313.6582946777344 393.4796142578125 312.9732666015625 392.74798583984375 C 312.2269287109375 392.1036376953125 310.7960510253906 392.2209167480469 310.4985656738281 393.1661376953125 L 309.41094970703125 392.7482604980469" stroke-width="0.6000000238418579" fill="rgb(159, 159, 159)" opacity="1.0"/>
    <path d="M 325.81396484375 405.85321044921875 C 323.4114074707031 407.13507080078125 321.39569091796875 409.26800537109375 320.6167907714844 411.8758850097656 C 319.837890625 414.4837646484375 320.441650390625 417.55078125 322.4241943359375 419.4322509765625 C 323.82757568359375 420.7606201171875 325.7909240722656 421.4044189453125 327.724609375 421.444580078125 C 329.6582946777344 421.48468017578125 331.5684509277344 420.9652099609375 333.3506774902344 420.2130126953125 C 334.12603759765625 419.88525390625 334.9156494140625 419.4853515625 335.39385986328125 418.795166015625 C 335.94244384765625 418.004150390625 335.9818115234375 416.9786376953125 335.9561767578125 416.013427734375 C 335.8837585449219 413.28839111328125 335.3909912109375 410.47064208984375 333.8112487792969 408.2486267089844 C 332.2314758300781 406.0265808105469 329.351806640625 404.5671691894531 326.72882080078125 405.2856750488281 L 325.81396484375 405.85321044921875" stroke-width="0.6000000238418579" fill="rgb(159, 159, 159)" opacity="1.0"/>
    <path d="M 271.80126953125 409.2467346191406 C 269.6930236816406 410.71685791015625 267.4132995605469 412.4422607421875 266.9377746582031 414.9630126953125 C 266.4718933105469 417.41375732421875 267.8605041503906 419.7989501953125 269.2297668457031 421.8856201171875 C 269.7872619628906 422.732421875 270.3840026855469 423.60943603515625 271.2752685546875 424.091552734375 C 272.78216552734375 424.907958984375 274.65985107421875 424.369873046875 276.178466796875 423.58099365234375 C 277.58831787109375 422.849365234375 278.8857727050781 421.9189453125 280.0311584472656 420.8184814453125 C 281.8915710449219 419.0322265625 283.39178466796875 416.429443359375 282.6548767089844 413.95880126953125 C 282.2590026855469 412.6243896484375 281.2486877441406 411.53240966796875 280.0794372558594 410.77337646484375 C 278.9101867675781 410.01434326171875 277.576171875 409.5518493652344 276.2527160644531 409.1140441894531 C 274.9292297363281 408.67620849609375 273.6194152832031 408.2743835449219 272.26593017578125 408.4150695800781 L 271.80126953125 409.2467346191406" stroke-width="0.6000000238418579" fill="rgb(218, 166, 20)" opacity="1.0"/>
    <path d="M 224.09844970703125 410.2933349609375 C 219.88006591796875 408.9794921875 215.395263671875 411.3341064453125 214.0814208984375 415.552490234375 C 213.96890258789062 415.9136962890625 213.88217163085938 416.282470703125 213.82183837890625 416.656005859375 C 213.5928955078125 418.07525634765625 213.77963256835938 419.6195068359375 214.63079833984375 420.7772216796875 C 215.3499755859375 421.755615234375 216.46026611328125 422.3648681640625 217.58099365234375 422.8302001953125 C 220.58261108398438 424.071533203125 223.86187744140625 424.486572265625 227.07815551757812 424.0322265625 C 227.9281005859375 423.91064453125 228.79440307617188 423.71826171875 229.5040283203125 423.231689453125 C 230.69586181640625 422.41552734375 231.2349853515625 420.8946533203125 231.2716064453125 419.4495849609375 C 231.32745361328125 417.30419921875 230.4234619140625 415.1927490234375 228.99691772460938 413.5887451171875 C 227.57037353515625 411.98480224609375 225.65594482421875 410.8616638183594 223.62176513671875 410.1767578125 L 224.09844970703125 410.2933349609375" stroke-width="0.6000000238418579" fill="rgb(143, 165, 67)" opacity="1.0"/>
    <path d="M 283.7772216796875 372.0555419921875 C 282.8049621582031 377.65887451171875 289.7930908203125 382.6863098144531 294.948486328125 380.37347412109375 C 300.1038818359375 378.06060791015625 301.1663513183594 369.9416198730469 297.0280456542969 366.0382080078125 C 292.8897705078125 362.1347961425781 285.30902099609375 363.2779846191406 282.149169921875 368.0148010253906 L 283.7772216796875 372.0555419921875" stroke-width="0.6000000238418579" fill="rgb(233, 92, 21)" opacity="1.0"/>
    <path d="M 336.5210876464844 368.99560546875 C 335.5561828613281 371.40008544921875 334.6529235839844 374.37237548828125 336.30908203125 376.3762512207031 C 336.9991760253906 377.1480712890625 337.91180419921875 377.6867370605469 338.9210205078125 377.91790771484375 C 341.4026794433594 378.55706787109375 344.0401916503906 377.9537353515625 345.9971923828125 376.2992248535156 C 347.6536560058594 374.8915100097656 348.61029052734375 372.871337890625 349.4894104003906 370.8977355957031 C 349.9814453125 369.78826904296875 350.4688720703125 368.5938415527344 350.2669372558594 367.4038391113281 C 349.9847717285156 365.81988525390625 348.5594482421875 364.710205078125 347.15606689453125 363.9244079589844 C 345.1036376953125 362.7718505859375 342.8782043457031 361.9590759277344 340.5660705566406 361.51763916015625 C 339.7668762207031 361.36663818359375 338.92041015625 361.26220703125 338.1545104980469 361.5350341796875 C 337.45538330078125 361.82513427734375 336.8557434082031 362.3123779296875 336.4287109375 362.9374084472656 C 335.0596923828125 364.78289794921875 334.56915283203125 367.1360778808594 335.0867919921875 369.3748779296875 L 336.5210876464844 368.99560546875" stroke-width="0.6000000238418579" fill="rgb(70, 150, 179)" opacity="1.0"/>
    <path d="M 296.16973876953125 408.7855529785156 C 293.4499816894531 409.1806335449219 290.4519348144531 409.7327575683594 288.7709655761719 411.9048156738281 C 286.96661376953125 414.2391357421875 287.40728759765625 417.69927978515625 288.9285583496094 420.2271728515625 C 289.5146789550781 421.20208740234375 290.27984619140625 422.1201171875 291.3135070800781 422.5947265625 C 292.1630859375 422.98516845703125 293.1228332519531 423.0465087890625 294.0576171875 423.05023193359375 C 297.0054626464844 423.06549072265625 300.1674499511719 422.47857666015625 302.2436218261719 420.38671875 C 304.3346252441406 418.2769775390625 304.86480712890625 414.77197265625 303.4748840332031 412.1439208984375 C 302.0849609375 409.51580810546875 298.90826416015625 407.95281982421875 295.98028564453125 408.4794921875 L 296.16973876953125 408.7855529785156" stroke-width="0.6000000238418579" fill="rgb(140, 28, 33)" opacity="1.0"/>
    <path d="M 335.5625305175781 391.1539001464844 C 333.0784606933594 391.9981384277344 330.5029296875 392.9040222167969 328.5985107421875 394.7113342285156 C 326.694091796875 396.5186462402344 325.6487121582031 399.5229797363281 326.8590393066406 401.8523254394531 C 328.3594665527344 404.7243347167969 332.6841735839844 405.1240234375 335.34033203125 403.2578430175781 C 337.99652099609375 401.3916320800781 339.1990051269531 398.0318908691406 339.543212890625 394.80804443359375 C 339.7497253417969 393.82073974609375 339.57867431640625 392.79193115234375 339.0637512207031 391.92462158203125 C 338.46966552734375 391.1297912597656 337.0379638671875 390.9353942871094 336.5410461425781 391.79998779296875 L 335.5625305175781 391.1539001464844" stroke-width="0.6000000238418579" fill="rgb(159, 159, 159)" opacity="1.0"/>
    <path d="M 348.445556640625 403.5698547363281 C 345.74615478515625 403.919921875 343.10791015625 405.2024841308594 341.45843505859375 407.3659973144531 C 339.8089599609375 409.5295104980469 339.2902526855469 412.6107177734375 340.4796142578125 415.0703125 C 341.32269287109375 416.8082275390625 342.9312438964844 418.10369873046875 344.7252502441406 418.82421875 C 346.519287109375 419.544677734375 348.48895263671875 419.73358154296875 350.4211730957031 419.6597900390625 C 351.2619934082031 419.62713623046875 352.1416320800781 419.53204345703125 352.8325500488281 419.0555419921875 C 353.62493896484375 418.5096435546875 354.0239562988281 417.5645751953125 354.3409118652344 416.6529541015625 C 355.2357177734375 414.0792236328125 355.7701416015625 411.270263671875 355.0777587890625 408.6344909667969 C 354.3853454589844 405.9986877441406 352.2080383300781 403.6168518066406 349.50152587890625 403.3622741699219 L 348.445556640625 403.5698547363281" stroke-width="0.6000000238418579" fill="rgb(159, 159, 159)" opacity="1.0"/>
    <path d="M 260.485595703125 375.14422607421875 C 259.79193115234375 372.6325378417969 258.9120788574219 369.8707275390625 256.6628723144531 368.5652160644531 C 254.47732543945312 367.29248046875 251.72836303710938 367.8147277832031 249.27139282226562 368.4193115234375 C 248.27365112304688 368.6663818359375 247.23379516601562 368.9407653808594 246.47201538085938 369.6300048828125 C 245.18292236328125 370.79498291015625 245.06338500976562 372.7716064453125 245.30487060546875 374.48968505859375 C 245.52838134765625 376.0844421386719 245.97976684570312 377.6388244628906 246.6451416015625 379.10528564453125 C 247.72467041015625 381.4867858886719 249.7064208984375 383.7995910644531 252.3170166015625 383.92919921875 C 253.726318359375 384.001220703125 255.11126708984375 383.4040222167969 256.2315979003906 382.5425109863281 C 257.3519287109375 381.68096923828125 258.2444152832031 380.56182861328125 259.1097106933594 379.4444580078125 C 259.97503662109375 378.3270568847656 260.8013610839844 377.2105712890625 261.123779296875 375.8691711425781 L 260.485595703125 375.14422607421875" stroke-width="0.6000000238418579" fill="rgb(218, 166, 20)" opacity="1.0"/>
    <path d="M 258.37005615234375 394.5721435546875 C 254.8582763671875 391.8159484863281 249.77706909179688 392.4284973144531 247.0208740234375 395.9402770996094 C 246.78485107421875 396.2409973144531 246.57049560546875 396.5580749511719 246.37933349609375 396.8891296386719 C 245.65325927734375 398.1471862792969 245.27487182617188 399.6726379394531 245.66278076171875 401.07171630859375 C 245.99050903320312 402.2540588378906 246.82012939453125 403.228271484375 247.71136474609375 404.0703125 C 250.10009765625 406.3209533691406 253.0478515625 407.8909606933594 256.24847412109375 408.61724853515625 C 257.0948181152344 408.80780029296875 257.9820251464844 408.9372863769531 258.8269958496094 408.73272705078125 C 260.2457275390625 408.3901062011719 261.30120849609375 407.14752197265625 261.85491943359375 405.7959899902344 C 262.6783752441406 403.7900085449219 262.58319091796875 401.47125244140625 261.81219482421875 399.4440002441406 C 261.04119873046875 397.4167785644531 259.63671875 395.6683654785156 257.96173095703125 394.2908020019531 L 258.37005615234375 394.5721435546875" stroke-width="0.6000000238418579" fill="rgb(143, 165, 67)" opacity="1.0"/>
    <path d="M 207.50494384765625 375.5210876464844 C 204.91824340820312 380.5895080566406 210.11083984375 387.4620361328125 215.72280883789062 386.77618408203125 C 221.33474731445312 386.09027099609375 224.75177001953125 378.6439514160156 221.95074462890625 373.68878173828125 C 219.14968872070312 368.7336120605469 211.5654296875 367.58404541015625 207.14398193359375 371.1771545410156 L 207.50494384765625 375.5210876464844" stroke-width="0.6000000238418579" fill="rgb(233, 92, 21)" opacity="1.0"/>
    <path d="M 268.3955078125 373.7808532714844 C 267.2445068359375 376.1637268066406 266.1167297363281 379.1294860839844 267.66455078125 381.2870178222656 C 268.3139343261719 382.12164306640625 269.206298828125 382.7342224121094 270.21856689453125 383.0401916503906 C 272.70281982421875 383.8646545410156 275.4325866699219 383.433837890625 277.54217529296875 381.8844299316406 C 279.328369140625 380.56549072265625 280.4441223144531 378.57366943359375 281.4776306152344 376.6238708496094 C 282.0564270019531 375.52764892578125 282.6364440917969 374.34454345703125 282.5137023925781 373.1178283691406 C 282.336669921875 371.48406982421875 280.9617004394531 370.2538757324219 279.5864562988281 369.355224609375 C 277.5754089355469 368.0375671386719 275.3643798828125 367.0540771484375 273.0390930175781 366.44293212890625 C 272.2352600097656 366.23333740234375 271.3799743652344 366.0678405761719 270.5804748535156 366.29241943359375 C 269.8478088378906 366.53924560546875 269.2027893066406 366.99395751953125 268.72406005859375 367.6010437011719 C 267.2002258300781 369.3861083984375 266.53619384765625 371.7497863769531 266.907470703125 374.0672607421875 L 268.3955078125 373.7808532714844" stroke-width="0.6000000238418579" fill="rgb(70, 150, 179)" opacity="1.0"/>
    <path d="M 330.76507568359375 369.7473449707031 C 330.3498229980469 367.0000305175781 329.7742004394531 363.9722595214844 327.5684814453125 362.28546142578125 C 325.197998046875 360.4748840332031 321.70245361328125 360.9405517578125 319.1556091308594 362.49322509765625 C 318.1734313964844 363.0914611816406 317.2497863769531 363.870361328125 316.7760009765625 364.91815185546875 C 316.38616943359375 365.7793273925781 316.3297424316406 366.7499694824219 316.3314208984375 367.695068359375 C 316.3331604003906 370.6753845214844 316.9449157714844 373.8686828613281 319.07183837890625 375.9554748535156 C 321.2169189453125 378.0571594238281 324.7634582519531 378.57275390625 327.412353515625 377.15228271484375 C 330.06121826171875 375.7318115234375 331.6228942871094 372.5111083984375 331.0733947753906 369.55401611328125 L 330.76507568359375 369.7473449707031" stroke-width="0.6000000238418579" fill="rgb(140, 28, 33)" opacity="1.0"/>
    <path d="M 350.8095397949219 390.4453125 C 348.4322814941406 391.5169372558594 345.9704284667969 392.6582336425781 344.2582702636719 394.62750244140625 C 342.546142578125 396.5967712402344 341.7978210449219 399.6685485839844 343.2168884277344 401.85791015625 C 344.974609375 404.5565185546875 349.291259765625 404.5404052734375 351.74151611328125 402.44134521484375 C 354.1917724609375 400.34228515625 355.0617370605469 396.9039306640625 355.0954895019531 393.68170166015625 C 355.20587158203125 392.6852722167969 354.9387512207031 391.6837158203125 354.3467712402344 390.8746337890625 C 353.6833801269531 390.14483642578125 352.2484436035156 390.0887451171875 351.8390808105469 390.9914245605469 L 350.8095397949219 390.4453125" stroke-width="0.6000000238418579" fill="rgb(159, 159, 159)" opacity="1.0"/>
    <path d="M 187.3699951171875 403.5854187011719 C 184.7581787109375 404.01318359375 182.236083984375 405.3450927734375 180.703369140625 407.5010070800781 C 179.17071533203125 409.65692138671875 178.7666015625 412.66790771484375 180.00213623046875 415.0194091796875 C 180.8778076171875 416.680908203125 182.48294067382812 417.8875732421875 184.2496337890625 418.529541015625 C 186.016357421875 419.1715087890625 187.9365234375 419.2911376953125 189.811767578125 419.15673828125 C 190.6278076171875 419.09771728515625 191.4794921875 418.976806640625 192.13543701171875 418.4913330078125 C 192.88775634765625 417.93511962890625 193.24481201171875 417.00390625 193.52325439453125 416.107666015625 C 194.30926513671875 413.57763671875 194.73748779296875 410.8306884765625 193.9791259765625 408.29180908203125 C 193.22076416015625 405.7529296875 191.02767944335938 403.509033203125 188.38937377929688 403.3494567871094 L 187.3699951171875 403.5854187011719" stroke-width="0.6000000238418579" fill="rgb(159, 159, 159)" opacity="1.0"/>
    <path d="M 353.781494140625 374.9407958984375 C 351.2915344238281 375.0426330566406 348.52825927734375 375.26373291015625 346.8247375488281 377.075927734375 C 345.16558837890625 378.8359680175781 345.05633544921875 381.5097961425781 345.0870666503906 383.929443359375 C 345.1009826660156 384.91241455078125 345.1312255859375 385.94049072265625 345.608154296875 386.7994384765625 C 346.4139709472656 388.2527160644531 348.2292785644531 388.7923889160156 349.88201904296875 388.93975830078125 C 351.41595458984375 389.0771484375 352.961669921875 388.9935607910156 354.47186279296875 388.6915283203125 C 356.9241943359375 388.2020568847656 359.5080261230469 386.85723876953125 360.1944580078125 384.45355224609375 C 360.56695556640625 383.15643310546875 360.3108215332031 381.7369079589844 359.7510986328125 380.50665283203125 C 359.1913757324219 379.2763671875 358.3423156738281 378.2024841308594 357.4889831542969 377.154296875 C 356.6356506347656 376.1061096191406 355.77471923828125 375.0944519042969 354.5950927734375 374.50341796875 L 353.781494140625 374.9407958984375" stroke-width="0.6000000238418579" fill="rgb(218, 166, 20)" opacity="1.0"/>
    <path d="M 370.0389404296875 390.4189147949219 C 365.95892333984375 392.19268798828125 364.0893249511719 396.9381103515625 365.8630676269531 401.01812744140625 C 366.01495361328125 401.3675231933594 366.1914367675781 401.7056884765625 366.3912048339844 402.03009033203125 C 367.150390625 403.2625732421875 368.3087158203125 404.31689453125 369.7192077636719 404.6394348144531 C 370.9111328125 404.9120788574219 372.1582946777344 404.64605712890625 373.3187255859375 404.2634582519531 C 376.4235534667969 403.2349853515625 379.1963806152344 401.3939208984375 381.34912109375 398.9315490722656 C 381.9170837402344 398.27972412109375 382.45086669921875 397.5631103515625 382.67169189453125 396.7253112792969 C 383.0432434082031 395.3190612792969 382.4536437988281 393.8050537109375 381.5308532714844 392.6794128417969 C 380.1619873046875 391.0072937011719 378.083740234375 389.9924621582031 375.9410400390625 389.7082824707031 C 373.7983703613281 389.42413330078125 371.60009765625 389.8274841308594 369.598876953125 390.6436767578125 L 370.0389404296875 390.4189147949219" stroke-width="0.6000000238418579" fill="rgb(143, 165, 67)" opacity="1.0"/>
    <path d="M 362.4312438964844 370.03643798828125 C 361.63153076171875 375.665283203125 368.7684326171875 380.474609375 373.8489685058594 378.0054626464844 C 378.92950439453125 375.53631591796875 379.7422180175781 367.3909912109375 375.4873962402344 363.6174621582031 C 371.23260498046875 359.84393310546875 363.6927185058594 361.2186584472656 360.6805419921875 366.0487365722656 L 362.4312438964844 370.03643798828125" stroke-width="0.6000000238418579" fill="rgb(233, 92, 21)" opacity="1.0"/>
    <path d="M 392.7337646484375 370.5701599121094 C 391.6400146484375 373.0062561035156 390.586181640625 376.0296630859375 392.2083740234375 378.1622619628906 C 392.886962890625 378.9858093261719 393.8044128417969 379.5785217285156 394.8341064453125 379.8585510253906 C 397.3632507324219 380.62005615234375 400.1045837402344 380.1084289550781 402.1888122558594 378.4859619140625 C 403.9532775878906 377.1051330566406 405.0224914550781 375.0644836425781 406.00994873046875 373.06854248046875 C 406.56280517578125 371.9464416503906 407.1144714355469 370.7366638183594 406.9560241699219 369.50274658203125 C 406.7313537597656 367.85980224609375 405.3096618652344 366.65771484375 403.8970947265625 365.7900695800781 C 401.83135986328125 364.5177307128906 399.5733337402344 363.588134765625 397.2105407714844 363.0373229980469 C 396.393798828125 362.84857177734375 395.5263977050781 362.705810546875 394.726318359375 362.95489501953125 C 393.9942321777344 363.2245788574219 393.3564147949219 363.7014465332031 392.89068603515625 364.32733154296875 C 391.4040222167969 366.17095947265625 390.8009338378906 368.5739440917969 391.2408752441406 370.90106201171875 L 392.7337646484375 370.5701599121094" stroke-width="0.6000000238418579" fill="rgb(70, 150, 179)" opacity="1.0"/>
    <path d="M 386.762451171875 407.32940673828125 C 385.10211181640625 409.4923095703125 383.35260009765625 411.95941162109375 383.6604309082031 414.6668701171875 C 383.99285888671875 417.57513427734375 386.7004699707031 419.7303466796875 389.53131103515625 420.4749755859375 C 390.62261962890625 420.7625732421875 391.8018798828125 420.8857421875 392.8652038574219 420.5079345703125 C 393.73944091796875 420.1976318359375 394.4642639160156 419.5771484375 395.1314697265625 418.9329833984375 C 397.2379150390625 416.90399169921875 399.0799255371094 414.2987060546875 399.1085510253906 411.3747863769531 C 399.1353759765625 408.4278869628906 397.0870056152344 405.5690002441406 394.28021240234375 404.6622314453125 C 391.47344970703125 403.7554626464844 388.1332702636719 404.8423767089844 386.41595458984375 407.242919921875 L 386.762451171875 407.32940673828125" stroke-width="0.6000000238418579" fill="rgb(140, 28, 33)" opacity="1.0"/>
    <path d="M 403.69586181640625 396.2000427246094 C 402.22027587890625 398.37298583984375 400.7087707519531 400.65032958984375 400.2772521972656 403.2431945800781 C 399.8457336425781 405.83599853515625 400.8226623535156 408.8670959472656 403.1947937011719 409.9982604980469 C 406.1260681152344 411.3880310058594 409.82269287109375 409.0987243652344 410.8193664550781 406.0054016113281 C 411.8160400390625 402.9120788574219 410.7502746582031 399.5022277832031 409.0806579589844 396.7186584472656 C 408.6501770019531 395.8052062988281 407.8929138183594 395.08636474609375 406.95831298828125 394.7039489746094 C 406.0041809082031 394.4272155761719 404.74298095703125 395.1354675292969 404.867431640625 396.1260681152344 L 403.69586181640625 396.2000427246094" stroke-width="0.6000000238418579" fill="rgb(159, 159, 159)" opacity="1.0"/>
    <path d="M 425.8485107421875 371.9582824707031 C 425.4031982421875 374.6888122558594 425.8836669921875 377.63140869140625 427.510009765625 379.8677062988281 C 429.1363525390625 382.1040344238281 431.985595703125 383.50653076171875 434.72711181640625 383.06475830078125 C 436.66497802734375 382.7499694824219 438.3948974609375 381.5609130859375 439.6190185546875 380.0238342285156 C 440.8431396484375 378.4867248535156 441.60076904296875 376.6237487792969 442.09161376953125 374.7207336425781 C 442.30474853515625 373.8924255371094 442.4683837890625 373.0082092285156 442.20556640625 372.1966247558594 C 441.90478515625 371.2660217285156 441.10076904296875 370.60223388671875 440.30535888671875 370.028076171875 C 438.0596923828125 368.40716552734375 435.48016357421875 367.0686340332031 432.71185302734375 366.9751892089844 C 429.943603515625 366.8817443847656 426.9901123046875 368.3082275390625 425.953857421875 370.86956787109375 L 425.8485107421875 371.9582824707031" stroke-width="0.6000000238418579" fill="rgb(159, 159, 159)" opacity="1.0"/>
    <path d="M 416.93603515625 403.2078857421875 C 414.5538330078125 404.14178466796875 411.9463806152344 405.2830810546875 410.9010009765625 407.613037109375 C 409.88116455078125 409.8774719238281 410.6719055175781 412.5089111328125 411.5132141113281 414.8466796875 C 411.85638427734375 415.7958984375 412.23052978515625 416.783447265625 412.9814453125 417.45709228515625 C 414.2508544921875 418.59716796875 416.1934814453125 418.5120849609375 417.84674072265625 418.10076904296875 C 419.38140869140625 417.7196044921875 420.8533935546875 417.1201171875 422.2176513671875 416.320556640625 C 424.433349609375 415.0230712890625 426.48974609375 412.8514404296875 426.3497314453125 410.28863525390625 C 426.27618408203125 408.9049377441406 425.55157470703125 407.61328125 424.5958251953125 406.60711669921875 C 423.6400146484375 405.6009216308594 422.45587158203125 404.84356689453125 421.2762451171875 404.112548828125 C 420.0965576171875 403.38153076171875 418.92181396484375 402.6885070800781 417.578857421875 402.5105895996094 L 416.93603515625 403.2078857421875" stroke-width="0.6000000238418579" fill="rgb(218, 166, 20)" opacity="1.0"/>
    <path d="M 143.5269775390625 232.65359497070312 C 140.1341094970703 235.5445556640625 139.72720336914062 240.63858032226562 142.61814880371094 244.03143310546875 C 142.86569213867188 244.32199096679688 143.133544921875 244.5946044921875 143.419677734375 244.84722900390625 C 144.50709533691406 245.80694580078125 145.92503356933594 246.47940063476562 147.37106323242188 246.3768310546875 C 148.59307861328125 246.290283203125 149.71080017089844 245.67132568359375 150.7113800048828 244.96588134765625 C 153.3870849609375 243.07391357421875 155.50738525390625 240.50003051757812 156.85205078125 237.5115966796875 C 157.2061767578125 236.7210693359375 157.50860595703125 235.87841796875 157.47576904296875 235.01095581054688 C 157.42144775390625 233.55465698242188 156.4144287109375 232.27560424804688 155.20140075683594 231.466064453125 C 153.40133666992188 230.26287841796875 151.11322021484375 229.89678955078125 148.9765625 230.24981689453125 C 146.8399200439453 230.60284423828125 144.85067749023438 231.63107299804688 143.1707763671875 232.99749755859375 L 143.5269775390625 232.65359497070312" stroke-width="0.6000000238418579" fill="rgb(143, 165, 67)" opacity="1.0"/>
    <path d="M 163.35186767578125 267.0025634765625 C 162.5311279296875 272.52630615234375 169.510986328125 277.2948303222656 174.51666259765625 274.90142822265625 C 179.5223388671875 272.50799560546875 180.37158203125 264.5126037597656 176.21609497070312 260.7795104980469 C 172.06060791015625 257.0464172363281 164.64617919921875 258.3494567871094 161.65728759765625 263.0747985839844 L 163.35186767578125 267.0025634765625" stroke-width="0.6000000238418579" fill="rgb(233, 92, 21)" opacity="1.0"/>
    <path d="M 154.87905883789062 316.7798767089844 C 153.23519897460938 318.8748779296875 151.48886108398438 321.54791259765625 152.54656982421875 324.001708984375 C 153.0054931640625 324.9618225097656 153.75103759765625 325.7558898925781 154.6803741455078 326.2743225097656 C 156.94525146484375 327.61895751953125 159.72137451171875 327.7823791503906 162.12841796875 326.7127990722656 C 164.16790771484375 325.8002624511719 165.69302368164062 324.08209228515625 167.12823486328125 322.3875427246094 C 167.93292236328125 321.4343566894531 168.75750732421875 320.39599609375 168.90060424804688 319.1636657714844 C 169.077880859375 317.51953125 167.99066162109375 316.0145263671875 166.83197021484375 314.8354187011719 C 165.1383056640625 313.107666015625 163.17620849609375 311.66546630859375 161.02169799804688 310.564697265625 C 160.27655029296875 310.1858215332031 159.47134399414062 309.8392333984375 158.63711547851562 309.88812255859375 C 157.86376953125 309.9732360839844 157.13189697265625 310.2815246582031 156.53076171875 310.7754211425781 C 154.64895629882812 312.2026062011719 153.48794555664062 314.3834533691406 153.3546600341797 316.7414855957031 L 154.87905883789062 316.7798767089844" stroke-width="0.6000000238418579" fill="rgb(70, 150, 179)" opacity="1.0"/>
    <path d="M 127.7913818359375 295.8149719238281 C 126.59085083007812 293.434326171875 125.16021728515625 290.845947265625 122.64451599121094 289.9678955078125 C 119.9415283203125 289.0262756347656 116.89376831054688 290.4966125488281 115.03620910644531 292.6741943359375 C 114.31964111328125 293.51348876953125 113.71055603027344 294.4999694824219 113.592041015625 295.5970458984375 C 113.4942626953125 296.49884033203125 113.73318481445312 297.4007263183594 114.0174560546875 298.26190185546875 C 114.91067504882812 300.97869873046875 116.42376708984375 303.7071838378906 118.9873046875 304.9735107421875 C 121.57185363769531 306.24798583984375 124.95970153808594 305.6570739746094 126.94985961914062 303.5694885253906 C 128.9400177001953 301.4819030761719 129.4003448486328 298.07818603515625 128.01466369628906 295.5464782714844 L 127.7913818359375 295.8149719238281" stroke-width="0.6000000238418579" fill="rgb(140, 28, 33)" opacity="1.0"/>
    <path d="M 140.62899780273438 270.5867004394531 C 138.20912170410156 271.6814270019531 135.7031707763672 272.84722900390625 133.96194458007812 274.8553466796875 C 132.2207489013672 276.86346435546875 131.46270751953125 279.9931945800781 132.91107177734375 282.2212219238281 C 134.70506286621094 284.9674987792969 139.10171508789062 284.9452209472656 141.5945587158203 282.80389404296875 C 144.08741760253906 280.66259765625 144.96884155273438 277.1593017578125 144.9988250732422 273.87725830078125 C 145.10989379882812 272.8622131347656 144.83644104003906 271.8424377441406 144.23240661621094 271.0191955566406 C 143.55572509765625 270.2767333984375 142.09410095214844 270.2215576171875 141.6783905029297 271.14154052734375 L 140.62899780273438 270.5867004394531" stroke-width="0.6000000238418579" fill="rgb(159, 159, 159)" opacity="1.0"/>
    <path d="M 156.7786865234375 293.5080871582031 C 155.05209350585938 295.6444396972656 154.01983642578125 298.4189147949219 154.3231964111328 301.14752197265625 C 154.6265411376953 303.8761291503906 156.39471435546875 306.48675537109375 158.9766845703125 307.45355224609375 C 160.80300903320312 308.134765625 162.87982177734375 307.95965576171875 164.69146728515625 307.2356262207031 C 166.50308227539062 306.5115966796875 168.072509765625 305.277099609375 169.43154907226562 303.8769226074219 C 170.02261352539062 303.2672424316406 170.59848022460938 302.5849609375 170.77084350585938 301.7557067871094 C 170.96890258789062 300.80511474609375 170.60171508789062 299.8372497558594 170.19790649414062 298.950927734375 C 169.05780029296875 296.44866943359375 167.49081420898438 294.02581787109375 165.14886474609375 292.58416748046875 C 162.80694580078125 291.14251708984375 159.5579833984375 290.9208984375 157.4049072265625 292.6208190917969 L 156.7786865234375 293.5080871582031" stroke-width="0.6000000238418579" fill="rgb(159, 159, 159)" opacity="1.0"/>
    <path d="M 128.37428283691406 346.592529296875 C 127.279541015625 344.3023376464844 125.96343994140625 341.8040771484375 123.5831298828125 340.9366149902344 C 121.26947021484375 340.0897521972656 118.72238159179688 341.0606689453125 116.46942138671875 342.0606384277344 C 115.55479431152344 342.46820068359375 114.60444641113281 342.9091491699219 113.99171447753906 343.700439453125 C 112.95462036132812 345.0381164550781 113.177978515625 346.9542236328125 113.703369140625 348.5606384277344 C 114.1904296875 350.0518798828125 114.88911437988281 351.4654235839844 115.77799987792969 352.7580261230469 C 117.22055053710938 354.8573913574219 119.51663208007812 356.7366027832031 122.04246520996094 356.41448974609375 C 123.40634155273438 356.2425842285156 124.63247680664062 355.43304443359375 125.55960083007812 354.41522216796875 C 126.48672485351562 353.39739990234375 127.15127563476562 352.1715087890625 127.79008483886719 350.951904296875 C 128.42889404296875 349.7322998046875 129.03045654296875 348.5202331542969 129.1103057861328 347.17864990234375 L 128.37428283691406 346.592529296875" stroke-width="0.6000000238418579" fill="rgb(218, 166, 20)" opacity="1.0"/>
    <path d="M 163.6275634765625 344.8848571777344 C 160.206298828125 347.72174072265625 159.73260498046875 352.79498291015625 162.56951904296875 356.2162170410156 C 162.81243896484375 356.5091857910156 163.0758056640625 356.7845458984375 163.35772705078125 357.04022216796875 C 164.42901611328125 358.0115661621094 165.83370971679688 358.7009582519531 167.2767333984375 358.6180114746094 C 168.4962158203125 358.54803466796875 169.61883544921875 357.94586181640625 170.62579345703125 357.25592041015625 C 173.31869506835938 355.4054260253906 175.46697998046875 352.86761474609375 176.84750366210938 349.9061584472656 C 177.21112060546875 349.12274169921875 177.52389526367188 348.28668212890625 177.50271606445312 347.4214172363281 C 177.468017578125 345.9687805175781 176.48114013671875 344.6801452636719 175.2825927734375 343.8568420410156 C 173.5040283203125 342.6332702636719 171.22772216796875 342.23773193359375 169.09280395507812 342.5611572265625 C 166.9578857421875 342.8845520019531 164.9609375 343.88311767578125 163.26785278320312 345.2229309082031 L 163.6275634765625 344.8848571777344" stroke-width="0.6000000238418579" fill="rgb(143, 165, 67)" opacity="1.0"/>
    <path d="M 135.0942840576172 376.19854736328125 C 131.7572021484375 371.70684814453125 123.43470764160156 373.2826232910156 121.5894775390625 378.5271301269531 C 119.7442626953125 383.77166748046875 124.81430053710938 390.0329895019531 130.40335083007812 389.7276611328125 C 135.9923858642578 389.42236328125 140.31585693359375 383.24102783203125 139.0796356201172 377.77655029296875 L 135.0942840576172 376.19854736328125" stroke-width="0.6000000238418579" fill="rgb(233, 92, 21)" opacity="1.0"/>
    <path d="M 176.44976806640625 367.9788818359375 C 175.01266479492188 370.19097900390625 173.525390625 372.9823913574219 174.78546142578125 375.3101501464844 C 175.32293701171875 376.21697998046875 176.12860107421875 376.9346923828125 177.09127807617188 377.3642272949219 C 179.444580078125 378.4911193847656 182.1981201171875 378.407470703125 184.47866821289062 377.13983154296875 C 186.41046142578125 376.0595703125 187.763671875 374.2297668457031 189.0302734375 372.43121337890625 C 189.74014282226562 371.41973876953125 190.46212768554688 370.3224792480469 190.49459838867188 369.093994140625 C 190.52447509765625 367.4561462402344 189.31903076171875 366.0671081542969 188.07171630859375 365.0059509277344 C 186.248291015625 363.4506530761719 184.18508911132812 362.2007751464844 181.96221923828125 361.30474853515625 C 181.193603515625 360.99664306640625 180.36856079101562 360.7257080078125 179.54977416992188 360.8475341796875 C 178.79425048828125 360.9997253417969 178.099365234375 361.36846923828125 177.54977416992188 361.9088134765625 C 175.8189697265625 363.4829406738281 174.8658447265625 365.73712158203125 174.94232177734375 368.0754699707031 L 176.44976806640625 367.9788818359375" stroke-width="0.6000000238418579" fill="rgb(70, 150, 179)" opacity="1.0"/>
  </g>
</svg>
