<?xml version="1.0" ?>
<svg xmlns="http://www.w3.org/2000/svg" version="1.1" width="600" height="600">
  <defs/>
  <g>
    <path d="M 353.431396484375 338.739990234375 C 356.7915344238281 340.1859130859375 360.9814453125 336.5657043457031 360.30523681640625 332.99468994140625 C 359.6290283203125 329.42364501953125 354.70855712890625 327.5451965332031 351.64788818359375 329.55059814453125 C 348.58721923828125 331.55596923828125 348.1690979003906 336.4694519042969 350.66009521484375 339.1544189453125 L 353.431396484375 338.739990234375" stroke-width="0.6000000238418579" fill="rgb(233, 92, 21)" opacity="1.0"/>
    <path d="M 104.15315246582031 200.04693603515625 C 105.60223388671875 198.92941284179688 107.21728515625 197.4442138671875 106.92758178710938 195.63101196289062 C 106.78422546386719 194.9139404296875 106.421875 194.25897216796875 105.8905029296875 193.756591796875 C 104.60923767089844 192.47808837890625 102.78776550292969 191.89993286132812 101.00370788574219 192.2054443359375 C 99.49099731445312 192.46847534179688 98.18472290039062 193.3551025390625 96.94229125976562 194.24114990234375 C 96.24517822265625 194.74002075195312 95.52041625976562 195.292236328125 95.216796875 196.0888671875 C 94.82078552246094 197.15399169921875 95.29051208496094 198.34024047851562 95.86297607421875 199.32147216796875 C 96.69898986816406 200.75860595703125 97.76210021972656 202.0509033203125 99.01106262207031 203.14828491210938 C 99.44332885742188 203.526611328125 99.92108154296875 203.89358520507812 100.4849853515625 204.0020751953125 C 101.01446533203125 204.07611083984375 101.55406188964844 203.99444580078125 102.0379638671875 203.76715087890625 C 103.53263854980469 203.1346435546875 104.67462158203125 201.8782958984375 105.16201782226562 200.3302001953125 L 104.15315246582031 200.04693603515625" stroke-width="0.6000000238418579" fill="rgb(70, 150, 179)" opacity="1.0"/>
    <path d="M 461.81561279296875 431.1611328125 C 462.8663330078125 433.07330322265625 464.11126708984375 435.148681640625 466.19403076171875 435.7939453125 C 468.43182373046875 436.4857177734375 470.88177490234375 435.195068359375 472.337890625 433.3604736328125 C 472.8995361328125 432.6533203125 473.369140625 431.82891845703125 473.434326171875 430.9283447265625 C 473.4881591796875 430.18798828125 473.26666259765625 429.45733642578125 473.00927734375 428.76123046875 C 472.20013427734375 426.5653076171875 470.8836669921875 424.377685546875 468.75054931640625 423.41632080078125 C 466.5999755859375 422.4488525390625 463.84649658203125 423.0301513671875 462.27935791015625 424.7950439453125 C 460.71221923828125 426.5599365234375 460.43426513671875 429.3568115234375 461.64080810546875 431.38720703125 L 461.81561279296875 431.1611328125" stroke-width="0.6000000238418579" fill="rgb(140, 28, 33)" opacity="1.0"/>
    <path d="M 92.39161682128906 192.5260009765625 C 93.06953430175781 192.125732421875 93.77053833007812 191.70172119140625 94.21914672851562 191.0540771484375 C 94.66775512695312 190.40643310546875 94.79061889648438 189.4598388671875 94.29228210449219 188.84979248046875 C 93.67544555664062 188.09814453125 92.38058471679688 188.24591064453125 91.71478271484375 188.95693969726562 C 91.0489501953125 189.66796875 90.9017333984375 190.72860717773438 90.998291015625 191.69671630859375 C 90.99813842773438 191.9993896484375 91.11148071289062 192.29107666015625 91.31590270996094 192.5142822265625 C 91.53915405273438 192.71133422851562 91.97161865234375 192.6806640625 92.0645751953125 192.396240234375 L 92.39161682128906 192.5260009765625" stroke-width="0.6000000238418579" fill="rgb(159, 159, 159)" opacity="1.0"/>
    <path d="M 380.0123596191406 300.5174255371094 C 381.9339904785156 299.6118469238281 383.58721923828125 298.02813720703125 384.2951965332031 296.02642822265625 C 385.0032043457031 294.02471923828125 384.6517028808594 291.6116943359375 383.1799621582031 290.06890869140625 C 382.1380615234375 288.9794616699219 380.63330078125 288.4017333984375 379.1282653808594 288.2955017089844 C 377.6231994628906 288.18927001953125 376.1147766113281 288.51995849609375 374.697021484375 289.036865234375 C 374.0801696777344 289.26220703125 373.4494323730469 289.5431823730469 373.05010986328125 290.0623779296875 C 372.5920104980469 290.6574401855469 372.5215759277344 291.45489501953125 372.5041198730469 292.20794677734375 C 372.4548645019531 294.33392333984375 372.72955322265625 296.5484619140625 373.8742370605469 298.3409729003906 C 375.0189208984375 300.1335144042969 377.2060241699219 301.3822326660156 379.2775573730469 300.9241638183594 L 380.0123596191406 300.5174255371094" stroke-width="0.6000000238418579" fill="rgb(159, 159, 159)" opacity="1.0"/>
    <path d="M 102.17926025390625 431.40869140625 C 103.56307983398438 429.93994140625 105.03765869140625 428.24737548828125 104.997802734375 426.2337646484375 C 104.96182250976562 424.275390625 103.51113891601562 422.66558837890625 102.12335205078125 421.28216552734375 C 101.55874633789062 420.72100830078125 100.95913696289062 420.1429443359375 100.19668579101562 419.91571044921875 C 98.90736389160156 419.5306396484375 97.55084228515625 420.2459716796875 96.5106201171875 421.096435546875 C 95.54478454589844 421.88543701171875 94.69725036621094 422.80902099609375 93.99395751953125 423.8388671875 C 92.85140991210938 425.5107421875 92.11697387695312 427.7523193359375 93.08052062988281 429.532470703125 C 93.59930419921875 430.494384765625 94.55130004882812 431.171142578125 95.57192993164062 431.56640625 C 96.59255981445312 431.9617919921875 97.69210815429688 432.10272216796875 98.77960205078125 432.22637939453125 C 99.86709594726562 432.35009765625 100.93832397460938 432.4482421875 101.95588684082031 432.12255859375 L 102.17926025390625 431.40869140625" stroke-width="0.6000000238418579" fill="rgb(218, 166, 20)" opacity="1.0"/>
    <path d="M 100.823486328125 139.04563903808594 C 103.96189880371094 139.94625854492188 107.23617553710938 138.1321563720703 108.13681030273438 134.99374389648438 C 108.21392822265625 134.72500610351562 108.27188110351562 134.4511260986328 108.31024169921875 134.17417907714844 C 108.455810546875 133.12181091308594 108.29220581054688 131.98399353027344 107.64413452148438 131.142822265625 C 107.09654235839844 130.43191528320312 106.26614379882812 130.000244140625 105.430419921875 129.67507934570312 C 103.19216918945312 128.80776977539062 100.76252746582031 128.55560302734375 98.39385986328125 128.94473266601562 C 97.7679443359375 129.0486602783203 97.131103515625 129.2052001953125 96.61489868164062 129.57647705078125 C 95.7479248046875 130.1992645263672 95.3748779296875 131.3318328857422 95.371826171875 132.40005493164062 C 95.36619567871094 133.98599243164062 96.06913757324219 135.5309600830078 97.14971923828125 136.69229125976562 C 98.23031616210938 137.8536376953125 99.66336059570312 138.651611328125 101.1776123046875 139.12384033203125 L 100.823486328125 139.04563903808594" stroke-width="0.6000000238418579" fill="rgb(143, 165, 67)" opacity="1.0"/>
    <path d="M 456.1781005859375 338.0151062011719 C 459.2528076171875 339.6693420410156 463.537841796875 336.575439453125 463.1917724609375 333.1236877441406 C 462.845703125 329.6719665527344 458.3232421875 327.4767150878906 455.24627685546875 329.12908935546875 C 452.1693115234375 330.78143310546875 451.3631591796875 335.41864013671875 453.508544921875 338.1787414550781 L 456.1781005859375 338.0151062011719" stroke-width="0.6000000238418579" fill="rgb(233, 92, 21)" opacity="1.0"/>
    <path d="M 110.88502502441406 215.83981323242188 C 112.52774047851562 215.0533447265625 114.40846252441406 213.94354248046875 114.50344848632812 212.1185302734375 C 114.51298522949219 211.39077758789062 114.29644775390625 210.677978515625 113.88372802734375 210.07852172851562 C 112.90243530273438 208.56781005859375 111.24978637695312 207.62640380859375 109.44984436035156 207.5528564453125 C 107.92282104492188 207.49441528320312 106.46710205078125 208.08578491210938 105.07363891601562 208.68991088867188 C 104.29141235351562 209.030517578125 103.47119140625 209.4173583984375 103.01005554199219 210.12957763671875 C 102.4031982421875 211.083984375 102.61376953125 212.336181640625 102.96696472167969 213.41024780273438 C 103.48190307617188 214.9827880859375 104.24795532226562 216.46160888671875 105.23544311523438 217.78936767578125 C 105.5775146484375 218.24746704101562 105.96621704101562 218.70394897460938 106.49252319335938 218.9267578125 C 106.99249267578125 219.10888671875 107.53465270996094 219.14163208007812 108.05290222167969 219.02093505859375 C 109.63916015625 218.716064453125 111.0118408203125 217.73068237304688 111.80807495117188 216.32525634765625 L 110.88502502441406 215.83981323242188" stroke-width="0.6000000238418579" fill="rgb(70, 150, 179)" opacity="1.0"/>
    <path d="M 103.26901245117188 76.4285888671875 C 104.56488037109375 78.00848388671875 106.06756591796875 79.70523071289062 108.09588623046875 79.94143676757812 C 110.27493286132812 80.19386291503906 112.30865478515625 78.58470153808594 113.33395385742188 76.6455078125 C 113.72959899902344 75.89801025390625 114.020263671875 75.05838012695312 113.92552185058594 74.21803283691406 C 113.847900390625 73.52720642089844 113.51844787597656 72.89260864257812 113.161865234375 72.2960205078125 C 112.0396728515625 70.41336059570312 110.451904296875 68.62559509277344 108.3228759765625 68.10699462890625 C 106.17678833007812 67.5858154296875 103.74169921875 68.59407043457031 102.6021728515625 70.48811340332031 C 101.462646484375 72.38215637207031 101.68731689453125 75.00482177734375 103.14691162109375 76.66673278808594 L 103.26901245117188 76.4285888671875" stroke-width="0.6000000238418579" fill="rgb(140, 28, 33)" opacity="1.0"/>
    <path d="M 95.81452941894531 428.4454345703125 C 96.507568359375 428.45947265625 97.22885131835938 428.466552734375 97.86470031738281 428.189208984375 C 98.50051879882812 427.9119873046875 99.03083801269531 427.25994873046875 98.94009399414062 426.5723876953125 C 98.826171875 425.723876953125 97.78805541992188 425.2349853515625 96.960205078125 425.4591064453125 C 96.13235473632812 425.683349609375 95.53099060058594 426.40948486328125 95.15505981445312 427.17919921875 C 95.01480102539062 427.40576171875 94.964599609375 427.6767578125 95.01437377929688 427.93853759765625 C 95.09030151367188 428.189453125 95.42839050292969 428.36676025390625 95.62969970703125 428.19677734375 L 95.81452941894531 428.4454345703125" stroke-width="0.6000000238418579" fill="rgb(159, 159, 159)" opacity="1.0"/>
    <path d="M 466.74810791015625 61.1666259765625 C 468.0498046875 59.761322021484375 468.8983154296875 57.87940979003906 468.81536865234375 55.96669006347656 C 468.732421875 54.053955078125 467.62481689453125 52.15452575683594 465.873779296875 51.360595703125 C 464.63507080078125 50.80085754394531 463.181884765625 50.82513427734375 461.88739013671875 51.243804931640625 C 460.5928955078125 51.6624755859375 459.4429931640625 52.44769287109375 458.431640625 53.358062744140625 C 457.99176025390625 53.75450134277344 457.55908203125 54.202178955078125 457.400146484375 54.771026611328125 C 457.21771240234375 55.423126220703125 457.427734375 56.11378479003906 457.6671142578125 56.749420166015625 C 458.3427734375 58.54396057128906 459.31927490234375 60.30329895019531 460.8809814453125 61.416351318359375 C 462.4427490234375 62.529388427734375 464.69287109375 62.836181640625 466.270751953125 61.754547119140625 L 466.74810791015625 61.1666259765625" stroke-width="0.6000000238418579" fill="rgb(159, 159, 159)" opacity="1.0"/>
    <path d="M 92.30751037597656 105.01425170898438 C 94.29826354980469 105.33474731445312 96.52496337890625 105.604736328125 98.16773986816406 104.44232177734375 C 99.76693725585938 103.31411743164062 100.28443908691406 101.21157836914062 100.64999389648438 99.28802490234375 C 100.79734802246094 98.50637817382812 100.93904113769531 97.68632507324219 100.69927978515625 96.92837524414062 C 100.29452514648438 95.64620971679688 98.94207763671875 94.92575073242188 97.65536499023438 94.54255676269531 C 96.46119689941406 94.18643188476562 95.22209167480469 94.00363159179688 93.9759521484375 93.999755859375 C 91.95260620117188 93.99270629882812 89.68710327148438 94.64263916015625 88.75546264648438 96.43795776367188 C 88.25108337402344 97.40644836425781 88.22543334960938 98.57328796386719 88.47099304199219 99.63900756835938 C 88.716552734375 100.7047119140625 89.21675109863281 101.69302368164062 89.72447204589844 102.66166687011719 C 90.232177734375 103.63031005859375 90.75180053710938 104.57121276855469 91.5919189453125 105.22994995117188 L 92.30751037597656 105.01425170898438" stroke-width="0.6000000238418579" fill="rgb(218, 166, 20)" opacity="1.0"/>
    <path d="M 115.91989135742188 127.61637878417969 C 118.98086547851562 126.61318969726562 120.64901733398438 123.31851196289062 119.64581298828125 120.25753784179688 C 119.55992126464844 119.99542236328125 119.45553588867188 119.73973083496094 119.33343505859375 119.49238586425781 C 118.86935424804688 118.55264282226562 118.10552978515625 117.71438598632812 117.11051940917969 117.38665771484375 C 116.26968383789062 117.109619140625 115.3526611328125 117.21719360351562 114.49029541015625 117.41465759277344 C 112.18264770507812 117.94644165039062 110.05946350097656 119.08639526367188 108.34130859375 120.71612548828125 C 107.88789367675781 121.14767456054688 107.4547119140625 121.62823486328125 107.23895263671875 122.21726989746094 C 106.87615966796875 123.2059326171875 107.198974609375 124.337158203125 107.7882080078125 125.21092224121094 C 108.66207885742188 126.50875854492188 110.09173583984375 127.38063049316406 111.6171875 127.73016357421875 C 113.14260864257812 128.07968139648438 114.75454711914062 127.93731689453125 116.25230407714844 127.48405456542969 L 115.91989135742188 127.61637878417969" stroke-width="0.6000000238418579" fill="rgb(143, 165, 67)" opacity="1.0"/>
    <path d="M 386.5591735839844 299.9767761230469 C 389.4393310546875 302.0890197753906 394.2193908691406 299.56280517578125 394.3586730957031 296.0168762207031 C 394.49798583984375 292.470947265625 390.22802734375 289.6051940917969 386.8763427734375 290.8424377441406 C 383.524658203125 292.07965087890625 382.0498962402344 296.6630554199219 383.83154296875 299.7637023925781 L 386.5591735839844 299.9767761230469" stroke-width="0.6000000238418579" fill="rgb(233, 92, 21)" opacity="1.0"/>
    <path d="M 121.79940795898438 111.01472473144531 C 123.27288818359375 109.88360595703125 124.91567993164062 108.379638671875 124.625732421875 106.53843688964844 C 124.48182678222656 105.81021118164062 124.11549377441406 105.14456176757812 123.57723999023438 104.63336181640625 C 122.279541015625 103.33267211914062 120.43190002441406 102.74165344238281 118.62022399902344 103.0477294921875 C 117.08409118652344 103.31130981445312 115.75607299804688 104.20834350585938 114.49288940429688 105.10494995117188 C 113.78413391113281 105.60975646972656 113.04718017578125 106.16867065429688 112.73715209960938 106.97662353515625 C 112.332763671875 108.05694580078125 112.806884765625 109.26214599609375 113.38577270507812 110.25949096679688 C 114.23114013671875 111.72018432617188 115.30734252929688 113.03440856933594 116.57266235351562 114.15119934082031 C 117.01060485839844 114.53622436523438 117.49472045898438 114.90980529785156 118.06689453125 115.02119445800781 C 118.60420227050781 115.09754943847656 119.15213012695312 115.01591491699219 119.64384460449219 114.7862548828125 C 121.16250610351562 114.14759826660156 122.3245849609375 112.87489318847656 122.82284545898438 111.3045654296875 L 121.79940795898438 111.01472473144531" stroke-width="0.6000000238418579" fill="rgb(70, 150, 179)" opacity="1.0"/>
    <path d="M 430.59637451171875 71.91610717773438 C 431.8402099609375 73.6385498046875 433.29119873046875 75.49554443359375 435.381103515625 75.870361328125 C 437.6263427734375 76.27166748046875 439.83984375 74.731689453125 441.0279541015625 72.78475952148438 C 441.486328125 72.0343017578125 441.8416748046875 71.18150329589844 441.79705810546875 70.3033447265625 C 441.76068115234375 69.58143615722656 441.4593505859375 68.90177917480469 441.12744140625 68.25985717773438 C 440.08319091796875 66.23428344726562 438.5496826171875 64.27740478515625 436.37335205078125 63.60307312011719 C 434.179443359375 62.924957275390625 431.587890625 63.815643310546875 430.2841796875 65.70843505859375 C 428.98046875 67.6011962890625 429.0458984375 70.33737182617188 430.4544677734375 72.15544128417969 L 430.59637451171875 71.91610717773438" stroke-width="0.6000000238418579" fill="rgb(140, 28, 33)" opacity="1.0"/>
    <path d="M 119.87106323242188 417.63812255859375 C 120.48098754882812 417.14111328125 121.11015319824219 416.6173095703125 121.45646667480469 415.91015625 C 121.80276489257812 415.203125 121.78250122070312 414.24945068359375 121.19879150390625 413.7213134765625 C 120.47682189941406 413.0709228515625 119.21952819824219 413.4107666015625 118.6680908203125 414.21295166015625 C 118.11663818359375 415.01513671875 118.12991333007812 416.085205078125 118.3702392578125 417.0272216796875 C 118.4154052734375 417.32635498046875 118.571044921875 417.59765625 118.80642700195312 417.78753662109375 C 119.0565185546875 417.9488525390625 119.47921752929688 417.853759765625 119.52850341796875 417.558837890625 L 119.87106323242188 417.63812255859375" stroke-width="0.6000000238418579" fill="rgb(159, 159, 159)" opacity="1.0"/>
    <path d="M 451.17230224609375 427.48846435546875 C 452.28466796875 425.8292236328125 452.852783203125 423.75274658203125 452.4564208984375 421.7958984375 C 452.05999755859375 419.839111328125 450.6102294921875 418.0626220703125 448.67742919921875 417.5294189453125 C 447.3104248046875 417.15423583984375 445.81744384765625 417.41552734375 444.55206298828125 418.0572509765625 C 443.2867431640625 418.698974609375 442.22979736328125 419.69476318359375 441.3360595703125 420.7969970703125 C 440.9473876953125 421.27685546875 440.574462890625 421.808349609375 440.50323486328125 422.420166015625 C 440.42132568359375 423.12158203125 440.74993896484375 423.798828125 441.099853515625 424.4146728515625 C 442.087646484375 426.15338134765625 443.3795166015625 427.806884765625 445.169189453125 428.6995849609375 C 446.95892333984375 429.5921630859375 449.32666015625 429.54241943359375 450.776123046875 428.17169189453125 L 451.17230224609375 427.48846435546875" stroke-width="0.6000000238418579" fill="rgb(159, 159, 159)" opacity="1.0"/>
    <path d="M 448.4412841796875 285.0710144042969 C 449.8671875 283.6994323730469 451.3927001953125 282.1130676269531 451.4508056640625 280.1392822265625 C 451.5098876953125 278.2198486328125 450.1669921875 276.5735168457031 448.8746337890625 275.15191650390625 C 448.34881591796875 274.5751647949219 447.78948974609375 273.9801940917969 447.0538330078125 273.7209167480469 C 445.809814453125 273.28167724609375 444.44696044921875 273.9168395996094 443.3873291015625 274.6994934082031 C 442.40350341796875 275.425537109375 441.529052734375 276.28912353515625 440.7906494140625 277.26373291015625 C 439.59124755859375 278.8458557128906 438.7640380859375 281.00543212890625 439.62176513671875 282.795166015625 C 440.0833740234375 283.7620544433594 440.9830322265625 284.4706726074219 441.96337890625 284.9070129394531 C 442.94384765625 285.34332275390625 444.0137939453125 285.53436279296875 445.07275390625 285.7078857421875 C 446.1317138671875 285.88140869140625 447.17596435546875 286.02923583984375 448.1881103515625 285.7593078613281 L 448.4412841796875 285.0710144042969" stroke-width="0.6000000238418579" fill="rgb(218, 166, 20)" opacity="1.0"/>
    <path d="M 425.12017822265625 370.6142272949219 C 427.09393310546875 373.14154052734375 430.7427978515625 373.5903015136719 433.2701416015625 371.6165466308594 C 433.48651123046875 371.4475402832031 433.690673828125 371.26336669921875 433.88104248046875 371.0654602050781 C 434.604248046875 370.3133544921875 435.13104248046875 369.3148193359375 435.1016845703125 368.2723693847656 C 435.07696533203125 367.3913879394531 434.6663818359375 366.56903076171875 434.1900634765625 365.8282165527344 C 432.91229248046875 363.8470153808594 431.12738037109375 362.24407958984375 429.02069091796875 361.1859130859375 C 428.46337890625 360.9071350097656 427.86700439453125 360.66387939453125 427.2425537109375 360.660888671875 C 426.194091796875 360.6552734375 425.243896484375 361.3398132324219 424.6248779296875 362.18682861328125 C 423.704833984375 363.4436950683594 423.3714599609375 365.0770568847656 423.5596923828125 366.62359619140625 C 423.74786376953125 368.1701354980469 424.4259033203125 369.6314392089844 425.3564453125 370.88079833984375 L 425.12017822265625 370.6142272949219" stroke-width="0.6000000238418579" fill="rgb(143, 165, 67)" opacity="1.0"/>
    <path d="M 449.5323486328125 356.70709228515625 C 451.77178955078125 353.873046875 449.3924560546875 348.95025634765625 445.8138427734375 348.68060302734375 C 442.2352294921875 348.4109191894531 439.1837158203125 352.6221618652344 440.312255859375 356.05450439453125 C 441.44091796875 359.4868469238281 446.01947021484375 361.1439208984375 449.2178955078125 359.4560241699219 L 449.5323486328125 356.70709228515625" stroke-width="0.6000000238418579" fill="rgb(233, 92, 21)" opacity="1.0"/>
    <path d="M 451.690185546875 84.86465454101562 C 453.1510009765625 83.52983093261719 454.757568359375 81.78384399414062 454.28204345703125 79.85606384277344 C 454.06292724609375 79.09625244140625 453.61346435546875 78.42315673828125 452.99560546875 77.92962646484375 C 451.49969482421875 76.66737365722656 449.48480224609375 76.20848083496094 447.58984375 76.69845581054688 C 445.98345947265625 77.11819458007812 444.65570068359375 78.19131469726562 443.396728515625 79.25807189941406 C 442.6904296875 79.85845947265625 441.959228515625 80.51882934570312 441.70379638671875 81.40463256835938 C 441.373046875 82.58810424804688 441.986083984375 83.82406616210938 442.69140625 84.82986450195312 C 443.7218017578125 86.30314636230469 444.9837646484375 87.59994506835938 446.4285888671875 88.66995239257812 C 446.928466796875 89.0386962890625 447.476318359375 89.39108276367188 448.09375 89.4571533203125 C 448.6710205078125 89.48922729492188 449.2451171875 89.3526611328125 449.74609375 89.0640869140625 C 451.2998046875 88.24783325195312 452.4171142578125 86.79110717773438 452.8028564453125 85.07899475097656 L 451.690185546875 84.86465454101562" stroke-width="0.6000000238418579" fill="rgb(70, 150, 179)" opacity="1.0"/>
    <path d="M 449.108154296875 393.97760009765625 C 450.4586181640625 392.1566467285156 451.8790283203125 390.0815734863281 451.585693359375 387.83502197265625 C 451.269287109375 385.42193603515625 448.9886474609375 383.66766357421875 446.62506103515625 383.0876770019531 C 445.7138671875 382.8636474609375 444.7318115234375 382.7774963378906 443.85302734375 383.10626220703125 C 443.130615234375 383.376220703125 442.53662109375 383.9020690917969 441.9908447265625 384.4468078613281 C 440.2677001953125 386.1625671386719 438.7723388671875 388.3537902832031 438.788818359375 390.784912109375 C 438.8072509765625 393.235107421875 440.54949951171875 395.5834655761719 442.89532470703125 396.298583984375 C 445.24114990234375 397.013671875 448.0029296875 396.06402587890625 449.39739990234375 394.04473876953125 L 449.108154296875 393.97760009765625" stroke-width="0.6000000238418579" fill="rgb(140, 28, 33)" opacity="1.0"/>
    <path d="M 117.60679626464844 213.4180908203125 C 116.50825500488281 213.0657958984375 115.36128234863281 212.71136474609375 114.21530151367188 212.85107421875 C 113.0693359375 212.99078369140625 111.91334533691406 213.77828979492188 111.73089599609375 214.91802978515625 C 111.50883483886719 216.325439453125 112.93182373046875 217.59909057617188 114.3587646484375 217.63543701171875 C 115.78570556640625 217.6717529296875 117.09024047851562 216.79986572265625 118.0560302734375 215.751220703125 C 118.38752746582031 215.45654296875 118.59649658203125 215.04833984375 118.6417236328125 214.607177734375 C 118.6400146484375 214.17083740234375 118.1851806640625 213.72723388671875 117.78324890136719 213.90252685546875 L 117.60679626464844 213.4180908203125" stroke-width="0.6000000238418579" fill="rgb(159, 159, 159)" opacity="1.0"/>
    <path d="M 112.96905517578125 224.2518310546875 C 111.0799560546875 222.9210205078125 108.69374084472656 222.20843505859375 106.42010498046875 222.614501953125 C 104.146484375 223.0205078125 102.05316162109375 224.64959716796875 101.38487243652344 226.87060546875 C 100.91436767578125 228.44146728515625 101.17657470703125 230.17507934570312 101.88485717773438 231.6556396484375 C 102.59312438964844 233.13616943359375 103.71646118164062 234.38510131835938 104.96722412109375 235.4482421875 C 105.51177978515625 235.91055297851562 106.11647033691406 236.3560791015625 106.82211303710938 236.45477294921875 C 107.63107299804688 236.56829833984375 108.42312622070312 236.20635986328125 109.14472961425781 235.8182373046875 C 111.18193054199219 234.72235107421875 113.1287841796875 233.2725830078125 114.20901489257812 231.22671508789062 C 115.28923034667969 229.18084716796875 115.29501342773438 226.44131469726562 113.74859619140625 224.728271484375 L 112.96905517578125 224.2518310546875" stroke-width="0.6000000238418579" fill="rgb(159, 159, 159)" opacity="1.0"/>
    <path d="M 300.8102722167969 104.86024475097656 C 299.65386962890625 106.71774291992188 298.4489440917969 108.83251953125 298.9224853515625 110.96432495117188 C 299.38006591796875 113.03817749023438 301.2667236328125 114.43862915039062 303.0380554199219 115.61192321777344 C 303.7583312988281 116.08749389648438 304.5194396972656 116.57354736328125 305.3785400390625 116.65180969238281 C 306.8314208984375 116.78504943847656 308.1201171875 115.73419189453125 309.043701171875 114.60748291015625 C 309.9013366699219 113.56205749511719 310.60443115234375 112.39889526367188 311.1314392089844 111.15359497070312 C 311.9878845214844 109.13189697265625 312.28857421875 106.59210205078125 310.8832092285156 104.90618896484375 C 310.1258239746094 103.99493408203125 308.968994140625 103.47943115234375 307.7995300292969 103.27777099609375 C 306.6300354003906 103.07611083984375 305.4311218261719 103.1617431640625 304.24871826171875 103.26315307617188 C 303.0663146972656 103.36456298828125 301.90667724609375 103.48953247070312 300.89483642578125 104.05364990234375 L 300.8102722167969 104.86024475097656" stroke-width="0.6000000238418579" fill="rgb(218, 166, 20)" opacity="1.0"/>
    <path d="M 221.20263671875 126.8201904296875 C 218.151611328125 124.94706726074219 214.1597900390625 125.90194702148438 212.28668212890625 128.9529571533203 C 212.12628173828125 129.21421813964844 211.984619140625 129.4865264892578 211.86276245117188 129.76783752441406 C 211.39990234375 130.83682250976562 211.23861694335938 132.08689880371094 211.67620849609375 133.16586303710938 C 212.04592895507812 134.07769775390625 212.79638671875 134.77760314941406 213.58380126953125 135.36654663085938 C 215.69363403320312 136.94012451171875 218.18634033203125 137.92005920410156 220.80291748046875 138.20458984375 C 221.49468994140625 138.2786407470703 222.21343994140625 138.30027770996094 222.8677978515625 138.05966186523438 C 223.96661376953125 137.65634155273438 224.69329833984375 136.56942749023438 225.01025390625 135.44180297851562 C 225.48193359375 133.76803588867188 225.19305419921875 131.92945861816406 224.392578125 130.38523864746094 C 223.59207153320312 128.84103393554688 222.3125 127.5771484375 220.85150146484375 126.63357543945312 L 221.20263671875 126.8201904296875" stroke-width="0.6000000238418579" fill="rgb(143, 165, 67)" opacity="1.0"/>
    <path d="M 223.19818115234375 96.48077392578125 C 221.24307250976562 100.38327026367188 225.265380859375 105.62506103515625 229.5660400390625 105.06686401367188 C 233.86669921875 104.50862121582031 236.44509887695312 98.77740478515625 234.2681884765625 94.99261474609375 C 232.09130859375 91.20783996582031 226.26727294921875 90.3695068359375 222.89642333984375 93.15087890625 L 223.19818115234375 96.48077392578125" stroke-width="0.6000000238418579" fill="rgb(233, 92, 21)" opacity="1.0"/>
    <path d="M 204.7564697265625 97.18489074707031 C 203.768310546875 95.29519653320312 202.39190673828125 93.14041137695312 200.25250244140625 93.10472106933594 C 199.40054321289062 93.1236572265625 198.575439453125 93.40647888183594 197.89105224609375 93.91421508789062 C 196.16387939453125 95.1248779296875 195.13064575195312 97.09762573242188 195.1190185546875 99.20681762695312 C 195.11373901367188 100.99603271484375 195.86590576171875 102.67498779296875 196.63040161132812 104.28054809570312 C 197.06134033203125 105.1817626953125 197.5478515625 106.12551879882812 198.40032958984375 106.63566589355469 C 199.54217529296875 107.30633544921875 200.99871826171875 107.00814819335938 202.24090576171875 106.55047607421875 C 204.0596923828125 105.88291931152344 205.7584228515625 104.92538452148438 207.271240234375 103.71501159667969 C 207.79315185546875 103.29580688476562 208.31121826171875 102.82209777832031 208.5501708984375 102.19705200195312 C 208.74261474609375 101.6044921875 208.75848388671875 100.96875 208.59588623046875 100.36732482910156 C 208.17355346679688 98.5238037109375 206.96377563476562 96.95831298828125 205.28631591796875 96.08474731445312 L 204.7564697265625 97.18489074707031" stroke-width="0.6000000238418579" fill="rgb(70, 150, 179)" opacity="1.0"/>
    <path d="M 265.5212097167969 129.2318115234375 C 264.2381286621094 131.0550537109375 262.8924865722656 133.12985229492188 263.2357482910156 135.331298828125 C 263.6059265136719 137.69590759277344 265.8909606933594 139.36477661132812 268.22882080078125 139.87716674804688 C 269.1301574707031 140.07510375976562 270.0976867675781 140.1357879638672 270.9535827636719 139.79107666015625 C 271.6572570800781 139.5079803466797 272.2283630371094 138.97650146484375 272.7515869140625 138.42759704589844 C 274.4036560058594 136.69862365722656 275.8201904296875 134.5078125 275.74444580078125 132.11814880371094 C 275.6664733886719 129.70977783203125 273.8961486816406 127.44366455078125 271.5724182128906 126.79803466796875 C 269.2486877441406 126.15238952636719 266.5567932128906 127.153564453125 265.2352294921875 129.1728973388672 L 265.5212097167969 129.2318115234375" stroke-width="0.6000000238418579" fill="rgb(140, 28, 33)" opacity="1.0"/>
    <path d="M 317.7882385253906 115.06706237792969 C 316.45526123046875 115.72027587890625 315.075439453125 116.41464233398438 314.1373291015625 117.56642150878906 C 313.19921875 118.71817016601562 312.8296203613281 120.47958374023438 313.67706298828125 121.69929504394531 C 314.7265319824219 123.20254516601562 317.1822204589844 123.11441040039062 318.5379333496094 121.87530517578125 C 319.8936462402344 120.63619995117188 320.32574462890625 118.66398620605469 320.2859802246094 116.83003234863281 C 320.33056640625 116.26109313964844 320.1602478027344 115.69613647460938 319.80865478515625 115.24664306640625 C 319.4178466796875 114.84352111816406 318.60040283203125 114.83786010742188 318.3840026855469 115.35894775390625 L 317.7882385253906 115.06706237792969" stroke-width="0.6000000238418579" fill="rgb(159, 159, 159)" opacity="1.0"/>
    <path d="M 199.90887451171875 129.16082763671875 C 198.04522705078125 127.80059814453125 195.67489624023438 127.04925537109375 193.39825439453125 127.41654968261719 C 191.12161254882812 127.78384399414062 189.00448608398438 129.3751678466797 188.30010986328125 131.58128356933594 C 187.80410766601562 133.1416473388672 188.036865234375 134.87677001953125 188.71917724609375 136.36671447753906 C 189.4014892578125 137.85665893554688 190.50201416015625 139.122314453125 191.73291015625 140.20462036132812 C 192.26882934570312 140.67529296875 192.86505126953125 141.1302032470703 193.56787109375 141.24053955078125 C 194.37356567382812 141.36741638183594 195.17037963867188 141.01934814453125 195.89727783203125 140.64393615722656 C 197.94943237304688 139.58401489257812 199.91729736328125 138.16921997070312 201.02999877929688 136.1448516845703 C 202.14266967773438 134.1204833984375 202.1943359375 131.38558959960938 200.67913818359375 129.64950561523438 L 199.90887451171875 129.16082763671875" stroke-width="0.6000000238418579" fill="rgb(159, 159, 159)" opacity="1.0"/>
    <path d="M 280.87322998046875 106.21319580078125 C 278.9976806640625 106.85745239257812 276.94085693359375 107.65481567382812 276.05419921875 109.42434692382812 C 275.18951416015625 111.14399719238281 275.7146301269531 113.20779418945312 276.28863525390625 115.04591369628906 C 276.52294921875 115.79229736328125 276.7799377441406 116.56936645507812 277.3390808105469 117.1158447265625 C 278.28424072265625 118.04066467285156 279.79132080078125 118.03913879394531 281.08514404296875 117.77543640136719 C 282.2861022949219 117.53115844726562 283.4457702636719 117.11566162109375 284.5286560058594 116.54173278808594 C 286.2872619628906 115.61045837402344 287.9515686035156 113.99702453613281 287.9280700683594 112.00790405273438 C 287.91693115234375 110.93402099609375 287.39862060546875 109.90985107421875 286.6918640136719 109.09906005859375 C 285.9850769042969 108.28826904296875 285.09326171875 107.66259765625 284.20404052734375 107.0574951171875 C 283.3148498535156 106.45236206054688 282.4281311035156 105.8768310546875 281.39410400390625 105.69454956054688 L 280.87322998046875 106.21319580078125" stroke-width="0.6000000238418579" fill="rgb(218, 166, 20)" opacity="1.0"/>
    <path d="M 242.83770751953125 122.0831298828125 C 240.87374877929688 124.808837890625 241.49127197265625 128.61061096191406 244.21697998046875 130.5745849609375 C 244.45037841796875 130.74276733398438 244.6954345703125 130.8941650390625 244.95025634765625 131.0276641845703 C 245.91867065429688 131.53475952148438 247.077392578125 131.7721710205078 248.11737060546875 131.43727111816406 C 248.99630737304688 131.15432739257812 249.70321655273438 130.5004119873047 250.308837890625 129.8042755126953 C 251.9273681640625 127.93862915039062 253.016845703125 125.67364501953125 253.464111328125 123.24458312988281 C 253.58123779296875 122.60232543945312 253.65121459960938 121.93118286132812 253.47128295898438 121.30215454101562 C 253.16986083984375 120.24595642089844 252.20291137695312 119.49069213867188 251.1695556640625 119.11610412597656 C 249.63580322265625 118.55889892578125 247.89520263671875 118.70208740234375 246.39468383789062 119.34442138671875 C 244.8941650390625 119.98675537109375 243.62286376953125 121.09683227539062 242.6387939453125 122.39883422851562 L 242.83770751953125 122.0831298828125" stroke-width="0.6000000238418579" fill="rgb(143, 165, 67)" opacity="1.0"/>
    <path d="M 248.8040771484375 95.53781127929688 C 247.07598876953125 99.48480224609375 251.30889892578125 104.44683837890625 255.52008056640625 103.67691040039062 C 259.73126220703125 102.906982421875 261.9803771972656 97.1253662109375 259.6410827636719 93.50543212890625 C 257.3017883300781 89.885498046875 251.51751708984375 89.35647583007812 248.33651733398438 92.27053833007812 L 248.8040771484375 95.53781127929688" stroke-width="0.6000000238418579" fill="rgb(233, 92, 21)" opacity="1.0"/>
    <path d="M 338.9562072753906 87.10968017578125 C 337.0523986816406 86.66848754882812 334.7325134277344 86.33892822265625 333.4303894042969 87.80506896972656 C 332.93487548828125 88.40869140625 332.638916015625 89.15121459960938 332.5832824707031 89.93017578125 C 332.3938293457031 91.85385131835938 333.14849853515625 93.75001525878906 334.6080017089844 95.01739501953125 C 335.84881591796875 96.08929443359375 337.4652099609375 96.56875610351562 339.0379333496094 96.99580383300781 C 339.9217834472656 97.23426818847656 340.868408203125 97.45947265625 341.7320556640625 97.17137145996094 C 342.88006591796875 96.77790832519531 343.5423889160156 95.58720397949219 343.9658203125 94.4503173828125 C 344.58758544921875 92.7872314453125 344.9360656738281 91.03446960449219 344.9977722167969 89.26002502441406 C 345.0179138183594 88.64688110351562 344.99786376953125 88.00387573242188 344.7059631347656 87.46455383300781 C 344.4089050292969 86.97695922851562 343.9763488769531 86.58636474609375 343.46112060546875 86.34034729003906 C 341.92724609375 85.53329467773438 340.1165466308594 85.43975830078125 338.5076599121094 86.08444213867188 L 338.9562072753906 87.10968017578125" stroke-width="0.6000000238418579" fill="rgb(70, 150, 179)" opacity="1.0"/>
    <path d="M 336.0166015625 119.9674072265625 C 335.0386657714844 117.85379028320312 333.8659362792969 115.55206298828125 331.6956481933594 114.71145629882812 C 329.36370849609375 113.80984497070312 326.6597900390625 115.00367736816406 324.9740295410156 116.8499755859375 C 324.32379150390625 117.56156921386719 323.76300048828125 118.40481567382812 323.6272277832031 119.35903930664062 C 323.51531982421875 120.1434326171875 323.6973571777344 120.93778991699219 323.920166015625 121.69793701171875 C 324.6199035644531 124.09596252441406 325.8605041503906 126.52243041992188 328.0611267089844 127.70339965820312 C 330.27984619140625 128.89210510253906 333.2547912597656 128.47601318359375 335.0536193847656 126.71217346191406 C 336.85247802734375 124.94833374023438 337.35455322265625 121.99053955078125 336.21942138671875 119.73957824707031 L 336.0166015625 119.9674072265625" stroke-width="0.6000000238418579" fill="rgb(140, 28, 33)" opacity="1.0"/>
    <path d="M 358.31365966796875 105.52752685546875 C 357.3669128417969 105.88206481933594 356.3856506347656 106.26141357421875 355.6735534667969 106.98004150390625 C 354.96142578125 107.69863891601562 354.5943298339844 108.86810302734375 355.0880432128906 109.75094604492188 C 355.69989013671875 110.83935546875 357.3702697753906 110.942138671875 358.3712463378906 110.19197082519531 C 359.3721923828125 109.44180297851562 359.79559326171875 108.13357543945312 359.8900146484375 106.88783264160156 C 359.9578857421875 106.505126953125 359.8798522949219 106.11091613769531 359.6712646484375 105.782958984375 C 359.43304443359375 105.48385620117188 358.87933349609375 105.42591857910156 358.69818115234375 105.76480102539062 L 358.31365966796875 105.52752685546875" stroke-width="0.6000000238418579" fill="rgb(159, 159, 159)" opacity="1.0"/>
    <path d="M 351.5225524902344 120.76434326171875 C 349.386474609375 121.28610229492188 347.3825988769531 122.55110168457031 346.2511901855469 124.43524169921875 C 345.1197814941406 126.31938171386719 344.9780578613281 128.8394775390625 346.15228271484375 130.7082061767578 C 346.9841613769531 132.0283660888672 348.3911437988281 132.925048828125 349.8957824707031 133.34356689453125 C 351.4004211425781 133.7620849609375 352.9986877441406 133.73809814453125 354.54345703125 133.50653076171875 C 355.21563720703125 133.4053497314453 355.91339111328125 133.2505645751953 356.4256591796875 132.806396484375 C 357.01318359375 132.29742431640625 357.249267578125 131.5030975341797 357.4224548339844 130.74288940429688 C 357.911376953125 128.5966796875 358.0899963378906 126.29376220703125 357.2990417480469 124.23927307128906 C 356.50811767578125 122.18476867675781 354.5475769042969 120.46658325195312 352.35186767578125 120.50350952148438 L 351.5225524902344 120.76434326171875" stroke-width="0.6000000238418579" fill="rgb(159, 159, 159)" opacity="1.0"/>
    <path d="M 364.7518310546875 107.84854125976562 C 363.1768493652344 108.04045104980469 361.43450927734375 108.32199096679688 360.446044921875 109.55912780761719 C 359.4830627441406 110.76089477539062 359.5503845214844 112.46334838867188 359.6935729980469 113.99737548828125 C 359.75262451171875 114.62045288085938 359.8243713378906 115.2713623046875 360.17095947265625 115.7921142578125 C 360.7566223144531 116.67318725585938 361.9362487792969 116.92291259765625 362.9926452636719 116.93196105957031 C 363.97314453125 116.94073486328125 364.9498291015625 116.80868530273438 365.8927917480469 116.53982543945312 C 367.424072265625 116.10383605957031 368.9951171875 115.11831665039062 369.3078918457031 113.55780029296875 C 369.47796630859375 112.715576171875 369.2428894042969 111.82780456542969 368.82476806640625 111.07565307617188 C 368.40667724609375 110.323486328125 367.8129577636719 109.68539428710938 367.21783447265625 109.06379699707031 C 366.6227111816406 108.44219970703125 366.0246276855469 107.84417724609375 365.24578857421875 107.52938842773438 L 364.7518310546875 107.84854125976562" stroke-width="0.6000000238418579" fill="rgb(218, 166, 20)" opacity="1.0"/>
    <path d="M 433.3438720703125 159.39984130859375 C 430.6041259765625 159.68743896484375 428.6162109375 162.14163208007812 428.90380859375 164.88140869140625 C 428.928466796875 165.11602783203125 428.96966552734375 165.34860229492188 429.0272216796875 165.577392578125 C 429.2459716796875 166.4466552734375 429.733642578125 167.28497314453125 430.506591796875 167.7381591796875 C 431.15966796875 168.12115478515625 431.9456787109375 168.19635009765625 432.7022705078125 168.1865234375 C 434.72735595703125 168.15740966796875 436.707763671875 167.58660888671875 438.4376220703125 166.53341674804688 C 438.8944091796875 166.2542724609375 439.3431396484375 165.93048095703125 439.62957763671875 165.47686767578125 C 440.11090087890625 164.71560668945312 440.044677734375 163.71170043945312 439.7093505859375 162.87509155273438 C 439.21240234375 161.6326904296875 438.1741943359375 160.64630126953125 436.96173095703125 160.07943725585938 C 435.749267578125 159.5125732421875 434.3759765625 159.34133911132812 433.0421142578125 159.45062255859375 L 433.3438720703125 159.39984130859375" stroke-width="0.6000000238418579" fill="rgb(143, 165, 67)" opacity="1.0"/>
    <path d="M 142.2025604248047 416.79669189453125 C 139.30474853515625 419.972900390625 141.71495056152344 426.0185546875 145.94129943847656 426.64031982421875 C 150.1676483154297 427.2620849609375 154.14572143554688 422.51904296875 153.09500122070312 418.3486328125 C 152.04425048828125 414.1781005859375 146.74754333496094 411.82470703125 142.8076629638672 413.5592041015625 L 142.2025604248047 416.79669189453125" stroke-width="0.6000000238418579" fill="rgb(233, 92, 21)" opacity="1.0"/>
    <path d="M 435.415283203125 181.84957885742188 C 433.724365234375 181.95291137695312 431.7152099609375 182.251708984375 430.99505615234375 183.79150390625 C 430.7322998046875 184.41543579101562 430.669677734375 185.10552978515625 430.81573486328125 185.76654052734375 C 431.1331787109375 187.411865234375 432.2283935546875 188.80126953125 433.7540283203125 189.49417114257812 C 435.04974365234375 190.07861328125 436.5113525390625 190.07803344726562 437.92364501953125 190.044677734375 C 438.71697998046875 190.024658203125 439.5592041015625 189.97811889648438 440.205810546875 189.5255126953125 C 441.0626220703125 188.9151611328125 441.319091796875 187.76220703125 441.39031982421875 186.71292114257812 C 441.4964599609375 185.17742919921875 441.3533935546875 183.6348876953125 440.96661376953125 182.14511108398438 C 440.83203125 181.630615234375 440.6566162109375 181.10122680664062 440.2808837890625 180.72509765625 C 439.9136962890625 180.39328002929688 439.45782470703125 180.17544555664062 438.96893310546875 180.09820556640625 C 437.4951171875 179.80621337890625 435.96728515625 180.17544555664062 434.78948974609375 181.10833740234375 L 435.415283203125 181.84957885742188" stroke-width="0.6000000238418579" fill="rgb(70, 150, 179)" opacity="1.0"/>
    <path d="M 411.2257385253906 159.45904541015625 C 410.4200744628906 157.56710815429688 409.4476318359375 155.5038604736328 407.5550842285156 154.70301818847656 C 405.52154541015625 153.84396362304688 403.1027526855469 154.82411193847656 401.5648498535156 156.40777587890625 C 400.9716491699219 157.01809692382812 400.4538269042969 157.7470703125 400.3080749511719 158.58551025390625 C 400.18798828125 159.27474975585938 400.3270568847656 159.98074340820312 400.5030517578125 160.65768432617188 C 401.0554504394531 162.79306030273438 402.08441162109375 164.96823120117188 403.9944763183594 166.07028198242188 C 405.9203186035156 167.17965698242188 408.55712890625 166.89324951171875 410.192626953125 165.38546752929688 C 411.8280944824219 163.877685546875 412.3515625 161.28091430664062 411.4109191894531 159.26348876953125 L 411.2257385253906 159.45904541015625" stroke-width="0.6000000238418579" fill="rgb(140, 28, 33)" opacity="1.0"/>
    <path d="M 147.0 115.0 C 146.27285766601562 115.54620361328125 145.52223205566406 116.12255859375 145.08995056152344 116.92343139648438 C 144.65768432617188 117.72430419921875 144.63758850097656 118.8267822265625 145.2876739501953 119.46345520019531 C 146.09188842773438 120.24757385253906 147.55960083007812 119.9124755859375 148.23313903808594 119.01107788085938 C 148.9066925048828 118.10966491699219 148.940185546875 116.8731689453125 148.70562744140625 115.77407836914062 C 148.6671142578125 115.42655944824219 148.49972534179688 115.10612487792969 148.2364959716797 114.87600708007812 C 147.95501708984375 114.67829895019531 147.46243286132812 114.76878356933594 147.39205932617188 115.10722351074219 L 147.0 115.0" stroke-width="0.6000000238418579" fill="rgb(159, 159, 159)" opacity="1.0"/>
    <path d="M 419.01971435546875 176.584716796875 C 417.53607177734375 175.60845947265625 415.68560791015625 175.1192626953125 413.948974609375 175.48663330078125 C 412.2122802734375 175.85400390625 410.6439514160156 177.156494140625 410.1847229003906 178.87893676757812 C 409.86163330078125 180.09713745117188 410.1053161621094 181.4224853515625 410.6855163574219 182.54254150390625 C 411.2657165527344 183.66259765625 412.15911865234375 184.5946044921875 413.1458740234375 185.38079833984375 C 413.575439453125 185.72265625 414.05084228515625 186.0501708984375 414.5953369140625 186.1087646484375 C 415.219482421875 186.17626953125 415.81915283203125 185.87890625 416.364013671875 185.56314086914062 C 417.9022216796875 184.671630859375 419.3624267578125 183.51043701171875 420.142333984375 181.9124755859375 C 420.9222412109375 180.31451416015625 420.85986328125 178.20989990234375 419.630126953125 176.93167114257812 L 419.01971435546875 176.584716796875" stroke-width="0.6000000238418579" fill="rgb(159, 159, 159)" opacity="1.0"/>
    <path d="M 409.31842041015625 184.213623046875 C 408.2382507324219 182.47540283203125 406.9622802734375 180.590087890625 404.9779968261719 180.10586547851562 C 403.0489501953125 179.63223266601562 401.09393310546875 180.63592529296875 399.37713623046875 181.6368408203125 C 398.6803283691406 182.04446411132812 397.9578552246094 182.48202514648438 397.5369567871094 183.17037963867188 C 396.82440185546875 184.33419799804688 397.17315673828125 185.849853515625 397.7364807128906 187.090576171875 C 398.2589111328125 188.24237060546875 398.94403076171875 189.313232421875 399.7708435058594 190.270263671875 C 401.1128234863281 191.82476806640625 403.1192321777344 193.127197265625 405.11474609375 192.64529418945312 C 406.1924133300781 192.38671875 407.1032409667969 191.62933349609375 407.7560119628906 190.73162841796875 C 408.40875244140625 189.8338623046875 408.8326721191406 188.7926025390625 409.23651123046875 187.75872802734375 C 409.6403503417969 186.72479248046875 410.0150146484375 185.70025634765625 409.96014404296875 184.61810302734375 L 409.31842041015625 184.213623046875" stroke-width="0.6000000238418579" fill="rgb(218, 166, 20)" opacity="1.0"/>
    <path d="M 447.312744140625 179.86709594726562 C 445.32080078125 182.74520874023438 446.0391845703125 186.69317626953125 448.917236328125 188.68511962890625 C 449.1636962890625 188.85568237304688 449.4219970703125 189.008544921875 449.6900634765625 189.142578125 C 450.70880126953125 189.65167236328125 451.9205322265625 189.87606811523438 452.9971923828125 189.50665283203125 C 453.90716552734375 189.194580078125 454.630615234375 188.49945068359375 455.2476806640625 187.7623291015625 C 456.8968505859375 185.78695678710938 457.9869384765625 183.40606689453125 458.40478515625 180.866943359375 C 458.51416015625 180.19561767578125 458.57373046875 179.4951171875 458.3739013671875 178.84344482421875 C 458.0390625 177.74920654296875 457.016845703125 176.9815673828125 455.93310546875 176.61181640625 C 454.32440185546875 176.06167602539062 452.51409912109375 176.2452392578125 450.9637451171875 176.9439697265625 C 449.4134521484375 177.64276123046875 448.111083984375 178.82418823242188 447.1116943359375 180.19989013671875 L 447.312744140625 179.86709594726562" stroke-width="0.6000000238418579" fill="rgb(143, 165, 67)" opacity="1.0"/>
    <path d="M 144.5660858154297 109.76095581054688 C 140.3473663330078 111.77571105957031 140.3028106689453 118.85246276855469 144.30650329589844 121.2076416015625 C 148.31019592285156 123.56278991699219 154.25814819335938 120.41134643554688 154.9053955078125 115.77981567382812 C 155.55264282226562 111.14828491210938 151.17884826660156 106.6107177734375 146.49993896484375 106.74673461914062 L 144.5660858154297 109.76095581054688" stroke-width="0.6000000238418579" fill="rgb(233, 92, 21)" opacity="1.0"/>
    <path d="M 448.091064453125 151.12913513183594 C 446.54296875 152.98765563964844 444.8865966796875 155.3682403564453 445.7818603515625 157.62411499023438 C 446.17303466796875 158.50799560546875 446.828857421875 159.24871826171875 447.658935546875 159.7440185546875 C 449.6795654296875 161.02490234375 452.19573974609375 161.24688720703125 454.40948486328125 160.339599609375 C 456.285400390625 159.565185546875 457.715576171875 158.045654296875 459.0635986328125 156.54522705078125 C 459.8194580078125 155.7011260986328 460.59564208984375 154.78024291992188 460.75823974609375 153.66519165039062 C 460.9627685546875 152.17715454101562 460.015625 150.7819061279297 458.994873046875 149.6806640625 C 457.5029296875 148.06710815429688 455.759765625 146.70565795898438 453.83282470703125 145.64913940429688 C 453.1663818359375 145.28536987304688 452.4444580078125 144.94937133789062 451.685791015625 144.9716339111328 C 450.98138427734375 145.0283966064453 450.3087158203125 145.28890991210938 449.7498779296875 145.72137451171875 C 448.00347900390625 146.9672393798828 446.8916015625 148.91650390625 446.7080078125 151.05386352539062 L 448.091064453125 151.12913513183594" stroke-width="0.6000000238418579" fill="rgb(70, 150, 179)" opacity="1.0"/>
    <path d="M 376.3373107910156 82.51348876953125 C 375.6659851074219 79.99029541015625 374.81591796875 77.22171020507812 372.5816955566406 75.87380981445312 C 370.1807861328125 74.42729187011719 366.96392822265625 75.22291564941406 364.745361328125 76.93594360351562 C 363.88970947265625 77.59605407714844 363.1073913574219 78.41885375976562 362.77294921875 79.44639587402344 C 362.49774169921875 80.29098510742188 362.545166015625 81.20339965820312 362.6442565917969 82.08595275878906 C 362.9533996582031 84.86944580078125 363.8542785644531 87.78890991210938 366.05621337890625 89.5185546875 C 368.276611328125 91.26022338867188 371.6423645019531 91.37586975097656 373.9698791503906 89.77578735351562 C 376.2973937988281 88.17572021484375 377.4237060546875 85.00637817382812 376.6053466796875 82.30111694335938 L 376.3373107910156 82.51348876953125" stroke-width="0.6000000238418579" fill="rgb(140, 28, 33)" opacity="1.0"/>
    <path d="M 126.85629272460938 410.1115417480469 C 124.87091064453125 410.775634765625 122.81234741210938 411.488525390625 121.28575134277344 412.92333984375 C 119.75920104980469 414.35809326171875 118.91348266601562 416.7513427734375 119.87026977539062 418.61468505859375 C 121.05645751953125 420.912109375 124.50575256347656 421.2476806640625 126.63238525390625 419.768798828125 C 128.759033203125 418.28997802734375 129.7314910888672 415.61376953125 130.0185546875 413.0426025390625 C 130.18714904785156 412.255615234375 130.0546112060547 411.4340515136719 129.64707946777344 410.7400207519531 C 129.1761016845703 410.103515625 128.03443908691406 409.94287109375 127.63459777832031 410.630859375 L 126.85629272460938 410.1115417480469" stroke-width="0.6000000238418579" fill="rgb(159, 159, 159)" opacity="1.0"/>
    <path d="M 411.8193664550781 204.318115234375 C 410.34234619140625 202.37594604492188 408.1677551269531 200.89752197265625 405.7496643066406 200.58096313476562 C 403.3315734863281 200.264404296875 400.7048034667969 201.2364501953125 399.32366943359375 203.25888061523438 C 398.3489990234375 204.69000244140625 398.0599060058594 206.51864624023438 398.3005676269531 208.23486328125 C 398.5412292480469 209.9510498046875 399.2735595703125 211.5665283203125 400.1933898925781 213.03564453125 C 400.5940856933594 213.6746826171875 401.06060791015625 214.3160400390625 401.7394104003906 214.64047241210938 C 402.5174865722656 215.01278686523438 403.4302062988281 214.90115356445312 404.2803649902344 214.74063110351562 C 406.6805114746094 214.28741455078125 409.1026306152344 213.4490966796875 410.8425598144531 211.734375 C 412.58251953125 210.0196533203125 413.462158203125 207.263916015625 412.4520263671875 205.04632568359375 L 411.8193664550781 204.318115234375" stroke-width="0.6000000238418579" fill="rgb(159, 159, 159)" opacity="1.0"/>
    <path d="M 386.37408447265625 117.17787170410156 C 384.109375 117.926025390625 381.62445068359375 118.85572814941406 380.53302001953125 120.97119140625 C 379.46868896484375 123.02700805664062 380.0708923339844 125.51640319824219 380.735107421875 127.73513793945312 C 381.0062561035156 128.6360626220703 381.3042907714844 129.57424926757812 381.968994140625 130.23939514160156 C 383.0924987792969 131.36502075195312 384.90496826171875 131.38458251953125 386.4646911621094 131.08584594726562 C 387.9124755859375 130.80911254882812 389.31298828125 130.325927734375 390.6234436035156 129.6510772705078 C 392.7516174316406 128.55609130859375 394.77606201171875 126.63938903808594 394.7760314941406 124.24688720703125 C 394.7779235839844 122.95526123046875 394.16912841796875 121.71621704101562 393.3306884765625 120.73110961914062 C 392.4922180175781 119.74600219726562 391.4285888671875 118.98089599609375 390.3677978515625 118.24053955078125 C 389.3070068359375 117.50018310546875 388.2488098144531 116.79541015625 387.00787353515625 116.5615234375 L 386.37408447265625 117.17787170410156" stroke-width="0.6000000238418579" fill="rgb(218, 166, 20)" opacity="1.0"/>
    <path d="M 401.5850830078125 84.10127258300781 C 398.28826904296875 81.44987487792969 393.4662780761719 81.97308349609375 390.81488037109375 85.26991271972656 C 390.58782958984375 85.55221557617188 390.3811340332031 85.85028076171875 390.1962585449219 86.16183471679688 C 389.4940490722656 87.34585571289062 389.1182861328125 88.78713989257812 389.4701232910156 90.1173095703125 C 389.7673645019531 91.24142456054688 390.5425720214844 92.1739501953125 391.37762451171875 92.98193359375 C 393.61590576171875 95.14161682128906 396.3916015625 96.66259765625 399.4164123535156 97.38690185546875 C 400.2162780761719 97.57699584960938 401.0555725097656 97.709716796875 401.85858154296875 97.52536010742188 C 403.2068786621094 97.2166748046875 404.2210693359375 96.05105590820312 404.7610168457031 94.77653503417969 C 405.5639343261719 92.88490295410156 405.4998474121094 90.68649291992188 404.7920837402344 88.75675964355469 C 404.08428955078125 86.8270263671875 402.7730712890625 85.15435791015625 401.2013244628906 83.830078125 L 401.5850830078125 84.10127258300781" stroke-width="0.6000000238418579" fill="rgb(143, 165, 67)" opacity="1.0"/>
    <path d="M 116.50796508789062 421.53076171875 C 113.6884765625 417.76416015625 106.69546508789062 419.1142578125 105.15980529785156 423.529541015625 C 103.62416076660156 427.94488525390625 107.9061279296875 433.1942138671875 112.6046142578125 432.920654296875 C 117.3031005859375 432.64697265625 120.91970825195312 427.4365234375 119.86372375488281 422.8455810546875 L 116.50796508789062 421.53076171875" stroke-width="0.6000000238418579" fill="rgb(233, 92, 21)" opacity="1.0"/>
    <path d="M 443.6947021484375 195.70614624023438 C 442.1988525390625 197.55996704101562 440.604248046875 199.9295654296875 441.5203857421875 202.13720703125 C 441.919189453125 203.00152587890625 442.57635498046875 203.72088623046875 443.4012451171875 204.1959228515625 C 445.41064453125 205.42620849609375 447.8917236328125 205.606201171875 450.0577392578125 204.67889404296875 C 451.89306640625 203.88751220703125 453.278076171875 202.36932373046875 454.58251953125 200.87115478515625 C 455.3138427734375 200.02838134765625 456.06402587890625 199.10968017578125 456.20703125 198.00921630859375 C 456.3856201171875 196.540771484375 455.4315185546875 195.181396484375 454.4095458984375 194.11264038085938 C 452.91571044921875 192.546630859375 451.1783447265625 191.23275756835938 449.2646484375 190.221923828125 C 448.602783203125 189.87396240234375 447.8868408203125 189.55416870117188 447.1400146484375 189.58770751953125 C 446.44732666015625 189.6544189453125 445.7889404296875 189.9212646484375 445.2452392578125 190.35565185546875 C 443.544677734375 191.6092529296875 442.4796142578125 193.54574584960938 442.3316650390625 195.65322875976562 L 443.6947021484375 195.70614624023438" stroke-width="0.6000000238418579" fill="rgb(70, 150, 179)" opacity="1.0"/>
    <path d="M 414.58447265625 135.0438690185547 C 413.77490234375 132.64651489257812 412.77685546875 130.02322387695312 410.5306396484375 128.86175537109375 C 408.116943359375 127.61553955078125 405.05670166015625 128.58938598632812 403.0201721191406 130.38694763183594 C 402.2346496582031 131.07968139648438 401.5304260253906 131.9250946044922 401.2723388671875 132.94000244140625 C 401.05987548828125 133.77423095703125 401.1637268066406 134.653564453125 401.3156433105469 135.50071716308594 C 401.79150390625 138.1728057861328 402.8482666015625 140.9387664794922 405.0875244140625 142.471435546875 C 407.3454284667969 144.0145721435547 410.6075744628906 143.91249084472656 412.75665283203125 142.21722412109375 C 414.90576171875 140.52195739746094 415.79351806640625 137.38552856445312 414.8302001953125 134.8214569091797 L 414.58447265625 135.0438690185547" stroke-width="0.6000000238418579" fill="rgb(140, 28, 33)" opacity="1.0"/>
    <path d="M 403.5998840332031 80.94830322265625 C 403.8063049316406 83.08778381347656 404.0447082519531 85.311767578125 405.1280212402344 87.17001342773438 C 406.2113342285156 89.02821350097656 408.41058349609375 90.42636108398438 410.4954833984375 89.89895629882812 C 413.067626953125 89.24217224121094 414.198974609375 85.86868286132812 413.2099609375 83.39994812011719 C 412.220947265625 80.93121337890625 409.767822265625 79.34097290039062 407.2617492675781 78.46072387695312 C 406.5132751464844 78.11050415039062 405.6607666015625 78.0535888671875 404.87237548828125 78.30122375488281 C 404.126953125 78.62559509277344 403.702880859375 79.730712890625 404.2989501953125 80.28945922851562 L 403.5998840332031 80.94830322265625" stroke-width="0.6000000238418579" fill="rgb(159, 159, 159)" opacity="1.0"/>
    <path d="M 440.408203125 232.89141845703125 C 438.8770751953125 234.73846435546875 437.9454345703125 237.1502685546875 438.1807861328125 239.53656005859375 C 438.4161376953125 241.9228515625 439.9320068359375 244.22201538085938 442.1763916015625 245.0943603515625 C 443.7640380859375 245.7091064453125 445.5797119140625 245.5787353515625 447.169677734375 244.966064453125 C 448.759765625 244.3533935546875 450.143798828125 243.29229736328125 451.34588623046875 242.084228515625 C 451.86865234375 241.55816650390625 452.3790283203125 240.96856689453125 452.53857421875 240.2462158203125 C 452.7218017578125 239.41815185546875 452.41162109375 238.56890869140625 452.068603515625 237.79046630859375 C 451.10009765625 235.5927734375 449.7578125 233.4598388671875 447.72821044921875 232.17535400390625 C 445.69854736328125 230.89089965820312 442.863525390625 230.66207885742188 440.9647216796875 232.12332153320312 L 440.408203125 232.89141845703125" stroke-width="0.6000000238418579" fill="rgb(159, 159, 159)" opacity="1.0"/>
    <path d="M 410.7591552734375 259.0019836425781 C 409.28143310546875 257.2498474121094 407.56298828125 255.36627197265625 405.28564453125 255.14990234375 C 403.07122802734375 254.93634033203125 401.06646728515625 256.3642883300781 399.3253173828125 257.7507019042969 C 398.61883544921875 258.31494140625 397.88873291015625 258.91650390625 397.5333557128906 259.7473449707031 C 396.9314880371094 261.1522216796875 397.5626525878906 262.7757263183594 398.38726806640625 264.0599060058594 C 399.15216064453125 265.25213623046875 400.0843200683594 266.3283386230469 401.1551513671875 267.2555847167969 C 402.89337158203125 268.7618408203125 405.3273010253906 269.8815002441406 407.46112060546875 269.0252990722656 C 408.6138000488281 268.56475830078125 409.5010070800781 267.578369140625 410.0795593261719 266.47802734375 C 410.6581115722656 265.377685546875 410.9598693847656 264.1552734375 411.2405700683594 262.9442138671875 C 411.5212707519531 261.733154296875 411.7711486816406 260.5371398925781 411.5356750488281 259.3466796875 L 410.7591552734375 259.0019836425781" stroke-width="0.6000000238418579" fill="rgb(218, 166, 20)" opacity="1.0"/>
    <path d="M 412.6937255859375 86.01812744140625 C 410.4611511230469 89.56895446777344 411.5298156738281 94.25733947753906 415.08062744140625 96.48991394042969 C 415.38470458984375 96.68109130859375 415.701904296875 96.85044860839844 416.02996826171875 96.99673461914062 C 417.2764892578125 97.55235290527344 418.7388916015625 97.75697326660156 420.0084228515625 97.25782775878906 C 421.081298828125 96.83612060546875 421.91064453125 95.9656982421875 422.6104736328125 95.05062866210938 C 424.48028564453125 92.59866333007812 425.6595458984375 89.69073486328125 426.025634765625 86.62893676757812 C 426.1209716796875 85.8194580078125 426.1553955078125 84.97772216796875 425.88165283203125 84.20809936523438 C 425.42291259765625 82.91580200195312 424.15869140625 82.05085754394531 422.8416748046875 81.66545104980469 C 420.88671875 81.09188842773438 418.729248046875 81.40728759765625 416.91015625 82.32574462890625 C 415.091064453125 83.24420166015625 413.5943603515625 84.72740173339844 412.470703125 86.42715454101562 L 412.6937255859375 86.01812744140625" stroke-width="0.6000000238418579" fill="rgb(143, 165, 67)" opacity="1.0"/>
    <path d="M 440.36962890625 128.72947692871094 C 437.5533447265625 132.89442443847656 441.36395263671875 139.48236083984375 446.35931396484375 139.48756408691406 C 451.3546142578125 139.49273681640625 455.156005859375 133.33229064941406 453.2353515625 128.6842498779297 C 451.31475830078125 124.03619384765625 444.7882080078125 122.20828247070312 440.5225830078125 124.88119506835938 L 440.36962890625 128.72947692871094" stroke-width="0.6000000238418579" fill="rgb(233, 92, 21)" opacity="1.0"/>
    <path d="M 442.651611328125 96.863525390625 C 441.390625 98.95309448242188 440.10107421875 101.57992553710938 441.337646484375 103.69366455078125 C 441.8624267578125 104.51571655273438 442.62945556640625 105.15463256835938 443.5328369140625 105.52227783203125 C 445.743408203125 106.4920654296875 448.2869873046875 106.33021545410156 450.35693359375 105.08804321289062 C 452.11004638671875 104.02984619140625 453.30517578125 102.29634094238281 454.421142578125 100.59439086914062 C 455.0465087890625 99.63731384277344 455.680419921875 98.60055541992188 455.67279052734375 97.46357727050781 C 455.650146484375 95.94818115234375 454.4927978515625 94.70077514648438 453.306884765625 93.7578125 C 451.57305908203125 92.37562561035156 449.626953125 91.283203125 447.54400634765625 90.52288818359375 C 446.82379150390625 90.26156616210938 446.0526123046875 90.036376953125 445.2991943359375 90.17414855957031 C 444.60528564453125 90.33807373046875 443.9739990234375 90.70037841796875 443.482421875 91.21687316894531 C 441.9302978515625 92.7255859375 441.1181640625 94.8392333984375 441.2606201171875 96.99909973144531 L 442.651611328125 96.863525390625" stroke-width="0.6000000238418579" fill="rgb(70, 150, 179)" opacity="1.0"/>
    <path d="M 316.13616943359375 385.5426940917969 C 313.6323547363281 385.6650085449219 310.86224365234375 385.90570068359375 309.14715576171875 387.7317199707031 C 307.3059387207031 389.69439697265625 307.4052734375 392.8743896484375 308.5668029785156 395.3019104003906 C 309.01422119140625 396.238037109375 309.629150390625 397.1380615234375 310.52642822265625 397.6588439941406 C 311.2638854980469 398.08721923828125 312.1299743652344 398.22637939453125 312.9784240722656 398.3110046386719 C 315.6536560058594 398.58111572265625 318.5756530761719 398.3230895996094 320.6426086425781 396.60418701171875 C 322.72454833984375 394.8703918457031 323.5106506347656 391.73406982421875 322.4770812988281 389.2270202636719 C 321.44354248046875 386.7199401855469 318.695068359375 385.024658203125 315.9907531738281 385.24835205078125 L 316.13616943359375 385.5426940917969" stroke-width="0.6000000238418579" fill="rgb(140, 28, 33)" opacity="1.0"/>
    <path d="M 308.8471984863281 393.328857421875 C 306.4693603515625 394.653564453125 304.00970458984375 396.0581970214844 302.4029846191406 398.2577819824219 C 300.7962951660156 400.4573059082031 300.28948974609375 403.7183532714844 301.9589538574219 405.8700256347656 C 304.0256652832031 408.5214538574219 308.513916015625 408.1231689453125 310.8768615722656 405.723388671875 C 313.23980712890625 403.3236083984375 313.8407287597656 399.6705017089844 313.5910339355469 396.3161315917969 C 313.6177673339844 395.27001953125 313.2513732910156 394.2519226074219 312.5641784667969 393.4627380371094 C 311.8096923828125 392.7622985839844 310.312255859375 392.830810546875 309.9662780761719 393.80584716796875 L 308.8471984863281 393.328857421875" stroke-width="0.6000000238418579" fill="rgb(159, 159, 159)" opacity="1.0"/>
    <path d="M 325.7380065917969 406.45355224609375 C 323.45904541015625 407.6746826171875 321.548828125 409.7032470703125 320.8136901855469 412.1806640625 C 320.0785827636719 414.6580810546875 320.6570129394531 417.5689697265625 322.54254150390625 419.35205078125 C 323.87725830078125 420.6109619140625 325.7424621582031 421.2188720703125 327.5784606933594 421.253662109375 C 329.41448974609375 421.28851318359375 331.22723388671875 420.7919921875 332.9181213378906 420.07489013671875 C 333.65374755859375 419.7623291015625 334.40277099609375 419.38128662109375 334.8556213378906 418.7252197265625 C 335.3751525878906 417.97320556640625 335.4107971191406 416.99951171875 335.38482666015625 416.0831298828125 C 335.31146240234375 413.49591064453125 334.83880615234375 410.8214111328125 333.33514404296875 408.71435546875 C 331.83148193359375 406.6072998046875 329.0948486328125 405.2265319824219 326.6056823730469 405.91314697265625 L 325.7380065917969 406.45355224609375" stroke-width="0.6000000238418579" fill="rgb(159, 159, 159)" opacity="1.0"/>
    <path d="M 272.2585754394531 409.8419494628906 C 270.2727355957031 411.29888916015625 268.12847900390625 413.00439453125 267.7309875488281 415.43023681640625 C 267.3410949707031 417.788818359375 268.7263488769531 420.0418701171875 270.0862121582031 422.00933837890625 C 270.6398010253906 422.80780029296875 271.231689453125 423.63427734375 272.09661865234375 424.07562255859375 C 273.5590515136719 424.822998046875 275.34552001953125 424.2642822265625 276.7821960449219 423.4735107421875 C 278.1159973144531 422.7401123046875 279.3375244140625 421.81890869140625 280.40948486328125 420.73828125 C 282.150634765625 418.984130859375 283.52789306640625 416.4560546875 282.7650146484375 414.10614013671875 C 282.3550109863281 412.8369140625 281.3619689941406 411.81402587890625 280.2243347167969 411.1138000488281 C 279.0867004394531 410.41357421875 277.79803466796875 410.001220703125 276.5200500488281 409.6122741699219 C 275.2420654296875 409.22332763671875 273.9779968261719 408.8685302734375 272.6845397949219 409.03448486328125 L 272.2585754394531 409.8419494628906" stroke-width="0.6000000238418579" fill="rgb(218, 166, 20)" opacity="1.0"/>
    <path d="M 223.93414306640625 410.6678161621094 C 219.993896484375 409.42645263671875 215.7933349609375 411.6143493652344 214.552001953125 415.55462646484375 C 214.4456787109375 415.89202880859375 214.36346435546875 416.236572265625 214.305908203125 416.5855712890625 C 214.0875244140625 417.91192626953125 214.25738525390625 419.3564453125 215.0496826171875 420.44146728515625 C 215.71917724609375 421.3585205078125 216.75543212890625 421.9315185546875 217.8018798828125 422.37005615234375 C 220.60467529296875 423.5399169921875 223.66958618164062 423.93804931640625 226.67822265625 423.52294921875 C 227.47332763671875 423.4119873046875 228.283935546875 423.23468017578125 228.94891357421875 422.7818603515625 C 230.0657958984375 422.02239990234375 230.57452392578125 420.60205078125 230.61318969726562 419.2509765625 C 230.67193603515625 417.2452392578125 229.83319091796875 415.2681884765625 228.50421142578125 413.7640380859375 C 227.17529296875 412.260009765625 225.388671875 411.2039794921875 223.48876953125 410.557373046875 L 223.93414306640625 410.6678161621094" stroke-width="0.6000000238418579" fill="rgb(143, 165, 67)" opacity="1.0"/>
    <path d="M 283.65594482421875 371.552978515625 C 282.9204406738281 376.8546142578125 289.6542053222656 381.3602600097656 294.4295654296875 379.0200500488281 C 299.2049255371094 376.6798095703125 299.94488525390625 369.009033203125 295.9276428222656 365.4696350097656 C 291.9103698730469 361.93023681640625 284.8163146972656 363.24774169921875 281.9954833984375 367.8042297363281 L 283.65594482421875 371.552978515625" stroke-width="0.6000000238418579" fill="rgb(233, 92, 21)" opacity="1.0"/>
    <path d="M 336.0546569824219 368.27252197265625 C 335.22125244140625 370.628662109375 334.4700622558594 373.5295715332031 336.1466979980469 375.3943786621094 C 336.8428039550781 376.11053466796875 337.7439880371094 376.5930480957031 338.7259521484375 376.7752990722656 C 341.1434020996094 377.2916564941406 343.6611633300781 376.6042785644531 345.4808349609375 374.93109130859375 C 347.0207824707031 373.5078430175781 347.8616638183594 371.52239990234375 348.6296691894531 369.5849914550781 C 349.059326171875 368.4959411621094 349.48114013671875 367.3252258300781 349.2387390136719 366.1864318847656 C 348.9031982421875 364.6711730957031 347.48492431640625 363.6589050292969 346.100830078125 362.95794677734375 C 344.0764465332031 361.9295349121094 341.8989562988281 361.2355651855469 339.65283203125 360.9029541015625 C 338.8765563964844 360.7895202636719 338.0565185546875 360.7228698730469 337.329345703125 361.0165710449219 C 336.66717529296875 361.32421875 336.1087951660156 361.81793212890625 335.72235107421875 362.43743896484375 C 334.4770202636719 364.2710876464844 334.0987548828125 366.5587158203125 334.6875305175781 368.6956481933594 L 336.0546569824219 368.27252197265625" stroke-width="0.6000000238418579" fill="rgb(70, 150, 179)" opacity="1.0"/>
    <path d="M 295.8269958496094 409.37451171875 C 293.20208740234375 409.7144470214844 290.306884765625 410.20147705078125 288.65582275390625 412.26806640625 C 286.883544921875 414.489013671875 287.25634765625 417.8275146484375 288.6836242675781 420.28448486328125 C 289.2335205078125 421.23199462890625 289.9566650390625 422.12744140625 290.9449462890625 422.599853515625 C 291.75726318359375 422.988525390625 292.6805419921875 423.0618896484375 293.5806579589844 423.079345703125 C 296.4190673828125 423.137939453125 299.4726867675781 422.619873046875 301.50311279296875 420.63641357421875 C 303.5480651855469 418.635986328125 304.11083984375 415.26873779296875 302.8115539550781 412.71728515625 C 301.5122375488281 410.16583251953125 298.4764709472656 408.6134033203125 295.64910888671875 409.07696533203125 L 295.8269958496094 409.37451171875" stroke-width="0.6000000238418579" fill="rgb(140, 28, 33)" opacity="1.0"/>
    <path d="M 335.47503662109375 390.87249755859375 C 332.8526306152344 391.6645812988281 330.1325988769531 392.5177001953125 328.0805969238281 394.3355407714844 C 326.02862548828125 396.1533203125 324.8302001953125 399.2510070800781 326.00982666015625 401.7250671386719 C 327.4727783203125 404.7757873535156 331.9714050292969 405.3476257324219 334.80999755859375 403.4952697753906 C 337.6485595703125 401.6429138183594 339.02362060546875 398.17999267578125 339.4981689453125 394.828125 C 339.7490539550781 393.8052673339844 339.60736083984375 392.7255554199219 339.1010437011719 391.80206298828125 C 338.5095520019531 390.9513854980469 337.02252197265625 390.6972961425781 336.4729919433594 391.58172607421875 L 335.47503662109375 390.87249755859375" stroke-width="0.6000000238418579" fill="rgb(159, 159, 159)" opacity="1.0"/>
    <path d="M 348.0129699707031 404.2721862792969 C 345.4452209472656 404.5580749511719 342.9194641113281 405.72991943359375 341.31695556640625 407.7547912597656 C 339.7144470214844 409.7796630859375 339.1692810058594 412.69482421875 340.2557678222656 415.0494384765625 C 341.0260314941406 416.7132568359375 342.5303039550781 417.97021484375 344.220458984375 418.684814453125 C 345.91064453125 419.3994140625 347.7766418457031 419.6124267578125 349.6116027832031 419.5755615234375 C 350.4101257324219 419.55902099609375 351.24652099609375 419.48388671875 351.910400390625 419.0435791015625 C 352.6717529296875 418.5390625 353.066650390625 417.6490478515625 353.3830871582031 416.78936767578125 C 354.27642822265625 414.3621826171875 354.83184814453125 411.7056884765625 354.22003173828125 409.1924133300781 C 353.6081848144531 406.67913818359375 351.582763671875 404.38140869140625 349.0186462402344 404.09332275390625 L 348.0129699707031 404.2721862792969" stroke-width="0.6000000238418579" fill="rgb(159, 159, 159)" opacity="1.0"/>
    <path d="M 259.98724365234375 374.5890197753906 C 259.406494140625 372.1155700683594 258.6538391113281 369.3913879394531 256.5118408203125 368.0342102050781 C 254.43060302734375 366.71142578125 251.73248291015625 367.1161804199219 249.31573486328125 367.6121826171875 C 248.334228515625 367.81512451171875 247.31069946289062 368.0430908203125 246.54238891601562 368.685791015625 C 245.24227905273438 369.7720031738281 245.05096435546875 371.693359375 245.22119140625 373.3764343261719 C 245.37860107421875 374.9386901855469 245.759521484375 376.47027587890625 246.35226440429688 377.92425537109375 C 247.31390380859375 380.28546142578125 249.15716552734375 382.6139221191406 251.69580078125 382.8390197753906 C 253.066162109375 382.9625549316406 254.43817138671875 382.43316650390625 255.5623779296875 381.6361999511719 C 256.6865234375 380.8392333984375 257.5984802246094 379.7826232910156 258.4838562011719 378.7266845703125 C 259.3692626953125 377.6707763671875 260.2166442871094 376.6142272949219 260.58160400390625 375.31951904296875 L 259.98724365234375 374.5890197753906" stroke-width="0.6000000238418579" fill="rgb(218, 166, 20)" opacity="1.0"/>
    <path d="M 257.8213806152344 394.2675476074219 C 254.5164794921875 391.4700012207031 249.5694580078125 391.88128662109375 246.77191162109375 395.1861877441406 C 246.5323486328125 395.46917724609375 246.31320190429688 395.7688293457031 246.11602783203125 396.0828552246094 C 245.36712646484375 397.27618408203125 244.94558715820312 398.74114990234375 245.2713623046875 400.11114501953125 C 245.54656982421875 401.2689208984375 246.31573486328125 402.24298095703125 247.14932250976562 403.09112548828125 C 249.38381958007812 405.3583679199219 252.18463134765625 406.9859313964844 255.26080322265625 407.8047790527344 C 256.07427978515625 408.0198669433594 256.9295654296875 408.17724609375 257.75592041015625 408.00927734375 C 259.1433410644531 407.7281188964844 260.21099853515625 406.5616149902344 260.79620361328125 405.2715148925781 C 261.6663513183594 403.35675048828125 261.6573486328125 401.1058349609375 260.9828186035156 399.1132507324219 C 260.3083190917969 397.1206359863281 259.009765625 395.37554931640625 257.4356994628906 393.9801940917969 L 257.8213806152344 394.2675476074219" stroke-width="0.6000000238418579" fill="rgb(143, 165, 67)" opacity="1.0"/>
    <path d="M 207.072509765625 375.1034240722656 C 204.75576782226562 379.87445068359375 209.72183227539062 386.1827697753906 214.9388427734375 385.4397888183594 C 220.15582275390625 384.69677734375 223.20230102539062 377.6944580078125 220.5003662109375 373.1286315917969 C 217.7984619140625 368.5628356933594 210.70953369140625 367.63189697265625 206.65573120117188 371.06207275390625 L 207.072509765625 375.1034240722656" stroke-width="0.6000000238418579" fill="rgb(233, 92, 21)" opacity="1.0"/>
    <path d="M 268.7055969238281 373.28143310546875 C 267.6891784667969 375.6017761230469 266.7156982421875 378.4788818359375 268.2729797363281 380.48779296875 C 268.923828125 381.26312255859375 269.7992248535156 381.8174133300781 270.7784423828125 382.0741271972656 C 273.18414306640625 382.7745666503906 275.7801208496094 382.2655029296875 277.7431335449219 380.7083740234375 C 279.4049377441406 379.3832702636719 280.4015197753906 377.4382629394531 281.3209228515625 375.536376953125 C 281.83563232421875 374.4671630859375 282.3484802246094 373.3147888183594 282.1874694824219 372.14569091796875 C 281.9601135253906 370.5891418457031 280.6011047363281 369.4611511230469 279.2536315917969 368.650390625 C 277.2830810546875 367.4613342285156 275.133056640625 366.59906005859375 272.886962890625 366.0970458984375 C 272.110595703125 365.9250793457031 271.28656005859375 365.79718017578125 270.5297546386719 366.0404052734375 C 269.837646484375 366.30255126953125 269.23675537109375 366.7604064941406 268.80035400390625 367.3581848144531 C 267.4060974121094 369.1199035644531 266.8548278808594 371.4045715332031 267.2923278808594 373.6082763671875 L 268.7055969238281 373.28143310546875" stroke-width="0.6000000238418579" fill="rgb(70, 150, 179)" opacity="1.0"/>
    <path d="M 330.3900146484375 369.2502136230469 C 330.0820617675781 366.5660400390625 329.62799072265625 363.603759765625 327.54327392578125 361.88787841796875 C 325.30267333984375 360.0459899902344 321.8896789550781 360.3769226074219 319.36077880859375 361.7971496582031 C 318.385498046875 362.3443298339844 317.46087646484375 363.0691223144531 316.9639892578125 364.0708312988281 C 316.55523681640625 364.8941345214844 316.46661376953125 365.83538818359375 316.4353942871094 366.75384521484375 C 316.3334045410156 369.6500549316406 316.81683349609375 372.7744140625 318.81109619140625 374.87628173828125 C 320.8224792480469 376.99322509765625 324.2509460449219 377.61761474609375 326.8744201660156 376.32940673828125 C 329.4978942871094 375.0411682128906 331.1274719238281 371.96575927734375 330.69635009765625 369.0730895996094 L 330.3900146484375 369.2502136230469" stroke-width="0.6000000238418579" fill="rgb(140, 28, 33)" opacity="1.0"/>
    <path d="M 350.691650390625 390.1265563964844 C 348.1654052734375 391.14202880859375 345.5478820800781 392.2265625 343.6767883300781 394.2071838378906 C 341.80572509765625 396.1877746582031 340.8926086425781 399.3601379394531 342.2786560058594 401.7053527832031 C 343.9960632324219 404.596435546875 348.50006103515625 404.7657165527344 351.14678955078125 402.6815185546875 C 353.7934875488281 400.5973205566406 354.84930419921875 397.0477600097656 355.0234375 393.6876525878906 C 355.1815490722656 392.65289306640625 354.9460144042969 391.5965270996094 354.36334228515625 390.7269592285156 C 353.7027282714844 389.93695068359375 352.2081604003906 389.81658935546875 351.7421875 390.74066162109375 L 350.691650390625 390.1265563964844" stroke-width="0.6000000238418579" fill="rgb(159, 159, 159)" opacity="1.0"/>
    <path d="M 187.3206787109375 403.9200134277344 C 184.891845703125 404.3218994140625 182.54779052734375 405.5647277832031 181.1253662109375 407.5725402832031 C 179.70294189453125 409.580322265625 179.3316650390625 412.38177490234375 180.48455810546875 414.56732177734375 C 181.3016357421875 416.1114501953125 182.79660034179688 417.2314453125 184.44097900390625 417.825927734375 C 186.08538818359375 418.42041015625 187.8717041015625 418.52874755859375 189.61590576171875 418.40081787109375 C 190.3748779296875 418.3447265625 191.16693115234375 418.23089599609375 191.7763671875 417.7783203125 C 192.47531127929688 417.259765625 192.8060302734375 416.3929443359375 193.06365966796875 415.5589599609375 C 193.79095458984375 413.2042236328125 194.18505859375 410.6483459472656 193.47576904296875 408.287841796875 C 192.7664794921875 405.92730712890625 190.72299194335938 403.8433532714844 188.2685546875 403.6989440917969 L 187.3206787109375 403.9200134277344" stroke-width="0.6000000238418579" fill="rgb(159, 159, 159)" opacity="1.0"/>
    <path d="M 353.9806823730469 375.1517028808594 C 351.52496337890625 375.29595947265625 348.80157470703125 375.56268310546875 347.152099609375 377.3811950683594 C 345.54547119140625 379.1474304199219 345.484619140625 381.788330078125 345.55743408203125 384.1759338378906 C 345.5884704589844 385.14581298828125 345.6363525390625 386.15997314453125 346.1221618652344 386.9993591308594 C 346.9429931640625 388.4195251464844 348.744140625 388.9203186035156 350.3779296875 389.0367126464844 C 351.894287109375 389.1453552246094 353.41839599609375 389.03570556640625 354.9035949707031 388.71112060546875 C 357.3153381347656 388.1849365234375 359.8418884277344 386.812255859375 360.4771728515625 384.4278564453125 C 360.822021484375 383.1410827636719 360.5443115234375 381.74456787109375 359.9702453613281 380.5401611328125 C 359.3962097167969 379.3357238769531 358.5393371582031 378.290771484375 357.6787414550781 377.271240234375 C 356.818115234375 376.251708984375 355.95062255859375 375.2683410644531 354.7759704589844 374.7057189941406 L 353.9806823730469 375.1517028808594" stroke-width="0.6000000238418579" fill="rgb(218, 166, 20)" opacity="1.0"/>
    <path d="M 370.51153564453125 390.0470275878906 C 366.5911865234375 391.9029541015625 364.91766357421875 396.5855407714844 366.7735595703125 400.505859375 C 366.9324951171875 400.841552734375 367.1150207519531 401.1655578613281 367.3197937011719 401.4754333496094 C 368.0981140136719 402.6527404785156 369.2597961425781 403.6439208984375 370.644287109375 403.91412353515625 C 371.81427001953125 404.142578125 373.0212707519531 403.8443908691406 374.1401062011719 403.4352722167969 C 377.1334228515625 402.3360900878906 379.7778625488281 400.4554443359375 381.7986755371094 397.9887390136719 C 382.33172607421875 397.3358154296875 382.8294982910156 396.6208190917969 383.01849365234375 395.79754638671875 C 383.33660888671875 394.4156188964844 382.71478271484375 392.9587097167969 381.7803955078125 391.89068603515625 C 380.3942565917969 390.3040466308594 378.3374328613281 389.3800964355469 376.2406005859375 389.170166015625 C 374.143798828125 388.960205078125 372.0143127441406 389.42193603515625 370.0897216796875 390.2798156738281 L 370.51153564453125 390.0470275878906" stroke-width="0.6000000238418579" fill="rgb(143, 165, 67)" opacity="1.0"/>
    <path d="M 362.7886047363281 369.38909912109375 C 362.26580810546875 374.7287902832031 369.1919860839844 378.96990966796875 373.8804626464844 376.433349609375 C 378.5689697265625 373.89678955078125 379.00067138671875 366.1840515136719 374.83428955078125 362.8011169433594 C 370.66790771484375 359.41815185546875 363.61578369140625 361.02392578125 360.97430419921875 365.701416015625 L 362.7886047363281 369.38909912109375" stroke-width="0.6000000238418579" fill="rgb(233, 92, 21)" opacity="1.0"/>
    <path d="M 393.27362060546875 370.0535583496094 C 392.3170166015625 372.39752197265625 391.4173889160156 375.2966613769531 393.0242004394531 377.26422119140625 C 393.694091796875 378.0223388671875 394.582763671875 378.55389404296875 395.56756591796875 378.7855529785156 C 397.98883056640625 379.42431640625 400.5694885253906 378.8498840332031 402.4911804199219 377.2444152832031 C 404.1178283691406 375.87835693359375 405.06414794921875 373.9098815917969 405.9344482421875 371.9864196777344 C 406.4216003417969 370.9051818847656 406.90472412109375 369.7408447265625 406.7142333984375 368.576904296875 C 406.44757080078125 367.0275573730469 405.06121826171875 365.9350891113281 403.6944274902344 365.15924072265625 C 401.6955261230469 364.0212707519531 399.525634765625 363.21435546875 397.2689208984375 362.769775390625 C 396.4888610839844 362.6176452636719 395.662353515625 362.5107727050781 394.91241455078125 362.77294921875 C 394.22760009765625 363.05242919921875 393.6388854980469 363.5251159667969 393.2180480957031 364.13336181640625 C 391.8697814941406 365.9288330078125 391.3769836425781 368.2253723144531 391.86993408203125 370.4159240722656 L 393.27362060546875 370.0535583496094" stroke-width="0.6000000238418579" fill="rgb(70, 150, 179)" opacity="1.0"/>
    <path d="M 387.2662048339844 407.88067626953125 C 385.757080078125 409.9909362792969 384.1729736328125 412.393310546875 384.552978515625 414.9580078125 C 384.9628601074219 417.71282958984375 387.6070556640625 419.6749267578125 390.32293701171875 420.291748046875 C 391.3699951171875 420.530029296875 392.4953308105469 420.60919189453125 393.4942932128906 420.21563720703125 C 394.31561279296875 419.8924560546875 394.98486328125 419.279052734375 395.5985412597656 418.6448974609375 C 397.53619384765625 416.64764404296875 399.2038269042969 414.11083984375 399.13677978515625 411.3294982910156 C 399.0672607421875 408.5263671875 397.02728271484375 405.87384033203125 394.3290100097656 405.10205078125 C 391.6307678222656 404.33026123046875 388.48956298828125 405.47149658203125 386.9339294433594 407.8096008300781 L 387.2662048339844 407.88067626953125" stroke-width="0.6000000238418579" fill="rgb(140, 28, 33)" opacity="1.0"/>
    <path d="M 404.13140869140625 396.60028076171875 C 402.6234436035156 398.8909912109375 401.07952880859375 401.29119873046875 400.6678771972656 404.004638671875 C 400.2562255859375 406.7180480957031 401.3215637207031 409.867919921875 403.8150329589844 411.0133056640625 C 406.8961486816406 412.4202880859375 410.72119140625 409.9748840332031 411.7153625488281 406.73046875 C 412.70953369140625 403.4860534667969 411.5457763671875 399.94207763671875 409.760986328125 397.06103515625 C 409.2978515625 396.11383056640625 408.4964904785156 395.37469482421875 407.5150451660156 394.9894714355469 C 406.5147705078125 394.71484375 405.2086486816406 395.4731750488281 405.3534240722656 396.5054931640625 L 404.13140869140625 396.60028076171875" stroke-width="0.6000000238418579" fill="rgb(159, 159, 159)" opacity="1.0"/>
    <path d="M 426.35784912109375 371.608642578125 C 426.0101318359375 374.2156982421875 426.548095703125 376.9986877441406 428.1553955078125 379.078857421875 C 429.7626953125 381.15899658203125 432.50909423828125 382.4129943847656 435.10205078125 381.9173889160156 C 436.934814453125 381.5646667480469 438.5458984375 380.3869323730469 439.6666259765625 378.8924560546875 C 440.78741455078125 377.3979187011719 441.455810546875 375.6066589355469 441.86968994140625 373.78466796875 C 442.04931640625 372.9916687011719 442.1802978515625 372.1468811035156 441.908203125 371.3829345703125 C 441.59661865234375 370.5069274902344 440.814208984375 369.89837646484375 440.04248046875 369.374755859375 C 437.86376953125 367.8965148925781 435.37542724609375 366.69586181640625 432.7421875 366.68359375 C 430.10894775390625 366.67132568359375 427.341796875 368.1085205078125 426.42791748046875 370.5711669921875 L 426.35784912109375 371.608642578125" stroke-width="0.6000000238418579" fill="rgb(159, 159, 159)" opacity="1.0"/>
    <path d="M 416.962890625 403.669189453125 C 414.688720703125 404.53802490234375 412.198486328125 405.6023254394531 411.18463134765625 407.8104553222656 C 410.19561767578125 409.9564514160156 410.9261779785156 412.466552734375 411.707275390625 414.69781494140625 C 412.02593994140625 415.603759765625 412.373779296875 416.54644775390625 413.0826416015625 417.19354248046875 C 414.2808837890625 418.2886962890625 416.1298828125 418.22381591796875 417.706298828125 417.84619140625 C 419.1695556640625 417.49627685546875 420.574951171875 416.93804931640625 421.87957763671875 416.1885986328125 C 423.998291015625 414.97247314453125 425.97283935546875 412.92333984375 425.86083984375 410.4838562011719 C 425.80230712890625 409.166748046875 425.12353515625 407.9318542480469 424.2225341796875 406.9666442871094 C 423.32147216796875 406.0014343261719 422.201171875 405.27105712890625 421.0848388671875 404.5657958984375 C 419.96856689453125 403.86053466796875 418.8565673828125 403.19146728515625 417.580322265625 403.0110778808594 L 416.962890625 403.669189453125" stroke-width="0.6000000238418579" fill="rgb(218, 166, 20)" opacity="1.0"/>
    <path d="M 143.3355255126953 232.23675537109375 C 140.175537109375 235.0052490234375 139.858154296875 239.81121826171875 142.6266326904297 242.97119140625 C 142.8636932373047 243.24179077148438 143.11965942382812 243.4952392578125 143.39259338378906 243.7296142578125 C 144.42984008789062 244.61993408203125 145.77484130859375 245.23529052734375 147.1362762451172 245.119873046875 C 148.2867889404297 245.0224609375 149.33212280273438 244.42462158203125 150.26593017578125 243.746826171875 C 152.76300048828125 241.92910766601562 154.72781372070312 239.4759521484375 155.95628356933594 236.64215087890625 C 156.27972412109375 235.89254760742188 156.5538330078125 235.094482421875 156.51162719726562 234.27743530273438 C 156.4415283203125 232.90570068359375 155.47592163085938 231.71337890625 154.32225036621094 230.9661865234375 C 152.61024475097656 229.85565185546875 150.4491424560547 229.54031372070312 148.4401092529297 229.9007568359375 C 146.43109130859375 230.26116943359375 144.56973266601562 231.2559814453125 143.00430297851562 232.56549072265625 L 143.3355255126953 232.23675537109375" stroke-width="0.6000000238418579" fill="rgb(143, 165, 67)" opacity="1.0"/>
    <path d="M 163.84945678710938 266.6138000488281 C 163.2764892578125 271.7735290527344 169.92437744140625 275.9640808105469 174.49258422851562 273.5688781738281 C 179.06076049804688 271.17364501953125 179.57546997070312 263.71673583984375 175.5869140625 260.3912353515625 C 171.59835815429688 257.06573486328125 164.7550048828125 258.5306091308594 162.14044189453125 263.02301025390625 L 163.84945678710938 266.6138000488281" stroke-width="0.6000000238418579" fill="rgb(233, 92, 21)" opacity="1.0"/>
    <path d="M 154.93655395507812 316.19097900390625 C 153.4291229248047 318.2343444824219 151.8403778076172 320.83154296875 152.9180145263672 323.14031982421875 C 153.3826141357422 324.04241943359375 154.11570739746094 324.77813720703125 155.0161590576172 325.2459411621094 C 157.21295166015625 326.4633483886719 159.86358642578125 326.54046630859375 162.12744140625 325.4528503417969 C 164.04547119140625 324.5252990722656 165.45040893554688 322.844482421875 166.77032470703125 321.188720703125 C 167.51031494140625 320.2574157714844 168.26678466796875 319.2443542480469 168.3682861328125 318.0657653808594 C 168.49066162109375 316.4936828613281 167.41180419921875 315.0900573730469 166.27398681640625 313.9990539550781 C 164.61077880859375 312.4002990722656 162.6998291015625 311.0812683105469 160.6151123046875 310.0931701660156 C 159.8941650390625 309.7531433105469 159.11688232421875 309.4456481933594 158.32318115234375 309.5158386230469 C 157.5885009765625 309.618896484375 156.89968872070312 309.9334716796875 156.3406982421875 310.4212341308594 C 154.58755493164062 311.8348083496094 153.5427703857422 313.9463195800781 153.48252868652344 316.19757080078125 L 154.93655395507812 316.19097900390625" stroke-width="0.6000000238418579" fill="rgb(70, 150, 179)" opacity="1.0"/>
    <path d="M 127.46820068359375 296.0211486816406 C 126.376708984375 293.7591247558594 125.07191467285156 291.2976989746094 122.71696472167969 290.4292297363281 C 120.18667602539062 289.497802734375 117.29188537597656 290.8324279785156 115.50643920898438 292.852783203125 C 114.81771850585938 293.6314697265625 114.227783203125 294.550537109375 114.09806823730469 295.5818786621094 C 113.99111938476562 296.42962646484375 114.2012939453125 297.28302001953125 114.454833984375 298.0987854003906 C 115.2513427734375 300.6723327636719 116.63150024414062 303.2671203613281 119.02510070800781 304.5020751953125 C 121.4383544921875 305.7450256347656 124.63896179199219 305.24432373046875 126.54780578613281 303.3109130859375 C 128.45664978027344 301.37750244140625 128.94631958007812 298.1792907714844 127.68292236328125 295.7719421386719 L 127.46820068359375 296.0211486816406" stroke-width="0.6000000238418579" fill="rgb(140, 28, 33)" opacity="1.0"/>
    <path d="M 140.75938415527344 271.10357666015625 C 138.25572204589844 272.2944030761719 135.66363525390625 273.56109619140625 133.886474609375 275.691650390625 C 132.10934448242188 277.8221740722656 131.38067626953125 281.10369873046875 132.93673706054688 283.4000549316406 C 134.86386108398438 286.23040771484375 139.45201110839844 286.1194152832031 142.01095581054688 283.8348693847656 C 144.56988525390625 281.5503234863281 145.41986083984375 277.87646484375 145.3856658935547 274.4505615234375 C 145.4813232421875 273.3890075683594 145.1755828857422 272.3301696777344 144.5287322998047 271.4830322265625 C 143.8076934814453 270.7216491699219 142.28115844726562 270.6932373046875 141.86566162109375 271.66168212890625 L 140.75938415527344 271.10357666015625" stroke-width="0.6000000238418579" fill="rgb(159, 159, 159)" opacity="1.0"/>
    <path d="M 156.9024658203125 294.01226806640625 C 155.28785705566406 296.0286560058594 154.3289337158203 298.64215087890625 154.62582397460938 301.20684814453125 C 154.92269897460938 303.77154541015625 156.59661865234375 306.2190856933594 159.02880859375 307.11724853515625 C 160.74920654296875 307.7500915527344 162.70150756835938 307.57659912109375 164.40206909179688 306.8880310058594 C 166.1026611328125 306.1994323730469 167.57330322265625 305.0318298339844 168.84539794921875 303.7093200683594 C 169.39862060546875 303.1334533691406 169.937255859375 302.4893798828125 170.0958251953125 301.70880126953125 C 170.27804565429688 300.81402587890625 169.92861938476562 299.9053955078125 169.54510498046875 299.0736083984375 C 168.46231079101562 296.725341796875 166.9783935546875 294.45355224609375 164.7698974609375 293.1077880859375 C 162.5614013671875 291.76202392578125 159.505126953125 291.56744384765625 157.487548828125 293.1752014160156 L 156.9024658203125 294.01226806640625" stroke-width="0.6000000238418579" fill="rgb(159, 159, 159)" opacity="1.0"/>
    <path d="M 128.03981018066406 346.5478210449219 C 127.04959106445312 344.35198974609375 125.85377502441406 341.9541015625 123.6138916015625 341.0809020996094 C 121.43679809570312 340.2286376953125 118.9998779296875 341.095947265625 116.84140014648438 341.9970397949219 C 115.96507263183594 342.3643798828125 115.05416870117188 342.76263427734375 114.45616149902344 343.5003662109375 C 113.44401550292969 344.7475280761719 113.61546325683594 346.570068359375 114.07997131347656 348.10516357421875 C 114.51055908203125 349.5301818847656 115.1435546875 350.8859558105469 115.95953369140625 352.13104248046875 C 117.28375244140625 354.1531677246094 119.42236328125 355.9844665527344 121.82542419433594 355.7322082519531 C 123.12295532226562 355.597900390625 124.30328369140625 354.85577392578125 125.204345703125 353.9097595214844 C 126.10539245605469 352.9637451171875 126.76174926757812 351.81475830078125 127.39352416992188 350.67120361328125 C 128.0253143310547 349.5276794433594 128.62161254882812 348.3905029296875 128.72569274902344 347.1194152832031 L 128.03981018066406 346.5478210449219" stroke-width="0.6000000238418579" fill="rgb(218, 166, 20)" opacity="1.0"/>
    <path d="M 164.0186767578125 345.335205078125 C 160.82806396484375 347.9976501464844 160.39984130859375 352.74249267578125 163.06228637695312 355.9331359863281 C 163.290283203125 356.20635986328125 163.537353515625 356.46307373046875 163.80166625976562 356.7013244628906 C 164.80615234375 357.6064147949219 166.12152099609375 358.2469177246094 167.47052001953125 358.1651916503906 C 168.61053466796875 358.0962219238281 169.658447265625 357.5299377441406 170.59799194335938 356.88189697265625 C 173.1104736328125 355.14385986328125 175.11175537109375 352.7647705078125 176.39398193359375 349.9917907714844 C 176.73165893554688 349.25823974609375 177.021728515625 348.4756164550781 176.9993896484375 347.6666564941406 C 176.96273803710938 346.30853271484375 176.0362548828125 345.10650634765625 174.9132080078125 344.3401794433594 C 173.2467041015625 343.2012939453125 171.1171875 342.83807373046875 169.12197875976562 343.14666748046875 C 167.12677001953125 343.45526123046875 165.26248168945312 344.3946838378906 163.683349609375 345.6523742675781 L 164.0186767578125 345.335205078125" stroke-width="0.6000000238418579" fill="rgb(143, 165, 67)" opacity="1.0"/>
    <path d="M 134.8092803955078 376.1141052246094 C 131.8533172607422 371.918701171875 124.18623352050781 373.1712646484375 122.37326049804688 377.9372253417969 C 120.560302734375 382.70318603515625 125.06430053710938 388.5611572265625 130.19580078125 388.4103088378906 C 135.3273162841797 388.2594299316406 139.43417358398438 382.6917724609375 138.42691040039062 377.6529846191406 L 134.8092803955078 376.1141052246094" stroke-width="0.6000000238418579" fill="rgb(233, 92, 21)" opacity="1.0"/>
    <path d="M 176.89096069335938 367.6736145019531 C 175.59808349609375 369.7735595703125 174.27151489257812 372.41607666015625 175.501953125 374.5628967285156 C 176.02484130859375 375.398193359375 176.7940673828125 376.0506591796875 177.7034912109375 376.43023681640625 C 179.92837524414062 377.4299621582031 182.49981689453125 377.289306640625 184.60235595703125 376.0528564453125 C 186.38323974609375 374.9994201660156 187.60635375976562 373.2586364746094 188.749267578125 371.5490417480469 C 189.38970947265625 370.587646484375 190.03955078125 369.54583740234375 190.0419921875 368.39697265625 C 190.03274536132812 366.8656311035156 188.8746337890625 365.5948486328125 187.68490600585938 364.6314392089844 C 185.94546508789062 363.2193298339844 183.98895263671875 362.0980529785156 181.89120483398438 361.31109619140625 C 181.1658935546875 361.04058837890625 180.388671875 360.80615234375 179.626220703125 360.9385681152344 C 178.92361450195312 361.09796142578125 178.28253173828125 361.4583435058594 177.78118896484375 361.9757995605469 C 176.19940185546875 363.4862060546875 175.35980224609375 365.614501953125 175.48434448242188 367.798095703125 L 176.89096069335938 367.6736145019531" stroke-width="0.6000000238418579" fill="rgb(70, 150, 179)" opacity="1.0"/>
  </g>
</svg>
