<?xml version="1.0" ?>
<svg xmlns="http://www.w3.org/2000/svg" version="1.1" width="600" height="600">
  <defs/>
  <g>
    <path d="M 353.33843994140625 339.50634765625 C 356.6344299316406 341.0087890625 360.8589172363281 337.5132141113281 360.264892578125 333.963623046875 C 359.6708068847656 330.4140319824219 354.8392333984375 328.450439453125 351.7668151855469 330.37115478515625 C 348.69439697265625 332.2918701171875 348.17669677734375 337.14739990234375 350.5860900878906 339.8581237792969 L 353.33843994140625 339.50634765625" stroke-width="0.6000000238418579" fill="rgb(233, 92, 21)" opacity="1.0"/>
    <path d="M 104.30877685546875 200.29461669921875 C 105.78631591796875 199.11520385742188 107.42893981933594 197.55316162109375 107.098388671875 195.68521118164062 C 106.93789672851562 194.94696044921875 106.55230712890625 194.27670288085938 105.9947509765625 193.76690673828125 C 104.649169921875 192.46841430664062 102.7576904296875 191.90264892578125 100.92010498046875 192.24908447265625 C 99.36209106445312 192.54690551757812 98.028076171875 193.48529052734375 96.760009765625 194.4219970703125 C 96.04853820800781 194.9493408203125 95.30941772460938 195.53228759765625 95.00955200195312 196.36041259765625 C 94.618896484375 197.46749877929688 95.12458801269531 198.6846923828125 95.73286437988281 199.68841552734375 C 96.62124633789062 201.158447265625 97.74169921875 202.4749755859375 99.05078125 203.58697509765625 C 99.50384521484375 203.97030639648438 100.003662109375 204.34109497070312 100.58802795410156 204.44342041015625 C 101.13624572753906 204.5107421875 101.69219970703125 204.4171142578125 102.18814086914062 204.17391967773438 C 103.72113037109375 203.4947509765625 104.87905883789062 202.17730712890625 105.35578918457031 200.56976318359375 L 104.30877685546875 200.29461669921875" stroke-width="0.6000000238418579" fill="rgb(70, 150, 179)" opacity="1.0"/>
    <path d="M 461.22222900390625 430.9324951171875 C 462.1993408203125 432.7694091796875 463.35943603515625 434.764404296875 465.3370361328125 435.4066162109375 C 467.46173095703125 436.09527587890625 469.814453125 434.8963623046875 471.22662353515625 433.16595458984375 C 471.7713623046875 432.4990234375 472.22979736328125 431.718994140625 472.3035888671875 430.861083984375 C 472.36456298828125 430.1558837890625 472.162841796875 429.45635986328125 471.9263916015625 428.78936767578125 C 471.183349609375 426.68505859375 469.95654296875 424.5821533203125 467.93505859375 423.63775634765625 C 465.89703369140625 422.6873779296875 463.2640380859375 423.2060546875 461.7469482421875 424.8685302734375 C 460.229736328125 426.531005859375 459.928466796875 429.1942138671875 461.0526123046875 431.145751953125 L 461.22222900390625 430.9324951171875" stroke-width="0.6000000238418579" fill="rgb(140, 28, 33)" opacity="1.0"/>
    <path d="M 92.09133911132812 192.90179443359375 C 92.85517883300781 192.4554443359375 93.64508056640625 191.9825439453125 94.15251159667969 191.257080078125 C 94.65992736816406 190.53155517578125 94.80284118652344 189.46847534179688 94.24595642089844 188.7803955078125 C 93.556640625 187.9326171875 92.10079956054688 188.092041015625 91.34896850585938 188.88763427734375 C 90.59713745117188 189.68328857421875 90.42626953125 190.8743896484375 90.52981567382812 191.9627685546875 C 90.52813720703125 192.30288696289062 90.65399169921875 192.63128662109375 90.882568359375 192.88311767578125 C 91.13243103027344 193.105712890625 91.61856079101562 193.07342529296875 91.7244873046875 192.7542724609375 L 92.09133911132812 192.90179443359375" stroke-width="0.6000000238418579" fill="rgb(159, 159, 159)" opacity="1.0"/>
    <path d="M 379.6173400878906 300.2817077636719 C 381.4374084472656 299.3835144042969 382.9894104003906 297.8421630859375 383.6312561035156 295.91778564453125 C 384.2731018066406 293.9934387207031 383.895751953125 291.69439697265625 382.4632568359375 290.2459716796875 C 381.4491882324219 289.2231750488281 380.00177001953125 288.6972351074219 378.5622253417969 288.6216735839844 C 377.1226501464844 288.5461120605469 375.6873779296875 288.88800048828125 374.3419494628906 289.4062194824219 C 373.7565612792969 289.6321105957031 373.1589050292969 289.911376953125 372.786376953125 290.41424560546875 C 372.3590087890625 290.9905700683594 372.3054504394531 291.7535705566406 372.3017578125 292.4732360839844 C 372.2913513183594 294.5050048828125 372.5918884277344 296.61572265625 373.7162780761719 298.308349609375 C 374.84063720703125 300.0009765625 376.951416015625 301.15618896484375 378.9223937988281 300.6828918457031 L 379.6173400878906 300.2817077636719" stroke-width="0.6000000238418579" fill="rgb(159, 159, 159)" opacity="1.0"/>
    <path d="M 101.62875366210938 431.326416015625 C 102.9320068359375 429.83160400390625 104.31585693359375 428.113525390625 104.20036315917969 426.13763427734375 C 104.09074401855469 424.21588134765625 102.6051025390625 422.6900634765625 101.18980407714844 421.3841552734375 C 100.61407470703125 420.8544921875 100.00332641601562 420.3095703125 99.2459716796875 420.1153564453125 C 97.96522521972656 419.78607177734375 96.66023254394531 420.5400390625 95.67095947265625 421.4146728515625 C 94.75241088867188 422.22607421875 93.95515441894531 423.1651611328125 93.30357360839844 424.2032470703125 C 92.24496459960938 425.88836669921875 91.60874938964844 428.117431640625 92.62249755859375 429.8291015625 C 93.16842651367188 430.75390625 94.12898254394531 431.3824462890625 95.146240234375 431.73193359375 C 96.16349792480469 432.0814208984375 97.24862670898438 432.17816162109375 98.32125854492188 432.25836181640625 C 99.39389038085938 432.338623046875 100.4495849609375 432.3944091796875 101.43649291992188 432.03594970703125 L 101.62875366210938 431.326416015625" stroke-width="0.6000000238418579" fill="rgb(218, 166, 20)" opacity="1.0"/>
    <path d="M 100.8731689453125 138.93479919433594 C 104.05355834960938 139.8316650390625 107.35881042480469 137.98052978515625 108.25567626953125 134.80015563964844 C 108.33248901367188 134.52781677246094 108.38986206054688 134.25038146972656 108.42739868164062 133.9699249267578 C 108.56982421875 132.9042205810547 108.39895629882812 131.7534637451172 107.73919677734375 130.90518188476562 C 107.18170166015625 130.18826293945312 106.33929443359375 129.7552490234375 105.49200439453125 129.4300537109375 C 103.22279357910156 128.56272888183594 100.76274108886719 128.3188018798828 98.36738586425781 128.7236328125 C 97.73440551757812 128.8317108154297 97.09063720703125 128.99310302734375 96.5699462890625 129.37124633789062 C 95.6954345703125 130.00555419921875 95.32315063476562 131.1534881591797 95.32504272460938 132.23458862304688 C 95.32672119140625 133.83963012695312 96.0452880859375 135.39991760253906 97.14427185058594 136.57020568847656 C 98.24325561523438 137.74049377441406 99.697265625 138.5414276123047 101.23193359375 139.01229858398438 L 100.8731689453125 138.93479919433594" stroke-width="0.6000000238418579" fill="rgb(143, 165, 67)" opacity="1.0"/>
    <path d="M 456.1143798828125 338.320068359375 C 459.34735107421875 340.1027526855469 463.911865234375 336.87823486328125 463.5836181640625 333.22479248046875 C 463.25543212890625 329.57135009765625 458.4976806640625 327.2008361816406 455.2261962890625 328.9143371582031 C 451.9547119140625 330.6278076171875 451.0517578125 335.5221252441406 453.2899169921875 338.46392822265625 L 456.1143798828125 338.320068359375" stroke-width="0.6000000238418579" fill="rgb(233, 92, 21)" opacity="1.0"/>
    <path d="M 110.60334777832031 215.81613159179688 C 112.2860107421875 214.9791259765625 114.20919799804688 213.80477905273438 114.27880859375 211.92031860351562 C 114.27731323242188 211.1693115234375 114.04281616210938 210.437255859375 113.60763549804688 209.82513427734375 C 112.57167053222656 208.28167724609375 110.85186767578125 207.33612060546875 108.99359130859375 207.28826904296875 C 107.41716003417969 207.251708984375 105.92437744140625 207.884521484375 104.49604797363281 208.529541015625 C 103.69429016113281 208.89315795898438 102.85403442382812 209.30502319335938 102.38932800292969 210.04705810546875 C 101.77804565429688 211.04119873046875 102.01480102539062 212.3299560546875 102.39593505859375 213.4326171875 C 102.95169067382812 215.047119140625 103.76510620117188 216.56097412109375 104.80464172363281 217.91555786132812 C 105.16470336914062 218.38287353515625 105.5728759765625 218.84780883789062 106.11935424804688 219.06951904296875 C 106.63803100585938 219.2496337890625 107.19793701171875 219.27496337890625 107.73075866699219 219.14239501953125 C 109.3626708984375 218.80316162109375 110.76362609863281 217.76510620117188 111.56327819824219 216.3026123046875 L 110.60334777832031 215.81613159179688" stroke-width="0.6000000238418579" fill="rgb(70, 150, 179)" opacity="1.0"/>
    <path d="M 103.11625671386719 76.73379516601562 C 104.34722900390625 78.35020446777344 105.779541015625 80.09017944335938 107.78659057617188 80.39767456054688 C 109.94281005859375 80.72671508789062 112.02145385742188 79.20068359375 113.10987854003906 77.310546875 C 113.52984619140625 76.58195495605469 113.84880065917969 75.758056640625 113.78482055664062 74.91961669921875 C 113.73248291015625 74.23036193847656 113.42788696289062 73.58795166015625 113.094970703125 72.98233032226562 C 112.04742431640625 71.0712890625 110.5338134765625 69.23782348632812 108.43685913085938 68.64608764648438 C 106.32301330566406 68.05117797851562 103.86712646484375 68.9656982421875 102.66680908203125 70.806884765625 C 101.46649169921875 72.6480712890625 101.59564208984375 75.26223754882812 102.98637390136719 76.96604919433594 L 103.11625671386719 76.73379516601562" stroke-width="0.6000000238418579" fill="rgb(140, 28, 33)" opacity="1.0"/>
    <path d="M 95.44645690917969 428.2047119140625 C 96.23373413085938 428.22320556640625 97.05313110351562 428.2337646484375 97.77647399902344 427.9210205078125 C 98.49978637695312 427.60821533203125 99.10458374023438 426.869384765625 99.00392150878906 426.087890625 C 98.87751770019531 425.12353515625 97.69989013671875 424.564453125 96.75860595703125 424.81622314453125 C 95.81732177734375 425.0679931640625 95.13156127929688 425.8907470703125 94.70175170898438 426.763916015625 C 94.5416259765625 427.02081298828125 94.48362731933594 427.32843017578125 94.53921508789062 427.62603759765625 C 94.62460327148438 427.911376953125 95.008056640625 428.114013671875 95.23736572265625 427.921630859375 L 95.44645690917969 428.2047119140625" stroke-width="0.6000000238418579" fill="rgb(159, 159, 159)" opacity="1.0"/>
    <path d="M 466.9844970703125 61.06793212890625 C 468.3131103515625 59.60923767089844 469.1707763671875 57.66357421875 469.0689697265625 55.6942138671875 C 468.967041015625 53.724822998046875 467.809814453125 51.77796936035156 465.9993896484375 50.975341796875 C 464.71875 50.40948486328125 463.22216796875 50.447021484375 461.8924560546875 50.889404296875 C 460.562744140625 51.331787109375 459.3851318359375 52.15045166015625 458.351318359375 53.09686279296875 C 457.901611328125 53.50897216796875 457.4598388671875 53.97380065917969 457.30108642578125 54.56109619140625 C 457.1187744140625 55.23432922363281 457.341064453125 55.943878173828125 457.593017578125 56.596527099609375 C 458.30450439453125 58.439056396484375 459.325439453125 60.24273681640625 460.943603515625 61.375701904296875 C 462.561767578125 62.5086669921875 464.8819580078125 62.805267333984375 466.4979248046875 61.67759704589844 L 466.9844970703125 61.06793212890625" stroke-width="0.6000000238418579" fill="rgb(159, 159, 159)" opacity="1.0"/>
    <path d="M 92.24819946289062 105.20437622070312 C 94.22108459472656 105.54135131835938 96.42863464355469 105.83045959472656 98.0701904296875 104.69229125976562 C 99.66818237304688 103.587646484375 100.2017822265625 101.50570678710938 100.58285522460938 99.59994506835938 C 100.73652648925781 98.82551574707031 100.88494873046875 98.01290893554688 100.65415954589844 97.25833129882812 C 100.26458740234375 95.98187255859375 98.92904663085938 95.25395202636719 97.65554809570312 94.86141967773438 C 96.47366333007812 94.49662780761719 95.24551391601562 94.30343627929688 94.00869750976562 94.28775024414062 C 92.00048828125 94.26156616210938 89.74569702148438 94.88517761230469 88.80397033691406 96.65829467773438 C 88.29415893554688 97.61477661132812 88.25762939453125 98.77267456054688 88.49125671386719 99.83277893066406 C 88.72488403320312 100.89288330078125 89.21197509765625 101.87857055664062 89.70672607421875 102.84481811523438 C 90.20146179199219 103.81106567382812 90.70829772949219 104.7498779296875 91.535888671875 105.41168212890625 L 92.24819946289062 105.20437622070312" stroke-width="0.6000000238418579" fill="rgb(218, 166, 20)" opacity="1.0"/>
    <path d="M 116.169921875 127.52996826171875 C 119.27932739257812 126.48367309570312 120.95179748535156 123.11482238769531 119.90550231933594 120.00543212890625 C 119.81591796875 119.73916625976562 119.70755004882812 119.47959899902344 119.58120727539062 119.22866821289062 C 119.10101318359375 118.27529907226562 118.31636047363281 117.427734375 117.30035400390625 117.10194396972656 C 116.44180297851562 116.82655334472656 115.50872802734375 116.94345092773438 114.63201904296875 117.15150451660156 C 112.28605651855469 117.71162414550781 110.13287353515625 118.88967895507812 108.39610290527344 120.56327819824219 C 107.93777465820312 121.00643920898438 107.50045776367188 121.49932861328125 107.28546142578125 122.10096740722656 C 106.92390441894531 123.11077880859375 107.26174926757812 124.26028442382812 107.86888122558594 125.14544677734375 C 108.76931762695312 126.460205078125 110.23233032226562 127.33670043945312 111.78874206542969 127.68040466308594 C 113.34512329101562 128.0241241455078 114.98565673828125 127.86619567871094 116.50741577148438 127.39254760742188 L 116.169921875 127.52996826171875" stroke-width="0.6000000238418579" fill="rgb(143, 165, 67)" opacity="1.0"/>
    <path d="M 386.8165283203125 300.2185363769531 C 389.7926940917969 302.4817810058594 394.8418884277344 299.9246520996094 395.05224609375 296.2156982421875 C 395.2625427246094 292.50677490234375 390.84539794921875 289.42950439453125 387.3147277832031 290.66351318359375 C 383.7840576171875 291.89752197265625 382.15704345703125 296.66802978515625 383.9654235839844 299.94586181640625 L 386.8165283203125 300.2185363769531" stroke-width="0.6000000238418579" fill="rgb(233, 92, 21)" opacity="1.0"/>
    <path d="M 121.92807006835938 111.1009521484375 C 123.42288208007812 109.92311096191406 125.0863037109375 108.36111450195312 124.76539611816406 106.47868347167969 C 124.6085205078125 105.73452758789062 124.224609375 105.057373046875 123.66659545898438 104.54066467285156 C 122.32032775878906 103.22503662109375 120.41989135742188 102.64353942871094 118.56793212890625 102.9805908203125 C 116.9976806640625 103.27052307128906 115.64886474609375 104.20668029785156 114.366455078125 105.14157104492188 C 113.64694213867188 105.66790771484375 112.89923095703125 106.25003051757812 112.59210205078125 107.08175659179688 C 112.19183349609375 108.19369506835938 112.69317626953125 109.42218017578125 113.29913330078125 110.4364013671875 C 114.18408203125 111.92179870605469 115.30363464355469 113.25416564941406 116.61434936523438 114.3818359375 C 117.06797790527344 114.77058410644531 117.56875610351562 115.14700317382812 118.15635681152344 115.25369262695312 C 118.70777893066406 115.324951171875 119.26803588867188 115.23422241210938 119.76878356933594 114.9925537109375 C 121.31625366210938 114.31861877441406 122.49020385742188 112.999755859375 122.98028564453125 111.38459777832031 L 121.92807006835938 111.1009521484375" stroke-width="0.6000000238418579" fill="rgb(70, 150, 179)" opacity="1.0"/>
    <path d="M 430.405029296875 71.79388427734375 C 431.6085205078125 73.51266479492188 433.0146484375 75.36726379394531 435.072998046875 75.76742553710938 C 437.284423828125 76.19598388671875 439.4923095703125 74.70710754394531 440.6934814453125 72.80160522460938 C 441.156982421875 72.067138671875 441.52008056640625 71.23011779785156 441.4886474609375 70.3623046875 C 441.463134765625 69.64891052246094 441.17535400390625 68.97341918945312 440.8568115234375 68.33476257324219 C 439.854736328125 66.31953430175781 438.36859130859375 64.3651123046875 436.2291259765625 63.66792297363281 C 434.072509765625 62.966766357421875 431.50048828125 63.809051513671875 430.1859130859375 65.65940856933594 C 428.871337890625 67.509765625 428.8966064453125 70.21263122558594 430.2613525390625 72.0281982421875 L 430.405029296875 71.79388427734375" stroke-width="0.6000000238418579" fill="rgb(140, 28, 33)" opacity="1.0"/>
    <path d="M 119.35809326171875 417.6405029296875 C 120.0234375 417.0589599609375 120.70938110351562 416.44659423828125 121.07070922851562 415.6395263671875 C 121.43202209472656 414.8323974609375 121.372314453125 413.7626953125 120.6966552734375 413.1925048828125 C 119.86105346679688 412.490478515625 118.46295166015625 412.92059326171875 117.87506103515625 413.8424072265625 C 117.28717041015625 414.7642822265625 117.34353637695312 415.96484375 117.6497802734375 417.012939453125 C 117.71206665039062 417.346923828125 117.89727783203125 417.6453857421875 118.16885375976562 417.8494873046875 C 118.455810546875 418.020751953125 118.92662048339844 417.897705078125 118.97048950195312 417.564697265625 L 119.35809326171875 417.6405029296875" stroke-width="0.6000000238418579" fill="rgb(159, 159, 159)" opacity="1.0"/>
    <path d="M 451.3885498046875 427.8662109375 C 452.4808349609375 426.180908203125 453.0194091796875 424.084716796875 452.5904541015625 422.1239013671875 C 452.16143798828125 420.1630859375 450.67633056640625 418.39990234375 448.72509765625 417.8941650390625 C 447.3450927734375 417.538330078125 445.848388671875 417.8243408203125 444.58648681640625 418.4891357421875 C 443.32452392578125 419.15399169921875 442.2777099609375 420.1715087890625 441.396484375 421.29345703125 C 441.01324462890625 421.7818603515625 440.64666748046875 422.32196044921875 440.58465576171875 422.9381103515625 C 440.5133056640625 423.6444091796875 440.85418701171875 424.320068359375 441.21551513671875 424.9337158203125 C 442.235595703125 426.666015625 443.56005859375 428.30804443359375 445.373046875 429.1773681640625 C 447.18603515625 430.0467529296875 449.5653076171875 429.959716796875 451.00103759765625 428.5592041015625 L 451.3885498046875 427.8662109375" stroke-width="0.6000000238418579" fill="rgb(159, 159, 159)" opacity="1.0"/>
    <path d="M 448.6314697265625 285.18463134765625 C 450.0474853515625 283.78863525390625 451.56103515625 282.1755676269531 451.594970703125 280.1912841796875 C 451.6307373046875 278.2615661621094 450.26080322265625 276.6236572265625 448.94451904296875 275.2109375 C 448.408935546875 274.6378173828125 447.83953857421875 274.04681396484375 447.09698486328125 273.79534912109375 C 445.8414306640625 273.3692626953125 444.4796142578125 274.0244140625 443.42437744140625 274.82403564453125 C 442.44464111328125 275.5658264160156 441.57647705078125 276.4444885253906 440.84649658203125 277.4330749511719 C 439.66064453125 279.037841796875 438.85595703125 281.2183532714844 439.74005126953125 283.0063781738281 C 440.2159423828125 283.97235107421875 441.1287841796875 284.67340087890625 442.11944580078125 285.09979248046875 C 443.110107421875 285.5261535644531 444.18768310546875 285.7049255371094 445.2540283203125 285.8662414550781 C 446.3204345703125 286.0275573730469 447.3717041015625 286.1632080078125 448.385498046875 285.87945556640625 L 448.6314697265625 285.18463134765625" stroke-width="0.6000000238418579" fill="rgb(218, 166, 20)" opacity="1.0"/>
    <path d="M 424.64227294921875 369.9867248535156 C 426.6219482421875 372.5174255371094 430.2783203125 372.964111328125 432.8089599609375 370.98443603515625 C 433.02569580078125 370.8149108886719 433.2301025390625 370.6302490234375 433.420654296875 370.4317932128906 C 434.1446533203125 369.6776123046875 434.6717529296875 368.67669677734375 434.6414794921875 367.6322021484375 C 434.615966796875 366.74951171875 434.2039794921875 365.9258728027344 433.72607421875 365.18402099609375 C 432.4442138671875 363.199951171875 430.654541015625 361.5953063964844 428.5428466796875 360.5367431640625 C 427.98419189453125 360.2579040527344 427.386474609375 360.0146484375 426.7607421875 360.01214599609375 C 425.7103271484375 360.0073547363281 424.7587890625 360.6940002441406 424.13916015625 361.5431823730469 C 423.2183837890625 362.8032531738281 422.8857421875 364.4400939941406 423.07550048828125 365.989501953125 C 423.2652587890625 367.5389404296875 423.94580078125 369.0025939941406 424.879150390625 370.2536315917969 L 424.64227294921875 369.9867248535156" stroke-width="0.6000000238418579" fill="rgb(143, 165, 67)" opacity="1.0"/>
    <path d="M 449.7293701171875 356.5016784667969 C 452.040771484375 353.5024108886719 449.4840087890625 348.3724670410156 445.729248046875 348.13531494140625 C 441.974609375 347.8982238769531 438.82952880859375 352.3514709472656 440.0562744140625 355.93499755859375 C 441.282958984375 359.5185546875 446.103515625 361.197265625 449.4346923828125 359.3872375488281 L 449.7293701171875 356.5016784667969" stroke-width="0.6000000238418579" fill="rgb(233, 92, 21)" opacity="1.0"/>
    <path d="M 451.88232421875 84.5174560546875 C 453.3087158203125 83.18423461914062 454.8743896484375 81.4437255859375 454.3836669921875 79.54702758789062 C 454.1590576171875 78.79983520507812 453.7081298828125 78.1407470703125 453.093017578125 77.66070556640625 C 451.6031494140625 76.43199157714844 449.61004638671875 76.00167846679688 447.74591064453125 76.50617980957031 C 446.1656494140625 76.93820190429688 444.86767578125 78.01173400878906 443.63739013671875 79.07823181152344 C 442.947265625 79.67845153808594 442.233154296875 80.338134765625 441.99102783203125 81.21490478515625 C 441.6778564453125 82.38623046875 442.2965087890625 83.59881591796875 443.0035400390625 84.58331298828125 C 444.0364990234375 86.02542114257812 445.296142578125 87.29080200195312 446.73345947265625 88.33041381835938 C 447.23077392578125 88.68865966796875 447.7752685546875 89.03022766113281 448.3851318359375 89.08854675292969 C 448.95501708984375 89.11376953125 449.5198974609375 88.97262573242188 450.010986328125 88.68232727050781 C 451.5347900390625 87.85971069335938 452.6209716796875 86.4100341796875 452.98248291015625 84.71653747558594 L 451.88232421875 84.5174560546875" stroke-width="0.6000000238418579" fill="rgb(70, 150, 179)" opacity="1.0"/>
    <path d="M 449.26995849609375 393.5384521484375 C 450.49383544921875 391.8209533691406 451.7783203125 389.8658752441406 451.46588134765625 387.78155517578125 C 451.12890625 385.5427551269531 448.976806640625 383.95135498046875 446.7681884765625 383.4536437988281 C 445.916748046875 383.2613525390625 445.0018310546875 383.19854736328125 444.1903076171875 383.51983642578125 C 443.5230712890625 383.78369140625 442.97991943359375 384.28326416015625 442.48193359375 384.799560546875 C 440.9095458984375 386.4258117675781 439.557373046875 388.490234375 439.61566162109375 390.7510986328125 C 439.676025390625 393.0296630859375 441.337890625 395.1831359863281 443.5323486328125 395.80682373046875 C 445.726806640625 396.4305419921875 448.27880859375 395.49853515625 449.5401611328125 393.5957946777344 L 449.26995849609375 393.5384521484375" stroke-width="0.6000000238418579" fill="rgb(140, 28, 33)" opacity="1.0"/>
    <path d="M 118.11172485351562 213.37258911132812 C 116.90936279296875 213.0205078125 115.65437316894531 212.66741943359375 114.41409301757812 212.85076904296875 C 113.17385864257812 213.03411865234375 111.94064331054688 213.9210205078125 111.77407836914062 215.16339111328125 C 111.5718994140625 216.69744873046875 113.15194702148438 218.04086303710938 114.70208740234375 218.0408935546875 C 116.25222778320312 218.0408935546875 117.6444091796875 217.05828857421875 118.66390991210938 215.89312744140625 C 119.01565551757812 215.5640869140625 119.23123168945312 215.11514282226562 119.26814270019531 214.6348876953125 C 119.25421142578125 214.1612548828125 118.74819946289062 213.6922607421875 118.31668090820312 213.8936767578125 L 118.11172485351562 213.37258911132812" stroke-width="0.6000000238418579" fill="rgb(159, 159, 159)" opacity="1.0"/>
    <path d="M 112.79393005371094 224.15487670898438 C 110.98788452148438 222.852294921875 108.69619750976562 222.14013671875 106.50103759765625 222.50701904296875 C 104.30587768554688 222.8739013671875 102.2713623046875 224.4212646484375 101.60362243652344 226.55419921875 C 101.13343811035156 228.06280517578125 101.36752319335938 229.736083984375 102.03414916992188 231.1702880859375 C 102.70077514648438 232.6044921875 103.76982116699219 233.81997680664062 104.96363830566406 234.8577880859375 C 105.48342895507812 235.30908203125 106.06130981445312 235.744873046875 106.74020385742188 235.8475341796875 C 107.51846313476562 235.965576171875 108.28556823730469 235.62530517578125 108.98504638671875 235.259033203125 C 110.95977783203125 234.22491455078125 112.85124206542969 232.8487548828125 113.91403198242188 230.88897705078125 C 114.976806640625 228.92919921875 115.01171875 226.28948974609375 113.53997802734375 224.62228393554688 L 112.79393005371094 224.15487670898438" stroke-width="0.6000000238418579" fill="rgb(159, 159, 159)" opacity="1.0"/>
    <path d="M 301.1439514160156 104.82423400878906 C 300.02264404296875 106.70550537109375 298.85772705078125 108.84521484375 299.3728942871094 110.96945190429688 C 299.8709716796875 113.0360107421875 301.7861328125 114.4010009765625 303.5815124511719 115.5408935546875 C 304.3115539550781 116.00289916992188 305.0826416015625 116.47456359863281 305.9438781738281 116.53627014160156 C 307.40045166015625 116.6414794921875 308.6697692871094 115.56488037109375 309.5722351074219 114.41946411132812 C 310.4103088378906 113.35664367675781 311.0914001464844 112.17898559570312 311.5946960449219 110.92254638671875 C 312.4126892089844 108.88275146484375 312.6644287109375 106.33523559570312 311.2253723144531 104.67526245117188 C 310.44976806640625 103.7779541015625 309.2821044921875 103.28445434570312 308.10784912109375 103.10528564453125 C 306.9335632324219 102.92611694335938 305.73541259765625 103.03500366210938 304.5540771484375 103.15937805175781 C 303.37274169921875 103.28375244140625 302.2146301269531 103.4312744140625 301.21295166015625 104.015380859375 L 301.1439514160156 104.82423400878906" stroke-width="0.6000000238418579" fill="rgb(218, 166, 20)" opacity="1.0"/>
    <path d="M 220.91000366210938 127.00772094726562 C 217.83578491210938 125.035888671875 213.7451171875 125.92953491210938 211.7733154296875 129.00375366210938 C 211.60443115234375 129.26699829101562 211.4544677734375 129.54190063476562 211.32452392578125 129.8263702392578 C 210.83096313476562 130.90737915039062 210.64129638671875 132.17913818359375 211.06591796875 133.28843688964844 C 211.4246826171875 134.22589111328125 212.17608642578125 134.95484924316406 212.96734619140625 135.57138061523438 C 215.08761596679688 137.21876525878906 217.61032104492188 138.26837158203125 220.27340698242188 138.61119079589844 C 220.97747802734375 138.70062255859375 221.71014404296875 138.73716735839844 222.38238525390625 138.50489807128906 C 223.51123046875 138.11563110351562 224.2742919921875 137.02163696289062 224.62020874023438 135.87789916992188 C 225.13497924804688 134.18020629882812 224.8773193359375 132.2991485595703 224.09188842773438 130.70803833007812 C 223.30645751953125 129.11691284179688 222.02679443359375 127.80209350585938 220.55560302734375 126.81033325195312 L 220.91000366210938 127.00772094726562" stroke-width="0.6000000238418579" fill="rgb(143, 165, 67)" opacity="1.0"/>
    <path d="M 223.03640747070312 96.27961730957031 C 221.09130859375 100.28388977050781 225.2587890625 105.57933044433594 229.63775634765625 104.95632934570312 C 234.0167236328125 104.33331298828125 236.5745849609375 98.45626831054688 234.3072509765625 94.6236572265625 C 232.03994750976562 90.79104614257812 226.08999633789062 90.00885009765625 222.68707275390625 92.88748168945312 L 223.03640747070312 96.27961730957031" stroke-width="0.6000000238418579" fill="rgb(233, 92, 21)" opacity="1.0"/>
    <path d="M 204.64157104492188 96.94320678710938 C 203.6678466796875 95.01739501953125 202.304931640625 92.81793212890625 200.14056396484375 92.752197265625 C 199.27822875976562 92.75955200195312 198.43939208984375 93.03431701660156 197.7398681640625 93.53860473632812 C 195.97537231445312 94.73976135253906 194.90255737304688 96.72163391113281 194.861572265625 98.85574340820312 C 194.83148193359375 100.66616821289062 195.5693359375 102.37548828125 196.3206787109375 104.01071166992188 C 196.7442626953125 104.9285888671875 197.2235107421875 105.89031982421875 198.07904052734375 106.41831970214844 C 199.22515869140625 107.11276245117188 200.70315551757812 106.83120727539062 201.9664306640625 106.38528442382812 C 203.81610107421875 105.7349853515625 205.54827880859375 104.78958129882812 207.0958251953125 103.58576965332031 C 207.6297607421875 103.16879272460938 208.1605224609375 102.69664001464844 208.41098022460938 102.06747436523438 C 208.61392211914062 101.47055053710938 208.6387939453125 100.82745361328125 208.48257446289062 100.21662902832031 C 208.08074951171875 98.3453369140625 206.87826538085938 96.7445068359375 205.19296264648438 95.83731079101562 L 204.64157104492188 96.94320678710938" stroke-width="0.6000000238418579" fill="rgb(70, 150, 179)" opacity="1.0"/>
    <path d="M 265.6463928222656 129.5861053466797 C 264.3651123046875 131.45755004882812 263.0235290527344 133.585693359375 263.40155029296875 135.8205108642578 C 263.80908203125 138.22096252441406 266.1553039550781 139.88861083984375 268.5401306152344 140.37916564941406 C 269.45953369140625 140.56869506835938 270.4445495605469 140.61773681640625 271.3106384277344 140.25588989257812 C 272.0227355957031 139.9586944580078 272.5967102050781 139.41058349609375 273.1217346191406 138.8453826904297 C 274.7795715332031 137.06500244140625 276.1917419433594 134.8179168701172 276.0834045410156 132.38812255859375 C 275.9725036621094 129.9393310546875 274.1419982910156 127.65740966796875 271.76983642578125 127.0311279296875 C 269.39764404296875 126.40483093261719 266.6725769042969 127.45852661132812 265.3547058105469 129.52992248535156 L 265.6463928222656 129.5861053466797" stroke-width="0.6000000238418579" fill="rgb(140, 28, 33)" opacity="1.0"/>
    <path d="M 317.5980224609375 115.4532470703125 C 316.1630859375 116.14236450195312 314.6775817871094 116.87525939941406 313.66180419921875 118.10235595703125 C 312.64605712890625 119.32943725585938 312.2347717285156 121.21511840820312 313.1331481933594 122.53024291992188 C 314.2457275390625 124.15115356445312 316.8797912597656 124.0775146484375 318.3440856933594 122.76029968261719 C 319.8083801269531 121.44308471679688 320.2884826660156 119.3319091796875 320.2614440917969 117.36495971679688 C 320.3140869140625 116.7552490234375 320.1362609863281 116.14797973632812 319.7630310058594 115.66299438476562 C 319.347412109375 115.22738647460938 318.47088623046875 115.21438598632812 318.2344055175781 115.77130126953125 L 317.5980224609375 115.4532470703125" stroke-width="0.6000000238418579" fill="rgb(159, 159, 159)" opacity="1.0"/>
    <path d="M 199.74783325195312 129.4459228515625 C 197.95635986328125 128.11166381835938 195.668701171875 127.36212158203125 193.4613037109375 127.69638061523438 C 191.25390625 128.0306396484375 189.189453125 129.55137634277344 188.48690795898438 131.68048095703125 C 187.99212646484375 133.18641662597656 188.20120239257812 134.8683319091797 188.8477783203125 136.31710815429688 C 189.494384765625 137.76588439941406 190.5479736328125 139.00144958496094 191.72943115234375 140.06072998046875 C 192.24383544921875 140.52139282226562 192.8167724609375 140.96737670898438 193.49612426757812 141.0807647705078 C 194.27493286132812 141.21112060546875 195.049560546875 140.8816375732422 195.75677490234375 140.52499389648438 C 197.75335693359375 139.5181121826172 199.67169189453125 138.16688537597656 200.76779174804688 136.21754455566406 C 201.8638916015625 134.2681884765625 201.93951416015625 131.62106323242188 200.48895263671875 129.92620849609375 L 199.74783325195312 129.4459228515625" stroke-width="0.6000000238418579" fill="rgb(159, 159, 159)" opacity="1.0"/>
    <path d="M 281.09698486328125 106.09326171875 C 279.1429138183594 106.78604125976562 277.0008544921875 107.64077758789062 276.0921325683594 109.49978637695312 C 275.20587158203125 111.30642700195312 275.77606201171875 113.45852661132812 276.3950500488281 115.37423706054688 C 276.64764404296875 116.15208435058594 276.92431640625 116.96182250976562 277.51446533203125 117.52735900878906 C 278.5120544433594 118.48445129394531 280.0875549316406 118.46734619140625 281.4374084472656 118.17837524414062 C 282.6904296875 117.91064453125 283.8984680175781 117.46437072753906 285.0246276855469 116.85322570800781 C 286.8535461425781 115.861572265625 288.5768127441406 114.15776062011719 288.53179931640625 112.07853698730469 C 288.5091247558594 110.95600891113281 287.95672607421875 109.89065551757812 287.20953369140625 109.05032348632812 C 286.4623107910156 108.20999145507812 285.5235900878906 107.5650634765625 284.5877380371094 106.94161987304688 C 283.65191650390625 106.31817626953125 282.7190246582031 105.72561645507812 281.63616943359375 105.54568481445312 L 281.09698486328125 106.09326171875" stroke-width="0.6000000238418579" fill="rgb(218, 166, 20)" opacity="1.0"/>
    <path d="M 242.72097778320312 122.03472900390625 C 240.7314453125 124.93087768554688 241.4664306640625 128.8915252685547 244.36260986328125 130.88104248046875 C 244.610595703125 131.05140686035156 244.870361328125 131.20396423339844 245.13995361328125 131.3375701904297 C 246.1644287109375 131.84503173828125 247.38156127929688 132.06607055664062 248.46112060546875 131.69146728515625 C 249.37347412109375 131.37498474121094 250.0972900390625 130.6746368408203 250.71417236328125 129.93251037597656 C 252.36270141601562 127.94377136230469 253.44866943359375 125.54989624023438 253.8592529296875 122.99957275390625 C 253.9666748046875 122.32525634765625 254.0240478515625 121.62187194824219 253.8211669921875 120.9683837890625 C 253.48114013671875 119.87109375 252.452392578125 119.10409545898438 251.36309814453125 118.7366943359375 C 249.74627685546875 118.19009399414062 247.9296875 118.38069152832031 246.37582397460938 119.08757019042969 C 244.82196044921875 119.79443359375 243.518798828125 120.98500061035156 242.5203857421875 122.3695068359375 L 242.72097778320312 122.03472900390625" stroke-width="0.6000000238418579" fill="rgb(143, 165, 67)" opacity="1.0"/>
    <path d="M 248.67642211914062 95.23716735839844 C 246.97894287109375 99.3121337890625 251.40631103515625 104.31709289550781 255.7059326171875 103.45086669921875 C 260.0054931640625 102.58462524414062 262.20294189453125 96.62078857421875 259.7400207519531 92.95573425292969 C 257.2770690917969 89.29069519042969 251.3421630859375 88.85528564453125 248.1373291015625 91.89892578125 L 248.67642211914062 95.23716735839844" stroke-width="0.6000000238418579" fill="rgb(233, 92, 21)" opacity="1.0"/>
    <path d="M 338.7550964355469 86.83157348632812 C 336.76141357421875 86.34730529785156 334.3296813964844 85.97561645507812 332.94647216796875 87.50030517578125 C 332.41961669921875 88.12850952148438 332.10064697265625 88.90469360351562 332.03363037109375 89.72183227539062 C 331.81341552734375 91.73916625976562 332.58465576171875 93.73809814453125 334.1027526855469 95.08474731445312 C 335.3934631347656 96.22377014160156 337.0849914550781 96.74501037597656 338.7312927246094 97.21076965332031 C 339.656494140625 97.47090148925781 340.64776611328125 97.71781921386719 341.5575866699219 97.42494201660156 C 342.7671203613281 97.02462768554688 343.4755859375 95.781982421875 343.9327087402344 94.59317016601562 C 344.6038818359375 92.85418701171875 344.9891662597656 91.01803588867188 345.0736083984375 89.15594482421875 C 345.1015319824219 88.51251220703125 345.0876159667969 87.83724975585938 344.78717041015625 87.26785278320312 C 344.480712890625 86.75270080566406 344.0309753417969 86.33784484863281 343.4928283691406 86.07388305664062 C 341.8915100097656 85.20965576171875 339.9917297363281 85.09136962890625 338.29559326171875 85.75033569335938 L 338.7550964355469 86.83157348632812" stroke-width="0.6000000238418579" fill="rgb(70, 150, 179)" opacity="1.0"/>
    <path d="M 335.70263671875 120.31781005859375 C 334.7742919921875 118.21121215820312 333.6568298339844 115.91520690917969 331.5270690917969 115.04522705078125 C 329.2386474609375 114.11204528808594 326.54473876953125 115.24310302734375 324.8453369140625 117.03741455078125 C 324.1898498535156 117.72894287109375 323.6203918457031 118.55221557617188 323.4689636230469 119.49284362792969 C 323.3442077636719 120.26605224609375 323.5097351074219 121.05441284179688 323.7162170410156 121.80972290039062 C 324.364501953125 124.19235229492188 325.5467834472656 126.61288452148438 327.70037841796875 127.81979370117188 C 329.8717346191406 129.03468322753906 332.8194274902344 128.6771697998047 334.6291198730469 126.9664306640625 C 336.4388122558594 125.25567626953125 336.9884338378906 122.34147644042969 335.9071960449219 120.0963134765625 L 335.70263671875 120.31781005859375" stroke-width="0.6000000238418579" fill="rgb(140, 28, 33)" opacity="1.0"/>
    <path d="M 357.8717041015625 105.63671875 C 356.8214111328125 105.98287963867188 355.7322998046875 106.35464477539062 354.92254638671875 107.10899353027344 C 354.1128234863281 107.86334228515625 353.6604919433594 109.12554931640625 354.16156005859375 110.11207580566406 C 354.78277587890625 111.32846069335938 356.6040344238281 111.51377868652344 357.7308654785156 110.737548828125 C 358.8576965332031 109.96131896972656 359.37762451171875 108.54989624023438 359.5352783203125 107.19241333007812 C 359.6261901855469 106.777099609375 359.5580749511719 106.34280395507812 359.34442138671875 105.9752197265625 C 359.0971374511719 105.63789367675781 358.49444580078125 105.55036926269531 358.2816162109375 105.91285705566406 L 357.8717041015625 105.63671875" stroke-width="0.6000000238418579" fill="rgb(159, 159, 159)" opacity="1.0"/>
    <path d="M 351.4050598144531 121.15924072265625 C 349.23297119140625 121.70252990722656 347.1996765136719 123.00184631347656 346.0582275390625 124.92669677734375 C 344.9167785644531 126.85153198242188 344.78662109375 129.41836547851562 345.9927673339844 131.31455993652344 C 346.84722900390625 132.65411376953125 348.284912109375 133.55923461914062 349.8193054199219 133.97691345214844 C 351.3537292480469 134.39462280273438 352.9809875488281 134.36122131347656 354.5526123046875 134.11672973632812 C 355.23651123046875 134.00994873046875 355.94610595703125 133.84841918945312 356.4652099609375 133.3932647705078 C 357.0605773925781 132.87171936035156 357.2965087890625 132.0615997314453 357.46856689453125 131.28656005859375 C 357.954345703125 129.0984649658203 358.123291015625 126.7525634765625 357.306396484375 124.66506958007812 C 356.4894714355469 122.57756042480469 354.4835510253906 120.83908081054688 352.2480163574219 120.88900756835938 L 351.4050598144531 121.15924072265625" stroke-width="0.6000000238418579" fill="rgb(159, 159, 159)" opacity="1.0"/>
    <path d="M 364.8175354003906 108.27505493164062 C 363.10406494140625 108.50144958496094 361.20928955078125 108.82733154296875 360.1462097167969 110.185791015625 C 359.11053466796875 111.50544738769531 359.20263671875 113.35914611816406 359.37548828125 115.02851867675781 C 359.44671630859375 115.70657348632812 359.53204345703125 116.414794921875 359.915283203125 116.97821044921875 C 360.5629577636719 117.93148803710938 361.85064697265625 118.19049072265625 363.0014343261719 118.18870544433594 C 364.0695495605469 118.18746948242188 365.1319580078125 118.03285217285156 366.1561584472656 117.7296142578125 C 367.8193054199219 117.23782348632812 369.51971435546875 116.14701843261719 369.8432312011719 114.44374084472656 C 370.01922607421875 113.52445983886719 369.75335693359375 112.56002807617188 369.2896423339844 111.74533081054688 C 368.825927734375 110.93064880371094 368.1721496582031 110.24212646484375 367.5170593261719 109.57160949707031 C 366.8619689941406 108.90109252929688 366.20391845703125 108.25627136230469 365.3520812988281 107.92196655273438 L 364.8175354003906 108.27505493164062" stroke-width="0.6000000238418579" fill="rgb(218, 166, 20)" opacity="1.0"/>
    <path d="M 433.399169921875 159.11968994140625 C 430.41796875 159.44464111328125 428.2647705078125 162.12481689453125 428.58978271484375 165.10592651367188 C 428.6175537109375 165.3612060546875 428.66351318359375 165.61419677734375 428.7271728515625 165.86297607421875 C 428.9691162109375 166.8082275390625 429.50360107421875 167.71868896484375 430.34686279296875 168.2086181640625 C 431.0594482421875 168.6226806640625 431.91546630859375 168.70111083984375 432.73895263671875 168.6871337890625 C 434.9432373046875 168.6466064453125 437.096435546875 168.01666259765625 438.9749755859375 166.8626708984375 C 439.470947265625 166.55682373046875 439.9580078125 166.20242309570312 440.267822265625 165.7073974609375 C 440.7884521484375 164.87664794921875 440.7120361328125 163.78411865234375 440.3433837890625 162.87490844726562 C 439.7969970703125 161.524658203125 438.6624755859375 160.45550537109375 437.3402099609375 159.84368896484375 C 436.0179443359375 159.23187255859375 434.5223388671875 159.051513671875 433.0709228515625 159.17626953125 L 433.399169921875 159.11968994140625" stroke-width="0.6000000238418579" fill="rgb(143, 165, 67)" opacity="1.0"/>
    <path d="M 142.45114135742188 416.9735107421875 C 139.5490264892578 420.28662109375 142.14279174804688 426.42852783203125 146.48428344726562 426.977783203125 C 150.8257598876953 427.527099609375 154.80181884765625 422.5869140625 153.63925170898438 418.3372802734375 C 152.4766845703125 414.087646484375 147.00308227539062 411.7870178222656 143.00381469726562 413.6451416015625 L 142.45114135742188 416.9735107421875" stroke-width="0.6000000238418579" fill="rgb(233, 92, 21)" opacity="1.0"/>
    <path d="M 435.77166748046875 182.17889404296875 C 433.94757080078125 182.32086181640625 431.7833251953125 182.67962646484375 431.03338623046875 184.35531616210938 C 430.7608642578125 185.03378295898438 430.70556640625 185.78009033203125 430.875244140625 186.49127197265625 C 431.24755859375 188.26226806640625 432.4552001953125 189.742919921875 434.1151123046875 190.46371459960938 C 435.5247802734375 191.071533203125 437.10302734375 191.04464721679688 438.6275634765625 190.98324584960938 C 439.48388671875 190.9473876953125 440.39251708984375 190.88198852539062 441.08258056640625 190.38162231445312 C 441.996826171875 189.7071533203125 442.2530517578125 188.45751953125 442.3111572265625 187.32318115234375 C 442.398193359375 185.66317749023438 442.2159423828125 184.00006103515625 441.771484375 182.39825439453125 C 441.61688232421875 181.84512329101562 441.41796875 181.276611328125 441.0054931640625 180.87722778320312 C 440.60302734375 180.52548217773438 440.10687255859375 180.2984619140625 439.5775146484375 180.22384643554688 C 437.98077392578125 179.93499755859375 436.337646484375 180.3612060546875 435.08258056640625 181.38973999023438 L 435.77166748046875 182.17889404296875" stroke-width="0.6000000238418579" fill="rgb(70, 150, 179)" opacity="1.0"/>
    <path d="M 410.8672180175781 159.29788208007812 C 410.0598449707031 157.29193115234375 409.08074951171875 155.1023712158203 407.1078186035156 154.2207489013672 C 404.9878845214844 153.2749481201172 402.4243469238281 154.2547149658203 400.7742919921875 155.88743591308594 C 400.1378479003906 156.51666259765625 399.5781555175781 157.272216796875 399.4073486328125 158.15066528320312 C 399.26666259765625 158.87274169921875 399.3980407714844 159.617919921875 399.5688781738281 160.33331298828125 C 400.1048889160156 162.58987426757812 401.1410827636719 164.8983154296875 403.1261291503906 166.09698486328125 C 405.1275634765625 167.30364990234375 407.90576171875 167.05783081054688 409.6568298339844 165.50689697265625 C 411.40789794921875 163.95599365234375 412.0126953125 161.23687744140625 411.0660095214844 159.09619140625 L 410.8672180175781 159.29788208007812" stroke-width="0.6000000238418579" fill="rgb(140, 28, 33)" opacity="1.0"/>
    <path d="M 147.0 115.0 C 146.20098876953125 115.60015869140625 145.37620544433594 116.23348999023438 144.90121459960938 117.11351013183594 C 144.42623901367188 117.99351501464844 144.40414428710938 119.20492553710938 145.11846923828125 119.90451049804688 C 146.0021514892578 120.76611328125 147.61489868164062 120.39791870117188 148.35499572753906 119.40744018554688 C 149.09510803222656 118.41696166992188 149.1319122314453 117.05825805664062 148.87417602539062 115.85055541992188 C 148.83184814453125 115.46871948242188 148.64791870117188 115.11660766601562 148.3586883544922 114.86375427246094 C 148.0493927001953 114.64651489257812 147.5081329345703 114.74594116210938 147.43080139160156 115.11782836914062 L 147.0 115.0" stroke-width="0.6000000238418579" fill="rgb(159, 159, 159)" opacity="1.0"/>
    <path d="M 418.6021728515625 176.84860229492188 C 417.02960205078125 175.75225830078125 415.047119140625 175.17083740234375 413.16259765625 175.51693725585938 C 411.2780456542969 175.863037109375 409.5480651855469 177.22305297851562 409.0027160644531 179.06829833984375 C 408.6187744140625 180.37338256835938 408.8433837890625 181.81051635742188 409.4369812011719 183.035888671875 C 410.0306091308594 184.26123046875 410.96759033203125 185.29278564453125 412.009521484375 186.16964721679688 C 412.46319580078125 186.55096435546875 412.9666748046875 186.91812133789062 413.552490234375 186.99710083007812 C 414.2239990234375 187.08798217773438 414.879638671875 186.78451538085938 415.4766845703125 186.45956420898438 C 417.1622314453125 185.54217529296875 418.771484375 184.33148193359375 419.6593017578125 182.62985229492188 C 420.547119140625 180.92822265625 420.54071044921875 178.65548706054688 419.2508544921875 177.24066162109375 L 418.6021728515625 176.84860229492188" stroke-width="0.6000000238418579" fill="rgb(159, 159, 159)" opacity="1.0"/>
    <path d="M 408.8427734375 184.41189575195312 C 407.7568664550781 182.5914306640625 406.4709777832031 180.61492919921875 404.4251403808594 180.07611083984375 C 402.4363098144531 179.54925537109375 400.39276123046875 180.5518798828125 398.5959777832031 181.55609130859375 C 397.8666687011719 181.96514892578125 397.1102294921875 182.4046630859375 396.661376953125 183.109619140625 C 395.90155029296875 184.30145263671875 396.23419189453125 185.877685546875 396.7942199707031 187.17318725585938 C 397.31353759765625 188.3758544921875 398.0028991699219 189.49771118164062 398.84112548828125 190.50442504882812 C 400.20159912109375 192.1395263671875 402.2549743652344 193.52615356445312 404.3305969238281 193.06466674804688 C 405.4515380859375 192.817138671875 406.4090576171875 192.04998779296875 407.1019592285156 191.132568359375 C 407.7948913574219 190.21514892578125 408.2535095214844 189.144775390625 408.6911926269531 188.0816650390625 C 409.1288757324219 187.0185546875 409.53619384765625 185.96456909179688 409.4997253417969 184.84283447265625 L 408.8427734375 184.41189575195312" stroke-width="0.6000000238418579" fill="rgb(218, 166, 20)" opacity="1.0"/>
    <path d="M 447.642333984375 179.88458251953125 C 445.683837890625 182.90170288085938 446.5419921875 186.93524169921875 449.55908203125 188.89373779296875 C 449.8175048828125 189.06146240234375 450.08740234375 189.21063232421875 450.3668212890625 189.34014892578125 C 451.4288330078125 189.83203125 452.68035888671875 190.02566528320312 453.775146484375 189.6134033203125 C 454.7003173828125 189.26510620117188 455.42236328125 188.52899169921875 456.03375244140625 187.7530517578125 C 457.6676025390625 185.67367553710938 458.71484375 183.19476318359375 459.0667724609375 180.57382202148438 C 459.15869140625 179.880859375 459.19854736328125 179.15951538085938 458.973388671875 178.49615478515625 C 458.5960693359375 177.38232421875 457.522705078125 176.62493896484375 456.398193359375 176.27810668945312 C 454.72894287109375 175.76202392578125 452.87493896484375 176.00570678710938 451.3037109375 176.77069091796875 C 449.732421875 177.53570556640625 448.4306640625 178.78897094726562 447.44598388671875 180.2325439453125 L 447.642333984375 179.88458251953125" stroke-width="0.6000000238418579" fill="rgb(143, 165, 67)" opacity="1.0"/>
    <path d="M 144.77723693847656 109.72210693359375 C 140.9638671875 111.57275390625 140.96372985839844 117.98904418945312 144.6070098876953 120.10153198242188 C 148.25030517578125 122.21401977539062 153.62498474121094 119.32298278808594 154.18545532226562 115.12017822265625 C 154.7459259033203 110.91738891601562 150.75466918945312 106.828369140625 146.5133819580078 106.97831726074219 L 144.77723693847656 109.72210693359375" stroke-width="0.6000000238418579" fill="rgb(233, 92, 21)" opacity="1.0"/>
    <path d="M 448.492919921875 151.17669677734375 C 447.06854248046875 152.94683837890625 445.55072021484375 155.2090301513672 446.42742919921875 157.3134765625 C 446.80889892578125 158.13739013671875 447.4366455078125 158.8226318359375 448.22406005859375 159.274658203125 C 450.14227294921875 160.44549560546875 452.50897216796875 160.61395263671875 454.57366943359375 159.72662353515625 C 456.32318115234375 158.96945190429688 457.64227294921875 157.51956176757812 458.8843994140625 156.08892822265625 C 459.5809326171875 155.28411865234375 460.2952880859375 154.40689086914062 460.43017578125 153.35704040527344 C 460.5986328125 151.95623779296875 459.6868896484375 150.660888671875 458.710693359375 149.64283752441406 C 457.2838134765625 148.151123046875 455.62493896484375 146.90020751953125 453.79840087890625 145.93856811523438 C 453.1666259765625 145.60752868652344 452.4832763671875 145.30343627929688 451.7711181640625 145.33641052246094 C 451.1104736328125 145.40093994140625 450.48284912109375 145.6562957763672 449.96484375 146.0713653564453 C 448.344482421875 147.26925659179688 447.3311767578125 149.11767578125 447.1927490234375 151.1280059814453 L 448.492919921875 151.17669677734375" stroke-width="0.6000000238418579" fill="rgb(70, 150, 179)" opacity="1.0"/>
    <path d="M 376.28033447265625 82.13275146484375 C 375.6934509277344 79.6622314453125 374.939208984375 76.94850158691406 372.80230712890625 75.57984924316406 C 370.5058898925781 74.11099243164062 367.3577880859375 74.80059814453125 365.1562805175781 76.40814208984375 C 364.30718994140625 77.02757263183594 363.52520751953125 77.80709838867188 363.17327880859375 78.79733276367188 C 362.8836975097656 79.61123657226562 362.906005859375 80.49952697753906 362.9793395996094 81.360107421875 C 363.2073059082031 84.07421875 364.00701904296875 86.93597412109375 366.10260009765625 88.67489624023438 C 368.2158203125 90.42601013183594 371.48492431640625 90.62619018554688 373.7894287109375 89.13130187988281 C 376.0939025878906 87.63641357421875 377.2715148925781 84.58460998535156 376.54644775390625 81.93325805664062 L 376.28033447265625 82.13275146484375" stroke-width="0.6000000238418579" fill="rgb(140, 28, 33)" opacity="1.0"/>
    <path d="M 127.08280944824219 410.23358154296875 C 125.00686645507812 410.9830322265625 122.85498046875 411.7857666015625 121.28182983398438 413.3360595703125 C 119.70869445800781 414.8863525390625 118.87704467773438 417.4298095703125 119.93194580078125 419.36981201171875 C 121.23944091796875 421.76165771484375 124.88323974609375 422.029296875 127.08773803710938 420.4176025390625 C 129.292236328125 418.80584716796875 130.25039672851562 415.9609375 130.4888153076172 413.24395751953125 C 130.64688110351562 412.4102783203125 130.4866943359375 411.54766845703125 130.03985595703125 410.82635498046875 C 129.527587890625 410.167236328125 128.3203125 410.02642822265625 127.91604614257812 410.7615051269531 L 127.08280944824219 410.23358154296875" stroke-width="0.6000000238418579" fill="rgb(159, 159, 159)" opacity="1.0"/>
    <path d="M 411.5790710449219 204.53317260742188 C 410.24072265625 202.7025146484375 408.2459716796875 201.29046630859375 406.00457763671875 200.953857421875 C 403.76318359375 200.6171875 401.30523681640625 201.47430419921875 399.9862976074219 203.329345703125 C 399.0554504394531 204.64202880859375 398.75469970703125 206.336181640625 398.94818115234375 207.9351806640625 C 399.1416320800781 209.5341796875 399.79376220703125 211.04818725585938 400.6226806640625 212.42947387695312 C 400.9837951660156 213.03036499023438 401.4060363769531 213.634521484375 402.0310974121094 213.94790649414062 C 402.74755859375 214.30755615234375 403.59765625 214.2198486328125 404.3904724121094 214.08563232421875 C 406.62872314453125 213.7066650390625 408.8941650390625 212.97021484375 410.54107666015625 211.40740966796875 C 412.18798828125 209.8446044921875 413.05389404296875 207.29937744140625 412.1541748046875 205.220947265625 L 411.5790710449219 204.53317260742188" stroke-width="0.6000000238418579" fill="rgb(159, 159, 159)" opacity="1.0"/>
    <path d="M 386.3902587890625 117.53182983398438 C 384.2403869628906 118.2711181640625 381.8827209472656 119.18597412109375 380.8669128417969 121.21488952636719 C 379.8762512207031 123.18661499023438 380.4790344238281 125.5523681640625 381.1377868652344 127.65937805175781 C 381.4066467285156 128.5149383544922 381.7015380859375 129.40570068359375 382.3427734375 130.03196716308594 C 383.4266357421875 131.09182739257812 385.15435791015625 131.08950805664062 386.6374816894531 130.78672790527344 C 388.0141906738281 130.5062255859375 389.3434753417969 130.0294952392578 390.5846862792969 129.37112426757812 C 392.6004333496094 128.3028564453125 394.5077819824219 126.45259094238281 394.4801025390625 124.17225646972656 C 394.4669494628906 122.941162109375 393.8723449707031 121.76724243164062 393.06182861328125 120.8380126953125 C 392.25128173828125 119.90879821777344 391.2286682128906 119.19186401367188 390.20904541015625 118.49847412109375 C 389.1894226074219 117.80509948730469 388.17266845703125 117.1456298828125 386.9872131347656 116.93705749511719 L 386.3902587890625 117.53182983398438" stroke-width="0.6000000238418579" fill="rgb(218, 166, 20)" opacity="1.0"/>
    <path d="M 401.6441650390625 83.8009033203125 C 398.51055908203125 81.20925903320312 393.86932373046875 81.64862060546875 391.2776794433594 84.78225708007812 C 391.0557556152344 85.05056762695312 390.8531494140625 85.33432006835938 390.67138671875 85.63131713867188 C 389.98089599609375 86.760009765625 389.60076904296875 88.14027404785156 389.9214172363281 89.42330932617188 C 390.1922912597656 90.50759887695312 390.925048828125 91.41404724121094 391.71697998046875 92.20158386230469 C 393.8397216796875 94.30670166015625 396.48736572265625 95.8050537109375 399.38494873046875 96.54098510742188 C 400.15118408203125 96.73422241210938 400.9560852050781 96.87283325195312 401.73028564453125 96.70622253417969 C 403.0301513671875 96.42729187011719 404.0202331542969 95.32038879394531 404.5559387207031 94.10256958007812 C 405.3525085449219 92.29512023925781 405.31988525390625 90.18142700195312 404.6650695800781 88.31744384765625 C 404.01025390625 86.4534912109375 402.7720642089844 84.82864379882812 401.2789001464844 83.53520202636719 L 401.6441650390625 83.8009033203125" stroke-width="0.6000000238418579" fill="rgb(143, 165, 67)" opacity="1.0"/>
    <path d="M 116.55252075195312 421.78375244140625 C 114.02742004394531 418.31658935546875 107.6368408203125 419.4637451171875 106.18424987792969 423.47015380859375 C 104.731689453125 427.4765625 108.57218933105469 432.312744140625 112.85836791992188 432.1195068359375 C 117.14453125 431.92620849609375 120.50347900390625 427.21978759765625 119.59576416015625 423.0223388671875 L 116.55252075195312 421.78375244140625" stroke-width="0.6000000238418579" fill="rgb(233, 92, 21)" opacity="1.0"/>
    <path d="M 443.9927978515625 195.72186279296875 C 442.62493896484375 197.47732543945312 441.17303466796875 199.71615600585938 442.06390380859375 201.76385498046875 C 442.45013427734375 202.56494140625 443.075439453125 203.2264404296875 443.85357666015625 203.6571044921875 C 445.75018310546875 204.7744140625 448.0706787109375 204.9031982421875 450.07928466796875 204.00253295898438 C 451.7811279296875 203.23416137695312 453.0509033203125 201.7939453125 454.24554443359375 200.37371826171875 C 454.915283203125 199.57485961914062 455.6015625 198.70474243164062 455.7176513671875 197.67446899414062 C 455.86114501953125 196.2999267578125 454.94830322265625 195.04522705078125 453.9765625 194.0631103515625 C 452.55633544921875 192.62396240234375 450.9124755859375 191.42422485351562 449.10882568359375 190.5103759765625 C 448.4849853515625 190.19583129882812 447.81109619140625 189.90847778320312 447.11407470703125 189.95166015625 C 446.468017578125 190.02496337890625 445.85723876953125 190.28469848632812 445.35626220703125 190.69915771484375 C 443.78759765625 191.89718627929688 442.823486328125 193.7230224609375 442.71875 195.69406127929688 L 443.9927978515625 195.72186279296875" stroke-width="0.6000000238418579" fill="rgb(70, 150, 179)" opacity="1.0"/>
    <path d="M 414.32135009765625 134.94094848632812 C 413.599609375 132.6505889892578 412.703369140625 130.1422119140625 410.59454345703125 128.99671936035156 C 408.32843017578125 127.767578125 405.4059143066406 128.6324005126953 403.4388122558594 130.29859924316406 C 402.6800842285156 130.94068908691406 401.99554443359375 131.72921752929688 401.73101806640625 132.6872100830078 C 401.5132751464844 133.4746551513672 401.5948181152344 134.31100463867188 401.7225646972656 135.1177520751953 C 402.1224060058594 137.66232299804688 403.07159423828125 140.30722045898438 405.1666259765625 141.80477905273438 C 407.2791442871094 143.31265258789062 410.3763732910156 143.2788848876953 412.44830322265625 141.71192932128906 C 414.520263671875 140.1449737548828 415.4232177734375 137.18617248535156 414.55877685546875 134.7346649169922 L 414.32135009765625 134.94094848632812" stroke-width="0.6000000238418579" fill="rgb(140, 28, 33)" opacity="1.0"/>
    <path d="M 403.08734130859375 80.16653442382812 C 403.34002685546875 82.41525268554688 403.62774658203125 84.75238037109375 404.7988586425781 86.6905517578125 C 405.9699401855469 88.62869262695312 408.3081359863281 90.0640869140625 410.49407958984375 89.47441101074219 C 413.1907958984375 88.74050903320312 414.325927734375 85.17068481445312 413.2440185546875 82.58828735351562 C 412.162109375 80.00592041015625 409.553466796875 78.37252807617188 406.90087890625 77.48736572265625 C 406.1072082519531 77.131103515625 405.2088317871094 77.08529663085938 404.383056640625 77.3590087890625 C 403.6037292480469 77.71278381347656 403.1756286621094 78.88311767578125 403.8123474121094 79.46141052246094 L 403.08734130859375 80.16653442382812" stroke-width="0.6000000238418579" fill="rgb(159, 159, 159)" opacity="1.0"/>
    <path d="M 440.599365234375 233.2015380859375 C 439.194580078125 234.92727661132812 438.35040283203125 237.17193603515625 438.58837890625 239.38323974609375 C 438.8262939453125 241.59454345703125 440.25128173828125 243.7144775390625 442.3402099609375 244.5050048828125 C 443.8177490234375 245.06207275390625 445.50067138671875 244.9261474609375 446.9703369140625 244.34478759765625 C 448.44000244140625 243.763427734375 449.71490478515625 242.76785278320312 450.81982421875 241.637451171875 C 451.3004150390625 241.14520263671875 451.7689208984375 240.5941162109375 451.910888671875 239.9228515625 C 452.07403564453125 239.1533203125 451.77935791015625 238.36822509765625 451.4547119140625 237.6490478515625 C 450.538330078125 235.61874389648438 449.2757568359375 233.65151977539062 447.3826904296875 232.47695922851562 C 445.4896240234375 231.3023681640625 442.8582763671875 231.11358642578125 441.10919189453125 232.48455810546875 L 440.599365234375 233.2015380859375" stroke-width="0.6000000238418579" fill="rgb(159, 159, 159)" opacity="1.0"/>
    <path d="M 410.5279846191406 259.1573181152344 C 409.15655517578125 257.4877624511719 407.5598449707031 255.69140625 405.41595458984375 255.45962524414062 C 403.3313293457031 255.23126220703125 401.4242858886719 256.5527038574219 399.7662048339844 257.83819580078125 C 399.0933837890625 258.36138916015625 398.39788818359375 258.9194641113281 398.0527648925781 259.6982421875 C 397.46832275390625 261.01507568359375 398.0433654785156 262.55303955078125 398.804931640625 263.7735290527344 C 399.5113525390625 264.9066162109375 400.3768005371094 265.9324035644531 401.3747863769531 266.8194885253906 C 402.9947509765625 268.26043701171875 405.27520751953125 269.34552001953125 407.29693603515625 268.5645751953125 C 408.3890075683594 268.14459228515625 409.2373046875 267.2257080078125 409.79608154296875 266.1956481933594 C 410.3548278808594 265.16558837890625 410.6542053222656 264.0170593261719 410.93359375 262.87896728515625 C 411.21295166015625 261.7409362792969 411.4631042480469 260.6166687011719 411.25567626953125 259.49169921875 L 410.5279846191406 259.1573181152344" stroke-width="0.6000000238418579" fill="rgb(218, 166, 20)" opacity="1.0"/>
    <path d="M 413.02587890625 85.91094970703125 C 410.9844055175781 89.34651184082031 412.11456298828125 93.78652954101562 415.5501708984375 95.82797241210938 C 415.8443603515625 96.00279235839844 416.1505126953125 96.15650939941406 416.46649169921875 96.28799438476562 C 417.6671142578125 96.787353515625 419.06494140625 96.94723510742188 420.26220703125 96.44140625 C 421.27392578125 96.0140380859375 422.04302978515625 95.16511535644531 422.68768310546875 94.27676391601562 C 424.40997314453125 91.89651489257812 425.4635009765625 89.09854125976562 425.7388916015625 86.1734619140625 C 425.81036376953125 85.40016174316406 425.82293701171875 84.59759521484375 425.5438232421875 83.87112426757812 C 425.075927734375 82.65121459960938 423.85107421875 81.85763549804688 422.58740234375 81.52206420898438 C 420.71160888671875 81.0225830078125 418.6641845703125 81.37466430664062 416.9534912109375 82.29304504394531 C 415.24285888671875 83.21141052246094 413.85284423828125 84.65997314453125 412.8232421875 86.30587768554688 L 413.02587890625 85.91094970703125" stroke-width="0.6000000238418579" fill="rgb(143, 165, 67)" opacity="1.0"/>
    <path d="M 440.580810546875 128.8477020263672 C 438.01220703125 132.75181579589844 441.6312255859375 138.8302001953125 446.274169921875 138.7764129638672 C 450.9171142578125 138.7226104736328 454.3779296875 132.95223999023438 452.538330078125 128.65469360351562 C 450.6986083984375 124.35714721679688 444.6112060546875 122.73480224609375 440.6778564453125 125.2691650390625 L 440.580810546875 128.8477020263672" stroke-width="0.6000000238418579" fill="rgb(233, 92, 21)" opacity="1.0"/>
    <path d="M 443.055419921875 96.599365234375 C 441.9114990234375 98.60009765625 440.752685546875 101.10867309570312 441.9671630859375 103.07656860351562 C 442.48095703125 103.84091186523438 443.21923828125 104.42698669433594 444.08026123046875 104.75393676757812 C 446.18878173828125 105.62019348144531 448.58642578125 105.41072082519531 450.5128173828125 104.19195556640625 C 452.14422607421875 103.15390014648438 453.23382568359375 101.49076843261719 454.24951171875 99.85919189453125 C 454.8184814453125 98.94174194335938 455.39385986328125 97.94888305664062 455.36126708984375 96.87570190429688 C 455.30615234375 95.44561767578125 454.185791015625 94.29379272460938 453.0452880859375 93.43002319335938 C 451.37762451171875 92.163818359375 449.51605224609375 91.1759033203125 447.53271484375 90.50454711914062 C 446.8470458984375 90.27389526367188 446.11395263671875 90.07850646972656 445.40576171875 90.225341796875 C 444.75433349609375 90.39556884765625 444.16650390625 90.75164794921875 443.71392822265625 91.25019836425781 C 442.2822265625 92.70907592773438 441.5626220703125 94.7225341796875 441.74530029296875 96.75836181640625 L 443.055419921875 96.599365234375" stroke-width="0.6000000238418579" fill="rgb(70, 150, 179)" opacity="1.0"/>
    <path d="M 316.7482604980469 384.8813781738281 C 314.2449645996094 385.0666809082031 311.4780578613281 385.3771667480469 309.80706787109375 387.2481384277344 C 308.01324462890625 389.2590637207031 308.1925354003906 392.4397888183594 309.41619873046875 394.8406066894531 C 309.8876037597656 395.7664794921875 310.5257568359375 396.6519775390625 311.4370422363281 397.1507568359375 C 312.1860046386719 397.5610656738281 313.05645751953125 397.6786193847656 313.90789794921875 397.74200439453125 C 316.5926513671875 397.9452209472656 319.5111389160156 397.6135559082031 321.53704833984375 395.8410339355469 C 323.5776062011719 394.0531921386719 324.2857360839844 390.8939208984375 323.18817138671875 388.4102478027344 C 322.09063720703125 385.92657470703125 319.2967529296875 384.2985534667969 316.5953063964844 384.5903625488281 L 316.7482604980469 384.8813781738281" stroke-width="0.6000000238418579" fill="rgb(140, 28, 33)" opacity="1.0"/>
    <path d="M 308.24163818359375 393.9399719238281 C 305.7096862792969 395.2236328125 303.08917236328125 396.5872497558594 301.3251647949219 398.81402587890625 C 299.5611877441406 401.0408020019531 298.9001770019531 404.4185791015625 300.5523376464844 406.7289123535156 C 302.59814453125 409.57623291015625 307.29168701171875 409.3439636230469 309.8519592285156 406.9393310546875 C 312.4122009277344 404.5346984863281 313.1872253417969 400.752197265625 313.0636291503906 397.246337890625 C 313.13409423828125 396.1572265625 312.79376220703125 395.0813293457031 312.1097412109375 394.23089599609375 C 311.3520202636719 393.47021484375 309.7887268066406 393.4806213378906 309.3884582519531 394.4826354980469 L 308.24163818359375 393.9399719238281" stroke-width="0.6000000238418579" fill="rgb(159, 159, 159)" opacity="1.0"/>
    <path d="M 325.6618347167969 407.0268249511719 C 323.4689636230469 408.20538330078125 321.63214111328125 410.1609191894531 320.92730712890625 412.5472412109375 C 320.2225036621094 414.9334716796875 320.782958984375 417.73565673828125 322.60064697265625 419.4501953125 C 323.8873291015625 420.6607666015625 325.6839904785156 421.24383544921875 327.4518737792969 421.275146484375 C 329.2197570800781 421.30645751953125 330.9645690917969 420.826171875 332.591796875 420.1336669921875 C 333.29974365234375 419.83184814453125 334.0205078125 419.4639892578125 334.45574951171875 418.83172607421875 C 334.955078125 418.1070556640625 334.9881896972656 417.16943359375 334.9620666503906 416.287109375 C 334.8883056640625 413.79608154296875 334.42999267578125 411.2214660644531 332.9796142578125 409.1944885253906 C 331.5292053222656 407.16748046875 328.8925476074219 405.84130859375 326.49664306640625 406.50543212890625 L 325.6618347167969 407.0268249511719" stroke-width="0.6000000238418579" fill="rgb(159, 159, 159)" opacity="1.0"/>
    <path d="M 272.7015380859375 410.39788818359375 C 270.7984313964844 411.8630065917969 268.74652099609375 413.573974609375 268.4137268066406 415.94781494140625 C 268.0868225097656 418.25592041015625 269.4880676269531 420.421142578125 270.85809326171875 422.30853271484375 C 271.4158020019531 423.074462890625 272.01141357421875 423.86676025390625 272.8645935058594 424.27752685546875 C 274.30712890625 424.97314453125 276.03607177734375 424.38818359375 277.4188537597656 423.5849609375 C 278.70257568359375 422.83984375 279.8726501464844 421.914306640625 280.893310546875 420.83660888671875 C 282.5511474609375 419.08734130859375 283.8367919921875 416.5916748046875 283.04010009765625 414.3179931640625 C 282.61181640625 413.0899658203125 281.62066650390625 412.1151123046875 280.4958190917969 411.4581604003906 C 279.3709716796875 410.8011779785156 278.10540771484375 410.4282531738281 276.85076904296875 410.0779113769531 C 275.5960998535156 409.7275390625 274.3558044433594 409.41015625 273.0986022949219 409.6011047363281 L 272.7015380859375 410.39788818359375" stroke-width="0.6000000238418579" fill="rgb(218, 166, 20)" opacity="1.0"/>
    <path d="M 223.72802734375 411.0261535644531 C 219.98519897460938 409.8316955566406 215.98272705078125 411.8975830078125 214.78826904296875 415.640380859375 C 214.68600463867188 415.9609375 214.60659790039062 416.28826904296875 214.55062866210938 416.6199951171875 C 214.3382568359375 417.880615234375 214.49468994140625 419.2548828125 215.244384765625 420.28955078125 C 215.8778076171875 421.1640625 216.86126708984375 421.712646484375 217.85491943359375 422.1334228515625 C 220.5162353515625 423.255859375 223.4295654296875 423.645263671875 226.29229736328125 423.26116943359375 C 227.048828125 423.1583251953125 227.8203125 422.99267578125 228.454345703125 422.56439208984375 C 229.5191650390625 421.8460693359375 230.00799560546875 420.4970703125 230.04949951171875 419.21240234375 C 230.11248779296875 417.3050537109375 229.32177734375 415.42193603515625 228.063232421875 413.98681640625 C 226.80474853515625 412.5517578125 225.109375 411.5411682128906 223.30487060546875 410.9195556640625 L 223.72802734375 411.0261535644531" stroke-width="0.6000000238418579" fill="rgb(143, 165, 67)" opacity="1.0"/>
    <path d="M 283.5427551269531 371.0675048828125 C 283.0118713378906 376.09912109375 289.51318359375 380.1476745605469 293.95245361328125 377.7889709472656 C 298.3917236328125 375.43023681640625 298.853515625 368.16015625 294.9486083984375 364.9404602050781 C 291.043701171875 361.7207946777344 284.38214111328125 363.1849670410156 281.8580017089844 367.5771179199219 L 283.5427551269531 371.0675048828125" stroke-width="0.6000000238418579" fill="rgb(233, 92, 21)" opacity="1.0"/>
    <path d="M 335.6221923828125 367.59149169921875 C 334.898193359375 369.923095703125 334.27520751953125 372.7832946777344 335.9826965332031 374.5399169921875 C 336.68939208984375 375.2125244140625 337.58740234375 375.6492614746094 338.5528564453125 375.78985595703125 C 340.9322509765625 376.2020263671875 343.36383056640625 375.43536376953125 345.07647705078125 373.73297119140625 C 346.5256042480469 372.2851257324219 347.27093505859375 370.3151550292969 347.9469909667969 368.394775390625 C 348.32501220703125 367.3153991699219 348.6922912597656 366.15655517578125 348.4123840332031 365.0541687011719 C 348.0272521972656 363.5877990722656 346.6043701171875 362.6535949707031 345.2266540527344 362.02197265625 C 343.2115173339844 361.09503173828125 341.05963134765625 360.5003662109375 338.8544616699219 360.26104736328125 C 338.0923767089844 360.1798095703125 337.2893981933594 360.14593505859375 336.5907287597656 360.4602355957031 C 335.9560241699219 360.7857360839844 335.42974853515625 361.2888488769531 335.0760803222656 361.9082946777344 C 333.9301452636719 363.7454833984375 333.6478271484375 365.992919921875 334.30377197265625 368.05645751953125 L 335.6221923828125 367.59149169921875" stroke-width="0.6000000238418579" fill="rgb(70, 150, 179)" opacity="1.0"/>
    <path d="M 295.50885009765625 409.9336242675781 C 292.94091796875 410.2287292480469 290.10693359375 410.66363525390625 288.4656677246094 412.658447265625 C 286.7038879394531 414.80230712890625 287.02105712890625 418.0675048828125 288.3802795410156 420.4866943359375 C 288.9039306640625 421.419677734375 289.59747314453125 422.30419921875 290.555908203125 422.7794189453125 C 291.3436584472656 423.1702880859375 292.24420166015625 423.2548828125 293.1228942871094 423.28466796875 C 295.89373779296875 423.3817138671875 298.8828125 422.918701171875 300.8933410644531 421.0103759765625 C 302.9183044433594 419.085693359375 303.5151062011719 415.8055419921875 302.2821960449219 413.2958984375 C 301.0492858886719 410.7861633300781 298.1067199707031 409.2276306152344 295.3393249511719 409.6405944824219 L 295.50885009765625 409.9336242675781" stroke-width="0.6000000238418579" fill="rgb(140, 28, 33)" opacity="1.0"/>
    <path d="M 335.32257080078125 390.5313415527344 C 332.5584716796875 391.2534484863281 329.6902160644531 392.03533935546875 327.4801025390625 393.848876953125 C 325.2700500488281 395.66241455078125 323.8990783691406 398.8433532714844 325.0309143066406 401.4681396484375 C 326.4352722167969 404.7050476074219 331.10089111328125 405.478271484375 334.1320495605469 403.65972900390625 C 337.1632080078125 401.8411865234375 338.7326965332031 398.28656005859375 339.3593444824219 394.81219482421875 C 339.66107177734375 393.756103515625 339.55596923828125 392.6253356933594 339.0647277832031 391.6429748535156 C 338.4818420410156 390.7331237792969 336.942138671875 390.40972900390625 336.3346252441406 391.3097839355469 L 335.32257080078125 390.5313415527344" stroke-width="0.6000000238418579" fill="rgb(159, 159, 159)" opacity="1.0"/>
    <path d="M 347.60101318359375 404.9354553222656 C 345.1262512207031 405.1675720214844 342.6771240234375 406.2526550292969 341.1018371582031 408.1737060546875 C 339.52655029296875 410.0947265625 338.9534912109375 412.8897705078125 339.9593200683594 415.1728515625 C 340.6724853515625 416.7861328125 342.0984802246094 418.0203857421875 343.7123718261719 418.7359619140625 C 345.32623291015625 419.4515380859375 347.11761474609375 419.6876220703125 348.8833312988281 419.6827392578125 C 349.6517333984375 419.68017578125 350.45751953125 419.62188720703125 351.1034851074219 419.20941162109375 C 351.8442687988281 418.73681640625 352.23895263671875 417.8873291015625 352.5577087402344 417.065673828125 C 353.4575500488281 414.745849609375 354.0361633300781 412.19970703125 353.4895935058594 409.7719421386719 C 352.9429931640625 407.3441467285156 351.0330505371094 405.10009765625 348.5713806152344 404.7801818847656 L 347.60101318359375 404.9354553222656" stroke-width="0.6000000238418579" fill="rgb(159, 159, 159)" opacity="1.0"/>
    <path d="M 259.5296630859375 374.0555725097656 C 259.04669189453125 371.5937805175781 258.4031982421875 368.8783264160156 256.33905029296875 367.461181640625 C 254.33355712890625 366.08013916015625 251.656494140625 366.38128662109375 249.25372314453125 366.78271484375 C 248.27789306640625 366.9472351074219 247.2596435546875 367.1348876953125 246.47808837890625 367.7410888671875 C 245.15570068359375 368.76556396484375 244.89697265625 370.6544494628906 245.003662109375 372.3214111328125 C 245.10205078125 373.8686828613281 245.42218017578125 375.393798828125 245.9541015625 376.8500671386719 C 246.8170166015625 379.2149963378906 248.55105590820312 381.5796813964844 251.04782104492188 381.89422607421875 C 252.3955078125 382.0660400390625 253.76858520507812 381.5936279296875 254.9068603515625 380.84814453125 C 256.045166015625 380.1026916503906 256.98345947265625 379.0932922363281 257.89556884765625 378.0836181640625 C 258.80767822265625 377.0739440917969 259.6822814941406 376.0622863769531 260.08953857421875 374.7980041503906 L 259.5296630859375 374.0555725097656" stroke-width="0.6000000238418579" fill="rgb(218, 166, 20)" opacity="1.0"/>
    <path d="M 257.32574462890625 394.00286865234375 C 254.18133544921875 391.153564453125 249.32244873046875 391.3927917480469 246.47314453125 394.5372009277344 C 246.22915649414062 394.80645751953125 246.00457763671875 395.0926818847656 245.80108642578125 395.39373779296875 C 245.02813720703125 396.5377502441406 244.56680297851562 397.95867919921875 244.840576171875 399.311279296875 C 245.07183837890625 400.4543151855469 245.79296875 401.43377685546875 246.58135986328125 402.29205322265625 C 248.6949462890625 404.5865478515625 251.38430786132812 406.2732849121094 254.3701171875 407.1770324707031 C 255.1597900390625 407.4145812988281 255.9923095703125 407.5970153808594 256.80718994140625 407.4598388671875 C 258.1753845214844 407.2303466796875 259.2596435546875 406.1231384277344 259.87548828125 404.87890625 C 260.7910461425781 403.0323181152344 260.8566589355469 400.827392578125 260.2619323730469 398.85345458984375 C 259.66717529296875 396.8795471191406 258.4530334472656 395.12738037109375 256.95751953125 393.70867919921875 L 257.32574462890625 394.00286865234375" stroke-width="0.6000000238418579" fill="rgb(143, 165, 67)" opacity="1.0"/>
    <path d="M 206.6669921875 374.69610595703125 C 204.58624267578125 379.2111511230469 209.35968017578125 385.0288391113281 214.23468017578125 384.23370361328125 C 219.10968017578125 383.4385681152344 221.83200073242188 376.8186340332031 219.21337890625 372.5910339355469 C 216.59478759765625 368.3634033203125 209.93380737304688 367.62530517578125 206.1998291015625 370.91668701171875 L 206.6669921875 374.69610595703125" stroke-width="0.6000000238418579" fill="rgb(233, 92, 21)" opacity="1.0"/>
    <path d="M 269.0176696777344 372.79852294921875 C 268.11444091796875 375.076904296875 267.27178955078125 377.8921813964844 268.8464050292969 379.7812194824219 C 269.5022888183594 380.50860595703125 270.36773681640625 381.0145263671875 271.3233337402344 381.22918701171875 C 273.6734619140625 381.823974609375 276.16607666015625 381.2427673339844 278.0107421875 379.6698913574219 C 279.5721130371094 378.3316345214844 280.4690246582031 376.4168395996094 281.2928161621094 374.54638671875 C 281.75384521484375 373.49493408203125 282.210205078125 372.36309814453125 282.01446533203125 371.23822021484375 C 281.74127197265625 369.7409362792969 280.3885498046875 368.6968994140625 279.0578918457031 367.9591369628906 C 277.1117858886719 366.8769836425781 275.00335693359375 366.1169738769531 272.81439208984375 365.70855712890625 C 272.05780029296875 365.5688781738281 271.25665283203125 365.4734802246094 270.5332336425781 365.7345886230469 C 269.8730163574219 366.01177978515625 269.3077087402344 366.47509765625 268.90625 367.0680236816406 C 267.6184997558594 368.8192443847656 267.163818359375 371.0472106933594 267.662353515625 373.1629943847656 L 269.0176696777344 372.79852294921875" stroke-width="0.6000000238418579" fill="rgb(70, 150, 179)" opacity="1.0"/>
    <path d="M 330.1119689941406 368.79083251953125 C 329.8983154296875 366.1445617675781 329.5504150390625 363.2203369140625 327.559814453125 361.46624755859375 C 325.4203186035156 359.5832214355469 322.0574951171875 359.7953186035156 319.5269470214844 361.1064453125 C 318.5510559082031 361.6115417480469 317.6189880371094 362.292724609375 317.097900390625 363.2600402832031 C 316.6692199707031 364.0550842285156 316.5510559082031 364.9765625 316.489990234375 365.87750244140625 C 316.2940368652344 368.71844482421875 316.6654052734375 371.8028259277344 318.55438232421875 373.9329833984375 C 320.4596862792969 376.07855224609375 323.8060607910156 376.8052062988281 326.4251403808594 375.6268615722656 C 329.0442199707031 374.4485168457031 330.7463684082031 371.48211669921875 330.4186706542969 368.62701416015625 L 330.1119689941406 368.79083251953125" stroke-width="0.6000000238418579" fill="rgb(140, 28, 33)" opacity="1.0"/>
    <path d="M 350.5973205566406 389.74688720703125 C 347.9194030761719 390.69158935546875 345.1432800292969 391.7041320800781 343.10467529296875 393.6839294433594 C 341.0661315917969 395.6636962890625 339.97222900390625 398.92828369140625 341.31121826171875 401.4342041015625 C 342.970947265625 404.5238037109375 347.6564636230469 404.90240478515625 350.5079040527344 402.8494873046875 C 353.3593444824219 400.7966003417969 354.61883544921875 397.1454162597656 354.95111083984375 393.6520080566406 C 355.1623229980469 392.5809020996094 354.96435546875 391.4695739746094 354.396240234375 390.5373229980469 C 353.74334716796875 389.68450927734375 352.1914367675781 389.4919738769531 351.6643981933594 390.4339294433594 L 350.5973205566406 389.74688720703125" stroke-width="0.6000000238418579" fill="rgb(159, 159, 159)" opacity="1.0"/>
    <path d="M 187.29415893554688 404.2241516113281 C 184.98773193359375 404.6103820800781 182.76336669921875 405.79522705078125 181.4158935546875 407.705078125 C 180.06842041015625 409.6148986816406 179.72085571289062 412.2767333984375 180.82003784179688 414.35064697265625 C 181.5989990234375 415.81591796875 183.0211181640625 416.8770751953125 184.584228515625 417.438720703125 C 186.1473388671875 418.00042724609375 187.84442138671875 418.10009765625 189.5009765625 417.975341796875 C 190.2218017578125 417.920654296875 190.9739990234375 417.81109619140625 191.55206298828125 417.38006591796875 C 192.21502685546875 416.88623046875 192.52761840820312 416.062255859375 192.77081298828125 415.26947021484375 C 193.45733642578125 413.0313720703125 193.8270263671875 410.60284423828125 193.14892578125 408.36187744140625 C 192.4708251953125 406.12091064453125 190.52587890625 404.1451110839844 188.19415283203125 404.0124206542969 L 187.29415893554688 404.2241516113281" stroke-width="0.6000000238418579" fill="rgb(159, 159, 159)" opacity="1.0"/>
    <path d="M 354.17755126953125 375.3658752441406 C 351.7191162109375 375.5542297363281 348.99456787109375 375.8701171875 347.37396240234375 377.72198486328125 C 345.7953796386719 379.52069091796875 345.781494140625 382.1683654785156 345.8970642089844 384.559814453125 C 345.9454345703125 385.53125 346.01153564453125 386.5467529296875 346.51336669921875 387.3793029785156 C 347.3612976074219 388.7878723144531 349.1752624511719 389.2575988769531 350.81463623046875 389.34515380859375 C 352.3362121582031 389.4269714355469 353.8616638183594 389.2898864746094 355.34429931640625 388.9381103515625 C 357.7518615722656 388.3677673339844 360.2593994140625 386.94708251953125 360.853515625 384.54620361328125 C 361.1761474609375 383.25048828125 360.8729248046875 381.8559265136719 360.2761535644531 380.6591491699219 C 359.6794128417969 379.4623718261719 358.80206298828125 378.430419921875 357.92138671875 377.4240417480469 C 357.0407409667969 376.41766357421875 356.1538391113281 375.4476318359375 354.96661376953125 374.9047546386719 L 354.17755126953125 375.3658752441406" stroke-width="0.6000000238418579" fill="rgb(218, 166, 20)" opacity="1.0"/>
    <path d="M 370.91766357421875 389.6878356933594 C 367.112060546875 391.6296081542969 365.60113525390625 396.28875732421875 367.54290771484375 400.0943298339844 C 367.70916748046875 400.42022705078125 367.8983459472656 400.73388671875 368.1090087890625 401.0329895019531 C 368.9096984863281 402.16937255859375 370.0823669433594 403.111328125 371.4533996582031 403.3369140625 C 372.6119689941406 403.52764892578125 373.7916259765625 403.1988220214844 374.8812255859375 402.76336669921875 C 377.7962341308594 401.5937194824219 380.34490966796875 399.6648864746094 382.262451171875 397.17724609375 C 382.7682189941406 396.5188293457031 383.2373962402344 395.80035400390625 383.3994445800781 394.9842834472656 C 383.67230224609375 393.6143798828125 383.01751708984375 392.1981506347656 382.06634521484375 391.17388916015625 C 380.6552734375 389.6522521972656 378.6032409667969 388.8026428222656 376.53265380859375 388.65716552734375 C 374.46209716796875 388.5116882324219 372.37896728515625 389.02850341796875 370.5091857910156 389.9293518066406 L 370.91766357421875 389.6878356933594" stroke-width="0.6000000238418579" fill="rgb(143, 165, 67)" opacity="1.0"/>
    <path d="M 363.1090087890625 368.771240234375 C 362.8220520019531 373.8481750488281 369.5462646484375 377.5944519042969 373.8872985839844 375.0096740722656 C 378.22833251953125 372.42486572265625 378.3365173339844 365.104248046875 374.25921630859375 362.0630798339844 C 370.181884765625 359.02191162109375 363.5662841796875 360.8173828125 361.2471618652344 365.34979248046875 L 363.1090087890625 368.771240234375" stroke-width="0.6000000238418579" fill="rgb(233, 92, 21)" opacity="1.0"/>
    <path d="M 393.77691650390625 369.54913330078125 C 392.9344482421875 371.82354736328125 392.1639709472656 374.6277770996094 393.7642517089844 376.4613952636719 C 394.4294738769531 377.1662902832031 395.29705810546875 377.6474304199219 396.247314453125 377.8383483886719 C 398.5857849121094 378.3740234375 401.038818359375 377.7430419921875 402.82855224609375 376.1455078125 C 404.3432922363281 374.78643798828125 405.18768310546875 372.8718566894531 405.960693359375 371.0028076171875 C 406.3932189941406 369.95220947265625 406.8193054199219 368.8221740722656 406.60040283203125 367.7136535644531 C 406.2965087890625 366.23846435546875 404.9347229003906 365.2358703613281 403.6016540527344 364.53582763671875 C 401.6519775390625 363.5088806152344 399.5489196777344 362.8042907714844 397.37408447265625 362.4493713378906 C 396.6224060058594 362.32818603515625 395.82763671875 362.2517395019531 395.1177673339844 362.5263366699219 C 394.4707946777344 362.8153991699219 393.9219055175781 363.2864685058594 393.53802490234375 363.8821105957031 C 392.3033142089844 365.64361572265625 391.9034729003906 367.85809326171875 392.4442138671875 369.9401550292969 L 393.77691650390625 369.54913330078125" stroke-width="0.6000000238418579" fill="rgb(70, 150, 179)" opacity="1.0"/>
    <path d="M 387.7598876953125 408.38787841796875 C 386.3682861328125 410.4776611328125 384.9135437011719 412.85247802734375 385.36383056640625 415.32086181640625 C 385.84912109375 417.97216796875 388.4699401855469 419.78466796875 391.11676025390625 420.29376220703125 C 392.1371765136719 420.490478515625 393.22821044921875 420.53076171875 394.1817321777344 420.1177978515625 C 394.9657287597656 419.7786865234375 395.59326171875 419.163818359375 396.1663818359375 418.53070068359375 C 397.97613525390625 416.536376953125 399.5072937011719 414.0289306640625 399.3527526855469 411.3408508300781 C 399.19512939453125 408.6318054199219 397.13641357421875 406.1319580078125 394.5016784667969 405.4725036621094 C 391.866943359375 404.8130187988281 388.865478515625 406.0181884765625 387.43621826171875 408.329833984375 L 387.7598876953125 408.38787841796875" stroke-width="0.6000000238418579" fill="rgb(140, 28, 33)" opacity="1.0"/>
    <path d="M 404.44024658203125 396.9180603027344 C 402.882080078125 399.3162841796875 401.28717041015625 401.8289794921875 400.87493896484375 404.6611328125 C 400.4626770019531 407.4932861328125 401.5933837890625 410.77130126953125 404.2008361816406 411.9501037597656 C 407.42266845703125 413.39794921875 411.3960876464844 410.8238525390625 412.4124755859375 407.4342956542969 C 413.4288330078125 404.0447692871094 412.1929931640625 400.35638427734375 410.313720703125 397.3631896972656 C 409.8247985839844 396.37835693359375 408.9844970703125 395.61260986328125 407.9586181640625 395.217041015625 C 406.9137878417969 394.9369201660156 405.5565185546875 395.7359313964844 405.7139892578125 396.8115539550781 L 404.44024658203125 396.9180603027344" stroke-width="0.6000000238418579" fill="rgb(159, 159, 159)" opacity="1.0"/>
    <path d="M 426.875732421875 371.3097229003906 C 426.6090087890625 373.8246154785156 427.197998046875 376.48565673828125 428.7967529296875 378.44354248046875 C 430.3953857421875 380.40142822265625 433.067626953125 381.5357360839844 435.547119140625 380.9923400878906 C 437.2996826171875 380.6059265136719 438.8177490234375 379.4322509765625 439.85638427734375 377.9667663574219 C 440.89501953125 376.50128173828125 441.4912109375 374.7622375488281 441.84185791015625 373.000244140625 C 441.9940185546875 372.2333984375 442.09808349609375 371.4179992675781 441.8167724609375 370.69073486328125 C 441.49462890625 369.8567810058594 440.7269287109375 369.2920837402344 439.9715576171875 368.8087463378906 C 437.839111328125 367.4441833496094 435.4163818359375 366.3544616699219 432.885009765625 366.4107360839844 C 430.3536376953125 366.467041015625 427.73101806640625 367.9200134277344 426.916259765625 370.3106994628906 L 426.875732421875 371.3097229003906" stroke-width="0.6000000238418579" fill="rgb(159, 159, 159)" opacity="1.0"/>
    <path d="M 417.053955078125 404.1134338378906 C 414.84228515625 404.9405822753906 412.4197998046875 405.9557800292969 411.4213562011719 408.0904541015625 C 410.4474792480469 410.1650695800781 411.13885498046875 412.6046142578125 411.8811950683594 414.77392578125 C 412.18408203125 415.65478515625 412.51495361328125 416.5714111328125 413.197998046875 417.20391845703125 C 414.35272216796875 418.2742919921875 416.146484375 418.2239990234375 417.677978515625 417.8685302734375 C 419.09954833984375 417.53912353515625 420.46649169921875 417.00732421875 421.7369384765625 416.28936767578125 C 423.8001708984375 415.1243896484375 425.729248046875 413.15045166015625 425.63726806640625 410.7836608886719 C 425.5894775390625 409.5058288574219 424.93963623046875 408.3034973144531 424.07232666015625 407.3612060546875 C 423.20501708984375 406.41888427734375 422.1234130859375 405.702880859375 421.0455322265625 405.01123046875 C 419.96771240234375 404.319580078125 418.893798828125 403.6630554199219 417.6572265625 403.4793701171875 L 417.053955078125 404.1134338378906" stroke-width="0.6000000238418579" fill="rgb(218, 166, 20)" opacity="1.0"/>
    <path d="M 143.1476593017578 231.83657836914062 C 140.15756225585938 234.5274658203125 139.91500854492188 239.13287353515625 142.6059112548828 242.12295532226562 C 142.83633422851562 242.37899780273438 143.0846405029297 242.61837768554688 143.34893798828125 242.83929443359375 C 144.35337829589844 243.678466796875 145.64895629882812 244.25045776367188 146.95094299316406 244.12258911132812 C 148.0512237548828 244.0146484375 149.04441833496094 243.42892456054688 149.9298095703125 242.76806640625 C 152.29734802246094 240.99591064453125 154.14720153808594 238.62213134765625 155.28720092773438 235.893310546875 C 155.58731079101562 235.1715087890625 155.83956909179688 234.40396118164062 155.78871154785156 233.62222290039062 C 155.70411682128906 232.309814453125 154.764404296875 231.1805419921875 153.65032958984375 230.47991943359375 C 151.99705505371094 229.43853759765625 149.9239501953125 229.1641845703125 148.00506591796875 229.53488159179688 C 146.08619689941406 229.90557861328125 144.31678771972656 230.88177490234375 142.83473205566406 232.155517578125 L 143.1476593017578 231.83657836914062" stroke-width="0.6000000238418579" fill="rgb(143, 165, 67)" opacity="1.0"/>
    <path d="M 164.31854248046875 266.25897216796875 C 163.94830322265625 271.1161193847656 170.31817626953125 274.83050537109375 174.52444458007812 272.4364318847656 C 178.730712890625 270.0423278808594 178.97186279296875 263.03289794921875 175.12384033203125 260.0435791015625 C 171.27587890625 257.0542297363281 164.90594482421875 258.64959716796875 162.599609375 262.9470520019531 L 164.31854248046875 266.25897216796875" stroke-width="0.6000000238418579" fill="rgb(233, 92, 21)" opacity="1.0"/>
    <path d="M 155.0021209716797 315.622314453125 C 153.60614013671875 317.63177490234375 152.14703369140625 320.1769104003906 153.2482452392578 322.3711853027344 C 153.72047424316406 323.2273864746094 154.4467315673828 323.9159240722656 155.32687377929688 324.34185791015625 C 157.4761962890625 325.45428466796875 160.03134155273438 325.4559326171875 162.18212890625 324.3463134765625 C 164.004150390625 323.400390625 165.31130981445312 321.742919921875 166.53732299804688 320.1119384765625 C 167.22451782226562 319.1946105957031 167.92544555664062 318.1981506347656 167.99090576171875 317.0601501464844 C 168.065673828125 315.5425720214844 166.98809814453125 314.2201232910156 165.86224365234375 313.2004699707031 C 164.21649169921875 311.70611572265625 162.33969116210938 310.48797607421875 160.30465698242188 309.5933532714844 C 159.6009521484375 309.28558349609375 158.84381103515625 309.01068115234375 158.08123779296875 309.1000671386719 C 157.37643432617188 309.21942138671875 156.7215576171875 309.54132080078125 156.196533203125 310.02642822265625 C 154.546630859375 311.43603515625 153.59814453125 313.4984436035156 153.60179138183594 315.6684875488281 L 155.0021209716797 315.622314453125" stroke-width="0.6000000238418579" fill="rgb(70, 150, 179)" opacity="1.0"/>
    <path d="M 127.16400146484375 296.2497863769531 C 126.14891052246094 294.0550842285156 124.93159484863281 291.6650390625 122.67828369140625 290.79193115234375 C 120.25717163085938 289.8554382324219 117.44949340820312 291.0946350097656 115.69894409179688 293.01141357421875 C 115.023681640625 293.7501525878906 114.44129943847656 294.6256408691406 114.30020141601562 295.61639404296875 C 114.18388366699219 296.4307861328125 114.37277221679688 297.255615234375 114.60400390625 298.044921875 C 115.33023071289062 300.5348815917969 116.61798095703125 303.0544738769531 118.90274047851562 304.2809753417969 C 121.20628356933594 305.5155029296875 124.29521179199219 305.0838928222656 126.1632080078125 303.2527770996094 C 128.03118896484375 301.421630859375 128.55291748046875 298.3505859375 127.3746337890625 296.0132751464844 L 127.16400146484375 296.2497863769531" stroke-width="0.6000000238418579" fill="rgb(140, 28, 33)" opacity="1.0"/>
    <path d="M 140.7567901611328 271.537109375 C 138.1543426513672 272.7945251464844 135.460205078125 274.1316223144531 133.6211395263672 276.36407470703125 C 131.7821044921875 278.5964660644531 131.04344177246094 282.0220947265625 132.6802978515625 284.4060974121094 C 134.7073974609375 287.34442138671875 139.48980712890625 287.1993713378906 142.14288330078125 284.8013916015625 C 144.79595947265625 282.4034118652344 145.65858459472656 278.56805419921875 145.60104370117188 274.99676513671875 C 145.69398498535156 273.88946533203125 145.3684844970703 272.78759765625 144.68873596191406 271.9085998535156 C 143.93218994140625 271.1194763183594 142.3406219482422 271.099609375 141.91363525390625 272.1118469238281 L 140.7567901611328 271.537109375" stroke-width="0.6000000238418579" fill="rgb(159, 159, 159)" opacity="1.0"/>
    <path d="M 157.02099609375 294.4828796386719 C 155.48959350585938 296.4122314453125 154.5858612060547 298.9083251953125 154.8794403076172 301.35272216796875 C 155.17300415039062 303.797119140625 156.7791748046875 306.1241760253906 159.10211181640625 306.9707336425781 C 160.74520874023438 307.5671691894531 162.60614013671875 307.39373779296875 164.2249755859375 306.7301940917969 C 165.84375 306.066650390625 167.24136352539062 304.9472351074219 168.448974609375 303.6809387207031 C 168.97418212890625 303.1295471191406 169.48519897460938 302.51318359375 169.63320922851562 301.7682189941406 C 169.80331420898438 300.9142150878906 169.4664306640625 300.0492248535156 169.0972900390625 299.25762939453125 C 168.05517578125 297.0227966308594 166.63088989257812 294.862548828125 164.51947021484375 293.5882873535156 C 162.40798950195312 292.31402587890625 159.49282836914062 292.14093017578125 157.57553100585938 293.68231201171875 L 157.02099609375 294.4828796386719" stroke-width="0.6000000238418579" fill="rgb(159, 159, 159)" opacity="1.0"/>
    <path d="M 127.72489929199219 346.4742736816406 C 126.81027221679688 344.3257141113281 125.70053100585938 341.97711181640625 123.54754638671875 341.0847473144531 C 121.45498657226562 340.2140197753906 119.07528686523438 341.00457763671875 116.96473693847656 341.8335876464844 C 116.10784912109375 342.1716003417969 115.21681213378906 342.5389099121094 114.6220703125 343.24163818359375 C 113.615478515625 344.42962646484375 113.74420166015625 346.1995544433594 114.16287231445312 347.6969299316406 C 114.55093383789062 349.0869140625 115.1365966796875 350.4139404296875 115.90188598632812 351.637451171875 C 117.14378356933594 353.62451171875 119.17892456054688 355.443359375 121.51318359375 355.24822998046875 C 122.77352905273438 355.14471435546875 123.93276977539062 354.44970703125 124.82550048828125 353.5513000488281 C 125.71824645996094 352.6529235839844 126.37799072265625 351.55279541015625 127.01382446289062 350.4574279785156 C 127.64964294433594 349.3620910644531 128.2509307861328 348.27215576171875 128.3779296875 347.0423583984375 L 127.72489929199219 346.4742736816406" stroke-width="0.6000000238418579" fill="rgb(218, 166, 20)" opacity="1.0"/>
    <path d="M 164.39813232421875 345.7516784667969 C 161.37481689453125 348.2920837402344 160.98333740234375 352.8023376464844 163.52374267578125 355.8256530761719 C 163.74127197265625 356.08453369140625 163.9769287109375 356.3276672363281 164.22885131835938 356.55322265625 C 165.18634033203125 357.4100646972656 166.43838500976562 358.014404296875 167.72003173828125 357.9323425292969 C 168.8031005859375 357.8631286621094 169.79705810546875 357.3215637207031 170.687744140625 356.7027282714844 C 173.06964111328125 355.0429382324219 174.96368408203125 352.7756652832031 176.173095703125 350.13641357421875 C 176.49160766601562 349.4382629394531 176.76467895507812 348.693603515625 176.7408447265625 347.9249572753906 C 176.70159912109375 346.6344909667969 175.8172607421875 345.4952697753906 174.74758911132812 344.7707214355469 C 173.1602783203125 343.69390869140625 171.135498046875 343.35565185546875 169.240478515625 343.6553955078125 C 167.34552001953125 343.9551086425781 165.57699584960938 344.8539123535156 164.08050537109375 346.05413818359375 L 164.39813232421875 345.7516784667969" stroke-width="0.6000000238418579" fill="rgb(143, 165, 67)" opacity="1.0"/>
    <path d="M 134.50765991210938 376.0586242675781 C 131.86520385742188 372.11004638671875 124.741455078125 373.09881591796875 122.95756530761719 377.4693908691406 C 121.1737060546875 381.8399963378906 125.21188354492188 387.3616943359375 129.96446228027344 387.336181640625 C 134.717041015625 387.3106689453125 138.64173889160156 382.2491149902344 137.82156372070312 377.56329345703125 L 134.50765991210938 376.0586242675781" stroke-width="0.6000000238418579" fill="rgb(233, 92, 21)" opacity="1.0"/>
    <path d="M 177.310302734375 367.3998718261719 C 176.12933349609375 369.41827392578125 174.92803955078125 371.9518127441406 176.14028930664062 373.96087646484375 C 176.65383911132812 374.74163818359375 177.39700317382812 375.3437805175781 178.26727294921875 375.68426513671875 C 180.39788818359375 376.58465576171875 182.83273315429688 376.396484375 184.79971313476562 375.179443359375 C 186.46560668945312 374.14276123046875 187.58807373046875 372.46636962890625 188.63516235351562 370.8211975097656 C 189.22186279296875 369.8961181640625 189.81573486328125 368.89453125 189.7935791015625 367.8053283691406 C 189.75213623046875 366.3537292480469 188.62713623046875 365.17364501953125 187.4786376953125 364.28564453125 C 185.79946899414062 362.98394775390625 183.92068481445312 361.962646484375 181.9151611328125 361.26129150390625 C 181.22174072265625 361.02032470703125 180.47991943359375 360.8146057128906 179.7598876953125 360.9563903808594 C 179.09716796875 361.12249755859375 178.4970703125 361.4778137207031 178.0328369140625 361.97906494140625 C 176.56536865234375 363.4447326660156 175.81475830078125 365.4803771972656 175.97940063476562 367.5478820800781 L 177.310302734375 367.3998718261719" stroke-width="0.6000000238418579" fill="rgb(70, 150, 179)" opacity="1.0"/>
  </g>
</svg>
