<?xml version="1.0" ?>
<svg xmlns="http://www.w3.org/2000/svg" version="1.1" width="600" height="600">
  <defs/>
  <g>
    <path d="M 353.365478515625 341.0703430175781 C 356.19921875 342.5455017089844 360.0810241699219 339.6614685058594 359.7214050292969 336.50775146484375 C 359.36175537109375 333.35406494140625 355.19677734375 331.4019775390625 352.4022216796875 332.9520568847656 C 349.607666015625 334.5021667480469 348.9279479980469 338.75482177734375 350.9251403808594 341.2533264160156 L 353.365478515625 341.0703430175781" stroke-width="0.6000000238418579" fill="rgb(233, 92, 21)" opacity="1.0"/>
    <path d="M 104.47869873046875 200.79443359375 C 105.81463623046875 199.643798828125 107.29110717773438 198.13076782226562 106.91796875 196.40142822265625 C 106.74269104003906 195.718994140625 106.35997009277344 195.10775756835938 105.82258605957031 194.65206909179688 C 104.5233154296875 193.48876953125 102.74078369140625 193.02740478515625 101.040283203125 193.41424560546875 C 99.5986328125 193.74609375 98.3880615234375 194.6671142578125 97.2388916015625 195.58428955078125 C 96.59417724609375 196.10052490234375 95.9256591796875 196.6695556640625 95.67503356933594 197.4517822265625 C 95.34951782226562 198.4971923828125 95.86320495605469 199.61395263671875 96.46505737304688 200.5281982421875 C 97.34422302246094 201.86727905273438 98.434326171875 203.05523681640625 99.69308471679688 204.04595947265625 C 100.128662109375 204.387451171875 100.60740661621094 204.71560668945312 101.15557861328125 204.79058837890625 C 101.66885375976562 204.83425903320312 102.18374633789062 204.72760009765625 102.637451171875 204.48370361328125 C 104.04251098632812 203.79736328125 105.07577514648438 202.5291748046875 105.46406555175781 201.014404296875 L 104.47869873046875 200.79443359375" stroke-width="0.6000000238418579" fill="rgb(70, 150, 179)" opacity="1.0"/>
    <path d="M 460.09320068359375 430.50946044921875 C 460.85791015625 432.0384521484375 461.769775390625 433.7010498046875 463.3809814453125 434.26934814453125 C 465.112060546875 434.8787841796875 467.0693359375 433.9425048828125 468.2650146484375 432.5501708984375 C 468.7261962890625 432.0135498046875 469.11883544921875 431.38232421875 469.1971435546875 430.6790771484375 C 469.26171875 430.10107421875 469.1104736328125 429.5223388671875 468.929931640625 428.96954345703125 C 468.36297607421875 427.2257080078125 467.3985595703125 425.4730224609375 465.757568359375 424.65570068359375 C 464.10302734375 423.83306884765625 461.9295654296875 424.204833984375 460.64910888671875 425.5391845703125 C 459.36865234375 426.87353515625 459.06634521484375 429.054931640625 459.949462890625 430.68115234375 L 460.09320068359375 430.50946044921875" stroke-width="0.6000000238418579" fill="rgb(140, 28, 33)" opacity="1.0"/>
    <path d="M 91.37008666992188 193.881591796875 C 92.318115234375 193.3375244140625 93.29861450195312 192.760986328125 93.93258666992188 191.86956787109375 C 94.5665283203125 190.97821044921875 94.75341796875 189.66616821289062 94.07209777832031 188.8106689453125 C 93.22871398925781 187.75653076171875 91.42852783203125 187.93936157226562 90.491943359375 188.91500854492188 C 89.55532836914062 189.89065551757812 89.33265686035156 191.360595703125 89.45001220703125 192.70623779296875 C 89.44461059570312 193.12643432617188 89.596923828125 193.53338623046875 89.87687683105469 193.84674072265625 C 90.18341064453125 194.1241455078125 90.78433227539062 194.08905029296875 90.91828918457031 193.69573974609375 L 91.37008666992188 193.881591796875" stroke-width="0.6000000238418579" fill="rgb(159, 159, 159)" opacity="1.0"/>
    <path d="M 378.92681884765625 299.9339904785156 C 380.39801025390625 299.14788818359375 381.6319274902344 297.8406066894531 382.1080322265625 296.24285888671875 C 382.58416748046875 294.6451110839844 382.21319580078125 292.7666931152344 380.9980773925781 291.6149597167969 C 380.137939453125 290.8017578125 378.93505859375 290.40814208984375 377.7505798339844 290.3843078613281 C 376.5660705566406 290.3604431152344 375.396240234375 290.67938232421875 374.3048095703125 291.14080810546875 C 373.8299865722656 291.34185791015625 373.3464660644531 291.587158203125 373.0538024902344 292.0101013183594 C 372.71807861328125 292.4948425292969 372.6943359375 293.12298583984375 372.7104187011719 293.7142333984375 C 372.75579833984375 295.3834228515625 373.0587158203125 297.1092224121094 374.0272216796875 298.4697265625 C 374.9957275390625 299.8302001953125 376.7602233886719 300.72308349609375 378.36663818359375 300.281982421875 L 378.92681884765625 299.9339904785156" stroke-width="0.6000000238418579" fill="rgb(159, 159, 159)" opacity="1.0"/>
    <path d="M 100.5819091796875 431.211181640625 C 101.60845947265625 429.844482421875 102.69033813476562 428.28076171875 102.46710205078125 426.5894775390625 C 102.25234985351562 424.9443359375 100.87954711914062 423.725830078125 99.58099365234375 422.6920166015625 C 99.0528564453125 422.27276611328125 98.49365234375 421.8426513671875 97.83041381835938 421.72314453125 C 96.70878601074219 421.52044677734375 95.63426208496094 422.25042724609375 94.83868408203125 423.0643310546875 C 94.0999755859375 423.8194580078125 93.47352600097656 424.6767578125 92.978515625 425.6099853515625 C 92.17417907714844 427.125 91.76707458496094 429.0810546875 92.74588012695312 430.4888916015625 C 93.273193359375 431.24969482421875 94.13833618164062 431.729736328125 95.03472900390625 431.96636962890625 C 95.93112182617188 432.2030029296875 96.87001037597656 432.2181396484375 97.797119140625 432.21978759765625 C 98.72421264648438 432.221435546875 99.63522338867188 432.2032470703125 100.46112060546875 431.83319091796875 L 100.5819091796875 431.211181640625" stroke-width="0.6000000238418579" fill="rgb(218, 166, 20)" opacity="1.0"/>
    <path d="M 100.91688537597656 139.00051879882812 C 103.79574584960938 139.78463745117188 106.76519775390625 138.08651733398438 107.54931640625 135.2076416015625 C 107.616455078125 134.9611358642578 107.66603088378906 134.7101593017578 107.69766235351562 134.4566192626953 C 107.81765747070312 133.49322509765625 107.65408325195312 132.45556640625 107.051513671875 131.69496154785156 C 106.5423583984375 131.05215454101562 105.77824401855469 130.66796875 105.01057434082031 130.38119506835938 C 102.95465087890625 129.6163787841797 100.7314453125 129.41600036621094 98.5718994140625 129.80087280273438 C 98.00123596191406 129.903564453125 97.4212646484375 130.0544891357422 96.95417785644531 130.40011596679688 C 96.169677734375 130.97991943359375 95.84281921386719 132.0194091796875 95.85324096679688 132.9955596923828 C 95.86772155761719 134.4447784423828 96.52914428710938 135.8477783203125 97.5308837890625 136.8955841064453 C 98.53262329101562 137.94338989257812 99.85195922851562 138.6548309326172 101.24143981933594 139.06759643554688 L 100.91688537597656 139.00051879882812" stroke-width="0.6000000238418579" fill="rgb(143, 165, 67)" opacity="1.0"/>
    <path d="M 455.8399658203125 339.2067565917969 C 458.92529296875 340.9915771484375 463.3951416015625 337.96954345703125 463.1507568359375 334.4365234375 C 462.9063720703125 330.90350341796875 458.36083984375 328.5210266113281 455.1690673828125 330.11016845703125 C 451.977294921875 331.69927978515625 451.0086669921875 336.4056701660156 453.11077880859375 339.2896423339844 L 455.8399658203125 339.2067565917969" stroke-width="0.6000000238418579" fill="rgb(233, 92, 21)" opacity="1.0"/>
    <path d="M 109.78999328613281 215.75119018554688 C 111.31379699707031 214.91632080078125 113.04742431640625 213.76101684570312 113.04269409179688 212.017578125 C 113.01380920410156 211.3238525390625 112.77035522460938 210.65615844726562 112.34591674804688 210.10662841796875 C 111.33236694335938 208.71875 109.70895385742188 207.908203125 107.99050903320312 207.93206787109375 C 106.53286743164062 207.9560546875 105.177001953125 208.5953369140625 103.88113403320312 209.24349975585938 C 103.15377807617188 209.60879516601562 102.39263916015625 210.02005004882812 101.99052429199219 210.72259521484375 C 101.46221923828125 211.66336059570312 101.7281494140625 212.84521484375 102.12063598632812 213.84991455078125 C 102.69317626953125 215.321044921875 103.50009155273438 216.68975830078125 104.510009765625 217.903076171875 C 104.85977172851562 218.32159423828125 105.25386047363281 218.73614501953125 105.76683044433594 218.92092895507812 C 106.25259399414062 219.068359375 106.770751953125 219.07122802734375 107.25811767578125 218.92926025390625 C 108.75326538085938 218.55609130859375 110.00946044921875 217.5457763671875 110.69461059570312 216.16546630859375 L 109.78999328613281 215.75119018554688" stroke-width="0.6000000238418579" fill="rgb(70, 150, 179)" opacity="1.0"/>
    <path d="M 102.78788757324219 77.5518798828125 C 103.74844360351562 79.05123901367188 104.87608337402344 80.67282104492188 106.60745239257812 81.08389282226562 C 108.46760559082031 81.52438354492188 110.39166259765625 80.33891296386719 111.47660827636719 78.76507568359375 C 111.89517211914062 78.158447265625 112.23226928710938 77.46139526367188 112.23590087890625 76.72445678710938 C 112.23910522460938 76.11866760253906 112.01864624023438 75.535888671875 111.77081298828125 74.98324584960938 C 110.99142456054688 73.23953247070312 109.79940795898438 71.530517578125 108.0096435546875 70.86477661132812 C 106.20539855957031 70.19505310058594 103.99520874023438 70.819580078125 102.81600952148438 72.34268188476562 C 101.63681030273438 73.86581420898438 101.56404113769531 76.15850830078125 102.65794372558594 77.74554443359375 L 102.78788757324219 77.5518798828125" stroke-width="0.6000000238418579" fill="rgb(140, 28, 33)" opacity="1.0"/>
    <path d="M 94.76936340332031 427.761962890625 C 95.75984191894531 427.7908935546875 96.79080200195312 427.8101806640625 97.70321655273438 427.42181396484375 C 98.61561584472656 427.033447265625 99.38192749023438 426.108154296875 99.26092529296875 425.1241455078125 C 99.10885620117188 423.9097900390625 97.63111877441406 423.19781494140625 96.44491577148438 423.5078125 C 95.25869750976562 423.81781005859375 94.389892578125 424.84814453125 93.84274291992188 425.943603515625 C 93.639404296875 426.2657470703125 93.564208984375 426.65240478515625 93.63198852539062 427.02728271484375 C 93.73736572265625 427.386962890625 94.2183837890625 427.6446533203125 94.50833129882812 427.4041748046875 L 94.76936340332031 427.761962890625" stroke-width="0.6000000238418579" fill="rgb(159, 159, 159)" opacity="1.0"/>
    <path d="M 467.540283203125 60.95854187011719 C 468.74945068359375 59.595428466796875 469.51788330078125 57.78834533691406 469.39990234375 55.97100830078125 C 469.2818603515625 54.15367126464844 468.18963623046875 52.36993408203125 466.50811767578125 51.6507568359375 C 465.318603515625 51.143768310546875 463.9371337890625 51.19660949707031 462.714599609375 51.62126159667969 C 461.49212646484375 52.04591369628906 460.41455078125 52.816192626953125 459.471435546875 53.702667236328125 C 459.0611572265625 54.08869934082031 458.6588134765625 54.52330017089844 458.5194091796875 55.067535400390625 C 458.3592529296875 55.691436767578125 458.5731201171875 56.343963623046875 458.813720703125 56.943572998046875 C 459.4930419921875 58.63636779785156 460.45770263671875 60.28953552246094 461.9656982421875 61.31610107421875 C 463.4737548828125 62.34266662597656 465.619873046875 62.58837890625 467.098388671875 61.527435302734375 L 467.540283203125 60.95854187011719" stroke-width="0.6000000238418579" fill="rgb(159, 159, 159)" opacity="1.0"/>
    <path d="M 92.2841796875 105.45782470703125 C 93.99066162109375 105.78581237792969 95.90171813964844 106.07647705078125 97.34713745117188 105.11801147460938 C 98.75413513183594 104.18788146972656 99.2547607421875 102.39024353027344 99.61982727050781 100.74281311035156 C 99.76715087890625 100.07333374023438 99.91058349609375 99.37063598632812 99.72383117675781 98.71147155761719 C 99.40863037109375 97.59645080566406 98.26242065429688 96.9405517578125 97.16400146484375 96.57691955566406 C 96.14463806152344 96.239013671875 95.08203125 96.04922485351562 94.00869750976562 96.01336669921875 C 92.26594543457031 95.95449829101562 90.2974853515625 96.45529174804688 89.4481201171875 97.97747802734375 C 88.98838806152344 98.798583984375 88.93585205078125 99.80303955078125 89.11958312988281 100.72746276855469 C 89.30331420898438 101.65188598632812 89.70840454101562 102.51626586914062 90.1204833984375 103.36390686035156 C 90.53256225585938 104.2115478515625 90.95564270019531 105.03559875488281 91.66213989257812 105.62495422363281 L 92.2841796875 105.45782470703125" stroke-width="0.6000000238418579" fill="rgb(218, 166, 20)" opacity="1.0"/>
    <path d="M 116.712646484375 127.4517822265625 C 119.52980041503906 126.46046447753906 121.00993347167969 123.37310791015625 120.01861572265625 120.55596923828125 C 119.93374633789062 120.31472778320312 119.83184814453125 120.079833984375 119.71371459960938 119.85301208496094 C 119.26467895507812 118.99124145507812 118.53985595703125 118.22958374023438 117.61099243164062 117.94577026367188 C 116.8260498046875 117.70587158203125 115.97821044921875 117.823974609375 115.18283081054688 118.02432250976562 C 113.05450439453125 118.56353759765625 111.109375 119.66279602050781 109.54948425292969 121.2078857421875 C 109.13784790039062 121.61700439453125 108.7459716796875 122.07113647460938 108.55780029296875 122.62144470214844 C 108.24136352539062 123.54513549804688 108.56329345703125 124.58721923828125 109.12698364257812 125.38528442382812 C 109.96304321289062 126.57073974609375 111.30570983886719 127.3502197265625 112.7266845703125 127.64358520507812 C 114.14765930175781 127.93695068359375 115.638916015625 127.77264404296875 117.01812744140625 127.32244873046875 L 116.712646484375 127.4517822265625" stroke-width="0.6000000238418579" fill="rgb(143, 165, 67)" opacity="1.0"/>
    <path d="M 387.4742126464844 300.7615661621094 C 390.2320251464844 303.03106689453125 395.1453857421875 300.775390625 395.482177734375 297.2428283691406 C 395.8189697265625 293.71026611328125 391.715576171875 290.6109619140625 388.3002014160156 291.65936279296875 C 384.8848571777344 292.7077331542969 383.1568298339844 297.2016296386719 384.76275634765625 300.396728515625 L 387.4742126464844 300.7615661621094" stroke-width="0.6000000238418579" fill="rgb(233, 92, 21)" opacity="1.0"/>
    <path d="M 122.23252868652344 111.21652221679688 C 123.57945251464844 110.1075439453125 125.0733642578125 108.64315795898438 124.74220275878906 106.92410278320312 C 124.58380126953125 106.2451171875 124.21859741210938 105.63201904296875 123.69697570800781 105.16940307617188 C 122.43716430664062 103.99002075195312 120.68385314941406 103.49441528320312 118.9930419921875 103.83975219726562 C 117.55952453613281 104.13638305664062 116.34165954589844 105.02096557617188 115.18463134765625 105.903076171875 C 114.53549194335938 106.39964294433594 113.86161804199219 106.94790649414062 113.59649658203125 107.71624755859375 C 113.25148010253906 108.74330139160156 113.73513793945312 109.85943603515625 114.31048583984375 110.777099609375 C 115.15081787109375 112.12115478515625 116.20315551757812 113.32034301757812 117.42669677734375 114.32814025878906 C 117.85009765625 114.675537109375 118.31651306152344 115.01069641113281 118.857177734375 115.096923828125 C 119.36398315429688 115.15139770507812 119.87570190429688 115.05722045898438 120.32992553710938 114.82586669921875 C 121.73504638671875 114.177734375 122.78509521484375 112.94583129882812 123.2025146484375 111.45579528808594 L 122.23252868652344 111.21652221679688" stroke-width="0.6000000238418579" fill="rgb(70, 150, 179)" opacity="1.0"/>
    <path d="M 429.9473876953125 71.57476806640625 C 430.947265625 73.08540344238281 432.118896484375 74.71783447265625 433.8863525390625 75.1097412109375 C 435.7852783203125 75.52960205078125 437.72454833984375 74.29452514648438 438.8043212890625 72.67710876464844 C 439.22088623046875 72.05368041992188 439.55322265625 71.3394775390625 439.5457763671875 70.58979797363281 C 439.539794921875 69.9735107421875 439.30670166015625 69.38400268554688 439.0462646484375 68.82559204101562 C 438.2269287109375 67.06365966796875 436.98846435546875 65.34326171875 435.15771484375 64.69317626953125 C 433.312255859375 64.03927612304688 431.07342529296875 64.70806884765625 429.89697265625 66.27534484863281 C 428.7205810546875 67.84260559082031 428.6812744140625 70.17593383789062 429.818115234375 71.77374267578125 L 429.9473876953125 71.57476806640625" stroke-width="0.6000000238418579" fill="rgb(140, 28, 33)" opacity="1.0"/>
    <path d="M 118.18203735351562 417.057861328125 C 118.94541931152344 416.27825927734375 119.73117065429688 415.4586181640625 120.09869384765625 414.43048095703125 C 120.4661865234375 413.40234375 120.29022216796875 412.0911865234375 119.40383911132812 411.4538879394531 C 118.30792236328125 410.6697082519531 116.62796020507812 411.3331298828125 115.99253845214844 412.5242919921875 C 115.35710144042969 413.71539306640625 115.54147338867188 415.18792724609375 116.01889038085938 416.448974609375 C 116.1275634765625 416.8541259765625 116.3841552734375 417.20379638671875 116.738037109375 417.428955078125 C 117.10769653320312 417.6124267578125 117.67550659179688 417.4158935546875 117.6976318359375 417.001708984375 L 118.18203735351562 417.057861328125" stroke-width="0.6000000238418579" fill="rgb(159, 159, 159)" opacity="1.0"/>
    <path d="M 451.72705078125 428.6260986328125 C 452.6531982421875 427.095947265625 453.07525634765625 425.2152099609375 452.6396484375 423.4814453125 C 452.20404052734375 421.7476806640625 450.833740234375 420.2188720703125 449.0828857421875 419.8221435546875 C 447.8447265625 419.543212890625 446.520263671875 419.8387451171875 445.4150390625 420.46514892578125 C 444.3099365234375 421.091552734375 443.4058837890625 422.0260009765625 442.6522216796875 423.048828125 C 442.324462890625 423.494140625 442.012939453125 423.9849853515625 441.974609375 424.53515625 C 441.930419921875 425.1658935546875 442.25238037109375 425.75799560546875 442.5908203125 426.2943115234375 C 443.54638671875 427.8084716796875 444.7703857421875 429.23388671875 446.4080810546875 429.95806884765625 C 448.0457763671875 430.68231201171875 450.161376953125 430.5396728515625 451.401123046875 429.25360107421875 L 451.72705078125 428.6260986328125" stroke-width="0.6000000238418579" fill="rgb(159, 159, 159)" opacity="1.0"/>
    <path d="M 448.9669189453125 285.5316162109375 C 450.189453125 284.2672424316406 451.4935302734375 282.8088684082031 451.4814453125 281.0536193847656 C 451.47210693359375 279.34661865234375 450.22607421875 277.92742919921875 449.0322265625 276.7062072753906 C 448.5465087890625 276.2108154296875 448.030517578125 275.7003173828125 447.36865234375 275.49371337890625 C 446.2493896484375 275.14361572265625 445.0592041015625 275.75177001953125 444.14306640625 276.4811706542969 C 443.29254150390625 277.1578674316406 442.5435791015625 277.95318603515625 441.9190673828125 278.8427734375 C 440.904541015625 280.286865234375 440.23931884765625 282.2319641113281 441.0589599609375 283.794189453125 C 441.500244140625 284.6382141113281 442.322265625 285.23870849609375 443.20721435546875 285.5946960449219 C 444.0921630859375 285.9507141113281 445.048828125 286.0859069824219 445.9951171875 286.2059326171875 C 446.94140625 286.3259582519531 447.87384033203125 286.4236145019531 448.7642822265625 286.15118408203125 L 448.9669189453125 285.5316162109375" stroke-width="0.6000000238418579" fill="rgb(218, 166, 20)" opacity="1.0"/>
    <path d="M 423.536865234375 368.6591796875 C 425.3187255859375 370.8792724609375 428.56298828125 371.2345275878906 430.7830810546875 369.4526672363281 C 430.97320556640625 369.30010986328125 431.1522216796875 369.13421630859375 431.31884765625 368.956298828125 C 431.951904296875 368.2801208496094 432.40777587890625 367.3875732421875 432.369384765625 366.4625549316406 C 432.33709716796875 365.68084716796875 431.962890625 364.9557189941406 431.5313720703125 364.30377197265625 C 430.373779296875 362.5602111816406 428.7703857421875 361.1584167480469 426.887939453125 360.2439880371094 C 426.389892578125 360.0031433105469 425.857666015625 359.79425048828125 425.30328369140625 359.7989807128906 C 424.37261962890625 359.80633544921875 423.5372314453125 360.4252014160156 422.9976806640625 361.1843566894531 C 422.1959228515625 362.3109130859375 421.9193115234375 363.76470947265625 422.1046142578125 365.1352844238281 C 422.2899169921875 366.505859375 422.908935546875 367.7950134277344 423.749755859375 368.89300537109375 L 423.536865234375 368.6591796875" stroke-width="0.6000000238418579" fill="rgb(143, 165, 67)" opacity="1.0"/>
    <path d="M 449.95709228515625 356.1474304199219 C 452.1044921875 353.2216491699219 449.5394287109375 348.36346435546875 445.9364013671875 348.22052001953125 C 442.333251953125 348.0776062011719 439.41961669921875 352.4153137207031 440.675537109375 355.8215637207031 C 441.931396484375 359.2278137207031 446.588134765625 360.7281494140625 449.739501953125 358.91900634765625 L 449.95709228515625 356.1474304199219" stroke-width="0.6000000238418579" fill="rgb(233, 92, 21)" opacity="1.0"/>
    <path d="M 452.21197509765625 83.83151245117188 C 453.4268798828125 82.65219116210938 454.755859375 81.11747741699219 454.29931640625 79.48101806640625 C 454.09234619140625 78.83685302734375 453.6905517578125 78.27276611328125 453.1494140625 77.86663818359375 C 451.83746337890625 76.82571411132812 450.1024169921875 76.48524475097656 448.494384765625 76.95320129394531 C 447.13134765625 77.35365295410156 446.0234375 78.30569458007812 444.9742431640625 79.25054931640625 C 444.3857421875 79.78225708007812 443.77734375 80.36592102050781 443.581787109375 81.13009643554688 C 443.3294677734375 82.15078735351562 443.88568115234375 83.1920166015625 444.51483154296875 84.03402709960938 C 445.43408203125 85.2674560546875 446.54693603515625 86.34396362304688 447.8101806640625 87.2218017578125 C 448.2471923828125 87.52426147460938 448.724853515625 87.81149291992188 449.254638671875 87.85208129882812 C 449.7491455078125 87.8646240234375 450.2366943359375 87.73298645019531 450.65765380859375 87.47323608398438 C 451.96533203125 86.73504638671875 452.8834228515625 85.46035766601562 453.16912841796875 83.98611450195312 L 452.21197509765625 83.83151245117188" stroke-width="0.6000000238418579" fill="rgb(70, 150, 179)" opacity="1.0"/>
    <path d="M 449.52313232421875 392.8220520019531 C 450.4312744140625 391.4413757324219 451.3798828125 389.87286376953125 451.0743408203125 388.2498779296875 C 450.7449951171875 386.506591796875 449.01318359375 385.3233947753906 447.2691650390625 384.99822998046875 C 446.5968017578125 384.8725891113281 445.8785400390625 384.85015869140625 445.25250244140625 385.1254577636719 C 444.73779296875 385.3515930175781 444.3270263671875 385.7586669921875 443.9521484375 386.1775207519531 C 442.7684326171875 387.4969482421875 441.77001953125 389.1530456542969 441.8817138671875 390.9217224121094 C 441.99560546875 392.7042236328125 443.3599853515625 394.3418884277344 445.09661865234375 394.76611328125 C 446.833251953125 395.1903381347656 448.8043212890625 394.3858947753906 449.73638916015625 392.8590393066406 L 449.52313232421875 392.8220520019531" stroke-width="0.6000000238418579" fill="rgb(140, 28, 33)" opacity="1.0"/>
    <path d="M 119.26200866699219 213.5032958984375 C 117.83358764648438 213.1837158203125 116.34371948242188 212.86688232421875 114.91156005859375 213.17440795898438 C 113.47943115234375 213.48193359375 112.10867309570312 214.609130859375 112.00839233398438 216.07025146484375 C 111.88861083984375 217.87408447265625 113.83230590820312 219.32089233398438 115.63961791992188 219.2037353515625 C 117.4468994140625 219.08660888671875 118.99575805664062 217.83575439453125 120.09632873535156 216.4002685546875 C 120.48153686523438 215.99002075195312 120.69895935058594 215.4503173828125 120.7056884765625 214.88763427734375 C 120.65365600585938 214.33642578125 120.02822875976562 213.827880859375 119.54034423828125 214.0953369140625 L 119.26200866699219 213.5032958984375" stroke-width="0.6000000238418579" fill="rgb(159, 159, 159)" opacity="1.0"/>
    <path d="M 112.4322509765625 224.0469970703125 C 110.85545349121094 222.86126708984375 108.83805847167969 222.18994140625 106.88710021972656 222.47613525390625 C 104.93612670898438 222.7623291015625 103.10659790039062 224.0970458984375 102.47743225097656 225.974609375 C 102.03428649902344 227.3026123046875 102.21208190917969 228.78897094726562 102.77723693847656 230.0711669921875 C 103.34239196777344 231.3533935546875 104.26788330078125 232.44891357421875 105.30703735351562 233.38931274414062 C 105.75949096679688 233.79827880859375 106.263671875 234.19451904296875 106.86322021484375 234.29742431640625 C 107.550537109375 234.41574096679688 108.23605346679688 234.12786865234375 108.86212158203125 233.8157958984375 C 110.62960815429688 232.93466186523438 112.32939147949219 231.74908447265625 113.30545043945312 230.03189086914062 C 114.281494140625 228.314697265625 114.35905456542969 225.97705078125 113.0848388671875 224.47421264648438 L 112.4322509765625 224.0469970703125" stroke-width="0.6000000238418579" fill="rgb(159, 159, 159)" opacity="1.0"/>
    <path d="M 301.7577819824219 104.8636474609375 C 300.7579650878906 106.68341064453125 299.7254638671875 108.74951171875 300.2842712402344 110.74502563476562 C 300.8249816894531 112.68646240234375 302.6849670410156 113.916015625 304.4239807128906 114.936279296875 C 305.13104248046875 115.34971618652344 305.8773193359375 115.77095031738281 306.6954040527344 115.80075073242188 C 308.0789794921875 115.85195922851562 309.2457580566406 114.78965759277344 310.0627136230469 113.67436218261719 C 310.8213806152344 112.63948059082031 311.4275207519531 111.50100708007812 311.8625793457031 110.2938232421875 C 312.5697021484375 108.33393859863281 312.7234191894531 105.91183471679688 311.3047180175781 104.386962890625 C 310.53997802734375 103.56259155273438 309.417236328125 103.13388061523438 308.2986755371094 103.00320434570312 C 307.18011474609375 102.87252807617188 306.04852294921875 103.01557922363281 304.9333801269531 103.1727294921875 C 303.8182373046875 103.32989501953125 302.7258605957031 103.50820922851562 301.7962646484375 104.094970703125 L 301.7577819824219 104.8636474609375" stroke-width="0.6000000238418579" fill="rgb(218, 166, 20)" opacity="1.0"/>
    <path d="M 220.4007568359375 127.19139099121094 C 217.4586181640625 125.14790344238281 213.4169921875 125.87640380859375 211.37350463867188 128.8185272216797 C 211.19851684570312 129.07044982910156 211.0416259765625 129.33448791503906 210.90399169921875 129.60862731933594 C 210.38128662109375 130.650390625 210.1495361328125 131.89007568359375 210.5257568359375 132.99264526367188 C 210.8436279296875 133.92442321777344 211.55380249023438 134.66598510742188 212.30712890625 135.29879760742188 C 214.32595825195312 136.98988342285156 216.76077270507812 138.1095733642578 219.358642578125 138.54156494140625 C 220.04550170898438 138.6545867919922 220.76226806640625 138.71681213378906 221.4295654296875 138.5133819580078 C 222.55001831054688 138.17251586914062 223.33734130859375 137.12774658203125 223.7176513671875 136.01918029785156 C 224.28338623046875 134.37374877929688 224.09860229492188 132.52073669433594 223.3861083984375 130.9329071044922 C 222.67364501953125 129.34507751464844 221.46673583984375 128.01023864746094 220.06048583984375 126.98513793945312 L 220.4007568359375 127.19139099121094" stroke-width="0.6000000238418579" fill="rgb(143, 165, 67)" opacity="1.0"/>
    <path d="M 222.995361328125 95.92140197753906 C 221.1898193359375 99.86772155761719 225.37063598632812 104.934814453125 229.62432861328125 104.22906494140625 C 233.87799072265625 103.5233154296875 236.23858642578125 97.73802185058594 233.94259643554688 94.0538330078125 C 231.6466064453125 90.36962890625 225.83023071289062 89.74124145507812 222.57855224609375 92.62332153320312 L 222.995361328125 95.92140197753906" stroke-width="0.6000000238418579" fill="rgb(233, 92, 21)" opacity="1.0"/>
    <path d="M 204.30935668945312 96.53533935546875 C 203.4176025390625 94.6549072265625 202.15737915039062 92.50115966796875 200.07235717773438 92.38491821289062 C 199.24078369140625 92.3709716796875 198.4254150390625 92.61537170410156 197.7386474609375 93.08447265625 C 196.00823974609375 94.19940185546875 194.925537109375 96.08389282226562 194.83392333984375 98.14035034179688 C 194.76068115234375 99.885009765625 195.4302978515625 101.55096435546875 196.11474609375 103.14579772949219 C 196.50067138671875 104.04104614257812 196.939208984375 104.97994995117188 197.75115966796875 105.5098876953125 C 198.83914184570312 106.20736694335938 200.27093505859375 105.97201538085938 201.499755859375 105.57296752929688 C 203.298828125 104.99118041992188 204.99188232421875 104.12203979492188 206.51324462890625 102.99925231933594 C 207.03817749023438 102.61029052734375 207.56143188476562 102.16806030273438 207.8182373046875 101.56759643554688 C 208.02850341796875 100.9970703125 208.06817626953125 100.377685546875 207.93246459960938 99.78498840332031 C 207.59075927734375 97.97109985351562 206.4705810546875 96.39839172363281 204.86795043945312 95.48263549804688 L 204.30935668945312 96.53533935546875" stroke-width="0.6000000238418579" fill="rgb(70, 150, 179)" opacity="1.0"/>
    <path d="M 266.0409240722656 130.20779418945312 C 264.8384704589844 132.0775146484375 263.5841369628906 134.200439453125 264.0176086425781 136.3793182373047 C 264.48468017578125 138.7196502685547 266.8304748535156 140.28726196289062 269.18084716796875 140.70053100585938 C 270.0870056152344 140.86026000976562 271.0534362792969 140.88050842285156 271.8917541503906 140.50152587890625 C 272.5810241699219 140.1902313232422 273.1278991699219 139.6370086669922 273.6263427734375 139.0684356689453 C 275.2003173828125 137.2772979736328 276.52044677734375 135.0358428955078 276.3456726074219 132.6583251953125 C 276.1678466796875 130.2622528076172 274.30999755859375 128.07826232910156 271.96820068359375 127.53164672851562 C 269.6263732910156 126.98501586914062 266.9862365722656 128.0943145751953 265.7535705566406 130.16098022460938 L 266.0409240722656 130.20779418945312" stroke-width="0.6000000238418579" fill="rgb(140, 28, 33)" opacity="1.0"/>
    <path d="M 317.1178894042969 116.02732849121094 C 315.4527282714844 116.75238037109375 313.7280578613281 117.52520751953125 312.51806640625 118.88137817382812 C 311.3081359863281 120.23750305175781 310.759521484375 122.37007141113281 311.7282409667969 123.907470703125 C 312.92822265625 125.80255126953125 315.9345703125 125.82989501953125 317.6597595214844 124.38995361328125 C 319.3849182128906 122.95001220703125 320.0215148925781 120.563232421875 320.0738220214844 118.31950378417969 C 320.1595764160156 117.62655639648438 319.98248291015625 116.92666625976562 319.57745361328125 116.35794067382812 C 319.1219787597656 115.84373474121094 318.1231689453125 115.79185485839844 317.83001708984375 116.41683959960938 L 317.1178894042969 116.02732849121094" stroke-width="0.6000000238418579" fill="rgb(159, 159, 159)" opacity="1.0"/>
    <path d="M 199.4610595703125 129.95535278320312 C 197.88427734375 128.7368621826172 195.8555908203125 128.03207397460938 193.88134765625 128.2952880859375 C 191.9071044921875 128.55848693847656 190.0416259765625 129.88226318359375 189.38128662109375 131.77024841308594 C 188.91607666015625 133.10565185546875 189.075927734375 134.60919189453125 189.6297607421875 135.9116973876953 C 190.18356323242188 137.21420288085938 191.103759765625 138.33297729492188 192.14080810546875 139.29652404785156 C 192.59237670898438 139.715576171875 193.09637451171875 140.1224365234375 193.70053100585938 140.23434448242188 C 194.39312744140625 140.36294555664062 195.08929443359375 140.08131408691406 195.72576904296875 139.77439880371094 C 197.5225830078125 138.90789794921875 199.25506591796875 137.73301696777344 200.263671875 136.0115966796875 C 201.272216796875 134.29019165039062 201.38153076171875 131.9302215576172 200.114501953125 130.39549255371094 L 199.4610595703125 129.95535278320312" stroke-width="0.6000000238418579" fill="rgb(159, 159, 159)" opacity="1.0"/>
    <path d="M 281.2310791015625 105.64602661132812 C 279.2002258300781 106.38873291015625 276.9750061035156 107.30227661132812 276.04644775390625 109.25050354003906 C 275.1407470703125 111.14389038085938 275.7576599121094 113.38253784179688 276.4230041503906 115.37411499023438 C 276.6944885253906 116.18276977539062 276.99139404296875 117.02442932128906 277.61273193359375 117.60816955566406 C 278.66302490234375 118.5960693359375 280.3060302734375 118.56198120117188 281.71087646484375 118.24664306640625 C 283.0149230957031 117.95448303222656 284.270263671875 117.47657775878906 285.4384765625 116.82757568359375 C 287.335693359375 115.77444458007812 289.1153869628906 113.97967529296875 289.0469665527344 111.81161499023438 C 289.0117492675781 110.64111328125 288.42462158203125 109.53570556640625 287.63665771484375 108.6669921875 C 286.84869384765625 107.79827880859375 285.86297607421875 107.13536071777344 284.8805236816406 106.49478149414062 C 283.8980712890625 105.85421752929688 282.9189758300781 105.245849609375 281.78778076171875 105.06936645507812 L 281.2310791015625 105.64602661132812" stroke-width="0.6000000238418579" fill="rgb(218, 166, 20)" opacity="1.0"/>
    <path d="M 242.57537841796875 122.02902221679688 C 240.6134033203125 125.10676574707031 241.5179443359375 129.19224548339844 244.595703125 131.15420532226562 C 244.8592529296875 131.32220458984375 245.13436889648438 131.47129821777344 245.41900634765625 131.60037231445312 C 246.50070190429688 132.09059143066406 247.77215576171875 132.27658081054688 248.87954711914062 131.84910583496094 C 249.81539916992188 131.48794555664062 250.54177856445312 130.7350311279297 251.15570068359375 129.94256591796875 C 252.79608154296875 127.81904602050781 253.83795166015625 125.2950439453125 254.173095703125 122.63273620605469 C 254.260498046875 121.92886352539062 254.294921875 121.19659423828125 254.06094360351562 120.52542114257812 C 253.66876220703125 119.39842224121094 252.5733642578125 118.638916015625 251.42938232421875 118.29641723632812 C 249.73138427734375 117.78672790527344 247.85223388671875 118.04949951171875 246.26437377929688 118.8388671875 C 244.67648315429688 119.62821960449219 243.3660888671875 120.9107666015625 242.37908935546875 122.38375854492188 L 242.57537841796875 122.02902221679688" stroke-width="0.6000000238418579" fill="rgb(143, 165, 67)" opacity="1.0"/>
    <path d="M 248.78164672851562 94.64382934570312 C 247.25509643554688 98.71078491210938 251.78460693359375 103.47767639160156 255.98260498046875 102.47509765625 C 260.1805725097656 101.47251892089844 262.1325988769531 95.53042602539062 259.5820007324219 92.01242065429688 C 257.0314025878906 88.49441528320312 251.1795654296875 88.27423095703125 248.13446044921875 91.37979125976562 L 248.78164672851562 94.64382934570312" stroke-width="0.6000000238418579" fill="rgb(233, 92, 21)" opacity="1.0"/>
    <path d="M 338.52154541015625 86.37106323242188 C 336.44561767578125 85.83453369140625 333.91021728515625 85.408935546875 332.44146728515625 86.98104858398438 C 331.8813171386719 87.62942504882812 331.5361633300781 88.43565368652344 331.4536437988281 89.28851318359375 C 331.1926574707031 91.3931884765625 331.968017578125 93.49380493164062 333.5338134765625 94.92422485351562 C 334.8651428222656 96.13421630859375 336.624755859375 96.70475769042969 338.33795166015625 97.21662902832031 C 339.30078125 97.50260925292969 340.3328552246094 97.77578735351562 341.2880859375 97.483642578125 C 342.55810546875 97.08381652832031 343.3174743652344 95.796142578125 343.8133239746094 94.56086730957031 C 344.541259765625 92.75393676757812 344.971923828125 90.84111022949219 345.088623046875 88.89657592773438 C 345.1276550292969 88.224609375 345.12347412109375 87.518798828125 344.8182067871094 86.919189453125 C 344.5058288574219 86.37619018554688 344.042236328125 85.935791015625 343.48388671875 85.6517333984375 C 341.8238220214844 84.72415161132812 339.84039306640625 84.57150268554688 338.05792236328125 85.23416137695312 L 338.52154541015625 86.37106323242188" stroke-width="0.6000000238418579" fill="rgb(70, 150, 179)" opacity="1.0"/>
    <path d="M 335.13531494140625 121.04437255859375 C 334.3415832519531 119.06787109375 333.37884521484375 116.910400390625 331.4361572265625 116.04046630859375 C 329.3487243652344 115.10723876953125 326.8229064941406 116.07034301757812 325.1963195800781 117.67733764648438 C 324.5689392089844 118.29664611816406 324.0170593261719 119.04043579101562 323.8481140136719 119.90557861328125 C 323.708984375 120.61672973632812 323.8378601074219 121.350830078125 324.0055847167969 122.05560302734375 C 324.5318298339844 124.27877807617188 325.5506896972656 126.55337524414062 327.50506591796875 127.735595703125 C 329.4755859375 128.9257354736328 332.2123107910156 128.6857147216797 333.9383239746094 127.15939331054688 C 335.664306640625 125.633056640625 336.2621154785156 122.95516967773438 335.3312683105469 120.84584045410156 L 335.13531494140625 121.04437255859375" stroke-width="0.6000000238418579" fill="rgb(140, 28, 33)" opacity="1.0"/>
    <path d="M 356.8055114746094 105.75393676757812 C 355.53173828125 106.05921936035156 354.2096862792969 106.39093017578125 353.1797180175781 107.20166015625 C 352.1497497558594 108.01239013671875 351.49169921875 109.45773315429688 351.986083984375 110.67144775390625 C 352.5997009277344 112.16830444335938 354.7311706542969 112.566162109375 356.1375732421875 111.76080322265625 C 357.5439453125 110.95541381835938 358.2964782714844 109.34060668945312 358.6160583496094 107.75381469726562 C 358.76422119140625 107.27253723144531 358.7265625 106.75321960449219 358.5105285644531 106.29833984375 C 358.2518005371094 105.8758544921875 357.5490417480469 105.71328735351562 357.2621765136719 106.12020874023438 L 356.8055114746094 105.75393676757812" stroke-width="0.6000000238418579" fill="rgb(159, 159, 159)" opacity="1.0"/>
    <path d="M 351.14288330078125 121.86196899414062 C 349.0267333984375 122.41041564941406 347.0523986816406 123.69583129882812 345.9539489746094 125.58456420898438 C 344.8554992675781 127.47328186035156 344.7497253417969 129.98040771484375 345.94305419921875 131.82168579101562 C 346.7883605957031 133.12242126464844 348.19952392578125 133.99417114257812 349.7010498046875 134.3892364501953 C 351.2026062011719 134.78431701660156 352.7910461425781 134.7382049560547 354.32342529296875 134.48646545410156 C 354.9902038574219 134.37652587890625 355.6816711425781 134.2129364013672 356.1846923828125 133.76426696777344 C 356.7616271972656 133.25013732910156 356.9852600097656 132.4572296142578 357.1468200683594 131.69912719726562 C 357.6029357910156 129.55882263183594 357.7484130859375 127.26708984375 356.93353271484375 125.23580932617188 C 356.11865234375 123.20449829101562 354.14581298828125 121.52383422851562 351.963623046875 121.59115600585938 L 351.14288330078125 121.86196899414062" stroke-width="0.6000000238418579" fill="rgb(159, 159, 159)" opacity="1.0"/>
    <path d="M 364.9489440917969 109.11212158203125 C 362.9407958984375 109.41705322265625 360.72186279296875 109.84300231933594 359.5036315917969 111.46331787109375 C 358.31671142578125 113.03741455078125 358.467041015625 115.21337890625 358.70806884765625 117.17094421386719 C 358.8071594238281 117.96603393554688 358.9234924316406 118.79623413085938 359.3865966796875 119.44952392578125 C 360.16925048828125 120.55488586425781 361.6881408691406 120.8299560546875 363.0402526855469 120.80172729492188 C 364.2952575683594 120.7760009765625 365.5400695800781 120.5701904296875 366.736572265625 120.19062805175781 C 368.6795654296875 119.57501220703125 370.6527404785156 118.25471496582031 370.9941711425781 116.24604797363281 C 371.1800537109375 115.16191101074219 370.84576416015625 114.03475952148438 370.28240966796875 113.08805847167969 C 369.71905517578125 112.14134216308594 368.93524169921875 111.34719848632812 368.1502990722656 110.57423400878906 C 367.3653259277344 109.80126953125 366.5774841308594 109.05856323242188 365.5690002441406 108.68511962890625 L 364.9489440917969 109.11212158203125" stroke-width="0.6000000238418579" fill="rgb(218, 166, 20)" opacity="1.0"/>
    <path d="M 433.3638916015625 158.50799560546875 C 429.9022216796875 158.8896484375 427.4052734375 162.0052490234375 427.78692626953125 165.46694946289062 C 427.819580078125 165.76336669921875 427.873291015625 166.05709838867188 427.947509765625 166.345947265625 C 428.2298583984375 167.443359375 428.85186767578125 168.5 429.8319091796875 169.0677490234375 C 430.66009521484375 169.54766845703125 431.654296875 169.63751220703125 432.610595703125 169.6201171875 C 435.1705322265625 169.57000732421875 437.6702880859375 168.8353271484375 439.8502197265625 167.49252319335938 C 440.4259033203125 167.1365966796875 440.990966796875 166.72433471679688 441.35009765625 166.14898681640625 C 441.95355224609375 165.1834716796875 441.86328125 163.914794921875 441.433837890625 162.859375 C 440.79742431640625 161.29202270507812 439.4783935546875 160.05194091796875 437.94189453125 159.34329223632812 C 436.4053955078125 158.6346435546875 434.668212890625 158.42724609375 432.98272705078125 158.57418823242188 L 433.3638916015625 158.50799560546875" stroke-width="0.6000000238418579" fill="rgb(143, 165, 67)" opacity="1.0"/>
    <path d="M 142.90843200683594 417.2938232421875 C 140.171142578125 420.66168212890625 142.94834899902344 426.61529541015625 147.2432861328125 426.9984130859375 C 151.53823852539062 427.38153076171875 155.27391052246094 422.37255859375 153.97474670410156 418.230224609375 C 152.6755828857422 414.087890625 147.20220947265625 412.021484375 143.3317108154297 413.9964599609375 L 142.90843200683594 417.2938232421875" stroke-width="0.6000000238418579" fill="rgb(233, 92, 21)" opacity="1.0"/>
    <path d="M 436.3961181640625 182.90185546875 C 434.326904296875 183.11285400390625 431.876953125 183.57952880859375 431.0701904296875 185.50439453125 C 430.7789306640625 186.28289794921875 430.7364501953125 187.13262939453125 430.9486083984375 187.936279296875 C 431.41998291015625 189.93893432617188 432.832763671875 191.5888671875 434.739013671875 192.36288452148438 C 436.357666015625 193.01531982421875 438.150634765625 192.9417724609375 439.881591796875 192.83050537109375 C 440.8538818359375 192.76641845703125 441.88482666015625 192.6673583984375 442.65545654296875 192.07989501953125 C 443.67626953125 191.28842163085938 443.933349609375 189.8612060546875 443.968505859375 188.5704345703125 C 444.022216796875 186.68142700195312 443.76983642578125 184.79617309570312 443.22113037109375 182.98779296875 C 443.03033447265625 182.36334228515625 442.788818359375 181.72265625 442.30914306640625 181.27996826171875 C 441.8421630859375 180.89114379882812 441.27203369140625 180.64663696289062 440.66845703125 180.57623291015625 C 438.84576416015625 180.29144287109375 436.98992919921875 180.820556640625 435.59149169921875 182.023681640625 L 436.3961181640625 182.90185546875" stroke-width="0.6000000238418579" fill="rgb(70, 150, 179)" opacity="1.0"/>
    <path d="M 410.17633056640625 159.00900268554688 C 409.405029296875 156.8634033203125 408.4600524902344 154.51756286621094 406.4161071777344 153.51051330566406 C 404.2198181152344 152.43003845214844 401.47991943359375 153.3609161376953 399.6766357421875 155.01596069335938 C 398.9811096191406 155.65377807617188 398.3614807128906 156.427734375 398.146728515625 157.3465576171875 C 397.96990966796875 158.10183715820312 398.078857421875 158.8922119140625 398.23052978515625 159.65277099609375 C 398.70599365234375 162.05169677734375 399.7064208984375 164.5250244140625 401.75054931640625 165.86663818359375 C 403.8116760253906 167.21731567382812 406.7487487792969 167.06826782226562 408.6551818847656 165.50341796875 C 410.5616149902344 163.93853759765625 411.3065185546875 161.097412109375 410.3937683105469 158.8043212890625 L 410.17633056640625 159.00900268554688" stroke-width="0.6000000238418579" fill="rgb(140, 28, 33)" opacity="1.0"/>
    <path d="M 146.7076416015625 115.2923583984375 C 145.73797607421875 115.9915771484375 144.7366943359375 116.7298583984375 144.14804077148438 117.7713623046875 C 143.55941772460938 118.81283569335938 143.50474548339844 120.26126098632812 144.3428192138672 121.11468505859375 C 145.37969970703125 122.16584777832031 147.3172607421875 121.76304626464844 148.22557067871094 120.59561157226562 C 149.13389587402344 119.42816162109375 149.2095947265625 117.80392456054688 148.92947387695312 116.3533935546875 C 148.88775634765625 115.89569091796875 148.6759796142578 115.47026062011719 148.33592224121094 115.16107177734375 C 147.97103881835938 114.89402770996094 147.3213348388672 115.00032043457031 147.2201690673828 115.44332885742188 L 146.7076416015625 115.2923583984375" stroke-width="0.6000000238418579" fill="rgb(159, 159, 159)" opacity="1.0"/>
    <path d="M 417.88885498046875 177.327392578125 C 416.166748046875 176.00457763671875 413.9539794921875 175.24298095703125 411.803466796875 175.53598022460938 C 409.6529846191406 175.8289794921875 407.62432861328125 177.27734375 406.9106750488281 179.33673095703125 C 406.4079895019531 180.79339599609375 406.5868835449219 182.4312744140625 407.1944580078125 183.848876953125 C 407.8020324707031 185.2664794921875 408.80828857421875 186.48269653320312 409.94140625 187.5294189453125 C 410.43475341796875 187.984619140625 410.9852294921875 188.4263916015625 411.6439514160156 188.54644775390625 C 412.3990478515625 188.68438720703125 413.15679931640625 188.37530517578125 413.849365234375 188.03887939453125 C 415.8046875 187.0889892578125 417.6888427734375 185.80328369140625 418.782470703125 183.92431640625 C 419.8760986328125 182.04534912109375 419.98779296875 179.473388671875 418.602294921875 177.80496215820312 L 417.88885498046875 177.327392578125" stroke-width="0.6000000238418579" fill="rgb(159, 159, 159)" opacity="1.0"/>
    <path d="M 407.9317321777344 184.75140380859375 C 406.8891906738281 182.85906982421875 405.64837646484375 180.80078125 403.583251953125 180.180419921875 C 401.57574462890625 179.57427978515625 399.45904541015625 180.524169921875 397.59368896484375 181.48434448242188 C 396.8365173339844 181.87551879882812 396.05059814453125 182.29681396484375 395.5687561035156 182.99920654296875 C 394.75311279296875 184.18673706054688 395.036865234375 185.803955078125 395.56207275390625 187.1431884765625 C 396.049072265625 188.38641357421875 396.7120666503906 189.55328369140625 397.53076171875 190.6080322265625 C 398.8594665527344 192.3211669921875 400.90264892578125 193.805419921875 403.0331115722656 193.4078369140625 C 404.18359375 193.19488525390625 405.1857604980469 192.44683837890625 405.92364501953125 191.53652954101562 C 406.6615295410156 190.626220703125 407.1661071777344 189.55194091796875 407.64910888671875 188.48431396484375 C 408.1321105957031 187.41665649414062 408.5838317871094 186.35723876953125 408.58587646484375 185.21334838867188 L 407.9317321777344 184.75140380859375" stroke-width="0.6000000238418579" fill="rgb(218, 166, 20)" opacity="1.0"/>
    <path d="M 448.22711181640625 179.91864013671875 C 446.4317626953125 183.03610229492188 447.503662109375 187.01870727539062 450.62109375 188.81402587890625 C 450.8880615234375 188.96774291992188 451.16558837890625 189.10235595703125 451.45159912109375 189.216796875 C 452.5384521484375 189.65151977539062 453.798583984375 189.77825927734375 454.8699951171875 189.3082275390625 C 455.77545166015625 188.9111328125 456.457275390625 188.13754272460938 457.026611328125 187.33001708984375 C 458.547607421875 185.1663818359375 459.4615478515625 182.63491821289062 459.6734619140625 179.9986572265625 C 459.728271484375 179.30169677734375 459.729736328125 178.57916259765625 459.46954345703125 177.92868041992188 C 459.033447265625 176.83636474609375 457.921142578125 176.13714599609375 456.779541015625 175.85064697265625 C 455.08502197265625 175.424072265625 453.24639892578125 175.76617431640625 451.7178955078125 176.61383056640625 C 450.189453125 177.46148681640625 448.9560546875 178.782470703125 448.049560546875 180.276611328125 L 448.22711181640625 179.91864013671875" stroke-width="0.6000000238418579" fill="rgb(143, 165, 67)" opacity="1.0"/>
    <path d="M 145.0231170654297 109.62739562988281 C 141.7427978515625 111.26321411132812 141.8024139404297 116.81161499023438 144.97254943847656 118.60443115234375 C 148.1427001953125 120.39726257324219 152.7634735107422 117.84722900390625 153.208984375 114.20771789550781 C 153.65451049804688 110.56819152832031 150.16506958007812 107.06942749023438 146.49888610839844 107.23858642578125 L 145.0231170654297 109.62739562988281" stroke-width="0.6000000238418579" fill="rgb(233, 92, 21)" opacity="1.0"/>
    <path d="M 449.2252197265625 151.33131408691406 C 448.00140380859375 152.9501953125 446.70745849609375 155.01092529296875 447.547119140625 156.8660888671875 C 447.909912109375 157.59136962890625 448.4888916015625 158.1861572265625 449.20416259765625 158.56842041015625 C 450.9483642578125 159.5618896484375 453.06591796875 159.6483154296875 454.88525390625 158.80029296875 C 456.4267578125 158.07696533203125 457.56524658203125 156.746826171875 458.6356201171875 155.4359588623047 C 459.235595703125 154.6986083984375 459.84967041015625 153.89610290527344 459.9417724609375 152.9551544189453 C 460.05426025390625 151.699951171875 459.2052001953125 150.56813049316406 458.30615234375 149.68560791015625 C 456.991943359375 148.39239501953125 455.47705078125 147.32041931152344 453.8203125 146.51126098632812 C 453.247314453125 146.2327880859375 452.6290283203125 145.9797821044922 451.9940185546875 146.02847290039062 C 451.406005859375 146.10394287109375 450.8525390625 146.34890747070312 450.4012451171875 146.7334747314453 C 448.987060546875 147.84677124023438 448.13232421875 149.52442932128906 448.0631103515625 151.322998046875 L 449.2252197265625 151.33131408691406" stroke-width="0.6000000238418579" fill="rgb(70, 150, 179)" opacity="1.0"/>
    <path d="M 376.1579284667969 81.48165893554688 C 375.7201843261719 79.14424133300781 375.1368408203125 76.57176208496094 373.1994934082031 75.19526672363281 C 371.1175231933594 73.71783447265625 368.1416015625 74.22119140625 366.0098571777344 75.62580871582031 C 365.1877136230469 76.16702270507812 364.4211120605469 76.86099243164062 364.0473327636719 77.77145385742188 C 363.73980712890625 78.519775390625 363.720703125 79.35171508789062 363.75054931640625 80.16001892089844 C 363.8415832519531 82.70916748046875 364.4608154296875 85.42213439941406 366.3427734375 87.14314270019531 C 368.24072265625 88.8763427734375 371.28973388671875 89.21078491210938 373.5127258300781 87.91618347167969 C 375.7357482910156 86.62158203125 376.9747314453125 83.81985473632812 376.41583251953125 81.30703735351562 L 376.1579284667969 81.48165893554688" stroke-width="0.6000000238418579" fill="rgb(140, 28, 33)" opacity="1.0"/>
    <path d="M 127.80654907226562 410.858642578125 C 125.56893920898438 411.83203125 123.25131225585938 412.8695068359375 121.62493896484375 414.6910400390625 C 119.99861145019531 416.5125732421875 119.26048278808594 419.3775634765625 120.561279296875 421.44366455078125 C 122.17266845703125 423.990478515625 126.21194458007812 424.02862548828125 128.53054809570312 422.09478759765625 C 130.8491668701172 420.16094970703125 131.7056121826172 416.95440673828125 131.77696228027344 413.9398193359375 C 131.89254760742188 413.0087890625 131.65493774414062 412.068359375 131.11102294921875 411.30401611328125 C 130.49929809570312 410.6129455566406 129.15733337402344 410.5427551269531 128.76315307617188 411.38232421875 L 127.80654907226562 410.858642578125" stroke-width="0.6000000238418579" fill="rgb(159, 159, 159)" opacity="1.0"/>
    <path d="M 411.10955810546875 204.94772338867188 C 409.9718017578125 203.27169799804688 408.2350158691406 201.948974609375 406.2445068359375 201.57861328125 C 404.2539978027344 201.20822143554688 402.0329895019531 201.89682006835938 400.7976989746094 203.51177978515625 C 399.9258117675781 204.6546630859375 399.6045227050781 206.15777587890625 399.7274169921875 207.59124755859375 C 399.8503112792969 209.0247802734375 400.38531494140625 210.396728515625 401.082275390625 211.65570068359375 C 401.38592529296875 212.203369140625 401.74407958984375 212.75588989257812 402.2923278808594 213.05514526367188 C 402.92071533203125 213.39852905273438 403.682373046875 213.34674072265625 404.39434814453125 213.2515869140625 C 406.4043273925781 212.9830322265625 408.4497375488281 212.39617919921875 409.9687194824219 211.05230712890625 C 411.4876708984375 209.70843505859375 412.3399658203125 207.46319580078125 411.6015625 205.57965087890625 L 411.10955810546875 204.94772338867188" stroke-width="0.6000000238418579" fill="rgb(159, 159, 159)" opacity="1.0"/>
    <path d="M 386.5508117675781 118.21340942382812 C 384.5700378417969 118.95016479492188 382.40020751953125 119.85493469238281 381.503173828125 121.763916015625 C 380.6282043457031 123.61920166015625 381.24310302734375 125.80374145507812 381.904052734375 127.74655151367188 C 382.1737060546875 128.535400390625 382.4683837890625 129.35635375976562 383.0787658691406 129.92352294921875 C 384.11053466796875 130.88336181640625 385.716064453125 130.8412322998047 387.08734130859375 130.52552795410156 C 388.3602294921875 130.2329864501953 389.5845031738281 129.75918579101562 390.72271728515625 129.11863708496094 C 392.57122802734375 128.07923889160156 394.3009338378906 126.31564331054688 394.222412109375 124.1971435546875 C 394.18170166015625 123.05339050292969 393.60198974609375 121.97622680664062 392.8272399902344 121.13145446777344 C 392.052490234375 120.28668212890625 391.0856018066406 119.64410400390625 390.1219787597656 119.02334594726562 C 389.15838623046875 118.40257263183594 388.1982727050781 117.81326293945312 387.091796875 117.64686584472656 L 386.5508117675781 118.21340942382812" stroke-width="0.6000000238418579" fill="rgb(218, 166, 20)" opacity="1.0"/>
    <path d="M 401.7774353027344 83.28094482421875 C 398.9635009765625 80.84642028808594 394.7087707519531 81.15399169921875 392.27423095703125 83.96792602539062 C 392.0657653808594 84.20889282226562 391.8746643066406 84.46432495117188 391.70233154296875 84.73233032226562 C 391.0477600097656 85.75082397460938 390.67193603515625 87.00576782226562 390.9391784667969 88.18600463867188 C 391.1649169921875 89.18341064453125 391.81683349609375 90.02752685546875 392.5252990722656 90.76406860351562 C 394.4243469238281 92.73297119140625 396.81597900390625 94.15748596191406 399.4516906738281 94.88961791992188 C 400.1487121582031 95.08197021484375 400.8822021484375 95.22512817382812 401.5938415527344 95.08847045898438 C 402.78863525390625 94.85972595214844 403.71685791015625 93.86726379394531 404.231689453125 92.76409912109375 C 404.99713134765625 91.12684631347656 405.01025390625 89.19256591796875 404.4491271972656 87.47409057617188 C 403.88800048828125 85.75564575195312 402.788330078125 84.24406433105469 401.4486999511719 83.03047180175781 L 401.7774353027344 83.28094482421875" stroke-width="0.6000000238418579" fill="rgb(143, 165, 67)" opacity="1.0"/>
    <path d="M 116.60105895996094 422.261474609375 C 114.47344970703125 419.1851806640625 108.87786865234375 420.04931640625 107.52635192871094 423.51116943359375 C 106.17483520507812 426.9730224609375 109.42007446289062 431.270751953125 113.1607666015625 431.19342041015625 C 116.90147399902344 431.1160888671875 119.92982482910156 427.08453369140625 119.22775268554688 423.40594482421875 L 116.60105895996094 422.261474609375" stroke-width="0.6000000238418579" fill="rgb(233, 92, 21)" opacity="1.0"/>
    <path d="M 444.52093505859375 195.63739013671875 C 443.3504638671875 197.24102783203125 442.11865234375 199.27798461914062 442.97039794921875 201.07882690429688 C 443.3372802734375 201.78228759765625 443.913330078125 202.3546142578125 444.6192626953125 202.71676635742188 C 446.3416748046875 203.65985107421875 448.4144287109375 203.7095947265625 450.1800537109375 202.8502197265625 C 451.676025390625 202.11737060546875 452.76776123046875 200.797607421875 453.793212890625 199.497802734375 C 454.3680419921875 198.76669311523438 454.9554443359375 197.97161865234375 455.03009033203125 197.04974365234375 C 455.1195068359375 195.82009887695312 454.2703857421875 194.7269287109375 453.37646484375 193.87847900390625 C 452.0697021484375 192.63510131835938 450.5703125 191.6114501953125 448.9365234375 190.84716796875 C 448.3714599609375 190.58416748046875 447.76251220703125 190.34686279296875 447.1422119140625 190.4049072265625 C 446.5682373046875 190.4884033203125 446.0308837890625 190.73712158203125 445.5958251953125 191.12066650390625 C 444.230712890625 192.23291015625 443.4222412109375 193.887939453125 443.3841552734375 195.64837646484375 L 444.52093505859375 195.63739013671875" stroke-width="0.6000000238418579" fill="rgb(70, 150, 179)" opacity="1.0"/>
    <path d="M 413.83392333984375 134.83010864257812 C 413.2474365234375 132.70452880859375 412.5081787109375 130.3731231689453 410.6109619140625 129.25216674804688 C 408.5722351074219 128.0492401123047 405.86187744140625 128.7460479736328 404.0016174316406 130.2098388671875 C 403.2841491699219 130.77391052246094 402.6298828125 131.47482299804688 402.3554382324219 132.34512329101562 C 402.1295471191406 133.06048583984375 402.17669677734375 133.8306427001953 402.2672119140625 134.57516479492188 C 402.5498352050781 136.92333984375 403.3332214355469 139.38177490234375 405.2060852050781 140.82534790039062 C 407.0946350097656 142.2789306640625 409.9378356933594 142.3505096435547 411.8909606933594 140.98126220703125 C 413.8441162109375 139.61199951171875 414.77069091796875 136.92686462402344 414.05859375 134.648681640625 L 413.83392333984375 134.83010864257812" stroke-width="0.6000000238418579" fill="rgb(140, 28, 33)" opacity="1.0"/>
    <path d="M 401.9565734863281 78.59385681152344 C 402.326904296875 81.06109619140625 402.7394714355469 83.62431335449219 404.1090087890625 85.71185302734375 C 405.478515625 87.79934692382812 408.11334228515625 89.28521728515625 410.4976501464844 88.546142578125 C 413.4388427734375 87.62728881835938 414.54351806640625 83.64776611328125 413.245849609375 80.8468017578125 C 411.9482727050781 78.04586791992188 409.00738525390625 76.3529052734375 406.0486755371094 75.48612976074219 C 405.15966796875 75.12603759765625 404.1679992675781 75.1123046875 403.2693786621094 75.4476318359375 C 402.4252014160156 75.86929321289062 402.0013732910156 77.17622375488281 402.7265319824219 77.78733825683594 L 401.9565734863281 78.59385681152344" stroke-width="0.6000000238418579" fill="rgb(159, 159, 159)" opacity="1.0"/>
    <path d="M 441.01220703125 233.76422119140625 C 439.777099609375 235.336669921875 439.0538330078125 237.3665771484375 439.30224609375 239.34954833984375 C 439.5506591796875 241.33251953125 440.86407470703125 243.21484375 442.753173828125 243.89239501953125 C 444.08935546875 244.3697509765625 445.5992431640625 244.22128295898438 446.9105224609375 243.67596435546875 C 448.2218017578125 243.130615234375 449.3516845703125 242.2161865234375 450.32666015625 241.18328857421875 C 450.750732421875 240.73358154296875 451.1629638671875 240.23110961914062 451.280029296875 239.62579345703125 C 451.41455078125 238.931884765625 451.1375732421875 238.23114013671875 450.83465576171875 237.590087890625 C 449.9794921875 235.78033447265625 448.814453125 234.03268432617188 447.09521484375 233.00704956054688 C 445.3759765625 231.9814453125 443.00897216796875 231.85296630859375 441.458984375 233.11209106445312 L 441.01220703125 233.76422119140625" stroke-width="0.6000000238418579" fill="rgb(159, 159, 159)" opacity="1.0"/>
    <path d="M 410.05596923828125 259.6421203613281 C 408.8130187988281 258.0550537109375 407.3626708984375 256.3448181152344 405.36798095703125 256.0820617675781 C 403.4284973144531 255.82382202148438 401.6210021972656 257.0149841308594 400.0465087890625 258.17803955078125 C 399.4075927734375 258.6514587402344 398.7467346191406 259.1568908691406 398.40789794921875 259.8758239746094 C 397.83416748046875 261.0914001464844 398.337158203125 262.5384216308594 399.02099609375 263.6933898925781 C 399.6553039550781 264.765625 400.4402770996094 265.7412109375 401.3519287109375 266.5903015136719 C 402.8316345214844 267.96954345703125 404.9351806640625 269.0311584472656 406.8379211425781 268.3466491699219 C 407.8656921386719 267.97857666015625 408.6769104003906 267.1399230957031 409.220458984375 266.1912536621094 C 409.7640075683594 265.2425842285156 410.06817626953125 264.17779541015625 410.3534851074219 263.122314453125 C 410.6387939453125 262.0668640136719 410.8965148925781 261.0236511230469 410.72747802734375 259.9698181152344 L 410.05596923828125 259.6421203613281" stroke-width="0.6000000238418579" fill="rgb(218, 166, 20)" opacity="1.0"/>
    <path d="M 413.715087890625 85.84722900390625 C 411.99200439453125 89.03355407714844 413.17822265625 93.01341247558594 416.364501953125 94.73649597167969 C 416.63739013671875 94.884033203125 416.92034912109375 95.01205444335938 417.2113037109375 95.11955261230469 C 418.3170166015625 95.52783203125 419.5888671875 95.62142944335938 420.6546630859375 95.11944580078125 C 421.5552978515625 94.69532775878906 422.2208251953125 93.8983154296875 422.7720947265625 93.07012939453125 C 424.2447509765625 90.85128784179688 425.096435546875 88.27859497070312 425.23870849609375 85.61929321289062 C 425.275146484375 84.91632080078125 425.257080078125 84.18898010253906 424.9776611328125 83.54122924804688 C 424.50927734375 82.45352172851562 423.370849609375 81.7796630859375 422.21405029296875 81.52203369140625 C 420.49688720703125 81.13836669921875 418.6553955078125 81.53224182128906 417.1397705078125 82.42666625976562 C 415.6241455078125 83.32107543945312 414.418212890625 84.6839599609375 413.5460205078125 86.21234130859375 L 413.715087890625 85.84722900390625" stroke-width="0.6000000238418579" fill="rgb(143, 165, 67)" opacity="1.0"/>
    <path d="M 440.977783203125 129.1314239501953 C 438.81512451171875 132.58245849609375 442.08544921875 137.80844116210938 446.129638671875 137.67201232910156 C 450.1737060546875 137.5355682373047 453.0777587890625 132.4413604736328 451.3919677734375 128.7325897216797 C 449.706298828125 125.02383422851562 444.37127685546875 123.727783203125 440.9932861328125 126.01174926757812 L 440.977783203125 129.1314239501953" stroke-width="0.6000000238418579" fill="rgb(233, 92, 21)" opacity="1.0"/>
    <path d="M 443.83154296875 96.18508911132812 C 442.88427734375 98.02171325683594 441.94329833984375 100.31385803222656 443.107421875 102.02976989746094 C 443.5972900390625 102.69459533691406 444.28143310546875 103.1910400390625 445.0654296875 103.45059204101562 C 446.98779296875 104.14498901367188 449.1275634765625 103.86453247070312 450.80615234375 102.6981201171875 C 452.22747802734375 101.70503234863281 453.13922119140625 100.17294311523438 453.98583984375 98.6719970703125 C 454.4600830078125 97.82807922363281 454.9371337890625 96.91635131835938 454.86639404296875 95.95620727539062 C 454.7615966796875 94.67721557617188 453.71337890625 93.68875122070312 452.658203125 92.9591064453125 C 451.115234375 91.88935852050781 449.4093017578125 91.07640075683594 447.6065673828125 90.5517578125 C 446.9833984375 90.37168884277344 446.319091796875 90.22503662109375 445.6904296875 90.38398742675781 C 445.1134033203125 90.56169128417969 444.6005859375 90.90345764160156 444.21441650390625 91.36758422851562 C 442.9884033203125 92.72993469238281 442.421630859375 94.56153869628906 442.6640625 96.37823486328125 L 443.83154296875 96.18508911132812" stroke-width="0.6000000238418579" fill="rgb(70, 150, 179)" opacity="1.0"/>
    <path d="M 317.9947204589844 383.5710754394531 C 315.52996826171875 383.8831481933594 312.8110656738281 384.3325500488281 311.25579833984375 386.2679138183594 C 309.5863037109375 388.3479309082031 309.9273376464844 391.48260498046875 311.2604675292969 393.7926025390625 C 311.77410888671875 394.6834716796875 312.4504699707031 395.52587890625 313.37689208984375 395.971923828125 C 314.1383056640625 396.33892822265625 315.0047607421875 396.4102783203125 315.8495788574219 396.4291076660156 C 318.51373291015625 396.4916687011719 321.38134765625 396.0135498046875 323.2925109863281 394.1571960449219 C 325.21734619140625 392.28497314453125 325.75457763671875 389.12579345703125 324.54180908203125 386.7274169921875 C 323.32904052734375 384.3290100097656 320.48370361328125 382.8637390136719 317.82855224609375 383.29132080078125 L 317.9947204589844 383.5710754394531" stroke-width="0.6000000238418579" fill="rgb(140, 28, 33)" opacity="1.0"/>
    <path d="M 306.93145751953125 395.2512512207031 C 304.087158203125 396.4069519042969 301.1402282714844 397.6408996582031 299.0387268066406 399.88214111328125 C 296.9372863769531 402.12335205078125 295.9210205078125 405.7043151855469 297.4938049316406 408.3429260253906 C 299.4425354003906 411.5956726074219 304.5219421386719 411.7675476074219 307.4975891113281 409.4062805175781 C 310.4732360839844 407.04498291015625 311.6488037109375 403.0380554199219 311.8309631347656 399.24847412109375 C 312.0048828125 398.0810241699219 311.73486328125 396.8908386230469 311.07415771484375 395.91278076171875 C 310.325927734375 395.0247802734375 308.6401672363281 394.89532470703125 308.1186218261719 395.93927001953125 L 306.93145751953125 395.2512512207031" stroke-width="0.6000000238418579" fill="rgb(159, 159, 159)" opacity="1.0"/>
    <path d="M 325.52294921875 408.0842590332031 C 323.3801574707031 409.2424011230469 321.5875244140625 411.1599426269531 320.9034118652344 413.496337890625 C 320.21929931640625 415.83270263671875 320.7741394042969 418.57305908203125 322.5565185546875 420.246337890625 C 323.81817626953125 421.42779541015625 325.577392578125 421.994140625 327.3071594238281 422.020751953125 C 329.0369567871094 422.0472412109375 330.74298095703125 421.5733642578125 332.3334655761719 420.89202880859375 C 333.0254211425781 420.5950927734375 333.7297668457031 420.23358154296875 334.1541442871094 419.6138916015625 C 334.6410217285156 418.90374755859375 334.6712646484375 417.986328125 334.6436767578125 417.12310791015625 C 334.5657653808594 414.68603515625 334.11138916015625 412.1680908203125 332.68768310546875 410.188232421875 C 331.2639465332031 408.2083740234375 328.68115234375 406.9169006347656 326.3385009765625 407.57220458984375 L 325.52294921875 408.0842590332031" stroke-width="0.6000000238418579" fill="rgb(159, 159, 159)" opacity="1.0"/>
    <path d="M 273.5115051269531 411.40814208984375 C 271.6641540527344 412.9599609375 269.6779479980469 414.764892578125 269.4454345703125 417.16156005859375 C 269.2160339355469 419.49200439453125 270.7149353027344 421.605224609375 272.170654296875 423.4407958984375 C 272.76312255859375 424.1856689453125 273.3948059082031 424.95538330078125 274.26861572265625 425.3311767578125 C 275.7461242675781 425.9676513671875 277.4563293457031 425.306640625 278.8097839355469 424.4412841796875 C 280.0663146972656 423.638671875 281.2010498046875 422.65966796875 282.1793212890625 421.534423828125 C 283.7684020996094 419.70794677734375 284.9519958496094 417.1483154296875 284.0552062988281 414.90045166015625 C 283.57281494140625 413.68621826171875 282.5364074707031 412.750244140625 281.37939453125 412.1390380859375 C 280.2223815917969 411.5277404785156 278.936279296875 411.2075500488281 277.6620788574219 410.9095764160156 C 276.3879089355469 410.6116027832031 275.1295166015625 410.3460998535156 273.8759460449219 410.59149169921875 L 273.5115051269531 411.40814208984375" stroke-width="0.6000000238418579" fill="rgb(218, 166, 20)" opacity="1.0"/>
    <path d="M 223.507568359375 411.6694030761719 C 219.87649536132812 410.5001220703125 215.98504638671875 412.49578857421875 214.8157958984375 416.1268310546875 C 214.71566772460938 416.437744140625 214.63772583007812 416.75537109375 214.58255004882812 417.077392578125 C 214.37310791015625 418.30078125 214.52154541015625 419.63555908203125 215.24676513671875 420.64208984375 C 215.85958862304688 421.4927978515625 216.81307983398438 422.0279541015625 217.77679443359375 422.43896484375 C 220.35794067382812 423.53564453125 223.18563842773438 423.921142578125 225.96615600585938 423.55548095703125 C 226.70098876953125 423.4576416015625 227.45046997070312 423.2987060546875 228.06716918945312 422.88446044921875 C 229.1029052734375 422.189697265625 229.5809326171875 420.88116455078125 229.62454223632812 419.6339111328125 C 229.6905517578125 417.7821044921875 228.9276123046875 415.95172119140625 227.70928955078125 414.55511474609375 C 226.49099731445312 413.15850830078125 224.84747314453125 412.1729736328125 223.09695434570312 411.5648193359375 L 223.507568359375 411.6694030761719" stroke-width="0.6000000238418579" fill="rgb(143, 165, 67)" opacity="1.0"/>
    <path d="M 283.3857727050781 370.1619873046875 C 283.1759033203125 374.87054443359375 289.4493713378906 378.2684326171875 293.4441833496094 375.8248596191406 C 297.4389953613281 373.3812561035156 297.45843505859375 366.5951843261719 293.6459045410156 363.82159423828125 C 289.8333740234375 361.0480041503906 283.72174072265625 362.7851257324219 281.6224060058594 367.011474609375 L 283.3857727050781 370.1619873046875" stroke-width="0.6000000238418579" fill="rgb(233, 92, 21)" opacity="1.0"/>
    <path d="M 334.8034362792969 366.3438720703125 C 334.2505187988281 368.7051086425781 333.8349609375 371.5830383300781 335.6506652832031 373.2030944824219 C 336.3983154296875 373.8196716308594 337.31890869140625 374.1890869140625 338.285400390625 374.26031494140625 C 340.6720275878906 374.5008850097656 343.0271911621094 373.56976318359375 344.6040954589844 371.76220703125 C 345.93780517578125 370.2254638671875 346.537353515625 368.2209777832031 347.07177734375 366.2705383300781 C 347.3702087402344 365.1744384765625 347.6523742675781 364.0003356933594 347.29730224609375 362.92779541015625 C 346.8122863769531 361.5020446777344 345.3365783691406 360.6767883300781 343.9269714355469 360.1481018066406 C 341.86492919921875 359.37176513671875 339.69085693359375 358.934326171875 337.4890441894531 358.8527526855469 C 336.7282409667969 358.8260192871094 335.93023681640625 358.84906005859375 335.2601318359375 359.20977783203125 C 334.65423583984375 359.5770263671875 334.16827392578125 360.1126708984375 333.86151123046875 360.7513427734375 C 332.8556823730469 362.6524963378906 332.73443603515625 364.8992004394531 333.5299072265625 366.8975830078125 L 334.8034362792969 366.3438720703125" stroke-width="0.6000000238418579" fill="rgb(70, 150, 179)" opacity="1.0"/>
    <path d="M 294.9456481933594 410.9419860839844 C 292.3773498535156 411.169189453125 289.5401306152344 411.5289001464844 287.8515319824219 413.47509765625 C 286.038818359375 415.56689453125 286.26983642578125 418.8310546875 287.56201171875 421.27880859375 C 288.059814453125 422.2227783203125 288.7283020019531 423.122802734375 289.67156982421875 423.6217041015625 C 290.44683837890625 424.03204345703125 291.3426208496094 424.139892578125 292.218017578125 424.1925048828125 C 294.9783935546875 424.36163330078125 297.97100830078125 423.97796630859375 300.02557373046875 422.1275634765625 C 302.0950012207031 420.26129150390625 302.7757263183594 417.006103515625 301.6118469238281 414.471435546875 C 300.4479675292969 411.93670654296875 297.55450439453125 410.3058166503906 294.7842712402344 410.6453552246094 L 294.9456481933594 410.9419860839844" stroke-width="0.6000000238418579" fill="rgb(140, 28, 33)" opacity="1.0"/>
    <path d="M 335.01092529296875 389.84051513671875 C 331.9698181152344 390.3763732910156 328.8113098144531 390.9674987792969 326.2714538574219 392.72772216796875 C 323.7316589355469 394.4879455566406 321.9761047363281 397.7947998046875 322.965576171875 400.7216796875 C 324.1950378417969 404.3318786621094 329.15374755859375 405.57354736328125 332.57855224609375 403.8798522949219 C 336.0033874511719 402.1861572265625 338.00555419921875 398.49407958984375 338.98492431640625 394.8059387207031 C 339.4024963378906 393.6946105957031 339.3882751464844 392.4671936035156 338.9450988769531 391.3658447265625 C 338.3968200683594 390.3345947265625 336.7663879394531 389.8513488769531 336.0330810546875 390.7677917480469 L 335.01092529296875 389.84051513671875" stroke-width="0.6000000238418579" fill="rgb(159, 159, 159)" opacity="1.0"/>
    <path d="M 346.75982666015625 406.14691162109375 C 344.3360595703125 406.2896423339844 341.90838623046875 407.26593017578125 340.3054504394531 409.087890625 C 338.7025451660156 410.9098205566406 338.0483703613281 413.6190185546875 338.952880859375 415.88189697265625 C 339.59442138671875 417.48095703125 340.9446716308594 418.73419189453125 342.4959411621094 419.4874267578125 C 344.04718017578125 420.24072265625 345.7879638671875 420.53192138671875 347.5118408203125 420.5870361328125 C 348.2620544433594 420.61053466796875 349.0506896972656 420.5809326171875 349.69525146484375 420.20013427734375 C 350.4344177246094 419.763916015625 350.8485412597656 418.947998046875 351.18756103515625 418.1566162109375 C 352.1446228027344 415.9224853515625 352.7957458496094 413.45654296875 352.3444519042969 411.0679626464844 C 351.89312744140625 408.67938232421875 350.10467529296875 406.4239501953125 347.7123718261719 406.0282287597656 L 346.75982666015625 406.14691162109375" stroke-width="0.6000000238418579" fill="rgb(159, 159, 159)" opacity="1.0"/>
    <path d="M 258.7009582519531 373.09686279296875 C 258.3815002441406 370.5883483886719 257.917724609375 367.8138732910156 255.9375 366.2491760253906 C 254.01382446289062 364.72479248046875 251.30108642578125 364.8468017578125 248.857421875 365.0882568359375 C 247.8648681640625 365.18780517578125 246.828125 365.3077392578125 246.00115966796875 365.8646240234375 C 244.60198974609375 366.8056335449219 244.21417236328125 368.6878662109375 244.2088623046875 370.37158203125 C 244.203369140625 371.93438720703125 244.42227172851562 373.4898376464844 244.85888671875 374.9903869628906 C 245.56698608398438 377.4271240234375 247.1512451171875 379.9224853515625 249.64105224609375 380.4075012207031 C 250.98486328125 380.67132568359375 252.397705078125 380.2889404296875 253.5928955078125 379.6160888671875 C 254.78802490234375 378.9432373046875 255.79989624023438 377.991455078125 256.7854309082031 377.03759765625 C 257.7709655761719 376.083740234375 258.7189025878906 375.1253662109375 259.2138977050781 373.8813781738281 L 258.7009582519531 373.09686279296875" stroke-width="0.6000000238418579" fill="rgb(218, 166, 20)" opacity="1.0"/>
    <path d="M 256.4279479980469 393.4848327636719 C 253.494140625 390.469482421875 248.67138671875 390.40338134765625 245.65606689453125 393.3371887207031 C 245.3978271484375 393.5884094238281 245.15777587890625 393.8576354980469 244.93768310546875 394.1428527832031 C 244.10153198242188 395.2266845703125 243.5565185546875 396.6039123535156 243.74310302734375 397.9593505859375 C 243.90069580078125 399.1048278808594 244.55319213867188 400.1189270019531 245.27984619140625 401.017333984375 C 247.22821044921875 403.41943359375 249.78421020507812 405.2560729980469 252.68231201171875 406.3363952636719 C 253.4488525390625 406.62066650390625 254.26129150390625 406.8530578613281 255.076171875 406.7680969238281 C 256.44427490234375 406.62628173828125 257.586181640625 405.5982971191406 258.2730712890625 404.405517578125 C 259.2940979003906 402.6353759765625 259.4964599609375 400.45770263671875 259.0309753417969 398.46746826171875 C 258.56549072265625 396.4772033691406 257.47332763671875 394.66778564453125 256.0819091796875 393.1707763671875 L 256.4279479980469 393.4848327636719" stroke-width="0.6000000238418579" fill="rgb(143, 165, 67)" opacity="1.0"/>
    <path d="M 205.93771362304688 373.9424743652344 C 204.17153930664062 378.1883544921875 208.78634643554688 383.39984130859375 213.264892578125 382.49517822265625 C 217.743408203125 381.59051513671875 220.02938842773438 375.37664794921875 217.46173095703125 371.55999755859375 C 214.89410400390625 367.7433166503906 208.7113037109375 367.2928771972656 205.37435913085938 370.4652099609375 L 205.93771362304688 373.9424743652344" stroke-width="0.6000000238418579" fill="rgb(233, 92, 21)" opacity="1.0"/>
    <path d="M 269.6115417480469 371.8914794921875 C 268.8771667480469 374.16595458984375 268.23583984375 376.9590148925781 269.8880310058594 378.6973571777344 C 270.57244873046875 379.3635559082031 271.44671630859375 379.80096435546875 272.3902587890625 379.94921875 C 274.7149353027344 380.3788757324219 277.1036682128906 379.65509033203125 278.7989501953125 378.0074462890625 C 280.2334289550781 376.6060791015625 280.9847106933594 374.6858215332031 281.66766357421875 372.8133544921875 C 282.049560546875 371.7608947753906 282.4218444824219 370.63055419921875 282.15997314453125 369.5483093261719 C 281.7991027832031 368.108642578125 280.4164733886719 367.1784973144531 279.07476806640625 366.5450134277344 C 277.1123046875 365.6154479980469 275.0123291015625 365.0096435546875 272.85626220703125 364.7511291503906 C 272.11114501953125 364.6632385253906 271.3254699707031 364.6212158203125 270.6380615234375 364.9212341308594 C 270.01318359375 365.2328796386719 269.49249267578125 365.7196350097656 269.1394348144531 366.32208251953125 C 267.9974670410156 368.10797119140625 267.6963806152344 370.3049011230469 268.3157958984375 372.3321533203125 L 269.6115417480469 371.8914794921875" stroke-width="0.6000000238418579" fill="rgb(70, 150, 179)" opacity="1.0"/>
    <path d="M 329.7967529296875 367.9537658691406 C 329.7486267089844 365.31103515625 329.5843200683594 362.3837890625 327.7151794433594 360.517333984375 C 325.7060852050781 358.5135192871094 322.3514404296875 358.5156555175781 319.7555847167969 359.6614685058594 C 318.7545471191406 360.1028137207031 317.7861633300781 360.72186279296875 317.2083740234375 361.6507263183594 C 316.73309326171875 362.41412353515625 316.5585021972656 363.3224182128906 316.4419250488281 364.2138671875 C 316.07098388671875 367.02459716796875 316.2486572265625 370.11248779296875 317.9934997558594 372.3463134765625 C 319.7536315917969 374.596435546875 323.0336608886719 375.5260925292969 325.709228515625 374.5177001953125 C 328.3847961425781 373.5093078613281 330.26019287109375 370.6673278808594 330.1116638183594 367.80999755859375 L 329.7967529296875 367.9537658691406" stroke-width="0.6000000238418579" fill="rgb(140, 28, 33)" opacity="1.0"/>
    <path d="M 351.0029602050781 389.59881591796875 C 348.0458068847656 390.42840576171875 344.9778747558594 391.3242492675781 342.6372985839844 393.3162841796875 C 340.2967529296875 395.3083190917969 338.88458251953125 398.75396728515625 340.15185546875 401.553466796875 C 341.72393798828125 405.0056457519531 346.75390625 405.74664306640625 349.9769287109375 403.7333679199219 C 353.199951171875 401.7200927734375 354.8182678222656 397.868896484375 355.4247131347656 394.12225341796875 C 355.7286682128906 392.98126220703125 355.5938415527344 391.767822265625 355.0468444824219 390.7214050292969 C 354.4027099609375 389.75469970703125 352.741455078125 389.4367980957031 352.1058654785156 390.416015625 L 351.0029602050781 389.59881591796875" stroke-width="0.6000000238418579" fill="rgb(159, 159, 159)" opacity="1.0"/>
    <path d="M 187.21588134765625 404.8342590332031 C 184.9593505859375 405.2184143066406 182.7852783203125 406.3840637207031 181.47137451171875 408.2569885253906 C 180.15753173828125 410.1299133300781 179.82440185546875 412.73626708984375 180.90576171875 414.7633056640625 C 181.672119140625 416.195556640625 183.06692504882812 417.23046875 184.598388671875 417.77606201171875 C 186.1298828125 418.3216552734375 187.791259765625 418.41473388671875 189.412353515625 418.28826904296875 C 190.1177978515625 418.2327880859375 190.853759765625 418.12353515625 191.41845703125 417.7001953125 C 192.06607055664062 417.21502685546875 192.36981201171875 416.40765380859375 192.60577392578125 415.63104248046875 C 193.27182006835938 413.4385986328125 193.62725830078125 411.06048583984375 192.95758056640625 408.8688049316406 C 192.28790283203125 406.6770935058594 190.37896728515625 404.7483215332031 188.09625244140625 404.6246337890625 L 187.21588134765625 404.8342590332031" stroke-width="0.6000000238418579" fill="rgb(159, 159, 159)" opacity="1.0"/>
    <path d="M 354.59149169921875 375.65216064453125 C 352.04736328125 375.92755126953125 349.23138427734375 376.3439025878906 347.6105041503906 378.317626953125 C 346.031494140625 380.2348937988281 346.1032409667969 382.9819030761719 346.3009338378906 385.45892333984375 C 346.3827209472656 386.4650573730469 346.4843444824219 387.5163269042969 347.0320129394531 388.3636169433594 C 347.9574279785156 389.7972106933594 349.85443115234375 390.2254638671875 351.5578918457031 390.262939453125 C 353.1389465332031 390.2983093261719 354.7169189453125 390.1064758300781 356.2434387207031 389.69329833984375 C 358.7223815917969 389.0233154296875 361.2773132324219 387.4679870605469 361.81549072265625 384.95806884765625 C 362.1080322265625 383.603515625 361.74810791015625 382.1667175292969 361.0901184082031 380.94464111328125 C 360.4320983886719 379.72259521484375 359.4884033203125 378.6806945800781 358.5421142578125 377.6653747558594 C 357.5958251953125 376.6500549316406 356.64422607421875 375.67266845703125 355.39501953125 375.14813232421875 L 354.59149169921875 375.65216064453125" stroke-width="0.6000000238418579" fill="rgb(218, 166, 20)" opacity="1.0"/>
    <path d="M 371.7769775390625 389.05999755859375 C 368.0965881347656 391.20831298828125 366.8546142578125 395.93341064453125 369.0029296875 399.6138000488281 C 369.1868896484375 399.928955078125 369.39300537109375 400.23065185546875 369.6196594238281 400.51666259765625 C 370.4811096191406 401.6031799316406 371.7020568847656 402.4751281738281 373.0801086425781 402.6224670410156 C 374.24468994140625 402.7471008300781 375.4009094238281 402.3531188964844 376.4614562988281 401.8580017089844 C 379.2984619140625 400.52880859375 381.72784423828125 398.4642333984375 383.4972229003906 395.8787536621094 C 383.9637451171875 395.1945495605469 384.3904724121094 394.45257568359375 384.505859375 393.6307373046875 C 384.7003173828125 392.2511291503906 383.9683837890625 390.8776550292969 382.9634094238281 389.9112548828125 C 381.47235107421875 388.4754943847656 379.3808898925781 387.7450866699219 377.3106689453125 387.71697998046875 C 375.2404479980469 387.6888732910156 373.195068359375 388.32098388671875 371.3837890625 389.32354736328125 L 371.7769775390625 389.05999755859375" stroke-width="0.6000000238418579" fill="rgb(143, 165, 67)" opacity="1.0"/>
    <path d="M 363.7498779296875 367.6177062988281 C 363.842041015625 372.3700866699219 370.37481689453125 375.3855895996094 374.2378845214844 372.6689147949219 C 378.1009216308594 369.95220947265625 377.6832275390625 363.1212158203125 373.66748046875 360.575439453125 C 369.6517333984375 358.0296630859375 363.6127014160156 360.1717529296875 361.77215576171875 364.560546875 L 363.7498779296875 367.6177062988281" stroke-width="0.6000000238418579" fill="rgb(233, 92, 21)" opacity="1.0"/>
    <path d="M 394.6783752441406 368.64434814453125 C 394.0000305175781 370.87945556640625 393.4215087890625 373.61968994140625 395.0658874511719 375.289794921875 C 395.7461242675781 375.928955078125 396.6079406738281 376.34130859375 397.532470703125 376.4698791503906 C 399.8114013671875 376.8496398925781 402.13299560546875 376.1012268066406 403.7611083984375 374.4620056152344 C 405.13861083984375 373.0679626464844 405.8396301269531 371.1786804199219 406.4746398925781 369.3372802734375 C 406.8296813964844 368.30230712890625 407.1739501953125 367.1913757324219 406.8994140625 366.1383972167969 C 406.52197265625 364.7378845214844 405.1549377441406 363.85284423828125 403.8329772949219 363.2569885253906 C 401.89935302734375 362.3825378417969 399.83697509765625 361.8268127441406 397.72576904296875 361.6113586425781 C 396.9961853027344 361.538330078125 396.2277526855469 361.5108337402344 395.5612487792969 361.8158264160156 C 394.9560241699219 362.131103515625 394.45562744140625 362.6156921386719 394.1210632324219 363.2104797363281 C 393.0359802246094 364.9751892089844 392.7796630859375 367.1270751953125 393.41986083984375 369.0972900390625 L 394.6783752441406 368.64434814453125" stroke-width="0.6000000238418579" fill="rgb(70, 150, 179)" opacity="1.0"/>
    <path d="M 388.6875 409.3216552734375 C 387.4353942871094 411.4779357910156 386.1380615234375 413.9205322265625 386.73480224609375 416.33990478515625 C 387.37738037109375 418.9384765625 390.085693359375 420.575439453125 392.7403564453125 420.91876220703125 C 393.7638244628906 421.05157470703125 394.8477478027344 421.0250244140625 395.7677917480469 420.5576171875 C 396.5242614746094 420.1737060546875 397.10882568359375 419.5260009765625 397.63836669921875 418.863525390625 C 399.3107604980469 416.7763671875 400.6757507324219 414.19757080078125 400.3587951660156 411.5424499511719 C 400.0374755859375 408.8667297363281 397.844482421875 406.51422119140625 395.192626953125 406.02105712890625 C 392.540771484375 405.52789306640625 389.6390380859375 406.9053649902344 388.3631286621094 409.2838439941406 L 388.6875 409.3216552734375" stroke-width="0.6000000238418579" fill="rgb(140, 28, 33)" opacity="1.0"/>
    <path d="M 404.3023681640625 397.3341369628906 C 402.5423278808594 399.87408447265625 400.7388916015625 402.53643798828125 400.20245361328125 405.5819396972656 C 399.666015625 408.62738037109375 400.7816467285156 412.2041015625 403.5597229003906 413.5611572265625 C 406.9927062988281 415.2286376953125 411.366943359375 412.5765380859375 412.57379150390625 408.9485168457031 C 413.7806396484375 405.32049560546875 412.564697265625 401.2972106933594 410.6314392089844 398.0040283203125 C 410.1351318359375 396.9246520996094 409.25225830078125 396.070556640625 408.1570129394531 395.6103210449219 C 407.0376281738281 395.274169921875 405.5460205078125 396.0933837890625 405.68145751953125 397.2601013183594 L 404.3023681640625 397.3341369628906" stroke-width="0.6000000238418579" fill="rgb(159, 159, 159)" opacity="1.0"/>
    <path d="M 427.9644775390625 370.8362731933594 C 427.82366943359375 373.28656005859375 428.5194091796875 375.8384094238281 430.1607666015625 377.6613464355469 C 431.80224609375 379.4842834472656 434.4456787109375 380.4586181640625 436.82366943359375 379.815673828125 C 438.50439453125 379.3589782714844 439.9208984375 378.150146484375 440.8590087890625 376.680908203125 C 441.797119140625 375.2117004394531 442.29351806640625 373.498046875 442.5509033203125 371.7736511230469 C 442.6624755859375 371.023193359375 442.72509765625 370.2279052734375 442.4183349609375 369.5361022949219 C 442.0670166015625 368.7428283691406 441.29638671875 368.2314147949219 440.54150390625 367.79827880859375 C 438.4105224609375 366.57550048828125 436.010986328125 365.6327209472656 433.55987548828125 365.805908203125 C 431.1087646484375 365.97906494140625 428.6346435546875 367.5104064941406 427.9569091796875 369.865966796875 L 427.9644775390625 370.8362731933594" stroke-width="0.6000000238418579" fill="rgb(159, 159, 159)" opacity="1.0"/>
    <path d="M 417.3240966796875 404.9612731933594 C 415.10137939453125 405.76470947265625 412.66552734375 406.7540283203125 411.6426086425781 408.87957763671875 C 410.6448974609375 410.9452819824219 411.3099365234375 413.3946533203125 412.0289306640625 415.5740966796875 C 412.3223876953125 416.4591064453125 412.6434326171875 417.38018798828125 413.32012939453125 418.020751953125 C 414.4639892578125 419.1048583984375 416.2598876953125 419.0743408203125 417.79669189453125 418.7354736328125 C 419.22320556640625 418.4215087890625 420.59722900390625 417.904296875 421.876708984375 417.1998291015625 C 423.9547119140625 416.0565185546875 425.9072265625 414.10223388671875 425.84136962890625 411.7322998046875 C 425.80767822265625 410.45281982421875 425.1705322265625 409.2422180175781 424.3128662109375 408.28948974609375 C 423.4552001953125 407.3367614746094 422.38055419921875 406.608154296875 421.30938720703125 405.90399169921875 C 420.23828125 405.1997985839844 419.170654296875 404.53082275390625 417.9349365234375 404.33331298828125 L 417.3240966796875 404.9612731933594" stroke-width="0.6000000238418579" fill="rgb(218, 166, 20)" opacity="1.0"/>
    <path d="M 142.82192993164062 231.11041259765625 C 139.96652221679688 233.80810546875 139.8386993408203 238.309814453125 142.53640747070312 241.16522216796875 C 142.76742553710938 241.40972900390625 143.01548767089844 241.63754272460938 143.2787322998047 241.846923828125 C 144.27915954589844 242.6424560546875 145.5574951171875 243.170166015625 146.8255157470703 243.01455688476562 C 147.89710998535156 242.88314819335938 148.85284423828125 242.287841796875 149.70156860351562 241.62176513671875 C 151.970947265625 239.83566284179688 153.72068786621094 237.4744873046875 154.76904296875 234.7835693359375 C 155.04495239257812 234.07180786132812 155.27305603027344 233.3165283203125 155.2049102783203 232.5545654296875 C 155.09127807617188 231.27532958984375 154.1471710205078 230.19512939453125 153.04298400878906 229.5374755859375 C 151.40435791015625 228.5599365234375 149.37400817871094 228.3411865234375 147.50949096679688 228.74847412109375 C 145.6449737548828 229.15576171875 143.94070434570312 230.150634765625 142.52398681640625 231.42913818359375 L 142.82192993164062 231.11041259765625" stroke-width="0.6000000238418579" fill="rgb(143, 165, 67)" opacity="1.0"/>
    <path d="M 165.197509765625 265.632568359375 C 165.13714599609375 270.190673828125 171.30453491210938 273.2855224609375 175.09234619140625 270.80242919921875 C 178.88015747070312 268.3193054199219 178.69357299804688 261.7586364746094 174.924072265625 259.19281005859375 C 171.15460205078125 256.6269836425781 165.299072265625 258.4912109375 163.39752197265625 262.6403503417969 L 165.197509765625 265.632568359375" stroke-width="0.6000000238418579" fill="rgb(233, 92, 21)" opacity="1.0"/>
    <path d="M 155.12710571289062 314.5811462402344 C 153.87376403808594 316.598388671875 152.58584594726562 319.1380310058594 153.76235961914062 321.2103271484375 C 154.2626495361328 322.0168151855469 155.00086975097656 322.6481628417969 155.8751983642578 323.0173034667969 C 158.013916015625 323.98883056640625 160.4908447265625 323.86346435546875 162.52056884765625 322.68096923828125 C 164.23974609375 321.6734924316406 165.42449951171875 320.0018615722656 166.5318603515625 318.35992431640625 C 167.15240478515625 317.4366149902344 167.7823486328125 316.4358215332031 167.78924560546875 315.3294372558594 C 167.78631591796875 313.85467529296875 166.676025390625 312.6263122558594 165.5340576171875 311.69384765625 C 163.86444091796875 310.32708740234375 161.984619140625 309.23956298828125 159.967529296875 308.47344970703125 C 159.27008056640625 308.2101135253906 158.52252197265625 307.98126220703125 157.78775024414062 308.10577392578125 C 157.1104736328125 308.25653076171875 156.49169921875 308.60107421875 156.0068359375 309.097412109375 C 154.47755432128906 310.5458068847656 153.66061401367188 312.5921325683594 153.77198791503906 314.69549560546875 L 155.12710571289062 314.5811462402344" stroke-width="0.6000000238418579" fill="rgb(70, 150, 179)" opacity="1.0"/>
    <path d="M 126.5894775390625 296.76019287109375 C 125.64212036132812 294.5406188964844 124.49884033203125 292.12017822265625 122.2769775390625 291.1821594238281 C 119.88958740234375 290.17596435546875 117.0518798828125 291.32861328125 115.24856567382812 293.1886901855469 C 114.552978515625 293.9055480957031 113.94598388671875 294.7615966796875 113.77574157714844 295.7457275390625 C 113.635498046875 296.5547180175781 113.79939270019531 297.3831481933594 114.006591796875 298.1773986816406 C 114.656982421875 300.68292236328125 115.86666870117188 303.23468017578125 118.10940551757812 304.5261535644531 C 120.37063598632812 305.82623291015625 123.46490478515625 305.4875183105469 125.3828125 303.7164001464844 C 127.30072021484375 301.94525146484375 127.91253662109375 298.897216796875 126.80661010742188 296.530517578125 L 126.5894775390625 296.76019287109375" stroke-width="0.6000000238418579" fill="rgb(140, 28, 33)" opacity="1.0"/>
    <path d="M 140.502197265625 272.3076477050781 C 137.6821746826172 273.6412353515625 134.7624969482422 275.0599670410156 132.75755310058594 277.4527282714844 C 130.75265502929688 279.8454284667969 129.924560546875 283.5358581542969 131.66961669921875 286.12353515625 C 133.83084106445312 289.31298828125 138.9935302734375 289.1995849609375 141.87847900390625 286.6355285644531 C 144.76341247558594 284.07147216796875 145.72900390625 279.93994140625 145.6990966796875 276.08514404296875 C 145.8094024658203 274.8909606933594 145.46804809570312 273.6988525390625 144.74237060546875 272.7440490722656 C 143.9329833984375 271.8855895996094 142.21546936035156 271.84979248046875 141.7455291748047 272.9383850097656 L 140.502197265625 272.3076477050781" stroke-width="0.6000000238418579" fill="rgb(159, 159, 159)" opacity="1.0"/>
    <path d="M 157.18963623046875 295.37945556640625 C 155.7220001220703 297.2534484863281 154.86448669433594 299.6711120605469 155.16358947753906 302.0312805175781 C 155.4626922607422 304.3914489746094 157.02944946289062 306.62994384765625 159.2794189453125 307.43328857421875 C 160.87091064453125 307.999267578125 162.66802978515625 307.8199462890625 164.22808837890625 307.16851806640625 C 165.78814697265625 306.5171203613281 167.131591796875 305.4266357421875 168.29052734375 304.19537353515625 C 168.7945556640625 303.6592712402344 169.284423828125 303.0604248046875 169.42276000976562 302.33966064453125 C 169.58172607421875 301.51336669921875 169.250732421875 300.67962646484375 168.8890380859375 299.91705322265625 C 167.86798095703125 297.7641296386719 166.47802734375 295.6856689453125 164.4296875 294.4676818847656 C 162.38134765625 293.24969482421875 159.5633544921875 293.100830078125 157.72039794921875 294.60235595703125 L 157.18963623046875 295.37945556640625" stroke-width="0.6000000238418579" fill="rgb(159, 159, 159)" opacity="1.0"/>
    <path d="M 127.13316345214844 346.2846374511719 C 126.29803466796875 344.0872802734375 125.2745361328125 341.68096923828125 123.14413452148438 340.69830322265625 C 121.07363891601562 339.73974609375 118.648681640625 340.4409484863281 116.49293518066406 341.1914367675781 C 115.61764526367188 341.49761962890625 114.70684814453125 341.8318786621094 114.08082580566406 342.5152587890625 C 113.0213623046875 343.67047119140625 113.08091735839844 345.4559326171875 113.44290161132812 346.9786682128906 C 113.77833557128906 348.3921813964844 114.31500244140625 349.75018310546875 115.03646850585938 351.0111083984375 C 116.20718383789062 353.0589599609375 118.18246459960938 354.96893310546875 120.53817749023438 354.8648681640625 C 121.81002807617188 354.8105773925781 123.00357055664062 354.1572265625 123.93707275390625 353.2888488769531 C 124.87057495117188 352.42041015625 125.57766723632812 351.3398742675781 126.26051330566406 350.26318359375 C 126.943359375 349.1864929199219 127.59126281738281 348.1139221191406 127.76759338378906 346.8818664550781 L 127.13316345214844 346.2846374511719" stroke-width="0.6000000238418579" fill="rgb(218, 166, 20)" opacity="1.0"/>
    <path d="M 165.03848266601562 346.5260925292969 C 162.1260986328125 348.9996032714844 161.77032470703125 353.3657531738281 164.24383544921875 356.27813720703125 C 164.45565795898438 356.5274963378906 164.68487548828125 356.7615661621094 164.9298095703125 356.978515625 C 165.86065673828125 357.8027038574219 167.07522583007812 358.3810729980469 168.31494140625 358.2951354980469 C 169.362548828125 358.2226257324219 170.321533203125 357.69354248046875 171.18023681640625 357.0902099609375 C 173.4764404296875 355.4720458984375 175.29754638671875 353.2685546875 176.45428466796875 350.7086486816406 C 176.7589111328125 350.031494140625 177.01934814453125 349.3095703125 176.99237060546875 348.5659484863281 C 176.94778442382812 347.3175048828125 176.0863037109375 346.2196960449219 175.047607421875 345.5240783691406 C 173.5062255859375 344.4902648925781 171.5452880859375 344.1733093261719 169.7132568359375 344.4729919433594 C 167.88119506835938 344.772705078125 166.174560546875 345.6513977050781 164.732666015625 346.82037353515625 L 165.03848266601562 346.5260925292969" stroke-width="0.6000000238418579" fill="rgb(143, 165, 67)" opacity="1.0"/>
    <path d="M 133.99061584472656 376.01141357421875 C 131.72509765625 372.28338623046875 125.15086364746094 372.9046325683594 123.33920288085938 376.8421936035156 C 121.52754211425781 380.7797546386719 125.01025390625 386.00677490234375 129.37078857421875 386.17401123046875 C 133.7313232421875 386.34124755859375 137.5344696044922 381.8557434082031 136.97007751464844 377.5245666503906 L 133.99061584472656 376.01141357421875" stroke-width="0.6000000238418579" fill="rgb(233, 92, 21)" opacity="1.0"/>
    <path d="M 178.1407470703125 366.8414306640625 C 177.088623046875 368.82440185546875 176.03753662109375 371.30224609375 177.2803955078125 373.1807556152344 C 177.80410766601562 373.9090881347656 178.5408935546875 374.45697021484375 179.38916015625 374.748779296875 C 181.46856689453125 375.5273132324219 183.79632568359375 375.24969482421875 185.63427734375 374.00390625 C 187.190673828125 372.94317626953125 188.2003173828125 371.29052734375 189.138916015625 369.6708984375 C 189.66470336914062 368.7602233886719 190.1943359375 367.7759094238281 190.12960815429688 366.7321472167969 C 190.03195190429688 365.341552734375 188.90585327148438 364.2546691894531 187.7689208984375 363.4488220214844 C 186.10647583007812 362.2673645019531 184.26376342773438 361.36279296875 182.312255859375 360.7701721191406 C 181.63760375976562 360.56671142578125 180.91790771484375 360.3990173339844 180.2330322265625 360.5637512207031 C 179.60400390625 360.7494812011719 179.04266357421875 361.1142272949219 178.61737060546875 361.6134948730469 C 177.26846313476562 363.0777893066406 176.6297607421875 365.06011962890625 176.87017822265625 367.0364990234375 L 178.1407470703125 366.8414306640625" stroke-width="0.6000000238418579" fill="rgb(70, 150, 179)" opacity="1.0"/>
  </g>
</svg>
