<?xml version="1.0" ?>
<svg xmlns="http://www.w3.org/2000/svg" version="1.1" width="600" height="600">
  <defs/>
  <g>
    <path d="M 353.3501892089844 342.6019592285156 C 355.56060791015625 343.9056091308594 358.796875 341.7570495605469 358.642333984375 339.2120361328125 C 358.48779296875 336.6670227050781 355.22979736328125 334.9242858886719 352.92230224609375 336.0489807128906 C 350.6148376464844 337.1737060546875 349.88897705078125 340.5561218261719 351.3848876953125 342.6451110839844 L 353.3501892089844 342.6019592285156" stroke-width="0.6000000238418579" fill="rgb(233, 92, 21)" opacity="1.0"/>
    <path d="M 104.59036254882812 201.20745849609375 C 105.65043640136719 200.23394775390625 106.81575012207031 198.96115112304688 106.46636962890625 197.55987548828125 C 106.30563354492188 197.00765991210938 105.97750854492188 196.5189208984375 105.5272216796875 196.16107177734375 C 104.43693542480469 195.2457275390625 102.97061157226562 194.91561889648438 101.59326171875 195.27542114257812 C 100.4256591796875 195.5836181640625 99.46189880371094 196.36651611328125 98.54814147949219 197.14471435546875 C 98.03555297851562 197.5826416015625 97.50491333007812 198.06427001953125 97.32073974609375 198.70901489257812 C 97.08232116699219 199.57037353515625 97.53045654296875 200.46820068359375 98.04525756835938 201.19845581054688 C 98.79733276367188 202.26812744140625 99.71760559082031 203.20904541015625 100.77035522460938 203.98468017578125 C 101.13461303710938 204.251953125 101.53372192382812 204.50726318359375 101.98292541503906 204.55419921875 C 102.40283203125 204.57647705078125 102.82012939453125 204.47610473632812 103.18397521972656 204.26531982421875 C 104.31251525878906 203.6688232421875 105.12257385253906 202.6072998046875 105.4000244140625 201.361328125 L 104.59036254882812 201.20745849609375" stroke-width="0.6000000238418579" fill="rgb(70, 150, 179)" opacity="1.0"/>
    <path d="M 459.0765380859375 430.11065673828125 C 459.6197509765625 431.258544921875 460.27001953125 432.508056640625 461.457275390625 432.95623779296875 C 462.73309326171875 433.4368896484375 464.20184326171875 432.773193359375 465.1123046875 431.758544921875 C 465.4635009765625 431.36749267578125 465.765380859375 430.905029296875 465.83489990234375 430.3841552734375 C 465.8922119140625 429.9559326171875 465.78924560546875 429.52362060546875 465.6641845703125 429.11016845703125 C 465.2713623046875 427.805908203125 464.58349609375 426.4886474609375 463.3780517578125 425.8551025390625 C 462.16259765625 425.21734619140625 460.54248046875 425.458251953125 459.5699462890625 426.428466796875 C 458.59735107421875 427.398681640625 458.3375244140625 429.0137939453125 458.967041015625 430.23583984375 L 459.0765380859375 430.11065673828125" stroke-width="0.6000000238418579" fill="rgb(140, 28, 33)" opacity="1.0"/>
    <path d="M 91.28524780273438 195.0533447265625 C 92.4569091796875 194.45703125 93.6695556640625 193.8236083984375 94.48489379882812 192.79107666015625 C 95.30023193359375 191.758544921875 95.60391235351562 190.1937255859375 94.83709716796875 189.12493896484375 C 93.88760375976562 187.80780029296875 91.71408081054688 187.91873168945312 90.53012084960938 189.03421020507812 C 89.34613037109375 190.14968872070312 88.98992919921875 191.90200805664062 89.0496826171875 193.52557373046875 C 89.01783752441406 194.02999877929688 89.17623901367188 194.52801513671875 89.49362182617188 194.92138671875 C 89.8450927734375 195.27313232421875 90.569091796875 195.26718139648438 90.75373840332031 194.8028564453125 L 91.28524780273438 195.0533447265625" stroke-width="0.6000000238418579" fill="rgb(159, 159, 159)" opacity="1.0"/>
    <path d="M 378.269775390625 299.71356201171875 C 379.34149169921875 299.0977478027344 380.2255554199219 298.1013488769531 380.541748046875 296.9071044921875 C 380.8579406738281 295.712890625 380.5403137207031 294.3300476074219 379.6140441894531 293.5047607421875 C 378.95843505859375 292.9220886230469 378.05853271484375 292.6579895019531 377.1806945800781 292.6673583984375 C 376.3028564453125 292.6767272949219 375.44366455078125 292.93963623046875 374.64581298828125 293.3062744140625 C 374.2987365722656 293.4660339355469 373.9461975097656 293.65875244140625 373.7391052246094 293.9786682128906 C 373.5014953613281 294.3453674316406 373.4982604980469 294.8111572265625 373.5236511230469 295.2486877441406 C 373.5953369140625 296.48394775390625 373.85906982421875 297.7552795410156 374.6074523925781 298.7408447265625 C 375.3558349609375 299.72637939453125 376.6830749511719 300.3474426269531 377.8628234863281 299.9841003417969 L 378.269775390625 299.71356201171875" stroke-width="0.6000000238418579" fill="rgb(159, 159, 159)" opacity="1.0"/>
    <path d="M 99.56341552734375 431.217041015625 C 100.27346801757812 430.1126708984375 101.014892578125 428.8543701171875 100.74942016601562 427.5711669921875 C 100.49299621582031 426.32293701171875 99.373291015625 425.4661865234375 98.32077026367188 424.7467041015625 C 97.89276123046875 424.455078125 97.44036865234375 424.1568603515625 96.92561340332031 424.1024169921875 C 96.0550537109375 424.009765625 95.27268981933594 424.62896728515625 94.70870971679688 425.296875 C 94.18499755859375 425.9166259765625 93.75299072265625 426.6083984375 93.4259033203125 427.3509521484375 C 92.89437866210938 428.556396484375 92.6917724609375 430.07763671875 93.52023315429688 431.1014404296875 C 93.96669006347656 431.65478515625 94.65625 431.9742431640625 95.35617065429688 432.10540771484375 C 96.05606079101562 432.23663330078125 96.77615356445312 432.19573974609375 97.4864501953125 432.145263671875 C 98.19676208496094 432.0947265625 98.89361572265625 432.0299072265625 99.50564575195312 431.70025634765625 L 99.56341552734375 431.217041015625" stroke-width="0.6000000238418579" fill="rgb(218, 166, 20)" opacity="1.0"/>
    <path d="M 100.84176635742188 139.31808471679688 C 103.14520263671875 139.9227752685547 105.50270080566406 138.54568481445312 106.10739135742188 136.24224853515625 C 106.1591796875 136.04501342773438 106.1968994140625 135.84434509277344 106.22027587890625 135.64175415039062 C 106.30899047851562 134.87196350097656 106.17080688476562 134.0449981689453 105.68429565429688 133.44236755371094 C 105.27322387695312 132.9330596923828 104.66055297851562 132.63204956054688 104.04574584960938 132.40879821777344 C 102.39926147460938 131.8134765625 100.6234130859375 131.6698760986328 98.90267944335938 131.99288940429688 C 98.44796752929688 132.07904052734375 97.9862060546875 132.20375061035156 97.61593627929688 132.4830322265625 C 96.99407958984375 132.9515380859375 96.74082946777344 133.78358459472656 96.75631713867188 134.5625762939453 C 96.77850341796875 135.7191162109375 97.31668090820312 136.8340301513672 98.1239013671875 137.66294860839844 C 98.93109130859375 138.4918670654297 99.98928833007812 139.0500030517578 101.10128784179688 139.36923217773438 L 100.84176635742188 139.31808471679688" stroke-width="0.6000000238418579" fill="rgb(143, 165, 67)" opacity="1.0"/>
    <path d="M 455.4764404296875 340.0846252441406 C 458.04931640625 341.63043212890625 461.85491943359375 339.1483459472656 461.69842529296875 336.17022705078125 C 461.54193115234375 333.192138671875 457.748046875 331.1227722167969 455.0384521484375 332.4162292480469 C 452.32891845703125 333.709716796875 451.44775390625 337.6588134765625 453.17742919921875 340.1163635253906 L 455.4764404296875 340.0846252441406" stroke-width="0.6000000238418579" fill="rgb(233, 92, 21)" opacity="1.0"/>
    <path d="M 108.91912841796875 215.65045166015625 C 110.12199401855469 214.92764282226562 111.48387145996094 213.93948364257812 111.42391967773438 212.53265380859375 C 111.37828063964844 211.97372436523438 111.16032409667969 211.44271850585938 110.80010986328125 211.012939453125 C 109.93745422363281 209.92547607421875 108.60125732421875 209.32363891601562 107.2152099609375 209.39822387695312 C 106.03962707519531 209.4644775390625 104.96600341796875 210.0240478515625 103.94108581542969 210.5888671875 C 103.36585998535156 210.90707397460938 102.76483154296875 211.26348876953125 102.46295166015625 211.84335327148438 C 102.06687927246094 212.61959838867188 102.31953430175781 213.5648193359375 102.66860961914062 214.36297607421875 C 103.17803955078125 215.53179931640625 103.873291015625 216.61041259765625 104.72738647460938 217.5570068359375 C 105.02310180664062 217.883544921875 105.3544921875 218.20538330078125 105.7744140625 218.3380126953125 C 106.17117309570312 218.44134521484375 106.58944702148438 218.427001953125 106.97817993164062 218.29669189453125 C 108.17279052734375 217.94741821289062 109.15402221679688 217.0916748046875 109.66250610351562 215.95562744140625 L 108.91912841796875 215.65045166015625" stroke-width="0.6000000238418579" fill="rgb(70, 150, 179)" opacity="1.0"/>
    <path d="M 102.46490478515625 78.41661071777344 C 103.11978149414062 79.64686584472656 103.89730834960938 80.98300170898438 105.22213745117188 81.412841796875 C 106.64555358886719 81.87371826171875 108.22132873535156 81.07015991210938 109.16693115234375 79.91070556640625 C 109.53170776367188 79.46383666992188 109.838623046875 78.94126892089844 109.88790893554688 78.3665771484375 C 109.9285888671875 77.89418029785156 109.79331970214844 77.42562866210938 109.63482666015625 76.97885131835938 C 109.13667297363281 75.56939697265625 108.31443786621094 74.16098022460938 106.96012878417969 73.52879333496094 C 105.59475708007812 72.89259338378906 103.83111572265625 73.24050903320312 102.81517028808594 74.35443115234375 C 101.79922485351562 75.4683837890625 101.59796142578125 77.25244140625 102.35133361816406 78.55950927734375 L 102.46490478515625 78.41661071777344" stroke-width="0.6000000238418579" fill="rgb(140, 28, 33)" opacity="1.0"/>
    <path d="M 94.05099487304688 427.218505859375 C 95.26034545898438 427.234130859375 96.5189208984375 427.2371826171875 97.62469482421875 426.7451171875 C 98.73046875 426.2530517578125 99.64730834960938 425.108642578125 99.48008728027344 423.91015625 C 99.27037048339844 422.43115234375 97.45278930664062 421.591552734375 96.01130676269531 421.99346923828125 C 94.56982421875 422.39532470703125 93.52999877929688 423.6700439453125 92.884033203125 425.017822265625 C 92.64225769042969 425.4150390625 92.55816650390625 425.88836669921875 92.64836120605469 426.344482421875 C 92.78411865234375 426.7813720703125 93.37625122070312 427.0863037109375 93.72531127929688 426.787109375 L 94.05099487304688 427.218505859375" stroke-width="0.6000000238418579" fill="rgb(159, 159, 159)" opacity="1.0"/>
    <path d="M 467.98895263671875 60.88861083984375 C 468.95111083984375 59.77601623535156 469.55303955078125 58.309539794921875 469.4393310546875 56.84379577636719 C 469.3255615234375 55.3780517578125 468.42578125 53.9493408203125 467.06121826171875 53.385894775390625 C 466.095947265625 52.988739013671875 464.9813232421875 53.045440673828125 463.998779296875 53.400634765625 C 463.016357421875 53.755828857421875 462.15435791015625 54.3885498046875 461.40203857421875 55.11369323730469 C 461.0748291015625 55.429443359375 460.7545166015625 55.78434753417969 460.6474609375 56.22508239746094 C 460.5245361328125 56.730316162109375 460.7037353515625 57.254852294921875 460.904052734375 57.73640441894531 C 461.46966552734375 59.095916748046875 462.26513671875 60.42054748535156 463.4927978515625 61.23387145996094 C 464.720458984375 62.04718017578125 466.455322265625 62.223724365234375 467.63800048828125 61.35231018066406 L 467.98895263671875 60.88861083984375" stroke-width="0.6000000238418579" fill="rgb(159, 159, 159)" opacity="1.0"/>
    <path d="M 92.328857421875 105.54339599609375 C 93.63584899902344 105.81854248046875 95.10055541992188 106.0677490234375 96.22430419921875 105.35073852539062 C 97.31816101074219 104.65496826171875 97.72720336914062 103.2802734375 98.030029296875 102.0191650390625 C 98.15231323242188 101.50666809082031 98.27204895019531 100.96858215332031 98.137451171875 100.45950317382812 C 97.9102783203125 99.59834289550781 97.03829956054688 99.07879638671875 96.1990966796875 98.78448486328125 C 95.4202880859375 98.51100158691406 94.60624694824219 98.35078430175781 93.78189086914062 98.3087158203125 C 92.44338989257812 98.23989868164062 90.92385864257812 98.59811401367188 90.25054931640625 99.75643920898438 C 89.88613891601562 100.38124084472656 89.83218383789062 101.15243530273438 89.96087646484375 101.86534118652344 C 90.08956909179688 102.57823181152344 90.38919067382812 103.24798583984375 90.69439697265625 103.90496826171875 C 90.99960327148438 104.56195068359375 91.3135986328125 105.20095825195312 91.84855651855469 105.66342163085938 L 92.328857421875 105.54339599609375" stroke-width="0.6000000238418579" fill="rgb(218, 166, 20)" opacity="1.0"/>
    <path d="M 117.32351684570312 127.43681335449219 C 119.56976318359375 126.62005615234375 120.72860717773438 124.13699340820312 119.91184997558594 121.8907470703125 C 119.8419189453125 121.69839477539062 119.7584228515625 121.51126098632812 119.6619873046875 121.33071899414062 C 119.29547119140625 120.64480590820312 118.70907592773438 120.04129028320312 117.96336364746094 119.8218994140625 C 117.33319091796875 119.63641357421875 116.65567016601562 119.73799133300781 116.02079772949219 119.90493774414062 C 114.322021484375 120.35417175292969 112.7745361328125 121.25006103515625 111.53903198242188 122.49954223632812 C 111.21302795410156 122.83038330078125 110.9031982421875 123.19705200195312 110.75717163085938 123.6390380859375 C 110.51162719726562 124.38087463378906 110.77792358398438 125.212158203125 111.23567199707031 125.84614562988281 C 111.91461181640625 126.78787231445312 112.99560546875 127.4005126953125 114.13522338867188 127.62345886230469 C 115.27484130859375 127.84642028808594 116.46688842773438 127.70252990722656 117.56689453125 127.33078002929688 L 117.32351684570312 127.43681335449219" stroke-width="0.6000000238418579" fill="rgb(143, 165, 67)" opacity="1.0"/>
    <path d="M 387.98089599609375 301.2807922363281 C 390.216064453125 303.2530517578125 394.3792419433594 301.5126647949219 394.7616271972656 298.57574462890625 C 395.1440124511719 295.6388244628906 391.810302734375 292.93572998046875 388.93133544921875 293.7121276855469 C 386.0523681640625 294.4884948730469 384.4819030761719 298.1873474121094 385.72967529296875 300.8985900878906 L 387.98089599609375 301.2807922363281" stroke-width="0.6000000238418579" fill="rgb(233, 92, 21)" opacity="1.0"/>
    <path d="M 122.51229858398438 111.3466796875 C 123.57731628417969 110.43328857421875 124.75479125976562 109.23178100585938 124.46076965332031 107.85501098632812 C 124.32243347167969 107.3116455078125 124.0189208984375 106.82461547851562 123.592041015625 106.46109008789062 C 122.56008911132812 105.533203125 121.14241027832031 105.16305541992188 119.78857421875 105.468017578125 C 118.64079284667969 105.72966003417969 117.6759033203125 106.46054077148438 116.7598876953125 107.18844604492188 C 116.24600219726562 107.59819030761719 115.71304321289062 108.04986572265625 115.51229858398438 108.67192077636719 C 115.25149536132812 109.50325012207031 115.65838623046875 110.392822265625 116.13578796386719 111.121337890625 C 116.8331298828125 112.18840026855469 117.69859313964844 113.13555908203125 118.6986083984375 113.92608642578125 C 119.04464721679688 114.19854736328125 119.425048828125 114.46049499511719 119.86114501953125 114.52108764648438 C 120.26951599121094 114.55670166015625 120.67941284179688 114.47271728515625 121.04087829589844 114.27937316894531 C 122.16012573242188 113.73556518554688 122.9844970703125 112.7281494140625 123.29605102539062 111.52340698242188 L 122.51229858398438 111.3466796875" stroke-width="0.6000000238418579" fill="rgb(70, 150, 179)" opacity="1.0"/>
    <path d="M 429.395263671875 71.394287109375 C 430.13458251953125 72.56797790527344 431.0032958984375 73.83786010742188 432.349609375 74.16839599609375 C 433.79595947265625 74.52261352539062 435.30181884765625 73.61062622070312 436.1563720703125 72.39111328125 C 436.48602294921875 71.92105102539062 436.75274658203125 71.38006591796875 436.760009765625 70.80604553222656 C 436.76611328125 70.33416748046875 436.5977783203125 69.87887573242188 436.4080810546875 69.4468994140625 C 435.811279296875 68.08395385742188 434.8929443359375 66.74557495117188 433.50274658203125 66.21630859375 C 432.10125732421875 65.68385314941406 430.3758544921875 66.15716552734375 429.4482421875 67.33662414550781 C 428.52056884765625 68.51606750488281 428.4501953125 70.30160522460938 429.2928466796875 71.54437255859375 L 429.395263671875 71.394287109375" stroke-width="0.6000000238418579" fill="rgb(140, 28, 33)" opacity="1.0"/>
    <path d="M 117.12326049804688 416.45855712890625 C 117.97750854492188 415.4620361328125 118.85543823242188 414.4156494140625 119.21469116210938 413.15216064453125 C 119.57394409179688 411.88873291015625 119.25830078125 410.3288879394531 118.14358520507812 409.6345520019531 C 116.76565551757812 408.780517578125 114.80194091796875 409.7106628417969 114.13406372070312 411.1910400390625 C 113.46617126464844 412.67138671875 113.80474853515625 414.42431640625 114.47821044921875 415.89990234375 C 114.64093017578125 416.37762451171875 114.97677612304688 416.77691650390625 115.41949462890625 417.01904296875 C 115.87783813476562 417.2098388671875 116.54374694824219 416.92864990234375 116.53732299804688 416.4298095703125 L 117.12326049804688 416.45855712890625" stroke-width="0.6000000238418579" fill="rgb(159, 159, 159)" opacity="1.0"/>
    <path d="M 452.04449462890625 429.295654296875 C 452.7406005859375 428.0712890625 453.032470703125 426.581787109375 452.65228271484375 425.2264404296875 C 452.27215576171875 423.87109375 451.16064453125 422.6971435546875 449.7740478515625 422.42242431640625 C 448.79339599609375 422.2294921875 447.75714111328125 422.4906005859375 446.90069580078125 423.00738525390625 C 446.044189453125 423.524169921875 445.35272216796875 424.2791748046875 444.7813720703125 425.1004638671875 C 444.532958984375 425.4580078125 444.29833984375 425.85107421875 444.280029296875 426.28497314453125 C 444.25872802734375 426.7823486328125 444.52490234375 427.2415771484375 444.8028564453125 427.656494140625 C 445.5875244140625 428.8277587890625 446.5816650390625 429.9234619140625 447.88629150390625 430.4583740234375 C 449.19097900390625 430.9932861328125 450.85321044921875 430.83551025390625 451.8013916015625 429.79656982421875 L 452.04449462890625 429.295654296875" stroke-width="0.6000000238418579" fill="rgb(159, 159, 159)" opacity="1.0"/>
    <path d="M 449.2193603515625 285.8851013183594 C 450.1480712890625 284.8800964355469 451.1368408203125 283.72271728515625 451.09661865234375 282.3575744628906 C 451.059326171875 281.0299072265625 450.06512451171875 279.9478454589844 449.114990234375 279.0188903808594 C 448.728515625 278.6420593261719 448.318115234375 278.2540283203125 447.79962158203125 278.1049499511719 C 446.9228515625 277.852294921875 446.0076904296875 278.3462829589844 445.30792236328125 278.9297790527344 C 444.658203125 279.4710998535156 444.08953857421875 280.1029357910156 443.619384765625 280.805908203125 C 442.85565185546875 281.9470520019531 442.372314453125 283.4717712402344 443.037353515625 284.672607421875 C 443.3955078125 285.3213806152344 444.04547119140625 285.7740478515625 444.7401123046875 286.0354309082031 C 445.43475341796875 286.2967834472656 446.1812744140625 286.3851623535156 446.91949462890625 286.4618835449219 C 447.65771484375 286.5386047363281 448.384765625 286.5981750488281 449.07257080078125 286.37060546875 L 449.2193603515625 285.8851013183594" stroke-width="0.6000000238418579" fill="rgb(218, 166, 20)" opacity="1.0"/>
    <path d="M 422.332275390625 367.2454833984375 C 423.771728515625 368.9588317871094 426.32757568359375 369.18084716796875 428.0408935546875 367.7414245605469 C 428.1876220703125 367.6181640625 428.325439453125 367.4846496582031 428.4532470703125 367.3418884277344 C 428.9388427734375 366.7993469238281 429.2813720703125 366.0898742675781 429.23486328125 365.36358642578125 C 429.1956787109375 364.74981689453125 428.888916015625 364.1865539550781 428.5382080078125 363.6817932128906 C 427.5977783203125 362.33197021484375 426.31304931640625 361.2585754394531 424.8175048828125 360.5731201171875 C 424.421875 360.392578125 423.99993896484375 360.2378234863281 423.5643310546875 360.25128173828125 C 422.8331298828125 360.2734680175781 422.1875 360.7745361328125 421.77685546875 361.38067626953125 C 421.16656494140625 362.2801208496094 420.97479248046875 363.427490234375 421.14453125 364.5013427734375 C 421.3143310546875 365.5751953125 421.8236083984375 366.5774230957031 422.503662109375 367.4255065917969 L 422.332275390625 367.2454833984375" stroke-width="0.6000000238418579" fill="rgb(143, 165, 67)" opacity="1.0"/>
    <path d="M 450.31524658203125 355.73614501953125 C 452.06427001953125 353.2571105957031 449.84423828125 349.23681640625 446.83056640625 349.17376708984375 C 443.8167724609375 349.11077880859375 441.449462890625 352.7818908691406 442.55255126953125 355.6091613769531 C 443.65557861328125 358.43646240234375 447.5711669921875 359.6175231933594 450.1767578125 358.0560302734375 L 450.31524658203125 355.73614501953125" stroke-width="0.6000000238418579" fill="rgb(233, 92, 21)" opacity="1.0"/>
    <path d="M 452.4888916015625 83.10075378417969 C 453.415771484375 82.17362976074219 454.42669677734375 80.97003173828125 454.05426025390625 79.70845031738281 C 453.886474609375 79.212158203125 453.56890869140625 78.7801513671875 453.14520263671875 78.4720458984375 C 452.117431640625 77.68145751953125 450.770263671875 77.43807983398438 449.53076171875 77.81907653808594 C 448.480224609375 78.14495849609375 447.6336669921875 78.8948974609375 446.8323974609375 79.63858032226562 C 446.3829345703125 80.05706787109375 445.9188232421875 80.5159912109375 445.7762451171875 81.10986328125 C 445.5927734375 81.90299987792969 446.0355224609375 82.70260620117188 446.53240966796875 83.34713745117188 C 447.2584228515625 84.29132080078125 448.1324462890625 85.11175537109375 449.12066650390625 85.77664184570312 C 449.4625244140625 86.00572204589844 449.835693359375 86.2225341796875 450.24627685546875 86.24777221679688 C 450.6292724609375 86.25172424316406 451.005126953125 86.14413452148438 451.3280029296875 85.93817138671875 C 452.331787109375 85.35145568847656 453.0277099609375 84.35394287109375 453.231689453125 83.20928955078125 L 452.4888916015625 83.10075378417969" stroke-width="0.6000000238418579" fill="rgb(70, 150, 179)" opacity="1.0"/>
    <path d="M 449.700439453125 392.1278991699219 C 450.31134033203125 391.13043212890625 450.946533203125 389.9991760253906 450.6932373046875 388.8580322265625 C 450.42047119140625 387.6323547363281 449.1683349609375 386.8349304199219 447.92718505859375 386.644775390625 C 447.44866943359375 386.5712585449219 446.9400634765625 386.5718078613281 446.50341796875 386.7808837890625 C 446.14447021484375 386.9526062011719 445.86322021484375 387.24993896484375 445.60760498046875 387.5548095703125 C 444.8004150390625 388.5152587890625 444.1319580078125 389.7096252441406 444.25146484375 390.958251953125 C 444.37274169921875 392.21661376953125 445.3753662109375 393.34393310546875 446.613525390625 393.6043395996094 C 447.85174560546875 393.86474609375 449.2276611328125 393.2506103515625 449.8521728515625 392.1492004394531 L 449.700439453125 392.1278991699219" stroke-width="0.6000000238418579" fill="rgb(140, 28, 33)" opacity="1.0"/>
    <path d="M 120.09954833984375 213.7047119140625 C 118.43275451660156 213.43902587890625 116.6954345703125 213.18093872070312 115.06918334960938 213.63723754882812 C 113.44294738769531 214.09356689453125 111.94596862792969 215.48883056640625 111.93499755859375 217.17755126953125 C 111.92611694335938 219.26211547851562 114.26654052734375 220.78826904296875 116.33815002441406 220.52423095703125 C 118.40975952148438 220.26019287109375 120.10287475585938 218.70989990234375 121.26687622070312 216.9791259765625 C 121.68087768554688 216.47943115234375 121.89251708984375 215.8427734375 121.86001586914062 215.1947021484375 C 121.7607421875 214.5640869140625 121.00457763671875 214.02349853515625 120.46221923828125 214.36614990234375 L 120.09954833984375 213.7047119140625" stroke-width="0.6000000238418579" fill="rgb(159, 159, 159)" opacity="1.0"/>
    <path d="M 112.09065246582031 224.03509521484375 C 110.73834228515625 222.9818115234375 108.9957275390625 222.368896484375 107.29669189453125 222.58880615234375 C 105.59765625 222.8087158203125 103.98866271972656 223.94119262695312 103.41444396972656 225.56298828125 C 103.00991821289062 226.71011352539062 103.14247131347656 228.00393676757812 103.61453247070312 229.1260986328125 C 104.08660888671875 230.248291015625 104.87445068359375 231.21365356445312 105.7633056640625 232.04586791992188 C 106.15032958984375 232.40780639648438 106.58248901367188 232.75946044921875 107.101806640625 232.857666015625 C 107.69712829589844 232.9705810546875 108.296875 232.73065185546875 108.8453369140625 232.46875 C 110.39376831054688 231.72930908203125 111.88784790039062 230.72442626953125 112.76104736328125 229.2470703125 C 113.63423156738281 227.76971435546875 113.73605346679688 225.74014282226562 112.65127563476562 224.41583251953125 L 112.09065246582031 224.03509521484375" stroke-width="0.6000000238418579" fill="rgb(159, 159, 159)" opacity="1.0"/>
    <path d="M 302.2811279296875 104.91056823730469 C 301.43841552734375 106.56439208984375 300.5733337402344 108.439208984375 301.1281433105469 110.20671081542969 C 301.665283203125 111.92636108398438 303.3614196777344 112.9732666015625 304.94366455078125 113.83651733398438 C 305.5869445800781 114.18624877929688 306.2654724121094 114.5418701171875 306.99725341796875 114.54574584960938 C 308.23492431640625 114.55300903320312 309.2479553222656 113.57135009765625 309.9468994140625 112.55209350585938 C 310.5959777832031 111.60629272460938 311.10589599609375 110.57218933105469 311.4610595703125 109.48143005371094 C 312.0383605957031 107.7105712890625 312.10833740234375 105.54208374023438 310.7982482910156 104.21903991699219 C 310.0920104980469 103.50373840332031 309.0768737792969 103.15191650390625 308.07379150390625 103.06625366210938 C 307.0707092285156 102.98062133789062 306.0635681152344 103.13992309570312 305.0715637207031 103.31137084960938 C 304.07952880859375 103.48280334472656 303.1084289550781 103.67251586914062 302.29412841796875 104.22268676757812 L 302.2811279296875 104.91056823730469" stroke-width="0.6000000238418579" fill="rgb(218, 166, 20)" opacity="1.0"/>
    <path d="M 220.01702880859375 127.204345703125 C 217.4080810546875 125.26118469238281 213.71783447265625 125.8009033203125 211.774658203125 128.4098663330078 C 211.6082763671875 128.63327026367188 211.45794677734375 128.86819458007812 211.32479858398438 129.11288452148438 C 210.81903076171875 130.04270935058594 210.57144165039062 131.16091918945312 210.87979125976562 132.17295837402344 C 211.1402587890625 133.02822875976562 211.7625732421875 133.72265625 212.42730712890625 134.3196563720703 C 214.20883178710938 135.91522216796875 216.38507080078125 137.00466918945312 218.73001098632812 137.47483825683594 C 219.35003662109375 137.5980682373047 219.99874877929688 137.67608642578125 220.61053466796875 137.51150512695312 C 221.6376953125 137.2357940673828 222.38372802734375 136.31118774414062 222.76220703125 135.3164520263672 C 223.32513427734375 133.83999633789062 223.213134765625 132.15260314941406 222.61419677734375 130.6900177001953 C 222.0152587890625 129.22743225097656 220.95993041992188 127.9796142578125 219.71441650390625 127.00692749023438 L 220.01702880859375 127.204345703125" stroke-width="0.6000000238418579" fill="rgb(143, 165, 67)" opacity="1.0"/>
    <path d="M 223.2449951171875 95.62289428710938 C 221.6961669921875 99.21002197265625 225.5574951171875 103.69012451171875 229.3726806640625 102.97254943847656 C 233.18783569335938 102.25494384765625 235.20071411132812 97.00177001953125 233.062744140625 93.72996520996094 C 230.92474365234375 90.45816040039062 225.6771240234375 90.00509643554688 222.80596923828125 92.66227722167969 L 223.2449951171875 95.62289428710938" stroke-width="0.6000000238418579" fill="rgb(233, 92, 21)" opacity="1.0"/>
    <path d="M 203.88262939453125 96.28121948242188 C 203.114013671875 94.57742309570312 202.0191650390625 92.62188720703125 200.14886474609375 92.48190307617188 C 199.40240478515625 92.45513916015625 198.66604614257812 92.66067504882812 198.04135131835938 93.07017517089844 C 196.46844482421875 94.04176330566406 195.4639892578125 95.71546936035156 195.34661865234375 97.560546875 C 195.25100708007812 99.12591552734375 195.8238525390625 100.63333129882812 196.41119384765625 102.07713317871094 C 196.742431640625 102.88763427734375 197.12017822265625 103.73822021484375 197.8402099609375 104.22796630859375 C 198.8052978515625 104.87287902832031 200.094970703125 104.68600463867188 201.20523071289062 104.34866333007812 C 202.8306884765625 103.85700988769531 204.3658447265625 103.10548400878906 205.75119018554688 102.12326049804688 C 206.22918701171875 101.782958984375 206.70660400390625 101.39479064941406 206.94747924804688 100.8599853515625 C 207.14599609375 100.35125732421875 207.1922607421875 99.79576110839844 207.08050537109375 99.26121520996094 C 206.8046875 97.62655639648438 205.82565307617188 96.1951904296875 204.4022216796875 95.34547424316406 L 203.88262939453125 96.28121948242188" stroke-width="0.6000000238418579" fill="rgb(70, 150, 179)" opacity="1.0"/>
    <path d="M 266.3562316894531 130.78793334960938 C 265.29443359375 132.51637268066406 264.19012451171875 134.476806640625 264.6266784667969 136.4564666748047 C 265.0968933105469 138.58277893066406 267.2665710449219 139.9687042236328 269.41864013671875 140.3014373779297 C 270.24835205078125 140.43006896972656 271.1304016113281 140.43032836914062 271.8880920410156 140.0687713623047 C 272.51104736328125 139.77178955078125 272.9995422363281 139.2567596435547 273.4435729980469 138.7286376953125 C 274.84576416015625 137.06488037109375 276.00787353515625 134.99508666992188 275.8036193847656 132.82933044433594 C 275.5962219238281 130.64671325683594 273.860107421875 128.68923950195312 271.71331787109375 128.2346954345703 C 269.5665283203125 127.7801513671875 267.1788024902344 128.84194946289062 266.0931701660156 130.75064086914062 L 266.3562316894531 130.78793334960938" stroke-width="0.6000000238418579" fill="rgb(140, 28, 33)" opacity="1.0"/>
    <path d="M 316.8558654785156 116.517822265625 C 314.9635314941406 117.30038452148438 313.00311279296875 118.13552856445312 311.6107177734375 119.63905334472656 C 310.21832275390625 121.14256286621094 309.5552673339844 123.53518676757812 310.61517333984375 125.28857421875 C 311.9283447265625 127.45004272460938 315.31689453125 127.54373168945312 317.2918395996094 125.95654296875 C 319.26678466796875 124.36933898925781 320.0343322753906 121.69198608398438 320.14019775390625 119.16366577148438 C 320.25140380859375 118.38427734375 320.06640625 117.59156799316406 319.6216735839844 116.94195556640625 C 319.11895751953125 116.35275268554688 317.9940490722656 116.27337646484375 317.6505126953125 116.97181701660156 L 316.8558654785156 116.517822265625" stroke-width="0.6000000238418579" fill="rgb(159, 159, 159)" opacity="1.0"/>
    <path d="M 199.2193603515625 130.38987731933594 C 197.8651123046875 129.3075714111328 196.110595703125 128.66566467285156 194.38958740234375 128.86651611328125 C 192.6685791015625 129.06736755371094 191.02706909179688 130.19229125976562 190.42581176757812 131.8251190185547 C 190.002197265625 132.98007202148438 190.11984252929688 134.29017639160156 190.58303833007812 135.43101501464844 C 191.04620361328125 136.5718536376953 191.83074951171875 137.55809020996094 192.71908569335938 138.4109649658203 C 193.10589599609375 138.78189086914062 193.53848266601562 139.14297485351562 194.06243896484375 139.2489013671875 C 194.66302490234375 139.37062072753906 195.2725830078125 139.1355438232422 195.83056640625 138.8776397705078 C 197.40585327148438 138.1494903564453 198.92953491210938 137.15219116210938 199.831298828125 135.66920471191406 C 200.73309326171875 134.18621826171875 200.86175537109375 132.13499450683594 199.781494140625 130.78201293945312 L 199.2193603515625 130.38987731933594" stroke-width="0.6000000238418579" fill="rgb(159, 159, 159)" opacity="1.0"/>
    <path d="M 281.3873291015625 105.14216613769531 C 279.4535827636719 105.86831665039062 277.3356018066406 106.75924682617188 276.4646911621094 108.6278076171875 C 275.6151428222656 110.44378662109375 276.2228088378906 112.57704162597656 276.874755859375 114.47390747070312 C 277.1407165527344 115.24411010742188 277.4312438964844 116.04559326171875 278.029541015625 116.59806823730469 C 279.0409240722656 117.53305053710938 280.6100158691406 117.48696899414062 281.9493103027344 117.17422485351562 C 283.1925048828125 116.88441467285156 284.3876647949219 116.41758728027344 285.4981994628906 115.78805541992188 C 287.3017272949219 114.76651000976562 288.9869079589844 113.03750610351562 288.9037170410156 110.9671630859375 C 288.8604431152344 109.84939575195312 288.29052734375 108.79837036132812 287.5307312011719 107.97506713867188 C 286.77093505859375 107.15176391601562 285.82391357421875 106.52665710449219 284.8802185058594 105.92288208007812 C 283.9365234375 105.319091796875 282.9963073730469 104.74603271484375 281.9143371582031 104.58677673339844 L 281.3873291015625 105.14216613769531" stroke-width="0.6000000238418579" fill="rgb(218, 166, 20)" opacity="1.0"/>
    <path d="M 242.2230224609375 121.9970703125 C 240.453125 124.96554565429688 241.4248046875 128.80674743652344 244.39328002929688 130.5766143798828 C 244.6474609375 130.72817993164062 244.912109375 130.86151123046875 245.18515014648438 130.97561645507812 C 246.2227783203125 131.40899658203125 247.43145751953125 131.549072265625 248.46746826171875 131.1131591796875 C 249.343017578125 130.744873046875 250.00921630859375 130.01170349121094 250.56784057617188 129.24429321289062 C 252.06033325195312 127.18804931640625 252.97503662109375 124.76969909667969 253.21694946289062 122.24044799804688 C 253.27975463867188 121.57177734375 253.29165649414062 120.87773132324219 253.05120849609375 120.24911499023438 C 252.64813232421875 119.19352722167969 251.58990478515625 118.50566101074219 250.49749755859375 118.21383666992188 C 248.87594604492188 117.77947998046875 247.1048583984375 118.08132934570312 245.62429809570312 118.87335205078125 C 244.14373779296875 119.66535949707031 242.93978881835938 120.91630554199219 242.04730224609375 122.33836364746094 L 242.2230224609375 121.9970703125" stroke-width="0.6000000238418579" fill="rgb(143, 165, 67)" opacity="1.0"/>
    <path d="M 249.1741943359375 94.06509399414062 C 247.91619873046875 97.79948425292969 252.17034912109375 101.98078918457031 255.9451904296875 100.94180297851562 C 259.7200012207031 99.90278625488281 261.30560302734375 94.45523071289062 258.8842468261719 91.34481811523438 C 256.4628601074219 88.23443603515625 251.1507568359375 88.21612548828125 248.486328125 91.12596130371094 L 249.1741943359375 94.06509399414062" stroke-width="0.6000000238418579" fill="rgb(233, 92, 21)" opacity="1.0"/>
    <path d="M 338.480224609375 85.92640686035156 C 336.51275634765625 85.40547180175781 334.1085510253906 84.98725891113281 332.7055969238281 86.47125244140625 C 332.1702575683594 87.08355712890625 331.8381042480469 87.84689331054688 331.7549743652344 88.65594482421875 C 331.4954528808594 90.65225219726562 332.2196044921875 92.6505126953125 333.69781494140625 94.01705932617188 C 334.9547119140625 95.17304992675781 336.62176513671875 95.7244873046875 338.2450256347656 96.22000122070312 C 339.1573486328125 96.49685668945312 340.1354675292969 96.76194763183594 341.0437927246094 96.49002075195312 C 342.2515563964844 96.11763000488281 342.97955322265625 94.89962768554688 343.4571533203125 93.72988891601562 C 344.15826416015625 92.01885986328125 344.57781982421875 90.20562744140625 344.69952392578125 88.36050415039062 C 344.7403259277344 87.72291564941406 344.7403259277344 87.05291748046875 344.45391845703125 86.4820556640625 C 344.1604919433594 85.96488952636719 343.722900390625 85.54426574707031 343.19451904296875 85.271484375 C 341.6239929199219 84.3817138671875 339.7421875 84.22567749023438 338.0465393066406 84.84466552734375 L 338.480224609375 85.92640686035156" stroke-width="0.6000000238418579" fill="rgb(70, 150, 179)" opacity="1.0"/>
    <path d="M 334.6107177734375 121.71031188964844 C 333.9621887207031 119.94464111328125 333.1692199707031 118.0147705078125 331.477294921875 117.19561767578125 C 329.6592712402344 116.3167724609375 327.4042053222656 117.100341796875 325.9259948730469 118.47598266601562 C 325.3558349609375 119.00613403320312 324.84906005859375 119.64814758300781 324.6771240234375 120.40737915039062 C 324.5355529785156 121.03147888183594 324.62994384765625 121.68289184570312 324.7594299316406 122.3094482421875 C 325.16534423828125 124.28579711914062 326.0047302246094 126.320556640625 327.6987609863281 127.41567993164062 C 329.4068298339844 128.51821899414062 331.8289489746094 128.37852478027344 333.392822265625 127.07669067382812 C 334.9566650390625 125.77487182617188 335.55499267578125 123.4267578125 334.7889404296875 121.54022216796875 L 334.6107177734375 121.71031188964844" stroke-width="0.6000000238418579" fill="rgb(140, 28, 33)" opacity="1.0"/>
    <path d="M 355.7635498046875 105.64013671875 C 354.25628662109375 105.89418029785156 352.6907043457031 106.17514038085938 351.4270324707031 107.03704833984375 C 350.1634216308594 107.89895629882812 349.2822570800781 109.52932739257812 349.76123046875 110.98171997070312 C 350.35650634765625 112.77323913574219 352.8063659667969 113.40609741210938 354.5078430175781 112.58038330078125 C 356.2093200683594 111.75465393066406 357.2139587402344 109.93452453613281 357.7123107910156 108.11256408691406 C 357.923095703125 107.56402587890625 357.92059326171875 106.9564208984375 357.70526123046875 106.40963745117188 C 357.43768310546875 105.89718627929688 356.6324157714844 105.65196228027344 356.2660827636719 106.10289001464844 L 355.7635498046875 105.64013671875" stroke-width="0.6000000238418579" fill="rgb(159, 159, 159)" opacity="1.0"/>
    <path d="M 350.8569030761719 122.36506652832031 C 348.94952392578125 122.87448120117188 347.17510986328125 124.04852294921875 346.19573974609375 125.76153564453125 C 345.21636962890625 127.47454833984375 345.1376037597656 129.73939514160156 346.2275695800781 131.39425659179688 C 346.9996643066406 132.5632781982422 348.27984619140625 133.3411102294922 349.63848876953125 133.6878662109375 C 350.9971618652344 134.03460693359375 352.4313659667969 133.98236083984375 353.81353759765625 133.74478149414062 C 354.41497802734375 133.64105224609375 355.038330078125 133.4886932373047 355.4895935058594 133.08013916015625 C 356.0072021484375 132.6119842529297 356.2038269042969 131.89443969726562 356.3446960449219 131.20870971679688 C 356.7422790527344 129.27279663085938 356.8583679199219 127.20220947265625 356.10888671875 125.37322998046875 C 355.3594055175781 123.54425048828125 353.5665283203125 122.03964233398438 351.5962829589844 122.11500549316406 L 350.8569030761719 122.36506652832031" stroke-width="0.6000000238418579" fill="rgb(159, 159, 159)" opacity="1.0"/>
    <path d="M 365.2350769042969 109.99078369140625 C 363.0637512207031 110.38613891601562 360.6673278808594 110.919677734375 359.39599609375 112.71844482421875 C 358.1571350097656 114.46603393554688 358.38995361328125 116.8245849609375 358.71429443359375 118.94300842285156 C 358.8473205566406 119.80340576171875 359.00018310546875 120.70138549804688 359.5240783691406 121.3961181640625 C 360.409423828125 122.57168579101562 362.06793212890625 122.8218994140625 363.53558349609375 122.74801635742188 C 364.8978271484375 122.67997741699219 366.2432556152344 122.41667175292969 367.5306701660156 121.9661865234375 C 369.621337890625 121.2354736328125 371.72222900390625 119.7384033203125 372.0288391113281 117.54586791992188 C 372.19610595703125 116.3624267578125 371.7969970703125 115.14889526367188 371.1548767089844 114.13865661621094 C 370.51275634765625 113.12841796875 369.6360778808594 112.29092407226562 368.7588195800781 111.47648620605469 C 367.881591796875 110.66204833984375 367.00213623046875 109.88055419921875 365.8948974609375 109.50717163085938 L 365.2350769042969 109.99078369140625" stroke-width="0.6000000238418579" fill="rgb(218, 166, 20)" opacity="1.0"/>
    <path d="M 433.2890625 157.89849853515625 C 429.61785888671875 158.29803466796875 426.96563720703125 161.59796142578125 427.3651123046875 165.2691650390625 C 427.3992919921875 165.58352661132812 427.455810546875 165.89508056640625 427.53411865234375 166.20144653320312 C 427.83184814453125 167.36553955078125 428.4898681640625 168.48687744140625 429.5281982421875 169.09039306640625 C 430.4056396484375 169.6004638671875 431.459716796875 169.69723510742188 432.47381591796875 169.68020629882812 C 435.188232421875 169.630859375 437.8399658203125 168.85562133789062 440.153564453125 167.43499755859375 C 440.76446533203125 167.0584716796875 441.3642578125 166.62213134765625 441.74591064453125 166.01263427734375 C 442.38726806640625 164.98968505859375 442.29339599609375 163.64431762695312 441.839599609375 162.52456665039062 C 441.1671142578125 160.86166381835938 439.77032470703125 159.54473876953125 438.14215087890625 158.79104614257812 C 436.5140380859375 158.03732299804688 434.6722412109375 157.8148193359375 432.88482666015625 157.9681396484375 L 433.2890625 157.89849853515625" stroke-width="0.6000000238418579" fill="rgb(143, 165, 67)" opacity="1.0"/>
    <path d="M 143.23313903808594 417.572998046875 C 140.84625244140625 420.70947265625 143.54002380371094 426.032958984375 147.44972229003906 426.256103515625 C 151.35943603515625 426.4791259765625 154.6049041748047 421.82391357421875 153.30535888671875 418.10162353515625 C 152.00582885742188 414.3792724609375 146.97756958007812 412.6624755859375 143.5216064453125 414.56756591796875 L 143.23313903808594 417.572998046875" stroke-width="0.6000000238418579" fill="rgb(233, 92, 21)" opacity="1.0"/>
    <path d="M 436.88153076171875 183.55328369140625 C 434.7479248046875 183.802734375 432.2252197265625 184.32196044921875 431.42144775390625 186.32196044921875 C 431.132568359375 187.13031005859375 431.1016845703125 188.00839233398438 431.3330078125 188.8350830078125 C 431.8502197265625 190.8958740234375 433.3343505859375 192.57809448242188 435.3145751953125 193.34832763671875 C 436.9959716796875 193.99737548828125 438.8463134765625 193.89410400390625 440.632080078125 193.7528076171875 C 441.6351318359375 193.67178344726562 442.69818115234375 193.55377197265625 443.4849853515625 192.93539428710938 C 444.52703857421875 192.1025390625 444.7708740234375 190.62484741210938 444.787353515625 189.2913818359375 C 444.8140869140625 187.33993530273438 444.52471923828125 185.39700317382812 443.9305419921875 183.53799438476562 C 443.7239990234375 182.89605712890625 443.46484375 182.2381591796875 442.9627685546875 181.788330078125 C 442.474609375 181.3939208984375 441.88214111328125 181.150146484375 441.2578125 181.08663940429688 C 439.371337890625 180.82034301757812 437.46295166015625 181.39501953125 436.0372314453125 182.65872192382812 L 436.88153076171875 183.55328369140625" stroke-width="0.6000000238418579" fill="rgb(70, 150, 179)" opacity="1.0"/>
    <path d="M 409.551025390625 158.77459716796875 C 408.88092041015625 156.69192504882812 408.05072021484375 154.41156005859375 406.12322998046875 153.37948608398438 C 404.0519714355469 152.2720489501953 401.3941345214844 153.07591247558594 399.611083984375 154.6046600341797 C 398.9233703613281 155.19378662109375 398.30401611328125 155.91592407226562 398.0682678222656 156.7901611328125 C 397.87420654296875 157.50872802734375 397.95306396484375 158.270263671875 398.0738525390625 159.00454711914062 C 398.4520263671875 161.32058715820312 399.33123779296875 163.72503662109375 401.24810791015625 165.07794189453125 C 403.18096923828125 166.44012451171875 406.00250244140625 166.3924560546875 407.881591796875 164.95355224609375 C 409.7606506347656 163.5146484375 410.5671691894531 160.81411743164062 409.7662048339844 158.58538818359375 L 409.551025390625 158.77459716796875" stroke-width="0.6000000238418579" fill="rgb(140, 28, 33)" opacity="1.0"/>
    <path d="M 145.86346435546875 116.16555786132812 C 144.68081665039062 116.92974853515625 143.45863342285156 117.73794555664062 142.70358276367188 118.92767333984375 C 141.9485626220703 120.11737060546875 141.79718017578125 121.81784057617188 142.73167419433594 122.87210083007812 C 143.88812255859375 124.1708984375 146.1914825439453 123.8135986328125 147.33010864257812 122.49496459960938 C 148.46875 121.17633056640625 148.65545654296875 119.27032470703125 148.41317749023438 117.5472412109375 C 148.39161682128906 117.00633239746094 148.1680908203125 116.49317932128906 147.78668212890625 116.10903930664062 C 147.37353515625 115.77297973632812 146.60289001464844 115.85894775390625 146.45726013183594 116.37396240234375 L 145.86346435546875 116.16555786132812" stroke-width="0.6000000238418579" fill="rgb(159, 159, 159)" opacity="1.0"/>
    <path d="M 417.54498291015625 177.7679443359375 C 415.81341552734375 176.36669921875 413.56402587890625 175.52822875976562 411.35113525390625 175.77285766601562 C 409.1382751464844 176.01748657226562 407.02032470703125 177.45004272460938 406.2350158691406 179.5433349609375 C 405.6816711425781 181.0240478515625 405.8226318359375 182.70831298828125 406.4088439941406 184.17776489257812 C 406.9950866699219 185.64724731445312 407.9953918457031 186.92059326171875 409.1301574707031 188.02337646484375 C 409.624267578125 188.50299072265625 410.1772766113281 188.9703369140625 410.8496398925781 189.11053466796875 C 411.62042236328125 189.2716064453125 412.405517578125 188.97433471679688 413.1243896484375 188.6473388671875 C 415.1541748046875 187.72406005859375 417.1197509765625 186.45452880859375 418.2900390625 184.55609130859375 C 419.46026611328125 182.65765380859375 419.6416015625 180.0230712890625 418.26416015625 178.27621459960938 L 417.54498291015625 177.7679443359375" stroke-width="0.6000000238418579" fill="rgb(159, 159, 159)" opacity="1.0"/>
    <path d="M 406.93963623046875 185.079345703125 C 406.02032470703125 183.2767333984375 404.9203796386719 181.31283569335938 403.0057373046875 180.67031860351562 C 401.1446228027344 180.0428466796875 399.134765625 180.86874389648438 397.35986328125 181.71173095703125 C 396.63934326171875 182.05526733398438 395.89105224609375 182.4261474609375 395.4189758300781 183.06927490234375 C 394.6199035644531 184.156494140625 394.837158203125 185.67886352539062 395.2887268066406 186.9482421875 C 395.7074279785156 188.12664794921875 396.29315185546875 189.23876953125 397.0279846191406 190.25064086914062 C 398.2205505371094 191.89407348632812 400.0887756347656 193.3446044921875 402.0950012207031 193.0361328125 C 403.1783447265625 192.8712158203125 404.1388854980469 192.20098876953125 404.8568420410156 191.37091064453125 C 405.5748291015625 190.54083251953125 406.0793151855469 189.55029296875 406.5633850097656 188.5653076171875 C 407.0474548339844 187.580322265625 407.50201416015625 186.60211181640625 407.5381774902344 185.5313720703125 L 406.93963623046875 185.079345703125" stroke-width="0.6000000238418579" fill="rgb(218, 166, 20)" opacity="1.0"/>
    <path d="M 448.6668701171875 179.93829345703125 C 447.154296875 182.88992309570312 448.32086181640625 186.5089111328125 451.2724609375 188.021484375 C 451.5252685546875 188.15103149414062 451.786865234375 188.262451171875 452.055419921875 188.35498046875 C 453.0758056640625 188.70623779296875 454.241943359375 188.76611328125 455.207275390625 188.28500366210938 C 456.023193359375 187.87847900390625 456.6160888671875 187.13540649414062 457.10400390625 186.36614990234375 C 458.406982421875 184.30517578125 459.1343994140625 181.93292236328125 459.21063232421875 179.49578857421875 C 459.229736328125 178.8515625 459.198486328125 178.1861572265625 458.9295654296875 177.598876953125 C 458.47869873046875 176.61273193359375 457.4229736328125 176.01901245117188 456.3587646484375 175.806640625 C 454.7791748046875 175.49029541015625 453.1015625 175.88821411132812 451.7322998046875 176.73770141601562 C 450.363037109375 177.58718872070312 449.286865234375 178.85919189453125 448.51953125 180.27593994140625 L 448.6668701171875 179.93829345703125" stroke-width="0.6000000238418579" fill="rgb(143, 165, 67)" opacity="1.0"/>
    <path d="M 145.4393768310547 109.17108154296875 C 142.26515197753906 110.82907104492188 142.42507934570312 116.24760437011719 145.5545196533203 117.94073486328125 C 148.6839599609375 119.63385009765625 153.1507568359375 117.05831909179688 153.5192413330078 113.49508666992188 C 153.88772583007812 109.93185424804688 150.41513061523438 106.57823181152344 146.8371124267578 106.81063842773438 L 145.4393768310547 109.17108154296875" stroke-width="0.6000000238418579" fill="rgb(233, 92, 21)" opacity="1.0"/>
    <path d="M 449.89337158203125 151.45809936523438 C 448.7689208984375 153.0323944091797 447.5889892578125 155.029541015625 448.43701171875 156.7757568359375 C 448.80145263671875 157.45758056640625 449.3685302734375 158.00946044921875 450.05999755859375 158.35528564453125 C 451.747802734375 159.25701904296875 453.7679443359375 159.28475952148438 455.4798583984375 158.4296875 C 456.93017578125 157.70062255859375 457.98077392578125 156.40371704101562 458.9669189453125 155.1269073486328 C 459.519775390625 154.4087677001953 460.084228515625 153.628173828125 460.147705078125 152.7291259765625 C 460.2225341796875 151.5300750732422 459.38421630859375 150.473388671875 458.504638671875 149.65557861328125 C 457.2188720703125 148.45709228515625 455.7476806640625 147.47462463378906 454.14794921875 146.74627685546875 C 453.59478759765625 146.4956817626953 452.9990234375 146.27052307128906 452.39520263671875 146.3332977294922 C 451.83673095703125 146.42039489746094 451.315673828125 146.66810607910156 450.8955078125 147.0462188720703 C 449.5765380859375 148.1436309814453 448.8052978515625 149.76441955566406 448.7857666015625 151.4801483154297 L 449.89337158203125 151.45809936523438" stroke-width="0.6000000238418579" fill="rgb(70, 150, 179)" opacity="1.0"/>
    <path d="M 375.9485778808594 80.90737915039062 C 375.6310729980469 78.68846130371094 375.18597412109375 76.2423095703125 373.4173889160156 74.86753845214844 C 371.5166320800781 73.39187622070312 368.6938171386719 73.74526977539062 366.6294250488281 74.98161315917969 C 365.833251953125 75.45794677734375 365.0832214355469 76.08041381835938 364.6943359375 76.92263793945312 C 364.3743896484375 77.6148681640625 364.32269287109375 78.39753723144531 364.3180236816406 79.15994262695312 C 364.30047607421875 81.56417846679688 364.7736511230469 84.14408874511719 366.4761657714844 85.84103393554688 C 368.1932067871094 87.55010986328125 371.0509338378906 87.98863220214844 373.1968078613281 86.85958862304688 C 375.34271240234375 85.73054504394531 376.62298583984375 83.14234924316406 376.1985168457031 80.75338745117188 L 375.9485778808594 80.90737915039062" stroke-width="0.6000000238418579" fill="rgb(140, 28, 33)" opacity="1.0"/>
    <path d="M 128.595947265625 411.28680419921875 C 126.22462463378906 412.5101318359375 123.77061462402344 413.80926513671875 122.12738037109375 415.9139404296875 C 120.48416137695312 418.0186767578125 119.88528442382812 421.19793701171875 121.45355224609375 423.3585205078125 C 123.39532470703125 426.0211181640625 127.80537414550781 425.77166748046875 130.1958465576172 423.4945068359375 C 132.5863037109375 421.21734619140625 133.2896728515625 417.65692138671875 133.15020751953125 414.36248779296875 C 133.20921325683594 413.33837890625 132.88217163085938 412.329345703125 132.23361206054688 411.5345764160156 C 131.51632690429688 410.8246154785156 130.04702758789062 410.8447570800781 129.67745971679688 411.78924560546875 L 128.595947265625 411.28680419921875" stroke-width="0.6000000238418579" fill="rgb(159, 159, 159)" opacity="1.0"/>
    <path d="M 410.6746826171875 205.37149047851562 C 409.6129455566406 203.69866943359375 407.9549560546875 202.3531494140625 406.02020263671875 201.93099975585938 C 404.0854187011719 201.50885009765625 401.8933410644531 202.11502075195312 400.6369934082031 203.65655517578125 C 399.7501220703125 204.74755859375 399.39068603515625 206.20730590820312 399.4675598144531 207.6124267578125 C 399.5444641113281 209.017578125 400.0260925292969 210.37493896484375 400.66949462890625 211.62673950195312 C 400.9497985839844 212.17132568359375 401.28326416015625 212.7222900390625 401.8102111816406 213.0313720703125 C 402.4141845703125 213.38604736328125 403.16033935546875 213.35836791992188 403.8592529296875 213.286865234375 C 405.83233642578125 213.0849609375 407.84967041015625 212.57293701171875 409.37518310546875 211.30499267578125 C 410.90069580078125 210.03704833984375 411.8016662597656 207.86776733398438 411.1365966796875 206.004150390625 L 410.6746826171875 205.37149047851562" stroke-width="0.6000000238418579" fill="rgb(159, 159, 159)" opacity="1.0"/>
    <path d="M 386.74017333984375 118.82470703125 C 384.8122863769531 119.5926513671875 382.7026062011719 120.52978515625 381.8650817871094 122.42404174804688 C 381.0479736328125 124.26507568359375 381.70086669921875 126.39573669433594 382.3935241699219 128.28807067871094 C 382.6760559082031 129.05638122558594 382.9838562011719 129.85565185546875 383.5958251953125 130.39866638183594 C 384.63037109375 131.31765747070312 386.2055358886719 131.24008178710938 387.5445861816406 130.89923095703125 C 388.78753662109375 130.58334350585938 389.9787292480469 130.09060668945312 391.0816345214844 129.4361114501953 C 392.87286376953125 128.37405395507812 394.5310974121094 126.60374450683594 394.40625 124.52581787109375 C 394.3404846191406 123.4039306640625 393.7470703125 122.35957336425781 392.96746826171875 121.54776000976562 C 392.1878662109375 120.73593139648438 391.2241516113281 120.12692260742188 390.26422119140625 119.53926086425781 C 389.30426025390625 118.95159912109375 388.3484191894531 118.39472961425781 387.2584533691406 118.25634765625 L 386.74017333984375 118.82470703125" stroke-width="0.6000000238418579" fill="rgb(218, 166, 20)" opacity="1.0"/>
    <path d="M 401.8230285644531 82.90403747558594 C 399.2425231933594 80.57830810546875 395.26519775390625 80.78483581542969 392.939453125 83.3653564453125 C 392.74029541015625 83.58631896972656 392.5570983886719 83.82113647460938 392.39117431640625 84.06805419921875 C 391.7608642578125 85.00633239746094 391.3863220214844 86.17060852050781 391.6134033203125 87.27734375 C 391.80523681640625 88.21261596679688 392.39776611328125 89.01289367675781 393.04510498046875 89.71380615234375 C 394.7804870605469 91.58760070800781 396.98590087890625 92.96257019042969 399.43231201171875 93.69587707519531 C 400.07928466796875 93.88862609863281 400.7612609863281 94.0361328125 401.4281005859375 93.92202758789062 C 402.5476989746094 93.73114013671875 403.43292236328125 92.82232666015625 403.9343566894531 91.80235290527344 C 404.6798400878906 90.28857421875 404.72869873046875 88.48332214355469 404.2374572753906 86.86862182617188 C 403.7462158203125 85.25393676757812 402.7483825683594 83.82217407226562 401.5209045410156 82.66400146484375 L 401.8230285644531 82.90403747558594" stroke-width="0.6000000238418579" fill="rgb(143, 165, 67)" opacity="1.0"/>
    <path d="M 116.649658203125 422.76141357421875 C 114.62788391113281 419.7039794921875 109.12789916992188 420.4364013671875 107.73306274414062 423.80059814453125 C 106.3382568359375 427.164794921875 109.43008422851562 431.44183349609375 113.0966796875 431.4423828125 C 116.76327514648438 431.44293212890625 119.8126220703125 427.5548095703125 119.1998291015625 423.93634033203125 L 116.649658203125 422.76141357421875" stroke-width="0.6000000238418579" fill="rgb(233, 92, 21)" opacity="1.0"/>
    <path d="M 445.019287109375 195.64111328125 C 443.9332275390625 197.21926879882812 442.799560546875 199.217041015625 443.6693115234375 200.93130493164062 C 444.0419921875 201.60003662109375 444.613037109375 202.13665771484375 445.3035888671875 202.46710205078125 C 446.990234375 203.3306884765625 448.99090576171875 203.3232421875 450.6710205078125 202.447021484375 C 452.0943603515625 201.70010375976562 453.1121826171875 200.39785766601562 454.06646728515625 199.11663818359375 C 454.60137939453125 198.39605712890625 455.146728515625 197.6134033203125 455.194091796875 196.72216796875 C 455.2474365234375 195.53369140625 454.39910888671875 194.50198364257812 453.51416015625 193.70748901367188 C 452.22039794921875 192.54312133789062 450.7467041015625 191.5958251953125 449.1502685546875 190.90237426757812 C 448.5982666015625 190.663818359375 448.0045166015625 190.45120239257812 447.40771484375 190.5238037109375 C 446.8563232421875 190.61968994140625 446.34466552734375 190.87396240234375 445.93524169921875 191.255615234375 C 444.6483154296875 192.36495971679688 443.9127197265625 193.9830322265625 443.923095703125 195.68209838867188 L 445.019287109375 195.64111328125" stroke-width="0.6000000238418579" fill="rgb(70, 150, 179)" opacity="1.0"/>
    <path d="M 413.366943359375 134.7748565673828 C 412.861572265625 132.68829345703125 412.2138671875 130.396728515625 410.4020690917969 129.2475128173828 C 408.455078125 128.01417541503906 405.7960205078125 128.60890197753906 403.9407043457031 129.97618103027344 C 403.2251281738281 130.5030517578125 402.5668640136719 131.16502380371094 402.27301025390625 132.00352478027344 C 402.03118896484375 132.69273376464844 402.0533752441406 133.44366455078125 402.1185607910156 134.1709747314453 C 402.3213806152344 136.46482849121094 403.00811767578125 138.88136291503906 404.78631591796875 140.34378051757812 C 406.5794677734375 141.81643676757812 409.3441162109375 141.9735565185547 411.28692626953125 140.7011260986328 C 413.229736328125 139.42869567871094 414.21405029296875 136.84413146972656 413.5911865234375 134.60520935058594 L 413.366943359375 134.7748565673828" stroke-width="0.6000000238418579" fill="rgb(140, 28, 33)" opacity="1.0"/>
    <path d="M 401.2272033691406 77.03352355957031 C 401.7786865234375 79.693603515625 402.3818664550781 82.45549011230469 403.99676513671875 84.64247131347656 C 405.6116638183594 86.82942199707031 408.56591796875 88.28591918945312 411.1136169433594 87.33857727050781 C 414.255859375 86.16213989257812 415.216796875 81.76889038085938 413.6370849609375 78.80192565917969 C 412.05731201171875 75.8349609375 408.7577819824219 74.17178344726562 405.48870849609375 73.40789794921875 C 404.5004577636719 73.07003784179688 403.4214782714844 73.11491394042969 402.4646911621094 73.53369140625 C 401.57232666015625 74.04306030273438 401.1903991699219 75.48954772949219 402.0156555175781 76.11021423339844 L 401.2272033691406 77.03352355957031" stroke-width="0.6000000238418579" fill="rgb(159, 159, 159)" opacity="1.0"/>
    <path d="M 441.2969970703125 234.2314453125 C 440.09686279296875 235.8070068359375 439.410400390625 237.828125 439.68560791015625 239.7884521484375 C 439.9608154296875 241.74880981445312 441.2894287109375 243.59375 443.17041015625 244.23703002929688 C 444.5008544921875 244.69012451171875 445.99407958984375 244.5208740234375 447.2847900390625 243.96145629882812 C 448.57550048828125 243.40203857421875 449.6810302734375 242.479736328125 450.631591796875 241.4423828125 C 451.044921875 240.99069213867188 451.44580078125 240.48699951171875 451.5528564453125 239.8857421875 C 451.6759033203125 239.19647216796875 451.39117431640625 238.50653076171875 451.081787109375 237.87606811523438 C 450.2081298828125 236.09619140625 449.0284423828125 234.3824462890625 447.3106689453125 233.39193725585938 C 445.5927734375 232.40142822265625 443.24652099609375 232.30908203125 441.72991943359375 233.57894897460938 L 441.2969970703125 234.2314453125" stroke-width="0.6000000238418579" fill="rgb(159, 159, 159)" opacity="1.0"/>
    <path d="M 409.5974426269531 259.9989318847656 C 408.3704833984375 258.3625793457031 406.9357604980469 256.5968322753906 404.91802978515625 256.28778076171875 C 402.9561767578125 255.98443603515625 401.0973205566406 257.1542053222656 399.47540283203125 258.3003845214844 C 398.81719970703125 258.7669677734375 398.1360778808594 259.2655944824219 397.7770690917969 259.98760986328125 C 397.16912841796875 261.2084045410156 397.6485290527344 262.68695068359375 398.31756591796875 263.8730773925781 C 398.9381103515625 264.9742431640625 399.71356201171875 265.9805908203125 400.62017822265625 266.861328125 C 402.0917663574219 268.29193115234375 404.202880859375 269.4136657714844 406.1475524902344 268.7598876953125 C 407.19793701171875 268.4084777832031 408.0386962890625 267.5750427246094 408.61029052734375 266.62432861328125 C 409.181884765625 265.67364501953125 409.51312255859375 264.60003662109375 409.82501220703125 263.5354919433594 C 410.1369323730469 262.470947265625 410.42059326171875 261.418212890625 410.2716064453125 260.3456726074219 L 409.5974426269531 259.9989318847656" stroke-width="0.6000000238418579" fill="rgb(218, 166, 20)" opacity="1.0"/>
    <path d="M 414.4364013671875 85.92990112304688 C 412.9052734375 88.97489929199219 414.1324462890625 92.68463134765625 417.17742919921875 94.2158203125 C 417.43817138671875 94.346923828125 417.7078857421875 94.45938110351562 417.9844970703125 94.55233764648438 C 419.03582763671875 94.90530395507812 420.234619140625 94.95767211914062 421.222900390625 94.45570373535156 C 422.05810546875 94.03157043457031 422.66162109375 93.26332092285156 423.1568603515625 92.468994140625 C 424.47967529296875 90.34091186523438 425.20855712890625 87.8974609375 425.267822265625 85.39247131347656 C 425.2823486328125 84.73030090332031 425.2449951171875 84.04676818847656 424.96405029296875 83.44540405273438 C 424.49298095703125 82.43557739257812 423.4034423828125 81.833740234375 422.3082275390625 81.62387084960938 C 420.68255615234375 81.31118774414062 418.9617919921875 81.73324584960938 417.5614013671875 82.61692810058594 C 416.1610107421875 83.5006103515625 415.06512451171875 84.816162109375 414.2877197265625 86.27803039550781 L 414.4364013671875 85.92990112304688" stroke-width="0.6000000238418579" fill="rgb(143, 165, 67)" opacity="1.0"/>
    <path d="M 441.299072265625 129.2598876953125 C 439.3414306640625 132.53408813476562 442.50634765625 137.3640594482422 446.291015625 137.15707397460938 C 450.0755615234375 136.95005798339844 452.6953125 132.12252807617188 451.0439453125 128.682373046875 C 449.3927001953125 125.24221801757812 444.37115478515625 124.13299560546875 441.25244140625 126.33805847167969 L 441.299072265625 129.2598876953125" stroke-width="0.6000000238418579" fill="rgb(233, 92, 21)" opacity="1.0"/>
    <path d="M 444.53753662109375 95.81135559082031 C 443.709716796875 97.5810546875 442.9044189453125 99.78085327148438 444.06695556640625 101.35939025878906 C 444.5540771484375 101.96957397460938 445.21844482421875 102.41357421875 445.96856689453125 102.63015747070312 C 447.81011962890625 103.2159423828125 449.82135009765625 102.872802734375 451.364501953125 101.70954895019531 C 452.67095947265625 100.71943664550781 453.476318359375 99.23873901367188 454.22137451171875 97.78982543945312 C 454.6385498046875 96.97525024414062 455.055908203125 96.09649658203125 454.9539794921875 95.1920166015625 C 454.8082275390625 93.987548828125 453.7818603515625 93.09201049804688 452.75836181640625 92.44126892089844 C 451.2615966796875 91.48701477050781 449.620361328125 90.78131103515625 447.8980712890625 90.35153198242188 C 447.302734375 90.20419311523438 446.6697998046875 90.08990478515625 446.0816650390625 90.26303100585938 C 445.5430908203125 90.45199584960938 445.071044921875 90.79360961914062 444.7232666015625 91.24618530273438 C 443.61474609375 92.5780029296875 443.146240234375 94.32907104492188 443.441650390625 96.03646850585938 L 444.53753662109375 95.81135559082031" stroke-width="0.6000000238418579" fill="rgb(70, 150, 179)" opacity="1.0"/>
    <path d="M 319.09197998046875 382.28448486328125 C 316.7281799316406 382.68988037109375 314.1251525878906 383.2384948730469 312.7072448730469 385.17083740234375 C 311.1853332519531 387.2475280761719 311.64703369140625 390.25616455078125 313.03057861328125 392.42742919921875 C 313.56365966796875 393.26483154296875 314.25164794921875 394.0485534667969 315.1639709472656 394.4394836425781 C 315.9138488769531 394.76116943359375 316.7524719238281 394.7932434082031 317.5680236816406 394.7756042480469 C 320.13995361328125 394.72308349609375 322.8852233886719 394.1404724121094 324.6496887207031 392.2692565917969 C 326.4266662597656 390.3821105957031 326.8109130859375 387.3126525878906 325.5397033691406 385.0510559082031 C 324.2685241699219 382.7894287109375 321.4623718261719 381.49688720703125 318.91986083984375 382.021728515625 L 319.09197998046875 382.28448486328125" stroke-width="0.6000000238418579" fill="rgb(140, 28, 33)" opacity="1.0"/>
    <path d="M 305.8786315917969 396.4683837890625 C 302.7854309082031 397.5000305175781 299.5781555175781 398.6076354980469 297.198486328125 400.8403015136719 C 294.8188781738281 403.0729675292969 293.4984436035156 406.79937744140625 294.98614501953125 409.702880859375 C 296.83056640625 413.28289794921875 302.2025146484375 413.8101806640625 305.516845703125 411.5096740722656 C 308.8311462402344 409.20916748046875 310.3493957519531 405.0421447753906 310.79998779296875 401.0379333496094 C 311.06365966796875 399.8123779296875 310.85833740234375 398.5325622558594 310.2245178222656 397.4510192871094 C 309.4918212890625 396.458984375 307.7138671875 396.207275390625 307.09014892578125 397.2782897949219 L 305.8786315917969 396.4683837890625" stroke-width="0.6000000238418579" fill="rgb(159, 159, 159)" opacity="1.0"/>
    <path d="M 325.3472595214844 409.00140380859375 C 323.116943359375 410.20611572265625 321.2507629394531 412.201171875 320.5381774902344 414.63250732421875 C 319.8255920410156 417.0638427734375 320.4022216796875 419.9158935546875 322.2567138671875 421.65777587890625 C 323.56939697265625 422.8876953125 325.40008544921875 423.4775390625 327.20025634765625 423.50567626953125 C 329.0004577636719 423.5338134765625 330.77606201171875 423.04107666015625 332.43145751953125 422.3323974609375 C 333.15167236328125 422.02362060546875 333.8847961425781 421.6475830078125 334.3266296386719 421.0028076171875 C 334.8335266113281 420.26385498046875 334.865234375 419.30908203125 334.8367919921875 418.41070556640625 C 334.7563781738281 415.8743896484375 334.2842102050781 413.25384521484375 332.8030700683594 411.1929931640625 C 331.3219299316406 409.13214111328125 328.63433837890625 407.7873840332031 326.1961669921875 408.4687194824219 L 325.3472595214844 409.00140380859375" stroke-width="0.6000000238418579" fill="rgb(159, 159, 159)" opacity="1.0"/>
    <path d="M 274.16522216796875 412.30328369140625 C 272.27490234375 414.0125732421875 270.24774169921875 415.9945068359375 270.0946960449219 418.533447265625 C 269.9423522949219 421.00244140625 271.6060791015625 423.1754150390625 273.2135009765625 425.0570068359375 C 273.8676452636719 425.8204345703125 274.5641174316406 426.608642578125 275.50103759765625 426.9716796875 C 277.08526611328125 427.58660888671875 278.86517333984375 426.82293701171875 280.2605285644531 425.8572998046875 C 281.5560302734375 424.9615478515625 282.7161865234375 423.8843994140625 283.70550537109375 422.65887451171875 C 285.3125915527344 420.6695556640625 286.46337890625 417.921875 285.4300842285156 415.58349609375 C 284.8740539550781 414.3203125 283.743896484375 413.37225341796875 282.49896240234375 412.7716064453125 C 281.2540283203125 412.1708984375 279.884033203125 411.8824768066406 278.5274963378906 411.6170349121094 C 277.17095947265625 411.3515930175781 275.83233642578125 411.11981201171875 274.5184631347656 411.4271545410156 L 274.16522216796875 412.30328369140625" stroke-width="0.6000000238418579" fill="rgb(218, 166, 20)" opacity="1.0"/>
    <path d="M 223.32443237304688 412.2344970703125 C 219.49298095703125 410.9967041015625 215.38360595703125 413.0992431640625 214.14581298828125 416.9306640625 C 214.03982543945312 417.2587890625 213.95724487304688 417.593994140625 213.898681640625 417.9337158203125 C 213.67642211914062 419.224853515625 213.83175659179688 420.6339111328125 214.59625244140625 421.697021484375 C 215.24224853515625 422.595458984375 216.24810791015625 423.161376953125 217.26492309570312 423.59613037109375 C 219.98825073242188 424.7562255859375 222.9725341796875 425.1658935546875 225.90771484375 424.78271484375 C 226.68341064453125 424.68011474609375 227.47467041015625 424.51312255859375 228.12603759765625 424.0765380859375 C 229.21990966796875 423.34423828125 229.72579956054688 421.9635009765625 229.77304077148438 420.6470947265625 C 229.84454345703125 418.692626953125 229.04107666015625 416.7598876953125 227.75653076171875 415.2845458984375 C 226.47198486328125 413.8092041015625 224.73822021484375 412.767333984375 222.89114379882812 412.1236572265625 L 223.32443237304688 412.2344970703125" stroke-width="0.6000000238418579" fill="rgb(143, 165, 67)" opacity="1.0"/>
    <path d="M 283.3592529296875 369.313232421875 C 283.40423583984375 374.0572814941406 289.8945007324219 377.13153076171875 293.77691650390625 374.45831298828125 C 297.6593322753906 371.78509521484375 297.30999755859375 364.9632568359375 293.3272399902344 362.3827209472656 C 289.3444519042969 359.80218505859375 283.2959899902344 361.8804016113281 281.4156188964844 366.2424621582031 L 283.3592529296875 369.313232421875" stroke-width="0.6000000238418579" fill="rgb(233, 92, 21)" opacity="1.0"/>
    <path d="M 334.0832214355469 365.1952819824219 C 333.6717834472656 367.6630554199219 333.436279296875 370.6535339355469 335.4137268066406 372.1999816894531 C 336.224609375 372.7847900390625 337.1969909667969 373.10357666015625 338.19671630859375 373.1123352050781 C 340.66973876953125 373.2005310058594 343.0321044921875 372.0845947265625 344.53466796875 370.118408203125 C 345.80499267578125 368.4472961425781 346.2882995605469 366.34368896484375 346.7081604003906 364.3000793457031 C 346.942138671875 363.1517333984375 347.1541442871094 361.9241943359375 346.7169494628906 360.84375 C 346.1224060058594 359.4084167480469 344.5480651855469 358.6574401855469 343.06158447265625 358.20733642578125 C 340.8869323730469 357.5459289550781 338.61956787109375 357.2408752441406 336.3474426269531 357.3039855957031 C 335.5624084472656 357.3273010253906 334.742431640625 357.40435791015625 334.07672119140625 357.8204650878906 C 333.47747802734375 358.239013671875 333.01300048828125 358.8229064941406 332.7398986816406 359.50091552734375 C 331.8314208984375 361.5252990722656 331.85675048828125 363.8462829589844 332.8091735839844 365.8503723144531 L 334.0832214355469 365.1952819824219" stroke-width="0.6000000238418579" fill="rgb(70, 150, 179)" opacity="1.0"/>
    <path d="M 294.4646301269531 411.85748291015625 C 291.7885437011719 412.03228759765625 288.82965087890625 412.33843994140625 287.0271911621094 414.32183837890625 C 285.0921936035156 416.45361328125 285.25433349609375 419.8533935546875 286.5394287109375 422.4295654296875 C 287.03448486328125 423.423095703125 287.70806884765625 424.375 288.677001953125 424.916259765625 C 289.4733581542969 425.361572265625 290.4022216796875 425.49517822265625 291.3112487792969 425.57080078125 C 294.1776123046875 425.81268310546875 297.29864501953125 425.4853515625 299.4793701171875 423.61041259765625 C 301.6759033203125 421.71923828125 302.4616394042969 418.3505859375 301.3120422363281 415.68701171875 C 300.1624450683594 413.02349853515625 297.19268798828125 411.2583923339844 294.30389404296875 411.545166015625 L 294.4646301269531 411.85748291015625" stroke-width="0.6000000238418579" fill="rgb(140, 28, 33)" opacity="1.0"/>
    <path d="M 334.7643127441406 389.1390380859375 C 331.5133056640625 389.5269775390625 328.13470458984375 389.96649169921875 325.34210205078125 391.6801452636719 C 322.5495910644531 393.393798828125 320.49603271484375 396.791015625 321.37091064453125 399.9478759765625 C 322.4595642089844 403.84228515625 327.63580322265625 405.4491882324219 331.361328125 403.858154296875 C 335.0868835449219 402.2671203613281 337.4241943359375 398.47662353515625 338.6784973144531 394.6299743652344 C 339.18609619140625 393.4781188964844 339.2434387207031 392.1778869628906 338.8392333984375 390.98583984375 C 338.3196105957031 389.8617858886719 336.6220703125 389.2540283203125 335.7917175292969 390.18096923828125 L 334.7643127441406 389.1390380859375" stroke-width="0.6000000238418579" fill="rgb(159, 159, 159)" opacity="1.0"/>
    <path d="M 345.92706298828125 407.1929016113281 C 343.400390625 407.2567138671875 340.840576171875 408.1875915527344 339.1092224121094 410.0271301269531 C 337.3778991699219 411.8666687011719 336.6026306152344 414.66241455078125 337.464599609375 417.04833984375 C 338.076171875 418.734375 339.43719482421875 420.08544921875 341.0247802734375 420.92333984375 C 342.61236572265625 421.76123046875 344.4132995605469 422.125 346.20489501953125 422.2425537109375 C 346.9845886230469 422.293212890625 347.80609130859375 422.28997802734375 348.489990234375 421.91632080078125 C 349.2742919921875 421.48828125 349.7336120605469 420.6539306640625 350.1139831542969 419.8424072265625 C 351.1877746582031 417.551513671875 351.9513854980469 415.0086669921875 351.5653076171875 412.50787353515625 C 351.1792297363281 410.00701904296875 349.3973388671875 407.5980224609375 346.9222412109375 407.1026916503906 L 345.92706298828125 407.1929016113281" stroke-width="0.6000000238418579" fill="rgb(159, 159, 159)" opacity="1.0"/>
    <path d="M 257.9318542480469 372.16278076171875 C 257.7638244628906 369.5588684082031 257.4642333984375 366.6717834472656 255.5252685546875 364.93328857421875 C 253.6419677734375 363.23992919921875 250.84039306640625 363.1915283203125 248.30828857421875 363.28338623046875 C 247.27972412109375 363.32220458984375 246.20428466796875 363.3792419433594 245.31689453125 363.899658203125 C 243.8155517578125 364.77899169921875 243.29541015625 366.69256591796875 243.181884765625 368.42620849609375 C 243.075927734375 370.0353088378906 243.20156860351562 371.6512756347656 243.55496215820312 373.2246398925781 C 244.1278076171875 375.7795715332031 245.59927368164062 378.45111083984375 248.13232421875 379.1103820800781 C 249.49932861328125 379.4682922363281 250.9788818359375 379.1651611328125 252.2529296875 378.5489196777344 C 253.52694702148438 377.9326477050781 254.63009643554688 377.01739501953125 255.70623779296875 376.0982666015625 C 256.78240966796875 375.1791687011719 257.8201599121094 374.2530212402344 258.4097595214844 373.0036315917969 L 257.9318542480469 372.16278076171875" stroke-width="0.6000000238418579" fill="rgb(218, 166, 20)" opacity="1.0"/>
    <path d="M 255.63677978515625 392.97125244140625 C 252.8199462890625 389.7271423339844 247.90655517578125 389.3808288574219 244.66244506835938 392.19769287109375 C 244.3846435546875 392.43890380859375 244.12432861328125 392.6994934082031 243.8834228515625 392.9775695800781 C 242.96820068359375 394.0342712402344 242.33282470703125 395.4069519042969 242.44467163085938 396.79974365234375 C 242.53909301757812 397.97674560546875 243.145751953125 399.0484619140625 243.83465576171875 400.0065002441406 C 245.6822509765625 402.568359375 248.18206787109375 404.5887756347656 251.074462890625 405.85791015625 C 251.839599609375 406.19207763671875 252.65447998046875 406.47601318359375 253.490234375 406.4365234375 C 254.89337158203125 406.3710632324219 256.1170654296875 405.38897705078125 256.88641357421875 404.21258544921875 C 258.02984619140625 402.4668273925781 258.3620910644531 400.2581787109375 258.00262451171875 398.2020263671875 C 257.6431579589844 396.1458740234375 256.63421630859375 394.23785400390625 255.30215454101562 392.63104248046875 L 255.63677978515625 392.97125244140625" stroke-width="0.6000000238418579" fill="rgb(143, 165, 67)" opacity="1.0"/>
    <path d="M 205.29388427734375 373.27557373046875 C 203.6497802734375 377.6286315917969 208.49118041992188 382.7447509765625 212.99017333984375 381.6800231933594 C 217.48916625976562 380.61529541015625 219.59317016601562 374.25457763671875 216.86874389648438 370.4805603027344 C 214.14434814453125 366.7065734863281 207.87646484375 366.4578857421875 204.60784912109375 369.77777099609375 L 205.29388427734375 373.27557373046875" stroke-width="0.6000000238418579" fill="rgb(233, 92, 21)" opacity="1.0"/>
    <path d="M 270.0853576660156 371.08935546875 C 269.467529296875 373.4596862792969 268.9753723144531 376.35516357421875 270.7679443359375 378.0367736816406 C 271.5073547363281 378.67822265625 272.4275817871094 379.0744323730469 273.4017028808594 379.17071533203125 C 275.8055114746094 379.4737854003906 278.20709228515625 378.59295654296875 279.84490966796875 376.8075256347656 C 281.2303466796875 375.2894592285156 281.88629150390625 373.2805480957031 282.47509765625 371.3245849609375 C 282.8040466308594 370.2253112792969 283.1185607910156 369.046875 282.7870788574219 367.9549255371094 C 282.3332824707031 366.5030822753906 280.8639831542969 365.632568359375 279.4539489746094 365.0632019042969 C 277.39141845703125 364.2273254394531 275.2071838378906 363.7308349609375 272.9859619140625 363.5929260253906 C 272.2184143066406 363.5467834472656 271.41204833984375 363.5499267578125 270.7263488769531 363.8972473144531 C 270.10528564453125 364.2528076171875 269.60107421875 364.7814025878906 269.2752380371094 365.4185791015625 C 268.211669921875 367.31292724609375 268.0326232910156 369.5784606933594 268.78546142578125 371.6163330078125 L 270.0853576660156 371.08935546875" stroke-width="0.6000000238418579" fill="rgb(70, 150, 179)" opacity="1.0"/>
    <path d="M 329.6527099609375 367.2134704589844 C 329.7545471191406 364.5123291015625 329.7539978027344 361.5140686035156 327.95208740234375 359.50152587890625 C 326.0151672363281 357.3407897949219 322.58978271484375 357.15130615234375 319.8738098144531 358.1729736328125 C 318.82647705078125 358.5664367675781 317.8023376464844 359.1432189941406 317.1593017578125 360.0586242675781 C 316.63043212890625 360.8109130859375 316.4002685546875 361.7283630371094 316.2303466796875 362.6319274902344 C 315.6910095214844 365.4806823730469 315.6960144042969 368.6437072753906 317.3500061035156 371.02423095703125 C 319.0186462402344 373.42230224609375 322.3146667480469 374.55889892578125 325.10418701171875 373.6820983886719 C 327.8936767578125 372.8053283691406 329.97088623046875 370.0106506347656 329.98248291015625 367.08465576171875 L 329.6527099609375 367.2134704589844" stroke-width="0.6000000238418579" fill="rgb(140, 28, 33)" opacity="1.0"/>
    <path d="M 351.19775390625 390.0404357910156 C 348.0047912597656 390.7082214355469 344.6896667480469 391.4382629394531 342.0669860839844 393.3819580078125 C 339.4443664550781 395.3256530761719 337.7016296386719 398.8760681152344 338.8445129394531 401.9332275390625 C 340.2637023925781 405.703857421875 345.5409851074219 406.84857177734375 349.10028076171875 404.9454345703125 C 352.65960693359375 403.0423278808594 354.6497802734375 399.076904296875 355.5602111816406 395.1499328613281 C 355.9638366699219 393.9625244140625 355.9076843261719 392.6670227050781 355.4028015136719 391.51904296875 C 354.7893371582031 390.4485778808594 353.0516357421875 389.9930114746094 352.3080749511719 390.9852294921875 L 351.19775390625 390.0404357910156" stroke-width="0.6000000238418579" fill="rgb(159, 159, 159)" opacity="1.0"/>
    <path d="M 187.2802734375 405.4196472167969 C 184.86746215820312 405.8420715332031 182.54681396484375 407.1003723144531 181.15020751953125 409.1112060546875 C 179.753662109375 411.1220703125 179.4102783203125 413.912841796875 180.57763671875 416.0765380859375 C 181.40493774414062 417.6053466796875 182.9027099609375 418.705810546875 184.5443115234375 419.281982421875 C 186.1859130859375 419.858154296875 187.9642333984375 419.9493408203125 189.6983642578125 419.805908203125 C 190.4530029296875 419.74298095703125 191.239990234375 419.6224365234375 191.84213256835938 419.16650390625 C 192.53271484375 418.64404296875 192.85369873046875 417.778564453125 193.102294921875 416.9462890625 C 193.80401611328125 414.5968017578125 194.17242431640625 412.0501708984375 193.44479370117188 409.70819091796875 C 192.7171630859375 407.3662109375 190.6646728515625 405.3117980957031 188.2213134765625 405.1908874511719 L 187.2802734375 405.4196472167969" stroke-width="0.6000000238418579" fill="rgb(159, 159, 159)" opacity="1.0"/>
    <path d="M 355.1402282714844 375.6816101074219 C 352.489501953125 376.0524597167969 349.55914306640625 376.5794982910156 347.9289855957031 378.6957702636719 C 346.3407287597656 380.7515869140625 346.50531005859375 383.6210632324219 346.792724609375 386.20416259765625 C 346.9110412597656 387.25335693359375 347.0515441894531 388.34906005859375 347.6517028808594 389.2170104980469 C 348.6659240722656 390.685546875 350.6630554199219 391.0714111328125 352.4450988769531 391.0550537109375 C 354.0991516113281 391.0404968261719 355.7425537109375 390.7884826660156 357.3249816894531 390.3067932128906 C 359.8946838378906 389.52557373046875 362.5149841308594 387.8162536621094 362.99578857421875 385.1748046875 C 363.2574768066406 383.7491455078125 362.8343200683594 382.2588195800781 362.10662841796875 381.002685546875 C 361.3788757324219 379.74658203125 360.3583679199219 378.6880798339844 359.3359680175781 377.6575012207031 C 358.3135681152344 376.62689208984375 357.2868957519531 375.6361389160156 355.9638366699219 375.1285095214844 L 355.1402282714844 375.6816101074219" stroke-width="0.6000000238418579" fill="rgb(218, 166, 20)" opacity="1.0"/>
    <path d="M 372.48138427734375 388.4146423339844 C 368.8531188964844 390.79119873046875 367.8384094238281 395.6590576171875 370.2149658203125 399.28729248046875 C 370.41845703125 399.5979919433594 370.64373779296875 399.89385986328125 370.8891296386719 400.17266845703125 C 371.8216857910156 401.2319030761719 373.1083984375 402.0541687011719 374.516845703125 402.1317138671875 C 375.7070617675781 402.1973571777344 376.86163330078125 401.73626708984375 377.9136962890625 401.17742919921875 C 380.7276611328125 399.6777038574219 383.0887145996094 397.45184326171875 384.75164794921875 394.73114013671875 C 385.19000244140625 394.01123046875 385.5848693847656 393.2347106933594 385.6590270996094 392.393310546875 C 385.7843933105469 390.9808044433594 384.9684143066406 389.6231384277344 383.8962707519531 388.69354248046875 C 382.30548095703125 387.31231689453125 380.1413269042969 386.6795654296875 378.0356140136719 386.7594909667969 C 375.9299011230469 386.83941650390625 373.8840637207031 387.58917236328125 372.0955505371094 388.703125 L 372.48138427734375 388.4146423339844" stroke-width="0.6000000238418579" fill="rgb(143, 165, 67)" opacity="1.0"/>
    <path d="M 364.3927001953125 366.539306640625 C 364.8167419433594 371.3010559082031 371.5816345214844 373.8708190917969 375.26800537109375 370.8755798339844 C 378.9543762207031 367.88031005859375 378.0587158203125 361.05572509765625 373.8519592285156 358.7816467285156 C 369.6452331542969 356.5075988769531 363.7355651855469 359.0781555175781 362.1950988769531 363.6099853515625 L 364.3927001953125 366.539306640625" stroke-width="0.6000000238418579" fill="rgb(233, 92, 21)" opacity="1.0"/>
    <path d="M 395.53082275390625 367.80633544921875 C 394.958740234375 370.1394348144531 394.5173645019531 372.9856872558594 396.2990417480469 374.609130859375 C 397.0332336425781 375.22760009765625 397.94122314453125 375.60302734375 398.8977966308594 375.6835632324219 C 401.2592468261719 375.9465637207031 403.6016845703125 375.04864501953125 405.1822814941406 373.2745666503906 C 406.51922607421875 371.7662353515625 407.1338195800781 369.7870178222656 407.683349609375 367.8606262207031 C 407.99029541015625 366.77801513671875 408.28192138671875 365.6180114746094 407.9413146972656 364.5519714355469 C 407.4756774902344 363.134765625 406.02252197265625 362.30206298828125 404.6317443847656 361.7638244628906 C 402.59735107421875 360.9735412597656 400.4484558105469 360.51776123046875 398.2684020996094 360.4141845703125 C 397.5151062011719 360.37982177734375 396.7244567871094 360.3943786621094 396.0569763183594 360.7447509765625 C 395.4530334472656 361.10223388671875 394.9661560058594 361.62774658203125 394.6557312011719 362.2572021484375 C 393.6397705078125 364.1298828125 393.4964294433594 366.35400390625 394.263671875 368.3415832519531 L 395.53082275390625 367.80633544921875" stroke-width="0.6000000238418579" fill="rgb(70, 150, 179)" opacity="1.0"/>
    <path d="M 389.43463134765625 410.15093994140625 C 388.2369384765625 412.49114990234375 387.0076904296875 415.1353759765625 387.7712097167969 417.649169921875 C 388.593017578125 420.3489990234375 391.53594970703125 421.9210205078125 394.35003662109375 422.134033203125 C 395.43499755859375 422.2166748046875 396.5746765136719 422.12811279296875 397.5171813964844 421.5845947265625 C 398.2921447753906 421.13812255859375 398.87139892578125 420.4234619140625 399.3918762207031 419.6964111328125 C 401.035888671875 417.40545654296875 402.32879638671875 414.6141357421875 401.8466491699219 411.8364562988281 C 401.3587646484375 409.037353515625 398.9183654785156 406.6831970214844 396.0988464355469 406.312255859375 C 393.27935791015625 405.9412841796875 390.30133056640625 407.55377197265625 389.09100341796875 410.1292724609375 L 389.43463134765625 410.15093994140625" stroke-width="0.6000000238418579" fill="rgb(140, 28, 33)" opacity="1.0"/>
    <path d="M 403.8736877441406 397.5989685058594 C 401.90106201171875 400.2124938964844 399.87725830078125 402.9537658691406 399.17840576171875 406.1551513671875 C 398.4795837402344 409.3564758300781 399.50701904296875 413.1912841796875 402.3900146484375 414.7474365234375 C 405.9530334472656 416.6605224609375 410.6982421875 414.04052734375 412.1319580078125 410.251220703125 C 413.5655517578125 406.4619140625 412.451171875 402.1499938964844 410.54583740234375 398.5802307128906 C 410.0667419433594 397.4161071777344 409.168701171875 396.473876953125 408.0289001464844 395.9395446777344 C 406.8581848144531 395.5355224609375 405.2437438964844 396.3387451171875 405.33697509765625 397.5798645019531 L 403.8736877441406 397.5989685058594" stroke-width="0.6000000238418579" fill="rgb(159, 159, 159)" opacity="1.0"/>
    <path d="M 429.024658203125 370.5055847167969 C 428.984130859375 373.034423828125 429.80908203125 375.6322326660156 431.5767822265625 377.4392395019531 C 433.34454345703125 379.2462158203125 436.1077880859375 380.13677978515625 438.52880859375 379.37347412109375 C 440.2398681640625 378.8316345214844 441.6468505859375 377.52667236328125 442.5501708984375 375.9739685058594 C 443.45343017578125 374.4212646484375 443.8914794921875 372.63568115234375 444.0830078125 370.8492736816406 C 444.1658935546875 370.0718078613281 444.196533203125 369.25030517578125 443.85125732421875 368.55108642578125 C 443.4556884765625 367.749267578125 442.640380859375 367.25555419921875 441.84478759765625 366.8417663574219 C 439.59857177734375 365.6735534667969 437.0877685546875 364.8050842285156 434.5714111328125 365.08782958984375 C 432.05517578125 365.3705749511719 429.572998046875 367.0526428222656 428.9755859375 369.5068664550781 L 429.024658203125 370.5055847167969" stroke-width="0.6000000238418579" fill="rgb(159, 159, 159)" opacity="1.0"/>
    <path d="M 417.84521484375 405.7494812011719 C 415.47802734375 406.5936279296875 412.88330078125 407.63446044921875 411.785888671875 409.8899841308594 C 410.71551513671875 412.0819091796875 411.4114685058594 414.689453125 412.16607666015625 417.0103759765625 C 412.4739990234375 417.95269775390625 412.8111572265625 418.93365478515625 413.52783203125 419.617919921875 C 414.73919677734375 420.77587890625 416.6490478515625 420.751708984375 418.28466796875 420.3984375 C 419.802978515625 420.071044921875 421.266357421875 419.5274658203125 422.630126953125 418.78411865234375 C 424.844970703125 417.5780029296875 426.93017578125 415.5087890625 426.8709716796875 412.9884033203125 C 426.841064453125 411.62774658203125 426.1690673828125 410.3375244140625 425.261474609375 409.3205261230469 C 424.35382080078125 408.30352783203125 423.2144775390625 407.5238342285156 422.07861328125 406.7701416015625 C 420.94287109375 406.0164794921875 419.8106689453125 405.30023193359375 418.4976806640625 405.08453369140625 L 417.84521484375 405.7494812011719" stroke-width="0.6000000238418579" fill="rgb(218, 166, 20)" opacity="1.0"/>
    <path d="M 142.65773010253906 230.4400634765625 C 139.72882080078125 233.3438720703125 139.70848083496094 238.07220458984375 142.61227416992188 241.0010986328125 C 142.86093139648438 241.25189208984375 143.12705993652344 241.4847412109375 143.40867614746094 241.6978759765625 C 144.47886657714844 242.507568359375 145.833984375 243.0291748046875 147.1610107421875 242.83377075195312 C 148.28245544433594 242.66876220703125 149.2705841064453 242.01971435546875 150.1445770263672 241.29913330078125 C 152.48141479492188 239.36700439453125 154.25830078125 236.84442138671875 155.2906494140625 233.99343872070312 C 155.562255859375 233.2393798828125 155.78257751464844 232.44085693359375 155.69178771972656 231.64276123046875 C 155.5401611328125 230.30291748046875 154.5218963623047 229.1929931640625 153.34628295898438 228.5306396484375 C 151.6016082763672 227.5460205078125 149.4649658203125 227.36773681640625 147.51820373535156 227.84237670898438 C 145.5714569091797 228.3170166015625 143.80775451660156 229.40435791015625 142.35305786132812 230.78216552734375 L 142.65773010253906 230.4400634765625" stroke-width="0.6000000238418579" fill="rgb(143, 165, 67)" opacity="1.0"/>
    <path d="M 165.9937744140625 265.0539245605469 C 166.19488525390625 269.7303771972656 172.69625854492188 272.54736328125 176.436279296875 269.78314208984375 C 180.17623901367188 267.0188903808594 179.60638427734375 260.30364990234375 175.5938720703125 257.8906555175781 C 171.58132934570312 255.4776611328125 165.685791015625 257.72674560546875 163.97576904296875 262.0901794433594 L 165.9937744140625 265.0539245605469" stroke-width="0.6000000238418579" fill="rgb(233, 92, 21)" opacity="1.0"/>
    <path d="M 155.28697204589844 313.67645263671875 C 154.09820556640625 315.8008728027344 152.89852905273438 318.4617919921875 154.20045471191406 320.52862548828125 C 154.75057983398438 321.3309631347656 155.53611755371094 321.9428405761719 156.44873046875 322.27978515625 C 158.68426513671875 323.17431640625 161.2147216796875 322.92974853515625 163.23764038085938 321.6236877441406 C 164.9508056640625 320.51141357421875 166.08554077148438 318.744140625 167.1424560546875 317.0108947753906 C 167.73458862304688 316.03631591796875 168.3326416015625 314.98199462890625 168.28781127929688 313.8487548828125 C 168.21566772460938 312.3387451171875 167.0211181640625 311.1330261230469 165.80801391601562 310.23175048828125 C 164.0343017578125 308.9105224609375 162.05838012695312 307.8851013183594 159.95697021484375 307.19525146484375 C 159.23043823242188 306.95831298828125 158.4542236328125 306.759033203125 157.70767211914062 306.9210205078125 C 157.021240234375 307.1071472167969 156.40374755859375 307.4889831542969 155.93057250976562 308.01995849609375 C 154.43255615234375 309.5747985839844 153.6920166015625 311.7085266113281 153.90472412109375 313.85711669921875 L 155.28697204589844 313.67645263671875" stroke-width="0.6000000238418579" fill="rgb(70, 150, 179)" opacity="1.0"/>
    <path d="M 126.06861877441406 297.15850830078125 C 125.1153564453125 294.7460021972656 123.95745849609375 292.1119689941406 121.597412109375 291.03936767578125 C 119.0615234375 289.888671875 115.97886657714844 291.04449462890625 113.98703002929688 292.9905700683594 C 113.21875 293.7405700683594 112.54159545898438 294.6426696777344 112.33001708984375 295.6951599121094 C 112.15576171875 296.5603332519531 112.30772399902344 297.4552307128906 112.50721740722656 298.314697265625 C 113.133056640625 301.0257873535156 114.35850524902344 303.8028564453125 116.73065185546875 305.255859375 C 119.1224365234375 306.7186279296875 122.45704650878906 306.4448547363281 124.56942749023438 304.5976867675781 C 126.68179321289062 302.7505187988281 127.42796325683594 299.4932556152344 126.30862426757812 296.9180603027344 L 126.06861877441406 297.15850830078125" stroke-width="0.6000000238418579" fill="rgb(140, 28, 33)" opacity="1.0"/>
    <path d="M 140.01348876953125 272.9084777832031 C 137.00216674804688 274.250244140625 133.8834991455078 275.67962646484375 131.70809936523438 278.159912109375 C 129.5327606201172 280.6401672363281 128.56982421875 284.51959228515625 130.3518829345703 287.2952575683594 C 132.55931091308594 290.71661376953125 138.0167236328125 290.71990966796875 141.12599182128906 288.0796203613281 C 144.23524475097656 285.4393005371094 145.3539581298828 281.09710693359375 145.41427612304688 277.0235595703125 C 145.55929565429688 275.7644348144531 145.22705078125 274.49676513671875 144.48309326171875 273.4706726074219 C 143.64840698242188 272.5443420410156 141.8345947265625 272.4655456542969 141.31210327148438 273.6045227050781 L 140.01348876953125 272.9084777832031" stroke-width="0.6000000238418579" fill="rgb(159, 159, 159)" opacity="1.0"/>
    <path d="M 157.2554931640625 296.1410827636719 C 155.73593139648438 298.1005554199219 154.85459899902344 300.62335205078125 155.1779022216797 303.08050537109375 C 155.50119018554688 305.5376892089844 157.1444091796875 307.8617858886719 159.49224853515625 308.6875305175781 C 161.1529541015625 309.2691955566406 163.024169921875 309.0735168457031 164.64608764648438 308.3871765136719 C 166.26800537109375 307.70086669921875 167.662109375 306.5581970214844 168.86328125 305.26983642578125 C 169.38568115234375 304.7088317871094 169.89303588867188 304.0826110839844 170.0335693359375 303.3310546875 C 170.195068359375 302.4695129394531 169.84613037109375 301.6026306152344 169.465576171875 300.8100280761719 C 168.3912353515625 298.57232666015625 166.9329833984375 296.4140319824219 164.79315185546875 295.1553649902344 C 162.6533203125 293.8966979980469 159.71697998046875 293.755615234375 157.8045654296875 295.32891845703125 L 157.2554931640625 296.1410827636719" stroke-width="0.6000000238418579" fill="rgb(159, 159, 159)" opacity="1.0"/>
    <path d="M 126.59278869628906 346.11700439453125 C 125.78021240234375 343.7286071777344 124.77352905273438 341.1089782714844 122.52571105957031 339.9743957519531 C 120.34126281738281 338.867919921875 117.71380615234375 339.5282287597656 115.37326049804688 340.2516174316406 C 114.42288208007812 340.546875 113.43333435058594 340.87091064453125 112.73602294921875 341.5802001953125 C 111.55596923828125 342.7791442871094 111.55229187011719 344.6964111328125 111.88290405273438 346.34332275390625 C 112.18919372558594 347.8720703125 112.71340942382812 349.34893798828125 113.43951416015625 350.7286682128906 C 114.61767578125 352.96942138671875 116.66400146484375 355.09271240234375 119.19459533691406 355.07025146484375 C 120.560791015625 355.06011962890625 121.86563110351562 354.4045715332031 122.89973449707031 353.50848388671875 C 123.933837890625 352.61236572265625 124.73312377929688 351.4801940917969 125.50625610351562 350.3511962890625 C 126.27940368652344 349.22222900390625 127.01490783691406 348.0963439941406 127.25065612792969 346.7815856933594 L 126.59278869628906 346.11700439453125" stroke-width="0.6000000238418579" fill="rgb(218, 166, 20)" opacity="1.0"/>
    <path d="M 165.61880493164062 347.2411804199219 C 162.56484985351562 349.8569030761719 162.2095947265625 354.4530944824219 164.8253173828125 357.507080078125 C 165.04931640625 357.7685852050781 165.29156494140625 358.01385498046875 165.55026245117188 358.2410888671875 C 166.53341674804688 359.1043395996094 167.8140869140625 359.7076721191406 169.1182861328125 359.61181640625 C 170.220458984375 359.5309143066406 171.227294921875 358.9699401855469 172.12826538085938 358.3312683105469 C 174.53759765625 356.61834716796875 176.4443359375 354.29156494140625 177.650390625 351.5926208496094 C 177.968017578125 350.8786926269531 178.2388916015625 350.11785888671875 178.20721435546875 349.3354187011719 C 178.15484619140625 348.0218200683594 177.24346923828125 346.870361328125 176.14736938476562 346.14288330078125 C 174.520751953125 345.06170654296875 172.45584106445312 344.73675537109375 170.52923583984375 345.0601501464844 C 168.60260009765625 345.3835754394531 166.81051635742188 346.3157043457031 165.29827880859375 347.5522155761719 L 165.61880493164062 347.2411804199219" stroke-width="0.6000000238418579" fill="rgb(143, 165, 67)" opacity="1.0"/>
    <path d="M 133.64625549316406 376.0885314941406 C 131.4684295654297 372.1873474121094 124.71632385253906 372.5747375488281 122.71330261230469 376.5362854003906 C 120.71029663085938 380.4978332519531 124.07725524902344 385.9792175292969 128.5338592529297 386.315185546875 C 132.990478515625 386.6511535644531 137.05245971679688 382.20404052734375 136.6385040283203 377.74981689453125 L 133.64625549316406 376.0885314941406" stroke-width="0.6000000238418579" fill="rgb(233, 92, 21)" opacity="1.0"/>
    <path d="M 178.90252685546875 366.34234619140625 C 177.88027954101562 368.4521484375 176.87802124023438 371.078369140625 178.24697875976562 372.9914245605469 C 178.82138061523438 373.73150634765625 179.61129760742188 374.275146484375 180.50775146484375 374.54730224609375 C 182.70773315429688 375.28033447265625 185.12652587890625 374.9015808105469 186.99713134765625 373.5311584472656 C 188.5809326171875 372.3645935058594 189.57147216796875 370.6011657714844 190.48916625976562 368.8749084472656 C 191.00308227539062 367.9043884277344 191.5181884765625 366.8568420410156 191.4107666015625 365.76995849609375 C 191.25567626953125 364.3223876953125 190.03884887695312 363.2310791015625 188.82147216796875 362.4335021972656 C 187.041259765625 361.2640075683594 185.08349609375 360.390380859375 183.02410888671875 359.84649658203125 C 182.31219482421875 359.6599426269531 181.5546875 359.5124206542969 180.84619140625 359.7105407714844 C 180.19683837890625 359.9284362792969 179.6248779296875 360.33056640625 179.20013427734375 360.8678894042969 C 177.8482666015625 362.44769287109375 177.25747680664062 364.541015625 177.58392333984375 366.5945129394531 L 178.90252685546875 366.34234619140625" stroke-width="0.6000000238418579" fill="rgb(70, 150, 179)" opacity="1.0"/>
  </g>
</svg>
