<?xml version="1.0" ?>
<svg xmlns="http://www.w3.org/2000/svg" version="1.1" width="600" height="600">
  <defs/>
  <g>
    <path d="M 353.29962158203125 343.294189453125 C 355.2379455566406 344.49981689453125 358.1609191894531 342.6570129394531 358.0768737792969 340.39056396484375 C 357.9927978515625 338.1241149902344 355.132080078125 336.50604248046875 353.0565185546875 337.4578552246094 C 350.98095703125 338.4096374511719 350.2645568847656 341.4023132324219 351.551025390625 343.2913513183594 L 353.29962158203125 343.294189453125" stroke-width="0.6000000238418579" fill="rgb(233, 92, 21)" opacity="1.0"/>
    <path d="M 104.62603759765625 201.31137084960938 C 105.54438781738281 200.44732666015625 106.5517578125 199.3199462890625 106.2308349609375 198.0960693359375 C 106.08416748046875 197.614013671875 105.79153442382812 197.1893310546875 105.39326477050781 196.880615234375 C 104.42843627929688 196.09033203125 103.140380859375 195.816650390625 101.93759155273438 196.146484375 C 100.91799926757812 196.4288330078125 100.08200073242188 197.12493896484375 99.28976440429688 197.8162841796875 C 98.84536743164062 198.20538330078125 98.38558959960938 198.63296508789062 98.23109436035156 199.19970703125 C 98.03135681152344 199.95684814453125 98.43345642089844 200.73858642578125 98.89218139648438 201.37289428710938 C 99.5623779296875 202.302001953125 100.3785400390625 203.11651611328125 101.30900573730469 203.78482055664062 C 101.63095092773438 204.01513671875 101.98330688476562 204.23455810546875 102.3773193359375 204.27090454101562 C 102.74539184570312 204.28598022460938 103.10992431640625 204.193603515625 103.42642211914062 204.00506591796875 C 104.40872192382812 203.4705810546875 105.10711669921875 202.53204345703125 105.33697509765625 201.43759155273438 L 104.62603759765625 201.31137084960938" stroke-width="0.6000000238418579" fill="rgb(70, 150, 179)" opacity="1.0"/>
    <path d="M 458.64691162109375 429.93267822265625 C 459.09716796875 430.9111328125 459.6373291015625 431.9766845703125 460.6402587890625 432.367431640625 C 461.7178955078125 432.78662109375 462.969482421875 432.237060546875 463.7508544921875 431.384765625 C 464.05224609375 431.05633544921875 464.3123779296875 430.6668701171875 464.3760986328125 430.2257080078125 C 464.4285888671875 429.863037109375 464.3450927734375 429.4954833984375 464.2427978515625 429.143798828125 C 463.92144775390625 428.0340576171875 463.3499755859375 426.9107666015625 462.3333740234375 426.362548828125 C 461.30841064453125 425.8106689453125 459.93218994140625 426.00030517578125 459.0986328125 426.8143310546875 C 458.2650146484375 427.62835693359375 458.030029296875 428.99578857421875 458.5528564453125 430.037841796875 L 458.64691162109375 429.93267822265625" stroke-width="0.6000000238418579" fill="rgb(140, 28, 33)" opacity="1.0"/>
    <path d="M 91.27517700195312 195.6956787109375 C 92.56817626953125 195.08978271484375 93.90693664550781 194.44503784179688 94.82855224609375 193.35299682617188 C 95.7501220703125 192.26095581054688 96.1351318359375 190.572998046875 95.34048461914062 189.38568115234375 C 94.3563232421875 187.9222412109375 91.992919921875 187.96585083007812 90.668212890625 189.1348876953125 C 89.343505859375 190.303955078125 88.89488220214844 192.193603515625 88.90237426757812 193.95819091796875 C 88.84994506835938 194.504638671875 89.00430297851562 195.0509033203125 89.33493041992188 195.4891357421875 C 89.70404052734375 195.88336181640625 90.49017333984375 195.90252685546875 90.70704650878906 195.40496826171875 L 91.27517700195312 195.6956787109375" stroke-width="0.6000000238418579" fill="rgb(159, 159, 159)" opacity="1.0"/>
    <path d="M 377.9530029296875 299.6102600097656 C 378.8516540527344 299.0763244628906 379.5869445800781 298.2228698730469 379.8395690917969 297.2091064453125 C 380.09222412109375 296.19537353515625 379.80657958984375 295.02996826171875 379.01318359375 294.343505859375 C 378.45159912109375 293.85888671875 377.6873779296875 293.6466979980469 376.9451904296875 293.6654357910156 C 376.2030029296875 293.6841735839844 375.479736328125 293.9170837402344 374.8096008300781 294.2369384765625 C 374.51806640625 294.3763122558594 374.22235107421875 294.5436096191406 374.0511474609375 294.81671142578125 C 373.8547668457031 295.12969970703125 373.8577575683594 295.52362060546875 373.8846435546875 295.8932800292969 C 373.9604797363281 296.93695068359375 374.19915771484375 298.00872802734375 374.8441467285156 298.8328857421875 C 375.4891357421875 299.65704345703125 376.6191101074219 300.16583251953125 377.6122131347656 299.8440246582031 L 377.9530029296875 299.6102600097656" stroke-width="0.6000000238418579" fill="rgb(159, 159, 159)" opacity="1.0"/>
    <path d="M 99.10809326171875 431.3455810546875 C 99.67875671386719 430.38037109375 100.27127075195312 429.28277587890625 100.003662109375 428.1961669921875 C 99.74490356445312 427.1390380859375 98.76188659667969 426.443603515625 97.84060668945312 425.86328125 C 97.46600341796875 425.6280517578125 97.07037353515625 425.38800048828125 96.62930297851562 425.35797119140625 C 95.88337707519531 425.3067626953125 95.2354736328125 425.8602294921875 94.7755126953125 426.4483642578125 C 94.34835815429688 426.9940185546875 94.00180053710938 427.59820556640625 93.74639892578125 428.24237060546875 C 93.33131408691406 429.2882080078125 93.20706176757812 430.59295654296875 93.94685363769531 431.440185546875 C 94.3455810546875 431.898193359375 94.94429016113281 432.14874267578125 95.54582214355469 432.23834228515625 C 96.14735412597656 432.32794189453125 96.76058959960938 432.27001953125 97.36518859863281 432.2042236328125 C 97.96978759765625 432.13836669921875 98.56243896484375 432.06072998046875 99.07421875 431.7598876953125 L 99.10809326171875 431.3455810546875" stroke-width="0.6000000238418579" fill="rgb(218, 166, 20)" opacity="1.0"/>
    <path d="M 100.77641296386719 139.4928741455078 C 102.78146362304688 140.00860595703125 104.824951171875 138.80126953125 105.34066772460938 136.7962188720703 C 105.38484191894531 136.62452697753906 105.41676330566406 136.44992065429688 105.43621826171875 136.27369689941406 C 105.510009765625 135.6041259765625 105.38632202148438 134.8858184814453 104.96078491210938 134.36402893066406 C 104.60121154785156 133.9230499267578 104.06729125976562 133.6640167236328 103.53187561035156 133.47259521484375 C 102.09796142578125 132.96218872070312 100.55355834960938 132.8450164794922 99.05905151367188 133.13327026367188 C 98.66415405273438 133.2101287841797 98.26324462890625 133.32052612304688 97.94258117675781 133.56492614746094 C 97.40399169921875 133.97488403320312 97.18743896484375 134.6992950439453 97.20426940917969 135.37643432617188 C 97.22854614257812 136.38174438476562 97.70123291015625 137.34864807128906 98.40653991699219 138.06576538085938 C 99.11184692382812 138.7828826904297 100.0341796875 139.2635040283203 101.00224304199219 139.53622436523438 L 100.77641296386719 139.4928741455078" stroke-width="0.6000000238418579" fill="rgb(143, 165, 67)" opacity="1.0"/>
    <path d="M 455.2783203125 340.437744140625 C 457.5584716796875 341.82598876953125 460.9560546875 339.6383972167969 460.83251953125 336.98895263671875 C 460.7088623046875 334.3395080566406 457.345458984375 332.4792175292969 454.928955078125 333.61541748046875 C 452.51239013671875 334.7516174316406 451.7080078125 338.25921630859375 453.2335205078125 340.45391845703125 L 455.2783203125 340.437744140625" stroke-width="0.6000000238418579" fill="rgb(233, 92, 21)" opacity="1.0"/>
    <path d="M 108.46409606933594 215.64544677734375 C 109.50079345703125 214.993896484375 110.67156982421875 214.10809326171875 110.5947265625 212.88189697265625 C 110.54513549804688 212.39511108398438 110.34573364257812 211.93569946289062 110.02400207519531 211.56704711914062 C 109.25248718261719 210.63348388671875 108.07635498046875 210.13177490234375 106.8685302734375 210.2210693359375 C 105.84417724609375 210.29937744140625 104.91737365722656 210.8062744140625 104.03314208984375 211.31686401367188 C 103.53689575195312 211.6044921875 103.01882934570312 211.9259033203125 102.76559448242188 212.43701171875 C 102.43362426757812 213.12109375 102.6705322265625 213.94122314453125 102.98898315429688 214.63143920898438 C 103.45379638671875 215.64212036132812 104.0791015625 216.5709228515625 104.8406982421875 217.38177490234375 C 105.10438537597656 217.66143798828125 105.39907836914062 217.93646240234375 105.76773071289062 218.0447998046875 C 106.11563110351562 218.12802124023438 106.48025512695312 218.10821533203125 106.81710815429688 217.98779296875 C 107.85311889648438 217.6622314453125 108.69415283203125 216.8985595703125 109.11790466308594 215.898681640625 L 108.46409606933594 215.64544677734375" stroke-width="0.6000000238418579" fill="rgb(70, 150, 179)" opacity="1.0"/>
    <path d="M 102.42880249023438 78.7763671875 C 102.96017456054688 79.8646240234375 103.59486389160156 81.04856872558594 104.73233032226562 81.4620361328125 C 105.95449829101562 81.90547180175781 107.34733581542969 81.25543212890625 108.20370483398438 80.27723693847656 C 108.5340576171875 79.90022277832031 108.81645202636719 79.45571899414062 108.87667846679688 78.95814514160156 C 108.92634582519531 78.54913330078125 108.82308959960938 78.13810729980469 108.69898986816406 77.74531555175781 C 108.30914306640625 76.50617980957031 107.63783264160156 75.25811767578125 106.48089599609375 74.66801452636719 C 105.314453125 74.0740966796875 103.77230834960938 74.32272338867188 102.85623168945312 75.25927734375 C 101.94015502929688 76.19583129882812 101.71121215820312 77.73905944824219 102.32582092285156 78.89700317382812 L 102.42880249023438 78.7763671875" stroke-width="0.6000000238418579" fill="rgb(140, 28, 33)" opacity="1.0"/>
    <path d="M 93.56930541992188 426.7852783203125 C 94.89227294921875 426.76751708984375 96.26872253417969 426.7344970703125 97.46382141113281 426.16455078125 C 98.65890502929688 425.5946044921875 99.62857055664062 424.31658935546875 99.41116333007812 423.0107421875 C 99.13919067382812 421.3994140625 97.12730407714844 420.53369140625 95.5625 421.0146484375 C 93.9976806640625 421.4957275390625 92.89726257324219 422.919677734375 92.22967529296875 424.4122314453125 C 91.97674560546875 424.853515625 91.89842224121094 425.3736572265625 92.01019287109375 425.869873046875 C 92.17123413085938 426.34368896484375 92.82760620117188 426.6600341796875 93.20071411132812 426.3228759765625 L 93.56930541992188 426.7852783203125" stroke-width="0.6000000238418579" fill="rgb(159, 159, 159)" opacity="1.0"/>
    <path d="M 468.2252197265625 60.85009765625 C 469.0594482421875 59.8753662109375 469.57794189453125 58.59358215332031 469.47216796875 57.31562805175781 C 469.366455078125 56.03767395019531 468.5753173828125 54.7955322265625 467.38250732421875 54.31016540527344 C 466.538818359375 53.96807861328125 465.56683349609375 54.022491455078125 464.71142578125 54.336700439453125 C 463.8560791015625 54.650909423828125 463.10711669921875 55.206634521484375 462.45416259765625 55.84246826171875 C 462.170166015625 56.119354248046875 461.892333984375 56.430328369140625 461.8009033203125 56.81523132324219 C 461.6959228515625 57.25645446777344 461.8546142578125 57.713165283203125 462.031494140625 58.132293701171875 C 462.5308837890625 59.315582275390625 463.23065185546875 60.4674072265625 464.3050537109375 61.17132568359375 C 465.3795166015625 61.87522888183594 466.8935546875 62.021453857421875 467.921142578125 61.25611877441406 L 468.2252197265625 60.85009765625" stroke-width="0.6000000238418579" fill="rgb(159, 159, 159)" opacity="1.0"/>
    <path d="M 92.31524658203125 105.63348388671875 C 93.42913818359375 105.87896728515625 94.67794799804688 106.10357666015625 95.64337158203125 105.50030517578125 C 96.58306884765625 104.91494750976562 96.94342041015625 103.74427795410156 97.21218872070312 102.66976928710938 C 97.32072448730469 102.23312377929688 97.42730712890625 101.77456665039062 97.31645202636719 101.3387451171875 C 97.12939453125 100.60153198242188 96.388916015625 100.15083312988281 95.67465209960938 99.89274597167969 C 95.01177978515625 99.6529541015625 94.31790161132812 99.50958251953125 93.6142578125 99.46701049804688 C 92.47178649902344 99.39749145507812 91.17127990722656 99.69117736816406 90.58697509765625 100.6749267578125 C 90.270751953125 101.20555114746094 90.21847534179688 101.86369323730469 90.32264709472656 102.4735107421875 C 90.42681884765625 103.08334350585938 90.67727661132812 103.65769958496094 90.93264770507812 104.22119140625 C 91.18800354003906 104.78466796875 91.45098876953125 105.3328857421875 91.90411376953125 105.73213195800781 L 92.31524658203125 105.63348388671875" stroke-width="0.6000000238418579" fill="rgb(218, 166, 20)" opacity="1.0"/>
    <path d="M 117.674560546875 127.42172241210938 C 119.626708984375 126.70703125 120.6298828125 124.54510498046875 119.91519165039062 122.59295654296875 C 119.85400390625 122.42578125 119.781005859375 122.26318359375 119.69680786132812 122.10633850097656 C 119.376708984375 121.51045227050781 118.86550903320312 120.98666381835938 118.21649169921875 120.79727172851562 C 117.66804504394531 120.63714599609375 117.07894897460938 120.72679138183594 116.52706909179688 120.87321472167969 C 115.05038452148438 121.26718139648438 113.70614624023438 122.04937744140625 112.63394165039062 123.13851928710938 C 112.35101318359375 123.4268798828125 112.08224487304688 123.74639892578125 111.95608520507812 124.131103515625 C 111.74392700195312 124.77679443359375 111.97714233398438 125.49929809570312 112.37649536132812 126.04986572265625 C 112.96881103515625 126.86764526367188 113.91020202636719 127.39842224121094 114.90182495117188 127.59016418457031 C 115.89346313476562 127.78189086914062 116.93000793457031 127.65446472167969 117.88604736328125 127.32902526855469 L 117.674560546875 127.42172241210938" stroke-width="0.6000000238418579" fill="rgb(143, 165, 67)" opacity="1.0"/>
    <path d="M 388.30517578125 301.57000732421875 C 390.2533874511719 303.3546142578125 393.9713439941406 301.88104248046875 394.3586730957031 299.28472900390625 C 394.7459716796875 296.68841552734375 391.8363342285156 294.238037109375 389.27227783203125 294.8785705566406 C 386.7082214355469 295.51910400390625 385.2555236816406 298.77099609375 386.3165283203125 301.1941833496094 L 388.30517578125 301.57000732421875" stroke-width="0.6000000238418579" fill="rgb(233, 92, 21)" opacity="1.0"/>
    <path d="M 122.61412048339844 111.54061889648438 C 123.53280639648438 110.73614501953125 124.54673767089844 109.67988586425781 124.27847290039062 108.48431396484375 C 124.1531982421875 108.0126953125 123.88467407226562 107.591552734375 123.50991821289062 107.27902221679688 C 122.60346984863281 106.48075866699219 121.3663330078125 106.17135620117188 120.19082641601562 106.44894409179688 C 119.19429016113281 106.68696594238281 118.36111450195312 107.33172607421875 117.57046508789062 107.97344970703125 C 117.12690734863281 108.33465576171875 116.66714477539062 108.7325439453125 116.49801635742188 109.27572631835938 C 116.27853393554688 110.00155639648438 116.64065551757812 110.7720947265625 117.06268310546875 111.40182495117188 C 117.67916870117188 112.32421875 118.44087219238281 113.1407470703125 119.31828308105469 113.81973266601562 C 119.62188720703125 114.05375671386719 119.955322265625 114.27830505371094 120.33538818359375 114.32711791992188 C 120.69110107421875 114.35443115234375 121.04708862304688 114.27764892578125 121.35992431640625 114.10614013671875 C 122.32911682128906 113.622802734375 123.03749084472656 112.7386474609375 123.29779052734375 111.6873779296875 L 122.61412048339844 111.54061889648438" stroke-width="0.6000000238418579" fill="rgb(70, 150, 179)" opacity="1.0"/>
    <path d="M 429.14996337890625 71.29315185546875 C 429.77197265625 72.30335998535156 430.5037841796875 73.39697265625 431.6522216796875 73.69142150878906 C 432.8861083984375 74.00698852539062 434.181884765625 73.240234375 434.92333984375 72.20477294921875 C 435.2093505859375 71.8056640625 435.4422607421875 71.34535217285156 435.45343017578125 70.85450744628906 C 435.4627685546875 70.45100402832031 435.3228759765625 70.06016540527344 435.164306640625 69.6890869140625 C 434.6658935546875 68.51828002929688 433.8922119140625 67.36564636230469 432.7080078125 66.90086364746094 C 431.5140380859375 66.43325805664062 430.03436279296875 66.82293701171875 429.230712890625 67.823486328125 C 428.4271240234375 68.82403564453125 428.351318359375 70.35041809082031 429.06109619140625 71.42062377929688 L 429.14996337890625 71.29315185546875" stroke-width="0.6000000238418579" fill="rgb(140, 28, 33)" opacity="1.0"/>
    <path d="M 116.61767578125 416.3818359375 C 117.50885009765625 415.26806640625 118.42388916015625 414.099365234375 118.76766967773438 412.7139892578125 C 119.11141967773438 411.3285827636719 118.71128845214844 409.64605712890625 117.47509765625 408.9328918457031 C 115.94717407226562 408.05596923828125 113.84861755371094 409.1383361816406 113.17764282226562 410.77069091796875 C 112.50665283203125 412.403076171875 112.93878173828125 414.29437255859375 113.72442626953125 415.872314453125 C 113.918701171875 416.3851318359375 114.29812622070312 416.80645751953125 114.78787231445312 417.05322265625 C 115.29266357421875 417.2435302734375 116.00555419921875 416.9136962890625 115.98025512695312 416.3720703125 L 116.61767578125 416.3818359375" stroke-width="0.6000000238418579" fill="rgb(159, 159, 159)" opacity="1.0"/>
    <path d="M 452.21484375 429.59918212890625 C 452.803466796875 428.5338134765625 453.0400390625 427.24359130859375 452.697265625 426.07635498046875 C 452.3544921875 424.9090576171875 451.38165283203125 423.90625 450.18048095703125 423.6834716796875 C 449.3310546875 423.52703857421875 448.43829345703125 423.7635498046875 447.70361328125 424.21917724609375 C 446.9688720703125 424.6748046875 446.3792724609375 425.33447265625 445.8941650390625 426.05023193359375 C 445.68328857421875 426.36181640625 445.484619140625 426.7039794921875 445.47332763671875 427.0791015625 C 445.460205078125 427.5091552734375 445.695068359375 427.9031982421875 445.9395751953125 428.2587890625 C 446.6300048828125 429.2628173828125 447.5006103515625 430.19921875 448.6336669921875 430.647705078125 C 449.7667236328125 431.09619140625 451.2015380859375 430.9423828125 452.010009765625 430.03466796875 L 452.21484375 429.59918212890625" stroke-width="0.6000000238418579" fill="rgb(159, 159, 159)" opacity="1.0"/>
    <path d="M 449.355712890625 286.0287780761719 C 450.14495849609375 285.1571350097656 450.9844970703125 284.154052734375 450.93804931640625 282.98138427734375 C 450.89447021484375 281.84088134765625 450.03076171875 280.9197692871094 449.206298828125 280.12982177734375 C 448.870849609375 279.80938720703125 448.514892578125 279.47955322265625 448.068115234375 279.35595703125 C 447.3125 279.146484375 446.53045654296875 279.57891845703125 445.9342041015625 280.08636474609375 C 445.380615234375 280.5571594238281 444.89752197265625 281.1050109863281 444.49969482421875 281.713134765625 C 443.85333251953125 282.7003173828125 443.4512939453125 284.0146789550781 444.033203125 285.04071044921875 C 444.3465576171875 285.5950622558594 444.908935546875 285.9783630371094 445.5081787109375 286.1968994140625 C 446.1072998046875 286.4154357910156 446.74951171875 286.48486328125 447.384521484375 286.54437255859375 C 448.01953125 286.6038818359375 448.64471435546875 286.64874267578125 449.2337646484375 286.4472351074219 L 449.355712890625 286.0287780761719" stroke-width="0.6000000238418579" fill="rgb(218, 166, 20)" opacity="1.0"/>
    <path d="M 421.7283935546875 366.54925537109375 C 422.995849609375 368.02056884765625 425.216064453125 368.185791015625 426.6873779296875 366.9183349609375 C 426.8133544921875 366.809814453125 426.93145751953125 366.6924743652344 427.04083251953125 366.56719970703125 C 427.4564208984375 366.0912170410156 427.7459716796875 365.4718933105469 427.6978759765625 364.8421630859375 C 427.6573486328125 364.30999755859375 427.385009765625 363.8244934082031 427.0753173828125 363.3902587890625 C 426.2447509765625 362.2290344238281 425.118408203125 361.3114013671875 423.8133544921875 360.7326354980469 C 423.46807861328125 360.5802307128906 423.1002197265625 360.4504699707031 422.722412109375 360.4668273925781 C 422.088134765625 360.4939270019531 421.53326416015625 360.9356689453125 421.1834716796875 361.4660339355469 C 420.66357421875 362.2530822753906 420.5093994140625 363.2507629394531 420.66827392578125 364.1807861328125 C 420.8271484375 365.1108093261719 421.27978515625 365.9750061035156 421.8790283203125 366.70361328125 L 421.7283935546875 366.54925537109375" stroke-width="0.6000000238418579" fill="rgb(143, 165, 67)" opacity="1.0"/>
    <path d="M 450.5001220703125 355.5653991699219 C 452.0296630859375 353.3571472167969 450.0333251953125 349.8147277832031 447.36456298828125 349.7820129394531 C 444.69586181640625 349.74932861328125 442.6280517578125 353.01776123046875 443.6263427734375 355.5124816894531 C 444.62457275390625 358.0072021484375 448.10040283203125 359.0228576660156 450.39532470703125 357.62042236328125 L 450.5001220703125 355.5653991699219" stroke-width="0.6000000238418579" fill="rgb(233, 92, 21)" opacity="1.0"/>
    <path d="M 452.62890625 82.85707092285156 C 453.420166015625 82.05406188964844 454.281982421875 81.01278686523438 453.95391845703125 79.93023681640625 C 453.80657958984375 79.50450134277344 453.53076171875 79.13497924804688 453.16455078125 78.87265014648438 C 452.27581787109375 78.19918823242188 451.11578369140625 77.99826049804688 450.0523681640625 78.33357238769531 C 449.1510009765625 78.62033081054688 448.4276123046875 79.27047729492188 447.7431640625 79.91494750976562 C 447.35931396484375 80.27760314941406 446.9630126953125 80.67514038085938 446.8441162109375 81.18670654296875 C 446.6912841796875 81.869873046875 447.07696533203125 82.55471801757812 447.50823974609375 83.10589599609375 C 448.138427734375 83.91331481933594 448.8951416015625 84.6134033203125 449.7490234375 85.17904663085938 C 450.04443359375 85.3739013671875 450.36663818359375 85.55801391601562 450.7198486328125 85.57717895507812 C 451.04925537109375 85.57820129394531 451.371826171875 85.48336791992188 451.648193359375 85.30422973632812 C 452.5076904296875 84.79348754882812 453.0999755859375 83.93136596679688 453.268310546875 82.94580078125 L 452.62890625 82.85707092285156" stroke-width="0.6000000238418579" fill="rgb(70, 150, 179)" opacity="1.0"/>
    <path d="M 449.78924560546875 391.7518310546875 C 450.2813720703125 390.92303466796875 450.7919921875 389.9837341308594 450.5704345703125 389.0462951660156 C 450.33184814453125 388.0393981933594 449.2911376953125 387.3964538574219 448.2662353515625 387.2537536621094 C 447.87109375 387.1985778808594 447.4520263671875 387.2047424316406 447.0946044921875 387.3819580078125 C 446.80078125 387.5274963378906 446.5723876953125 387.77569580078125 446.365234375 388.02978515625 C 445.7109375 388.83026123046875 445.173583984375 389.82196044921875 445.2861328125 390.8494873046875 C 445.4002685546875 391.8849792480469 446.23907470703125 392.8025817871094 447.2623291015625 393.0032043457031 C 448.2855224609375 393.20379638671875 449.412353515625 392.6822814941406 449.91448974609375 391.7676696777344 L 449.78924560546875 391.7518310546875" stroke-width="0.6000000238418579" fill="rgb(140, 28, 33)" opacity="1.0"/>
    <path d="M 120.44746398925781 213.8880615234375 C 118.65849304199219 213.65814208984375 116.79443359375 213.43862915039062 115.07211303710938 213.97857666015625 C 113.34982299804688 214.5185546875 111.79591369628906 216.05731201171875 111.83879089355469 217.8614501953125 C 111.89669799804688 220.08837890625 114.4459228515625 221.64288330078125 116.65017700195312 221.29388427734375 C 118.85441589355469 220.94488525390625 120.61279296875 219.23419189453125 121.8001708984375 217.34786987304688 C 122.22622680664062 216.80078125 122.43171691894531 216.11383056640625 122.37606811523438 215.42266845703125 C 122.2496337890625 214.75228881835938 121.42446899414062 214.1993408203125 120.85621643066406 214.5828857421875 L 120.44746398925781 213.8880615234375" stroke-width="0.6000000238418579" fill="rgb(159, 159, 159)" opacity="1.0"/>
    <path d="M 111.88899230957031 224.03024291992188 C 110.61305236816406 223.0194091796875 108.96298217773438 222.42367553710938 107.3477783203125 222.61917114257812 C 105.73257446289062 222.81466674804688 104.19573974609375 223.87750244140625 103.63771057128906 225.41314697265625 C 103.24455261230469 226.49932861328125 103.36029052734375 227.72900390625 103.79977416992188 228.79840087890625 C 104.2392578125 229.8677978515625 104.9798583984375 230.79071044921875 105.81744384765625 231.58798217773438 C 106.18212890625 231.93472290039062 106.58978271484375 232.27203369140625 107.08216857910156 232.36941528320312 C 107.64663696289062 232.48129272460938 108.21806335449219 232.25811767578125 108.740966796875 232.01373291015625 C 110.21719360351562 231.32369995117188 111.6439208984375 230.38113403320312 112.4847412109375 228.98501586914062 C 113.3255615234375 227.58889770507812 113.43817138671875 225.66232299804688 112.41839599609375 224.39620971679688 L 111.88899230957031 224.03024291992188" stroke-width="0.6000000238418579" fill="rgb(159, 159, 159)" opacity="1.0"/>
    <path d="M 302.52398681640625 104.90753173828125 C 301.75250244140625 106.47775268554688 300.9629821777344 108.25656127929688 301.5101623535156 109.91470336914062 C 302.0400085449219 111.52801513671875 303.6529235839844 112.4913330078125 305.1559753417969 113.28315734863281 C 305.76702880859375 113.60392761230469 306.4114074707031 113.92974853515625 307.10113525390625 113.92333984375 C 308.2676696777344 113.91317749023438 309.2088928222656 112.97409057617188 309.8536071777344 112.00389099121094 C 310.45233154296875 111.10360717773438 310.918701171875 110.12200927734375 311.2384033203125 109.08914184570312 C 311.7581481933594 107.41226196289062 311.7942810058594 105.36761474609375 310.5414123535156 104.13873291015625 C 309.8659973144531 103.47430419921875 308.9044494628906 103.15667724609375 307.9579162597656 103.08973693847656 C 307.0113830566406 103.02279663085938 306.06439208984375 103.18678283691406 305.1318359375 103.36199951171875 C 304.1992492675781 103.53721618652344 303.2866516113281 103.7293701171875 302.5267639160156 104.25904846191406 L 302.52398681640625 104.90753173828125" stroke-width="0.6000000238418579" fill="rgb(218, 166, 20)" opacity="1.0"/>
    <path d="M 219.85415649414062 127.12393188476562 C 217.4326171875 125.26016235351562 213.95870971679688 125.7122802734375 212.09494018554688 128.13380432128906 C 211.93533325195312 128.34115600585938 211.7906494140625 128.55958557128906 211.6619873046875 128.78741455078125 C 211.17315673828125 129.65321350097656 210.92401123046875 130.6997833251953 211.19857788085938 131.65487670898438 C 211.4305419921875 132.46202087402344 212.00469970703125 133.1234588623047 212.62017822265625 133.6940460205078 C 214.26971435546875 135.2190704345703 216.2974853515625 136.27459716796875 218.492919921875 136.75099182128906 C 219.07342529296875 136.87594604492188 219.6815185546875 136.95884704589844 220.258544921875 136.81333923339844 C 221.2274169921875 136.5696563720703 221.94180297851562 135.7123260498047 222.31204223632812 134.78366088867188 C 222.8626708984375 133.40533447265625 222.78253173828125 131.81883239746094 222.24169921875 130.43626403808594 C 221.70086669921875 129.05369567871094 220.72824096679688 127.86605834960938 219.5728759765625 126.93402099609375 L 219.85415649414062 127.12393188476562" stroke-width="0.6000000238418579" fill="rgb(143, 165, 67)" opacity="1.0"/>
    <path d="M 223.3170166015625 95.48655700683594 C 221.90576171875 98.855224609375 225.56048583984375 103.00357055664062 229.11929321289062 102.2940673828125 C 232.6781005859375 101.58453369140625 234.50616455078125 96.65388488769531 232.4744873046875 93.617431640625 C 230.44287109375 90.58096313476562 225.533203125 90.2108154296875 222.87652587890625 92.72369384765625 L 223.3170166015625 95.48655700683594" stroke-width="0.6000000238418579" fill="rgb(233, 92, 21)" opacity="1.0"/>
    <path d="M 203.7296142578125 96.1656494140625 C 203.023681640625 94.56394958496094 202.01434326171875 92.72389221191406 200.26409912109375 92.57762145996094 C 199.5653076171875 92.5465087890625 198.87408447265625 92.73300170898438 198.2857666015625 93.11140441894531 C 196.80499267578125 94.00845336914062 195.85089111328125 95.56759643554688 195.7259521484375 97.29440307617188 C 195.623779296875 98.75947570800781 196.14794921875 100.17567443847656 196.68621826171875 101.53244018554688 C 196.9898681640625 102.29409790039062 197.336669921875 103.09365844726562 198.0069580078125 103.55810546875 C 198.90542602539062 104.16984558105469 200.1146240234375 104.00531005859375 201.15704345703125 103.69842529296875 C 202.68313598632812 103.25120544433594 204.12677001953125 102.55992126464844 205.4320068359375 101.65138244628906 C 205.88235473632812 101.33660888671875 206.33258056640625 100.97698974609375 206.56246948242188 100.47813415527344 C 206.75250244140625 100.00337219238281 206.80029296875 99.48355102539062 206.70001220703125 98.98210144042969 C 206.4549560546875 97.44915771484375 205.5498046875 96.10086059570312 204.2237548828125 95.29360961914062 L 203.7296142578125 96.1656494140625" stroke-width="0.6000000238418579" fill="rgb(70, 150, 179)" opacity="1.0"/>
    <path d="M 266.5545349121094 131.0464630126953 C 265.5704650878906 132.6875457763672 264.548583984375 134.54788208007812 264.9803466796875 136.4108123779297 C 265.44537353515625 138.41172790527344 267.50592041015625 139.6970977783203 269.53924560546875 139.9892120361328 C 270.32318115234375 140.1021728515625 271.1551818847656 140.093505859375 271.8662414550781 139.74481201171875 C 272.4508361816406 139.45838928222656 272.9064025878906 138.9676513671875 273.3199157714844 138.4650115966797 C 274.625732421875 136.8815155029297 275.7010192871094 134.91741943359375 275.4864501953125 132.87661743164062 C 275.268798828125 130.8199462890625 273.6114196777344 128.99107360839844 271.58184814453125 128.58399963378906 C 269.55230712890625 128.17694091796875 267.310791015625 129.2025909423828 266.3060302734375 131.01394653320312 L 266.5545349121094 131.0464630126953" stroke-width="0.6000000238418579" fill="rgb(140, 28, 33)" opacity="1.0"/>
    <path d="M 316.59918212890625 116.91915893554688 C 314.5880432128906 117.7117919921875 312.5040588378906 118.55874633789062 311.00787353515625 120.12115478515625 C 309.51171875 121.68354797363281 308.7696533203125 124.197265625 309.85748291015625 126.06668090820312 C 311.2054138183594 128.37127685546875 314.7803955078125 128.52992248535156 316.8929138183594 126.88945007324219 C 319.0054626464844 125.24897766113281 319.8628234863281 122.43655395507812 320.0191650390625 119.769775390625 C 320.1502685546875 118.9490966796875 319.9689636230469 118.109130859375 319.51104736328125 117.41561889648438 C 318.9908142089844 116.78485107421875 317.80487060546875 116.68124389648438 317.429931640625 117.41238403320312 L 316.59918212890625 116.91915893554688" stroke-width="0.6000000238418579" fill="rgb(159, 159, 159)" opacity="1.0"/>
    <path d="M 199.083740234375 130.60902404785156 C 197.80712890625 129.57305908203125 196.14773559570312 128.95193481445312 194.51422119140625 129.13026428222656 C 192.88070678710938 129.30859375 191.31607055664062 130.36380004882812 190.734375 131.9080352783203 C 190.324462890625 133.00033569335938 190.42678833007812 134.24359130859375 190.85797119140625 135.32875061035156 C 191.2891845703125 136.41392517089844 192.02621459960938 137.35475158691406 192.8626708984375 138.1698455810547 C 193.22686767578125 138.5243377685547 193.63455200195312 138.86981201171875 194.13067626953125 138.97396850585938 C 194.69940185546875 139.09364318847656 195.27911376953125 138.87501525878906 195.81011962890625 138.63436889648438 C 197.30914306640625 137.9549560546875 198.76113891601562 137.0199432373047 199.62680053710938 135.61993408203125 C 200.492431640625 134.2199249267578 200.62896728515625 132.2755889892578 199.61407470703125 130.98487854003906 L 199.083740234375 130.60902404785156" stroke-width="0.6000000238418579" fill="rgb(159, 159, 159)" opacity="1.0"/>
    <path d="M 281.4647216796875 104.98220825195312 C 279.6250305175781 105.68197631835938 277.6104736328125 106.53950500488281 276.7881774902344 108.32354736328125 C 275.98602294921875 110.05738830566406 276.5736999511719 112.08766174316406 277.2026062011719 113.89250183105469 C 277.45916748046875 114.62532043457031 277.7392272949219 115.38786315917969 278.31158447265625 115.911865234375 C 279.2790832519531 116.7987060546875 280.7740478515625 116.74844360351562 282.0489807128906 116.44499206542969 C 283.232421875 116.163818359375 284.3693542480469 115.71414184570312 285.42498779296875 115.10977172851562 C 287.139404296875 114.12905883789062 288.7381896972656 112.47470092773438 288.6505126953125 110.50227355957031 C 288.604736328125 109.43734741210938 288.05743408203125 108.43814086914062 287.3301086425781 107.65672302246094 C 286.6027526855469 106.87530517578125 285.6978454589844 106.28347778320312 284.7961730957031 105.71197509765625 C 283.8945007324219 105.14047241210938 282.99627685546875 104.59823608398438 281.96466064453125 104.45086669921875 L 281.4647216796875 104.98220825195312" stroke-width="0.6000000238418579" fill="rgb(218, 166, 20)" opacity="1.0"/>
    <path d="M 242.10806274414062 121.912109375 C 240.482177734375 124.75653076171875 241.47000122070312 128.3804473876953 244.31442260742188 130.00633239746094 C 244.5579833984375 130.1455535888672 244.81112670898438 130.26731872558594 245.07192993164062 130.3707275390625 C 246.06298828125 130.76344299316406 247.2110595703125 130.8751678466797 248.1854248046875 130.4439697265625 C 249.00885009765625 130.07965087890625 249.6275634765625 129.37315368652344 250.1436767578125 128.63604736328125 C 251.52255249023438 126.66110229492188 252.34744262695312 124.35296630859375 252.53271484375 121.95144653320312 C 252.58062744140625 121.31655883789062 252.579833984375 120.65852355957031 252.3409423828125 120.06687927246094 C 251.9405517578125 119.07337951660156 250.925537109375 118.4398193359375 249.885009765625 118.18223571777344 C 248.34051513671875 117.79873657226562 246.66708374023438 118.11567687988281 245.27752685546875 118.89215087890625 C 243.88800048828125 119.66860961914062 242.76861572265625 120.875244140625 241.94744873046875 122.2386474609375 L 242.10806274414062 121.912109375" stroke-width="0.6000000238418579" fill="rgb(143, 165, 67)" opacity="1.0"/>
    <path d="M 249.37408447265625 93.77880859375 C 248.25079345703125 97.29733276367188 252.2999267578125 101.152587890625 255.8221435546875 100.12265014648438 C 259.3443603515625 99.09269714355469 260.74920654296875 93.9637451171875 258.4336242675781 91.08482360839844 C 256.1180419921875 88.20590209960938 251.139404296875 88.26785278320312 248.6856689453125 91.03456115722656 L 249.37408447265625 93.77880859375" stroke-width="0.6000000238418579" fill="rgb(233, 92, 21)" opacity="1.0"/>
    <path d="M 338.46551513671875 85.7220458984375 C 336.6029052734375 85.22390747070312 334.3263244628906 84.82205200195312 332.9937438964844 86.22457885742188 C 332.4851379394531 86.80337524414062 332.168701171875 87.52571105957031 332.0880432128906 88.29196166992188 C 331.83746337890625 90.18251037597656 332.5187683105469 92.07723999023438 333.9158935546875 93.37530517578125 C 335.1038513183594 94.473388671875 336.6817932128906 94.99972534179688 338.2184143066406 95.47294616699219 C 339.08203125 95.73736572265625 340.00799560546875 95.99081420898438 340.869140625 95.7353515625 C 342.0141906738281 95.38543701171875 342.70672607421875 94.23329162597656 343.16192626953125 93.12628173828125 C 343.83013916015625 91.50701904296875 344.23187255859375 89.790283203125 344.35150146484375 88.04263305664062 C 344.3916931152344 87.438720703125 344.39324951171875 86.80401611328125 344.123291015625 86.26254272460938 C 343.8465270996094 85.77191162109375 343.4329833984375 85.37240600585938 342.9330749511719 85.11276245117188 C 341.4473571777344 84.26614379882812 339.6650085449219 84.1138916015625 338.0572204589844 84.69625854492188 L 338.46551513671875 85.7220458984375" stroke-width="0.6000000238418579" fill="rgb(70, 150, 179)" opacity="1.0"/>
    <path d="M 334.36785888671875 122.04129028320312 C 333.77880859375 120.36691284179688 333.0555725097656 118.53570556640625 331.4697265625 117.74090576171875 C 329.76568603515625 116.88815307617188 327.6278076171875 117.59829711914062 326.2152404785156 118.87716674804688 C 325.67041015625 119.37001037597656 325.1839294433594 119.96922302246094 325.0118713378906 120.68338012695312 C 324.8702087402344 121.27041625976562 324.9508361816406 121.88627624511719 325.0649108886719 122.47914123535156 C 325.4223327636719 124.34918212890625 326.1880187988281 126.27993774414062 327.7722473144531 127.33515930175781 C 329.36962890625 128.39756774902344 331.6568603515625 128.29710388183594 333.1492614746094 127.0889892578125 C 334.6416931152344 125.88088989257812 335.2366027832031 123.67308044433594 334.5382080078125 121.88311767578125 L 334.36785888671875 122.04129028320312" stroke-width="0.6000000238418579" fill="rgb(140, 28, 33)" opacity="1.0"/>
    <path d="M 355.35076904296875 105.42303466796875 C 353.72314453125 105.64198303222656 352.0318908691406 105.88775634765625 350.6441345214844 106.76817321777344 C 349.2563781738281 107.64859008789062 348.2519226074219 109.36785888671875 348.7143859863281 110.94461059570312 C 349.2895812988281 112.88967895507812 351.89776611328125 113.65679931640625 353.7543640136719 112.83090209960938 C 355.6109924316406 112.00498962402344 356.75482177734375 110.08634948730469 357.3551025390625 108.14765930175781 C 357.6010437011719 107.56613159179688 357.62005615234375 106.91357421875 357.40838623046875 106.31874084472656 C 357.13934326171875 105.75888061523438 356.28338623046875 105.46678161621094 355.8738708496094 105.93791198730469 L 355.35076904296875 105.42303466796875" stroke-width="0.6000000238418579" fill="rgb(159, 159, 159)" opacity="1.0"/>
    <path d="M 350.715087890625 122.59701538085938 C 348.9279479980469 123.08062744140625 347.267578125 124.18710327148438 346.35443115234375 125.79656982421875 C 345.4412841796875 127.40603637695312 345.37445068359375 129.53021240234375 346.4017028808594 131.0787353515625 C 347.1293640136719 132.17262268066406 348.33233642578125 132.89810180664062 349.6075134277344 133.21908569335938 C 350.8827209472656 133.54005432128906 352.2275085449219 133.4866180419922 353.52294921875 133.25955200195312 C 354.086669921875 133.160400390625 354.6707458496094 133.01559448242188 355.0926818847656 132.63107299804688 C 355.5766296386719 132.1904296875 355.7588195800781 131.5169219970703 355.8887634277344 130.87344360351562 C 356.2556457519531 129.05673217773438 356.35809326171875 127.1146240234375 355.64959716796875 125.40176391601562 C 354.94110107421875 123.68888854980469 353.255126953125 122.283447265625 351.40771484375 122.36021423339844 L 350.715087890625 122.59701538085938" stroke-width="0.6000000238418579" fill="rgb(159, 159, 159)" opacity="1.0"/>
    <path d="M 365.50311279296875 110.35591125488281 C 363.3486328125 110.79803466796875 360.97296142578125 111.3828125 359.74627685546875 113.20317077636719 C 358.5508117675781 114.97178649902344 358.8351745605469 117.31640625 359.2053527832031 119.41976928710938 C 359.35699462890625 120.27401733398438 359.5292663574219 121.165283203125 360.0666198730469 121.84580993652344 C 360.9748229980469 122.99734497070312 362.6327209472656 123.20979309082031 364.09326171875 123.10359191894531 C 365.448974609375 123.00553894042969 366.7835388183594 122.71333312988281 368.0561828613281 122.23590087890625 C 370.12286376953125 121.46145629882812 372.1827087402344 119.92330932617188 372.43951416015625 117.73207092285156 C 372.5798645019531 116.54930114746094 372.1552734375 115.34915161132812 371.49310302734375 114.35691833496094 C 370.8309020996094 113.36468505859375 369.93890380859375 112.54977416992188 369.0467834472656 111.75784301757812 C 368.1546936035156 110.96591186523438 367.26116943359375 110.20684814453125 366.14971923828125 109.85943603515625 L 365.50311279296875 110.35591125488281" stroke-width="0.6000000238418579" fill="rgb(218, 166, 20)" opacity="1.0"/>
    <path d="M 433.40789794921875 157.51971435546875 C 429.796630859375 157.9495849609375 427.2176513671875 161.2255859375 427.6474609375 164.83685302734375 C 427.684326171875 165.14605712890625 427.7430419921875 165.45230102539062 427.8231201171875 165.75323486328125 C 428.1279296875 166.89663696289062 428.7869873046875 167.99432373046875 429.8155517578125 168.57830810546875 C 430.6846923828125 169.0718994140625 431.7236328125 169.15673828125 432.72210693359375 169.1298828125 C 435.3946533203125 169.0543212890625 437.998291015625 168.26455688476562 440.262451171875 166.84262084960938 C 440.8603515625 166.46575927734375 441.4466552734375 166.0301513671875 441.81640625 165.42608642578125 C 442.4378662109375 164.41241455078125 442.33203125 163.08847045898438 441.87408447265625 161.99029541015625 C 441.1953125 160.35943603515625 439.80670166015625 159.07647705078125 438.19586181640625 158.35040283203125 C 436.5850830078125 157.6243896484375 434.7691650390625 157.42355346679688 433.010498046875 157.59228515625 L 433.40789794921875 157.51971435546875" stroke-width="0.6000000238418579" fill="rgb(143, 165, 67)" opacity="1.0"/>
    <path d="M 143.3704376220703 417.6737060546875 C 141.1758270263672 420.6434326171875 143.76951599121094 425.5948486328125 147.43496704101562 425.752197265625 C 151.10043334960938 425.90960693359375 154.07931518554688 421.505859375 152.81283569335938 418.03607177734375 C 151.54635620117188 414.5662841796875 146.81336975097656 413.0242919921875 143.6010284423828 414.8544921875 L 143.3704376220703 417.6737060546875" stroke-width="0.6000000238418579" fill="rgb(233, 92, 21)" opacity="1.0"/>
    <path d="M 436.9998779296875 183.84481811523438 C 434.919189453125 184.08621215820312 432.4588623046875 184.59033203125 431.67333984375 186.53982543945312 C 431.3909912109375 187.32781982421875 431.360107421875 188.18399047851562 431.5849609375 188.99026489257812 C 432.0875244140625 191.00018310546875 433.533203125 192.64178466796875 435.46343994140625 193.39453125 C 437.1024169921875 194.02886962890625 438.9068603515625 193.92974853515625 440.648193359375 193.79351806640625 C 441.6263427734375 193.71539306640625 442.6629638671875 193.60125732421875 443.4307861328125 192.99896240234375 C 444.447509765625 192.187744140625 444.6865234375 190.7470703125 444.703857421875 189.44683837890625 C 444.7315673828125 187.54400634765625 444.4510498046875 185.64923095703125 443.873291015625 183.83599853515625 C 443.6724853515625 183.20989990234375 443.4202880859375 182.568115234375 442.93115234375 182.12905883789062 C 442.4554443359375 181.74407958984375 441.87799072265625 181.505859375 441.26922607421875 181.44342041015625 C 439.429931640625 181.18212890625 437.56866455078125 181.74081420898438 436.1773681640625 182.9718017578125 L 436.9998779296875 183.84481811523438" stroke-width="0.6000000238418579" fill="rgb(70, 150, 179)" opacity="1.0"/>
    <path d="M 409.2796936035156 158.656982421875 C 408.6728515625 156.66476440429688 407.9165344238281 154.4820098876953 406.0972900390625 153.4710693359375 C 404.142333984375 152.38624572753906 401.6007080078125 153.1118927001953 399.88092041015625 154.54043579101562 C 399.2176208496094 155.09095764160156 398.6174011230469 155.76907348632812 398.3800354003906 156.59765625 C 398.18463134765625 157.2786865234375 398.2483825683594 158.00469970703125 398.3524475097656 158.70538330078125 C 398.677978515625 160.91537475585938 399.4790954589844 163.21694946289062 401.283447265625 164.53311157226562 C 403.1028747558594 165.85833740234375 405.7890930175781 165.8548583984375 407.5989685058594 164.51324462890625 C 409.4088134765625 163.171630859375 410.216552734375 160.61328125 409.4873046875 158.4801025390625 L 409.2796936035156 158.656982421875" stroke-width="0.6000000238418579" fill="rgb(140, 28, 33)" opacity="1.0"/>
    <path d="M 145.37179565429688 116.67533874511719 C 144.07235717773438 117.46258544921875 142.72889709472656 118.29608154296875 141.8773651123047 119.55563354492188 C 141.02584838867188 120.815185546875 140.8094024658203 122.64450073242188 141.78436279296875 123.810791015625 C 142.99105834960938 125.24777221679688 145.48651123046875 124.93438720703125 146.75579833984375 123.54776000976562 C 148.0251007080078 122.16116333007812 148.2860565185547 120.11125183105469 148.07861328125 118.2452392578125 C 148.072265625 117.66117858886719 147.8472137451172 117.10073852539062 147.44784545898438 116.67449951171875 C 147.01275634765625 116.29911804199219 146.17889404296875 116.36775207519531 146.00572204589844 116.91867065429688 L 145.37179565429688 116.67533874511719" stroke-width="0.6000000238418579" fill="rgb(159, 159, 159)" opacity="1.0"/>
    <path d="M 417.523193359375 177.85870361328125 C 415.85107421875 176.48028564453125 413.6702880859375 175.64471435546875 411.5154113769531 175.8631591796875 C 409.3605651855469 176.08154296875 407.28753662109375 177.45645141601562 406.505126953125 179.48590087890625 C 405.9537353515625 180.92141723632812 406.0759582519531 182.56109619140625 406.6332702636719 183.99578857421875 C 407.1905517578125 185.43048095703125 408.15240478515625 186.67803955078125 409.24658203125 187.7608642578125 C 409.7230224609375 188.2318115234375 410.2568664550781 188.6912841796875 410.9096984863281 188.8336181640625 C 411.6581115722656 188.99716186523438 412.4244384765625 188.71490478515625 413.126708984375 188.40313720703125 C 415.109375 187.52288818359375 417.03271484375 186.30526733398438 418.18792724609375 184.46881103515625 C 419.3431396484375 182.63235473632812 419.5428466796875 180.071044921875 418.21832275390625 178.3594970703125 L 417.523193359375 177.85870361328125" stroke-width="0.6000000238418579" fill="rgb(159, 159, 159)" opacity="1.0"/>
    <path d="M 406.412109375 185.32757568359375 C 405.5640869140625 183.6092529296875 404.5469970703125 181.73602294921875 402.7420959472656 181.10382080078125 C 400.9876708984375 180.48654174804688 399.0743103027344 181.2435302734375 397.38323974609375 182.0196533203125 C 396.69671630859375 182.33596801757812 395.98358154296875 182.67779541015625 395.528564453125 183.2808837890625 C 394.7584533691406 184.3004150390625 394.9451904296875 185.74459838867188 395.35699462890625 186.9521484375 C 395.73876953125 188.0731201171875 396.279541015625 189.13348388671875 396.9627380371094 190.1007080078125 C 398.07147216796875 191.67169189453125 399.8223876953125 193.068359375 401.7258605957031 192.80130004882812 C 402.7536926269531 192.65863037109375 403.6715393066406 192.03594970703125 404.3616943359375 191.2589111328125 C 405.0518493652344 190.48184204101562 405.5418395996094 189.55023193359375 406.012451171875 188.62359619140625 C 406.48309326171875 187.69696044921875 406.9256591796875 186.77639770507812 406.9732360839844 185.76300048828125 L 406.412109375 185.32757568359375" stroke-width="0.6000000238418579" fill="rgb(218, 166, 20)" opacity="1.0"/>
    <path d="M 448.84130859375 179.92657470703125 C 447.478515625 182.74102783203125 448.6552734375 186.1273193359375 451.4697265625 187.49014282226562 C 451.710693359375 187.60684204101562 451.959716796875 187.706298828125 452.21478271484375 187.78775024414062 C 453.18408203125 188.09710693359375 454.2845458984375 188.128662109375 455.1842041015625 187.65460205078125 C 455.944580078125 187.2540283203125 456.4876708984375 186.54095458984375 456.93109130859375 185.80545043945312 C 458.1153564453125 183.83505249023438 458.7503662109375 181.58349609375 458.770263671875 179.28466796875 C 458.7745361328125 178.677001953125 458.73089599609375 178.05047607421875 458.46490478515625 177.50265502929688 C 458.0189208984375 176.58273315429688 457.0111083984375 176.04559326171875 456.0035400390625 175.8681640625 C 454.5078125 175.6036376953125 452.93505859375 176.01446533203125 451.66253662109375 176.84439086914062 C 450.3900146484375 177.67431640625 449.40277099609375 178.89620971679688 448.70965576171875 180.24798583984375 L 448.84130859375 179.92657470703125" stroke-width="0.6000000238418579" fill="rgb(143, 165, 67)" opacity="1.0"/>
    <path d="M 145.6079559326172 108.86357116699219 C 142.3437042236328 110.61129760742188 142.56631469726562 116.21173095703125 145.81968688964844 117.92915344238281 C 149.07305908203125 119.64656066894531 153.6639862060547 116.93655395507812 154.00729370117188 113.24868774414062 C 154.35060119628906 109.56082153320312 150.7248992919922 106.13027954101562 147.02810668945312 106.40838623046875 L 145.6079559326172 108.86357116699219" stroke-width="0.6000000238418579" fill="rgb(233, 92, 21)" opacity="1.0"/>
    <path d="M 450.203857421875 151.53355407714844 C 449.08721923828125 153.137939453125 447.91973876953125 155.17022705078125 448.7979736328125 156.92401123046875 C 449.17462158203125 157.60836791992188 449.75433349609375 158.15896606445312 450.4571533203125 158.49984741210938 C 452.1734619140625 159.39007568359375 454.21484375 159.39321899414062 455.933837890625 158.50823974609375 C 457.39013671875 157.75381469726562 458.4356689453125 156.43060302734375 459.416259765625 155.12844848632812 C 459.9659423828125 154.39608764648438 460.526611328125 153.60049438476562 460.57965087890625 152.69139099121094 C 460.6405029296875 151.47903442382812 459.780517578125 150.42178344726562 458.8818359375 149.6063690185547 C 457.56805419921875 148.41136169433594 456.06951904296875 147.43687438964844 454.4443359375 146.72071838378906 C 453.88232421875 146.47434997558594 453.2777099609375 146.25421142578125 452.66839599609375 146.3250732421875 C 452.105224609375 146.41993713378906 451.58184814453125 146.67662048339844 451.16204833984375 147.06382751464844 C 449.84295654296875 148.1887969970703 449.083740234375 149.83580017089844 449.0850830078125 151.56947326660156 L 450.203857421875 151.53355407714844" stroke-width="0.6000000238418579" fill="rgb(70, 150, 179)" opacity="1.0"/>
    <path d="M 375.9240417480469 80.61846923828125 C 375.6568603515625 78.42623901367188 375.2686767578125 76.00752258300781 373.5547790527344 74.61697387695312 C 371.7127685546875 73.12432861328125 368.9249267578125 73.41445922851562 366.86602783203125 74.58990478515625 C 366.0719909667969 75.04275512695312 365.32037353515625 75.6405029296875 364.9200134277344 76.46214294433594 C 364.59063720703125 77.137451171875 364.52362060546875 77.9073486328125 364.50335693359375 78.65823364257812 C 364.4366760253906 81.02615356445312 364.84979248046875 83.57719421386719 366.4919738769531 85.28373718261719 C 368.1482238769531 87.00253295898438 370.9541931152344 87.49319458007812 373.0911560058594 86.42510986328125 C 375.2281494140625 85.3570556640625 376.5424499511719 82.8338623046875 376.17340087890625 80.471923828125 L 375.9240417480469 80.61846923828125" stroke-width="0.6000000238418579" fill="rgb(140, 28, 33)" opacity="1.0"/>
    <path d="M 129.02444458007812 411.3690490722656 C 126.60922241210938 412.7249755859375 124.11099243164062 414.1624755859375 122.48332214355469 416.406005859375 C 120.85568237304688 418.6495361328125 120.35079956054688 421.9696044921875 122.0567626953125 424.153564453125 C 124.16860961914062 426.8447265625 128.73443603515625 426.424560546875 131.13096618652344 423.9747314453125 C 133.52748107910156 421.52490234375 134.1268310546875 417.80560302734375 133.86158752441406 414.39306640625 C 133.88531494140625 413.3284912109375 133.5091094970703 412.293701171875 132.8072052001953 411.4929504394531 C 132.03712463378906 410.7826843261719 130.51361083984375 410.85736083984375 130.164794921875 411.8507080078125 L 129.02444458007812 411.3690490722656" stroke-width="0.6000000238418579" fill="rgb(159, 159, 159)" opacity="1.0"/>
    <path d="M 410.46942138671875 205.5555419921875 C 409.4053955078125 203.82467651367188 407.72515869140625 202.420654296875 405.74755859375 201.9593505859375 C 403.76995849609375 201.498046875 401.5133972167969 202.08731079101562 400.2025146484375 203.6494140625 C 399.277099609375 204.75506591796875 398.8870849609375 206.24652099609375 398.94525146484375 207.6883544921875 C 399.0033874511719 209.1302490234375 399.4772644042969 210.52911376953125 400.1185607910156 211.8221435546875 C 400.39794921875 212.3846435546875 400.73175048828125 212.9544677734375 401.26751708984375 213.2791748046875 C 401.881591796875 213.65170288085938 402.6470642089844 213.63433837890625 403.36474609375 213.5712890625 C 405.3908386230469 213.39328002929688 407.4668273925781 212.89801025390625 409.0496826171875 211.620361328125 C 410.63250732421875 210.34271240234375 411.5882568359375 208.13168334960938 410.9337463378906 206.21099853515625 L 410.46942138671875 205.5555419921875" stroke-width="0.6000000238418579" fill="rgb(159, 159, 159)" opacity="1.0"/>
    <path d="M 386.80743408203125 119.11489868164062 C 384.8591003417969 119.91412353515625 382.72808837890625 120.88691711425781 381.8978576660156 122.8177490234375 C 381.0877685546875 124.69435119628906 381.77239990234375 126.849609375 382.4948425292969 128.76263427734375 C 382.78948974609375 129.53933715820312 383.110107421875 130.34719848632812 383.7367248535156 130.891845703125 C 384.7960205078125 131.81365966796875 386.3935852050781 131.71861267089844 387.7488098144531 131.35887145996094 C 389.0068054199219 131.02545166015625 390.2104187011719 130.51312255859375 391.3227844238281 129.83755493164062 C 393.1293640136719 128.74130249023438 394.7936706542969 126.927734375 394.64544677734375 124.82052612304688 C 394.5671081542969 123.68280029296875 393.9541320800781 122.62921142578125 393.1546325683594 121.81350708007812 C 392.3551330566406 120.997802734375 391.3709411621094 120.38980102539062 390.3907775878906 119.80345153808594 C 389.4106140136719 119.21707153320312 388.4349060058594 118.66192626953125 387.32745361328125 118.53277587890625 L 386.80743408203125 119.11489868164062" stroke-width="0.6000000238418579" fill="rgb(218, 166, 20)" opacity="1.0"/>
    <path d="M 401.80908203125 82.77020263671875 C 399.284423828125 80.44862365722656 395.3557434082031 80.61325073242188 393.0341491699219 83.137939453125 C 392.8353576660156 83.3541259765625 392.65216064453125 83.58413696289062 392.48590087890625 83.82626342773438 C 391.8543701171875 84.74636840820312 391.47308349609375 85.89210510253906 391.6863708496094 86.98696899414062 C 391.86651611328125 87.9122314453125 392.443603515625 88.70816040039062 393.0757751464844 89.40653991699219 C 394.7705383300781 91.27359008789062 396.93426513671875 92.65281677246094 399.3422546386719 93.40093994140625 C 399.9790954589844 93.59762573242188 400.6509094238281 93.74998474121094 401.3103942871094 93.6439208984375 C 402.4176025390625 93.46652221679688 403.300537109375 92.57803344726562 403.8056335449219 91.57598876953125 C 404.55657958984375 90.0888671875 404.6226501464844 88.30709838867188 404.1535949707031 86.7081298828125 C 403.6845703125 85.10916137695312 402.7135925292969 83.685791015625 401.51318359375 82.53024291992188 L 401.80908203125 82.77020263671875" stroke-width="0.6000000238418579" fill="rgb(143, 165, 67)" opacity="1.0"/>
    <path d="M 116.70372009277344 423.007568359375 C 114.64366149902344 419.83056640625 108.95556640625 420.53619384765625 107.48355102539062 423.99835205078125 C 106.01155090332031 427.46051025390625 109.1656494140625 431.9072265625 112.95309448242188 431.9417724609375 C 116.74057006835938 431.97637939453125 119.926513671875 427.98834228515625 119.32705688476562 424.244873046875 L 116.70372009277344 423.007568359375" stroke-width="0.6000000238418579" fill="rgb(233, 92, 21)" opacity="1.0"/>
    <path d="M 445.2681884765625 195.7415771484375 C 444.1827392578125 197.36135864257812 443.0540771484375 199.40884399414062 443.9608154296875 201.142578125 C 444.3485107421875 201.8184814453125 444.9364013671875 202.357421875 445.6434326171875 202.68505859375 C 447.370849609375 203.54278564453125 449.4068603515625 203.50997924804688 451.1058349609375 202.59710693359375 C 452.54498291015625 201.81903076171875 453.564453125 200.48089599609375 454.51953125 199.16494750976562 C 455.05487060546875 198.42486572265625 455.60009765625 197.62149047851562 455.63702392578125 196.71383666992188 C 455.6763916015625 195.50360107421875 454.800048828125 194.46426391601562 453.889404296875 193.66680908203125 C 452.55804443359375 192.498046875 451.04632568359375 191.552490234375 449.412841796875 190.8668212890625 C 448.8480224609375 190.6309814453125 448.2410888671875 190.42205810546875 447.6346435546875 190.50344848632812 C 447.0745849609375 190.60797119140625 446.55712890625 190.8731689453125 446.145263671875 191.2667236328125 C 444.849365234375 192.41195678710938 444.12115478515625 194.0679931640625 444.153076171875 195.79705810546875 L 445.2681884765625 195.7415771484375" stroke-width="0.6000000238418579" fill="rgb(70, 150, 179)" opacity="1.0"/>
    <path d="M 413.146484375 134.72132873535156 C 412.6658935546875 132.59864807128906 412.0440673828125 130.26600646972656 410.2249755859375 129.07363891601562 C 408.2701416015625 127.79393005371094 405.5657958984375 128.35646057128906 403.6644287109375 129.71424865722656 C 402.9311218261719 130.23745727539062 402.25384521484375 130.89846801757812 401.9432678222656 131.74395751953125 C 401.68768310546875 132.4388885498047 401.69879150390625 133.20040893554688 401.7538146972656 133.93862915039062 C 401.92462158203125 136.26683044433594 402.5841064453125 138.72674560546875 404.3643493652344 140.236083984375 C 406.1596374511719 141.7560272216797 408.9596252441406 141.95721435546875 410.9482421875 140.69688415527344 C 412.9368896484375 139.4365692138672 413.9737548828125 136.83168029785156 413.3763427734375 134.55276489257812 L 413.146484375 134.72132873535156" stroke-width="0.6000000238418579" fill="rgb(140, 28, 33)" opacity="1.0"/>
    <path d="M 401.06439208984375 76.26493835449219 C 401.7283935546875 78.99545288085938 402.449462890625 81.82940673828125 404.1961364746094 84.03329467773438 C 405.9427795410156 86.23715209960938 409.0483093261719 87.63861083984375 411.6486511230469 86.5693359375 C 414.8555908203125 85.24223327636719 415.6939697265625 80.66656494140625 413.9560546875 77.65509033203125 C 412.21826171875 74.64361572265625 408.74847412109375 73.04067993164062 405.34197998046875 72.36634826660156 C 404.3083801269531 72.05195617675781 403.19451904296875 72.13644409179688 402.2201843261719 72.6031494140625 C 401.3156433105469 73.16122436523438 400.9718322753906 74.67007446289062 401.8468933105469 75.2825927734375 L 401.06439208984375 76.26493835449219" stroke-width="0.6000000238418579" fill="rgb(159, 159, 159)" opacity="1.0"/>
    <path d="M 441.410888671875 234.44873046875 C 440.18359375 236.08157348632812 439.48907470703125 238.17047119140625 439.785888671875 240.1903076171875 C 440.08270263671875 242.210205078125 441.465087890625 244.10406494140625 443.4091796875 244.7550048828125 C 444.78424072265625 245.21347045898438 446.3231201171875 245.02902221679688 447.65045166015625 244.44357299804688 C 448.97784423828125 243.85809326171875 450.1119384765625 242.89962768554688 451.08526611328125 241.823486328125 C 451.508544921875 241.35494995117188 451.918701171875 240.83282470703125 452.02508544921875 240.21206665039062 C 452.1474609375 239.50042724609375 451.8492431640625 238.790771484375 451.52593994140625 238.14263916015625 C 450.61322021484375 236.3128662109375 449.38525390625 234.55328369140625 447.607177734375 233.54315185546875 C 445.8289794921875 232.53305053710938 443.40869140625 232.45333862304688 441.85302734375 233.77297973632812 L 441.410888671875 234.44873046875" stroke-width="0.6000000238418579" fill="rgb(159, 159, 159)" opacity="1.0"/>
    <path d="M 409.3909912109375 260.18548583984375 C 408.1379699707031 258.48101806640625 406.6713562011719 256.6407165527344 404.58746337890625 256.3013000488281 C 402.56134033203125 255.9683837890625 400.6272888183594 257.1600341796875 398.93853759765625 258.32965087890625 C 398.25323486328125 258.8057861328125 397.5438537597656 259.3148498535156 397.16546630859375 260.05810546875 C 396.5247802734375 261.3148193359375 397.006103515625 262.8487548828125 397.6864929199219 264.08209228515625 C 398.3175354003906 265.2270812988281 399.1097412109375 266.2755126953125 400.038818359375 267.1953125 C 401.5468444824219 268.6893615722656 403.7193603515625 269.8702087402344 405.7370910644531 269.2130432128906 C 406.8269348144531 268.8598327636719 407.70465087890625 268.0060729980469 408.3051452636719 267.02838134765625 C 408.9056396484375 266.0506591796875 409.2587585449219 264.9435119628906 409.5917663574219 263.84552001953125 C 409.9247741699219 262.7475280761719 410.2284851074219 261.6614990234375 410.0848693847656 260.5506896972656 L 409.3909912109375 260.18548583984375" stroke-width="0.6000000238418579" fill="rgb(218, 166, 20)" opacity="1.0"/>
    <path d="M 414.78167724609375 86.00276184082031 C 413.291259765625 89.05514526367188 414.5574951171875 92.73779296875 417.60986328125 94.22817993164062 C 417.8712158203125 94.35580444335938 418.141357421875 94.4647216796875 418.41815185546875 94.55413818359375 C 419.469970703125 94.89364624023438 420.66522216796875 94.93183898925781 421.644287109375 94.42005920410156 C 422.47161865234375 93.98764038085938 423.0640869140625 93.21501159667969 423.54840087890625 92.41763305664062 C 424.841796875 90.28144836425781 425.5396728515625 87.83790588378906 425.5694580078125 85.34083557128906 C 425.5762939453125 84.6807861328125 425.53106689453125 84.00003051757812 425.24407958984375 83.40402221679688 C 424.76287841796875 82.40313720703125 423.6700439453125 81.81608581542969 422.576171875 81.61972045898438 C 420.95245361328125 81.32707214355469 419.24249267578125 81.76776123046875 417.85723876953125 82.66473388671875 C 416.47198486328125 83.56170654296875 415.39520263671875 84.88551330566406 414.63751220703125 86.35140991210938 L 414.78167724609375 86.00276184082031" stroke-width="0.6000000238418579" fill="rgb(143, 165, 67)" opacity="1.0"/>
    <path d="M 441.4117431640625 129.33001708984375 C 439.4720458984375 132.6464080810547 442.70635986328125 137.47979736328125 446.5157470703125 137.23455810546875 C 450.3250732421875 136.9893035888672 452.91644287109375 132.10215759277344 451.219970703125 128.6536865234375 C 449.5235595703125 125.20523071289062 444.45574951171875 124.13699340820312 441.33642578125 126.38796997070312 L 441.4117431640625 129.33001708984375" stroke-width="0.6000000238418579" fill="rgb(233, 92, 21)" opacity="1.0"/>
    <path d="M 444.8822021484375 95.70828247070312 C 444.08203125 97.49887084960938 443.31201171875 99.72076416015625 444.5062255859375 101.284912109375 C 445.00567626953125 101.88888549804688 445.68023681640625 102.32298278808594 446.4368896484375 102.52731323242188 C 448.29541015625 103.08328247070312 450.30804443359375 102.70394897460938 451.836669921875 101.50962829589844 C 453.1307373046875 100.49319458007812 453.913330078125 98.9930419921875 454.635986328125 97.52587890625 C 455.04058837890625 96.7010498046875 455.44415283203125 95.81179809570312 455.326171875 94.90577697753906 C 455.1590576171875 93.69940185546875 454.11328125 92.81840515136719 453.07470703125 92.18302917480469 C 451.555908203125 91.25126647949219 449.89630126953125 90.57147216796875 448.1602783203125 90.17001342773438 C 447.5601806640625 90.032470703125 446.9229736328125 89.92874145507812 446.33563232421875 90.11273193359375 C 445.79833984375 90.31175231933594 445.33050537109375 90.66281127929688 444.9892578125 91.12310791015625 C 443.8997802734375 92.47906494140625 443.46002197265625 94.24470520019531 443.7861328125 95.95327758789062 L 444.8822021484375 95.70828247070312" stroke-width="0.6000000238418579" fill="rgb(70, 150, 179)" opacity="1.0"/>
    <path d="M 319.5137939453125 381.6368103027344 C 317.2074890136719 382.0674133300781 314.6692199707031 382.64154052734375 313.31011962890625 384.5521240234375 C 311.8514099121094 386.60540771484375 312.34637451171875 389.5416564941406 313.7309875488281 391.6455383300781 C 314.2644958496094 392.4569396972656 314.9487609863281 393.2136535644531 315.8468017578125 393.5829162597656 C 316.58489990234375 393.88671875 317.4056701660156 393.9060363769531 318.2031555175781 393.87701416015625 C 320.7181396484375 393.78857421875 323.3950500488281 393.17913818359375 325.093994140625 391.3233337402344 C 326.8049621582031 389.4518127441406 327.1365661621094 386.4438781738281 325.86053466796875 384.25 C 324.58453369140625 382.0561218261719 321.821044921875 380.8322448730469 319.3416442871094 381.38226318359375 L 319.5137939453125 381.6368103027344" stroke-width="0.6000000238418579" fill="rgb(140, 28, 33)" opacity="1.0"/>
    <path d="M 305.7023620605469 396.9683837890625 C 302.54254150390625 397.9939880371094 299.265869140625 399.0960388183594 296.8231506347656 401.35113525390625 C 294.3804626464844 403.6061706542969 293.0045471191406 407.3917541503906 294.496337890625 410.3620910644531 C 296.34600830078125 414.0245361328125 301.8146057128906 414.60595703125 305.2101135253906 412.2894287109375 C 308.60565185546875 409.9728698730469 310.1866760253906 405.7400207519531 310.67864990234375 401.6642761230469 C 310.95733642578125 400.4178466796875 310.7586975097656 399.1123046875 310.1218566894531 398.0052185058594 C 309.3835144042969 396.988525390625 307.57421875 396.7174377441406 306.92999267578125 397.803466796875 L 305.7023620605469 396.9683837890625" stroke-width="0.6000000238418579" fill="rgb(159, 159, 159)" opacity="1.0"/>
    <path d="M 325.2875671386719 409.41802978515625 C 322.9848937988281 410.6642150878906 321.0590515136719 412.72650146484375 320.3250427246094 415.2384033203125 C 319.591064453125 417.750244140625 320.1890869140625 420.695556640625 322.1059875488281 422.49322509765625 C 323.462890625 423.762451171875 325.3542785644531 424.3702392578125 327.21368408203125 424.397705078125 C 329.0730895996094 424.42529296875 330.90667724609375 423.9149169921875 332.6159362792969 423.1815185546875 C 333.3595886230469 422.8619384765625 334.1164855957031 422.472900390625 334.5722961425781 421.80657958984375 C 335.0952453613281 421.04290771484375 335.1272277832031 420.0567626953125 335.0970458984375 419.1287841796875 C 335.0118713378906 416.5091552734375 334.52197265625 413.8028564453125 332.99041748046875 411.6754455566406 C 331.4588317871094 409.5480651855469 328.6817321777344 408.1613464355469 326.1639404296875 408.86712646484375 L 325.2875671386719 409.41802978515625" stroke-width="0.6000000238418579" fill="rgb(159, 159, 159)" opacity="1.0"/>
    <path d="M 274.40850830078125 412.7271728515625 C 272.48193359375 414.52197265625 270.4182434082031 416.6004638671875 270.299072265625 419.2257080078125 C 270.1795654296875 421.778564453125 271.931640625 423.99786376953125 273.62109375 425.9169921875 C 274.30853271484375 426.69561767578125 275.0401306152344 427.49920654296875 276.0135803222656 427.85986328125 C 277.65960693359375 428.47076416015625 279.4866027832031 427.654541015625 280.91326904296875 426.6356201171875 C 282.23785400390625 425.6903076171875 283.4197998046875 424.559814453125 284.4230041503906 423.278564453125 C 286.05267333984375 421.1988525390625 287.1993408203125 418.34271240234375 286.0959777832031 415.94293212890625 C 285.502197265625 414.646484375 284.3201599121094 413.6844482421875 283.0248718261719 413.0830078125 C 281.72955322265625 412.48162841796875 280.30987548828125 412.2047119140625 278.9044189453125 411.9512939453125 C 277.49896240234375 411.6978759765625 276.112548828125 411.47900390625 274.7599792480469 411.8166809082031 L 274.40850830078125 412.7271728515625" stroke-width="0.6000000238418579" fill="rgb(218, 166, 20)" opacity="1.0"/>
    <path d="M 223.21405029296875 412.49072265625 C 219.20892333984375 411.18798828125 214.90603637695312 413.3787841796875 213.60330200195312 417.3839111328125 C 213.49176025390625 417.72686767578125 213.4046630859375 418.0772705078125 213.34271240234375 418.4326171875 C 213.1075439453125 419.78265380859375 213.26705932617188 421.2568359375 214.06451416015625 422.3704833984375 C 214.73834228515625 423.3116455078125 215.78933715820312 423.9056396484375 216.85202026367188 424.362548828125 C 219.6982421875 425.5816650390625 222.8189697265625 426.0164794921875 225.8900146484375 425.62176513671875 C 226.70162963867188 425.51611328125 227.5296630859375 425.343017578125 228.21185302734375 424.8876953125 C 229.35763549804688 424.1240234375 229.88967895507812 422.6807861328125 229.94183349609375 421.3038330078125 C 230.02072143554688 419.2596435546875 229.184326171875 417.23626708984375 227.84375 415.69036865234375 C 226.503173828125 414.14447021484375 224.69180297851562 413.051025390625 222.76107788085938 412.3739013671875 L 223.21405029296875 412.49072265625" stroke-width="0.6000000238418579" fill="rgb(143, 165, 67)" opacity="1.0"/>
    <path d="M 283.42218017578125 368.9034118652344 C 283.58795166015625 373.7803649902344 290.3390197753906 376.7779541015625 294.2637939453125 373.9314270019531 C 298.1885681152344 371.0848693847656 297.6575012207031 364.0790710449219 293.4971923828125 361.5259704589844 C 289.3368835449219 358.9728698730469 283.16986083984375 361.2621765136719 281.34625244140625 365.79486083984375 L 283.42218017578125 368.9034118652344" stroke-width="0.6000000238418579" fill="rgb(233, 92, 21)" opacity="1.0"/>
    <path d="M 333.7307434082031 364.66845703125 C 333.38531494140625 367.1994934082031 333.2351989746094 370.2586669921875 335.300048828125 371.77734375 C 336.1452941894531 372.3497314453125 337.1473388671875 372.6457214355469 338.1679382324219 372.6244812011719 C 340.6945495605469 372.6398620605469 343.0718994140625 371.4296569824219 344.5461120605469 369.37762451171875 C 345.79217529296875 367.63372802734375 346.2219543457031 365.4721984863281 346.5887756347656 363.3738098144531 C 346.79290771484375 362.1947021484375 346.9722595214844 360.93548583984375 346.4934387207031 359.84600830078125 C 345.84332275390625 358.3990173339844 344.2138977050781 357.6800842285156 342.6831970214844 357.2655944824219 C 340.44378662109375 356.65618896484375 338.1205139160156 356.41326904296875 335.803466796875 356.5462341308594 C 335.0029602050781 356.59375 334.1684265136719 356.6971130371094 333.50152587890625 357.1418762207031 C 332.902587890625 357.587158203125 332.4461669921875 358.19708251953125 332.1878662109375 358.8973083496094 C 331.3218078613281 360.9908142089844 331.4176940917969 363.35888671875 332.4501953125 365.3755187988281 L 333.7307434082031 364.66845703125" stroke-width="0.6000000238418579" fill="rgb(70, 150, 179)" opacity="1.0"/>
    <path d="M 294.2734069824219 412.3072509765625 C 291.53021240234375 412.458740234375 288.4959716796875 412.7418212890625 286.6289978027344 414.75494384765625 C 284.6247863769531 416.91876220703125 284.7557678222656 420.4031982421875 286.0456237792969 423.0555419921875 C 286.54248046875 424.078369140625 287.2226867675781 425.06048583984375 288.2096862792969 425.625 C 289.0208740234375 426.08935546875 289.9710388183594 426.23583984375 290.9014587402344 426.3226318359375 C 293.83526611328125 426.60009765625 297.0358581542969 426.2969970703125 299.2891540527344 424.3988037109375 C 301.558837890625 422.484130859375 302.3985290527344 419.04144287109375 301.2483825683594 416.301025390625 C 300.09820556640625 413.560546875 297.07421875 411.72174072265625 294.11199951171875 411.9856872558594 L 294.2734069824219 412.3072509765625" stroke-width="0.6000000238418579" fill="rgb(140, 28, 33)" opacity="1.0"/>
    <path d="M 334.8445739746094 388.9208679199219 C 331.53448486328125 389.3083801269531 328.0943908691406 389.7480773925781 325.2479248046875 391.4860534667969 C 322.4014892578125 393.2240295410156 320.3034973144531 396.6773986816406 321.1868591308594 399.89276123046875 C 322.2861328125 403.859375 327.5513916015625 405.50677490234375 331.34722900390625 403.895751953125 C 335.14306640625 402.2846984863281 337.53082275390625 398.4316711425781 338.81634521484375 394.5190124511719 C 339.33563232421875 393.3476867675781 339.39697265625 392.0242919921875 338.98822021484375 390.80999755859375 C 338.4618835449219 389.6646423339844 336.7353210449219 389.0421447753906 335.88800048828125 389.9837951660156 L 334.8445739746094 388.9208679199219" stroke-width="0.6000000238418579" fill="rgb(159, 159, 159)" opacity="1.0"/>
    <path d="M 345.4670715332031 407.6737365722656 C 342.8535461425781 407.692138671875 340.18939208984375 408.60638427734375 338.36474609375 410.4756774902344 C 336.5400695800781 412.344970703125 335.6858825683594 415.220947265625 336.53216552734375 417.70391845703125 C 337.1327209472656 419.4586181640625 338.5144348144531 420.881103515625 340.14007568359375 421.77734375 C 341.7657165527344 422.6734619140625 343.6208190917969 423.08349609375 345.470947265625 423.23876953125 C 346.276123046875 423.305908203125 347.12554931640625 423.3179931640625 347.83966064453125 422.944580078125 C 348.6585998535156 422.516845703125 349.14923095703125 421.66278076171875 349.5577392578125 420.8309326171875 C 350.7110900878906 418.4825439453125 351.5484619140625 415.867919921875 351.1963806152344 413.2750244140625 C 350.84429931640625 410.6821594238281 349.04736328125 408.1579284667969 346.4976806640625 407.5992126464844 L 345.4670715332031 407.6737365722656" stroke-width="0.6000000238418579" fill="rgb(159, 159, 159)" opacity="1.0"/>
    <path d="M 257.58001708984375 371.7201843261719 C 257.4858703613281 369.07177734375 257.2665100097656 366.1320495605469 255.34912109375 364.31024169921875 C 253.4869384765625 362.535888671875 250.64422607421875 362.40447998046875 248.07098388671875 362.42340087890625 C 247.025634765625 362.4326171875 245.93218994140625 362.45892333984375 245.01605224609375 362.9612121582031 C 243.46609497070312 363.809814453125 242.8818359375 365.7371520996094 242.71572875976562 367.49383544921875 C 242.5609130859375 369.1242370605469 242.64102172851562 370.7684326171875 242.95358276367188 372.3760986328125 C 243.46014404296875 374.9866638183594 244.87548828125 377.741943359375 247.42767333984375 378.485595703125 C 248.804931640625 378.88909912109375 250.31585693359375 378.6247863769531 251.6273193359375 378.0365905761719 C 252.93878173828125 377.4483642578125 254.0855712890625 376.55157470703125 255.205078125 375.6501159667969 C 256.3245544433594 374.7486572265625 257.4052734375 373.8388977050781 258.0404968261719 372.58782958984375 L 257.58001708984375 371.7201843261719" stroke-width="0.6000000238418579" fill="rgb(218, 166, 20)" opacity="1.0"/>
    <path d="M 255.2548828125 392.71484375 C 252.48544311523438 389.3481750488281 247.51113891601562 388.864013671875 244.14447021484375 391.6334228515625 C 243.85617065429688 391.8705749511719 243.5850830078125 392.12786865234375 243.33319091796875 392.40338134765625 C 242.37628173828125 393.4504699707031 241.69473266601562 394.8255920410156 241.7705078125 396.2413330078125 C 241.83444213867188 397.437744140625 242.4207763671875 398.54119873046875 243.0936279296875 399.53155517578125 C 244.89837646484375 402.1800231933594 247.37933349609375 404.29693603515625 250.27880859375 405.6624450683594 C 251.04583740234375 406.0220947265625 251.86468505859375 406.3321228027344 252.71347045898438 406.3146667480469 C 254.138427734375 406.2862243652344 255.40618896484375 405.32318115234375 256.2183532714844 404.1507568359375 C 257.42535400390625 402.41094970703125 257.82208251953125 400.1797180175781 257.5130615234375 398.08441162109375 C 257.2040710449219 395.9891357421875 256.2322998046875 394.0265197753906 254.92462158203125 392.3607177734375 L 255.2548828125 392.71484375" stroke-width="0.6000000238418579" fill="rgb(143, 165, 67)" opacity="1.0"/>
    <path d="M 204.99713134765625 372.9821472167969 C 203.35983276367188 377.5066223144531 208.439208984375 382.7267150878906 213.0755615234375 381.56109619140625 C 217.71194458007812 380.3954772949219 219.79580688476562 373.78857421875 216.92462158203125 369.9256896972656 C 214.05340576171875 366.06280517578125 207.5692138671875 365.8958740234375 204.2374267578125 369.3755187988281 L 204.99713134765625 372.9821472167969" stroke-width="0.6000000238418579" fill="rgb(233, 92, 21)" opacity="1.0"/>
    <path d="M 270.28271484375 370.7335510253906 C 269.7129211425781 373.17425537109375 269.28546142578125 376.1488342285156 271.1630859375 377.8218688964844 C 271.9361877441406 378.4585876464844 272.8878479003906 378.8397216796875 273.88677978515625 378.91265869140625 C 276.3534851074219 379.1596374511719 278.786865234375 378.1957092285156 280.4153137207031 376.3265075683594 C 281.7926025390625 374.7373962402344 282.4108581542969 372.6653747558594 282.9618225097656 370.6492614746094 C 283.26947021484375 369.5162353515625 283.5602722167969 368.3026123046875 283.19256591796875 367.19439697265625 C 282.6903381347656 365.72125244140625 281.1646423339844 364.869384765625 279.70745849609375 364.323974609375 C 277.5758361816406 363.5231018066406 275.3286437988281 363.072509765625 273.0530700683594 362.9897155761719 C 272.2667541503906 362.9626159667969 271.4420471191406 362.9869689941406 270.749755859375 363.3602294921875 C 270.1238098144531 363.7402038574219 269.6219482421875 364.29412841796875 269.3053894042969 364.95440673828125 C 268.2671813964844 366.919921875 268.1434326171875 369.241943359375 268.9669189453125 371.3066711425781 L 270.28271484375 370.7335510253906" stroke-width="0.6000000238418579" fill="rgb(70, 150, 179)" opacity="1.0"/>
    <path d="M 329.5083923339844 366.8797607421875 C 329.6811828613281 364.1426696777344 329.7577819824219 361.1015319824219 327.98193359375 359.0138854980469 C 326.0729064941406 356.7724304199219 322.60345458984375 356.4920959472656 319.8224182128906 357.45849609375 C 318.75 357.83062744140625 317.6963806152344 358.3892822265625 317.0205993652344 359.30120849609375 C 316.46478271484375 360.0506591796875 316.207763671875 360.9753112792969 316.01214599609375 361.88739013671875 C 315.39178466796875 364.7629699707031 315.31549072265625 367.9713134765625 316.931884765625 370.42840576171875 C 318.5626525878906 372.9036865234375 321.8764953613281 374.1413269042969 324.7284240722656 373.32379150390625 C 327.5803527832031 372.5062561035156 329.7591552734375 369.7250671386719 329.84619140625 366.7575988769531 L 329.5083923339844 366.8797607421875" stroke-width="0.6000000238418579" fill="rgb(140, 28, 33)" opacity="1.0"/>
    <path d="M 351.2099304199219 390.4036560058594 C 347.93402099609375 390.96734619140625 344.531494140625 391.5899963378906 341.78985595703125 393.4737854003906 C 339.04827880859375 395.3575744628906 337.1441955566406 398.90966796875 338.1966552734375 402.0645751953125 C 339.5044860839844 405.9560852050781 344.8369140625 407.3141174316406 348.5308837890625 405.5057373046875 C 352.224853515625 403.6973876953125 354.39605712890625 399.7317199707031 355.46624755859375 395.765869140625 C 355.9205627441406 394.5713806152344 355.91058349609375 393.25006103515625 355.4382629394531 392.0626220703125 C 354.8525390625 390.9501647949219 353.09954833984375 390.42291259765625 352.30621337890625 391.40625 L 351.2099304199219 390.4036560058594" stroke-width="0.6000000238418579" fill="rgb(159, 159, 159)" opacity="1.0"/>
    <path d="M 187.276611328125 405.7120666503906 C 184.73822021484375 406.1604309082031 182.298095703125 407.4883117675781 180.8316650390625 409.6065979003906 C 179.36520385742188 411.72491455078125 179.00830078125 414.6622314453125 180.240234375 416.9373779296875 C 181.11325073242188 418.5447998046875 182.691162109375 419.70050048828125 184.41958618164062 420.30419921875 C 186.14801025390625 420.90789794921875 188.01953125 421.0010986328125 189.84420776367188 420.8472900390625 C 190.63821411132812 420.7799072265625 191.46621704101562 420.6517333984375 192.09912109375 420.1710205078125 C 192.82504272460938 419.62017822265625 193.16143798828125 418.7088623046875 193.42169189453125 417.8326416015625 C 194.15643310546875 415.3590087890625 194.5400390625 412.6785888671875 193.77056884765625 410.2152099609375 C 193.00112915039062 407.7518310546875 190.83795166015625 405.5931701660156 188.26654052734375 405.4698486328125 L 187.276611328125 405.7120666503906" stroke-width="0.6000000238418579" fill="rgb(159, 159, 159)" opacity="1.0"/>
    <path d="M 355.4906921386719 375.5942077636719 C 352.81072998046875 376.0145263671875 349.85003662109375 376.59783935546875 348.23358154296875 378.7697448730469 C 346.65863037109375 380.8797607421875 346.8735656738281 383.78485107421875 347.20819091796875 386.3976745605469 C 347.345703125 387.4588928222656 347.5065002441406 388.56689453125 348.1292419433594 389.4363708496094 C 349.18170166015625 390.9075622558594 351.2120361328125 391.2650451660156 353.01763916015625 391.2185363769531 C 354.6935729980469 391.176025390625 356.3547058105469 390.89306640625 357.9502258300781 390.3783264160156 C 360.5411682128906 389.54351806640625 363.1678466796875 387.7673645019531 363.6107482910156 385.0824890136719 C 363.8519592285156 383.63336181640625 363.3981628417969 382.1302185058594 362.6396179199219 380.8695068359375 C 361.88104248046875 379.6087951660156 360.8291015625 378.55328369140625 359.7757263183594 377.52606201171875 C 358.72235107421875 376.49884033203125 357.6653137207031 375.5120849609375 356.3160400390625 375.0198669433594 L 355.4906921386719 375.5942077636719" stroke-width="0.6000000238418579" fill="rgb(218, 166, 20)" opacity="1.0"/>
    <path d="M 372.7240905761719 388.1145935058594 C 369.1143493652344 390.5970764160156 368.2005310058594 395.53582763671875 370.68304443359375 399.14556884765625 C 370.8955993652344 399.45465087890625 371.1298522949219 399.748291015625 371.38397216796875 400.02423095703125 C 372.3498229980469 401.0726318359375 373.6678771972656 401.8736572265625 375.0919189453125 401.9198913574219 C 376.2953186035156 401.9590759277344 377.4507141113281 401.4671936035156 378.5003356933594 400.87890625 C 381.3077697753906 399.3003845214844 383.6413269042969 396.9989013671875 385.25860595703125 394.213623046875 C 385.68487548828125 393.4766540527344 386.06591796875 392.68353271484375 386.12164306640625 391.8321838378906 C 386.216064453125 390.4029846191406 385.3611755371094 389.05059814453125 384.25732421875 388.13629150390625 C 382.6194763183594 386.7777404785156 380.419677734375 386.18804931640625 378.2951354980469 386.31671142578125 C 376.1705627441406 386.44537353515625 374.1217346191406 387.24908447265625 372.3410339355469 388.4147033691406 L 372.7240905761719 388.1145935058594" stroke-width="0.6000000238418579" fill="rgb(143, 165, 67)" opacity="1.0"/>
    <path d="M 364.69122314453125 366.04931640625 C 365.2812805175781 370.9216613769531 372.3065185546875 373.33843994140625 375.9917297363281 370.1449890136719 C 379.67694091796875 366.9515075683594 378.5357971191406 359.9778137207031 374.1451721191406 357.7812194824219 C 369.7545471191406 355.5846252441406 363.7741394042969 358.4146423339844 362.3409118652344 363.1149597167969 L 364.69122314453125 366.04931640625" stroke-width="0.6000000238418579" fill="rgb(233, 92, 21)" opacity="1.0"/>
    <path d="M 395.9044494628906 367.4167175292969 C 395.375 369.8353576660156 394.9933776855469 372.7794189453125 396.8709411621094 374.4063720703125 C 397.643310546875 375.02471923828125 398.5885314941406 375.38818359375 399.57623291015625 375.44659423828125 C 402.01617431640625 375.6568298339844 404.4066467285156 374.6714172363281 405.9896240234375 372.8028259277344 C 407.328369140625 371.21429443359375 407.9107360839844 369.1591796875 408.42742919921875 367.16015625 C 408.7158203125 366.0367736816406 408.9864807128906 364.8340148925781 408.6081237792969 363.744384765625 C 408.0918884277344 362.2961120605469 406.5732116699219 361.4754943847656 405.1263732910156 360.9566650390625 C 403.0098876953125 360.1947021484375 400.78399658203125 359.7803649902344 398.53509521484375 359.72967529296875 C 397.7580261230469 359.7136535644531 396.9437255859375 359.7489929199219 396.2650146484375 360.12713623046875 C 395.65191650390625 360.51104736328125 395.16375732421875 361.0650329589844 394.8600769042969 361.7215576171875 C 393.8614196777344 363.67724609375 393.77093505859375 365.97259521484375 394.6125793457031 368.0008239746094 L 395.9044494628906 367.4167175292969" stroke-width="0.6000000238418579" fill="rgb(70, 150, 179)" opacity="1.0"/>
    <path d="M 389.6844787597656 410.55242919921875 C 388.4949645996094 413.0015869140625 387.2793273925781 415.76629638671875 388.1244201660156 418.352783203125 C 389.03387451171875 421.13067626953125 392.11529541015625 422.69476318359375 395.03387451171875 422.85443115234375 C 396.15911865234375 422.91644287109375 397.33734130859375 422.800048828125 398.3015441894531 422.21685791015625 C 399.0943298339844 421.73773193359375 399.6786804199219 420.98516845703125 400.20184326171875 420.22100830078125 C 401.8546142578125 417.81317138671875 403.1329650878906 414.894775390625 402.5735168457031 412.0289306640625 C 402.0076904296875 409.1410827636719 399.4297180175781 406.7561950683594 396.5021057128906 406.43316650390625 C 393.5744934082031 406.110107421875 390.52569580078125 407.8443298339844 389.32818603515625 410.53741455078125 L 389.6844787597656 410.55242919921875" stroke-width="0.6000000238418579" fill="rgb(140, 28, 33)" opacity="1.0"/>
    <path d="M 403.7613220214844 397.5482482910156 C 401.7381286621094 400.1950988769531 399.6620788574219 402.97161865234375 398.93121337890625 406.2244567871094 C 398.20037841796875 409.4772644042969 399.22198486328125 413.38525390625 402.14556884765625 414.9864501953125 C 405.75885009765625 416.954833984375 410.6029968261719 414.318603515625 412.0850830078125 410.4721374511719 C 413.5672607421875 406.62567138671875 412.4600830078125 402.231689453125 410.5436706542969 398.58795166015625 C 410.0634460449219 397.4005432128906 409.15557861328125 396.43634033203125 407.9992370605469 395.8856201171875 C 406.81060791015625 395.4673156738281 405.1630554199219 396.2745666503906 405.250244140625 397.5378723144531 L 403.7613220214844 397.5482482910156" stroke-width="0.6000000238418579" fill="rgb(159, 159, 159)" opacity="1.0"/>
    <path d="M 429.52069091796875 370.33380126953125 C 429.530029296875 372.9372253417969 430.43157958984375 375.5941467285156 432.287353515625 377.4181213378906 C 434.14312744140625 379.2420959472656 437.00494384765625 380.1028137207031 439.481201171875 379.26837158203125 C 441.231201171875 378.6761779785156 442.65283203125 377.3046875 443.5511474609375 375.6884765625 C 444.44940185546875 374.0722351074219 444.86419677734375 372.2257385253906 445.02520751953125 370.3833312988281 C 445.0948486328125 369.58154296875 445.1097412109375 368.7354736328125 444.740234375 368.0228271484375 C 444.3170166015625 367.20562744140625 443.4678955078125 366.7139587402344 442.6407470703125 366.3041687011719 C 440.305419921875 365.1472473144531 437.703857421875 364.3041687011719 435.119873046875 364.64599609375 C 432.535888671875 364.98779296875 430.0152587890625 366.76910400390625 429.45001220703125 369.30694580078125 L 429.52069091796875 370.33380126953125" stroke-width="0.6000000238418579" fill="rgb(159, 159, 159)" opacity="1.0"/>
    <path d="M 418.20068359375 406.1103820800781 C 415.7412109375 406.9894104003906 413.04541015625 408.0730285644531 411.90655517578125 410.4178466796875 C 410.7958068847656 412.6966552734375 411.52099609375 415.406005859375 412.306884765625 417.8173828125 C 412.62762451171875 418.7965087890625 412.978759765625 419.81573486328125 413.7239990234375 420.5263671875 C 414.98382568359375 421.7288818359375 416.96856689453125 421.7022705078125 418.668212890625 421.33392333984375 C 420.245849609375 420.99267578125 421.76629638671875 420.42657470703125 423.18304443359375 419.653076171875 C 425.48388671875 418.39794921875 427.6494140625 416.2459716796875 427.5860595703125 413.62677001953125 C 427.55389404296875 412.21270751953125 426.8546142578125 410.87237548828125 425.91064453125 409.81610107421875 C 424.96661376953125 408.7598571777344 423.78192138671875 407.9504089355469 422.60101318359375 407.1679992675781 C 421.4200439453125 406.38555908203125 420.242919921875 405.64202880859375 418.878173828125 405.4188537597656 L 418.20068359375 406.1103820800781" stroke-width="0.6000000238418579" fill="rgb(218, 166, 20)" opacity="1.0"/>
    <path d="M 142.63717651367188 230.13134765625 C 139.6298370361328 233.18557739257812 139.6678466796875 238.09945678710938 142.7220916748047 241.1068115234375 C 142.98362731933594 241.36431884765625 143.2631072998047 241.60296630859375 143.55841064453125 241.8209228515625 C 144.68067932128906 242.64898681640625 146.09542846679688 243.174072265625 147.47201538085938 242.95437622070312 C 148.6353302001953 242.76885986328125 149.654052734375 242.08203125 150.5532989501953 241.322265625 C 152.95753479003906 239.28518676757812 154.77247619628906 236.64154052734375 155.80960083007812 233.6658935546875 C 156.0823974609375 232.87887573242188 156.3013916015625 232.04629516601562 156.19705200195312 231.21807861328125 C 156.022705078125 229.82763671875 154.95065307617188 228.68695068359375 153.72068786621094 228.01333618164062 C 151.89532470703125 227.011962890625 149.6727294921875 226.85345458984375 147.65560913085938 227.37103271484375 C 145.63851928710938 227.888671875 143.81930541992188 229.04067993164062 142.32484436035156 230.49066162109375 L 142.63717651367188 230.13134765625" stroke-width="0.6000000238418579" fill="rgb(143, 165, 67)" opacity="1.0"/>
    <path d="M 166.37078857421875 264.8035888671875 C 166.7039794921875 269.6580505371094 173.53509521484375 272.4127502441406 177.3482666015625 269.4408264160156 C 181.16146850585938 266.4688415527344 180.39089965820312 259.5054931640625 176.15695190429688 257.1044616699219 C 171.92300415039062 254.70346069335938 165.8560791015625 257.19732666015625 164.19491577148438 261.7772521972656 L 166.37078857421875 264.8035888671875" stroke-width="0.6000000238418579" fill="rgb(233, 92, 21)" opacity="1.0"/>
    <path d="M 155.3740692138672 313.3173522949219 C 154.1977996826172 315.5195617675781 153.02110290527344 318.2721252441406 154.3975830078125 320.365234375 C 154.977783203125 321.1769104003906 155.7955322265625 321.78851318359375 156.73806762695312 322.11572265625 C 159.04833984375 322.988037109375 161.63812255859375 322.68646240234375 163.68612670898438 321.306640625 C 165.42041015625 320.1317138671875 166.5484619140625 318.2967834472656 167.597412109375 316.49835205078125 C 168.18499755859375 315.48712158203125 168.77706909179688 314.39404296875 168.70834350585938 313.23297119140625 C 168.60403442382812 311.6860656738281 167.35498046875 310.4737243652344 166.09295654296875 309.5739440917969 C 164.2476806640625 308.25482177734375 162.2010498046875 307.2430419921875 160.03244018554688 306.577880859375 C 159.28271484375 306.3495178222656 158.4827880859375 306.1607666015625 157.72055053710938 306.34185791015625 C 157.02041625976562 306.5464782714844 156.39495849609375 306.9504089355469 155.92041015625 307.50439453125 C 154.4156036376953 309.1287841796875 153.69911193847656 311.3315124511719 153.9603729248047 313.5303649902344 L 155.3740692138672 313.3173522949219" stroke-width="0.6000000238418579" fill="rgb(70, 150, 179)" opacity="1.0"/>
    <path d="M 125.84469604492188 297.39892578125 C 124.87628173828125 294.8585510253906 123.69619750976562 292.0834045410156 121.23651123046875 290.92938232421875 C 118.59349060058594 289.6913146972656 115.34822082519531 290.863525390625 113.23611450195312 292.87774658203125 C 112.42144775390625 293.6540222167969 111.70036315917969 294.5908203125 111.46527099609375 295.6911315917969 C 111.27166748046875 296.5956115722656 111.41958618164062 297.5353698730469 111.61776733398438 298.4386291503906 C 112.2392578125 301.2877502441406 113.48831176757812 304.2136535644531 115.95588684082031 305.7665100097656 C 118.44390869140625 307.3298034667969 121.94203186035156 307.0851745605469 124.17919921875 305.1761474609375 C 126.4163818359375 303.26708984375 127.23968505859375 299.8629455566406 126.09927368164062 297.14996337890625 L 125.84469604492188 297.39892578125" stroke-width="0.6000000238418579" fill="rgb(140, 28, 33)" opacity="1.0"/>
    <path d="M 139.68899536132812 273.25286865234375 C 136.61463928222656 274.582275390625 133.4302520751953 275.99951171875 131.19239807128906 278.49493408203125 C 128.95457458496094 280.9903564453125 127.93283081054688 284.9207763671875 129.71218872070312 287.76068115234375 C 131.91644287109375 291.26129150390625 137.46080017089844 291.3258056640625 140.6492156982422 288.6782531738281 C 143.83761596679688 286.03070068359375 145.02281188964844 281.6318664550781 145.12974548339844 277.49407958984375 C 145.2911834716797 276.21649169921875 144.9678497314453 274.9248962402344 144.22354125976562 273.87408447265625 C 143.38592529296875 272.92364501953125 141.54408264160156 272.82330322265625 141.00051879882812 273.9745788574219 L 139.68899536132812 273.25286865234375" stroke-width="0.6000000238418579" fill="rgb(159, 159, 159)" opacity="1.0"/>
    <path d="M 157.27484130859375 296.3984680175781 C 155.70436096191406 298.4361267089844 154.79782104492188 301.0562438964844 155.14085388183594 303.60455322265625 C 155.48388671875 306.15283203125 157.1959228515625 308.55902099609375 159.63436889648438 309.4084167480469 C 161.359130859375 310.00677490234375 163.2999267578125 309.79791259765625 164.98052978515625 309.0808410644531 C 166.6611328125 308.3637390136719 168.10394287109375 307.1739196777344 169.34619140625 305.83349609375 C 169.88641357421875 305.2498779296875 170.410888671875 304.59857177734375 170.5543212890625 303.8183898925781 C 170.71923828125 302.9240417480469 170.3544921875 302.0257568359375 169.95724487304688 301.20458984375 C 168.83563232421875 298.8863220214844 167.3160400390625 296.6516418457031 165.092041015625 295.3524169921875 C 162.86807250976562 294.0531921386719 159.82122802734375 293.9159240722656 157.84197998046875 295.5541687011719 L 157.27484130859375 296.3984680175781" stroke-width="0.6000000238418579" fill="rgb(159, 159, 159)" opacity="1.0"/>
    <path d="M 126.34197998046875 346.0728454589844 C 125.53424072265625 343.56695556640625 124.52786254882812 340.8164978027344 122.201416015625 339.59478759765625 C 119.94061279296875 338.40350341796875 117.18785095214844 339.0483093261719 114.73338317871094 339.7637634277344 C 113.73670959472656 340.0558776855469 112.69869995117188 340.37738037109375 111.95916748046875 341.1057434082031 C 110.7076416015625 342.3369445800781 110.67153930664062 344.3375244140625 110.98884582519531 346.06158447265625 C 111.28273010253906 347.6619567871094 111.80490112304688 349.2118225097656 112.53935241699219 350.66375732421875 C 113.73104858398438 353.021728515625 115.83059692382812 355.271728515625 118.47158813476562 355.2908630371094 C 119.8973388671875 355.30328369140625 121.26994323730469 354.64117431640625 122.36407470703125 353.7235107421875 C 123.45819091796875 352.80584716796875 124.311279296875 351.63787841796875 125.13700866699219 350.47283935546875 C 125.96273803710938 349.30780029296875 126.7491455078125 348.14532470703125 127.01727294921875 346.7773742675781 L 126.34197998046875 346.0728454589844" stroke-width="0.6000000238418579" fill="rgb(218, 166, 20)" opacity="1.0"/>
    <path d="M 165.87841796875 347.54962158203125 C 162.694091796875 350.2892761230469 162.33358764648438 355.0915832519531 165.0732421875 358.2759094238281 C 165.30783081054688 358.548583984375 165.56146240234375 358.8042907714844 165.83224487304688 359.04107666015625 C 166.861328125 359.9405822753906 168.20059204101562 360.5679016113281 169.56283569335938 360.4647521972656 C 170.71405029296875 360.377685546875 171.76455688476562 359.789306640625 172.70428466796875 359.1200256347656 C 175.21728515625 357.32501220703125 177.20379638671875 354.889892578125 178.45751953125 352.0675964355469 C 178.78765869140625 351.321044921875 179.06887817382812 350.52557373046875 179.03399658203125 349.7082824707031 C 178.97625732421875 348.33612060546875 178.021484375 347.13531494140625 176.87472534179688 346.3778991699219 C 175.1729736328125 345.252197265625 173.01507568359375 344.9175109863281 171.00311279296875 345.25982666015625 C 168.9912109375 345.60211181640625 167.1212158203125 346.5800476074219 165.54428100585938 347.87530517578125 L 165.87841796875 347.54962158203125" stroke-width="0.6000000238418579" fill="rgb(143, 165, 67)" opacity="1.0"/>
    <path d="M 133.46676635742188 376.2085266113281 C 131.26016235351562 372.1014404296875 124.2086181640625 372.3919372558594 122.052001953125 376.4916076660156 C 119.89540100097656 380.5912780761719 123.31611633300781 386.36712646484375 127.96038818359375 386.792724609375 C 132.60467529296875 387.2182922363281 136.91773986816406 382.64666748046875 136.5608367919922 377.9922790527344 L 133.46676635742188 376.2085266113281" stroke-width="0.6000000238418579" fill="rgb(233, 92, 21)" opacity="1.0"/>
    <path d="M 179.2547607421875 366.1248474121094 C 178.2255859375 368.3409423828125 177.22610473632812 371.0948486328125 178.6854248046875 373.06494140625 C 179.29666137695312 373.8263854980469 180.12911987304688 374.3793640136719 181.0679931640625 374.6476135253906 C 183.373046875 375.37384033203125 185.88717651367188 374.9377746582031 187.81304931640625 373.4776611328125 C 189.44354248046875 372.2348937988281 190.44561767578125 370.38031005859375 191.37237548828125 368.5657043457031 C 191.89129638671875 367.5455322265625 192.41015625 366.4450988769531 192.27960205078125 365.3143005371094 C 192.09320068359375 363.8084716796875 190.8065185546875 362.6920471191406 189.52423095703125 361.8817443847656 C 187.64910888671875 360.6935119628906 185.593994140625 359.8166198730469 183.43865966796875 359.2850646972656 C 182.693603515625 359.10284423828125 181.90164184570312 358.96209716796875 181.16668701171875 359.1806640625 C 180.4937744140625 359.4188537597656 179.90463256835938 359.8476867675781 179.47119140625 360.4149169921875 C 178.0894775390625 362.0843505859375 177.5096435546875 364.27587890625 177.885009765625 366.4101867675781 L 179.2547607421875 366.1248474121094" stroke-width="0.6000000238418579" fill="rgb(70, 150, 179)" opacity="1.0"/>
  </g>
</svg>
