<?xml version="1.0" ?>
<svg xmlns="http://www.w3.org/2000/svg" version="1.1" width="600" height="600">
  <defs/>
  <g>
    <path d="M 353.21807861328125 343.9383239746094 C 354.9416809082031 345.0628967285156 357.61236572265625 343.45892333984375 357.5808410644531 341.41436767578125 C 357.54931640625 339.36981201171875 355.0023498535156 337.85546875 353.1129150390625 338.6728515625 C 351.2234802246094 339.4902648925781 350.519287109375 342.17376708984375 351.6419982910156 343.901611328125 L 353.21807861328125 343.9383239746094" stroke-width="0.6000000238418579" fill="rgb(233, 92, 21)" opacity="1.0"/>
    <path d="M 104.632080078125 201.43289184570312 C 105.42373657226562 200.66909790039062 106.2901611328125 199.67462158203125 105.996826171875 198.61050415039062 C 105.86361694335938 198.19158935546875 105.60368347167969 197.82431030273438 105.25288391113281 197.55938720703125 C 104.40257263183594 196.8804931640625 103.27597045898438 196.6558837890625 102.23031616210938 196.95672607421875 C 101.34396362304688 197.2142333984375 100.62229919433594 197.83056640625 99.93875122070312 198.4423828125 C 99.55534362792969 198.78665161132812 99.15895080566406 199.1646728515625 99.03036499023438 199.6607666015625 C 98.86441040039062 200.32342529296875 99.22373962402344 201.0009765625 99.630859375 201.54928588867188 C 100.22564697265625 202.35247802734375 100.946533203125 203.0540771484375 101.76553344726562 203.62689208984375 C 102.04888916015625 203.82427978515625 102.35867309570312 204.01181030273438 102.70277404785156 204.03924560546875 C 103.0240478515625 204.04833984375 103.34100341796875 203.96380615234375 103.61505126953125 203.79586791992188 C 104.46612548828125 203.31884765625 105.06509399414062 202.49249267578125 105.25363159179688 201.53521728515625 L 104.632080078125 201.43289184570312" stroke-width="0.6000000238418579" fill="rgb(70, 150, 179)" opacity="1.0"/>
    <path d="M 458.24371337890625 429.7427978515625 C 458.619140625 430.57958984375 459.0704345703125 431.49139404296875 459.9212646484375 431.8323974609375 C 460.83538818359375 432.1981201171875 461.9056396484375 431.7403564453125 462.57794189453125 431.02099609375 C 462.8372802734375 430.7437744140625 463.06201171875 430.41424560546875 463.11981201171875 430.0390625 C 463.16748046875 429.730712890625 463.09942626953125 429.4171142578125 463.01513671875 429.11669921875 C 462.7506103515625 428.169189453125 462.273193359375 427.20794677734375 461.4119873046875 426.7327880859375 C 460.543701171875 426.2545166015625 459.3702392578125 426.40478515625 458.65380859375 427.09112548828125 C 457.9373779296875 427.7774658203125 457.72607421875 428.93994140625 458.162841796875 429.83154296875 L 458.24371337890625 429.7427978515625" stroke-width="0.6000000238418579" fill="rgb(140, 28, 33)" opacity="1.0"/>
    <path d="M 91.28959655761719 196.3680419921875 C 92.70635986328125 195.76553344726562 94.17391967773438 195.12295532226562 95.20942687988281 193.982177734375 C 96.24490356445312 192.84140014648438 96.72543334960938 191.03765869140625 95.91543579101562 189.7274169921875 C 94.9119873046875 188.1123046875 92.36380004882812 188.06732177734375 90.89096069335938 189.275390625 C 89.41815185546875 190.48345947265625 88.8612060546875 192.50201416015625 88.80059814453125 194.40359497070312 C 88.72285461425781 194.9903564453125 88.86788940429688 195.58489990234375 89.20709228515625 196.0699462890625 C 89.58944702148438 196.5091552734375 90.43574523925781 196.56036376953125 90.68878173828125 196.03271484375 L 91.28959655761719 196.3680419921875" stroke-width="0.6000000238418579" fill="rgb(159, 159, 159)" opacity="1.0"/>
    <path d="M 377.6711120605469 299.4886474609375 C 378.4281921386719 299.0251770019531 379.0429382324219 298.2922058105469 379.2460632324219 297.4285583496094 C 379.44921875 296.5649108886719 379.19354248046875 295.57855224609375 378.5121154785156 295.00457763671875 C 378.0298156738281 294.599365234375 377.3785095214844 294.4277648925781 376.7485046386719 294.4520263671875 C 376.1184997558594 294.4762878417969 375.5069580078125 294.68218994140625 374.9415283203125 294.9613342285156 C 374.695556640625 295.08294677734375 374.4463195800781 295.22833251953125 374.3040466308594 295.462158203125 C 374.1407775878906 295.7301330566406 374.14776611328125 296.0646057128906 374.17474365234375 296.3782043457031 C 374.2508850097656 297.2635192871094 374.4656066894531 298.1709289550781 375.0225524902344 298.8634948730469 C 375.5794677734375 299.5560607910156 376.5447082519531 299.97540283203125 377.3843688964844 299.69097900390625 L 377.6711120605469 299.4886474609375" stroke-width="0.6000000238418579" fill="rgb(159, 159, 159)" opacity="1.0"/>
    <path d="M 98.77207946777344 431.5223388671875 C 99.22906494140625 430.6826171875 99.70065307617188 429.72943115234375 99.439697265625 428.8116455078125 C 99.18719482421875 427.9188232421875 98.32852172851562 427.3560791015625 97.52597045898438 426.8895263671875 C 97.19964599609375 426.700439453125 96.85525512695312 426.5079345703125 96.47854614257812 426.49566650390625 C 95.8414306640625 426.474609375 95.30615234375 426.9659423828125 94.93205261230469 427.48095703125 C 94.58464050292969 427.95880126953125 94.30764770507812 428.484130859375 94.10955810546875 429.04071044921875 C 93.78759765625 429.94439697265625 93.72126770019531 431.05987548828125 94.37728881835938 431.7593994140625 C 94.73089599609375 432.13751220703125 95.24864196777344 432.3328857421875 95.76388549804688 432.3909912109375 C 96.27914428710938 432.4490966796875 96.79991149902344 432.381103515625 97.31304931640625 432.3067626953125 C 97.82620239257812 432.2322998046875 98.32882690429688 432.148193359375 98.75578308105469 431.8763427734375 L 98.77207946777344 431.5223388671875" stroke-width="0.6000000238418579" fill="rgb(218, 166, 20)" opacity="1.0"/>
    <path d="M 100.71145629882812 139.5431671142578 C 102.45329284667969 139.9794464111328 104.21902465820312 138.92108154296875 104.65530395507812 137.17922973632812 C 104.69265747070312 137.0300750732422 104.71939086914062 136.8784637451172 104.73529052734375 136.72552490234375 C 104.79560852050781 136.14437866210938 104.68438720703125 135.52206420898438 104.31243896484375 135.0718536376953 C 103.9981689453125 134.6913604736328 103.53366088867188 134.46961975097656 103.0682373046875 134.30654907226562 C 101.82177734375 133.87173461914062 100.48162841796875 133.77859497070312 99.18701171875 134.03680419921875 C 98.84492492675781 134.1056365966797 98.49783325195312 134.20359802246094 98.22105407714844 134.4173126220703 C 97.75619506835938 134.77584838867188 97.57234191894531 135.40533447265625 97.59065246582031 135.99253845214844 C 97.61724853515625 136.8643341064453 98.03251647949219 137.70033264160156 98.64817810058594 138.3184356689453 C 99.26383972167969 138.9365234375 100.06643676757812 139.3483123779297 100.90756225585938 139.57952880859375 L 100.71145629882812 139.5431671142578" stroke-width="0.6000000238418579" fill="rgb(143, 165, 67)" opacity="1.0"/>
    <path d="M 455.1434326171875 340.76702880859375 C 457.15087890625 342.00775146484375 460.167236328125 340.0940856933594 460.07373046875 337.7512512207031 C 459.98016357421875 335.40838623046875 457.0179443359375 333.7439880371094 454.875 334.7340393066406 C 452.7320556640625 335.7240905761719 452.00018310546875 338.8200378417969 453.335693359375 340.76922607421875 L 455.1434326171875 340.76702880859375" stroke-width="0.6000000238418579" fill="rgb(233, 92, 21)" opacity="1.0"/>
    <path d="M 108.0040283203125 215.6522216796875 C 108.89523315429688 215.0672607421875 109.89912414550781 214.27606201171875 109.81114196777344 213.21002197265625 C 109.75961303710938 212.78713989257812 109.57814025878906 212.39068603515625 109.291748046875 212.0753173828125 C 108.60411071777344 211.27593994140625 107.57168579101562 210.85943603515625 106.52188110351562 210.95791625976562 C 105.63154602050781 211.043701171875 104.83351135253906 211.5008544921875 104.07260131835938 211.96051025390625 C 103.64556884765625 212.21942138671875 103.20013427734375 212.50811767578125 102.98849487304688 212.9573974609375 C 102.7113037109375 213.55856323242188 102.93161010742188 214.26837158203125 103.22068786621094 214.86370849609375 C 103.64266967773438 215.7354736328125 104.20294189453125 216.533203125 104.87983703613281 217.2259521484375 C 105.11416625976562 217.46487426757812 105.37542724609375 217.69915771484375 105.69818115234375 217.78717041015625 C 106.00244140625 217.85360717773438 106.31948852539062 217.830078125 106.61064147949219 217.719482421875 C 107.50686645507812 217.41827392578125 108.225830078125 216.73907470703125 108.57748413085938 215.8614501953125 L 108.0040283203125 215.6522216796875" stroke-width="0.6000000238418579" fill="rgb(70, 150, 179)" opacity="1.0"/>
    <path d="M 102.4156494140625 79.12107849121094 C 102.84742736816406 80.08517456054688 103.36648559570312 81.13568115234375 104.34616088867188 81.529052734375 C 105.3988037109375 81.95097351074219 106.63186645507812 81.424560546875 107.40673828125 80.5965576171875 C 107.70562744140625 80.27743530273438 107.96467590332031 79.89808654785156 108.03157043457031 79.46604919433594 C 108.08670043945312 79.11090087890625 108.00857543945312 78.74960327148438 107.9117431640625 78.40359497070312 C 107.60772705078125 77.31204223632812 107.05857849121094 76.20458984375 106.06704711914062 75.65667724609375 C 105.06735229492188 75.10516357421875 103.71571350097656 75.27731323242188 102.8900146484375 76.06729125976562 C 102.06430053710938 76.85726928710938 101.82008361816406 78.19601440429688 102.3223876953125 79.22328186035156 L 102.4156494140625 79.12107849121094" stroke-width="0.6000000238418579" fill="rgb(140, 28, 33)" opacity="1.0"/>
    <path d="M 93.03091430664062 426.28497314453125 C 94.46821594238281 426.220458984375 95.96310424804688 426.13751220703125 97.24253845214844 425.4771728515625 C 98.52195739746094 424.8167724609375 99.53215026855469 423.3946533203125 99.25119018554688 421.9827880859375 C 98.9005126953125 420.2408447265625 96.68423461914062 419.36865234375 94.99993896484375 419.9449462890625 C 93.31562805175781 420.521240234375 92.16830444335938 422.1065673828125 91.4937744140625 423.7515869140625 C 91.23394775390625 424.2398681640625 91.16661071777344 424.807861328125 91.30506896972656 425.3433837890625 C 91.49630737304688 425.85284423828125 92.22048950195312 426.17431640625 92.61447143554688 425.7950439453125 L 93.03091430664062 426.28497314453125" stroke-width="0.6000000238418579" fill="rgb(159, 159, 159)" opacity="1.0"/>
    <path d="M 468.4139404296875 60.817657470703125 C 469.1351318359375 59.965606689453125 469.58001708984375 58.847900390625 469.48193359375 57.736541748046875 C 469.3837890625 56.62518310546875 468.689453125 55.54826354980469 467.64935302734375 55.1317138671875 C 466.91363525390625 54.838134765625 466.0682373046875 54.89015197753906 465.3255615234375 55.16761779785156 C 464.5828857421875 55.445098876953125 463.933837890625 55.93218994140625 463.36883544921875 56.488555908203125 C 463.12310791015625 56.730804443359375 462.8828125 57.00270080566406 462.80517578125 57.3380126953125 C 462.7159423828125 57.72239685058594 462.856201171875 58.11900329589844 463.01214599609375 58.482818603515625 C 463.4522705078125 59.509918212890625 464.066650390625 60.508697509765625 465.00482177734375 61.115966796875 C 465.9429931640625 61.723236083984375 467.260986328125 61.84318542480469 468.1513671875 61.17236328125 L 468.4139404296875 60.817657470703125" stroke-width="0.6000000238418579" fill="rgb(159, 159, 159)" opacity="1.0"/>
    <path d="M 92.31121826171875 105.75897216796875 C 93.260009765625 105.97793579101562 94.32412719726562 106.18020629882812 95.15333557128906 105.67338562011719 C 95.96043395996094 105.181640625 96.2779541015625 104.18536376953125 96.51643371582031 103.27041625976562 C 96.61277770996094 102.89857482910156 96.7076416015625 102.508056640625 96.61668395996094 102.13507080078125 C 96.46322631835938 101.50418090820312 95.8349609375 101.11320495605469 95.22740173339844 100.88687133789062 C 94.66357421875 100.67655944824219 94.07247924804688 100.54830932617188 93.47219848632812 100.50604248046875 C 92.49752807617188 100.43704223632812 91.3848876953125 100.6767578125 90.8778076171875 101.51158142089844 C 90.60337829589844 101.96186828613281 90.55319213867188 102.52323913574219 90.636962890625 103.044677734375 C 90.72073364257812 103.56613159179688 90.9296875 104.05853271484375 91.14291381835938 104.54170227050781 C 91.35614013671875 105.02487182617188 91.57600402832031 105.49507141113281 91.95942687988281 105.83969116210938 L 92.31121826171875 105.75897216796875" stroke-width="0.6000000238418579" fill="rgb(218, 166, 20)" opacity="1.0"/>
    <path d="M 118.01986694335938 127.37966918945312 C 119.71316528320312 126.75765991210938 120.58163452148438 124.8807373046875 119.95962524414062 123.18743896484375 C 119.9063720703125 123.04243469238281 119.8428955078125 122.90139770507812 119.7696533203125 122.765380859375 C 119.4913330078125 122.24861145019531 119.04727172851562 121.79457092285156 118.48391723632812 121.63082885742188 C 118.00784301757812 121.49241638183594 117.49673461914062 121.57073974609375 117.01800537109375 121.69833374023438 C 115.73699951171875 122.04159545898438 114.57125854492188 122.72158813476562 113.64189147949219 123.66767883300781 C 113.39665222167969 123.91818237304688 113.16372680664062 124.1956787109375 113.05462646484375 124.52963256835938 C 112.87112426757812 125.09011840820312 113.07415771484375 125.71685791015625 113.42121887207031 126.1942138671875 C 113.93597412109375 126.90328979492188 114.75335693359375 127.36299133300781 115.614013671875 127.5284423828125 C 116.47467041015625 127.69387817382812 117.37400817871094 127.58233642578125 118.20329284667969 127.29904174804688 L 118.01986694335938 127.37966918945312" stroke-width="0.6000000238418579" fill="rgb(143, 165, 67)" opacity="1.0"/>
    <path d="M 388.61859130859375 301.8440856933594 C 390.3082580566406 303.44891357421875 393.6105041503906 302.2085876464844 393.993408203125 299.9251403808594 C 394.3763122558594 297.64166259765625 391.849365234375 295.4344177246094 389.5779724121094 295.9584655761719 C 387.3066101074219 296.48248291015625 385.9737243652344 299.3271484375 386.8708190917969 301.4809875488281 L 388.61859130859375 301.8440856933594" stroke-width="0.6000000238418579" fill="rgb(233, 92, 21)" opacity="1.0"/>
    <path d="M 122.7259521484375 111.79425048828125 C 123.51553344726562 111.08905029296875 124.38555908203125 110.164794921875 124.14288330078125 109.13064575195312 C 124.03028869628906 108.72283935546875 123.79393005371094 108.36004638671875 123.46640014648438 108.09226989746094 C 122.67384338378906 107.40794372558594 121.5987548828125 107.15020751953125 120.58206176757812 107.40080261230469 C 119.72016906738281 107.6156005859375 119.00335693359375 108.18157958984375 118.32337951660156 108.74459838867188 C 117.94192504882812 109.06149291992188 117.54672241210938 109.41032409667969 117.40470886230469 109.88262939453125 C 117.2205810546875 110.51371765136719 117.541015625 111.17861938476562 117.91221618652344 111.72096252441406 C 118.4544677734375 112.51536560058594 119.1217041015625 113.21676635742188 119.88809204101562 113.79794311523438 C 120.15327453613281 113.99822998046875 120.4442138671875 114.19007873535156 120.77410888671875 114.22918701171875 C 121.08271789550781 114.24984741210938 121.39067077636719 114.18026733398438 121.66041564941406 114.0289306640625 C 122.49652099609375 113.60171508789062 123.10311889648438 112.82923889160156 123.31986999511719 111.91567993164062 L 122.7259521484375 111.79425048828125" stroke-width="0.6000000238418579" fill="rgb(70, 150, 179)" opacity="1.0"/>
    <path d="M 428.917724609375 71.18499755859375 C 429.4420166015625 72.05502319335938 430.05963134765625 72.99737548828125 431.04052734375 73.2589111328125 C 432.0943603515625 73.53923034667969 433.2100830078125 72.89335632324219 433.8533935546875 72.01287841796875 C 434.10162353515625 71.67349243164062 434.30474853515625 71.28128051757812 434.318359375 70.86111450195312 C 434.3297119140625 70.51571655273438 434.21307373046875 70.179931640625 434.0804443359375 69.86090087890625 C 433.66326904296875 68.8543701171875 433.01031494140625 67.86114501953125 432.0001220703125 67.45346069335938 C 430.98175048828125 67.04330444335938 429.71160888671875 67.36483764648438 429.015380859375 68.21490478515625 C 428.319091796875 69.06500244140625 428.24169921875 70.37126159667969 428.840576171875 71.29339599609375 L 428.917724609375 71.18499755859375" stroke-width="0.6000000238418579" fill="rgb(140, 28, 33)" opacity="1.0"/>
    <path d="M 116.14910888671875 416.392578125 C 117.07601928710938 415.16253662109375 118.02694702148438 413.8724365234375 118.3544921875 412.36639404296875 C 118.68203735351562 410.8603820800781 118.1973876953125 409.0570373535156 116.8408203125 408.32611083984375 C 115.16423034667969 407.4275817871094 112.9332275390625 408.66162109375 112.26025390625 410.4444580078125 C 111.5872802734375 412.227294921875 112.113037109375 414.2550048828125 113.01048278808594 415.93341064453125 C 113.23623657226562 416.4808349609375 113.65896606445312 416.92364501953125 114.19528198242188 417.174560546875 C 114.74607849121094 417.3641357421875 115.50515747070312 416.98577880859375 115.46084594726562 416.402099609375 L 116.14910888671875 416.392578125" stroke-width="0.6000000238418579" fill="rgb(159, 159, 159)" opacity="1.0"/>
    <path d="M 452.3848876953125 429.905029296875 C 452.8828125 428.97882080078125 453.0743408203125 427.86181640625 452.76654052734375 426.8568115234375 C 452.45880126953125 425.85186767578125 451.60833740234375 424.9952392578125 450.56842041015625 424.81475830078125 C 449.8330078125 424.6881103515625 449.0640869140625 424.9013671875 448.4339599609375 425.30224609375 C 447.8038330078125 425.7032470703125 447.301025390625 426.27899169921875 446.88909912109375 426.9022216796875 C 446.71002197265625 427.1734619140625 446.54180908203125 427.4710693359375 446.5357666015625 427.79522705078125 C 446.52874755859375 428.1668701171875 446.735595703125 428.50494384765625 446.95037841796875 428.8096923828125 C 447.556884765625 429.670166015625 448.31829833984375 430.470458984375 449.3016357421875 430.8465576171875 C 450.28497314453125 431.2227783203125 451.52294921875 431.0755615234375 452.2122802734375 430.28326416015625 L 452.3848876953125 429.905029296875" stroke-width="0.6000000238418579" fill="rgb(159, 159, 159)" opacity="1.0"/>
    <path d="M 449.486572265625 286.139892578125 C 450.15728759765625 285.3850402832031 450.87005615234375 284.51690673828125 450.8206787109375 283.5103454589844 C 450.7740478515625 282.5313720703125 450.02490234375 281.7474060058594 449.310546875 281.0757751464844 C 449.01995849609375 280.8033447265625 448.71160888671875 280.5229797363281 448.326904296875 280.42047119140625 C 447.6763916015625 280.2467346191406 447.0084228515625 280.6243591308594 446.50054931640625 281.06494140625 C 446.029052734375 281.47369384765625 445.61865234375 281.9480285644531 445.28192138671875 282.4734191894531 C 444.73486328125 283.32635498046875 444.40032958984375 284.4582214355469 444.9083251953125 285.33453369140625 C 445.18182373046875 285.8080139160156 445.6678466796875 286.1325988769531 446.18414306640625 286.3153991699219 C 446.700439453125 286.4981994628906 447.25244140625 286.5526428222656 447.7982177734375 286.5986022949219 C 448.3438720703125 286.64453125 448.881103515625 286.6780090332031 449.38531494140625 286.5002136230469 L 449.486572265625 286.139892578125" stroke-width="0.6000000238418579" fill="rgb(218, 166, 20)" opacity="1.0"/>
    <path d="M 421.1351318359375 365.9115295410156 C 422.2540283203125 367.18035888671875 424.189697265625 367.3018493652344 425.45849609375 366.18292236328125 C 425.567138671875 366.0871276855469 425.6688232421875 365.9837341308594 425.7628173828125 365.8735046386719 C 426.1199951171875 365.4546813964844 426.3660888671875 364.9122619628906 426.3177490234375 364.3642272949219 C 426.277099609375 363.90106201171875 426.03497314453125 363.4809265136719 425.76080322265625 363.1058044433594 C 425.025634765625 362.1026611328125 424.03515625 361.314697265625 422.89251708984375 360.82373046875 C 422.5902099609375 360.6944885253906 422.2685546875 360.58514404296875 421.9395751953125 360.60321044921875 C 421.3873291015625 360.63323974609375 420.908447265625 361.02362060546875 420.609130859375 361.4891357421875 C 420.1641845703125 362.17999267578125 420.0400390625 363.05059814453125 420.187744140625 363.8591003417969 C 420.33551025390625 364.6676330566406 420.738525390625 365.41583251953125 421.26788330078125 366.0444641113281 L 421.1351318359375 365.9115295410156" stroke-width="0.6000000238418579" fill="rgb(143, 165, 67)" opacity="1.0"/>
    <path d="M 450.7125244140625 355.42218017578125 C 452.041748046875 353.4713439941406 450.2635498046875 350.371826171875 447.918212890625 350.361083984375 C 445.57275390625 350.3503112792969 443.7777099609375 353.2364196777344 444.6717529296875 355.4219665527344 C 445.56573486328125 357.6075134277344 448.62701416015625 358.47662353515625 450.63427734375 357.228759765625 L 450.7125244140625 355.42218017578125" stroke-width="0.6000000238418579" fill="rgb(233, 92, 21)" opacity="1.0"/>
    <path d="M 452.7674560546875 82.55792236328125 C 453.444091796875 81.86276245117188 454.18017578125 80.96218872070312 453.8922119140625 80.03237915039062 C 453.76318359375 79.66680908203125 453.52386474609375 79.35029602050781 453.20733642578125 79.12649536132812 C 452.4390869140625 78.55166625976562 451.4398193359375 78.38487243652344 450.5264892578125 78.67901611328125 C 449.7523193359375 78.93052673339844 449.13330078125 79.49380493164062 448.5477294921875 80.05197143554688 C 448.2193603515625 80.36605834960938 447.88043212890625 80.71023559570312 447.7808837890625 81.15106201171875 C 447.6529541015625 81.73974609375 447.9884033203125 82.3270263671875 448.3624267578125 82.79904174804688 C 448.908935546875 83.49050903320312 449.56378173828125 84.08895874023438 450.301513671875 84.5711669921875 C 450.5567626953125 84.73728942871094 450.83502197265625 84.89402770996094 451.1390380859375 84.90866088867188 C 451.4224853515625 84.90780639648438 451.6995849609375 84.82449340820312 451.9364013671875 84.66888427734375 C 452.67340087890625 84.224853515625 453.178466796875 83.47988891601562 453.318115234375 82.63090515136719 L 452.7674560546875 82.55792236328125" stroke-width="0.6000000238418579" fill="rgb(70, 150, 179)" opacity="1.0"/>
    <path d="M 449.860595703125 391.4490661621094 C 450.2557373046875 390.762451171875 450.664794921875 389.98480224609375 450.47216796875 389.2168884277344 C 450.2647705078125 388.39215087890625 449.40234375 387.8754577636719 448.5584716796875 387.7696838378906 C 448.233154296875 387.7287902832031 447.8887939453125 387.73858642578125 447.59710693359375 387.8882141113281 C 447.3572998046875 388.0111389160156 447.17236328125 388.2176513671875 447.00494384765625 388.42877197265625 C 446.4761962890625 389.0939636230469 446.0457763671875 389.91497802734375 446.1497802734375 390.75811767578125 C 446.2552490234375 391.6077880859375 446.95489501953125 392.3524475097656 447.79803466796875 392.50579833984375 C 448.64111328125 392.6591796875 449.561279296875 392.2179260253906 449.96368408203125 391.4606628417969 L 449.860595703125 391.4490661621094" stroke-width="0.6000000238418579" fill="rgb(140, 28, 33)" opacity="1.0"/>
    <path d="M 120.70089721679688 214.15887451171875 C 118.78840637207031 213.97552490234375 116.79632568359375 213.80581665039062 114.981201171875 214.4398193359375 C 113.16610717773438 215.07382202148438 111.56460571289062 216.76544189453125 111.67221069335938 218.6846923828125 C 111.81031799316406 221.0535888671875 114.57771301269531 222.62103271484375 116.91246032714844 222.17379760742188 C 119.24720764160156 221.7265625 121.06051635742188 219.84490966796875 122.25985717773438 217.79583740234375 C 122.69467163085938 217.19876098632812 122.88984680175781 216.46038818359375 122.80686950683594 215.7264404296875 C 122.64923095703125 215.01705932617188 121.75177001953125 214.45669555664062 121.15994262695312 214.88455200195312 L 120.70089721679688 214.15887451171875" stroke-width="0.6000000238418579" fill="rgb(159, 159, 159)" opacity="1.0"/>
    <path d="M 111.7568359375 224.0589599609375 C 110.5203857421875 223.06509399414062 108.91647338867188 222.47320556640625 107.34111022949219 222.65261840820312 C 105.7657470703125 222.83203125 104.26077270507812 223.85723876953125 103.7064208984375 225.349853515625 C 103.31582641601562 226.4056396484375 103.42013549804688 227.60479736328125 103.84107971191406 228.64990234375 C 104.26202392578125 229.695068359375 104.97738647460938 230.59954833984375 105.78811645507812 231.38226318359375 C 106.14114379882812 231.72265625 106.53607177734375 232.05419921875 107.01522827148438 232.1524658203125 C 107.56454467773438 232.265380859375 108.1229248046875 232.05181884765625 108.63418579101562 231.8172607421875 C 110.07752990722656 231.15496826171875 111.474365234375 230.2462158203125 112.3033447265625 228.8914794921875 C 113.13230895996094 227.5367431640625 113.25529479980469 225.66006469726562 112.27023315429688 224.41921997070312 L 111.7568359375 224.0589599609375" stroke-width="0.6000000238418579" fill="rgb(159, 159, 159)" opacity="1.0"/>
    <path d="M 302.76287841796875 104.885009765625 C 302.048095703125 106.39315795898438 301.3188781738281 108.10047912597656 301.86309814453125 109.67475891113281 C 302.3901672363281 111.20649719238281 303.9416198730469 112.10369873046875 305.38592529296875 112.83880615234375 C 305.9731140136719 113.13655090332031 306.5921325683594 113.43869018554688 307.24993896484375 113.42330932617188 C 308.3625183105469 113.39793395996094 309.2476806640625 112.48956298828125 309.8495788574219 111.55545043945312 C 310.4085998535156 110.68865966796875 310.84027099609375 109.74609375 311.13134765625 108.75660705566406 C 311.60455322265625 107.15011596679688 311.611572265625 105.1993408203125 310.4000244140625 104.04399108886719 C 309.7468566894531 103.41929626464844 308.8254089355469 103.12924194335938 307.921630859375 103.07810974121094 C 307.01788330078125 103.0269775390625 306.1168212890625 103.19612121582031 305.2296142578125 103.37577819824219 C 304.3424377441406 103.55543518066406 303.4745178222656 103.7509765625 302.7568359375 104.26643371582031 L 302.76287841796875 104.885009765625" stroke-width="0.6000000238418579" fill="rgb(218, 166, 20)" opacity="1.0"/>
    <path d="M 219.6834716796875 127.02029418945312 C 217.42697143554688 125.22541809082031 214.14263916015625 125.59965515136719 212.3477783203125 127.85617065429688 C 212.194091796875 128.0493927001953 212.05429077148438 128.25328063964844 211.929443359375 128.46629333496094 C 211.4552001953125 129.27577209472656 211.20440673828125 130.25941467285156 211.44906616210938 131.16464233398438 C 211.65576171875 131.9296417236328 212.18746948242188 132.5623321533203 212.759521484375 133.10992431640625 C 214.2928466796875 134.57357788085938 216.1900634765625 135.5999755859375 218.254150390625 136.08251953125 C 218.79998779296875 136.20913696289062 219.3724365234375 136.2965087890625 219.91903686523438 136.16793823242188 C 220.8367919921875 135.95262145996094 221.523681640625 135.154541015625 221.88699340820312 134.28396606445312 C 222.42724609375 132.99185180664062 222.37554931640625 131.49386596679688 221.8861083984375 130.1813201904297 C 221.396728515625 128.8687744140625 220.4969482421875 127.733642578125 219.42095947265625 126.83688354492188 L 219.6834716796875 127.02029418945312" stroke-width="0.6000000238418579" fill="rgb(143, 165, 67)" opacity="1.0"/>
    <path d="M 223.28646850585938 95.34097290039062 C 221.9993896484375 98.5155029296875 225.47186279296875 102.36642456054688 228.80172729492188 101.66250610351562 C 232.131591796875 100.95858764648438 233.79266357421875 96.31466674804688 231.85446166992188 93.48895263671875 C 229.916259765625 90.66323852539062 225.30783081054688 90.36923217773438 222.843505859375 92.754638671875 L 223.28646850585938 95.34097290039062" stroke-width="0.6000000238418579" fill="rgb(233, 92, 21)" opacity="1.0"/>
    <path d="M 203.56243896484375 96.06913757324219 C 202.90872192382812 94.55291748046875 201.97064208984375 92.80953979492188 200.32080078125 92.65826416015625 C 199.661865234375 92.62359619140625 199.0084228515625 92.79425048828125 198.45062255859375 93.14669799804688 C 197.0469970703125 93.98159790039062 196.1351318359375 95.44503784179688 196.00418090820312 97.07293701171875 C 195.8966064453125 98.45413208007812 196.38031005859375 99.79400634765625 196.87774658203125 101.07791137695312 C 197.1583251953125 101.79867553710938 197.47940063476562 102.55551147460938 198.10809326171875 102.99871826171875 C 198.95098876953125 103.58258056640625 200.09283447265625 103.43658447265625 201.07843017578125 103.15504455566406 C 202.5213623046875 102.74481201171875 203.88839721679688 102.10371398925781 205.12646484375 101.25665283203125 C 205.5537109375 100.96315002441406 205.98110961914062 100.62734985351562 206.2017822265625 100.15855407714844 C 206.3846435546875 99.712158203125 206.43365478515625 99.22219848632812 206.3428955078125 98.74842834472656 C 206.1234130859375 97.30056762695312 205.27984619140625 96.0218505859375 204.03515625 95.25033569335938 L 203.56243896484375 96.06913757324219" stroke-width="0.6000000238418579" fill="rgb(70, 150, 179)" opacity="1.0"/>
    <path d="M 266.6775817871094 131.28997802734375 C 265.758056640625 132.85400390625 264.80450439453125 134.62620544433594 265.22918701171875 136.38890075683594 C 265.6865234375 138.28216552734375 267.6507263183594 139.48391723632812 269.5809326171875 139.74415588378906 C 270.3251037597656 139.8448028564453 271.1138916015625 139.82974243164062 271.78515625 139.49330139160156 C 272.33709716796875 139.21693420410156 272.7649841308594 138.7479248046875 273.15289306640625 138.26795959472656 C 274.3779296875 136.75588989257812 275.3812561035156 134.8848876953125 275.16107177734375 132.9517364501953 C 274.93780517578125 131.00357055664062 273.35137939453125 129.28323364257812 271.4237976074219 128.91397094726562 C 269.4962158203125 128.54470825195312 267.3794250488281 129.5355682373047 266.44171142578125 131.2611846923828 L 266.6775817871094 131.28997802734375" stroke-width="0.6000000238418579" fill="rgb(140, 28, 33)" opacity="1.0"/>
    <path d="M 316.5859375 117.28082275390625 C 314.47515869140625 118.11398315429688 312.2879333496094 119.00422668457031 310.7181396484375 120.64520263671875 C 309.1484069824219 122.28617858886719 308.3708190917969 124.92539978027344 309.5137939453125 126.88723754882812 C 310.9300537109375 129.30575561523438 314.6830139160156 129.4703369140625 316.8997802734375 127.7470703125 C 319.1165466308594 126.0238037109375 320.0150146484375 123.07095336914062 320.17767333984375 120.27139282226562 C 320.3148498535156 119.40980529785156 320.1240539550781 118.52813720703125 319.6429443359375 117.80035400390625 C 319.09649658203125 117.13850402832031 317.8514709472656 117.03038024902344 317.4582824707031 117.79811096191406 L 316.5859375 117.28082275390625" stroke-width="0.6000000238418579" fill="rgb(159, 159, 159)" opacity="1.0"/>
    <path d="M 198.94741821289062 130.80648803710938 C 197.71380615234375 129.79017639160156 196.10516357421875 129.1743621826172 194.51583862304688 129.3359375 C 192.92654418945312 129.4975128173828 191.39785766601562 130.5120391845703 190.82119750976562 132.00906372070312 C 190.41485595703125 133.0679931640625 190.50537109375 134.27734375 190.91671752929688 135.3354034423828 C 191.32806396484375 136.39346313476562 192.03778076171875 137.3134002685547 192.84503173828125 138.11181640625 C 193.196533203125 138.45907592773438 193.59039306640625 138.79786682128906 194.07196044921875 138.9027099609375 C 194.62396240234375 139.0231475830078 195.18914794921875 138.81480407714844 195.70703125 138.58468627929688 C 197.16921997070312 137.9350128173828 198.5875244140625 137.03651428222656 199.43917846679688 135.68174743652344 C 200.29083251953125 134.3269805908203 200.43756103515625 132.4377899169922 199.46026611328125 131.1757049560547 L 198.94741821289062 130.80648803710938" stroke-width="0.6000000238418579" fill="rgb(159, 159, 159)" opacity="1.0"/>
    <path d="M 281.51214599609375 104.79421997070312 C 279.773193359375 105.45989990234375 277.8691101074219 106.27516174316406 277.09478759765625 107.96453857421875 C 276.3394470214844 109.60638427734375 276.89947509765625 111.52586364746094 277.498046875 113.23199462890625 C 277.7422180175781 113.92474365234375 278.0086975097656 114.64555358886719 278.55120849609375 115.14012145996094 C 279.46826171875 115.97714233398438 280.88238525390625 115.92657470703125 282.087890625 115.63694763183594 C 283.2068786621094 115.36856079101562 284.2815246582031 114.94088745117188 285.2789611816406 114.36703491210938 C 286.8988342285156 113.43582153320312 288.407958984375 111.86758422851562 288.3210754394531 110.00180053710938 C 288.275634765625 108.99447631835938 287.755859375 108.05032348632812 287.06622314453125 107.31254577636719 C 286.3765869140625 106.57476806640625 285.51934814453125 106.0167236328125 284.66522216796875 105.47789001464844 C 283.8110656738281 104.93905639648438 282.9602355957031 104.42788696289062 281.9840087890625 104.29054260253906 L 281.51214599609375 104.79421997070312" stroke-width="0.6000000238418579" fill="rgb(218, 166, 20)" opacity="1.0"/>
    <path d="M 242.02685546875 121.77462768554688 C 240.55270385742188 124.48712158203125 241.55657958984375 127.881103515625 244.26910400390625 129.35525512695312 C 244.5013427734375 129.4814910888672 244.7423095703125 129.59109497070312 244.99005126953125 129.6832275390625 C 245.931640625 130.0331573486328 247.01544189453125 130.1151885986328 247.92465209960938 129.68927001953125 C 248.69302368164062 129.32940673828125 249.2615966796875 128.6513214111328 249.73291015625 127.94648742675781 C 250.991943359375 126.05807495117188 251.72238159179688 123.86700439453125 251.84832763671875 121.60086059570312 C 251.880615234375 121.00180053710938 251.8665771484375 120.38189697265625 251.62957763671875 119.82936096191406 C 251.2322998046875 118.90151977539062 250.26324462890625 118.3251953125 249.27783203125 118.10357666015625 C 247.8150634765625 117.77352905273438 246.2449951171875 118.10595703125 244.95166015625 118.86553955078125 C 243.6583251953125 119.62510681152344 242.62820434570312 120.78448486328125 241.88214111328125 122.08549499511719 L 242.02685546875 121.77462768554688" stroke-width="0.6000000238418579" fill="rgb(143, 165, 67)" opacity="1.0"/>
    <path d="M 249.42913818359375 93.49261474609375 C 248.42510986328125 96.813232421875 252.2835693359375 100.37527465820312 255.57647705078125 99.35707092285156 C 258.8694152832031 98.33883666992188 260.11456298828125 93.50173950195312 257.8982849121094 90.83154296875 C 255.6820068359375 88.16134643554688 251.00726318359375 88.29156494140625 248.742919921875 90.92536926269531 L 249.42913818359375 93.49261474609375" stroke-width="0.6000000238418579" fill="rgb(233, 92, 21)" opacity="1.0"/>
    <path d="M 338.4559020996094 85.541259765625 C 336.70550537109375 85.06723022460938 334.5654296875 84.68254089355469 333.30792236328125 85.99775695800781 C 332.827880859375 86.54063415527344 332.528076171875 87.21910095214844 332.4499816894531 87.9395751953125 C 332.2087097167969 89.71697998046875 332.8439025878906 91.50106811523438 334.1541442871094 92.72610473632812 C 335.26824951171875 93.76240539550781 336.7508239746094 94.26211547851562 338.1947021484375 94.71174621582031 C 339.0061950683594 94.9630126953125 339.8763732910156 95.2041015625 340.68707275390625 94.96636962890625 C 341.76507568359375 94.64064025878906 342.4198303222656 93.55905151367188 342.85125732421875 92.51919555664062 C 343.4845275878906 90.9981689453125 343.867431640625 89.38465881347656 343.9851379394531 87.74127197265625 C 344.0246887207031 87.17337036132812 344.0280456542969 86.57640075683594 343.7757263183594 86.06631469726562 C 343.5168762207031 85.60403442382812 343.12908935546875 85.22708129882812 342.65966796875 84.98138427734375 C 341.2647705078125 84.18069458007812 339.5888366699219 84.0322265625 338.0749206542969 84.57524108886719 L 338.4559020996094 85.541259765625" stroke-width="0.6000000238418579" fill="rgb(70, 150, 179)" opacity="1.0"/>
    <path d="M 334.1455993652344 122.42398071289062 C 333.5999755859375 120.80882263183594 332.9273681640625 119.04145812988281 331.4139099121094 118.25909423828125 C 329.78759765625 117.41963195800781 327.725830078125 118.07598876953125 326.3538513183594 119.2872314453125 C 325.8246765136719 119.75401306152344 325.3502502441406 120.32366943359375 325.17645263671875 121.00747680664062 C 325.0333557128906 121.56954956054688 325.1033935546875 122.1619873046875 325.205810546875 122.73275756835938 C 325.526611328125 124.53302001953125 326.2388000488281 126.39649963378906 327.7475891113281 127.42897033691406 C 329.2689514160156 128.46849060058594 331.4668273925781 128.3994598388672 332.9146423339844 127.25712585449219 C 334.3624572753906 126.11479187011719 334.9603576660156 124.00155639648438 334.3111267089844 122.27410888671875 L 334.1455993652344 122.42398071289062" stroke-width="0.6000000238418579" fill="rgb(140, 28, 33)" opacity="1.0"/>
    <path d="M 354.9085998535156 105.34515380859375 C 353.1588439941406 105.51992797851562 351.34002685546875 105.7210693359375 349.8227844238281 106.61245727539062 C 348.3055419921875 107.50384521484375 347.1677551269531 109.30694580078125 347.60498046875 111.01116943359375 C 348.1493835449219 113.1136474609375 350.912353515625 114.02993774414062 352.9293518066406 113.21401977539062 C 354.94635009765625 112.39810180664062 356.2405700683594 110.38677978515625 356.95379638671875 108.3341064453125 C 357.2382507324219 107.7208251953125 357.282470703125 107.023193359375 357.0777282714844 106.37890625 C 356.810302734375 105.76995849609375 355.9049987792969 105.42607116699219 355.4495544433594 105.91526794433594 L 354.9085998535156 105.34515380859375" stroke-width="0.6000000238418579" fill="rgb(159, 159, 159)" opacity="1.0"/>
    <path d="M 350.5865783691406 122.81808471679688 C 348.9036865234375 123.280029296875 347.3424377441406 124.32861328125 346.4871826171875 125.84877014160156 C 345.6319580078125 127.36892700195312 345.576171875 129.37136840820312 346.5497131347656 130.82748413085938 C 347.23931884765625 131.85609436035156 348.37567138671875 132.53582763671875 349.5787353515625 132.8340301513672 C 350.78179931640625 133.13223266601562 352.0491943359375 133.07728576660156 353.2695007324219 132.85885620117188 C 353.80047607421875 132.76348876953125 354.3505554199219 132.62501525878906 354.7469482421875 132.26112365722656 C 355.20159912109375 131.84414672851562 355.37103271484375 131.2086944580078 355.4913635253906 130.60171508789062 C 355.83099365234375 128.88807678222656 355.9209289550781 127.05711364746094 355.2472839355469 125.44500732421875 C 354.5736389160156 123.83291625976562 352.9797058105469 122.51390075683594 351.2386169433594 122.59254455566406 L 350.5865783691406 122.81808471679688" stroke-width="0.6000000238418579" fill="rgb(159, 159, 159)" opacity="1.0"/>
    <path d="M 365.6799621582031 110.78030395507812 C 363.5909729003906 111.24557495117188 361.2890930175781 111.853271484375 360.1252746582031 113.64437866210938 C 358.9909973144531 115.3846435546875 359.3058776855469 117.66119384765625 359.7003479003906 119.70162963867188 C 359.86181640625 120.5302734375 360.0439453125 121.39460754394531 360.577880859375 122.0479736328125 C 361.4802551269531 123.15353393554688 363.0967712402344 123.33322143554688 364.5160827636719 123.20608520507812 C 365.83349609375 123.08859252929688 367.1272277832031 122.78253173828125 368.3576354980469 122.29727172851562 C 370.35577392578125 121.51008605957031 372.3348388671875 119.97994995117188 372.5489501953125 117.84381103515625 C 372.6662292480469 116.69076538085938 372.2335510253906 115.52999877929688 371.5731201171875 114.57540893554688 C 370.91265869140625 113.62081909179688 370.031494140625 112.84249877929688 369.150634765625 112.08653259277344 C 368.269775390625 111.33056640625 367.3880310058594 110.60661315917969 366.3009948730469 110.28671264648438 L 365.6799621582031 110.78030395507812" stroke-width="0.6000000238418579" fill="rgb(218, 166, 20)" opacity="1.0"/>
    <path d="M 433.5391845703125 157.21783447265625 C 430.060546875 157.6668701171875 427.6046142578125 160.85089111328125 428.0537109375 164.32949829101562 C 428.0921630859375 164.62738037109375 428.1517333984375 164.922119140625 428.23187255859375 165.21157836914062 C 428.53668212890625 166.31137084960938 429.182861328125 167.36370849609375 430.1802978515625 167.91705322265625 C 431.023193359375 168.38479614257812 432.0260009765625 168.4566650390625 432.9886474609375 168.4212646484375 C 435.5654296875 168.3228759765625 438.06878662109375 167.53634643554688 440.23876953125 166.14340209960938 C 440.811767578125 165.77423095703125 441.373046875 165.3485107421875 441.723876953125 164.762451171875 C 442.3134765625 163.7789306640625 442.1988525390625 162.50311279296875 441.7467041015625 161.44842529296875 C 441.0765380859375 159.882080078125 439.72509765625 158.65805053710938 438.1646728515625 157.97323608398438 C 436.604248046875 157.28842163085938 434.85107421875 157.11209106445312 433.1566162109375 157.29159545898438 L 433.5391845703125 157.21783447265625" stroke-width="0.6000000238418579" fill="rgb(143, 165, 67)" opacity="1.0"/>
    <path d="M 143.57020568847656 417.6712646484375 C 141.55361938476562 420.49273681640625 144.06309509277344 425.103759765625 147.50753784179688 425.1968994140625 C 150.95199584960938 425.2900390625 153.68368530273438 421.1102294921875 152.442626953125 417.8707275390625 C 151.20156860351562 414.6312255859375 146.73399353027344 413.2537841796875 143.7447052001953 415.02044677734375 L 143.57020568847656 417.6712646484375" stroke-width="0.6000000238418579" fill="rgb(233, 92, 21)" opacity="1.0"/>
    <path d="M 437.0953369140625 184.1783447265625 C 435.102783203125 184.39389038085938 432.744873046875 184.8580322265625 431.97894287109375 186.71746826171875 C 431.702880859375 187.46929931640625 431.6669921875 188.28826904296875 431.8760986328125 189.0614013671875 C 432.3421630859375 190.98825073242188 433.71319580078125 192.5697021484375 435.554443359375 193.30419921875 C 437.11798095703125 193.92330932617188 438.84515380859375 193.84185791015625 440.5123291015625 193.72442626953125 C 441.44879150390625 193.65692138671875 442.4415283203125 193.555419921875 443.18060302734375 192.98480224609375 C 444.15948486328125 192.2161865234375 444.39886474609375 190.8394775390625 444.425048828125 189.5955810546875 C 444.4656982421875 187.77511596679688 444.2113037109375 185.9600830078125 443.6719970703125 184.22088623046875 C 443.4844970703125 183.620361328125 443.2479248046875 183.00442504882812 442.783203125 182.5806884765625 C 442.33087158203125 182.20883178710938 441.7801513671875 181.97659301757812 441.1981201171875 181.91232299804688 C 439.44024658203125 181.648681640625 437.6551513671875 182.16943359375 436.3148193359375 183.33697509765625 L 437.0953369140625 184.1783447265625" stroke-width="0.6000000238418579" fill="rgb(70, 150, 179)" opacity="1.0"/>
    <path d="M 409.01177978515625 158.509033203125 C 408.4673156738281 156.61990356445312 407.78448486328125 154.54879760742188 406.0816345214844 153.5686492919922 C 404.2517395019531 152.51686096191406 401.84234619140625 153.1656494140625 400.19866943359375 154.48960876464844 C 399.5647277832031 154.99981689453125 398.9884948730469 155.63136291503906 398.7526550292969 156.41009521484375 C 398.55853271484375 157.0501708984375 398.6083679199219 157.73635864257812 398.6966552734375 158.39923095703125 C 398.97247314453125 160.48992919921875 399.6958923339844 162.673828125 401.3803405761719 163.94186401367188 C 403.0788879394531 165.21865844726562 405.6145324707031 165.25360107421875 407.34197998046875 164.01296997070312 C 409.0694274902344 162.7723388671875 409.8682556152344 160.36895751953125 409.21026611328125 158.34503173828125 L 409.01177978515625 158.509033203125" stroke-width="0.6000000238418579" fill="rgb(140, 28, 33)" opacity="1.0"/>
    <path d="M 144.8764190673828 117.23779296875 C 143.4540252685547 118.04061889648438 141.9827880859375 118.89166259765625 141.0260009765625 120.21687316894531 C 140.06924438476562 121.54205322265625 139.7760009765625 123.50054931640625 140.78494262695312 124.78610229492188 C 142.03392028808594 126.37019348144531 144.72576904296875 126.11622619628906 146.13565063476562 124.66836547851562 C 147.5455322265625 123.22048950195312 147.89393615722656 121.02645874023438 147.73291015625 119.01449584960938 C 147.74546813964844 118.38667297363281 147.52223205566406 117.77699279785156 147.10723876953125 117.30574035644531 C 146.6521759033203 116.88795471191406 145.75387573242188 116.93405151367188 145.5495147705078 117.52027893066406 L 144.8764190673828 117.23779296875" stroke-width="0.6000000238418579" fill="rgb(159, 159, 159)" opacity="1.0"/>
    <path d="M 417.51788330078125 177.870849609375 C 415.9327392578125 176.5362548828125 413.855712890625 175.7156982421875 411.79315185546875 175.9031982421875 C 409.7305603027344 176.0906982421875 407.7347717285156 177.38479614257812 406.96649169921875 179.31756591796875 C 406.425048828125 180.68472290039062 406.5256652832031 182.2537841796875 407.0443420410156 183.631103515625 C 407.56298828125 185.00848388671875 408.4703369140625 186.21087646484375 409.5058288574219 187.257080078125 C 409.95672607421875 187.71212768554688 410.4626159667969 188.15679931640625 411.08544921875 188.29934692382812 C 411.7994384765625 188.463134765625 412.53497314453125 188.20083618164062 413.2095947265625 187.90966796875 C 415.1141357421875 187.087646484375 416.9652099609375 185.94244384765625 418.0880126953125 184.19793701171875 C 419.2108154296875 182.453369140625 419.4271240234375 180.00625610351562 418.1776123046875 178.35659790039062 L 417.51788330078125 177.870849609375" stroke-width="0.6000000238418579" fill="rgb(159, 159, 159)" opacity="1.0"/>
    <path d="M 405.898193359375 185.60690307617188 C 405.1155700683594 183.97357177734375 404.17486572265625 182.19195556640625 402.4759216308594 181.57461547851562 C 400.8245544433594 180.971923828125 399.00787353515625 181.6663818359375 397.40106201171875 182.38134765625 C 396.74871826171875 182.67276000976562 396.0709533691406 182.988037109375 395.63427734375 183.55300903320312 C 394.89520263671875 184.50811767578125 395.0558776855469 185.8751220703125 395.4317932128906 187.02096557617188 C 395.78033447265625 188.08462524414062 396.27978515625 189.09271240234375 396.91485595703125 190.014404296875 C 397.9455261230469 191.5113525390625 399.58502197265625 192.85064697265625 401.38702392578125 192.61911010742188 C 402.3600158691406 192.49554443359375 403.23431396484375 191.9171142578125 403.8951416015625 191.19027709960938 C 404.55596923828125 190.46343994140625 405.029296875 189.58831787109375 405.4842834472656 188.71771240234375 C 405.9392395019531 187.84710693359375 406.3676452636719 186.98187255859375 406.4237365722656 186.02459716796875 L 405.898193359375 185.60690307617188" stroke-width="0.6000000238418579" fill="rgb(218, 166, 20)" opacity="1.0"/>
    <path d="M 448.9981689453125 179.925048828125 C 447.7669677734375 182.60748291015625 448.9434814453125 185.7801513671875 451.6258544921875 187.0113525390625 C 451.8555908203125 187.11679077148438 452.09246826171875 187.20578002929688 452.33477783203125 187.2777099609375 C 453.2554931640625 187.55075073242188 454.2945556640625 187.55908203125 455.13433837890625 187.09417724609375 C 455.84405517578125 186.70135498046875 456.3426513671875 186.01788330078125 456.746826171875 185.315185546875 C 457.825927734375 183.43267822265625 458.38134765625 181.29559326171875 458.3553466796875 179.12588500976562 C 458.3475341796875 178.5523681640625 458.29412841796875 177.96197509765625 458.032470703125 177.4501953125 C 457.5936279296875 176.59078979492188 456.63214111328125 176.10357666015625 455.6778564453125 175.95571899414062 C 454.26129150390625 175.7352294921875 452.78509521484375 176.15359497070312 451.6004638671875 176.9615478515625 C 450.415771484375 177.76947021484375 449.5079345703125 178.94180297851562 448.8802490234375 180.23092651367188 L 448.9981689453125 179.925048828125" stroke-width="0.6000000238418579" fill="rgb(143, 165, 67)" opacity="1.0"/>
    <path d="M 145.8011016845703 108.53195190429688 C 142.37420654296875 110.41726684570312 142.67669677734375 116.33013916015625 146.13377380371094 118.10507202148438 C 149.59085083007812 119.87997436523438 154.40750122070312 116.9622802734375 154.72576904296875 113.06278991699219 C 155.04403686523438 109.16329956054688 151.17308044433594 105.58334350585938 147.27162170410156 105.92155456542969 L 145.8011016845703 108.53195190429688" stroke-width="0.6000000238418579" fill="rgb(233, 92, 21)" opacity="1.0"/>
    <path d="M 450.49066162109375 151.63739013671875 C 449.357666015625 153.30494689941406 448.1771240234375 155.41439819335938 449.10321044921875 157.21292114257812 C 449.4996337890625 157.914306640625 450.1038818359375 158.47543334960938 450.8326416015625 158.81884765625 C 452.613037109375 159.717041015625 454.71826171875 159.69662475585938 456.4808349609375 158.7640380859375 C 457.9739990234375 157.96908569335938 459.036865234375 156.59228515625 460.0330810546875 155.238037109375 C 460.5914306640625 154.47637939453125 461.16046142578125 153.6493682861328 461.2047119140625 152.71119689941406 C 461.25335693359375 151.46018981933594 460.35418701171875 150.3798065185547 459.41790771484375 149.5492706298828 C 458.0491943359375 148.33209228515625 456.492431640625 147.34446716308594 454.80810546875 146.62472534179688 C 454.22564697265625 146.37716674804688 453.5994873046875 146.15713500976562 452.971923828125 146.23727416992188 C 452.39227294921875 146.34164428710938 451.85546875 146.6124267578125 451.427001953125 147.01661682128906 C 450.07965087890625 148.19210815429688 449.3157958984375 149.89947509765625 449.3372802734375 151.68739318847656 L 450.49066162109375 151.63739013671875" stroke-width="0.6000000238418579" fill="rgb(70, 150, 179)" opacity="1.0"/>
    <path d="M 375.92755126953125 80.36013793945312 C 375.70263671875 78.16131591796875 375.3609924316406 75.7335205078125 373.6728820800781 74.30892944335938 C 371.8585510253906 72.77967834472656 369.06329345703125 73.01605224609375 366.9803161621094 74.15242004394531 C 366.177001953125 74.5902099609375 365.4133605957031 75.17379760742188 364.996826171875 75.98822021484375 C 364.6541748046875 76.6575927734375 364.57220458984375 77.42668151855469 364.53741455078125 78.17767333984375 C 364.42486572265625 80.54582214355469 364.78887939453125 83.10650634765625 366.39910888671875 84.84591674804688 C 368.023193359375 86.59786987304688 370.82147216796875 87.14312744140625 372.9804992675781 86.11572265625 C 375.1395263671875 85.08830261230469 376.5035095214844 82.58892822265625 376.179931640625 80.21830749511719 L 375.92755126953125 80.36013793945312" stroke-width="0.6000000238418579" fill="rgb(140, 28, 33)" opacity="1.0"/>
    <path d="M 129.44528198242188 411.5772399902344 C 127.0003662109375 413.055419921875 124.47256469726562 414.6204833984375 122.86911010742188 416.9876708984375 C 121.26568603515625 419.354736328125 120.85552978515625 422.79443359375 122.68692016601562 424.9892578125 C 124.95364379882812 427.69354248046875 129.64686584472656 427.1085205078125 132.0361328125 424.503173828125 C 134.42539978027344 421.8978271484375 134.91964721679688 418.04345703125 134.53273010253906 414.5340576171875 C 134.52178955078125 413.43572998046875 134.09954833984375 412.38140869140625 133.34927368164062 411.5791931152344 C 132.53173828125 410.87255859375 130.9635467529297 411.0002136230469 130.63694763183594 412.035888671875 L 129.44528198242188 411.5772399902344" stroke-width="0.6000000238418579" fill="rgb(159, 159, 159)" opacity="1.0"/>
    <path d="M 410.2716369628906 205.70602416992188 C 409.1852722167969 203.88250732421875 407.45050048828125 202.39141845703125 405.391357421875 201.88079833984375 C 403.3322448730469 201.37017822265625 400.9664611816406 201.95297241210938 399.57440185546875 203.56573486328125 C 398.5916442871094 204.70721435546875 398.16253662109375 206.25955200195312 398.2023620605469 207.7666015625 C 398.2421569824219 209.27365112304688 398.71685791015625 210.7418212890625 399.36798095703125 212.101806640625 C 399.65167236328125 212.6934814453125 399.9920654296875 213.2935791015625 400.5470275878906 213.64056396484375 C 401.1830749511719 214.03863525390625 401.98297119140625 214.03158569335938 402.7335510253906 213.97613525390625 C 404.8526306152344 213.81964111328125 407.0284118652344 213.3323974609375 408.700439453125 212.020751953125 C 410.3724670410156 210.7091064453125 411.4029541015625 208.413330078125 410.7471618652344 206.39749145507812 L 410.2716369628906 205.70602416992188" stroke-width="0.6000000238418579" fill="rgb(159, 159, 159)" opacity="1.0"/>
    <path d="M 386.83489990234375 119.37550354003906 C 384.8385925292969 120.21502685546875 382.6559753417969 121.23469543457031 381.8196716308594 123.22776794433594 C 381.003662109375 125.16490173339844 381.7272033691406 127.37506103515625 382.4874572753906 129.33575439453125 C 382.7974853515625 130.13180541992188 383.1344909667969 130.95965576171875 383.7838134765625 131.51406860351562 C 384.8814697265625 132.45242309570312 386.5234375 132.3402099609375 387.913818359375 131.95799255371094 C 389.2044677734375 131.60372924804688 390.43756103515625 131.06597900390625 391.5753479003906 130.36119079589844 C 393.4232177734375 129.21749877929688 395.1182556152344 127.33746337890625 394.9467468261719 125.17185974121094 C 394.8558654785156 124.00259399414062 394.21600341796875 122.9246826171875 393.3864440917969 122.09310913085938 C 392.556884765625 121.26153564453125 391.539306640625 120.64523315429688 390.5260314941406 120.05111694335938 C 389.5127868652344 119.45700073242188 388.5044250488281 118.89494323730469 387.3644104003906 118.77218627929688 L 386.83489990234375 119.37550354003906" stroke-width="0.6000000238418579" fill="rgb(218, 166, 20)" opacity="1.0"/>
    <path d="M 401.8003234863281 82.6142578125 C 399.28387451171875 80.25225830078125 395.3291320800781 80.37745666503906 392.9671325683594 82.89389038085938 C 392.7648620605469 83.109375 392.5781555175781 83.33894348144531 392.40838623046875 83.58085632324219 C 391.763427734375 84.50016784667969 391.3680114746094 85.64910888671875 391.57135009765625 86.75296020507812 C 391.7430725097656 87.68582153320312 392.3155517578125 88.49264526367188 392.9444580078125 89.20187377929688 C 394.6304931640625 91.09796142578125 396.7934875488281 92.50802612304688 399.208740234375 93.28558349609375 C 399.8475036621094 93.49005126953125 400.52191162109375 93.6502685546875 401.1865539550781 93.55035400390625 C 402.302490234375 93.38323974609375 403.2000427246094 92.49832153320312 403.7185974121094 91.49526977539062 C 404.4895324707031 90.00665283203125 404.5743408203125 88.21449279785156 404.1188659667969 86.60076904296875 C 403.6633605957031 84.98703002929688 402.7010192871094 83.54483032226562 401.50506591796875 82.3697509765625 L 401.8003234863281 82.6142578125" stroke-width="0.6000000238418579" fill="rgb(143, 165, 67)" opacity="1.0"/>
    <path d="M 116.74845886230469 423.24267578125 C 114.60432434082031 419.87353515625 108.59912109375 420.5667724609375 107.01565551757812 424.204833984375 C 105.43218994140625 427.843017578125 108.71876525878906 432.5609130859375 112.71282958984375 432.63134765625 C 116.7069091796875 432.7017822265625 120.10267639160156 428.5244140625 119.50404357910156 424.571044921875 L 116.74845886230469 423.24267578125" stroke-width="0.6000000238418579" fill="rgb(233, 92, 21)" opacity="1.0"/>
    <path d="M 445.49591064453125 195.91326904296875 C 444.3880615234375 197.60675048828125 443.240478515625 199.74456787109375 444.201416015625 201.53329467773438 C 444.611572265625 202.23025512695312 445.2279052734375 202.78277587890625 445.96533203125 203.1146240234375 C 447.76788330078125 203.98477172851562 449.88037109375 203.92727661132812 451.6329345703125 202.9603271484375 C 453.1175537109375 202.13629150390625 454.1600341796875 200.73587036132812 455.135986328125 199.35919189453125 C 455.6829833984375 198.58499145507812 456.239501953125 197.7449951171875 456.2674560546875 196.80267333984375 C 456.2943115234375 195.54629516601562 455.3729248046875 194.47781372070312 454.41864013671875 193.6607666015625 C 453.0235595703125 192.4632568359375 451.44384765625 191.49942016601562 449.7408447265625 190.80667114257812 C 449.15191650390625 190.56845092773438 448.5196533203125 190.358642578125 447.8912353515625 190.45010375976562 C 447.311279296875 190.56503295898438 446.77734375 190.84625244140625 446.35443115234375 191.2593994140625 C 445.0228271484375 192.46279907226562 444.2862548828125 194.18975830078125 444.3392333984375 195.98373413085938 L 445.49591064453125 195.91326904296875" stroke-width="0.6000000238418579" fill="rgb(70, 150, 179)" opacity="1.0"/>
    <path d="M 412.90869140625 134.68421936035156 C 412.4443359375 132.49136352539062 411.8376159667969 130.08026123046875 409.9815368652344 128.82614135742188 C 407.9869079589844 127.48013305664062 405.1938781738281 128.0204315185547 403.21630859375 129.39126586914062 C 402.4535827636719 129.9194793701172 401.7466125488281 130.59042358398438 401.4145812988281 131.4566192626953 C 401.1413879394531 132.16859436035156 401.1418151855469 132.95294189453125 401.1878662109375 133.71395874023438 C 401.3302001953125 136.11398315429688 401.9738464355469 138.6566925048828 403.7853698730469 140.23666381835938 C 405.61224365234375 141.82777404785156 408.49273681640625 142.0753173828125 410.55877685546875 140.80612182617188 C 412.62481689453125 139.53692626953125 413.73016357421875 136.86936950683594 413.1478271484375 134.5139617919922 L 412.90869140625 134.68421936035156" stroke-width="0.6000000238418579" fill="rgb(140, 28, 33)" opacity="1.0"/>
    <path d="M 401.0042724609375 75.50741577148438 C 401.78424072265625 78.28538513183594 402.62646484375 81.16741943359375 404.4984130859375 83.36590576171875 C 406.3703308105469 85.5643310546875 409.607666015625 86.89031982421875 412.2374267578125 85.69918823242188 C 415.48028564453125 84.22158813476562 416.1754150390625 79.4959716796875 414.2833251953125 76.46847534179688 C 412.39129638671875 73.44097900390625 408.77294921875 71.92138671875 405.2529602050781 71.3524169921875 C 404.18096923828125 71.06712341308594 403.0410461425781 71.19403076171875 402.0580749511719 71.7081298828125 C 401.1500244140625 72.31344604492188 400.8517150878906 73.87419128417969 401.7717590332031 74.47113037109375 L 401.0042724609375 75.50741577148438" stroke-width="0.6000000238418579" fill="rgb(159, 159, 159)" opacity="1.0"/>
    <path d="M 441.5028076171875 234.66934204101562 C 440.2242431640625 236.3905029296875 439.50750732421875 238.58718872070312 439.8309326171875 240.70559692382812 C 440.1544189453125 242.82400512695312 441.6165771484375 244.80377197265625 443.66107177734375 245.47555541992188 C 445.107177734375 245.94866943359375 446.7213134765625 245.7459716796875 448.11114501953125 245.12362670898438 C 449.5009765625 244.50128173828125 450.6856689453125 243.48849487304688 451.7010498046875 242.35321044921875 C 452.142578125 241.85888671875 452.57000732421875 241.30841064453125 452.67803955078125 240.65618896484375 C 452.80224609375 239.90850830078125 452.48504638671875 239.16534423828125 452.141845703125 238.4869384765625 C 451.17303466796875 236.57171630859375 449.873779296875 234.73202514648438 448.0013427734375 233.6822509765625 C 446.12890625 232.6324462890625 443.5880126953125 232.56304931640625 441.962890625 233.9573974609375 L 441.5028076171875 234.66934204101562" stroke-width="0.6000000238418579" fill="rgb(159, 159, 159)" opacity="1.0"/>
    <path d="M 409.2029724121094 260.3309631347656 C 407.90850830078125 258.5365295410156 406.39190673828125 256.5980224609375 404.2156066894531 256.22344970703125 C 402.09967041015625 255.856201171875 400.0657043457031 257.0843505859375 398.28851318359375 258.291748046875 C 397.5672607421875 258.7832946777344 396.8205871582031 259.30902099609375 396.4178466796875 260.08282470703125 C 395.7359619140625 261.3911437988281 396.2249450683594 262.9999694824219 396.9249267578125 264.2962646484375 C 397.57415771484375 265.4997253417969 398.3928527832031 266.60369873046875 399.35589599609375 267.5744323730469 C 400.9190673828125 269.15118408203125 403.1801452636719 270.4066162109375 405.296630859375 269.73828125 C 406.43975830078125 269.3791198730469 407.36578369140625 268.49444580078125 408.00299072265625 267.4775390625 C 408.6402282714844 266.46063232421875 409.01995849609375 265.3059997558594 409.3785400390625 264.1607666015625 C 409.7371520996094 263.0155334472656 410.06500244140625 261.8825378417969 409.9252624511719 260.7194519042969 L 409.2029724121094 260.3309631347656" stroke-width="0.6000000238418579" fill="rgb(218, 166, 20)" opacity="1.0"/>
    <path d="M 415.066650390625 86.09140014648438 C 413.5816650390625 89.20924377441406 414.9053955078125 92.94053649902344 418.02325439453125 94.42547607421875 C 418.29022216796875 94.55264282226562 418.56591796875 94.66069030761719 418.84814453125 94.74884033203125 C 419.9207763671875 95.08357238769531 421.1363525390625 95.11058044433594 422.12652587890625 94.58061218261719 C 422.96337890625 94.13282775878906 423.55804443359375 93.34149169921875 424.04248046875 92.52606201171875 C 425.3363037109375 90.34158325195312 426.02154541015625 87.85055541992188 426.027099609375 85.31170654296875 C 426.0274658203125 84.64060974121094 425.97479248046875 83.94900512695312 425.6771240234375 83.34593200683594 C 425.17803955078125 82.33319091796875 424.061279296875 81.7471923828125 422.947265625 81.55841064453125 C 421.29364013671875 81.27696228027344 419.55963134765625 81.74188232421875 418.1602783203125 82.66748046875 C 416.7608642578125 83.59306335449219 415.6793212890625 84.94952392578125 414.92352294921875 86.44729614257812 L 415.066650390625 86.09140014648438" stroke-width="0.6000000238418579" fill="rgb(143, 165, 67)" opacity="1.0"/>
    <path d="M 441.5306396484375 129.3641815185547 C 439.56109619140625 132.80447387695312 442.94439697265625 137.7604522705078 446.8724365234375 137.47097778320312 C 450.8004150390625 137.18148803710938 453.42730712890625 132.1143035888672 451.64404296875 128.57254028320312 C 449.8607177734375 125.03076171875 444.6217041015625 123.97708129882812 441.4248046875 126.32939147949219 L 441.5306396484375 129.3641815185547" stroke-width="0.6000000238418579" fill="rgb(233, 92, 21)" opacity="1.0"/>
    <path d="M 445.19915771484375 95.60166931152344 C 444.40899658203125 97.44993591308594 443.6568603515625 99.73968505859375 444.9066162109375 101.32273864746094 C 445.428466796875 101.93336486816406 446.12701416015625 102.36700439453125 446.90576171875 102.56382751464844 C 448.819580078125 103.1026611328125 450.8758544921875 102.68046569824219 452.4224853515625 101.43112182617188 C 453.731689453125 100.36796569824219 454.5087890625 98.81765747070312 455.22491455078125 97.30209350585938 C 455.62579345703125 96.45008850097656 456.02459716796875 95.5321044921875 455.888671875 94.6055908203125 C 455.697265625 93.37210083007812 454.6109619140625 92.48666381835938 453.5361328125 91.85281372070312 C 451.96417236328125 90.9232177734375 450.2520751953125 90.25418090820312 448.46636962890625 89.87164306640625 C 447.84912109375 89.74066162109375 447.1943359375 89.64497375488281 446.5955810546875 89.84329223632812 C 446.04827880859375 90.05615234375 445.57470703125 90.4237060546875 445.232666015625 90.90107727050781 C 444.13873291015625 92.30876159667969 443.7174072265625 94.12545776367188 444.080078125 95.87094116210938 L 445.19915771484375 95.60166931152344" stroke-width="0.6000000238418579" fill="rgb(70, 150, 179)" opacity="1.0"/>
    <path d="M 319.84625244140625 380.99102783203125 C 317.5844421386719 381.439697265625 315.0962829589844 382.0319519042969 313.7817077636719 383.9245910644531 C 312.37078857421875 385.9585876464844 312.8896789550781 388.8387451171875 314.2736511230469 390.89111328125 C 314.8069152832031 391.6826171875 315.48773193359375 392.4187316894531 316.3743591308594 392.7716979980469 C 317.1031188964844 393.0621337890625 317.9099426269531 393.0720520019531 318.693359375 393.03472900390625 C 321.1640319824219 392.9200439453125 323.7880554199219 392.2915344238281 325.4372253417969 390.448974609375 C 327.0980529785156 388.5908203125 327.3907165527344 385.6310729980469 326.1124572753906 383.4891052246094 C 324.8341979980469 381.34710693359375 322.1048583984375 380.1748352050781 319.67425537109375 380.7427673339844 L 319.84625244140625 380.99102783203125" stroke-width="0.6000000238418579" fill="rgb(140, 28, 33)" opacity="1.0"/>
    <path d="M 305.59503173828125 397.23291015625 C 302.3896789550781 398.2394714355469 299.0654296875 399.32220458984375 296.5733337402344 401.57904052734375 C 294.081298828125 403.8358459472656 292.6532287597656 407.6507568359375 294.133056640625 410.6689758300781 C 295.96807861328125 414.390625 301.4926452636719 415.031494140625 304.9488525390625 412.7218017578125 C 308.4050598144531 410.41204833984375 310.044921875 406.14678955078125 310.5819091796875 402.0299072265625 C 310.8758239746094 400.77215576171875 310.68756103515625 399.449951171875 310.05426025390625 398.32421875 C 309.3174743652344 397.2889404296875 307.49041748046875 396.99725341796875 306.8283996582031 398.08929443359375 L 305.59503173828125 397.23291015625" stroke-width="0.6000000238418579" fill="rgb(159, 159, 159)" opacity="1.0"/>
    <path d="M 325.2349548339844 409.8210144042969 C 322.8520812988281 411.1139221191406 320.86029052734375 413.25140380859375 320.10308837890625 415.85302734375 C 319.34588623046875 418.4547119140625 319.9683532714844 421.5037841796875 321.9552001953125 423.36297607421875 C 323.361572265625 424.6756591796875 325.32061767578125 425.3028564453125 327.2459411621094 425.32928466796875 C 329.1712646484375 425.355712890625 331.0692443847656 424.8251953125 332.8382568359375 424.06396484375 C 333.6078796386719 423.7322998046875 334.39117431640625 423.32861328125 334.8623962402344 422.63818359375 C 335.40301513671875 421.84686279296875 335.4350280761719 420.82568359375 335.40277099609375 419.864990234375 C 335.3116455078125 417.152587890625 334.8013916015625 414.35089111328125 333.21319580078125 412.14984130859375 C 331.625 409.94879150390625 328.74798583984375 408.5160217285156 326.1417541503906 409.2496032714844 L 325.2349548339844 409.8210144042969" stroke-width="0.6000000238418579" fill="rgb(159, 159, 159)" opacity="1.0"/>
    <path d="M 274.57568359375 413.134033203125 C 272.614501953125 415.0074462890625 270.5157165527344 417.17486572265625 270.4267883300781 419.8802490234375 C 270.33660888671875 422.51123046875 272.1697692871094 424.7744140625 273.9345703125 426.72930908203125 C 274.65264892578125 427.5224609375 275.4165344238281 428.3406982421875 276.4237976074219 428.6995849609375 C 278.1270446777344 429.3076171875 279.9982604980469 428.443359375 281.45458984375 427.37548828125 C 282.8066711425781 426.3848876953125 284.0094909667969 425.2052001953125 285.0262451171875 423.8726806640625 C 286.677978515625 421.7095947265625 287.82220458984375 418.7530517578125 286.6548767089844 416.295654296875 C 286.026611328125 414.968017578125 284.7967224121094 413.9923095703125 283.4548645019531 413.38958740234375 C 282.1130065917969 412.78680419921875 280.6471862792969 412.5198974609375 279.19635009765625 412.2769775390625 C 277.7455139160156 412.0340576171875 276.3147277832031 411.8265075683594 274.92596435546875 412.19171142578125 L 274.57568359375 413.134033203125" stroke-width="0.6000000238418579" fill="rgb(218, 166, 20)" opacity="1.0"/>
    <path d="M 223.12545776367188 412.723876953125 C 218.92349243164062 411.3494567871094 214.40292358398438 413.6416015625 213.02847290039062 417.84356689453125 C 212.9107666015625 418.203369140625 212.81875610351562 418.57110595703125 212.75311279296875 418.9439697265625 C 212.50387573242188 420.3607177734375 212.66876220703125 421.908447265625 213.50393676757812 423.07879638671875 C 214.2095947265625 424.06793212890625 215.31179809570312 424.6932373046875 216.426513671875 425.17474365234375 C 219.41207885742188 426.45941162109375 222.68719482421875 426.9212646484375 225.91159057617188 426.5123291015625 C 226.76370239257812 426.40277099609375 227.6331787109375 426.2225341796875 228.35009765625 425.74578857421875 C 229.55413818359375 424.9461669921875 230.11517333984375 423.43212890625 230.17230224609375 421.98681640625 C 230.2586669921875 419.8411865234375 229.38421630859375 417.7156982421875 227.97967529296875 416.09063720703125 C 226.57516479492188 414.465576171875 224.6756591796875 413.314697265625 222.650146484375 412.60052490234375 L 223.12545776367188 412.723876953125" stroke-width="0.6000000238418579" fill="rgb(143, 165, 67)" opacity="1.0"/>
    <path d="M 283.5429382324219 368.53619384765625 C 283.8228759765625 373.6015930175781 290.9060363769531 376.56829833984375 294.9225769042969 373.52301025390625 C 298.9391174316406 370.47772216796875 298.2325439453125 363.2076721191406 293.8520202636719 360.64581298828125 C 289.4714660644531 358.08392333984375 283.112060546875 360.5995178222656 281.316650390625 365.3509826660156 L 283.5429382324219 368.53619384765625" stroke-width="0.6000000238418579" fill="rgb(233, 92, 21)" opacity="1.0"/>
    <path d="M 333.41558837890625 364.1736755371094 C 333.1353454589844 366.7657775878906 333.0694580078125 369.89117431640625 335.21942138671875 371.38165283203125 C 336.09808349609375 371.9415283203125 337.12884521484375 372.2149353027344 338.16949462890625 372.1641540527344 C 340.7476806640625 372.1077880859375 343.1386413574219 370.8052673339844 344.5841369628906 368.669677734375 C 345.8056945800781 366.8549499511719 346.1824951171875 364.6374206542969 346.4969177246094 362.486083984375 C 346.67156982421875 361.2773132324219 346.8186340332031 359.98748779296875 346.2990417480469 358.8896179199219 C 345.594482421875 357.4319152832031 343.9115905761719 356.744873046875 342.3381042480469 356.36566162109375 C 340.0359802246094 355.80780029296875 337.65875244140625 355.626220703125 335.298583984375 355.8279724121094 C 334.4832458496094 355.8992614746094 333.634765625 356.0285339355469 332.9670715332031 356.5013122558594 C 332.36871337890625 356.9726867675781 331.9204406738281 357.60797119140625 331.6769104003906 358.3297119140625 C 330.8529968261719 360.49029541015625 331.01837158203125 362.903564453125 332.1293029785156 364.9315490722656 L 333.41558837890625 364.1736755371094" stroke-width="0.6000000238418579" fill="rgb(70, 150, 179)" opacity="1.0"/>
    <path d="M 294.1420593261719 412.76861572265625 C 291.33428955078125 412.90008544921875 288.2276306152344 413.1636962890625 286.3003845214844 415.207275390625 C 284.2314147949219 417.40386962890625 284.3356018066406 420.96978759765625 285.6324768066406 423.6943359375 C 286.132080078125 424.74505615234375 286.8195495605469 425.755615234375 287.824462890625 426.34161376953125 C 288.650390625 426.8236083984375 289.6212158203125 426.9815673828125 290.5723876953125 427.07843017578125 C 293.57147216796875 427.3873291015625 296.8484802246094 427.1046142578125 299.1700134277344 425.1820068359375 C 301.5084228515625 423.24261474609375 302.3969421386719 419.7276611328125 301.24371337890625 416.9141845703125 C 300.0904846191406 414.1007080078125 297.0124816894531 412.19354248046875 293.97967529296875 412.438232421875 L 294.1420593261719 412.76861572265625" stroke-width="0.6000000238418579" fill="rgb(140, 28, 33)" opacity="1.0"/>
    <path d="M 335.00048828125 388.72186279296875 C 331.6561279296875 389.1188659667969 328.1805114746094 389.56884765625 325.3068542480469 391.3298034667969 C 322.43328857421875 393.09075927734375 320.3188171386719 396.5840148925781 321.2167663574219 399.8318176269531 C 322.3341369628906 403.83843994140625 327.6575927734375 405.4945983886719 331.4908142089844 403.8603515625 C 335.32403564453125 402.2261047363281 337.73065185546875 398.32855224609375 339.0233154296875 394.37249755859375 C 339.5461730957031 393.18798828125 339.6059875488281 391.8505554199219 339.19091796875 390.6241149902344 C 338.6571350097656 389.467529296875 336.911376953125 388.84130859375 336.056640625 389.7942810058594 L 335.00048828125 388.72186279296875" stroke-width="0.6000000238418579" fill="rgb(159, 159, 159)" opacity="1.0"/>
    <path d="M 345.01116943359375 408.128173828125 C 342.30255126953125 408.097900390625 339.5245361328125 408.9949645996094 337.598388671875 410.8975830078125 C 335.6722717285156 412.8001708984375 334.7328186035156 415.7642822265625 335.5628967285156 418.353271484375 C 336.1520690917969 420.1829833984375 337.5570373535156 421.68316650390625 339.2247009277344 422.64251708984375 C 340.892333984375 423.6019287109375 342.8069763183594 424.06182861328125 344.72125244140625 424.2576904296875 C 345.5543518066406 424.3424072265625 346.434326171875 424.3709716796875 347.1814270019531 423.99749755859375 C 348.0381164550781 423.5697021484375 348.5626525878906 422.6939697265625 349.001708984375 421.8397216796875 C 350.2412109375 419.42791748046875 351.1583251953125 416.73431396484375 350.8424377441406 414.040771484375 C 350.5265808105469 411.34722900390625 348.712158203125 408.697509765625 346.08056640625 408.0704040527344 L 345.01116943359375 408.128173828125" stroke-width="0.6000000238418579" fill="rgb(159, 159, 159)" opacity="1.0"/>
    <path d="M 257.2440185546875 371.3074035644531 C 257.2209777832031 368.6235656738281 257.0791320800781 365.641357421875 255.18765258789062 363.7445983886719 C 253.35076904296875 361.8974304199219 250.47637939453125 361.68682861328125 247.87066650390625 361.6357421875 C 246.81210327148438 361.6165466308594 245.70440673828125 361.61334228515625 244.76318359375 362.09686279296875 C 243.17080688476562 362.9136962890625 242.5267333984375 364.8490295410156 242.31060791015625 366.6229553222656 C 242.109375 368.2693786621094 242.14559936523438 369.9361572265625 242.41815185546875 371.5722961425781 C 242.85977172851562 374.22906494140625 244.217529296875 377.05718994140625 246.78106689453125 377.8797302246094 C 248.16436767578125 378.3258056640625 249.7012939453125 378.0994567871094 251.04510498046875 377.53973388671875 C 252.38888549804688 376.9800109863281 253.57437133789062 376.1033935546875 254.73236083984375 375.2212829589844 C 255.89035034179688 374.3392028808594 257.00927734375 373.4476318359375 257.6865234375 372.1983947753906 L 257.2440185546875 371.3074035644531" stroke-width="0.6000000238418579" fill="rgb(218, 166, 20)" opacity="1.0"/>
    <path d="M 254.85906982421875 392.4515686035156 C 252.13961791992188 388.957275390625 247.1024169921875 388.3291320800781 243.60812377929688 391.048583984375 C 243.30889892578125 391.28143310546875 243.02658081054688 391.5352478027344 242.7633056640625 391.80804443359375 C 241.76300048828125 392.84490966796875 241.033203125 394.2223815917969 241.0712890625 395.6618957519531 C 241.1033935546875 396.8783874511719 241.66839599609375 398.01483154296875 242.32440185546875 399.0388488769531 C 244.08404541015625 401.7774353027344 246.544921875 403.9949035644531 249.4512939453125 405.4609375 C 250.22021484375 405.8471374511719 251.0430908203125 406.18438720703125 251.90536499023438 406.1899719238281 C 253.35293579101562 406.2002258300781 254.66656494140625 405.2572326660156 255.52337646484375 404.0891418457031 C 256.7966003417969 402.3558044433594 257.26068115234375 400.1012878417969 257.00445556640625 397.96539306640625 C 256.74822998046875 395.82952880859375 255.81546020507812 393.8101806640625 254.53350830078125 392.08294677734375 L 254.85906982421875 392.4515686035156" stroke-width="0.6000000238418579" fill="rgb(143, 165, 67)" opacity="1.0"/>
    <path d="M 204.7125244140625 372.68463134765625 C 203.07061767578125 377.44097900390625 208.46270751953125 382.8205871582031 213.29263305664062 381.5299377441406 C 218.12255859375 380.2392883300781 220.19915771484375 373.29852294921875 217.13702392578125 369.3038330078125 C 214.07492065429688 365.30914306640625 207.29220581054688 365.2350769042969 203.86227416992188 368.9251403808594 L 204.7125244140625 372.68463134765625" stroke-width="0.6000000238418579" fill="rgb(233, 92, 21)" opacity="1.0"/>
    <path d="M 270.4072570800781 370.4036865234375 C 269.8817138671875 372.92181396484375 269.5151062011719 375.9842834472656 271.4822082519531 377.6554870605469 C 272.2908935546875 378.29010009765625 273.276611328125 378.6581115722656 274.3033142089844 378.7087707519531 C 276.84033203125 378.9024658203125 279.3138122558594 377.8544616699219 280.939453125 375.8971252441406 C 282.3141784667969 374.23321533203125 282.89837646484375 372.09222412109375 283.4148864746094 370.01019287109375 C 283.703125 368.8401794433594 283.9721374511719 367.587890625 283.5679931640625 366.4596862792969 C 283.0169982910156 364.9602966308594 281.430908203125 364.1231384277344 279.9225158691406 363.5987854003906 C 277.7159423828125 362.8286437988281 275.3992614746094 362.4207458496094 273.06231689453125 362.390869140625 C 272.2548522949219 362.3821105957031 271.40924072265625 362.4270935058594 270.70794677734375 362.8268127441406 C 270.07489013671875 363.23187255859375 269.5733642578125 363.8123779296875 269.2644958496094 364.4975280761719 C 268.246826171875 366.5394287109375 268.17608642578125 368.92498779296875 269.071044921875 371.02362060546875 L 270.4072570800781 370.4036865234375" stroke-width="0.6000000238418579" fill="rgb(70, 150, 179)" opacity="1.0"/>
    <path d="M 329.3317565917969 366.5589599609375 C 329.57373046875 363.7864990234375 329.7255554199219 360.70330810546875 327.97491455078125 358.5422058105469 C 326.0929260253906 356.2218322753906 322.5801696777344 355.8529052734375 319.7353515625 356.7654724121094 C 318.63836669921875 357.1168518066406 317.555908203125 357.6579284667969 316.84814453125 358.5665588378906 C 316.26605224609375 359.31329345703125 315.9827575683594 360.24505615234375 315.7620849609375 361.1655578613281 C 315.0627136230469 364.06756591796875 314.9071044921875 367.3204345703125 316.4869689941406 369.8524475097656 C 318.08099365234375 372.4032287597656 321.41259765625 373.739501953125 324.3256530761719 372.9796447753906 C 327.2387390136719 372.21978759765625 329.51678466796875 369.4515075683594 329.6773986816406 366.4432678222656 L 329.3317565917969 366.5589599609375" stroke-width="0.6000000238418579" fill="rgb(140, 28, 33)" opacity="1.0"/>
    <path d="M 351.1502380371094 390.84619140625 C 347.8210754394531 391.3213195800781 344.3621520996094 391.8524169921875 341.5350341796875 393.67803955078125 C 338.7079772949219 395.5036315917969 336.6795349121094 399.0405578613281 337.6524658203125 402.26153564453125 C 338.8623046875 406.23480224609375 344.2154541015625 407.7626037597656 348.00347900390625 406.0408935546875 C 351.7914733886719 404.3191833496094 354.1020202636719 400.3717041015625 355.2991943359375 396.39215087890625 C 355.793212890625 395.1973571777344 355.8214111328125 393.8608703613281 355.378173828125 392.6463623046875 C 354.81805419921875 391.50439453125 353.06060791015625 390.92041015625 352.2298278808594 391.891845703125 L 351.1502380371094 390.84619140625" stroke-width="0.6000000238418579" fill="rgb(159, 159, 159)" opacity="1.0"/>
    <path d="M 187.3448486328125 406.0006103515625 C 184.670166015625 406.4805603027344 182.1016845703125 407.88739013671875 180.56185913085938 410.1246643066406 C 179.02203369140625 412.3619384765625 178.65423583984375 415.45947265625 179.95944213867188 417.85430908203125 C 180.8843994140625 419.54638671875 182.55111694335938 420.76007080078125 184.37493896484375 421.39154052734375 C 186.19873046875 422.02294921875 188.171875 422.1158447265625 190.094970703125 421.948486328125 C 190.93182373046875 421.87518310546875 191.8043212890625 421.7376708984375 192.47015380859375 421.22906494140625 C 193.23379516601562 420.64630126953125 193.5858154296875 419.6846923828125 193.857666015625 418.76025390625 C 194.62509155273438 416.1505126953125 195.02178955078125 413.32373046875 194.20355224609375 410.7290954589844 C 193.38534545898438 408.1344299316406 191.0987548828125 405.86505126953125 188.3876953125 405.742431640625 L 187.3448486328125 406.0006103515625" stroke-width="0.6000000238418579" fill="rgb(159, 159, 159)" opacity="1.0"/>
    <path d="M 355.6853332519531 375.4443359375 C 352.9922180175781 375.88555908203125 350.017822265625 376.4927062988281 348.4066162109375 378.688720703125 C 346.83673095703125 380.8221435546875 347.0729064941406 383.7431640625 347.427490234375 386.36932373046875 C 347.5730895996094 387.4359436035156 347.742431640625 388.54949951171875 348.3749084472656 389.4198913574219 C 349.4437561035156 390.89263916015625 351.4886779785156 391.2383117675781 353.3047790527344 391.17913818359375 C 354.9904479980469 391.1248474121094 356.6595764160156 390.82879638671875 358.2611083984375 390.3000183105469 C 360.8618469238281 389.4424133300781 363.49200439453125 387.6376037597656 363.91912841796875 384.9336242675781 C 364.15185546875 383.47418212890625 363.68499755859375 381.96514892578125 362.9132385253906 380.70208740234375 C 362.1415100097656 379.4390563964844 361.07598876953125 378.38446044921875 360.00927734375 377.35833740234375 C 358.9425354003906 376.33221435546875 357.8724060058594 375.3467712402344 356.51165771484375 374.86090087890625 L 355.6853332519531 375.4443359375" stroke-width="0.6000000238418579" fill="rgb(218, 166, 20)" opacity="1.0"/>
    <path d="M 372.9963684082031 387.8860778808594 C 369.4028015136719 390.4712219238281 368.5853271484375 395.48004150390625 371.17047119140625 399.0735778808594 C 371.391845703125 399.3813171386719 371.634765625 399.67291259765625 371.89739990234375 399.9462890625 C 372.8955383300781 400.9847412109375 374.2442321777344 401.7657470703125 375.683837890625 401.781982421875 C 376.900390625 401.7958068847656 378.05706787109375 401.274169921875 379.1048583984375 400.65740966796875 C 381.9072265625 399.00262451171875 384.2154235839844 396.627685546875 385.7896423339844 393.779296875 C 386.2044982910156 393.0256652832031 386.5724792480469 392.2162780761719 386.6105651855469 391.3550109863281 C 386.6753845214844 389.9091796875 385.7828063964844 388.56121826171875 384.6481018066406 387.66119384765625 C 382.9643859863281 386.32379150390625 380.7294921875 385.775146484375 378.5859375 385.9505920410156 C 376.4424133300781 386.12603759765625 374.3897705078125 386.9817810058594 372.6158142089844 388.19744873046875 L 372.9963684082031 387.8860778808594" stroke-width="0.6000000238418579" fill="rgb(143, 165, 67)" opacity="1.0"/>
    <path d="M 364.9985046386719 365.5668029785156 C 365.7651062011719 370.6002197265625 373.1263732910156 372.8829650878906 376.84613037109375 369.4546203613281 C 380.56585693359375 366.0262451171875 379.16107177734375 358.8314514160156 374.5386657714844 356.6932678222656 C 369.9162292480469 354.55511474609375 363.8050537109375 357.6795349121094 362.4682312011719 362.5988464355469 L 364.9985046386719 365.5668029785156" stroke-width="0.6000000238418579" fill="rgb(233, 92, 21)" opacity="1.0"/>
    <path d="M 396.251708984375 367.0386657714844 C 395.7633972167969 369.5559387207031 395.441162109375 372.6134948730469 397.42535400390625 374.25146484375 C 398.2403259277344 374.8725891113281 399.22796630859375 375.22552490234375 400.2520446777344 375.26153564453125 C 402.7834167480469 375.4188232421875 405.2340087890625 374.33941650390625 406.82672119140625 372.3655700683594 C 408.1734619140625 370.6877746582031 408.7255554199219 368.5455627441406 409.2110290527344 366.4631042480469 C 409.4818420410156 365.2928771972656 409.7322998046875 364.0409240722656 409.3135986328125 362.922119140625 C 408.7432861328125 361.4354248046875 407.15057373046875 360.6233825683594 405.6397705078125 360.12200927734375 C 403.4295959472656 359.385498046875 401.1147766113281 359.0115966796875 398.78509521484375 359.0147705078125 C 397.98016357421875 359.0174255371094 397.1379699707031 359.07415771484375 396.4446105957031 359.48248291015625 C 395.8193359375 359.8951110839844 395.32763671875 360.48077392578125 395.02947998046875 361.16802978515625 C 394.0439147949219 363.2175598144531 394.0070495605469 365.5962829589844 394.9286193847656 367.6753845214844 L 396.251708984375 367.0386657714844" stroke-width="0.6000000238418579" fill="rgb(70, 150, 179)" opacity="1.0"/>
    <path d="M 389.83526611328125 410.9676818847656 C 388.64129638671875 413.5191650390625 387.4250183105469 416.3974609375 388.337890625 419.060546875 C 389.3202209472656 421.9207763671875 392.5313720703125 423.4927978515625 395.55303955078125 423.61431884765625 C 396.71807861328125 423.66168212890625 397.9352111816406 423.523681640625 398.9239501953125 422.90594482421875 C 399.7369689941406 422.3984375 400.3302307128906 421.6112060546875 400.86004638671875 420.8128662109375 C 402.53387451171875 418.2972412109375 403.812744140625 415.25897216796875 403.1911926269531 412.3026123046875 C 402.56268310546875 409.3235168457031 399.860107421875 406.8948669433594 396.8266296386719 406.6044006347656 C 393.79315185546875 406.3139343261719 390.6650390625 408.153564453125 389.4664611816406 410.9574890136719 L 389.83526611328125 410.9676818847656" stroke-width="0.6000000238418579" fill="rgb(140, 28, 33)" opacity="1.0"/>
    <path d="M 403.77545166015625 397.3319396972656 C 401.7476501464844 400.01727294921875 399.667236328125 402.8338623046875 398.9482727050781 406.12359619140625 C 398.2293701171875 409.41326904296875 399.2843017578125 413.3543701171875 402.24664306640625 414.95428466796875 C 405.90771484375 416.9210205078125 410.7847900390625 414.229736328125 412.259033203125 410.3360290527344 C 413.7332763671875 406.4422912597656 412.5889892578125 402.0108642578125 410.6318664550781 398.3419494628906 C 410.1398010253906 397.1455078125 409.2171630859375 396.177001953125 408.04595947265625 395.62762451171875 C 406.8429870605469 395.2121276855469 405.1836853027344 396.0372009277344 405.2792053222656 397.3126525878906 L 403.77545166015625 397.3319396972656" stroke-width="0.6000000238418579" fill="rgb(159, 159, 159)" opacity="1.0"/>
    <path d="M 430.01275634765625 370.1656799316406 C 430.07275390625 372.8550720214844 431.055419921875 375.5824890136719 433.0079345703125 377.43096923828125 C 434.9603271484375 379.2794494628906 437.9334716796875 380.11334228515625 440.4755859375 379.20343017578125 C 442.27197265625 378.55780029296875 443.7142333984375 377.1134948730469 444.6109619140625 375.4263916015625 C 445.50775146484375 373.73931884765625 445.900634765625 371.8236999511719 446.0313720703125 369.917236328125 C 446.0877685546875 369.0875549316406 446.08685302734375 368.21319580078125 445.6912841796875 367.4841003417969 C 445.23828125 366.6480407714844 444.3515625 366.1565246582031 443.4891357421875 365.7491455078125 C 441.05419921875 364.5990905761719 438.3502197265625 363.77838134765625 435.68731689453125 364.1814270019531 C 433.0244140625 364.5845031738281 430.454833984375 366.47344970703125 429.919921875 369.106201171875 L 430.01275634765625 370.1656799316406" stroke-width="0.6000000238418579" fill="rgb(159, 159, 159)" opacity="1.0"/>
    <path d="M 418.60516357421875 406.45513916015625 C 416.056640625 407.3731689453125 413.263671875 408.5040283203125 412.088623046875 410.9388427734375 C 410.9425964355469 413.30511474609375 411.7017822265625 416.1131591796875 412.52313232421875 418.61199951171875 C 412.8582763671875 419.6265869140625 413.22509765625 420.6827392578125 413.9998779296875 421.417724609375 C 415.3095703125 422.66162109375 417.367919921875 422.62890625 419.129638671875 422.242431640625 C 420.764892578125 421.8843994140625 422.34033203125 421.2933349609375 423.80767822265625 420.4874267578125 C 426.190673828125 419.1798095703125 428.430908203125 416.94232177734375 428.3583984375 414.22607421875 C 428.3214111328125 412.7596435546875 427.5926513671875 411.371337890625 426.61083984375 410.2783508300781 C 425.62908935546875 409.1853332519531 424.3983154296875 408.34893798828125 423.1715087890625 407.5405578613281 C 421.94476318359375 406.7321472167969 420.72198486328125 405.964111328125 419.3060302734375 405.7361755371094 L 418.60516357421875 406.45513916015625" stroke-width="0.6000000238418579" fill="rgb(218, 166, 20)" opacity="1.0"/>
    <path d="M 142.6606903076172 229.84127807617188 C 139.56732177734375 233.05828857421875 139.6675567626953 238.17388916015625 142.88458251953125 241.2672119140625 C 143.16004943847656 241.5321044921875 143.45396423339844 241.77713012695312 143.7641143798828 242.00042724609375 C 144.94276428222656 242.84866333007812 146.42221069335938 243.37786865234375 147.8527069091797 243.1322021484375 C 149.0615997314453 242.92465209960938 150.11375427246094 242.197021484375 151.04061889648438 241.3948974609375 C 153.51861572265625 239.24432373046875 155.37557983398438 236.469482421875 156.41864013671875 233.358642578125 C 156.6929931640625 232.535888671875 156.91067504882812 231.66635131835938 156.79180908203125 230.80535888671875 C 156.5931396484375 229.35986328125 155.46292114257812 228.18548583984375 154.1740264892578 227.49932861328125 C 152.26119995117188 226.47930908203125 149.94522094726562 226.3416748046875 147.8515167236328 226.90548706054688 C 145.7578125 227.46929931640625 143.87799072265625 228.691162109375 142.33995056152344 230.21923828125 L 142.6606903076172 229.84127807617188" stroke-width="0.6000000238418579" fill="rgb(143, 165, 67)" opacity="1.0"/>
    <path d="M 166.74041748046875 264.5446472167969 C 167.215087890625 269.6263427734375 174.4490966796875 272.338623046875 178.37088012695312 269.1239013671875 C 182.2926025390625 265.9091796875 181.304931640625 258.6274108886719 176.8033447265625 256.218994140625 C 172.30178833007812 253.81060791015625 166.0045166015625 256.5821838378906 164.38079833984375 261.42742919921875 L 166.74041748046875 264.5446472167969" stroke-width="0.6000000238418579" fill="rgb(233, 92, 21)" opacity="1.0"/>
    <path d="M 155.4180908203125 313.01190185546875 C 154.24642944335938 315.2984313964844 153.08399963378906 318.1512451171875 154.53701782226562 320.28076171875 C 155.1482391357422 321.105712890625 156.0003662109375 321.7206726074219 156.97589111328125 322.0408020019531 C 159.3682861328125 322.8978271484375 162.02767944335938 322.5420837402344 164.1107177734375 321.08642578125 C 165.87457275390625 319.8470764160156 167.0030517578125 317.9393005371094 168.05078125 316.0704345703125 C 168.63760375976562 315.0196533203125 169.22763061523438 313.88458251953125 169.13653564453125 312.69110107421875 C 169.0020751953125 311.101318359375 167.69561767578125 309.8758239746094 166.38131713867188 308.97216796875 C 164.45953369140625 307.6472473144531 162.3359375 306.6421203613281 160.09295654296875 305.99578857421875 C 159.3175048828125 305.7739562988281 158.49114990234375 305.59381103515625 157.71005249023438 305.7934875488281 C 156.99325561523438 306.0163269042969 156.35678100585938 306.4429016113281 155.8782501220703 307.0212097167969 C 154.35841369628906 308.718994140625 153.65985107421875 310.9980163574219 153.9672393798828 313.255859375 L 155.4180908203125 313.01190185546875" stroke-width="0.6000000238418579" fill="rgb(70, 150, 179)" opacity="1.0"/>
    <path d="M 125.63479614257812 297.7085876464844 C 124.6510009765625 295.0402526855469 123.448486328125 292.1239013671875 120.88888549804688 290.8885803222656 C 118.13848876953125 289.5632019042969 114.73048400878906 290.7521057128906 112.49810791015625 292.8347473144531 C 111.63705444335938 293.6373596191406 110.87205505371094 294.6089782714844 110.613525390625 295.7572326660156 C 110.400634765625 296.7010803222656 110.54457092285156 297.685791015625 110.74148559570312 298.6328430175781 C 111.35888671875 301.62017822265625 112.63180541992188 304.69500732421875 115.195068359375 306.34759521484375 C 117.77960205078125 308.0113525390625 121.44145202636719 307.7956237792969 123.80345153808594 305.8244323730469 C 126.16543579101562 303.8532409667969 127.065673828125 300.3019714355469 125.90394592285156 297.45111083984375 L 125.63479614257812 297.7085876464844" stroke-width="0.6000000238418579" fill="rgb(140, 28, 33)" opacity="1.0"/>
    <path d="M 139.4167938232422 273.5789489746094 C 136.30245971679688 274.89056396484375 133.07627868652344 276.2897033691406 130.79461669921875 278.7856750488281 C 128.5130157470703 281.2816467285156 127.44442749023438 285.2370300292969 129.21221923828125 288.119140625 C 131.40231323242188 291.6719665527344 136.99510192871094 291.79034423828125 140.23716735839844 289.1500244140625 C 143.479248046875 286.5097351074219 144.71722412109375 282.0833435058594 144.86489868164062 277.9100036621094 C 145.0400390625 276.6226806640625 144.7262725830078 275.3165283203125 143.9854736328125 274.249267578125 C 143.14959716796875 273.2823791503906 141.29241943359375 273.1634216308594 140.73297119140625 274.31964111328125 L 139.4167938232422 273.5789489746094" stroke-width="0.6000000238418579" fill="rgb(159, 159, 159)" opacity="1.0"/>
    <path d="M 157.29644775390625 296.5923767089844 C 155.66831970214844 298.7196960449219 154.7335968017578 301.4512023925781 155.09979248046875 304.103515625 C 155.4659881591797 306.75579833984375 157.2572021484375 309.2552795410156 159.79931640625 310.1311340332031 C 161.597412109375 310.74810791015625 163.61761474609375 310.5238037109375 165.36505126953125 309.7711486816406 C 167.112548828125 309.0185241699219 168.6107177734375 307.77447509765625 169.89950561523438 306.3743591308594 C 170.45999145507812 305.76470947265625 171.0037841796875 305.08465576171875 171.15042114257812 304.27178955078125 C 171.3189697265625 303.33990478515625 170.93600463867188 302.40582275390625 170.51943969726562 301.5521545410156 C 169.34335327148438 299.14215087890625 167.75311279296875 296.820556640625 165.4327392578125 295.47552490234375 C 163.11233520507812 294.1305236816406 159.93917846679688 293.99835205078125 157.88400268554688 295.7112121582031 L 157.29644775390625 296.5923767089844" stroke-width="0.6000000238418579" fill="rgb(159, 159, 159)" opacity="1.0"/>
    <path d="M 126.10211181640625 345.964111328125 C 125.302978515625 343.3452453613281 124.30122375488281 340.4688720703125 121.9019775390625 339.16064453125 C 119.57049560546875 337.8851318359375 116.69758605957031 338.5108642578125 114.13369750976562 339.21490478515625 C 113.09259033203125 339.50244140625 112.00799560546875 339.8198547363281 111.22714233398438 340.5652160644531 C 109.90574645996094 341.8251037597656 109.83567810058594 343.9047546386719 110.1375732421875 345.70269775390625 C 110.41712951660156 347.37158203125 110.93489074707031 348.9916687011719 111.67498779296875 350.5133972167969 C 112.87579345703125 352.98468017578125 115.02239990234375 355.3584899902344 117.76828002929688 355.42132568359375 C 119.2506103515625 355.4574279785156 120.68865966796875 354.791259765625 121.84130859375 353.8548278808594 C 122.99392700195312 352.9184265136719 123.89999389648438 351.7178039550781 124.77757263183594 350.519775390625 C 125.6551513671875 349.3217468261719 126.49180603027344 348.1257629394531 126.7928466796875 346.70770263671875 L 126.10211181640625 345.964111328125" stroke-width="0.6000000238418579" fill="rgb(218, 166, 20)" opacity="1.0"/>
    <path d="M 166.13189697265625 347.8346252441406 C 162.79876708984375 350.7155456542969 162.43222045898438 355.7530212402344 165.31314086914062 359.08612060546875 C 165.559814453125 359.37152099609375 165.82647705078125 359.6390686035156 166.11102294921875 359.8867492675781 C 167.19244384765625 360.82769775390625 168.59857177734375 361.4823913574219 170.02700805664062 361.3709411621094 C 171.23416137695312 361.27685546875 172.33453369140625 360.65728759765625 173.3184814453125 359.9530944824219 C 175.94976806640625 358.06451416015625 178.02734375 355.5058288574219 179.33544921875 352.5428466796875 C 179.679931640625 351.7590637207031 179.97296142578125 350.92413330078125 179.93441772460938 350.0670471191406 C 179.87054443359375 348.62811279296875 178.8663330078125 347.3710021972656 177.66180419921875 346.5793762207031 C 175.87435913085938 345.40283203125 173.6103515625 345.0569763183594 171.5010986328125 345.42083740234375 C 169.391845703125 345.78466796875 167.4329833984375 346.8147888183594 165.7822265625 348.1769714355469 L 166.13189697265625 347.8346252441406" stroke-width="0.6000000238418579" fill="rgb(143, 165, 67)" opacity="1.0"/>
    <path d="M 133.33837890625 376.3595886230469 C 131.0714111328125 371.99078369140625 123.62356567382812 372.19049072265625 121.28494262695312 376.4853210449219 C 118.94631958007812 380.7801513671875 122.46957397460938 386.9288635253906 127.36550903320312 387.4485168457031 C 132.26144409179688 387.9681701660156 136.88352966308594 383.2078857421875 136.57736206054688 378.2893981933594 L 133.33837890625 376.3595886230469" stroke-width="0.6000000238418579" fill="rgb(233, 92, 21)" opacity="1.0"/>
    <path d="M 179.59710693359375 365.935791015625 C 178.55419921875 368.2734680175781 177.55084228515625 371.174072265625 179.1107177734375 373.21466064453125 C 179.7630615234375 374.0025939941406 180.64385986328125 374.56866455078125 181.63156127929688 374.83477783203125 C 184.05767822265625 375.5589904785156 186.684326171875 375.06231689453125 188.67855834960938 373.5023193359375 C 190.3668212890625 372.1746520996094 191.38714599609375 370.2160949707031 192.32916259765625 368.3005676269531 C 192.8565673828125 367.22369384765625 193.38265991210938 366.062744140625 193.22796630859375 364.88031005859375 C 193.00885009765625 363.3058776855469 191.643310546875 362.15679931640625 190.28729248046875 361.32830810546875 C 188.30419921875 360.11334228515625 186.1375732421875 359.22735595703125 183.87139892578125 358.7047424316406 C 183.08804321289062 358.5256652832031 182.2562255859375 358.3907775878906 181.4898681640625 358.6313781738281 C 180.7886962890625 358.89154052734375 180.17840576171875 359.35009765625 179.73333740234375 359.9511413574219 C 178.31243896484375 361.7217712402344 177.73980712890625 364.026611328125 178.16680908203125 366.2563781738281 L 179.59710693359375 365.935791015625" stroke-width="0.6000000238418579" fill="rgb(70, 150, 179)" opacity="1.0"/>
  </g>
</svg>
