<?xml version="1.0" ?>
<svg xmlns="http://www.w3.org/2000/svg" version="1.1" width="600" height="600">
  <defs/>
  <g>
    <path d="M 353.0399169921875 344.5639953613281 C 354.611328125 345.6331787109375 357.1059875488281 344.1998596191406 357.1134033203125 342.3114318847656 C 357.120849609375 340.4230041503906 354.7961120605469 338.9792175292969 353.0368957519531 339.7001953125 C 351.27764892578125 340.42120361328125 350.5794982910156 342.8864440917969 351.5852966308594 344.501953125 L 353.0399169921875 344.5639953613281" stroke-width="0.6000000238418579" fill="rgb(233, 92, 21)" opacity="1.0"/>
    <path d="M 104.54774475097656 201.54754638671875 C 105.23698425292969 200.86517333984375 105.98953247070312 199.978515625 105.71878051757812 199.043701171875 C 105.5965576171875 198.6759033203125 105.36322021484375 198.35507202148438 105.05091857910156 198.12548828125 C 104.29351806640625 197.53668212890625 103.2977294921875 197.35147094726562 102.3792724609375 197.628662109375 C 101.60078430175781 197.86575317382812 100.97157287597656 198.4173583984375 100.37591552734375 198.96453857421875 C 100.04180908203125 199.27243041992188 99.6966552734375 199.6102294921875 99.58895874023438 200.04904174804688 C 99.4501953125 200.6351318359375 99.77470397949219 201.22842407226562 100.13986206054688 201.7071533203125 C 100.67341613769531 202.40850830078125 101.31695556640625 203.01882934570312 102.0455322265625 203.5145263671875 C 102.297607421875 203.685302734375 102.57284545898438 203.84710693359375 102.87652587890625 203.86737060546875 C 103.15988159179688 203.87173461914062 103.4383544921875 203.7935791015625 103.67803955078125 203.64239501953125 C 104.42294311523438 203.212158203125 104.94158935546875 202.47677612304688 105.09689331054688 201.63067626953125 L 104.54774475097656 201.54754638671875" stroke-width="0.6000000238418579" fill="rgb(70, 150, 179)" opacity="1.0"/>
    <path d="M 457.85009765625 429.5626220703125 C 458.16796875 430.2886962890625 458.55078125 431.08013916015625 459.2833251953125 431.3814697265625 C 460.07049560546875 431.70458984375 460.9989013671875 431.31744384765625 461.58551025390625 430.7010498046875 C 461.811767578125 430.4635009765625 462.008544921875 430.1805419921875 462.0614013671875 429.8568115234375 C 462.10498046875 429.5906982421875 462.0487060546875 429.31915283203125 461.97821044921875 429.0589599609375 C 461.7569580078125 428.238037109375 461.3519287109375 427.4036865234375 460.6114501953125 426.98638916015625 C 459.8648681640625 426.5662841796875 458.8497314453125 426.68695068359375 458.2252197265625 427.2744140625 C 457.6007080078125 427.8619384765625 457.4090576171875 428.8648681640625 457.77947998046875 429.63873291015625 L 457.85009765625 429.5626220703125" stroke-width="0.6000000238418579" fill="rgb(140, 28, 33)" opacity="1.0"/>
    <path d="M 91.37001037597656 197.06695556640625 C 92.9085693359375 196.48233032226562 94.50309753417969 195.85702514648438 95.65679931640625 194.6815185546875 C 96.81050109863281 193.50601196289062 97.39895629882812 191.59918212890625 96.5882568359375 190.165771484375 C 95.58358764648438 188.39859008789062 92.86334228515625 188.244384765625 91.23965454101562 189.47354125976562 C 89.615966796875 190.70269775390625 88.93692016601562 192.83587646484375 88.79293823242188 194.86471557617188 C 88.68545532226562 195.48828125 88.81561279296875 196.12948608398438 89.15777587890625 196.66177368164062 C 89.54794311523438 197.1468505859375 90.44985961914062 197.23681640625 90.74215698242188 196.6837158203125 L 91.37001037597656 197.06695556640625" stroke-width="0.6000000238418579" fill="rgb(159, 159, 159)" opacity="1.0"/>
    <path d="M 377.4024353027344 299.37933349609375 C 378.0499267578125 298.9715576171875 378.57177734375 298.33306884765625 378.7374267578125 297.58642578125 C 378.903076171875 296.8398132324219 378.67193603515625 295.992431640625 378.07830810546875 295.505126953125 C 377.65814208984375 295.1611633300781 377.09490966796875 295.0203552246094 376.5521240234375 295.04815673828125 C 376.0093688964844 295.0759582519531 375.4845275878906 295.2601318359375 375.0002136230469 295.5069274902344 C 374.78948974609375 295.61444091796875 374.5762634277344 295.7424621582031 374.4561767578125 295.945556640625 C 374.31842041015625 296.1783447265625 374.3280944824219 296.4665222167969 374.3547668457031 296.7365417480469 C 374.4300842285156 297.4988098144531 374.6250915527344 298.2785949707031 375.1127014160156 298.86944580078125 C 375.6003112792969 299.4603271484375 376.4368591308594 299.8111877441406 377.1575012207031 299.556884765625 L 377.4024353027344 299.37933349609375" stroke-width="0.6000000238418579" fill="rgb(159, 159, 159)" opacity="1.0"/>
    <path d="M 98.45100402832031 431.70562744140625 C 98.82069396972656 430.967041015625 99.19961547851562 430.130126953125 98.94712829589844 429.345458984375 C 98.70263671875 428.58203125 97.94461059570312 428.12158203125 97.23783874511719 427.7425537109375 C 96.95050048828125 427.5889892578125 96.6474609375 427.43292236328125 96.32183837890625 427.43353271484375 C 95.7711181640625 427.43426513671875 95.32351684570312 427.874267578125 95.01577758789062 428.33001708984375 C 94.72998046875 428.7529296875 94.50637817382812 429.21466064453125 94.35183715820312 429.701171875 C 94.10063171386719 430.49090576171875 94.076416015625 431.45599365234375 94.66354370117188 432.04052734375 C 94.98007202148438 432.35650634765625 95.432861328125 432.50982666015625 95.87945556640625 432.54473876953125 C 96.3260498046875 432.57965087890625 96.77366638183594 432.50555419921875 97.21452331542969 432.42608642578125 C 97.65536499023438 432.3466796875 98.08685302734375 432.2591552734375 98.44741821289062 432.01171875 L 98.45100402832031 431.70562744140625" stroke-width="0.6000000238418579" fill="rgb(218, 166, 20)" opacity="1.0"/>
    <path d="M 100.70025634765625 139.49302673339844 C 102.22927856445312 139.8672637939453 103.77217102050781 138.93112182617188 104.14639282226562 137.402099609375 C 104.17843627929688 137.2711639404297 104.201171875 137.1381378173828 104.21438598632812 137.0039825439453 C 104.26451110839844 136.49424743652344 104.1640625 135.94923400878906 103.83587646484375 135.5563201904297 C 103.55857849121094 135.2242431640625 103.15034484863281 135.03207397460938 102.74156188964844 134.8913116455078 C 101.64682006835938 134.51602172851562 100.47157287597656 134.44070434570312 99.337890625 134.6731719970703 C 99.038330078125 134.73513793945312 98.73451232910156 134.82264709472656 98.49288940429688 135.0113067626953 C 98.08706665039062 135.3278045654297 97.92887878417969 135.8804931640625 97.94770812988281 136.39517211914062 C 97.97512817382812 137.15928649902344 98.34310913085938 137.89019775390625 98.8857421875 138.42913818359375 C 99.42837524414062 138.9680633544922 100.1339111328125 139.32525634765625 100.87234497070312 139.5239715576172 L 100.70025634765625 139.49302673339844" stroke-width="0.6000000238418579" fill="rgb(143, 165, 67)" opacity="1.0"/>
    <path d="M 455.01654052734375 341.132080078125 C 456.7978515625 342.248779296875 459.495849609375 340.56109619140625 459.42578125 338.47344970703125 C 459.35577392578125 336.3857727050781 456.726318359375 334.8861999511719 454.8116455078125 335.75604248046875 C 452.89697265625 336.6258850097656 452.2274169921875 339.3797607421875 453.4061279296875 341.123779296875 L 455.01654052734375 341.132080078125" stroke-width="0.6000000238418579" fill="rgb(233, 92, 21)" opacity="1.0"/>
    <path d="M 107.55458068847656 215.64178466796875 C 108.33126831054688 215.11114501953125 109.20401000976562 214.39669799804688 109.10894775390625 213.4576416015625 C 109.05657958984375 213.08538818359375 108.88998413085938 212.73858642578125 108.63214111328125 212.46502685546875 C 108.01242065429688 211.77105712890625 107.09475708007812 211.42050170898438 106.170166015625 211.5245361328125 C 105.3861083984375 211.61480712890625 104.68951416015625 212.03118896484375 104.02572631835938 212.44915771484375 C 103.65322875976562 212.6845703125 103.26496887207031 212.946533203125 103.08560180664062 213.34637451171875 C 102.85087585449219 213.88128662109375 103.05685424804688 214.50390625 103.32162475585938 215.0244140625 C 103.70817565917969 215.78662109375 104.21554565429688 216.48123168945312 104.82403564453125 217.08132934570312 C 105.03469848632812 217.28826904296875 105.26901245117188 217.49072265625 105.55519104003906 217.56304931640625 C 105.82473754882812 217.61669921875 106.10404968261719 217.59075927734375 106.35910034179688 217.4884033203125 C 107.14485168457031 217.2080078125 107.76803588867188 216.5970458984375 108.06393432617188 215.8170166015625 L 107.55458068847656 215.64178466796875" stroke-width="0.6000000238418579" fill="rgb(70, 150, 179)" opacity="1.0"/>
    <path d="M 102.39633178710938 79.46124267578125 C 102.75140380859375 80.32730102539062 103.18133544921875 81.27235412597656 104.03781127929688 81.64846801757812 C 104.95809936523438 82.05195617675781 106.06501770019531 81.62069702148438 106.77470397949219 80.90933227539062 C 107.0484619140625 80.63519287109375 107.28860473632812 80.30657958984375 107.360107421875 79.92584228515625 C 107.41897583007812 79.61288452148438 107.36001586914062 79.29071044921875 107.28408813476562 78.98152160644531 C 107.04576110839844 78.0062255859375 106.59078979492188 77.0098876953125 105.72819519042969 76.49655151367188 C 104.85845947265625 75.97981262207031 103.65657043457031 76.09397888183594 102.90292358398438 76.77020263671875 C 102.1492919921875 77.44642639160156 101.89508056640625 78.6251220703125 102.31083679199219 79.54911804199219 L 102.39633178710938 79.46124267578125" stroke-width="0.6000000238418579" fill="rgb(140, 28, 33)" opacity="1.0"/>
    <path d="M 92.47659301757812 425.78173828125 C 94.02680969238281 425.6619873046875 95.63856506347656 425.520263671875 96.99749755859375 424.762451171875 C 98.35638427734375 424.004638671875 99.39796447753906 422.433349609375 99.04531860351562 420.918212890625 C 98.6058349609375 419.048828125 96.18162536621094 418.18402099609375 94.38247680664062 418.865234375 C 92.58331298828125 419.54638671875 91.39932250976562 421.29864501953125 90.72805786132812 423.0989990234375 C 90.46441650390625 423.635498046875 90.41148376464844 424.251220703125 90.57969665527344 424.8248291015625 C 90.80400085449219 425.36846923828125 91.597412109375 425.6904296875 92.00973510742188 425.26702880859375 L 92.47659301757812 425.78173828125" stroke-width="0.6000000238418579" fill="rgb(159, 159, 159)" opacity="1.0"/>
    <path d="M 468.56005859375 60.72259521484375 C 469.19122314453125 59.96891784667969 469.577880859375 58.982574462890625 469.4864501953125 58.004302978515625 C 469.3948974609375 57.02601623535156 468.77850341796875 56.080810546875 467.86065673828125 55.718719482421875 C 467.21136474609375 55.46356201171875 466.4671630859375 55.51322937011719 465.8143310546875 55.760986328125 C 465.16156005859375 56.008758544921875 464.59228515625 56.44068908691406 464.09716796875 56.9332275390625 C 463.88189697265625 57.147705078125 463.67156982421875 57.38825988769531 463.604736328125 57.68389892578125 C 463.52789306640625 58.0228271484375 463.65325927734375 58.3714599609375 463.792236328125 58.691131591796875 C 464.1845703125 59.59364318847656 464.7301025390625 60.47039794921875 465.55914306640625 61.00090026855469 C 466.38818359375 61.531402587890625 467.54931640625 61.631011962890625 468.3304443359375 61.036163330078125 L 468.56005859375 60.72259521484375" stroke-width="0.6000000238418579" fill="rgb(159, 159, 159)" opacity="1.0"/>
    <path d="M 92.2490234375 105.90811157226562 C 93.06767272949219 106.10452270507812 93.98614501953125 106.287353515625 94.70684814453125 105.85537719726562 C 95.40829467773438 105.436279296875 95.69024658203125 104.57731628417969 95.90328979492188 103.78805541992188 C 95.98936462402344 103.46731567382812 96.07427978515625 103.13038635253906 95.99844360351562 102.8072509765625 C 95.87049865722656 102.26066589355469 95.33023071289062 101.91793823242188 94.80667114257812 101.71771240234375 C 94.32078552246094 101.53167724609375 93.81069946289062 101.4163818359375 93.29203796386719 101.37533569335938 C 92.44989013671875 101.30841064453125 91.48617553710938 101.50732421875 91.04151916503906 102.22528076171875 C 90.8009033203125 102.61253356933594 90.75331115722656 103.09750366210938 90.82183837890625 103.5489501953125 C 90.89035034179688 104.00039672851562 91.06733703613281 104.42767333984375 91.24807739257812 104.84698486328125 C 91.42880249023438 105.26631164550781 91.61537170410156 105.67446899414062 91.94427490234375 105.97528076171875 L 92.2490234375 105.90811157226562" stroke-width="0.6000000238418579" fill="rgb(218, 166, 20)" opacity="1.0"/>
    <path d="M 118.36593627929688 127.32940673828125 C 119.85154724121094 126.7833251953125 120.61318969726562 125.13630676269531 120.06710815429688 123.65069580078125 C 120.02033996582031 123.52346801757812 119.96461486816406 123.39974975585938 119.90034484863281 123.28041076660156 C 119.65603637695312 122.8270263671875 119.26631164550781 122.42874145507812 118.77197265625 122.28518676757812 C 118.354248046875 122.163818359375 117.90580749511719 122.23265075683594 117.48577880859375 122.34469604492188 C 116.36184692382812 122.6461181640625 115.33914184570312 123.24298095703125 114.52389526367188 124.07328796386719 C 114.30876159667969 124.29312133789062 114.10443115234375 124.53666687011719 114.00877380371094 124.82968139648438 C 113.84786987304688 125.32151794433594 114.02615356445312 125.87138366699219 114.33074951171875 126.2901611328125 C 114.78256225585938 126.9122314453125 115.49981689453125 127.31539916992188 116.2550048828125 127.46041870117188 C 117.01020812988281 127.60540771484375 117.79928588867188 127.50735473632812 118.52685546875 127.25862121582031 L 118.36593627929688 127.32940673828125" stroke-width="0.6000000238418579" fill="rgb(143, 165, 67)" opacity="1.0"/>
    <path d="M 388.9626159667969 302.1227111816406 C 390.4416198730469 303.57928466796875 393.4027404785156 302.52789306640625 393.7806091308594 300.50030517578125 C 394.1584777832031 298.4727478027344 391.9434814453125 296.46612548828125 389.91204833984375 296.8962097167969 C 387.880615234375 297.3262939453125 386.6475830078125 299.8383483886719 387.4118347167969 301.7711181640625 L 388.9626159667969 302.1227111816406" stroke-width="0.6000000238418579" fill="rgb(233, 92, 21)" opacity="1.0"/>
    <path d="M 122.852783203125 112.1263427734375 C 123.53813171386719 111.5028076171875 124.29212951660156 110.68687438964844 124.07138061523438 109.78372192382812 C 123.96955871582031 109.427734375 123.759765625 109.11212158203125 123.470947265625 108.88040161132812 C 122.77178955078125 108.28787231445312 121.82879638671875 108.07098388671875 120.94100952148438 108.29850769042969 C 120.18841552734375 108.49343872070312 119.56562805175781 108.99458312988281 118.97505187988281 109.49282836914062 C 118.64375305175781 109.77323913574219 118.30068969726562 110.08172607421875 118.18020629882812 110.49623107910156 C 118.02413940429688 111.050048828125 118.30996704101562 111.62937927246094 118.63922119140625 112.10104370117188 C 119.12019348144531 112.79193115234375 119.7098388671875 113.40040588378906 120.38525390625 113.90286254882812 C 120.61895751953125 114.07603454589844 120.87513732910156 114.2415771484375 121.1641845703125 114.27313232421875 C 121.4344482421875 114.28874206542969 121.70339965820312 114.22537231445312 121.93826293945312 114.09074401855469 C 122.66656494140625 113.71009826660156 123.19122314453125 113.02912902832031 123.37356567382812 112.22782897949219 L 122.852783203125 112.1263427734375" stroke-width="0.6000000238418579" fill="rgb(70, 150, 179)" opacity="1.0"/>
    <path d="M 428.73486328125 71.09407043457031 C 429.18304443359375 71.85379028320312 429.71173095703125 72.67706298828125 430.56134033203125 72.91207885742188 C 431.47418212890625 73.16400146484375 432.4482421875 72.61219787597656 433.01397705078125 71.85284423828125 C 433.23223876953125 71.56016540527344 433.41180419921875 71.22123718261719 433.427001953125 70.85649108886719 C 433.43963623046875 70.55667114257812 433.341064453125 70.26414489746094 433.228515625 69.98605346679688 C 432.8743896484375 69.10867309570312 432.3154296875 68.24093627929688 431.4415283203125 67.8787841796875 C 430.560546875 67.514404296875 429.455078125 67.7833251953125 428.8436279296875 68.51583862304688 C 428.23211669921875 69.24836730957031 428.15435791015625 70.38201904296875 428.6669921875 71.18757629394531 L 428.73486328125 71.09407043457031" stroke-width="0.6000000238418579" fill="rgb(140, 28, 33)" opacity="1.0"/>
    <path d="M 115.63290405273438 416.4146728515625 C 116.5816650390625 415.0638427734375 117.55401611328125 413.647705078125 117.850830078125 412.022705078125 C 118.14765930175781 410.39764404296875 117.56378173828125 408.4832458496094 116.0843505859375 407.74896240234375 C 114.25613403320312 406.8466491699219 111.91053771972656 408.2486267089844 111.25363159179688 410.18255615234375 C 110.59671020507812 412.11651611328125 111.232666015625 414.269775390625 112.2542724609375 416.03546142578125 C 112.51576232910156 416.61376953125 112.9844970703125 417.072998046875 113.5679931640625 417.322509765625 C 114.16482543945312 417.505859375 114.96438598632812 417.0732421875 114.89596557617188 416.4495849609375 L 115.63290405273438 416.4146728515625" stroke-width="0.6000000238418579" fill="rgb(159, 159, 159)" opacity="1.0"/>
    <path d="M 452.5625 430.214599609375 C 452.98974609375 429.3985595703125 453.146728515625 428.41839599609375 452.8675537109375 427.5411376953125 C 452.58837890625 426.663818359375 451.83526611328125 425.92169189453125 450.9227294921875 425.7735595703125 C 450.27734375 425.669677734375 449.60595703125 425.86376953125 449.057861328125 426.22100830078125 C 448.509765625 426.5782470703125 448.074951171875 427.08734130859375 447.7200927734375 427.6370849609375 C 447.56585693359375 427.87646484375 447.42138671875 428.138671875 447.419189453125 428.4227294921875 C 447.4166259765625 428.748291015625 447.6009521484375 429.0423583984375 447.7919921875 429.3072509765625 C 448.3314208984375 430.05511474609375 449.00604248046875 430.748779296875 449.87091064453125 431.06884765625 C 450.73583984375 431.38885498046875 451.8187255859375 431.248046875 452.4149169921875 430.5474853515625 L 452.5625 430.214599609375" stroke-width="0.6000000238418579" fill="rgb(159, 159, 159)" opacity="1.0"/>
    <path d="M 449.6297607421875 286.23870849609375 C 450.207275390625 285.57720947265625 450.82061767578125 284.81689453125 450.7701416015625 283.9419250488281 C 450.72216796875 283.0909423828125 450.0648193359375 282.414794921875 449.43853759765625 281.8360900878906 C 449.18377685546875 281.60137939453125 448.91351318359375 281.3598937988281 448.5782470703125 281.2736511230469 C 448.01123046875 281.12744140625 447.43310546875 281.46087646484375 446.9947509765625 281.84783935546875 C 446.5877685546875 282.20684814453125 446.2344970703125 282.6224365234375 445.94561767578125 283.0818786621094 C 445.476318359375 283.82769775390625 445.19384765625 284.8145446777344 445.6422119140625 285.5727844238281 C 445.8836669921875 285.98248291015625 446.308837890625 286.2611083984375 446.7591552734375 286.41619873046875 C 447.20947265625 286.5712890625 447.68994140625 286.61444091796875 448.16485595703125 286.6502990722656 C 448.6397705078125 286.6861572265625 449.10723876953125 286.7112121582031 449.54437255859375 286.5528259277344 L 449.6297607421875 286.23870849609375" stroke-width="0.6000000238418579" fill="rgb(218, 166, 20)" opacity="1.0"/>
    <path d="M 420.5523681640625 365.31036376953125 C 421.5596923828125 366.4273681640625 423.2818603515625 366.5162353515625 424.39892578125 365.5088806152344 C 424.4945068359375 365.422607421875 424.58392333984375 365.3296813964844 424.66644287109375 365.2307434082031 C 424.9798583984375 364.8548583984375 425.1932373046875 364.37017822265625 425.1448974609375 363.8833923339844 C 425.10406494140625 363.4720153808594 424.8846435546875 363.1008605957031 424.63720703125 362.7700500488281 C 423.9736328125 361.8854675292969 423.0853271484375 361.1947021484375 422.064453125 360.76953125 C 421.79443359375 360.6575927734375 421.50732421875 360.5635681152344 421.215087890625 360.5828857421875 C 420.724365234375 360.61505126953125 420.302490234375 360.96685791015625 420.0408935546875 361.38372802734375 C 419.6522216796875 362.0023193359375 419.5504150390625 362.7776184082031 419.6898193359375 363.4949951171875 C 419.82916259765625 364.21234130859375 420.19488525390625 364.8735656738281 420.6717529296875 365.42724609375 L 420.5523681640625 365.31036376953125" stroke-width="0.6000000238418579" fill="rgb(143, 165, 67)" opacity="1.0"/>
    <path d="M 450.95556640625 355.3233947753906 C 452.116943359375 353.59283447265625 450.5277099609375 350.8675231933594 448.45703125 350.8726501464844 C 446.3863525390625 350.8777770996094 444.819580078125 353.43695068359375 445.62249755859375 355.3608703613281 C 446.4254150390625 357.2848205566406 449.1334228515625 358.03302001953125 450.89776611328125 356.9188232421875 L 450.95556640625 355.3233947753906" stroke-width="0.6000000238418579" fill="rgb(233, 92, 21)" opacity="1.0"/>
    <path d="M 452.87689208984375 82.31646728515625 C 453.46319580078125 81.70669555664062 454.100341796875 80.91748046875 453.84423828125 80.10824584960938 C 453.729736328125 79.7901611328125 453.5194091796875 79.51544189453125 453.2421875 79.32196044921875 C 452.5692138671875 78.8248291015625 451.69696044921875 78.68472290039062 450.902099609375 78.94607543945312 C 450.22845458984375 79.16952514648438 449.691650390625 79.66397094726562 449.18408203125 80.15383911132812 C 448.89935302734375 80.42947387695312 448.60565185546875 80.73138427734375 448.52117919921875 81.11630249023438 C 448.4127197265625 81.63031005859375 448.70843505859375 82.140625 449.037109375 82.55020141601562 C 449.517333984375 83.15023803710938 450.091552734375 83.6685791015625 450.7374267578125 84.08514404296875 C 450.9608154296875 84.2286376953125 451.204345703125 84.36383056640625 451.46954345703125 84.37495422363281 C 451.7166748046875 84.3726806640625 451.95782470703125 84.29856872558594 452.16357421875 84.16162109375 C 452.80377197265625 83.7705078125 453.240234375 83.11819458007812 453.35748291015625 82.37716674804688 L 452.87689208984375 82.31646728515625" stroke-width="0.6000000238418579" fill="rgb(70, 150, 179)" opacity="1.0"/>
    <path d="M 449.91680908203125 391.1482238769531 C 450.236083984375 390.5765686035156 450.56591796875 389.9295349121094 450.3985595703125 389.2969665527344 C 450.21844482421875 388.6175231933594 449.5001220703125 388.19964599609375 448.8016357421875 388.1212158203125 C 448.5323486328125 388.0908508300781 448.2479248046875 388.1025695800781 448.0084228515625 388.2293395996094 C 447.81146240234375 388.3334655761719 447.66082763671875 388.506103515625 447.52471923828125 388.682373046875 C 447.0948486328125 389.23773193359375 446.747802734375 389.9208068847656 446.8426513671875 390.61651611328125 C 446.9388427734375 391.317626953125 447.52496337890625 391.9256286621094 448.223388671875 392.04345703125 C 448.92181396484375 392.1612548828125 449.6776123046875 391.7868347167969 450.00213623046875 391.15673828125 L 449.91680908203125 391.1482238769531" stroke-width="0.6000000238418579" fill="rgb(140, 28, 33)" opacity="1.0"/>
    <path d="M 120.98828125 214.39736938476562 C 118.95266723632812 214.26779174804688 116.83309936523438 214.1553955078125 114.92860412597656 214.88983154296875 C 113.02413940429688 215.62423706054688 111.38224792480469 217.47360229492188 111.56163024902344 219.50653076171875 C 111.78866577148438 222.01544189453125 114.77841186523438 223.58465576171875 117.24063110351562 223.03076171875 C 119.70285034179688 222.47686767578125 121.56303405761719 220.41864013671875 122.76605224609375 218.20361328125 C 123.2071533203125 217.55526733398438 123.38917541503906 216.76513671875 123.27618408203125 215.98916625976562 C 123.08480834960938 215.24179077148438 122.11346435546875 214.67767333984375 121.50001525878906 215.15179443359375 L 120.98828125 214.39736938476562" stroke-width="0.6000000238418579" fill="rgb(159, 159, 159)" opacity="1.0"/>
    <path d="M 111.68453979492188 224.10064697265625 C 110.44955444335938 223.09539794921875 108.84326171875 222.49136352539062 107.26083374023438 222.66171264648438 C 105.67842102050781 222.83206176757812 104.16143798828125 223.851806640625 103.59576416015625 225.34664916992188 C 103.19715881347656 226.40402221679688 103.29446411132812 227.60833740234375 103.71052551269531 228.6600341796875 C 104.1265869140625 229.71170043945312 104.83908081054688 230.6240234375 105.64804077148438 231.41470336914062 C 106.00027465820312 231.75857543945312 106.3946533203125 232.09378051757812 106.87501525878906 232.19537353515625 C 107.42568969726562 232.3121337890625 107.98751831054688 232.10122680664062 108.50215148925781 231.868896484375 C 109.95504760742188 231.21304321289062 111.36276245117188 230.30953979492188 112.2032470703125 228.95480346679688 C 113.04371643066406 227.60006713867188 113.17875671386719 225.717041015625 112.1976318359375 224.4654541015625 L 111.68453979492188 224.10064697265625" stroke-width="0.6000000238418579" fill="rgb(159, 159, 159)" opacity="1.0"/>
    <path d="M 302.9880676269531 104.82405090332031 C 302.3106994628906 106.30447387695312 301.6219482421875 107.97938537597656 302.1734619140625 109.50775146484375 C 302.7077331542969 110.994873046875 304.2327880859375 111.84957885742188 305.6512451171875 112.54757690429688 C 306.2278747558594 112.83026123046875 306.8356628417969 113.1168212890625 307.47705078125 113.09317016601562 C 308.5619201660156 113.05377197265625 309.4133605957031 112.15609741210938 309.9881591796875 111.237060546875 C 310.5220031738281 110.38424682617188 310.9306335449219 109.45919799804688 311.2015380859375 108.49021911621094 C 311.6419677734375 106.91703796386719 311.6231384277344 105.01419067382812 310.4261779785156 103.90321350097656 C 309.7808837890625 103.302490234375 308.8782958984375 103.03169250488281 307.99609375 102.99371337890625 C 307.1139221191406 102.95574951171875 306.23724365234375 103.132568359375 305.3742370605469 103.31948852539062 C 304.5112609863281 103.50640869140625 303.6672668457031 103.70855712890625 302.9740295410156 104.22076416015625 L 302.9880676269531 104.82405090332031" stroke-width="0.6000000238418579" fill="rgb(218, 166, 20)" opacity="1.0"/>
    <path d="M 219.57000732421875 126.90061950683594 C 217.43206787109375 125.14883422851562 214.27883911132812 125.46188354492188 212.52706909179688 127.59982299804688 C 212.3770751953125 127.78288269042969 212.240234375 127.97636413574219 212.11761474609375 128.17880249023438 C 211.65179443359375 128.94810485839844 211.397705078125 129.88743591308594 211.61962890625 130.7584991455078 C 211.80709838867188 131.49464416503906 212.3079833984375 132.1084747314453 212.84869384765625 132.64129638671875 C 214.29803466796875 134.06552124023438 216.10226440429688 135.07571411132812 218.073974609375 135.56692504882812 C 218.59539794921875 135.69589233398438 219.14288330078125 135.78759765625 219.6685791015625 135.67196655273438 C 220.55126953125 135.47833251953125 221.22076416015625 134.72291564941406 221.58108520507812 133.89352416992188 C 222.11688232421875 132.66253662109375 222.08816528320312 131.22598266601562 221.63729858398438 129.96109008789062 C 221.18643188476562 128.6962127685547 220.33981323242188 127.59567260742188 219.3209228515625 126.72116088867188 L 219.57000732421875 126.90061950683594" stroke-width="0.6000000238418579" fill="rgb(143, 165, 67)" opacity="1.0"/>
    <path d="M 223.15072631835938 95.181884765625 C 221.96258544921875 98.22003173828125 225.31466674804688 101.8460693359375 228.47723388671875 101.136474609375 C 231.63980102539062 100.42686462402344 233.166748046875 95.98507690429688 231.2877197265625 93.31716918945312 C 229.40875244140625 90.64926147460938 225.01690673828125 90.42369079589844 222.6983642578125 92.72427368164062 L 223.15072631835938 95.181884765625" stroke-width="0.6000000238418579" fill="rgb(233, 92, 21)" opacity="1.0"/>
    <path d="M 203.36614990234375 95.98704528808594 C 202.74923706054688 94.52444458007812 201.860595703125 92.84129333496094 200.275634765625 92.68331909179688 C 199.6424560546875 92.64498901367188 199.01296997070312 92.80410766601562 198.47406005859375 93.13870239257812 C 197.11831665039062 93.93069458007812 196.23056030273438 95.33067321777344 196.09228515625 96.89468383789062 C 195.9783935546875 98.22171020507812 196.4332275390625 99.51348876953125 196.90167236328125 100.75155639648438 C 197.16595458984375 101.44660949707031 197.46890258789062 102.17666625976562 198.0699462890625 102.60751342773438 C 198.87579345703125 103.17521667480469 199.97467041015625 103.04354858398438 200.92434692382812 102.78034973144531 C 202.31463623046875 102.39691162109375 203.63372802734375 101.79096984863281 204.83041381835938 100.98602294921875 C 205.24334716796875 100.70710754394531 205.65679931640625 100.38754272460938 205.87249755859375 99.93850708007812 C 206.05169677734375 99.51077270507812 206.1025390625 99.04010009765625 206.01885986328125 98.58393859863281 C 205.81887817382812 97.19033813476562 205.01760864257812 95.95462036132812 203.82687377929688 95.20346069335938 L 203.36614990234375 95.98704528808594" stroke-width="0.6000000238418579" fill="rgb(70, 150, 179)" opacity="1.0"/>
    <path d="M 266.8296203613281 131.48085021972656 C 265.96002197265625 132.99732971191406 265.0597839355469 134.7147216796875 265.4873352050781 136.40859985351562 C 265.9477233886719 138.22792053222656 267.8526916503906 139.36526489257812 269.715087890625 139.59585571289062 C 270.4331359863281 139.68507385253906 271.19293212890625 139.66232299804688 271.836181640625 139.3311767578125 C 272.36505126953125 139.05914306640625 272.7724304199219 138.60279846191406 273.1411437988281 138.13633728027344 C 274.3056640625 136.66673278808594 275.2528076171875 134.85360717773438 275.0205078125 132.99339294433594 C 274.7850646972656 131.1187286376953 273.2386474609375 129.47779846191406 271.3776550292969 129.1421356201172 C 269.5166320800781 128.8064727783203 267.4875183105469 129.78321838378906 266.6020812988281 131.45558166503906 L 266.8296203613281 131.48085021972656" stroke-width="0.6000000238418579" fill="rgb(140, 28, 33)" opacity="1.0"/>
    <path d="M 316.52081298828125 117.599853515625 C 314.3117370605469 118.44993591308594 312.0224609375 119.35885620117188 310.37042236328125 121.05636596679688 C 308.7184143066406 122.75384521484375 307.8836975097656 125.4996337890625 309.0582580566406 127.55612182617188 C 310.5137939453125 130.09140014648438 314.4267272949219 130.2967071533203 316.7543029785156 128.51918029785156 C 319.0819091796875 126.74166870117188 320.0455017089844 123.66983032226562 320.240234375 120.75128173828125 C 320.39105224609375 119.85386657714844 320.199951171875 118.93255615234375 319.7046813964844 118.16915893554688 C 319.1406555175781 117.47392272949219 317.8430480957031 117.34999084472656 317.4260559082031 118.147216796875 L 316.52081298828125 117.599853515625" stroke-width="0.6000000238418579" fill="rgb(159, 159, 159)" opacity="1.0"/>
    <path d="M 198.81204223632812 131.00949096679688 C 197.584228515625 129.9839630126953 195.97833251953125 129.35675048828125 194.38653564453125 129.5077362060547 C 192.79476928710938 129.65870666503906 191.25790405273438 130.66380310058594 190.670654296875 132.15821838378906 C 190.25677490234375 133.21533203125 190.33920288085938 134.4263458251953 190.7437744140625 135.48809814453125 C 191.14834594726562 136.54986572265625 191.85244750976562 137.4753875732422 192.655029296875 138.2799530029297 C 193.00448608398438 138.6298828125 193.3963623046875 138.9716339111328 193.87762451171875 139.07981872558594 C 194.4293212890625 139.20408630371094 194.99639892578125 138.99937438964844 195.51629638671875 138.77256774902344 C 196.98416137695312 138.1322021484375 198.4097900390625 137.2425079345703 199.27130126953125 135.89231872558594 C 200.13284301757812 134.5421142578125 200.29248046875 132.6522674560547 199.32281494140625 131.3824920654297 L 198.81204223632812 131.00949096679688" stroke-width="0.6000000238418579" fill="rgb(159, 159, 159)" opacity="1.0"/>
    <path d="M 281.5759582519531 104.71243286132812 C 279.9233703613281 105.34963989257812 278.114013671875 106.1295166015625 277.38134765625 107.73828125 C 276.6666259765625 109.30178833007812 277.2037658691406 111.1263427734375 277.77703857421875 112.74789428710938 C 278.0108947753906 113.40628051757812 278.26605224609375 114.09130859375 278.7832336425781 114.56051635742188 C 279.657470703125 115.35458374023438 281.0025329589844 115.30323791503906 282.1485595703125 115.02497863769531 C 283.21234130859375 114.76712036132812 284.23358154296875 114.35781860351562 285.1810607910156 113.80966186523438 C 286.71978759765625 112.92013549804688 288.1517028808594 111.4249267578125 288.06475830078125 109.65036010742188 C 288.01922607421875 108.6922607421875 287.52264404296875 107.79534912109375 286.86492919921875 107.09515380859375 C 286.2072448730469 106.39494323730469 285.3905334472656 105.8660888671875 284.5768127441406 105.35549926757812 C 283.7630920410156 104.84490966796875 282.95257568359375 104.36062622070312 282.0236511230469 104.23223876953125 L 281.5759582519531 104.71243286132812" stroke-width="0.6000000238418579" fill="rgb(218, 166, 20)" opacity="1.0"/>
    <path d="M 242.07281494140625 121.65921020507812 C 240.72772216796875 124.25871276855469 241.74456787109375 127.45648193359375 244.34408569335938 128.80160522460938 C 244.56668090820312 128.9167938232422 244.79718017578125 129.0160369873047 245.0338134765625 129.09860229492188 C 245.93304443359375 129.41217041015625 246.96194458007812 129.4690704345703 247.8155517578125 129.04783630371094 C 248.5369873046875 128.69195556640625 249.0628662109375 128.0382537841797 249.49603271484375 127.361083984375 C 250.65313720703125 125.546875 251.30331420898438 123.4559326171875 251.37908935546875 121.30546569824219 C 251.39816284179688 120.73699951171875 251.3729248046875 120.14967346191406 251.13763427734375 119.6304931640625 C 250.74319458007812 118.75865173339844 249.8135986328125 118.23101806640625 248.875244140625 118.0399169921875 C 247.48236083984375 117.75523376464844 246.00048828125 118.10054016113281 244.7891845703125 118.84542846679688 C 243.577880859375 119.59030151367188 242.623779296875 120.70907592773438 241.941650390625 121.9566650390625 L 242.07281494140625 121.65921020507812" stroke-width="0.6000000238418579" fill="rgb(143, 165, 67)" opacity="1.0"/>
    <path d="M 249.53240966796875 93.20578002929688 C 248.6243896484375 96.38296508789062 252.35098266601562 99.71945190429688 255.472412109375 98.70184326171875 C 258.5938720703125 97.68424987792969 259.7095031738281 93.05923461914062 257.55987548828125 90.54830932617188 C 255.4102783203125 88.037353515625 250.95989990234375 88.22927856445312 248.841552734375 90.77066040039062 L 249.53240966796875 93.20578002929688" stroke-width="0.6000000238418579" fill="rgb(233, 92, 21)" opacity="1.0"/>
    <path d="M 338.47607421875 85.37260437011719 C 336.8233337402344 84.91879272460938 334.802001953125 84.548095703125 333.60919189453125 85.78695678710938 C 333.1536560058594 86.29843139648438 332.86810302734375 86.93865966796875 332.7918701171875 87.61930847167969 C 332.5579528808594 89.29835510253906 333.15234375 90.98663330078125 334.3865966796875 92.14874267578125 C 335.43609619140625 93.13186645507812 336.83563232421875 93.60906982421875 338.1987609863281 94.038818359375 C 338.9648742675781 94.27897644042969 339.7864685058594 94.50973510742188 340.553466796875 94.28775024414062 C 341.5733642578125 93.98345947265625 342.1957702636719 92.96342468261719 342.6069641113281 91.98208618164062 C 343.2105407714844 90.54666137695312 343.5777893066406 89.02299499511719 343.6944580078125 87.47019958496094 C 343.7337646484375 86.93360900878906 343.7388916015625 86.36941528320312 343.50213623046875 85.88650512695312 C 343.2590026855469 85.44874572753906 342.8937683105469 85.0911865234375 342.450927734375 84.857421875 C 341.13525390625 84.0960693359375 339.55181884765625 83.95018005371094 338.11920166015625 84.45834350585938 L 338.47607421875 85.37260437011719" stroke-width="0.6000000238418579" fill="rgb(70, 150, 179)" opacity="1.0"/>
    <path d="M 333.93438720703125 122.83648681640625 C 333.4150695800781 121.23837280273438 332.7723693847656 119.48880004882812 331.2896423339844 118.700439453125 C 329.69635009765625 117.8544921875 327.6568298339844 118.47782897949219 326.290771484375 119.65594482421875 C 325.7638854980469 120.10995483398438 325.2898254394531 120.66596984863281 325.1106872558594 121.33795166015625 C 324.9632568359375 121.89028930664062 325.0255126953125 122.4749755859375 325.11993408203125 123.03868103027344 C 325.4155578613281 124.81666564941406 326.09619140625 126.66142272949219 327.5714416503906 127.69624328613281 C 329.0589904785156 128.7381591796875 331.2259521484375 128.6952362060547 332.66595458984375 127.58590698242188 C 334.10595703125 126.47657775878906 334.7193603515625 124.400634765625 334.0992431640625 122.690673828125 L 333.93438720703125 122.83648681640625" stroke-width="0.6000000238418579" fill="rgb(140, 28, 33)" opacity="1.0"/>
    <path d="M 354.63616943359375 105.3768310546875 C 352.76556396484375 105.52520751953125 350.8207702636719 105.7001953125 349.1826171875 106.61817932128906 C 347.54449462890625 107.53614807128906 346.2913513183594 109.43505859375 346.720703125 111.26277160644531 C 347.2557373046875 113.51773071289062 350.18359375 114.55545043945312 352.3532409667969 113.7288818359375 C 354.52288818359375 112.90231323242188 355.94744873046875 110.78463745117188 356.7530822753906 108.6102294921875 C 357.0699157714844 107.96209716796875 357.1322937011719 107.21878051757812 356.9278564453125 106.52694702148438 C 356.6557922363281 105.87142944335938 355.69744873046875 105.48486328125 355.2008972167969 105.99685668945312 L 354.63616943359375 105.3768310546875" stroke-width="0.6000000238418579" fill="rgb(159, 159, 159)" opacity="1.0"/>
    <path d="M 350.4215393066406 123.05282592773438 C 348.80743408203125 123.49838256835938 347.3108215332031 124.50666809082031 346.4923095703125 125.96646118164062 C 345.6737976074219 127.42623901367188 345.6230163574219 129.34767150878906 346.55914306640625 130.74349975585938 C 347.2222595214844 131.72950744628906 348.31353759765625 132.38015747070312 349.4682922363281 132.6646270751953 C 350.6230773925781 132.9490966796875 351.8390808105469 132.89463806152344 353.0096740722656 132.68336486816406 C 353.5190124511719 132.59112548828125 354.046630859375 132.45750427246094 354.4264831542969 132.10780334472656 C 354.8621520996094 131.7070770263672 355.02386474609375 131.09710693359375 355.1384582519531 130.51454162597656 C 355.46197509765625 128.8698272705078 355.5457763671875 127.11286926269531 354.8971862792969 125.56697082519531 C 354.2485656738281 124.02105712890625 352.71734619140625 122.75765991210938 351.046875 122.83551025390625 L 350.4215393066406 123.05282592773438" stroke-width="0.6000000238418579" fill="rgb(159, 159, 159)" opacity="1.0"/>
    <path d="M 365.93359375 111.17921447753906 C 363.9433898925781 111.66790771484375 361.7523498535156 112.29731750488281 360.67529296875 114.03607177734375 C 359.6254577636719 115.72554016113281 359.9740295410156 117.89840698242188 360.3939208984375 119.84359741210938 C 360.5656433105469 120.633544921875 360.7579040527344 121.45721435546875 361.2825622558594 122.07162475585938 C 362.1693420410156 123.111328125 363.7205810546875 123.2498779296875 365.0766906738281 123.09877014160156 C 366.33544921875 122.95901489257812 367.5675964355469 122.63922119140625 368.7354431152344 122.14920043945312 C 370.63201904296875 121.354248046875 372.49493408203125 119.84843444824219 372.6556701660156 117.79904174804688 C 372.74407958984375 116.69276428222656 372.30584716796875 115.59049987792969 371.65380859375 114.69033813476562 C 371.0018005371094 113.7901611328125 370.1421203613281 113.06329345703125 369.2831726074219 112.35783386230469 C 368.42425537109375 111.65237426757812 367.5651550292969 110.97756958007812 366.5179138183594 110.69384765625 L 365.93359375 111.17921447753906" stroke-width="0.6000000238418579" fill="rgb(218, 166, 20)" opacity="1.0"/>
    <path d="M 433.6695556640625 156.90713500976562 C 430.360595703125 157.36642456054688 428.0504150390625 160.42120361328125 428.509765625 163.730224609375 C 428.549072265625 164.0135498046875 428.60845947265625 164.29376220703125 428.68743896484375 164.5687255859375 C 428.98773193359375 165.6134033203125 429.6126708984375 166.60977172851562 430.5677490234375 167.12774658203125 C 431.374755859375 167.56558227539062 432.33050537109375 167.62493896484375 433.2470703125 167.58245849609375 C 435.70025634765625 167.46533203125 438.077392578125 166.69351196289062 440.1314697265625 165.34710693359375 C 440.673828125 164.99032592773438 441.20452880859375 164.57977294921875 441.5333251953125 164.0184326171875 C 442.0859375 163.07632446289062 441.96514892578125 161.86227416992188 441.52496337890625 160.86187744140625 C 440.8724365234375 159.37615966796875 439.57421875 158.22265625 438.081787109375 157.5845947265625 C 436.5894775390625 156.946533203125 434.9180908203125 156.79452514648438 433.305908203125 156.98086547851562 L 433.6695556640625 156.90713500976562" stroke-width="0.6000000238418579" fill="rgb(143, 165, 67)" opacity="1.0"/>
    <path d="M 143.73085021972656 417.6640625 C 141.84756469726562 420.37506103515625 144.2947540283203 424.7315673828125 147.5741729736328 424.7762451171875 C 150.8535919189453 424.8209228515625 153.400146484375 420.80804443359375 152.1776580810547 417.74072265625 C 150.95516967773438 414.67333984375 146.68560791015625 413.41937255859375 143.8631134033203 415.138916015625 L 143.73085021972656 417.6640625" stroke-width="0.6000000238418579" fill="rgb(233, 92, 21)" opacity="1.0"/>
    <path d="M 437.14202880859375 184.53497314453125 C 435.25048828125 184.7169189453125 433.010009765625 185.13043212890625 432.26287841796875 186.8846435546875 C 431.99273681640625 187.5943603515625 431.949462890625 188.370361328125 432.1390380859375 189.10568237304688 C 432.5592041015625 190.93765258789062 433.8411865234375 192.45233154296875 435.57861328125 193.16943359375 C 437.053955078125 193.77392578125 438.6922607421875 193.71615600585938 440.274169921875 193.62356567382812 C 441.1627197265625 193.57009887695312 442.10504150390625 193.48501586914062 442.8121337890625 192.952392578125 C 443.748779296875 192.23468017578125 443.9912109375 190.93218994140625 444.030029296875 189.753173828125 C 444.0889892578125 188.02777099609375 443.8682861328125 186.30419921875 443.37652587890625 184.6492919921875 C 443.20550537109375 184.07781982421875 442.98822021484375 183.4912109375 442.5523681640625 183.08428955078125 C 442.127685546875 182.72665405273438 441.60821533203125 182.50030517578125 441.05712890625 182.43280029296875 C 439.3935546875 182.1630859375 437.69537353515625 182.63671875 436.4114990234375 183.728515625 L 437.14202880859375 184.53497314453125" stroke-width="0.6000000238418579" fill="rgb(70, 150, 179)" opacity="1.0"/>
    <path d="M 408.7696228027344 158.4014892578125 C 408.2792053222656 156.60479736328125 407.6601867675781 154.63389587402344 406.0603942871094 153.68267822265625 C 404.3412170410156 152.66189575195312 402.0503234863281 153.244140625 400.4756774902344 154.47618103027344 C 399.8683776855469 154.95094299316406 399.3141174316406 155.5414276123047 399.0802917480469 156.27587890625 C 398.8878479003906 156.87957763671875 398.92584228515625 157.53018188476562 399.0005798339844 158.15924072265625 C 399.23382568359375 160.14324951171875 399.8897705078125 162.2215576171875 401.4682922363281 163.4451904296875 C 403.06005859375 164.6773681640625 405.4613342285156 164.74444580078125 407.1142272949219 163.59246826171875 C 408.76708984375 162.44049072265625 409.55596923828125 160.1746826171875 408.9598388671875 158.248779296875 L 408.7696228027344 158.4014892578125" stroke-width="0.6000000238418579" fill="rgb(140, 28, 33)" opacity="1.0"/>
    <path d="M 144.3496551513672 117.81999206542969 C 142.79776000976562 118.62815856933594 141.19183349609375 119.4862060546875 140.11959838867188 120.8704833984375 C 139.04736328125 122.25474548339844 138.66265869140625 124.34101867675781 139.6964569091797 125.75384521484375 C 140.97647094726562 127.49497985839844 143.86767578125 127.32028198242188 145.42947387695312 125.821044921875 C 146.99127197265625 124.32180786132812 147.44354248046875 121.98532104492188 147.3437957763672 119.82539367675781 C 147.37991333007812 119.15367126464844 147.16293334960938 118.49285888671875 146.7356414794922 117.97331237792969 C 146.2635040283203 117.50958251953125 145.30007934570312 117.5264892578125 145.06011962890625 118.14675903320312 L 144.3496551513672 117.81999206542969" stroke-width="0.6000000238418579" fill="rgb(159, 159, 159)" opacity="1.0"/>
    <path d="M 417.54022216796875 177.8092041015625 C 416.0509033203125 176.52566528320312 414.08935546875 175.72442626953125 412.13043212890625 175.8797607421875 C 410.1715087890625 176.03509521484375 408.2638854980469 177.24102783203125 407.51385498046875 179.06631469726562 C 406.9851989746094 180.35748291015625 407.0635070800781 181.84722900390625 407.54052734375 183.15963745117188 C 408.01751708984375 184.4720458984375 408.8652038574219 185.62274169921875 409.836181640625 186.62667846679688 C 410.2590026855469 187.06332397460938 410.7341003417969 187.49072265625 411.32342529296875 187.63278198242188 C 411.9990234375 187.79595947265625 412.69970703125 187.55517578125 413.34295654296875 187.28631591796875 C 415.15887451171875 186.52728271484375 416.9276123046875 185.46099853515625 418.011962890625 183.81817626953125 C 419.09625244140625 182.17532348632812 419.3282470703125 179.85601806640625 418.16082763671875 178.2772216796875 L 417.54022216796875 177.8092041015625" stroke-width="0.6000000238418579" fill="rgb(159, 159, 159)" opacity="1.0"/>
    <path d="M 405.3942565917969 185.84716796875 C 404.66522216796875 184.28067016601562 403.7870178222656 182.57098388671875 402.1730041503906 181.96383666992188 C 400.6041564941406 181.37115478515625 398.86370849609375 182.01409912109375 397.3232116699219 182.67886352539062 C 396.69781494140625 182.9498291015625 396.0478820800781 183.2432861328125 395.625244140625 183.77752685546875 C 394.90997314453125 184.68072509765625 395.04852294921875 185.98651123046875 395.3948059082031 187.08355712890625 C 395.7158508300781 188.10198974609375 396.18145751953125 189.06903076171875 396.7773742675781 189.955078125 C 397.7444763183594 191.39410400390625 399.2940368652344 192.6893310546875 401.0155029296875 192.48785400390625 C 401.94500732421875 192.38043212890625 402.7852783203125 191.83804321289062 403.4234619140625 191.15179443359375 C 404.0616455078125 190.465576171875 404.5225830078125 189.63583374023438 404.9659729003906 188.81021118164062 C 405.4093322753906 187.984619140625 405.8273010253906 187.16387939453125 405.89111328125 186.25128173828125 L 405.3942565917969 185.84716796875" stroke-width="0.6000000238418579" fill="rgb(218, 166, 20)" opacity="1.0"/>
    <path d="M 449.1549072265625 179.91021728515625 C 448.0308837890625 182.4989013671875 449.21826171875 185.50860595703125 451.806884765625 186.63262939453125 C 452.028564453125 186.7288818359375 452.2568359375 186.80926513671875 452.4898681640625 186.87322998046875 C 453.37542724609375 187.1160888671875 454.368896484375 187.103515625 455.16259765625 186.64251708984375 C 455.833251953125 186.25296020507812 456.29638671875 185.5897216796875 456.66888427734375 184.90997314453125 C 457.663330078125 183.08905029296875 458.152099609375 181.0350341796875 458.0843505859375 178.96136474609375 C 458.0655517578125 178.41326904296875 458.0028076171875 177.84991455078125 457.7425537109375 177.3658447265625 C 457.30609130859375 176.55294799804688 456.3773193359375 176.10614013671875 455.462158203125 175.98367309570312 C 454.103515625 175.8009033203125 452.7005615234375 176.22998046875 451.58404541015625 177.0257568359375 C 450.467529296875 177.821533203125 449.622802734375 178.96017456054688 449.0482177734375 180.2049560546875 L 449.1549072265625 179.91021728515625" stroke-width="0.6000000238418579" fill="rgb(143, 165, 67)" opacity="1.0"/>
    <path d="M 146.0688934326172 108.13645935058594 C 142.42860412597656 110.20809936523438 142.8437957763672 116.53472900390625 146.5729217529297 118.38188171386719 C 150.3020477294922 120.22900390625 155.41448974609375 117.03047180175781 155.695068359375 112.85012817382812 C 155.97564697265625 108.66976928710938 151.77548217773438 104.896240234375 147.60317993164062 105.31863403320312 L 146.0688934326172 108.13645935058594" stroke-width="0.6000000238418579" fill="rgb(233, 92, 21)" opacity="1.0"/>
    <path d="M 450.7666015625 151.70574951171875 C 449.597900390625 153.46536254882812 448.38446044921875 155.68844604492188 449.37457275390625 157.5625 C 449.797607421875 158.29296875 450.4368896484375 158.87417602539062 451.2042236328125 159.22589111328125 C 453.07940673828125 160.14727783203125 455.284912109375 160.10260009765625 457.1212158203125 159.1060791015625 C 458.6767578125 158.2567138671875 459.775146484375 156.80252075195312 460.80389404296875 155.37266540527344 C 461.3804931640625 154.56851196289062 461.96746826171875 153.69578552246094 462.00341796875 152.7123565673828 C 462.04058837890625 151.40115356445312 461.08660888671875 150.27919006347656 460.09649658203125 149.41940307617188 C 458.6490478515625 148.15928649902344 457.00714111328125 147.1417694091797 455.2344970703125 146.40631103515625 C 454.62158203125 146.15338134765625 453.963134765625 145.92977905273438 453.3065185546875 146.02069091796875 C 452.7003173828125 146.1364288330078 452.14093017578125 146.4260711669922 451.696533203125 146.85426330566406 C 450.2978515625 148.10069274902344 449.5164794921875 149.89793395996094 449.5587158203125 151.77088928222656 L 450.7666015625 151.70574951171875" stroke-width="0.6000000238418579" fill="rgb(70, 150, 179)" opacity="1.0"/>
    <path d="M 375.98614501953125 80.10833740234375 C 375.798828125 77.866455078125 375.4970397949219 75.38937377929688 373.80609130859375 73.90771484375 C 371.9886474609375 72.31718444824219 369.13958740234375 72.5048828125 366.99835205078125 73.62191772460938 C 366.172607421875 74.05224609375 365.3844299316406 74.63169860839844 364.9451904296875 75.45262145996094 C 364.58380126953125 76.1273193359375 364.4858703613281 76.908447265625 364.436279296875 77.67202758789062 C 364.2769775390625 80.079833984375 364.5989990234375 82.69259643554688 366.2047424316406 84.49314880371094 C 367.8243713378906 86.30671691894531 370.6617126464844 86.91450500488281 372.8782653808594 85.90977478027344 C 375.0948181152344 84.90504455566406 376.5301208496094 82.38734436035156 376.2456359863281 79.96878051757812 L 375.98614501953125 80.10833740234375" stroke-width="0.6000000238418579" fill="rgb(140, 28, 33)" opacity="1.0"/>
    <path d="M 129.65721130371094 411.7278137207031 C 127.18733215332031 413.298583984375 124.63461303710938 414.9603271484375 123.0472412109375 417.422119140625 C 121.45989990234375 419.8837890625 121.11965942382812 423.4163818359375 123.04644775390625 425.6219482421875 C 125.430908203125 428.339111328125 130.2243194580078 427.6309814453125 132.61102294921875 424.906982421875 C 134.9977264404297 422.1829833984375 135.41444396972656 418.2236328125 134.93666076660156 414.63818359375 C 134.89996337890625 413.51348876953125 134.4429931640625 412.44342041015625 133.65591430664062 411.63916015625 C 132.80213928222656 410.93438720703125 131.19888305664062 411.1015319824219 130.888427734375 412.169921875 L 129.65721130371094 411.7278137207031" stroke-width="0.6000000238418579" fill="rgb(159, 159, 159)" opacity="1.0"/>
    <path d="M 410.0846252441406 205.91915893554688 C 408.95855712890625 203.9757080078125 407.1421203613281 202.37579345703125 404.96990966796875 201.80905151367188 C 402.7976989746094 201.24234008789062 400.2869567871094 201.82861328125 398.7933349609375 203.5172119140625 C 397.73883056640625 204.71243286132812 397.2648620605469 206.34942626953125 397.28765869140625 207.94454956054688 C 397.3104248046875 209.5396728515625 397.7938537597656 211.0992431640625 398.4653625488281 212.546630859375 C 398.7579345703125 213.17633056640625 399.11041259765625 213.81564331054688 399.69317626953125 214.18988037109375 C 400.3610534667969 214.6192626953125 401.20751953125 214.6220703125 402.00244140625 214.57305908203125 C 404.2466125488281 214.43463134765625 406.5550842285156 213.947021484375 408.3410949707031 212.58062744140625 C 410.1271057128906 211.2142333984375 411.2469177246094 208.79827880859375 410.5788879394531 206.65692138671875 L 410.0846252441406 205.91915893554688" stroke-width="0.6000000238418579" fill="rgb(159, 159, 159)" opacity="1.0"/>
    <path d="M 386.89593505859375 119.63082885742188 C 384.8279724121094 120.5225830078125 382.56793212890625 121.6033935546875 381.717041015625 123.68376159667969 C 380.88671875 125.70576477050781 381.65985107421875 127.99720764160156 382.4688415527344 130.02890014648438 C 382.7987060546875 130.85377502441406 383.1569519042969 131.71144104003906 383.83734130859375 132.2818603515625 C 384.9875793457031 133.24728393554688 386.6939392089844 133.1151580810547 388.1361389160156 132.70465087890625 C 389.4748840332031 132.32412719726562 390.7520751953125 131.75335693359375 391.9285888671875 131.00979614257812 C 393.8393249511719 129.8031463623047 395.58428955078125 127.83224487304688 395.3855895996094 125.58193969726562 C 395.28009033203125 124.36692810058594 394.6045837402344 123.2520751953125 393.734130859375 122.39515686035156 C 392.86370849609375 121.53823852539062 391.7997741699219 120.90692138671875 390.74053955078125 120.29867553710938 C 389.6813049316406 119.69039916992188 388.6274719238281 119.11541748046875 387.44085693359375 118.99847412109375 L 386.89593505859375 119.63082885742188" stroke-width="0.6000000238418579" fill="rgb(218, 166, 20)" opacity="1.0"/>
    <path d="M 401.8060302734375 82.4393310546875 C 399.2496032714844 79.98942565917969 395.191162109375 80.07579040527344 392.74127197265625 82.63221740722656 C 392.531494140625 82.85111999511719 392.3374938964844 83.08464050292969 392.1607666015625 83.33099365234375 C 391.4893493652344 84.26724243164062 391.07147216796875 85.44171142578125 391.268310546875 86.5762939453125 C 391.4345703125 87.53512573242188 392.0132751464844 88.368896484375 392.6509094238281 89.10317993164062 C 394.36041259765625 91.0662841796875 396.5643615722656 92.53585815429688 399.0338134765625 93.35922241210938 C 399.68695068359375 93.57577514648438 400.3771057128906 93.74732971191406 401.0600280761719 93.65188598632812 C 402.20660400390625 93.49234008789062 403.13677978515625 92.59405517578125 403.679443359375 91.57058715820312 C 404.48614501953125 90.0516357421875 404.5922546386719 88.21400451660156 404.14215087890625 86.55366516113281 C 403.6920471191406 84.89334106445312 402.7201232910156 83.403564453125 401.5057373046875 82.18536376953125 L 401.8060302734375 82.4393310546875" stroke-width="0.6000000238418579" fill="rgb(143, 165, 67)" opacity="1.0"/>
    <path d="M 116.7847900390625 423.4139404296875 C 114.52667236328125 419.79571533203125 108.10684204101562 420.4794921875 106.38148498535156 424.34991455078125 C 104.65615844726562 428.2203369140625 108.12164306640625 433.2899169921875 112.38648986816406 433.4027099609375 C 116.65133666992188 433.5155029296875 120.31723022460938 429.08624267578125 119.71514892578125 424.858642578125 L 116.7847900390625 423.4139404296875" stroke-width="0.6000000238418579" fill="rgb(233, 92, 21)" opacity="1.0"/>
    <path d="M 445.7041015625 196.07733154296875 C 444.5565185546875 197.871337890625 443.371826171875 200.13336181640625 444.40228271484375 202.00534057617188 C 444.84136962890625 202.734375 445.495849609375 203.30917358398438 446.2755126953125 203.65045166015625 C 448.18170166015625 204.54678344726562 450.4041748046875 204.46356201171875 452.238037109375 203.42718505859375 C 453.7913818359375 202.5440673828125 454.8734130859375 201.05917358398438 455.88568115234375 199.5999755859375 C 456.4530029296875 198.77938842773438 457.02960205078125 197.88946533203125 457.048828125 196.89752197265625 C 457.0635986328125 195.57513427734375 456.08251953125 194.46063232421875 455.06951904296875 193.611083984375 C 453.588623046875 192.36587524414062 451.9158935546875 191.36859130859375 450.1162109375 190.65789794921875 C 449.4940185546875 190.41357421875 448.826416015625 190.19955444335938 448.16607666015625 190.30255126953125 C 447.5570068359375 190.42974853515625 446.99810791015625 190.73138427734375 446.5574951171875 191.17071533203125 C 445.169189453125 192.45138549804688 444.41259765625 194.276611328125 444.4876708984375 196.1639404296875 L 445.7041015625 196.07733154296875" stroke-width="0.6000000238418579" fill="rgb(70, 150, 179)" opacity="1.0"/>
    <path d="M 412.689453125 134.61981201171875 C 412.23675537109375 132.32662963867188 411.63873291015625 129.8038330078125 409.721435546875 128.46949768066406 C 407.66094970703125 127.037353515625 404.7408752441406 127.56060791015625 402.65911865234375 128.9615936279297 C 401.85626220703125 129.5014190673828 401.10943603515625 130.19085693359375 400.75079345703125 131.0892791748047 C 400.4556884765625 131.82772827148438 400.44488525390625 132.6455841064453 400.4819641113281 133.4397735595703 C 400.5959167480469 135.94435119628906 401.23052978515625 138.6049041748047 403.09674072265625 140.2783660888672 C 404.978759765625 141.9636688232422 407.9787292480469 142.26315307617188 410.1512451171875 140.96942138671875 C 412.32373046875 139.67568969726562 413.5146484375 136.91009521484375 412.94122314453125 134.44570922851562 L 412.689453125 134.61981201171875" stroke-width="0.6000000238418579" fill="rgb(140, 28, 33)" opacity="1.0"/>
    <path d="M 400.9384765625 74.8135986328125 C 401.8143005371094 77.6219482421875 402.756591796875 80.5345458984375 404.7283630371094 82.72052001953125 C 406.70013427734375 84.90646362304688 410.0379943847656 86.16348266601562 412.683349609375 84.87294006347656 C 415.9451904296875 83.27261352539062 416.515869140625 78.4364013671875 414.49945068359375 75.40614318847656 C 412.4830322265625 72.37588500976562 408.7511901855469 70.93266296386719 405.1473693847656 70.45535278320312 C 404.04656982421875 70.19583129882812 402.8885192871094 70.3583984375 401.9017333984375 70.91094970703125 C 400.99395751953125 71.55430603027344 400.73541259765625 73.15357971191406 401.6904602050781 73.73512268066406 L 400.9384765625 74.8135986328125" stroke-width="0.6000000238418579" fill="rgb(159, 159, 159)" opacity="1.0"/>
    <path d="M 441.55718994140625 234.86495971679688 C 440.21038818359375 236.6973876953125 439.4620361328125 239.03118896484375 439.816650390625 241.27633666992188 C 440.171142578125 243.521484375 441.732666015625 245.6134033203125 443.90478515625 246.31488037109375 C 445.44110107421875 246.80886840820312 447.152099609375 246.58514404296875 448.622802734375 245.91754150390625 C 450.0936279296875 245.24993896484375 451.3447265625 244.1693115234375 452.41546630859375 242.959716796875 C 452.881103515625 242.43301391601562 453.33148193359375 241.84686279296875 453.4425048828125 241.15447998046875 C 453.5701904296875 240.36077880859375 453.22979736328125 239.57427978515625 452.8621826171875 238.85659790039062 C 451.82421875 236.8304443359375 450.4361572265625 234.88619995117188 448.444580078125 233.78286743164062 C 446.452880859375 232.67953491210938 443.7574462890625 232.61968994140625 442.0413818359375 234.10736083984375 L 441.55718994140625 234.86495971679688" stroke-width="0.6000000238418579" fill="rgb(159, 159, 159)" opacity="1.0"/>
    <path d="M 409.0050964355469 260.48828125 C 407.65972900390625 258.5888671875 406.0820007324219 256.535888671875 403.79608154296875 256.1220703125 C 401.5735778808594 255.71649169921875 399.42279052734375 256.9898986816406 397.54229736328125 258.2438049316406 C 396.7791442871094 258.75433349609375 395.9888916015625 259.3005676269531 395.5581970214844 260.11090087890625 C 394.8289794921875 261.4809875488281 395.3287353515625 263.17779541015625 396.05328369140625 264.5478210449219 C 396.72528076171875 265.8196716308594 397.576416015625 266.9884338378906 398.5806579589844 268.0183410644531 C 400.2106628417969 269.69122314453125 402.5777587890625 271.0324401855469 404.81024169921875 270.3486328125 C 406.0160217285156 269.9812316894531 406.9981994628906 269.0590515136719 407.6777648925781 267.9951171875 C 408.3573303222656 266.9311828613281 408.76727294921875 265.72003173828125 409.1549377441406 264.5185852050781 C 409.5426025390625 263.317138671875 409.89776611328125 262.1282958984375 409.7613525390625 260.90350341796875 L 409.0050964355469 260.48828125" stroke-width="0.6000000238418579" fill="rgb(218, 166, 20)" opacity="1.0"/>
    <path d="M 415.36572265625 86.20297241210938 C 413.8533935546875 89.44326782226562 415.254150390625 93.2960205078125 418.4945068359375 94.808349609375 C 418.77197265625 94.9378662109375 419.0582275390625 95.04751586914062 419.3511962890625 95.13650512695312 C 420.464599609375 95.47441101074219 421.723388671875 95.4925537109375 422.744384765625 94.935791015625 C 423.60723876953125 94.46536254882812 424.216552734375 93.64117431640625 424.7115478515625 92.79296875 C 426.03350830078125 90.52064514160156 426.722900390625 87.93582153320312 426.7081298828125 85.30697631835938 C 426.703125 84.61212158203125 426.6429443359375 83.89642333984375 426.32989501953125 83.27439880371094 C 425.804931640625 82.22982788085938 424.643798828125 81.63211059570312 423.4888916015625 81.44564819335938 C 421.77435302734375 81.1676025390625 419.982666015625 81.66302490234375 418.541259765625 82.63272094726562 C 417.0997314453125 83.6024169921875 415.9908447265625 85.01568603515625 415.22039794921875 86.57260131835938 L 415.36572265625 86.20297241210938" stroke-width="0.6000000238418579" fill="rgb(143, 165, 67)" opacity="1.0"/>
    <path d="M 441.651611328125 129.35643005371094 C 439.61376953125 132.9918212890625 443.21771240234375 138.16969299316406 447.3443603515625 137.82801818847656 C 451.470947265625 137.486328125 454.184326171875 132.13438415527344 452.27587890625 128.42800903320312 C 450.36749267578125 124.72164916992188 444.849853515625 123.66375732421875 441.511474609375 126.16706848144531 L 441.651611328125 129.35643005371094" stroke-width="0.6000000238418579" fill="rgb(233, 92, 21)" opacity="1.0"/>
    <path d="M 445.4892578125 95.51693725585938 C 444.694580078125 97.45660400390625 443.946533203125 99.85598754882812 445.274658203125 101.48684692382812 C 445.8284912109375 102.11529541015625 446.563720703125 102.556396484375 447.3787841796875 102.74929809570312 C 449.3828125 103.28086853027344 451.5201416015625 102.80813598632812 453.113037109375 101.48098754882812 C 454.46142578125 100.35176086425781 455.2470703125 98.72296142578125 455.9698486328125 97.13139343261719 C 456.3743896484375 96.2366943359375 456.775634765625 95.27322387695312 456.6192626953125 94.30929565429688 C 456.40020751953125 93.02618408203125 455.2535400390625 92.1201171875 454.12274169921875 91.47622680664062 C 452.468994140625 90.53179931640625 450.67333984375 89.86126708984375 448.8052978515625 89.49066162109375 C 448.15966796875 89.36384582519531 447.47540283203125 89.27442932128906 446.854248046875 89.49067687988281 C 446.286865234375 89.72129821777344 445.7989501953125 90.11199951171875 445.4498291015625 90.61517333984375 C 444.33148193359375 92.10025024414062 443.9208984375 94.00115966796875 444.32666015625 95.81541442871094 L 445.4892578125 95.51693725585938" stroke-width="0.6000000238418579" fill="rgb(70, 150, 179)" opacity="1.0"/>
    <path d="M 320.0956726074219 380.3584289550781 C 317.8504333496094 380.8199157714844 315.3811340332031 381.42572021484375 314.08740234375 383.31610107421875 C 312.6988220214844 385.3476257324219 313.2343444824219 388.2070617675781 314.6241455078125 390.2377014160156 C 315.15966796875 391.0208435058594 315.84149169921875 391.7478942871094 316.7252502441406 392.0926818847656 C 317.4516296386719 392.37640380859375 318.25372314453125 392.3807067871094 319.0322265625 392.3382568359375 C 321.48736572265625 392.2073059082031 324.0914611816406 391.5645446777344 325.7181701660156 389.7216796875 C 327.3563232421875 387.86322021484375 327.6269836425781 384.9190979003906 326.3416442871094 382.79864501953125 C 325.05633544921875 380.6781921386719 322.335205078125 379.5316467285156 319.9230041503906 380.11285400390625 L 320.0956726074219 380.3584289550781" stroke-width="0.6000000238418579" fill="rgb(140, 28, 33)" opacity="1.0"/>
    <path d="M 305.5516662597656 397.4324951171875 C 302.3211669921875 398.4219665527344 298.9705810546875 399.4871826171875 296.448486328125 401.739013671875 C 293.9264221191406 403.9908142089844 292.4632873535156 407.8170166015625 293.9300231933594 410.8627014160156 C 295.7489318847656 414.61822509765625 301.2999572753906 415.3018798828125 304.7919921875 413.0037841796875 C 308.28399658203125 410.70556640625 309.9632873535156 406.4280090332031 310.5325012207031 402.29180908203125 C 310.83697509765625 401.029052734375 310.6570739746094 399.6981201171875 310.0281982421875 398.56158447265625 C 309.29461669921875 397.5152282714844 307.4593811035156 397.208984375 306.785888671875 398.30242919921875 L 305.5516662597656 397.4324951171875" stroke-width="0.6000000238418579" fill="rgb(159, 159, 159)" opacity="1.0"/>
    <path d="M 325.09442138671875 410.21063232421875 C 322.6268005371094 411.5396728515625 320.560791015625 413.7431640625 319.7696533203125 416.430419921875 C 318.978515625 419.11767578125 319.6123352050781 422.27191162109375 321.66046142578125 424.20037841796875 C 323.1102600097656 425.56201171875 325.13360595703125 426.2166748046875 327.12396240234375 426.2501220703125 C 329.1143798828125 426.2835693359375 331.0782470703125 425.7412109375 332.9095458984375 424.9598388671875 C 333.7062683105469 424.61932373046875 334.5173645019531 424.2044677734375 335.0067443847656 423.4921875 C 335.56817626953125 422.67584228515625 335.6045227050781 421.6202392578125 335.5742492675781 420.62689208984375 C 335.48870849609375 417.822509765625 334.9701232910156 414.92431640625 333.335205078125 412.64373779296875 C 331.7002868652344 410.3631286621094 328.7304992675781 408.8726806640625 326.03375244140625 409.622802734375 L 325.09442138671875 410.21063232421875" stroke-width="0.6000000238418579" fill="rgb(159, 159, 159)" opacity="1.0"/>
    <path d="M 274.6522521972656 413.51763916015625 C 272.6614990234375 415.4560546875 270.53265380859375 417.69683837890625 270.468017578125 420.46923828125 C 270.4013671875 423.165283203125 272.3014221191406 425.4658203125 274.12841796875 427.451171875 C 274.871826171875 428.25665283203125 275.662353515625 429.08740234375 276.6977233886719 429.4451904296875 C 278.448486328125 430.05145263671875 280.3569641113281 429.1478271484375 281.8384094238281 428.0396728515625 C 283.21380615234375 427.0115966796875 284.4344787597656 425.7913818359375 285.4630432128906 424.41632080078125 C 287.1339416503906 422.18426513671875 288.2772216796875 419.1444091796875 287.0573425292969 416.6383056640625 C 286.4007568359375 415.284423828125 285.13128662109375 414.2969970703125 283.7507629394531 413.692626953125 C 282.3702392578125 413.0882568359375 280.86602783203125 412.8291015625 279.37738037109375 412.594482421875 C 277.88873291015625 412.35986328125 276.42095947265625 412.1611328125 275.0018615722656 412.54888916015625 L 274.6522521972656 413.51763916015625" stroke-width="0.6000000238418579" fill="rgb(218, 166, 20)" opacity="1.0"/>
    <path d="M 223.0345458984375 412.94049072265625 C 218.63519287109375 411.49945068359375 213.90066528320312 413.8975830078125 212.45962524414062 418.29693603515625 C 212.33624267578125 418.67364501953125 212.23971557617188 419.05859375 212.1707763671875 419.448974609375 C 211.90921020507812 420.932373046875 212.08120727539062 422.5531005859375 212.9552001953125 423.779052734375 C 213.69369506835938 424.8150634765625 214.8475341796875 425.4703369140625 216.01455688476562 425.9749755859375 C 219.14019775390625 427.32147216796875 222.56939697265625 427.8065185546875 225.94589233398438 427.379638671875 C 226.83819580078125 427.265380859375 227.74871826171875 427.0770263671875 228.4996337890625 426.578125 C 229.7607421875 425.7413330078125 230.34884643554688 424.15625 230.4093017578125 422.64288330078125 C 230.50067138671875 420.3961181640625 229.5859375 418.17022705078125 228.115966796875 416.46795654296875 C 226.64599609375 414.7657470703125 224.65753173828125 413.55975341796875 222.53689575195312 412.81103515625 L 223.0345458984375 412.94049072265625" stroke-width="0.6000000238418579" fill="rgb(143, 165, 67)" opacity="1.0"/>
    <path d="M 283.71337890625 368.1619873046875 C 284.11334228515625 373.4517822265625 291.5814514160156 376.4033508300781 295.71612548828125 373.1344909667969 C 299.85076904296875 369.8656311035156 298.95806884765625 362.2799987792969 294.3240661621094 359.6944274902344 C 289.6900634765625 357.1088562011719 283.09478759765625 359.87353515625 281.3183898925781 364.8791198730469 L 283.71337890625 368.1619873046875" stroke-width="0.6000000238418579" fill="rgb(233, 92, 21)" opacity="1.0"/>
    <path d="M 333.0841979980469 363.702880859375 C 332.86981201171875 366.3532409667969 332.88861083984375 369.5413818359375 335.12152099609375 371.0018005371094 C 336.0327453613281 371.54840087890625 337.09112548828125 371.7987976074219 338.1506652832031 371.7183837890625 C 340.777587890625 371.5899658203125 343.1793212890625 370.1962890625 344.59423828125 367.979248046875 C 345.7896728515625 366.09552001953125 346.11285400390625 363.82440185546875 346.3741760253906 361.6224670410156 C 346.51898193359375 360.38531494140625 346.6334228515625 359.0662841796875 346.0735168457031 357.9613037109375 C 345.31512451171875 356.4945373535156 343.5804748535156 355.8404235839844 341.9658508300781 355.4971008300781 C 339.603515625 354.99169921875 337.1749267578125 354.8719787597656 334.7742919921875 355.1426086425781 C 333.9450378417969 355.23773193359375 333.08355712890625 355.3928527832031 332.41583251953125 355.89324951171875 C 331.81878662109375 356.3902587890625 331.3792419433594 357.05029296875 331.15081787109375 357.7928161621094 C 330.37030029296875 360.0181884765625 330.60528564453125 362.47393798828125 331.7936706542969 364.51092529296875 L 333.0841979980469 363.702880859375" stroke-width="0.6000000238418579" fill="rgb(70, 150, 179)" opacity="1.0"/>
    <path d="M 294.0957336425781 413.2303466796875 C 291.2298278808594 413.347900390625 288.0581359863281 413.5985107421875 286.0794372558594 415.6724853515625 C 283.9552001953125 417.9017333984375 284.0404052734375 421.5411376953125 285.3476867675781 424.3289794921875 C 285.85125732421875 425.40411376953125 286.54681396484375 426.439453125 287.5688171386719 427.0433349609375 C 288.40875244140625 427.5400390625 289.3984680175781 427.70703125 290.3684997558594 427.8114013671875 C 293.4270324707031 428.1444091796875 296.77264404296875 427.87530517578125 299.1529846191406 425.9271240234375 C 301.5506591796875 423.9619140625 302.4781188964844 420.38037109375 301.3179626464844 417.50262451171875 C 300.1578369140625 414.6248779296875 297.0281982421875 412.6605224609375 293.9319763183594 412.89227294921875 L 294.0957336425781 413.2303466796875" stroke-width="0.6000000238418579" fill="rgb(140, 28, 33)" opacity="1.0"/>
    <path d="M 334.9857482910156 388.5306701660156 C 331.62237548828125 388.9095153808594 328.1268005371094 389.3407897949219 325.2283020019531 391.0931701660156 C 322.329833984375 392.8455810546875 320.1838073730469 396.3434143066406 321.066650390625 399.6127624511719 C 322.1654357910156 403.64599609375 327.5053405761719 405.34246826171875 331.3674621582031 403.7231750488281 C 335.22955322265625 402.1039123535156 337.6716003417969 398.20147705078125 338.9945068359375 394.2336120605469 C 339.527099609375 393.0463562011719 339.5952453613281 391.70263671875 339.185546875 390.4676208496094 C 338.65606689453125 389.3020935058594 336.9053955078125 388.6622314453125 336.04071044921875 389.6147766113281 L 334.9857482910156 388.5306701660156" stroke-width="0.6000000238418579" fill="rgb(159, 159, 159)" opacity="1.0"/>
    <path d="M 344.73272705078125 408.5377197265625 C 341.93035888671875 408.46875 339.0433349609375 409.3583984375 337.0238342285156 411.3004150390625 C 335.00433349609375 413.242431640625 333.99102783203125 416.29644775390625 334.8139953613281 418.98699951171875 C 335.3982238769531 420.88848876953125 336.8311767578125 422.4603271484375 338.5434875488281 423.4761962890625 C 340.2557678222656 424.4920654296875 342.2305603027344 424.99456787109375 344.2086486816406 425.22381591796875 C 345.06951904296875 425.32305908203125 345.9797058105469 425.3648681640625 346.7579345703125 424.98876953125 C 347.6503601074219 424.5579833984375 348.2052917480469 423.65911865234375 348.6714782714844 422.78125 C 349.9875793457031 420.3028564453125 350.9739685058594 417.52838134765625 350.6845397949219 414.73681640625 C 350.3951110839844 411.9452819824219 348.554443359375 409.17828369140625 345.840087890625 408.4927978515625 L 344.73272705078125 408.5377197265625" stroke-width="0.6000000238418579" fill="rgb(159, 159, 159)" opacity="1.0"/>
    <path d="M 256.928955078125 370.9284973144531 C 256.97308349609375 368.2132873535156 256.90447998046875 365.19329833984375 255.03897094726562 363.2272644042969 C 253.2274169921875 361.312744140625 250.3253173828125 361.02752685546875 247.69100952148438 360.910400390625 C 246.62078857421875 360.8643798828125 245.50042724609375 360.83331298828125 244.5362548828125 361.2987365722656 C 242.90512084960938 362.0849609375 242.20501708984375 364.02630615234375 241.94186401367188 365.8151550292969 C 241.69696044921875 367.4754333496094 241.69174194335938 369.1622619628906 241.92633056640625 370.8240051269531 C 242.3062744140625 373.5223693847656 243.60855102539062 376.41705322265625 246.18084716796875 377.3133850097656 C 247.56884765625 377.7993469238281 249.12908935546875 377.6090087890625 250.50234985351562 377.0766296386719 C 251.8756103515625 376.54425048828125 253.09674072265625 375.6873474121094 254.2901611328125 374.82421875 C 255.48358154296875 373.9610595703125 256.63775634765625 373.08740234375 257.3541564941406 371.8408203125 L 256.928955078125 370.9284973144531" stroke-width="0.6000000238418579" fill="rgb(218, 166, 20)" opacity="1.0"/>
    <path d="M 254.50616455078125 392.240966796875 C 251.8236083984375 388.6224365234375 246.71551513671875 387.8636779785156 243.09698486328125 390.5462646484375 C 242.787109375 390.7759704589844 242.49395751953125 391.0273742675781 242.21966552734375 391.2985534667969 C 241.17767333984375 392.3292541503906 240.40267944335938 393.7128601074219 240.40716552734375 395.1777648925781 C 240.41079711914062 396.4157409667969 240.95840454101562 397.58502197265625 241.6011962890625 398.6420593261719 C 243.32562255859375 401.46917724609375 245.775634765625 403.78302001953125 248.69662475585938 405.34320068359375 C 249.46942138671875 405.7542724609375 250.29830932617188 406.11688232421875 251.17510986328125 406.1430969238281 C 252.6470947265625 406.1879577636719 254.00555419921875 405.2601623535156 254.90478515625 404.0925598144531 C 256.240966796875 402.3600158691406 256.7666015625 400.0781555175781 256.5568542480469 397.8997802734375 C 256.34710693359375 395.721435546875 255.446533203125 393.6455078125 254.183837890625 391.8583068847656 L 254.50616455078125 392.240966796875" stroke-width="0.6000000238418579" fill="rgb(143, 165, 67)" opacity="1.0"/>
    <path d="M 204.42880249023438 372.40606689453125 C 202.77081298828125 377.4305419921875 208.51739501953125 383.0093078613281 213.57708740234375 381.5829162597656 C 218.63677978515625 380.1565246582031 220.720458984375 372.8291320800781 217.44354248046875 368.67303466796875 C 214.1666259765625 364.5169372558594 207.03411865234375 364.5364685058594 203.4808349609375 368.46551513671875 L 204.42880249023438 372.40606689453125" stroke-width="0.6000000238418579" fill="rgb(233, 92, 21)" opacity="1.0"/>
    <path d="M 270.4561462402344 370.1156311035156 C 269.9722900390625 372.71307373046875 269.6636962890625 375.865966796875 271.720703125 377.5384826660156 C 272.565185546875 378.1722106933594 273.5855407714844 378.5282897949219 274.6409606933594 378.5575256347656 C 277.25042724609375 378.7001953125 279.76715087890625 377.5692443847656 281.3930969238281 375.5232849121094 C 282.76788330078125 373.7841796875 283.3203430175781 371.5727233886719 283.8045959472656 369.42327880859375 C 284.07464599609375 368.2154235839844 284.3231201171875 366.9235534667969 283.88311767578125 365.77398681640625 C 283.2840881347656 364.24652099609375 281.6368103027344 363.4219970703125 280.0762634277344 362.9169921875 C 277.7933349609375 362.1750793457031 275.4053649902344 361.8075256347656 273.0049743652344 361.82867431640625 C 272.1756286621094 361.8375549316406 271.30828857421875 361.9024658203125 270.59698486328125 362.3285217285156 C 269.9559020996094 362.7584533691406 269.4537658691406 363.36566162109375 269.15179443359375 364.0760803222656 C 268.1520080566406 366.1954345703125 268.13226318359375 368.64666748046875 269.0977478027344 370.7818298339844 L 270.4561462402344 370.1156311035156" stroke-width="0.6000000238418579" fill="rgb(70, 150, 179)" opacity="1.0"/>
    <path d="M 329.1156921386719 366.2783203125 C 329.4234313964844 363.46905517578125 329.6466064453125 360.34228515625 327.91766357421875 358.1090393066406 C 326.0589904785156 355.711181640625 322.5009765625 355.25799560546875 319.5923767089844 356.1207580566406 C 318.4708251953125 356.45294189453125 317.3597717285156 356.9779968261719 316.6208801269531 357.8846435546875 C 316.01318359375 358.6297302246094 315.7047119140625 359.5693054199219 315.4600830078125 360.4989013671875 C 314.68505859375 363.4294738769531 314.4542541503906 366.7283935546875 316.0014953613281 369.3343505859375 C 317.56268310546875 371.9596862792969 320.9151306152344 373.39093017578125 323.88958740234375 372.6847229003906 C 326.8640441894531 371.978515625 329.23876953125 369.2190856933594 329.4692077636719 366.1686096191406 L 329.1156921386719 366.2783203125" stroke-width="0.6000000238418579" fill="rgb(140, 28, 33)" opacity="1.0"/>
    <path d="M 351.2138977050781 391.3386535644531 C 347.8619384765625 391.79327392578125 344.3790283203125 392.3033142089844 341.5226135253906 394.1198425292969 C 338.6662292480469 395.93634033203125 336.6011657714844 399.4798278808594 337.5572509765625 402.7264709472656 C 338.74639892578125 406.7314453125 344.1202392578125 408.3056335449219 347.94244384765625 406.6003112792969 C 351.7646789550781 404.89501953125 354.1163635253906 400.9405822753906 355.3483581542969 396.94610595703125 C 355.8536376953125 395.7477722167969 355.8913269042969 394.4036560058594 355.4540100097656 393.1789245605469 C 354.8985900878906 392.0263671875 353.1349182128906 391.4266662597656 352.29248046875 392.3979797363281 L 351.2138977050781 391.3386535644531" stroke-width="0.6000000238418579" fill="rgb(159, 159, 159)" opacity="1.0"/>
    <path d="M 187.358642578125 406.30133056640625 C 184.55081176757812 406.808837890625 181.85568237304688 408.2893981933594 180.24179077148438 410.640625 C 178.62786865234375 412.99188232421875 178.2457275390625 416.24481201171875 179.619384765625 418.7578125 C 180.59283447265625 420.533203125 182.34454345703125 421.80548095703125 184.26043701171875 422.46612548828125 C 186.17630004882812 423.12677001953125 188.248291015625 423.2216796875 190.26739501953125 423.04345703125 C 191.14599609375 422.96533203125 192.06195068359375 422.81982421875 192.76043701171875 422.284912109375 C 193.5615234375 421.6719970703125 193.92987060546875 420.6617431640625 194.214111328125 419.69073486328125 C 195.0164794921875 416.94940185546875 195.4293212890625 413.980712890625 194.56674194335938 411.25732421875 C 193.70416259765625 408.5339660644531 191.30023193359375 406.1540222167969 188.45333862304688 406.02886962890625 L 187.358642578125 406.30133056640625" stroke-width="0.6000000238418579" fill="rgb(159, 159, 159)" opacity="1.0"/>
    <path d="M 355.8668518066406 375.2425231933594 C 353.17156982421875 375.6976013183594 350.1953430175781 376.3201904296875 348.59228515625 378.527587890625 C 347.0302734375 380.672119140625 347.28106689453125 383.5966491699219 347.6490173339844 386.22528076171875 C 347.8000793457031 387.2929382324219 347.9751281738281 388.40740966796875 348.61285400390625 389.276123046875 C 349.6905822753906 390.74603271484375 351.740478515625 391.0823059082031 353.5592041015625 391.01416015625 C 355.247314453125 390.9515686035156 356.9176940917969 390.64691162109375 358.5191955566406 390.1094970703125 C 361.1199035644531 389.2378234863281 363.7455139160156 387.41729736328125 364.1601257324219 384.7068786621094 C 364.3860778808594 383.24395751953125 363.9111328125 381.7347717285156 363.1319885253906 380.4734802246094 C 362.35284423828125 379.2121887207031 361.2804870605469 378.16107177734375 360.2070617675781 377.1385192871094 C 359.13360595703125 376.1159362792969 358.05694580078125 375.1341552734375 356.691650390625 374.65411376953125 L 355.8668518066406 375.2425231933594" stroke-width="0.6000000238418579" fill="rgb(218, 166, 20)" opacity="1.0"/>
    <path d="M 373.2278747558594 387.5812072753906 C 369.6504821777344 390.2794189453125 368.9377746582031 395.3667907714844 371.635986328125 398.9441833496094 C 371.86700439453125 399.2505187988281 372.1195068359375 399.5400695800781 372.39154052734375 399.8106689453125 C 373.42535400390625 400.8387145996094 374.80804443359375 401.5982360839844 376.26519775390625 401.5817565917969 C 377.4966125488281 401.56793212890625 378.65521240234375 401.0135803222656 379.701416015625 400.3655090332031 C 382.49945068359375 398.6268615722656 384.7809143066406 396.1707763671875 386.308837890625 393.2523193359375 C 386.7113952636719 392.4801940917969 387.06524658203125 391.6527099609375 387.0841064453125 390.7803039550781 C 387.11663818359375 389.3157043457031 386.18255615234375 387.9720458984375 385.01373291015625 387.0871887207031 C 383.2793273925781 385.7723083496094 381.0051574707031 385.2682189941406 378.8399963378906 385.4947814941406 C 376.6748352050781 385.7213439941406 374.61724853515625 386.6342468261719 372.8498840332031 387.9049987792969 L 373.2278747558594 387.5812072753906" stroke-width="0.6000000238418579" fill="rgb(143, 165, 67)" opacity="1.0"/>
    <path d="M 365.2845764160156 365.1092224121094 C 366.2370300292969 370.3363952636719 373.9850158691406 372.494140625 377.7611083984375 368.8050231933594 C 381.53717041015625 365.11590576171875 379.8533935546875 357.65350341796875 374.96673583984375 355.5634460449219 C 370.080078125 353.473388671875 363.80023193359375 356.9180603027344 362.55511474609375 362.090087890625 L 365.2845764160156 365.1092224121094" stroke-width="0.6000000238418579" fill="rgb(233, 92, 21)" opacity="1.0"/>
    <path d="M 396.5701599121094 366.6654357910156 C 396.1233825683594 369.2864990234375 395.86151123046875 372.4637756347656 397.95709228515625 374.1149597167969 C 398.8166198730469 374.7396240234375 399.84881591796875 375.0821533203125 400.9112854003906 375.0953063964844 C 403.5391845703125 375.1986083984375 406.05413818359375 374.0217590332031 407.65863037109375 371.93798828125 C 409.01513671875 370.1668701171875 409.5368957519531 367.93310546875 409.9909973144531 365.7628173828125 C 410.2441101074219 364.5433044433594 410.47418212890625 363.2395324707031 410.01373291015625 362.089599609375 C 409.38739013671875 360.5618591308594 407.7171325683594 359.75762939453125 406.13909912109375 359.2735595703125 C 403.83050537109375 358.562255859375 401.4219970703125 358.2292785644531 399.0069885253906 358.2875671386719 C 398.172607421875 358.309326171875 397.3008728027344 358.3880310058594 396.59173583984375 358.8276672363281 C 395.9532775878906 359.27020263671875 395.4573974609375 359.8889465332031 395.1645202636719 360.6084289550781 C 394.1911926269531 362.7563781738281 394.2091369628906 365.2231750488281 395.2135925292969 367.35675048828125 L 396.5701599121094 366.6654357910156" stroke-width="0.6000000238418579" fill="rgb(70, 150, 179)" opacity="1.0"/>
    <path d="M 389.8871154785156 411.3741760253906 C 388.6840515136719 414.0145263671875 387.4613952636719 416.99169921875 388.429443359375 419.72509765625 C 389.4710998535156 422.66064453125 392.7948303222656 424.2462158203125 395.9082946777344 424.33984375 C 397.10870361328125 424.37646484375 398.3608703613281 424.22161865234375 399.3727722167969 423.5750732421875 C 400.204833984375 423.0438232421875 400.8076171875 422.226806640625 401.3450012207031 421.3990478515625 C 403.0426940917969 418.79052734375 404.3280944824219 415.64794921875 403.65704345703125 412.60955810546875 C 402.97857666015625 409.54779052734375 400.169677734375 407.0746154785156 397.04229736328125 406.8071594238281 C 393.9149169921875 406.5396728515625 390.71234130859375 408.4670715332031 389.50714111328125 411.3675231933594 L 389.8871154785156 411.3741760253906" stroke-width="0.6000000238418579" fill="rgb(140, 28, 33)" opacity="1.0"/>
    <path d="M 403.9428405761719 397.0343322753906 C 401.95050048828125 399.764892578125 399.9074401855469 402.628173828125 399.2396545410156 405.9441833496094 C 398.5718994140625 409.2601623535156 399.696533203125 413.20111083984375 402.6982421875 414.7591552734375 C 406.4078674316406 416.674072265625 411.2618408203125 413.8905029296875 412.67822265625 409.9553527832031 C 414.09466552734375 406.02020263671875 412.87225341796875 401.5882568359375 410.845947265625 397.935546875 C 410.3320007324219 396.74200439453125 409.3893127441406 395.7845153808594 408.20391845703125 395.2520446777344 C 406.9888000488281 394.8546142578125 405.33587646484375 395.710693359375 405.452880859375 396.9901428222656 L 403.9428405761719 397.0343322753906" stroke-width="0.6000000238418579" fill="rgb(159, 159, 159)" opacity="1.0"/>
    <path d="M 430.4822998046875 369.9886169433594 C 430.59490966796875 372.7678527832031 431.662109375 375.5690612792969 433.71533203125 377.443359375 C 435.7685546875 379.3176574707031 438.85797119140625 380.1238708496094 441.4688720703125 379.1353759765625 C 443.31396484375 378.43414306640625 444.77783203125 376.9138488769531 445.6732177734375 375.1528625488281 C 446.568603515625 373.391845703125 446.938720703125 371.404052734375 447.0380859375 369.4306335449219 C 447.08074951171875 368.57183837890625 447.06341552734375 367.66790771484375 446.64080810546875 366.9216003417969 C 446.15667724609375 366.0657653808594 445.2308349609375 365.5743103027344 444.33148193359375 365.16937255859375 C 441.7926025390625 364.02618408203125 438.981689453125 363.2285461425781 436.236328125 363.6952819824219 C 433.49090576171875 364.16204833984375 430.86993408203125 366.1631774902344 430.36639404296875 368.8950500488281 L 430.4822998046875 369.9886169433594" stroke-width="0.6000000238418579" fill="rgb(159, 159, 159)" opacity="1.0"/>
    <path d="M 419.048828125 406.7738037109375 C 416.424072265625 407.73199462890625 413.548095703125 408.9107666015625 412.34674072265625 411.427490234375 C 411.1750183105469 413.87335205078125 411.970458984375 416.76654052734375 412.8287353515625 419.3404541015625 C 413.17889404296875 420.3856201171875 413.5618896484375 421.473388671875 414.3643798828125 422.2281494140625 C 415.72076416015625 423.5054931640625 417.84381103515625 423.462646484375 419.6593017578125 423.0562744140625 C 421.3446044921875 422.6796875 422.967041015625 422.0631103515625 424.47705078125 421.225341796875 C 426.92938232421875 419.865966796875 429.23040771484375 417.5482177734375 429.14361572265625 414.74664306640625 C 429.0989990234375 413.234130859375 428.3411865234375 411.8053283691406 427.3236083984375 410.6822204589844 C 426.30615234375 409.5591125488281 425.03289794921875 408.7017822265625 423.763916015625 407.873291015625 C 422.494873046875 407.0448303222656 421.230224609375 406.2579650878906 419.7686767578125 406.02911376953125 L 419.048828125 406.7738037109375" stroke-width="0.6000000238418579" fill="rgb(218, 166, 20)" opacity="1.0"/>
    <path d="M 142.7285614013672 229.5628662109375 C 139.55587768554688 232.94110107421875 139.7225341796875 238.25167846679688 143.1007843017578 241.42437744140625 C 143.3900604248047 241.696044921875 143.69825744628906 241.94683837890625 144.0230255126953 242.1749267578125 C 145.25726318359375 243.04129028320312 146.7999267578125 243.57272338867188 148.2823028564453 243.30010986328125 C 149.5350341796875 243.06982421875 150.61863708496094 242.3013916015625 151.5712432861328 241.4571533203125 C 154.1179962158203 239.19378662109375 156.01226806640625 236.28982543945312 157.05731201171875 233.046875 C 157.33209228515625 232.189208984375 157.5474853515625 231.28363037109375 157.41357421875 230.39111328125 C 157.1895751953125 228.892578125 156.00161743164062 227.68698120117188 154.6549072265625 226.99026489257812 C 152.65623474121094 225.95449829101562 150.24972534179688 225.83990478515625 148.0825958251953 226.45095825195312 C 145.9154815673828 227.06201171875 143.97848510742188 228.35372924804688 142.40013122558594 229.959228515625 L 142.7285614013672 229.5628662109375" stroke-width="0.6000000238418579" fill="rgb(143, 165, 67)" opacity="1.0"/>
    <path d="M 167.10723876953125 264.2977600097656 C 167.730224609375 269.6318664550781 175.406005859375 272.3089599609375 179.4532470703125 268.8318176269531 C 183.50048828125 265.35467529296875 182.28427124023438 257.71868896484375 177.490234375 255.29473876953125 C 172.69622802734375 252.87078857421875 166.1392822265625 255.9395751953125 164.54916381835938 261.0760498046875 L 167.10723876953125 264.2977600097656" stroke-width="0.6000000238418579" fill="rgb(233, 92, 21)" opacity="1.0"/>
    <path d="M 155.4393310546875 312.78228759765625 C 154.26402282714844 315.15380859375 153.10604858398438 318.10858154296875 154.63221740722656 320.2820739746094 C 155.2732391357422 321.1234130859375 156.1595458984375 321.7451171875 157.16885375976562 322.0613708496094 C 159.64508056640625 322.9111022949219 162.37957763671875 322.5079040527344 164.50518798828125 320.9796447753906 C 166.30496215820312 319.6786193847656 167.4410400390625 317.69781494140625 168.49444580078125 315.75823974609375 C 169.08444213867188 314.667724609375 169.676513671875 313.4903259277344 169.56619262695312 312.26220703125 C 169.40570068359375 310.6264343261719 168.04296875 309.3821105957031 166.6766357421875 308.46942138671875 C 164.6787109375 307.1311950683594 162.477294921875 306.12518310546875 160.15789794921875 305.4903869628906 C 159.3560791015625 305.2726135253906 158.5023193359375 305.09844970703125 157.70046997070312 305.31494140625 C 156.9652099609375 305.5544128417969 156.31546020507812 306.00262451171875 155.8305206298828 306.6049499511719 C 154.28842163085938 308.3748474121094 153.600341796875 310.73211669921875 153.9481964111328 313.05364990234375 L 155.4393310546875 312.78228759765625" stroke-width="0.6000000238418579" fill="rgb(70, 150, 179)" opacity="1.0"/>
    <path d="M 125.44821166992188 298.03924560546875 C 124.45413208007812 295.2563171386719 123.23544311523438 292.2134094238281 120.58892822265625 290.90283203125 C 117.74513244628906 289.4966735839844 114.19149780273438 290.696044921875 111.8499755859375 292.8364562988281 C 110.94682312011719 293.66131591796875 110.14169311523438 294.6628112792969 109.86094665527344 295.8531494140625 C 109.62979125976562 296.83160400390625 109.76895141601562 297.8562927246094 109.96356201171875 298.8424377441406 C 110.57354736328125 301.9529113769531 111.86372375488281 305.1612548828125 114.5096435546875 306.9054260253906 C 117.17755126953125 308.66143798828125 120.98464965820312 308.4759216308594 123.45968627929688 306.45269775390625 C 125.93472290039062 304.429443359375 126.9075927734375 300.7489929199219 125.73056030273438 297.7745361328125 L 125.44821166992188 298.03924560546875" stroke-width="0.6000000238418579" fill="rgb(140, 28, 33)" opacity="1.0"/>
    <path d="M 139.3446044921875 273.97100830078125 C 136.22650146484375 275.30474853515625 132.99664306640625 276.7269592285156 130.7208251953125 279.24462890625 C 128.44505310058594 281.7622985839844 127.39480590820312 285.73779296875 129.18505859375 288.62030029296875 C 131.40289306640625 292.17352294921875 137.01629638671875 292.260986328125 140.25515747070312 289.59307861328125 C 143.49400329589844 286.9251708984375 144.71160888671875 282.47607421875 144.83642578125 278.2869873046875 C 145.00497436523438 276.99407958984375 144.68276977539062 275.6850280761719 143.933349609375 274.6181335449219 C 143.0890655517578 273.6524658203125 141.224609375 273.5434875488281 140.6696319580078 274.70697021484375 L 139.3446044921875 273.97100830078125" stroke-width="0.6000000238418579" fill="rgb(159, 159, 159)" opacity="1.0"/>
    <path d="M 157.3453369140625 296.6969299316406 C 155.66184997558594 298.91802978515625 154.7027130126953 301.7643127441406 155.09658813476562 304.5218811035156 C 155.490478515625 307.2794494628906 157.36614990234375 309.8710632324219 160.01513671875 310.7698974609375 C 161.8887939453125 311.40301513671875 163.98941040039062 311.1598205566406 165.80374145507812 310.3683166503906 C 167.61807250976562 309.5767822265625 169.170654296875 308.2752685546875 170.504638671875 306.81231689453125 C 171.08477783203125 306.17535400390625 171.647216796875 305.4652099609375 171.79580688476562 304.61883544921875 C 171.96661376953125 303.6485290527344 171.56365966796875 302.6786193847656 171.12612915039062 301.7925109863281 C 169.89083862304688 299.29095458984375 168.22512817382812 296.8834228515625 165.8045654296875 295.49542236328125 C 163.38397216796875 294.107421875 160.08209228515625 293.9853515625 157.95233154296875 295.77734375 L 157.3453369140625 296.6969299316406" stroke-width="0.6000000238418579" fill="rgb(159, 159, 159)" opacity="1.0"/>
    <path d="M 125.86538696289062 345.8741760253906 C 125.08056640625 343.15936279296875 124.09062194824219 340.17572021484375 121.63456726074219 338.78912353515625 C 119.24795532226562 337.437255859375 116.27360534667969 338.0392150878906 113.61698913574219 338.7267150878906 C 112.53817749023438 339.007568359375 111.41407775878906 339.318603515625 110.59689331054688 340.075927734375 C 109.21401977539062 341.3559875488281 109.11001586914062 343.5010986328125 109.3941650390625 345.3611145019531 C 109.65725708007812 347.087646484375 110.16688537597656 348.7674560546875 110.907470703125 350.34912109375 C 112.10902404785156 352.9177551269531 114.28811645507812 355.40020751953125 117.12086486816406 355.50689697265625 C 118.65008544921875 355.56671142578125 120.14427185058594 354.9011535644531 121.34803771972656 353.9523620605469 C 122.55181884765625 353.0035705566406 123.50515747070312 351.7783508300781 124.42904663085938 350.5553894042969 C 125.35296630859375 349.3323974609375 126.23458862304688 348.1109313964844 126.56686401367188 346.6520690917969 L 125.86538696289062 345.8741760253906" stroke-width="0.6000000238418579" fill="rgb(218, 166, 20)" opacity="1.0"/>
    <path d="M 166.38177490234375 348.1070556640625 C 162.8975830078125 351.13153076171875 162.52490234375 356.4078674316406 165.54937744140625 359.8920593261719 C 165.80838012695312 360.1903991699219 166.08819580078125 360.4700012207031 166.38677978515625 360.728759765625 C 167.52142333984375 361.7117614746094 168.99542236328125 362.394287109375 170.4910888671875 362.27435302734375 C 171.75509643554688 362.17315673828125 172.90606689453125 361.5218505859375 173.93499755859375 360.7821960449219 C 176.6864013671875 358.7984924316406 178.8564453125 356.1142883300781 180.21978759765625 353.00836181640625 C 180.57876586914062 352.186767578125 180.8837890625 351.3117370605469 180.84152221679688 350.41424560546875 C 180.77142333984375 348.9074401855469 179.71697998046875 347.5931701660156 178.45376586914062 346.7668151855469 C 176.5792236328125 345.5386657714844 174.20745849609375 345.1815185546875 171.99935913085938 345.5672302246094 C 169.79122924804688 345.9529724121094 167.74209594726562 347.0361328125 166.016357421875 348.46636962890625 L 166.38177490234375 348.1070556640625" stroke-width="0.6000000238418579" fill="rgb(143, 165, 67)" opacity="1.0"/>
    <path d="M 133.21324157714844 376.43359375 C 130.87347412109375 371.76123046875 122.964111328125 371.85943603515625 120.41587829589844 376.3829040527344 C 117.86767578125 380.9063720703125 121.51387023925781 387.4874572753906 126.7032470703125 388.1138916015625 C 131.8926544189453 388.7403259277344 136.8719940185547 383.75762939453125 136.62213134765625 378.53167724609375 L 133.21324157714844 376.43359375" stroke-width="0.6000000238418579" fill="rgb(233, 92, 21)" opacity="1.0"/>
    <path d="M 179.96469116210938 365.78778076171875 C 178.90786743164062 368.2519226074219 177.90103149414062 371.3050231933594 179.565673828125 373.41851806640625 C 180.2608642578125 374.23382568359375 181.19189453125 374.8133544921875 182.23040771484375 375.0770568847656 C 184.7823486328125 375.7987365722656 187.5257568359375 375.23876953125 189.5906982421875 373.5746765136719 C 191.3387451171875 372.1585693359375 192.37762451171875 370.0918273925781 193.335205078125 368.0713806152344 C 193.87124633789062 366.9355163574219 194.40460205078125 365.711669921875 194.22467041015625 364.4755859375 C 193.9713134765625 362.8299865722656 192.52371215820312 361.6472473144531 191.09091186523438 360.80010986328125 C 188.99557495117188 359.5577087402344 186.71295166015625 358.66265869140625 184.33160400390625 358.149658203125 C 183.50845336914062 357.9739990234375 182.63525390625 357.8453674316406 181.83624267578125 358.10894775390625 C 181.1058349609375 358.3920593261719 180.47360229492188 358.881591796875 180.0166015625 359.517822265625 C 178.5552978515625 361.3938293457031 177.99050903320312 363.8164367675781 178.4715576171875 366.1452331542969 L 179.96469116210938 365.78778076171875" stroke-width="0.6000000238418579" fill="rgb(70, 150, 179)" opacity="1.0"/>
  </g>
</svg>
