<?xml version="1.0" ?>
<svg xmlns="http://www.w3.org/2000/svg" version="1.1" width="600" height="600">
  <defs/>
  <g>
    <path d="M 352.79754638671875 345.16778564453125 C 354.2789611816406 346.2163391113281 356.6860046386719 344.8919677734375 356.7264709472656 343.0891418457031 C 356.76690673828125 341.2863464355469 354.57293701171875 339.8668212890625 352.8805847167969 340.5240783691406 C 351.188232421875 341.1813659667969 350.4781494140625 343.522705078125 351.40985107421875 345.0828552246094 L 352.79754638671875 345.16778564453125" stroke-width="0.6000000238418579" fill="rgb(233, 92, 21)" opacity="1.0"/>
    <path d="M 104.43695068359375 201.66094970703125 C 105.05038452148438 201.0380859375 105.71853637695312 200.23049926757812 105.46392822265625 199.39111328125 C 105.34959411621094 199.06100463867188 105.13565063476562 198.77450561523438 104.85160827636719 198.5711669921875 C 104.16233825683594 198.049072265625 103.26278686523438 197.89349365234375 102.43820190429688 198.1536865234375 C 101.73928833007812 198.376220703125 101.17848205566406 198.8804931640625 100.64787292480469 199.38037109375 C 100.35025024414062 199.66165161132812 100.04302978515625 199.969970703125 99.950927734375 200.36669921875 C 99.83253479003906 200.896484375 100.1317138671875 201.427490234375 100.46624755859375 201.85479736328125 C 100.95506286621094 202.48077392578125 101.54196166992188 203.0235595703125 102.20420837402344 203.46200561523438 C 102.43331909179688 203.613037109375 102.68321228027344 203.75576782226562 102.95713806152344 203.77056884765625 C 103.2125244140625 203.77130126953125 103.46263122558594 203.69769287109375 103.67692565917969 203.55874633789062 C 104.34335327148438 203.16253662109375 104.80242919921875 202.493896484375 104.93280029296875 201.7296142578125 L 104.43695068359375 201.66094970703125" stroke-width="0.6000000238418579" fill="rgb(70, 150, 179)" opacity="1.0"/>
    <path d="M 457.51361083984375 429.3873291015625 C 457.7899169921875 430.0335693359375 458.1234130859375 430.73822021484375 458.7706298828125 431.010986328125 C 459.46612548828125 431.30352783203125 460.2923583984375 430.96728515625 460.817138671875 430.4251708984375 C 461.01959228515625 430.21630859375 461.1961669921875 429.96685791015625 461.24560546875 429.68023681640625 C 461.2862548828125 429.444580078125 461.2384033203125 429.203369140625 461.1778564453125 428.9720458984375 C 460.9879150390625 428.2425537109375 460.6351318359375 427.4996337890625 459.981689453125 427.12396240234375 C 459.32293701171875 426.74578857421875 458.421875 426.84503173828125 457.8636474609375 427.3612060546875 C 457.305419921875 427.87744140625 457.12786865234375 428.7652587890625 457.450439453125 429.4542236328125 L 457.51361083984375 429.3873291015625" stroke-width="0.6000000238418579" fill="rgb(140, 28, 33)" opacity="1.0"/>
    <path d="M 91.57136535644531 197.7882080078125 C 93.22462463378906 197.236083984375 94.9388427734375 196.64337158203125 96.21041870117188 195.44940185546875 C 97.48196411132812 194.25543212890625 98.18705749511719 192.26324462890625 97.39120483398438 190.71145629882812 C 96.404541015625 188.79815673828125 93.53286743164062 188.51739501953125 91.76165771484375 189.747802734375 C 89.990478515625 190.97824096679688 89.17974853515625 193.20602416992188 88.93972778320312 195.3465576171875 C 88.79904174804688 196.001708984375 88.90904235839844 196.685791015625 89.24807739257812 197.2637939453125 C 89.63995361328125 197.7939453125 90.59039306640625 197.92816162109375 90.923583984375 197.35552978515625 L 91.57136535644531 197.7882080078125" stroke-width="0.6000000238418579" fill="rgb(159, 159, 159)" opacity="1.0"/>
    <path d="M 377.1619873046875 299.22601318359375 C 377.7298278808594 298.8593444824219 378.18438720703125 298.2901611328125 378.3232421875 297.6289978027344 C 378.4620666503906 296.96783447265625 378.2494201660156 296.2216796875 377.7201843261719 295.7972106933594 C 377.34564208984375 295.49755859375 376.8467102050781 295.37884521484375 376.3675842285156 295.4088439941406 C 375.888427734375 295.4388122558594 375.4266662597656 295.60675048828125 375.0013427734375 295.82958984375 C 374.8163146972656 295.9266662597656 374.6292724609375 296.0419006347656 374.5252380371094 296.22247314453125 C 374.4058532714844 296.4294738769531 374.41729736328125 296.6839294433594 374.44354248046875 296.9221496582031 C 374.5177001953125 297.5947265625 374.69775390625 298.2815246582031 375.1343688964844 298.7985534667969 C 375.57098388671875 299.3155822753906 376.31341552734375 299.61712646484375 376.9474182128906 299.3852844238281 L 377.1619873046875 299.22601318359375" stroke-width="0.6000000238418579" fill="rgb(159, 159, 159)" opacity="1.0"/>
    <path d="M 98.12887573242188 431.8807373046875 C 98.434814453125 431.216064453125 98.74606323242188 430.46405029296875 98.499755859375 429.776611328125 C 98.26113891601562 429.107666015625 97.57659912109375 428.7220458984375 96.9398193359375 428.4068603515625 C 96.68093872070312 428.27923583984375 96.40809631347656 428.14984130859375 96.11979675292969 428.1597900390625 C 95.63218688964844 428.1763916015625 95.24862670898438 428.5789794921875 94.98934936523438 428.991455078125 C 94.74855041503906 429.3741455078125 94.56396484375 429.78955078125 94.44122314453125 430.2247314453125 C 94.24168395996094 430.9312744140625 94.24821472167969 431.7864990234375 94.7850341796875 432.28704833984375 C 95.07443237304688 432.5577392578125 95.47981262207031 432.6802978515625 95.87625122070312 432.6982421875 C 96.272705078125 432.71624755859375 96.66688537597656 432.6376953125 97.054931640625 432.5545654296875 C 97.44296264648438 432.471435546875 97.82247924804688 432.38140869140625 98.13458251953125 432.15191650390625 L 98.12887573242188 431.8807373046875" stroke-width="0.6000000238418579" fill="rgb(218, 166, 20)" opacity="1.0"/>
    <path d="M 100.68965148925781 139.4556121826172 C 102.0609130859375 139.78305053710938 103.43797302246094 138.93687438964844 103.76541137695312 137.5656280517578 C 103.79345703125 137.44821166992188 103.81312561035156 137.32894897460938 103.82427978515625 137.208740234375 C 103.86660766601562 136.75198364257812 103.77392578125 136.26437377929688 103.47802734375 135.9141387939453 C 103.22799682617188 135.61813354492188 102.86141967773438 135.44808959960938 102.49459838867188 135.32408142089844 C 101.51226806640625 134.99349975585938 100.4593505859375 134.93197631835938 99.44522094726562 135.14588928222656 C 99.17724609375 135.20289611816406 98.90560913085938 135.28280639648438 98.69015502929688 135.45298767089844 C 98.32830810546875 135.7384796142578 98.18942260742188 136.23426818847656 98.20887756347656 136.69509887695312 C 98.23728942871094 137.37928771972656 98.57054138183594 138.0320281982422 99.05923461914062 138.51194763183594 C 99.54791259765625 138.99188232421875 100.18157958984375 139.30821228027344 100.84393310546875 139.48245239257812 L 100.68965148925781 139.4556121826172" stroke-width="0.6000000238418579" fill="rgb(143, 165, 67)" opacity="1.0"/>
    <path d="M 454.8905029296875 341.4896240234375 C 456.505126953125 342.5153503417969 458.96917724609375 340.9944763183594 458.91680908203125 339.0946350097656 C 458.86444091796875 337.1947937011719 456.480224609375 335.8160705566406 454.7333984375 336.5970764160156 C 452.986572265625 337.3780822753906 452.36236572265625 339.8800964355469 453.42529296875 341.4732971191406 L 454.8905029296875 341.4896240234375" stroke-width="0.6000000238418579" fill="rgb(233, 92, 21)" opacity="1.0"/>
    <path d="M 107.11190795898438 215.63034057617188 C 107.806640625 215.137939453125 108.58546447753906 214.4776611328125 108.48478698730469 213.629150390625 C 108.43157958984375 213.29302978515625 108.275390625 212.981689453125 108.03775024414062 212.73812866210938 C 107.46600341796875 212.11962890625 106.62992858886719 211.816650390625 105.794677734375 211.92523193359375 C 105.08638000488281 212.01913452148438 104.46237182617188 212.4068603515625 103.86805725097656 212.7955322265625 C 103.53456115722656 213.014404296875 103.18721008300781 213.257568359375 103.03108215332031 213.62228393554688 C 102.82696533203125 214.110107421875 103.02311706542969 214.67047119140625 103.2708740234375 215.137451171875 C 103.63262939453125 215.82135009765625 104.10269165039062 216.44219970703125 104.66281127929688 216.97586059570312 C 104.85670471191406 217.159912109375 105.07196044921875 217.3394775390625 105.33212280273438 217.4005126953125 C 105.57691955566406 217.44485473632812 105.829345703125 217.41702270507812 106.05860900878906 217.32040405273438 C 106.76544189453125 217.05438232421875 107.32000732421875 216.49163818359375 107.57568359375 215.78097534179688 L 107.11190795898438 215.63034057617188" stroke-width="0.6000000238418579" fill="rgb(70, 150, 179)" opacity="1.0"/>
    <path d="M 102.32460021972656 79.7958984375 C 102.6236572265625 80.594482421875 102.98867797851562 81.46707153320312 103.758056640625 81.83355712890625 C 104.58474731445312 82.22674560546875 105.60478210449219 81.86505126953125 106.27095031738281 81.2371826171875 C 106.52789306640625 80.99520874023438 106.75579833984375 80.70271301269531 106.83155822753906 80.3580322265625 C 106.89395141601562 80.07470703125 106.84927368164062 79.7796630859375 106.78878784179688 79.49600219726562 C 106.59909057617188 78.60122680664062 106.21272277832031 77.68121337890625 105.44161987304688 77.18963623046875 C 104.66413879394531 76.69471740722656 103.56649780273438 76.7650146484375 102.86129760742188 77.35964965820312 C 102.15609741210938 77.95431518554688 101.8916015625 79.02049255371094 102.24429321289062 79.87351989746094 L 102.32460021972656 79.7958984375" stroke-width="0.6000000238418579" fill="rgb(140, 28, 33)" opacity="1.0"/>
    <path d="M 92.07943725585938 425.258544921875 C 93.73924255371094 425.08203125 95.46441650390625 424.8800048828125 96.899169921875 424.024658203125 C 98.33390808105469 423.1693115234375 99.40289306640625 421.45086669921875 98.97750854492188 419.8359375 C 98.44796752929688 417.843505859375 95.81974792480469 416.9906005859375 93.91020202636719 417.77734375 C 92.00065612792969 418.5640869140625 90.78443908691406 420.481201171875 90.11993408203125 422.43389892578125 C 89.85365295410156 423.01776123046875 89.81593322753906 423.68017578125 90.01422119140625 424.29052734375 C 90.27175903320312 424.866943359375 91.13314819335938 425.18780517578125 91.5625 424.720703125 L 92.07943725585938 425.258544921875" stroke-width="0.6000000238418579" fill="rgb(159, 159, 159)" opacity="1.0"/>
    <path d="M 468.63720703125 60.62939453125 C 469.203125 59.94598388671875 469.5472412109375 59.05377197265625 469.4598388671875 58.17120361328125 C 469.372314453125 57.288665771484375 468.811279296875 56.438568115234375 467.98095703125 56.1163330078125 C 467.3936767578125 55.889251708984375 466.72216796875 55.93780517578125 466.1341552734375 56.164703369140625 C 465.54620361328125 56.39158630371094 465.03448486328125 56.7843017578125 464.590087890625 57.23133850097656 C 464.3968505859375 57.425994873046875 464.20819091796875 57.6441650390625 464.1492919921875 57.91136169433594 C 464.0816650390625 58.21766662597656 464.196533203125 58.531707763671875 464.3236083984375 58.81956481933594 C 464.68218994140625 59.63221740722656 465.17901611328125 60.420867919921875 465.929931640625 60.89556884765625 C 466.680908203125 61.370269775390625 467.7294921875 61.45439147949219 468.4315185546875 60.91358947753906 L 468.63720703125 60.62939453125" stroke-width="0.6000000238418579" fill="rgb(159, 159, 159)" opacity="1.0"/>
    <path d="M 92.18968200683594 106.0762939453125 C 92.91427612304688 106.2564697265625 93.72749328613281 106.42535400390625 94.36981201171875 106.04751586914062 C 94.99497985839844 105.68096923828125 95.25132751464844 104.9212646484375 95.446044921875 104.22286987304688 C 95.52471923828125 103.93902587890625 95.60250854492188 103.64085388183594 95.53761291503906 103.35372924804688 C 95.42814636230469 102.8680419921875 94.95152282714844 102.56011962890625 94.4886474609375 102.37872314453125 C 94.05911254882812 102.21017456054688 93.60757446289062 102.10418701171875 93.14788818359375 102.06399536132812 C 92.40151977539062 101.99845886230469 91.54537963867188 102.16781616210938 91.14576721191406 102.80130004882812 C 90.92953491210938 103.14295959472656 90.8837890625 103.57270812988281 90.94125366210938 103.97357177734375 C 90.99871826171875 104.37445068359375 91.15252685546875 104.75466918945312 91.30975341796875 105.12788391113281 C 91.46694946289062 105.5010986328125 91.62942504882812 105.86444091796875 91.91893005371094 106.13363647460938 L 92.18968200683594 106.0762939453125" stroke-width="0.6000000238418579" fill="rgb(218, 166, 20)" opacity="1.0"/>
    <path d="M 118.69000244140625 127.2666015625 C 120.02468872070312 126.77606201171875 120.70903015136719 125.29644775390625 120.218505859375 123.96176147460938 C 120.176513671875 123.84747314453125 120.12644958496094 123.73629760742188 120.06871032714844 123.62908935546875 C 119.84925842285156 123.22177124023438 119.4991455078125 122.86392211914062 119.0550537109375 122.73492431640625 C 118.67977905273438 122.62588500976562 118.27688598632812 122.68769836425781 117.8995361328125 122.788330078125 C 116.88980102539062 123.05908203125 115.97097778320312 123.59524536132812 115.238525390625 124.34112548828125 C 115.04524230957031 124.53861999511719 114.86166381835938 124.75741577148438 114.77569580078125 125.02066040039062 C 114.63113403320312 125.46249389648438 114.791259765625 125.95651245117188 115.06491088867188 126.33274841308594 C 115.47076416015625 126.89163208007812 116.11512756347656 127.25387573242188 116.7935791015625 127.38418579101562 C 117.47203063964844 127.51449584960938 118.18093872070312 127.42643737792969 118.8345947265625 127.2030029296875 L 118.69000244140625 127.2666015625" stroke-width="0.6000000238418579" fill="rgb(143, 165, 67)" opacity="1.0"/>
    <path d="M 389.298828125 302.40496826171875 C 390.62353515625 303.7557067871094 393.3385314941406 302.844482421875 393.7149963378906 301.0028076171875 C 394.0914001464844 299.1611633300781 392.104736328125 297.2975158691406 390.2467346191406 297.6572570800781 C 388.3887634277344 298.01702880859375 387.22540283203125 300.2866516113281 387.8912353515625 302.0600280761719 L 389.298828125 302.40496826171875" stroke-width="0.6000000238418579" fill="rgb(233, 92, 21)" opacity="1.0"/>
    <path d="M 122.96142578125 112.40054321289062 C 123.57107543945312 111.83602905273438 124.24078369140625 111.09844970703125 124.03573608398438 110.29032897949219 C 123.94163513183594 109.97189331054688 123.75103759765625 109.69052124023438 123.490234375 109.48503112792969 C 122.85861206054688 108.95919799804688 122.01132202148438 108.77212524414062 121.21702575683594 108.98312377929688 C 120.543701171875 109.16384887695312 119.98919677734375 109.61811828613281 119.46353149414062 110.06953430175781 C 119.16865539550781 110.32359313964844 118.86346435546875 110.6029052734375 118.75868225097656 110.97555541992188 C 118.62309265136719 111.473388671875 118.88394165039062 111.99063110351562 119.18289184570312 112.41098022460938 C 119.61962890625 113.0267333984375 120.15313720703125 113.56771850585938 120.76275634765625 114.01296997070312 C 120.97366333007812 114.16641235351562 121.20469665527344 114.31283569335938 121.46414184570312 114.3388671875 C 121.70660400390625 114.35073852539062 121.947265625 114.29177856445312 122.15681457519531 114.16921997070312 C 122.80690002441406 113.82217407226562 123.27201843261719 113.20741271972656 123.42921447753906 112.48745727539062 L 122.96142578125 112.40054321289062" stroke-width="0.6000000238418579" fill="rgb(70, 150, 179)" opacity="1.0"/>
    <path d="M 428.57537841796875 71.03298950195312 C 428.9683837890625 71.71340942382812 429.4326171875 72.45108032226562 430.1875 72.66737365722656 C 430.99859619140625 72.89924621582031 431.87078857421875 72.41566467285156 432.3809814453125 71.74386596679688 C 432.5777587890625 71.48493957519531 432.740478515625 71.18449401855469 432.75701904296875 70.85971069335938 C 432.770751953125 70.59274291992188 432.685302734375 70.33135986328125 432.5872802734375 70.08273315429688 C 432.279052734375 69.29827880859375 431.7882080078125 68.520751953125 431.01275634765625 68.19100952148438 C 430.23095703125 67.85920715332031 429.2440185546875 68.0897216796875 428.693359375 68.73724365234375 C 428.1427001953125 69.384765625 428.0640869140625 70.39395141601562 428.51416015625 71.11572265625 L 428.57537841796875 71.03298950195312" stroke-width="0.6000000238418579" fill="rgb(140, 28, 33)" opacity="1.0"/>
    <path d="M 115.14665222167969 416.42083740234375 C 116.113525390625 414.9576416015625 117.10346984863281 413.42449951171875 117.3697509765625 411.6897888183594 C 117.63601684570312 409.9551086425781 116.95828247070312 407.9396667480469 115.36503601074219 407.2044372558594 C 113.39633178710938 406.3012390136719 110.94758605957031 407.86077880859375 110.30821228027344 409.93438720703125 C 109.66883850097656 412.00799560546875 110.40908813476562 414.27557373046875 111.54719543457031 416.119873046875 C 111.84231567382812 416.72613525390625 112.35391235351562 417.19970703125 112.98110961914062 417.4471435546875 C 113.62045288085938 417.6239013671875 114.45652770996094 417.140380859375 114.36508178710938 416.4801025390625 L 115.14665222167969 416.42083740234375" stroke-width="0.6000000238418579" fill="rgb(159, 159, 159)" opacity="1.0"/>
    <path d="M 452.76202392578125 430.5169677734375 C 453.1383056640625 429.7802734375 453.2703857421875 428.89849853515625 453.01171875 428.1131591796875 C 452.7529296875 427.3277587890625 452.06982421875 426.6680908203125 451.2489013671875 426.5433349609375 C 450.66839599609375 426.4559326171875 450.067138671875 426.6363525390625 449.578125 426.962158203125 C 449.08917236328125 427.2879638671875 448.7032470703125 427.74920654296875 448.3895263671875 428.2462158203125 C 448.253173828125 428.4625244140625 448.1258544921875 428.6993408203125 448.12646484375 428.9544677734375 C 448.1270751953125 429.2469482421875 448.29534912109375 429.5093994140625 448.4693603515625 429.74554443359375 C 448.96063232421875 430.4122314453125 449.57281494140625 431.02911376953125 450.35247802734375 431.30865478515625 C 451.1322021484375 431.5882568359375 452.10345458984375 431.45196533203125 452.632568359375 430.8173828125 L 452.76202392578125 430.5169677734375" stroke-width="0.6000000238418579" fill="rgb(159, 159, 159)" opacity="1.0"/>
    <path d="M 449.79083251953125 286.2742004394531 C 450.3011474609375 285.6804504394531 450.84271240234375 284.9983825683594 450.7916259765625 284.2186584472656 C 450.7430419921875 283.4602966308594 450.15228271484375 282.862060546875 449.5899658203125 282.3504638671875 C 449.3612060546875 282.1429748535156 449.11859130859375 281.9295349121094 448.819091796875 281.85498046875 C 448.3125 281.7285461425781 447.7994384765625 282.0298156738281 447.411376953125 282.3778381347656 C 447.05096435546875 282.7007141113281 446.7388916015625 283.0736389160156 446.4844970703125 283.4852600097656 C 446.0712890625 284.1534423828125 445.8262939453125 285.0351867675781 446.23126220703125 285.70806884765625 C 446.4493408203125 286.0716857910156 446.830322265625 286.3171081542969 447.23284912109375 286.4522705078125 C 447.6353759765625 286.5874328613281 448.0640869140625 286.6225891113281 448.4876708984375 286.6512756347656 C 448.911376953125 286.6799621582031 449.3282470703125 286.6990661621094 449.7169189453125 286.5548095703125 L 449.79083251953125 286.2742004394531" stroke-width="0.6000000238418579" fill="rgb(218, 166, 20)" opacity="1.0"/>
    <path d="M 420.01800537109375 364.7651062011719 C 420.952392578125 365.7801513671875 422.53271484375 365.8455810546875 423.5477294921875 364.91119384765625 C 423.6346435546875 364.8311767578125 423.7158203125 364.7451171875 423.79052734375 364.65362548828125 C 424.074462890625 364.305908203125 424.265625 363.8594055175781 424.21673583984375 363.41339111328125 C 424.17547607421875 363.0364685058594 423.97076416015625 362.6981201171875 423.74072265625 362.39703369140625 C 423.12384033203125 361.5919189453125 422.3026123046875 360.9667053222656 421.3624267578125 360.5862731933594 C 421.11370849609375 360.4861145019531 420.8494873046875 360.402587890625 420.58160400390625 360.42303466796875 C 420.1318359375 360.4571228027344 419.7481689453125 360.78375244140625 419.51220703125 361.16851806640625 C 419.16143798828125 361.739501953125 419.07537841796875 362.4515380859375 419.20989990234375 363.108154296875 C 419.344482421875 363.7648010253906 419.68603515625 364.3678283691406 420.12860107421875 364.8711853027344 L 420.01800537109375 364.7651062011719" stroke-width="0.6000000238418579" fill="rgb(143, 165, 67)" opacity="1.0"/>
    <path d="M 451.17877197265625 355.2013244628906 C 452.212890625 353.638671875 450.76837158203125 351.1975402832031 448.9066162109375 351.214111328125 C 447.044921875 351.2306823730469 445.6510009765625 353.5406799316406 446.384033203125 355.2658386230469 C 447.1170654296875 356.990966796875 449.55615234375 357.6480407714844 451.135986328125 356.6361083984375 L 451.17877197265625 355.2013244628906" stroke-width="0.6000000238418579" fill="rgb(233, 92, 21)" opacity="1.0"/>
    <path d="M 452.95135498046875 82.05828857421875 C 453.47210693359375 81.51052856445312 454.037353515625 80.80223083496094 453.80450439453125 80.08050537109375 C 453.70062255859375 79.79690551757812 453.5113525390625 79.55250549316406 453.2626953125 79.38104248046875 C 452.658935546875 78.94024658203125 451.87890625 78.8194580078125 451.1700439453125 79.05697631835938 C 450.5693359375 79.25997924804688 450.09222412109375 79.70443725585938 449.64117431640625 80.1446533203125 C 449.38818359375 80.392333984375 449.1273193359375 80.66354370117188 449.0537109375 81.00788879394531 C 448.95947265625 81.46766662597656 449.2261962890625 81.922119140625 449.52191162109375 82.28640747070312 C 449.9539794921875 82.82008361816406 450.4696044921875 83.28030395507812 451.04876708984375 83.64923095703125 C 451.2491455078125 83.77630615234375 451.46728515625 83.8958740234375 451.704345703125 83.90447998046875 C 451.92510986328125 83.90121459960938 452.14013671875 83.83378601074219 452.32330322265625 83.71038818359375 C 452.893310546875 83.35772705078125 453.280029296875 82.77276611328125 453.38104248046875 82.110107421875 L 452.95135498046875 82.05828857421875" stroke-width="0.6000000238418579" fill="rgb(70, 150, 179)" opacity="1.0"/>
    <path d="M 449.9716796875 390.89898681640625 C 450.2330322265625 390.4171142578125 450.50244140625 389.8719787597656 450.35577392578125 389.3441467285156 C 450.1978759765625 388.7772216796875 449.59222412109375 388.43487548828125 449.00665283203125 388.37646484375 C 448.7808837890625 388.3538513183594 448.5428466796875 388.36663818359375 448.3436279296875 388.4752197265625 C 448.179931640625 388.564453125 448.0555419921875 388.7105407714844 447.9434814453125 388.8595275878906 C 447.58935546875 389.32891845703125 447.305908203125 389.9043884277344 447.392578125 390.48583984375 C 447.4803466796875 391.07177734375 447.9774169921875 391.5746765136719 448.5633544921875 391.6660461425781 C 449.14923095703125 391.7574157714844 449.778076171875 391.43609619140625 450.043212890625 390.90521240234375 L 449.9716796875 390.89898681640625" stroke-width="0.6000000238418579" fill="rgb(140, 28, 33)" opacity="1.0"/>
    <path d="M 121.27481079101562 214.73175048828125 C 119.11752319335938 214.6719970703125 116.87208557128906 214.63360595703125 114.88621520996094 215.48248291015625 C 112.900390625 216.331298828125 111.2344970703125 218.34909057617188 111.5013427734375 220.4918212890625 C 111.83663940429688 223.13604736328125 115.05746459960938 224.68182373046875 117.63990783691406 224.002685546875 C 120.22235107421875 223.32354736328125 122.11111450195312 221.07659912109375 123.299072265625 218.68887329101562 C 123.7408447265625 217.986572265625 123.9033203125 217.14422607421875 123.75439453125 216.3280029296875 C 123.523681640625 215.5450439453125 122.47518920898438 214.98541259765625 121.84454345703125 215.510009765625 L 121.27481079101562 214.73175048828125" stroke-width="0.6000000238418579" fill="rgb(159, 159, 159)" opacity="1.0"/>
    <path d="M 111.66989135742188 224.13031005859375 C 110.40011596679688 223.08514404296875 108.74459838867188 222.4522705078125 107.109375 222.6192626953125 C 105.47415161132812 222.7862548828125 103.90170288085938 223.83087158203125 103.30905151367188 225.3714599609375 C 102.89141845703125 226.46124267578125 102.985107421875 227.70556640625 103.40885925292969 228.79403686523438 C 103.83261108398438 229.88250732421875 104.56327819824219 230.8287353515625 105.39427185058594 231.64990234375 C 105.75611877441406 232.00704956054688 106.16151428222656 232.35546875 106.65704345703125 232.46310424804688 C 107.22511291503906 232.5867919921875 107.8065185546875 232.37213134765625 108.33932495117188 232.1351318359375 C 109.84353637695312 231.46600341796875 111.30247497558594 230.54083251953125 112.17813110351562 229.14645385742188 C 113.05380249023438 227.7520751953125 113.20391845703125 225.80813598632812 112.19772338867188 224.50997924804688 L 111.66989135742188 224.13031005859375" stroke-width="0.6000000238418579" fill="rgb(159, 159, 159)" opacity="1.0"/>
    <path d="M 303.1888122558594 104.78309631347656 C 302.52825927734375 106.27639770507812 301.8587341308594 107.96487426757812 302.4312438964844 109.49069213867188 C 302.98590087890625 110.97531127929688 304.5262145996094 111.81317138671875 305.9576416015625 112.49517822265625 C 306.5395202636719 112.77139282226562 307.1526794433594 113.05105590820312 307.795654296875 113.01919555664062 C 308.8831481933594 112.9659423828125 309.72564697265625 112.05487060546875 310.29046630859375 111.12588500976562 C 310.8150634765625 110.26383972167969 311.213134765625 109.3309326171875 311.4725341796875 108.355712890625 C 311.894287109375 106.77239990234375 311.85125732421875 104.86428833007812 310.63677978515625 103.76527404785156 C 309.9819641113281 103.17098999023438 309.0733337402344 102.91085815429688 308.1881103515625 102.88397216796875 C 307.3028869628906 102.85707092285156 306.4259338378906 103.0455322265625 305.56280517578125 103.24392700195312 C 304.69970703125 103.44232177734375 303.8558349609375 103.65576171875 303.1670837402344 104.17825317382812 L 303.1888122558594 104.78309631347656" stroke-width="0.6000000238418579" fill="rgb(218, 166, 20)" opacity="1.0"/>
    <path d="M 219.47866821289062 126.7630615234375 C 217.4024658203125 125.0142822265625 214.30166625976562 125.27969360351562 212.55288696289062 127.35592651367188 C 212.40313720703125 127.53370666503906 212.26617431640625 127.72189331054688 212.14306640625 127.9190673828125 C 211.67538452148438 128.66835021972656 211.413330078125 129.58743286132812 211.61968994140625 130.44581604003906 C 211.79400634765625 131.1712188720703 212.2777099609375 131.78070068359375 212.80160522460938 132.3111572265625 C 214.2059326171875 133.72911071777344 215.96432495117188 134.7451934814453 217.89410400390625 135.25384521484375 C 218.4044189453125 135.38743591308594 218.94091796875 135.4847869873047 219.45867919921875 135.3782196044922 C 220.32806396484375 135.1998291015625 220.99560546875 134.4668731689453 221.36053466796875 133.6571807861328 C 221.90310668945312 132.45542907714844 221.89401245117188 131.04428100585938 221.46807861328125 129.79611206054688 C 221.04217529296875 128.5479278564453 220.22540283203125 127.45587158203125 219.2364501953125 126.58351135253906 L 219.47866821289062 126.7630615234375" stroke-width="0.6000000238418579" fill="rgb(143, 165, 67)" opacity="1.0"/>
    <path d="M 223.03213500976562 95.0123291015625 C 221.91119384765625 97.9913330078125 225.22723388671875 101.48675537109375 228.3037109375 100.75462341308594 C 231.3802490234375 100.02249145507812 232.81402587890625 95.6697998046875 230.94720458984375 93.09062194824219 C 229.0804443359375 90.51144409179688 224.7928466796875 90.34666442871094 222.55987548828125 92.62033081054688 L 223.03213500976562 95.0123291015625" stroke-width="0.6000000238418579" fill="rgb(233, 92, 21)" opacity="1.0"/>
    <path d="M 203.148193359375 95.915283203125 C 202.55007934570312 94.46676635742188 201.68536376953125 92.79849243164062 200.12188720703125 92.63070678710938 C 199.4970703125 92.58816528320312 198.87445068359375 92.74052429199219 198.33990478515625 93.06681823730469 C 196.99560546875 93.83856201171875 196.10873413085938 95.21401977539062 195.9605712890625 96.75700378417969 C 195.83822631835938 98.06620788574219 196.277587890625 99.3448486328125 196.73080444335938 100.57060241699219 C 196.98651123046875 101.25874328613281 197.28012084960938 101.98171997070312 197.87030029296875 102.41154479980469 C 198.66162109375 102.97802734375 199.74740600585938 102.85623168945312 200.6868896484375 102.60348510742188 C 202.06228637695312 102.23533630371094 203.3690185546875 101.64700317382812 204.556396484375 100.86126708984375 C 204.96615600585938 100.58900451660156 205.376708984375 100.276611328125 205.59298706054688 99.83493041992188 C 205.7730712890625 99.41400146484375 205.82681274414062 98.94973754882812 205.74761962890625 98.498779296875 C 205.56057739257812 97.12150573730469 204.77877807617188 95.89559936523438 203.60888671875 95.1451416015625 L 203.148193359375 95.915283203125" stroke-width="0.6000000238418579" fill="rgb(70, 150, 179)" opacity="1.0"/>
    <path d="M 267.09039306640625 131.62802124023438 C 266.25408935546875 133.1380615234375 265.3905029296875 134.84693908691406 265.8375244140625 136.51307678222656 C 266.31878662109375 138.30258178710938 268.2163391113281 139.3975372314453 270.0585632324219 139.59783935546875 C 270.768798828125 139.6753692626953 271.5186462402344 139.64175415039062 272.14886474609375 139.3053436279297 C 272.66705322265625 139.02899169921875 273.06256103515625 138.57244873046875 273.41973876953125 138.10646057128906 C 274.5479431152344 136.63836669921875 275.4564514160156 134.83428955078125 275.1997375488281 133.0010528564453 C 274.9397277832031 131.15359497070312 273.3888244628906 129.55616760253906 271.54644775390625 129.25210571289062 C 269.7040710449219 128.9480438232422 267.71502685546875 129.94223022460938 266.8653564453125 131.60641479492188 L 267.09039306640625 131.62802124023438" stroke-width="0.6000000238418579" fill="rgb(140, 28, 33)" opacity="1.0"/>
    <path d="M 316.5514831542969 117.6590576171875 C 314.2564697265625 118.51873779296875 311.8778381347656 119.43856811523438 310.1517028808594 121.18077087402344 C 308.42559814453125 122.92295837402344 307.5359802246094 125.758056640625 308.73297119140625 127.89810180664062 C 310.2164611816406 130.5364532470703 314.26580810546875 130.78526306152344 316.6921081542969 128.96646118164062 C 319.118408203125 127.14767456054688 320.14453125 123.97621154785156 320.3731994628906 120.95631408691406 C 320.5376281738281 120.028564453125 320.34832763671875 119.07293701171875 319.8426208496094 118.2779541015625 C 319.26507568359375 117.55294799804688 317.9227600097656 117.41259765625 317.4836730957031 118.23416137695312 L 316.5514831542969 117.6590576171875" stroke-width="0.6000000238418579" fill="rgb(159, 159, 159)" opacity="1.0"/>
    <path d="M 198.68695068359375 131.21409606933594 C 197.42855834960938 130.15005493164062 195.7781982421875 129.49400329589844 194.13751220703125 129.6396484375 C 192.49688720703125 129.78529357910156 190.90753173828125 130.81109619140625 190.29327392578125 132.3468780517578 C 189.86038208007812 133.43324279785156 189.93777465820312 134.68124389648438 190.34793090820312 135.77748107910156 C 190.75811767578125 136.8737335205078 191.4776611328125 137.8314971923828 192.29940795898438 138.66526794433594 C 192.6572265625 139.0279083251953 193.05880737304688 139.38238525390625 193.55389404296875 139.49679565429688 C 194.12139892578125 139.6282501220703 194.70681762695312 139.4208984375 195.24380493164062 139.1904754638672 C 196.75982666015625 138.53994750976562 198.23388671875 137.63229370117188 199.1297607421875 136.24679565429688 C 200.025634765625 134.86129760742188 200.2017822265625 132.91552734375 199.2108154296875 131.60150146484375 L 198.68695068359375 131.21409606933594" stroke-width="0.6000000238418579" fill="rgb(159, 159, 159)" opacity="1.0"/>
    <path d="M 281.55841064453125 104.71391296386719 C 279.9605407714844 105.32977294921875 278.21112060546875 106.08355712890625 277.5025634765625 107.63882446289062 C 276.81134033203125 109.150390625 277.3304138183594 110.91448974609375 277.88446044921875 112.48231506347656 C 278.1104736328125 113.118896484375 278.3570861816406 113.78125 278.8570251464844 114.23495483398438 C 279.7021789550781 115.0028076171875 281.00262451171875 114.95332336425781 282.11065673828125 114.6844482421875 C 283.1391906738281 114.43527221679688 284.1266174316406 114.03970336914062 285.042724609375 113.50984191894531 C 286.530517578125 112.65003967285156 287.9151306152344 111.20460510253906 287.831298828125 109.4888916015625 C 287.78741455078125 108.56256103515625 287.3074035644531 107.69534301757812 286.671630859375 107.01828002929688 C 286.03582763671875 106.34121704101562 285.24627685546875 105.82980346679688 284.4596252441406 105.3360595703125 C 283.6729736328125 104.84228515625 282.889404296875 104.37396240234375 281.9913024902344 104.24972534179688 L 281.55841064453125 104.71391296386719" stroke-width="0.6000000238418579" fill="rgb(218, 166, 20)" opacity="1.0"/>
    <path d="M 241.9622802734375 121.47233581542969 C 240.72174072265625 124.00653076171875 241.77041625976562 127.06658935546875 244.30462646484375 128.3071746826172 C 244.5216064453125 128.4134063720703 244.74588012695312 128.5041046142578 244.9757080078125 128.57859802246094 C 245.84912109375 128.8614959716797 246.84194946289062 128.8942413330078 247.65557861328125 128.46995544433594 C 248.34320068359375 128.11146545410156 248.83599853515625 127.47016906738281 249.23895263671875 126.8082275390625 C 250.31515502929688 125.034912109375 250.89688110351562 123.00576782226562 250.92376708984375 120.93161010742188 C 250.929931640625 120.38333129882812 250.89297485351562 119.81782531738281 250.65509033203125 119.322509765625 C 250.2562255859375 118.49072265625 249.34893798828125 118.00216674804688 248.44052124023438 117.838134765625 C 247.09197998046875 117.59367370605469 245.67123413085938 117.95828247070312 244.51983642578125 118.70219421386719 C 243.368408203125 119.44609069824219 242.47286987304688 120.5447998046875 241.84222412109375 121.76182556152344 L 241.9622802734375 121.47233581542969" stroke-width="0.6000000238418579" fill="rgb(143, 165, 67)" opacity="1.0"/>
    <path d="M 249.6160888671875 92.92414855957031 C 248.77694702148438 96.03128051757812 252.45367431640625 99.22763061523438 255.4791259765625 98.19223022460938 C 258.50457763671875 97.15682983398438 259.52532958984375 92.63673400878906 257.3961486816406 90.221923828125 C 255.2669677734375 87.80712890625 250.935546875 88.05731201171875 248.90866088867188 90.56243896484375 L 249.6160888671875 92.92414855957031" stroke-width="0.6000000238418579" fill="rgb(233, 92, 21)" opacity="1.0"/>
    <path d="M 338.4720764160156 85.22709655761719 C 336.8867492675781 84.78338623046875 334.9469909667969 84.41781616210938 333.7954406738281 85.60209655761719 C 333.3554992675781 86.09121704101562 333.0781555175781 86.70481872558594 333.0017395019531 87.35824584960938 C 332.7691345214844 88.96986389160156 333.33209228515625 90.59426879882812 334.5121154785156 91.71633911132812 C 335.5155334472656 92.66558837890625 336.8575439453125 93.13055419921875 338.164794921875 93.54974365234375 C 338.8995056152344 93.7840576171875 339.6875915527344 94.00958251953125 340.4253234863281 93.79997253417969 C 341.4064025878906 93.51252746582031 342.009033203125 92.53570556640625 342.40863037109375 91.59506225585938 C 342.9951477050781 90.21917724609375 343.3550720214844 88.75741577148438 343.4744873046875 87.26649475097656 C 343.5147705078125 86.75128173828125 343.5223388671875 86.20941162109375 343.2972106933594 85.74444580078125 C 343.0657653808594 85.32281494140625 342.7166442871094 84.97764587402344 342.2923889160156 84.75102233886719 C 341.03228759765625 84.01351928710938 339.5120544433594 83.86592102050781 338.13360595703125 84.34725952148438 L 338.4720764160156 85.22709655761719" stroke-width="0.6000000238418579" fill="rgb(70, 150, 179)" opacity="1.0"/>
    <path d="M 333.7174987792969 123.30133056640625 C 333.2078857421875 121.6754150390625 332.57476806640625 119.89462280273438 331.0797424316406 119.07951354980469 C 329.47320556640625 118.20486450195312 327.3985900878906 118.81526184082031 326.0010070800781 119.99533081054688 C 325.4619445800781 120.4500732421875 324.975341796875 121.00881958007812 324.78662109375 121.68826293945312 C 324.6312255859375 122.24674987792969 324.68817138671875 122.84027099609375 324.7779235839844 123.412841796875 C 325.0588073730469 125.21875 325.7293701171875 127.09646606445312 327.2142333984375 128.16139221191406 C 328.71148681640625 129.23361206054688 330.90911865234375 129.2130889892578 332.3809814453125 128.1035614013672 C 333.85284423828125 126.99403381347656 334.4968566894531 124.8956298828125 333.8861999511719 123.15522766113281 L 333.7174987792969 123.30133056640625" stroke-width="0.6000000238418579" fill="rgb(140, 28, 33)" opacity="1.0"/>
    <path d="M 354.4218444824219 105.48358154296875 C 352.4294738769531 105.60031127929688 350.3575744628906 105.7437744140625 348.5954895019531 106.68399047851562 C 346.8334655761719 107.62420654296875 345.45928955078125 109.61595153808594 345.8757629394531 111.56890869140625 C 346.395263671875 113.97845458984375 349.4858703613281 115.14614868164062 351.81109619140625 114.31478881835938 C 354.1363525390625 113.48341369628906 355.6976318359375 111.26280212402344 356.60198974609375 108.96826171875 C 356.953125 108.28602600097656 357.0357360839844 107.49697875976562 356.8335266113281 106.7568359375 C 356.55859375 106.05380249023438 355.5480041503906 105.62171936035156 355.0087585449219 106.1552734375 L 354.4218444824219 105.48358154296875" stroke-width="0.6000000238418579" fill="rgb(159, 159, 159)" opacity="1.0"/>
    <path d="M 350.26947021484375 123.29289245605469 C 348.6812744140625 123.73381042480469 347.20953369140625 124.72848510742188 346.40594482421875 126.16661071777344 C 345.60235595703125 127.604736328125 345.5551452636719 129.49618530273438 346.4786682128906 130.86880493164062 C 347.1328125 131.8384246826172 348.20794677734375 132.47731018066406 349.3450622558594 132.7556610107422 C 350.482177734375 133.0340118408203 351.6790771484375 132.9786376953125 352.8310546875 132.76898193359375 C 353.3323059082031 132.6774444580078 353.8514709472656 132.54513549804688 354.224853515625 132.2003631591797 C 354.65313720703125 131.80528259277344 354.8114013671875 131.2046356201172 354.9233703613281 130.63101196289062 C 355.2394714355469 129.0115509033203 355.31939697265625 127.281982421875 354.6787109375 125.76119995117188 C 354.03802490234375 124.24043273925781 352.5289306640625 122.99900817871094 350.88470458984375 123.07806396484375 L 350.26947021484375 123.29289245605469" stroke-width="0.6000000238418579" fill="rgb(159, 159, 159)" opacity="1.0"/>
    <path d="M 366.0401306152344 111.58062744140625 C 364.1513366699219 112.07217407226562 362.0731506347656 112.70037841796875 361.07037353515625 114.37033081054688 C 360.0928955078125 115.99298095703125 360.45343017578125 118.05757141113281 360.8788757324219 119.90438842773438 C 361.05279541015625 120.65437316894531 361.2467041015625 121.43620300292969 361.7544250488281 122.01438903808594 C 362.612548828125 122.9927978515625 364.0915832519531 123.10430908203125 365.3809814453125 122.94258117675781 C 366.57781982421875 122.79292297363281 367.7469482421875 122.47218322753906 368.8526306152344 121.99017333984375 C 370.6482238769531 121.20819091796875 372.40240478515625 119.749755859375 372.52850341796875 117.79605102539062 C 372.5981140136719 116.74140930175781 372.1662902832031 115.697509765625 371.5335388183594 114.848876953125 C 370.9007873535156 114.00025939941406 370.07257080078125 113.31939697265625 369.245361328125 112.65890502929688 C 368.41815185546875 111.9984130859375 367.5911865234375 111.36714172363281 366.59014892578125 111.11073303222656 L 366.0401306152344 111.58062744140625" stroke-width="0.6000000238418579" fill="rgb(218, 166, 20)" opacity="1.0"/>
    <path d="M 433.916259765625 156.5780029296875 C 430.778564453125 157.0615234375 428.62689208984375 159.99710083007812 429.1103515625 163.13482666015625 C 429.15179443359375 163.40350341796875 429.21221923828125 163.66891479492188 429.2911376953125 163.92904663085938 C 429.5914306640625 164.91744995117188 430.19940185546875 165.85531616210938 431.1142578125 166.33392333984375 C 431.8873291015625 166.73846435546875 432.79632568359375 166.78125 433.6666259765625 166.72784423828125 C 435.99609375 166.5816650390625 438.24383544921875 165.814453125 440.176513671875 164.505859375 C 440.686767578125 164.15911865234375 441.18524169921875 163.761474609375 441.48974609375 163.22335815429688 C 442.00140380859375 162.3203125 441.86932373046875 161.16842651367188 441.436767578125 160.22406005859375 C 440.795654296875 158.82162475585938 439.545654296875 157.7440185546875 438.11846923828125 157.15896606445312 C 436.6912841796875 156.57391357421875 435.10101318359375 156.4532470703125 433.57177734375 156.65325927734375 L 433.916259765625 156.5780029296875" stroke-width="0.6000000238418579" fill="rgb(143, 165, 67)" opacity="1.0"/>
    <path d="M 143.8431396484375 417.7584228515625 C 142.03627014160156 420.4154052734375 144.46041870117188 424.6322021484375 147.6529083251953 424.64398193359375 C 150.84539794921875 424.65576171875 153.28526306152344 420.72509765625 152.06565856933594 417.7513427734375 C 150.84605407714844 414.7774658203125 146.67811584472656 413.5982666015625 143.9474334716797 415.29931640625 L 143.8431396484375 417.7584228515625" stroke-width="0.6000000238418579" fill="rgb(233, 92, 21)" opacity="1.0"/>
    <path d="M 437.2440185546875 184.83920288085938 C 435.44708251953125 184.99664306640625 433.31689453125 185.37109375 432.593505859375 187.03033447265625 C 432.3314208984375 187.70181274414062 432.2840576171875 188.4381103515625 432.4581298828125 189.13763427734375 C 432.8421630859375 190.88003540039062 434.04693603515625 192.32821655273438 435.69036865234375 193.02291870117188 C 437.0859375 193.608642578125 438.6416015625 193.56698608398438 440.14404296875 193.4918212890625 C 440.9879150390625 193.4482421875 441.883056640625 193.37506103515625 442.55859375 192.87518310546875 C 443.4534912109375 192.201416015625 443.694091796875 190.96701049804688 443.740478515625 189.84814453125 C 443.81036376953125 188.21075439453125 443.61474609375 186.57281494140625 443.1612548828125 184.9979248046875 C 443.0035400390625 184.4541015625 442.802001953125 183.8955078125 442.39154052734375 183.5057373046875 C 441.9913330078125 183.16281127929688 441.5 182.9437255859375 440.9774169921875 182.875244140625 C 439.40045166015625 182.60580444335938 437.78460693359375 183.041748046875 436.55712890625 184.06777954101562 L 437.2440185546875 184.83920288085938" stroke-width="0.6000000238418579" fill="rgb(70, 150, 179)" opacity="1.0"/>
    <path d="M 408.5174865722656 158.29632568359375 C 408.06878662109375 156.56146240234375 407.49859619140625 154.65737915039062 405.9717102050781 153.72169494628906 C 404.3309020996094 152.71754455566406 402.1194152832031 153.24822998046875 400.58868408203125 154.4132843017578 C 399.9983215332031 154.8622283935547 399.45751953125 155.42318725585938 399.2231140136719 156.12677001953125 C 399.0301818847656 156.705078125 399.05841064453125 157.33148193359375 399.1221923828125 157.9376220703125 C 399.32110595703125 159.849365234375 399.9254455566406 161.85723876953125 401.4283447265625 163.05477905273438 C 402.9438781738281 164.2606201171875 405.253173828125 164.35604858398438 406.858154296875 163.26904296875 C 408.4631042480469 162.1820068359375 409.2511901855469 160.0123291015625 408.7024230957031 158.15185546875 L 408.5174865722656 158.29632568359375" stroke-width="0.6000000238418579" fill="rgb(140, 28, 33)" opacity="1.0"/>
    <path d="M 143.77334594726562 118.44064331054688 C 142.08580017089844 119.24188232421875 140.33865356445312 120.09420776367188 139.14019775390625 121.52899169921875 C 137.9417724609375 122.96372985839844 137.44927978515625 125.17451477050781 138.49671936035156 126.72256469726562 C 139.79393005371094 128.6305694580078 142.88552856445312 128.55787658691406 144.61082458496094 127.01968383789062 C 146.3361053466797 125.48150634765625 146.9105224609375 123.00643920898438 146.8890380859375 120.697998046875 C 146.95399475097656 119.98275756835938 146.7484588623047 119.2691650390625 146.31300354003906 118.69805908203125 C 145.82749938964844 118.1846923828125 144.79891967773438 118.16485595703125 144.5185089111328 118.81719970703125 L 143.77334594726562 118.44064331054688" stroke-width="0.6000000238418579" fill="rgb(159, 159, 159)" opacity="1.0"/>
    <path d="M 417.60009765625 177.6536865234375 C 416.1998291015625 176.4141845703125 414.344482421875 175.62744140625 412.4794921875 175.75042724609375 C 410.61456298828125 175.8734130859375 408.78509521484375 176.99624633789062 408.04876708984375 178.72268676757812 C 407.52972412109375 179.9439697265625 407.5853576660156 181.36175537109375 408.0224609375 182.61590576171875 C 408.45953369140625 183.87008666992188 409.2511901855469 184.97515869140625 410.1619567871094 185.94216918945312 C 410.55853271484375 186.36276245117188 411.0049743652344 186.77523803710938 411.5636901855469 186.91778564453125 C 412.2041015625 187.08151245117188 412.87353515625 186.861328125 413.4886474609375 186.61376953125 C 415.2252197265625 185.914794921875 416.9208984375 184.923095703125 417.97283935546875 183.3743896484375 C 419.0247802734375 181.82568359375 419.27471923828125 179.62286376953125 418.184326171875 178.10662841796875 L 417.60009765625 177.6536865234375" stroke-width="0.6000000238418579" fill="rgb(159, 159, 159)" opacity="1.0"/>
    <path d="M 404.9174499511719 186.059814453125 C 404.22467041015625 184.5286865234375 403.38824462890625 182.85675048828125 401.8247375488281 182.24948120117188 C 400.3050537109375 181.65673828125 398.6056213378906 182.26400756835938 397.1004333496094 182.89459228515625 C 396.4893493652344 183.151611328125 395.85418701171875 183.4302978515625 395.4375915527344 183.94552612304688 C 394.7325134277344 184.8165283203125 394.8537292480469 186.08795166015625 395.1791687011719 187.1585693359375 C 395.4808349609375 188.15240478515625 395.92364501953125 189.0977783203125 396.4940490722656 189.96575927734375 C 397.419677734375 191.37542724609375 398.91339111328125 192.65121459960938 400.5897521972656 192.47311401367188 C 401.4949035644531 192.3782958984375 402.3177795410156 191.8594970703125 402.9455871582031 191.19866943359375 C 403.57342529296875 190.537841796875 404.0303649902344 189.73565673828125 404.47015380859375 188.937255859375 C 404.9099426269531 188.13885498046875 405.3249816894531 187.34494018554688 405.396484375 186.4580078125 L 404.9174499511719 186.059814453125" stroke-width="0.6000000238418579" fill="rgb(218, 166, 20)" opacity="1.0"/>
    <path d="M 449.31317138671875 179.87948608398438 C 448.2650146484375 182.43450927734375 449.48663330078125 185.35546875 452.0416259765625 186.40359497070312 C 452.26043701171875 186.49334716796875 452.4853515625 186.56747436523438 452.714599609375 186.62539672851562 C 453.5858154296875 186.8453369140625 454.5576171875 186.81329345703125 455.32489013671875 186.346435546875 C 455.97332763671875 185.95196533203125 456.4132080078125 185.29385375976562 456.7640380859375 184.62139892578125 C 457.70074462890625 182.820068359375 458.13800048828125 180.80078125 458.03045654296875 178.7733154296875 C 458.0010986328125 178.23745727539062 457.9285888671875 177.68756103515625 457.664306640625 177.21914672851562 C 457.2210693359375 176.43252563476562 456.303466796875 176.01388549804688 455.4056396484375 175.91229248046875 C 454.0728759765625 175.76052856445312 452.70880126953125 176.208251953125 451.63226318359375 177.00906372070312 C 450.55572509765625 177.80987548828125 449.751953125 178.940673828125 449.214599609375 180.16998291015625 L 449.31317138671875 179.87948608398438" stroke-width="0.6000000238418579" fill="rgb(143, 165, 67)" opacity="1.0"/>
    <path d="M 146.33990478515625 107.74087524414062 C 142.44859313964844 110.03276062011719 142.99781799316406 116.8468017578125 147.04782104492188 118.7783203125 C 151.0978240966797 120.70980834960938 156.55816650390625 117.17938232421875 156.79351806640625 112.66806030273438 C 157.02886962890625 108.15675354003906 152.44012451171875 104.15597534179688 147.94876098632812 104.67835998535156 L 146.33990478515625 107.74087524414062" stroke-width="0.6000000238418579" fill="rgb(233, 92, 21)" opacity="1.0"/>
    <path d="M 451.0438232421875 151.80238342285156 C 449.82373046875 153.67762756347656 448.560791015625 156.044189453125 449.6280517578125 158.01910400390625 C 450.0833740234375 158.78848266601562 450.7662353515625 159.39764404296875 451.58245849609375 159.76251220703125 C 453.57763671875 160.7196044921875 455.9129638671875 160.6502685546875 457.84783935546875 159.57647705078125 C 459.48681640625 158.66143798828125 460.63555908203125 157.1103515625 461.7108154296875 155.5857391357422 C 462.3134765625 154.72833251953125 462.9263916015625 153.7981719970703 462.9547119140625 152.75628662109375 C 462.98095703125 151.3672332763672 461.95941162109375 150.18849182128906 460.9022216796875 149.2877960205078 C 459.35662841796875 147.96768188476562 457.6075439453125 146.90643310546875 455.722900390625 146.1452178955078 C 455.0711669921875 145.8834686279297 454.37158203125 145.65322875976562 453.6771240234375 145.7560577392578 C 453.0362548828125 145.88470458984375 452.44671630859375 146.197021484375 451.98028564453125 146.65496826171875 C 450.511474609375 147.98899841308594 449.7017822265625 149.9002227783203 449.76531982421875 151.8834228515625 L 451.0438232421875 151.80238342285156" stroke-width="0.6000000238418579" fill="rgb(70, 150, 179)" opacity="1.0"/>
    <path d="M 376.11651611328125 79.87542724609375 C 375.9637145996094 77.55397033691406 375.69683837890625 74.98724365234375 373.9754638671875 73.4244384765625 C 372.12530517578125 71.74673461914062 369.176025390625 71.88885498046875 366.94171142578125 73.00479125976562 C 366.0800476074219 73.4346923828125 365.2545471191406 74.01943969726562 364.785400390625 74.86024475097656 C 364.3994445800781 75.55128479003906 364.283935546875 76.35714721679688 364.2187194824219 77.14578247070312 C 364.0101013183594 79.63246154785156 364.2954406738281 82.33984375 365.92291259765625 84.2308349609375 C 367.5644836425781 86.13554382324219 370.48712158203125 86.81570434570312 372.79730224609375 85.8172607421875 C 375.1074523925781 84.81881713867188 376.6374206542969 82.24176025390625 376.38739013671875 79.73585510253906 L 376.11651611328125 79.87542724609375" stroke-width="0.6000000238418579" fill="rgb(140, 28, 33)" opacity="1.0"/>
    <path d="M 129.9501190185547 411.8527526855469 C 127.47784423828125 413.51904296875 124.92369079589844 415.2801513671875 123.37411499023438 417.8297119140625 C 121.8245849609375 420.3792724609375 121.57388305664062 423.9853515625 123.595458984375 426.1788330078125 C 126.09695434570312 428.880859375 130.95840454101562 428.0299072265625 133.3147430419922 425.19171142578125 C 135.6710662841797 422.353515625 135.9881134033203 418.310791015625 135.4044952392578 414.673095703125 C 135.33665466308594 413.52886962890625 134.84237670898438 412.45172119140625 134.01918029785156 411.6541748046875 C 133.1307830810547 410.9596862792969 131.5028839111328 411.1733093261719 131.21571350097656 412.26953125 L 129.9501190185547 411.8527526855469" stroke-width="0.6000000238418579" fill="rgb(159, 159, 159)" opacity="1.0"/>
    <path d="M 409.90509033203125 206.07489013671875 C 408.73199462890625 203.9918212890625 406.8196105957031 202.26531982421875 404.51513671875 201.63385009765625 C 402.210693359375 201.00234985351562 399.5309143066406 201.59356689453125 397.9192199707031 203.37127685546875 C 396.7813415527344 204.62957763671875 396.25555419921875 206.36563110351562 396.2590026855469 208.0635986328125 C 396.262451171875 209.76156616210938 396.7566223144531 211.42767333984375 397.452392578125 212.97686767578125 C 397.7555847167969 213.65087890625 398.1224060058594 214.33587646484375 398.73773193359375 214.74179077148438 C 399.4429626464844 215.20745849609375 400.3437805175781 215.22149658203125 401.1904296875 215.1796875 C 403.5807189941406 215.0616455078125 406.0439453125 214.57281494140625 407.96258544921875 213.141845703125 C 409.8812561035156 211.71090698242188 411.10455322265625 209.15426635742188 410.4215087890625 206.86648559570312 L 409.90509033203125 206.07489013671875" stroke-width="0.6000000238418579" fill="rgb(159, 159, 159)" opacity="1.0"/>
    <path d="M 386.97625732421875 119.87408447265625 C 384.8194885253906 120.82699584960938 382.46343994140625 121.97964477539062 381.59197998046875 124.1656494140625 C 380.74151611328125 126.29034423828125 381.57232666015625 128.6821746826172 382.4382629394531 130.80172729492188 C 382.79132080078125 131.66224670410156 383.17437744140625 132.55685424804688 383.8920593261719 133.147705078125 C 385.10528564453125 134.14773559570312 386.89056396484375 133.99349975585938 388.3966369628906 133.55026245117188 C 389.7947082519531 133.13938903808594 391.12652587890625 132.52989196777344 392.3513488769531 131.74044799804688 C 394.340576171875 130.45932006835938 396.1490783691406 128.3795928955078 395.9200439453125 126.02548217773438 C 395.79827880859375 124.75439453125 395.0806579589844 123.59349060058594 394.1613464355469 122.70443725585938 C 393.2420654296875 121.81539916992188 392.12225341796875 121.16436767578125 391.00762939453125 120.53742980957031 C 389.8929748535156 119.91049194335938 388.7843017578125 119.31832885742188 387.5408630371094 119.20697021484375 L 386.97625732421875 119.87408447265625" stroke-width="0.6000000238418579" fill="rgb(218, 166, 20)" opacity="1.0"/>
    <path d="M 401.8271789550781 82.26615905761719 C 399.18463134765625 79.68804931640625 394.95245361328125 79.74026489257812 392.37432861328125 82.38279724121094 C 392.153564453125 82.60906982421875 391.9491271972656 82.85073852539062 391.7625732421875 83.10595703125 C 391.0538330078125 84.07583618164062 390.607177734375 85.29644775390625 390.8018493652344 86.48123168945312 C 390.96624755859375 87.48245239257812 391.56182861328125 88.35716247558594 392.2198181152344 89.128662109375 C 393.9838562011719 91.19136047363281 396.2680358886719 92.74409484863281 398.8350830078125 93.62557983398438 C 399.5140075683594 93.85743713378906 400.23199462890625 94.042724609375 400.94488525390625 93.9495849609375 C 402.1418151855469 93.79391479492188 403.1200256347656 92.86602783203125 403.6953430175781 91.80398559570312 C 404.5505676269531 90.22784423828125 404.6783142089844 88.31288146972656 404.2244873046875 86.57760620117188 C 403.77069091796875 84.84231567382812 402.771240234375 83.27999877929688 401.5164489746094 81.99856567382812 L 401.8271789550781 82.26615905761719" stroke-width="0.6000000238418579" fill="rgb(143, 165, 67)" opacity="1.0"/>
    <path d="M 116.82260131835938 423.5421142578125 C 114.43048095703125 419.63153076171875 107.52395629882812 420.3045654296875 105.63226318359375 424.44781494140625 C 103.7406005859375 428.591064453125 107.41641235351562 434.0731201171875 111.99911499023438 434.2354736328125 C 116.58181762695312 434.3978271484375 120.56451416015625 429.67266845703125 119.95816040039062 425.123046875 L 116.82260131835938 423.5421142578125" stroke-width="0.6000000238418579" fill="rgb(233, 92, 21)" opacity="1.0"/>
    <path d="M 445.90478515625 196.26693725585938 C 444.7047119140625 198.18240356445312 443.4698486328125 200.59490966796875 444.58221435546875 202.57147216796875 C 445.0555419921875 203.3408203125 445.755859375 203.9443359375 446.586669921875 204.29876708984375 C 448.6187744140625 205.2310791015625 450.9766845703125 205.12057495117188 452.91265869140625 204.00238037109375 C 454.552490234375 203.04959106445312 455.68603515625 201.46282958984375 456.745849609375 199.90408325195312 C 457.33978271484375 199.02749633789062 457.94287109375 198.07723999023438 457.953369140625 197.02426147460938 C 457.955810546875 195.62060546875 456.90350341796875 194.44757080078125 455.8199462890625 193.5560302734375 C 454.2357177734375 192.24920654296875 452.45050048828125 191.20745849609375 450.533447265625 190.47113037109375 C 449.87060546875 190.218017578125 449.159912109375 189.99755859375 448.4600830078125 190.11346435546875 C 447.81494140625 190.2545166015625 447.22479248046875 190.5802001953125 446.7615966796875 191.0509033203125 C 445.3009033203125 192.4239501953125 444.51611328125 194.36865234375 444.6146240234375 196.3709716796875 L 445.90478515625 196.26693725585938" stroke-width="0.6000000238418579" fill="rgb(70, 150, 179)" opacity="1.0"/>
    <path d="M 412.504638671875 134.5860137939453 C 412.059326171875 132.170654296875 411.46435546875 129.51210021972656 409.4674987792969 128.08480834960938 C 407.321533203125 126.5528564453125 404.2465515136719 127.06405639648438 402.0408020019531 128.50852966308594 C 401.19012451171875 129.06509399414062 400.3963317871094 129.77960205078125 400.0076599121094 130.7188262939453 C 399.6878356933594 131.4907989501953 399.6656799316406 132.34996032714844 399.69415283203125 133.18487548828125 C 399.78076171875 135.81788635253906 400.4123840332031 138.62164306640625 402.35107421875 140.4045867919922 C 404.30621337890625 142.2001495361328 407.4542541503906 142.55445861816406 409.7539367675781 141.22386169433594 C 412.0535888671875 139.89328002929688 413.3414306640625 137.00326538085938 412.771484375 134.4064178466797 L 412.504638671875 134.5860137939453" stroke-width="0.6000000238418579" fill="rgb(140, 28, 33)" opacity="1.0"/>
    <path d="M 400.76300048828125 74.2723388671875 C 401.6831359863281 77.10812377929688 402.67181396484375 80.04876708984375 404.69537353515625 82.24113464355469 C 406.7188720703125 84.43345642089844 410.11602783203125 85.6685791015625 412.78173828125 84.33006286621094 C 416.0687255859375 82.67047119140625 416.5909423828125 77.76290893554688 414.5123291015625 74.71548461914062 C 412.43377685546875 71.66806030273438 408.63525390625 70.24880981445312 404.9776611328125 69.80694580078125 C 403.8591003417969 69.55671691894531 402.6874694824219 69.73487854003906 401.6938781738281 70.3062744140625 C 400.7814025878906 70.96878051757812 400.5379638671875 72.59246826171875 401.5125427246094 73.17071533203125 L 400.76300048828125 74.2723388671875" stroke-width="0.6000000238418579" fill="rgb(159, 159, 159)" opacity="1.0"/>
    <path d="M 441.6153564453125 235.03271484375 C 440.1910400390625 236.99188232421875 439.406982421875 239.481689453125 439.79705810546875 241.8709716796875 C 440.1871337890625 244.26025390625 441.8619384765625 246.4796142578125 444.17919921875 247.21469116210938 C 445.8182373046875 247.7322998046875 447.63934326171875 247.48455810546875 449.2021484375 246.76531982421875 C 450.764892578125 246.04611206054688 452.09136962890625 244.88824462890625 453.22509765625 243.59396362304688 C 453.71820068359375 243.03042602539062 454.194580078125 242.40362548828125 454.30902099609375 241.66558837890625 C 454.44061279296875 240.81951904296875 454.0736083984375 239.98370361328125 453.6781005859375 239.22137451171875 C 452.56134033203125 237.06915283203125 451.072265625 235.00604248046875 448.94482421875 233.84197998046875 C 446.8175048828125 232.67791748046875 443.94635009765625 232.62908935546875 442.1268310546875 234.22314453125 L 441.6153564453125 235.03271484375" stroke-width="0.6000000238418579" fill="rgb(159, 159, 159)" opacity="1.0"/>
    <path d="M 408.7979736328125 260.68695068359375 C 407.3985900878906 258.6768493652344 405.7560119628906 256.5031433105469 403.3542785644531 256.04815673828125 C 401.0191955566406 255.60238647460938 398.74517822265625 256.9239196777344 396.7557678222656 258.22723388671875 C 395.9483947753906 258.75787353515625 395.1121826171875 259.32586669921875 394.6520690917969 260.1748352050781 C 393.873046875 261.6102294921875 394.3843994140625 263.39996337890625 395.1350402832031 264.8476867675781 C 395.8312683105469 266.19171142578125 396.7168884277344 267.4288024902344 397.7647399902344 268.5210876464844 C 399.465576171875 270.2952575683594 401.9447937011719 271.7267761230469 404.2997131347656 271.0263671875 C 405.57159423828125 270.65008544921875 406.6129455566406 269.6881103515625 407.3371276855469 268.574462890625 C 408.061279296875 267.4607849121094 408.50299072265625 266.18988037109375 408.9211730957031 264.92901611328125 C 409.33935546875 263.66815185546875 409.7232360839844 262.4202575683594 409.5901794433594 261.1303405761719 L 408.7979736328125 260.68695068359375" stroke-width="0.6000000238418579" fill="rgb(218, 166, 20)" opacity="1.0"/>
    <path d="M 415.5830078125 86.32928466796875 C 414.0140380859375 89.7373046875 415.50482177734375 93.77200317382812 418.912841796875 95.34103393554688 C 419.2047119140625 95.47537231445312 419.50567626953125 95.5888671875 419.8135986328125 95.68063354492188 C 420.9835205078125 96.02908325195312 422.304443359375 96.04121398925781 423.37255859375 95.45147705078125 C 424.275390625 94.95318603515625 424.91015625 94.08509826660156 425.4249267578125 93.19241333007812 C 426.7994384765625 90.80105590820312 427.50860595703125 88.08523559570312 427.478759765625 85.32711791992188 C 427.4696044921875 84.59808349609375 427.402587890625 83.84751892089844 427.07073974609375 83.19659423828125 C 426.51416015625 82.10348510742188 425.292724609375 81.48271179199219 424.079833984375 81.29339599609375 C 422.27947998046875 81.01104736328125 420.40234375 81.54066467285156 418.895263671875 82.56596374511719 C 417.38818359375 83.59126281738281 416.232421875 85.08013916015625 415.4326171875 86.71791076660156 L 415.5830078125 86.32928466796875" stroke-width="0.6000000238418579" fill="rgb(143, 165, 67)" opacity="1.0"/>
    <path d="M 441.7664794921875 129.33010864257812 C 439.6309814453125 133.2176055908203 443.513671875 138.69512939453125 447.9022216796875 138.2938232421875 C 452.290771484375 137.89248657226562 455.1295166015625 132.17201232910156 453.064697265625 128.24501037597656 C 450.9998779296875 124.31800842285156 445.1181640625 123.24258422851562 441.58819580078125 125.93717956542969 L 441.7664794921875 129.33010864257812" stroke-width="0.6000000238418579" fill="rgb(233, 92, 21)" opacity="1.0"/>
    <path d="M 445.70556640625 95.501708984375 C 444.8963623046875 97.55999755859375 444.1431884765625 100.10260009765625 445.5689697265625 101.80317687988281 C 446.1627197265625 102.45785522460938 446.9449462890625 102.91217041015625 447.807861328125 103.10342407226562 C 449.9300537109375 103.63406372070312 452.1778564453125 103.10317993164062 453.83837890625 101.67910766601562 C 455.243896484375 100.46746826171875 456.04833984375 98.73728942871094 456.786865234375 97.04730224609375 C 457.2001953125 96.09730529785156 457.60906982421875 95.07479858398438 457.4295654296875 94.06022644042969 C 457.17913818359375 92.7098388671875 455.955810546875 91.77119445800781 454.75311279296875 91.10888671875 C 452.9942626953125 90.13739013671875 451.08966064453125 89.45700073242188 449.11334228515625 89.09408569335938 C 448.4302978515625 88.97001647949219 447.70703125 88.88597106933594 447.054931640625 89.12345886230469 C 446.45989990234375 89.37530517578125 445.950927734375 89.79483032226562 445.5902099609375 90.3309326171875 C 444.4327392578125 91.91448974609375 444.02813720703125 93.9261474609375 444.4835205078125 95.83407592773438 L 445.70556640625 95.501708984375" stroke-width="0.6000000238418579" fill="rgb(70, 150, 179)" opacity="1.0"/>
    <path d="M 320.3313293457031 379.72454833984375 C 318.0676574707031 380.2043151855469 315.57867431640625 380.83111572265625 314.2843322753906 382.7474365234375 C 312.8951721191406 384.80682373046875 313.4534606933594 387.6900939941406 314.8690185546875 389.73138427734375 C 315.4144592285156 390.5186462402344 316.10723876953125 391.2483825683594 317.00152587890625 391.5909729003906 C 317.7365417480469 391.8728942871094 318.5462646484375 391.8722839355469 319.3319091796875 391.8246154785156 C 321.8095397949219 391.6772155761719 324.4343566894531 391.01226806640625 326.0650939941406 389.141845703125 C 327.7073059082031 387.255615234375 327.9623107910156 384.2818908691406 326.65167236328125 382.1492919921875 C 325.3410339355469 380.01666259765625 322.5870056152344 378.8760681152344 320.155517578125 379.4776916503906 L 320.3313293457031 379.72454833984375" stroke-width="0.6000000238418579" fill="rgb(140, 28, 33)" opacity="1.0"/>
    <path d="M 305.58837890625 397.4994201660156 C 302.353271484375 398.4932861328125 298.9979248046875 399.5631103515625 296.4734802246094 401.82086181640625 C 293.9490966796875 404.07855224609375 292.4866943359375 407.9124450683594 293.95843505859375 410.9620056152344 C 295.7835998535156 414.7222900390625 301.34454345703125 415.4024658203125 304.84051513671875 413.0975341796875 C 308.3364562988281 410.79254150390625 310.0150146484375 406.5063781738281 310.5816955566406 402.36273193359375 C 310.8856201171875 401.09759521484375 310.70428466796875 399.7645568847656 310.0733947753906 398.62664794921875 C 309.33770751953125 397.57916259765625 307.4991149902344 397.27392578125 306.8254089355469 398.3697814941406 L 305.58837890625 397.4994201660156" stroke-width="0.6000000238418579" fill="rgb(159, 159, 159)" opacity="1.0"/>
    <path d="M 324.868408203125 410.60369873046875 C 322.3160095214844 411.95343017578125 320.1704406738281 414.20709228515625 319.3343811035156 416.9691162109375 C 318.4983215332031 419.731201171875 319.12646484375 422.9854736328125 321.22119140625 424.98809814453125 C 322.7039794921875 426.402099609375 324.7831726074219 427.09234619140625 326.8332824707031 427.1424560546875 C 328.8833923339844 427.19256591796875 330.91070556640625 426.64923095703125 332.8033142089844 425.85870361328125 C 333.6267395019531 425.51416015625 334.46551513671875 425.09326171875 334.9752197265625 424.36328125 C 335.55999755859375 423.5267333984375 335.6057434082031 422.4395751953125 335.58233642578125 421.41607666015625 C 335.5162048339844 418.5264892578125 335.0047302246094 415.53692626953125 333.33843994140625 413.1748046875 C 331.6721496582031 410.8126220703125 328.6245422363281 409.25396728515625 325.84063720703125 410.0055236816406 L 324.868408203125 410.60369873046875" stroke-width="0.6000000238418579" fill="rgb(159, 159, 159)" opacity="1.0"/>
    <path d="M 274.624755859375 413.8876953125 C 272.6080322265625 415.87451171875 270.4524230957031 418.17041015625 270.40313720703125 420.9954833984375 C 270.35137939453125 423.7427978515625 272.3010559082031 426.07537841796875 274.1744079589844 428.0872802734375 C 274.9366455078125 428.90350341796875 275.7470703125 429.7452392578125 276.80413818359375 430.10357666015625 C 278.5915832519531 430.71075439453125 280.5306701660156 429.7786865234375 282.0334167480469 428.6407470703125 C 283.42864990234375 427.58502197265625 284.6650390625 426.33447265625 285.70477294921875 424.9273681640625 C 287.39385986328125 422.6431884765625 288.5404968261719 419.5390625 287.2826232910156 416.9930419921875 C 286.60552978515625 415.61749267578125 285.30621337890625 414.6190185546875 283.8960266113281 414.011474609375 C 282.4858093261719 413.4039306640625 280.95166015625 413.14892578125 279.43353271484375 412.9188232421875 C 277.9153747558594 412.6885986328125 276.4187316894531 412.4949951171875 274.97515869140625 412.8985595703125 L 274.624755859375 413.8876953125" stroke-width="0.6000000238418579" fill="rgb(218, 166, 20)" opacity="1.0"/>
    <path d="M 222.959228515625 413.1385498046875 C 218.38088989257812 411.63885498046875 213.45367431640625 414.134521484375 211.95391845703125 418.712890625 C 211.82550048828125 419.10491943359375 211.72506713867188 419.50555419921875 211.65335083007812 419.911865234375 C 211.381103515625 421.45556640625 211.56005859375 423.1422119140625 212.4696044921875 424.41802978515625 C 213.2381591796875 425.4962158203125 214.43893432617188 426.17822265625 215.6534423828125 426.703369140625 C 218.90625 428.104736328125 222.4749755859375 428.6094970703125 225.9888916015625 428.16534423828125 C 226.91751098632812 428.04638671875 227.86508178710938 427.8504638671875 228.64654541015625 427.33123779296875 C 229.958984375 426.46038818359375 230.571044921875 424.810791015625 230.63397216796875 423.23583984375 C 230.72906494140625 420.897705078125 229.77716064453125 418.5811767578125 228.24737548828125 416.8096923828125 C 226.71762084960938 415.0380859375 224.64825439453125 413.7830810546875 222.44134521484375 413.00390625 L 222.959228515625 413.1385498046875" stroke-width="0.6000000238418579" fill="rgb(143, 165, 67)" opacity="1.0"/>
    <path d="M 283.9552917480469 367.77685546875 C 284.4819641113281 373.3072509765625 292.3614501953125 376.2452392578125 296.62384033203125 372.73834228515625 C 300.8862609863281 369.2314147949219 299.79681396484375 361.30731201171875 294.8921813964844 358.6946716308594 C 289.987548828125 356.0820617675781 283.1385192871094 359.1112976074219 281.3807067871094 364.38848876953125 L 283.9552917480469 367.77685546875" stroke-width="0.6000000238418579" fill="rgb(233, 92, 21)" opacity="1.0"/>
    <path d="M 332.7364807128906 363.2471923828125 C 332.588134765625 365.9559631347656 332.69189453125 369.20703125 335.0079345703125 370.63726806640625 C 335.9517822265625 371.17059326171875 337.0378723144531 371.39788818359375 338.1163635253906 371.2877502441406 C 340.7921447753906 371.0871276855469 343.2046813964844 369.60198974609375 344.5889587402344 367.3033447265625 C 345.7582092285156 365.3504333496094 346.02752685546875 363.0255126953125 346.2356872558594 360.7728576660156 C 346.35052490234375 359.50726318359375 346.4322509765625 358.1589660644531 345.8319091796875 357.0468444824219 C 345.0195007324219 355.5710144042969 343.2330017089844 354.94989013671875 341.5771789550781 354.642578125 C 339.1544189453125 354.1897888183594 336.6743469238281 354.1321105957031 334.2331237792969 354.4718017578125 C 333.389892578125 354.5907897949219 332.515380859375 354.7718505859375 331.84765625 355.2999267578125 C 331.2519226074219 355.8226623535156 330.8211364746094 356.5074768066406 330.60784912109375 357.27081298828125 C 329.870849609375 359.5611877441406 330.1756591796875 362.0595703125 331.44171142578125 364.1055603027344 L 332.7364807128906 363.2471923828125" stroke-width="0.6000000238418579" fill="rgb(70, 150, 179)" opacity="1.0"/>
    <path d="M 294.1362609863281 413.7149658203125 C 291.2153625488281 413.8267822265625 287.98248291015625 414.0733642578125 285.9602355957031 416.181396484375 C 283.7892761230469 418.447265625 283.8659973144531 422.15625 285.1904602050781 425.0009765625 C 285.7006530761719 426.0980224609375 286.4065856933594 427.155029296875 287.4464111328125 427.77325439453125 C 288.3009948730469 428.2818603515625 289.3091125488281 428.4547119140625 290.29736328125 428.5638427734375 C 293.4132995605469 428.91162109375 296.823486328125 428.646728515625 299.2546691894531 426.66796875 C 301.7035217285156 424.6719970703125 302.65863037109375 421.0247802734375 301.484375 418.0888671875 C 300.31011962890625 415.1529541015625 297.1262512207031 413.1424560546875 293.9703369140625 413.3699951171875 L 294.1362609863281 413.7149658203125" stroke-width="0.6000000238418579" fill="rgb(140, 28, 33)" opacity="1.0"/>
    <path d="M 334.82623291015625 388.3478088378906 C 331.4544372558594 388.68707275390625 327.94964599609375 389.0772705078125 325.02691650390625 390.7972412109375 C 322.104248046875 392.5172119140625 319.91412353515625 395.99359130859375 320.7591247558594 399.27728271484375 C 321.81121826171875 403.3282775878906 327.1371765136719 405.0902099609375 331.0230407714844 403.5149841308594 C 334.90887451171875 401.93975830078125 337.40020751953125 398.06182861328125 338.7718505859375 394.1050720214844 C 339.31915283203125 392.9227600097656 339.40338134765625 391.57830810546875 339.00787353515625 390.3369445800781 C 338.4916687011719 389.16375732421875 336.7465515136719 388.5023498535156 335.8695068359375 389.44573974609375 L 334.82623291015625 388.3478088378906" stroke-width="0.6000000238418579" fill="rgb(159, 159, 159)" opacity="1.0"/>
    <path d="M 344.6011047363281 408.92547607421875 C 341.7135925292969 408.8299865722656 338.73046875 409.7217712402344 336.63226318359375 411.7055969238281 C 334.5340576171875 413.689453125 333.4631652832031 416.828125 334.28790283203125 419.608154296875 C 334.87347412109375 421.57293701171875 336.3365783691406 423.205322265625 338.0924072265625 424.2672119140625 C 339.8482666015625 425.3291015625 341.8791198730469 425.8641357421875 343.9157409667969 426.11761474609375 C 344.8020935058594 426.2274169921875 345.73974609375 426.2784423828125 346.5450744628906 425.8975830078125 C 347.46856689453125 425.46142578125 348.0483093261719 424.539794921875 348.5364074707031 423.63916015625 C 349.9143371582031 421.096435546875 350.955078125 418.24560546875 350.68109130859375 415.3660888671875 C 350.4071044921875 412.486572265625 348.5341796875 409.618896484375 345.74273681640625 408.8888244628906 L 344.6011047363281 408.92547607421875" stroke-width="0.6000000238418579" fill="rgb(159, 159, 159)" opacity="1.0"/>
    <path d="M 256.6315612792969 370.5273742675781 C 256.74493408203125 367.7768859863281 256.75177001953125 364.7146911621094 254.91094970703125 362.6751403808594 C 253.12353515625 360.68914794921875 250.18972778320312 360.32672119140625 247.5230712890625 360.14141845703125 C 246.43963623046875 360.0677490234375 245.3050537109375 360.0079345703125 244.31622314453125 360.4552307128906 C 242.643310546875 361.21075439453125 241.884765625 363.1604309082031 241.57284545898438 364.96661376953125 C 241.28271484375 366.6429138183594 241.2347412109375 368.35223388671875 241.43048095703125 370.04217529296875 C 241.747314453125 372.78631591796875 242.99383544921875 375.7527160644531 245.57794189453125 376.72613525390625 C 246.97225952148438 377.253662109375 248.5582275390625 377.1002502441406 249.96337890625 376.5954284667969 C 251.3685302734375 376.09063720703125 252.62762451171875 375.25311279296875 253.85888671875 374.4085998535156 C 255.09014892578125 373.5640563964844 256.2818908691406 372.7078552246094 257.0393981933594 371.4626770019531 L 256.6315612792969 370.5273742675781" stroke-width="0.6000000238418579" fill="rgb(218, 166, 20)" opacity="1.0"/>
    <path d="M 254.14822387695312 392.0870056152344 C 251.49703979492188 388.3352355957031 246.30645751953125 387.44305419921875 242.5546875 390.0942077636719 C 242.2333984375 390.32122802734375 241.92864990234375 390.5707702636719 241.6427001953125 390.8409118652344 C 240.55633544921875 391.86761474609375 239.73403930664062 393.2603454589844 239.70458984375 394.7541198730469 C 239.6795654296875 396.0164489746094 240.21075439453125 397.2213439941406 240.84161376953125 398.3140563964844 C 242.53424072265625 401.23663330078125 244.97857666015625 403.6527099609375 247.92062377929688 405.311279296875 C 248.69903564453125 405.7483825683594 249.5357666015625 406.1372985839844 250.42913818359375 406.18438720703125 C 251.928955078125 406.2643127441406 253.3355712890625 405.349853515625 254.279541015625 404.18023681640625 C 255.68212890625 402.44476318359375 256.27105712890625 400.1303405761719 256.1077575683594 397.9043884277344 C 255.9444580078125 395.678466796875 255.07440185546875 393.5408935546875 253.82843017578125 391.6893615722656 L 254.14822387695312 392.0870056152344" stroke-width="0.6000000238418579" fill="rgb(143, 165, 67)" opacity="1.0"/>
    <path d="M 204.15557861328125 372.14593505859375 C 202.477294921875 377.4561462402344 208.599609375 383.2513122558594 213.90591430664062 381.682861328125 C 219.21221923828125 380.1143798828125 221.307861328125 372.3747253417969 217.80377197265625 368.0440368652344 C 214.29965209960938 363.7133483886719 206.7930908203125 363.8287048339844 203.10549926757812 368.01116943359375 L 204.15557861328125 372.14593505859375" stroke-width="0.6000000238418579" fill="rgb(233, 92, 21)" opacity="1.0"/>
    <path d="M 270.4197998046875 369.8408203125 C 269.97607421875 372.51800537109375 269.72369384765625 375.7619934082031 271.8702087402344 377.4374084472656 C 272.7503662109375 378.0708923339844 273.805419921875 378.4156799316406 274.88983154296875 378.42413330078125 C 277.5723876953125 378.5172424316406 280.1336669921875 377.30438232421875 281.761474609375 375.1701354980469 C 283.1376647949219 373.3561706542969 283.65972900390625 371.07391357421875 284.1130065917969 368.8567810058594 C 284.3656311035156 367.6109313964844 284.5943603515625 366.2792053222656 284.1190185546875 365.10772705078125 C 283.4726257324219 363.55145263671875 281.7641906738281 362.7384948730469 280.1513366699219 362.2518310546875 C 277.7918395996094 361.53662109375 275.3321228027344 361.20806884765625 272.8676452636719 361.27886962890625 C 272.0161437988281 361.30499267578125 271.1268310546875 361.3893737792969 270.4051208496094 361.8414306640625 C 269.7555847167969 362.2960510253906 269.25238037109375 362.92987060546875 268.9568176269531 363.6655578613281 C 267.9735107421875 365.8623352050781 268.00335693359375 368.3798828125 269.03851318359375 370.5527038574219 L 270.4197998046875 369.8408203125" stroke-width="0.6000000238418579" fill="rgb(70, 150, 179)" opacity="1.0"/>
    <path d="M 328.88433837890625 366.0192565917969 C 329.25689697265625 363.1658935546875 329.5500183105469 359.987548828125 327.83709716796875 357.6776428222656 C 325.9955139160156 355.1974182128906 322.38299560546875 354.6609802246094 319.40386962890625 355.4779357910156 C 318.2550964355469 355.79241943359375 317.11297607421875 356.3034973144531 316.3416442871094 357.21087646484375 C 315.7073059082031 357.9565734863281 315.37347412109375 358.90655517578125 315.10479736328125 359.84771728515625 C 314.2539978027344 362.814697265625 313.949462890625 366.16815185546875 315.4695739746094 368.8536682128906 C 317.0035095214844 371.5591735839844 320.3860778808594 373.0869140625 323.4289855957031 372.43072509765625 C 326.4718933105469 371.7745666503906 328.9476013183594 369.01556396484375 329.24652099609375 365.9150390625 L 328.88433837890625 366.0192565917969" stroke-width="0.6000000238418579" fill="rgb(140, 28, 33)" opacity="1.0"/>
    <path d="M 351.4881591796875 391.8436584472656 C 348.1349182128906 392.33636474609375 344.651123046875 392.88604736328125 341.8094787597656 394.73773193359375 C 338.9678955078125 396.5893859863281 336.93829345703125 400.1625061035156 337.9322509765625 403.4046325683594 C 339.1680908203125 407.4039611816406 344.5695495605469 408.92144775390625 348.3800354003906 407.17047119140625 C 352.1905517578125 405.4194641113281 354.50274658203125 401.43145751953125 355.6927185058594 397.415771484375 C 356.18560791015625 396.2095642089844 356.2084655761719 394.86248779296875 355.7567138671875 393.64031982421875 C 355.18743896484375 392.4917297363281 353.4137878417969 391.9104919433594 352.58056640625 392.89300537109375 L 351.4881591796875 391.8436584472656" stroke-width="0.6000000238418579" fill="rgb(159, 159, 159)" opacity="1.0"/>
    <path d="M 187.39907836914062 406.60784912109375 C 184.47555541992188 407.1416320800781 181.67123413085938 408.688720703125 179.99465942382812 411.140625 C 178.31808471679688 413.592529296875 177.92611694335938 416.9813232421875 179.36151123046875 419.5960693359375 C 180.378662109375 421.4434814453125 182.20550537109375 422.76531982421875 184.20220947265625 423.4498291015625 C 186.1988525390625 424.1343994140625 188.35711669921875 424.22930908203125 190.459716796875 424.0399169921875 C 191.37469482421875 423.95703125 192.32843017578125 423.8037109375 193.054931640625 423.2452392578125 C 193.88812255859375 422.60540771484375 194.26992797851562 421.552490234375 194.56414794921875 420.5406494140625 C 195.394775390625 417.6839599609375 195.8192138671875 414.5911865234375 194.915771484375 411.7563171386719 C 194.01229858398438 408.9214172363281 191.50408935546875 406.4471130371094 188.53872680664062 406.322021484375 L 187.39907836914062 406.60784912109375" stroke-width="0.6000000238418579" fill="rgb(159, 159, 159)" opacity="1.0"/>
    <path d="M 356.13262939453125 375.0483093261719 C 353.4364318847656 375.5291442871094 350.4602966308594 376.1804504394531 348.8745422363281 378.4068603515625 C 347.3293762207031 380.56988525390625 347.607666015625 383.4976806640625 348.0006408691406 386.1279296875 C 348.1618347167969 387.1961975097656 348.3475036621094 388.31121826171875 348.9944763183594 389.1756896972656 C 350.08782958984375 390.638427734375 352.144775390625 390.9563903808594 353.96630859375 390.8713073730469 C 355.6570739746094 390.7929992675781 357.32781982421875 390.4723205566406 358.9273986816406 389.9190979003906 C 361.5250244140625 389.021728515625 364.1387939453125 387.1734619140625 364.5291442871094 384.4540710449219 C 364.7420349121094 382.98626708984375 364.2522277832031 381.4786071777344 363.4599609375 380.22210693359375 C 362.66766357421875 378.965576171875 361.58355712890625 377.9223937988281 360.4986267089844 376.9078063964844 C 359.4136962890625 375.8931884765625 358.3258972167969 374.91949462890625 356.9535827636719 374.451171875 L 356.13262939453125 375.0483093261719" stroke-width="0.6000000238418579" fill="rgb(218, 166, 20)" opacity="1.0"/>
    <path d="M 373.40948486328125 387.3083801269531 C 369.82611083984375 390.1183166503906 369.1990661621094 395.3011169433594 372.0090026855469 398.8844909667969 C 372.2496032714844 399.19134521484375 372.5116882324219 399.4807434082031 372.79327392578125 399.75048828125 C 373.86334228515625 400.77532958984375 375.28277587890625 401.5206604003906 376.7630615234375 401.4760437011719 C 378.0140075683594 401.4384765625 379.1806640625 400.8531188964844 380.2312927246094 400.17462158203125 C 383.0411071777344 398.3546142578125 385.3123779296875 395.8154296875 386.8091125488281 392.82086181640625 C 387.2033996582031 392.0286560058594 387.5471496582031 391.18109130859375 387.5496520996094 390.2942810058594 C 387.5547180175781 388.8055114746094 386.5799865722656 387.45806884765625 385.37542724609375 386.5813293457031 C 383.5880126953125 385.2784118652344 381.26763916015625 384.80963134765625 379.072021484375 385.0812072753906 C 376.8763732910156 385.3527526855469 374.8031311035156 386.3196716308594 373.0316162109375 387.64459228515625 L 373.40948486328125 387.3083801269531" stroke-width="0.6000000238418579" fill="rgb(143, 165, 67)" opacity="1.0"/>
    <path d="M 365.5566711425781 364.63525390625 C 366.71148681640625 370.06805419921875 374.8731994628906 372.0861511230469 378.7062072753906 368.1161193847656 C 382.5391845703125 364.14605712890625 380.552001953125 356.4000244140625 375.38214111328125 354.36529541015625 C 370.2122802734375 352.3305969238281 363.755615234375 356.12164306640625 362.61248779296875 361.5638732910156 L 365.5566711425781 364.63525390625" stroke-width="0.6000000238418579" fill="rgb(233, 92, 21)" opacity="1.0"/>
    <path d="M 396.89691162109375 366.30316162109375 C 396.4935302734375 369.0262451171875 396.2940979003906 372.3208923339844 398.5003967285156 373.9827575683594 C 399.4041748046875 374.6099548339844 400.48028564453125 374.9412536621094 401.5802917480469 374.930908203125 C 404.3027038574219 374.9786071777344 406.8793640136719 373.70379638671875 408.4931640625 371.5107421875 C 409.85736083984375 369.6469421386719 410.3470764160156 367.32305908203125 410.7681884765625 365.06640625 C 411.002685546875 363.79840087890625 411.2114562988281 362.4436950683594 410.70892333984375 361.2637939453125 C 410.02618408203125 359.69659423828125 408.27923583984375 358.9018249511719 406.6349182128906 358.43634033203125 C 404.22930908203125 357.7520751953125 401.72882080078125 357.4617004394531 399.23040771484375 357.57647705078125 C 398.36724853515625 357.6177978515625 397.4667053222656 357.7189025878906 396.7425842285156 358.1899719238281 C 396.09173583984375 358.66241455078125 395.5923767089844 359.31402587890625 395.3054504394531 360.06536865234375 C 394.3464050292969 362.31060791015625 394.4205627441406 364.863525390625 395.5083312988281 367.0492858886719 L 396.89691162109375 366.30316162109375" stroke-width="0.6000000238418579" fill="rgb(70, 150, 179)" opacity="1.0"/>
    <path d="M 389.84808349609375 411.7781677246094 C 388.62994384765625 414.49066162109375 387.39361572265625 417.54833984375 388.4008483886719 420.343994140625 C 389.48468017578125 423.34649658203125 392.8995666503906 424.9527587890625 396.09063720703125 425.0313720703125 C 397.32098388671875 425.06219482421875 398.6033020019531 424.896484375 399.63665771484375 424.228271484375 C 400.4863586425781 423.6793212890625 401.0995178222656 422.83868408203125 401.64556884765625 421.9874267578125 C 403.3707580566406 419.30487060546875 404.6705017089844 416.0772705078125 403.96588134765625 412.9674072265625 C 403.2535705566406 409.8335876464844 400.361328125 407.3148193359375 397.1549987792969 407.05816650390625 C 393.9486999511719 406.801513671875 390.67755126953125 408.79449462890625 389.45867919921875 411.7734680175781 L 389.84808349609375 411.7781677246094" stroke-width="0.6000000238418579" fill="rgb(140, 28, 33)" opacity="1.0"/>
    <path d="M 404.2113342285156 396.644775390625 C 402.28240966796875 399.4237060546875 400.305908203125 402.33660888671875 399.7160339355469 405.6700439453125 C 399.12615966796875 409.0034484863281 400.3443298339844 412.9197998046875 403.3843078613281 414.4078369140625 C 407.1409606933594 416.2362060546875 411.93170166015625 413.336669921875 413.2559814453125 409.36614990234375 C 414.5802001953125 405.3956298828125 413.252685546875 400.99029541015625 411.13916015625 397.3835754394531 C 410.5967712402344 396.2015380859375 409.63104248046875 395.2658386230469 408.4324951171875 394.76104736328125 C 407.2073974609375 394.39208984375 405.5738525390625 395.28759765625 405.7210693359375 396.56494140625 L 404.2113342285156 396.644775390625" stroke-width="0.6000000238418579" fill="rgb(159, 159, 159)" opacity="1.0"/>
    <path d="M 430.9478759765625 369.8243103027344 C 431.1129150390625 372.6902770996094 432.26348876953125 375.5621032714844 434.4151611328125 377.46014404296875 C 436.56689453125 379.358154296875 439.76910400390625 380.1357421875 442.446044921875 379.0697937011719 C 444.337646484375 378.3137512207031 445.82147216796875 376.71917724609375 446.7144775390625 374.88623046875 C 447.607421875 373.0532531738281 447.9544677734375 370.9954833984375 448.022216796875 368.9573669433594 C 448.05120849609375 368.07037353515625 448.01739501953125 367.1379089355469 447.56817626953125 366.3752136230469 C 447.0535888671875 365.5005798339844 446.0894775390625 365.00970458984375 445.154296875 364.607666015625 C 442.5142822265625 363.4726257324219 439.59967041015625 362.698974609375 436.77484130859375 363.2289123535156 C 433.95001220703125 363.75885009765625 431.28057861328125 365.8699645996094 430.80902099609375 368.6978759765625 L 430.9478759765625 369.8243103027344" stroke-width="0.6000000238418579" fill="rgb(159, 159, 159)" opacity="1.0"/>
    <path d="M 419.52587890625 407.08270263671875 C 416.8402099609375 408.0812072753906 413.89825439453125 409.30743408203125 412.68170166015625 411.8954162597656 C 411.49505615234375 414.41058349609375 412.32830810546875 417.3724365234375 413.2239990234375 420.00665283203125 C 413.5894775390625 421.076171875 413.98876953125 422.1893310546875 414.81622314453125 422.9583740234375 C 416.21490478515625 424.2598876953125 418.39166259765625 424.203125 420.2508544921875 423.77532958984375 C 421.9766845703125 423.37896728515625 423.6365966796875 422.73681640625 425.179931640625 421.86865234375 C 427.686279296875 420.45977783203125 430.03173828125 418.069091796875 429.92572021484375 415.19683837890625 C 429.8707275390625 413.6461181640625 429.0849609375 412.1856689453125 428.0347900390625 411.0401611328125 C 426.98455810546875 409.8946838378906 425.67376708984375 409.0232849121094 424.367431640625 408.1814880371094 C 423.0611572265625 407.3396911621094 421.759521484375 406.5404968261719 420.2593994140625 406.314697265625 L 419.52587890625 407.08270263671875" stroke-width="0.6000000238418579" fill="rgb(218, 166, 20)" opacity="1.0"/>
    <path d="M 142.79251098632812 229.27615356445312 C 139.5600128173828 232.804443359375 139.79981994628906 238.28518676757812 143.328125 241.5177001953125 C 143.63026428222656 241.79449462890625 143.95164489746094 242.04949951171875 144.2898712158203 242.28082275390625 C 145.5751953125 243.1595458984375 147.1746826171875 243.68853759765625 148.70166015625 243.38815307617188 C 149.99208068847656 243.13442993164062 151.10104370117188 242.3272705078125 152.0737762451172 241.4434814453125 C 154.67425537109375 239.07421875 156.59292602539062 236.0518798828125 157.6304931640625 232.69039916992188 C 157.90325927734375 231.8013916015625 158.11407470703125 230.86370849609375 157.96441650390625 229.94390869140625 C 157.71405029296875 228.39962768554688 156.47219848632812 227.17010498046875 155.07290649414062 226.46795654296875 C 152.99618530273438 225.42410278320312 150.51014709472656 225.33651733398438 148.280517578125 225.9949951171875 C 146.0509033203125 226.65350341796875 144.06756591796875 228.0118408203125 142.45849609375 229.6895751953125 L 142.79251098632812 229.27615356445312" stroke-width="0.6000000238418579" fill="rgb(143, 165, 67)" opacity="1.0"/>
    <path d="M 167.46026611328125 264.0736083984375 C 168.23638916015625 269.6611022949219 176.3585205078125 272.2970886230469 180.52935791015625 268.552978515625 C 184.70016479492188 264.8088684082031 183.2484130859375 256.81756591796875 178.158447265625 254.38156127929688 C 173.0684814453125 251.945556640625 166.252685546875 255.31817626953125 164.7001953125 260.74871826171875 L 167.46026611328125 264.0736083984375" stroke-width="0.6000000238418579" fill="rgb(233, 92, 21)" opacity="1.0"/>
    <path d="M 155.41050720214844 312.631103515625 C 154.2240753173828 315.083984375 153.06126403808594 318.1370544433594 154.65379333496094 320.3594055175781 C 155.3219757080078 321.2191162109375 156.240478515625 321.850341796875 157.2825927734375 322.1659240722656 C 159.84002685546875 323.01617431640625 162.65093994140625 322.5740966796875 164.82394409179688 320.9798583984375 C 166.66378784179688 319.622802734375 167.81369018554688 317.5725402832031 168.87890625 315.5655212402344 C 169.4754638671875 314.4371032714844 170.07330322265625 313.21923828125 169.94757080078125 311.9560852050781 C 169.7662353515625 310.2738037109375 168.35113525390625 309.0063781738281 166.93560791015625 308.0803527832031 C 164.86566162109375 306.7225341796875 162.58963012695312 305.7087097167969 160.19573974609375 305.07818603515625 C 159.3681640625 304.8619079589844 158.48760986328125 304.6910705566406 157.664306640625 304.921875 C 156.9097900390625 305.1756286621094 156.24539184570312 305.6434326171875 155.75213623046875 306.2682800292969 C 154.18218994140625 308.1054382324219 153.49717712402344 310.538818359375 153.87820434570312 312.9252014160156 L 155.41050720214844 312.631103515625" stroke-width="0.6000000238418579" fill="rgb(70, 150, 179)" opacity="1.0"/>
    <path d="M 125.26531982421875 298.4300842285156 C 124.26690673828125 295.5543212890625 123.03948974609375 292.4086608886719 120.32539367675781 291.0343322753906 C 117.40896606445312 289.5597839355469 113.73739624023438 290.7625732421875 111.30577087402344 292.94586181640625 C 110.36787414550781 293.7872619628906 109.52932739257812 294.8114929199219 109.22920227050781 296.0350646972656 C 108.98210144042969 297.04083251953125 109.11602783203125 298.0976257324219 109.30744934082031 299.1152038574219 C 109.90721130371094 302.32489013671875 111.20674133300781 305.6415710449219 113.91624450683594 307.4625244140625 C 116.64828491210938 309.2958679199219 120.57162475585938 309.1397399902344 123.13970947265625 307.078369140625 C 125.70777893066406 305.0169982910156 126.74371337890625 301.2347717285156 125.55860900878906 298.1600036621094 L 125.26531982421875 298.4300842285156" stroke-width="0.6000000238418579" fill="rgb(140, 28, 33)" opacity="1.0"/>
    <path d="M 139.36380004882812 274.28179931640625 C 136.25482177734375 275.6367492675781 133.03468322753906 277.0809020996094 130.77603149414062 279.6140441894531 C 128.51742553710938 282.1471252441406 127.49423217773438 286.12969970703125 129.3040771484375 289.0 C 131.54605102539062 292.5380554199219 137.15997314453125 292.58734130859375 140.38063049316406 289.8974609375 C 143.6012725830078 287.2075500488281 144.78858947753906 282.7502136230469 144.88490295410156 278.5603332519531 C 145.04466247558594 277.2663269042969 144.7135467529297 275.9595031738281 143.95687866210938 274.897705078125 C 143.10604858398438 273.9377746582031 141.24085998535156 273.84149169921875 140.69381713867188 275.00872802734375 L 139.36380004882812 274.28179931640625" stroke-width="0.6000000238418579" fill="rgb(159, 159, 159)" opacity="1.0"/>
    <path d="M 157.42987060546875 296.7076110839844 C 155.69973754882812 299.02020263671875 154.72425842285156 301.9759521484375 155.1503143310547 304.83099365234375 C 155.5763702392578 307.68603515625 157.536865234375 310.3594970703125 160.28778076171875 311.27374267578125 C 162.2335205078125 311.9176940917969 164.40875244140625 311.65203857421875 166.28375244140625 310.8200378417969 C 168.15878295898438 309.9880676269531 169.75924682617188 308.6292419433594 171.13214111328125 307.1045837402344 C 171.72918701171875 306.4407653808594 172.30743408203125 305.7012023925781 172.4559326171875 304.8231506347656 C 172.62664794921875 303.8165588378906 172.2027587890625 302.8140563964844 171.74359130859375 301.898681640625 C 170.447265625 299.3143615722656 168.70553588867188 296.8302917480469 166.18817138671875 295.40765380859375 C 163.6707763671875 293.9849853515625 160.24835205078125 293.8799133300781 158.05291748046875 295.750732421875 L 157.42987060546875 296.7076110839844" stroke-width="0.6000000238418579" fill="rgb(159, 159, 159)" opacity="1.0"/>
    <path d="M 125.65115356445312 345.7257080078125 C 124.88824462890625 342.9375 123.91943359375 339.8713073730469 121.42768859863281 338.41705322265625 C 119.00643920898438 336.9993896484375 115.9554443359375 337.5715026855469 113.22817993164062 338.2357482910156 C 112.12065124511719 338.5072021484375 110.96633911132812 338.8088684082031 110.11943054199219 339.57147216796875 C 108.68626403808594 340.8604431152344 108.5484619140625 343.0529479980469 108.81182861328125 344.9595642089844 C 109.05560302734375 346.7293395996094 109.55224609375 348.4549255371094 110.28652954101562 350.08349609375 C 111.47784423828125 352.72833251953125 113.67025756835938 355.29931640625 116.5660400390625 355.449951171875 C 118.12925720214844 355.5335693359375 119.66728210449219 354.8747253417969 120.91241455078125 353.92193603515625 C 122.15753173828125 352.9691162109375 123.15057373046875 351.7299499511719 124.11346435546875 350.49261474609375 C 125.07635498046875 349.25531005859375 125.99600219726562 348.01885986328125 126.35723876953125 346.5316162109375 L 125.65115356445312 345.7257080078125" stroke-width="0.6000000238418579" fill="rgb(218, 166, 20)" opacity="1.0"/>
    <path d="M 166.62265014648438 348.37615966796875 C 162.99795532226562 351.5320129394531 162.617919921875 357.02874755859375 165.77374267578125 360.6534423828125 C 166.04400634765625 360.96380615234375 166.33590698242188 361.254638671875 166.64730834960938 361.5237121582031 C 167.83074951171875 362.5459289550781 169.3671875 363.25457763671875 170.92501831054688 363.12738037109375 C 172.24151611328125 363.02001953125 173.439453125 362.33978271484375 174.51007080078125 361.5677185058594 C 177.373046875 359.4971618652344 179.62939453125 356.69775390625 181.04473876953125 353.4603576660156 C 181.41741943359375 352.6039733886719 181.73379516601562 351.6920166015625 181.68838500976562 350.7571716308594 C 181.613037109375 349.1877136230469 180.51263427734375 347.8203125 179.19552612304688 346.96148681640625 C 177.240966796875 345.6850280761719 174.7698974609375 345.3166809082031 172.4703369140625 345.72186279296875 C 170.17083740234375 346.1270751953125 168.03799438476562 347.2585144042969 166.24258422851562 348.7510070800781 L 166.62265014648438 348.37615966796875" stroke-width="0.6000000238418579" fill="rgb(143, 165, 67)" opacity="1.0"/>
    <path d="M 133.09796142578125 376.54150390625 C 130.677001953125 371.54766845703125 122.2762451171875 371.5439758300781 119.50836181640625 376.3129577636719 C 116.74050903320312 381.0819091796875 120.52276611328125 388.1205139160156 126.025146484375 388.85662841796875 C 131.5275115966797 389.5927429199219 136.8834228515625 384.3692932128906 136.68942260742188 378.8161315917969 L 133.09796142578125 376.54150390625" stroke-width="0.6000000238418579" fill="rgb(233, 92, 21)" opacity="1.0"/>
    <path d="M 180.36575317382812 365.6004638671875 C 179.301025390625 368.18597412109375 178.29733276367188 371.3848876953125 180.06515502929688 373.5635986328125 C 180.80239868164062 374.40325927734375 181.78204345703125 374.9934387207031 182.86895751953125 375.25274658203125 C 185.54095458984375 375.9666748046875 188.39321899414062 375.3412170410156 190.52130126953125 373.57470703125 C 192.3226318359375 372.07159423828125 193.37469482421875 369.9007568359375 194.34262084960938 367.7793884277344 C 194.8843994140625 366.58685302734375 195.42205810546875 365.3025817871094 195.21572875976562 364.016357421875 C 194.9266357421875 362.3042297363281 193.39923095703125 361.0928039550781 191.892333984375 360.2311096191406 C 189.6885986328125 358.96728515625 187.2947998046875 358.0685119628906 184.8038330078125 357.5696105957031 C 183.94281005859375 357.3988952636719 183.03033447265625 357.2779541015625 182.20111083984375 357.5649108886719 C 181.44378662109375 357.8711853027344 180.79193115234375 358.3912048339844 180.32501220703125 359.06158447265625 C 178.82958984375 361.0399169921875 178.27731323242188 363.5746765136719 178.81414794921875 365.9958190917969 L 180.36575317382812 365.6004638671875" stroke-width="0.6000000238418579" fill="rgb(70, 150, 179)" opacity="1.0"/>
  </g>
</svg>
