<?xml version="1.0" ?>
<svg xmlns="http://www.w3.org/2000/svg" version="1.1" width="600" height="600">
  <defs/>
  <g>
    <path d="M 352.4563293457031 345.7376708984375 C 353.9076232910156 346.7998962402344 356.3133850097656 345.5255432128906 356.3818359375 343.7399597167969 C 356.45025634765625 341.954345703125 354.2987976074219 340.51336669921875 352.6116638183594 341.1379699707031 C 350.9245300292969 341.7625732421875 350.1841125488281 344.07122802734375 351.0827331542969 345.6316833496094 L 352.4563293457031 345.7376708984375" stroke-width="0.6000000238418579" fill="rgb(233, 92, 21)" opacity="1.0"/>
    <path d="M 104.2674560546875 201.79571533203125 C 104.829833984375 201.2091064453125 105.44076538085938 200.4500732421875 105.19357299804688 199.67303466796875 C 105.08319091796875 199.36764526367188 104.8807373046875 199.10400390625 104.61416625976562 198.9185791015625 C 103.96694946289062 198.44195556640625 103.12887573242188 198.30859375 102.36569213867188 198.560791015625 C 101.71884155273438 198.7763671875 101.20388793945312 199.25210571289062 100.71694946289062 199.723388671875 C 100.44384765625 199.98858642578125 100.16213989257812 200.27902221679688 100.08151245117188 200.64892578125 C 99.97808837890625 201.142822265625 100.26284790039062 201.63262939453125 100.57914733886719 202.025634765625 C 101.04132080078125 202.60137939453125 101.59365844726562 203.0985107421875 102.21470642089844 203.49774169921875 C 102.42955017089844 203.63528442382812 102.66360473632812 203.76483154296875 102.91839599609375 203.775146484375 C 103.15580749511719 203.77261352539062 103.38735961914062 203.7010498046875 103.58479309082031 203.5692138671875 C 104.19927978515625 203.19259643554688 104.61761474609375 202.56536865234375 104.72921752929688 201.85333251953125 L 104.2674560546875 201.79571533203125" stroke-width="0.6000000238418579" fill="rgb(70, 150, 179)" opacity="1.0"/>
    <path d="M 457.210693359375 429.22119140625 C 457.4593505859375 429.816162109375 457.75994873046875 430.4652099609375 458.3516845703125 430.7203369140625 C 458.987548828125 430.99395751953125 459.74810791015625 430.69171142578125 460.23370361328125 430.1983642578125 C 460.4210205078125 430.00823974609375 460.58489990234375 429.78076171875 460.63238525390625 429.51812744140625 C 460.6715087890625 429.30224609375 460.62939453125 429.08056640625 460.57562255859375 428.867919921875 C 460.4068603515625 428.1971435546875 460.0888671875 427.512939453125 459.4921875 427.163330078125 C 458.890625 426.8114013671875 458.063232421875 426.8956298828125 457.54718017578125 427.364990234375 C 457.0311279296875 427.8343505859375 456.861572265625 428.64752197265625 457.1522216796875 429.2821044921875 L 457.210693359375 429.22119140625" stroke-width="0.6000000238418579" fill="rgb(140, 28, 33)" opacity="1.0"/>
    <path d="M 91.64320373535156 198.48291015625 C 93.39886474609375 197.97271728515625 95.2200927734375 197.4224853515625 96.602294921875 196.22372436523438 C 97.98446655273438 195.02499389648438 98.80598449707031 192.96612548828125 98.03611755371094 191.3067626953125 C 97.08122253417969 189.26055908203125 94.08302307128906 188.84735107421875 92.1756591796875 190.0635986328125 C 90.268310546875 191.27984619140625 89.32632446289062 193.58123779296875 88.986083984375 195.8148193359375 C 88.81149291992188 196.49566650390625 88.89846801757812 197.21722412109375 89.2298583984375 197.83706665039062 C 89.61862182617188 198.408935546875 90.6092529296875 198.58895874023438 90.982177734375 198.0025634765625 L 91.64320373535156 198.48291015625" stroke-width="0.6000000238418579" fill="rgb(159, 159, 159)" opacity="1.0"/>
    <path d="M 376.9631042480469 299.11578369140625 C 377.4769592285156 298.7762451171875 377.8856506347656 298.2532653808594 378.0058288574219 297.6495361328125 C 378.1259765625 297.0458068847656 377.925048828125 296.36798095703125 377.43878173828125 295.986328125 C 377.0946350097656 295.7169189453125 376.6388854980469 295.613525390625 376.20263671875 295.64544677734375 C 375.766357421875 295.6773681640625 375.34722900390625 295.8348083496094 374.96185302734375 296.04193115234375 C 374.794189453125 296.1321716308594 374.6248779296875 296.23895263671875 374.53179931640625 296.40447998046875 C 374.425048828125 296.5942077636719 374.4378967285156 296.8259582519531 374.464111328125 297.04278564453125 C 374.53814697265625 297.65484619140625 374.7087707519531 298.2789001464844 375.111572265625 298.74578857421875 C 375.51434326171875 299.2126770019531 376.1936950683594 299.4803161621094 376.76910400390625 299.2629699707031 L 376.9631042480469 299.11578369140625" stroke-width="0.6000000238418579" fill="rgb(159, 159, 159)" opacity="1.0"/>
    <path d="M 97.82135009765625 432.023681640625 C 98.08302307128906 431.4063720703125 98.34716796875 430.70880126953125 98.10235595703125 430.0859375 C 97.86514282226562 429.47998046875 97.22735595703125 429.145751953125 96.63528442382812 428.8748779296875 C 96.39459228515625 428.76513671875 96.14105224609375 428.65423583984375 95.87725830078125 428.67138671875 C 95.43107604980469 428.7001953125 95.09095764160156 429.0797119140625 94.86497497558594 429.4647216796875 C 94.65509033203125 429.822021484375 94.49758911132812 430.2076416015625 94.39730834960938 430.60968017578125 C 94.2342529296875 431.262451171875 94.26408386230469 432.045654296875 94.76976013183594 432.4891357421875 C 95.04241943359375 432.72900390625 95.41714477539062 432.8299560546875 95.78079223632812 432.83538818359375 C 96.1444091796875 432.8408203125 96.5032958984375 432.7578125 96.85641479492188 432.67083740234375 C 97.20953369140625 432.5838623046875 97.55465698242188 432.4908447265625 97.83413696289062 432.27191162109375 L 97.82135009765625 432.023681640625" stroke-width="0.6000000238418579" fill="rgb(218, 166, 20)" opacity="1.0"/>
    <path d="M 100.7100830078125 139.36070251464844 C 101.97947692871094 139.65689086914062 103.24862670898438 138.86793518066406 103.54481506347656 137.59854125976562 C 103.57017517089844 137.48983764648438 103.58779907226562 137.37948608398438 103.5975341796875 137.26828002929688 C 103.63449096679688 136.8457794189453 103.54644775390625 136.3953857421875 103.27117919921875 136.07298278808594 C 103.03860473632812 135.80050659179688 102.6988525390625 135.64503479003906 102.35911560058594 135.53213500976562 C 101.44931030273438 135.231201171875 100.47549438476562 135.17935180664062 99.53887939453125 135.38198852539062 C 99.2913818359375 135.43597412109375 99.04061889648438 135.5111541748047 98.84222412109375 135.66954040527344 C 98.509033203125 135.9352264404297 98.38299560546875 136.394287109375 98.4031982421875 136.8202667236328 C 98.4327392578125 137.45272827148438 98.74398803710938 138.0546417236328 99.1981201171875 138.4960174560547 C 99.65225219726562 138.93740844726562 100.2396240234375 139.2268524169922 100.85284423828125 139.38478088378906 L 100.7100830078125 139.36070251464844" stroke-width="0.6000000238418579" fill="rgb(143, 165, 67)" opacity="1.0"/>
    <path d="M 454.80938720703125 341.8426818847656 C 456.31927490234375 342.8160095214844 458.6427001953125 341.403076171875 458.6053466796875 339.6186218261719 C 458.5679931640625 337.8341369628906 456.3375244140625 336.5245666503906 454.6922607421875 337.24713134765625 C 453.0469970703125 337.9696960449219 452.4451904296875 340.3154296875 453.4334716796875 341.8182373046875 L 454.80938720703125 341.8426818847656" stroke-width="0.6000000238418579" fill="rgb(233, 92, 21)" opacity="1.0"/>
    <path d="M 106.65045166015625 215.60049438476562 C 107.2945556640625 215.12786865234375 108.01495361328125 214.49655151367188 107.90745544433594 213.70217895507812 C 107.85237121582031 213.3876953125 107.70108032226562 213.09808349609375 107.47441101074219 212.87326049804688 C 106.92855834960938 212.3018798828125 106.13963317871094 212.030517578125 105.35781860351562 212.14523315429688 C 104.69485473632812 212.24423217773438 104.115478515625 212.6175537109375 103.56396484375 212.99127197265625 C 103.2545166015625 213.20172119140625 102.93243408203125 213.4351806640625 102.79159545898438 213.7796630859375 C 102.60763549804688 214.24041748046875 102.80026245117188 214.7630615234375 103.03985595703125 215.197265625 C 103.38970947265625 215.83322143554688 103.84019470214844 216.4083251953125 104.37384033203125 216.90032958984375 C 104.55853271484375 217.06997680664062 104.76321411132812 217.235107421875 105.00819396972656 217.28836059570312 C 105.23851013183594 217.32620239257812 105.47486877441406 217.29620361328125 105.68844604492188 217.2020263671875 C 106.34738159179688 216.94158935546875 106.85891723632812 216.40521240234375 107.08779907226562 215.73468017578125 L 106.65045166015625 215.60049438476562" stroke-width="0.6000000238418579" fill="rgb(70, 150, 179)" opacity="1.0"/>
    <path d="M 102.26789855957031 80.11604309082031 C 102.52838134765625 80.87890625 102.84912109375 81.71356201171875 103.56594848632812 82.0811767578125 C 104.33622741699219 82.47560119628906 105.31008911132812 82.16207885742188 105.95697021484375 81.58724975585938 C 106.20646667480469 81.36572265625 106.42990112304688 81.09564208984375 106.51104736328125 80.77203369140625 C 106.57785034179688 80.50604248046875 106.5438232421875 80.22601318359375 106.4945068359375 79.956298828125 C 106.34005737304688 79.10556030273438 106.00044250488281 78.22552490234375 105.28543090820312 77.73965454101562 C 104.56448364257812 77.25045776367188 103.52536010742188 77.28646850585938 102.84251403808594 77.82884216308594 C 102.15968322753906 78.3712158203125 101.88021850585938 79.371337890625 102.18986511230469 80.18716430664062 L 102.26789855957031 80.11604309082031" stroke-width="0.6000000238418579" fill="rgb(140, 28, 33)" opacity="1.0"/>
    <path d="M 91.727783203125 424.7877197265625 C 93.49139404296875 424.5594482421875 95.32398986816406 424.302490234375 96.83145141601562 423.35675048828125 C 98.33888244628906 422.4110107421875 99.43586730957031 420.5548095703125 98.94367980957031 418.844970703125 C 98.3314208984375 416.7357177734375 95.51144409179688 415.89093017578125 93.49662780761719 416.775146484375 C 91.4818115234375 417.6593017578125 90.23281860351562 419.7305908203125 89.57231140136719 421.8265380859375 C 89.3028564453125 422.45489501953125 89.27871704101562 423.161376953125 89.50466918945312 423.806640625 C 89.79295349121094 424.414306640625 90.71818542480469 424.7352294921875 91.1641845703125 424.227294921875 L 91.727783203125 424.7877197265625" stroke-width="0.6000000238418579" fill="rgb(159, 159, 159)" opacity="1.0"/>
    <path d="M 468.706787109375 60.50421142578125 C 469.232177734375 59.863189697265625 469.5494384765625 59.02818298339844 469.46356201171875 58.20423889160156 C 469.377685546875 57.38029479980469 468.849609375 56.588897705078125 468.07257080078125 56.29182434082031 C 467.52294921875 56.082489013671875 466.8958740234375 56.13099670410156 466.3477783203125 56.34568786621094 C 465.79962158203125 56.560394287109375 465.323486328125 56.92962646484375 464.9105224609375 57.349273681640625 C 464.73095703125 57.532012939453125 464.5557861328125 57.73667907714844 464.50201416015625 57.986541748046875 C 464.4403076171875 58.27294921875 464.549072265625 58.56575012207031 464.6690673828125 58.83403015136719 C 465.00787353515625 59.59141540527344 465.47564697265625 60.32572937011719 466.1793212890625 60.765594482421875 C 466.8829345703125 61.20545959472656 467.86279296875 61.279083251953125 468.5159912109375 60.7706298828125 L 468.706787109375 60.50421142578125" stroke-width="0.6000000238418579" fill="rgb(159, 159, 159)" opacity="1.0"/>
    <path d="M 92.10047912597656 106.22543334960938 C 92.76519775390625 106.39578247070312 93.51141357421875 106.55633544921875 94.10418701171875 106.21333312988281 C 94.68112182617188 105.88058471679688 94.92170715332031 105.18411254882812 95.10523986816406 104.5435791015625 C 95.17941284179688 104.28324890136719 95.25286865234375 104.00973510742188 95.19511413574219 103.74542236328125 C 95.09771728515625 103.29837036132812 94.66171264648438 103.01226806640625 94.237548828125 102.84251403808594 C 93.84390258789062 102.68478393554688 93.42964172363281 102.58441162109375 93.00746154785156 102.54446411132812 C 92.32199096679688 102.47932434082031 91.53407287597656 102.62933349609375 91.16267395019531 103.2088623046875 C 90.96171569824219 103.52142333984375 90.91683959960938 103.91607666015625 90.96701049804688 104.28485107421875 C 91.01718139648438 104.65362548828125 91.15603637695312 105.00405883789062 91.29806518554688 105.34805297851562 C 91.44009399414062 105.69207763671875 91.58700561523438 106.02703857421875 91.85128784179688 106.27633666992188 L 92.10047912597656 106.22543334960938" stroke-width="0.6000000238418579" fill="rgb(218, 166, 20)" opacity="1.0"/>
    <path d="M 118.97236633300781 127.21675109863281 C 120.21115112304688 126.7606201171875 120.84561157226562 125.3865966796875 120.38948059082031 124.14781188964844 C 120.35041809082031 124.041748046875 120.30387878417969 123.93856811523438 120.25021362304688 123.83908081054688 C 120.0462646484375 123.4610595703125 119.72103881835938 123.12905883789062 119.30868530273438 123.00955200195312 C 118.960205078125 122.90852355957031 118.58624267578125 122.96614074707031 118.2359619140625 123.05978393554688 C 117.29873657226562 123.31170654296875 116.446044921875 123.80998229980469 115.76649475097656 124.50285339355469 C 115.58717346191406 124.68630981445312 115.4168701171875 124.8895263671875 115.33721923828125 125.13394165039062 C 115.20326232910156 125.54421997070312 115.35220336914062 126.00274658203125 115.6064453125 126.35186767578125 C 115.98355102539062 126.8704833984375 116.58195495605469 127.2064208984375 117.21186828613281 127.32699584960938 C 117.841796875 127.44757080078125 118.49984741210938 127.36543273925781 119.10655212402344 127.15763854980469 L 118.97236633300781 127.21675109863281" stroke-width="0.6000000238418579" fill="rgb(143, 165, 67)" opacity="1.0"/>
    <path d="M 389.6119689941406 302.6846923828125 C 390.8360290527344 303.975341796875 393.4027099609375 303.1614685058594 393.7855529785156 301.4360656738281 C 394.1684265136719 299.710693359375 392.33013916015625 297.9274597167969 390.57781982421875 298.2364196777344 C 388.82550048828125 298.5453796386719 387.6961364746094 300.6606750488281 388.2941589355469 302.3382568359375 L 389.6119689941406 302.6846923828125" stroke-width="0.6000000238418579" fill="rgb(233, 92, 21)" opacity="1.0"/>
    <path d="M 123.04818725585938 112.66464233398438 C 123.60981750488281 112.13580322265625 124.22586059570312 111.44583129882812 124.02923583984375 110.69715881347656 C 123.93939208984375 110.40225219726562 123.76025390625 110.14251708984375 123.51652526855469 109.9537353515625 C 122.92605590820312 109.470458984375 122.13796997070312 109.3033447265625 121.40216064453125 109.50540161132812 C 120.7784423828125 109.67839050292969 120.26715087890625 110.10444641113281 119.78262329101562 110.52761840820312 C 119.51083374023438 110.76577758789062 119.22964477539062 111.0274658203125 119.13525390625 111.37423706054688 C 119.01324462890625 111.83749389648438 119.25942993164062 112.31568908691406 119.54022216796875 112.70362854003906 C 119.95046997070312 113.27191162109375 120.44998168945312 113.77001953125 121.0194091796875 114.17868041992188 C 121.21641540527344 114.31948852539062 121.43203735351562 114.45365905761719 121.673095703125 114.47581481933594 C 121.89830017089844 114.48493957519531 122.12129211425781 114.4283447265625 122.31488037109375 114.31292724609375 C 122.91574096679688 113.98568725585938 123.34278869628906 113.41134643554688 123.483154296875 112.74169921875 L 123.04818725585938 112.66464233398438" stroke-width="0.6000000238418579" fill="rgb(70, 150, 179)" opacity="1.0"/>
    <path d="M 428.40863037109375 70.94444274902344 C 428.765380859375 71.57424926757812 429.18731689453125 72.25735473632812 429.8809814453125 72.46243286132812 C 430.6263427734375 72.68231201171875 431.4334716796875 72.24360656738281 431.90863037109375 71.62873840332031 C 432.0919189453125 71.39175415039062 432.244140625 71.11625671386719 432.2618408203125 70.81721496582031 C 432.276611328125 70.57138061523438 432.199951171875 70.3299560546875 432.111572265625 70.10017395019531 C 431.833740234375 69.37518310546875 431.3875732421875 68.65516662597656 430.67578125 68.34542846679688 C 429.958251953125 68.03373718261719 429.04736328125 68.23843383789062 428.5350341796875 68.83062744140625 C 428.0228271484375 69.42282104492188 427.942626953125 70.35183715820312 428.35162353515625 71.02017211914062 L 428.40863037109375 70.94444274902344" stroke-width="0.6000000238418579" fill="rgb(140, 28, 33)" opacity="1.0"/>
    <path d="M 114.60638427734375 416.343994140625 C 115.57231140136719 414.771728515625 116.56008911132812 413.125 116.77984619140625 411.2915344238281 C 116.99958801269531 409.45806884765625 116.21685791015625 407.3621520996094 114.51583862304688 406.6443176269531 C 112.41412353515625 405.7629089355469 109.8931884765625 407.4880065917969 109.2928466796875 409.69085693359375 C 108.69252014160156 411.8937072753906 109.54975891113281 414.2525634765625 110.81068420410156 416.152587890625 C 111.14208984375 416.7799072265625 111.69656372070312 417.2601318359375 112.36471557617188 417.49853515625 C 113.04319763183594 417.662109375 113.9056396484375 417.1246337890625 113.78652954101562 416.4334716796875 L 114.60638427734375 416.343994140625" stroke-width="0.6000000238418579" fill="rgb(159, 159, 159)" opacity="1.0"/>
    <path d="M 452.955810546875 430.822998046875 C 453.29876708984375 430.1351318359375 453.41351318359375 429.314697265625 453.16607666015625 428.58740234375 C 452.9185791015625 427.860107421875 452.27801513671875 427.2532958984375 451.51416015625 427.14483642578125 C 450.9739990234375 427.06884765625 450.41705322265625 427.241943359375 449.9656982421875 427.54901123046875 C 449.5142822265625 427.8560791015625 449.159912109375 428.2880859375 448.8729248046875 428.752685546875 C 448.7481689453125 428.9549560546875 448.6319580078125 429.17608642578125 448.6348876953125 429.4130859375 C 448.6380615234375 429.684814453125 448.79681396484375 429.9271240234375 448.9605712890625 430.14501953125 C 449.42303466796875 430.760009765625 449.997314453125 431.3275146484375 450.7242431640625 431.58026123046875 C 451.451171875 431.8330078125 452.352294921875 431.6976318359375 452.838134765625 431.103271484375 L 452.955810546875 430.822998046875" stroke-width="0.6000000238418579" fill="rgb(159, 159, 159)" opacity="1.0"/>
    <path d="M 449.95452880859375 286.21820068359375 C 450.42230224609375 285.6662292480469 450.9183349609375 285.0323791503906 450.8660888671875 284.3121643066406 C 450.8162841796875 283.6116638183594 450.2664794921875 283.0626525878906 449.7435302734375 282.593505859375 C 449.53076171875 282.4032287597656 449.30517578125 282.20758056640625 449.02789306640625 282.1405944824219 C 448.5589599609375 282.02703857421875 448.0867919921875 282.3087463378906 447.73040771484375 282.63287353515625 C 447.39947509765625 282.93359375 447.1134033203125 283.2802429199219 446.88104248046875 283.6622619628906 C 446.50347900390625 284.28240966796875 446.2828369140625 285.0988464355469 446.661376953125 285.7180480957031 C 446.865234375 286.0526428222656 447.2188720703125 286.2770080566406 447.591796875 286.3993225097656 C 447.96466064453125 286.5216064453125 448.36102294921875 286.55133056640625 448.752685546875 286.5751037597656 C 449.1444091796875 286.598876953125 449.52978515625 286.61383056640625 449.8880615234375 286.4779968261719 L 449.95452880859375 286.21820068359375" stroke-width="0.6000000238418579" fill="rgb(218, 166, 20)" opacity="1.0"/>
    <path d="M 419.5042724609375 364.2646179199219 C 420.40399169921875 365.2230529785156 421.91033935546875 365.2706298828125 422.8687744140625 364.3708801269531 C 422.9508056640625 364.2938232421875 423.02734375 364.2110595703125 423.09765625 364.1231994628906 C 423.364990234375 363.78924560546875 423.54296875 363.3620300292969 423.4921875 362.9375305175781 C 423.4493408203125 362.57879638671875 423.25115966796875 362.2583312988281 423.0291748046875 361.97357177734375 C 422.43389892578125 361.2122497558594 421.6456298828125 360.62420654296875 420.7462158203125 360.2705078125 C 420.50830078125 360.1773986816406 420.25579833984375 360.10028076171875 420.000732421875 360.12225341796875 C 419.572509765625 360.158935546875 419.2100830078125 360.4737243652344 418.98876953125 360.842529296875 C 418.659912109375 361.38983154296875 418.5845947265625 362.0690612792969 418.7188720703125 362.69342041015625 C 418.8531494140625 363.31781005859375 419.184326171875 363.8891906738281 419.610595703125 364.3646545410156 L 419.5042724609375 364.2646179199219" stroke-width="0.6000000238418579" fill="rgb(143, 165, 67)" opacity="1.0"/>
    <path d="M 451.38385009765625 355.10906982421875 C 452.3304443359375 353.6588439941406 450.9810791015625 351.41131591796875 449.2606201171875 351.4375305175781 C 447.5401611328125 351.4637756347656 446.2655029296875 353.6067810058594 446.95306396484375 355.1968078613281 C 447.640625 356.7868347167969 449.89862060546875 357.3797607421875 451.352783203125 356.435302734375 L 451.38385009765625 355.10906982421875" stroke-width="0.6000000238418579" fill="rgb(233, 92, 21)" opacity="1.0"/>
    <path d="M 453.021240234375 81.78265380859375 C 453.499267578125 81.274658203125 454.017578125 80.61825561523438 453.79925537109375 79.9532470703125 C 453.7020263671875 79.69197082519531 453.52618408203125 79.46730041503906 453.2958984375 79.31024169921875 C 452.736572265625 78.90625 452.01611328125 78.7984619140625 451.363037109375 79.02102661132812 C 450.8094482421875 79.21122741699219 450.3712158203125 79.62370300292969 449.95703125 80.03211975097656 C 449.7247314453125 80.26191711425781 449.4852294921875 80.51347351074219 449.4189453125 80.83163452148438 C 449.3341064453125 81.25640869140625 449.5823974609375 81.67459106445312 449.8570556640625 82.00941467285156 C 450.2584228515625 82.49993896484375 450.7364501953125 82.92227172851562 451.272705078125 83.260009765625 C 451.458251953125 83.37635803222656 451.66015625 83.48568725585938 451.87896728515625 83.49250793457031 C 452.082763671875 83.48846435546875 452.2808837890625 83.42520141601562 452.4493408203125 83.31045532226562 C 452.97381591796875 82.98226928710938 453.327880859375 82.44053649902344 453.41802978515625 81.82846069335938 L 453.021240234375 81.78265380859375" stroke-width="0.6000000238418579" fill="rgb(70, 150, 179)" opacity="1.0"/>
    <path d="M 450.04901123046875 390.65252685546875 C 450.2672119140625 390.23883056640625 450.49169921875 389.7711486816406 450.361328125 389.3222961425781 C 450.2210693359375 388.8401794433594 449.7010498046875 388.5540771484375 449.20086669921875 388.510009765625 C 449.008056640625 388.4929504394531 448.80511474609375 388.5061950683594 448.63623046875 388.6007995605469 C 448.4974365234375 388.67852783203125 448.392822265625 388.8044128417969 448.298583984375 388.9326171875 C 448.0010986328125 389.3365478515625 447.7650146484375 389.83026123046875 447.84466552734375 390.3254699707031 C 447.92529296875 390.824462890625 448.35430908203125 391.2486267089844 448.8551025390625 391.32080078125 C 449.3558349609375 391.3929748535156 449.88916015625 391.1126403808594 450.110107421875 390.6571350097656 L 450.04901123046875 390.65252685546875" stroke-width="0.6000000238418579" fill="rgb(140, 28, 33)" opacity="1.0"/>
    <path d="M 121.62435913085938 215.12118530273438 C 119.34927368164062 215.14642333984375 116.98220825195312 215.19781494140625 114.92485046386719 216.1732177734375 C 112.86752319335938 217.14862060546875 111.195068359375 219.3424072265625 111.56376647949219 221.58880615234375 C 112.02508544921875 224.3607177734375 115.4813232421875 225.85748291015625 118.17410278320312 225.03643798828125 C 120.86686706542969 224.21542358398438 122.7647705078125 221.7711181640625 123.91862487792969 219.2071533203125 C 124.35531616210938 218.44924926757812 124.49205017089844 217.55520629882812 124.30178833007812 216.701416015625 C 124.0267333984375 215.88604736328125 122.8992919921875 215.33935546875 122.25637817382812 215.91778564453125 L 121.62435913085938 215.12118530273438" stroke-width="0.6000000238418579" fill="rgb(159, 159, 159)" opacity="1.0"/>
    <path d="M 111.67697143554688 224.156494140625 C 110.33978271484375 223.0445556640625 108.59251403808594 222.36651611328125 106.86244201660156 222.534423828125 C 105.13236999511719 222.70233154296875 103.46401977539062 223.79861450195312 102.82914733886719 225.42459106445312 C 102.38174438476562 226.57476806640625 102.47421264648438 227.89105224609375 102.91653442382812 229.04434204101562 C 103.35885620117188 230.1976318359375 104.12649536132812 231.20208740234375 105.00088500976562 232.07485961914062 C 105.38160705566406 232.45440673828125 105.80845642089844 232.82501220703125 106.33189392089844 232.94146728515625 C 106.93194580078125 233.07525634765625 107.54789733886719 232.85137939453125 108.11257934570312 232.60357666015625 C 109.70675659179688 231.90399169921875 111.25442504882812 230.93341064453125 112.18780517578125 229.46356201171875 C 113.12118530273438 227.99371337890625 113.29025268554688 225.93887329101562 112.23312377929688 224.560791015625 L 111.67697143554688 224.156494140625" stroke-width="0.6000000238418579" fill="rgb(159, 159, 159)" opacity="1.0"/>
    <path d="M 303.35736083984375 104.68711853027344 C 302.695068359375 106.23446655273438 302.0259704589844 107.98310852050781 302.6349792480469 109.54864501953125 C 303.2251281738281 111.07197570800781 304.8231201171875 111.91641235351562 306.30694580078125 112.60160827636719 C 306.91015625 112.87905883789062 307.54559326171875 113.15971374511719 308.2079162597656 113.118896484375 C 309.328125 113.05049133300781 310.1852111816406 112.10098266601562 310.7558288574219 111.136474609375 C 311.2857971191406 110.24143981933594 311.68450927734375 109.27493286132812 311.93975830078125 108.26657104492188 C 312.3548278808594 106.62939453125 312.2867736816406 104.66323852539062 311.0213623046875 103.54556274414062 C 310.3390808105469 102.941162109375 309.3993225097656 102.684326171875 308.486572265625 102.6676025390625 C 307.5738525390625 102.65087890625 306.6722717285156 102.85601806640625 305.7851257324219 103.07121276855469 C 304.8979797363281 103.28640747070312 304.0308837890625 103.51687622070312 303.32745361328125 104.06396484375 L 303.35736083984375 104.68711853027344" stroke-width="0.6000000238418579" fill="rgb(218, 166, 20)" opacity="1.0"/>
    <path d="M 219.40179443359375 126.64909362792969 C 217.32781982421875 124.85946655273438 214.19573974609375 125.0899658203125 212.4061279296875 127.16390991210938 C 212.25286865234375 127.34150695800781 212.1124267578125 127.52975463867188 211.98583984375 127.72723388671875 C 211.5048828125 128.4776611328125 211.22940063476562 129.40191650390625 211.42727661132812 130.2705535888672 C 211.59442138671875 131.004638671875 212.07516479492188 131.62545776367188 212.597412109375 132.16702270507812 C 213.99740600585938 133.61473083496094 215.75949096679688 134.66119384765625 217.70062255859375 135.1976776123047 C 218.21395874023438 135.338623046875 218.75408935546875 135.44332885742188 219.27789306640625 135.34202575683594 C 220.15728759765625 135.1724853515625 220.8397216796875 134.44094848632812 221.2176513671875 133.6282958984375 C 221.77963256835938 132.42221069335938 221.78744506835938 130.99818420410156 221.3726806640625 129.7335662841797 C 220.95794677734375 128.4689483642578 220.14691162109375 127.357177734375 219.15951538085938 126.46499633789062 L 219.40179443359375 126.64909362792969" stroke-width="0.6000000238418579" fill="rgb(143, 165, 67)" opacity="1.0"/>
    <path d="M 222.9063720703125 94.85238647460938 C 221.81829833984375 97.8531494140625 225.1856689453125 101.31817626953125 228.2618408203125 100.54689025878906 C 231.3380126953125 99.77558898925781 232.72320556640625 95.3935546875 230.82012939453125 92.82978820800781 C 228.91705322265625 90.26602172851562 224.6156005859375 90.15255737304688 222.40390014648438 92.45947265625 L 222.9063720703125 94.85238647460938" stroke-width="0.6000000238418579" fill="rgb(233, 92, 21)" opacity="1.0"/>
    <path d="M 202.93960571289062 95.86346435546875 C 202.34121704101562 94.38818359375 201.47341918945312 92.68795776367188 199.88616943359375 92.50755310058594 C 199.25173950195312 92.46034240722656 198.6182861328125 92.61116027832031 198.07318115234375 92.93923950195312 C 196.70263671875 93.71466064453125 195.79296875 95.10627746582031 195.63259887695312 96.67279052734375 C 195.5 98.00198364257812 195.93817138671875 99.3037109375 196.39080810546875 100.55177307128906 C 196.64617919921875 101.25245666503906 196.9398193359375 101.98876953125 197.53662109375 102.42916870117188 C 198.33685302734375 103.00965881347656 199.440673828125 102.89285278320312 200.39666748046875 102.64208984375 C 201.79620361328125 102.27685546875 203.12744140625 101.6875 204.33865356445312 100.89688110351562 C 204.75665283203125 100.62289428710938 205.1756591796875 100.30816650390625 205.398193359375 99.86087036132812 C 205.58383178710938 99.43438720703125 205.641357421875 98.96310424804688 205.56378173828125 98.50448608398438 C 205.382568359375 97.10418701171875 204.59616088867188 95.8538818359375 203.4124755859375 95.08406066894531 L 202.93960571289062 95.86346435546875" stroke-width="0.6000000238418579" fill="rgb(70, 150, 179)" opacity="1.0"/>
    <path d="M 267.3346252441406 131.7392120361328 C 266.5101623535156 133.282958984375 265.6611328125 135.0286865234375 266.14007568359375 136.7108154296875 C 266.6556396484375 138.5175018310547 268.5962219238281 139.59815979003906 270.46685791015625 139.77273559570312 C 271.1880798339844 139.84036254882812 271.94769287109375 139.794677734375 272.5813903808594 139.4438934326172 C 273.1024169921875 139.15573120117188 273.4963073730469 138.68678283691406 273.8512268066406 138.20887756347656 C 274.97222900390625 136.70314025878906 275.8653259277344 134.86021423339844 275.57672119140625 133.00572204589844 C 275.2845764160156 131.1368865966797 273.6876220703125 129.54147338867188 271.8152160644531 129.26171875 C 269.94281005859375 128.98194885253906 267.9417724609375 130.0205841064453 267.10614013671875 131.7207794189453 L 267.3346252441406 131.7392120361328" stroke-width="0.6000000238418579" fill="rgb(140, 28, 33)" opacity="1.0"/>
    <path d="M 316.4926452636719 117.6856689453125 C 314.1181640625 118.53253173828125 311.6567077636719 119.43994140625 309.85296630859375 121.20376586914062 C 308.04925537109375 122.96759033203125 307.088134765625 125.86911010742188 308.28448486328125 128.08969116210938 C 309.76739501953125 130.8274688720703 313.92822265625 131.1492462158203 316.4533386230469 129.31802368164062 C 318.9784851074219 127.48681640625 320.08544921875 124.24154663085938 320.3697509765625 121.13919067382812 C 320.5539855957031 120.18765258789062 320.37481689453125 119.20166015625 319.86761474609375 118.37579345703125 C 319.285400390625 117.62066650390625 317.9070739746094 117.45449829101562 317.44207763671875 118.29234313964844 L 316.4926452636719 117.6856689453125" stroke-width="0.6000000238418579" fill="rgb(159, 159, 159)" opacity="1.0"/>
    <path d="M 198.558349609375 131.4112091064453 C 197.23699951171875 130.28086853027344 195.49957275390625 129.57861328125 193.767578125 129.72235107421875 C 192.03555297851562 129.8660888671875 190.352294921875 130.9388427734375 189.69488525390625 132.55560302734375 C 189.23153686523438 133.6992645263672 189.30563354492188 135.0165557861328 189.73175048828125 136.1757354736328 C 190.15789794921875 137.33493041992188 190.911376953125 138.34988403320312 191.77337646484375 139.234619140625 C 192.14874267578125 139.61941528320312 192.5703125 139.99588012695312 193.09197998046875 140.11961364746094 C 193.69003295898438 140.26174926757812 194.3089599609375 140.0465087890625 194.87698364257812 139.80662536621094 C 196.48052978515625 139.12940979003906 198.04141235351562 138.18064880371094 198.99505615234375 136.7241668701172 C 199.94873046875 135.26766967773438 200.14642333984375 133.21566772460938 199.1087646484375 131.82315063476562 L 198.558349609375 131.4112091064453" stroke-width="0.6000000238418579" fill="rgb(159, 159, 159)" opacity="1.0"/>
    <path d="M 281.48876953125 104.77801513671875 C 279.90625 105.38455200195312 278.17352294921875 106.1273193359375 277.4693603515625 107.66525268554688 C 276.7825012207031 109.15992736816406 277.2929382324219 110.90679931640625 277.8384094238281 112.45945739746094 C 278.0609130859375 113.08987426757812 278.3037414550781 113.745849609375 278.7976989746094 114.19580078125 C 279.6326904296875 114.957275390625 280.9197998046875 114.91072082519531 282.01690673828125 114.64666748046875 C 283.0352783203125 114.40194702148438 284.0132751464844 114.01229858398438 284.9208984375 113.48959350585938 C 286.3949279785156 112.64140319824219 287.7679138183594 111.21343994140625 287.6881103515625 109.51528930664062 C 287.6463623046875 108.59844970703125 287.1729431152344 107.73928833007812 286.5449523925781 107.06803894042969 C 285.9169921875 106.39678955078125 285.13653564453125 105.88919067382812 284.35888671875 105.39907836914062 C 283.5812683105469 104.90896606445312 282.8066711425781 104.44403076171875 281.9180603027344 104.31939697265625 L 281.48876953125 104.77801513671875" stroke-width="0.6000000238418579" fill="rgb(218, 166, 20)" opacity="1.0"/>
    <path d="M 241.9281005859375 121.27372741699219 C 240.75860595703125 123.8031005859375 241.86102294921875 126.8016357421875 244.390380859375 127.97116088867188 C 244.60699462890625 128.07130432128906 244.83038330078125 128.15594482421875 245.0589599609375 128.22447204589844 C 245.92755126953125 128.48471069335938 246.9085693359375 128.4953155517578 247.70269775390625 128.05859375 C 248.373779296875 127.6895751953125 248.84634399414062 127.04559326171875 249.229736328125 126.3831787109375 C 250.25357055664062 124.60867309570312 250.78359985351562 122.5924072265625 250.7647705078125 120.54379272460938 C 250.75885009765625 120.00230407714844 250.71002197265625 119.44474792480469 250.46429443359375 118.96087646484375 C 250.05224609375 118.1483154296875 249.145751953125 117.68576049804688 248.24517822265625 117.54365539550781 C 246.90826416015625 117.33177185058594 245.513427734375 117.72286987304688 244.39279174804688 118.48257446289062 C 243.27215576171875 119.24227905273438 242.41195678710938 120.34672546386719 241.81591796875 121.56219482421875 L 241.9281005859375 121.27372741699219" stroke-width="0.6000000238418579" fill="rgb(143, 165, 67)" opacity="1.0"/>
    <path d="M 249.7320556640625 92.68344116210938 C 248.93374633789062 95.80107116699219 252.6517333984375 98.94879150390625 255.66314697265625 97.87393188476562 C 258.6745910644531 96.799072265625 259.635986328125 92.26632690429688 257.47552490234375 89.87979125976562 C 255.3150634765625 87.49325561523438 250.98760986328125 87.80010986328125 248.99383544921875 90.33137512207031 L 249.7320556640625 92.68344116210938" stroke-width="0.6000000238418579" fill="rgb(233, 92, 21)" opacity="1.0"/>
    <path d="M 338.42645263671875 85.09695434570312 C 336.8697814941406 84.64967346191406 334.96392822265625 84.27682495117188 333.82293701171875 85.43411254882812 C 333.38677978515625 85.91233825683594 333.1097717285156 86.51412963867188 333.0301513671875 87.15644836425781 C 332.79034423828125 88.74041748046875 333.3331604003906 90.34236145019531 334.4864807128906 91.45428466796875 C 335.4671936035156 92.39498901367188 336.7843322753906 92.86154174804688 338.0675964355469 93.28285217285156 C 338.788818359375 93.51834106445312 339.5626220703125 93.74557495117188 340.28985595703125 93.54438781738281 C 341.2569885253906 93.26824951171875 341.8565368652344 92.31134033203125 342.25604248046875 91.38864135742188 C 342.8424072265625 90.03898620605469 343.2064514160156 88.60333251953125 343.33404541015625 87.13735961914062 C 343.3771667480469 86.6307373046875 343.3883361816406 86.09768676757812 343.16998291015625 85.63871765136719 C 342.9451599121094 85.22235107421875 342.6040344238281 84.88040161132812 342.1882019042969 84.654541015625 C 340.9534606933594 83.92041015625 339.4588623046875 83.764892578125 338.0994567871094 84.22906494140625 L 338.42645263671875 85.09695434570312" stroke-width="0.6000000238418579" fill="rgb(70, 150, 179)" opacity="1.0"/>
    <path d="M 333.502685546875 123.77325439453125 C 332.9886779785156 122.07505798339844 332.34765625 120.21432495117188 330.79925537109375 119.35028076171875 C 329.1353759765625 118.42312622070312 326.96893310546875 119.03750610351562 325.5015869140625 120.25198364257812 C 324.9356689453125 120.719970703125 324.42327880859375 121.29679870605469 324.21978759765625 122.00234985351562 C 324.05230712890625 122.58229064941406 324.10552978515625 123.20086669921875 324.193115234375 123.7979736328125 C 324.4671325683594 125.68128967285156 325.1461486816406 127.64334106445312 326.681396484375 128.76736450195312 C 328.2294616699219 129.89913940429688 330.51800537109375 129.90023803710938 332.06195068359375 128.75997924804688 C 333.6058654785156 127.61972045898438 334.2978820800781 125.44131469726562 333.6798400878906 123.62286376953125 L 333.502685546875 123.77325439453125" stroke-width="0.6000000238418579" fill="rgb(140, 28, 33)" opacity="1.0"/>
    <path d="M 354.20806884765625 105.60418701171875 C 352.09344482421875 105.67596435546875 349.89385986328125 105.77395629882812 348.0018615722656 106.72445678710938 C 346.10986328125 107.67497253417969 344.6015319824219 109.75003051757812 344.99200439453125 111.8306884765625 C 345.479736328125 114.39794921875 348.7247619628906 115.71611022949219 351.2108154296875 114.89564514160156 C 353.6968688964844 114.0751953125 355.4094543457031 111.76243591308594 356.4277648925781 109.35421752929688 C 356.81768798828125 108.64031982421875 356.9258117675781 107.80621337890625 356.7308044433594 107.01651000976562 C 356.4577941894531 106.26426696777344 355.39801025390625 105.77996826171875 354.81256103515625 106.33135986328125 L 354.20806884765625 105.60418701171875" stroke-width="0.6000000238418579" fill="rgb(159, 159, 159)" opacity="1.0"/>
    <path d="M 350.1427307128906 123.562744140625 C 348.534912109375 124.01235961914062 347.04608154296875 125.02262878417969 346.23486328125 126.48080444335938 C 345.42364501953125 127.93899536132812 345.3794250488281 129.85488891601562 346.31744384765625 131.24343872070312 C 346.9818420410156 132.22433471679688 348.0720520019531 132.86940002441406 349.2243347167969 133.14918518066406 C 350.3766174316406 133.42897033691406 351.5888366699219 133.37060546875 352.7552490234375 133.15606689453125 C 353.2627868652344 133.06240844726562 353.78839111328125 132.9274139404297 354.16595458984375 132.57749938964844 C 354.5989990234375 132.176513671875 354.7581787109375 131.56781005859375 354.8705139160156 130.98658752441406 C 355.1875915527344 129.34567260742188 355.2652587890625 127.59365844726562 354.61346435546875 126.05450439453125 C 353.9616394042969 124.51535034179688 352.4307556152344 123.26080322265625 350.7654724121094 123.343994140625 L 350.1427307128906 123.562744140625" stroke-width="0.6000000238418579" fill="rgb(159, 159, 159)" opacity="1.0"/>
    <path d="M 366.087646484375 112.04058837890625 C 364.28314208984375 112.52804565429688 362.2984313964844 113.14805603027344 361.3528747558594 114.75621032714844 C 360.43109130859375 116.31884765625 360.7946472167969 118.29287719726562 361.2184143066406 120.05776977539062 C 361.3916320800781 120.77449035644531 361.5842590332031 121.52151489257812 362.0755920410156 122.07075500488281 C 362.90606689453125 123.00016784667969 364.323486328125 123.09388732910156 365.556884765625 122.92758178710938 C 366.7017517089844 122.773681640625 367.818603515625 122.4561767578125 368.8731994628906 121.98478698730469 C 370.5859069824219 121.22000122070312 372.2529602050781 119.80775451660156 372.3564453125 117.93560791015625 C 372.4137878417969 116.92498779296875 371.9909973144531 115.9290771484375 371.37750244140625 115.12196350097656 C 370.7640380859375 114.31484985351562 369.96484375 113.67012023925781 369.1667785644531 113.04489135742188 C 368.3687438964844 112.419677734375 367.5711669921875 111.82241821289062 366.6102600097656 111.58572387695312 L 366.087646484375 112.04058837890625" stroke-width="0.6000000238418579" fill="rgb(218, 166, 20)" opacity="1.0"/>
    <path d="M 434.10614013671875 156.26589965820312 C 431.1041259765625 156.76580810546875 429.0758056640625 159.60467529296875 429.57568359375 162.606689453125 C 429.6185302734375 162.86373901367188 429.67950439453125 163.117431640625 429.7581787109375 163.36587524414062 C 430.0574951171875 164.309814453125 430.651123046875 165.20172119140625 431.53363037109375 165.64987182617188 C 432.2794189453125 166.02865600585938 433.15118408203125 166.05911254882812 433.9847412109375 165.997802734375 C 436.2159423828125 165.83062744140625 438.361572265625 165.069091796875 440.19891357421875 163.79232788085938 C 440.68402099609375 163.45404052734375 441.15716552734375 163.06707763671875 441.4427490234375 162.5477294921875 C 441.9227294921875 161.67620849609375 441.78277587890625 160.5736083984375 441.35723876953125 159.67343139648438 C 440.726318359375 158.3365478515625 439.515625 157.31817626953125 438.140869140625 156.77392578125 C 436.76611328125 156.229736328125 435.2403564453125 156.13253784179688 433.77679443359375 156.342041015625 L 434.10614013671875 156.26589965820312" stroke-width="0.6000000238418579" fill="rgb(143, 165, 67)" opacity="1.0"/>
    <path d="M 143.94827270507812 417.814697265625 C 142.1697998046875 420.48980712890625 144.63731384277344 424.6798095703125 147.82887268066406 424.65814208984375 C 151.0204315185547 424.636474609375 153.41835021972656 420.68157958984375 152.1680145263672 417.7215576171875 C 150.91769409179688 414.761474609375 146.73875427246094 413.626220703125 144.02679443359375 415.35528564453125 L 143.94827270507812 417.814697265625" stroke-width="0.6000000238418579" fill="rgb(233, 92, 21)" opacity="1.0"/>
    <path d="M 437.3363037109375 185.01950073242188 C 435.6103515625 185.16281127929688 433.5633544921875 185.51303100585938 432.8616943359375 187.1029052734375 C 432.6070556640625 187.74649047851562 432.558349609375 188.4532470703125 432.722412109375 189.12564086914062 C 433.08349609375 190.80023193359375 434.23388671875 192.1959228515625 435.808837890625 192.8701171875 C 437.14617919921875 193.4385986328125 438.6400146484375 193.40542602539062 440.0828857421875 193.33984375 C 440.893310546875 193.30169677734375 441.7530517578125 193.2353515625 442.40386962890625 192.75830078125 C 443.26605224609375 192.1153564453125 443.50244140625 190.93121337890625 443.5518798828125 189.85714721679688 C 443.6260986328125 188.28533935546875 443.44549560546875 186.71185302734375 443.0169677734375 185.19778442382812 C 442.867919921875 184.6749267578125 442.67681884765625 184.13775634765625 442.284423828125 183.76168823242188 C 441.90167236328125 183.43072509765625 441.430908203125 183.21823120117188 440.929443359375 183.15017700195312 C 439.41650390625 182.88458251953125 437.86322021484375 183.29605102539062 436.68017578125 184.27581787109375 L 437.3363037109375 185.01950073242188" stroke-width="0.6000000238418579" fill="rgb(70, 150, 179)" opacity="1.0"/>
    <path d="M 408.2845764160156 158.2252197265625 C 407.8636779785156 156.51116943359375 407.3251953125 154.62899780273438 405.832763671875 153.68894958496094 C 404.22894287109375 152.68008422851562 402.04449462890625 153.1759490966797 400.5227966308594 154.3048095703125 C 399.9359130859375 154.73980712890625 399.396484375 155.2857208251953 399.1571044921875 155.97581481933594 C 398.9600830078125 156.54302978515625 398.98028564453125 157.16033935546875 399.0357666015625 157.758056640625 C 399.2084655761719 159.643310546875 399.77935791015625 161.62811279296875 401.2449951171875 162.82574462890625 C 402.72296142578125 164.03173828125 404.9961853027344 164.1536865234375 406.5900573730469 163.10260009765625 C 408.1839294433594 162.05148315429688 408.98638916015625 159.92416381835938 408.4684753417969 158.08517456054688 L 408.2845764160156 158.2252197265625" stroke-width="0.6000000238418579" fill="rgb(140, 28, 33)" opacity="1.0"/>
    <path d="M 143.1666717529297 119.09326171875 C 141.33847045898438 119.87432861328125 139.4447479248047 120.70722961425781 138.11001586914062 122.18255615234375 C 136.7753143310547 123.65785217285156 136.1586456298828 125.98806762695312 137.2073974609375 127.67825317382812 C 138.50660705566406 129.76173400878906 141.79722595214844 129.81442260742188 143.696533203125 128.25128173828125 C 145.59584045410156 126.68815612792969 146.31072998046875 124.08035278320312 146.38494873046875 121.62469482421875 C 146.48406982421875 120.86683654785156 146.2955322265625 120.09938049316406 145.85647583007812 119.4737548828125 C 145.36178588867188 118.907470703125 144.2688446044922 118.84310913085938 143.9432373046875 119.5250244140625 L 143.1666717529297 119.09326171875" stroke-width="0.6000000238418579" fill="rgb(159, 159, 159)" opacity="1.0"/>
    <path d="M 417.63525390625 177.50399780273438 C 416.3013916015625 176.29025268554688 414.52264404296875 175.507080078125 412.72265625 175.60107421875 C 410.9225769042969 175.69500732421875 409.1435852050781 176.75360107421875 408.4107360839844 178.40869140625 C 407.8940734863281 179.57952880859375 407.92901611328125 180.94744873046875 408.33392333984375 182.16259765625 C 408.7388610839844 183.3778076171875 409.4876403808594 184.453857421875 410.3531188964844 185.3984375 C 410.7300109863281 185.80923461914062 411.1550598144531 186.212890625 411.6919250488281 186.35772705078125 C 412.307373046875 186.52407836914062 412.955810546875 186.32061767578125 413.55224609375 186.08999633789062 C 415.236083984375 185.43890380859375 416.88427734375 184.5050048828125 417.919189453125 183.02545166015625 C 418.95404052734375 181.5458984375 419.22412109375 179.42501831054688 418.1927490234375 177.94851684570312 L 417.63525390625 177.50399780273438" stroke-width="0.6000000238418579" fill="rgb(159, 159, 159)" opacity="1.0"/>
    <path d="M 404.46783447265625 186.21780395507812 C 403.7933349609375 184.68316650390625 402.97711181640625 183.00653076171875 401.4241943359375 182.38397216796875 C 399.9148254394531 181.77642822265625 398.2132263183594 182.36380004882812 396.7051696777344 182.97650146484375 C 396.0928955078125 183.226318359375 395.45635986328125 183.4974365234375 395.0353088378906 184.0068359375 C 394.32269287109375 184.86798095703125 394.42987060546875 186.137451171875 394.742919921875 187.20880126953125 C 395.0331115722656 188.20330810546875 395.4645690917969 189.1510009765625 396.0241394042969 190.0228271484375 C 396.9322204589844 191.4388427734375 398.4082946777344 192.7274169921875 400.0822448730469 192.56787109375 C 400.986083984375 192.4830322265625 401.8124084472656 191.97442626953125 402.4457092285156 191.32208251953125 C 403.07904052734375 190.66973876953125 403.5434265136719 189.87454223632812 403.9906921386719 189.08294677734375 C 404.43792724609375 188.2913818359375 404.8604431152344 187.50396728515625 404.94134521484375 186.6201171875 L 404.46783447265625 186.21780395507812" stroke-width="0.6000000238418579" fill="rgb(218, 166, 20)" opacity="1.0"/>
    <path d="M 449.4638671875 179.7938232421875 C 448.466064453125 182.383056640625 449.7562255859375 185.2908935546875 452.345458984375 186.28863525390625 C 452.567138671875 186.37408447265625 452.794677734375 186.44369506835938 453.0262451171875 186.4969482421875 C 453.9061279296875 186.6990966796875 454.881591796875 186.64593505859375 455.642333984375 186.160400390625 C 456.28515625 185.75015258789062 456.712890625 185.07958984375 457.05084228515625 184.396484375 C 457.952880859375 182.5667724609375 458.34857177734375 180.5289306640625 458.19677734375 178.49456787109375 C 458.15576171875 177.9569091796875 458.071044921875 177.40606689453125 457.79541015625 176.94125366210938 C 457.333251953125 176.16061401367188 456.4024658203125 175.7598876953125 455.4984130859375 175.67718505859375 C 454.15625 175.55349731445312 452.795654296875 176.03268432617188 451.7315673828125 176.8603515625 C 450.6673583984375 177.68798828125 449.8843994140625 178.84130859375 449.37109375 180.08770751953125 L 449.4638671875 179.7938232421875" stroke-width="0.6000000238418579" fill="rgb(143, 165, 67)" opacity="1.0"/>
    <path d="M 146.67442321777344 107.35922241210938 C 142.5140838623047 109.89794921875 143.22161865234375 117.24148559570312 147.62442016601562 119.2574462890625 C 152.02723693847656 121.27337646484375 157.85977172851562 117.3717041015625 158.03765869140625 112.49972534179688 C 158.215576171875 107.62774658203125 153.19651794433594 103.38801574707031 148.3588409423828 104.02743530273438 L 146.67442321777344 107.35922241210938" stroke-width="0.6000000238418579" fill="rgb(233, 92, 21)" opacity="1.0"/>
    <path d="M 451.32080078125 151.85714721679688 C 450.040771484375 153.8637237548828 448.719970703125 156.39337158203125 449.874267578125 158.48406982421875 C 450.36602783203125 159.2982177734375 451.0982666015625 159.93966674804688 451.9700927734375 160.32000732421875 C 454.1016845703125 161.31903076171875 456.5853271484375 161.222900390625 458.6334228515625 160.06207275390625 C 460.36822509765625 159.07290649414062 461.57537841796875 157.411865234375 462.70458984375 155.7796630859375 C 463.3375244140625 154.86175537109375 463.98065185546875 153.8663787841797 464.000732421875 152.75775146484375 C 464.015380859375 151.2798309326172 462.9173583984375 150.03567504882812 461.7840576171875 149.08763122558594 C 460.127197265625 147.69810485839844 458.25634765625 146.58592224121094 456.244140625 145.794189453125 C 455.54833984375 145.52198791503906 454.80194091796875 145.2837677001953 454.0640869140625 145.39981079101562 C 453.3836669921875 145.5428009033203 452.7593994140625 145.88070678710938 452.2677001953125 146.37232971191406 C 450.7178955078125 147.80555725097656 449.8748779296875 149.84649658203125 449.96142578125 151.9556121826172 L 451.32080078125 151.85714721679688" stroke-width="0.6000000238418579" fill="rgb(70, 150, 179)" opacity="1.0"/>
    <path d="M 376.28265380859375 79.64178466796875 C 376.164794921875 77.20709228515625 375.9319152832031 74.51336669921875 374.15704345703125 72.84487915039062 C 372.2493591308594 71.0537109375 369.15716552734375 71.14895629882812 366.79620361328125 72.27735900878906 C 365.8857421875 72.7120361328125 365.01031494140625 73.30960083007812 364.5035400390625 74.181884765625 C 364.086669921875 74.89877319335938 363.9510192871094 75.74089050292969 363.86834716796875 76.56585693359375 C 363.6045837402344 79.16708374023438 363.854248046875 82.00848388671875 365.5247802734375 84.01907348632812 C 367.2098083496094 86.04425048828125 370.2591552734375 86.80996704101562 372.6974182128906 85.80601501464844 C 375.1356506347656 84.80207824707031 376.7853088378906 82.13021850585938 376.5689392089844 79.50051879882812 L 376.28265380859375 79.64178466796875" stroke-width="0.6000000238418579" fill="rgb(140, 28, 33)" opacity="1.0"/>
    <path d="M 130.06143188476562 412.0047607421875 C 127.56991577148438 413.7161865234375 124.9962158203125 415.5244140625 123.44801330566406 418.12298583984375 C 121.89985656738281 420.7215576171875 121.67788696289062 424.379638671875 123.7469482421875 426.5853271484375 C 126.30709838867188 429.3023681640625 131.2280731201172 428.396240234375 133.59158325195312 425.497802734375 C 135.95510864257812 422.599365234375 136.24044799804688 418.49810791015625 135.6162872314453 414.8153076171875 C 135.53729248046875 413.65594482421875 135.02658081054688 412.568359375 134.1848907470703 411.7671203613281 C 133.2780303955078 411.07098388671875 131.6295623779297 411.3020935058594 131.3482208251953 412.416015625 L 130.06143188476562 412.0047607421875" stroke-width="0.6000000238418579" fill="rgb(159, 159, 159)" opacity="1.0"/>
    <path d="M 409.73675537109375 206.27728271484375 C 408.5120849609375 204.04705810546875 406.49664306640625 202.1878662109375 404.0513916015625 201.489501953125 C 401.6061706542969 200.79119873046875 398.74755859375 201.3897705078125 397.0120849609375 203.26324462890625 C 395.7867736816406 204.58932495117188 395.2074279785156 206.43087768554688 395.19171142578125 208.2379150390625 C 395.1759948730469 210.04495239257812 395.682861328125 211.82366943359375 396.4056396484375 213.48028564453125 C 396.7206115722656 214.2010498046875 397.1031494140625 214.93426513671875 397.75335693359375 215.37322998046875 C 398.4985656738281 215.87686157226562 399.4570617675781 215.902099609375 400.35858154296875 215.86724853515625 C 402.9036865234375 215.7689208984375 405.5306701660156 215.27679443359375 407.5888671875 213.77587890625 C 409.64703369140625 212.27493286132812 410.97808837890625 209.56808471679688 410.2773132324219 207.1256103515625 L 409.73675537109375 206.27728271484375" stroke-width="0.6000000238418579" fill="rgb(159, 159, 159)" opacity="1.0"/>
    <path d="M 387.0979919433594 120.10774230957031 C 384.84246826171875 121.12957763671875 382.37957763671875 122.36311340332031 381.48590087890625 124.667236328125 C 380.6136474609375 126.90679931640625 381.5095520019531 129.41036987304688 382.439697265625 131.627685546875 C 382.8188781738281 132.5278778076172 383.2298889160156 133.4635772705078 383.9893493652344 134.07701110839844 C 385.2732238769531 135.11526489257812 387.1464538574219 134.935791015625 388.72369384765625 134.45555114746094 C 390.1878356933594 134.0103759765625 391.5804443359375 133.35726928710938 392.8589172363281 132.5162353515625 C 394.935302734375 131.15138244628906 396.8140563964844 128.9496612548828 396.55047607421875 126.47978210449219 C 396.4101257324219 125.14617919921875 395.6451416015625 123.93411254882812 394.6710205078125 123.009521484375 C 393.6969299316406 122.08493041992188 392.5146179199219 121.4122314453125 391.33795166015625 120.76480102539062 C 390.1612854003906 120.11737060546875 388.9912109375 119.50639343261719 387.68438720703125 119.40164184570312 L 387.0979919433594 120.10774230957031" stroke-width="0.6000000238418579" fill="rgb(218, 166, 20)" opacity="1.0"/>
    <path d="M 401.84765625 82.11715698242188 C 399.0817565917969 79.37527465820312 394.6168212890625 79.39471435546875 391.87493896484375 82.16061401367188 C 391.6401672363281 82.39744567871094 391.4224548339844 82.65065002441406 391.2235107421875 82.91830444335938 C 390.46771240234375 83.93545532226562 389.98626708984375 85.21931457519531 390.181640625 86.47076416015625 C 390.3466491699219 87.52835083007812 390.9675598144531 88.45608520507812 391.6551208496094 89.27546691894531 C 393.4986572265625 91.46624755859375 395.8951416015625 93.12344360351562 398.5956726074219 94.07492065429688 C 399.3099060058594 94.32522583007812 400.06573486328125 94.5267333984375 400.8185729980469 94.43447875976562 C 402.0824890136719 94.28034973144531 403.1222229003906 93.30976867675781 403.738037109375 92.19427490234375 C 404.65350341796875 90.53880310058594 404.80438232421875 88.51980590820312 404.34027099609375 86.68545532226562 C 403.87615966796875 84.85110473632812 402.83502197265625 83.19461059570312 401.5221252441406 81.832275390625 L 401.84765625 82.11715698242188" stroke-width="0.6000000238418579" fill="rgb(143, 165, 67)" opacity="1.0"/>
    <path d="M 116.86538696289062 423.6561279296875 C 114.330322265625 419.4295654296875 106.89891052246094 420.0882568359375 104.82633972167969 424.52490234375 C 102.7537841796875 428.9615478515625 106.65415954589844 434.8896484375 111.57943725585938 435.107177734375 C 116.50469970703125 435.32470703125 120.83078002929688 430.2821044921875 120.2215576171875 425.38525390625 L 116.86538696289062 423.6561279296875" stroke-width="0.6000000238418579" fill="rgb(233, 92, 21)" opacity="1.0"/>
    <path d="M 446.1114501953125 196.4283447265625 C 444.85211181640625 198.4791259765625 443.560546875 201.05938720703125 444.763671875 203.15304565429688 C 445.27490234375 203.96759033203125 446.0263671875 204.60345458984375 446.91424560546875 204.97283935546875 C 449.0865478515625 205.94598388671875 451.5958251953125 205.8057861328125 453.64630126953125 204.5968017578125 C 455.383056640625 203.5667724609375 456.57470703125 201.8665771484375 457.6881103515625 200.19692993164062 C 458.31201171875 199.25799560546875 458.9449462890625 198.24057006835938 458.94610595703125 197.11944580078125 C 458.935302734375 195.62503051757812 457.8037109375 194.38623046875 456.6416015625 193.4473876953125 C 454.9425048828125 192.0712890625 453.03192138671875 190.979248046875 450.98388671875 190.21368408203125 C 450.2757568359375 189.95050048828125 449.51702880859375 189.72259521484375 448.7730712890625 189.8526611328125 C 448.087646484375 190.00900268554688 447.46240234375 190.36141967773438 446.9737548828125 190.866943359375 C 445.4317626953125 192.34274291992188 444.6148681640625 194.420654296875 444.7388916015625 196.55145263671875 L 446.1114501953125 196.4283447265625" stroke-width="0.6000000238418579" fill="rgb(70, 150, 179)" opacity="1.0"/>
    <path d="M 412.3253173828125 134.5583038330078 C 411.8858947753906 132.00643920898438 411.2917175292969 129.19635009765625 409.204345703125 127.66683959960938 C 406.9610595703125 126.025146484375 403.7130126953125 126.52580261230469 401.36968994140625 128.02114868164062 C 400.4659729003906 128.59732055664062 399.6202697753906 129.3406982421875 399.1988525390625 130.3260040283203 C 398.8520812988281 131.13584899902344 398.81805419921875 132.04132080078125 398.8376770019531 132.92185974121094 C 398.8962097167969 135.69869995117188 399.5272216796875 138.66233825683594 401.548828125 140.56605529785156 C 403.587646484375 142.48329162597656 406.9019470214844 142.89596557617188 409.3428955078125 141.52183532714844 C 411.7838134765625 140.147705078125 413.1773681640625 137.1170196533203 412.60888671875 134.37228393554688 L 412.3253173828125 134.5583038330078" stroke-width="0.6000000238418579" fill="rgb(140, 28, 33)" opacity="1.0"/>
    <path d="M 400.5456848144531 73.77713012695312 C 401.4922180175781 76.63333129882812 402.5086364746094 79.59494018554688 404.5647277832031 81.7947998046875 C 406.6208190917969 83.99461364746094 410.0571594238281 85.21969604492188 412.7391357421875 83.85198974609375 C 416.04595947265625 82.15629577636719 416.5421142578125 77.20002746582031 414.425048828125 74.13754272460938 C 412.3079833984375 71.07505798339844 408.4653625488281 69.66668701171875 404.7711181640625 69.24382019042969 C 403.6406555175781 68.99835205078125 402.45928955078125 69.185546875 401.46014404296875 69.76852416992188 C 400.54339599609375 70.44290161132812 400.3079528808594 72.0831298828125 401.2951965332031 72.66058349609375 L 400.5456848144531 73.77713012695312" stroke-width="0.6000000238418579" fill="rgb(159, 159, 159)" opacity="1.0"/>
    <path d="M 441.6768798828125 235.15603637695312 C 440.17547607421875 237.24798583984375 439.35809326171875 239.89990234375 439.7882080078125 242.43731689453125 C 440.2183837890625 244.97476196289062 442.0130615234375 247.32327270507812 444.4813232421875 248.0897216796875 C 446.22711181640625 248.62939453125 448.161376953125 248.35421752929688 449.818115234375 247.57952880859375 C 451.4747314453125 246.8048095703125 452.87744140625 245.56536865234375 454.0743408203125 244.18209838867188 C 454.5948486328125 243.579833984375 455.09716796875 242.910400390625 455.214111328125 242.12509155273438 C 455.3485107421875 241.22479248046875 454.9530029296875 240.33868408203125 454.527587890625 239.53082275390625 C 453.326416015625 237.25006103515625 451.7301025390625 235.0665283203125 449.46099853515625 233.8427734375 C 447.19189453125 232.61907958984375 444.139404296875 232.58575439453125 442.2154541015625 234.29208374023438 L 441.6768798828125 235.15603637695312" stroke-width="0.6000000238418579" fill="rgb(159, 159, 159)" opacity="1.0"/>
    <path d="M 408.5880126953125 260.8553771972656 C 407.13818359375 258.7378845214844 405.43487548828125 256.4469909667969 402.9221496582031 255.95074462890625 C 400.47918701171875 255.46466064453125 398.0858459472656 256.83074951171875 395.9908142089844 258.1800842285156 C 395.1405334472656 258.7294921875 394.2597961425781 259.31781005859375 393.7707824707031 260.20355224609375 C 392.94287109375 261.701171875 393.46405029296875 263.58050537109375 394.23876953125 265.1034851074219 C 394.957275390625 266.5173645019531 395.8750915527344 267.82073974609375 396.964111328125 268.9737243652344 C 398.731689453125 270.84649658203125 401.3176574707031 272.3665466308594 403.79071044921875 271.65185546875 C 405.12640380859375 271.26800537109375 406.2253112792969 270.2685852050781 406.9931335449219 269.1076354980469 C 407.7609558105469 267.9466857910156 408.234130859375 266.6186828613281 408.6825256347656 265.301025390625 C 409.1309509277344 263.98333740234375 409.5433349609375 262.6789855957031 409.4144287109375 261.3263854980469 L 408.5880126953125 260.8553771972656" stroke-width="0.6000000238418579" fill="rgb(218, 166, 20)" opacity="1.0"/>
    <path d="M 415.7435302734375 86.47341918945312 C 414.0948486328125 90.08540344238281 415.6864013671875 94.35000610351562 419.29840087890625 95.99867248535156 C 419.607666015625 96.13984680175781 419.9266357421875 96.2589111328125 420.2528076171875 96.35494995117188 C 421.49212646484375 96.71966552734375 422.88995361328125 96.72795104980469 424.018310546875 96.10015869140625 C 424.971923828125 95.56973266601562 425.6407470703125 94.64888000488281 426.182373046875 93.70242309570312 C 427.6287841796875 91.1669921875 428.369873046875 88.29052734375 428.3287353515625 85.371826171875 C 428.31658935546875 84.600341796875 428.24310302734375 83.8062744140625 427.8896484375 83.11857604980469 C 427.296875 81.96371459960938 426.0020751953125 81.31097412109375 424.71795654296875 81.11480712890625 C 422.81170654296875 80.82223510742188 420.8270263671875 81.38919067382812 419.2357177734375 82.47941589355469 C 417.64434814453125 83.56964111328125 416.4263916015625 85.14926147460938 415.58563232421875 86.88519287109375 L 415.7435302734375 86.47341918945312" stroke-width="0.6000000238418579" fill="rgb(143, 165, 67)" opacity="1.0"/>
    <path d="M 441.8690185546875 129.3218536376953 C 439.6162109375 133.50108337402344 443.818603515625 139.33119201660156 448.5125732421875 138.86441040039062 C 453.2066650390625 138.39759826660156 456.1966552734375 132.25042724609375 453.95318603515625 128.06454467773438 C 451.709716796875 123.87867736816406 445.4049072265625 122.77745056152344 441.6494140625 125.69163513183594 L 441.8690185546875 129.3218536376953" stroke-width="0.6000000238418579" fill="rgb(233, 92, 21)" opacity="1.0"/>
    <path d="M 445.924072265625 95.44839477539062 C 445.09442138671875 97.64532470703125 444.331298828125 100.35562133789062 445.869384765625 102.14071655273438 C 446.5091552734375 102.8272705078125 447.34619140625 103.29841613769531 448.2650146484375 103.48910522460938 C 450.52581787109375 104.0220947265625 452.90472412109375 103.42622375488281 454.6473388671875 101.89045715332031 C 456.1221923828125 100.58392333984375 456.95147705078125 98.73541259765625 457.71136474609375 96.93055725097656 C 458.1365966796875 95.916015625 458.5560302734375 94.82455444335938 458.35089111328125 93.74992370605469 C 458.065673828125 92.31979370117188 456.75341796875 91.34075927734375 455.467041015625 90.65481567382812 C 453.58563232421875 89.64857482910156 451.5538330078125 88.9534912109375 449.4503173828125 88.59652709960938 C 448.7232666015625 88.47457885742188 447.9542236328125 88.39570617675781 447.2652587890625 88.65719604492188 C 446.63714599609375 88.93310546875 446.102783203125 89.38583374023438 445.7275390625 89.96017456054688 C 444.521240234375 91.6580810546875 444.12054443359375 93.79965209960938 444.63134765625 95.81881713867188 L 445.924072265625 95.44839477539062" stroke-width="0.6000000238418579" fill="rgb(70, 150, 179)" opacity="1.0"/>
    <path d="M 320.5055236816406 379.1247863769531 C 318.1834716796875 379.6221923828125 315.63055419921875 380.2710266113281 314.3065185546875 382.2405700683594 C 312.885498046875 384.3571472167969 313.46490478515625 387.3148498535156 314.92218017578125 389.4065856933594 C 315.48370361328125 390.2132873535156 316.1962890625 390.96063232421875 317.1148376464844 391.3102111816406 C 317.8697814941406 391.5978698730469 318.7007751464844 391.595458984375 319.5069274902344 391.5447692871094 C 322.04925537109375 391.3879699707031 324.74151611328125 390.69970703125 326.410888671875 388.7765197753906 C 328.0920104980469 386.8370666503906 328.3470458984375 383.78472900390625 326.9972229003906 381.59906005859375 C 325.64739990234375 379.4133605957031 322.8185119628906 378.24896240234375 320.3245544433594 378.8718566894531 L 320.5055236816406 379.1247863769531" stroke-width="0.6000000238418579" fill="rgb(140, 28, 33)" opacity="1.0"/>
    <path d="M 305.7380676269531 397.451171875 C 302.5142822265625 398.47344970703125 299.1710205078125 399.57275390625 296.66876220703125 401.8515930175781 C 294.16656494140625 404.1304016113281 292.7397766113281 407.9746398925781 294.2379455566406 411.00872802734375 C 296.09564208984375 414.7498779296875 301.6586608886719 415.37945556640625 305.13128662109375 413.044677734375 C 308.60394287109375 410.7098388671875 310.24261474609375 406.4116516113281 310.77154541015625 402.26593017578125 C 311.0638732910156 400.9989929199219 310.8706359863281 399.6685485839844 310.22998046875 398.53717041015625 C 309.4853820800781 397.4970703125 307.6453552246094 397.2086181640625 306.9820556640625 398.30975341796875 L 305.7380676269531 397.451171875" stroke-width="0.6000000238418579" fill="rgb(159, 159, 159)" opacity="1.0"/>
    <path d="M 324.5487365722656 410.9908752441406 C 321.9115295410156 412.34130859375 319.6795654296875 414.6246337890625 318.7843933105469 417.4473876953125 C 317.8891906738281 420.2701416015625 318.4897155761719 423.61773681640625 320.6119689941406 425.700927734375 C 322.1142883300781 427.17181396484375 324.23834228515625 427.908203125 326.3411865234375 427.9873046875 C 328.4440612792969 428.06646728515625 330.5315856933594 427.536376953125 332.4842224121094 426.75079345703125 C 333.3337707519531 426.408447265625 334.2001037597656 425.98785400390625 334.73297119140625 425.245849609375 C 335.34429931640625 424.3953857421875 335.4059143066406 423.280517578125 335.3957214355469 422.22998046875 C 335.3669738769531 419.26416015625 334.8825988769531 416.18975830078125 333.2048034667969 413.7435302734375 C 331.5270080566406 411.2972412109375 328.4210510253906 409.65673828125 325.5544128417969 410.3902282714844 L 324.5487365722656 410.9908752441406" stroke-width="0.6000000238418579" fill="rgb(159, 159, 159)" opacity="1.0"/>
    <path d="M 274.5187072753906 414.23199462890625 C 272.47747802734375 416.257080078125 270.2962951660156 418.5965576171875 270.2563171386719 421.466064453125 C 270.2135009765625 424.256591796875 272.2019958496094 426.61865234375 274.1118469238281 428.6553955078125 C 274.888916015625 429.481689453125 275.7149963378906 430.33367919921875 276.78985595703125 430.69390869140625 C 278.6074523925781 431.30419921875 280.57354736328125 430.35064697265625 282.09576416015625 429.1895751953125 C 283.5090637207031 428.11236572265625 284.7603759765625 426.837890625 285.8113708496094 425.405029296875 C 287.5187683105469 423.0791015625 288.67230224609375 419.92236328125 287.38568115234375 417.3409423828125 C 286.693115234375 415.9462890625 285.3699035644531 414.936767578125 283.93548583984375 414.32476806640625 C 282.5010681152344 413.7127685546875 280.9419860839844 413.459228515625 279.3992614746094 413.2308349609375 C 277.8565673828125 413.00250244140625 276.3357849121094 412.8111572265625 274.87109375 413.22613525390625 L 274.5187072753906 414.23199462890625" stroke-width="0.6000000238418579" fill="rgb(218, 166, 20)" opacity="1.0"/>
    <path d="M 222.91128540039062 413.3040771484375 C 218.186767578125 411.75408935546875 213.10031127929688 414.32763671875 211.55035400390625 419.0521240234375 C 211.41766357421875 419.4566650390625 211.31378173828125 419.8701171875 211.23956298828125 420.2894287109375 C 210.9578857421875 421.882568359375 211.141845703125 423.6234130859375 212.0799560546875 424.9405517578125 C 212.8726806640625 426.0537109375 214.11166381835938 426.758056640625 215.3648681640625 427.3006591796875 C 218.721435546875 428.7484130859375 222.4044189453125 429.2711181640625 226.03125 428.8143310546875 C 226.98968505859375 428.69195556640625 227.9677734375 428.4901123046875 228.7745361328125 427.95465087890625 C 230.1295166015625 427.05645751953125 230.76193237304688 425.354248046875 230.82763671875 423.72882080078125 C 230.9268798828125 421.315673828125 229.9454345703125 418.9244384765625 228.367431640625 417.0953369140625 C 226.78939819335938 415.2662353515625 224.65420532226562 413.969970703125 222.3768310546875 413.164794921875 L 222.91128540039062 413.3040771484375" stroke-width="0.6000000238418579" fill="rgb(143, 165, 67)" opacity="1.0"/>
    <path d="M 284.27764892578125 367.40118408203125 C 284.92724609375 373.17059326171875 293.2134704589844 376.0991516113281 297.6044616699219 372.3581848144531 C 301.99542236328125 368.6171875 300.71478271484375 360.3565979003906 295.54290771484375 357.71466064453125 C 290.3710021972656 355.07269287109375 283.2686462402344 358.3609619140625 281.5265808105469 363.9067687988281 L 284.27764892578125 367.40118408203125" stroke-width="0.6000000238418579" fill="rgb(233, 92, 21)" opacity="1.0"/>
    <path d="M 332.42059326171875 362.82977294921875 C 332.3350830078125 365.6001892089844 332.5202941894531 368.91839599609375 334.92083740234375 370.32281494140625 C 335.89788818359375 370.84454345703125 337.01275634765625 371.05023193359375 338.1116943359375 370.9114685058594 C 340.83990478515625 370.6413269042969 343.2679443359375 369.0655822753906 344.6258239746094 366.6839294433594 C 345.77252197265625 364.6606750488281 345.990966796875 362.2794189453125 346.148681640625 359.9734191894531 C 346.2351379394531 358.67791748046875 346.2857666015625 357.2987365722656 345.64544677734375 356.17742919921875 C 344.7796630859375 354.6897888183594 342.93975830078125 354.0989074707031 341.240966796875 353.8253479003906 C 338.7552795410156 353.4219055175781 336.22064208984375 353.4234313964844 333.7354431152344 353.8299255371094 C 332.87701416015625 353.9720153808594 331.98822021484375 354.17828369140625 331.31903076171875 354.7339172363281 C 330.7232666015625 355.2823791503906 330.2999572753906 355.9923400878906 330.1007080078125 356.7772521972656 C 329.4037170410156 359.1346435546875 329.77593994140625 361.6791076660156 331.1190185546875 363.7380676269531 L 332.42059326171875 362.82977294921875" stroke-width="0.6000000238418579" fill="rgb(70, 150, 179)" opacity="1.0"/>
    <path d="M 294.2607116699219 414.1663818359375 C 291.2855529785156 414.2794189453125 287.9925537109375 414.52978515625 285.93218994140625 416.6763916015625 C 283.7203063964844 418.98370361328125 283.7974853515625 422.7615966796875 285.145751953125 425.6595458984375 C 285.6651306152344 426.777099609375 286.3839111328125 427.8538818359375 287.4428405761719 428.48388671875 C 288.31317138671875 429.00213623046875 289.3399963378906 429.178466796875 290.3465270996094 429.2899169921875 C 293.520263671875 429.64501953125 296.9938659667969 429.3760986328125 299.470703125 427.3612060546875 C 301.9655456542969 425.328857421875 302.93939208984375 421.6141357421875 301.7441101074219 418.6234130859375 C 300.548828125 415.63262939453125 297.306396484375 413.583984375 294.091796875 413.81494140625 L 294.2607116699219 414.1663818359375" stroke-width="0.6000000238418579" fill="rgb(140, 28, 33)" opacity="1.0"/>
    <path d="M 334.7069091796875 388.271728515625 C 331.33612060546875 388.5889587402344 327.83209228515625 388.95623779296875 324.90106201171875 390.6557922363281 C 321.97003173828125 392.35528564453125 319.7596130371094 395.8143310546875 320.5826416015625 399.100341796875 C 321.607666015625 403.154296875 326.91729736328125 404.9488830566406 330.80963134765625 403.400146484375 C 334.70196533203125 401.8514404296875 337.2159118652344 397.9931945800781 338.6117248535156 394.0489807128906 C 339.1661682128906 392.8713073730469 339.25897216796875 391.5286560058594 338.871826171875 390.2859191894531 C 338.3636169433594 389.11053466796875 336.62445068359375 388.4384765625 335.74212646484375 389.3753356933594 L 334.7069091796875 388.271728515625" stroke-width="0.6000000238418579" fill="rgb(159, 159, 159)" opacity="1.0"/>
    <path d="M 344.6253356933594 409.2835693359375 C 341.6622619628906 409.17926025390625 338.59893798828125 410.087890625 336.4413146972656 412.119140625 C 334.28369140625 414.15045166015625 333.1778259277344 417.369140625 334.0180969238281 420.22393798828125 C 334.6147155761719 422.2415771484375 336.1126708984375 423.919921875 337.9122314453125 425.0135498046875 C 339.7118225097656 426.107177734375 341.7947998046875 426.6607666015625 343.8843078613281 426.92529296875 C 344.7936706542969 427.0399169921875 345.7558288574219 427.09429931640625 346.5831298828125 426.70526123046875 C 347.53179931640625 426.2596435546875 348.1287536621094 425.315185546875 348.6316223144531 424.3919677734375 C 350.0513000488281 421.7855224609375 351.1256103515625 418.8621826171875 350.8507385253906 415.906494140625 C 350.57586669921875 412.95086669921875 348.66009521484375 410.0038146972656 345.7969970703125 409.24847412109375 L 344.6253356933594 409.2835693359375" stroke-width="0.6000000238418579" fill="rgb(159, 159, 159)" opacity="1.0"/>
    <path d="M 256.3790588378906 370.14093017578125 C 256.5616149902344 367.3465270996094 256.64349365234375 364.23248291015625 254.8212890625 362.1132507324219 C 253.0521240234375 360.0498352050781 250.07733154296875 359.6094970703125 247.36993408203125 359.3558044433594 C 246.26992797851562 359.25439453125 245.1175537109375 359.1658020019531 244.1009521484375 359.59649658203125 C 242.38116455078125 360.3239440917969 241.56204223632812 362.28814697265625 241.20065307617188 364.11737060546875 C 240.86456298828125 365.8150634765625 240.77398681640625 367.5522155761719 240.93170166015625 369.2756652832031 C 241.186767578125 372.07415771484375 242.38192749023438 375.1214294433594 244.98611450195312 376.174560546875 C 246.39120483398438 376.74517822265625 248.00787353515625 376.6279296875 249.44921875 376.14892578125 C 250.89056396484375 375.669921875 252.19155883789062 374.8489990234375 253.46435546875 374.0202331542969 C 254.7371826171875 373.19146728515625 255.9700927734375 372.3498840332031 256.77093505859375 371.10211181640625 L 256.3790588378906 370.14093017578125" stroke-width="0.6000000238418579" fill="rgb(218, 166, 20)" opacity="1.0"/>
    <path d="M 253.8472900390625 391.9191589355469 C 251.21331787109375 388.02252197265625 245.91925048828125 386.9989318847656 242.02264404296875 389.6329040527344 C 241.68896484375 389.8584289550781 241.3717041015625 390.10736083984375 241.07327270507812 390.3778076171875 C 239.939453125 391.4056396484375 239.06814575195312 392.8137512207031 239.0062255859375 394.34210205078125 C 238.95379638671875 395.6336975097656 239.471923828125 396.8782958984375 240.09442138671875 398.01019287109375 C 241.76483154296875 401.0376892089844 244.2154541015625 403.5627136230469 247.191650390625 405.3229675292969 C 247.9791259765625 405.78692626953125 248.82730102539062 406.20281982421875 249.74078369140625 406.27001953125 C 251.2742919921875 406.3836975097656 252.7335205078125 405.47760009765625 253.72457885742188 404.3004455566406 C 255.19717407226562 402.5538330078125 255.84918212890625 400.1973571777344 255.7293701171875 397.9154357910156 C 255.60955810546875 395.6335144042969 254.764404296875 393.4270324707031 253.5284423828125 391.5053405761719 L 253.8472900390625 391.9191589355469" stroke-width="0.6000000238418579" fill="rgb(143, 165, 67)" opacity="1.0"/>
    <path d="M 203.89501953125 371.8898010253906 C 202.20269775390625 377.4821472167969 208.699951171875 383.48291015625 214.2464599609375 381.76922607421875 C 219.79290771484375 380.0555419921875 221.891845703125 371.9091491699219 218.16009521484375 367.41107177734375 C 214.4283447265625 362.9129638671875 206.554931640625 363.1305236816406 202.740234375 367.565673828125 L 203.89501953125 371.8898010253906" stroke-width="0.6000000238418579" fill="rgb(233, 92, 21)" opacity="1.0"/>
    <path d="M 270.2695007324219 369.5917663574219 C 269.8642883300781 372.3488464355469 269.66619873046875 375.68426513671875 271.9015808105469 377.36407470703125 C 272.81719970703125 377.9979553222656 273.9069519042969 378.33209228515625 275.0205078125 378.3203430175781 C 277.7764892578125 378.3655090332031 280.3833923339844 377.072021484375 282.0145568847656 374.85009765625 C 283.39337158203125 372.9617614746094 283.8864440917969 370.60870361328125 284.3101501464844 368.32379150390625 C 284.54608154296875 367.0398864746094 284.755859375 365.66827392578125 284.24578857421875 364.4744567871094 C 283.5528259277344 362.88873291015625 281.783447265625 362.086181640625 280.11834716796875 361.6168518066406 C 277.68231201171875 360.92694091796875 275.15069580078125 360.6358947753906 272.6216735839844 360.75494384765625 C 271.7479248046875 360.7977600097656 270.8363952636719 360.9011535644531 270.10394287109375 361.37884521484375 C 269.4455871582031 361.85784912109375 268.94085693359375 362.5180969238281 268.6512451171875 363.27899169921875 C 267.6829833984375 365.552978515625 267.7610168457031 368.1372375488281 268.86468505859375 370.3486633300781 L 270.2695007324219 369.5917663574219" stroke-width="0.6000000238418579" fill="rgb(70, 150, 179)" opacity="1.0"/>
    <path d="M 328.7838439941406 365.7366943359375 C 329.2259216308594 362.828857421875 329.5938720703125 359.58721923828125 327.8930969238281 357.18988037109375 C 326.0645446777344 354.6156921386719 322.38446044921875 353.9898376464844 319.322509765625 354.7605895996094 C 318.1418151855469 355.0572509765625 316.96368408203125 355.5549621582031 316.15594482421875 356.4656066894531 C 315.4916687011719 357.2139587402344 315.1300964355469 358.1775817871094 314.8352966308594 359.1335754394531 C 313.90203857421875 362.147216796875 313.5187072753906 365.56756591796875 315.01434326171875 368.3446044921875 C 316.5236511230469 371.1423645019531 319.94744873046875 372.77630615234375 323.07110595703125 372.1712341308594 C 326.19476318359375 371.566162109375 328.7840270996094 368.79998779296875 329.15618896484375 365.6379699707031 L 328.7838439941406 365.7366943359375" stroke-width="0.6000000238418579" fill="rgb(140, 28, 33)" opacity="1.0"/>
    <path d="M 351.7231750488281 392.31451416015625 C 348.3741149902344 392.8286437988281 344.8949279785156 393.4005432128906 342.0660705566406 395.2699279785156 C 339.23724365234375 397.1393127441406 337.23126220703125 400.724365234375 338.2457580566406 403.9591064453125 C 339.5069580078125 407.94927978515625 344.91650390625 409.4315490722656 348.7145690917969 407.6566162109375 C 352.51263427734375 405.88165283203125 354.7984924316406 401.8800048828125 355.9622802734375 397.8578796386719 C 356.447265625 396.64886474609375 356.46142578125 395.30206298828125 356.001953125 394.0831604003906 C 355.4255065917969 392.9385986328125 353.6486511230469 392.36895751953125 352.8219909667969 393.35650634765625 L 351.7231750488281 392.31451416015625" stroke-width="0.6000000238418579" fill="rgb(159, 159, 159)" opacity="1.0"/>
    <path d="M 187.45721435546875 406.9376220703125 C 184.44400024414062 407.4936828613281 181.5556640625 409.09423828125 179.83187866210938 411.62548828125 C 178.10806274414062 414.15673828125 177.7105712890625 417.65142822265625 179.19558715820312 420.34454345703125 C 180.2479248046875 422.247314453125 182.134033203125 423.6065673828125 184.19400024414062 424.3084716796875 C 186.25396728515625 425.01025390625 188.4793701171875 425.10400390625 190.6468505859375 424.9046630859375 C 191.59002685546875 424.81732177734375 192.57305908203125 424.657470703125 193.32101440429688 424.08026123046875 C 194.1788330078125 423.41888427734375 194.5704345703125 422.3326416015625 194.87179565429688 421.28875732421875 C 195.72259521484375 418.341796875 196.1541748046875 415.1522216796875 195.2171630859375 412.231201171875 C 194.2801513671875 409.31005859375 191.68927001953125 406.7638854980469 188.63165283203125 406.6407165527344 L 187.45721435546875 406.9376220703125" stroke-width="0.6000000238418579" fill="rgb(159, 159, 159)" opacity="1.0"/>
    <path d="M 356.3607177734375 374.9029846191406 C 353.64776611328125 375.4078369140625 350.654052734375 376.0865478515625 349.0731506347656 378.3417663574219 C 347.53265380859375 380.5328369140625 347.8351745605469 383.48065185546875 348.2509765625 386.1278076171875 C 348.4214782714844 387.20294189453125 348.6169738769531 388.3249816894531 349.2753601074219 389.19110107421875 C 350.3880310058594 390.6566162109375 352.4629211425781 390.9614562988281 354.297607421875 390.8619689941406 C 356.00054931640625 390.7702941894531 357.6814880371094 390.4345703125 359.2889709472656 389.86505126953125 C 361.89947509765625 388.9412841796875 364.5190124511719 387.0592956542969 364.89178466796875 384.31640625 C 365.0951843261719 382.8359069824219 364.59027099609375 381.3205261230469 363.78253173828125 380.0605163574219 C 362.9747619628906 378.8005065917969 361.87457275390625 377.7575988769531 360.7737731933594 376.7435302734375 C 359.6729736328125 375.7294616699219 358.569580078125 374.7566223144531 357.183349609375 374.2951354980469 L 356.3607177734375 374.9029846191406" stroke-width="0.6000000238418579" fill="rgb(218, 166, 20)" opacity="1.0"/>
    <path d="M 373.5701904296875 386.9678039550781 C 369.9669189453125 389.9132385253906 369.43365478515625 395.2220153808594 372.37908935546875 398.8252868652344 C 372.6313171386719 399.13385009765625 372.90509033203125 399.4241027832031 373.1983947753906 399.69390869140625 C 374.31304931640625 400.7189025878906 375.77886962890625 401.4510803222656 377.2904968261719 401.37481689453125 C 378.56793212890625 401.3105163574219 379.74786376953125 400.6882019042969 380.807373046875 399.97314453125 C 383.6407165527344 398.0552062988281 385.9088439941406 395.4136047363281 387.37615966796875 392.32275390625 C 387.76263427734375 391.5050964355469 388.0963134765625 390.6319274902344 388.08050537109375 389.7257385253906 C 388.0548095703125 388.20440673828125 387.0308837890625 386.8478088378906 385.78192138671875 385.9768981933594 C 383.9285583496094 384.6826477050781 381.5478820800781 384.2517395019531 379.30999755859375 384.5747375488281 C 377.0721130371094 384.897705078125 374.9737243652344 385.92864990234375 373.1910400390625 387.3191833496094 L 373.5701904296875 386.9678039550781" stroke-width="0.6000000238418579" fill="rgb(143, 165, 67)" opacity="1.0"/>
    <path d="M 365.80078125 364.20263671875 C 367.1576232910156 369.8365783691406 375.7268371582031 371.71246337890625 379.61322021484375 367.4642333984375 C 383.4996032714844 363.21600341796875 381.209716796875 355.1927185058594 375.7605285644531 353.215576171875 C 370.31134033203125 351.2384338378906 363.6834716796875 355.3735656738281 362.64385986328125 361.0818176269531 L 365.80078125 364.20263671875" stroke-width="0.6000000238418579" fill="rgb(233, 92, 21)" opacity="1.0"/>
    <path d="M 397.19500732421875 365.9831237792969 C 396.8346252441406 368.8013916015625 396.6964416503906 372.2052307128906 399.0072937011719 373.8748474121094 C 399.9527587890625 374.5035095214844 401.07000732421875 374.82330322265625 402.20489501953125 374.7900695800781 C 405.0151672363281 374.78338623046875 407.64788818359375 373.4150390625 409.2681579589844 371.118896484375 C 410.63763427734375 369.1676025390625 411.09527587890625 366.759521484375 411.4835205078125 364.4222106933594 C 411.6994934082031 363.1089172363281 411.8871154785156 361.70672607421875 411.3443298339844 360.49951171875 C 410.6076354980469 358.89630126953125 408.78863525390625 358.11199951171875 407.082275390625 357.6654052734375 C 404.58587646484375 357.0086975097656 401.9996337890625 356.7603759765625 399.4238586425781 356.9300842285156 C 398.53399658203125 356.9904479980469 397.6067810058594 357.11328125 396.8692626953125 357.6142272949219 C 396.2073059082031 358.1150817871094 395.7054138183594 358.7977600097656 395.42474365234375 359.5789489746094 C 394.4811706542969 361.9154968261719 394.610107421875 364.5483703613281 395.7774353027344 366.78155517578125 L 397.19500732421875 365.9831237792969" stroke-width="0.6000000238418579" fill="rgb(70, 150, 179)" opacity="1.0"/>
    <path d="M 389.7380065917969 412.19207763671875 C 388.49517822265625 414.961669921875 387.23388671875 418.083740234375 388.2630310058594 420.9375 C 389.3703918457031 424.0025634765625 392.8572082519531 425.64141845703125 396.1150817871094 425.720703125 C 397.37115478515625 425.7518310546875 398.68023681640625 425.582275390625 399.7350158691406 424.8997802734375 C 400.6023254394531 424.339111328125 401.22808837890625 423.480712890625 401.7853088378906 422.6114501953125 C 403.5458068847656 419.87225341796875 404.8717956542969 416.5767822265625 404.1515197753906 413.40203857421875 C 403.4233703613281 410.202880859375 400.4698791503906 407.63226318359375 397.1964111328125 407.3711853027344 C 393.9229431152344 407.110107421875 390.5839538574219 409.1457214355469 389.3404541015625 412.1873779296875 L 389.7380065917969 412.19207763671875" stroke-width="0.6000000238418579" fill="rgb(140, 28, 33)" opacity="1.0"/>
    <path d="M 404.5675048828125 396.2054748535156 C 402.7227478027344 399.03546142578125 400.8343811035156 402.0005798339844 400.34234619140625 405.34521484375 C 399.8503723144531 408.6897888183594 401.18011474609375 412.56378173828125 404.25787353515625 413.9608154296875 C 408.0609130859375 415.6767578125 412.7589111328125 412.643310546875 413.9654541015625 408.64141845703125 C 415.17205810546875 404.6395263671875 413.7188720703125 400.2806396484375 411.5044250488281 396.74176025390625 C 410.9286804199219 395.57757568359375 409.9375 394.67156982421875 408.7264099121094 394.2025146484375 C 407.4927978515625 393.8697814941406 405.8881530761719 394.8111572265625 406.0722351074219 396.0819396972656 L 404.5675048828125 396.2054748535156" stroke-width="0.6000000238418579" fill="rgb(159, 159, 159)" opacity="1.0"/>
    <path d="M 431.414306640625 369.6457214355469 C 431.6339111328125 372.59368896484375 432.86834716796875 375.5306396484375 435.11669921875 377.4475402832031 C 437.36505126953125 379.3644714355469 440.675537109375 380.1095886230469 443.4132080078125 378.96563720703125 C 445.3477783203125 378.1543884277344 446.847900390625 376.48687744140625 447.735595703125 374.58416748046875 C 448.62322998046875 372.6814270019531 448.94482421875 370.5567321777344 448.979248046875 368.4570617675781 C 448.99371337890625 367.5433044433594 448.9427490234375 366.58380126953125 448.46697998046875 365.80633544921875 C 447.9219970703125 364.9147033691406 446.92083740234375 364.426025390625 445.9510498046875 364.02825927734375 C 443.21307373046875 362.9053955078125 440.19873046875 362.15936279296875 437.2994384765625 362.75396728515625 C 434.400146484375 363.34857177734375 431.68829345703125 365.5684814453125 431.2518310546875 368.48834228515625 L 431.414306640625 369.6457214355469" stroke-width="0.6000000238418579" fill="rgb(159, 159, 159)" opacity="1.0"/>
    <path d="M 420.005615234375 407.36627197265625 C 417.2728271484375 408.4041748046875 414.2801513671875 409.67626953125 413.05755615234375 412.3253173828125 C 411.86492919921875 414.8997802734375 412.7362060546875 417.91558837890625 413.66888427734375 420.5965576171875 C 414.04937744140625 421.6851806640625 414.4647216796875 422.81787109375 415.314453125 423.5965576171875 C 416.75067138671875 424.9144287109375 418.9710693359375 424.84088134765625 420.86474609375 424.39117431640625 C 422.6226806640625 423.9744873046875 424.3115234375 423.3074951171875 425.87982177734375 422.41064453125 C 428.4267578125 420.95538330078125 430.802490234375 418.49951171875 430.673828125 415.57000732421875 C 430.60662841796875 413.9884033203125 429.7945556640625 412.50396728515625 428.71484375 411.34283447265625 C 427.63525390625 410.1817321777344 426.291748046875 409.3020935058594 424.9530029296875 408.4526062011719 C 423.6142578125 407.6031494140625 422.2806396484375 406.797119140625 420.74853515625 406.5774841308594 L 420.005615234375 407.36627197265625" stroke-width="0.6000000238418579" fill="rgb(218, 166, 20)" opacity="1.0"/>
    <path d="M 142.87925720214844 228.9835205078125 C 139.6092529296875 232.64678955078125 139.92807006835938 238.26736450195312 143.5913543701172 241.537353515625 C 143.90504455566406 241.8173828125 144.2382049560547 242.07476806640625 144.58831787109375 242.30764770507812 C 145.91885375976562 243.1922607421875 147.56710815429688 243.71380615234375 149.12994384765625 243.38531494140625 C 150.45066833496094 243.10784912109375 151.57785034179688 242.264892578125 152.56423950195312 241.34512329101562 C 155.2011260986328 238.8795166015625 157.1297607421875 235.75283813476562 158.14974975585938 232.28985595703125 C 158.4178466796875 231.37408447265625 158.62173461914062 230.40911865234375 158.4559326171875 229.46728515625 C 158.17855834960938 227.88604736328125 156.887939453125 226.64089965820312 155.4428253173828 225.93902587890625 C 153.29806518554688 224.89547729492188 150.74598693847656 224.838623046875 148.4669189453125 225.54388427734375 C 146.1878662109375 226.24917602539062 144.17079162597656 227.6693115234375 142.54200744628906 229.41217041015625 L 142.87925720214844 228.9835205078125" stroke-width="0.6000000238418579" fill="rgb(143, 165, 67)" opacity="1.0"/>
    <path d="M 167.81146240234375 263.85650634765625 C 168.74237060546875 269.67779541015625 177.28518676757812 272.2575378417969 181.56256103515625 268.25604248046875 C 185.83993530273438 264.2545471191406 184.15155029296875 255.93621826171875 178.7811279296875 253.50030517578125 C 173.41070556640625 251.06442260742188 166.36181640625 254.73455810546875 164.8563232421875 260.44183349609375 L 167.81146240234375 263.85650634765625" stroke-width="0.6000000238418579" fill="rgb(233, 92, 21)" opacity="1.0"/>
    <path d="M 155.3553466796875 312.5536193847656 C 154.14865112304688 315.08233642578125 152.969482421875 318.22808837890625 154.61911010742188 320.504638671875 C 155.31085205078125 321.38507080078125 156.25872802734375 322.0291748046875 157.33206176757812 322.3480529785156 C 159.96646118164062 323.20849609375 162.8544921875 322.7386779785156 165.080322265625 321.08758544921875 C 166.96487426757812 319.6821594238281 168.13619995117188 317.5676574707031 169.22067260742188 315.4980773925781 C 169.8280029296875 314.3345031738281 170.4361572265625 313.0789489746094 170.300048828125 311.7807312011719 C 170.10443115234375 310.0518493652344 168.64242553710938 308.7562255859375 167.18182373046875 307.8116760253906 C 165.04598999023438 306.4266662597656 162.7000732421875 305.396484375 160.23501586914062 304.7610778808594 C 159.38287353515625 304.5431823730469 158.47650146484375 304.3722839355469 157.63116455078125 304.61407470703125 C 156.85665893554688 304.87908935546875 156.17596435546875 305.3637390136719 155.6721649169922 306.0089416503906 C 154.0677490234375 307.9065856933594 153.37655639648438 310.4125061035156 153.7812957763672 312.86431884765625 L 155.3553466796875 312.5536193847656" stroke-width="0.6000000238418579" fill="rgb(70, 150, 179)" opacity="1.0"/>
    <path d="M 125.11085510253906 298.8395690917969 C 124.1148681640625 295.89471435546875 122.88723754882812 292.6723937988281 120.12692260742188 291.24676513671875 C 117.16081237792969 289.7170715332031 113.40165710449219 290.9152526855469 110.90065002441406 293.1248474121094 C 109.93600463867188 293.97637939453125 109.0712890625 295.0154113769531 108.75479125976562 296.262451171875 C 108.49423217773438 297.2874755859375 108.62234497070312 298.36773681640625 108.80946350097656 299.408447265625 C 109.3956298828125 302.6910095214844 110.69549560546875 306.0885925292969 113.44746398925781 307.97027587890625 C 116.22232055664062 309.8648376464844 120.23004150390625 309.737548828125 122.869384765625 307.653564453125 C 125.50872802734375 305.569580078125 126.59756469726562 301.71575927734375 125.41256713867188 298.5661926269531 L 125.11085510253906 298.8395690917969" stroke-width="0.6000000238418579" fill="rgb(140, 28, 33)" opacity="1.0"/>
    <path d="M 139.4698486328125 274.5482177734375 C 136.38150024414062 275.9321594238281 133.1831512451172 277.40631103515625 130.9553985595703 279.9571533203125 C 128.72769165039062 282.50799560546875 127.74765014648438 286.49249267578125 129.58306884765625 289.3379821777344 C 131.85653686523438 292.84539794921875 137.45884704589844 292.8368835449219 140.64491271972656 290.11968994140625 C 143.8309783935547 287.40252685546875 144.9699249267578 282.942626953125 145.02297973632812 278.76080322265625 C 145.1691131591797 277.4679260253906 144.82528686523438 276.1673278808594 144.05934143066406 275.1156005859375 C 143.20046997070312 274.16650390625 141.3383331298828 274.0895690917969 140.80445861816406 275.2599182128906 L 139.4698486328125 274.5482177734375" stroke-width="0.6000000238418579" fill="rgb(159, 159, 159)" opacity="1.0"/>
    <path d="M 157.5408935546875 296.6311340332031 C 155.77694702148438 299.0281066894531 154.7958221435547 302.0816650390625 155.25802612304688 305.02008056640625 C 155.72023010253906 307.9584655761719 157.7620849609375 310.69732666015625 160.60406494140625 311.6170349121094 C 162.61419677734375 312.2647399902344 164.85345458984375 311.97332763671875 166.7786865234375 311.1007995605469 C 168.7039794921875 310.228271484375 170.34207153320312 308.81512451171875 171.74432373046875 307.23297119140625 C 172.3541259765625 306.5440979003906 172.94393920898438 305.7773742675781 173.08984375 304.87139892578125 C 173.257568359375 303.8327941894531 172.81265258789062 302.8032531738281 172.33209228515625 301.86376953125 C 170.97537231445312 299.21142578125 169.16046142578125 296.66595458984375 166.55499267578125 295.2204895019531 C 163.949462890625 293.7750244140625 160.422119140625 293.6945495605469 158.17514038085938 295.64007568359375 L 157.5408935546875 296.6311340332031" stroke-width="0.6000000238418579" fill="rgb(159, 159, 159)" opacity="1.0"/>
    <path d="M 125.44471740722656 345.5722351074219 C 124.70849609375 342.7296142578125 123.76699829101562 339.601806640625 121.25627136230469 338.0901184082031 C 118.816650390625 336.6166076660156 115.70976257324219 337.1553955078125 112.930419921875 337.7922058105469 C 111.80171203613281 338.0525817871094 110.62509155273438 338.34295654296875 109.7542724609375 339.1058044433594 C 108.28070068359375 340.3951721191406 108.11032104492188 342.6202087402344 108.35137939453125 344.5604553222656 C 108.57443237304688 346.3614196777344 109.054931640625 348.1210021972656 109.77816772460938 349.7853698730469 C 110.95150756835938 352.48828125 113.14271545410156 355.1300964355469 116.08192443847656 355.3232727050781 C 117.66854858398438 355.42987060546875 119.2398681640625 354.7820129394531 120.51779174804688 353.83154296875 C 121.79570007324219 352.8810119628906 122.821533203125 351.6361389160156 123.81674194335938 350.3927307128906 C 124.81192016601562 349.1493225097656 125.76318359375 347.9062194824219 126.15072631835938 346.4006042480469 L 125.44471740722656 345.5722351074219" stroke-width="0.6000000238418579" fill="rgb(218, 166, 20)" opacity="1.0"/>
    <path d="M 166.83917236328125 348.6534423828125 C 163.09417724609375 351.9173889160156 162.7042236328125 357.5992736816406 165.96820068359375 361.3442687988281 C 166.2476806640625 361.66497802734375 166.549560546875 361.9654235839844 166.87158203125 362.2433776855469 C 168.0953369140625 363.2993469238281 169.68389892578125 364.03106689453125 171.2940673828125 363.8987731933594 C 172.65481567382812 363.7870788574219 173.8927001953125 363.0833435058594 174.99896240234375 362.28472900390625 C 177.9571533203125 360.1429748535156 180.2879638671875 357.2481994628906 181.74920654296875 353.901123046875 C 182.13397216796875 353.0157470703125 182.46054077148438 352.0729064941406 182.4130859375 351.10662841796875 C 182.33441162109375 349.4844055175781 181.19625854492188 348.07159423828125 179.8343505859375 347.1845397949219 C 177.81338500976562 345.8661804199219 175.25894165039062 345.4867248535156 172.88226318359375 345.9067687988281 C 170.50555419921875 346.3268127441406 168.30157470703125 347.4974365234375 166.446533203125 349.0411071777344 L 166.83917236328125 348.6534423828125" stroke-width="0.6000000238418579" fill="rgb(143, 165, 67)" opacity="1.0"/>
    <path d="M 132.98411560058594 376.6595764160156 C 130.48780822753906 371.3487548828125 121.60556030273438 371.2381896972656 118.61846923828125 376.2453308105469 C 115.63140869140625 381.25250244140625 119.54109191894531 388.7425842285156 125.34950256347656 389.5907897949219 C 131.1579132080078 390.43896484375 136.88714599609375 384.9841003417969 136.75254821777344 379.1101989746094 L 132.98411560058594 376.6595764160156" stroke-width="0.6000000238418579" fill="rgb(233, 92, 21)" opacity="1.0"/>
    <path d="M 180.71856689453125 365.4136047363281 C 179.653076171875 368.1057434082031 178.6595458984375 371.4320983886719 180.52096557617188 373.6626281738281 C 181.2962646484375 374.5214538574219 182.3189697265625 375.1185607910156 183.44802856445312 375.3714904785156 C 186.22470092773438 376.0725402832031 189.16891479492188 375.3842468261719 191.3470458984375 373.52490234375 C 193.19064331054688 371.94293212890625 194.2489013671875 369.6802978515625 195.22079467773438 367.4700927734375 C 195.76470947265625 366.2276611328125 196.30303955078125 364.8902893066406 196.071044921875 363.5615539550781 C 195.747314453125 361.79296875 194.14859008789062 360.5605163574219 192.57611083984375 359.68988037109375 C 190.27639770507812 358.4128112792969 187.78512573242188 357.5163879394531 185.198974609375 357.035400390625 C 184.3050537109375 356.8709411621094 183.35858154296875 356.7587585449219 182.504150390625 357.06768798828125 C 181.72439575195312 357.3955993652344 181.056884765625 357.9433288574219 180.58303833007812 358.64404296875 C 179.06298828125 360.71368408203125 178.52734375 363.3459777832031 179.11773681640625 365.8450622558594 L 180.71856689453125 365.4136047363281" stroke-width="0.6000000238418579" fill="rgb(70, 150, 179)" opacity="1.0"/>
  </g>
</svg>
