<?xml version="1.0" ?>
<svg xmlns="http://www.w3.org/2000/svg" version="1.1" width="600" height="600">
  <defs/>
  <g>
    <path d="M 351.8038024902344 346.79205322265625 C 353.3503723144531 347.9947814941406 356.0104064941406 346.6835632324219 356.1416320800781 344.7414245605469 C 356.2728576660156 342.7992858886719 353.9759216308594 341.1618957519531 352.1189880371094 341.7884521484375 C 350.2620849609375 342.4150085449219 349.382568359375 344.90533447265625 350.3114929199219 346.6330261230469 L 351.8038024902344 346.79205322265625" stroke-width="0.6000000238418579" fill="rgb(233, 92, 21)" opacity="1.0"/>
    <path d="M 104.01605224609375 202.15457153320312 C 104.5455322265625 201.57489013671875 105.117919921875 200.82757568359375 104.861083984375 200.08282470703125 C 104.74734497070312 199.79046630859375 104.545654296875 199.54055786132812 104.28387451171875 199.36764526367188 C 103.64767456054688 198.92236328125 102.83511352539062 198.81307983398438 102.10386657714844 199.074462890625 C 101.484130859375 199.2977294921875 100.99786376953125 199.76922607421875 100.53854370117188 200.23577880859375 C 100.28094482421875 200.49822998046875 100.015625 200.78533935546875 99.94636535644531 201.14447021484375 C 99.85798645019531 201.62393188476562 100.1444091796875 202.09039306640625 100.45907592773438 202.46258544921875 C 100.91888427734375 203.00787353515625 101.46392822265625 203.47515869140625 102.07305908203125 203.8463134765625 C 102.28376770019531 203.97412109375 102.51284790039062 204.09378051757812 102.75918579101562 204.09783935546875 C 102.98841857910156 204.08984375 103.21038818359375 204.01535034179688 103.39801025390625 203.8834228515625 C 103.98272705078125 203.50534057617188 104.37216186523438 202.8897705078125 104.46336364746094 202.199462890625 L 104.01605224609375 202.15457153320312" stroke-width="0.6000000238418579" fill="rgb(70, 150, 179)" opacity="1.0"/>
    <path d="M 456.63580322265625 428.8685302734375 C 456.864013671875 429.437744140625 457.1409912109375 430.05908203125 457.7001953125 430.309814453125 C 458.301025390625 430.578857421875 459.0284423828125 430.3018798828125 459.4970703125 429.8394775390625 C 459.677734375 429.6612548828125 459.8367919921875 429.4471435546875 459.885498046875 429.19805908203125 C 459.9256591796875 428.9932861328125 459.888671875 428.781982421875 459.84051513671875 428.5789794921875 C 459.6893310546875 427.9388427734375 459.396240234375 427.28375244140625 458.833740234375 426.94305419921875 C 458.26654052734375 426.60009765625 457.478515625 426.6688232421875 456.9813232421875 427.1080322265625 C 456.484130859375 427.5472412109375 456.3116455078125 428.3182373046875 456.579345703125 428.9256591796875 L 456.63580322265625 428.8685302734375" stroke-width="0.6000000238418579" fill="rgb(140, 28, 33)" opacity="1.0"/>
    <path d="M 91.77421569824219 199.878173828125 C 93.69108581542969 199.48602294921875 95.68136596679688 199.05685424804688 97.259521484375 197.89788818359375 C 98.837646484375 196.73898315429688 99.89224243164062 194.614013671875 99.21476745605469 192.77737426757812 C 98.37344360351562 190.5120849609375 95.21116638183594 189.8116455078125 93.07133483886719 190.94378662109375 C 90.93148803710938 192.075927734375 89.72740173339844 194.44915771484375 89.17105102539062 196.8021240234375 C 88.92584228515625 197.51324462890625 88.95613098144531 198.29043579101562 89.25593566894531 198.98028564453125 C 89.62109375 199.62396240234375 90.66215515136719 199.90179443359375 91.1107177734375 199.30859375 L 91.77421569824219 199.878173828125" stroke-width="0.6000000238418579" fill="rgb(159, 159, 159)" opacity="1.0"/>
    <path d="M 376.76849365234375 298.8468933105469 C 377.24505615234375 298.52032470703125 377.6201171875 298.02337646484375 377.7232666015625 297.4552307128906 C 377.826416015625 296.8871154785156 377.62725830078125 296.25457763671875 377.1651611328125 295.904296875 C 376.838134765625 295.6570739746094 376.4090576171875 295.56732177734375 376.0003967285156 295.6041564941406 C 375.59173583984375 295.6409912109375 375.2011413574219 295.7952575683594 374.8429870605469 295.99560546875 C 374.6871643066406 296.0828857421875 374.530029296875 296.1856994628906 374.44537353515625 296.3424377441406 C 374.3482360839844 296.5220642089844 374.36395263671875 296.7392272949219 374.3919677734375 296.942138671875 C 374.4710693359375 297.5150451660156 374.6409912109375 298.0976257324219 375.026123046875 298.5291442871094 C 375.4112548828125 298.9606628417969 376.0526428222656 299.200927734375 376.5888977050781 298.9880065917969 L 376.76849365234375 298.8468933105469" stroke-width="0.6000000238418579" fill="rgb(159, 159, 159)" opacity="1.0"/>
    <path d="M 97.37117004394531 432.3349609375 C 97.58596801757812 431.736572265625 97.79879760742188 431.06219482421875 97.53384399414062 430.48565673828125 C 97.2769775390625 429.9246826171875 96.65542602539062 429.642333984375 96.08050537109375 429.41748046875 C 95.84683227539062 429.326416015625 95.60092163085938 429.2349853515625 95.35211181640625 429.2652587890625 C 94.93130493164062 429.31640625 94.62957763671875 429.6937255859375 94.43618774414062 430.0701904296875 C 94.25656127929688 430.419677734375 94.12803649902344 430.79302978515625 94.05455017089844 431.178955078125 C 93.93499755859375 431.8056640625 94.0050048828125 432.54541015625 94.50733947753906 432.938232421875 C 94.77822875976562 433.1507568359375 95.13833618164062 433.226318359375 95.48284912109375 433.2120361328125 C 95.82736206054688 433.19775390625 96.16264343261719 433.10009765625 96.49227905273438 432.99896240234375 C 96.8218994140625 432.8978271484375 97.14364624023438 432.7913818359375 97.39651489257812 432.5692138671875 L 97.37117004394531 432.3349609375" stroke-width="0.6000000238418579" fill="rgb(218, 166, 20)" opacity="1.0"/>
    <path d="M 100.68533325195312 139.24468994140625 C 101.896728515625 139.51336669921875 103.0965576171875 138.74913024902344 103.365234375 137.53773498535156 C 103.38824462890625 137.4340057373047 103.40385437011719 137.3287811279297 103.41197204589844 137.2228240966797 C 103.44271850585938 136.8202667236328 103.35421752929688 136.39247131347656 103.08883666992188 136.08847045898438 C 102.86459350585938 135.83152770996094 102.53958129882812 135.6870880126953 102.21502685546875 135.5831756591797 C 101.34585571289062 135.30621337890625 100.41838073730469 135.2670440673828 99.52896118164062 135.46971130371094 C 99.2939453125 135.52366638183594 99.05601501464844 135.5978546142578 98.86883544921875 135.7506866455078 C 98.554443359375 136.00706481933594 98.43927001953125 136.44534301757812 98.46295166015625 136.85061645507812 C 98.4976806640625 137.45233154296875 98.80023193359375 138.0220184326172 99.23710632324219 138.43740844726562 C 99.67398071289062 138.85281372070312 100.23611450195312 139.1221923828125 100.82147216796875 139.26612854003906 L 100.68533325195312 139.24468994140625" stroke-width="0.6000000238418579" fill="rgb(143, 165, 67)" opacity="1.0"/>
    <path d="M 454.52880859375 342.410888671875 C 456.00909423828125 343.385498046875 458.31475830078125 342.01373291015625 458.294921875 340.2528991699219 C 458.27508544921875 338.4920654296875 456.08709716796875 337.1788330078125 454.45703125 337.8760070800781 C 452.82696533203125 338.57318115234375 452.2109375 340.88165283203125 453.171630859375 342.3736572265625 L 454.52880859375 342.410888671875" stroke-width="0.6000000238418579" fill="rgb(233, 92, 21)" opacity="1.0"/>
    <path d="M 105.8072509765625 215.513671875 C 106.43441772460938 215.025634765625 107.1329345703125 214.37759399414062 107.00369262695312 213.59075927734375 C 106.94009399414062 213.27963256835938 106.781494140625 212.99591064453125 106.5498046875 212.77874755859375 C 105.990966796875 212.22598266601562 105.19891357421875 211.97836303710938 104.42474365234375 212.11444091796875 C 103.76834106445312 212.23150634765625 103.2027587890625 212.6190185546875 102.6649169921875 213.00613403320312 C 102.36314392089844 213.22409057617188 102.04946899414062 213.46527099609375 101.91911315917969 213.811767578125 C 101.74917602539062 214.27508544921875 101.95538330078125 214.789306640625 102.20584106445312 215.21432495117188 C 102.57160949707031 215.8367919921875 103.03570556640625 216.39599609375 103.58016967773438 216.87017822265625 C 103.76858520507812 217.03363037109375 103.97674560546875 217.19207763671875 104.22183227539062 217.23812866210938 C 104.451904296875 217.269287109375 104.68606567382812 217.2327880859375 104.89578247070312 217.1331787109375 C 105.54364013671875 216.85565185546875 106.03717041015625 216.30792236328125 106.24591064453125 215.634765625 L 105.8072509765625 215.513671875" stroke-width="0.6000000238418579" fill="rgb(70, 150, 179)" opacity="1.0"/>
    <path d="M 102.08296203613281 80.69891357421875 C 102.30360412597656 81.48020935058594 102.58097839355469 82.33694458007812 103.281982421875 82.74546813964844 C 104.03526306152344 83.183837890625 105.03164672851562 82.92127990722656 105.71330261230469 82.37820434570312 C 105.97621154785156 82.1689453125 106.21554565429688 81.909423828125 106.31466674804688 81.58837890625 C 106.396240234375 81.32449340820312 106.37718200683594 81.04104614257812 106.34220886230469 80.76712036132812 C 106.23294067382812 79.90318298339844 105.93905639648438 78.99977111816406 105.24629211425781 78.472412109375 C 104.5477294921875 77.94142150878906 103.50076293945312 77.92137145996094 102.78468322753906 78.42984008789062 C 102.068603515625 78.93830871582031 101.73341369628906 79.92898559570312 102.00064086914062 80.76620483398438 L 102.08296203613281 80.69891357421875" stroke-width="0.6000000238418579" fill="rgb(140, 28, 33)" opacity="1.0"/>
    <path d="M 91.47439575195312 423.983642578125 C 93.41703796386719 423.7032470703125 95.43537902832031 423.39013671875 97.08377075195312 422.322021484375 C 98.73211669921875 421.25390625 99.91281127929688 419.18768310546875 99.34201049804688 417.30859375 C 98.63223266601562 414.99072265625 95.50640869140625 414.1038818359375 93.29710388183594 415.1123046875 C 91.08779907226562 416.12060546875 89.74282836914062 418.42669677734375 89.0477294921875 420.75048828125 C 88.760498046875 421.44830322265625 88.74526977539062 422.2283935546875 89.00506591796875 422.93682861328125 C 89.33303833007812 423.60284423828125 90.35931396484375 423.94207763671875 90.84332275390625 423.37432861328125 L 91.47439575195312 423.983642578125" stroke-width="0.6000000238418579" fill="rgb(159, 159, 159)" opacity="1.0"/>
    <path d="M 468.77294921875 60.191680908203125 C 469.2847900390625 59.55519104003906 469.5897216796875 58.729461669921875 469.49749755859375 57.91835021972656 C 469.4052734375 57.10723876953125 468.8775634765625 56.33229064941406 468.109130859375 56.046722412109375 C 467.56561279296875 55.84550476074219 466.9482421875 55.89909362792969 466.4100341796875 56.11570739746094 C 465.8719482421875 56.33233642578125 465.40618896484375 56.7005615234375 465.00311279296875 57.117889404296875 C 464.82781982421875 57.29960632324219 464.6571044921875 57.502899169921875 464.6064453125 57.749603271484375 C 464.5482177734375 58.03240966796875 464.65814208984375 58.319915771484375 464.77886962890625 58.583160400390625 C 465.11968994140625 59.32635498046875 465.58740234375 60.045623779296875 466.28485107421875 60.472564697265625 C 466.9822998046875 60.899505615234375 467.948486328125 60.9630126953125 468.58740234375 60.455963134765625 L 468.77294921875 60.191680908203125" stroke-width="0.6000000238418579" fill="rgb(159, 159, 159)" opacity="1.0"/>
    <path d="M 91.93290710449219 106.46920776367188 C 92.57025146484375 106.64134216308594 93.2861328125 106.8050537109375 93.86064147949219 106.48246765136719 C 94.4197998046875 106.16952514648438 94.65988159179688 105.50250244140625 94.84442138671875 104.88858032226562 C 94.91900634765625 104.63906860351562 94.99305725097656 104.37686157226562 94.9407958984375 104.12188720703125 C 94.85263061523438 103.69058227539062 94.436767578125 103.40994262695312 94.03082275390625 103.24136352539062 C 93.65408325195312 103.08474731445312 93.25682067871094 102.9830322265625 92.85116577148438 102.93936157226562 C 92.19253540039062 102.8681640625 91.43270874023438 103.002685546875 91.06820678710938 103.55558776855469 C 90.87100219726562 103.85379028320312 90.82293701171875 104.23287963867188 90.86660766601562 104.5882568359375 C 90.91029357910156 104.94363403320312 91.03952026367188 105.28250122070312 91.171875 105.61520385742188 C 91.30422973632812 105.94790649414062 91.44140625 106.27197265625 91.69253540039062 106.51507568359375 L 91.93290710449219 106.46920776367188" stroke-width="0.6000000238418579" fill="rgb(218, 166, 20)" opacity="1.0"/>
    <path d="M 119.48080444335938 127.08845520019531 C 120.67807006835938 126.64576721191406 121.289794921875 125.31631469726562 120.84710693359375 124.11904907226562 C 120.8092041015625 124.01651000976562 120.76406860351562 123.91680908203125 120.71205139160156 123.8206787109375 C 120.51432800292969 123.45541381835938 120.19941711425781 123.13479614257812 119.800537109375 123.019775390625 C 119.46343994140625 122.92254638671875 119.10189819335938 122.978759765625 118.76332092285156 123.06974792480469 C 117.85737609863281 123.3145751953125 117.03350830078125 123.79750061035156 116.37728881835938 124.46836853027344 C 116.20413208007812 124.64599609375 116.03971862792969 124.84271240234375 115.9630126953125 125.07919311523438 C 115.83401489257812 125.47607421875 115.9786376953125 125.91925048828125 116.22494506835938 126.25653076171875 C 116.59025573730469 126.75750732421875 117.16934204101562 127.08157348632812 117.77859497070312 127.19735717773438 C 118.38787841796875 127.31312561035156 119.02407836914062 127.23284912109375 119.6104736328125 127.0311279296875 L 119.48080444335938 127.08845520019531" stroke-width="0.6000000238418579" fill="rgb(143, 165, 67)" opacity="1.0"/>
    <path d="M 390.1598815917969 303.0846252441406 C 391.3311462402344 304.3963317871094 393.8916015625 303.6682434082031 394.3211364746094 301.97467041015625 C 394.75067138671875 300.28106689453125 392.987060546875 298.46435546875 391.246337890625 298.7176513671875 C 389.5055847167969 298.970947265625 388.3267822265625 301.0277099609375 388.8679504394531 302.70318603515625 L 390.1598815917969 303.0846252441406" stroke-width="0.6000000238418579" fill="rgb(233, 92, 21)" opacity="1.0"/>
    <path d="M 123.15676879882812 113.26313781738281 C 123.69363403320312 112.74136352539062 124.28083801269531 112.06242370605469 124.07856750488281 111.33895874023438 C 123.98687744140625 111.05419921875 123.80905151367188 110.80488586425781 123.56967163085938 110.62545776367188 C 122.98930358886719 110.16555786132812 122.22201538085938 110.01547241210938 121.51113891601562 110.22280883789062 C 120.9085693359375 110.40023803710938 120.41897583007812 110.82150268554688 119.95529174804688 111.23954772949219 C 119.69522094726562 111.47480773925781 119.4263916015625 111.73304748535156 119.34011840820312 112.07098388671875 C 119.22882080078125 112.52236938476562 119.47503662109375 112.98260498046875 119.75344848632812 113.354736328125 C 120.16024780273438 113.89987182617188 120.65257263183594 114.37556457519531 121.21136474609375 114.76336669921875 C 121.40469360351562 114.89700317382812 121.61598205566406 115.02386474609375 121.85023498535156 115.04167175292969 C 122.06889343261719 115.04708862304688 122.28439331054688 114.98873901367188 122.47048950195312 114.873779296875 C 123.04849243164062 114.54702758789062 123.45408630371094 113.98316955566406 123.58001708984375 113.33123779296875 L 123.15676879882812 113.26313781738281" stroke-width="0.6000000238418579" fill="rgb(70, 150, 179)" opacity="1.0"/>
    <path d="M 428.0775146484375 70.70413208007812 C 428.4105224609375 71.31275939941406 428.80517578125 71.973388671875 429.467041015625 72.17977905273438 C 430.17822265625 72.40106201171875 430.95794677734375 71.99209594726562 431.4219970703125 71.40957641601562 C 431.60107421875 71.18507385253906 431.7508544921875 70.9232177734375 431.7720947265625 70.63687133789062 C 431.7896728515625 70.40150451660156 431.7196044921875 70.16905212402344 431.63818359375 69.94757080078125 C 431.3822021484375 69.24885559082031 430.96484375 68.552490234375 430.28717041015625 68.24554443359375 C 429.6038818359375 67.93667602539062 428.72802734375 68.11990356445312 428.22869873046875 68.68017578125 C 427.7293701171875 69.24043273925781 427.639404296875 70.12960815429688 428.0218505859375 70.77590942382812 L 428.0775146484375 70.70413208007812" stroke-width="0.6000000238418579" fill="rgb(140, 28, 33)" opacity="1.0"/>
    <path d="M 113.66839599609375 416.281005859375 C 114.62353515625 414.54345703125 115.5982666015625 412.724853515625 115.739013671875 410.74566650390625 C 115.87974548339844 408.7665100097656 114.93095397949219 406.5576477050781 113.06809997558594 405.8754577636719 C 110.7667236328125 405.03851318359375 108.15058898925781 407.0207214355469 107.62054443359375 409.41607666015625 C 107.09048461914062 411.8114318847656 108.13287353515625 414.29864501953125 109.584716796875 416.2724609375 C 109.97293090820312 416.928466796875 110.59294128417969 417.41510009765625 111.32241821289062 417.6363525390625 C 112.05908203125 417.7767333984375 112.95680236816406 417.1551513671875 112.79312133789062 416.4195556640625 L 113.66839599609375 416.281005859375" stroke-width="0.6000000238418579" fill="rgb(159, 159, 159)" opacity="1.0"/>
    <path d="M 453.3199462890625 431.33001708984375 C 453.6417236328125 430.6549072265625 453.7392578125 429.8548583984375 453.4859619140625 429.1514892578125 C 453.23272705078125 428.4482421875 452.59906005859375 427.8690185546875 451.8541259765625 427.7767333984375 C 451.32733154296875 427.7120361328125 450.7884521484375 427.89007568359375 450.35467529296875 428.19659423828125 C 449.9208984375 428.503173828125 449.58349609375 428.92950439453125 449.31243896484375 429.3863525390625 C 449.194580078125 429.5853271484375 449.0853271484375 429.802490234375 449.09222412109375 430.032958984375 C 449.10003662109375 430.2972412109375 449.25860595703125 430.53021240234375 449.4217529296875 430.73931884765625 C 449.8822021484375 431.32965087890625 450.45068359375 431.871826171875 451.16217041015625 432.10516357421875 C 451.8736572265625 432.3385009765625 452.748046875 432.19122314453125 453.21038818359375 431.6046142578125 L 453.3199462890625 431.33001708984375" stroke-width="0.6000000238418579" fill="rgb(159, 159, 159)" opacity="1.0"/>
    <path d="M 450.26904296875 285.9784240722656 C 450.7161865234375 285.43731689453125 451.189697265625 284.8164978027344 451.13031005859375 284.11846923828125 C 451.073486328125 283.4395446777344 450.5335693359375 282.9136047363281 450.0206298828125 282.46484375 C 449.8118896484375 282.2828369140625 449.5906982421875 282.0957336425781 449.3209228515625 282.03411865234375 C 448.86474609375 281.92962646484375 448.4100341796875 282.2086181640625 448.0682373046875 282.52734375 C 447.7508544921875 282.8230285644531 447.4775390625 283.16278076171875 447.25677490234375 283.5361633300781 C 446.89801025390625 284.1423034667969 446.69378662109375 284.93695068359375 447.0684814453125 285.5330505371094 C 447.27032470703125 285.85516357421875 447.6160888671875 286.0685119628906 447.979248046875 286.1826477050781 C 448.34246826171875 286.2967834472656 448.727294921875 286.3208312988281 449.1075439453125 286.3391418457031 C 449.48779296875 286.35748291015625 449.86187744140625 286.3673400878906 450.20770263671875 286.23126220703125 L 450.26904296875 285.9784240722656" stroke-width="0.6000000238418579" fill="rgb(218, 166, 20)" opacity="1.0"/>
    <path d="M 418.4268798828125 363.3990478515625 C 419.3670654296875 364.3641052246094 420.91156005859375 364.38427734375 421.8765869140625 363.444091796875 C 421.959228515625 363.36358642578125 422.03607177734375 363.2773132324219 422.10650634765625 363.1859436035156 C 422.3740234375 362.8386535644531 422.54833984375 362.3974914550781 422.48828125 361.9634704589844 C 422.43756103515625 361.5966491699219 422.2283935546875 361.27203369140625 421.9954833984375 360.9844665527344 C 421.37103271484375 360.215576171875 420.5521240234375 359.6279296875 419.623779296875 359.2825622558594 C 419.378173828125 359.1916809082031 419.11798095703125 359.117431640625 418.8570556640625 359.1448059082031 C 418.4189453125 359.19049072265625 418.053466796875 359.51995849609375 417.833740234375 359.902099609375 C 417.507080078125 360.46917724609375 417.4427490234375 361.1666259765625 417.59222412109375 361.80389404296875 C 417.74169921875 362.4411926269531 418.09185791015625 363.0204162597656 418.5377197265625 363.4995422363281 L 418.4268798828125 363.3990478515625" stroke-width="0.6000000238418579" fill="rgb(143, 165, 67)" opacity="1.0"/>
    <path d="M 451.59490966796875 355.1351013183594 C 452.47314453125 353.7469177246094 451.1630859375 351.6334228515625 449.53173828125 351.6814880371094 C 447.90032958984375 351.72955322265625 446.72027587890625 353.77923583984375 447.393798828125 355.27801513671875 C 448.0672607421875 356.77679443359375 450.21685791015625 357.3087463378906 451.583251953125 356.39337158203125 L 451.59490966796875 355.1351013183594" stroke-width="0.6000000238418579" fill="rgb(233, 92, 21)" opacity="1.0"/>
    <path d="M 453.083251953125 81.18255615234375 C 453.53631591796875 80.69232177734375 454.026611328125 80.05972290039062 453.8118896484375 79.42529296875 C 453.7166748046875 79.17613220214844 453.54638671875 78.96267700195312 453.32470703125 78.81437683105469 C 452.78594970703125 78.43267822265625 452.0955810546875 78.33578491210938 451.47265625 78.55441284179688 C 450.94464111328125 78.7412109375 450.52886962890625 79.13970947265625 450.13604736328125 79.53408813476562 C 449.915771484375 79.75601196289062 449.688720703125 79.998779296875 449.62811279296875 80.30380249023438 C 449.5506591796875 80.71099853515625 449.7918701171875 81.10897827148438 450.05755615234375 81.42698669433594 C 450.44580078125 81.89286804199219 450.906982421875 82.2928466796875 451.4229736328125 82.61137390136719 C 451.6015625 82.72109985351562 451.79571533203125 82.82394409179688 452.005126953125 82.82858276367188 C 452.2000732421875 82.82293701171875 452.38916015625 82.76068115234375 452.54931640625 82.64942932128906 C 453.04833984375 82.33084106445312 453.3824462890625 81.80941772460938 453.46337890625 81.22293090820312 L 453.083251953125 81.18255615234375" stroke-width="0.6000000238418579" fill="rgb(70, 150, 179)" opacity="1.0"/>
    <path d="M 450.1822509765625 390.2138671875 C 450.34881591796875 389.88092041015625 450.51953125 389.5048828125 450.40814208984375 389.1498718261719 C 450.28826904296875 388.7685852050781 449.8695068359375 388.54974365234375 449.470703125 388.523193359375 C 449.31695556640625 388.5129089355469 449.1556396484375 388.52691650390625 449.02288818359375 388.6051025390625 C 448.9136962890625 388.6693115234375 448.8326416015625 388.7712707519531 448.75982666015625 388.8749084472656 C 448.52996826171875 389.2014465332031 448.3504638671875 389.5984191894531 448.42236328125 389.99114990234375 C 448.4949951171875 390.38690185546875 448.8436279296875 390.7171630859375 449.243408203125 390.76605224609375 C 449.6431884765625 390.8149719238281 450.0628662109375 390.5827941894531 450.23089599609375 390.21649169921875 L 450.1822509765625 390.2138671875" stroke-width="0.6000000238418579" fill="rgb(140, 28, 33)" opacity="1.0"/>
    <path d="M 122.38958740234375 215.74786376953125 C 119.89895629882812 215.9705810546875 117.30975341796875 216.229736328125 115.13911437988281 217.474853515625 C 112.96853637695312 218.719970703125 111.32406616210938 221.26708984375 111.92062377929688 223.69683837890625 C 112.6636962890625 226.69448852539062 116.57901000976562 228.0382080078125 119.45909118652344 226.90777587890625 C 122.33917236328125 225.77734375 124.20916748046875 222.93646240234375 125.253662109375 220.0281982421875 C 125.66720581054688 219.16030883789062 125.7403564453125 218.16900634765625 125.45870971679688 217.24981689453125 C 125.08743286132812 216.37994384765625 123.80523681640625 215.87762451171875 123.150390625 216.5665283203125 L 122.38958740234375 215.74786376953125" stroke-width="0.6000000238418579" fill="rgb(159, 159, 159)" opacity="1.0"/>
    <path d="M 111.71786499023438 224.26239013671875 C 110.17147827148438 222.95437622070312 108.14324951171875 222.147705078125 106.12681579589844 222.3262939453125 C 104.11038208007812 222.50494384765625 102.15673828125 223.76535034179688 101.4014892578125 225.6527099609375 C 100.86920166015625 226.98779296875 100.96401977539062 228.52166748046875 101.46788024902344 229.86907958984375 C 101.97174072265625 231.21649169921875 102.85589599609375 232.39376831054688 103.86564636230469 233.418701171875 C 104.30532836914062 233.86447143554688 104.79879760742188 234.30023193359375 105.40725708007812 234.44097900390625 C 106.104736328125 234.6026611328125 106.82427978515625 234.34793090820312 107.48429870605469 234.06488037109375 C 109.34768676757812 233.26568603515625 111.15956115722656 232.1505126953125 112.26092529296875 230.4478759765625 C 113.36227416992188 228.7452392578125 113.5792236328125 226.3538818359375 112.36160278320312 224.7386474609375 L 111.71786499023438 224.26239013671875" stroke-width="0.6000000238418579" fill="rgb(159, 159, 159)" opacity="1.0"/>
    <path d="M 303.7165832519531 104.56634521484375 C 303.0071105957031 106.33151245117188 302.2949523925781 108.32431030273438 303.02252197265625 110.07809448242188 C 303.7276611328125 111.78463745117188 305.5546569824219 112.69868469238281 307.2486267089844 113.43563842773438 C 307.93719482421875 113.7340087890625 308.6623229980469 114.03518676757812 309.40972900390625 113.97239685058594 C 310.6738586425781 113.866943359375 311.6184997558594 112.77244567871094 312.2390441894531 111.66818237304688 C 312.8154296875 110.64346313476562 313.24169921875 109.54129028320312 313.5047607421875 108.39541625976562 C 313.9326171875 106.53497314453125 313.8063049316406 104.31488037109375 312.3482666015625 103.08370971679688 C 311.56207275390625 102.41790771484375 310.4936828613281 102.15130615234375 309.4618835449219 102.15533447265625 C 308.4300537109375 102.15937805175781 307.41644287109375 102.41384887695312 306.41937255859375 102.67933654785156 C 305.4222717285156 102.94482421875 304.4482421875 103.22705078125 303.6671142578125 103.86294555664062 L 303.7165832519531 104.56634521484375" stroke-width="0.6000000238418579" fill="rgb(218, 166, 20)" opacity="1.0"/>
    <path d="M 219.233642578125 126.50480651855469 C 217.00985717773438 124.49960327148438 213.58160400390625 124.67680358886719 211.57638549804688 126.90060424804688 C 211.4046630859375 127.09101867675781 211.2467041015625 127.29339599609375 211.1036376953125 127.50616455078125 C 210.56015014648438 128.31478881835938 210.237060546875 129.31826782226562 210.43258666992188 130.2722625732422 C 210.59774780273438 131.07846069335938 211.10830688476562 131.76837158203125 211.6661376953125 132.37266540527344 C 213.16156005859375 133.98814392089844 215.06222534179688 135.1737518310547 217.17074584960938 135.80633544921875 C 217.7283935546875 135.97259521484375 218.316162109375 136.09988403320312 218.89096069335938 136.00167846679688 C 219.85601806640625 135.83737182617188 220.6192626953125 135.05419921875 221.05166625976562 134.17514038085938 C 221.69454956054688 132.87049865722656 221.737060546875 131.31446838378906 221.31396484375 129.92257690429688 C 220.890869140625 128.53070068359375 220.03106689453125 127.29638671875 218.97329711914062 126.2978515625 L 219.233642578125 126.50480651855469" stroke-width="0.6000000238418579" fill="rgb(143, 165, 67)" opacity="1.0"/>
    <path d="M 222.61077880859375 94.493408203125 C 221.51425170898438 97.76722717285156 225.24786376953125 101.42425537109375 228.55361938476562 100.50820922851562 C 231.859375 99.5921630859375 233.2403564453125 94.81684875488281 231.11416625976562 92.0953369140625 C 228.98794555664062 89.37380981445312 224.33370971679688 89.36581420898438 222.003662109375 91.9193115234375 L 222.61077880859375 94.493408203125" stroke-width="0.6000000238418579" fill="rgb(233, 92, 21)" opacity="1.0"/>
    <path d="M 202.56195068359375 95.83584594726562 C 201.91162109375 94.19854736328125 200.96502685546875 92.31021118164062 199.21014404296875 92.09783935546875 C 198.50848388671875 92.04049682617188 197.8062744140625 92.20230102539062 197.20050048828125 92.56095886230469 C 195.67767333984375 93.40798950195312 194.659912109375 94.94058227539062 194.46990966796875 96.6727294921875 C 194.3125 98.1424560546875 194.78689575195312 99.58639526367188 195.2777099609375 100.97108459472656 C 195.5546875 101.74847412109375 195.87371826171875 102.56558227539062 196.53057861328125 103.05770874023438 C 197.41143798828125 103.70648193359375 198.6337890625 103.58607482910156 199.69363403320312 103.3162841796875 C 201.2452392578125 102.92337036132812 202.7230224609375 102.28189086914062 204.06964111328125 101.41677856445312 C 204.53436279296875 101.11695861816406 205.00054931640625 100.77203369140625 205.25039672851562 100.27886962890625 C 205.459228515625 99.80844116210938 205.52667236328125 99.28741455078125 205.44451904296875 98.77932739257812 C 205.25518798828125 97.22836303710938 204.39508056640625 95.83851623535156 203.0914306640625 94.9771728515625 L 202.56195068359375 95.83584594726562" stroke-width="0.6000000238418579" fill="rgb(70, 150, 179)" opacity="1.0"/>
    <path d="M 267.755126953125 131.92845153808594 C 266.89312744140625 133.65313720703125 266.0101013183594 135.6009979248047 266.5876770019531 137.43927001953125 C 267.20928955078125 139.41360473632812 269.378662109375 140.54592895507812 271.4440002441406 140.6824493408203 C 272.2402648925781 140.7354278564453 273.07550048828125 140.66249084472656 273.762939453125 140.25729370117188 C 274.3281555175781 139.92440795898438 274.74798583984375 139.396240234375 275.1246032714844 138.85934448242188 C 276.3143005371094 137.1676788330078 277.2429504394531 135.1114501953125 276.869873046875 133.07769775390625 C 276.4924621582031 131.02825927734375 274.68621826171875 129.3188018798828 272.61578369140625 129.06649780273438 C 270.54534912109375 128.81417846679688 268.37255859375 130.01763916015625 267.5029602050781 131.9149627685547 L 267.755126953125 131.92845153808594" stroke-width="0.6000000238418579" fill="rgb(140, 28, 33)" opacity="1.0"/>
    <path d="M 316.6121826171875 117.47801208496094 C 314.12152099609375 118.30372619628906 311.5389709472656 119.19038391113281 309.6207580566406 120.98361206054688 C 307.70263671875 122.77682495117188 306.6346130371094 125.77363586425781 307.8276062011719 128.1123046875 C 309.3066711425781 130.99588012695312 313.6288146972656 131.42800903320312 316.29925537109375 129.58152770996094 C 318.9696960449219 127.73504638671875 320.1974792480469 124.38395690917969 320.5658874511719 121.162353515625 C 320.77984619140625 120.176513671875 320.616455078125 119.14631652832031 320.10797119140625 118.27505493164062 C 319.5198059082031 117.47569274902344 318.08941650390625 117.27053833007812 317.5859375 118.13151550292969 L 316.6121826171875 117.47801208496094" stroke-width="0.6000000238418579" fill="rgb(159, 159, 159)" opacity="1.0"/>
    <path d="M 198.35025024414062 131.7493438720703 C 196.83010864257812 130.4203338623047 194.821533203125 129.58319091796875 192.80862426757812 129.72840881347656 C 190.79571533203125 129.87362670898438 188.82781982421875 131.09817504882812 188.04425048828125 132.96722412109375 C 187.491943359375 134.28936767578125 187.56146240234375 135.81985473632812 188.04177856445312 137.171142578125 C 188.5220947265625 138.5224609375 189.38421630859375 139.7103729248047 190.37408447265625 140.74847412109375 C 190.80508422851562 141.19996643066406 191.28988647460938 141.64236450195312 191.89410400390625 141.7925567626953 C 192.58673095703125 141.965087890625 193.30810546875 141.722900390625 193.97061157226562 141.45147705078125 C 195.84103393554688 140.68521118164062 197.665283203125 139.60308837890625 198.79083251953125 137.92385864257812 C 199.9163818359375 136.24461364746094 200.17160034179688 133.8644256591797 198.98419189453125 132.2345428466797 L 198.35025024414062 131.7493438720703" stroke-width="0.6000000238418579" fill="rgb(159, 159, 159)" opacity="1.0"/>
    <path d="M 281.0118408203125 105.06803894042969 C 279.3345642089844 105.68341064453125 277.4968566894531 106.4400634765625 276.7313232421875 108.05047607421875 C 275.9846496582031 109.61557006835938 276.4962158203125 111.46463012695312 277.0476379394531 113.10952758789062 C 277.2726135253906 113.77740478515625 277.51861572265625 114.4725341796875 278.032470703125 114.95429992675781 C 278.9010925292969 115.76962280273438 280.2585144042969 115.74005126953125 281.4189453125 115.47833251953125 C 282.49609375 115.23583984375 283.5328674316406 114.83993530273438 284.49749755859375 114.302734375 C 286.0640869140625 113.4310302734375 287.532958984375 111.9466552734375 287.474609375 110.15545654296875 C 287.4444885253906 109.18841552734375 286.95849609375 108.27561950683594 286.3067321777344 107.55856323242188 C 285.65496826171875 106.84149169921875 284.8399963378906 106.29461669921875 284.0277404785156 105.76620483398438 C 283.21551513671875 105.23779296875 282.40606689453125 104.73597717285156 281.4713134765625 104.59114074707031 L 281.0118408203125 105.06803894042969" stroke-width="0.6000000238418579" fill="rgb(218, 166, 20)" opacity="1.0"/>
    <path d="M 242.180419921875 120.84909057617188 C 241.0687255859375 123.55970764160156 242.36492919921875 126.65829467773438 245.0755615234375 127.76995849609375 C 245.30767822265625 127.86517333984375 245.5462646484375 127.94375610351562 245.78948974609375 128.0052032470703 C 246.71377563476562 128.2384490966797 247.74465942382812 128.204345703125 248.55859375 127.70901489257812 C 249.2464599609375 127.29046630859375 249.71307373046875 126.59226989746094 250.085205078125 125.87884521484375 C 251.07867431640625 123.96780395507812 251.5423583984375 121.82562255859375 251.4281005859375 119.67478942871094 C 251.39691162109375 119.1063232421875 251.31988525390625 118.52294921875 251.03948974609375 118.02606201171875 C 250.5692138671875 117.19161987304688 249.59576416015625 116.74758911132812 248.643310546875 116.639892578125 C 247.2293701171875 116.47901916503906 245.7823486328125 116.95413208007812 244.640380859375 117.80377197265625 C 243.4984130859375 118.65341186523438 242.6458740234375 119.85311889648438 242.07586669921875 121.15725708007812 L 242.180419921875 120.84909057617188" stroke-width="0.6000000238418579" fill="rgb(143, 165, 67)" opacity="1.0"/>
    <path d="M 249.88192749023438 92.25936889648438 C 249.0989990234375 95.63497924804688 253.17852783203125 98.93222045898438 256.3938903808594 97.70132446289062 C 259.6092224121094 96.47039794921875 260.532958984375 91.56744384765625 258.14874267578125 89.0513916015625 C 255.76455688476562 86.53533935546875 251.11367797851562 86.9718017578125 249.029541015625 89.74554443359375 L 249.88192749023438 92.25936889648438" stroke-width="0.6000000238418579" fill="rgb(233, 92, 21)" opacity="1.0"/>
    <path d="M 338.304443359375 84.81703186035156 C 336.6854248046875 84.32598876953125 334.70050048828125 83.90736389160156 333.4910583496094 85.0986328125 C 333.0281982421875 85.59144592285156 332.7296447753906 86.21574401855469 332.6366271972656 86.88540649414062 C 332.3619079589844 88.5361328125 332.9043273925781 90.21762084960938 334.09185791015625 91.39666748046875 C 335.1017761230469 92.39422607421875 336.4703369140625 92.90170288085938 337.80419921875 93.36141967773438 C 338.55389404296875 93.61843872070312 339.3586120605469 93.86763000488281 340.12127685546875 93.66864013671875 C 341.1356506347656 93.39505004882812 341.7764892578125 92.40475463867188 342.2079162597656 91.4471435546875 C 342.8410339355469 90.04647827148438 343.2432556152344 88.55255126953125 343.3990173339844 87.02334594726562 C 343.4518127441406 86.494873046875 343.47161865234375 85.93827819824219 343.2506103515625 85.45556640625 C 343.02215576171875 85.01722717285156 342.67108154296875 84.65484619140625 342.240234375 84.41259765625 C 340.96185302734375 83.62689208984375 339.4031677246094 83.44154357910156 337.9761962890625 83.90553283691406 L 338.304443359375 84.81703186035156" stroke-width="0.6000000238418579" fill="rgb(70, 150, 179)" opacity="1.0"/>
    <path d="M 333.1193542480469 124.4593505859375 C 332.5685119628906 122.50439453125 331.8758544921875 120.36061096191406 330.12274169921875 119.33758544921875 C 328.2388610839844 118.23974609375 325.74578857421875 118.8951416015625 324.0396423339844 120.25277709960938 C 323.381591796875 120.77593994140625 322.7824401855469 121.4248046875 322.53399658203125 122.22784423828125 C 322.32952880859375 122.88787841796875 322.37677001953125 123.5970458984375 322.4638977050781 124.28237915039062 C 322.7359619140625 126.44389343261719 323.4698486328125 128.70445251464844 325.2021789550781 130.02476501464844 C 326.94903564453125 131.35423278808594 329.5682678222656 131.40594482421875 331.3604431152344 130.1349334716797 C 333.15264892578125 128.8639373779297 333.9927062988281 126.385986328125 333.3254089355469 124.29110717773438 L 333.1193542480469 124.4593505859375" stroke-width="0.6000000238418579" fill="rgb(140, 28, 33)" opacity="1.0"/>
    <path d="M 353.5720520019531 105.638916015625 C 351.2174072265625 105.58134460449219 348.7666320800781 105.54739379882812 346.6023254394531 106.4808349609375 C 344.4380187988281 107.41427612304688 342.6270446777344 109.62236022949219 342.92584228515625 111.9599609375 C 343.3011474609375 114.84463500976562 346.82177734375 116.52023315429688 349.6378173828125 115.7698974609375 C 352.4538269042969 115.01956176757812 354.5072326660156 112.56060791015625 355.7952880859375 109.95046997070312 C 356.27496337890625 109.18243408203125 356.4493103027344 108.26252746582031 356.28387451171875 107.37225341796875 C 356.029296875 106.5185546875 354.8830261230469 105.91152954101562 354.19659423828125 106.48628234863281 L 353.5720520019531 105.638916015625" stroke-width="0.6000000238418579" fill="rgb(159, 159, 159)" opacity="1.0"/>
    <path d="M 350.1662292480469 124.21208190917969 C 348.3993835449219 124.72650146484375 346.7702941894531 125.85749816894531 345.8932800292969 127.47421264648438 C 345.01629638671875 129.09091186523438 344.99005126953125 131.20310974121094 346.0401916503906 132.72254943847656 C 346.7840270996094 133.7958526611328 347.99322509765625 134.49404907226562 349.26654052734375 134.7888946533203 C 350.53985595703125 135.083740234375 351.875244140625 135.0052032470703 353.1583251953125 134.75503540039062 C 353.7166442871094 134.64584350585938 354.29437255859375 134.4908905029297 354.7063903808594 134.1007843017578 C 355.178955078125 133.6537322998047 355.3472900390625 132.98097229003906 355.4642639160156 132.3390350341797 C 355.79449462890625 130.52671813964844 355.8595275878906 128.5947723388672 355.123046875 126.90597534179688 C 354.3865661621094 125.21719360351562 352.68450927734375 123.8524169921875 350.85003662109375 123.96365356445312 L 350.1662292480469 124.21208190917969" stroke-width="0.6000000238418579" fill="rgb(159, 159, 159)" opacity="1.0"/>
    <path d="M 366.1139831542969 113.07582092285156 C 364.3769226074219 113.57107543945312 362.4675598144531 114.19683837890625 361.5755310058594 115.763427734375 C 360.70587158203125 117.28572082519531 361.0836486816406 119.188232421875 361.516845703125 120.88787841796875 C 361.69384765625 121.57807922363281 361.8900146484375 122.29730224609375 362.3721618652344 122.82139587402344 C 363.1871032714844 123.70828247070312 364.5579528808594 123.77978515625 365.74749755859375 123.60250854492188 C 366.8516540527344 123.43840026855469 367.926513671875 123.11659240722656 368.939208984375 122.64694213867188 C 370.58380126953125 121.88496398925781 372.17559814453125 120.49795532226562 372.25042724609375 118.68760681152344 C 372.2922668457031 117.7103271484375 371.870361328125 116.75372314453125 371.2667236328125 115.98208618164062 C 370.6631164550781 115.21044921875 369.8822326660156 114.59823608398438 369.1026916503906 114.00483703613281 C 368.32318115234375 113.41143798828125 367.54449462890625 112.84506225585938 366.6128234863281 112.6292724609375 L 366.1139831542969 113.07582092285156" stroke-width="0.6000000238418579" fill="rgb(218, 166, 20)" opacity="1.0"/>
    <path d="M 434.3670654296875 155.6831512451172 C 431.4593505859375 156.22723388671875 429.543212890625 159.02545166015625 430.0872802734375 161.93316650390625 C 430.1339111328125 162.18215942382812 430.1981201171875 162.42752075195312 430.2794189453125 162.66741943359375 C 430.5885009765625 163.5789794921875 431.18280029296875 164.43426513671875 432.04913330078125 164.8526611328125 C 432.78118896484375 165.206298828125 433.6290283203125 165.218994140625 434.43798828125 165.14324951171875 C 436.60296630859375 164.93746948242188 438.6734619140625 164.15576171875 440.4342041015625 162.87933349609375 C 440.8990478515625 162.5411376953125 441.3514404296875 162.15591430664062 441.618896484375 161.64569091796875 C 442.0684814453125 160.78936767578125 441.9110107421875 159.7205810546875 441.47998046875 158.85400390625 C 440.8409423828125 157.56704711914062 439.64459228515625 156.600830078125 438.2979736328125 156.0986328125 C 436.951416015625 155.5963897705078 435.46673583984375 155.5315399169922 434.0484619140625 155.76351928710938 L 434.3670654296875 155.6831512451172" stroke-width="0.6000000238418579" fill="rgb(143, 165, 67)" opacity="1.0"/>
    <path d="M 144.08229064941406 417.9483642578125 C 142.22695922851562 420.8646240234375 144.9720458984375 425.318603515625 148.40492248535156 425.226318359375 C 151.8378143310547 425.13397216796875 154.3318328857422 420.82757568359375 152.92274475097656 417.6702880859375 C 151.51365661621094 414.5130615234375 146.9935760498047 413.3822021484375 144.11355590820312 415.3009033203125 L 144.08229064941406 417.9483642578125" stroke-width="0.6000000238418579" fill="rgb(233, 92, 21)" opacity="1.0"/>
    <path d="M 437.31817626953125 185.33609008789062 C 435.619384765625 185.44921875 433.60186767578125 185.760498046875 432.8865966796875 187.3118896484375 C 432.6259765625 187.94036865234375 432.5667724609375 188.63421630859375 432.7171630859375 189.2977294921875 C 433.045166015625 190.94952392578125 434.1534423828125 192.33981323242188 435.6905517578125 193.02780151367188 C 436.995849609375 193.6080322265625 438.4647216796875 193.59945678710938 439.8839111328125 193.55819702148438 C 440.6810302734375 193.53375244140625 441.5272216796875 193.48236083984375 442.17449951171875 193.02395629882812 C 443.03228759765625 192.4058837890625 443.28369140625 191.24578857421875 443.3494873046875 190.19088745117188 C 443.44775390625 188.64718627929688 443.2955322265625 187.09774780273438 442.898681640625 185.6026611328125 C 442.7606201171875 185.08636474609375 442.5814208984375 184.5552978515625 442.2017822265625 184.17938232421875 C 441.8309326171875 183.847900390625 441.37158203125 183.6314697265625 440.8798828125 183.55654907226562 C 439.3970947265625 183.27117919921875 437.86376953125 183.650634765625 436.6851806640625 184.5946044921875 L 437.31817626953125 185.33609008789062" stroke-width="0.6000000238418579" fill="rgb(70, 150, 179)" opacity="1.0"/>
    <path d="M 407.78277587890625 158.10772705078125 C 407.3830871582031 156.30264282226562 406.8642883300781 154.31863403320312 405.32391357421875 153.2984161376953 C 403.66851806640625 152.20347595214844 401.3690185546875 152.67037963867188 399.7483825683594 153.81610107421875 C 399.12335205078125 154.257568359375 398.54534912109375 154.8163299560547 398.27813720703125 155.53329467773438 C 398.0582275390625 156.12258911132812 398.0645446777344 156.76950073242188 398.10833740234375 157.39678955078125 C 398.2440185546875 159.37521362304688 398.7942810058594 161.46746826171875 400.3004455566406 162.75677490234375 C 401.8193054199219 164.05517578125 404.19696044921875 164.23736572265625 405.89129638671875 163.17483520507812 C 407.5856628417969 162.11227416992188 408.47698974609375 159.90371704101562 407.9787292480469 157.9654541015625 L 407.78277587890625 158.10772705078125" stroke-width="0.6000000238418579" fill="rgb(140, 28, 33)" opacity="1.0"/>
    <path d="M 142.17694091796875 120.16952514648438 C 140.073486328125 120.91159057617188 137.8928985595703 121.70692443847656 136.29164123535156 123.26202392578125 C 134.69039916992188 124.81710815429688 133.8311767578125 127.38134765625 134.88291931152344 129.34970092773438 C 136.18661499023438 131.77651977539062 139.86700439453125 132.07388305664062 142.1067352294922 130.46136474609375 C 144.3464813232422 128.84884643554688 145.33578491210938 125.98089599609375 145.59677124023438 123.23690795898438 C 145.76268005371094 122.39556884765625 145.60716247558594 121.52264404296875 145.16091918945312 120.7904052734375 C 144.64808654785156 120.12051391601562 143.4290771484375 119.96929931640625 143.01510620117188 120.70919799804688 L 142.17694091796875 120.16952514648438" stroke-width="0.6000000238418579" fill="rgb(159, 159, 159)" opacity="1.0"/>
    <path d="M 417.7235107421875 177.37509155273438 C 416.4229736328125 176.1483154296875 414.673828125 175.34036254882812 412.887939453125 175.4014892578125 C 411.10211181640625 175.46258544921875 409.3199462890625 176.48016357421875 408.5640563964844 178.107666015625 C 408.0311279296875 179.25897216796875 408.0414123535156 180.615478515625 408.421142578125 181.8271484375 C 408.8008728027344 183.03887939453125 409.52392578125 184.1187744140625 410.364990234375 185.07040405273438 C 410.7312316894531 185.48431396484375 411.1453552246094 185.8919677734375 411.6749267578125 186.04510498046875 C 412.281982421875 186.220947265625 412.9283447265625 186.03079223632812 413.52362060546875 185.81283569335938 C 415.2042236328125 185.19744873046875 416.8544921875 184.30108642578125 417.9066162109375 182.85296630859375 C 418.958740234375 181.40487670898438 419.26416015625 179.30746459960938 418.26812744140625 177.82562255859375 L 417.7235107421875 177.37509155273438" stroke-width="0.6000000238418579" fill="rgb(159, 159, 159)" opacity="1.0"/>
    <path d="M 403.640380859375 186.424072265625 C 402.9537353515625 184.76470947265625 402.11859130859375 182.95001220703125 400.4698791503906 182.2470703125 C 398.8674621582031 181.56121826171875 397.0313415527344 182.150634765625 395.4018859863281 182.77175903320312 C 394.7403259277344 183.0250244140625 394.0522766113281 183.30056762695312 393.5894470214844 183.83636474609375 C 392.80615234375 184.7420654296875 392.8913879394531 186.10415649414062 393.2016906738281 187.2589111328125 C 393.48931884765625 188.330810546875 393.92938232421875 189.3558349609375 394.5083923339844 190.30267333984375 C 395.4479675292969 191.84036254882812 396.99884033203125 193.2548828125 398.79541015625 193.1229248046875 C 399.7654113769531 193.05316162109375 400.6622619628906 192.52767944335938 401.35577392578125 191.84375 C 402.04925537109375 191.15985107421875 402.5651550292969 190.3189697265625 403.0625915527344 189.4815673828125 C 403.56005859375 188.64419555664062 404.03094482421875 187.81072998046875 404.1381530761719 186.86599731445312 L 403.640380859375 186.424072265625" stroke-width="0.6000000238418579" fill="rgb(218, 166, 20)" opacity="1.0"/>
    <path d="M 449.6912841796875 179.545166015625 C 448.736083984375 182.39642333984375 450.2730712890625 185.48220825195312 453.12432861328125 186.43743896484375 C 453.36846923828125 186.51922607421875 453.6181640625 186.5836181640625 453.87139892578125 186.63009643554688 C 454.833740234375 186.80648803710938 455.88720703125 186.70184326171875 456.6873779296875 186.1395263671875 C 457.363525390625 185.66436767578125 457.794189453125 184.91775512695312 458.1270751953125 184.16192626953125 C 459.015380859375 182.1375732421875 459.34539794921875 179.91229248046875 459.0828857421875 177.71725463867188 C 459.0125732421875 177.13714599609375 458.89422607421875 176.544921875 458.57342529296875 176.05499267578125 C 458.035400390625 175.232177734375 457.0084228515625 174.84326171875 456.025634765625 174.79736328125 C 454.56671142578125 174.72821044921875 453.11688232421875 175.3126220703125 452.0047607421875 176.260009765625 C 450.8927001953125 177.20733642578125 450.10064697265625 178.49368286132812 449.6051025390625 179.86785888671875 L 449.6912841796875 179.545166015625" stroke-width="0.6000000238418579" fill="rgb(143, 165, 67)" opacity="1.0"/>
    <path d="M 147.27731323242188 106.5546875 C 142.6137237548828 109.59989929199219 143.67840576171875 117.96354675292969 148.77801513671875 120.112548828125 C 153.8776397705078 122.26153564453125 160.40374755859375 117.60107421875 160.43682861328125 112.02969360351562 C 160.46987915039062 106.45834350585938 154.58865356445312 101.79067993164062 149.08502197265625 102.69003295898438 L 147.27731323242188 106.5546875" stroke-width="0.6000000238418579" fill="rgb(233, 92, 21)" opacity="1.0"/>
    <path d="M 451.87701416015625 151.93682861328125 C 450.4783935546875 154.2144317626953 449.04388427734375 157.08013916015625 450.380126953125 159.4053955078125 C 450.9478759765625 160.31005859375 451.782470703125 161.0162353515625 452.7685546875 161.426513671875 C 455.18121337890625 162.50732421875 457.968017578125 162.35165405273438 460.245361328125 161.0089111328125 C 462.1741943359375 159.864990234375 463.4976806640625 157.97674560546875 464.7342529296875 156.12240600585938 C 465.42724609375 155.07962036132812 466.1302490234375 153.9496307373047 466.1314697265625 152.7044677734375 C 466.1195068359375 151.0447540283203 464.86279296875 149.66888427734375 463.57208251953125 148.62619018554688 C 461.68505859375 147.09783935546875 459.5631103515625 145.88499450683594 457.28851318359375 145.03469848632812 C 456.5020751953125 144.742431640625 455.659423828125 144.48928833007812 454.833251953125 144.63375854492188 C 454.0718994140625 144.807373046875 453.3775634765625 145.1987762451172 452.8348388671875 145.76022338867188 C 451.12225341796875 147.3992462158203 450.21490478515625 149.70701599121094 450.3526611328125 152.07350158691406 L 451.87701416015625 151.93682861328125" stroke-width="0.6000000238418579" fill="rgb(70, 150, 179)" opacity="1.0"/>
    <path d="M 376.2355041503906 79.21664428710938 C 376.1901550292969 76.48577880859375 376.0252380371094 73.46073913574219 374.096923828125 71.52899169921875 C 372.0242004394531 69.45510864257812 368.55780029296875 69.45172119140625 365.8735656738281 70.63140869140625 C 364.83843994140625 71.08580017089844 363.8367614746094 71.723876953125 363.2381896972656 72.68270874023438 C 362.74578857421875 73.47074890136719 362.56390380859375 74.40901184082031 362.44195556640625 75.32997131347656 C 362.053955078125 78.23374938964844 362.232421875 81.42478942871094 364.03173828125 83.73593139648438 C 365.84674072265625 86.06396484375 369.2345275878906 87.030029296875 372.00091552734375 85.99247741699219 C 374.7673034667969 84.95492553710938 376.7098693847656 82.02137756347656 376.5611572265625 79.06861877441406 L 376.2355041503906 79.21664428710938" stroke-width="0.6000000238418579" fill="rgb(140, 28, 33)" opacity="1.0"/>
    <path d="M 130.4139862060547 412.244384765625 C 127.9232177734375 414.0574951171875 125.35140991210938 415.9715576171875 123.84649658203125 418.6622314453125 C 122.34158325195312 421.35296630859375 122.2174072265625 425.086181640625 124.386962890625 427.2757568359375 C 127.07110595703125 429.97265625 132.05955505371094 428.91229248046875 134.38682556152344 425.893310546875 C 136.71409606933594 422.8743896484375 136.8904571533203 418.6878662109375 136.15188598632812 414.95306396484375 C 136.03907775878906 413.7740478515625 135.48841857910156 412.68017578125 134.60853576660156 411.8872985839844 C 133.66517639160156 411.20330810546875 131.99208068847656 411.4847412109375 131.7364959716797 412.62750244140625 L 130.4139862060547 412.244384765625" stroke-width="0.6000000238418579" fill="rgb(159, 159, 159)" opacity="1.0"/>
    <path d="M 409.3833312988281 206.63360595703125 C 408.0713806152344 204.1251220703125 405.87139892578125 202.011474609375 403.1671142578125 201.179443359375 C 400.46282958984375 200.347412109375 397.2694396972656 200.94873046875 395.296630859375 202.99356079101562 C 393.9036865234375 204.4410400390625 393.2176513671875 206.4764404296875 393.15936279296875 208.4862060546875 C 393.10107421875 210.49600219726562 393.624755859375 212.486083984375 394.3913879394531 214.34521484375 C 394.7254638671875 215.154052734375 395.13446044921875 215.97830200195312 395.8478088378906 216.48129272460938 C 396.6654052734375 217.058349609375 397.7310791015625 217.1080322265625 398.73468017578125 217.08966064453125 C 401.5680236816406 217.0377197265625 404.5013732910156 216.54962158203125 406.8247375488281 214.92645263671875 C 409.14813232421875 213.30328369140625 410.68988037109375 210.32229614257812 409.9654846191406 207.5894775390625 L 409.3833312988281 206.63360595703125" stroke-width="0.6000000238418579" fill="rgb(159, 159, 159)" opacity="1.0"/>
    <path d="M 387.23602294921875 120.54885864257812 C 384.78399658203125 121.7060546875 382.10858154296875 123.09857177734375 381.1694030761719 125.63645935058594 C 380.2525939941406 128.103271484375 381.27618408203125 130.8290252685547 382.33233642578125 133.2407684326172 C 382.7628173828125 134.21986389160156 383.2287902832031 135.2373046875 384.0707092285156 135.89596557617188 C 385.4940490722656 137.01080322265625 387.5419006347656 136.78236389160156 389.2605285644531 136.22970581054688 C 390.8559265136719 135.71734619140625 392.3694763183594 134.97854614257812 393.7548522949219 134.03594970703125 C 396.0048828125 132.50625610351562 398.0242919921875 130.06369018554688 397.693603515625 127.36407470703125 C 397.5172119140625 125.9063720703125 396.65899658203125 124.5924072265625 395.5767517089844 123.59672546386719 C 394.4945068359375 122.60104370117188 393.1885986328125 121.88473510742188 391.8892822265625 121.19595336914062 C 390.5899963378906 120.50717163085938 389.2985534667969 119.85820007324219 387.865966796875 119.76579284667969 L 387.23602294921875 120.54885864257812" stroke-width="0.6000000238418579" fill="rgb(218, 166, 20)" opacity="1.0"/>
    <path d="M 401.7931213378906 81.81123352050781 C 398.740478515625 78.65095520019531 393.70391845703125 78.56369018554688 390.54364013671875 81.6163330078125 C 390.27301025390625 81.87773132324219 390.0212707519531 82.15798950195312 389.7903137207031 82.45501708984375 C 388.9129638671875 83.58380126953125 388.3385314941406 85.02011108398438 388.5282897949219 86.43643188476562 C 388.68853759765625 87.63333129882812 389.3661804199219 88.6949462890625 390.1216735839844 89.63595581054688 C 392.1474609375 92.15206909179688 394.8099670410156 94.07986450195312 397.8326721191406 95.2191162109375 C 398.6321716308594 95.51890563964844 399.479736328125 95.76467895507812 400.33111572265625 95.67904663085938 C 401.7605285644531 95.53610229492188 402.95697021484375 94.466796875 403.6788635253906 93.22366333007812 C 404.7519226074219 91.37881469726562 404.97149658203125 89.105224609375 404.49285888671875 87.02487182617188 C 404.0142517089844 84.94451904296875 402.88043212890625 83.0506591796875 401.43292236328125 81.48193359375 L 401.7931213378906 81.81123352050781" stroke-width="0.6000000238418579" fill="rgb(143, 165, 67)" opacity="1.0"/>
    <path d="M 116.9202880859375 423.94354248046875 C 114.12240600585938 419.1116943359375 105.69303894042969 419.72833251953125 103.26800537109375 424.7177734375 C 100.84300231933594 429.70721435546875 105.15779113769531 436.490234375 110.73306274414062 436.822509765625 C 116.308349609375 437.15478515625 121.29656982421875 431.5181884765625 120.69183349609375 425.9605712890625 L 116.9202880859375 423.94354248046875" stroke-width="0.6000000238418579" fill="rgb(233, 92, 21)" opacity="1.0"/>
    <path d="M 446.57635498046875 196.70809936523438 C 445.2066650390625 199.02621459960938 443.81103515625 201.93731689453125 445.1968994140625 204.2564697265625 C 445.7843017578125 205.15789794921875 446.636962890625 205.85488891601562 447.6373291015625 206.25119018554688 C 450.08599853515625 207.29837036132812 452.890380859375 207.09375 455.1610107421875 205.70217895507812 C 457.084228515625 204.51681518554688 458.3848876953125 202.5921630859375 459.59857177734375 200.70318603515625 C 460.27862548828125 199.64093017578125 460.96728515625 198.49072265625 460.94720458984375 197.23651123046875 C 460.9066162109375 195.56500244140625 459.6171875 194.20074462890625 458.2991943359375 193.17266845703125 C 456.372314453125 191.6656494140625 454.21417236328125 190.48046875 451.90850830078125 189.6630859375 C 451.111328125 189.3822021484375 450.25823974609375 189.14166259765625 449.42852783203125 189.3013916015625 C 448.6646728515625 189.48931884765625 447.9720458984375 189.8955078125 447.43499755859375 190.4703369140625 C 445.7381591796875 192.150634765625 444.8638916015625 194.49069213867188 445.04327392578125 196.8719482421875 L 446.57635498046875 196.70809936523438" stroke-width="0.6000000238418579" fill="rgb(70, 150, 179)" opacity="1.0"/>
    <path d="M 411.9826965332031 134.4713592529297 C 411.5621032714844 131.64842224121094 410.97735595703125 128.5370635986328 408.71533203125 126.79962158203125 C 406.2843017578125 124.9346923828125 402.69268798828125 125.40544128417969 400.0732421875 126.99482727050781 C 399.06304931640625 127.60720825195312 398.11260986328125 128.40528869628906 397.6236572265625 129.48052978515625 C 397.22137451171875 130.36428833007812 397.1612854003906 131.3612060546875 397.1609802246094 132.33200073242188 C 397.15631103515625 135.3933563232422 397.77777099609375 138.67481994628906 399.9580383300781 140.82296752929688 C 402.1568908691406 142.98646545410156 405.79876708984375 143.52378845214844 408.52276611328125 142.07040405273438 C 411.2467346191406 140.61703491210938 412.85791015625 137.3121337890625 412.2998046875 134.27345275878906 L 411.9826965332031 134.4713592529297" stroke-width="0.6000000238418579" fill="rgb(140, 28, 33)" opacity="1.0"/>
    <path d="M 400.02337646484375 72.774658203125 C 401.0065612792969 75.65501403808594 402.06134033203125 78.64134216308594 404.1608581542969 80.84780883789062 C 406.2603454589844 83.05424499511719 409.7471008300781 84.2623291015625 412.4473876953125 82.85472106933594 C 415.77679443359375 81.1097412109375 416.23382568359375 76.09226989746094 414.0648193359375 73.01385498046875 C 411.8959045410156 69.9354248046875 407.99658203125 68.54562377929688 404.2562255859375 68.15129089355469 C 403.1106262207031 67.9132080078125 401.91741943359375 68.11323547363281 400.9120788574219 68.71189880371094 C 399.9909362792969 69.40228271484375 399.76763916015625 71.06341552734375 400.7713928222656 71.63856506347656 L 400.02337646484375 72.774658203125" stroke-width="0.6000000238418579" fill="rgb(159, 159, 159)" opacity="1.0"/>
    <path d="M 441.83465576171875 235.3314208984375 C 440.20758056640625 237.66351318359375 439.34405517578125 240.60382080078125 439.85638427734375 243.39935302734375 C 440.36871337890625 246.19488525390625 442.38507080078125 248.76171875 445.121826171875 249.5716552734375 C 447.0574951171875 250.14187622070312 449.1893310546875 249.80953979492188 451.0072021484375 248.92971801757812 C 452.82513427734375 248.04986572265625 454.355712890625 246.66058349609375 455.656982421875 245.11553955078125 C 456.22283935546875 244.44287109375 456.7677001953125 243.6962890625 456.88525390625 242.827392578125 C 457.0203857421875 241.831298828125 456.57061767578125 240.858642578125 456.08892822265625 239.97286987304688 C 454.72906494140625 237.47210693359375 452.9342041015625 235.08453369140625 450.41064453125 233.76669311523438 C 447.8870849609375 232.4488525390625 444.515869140625 232.45703125 442.41656494140625 234.3695068359375 L 441.83465576171875 235.3314208984375" stroke-width="0.6000000238418579" fill="rgb(159, 159, 159)" opacity="1.0"/>
    <path d="M 408.2857666015625 261.115234375 C 406.76513671875 258.8251953125 404.9756774902344 256.3456115722656 402.29193115234375 255.77581787109375 C 399.6827697753906 255.218017578125 397.0985412597656 256.644775390625 394.8341064453125 258.05810546875 C 393.9150390625 258.63360595703125 392.9627380371094 259.2503356933594 392.425537109375 260.19158935546875 C 391.5159606933594 261.7829895019531 392.04559326171875 263.8038330078125 392.8521728515625 265.44683837890625 C 393.6002197265625 266.9721374511719 394.56341552734375 268.382080078125 395.7122802734375 269.6335754394531 C 397.57696533203125 271.66632080078125 400.32354736328125 273.3337707519531 402.9832458496094 272.6059265136719 C 404.419677734375 272.2151184082031 405.6119079589844 271.1614074707031 406.45196533203125 269.92962646484375 C 407.2920227050781 268.6978759765625 407.8190002441406 267.28271484375 408.3193359375 265.87823486328125 C 408.8196716308594 264.4737548828125 409.2812194824219 263.0829772949219 409.16375732421875 261.6322937011719 L 408.2857666015625 261.115234375" stroke-width="0.6000000238418579" fill="rgb(218, 166, 20)" opacity="1.0"/>
    <path d="M 416.0201416015625 86.72944641113281 C 414.19024658203125 90.80900573730469 416.01397705078125 95.59957885742188 420.093505859375 97.42945861816406 C 420.44287109375 97.58615112304688 420.8028564453125 97.71786499023438 421.1708984375 97.8236083984375 C 422.56915283203125 98.22517395019531 424.143310546875 98.22419738769531 425.4093017578125 97.50892639160156 C 426.479248046875 96.90457153320312 427.2255859375 95.86270141601562 427.82855224609375 94.79290771484375 C 429.4385986328125 91.9271240234375 430.251953125 88.68252563476562 430.18408203125 85.3961181640625 C 430.1646728515625 84.5274658203125 430.0760498046875 83.63381958007812 429.6729736328125 82.86203002929688 C 428.9969482421875 81.56591796875 427.5340576171875 80.84043884277344 426.08660888671875 80.62901306152344 C 423.9378662109375 80.31361389160156 421.7071533203125 80.9666748046875 419.9232177734375 82.20611572265625 C 418.13922119140625 83.445556640625 416.7794189453125 85.23330688476562 415.845458984375 87.19432067871094 L 416.0201416015625 86.72944641113281" stroke-width="0.6000000238418579" fill="rgb(143, 165, 67)" opacity="1.0"/>
    <path d="M 442.10009765625 129.2725372314453 C 439.6026611328125 134.07882690429688 444.497314453125 140.65647888183594 449.84375 140.04270935058594 C 455.190185546875 139.4289093017578 458.4945068359375 132.36500549316406 455.86279296875 127.62901306152344 C 453.231201171875 122.89300537109375 446.0201416015625 121.74603271484375 441.78668212890625 125.13533020019531 L 442.10009765625 129.2725372314453" stroke-width="0.6000000238418579" fill="rgb(233, 92, 21)" opacity="1.0"/>
    <path d="M 446.3443603515625 95.19309997558594 C 445.47393798828125 97.6890869140625 444.69305419921875 100.7608642578125 446.47515869140625 102.72540283203125 C 447.21478271484375 103.4796142578125 448.17022705078125 103.9857177734375 449.209716796875 104.17388916015625 C 451.76904296875 104.70870971679688 454.4288330078125 103.96983337402344 456.34564208984375 102.19158935546875 C 457.9677734375 100.67898559570312 458.8477783203125 98.57508850097656 459.6510009765625 96.52227783203125 C 460.100341796875 95.368408203125 460.541015625 94.12814331054688 460.279296875 92.92478942871094 C 459.91729736328125 91.32368469238281 458.4124755859375 90.25968933105469 456.9451904296875 89.52476501464844 C 454.7991943359375 88.446533203125 452.49285888671875 87.72274780273438 450.1156005859375 87.3814697265625 C 449.2939453125 87.26515197753906 448.42633056640625 87.198486328125 447.6585693359375 87.51254272460938 C 446.9595947265625 87.841064453125 446.371337890625 88.36587524414062 445.965576171875 89.02294921875 C 444.656982421875 90.96820068359375 444.267578125 93.38960266113281 444.900390625 95.64704895019531 L 446.3443603515625 95.19309997558594" stroke-width="0.6000000238418579" fill="rgb(70, 150, 179)" opacity="1.0"/>
    <path d="M 320.7889099121094 377.8596496582031 C 318.2454833984375 378.4005432128906 315.4490051269531 379.10687255859375 313.99603271484375 381.2613525390625 C 312.43658447265625 383.57666015625 313.06622314453125 386.8162841796875 314.6585388183594 389.1090393066406 C 315.2720947265625 389.9933166503906 316.0511474609375 390.81280517578125 317.0563659667969 391.19708251953125 C 317.882568359375 391.5133056640625 318.7925109863281 391.5119934082031 319.67529296875 391.4577941894531 C 322.45941162109375 391.29022216796875 325.40850830078125 390.5409240722656 327.23956298828125 388.4377746582031 C 329.0835266113281 386.31683349609375 329.36773681640625 382.9749450683594 327.89324951171875 380.5794677734375 C 326.41876220703125 378.1839904785156 323.3230285644531 376.9043884277344 320.5911560058594 377.5823974609375 L 320.7889099121094 377.8596496582031" stroke-width="0.6000000238418579" fill="rgb(140, 28, 33)" opacity="1.0"/>
    <path d="M 306.185791015625 397.2787780761719 C 302.99078369140625 398.3622131347656 299.6781311035156 399.5248107910156 297.22760009765625 401.84716796875 C 294.7771301269531 404.1695251464844 293.4302673339844 408.0318908691406 294.98455810546875 411.02825927734375 C 296.91143798828125 414.72271728515625 302.4722595214844 415.240478515625 305.88946533203125 412.843017578125 C 309.3066711425781 410.4456481933594 310.8559265136719 406.1263732910156 311.30133056640625 401.9811096191406 C 311.5677795410156 400.71173095703125 311.3487243652344 399.3886413574219 310.6873474121094 398.2729187011719 C 309.9241027832031 397.2503356933594 308.083251953125 396.99908447265625 307.4434814453125 398.1104736328125 L 306.185791015625 397.2787780761719" stroke-width="0.6000000238418579" fill="rgb(159, 159, 159)" opacity="1.0"/>
    <path d="M 323.73577880859375 411.77813720703125 C 320.9286804199219 413.0849609375 318.5081787109375 415.38201904296875 317.4625549316406 418.2947998046875 C 316.41693115234375 421.20758056640625 316.9127502441406 424.72711181640625 319.04736328125 426.98590087890625 C 320.55859375 428.58099365234375 322.7479248046875 429.433349609375 324.94091796875 429.5985107421875 C 327.1339111328125 429.76361083984375 329.33477783203125 429.2918701171875 331.4048156738281 428.548095703125 C 332.3054504394531 428.22393798828125 333.2266845703125 427.8187255859375 333.8122863769531 427.06463623046875 C 334.4841003417969 426.200439453125 334.5921936035156 425.03857421875 334.6227722167969 423.9410400390625 C 334.7090759277344 420.8426513671875 334.3238220214844 417.6129150390625 332.6676330566406 414.992431640625 C 331.01141357421875 412.371826171875 327.8321228027344 410.5367736816406 324.8096008300781 411.1903381347656 L 323.73577880859375 411.77813720703125" stroke-width="0.6000000238418579" fill="rgb(159, 159, 159)" opacity="1.0"/>
    <path d="M 274.026611328125 414.8052978515625 C 271.9099426269531 416.8902587890625 269.6474609375 419.2994384765625 269.5954895019531 422.2642822265625 C 269.5408935546875 425.14752197265625 271.5867919921875 427.595703125 273.5526428222656 429.707275390625 C 274.35247802734375 430.56396484375 275.2029113769531 431.4473876953125 276.3122253417969 431.82354736328125 C 278.1880187988281 432.4609375 280.2231140136719 431.48291015625 281.80029296875 430.288818359375 C 283.2646484375 429.1810302734375 284.56231689453125 427.8687744140625 285.65362548828125 426.39215087890625 C 287.42645263671875 423.9951171875 288.630126953125 420.73760986328125 287.3102722167969 418.06549072265625 C 286.5998229980469 416.621826171875 285.2363586425781 415.5738525390625 283.7564392089844 414.9361572265625 C 282.27655029296875 414.2984619140625 280.6665344238281 414.03070068359375 279.0733337402344 413.78900146484375 C 277.4801330566406 413.54730224609375 275.9094543457031 413.343994140625 274.3944396972656 413.767333984375 L 274.026611328125 414.8052978515625" stroke-width="0.6000000238418579" fill="rgb(218, 166, 20)" opacity="1.0"/>
    <path d="M 222.8848876953125 413.57275390625 C 217.95703125 411.9567565917969 212.65216064453125 414.6416015625 211.03619384765625 419.5694580078125 C 210.8978271484375 419.99139404296875 210.78955078125 420.42266845703125 210.71221923828125 420.8599853515625 C 210.41860961914062 422.5216064453125 210.61065673828125 424.33734130859375 211.58932495117188 425.71099853515625 C 212.416259765625 426.87188720703125 213.7086181640625 427.6064453125 215.01577758789062 428.17218017578125 C 218.516845703125 429.6817626953125 222.3582763671875 430.2264404296875 226.1409912109375 429.74951171875 C 227.14065551757812 429.621826171875 228.1607666015625 429.41119384765625 229.00213623046875 428.8525390625 C 230.41522216796875 427.91558837890625 231.07464599609375 426.14013671875 231.14297485351562 424.44476318359375 C 231.24615478515625 421.9278564453125 230.22222900390625 419.433837890625 228.57611083984375 417.5263671875 C 226.92999267578125 415.61883544921875 224.70281982421875 414.26708984375 222.32745361328125 413.4276123046875 L 222.8848876953125 413.57275390625" stroke-width="0.6000000238418579" fill="rgb(143, 165, 67)" opacity="1.0"/>
    <path d="M 285.0901184082031 366.57427978515625 C 285.9958190917969 372.7484436035156 295.0025329589844 375.5957336425781 299.5845642089844 371.4189147949219 C 304.1665954589844 367.2420654296875 302.4932556152344 358.4145812988281 296.84234619140625 355.762939453125 C 291.19140625 353.11126708984375 283.6804504394531 356.8995056152344 282.0089416503906 362.919677734375 L 285.0901184082031 366.57427978515625" stroke-width="0.6000000238418579" fill="rgb(233, 92, 21)" opacity="1.0"/>
    <path d="M 332.0641784667969 362.0238342285156 C 332.1024169921875 364.9444885253906 332.4510192871094 368.4292907714844 335.0433044433594 369.7967224121094 C 336.09613037109375 370.30078125 337.2793884277344 370.4656982421875 338.4299011230469 370.26873779296875 C 341.2896423339844 369.8580322265625 343.7729187011719 368.086669921875 345.0922546386719 365.51641845703125 C 346.205810546875 363.333251953125 346.3255615234375 360.816162109375 346.3847961425781 358.3811340332031 C 346.4158630371094 357.0132141113281 346.4053039550781 355.5588684082031 345.67926025390625 354.4079895019531 C 344.69891357421875 352.88189697265625 342.7345275878906 352.3450012207031 340.933349609375 352.1356506347656 C 338.2977294921875 351.82598876953125 335.62939453125 351.9449462890625 333.0317687988281 352.4879455566406 C 332.1346130371094 352.6772766113281 331.20843505859375 352.9355773925781 330.5296630859375 353.5515441894531 C 329.9278259277344 354.15655517578125 329.5150146484375 354.9236145019531 329.34161376953125 355.7591552734375 C 328.7169494628906 358.2732849121094 329.2266540527344 360.93487548828125 330.7359313964844 363.04034423828125 L 332.0641784667969 362.0238342285156" stroke-width="0.6000000238418579" fill="rgb(70, 150, 179)" opacity="1.0"/>
    <path d="M 294.74041748046875 415.0579833984375 C 291.6311340332031 415.2047119140625 288.19085693359375 415.4979248046875 286.05743408203125 417.76177978515625 C 283.76708984375 420.195068359375 283.8839111328125 424.14398193359375 285.3211669921875 427.16070556640625 C 285.8748474121094 428.32403564453125 286.6365661621094 429.44287109375 287.7496643066406 430.0914306640625 C 288.66448974609375 430.6248779296875 289.7396545410156 430.7994384765625 290.79302978515625 430.90625 C 294.1143798828125 431.2471923828125 297.7432556152344 430.932861328125 300.3133850097656 428.802734375 C 302.9021911621094 426.654052734375 303.884765625 422.76123046875 302.6065368652344 419.64599609375 C 301.32830810546875 416.53076171875 297.9189453125 414.4200439453125 294.5604553222656 414.69219970703125 L 294.74041748046875 415.0579833984375" stroke-width="0.6000000238418579" fill="rgb(140, 28, 33)" opacity="1.0"/>
    <path d="M 334.80718994140625 388.495849609375 C 331.45281982421875 388.87713623046875 327.9666442871094 389.3108215332031 325.07733154296875 391.0616760253906 C 322.1880798339844 392.8125305175781 320.05108642578125 396.3035888671875 320.93499755859375 399.56365966796875 C 322.0350341796875 403.58544921875 327.3630065917969 405.27215576171875 331.21356201171875 403.6531066894531 C 335.0641174316406 402.0340576171875 337.4959716796875 398.13916015625 338.81146240234375 394.18011474609375 C 339.3414611816406 392.995361328125 339.4081115722656 391.655029296875 338.9981689453125 390.423583984375 C 338.4689025878906 389.2615661621094 336.7220764160156 388.6251220703125 335.86053466796875 389.57611083984375 L 334.80718994140625 388.495849609375" stroke-width="0.6000000238418579" fill="rgb(159, 159, 159)" opacity="1.0"/>
    <path d="M 345.0722351074219 409.9063720703125 C 341.9782409667969 409.84246826171875 338.794921875 410.8372802734375 336.5739440917969 412.989990234375 C 334.35296630859375 415.1427001953125 333.2476806640625 418.5186767578125 334.16796875 421.4853515625 C 334.8212585449219 423.58203125 336.4100646972656 425.31097412109375 338.3048095703125 426.42498779296875 C 340.1995849609375 427.53900146484375 342.38189697265625 428.08514404296875 344.5666198730469 428.32958984375 C 345.5174255371094 428.43536376953125 346.5224304199219 428.4775390625 347.3799133300781 428.0589599609375 C 348.3632507324219 427.5794677734375 348.9719543457031 426.584716796875 349.4827575683594 425.613525390625 C 350.92486572265625 422.8717041015625 352.0016784667969 419.804443359375 351.6699523925781 416.7239990234375 C 351.33819580078125 413.6434326171875 349.2940673828125 410.5968017578125 346.2945251464844 409.8519592285156 L 345.0722351074219 409.9063720703125" stroke-width="0.6000000238418579" fill="rgb(159, 159, 159)" opacity="1.0"/>
    <path d="M 255.89532470703125 369.4969787597656 C 256.2123718261719 366.56573486328125 256.43780517578125 363.29376220703125 254.6158447265625 360.9830627441406 C 252.84716796875 358.7333984375 249.73773193359375 358.13714599609375 246.90118408203125 357.74920654296875 C 245.74862670898438 357.5932922363281 244.5404052734375 357.4485778808594 243.4517822265625 357.85614013671875 C 241.6102294921875 358.54437255859375 240.66070556640625 360.5738830566406 240.19873046875 362.48187255859375 C 239.769287109375 364.25262451171875 239.5963134765625 366.07586669921875 239.68511962890625 367.89581298828125 C 239.82821655273438 370.8509216308594 240.94906616210938 374.1097717285156 243.64129638671875 375.3340759277344 C 245.09375 375.99713134765625 246.799560546875 375.9461364746094 248.33712768554688 375.5067443847656 C 249.87469482421875 375.0673522949219 251.2799072265625 374.26202392578125 252.6558837890625 373.44720458984375 C 254.03179931640625 372.63238525390625 255.36636352539062 371.80224609375 256.2645568847656 370.5255432128906 L 255.89532470703125 369.4969787597656" stroke-width="0.6000000238418579" fill="rgb(218, 166, 20)" opacity="1.0"/>
    <path d="M 253.27459716796875 391.56683349609375 C 250.64263916015625 387.32421875 245.06967163085938 386.01849365234375 240.8270263671875 388.65045166015625 C 240.4637451171875 388.8758239746094 240.11688232421875 389.126708984375 239.78909301757812 389.4011535644531 C 238.54373168945312 390.44427490234375 237.56103515625 391.90167236328125 237.43185424804688 393.520263671875 C 237.32257080078125 394.8880615234375 237.8204345703125 396.2297668457031 238.43368530273438 397.45623779296875 C 240.07974243164062 400.7369689941406 242.57421875 403.51708984375 245.657958984375 405.50787353515625 C 246.4739990234375 406.03271484375 247.35638427734375 406.50909423828125 248.322509765625 406.6183166503906 C 249.94439697265625 406.8026123046875 251.52984619140625 405.9021301269531 252.6300048828125 404.6947021484375 C 254.26458740234375 402.90325927734375 255.0540771484375 400.4307861328125 255.02178955078125 398.0053405761719 C 254.989501953125 395.57989501953125 254.18475341796875 393.2043762207031 252.95355224609375 391.1146545410156 L 253.27459716796875 391.56683349609375" stroke-width="0.6000000238418579" fill="rgb(143, 165, 67)" opacity="1.0"/>
    <path d="M 203.48248291015625 371.41229248046875 C 201.79754638671875 377.4815979003906 208.94921875 383.7875671386719 214.88442993164062 381.80279541015625 C 220.81964111328125 379.8179931640625 222.87939453125 370.9859313964844 218.74563598632812 366.23077392578125 C 214.61187744140625 361.4756164550781 206.131591796875 361.90576171875 202.13046264648438 366.78057861328125 L 203.48248291015625 371.41229248046875" stroke-width="0.6000000238418579" fill="rgb(233, 92, 21)" opacity="1.0"/>
    <path d="M 269.6883544921875 369.1409606933594 C 269.36187744140625 372.0647888183594 269.2751159667969 375.5912170410156 271.6952209472656 377.2816162109375 C 272.68450927734375 377.9168395996094 273.8465270996094 378.2294616699219 275.02099609375 378.17626953125 C 277.93048095703125 378.1228942871094 280.63360595703125 376.66259765625 282.2731628417969 374.2585144042969 C 283.65875244140625 372.2156066894531 284.0927429199219 369.71484375 284.4560241699219 367.28851318359375 C 284.65789794921875 365.92523193359375 284.8289489746094 364.4703674316406 284.24700927734375 363.2294616699219 C 283.457763671875 361.581787109375 281.5614929199219 360.79986572265625 279.7874755859375 360.36572265625 C 277.19195556640625 359.72711181640625 274.51019287109375 359.5127868652344 271.8462219238281 359.7311096191406 C 270.9259033203125 359.8083190917969 269.96795654296875 359.9508056640625 269.212646484375 360.481689453125 C 268.53558349609375 361.0111999511719 268.0272216796875 361.7262878417969 267.74957275390625 362.53973388671875 C 266.8113098144531 364.9744873046875 266.98834228515625 367.6982727050781 268.23388671875 369.9910583496094 L 269.6883544921875 369.1409606933594" stroke-width="0.6000000238418579" fill="rgb(70, 150, 179)" opacity="1.0"/>
    <path d="M 328.5332336425781 365.24359130859375 C 329.1169738769531 362.1814270019531 329.6354064941406 358.76275634765625 327.9293212890625 356.1561584472656 C 326.0949401855469 353.357177734375 322.2221984863281 352.5481262207031 318.9486083984375 353.2428283691406 C 317.68634033203125 353.5101318359375 316.4187927246094 353.9904479980469 315.5271301269531 354.9228515625 C 314.7938537597656 355.6890563964844 314.37261962890625 356.6952819824219 314.0224304199219 357.6960754394531 C 312.914306640625 360.8507995605469 312.3724365234375 364.4580993652344 313.8461608886719 367.4587097167969 C 315.33355712890625 370.4818115234375 318.8948669433594 372.34832763671875 322.2272033691406 371.8315734863281 C 325.5595397949219 371.3148193359375 328.4117736816406 368.4879455566406 328.9315185546875 365.1538391113281 L 328.5332336425781 365.24359130859375" stroke-width="0.6000000238418579" fill="rgb(140, 28, 33)" opacity="1.0"/>
    <path d="M 352.0365905761719 393.1905822753906 C 348.6940002441406 393.7071838378906 345.2215270996094 394.2815856933594 342.3995666503906 396.1505126953125 C 339.5776672363281 398.0194396972656 337.5788269042969 401.60015869140625 338.59478759765625 404.8281555175781 C 339.8577880859375 408.80999755859375 345.2592468261719 410.2841796875 349.0487976074219 408.508544921875 C 352.8383483886719 406.7328796386719 355.1161193847656 402.73602294921875 356.2737731933594 398.7198486328125 C 356.7566833496094 397.51251220703125 356.76947021484375 396.1680603027344 356.3096008300781 394.9517822265625 C 355.7330017089844 393.809814453125 353.9587097167969 393.24298095703125 353.134521484375 394.2296447753906 L 352.0365905761719 393.1905822753906" stroke-width="0.6000000238418579" fill="rgb(159, 159, 159)" opacity="1.0"/>
    <path d="M 187.57708740234375 407.6011657714844 C 184.45758056640625 408.1907653808594 181.47216796875 409.86199951171875 179.69741821289062 412.4923095703125 C 177.92266845703125 415.1226806640625 177.52642822265625 418.7452392578125 179.07708740234375 421.52899169921875 C 180.1759033203125 423.4957275390625 182.13616943359375 424.8956298828125 184.27365112304688 425.6136474609375 C 186.4111328125 426.3316650390625 188.71728515625 426.4188232421875 190.96212768554688 426.20257568359375 C 191.93896484375 426.10791015625 192.956787109375 425.9378662109375 193.72915649414062 425.33648681640625 C 194.614990234375 424.64739990234375 195.015869140625 423.5201416015625 195.32345581054688 422.437255859375 C 196.19183349609375 419.380126953125 196.624755859375 416.073486328125 195.64083862304688 413.0511474609375 C 194.65692138671875 410.0287780761719 191.96115112304688 407.4022521972656 188.7926025390625 407.28826904296875 L 187.57708740234375 407.6011657714844" stroke-width="0.6000000238418579" fill="rgb(159, 159, 159)" opacity="1.0"/>
    <path d="M 356.7540588378906 374.7575378417969 C 353.92999267578125 375.3282470703125 350.81561279296875 376.0849609375 349.2015380859375 378.46478271484375 C 347.6285705566406 380.7769470214844 347.9918518066406 383.8494873046875 348.4685363769531 386.6062927246094 C 348.663818359375 387.7259521484375 348.885986328125 388.8941345214844 349.5872497558594 389.7877197265625 C 350.7724304199219 391.2997741699219 352.94342041015625 391.5845947265625 354.8571472167969 391.4512023925781 C 356.6334533691406 391.3280944824219 358.38287353515625 390.9505310058594 360.0518798828125 390.33013916015625 C 362.7622375488281 389.32373046875 365.4666442871094 387.3168640136719 365.8116455078125 384.4473876953125 C 366.0001525878906 382.8985595703125 365.44866943359375 381.32470703125 364.5851135253906 380.0223083496094 C 363.7215576171875 378.71990966796875 362.55621337890625 377.6488952636719 361.3907165527344 376.60797119140625 C 360.2251892089844 375.5670166015625 359.05767822265625 374.5691833496094 357.6030578613281 374.1097106933594 L 356.7540588378906 374.7575378417969" stroke-width="0.6000000238418579" fill="rgb(218, 166, 20)" opacity="1.0"/>
    <path d="M 373.8433837890625 386.21466064453125 C 370.1440124511719 389.5045166015625 369.81201171875 395.1704406738281 373.1018981933594 398.86981201171875 C 373.38360595703125 399.1866149902344 373.68743896484375 399.4830017089844 374.0110778808594 399.75677490234375 C 375.2411193847656 400.796875 376.8313903808594 401.51019287109375 378.43463134765625 401.3623046875 C 379.78948974609375 401.2374572753906 381.0160217285156 400.52386474609375 382.1104736328125 399.7170104980469 C 385.0369873046875 397.5532531738281 387.330810546875 394.6453857421875 388.75360107421875 391.2954406738281 C 389.1282043457031 390.4093017578125 389.4442138671875 389.466552734375 389.3873291015625 388.5041198730469 C 389.2927551269531 386.8883361816406 388.1445007324219 385.4917907714844 386.7785339355469 384.62139892578125 C 384.75146484375 383.3277893066406 382.2021789550781 382.97509765625 379.8379821777344 383.4173583984375 C 377.4737854003906 383.859619140625 375.2891540527344 385.0481262207031 373.4559631347656 386.6048889160156 L 373.8433837890625 386.21466064453125" stroke-width="0.6000000238418579" fill="rgb(143, 165, 67)" opacity="1.0"/>
    <path d="M 366.227294921875 363.34716796875 C 367.9926452636719 369.3109130859375 377.28094482421875 370.84844970703125 381.21197509765625 366.08050537109375 C 385.14300537109375 361.3125915527344 382.24566650390625 352.8393859863281 376.2958984375 351.02105712890625 C 370.34613037109375 349.20269775390625 363.4704895019531 354.00079345703125 362.67132568359375 360.1764831542969 L 366.227294921875 363.34716796875" stroke-width="0.6000000238418579" fill="rgb(233, 92, 21)" opacity="1.0"/>
    <path d="M 397.7264709472656 365.38720703125 C 397.4563903808594 368.373046875 397.44342041015625 371.9676818847656 399.9452209472656 373.63812255859375 C 400.9667053222656 374.26416015625 402.15728759765625 374.55780029296875 403.35272216796875 374.4784851074219 C 406.3157958984375 374.3618469238281 409.0385437011719 372.8162841796875 410.6575622558594 370.3318786621094 C 412.0255126953125 368.22088623046875 412.4141845703125 365.6637878417969 412.732421875 363.1840515136719 C 412.908935546875 361.790771484375 413.0521240234375 360.3049011230469 412.4326171875 359.0530700683594 C 411.59332275390625 357.3912658691406 409.6446228027344 356.63519287109375 407.82794189453125 356.2308349609375 C 405.169921875 355.6357116699219 402.43310546875 355.4747314453125 399.7236633300781 355.7541198730469 C 398.7876892089844 355.85247802734375 397.81475830078125 356.0181579589844 397.05657958984375 356.57513427734375 C 396.37811279296875 357.1291198730469 395.87548828125 357.8685302734375 395.6100158691406 358.7032470703125 C 394.7061767578125 361.203857421875 394.9447937011719 363.97509765625 396.2628173828125 366.284423828125 L 397.7264709472656 365.38720703125" stroke-width="0.6000000238418579" fill="rgb(70, 150, 179)" opacity="1.0"/>
    <path d="M 389.3059387207031 413.0157470703125 C 387.9818115234375 415.874267578125 386.6341552734375 419.09832763671875 387.6666259765625 422.072509765625 C 388.7776184082031 425.266845703125 392.37548828125 427.0108642578125 395.75518798828125 427.1336669921875 C 397.0582580566406 427.1815185546875 398.4187927246094 427.02191162109375 399.5218200683594 426.3267822265625 C 400.4288024902344 425.7557373046875 401.08880615234375 424.87274169921875 401.6778564453125 423.97760009765625 C 403.53875732421875 421.1571044921875 404.9557189941406 417.75384521484375 404.24774169921875 414.450439453125 C 403.53192138671875 411.1216735839844 400.4990539550781 408.4174499511719 397.1054382324219 408.1058044433594 C 393.7118225097656 407.794189453125 390.2216491699219 409.86505126953125 388.8934631347656 413.00592041015625 L 389.3059387207031 413.0157470703125" stroke-width="0.6000000238418579" fill="rgb(140, 28, 33)" opacity="1.0"/>
    <path d="M 405.4313659667969 395.201904296875 C 403.7923889160156 398.1412353515625 402.1193542480469 401.21783447265625 401.8601379394531 404.5756530761719 C 401.6009826660156 407.9334411621094 403.1886901855469 411.6922607421875 406.343505859375 412.8692626953125 C 410.24102783203125 414.3133544921875 414.70166015625 410.9757995605469 415.6258544921875 406.9156494140625 C 416.55010986328125 402.85546875 414.806396484375 398.62322998046875 412.3624267578125 395.25830078125 C 411.71026611328125 394.1408386230469 410.6629333496094 393.3085021972656 409.42706298828125 392.925537109375 C 408.17816162109375 392.67962646484375 406.6481018066406 393.7254333496094 406.9183654785156 394.9757385253906 L 405.4313659667969 395.201904296875" stroke-width="0.6000000238418579" fill="rgb(159, 159, 159)" opacity="1.0"/>
    <path d="M 432.29547119140625 369.3011169433594 C 432.62451171875 372.3974304199219 434.0216064453125 375.448486328125 436.4522705078125 377.3919982910156 C 438.8829345703125 379.3354797363281 442.3929443359375 380.01007080078125 445.23724365234375 378.7148742675781 C 447.24700927734375 377.7966003417969 448.77099609375 375.99127197265625 449.642333984375 373.9586181640625 C 450.51373291015625 371.92596435546875 450.78173828125 369.67840576171875 450.74835205078125 367.46673583984375 C 450.7332763671875 366.5042724609375 450.647705078125 365.49578857421875 450.12109375 364.69305419921875 C 449.5177001953125 363.7724304199219 448.447509765625 363.2911682128906 447.41326904296875 362.9046325683594 C 444.4935302734375 361.8133544921875 441.2952880859375 361.1279602050781 438.26263427734375 361.8501892089844 C 435.22998046875 362.5724182128906 432.4486083984375 364.9995422363281 432.0859375 368.0880126953125 L 432.29547119140625 369.3011169433594" stroke-width="0.6000000238418579" fill="rgb(159, 159, 159)" opacity="1.0"/>
    <path d="M 420.913818359375 407.8274230957031 C 418.1065673828125 408.9393005371094 415.0343017578125 410.29681396484375 413.810302734375 413.050537109375 C 412.6162109375 415.7269287109375 413.56011962890625 418.828857421875 414.5625 421.58416748046875 C 414.971435546875 422.702880859375 415.4169921875 423.86669921875 416.305908203125 424.658447265625 C 417.8084716796875 425.99853515625 420.1005859375 425.89013671875 422.0498046875 425.3980712890625 C 423.8592529296875 424.94195556640625 425.59381103515625 424.2283935546875 427.20037841796875 423.279296875 C 429.80963134765625 421.7391357421875 432.2274169921875 419.16802978515625 432.0516357421875 416.144287109375 C 431.9591064453125 414.51177978515625 431.0987548828125 412.9906005859375 429.9666748046875 411.80712890625 C 428.834716796875 410.62371826171875 427.43426513671875 409.73486328125 426.0391845703125 408.8771057128906 C 424.6441650390625 408.01934814453125 423.2550048828125 407.20635986328125 421.66949462890625 407.0019226074219 L 420.913818359375 407.8274230957031" stroke-width="0.6000000238418579" fill="rgb(218, 166, 20)" opacity="1.0"/>
    <path d="M 143.0137481689453 228.41864013671875 C 139.71055603027344 232.310791015625 140.18801879882812 238.143798828125 144.08016967773438 241.44696044921875 C 144.4134521484375 241.72982788085938 144.76638793945312 241.98867797851562 145.1363067626953 242.22158813476562 C 146.54208374023438 243.1063232421875 148.26861572265625 243.60552978515625 149.88427734375 243.2235107421875 C 151.24966430664062 242.90081787109375 152.39920043945312 241.99545288085938 153.400390625 241.013916015625 C 156.07675170898438 238.3829345703125 157.99981689453125 235.08334350585938 158.9698486328125 231.4578857421875 C 159.22463989257812 230.4991455078125 159.41146850585938 229.49099731445312 159.21469116210938 228.51651000976562 C 158.88531494140625 226.88037109375 157.51165771484375 225.619873046875 155.9915313720703 224.92800903320312 C 153.73541259765625 223.89926147460938 151.08163452148438 223.906494140625 148.73141479492188 224.69873046875 C 146.38119506835938 225.49093627929688 144.32183837890625 227.01925659179688 142.67440795898438 228.8729248046875 L 143.0137481689453 228.41864013671875" stroke-width="0.6000000238418579" fill="rgb(143, 165, 67)" opacity="1.0"/>
    <path d="M 168.437255859375 263.3837890625 C 169.67379760742188 269.5494689941406 178.8875732421875 271.94061279296875 183.27880859375 267.49603271484375 C 187.66998291015625 263.0514221191406 185.52127075195312 254.25601196289062 179.69485473632812 251.88504028320312 C 173.86846923828125 249.51406860351562 166.50927734375 253.7218017578125 165.14410400390625 259.86822509765625 L 168.437255859375 263.3837890625" stroke-width="0.6000000238418579" fill="rgb(233, 92, 21)" opacity="1.0"/>
    <path d="M 155.09658813476562 312.6591796875 C 153.81341552734375 315.3205261230469 152.55665588378906 318.63262939453125 154.28646850585938 321.04022216796875 C 155.0121612548828 321.9715576171875 156.00897216796875 322.6547546386719 157.139404296875 322.99554443359375 C 159.91363525390625 323.9140625 162.96099853515625 323.430908203125 165.31512451171875 321.6993103027344 C 167.30828857421875 320.225341796875 168.55239868164062 318.0006408691406 169.7047119140625 315.8229064941406 C 170.35006713867188 314.5985412597656 170.9967041015625 313.27716064453125 170.85870361328125 311.90765380859375 C 170.65972900390625 310.0837707519531 169.12359619140625 308.71136474609375 167.58746337890625 307.7091369628906 C 165.34115600585938 306.2395935058594 162.87179565429688 305.1433410644531 160.27517700195312 304.4628601074219 C 159.3775634765625 304.2294616699219 158.42251586914062 304.04541015625 157.53009033203125 304.2967834472656 C 156.7122802734375 304.57293701171875 155.99246215820312 305.08111572265625 155.45846557617188 305.7593078613281 C 153.7585906982422 307.7535095214844 153.0190887451172 310.3930358886719 153.4354705810547 312.9801330566406 L 155.09658813476562 312.6591796875" stroke-width="0.6000000238418579" fill="rgb(70, 150, 179)" opacity="1.0"/>
    <path d="M 124.84613037109375 299.6501159667969 C 123.8670654296875 296.6119384765625 122.65426635742188 293.28546142578125 119.84133911132812 291.7809753417969 C 116.81864929199219 290.1666564941406 112.94143676757812 291.3412780761719 110.34103393554688 293.57293701171875 C 109.33805847167969 294.43292236328125 108.43492126464844 295.4869384765625 108.091552734375 296.7625732421875 C 107.80888366699219 297.8111267089844 107.92445373535156 298.922119140625 108.1011962890625 299.99334716796875 C 108.65452575683594 303.3721923828125 109.93890380859375 306.8796691894531 112.73651123046875 308.8522644042969 C 115.55746459960938 310.83837890625 119.67404174804688 310.76690673828125 122.41461181640625 308.6662902832031 C 125.15519714355469 306.565673828125 126.33004760742188 302.6250305175781 125.15994262695312 299.3739013671875 L 124.84613037109375 299.6501159667969" stroke-width="0.6000000238418579" fill="rgb(140, 28, 33)" opacity="1.0"/>
    <path d="M 139.8138885498047 275.08038330078125 C 136.76966857910156 276.52093505859375 133.6178741455078 278.053466796875 131.4539337158203 280.63726806640625 C 129.29002380371094 283.2210693359375 128.39698791503906 287.2055969238281 130.28170776367188 289.9988708496094 C 132.61590576171875 293.44171142578125 138.18966674804688 293.31787109375 141.30364990234375 290.548828125 C 144.41763305664062 287.7798156738281 145.458984375 283.31903076171875 145.4256591796875 279.15728759765625 C 145.54441833496094 277.8679504394531 145.17555236816406 276.58099365234375 144.39183044433594 275.5503845214844 C 143.51776123046875 274.623779296875 141.66346740722656 274.5855712890625 141.15640258789062 275.7610168457031 L 139.8138885498047 275.08038330078125" stroke-width="0.6000000238418579" fill="rgb(159, 159, 159)" opacity="1.0"/>
    <path d="M 157.85955810546875 296.1684875488281 C 156.07171630859375 298.7179260253906 155.1184539794922 301.9354248046875 155.6721649169922 304.9979553222656 C 156.22589111328125 308.06048583984375 158.42715454101562 310.8765563964844 161.421875 311.7706298828125 C 163.53997802734375 312.40008544921875 165.87527465820312 312.041748046875 167.86825561523438 311.08306884765625 C 169.86126708984375 310.1243591308594 171.54092407226562 308.6070556640625 172.96987915039062 306.9185791015625 C 173.59127807617188 306.1834411621094 174.18988037109375 305.3673095703125 174.32083129882812 304.4161682128906 C 174.471435546875 303.3257751464844 173.9814453125 302.259521484375 173.45635986328125 301.2882995605469 C 171.97378540039062 298.54632568359375 170.0145263671875 295.9271545410156 167.25460815429688 294.4774475097656 C 164.49468994140625 293.02777099609375 160.8031005859375 293.0279235839844 158.499267578125 295.1166687011719 L 157.85955810546875 296.1684875488281" stroke-width="0.6000000238418579" fill="rgb(159, 159, 159)" opacity="1.0"/>
    <path d="M 125.05477905273438 345.27008056640625 C 124.37461853027344 342.3386535644531 123.49160766601562 339.1097106933594 120.95880126953125 337.4955749511719 C 118.49784851074219 335.9223327636719 115.30084228515625 336.3933410644531 112.43682861328125 336.9732971191406 C 111.27369689941406 337.21063232421875 110.06068420410156 337.4774475097656 109.14866638183594 338.23626708984375 C 107.60540771484375 339.518798828125 107.37283325195312 341.79388427734375 107.5692138671875 343.7879333496094 C 107.75077819824219 345.6387939453125 108.19717407226562 347.4540100097656 108.89474487304688 349.177978515625 C 110.0263671875 351.9776611328125 112.20236206054688 354.7413024902344 115.20849609375 355.0158386230469 C 116.83119201660156 355.1664123535156 118.45790100097656 354.54364013671875 119.79188537597656 353.6031799316406 C 121.12586975097656 352.6627197265625 122.20927429199219 351.4140930175781 123.26126098632812 350.1661682128906 C 124.313232421875 348.91827392578125 125.3201904296875 347.6695251464844 125.7564697265625 346.13714599609375 L 125.05477905273438 345.27008056640625" stroke-width="0.6000000238418579" fill="rgb(218, 166, 20)" opacity="1.0"/>
    <path d="M 167.1224365234375 349.0997314453125 C 163.209228515625 352.512939453125 162.80389404296875 358.4521789550781 166.21707153320312 362.3653869628906 C 166.50933837890625 362.7004699707031 166.82501220703125 363.014404296875 167.1617431640625 363.3048095703125 C 168.44131469726562 364.4081115722656 170.10205078125 365.17230224609375 171.78509521484375 365.0333557128906 C 173.20733642578125 364.91607666015625 174.5009765625 364.17999267578125 175.656982421875 363.3448181152344 C 178.748291015625 361.10491943359375 181.18341064453125 358.0781555175781 182.70947265625 354.5789794921875 C 183.111328125 353.65338134765625 183.4522705078125 352.6677551269531 183.40228271484375 351.6577453613281 C 183.31939697265625 349.9621276855469 182.129150390625 348.4858093261719 180.70526123046875 347.55914306640625 C 178.59228515625 346.1819152832031 175.92205810546875 345.7862854003906 173.43792724609375 346.226318359375 C 170.953857421875 346.66632080078125 168.65054321289062 347.8908386230469 166.712158203125 349.5050964355469 L 167.1224365234375 349.0997314453125" stroke-width="0.6000000238418579" fill="rgb(143, 165, 67)" opacity="1.0"/>
    <path d="M 132.8129425048828 376.86004638671875 C 130.2235107421875 371.0231018066406 120.56320190429688 370.6916198730469 117.19451904296875 376.0678405761719 C 113.82585144042969 381.444091796875 117.90106201171875 389.6854553222656 124.1998291015625 390.74627685546875 C 130.4986114501953 391.80712890625 136.86109924316406 386.009033203125 136.8543243408203 379.61566162109375 L 132.8129425048828 376.86004638671875" stroke-width="0.6000000238418579" fill="rgb(233, 92, 21)" opacity="1.0"/>
    <path d="M 181.41571044921875 364.9637145996094 C 180.37408447265625 367.8157958984375 179.42559814453125 371.3306884765625 181.43939208984375 373.616943359375 C 182.27621459960938 374.4955749511719 183.36505126953125 375.0929260253906 184.55572509765625 375.3265075683594 C 187.4862060546875 375.9837341308594 190.553466796875 375.1797790527344 192.78485107421875 373.16961669921875 C 194.67327880859375 371.4596252441406 195.7193603515625 369.0580139160156 196.6763916015625 366.71380615234375 C 197.21185302734375 365.3960876464844 197.73876953125 363.9790344238281 197.4583740234375 362.5925598144531 C 197.06951904296875 360.74755859375 195.35903930664062 359.5002746582031 193.68621826171875 358.6315612792969 C 191.23959350585938 357.35711669921875 188.60284423828125 356.4870910644531 185.87823486328125 356.05523681640625 C 184.9365234375 355.9078063964844 183.941162109375 355.8166809082031 183.0540771484375 356.16448974609375 C 182.24578857421875 356.5300598144531 181.56137084960938 357.1229248046875 181.084228515625 357.87078857421875 C 179.54861450195312 360.0829772949219 179.06072998046875 362.85748291015625 179.74960327148438 365.4608459472656 L 181.41571044921875 364.9637145996094" stroke-width="0.6000000238418579" fill="rgb(70, 150, 179)" opacity="1.0"/>
  </g>
</svg>
