<?xml version="1.0" ?>
<svg xmlns="http://www.w3.org/2000/svg" version="1.1" width="600" height="600">
  <defs/>
  <g>
    <path d="M 351.46734619140625 347.27764892578125 C 353.1318359375 348.60595703125 356.0408935546875 347.2171325683594 356.21002197265625 345.1080627441406 C 356.3791198730469 342.9989929199219 353.90496826171875 341.1880187988281 351.878173828125 341.8436584472656 C 349.8514099121094 342.49932861328125 348.8614807128906 345.1940002441406 349.8475646972656 347.0844421386719 L 351.46734619140625 347.27764892578125" stroke-width="0.6000000238418579" fill="rgb(233, 92, 21)" opacity="1.0"/>
    <path d="M 103.888427734375 202.34588623046875 C 104.43251037597656 201.736572265625 105.01922607421875 200.95233154296875 104.7432861328125 200.18051147460938 C 104.62150573730469 199.87762451171875 104.40875244140625 199.6199951171875 104.13436889648438 199.44317626953125 C 103.46722412109375 198.98739624023438 102.62054443359375 198.88323974609375 101.86282348632812 199.16375732421875 C 101.22067260742188 199.4033203125 100.72027587890625 199.89959716796875 100.24786376953125 200.390380859375 C 99.98294067382812 200.66650390625 99.71026611328125 200.96829223632812 99.64244079589844 201.34274291992188 C 99.55612182617188 201.84262084960938 99.85960388183594 202.32452392578125 100.19134521484375 202.70809936523438 C 100.6761474609375 203.27001953125 101.24868774414062 203.74981689453125 101.88679504394531 204.1287841796875 C 102.10751342773438 204.25930786132812 102.34725952148438 204.381103515625 102.60360717773438 204.38238525390625 C 102.84201049804688 204.37139892578125 103.07205200195312 204.29132080078125 103.26571655273438 204.15185546875 C 103.86962890625 203.75161743164062 104.267578125 203.10662841796875 104.35433959960938 202.3873291015625 L 103.888427734375 202.34588623046875" stroke-width="0.6000000238418579" fill="rgb(70, 150, 179)" opacity="1.0"/>
    <path d="M 456.3958740234375 428.6710205078125 C 456.62890625 429.262451171875 456.9119873046875 429.908203125 457.4901123046875 430.17169189453125 C 458.111328125 430.454345703125 458.8670654296875 430.171875 459.35565185546875 429.6954345703125 C 459.5440673828125 429.5118408203125 459.71026611328125 429.2908935546875 459.76239013671875 429.03302001953125 C 459.8052978515625 428.821044921875 459.768310546875 428.6016845703125 459.7196044921875 428.3909912109375 C 459.56689453125 427.7264404296875 459.267333984375 427.04559326171875 458.68634033203125 426.68896484375 C 458.1005859375 426.329833984375 457.2833251953125 426.3961181640625 456.76513671875 426.8482666015625 C 456.2470703125 427.3004150390625 456.0633544921875 428.0985107421875 456.3370361328125 428.7298583984375 L 456.3958740234375 428.6710205078125" stroke-width="0.6000000238418579" fill="rgb(140, 28, 33)" opacity="1.0"/>
    <path d="M 91.58631896972656 200.5301513671875 C 93.55673217773438 200.191162109375 95.60330200195312 199.8167724609375 97.25238037109375 198.68377685546875 C 98.90144348144531 197.55078125 100.04679870605469 195.414306640625 99.41384887695312 193.51666259765625 C 98.6273193359375 191.17596435546875 95.42001342773438 190.3590087890625 93.1981201171875 191.44659423828125 C 90.97621154785156 192.5341796875 89.670166015625 194.91940307617188 89.0263671875 197.30474853515625 C 88.75308227539062 198.023193359375 88.75904846191406 198.81793212890625 89.0430908203125 199.53216552734375 C 89.3953857421875 200.20132446289062 90.44975280761719 200.51849365234375 90.92695617675781 199.92706298828125 L 91.58631896972656 200.5301513671875" stroke-width="0.6000000238418579" fill="rgb(159, 159, 159)" opacity="1.0"/>
    <path d="M 376.7356262207031 298.7021789550781 C 377.22406005859375 298.3625183105469 377.60675048828125 297.8481140136719 377.70892333984375 297.2623596191406 C 377.8111267089844 296.67657470703125 377.6015625 296.0266418457031 377.12322998046875 295.6692199707031 C 376.7846984863281 295.4169616699219 376.3422546386719 295.32757568359375 375.92169189453125 295.368408203125 C 375.5011291503906 295.40924072265625 375.1000061035156 295.57086181640625 374.73260498046875 295.77972412109375 C 374.57275390625 295.8706970214844 374.41168212890625 295.9776916503906 374.32562255859375 296.1396789550781 C 374.22686767578125 296.3253479003906 374.2445983886719 296.5488586425781 374.2748718261719 296.75762939453125 C 374.36041259765625 297.34698486328125 374.53948974609375 297.9457092285156 374.93914794921875 298.3873291015625 C 375.3388366699219 298.8289489746094 376.0010070800781 299.07183837890625 376.5516662597656 298.8487548828125 L 376.7356262207031 298.7021789550781" stroke-width="0.6000000238418579" fill="rgb(159, 159, 159)" opacity="1.0"/>
    <path d="M 97.1170654296875 432.5203857421875 C 97.32281494140625 431.89373779296875 97.52435302734375 431.188232421875 97.233154296875 430.597900390625 C 96.95079040527344 430.0233154296875 96.29812622070312 429.7481689453125 95.69546508789062 429.5313720703125 C 95.45051574707031 429.443603515625 95.19287109375 429.355712890625 94.93569946289062 429.394287109375 C 94.50070190429688 429.459228515625 94.19851684570312 429.859130859375 94.0086669921875 430.255126953125 C 93.83230590820312 430.6226806640625 93.70965576171875 431.0135498046875 93.6444091796875 431.4158935546875 C 93.53825378417969 432.0692138671875 93.63192749023438 432.83447265625 94.16407775878906 433.2276611328125 C 94.45106506347656 433.4403076171875 94.82669067382812 433.50848388671875 95.18359375 433.48388671875 C 95.54049682617188 433.459228515625 95.88545227050781 433.348388671875 96.22444152832031 433.234130859375 C 96.56343078613281 433.11981201171875 96.89407348632812 433.000244140625 97.1500244140625 432.7626953125 L 97.1170654296875 432.5203857421875" stroke-width="0.6000000238418579" fill="rgb(218, 166, 20)" opacity="1.0"/>
    <path d="M 100.69731140136719 139.3152618408203 C 101.94561767578125 139.586181640625 103.17718505859375 138.79383850097656 103.4481201171875 137.5455322265625 C 103.4713134765625 137.4386444091797 103.48689270019531 137.3302459716797 103.4947509765625 137.2211456298828 C 103.5245361328125 136.80657958984375 103.43142700195312 136.36660766601562 103.15679931640625 136.05490112304688 C 102.92477416992188 135.79144287109375 102.58950805664062 135.64427185058594 102.25491333007812 135.538818359375 C 101.35885620117188 135.25778198242188 100.40390014648438 135.22177124023438 99.48924255371094 135.4345703125 C 99.24755859375 135.49122619628906 99.00299072265625 135.56869506835938 98.81100463867188 135.72689819335938 C 98.48857116699219 135.9923095703125 98.37205505371094 136.4440155029297 98.3983154296875 136.86111450195312 C 98.4368896484375 137.48036193847656 98.75100708007812 138.06541442871094 99.20268249511719 138.49099731445312 C 99.65435791015625 138.9165802001953 100.23431396484375 139.19126892089844 100.83755493164062 139.33668518066406 L 100.69731140136719 139.3152618408203" stroke-width="0.6000000238418579" fill="rgb(143, 165, 67)" opacity="1.0"/>
    <path d="M 454.39837646484375 342.6243591308594 C 455.9432373046875 343.65118408203125 458.3626708984375 342.2259826660156 458.3499755859375 340.3829650878906 C 458.33721923828125 338.5399475097656 456.05322265625 337.155517578125 454.343994140625 337.87774658203125 C 452.634765625 338.5999755859375 451.9794921875 341.01324462890625 452.9781494140625 342.5791931152344 L 454.39837646484375 342.6243591308594" stroke-width="0.6000000238418579" fill="rgb(233, 92, 21)" opacity="1.0"/>
    <path d="M 105.4581298828125 215.42376708984375 C 106.11477661132812 214.90093994140625 106.84494018554688 214.20831298828125 106.69920349121094 213.3787841796875 C 106.62835693359375 213.05093383789062 106.45751953125 212.75314331054688 106.21026611328125 212.5264892578125 C 105.61355590820312 211.94921875 104.77407836914062 211.697021484375 103.95803833007812 211.84979248046875 C 103.26614379882812 211.98117065429688 102.67333984375 212.39706420898438 102.10983276367188 212.812255859375 C 101.79364013671875 213.04598999023438 101.46517944335938 213.30438232421875 101.33157348632812 213.67190551757812 C 101.15753173828125 214.1632080078125 101.38137817382812 214.70391845703125 101.65087890625 215.14990234375 C 102.04449462890625 215.80303955078125 102.54124450683594 216.38818359375 103.12184143066406 216.88262939453125 C 103.32278442382812 217.05303955078125 103.54449462890625 217.21795654296875 103.80387878417969 217.26370239257812 C 104.0472412109375 217.29388427734375 104.29412841796875 217.25262451171875 104.51445007324219 217.14495849609375 C 105.19546508789062 216.84423828125 105.71028137207031 216.25994873046875 105.92282104492188 215.5465087890625 L 105.4581298828125 215.42376708984375" stroke-width="0.6000000238418579" fill="rgb(70, 150, 179)" opacity="1.0"/>
    <path d="M 102.05812072753906 80.93553161621094 C 102.27261352539062 81.77032470703125 102.54544067382812 82.68663024902344 103.27914428710938 83.13786315917969 C 104.06761169433594 83.62210083007812 105.13174438476562 83.3685302734375 105.868896484375 82.80931091308594 C 106.15321350097656 82.59382629394531 106.41377258300781 82.32441711425781 106.52705383300781 81.98617553710938 C 106.62030029296875 81.70816040039062 106.60720825195312 81.40682983398438 106.57696533203125 81.11521911621094 C 106.48275756835938 80.19552612304688 106.193603515625 79.22927856445312 105.47161865234375 78.65213012695312 C 104.74357604980469 78.07095336914062 103.63287353515625 78.02328491210938 102.86004638671875 78.544921875 C 102.08723449707031 79.06655883789062 101.70651245117188 80.10957336425781 101.96905517578125 81.0048828125 L 102.05812072753906 80.93553161621094" stroke-width="0.6000000238418579" fill="rgb(140, 28, 33)" opacity="1.0"/>
    <path d="M 91.32789611816406 423.59716796875 C 93.33834838867188 423.293212890625 95.427001953125 422.9547119140625 97.12713623046875 421.8367919921875 C 98.82723999023438 420.71881103515625 100.03591918945312 418.5701904296875 99.43153381347656 416.62762451171875 C 98.68013000488281 414.2314453125 95.43588256835938 413.33453369140625 93.15425109863281 414.39453125 C 90.87261962890625 415.4544677734375 89.49542236328125 417.852783203125 88.79156494140625 420.26483154296875 C 88.49887084960938 420.98968505859375 88.48854064941406 421.7978515625 88.76260375976562 422.52996826171875 C 89.10699462890625 423.2176513671875 90.17250061035156 423.5618896484375 90.669921875 422.9703369140625 L 91.32789611816406 423.59716796875" stroke-width="0.6000000238418579" fill="rgb(159, 159, 159)" opacity="1.0"/>
    <path d="M 468.79736328125 60.08406066894531 C 469.3314208984375 59.41371154785156 469.6473388671875 58.545806884765625 469.546630859375 57.69514465332031 C 469.44598388671875 56.84449768066406 468.8885498046875 56.03387451171875 468.08087158203125 55.737945556640625 C 467.509521484375 55.5294189453125 466.8619384765625 55.58863830566406 466.29833984375 55.81852722167969 C 465.7347412109375 56.04841613769531 465.247802734375 56.437042236328125 464.82684326171875 56.87689208984375 C 464.643798828125 57.06842041015625 464.465576171875 57.282562255859375 464.4136962890625 57.541656494140625 C 464.35400390625 57.83868408203125 464.470703125 58.13984680175781 464.5986328125 58.415496826171875 C 464.9598388671875 59.19367980957031 465.4541015625 59.94615173339844 466.18792724609375 60.390777587890625 C 466.92181396484375 60.835418701171875 467.93597412109375 60.89739990234375 468.60400390625 60.362274169921875 L 468.79736328125 60.08406066894531" stroke-width="0.6000000238418579" fill="rgb(159, 159, 159)" opacity="1.0"/>
    <path d="M 91.91555786132812 106.53378295898438 C 92.58096313476562 106.71804809570312 93.32858276367188 106.89402770996094 93.93157958984375 106.56045532226562 C 94.5184326171875 106.23689270019531 94.77397155761719 105.54087829589844 94.97102355957031 104.9000244140625 C 95.05068969726562 104.63958740234375 95.1298828125 104.3658447265625 95.076904296875 104.09883117675781 C 94.98757934570312 103.64718627929688 94.55450439453125 103.35090637207031 94.13107299804688 103.17190551757812 C 93.73811340332031 103.005615234375 93.32330322265625 102.8966064453125 92.89935302734375 102.84820556640625 C 92.21099853515625 102.7694091796875 91.41543579101562 102.90504455566406 91.03057861328125 103.48086547851562 C 90.82234191894531 103.79141235351562 90.76954650878906 104.18756103515625 90.8128662109375 104.55953979492188 C 90.856201171875 104.93150329589844 90.98910522460938 105.2867431640625 91.12530517578125 105.63558959960938 C 91.26152038574219 105.98440551757812 91.40283203125 106.32424926757812 91.66387939453125 106.58016967773438 L 91.91555786132812 106.53378295898438" stroke-width="0.6000000238418579" fill="rgb(218, 166, 20)" opacity="1.0"/>
    <path d="M 119.69705200195312 127.01258850097656 C 120.94598388671875 126.54925537109375 121.58285522460938 125.16120910644531 121.11953735351562 123.91227722167969 C 121.07986450195312 123.80532836914062 121.03265380859375 123.70132446289062 120.97825622558594 123.60107421875 C 120.77151489257812 123.22012329101562 120.4425048828125 122.88589477539062 120.026123046875 122.76631164550781 C 119.67424011230469 122.66522216796875 119.2969970703125 122.72427368164062 118.94378662109375 122.81961059570312 C 117.99864196777344 123.07614135742188 117.13943481445312 123.58102416992188 116.45538330078125 124.2818603515625 C 116.27488708496094 124.46742248535156 116.10353088378906 124.67291259765625 116.02375793457031 124.91975402832031 C 115.88958740234375 125.33409118652344 116.04100036621094 125.79641723632812 116.29841613769531 126.14810180664062 C 116.68020629882812 126.67050170898438 117.28488159179688 127.00801086425781 117.92083740234375 127.12814331054688 C 118.5567626953125 127.248291015625 119.22061157226562 127.16378784179688 119.83232116699219 126.95260620117188 L 119.69705200195312 127.01258850097656" stroke-width="0.6000000238418579" fill="rgb(143, 165, 67)" opacity="1.0"/>
    <path d="M 390.4446105957031 303.2676086425781 C 391.65203857421875 304.6574401855469 394.3427429199219 303.9317321777344 394.8165283203125 302.1649475097656 C 395.2903137207031 300.3981628417969 393.4700012207031 298.4712829589844 391.6441345214844 298.7116394042969 C 389.81829833984375 298.9519958496094 388.55499267578125 301.0882568359375 389.0976257324219 302.84991455078125 L 390.4446105957031 303.2676086425781" stroke-width="0.6000000238418579" fill="rgb(233, 92, 21)" opacity="1.0"/>
    <path d="M 123.20480346679688 113.39820861816406 C 123.76177978515625 112.84962463378906 124.37019348144531 112.13656616210938 124.1539306640625 111.38252258300781 C 124.05618286132812 111.08580017089844 123.8687744140625 110.82672119140625 123.6175537109375 110.64102172851562 C 123.00831604003906 110.16482543945312 122.2060546875 110.01345825195312 121.4652099609375 110.23492431640625 C 120.83721923828125 110.42440795898438 120.32891845703125 110.86770629882812 119.84765625 111.30747985839844 C 119.57771301269531 111.55496215820312 119.29879760742188 111.82647705078125 119.2110595703125 112.17996215820312 C 119.09799194335938 112.65208435058594 119.35830688476562 113.13095092773438 119.65164184570312 113.51760864257812 C 120.08021545410156 114.08399963378906 120.59764099121094 114.57730102539062 121.183837890625 114.97834777832031 C 121.38665771484375 115.11653137207031 121.608154296875 115.24754333496094 121.8529052734375 115.26449584960938 C 122.08126831054688 115.26861572265625 122.305908203125 115.20620727539062 122.49940490722656 115.08486938476562 C 123.1007080078125 114.7396240234375 123.52029418945312 114.14801025390625 123.64724731445312 113.46636962890625 L 123.20480346679688 113.39820861816406" stroke-width="0.6000000238418579" fill="rgb(70, 150, 179)" opacity="1.0"/>
    <path d="M 427.92584228515625 70.5899658203125 C 428.2677001953125 71.22512817382812 428.67333984375 71.91482543945312 429.360107421875 72.13409423828125 C 430.097900390625 72.36923217773438 430.91156005859375 71.94953918457031 431.398193359375 71.34718322753906 C 431.5859375 71.11502075195312 431.7435302734375 70.84381103515625 431.76763916015625 70.5462646484375 C 431.78759765625 70.30166625976562 431.7164306640625 70.05947875976562 431.63330078125 69.82861328125 C 431.37213134765625 69.10031127929688 430.94317626953125 68.37332153320312 430.24072265625 68.04937744140625 C 429.532470703125 67.72337341308594 428.62054443359375 67.90768432617188 428.097412109375 68.48666381835938 C 427.57421875 69.06564331054688 427.474365234375 69.989501953125 427.867431640625 70.6641845703125 L 427.92584228515625 70.5899658203125" stroke-width="0.6000000238418579" fill="rgb(140, 28, 33)" opacity="1.0"/>
    <path d="M 113.43392944335938 416.072509765625 C 114.41030883789062 414.29443359375 115.40670776367188 412.43353271484375 115.54981994628906 410.4085998535156 C 115.69290161132812 408.3836975097656 114.72122192382812 406.1242980957031 112.81509399414062 405.4272155761719 C 110.46023559570312 404.5719909667969 107.78463745117188 406.60113525390625 107.24343872070312 409.0519714355469 C 106.70223999023438 411.5028381347656 107.76979064941406 414.0469970703125 109.25602722167969 416.065673828125 C 109.65350341796875 416.73663330078125 110.28802490234375 417.2342529296875 111.034423828125 417.460205078125 C 111.78814697265625 417.60357666015625 112.70631408691406 416.96722412109375 112.53852844238281 416.21466064453125 L 113.43392944335938 416.072509765625" stroke-width="0.6000000238418579" fill="rgb(159, 159, 159)" opacity="1.0"/>
    <path d="M 453.4539794921875 431.56402587890625 C 453.7847900390625 430.854736328125 453.8797607421875 430.0166015625 453.608642578125 429.2828369140625 C 453.33740234375 428.549072265625 452.669189453125 427.948486328125 451.8887939453125 427.85833740234375 C 451.3370361328125 427.7952880859375 450.774658203125 427.986328125 450.3233642578125 428.3109130859375 C 449.8720703125 428.635498046875 449.5228271484375 429.0845947265625 449.24310302734375 429.56512451171875 C 449.1214599609375 429.7742919921875 449.009033203125 430.00250244140625 449.018310546875 430.24365234375 C 449.02880859375 430.5201416015625 449.19677734375 430.7625732421875 449.3692626953125 430.97998046875 C 449.8563232421875 431.59375 450.4560546875 432.1561279296875 451.20263671875 432.39410400390625 C 451.94921875 432.63201904296875 452.8629150390625 432.47027587890625 453.3416748046875 431.8524169921875 L 453.4539794921875 431.56402587890625" stroke-width="0.6000000238418579" fill="rgb(159, 159, 159)" opacity="1.0"/>
    <path d="M 450.3896484375 285.8298034667969 C 450.8555908203125 285.25921630859375 451.3487548828125 284.60479736328125 451.2822265625 283.87261962890625 C 451.218505859375 283.16046142578125 450.64862060546875 282.61175537109375 450.1075439453125 282.1438903808594 C 449.887451171875 281.95416259765625 449.6541748046875 281.7591552734375 449.37066650390625 281.69610595703125 C 448.8912353515625 281.5892333984375 448.415771484375 281.884765625 448.0589599609375 282.2213439941406 C 447.7276611328125 282.5335693359375 447.4429931640625 282.89178466796875 447.2135009765625 283.28497314453125 C 446.84063720703125 283.92327880859375 446.63116455078125 284.7584533691406 447.02801513671875 285.38177490234375 C 447.2418212890625 285.7186279296875 447.60595703125 285.9404296875 447.98779296875 286.0580139160156 C 448.36962890625 286.17559814453125 448.773681640625 286.198486328125 449.1728515625 286.2154235839844 C 449.572021484375 286.2323303222656 449.964599609375 286.24041748046875 450.32672119140625 286.09552001953125 L 450.3896484375 285.8298034667969" stroke-width="0.6000000238418579" fill="rgb(218, 166, 20)" opacity="1.0"/>
    <path d="M 417.9056396484375 363.0340270996094 C 418.91864013671875 364.05670166015625 420.56890869140625 364.06451416015625 421.591552734375 363.0514831542969 C 421.67913818359375 362.9647521972656 421.760498046875 362.87188720703125 421.83489990234375 362.77362060546875 C 422.11767578125 362.4002380371094 422.2999267578125 361.9273681640625 422.23193359375 361.46417236328125 C 422.1744384765625 361.07275390625 421.9481201171875 360.727783203125 421.69671630859375 360.4226379394531 C 421.022705078125 359.60675048828125 420.142578125 358.9862060546875 419.147705078125 358.62548828125 C 418.884521484375 358.53057861328125 418.60589599609375 358.45355224609375 418.327392578125 358.485107421875 C 417.85968017578125 358.537841796875 417.47216796875 358.89306640625 417.2408447265625 359.3032531738281 C 416.8968505859375 359.91204833984375 416.8343505859375 360.65771484375 416.999755859375 361.3372497558594 C 417.1650390625 362.01678466796875 417.5443115234375 362.63250732421875 418.02496337890625 363.1404113769531 L 417.9056396484375 363.0340270996094" stroke-width="0.6000000238418579" fill="rgb(143, 165, 67)" opacity="1.0"/>
    <path d="M 451.6470947265625 355.2178955078125 C 452.53997802734375 353.78399658203125 451.1773681640625 351.620361328125 449.500244140625 351.6817321777344 C 447.822998046875 351.7431335449219 446.6246337890625 353.8594665527344 447.3282470703125 355.39569091796875 C 448.03179931640625 356.9319152832031 450.24609375 357.463134765625 451.6444091796875 356.5118408203125 L 451.6470947265625 355.2178955078125" stroke-width="0.6000000238418579" fill="rgb(233, 92, 21)" opacity="1.0"/>
    <path d="M 453.0872802734375 80.94857788085938 C 453.55413818359375 80.43896484375 454.0589599609375 79.78181457519531 453.8338623046875 79.12588500976562 C 453.73406982421875 78.86834716796875 453.556884765625 78.64808654785156 453.32666015625 78.49552917480469 C 452.76715087890625 78.10272216796875 452.052001953125 78.00546264648438 451.40789794921875 78.23460388183594 C 450.862060546875 78.43035888671875 450.433349609375 78.84481811523438 450.0284423828125 79.25491333007812 C 449.80126953125 79.48565673828125 449.5673828125 79.738037109375 449.50592041015625 80.05409240722656 C 449.427490234375 80.47605895996094 449.6790771484375 80.88705444335938 449.95556640625 81.21511840820312 C 450.359619140625 81.69575500488281 450.8388671875 82.10781860351562 451.3746337890625 82.43533325195312 C 451.5599365234375 82.54812622070312 451.761474609375 82.65376281738281 451.978271484375 82.65762329101562 C 452.18011474609375 82.65090942382812 452.3756103515625 82.58563232421875 452.54095458984375 82.4697265625 C 453.05615234375 82.13763427734375 453.3997802734375 81.59626770019531 453.48095703125 80.98869323730469 L 453.0872802734375 80.94857788085938" stroke-width="0.6000000238418579" fill="rgb(70, 150, 179)" opacity="1.0"/>
    <path d="M 450.25927734375 390.033203125 C 450.413330078125 389.717529296875 450.57080078125 389.36114501953125 450.46240234375 389.02728271484375 C 450.345703125 388.668701171875 449.9486083984375 388.4661865234375 449.5721435546875 388.44488525390625 C 449.42694091796875 388.4366149902344 449.27490234375 388.45135498046875 449.150390625 388.5263671875 C 449.0479736328125 388.5879821777344 448.972412109375 388.6849060058594 448.90478515625 388.78338623046875 C 448.69097900390625 389.0935974121094 448.525390625 389.46978759765625 448.59686279296875 389.8396301269531 C 448.669189453125 390.21234130859375 449.00115966796875 390.5205993652344 449.3787841796875 390.56298828125 C 449.75634765625 390.6053771972656 450.150146484375 390.3823547363281 450.30523681640625 390.03521728515625 L 450.25927734375 390.033203125" stroke-width="0.6000000238418579" fill="rgb(140, 28, 33)" opacity="1.0"/>
    <path d="M 122.82492065429688 215.97186279296875 C 120.24130249023438 216.31100463867188 117.556640625 216.69241333007812 115.35025024414062 218.08233642578125 C 113.1439208984375 219.47222900390625 111.54144287109375 222.195068359375 112.26724243164062 224.69918823242188 C 113.17007446289062 227.78826904296875 117.30450439453125 229.01861572265625 120.25450134277344 227.71759033203125 C 123.20449829101562 226.41653442382812 125.02911376953125 223.37808227539062 125.9913330078125 220.3050537109375 C 126.38450622558594 219.38360595703125 126.41798400878906 218.34832763671875 126.08514404296875 217.4034423828125 C 125.66108703613281 216.51376342773438 124.30445861816406 216.04595947265625 123.65231323242188 216.79144287109375 L 122.82492065429688 215.97186279296875" stroke-width="0.6000000238418579" fill="rgb(159, 159, 159)" opacity="1.0"/>
    <path d="M 111.62368774414062 224.40496826171875 C 109.94950866699219 222.97714233398438 107.74966430664062 222.091796875 105.55825805664062 222.27694702148438 C 103.36685180664062 222.46209716796875 101.2388916015625 223.82272338867188 100.41004943847656 225.86981201171875 C 99.82589721679688 227.31787109375 99.922119140625 228.984619140625 100.46354675292969 230.45062255859375 C 101.00497436523438 231.91665649414062 101.96029663085938 233.19955444335938 103.052734375 234.31747436523438 C 103.5284423828125 234.8037109375 104.06260681152344 235.27926635742188 104.72299194335938 235.43487548828125 C 105.48001098632812 235.61358642578125 106.2628173828125 235.34002685546875 106.98110961914062 235.03546142578125 C 109.00897216796875 234.17547607421875 110.9822998046875 232.97195434570312 112.18630981445312 231.12713623046875 C 113.39031982421875 229.28228759765625 113.6365966796875 226.68533325195312 112.3209228515625 224.92523193359375 L 111.62368774414062 224.40496826171875" stroke-width="0.6000000238418579" fill="rgb(159, 159, 159)" opacity="1.0"/>
    <path d="M 303.8731689453125 104.59259033203125 C 303.12445068359375 106.50949096679688 302.375244140625 108.67263793945312 303.18084716796875 110.56195068359375 C 303.9617004394531 112.40043640136719 305.9476623535156 113.36978149414062 307.7878112792969 114.14898681640625 C 308.53582763671875 114.46443176269531 309.3233642578125 114.78250122070312 310.13116455078125 114.7066650390625 C 311.4974670410156 114.57919311523438 312.50762939453125 113.38526916503906 313.1672058105469 112.18421936035156 C 313.77978515625 111.06967163085938 314.22918701171875 109.87294006347656 314.5016174316406 108.63064575195312 C 314.9446716308594 106.61367797851562 314.7845153808594 104.21357727050781 313.19427490234375 102.89727783203125 C 312.3368225097656 102.18540954589844 311.1783142089844 101.90835571289062 310.062255859375 101.92367553710938 C 308.9461669921875 101.93899536132812 307.8524475097656 102.22500610351562 306.7767333984375 102.52275085449219 C 305.7010192871094 102.82049560546875 304.650390625 103.1361083984375 303.81219482421875 103.83224487304688 L 303.8731689453125 104.59259033203125" stroke-width="0.6000000238418579" fill="rgb(218, 166, 20)" opacity="1.0"/>
    <path d="M 219.1595458984375 126.4168701171875 C 216.79901123046875 124.24256896972656 213.12277221679688 124.3935546875 210.948486328125 126.75408935546875 C 210.76226806640625 126.95620727539062 210.59066772460938 127.17129516601562 210.4349365234375 127.39773559570312 C 209.84326171875 128.2581787109375 209.485595703125 129.32997131347656 209.684326171875 130.3546142578125 C 209.8521728515625 131.2205352783203 210.39151000976562 131.9657440185547 210.98248291015625 132.6197052001953 C 212.56683349609375 134.36805725097656 214.59039306640625 135.66030883789062 216.84298706054688 136.36221313476562 C 217.438720703125 136.54673767089844 218.06723022460938 136.68983459472656 218.68438720703125 136.59112548828125 C 219.72055053710938 136.42599487304688 220.54742431640625 135.59530639648438 221.02081298828125 134.65809631347656 C 221.72467041015625 133.2671661376953 221.78787231445312 131.59999084472656 221.3502197265625 130.10345458984375 C 220.91259765625 128.60691833496094 220.00518798828125 127.2742919921875 218.88287353515625 126.19210815429688 L 219.1595458984375 126.4168701171875" stroke-width="0.6000000238418579" fill="rgb(143, 165, 67)" opacity="1.0"/>
    <path d="M 222.61215209960938 94.30360412597656 C 221.48583984375 97.81646728515625 225.52532958984375 101.67205810546875 229.0445556640625 100.64772033691406 C 232.56375122070312 99.62335205078125 233.97323608398438 94.50236511230469 231.66400146484375 91.62406921386719 C 229.35479736328125 88.74578857421875 224.38214111328125 88.801513671875 221.927978515625 91.56182861328125 L 222.61215209960938 94.30360412597656" stroke-width="0.6000000238418579" fill="rgb(233, 92, 21)" opacity="1.0"/>
    <path d="M 202.44436645507812 95.82420349121094 C 201.7501220703125 94.06034851074219 200.73788452148438 92.02537536621094 198.850341796875 91.791015625 C 198.0955810546875 91.72698974609375 197.33950805664062 91.89874267578125 196.68646240234375 92.28262329101562 C 195.045166015625 93.18893432617188 193.9449462890625 94.8345947265625 193.73471069335938 96.69769287109375 C 193.5604248046875 98.27857971191406 194.06607055664062 99.83380126953125 194.589599609375 101.32534790039062 C 194.885009765625 102.1627197265625 195.22555541992188 103.04296875 195.9306640625 103.57467651367188 C 196.87628173828125 104.27566528320312 198.19189453125 104.15020751953125 199.33319091796875 103.86343383789062 C 201.00399780273438 103.44584655761719 202.59619140625 102.76057434082031 204.04803466796875 101.83419799804688 C 204.54901123046875 101.51315307617188 205.05181884765625 101.14358520507812 205.322265625 100.61378479003906 C 205.54855346679688 100.10830688476562 205.62286376953125 99.54791259765625 205.5361328125 99.00094604492188 C 205.337646484375 97.33151245117188 204.416748046875 95.83319091796875 203.0169677734375 94.90206909179688 L 202.44436645507812 95.82420349121094" stroke-width="0.6000000238418579" fill="rgb(70, 150, 179)" opacity="1.0"/>
    <path d="M 268.0304260253906 131.97755432128906 C 267.1351013183594 133.8447265625 266.22113037109375 135.95191955566406 266.8736572265625 137.91575622558594 C 267.57586669921875 140.02493286132812 269.92529296875 141.2027130126953 272.1455078125 141.31301879882812 C 273.00152587890625 141.3559112548828 273.8971252441406 141.26290893554688 274.628173828125 140.8157196044922 C 275.22930908203125 140.4483184814453 275.6708068847656 139.87376403808594 276.0657958984375 139.29061889648438 C 277.3135986328125 137.45314025878906 278.2746887207031 135.22879028320312 277.83831787109375 133.0514373779297 C 277.39703369140625 130.85731506347656 275.4273681640625 129.05340576171875 273.19964599609375 128.81886291503906 C 270.971923828125 128.58432006835938 268.6598815917969 129.91481018066406 267.7593994140625 131.96749877929688 L 268.0304260253906 131.97755432128906" stroke-width="0.6000000238418579" fill="rgb(140, 28, 33)" opacity="1.0"/>
    <path d="M 316.8057861328125 117.25595092773438 C 314.2802734375 118.09248352050781 311.66156005859375 118.99078369140625 309.7161865234375 120.80844116210938 C 307.7709045410156 122.62608337402344 306.6872253417969 125.66427612304688 307.89617919921875 128.03579711914062 C 309.39501953125 130.95985412597656 313.7771911621094 131.39915466308594 316.4852600097656 129.5277099609375 C 319.1933288574219 127.65628051757812 320.4390869140625 124.2589111328125 320.8134765625 120.99259948730469 C 321.0306701660156 119.99310302734375 320.86529541015625 118.94854736328125 320.3500061035156 118.06503295898438 C 319.75384521484375 117.25439453125 318.3036193847656 117.04598999023438 317.79290771484375 117.91880798339844 L 316.8057861328125 117.25595092773438" stroke-width="0.6000000238418579" fill="rgb(159, 159, 159)" opacity="1.0"/>
    <path d="M 198.27935791015625 131.89248657226562 C 196.63638305664062 130.44137573242188 194.46044921875 129.52157592773438 192.27447509765625 129.66818237304688 C 190.0885009765625 129.81480407714844 187.9454345703125 131.1333770751953 187.08453369140625 133.15811157226562 C 186.47769165039062 134.5903778076172 186.5447998046875 136.25225830078125 187.05877685546875 137.7218475341797 C 187.57281494140625 139.1914520263672 188.50222778320312 140.48577880859375 189.57110595703125 141.61814880371094 C 190.03656005859375 142.11065673828125 190.5604248046875 142.5935821533203 191.21551513671875 142.75994873046875 C 191.96649169921875 142.95101928710938 192.75091552734375 142.6920623779297 193.47161865234375 142.40106201171875 C 195.50634765625 141.57945251464844 197.49267578125 140.4147186279297 198.72381591796875 138.59791564941406 C 199.95489501953125 136.78111267089844 200.2449951171875 134.19859313964844 198.96484375 132.42269897460938 L 198.27935791015625 131.89248657226562" stroke-width="0.6000000238418579" fill="rgb(159, 159, 159)" opacity="1.0"/>
    <path d="M 280.7895812988281 105.05323791503906 C 279.0108642578125 105.69052124023438 277.06134033203125 106.47593688964844 276.2388000488281 108.1728515625 C 275.43658447265625 109.82199096679688 275.9627380371094 111.78153991699219 276.5326232910156 113.5255126953125 C 276.76519775390625 114.233642578125 277.019775390625 114.97073364257812 277.559326171875 115.48434448242188 C 278.4713439941406 116.35354614257812 279.9071044921875 116.33320617675781 281.1363830566406 116.06576538085938 C 282.2774658203125 115.81797790527344 283.3770751953125 115.40762329101562 284.4015197753906 114.84725952148438 C 286.06524658203125 113.93800354003906 287.6305847167969 112.38005065917969 287.583251953125 110.48532104492188 C 287.5592041015625 109.46240234375 287.0525817871094 108.49317932128906 286.36907958984375 107.7296142578125 C 285.6855773925781 106.966064453125 284.828125 106.38116455078125 283.973388671875 105.81582641601562 C 283.11865234375 105.25048828125 282.2666931152344 104.71328735351562 281.279296875 104.55259704589844 L 280.7895812988281 105.05323791503906" stroke-width="0.6000000238418579" fill="rgb(218, 166, 20)" opacity="1.0"/>
    <path d="M 242.34152221679688 120.69796752929688 C 241.21304321289062 123.5845947265625 242.6383056640625 126.8394775390625 245.52493286132812 127.96795654296875 C 245.7720947265625 128.0645751953125 246.02581787109375 128.1435546875 246.2841796875 128.20428466796875 C 247.26593017578125 128.43484497070312 248.35577392578125 128.3807373046875 249.20806884765625 127.84254455566406 C 249.92831420898438 127.38780212402344 250.40966796875 126.64111328125 250.79083251953125 125.87997436523438 C 251.80828857421875 123.8411865234375 252.26129150390625 121.56715393066406 252.102783203125 119.29409790039062 C 252.05987548828125 118.69332885742188 251.96817016601562 118.07763671875 251.66290283203125 117.55694580078125 C 251.15087890625 116.68252563476562 250.1134033203125 116.22988891601562 249.10406494140625 116.13262939453125 C 247.60565185546875 115.9871826171875 246.0833740234375 116.51504516601562 244.89031982421875 117.43374633789062 C 243.69720458984375 118.3524169921875 242.81640625 119.63632202148438 242.236328125 121.0257568359375 L 242.34152221679688 120.69796752929688" stroke-width="0.6000000238418579" fill="rgb(143, 165, 67)" opacity="1.0"/>
    <path d="M 249.91522216796875 92.14518737792969 C 249.106689453125 95.75 253.4814453125 99.23358154296875 256.8997802734375 97.89639282226562 C 260.3181457519531 96.55917358398438 261.2649230957031 91.32498168945312 258.70361328125 88.66108703613281 C 256.142333984375 85.9971923828125 251.18740844726562 86.49856567382812 248.98699951171875 89.4718017578125 L 249.91522216796875 92.14518737792969" stroke-width="0.6000000238418579" fill="rgb(233, 92, 21)" opacity="1.0"/>
    <path d="M 338.259765625 84.71905517578125 C 336.5548095703125 84.19049072265625 334.4634094238281 83.73593139648438 333.1796569824219 84.98490905761719 C 332.6881103515625 85.5018310546875 332.36907958984375 86.15853881835938 332.2666015625 86.86447143554688 C 331.9660339355469 88.604248046875 332.5273742675781 90.38180541992188 333.7726135253906 91.63343811035156 C 334.8316650390625 92.69245910644531 336.272216796875 93.23675537109375 337.676513671875 93.73042297363281 C 338.4657897949219 94.00645446777344 339.31317138671875 94.27459716796875 340.11907958984375 94.069580078125 C 341.1910705566406 93.78753662109375 341.8736267089844 92.74690246582031 342.3349914550781 91.73941040039062 C 343.0120544433594 90.2657470703125 343.44610595703125 88.69223022460938 343.620361328125 87.07987976074219 C 343.67950439453125 86.52267456054688 343.70404052734375 85.93557739257812 343.4739990234375 85.42485046386719 C 343.2358093261719 84.96090698242188 342.8677673339844 84.5762939453125 342.4147644042969 84.31791687011719 C 341.0711669921875 83.48068237304688 339.4278869628906 83.27500915527344 337.91937255859375 83.75526428222656 L 338.259765625 84.71905517578125" stroke-width="0.6000000238418579" fill="rgb(70, 150, 179)" opacity="1.0"/>
    <path d="M 332.93670654296875 124.78750610351562 C 332.3591003417969 122.66354370117188 331.62969970703125 120.33355712890625 329.7400207519531 119.20759582519531 C 327.7093505859375 117.99929809570312 325.001220703125 118.68487548828125 323.1388854980469 120.13922119140625 C 322.4206237792969 120.69964599609375 321.7649230957031 121.39691162109375 321.4877624511719 122.2646484375 C 321.2596435546875 122.97792053222656 321.3038635253906 123.74687194824219 321.3914794921875 124.49040222167969 C 321.6649475097656 126.83544921875 322.4378967285156 129.2924041748047 324.3021240234375 130.7403106689453 C 326.1819763183594 132.19827270507812 329.01983642578125 132.2801971435547 330.97454833984375 130.92056274414062 C 332.92926025390625 129.56092834472656 333.86407470703125 126.88397216796875 333.1616516113281 124.60722351074219 L 332.93670654296875 124.78750610351562" stroke-width="0.6000000238418579" fill="rgb(140, 28, 33)" opacity="1.0"/>
    <path d="M 353.16796875 105.69168090820312 C 350.697998046875 105.56507873535156 348.12646484375 105.4605712890625 345.82843017578125 106.37953186035156 C 343.5303955078125 107.29849243164062 341.5674133300781 109.56533813476562 341.81536865234375 112.02742004394531 C 342.12823486328125 115.06591796875 345.776611328125 116.92369079589844 348.7535705566406 116.21524047851562 C 351.7305603027344 115.50677490234375 353.9550476074219 112.98342895507812 355.38043212890625 110.27987670898438 C 355.905517578125 109.48716735839844 356.1143798828125 108.52647399902344 355.96575927734375 107.58734130859375 C 355.7225341796875 106.68408203125 354.536376953125 106.01467895507812 353.7997131347656 106.59869384765625 L 353.16796875 105.69168090820312" stroke-width="0.6000000238418579" fill="rgb(159, 159, 159)" opacity="1.0"/>
    <path d="M 350.1949462890625 124.55911254882812 C 348.2986145019531 125.12240600585938 346.5539855957031 126.34768676757812 345.6206359863281 128.09072875976562 C 344.68731689453125 129.83375549316406 344.6714172363281 132.10447692871094 345.8091735839844 133.73171997070312 C 346.6150207519531 134.8811798095703 347.9189453125 135.6246795654297 349.2894287109375 135.9342041015625 C 350.6599426269531 136.2437286376953 352.09503173828125 136.15151977539062 353.47283935546875 135.8751220703125 C 354.0723876953125 135.75448608398438 354.6925048828125 135.5845489501953 355.1331481933594 135.16278076171875 C 355.6385803222656 134.67945861816406 355.8155822753906 133.9552764892578 355.9375915527344 133.2645263671875 C 356.2820129394531 131.3144073486328 356.3406677246094 129.23721313476562 355.53912353515625 127.42610168457031 C 354.737548828125 125.614990234375 352.8999328613281 124.15780639648438 350.9285888671875 124.28807067871094 L 350.1949462890625 124.55911254882812" stroke-width="0.6000000238418579" fill="rgb(159, 159, 159)" opacity="1.0"/>
    <path d="M 366.03094482421875 113.47320556640625 C 364.267333984375 113.97416687011719 362.32867431640625 114.607421875 361.42169189453125 116.19662475585938 C 360.5374755859375 117.74087524414062 360.9190368652344 119.67233276367188 361.3570251464844 121.39790344238281 C 361.5360107421875 122.0986328125 361.7344055175781 122.828857421875 362.2232360839844 123.36128234863281 C 363.0495300292969 124.26229858398438 364.44085693359375 124.33624267578125 365.6484375 124.15750122070312 C 366.76934814453125 123.99203491210938 367.86065673828125 123.66647338867188 368.8890075683594 123.19076538085938 C 370.5590515136719 122.41900634765625 372.1761169433594 121.01277160644531 372.2538757324219 119.17532348632812 C 372.29730224609375 118.18341064453125 371.8700256347656 117.2120361328125 371.25811767578125 116.42822265625 C 370.6462097167969 115.6444091796875 369.8542175292969 115.022216796875 369.0635681152344 114.41915893554688 C 368.27294921875 113.81607055664062 367.483154296875 113.24041748046875 366.5377197265625 113.02044677734375 L 366.03094482421875 113.47320556640625" stroke-width="0.6000000238418579" fill="rgb(218, 166, 20)" opacity="1.0"/>
    <path d="M 434.4140625 155.3883819580078 C 431.4530029296875 155.9665069580078 429.52130126953125 158.83554077148438 430.09942626953125 161.79656982421875 C 430.14892578125 162.05010986328125 430.21630859375 162.29983520507812 430.3011474609375 162.5438232421875 C 430.623779296875 163.47097778320312 431.23663330078125 164.33843994140625 432.12353515625 164.75820922851562 C 432.8729248046875 165.11300659179688 433.7376708984375 165.11917114257812 434.56201171875 165.03546142578125 C 436.768310546875 164.80828857421875 438.87353515625 163.9945068359375 440.6590576171875 162.67864990234375 C 441.13037109375 162.330078125 441.588623046875 161.93356323242188 441.8572998046875 161.41107177734375 C 442.3089599609375 160.5341796875 442.13983154296875 159.4454345703125 441.693359375 158.565185546875 C 441.03131103515625 157.2578125 439.803466796875 156.28201293945312 438.4261474609375 155.78062438964844 C 437.04888916015625 155.2792205810547 435.53424072265625 155.22496032714844 434.0897216796875 155.47288513183594 L 434.4140625 155.3883819580078" stroke-width="0.6000000238418579" fill="rgb(143, 165, 67)" opacity="1.0"/>
    <path d="M 144.11865234375 418.08935546875 C 142.16696166992188 421.216796875 145.13607788085938 425.94171142578125 148.7965087890625 425.81134033203125 C 152.45692443847656 425.68096923828125 155.07688903808594 421.06488037109375 153.54470825195312 417.710693359375 C 152.01254272460938 414.3564453125 147.18121337890625 413.1923828125 144.1273956298828 415.2655029296875 L 144.11865234375 418.08935546875" stroke-width="0.6000000238418579" fill="rgb(233, 92, 21)" opacity="1.0"/>
    <path d="M 437.2314453125 185.53524780273438 C 435.4862060546875 185.6292724609375 433.4112548828125 185.92254638671875 432.6568603515625 187.5057373046875 C 432.381103515625 188.1474609375 432.31134033203125 188.85888671875 432.4571533203125 189.54196166992188 C 432.7723388671875 191.24169921875 433.891845703125 192.68325805664062 435.460693359375 193.409423828125 C 436.7930908203125 194.02203369140625 438.3009033203125 194.03231811523438 439.7581787109375 194.0084228515625 C 440.5767822265625 193.99368286132812 441.446044921875 193.95193481445312 442.11639404296875 193.48980712890625 C 443.00494384765625 192.86651611328125 443.278076171875 191.67898559570312 443.359375 190.5970458984375 C 443.4803466796875 189.01373291015625 443.34423828125 187.42129516601562 442.956298828125 185.8814697265625 C 442.82122802734375 185.34970092773438 442.644287109375 184.80224609375 442.25946044921875 184.41143798828125 C 441.883056640625 184.06634521484375 441.4144287109375 183.8382568359375 440.91064453125 183.75491333007812 C 439.392333984375 183.44268798828125 437.81341552734375 183.812255859375 436.59136962890625 184.765869140625 L 437.2314453125 185.53524780273438" stroke-width="0.6000000238418579" fill="rgb(70, 150, 179)" opacity="1.0"/>
    <path d="M 407.6156921386719 158.115966796875 C 407.2129211425781 156.20526123046875 406.6862487792969 154.1042938232422 405.0702819824219 153.01026916503906 C 403.33367919921875 151.8361053466797 400.9000549316406 152.30459594726562 399.1761474609375 153.4972686767578 C 398.51129150390625 153.9568328857422 397.8948669433594 154.54078674316406 397.60491943359375 155.29513549804688 C 397.3663635253906 155.9151611328125 397.3661193847656 156.59844970703125 397.4056396484375 157.261474609375 C 397.5277404785156 159.3524169921875 398.0864562988281 161.56805419921875 399.66339111328125 162.9459228515625 C 401.2536315917969 164.33349609375 403.7628479003906 164.5513916015625 405.563720703125 163.44732666015625 C 407.3645935058594 162.34326171875 408.32965087890625 160.020263671875 407.82415771484375 157.96783447265625 L 407.6156921386719 158.115966796875" stroke-width="0.6000000238418579" fill="rgb(140, 28, 33)" opacity="1.0"/>
    <path d="M 141.88711547851562 120.61312866210938 C 139.6603546142578 121.36981201171875 137.35162353515625 122.18170166015625 135.64439392089844 123.80172729492188 C 133.9372100830078 125.42170715332031 133.0 128.11474609375 134.0848388671875 130.2028350830078 C 135.42970275878906 132.77737426757812 139.3063507080078 133.13583374023438 141.6874237060547 131.4630889892578 C 144.06849670410156 129.79034423828125 145.1465606689453 126.77871704101562 145.45523071289062 123.88885498046875 C 145.64041137695312 123.00386047363281 145.48712158203125 122.08163452148438 145.02557373046875 121.30416870117188 C 144.49307250976562 120.59164428710938 143.20970153808594 120.41732788085938 142.76422119140625 121.19233703613281 L 141.88711547851562 120.61312866210938" stroke-width="0.6000000238418579" fill="rgb(159, 159, 159)" opacity="1.0"/>
    <path d="M 417.82623291015625 177.43435668945312 C 416.4874267578125 176.17083740234375 414.6865234375 175.33843994140625 412.84765625 175.40093994140625 C 411.00872802734375 175.46337890625 409.17340087890625 176.5107421875 408.3946838378906 178.18637084960938 C 407.8456115722656 179.37176513671875 407.8558654785156 180.76852416992188 408.24658203125 182.01629638671875 C 408.63726806640625 183.2640380859375 409.38153076171875 184.376220703125 410.247314453125 185.3563232421875 C 410.62432861328125 185.7825927734375 411.0506591796875 186.20245361328125 411.5959167480469 186.36029052734375 C 412.220947265625 186.54147338867188 412.8865966796875 186.34585571289062 413.49957275390625 186.12158203125 C 415.230224609375 185.48834228515625 416.9296875 184.56576538085938 418.013427734375 183.074951171875 C 419.09716796875 181.5841064453125 419.4122314453125 179.42449951171875 418.386962890625 177.89837646484375 L 417.82623291015625 177.43435668945312" stroke-width="0.6000000238418579" fill="rgb(159, 159, 159)" opacity="1.0"/>
    <path d="M 403.2479248046875 186.49664306640625 C 402.53448486328125 184.72134399414062 401.6645812988281 182.7789306640625 399.9158020019531 182.0120849609375 C 398.2161560058594 181.263916015625 396.25360107421875 181.87185668945312 394.5108947753906 182.51577758789062 C 393.8033142089844 182.77838134765625 393.0672912597656 183.06442260742188 392.5683898925781 183.63018798828125 C 391.7239990234375 184.5865478515625 391.7999572753906 186.03857421875 392.11798095703125 187.27215576171875 C 392.4126892089844 188.417236328125 392.8703308105469 189.51406860351562 393.4768371582031 190.52908325195312 C 394.4610290527344 192.17752075195312 396.09783935546875 193.70138549804688 398.01324462890625 193.5804443359375 C 399.0473937988281 193.51666259765625 400.00860595703125 192.96661376953125 400.7548828125 192.24560546875 C 401.50115966796875 191.5245361328125 402.0599365234375 190.63433837890625 402.5990295410156 189.74765014648438 C 403.1381530761719 188.8609619140625 403.64886474609375 187.9781494140625 403.7734069824219 186.97286987304688 L 403.2479248046875 186.49664306640625" stroke-width="0.6000000238418579" fill="rgb(218, 166, 20)" opacity="1.0"/>
    <path d="M 449.86444091796875 179.40509033203125 C 448.91534423828125 182.47406005859375 450.6337890625 185.7313232421875 453.7027587890625 186.680419921875 C 453.965576171875 186.76168823242188 454.2337646484375 186.82421875 454.5054931640625 186.86752319335938 C 455.5377197265625 187.03192138671875 456.66015625 186.89389038085938 457.5006103515625 186.27337646484375 C 458.2109375 185.7490234375 458.65234375 184.94091796875 458.989013671875 184.12539672851562 C 459.88720703125 181.94122314453125 460.18414306640625 179.556396484375 459.84912109375 177.2186279296875 C 459.75946044921875 176.600830078125 459.6182861328125 175.97128295898438 459.2635498046875 175.4560546875 C 458.6683349609375 174.5906982421875 457.56182861328125 174.200927734375 456.5111083984375 174.17645263671875 C 454.95123291015625 174.13897705078125 453.4173583984375 174.79928588867188 452.2532958984375 175.83880615234375 C 451.08917236328125 176.87832641601562 450.275390625 178.27188110351562 449.7803955078125 179.75186157226562 L 449.86444091796875 179.40509033203125" stroke-width="0.6000000238418579" fill="rgb(143, 165, 67)" opacity="1.0"/>
    <path d="M 147.6855010986328 106.12945556640625 C 142.8506622314453 109.41691589355469 144.13206481933594 118.17388916015625 149.52638244628906 120.32931518554688 C 154.9207000732422 122.4847412109375 161.67861938476562 117.46549987792969 161.60406494140625 111.61756896972656 C 161.529541015625 105.76963806152344 155.26551818847656 100.98614501953125 149.5069580078125 102.0379638671875 L 147.6855010986328 106.12945556640625" stroke-width="0.6000000238418579" fill="rgb(233, 92, 21)" opacity="1.0"/>
    <path d="M 452.16094970703125 151.94036865234375 C 450.714599609375 154.3355712890625 449.2352294921875 157.34671020507812 450.6522216796875 159.77047729492188 C 451.253662109375 160.71307373046875 452.1328125 161.44586181640625 453.1683349609375 161.86764526367188 C 455.702392578125 162.980224609375 458.61859130859375 162.7955322265625 460.9920654296875 161.37213134765625 C 463.0023193359375 160.1595458984375 464.37310791015625 158.17254638671875 465.65313720703125 156.2216796875 C 466.37042236328125 155.12461853027344 467.0975341796875 153.93621826171875 467.089111328125 152.63272094726562 C 467.06365966796875 150.89535522460938 465.7373046875 149.46484375 464.3780517578125 148.3833770751953 C 462.390625 146.79815673828125 460.15985107421875 145.54505920410156 457.7720947265625 144.6726837158203 C 456.946533203125 144.37286376953125 456.0623779296875 144.11444091796875 455.1986083984375 144.27212524414062 C 454.40301513671875 144.45982360839844 453.67919921875 144.87496948242188 453.1153564453125 145.46694946289062 C 451.33544921875 147.1961212158203 450.403564453125 149.61907958984375 450.56622314453125 152.0953369140625 L 452.16094970703125 151.94036865234375" stroke-width="0.6000000238418579" fill="rgb(70, 150, 179)" opacity="1.0"/>
    <path d="M 376.1749572753906 79.01693725585938 C 376.1708679199219 76.1268310546875 376.0450134277344 72.92352294921875 374.0357666015625 70.84864807128906 C 371.8760681152344 68.62106323242188 368.20849609375 68.561767578125 365.3494873046875 69.76681518554688 C 364.2469787597656 70.23094177246094 363.1769104003906 70.88995361328125 362.52813720703125 71.89483642578125 C 361.9945068359375 72.720703125 361.7869873046875 73.71051025390625 361.6431579589844 74.68296813964844 C 361.18597412109375 77.74908447265625 361.3235168457031 81.12821960449219 363.19012451171875 83.60244750976562 C 365.0730895996094 86.09478759765625 368.64202880859375 87.17135620117188 371.5856628417969 86.1180419921875 C 374.529296875 85.06472778320312 376.63177490234375 81.99209594726562 376.5218811035156 78.86553955078125 L 376.1749572753906 79.01693725585938" stroke-width="0.6000000238418579" fill="rgb(140, 28, 33)" opacity="1.0"/>
    <path d="M 130.53086853027344 412.4140625 C 128.039306640625 414.26611328125 125.46713256835938 416.220703125 123.97776794433594 418.9471435546875 C 122.48844909667969 421.67352294921875 122.40089416503906 425.4365234375 124.60906982421875 427.62103271484375 C 127.34085083007812 430.3115234375 132.3567657470703 429.19281005859375 134.6714324951172 426.1273193359375 C 136.98609924316406 423.0618896484375 137.12168884277344 418.84161376953125 136.33987426757812 415.085693359375 C 136.21434020996094 413.8988037109375 135.64846801757812 412.8021240234375 134.75387573242188 412.0120849609375 C 133.7964324951172 411.33233642578125 132.11338806152344 411.63275146484375 131.86734008789062 412.786865234375 L 130.53086853027344 412.4140625" stroke-width="0.6000000238418579" fill="rgb(159, 159, 159)" opacity="1.0"/>
    <path d="M 409.2434997558594 206.8028564453125 C 407.90472412109375 204.18603515625 405.64019775390625 201.970947265625 402.840087890625 201.081787109375 C 400.0400085449219 200.19268798828125 396.7187194824219 200.78729248046875 394.6512756347656 202.8919677734375 C 393.19146728515625 204.38189697265625 392.46014404296875 206.4888916015625 392.3808898925781 208.5750732421875 C 392.3016357421875 210.6612548828125 392.8268127441406 212.73248291015625 393.6054382324219 214.669921875 C 393.94476318359375 215.51287841796875 394.3617248535156 216.37249755859375 395.09771728515625 216.90142822265625 C 395.9412536621094 217.50820922851562 397.0472717285156 217.56976318359375 398.0894775390625 217.56002807617188 C 401.0318298339844 217.53253173828125 404.0820617675781 217.0531005859375 406.5095520019531 215.38943481445312 C 408.93707275390625 213.72576904296875 410.565673828125 210.64501953125 409.8390197753906 207.80078125 L 409.2434997558594 206.8028564453125" stroke-width="0.6000000238418579" fill="rgb(159, 159, 159)" opacity="1.0"/>
    <path d="M 387.1489562988281 120.71743774414062 C 384.6114196777344 121.92520141601562 381.8431396484375 123.37762451171875 380.87835693359375 126.01129150390625 C 379.9364929199219 128.57122802734375 381.0066833496094 131.39291381835938 382.1095886230469 133.88905334472656 C 382.5591125488281 134.90240478515625 383.0455322265625 135.9553680419922 383.9204406738281 136.63519287109375 C 385.39947509765625 137.78585815429688 387.521240234375 137.54212951660156 389.30072021484375 136.96343994140625 C 390.9525451660156 136.4269561767578 392.518798828125 135.65606689453125 393.9515075683594 134.6743621826172 C 396.2784423828125 133.08119201660156 398.3631896972656 130.5426483154297 398.01123046875 127.74566650390625 C 397.8234558105469 126.23538208007812 396.9294738769531 124.87641906738281 395.8043518066406 123.84809875488281 C 394.6792297363281 122.81979370117188 393.3232421875 122.081787109375 391.97418212890625 121.37228393554688 C 390.6251525878906 120.66281127929688 389.28436279296875 119.99456787109375 387.7992248535156 119.90365600585938 L 387.1489562988281 120.71743774414062" stroke-width="0.6000000238418579" fill="rgb(218, 166, 20)" opacity="1.0"/>
    <path d="M 401.7745056152344 81.67868041992188 C 398.57489013671875 78.305419921875 393.2464904785156 78.1646728515625 389.87322998046875 81.36430358886719 C 389.5843811035156 81.63827514648438 389.3153381347656 81.93241882324219 389.0680847167969 82.24447631835938 C 388.12890625 83.430419921875 387.5072937011719 84.94467163085938 387.6944580078125 86.44509887695312 C 387.8525085449219 87.71308898925781 388.559326171875 88.84288024902344 389.34967041015625 89.84585571289062 C 391.4689636230469 92.52763366699219 394.26763916015625 94.59304809570312 397.45501708984375 95.82754516601562 C 398.298095703125 96.15245056152344 399.19256591796875 96.420654296875 400.09423828125 96.33822631835938 C 401.6080322265625 96.20071411132812 402.8843078613281 95.08078002929688 403.66009521484375 93.77236938476562 C 404.813232421875 91.83062744140625 405.0674133300781 89.42706298828125 404.58099365234375 87.22122192382812 C 404.0945739746094 85.015380859375 402.9130859375 83.00057983398438 401.39654541015625 81.32679748535156 L 401.7745056152344 81.67868041992188" stroke-width="0.6000000238418579" fill="rgb(143, 165, 67)" opacity="1.0"/>
    <path d="M 116.98133850097656 424.1397705078125 C 114.08547973632812 419.07421875 105.27310180664062 419.6697998046875 102.70999145507812 424.8697509765625 C 100.14691162109375 430.06976318359375 104.61663818359375 437.18310546875 110.44096374511719 437.56268310546875 C 116.26528930664062 437.94219970703125 121.5107421875 432.08074951171875 120.91098022460938 426.26953125 L 116.98133850097656 424.1397705078125" stroke-width="0.6000000238418579" fill="rgb(233, 92, 21)" opacity="1.0"/>
    <path d="M 446.825927734375 196.87445068359375 C 445.4158935546875 199.3028564453125 443.9835205078125 202.34991455078125 445.4471435546875 204.75753784179688 C 446.06695556640625 205.6929931640625 446.96173095703125 206.41311645507812 448.00811767578125 206.8184814453125 C 450.57012939453125 207.89117431640625 453.4931640625 207.65548706054688 455.8502197265625 206.18621826171875 C 457.846435546875 204.93475341796875 459.1876220703125 202.917236328125 460.43841552734375 200.93759155273438 C 461.13916015625 199.82440185546875 461.84832763671875 198.61935424804688 461.8173828125 197.3115234375 C 461.7618408203125 195.568603515625 460.40625 194.15609741210938 459.0235595703125 193.0943603515625 C 457.0020751953125 191.53802490234375 454.741943359375 190.319091796875 452.3309326171875 189.48492431640625 C 451.497314453125 189.19833374023438 450.605712890625 188.95428466796875 449.74169921875 189.12744140625 C 448.946533203125 189.32949829101562 448.2274169921875 189.75857543945312 447.671875 190.3623046875 C 445.9156494140625 192.128173828125 445.0224609375 194.57553100585938 445.2283935546875 197.0574951171875 L 446.825927734375 196.87445068359375" stroke-width="0.6000000238418579" fill="rgb(70, 150, 179)" opacity="1.0"/>
    <path d="M 411.8167419433594 134.4432830810547 C 411.4103088378906 131.50636291503906 410.8364562988281 128.26806640625 408.5054931640625 126.43885803222656 C 406.00030517578125 124.47537231445312 402.2643737792969 124.92562866210938 399.5262145996094 126.54837036132812 C 398.4702453613281 127.17359924316406 397.4743347167969 127.99237060546875 396.954833984375 129.10401916503906 C 396.52740478515625 130.0177001953125 396.4542541503906 131.05262756347656 396.4434509277344 132.06105041503906 C 396.40557861328125 135.24105834960938 397.0157470703125 138.6564483642578 399.25732421875 140.91140747070312 C 401.5180969238281 143.18251037597656 405.2953796386719 143.7799530029297 408.1406555175781 142.29962158203125 C 410.9859313964844 140.8192901611328 412.6951904296875 137.4036407470703 412.1483154296875 134.24111938476562 L 411.8167419433594 134.4432830810547" stroke-width="0.6000000238418579" fill="rgb(140, 28, 33)" opacity="1.0"/>
    <path d="M 399.8167419433594 72.32475280761719 C 400.81610107421875 75.21578979492188 401.8878479003906 78.21304321289062 404.00653076171875 80.42245483398438 C 406.12518310546875 82.6318359375 409.63421630859375 83.83241271972656 412.3426513671875 82.40719604492188 C 415.6820068359375 80.64047241210938 416.12176513671875 75.59591674804688 413.929931640625 72.51043701171875 C 411.738037109375 69.42495727539062 407.81365966796875 68.0433349609375 404.05291748046875 67.66159057617188 C 402.9006042480469 67.42678833007812 401.7021789550781 67.6324462890625 400.694091796875 68.23806762695312 C 399.7710266113281 68.93551635742188 399.55303955078125 70.60589599609375 400.5640869140625 71.18002319335938 L 399.8167419433594 72.32475280761719" stroke-width="0.6000000238418579" fill="rgb(159, 159, 159)" opacity="1.0"/>
    <path d="M 441.9119873046875 235.418701171875 C 440.2447509765625 237.8388671875 439.370361328125 240.88296508789062 439.9169921875 243.76898193359375 C 440.463623046875 246.655029296875 442.563232421875 249.29547119140625 445.3966064453125 250.11578369140625 C 447.400634765625 250.69320678710938 449.601806640625 250.336669921875 451.4752197265625 249.41619873046875 C 453.3486328125 248.49575805664062 454.9219970703125 247.050537109375 456.25732421875 245.44577026367188 C 456.8380126953125 244.7470703125 457.3966064453125 243.97213745117188 457.5126953125 243.07342529296875 C 457.64630126953125 242.04315185546875 457.17547607421875 241.04067993164062 456.6722412109375 240.128173828125 C 455.25146484375 237.552001953125 453.3818359375 235.095458984375 450.765625 233.74893188476562 C 448.14947509765625 232.40243530273438 444.6654052734375 232.43157958984375 442.50750732421875 234.42098999023438 L 441.9119873046875 235.418701171875" stroke-width="0.6000000238418579" fill="rgb(159, 159, 159)" opacity="1.0"/>
    <path d="M 408.1929931640625 261.34423828125 C 406.6507568359375 258.9935302734375 404.83465576171875 256.4474182128906 402.0931396484375 255.8494873046875 C 399.4278259277344 255.26422119140625 396.7767639160156 256.708740234375 394.4528503417969 258.14141845703125 C 393.5096435546875 258.72479248046875 392.5321960449219 259.3501281738281 391.9774169921875 260.3097229003906 C 391.0381774902344 261.9321594238281 391.5683898925781 264.001953125 392.3840026855469 265.6868896484375 C 393.1404113769531 267.2510681152344 394.1175231933594 268.69854736328125 395.285400390625 269.9849853515625 C 397.18096923828125 272.07452392578125 399.9805603027344 273.79541015625 402.704833984375 273.0661315917969 C 404.1761474609375 272.6745300292969 405.40142822265625 271.6036376953125 406.2675476074219 270.3486328125 C 407.1336975097656 269.0936279296875 407.6806640625 267.6492919921875 408.2003479003906 266.2156982421875 C 408.72003173828125 264.7821044921875 409.199951171875 263.3623352050781 409.0880126953125 261.8780212402344 L 408.1929931640625 261.34423828125" stroke-width="0.6000000238418579" fill="rgb(218, 166, 20)" opacity="1.0"/>
    <path d="M 416.17584228515625 86.85243225097656 C 414.260009765625 91.15789794921875 416.197265625 96.20123291015625 420.502685546875 98.11703491210938 C 420.87139892578125 98.28106689453125 421.251220703125 98.41876220703125 421.639404296875 98.529052734375 C 423.11444091796875 98.9478759765625 424.7735595703125 98.94189453125 426.1055908203125 98.18405151367188 C 427.23138427734375 97.54371643066406 428.01470947265625 96.44326782226562 428.6468505859375 95.3138427734375 C 430.334716796875 92.28836059570312 431.1817626953125 88.8660888671875 431.09991455078125 85.402587890625 C 431.07672119140625 84.48710632324219 430.98046875 83.54551696777344 430.55322265625 82.73333740234375 C 429.836669921875 81.36941528320312 428.2926025390625 80.60940551757812 426.766357421875 80.39111328125 C 424.5006103515625 80.06546020507812 422.151611328125 80.76078796386719 420.2752685546875 82.07272338867188 C 418.39892578125 83.3846435546875 416.97137451171875 85.27316284179688 415.9931640625 87.34294128417969 L 416.17584228515625 86.85243225097656" stroke-width="0.6000000238418579" fill="rgb(143, 165, 67)" opacity="1.0"/>
    <path d="M 442.2681884765625 129.24649047851562 C 439.66851806640625 134.34364318847656 444.8917236328125 141.25279235839844 450.5345458984375 140.56161499023438 C 456.1773681640625 139.87042236328125 459.61126708984375 132.3819580078125 456.79339599609375 127.400146484375 C 453.9754638671875 122.41830444335938 446.3489990234375 121.26443481445312 441.904052734375 124.87863159179688 L 442.2681884765625 129.24649047851562" stroke-width="0.6000000238418579" fill="rgb(233, 92, 21)" opacity="1.0"/>
    <path d="M 446.536376953125 95.13285827636719 C 445.6514892578125 97.76547241210938 444.86737060546875 101.00196838378906 446.762939453125 103.04484558105469 C 447.5489501953125 103.82846069335938 448.5587158203125 104.34889221191406 449.6529541015625 104.5343017578125 C 452.34820556640625 105.06588745117188 455.1339111328125 104.25814819335938 457.12664794921875 102.36721801757812 C 458.81298828125 100.75886535644531 459.712646484375 98.53805541992188 460.5322265625 96.37185668945312 C 460.99072265625 95.15426635742188 461.43896484375 93.84600830078125 461.1497802734375 92.58485412597656 C 460.75048828125 90.906982421875 459.1568603515625 89.80694580078125 457.606689453125 89.05220031738281 C 455.33935546875 87.94477844238281 452.90765380859375 87.21163940429688 450.406005859375 86.88125610351562 C 449.54144287109375 86.76875305175781 448.629150390625 86.708984375 447.826171875 87.04801940917969 C 447.0958251953125 87.40142822265625 446.4840087890625 87.95976257324219 446.06536865234375 88.65489196777344 C 444.713623046875 90.714111328125 444.3331298828125 93.26266479492188 445.024658203125 95.62686157226562 L 446.536376953125 95.13285827636719" stroke-width="0.6000000238418579" fill="rgb(70, 150, 179)" opacity="1.0"/>
    <path d="M 320.90411376953125 377.2434997558594 C 318.20892333984375 377.8028259277344 315.2450256347656 378.5359802246094 313.69573974609375 380.8090515136719 C 312.0329284667969 383.2518310546875 312.6825866699219 386.6844177246094 314.3562316894531 389.1197509765625 C 315.0010986328125 390.0589599609375 315.821533203125 390.93048095703125 316.88360595703125 391.3424987792969 C 317.7565612792969 391.6815490722656 318.7197570800781 391.68487548828125 319.654541015625 391.6321105957031 C 322.6025390625 391.46923828125 325.7282409667969 390.69140625 327.6774597167969 388.474609375 C 329.6404113769531 386.23907470703125 329.95867919921875 382.7029724121094 328.4103088378906 380.1595458984375 C 326.8619384765625 377.6161193847656 323.59161376953125 376.2454833984375 320.6961975097656 376.948974609375 L 320.90411376953125 377.2434997558594" stroke-width="0.6000000238418579" fill="rgb(140, 28, 33)" opacity="1.0"/>
    <path d="M 306.4542236328125 397.2590637207031 C 303.27337646484375 398.3900146484375 299.9759521484375 399.6019287109375 297.5582275390625 401.9615783691406 C 295.1405029296875 404.3211975097656 293.849609375 408.2054443359375 295.44879150390625 411.1806640625 C 297.4309997558594 414.848876953125 303.0024719238281 415.28515625 306.3863525390625 412.83624267578125 C 309.7702331542969 410.3873291015625 311.2568664550781 406.0429382324219 311.64166259765625 401.88885498046875 C 311.8896179199219 400.6148681640625 311.6510009765625 399.29425048828125 310.97283935546875 398.1876525878906 C 310.1941833496094 397.1756896972656 308.3486022949219 396.95135498046875 307.7248229980469 398.0727233886719 L 306.4542236328125 397.2590637207031" stroke-width="0.6000000238418579" fill="rgb(159, 159, 159)" opacity="1.0"/>
    <path d="M 323.24151611328125 412.13232421875 C 320.3424377441406 413.3963623046875 317.8133239746094 415.68121337890625 316.6726379394531 418.6292724609375 C 315.531982421875 421.5772705078125 315.9500732421875 425.18353271484375 318.0731201171875 427.54345703125 C 319.5762634277344 429.21002197265625 321.7904357910156 430.13525390625 324.0255432128906 430.3587646484375 C 326.26068115234375 430.5823974609375 328.5198059082031 430.1558837890625 330.6521301269531 429.4482421875 C 331.57989501953125 429.1397705078125 332.5307312011719 428.74908447265625 333.1475830078125 427.9937744140625 C 333.855224609375 427.128173828125 333.99468994140625 425.944580078125 334.0534362792969 424.82464599609375 C 334.2192077636719 421.6629638671875 333.9067687988281 418.35546875 332.2812805175781 415.63818359375 C 330.65576171875 412.92083740234375 327.45538330078125 410.9673767089844 324.35272216796875 411.5589904785156 L 323.24151611328125 412.13232421875" stroke-width="0.6000000238418579" fill="rgb(159, 159, 159)" opacity="1.0"/>
    <path d="M 273.6571044921875 415.0601806640625 C 271.4778747558594 417.17401123046875 269.14715576171875 419.6180419921875 269.0707702636719 422.64715576171875 C 268.99237060546875 425.5928955078125 271.063720703125 428.1104736328125 273.055908203125 430.28363037109375 C 273.8664855957031 431.16522216796875 274.7285461425781 432.0745849609375 275.8591003417969 432.46771240234375 C 277.7708435058594 433.13372802734375 279.8580322265625 432.15032958984375 281.47900390625 430.9425048828125 C 282.9840087890625 429.82208251953125 284.3202819824219 428.4913330078125 285.4469909667969 426.99102783203125 C 287.27734375 424.55560302734375 288.5328063964844 421.2364501953125 287.2051086425781 418.49566650390625 C 286.490478515625 417.01495361328125 285.10546875 415.933349609375 283.5982666015625 415.2701416015625 C 282.091064453125 414.60693359375 280.4480285644531 414.3206787109375 278.8219299316406 414.06121826171875 C 277.19586181640625 413.8017578125 275.5924987792969 413.5816650390625 274.0411071777344 414.00238037109375 L 273.6571044921875 415.0601806640625" stroke-width="0.6000000238418579" fill="rgb(218, 166, 20)" opacity="1.0"/>
    <path d="M 222.914794921875 413.6773681640625 C 217.908935546875 412.04266357421875 212.52569580078125 414.7755126953125 210.89096069335938 419.7813720703125 C 210.7509765625 420.21002197265625 210.6416015625 420.6480712890625 210.5635986328125 421.0921630859375 C 210.267578125 422.7799072265625 210.46487426757812 424.623291015625 211.4603271484375 426.01690673828125 C 212.30145263671875 427.1947021484375 213.61468505859375 427.93890380859375 214.94268798828125 428.51171875 C 218.4996337890625 430.040283203125 222.40093994140625 430.5885009765625 226.24139404296875 430.0994873046875 C 227.25631713867188 429.968505859375 228.2918701171875 429.75335693359375 229.14553833007812 429.18505859375 C 230.57925415039062 428.23187255859375 231.24658203125 426.42822265625 231.3138427734375 424.70660400390625 C 231.41546630859375 422.1507568359375 230.37261962890625 419.61962890625 228.69873046875 417.684814453125 C 227.02484130859375 415.7498779296875 224.76165771484375 414.380126953125 222.34857177734375 413.5306396484375 L 222.914794921875 413.6773681640625" stroke-width="0.6000000238418579" fill="rgb(143, 165, 67)" opacity="1.0"/>
    <path d="M 285.5655212402344 366.14111328125 C 286.59063720703125 372.4654235839844 295.8807373046875 375.2493591308594 300.5201110839844 370.8907775878906 C 305.1594543457031 366.5321350097656 303.30535888671875 357.4958190917969 297.4632568359375 354.86090087890625 C 291.62115478515625 352.2259826660156 283.9690246582031 356.23089599609375 282.34600830078125 362.4369201660156 L 285.5655212402344 366.14111328125" stroke-width="0.6000000238418579" fill="rgb(233, 92, 21)" opacity="1.0"/>
    <path d="M 332.0385437011719 361.62506103515625 C 332.13824462890625 364.6366882324219 332.5697021484375 368.22381591796875 335.27166748046875 369.58074951171875 C 336.3679504394531 370.07891845703125 337.591796875 370.224609375 338.7743835449219 369.99774169921875 C 341.71551513671875 369.5151062011719 344.24029541015625 367.6368713378906 345.5480651855469 364.9586181640625 C 346.6515808105469 362.68389892578125 346.7231750488281 360.0852355957031 346.7340393066406 357.57244873046875 C 346.73785400390625 356.1609191894531 346.69696044921875 354.66107177734375 345.9243469238281 353.489013671875 C 344.8817138671875 351.9351806640625 342.8445129394531 351.42193603515625 340.9824523925781 351.2431945800781 C 338.25762939453125 350.9781494140625 335.5078430175781 351.1559143066406 332.8398132324219 351.76953125 C 331.9183654785156 351.98333740234375 330.9684143066406 352.26885986328125 330.281005859375 352.9181823730469 C 329.6727600097656 353.55462646484375 329.2628173828125 354.35430908203125 329.1011657714844 355.2196960449219 C 328.5087585449219 357.8257141113281 329.0893859863281 360.5604248046875 330.6895446777344 362.700927734375 L 332.0385437011719 361.62506103515625" stroke-width="0.6000000238418579" fill="rgb(70, 150, 179)" opacity="1.0"/>
    <path d="M 295.08404541015625 415.50762939453125 C 291.8865966796875 415.6904296875 288.3501281738281 416.02734375 286.17840576171875 418.37841796875 C 283.84698486328125 420.9053955078125 284.0076599121094 424.96697998046875 285.517333984375 428.055908203125 C 286.0989074707031 429.2471923828125 286.8940734863281 430.3905029296875 288.0459289550781 431.0462646484375 C 288.99261474609375 431.585693359375 290.1005859375 431.7542724609375 291.1853942871094 431.8533935546875 C 294.60601806640625 432.1700439453125 298.3363342285156 431.8094482421875 300.9587097167969 429.59149169921875 C 303.6001281738281 427.3543701171875 304.57110595703125 423.33917236328125 303.22406005859375 420.147216796875 C 301.8770446777344 416.955322265625 298.3476867675781 414.818603515625 294.8951416015625 415.13311767578125 L 295.08404541015625 415.50762939453125" stroke-width="0.6000000238418579" fill="rgb(140, 28, 33)" opacity="1.0"/>
    <path d="M 334.86968994140625 388.6153259277344 C 331.51580810546875 389.0133056640625 328.0303039550781 389.4643859863281 325.1484375 391.230224609375 C 322.2666320800781 392.99603271484375 320.14599609375 396.49908447265625 321.04632568359375 399.75616455078125 C 322.16668701171875 403.7742004394531 327.50518798828125 405.435302734375 331.3493347167969 403.7966003417969 C 335.1935119628906 402.15789794921875 337.6071472167969 398.2493896484375 338.9036560058594 394.2821960449219 C 339.42803955078125 393.0943298339844 339.48809814453125 391.75311279296875 339.0719299316406 390.5231628417969 C 338.53668212890625 389.36328125 336.7860107421875 388.7351989746094 335.9288024902344 389.69085693359375 L 334.86968994140625 388.6153259277344" stroke-width="0.6000000238418579" fill="rgb(159, 159, 159)" opacity="1.0"/>
    <path d="M 345.3833312988281 410.1795349121094 C 342.2249450683594 410.15081787109375 338.9879150390625 411.20361328125 336.7466735839844 413.42681884765625 C 334.5054016113281 415.6500244140625 333.4172058105469 419.1085205078125 334.39141845703125 422.12530517578125 C 335.0828857421875 424.25732421875 336.7247619628906 426.00311279296875 338.671630859375 427.11767578125 C 340.61846923828125 428.2322998046875 342.85211181640625 428.763916015625 345.08465576171875 428.987548828125 C 346.0562744140625 429.0843505859375 347.0824279785156 429.115478515625 347.95263671875 428.67822265625 C 348.95050048828125 428.17724609375 349.55999755859375 427.15484619140625 350.0698547363281 426.15771484375 C 351.5092468261719 423.342529296875 352.5720520019531 420.199462890625 352.1971435546875 417.05950927734375 C 351.822265625 413.9195556640625 349.70013427734375 410.8343811035156 346.630126953125 410.1095886230469 L 345.3833312988281 410.1795349121094" stroke-width="0.6000000238418579" fill="rgb(159, 159, 159)" opacity="1.0"/>
    <path d="M 255.715087890625 369.2317810058594 C 256.1004638671875 366.2051696777344 256.3977355957031 362.8242492675781 254.557861328125 360.3978271484375 C 252.77191162109375 358.0356140136719 249.56640625 357.35784912109375 246.63916015625 356.90093994140625 C 245.44973754882812 356.7170715332031 244.20248413085938 356.543701171875 243.06817626953125 356.944091796875 C 241.14935302734375 357.6201477050781 240.12722778320312 359.7013854980469 239.61190795898438 361.6664123535156 C 239.13290405273438 363.4901123046875 238.91824340820312 365.3731689453125 238.97451782226562 367.2579040527344 C 239.06475830078125 370.3182067871094 240.16064453125 373.7119140625 242.92221069335938 375.03131103515625 C 244.41201782226562 375.74578857421875 246.17791748046875 375.72637939453125 247.77734375 375.3018798828125 C 249.37680053710938 374.8773498535156 250.84649658203125 374.07159423828125 252.28607177734375 373.2554626464844 C 253.72561645507812 372.4393615722656 255.12265014648438 371.6065673828125 256.07696533203125 370.30322265625 L 255.715087890625 369.2317810058594" stroke-width="0.6000000238418579" fill="rgb(218, 166, 20)" opacity="1.0"/>
    <path d="M 253.08551025390625 391.3165588378906 C 250.44549560546875 386.8765563964844 244.70599365234375 385.4173583984375 240.2659912109375 388.057373046875 C 239.88580322265625 388.283447265625 239.5220947265625 388.53619384765625 239.17767333984375 388.813720703125 C 237.86911010742188 389.8685302734375 236.82415771484375 391.35699462890625 236.6590576171875 393.02880859375 C 236.51934814453125 394.44158935546875 237.00823974609375 395.8392028808594 237.61874389648438 397.119873046875 C 239.25762939453125 400.5456237792969 241.78387451171875 403.4700927734375 244.93508911132812 405.5894775390625 C 245.76898193359375 406.1482849121094 246.6724853515625 406.65826416015625 247.6697998046875 406.7900695800781 C 249.34393310546875 407.0122985839844 251.00155639648438 406.1116638183594 252.1630859375 404.8840637207031 C 253.88885498046875 403.0627136230469 254.75369262695312 400.52044677734375 254.76751708984375 398.0108642578125 C 254.78134155273438 395.5012512207031 253.9951171875 393.0282287597656 252.76220703125 390.8425598144531 L 253.08551025390625 391.3165588378906" stroke-width="0.6000000238418579" fill="rgb(143, 165, 67)" opacity="1.0"/>
    <path d="M 203.33160400390625 371.1824645996094 C 201.673828125 377.4280090332031 209.08343505859375 383.8134460449219 215.14874267578125 381.7083740234375 C 221.2139892578125 379.6032409667969 223.22406005859375 370.519287109375 218.92828369140625 365.6895446777344 C 214.63250732421875 360.85980224609375 205.93838500976562 361.3997802734375 201.8907470703125 366.44696044921875 L 203.33160400390625 371.1824645996094" stroke-width="0.6000000238418579" fill="rgb(233, 92, 21)" opacity="1.0"/>
    <path d="M 269.3125 368.9406433105469 C 269.0269775390625 371.9542236328125 268.9984436035156 375.5836181640625 271.5173034667969 377.2809753417969 C 272.5459899902344 377.9174499511719 273.746826171875 378.2190246582031 274.95416259765625 378.1440734863281 C 277.9464416503906 378.0390625 280.7021789550781 376.4902038574219 282.3475341796875 373.98870849609375 C 283.73779296875 371.8631591796875 284.1412048339844 369.2829895019531 284.4731750488281 366.7806091308594 C 284.6573791503906 365.3746337890625 284.80828857421875 363.87493896484375 284.188232421875 362.6083679199219 C 283.3479309082031 360.9268798828125 281.38360595703125 360.1551208496094 279.5510559082031 359.739013671875 C 276.8699035644531 359.126708984375 274.1072692871094 358.9524230957031 271.3703918457031 359.222900390625 C 270.4249572753906 359.31817626953125 269.44189453125 359.48126220703125 268.6739807128906 360.0404052734375 C 267.986572265625 360.5968322753906 267.47589111328125 361.34124755859375 267.2042541503906 362.1828918457031 C 266.28094482421875 364.7038269042969 266.5099792480469 367.5029296875 267.8308410644531 369.8402404785156 L 269.3125 368.9406433105469" stroke-width="0.6000000238418579" fill="rgb(70, 150, 179)" opacity="1.0"/>
    <path d="M 328.28729248046875 365.00103759765625 C 328.9453430175781 361.83856201171875 329.5419921875 358.3055725097656 327.8197021484375 355.57525634765625 C 325.9678649902344 352.64337158203125 321.9694519042969 351.7377624511719 318.565673828125 352.40057373046875 C 317.25323486328125 352.6555480957031 315.93157958984375 353.13116455078125 314.9915466308594 354.0816650390625 C 314.2184753417969 354.8627624511719 313.7645568847656 355.89794921875 313.3843078613281 356.92877197265625 C 312.1813049316406 360.17803955078125 311.55712890625 363.9060363769531 313.0318298339844 367.04052734375 C 314.5202941894531 370.1985778808594 318.1775817871094 372.19439697265625 321.6391296386719 371.71697998046875 C 325.1006774902344 371.2395324707031 328.10498046875 368.3603210449219 328.7015075683594 364.9149475097656 L 328.28729248046875 365.00103759765625" stroke-width="0.6000000238418579" fill="rgb(140, 28, 33)" opacity="1.0"/>
    <path d="M 352.10504150390625 393.4854431152344 C 348.7576904296875 393.9862060546875 345.2801208496094 394.5441589355469 342.44720458984375 396.4006652832031 C 339.6143493652344 398.2571716308594 337.5968322753906 401.8305969238281 338.59783935546875 405.0657043457031 C 339.8424072265625 409.0563049316406 345.2403564453125 410.5576477050781 349.0410461425781 408.7991943359375 C 352.84173583984375 407.04071044921875 355.140380859375 403.0522155761719 356.3182678222656 399.0389404296875 C 356.807373046875 397.8331298828125 356.82666015625 396.48785400390625 356.37237548828125 395.2685241699219 C 355.8009033203125 394.1230163574219 354.0281982421875 393.54718017578125 353.19866943359375 394.530517578125 L 352.10504150390625 393.4854431152344" stroke-width="0.6000000238418579" fill="rgb(159, 159, 159)" opacity="1.0"/>
    <path d="M 187.63742065429688 407.91693115234375 C 184.48526000976562 408.51910400390625 181.47076416015625 410.21441650390625 179.6820068359375 412.8768310546875 C 177.89324951171875 415.5391845703125 177.4998779296875 419.201904296875 179.0728759765625 422.0126953125 C 180.18756103515625 423.99859619140625 182.171875 425.40985107421875 184.33392333984375 426.13134765625 C 186.49603271484375 426.8529052734375 188.827392578125 426.9364013671875 191.09613037109375 426.71337890625 C 192.08340454101562 426.61572265625 193.11190795898438 426.44189453125 193.8914794921875 425.8323974609375 C 194.7855224609375 425.13409423828125 195.18853759765625 423.99383544921875 195.497314453125 422.89862060546875 C 196.3690185546875 419.80657958984375 196.800048828125 416.46319580078125 195.79949951171875 413.4100341796875 C 194.79888916015625 410.3568115234375 192.06866455078125 407.7071533203125 188.86550903320312 407.5982360839844 L 187.63742065429688 407.91693115234375" stroke-width="0.6000000238418579" fill="rgb(159, 159, 159)" opacity="1.0"/>
    <path d="M 356.92242431640625 374.6723327636719 C 354.0013122558594 375.28533935546875 350.7809143066406 376.0932922363281 349.1272277832031 378.571044921875 C 347.515625 380.9783935546875 347.9156799316406 384.1584777832031 348.4307556152344 387.0106506347656 C 348.6417236328125 388.16900634765625 348.880859375 389.37744140625 349.6142272949219 390.2977294921875 C 350.8536376953125 391.85491943359375 353.10479736328125 392.1332092285156 355.08624267578125 391.9802551269531 C 356.9254150390625 391.8390197753906 358.7347412109375 391.43438720703125 360.45892333984375 390.77880859375 C 363.25885009765625 389.7153625488281 366.0448913574219 387.6155090332031 366.380126953125 384.64031982421875 C 366.5634765625 383.0343933105469 365.9800109863281 381.40826416015625 365.0754089355469 380.06573486328125 C 364.1707763671875 378.7232360839844 362.955322265625 377.62274169921875 361.7398986816406 376.5534362792969 C 360.5245056152344 375.4841003417969 359.30731201171875 374.4594421386719 357.79693603515625 373.99468994140625 L 356.92242431640625 374.6723327636719" stroke-width="0.6000000238418579" fill="rgb(218, 166, 20)" opacity="1.0"/>
    <path d="M 373.9597473144531 385.8452453613281 C 370.1873779296875 389.33758544921875 369.9603576660156 395.226806640625 373.45269775390625 398.9991760253906 C 373.7517395019531 399.32220458984375 374.0733337402344 399.6236267089844 374.4150390625 399.9011535644531 C 375.713623046875 400.9554138183594 377.37945556640625 401.6629638671875 379.0408630371094 401.47613525390625 C 380.44488525390625 401.3183898925781 381.7034606933594 400.55206298828125 382.82293701171875 399.6916809082031 C 385.81634521484375 397.384521484375 388.13739013671875 394.31793212890625 389.54498291015625 390.81048583984375 C 389.91546630859375 389.88275146484375 390.2239990234375 388.89739990234375 390.1449279785156 387.8994140625 C 390.0132141113281 386.223876953125 388.7920837402344 384.7978210449219 387.35589599609375 383.9225769042969 C 385.22454833984375 382.6216125488281 382.570556640625 382.30841064453125 380.1252136230469 382.816650390625 C 377.6799011230469 383.3248596191406 375.4364929199219 384.6041564941406 373.5656433105469 386.2584228515625 L 373.9597473144531 385.8452453613281" stroke-width="0.6000000238418579" fill="rgb(143, 165, 67)" opacity="1.0"/>
    <path d="M 366.4342041015625 362.9291687011719 C 368.394775390625 369.012451171875 377.9749450683594 370.3631591796875 381.89599609375 365.3680114746094 C 385.8169860839844 360.372802734375 382.6316223144531 351.73931884765625 376.474365234375 350.01788330078125 C 370.3171081542969 348.29644775390625 363.3717041015625 353.3951416015625 362.702880859375 359.7593994140625 L 366.4342041015625 362.9291687011719" stroke-width="0.6000000238418579" fill="rgb(233, 92, 21)" opacity="1.0"/>
    <path d="M 397.9709777832031 365.0838928222656 C 397.7491455078125 368.14556884765625 397.8016662597656 371.82586669921875 400.39349365234375 373.49017333984375 C 401.45068359375 374.11236572265625 402.6749267578125 374.39117431640625 403.8973083496094 374.2881164550781 C 406.9286193847656 374.1144714355469 409.687744140625 372.4823303222656 411.2997131347656 369.9092712402344 C 412.6614990234375 367.7231140136719 413.01263427734375 365.09814453125 413.29302978515625 362.5536804199219 C 413.4482421875 361.1241149902344 413.56756591796875 359.6003112792969 412.9105224609375 358.330078125 C 412.02081298828125 356.6441650390625 410.0119934082031 355.90582275390625 408.1447448730469 355.5251159667969 C 405.4127197265625 354.9645080566406 402.6079406738281 354.84979248046875 399.8392639160156 355.1854553222656 C 398.8828430175781 355.3032531738281 397.8898620605469 355.4906921386719 397.1238708496094 356.0747985839844 C 396.4394226074219 356.6543273925781 395.9383850097656 357.4205322265625 395.681884765625 358.2799072265625 C 394.8023681640625 360.8564758300781 395.0973815917969 363.6891784667969 396.4889831542969 366.0292053222656 L 397.9709777832031 365.0838928222656" stroke-width="0.6000000238418579" fill="rgb(70, 150, 179)" opacity="1.0"/>
    <path d="M 389.0941467285156 413.3963623046875 C 387.7239685058594 416.30987548828125 386.3275451660156 419.5968017578125 387.3650817871094 422.64251708984375 C 388.4815673828125 425.91363525390625 392.148193359375 427.71734619140625 395.6014709472656 427.8629150390625 C 396.9328918457031 427.9195556640625 398.32427978515625 427.7645263671875 399.4556884765625 427.0606689453125 C 400.385986328125 426.482421875 401.0657653808594 425.5838623046875 401.67303466796875 424.672607421875 C 403.59161376953125 421.8011474609375 405.05987548828125 418.3314208984375 404.35595703125 414.9512939453125 C 403.6441345214844 411.5450134277344 400.5606384277344 408.7633361816406 397.09423828125 408.42474365234375 C 393.62786865234375 408.08612060546875 390.0486755371094 410.18182373046875 388.6726379394531 413.3839111328125 L 389.0941467285156 413.3963623046875" stroke-width="0.6000000238418579" fill="rgb(140, 28, 33)" opacity="1.0"/>
    <path d="M 405.8919677734375 394.72442626953125 C 404.358154296875 397.7207336425781 402.7951354980469 400.8554382324219 402.6553955078125 404.2210388183594 C 402.515625 407.5865783691406 404.2362365722656 411.287353515625 407.4314880371094 412.3516845703125 C 411.378662109375 413.65673828125 415.71875 410.162109375 416.498291015625 406.07086181640625 C 417.27783203125 401.9796142578125 415.384521484375 397.8111572265625 412.822021484375 394.53448486328125 C 412.13043212890625 393.4407043457031 411.0539855957031 392.64593505859375 409.8050537109375 392.30706787109375 C 408.5479736328125 392.1056213378906 407.0556945800781 393.2053527832031 407.3702697753906 394.4455261230469 L 405.8919677734375 394.72442626953125" stroke-width="0.6000000238418579" fill="rgb(159, 159, 159)" opacity="1.0"/>
    <path d="M 432.68865966796875 369.1440124511719 C 433.071533203125 372.31048583984375 434.54766845703125 375.4147644042969 437.0660400390625 377.369384765625 C 439.58441162109375 379.323974609375 443.189453125 379.9629211425781 446.08349609375 378.5942077636719 C 448.1282958984375 377.6239013671875 449.66253662109375 375.75225830078125 450.52490234375 373.6574401855469 C 451.3873291015625 371.5626525878906 451.6285400390625 369.25665283203125 451.5615234375 366.9918518066406 C 451.5318603515625 366.0063171386719 451.4293212890625 364.97467041015625 450.87799072265625 364.1602783203125 C 450.246337890625 363.2262878417969 449.14306640625 362.74920654296875 448.07806396484375 362.36859130859375 C 445.0714111328125 361.29412841796875 441.7855224609375 360.6394958496094 438.6900634765625 361.42413330078125 C 435.5946044921875 362.2087707519531 432.78179931640625 364.7359313964844 432.45611572265625 367.9046325683594 L 432.68865966796875 369.1440124511719" stroke-width="0.6000000238418579" fill="rgb(159, 159, 159)" opacity="1.0"/>
    <path d="M 421.348876953125 408.0261535644531 C 418.4976806640625 409.1790771484375 415.37835693359375 410.5841064453125 414.15167236328125 413.3978271484375 C 412.954833984375 416.132568359375 413.9388427734375 419.28515625 414.97998046875 422.084228515625 C 415.404541015625 423.220703125 415.8668212890625 424.40289306640625 416.7779541015625 425.202880859375 C 418.3182373046875 426.556884765625 420.65203857421875 426.4298095703125 422.63385009765625 425.9144287109375 C 424.4735107421875 425.43670654296875 426.23504638671875 424.697265625 427.864501953125 423.7188720703125 C 430.510986328125 422.131103515625 432.954833984375 419.4947509765625 432.75384521484375 416.416259765625 C 432.64776611328125 414.754150390625 431.76031494140625 413.2109375 430.59869384765625 412.0137939453125 C 429.43707275390625 410.8166809082031 428.004150390625 409.9215393066406 426.5770263671875 409.0580139160156 C 425.14990234375 408.1944885253906 423.72900390625 407.3765563964844 422.1126708984375 407.1798400878906 L 421.348876953125 408.0261535644531" stroke-width="0.6000000238418579" fill="rgb(218, 166, 20)" opacity="1.0"/>
    <path d="M 143.02789306640625 228.139892578125 C 139.7129669189453 232.1422119140625 140.2702178955078 238.07400512695312 144.27252197265625 241.388916015625 C 144.615234375 241.67279052734375 144.9776611328125 241.93194580078125 145.3570556640625 242.16455078125 C 146.79885864257812 243.0479736328125 148.5624542236328 243.5350341796875 150.2024383544922 243.12646484375 C 151.58836364746094 242.78128051757812 152.74746704101562 241.84564208984375 153.75465393066406 240.83428955078125 C 156.4468994140625 238.12344360351562 158.36416625976562 234.74118041992188 159.30731201171875 231.038818359375 C 159.55499267578125 230.05978393554688 159.73284912109375 229.03125 159.5206298828125 228.04168701171875 C 159.16537475585938 226.38021850585938 157.751708984375 225.1138916015625 156.19586181640625 224.42819213867188 C 153.88670349121094 223.40850830078125 151.1854248046875 223.44830322265625 148.80270385742188 224.283447265625 C 146.4199981689453 225.11856079101562 144.3423614501953 226.69943237304688 142.68800354003906 228.6064453125 L 143.02789306640625 228.139892578125" stroke-width="0.6000000238418579" fill="rgb(143, 165, 67)" opacity="1.0"/>
    <path d="M 168.68801879882812 263.134033203125 C 170.07015991210938 269.4026794433594 179.52044677734375 271.66363525390625 183.91555786132812 267.0419006347656 C 188.3106689453125 262.420166015625 185.94631958007812 253.48532104492188 179.95361328125 251.17898559570312 C 173.9609375 248.87265014648438 166.53207397460938 253.31048583984375 165.25851440429688 259.61016845703125 L 168.68801879882812 263.134033203125" stroke-width="0.6000000238418579" fill="rgb(233, 92, 21)" opacity="1.0"/>
    <path d="M 154.9549102783203 312.8265686035156 C 153.61550903320312 315.5472717285156 152.29774475097656 318.93609619140625 154.05291748046875 321.4217224121094 C 154.78988647460938 322.38372802734375 155.80722045898438 323.09332275390625 156.96456909179688 323.45263671875 C 159.80426025390625 324.4186706542969 162.93600463867188 323.9484558105469 165.36672973632812 322.1910095214844 C 167.42486572265625 320.6949768066406 168.72048950195312 318.42205810546875 169.9215087890625 316.1966247558594 C 170.59417724609375 314.9454345703125 171.26898193359375 313.5946350097656 171.13885498046875 312.1878967285156 C 170.95001220703125 310.3142395019531 169.38494873046875 308.8927307128906 167.81674194335938 307.8511657714844 C 165.5235595703125 306.323974609375 162.99835205078125 305.17803955078125 160.3389892578125 304.457763671875 C 159.419677734375 304.2106628417969 158.44097900390625 304.01373291015625 157.52294921875 304.2641906738281 C 156.68121337890625 304.540771484375 155.93817138671875 305.0562744140625 155.38438415527344 305.74786376953125 C 153.6229248046875 307.78033447265625 152.8417205810547 310.4831848144531 153.24729919433594 313.1419982910156 L 154.9549102783203 312.8265686035156" stroke-width="0.6000000238418579" fill="rgb(70, 150, 179)" opacity="1.0"/>
    <path d="M 124.69244384765625 300.07379150390625 C 123.72056579589844 296.9898681640625 122.51383972167969 293.6124267578125 119.67433166503906 292.070068359375 C 116.62307739257812 290.4150390625 112.68800354003906 291.57952880859375 110.03933715820312 293.8230285644531 C 109.01774597167969 294.6875915527344 108.09602355957031 295.7493591308594 107.7398681640625 297.0392761230469 C 107.44668579101562 298.09954833984375 107.55647277832031 299.2256774902344 107.72850036621094 300.3119201660156 C 108.26687622070312 303.7381286621094 109.54493713378906 307.2994079589844 112.36585998535156 309.3158264160156 C 115.2103271484375 311.34613037109375 119.38066101074219 311.3006286621094 122.17047119140625 309.1907653808594 C 124.96026611328125 307.08087158203125 126.17611694335938 303.096923828125 125.01211547851562 299.7960510253906 L 124.69244384765625 300.07379150390625" stroke-width="0.6000000238418579" fill="rgb(140, 28, 33)" opacity="1.0"/>
    <path d="M 139.95211791992188 275.204345703125 C 136.9169158935547 276.6605224609375 133.77467346191406 278.209228515625 131.62545776367188 280.8034973144531 C 129.47630310058594 283.3977355957031 128.6049346923828 287.3852844238281 130.50376892089844 290.16729736328125 C 132.85533142089844 293.5961608886719 138.426025390625 293.442626953125 141.52386474609375 290.65814208984375 C 144.6217041015625 287.8736877441406 145.63877868652344 283.4092712402344 145.58323669433594 279.24951171875 C 145.69505310058594 277.9601135253906 145.31947326660156 276.6756896972656 144.5305938720703 275.6496887207031 C 143.65194702148438 274.7281494140625 141.7982635498047 274.69989013671875 141.2976837158203 275.87750244140625 L 139.95211791992188 275.204345703125" stroke-width="0.6000000238418579" fill="rgb(159, 159, 159)" opacity="1.0"/>
    <path d="M 158.12091064453125 295.8292541503906 C 156.3402099609375 298.45440673828125 155.4201202392578 301.74688720703125 156.03262329101562 304.8576354980469 C 156.64511108398438 307.9683837890625 158.93194580078125 310.8019714355469 161.99652099609375 311.6653137207031 C 164.16400146484375 312.27294921875 166.53707885742188 311.8709716796875 168.55197143554688 310.8628845214844 C 170.56686401367188 309.85479736328125 172.2537841796875 308.28265380859375 173.68258666992188 306.5401611328125 C 174.30389404296875 305.781494140625 174.9007568359375 304.94073486328125 175.01904296875 303.9698181152344 C 175.15521240234375 302.85675048828125 174.63922119140625 301.7784118652344 174.0889892578125 300.79742431640625 C 172.535400390625 298.0279235839844 170.49826049804688 295.3909912109375 167.66403198242188 293.9580383300781 C 164.82977294921875 292.52508544921875 161.06954956054688 292.5836486816406 158.75588989257812 294.74774169921875 L 158.12091064453125 295.8292541503906" stroke-width="0.6000000238418579" fill="rgb(159, 159, 159)" opacity="1.0"/>
    <path d="M 124.85958862304688 345.22882080078125 C 124.2017822265625 342.24298095703125 123.34124755859375 338.9526062011719 120.786376953125 337.2840576171875 C 118.30401611328125 335.6579284667969 115.05075073242188 336.1002197265625 112.13453674316406 336.6570129394531 C 110.9501953125 336.88494873046875 109.71482849121094 337.14227294921875 108.77969360351562 337.90289306640625 C 107.19732666015625 339.1883544921875 106.93528747558594 341.4970703125 107.11222839355469 343.52508544921875 C 107.27572631835938 345.4075012207031 107.70869445800781 347.2566833496094 108.39785766601562 349.01605224609375 C 109.51580810546875 351.8731384277344 111.6951904296875 354.7054138183594 114.74610900878906 355.01837158203125 C 116.3929443359375 355.1897277832031 118.0526123046875 354.575439453125 119.41851806640625 353.6351013183594 C 120.78439331054688 352.69476318359375 121.89920043945312 351.4385070800781 122.9820556640625 350.1826171875 C 124.06494140625 348.9267272949219 125.10205078125 347.66949462890625 125.56265258789062 346.1176452636719 L 124.85958862304688 345.22882080078125" stroke-width="0.6000000238418579" fill="rgb(218, 166, 20)" opacity="1.0"/>
    <path d="M 167.15692138671875 349.2840270996094 C 163.1810302734375 352.7452697753906 162.7637939453125 358.7742919921875 166.22503662109375 362.75018310546875 C 166.52142333984375 363.0906677246094 166.84158325195312 363.4096374511719 167.18310546875 363.7048034667969 C 168.4810791015625 364.8260803222656 170.16629028320312 365.6034851074219 171.875 365.46405029296875 C 173.3189697265625 365.34637451171875 174.63296508789062 364.6003723144531 175.80731201171875 363.75360107421875 C 178.94769287109375 361.4826965332031 181.4227294921875 358.412353515625 182.975341796875 354.86151123046875 C 183.3841552734375 353.9222412109375 183.73126220703125 352.9219970703125 183.68148803710938 351.8966064453125 C 183.59896850585938 350.1751403808594 182.39208984375 348.6752624511719 180.94747924804688 347.733154296875 C 178.80374145507812 346.3329772949219 176.09335327148438 345.92877197265625 173.57110595703125 346.3730773925781 C 171.04888916015625 346.8173522949219 168.70941162109375 348.0582580566406 166.74005126953125 349.6951599121094 L 167.15692138671875 349.2840270996094" stroke-width="0.6000000238418579" fill="rgb(143, 165, 67)" opacity="1.0"/>
    <path d="M 132.72219848632812 377.0583801269531 C 130.1084442138672 371.0421447753906 120.18792724609375 370.6252746582031 116.68508911132812 376.12115478515625 C 113.18228149414062 381.6170654296875 117.30322265625 390.1148681640625 123.76498413085938 391.2543640136719 C 130.22674560546875 392.3938293457031 136.8081817626953 386.4883117675781 136.8517608642578 379.9208984375 L 132.72219848632812 377.0583801269531" stroke-width="0.6000000238418579" fill="rgb(233, 92, 21)" opacity="1.0"/>
    <path d="M 181.77975463867188 364.7274475097656 C 180.75396728515625 367.6370544433594 179.8304443359375 371.2190246582031 181.90255737304688 373.51885986328125 C 182.76278686523438 374.4020080566406 183.8758544921875 374.9964904785156 185.0882568359375 375.22021484375 C 188.0731201171875 375.8545227050781 191.1802978515625 375.0027160644531 193.4244384765625 372.9349365234375 C 195.32354736328125 371.1759948730469 196.3590087890625 368.7240295410156 197.3045654296875 366.3314208984375 C 197.83355712890625 364.98651123046875 198.35275268554688 363.540771484375 198.05206298828125 362.1352844238281 C 197.63589477539062 360.2652282714844 195.88385009765625 359.0174865722656 194.17431640625 358.1539611816406 C 191.67401123046875 356.8870544433594 188.98516845703125 356.033203125 186.21200561523438 355.62548828125 C 185.25357055664062 355.4864807128906 184.2412109375 355.4052429199219 183.34393310546875 355.76873779296875 C 182.52691650390625 356.1493835449219 181.83828735351562 356.7595520019531 181.36203002929688 357.5248107910156 C 179.82708740234375 359.7899169921875 179.36309814453125 362.6143798828125 180.0926513671875 365.25152587890625 L 181.77975463867188 364.7274475097656" stroke-width="0.6000000238418579" fill="rgb(70, 150, 179)" opacity="1.0"/>
  </g>
</svg>
