<?xml version="1.0" ?>
<svg xmlns="http://www.w3.org/2000/svg" version="1.1" width="600" height="600">
  <defs/>
  <g>
    <path d="M 351.2369079589844 347.7334289550781 C 353.0606384277344 349.2250671386719 356.2973327636719 347.72735595703125 356.5124816894531 345.3963928222656 C 356.7276611328125 343.0654296875 354.0146789550781 341.029052734375 351.7637634277344 341.7274169921875 C 349.5128479003906 342.4257507324219 348.3818359375 345.3936462402344 349.4475402832031 347.4981384277344 L 351.2369079589844 347.7334289550781" stroke-width="0.6000000238418579" fill="rgb(233, 92, 21)" opacity="1.0"/>
    <path d="M 103.71551513671875 202.5677490234375 C 104.29176330566406 201.9068603515625 104.91156005859375 201.05764770507812 104.60556030273438 200.23275756835938 C 104.47102355957031 199.90924072265625 104.23939514160156 199.63540649414062 103.94264221191406 199.4490966796875 C 103.22079467773438 198.96835327148438 102.31071472167969 198.8673095703125 101.50100708007812 199.177978515625 C 100.8148193359375 199.44329833984375 100.28402709960938 199.9822998046875 99.78321838378906 200.51507568359375 C 99.50238037109375 200.81478881835938 99.21353149414062 201.14215087890625 99.14547729492188 201.54495239257812 C 99.05917358398438 202.08258056640625 99.39103698730469 202.59597778320312 99.751953125 203.00344848632812 C 100.27943420410156 203.60043334960938 100.90005493164062 204.10809326171875 101.58975219726562 204.50677490234375 C 101.82832336425781 204.64404296875 102.08718872070312 204.771728515625 102.36233520507812 204.7698974609375 C 102.61807250976562 204.75506591796875 102.86398315429688 204.66616821289062 103.07008361816406 204.5140380859375 C 103.71319580078125 204.0767822265625 104.13211059570312 203.37945556640625 104.21612548828125 202.6063232421875 L 103.71551513671875 202.5677490234375" stroke-width="0.6000000238418579" fill="rgb(70, 150, 179)" opacity="1.0"/>
    <path d="M 456.16802978515625 428.48004150390625 C 456.4144287109375 429.115966796875 456.714111328125 429.8104248046875 457.3326416015625 430.0965576171875 C 457.997314453125 430.40350341796875 458.8096923828125 430.1051025390625 459.3367919921875 429.59698486328125 C 459.5400390625 429.40118408203125 459.71966552734375 429.16522216796875 459.777099609375 428.888916015625 C 459.824462890625 428.6617431640625 459.7861328125 428.42626953125 459.73516845703125 428.199951171875 C 459.575439453125 427.48614501953125 459.2581787109375 426.75390625 458.6370849609375 426.3677978515625 C 458.0108642578125 425.97900390625 457.1337890625 426.045166015625 456.5751953125 426.5269775390625 C 456.01666259765625 427.0089111328125 455.8148193359375 427.8638916015625 456.1044921875 428.5428466796875 L 456.16802978515625 428.48004150390625" stroke-width="0.6000000238418579" fill="rgb(140, 28, 33)" opacity="1.0"/>
    <path d="M 91.28976440429688 201.12890625 C 93.29763793945312 200.82122802734375 95.38357543945312 200.47894287109375 97.07980346679688 199.358642578125 C 98.77601623535156 198.2384033203125 99.97921752929688 196.08941650390625 99.37152099609375 194.14999389648438 C 98.61605834960938 191.75762939453125 95.37319946289062 190.86810302734375 93.09591674804688 191.93161010742188 C 90.81864929199219 192.9951171875 89.44760131835938 195.393798828125 88.749267578125 197.804931640625 C 88.45831298828125 198.5296630859375 88.4495849609375 199.33709716796875 88.724853515625 200.06790161132812 C 89.07028198242188 200.75418090820312 90.13543701171875 201.09597778320312 90.63117980957031 200.5040283203125 L 91.28976440429688 201.12890625" stroke-width="0.6000000238418579" fill="rgb(159, 159, 159)" opacity="1.0"/>
    <path d="M 376.7234191894531 298.59161376953125 C 377.2414855957031 298.2264099121094 377.6457214355469 297.67572021484375 377.7506103515625 297.0509338378906 C 377.8554992675781 296.4261474609375 377.6278076171875 295.7350769042969 377.1157531738281 295.3575439453125 C 376.75335693359375 295.091064453125 376.2813415527344 294.99884033203125 375.8335266113281 295.0451965332031 C 375.3857116699219 295.091552734375 374.9594421386719 295.2665100097656 374.5694274902344 295.49151611328125 C 374.3997497558594 295.58953857421875 374.2288513183594 295.70465087890625 374.1382751464844 295.8778381347656 C 374.0343017578125 296.0763244628906 374.0547180175781 296.3143310546875 374.0884094238281 296.5365295410156 C 374.18353271484375 297.1639099121094 374.37841796875 297.80059814453125 374.8072509765625 298.2684020996094 C 375.236083984375 298.7362060546875 375.9432373046875 298.9904479980469 376.5284118652344 298.7490234375 L 376.7234191894531 298.59161376953125" stroke-width="0.6000000238418579" fill="rgb(159, 159, 159)" opacity="1.0"/>
    <path d="M 96.86843872070312 432.70440673828125 C 97.07156372070312 432.025634765625 97.26795959472656 431.262451171875 96.93853759765625 430.63671875 C 96.61904907226562 430.02783203125 95.91043090820312 429.75091552734375 95.25717163085938 429.53515625 C 94.99166870117188 429.4478759765625 94.71250915527344 429.36083984375 94.43746948242188 429.4095458984375 C 93.97222900390625 429.4915771484375 93.65908813476562 429.9295654296875 93.46647644042969 430.3602294921875 C 93.28753662109375 430.75982666015625 93.16690063476562 431.18310546875 93.1082763671875 431.616943359375 C 93.0128173828125 432.32147216796875 93.13510131835938 433.1405029296875 93.71768188476562 433.54754638671875 C 94.0318603515625 433.76776123046875 94.4371337890625 433.830322265625 94.81967163085938 433.7938232421875 C 95.20217895507812 433.7572021484375 95.56944274902344 433.62841796875 95.93020629882812 433.49609375 C 96.29095458984375 433.36376953125 96.64260864257812 433.2259521484375 96.91067504882812 432.963623046875 L 96.86843872070312 432.70440673828125" stroke-width="0.6000000238418579" fill="rgb(218, 166, 20)" opacity="1.0"/>
    <path d="M 100.7061767578125 139.45169067382812 C 102.03228759765625 139.73365783691406 103.33587646484375 138.88719177246094 103.61785888671875 137.5610809326172 C 103.64199829101562 137.44752502441406 103.65805053710938 137.3323974609375 103.6658935546875 137.21656799316406 C 103.69566345214844 136.7764434814453 103.59486389160156 136.3098907470703 103.30201721191406 135.98028564453125 C 103.0545654296875 135.7017059326172 102.69805908203125 135.5469970703125 102.34246826171875 135.4365692138672 C 101.39016723632812 135.14227294921875 100.37646484375 135.10833740234375 99.40663146972656 135.33827209472656 C 99.15037536621094 135.3994903564453 98.89114379882812 135.48280334472656 98.68809509277344 135.65158081054688 C 98.3470458984375 135.93470764160156 98.22540283203125 136.41465759277344 98.25514221191406 136.8572235107422 C 98.29884338378906 137.51431274414062 98.63485717773438 138.13385009765625 99.11614990234375 138.58352661132812 C 99.59744262695312 139.033203125 100.21420288085938 139.3221435546875 100.85513305664062 139.4738006591797 L 100.7061767578125 139.45169067382812" stroke-width="0.6000000238418579" fill="rgb(143, 165, 67)" opacity="1.0"/>
    <path d="M 454.287353515625 342.818359375 C 455.944091796875 343.9302062988281 458.55322265625 342.4089660644531 458.54833984375 340.42657470703125 C 458.5435791015625 338.4442138671875 456.0936279296875 336.94415283203125 454.251708984375 337.7127380371094 C 452.4097900390625 338.4813537597656 451.69342041015625 341.0738525390625 452.760009765625 342.762939453125 L 454.287353515625 342.818359375" stroke-width="0.6000000238418579" fill="rgb(233, 92, 21)" opacity="1.0"/>
    <path d="M 105.16702270507812 215.31515502929688 C 105.87594604492188 214.73989868164062 106.66313171386719 213.97921752929688 106.49626159667969 213.07846069335938 C 106.41590881347656 212.72259521484375 106.22709655761719 212.400390625 105.95587158203125 212.1563720703125 C 105.30105590820312 211.5345458984375 104.38546752929688 211.2686767578125 103.49945068359375 211.44305419921875 C 102.74822998046875 211.59295654296875 102.107666015625 212.05126953125 101.49893188476562 212.50851440429688 C 101.15740966796875 212.76593017578125 100.80274963378906 213.05029296875 100.66114807128906 213.45135498046875 C 100.47677612304688 213.98748779296875 100.7257080078125 214.57330322265625 101.02333068847656 215.0556640625 C 101.45803833007812 215.7620849609375 102.00421142578125 216.39349365234375 102.64068603515625 216.9254150390625 C 102.86093139648438 217.1087646484375 103.10374450683594 217.285888671875 103.38632202148438 217.33303833007812 C 103.65133666992188 217.36343383789062 103.91943359375 217.3160400390625 104.15798950195312 217.19671630859375 C 104.89564514160156 216.86279296875 105.44970703125 216.22210693359375 105.67367553710938 215.4439697265625 L 105.16702270507812 215.31515502929688" stroke-width="0.6000000238418579" fill="rgb(70, 150, 179)" opacity="1.0"/>
    <path d="M 101.9808349609375 81.13662719726562 C 102.19509887695312 82.0523681640625 102.4710693359375 83.05841064453125 103.26081848144531 83.5679931640625 C 104.10952758789062 84.11489868164062 105.2763671875 83.8634033203125 106.09375 83.27076721191406 C 106.40899658203125 83.04240417480469 106.69960021972656 82.75466918945312 106.8311767578125 82.38833618164062 C 106.939453125 82.08724975585938 106.93228149414062 81.75823974609375 106.90620422363281 81.43939208984375 C 106.82516479492188 80.43388366699219 106.53253173828125 79.37295532226562 105.75857543945312 78.72628784179688 C 104.97807312011719 78.07508850097656 103.76751708984375 77.99685668945312 102.91213989257812 78.54766845703125 C 102.05674743652344 79.09844970703125 101.61677551269531 80.227294921875 101.88201904296875 81.21017456054688 L 101.9808349609375 81.13662719726562" stroke-width="0.6000000238418579" fill="rgb(140, 28, 33)" opacity="1.0"/>
    <path d="M 91.08880615234375 423.146484375 C 93.14926147460938 422.79931640625 95.28944396972656 422.41546630859375 97.0169677734375 421.23736572265625 C 98.74446105957031 420.059326171875 99.94918823242188 417.8306884765625 99.29458618164062 415.84521484375 C 98.4810791015625 413.3961181640625 95.13214111328125 412.53070068359375 92.80615234375 413.6593017578125 C 90.48016357421875 414.787841796875 89.10659790039062 417.27587890625 88.42512512207031 419.76641845703125 C 88.13693237304688 420.5162353515625 88.14028930664062 421.3468017578125 88.43455505371094 422.09429931640625 C 88.80029296875 422.794921875 89.90103149414062 423.13018798828125 90.40190124511719 422.5137939453125 L 91.08880615234375 423.146484375" stroke-width="0.6000000238418579" fill="rgb(159, 159, 159)" opacity="1.0"/>
    <path d="M 468.831298828125 59.989959716796875 C 469.40533447265625 59.263031005859375 469.7427978515625 58.323577880859375 469.630126953125 57.40470886230469 C 469.51739501953125 56.48583984375 468.9112548828125 55.612335205078125 468.0369873046875 55.29620361328125 C 467.4185791015625 55.073486328125 466.71893310546875 55.140472412109375 466.11083984375 55.391510009765625 C 465.5028076171875 55.64256286621094 464.97833251953125 56.06480407714844 464.525390625 56.5421142578125 C 464.3284912109375 56.74993896484375 464.13690185546875 56.98219299316406 464.0819091796875 57.262451171875 C 464.018798828125 57.583740234375 464.14630126953125 57.90867614746094 464.28582763671875 58.20599365234375 C 464.6798095703125 59.04534912109375 465.2174072265625 59.856292724609375 466.0125732421875 60.33345031738281 C 466.8077392578125 60.81060791015625 467.904052734375 60.8729248046875 468.62353515625 60.29151916503906 L 468.831298828125 59.989959716796875" stroke-width="0.6000000238418579" fill="rgb(159, 159, 159)" opacity="1.0"/>
    <path d="M 91.97381591796875 106.57110595703125 C 92.69384765625 106.77587890625 93.5030517578125 106.9722900390625 94.1593017578125 106.61520385742188 C 94.79800415039062 106.26882934570312 95.08026123046875 105.51614379882812 95.29873657226562 104.82286071777344 C 95.38706970214844 104.54109191894531 95.4749755859375 104.24490356445312 95.4195556640625 103.95501708984375 C 95.32611083984375 103.46469116210938 94.85882568359375 103.14022827148438 94.40110778808594 102.94296264648438 C 93.976318359375 102.75971984863281 93.52743530273438 102.63841247558594 93.06816101074219 102.582763671875 C 92.32247924804688 102.49212646484375 91.45893859863281 102.63319396972656 91.037353515625 103.25457763671875 C 90.80924987792969 103.58970642089844 90.7490234375 104.018798828125 90.79318237304688 104.42239379882812 C 90.83737182617188 104.82598876953125 90.97879028320312 105.21212768554688 91.12384033203125 105.59135437011719 C 91.26887512207031 105.97056579589844 91.41952514648438 106.340087890625 91.70059204101562 106.6195068359375 L 91.97381591796875 106.57110595703125" stroke-width="0.6000000238418579" fill="rgb(218, 166, 20)" opacity="1.0"/>
    <path d="M 119.885986328125 126.96221923828125 C 121.23104858398438 126.46060180664062 121.914794921875 124.96359252929688 121.41317749023438 123.6185302734375 C 121.3702392578125 123.50334167480469 121.31915283203125 123.391357421875 121.26036071777344 123.28341674804688 C 121.03684997558594 122.87326049804688 120.68168640136719 122.513671875 120.23272705078125 122.38558959960938 C 119.85334777832031 122.27729797363281 119.44692993164062 122.34164428710938 119.06645202636719 122.44503784179688 C 118.04840087890625 122.72322082519531 117.12338256835938 123.2689208984375 116.38751220703125 124.02545166015625 C 116.19334411621094 124.22573852539062 116.00906372070312 124.44749450683594 115.92355346679688 124.71365356445312 C 115.77972412109375 125.16041564941406 115.94375610351562 125.65835571289062 116.22181701660156 126.03689575195312 C 116.63423156738281 126.59913635253906 117.28648376464844 126.96174621582031 117.97203063964844 127.09002685546875 C 118.65756225585938 127.21832275390625 119.372802734375 127.12603759765625 120.03163146972656 126.8973388671875 L 119.885986328125 126.96221923828125" stroke-width="0.6000000238418579" fill="rgb(143, 165, 67)" opacity="1.0"/>
    <path d="M 390.7259826660156 303.4667663574219 C 392.0064697265625 304.98052978515625 394.9142761230469 304.2372741699219 395.4495544433594 302.3414306640625 C 395.9848327636719 300.44561767578125 394.0519714355469 298.34478759765625 392.0823669433594 298.57769775390625 C 390.11279296875 298.81060791015625 388.7220764160156 301.0931091308594 389.2814025878906 302.9978332519531 L 390.7259826660156 303.4667663574219" stroke-width="0.6000000238418579" fill="rgb(233, 92, 21)" opacity="1.0"/>
    <path d="M 123.20535278320312 113.419921875 C 123.80264282226562 112.82432556152344 124.454345703125 112.05091857910156 124.21600341796875 111.23880004882812 C 124.10856628417969 110.91929626464844 123.90463256835938 110.6409912109375 123.63232421875 110.44232177734375 C 122.97183227539062 109.93258666992188 122.105224609375 109.77462768554688 121.30735778808594 110.01850891113281 C 120.63107299804688 110.22714233398438 120.0855712890625 110.70880126953125 119.56925964355469 111.18650817871094 C 119.2796630859375 111.455322265625 118.98052978515625 111.75015258789062 118.88822937011719 112.13211059570312 C 118.76937866210938 112.64225769042969 119.05343627929688 113.15719604492188 119.37248229980469 113.57241821289062 C 119.83866882324219 114.1806640625 120.40023803710938 114.70947265625 121.03538513183594 115.13827514648438 C 121.255126953125 115.2860107421875 121.4949951171875 115.4259033203125 121.75917053222656 115.44256591796875 C 122.00558471679688 115.44549560546875 122.24752807617188 115.37664794921875 122.45550537109375 115.24444580078125 C 123.10198974609375 114.86795043945312 123.55075073242188 114.226806640625 123.68319702148438 113.49052429199219 L 123.20535278320312 113.419921875" stroke-width="0.6000000238418579" fill="rgb(70, 150, 179)" opacity="1.0"/>
    <path d="M 427.7774658203125 70.47201538085938 C 428.14093017578125 71.1578369140625 428.5726318359375 71.90275573730469 429.31005859375 72.14346313476562 C 430.102294921875 72.40156555175781 430.980712890625 71.95561218261719 431.508544921875 71.31082153320312 C 431.712158203125 71.06231689453125 431.883544921875 70.77159118652344 431.91162109375 70.45156860351562 C 431.9346923828125 70.18852233886719 431.85986328125 69.92742919921875 431.77203369140625 69.67845153808594 C 431.4959716796875 68.89297485351562 431.03948974609375 68.10775756835938 430.285888671875 67.75433349609375 C 429.52606201171875 67.39865112304688 428.54345703125 67.59063720703125 427.9765625 68.21002197265625 C 427.40966796875 68.82937622070312 427.2957763671875 69.82278442382812 427.71405029296875 70.55148315429688 L 427.7774658203125 70.47201538085938" stroke-width="0.6000000238418579" fill="rgb(140, 28, 33)" opacity="1.0"/>
    <path d="M 113.15786743164062 415.92462158203125 C 114.13790893554688 414.11065673828125 115.1376953125 412.21234130859375 115.26910400390625 410.15325927734375 C 115.40048217773438 408.0942077636719 114.397216796875 405.8045654296875 112.45501708984375 405.10931396484375 C 110.0556640625 404.25640869140625 107.350341796875 406.33734130859375 106.81730651855469 408.83209228515625 C 106.28425598144531 411.3268127441406 107.38694763183594 413.90521240234375 108.91152954101562 415.9466552734375 C 109.32015991210938 416.6258544921875 109.96853637695312 417.127197265625 110.72871398925781 417.3516845703125 C 111.49578857421875 417.49212646484375 112.424560546875 416.8389892578125 112.24880981445312 416.0753173828125 L 113.15786743164062 415.92462158203125" stroke-width="0.6000000238418579" fill="rgb(159, 159, 159)" opacity="1.0"/>
    <path d="M 453.5689697265625 431.746826171875 C 453.9205322265625 430.9774169921875 454.01611328125 430.07080078125 453.7169189453125 429.280029296875 C 453.4176025390625 428.48931884765625 452.6904296875 427.84588623046875 451.84619140625 427.7550048828125 C 451.249267578125 427.69158935546875 450.6431884765625 427.9027099609375 450.158203125 428.25732421875 C 449.67315673828125 428.6119384765625 449.2994384765625 429.1002197265625 449.001220703125 429.6219482421875 C 448.87158203125 429.8489990234375 448.751953125 430.09661865234375 448.7640380859375 430.357177734375 C 448.77764892578125 430.6558837890625 448.96124267578125 430.91650390625 449.1495361328125 431.1500244140625 C 449.6810302734375 431.8092041015625 450.3338623046875 432.4119873046875 451.142822265625 432.662841796875 C 451.95172119140625 432.9136962890625 452.9378662109375 432.731201171875 453.4500732421875 432.05938720703125 L 453.5689697265625 431.746826171875" stroke-width="0.6000000238418579" fill="rgb(159, 159, 159)" opacity="1.0"/>
    <path d="M 450.473388671875 285.693359375 C 450.975830078125 285.0709533691406 451.50726318359375 284.35736083984375 451.4305419921875 283.562744140625 C 451.35693359375 282.7898864746094 450.73486328125 282.1976318359375 450.1444091796875 281.6929626464844 C 449.904296875 281.48828125 449.6497802734375 281.27801513671875 449.341552734375 281.2113037109375 C 448.8203125 281.0981750488281 448.305908203125 281.4220275878906 447.92059326171875 281.7896728515625 C 447.56280517578125 282.1307373046875 447.255859375 282.5214538574219 447.00909423828125 282.94976806640625 C 446.60821533203125 283.6451416015625 446.3858642578125 284.5532531738281 446.8206787109375 285.2276306152344 C 447.0548095703125 285.592041015625 447.4515380859375 285.8306579589844 447.866943359375 285.9559631347656 C 448.2822265625 286.0812683105469 448.7210693359375 286.1036376953125 449.1546630859375 286.11956787109375 C 449.588134765625 286.1354675292969 450.0145263671875 286.1418151855469 450.40673828125 285.98223876953125 L 450.473388671875 285.693359375" stroke-width="0.6000000238418579" fill="rgb(218, 166, 20)" opacity="1.0"/>
    <path d="M 417.3624267578125 362.7067565917969 C 418.4842529296875 363.82000732421875 420.296142578125 363.81304931640625 421.409423828125 362.6911926269531 C 421.5047607421875 362.59515380859375 421.5931396484375 362.492431640625 421.6739501953125 362.38385009765625 C 421.9808349609375 361.97125244140625 422.176513671875 361.4503479003906 422.097412109375 360.9424743652344 C 422.03070068359375 360.51324462890625 421.7789306640625 360.13665771484375 421.5001220703125 359.8039855957031 C 420.75244140625 358.9145812988281 419.7802734375 358.2415771484375 418.6845703125 357.8548889160156 C 418.394775390625 357.753173828125 418.088134765625 357.6712341308594 417.7825927734375 357.7085266113281 C 417.2696533203125 357.77081298828125 416.8475341796875 358.1644592285156 416.59735107421875 358.61700439453125 C 416.22552490234375 359.2886047363281 416.16387939453125 360.10791015625 416.351806640625 360.8523864746094 C 416.539794921875 361.5968933105469 416.9619140625 362.2693176269531 417.49444580078125 362.82244873046875 L 417.3624267578125 362.7067565917969" stroke-width="0.6000000238418579" fill="rgb(143, 165, 67)" opacity="1.0"/>
    <path d="M 451.647705078125 355.33343505859375 C 452.58453369140625 353.80487060546875 451.12213134765625 351.5187683105469 449.342529296875 351.59649658203125 C 447.56298828125 351.67425537109375 446.30694580078125 353.9293518066406 447.065185546875 355.5545349121094 C 447.823486328125 357.1797180175781 450.177490234375 357.72686767578125 451.65447998046875 356.7067565917969 L 451.647705078125 355.33343505859375" stroke-width="0.6000000238418579" fill="rgb(233, 92, 21)" opacity="1.0"/>
    <path d="M 453.09405517578125 80.63066101074219 C 453.59173583984375 80.08380126953125 454.1295166015625 79.37896728515625 453.8863525390625 78.67800903320312 C 453.7786865234375 78.40283203125 453.58837890625 78.16781616210938 453.341552734375 78.00541687011719 C 452.7415771484375 77.587158203125 451.97607421875 77.48562622070312 451.287841796875 77.7330322265625 C 450.70458984375 77.94439697265625 450.24737548828125 78.38931274414062 449.8155517578125 78.8294677734375 C 449.57342529296875 79.07713317871094 449.32403564453125 79.34796142578125 449.2593994140625 79.68634033203125 C 449.177001953125 80.13804626464844 449.44757080078125 80.57685852050781 449.74456787109375 80.9268798828125 C 450.1785888671875 81.43965148925781 450.69268798828125 81.87881469726562 451.26702880859375 82.22731018066406 C 451.4656982421875 82.34735107421875 451.681640625 82.45962524414062 451.9136962890625 82.4630126953125 C 452.1295166015625 82.45510864257812 452.3385009765625 82.38456726074219 452.51495361328125 82.25997924804688 C 453.06500244140625 81.90289306640625 453.43072509765625 81.32247924804688 453.515380859375 80.67218017578125 L 453.09405517578125 80.63066101074219" stroke-width="0.6000000238418579" fill="rgb(70, 150, 179)" opacity="1.0"/>
    <path d="M 450.3492431640625 389.84783935546875 C 450.49774169921875 389.53607177734375 450.6492919921875 389.18426513671875 450.5396728515625 388.8570251464844 C 450.421630859375 388.50555419921875 450.02935791015625 388.31011962890625 449.6590576171875 388.2926330566406 C 449.5162353515625 388.2858581542969 449.366943359375 388.3017272949219 449.24517822265625 388.3766174316406 C 449.14508056640625 388.4381408691406 449.0716552734375 388.5341491699219 449.006103515625 388.6315612792969 C 448.7987060546875 388.93853759765625 448.639404296875 389.30987548828125 448.71307373046875 389.6728210449219 C 448.78759765625 390.03857421875 449.1168212890625 390.3385925292969 449.4884033203125 390.37677001953125 C 449.860107421875 390.41497802734375 450.2451171875 390.1921081542969 450.3944091796875 389.8493957519531 L 450.3492431640625 389.84783935546875" stroke-width="0.6000000238418579" fill="rgb(140, 28, 33)" opacity="1.0"/>
    <path d="M 123.32684326171875 216.16644287109375 C 120.6627197265625 216.63265991210938 117.89566040039062 217.14715576171875 115.66929626464844 218.686279296875 C 113.44296264648438 220.22540283203125 111.90194702148438 223.1199951171875 112.76559448242188 225.6845703125 C 113.83872985839844 228.84783935546875 118.18061828613281 229.94046020507812 121.18203735351562 228.46051025390625 C 124.1834716796875 226.9805908203125 125.94087219238281 223.74884033203125 126.80245971679688 220.51953125 C 127.16932678222656 219.54660034179688 127.15814208984375 218.47152709960938 126.77110290527344 217.5064697265625 C 126.29193115234375 216.6026611328125 124.8643798828125 216.17770385742188 124.22116088867188 216.97967529296875 L 123.32684326171875 216.16644287109375" stroke-width="0.6000000238418579" fill="rgb(159, 159, 159)" opacity="1.0"/>
    <path d="M 111.47091674804688 224.57504272460938 C 109.66571044921875 223.02166748046875 107.28895568847656 222.05291748046875 104.91622924804688 222.24285888671875 C 102.54351806640625 222.43280029296875 100.23387145996094 223.89529418945312 99.3270263671875 226.10696411132812 C 98.6878662109375 227.67144775390625 98.7840576171875 229.47589111328125 99.36306762695312 231.065185546875 C 99.94207763671875 232.654541015625 100.96992492675781 234.047607421875 102.14698791503906 235.26275634765625 C 102.65953063964844 235.79129028320312 103.23541259765625 236.30859375 103.94941711425781 236.4801025390625 C 104.76791381835938 236.67718505859375 105.61648559570312 236.38485717773438 106.39537048339844 236.05859375 C 108.59429931640625 235.13751220703125 110.73583984375 233.84429931640625 112.04779052734375 231.85333251953125 C 113.3597412109375 229.86236572265625 113.638671875 227.052734375 112.22308349609375 225.14141845703125 L 111.47091674804688 224.57504272460938" stroke-width="0.6000000238418579" fill="rgb(159, 159, 159)" opacity="1.0"/>
    <path d="M 304.02301025390625 104.5321044921875 C 303.23187255859375 106.61798095703125 302.4428405761719 108.97079467773438 303.33624267578125 111.01019287109375 C 304.2023010253906 112.99472045898438 306.3653869628906 114.0242919921875 308.3683776855469 114.84930419921875 C 309.1825866699219 115.18324279785156 310.0396728515625 115.51962280273438 310.91448974609375 115.42880249023438 C 312.3941650390625 115.27603149414062 313.4764404296875 113.9710693359375 314.1785583496094 112.662109375 C 314.8307189941406 111.44741821289062 315.3050842285156 110.1453857421875 315.5871276855469 108.79586791992188 C 316.0458984375 106.60476684570312 315.8466491699219 104.00482177734375 314.10882568359375 102.594970703125 C 313.1717529296875 101.83245849609375 311.9129943847656 101.54449462890625 310.703369140625 101.572998046875 C 309.4937438964844 101.60151672363281 308.31121826171875 101.9232177734375 307.1483459472656 102.2574462890625 C 305.9854431152344 102.59169006347656 304.8499755859375 102.94502258300781 303.94879150390625 103.70855712890625 L 304.02301025390625 104.5321044921875" stroke-width="0.6000000238418579" fill="rgb(218, 166, 20)" opacity="1.0"/>
    <path d="M 219.07192993164062 126.26617431640625 C 216.54776000976562 123.8865966796875 212.57247924804688 124.00382995605469 210.19293212890625 126.52801513671875 C 209.9891357421875 126.744140625 209.80096435546875 126.9744873046875 209.62982177734375 127.21725463867188 C 208.97958374023438 128.13987731933594 208.57962036132812 129.2938232421875 208.78158569335938 130.40377807617188 C 208.95217895507812 131.34178161621094 209.52581787109375 132.1539764404297 210.15640258789062 132.86819458007812 C 211.846923828125 134.77767944335938 214.0179443359375 136.1996612548828 216.44384765625 136.98646545410156 C 217.08541870117188 137.193359375 217.762939453125 137.3558807373047 218.43121337890625 137.25689697265625 C 219.55319213867188 137.09136962890625 220.457275390625 136.20387268066406 220.98068237304688 135.19680786132812 C 221.7587890625 133.70225524902344 221.84796142578125 131.90110778808594 221.39364624023438 130.2781219482422 C 220.9393310546875 128.6551513671875 219.9752197265625 127.20346069335938 218.77569580078125 126.019775390625 L 219.07192993164062 126.26617431640625" stroke-width="0.6000000238418579" fill="rgb(143, 165, 67)" opacity="1.0"/>
    <path d="M 222.68069458007812 94.1673583984375 C 221.5030517578125 97.97079467773438 225.904296875 102.08834838867188 229.69140625 100.94482421875 C 233.47845458984375 99.80128479003906 234.94436645507812 94.25918579101562 232.42105102539062 91.17770385742188 C 229.89773559570312 88.09622192382812 224.53155517578125 88.21006774902344 221.91265869140625 91.21566772460938 L 222.68069458007812 94.1673583984375" stroke-width="0.6000000238418579" fill="rgb(233, 92, 21)" opacity="1.0"/>
    <path d="M 202.32830810546875 95.8216552734375 C 201.5814208984375 93.90774536132812 200.49072265625 91.69902038574219 198.44570922851562 91.4390869140625 C 197.62786865234375 91.3673095703125 196.807861328125 91.55108642578125 196.098876953125 91.965087890625 C 194.317138671875 92.94221496582031 193.1195068359375 94.72235107421875 192.88580322265625 96.740966796875 C 192.69195556640625 98.45381164550781 193.235107421875 100.1409912109375 193.79779052734375 101.75920104980469 C 194.1153564453125 102.66769409179688 194.481689453125 103.62281799316406 195.24420166015625 104.2012939453125 C 196.26690673828125 104.96403503417969 197.69317626953125 104.83218383789062 198.9310302734375 104.52497863769531 C 200.74322509765625 104.07763671875 202.47100830078125 103.33993530273438 204.0474853515625 102.34046936035156 C 204.59149169921875 101.99407958984375 205.1375732421875 101.59512329101562 205.432373046875 101.02175903320312 C 205.67919921875 100.47463989257812 205.76150512695312 99.86749267578125 205.66925048828125 99.27438354492188 C 205.4593505859375 97.46440124511719 204.46600341796875 95.83760070800781 202.9517822265625 94.82402038574219 L 202.32830810546875 95.8216552734375" stroke-width="0.6000000238418579" fill="rgb(70, 150, 179)" opacity="1.0"/>
    <path d="M 268.37542724609375 132.00775146484375 C 267.44329833984375 134.04476928710938 266.4956359863281 136.34178161621094 267.2395935058594 138.45327758789062 C 268.0401306152344 140.72100830078125 270.6042785644531 141.94931030273438 273.0079040527344 142.0254669189453 C 273.93463134765625 142.05523681640625 274.9015808105469 141.93724060058594 275.6836242675781 141.43931579589844 C 276.3266906738281 141.03024291992188 276.7930908203125 140.40020751953125 277.208984375 139.7617645263672 C 278.52294921875 137.75001525878906 279.519287109375 135.3253631591797 279.0050048828125 132.97872924804688 C 278.4850158691406 130.61402893066406 276.3194885253906 128.70111083984375 273.9053039550781 128.49070739746094 C 271.49114990234375 128.28030395507812 269.01617431640625 129.7643585205078 268.08209228515625 132.0021514892578 L 268.37542724609375 132.00775146484375" stroke-width="0.6000000238418579" fill="rgb(140, 28, 33)" opacity="1.0"/>
    <path d="M 317.0947570800781 116.94807434082031 C 314.54119873046875 117.796630859375 311.8934326171875 118.707763671875 309.9276428222656 120.548095703125 C 307.9618835449219 122.388427734375 306.86883544921875 125.46240234375 308.09393310546875 127.85983276367188 C 309.6127624511719 130.81582641601562 314.04541015625 131.255859375 316.7825927734375 129.36036682128906 C 319.519775390625 127.46487426757812 320.7764587402344 124.02748107910156 321.15191650390625 120.72348022460938 C 321.37060546875 119.71234130859375 321.20233154296875 118.656005859375 320.6802673339844 117.76290893554688 C 320.0765075683594 116.94358825683594 318.6094970703125 116.7342529296875 318.09381103515625 117.61752319335938 L 317.0947570800781 116.94807434082031" stroke-width="0.6000000238418579" fill="rgb(159, 159, 159)" opacity="1.0"/>
    <path d="M 198.22039794921875 132.01089477539062 C 196.45111083984375 130.431640625 194.10223388671875 129.42417907714844 191.73638916015625 129.57040405273438 C 189.37054443359375 129.71664428710938 187.0445556640625 131.13104248046875 186.1016845703125 133.31671142578125 C 185.43701171875 134.8628387451172 185.50018310546875 136.6611785888672 186.0479736328125 138.25404357910156 C 186.595703125 139.84689331054688 187.59393310546875 141.2524871826172 188.743896484375 142.48365783691406 C 189.24468994140625 143.01913452148438 189.8087158203125 143.54457092285156 190.51651000976562 143.728271484375 C 191.327880859375 143.93927001953125 192.17803955078125 143.66354370117188 192.95941162109375 143.352783203125 C 195.16546630859375 142.47543334960938 197.321044921875 141.2265625 198.66326904296875 139.26795959472656 C 200.0054931640625 137.30935668945312 200.333984375 134.51699829101562 198.95907592773438 132.58840942382812 L 198.22039794921875 132.01089477539062" stroke-width="0.6000000238418579" fill="rgb(159, 159, 159)" opacity="1.0"/>
    <path d="M 280.491943359375 105.15902709960938 C 278.5770263671875 105.8193359375 276.4770812988281 106.63626098632812 275.5735778808594 108.44473266601562 C 274.69244384765625 110.20223999023438 275.2312927246094 112.30960083007812 275.81982421875 114.1864013671875 C 276.0600280761719 114.94847106933594 276.3234558105469 115.74188232421875 276.8952331542969 116.29939270019531 C 277.8617248535156 117.24288940429688 279.4010925292969 117.239501953125 280.7222900390625 116.96859741210938 C 281.94866943359375 116.71763610839844 283.1326904296875 116.2918701171875 284.2380676269531 115.704345703125 C 286.0332336425781 114.75100708007812 287.731201171875 113.10101318359375 287.7048034667969 111.06932067871094 C 287.6921691894531 109.97245788574219 287.1614990234375 108.92698669433594 286.4386291503906 108.09968566894531 C 285.71575927734375 107.27239990234375 284.8041076660156 106.6343994140625 283.8951110839844 106.01739501953125 C 282.9861145019531 105.400390625 282.0797119140625 104.81358337402344 281.0233459472656 104.62864685058594 L 280.491943359375 105.15902709960938" stroke-width="0.6000000238418579" fill="rgb(218, 166, 20)" opacity="1.0"/>
    <path d="M 242.36370849609375 120.48934936523438 C 241.21026611328125 123.60458374023438 242.80062866210938 127.06500244140625 245.91583251953125 128.2184295654297 C 246.1826171875 128.31719970703125 246.4560546875 128.39691162109375 246.73406982421875 128.45700073242188 C 247.79058837890625 128.68507385253906 248.95745849609375 128.60598754882812 249.8603515625 128.01275634765625 C 250.6234130859375 127.51150512695312 251.12478637695312 126.7020263671875 251.51849365234375 125.87898254394531 C 252.56939697265625 123.67446899414062 253.01080322265625 121.22879028320312 252.79693603515625 118.79598999023438 C 252.73931884765625 118.15303039550781 252.629150390625 117.4949951171875 252.29193115234375 116.94293212890625 C 251.726318359375 116.01577758789062 250.60577392578125 115.55081176757812 249.52224731445312 115.46612548828125 C 247.9136962890625 115.33926391601562 246.2926025390625 115.93441772460938 245.0318603515625 116.94198608398438 C 243.7711181640625 117.94955444335938 242.85205078125 119.34249877929688 242.25732421875 120.8426513671875 L 242.36370849609375 120.48934936523438" stroke-width="0.6000000238418579" fill="rgb(143, 165, 67)" opacity="1.0"/>
    <path d="M 249.94110107421875 92.0499267578125 C 249.09375 95.94155883789062 253.83343505859375 99.66763305664062 257.5096130371094 98.20304870605469 C 261.185791015625 96.73846435546875 262.1712646484375 91.08932495117188 259.39208984375 88.23471069335938 C 256.6129455566406 85.380126953125 251.27462768554688 85.95396423339844 248.92245483398438 89.17410278320312 L 249.94110107421875 92.0499267578125" stroke-width="0.6000000238418579" fill="rgb(233, 92, 21)" opacity="1.0"/>
    <path d="M 338.175537109375 84.65449523925781 C 336.3551025390625 84.07414245605469 334.1203918457031 83.5697021484375 332.735595703125 84.89561462402344 C 332.2050476074219 85.4447021484375 331.8579406738281 86.14492797851562 331.7422180175781 86.899658203125 C 331.4056091308594 88.75932312011719 331.9912414550781 90.66677856445312 333.3134460449219 92.01716613769531 C 334.4379577636719 93.1597900390625 335.9752502441406 93.75471496582031 337.4741516113281 94.29513549804688 C 338.316650390625 94.59735107421875 339.22137451171875 94.8916015625 340.08575439453125 94.67906188964844 C 341.235595703125 94.38632202148438 341.97509765625 93.27828979492188 342.4775695800781 92.20381164550781 C 343.2148742675781 90.63223266601562 343.6929626464844 88.95167541503906 343.89324951171875 87.22732543945312 C 343.9613342285156 86.63139343261719 343.9925842285156 86.00318908691406 343.750732421875 85.45455932617188 C 343.499755859375 84.9559326171875 343.1091003417969 84.54109191894531 342.6264343261719 84.26065063476562 C 341.1954040527344 83.35299682617188 339.438232421875 83.11878967285156 337.8194274902344 83.61994934082031 L 338.175537109375 84.65449523925781" stroke-width="0.6000000238418579" fill="rgb(70, 150, 179)" opacity="1.0"/>
    <path d="M 332.7503356933594 125.19081115722656 C 332.1426696777344 122.88410949707031 331.37225341796875 120.35282897949219 329.3341369628906 119.11637878417969 C 327.1439208984375 117.78945922851562 324.2032165527344 118.50910949707031 322.1724853515625 120.06915283203125 C 321.3892822265625 120.6702880859375 320.6727294921875 121.42025756835938 320.3648681640625 122.35824584960938 C 320.1115417480469 123.12924194335938 320.15283203125 123.96295166015625 320.2413635253906 124.76945495605469 C 320.5175476074219 127.31314086914062 321.33404541015625 129.9823760986328 323.3418273925781 131.56752014160156 C 325.366455078125 133.1636962890625 328.4411315917969 133.2769012451172 330.5711364746094 131.82029724121094 C 332.701171875 130.36370849609375 333.7372741699219 127.47073364257812 332.99566650390625 124.99737548828125 L 332.7503356933594 125.19081115722656" stroke-width="0.6000000238418579" fill="rgb(140, 28, 33)" opacity="1.0"/>
    <path d="M 352.7140808105469 105.92497253417969 C 350.1328125 105.7227783203125 347.44464111328125 105.54083251953125 345.0137634277344 106.43768310546875 C 342.58294677734375 107.33451843261719 340.4646911621094 109.65138244628906 340.6546936035156 112.23497009277344 C 340.8963623046875 115.42361450195312 344.6619873046875 117.47074890136719 347.7973937988281 116.8133544921875 C 350.93280029296875 116.15597534179688 353.33197021484375 113.57804870605469 354.89996337890625 110.78898620605469 C 355.4718322753906 109.9742431640625 355.7174987792969 108.97476196289062 355.5884704589844 107.98774719238281 C 355.35943603515625 107.03561401367188 354.13702392578125 106.30162048339844 353.349609375 106.89199829101562 L 352.7140808105469 105.92497253417969" stroke-width="0.6000000238418579" fill="rgb(159, 159, 159)" opacity="1.0"/>
    <path d="M 350.2412414550781 124.90814208984375 C 348.19036865234375 125.52958679199219 346.3077392578125 126.86723327636719 345.30706787109375 128.76092529296875 C 344.3063659667969 130.6546173095703 344.3025817871094 133.11447143554688 345.5447082519531 134.8704376220703 C 346.42449951171875 136.11082458496094 347.84136962890625 136.90847778320312 349.32781982421875 137.23565673828125 C 350.81427001953125 137.5628204345703 352.3682556152344 137.45440673828125 353.8591613769531 137.14683532714844 C 354.50787353515625 137.01260375976562 355.17864990234375 136.82484436035156 355.6534729003906 136.36534118652344 C 356.1980895996094 135.8387908935547 356.38555908203125 135.0532684326172 356.51361083984375 134.30429077148438 C 356.8751525878906 132.18975830078125 356.9263916015625 129.9392852783203 356.04736328125 127.98214721679688 C 355.1683044433594 126.02499389648438 353.1690673828125 124.4573974609375 351.03436279296875 124.61019897460938 L 350.2412414550781 124.90814208984375" stroke-width="0.6000000238418579" fill="rgb(159, 159, 159)" opacity="1.0"/>
    <path d="M 365.86077880859375 113.8721923828125 C 364.0293884277344 114.37989807128906 362.01568603515625 115.0235595703125 361.0650939941406 116.6649169921875 C 360.1383972167969 118.25984191894531 360.5212097167969 120.26441955566406 360.9638977050781 122.05596923828125 C 361.1448059082031 122.78350830078125 361.3456726074219 123.54171752929688 361.848876953125 124.09683227539062 C 362.699462890625 125.03622436523438 364.1412048339844 125.12200927734375 365.39410400390625 124.94467163085938 C 366.55706787109375 124.780517578125 367.6904296875 124.45021057128906 368.759521484375 123.96388244628906 C 370.4956970214844 123.17486572265625 372.1811218261719 121.72784423828125 372.2738037109375 119.82371520996094 C 372.3253479003906 118.79580688476562 371.8888244628906 117.78610229492188 371.2596740722656 116.9696044921875 C 370.63055419921875 116.15310668945312 369.8136901855469 115.50299072265625 368.99810791015625 114.87265014648438 C 368.1825256347656 114.24234008789062 367.36761474609375 113.64044189453125 366.3890686035156 113.40621948242188 L 365.86077880859375 113.8721923828125" stroke-width="0.6000000238418579" fill="rgb(218, 166, 20)" opacity="1.0"/>
    <path d="M 434.3992919921875 155.1928253173828 C 431.31842041015625 155.806396484375 429.31829833984375 158.80133056640625 429.931884765625 161.8822021484375 C 429.984375 162.14599609375 430.05560302734375 162.40576171875 430.1448974609375 162.65951538085938 C 430.484375 163.62359619140625 431.1259765625 164.52447509765625 432.051025390625 164.95806884765625 C 432.832763671875 165.32452392578125 433.733154296875 165.32757568359375 434.5911865234375 165.23715209960938 C 436.8875732421875 164.991943359375 439.07647705078125 164.1363525390625 440.930419921875 162.75927734375 C 441.419921875 162.3944091796875 441.89544677734375 161.97979736328125 442.17315673828125 161.4346923828125 C 442.63995361328125 160.5198974609375 442.4595947265625 159.38690185546875 441.9912109375 158.4720458984375 C 441.29681396484375 157.1134033203125 440.0145263671875 156.1021728515625 438.5784912109375 155.5854949951172 C 437.142333984375 155.06881713867188 435.5650634765625 155.01828002929688 434.06201171875 155.28208923339844 L 434.3992919921875 155.1928253173828" stroke-width="0.6000000238418579" fill="rgb(143, 165, 67)" opacity="1.0"/>
    <path d="M 144.1554412841797 418.15985107421875 C 142.08773803710938 421.55517578125 145.34490966796875 426.61505126953125 149.2904052734375 426.431396484375 C 153.2358856201172 426.247802734375 156.00665283203125 421.2393798828125 154.31507873535156 417.640625 C 152.62347412109375 414.041748046875 147.40017700195312 412.8433837890625 144.13165283203125 415.11474609375 L 144.1554412841797 418.15985107421875" stroke-width="0.6000000238418579" fill="rgb(233, 92, 21)" opacity="1.0"/>
    <path d="M 437.11865234375 185.82635498046875 C 435.2889404296875 185.89215087890625 433.110107421875 186.16049194335938 432.29034423828125 187.8045654296875 C 431.98956298828125 188.47152709960938 431.90313720703125 189.21539306640625 432.0430908203125 189.93356323242188 C 432.34136962890625 191.71978759765625 433.4869384765625 193.25057983398438 435.1165771484375 194.04052734375 C 436.5006103515625 194.70709228515625 438.07965087890625 194.74609375 439.6064453125 194.74835205078125 C 440.464111328125 194.74822998046875 441.3753662109375 194.7208251953125 442.086181640625 194.24932861328125 C 443.0284423828125 193.6131591796875 443.3367919921875 192.37445068359375 443.442138671875 191.24273681640625 C 443.5985107421875 189.586669921875 443.4857177734375 187.91619873046875 443.1082763671875 186.296142578125 C 442.976806640625 185.73666381835938 442.8016357421875 185.15997314453125 442.40594482421875 184.743408203125 C 442.0181884765625 184.37493896484375 441.5316162109375 184.12722778320312 441.0054931640625 184.030517578125 C 439.4210205078125 183.67507934570312 437.76043701171875 184.0325927734375 436.462646484375 185.008544921875 L 437.11865234375 185.82635498046875" stroke-width="0.6000000238418579" fill="rgb(70, 150, 179)" opacity="1.0"/>
    <path d="M 407.5126037597656 158.1944580078125 C 407.1008605957031 156.1448974609375 406.55841064453125 153.89035034179688 404.839599609375 152.70272827148438 C 402.992431640625 151.4280548095703 400.38238525390625 151.9048309326172 398.52471923828125 153.1641082763672 C 397.80828857421875 153.64932250976562 397.1424255371094 154.2681884765625 396.8243713378906 155.0727996826172 C 396.56268310546875 155.734130859375 396.55548095703125 156.46563720703125 396.5910339355469 157.17581176757812 C 396.7004699707031 159.41552734375 397.27606201171875 161.79312133789062 398.9501953125 163.28421020507812 C 400.63848876953125 164.78582763671875 403.322509765625 165.044677734375 405.2616271972656 163.88104248046875 C 407.2007751464844 162.7174072265625 408.2575378417969 160.2403564453125 407.7373046875 158.03802490234375 L 407.5126037597656 158.1944580078125" stroke-width="0.6000000238418579" fill="rgb(140, 28, 33)" opacity="1.0"/>
    <path d="M 141.61439514160156 121.04730224609375 C 139.2661590576172 121.82113647460938 136.8312225341797 122.65225219726562 135.02078247070312 124.33871459960938 C 133.21035766601562 126.02516174316406 132.19898986816406 128.84713745117188 133.31915283203125 131.0527801513672 C 134.70794677734375 133.77232360839844 138.77981567382812 134.18678283691406 141.29916381835938 132.451416015625 C 143.81851196289062 130.71604919433594 144.98104858398438 127.56051635742188 145.33360290527344 124.52554321289062 C 145.536865234375 123.59698486328125 145.38465881347656 122.62600708007812 144.90701293945312 121.80419921875 C 144.3541259765625 121.05000305175781 143.0066680908203 120.85427856445312 142.53082275390625 121.66470336914062 L 141.61439514160156 121.04730224609375" stroke-width="0.6000000238418579" fill="rgb(159, 159, 159)" opacity="1.0"/>
    <path d="M 417.946533203125 177.60250854492188 C 416.533935546875 176.28460693359375 414.63909912109375 175.42193603515625 412.709716796875 175.49859619140625 C 410.7803649902344 175.5751953125 408.86065673828125 176.68536376953125 408.0535583496094 178.44842529296875 C 407.4844970703125 179.6956787109375 407.5036926269531 181.161376953125 407.92120361328125 182.46844482421875 C 408.3387145996094 183.7755126953125 409.12640380859375 184.93814086914062 410.0408630371094 185.96142578125 C 410.4390869140625 186.40652465820312 410.8890075683594 186.84457397460938 411.4621276855469 187.00689697265625 C 412.119140625 187.19329833984375 412.81646728515625 186.9840087890625 413.4583740234375 186.74493408203125 C 415.270751953125 186.07000732421875 417.04864501953125 185.09161376953125 418.1768798828125 183.5206298828125 C 419.30517578125 181.94961547851562 419.622802734375 179.68142700195312 418.5377197265625 178.08609008789062 L 417.946533203125 177.60250854492188" stroke-width="0.6000000238418579" fill="rgb(159, 159, 159)" opacity="1.0"/>
    <path d="M 402.8631591796875 186.53460693359375 C 402.1144714355469 184.61495971679688 401.1991271972656 182.51364135742188 399.3243713378906 181.66851806640625 C 397.5023193359375 180.84408569335938 395.3822021484375 181.47711181640625 393.4984130859375 182.15130615234375 C 392.7335510253906 182.42630004882812 391.9377746582031 182.7261962890625 391.394287109375 183.32992553710938 C 390.47442626953125 184.35049438476562 390.54022216796875 185.91497802734375 390.8690490722656 187.24688720703125 C 391.1737976074219 188.4832763671875 391.65447998046875 189.66946411132812 392.2964172363281 190.76919555664062 C 393.3381042480469 192.55523681640625 395.08392333984375 194.21429443359375 397.14788818359375 194.10519409179688 C 398.26226806640625 194.04791259765625 399.30340576171875 193.46621704101562 400.1150207519531 192.697998046875 C 400.9266357421875 191.92974853515625 401.5381774902344 190.977294921875 402.1285095214844 190.02838134765625 C 402.7188415527344 189.0794677734375 403.278564453125 188.13446044921875 403.42376708984375 187.05322265625 L 402.8631591796875 186.53460693359375" stroke-width="0.6000000238418579" fill="rgb(218, 166, 20)" opacity="1.0"/>
    <path d="M 449.9654541015625 179.24847412109375 C 449.0174560546875 182.5794677734375 450.9493408203125 186.04824829101562 454.2802734375 186.9962158203125 C 454.5655517578125 187.077392578125 454.856201171875 187.13821411132812 455.1500244140625 187.17828369140625 C 456.2666015625 187.33023071289062 457.47308349609375 187.154052734375 458.36376953125 186.46466064453125 C 459.1165771484375 185.8822021484375 459.572509765625 185.0003662109375 459.91546630859375 184.1131591796875 C 460.8302001953125 181.737060546875 461.09197998046875 179.15936279296875 460.6737060546875 176.64788818359375 C 460.56201171875 175.98419189453125 460.39453125 175.30908203125 459.99951171875 174.76242065429688 C 459.3369140625 173.84426879882812 458.134765625 173.45123291015625 457.00164794921875 173.45050048828125 C 455.3194580078125 173.44818115234375 453.682373046875 174.1973876953125 452.45306396484375 175.34625244140625 C 451.2237548828125 176.49514770507812 450.38067626953125 178.01702880859375 449.88330078125 179.624267578125 L 449.9654541015625 179.24847412109375" stroke-width="0.6000000238418579" fill="rgb(143, 165, 67)" opacity="1.0"/>
    <path d="M 147.8080291748047 105.72955322265625 C 142.85183715820312 109.1923828125 144.2918701171875 118.23052978515625 149.89805603027344 120.38845825195312 C 155.50425720214844 122.54635620117188 162.42620849609375 117.26754760742188 162.2723388671875 111.22160339355469 C 162.11843872070312 105.17564392089844 155.57843017578125 100.3116455078125 149.63772583007812 101.47488403320312 L 147.8080291748047 105.72955322265625" stroke-width="0.6000000238418579" fill="rgb(233, 92, 21)" opacity="1.0"/>
    <path d="M 452.446533203125 151.93516540527344 C 450.9661865234375 154.4244842529297 449.45611572265625 157.55157470703125 450.93975830078125 160.05035400390625 C 451.56884765625 161.02178955078125 452.48394775390625 161.77410888671875 453.5587158203125 162.20343017578125 C 456.189453125 163.3372802734375 459.20660400390625 163.12567138671875 461.6533203125 161.63571166992188 C 463.7255859375 160.36651611328125 465.1304931640625 158.30023193359375 466.44171142578125 156.27203369140625 C 467.17645263671875 155.13150024414062 467.9207763671875 153.89633178710938 467.90289306640625 152.54718017578125 C 467.8643798828125 150.74908447265625 466.4814453125 149.27772521972656 465.06695556640625 148.16786193847656 C 462.99884033203125 146.54100036621094 460.6810302734375 145.2595977783203 458.20343017578125 144.3733673095703 C 457.3468017578125 144.06881713867188 456.429931640625 143.80752563476562 455.5369873046875 143.97679138183594 C 454.7147216796875 144.1766357421875 453.96844482421875 144.61141967773438 453.3890380859375 145.2281036376953 C 451.55877685546875 147.03036499023438 450.61126708984375 149.5447998046875 450.7969970703125 152.10675048828125 L 452.446533203125 151.93516540527344" stroke-width="0.6000000238418579" fill="rgb(70, 150, 179)" opacity="1.0"/>
    <path d="M 376.1765441894531 78.78755187988281 C 376.22320556640625 75.748291015625 376.1473083496094 72.37754821777344 374.071044921875 70.16021728515625 C 371.8392333984375 67.7796630859375 367.9835205078125 67.65264892578125 364.9557800292969 68.86941528320312 C 363.7882080078125 69.33807373046875 362.6513366699219 70.01220703125 361.9513854980469 71.05746459960938 C 361.37567138671875 71.91653442382812 361.1399841308594 72.9537353515625 360.97161865234375 73.97381591796875 C 360.4367980957031 77.19001770019531 360.5218505859375 80.74588012695312 362.44110107421875 83.38064575195312 C 364.3772277832031 86.03472900390625 368.11126708984375 87.22976684570312 371.2253112792969 86.17402648925781 C 374.33935546875 85.1182861328125 376.6044921875 81.92424011230469 376.5440368652344 78.63446044921875 L 376.1765441894531 78.78755187988281" stroke-width="0.6000000238418579" fill="rgb(140, 28, 33)" opacity="1.0"/>
    <path d="M 130.58409118652344 412.597412109375 C 128.08245849609375 414.4766845703125 125.50009155273438 416.45965576171875 124.01296997070312 419.215087890625 C 122.52587890625 421.970458984375 122.45683288574219 425.763427734375 124.69346618652344 427.9537353515625 C 127.46038818359375 430.6513671875 132.5098876953125 429.498291015625 134.82705688476562 426.3970947265625 C 137.14422607421875 423.2957763671875 137.2593536376953 419.04168701171875 136.45225524902344 415.2603759765625 C 136.31967163085938 414.0648193359375 135.7437744140625 412.96240234375 134.83815002441406 412.17071533203125 C 133.86972045898438 411.4905700683594 132.17501831054688 411.8019104003906 131.9329376220703 412.96630859375 L 130.58409118652344 412.597412109375" stroke-width="0.6000000238418579" fill="rgb(159, 159, 159)" opacity="1.0"/>
    <path d="M 409.14984130859375 206.939453125 C 407.80029296875 204.24258422851562 405.4973449707031 201.9493408203125 402.6328430175781 201.0115966796875 C 399.768310546875 200.0738525390625 396.35552978515625 200.6534423828125 394.21527099609375 202.79379272460938 C 392.7040100097656 204.3089599609375 391.9344787597656 206.4638671875 391.8340759277344 208.6033935546875 C 391.73370361328125 210.742919921875 392.2535400390625 212.87258911132812 393.03460693359375 214.86737060546875 C 393.3750305175781 215.73526000976562 393.7949523925781 216.6209716796875 394.545166015625 217.17034912109375 C 395.4049987792969 217.800537109375 396.5390930175781 217.873779296875 397.6083984375 217.87335205078125 C 400.62725830078125 217.8720703125 403.76092529296875 217.4080810546875 406.26654052734375 215.72354125976562 C 408.77215576171875 214.03897094726562 410.4711608886719 210.89324951171875 409.7516784667969 207.96868896484375 L 409.14984130859375 206.939453125" stroke-width="0.6000000238418579" fill="rgb(159, 159, 159)" opacity="1.0"/>
    <path d="M 386.9328308105469 120.85379028320312 C 384.3223876953125 122.093017578125 381.4744567871094 123.58357238769531 380.4797058105469 126.29058837890625 C 379.50860595703125 128.92181396484375 380.6060791015625 131.82427978515625 381.7375183105469 134.39202880859375 C 382.19866943359375 135.43446350097656 382.69775390625 136.5176544189453 383.5966491699219 137.21759033203125 C 385.1162414550781 138.4022674560547 387.2981872558594 138.1538543701172 389.12847900390625 137.5606689453125 C 390.8275146484375 137.01077270507812 392.43878173828125 136.2197265625 393.9129638671875 135.21180725097656 C 396.3072204589844 133.57606506347656 398.4534606933594 130.96803283691406 398.094482421875 128.09170532226562 C 397.9029541015625 126.53860473632812 396.9851379394531 125.14033508300781 395.8293151855469 124.08181762695312 C 394.67352294921875 123.0233154296875 393.2799987792969 122.2630615234375 391.89361572265625 121.53213500976562 C 390.5072021484375 120.80122375488281 389.1292724609375 120.11271667480469 387.602294921875 120.01771545410156 L 386.9328308105469 120.85379028320312" stroke-width="0.6000000238418579" fill="rgb(218, 166, 20)" opacity="1.0"/>
    <path d="M 401.7705078125 81.52690124511719 C 398.4454345703125 77.95137023925781 392.85137939453125 77.74833679199219 389.2758483886719 81.07342529296875 C 388.96966552734375 81.35813903808594 388.68408203125 81.66423034667969 388.42120361328125 81.9893798828125 C 387.4226379394531 83.22503662109375 386.7541809082031 84.80874633789062 386.9351806640625 86.3863525390625 C 387.0880126953125 87.71954345703125 387.81854248046875 88.91329956054688 388.63812255859375 89.97474670410156 C 390.83587646484375 92.81294250488281 393.7534484863281 95.01091003417969 397.08782958984375 96.34033203125 C 397.96978759765625 96.69026184082031 398.9063415527344 96.98117065429688 399.85406494140625 96.90396118164062 C 401.4451904296875 96.77525329589844 402.79705810546875 95.61239624023438 403.62530517578125 94.24641418457031 C 404.85638427734375 92.21929931640625 405.148193359375 89.69786071777344 404.6602478027344 87.37638854980469 C 404.17230224609375 85.05491638183594 402.95245361328125 82.9268798828125 401.3772277832031 81.1534423828125 L 401.7705078125 81.52690124511719" stroke-width="0.6000000238418579" fill="rgb(143, 165, 67)" opacity="1.0"/>
    <path d="M 117.032958984375 424.3037109375 C 114.0775146484375 419.067138671875 104.99288940429688 419.630859375 102.32208251953125 424.9749755859375 C 99.65130615234375 430.31903076171875 104.21701049804688 437.6748046875 110.21687316894531 438.098876953125 C 116.21673583984375 438.5230712890625 121.65545654296875 432.5125732421875 121.07037353515625 426.52069091796875 L 117.032958984375 424.3037109375" stroke-width="0.6000000238418579" fill="rgb(233, 92, 21)" opacity="1.0"/>
    <path d="M 447.06634521484375 197.085205078125 C 445.62945556640625 199.59747314453125 444.173583984375 202.74746704101562 445.69830322265625 205.21902465820312 C 446.3433837890625 206.17898559570312 447.2703857421875 206.9151611328125 448.3515625 207.32589721679688 C 450.999267578125 208.41424560546875 454.01019287109375 208.15170288085938 456.4295654296875 206.62161254882812 C 458.4786376953125 205.31842041015625 459.8472900390625 203.2301025390625 461.12310791015625 201.181396484375 C 461.837890625 200.02938842773438 462.5606689453125 198.78265380859375 462.51995849609375 197.43496704101562 C 462.4510498046875 195.6390380859375 461.04437255859375 194.19235229492188 459.6123046875 193.10739135742188 C 457.51837158203125 191.51693725585938 455.1807861328125 190.27587890625 452.6903076171875 189.432373046875 C 451.8292236328125 189.142578125 450.90869140625 188.89703369140625 450.0194091796875 189.08123779296875 C 449.2012939453125 189.29486083984375 448.46295166015625 189.74191284179688 447.89453125 190.36788940429688 C 446.0963134765625 192.19961547851562 445.192138671875 194.72796630859375 445.421142578125 197.28457641601562 L 447.06634521484375 197.085205078125" stroke-width="0.6000000238418579" fill="rgb(70, 150, 179)" opacity="1.0"/>
    <path d="M 411.7635192871094 134.44654846191406 C 411.3746337890625 131.42160034179688 410.81658935546875 128.08499145507812 408.4371032714844 126.1802978515625 C 405.87982177734375 124.13577270507812 402.0325622558594 124.561767578125 399.1999816894531 126.20372009277344 C 398.1075744628906 126.83633422851562 397.0750732421875 127.66860961914062 396.5296630859375 128.80690002441406 C 396.0809326171875 129.74246215820312 395.9953918457031 130.80625915527344 395.9742431640625 131.84341430664062 C 395.9036865234375 135.11398315429688 396.4973449707031 138.63311767578125 398.7806396484375 140.97483825683594 C 401.08349609375 143.33334350585938 404.9628601074219 143.98541259765625 407.90423583984375 142.49102783203125 C 410.8455810546875 140.99664306640625 412.6376953125 137.5002899169922 412.1065673828125 134.2418975830078 L 411.7635192871094 134.44654846191406" stroke-width="0.6000000238418579" fill="rgb(140, 28, 33)" opacity="1.0"/>
    <path d="M 399.6060485839844 72.03933715820312 C 400.5875244140625 74.956298828125 401.6409606933594 77.98074340820312 403.7542724609375 80.22120666503906 C 405.8675537109375 82.46163940429688 409.3880615234375 83.69863891601562 412.1248779296875 82.28717041015625 C 415.49920654296875 80.53732299804688 415.9835205078125 75.46563720703125 413.8038330078125 72.34315490722656 C 411.6241455078125 69.22067260742188 407.687255859375 67.798095703125 403.90673828125 67.38282775878906 C 402.74932861328125 67.13702392578125 401.5418701171875 67.33403015136719 400.52264404296875 67.93496704101562 C 399.588134765625 68.6290283203125 399.35498046875 70.30780029296875 400.3674621582031 70.893798828125 L 399.6060485839844 72.03933715820312" stroke-width="0.6000000238418579" fill="rgb(159, 159, 159)" opacity="1.0"/>
    <path d="M 441.947998046875 235.485107421875 C 440.25732421875 237.96725463867188 439.3802490234375 241.08270263671875 439.95452880859375 244.0289306640625 C 440.52880859375 246.97515869140625 442.688720703125 249.6619873046875 445.58856201171875 250.48486328125 C 447.6395263671875 251.0640869140625 449.886962890625 250.68780517578125 451.79638671875 249.737060546875 C 453.705810546875 248.78628540039062 455.30572509765625 247.3009033203125 456.66162109375 245.65377807617188 C 457.251220703125 244.9366455078125 457.8177490234375 244.1417236328125 457.9315185546875 243.22271728515625 C 458.0625 242.169189453125 457.575927734375 241.14730834960938 457.0567626953125 240.21759033203125 C 455.5909423828125 237.59271240234375 453.6669921875 235.09255981445312 450.986328125 233.73077392578125 C 448.3055419921875 232.36898803710938 444.7454833984375 232.41766357421875 442.55108642578125 234.46234130859375 L 441.947998046875 235.485107421875" stroke-width="0.6000000238418579" fill="rgb(159, 159, 159)" opacity="1.0"/>
    <path d="M 408.127685546875 261.60626220703125 C 406.5708923339844 259.2076416015625 404.73651123046875 256.6089172363281 401.9511413574219 255.98699951171875 C 399.2431945800781 255.37838745117188 396.5395812988281 256.8343200683594 394.16876220703125 258.2798156738281 C 393.2065124511719 258.8684387207031 392.209228515625 259.49957275390625 391.6401672363281 260.4727783203125 C 390.6767272949219 262.11822509765625 391.20562744140625 264.2260437011719 392.0267333984375 265.94384765625 C 392.7882385253906 267.53857421875 393.7747802734375 269.01568603515625 394.9561767578125 270.3299865722656 C 396.8736572265625 272.4647216796875 399.71246337890625 274.22906494140625 402.4869384765625 273.5009765625 C 403.9853820800781 273.1100769042969 405.2369689941406 272.0270080566406 406.12420654296875 270.7548828125 C 407.01141357421875 269.4827880859375 407.57501220703125 268.0164794921875 408.1107482910156 266.5610046386719 C 408.646484375 265.10552978515625 409.1417236328125 263.6639099121094 409.0353088378906 262.1536560058594 L 408.127685546875 261.60626220703125" stroke-width="0.6000000238418579" fill="rgb(218, 166, 20)" opacity="1.0"/>
    <path d="M 416.3492431640625 86.99166870117188 C 414.34942626953125 91.48849487304688 416.3736572265625 96.75506591796875 420.8704833984375 98.7548828125 C 421.2554931640625 98.92613220214844 421.6522216796875 99.06983947753906 422.05767822265625 99.1849365234375 C 423.59820556640625 99.62200927734375 425.330810546875 99.61540222167969 426.72186279296875 98.82365417480469 C 427.8974609375 98.15467834472656 428.7152099609375 97.0052490234375 429.3751220703125 95.82562255859375 C 431.13720703125 92.66558837890625 432.0211181640625 89.09136962890625 431.934814453125 85.47425842285156 C 431.910400390625 84.5181884765625 431.80975341796875 83.53486633300781 431.36334228515625 82.686767578125 C 430.61474609375 81.26251220703125 429.001953125 80.4691162109375 427.407958984375 80.24148559570312 C 425.041748046875 79.90188598632812 422.58868408203125 80.62857055664062 420.62939453125 81.99909973144531 C 418.670166015625 83.36961364746094 417.1796875 85.34219360351562 416.1585693359375 87.50396728515625 L 416.3492431640625 86.99166870117188" stroke-width="0.6000000238418579" fill="rgb(143, 165, 67)" opacity="1.0"/>
    <path d="M 442.43572998046875 129.14222717285156 C 439.770263671875 134.48516845703125 445.28466796875 141.64639282226562 451.16650390625 140.87286376953125 C 457.04833984375 140.0992889404297 460.56219482421875 132.25331115722656 457.5755615234375 127.0809326171875 C 454.58892822265625 121.90855407714844 446.6199951171875 120.77519226074219 442.0152587890625 124.5877685546875 L 442.43572998046875 129.14222717285156" stroke-width="0.6000000238418579" fill="rgb(233, 92, 21)" opacity="1.0"/>
    <path d="M 446.683349609375 94.94680786132812 C 445.79681396484375 97.69393920898438 445.022705078125 101.06741333007812 447.0184326171875 103.1666259765625 C 447.84515380859375 103.97111511230469 448.901123046875 104.49925231933594 450.040771484375 104.67814636230469 C 452.8485107421875 105.1966552734375 455.7333984375 104.32211303710938 457.78057861328125 102.33183288574219 C 459.5128173828125 100.63908386230469 460.419921875 98.31973266601562 461.244384765625 96.05813598632812 C 461.7054443359375 94.78695678710938 462.1549072265625 93.42170715332031 461.83843994140625 92.11466979980469 C 461.40234375 90.37594604492188 459.7322998046875 89.25279235839844 458.1116943359375 88.48793029785156 C 455.74139404296875 87.36557006835938 453.20501708984375 86.63429260253906 450.6009521484375 86.32243347167969 C 449.7010498046875 86.21641540527344 448.75213623046875 86.16580200195312 447.9219970703125 86.52825927734375 C 447.16729736328125 86.90475463867188 446.5384521484375 87.49270629882812 446.1121826171875 88.22041320800781 C 444.7332763671875 90.37750244140625 444.3699951171875 93.03091430664062 445.11846923828125 95.47926330566406 L 446.683349609375 94.94680786132812" stroke-width="0.6000000238418579" fill="rgb(70, 150, 179)" opacity="1.0"/>
    <path d="M 321.01318359375 376.6038818359375 C 318.1539001464844 377.1760559082031 315.0086364746094 377.9302978515625 313.3503112792969 380.3265075683594 C 311.5704040527344 382.9016418457031 312.232666015625 386.5427551269531 313.9871826171875 389.13519287109375 C 314.6632385253906 390.135009765625 315.5257568359375 391.0644226074219 316.6477355957031 391.5088806152344 C 317.5699157714844 391.8746337890625 318.5902099609375 391.88543701171875 319.5808410644531 391.83660888671875 C 322.7049560546875 391.6863098144531 326.0219421386719 390.88592529296875 328.103515625 388.5523681640625 C 330.1998291015625 386.19903564453125 330.56365966796875 382.4555969238281 328.942626953125 379.74957275390625 C 327.3216247558594 377.0435791015625 323.8676452636719 375.56695556640625 320.795166015625 376.2903137207031 L 321.01318359375 376.6038818359375" stroke-width="0.6000000238418579" fill="rgb(140, 28, 33)" opacity="1.0"/>
    <path d="M 306.6307067871094 397.32086181640625 C 303.4499816894531 398.48358154296875 300.1530456542969 399.728515625 297.74871826171875 402.1169738769531 C 295.34442138671875 404.5054016113281 294.083984375 408.4132385253906 295.71453857421875 411.3835144042969 C 297.7354736328125 415.0455322265625 303.32818603515625 415.433837890625 306.70086669921875 412.94720458984375 C 310.07354736328125 410.4606018066406 311.5262756347656 406.0894775390625 311.8753967285156 401.9190368652344 C 312.1128234863281 400.6388854980469 311.8617248535156 399.3162841796875 311.1716613769531 398.21221923828125 C 310.3815612792969 397.20404052734375 308.52825927734375 396.9953918457031 307.9124755859375 398.12579345703125 L 306.6307067871094 397.32086181640625" stroke-width="0.6000000238418579" fill="rgb(159, 159, 159)" opacity="1.0"/>
    <path d="M 322.7160339355469 412.48333740234375 C 319.7146301269531 413.697265625 317.06378173828125 415.966064453125 315.8155822753906 418.9515380859375 C 314.5673522949219 421.93701171875 314.8962097167969 425.6387939453125 317.0039978027344 428.112060546875 C 318.4964599609375 429.85882568359375 320.73687744140625 430.8663330078125 323.01800537109375 431.156494140625 C 325.29913330078125 431.4466552734375 327.6226501464844 431.072265625 329.82415771484375 430.40667724609375 C 330.7820129394531 430.116455078125 331.7657775878906 429.74273681640625 332.4177551269531 428.98681640625 C 333.1656188964844 428.12042236328125 333.34088134765625 426.9129638671875 333.43170166015625 425.7685546875 C 333.6881408691406 422.5377197265625 333.459228515625 419.14453125 331.87042236328125 416.31915283203125 C 330.2815856933594 413.49383544921875 327.0601806640625 411.4069519042969 323.868896484375 411.9271545410156 L 322.7160339355469 412.48333740234375" stroke-width="0.6000000238418579" fill="rgb(159, 159, 159)" opacity="1.0"/>
    <path d="M 273.22412109375 415.2618408203125 C 270.9640808105469 417.40869140625 268.544921875 419.8929443359375 268.43402099609375 423.0020751953125 C 268.3219299316406 426.02557373046875 270.4215393066406 428.632568359375 272.4435729980469 430.88507080078125 C 273.2663269042969 431.7989501953125 274.1416320800781 432.7418212890625 275.29815673828125 433.15753173828125 C 277.2537536621094 433.86181640625 279.4071960449219 432.87457275390625 281.0843811035156 431.65191650390625 C 282.64154052734375 430.5177001953125 284.0277404785156 429.165771484375 285.20062255859375 427.6375732421875 C 287.1059265136719 425.15679931640625 288.4305114746094 421.76251220703125 287.0967712402344 418.934326171875 C 286.37896728515625 417.406494140625 284.9685974121094 416.2811279296875 283.42828369140625 415.5841064453125 C 281.88800048828125 414.886962890625 280.20416259765625 414.57550048828125 278.5374755859375 414.2916259765625 C 276.87078857421875 414.0078125 275.2270202636719 413.7646484375 273.6297302246094 414.179931640625 L 273.22412109375 415.2618408203125" stroke-width="0.6000000238418579" fill="rgb(218, 166, 20)" opacity="1.0"/>
    <path d="M 222.9947509765625 413.77178955078125 C 217.90798950195312 412.130126953125 212.45355224609375 414.9229736328125 210.8118896484375 420.00970458984375 C 210.67132568359375 420.4453125 210.56182861328125 420.8902587890625 210.48422241210938 421.34136962890625 C 210.18966674804688 423.055419921875 210.39642333984375 424.92584228515625 211.4117431640625 426.33685302734375 C 212.26962280273438 427.529296875 213.60516357421875 428.28009033203125 214.95513916015625 428.85687255859375 C 218.57086181640625 430.39581298828125 222.53265380859375 430.93853759765625 226.42901611328125 430.4287109375 C 227.45870971679688 430.292236328125 228.50906372070312 430.0701904296875 229.37353515625 429.4903564453125 C 230.825439453125 428.517822265625 231.4964599609375 426.6846923828125 231.55865478515625 424.93701171875 C 231.65277099609375 422.342529296875 230.58538818359375 419.77703857421875 228.87957763671875 417.8189697265625 C 227.17376708984375 415.8609619140625 224.87176513671875 414.4786376953125 222.41949462890625 413.6248779296875 L 222.9947509765625 413.77178955078125" stroke-width="0.6000000238418579" fill="rgb(143, 165, 67)" opacity="1.0"/>
    <path d="M 286.082275390625 365.7233581542969 C 287.20458984375 372.1708068847656 296.72662353515625 374.9037170410156 301.41339111328125 370.3966369628906 C 306.1001281738281 365.8895263671875 304.0987854003906 356.6819152832031 298.100341796875 354.0601501464844 C 292.10186767578125 351.43841552734375 284.3336486816406 355.6200866699219 282.7497863769531 361.9782409667969 L 286.082275390625 365.7233581542969" stroke-width="0.6000000238418579" fill="rgb(233, 92, 21)" opacity="1.0"/>
    <path d="M 332.0981140136719 361.24542236328125 C 332.2579040527344 364.35723876953125 332.7715148925781 368.05780029296875 335.590576171875 369.40985107421875 C 336.7333984375 369.90423583984375 338.00146484375 370.0318603515625 339.2198791503906 369.7750244140625 C 342.2515869140625 369.22064208984375 344.8265686035156 367.2312316894531 346.12823486328125 364.4375915527344 C 347.226318359375 362.06500244140625 347.25140380859375 359.3769226074219 347.21533203125 356.7787780761719 C 347.19268798828125 355.3193359375 347.1221923828125 353.7694396972656 346.30133056640625 352.57220458984375 C 345.194091796875 350.9853515625 343.07818603515625 350.4930725097656 341.1496276855469 350.34332275390625 C 338.3274841308594 350.12060546875 335.4878845214844 350.35614013671875 332.740966796875 351.04083251953125 C 331.7923278808594 351.2792053222656 330.8155517578125 351.5923156738281 330.1170959472656 352.2765808105469 C 329.50018310546875 352.9460144042969 329.0914001464844 353.780517578125 328.94061279296875 354.67828369140625 C 328.3771667480469 357.3837585449219 329.0289611816406 360.2002258300781 330.7236328125 362.3831481933594 L 332.0981140136719 361.24542236328125" stroke-width="0.6000000238418579" fill="rgb(70, 150, 179)" opacity="1.0"/>
    <path d="M 295.4966735839844 415.9583740234375 C 292.1965637207031 416.19482421875 288.5486145019531 416.5953369140625 286.3402404785156 419.05615234375 C 283.9695739746094 421.7010498046875 284.1958923339844 425.89410400390625 285.8012390136719 429.0623779296875 C 286.419677734375 430.2841796875 287.2580261230469 431.453369140625 288.45758056640625 432.1136474609375 C 289.4434814453125 432.6568603515625 290.5904541015625 432.814453125 291.7124938964844 432.9007568359375 C 295.25054931640625 433.177001953125 299.0984191894531 432.7490234375 301.7742614746094 430.4190673828125 C 304.4694519042969 428.0689697265625 305.4127502441406 423.906982421875 303.973876953125 420.6298828125 C 302.5350036621094 417.352783203125 298.85760498046875 415.19818115234375 295.2959899902344 415.5743408203125 L 295.4966735839844 415.9583740234375" stroke-width="0.6000000238418579" fill="rgb(140, 28, 33)" opacity="1.0"/>
    <path d="M 334.93359375 388.7392578125 C 331.5720520019531 389.154052734375 328.0787658691406 389.62274169921875 325.1969909667969 391.4070739746094 C 322.31524658203125 393.19140625 320.2049865722656 396.7143249511719 321.1231384277344 399.9764404296875 C 322.2654724121094 404.0006103515625 327.62689208984375 405.6414794921875 331.47430419921875 403.9801025390625 C 335.32171630859375 402.3187561035156 337.72393798828125 398.3878479003906 339.00555419921875 394.4033508300781 C 339.52587890625 393.20965576171875 339.5798034667969 391.8643493652344 339.1567077636719 390.6328430175781 C 338.614501953125 389.4721984863281 336.85589599609375 388.8504943847656 336.000732421875 389.8128662109375 L 334.93359375 388.7392578125" stroke-width="0.6000000238418579" fill="rgb(159, 159, 159)" opacity="1.0"/>
    <path d="M 345.7567443847656 410.4737243652344 C 342.526123046875 410.49517822265625 339.23248291015625 411.6239929199219 336.97607421875 413.93377685546875 C 334.71966552734375 416.2435302734375 333.66241455078125 419.798095703125 334.7073059082031 422.8677978515625 C 335.44879150390625 425.037109375 337.15606689453125 426.796142578125 339.1650695800781 427.90472412109375 C 341.1741027832031 429.0133056640625 343.467041015625 429.52105712890625 345.7539367675781 429.7138671875 C 346.7491760253906 429.7972412109375 347.79913330078125 429.8126220703125 348.68206787109375 429.351318359375 C 349.694580078125 428.822998046875 350.30145263671875 427.767578125 350.8068542480469 426.739501953125 C 352.2336730957031 423.837158203125 353.27001953125 420.6055908203125 352.8360900878906 417.400390625 C 352.40216064453125 414.195068359375 350.1821594238281 411.073974609375 347.0307312011719 410.3821105957031 L 345.7567443847656 410.4737243652344" stroke-width="0.6000000238418579" fill="rgb(159, 159, 159)" opacity="1.0"/>
    <path d="M 255.5872802734375 368.96124267578125 C 256.04718017578125 365.825439453125 256.42254638671875 362.3199157714844 254.55950927734375 359.76361083984375 C 252.751220703125 357.2750549316406 249.4354248046875 356.5079650878906 246.40423583984375 355.9757080078125 C 245.17251586914062 355.7613220214844 243.88055419921875 355.5566711425781 242.69461059570312 355.95013427734375 C 240.68838500976562 356.6144714355469 239.5858154296875 358.755859375 239.01187133789062 360.78656005859375 C 238.47845458984375 362.67120361328125 238.2183837890625 364.6226501464844 238.23968505859375 366.5812072753906 C 238.2730712890625 369.7613830566406 239.34439086914062 373.3076477050781 242.18646240234375 374.7323913574219 C 243.71969604492188 375.5037841796875 245.55410766601562 375.5184631347656 247.2236328125 375.10906982421875 C 248.89315795898438 374.69970703125 250.4354248046875 373.891845703125 251.94662475585938 373.0726013183594 C 253.45782470703125 372.25335693359375 254.9251708984375 371.4159851074219 255.9420166015625 370.0811462402344 L 255.5872802734375 368.96124267578125" stroke-width="0.6000000238418579" fill="rgb(218, 166, 20)" opacity="1.0"/>
    <path d="M 252.94384765625 391.0277404785156 C 250.29498291015625 386.3759460449219 244.37664794921875 384.75225830078125 239.72488403320312 387.4010925292969 C 239.3265380859375 387.6278991699219 238.94482421875 387.8826904296875 238.58251953125 388.1635437011719 C 237.2061767578125 389.23095703125 236.094482421875 390.7527770996094 235.89080810546875 392.48175048828125 C 235.71856689453125 393.9428405761719 236.1978759765625 395.40045166015625 236.80548095703125 396.7392578125 C 238.436767578125 400.3206787109375 240.99728393554688 403.39996337890625 244.22100830078125 405.65728759765625 C 245.07412719726562 406.2525329589844 246.00030517578125 406.79852294921875 247.03106689453125 406.9544982910156 C 248.7613525390625 407.2173767089844 250.49636840820312 406.3165283203125 251.72378540039062 405.0672302246094 C 253.54733276367188 403.2137145996094 254.49295043945312 400.5965270996094 254.55615234375 397.9965515136719 C 254.619384765625 395.3965759277344 253.85296630859375 392.8189392089844 252.61810302734375 390.5303039550781 L 252.94384765625 391.0277404785156" stroke-width="0.6000000238418579" fill="rgb(143, 165, 67)" opacity="1.0"/>
    <path d="M 203.16424560546875 371.00115966796875 C 201.513427734375 377.37457275390625 209.10174560546875 383.8350830078125 215.26849365234375 381.6532287597656 C 221.43524169921875 379.4713439941406 223.42764282226562 370.203857421875 219.0213623046875 365.309326171875 C 214.61505126953125 360.414794921875 205.76034545898438 361.0180969238281 201.66726684570312 366.1852111816406 L 203.16424560546875 371.00115966796875" stroke-width="0.6000000238418579" fill="rgb(233, 92, 21)" opacity="1.0"/>
    <path d="M 268.89324951171875 368.734375 C 268.6501770019531 371.8431701660156 268.6822204589844 375.5819091796875 271.30535888671875 377.28753662109375 C 272.37567138671875 377.9256591796875 273.6176452636719 378.2159729003906 274.85992431640625 378.11834716796875 C 277.9401550292969 377.95953369140625 280.7523498535156 376.31756591796875 282.4046936035156 373.71319580078125 C 283.8006591796875 371.5003662109375 284.1725158691406 368.8359375 284.4720764160156 366.2528991699219 C 284.63800048828125 364.8016357421875 284.76806640625 363.2544250488281 284.10797119140625 361.9603271484375 C 283.2139892578125 360.2426452636719 281.1777038574219 359.4809875488281 279.28314208984375 359.08343505859375 C 276.51116943359375 358.4981689453125 273.6627502441406 358.36541748046875 270.8483581542969 358.6903381347656 C 269.87615966796875 358.8044738769531 268.86639404296875 358.9891052246094 268.0849304199219 359.5780029296875 C 267.38629150390625 360.1627502441406 266.8729248046875 360.9381408691406 266.60736083984375 361.8096008300781 C 265.69903564453125 364.42181396484375 265.9823303222656 367.30096435546875 267.38238525390625 369.68603515625 L 268.89324951171875 368.734375" stroke-width="0.6000000238418579" fill="rgb(70, 150, 179)" opacity="1.0"/>
    <path d="M 327.94537353515625 364.7889404296875 C 328.6759033203125 361.51556396484375 329.3481750488281 357.8565979003906 327.6009826660156 354.9962463378906 C 325.7222900390625 351.9247131347656 321.5847473144531 350.9246826171875 318.0411071777344 351.5618591308594 C 316.6747131347656 351.80694580078125 315.29547119140625 352.2809143066406 314.3053283691406 353.253662109375 C 313.4910583496094 354.05303955078125 313.0043029785156 355.1209411621094 312.5941162109375 356.1854248046875 C 311.29656982421875 359.540771484375 310.5927734375 363.40179443359375 312.0768737792969 366.67803955078125 C 313.57489013671875 369.97894287109375 317.34197998046875 372.105712890625 320.94287109375 371.6618347167969 C 324.5437316894531 371.2179870605469 327.7058410644531 368.2737731933594 328.376708984375 364.7057800292969 L 327.94537353515625 364.7889404296875" stroke-width="0.6000000238418579" fill="rgb(140, 28, 33)" opacity="1.0"/>
    <path d="M 352.107177734375 393.64324951171875 C 348.74505615234375 394.1120300292969 345.2517395019531 394.63690185546875 342.3919982910156 396.4705505371094 C 339.5323181152344 398.3041687011719 337.47320556640625 401.867919921875 338.44482421875 405.1224670410156 C 339.65313720703125 409.1371765136719 345.0518798828125 410.69683837890625 348.8812561035156 408.9711608886719 C 352.71063232421875 407.2455139160156 355.05584716796875 403.268310546875 356.2772521972656 399.25506591796875 C 356.7798156738281 398.0506286621094 356.8126220703125 396.70159912109375 356.3691711425781 395.47418212890625 C 355.8074951171875 394.3196105957031 354.03533935546875 393.724365234375 353.19354248046875 394.7023010253906 L 352.107177734375 393.64324951171875" stroke-width="0.6000000238418579" fill="rgb(159, 159, 159)" opacity="1.0"/>
    <path d="M 187.63092041015625 408.24951171875 C 184.44338989257812 408.8579406738281 181.39486694335938 410.57171630859375 179.58566284179688 413.26361083984375 C 177.77645874023438 415.95550537109375 177.37811279296875 419.6591796875 178.96829223632812 422.501708984375 C 180.0950927734375 424.50994873046875 182.10137939453125 425.93731689453125 184.28753662109375 426.667236328125 C 186.47372436523438 427.397216796875 188.83114624023438 427.4820556640625 191.12533569335938 427.2568359375 C 192.1236572265625 427.1583251953125 193.1636962890625 426.982666015625 193.95208740234375 426.366455078125 C 194.85626220703125 425.6605224609375 195.26394653320312 424.507568359375 195.57635498046875 423.400146484375 C 196.45831298828125 420.27362060546875 196.89471435546875 416.89288330078125 195.8834228515625 413.805419921875 C 194.87213134765625 410.7178649902344 192.11175537109375 408.0380859375 188.872802734375 407.9274597167969 L 187.63092041015625 408.24951171875" stroke-width="0.6000000238418579" fill="rgb(159, 159, 159)" opacity="1.0"/>
    <path d="M 357.1106872558594 374.6158447265625 C 354.0706787109375 375.2874450683594 350.7206726074219 376.1656799316406 349.023193359375 378.76824951171875 C 347.3688049316406 381.29693603515625 347.8211364746094 384.6094055175781 348.3898620605469 387.5785827636719 C 348.6226806640625 388.784423828125 348.88543701171875 390.0422058105469 349.6604919433594 390.9939880371094 C 350.9704284667969 392.6044921875 353.32147216796875 392.86993408203125 355.3864440917969 392.68853759765625 C 357.30316162109375 392.52093505859375 359.1858825683594 392.0789489746094 360.97698974609375 391.3761291503906 C 363.8856201171875 390.2360534667969 366.76837158203125 388.01513671875 367.0851745605469 384.90826416015625 C 367.2586975097656 383.2312316894531 366.6322021484375 381.5415954589844 365.6738586425781 380.15130615234375 C 364.71551513671875 378.76104736328125 363.4356384277344 377.6266174316406 362.1561279296875 376.52471923828125 C 360.87664794921875 375.42279052734375 359.5958251953125 374.3674621582031 358.01531982421875 373.8994140625 L 357.1106872558594 374.6158447265625" stroke-width="0.6000000238418579" fill="rgb(218, 166, 20)" opacity="1.0"/>
    <path d="M 374.0212097167969 385.4963073730469 C 370.1565856933594 389.1969909667969 370.0237121582031 395.32989501953125 373.72442626953125 399.19451904296875 C 374.04132080078125 399.52545166015625 374.38128662109375 399.8334655761719 374.74176025390625 400.11627197265625 C 376.1117248535156 401.190673828125 377.8577880859375 401.8977966308594 379.5835266113281 401.6741943359375 C 381.0419006347656 401.4853820800781 382.3382568359375 400.665771484375 383.4881896972656 399.7507019042969 C 386.56292724609375 397.297119140625 388.92462158203125 394.0649719238281 390.3279113769531 390.39007568359375 C 390.69720458984375 389.4180603027344 391.0009765625 388.38720703125 390.90118408203125 387.3499450683594 C 390.73468017578125 385.6085510253906 389.4388427734375 384.1459045410156 387.9288024902344 383.2602233886719 C 385.6878967285156 381.9437561035156 382.9203796386719 381.66436767578125 380.38446044921875 382.2362060546875 C 377.8485412597656 382.80804443359375 375.5362854003906 384.17877197265625 373.6183166503906 385.9331970214844 L 374.0212097167969 385.4963073730469" stroke-width="0.6000000238418579" fill="rgb(143, 165, 67)" opacity="1.0"/>
    <path d="M 366.561767578125 362.5295104980469 C 368.71026611328125 368.69793701171875 378.5305480957031 369.8489990234375 382.41729736328125 364.6517639160156 C 386.3039855957031 359.4544982910156 382.84320068359375 350.7098388671875 376.51123046875 349.0981750488281 C 370.17926025390625 347.4865417480469 363.2049865722656 352.86181640625 362.6737365722656 359.380126953125 L 366.561767578125 362.5295104980469" stroke-width="0.6000000238418579" fill="rgb(233, 92, 21)" opacity="1.0"/>
    <path d="M 398.1710510253906 364.7516174316406 C 398.0005187988281 367.8882751464844 398.1221618652344 371.6528015136719 400.8046875 373.307861328125 C 401.8978576660156 373.9249572753906 403.15557861328125 374.1876525878906 404.4043273925781 374.0596618652344 C 407.5026550292969 373.8260803222656 410.2955627441406 372.10528564453125 411.89739990234375 369.44293212890625 C 413.25042724609375 367.1810302734375 413.56121826171875 364.4888000488281 413.80120849609375 361.8802490234375 C 413.93359375 360.4147033691406 414.02764892578125 358.8534240722656 413.3319091796875 357.56591796875 C 412.39056396484375 355.8573913574219 410.32159423828125 355.13897705078125 408.40411376953125 354.78387451171875 C 405.5984802246094 354.26068115234375 402.7266540527344 354.1950378417969 399.9000549316406 354.58953857421875 C 398.9236755371094 354.7276916503906 397.9111328125 354.9377746582031 397.13818359375 355.5495300292969 C 396.4485778808594 356.1551208496094 395.9500732421875 356.94830322265625 395.7034606933594 357.8323059082031 C 394.8511047363281 360.4847412109375 395.2052001953125 363.3775939941406 396.67218017578125 365.74615478515625 L 398.1710510253906 364.7516174316406" stroke-width="0.6000000238418579" fill="rgb(70, 150, 179)" opacity="1.0"/>
    <path d="M 388.86163330078125 413.7724609375 C 387.4306335449219 416.749267578125 385.9694519042969 420.1090087890625 387.0071716308594 423.242431640625 C 388.12396240234375 426.6077880859375 391.86956787109375 428.4901123046875 395.4107666015625 428.6695556640625 C 396.7760925292969 428.7392578125 398.2048034667969 428.59234619140625 399.37158203125 427.88018798828125 C 400.3309631347656 427.295166015625 401.0361328125 426.37939453125 401.66705322265625 425.4498291015625 C 403.6602478027344 422.5208740234375 405.1967468261719 418.97442626953125 404.5041198730469 415.500732421875 C 403.80364990234375 412.0003662109375 400.6647644042969 409.119873046875 397.1117858886719 408.7422790527344 C 393.5588073730469 408.3646545410156 389.8688659667969 410.4832458496094 388.4293518066406 413.7559814453125 L 388.86163330078125 413.7724609375" stroke-width="0.6000000238418579" fill="rgb(140, 28, 33)" opacity="1.0"/>
    <path d="M 406.3040771484375 394.2247314453125 C 404.8645935058594 397.27734375 403.4003601074219 400.4696350097656 403.3699035644531 403.846923828125 C 403.3394775390625 407.2241516113281 405.18426513671875 410.8767395019531 408.4209899902344 411.83929443359375 C 412.41900634765625 413.0185546875 416.654541015625 409.3751525878906 417.302490234375 405.24981689453125 C 417.950439453125 401.1244812011719 415.9173583984375 397.00885009765625 413.24267578125 393.8086853027344 C 412.51397705078125 392.735107421875 411.40936279296875 391.9737243652344 410.1467590332031 391.6747741699219 C 408.88043212890625 391.51385498046875 407.4208068847656 392.6645202636719 407.77642822265625 393.8970947265625 L 406.3040771484375 394.2247314453125" stroke-width="0.6000000238418579" fill="rgb(159, 159, 159)" opacity="1.0"/>
    <path d="M 433.0164794921875 368.9874267578125 C 433.4542236328125 372.2251892089844 435.0107421875 375.38348388671875 437.6182861328125 377.3492736816406 C 440.225830078125 379.3150329589844 443.927490234375 379.9176330566406 446.8719482421875 378.47412109375 C 448.952392578125 377.4508972167969 450.49688720703125 375.51177978515625 451.35009765625 373.3537902832031 C 452.2032470703125 371.19580078125 452.4171142578125 368.8304138183594 452.31597900390625 366.5116882324219 C 452.2713623046875 365.5026550292969 452.1514892578125 364.4474792480469 451.5750732421875 363.62127685546875 C 450.9146728515625 362.6737365722656 449.77783203125 362.2009582519531 448.6815185546875 361.8264465332031 C 445.5865478515625 360.7691345214844 442.2115478515625 360.1459045410156 439.0523681640625 360.99407958984375 C 435.8931884765625 361.8422546386719 433.0484619140625 364.47113037109375 432.760498046875 367.7213439941406 L 433.0164794921875 368.9874267578125" stroke-width="0.6000000238418579" fill="rgb(159, 159, 159)" opacity="1.0"/>
    <path d="M 421.73797607421875 408.2276306152344 C 418.82958984375 409.4246520996094 415.6485595703125 410.8811950683594 414.41192626953125 413.766357421875 C 413.205322265625 416.5704345703125 414.2315673828125 419.7880859375 415.3138427734375 422.6439208984375 C 415.7552490234375 423.803466796875 416.2354736328125 425.0093994140625 417.17230224609375 425.82177734375 C 418.75592041015625 427.1966552734375 421.1417236328125 427.05194091796875 423.16510009765625 426.5123291015625 C 425.0433349609375 426.01220703125 426.840087890625 425.24493408203125 428.500244140625 424.23406982421875 C 431.1964111328125 422.59368896484375 433.678955078125 419.8822021484375 433.45391845703125 416.7353515625 C 433.3349609375 415.03631591796875 432.4176025390625 413.4638671875 431.22216796875 412.2469482421875 C 430.0267333984375 411.0301208496094 428.5557861328125 410.1238098144531 427.09088134765625 409.249755859375 C 425.6259765625 408.375732421875 424.1678466796875 407.54827880859375 422.513671875 407.35736083984375 L 421.73797607421875 408.2276306152344" stroke-width="0.6000000238418579" fill="rgb(218, 166, 20)" opacity="1.0"/>
    <path d="M 142.99404907226562 227.85986328125 C 139.662109375 231.98040771484375 140.30137634277344 238.02178955078125 144.42189025878906 241.35372924804688 C 144.7747344970703 241.6390380859375 145.14736938476562 241.89898681640625 145.53700256347656 242.13156127929688 C 147.0176544189453 243.01504516601562 148.82167053222656 243.49050903320312 150.48890686035156 243.05426025390625 C 151.8978729248047 242.68569946289062 153.0684814453125 241.71783447265625 154.08328247070312 240.674560546875 C 156.79580688476562 237.8782958984375 158.71014404296875 234.40673828125 159.62741088867188 230.6204833984375 C 159.86819458007812 229.6192626953125 160.0372314453125 228.5684814453125 159.80899047851562 227.56207275390625 C 159.42681884765625 225.87225341796875 157.97027587890625 224.59805297851562 156.37567138671875 223.91754150390625 C 154.00904846191406 222.90557861328125 151.25527954101562 222.97848510742188 148.8358612060547 223.85858154296875 C 146.41644287109375 224.7386474609375 144.31703186035156 226.37542724609375 142.65309143066406 228.33966064453125 L 142.99404907226562 227.85986328125" stroke-width="0.6000000238418579" fill="rgb(143, 165, 67)" opacity="1.0"/>
    <path d="M 168.9273681640625 262.87353515625 C 170.45046997070312 269.2135925292969 180.09112548828125 271.32977294921875 184.46673583984375 266.55224609375 C 188.84231567382812 261.7747497558594 186.27090454101562 252.74566650390625 180.140869140625 250.51751708984375 C 174.0108642578125 248.28939819335938 166.55072021484375 252.93792724609375 165.3773193359375 259.36004638671875 L 168.9273681640625 262.87353515625" stroke-width="0.6000000238418579" fill="rgb(233, 92, 21)" opacity="1.0"/>
    <path d="M 154.7587890625 313.06585693359375 C 153.3478240966797 315.84368896484375 151.9504852294922 319.30816650390625 153.72166442871094 321.88427734375 C 154.46641540527344 322.88201904296875 155.50241088867188 323.6241149902344 156.686767578125 324.0080871582031 C 159.59161376953125 325.03704833984375 162.81500244140625 324.5942077636719 165.33474731445312 322.82000732421875 C 167.46832275390625 321.3095397949219 168.82858276367188 318.9911804199219 170.091064453125 316.72039794921875 C 170.79815673828125 315.4436340332031 171.50875854492188 314.06463623046875 171.39315795898438 312.6177673339844 C 171.2232666015625 310.6904602050781 169.6336669921875 309.2099914550781 168.0360107421875 308.1198425292969 C 165.6998291015625 306.52142333984375 163.12030029296875 305.31170654296875 160.39755249023438 304.53759765625 C 159.456298828125 304.27191162109375 158.45343017578125 304.0570068359375 157.50704956054688 304.30255126953125 C 156.6387939453125 304.5758361816406 155.86880493164062 305.09588623046875 155.29098510742188 305.79925537109375 C 153.45526123046875 307.8645935058594 152.61798095703125 310.63128662109375 153.00045776367188 313.3679504394531 L 154.7587890625 313.06585693359375" stroke-width="0.6000000238418579" fill="rgb(70, 150, 179)" opacity="1.0"/>
    <path d="M 124.5740966796875 300.54327392578125 C 123.60348510742188 297.4034118652344 122.39581298828125 293.9638977050781 119.51838684082031 292.38043212890625 C 116.42636108398438 290.6813049316406 112.42033386230469 291.8429260253906 109.71575927734375 294.1084289550781 C 108.672607421875 294.9814758300781 107.72987365722656 296.05548095703125 107.36068725585938 297.3645324707031 C 107.05679321289062 298.4405517578125 107.162109375 299.5857238769531 107.33090209960938 300.69073486328125 C 107.85899353027344 304.17608642578125 109.13813781738281 307.8028259277344 111.99404907226562 309.8680114746094 C 114.87379455566406 311.9474182128906 119.11270141601562 311.9244384765625 121.9599609375 309.7955627441406 C 124.80723571777344 307.6666564941406 126.06521606445312 303.62420654296875 124.90054321289062 300.26275634765625 L 124.5740966796875 300.54327392578125" stroke-width="0.6000000238418579" fill="rgb(140, 28, 33)" opacity="1.0"/>
    <path d="M 140.00205993652344 275.37506103515625 C 136.9661865234375 276.84619140625 133.82339477539062 278.41046142578125 131.67984008789062 281.0185852050781 C 129.53631591796875 283.626708984375 128.67874145507812 287.62603759765625 130.59246826171875 290.4064636230469 C 132.96240234375 293.8333435058594 138.54420471191406 293.6576232910156 141.6376495361328 290.8551940917969 C 144.73109436035156 288.052734375 145.73281860351562 283.574951171875 145.66085815429688 279.40667724609375 C 145.7678680419922 278.1141052246094 145.38645935058594 276.8284606933594 144.59190368652344 275.80340576171875 C 143.7078094482422 274.88336181640625 141.85009765625 274.8623046875 141.35308837890625 276.04437255859375 L 140.00205993652344 275.37506103515625" stroke-width="0.6000000238418579" fill="rgb(159, 159, 159)" opacity="1.0"/>
    <path d="M 158.426025390625 295.41680908203125 C 156.66082763671875 298.1254577636719 155.78524780273438 301.4978942871094 156.46795654296875 304.6563415527344 C 157.15069580078125 307.81475830078125 159.53436279296875 310.6592102050781 162.67355346679688 311.48126220703125 C 164.89373779296875 312.0596618652344 167.30438232421875 311.6053466796875 169.33865356445312 310.5401611328125 C 171.3729248046875 309.4749450683594 173.06231689453125 307.84112548828125 174.48553466796875 306.0385437011719 C 175.1043701171875 305.2537536621094 175.69674682617188 304.3857421875 175.79901123046875 303.3941345214844 C 175.91680908203125 302.25732421875 175.3707275390625 301.16815185546875 174.79150390625 300.1788635253906 C 173.15625 297.3858947753906 171.0306396484375 294.7371520996094 168.11550903320312 293.3302917480469 C 165.20037841796875 291.9234313964844 161.36965942382812 292.0539245605469 159.052734375 294.3027648925781 L 158.426025390625 295.41680908203125" stroke-width="0.6000000238418579" fill="rgb(159, 159, 159)" opacity="1.0"/>
    <path d="M 124.66934204101562 345.1589050292969 C 124.02987670898438 342.1014404296875 123.18661499023438 338.7306213378906 120.59474182128906 336.99822998046875 C 118.07650756835938 335.3099060058594 114.7481689453125 335.726318359375 111.76290893554688 336.26336669921875 C 110.55050659179688 336.4833068847656 109.28567504882812 336.7327575683594 108.32205200195312 337.49957275390625 C 106.69149780273438 338.7955627441406 106.39866638183594 341.1512756347656 106.55732727050781 343.22503662109375 C 106.703857421875 345.1498718261719 107.12602233886719 347.043701171875 107.81088256835938 348.8485412597656 C 108.92185974121094 351.7795104980469 111.117431640625 354.69671630859375 114.2308349609375 355.0496520996094 C 115.911376953125 355.2426452636719 117.61357116699219 354.6332092285156 119.01919555664062 353.68743896484375 C 120.42481994628906 352.7416687011719 121.577392578125 351.4704284667969 122.69732666015625 350.19921875 C 123.8172607421875 348.9280090332031 124.89047241210938 347.6549377441406 125.37789916992188 346.0745849609375 L 124.66934204101562 345.1589050292969" stroke-width="0.6000000238418579" fill="rgb(218, 166, 20)" opacity="1.0"/>
    <path d="M 167.0888671875 349.41326904296875 C 163.05389404296875 352.9158935546875 162.62237548828125 359.0263366699219 166.125 363.0613098144531 C 166.4249267578125 363.4068298339844 166.74899291992188 363.7306213378906 167.0947265625 364.0302734375 C 168.40875244140625 365.1686706542969 170.11578369140625 365.9590759277344 171.84793090820312 365.8201904296875 C 173.31170654296875 365.7029724121094 174.6446533203125 364.9486999511719 175.83621215820312 364.09210205078125 C 179.0225830078125 361.7947998046875 181.53567504882812 358.6862487792969 183.114501953125 355.0893249511719 C 183.53021240234375 354.1378479003906 183.88348388671875 353.1244812011719 183.83453369140625 352.0850830078125 C 183.75335693359375 350.340087890625 182.53216552734375 348.8180847167969 181.06927490234375 347.861083984375 C 178.89837646484375 346.43878173828125 176.15167236328125 346.02520751953125 173.594482421875 346.471923828125 C 171.03729248046875 346.9186096191406 168.66424560546875 348.17303466796875 166.66571044921875 349.8293762207031 L 167.0888671875 349.41326904296875" stroke-width="0.6000000238418579" fill="rgb(143, 165, 67)" opacity="1.0"/>
    <path d="M 132.6704864501953 377.2943420410156 C 130.0466766357422 371.1549072265625 119.95173645019531 370.6703186035156 116.35302734375 376.2429504394531 C 112.75433349609375 381.8155822753906 116.89714050292969 390.489990234375 123.46722412109375 391.6890869140625 C 130.03732299804688 392.88818359375 136.77203369140625 386.91729736328125 136.85630798339844 380.2330322265625 L 132.6704864501953 377.2943420410156" stroke-width="0.6000000238418579" fill="rgb(233, 92, 21)" opacity="1.0"/>
    <path d="M 182.20578002929688 364.5453796386719 C 181.19110107421875 367.5079650878906 180.28631591796875 371.15203857421875 182.41046142578125 373.467529296875 C 183.2916259765625 374.3561096191406 184.42681884765625 374.9493408203125 185.659423828125 375.1654052734375 C 188.69482421875 375.78204345703125 191.84085083007812 374.8891906738281 194.09982299804688 372.76995849609375 C 196.01141357421875 370.9673767089844 197.04006958007812 368.4692077636719 197.97805786132812 366.0320739746094 C 198.50274658203125 364.66217041015625 199.01654052734375 363.1900329589844 198.69854736328125 361.7662353515625 C 198.25912475585938 359.87188720703125 196.46942138671875 358.62139892578125 194.72640991210938 357.7604675292969 C 192.17706298828125 356.497314453125 189.44012451171875 355.6551208496094 186.62164306640625 355.2665710449219 C 185.6475830078125 355.1341857910156 184.61932373046875 355.06097412109375 183.71185302734375 355.43804931640625 C 182.88604736328125 355.83184814453125 182.19265747070312 356.4574279785156 181.71624755859375 357.238525390625 C 180.17889404296875 359.55157470703125 179.733642578125 362.422607421875 180.4981689453125 365.0926818847656 L 182.20578002929688 364.5453796386719" stroke-width="0.6000000238418579" fill="rgb(70, 150, 179)" opacity="1.0"/>
  </g>
</svg>
