<?xml version="1.0" ?>
<svg xmlns="http://www.w3.org/2000/svg" version="1.1" width="600" height="600">
  <defs/>
  <g>
    <path d="M 350.91748046875 348.1752624511719 C 352.9353942871094 349.8618469238281 356.5659484863281 348.228515625 356.8337707519531 345.6292724609375 C 357.1015930175781 343.030029296875 354.0975341796875 340.724853515625 351.5767822265625 341.4776611328125 C 349.0560607910156 342.2304382324219 347.7584533691406 345.52972412109375 348.9230041503906 347.8913879394531 L 350.91748046875 348.1752624511719" stroke-width="0.6000000238418579" fill="rgb(233, 92, 21)" opacity="1.0"/>
    <path d="M 103.4708251953125 202.801513671875 C 104.09390258789062 202.06698608398438 104.76199340820312 201.125 104.41360473632812 200.2235107421875 C 104.260986328125 199.8701171875 104.00248718261719 199.57284545898438 103.67375183105469 199.37261962890625 C 102.87371826171875 198.8553466796875 101.87257385253906 198.7579345703125 100.98782348632812 199.11129760742188 C 100.23808288574219 199.4129638671875 99.66313171386719 200.01290893554688 99.12098693847656 200.60552978515625 C 98.81698608398438 200.93896484375 98.50460815429688 201.3028564453125 98.43588256835938 201.74627685546875 C 98.34910583496094 202.33807373046875 98.72126770019531 202.89706420898438 99.12379455566406 203.3392333984375 C 99.71206665039062 203.987060546875 100.40133666992188 204.53546142578125 101.16484069824219 204.96304321289062 C 101.42892456054688 205.11029052734375 101.71517944335938 205.24664306640625 102.01736450195312 205.24053955078125 C 102.29804992675781 205.22042846679688 102.56683349609375 205.11911010742188 102.79092407226562 204.94891357421875 C 103.49078369140625 204.45904541015625 103.94052124023438 203.68685913085938 104.02127075195312 202.83642578125 L 103.4708251953125 202.801513671875" stroke-width="0.6000000238418579" fill="rgb(70, 150, 179)" opacity="1.0"/>
    <path d="M 455.94781494140625 428.2705078125 C 456.21636962890625 428.9735107421875 456.54351806640625 429.74139404296875 457.224609375 430.060302734375 C 457.95635986328125 430.4024658203125 458.8543701171875 430.077392578125 459.4385986328125 429.51953125 C 459.6639404296875 429.304443359375 459.86334228515625 429.0450439453125 459.92822265625 428.740478515625 C 459.98162841796875 428.49005126953125 459.94049072265625 428.22998046875 459.885498046875 427.97998046875 C 459.712890625 427.1915283203125 459.3665771484375 426.38189697265625 458.68328857421875 425.95257568359375 C 457.99432373046875 425.5203857421875 457.026123046875 425.5887451171875 456.40728759765625 426.1175537109375 C 455.7884521484375 426.64642333984375 455.56121826171875 427.58880615234375 455.87744140625 428.3394775390625 L 455.94781494140625 428.2705078125" stroke-width="0.6000000238418579" fill="rgb(140, 28, 33)" opacity="1.0"/>
    <path d="M 90.99690246582031 201.756103515625 C 93.03392028808594 201.48342895507812 95.15054321289062 201.17724609375 96.887939453125 200.07656860351562 C 98.62527465820312 198.97592163085938 99.8836669921875 196.8251953125 99.30619812011719 194.85165405273438 C 98.58793640136719 192.4171142578125 95.32464599609375 191.45501708984375 93.00059509277344 192.48709106445312 C 90.67654418945312 193.5191650390625 89.24357604980469 195.91925048828125 88.4908447265625 198.34487915039062 C 88.18260192871094 199.0723876953125 88.15827941894531 199.88900756835938 88.42269897460938 200.63357543945312 C 88.75892639160156 201.33441162109375 89.829833984375 201.70062255859375 90.34269714355469 201.11138916015625 L 90.99690246582031 201.756103515625" stroke-width="0.6000000238418579" fill="rgb(159, 159, 159)" opacity="1.0"/>
    <path d="M 376.73736572265625 298.5122985839844 C 377.3031005859375 298.1083984375 377.7427978515625 297.5018615722656 377.85369873046875 296.8160095214844 C 377.9646301269531 296.1301574707031 377.71038818359375 295.3738098144531 377.1463623046875 294.963134765625 C 376.7471923828125 294.6733093261719 376.2289733886719 294.57525634765625 375.7381896972656 294.6290588378906 C 375.2474060058594 294.6828308105469 374.7810974121094 294.87750244140625 374.3548583984375 295.1268005371094 C 374.16943359375 295.23541259765625 373.9828186035156 295.3627624511719 373.88458251953125 295.5532531738281 C 373.7718811035156 295.7716369628906 373.79583740234375 296.0325012207031 373.834228515625 296.2759704589844 C 373.94268798828125 296.96331787109375 374.16058349609375 297.6602478027344 374.6339111328125 298.1704406738281 C 375.10723876953125 298.6806335449219 375.8843994140625 298.9548034667969 376.5245666503906 298.68621826171875 L 376.73736572265625 298.5122985839844" stroke-width="0.6000000238418579" fill="rgb(159, 159, 159)" opacity="1.0"/>
    <path d="M 96.63677978515625 432.88037109375 C 96.84222412109375 432.12481689453125 97.03787231445312 431.276123046875 96.65644836425781 430.59405517578125 C 96.28645324707031 429.9302978515625 95.495849609375 429.6441650390625 94.76809692382812 429.424072265625 C 94.47232055664062 429.3350830078125 94.1614990234375 429.2467041015625 93.85899353027344 429.30816650390625 C 93.3472900390625 429.411865234375 93.01359558105469 429.90447998046875 92.81283569335938 430.3856201171875 C 92.62631225585938 430.83209228515625 92.5048828125 431.30303955078125 92.45222473144531 431.7840576171875 C 92.366455078125 432.5650634765625 92.52444458007812 433.46649169921875 93.179443359375 433.89990234375 C 93.53269958496094 434.1343994140625 93.98220825195312 434.19219970703125 94.40377807617188 434.14111328125 C 94.82536315917969 434.090087890625 95.22750854492188 433.9375 95.62237548828125 433.78118896484375 C 96.0172119140625 433.6248779296875 96.40185546875 433.462890625 96.69070434570312 433.16552734375 L 96.63677978515625 432.88037109375" stroke-width="0.6000000238418579" fill="rgb(218, 166, 20)" opacity="1.0"/>
    <path d="M 100.62942504882812 139.54603576660156 C 102.076416015625 139.84498596191406 103.49179077148438 138.914306640625 103.79074096679688 137.46730041503906 C 103.81634521484375 137.3433837890625 103.83311462402344 137.2178192138672 103.8409423828125 137.09153747558594 C 103.87060546875 136.6116943359375 103.7578125 136.10386657714844 103.43658447265625 135.74649047851562 C 103.1651611328125 135.4444580078125 102.77566528320312 135.27809143066406 102.38742065429688 135.15997314453125 C 101.34776306152344 134.84524536132812 100.24278259277344 134.81463623046875 99.18728637695312 135.07131958007812 C 98.90838623046875 135.13963317871094 98.62638854980469 135.23208618164062 98.40617370605469 135.4172821044922 C 98.03628540039062 135.72799682617188 97.90672302246094 136.25181579589844 97.94192504882812 136.73394775390625 C 97.99368286132812 137.44976806640625 98.36376953125 138.1228485107422 98.89111328125 138.60989379882812 C 99.41847229003906 139.09693908691406 100.09243774414062 139.407958984375 100.79190063476562 139.56919860839844 L 100.62942504882812 139.54603576660156" stroke-width="0.6000000238418579" fill="rgb(143, 165, 67)" opacity="1.0"/>
    <path d="M 454.1407470703125 343.01611328125 C 455.9544677734375 344.2420654296875 458.82275390625 342.5823974609375 458.82470703125 340.4072570800781 C 458.82659912109375 338.2321472167969 456.1439208984375 336.5773620605469 454.1201171875 337.41400146484375 C 452.096435546875 338.2506103515625 451.3009033203125 341.0925598144531 452.465087890625 342.94976806640625 L 454.1407470703125 343.01611328125" stroke-width="0.6000000238418579" fill="rgb(233, 92, 21)" opacity="1.0"/>
    <path d="M 104.88961791992188 215.22906494140625 C 105.67080688476562 214.5836181640625 106.53700256347656 213.7315673828125 106.34292602539062 212.73345947265625 C 106.25022888183594 212.33926391601562 106.03750610351562 211.9835205078125 105.73406982421875 211.71536254882812 C 105.00115966796875 211.03164672851562 103.98231506347656 210.74557495117188 103.00062561035156 210.9478759765625 C 102.16831970214844 211.12158203125 101.46186828613281 211.6365966796875 100.79074096679688 212.15011596679688 C 100.41421508789062 212.43917846679688 100.02337646484375 212.75830078125 99.87017822265625 213.204833984375 C 99.67083740234375 213.80169677734375 99.952880859375 214.449462890625 100.2879638671875 214.98187255859375 C 100.77740478515625 215.76165771484375 101.38983154296875 216.45709228515625 102.10148620605469 217.04119873046875 C 102.34776306152344 217.2425537109375 102.61898803710938 217.436767578125 102.93310546875 217.48626708984375 C 103.22752380371094 217.51739501953125 103.52464294433594 217.46218872070312 103.78822326660156 217.32736206054688 C 104.60366821289062 216.94949340820312 105.21231079101562 216.23291015625 105.4532470703125 215.3670654296875 L 104.88961791992188 215.22906494140625" stroke-width="0.6000000238418579" fill="rgb(70, 150, 179)" opacity="1.0"/>
    <path d="M 101.88948059082031 81.32131958007812 C 102.10760498046875 82.34573364257812 102.39239501953125 83.4720458984375 103.26034545898438 84.05706787109375 C 104.19308471679688 84.68496704101562 105.49789428710938 84.4310302734375 106.42123413085938 83.7894287109375 C 106.77734375 83.54220581054688 107.10733032226562 83.22831726074219 107.26202392578125 82.82339477539062 C 107.38931274414062 82.49057006835938 107.38868713378906 82.12405395507812 107.36676025390625 81.76849365234375 C 107.29899597167969 80.6470947265625 106.99688720703125 79.45932006835938 106.14956665039062 78.72200012207031 C 105.29510498046875 77.9794921875 103.94900512695312 77.8653564453125 102.98426818847656 78.45950317382812 C 102.01954650878906 79.05364990234375 101.50445556640625 80.30068969726562 101.77783203125 81.4010009765625 L 101.88948059082031 81.32131958007812" stroke-width="0.6000000238418579" fill="rgb(140, 28, 33)" opacity="1.0"/>
    <path d="M 90.78497314453125 422.6846923828125 C 92.88018798828125 422.2857666015625 95.05595397949219 421.8475341796875 96.79336547851562 420.6077880859375 C 98.53076171875 419.36810302734375 99.71188354492188 417.067626953125 99.00076293945312 415.05560302734375 C 98.11746215820312 412.573974609375 94.68104553222656 411.763427734375 92.33180236816406 412.965576171875 C 89.98255920410156 414.167724609375 88.63479614257812 416.736572265625 87.99334716796875 419.2930908203125 C 87.71549987792969 420.06451416015625 87.7369384765625 420.912109375 88.05345153808594 421.66845703125 C 88.44189453125 422.37548828125 89.57249450683594 422.69384765625 90.07026672363281 422.053955078125 L 90.78497314453125 422.6846923828125" stroke-width="0.6000000238418579" fill="rgb(159, 159, 159)" opacity="1.0"/>
    <path d="M 468.806884765625 59.856414794921875 C 469.4381103515625 59.049652099609375 469.8067626953125 58.00904846191406 469.67755126953125 56.993408203125 C 469.54840087890625 55.97776794433594 468.87371826171875 55.01472473144531 467.9052734375 54.66943359375 C 467.22027587890625 54.426177978515625 466.4468994140625 54.50367736816406 465.775634765625 54.7843017578125 C 465.10443115234375 55.06494140625 464.5264892578125 55.53448486328125 464.0279541015625 56.0645751953125 C 463.8111572265625 56.295379638671875 463.6004638671875 56.553192138671875 463.541015625 56.8634033203125 C 463.4727783203125 57.219024658203125 463.61541748046875 57.5777587890625 463.771240234375 57.90586853027344 C 464.2110595703125 58.832183837890625 464.8095703125 59.72639465332031 465.6912841796875 60.25016784667969 C 466.57305908203125 60.77394104003906 467.7857666015625 60.83746337890625 468.57861328125 60.19093322753906 L 468.806884765625 59.856414794921875" stroke-width="0.6000000238418579" fill="rgb(159, 159, 159)" opacity="1.0"/>
    <path d="M 92.02651977539062 106.60076904296875 C 92.82632446289062 106.83393859863281 93.72543334960938 107.0584716796875 94.4583740234375 106.6658935546875 C 95.17170715332031 106.28509521484375 95.49136352539062 105.44955444335938 95.73959350585938 104.67959594726562 C 95.8399658203125 104.36666870117188 95.93997192382812 104.03770446777344 95.88043212890625 103.71469116210938 C 95.780029296875 103.1683349609375 95.26239013671875 102.80381774902344 94.75444030761719 102.5809326171875 C 94.28305053710938 102.37387084960938 93.78439331054688 102.23558044433594 93.273681640625 102.1702880859375 C 92.44448852539062 102.06393432617188 91.48245239257812 102.21458435058594 91.00869750976562 102.90301513671875 C 90.75241088867188 103.2742919921875 90.68222045898438 103.75137329101562 90.72842407226562 104.20085144042969 C 90.77461242675781 104.65032958984375 90.92916870117188 105.08110046386719 91.08779907226562 105.50418090820312 C 91.24642944335938 105.92727661132812 91.41136169433594 106.339599609375 91.72210693359375 106.65261840820312 L 92.02651977539062 106.60076904296875" stroke-width="0.6000000238418579" fill="rgb(218, 166, 20)" opacity="1.0"/>
    <path d="M 119.98626708984375 126.974365234375 C 121.46815490722656 126.41595458984375 122.21678161621094 124.76197814941406 121.65837097167969 123.28009033203125 C 121.61056518554688 123.1531982421875 121.55380249023438 123.02984619140625 121.488525390625 122.91098022460938 C 121.24041748046875 122.45938110351562 120.8472900390625 122.06405639648438 120.35153198242188 121.9244384765625 C 119.9326171875 121.80642700195312 119.48452758789062 121.87893676757812 119.06521606445312 121.99443054199219 C 117.94320678710938 122.30513000488281 116.92486572265625 122.91058349609375 116.11595153808594 123.74789428710938 C 115.90251159667969 123.9696044921875 115.7000732421875 124.21490478515625 115.60673522949219 124.50885009765625 C 115.44976806640625 125.00222778320312 115.63258361816406 125.5509033203125 115.94073486328125 125.9674072265625 C 116.39779663085938 126.58609008789062 117.11868286132812 126.983642578125 117.87541198730469 127.12258911132812 C 118.63214111328125 127.26152038574219 119.42079162597656 127.15701293945312 120.14669799804688 126.90225219726562 L 119.98626708984375 126.974365234375" stroke-width="0.6000000238418579" fill="rgb(143, 165, 67)" opacity="1.0"/>
    <path d="M 390.9122009277344 303.637939453125 C 392.29998779296875 305.3172302246094 395.504150390625 304.5372314453125 396.1161193847656 302.4610290527344 C 396.7281188964844 300.38482666015625 394.6309509277344 298.0523376464844 392.46405029296875 298.2834167480469 C 390.297119140625 298.5144958496094 388.74041748046875 301.0047607421875 389.3309326171875 303.1045227050781 L 390.9122009277344 303.637939453125" stroke-width="0.6000000238418579" fill="rgb(233, 92, 21)" opacity="1.0"/>
    <path d="M 123.13992309570312 113.374267578125 C 123.79670715332031 112.71151733398438 124.51252746582031 111.85173034667969 124.24354553222656 110.9549560546875 C 124.12261962890625 110.60224914550781 123.89520263671875 110.29574584960938 123.59271240234375 110.0777587890625 C 122.85873413085938 109.51824951171875 121.89910888671875 109.34919738769531 121.01812744140625 109.62420654296875 C 120.27142333984375 109.85940551757812 119.67118835449219 110.39578247070312 119.10317993164062 110.92758178710938 C 118.78460693359375 111.22682189941406 118.45565795898438 111.55490112304688 118.35604858398438 111.97802734375 C 118.22793579101562 112.54310607910156 118.54550170898438 113.11083984375 118.90115356445312 113.56805419921875 C 119.42080688476562 114.23782348632812 120.04545593261719 114.81906127929688 120.7508544921875 115.28924560546875 C 120.99488830566406 115.45123291015625 121.26113891601562 115.6043701171875 121.553466796875 115.62107849121094 C 121.8260498046875 115.62271118164062 122.09323120117188 115.54496765136719 122.32241821289062 115.39736938476562 C 123.03504943847656 114.97666931152344 123.52725219726562 114.26454162597656 123.66893005371094 113.44921875 L 123.13992309570312 113.374267578125" stroke-width="0.6000000238418579" fill="rgb(70, 150, 179)" opacity="1.0"/>
    <path d="M 427.632080078125 70.39926147460938 C 428.02862548828125 71.15921020507812 428.5001220703125 71.98487854003906 429.312744140625 72.25592041015625 C 430.185791015625 72.54653930664062 431.15899658203125 72.06027221679688 431.74639892578125 71.35197448730469 C 431.9730224609375 71.0789794921875 432.1644287109375 70.75914001464844 432.1976318359375 70.40594482421875 C 432.2249755859375 70.1156005859375 432.1441650390625 69.82675170898438 432.0489501953125 69.55119323730469 C 431.74969482421875 68.68182373046875 431.2510986328125 67.81147766113281 430.42138671875 67.41583251953125 C 429.5848388671875 67.01766967773438 428.4984130859375 67.22274780273438 427.86798095703125 67.90272521972656 C 427.237548828125 68.58268737792969 427.104736328125 69.67890930175781 427.5615234375 70.486572265625 L 427.632080078125 70.39926147460938" stroke-width="0.6000000238418579" fill="rgb(140, 28, 33)" opacity="1.0"/>
    <path d="M 112.87852478027344 415.70989990234375 C 113.86224365234375 413.86944580078125 114.86557006835938 411.9435119628906 114.98922729492188 409.85882568359375 C 115.11285400390625 407.774169921875 114.08700561523438 405.46124267578125 112.11805725097656 404.766357421875 C 109.6856689453125 403.91400146484375 106.95693969726562 406.032470703125 106.42872619628906 408.5599365234375 C 105.90052795410156 411.0874328613281 107.0283203125 413.692138671875 108.5806884765625 415.75146484375 C 108.99736022949219 416.43701171875 109.6558837890625 416.9415283203125 110.42633056640625 417.165283203125 C 111.20335388183594 417.30401611328125 112.14044189453125 416.63873291015625 111.9591064453125 415.86651611328125 L 112.87852478027344 415.70989990234375" stroke-width="0.6000000238418579" fill="rgb(159, 159, 159)" opacity="1.0"/>
    <path d="M 453.697509765625 431.9232177734375 C 454.08038330078125 431.06884765625 454.17889404296875 430.0645751953125 453.84124755859375 429.1917724609375 C 453.50360107421875 428.3189697265625 452.6934814453125 427.6126708984375 451.7584228515625 427.5189208984375 C 451.09716796875 427.4534912109375 450.427978515625 427.692138671875 449.89404296875 428.0885009765625 C 449.360107421875 428.4849853515625 448.95037841796875 429.0284423828125 448.62451171875 429.6082763671875 C 448.4827880859375 429.8607177734375 448.3524169921875 430.1357421875 448.367919921875 430.42401123046875 C 448.3853759765625 430.7545166015625 448.5906982421875 431.04150390625 448.801025390625 431.2984619140625 C 449.39471435546875 432.0238037109375 450.1221923828125 432.68572998046875 451.01953125 432.956787109375 C 451.9168701171875 433.2279052734375 453.0069580078125 433.0179443359375 453.568359375 432.27020263671875 L 453.697509765625 431.9232177734375" stroke-width="0.6000000238418579" fill="rgb(159, 159, 159)" opacity="1.0"/>
    <path d="M 450.5472412109375 285.5884094238281 C 451.10247802734375 284.89276123046875 451.6895751953125 284.095458984375 451.5992431640625 283.21173095703125 C 451.5126953125 282.3521423339844 450.81683349609375 281.6968994140625 450.15679931640625 281.138916015625 C 449.8883056640625 280.9126281738281 449.6038818359375 280.68017578125 449.260498046875 280.6078186035156 C 448.6798095703125 280.485107421875 448.109375 280.8486022949219 447.68280029296875 281.2600402832031 C 447.2867431640625 281.6417541503906 446.947509765625 282.078369140625 446.675537109375 282.5565185546875 C 446.23370361328125 283.3327331542969 445.9918212890625 284.3446044921875 446.479736328125 285.09234619140625 C 446.7425537109375 285.4964294433594 447.1854248046875 285.7595520019531 447.6484375 285.8964538574219 C 448.111328125 286.0333557128906 448.59979248046875 286.05560302734375 449.082275390625 286.0706787109375 C 449.5648193359375 286.08575439453125 450.039306640625 286.0902404785156 450.474853515625 285.9102783203125 L 450.5472412109375 285.5884094238281" stroke-width="0.6000000238418579" fill="rgb(218, 166, 20)" opacity="1.0"/>
    <path d="M 416.8546142578125 362.3789978027344 C 418.1204833984375 363.614501953125 420.1483154296875 363.5898742675781 421.3837890625 362.3240051269531 C 421.48956298828125 362.2156066894531 421.5875244140625 362.0998229980469 421.67694091796875 361.9775695800781 C 422.0166015625 361.512939453125 422.230712890625 360.92816162109375 422.1375732421875 360.3604736328125 C 422.05889892578125 359.8807373046875 421.77362060546875 359.4615783691406 421.45843505859375 359.0918884277344 C 420.6134033203125 358.1034240722656 419.5191650390625 357.3592529296875 418.289306640625 356.9366760253906 C 417.9639892578125 356.82550048828125 417.62005615234375 356.7366638183594 417.2784423828125 356.7812194824219 C 416.7049560546875 356.855712890625 416.2362060546875 357.3001708984375 415.96044921875 357.8089904785156 C 415.550537109375 358.5640869140625 415.4891357421875 359.4815673828125 415.7064208984375 360.31304931640625 C 415.9237060546875 361.1445007324219 416.40240478515625 361.8931579589844 417.0035400390625 362.5072326660156 L 416.8546142578125 362.3789978027344" stroke-width="0.6000000238418579" fill="rgb(143, 165, 67)" opacity="1.0"/>
    <path d="M 451.629150390625 355.5124206542969 C 452.63543701171875 353.8436584472656 451.0279541015625 351.370361328125 449.0943603515625 351.46881103515625 C 447.1607666015625 351.5672912597656 445.813232421875 354.0282287597656 446.650146484375 355.7886962890625 C 447.487060546875 357.5491638183594 450.050048828125 358.12542724609375 451.6473388671875 357.0050354003906 L 451.629150390625 355.5124206542969" stroke-width="0.6000000238418579" fill="rgb(233, 92, 21)" opacity="1.0"/>
    <path d="M 453.1197509765625 80.32000732421875 C 453.6646728515625 79.71817016601562 454.253173828125 78.9427490234375 453.9842529296875 78.17378234863281 C 453.86529541015625 77.87193298339844 453.6556396484375 77.61444091796875 453.38409423828125 77.43681335449219 C 452.72418212890625 76.979248046875 451.8834228515625 76.86991882324219 451.12841796875 77.14350891113281 C 450.488525390625 77.37722778320312 449.98785400390625 77.86700439453125 449.5150146484375 78.35153198242188 C 449.249755859375 78.6241455078125 448.9766845703125 78.92221069335938 448.90673828125 79.29391479492188 C 448.8175048828125 79.79013061523438 449.1158447265625 80.27117919921875 449.44287109375 80.6546630859375 C 449.9208984375 81.21646118164062 450.486572265625 81.69720458984375 451.1181640625 82.0782470703125 C 451.336669921875 82.20947265625 451.5740966796875 82.33216857910156 451.828857421875 82.33522033691406 C 452.06591796875 82.32594299316406 452.2950439453125 82.24789428710938 452.488525390625 82.11061096191406 C 453.0914306640625 81.71697998046875 453.49139404296875 81.07867431640625 453.58251953125 80.36441040039062 L 453.1197509765625 80.32000732421875" stroke-width="0.6000000238418579" fill="rgb(70, 150, 179)" opacity="1.0"/>
    <path d="M 450.4205322265625 389.708740234375 C 450.56976318359375 389.3879699707031 450.72174072265625 389.0261535644531 450.6063232421875 388.6919250488281 C 450.482177734375 388.3329772949219 450.0784912109375 388.1364440917969 449.698974609375 388.1219787597656 C 449.5526123046875 388.1163635253906 449.3997802734375 388.134033203125 449.2757568359375 388.2118835449219 C 449.173828125 388.2758483886719 449.0994873046875 388.3748779296875 449.033203125 388.47528076171875 C 448.82366943359375 388.79168701171875 448.66387939453125 389.1736145019531 448.74273681640625 389.54473876953125 C 448.822509765625 389.918701171875 449.16259765625 390.2229919433594 449.54364013671875 390.2586364746094 C 449.9246826171875 390.2942810058594 450.3170166015625 390.0624084472656 450.466796875 389.7099304199219 L 450.4205322265625 389.708740234375" stroke-width="0.6000000238418579" fill="rgb(140, 28, 33)" opacity="1.0"/>
    <path d="M 123.88233947753906 216.377685546875 C 121.1514892578125 216.98114013671875 118.31655883789062 217.63922119140625 116.08700561523438 219.33099365234375 C 113.85751342773438 221.02276611328125 112.39793395996094 224.08346557617188 113.40740966796875 226.69326782226562 C 114.66067504882812 229.91201782226562 119.19598388671875 230.8421630859375 122.2288818359375 229.17605590820312 C 125.26181030273438 227.50994873046875 126.92948913574219 224.09112548828125 127.67185974121094 220.7156982421875 C 128.00634765625 219.69381713867188 127.94563293457031 218.583740234375 127.50167846679688 217.6044921875 C 126.96533203125 216.6927490234375 125.47119140625 216.31903076171875 124.8433837890625 217.1768798828125 L 123.88233947753906 216.377685546875" stroke-width="0.6000000238418579" fill="rgb(159, 159, 159)" opacity="1.0"/>
    <path d="M 111.22998046875 224.72210693359375 C 109.30410766601562 223.04415893554688 106.76138305664062 221.989501953125 104.21533203125 222.17755126953125 C 101.66928100585938 222.3656005859375 99.18246459960938 223.91891479492188 98.19525146484375 226.28497314453125 C 97.49940490722656 227.958740234375 97.59066772460938 229.89468383789062 98.20118713378906 231.60308837890625 C 98.81169128417969 233.31146240234375 99.90489196777344 234.8123779296875 101.1593017578125 236.12344360351562 C 101.70553588867188 236.69366455078125 102.31976318359375 237.25225830078125 103.08441162109375 237.44097900390625 C 103.96098327636719 237.65771484375 104.87301635742188 237.34979248046875 105.71054077148438 237.0050048828125 C 108.07504272460938 236.0316162109375 110.38041687011719 234.6588134765625 111.8006591796875 232.5321044921875 C 113.22090148925781 230.4053955078125 113.53860473632812 227.39382934570312 112.032958984375 225.33453369140625 L 111.22998046875 224.72210693359375" stroke-width="0.6000000238418579" fill="rgb(159, 159, 159)" opacity="1.0"/>
    <path d="M 304.16180419921875 104.50479125976562 C 303.32763671875 106.76551818847656 302.4983825683594 109.31455993652344 303.4832763671875 111.50863647460938 C 304.4381408691406 113.64372253417969 306.7845764160156 114.73464965820312 308.95611572265625 115.606201171875 C 309.83880615234375 115.95895385742188 310.7678527832031 116.31391906738281 311.7118835449219 116.207275390625 C 313.30865478515625 116.02781677246094 314.46490478515625 114.60771179199219 315.2104797363281 113.18701171875 C 315.90301513671875 111.86863708496094 316.4026794433594 110.4576416015625 316.6941223144531 108.99723815917969 C 317.1682434082031 106.6260986328125 316.9276428222656 103.81977844238281 315.0368347167969 102.31393432617188 C 314.0172119140625 101.49948120117188 312.65478515625 101.20074462890625 311.3485412597656 101.24334716796875 C 310.0422668457031 101.28596496582031 308.76812744140625 101.64498901367188 307.51531982421875 102.01736450195312 C 306.2625427246094 102.38973999023438 305.0395202636719 102.782470703125 304.0736083984375 103.61598205566406 L 304.16180419921875 104.50479125976562" stroke-width="0.6000000238418579" fill="rgb(218, 166, 20)" opacity="1.0"/>
    <path d="M 218.9476318359375 126.13371276855469 C 216.24310302734375 123.5213623046875 211.93295288085938 123.59603881835938 209.32061767578125 126.300537109375 C 209.096923828125 126.53211975097656 208.88992309570312 126.779296875 208.70120239257812 127.0401611328125 C 207.98428344726562 128.03158569335938 207.53558349609375 129.27703857421875 207.7398681640625 130.48272705078125 C 207.91241455078125 131.5016326904297 208.5234375 132.3894805908203 209.197509765625 133.17190551757812 C 211.004638671875 135.26377868652344 213.33892822265625 136.8336181640625 215.9578857421875 137.71835327148438 C 216.65057373046875 137.9510498046875 217.38275146484375 138.1361083984375 218.10836791992188 138.03762817382812 C 219.32662963867188 137.8730010986328 220.31820678710938 136.92298889160156 220.89877319335938 135.83839416503906 C 221.76181030273438 134.22874450683594 221.8822021484375 132.27774047851562 221.41116333007812 130.51268005371094 C 220.94015502929688 128.7476348876953 219.914306640625 127.1614990234375 218.62979125976562 125.86276245117188 L 218.9476318359375 126.13371276855469" stroke-width="0.6000000238418579" fill="rgb(143, 165, 67)" opacity="1.0"/>
    <path d="M 222.7557373046875 94.01191711425781 C 221.52191162109375 98.14910888671875 226.34051513671875 102.56382751464844 230.4337158203125 101.28114318847656 C 234.52691650390625 99.99844360351562 236.05364990234375 93.97286987304688 233.282958984375 90.66030883789062 C 230.51220703125 87.34771728515625 224.6951904296875 87.53181457519531 221.8896484375 90.82023620605469 L 222.7557373046875 94.01191711425781" stroke-width="0.6000000238418579" fill="rgb(233, 92, 21)" opacity="1.0"/>
    <path d="M 202.16510009765625 95.83233642578125 C 201.36029052734375 93.75291442871094 200.18328857421875 91.35246276855469 197.96463012695312 91.06414794921875 C 197.07720947265625 90.9837646484375 196.186767578125 91.18072509765625 195.416015625 91.62789916992188 C 193.47933959960938 92.68296813964844 192.17416381835938 94.61129760742188 191.91439819335938 96.8013916015625 C 191.69879150390625 98.65975952148438 192.28314208984375 100.49252319335938 192.888916015625 102.25045776367188 C 193.23080444335938 103.23741149902344 193.62548828125 104.27511596679688 194.4512939453125 104.9052734375 C 195.55889892578125 105.73616027832031 197.10726928710938 105.597412109375 198.45166015625 105.26773071289062 C 200.41973876953125 104.78773498535156 202.29718017578125 103.99234008789062 204.0111083984375 102.91241455078125 C 204.60260009765625 102.53814697265625 205.19650268554688 102.1068115234375 205.5181884765625 101.48544311523438 C 205.7877197265625 100.89237976074219 205.87887573242188 100.23370361328125 205.780517578125 99.5897216796875 C 205.5582275390625 97.62471008300781 204.485107421875 95.85612487792969 202.84481811523438 94.75149536132812 L 202.16510009765625 95.83233642578125" stroke-width="0.6000000238418579" fill="rgb(70, 150, 179)" opacity="1.0"/>
    <path d="M 268.705322265625 132.07171630859375 C 267.7216796875 134.29046630859375 266.72454833984375 136.7910614013672 267.5576171875 139.0689697265625 C 268.4540100097656 141.51539611816406 271.2475891113281 142.8131103515625 273.8525085449219 142.86476135253906 C 274.85687255859375 142.8850860595703 275.9028625488281 142.74484252929688 276.7436828613281 142.1953887939453 C 277.4350891113281 141.7439727783203 277.9322509765625 141.05543518066406 278.3746337890625 140.3584442138672 C 279.7722473144531 138.16217041015625 280.8204650878906 135.5226593017578 280.233154296875 132.98707580566406 C 279.6394958496094 130.4320068359375 277.2689208984375 128.38748168945312 274.65087890625 128.1905517578125 C 272.0328063964844 127.99362182617188 269.37066650390625 129.6331329345703 268.387451171875 132.0694122314453 L 268.705322265625 132.07171630859375" stroke-width="0.6000000238418579" fill="rgb(140, 28, 33)" opacity="1.0"/>
    <path d="M 317.0634765625 116.53924560546875 C 314.4715270996094 117.35650634765625 311.78350830078125 118.2354736328125 309.76971435546875 120.06341552734375 C 307.7559509277344 121.89132690429688 306.6043395996094 124.9786376953125 307.80426025390625 127.41876220703125 C 309.2921447753906 130.4275360107422 313.7616882324219 130.9407958984375 316.5553283691406 129.06915283203125 C 319.3489685058594 127.197509765625 320.6714782714844 123.7457275390625 321.10198974609375 120.41496276855469 C 321.3385314941406 119.39724731445312 321.1850280761719 118.327880859375 320.67169189453125 117.4178466796875 C 320.07470703125 116.58106994628906 318.5964660644531 116.34686279296875 318.0619812011719 117.2308349609375 L 317.0634765625 116.53924560546875" stroke-width="0.6000000238418579" fill="rgb(159, 159, 159)" opacity="1.0"/>
    <path d="M 198.1488037109375 132.1285400390625 C 196.2589111328125 130.4246826171875 193.74407958984375 129.33120727539062 191.2049560546875 129.47547912597656 C 188.66580200195312 129.61976623535156 186.16259765625 131.12490844726562 185.13931274414062 133.46493530273438 C 184.41790771484375 135.12026977539062 184.47613525390625 137.0500946044922 185.05535888671875 138.7620391845703 C 185.63455200195312 140.47398376464844 186.69805908203125 141.98741149902344 187.92535400390625 143.31448364257812 C 188.45977783203125 143.89169311523438 189.0621337890625 144.45846557617188 189.820556640625 144.65933227539062 C 190.69000244140625 144.89004516601562 191.6036376953125 144.5987548828125 192.44366455078125 144.26950073242188 C 194.81524658203125 143.3399200439453 197.13467407226562 142.01148986816406 198.585205078125 139.91720581054688 C 200.0357666015625 137.8229217529297 200.40313720703125 134.82867431640625 198.938232421875 132.75210571289062 L 198.1488037109375 132.1285400390625" stroke-width="0.6000000238418579" fill="rgb(159, 159, 159)" opacity="1.0"/>
    <path d="M 280.1671142578125 105.32908630371094 C 278.0897216796875 106.01412963867188 275.810302734375 106.86557006835938 274.80828857421875 108.80519104003906 C 273.8311767578125 110.69009399414062 274.38226318359375 112.97348022460938 274.9903564453125 115.0086669921875 C 275.23858642578125 115.83505249023438 275.511474609375 116.69563293457031 276.1207275390625 117.30596923828125 C 277.1506042480469 118.3388671875 278.8128356933594 118.35769653320312 280.2434387207031 118.08445739746094 C 281.5713806152344 117.83135986328125 282.8560791015625 117.388916015625 284.0582275390625 116.7706298828125 C 286.0105895996094 115.76742553710938 287.8681640625 114.01055908203125 287.86932373046875 111.81632995605469 C 287.8716735839844 110.63174438476562 287.3139343261719 109.49508666992188 286.5454406738281 108.59121704101562 C 285.7769470214844 107.68734741210938 284.8018493652344 106.98513793945312 283.8293151855469 106.30561828613281 C 282.8568115234375 105.6260986328125 281.88665771484375 104.979248046875 280.7486572265625 104.76412963867188 L 280.1671142578125 105.32908630371094" stroke-width="0.6000000238418579" fill="rgb(218, 166, 20)" opacity="1.0"/>
    <path d="M 242.3511962890625 120.2347412109375 C 241.1705322265625 123.62066650390625 242.95828247070312 127.3226318359375 246.34420776367188 128.50328063964844 C 246.6341552734375 128.60438537597656 246.930908203125 128.68478393554688 247.23220825195312 128.743896484375 C 248.377197265625 128.96826171875 249.6348876953125 128.85887145996094 250.59713745117188 128.20001220703125 C 251.41033935546875 127.64329528808594 251.934814453125 126.75930786132812 252.3427734375 125.86293029785156 C 253.4315185546875 123.46200561523438 253.85751342773438 120.8133544921875 253.57656860351562 118.192138671875 C 253.50112915039062 117.4993896484375 253.36865234375 116.79145812988281 252.99331665039062 116.20257568359375 C 252.36376953125 115.21360778808594 251.14483642578125 114.73486328125 249.97369384765625 114.66580200195312 C 248.2349853515625 114.56204223632812 246.4976806640625 115.23776245117188 245.15777587890625 116.3511962890625 C 243.81784057617188 117.46461486816406 242.85464477539062 118.98690795898438 242.24365234375 120.61824035644531 L 242.3511962890625 120.2347412109375" stroke-width="0.6000000238418579" fill="rgb(143, 165, 67)" opacity="1.0"/>
    <path d="M 249.97760009765625 91.99932861328125 C 249.07846069335938 96.21914672851562 254.2308349609375 100.23262023925781 258.20611572265625 98.62831115722656 C 262.1813659667969 97.02398681640625 263.22161865234375 90.89962768554688 260.19720458984375 87.82073974609375 C 257.17279052734375 84.7418212890625 251.3927001953125 85.38925170898438 248.86019897460938 88.888916015625 L 249.97760009765625 91.99932861328125" stroke-width="0.6000000238418579" fill="rgb(233, 92, 21)" opacity="1.0"/>
    <path d="M 338.164306640625 84.57781982421875 C 336.20391845703125 83.93692016601562 333.7956848144531 83.3746337890625 332.2903747558594 84.79486083984375 C 331.71331787109375 85.38336181640625 331.3330993652344 86.13641357421875 331.2021789550781 86.95016479492188 C 330.8240661621094 88.95486450195312 331.4410400390625 91.01849365234375 332.8575134277344 92.48663330078125 C 334.062255859375 93.72892761230469 335.7169494628906 94.38333129882812 337.3305969238281 94.97857666015625 C 338.23760986328125 95.31149291992188 339.21185302734375 95.63630676269531 340.1465759277344 95.41375732421875 C 341.39007568359375 95.10690307617188 342.1971130371094 93.916748046875 342.7480163574219 92.76092529296875 C 343.5563659667969 91.07038879394531 344.0857849121094 89.26016235351562 344.3157043457031 87.40045166015625 C 344.3938903808594 86.75772094726562 344.4326477050781 86.07986450195312 344.1759338378906 85.48573303222656 C 343.90899658203125 84.94551086425781 343.4906005859375 84.49462890625 342.9718322753906 84.18807983398438 C 341.4343566894531 83.19696044921875 339.53948974609375 82.93019104003906 337.78814697265625 83.45828247070312 L 338.164306640625 84.57781982421875" stroke-width="0.6000000238418579" fill="rgb(70, 150, 179)" opacity="1.0"/>
    <path d="M 332.628662109375 125.66766357421875 C 331.9903259277344 123.18133544921875 331.1783752441406 120.45223999023438 328.99346923828125 119.10797119140625 C 326.6455383300781 117.66529846191406 323.4762268066406 118.41989135742188 321.28045654296875 120.08493041992188 C 320.43359375 120.72654724121094 319.6574401855469 121.52874755859375 319.3198547363281 122.53604125976562 C 319.0420227050781 123.36398315429688 319.080810546875 124.26141357421875 319.1706848144531 125.1298828125 C 319.4507141113281 127.86898803710938 320.31134033203125 130.74685668945312 322.4612121582031 132.46615600585938 C 324.6291198730469 134.19744873046875 327.93701171875 134.3400115966797 330.2389221191406 132.78692626953125 C 332.5408630371094 131.23385620117188 333.6753234863281 128.12774658203125 332.89398193359375 125.461181640625 L 332.628662109375 125.66766357421875" stroke-width="0.6000000238418579" fill="rgb(140, 28, 33)" opacity="1.0"/>
    <path d="M 352.20037841796875 106.19180297851562 C 349.51373291015625 105.90303039550781 346.7149658203125 105.63217163085938 344.1520690917969 106.49446105957031 C 341.5892333984375 107.35675048828125 339.3096618652344 109.70979309082031 339.4299621582031 112.41067504882812 C 339.5859069824219 115.74430847167969 343.4524230957031 117.99339294433594 346.7430725097656 117.40216064453125 C 350.03369140625 116.8109130859375 352.61419677734375 114.19400024414062 354.333984375 111.33175659179688 C 354.95513916015625 110.49908447265625 355.2415466308594 109.46383666992188 355.13671875 108.43032836914062 C 354.9264831542969 107.43017578125 353.67340087890625 106.62760925292969 352.8341979980469 107.21974182128906 L 352.20037841796875 106.19180297851562" stroke-width="0.6000000238418579" fill="rgb(159, 159, 159)" opacity="1.0"/>
    <path d="M 350.348876953125 125.21295166015625 C 348.13067626953125 125.90536499023438 346.10137939453125 127.37286376953125 345.033447265625 129.43533325195312 C 343.9654846191406 131.49778747558594 343.9836730957031 134.16514587402344 345.3464660644531 136.05795288085938 C 346.3116455078125 137.3949737548828 347.8552551269531 138.2470703125 349.47003173828125 138.58837890625 C 351.0848083496094 138.9296875 352.76885986328125 138.79806518554688 354.3827209472656 138.4510498046875 C 355.0849304199219 138.29962158203125 355.8105773925781 138.08995056152344 356.3212890625 137.58740234375 C 356.9070739746094 137.0115203857422 357.10321044921875 136.15805053710938 357.23529052734375 135.34474182128906 C 357.6081848144531 133.04861450195312 357.64337158203125 130.60787963867188 356.6724853515625 128.49363708496094 C 355.70159912109375 126.37939453125 353.51953125 124.69767761230469 351.2061767578125 124.88270568847656 L 350.348876953125 125.21295166015625" stroke-width="0.6000000238418579" fill="rgb(159, 159, 159)" opacity="1.0"/>
    <path d="M 365.7698059082031 114.28401184082031 C 363.838623046875 114.82017517089844 361.7152404785156 115.49981689453125 360.7134094238281 117.23117065429688 C 359.73675537109375 118.91355895996094 360.1413269042969 121.02743530273438 360.60888671875 122.9166259765625 C 360.79998779296875 123.68380737304688 361.0121154785156 124.48333740234375 361.54302978515625 125.06857299804688 C 362.4404296875 126.05889892578125 363.9609375 126.14877319335938 365.28216552734375 125.96122741699219 C 366.5085754394531 125.78762817382812 367.70367431640625 125.4388427734375 368.8309326171875 124.92552185058594 C 370.6615905761719 124.09271240234375 372.4384765625 122.56597900390625 372.5354309082031 120.557861328125 C 372.58935546875 119.47381591796875 372.1285705566406 118.40916442871094 371.4647521972656 117.54833984375 C 370.8009338378906 116.68751525878906 369.939208984375 116.00222778320312 369.0788269042969 115.33781433105469 C 368.2184753417969 114.67340087890625 367.35882568359375 114.03898620605469 366.3267517089844 113.79237365722656 L 365.7698059082031 114.28401184082031" stroke-width="0.6000000238418579" fill="rgb(218, 166, 20)" opacity="1.0"/>
    <path d="M 434.3038330078125 154.99571228027344 C 431.0440673828125 155.64366149902344 428.9267578125 158.81146240234375 429.57470703125 162.07122802734375 C 429.63018798828125 162.350341796875 429.7054443359375 162.62521362304688 429.7998046875 162.89370727539062 C 430.1585693359375 163.913818359375 430.8370361328125 164.8671875 431.8155517578125 165.32626342773438 C 432.6424560546875 165.71429443359375 433.5950927734375 165.71786499023438 434.5029296875 165.62255859375 C 436.9326171875 165.36404418945312 439.2486572265625 164.459716796875 441.210693359375 163.00347900390625 C 441.7286376953125 162.61767578125 442.23193359375 162.17916870117188 442.5260009765625 161.60256958007812 C 443.020263671875 160.6348876953125 442.829833984375 159.4361572265625 442.334716796875 158.46807861328125 C 441.60052490234375 157.03033447265625 440.2442626953125 155.95999145507812 438.72509765625 155.4127960205078 C 437.20599365234375 154.8656005859375 435.5372314453125 154.81149291992188 433.9468994140625 155.09002685546875 L 434.3038330078125 154.99571228027344" stroke-width="0.6000000238418579" fill="rgb(143, 165, 67)" opacity="1.0"/>
    <path d="M 144.16383361816406 418.212646484375 C 141.96424865722656 421.91949462890625 145.5585479736328 427.3648681640625 149.83395385742188 427.11676025390625 C 154.10934448242188 426.86859130859375 157.0511474609375 421.4041748046875 155.17237854003906 417.5233154296875 C 153.2936248779297 413.642578125 147.61566162109375 412.408203125 144.10018920898438 414.91143798828125 L 144.16383361816406 418.212646484375" stroke-width="0.6000000238418579" fill="rgb(233, 92, 21)" opacity="1.0"/>
    <path d="M 436.9130859375 186.11114501953125 C 434.96624755859375 186.1358642578125 432.64324951171875 186.3673095703125 431.7310791015625 188.09490966796875 C 431.394775390625 188.79656982421875 431.2845458984375 189.58526611328125 431.41552734375 190.35223388671875 C 431.6885986328125 192.25857543945312 432.86865234375 193.91433715820312 434.58154296875 194.79446411132812 C 436.0364990234375 195.53732299804688 437.71435546875 195.6177978515625 439.33746337890625 195.65792846679688 C 440.249267578125 195.67901611328125 441.21875 195.67236328125 441.986083984375 195.18865966796875 C 443.0035400390625 194.53558349609375 443.3619384765625 193.226318359375 443.501953125 192.0257568359375 C 443.7091064453125 190.26898193359375 443.6304931640625 188.49029541015625 443.269287109375 186.75863647460938 C 443.143310546875 186.16058349609375 442.9713134765625 185.54312133789062 442.5609130859375 185.09051513671875 C 442.1578369140625 184.68914794921875 441.6466064453125 184.413818359375 441.0897216796875 184.2979736328125 C 439.41400146484375 183.88095092773438 437.63970947265625 184.219970703125 436.23583984375 185.22549438476562 L 436.9130859375 186.11114501953125" stroke-width="0.6000000238418579" fill="rgb(70, 150, 179)" opacity="1.0"/>
    <path d="M 407.416748046875 158.08453369140625 C 406.9967346191406 155.86746215820312 406.4380798339844 153.42764282226562 404.5970764160156 152.1253662109375 C 402.6185607910156 150.72760009765625 399.7957763671875 151.2111358642578 397.77581787109375 152.5481719970703 C 396.99676513671875 153.0633544921875 396.2707214355469 153.723388671875 395.9178771972656 154.58804321289062 C 395.6275329589844 155.29872131347656 395.6110534667969 156.08816528320312 395.6409912109375 156.8551025390625 C 395.7324523925781 159.27374267578125 396.3254089355469 161.8468017578125 398.1145935058594 163.47610473632812 C 399.9189453125 165.116943359375 402.812744140625 165.42822265625 404.9195556640625 164.19537353515625 C 407.0263671875 162.9625244140625 408.1964416503906 160.30157470703125 407.6611328125 157.9183349609375 L 407.416748046875 158.08453369140625" stroke-width="0.6000000238418579" fill="rgb(140, 28, 33)" opacity="1.0"/>
    <path d="M 141.3040008544922 121.27792358398438 C 138.82821655273438 122.04446411132812 136.26046752929688 122.869384765625 134.33102416992188 124.60260009765625 C 132.401611328125 126.33580017089844 131.2881317138672 129.27426147460938 132.42034912109375 131.60716247558594 C 133.82435607910156 134.4837646484375 138.08412170410156 134.99533081054688 140.75746154785156 133.2242889404297 C 143.43081665039062 131.4532470703125 144.7090606689453 128.16806030273438 145.13607788085938 124.99388122558594 C 145.36669921875 124.0245361328125 145.2255859375 123.00399780273438 144.7405548095703 122.13362121582031 C 144.17538452148438 121.33268737792969 142.76686096191406 121.10202026367188 142.25279235839844 121.9423828125 L 141.3040008544922 121.27792358398438" stroke-width="0.6000000238418579" fill="rgb(159, 159, 159)" opacity="1.0"/>
    <path d="M 418.0618896484375 177.8883056640625 C 416.54132080078125 176.50311279296875 414.5130615234375 175.60870361328125 412.45989990234375 175.71475219726562 C 410.40679931640625 175.82080078125 408.3770446777344 177.02703857421875 407.54010009765625 178.91433715820312 C 406.9500732421875 180.24942016601562 406.98907470703125 181.80963134765625 407.45013427734375 183.1959228515625 C 407.9112243652344 184.5821533203125 408.76458740234375 185.80999755859375 409.7511291503906 186.88784790039062 C 410.18072509765625 187.35665893554688 410.665283203125 187.81732177734375 411.27752685546875 187.98284912109375 C 411.9793701171875 188.1729736328125 412.7191162109375 187.94131469726562 413.3995361328125 187.67864990234375 C 415.3204345703125 186.9371337890625 417.200927734375 185.87295532226562 418.3822021484375 184.18609619140625 C 419.5634765625 182.49923706054688 419.8729248046875 180.08038330078125 418.697509765625 178.39566040039062 L 418.0618896484375 177.8883056640625" stroke-width="0.6000000238418579" fill="rgb(159, 159, 159)" opacity="1.0"/>
    <path d="M 402.5144958496094 186.60833740234375 C 401.72259521484375 184.524658203125 400.75213623046875 182.24285888671875 398.7319641113281 181.31103515625 C 396.7686462402344 180.40203857421875 394.4691467285156 181.06689453125 392.4249572753906 181.778564453125 C 391.594970703125 182.06884765625 390.73126220703125 182.38580322265625 390.13763427734375 183.0338134765625 C 389.13299560546875 184.12921142578125 389.1894226074219 185.82229614257812 389.53265380859375 187.2662353515625 C 389.8507080078125 188.60659790039062 390.3595886230469 189.89434814453125 391.043701171875 191.09002685546875 C 392.15380859375 193.03192138671875 394.0268249511719 194.84310913085938 396.2606506347656 194.74447631835938 C 397.4667053222656 194.6929931640625 398.5984802246094 194.073486328125 399.4836730957031 193.25003051757812 C 400.368896484375 192.42657470703125 401.0393981933594 191.40194702148438 401.68695068359375 190.3809814453125 C 402.33447265625 189.36004638671875 402.9488525390625 188.34295654296875 403.1160888671875 187.1746826171875 L 402.5144958496094 186.60833740234375" stroke-width="0.6000000238418579" fill="rgb(218, 166, 20)" opacity="1.0"/>
    <path d="M 450.08050537109375 179.1124267578125 C 449.125732421875 182.73663330078125 451.289794921875 186.44863891601562 454.9139404296875 187.40338134765625 C 455.22430419921875 187.48516845703125 455.5400390625 187.5447998046875 455.85882568359375 187.58184814453125 C 457.0701904296875 187.72250366210938 458.371826171875 187.50619506835938 459.32086181640625 186.74136352539062 C 460.1229248046875 186.0950927734375 460.59747314453125 185.13134765625 460.94964599609375 184.16409301757812 C 461.8887939453125 181.57373046875 462.1171875 178.7791748046875 461.61114501953125 176.07073974609375 C 461.4761962890625 175.35504150390625 461.28057861328125 174.62814331054688 460.841552734375 174.0450439453125 C 460.1051025390625 173.06576538085938 458.7960205078125 172.66607666015625 457.570068359375 172.68939208984375 C 455.7498779296875 172.7227783203125 453.99456787109375 173.5682373046875 452.68896484375 174.83743286132812 C 451.38336181640625 176.10662841796875 450.5035400390625 177.771240234375 449.9996337890625 179.52081298828125 L 450.08050537109375 179.1124267578125" stroke-width="0.6000000238418579" fill="rgb(143, 165, 67)" opacity="1.0"/>
    <path d="M 147.90695190429688 105.41018676757812 C 142.88682556152344 108.998046875 144.45489501953125 118.20590209960938 150.1995849609375 120.34700012207031 C 155.9442901611328 122.48808288574219 162.95074462890625 117.02557373046875 162.727783203125 110.85726928710938 C 162.50485229492188 104.68899536132812 155.7777099609375 99.79647827148438 149.72781372070312 101.04830932617188 L 147.90695190429688 105.41018676757812" stroke-width="0.6000000238418579" fill="rgb(233, 92, 21)" opacity="1.0"/>
    <path d="M 452.76690673828125 151.94703674316406 C 451.27008056640625 154.50820922851562 449.7476806640625 157.72283935546875 451.2867431640625 160.27069091796875 C 451.938720703125 161.26080322265625 452.8818359375 162.02420043945312 453.98602294921875 162.45556640625 C 456.6893310546875 163.596435546875 459.7779541015625 163.356201171875 462.27239990234375 161.81109619140625 C 464.385009765625 160.49502563476562 465.807861328125 158.36773681640625 467.1351318359375 156.28012084960938 C 467.8787841796875 155.10623168945312 468.63153076171875 153.83534240722656 468.602783203125 152.45362854003906 C 468.54931640625 150.61224365234375 467.1214599609375 149.115966796875 465.66400146484375 147.99020385742188 C 463.5330810546875 146.33999633789062 461.14910888671875 145.04556274414062 458.60455322265625 144.15713500976562 C 457.72479248046875 143.8518524169922 456.78363037109375 143.59136962890625 455.870361328125 143.7716827392578 C 455.02978515625 143.9827880859375 454.26873779296875 144.4339141845703 453.68011474609375 145.07005310058594 C 451.81951904296875 146.93023681640625 450.8685302734375 149.51300048828125 451.0787353515625 152.1356201171875 L 452.76690673828125 151.94703674316406" stroke-width="0.6000000238418579" fill="rgb(70, 150, 179)" opacity="1.0"/>
    <path d="M 376.16253662109375 78.55044555664062 C 376.2649841308594 75.38360595703125 376.2455749511719 71.869140625 374.1208190917969 69.52137756347656 C 371.8368835449219 67.000732421875 367.820556640625 66.80009460449219 364.64337158203125 68.01466369628906 C 363.4181823730469 68.48243713378906 362.2213134765625 69.1649169921875 361.47332763671875 70.24195861816406 C 360.85809326171875 71.12710571289062 360.59405517578125 72.20396423339844 360.4005126953125 73.26416015625 C 359.7861633300781 76.60675048828125 359.8118591308594 80.3143310546875 361.7655334472656 83.0943603515625 C 363.7364807128906 85.89486694335938 367.6070861816406 87.20649719238281 370.8713684082031 86.16128540039062 C 374.13568115234375 85.11607360839844 376.5530090332031 81.82720947265625 376.54827880859375 78.39739990234375 L 376.16253662109375 78.55044555664062" stroke-width="0.6000000238418579" fill="rgb(140, 28, 33)" opacity="1.0"/>
    <path d="M 130.68072509765625 412.7357177734375 C 128.17127990722656 414.6507568359375 125.58116149902344 416.6710205078125 124.10191345214844 419.462158203125 C 122.62269592285156 422.2532958984375 122.58200073242188 426.0804443359375 124.85517883300781 428.2730712890625 C 127.66720581054688 430.9735107421875 132.75265502929688 429.77166748046875 135.06666564941406 426.625244140625 C 137.3806915283203 423.478759765625 137.46434020996094 419.1861572265625 136.6212158203125 415.37744140625 C 136.47833251953125 414.17230224609375 135.888916015625 413.0645751953125 134.96920776367188 412.27276611328125 C 133.9870147705078 411.5939636230469 132.27967834472656 411.9210205078125 132.04434204101562 413.0975341796875 L 130.68072509765625 412.7357177734375" stroke-width="0.6000000238418579" fill="rgb(159, 159, 159)" opacity="1.0"/>
    <path d="M 409.0956726074219 207.1453857421875 C 407.7412109375 204.39642333984375 405.4154052734375 202.05166625976562 402.5104064941406 201.08074951171875 C 399.6054382324219 200.10986328125 396.1337890625 200.67742919921875 393.94549560546875 202.8389892578125 C 392.4002685546875 204.36920166015625 391.60479736328125 206.55410766601562 391.4893493652344 208.72760009765625 C 391.3739013671875 210.901123046875 391.8887939453125 213.06854248046875 392.6700134277344 215.1004638671875 C 393.010498046875 215.98455810546875 393.431640625 216.88720703125 394.1905517578125 217.45016479492188 C 395.0603332519531 218.09597778320312 396.21234130859375 218.17752075195312 397.2989196777344 218.18377685546875 C 400.36663818359375 218.201416015625 403.55389404296875 217.74957275390625 406.1106262207031 216.05349731445312 C 408.6673583984375 214.357421875 410.4135437011719 211.17144775390625 409.7007751464844 208.195068359375 L 409.0956726074219 207.1453857421875" stroke-width="0.6000000238418579" fill="rgb(159, 159, 159)" opacity="1.0"/>
    <path d="M 386.5859375 120.9534912109375 C 383.9081115722656 122.1959228515625 380.98541259765625 123.69291687011719 379.9448547363281 126.44927978515625 C 378.92913818359375 129.12841796875 380.0241394042969 132.10328674316406 381.15679931640625 134.7365264892578 C 381.6185302734375 135.80557250976562 382.11859130859375 136.9165802001953 383.030517578125 137.63967895507812 C 384.5721740722656 138.86355590820312 386.8033447265625 138.6294403076172 388.67840576171875 138.03997802734375 C 390.4189758300781 137.4935302734375 392.07208251953125 136.69996643066406 393.58709716796875 135.68360900878906 C 396.0476379394531 134.03421020507812 398.26361083984375 131.3893280029297 397.92279052734375 128.4478302001953 C 397.7411193847656 126.85954284667969 396.8161315917969 125.42289733886719 395.64495849609375 124.3311767578125 C 394.4737854003906 123.23945617675781 393.05712890625 122.45028686523438 391.6474609375 121.69113159179688 C 390.2377624511719 120.93197631835938 388.83636474609375 120.21624755859375 387.2773742675781 120.10543823242188 L 386.5859375 120.9534912109375" stroke-width="0.6000000238418579" fill="rgb(218, 166, 20)" opacity="1.0"/>
    <path d="M 401.7802429199219 81.40090942382812 C 398.3506164550781 77.65707397460938 392.5353698730469 77.40234375 388.7915344238281 80.83197021484375 C 388.470947265625 81.12565612792969 388.1716003417969 81.44171142578125 387.895751953125 81.77775573730469 C 386.8477783203125 83.05484008789062 386.14031982421875 84.6964111328125 386.3162536621094 86.33824157714844 C 386.46478271484375 87.72572326660156 387.215087890625 88.97271728515625 388.0590515136719 90.08282470703125 C 390.3221740722656 93.05116271972656 393.3388366699219 95.35940551757812 396.7956237792969 96.76776123046875 C 397.7099914550781 97.13848876953125 398.6815490722656 97.44830322265625 399.6676330566406 97.37539672851562 C 401.3231201171875 97.25396728515625 402.73785400390625 96.05532836914062 403.6097412109375 94.64141845703125 C 404.9056396484375 92.54315185546875 405.228759765625 89.923583984375 404.7394714355469 87.505859375 C 404.25018310546875 85.08815002441406 402.99835205078125 82.8658447265625 401.3742370605469 81.009521484375 L 401.7802429199219 81.40090942382812" stroke-width="0.6000000238418579" fill="rgb(143, 165, 67)" opacity="1.0"/>
    <path d="M 117.10028076171875 424.48223876953125 C 114.11520385742188 419.13873291015625 104.86537170410156 419.67218017578125 102.12295532226562 425.10009765625 C 99.38058471679688 430.528076171875 103.995361328125 438.03582763671875 110.10079956054688 438.4942626953125 C 116.20623779296875 438.95263671875 121.76908874511719 432.8587646484375 121.20016479492188 426.75689697265625 L 117.10028076171875 424.48223876953125" stroke-width="0.6000000238418579" fill="rgb(233, 92, 21)" opacity="1.0"/>
    <path d="M 447.3184814453125 197.37103271484375 C 445.86614990234375 199.942138671875 444.39794921875 203.1640625 445.9671630859375 205.67742919921875 C 446.63055419921875 206.65335083007812 447.5804443359375 207.39938354492188 448.685791015625 207.81256103515625 C 451.3931884765625 208.90850830078125 454.46380615234375 208.62417602539062 456.9239501953125 207.04977416992188 C 459.0074462890625 205.70892333984375 460.3924560546875 203.57073974609375 461.6829833984375 201.47344970703125 C 462.406005859375 200.29415893554688 463.1365966796875 199.0181884765625 463.087646484375 197.64337158203125 C 463.00750732421875 195.81137084960938 461.564453125 194.343017578125 460.0972900390625 193.24383544921875 C 457.9521484375 191.632568359375 455.5604248046875 190.37908935546875 453.0147705078125 189.53207397460938 C 452.1346435546875 189.24111938476562 451.194091796875 188.99560546875 450.2877197265625 189.1884765625 C 449.4541015625 189.410888671875 448.7032470703125 189.87103271484375 448.126708984375 190.5128173828125 C 446.302001953125 192.39157104492188 445.39337158203125 194.9761962890625 445.64093017578125 197.58343505859375 L 447.3184814453125 197.37103271484375" stroke-width="0.6000000238418579" fill="rgb(70, 150, 179)" opacity="1.0"/>
    <path d="M 411.8156433105469 134.4778289794922 C 411.4476318359375 131.38955688476562 410.9100341796875 127.98190307617188 408.5015869140625 126.0172119140625 C 405.91314697265625 123.90824890136719 401.9859924316406 124.30636596679688 399.08209228515625 125.9539794921875 C 397.9621887207031 126.58876037597656 396.9014587402344 127.427734375 396.3345642089844 128.58331298828125 C 395.8681640625 129.53309631347656 395.7709045410156 130.6170654296875 395.73956298828125 131.67445373535156 C 395.63677978515625 135.0088653564453 396.2089538574219 138.6029815673828 398.51519775390625 141.01242065429688 C 400.8412170410156 143.4391632080078 404.7909240722656 144.1406707763672 407.80438232421875 142.64454650878906 C 410.8178405761719 141.1484375 412.67822265625 137.60003662109375 412.1673583984375 134.2723846435547 L 411.8156433105469 134.4778289794922" stroke-width="0.6000000238418579" fill="rgb(140, 28, 33)" opacity="1.0"/>
    <path d="M 399.4060974121094 71.80755615234375 C 400.3669738769531 74.75735473632812 401.3993225097656 77.81619262695312 403.50762939453125 80.09512329101562 C 405.61590576171875 82.3740234375 409.15240478515625 83.65521240234375 411.9247741699219 82.25918579101562 C 415.3431396484375 80.52828979492188 415.8807373046875 75.42088317871094 413.714111328125 72.25224304199219 C 411.5475158691406 69.08360290527344 407.5931091308594 67.61129760742188 403.7864990234375 67.15585327148438 C 402.62225341796875 66.89682006835938 401.40325927734375 67.0836181640625 400.3700256347656 67.67941284179688 C 399.4212951660156 68.36988830566406 399.169921875 70.05976867675781 400.18475341796875 70.66032409667969 L 399.4060974121094 71.80755615234375" stroke-width="0.6000000238418579" fill="rgb(159, 159, 159)" opacity="1.0"/>
    <path d="M 442.00274658203125 235.50167846679688 C 440.3077392578125 238.0286865234375 439.441650390625 241.19140625 440.044677734375 244.1722412109375 C 440.647705078125 247.153076171875 442.85546875 249.85968017578125 445.79931640625 250.6724853515625 C 447.8814697265625 251.2445068359375 450.15576171875 250.84707641601562 452.0833740234375 249.87005615234375 C 454.0111083984375 248.89303588867188 455.621337890625 247.3765869140625 456.983154296875 245.69802856445312 C 457.57537841796875 244.96722412109375 458.1436767578125 244.15774536132812 458.2523193359375 243.225830078125 C 458.3773193359375 242.15750122070312 457.8770751953125 241.12570190429688 457.3443603515625 240.18746948242188 C 455.84033203125 237.5386962890625 453.873046875 235.01950073242188 451.14727783203125 233.65911865234375 C 448.4215087890625 232.29876708984375 444.81494140625 232.37371826171875 442.6064453125 234.46112060546875 L 442.00274658203125 235.50167846679688" stroke-width="0.6000000238418579" fill="rgb(159, 159, 159)" opacity="1.0"/>
    <path d="M 408.05120849609375 261.7079162597656 C 406.4845275878906 259.2655029296875 404.63726806640625 256.6185302734375 401.81427001953125 255.97235107421875 C 399.06976318359375 255.34002685546875 396.31842041015625 256.8027038574219 393.9048156738281 258.256591796875 C 392.9252014160156 258.8486328125 391.9097900390625 259.483642578125 391.3270568847656 260.4681091308594 C 390.34051513671875 262.132568359375 390.86572265625 264.2742919921875 391.6895751953125 266.0218505859375 C 392.45361328125 267.6441955566406 393.4466857910156 269.1484069824219 394.6383361816406 270.4884948730469 C 396.5724182128906 272.6650695800781 399.4434509277344 274.4708557128906 402.26275634765625 273.7471008300781 C 403.7853698730469 273.3586120605469 405.061279296875 272.2663879394531 405.9684753417969 270.9803771972656 C 406.8757019042969 269.6943359375 407.4555358886719 268.20953369140625 408.007080078125 266.73553466796875 C 408.5586242675781 265.26153564453125 409.0690002441406 263.8013916015625 408.96923828125 262.268310546875 L 408.05120849609375 261.7079162597656" stroke-width="0.6000000238418579" fill="rgb(218, 166, 20)" opacity="1.0"/>
    <path d="M 416.54541015625 87.08248901367188 C 414.4979248046875 91.73843383789062 416.612548828125 97.17257690429688 421.26849365234375 99.22000122070312 C 421.66717529296875 99.39533996582031 422.0777587890625 99.54214477539062 422.49725341796875 99.65936279296875 C 424.0911865234375 100.10446166992188 425.8818359375 100.09017944335938 427.3160400390625 99.26594543457031 C 428.528076171875 98.56953430175781 429.3682861328125 97.37811279296875 430.04522705078125 96.15615844726562 C 431.85272216796875 92.88278198242188 432.75079345703125 89.18513488769531 432.6461181640625 85.44732666015625 C 432.6168212890625 84.45938110351562 432.508544921875 83.44357299804688 432.04351806640625 82.56900024414062 C 431.263671875 81.10028076171875 429.59356689453125 80.28727722167969 427.9453125 80.05886840820312 C 425.49835205078125 79.71807861328125 422.96630859375 80.4796142578125 420.9473876953125 81.9044189453125 C 418.928466796875 83.32923889160156 417.39654541015625 85.37423706054688 416.35052490234375 87.61276245117188 L 416.54541015625 87.08248901367188" stroke-width="0.6000000238418579" fill="rgb(143, 165, 67)" opacity="1.0"/>
    <path d="M 442.51422119140625 129.17855834960938 C 439.8040771484375 134.6973419189453 445.5284423828125 142.0355682373047 451.5799560546875 141.2010955810547 C 457.63134765625 140.36659240722656 461.19891357421875 132.2649688720703 458.0902099609375 126.95831298828125 C 454.9815673828125 121.65165710449219 446.7686767578125 120.53610229492188 442.0518798828125 124.49160766601562 L 442.51422119140625 129.17855834960938" stroke-width="0.6000000238418579" fill="rgb(233, 92, 21)" opacity="1.0"/>
    <path d="M 446.81744384765625 94.72425842285156 C 445.938232421875 97.56015014648438 445.1820068359375 101.03889465332031 447.25946044921875 103.17427062988281 C 448.1192626953125 103.99188232421875 449.21160888671875 104.52255249023438 450.3857421875 104.69305419921875 C 453.2796630859375 105.19305419921875 456.236328125 104.25942993164062 458.31829833984375 102.18820190429688 C 460.079833984375 100.42669677734375 460.98529052734375 98.03053283691406 461.80645751953125 95.69473266601562 C 462.265625 94.38189697265625 462.711669921875 92.972412109375 462.3707275390625 91.63188171386719 C 461.901611328125 89.84880065917969 460.170654296875 88.71343994140625 458.494873046875 87.94598388671875 C 456.043701171875 86.81973266601562 453.4263916015625 86.09767150878906 450.7445068359375 85.80776977539062 C 449.817626953125 85.70941162109375 448.84112548828125 85.6685791015625 447.9915771484375 86.05120849609375 C 447.21990966796875 86.44735717773438 446.58013916015625 87.05950927734375 446.150390625 87.81300354003906 C 444.7576904296875 90.04788208007812 444.41552734375 92.78120422363281 445.21429443359375 95.29042053222656 L 446.81744384765625 94.72425842285156" stroke-width="0.6000000238418579" fill="rgb(70, 150, 179)" opacity="1.0"/>
    <path d="M 321.21099853515625 375.9693908691406 C 318.19482421875 376.5892333984375 314.8776550292969 377.4029235839844 313.1396179199219 379.94232177734375 C 311.2742004394531 382.67132568359375 311.9934997558594 386.5125732421875 313.8603820800781 389.2405090332031 C 314.5797424316406 390.2925720214844 315.4956359863281 391.269287109375 316.68280029296875 391.73248291015625 C 317.6585998535156 392.1136474609375 318.736083984375 392.1194763183594 319.7818908691406 392.0624694824219 C 323.08001708984375 391.8866882324219 326.5782775878906 391.0233459472656 328.7635803222656 388.54779052734375 C 330.9643249511719 386.05126953125 331.3280029296875 382.0963134765625 329.6014709472656 379.24774169921875 C 327.8749084472656 376.399169921875 324.2195129394531 374.8587951660156 320.97906494140625 375.63946533203125 L 321.21099853515625 375.9693908691406" stroke-width="0.6000000238418579" fill="rgb(140, 28, 33)" opacity="1.0"/>
    <path d="M 306.7911682128906 397.3554382324219 C 303.5899353027344 398.52215576171875 300.2716979980469 399.7714538574219 297.85040283203125 402.1721496582031 C 295.42913818359375 404.5727844238281 294.1571960449219 408.5032043457031 295.7948303222656 411.4931640625 C 297.82452392578125 415.179443359375 303.450927734375 415.5755615234375 306.8465576171875 413.0770263671875 C 310.2422180175781 410.5785827636719 311.7080383300781 406.1822509765625 312.0633544921875 401.9867248535156 C 312.3034362792969 400.6990051269531 312.0521240234375 399.36810302734375 311.3589172363281 398.25665283203125 C 310.56500244140625 397.2415466308594 308.70062255859375 397.0298156738281 308.0799865722656 398.16650390625 L 306.7911682128906 397.3554382324219" stroke-width="0.6000000238418579" fill="rgb(159, 159, 159)" opacity="1.0"/>
    <path d="M 322.1643371582031 412.8233642578125 C 319.0483703613281 413.97998046875 316.26080322265625 416.2294921875 314.8913269042969 419.25604248046875 C 313.5218505859375 422.2825927734375 313.74945068359375 426.091064453125 315.8390197753906 428.69158935546875 C 317.3186950683594 430.5283203125 319.58782958984375 431.62872314453125 321.9200439453125 431.994140625 C 324.25225830078125 432.359619140625 326.647705078125 432.0443115234375 328.92657470703125 431.42669677734375 C 329.9181213378906 431.1573486328125 330.9386901855469 430.802978515625 331.6301574707031 430.046630859375 C 332.42333984375 429.1798095703125 332.63897705078125 427.9459228515625 332.76617431640625 426.7742919921875 C 333.1252136230469 423.46649169921875 332.990966796875 419.9776611328125 331.4444274902344 417.03125 C 329.89788818359375 414.0848388671875 326.65411376953125 411.84771728515625 323.3638916015625 412.286865234375 L 322.1643371582031 412.8233642578125" stroke-width="0.6000000238418579" fill="rgb(159, 159, 159)" opacity="1.0"/>
    <path d="M 272.75994873046875 415.42694091796875 C 270.40185546875 417.6129150390625 267.87542724609375 420.14501953125 267.72198486328125 423.3504638671875 C 267.5683898925781 426.4676513671875 269.7012939453125 429.18310546875 271.7586364746094 431.53173828125 C 272.5958251953125 432.48468017578125 273.48681640625 433.46826171875 274.6744689941406 433.91156005859375 C 276.6827392578125 434.66259765625 278.91632080078125 433.6712646484375 280.6615905761719 432.4312744140625 C 282.281982421875 431.28094482421875 283.7287902832031 429.9039306640625 284.9577331542969 428.34228515625 C 286.9541320800781 425.80743408203125 288.3630065917969 422.32305908203125 287.0228271484375 419.38916015625 C 286.3016357421875 417.80419921875 284.86102294921875 416.6258544921875 283.2810363769531 415.887451171875 C 281.7010498046875 415.14910888671875 279.9681701660156 414.806640625 278.25262451171875 414.49298095703125 C 276.5370788574219 414.1793212890625 274.84466552734375 413.9078369140625 273.19189453125 414.31610107421875 L 272.75994873046875 415.42694091796875" stroke-width="0.6000000238418579" fill="rgb(218, 166, 20)" opacity="1.0"/>
    <path d="M 223.09454345703125 413.8616943359375 C 217.91546630859375 412.2205810546875 212.3865966796875 415.0887451171875 210.7454833984375 420.267822265625 C 210.60498046875 420.7113037109375 210.49609375 421.1641845703125 210.41961669921875 421.623046875 C 210.1295166015625 423.3668212890625 210.34976196289062 425.266845703125 211.38934326171875 426.69549560546875 C 212.26776123046875 427.9029541015625 213.6292724609375 428.6588134765625 215.0045166015625 429.23779296875 C 218.6878662109375 430.78240966796875 222.71759033203125 431.3126220703125 226.6751708984375 430.7734375 C 227.72100830078125 430.62908935546875 228.78738403320312 430.39776611328125 229.66293334960938 429.80377197265625 C 231.13336181640625 428.807373046875 231.80551147460938 426.94061279296875 231.85928344726562 425.1639404296875 C 231.94097900390625 422.52630615234375 230.84222412109375 419.92449951171875 229.09783935546875 417.943603515625 C 227.35345458984375 415.962646484375 225.0062255859375 414.57000732421875 222.50909423828125 413.71551513671875 L 223.09454345703125 413.8616943359375" stroke-width="0.6000000238418579" fill="rgb(143, 165, 67)" opacity="1.0"/>
    <path d="M 286.6370544433594 365.30828857421875 C 287.8404235839844 371.8627624511719 297.5617980957031 374.5560607910156 302.29168701171875 369.9227294921875 C 307.02154541015625 365.28936767578125 304.8971862792969 355.9326477050781 298.7646789550781 353.3194580078125 C 292.6322021484375 350.70623779296875 284.7615966796875 355.0372009277344 283.2086181640625 361.52618408203125 L 286.6370544433594 365.30828857421875" stroke-width="0.6000000238418579" fill="rgb(233, 92, 21)" opacity="1.0"/>
    <path d="M 332.2369689941406 360.89276123046875 C 332.4532775878906 364.1112060546875 333.04547119140625 367.9332580566406 335.9856262207031 369.2866516113281 C 337.1766662597656 369.7796936035156 338.4913330078125 369.8910217285156 339.748291015625 369.605224609375 C 342.87738037109375 368.9818115234375 345.51019287109375 366.8804016113281 346.81182861328125 363.9674072265625 C 347.9096374511719 361.4935607910156 347.8916015625 358.710693359375 347.8117370605469 356.0219421386719 C 347.76446533203125 354.5116271972656 347.6661071777344 352.90850830078125 346.79681396484375 351.68267822265625 C 345.624755859375 350.0582275390625 343.426513671875 349.5832824707031 341.4278259277344 349.4598388671875 C 338.5029602050781 349.2754821777344 335.5675354003906 349.5657653808594 332.73541259765625 350.3194274902344 C 331.75738525390625 350.58172607421875 330.7514343261719 350.9217834472656 330.0396423339844 351.6414794921875 C 329.41204833984375 352.34454345703125 329.0025634765625 353.21502685546875 328.86114501953125 354.1467590332031 C 328.3222351074219 356.9564514160156 329.04296875 359.861083984375 330.8328552246094 362.0929260253906 L 332.2369689941406 360.89276123046875" stroke-width="0.6000000238418579" fill="rgb(70, 150, 179)" opacity="1.0"/>
    <path d="M 295.9422912597656 416.415283203125 C 292.52960205078125 416.71710205078125 288.7595520019531 417.1949462890625 286.5156555175781 419.78094482421875 C 284.10687255859375 422.56036376953125 284.4137268066406 426.897705078125 286.130615234375 430.1502685546875 C 286.79205322265625 431.4046630859375 287.6802673339844 432.60064697265625 288.93365478515625 433.2635498046875 C 289.96380615234375 433.808837890625 291.1540832519531 433.9522705078125 292.3172912597656 434.02215576171875 C 295.9852294921875 434.24700927734375 299.96173095703125 433.7373046875 302.69189453125 431.2786865234375 C 305.4417724609375 428.79888916015625 306.346435546875 424.4735107421875 304.8000183105469 421.1053466796875 C 303.2536315917969 417.7373046875 299.4089050292969 415.570068359375 295.72784423828125 416.0211181640625 L 295.9422912597656 416.415283203125" stroke-width="0.6000000238418579" fill="rgb(140, 28, 33)" opacity="1.0"/>
    <path d="M 334.95257568359375 388.81072998046875 C 331.57073974609375 389.21929931640625 328.05621337890625 389.6817321777344 325.15338134765625 391.46893310546875 C 322.25054931640625 393.256103515625 320.11920166015625 396.7937927246094 321.03424072265625 400.0769348144531 C 322.1728515625 404.1271057128906 327.5607604980469 405.79107666015625 331.4344787597656 404.1300354003906 C 335.3081970214844 402.4690246582031 337.73419189453125 398.521728515625 339.0333557128906 394.5176696777344 C 339.5597229003906 393.3184814453125 339.6174011230469 391.9656066894531 339.1950378417969 390.7259826660156 C 338.6526794433594 389.5572814941406 336.8856201171875 388.92755126953125 336.0231018066406 389.8932189941406 L 334.95257568359375 388.81072998046875" stroke-width="0.6000000238418579" fill="rgb(159, 159, 159)" opacity="1.0"/>
    <path d="M 346.18212890625 410.7430419921875 C 342.8687744140625 410.8288879394531 339.5126647949219 412.05181884765625 337.2438049316406 414.465576171875 C 334.97491455078125 416.87939453125 333.9606628417969 420.54638671875 335.09307861328125 423.6744384765625 C 335.8965148925781 425.885009765625 337.6824951171875 427.65557861328125 339.76513671875 428.75299072265625 C 341.8477783203125 429.85040283203125 344.20977783203125 430.325927734375 346.559326171875 430.47857666015625 C 347.58184814453125 430.54437255859375 348.6591491699219 430.5394287109375 349.5556945800781 430.048828125 C 350.5838317871094 429.48687744140625 351.18548583984375 428.39227294921875 351.68359375 427.3277587890625 C 353.08978271484375 424.322509765625 354.0889892578125 420.9873046875 353.58056640625 417.7081298828125 C 353.0721130371094 414.428955078125 350.73333740234375 411.2713317871094 347.4870910644531 410.6239013671875 L 346.18212890625 410.7430419921875" stroke-width="0.6000000238418579" fill="rgb(159, 159, 159)" opacity="1.0"/>
    <path d="M 255.50885009765625 368.6977844238281 C 256.0487365722656 365.44500732421875 256.5079040527344 361.8060302734375 254.62014770507812 359.1105041503906 C 252.78799438476562 356.48651123046875 249.35400390625 355.62359619140625 246.21148681640625 355.01055908203125 C 244.93450927734375 354.7633972167969 243.59463500976562 354.52520751953125 242.35333251953125 354.9112243652344 C 240.25347900390625 355.5628967285156 239.06463623046875 357.76873779296875 238.4278564453125 359.8697509765625 C 237.83602905273438 361.81964111328125 237.52728271484375 363.84442138671875 237.51101684570312 365.8820495605469 C 237.48342895507812 369.1906433105469 238.52825927734375 372.9003601074219 241.45657348632812 374.43804931640625 C 243.0362548828125 375.2705078125 244.944091796875 375.3217468261719 246.688720703125 374.92864990234375 C 248.433349609375 374.5355529785156 250.05340576171875 373.7254638671875 251.641357421875 372.9029541015625 C 253.22933959960938 372.0804138183594 254.77203369140625 371.2381896972656 255.85589599609375 369.8696594238281 L 255.50885009765625 368.6977844238281" stroke-width="0.6000000238418579" fill="rgb(218, 166, 20)" opacity="1.0"/>
    <path d="M 252.79547119140625 390.74713134765625 C 250.1441650390625 385.8720703125 244.0428466796875 384.0693664550781 239.16778564453125 386.7206726074219 C 238.75033569335938 386.9477233886719 238.34951782226562 387.2040710449219 237.96832275390625 387.4878234863281 C 236.52017211914062 388.5663146972656 235.337158203125 390.12115478515625 235.091064453125 391.9090576171875 C 234.88296508789062 393.41998291015625 235.35025024414062 394.9404296875 235.95291137695312 396.3403625488281 C 237.57122802734375 400.0854187011719 240.162841796875 403.328857421875 243.45843505859375 405.7337341308594 C 244.33062744140625 406.367919921875 245.279541015625 406.9526062011719 246.3447265625 407.1351318359375 C 248.1328125 407.4425964355469 249.9493408203125 406.54400634765625 251.24679565429688 405.27398681640625 C 253.17437744140625 403.3897705078125 254.20745849609375 400.6962585449219 254.3255615234375 398.00274658203125 C 254.4437255859375 395.3092346191406 253.70150756835938 392.6220397949219 252.46795654296875 390.2249755859375 L 252.79547119140625 390.74713134765625" stroke-width="0.6000000238418579" fill="rgb(143, 165, 67)" opacity="1.0"/>
    <path d="M 202.9805908203125 370.8221435546875 C 201.34185791015625 377.2989196777344 209.07894897460938 383.81134033203125 215.32412719726562 381.56207275390625 C 221.56930541992188 379.31280517578125 223.53814697265625 369.8973388671875 219.0389404296875 364.9558410644531 C 214.53973388671875 360.0143127441406 205.55792236328125 360.6770935058594 201.43402099609375 365.9437561035156 L 202.9805908203125 370.8221435546875" stroke-width="0.6000000238418579" fill="rgb(233, 92, 21)" opacity="1.0"/>
    <path d="M 268.42608642578125 368.5652160644531 C 268.22509765625 371.7733154296875 268.3177490234375 375.6263427734375 271.0486145019531 377.342529296875 C 272.1619567871094 377.98321533203125 273.4466857910156 378.26263427734375 274.7255554199219 378.1422119140625 C 277.8978271484375 377.92938232421875 280.7701721191406 376.19219970703125 282.4317321777344 373.4815368652344 C 283.8352966308594 371.1784973144531 284.17608642578125 368.4263610839844 284.44366455078125 365.75921630859375 C 284.591552734375 364.2607421875 284.7009582519531 362.6639709472656 283.9999694824219 361.3406677246094 C 283.0511474609375 359.58447265625 280.940185546875 358.8319091796875 278.98114013671875 358.4523620605469 C 276.11474609375 357.8932800292969 273.1767578125 357.8018798828125 270.2811279296875 358.1816101074219 C 269.2808837890625 358.31475830078125 268.2430725097656 358.5211486816406 267.4469909667969 359.1405944824219 C 266.7362365722656 359.7544250488281 266.2194519042969 360.5617980957031 265.95965576171875 361.46429443359375 C 265.0650634765625 364.171142578125 265.4029541015625 367.13421630859375 266.8840026855469 369.5701904296875 L 268.42608642578125 368.5652160644531" stroke-width="0.6000000238418579" fill="rgb(70, 150, 179)" opacity="1.0"/>
    <path d="M 327.5201721191406 364.62420654296875 C 328.3156433105469 361.2348327636719 329.0550842285156 357.444580078125 327.2740783691406 354.4557189941406 C 325.35894775390625 351.2461853027344 321.07568359375 350.1611328125 317.3902282714844 350.7821960449219 C 315.9691467285156 351.02105712890625 314.53216552734375 351.4973449707031 313.49334716796875 352.49578857421875 C 312.6390686035156 353.31622314453125 312.1216735839844 354.4191589355469 311.6838073730469 355.5194091796875 C 310.298828125 358.9873962402344 309.5243835449219 362.9870300292969 311.027587890625 366.4045715332031 C 312.54498291015625 369.8478698730469 316.4309387207031 372.0982360839844 320.173583984375 371.678466796875 C 323.916259765625 371.2586975097656 327.2319030761719 368.2386474609375 327.96881103515625 364.54278564453125 L 327.5201721191406 364.62420654296875" stroke-width="0.6000000238418579" fill="rgb(140, 28, 33)" opacity="1.0"/>
    <path d="M 351.9740295410156 393.70050048828125 C 348.5842590332031 394.111328125 345.0615234375 394.5762023925781 342.15240478515625 396.3687438964844 C 339.2433166503906 398.1612854003906 337.1081848144531 401.708251953125 338.02667236328125 404.9989013671875 C 339.1695251464844 409.0583190917969 344.5709533691406 410.7242431640625 348.45330810546875 409.0577697753906 C 352.3356628417969 407.3913269042969 354.7659912109375 403.4336853027344 356.0667419433594 399.4195556640625 C 356.5938720703125 398.21728515625 356.6512145996094 396.86114501953125 356.22735595703125 395.61871337890625 C 355.68328857421875 394.44744873046875 353.9117431640625 393.8168640136719 353.0475158691406 394.7851867675781 L 351.9740295410156 393.70050048828125" stroke-width="0.6000000238418579" fill="rgb(159, 159, 159)" opacity="1.0"/>
    <path d="M 187.59356689453125 408.5628356933594 C 184.360107421875 409.1772766113281 181.26675415039062 410.9129333496094 179.4295654296875 413.64166259765625 C 177.59234619140625 416.37042236328125 177.18524169921875 420.12646484375 178.79571533203125 423.01080322265625 C 179.9368896484375 425.048583984375 181.9705810546875 426.4979248046875 184.187255859375 427.2401123046875 C 186.40399169921875 427.9822998046875 188.794921875 428.0703125 191.1219482421875 427.84381103515625 C 192.13458251953125 427.74462890625 193.1895751953125 427.5673828125 193.98968505859375 426.943115234375 C 194.9073486328125 426.227783203125 195.32177734375 425.0587158203125 195.63958740234375 423.935791015625 C 196.53668212890625 420.7655029296875 196.98211669921875 417.3370361328125 195.958984375 414.2047119140625 C 194.93585205078125 411.0723571777344 192.13839721679688 408.3521423339844 188.8533935546875 408.2372131347656 L 187.59356689453125 408.5628356933594" stroke-width="0.6000000238418579" fill="rgb(159, 159, 159)" opacity="1.0"/>
    <path d="M 357.3162536621094 374.5682678222656 C 354.1427001953125 375.3095703125 350.64727783203125 376.2710266113281 348.9032897949219 379.01654052734375 C 347.2034912109375 381.6842041015625 347.71868896484375 385.14569091796875 348.35137939453125 388.24639892578125 C 348.6102600097656 389.5056457519531 348.9011535644531 390.8188781738281 349.7243957519531 391.80535888671875 C 351.1158142089844 393.4745788574219 353.5800476074219 393.7228088378906 355.73919677734375 393.5069274902344 C 357.74334716796875 393.30731201171875 359.70843505859375 392.82098388671875 361.5743408203125 392.0627746582031 C 364.6044616699219 390.832763671875 367.5939025878906 388.4718017578125 367.8863830566406 385.2158203125 C 368.0468444824219 383.458251953125 367.36981201171875 381.69757080078125 366.34918212890625 380.2544250488281 C 365.32855224609375 378.811279296875 363.9745788574219 377.6399841308594 362.6214599609375 376.5027160644531 C 361.268310546875 375.365478515625 359.9143371582031 374.2769775390625 358.2541198730469 373.80694580078125 L 357.3162536621094 374.5682678222656" stroke-width="0.6000000238418579" fill="rgb(218, 166, 20)" opacity="1.0"/>
    <path d="M 373.9976806640625 385.0890197753906 C 370.04351806640625 389.00933837890625 370.0160827636719 395.3928527832031 373.9363708496094 399.3470153808594 C 374.2720947265625 399.68560791015625 374.6313781738281 399.99993896484375 375.0115661621094 400.2877197265625 C 376.4563903808594 401.3808288574219 378.285888671875 402.08502197265625 380.0774230957031 401.8211669921875 C 381.5914306640625 401.598388671875 382.9254455566406 400.72216796875 384.10540771484375 399.7492980957031 C 387.26025390625 397.1408386230469 389.65911865234375 393.7351989746094 391.05279541015625 389.8861999511719 C 391.41949462890625 388.8681945800781 391.7169494628906 387.79010009765625 391.5943603515625 386.71270751953125 C 391.3896484375 384.90380859375 390.0149230957031 383.4053649902344 388.42779541015625 382.5111389160156 C 386.0723571777344 381.1818542480469 383.18780517578125 380.9411926269531 380.5595703125 381.5820007324219 C 377.93133544921875 382.2228088378906 375.5502624511719 383.6907958984375 373.58636474609375 385.5508728027344 L 373.9976806640625 385.0890197753906" stroke-width="0.6000000238418579" fill="rgb(143, 165, 67)" opacity="1.0"/>
    <path d="M 366.7023620605469 362.1776428222656 C 369.0227966308594 368.41619873046875 379.05224609375 369.37945556640625 382.90118408203125 364.0016174316406 C 386.7500915527344 358.623779296875 383.0377502441406 349.7885437011719 376.5523986816406 348.2816467285156 C 370.0670166015625 346.7747497558594 363.0762939453125 352.39984130859375 362.674072265625 359.052001953125 L 366.7023620605469 362.1776428222656" stroke-width="0.6000000238418579" fill="rgb(233, 92, 21)" opacity="1.0"/>
    <path d="M 398.3778991699219 364.4725341796875 C 398.25421142578125 367.686279296875 398.43975830078125 371.5379943847656 401.2126770019531 373.1887512207031 C 402.34173583984375 373.802734375 403.6335144042969 374.05126953125 404.9097900390625 373.89996337890625 C 408.07769775390625 373.6106262207031 410.90887451171875 371.80377197265625 412.5054931640625 369.0523681640625 C 413.8538818359375 366.7149353027344 414.12841796875 363.95391845703125 414.33172607421875 361.2796936035156 C 414.4434814453125 359.77728271484375 414.514404296875 358.1774597167969 413.7813720703125 356.8707580566406 C 412.78997802734375 355.13702392578125 410.660400390625 354.4351501464844 408.69171142578125 354.10272216796875 C 405.8111267089844 353.6126403808594 402.8702087402344 353.592041015625 399.9830322265625 354.04168701171875 C 398.98577880859375 354.198974609375 397.9526672363281 354.4304504394531 397.17132568359375 355.0692443847656 C 396.4752197265625 355.7003479003906 395.977783203125 356.5203857421875 395.7396545410156 357.4293518066406 C 394.9101257324219 360.158447265625 395.31951904296875 363.11407470703125 396.8596496582031 365.5149230957031 L 398.3778991699219 364.4725341796875" stroke-width="0.6000000238418579" fill="rgb(70, 150, 179)" opacity="1.0"/>
    <path d="M 388.6076354980469 414.1083984375 C 387.11187744140625 417.16107177734375 385.58209228515625 420.6075439453125 386.6259460449219 423.8404541015625 C 387.74932861328125 427.312744140625 391.5897521972656 429.2789306640625 395.23297119140625 429.490966796875 C 396.6376037597656 429.5732421875 398.1091613769531 429.43310546875 399.3155212402344 428.7091064453125 C 400.30743408203125 428.1143798828125 401.04022216796875 427.1773681640625 401.69677734375 426.22552490234375 C 403.770751953125 423.2264404296875 405.3794860839844 419.58831787109375 404.6934814453125 416.0079345703125 C 403.99957275390625 412.39984130859375 400.7912902832031 409.41107177734375 397.13751220703125 408.9950256347656 C 393.48370361328125 408.5789489746094 389.669677734375 410.73089599609375 388.1628723144531 414.088134765625 L 388.6076354980469 414.1083984375" stroke-width="0.6000000238418579" fill="rgb(140, 28, 33)" opacity="1.0"/>
    <path d="M 406.75006103515625 393.7356872558594 C 405.4082946777344 396.85333251953125 404.0464782714844 400.1121826171875 404.1320495605469 403.5076599121094 C 404.2176818847656 406.9031066894531 406.1974792480469 410.5107421875 409.4837646484375 411.3668212890625 C 413.54266357421875 412.41448974609375 417.67431640625 408.60687255859375 418.18359375 404.4383239746094 C 418.69293212890625 400.269775390625 416.50787353515625 396.20318603515625 413.7095947265625 393.07879638671875 C 412.94024658203125 392.02484130859375 411.8038024902344 391.297607421875 410.5245056152344 391.04058837890625 C 409.2462158203125 390.92242431640625 407.81878662109375 392.129150390625 408.2186279296875 393.355712890625 L 406.75006103515625 393.7356872558594" stroke-width="0.6000000238418579" fill="rgb(159, 159, 159)" opacity="1.0"/>
    <path d="M 433.32550048828125 368.8694152832031 C 433.8148193359375 372.1849365234375 435.45068359375 375.405029296875 438.14971923828125 377.38885498046875 C 440.8487548828125 379.3726806640625 444.653076171875 379.94464111328125 447.6552734375 378.4273376464844 C 449.7764892578125 377.3518981933594 451.33648681640625 375.3437194824219 452.1846923828125 373.11962890625 C 453.03289794921875 370.8955383300781 453.222900390625 368.4667053222656 453.0902099609375 366.0896301269531 C 453.0318603515625 365.05523681640625 452.89581298828125 363.97442626953125 452.2943115234375 363.1341552734375 C 451.6051025390625 362.1705017089844 450.43310546875 361.6997375488281 449.30401611328125 361.3292541503906 C 446.1162109375 360.2833251953125 442.64678955078125 359.68609619140625 439.4169921875 360.5954284667969 C 436.1871337890625 361.5047607421875 433.30206298828125 364.23663330078125 433.047119140625 367.573974609375 L 433.32550048828125 368.8694152832031" stroke-width="0.6000000238418579" fill="rgb(159, 159, 159)" opacity="1.0"/>
    <path d="M 422.0357666015625 408.42572021484375 C 419.0537109375 409.6691589355469 415.7928466796875 411.1805114746094 414.5361328125 414.15020751953125 C 413.3099365234375 417.0364990234375 414.37939453125 420.337158203125 415.5047607421875 423.2657470703125 C 415.963623046875 424.45477294921875 416.462646484375 425.69134521484375 417.42889404296875 426.521484375 C 419.062255859375 427.92633056640625 421.512451171875 427.766357421875 423.5885009765625 427.202392578125 C 425.51556396484375 426.67974853515625 427.357666015625 425.883056640625 429.058349609375 424.8367919921875 C 431.8203125 423.13885498046875 434.357666015625 420.3416748046875 434.11163330078125 417.11004638671875 C 433.9813232421875 415.365234375 433.0316162109375 413.75421142578125 431.7977294921875 412.509765625 C 430.56390380859375 411.2654113769531 429.048583984375 410.3413391113281 427.53955078125 409.45037841796875 C 426.030517578125 408.5594482421875 424.5286865234375 407.7163391113281 422.8284912109375 407.52801513671875 L 422.0357666015625 408.42572021484375" stroke-width="0.6000000238418579" fill="rgb(218, 166, 20)" opacity="1.0"/>
    <path d="M 142.97067260742188 227.59365844726562 C 139.60548400878906 231.8470458984375 140.32550048828125 238.02313232421875 144.5789031982422 241.38833618164062 C 144.943115234375 241.676513671875 145.3273162841797 241.9384765625 145.72860717773438 242.1722412109375 C 147.25360107421875 243.06033325195312 149.10508728027344 243.52731323242188 150.80667114257812 243.06268310546875 C 152.24465942382812 242.670166015625 153.4321746826172 241.66683959960938 154.45941162109375 240.58807373046875 C 157.205078125 237.69671630859375 159.12652587890625 234.1229248046875 160.02407836914062 230.2379150390625 C 160.25958251953125 229.21060180664062 160.421142578125 228.13330078125 160.17660522460938 227.10577392578125 C 159.76708984375 225.38052368164062 158.26251220703125 224.09231567382812 156.62313842773438 223.4132080078125 C 154.1899871826172 222.40325927734375 151.3724365234375 222.50787353515625 148.9058837890625 223.4349365234375 C 146.4393310546875 224.36196899414062 144.30850219726562 226.05999755859375 142.62693786621094 228.08837890625 L 142.97067260742188 227.59365844726562" stroke-width="0.6000000238418579" fill="rgb(143, 165, 67)" opacity="1.0"/>
    <path d="M 169.0693359375 262.6220703125 C 170.730712890625 269.0167541503906 180.53717041015625 270.980712890625 184.88092041015625 266.0589599609375 C 189.22467041015625 261.1371765136719 186.4510498046875 252.03778076171875 180.1990966796875 249.8948974609375 C 173.94717407226562 247.75198364257812 166.47604370117188 252.60064697265625 165.40716552734375 259.1288146972656 L 169.0693359375 262.6220703125" stroke-width="0.6000000238418579" fill="rgb(233, 92, 21)" opacity="1.0"/>
    <path d="M 154.48695373535156 313.3476257324219 C 152.9922637939453 316.17919921875 151.50050354003906 319.7165832519531 153.27886962890625 322.3922424316406 C 154.0280303955078 323.42950439453125 155.08059692382812 324.208740234375 156.2913818359375 324.6224365234375 C 159.2596435546875 325.7266540527344 162.5789794921875 325.3236389160156 165.19677734375 323.541259765625 C 167.41351318359375 322.02362060546875 168.84869384765625 319.6633605957031 170.18258666992188 317.3503723144531 C 170.9298095703125 316.04986572265625 171.6822509765625 314.64434814453125 171.5867919921875 313.15576171875 C 171.443359375 311.172607421875 169.8338623046875 309.6257019042969 168.20980834960938 308.4797058105469 C 165.83505249023438 306.799560546875 163.20404052734375 305.5148620605469 160.41876220703125 304.6754455566406 C 159.45584106445312 304.38726806640625 158.4288330078125 304.1502380371094 157.452392578125 304.38726806640625 C 156.55581665039062 304.6540832519531 155.7562255859375 305.1759948730469 155.15113830566406 305.889404296875 C 153.23150634765625 307.9820251464844 152.32647705078125 310.8114318847656 152.67530822753906 313.6296691894531 L 154.48695373535156 313.3476257324219" stroke-width="0.6000000238418579" fill="rgb(70, 150, 179)" opacity="1.0"/>
    <path d="M 124.44873046875 301.025634765625 C 123.4727783203125 297.81201171875 122.25608825683594 294.29095458984375 119.32362365722656 292.6581726074219 C 116.17245483398438 290.9060974121094 112.07269287109375 292.0728454589844 109.29733276367188 294.3742980957031 C 108.22688293457031 295.26116943359375 107.25802612304688 296.3539123535156 106.87409973144531 297.6898193359375 C 106.55807495117188 298.7878723144531 106.65988159179688 299.9587097167969 106.82676696777344 301.08880615234375 C 107.3487548828125 304.6532287597656 108.63751220703125 308.365966796875 111.54554748535156 310.4909362792969 C 114.47787475585938 312.63055419921875 118.809814453125 312.6285705566406 121.73031616210938 310.46746826171875 C 124.65081787109375 308.3063659667969 125.95687866210938 304.18170166015625 124.78376770019531 300.7406311035156 L 124.44873046875 301.025634765625" stroke-width="0.6000000238418579" fill="rgb(140, 28, 33)" opacity="1.0"/>
    <path d="M 139.8813934326172 275.5488586425781 C 136.82113647460938 277.0099792480469 133.65286254882812 278.5640869140625 131.48294067382812 281.1733093261719 C 129.3130645751953 283.78253173828125 128.427734375 287.7976989746094 130.33522033691406 290.603759765625 C 132.6975555419922 294.0622863769531 138.30946350097656 293.9181823730469 141.43533325195312 291.119140625 C 144.56121826171875 288.32012939453125 145.59423828125 283.8248596191406 145.5461883544922 279.6344299316406 C 145.66128540039062 278.33575439453125 145.28538513183594 277.04119873046875 144.49264526367188 276.00616455078125 C 143.60931396484375 275.076171875 141.74205017089844 275.044189453125 141.23556518554688 276.2295227050781 L 139.8813934326172 275.5488586425781" stroke-width="0.6000000238418579" fill="rgb(159, 159, 159)" opacity="1.0"/>
    <path d="M 158.78054809570312 294.9579162597656 C 157.03546142578125 297.7610168457031 156.2127685546875 301.2230529785156 156.9766845703125 304.43359375 C 157.74063110351562 307.6441650390625 160.2347412109375 310.4981384277344 163.45745849609375 311.2710876464844 C 165.73666381835938 311.814697265625 168.18853759765625 311.2998046875 170.24313354492188 310.16912841796875 C 172.2977294921875 309.0384521484375 173.98818969726562 307.3344421386719 175.40322875976562 305.4637756347656 C 176.0185546875 304.6493225097656 176.60504150390625 303.75048828125 176.6884765625 302.7358093261719 C 176.78472900390625 301.5725402832031 176.20404052734375 300.47198486328125 175.59170532226562 299.4740905761719 C 173.8629150390625 296.6568603515625 171.636474609375 293.9972839355469 168.630126953125 292.6224365234375 C 165.62374877929688 291.2475891113281 161.715087890625 291.4618835449219 159.39688110351562 293.80712890625 L 158.78054809570312 294.9579162597656" stroke-width="0.6000000238418579" fill="rgb(159, 159, 159)" opacity="1.0"/>
    <path d="M 124.50442504882812 345.0611877441406 C 123.88021850585938 341.91241455078125 123.05000305175781 338.439453125 120.40524291992188 336.6313171386719 C 117.83566284179688 334.8692932128906 114.41094970703125 335.2613220214844 111.33749389648438 335.7810363769531 C 110.08926391601562 335.9940185546875 108.78680419921875 336.2366943359375 107.788330078125 337.0143127441406 C 106.09880065917969 338.3285217285156 105.77249145507812 340.7461242675781 105.9132080078125 342.8788146972656 C 106.04306030273438 344.8583984375 106.45646667480469 346.8090515136719 107.14080810546875 348.6711120605469 C 108.25086975097656 351.6949462890625 110.47564697265625 354.7163391113281 113.67118835449219 355.112548828125 C 115.39604187011719 355.3289794921875 117.15179443359375 354.7210388183594 118.60641479492188 353.7643127441406 C 120.06103515625 352.80755615234375 121.25910949707031 351.5136413574219 122.42366027832031 350.21942138671875 C 123.58819580078125 348.9251708984375 124.70477294921875 347.6285095214844 125.22268676757812 346.009765625 L 124.50442504882812 345.0611877441406" stroke-width="0.6000000238418579" fill="rgb(218, 166, 20)" opacity="1.0"/>
    <path d="M 166.9583740234375 349.53179931640625 C 162.85223388671875 353.0762634277344 162.39691162109375 359.2782897949219 165.94134521484375 363.3843994140625 C 166.244873046875 363.73602294921875 166.57293701171875 364.0656433105469 166.923095703125 364.370849609375 C 168.25384521484375 365.53021240234375 169.98458862304688 366.3374328613281 171.74343872070312 366.20135498046875 C 173.22979736328125 366.08648681640625 174.5850830078125 365.32452392578125 175.79718017578125 364.458251953125 C 179.03839111328125 362.1350402832031 181.59844970703125 358.9863586425781 183.21139526367188 355.3392639160156 C 183.6361083984375 354.37451171875 183.99758911132812 353.34674072265625 183.9508056640625 352.2914123535156 C 183.87332153320312 350.5196838378906 182.637939453125 348.97113037109375 181.15548706054688 347.9954528808594 C 178.95562744140625 346.5454406738281 176.16839599609375 346.1178283691406 173.57110595703125 346.5641174316406 C 170.97381591796875 347.0104064941406 168.5611572265625 348.27716064453125 166.52761840820312 349.9530334472656 L 166.9583740234375 349.53179931640625" stroke-width="0.6000000238418579" fill="rgb(143, 165, 67)" opacity="1.0"/>
    <path d="M 132.6792755126953 377.6180725097656 C 130.0297393798828 371.4032897949219 119.815185546875 370.9039306640625 116.168701171875 376.53961181640625 C 112.52224731445312 382.17529296875 116.70657348632812 390.9565734863281 123.35372924804688 392.17578125 C 130.00088500976562 393.3949890136719 136.82101440429688 387.359130859375 136.91224670410156 380.5954284667969 L 132.6792755126953 377.6180725097656" stroke-width="0.6000000238418579" fill="rgb(233, 92, 21)" opacity="1.0"/>
    <path d="M 182.64105224609375 364.36871337890625 C 181.63229370117188 367.387451171875 180.74038696289062 371.0979919433594 182.91680908203125 373.4352111816406 C 183.81915283203125 374.3316345214844 184.9774169921875 374.92596435546875 186.2318115234375 375.1361999511719 C 189.321533203125 375.7398681640625 192.51223754882812 374.80853271484375 194.79205322265625 372.63751220703125 C 196.72125244140625 370.7909240722656 197.74774169921875 368.24407958984375 198.68255615234375 365.7599792480469 C 199.20541381835938 364.36370849609375 199.71646118164062 362.86358642578125 199.3824462890625 361.4189147949219 C 198.92144775390625 359.4969177246094 197.09298706054688 358.23956298828125 195.31494140625 357.3778076171875 C 192.71435546875 356.11334228515625 189.92620849609375 355.2781677246094 187.0587158203125 354.9046325683594 C 186.06768798828125 354.7774963378906 185.02206420898438 354.71087646484375 184.1026611328125 355.10101318359375 C 183.26629638671875 355.5075378417969 182.56634521484375 356.1485900878906 182.08804321289062 356.9460754394531 C 180.54312133789062 359.3086242675781 180.11236572265625 362.2300109863281 180.90966796875 364.93792724609375 L 182.64105224609375 364.36871337890625" stroke-width="0.6000000238418579" fill="rgb(70, 150, 179)" opacity="1.0"/>
  </g>
</svg>
