<?xml version="1.0" ?>
<svg xmlns="http://www.w3.org/2000/svg" version="1.1" width="600" height="600">
  <defs/>
  <g>
    <path d="M 350.656005859375 348.6321105957031 C 352.89080810546875 350.54498291015625 356.9728698730469 348.765869140625 357.3065490722656 345.86224365234375 C 357.6402587890625 342.9586181640625 354.31060791015625 340.3409423828125 351.48138427734375 341.1497802734375 C 348.6521911621094 341.9586181640625 347.1575012207031 345.6317138671875 348.4289855957031 348.2884216308594 L 350.656005859375 348.6321105957031" stroke-width="0.6000000238418579" fill="rgb(233, 92, 21)" opacity="1.0"/>
    <path d="M 103.22384643554688 203.038818359375 C 103.9073486328125 202.209228515625 104.63775634765625 201.1473388671875 104.23452758789062 200.14700317382812 C 104.05857849121094 199.755126953125 103.76535034179688 199.42755126953125 103.39532470703125 199.20941162109375 C 102.49429321289062 198.64501953125 101.37557983398438 198.5523681640625 100.39398193359375 198.96084594726562 C 99.56219482421875 199.30947875976562 98.93023681640625 199.9881591796875 98.33477783203125 200.65817260742188 C 98.00090026855469 201.03509521484375 97.65817260742188 201.4461669921875 97.58857727050781 201.94207763671875 C 97.50125122070312 202.60382080078125 97.92549133300781 203.22161865234375 98.38174438476562 203.70855712890625 C 99.04856872558594 204.42205810546875 99.82649230957031 205.02288818359375 100.68533325195312 205.48782348632812 C 100.98237609863281 205.64788818359375 101.30397033691406 205.79547119140625 101.64108276367188 205.78375244140625 C 101.95396423339844 205.75686645507812 102.25225830078125 205.63946533203125 102.49960327148438 205.44598388671875 C 103.272705078125 204.88812255859375 103.76217651367188 204.01925659179688 103.83863830566406 203.0689697265625 L 103.22384643554688 203.038818359375" stroke-width="0.6000000238418579" fill="rgb(70, 150, 179)" opacity="1.0"/>
    <path d="M 455.761474609375 428.07421875 C 456.0601806640625 428.86712646484375 456.4246826171875 429.73345947265625 457.1898193359375 430.09613037109375 C 458.0120849609375 430.4852294921875 459.02496337890625 430.123779296875 459.6856689453125 429.49853515625 C 459.9405517578125 429.257568359375 460.1663818359375 428.96649169921875 460.24102783203125 428.62384033203125 C 460.302490234375 428.3421630859375 460.2574462890625 428.049072265625 460.19677734375 427.767333984375 C 460.006591796875 426.87860107421875 459.62078857421875 425.9652099609375 458.8536376953125 425.47821044921875 C 458.080078125 424.98797607421875 456.989501953125 425.05999755859375 456.2899169921875 425.65228271484375 C 455.59033203125 426.24456787109375 455.32965087890625 427.3045654296875 455.6817626953125 428.1514892578125 L 455.761474609375 428.07421875" stroke-width="0.6000000238418579" fill="rgb(140, 28, 33)" opacity="1.0"/>
    <path d="M 90.7001953125 202.254638671875 C 92.76066589355469 202.00341796875 94.90193176269531 201.71929931640625 96.66961669921875 200.62835693359375 C 98.43727111816406 199.53741455078125 99.73367309570312 197.38027954101562 99.17388916015625 195.38031005859375 C 98.47740173339844 192.91305541992188 95.19314575195312 191.9027099609375 92.83377075195312 192.91741943359375 C 90.47442626953125 193.93212890625 88.99874877929688 196.33905029296875 88.20974731445312 198.77981567382812 C 87.88981628417969 199.51089477539062 87.85556030273438 200.3353271484375 88.11376953125 201.09039306640625 C 88.44500732421875 201.80218505859375 89.522216796875 202.18475341796875 90.04714965820312 201.59576416015625 L 90.7001953125 202.254638671875" stroke-width="0.6000000238418579" fill="rgb(159, 159, 159)" opacity="1.0"/>
    <path d="M 376.77557373046875 298.4450378417969 C 377.40728759765625 297.9888916015625 377.8965148925781 297.3063659667969 378.0167236328125 296.5368957519531 C 378.1369323730469 295.7674255371094 377.8473815917969 294.921142578125 377.2126770019531 294.4642028808594 C 376.7635192871094 294.1417236328125 376.1820068359375 294.0349426269531 375.6322326660156 294.09820556640625 C 375.0824279785156 294.16143798828125 374.5608825683594 294.3824462890625 374.0845947265625 294.6644592285156 C 373.8774108886719 294.7873229980469 373.6689453125 294.9311828613281 373.55999755859375 295.14532470703125 C 373.43499755859375 295.3907470703125 373.4634094238281 295.6830139160156 373.5079345703125 295.9557189941406 C 373.63360595703125 296.72552490234375 373.8820495605469 297.50543212890625 374.4156799316406 298.074462890625 C 374.9493408203125 298.6435241699219 375.8221130371094 298.9461669921875 376.5380859375 298.6412658691406 L 376.77557373046875 298.4450378417969" stroke-width="0.6000000238418579" fill="rgb(159, 159, 159)" opacity="1.0"/>
    <path d="M 96.43829345703125 433.0826416015625 C 96.6485595703125 432.22589111328125 96.84515380859375 431.264404296875 96.39642333984375 430.5068359375 C 95.96107482910156 429.76953125 95.06253051757812 429.4693603515625 94.23663330078125 429.2418212890625 C 93.90098571777344 429.14990234375 93.54840087890625 429.05908203125 93.20938110351562 429.13677978515625 C 92.63589477539062 429.26788330078125 92.27383422851562 429.8321533203125 92.0611572265625 430.37969970703125 C 91.86355590820312 430.8878173828125 91.73995971679688 431.4217529296875 91.69413757324219 431.9649658203125 C 91.61940002441406 432.84710693359375 91.82260131835938 433.8580322265625 92.572509765625 434.32794189453125 C 92.97698974609375 434.5821533203125 93.48492431640625 434.63470458984375 93.95835876464844 434.5653076171875 C 94.43179321289062 434.4959716796875 94.8804931640625 434.3128662109375 95.32089233398438 434.125732421875 C 95.76127624511719 433.938720703125 96.19000244140625 433.745361328125 96.50701904296875 433.40234375 L 96.43829345703125 433.0826416015625" stroke-width="0.6000000238418579" fill="rgb(218, 166, 20)" opacity="1.0"/>
    <path d="M 100.65861511230469 139.53968811035156 C 102.27008056640625 139.86505126953125 103.84017944335938 138.8224639892578 104.16555786132812 137.2110137939453 C 104.19342041015625 137.07302856445312 104.21145629882812 136.9332275390625 104.21952819824219 136.7926788330078 C 104.2501220703125 136.25865173339844 104.12210083007812 135.69419860839844 103.76290893554688 135.2981719970703 C 103.45938110351562 134.96348571777344 103.02520751953125 134.78033447265625 102.5926513671875 134.65086364746094 C 101.43431091308594 134.30589294433594 100.20474243164062 134.27737426757812 99.03164672851562 134.56825256347656 C 98.72171020507812 134.64566040039062 98.40840148925781 134.7499237060547 98.164306640625 134.95709228515625 C 97.75431823730469 135.3046417236328 97.61279296875 135.8881072998047 97.65435791015625 136.4243621826172 C 97.71554565429688 137.22055053710938 98.13067626953125 137.9675750732422 98.71986389160156 138.50682067871094 C 99.30905151367188 139.04608154296875 100.06048583984375 139.3887481689453 100.83950805664062 139.5646514892578 L 100.65861511230469 139.53968811035156" stroke-width="0.6000000238418579" fill="rgb(143, 165, 67)" opacity="1.0"/>
    <path d="M 453.968505859375 343.2249450683594 C 455.98175048828125 344.5939636230469 459.1767578125 342.757080078125 459.18560791015625 340.3381042480469 C 459.1944580078125 337.9191589355469 456.21612548828125 336.070556640625 453.962890625 336.9947204589844 C 451.709716796875 337.91888427734375 450.8162841796875 341.07696533203125 452.10516357421875 343.1459655761719 L 453.968505859375 343.2249450683594" stroke-width="0.6000000238418579" fill="rgb(233, 92, 21)" opacity="1.0"/>
    <path d="M 104.63037109375 215.1185302734375 C 105.50369262695312 214.38543701171875 106.47088623046875 213.419189453125 106.24380493164062 212.2978515625 C 106.13607788085938 211.8551025390625 105.89361572265625 211.45669555664062 105.54985046386719 211.1575927734375 C 104.71923828125 210.39471435546875 103.57035827636719 210.08169555664062 102.46754455566406 210.31787109375 C 101.53257751464844 210.5206298828125 100.7421875 211.10626220703125 99.99154663085938 211.68991088867188 C 99.57040405273438 212.0184326171875 99.1334228515625 212.38092041015625 98.96493530273438 212.88470458984375 C 98.745849609375 213.55801391601562 99.06884765625 214.284423828125 99.45053100585938 214.88055419921875 C 100.00802612304688 215.753662109375 100.70318603515625 216.53082275390625 101.509033203125 217.18182373046875 C 101.78790283203125 217.40621948242188 102.09477233886719 217.62237548828125 102.44863891601562 217.67535400390625 C 102.78018188476562 217.70782470703125 103.114013671875 217.64306640625 103.40940856933594 217.48907470703125 C 104.32363891601562 217.05679321289062 105.002197265625 216.24520874023438 105.2657470703125 215.26885986328125 L 104.63037109375 215.1185302734375" stroke-width="0.6000000238418579" fill="rgb(70, 150, 179)" opacity="1.0"/>
    <path d="M 101.82272338867188 81.48202514648438 C 102.04751586914062 82.64241027832031 102.34539794921875 83.91915893554688 103.31251525878906 84.59732055664062 C 104.35186767578125 85.3251953125 105.82937622070312 85.06582641601562 106.88455200195312 84.36114501953125 C 107.29148864746094 84.089599609375 107.67034912109375 83.7423095703125 107.85331726074219 83.28866577148438 C 108.00386047363281 82.915771484375 108.01078796386719 82.50224304199219 107.99346923828125 82.1005859375 C 107.94033813476562 80.83390808105469 107.62419128417969 79.4874267578125 106.68351745605469 78.63787841796875 C 105.73486328125 77.78231811523438 104.21841430664062 77.62550354003906 103.1175537109375 78.27581787109375 C 102.01669311523438 78.92611694335938 101.4095458984375 80.32244873046875 101.69508361816406 81.56961059570312 L 101.82272338867188 81.48202514648438" stroke-width="0.6000000238418579" fill="rgb(140, 28, 33)" opacity="1.0"/>
    <path d="M 90.51626586914062 422.23736572265625 C 92.6376953125 421.80157470703125 94.84033203125 421.32470703125 96.58615112304688 420.04052734375 C 98.33193969726562 418.75628662109375 99.49734497070312 416.40325927734375 98.74581909179688 414.370849609375 C 97.81253051757812 411.8641662597656 94.31159973144531 411.0917053222656 91.94404602050781 412.3468017578125 C 89.57647705078125 413.60186767578125 88.24580383300781 416.2298583984375 87.632080078125 418.8348388671875 C 87.36131286621094 419.6221923828125 87.39553833007812 420.482421875 87.72799682617188 421.2457275390625 C 88.13275146484375 421.9578857421875 89.28535461425781 422.26446533203125 89.78134155273438 421.60748291015625 L 90.51626586914062 422.23736572265625" stroke-width="0.6000000238418579" fill="rgb(159, 159, 159)" opacity="1.0"/>
    <path d="M 468.75238037109375 59.68719482421875 C 469.45660400390625 58.77906799316406 469.86505126953125 57.60986328125 469.7152099609375 56.47108459472656 C 469.56536865234375 55.332305908203125 468.8038330078125 54.25518798828125 467.7156982421875 53.872528076171875 C 466.946044921875 53.602935791015625 466.07879638671875 53.69364929199219 465.3271484375 54.011749267578125 C 464.575439453125 54.329833984375 463.9293212890625 54.859405517578125 463.3726806640625 55.456512451171875 C 463.13055419921875 55.71650695800781 462.8953857421875 56.006744384765625 462.830322265625 56.35505676269531 C 462.75543212890625 56.75434875488281 462.91717529296875 57.156097412109375 463.093505859375 57.5234375 C 463.5914306640625 58.56050109863281 464.267333984375 59.560760498046875 465.259033203125 60.144073486328125 C 466.250732421875 60.727386474609375 467.611572265625 60.792755126953125 468.4979248046875 60.0635986328125 L 468.75238037109375 59.68719482421875" stroke-width="0.6000000238418579" fill="rgb(159, 159, 159)" opacity="1.0"/>
    <path d="M 92.07643127441406 106.6192626953125 C 92.9808349609375 106.88967895507812 93.99786376953125 107.15106201171875 94.83139038085938 106.71192932128906 C 95.642578125 106.2860107421875 96.01126098632812 105.34175109863281 96.29849243164062 104.47128295898438 C 96.41464233398438 104.11749267578125 96.53053283691406 103.74551391601562 96.465576171875 103.37907409667969 C 96.35604858398438 102.75921630859375 95.77235412597656 102.34217834472656 95.19854736328125 102.085693359375 C 94.66604614257812 101.84742736816406 94.10208129882812 101.68685913085938 93.52394104003906 101.60888671875 C 92.58523559570312 101.48196411132812 91.49398803710938 101.64520263671875 90.95187377929688 102.42155456542969 C 90.6585693359375 102.84025573730469 90.57536315917969 103.38027954101562 90.62420654296875 103.88992309570312 C 90.67306518554688 104.39956665039062 90.84483337402344 104.88885498046875 91.02130126953125 105.36947631835938 C 91.19775390625 105.85009765625 91.38143920898438 106.31857299804688 91.73110961914062 106.6756591796875 L 92.07643127441406 106.6192626953125" stroke-width="0.6000000238418579" fill="rgb(218, 166, 20)" opacity="1.0"/>
    <path d="M 120.13813781738281 127.00833129882812 C 121.79849243164062 126.37765502929688 122.63320922851562 124.52041625976562 122.00251770019531 122.86006164550781 C 121.94851684570312 122.7178955078125 121.88449096679688 122.5797119140625 121.81094360351562 122.44659423828125 C 121.53134155273438 121.94084167480469 121.0892333984375 121.49864196777344 120.5328369140625 121.34353637695312 C 120.06263732910156 121.21240234375 119.560302734375 121.2950439453125 119.09034729003906 121.42582702636719 C 117.8328857421875 121.77761840820312 116.69256591796875 122.45968627929688 115.78782653808594 123.40118408203125 C 115.54910278320312 123.65045166015625 115.32276916503906 123.92619323730469 115.21896362304688 124.25613403320312 C 115.04437255859375 124.8099365234375 115.25105285644531 125.42477416992188 115.597900390625 125.8909912109375 C 116.11235046386719 126.58352661132812 116.92202758789062 127.02725219726562 117.77114868164062 127.18081665039062 C 118.62026977539062 127.33441162109375 119.50448608398438 127.21484375 120.31785583496094 126.92697143554688 L 120.13813781738281 127.00833129882812" stroke-width="0.6000000238418579" fill="rgb(143, 165, 67)" opacity="1.0"/>
    <path d="M 391.07562255859375 303.8090515136719 C 392.5998840332031 305.6952819824219 396.1759948730469 304.8661804199219 396.8825988769531 302.5625915527344 C 397.5891418457031 300.2590026855469 395.28326416015625 297.6370544433594 392.868408203125 297.8677978515625 C 390.45355224609375 298.0985412597656 388.6903381347656 300.85150146484375 389.322021484375 303.19598388671875 L 391.07562255859375 303.8090515136719" stroke-width="0.6000000238418579" fill="rgb(233, 92, 21)" opacity="1.0"/>
    <path d="M 123.09452819824219 113.33642578125 C 123.82730102539062 112.58918762207031 124.62509155273438 111.62059020996094 124.31808471679688 110.6163330078125 C 124.18035888671875 110.221435546875 123.92349243164062 109.87899780273438 123.58290100097656 109.63627624511719 C 122.75634765625 109.0130615234375 121.67901611328125 108.8291015625 120.6925048828125 109.14276123046875 C 119.85635375976562 109.41099548339844 119.186279296875 110.01617431640625 118.55233764648438 110.61599731445312 C 118.19676208496094 110.95352172851562 117.82974243164062 111.32345581054688 117.72052001953125 111.79864501953125 C 117.58015441894531 112.43321228027344 117.93972778320312 113.06814575195312 118.34133911132812 113.578857421875 C 118.92816162109375 114.3270263671875 119.6322021484375 114.97526550292969 120.42617797851562 115.49845886230469 C 120.70086669921875 115.6787109375 121.00039672851562 115.84890747070312 121.32838439941406 115.86590576171875 C 121.6341552734375 115.86611938476562 121.93338012695312 115.77735900878906 122.18955993652344 115.61044311523438 C 122.98638916015625 115.13436889648438 123.53424072265625 114.33270263671875 123.68832397460938 113.41737365722656 L 123.09452819824219 113.33642578125" stroke-width="0.6000000238418579" fill="rgb(70, 150, 179)" opacity="1.0"/>
    <path d="M 427.50457763671875 70.33329772949219 C 427.94586181640625 71.19184875488281 428.4710693359375 72.12496948242188 429.38427734375 72.43585205078125 C 430.365478515625 72.76921081542969 431.46484375 72.2283935546875 432.13128662109375 71.434814453125 C 432.38836669921875 71.12896728515625 432.6060791015625 70.77011108398438 432.64599609375 70.37260437011719 C 432.6788330078125 70.04583740234375 432.58984375 69.719970703125 432.4844970703125 69.40899658203125 C 432.153564453125 68.42788696289062 431.59814453125 67.44427490234375 430.66650390625 66.99295043945312 C 429.72723388671875 66.53874206542969 428.5023193359375 66.76211547851562 427.78759765625 67.52346801757812 C 427.0728759765625 68.28482055664062 426.915771484375 69.51840209960938 427.42449951171875 70.43112182617188 L 427.50457763671875 70.33329772949219" stroke-width="0.6000000238418579" fill="rgb(140, 28, 33)" opacity="1.0"/>
    <path d="M 112.89329528808594 415.5672607421875 C 113.90750122070312 413.7225341796875 114.9425048828125 411.7919006347656 115.09207153320312 409.6905822753906 C 115.24165344238281 407.5893249511719 114.2344970703125 405.2441101074219 112.25675964355469 404.51971435546875 C 109.81346130371094 403.6309509277344 107.03578186035156 405.7352600097656 106.47285461425781 408.2783508300781 C 105.909912109375 410.8214416503906 107.01641845703125 413.462158203125 108.55767822265625 415.557861328125 C 108.96980285644531 416.25439453125 109.62802124023438 416.7711181640625 110.40248107910156 417.0059814453125 C 111.18458557128906 417.1551513671875 112.13774108886719 416.495361328125 111.96401977539062 415.7142333984375 L 112.89329528808594 415.5672607421875" stroke-width="0.6000000238418579" fill="rgb(159, 159, 159)" opacity="1.0"/>
    <path d="M 453.835693359375 432.12646484375 C 454.25933837890625 431.1630859375 454.3621826171875 430.0335693359375 453.97576904296875 429.05517578125 C 453.58935546875 428.0767822265625 452.6732177734375 427.28924560546875 451.6214599609375 427.1912841796875 C 450.87774658203125 427.1229248046875 450.12744140625 427.39642333984375 449.5303955078125 427.84619140625 C 448.933349609375 428.29595947265625 448.4771728515625 428.91015625 448.1153564453125 429.56439208984375 C 447.9581298828125 429.8492431640625 447.81378173828125 430.15936279296875 447.8333740234375 430.4832763671875 C 447.855712890625 430.85467529296875 448.0887451171875 431.1756591796875 448.3271484375 431.4627685546875 C 449.0001220703125 432.2733154296875 449.822998046875 433.01165771484375 450.833740234375 433.309326171875 C 451.84454345703125 433.60693359375 453.068115234375 433.3624267578125 453.69329833984375 432.5174560546875 L 453.835693359375 432.12646484375" stroke-width="0.6000000238418579" fill="rgb(159, 159, 159)" opacity="1.0"/>
    <path d="M 450.608642578125 285.5517578125 C 451.2320556640625 284.76202392578125 451.890869140625 283.857177734375 451.783447265625 282.8587646484375 C 451.68035888671875 281.88763427734375 450.8897705078125 281.1511535644531 450.1402587890625 280.5244140625 C 449.83544921875 280.2702331542969 449.512451171875 280.00921630859375 449.1239013671875 279.92950439453125 C 448.4666748046875 279.7943420410156 447.8240966796875 280.20867919921875 447.3443603515625 280.6763610839844 C 446.89898681640625 281.1102600097656 446.5181884765625 281.6058654785156 446.21368408203125 282.14801025390625 C 445.71893310546875 283.02813720703125 445.45166015625 284.1734313964844 446.0076904296875 285.0157165527344 C 446.3072509765625 285.47088623046875 446.80950927734375 285.765625 447.3336181640625 285.9175720214844 C 447.8577880859375 286.06951904296875 448.4100341796875 286.0917053222656 448.95556640625 286.1058044433594 C 449.5010986328125 286.11993408203125 450.0374755859375 286.1221008300781 450.5286865234375 285.9160461425781 L 450.608642578125 285.5517578125" stroke-width="0.6000000238418579" fill="rgb(218, 166, 20)" opacity="1.0"/>
    <path d="M 416.39739990234375 362.0639343261719 C 417.8411865234375 363.45184326171875 420.13671875 363.4065246582031 421.52459716796875 361.9627380371094 C 421.6434326171875 361.839111328125 421.75341796875 361.70721435546875 421.853515625 361.5680236816406 C 422.234130859375 361.0390625 422.47149658203125 360.3751525878906 422.36114501953125 359.7332458496094 C 422.2679443359375 359.1907958984375 421.94140625 358.71868896484375 421.58135986328125 358.3028259277344 C 420.6162109375 357.1910095214844 419.37091064453125 356.35791015625 417.974853515625 355.8900451660156 C 417.605712890625 355.7669982910156 417.2154541015625 355.66937255859375 416.8291015625 355.7227478027344 C 416.18048095703125 355.8119812011719 415.653564453125 356.3192443847656 415.34576416015625 356.89764404296875 C 414.88818359375 357.7560729980469 414.8265380859375 358.79534912109375 415.0797119140625 359.7348327636719 C 415.33282470703125 360.6742858886719 415.8812255859375 361.51776123046875 416.5670166015625 362.20782470703125 L 416.39739990234375 362.0639343261719" stroke-width="0.6000000238418579" fill="rgb(143, 165, 67)" opacity="1.0"/>
    <path d="M 451.6295166015625 355.6749267578125 C 452.7293701171875 353.82452392578125 450.93634033203125 351.1037902832031 448.8011474609375 351.2261657714844 C 446.6658935546875 351.3485107421875 445.19482421875 354.0763854980469 446.131591796875 356.01513671875 C 447.0684814453125 357.953857421875 449.903564453125 358.5723571777344 451.66009521484375 357.32354736328125 L 451.6295166015625 355.6749267578125" stroke-width="0.6000000238418579" fill="rgb(233, 92, 21)" opacity="1.0"/>
    <path d="M 453.130126953125 80.00241088867188 C 453.738525390625 79.32760620117188 454.395263671875 78.45843505859375 454.0924072265625 77.5985107421875 C 453.9586181640625 77.26100158691406 453.723388671875 76.97332763671875 453.4190673828125 76.77517700195312 C 452.67950439453125 76.26467895507812 451.73828125 76.14431762695312 450.89404296875 76.4522705078125 C 450.17852783203125 76.71534729003906 449.619384765625 77.2646484375 449.09130859375 77.8079833984375 C 448.795166015625 78.11369323730469 448.490234375 78.44792175292969 448.412841796875 78.86405944824219 C 448.31414794921875 79.41958618164062 448.649169921875 79.95721435546875 449.01605224609375 80.38558959960938 C 449.55224609375 81.01319885253906 450.1865234375 81.54986572265625 450.894287109375 81.97479248046875 C 451.1390380859375 82.12113952636719 451.40509033203125 82.25787353515625 451.690185546875 82.26069641113281 C 451.9554443359375 82.249755859375 452.21173095703125 82.161865234375 452.4278564453125 82.00778198242188 C 453.1016845703125 81.56584167480469 453.5477294921875 80.85055541992188 453.6480712890625 80.05101013183594 L 453.130126953125 80.00241088867188" stroke-width="0.6000000238418579" fill="rgb(70, 150, 179)" opacity="1.0"/>
    <path d="M 450.455810546875 389.5727844238281 C 450.61181640625 389.2296142578125 450.7703857421875 388.8426818847656 450.644287109375 388.4876708984375 C 450.5086669921875 388.10638427734375 450.07666015625 387.9007568359375 449.672119140625 387.8889465332031 C 449.5162353515625 387.8843078613281 449.353515625 387.9045715332031 449.22216796875 387.9886779785156 C 449.1141357421875 388.0577697753906 449.035888671875 388.16400146484375 448.9661865234375 388.2716064453125 C 448.745849609375 388.6106872558594 448.5792236328125 389.01910400390625 448.666748046875 389.4137878417969 C 448.75518798828125 389.8114929199219 449.120361328125 390.13250732421875 449.5267333984375 390.1669006347656 C 449.93310546875 390.2013244628906 450.34893798828125 389.9505615234375 450.5052490234375 389.5736083984375 L 450.455810546875 389.5727844238281" stroke-width="0.6000000238418579" fill="rgb(140, 28, 33)" opacity="1.0"/>
    <path d="M 124.43510437011719 216.6368408203125 C 121.65211486816406 217.3865966796875 118.7645263671875 218.19741821289062 116.548828125 220.04400634765625 C 114.33317565917969 221.89056396484375 112.97456359863281 225.11016845703125 114.1365966796875 227.74945068359375 C 115.5782470703125 231.004150390625 120.29107666015625 231.74835205078125 123.33503723144531 229.89044189453125 C 126.37899780273438 228.03250122070312 127.93502807617188 224.43435668945312 128.5404815673828 220.9244384765625 C 128.83676147460938 219.85671997070312 128.72201538085938 218.71676635742188 128.21888732910156 217.7294921875 C 127.62384033203125 216.81610107421875 126.06805419921875 216.50167846679688 125.46209716796875 217.41436767578125 L 124.43510437011719 216.6368408203125" stroke-width="0.6000000238418579" fill="rgb(159, 159, 159)" opacity="1.0"/>
    <path d="M 111.00611877441406 224.86328125 C 108.97828674316406 223.07562255859375 106.29379272460938 221.94378662109375 103.59812927246094 222.12713623046875 C 100.9024658203125 222.31048583984375 98.2611083984375 223.9390869140625 97.2017822265625 226.43704223632812 C 96.45504760742188 228.20407104492188 96.53973388671875 230.25347900390625 97.17532348632812 232.06524658203125 C 97.81089782714844 233.87701416015625 98.95860290527344 235.47210693359375 100.278076171875 236.86737060546875 C 100.85264587402344 237.47421264648438 101.49925231933594 238.06915283203125 102.30734252929688 238.2735595703125 C 103.23367309570312 238.50836181640625 104.20077514648438 238.18807983398438 105.08926391601562 237.828369140625 C 107.59759521484375 236.81277465820312 110.04585266113281 235.37408447265625 111.56198120117188 233.13214111328125 C 113.078125 230.89013671875 113.43289184570312 227.7049560546875 111.85214233398438 225.516357421875 L 111.00611877441406 224.86328125" stroke-width="0.6000000238418579" fill="rgb(159, 159, 159)" opacity="1.0"/>
    <path d="M 304.2847595214844 104.53628540039062 C 303.4106750488281 106.96611022949219 302.5443115234375 109.70486450195312 303.6189270019531 112.04736328125 C 304.6607666015625 114.32693481445312 307.1847229003906 115.47543334960938 309.5193176269531 116.39036560058594 C 310.46826171875 116.76065063476562 311.4669189453125 117.13288879394531 312.47760009765625 117.01034545898438 C 314.18707275390625 116.80409240722656 315.4136657714844 115.272216796875 316.2001953125 113.74331665039062 C 316.9307861328125 112.32452392578125 317.453857421875 110.80816650390625 317.75341796875 109.24067687988281 C 318.24072265625 106.6956787109375 317.9583740234375 103.69058227539062 315.9190368652344 102.09347534179688 C 314.8193054199219 101.22964477539062 313.35675048828125 100.92144775390625 311.9573669433594 100.97854614257812 C 310.5579528808594 101.03561401367188 309.1957702636719 101.43148803710938 307.8565673828125 101.84146118164062 C 306.5173645019531 102.25144958496094 305.2102355957031 102.6829833984375 304.1824645996094 103.58460998535156 L 304.2847595214844 104.53628540039062" stroke-width="0.6000000238418579" fill="rgb(218, 166, 20)" opacity="1.0"/>
    <path d="M 218.79302978515625 125.9666748046875 C 215.9095458984375 123.1004638671875 211.24853515625 123.11442565917969 208.38229370117188 125.99787902832031 C 208.1368408203125 126.24478149414062 207.90924072265625 126.50880432128906 207.701171875 126.78793334960938 C 206.91070556640625 127.84867858886719 206.40631103515625 129.188232421875 206.60848999023438 130.4949188232422 C 206.77923583984375 131.5991668701172 207.42608642578125 132.5685272216797 208.1427001953125 133.4248809814453 C 210.0640869140625 135.7144775390625 212.5634765625 137.44786071777344 215.3812255859375 138.44496154785156 C 216.12646484375 138.707275390625 216.91522216796875 138.918701171875 217.70123291015625 138.82347106933594 C 219.0208740234375 138.66436767578125 220.107666015625 137.6526336669922 220.75213623046875 136.489013671875 C 221.71014404296875 134.76214599609375 221.8704833984375 132.6547088623047 221.38861083984375 130.7391357421875 C 220.90673828125 128.8235626220703 219.82220458984375 127.09284973144531 218.45361328125 125.6688232421875 L 218.79302978515625 125.9666748046875" stroke-width="0.6000000238418579" fill="rgb(143, 165, 67)" opacity="1.0"/>
    <path d="M 222.82232666015625 93.86187744140625 C 221.52923583984375 98.35868835449219 226.79843139648438 103.09170532226562 231.22073364257812 101.65797424316406 C 235.64303588867188 100.22421264648438 237.2333984375 93.67778015136719 234.1953125 90.11734008789062 C 231.1572265625 86.55691528320312 224.85507202148438 86.81845092773438 221.84967041015625 90.41217041015625 L 222.82232666015625 93.86187744140625" stroke-width="0.6000000238418579" fill="rgb(233, 92, 21)" opacity="1.0"/>
    <path d="M 202.0098876953125 95.8447265625 C 201.14483642578125 93.59335327148438 199.87799072265625 90.9937744140625 197.4788818359375 90.67608642578125 C 196.51922607421875 90.58680725097656 195.55548095703125 90.79751586914062 194.72067260742188 91.2791748046875 C 192.62301635742188 92.41534423828125 191.2061767578125 94.49774169921875 190.91943359375 96.86602783203125 C 190.68136596679688 98.8756103515625 191.30862426757812 100.85957336425781 191.95925903320312 102.76268005371094 C 192.32647705078125 103.83114624023438 192.75067138671875 104.95463562011719 193.64227294921875 105.63841247558594 C 194.838134765625 106.54008483886719 196.51333618164062 106.39405822753906 197.9683837890625 106.04100036621094 C 200.09848022460938 105.52696228027344 202.13134765625 104.67153930664062 203.98809814453125 103.50791931152344 C 204.62887573242188 103.10462951660156 205.27239990234375 102.63961791992188 205.62200927734375 101.96835327148438 C 205.91510009765625 101.32756042480469 206.01544189453125 100.61532592773438 205.9107666015625 99.91850280761719 C 205.67544555664062 97.79241943359375 204.51931762695312 95.87655639648438 202.74798583984375 94.67739868164062 L 202.0098876953125 95.8447265625" stroke-width="0.6000000238418579" fill="rgb(70, 150, 179)" opacity="1.0"/>
    <path d="M 269.0572509765625 132.11146545410156 C 268.02801513671875 134.51873779296875 266.98828125 137.23020935058594 267.9194641113281 139.67527770996094 C 268.9213562011719 142.3012237548828 271.9531555175781 143.66098022460938 274.76361083984375 143.6793975830078 C 275.84722900390625 143.6869659423828 276.97344970703125 143.52072143554688 277.8725280761719 142.916015625 C 278.61181640625 142.41921997070312 279.1382141113281 141.66941833496094 279.6053771972656 140.9113006591797 C 281.0814514160156 138.52235412597656 282.17431640625 135.6603240966797 281.5045471191406 132.9337921142578 C 280.8276062011719 130.1863250732422 278.24139404296875 128.01498413085938 275.4147033691406 127.84005737304688 C 272.5879821777344 127.66510009765625 269.739990234375 129.4716339111328 268.71435546875 132.113525390625 L 269.0572509765625 132.11146545410156" stroke-width="0.6000000238418579" fill="rgb(140, 28, 33)" opacity="1.0"/>
    <path d="M 316.8758544921875 116.08511352539062 C 314.24151611328125 116.85317993164062 311.5088195800781 117.68144226074219 309.4359130859375 119.482421875 C 307.363037109375 121.28340148925781 306.1328125 124.37455749511719 307.29046630859375 126.86404418945312 C 308.72637939453125 129.93385314941406 313.226806640625 130.55006408691406 316.087890625 128.72207641601562 C 318.948974609375 126.89408874511719 320.3597106933594 123.43876647949219 320.8674011230469 120.08602905273438 C 321.1285400390625 119.06390380859375 320.9970397949219 117.9810791015625 320.4988098144531 117.05120849609375 C 319.9145812988281 116.19342041015625 318.42755126953125 115.92454528808594 317.86859130859375 116.80514526367188 L 316.8758544921875 116.08511352539062" stroke-width="0.6000000238418579" fill="rgb(159, 159, 159)" opacity="1.0"/>
    <path d="M 198.10736083984375 132.28746032714844 C 196.11041259765625 130.47738647460938 193.44976806640625 129.31207275390625 190.75985717773438 129.45773315429688 C 188.06997680664062 129.60337829589844 185.414306640625 131.19058227539062 184.3238525390625 133.66627502441406 C 183.5550537109375 135.41758728027344 183.61126708984375 137.4618377685547 184.21994018554688 139.2767791748047 C 184.82861328125 141.0917205810547 185.95083618164062 142.69775390625 187.24703979492188 144.10687255859375 C 187.81146240234375 144.71975708007812 188.44790649414062 145.32177734375 189.25067138671875 145.5366973876953 C 190.17092895507812 145.78350830078125 191.13946533203125 145.4775390625 192.0301513671875 145.13116455078125 C 194.5447998046875 144.1532440185547 197.00531005859375 142.75270080566406 198.54766845703125 140.53851318359375 C 200.09002685546875 138.32432556152344 200.487548828125 135.15382385253906 198.94180297851562 132.95018005371094 L 198.10736083984375 132.28746032714844" stroke-width="0.6000000238418579" fill="rgb(159, 159, 159)" opacity="1.0"/>
    <path d="M 280.0321960449219 105.52610778808594 C 277.781494140625 106.25544738769531 275.31134033203125 107.16363525390625 274.21673583984375 109.25590515136719 C 273.1493835449219 111.28915405273438 273.7326965332031 113.76190185546875 274.3790283203125 115.96652221679688 C 274.6429138183594 116.86172485351562 274.9332580566406 117.79403686523438 275.5888366699219 118.45758056640625 C 276.6969299316406 119.58047485351562 278.4947204589844 119.61012268066406 280.0435485839844 119.32258605957031 C 281.4812316894531 119.05625915527344 282.87322998046875 118.58486938476562 284.1769104003906 117.9228515625 C 286.29412841796875 116.84869384765625 288.3130798339844 114.9588623046875 288.32659912109375 112.58563232421875 C 288.33575439453125 111.30441284179688 287.7388610839844 110.0718994140625 286.9127197265625 109.08999633789062 C 286.0865783691406 108.10809326171875 285.03582763671875 107.3431396484375 283.9877624511719 106.60275268554688 C 282.9396667480469 105.86236572265625 281.89398193359375 105.15731811523438 280.66436767578125 104.91830444335938 L 280.0321960449219 105.52610778808594" stroke-width="0.6000000238418579" fill="rgb(218, 166, 20)" opacity="1.0"/>
    <path d="M 242.17108154296875 120.004150390625 C 240.9620361328125 123.68992614746094 242.9698486328125 127.657958984375 246.65560913085938 128.8669891357422 C 246.97122192382812 128.97052001953125 247.29376220703125 129.05152893066406 247.620849609375 129.10940551757812 C 248.86373901367188 129.32911682128906 250.22183227539062 129.18557739257812 251.24932861328125 128.45367431640625 C 252.11770629882812 127.83523559570312 252.66717529296875 126.86863708496094 253.0904541015625 125.89096069335938 C 254.2198486328125 123.27236938476562 254.62744140625 120.39913940429688 254.27099609375 117.56976318359375 C 254.175537109375 116.822021484375 254.01806640625 116.05902099609375 253.60028076171875 115.42964172363281 C 252.8995361328125 114.37261962890625 251.57159423828125 113.87928771972656 250.30352783203125 113.82807922363281 C 248.42095947265625 113.750732421875 246.55548095703125 114.51641845703125 245.12860107421875 115.74755859375 C 243.70172119140625 116.97866821289062 242.6905517578125 118.64443969726562 242.06243896484375 120.42108154296875 L 242.17108154296875 120.004150390625" stroke-width="0.6000000238418579" fill="rgb(143, 165, 67)" opacity="1.0"/>
    <path d="M 250.07733154296875 91.9473876953125 C 249.12255859375 96.52737426757812 254.7286376953125 100.85467529296875 259.03143310546875 99.0960693359375 C 263.3342590332031 97.33746337890625 264.4329833984375 90.691650390625 261.1387939453125 87.3675537109375 C 257.8446350097656 84.04345703125 251.58013916015625 84.77313232421875 248.850830078125 88.58003234863281 L 250.07733154296875 91.9473876953125" stroke-width="0.6000000238418579" fill="rgb(233, 92, 21)" opacity="1.0"/>
    <path d="M 338.1131591796875 84.48471069335938 C 335.9973449707031 83.76933288574219 333.395751953125 83.13421630859375 331.750244140625 84.65568542480469 C 331.1189880371094 85.28665161132812 330.69903564453125 86.09794616699219 330.54840087890625 86.97767639160156 C 330.1170959472656 89.14433288574219 330.7626953125 91.38563537597656 332.280517578125 92.9908447265625 C 333.5715026855469 94.34919738769531 335.35614013671875 95.07585144042969 337.09698486328125 95.73800659179688 C 338.07550048828125 96.1083984375 339.12689208984375 96.47073364257812 340.1415100097656 96.23994445800781 C 341.4913635253906 95.92123413085938 342.37823486328125 94.64126586914062 342.98736572265625 93.39572143554688 C 343.8811340332031 91.57394409179688 344.4741516113281 89.6195068359375 344.7433776855469 87.60824584960938 C 344.8350830078125 86.91313171386719 344.8844299316406 86.17953491210938 344.6129150390625 85.53338623046875 C 344.3297424316406 84.94549560546875 343.8816223144531 84.45269775390625 343.3232116699219 84.11509704589844 C 341.6691589355469 83.02511596679688 339.6202392578125 82.715576171875 337.718017578125 83.26834106445312 L 338.1131591796875 84.48471069335938" stroke-width="0.6000000238418579" fill="rgb(70, 150, 179)" opacity="1.0"/>
    <path d="M 332.57147216796875 126.20248413085938 C 331.9037170410156 123.55734252929688 331.0524597167969 120.6534423828125 328.7361755371094 119.21542358398438 C 326.2470397949219 117.67213439941406 322.87554931640625 118.46051025390625 320.5347900390625 120.22067260742188 C 319.63201904296875 120.89892578125 318.8037109375 121.7481689453125 318.44061279296875 122.81723022460938 C 318.14178466796875 123.69598388671875 318.17919921875 124.64990234375 318.2709655761719 125.57327270507812 C 318.5568542480469 128.48553466796875 319.45916748046875 131.54774475097656 321.73663330078125 133.38418579101562 C 324.0332336425781 135.2334442138672 327.54815673828125 135.3991241455078 330.001220703125 133.7584228515625 C 332.4543151855469 132.1177215576172 333.6733093261719 128.82147216796875 332.8543395996094 125.98416137695312 L 332.57147216796875 126.20248413085938" stroke-width="0.6000000238418579" fill="rgb(140, 28, 33)" opacity="1.0"/>
    <path d="M 351.7238464355469 106.16909790039062 C 348.9405212402344 105.77642822265625 346.0399475097656 105.39852905273438 343.3456726074219 106.20684814453125 C 340.65142822265625 107.01516723632812 338.2004089355469 109.3831787109375 338.2325439453125 112.1954345703125 C 338.27996826171875 115.666748046875 342.2225646972656 118.13813781738281 345.6641845703125 117.63665771484375 C 349.10577392578125 117.13519287109375 351.8787536621094 114.503173828125 353.7652893066406 111.58651733398438 C 354.4397277832031 110.74214172363281 354.77313232421875 109.67567443847656 354.69970703125 108.59751892089844 C 354.51556396484375 107.55044555664062 353.2403564453125 106.67291259765625 352.34747314453125 107.25967407226562 L 351.7238464355469 106.16909790039062" stroke-width="0.6000000238418579" fill="rgb(159, 159, 159)" opacity="1.0"/>
    <path d="M 350.3865661621094 125.45002746582031 C 347.9950256347656 126.21177673339844 345.8123474121094 127.80950927734375 344.6717834472656 130.04385375976562 C 343.53118896484375 132.2781982421875 343.5675048828125 135.15908813476562 345.0513000488281 137.1949920654297 C 346.1021728515625 138.63307189941406 347.77471923828125 139.5437774658203 349.5209655761719 139.90231323242188 C 351.2672119140625 140.2608642578125 353.0853576660156 140.10816955566406 354.8263244628906 139.7232666015625 C 355.5838317871094 139.55531311035156 356.36627197265625 139.32431030273438 356.9147644042969 138.7783203125 C 357.5438537597656 138.1526336669922 357.7503967285156 137.2295684814453 357.8879699707031 136.3502960205078 C 358.2763366699219 133.867919921875 358.299072265625 131.2314453125 357.2372131347656 128.9539337158203 C 356.1753234863281 126.67642211914062 353.8079528808594 124.87364196777344 351.31048583984375 125.08795166015625 L 350.3865661621094 125.45002746582031" stroke-width="0.6000000238418579" fill="rgb(159, 159, 159)" opacity="1.0"/>
    <path d="M 365.64923095703125 114.76437377929688 C 363.5867919921875 115.33409118652344 361.3190002441406 116.05670166015625 360.2470703125 117.9036865234375 C 359.20208740234375 119.69841003417969 359.6310729980469 121.9556884765625 360.12762451171875 123.97317504882812 C 360.33056640625 124.79246520996094 360.555908203125 125.64633178710938 361.1219177246094 126.27183532714844 C 362.0785827636719 127.330322265625 363.7016906738281 127.42837524414062 365.11248779296875 127.22999572753906 C 366.4219970703125 127.04637145996094 367.6983642578125 126.6756591796875 368.9024963378906 126.12921142578125 C 370.8580017089844 125.24264526367188 372.757080078125 123.615234375 372.86334228515625 121.47152709960938 C 372.92242431640625 120.31431579589844 372.4320068359375 119.17707824707031 371.7245178222656 118.25717163085938 C 371.0169982910156 117.33724975585938 370.0979919433594 116.60446166992188 369.180419921875 115.89395141601562 C 368.2628173828125 115.18345642089844 367.3459777832031 114.50497436523438 366.2444763183594 114.24028015136719 L 365.64923095703125 114.76437377929688" stroke-width="0.6000000238418579" fill="rgb(218, 166, 20)" opacity="1.0"/>
    <path d="M 434.2911376953125 154.7137451171875 C 430.809814453125 155.42498779296875 428.564208984375 158.82373046875 429.27545166015625 162.30499267578125 C 429.33636474609375 162.60311889648438 429.4183349609375 162.89651489257812 429.520751953125 163.18304443359375 C 429.91015625 164.2716064453125 430.640869140625 165.2869873046875 431.68963623046875 165.772216796875 C 432.57586669921875 166.182373046875 433.5943603515625 166.18075561523438 434.5643310546875 166.07369995117188 C 437.160400390625 165.78353881835938 439.6314697265625 164.80352783203125 441.720703125 163.23553466796875 C 442.27227783203125 162.82012939453125 442.807861328125 162.34848022460938 443.11895751953125 161.73040771484375 C 443.641845703125 160.69305419921875 443.4315185546875 159.41253662109375 442.8966064453125 158.38043212890625 C 442.103515625 156.84750366210938 440.64752197265625 155.7108917236328 439.020263671875 155.134521484375 C 437.39306640625 154.5581512451172 435.6087646484375 154.50979614257812 433.91009521484375 154.8166046142578 L 434.2911376953125 154.7137451171875" stroke-width="0.6000000238418579" fill="rgb(143, 165, 67)" opacity="1.0"/>
    <path d="M 144.07711791992188 418.27001953125 C 141.73626708984375 422.3145751953125 145.6971435546875 428.1756591796875 150.3292236328125 427.85614013671875 C 154.9613037109375 427.53668212890625 158.0860595703125 421.577880859375 156.00347900390625 417.392822265625 C 153.9208984375 413.207763671875 147.75079345703125 411.9366455078125 143.9691619873047 414.69189453125 L 144.07711791992188 418.27001953125" stroke-width="0.6000000238418579" fill="rgb(233, 92, 21)" opacity="1.0"/>
    <path d="M 436.704345703125 186.227783203125 C 434.6165771484375 186.21170043945312 432.1209716796875 186.40899658203125 431.10516357421875 188.24127197265625 C 430.729248046875 188.98614501953125 430.59381103515625 189.82928466796875 430.71746826171875 190.6544189453125 C 430.968505859375 192.70428466796875 432.1973876953125 194.50527954101562 434.0146484375 195.48635864257812 C 435.5582275390625 196.31463623046875 437.3553466796875 196.4376220703125 439.0946044921875 196.51617431640625 C 440.07177734375 196.5587158203125 441.11126708984375 196.57281494140625 441.944580078125 196.071044921875 C 443.04974365234375 195.39312744140625 443.462646484375 193.99725341796875 443.6390380859375 192.71319580078125 C 443.8995361328125 190.83425903320312 443.85418701171875 188.925537109375 443.5047607421875 187.06109619140625 C 443.3828125 186.4171142578125 443.21197509765625 185.75140380859375 442.7818603515625 185.25714111328125 C 442.35845947265625 184.81805419921875 441.81640625 184.51162719726562 441.22186279296875 184.37527465820312 C 439.4344482421875 183.8914794921875 437.5247802734375 184.21615600585938 435.9976806640625 185.26345825195312 L 436.704345703125 186.227783203125" stroke-width="0.6000000238418579" fill="rgb(70, 150, 179)" opacity="1.0"/>
    <path d="M 407.3529357910156 158.15704345703125 C 406.9196472167969 155.75357055664062 406.3384704589844 153.10772705078125 404.3585205078125 151.6806640625 C 402.2306823730469 150.14895629882812 399.1711120605469 150.64517211914062 396.97216796875 152.07281494140625 C 396.12408447265625 152.62289428710938 395.3320007324219 153.3302459716797 394.94183349609375 154.2626190185547 C 394.62078857421875 155.0289764404297 394.59539794921875 155.88319396972656 394.62042236328125 156.7135009765625 C 394.6961975097656 159.33197021484375 395.313232421875 162.122314453125 397.23394775390625 163.90280151367188 C 399.17095947265625 165.69589233398438 402.2998046875 166.060546875 404.59173583984375 164.74652099609375 C 406.8836364746094 163.4324951171875 408.17547607421875 160.56390380859375 407.6189880371094 157.9794921875 L 407.3529357910156 158.15704345703125" stroke-width="0.6000000238418579" fill="rgb(140, 28, 33)" opacity="1.0"/>
    <path d="M 140.98175048828125 121.46673583984375 C 138.37571716308594 122.2069091796875 135.6721649169922 123.00582885742188 133.61329650878906 124.76960754394531 C 131.55447387695312 126.53337097167969 130.31866455078125 129.57667541503906 131.44447326660156 132.04238891601562 C 132.84095764160156 135.0829315185547 137.27981567382812 135.7222137451172 140.11697387695312 133.93719482421875 C 142.9541473388672 132.1521759033203 144.3706512451172 128.75059509277344 144.89491271972656 125.444091796875 C 145.1597442626953 124.43679809570312 145.037353515625 123.36685180664062 144.55189514160156 122.44540405273438 C 143.98098754882812 121.59454345703125 142.51475524902344 121.31887817382812 141.95689392089844 122.18441772460938 L 140.98175048828125 121.46673583984375" stroke-width="0.6000000238418579" fill="rgb(159, 159, 159)" opacity="1.0"/>
    <path d="M 418.1710205078125 178.15994262695312 C 416.52099609375 176.69061279296875 414.33160400390625 175.754638671875 412.127685546875 175.89346313476562 C 409.9237976074219 176.03228759765625 407.75836181640625 177.35256958007812 406.8823547363281 179.38983154296875 C 406.2648620605469 180.83099365234375 406.32568359375 182.50628662109375 406.8377685546875 183.9896240234375 C 407.3498229980469 185.47296142578125 408.2813415527344 186.7813720703125 409.35406494140625 187.92706298828125 C 409.8211669921875 188.42538452148438 410.3471984863281 188.91427612304688 411.0068054199219 189.08465576171875 C 411.762939453125 189.28030395507812 412.5546875 189.02249145507812 413.28228759765625 188.73211669921875 C 415.33648681640625 187.91232299804688 417.34332275390625 186.7464599609375 418.59161376953125 184.92031860351562 C 419.83990478515625 183.09414672851562 420.142822265625 180.49237060546875 418.85986328125 178.6971435546875 L 418.1710205078125 178.15994262695312" stroke-width="0.6000000238418579" fill="rgb(159, 159, 159)" opacity="1.0"/>
    <path d="M 402.2133483886719 186.67880249023438 C 401.3765563964844 184.41900634765625 400.3485107421875 181.94342041015625 398.17327880859375 180.91741943359375 C 396.0592956542969 179.91665649414062 393.5673828125 180.61416625976562 391.35101318359375 181.36456298828125 C 390.4510803222656 181.67074584960938 389.5144958496094 182.00537109375 388.8667907714844 182.700439453125 C 387.7706298828125 183.87530517578125 387.8160095214844 185.7060546875 388.1737365722656 187.2701416015625 C 388.5051574707031 188.7220458984375 389.04339599609375 190.1187744140625 389.7718811035156 191.41766357421875 C 390.9539794921875 193.52716064453125 392.9620361328125 195.5023193359375 395.37774658203125 195.41632080078125 C 396.6819763183594 195.371826171875 397.9111328125 194.71258544921875 398.87567138671875 193.83056640625 C 399.8402099609375 192.9486083984375 400.5744934082031 191.84716796875 401.2839050292969 190.74945068359375 C 401.99334716796875 189.65176391601562 402.6669006347656 188.5579833984375 402.85845947265625 187.29656982421875 L 402.2133483886719 186.67880249023438" stroke-width="0.6000000238418579" fill="rgb(218, 166, 20)" opacity="1.0"/>
    <path d="M 450.1624755859375 178.9410400390625 C 449.2156982421875 182.87823486328125 451.63995361328125 186.83740234375 455.5771484375 187.78411865234375 C 455.914306640625 187.86520385742188 456.2567138671875 187.9222412109375 456.6019287109375 187.95486450195312 C 457.9136962890625 188.0784912109375 459.314697265625 187.814453125 460.322021484375 186.96612548828125 C 461.17333984375 186.24929809570312 461.6634521484375 185.1971435546875 462.02130126953125 184.14410400390625 C 462.9752197265625 181.3240966796875 463.15673828125 178.300048828125 462.546875 175.38616943359375 C 462.3843994140625 174.6162109375 462.1561279296875 173.8355712890625 461.668212890625 173.21600341796875 C 460.849853515625 172.17535400390625 459.42645263671875 171.77420043945312 458.1026611328125 171.8280029296875 C 456.1373291015625 171.90652465820312 454.260986328125 172.86077880859375 452.8802490234375 174.26226806640625 C 451.4996337890625 175.66375732421875 450.588134765625 177.48239135742188 450.08465576171875 179.384033203125 L 450.1624755859375 178.9410400390625" stroke-width="0.6000000238418579" fill="rgb(143, 165, 67)" opacity="1.0"/>
    <path d="M 147.92196655273438 105.1270751953125 C 142.8743133544922 108.78240966796875 144.51605224609375 118.07234191894531 150.3316192626953 120.19863891601562 C 156.14718627929688 122.32489013671875 163.18917846679688 116.763671875 162.9251708984375 110.53518676757812 C 162.6611328125 104.30668640136719 155.83595275878906 99.40771484375 149.73353576660156 100.71015930175781 L 147.92196655273438 105.1270751953125" stroke-width="0.6000000238418579" fill="rgb(233, 92, 21)" opacity="1.0"/>
    <path d="M 453.0606689453125 152.03631591796875 C 451.5576171875 154.64576721191406 450.03277587890625 157.918701171875 451.61138916015625 160.4952392578125 C 452.279541015625 161.49609375 453.24176025390625 162.2650146484375 454.36541748046875 162.69586181640625 C 457.11688232421875 163.836669921875 460.2506103515625 163.57305908203125 462.77288818359375 161.98867797851562 C 464.90899658203125 160.63919067382812 466.33978271484375 158.47064208984375 467.6737060546875 156.343017578125 C 468.421142578125 155.14662170410156 469.1771240234375 153.85169982910156 469.1390380859375 152.4492950439453 C 469.072998046875 150.58042907714844 467.614013671875 149.0706787109375 466.1273193359375 147.93722534179688 C 463.95367431640625 146.27569580078125 461.525390625 144.97695922851562 458.936767578125 144.09136962890625 C 458.041748046875 143.78709411621094 457.08465576171875 143.5286865234375 456.15869140625 143.7175750732422 C 455.3067626953125 143.93724060058594 454.53717041015625 144.40005493164062 453.9437255859375 145.049560546875 C 452.06689453125 146.94976806640625 451.1180419921875 149.57763671875 451.34814453125 152.23854064941406 L 453.0606689453125 152.03631591796875" stroke-width="0.6000000238418579" fill="rgb(70, 150, 179)" opacity="1.0"/>
    <path d="M 376.1053771972656 78.34957885742188 C 376.2607116699219 75.08438110351562 376.2957763671875 71.45864868164062 374.1407775878906 69.00346374511719 C 371.82421875 66.36744689941406 367.68426513671875 66.09750366210938 364.3877258300781 67.30059814453125 C 363.1165466308594 67.76394653320312 361.8711853027344 68.44921875 361.0826721191406 69.54852294921875 C 360.43414306640625 70.45196533203125 360.1448974609375 71.55868530273438 359.92864990234375 72.64930725097656 C 359.24249267578125 76.08778381347656 359.21087646484375 79.91281127929688 361.1826477050781 82.81124877929688 C 363.1719055175781 85.73104858398438 367.1441345214844 87.144775390625 370.5278625488281 86.11773681640625 C 373.9115905761719 85.0906982421875 376.4568176269531 81.73590087890625 376.50567626953125 78.19775390625 L 376.1053771972656 78.34957885742188" stroke-width="0.6000000238418579" fill="rgb(140, 28, 33)" opacity="1.0"/>
    <path d="M 130.77703857421875 412.8155517578125 C 128.25340270996094 414.766845703125 125.64892578125 416.8250732421875 124.17196655273438 419.6551513671875 C 122.69505310058594 422.4852294921875 122.678466796875 426.3529052734375 124.98968505859375 428.55419921875 C 127.84869384765625 431.2650146484375 132.9800567626953 430.0179443359375 135.29830932617188 426.82342529296875 C 137.61656188964844 423.62896728515625 137.67356872558594 419.29052734375 136.797119140625 415.447021484375 C 136.64500427246094 414.2301025390625 136.04226684570312 413.11444091796875 135.1077880859375 412.3201904296875 C 134.1108856201172 411.64056396484375 132.38763427734375 411.98199462890625 132.1573486328125 413.1724853515625 L 130.77703857421875 412.8155517578125" stroke-width="0.6000000238418579" fill="rgb(159, 159, 159)" opacity="1.0"/>
    <path d="M 409.1318664550781 207.40707397460938 C 407.77447509765625 204.62857055664062 405.435546875 202.25460815429688 402.5075378417969 201.2650146484375 C 399.57952880859375 200.275390625 396.0744323730469 200.8363037109375 393.8589172363281 203.010009765625 C 392.2944641113281 204.548828125 391.4843444824219 206.7508544921875 391.3604431152344 208.94366455078125 C 391.236572265625 211.13653564453125 391.7487487792969 213.3253173828125 392.5301208496094 215.37835693359375 C 392.87066650390625 216.2716064453125 393.29254150390625 217.18389892578125 394.0564270019531 217.75454711914062 C 394.9319152832031 218.4091796875 396.0940856933594 218.49539184570312 397.1905212402344 218.50540161132812 C 400.2860107421875 218.53363037109375 403.50372314453125 218.08856201171875 406.0893859863281 216.38580322265625 C 408.6750793457031 214.68304443359375 410.447998046875 211.47412109375 409.7388916015625 208.46832275390625 L 409.1318664550781 207.40707397460938" stroke-width="0.6000000238418579" fill="rgb(159, 159, 159)" opacity="1.0"/>
    <path d="M 386.1593933105469 121.01368713378906 C 383.419677734375 122.2374267578125 380.4273986816406 123.71633911132812 379.32965087890625 126.50262451171875 C 378.2583312988281 129.21078491210938 379.327880859375 132.25025939941406 380.44073486328125 134.94305419921875 C 380.8944091796875 136.0363006591797 381.386474609375 137.1727752685547 382.30279541015625 137.9209747314453 C 383.85186767578125 139.1873321533203 386.1229248046875 138.98187255859375 388.0372314453125 138.4100799560547 C 389.8142395019531 137.88003540039062 391.50592041015625 137.0975799560547 393.0605163574219 136.086669921875 C 395.5853271484375 134.44613647460938 397.87603759765625 131.79026794433594 397.572509765625 128.7957000732422 C 397.4110107421875 127.17880249023438 396.4918212890625 125.70516967773438 395.3173828125 124.57855224609375 C 394.1429443359375 123.451904296875 392.714599609375 122.62919616699219 391.2929382324219 121.83709716796875 C 389.87127685546875 121.04501342773438 388.4573669433594 120.29714965820312 386.8744812011719 120.16183471679688 L 386.1593933105469 121.01368713378906" stroke-width="0.6000000238418579" fill="rgb(218, 166, 20)" opacity="1.0"/>
    <path d="M 401.8544921875 81.24819946289062 C 398.3486633300781 77.37908935546875 392.3700866699219 77.0845947265625 388.5010070800781 80.59042358398438 C 388.169677734375 80.890625 387.8600769042969 81.21395874023438 387.57452392578125 81.5579833984375 C 386.4897155761719 82.86538696289062 385.7530517578125 84.54949951171875 385.92474365234375 86.23883056640625 C 386.0697021484375 87.66644287109375 386.8343200683594 88.95297241210938 387.6959533691406 90.0992431640625 C 390.006591796875 93.16435241699219 393.0957946777344 95.55487060546875 396.64263916015625 97.02249145507812 C 397.580810546875 97.40884399414062 398.57818603515625 97.73286437988281 399.59259033203125 97.66340637207031 C 401.2956848144531 97.54780578613281 402.7572021484375 96.32315063476562 403.6617126464844 94.87405395507812 C 405.0060729980469 92.72360229492188 405.3529968261719 90.0316162109375 404.8633728027344 87.54266357421875 C 404.373779296875 85.0537109375 403.0989074707031 82.76144409179688 401.43914794921875 80.84344482421875 L 401.8544921875 81.24819946289062" stroke-width="0.6000000238418579" fill="rgb(143, 165, 67)" opacity="1.0"/>
    <path d="M 117.20010375976562 424.6268310546875 C 114.21347045898438 419.22796630859375 104.88717651367188 419.7269287109375 102.10000610351562 425.1868896484375 C 99.3128662109375 430.6468505859375 103.93319702148438 438.2342529296875 110.085693359375 438.721923828125 C 116.23820495605469 439.20965576171875 121.87124633789062 433.09014892578125 121.32334899902344 426.93695068359375 L 117.20010375976562 424.6268310546875" stroke-width="0.6000000238418579" fill="rgb(233, 92, 21)" opacity="1.0"/>
    <path d="M 447.578857421875 197.57473754882812 C 446.1224365234375 200.185546875 444.653564453125 203.45526123046875 446.2557373046875 205.99127197265625 C 446.9326171875 206.97567749023438 447.8983154296875 207.72579956054688 449.01959228515625 208.13812255859375 C 451.7664794921875 209.23297119140625 454.87353515625 208.92849731445312 457.3555908203125 207.3212890625 C 459.4576416015625 205.95257568359375 460.8482666015625 203.7803955078125 462.143310546875 201.65020751953125 C 462.868896484375 200.452392578125 463.6016845703125 199.15667724609375 463.54473876953125 197.76507568359375 C 463.45367431640625 195.91082763671875 461.9847412109375 194.43212890625 460.4935302734375 193.32730102539062 C 458.3131103515625 191.70767211914062 455.885009765625 190.45166015625 453.30322265625 189.60791015625 C 452.41064453125 189.318115234375 451.45703125 189.07467651367188 450.54052734375 189.27481079101562 C 449.6978759765625 189.5045166015625 448.940185546875 189.97442626953125 448.3599853515625 190.62725830078125 C 446.52288818359375 192.53912353515625 445.616943359375 195.16064453125 445.8817138671875 197.79885864257812 L 447.578857421875 197.57473754882812" stroke-width="0.6000000238418579" fill="rgb(70, 150, 179)" opacity="1.0"/>
    <path d="M 411.9660949707031 134.5707244873047 C 411.6181640625 131.43832397460938 411.1009521484375 127.98089599609375 408.67633056640625 125.97055053710938 C 406.0704650878906 123.81253051757812 402.0877380371094 124.18418884277344 399.1318054199219 125.83026123046875 C 397.9918212890625 126.46444702148438 396.9101867675781 127.30599975585938 396.3263854980469 128.47239685058594 C 395.8460998535156 129.43106079101562 395.73876953125 130.5286865234375 395.6984558105469 131.5999298095703 C 395.56732177734375 134.97793579101562 396.1180419921875 138.6245880126953 398.4355163574219 141.0847930908203 C 400.7729187011719 143.56268310546875 404.76959228515625 144.30551147460938 407.8353271484375 142.81382751464844 C 410.9010314941406 141.3221435546875 412.81494140625 137.74151611328125 412.32421875 134.36538696289062 L 411.9660949707031 134.5707244873047" stroke-width="0.6000000238418579" fill="rgb(140, 28, 33)" opacity="1.0"/>
    <path d="M 399.2386779785156 71.5738525390625 C 400.18450927734375 74.5625 401.20166015625 77.66195678710938 403.3125915527344 79.98249816894531 C 405.4234619140625 82.30300903320312 408.9859619140625 83.62753295898438 411.79901123046875 82.24049377441406 C 415.26763916015625 80.52058410644531 415.8541259765625 75.36456298828125 413.69189453125 72.14456176757812 C 411.52960205078125 68.92453002929688 407.5465087890625 67.40335083007812 403.7041320800781 66.910888671875 C 402.52996826171875 66.63926696777344 401.29669189453125 66.81765747070312 400.2476501464844 67.410888671875 C 399.283203125 68.10050964355469 399.0148620605469 69.80584716796875 400.03515625 70.4212646484375 L 399.2386779785156 71.5738525390625" stroke-width="0.6000000238418579" fill="rgb(159, 159, 159)" opacity="1.0"/>
    <path d="M 442.03912353515625 235.50650024414062 C 440.34747314453125 238.06668090820312 439.49615478515625 241.26220703125 440.1251220703125 244.26400756835938 C 440.75408935546875 247.26580810546875 442.9993896484375 249.9798583984375 445.97381591796875 250.7789306640625 C 448.0775146484375 251.34124755859375 450.36822509765625 250.924560546875 452.30535888671875 249.92581176757812 C 454.24249267578125 248.92706298828125 455.85577392578125 247.38656616210938 457.2174072265625 245.68429565429688 C 457.8094482421875 244.94317626953125 458.37689208984375 244.12289428710938 458.47998046875 243.182373046875 C 458.59857177734375 242.1041259765625 458.0867919921875 241.06707763671875 457.5430908203125 240.12466430664062 C 456.0078125 237.4639892578125 454.00634765625 234.93728637695312 451.248046875 233.58447265625 C 448.48974609375 232.231689453125 444.8531494140625 232.33245849609375 442.640625 234.45294189453125 L 442.03912353515625 235.50650024414062" stroke-width="0.6000000238418579" fill="rgb(159, 159, 159)" opacity="1.0"/>
    <path d="M 407.9844665527344 261.84234619140625 C 406.4056091308594 259.3550720214844 404.5428771972656 256.65875244140625 401.6798400878906 255.98907470703125 C 398.8964538574219 255.3338623046875 396.0960388183594 256.8056640625 393.6385498046875 258.2701110839844 C 392.6410827636719 258.86651611328125 391.60711669921875 259.5063171386719 391.0107421875 260.5030212402344 C 390.0010681152344 262.1881408691406 390.5240173339844 264.3651123046875 391.3520202636719 266.14337158203125 C 392.11993408203125 267.794189453125 393.12091064453125 269.326171875 394.3243103027344 270.6924743652344 C 396.2774963378906 272.9116516113281 399.1836853027344 274.75885009765625 402.049560546875 274.0376281738281 C 403.5972900390625 273.6505126953125 404.8979797363281 272.5477600097656 405.82525634765625 271.2464599609375 C 406.75250244140625 269.9451599121094 407.3483581542969 268.4404296875 407.9154357910156 266.94659423828125 C 408.4825134277344 265.4527282714844 409.0077209472656 263.9726867675781 408.913818359375 262.4157409667969 L 407.9844665527344 261.84234619140625" stroke-width="0.6000000238418579" fill="rgb(218, 166, 20)" opacity="1.0"/>
    <path d="M 416.710205078125 87.1446533203125 C 414.6590576171875 91.92422485351562 416.870849609375 97.46163940429688 421.650390625 99.51280212402344 C 422.0596923828125 99.68844604492188 422.48089599609375 99.8348388671875 422.910888671875 99.95086669921875 C 424.54486083984375 100.39146423339844 426.375732421875 100.36054992675781 427.834716796875 99.50466918945312 C 429.0677490234375 98.78150939941406 429.91607666015625 97.55557250976562 430.59716796875 96.29989624023438 C 432.41552734375 92.93623352050781 433.3001708984375 89.14703369140625 433.1590576171875 85.32589721679688 C 433.1201171875 84.31593322753906 433.0001220703125 83.2781982421875 432.51666259765625 82.38815307617188 C 431.7059326171875 80.8934326171875 429.99072265625 80.07730102539062 428.3031005859375 79.8587646484375 C 425.7979736328125 79.53257751464844 423.21575927734375 80.33436584472656 421.164306640625 81.80970764160156 C 419.11279296875 83.2850341796875 417.56500244140625 85.39010620117188 416.5157470703125 87.68864440917969 L 416.710205078125 87.1446533203125" stroke-width="0.6000000238418579" fill="rgb(143, 165, 67)" opacity="1.0"/>
    <path d="M 442.58380126953125 129.16375732421875 C 439.86376953125 134.80238342285156 445.7447509765625 142.2333526611328 451.9005126953125 141.3404541015625 C 458.05615234375 140.44752502441406 461.63079833984375 132.1728973388672 458.4276123046875 126.79180908203125 C 455.224365234375 121.41073608398438 446.85400390625 120.33352661132812 442.07952880859375 124.39476013183594 L 442.58380126953125 129.16375732421875" stroke-width="0.6000000238418579" fill="rgb(233, 92, 21)" opacity="1.0"/>
    <path d="M 446.9041748046875 94.51446533203125 C 446.0400390625 97.41375732421875 445.3084716796875 100.9666748046875 447.448974609375 103.11915588378906 C 448.33416748046875 103.94259643554688 449.45306396484375 104.47109985351562 450.6513671875 104.63168334960938 C 453.60546875 105.10879516601562 456.60760498046875 104.12446594238281 458.7056884765625 101.9908447265625 C 460.4808349609375 100.17637634277344 461.3765869140625 97.72483825683594 462.18719482421875 95.33573913574219 C 462.640380859375 93.99295043945312 463.07904052734375 92.55186462402344 462.7166748046875 91.1898193359375 C 462.21875 89.37831115722656 460.4425048828125 88.2408447265625 458.7264404296875 87.47761535644531 C 456.21636962890625 86.35751342773438 453.54156494140625 85.65106201171875 450.8057861328125 85.38565063476562 C 449.86029052734375 85.2957763671875 448.8648681640625 85.26510620117188 448.0035400390625 85.66445922851562 C 447.2216796875 86.07672119140625 446.57672119140625 86.70759582519531 446.147216796875 87.48011779785156 C 444.75323486328125 89.77278137207031 444.4351806640625 92.56155395507812 445.277099609375 95.1092529296875 L 446.9041748046875 94.51446533203125" stroke-width="0.6000000238418579" fill="rgb(70, 150, 179)" opacity="1.0"/>
    <path d="M 321.2025146484375 375.4055480957031 C 318.0342712402344 376.02825927734375 314.54864501953125 376.8515319824219 312.7032775878906 379.4985656738281 C 310.7226257324219 382.34326171875 311.4421691894531 386.3775939941406 313.3751220703125 389.2548522949219 C 314.1199035644531 390.364501953125 315.0714416503906 391.39691162109375 316.3121032714844 391.8933410644531 C 317.33184814453125 392.30181884765625 318.46160888671875 392.3176574707031 319.5587158203125 392.267333984375 C 323.01861572265625 392.1127624511719 326.694580078125 391.23907470703125 329.00836181640625 388.66302490234375 C 331.3385009765625 386.06512451171875 331.7555847167969 381.9213562011719 329.97088623046875 378.9188537597656 C 328.1861877441406 375.9163513183594 324.3671875 374.2681884765625 320.9623107910156 375.0574951171875 L 321.2025146484375 375.4055480957031" stroke-width="0.6000000238418579" fill="rgb(140, 28, 33)" opacity="1.0"/>
    <path d="M 306.92852783203125 397.2992858886719 C 303.6838684082031 398.4376220703125 300.3201904296875 399.65789794921875 297.8475341796875 402.0509338378906 C 295.37493896484375 404.4439697265625 294.04351806640625 408.39471435546875 295.65960693359375 411.4319152832031 C 297.6628723144531 415.176513671875 303.33575439453125 415.644775390625 306.7928161621094 413.1649169921875 C 310.2499084472656 410.68505859375 311.78265380859375 406.2665100097656 312.19232177734375 402.0370788574219 C 312.4503173828125 400.7405090332031 312.2129211425781 399.3944091796875 311.5269470214844 398.2643737792969 C 310.7381591796875 397.2303466796875 308.8593444824219 396.99395751953125 308.2192077636719 398.1334533691406 L 306.92852783203125 397.2992858886719" stroke-width="0.6000000238418579" fill="rgb(159, 159, 159)" opacity="1.0"/>
    <path d="M 321.6258544921875 413.17462158203125 C 318.3827209472656 414.273193359375 315.4453430175781 416.5068359375 313.9451904296875 419.5828857421875 C 312.4450378417969 422.658935546875 312.5662841796875 426.58758544921875 314.640869140625 429.32763671875 C 316.11004638671875 431.2630615234375 318.41412353515625 432.463623046875 320.804931640625 432.9091796875 C 323.1957702636719 433.35479736328125 325.67193603515625 433.10125732421875 328.0370178222656 432.53289794921875 C 329.06610107421875 432.284912109375 330.1275939941406 431.950439453125 330.86212158203125 431.1920166015625 C 331.70465087890625 430.3228759765625 331.96337890625 429.0587158203125 332.129150390625 427.85595703125 C 332.59710693359375 424.46026611328125 332.5625 420.863525390625 331.0574035644531 417.783447265625 C 329.55230712890625 414.70330810546875 326.2783203125 412.30322265625 322.8770751953125 412.65771484375 L 321.6258544921875 413.17462158203125" stroke-width="0.6000000238418579" fill="rgb(159, 159, 159)" opacity="1.0"/>
    <path d="M 272.2497253417969 415.5858154296875 C 269.7720031738281 417.81134033203125 267.1142883300781 420.39251708984375 266.9032287597656 423.7098388671875 C 266.6934509277344 426.93560791015625 268.8581848144531 429.782470703125 270.9506530761719 432.2484130859375 C 271.8021545410156 433.2489013671875 272.70892333984375 434.281982421875 273.93170166015625 434.760498046875 C 275.99932861328125 435.5709228515625 278.3286437988281 434.5806884765625 280.1563415527344 433.3248291015625 C 281.85321044921875 432.159912109375 283.3739929199219 430.75732421875 284.6721496582031 429.1600341796875 C 286.78094482421875 426.56732177734375 288.2967529296875 422.98162841796875 286.95654296875 419.92138671875 C 286.2354431152344 418.2681884765625 284.7626647949219 417.0242919921875 283.13836669921875 416.23394775390625 C 281.5140686035156 415.44354248046875 279.7250061035156 415.0606689453125 277.9533996582031 414.7078857421875 C 276.1817932128906 414.3551025390625 274.4334716796875 414.04644775390625 272.71514892578125 414.4423828125 L 272.2497253417969 415.5858154296875" stroke-width="0.6000000238418579" fill="rgb(218, 166, 20)" opacity="1.0"/>
    <path d="M 223.2327880859375 414.00384521484375 C 217.9300537109375 412.372802734375 212.30911254882812 415.349365234375 210.6781005859375 420.652099609375 C 210.53842163085938 421.106201171875 210.43115234375 421.569580078125 210.3570556640625 422.03887939453125 C 210.07589721679688 423.822021484375 210.31723022460938 425.76025390625 211.39117431640625 427.210205078125 C 212.298583984375 428.435546875 213.69540405273438 429.195556640625 215.104736328125 429.77490234375 C 218.8792724609375 431.3203125 222.99880981445312 431.826904296875 227.03533935546875 431.2420654296875 C 228.10205078125 431.085693359375 229.18899536132812 430.8402099609375 230.07791137695312 430.22607421875 C 231.57080078125 429.1959228515625 232.24102783203125 427.28387451171875 232.28057861328125 425.46917724609375 C 232.34115600585938 422.77508544921875 231.19668579101562 420.1278076171875 229.39828491210938 418.12005615234375 C 227.59988403320312 416.1123046875 225.19097900390625 414.7105712890625 222.63369750976562 413.859619140625 L 223.2327880859375 414.00384521484375" stroke-width="0.6000000238418579" fill="rgb(143, 165, 67)" opacity="1.0"/>
    <path d="M 287.2076110839844 364.90411376953125 C 288.4777526855469 371.5653076171875 298.3885803222656 374.2382507324219 303.16925048828125 369.4906311035156 C 307.9499206542969 364.74298095703125 305.7231140136719 355.23675537109375 299.4647521972656 352.6203308105469 C 293.2063903808594 350.0039367675781 285.22772216796875 354.4656982421875 283.692626953125 361.0794372558594 L 287.2076110839844 364.90411376953125" stroke-width="0.6000000238418579" fill="rgb(233, 92, 21)" opacity="1.0"/>
    <path d="M 332.4571838378906 360.56695556640625 C 332.7253112792969 363.89471435546875 333.3907775878906 367.8420104980469 336.4521484375 369.2021789550781 C 337.6914978027344 369.696044921875 339.0535888671875 369.79315185546875 340.3504943847656 369.4801025390625 C 343.5801696777344 368.7918701171875 346.27593994140625 366.5809326171875 347.5829162597656 363.5483703613281 C 348.68499755859375 360.97308349609375 348.6280517578125 358.0933837890625 348.5084228515625 355.3118896484375 C 348.4386901855469 353.7495422363281 348.3148498535156 352.0918273925781 347.3984069824219 350.8351745605469 C 346.1630859375 349.1701965332031 343.8816223144531 348.70892333984375 341.81146240234375 348.608642578125 C 338.7820129394531 348.4580993652344 335.7481384277344 348.79888916015625 332.82757568359375 349.6178283691406 C 331.8190002441406 349.9027099609375 330.7826232910156 350.2684631347656 330.055908203125 351.0231018066406 C 329.41607666015625 351.7593078613281 329.0043029785156 352.6658020019531 328.8707580566406 353.63201904296875 C 328.3516845703125 356.5471496582031 329.1375427246094 359.5432434082031 331.0205993652344 361.82830810546875 L 332.4571838378906 360.56695556640625" stroke-width="0.6000000238418579" fill="rgb(70, 150, 179)" opacity="1.0"/>
    <path d="M 296.4189147949219 416.87359619140625 C 292.8887634277344 417.25421142578125 288.9918518066406 417.8243408203125 286.7182312011719 420.548583984375 C 284.2776184082031 423.4764404296875 284.6818542480469 427.964599609375 286.52557373046875 431.3006591796875 C 287.2358703613281 432.5872802734375 288.1800537109375 433.808837890625 289.4919738769531 434.4708251953125 C 290.5702209472656 435.015380859375 291.806396484375 435.1402587890625 293.0130920410156 435.1895751953125 C 296.81817626953125 435.34954833984375 300.92840576171875 434.7423095703125 303.70843505859375 432.14044189453125 C 306.5084533691406 429.51617431640625 307.3597717285156 425.01629638671875 305.6903991699219 421.55712890625 C 304.02105712890625 418.09796142578125 299.994140625 415.9288330078125 296.1888732910156 416.469482421875 L 296.4189147949219 416.87359619140625" stroke-width="0.6000000238418579" fill="rgb(140, 28, 33)" opacity="1.0"/>
    <path d="M 334.9636535644531 388.9769287109375 C 331.5525207519531 389.3950500488281 328.00762939453125 389.86773681640625 325.0821228027344 391.6758728027344 C 322.1567077636719 393.4839782714844 320.0126037597656 397.05682373046875 320.9415283203125 400.36749267578125 C 322.0973205566406 404.4516296386719 327.5359802246094 406.12091064453125 331.441162109375 404.4383544921875 C 335.3463439941406 402.7558288574219 337.7869873046875 398.7692565917969 339.0906677246094 394.7273864746094 C 339.61956787109375 393.5166015625 339.6754150390625 392.151611328125 339.2471008300781 390.9017333984375 C 338.6979064941406 389.7236328125 336.9140625 389.0914001464844 336.0455627441406 390.0671691894531 L 334.9636535644531 388.9769287109375" stroke-width="0.6000000238418579" fill="rgb(159, 159, 159)" opacity="1.0"/>
    <path d="M 346.54449462890625 410.9513854980469 C 343.13677978515625 411.091796875 339.70294189453125 412.40283203125 337.406494140625 414.9219970703125 C 335.11004638671875 417.4412841796875 334.1241760253906 421.2301025390625 335.3384704589844 424.4306640625 C 336.19989013671875 426.69244384765625 338.0652770996094 428.486083984375 340.2253112792969 429.58245849609375 C 342.3853759765625 430.6788330078125 344.8230895996094 431.1309814453125 347.242919921875 431.25103759765625 C 348.2959899902344 431.30267333984375 349.4043273925781 431.2806396484375 350.3190612792969 430.76177978515625 C 351.3680419921875 430.16741943359375 351.9698791503906 429.03173828125 352.46563720703125 427.9287109375 C 353.8652038574219 424.81451416015625 354.8408203125 421.36724853515625 354.2661437988281 418.0013427734375 C 353.69146728515625 414.6353759765625 351.2354736328125 411.4233703613281 347.8852844238281 410.80828857421875 L 346.54449462890625 410.9513854980469" stroke-width="0.6000000238418579" fill="rgb(159, 159, 159)" opacity="1.0"/>
    <path d="M 255.4813232421875 368.455322265625 C 256.10443115234375 365.08428955078125 256.65106201171875 361.31024169921875 254.74002075195312 358.4722595214844 C 252.88543701171875 355.7096862792969 249.3321533203125 354.7472839355469 246.07711791992188 354.0502014160156 C 244.75439453125 353.7689514160156 243.36611938476562 353.4958190917969 242.06838989257812 353.87347412109375 C 239.8731689453125 354.51092529296875 238.5953369140625 356.7812805175781 237.89337158203125 358.9532165527344 C 237.24102783203125 360.9688720703125 236.88153076171875 363.0677795410156 236.82586669921875 365.1856384277344 C 236.73416137695312 368.62445068359375 237.7496337890625 372.50067138671875 240.764404296875 374.1548767089844 C 242.39068603515625 375.0503234863281 244.3729248046875 375.1398620605469 246.1939697265625 374.76446533203125 C 248.0150146484375 374.3890686035156 249.71453857421875 373.57781982421875 251.38092041015625 372.7530212402344 C 253.04730224609375 371.92822265625 254.6669921875 371.0820617675781 255.81976318359375 369.6800842285156 L 255.4813232421875 368.455322265625" stroke-width="0.6000000238418579" fill="rgb(218, 166, 20)" opacity="1.0"/>
    <path d="M 252.6285400390625 390.5120849609375 C 249.9693603515625 385.41668701171875 243.68304443359375 383.44171142578125 238.587646484375 386.10089111328125 C 238.15130615234375 386.3285827636719 237.73171997070312 386.58697509765625 237.33197021484375 386.8740539550781 C 235.81317138671875 387.9652099609375 234.56051635742188 389.55438232421875 234.27398681640625 391.4015197753906 C 234.03170776367188 392.9624328613281 234.4886474609375 394.5452575683594 235.08792114257812 396.0056457519531 C 236.69741821289062 399.9125671386719 239.32366943359375 403.3172607421875 242.69381713867188 405.8660888671875 C 243.58578491210938 406.5382995605469 244.55810546875 407.16058349609375 245.65792846679688 407.36846923828125 C 247.50411987304688 407.71856689453125 249.40118408203125 406.8202209472656 250.76727294921875 405.5280456542969 C 252.79681396484375 403.61102294921875 253.91436767578125 400.84002685546875 254.08444213867188 398.0528259277344 C 254.2545166015625 395.265625 253.5335693359375 392.4697265625 252.29861450195312 389.9655456542969 L 252.6285400390625 390.5120849609375" stroke-width="0.6000000238418579" fill="rgb(143, 165, 67)" opacity="1.0"/>
    <path d="M 202.75473022460938 370.6569519042969 C 201.11624145507812 377.2261657714844 208.9793701171875 383.79931640625 215.30056762695312 381.49847412109375 C 221.6217041015625 379.1976318359375 223.58465576171875 369.6492004394531 219.0081787109375 364.6568908691406 C 214.43170166015625 359.66461181640625 205.33181762695312 360.3670959472656 201.17071533203125 365.7184753417969 L 202.75473022460938 370.6569519042969" stroke-width="0.6000000238418579" fill="rgb(233, 92, 21)" opacity="1.0"/>
    <path d="M 267.98236083984375 368.3979797363281 C 267.8266906738281 371.70989990234375 267.98419189453125 375.6822204589844 270.8282775878906 377.40826416015625 C 271.9868469238281 378.0511474609375 273.31634521484375 378.3186340332031 274.63336181640625 378.1738586425781 C 277.90167236328125 377.90338134765625 280.83612060546875 376.0655212402344 282.50616455078125 373.24310302734375 C 283.9167175292969 370.8453063964844 284.2239074707031 368.00140380859375 284.45697021484375 365.2463684082031 C 284.58538818359375 363.6985168457031 284.6725158691406 362.0499267578125 283.92828369140625 360.6964111328125 C 282.92144775390625 358.90045166015625 280.73223876953125 358.1582336425781 278.70562744140625 357.79827880859375 C 275.7403869628906 357.2677917480469 272.7088317871094 357.22076416015625 269.728515625 357.65899658203125 C 268.6990661621094 357.8124084472656 267.63201904296875 358.0419616699219 266.8209533691406 358.6936340332031 C 266.0978088378906 359.3381652832031 265.57781982421875 360.1791687011719 265.3243713378906 361.1141052246094 C 264.4452819824219 363.92022705078125 264.8414306640625 366.9707336425781 266.4080810546875 369.4592590332031 L 267.98236083984375 368.3979797363281" stroke-width="0.6000000238418579" fill="rgb(70, 150, 179)" opacity="1.0"/>
    <path d="M 327.0729064941406 364.4813537597656 C 327.9301452636719 360.97723388671875 328.73321533203125 357.05718994140625 326.9169921875 353.9429626464844 C 324.96392822265625 350.5987854003906 320.5364074707031 349.4327697753906 316.7117004394531 350.0403747558594 C 315.2369384765625 350.2740173339844 313.7433776855469 350.7535400390625 312.65728759765625 351.7779235839844 C 311.7641296386719 352.6197204589844 311.21728515625 353.7574768066406 310.7528991699219 354.8932189941406 C 309.2840576171875 358.4730529785156 308.44268798828125 362.60968017578125 309.9669189453125 366.1653747558594 C 311.5055847167969 369.7479248046875 315.51007080078125 372.1174621582031 319.39208984375 371.718994140625 C 323.27410888671875 371.3205261230469 326.739013671875 368.2236328125 327.53857421875 364.4013671875 L 327.0729064941406 364.4813537597656" stroke-width="0.6000000238418579" fill="rgb(140, 28, 33)" opacity="1.0"/>
    <path d="M 351.7065124511719 393.71356201171875 C 348.2770080566406 394.04278564453125 344.7120361328125 394.4231872558594 341.732666015625 396.158203125 C 338.7533264160156 397.8931884765625 336.51055908203125 401.41729736328125 337.3543395996094 404.7595520019531 C 338.4051208496094 408.8829040527344 343.8115539550781 410.6989440917969 347.7694396972656 409.1155700683594 C 351.7273254394531 407.5321960449219 354.27813720703125 403.6012878417969 355.6910400390625 399.58502197265625 C 356.2529602050781 398.3855895996094 356.3448486328125 397.0191345214844 355.9485168457031 395.7552795410156 C 355.4291687011719 394.5601501464844 353.6580810546875 393.8796081542969 352.7620544433594 394.8346252441406 L 351.7065124511719 393.71356201171875" stroke-width="0.6000000238418579" fill="rgb(159, 159, 159)" opacity="1.0"/>
    <path d="M 187.51617431640625 408.89434814453125 C 184.2177734375 409.51251220703125 181.05929565429688 411.2742004394531 179.17904663085938 414.05169677734375 C 177.29876708984375 416.8292236328125 176.8740234375 420.6578369140625 178.50863647460938 423.60284423828125 C 179.66693115234375 425.68359375 181.73675537109375 427.16656494140625 183.9949951171875 427.928955078125 C 186.25323486328125 428.69140625 188.6907958984375 428.78729248046875 191.06405639648438 428.5623779296875 C 192.0968017578125 428.4638671875 193.17291259765625 428.2857666015625 193.9903564453125 427.6513671875 C 194.92779541015625 426.9244384765625 195.3533935546875 425.7335205078125 195.6802978515625 424.58935546875 C 196.6031494140625 421.3592529296875 197.066162109375 417.86468505859375 196.03106689453125 414.6683349609375 C 194.99594116210938 411.4719543457031 192.150634765625 408.69122314453125 188.801513671875 408.5655822753906 L 187.51617431640625 408.89434814453125" stroke-width="0.6000000238418579" fill="rgb(159, 159, 159)" opacity="1.0"/>
    <path d="M 357.5596008300781 374.5082092285156 C 354.24835205078125 375.3324890136719 350.6034240722656 376.3921813964844 348.81927490234375 379.2930603027344 C 347.0802307128906 382.11175537109375 347.67218017578125 385.7279052734375 348.38165283203125 388.9645690917969 C 348.67181396484375 390.27899169921875 348.9963073730469 391.6494445800781 349.8731689453125 392.6697082519531 C 351.3552551269531 394.39617919921875 353.93890380859375 394.6186218261719 356.1961364746094 394.35980224609375 C 358.29132080078125 394.1203918457031 360.3412780761719 393.58135986328125 362.28326416015625 392.7592468261719 C 365.43695068359375 391.42547607421875 368.5308532714844 388.9082946777344 368.78759765625 385.4950256347656 C 368.9289245605469 383.6524963378906 368.193359375 381.8194885253906 367.1029052734375 380.3240966796875 C 366.012451171875 378.8287048339844 364.5771484375 377.62298583984375 363.1431884765625 376.4529113769531 C 361.70928955078125 375.2828063964844 360.2752380371094 374.1637878417969 358.5299377441406 373.6969299316406 L 357.5596008300781 374.5082092285156" stroke-width="0.6000000238418579" fill="rgb(218, 166, 20)" opacity="1.0"/>
    <path d="M 373.8733825683594 384.73980712890625 C 369.8254699707031 388.86688232421875 369.8896179199219 395.4940185546875 374.0166931152344 399.54193115234375 C 374.3700866699219 399.8885803222656 374.7476501464844 400.2096862792969 375.146484375 400.50286865234375 C 376.6622314453125 401.61669921875 378.5716552734375 402.3211364746094 380.4276428222656 402.0212707519531 C 381.99609375 401.7679748535156 383.36822509765625 400.83905029296875 384.5790100097656 399.8119812011719 C 387.8161926269531 397.0583190917969 390.2570495605469 393.4881286621094 391.6479797363281 389.47222900390625 C 392.01385498046875 388.41009521484375 392.3069763183594 387.28662109375 392.16412353515625 386.169921875 C 391.92535400390625 384.29510498046875 390.47650146484375 382.759521484375 388.8158874511719 381.854248046875 C 386.3514404296875 380.5085144042969 383.35345458984375 380.300537109375 380.6343994140625 381.00390625 C 377.91534423828125 381.707275390625 375.46484375 383.2657470703125 373.4530944824219 385.2252502441406 L 373.8733825683594 384.73980712890625" stroke-width="0.6000000238418579" fill="rgb(143, 165, 67)" opacity="1.0"/>
    <path d="M 366.78814697265625 361.8213806152344 C 369.284912109375 368.1188659667969 379.5111389160156 368.8809509277344 383.3106689453125 363.32513427734375 C 387.1101379394531 357.7693176269531 383.1405944824219 348.85986328125 376.5087585449219 347.4675598144531 C 369.87689208984375 346.07525634765625 362.8858947753906 351.9509582519531 362.62127685546875 358.728515625 L 366.78814697265625 361.8213806152344" stroke-width="0.6000000238418579" fill="rgb(233, 92, 21)" opacity="1.0"/>
    <path d="M 398.6246337890625 364.2127990722656 C 398.5459899902344 367.5090026855469 398.7939147949219 371.4545593261719 401.6611022949219 373.1051940917969 C 402.82769775390625 373.7176818847656 404.1556091308594 373.95306396484375 405.4616394042969 373.77886962890625 C 408.7046813964844 373.434814453125 411.5798034667969 371.5401916503906 413.17523193359375 368.69586181640625 C 414.5224609375 366.27960205078125 414.762451171875 363.4451904296875 414.93084716796875 360.7008056640625 C 415.02294921875 359.1590576171875 415.0716552734375 357.5180358886719 414.3006591796875 356.1895446777344 C 413.2584228515625 354.4271545410156 411.0648498535156 353.7395935058594 409.04180908203125 353.4283447265625 C 406.0816345214844 352.9691162109375 403.0666198730469 352.9920349121094 400.11376953125 353.4962463378906 C 399.0938415527344 353.6723937988281 398.03826904296875 353.9251708984375 397.2469177246094 354.5916748046875 C 396.54278564453125 355.2490539550781 396.045166015625 356.09710693359375 395.814697265625 357.0324401855469 C 395.0052185058594 359.8424377441406 395.46917724609375 362.8660888671875 397.08392333984375 365.3040771484375 L 398.6246337890625 364.2127990722656" stroke-width="0.6000000238418579" fill="rgb(70, 150, 179)" opacity="1.0"/>
    <path d="M 388.40087890625 414.402099609375 C 386.8433837890625 417.550048828125 385.24920654296875 421.104736328125 386.3147888183594 424.448974609375 C 387.4616394042969 428.040771484375 391.42156982421875 430.08746337890625 395.1847229003906 430.3209228515625 C 396.6355895996094 430.41162109375 398.156494140625 430.2725830078125 399.40570068359375 429.52947998046875 C 400.432861328125 428.9189453125 401.1936950683594 427.9537353515625 401.87579345703125 426.9730224609375 C 404.03045654296875 423.8828125 405.70697021484375 420.13037109375 405.012451171875 416.4285888671875 C 404.3099060058594 412.6981201171875 401.0071105957031 409.5975036621094 397.2338562011719 409.15313720703125 C 393.4605712890625 408.708740234375 389.5115661621094 410.9168701171875 387.9414367675781 414.37939453125 L 388.40087890625 414.402099609375" stroke-width="0.6000000238418579" fill="rgb(140, 28, 33)" opacity="1.0"/>
    <path d="M 407.2176513671875 393.2144470214844 C 405.97552490234375 396.4052734375 404.71820068359375 399.7391662597656 404.9250183105469 403.1594543457031 C 405.1318359375 406.5796813964844 407.2559509277344 410.1466369628906 410.59954833984375 410.8930969238281 C 414.7288818359375 411.8052978515625 418.75927734375 407.81982421875 419.12481689453125 403.5989990234375 C 419.4903564453125 399.3782043457031 417.14306640625 395.3558349609375 414.2109375 392.30517578125 C 413.3978271484375 391.2698669433594 412.226318359375 390.5769958496094 410.9273681640625 390.36328125 C 409.6344299316406 390.2895202636719 408.2381286621094 391.5567932128906 408.68475341796875 392.77923583984375 L 407.2176513671875 393.2144470214844" stroke-width="0.6000000238418579" fill="rgb(159, 159, 159)" opacity="1.0"/>
    <path d="M 433.65087890625 368.7743225097656 C 434.19140625 372.1776428222656 435.90966796875 375.46990966796875 438.70703125 377.4790954589844 C 441.50445556640625 379.4883117675781 445.42230224609375 380.033447265625 448.4918212890625 378.4395446777344 C 450.66064453125 377.30987548828125 452.241943359375 375.2275695800781 453.0888671875 372.9313049316406 C 453.9359130859375 370.6350402832031 454.103759765625 368.13568115234375 453.9405517578125 365.6932067871094 C 453.868896484375 364.6303405761719 453.716796875 363.5206604003906 453.0888671875 362.66351318359375 C 452.369384765625 361.6805114746094 451.15911865234375 361.209716796875 449.9940185546875 360.841552734375 C 446.7047119140625 359.80218505859375 443.130859375 359.227294921875 439.8204345703125 360.1986999511719 C 436.50994873046875 361.1700744628906 433.574462890625 364.01141357421875 433.35009765625 367.445556640625 L 433.65087890625 368.7743225097656" stroke-width="0.6000000238418579" fill="rgb(159, 159, 159)" opacity="1.0"/>
    <path d="M 422.31201171875 408.5930480957031 C 419.2410888671875 409.8887634277344 415.8837890625 411.4620361328125 414.60028076171875 414.531005859375 C 413.347900390625 417.51385498046875 414.4654541015625 420.91412353515625 415.6390380859375 423.930419921875 C 416.11767578125 425.155029296875 416.6378173828125 426.42852783203125 417.63818359375 427.2806396484375 C 419.3292236328125 428.7227783203125 421.856201171875 428.547119140625 423.995361328125 427.95635986328125 C 425.9810791015625 427.4088134765625 427.8779296875 426.57891845703125 429.6278076171875 425.4921875 C 432.4697265625 423.7286376953125 435.0750732421875 420.83203125 434.8072509765625 417.49932861328125 C 434.66522216796875 415.699951171875 433.678466796875 414.0421142578125 432.4002685546875 412.7637939453125 C 431.1219482421875 411.48541259765625 429.5546875 410.5387268066406 427.994140625 409.6261901855469 C 426.43359375 408.713623046875 424.88067626953125 407.85040283203125 423.1258544921875 407.6635437011719 L 422.31201171875 408.5930480957031" stroke-width="0.6000000238418579" fill="rgb(218, 166, 20)" opacity="1.0"/>
    <path d="M 142.867919921875 227.34872436523438 C 139.44598388671875 231.74896240234375 140.2390594482422 238.090087890625 144.63929748535156 241.51202392578125 C 145.01609802246094 241.8050537109375 145.41319274902344 242.07095336914062 145.82763671875 242.30780029296875 C 147.40252685546875 243.2073974609375 149.30935668945312 243.67138671875 151.05410766601562 243.17922973632812 C 152.52859497070312 242.76348876953125 153.74041748046875 241.72213745117188 154.786865234375 240.60464477539062 C 157.58380126953125 237.60952758789062 159.52777099609375 233.92010498046875 160.41680908203125 229.91970825195312 C 160.65005493164062 228.86187744140625 160.80682373046875 227.75335693359375 160.54669189453125 226.69943237304688 C 160.1109619140625 224.92987060546875 158.5535888671875 223.618896484375 156.86294555664062 222.93502807617188 C 154.35365295410156 221.91799926757812 151.4589080810547 222.04974365234375 148.9319305419922 223.023681640625 C 146.40496826171875 223.99761962890625 144.2296600341797 225.76104736328125 142.51890563964844 227.860107421875 L 142.867919921875 227.34872436523438" stroke-width="0.6000000238418579" fill="rgb(143, 165, 67)" opacity="1.0"/>
    <path d="M 169.26412963867188 262.453857421875 C 171.04513549804688 268.9154357910156 181.02178955078125 270.7607421875 185.35418701171875 265.7032470703125 C 189.68655395507812 260.6457824707031 186.73681640625 251.45733642578125 180.363037109375 249.37728881835938 C 173.98928833007812 247.29727172851562 166.4835205078125 252.32742309570312 165.4970703125 258.9653015136719 L 169.26412963867188 262.453857421875" stroke-width="0.6000000238418579" fill="rgb(233, 92, 21)" opacity="1.0"/>
    <path d="M 154.18824768066406 313.6958923339844 C 152.5929412841797 316.5782470703125 150.9862518310547 320.186767578125 152.76113891601562 322.9754943847656 C 153.5106658935547 324.05780029296875 154.5775604248047 324.880859375 155.81466674804688 325.33111572265625 C 158.84561157226562 326.5274963378906 162.2684326171875 326.18060302734375 164.9976806640625 324.400390625 C 167.30902099609375 322.8843688964844 168.83346557617188 320.4856262207031 170.2528076171875 318.1334533691406 C 171.0479736328125 316.81085205078125 171.85064697265625 315.38031005859375 171.7828369140625 313.8470458984375 C 171.6756591796875 311.8040771484375 170.051513671875 310.1799621582031 168.4041748046875 308.96795654296875 C 165.99554443359375 307.1911926269531 163.315185546875 305.81597900390625 160.46707153320312 304.8957214355469 C 159.48239135742188 304.5796203613281 158.43072509765625 304.31488037109375 157.42144775390625 304.5387878417969 C 156.49371337890625 304.79498291015625 155.66050720214844 305.31561279296875 155.0235137939453 306.0371398925781 C 153.00611877441406 308.15069580078125 152.0174560546875 311.0428771972656 152.31884765625 313.9490966796875 L 154.18824768066406 313.6958923339844" stroke-width="0.6000000238418579" fill="rgb(70, 150, 179)" opacity="1.0"/>
    <path d="M 124.35263061523438 301.5436096191406 C 123.36221313476562 298.2352294921875 122.12547302246094 294.6097717285156 119.1168212890625 292.9189147949219 C 115.88375854492188 291.1045227050781 111.66342163085938 292.28753662109375 108.80029296875 294.6427001953125 C 107.69598388671875 295.5502624511719 106.6953125 296.6699523925781 106.29510498046875 298.0420227050781 C 105.96568298339844 299.1697998046875 106.06561279296875 300.3741455078125 106.23260498046875 301.5368347167969 C 106.75482177734375 305.2040710449219 108.06489562988281 309.0269470214844 111.04641723632812 311.2237854003906 C 114.05288696289062 313.4357604980469 118.50721740722656 313.4513854980469 121.51901245117188 311.2411193847656 C 124.53080749511719 309.0308532714844 125.89056396484375 304.7949523925781 124.69830322265625 301.2519226074219 L 124.35263061523438 301.5436096191406" stroke-width="0.6000000238418579" fill="rgb(140, 28, 33)" opacity="1.0"/>
    <path d="M 139.6981201171875 275.7754211425781 C 136.59994506835938 277.2236328125 133.39208984375 278.76470947265625 131.18231201171875 281.3780822753906 C 128.97256469726562 283.9914245605469 128.04661560058594 288.0332336425781 129.9470672607422 290.87872314453125 C 132.30081176757812 294.3859558105469 137.96131896972656 294.2869567871094 141.13670349121094 291.4900817871094 C 144.3120880126953 288.6932067871094 145.39093017578125 284.16845703125 145.37705993652344 279.9422607421875 C 145.5038299560547 278.6335754394531 145.1354522705078 277.324951171875 144.3445587158203 276.2746276855469 C 143.46142578125 275.32952880859375 141.5786590576172 275.2818603515625 141.05812072753906 276.4729919433594 L 139.6981201171875 275.7754211425781" stroke-width="0.6000000238418579" fill="rgb(159, 159, 159)" opacity="1.0"/>
    <path d="M 159.14031982421875 294.4471130371094 C 157.41934204101562 297.3583679199219 156.65829467773438 300.92266845703125 157.5159912109375 304.192138671875 C 158.3736572265625 307.4616394042969 160.99456787109375 310.32537841796875 164.31265258789062 311.0411071777344 C 166.65924072265625 311.5441589355469 169.15771484375 310.9593200683594 171.23495483398438 309.7532653808594 C 173.31219482421875 308.5472106933594 175.00311279296875 306.7626647949219 176.4080810546875 304.8139343261719 C 177.01898193359375 303.9655456542969 177.598388671875 303.0314025878906 177.65997314453125 301.9904479980469 C 177.731201171875 300.79705810546875 177.11077880859375 299.68377685546875 176.46029663085938 298.6763916015625 C 174.62384033203125 295.8323059082031 172.2816162109375 293.16131591796875 169.17092895507812 291.82421875 C 166.06024169921875 290.4870910644531 162.06298828125 290.7983703613281 159.744384765625 293.2542724609375 L 159.14031982421875 294.4471130371094" stroke-width="0.6000000238418579" fill="rgb(159, 159, 159)" opacity="1.0"/>
    <path d="M 124.33245849609375 345.0416564941406 C 123.71794128417969 341.78240966796875 122.8936767578125 338.1861877441406 120.17861938476562 336.2925720214844 C 117.54080200195312 334.447265625 113.99867248535156 334.81927490234375 110.8182373046875 335.3265686035156 C 109.52653503417969 335.5345764160156 108.17852783203125 335.7727355957031 107.13941955566406 336.5665283203125 C 105.38116455078125 337.90802001953125 105.02072143554688 340.4026794433594 105.1455078125 342.6075134277344 C 105.26055908203125 344.65399169921875 105.66886901855469 346.6733703613281 106.35794067382812 348.6037902832031 C 107.47566223144531 351.7386779785156 109.74508666992188 354.88177490234375 113.04283142089844 355.32196044921875 C 114.82281494140625 355.5622253417969 116.6427001953125 354.9510498046875 118.15481567382812 353.97662353515625 C 119.66691589355469 353.0021667480469 120.91722106933594 351.6768798828125 122.13290405273438 350.3509216308594 C 123.34857177734375 349.0249938964844 124.51467895507812 347.6960754394531 125.06539916992188 346.0286560058594 L 124.33245849609375 345.0416564941406" stroke-width="0.6000000238418579" fill="rgb(218, 166, 20)" opacity="1.0"/>
    <path d="M 166.7880859375 349.6333312988281 C 162.5921630859375 353.23175048828125 162.10775756835938 359.55035400390625 165.7061767578125 363.7463073730469 C 166.01434326171875 364.1056213378906 166.34756469726562 364.4425964355469 166.703369140625 364.7547302246094 C 168.0556640625 365.9405517578125 169.81668090820312 366.7688293457031 171.60946655273438 366.63592529296875 C 173.12451171875 366.5237731933594 174.50811767578125 365.7517395019531 175.74609375 364.87298583984375 C 179.056640625 362.5162048339844 181.67578125 359.31597900390625 183.3314208984375 355.6047668457031 C 183.76739501953125 354.623046875 184.13916015625 353.576904296875 184.09494018554688 352.5013427734375 C 184.02178955078125 350.69561767578125 182.76797485351562 349.1134948730469 181.26052856445312 348.1144104003906 C 179.0235595703125 346.6295471191406 176.18466186523438 346.18463134765625 173.53646850585938 346.6308898925781 C 170.88824462890625 347.0771179199219 168.425537109375 348.3600769042969 166.3477783203125 350.0611877441406 L 166.7880859375 349.6333312988281" stroke-width="0.6000000238418579" fill="rgb(143, 165, 67)" opacity="1.0"/>
    <path d="M 132.7140350341797 377.9602355957031 C 130.03941345214844 371.68927001953125 119.73175048828125 371.18695068359375 116.05293273925781 376.87451171875 C 112.3741455078125 382.56207275390625 116.59793090820312 391.4226989746094 123.30581665039062 392.6519775390625 C 130.01368713378906 393.8812561035156 136.89498901367188 387.78936767578125 136.98602294921875 380.96405029296875 L 132.7140350341797 377.9602355957031" stroke-width="0.6000000238418579" fill="rgb(233, 92, 21)" opacity="1.0"/>
    <path d="M 183.13870239257812 364.2621765136719 C 182.12521362304688 367.3465576171875 181.23446655273438 371.13604736328125 183.46649169921875 373.5089416503906 C 184.39151000976562 374.4186706542969 185.5760498046875 375.01898193359375 186.85665893554688 375.22698974609375 C 190.01141357421875 375.826904296875 193.26123046875 374.86053466796875 195.57559204101562 372.6343078613281 C 197.53396606445312 370.7408142089844 198.56796264648438 368.1376953125 199.50875854492188 365.5989990234375 C 200.03494262695312 364.17205810546875 200.54852294921875 362.6392517089844 200.20040893554688 361.1673583984375 C 199.7203369140625 359.209228515625 197.8487548828125 357.93603515625 196.03067016601562 357.0661315917969 C 193.3714599609375 355.7897033691406 190.523193359375 354.95208740234375 187.5963134765625 354.5857849121094 C 186.58477783203125 354.461181640625 185.51785278320312 354.3985900878906 184.58200073242188 354.8013000488281 C 183.73101806640625 355.22021484375 183.020263671875 355.87774658203125 182.5364990234375 356.6936340332031 C 180.97274780273438 359.1114807128906 180.54833984375 362.0935974121094 181.37554931640625 364.8516845703125 L 183.13870239257812 364.2621765136719" stroke-width="0.6000000238418579" fill="rgb(70, 150, 179)" opacity="1.0"/>
  </g>
</svg>
