<?xml version="1.0" ?>
<svg xmlns="http://www.w3.org/2000/svg" version="1.1" width="600" height="600">
  <defs/>
  <g>
    <path d="M 350.3086853027344 349.03900146484375 C 352.78863525390625 351.1979064941406 357.3677978515625 349.24755859375 357.7679138183594 346.0052795410156 C 358.1679992675781 342.7630310058594 354.470947265625 339.8061218261719 351.3011779785156 340.6837158203125 C 348.13140869140625 341.5613098144531 346.4264831542969 345.6527404785156 347.82275390625 348.634033203125 L 350.3086853027344 349.03900146484375" stroke-width="0.6000000238418579" fill="rgb(233, 92, 21)" opacity="1.0"/>
    <path d="M 103.037841796875 203.32720947265625 C 103.7939453125 202.38134765625 104.5989990234375 201.17300415039062 104.12811279296875 200.05288696289062 C 103.92337036132812 199.61444091796875 103.58761596679688 199.25030517578125 103.16714477539062 199.0107421875 C 102.14277648925781 198.3900146484375 100.88108825683594 198.3043212890625 99.78218078613281 198.78079223632812 C 98.85104370117188 199.1873779296875 98.15048217773438 199.96240234375 97.49090576171875 200.72705078125 C 97.12109375 201.15719604492188 96.74188232421875 201.6259765625 96.6717529296875 202.18572998046875 C 96.58441162109375 202.9326171875 97.07260131835938 203.6214599609375 97.59466552734375 204.162353515625 C 98.35769653320312 204.9549560546875 99.24398803710938 205.61880493164062 100.21917724609375 206.128173828125 C 100.55645751953125 206.30352783203125 100.92117309570312 206.46441650390625 101.30072021484375 206.44561767578125 C 101.6527099609375 206.41009521484375 101.98677062988281 206.27288818359375 102.26214599609375 206.05078125 C 103.12370300292969 205.4095458984375 103.66058349609375 204.42263793945312 103.73086547851562 203.3509521484375 L 103.037841796875 203.32720947265625" stroke-width="0.6000000238418579" fill="rgb(70, 150, 179)" opacity="1.0"/>
    <path d="M 455.6015625 427.8765869140625 C 455.93865966796875 428.783203125 456.35040283203125 429.77392578125 457.2220458984375 430.19158935546875 C 458.15875244140625 430.6397705078125 459.316650390625 430.232177734375 460.07391357421875 429.521728515625 C 460.365966796875 429.2479248046875 460.625244140625 428.916748046875 460.71209716796875 428.5260009765625 C 460.7835693359375 428.204833984375 460.7337646484375 427.87005615234375 460.6658935546875 427.54815673828125 C 460.4530029296875 426.53271484375 460.0172119140625 425.48822021484375 459.1439208984375 424.9285888671875 C 458.2633056640625 424.365234375 457.01812744140625 424.4420166015625 456.2166748046875 425.11468505859375 C 455.41522216796875 425.787353515625 455.1124267578125 426.9959716796875 455.51025390625 427.9644775390625 L 455.6015625 427.8765869140625" stroke-width="0.6000000238418579" fill="rgb(140, 28, 33)" opacity="1.0"/>
    <path d="M 90.34098815917969 202.77044677734375 C 92.42306518554688 202.53640747070312 94.58700561523438 202.2698974609375 96.38153076171875 201.18548583984375 C 98.17599487304688 200.10110473632812 99.50494384765625 197.93609619140625 98.9588623046875 195.91217041015625 C 98.27923583984375 193.415283203125 94.973876953125 192.36444091796875 92.5828857421875 193.36627197265625 C 90.19189453125 194.36813354492188 88.67965698242188 196.78353881835938 87.86019897460938 199.2396240234375 C 87.53036499023438 199.9744873046875 87.48797607421875 200.8062744140625 87.74143981933594 201.57086181640625 C 88.06904602050781 202.29241943359375 89.15267944335938 202.68878173828125 89.68807983398438 202.09921264648438 L 90.34098815917969 202.77044677734375" stroke-width="0.6000000238418579" fill="rgb(159, 159, 159)" opacity="1.0"/>
    <path d="M 376.8699035644531 298.3536682128906 C 377.58660888671875 297.8320007324219 378.14019775390625 297.05340576171875 378.27362060546875 296.1775207519531 C 378.40704345703125 295.3016052246094 378.0740051269531 294.3401184082031 377.3499450683594 293.8230285644531 C 376.83758544921875 293.45806884765625 376.1755676269531 293.339111328125 375.5503845214844 293.4134521484375 C 374.9251708984375 293.4877624511719 374.3327941894531 293.741455078125 373.79217529296875 294.0643615722656 C 373.5570068359375 294.20501708984375 373.32049560546875 294.36956787109375 373.1974792480469 294.6136474609375 C 373.0563049316406 294.8934326171875 373.08990478515625 295.2257995605469 373.1417236328125 295.53582763671875 C 373.28802490234375 296.41107177734375 373.57403564453125 297.2972412109375 374.18359375 297.9422912597656 C 374.79315185546875 298.5873718261719 375.7873840332031 298.92791748046875 376.6005859375 298.5779113769531 L 376.8699035644531 298.3536682128906" stroke-width="0.6000000238418579" fill="rgb(159, 159, 159)" opacity="1.0"/>
    <path d="M 96.1961669921875 433.242919921875 C 96.41366577148438 432.2596435546875 96.61283874511719 431.1572265625 96.08090209960938 430.304443359375 C 95.56474304199219 429.474365234375 94.53143310546875 429.1553955078125 93.58297729492188 428.9173583984375 C 93.19752502441406 428.8212890625 92.79275512695312 428.726806640625 92.40789794921875 428.82440185546875 C 91.75689697265625 428.989013671875 91.35845947265625 429.6424560546875 91.13009643554688 430.27294921875 C 90.91793823242188 430.8580322265625 90.79086303710938 431.470458984375 90.7528076171875 432.0916748046875 C 90.69061279296875 433.100341796875 90.94900512695312 434.24871826171875 91.81712341308594 434.7652587890625 C 92.28536987304688 435.0447998046875 92.86640930175781 435.0914306640625 93.40487670898438 434.9998779296875 C 93.943359375 434.9083251953125 94.45062255859375 434.6876220703125 94.94830322265625 434.4625244140625 C 95.44596862792969 434.237548828125 95.93016052246094 434.0057373046875 96.282958984375 433.60595703125 L 96.1961669921875 433.242919921875" stroke-width="0.6000000238418579" fill="rgb(218, 166, 20)" opacity="1.0"/>
    <path d="M 100.7235107421875 139.51771545410156 C 102.539794921875 139.8759002685547 104.30255126953125 138.69387817382812 104.66073608398438 136.8776092529297 C 104.69140625 136.72207641601562 104.71099853515625 136.56455993652344 104.71939086914062 136.40626525878906 C 104.75112915039062 135.8047332763672 104.60408020019531 135.16978454589844 104.19757080078125 134.7256622314453 C 103.85409545898438 134.35031127929688 103.36424255371094 134.1462860107422 102.87649536132812 134.002685546875 C 101.57037353515625 133.6201171875 100.18562316894531 133.59426879882812 98.86611938476562 133.9277801513672 C 98.51748657226562 134.0165252685547 98.16522216796875 134.13552856445312 97.89140319824219 134.37005615234375 C 97.43148803710938 134.76351928710938 97.27508544921875 135.4212646484375 97.32464599609375 136.02491760253906 C 97.3975830078125 136.92115783691406 97.86883544921875 137.76025390625 98.53506469726562 138.364501953125 C 99.20126342773438 138.96873474121094 100.0491943359375 139.3507843017578 100.92732238769531 139.54490661621094 L 100.7235107421875 139.51771545410156" stroke-width="0.6000000238418579" fill="rgb(143, 165, 67)" opacity="1.0"/>
    <path d="M 453.8819580078125 343.4179992675781 C 456.1319580078125 344.961669921875 459.7213134765625 342.9178161621094 459.742431640625 340.2068176269531 C 459.7635498046875 337.4958190917969 456.4342041015625 335.4101867675781 453.9046630859375 336.43548583984375 C 451.37506103515625 337.4607849121094 450.359130859375 340.9960632324219 451.7940673828125 343.3208312988281 L 453.8819580078125 343.4179992675781" stroke-width="0.6000000238418579" fill="rgb(233, 92, 21)" opacity="1.0"/>
    <path d="M 104.30032348632812 214.98117065429688 C 105.28311157226562 214.14215087890625 106.37005615234375 213.03799438476562 106.10212707519531 211.76934814453125 C 105.97586059570312 211.26864624023438 105.69732666015625 210.8194580078125 105.304931640625 210.48373413085938 C 104.35641479492188 209.62701416015625 103.05148315429688 209.28314208984375 101.803955078125 209.56121826171875 C 100.74630737304688 209.7998046875 99.85610961914062 210.470947265625 99.01095581054688 211.13946533203125 C 98.53678894042969 211.5157470703125 98.04501342773438 211.9306640625 97.85881042480469 212.503173828125 C 97.61688232421875 213.26828002929688 97.98980712890625 214.08843994140625 98.427978515625 214.7603759765625 C 99.06802368164062 215.74462890625 99.8631591796875 216.61874389648438 100.78253173828125 217.348876953125 C 101.10067749023438 217.6005859375 101.45048522949219 217.84259033203125 101.85200500488281 217.89932250976562 C 102.22802734375 217.9329833984375 102.60574340820312 217.8564453125 102.93904113769531 217.67913818359375 C 103.97100830078125 217.18060302734375 104.73236083984375 216.25448608398438 105.02178955078125 215.14556884765625 L 104.30032348632812 214.98117065429688" stroke-width="0.6000000238418579" fill="rgb(70, 150, 179)" opacity="1.0"/>
    <path d="M 101.82818603515625 81.6134033203125 C 102.06236267089844 82.93701171875 102.37748718261719 84.394287109375 103.46466064453125 85.18325805664062 C 104.63302612304688 86.03012084960938 106.31787109375 85.76248168945312 107.53070068359375 84.98068237304688 C 107.99844360351562 84.679443359375 108.4356689453125 84.29156494140625 108.65206909179688 83.77908325195312 C 108.83013916015625 83.35787963867188 108.84567260742188 82.88778686523438 108.8333740234375 82.43075561523438 C 108.79637145996094 80.98945617675781 108.46176147460938 79.45257568359375 107.4078369140625 78.46917724609375 C 106.34494018554688 77.47882080078125 104.62353515625 77.27249145507812 103.3597412109375 77.99160766601562 C 102.095947265625 78.71072387695312 101.37979125976562 80.2872314453125 101.68142700195312 81.71064758300781 L 101.82818603515625 81.6134033203125" stroke-width="0.6000000238418579" fill="rgb(140, 28, 33)" opacity="1.0"/>
    <path d="M 90.478759765625 421.83294677734375 C 92.62472534179688 421.37890625 94.85269165039062 420.8828125 96.6131591796875 419.5716552734375 C 98.37358093261719 418.26055908203125 99.53982543945312 415.8704833984375 98.76651000976562 413.81658935546875 C 97.80628967285156 411.2834167480469 94.25596618652344 410.5220031738281 91.86563110351562 411.80731201171875 C 89.47529602050781 413.09259033203125 88.143310546875 415.76214599609375 87.53733825683594 418.4041748046875 C 87.26780700683594 419.20318603515625 87.3076171875 420.07421875 87.64889526367188 420.8453369140625 C 88.0631103515625 421.56414794921875 89.23226928710938 421.8677978515625 89.73068237304688 421.19940185546875 L 90.478759765625 421.83294677734375" stroke-width="0.6000000238418579" fill="rgb(159, 159, 159)" opacity="1.0"/>
    <path d="M 468.7147216796875 59.53369140625 C 469.5068359375 58.503692626953125 469.96337890625 57.17987060546875 469.788818359375 55.8929443359375 C 469.6142578125 54.60601806640625 468.748291015625 53.3916015625 467.5162353515625 52.96382141113281 C 466.644775390625 52.66249084472656 465.6646728515625 52.76898193359375 464.816162109375 53.13201904296875 C 463.96771240234375 53.49507141113281 463.2396240234375 54.096771240234375 462.61285400390625 54.7744140625 C 462.34027099609375 55.06947326660156 462.07574462890625 55.398712158203125 462.003662109375 55.792816162109375 C 461.92083740234375 56.24462890625 462.10552978515625 56.698150634765625 462.30657958984375 57.112701416015625 C 462.874267578125 58.28303527832031 463.6429443359375 59.41094970703125 464.76690673828125 60.06602478027344 C 465.890869140625 60.721099853515625 467.4298095703125 60.78887939453125 468.4287109375 59.960418701171875 L 468.7147216796875 59.53369140625" stroke-width="0.6000000238418579" fill="rgb(159, 159, 159)" opacity="1.0"/>
    <path d="M 92.07373046875 106.63462829589844 C 93.10702514648438 106.94944763183594 94.26922607421875 107.254638671875 95.22564697265625 106.75711059570312 C 96.15643310546875 106.27456665039062 96.58395385742188 105.19625854492188 96.91781616210938 104.201904296875 C 97.0528564453125 103.79776000976562 97.18766784667969 103.372802734375 97.11550903320312 102.95309448242188 C 96.993896484375 102.2431640625 96.32846069335938 101.762451171875 95.67340087890625 101.46553039550781 C 95.06549072265625 101.189697265625 94.42111206054688 101.00260925292969 93.760009765625 100.90994262695312 C 92.68661499023438 100.75910949707031 91.43695068359375 100.93937683105469 90.81196594238281 101.82452392578125 C 90.47384643554688 102.3018798828125 90.37541198730469 102.9193115234375 90.42826843261719 103.50279235839844 C 90.48112487792969 104.08627319335938 90.67475891113281 104.64718627929688 90.87380981445312 105.19821166992188 C 91.07286071777344 105.74922180175781 91.28024291992188 106.28639221191406 91.67825317382812 106.69708251953125 L 92.07373046875 106.63462829589844" stroke-width="0.6000000238418579" fill="rgb(218, 166, 20)" opacity="1.0"/>
    <path d="M 120.26493835449219 127.067138671875 C 122.142333984375 126.34695434570312 123.08045959472656 124.2412109375 122.36029052734375 122.36380004882812 C 122.29861450195312 122.20303344726562 122.22561645507812 122.04685974121094 122.141845703125 121.89642333984375 C 121.82342529296875 121.32487487792969 121.32125854492188 120.82588195800781 120.69076538085938 120.65234375 C 120.157958984375 120.505615234375 119.58953857421875 120.60105895996094 119.0579833984375 120.7508544921875 C 117.63568115234375 121.15380859375 116.34721374511719 121.93023681640625 115.326416015625 122.99948120117188 C 115.05706787109375 123.28257751464844 114.80184936523438 123.5955810546875 114.68556213378906 123.96951293945312 C 114.48995971679688 124.59713745117188 114.72622680664062 125.29244995117188 115.12063598632812 125.81898498535156 C 115.70562744140625 126.60110473632812 116.62394714355469 127.1004638671875 117.58584594726562 127.27117919921875 C 118.5477294921875 127.44190979003906 119.54830932617188 127.30328369140625 120.46810913085938 126.97434997558594 L 120.26493835449219 127.067138671875" stroke-width="0.6000000238418579" fill="rgb(143, 165, 67)" opacity="1.0"/>
    <path d="M 391.2061462402344 303.898681640625 C 392.8966979980469 306.0306091308594 396.91729736328125 305.137451171875 397.7338562011719 302.5603942871094 C 398.5504150390625 299.98333740234375 395.9905700683594 297.01788330078125 393.27899169921875 297.25177001953125 C 390.5673828125 297.48565673828125 388.56072998046875 300.555908203125 389.2451171875 303.1927490234375 L 391.2061462402344 303.898681640625" stroke-width="0.6000000238418579" fill="rgb(233, 92, 21)" opacity="1.0"/>
    <path d="M 123.01412963867188 113.24227905273438 C 123.83990478515625 112.3919677734375 124.73812866210938 111.29060363769531 124.38491821289062 110.15492248535156 C 124.22676086425781 109.70843505859375 123.9339599609375 109.322021484375 123.54690551757812 109.04901123046875 C 122.60736083984375 108.34771728515625 121.38621520996094 108.14530944824219 120.27067565917969 108.5059814453125 C 119.32516479492188 108.8143310546875 118.56961059570312 109.50341796875 117.85491943359375 110.18623352050781 C 117.45408630371094 110.57044982910156 117.04045104980469 110.99142456054688 116.91937255859375 111.53019714355469 C 116.76388549804688 112.2496337890625 117.17460632324219 112.96675109863281 117.63226318359375 113.54293823242188 C 118.30096435546875 114.38705444335938 119.10189819335938 115.11735534667969 120.00399780273438 115.70553588867188 C 120.31607055664062 115.90815734863281 120.65625 116.09927368164062 121.02778625488281 116.11672973632812 C 121.37408447265625 116.11529541015625 121.71247863769531 116.01312255859375 122.001708984375 115.82266235351562 C 122.90151977539062 115.27911376953125 123.51760864257812 114.36819458007812 123.68707275390625 113.3306884765625 L 123.01412963867188 113.24227905273438" stroke-width="0.6000000238418579" fill="rgb(70, 150, 179)" opacity="1.0"/>
    <path d="M 427.328857421875 70.20745849609375 C 427.82635498046875 71.187744140625 428.4189453125 72.25343322753906 429.45703125 72.61282348632812 C 430.57244873046875 72.99822998046875 431.8275146484375 72.38882446289062 432.591064453125 71.48907470703125 C 432.8856201171875 71.14228820800781 433.1357421875 70.73492431640625 433.1834716796875 70.28248596191406 C 433.22283935546875 69.91056823730469 433.1234130859375 69.53897094726562 433.0052490234375 69.1842041015625 C 432.6341552734375 68.06501770019531 432.0074462890625 66.941650390625 430.94921875 66.42222595214844 C 429.88232421875 65.89945983886719 428.486083984375 66.14663696289062 427.667724609375 67.00942993164062 C 426.849365234375 67.87220764160156 426.66314697265625 69.27603149414062 427.23712158203125 70.31838989257812 L 427.328857421875 70.20745849609375" stroke-width="0.6000000238418579" fill="rgb(140, 28, 33)" opacity="1.0"/>
    <path d="M 113.07809448242188 415.6553955078125 C 114.13531494140625 413.81927490234375 115.21519470214844 411.89703369140625 115.407470703125 409.7855224609375 C 115.59976196289062 407.6740417480469 114.63287353515625 405.2940979003906 112.65711975097656 404.52581787109375 C 110.21615600585938 403.5829162597656 107.37921142578125 405.645263671875 106.76220703125 408.193115234375 C 106.14520263671875 410.7409973144531 107.20614624023438 413.4202880859375 108.7154541015625 415.55975341796875 C 109.11631774902344 416.26885986328125 109.76840209960938 416.8018798828125 110.54304504394531 417.0537109375 C 111.32708740234375 417.2193603515625 112.29934692382812 416.57421875 112.14007568359375 415.78485107421875 L 113.07809448242188 415.6553955078125" stroke-width="0.6000000238418579" fill="rgb(159, 159, 159)" opacity="1.0"/>
    <path d="M 453.9532470703125 432.34539794921875 C 454.42645263671875 431.2484130859375 454.53411865234375 429.9654541015625 454.087646484375 428.8580322265625 C 453.6412353515625 427.75054931640625 452.59503173828125 426.86395263671875 451.400390625 426.76116943359375 C 450.55560302734375 426.6895751953125 449.7061767578125 427.0059814453125 449.03204345703125 427.52130126953125 C 448.35791015625 428.03662109375 447.84503173828125 428.7374267578125 447.43963623046875 429.4830322265625 C 447.263427734375 429.80755615234375 447.10205078125 430.1607666015625 447.12689208984375 430.5283203125 C 447.1551513671875 430.94970703125 447.4222412109375 431.3121337890625 447.6951904296875 431.6361083984375 C 448.465576171875 432.55078125 449.405517578125 433.38232421875 450.5552978515625 433.7120361328125 C 451.7049560546875 434.0418701171875 453.09185791015625 433.75439453125 453.7947998046875 432.79034423828125 L 453.9532470703125 432.34539794921875" stroke-width="0.6000000238418579" fill="rgb(159, 159, 159)" opacity="1.0"/>
    <path d="M 450.666748046875 285.5661926269531 C 451.3736572265625 284.66107177734375 452.1202392578125 283.6243896484375 451.99169921875 282.48541259765625 C 451.8682861328125 281.3775634765625 450.9615478515625 280.5416564941406 450.102294921875 279.8307189941406 C 449.7528076171875 279.5424499511719 449.3826904296875 279.2464294433594 448.9385986328125 279.15777587890625 C 448.187744140625 279.00738525390625 447.4566650390625 279.484130859375 446.9119873046875 280.0207824707031 C 446.4061279296875 280.5186767578125 445.9744873046875 281.0866394042969 445.630126953125 281.707275390625 C 445.0706787109375 282.71478271484375 444.7723388671875 284.0235900878906 445.41204833984375 284.9817199707031 C 445.75665283203125 285.49945068359375 446.33172607421875 285.8328857421875 446.930908203125 286.0032043457031 C 447.530029296875 286.17352294921875 448.1605224609375 286.195556640625 448.7833251953125 286.2084045410156 C 449.406005859375 286.2212829589844 450.01824951171875 286.2205810546875 450.5777587890625 285.9824523925781 L 450.666748046875 285.5661926269531" stroke-width="0.6000000238418579" fill="rgb(218, 166, 20)" opacity="1.0"/>
    <path d="M 416.1181640625 361.8025817871094 C 417.76605224609375 363.3727722167969 420.37481689453125 363.309814453125 421.945068359375 361.6618957519531 C 422.0794677734375 361.52081298828125 422.2037353515625 361.3703308105469 422.31689453125 361.2116394042969 C 422.746826171875 360.6085510253906 423.0133056640625 359.852783203125 422.8846435546875 359.123779296875 C 422.7760009765625 358.5077209472656 422.4024658203125 357.9727783203125 421.9912109375 357.5019226074219 C 420.888671875 356.24310302734375 419.46917724609375 355.3024597167969 417.88018798828125 354.7776794433594 C 417.4599609375 354.6396789550781 417.01593017578125 354.5306701660156 416.5771484375 354.5932922363281 C 415.84033203125 354.6979675292969 415.2440185546875 355.2771301269531 414.8970947265625 355.9360656738281 C 414.3812255859375 356.91400146484375 414.31640625 358.0954895019531 414.60888671875 359.1619873046875 C 414.9012451171875 360.228515625 415.52880859375 361.1844177246094 416.3116455078125 361.9653015136719 L 416.1181640625 361.8025817871094" stroke-width="0.6000000238418579" fill="rgb(143, 165, 67)" opacity="1.0"/>
    <path d="M 451.558349609375 355.8328552246094 C 452.775634765625 353.756103515625 450.75201416015625 350.7257995605469 448.3651123046875 350.877197265625 C 445.9781494140625 351.0285949707031 444.35162353515625 354.0891418457031 445.4124755859375 356.25079345703125 C 446.473388671875 358.4124450683594 449.64801025390625 359.08477783203125 451.603759765625 357.67626953125 L 451.558349609375 355.8328552246094" stroke-width="0.6000000238418579" fill="rgb(233, 92, 21)" opacity="1.0"/>
    <path d="M 453.157470703125 79.76565551757812 C 453.844482421875 79.00054931640625 454.5858154296875 78.01536560058594 454.2412109375 77.04283142089844 C 454.0889892578125 76.6611328125 453.822021484375 76.33609008789062 453.477294921875 76.11251831054688 C 452.6390380859375 75.53642272949219 451.5736083984375 75.40232849121094 450.6187744140625 75.75277709960938 C 449.8095703125 76.0521240234375 449.17791748046875 76.67507934570312 448.58154296875 77.29121398925781 C 448.2470703125 77.63787841796875 447.9027099609375 78.01681518554688 447.8160400390625 78.48797607421875 C 447.70562744140625 79.11691284179688 448.0859375 79.72463989257812 448.502197265625 80.20864868164062 C 449.1104736328125 80.917724609375 449.82958984375 81.523681640625 450.6314697265625 82.00299072265625 C 450.908935546875 82.16806030273438 451.21026611328125 82.32223510742188 451.532958984375 82.32476806640625 C 451.83306884765625 82.31178283691406 452.12298583984375 82.21174621582031 452.36724853515625 82.036865234375 C 453.12890625 81.53515625 453.632080078125 80.72462463378906 453.74383544921875 79.81948852539062 L 453.157470703125 79.76565551757812" stroke-width="0.6000000238418579" fill="rgb(70, 150, 179)" opacity="1.0"/>
    <path d="M 450.46630859375 389.46807861328125 C 450.63458251953125 389.08935546875 450.80517578125 388.6625061035156 450.6632080078125 388.2734680175781 C 450.510498046875 387.8556213378906 450.03369140625 387.6336669921875 449.5888671875 387.6244812011719 C 449.4173583984375 387.6208801269531 449.23876953125 387.6446838378906 449.0950927734375 387.7384033203125 C 448.97705078125 387.8153991699219 448.89202880859375 387.9328918457031 448.81640625 388.0518493652344 C 448.5775146484375 388.4266662597656 448.39813232421875 388.8772277832031 448.498046875 389.3102722167969 C 448.59912109375 389.7466125488281 449.003662109375 390.0960388183594 449.45062255859375 390.1300048828125 C 449.89764404296875 390.1639709472656 450.3524169921875 389.8843688964844 450.5206298828125 389.468505859375 L 450.46630859375 389.46807861328125" stroke-width="0.6000000238418579" fill="rgb(140, 28, 33)" opacity="1.0"/>
    <path d="M 124.92822265625 216.88720703125 C 122.10787963867188 217.78961181640625 119.18307495117188 218.75973510742188 116.997314453125 220.76071166992188 C 114.81161499023438 222.76165771484375 113.57106018066406 226.130859375 114.88970947265625 228.7840576171875 C 116.5247802734375 232.05548095703125 121.39707946777344 232.5941162109375 124.43234252929688 230.54193115234375 C 127.46762084960938 228.48974609375 128.89266967773438 224.72262573242188 129.34637451171875 221.09149169921875 C 129.5994415283203 219.98153686523438 129.42724609375 218.81707763671875 128.8637237548828 217.827880859375 C 128.2093963623047 216.91888427734375 126.59767150878906 216.6705322265625 126.01937866210938 217.63616943359375 L 124.92822265625 216.88720703125" stroke-width="0.6000000238418579" fill="rgb(159, 159, 159)" opacity="1.0"/>
    <path d="M 110.85552978515625 224.93408203125 C 108.7523193359375 223.05917358398438 105.96090698242188 221.864013671875 103.15025329589844 222.03955078125 C 100.339599609375 222.215087890625 97.57720947265625 223.89724731445312 96.45867919921875 226.49468994140625 C 95.67019653320312 228.33209228515625 95.74661254882812 230.46856689453125 96.39862060546875 232.360595703125 C 97.05059814453125 234.2525634765625 98.23760986328125 235.9217529296875 99.60479736328125 237.38360595703125 C 100.20013427734375 238.0194091796875 100.87063598632812 238.64321899414062 101.71170043945312 238.86093139648438 C 102.67584228515625 239.1109619140625 103.6856689453125 238.78277587890625 104.61376953125 238.4129638671875 C 107.23397827148438 237.36895751953125 109.79400634765625 235.88357543945312 111.38717651367188 233.55560302734375 C 112.98033142089844 231.22763061523438 113.36846923828125 227.90988159179688 111.73355102539062 225.61962890625 L 110.85552978515625 224.93408203125" stroke-width="0.6000000238418579" fill="rgb(159, 159, 159)" opacity="1.0"/>
    <path d="M 304.3780517578125 104.37705993652344 C 303.4771728515625 106.95501708984375 302.5874938964844 109.85955810546875 303.74652099609375 112.32632446289062 C 304.8702697753906 114.72686767578125 307.5503845214844 115.9169921875 310.0280456542969 116.86196899414062 C 311.03509521484375 117.24436950683594 312.0947570800781 117.62835693359375 313.162353515625 117.489013671875 C 314.96807861328125 117.25439453125 316.2503967285156 115.62261962890625 317.0673522949219 113.99822998046875 C 317.82623291015625 112.49081420898438 318.3647155761719 110.88223266601562 318.6663513183594 109.22175598144531 C 319.1571044921875 106.5257568359375 318.8294677734375 103.35064697265625 316.657470703125 101.68145751953125 C 315.4862060546875 100.77859497070312 313.9366149902344 100.46681213378906 312.45733642578125 100.54067993164062 C 310.97802734375 100.61456298828125 309.5413513183594 101.04635620117188 308.129150390625 101.49284362792969 C 306.7169189453125 101.9393310546875 305.33880615234375 102.40829467773438 304.2607116699219 103.37167358398438 L 304.3780517578125 104.37705993652344" stroke-width="0.6000000238418579" fill="rgb(218, 166, 20)" opacity="1.0"/>
    <path d="M 218.594970703125 125.81378173828125 C 215.54562377929688 122.68563842773438 210.53778076171875 122.62178039550781 207.40963745117188 125.671142578125 C 207.14178466796875 125.9322509765625 206.89276123046875 126.21205139160156 206.66448974609375 126.50840759277344 C 205.79733276367188 127.63465881347656 205.23275756835938 129.06527709960938 205.4278564453125 130.4725341796875 C 205.59262084960938 131.6617889404297 206.27117919921875 132.71417236328125 207.02658081054688 133.64633178710938 C 209.05206298828125 136.138671875 211.70797729492188 138.04322814941406 214.7183837890625 139.1621551513672 C 215.51458740234375 139.45657348632812 216.3583984375 139.69708251953125 217.2044677734375 139.60806274414062 C 218.62493896484375 139.45945739746094 219.80963134765625 138.39088439941406 220.521728515625 137.1516571044922 C 221.58016967773438 135.31259155273438 221.78814697265625 133.05116271972656 221.30282592773438 130.98500061035156 C 220.8175048828125 128.91885375976562 219.681640625 127.04110717773438 218.2353515625 125.488037109375 L 218.594970703125 125.81378173828125" stroke-width="0.6000000238418579" fill="rgb(143, 165, 67)" opacity="1.0"/>
    <path d="M 222.9176025390625 93.751953125 C 221.55328369140625 98.61700439453125 227.27682495117188 103.69049072265625 232.04205322265625 102.11083984375 C 236.8072509765625 100.53115844726562 238.47805786132812 93.45071411132812 235.17208862304688 89.62759399414062 C 231.86614990234375 85.80447387695312 225.0626220703125 86.13168334960938 221.8427734375 90.03369140625 L 222.9176025390625 93.751953125" stroke-width="0.6000000238418579" fill="rgb(233, 92, 21)" opacity="1.0"/>
    <path d="M 201.8048095703125 95.84466552734375 C 200.88372802734375 93.42584228515625 199.53265380859375 90.63201904296875 196.9591064453125 90.28334045410156 C 195.92950439453125 90.1844482421875 194.89462280273438 90.40744018554688 193.9971923828125 90.921630859375 C 191.742431640625 92.13410949707031 190.2152099609375 94.36422729492188 189.89987182617188 96.90481567382812 C 189.63787841796875 99.06060791015625 190.30459594726562 101.19171142578125 190.99667358398438 103.23612976074219 C 191.38729858398438 104.3839111328125 191.8388671875 105.59097290039062 192.79345703125 106.32763671875 C 194.07391357421875 107.29911804199219 195.87210083007812 107.1478271484375 197.4346923828125 106.77365112304688 C 199.7222900390625 106.22891235351562 201.90658569335938 105.31748962402344 203.90289306640625 104.07475280761719 C 204.59185791015625 103.64404296875 205.28396606445312 103.1470947265625 205.66128540039062 102.4278564453125 C 205.9779052734375 101.74114990234375 206.087890625 100.97714233398438 205.977783203125 100.22901916503906 C 205.73214721679688 97.9466552734375 204.49765014648438 95.88694763183594 202.60064697265625 94.5943603515625 L 201.8048095703125 95.84466552734375" stroke-width="0.6000000238418579" fill="rgb(70, 150, 179)" opacity="1.0"/>
    <path d="M 269.2642822265625 132.06307983398438 C 268.2147216796875 134.65322875976562 267.1601257324219 137.56826782226562 268.20367431640625 140.15892028808594 C 269.3263244628906 142.94117736816406 272.5897216796875 144.330810546875 275.58966064453125 144.29335021972656 C 276.746337890625 144.27940368652344 277.9449462890625 144.07908630371094 278.8922119140625 143.41543579101562 C 279.671142578125 142.87017822265625 280.2177429199219 142.0592498779297 280.700927734375 141.24063110351562 C 282.227783203125 138.6609344482422 283.33599853515625 135.58413696289062 282.5657653808594 132.68777465820312 C 281.7874450683594 129.7692108154297 278.9831237792969 127.50434875488281 275.962646484375 127.37509155273438 C 272.94219970703125 127.24581909179688 269.9393005371094 129.2317657470703 268.89837646484375 132.07225036621094 L 269.2642822265625 132.06307983398438" stroke-width="0.6000000238418579" fill="rgb(140, 28, 33)" opacity="1.0"/>
    <path d="M 316.5688781738281 115.77120971679688 C 313.8865661621094 116.47378540039062 311.10321044921875 117.23442077636719 308.95928955078125 118.9959716796875 C 306.81536865234375 120.75750732421875 305.4867248535156 123.845703125 306.5868835449219 126.39253234863281 C 307.9519348144531 129.53329467773438 312.4807434082031 130.2808837890625 315.42156982421875 128.51397705078125 C 318.36236572265625 126.7470703125 319.8834533691406 123.29605102539062 320.489501953125 119.92355346679688 C 320.7817077636719 118.89836120605469 320.6789855957031 117.80093383789062 320.20159912109375 116.84780883789062 C 319.6352844238281 115.965087890625 318.1407165527344 115.65216064453125 317.5516357421875 116.526123046875 L 316.5688781738281 115.77120971679688" stroke-width="0.6000000238418579" fill="rgb(159, 159, 159)" opacity="1.0"/>
    <path d="M 198.044677734375 132.4314422607422 C 195.96859741210938 130.53530883789062 193.1976318359375 129.30917358398438 190.3909912109375 129.45050048828125 C 187.5843505859375 129.5918426513672 184.8077392578125 131.23712158203125 183.66036987304688 133.8154296875 C 182.85150146484375 135.63934326171875 182.90203857421875 137.77212524414062 183.52987670898438 139.6678466796875 C 184.15768432617188 141.56356811523438 185.322021484375 143.24339294433594 186.66864013671875 144.71849060058594 C 187.25506591796875 145.36007690429688 187.91656494140625 145.9906005859375 188.753173828125 146.2179718017578 C 189.71221923828125 146.4790802001953 190.72378540039062 146.16372680664062 191.65432739257812 145.80589294433594 C 194.28140258789062 144.795654296875 196.85372924804688 143.34432983398438 198.471435546875 141.0406036376953 C 200.089111328125 138.7368621826172 200.516357421875 135.43099975585938 198.91253662109375 133.12608337402344 L 198.044677734375 132.4314422607422" stroke-width="0.6000000238418579" fill="rgb(159, 159, 159)" opacity="1.0"/>
    <path d="M 279.9964904785156 105.61813354492188 C 277.5722351074219 106.40609741210938 274.9117126464844 107.386962890625 273.734375 109.64224243164062 C 272.5863342285156 111.83392333984375 273.2171630859375 114.49755859375 273.9156494140625 116.87222290039062 C 274.2008361816406 117.83648681640625 274.5145263671875 118.8406982421875 275.22149658203125 119.55499267578125 C 276.4164733886719 120.76376342773438 278.3534240722656 120.79397583007812 280.02191162109375 120.48269653320312 C 281.5706481933594 120.19438171386719 283.0699462890625 119.6851806640625 284.47393798828125 118.97065734863281 C 286.7540283203125 117.81130981445312 288.927490234375 115.77325439453125 288.93975830078125 113.21627807617188 C 288.9483947753906 111.83586120605469 288.3041076660156 110.50851440429688 287.4130859375 109.45137023925781 C 286.52203369140625 108.39424133300781 285.38922119140625 107.57107543945312 284.2593078613281 106.77436828613281 C 283.12939453125 105.9776611328125 282.0020446777344 105.21902465820312 280.677001953125 104.96267700195312 L 279.9964904785156 105.61813354492188" stroke-width="0.6000000238418579" fill="rgb(218, 166, 20)" opacity="1.0"/>
    <path d="M 241.87564086914062 119.8194580078125 C 240.629638671875 123.81718444824219 242.8603515625 128.06808471679688 246.85806274414062 129.31410217285156 C 247.20037841796875 129.42079162597656 247.54986572265625 129.50306701660156 247.90383911132812 129.560302734375 C 249.2489013671875 129.77757263183594 250.71249389648438 129.60089111328125 251.80987548828125 128.79443359375 C 252.73727416992188 128.11300659179688 253.31491088867188 127.06086730957031 253.756103515625 125.99879455566406 C 254.9332275390625 123.15425109863281 255.32720947265625 120.04641723632812 254.89718627929688 116.99812316894531 C 254.78216552734375 116.19256591796875 254.5999755859375 115.37149047851562 254.13894653320312 114.69883728027344 C 253.36566162109375 113.56912231445312 251.92437744140625 113.05789184570312 250.55484008789062 113.02291870117188 C 248.5216064453125 112.96957397460938 246.520263671875 113.82589721679688 244.99981689453125 115.17759704589844 C 243.47940063476562 116.529296875 242.41458129882812 118.34347534179688 241.76507568359375 120.271240234375 L 241.87564086914062 119.8194580078125" stroke-width="0.6000000238418579" fill="rgb(143, 165, 67)" opacity="1.0"/>
    <path d="M 250.216796875 91.90066528320312 C 249.2061767578125 96.85165405273438 255.28057861328125 101.50019836425781 259.9200134277344 99.58143615722656 C 264.5594177246094 97.66265869140625 265.7161865234375 90.47979736328125 262.143310546875 86.90438842773438 C 258.5704345703125 83.3289794921875 251.80767822265625 84.14523315429688 248.876953125 88.26921081542969 L 250.216796875 91.90066528320312" stroke-width="0.6000000238418579" fill="rgb(233, 92, 21)" opacity="1.0"/>
    <path d="M 338.1302795410156 84.35720825195312 C 335.8493347167969 83.56591796875 333.0426025390625 82.85723876953125 331.2509765625 84.48782348632812 C 330.563232421875 85.16445922851562 330.1024169921875 86.037841796875 329.93206787109375 86.98748779296875 C 329.4474182128906 89.32582092285156 330.1261901855469 91.75399780273438 331.753173828125 93.50204467773438 C 333.1370849609375 94.9813232421875 335.0599365234375 95.781982421875 336.93603515625 96.5125732421875 C 337.9905700683594 96.92124938964844 339.1239929199219 97.32186889648438 340.22265625 97.0810546875 C 341.6844787597656 96.748046875 342.6540222167969 95.37203979492188 343.32305908203125 94.03086853027344 C 344.3046875 92.06927490234375 344.9623107910156 89.96173095703125 345.2704772949219 87.78997802734375 C 345.37548828125 87.03939819335938 345.4350891113281 86.24685668945312 345.1471252441406 85.54611206054688 C 344.8460388183594 84.90823364257812 344.3658447265625 84.37173461914062 343.7651062011719 84.00204467773438 C 341.98651123046875 82.80975341796875 339.7743835449219 82.45773315429688 337.7135314941406 83.03901672363281 L 338.1302795410156 84.35720825195312" stroke-width="0.6000000238418579" fill="rgb(70, 150, 179)" opacity="1.0"/>
    <path d="M 332.592529296875 126.78466796875 C 331.89837646484375 124.01492309570312 331.0126953125 120.97401428222656 328.5909423828125 119.46469116210938 C 325.98846435546875 117.84490966796875 322.458251953125 118.66397094726562 320.005126953125 120.50201416015625 C 319.0589904785156 121.21029663085938 318.1905212402344 122.09764099121094 317.80853271484375 123.2159423828125 C 317.49420166015625 124.1351318359375 317.5316162109375 125.13362121582031 317.6260070800781 126.10025024414062 C 317.9199523925781 129.1488800048828 318.85882568359375 132.3555908203125 321.23919677734375 134.2818145751953 C 323.6396179199219 136.2215118408203 327.3182067871094 136.40127563476562 329.8887023925781 134.6884765625 C 332.4591979980469 132.9756622314453 333.74102783203125 129.52784729003906 332.88897705078125 126.55668640136719 L 332.592529296875 126.78466796875" stroke-width="0.6000000238418579" fill="rgb(140, 28, 33)" opacity="1.0"/>
    <path d="M 351.3359680175781 105.96673583984375 C 348.4666442871094 105.45401000976562 345.47528076171875 104.9521484375 342.6525573730469 105.6873779296875 C 339.82989501953125 106.42259216308594 337.1999816894531 108.78329467773438 337.12640380859375 111.69873046875 C 337.0436096191406 115.29769897460938 341.03521728515625 118.00859069824219 344.62066650390625 117.6197509765625 C 348.20611572265625 117.23091125488281 351.1796875 114.60888671875 353.2455139160156 111.65817260742188 C 353.97650146484375 110.80882263183594 354.362548828125 109.71635437011719 354.3274230957031 108.5963134765625 C 354.1763916015625 107.5042724609375 352.8883056640625 106.54644775390625 351.94073486328125 107.12054443359375 L 351.3359680175781 105.96673583984375" stroke-width="0.6000000238418579" fill="rgb(159, 159, 159)" opacity="1.0"/>
    <path d="M 350.4627990722656 125.67852783203125 C 347.9050598144531 126.51484680175781 345.5781555175781 128.24571228027344 344.3736877441406 130.65052795410156 C 343.1692199707031 133.0553436279297 343.2318420410156 136.14366149902344 344.83935546875 138.3141632080078 C 345.9778137207031 139.8472900390625 347.7784423828125 140.80992126464844 349.6535339355469 141.17996215820312 C 351.5286560058594 141.55001831054688 353.47662353515625 141.37136840820312 355.3399353027344 140.94439697265625 C 356.15069580078125 140.75811767578125 356.9876708984375 140.50404357910156 357.5711975097656 139.91416931152344 C 358.24053955078125 139.2382049560547 358.454345703125 138.24688720703125 358.5946350097656 137.30308532714844 C 358.9906311035156 134.63851928710938 358.9933166503906 131.81178283691406 357.836181640625 129.37876892089844 C 356.67901611328125 126.94577026367188 354.12615966796875 125.03245544433594 351.4503479003906 125.28274536132812 L 350.4627990722656 125.67852783203125" stroke-width="0.6000000238418579" fill="rgb(159, 159, 159)" opacity="1.0"/>
    <path d="M 365.52850341796875 115.27365112304688 C 363.3089599609375 115.88018798828125 360.86810302734375 116.6505126953125 359.7099304199219 118.63349914550781 C 358.58087158203125 120.56036376953125 359.03546142578125 122.989013671875 359.5634765625 125.1600341796875 C 359.7792663574219 126.04165649414062 360.0190734863281 126.96054077148438 360.6258544921875 127.63485717773438 C 361.6514892578125 128.77593994140625 363.3966064453125 128.88621520996094 364.914306640625 128.67706298828125 C 366.3230285644531 128.48348999023438 367.6966857910156 128.08863830566406 368.9931945800781 127.50457763671875 C 371.09869384765625 126.55702209472656 373.14569091796875 124.81259155273438 373.266357421875 122.50765991210938 C 373.33331298828125 121.263427734375 372.8092956542969 120.03903198242188 372.0512390136719 119.04768371582031 C 371.29315185546875 118.05635070800781 370.30706787109375 117.26559448242188 369.3224182128906 116.49884033203125 C 368.3377990722656 115.73208618164062 367.3538818359375 114.999755859375 366.170166015625 114.71182250976562 L 365.52850341796875 115.27365112304688" stroke-width="0.6000000238418579" fill="rgb(218, 166, 20)" opacity="1.0"/>
    <path d="M 434.202392578125 154.43887329101562 C 430.4578857421875 155.2076416015625 428.04547119140625 158.86642456054688 428.814208984375 162.61099243164062 C 428.88006591796875 162.931640625 428.96856689453125 163.24722290039062 429.0791015625 163.55535888671875 C 429.4991455078125 164.72607421875 430.2862548828125 165.81768798828125 431.4150390625 166.33865356445312 C 432.368896484375 166.77899169921875 433.46466064453125 166.77621459960938 434.50811767578125 166.6600341796875 C 437.30078125 166.34518432617188 439.9581298828125 165.288330078125 442.2042236328125 163.59927368164062 C 442.7972412109375 163.15179443359375 443.3729248046875 162.643798828125 443.70697021484375 161.978515625 C 444.2684326171875 160.86196899414062 444.04083251953125 159.48458862304688 443.46435546875 158.37472534179688 C 442.6094970703125 156.72637939453125 441.04193115234375 155.5050811767578 439.2906494140625 154.88668823242188 C 437.53948974609375 154.26828002929688 435.6197509765625 154.2180938720703 433.7926025390625 154.54991149902344 L 434.202392578125 154.43887329101562" stroke-width="0.6000000238418579" fill="rgb(143, 165, 67)" opacity="1.0"/>
    <path d="M 143.92303466796875 418.3775634765625 C 141.43568420410156 422.7650146484375 145.76661682128906 429.0521240234375 150.76248168945312 428.662841796875 C 155.75833129882812 428.27349853515625 159.07327270507812 421.812744140625 156.7855224609375 417.3162841796875 C 154.4977569580078 412.81982421875 147.82675170898438 411.5072937011719 143.77212524414062 414.51708984375 L 143.92303466796875 418.3775634765625" stroke-width="0.6000000238418579" fill="rgb(233, 92, 21)" opacity="1.0"/>
    <path d="M 436.50250244140625 186.28985595703125 C 434.25341796875 186.23529052734375 431.56109619140625 186.40335083007812 430.43402099609375 188.35931396484375 C 430.0157470703125 189.1551513671875 429.85479736328125 190.0611572265625 429.9732666015625 190.95233154296875 C 430.2071533203125 193.16531372070312 431.4991455078125 195.12762451171875 433.439453125 196.21707153320312 C 435.0877685546875 197.13699340820312 437.021728515625 197.30157470703125 438.894287109375 197.417236328125 C 439.9462890625 197.48046875 441.0660400390625 197.51422119140625 441.97271728515625 196.98846435546875 C 443.175537109375 196.27780151367188 443.645263671875 194.78125 443.8582763671875 193.40093994140625 C 444.17242431640625 191.3812255859375 444.1575927734375 189.323974609375 443.814453125 187.3089599609375 C 443.6944580078125 186.61297607421875 443.5223388671875 185.89263916015625 443.0677490234375 185.35247802734375 C 442.619384765625 184.87185668945312 442.0408935546875 184.53204345703125 441.4027099609375 184.37454223632812 C 439.485595703125 183.8214111328125 437.42230224609375 184.13714599609375 435.75830078125 185.23828125 L 436.50250244140625 186.28985595703125" stroke-width="0.6000000238418579" fill="rgb(70, 150, 179)" opacity="1.0"/>
    <path d="M 407.3189697265625 158.09423828125 C 406.8795166015625 155.49566650390625 406.2832946777344 152.63380432128906 404.1634826660156 151.0707550048828 C 401.8852844238281 149.39306640625 398.5779724121094 149.89276123046875 396.1884765625 151.4075927734375 C 395.2669372558594 151.99124145507812 394.4039306640625 152.74526977539062 393.9720153808594 153.74681091308594 C 393.61663818359375 154.57000732421875 393.5792236328125 155.49147033691406 393.5965270996094 156.38772583007812 C 393.647705078125 159.214111328125 394.2809143066406 162.23236083984375 396.33270263671875 164.17605590820312 C 398.40191650390625 166.13357543945312 401.7738952636719 166.56362915039062 404.26239013671875 165.1724853515625 C 406.7508850097656 163.7813720703125 408.1784362792969 160.70098876953125 407.608154296875 157.90576171875 L 407.3189697265625 158.09423828125" stroke-width="0.6000000238418579" fill="rgb(140, 28, 33)" opacity="1.0"/>
    <path d="M 140.6226043701172 121.60548400878906 C 137.88465881347656 122.29824829101562 135.04330444335938 123.04931640625 132.84469604492188 124.82524108886719 C 130.6461181640625 126.60116577148438 129.26663208007812 129.7352294921875 130.365478515625 132.3385772705078 C 131.7290802001953 135.54910278320312 136.33538818359375 136.34902954101562 139.34567260742188 134.5744171142578 C 142.35597229003906 132.79981994628906 143.9345703125 129.29783630371094 144.58050537109375 125.8680419921875 C 144.88682556152344 124.82637023925781 144.7915496826172 123.70773315429688 144.3134307861328 122.73291015625 C 143.744140625 121.82904052734375 142.22454833984375 121.49760437011719 141.6171417236328 122.38272094726562 L 140.6226043701172 121.60548400878906" stroke-width="0.6000000238418579" fill="rgb(159, 159, 159)" opacity="1.0"/>
    <path d="M 418.2017822265625 178.37786865234375 C 416.41455078125 176.80194091796875 414.048583984375 175.80398559570312 411.6725158691406 175.96527099609375 C 409.2964782714844 176.12652587890625 406.9681091308594 177.56167602539062 406.0340881347656 179.7633056640625 C 405.37567138671875 181.32073974609375 405.4500732421875 183.12713623046875 406.01007080078125 184.72412109375 C 406.570068359375 186.32113647460938 407.58148193359375 187.72726440429688 408.74432373046875 188.95721435546875 C 409.2507019042969 189.4921875 409.820556640625 190.01666259765625 410.53277587890625 190.19692993164062 C 411.3492431640625 190.40399169921875 412.20172119140625 190.121826171875 412.98486328125 189.80487060546875 C 415.1959228515625 188.91000366210938 417.35406494140625 187.6422119140625 418.690673828125 185.666259765625 C 420.02734375 183.69033813476562 420.3404541015625 180.88287353515625 418.9473876953125 178.95361328125 L 418.2017822265625 178.37786865234375" stroke-width="0.6000000238418579" fill="rgb(159, 159, 159)" opacity="1.0"/>
    <path d="M 401.9264221191406 186.85107421875 C 401.037841796875 184.41619873046875 399.9446716308594 181.74822998046875 397.6102600097656 180.6336669921875 C 395.341552734375 179.5465087890625 392.6577453613281 180.28408813476562 390.27001953125 181.0799560546875 C 389.3005065917969 181.40469360351562 388.29144287109375 181.7598876953125 387.59124755859375 182.504150390625 C 386.40625 183.76226806640625 386.4457702636719 185.73162841796875 386.82257080078125 187.415771484375 C 387.17169189453125 188.97906494140625 387.7434997558594 190.48416137695312 388.52044677734375 191.88494873046875 C 389.78118896484375 194.15985107421875 391.9309997558594 196.2945556640625 394.52972412109375 196.21429443359375 C 395.9327697753906 196.17303466796875 397.2582092285156 195.47021484375 398.3001403808594 194.5264892578125 C 399.342041015625 193.58270263671875 400.137451171875 192.4017333984375 400.90606689453125 191.22467041015625 C 401.6746826171875 190.047607421875 402.4046936035156 188.87457275390625 402.6171569824219 187.518798828125 L 401.9264221191406 186.85107421875" stroke-width="0.6000000238418579" fill="rgb(218, 166, 20)" opacity="1.0"/>
    <path d="M 450.2491455078125 178.81390380859375 C 449.306884765625 183.06195068359375 451.98681640625 187.26947021484375 456.23486328125 188.211669921875 C 456.5986328125 188.2923583984375 456.9676513671875 188.34713745117188 457.33917236328125 188.3756103515625 C 458.7508544921875 188.48345947265625 460.2509765625 188.173095703125 461.317138671875 187.24249267578125 C 462.2181396484375 186.4561767578125 462.724609375 185.31640625 463.08905029296875 184.17825317382812 C 464.060302734375 181.13031005859375 464.19775390625 177.8779296875 463.487060546875 174.7589111328125 C 463.2978515625 173.93475341796875 463.0377197265625 173.10043334960938 462.50177001953125 172.44403076171875 C 461.6026611328125 171.341552734375 460.0657958984375 170.93765258789062 458.64459228515625 171.02066040039062 C 456.5345458984375 171.14239501953125 454.5367431640625 172.203369140625 453.080078125 173.7353515625 C 451.62335205078125 175.26739501953125 450.6787109375 177.2386474609375 450.1739501953125 179.29132080078125 L 450.2491455078125 178.81390380859375" stroke-width="0.6000000238418579" fill="rgb(143, 165, 67)" opacity="1.0"/>
    <path d="M 147.99842834472656 104.83370971679688 C 142.96153259277344 108.54119873046875 144.68141174316406 117.8509521484375 150.53395080566406 119.93939208984375 C 156.38650512695312 122.02783203125 163.40988159179688 116.39224243164062 163.09640502929688 110.14393615722656 C 162.78292846679688 103.8956298828125 155.89564514160156 99.03262329101562 149.7819366455078 100.38720703125 L 147.99842834472656 104.83370971679688" stroke-width="0.6000000238418579" fill="rgb(233, 92, 21)" opacity="1.0"/>
    <path d="M 453.351806640625 152.0909881591797 C 451.84991455078125 154.7342529296875 450.3299560546875 158.0474853515625 451.93890380859375 160.63919067382812 C 452.61932373046875 161.64569091796875 453.5953369140625 162.41622924804688 454.73223876953125 162.844482421875 C 457.5167236328125 163.9798583984375 460.6788330078125 163.6951904296875 463.2156982421875 162.08071899414062 C 465.3642578125 160.7056884765625 466.7957763671875 158.50796508789062 468.1298828125 156.35211181640625 C 468.8773193359375 155.139892578125 469.6328125 153.828125 469.58612060546875 152.41256713867188 C 469.50836181640625 150.52626037597656 468.0264892578125 149.0107421875 466.5189208984375 147.87530517578125 C 464.31463623046875 146.2108154296875 461.85546875 144.91407775878906 459.23681640625 144.03538513183594 C 458.33148193359375 143.7335205078125 457.36376953125 143.47833251953125 456.43017578125 143.67449951171875 C 455.5714111328125 143.90130615234375 454.797119140625 144.37310791015625 454.201904296875 145.03233337402344 C 452.318359375 146.9617919921875 451.3760986328125 149.62037658691406 451.6241455078125 152.3052978515625 L 453.351806640625 152.0909881591797" stroke-width="0.6000000238418579" fill="rgb(70, 150, 179)" opacity="1.0"/>
    <path d="M 376.1049499511719 78.12911987304688 C 376.318115234375 74.79536437988281 376.4144592285156 71.09121704101562 374.2534484863281 68.54658508300781 C 371.930419921875 65.81448364257812 367.7047119140625 65.46957397460938 364.3162841796875 66.6439208984375 C 363.0096740722656 67.09613037109375 361.72576904296875 67.77557373046875 360.9017333984375 68.88568115234375 C 360.2239990234375 69.79798889160156 359.90997314453125 70.92398071289062 359.6708068847656 72.03477478027344 C 358.9123229980469 75.5367431640625 358.81622314453125 79.444580078125 360.7825927734375 82.43907165527344 C 362.7665100097656 85.4556884765625 366.8017272949219 86.96647644042969 370.27630615234375 85.9735107421875 C 373.75091552734375 84.98054504394531 376.4075622558594 81.59510803222656 376.5165100097656 77.98066711425781 L 376.1049499511719 78.12911987304688" stroke-width="0.6000000238418579" fill="rgb(140, 28, 33)" opacity="1.0"/>
    <path d="M 130.87890625 412.955810546875 C 128.3349609375 414.947265625 125.70980834960938 417.04754638671875 124.23123168945312 419.9227294921875 C 122.752685546875 422.7978515625 122.75941467285156 426.7149658203125 125.11346435546875 428.93017578125 C 128.02540588378906 431.658203125 133.214599609375 430.364013671875 135.54298400878906 427.11468505859375 C 137.87135314941406 423.8653564453125 137.9027099609375 419.4713134765625 136.99172973632812 415.584228515625 C 136.8302764892578 414.3526611328125 136.2130584716797 413.2264404296875 135.26185607910156 412.427734375 C 134.24810791015625 411.7455139160156 132.5049591064453 412.101806640625 132.2789764404297 413.308837890625 L 130.87890625 412.955810546875" stroke-width="0.6000000238418579" fill="rgb(159, 159, 159)" opacity="1.0"/>
    <path d="M 409.2195739746094 207.57073974609375 C 407.8674011230469 204.768310546875 405.5256042480469 202.36810302734375 402.5842590332031 201.35797119140625 C 399.6429138183594 200.34783935546875 396.11334228515625 200.89501953125 393.8733825683594 203.07135009765625 C 392.29168701171875 204.612060546875 391.4656982421875 206.82379150390625 391.33026123046875 209.02960205078125 C 391.1948547363281 211.2354736328125 391.699462890625 213.44036865234375 392.4755859375 215.510009765625 C 392.8138732910156 216.41046142578125 393.2339172363281 217.33050537109375 393.9997253417969 217.908447265625 C 394.87744140625 218.5714111328125 396.04638671875 218.66387939453125 397.14959716796875 218.6793212890625 C 400.26416015625 218.72296142578125 403.5040283203125 218.2908935546875 406.1141357421875 216.59027099609375 C 408.7242431640625 214.88961791992188 410.5238952636719 211.66949462890625 409.8251647949219 208.64154052734375 L 409.2195739746094 207.57073974609375" stroke-width="0.6000000238418579" fill="rgb(159, 159, 159)" opacity="1.0"/>
    <path d="M 385.6684875488281 121.05722045898438 C 382.8642883300781 122.24822998046875 379.79888916015625 123.69358825683594 378.6323547363281 126.50161743164062 C 377.4940490722656 129.2308349609375 378.52294921875 132.33645629882812 379.602294921875 135.09095764160156 C 380.04241943359375 136.20928955078125 380.5206604003906 137.37222290039062 381.4368896484375 138.14892578125 C 382.9857482910156 139.4635009765625 385.2951354980469 139.2974395751953 387.2491760253906 138.7528076171875 C 389.0630798339844 138.24798583984375 390.79510498046875 137.4853057861328 392.3922119140625 136.48814392089844 C 394.9860534667969 134.86996459960938 397.36126708984375 132.2166748046875 397.1091613769531 129.1709747314453 C 396.9754638671875 127.52650451660156 396.0699157714844 126.0133056640625 394.89874267578125 124.84759521484375 C 393.72760009765625 123.681884765625 392.29296875 122.8199462890625 390.8645324707031 121.98922729492188 C 389.4361267089844 121.15849304199219 388.0147399902344 120.37281799316406 386.4103698730469 120.205810546875 L 385.6684875488281 121.05722045898438" stroke-width="0.6000000238418579" fill="rgb(218, 166, 20)" opacity="1.0"/>
    <path d="M 401.9681091308594 81.04464721679688 C 398.4164123535156 77.08552551269531 392.3276672363281 76.75523376464844 388.3685607910156 80.30694580078125 C 388.029541015625 80.61106872558594 387.7125244140625 80.93887329101562 387.4198913574219 81.28787231445312 C 386.3081970214844 82.61419677734375 385.5492248535156 84.32601928710938 385.715576171875 86.04779052734375 C 385.85601806640625 87.5028076171875 386.6283874511719 88.81723022460938 387.50030517578125 89.9892578125 C 389.83856201171875 93.12332153320312 392.97332763671875 95.57414245605469 396.5789794921875 97.08712768554688 C 397.5327453613281 97.48545837402344 398.5470886230469 97.82058715820312 399.580810546875 97.75497436523438 C 401.3162841796875 97.64584350585938 402.8113098144531 96.40570068359375 403.74005126953125 94.93414306640625 C 405.12042236328125 92.75033569335938 405.4874572753906 90.00984191894531 405.0013122558594 87.471923828125 C 404.5151672363281 84.93400573730469 403.22808837890625 82.59246826171875 401.54705810546875 80.63023376464844 L 401.9681091308594 81.04464721679688" stroke-width="0.6000000238418579" fill="rgb(143, 165, 67)" opacity="1.0"/>
    <path d="M 117.31399536132812 424.77752685546875 C 114.33615112304688 419.3524169921875 104.97994995117188 419.822021484375 102.16627502441406 425.289306640625 C 99.35261535644531 430.756591796875 103.96185302734375 438.38226318359375 110.13139343261719 438.891845703125 C 116.30093383789062 439.4013671875 121.97129821777344 433.28192138671875 121.44209289550781 427.1082763671875 L 117.31399536132812 424.77752685546875" stroke-width="0.6000000238418579" fill="rgb(233, 92, 21)" opacity="1.0"/>
    <path d="M 447.822509765625 197.7706298828125 C 446.3670654296875 200.41006469726562 444.90228271484375 203.7138671875 446.5301513671875 206.26275634765625 C 447.2174072265625 207.25189208984375 448.19476318359375 208.00335693359375 449.3272705078125 208.41351318359375 C 452.10205078125 209.5037841796875 455.233154296875 209.18145751953125 457.72760009765625 207.548828125 C 459.840087890625 206.158447265625 461.23138427734375 203.96160888671875 462.52655029296875 201.80752563476562 C 463.252197265625 200.5963134765625 463.9844970703125 199.28634643554688 463.92022705078125 197.88360595703125 C 463.8192138671875 196.0146484375 462.3309326171875 194.53103637695312 460.822021484375 193.42453002929688 C 458.61578369140625 191.80239868164062 456.1614990234375 190.548095703125 453.554443359375 189.710205078125 C 452.653076171875 189.42242431640625 451.69049072265625 189.18170166015625 450.7674560546875 189.38800048828125 C 449.9189453125 189.62374877929688 449.15740966796875 190.10125732421875 448.57568359375 190.7623291015625 C 446.73297119140625 192.698974609375 445.83258056640625 195.34646606445312 446.112548828125 198.0050048828125 L 447.822509765625 197.7706298828125" stroke-width="0.6000000238418579" fill="rgb(70, 150, 179)" opacity="1.0"/>
    <path d="M 412.21063232421875 134.6893310546875 C 411.8843688964844 131.52072143554688 411.3896789550781 128.0222625732422 408.95550537109375 125.97084045410156 C 406.33935546875 123.76870727539062 402.3111877441406 124.11204528808594 399.3103942871094 125.751708984375 C 398.1531677246094 126.38339233398438 397.05316162109375 127.22515869140625 396.45367431640625 128.39926147460938 C 395.96051025390625 129.3642578125 395.8431396484375 130.4727020263672 395.7937316894531 131.55503845214844 C 395.6337890625 134.9679718017578 396.1608581542969 138.657958984375 398.48309326171875 141.1631622314453 C 400.8252868652344 143.6864013671875 404.8585510253906 144.4695281982422 407.9690246582031 142.98680114746094 C 411.0794982910156 141.5040740966797 413.0428466796875 137.90078735351562 412.57421875 134.48471069335938 L 412.21063232421875 134.6893310546875" stroke-width="0.6000000238418579" fill="rgb(140, 28, 33)" opacity="1.0"/>
    <path d="M 399.1064147949219 71.3319091796875 C 400.0418701171875 74.36676025390625 401.0487060546875 77.514404296875 403.16949462890625 79.88128662109375 C 405.290283203125 82.24813842773438 408.88916015625 83.61705017089844 411.74951171875 82.23330688476562 C 415.2764892578125 80.51736450195312 415.909912109375 75.29852294921875 413.743896484375 72.02001953125 C 411.577880859375 68.74154663085938 407.5544128417969 67.17019653320312 403.6656188964844 66.64207458496094 C 402.47821044921875 66.35797119140625 401.22747802734375 66.52932739257812 400.1602478027344 67.122314453125 C 399.1779479980469 67.8135986328125 398.89312744140625 69.53915405273438 399.92205810546875 70.17034912109375 L 399.1064147949219 71.3319091796875" stroke-width="0.6000000238418579" fill="rgb(159, 159, 159)" opacity="1.0"/>
    <path d="M 442.0572509765625 235.49932861328125 C 440.36920166015625 238.0911865234375 439.5323486328125 241.31787109375 440.18634033203125 244.33938598632812 C 440.84033203125 247.36090087890625 443.12158203125 250.08163452148438 446.12506103515625 250.8673095703125 C 448.249267578125 251.42007446289062 450.555419921875 250.98483276367188 452.5013427734375 249.9652099609375 C 454.44732666015625 248.94561767578125 456.063232421875 247.382080078125 457.42431640625 245.65716552734375 C 458.0162353515625 244.90618896484375 458.5826416015625 244.07559204101562 458.6802978515625 243.12689208984375 C 458.792724609375 242.03924560546875 458.26995849609375 240.99737548828125 457.715576171875 240.051025390625 C 456.150390625 237.37939453125 454.1160888671875 234.84588623046875 451.3267822265625 233.50064086914062 C 448.5374755859375 232.15542602539062 444.87261962890625 232.28125 442.65655517578125 234.433349609375 L 442.0572509765625 235.49932861328125" stroke-width="0.6000000238418579" fill="rgb(159, 159, 159)" opacity="1.0"/>
    <path d="M 407.9831237792969 261.932861328125 C 406.3868408203125 259.3927307128906 404.50244140625 256.638427734375 401.590087890625 255.9432373046875 C 398.75872802734375 255.26318359375 395.9002380371094 256.7489929199219 393.3909606933594 258.2289123535156 C 392.37249755859375 258.8316345214844 391.3166198730469 259.4783935546875 390.7047119140625 260.4905700683594 C 389.6687927246094 262.201904296875 390.19122314453125 264.4211730957031 391.0262145996094 266.2358093261719 C 391.800537109375 267.92041015625 392.8127746582031 269.4850769042969 394.0318908691406 270.8819580078125 C 396.0105895996094 273.1507873535156 398.9614562988281 275.0452575683594 401.8831481933594 274.3240661621094 C 403.4610290527344 273.93701171875 404.7906494140625 272.820068359375 405.74090576171875 271.4992370605469 C 406.691162109375 270.1783752441406 407.3049011230469 268.64886474609375 407.8892517089844 267.1302490234375 C 408.4736022949219 265.6116638183594 409.0152587890625 264.1069641113281 408.9268493652344 262.52105712890625 L 407.9831237792969 261.932861328125" stroke-width="0.6000000238418579" fill="rgb(218, 166, 20)" opacity="1.0"/>
    <path d="M 416.8331298828125 87.186279296875 C 414.7901611328125 92.05123901367188 417.077880859375 97.65116882324219 421.94281005859375 99.69410705566406 C 422.359375 99.86904907226562 422.787841796875 100.01420593261719 423.2249755859375 100.12850952148438 C 424.8861083984375 100.56253051757812 426.7431640625 100.51663208007812 428.2164306640625 99.63681030273438 C 429.4615478515625 98.8934326171875 430.3125 97.64303588867188 430.993408203125 96.36380004882812 C 432.81146240234375 92.93708801269531 433.6788330078125 89.08609008789062 433.50537109375 85.2108154296875 C 433.4578857421875 84.18655395507812 433.327880859375 83.134765625 432.83038330078125 82.23568725585938 C 431.99609375 80.72578430175781 430.24957275390625 79.91145324707031 428.535888671875 79.70314025878906 C 425.99188232421875 79.39208984375 423.37872314453125 80.2259521484375 421.30926513671875 81.7388916015625 C 419.23980712890625 83.2518310546875 417.68634033203125 85.39959716796875 416.64013671875 87.73968505859375 L 416.8331298828125 87.186279296875" stroke-width="0.6000000238418579" fill="rgb(143, 165, 67)" opacity="1.0"/>
    <path d="M 442.58319091796875 129.1015625 C 439.8763427734375 134.8124542236328 445.864501953125 142.2732391357422 452.0723876953125 141.32931518554688 C 458.2802734375 140.3853759765625 461.83154296875 132.00758361816406 458.560791015625 126.59762573242188 C 455.2900390625 121.18765258789062 446.8328857421875 120.1580810546875 442.0411376953125 124.29083251953125 L 442.58319091796875 129.1015625" stroke-width="0.6000000238418579" fill="rgb(233, 92, 21)" opacity="1.0"/>
    <path d="M 446.9686279296875 94.30764770507812 C 446.125244140625 97.2513427734375 445.423095703125 100.85514831542969 447.61279296875 103.0106201171875 C 448.517578125 103.83450317382812 449.65570068359375 104.35733032226562 450.8702392578125 104.50692749023438 C 453.865234375 104.95797729492188 456.89306640625 103.92938232421875 458.99365234375 101.747314453125 C 460.77069091796875 99.89175415039062 461.65087890625 97.40087890625 462.44549560546875 94.97412109375 C 462.8896484375 93.61019897460938 463.31817626953125 92.14694213867188 462.93670654296875 90.77230834960938 C 462.4132080078125 88.94422912597656 460.6031494140625 87.8121337890625 458.858154296875 87.05816650390625 C 456.30560302734375 85.95156860351562 453.5908203125 85.265380859375 450.81903076171875 85.02627563476562 C 449.8612060546875 84.94549560546875 448.85333251953125 84.92518615722656 447.9859619140625 85.33865356445312 C 447.1990966796875 85.76434326171875 446.5531005859375 86.4097900390625 446.126708984375 87.1962890625 C 444.74053955078125 89.53173828125 444.44866943359375 92.35769653320312 445.3282470703125 94.92715454101562 L 446.9686279296875 94.30764770507812" stroke-width="0.6000000238418579" fill="rgb(70, 150, 179)" opacity="1.0"/>
    <path d="M 321.20733642578125 374.800537109375 C 317.9117126464844 375.4252014160156 314.28497314453125 376.2559509277344 312.349365234375 378.9928283691406 C 310.2718505859375 381.93408203125 310.99102783203125 386.13006591796875 312.97882080078125 389.1325988769531 C 313.7447509765625 390.29058837890625 314.7259826660156 391.3697509765625 316.0113525390625 391.8941650390625 C 317.06781005859375 392.3256530761719 318.2413330078125 392.35003662109375 319.3813781738281 392.3054504394531 C 322.9767150878906 392.1691589355469 326.8014831542969 391.2873840332031 329.22320556640625 388.6275329589844 C 331.66204833984375 385.94512939453125 332.1243896484375 381.6434020996094 330.2914733886719 378.5118103027344 C 328.4585876464844 375.38018798828125 324.50286865234375 373.6412353515625 320.9602355957031 374.4372863769531 L 321.20733642578125 374.800537109375" stroke-width="0.6000000238418579" fill="rgb(140, 28, 33)" opacity="1.0"/>
    <path d="M 307.1158752441406 397.26544189453125 C 303.8160095214844 398.3719787597656 300.39453125 399.55975341796875 297.8583679199219 401.9469909667969 C 295.322265625 404.3341979980469 293.9192810058594 408.31402587890625 295.51226806640625 411.4106140136719 C 297.4871520996094 415.2286376953125 303.2220153808594 415.7822265625 306.7557067871094 413.3209228515625 C 310.2893981933594 410.85968017578125 311.9027404785156 406.4092102050781 312.37677001953125 402.1344299316406 C 312.65606689453125 400.8258056640625 312.4347229003906 399.4601135253906 311.7563171386719 398.3067932128906 C 310.9725341796875 397.2491760253906 309.0743103027344 396.9835510253906 308.4104309082031 398.1278381347656 L 307.1158752441406 397.26544189453125" stroke-width="0.6000000238418579" fill="rgb(159, 159, 159)" opacity="1.0"/>
    <path d="M 321.0802001953125 413.5181884765625 C 317.69854736328125 414.55267333984375 314.59765625 416.76824951171875 312.9545593261719 419.8975830078125 C 311.31146240234375 423.02691650390625 311.31597900390625 427.08624267578125 313.3733825683594 429.978515625 C 314.8305969238281 432.02154541015625 317.1722106933594 433.3316650390625 319.6265869140625 433.8651123046875 C 322.0809631347656 434.3985595703125 324.6448974609375 434.212890625 327.1038513183594 433.69879150390625 C 328.1737976074219 433.4744873046875 329.2798767089844 433.16168212890625 330.0614318847656 432.4013671875 C 330.9578857421875 431.530029296875 331.2637939453125 430.23297119140625 331.47186279296875 428.9964599609375 C 332.0592346191406 425.5054931640625 332.13397216796875 421.79150390625 330.67486572265625 418.565673828125 C 329.21575927734375 415.33978271484375 325.90972900390625 412.7615966796875 322.3876953125 413.0230712890625 L 321.0802001953125 413.5181884765625" stroke-width="0.6000000238418579" fill="rgb(159, 159, 159)" opacity="1.0"/>
    <path d="M 271.69940185546875 415.7347412109375 C 269.0838317871094 417.9970703125 266.27447509765625 420.6251220703125 265.9908752441406 424.06494140625 C 265.7103576660156 427.4097900390625 267.9023742675781 430.407470703125 270.0267639160156 433.0081787109375 C 270.8913269042969 434.06341552734375 271.8126220703125 435.153564453125 273.0727844238281 435.674072265625 C 275.2035827636719 436.5556640625 277.64105224609375 435.5728759765625 279.56292724609375 434.3046875 C 281.34722900390625 433.12823486328125 282.9533386230469 431.70166015625 284.33209228515625 430.0687255859375 C 286.5718078613281 427.41796875 288.2152099609375 423.724853515625 286.8833312988281 420.521728515625 C 286.1668395996094 418.79144287109375 284.6620178222656 417.471435546875 282.9910888671875 416.61932373046875 C 281.3201599121094 415.7672119140625 279.47021484375 415.3349609375 277.6378479003906 414.93426513671875 C 275.8055114746094 414.5335693359375 273.9964294433594 414.1790771484375 272.204833984375 414.5567626953125 L 271.69940185546875 415.7347412109375" stroke-width="0.6000000238418579" fill="rgb(218, 166, 20)" opacity="1.0"/>
    <path d="M 223.425048828125 414.1121826171875 C 217.96817016601562 412.49365234375 212.23236083984375 415.605224609375 210.61376953125 421.0621337890625 C 210.47515869140625 421.5294189453125 210.36990356445312 422.005859375 210.29873657226562 422.488037109375 C 210.0286865234375 424.3203125 210.29623413085938 426.3062744140625 211.41290283203125 427.7825927734375 C 212.35647583007812 429.03033447265625 213.79730224609375 429.79571533203125 215.24908447265625 430.37548828125 C 219.1373291015625 431.9219970703125 223.3687744140625 432.3992919921875 227.50381469726562 431.75762939453125 C 228.5965576171875 431.586181640625 229.70907592773438 431.32318115234375 230.61468505859375 430.6839599609375 C 232.1356201171875 429.61175537109375 232.803466796875 427.64324951171875 232.82534790039062 425.78118896484375 C 232.8597412109375 423.01666259765625 231.6583251953125 420.3126220703125 229.79266357421875 418.271484375 C 227.927001953125 416.23028564453125 225.44125366210938 414.8170166015625 222.8089599609375 413.97039794921875 L 223.425048828125 414.1121826171875" stroke-width="0.6000000238418579" fill="rgb(143, 165, 67)" opacity="1.0"/>
    <path d="M 287.78228759765625 364.4903259277344 C 289.1208801269531 371.2709655761719 299.2396240234375 373.9295959472656 304.08062744140625 369.0592041015625 C 308.921630859375 364.1888122558594 306.58917236328125 354.51483154296875 300.193359375 351.8896484375 C 293.7975769042969 349.26446533203125 285.6953125 353.86468505859375 284.1745300292969 360.6155090332031 L 287.78228759765625 364.4903259277344" stroke-width="0.6000000238418579" fill="rgb(233, 92, 21)" opacity="1.0"/>
    <path d="M 332.64642333984375 360.2580261230469 C 332.96612548828125 363.6919250488281 333.7041931152344 367.7606201171875 336.8838195800781 369.1262512207031 C 338.17034912109375 369.6204528808594 339.5785217285156 369.7032775878906 340.9140930175781 369.3632507324219 C 344.24127197265625 368.61090087890625 346.9974060058594 366.2925109863281 348.3084716796875 363.1433410644531 C 349.4137878417969 360.4691162109375 349.3179626464844 357.49530029296875 349.1586608886719 354.623779296875 C 349.06658935546875 353.0108642578125 348.9173583984375 351.3001708984375 347.95458984375 350.013916015625 C 346.6572265625 348.3099670410156 344.2947082519531 347.8628234863281 342.1551208496094 347.78582763671875 C 339.0239562988281 347.66925048828125 335.89459228515625 348.06024169921875 332.88836669921875 348.9436340332031 C 331.8502502441406 349.2508544921875 330.7844543457031 349.6419677734375 330.0434875488281 350.4307556152344 C 329.3920593261719 351.1994323730469 328.9783630371094 352.14105224609375 328.85284423828125 353.14080810546875 C 328.3541259765625 356.1585998535156 329.2043151855469 359.24322509765625 331.1787414550781 361.579345703125 L 332.64642333984375 360.2580261230469" stroke-width="0.6000000238418579" fill="rgb(70, 150, 179)" opacity="1.0"/>
    <path d="M 296.9147033691406 417.3426513671875 C 293.2658996582031 417.8126220703125 289.2412414550781 418.48675537109375 286.9443664550781 421.3575439453125 C 284.47882080078125 424.44293212890625 284.9938049316406 429.0836181640625 286.9752197265625 432.5 C 287.7386169433594 433.8175048828125 288.74285888671875 435.06280517578125 290.1160888671875 435.72039794921875 C 291.2447814941406 436.2613525390625 292.52801513671875 436.3642578125 293.77911376953125 436.38946533203125 C 297.72430419921875 436.47369384765625 301.9691467285156 435.756591796875 304.7932434082031 433.0015869140625 C 307.6375732421875 430.22314453125 308.4230651855469 425.5433349609375 306.6195983886719 421.9957275390625 C 304.8161315917969 418.4481201171875 300.59808349609375 416.287353515625 296.6677551269531 416.928955078125 L 296.9147033691406 417.3426513671875" stroke-width="0.6000000238418579" fill="rgb(140, 28, 33)" opacity="1.0"/>
    <path d="M 334.9477233886719 389.2099914550781 C 331.4986877441406 389.65576171875 327.9147033691406 390.15765380859375 324.96636962890625 392.0067443847656 C 322.01806640625 393.8558349609375 319.8721618652344 397.4855041503906 320.8341369628906 400.8294677734375 C 322.03082275390625 404.95458984375 327.54541015625 406.6076354980469 331.4859619140625 404.87908935546875 C 335.426513671875 403.15057373046875 337.8697509765625 399.10028076171875 339.162109375 395.0015563964844 C 339.6893005371094 393.7728576660156 339.7367248535156 392.3912353515625 339.2950134277344 391.1293029785156 C 338.7314453125 389.9407653808594 336.922119140625 389.3128662109375 336.0497741699219 390.3060302734375 L 334.9477233886719 389.2099914550781" stroke-width="0.6000000238418579" fill="rgb(159, 159, 159)" opacity="1.0"/>
    <path d="M 346.809326171875 411.1461486816406 C 343.292236328125 411.3263244628906 339.7602844238281 412.7154541015625 337.4151916503906 415.34033203125 C 335.070068359375 417.9652099609375 334.0912780761719 421.88739013671875 335.37811279296875 425.1795654296875 C 336.2908935546875 427.5059814453125 338.2354736328125 429.338623046875 340.47711181640625 430.4483642578125 C 342.71875 431.55810546875 345.2403869628906 431.999755859375 347.7401428222656 432.0987548828125 C 348.8280029296875 432.14117431640625 349.97216796875 432.10693359375 350.9112854003906 431.561767578125 C 351.9882507324219 430.937255859375 352.597900390625 429.7584228515625 353.098388671875 428.6143798828125 C 354.51129150390625 425.384521484375 355.4830322265625 421.8150634765625 354.8548889160156 418.3455810546875 C 354.22674560546875 414.87615966796875 351.65771484375 411.58502197265625 348.1922302246094 410.98455810546875 L 346.809326171875 411.1461486816406" stroke-width="0.6000000238418579" fill="rgb(159, 159, 159)" opacity="1.0"/>
    <path d="M 255.4609375 368.2821960449219 C 256.16143798828125 364.79388427734375 256.7889404296875 360.8861083984375 254.85107421875 357.9104919433594 C 252.9705810546875 355.0140075683594 249.298583984375 353.95855712890625 245.9317626953125 353.18316650390625 C 244.5635986328125 352.8702087402344 243.1273193359375 352.5646057128906 241.77456665039062 352.935791015625 C 239.486328125 353.562255859375 238.12399291992188 355.89788818359375 237.36083984375 358.1405944824219 C 236.6517333984375 360.2219543457031 236.2451171875 362.3943176269531 236.15350341796875 364.59124755859375 C 236.00347900390625 368.15838623046875 236.99539184570312 372.1971435546875 240.0975341796875 373.9619140625 C 241.77090454101562 374.9171142578125 243.8265380859375 375.0417175292969 245.72232055664062 374.68121337890625 C 247.61810302734375 374.3207092285156 249.39471435546875 373.5059814453125 251.13714599609375 372.6766357421875 C 252.87960815429688 371.8473205566406 254.573974609375 370.9950866699219 255.7926025390625 369.55859375 L 255.4609375 368.2821960449219" stroke-width="0.6000000238418579" fill="rgb(218, 166, 20)" opacity="1.0"/>
    <path d="M 252.50247192382812 390.2696838378906 C 249.83184814453125 384.9638671875 243.36569213867188 382.8276062011719 238.05987548828125 385.49822998046875 C 237.60552978515625 385.7268981933594 237.16799926757812 385.987548828125 236.75054931640625 386.27813720703125 C 235.16448974609375 387.3826904296875 233.845947265625 389.0058898925781 233.52182006835938 390.9103088378906 C 233.24777221679688 392.5196533203125 233.69595336914062 394.1622314453125 234.2930908203125 395.68048095703125 C 235.89700317382812 399.7421875 238.55923461914062 403.3003845214844 242.00323486328125 405.9853820800781 C 242.91476440429688 406.6935729980469 243.91009521484375 407.35137939453125 245.04345703125 407.5829162597656 C 246.94595336914062 407.97271728515625 248.91998291015625 407.0731506347656 250.35125732421875 405.7585754394531 C 252.47760009765625 403.808349609375 253.67449951171875 400.9618225097656 253.892578125 398.0841979980469 C 254.110595703125 395.20654296875 253.40798950195312 392.306396484375 252.16983032226562 389.6999206542969 L 252.50247192382812 390.2696838378906" stroke-width="0.6000000238418579" fill="rgb(143, 165, 67)" opacity="1.0"/>
    <path d="M 202.54400634765625 370.5059814453125 C 200.89535522460938 377.1777038574219 208.891357421875 383.8324279785156 215.3026123046875 381.4830322265625 C 221.71383666992188 379.1335754394531 223.68524169921875 369.4371032714844 219.02886962890625 364.3797607421875 C 214.37249755859375 359.3224182128906 205.13717651367188 360.0555419921875 200.92523193359375 365.4966735839844 L 202.54400634765625 370.5059814453125" stroke-width="0.6000000238418579" fill="rgb(233, 92, 21)" opacity="1.0"/>
    <path d="M 267.4870910644531 368.308837890625 C 267.3726501464844 371.72552490234375 267.5903015136719 375.8187255859375 270.5465087890625 377.5586853027344 C 271.7499084472656 378.2053527832031 273.12432861328125 378.462646484375 274.4801330566406 378.2950744628906 C 277.845947265625 377.9707336425781 280.8457336425781 376.0351257324219 282.52825927734375 373.10205078125 C 283.9491271972656 370.6103515625 284.2262878417969 367.674072265625 284.4282531738281 364.8304138183594 C 284.53912353515625 363.23284912109375 284.60601806640625 361.5319519042969 283.81988525390625 360.1468811035156 C 282.75689697265625 358.30926513671875 280.4895324707031 357.5744934082031 278.3951416015625 357.2315979003906 C 275.3306579589844 356.7259216308594 272.2044982910156 356.7196044921875 269.1379699707031 357.212890625 C 268.0787658691406 357.3853454589844 266.9818420410156 357.6368713378906 266.15472412109375 358.32000732421875 C 265.4181213378906 358.9945373535156 264.8937072753906 359.86883544921875 264.64544677734375 360.8362731933594 C 263.77813720703125 363.7415771484375 264.2289733886719 366.8810729980469 265.8788146972656 369.4248962402344 L 267.4870910644531 368.308837890625" stroke-width="0.6000000238418579" fill="rgb(70, 150, 179)" opacity="1.0"/>
    <path d="M 326.5912780761719 364.34600830078125 C 327.5080261230469 360.73138427734375 328.37237548828125 356.68634033203125 326.5221862792969 353.4513854980469 C 324.5325927734375 349.9775085449219 319.9661560058594 348.7335510253906 316.0073547363281 349.32818603515625 C 314.48089599609375 349.5567932128906 312.9328308105469 350.0393981933594 311.80120849609375 351.08880615234375 C 310.8706359863281 351.9511413574219 310.2954406738281 353.1224365234375 309.8054504394531 354.2923583984375 C 308.2558898925781 357.97991943359375 307.35003662109375 362.2485046386719 308.89453125 365.937255859375 C 310.4537048339844 369.6539001464844 314.57232666015625 372.13824462890625 318.58856201171875 371.76025390625 C 322.6047668457031 371.3822937011719 326.21343994140625 368.2113952636719 327.07330322265625 364.26739501953125 L 326.5912780761719 364.34600830078125" stroke-width="0.6000000238418579" fill="rgb(140, 28, 33)" opacity="1.0"/>
    <path d="M 351.3556213378906 393.74835205078125 C 347.8763122558594 393.9776611328125 344.2584228515625 394.254638671875 341.1919250488281 395.9197082519531 C 338.12548828125 397.5847473144531 335.7500915527344 401.0819091796875 336.5025634765625 404.488525390625 C 337.4408264160156 408.69158935546875 342.8551330566406 410.6922607421875 346.9068908691406 409.2102355957031 C 350.95867919921875 407.7281799316406 353.6580505371094 403.8287658691406 355.2088317871094 399.8085632324219 C 355.8135681152344 398.6121826171875 355.9478454589844 397.2326354980469 355.5851745605469 395.9421081542969 C 355.0959167480469 394.7174072265625 353.3248596191406 393.9753723144531 352.3895263671875 394.91436767578125 L 351.3556213378906 393.74835205078125" stroke-width="0.6000000238418579" fill="rgb(159, 159, 159)" opacity="1.0"/>
    <path d="M 187.348876953125 409.1675720214844 C 183.96417236328125 409.78369140625 180.716796875 411.5729064941406 178.7744140625 414.4102783203125 C 176.83203125 417.2476806640625 176.37615966796875 421.17041015625 178.03619384765625 424.19830322265625 C 179.21258544921875 426.3375244140625 181.32659912109375 427.868896484375 183.63760375976562 428.66259765625 C 185.9486083984375 429.45623779296875 188.447021484375 429.5675048828125 190.8812255859375 429.349609375 C 191.94049072265625 429.25408935546875 193.04464721679688 429.0772705078125 193.88601684570312 428.4312744140625 C 194.8509521484375 427.6910400390625 195.29360961914062 426.472412109375 195.63482666015625 425.30120849609375 C 196.59814453125 421.9947509765625 197.0914306640625 418.4146728515625 196.04730224609375 415.13232421875 C 195.003173828125 411.8499450683594 192.10110473632812 408.9840393066406 188.66836547851562 408.83740234375 L 187.348876953125 409.1675720214844" stroke-width="0.6000000238418579" fill="rgb(159, 159, 159)" opacity="1.0"/>
    <path d="M 357.8492431640625 374.39532470703125 C 354.4053039550781 375.307861328125 350.61669921875 376.47137451171875 348.7996520996094 379.52789306640625 C 347.0283508300781 382.49786376953125 347.703125 386.2637634277344 348.49462890625 389.6316223144531 C 348.81817626953125 390.9992980957031 349.178466796875 392.4249267578125 350.1099548339844 393.476318359375 C 351.6842956542969 395.25543212890625 354.3851013183594 395.44708251953125 356.737548828125 395.1414489746094 C 358.9211120605469 394.8586120605469 361.0527648925781 394.2637023925781 363.0672607421875 393.3749084472656 C 366.3387145996094 391.9329528808594 369.5291442871094 389.2564697265625 369.74359130859375 385.6890563964844 C 369.8622131347656 383.7632751464844 369.06549072265625 381.8611755371094 367.90362548828125 380.317138671875 C 366.74169921875 378.7731018066406 365.2243347167969 377.5368957519531 363.7089538574219 376.3378601074219 C 362.193603515625 375.1388244628906 360.67889404296875 373.99310302734375 358.8495178222656 373.5331115722656 L 357.8492431640625 374.39532470703125" stroke-width="0.6000000238418579" fill="rgb(218, 166, 20)" opacity="1.0"/>
    <path d="M 373.7452697753906 384.4906921386719 C 369.59710693359375 388.7991638183594 369.72705078125 395.6546630859375 374.0355224609375 399.8028259277344 C 374.4044494628906 400.1580505371094 374.7981262207031 400.48663330078125 375.21356201171875 400.7861328125 C 376.7923583984375 401.9238586425781 378.7745056152344 402.63433837890625 380.69171142578125 402.3063049316406 C 382.31195068359375 402.02923583984375 383.7225646972656 401.0550231933594 384.96533203125 399.9808654785156 C 388.2879333496094 397.1010437011719 390.7788391113281 393.38409423828125 392.1793212890625 389.21612548828125 C 392.54766845703125 388.11376953125 392.84014892578125 386.94866943359375 392.6816101074219 385.7947998046875 C 392.4165954589844 383.85748291015625 390.9029846191406 382.2827453613281 389.17633056640625 381.36212158203125 C 386.61383056640625 379.9935302734375 383.5102844238281 379.80712890625 380.7040100097656 380.5608825683594 C 377.89776611328125 381.31463623046875 375.3775634765625 382.9504699707031 373.31512451171875 384.9969177246094 L 373.7452697753906 384.4906921386719" stroke-width="0.6000000238418579" fill="rgb(143, 165, 67)" opacity="1.0"/>
    <path d="M 366.88238525390625 361.48919677734375 C 369.5514831542969 367.8603210449219 379.9919128417969 368.4363708496094 383.75628662109375 362.69769287109375 C 387.5206298828125 356.958984375 383.29876708984375 347.9539794921875 376.5103759765625 346.6648254394531 C 369.72198486328125 345.37567138671875 362.710205078125 351.503173828125 362.5735778808594 358.4179382324219 L 366.88238525390625 361.48919677734375" stroke-width="0.6000000238418579" fill="rgb(233, 92, 21)" opacity="1.0"/>
    <path d="M 398.8224182128906 363.9859313964844 C 398.78759765625 367.37274169921875 399.0972900390625 371.4219665527344 402.06536865234375 373.0774230957031 C 403.27215576171875 373.6902770996094 404.639404296875 373.9135437011719 405.97845458984375 373.71636962890625 C 409.3047790527344 373.3177490234375 412.2315673828125 371.33160400390625 413.83062744140625 368.3877868652344 C 415.1806640625 365.8871154785156 415.3876953125 362.972412109375 415.52239990234375 360.15118408203125 C 415.595458984375 358.5662536621094 415.6226806640625 356.8800354003906 414.8121337890625 355.52618408203125 C 413.717041015625 353.7304992675781 411.454345703125 353.05487060546875 409.37200927734375 352.76336669921875 C 406.3250732421875 352.33294677734375 403.2285461425781 352.3985595703125 400.2025146484375 352.9576110839844 C 399.1573486328125 353.1528015136719 398.07666015625 353.4271545410156 397.2731018066406 354.122802734375 C 396.55902099609375 354.8078308105469 396.0597229003906 355.6858825683594 395.8360290527344 356.6498107910156 C 395.0437927246094 359.5473937988281 395.5625 362.6466369628906 397.2550964355469 365.1283264160156 L 398.8224182128906 363.9859313964844" stroke-width="0.6000000238418579" fill="rgb(70, 150, 179)" opacity="1.0"/>
    <path d="M 388.2008361816406 414.664306640625 C 386.5791320800781 417.92108154296875 384.9183349609375 421.5989990234375 386.0132751464844 425.06610107421875 C 387.1917419433594 428.789794921875 391.28826904296875 430.92034912109375 395.185791015625 431.1722412109375 C 396.6884765625 431.26995849609375 398.2643127441406 431.1300048828125 399.560302734375 430.363525390625 C 400.62591552734375 429.73382568359375 401.4165954589844 428.73602294921875 402.1257629394531 427.721923828125 C 404.36590576171875 424.5264892578125 406.1125183105469 420.64404296875 405.40289306640625 416.8074951171875 C 404.6850280761719 412.94140625 401.2720031738281 409.7208251953125 397.36456298828125 409.2505187988281 C 393.4571228027344 408.7801818847656 389.360595703125 411.0570373535156 387.7249755859375 414.63958740234375 L 388.2008361816406 414.664306640625" stroke-width="0.6000000238418579" fill="rgb(140, 28, 33)" opacity="1.0"/>
    <path d="M 407.65777587890625 392.82196044921875 C 406.49603271484375 396.08636474609375 405.3231201171875 399.4960021972656 405.6337890625 402.94952392578125 C 405.9444885253906 406.40301513671875 408.1988525390625 409.9480285644531 411.60308837890625 410.6038818359375 C 415.80712890625 411.4040832519531 419.76568603515625 407.25311279296875 420.01019287109375 402.9728698730469 C 420.25469970703125 398.6925964355469 417.760986328125 394.69354248046875 414.70458984375 391.6947326660156 C 413.8514404296875 390.671630859375 412.6458740234375 390.0055236816406 411.3256530761719 389.8279113769531 C 410.0155944824219 389.7916564941406 408.64080810546875 391.11492919921875 409.1288757324219 392.3382263183594 L 407.65777587890625 392.82196044921875" stroke-width="0.6000000238418579" fill="rgb(159, 159, 159)" opacity="1.0"/>
    <path d="M 434.01025390625 368.6628112792969 C 434.6058349609375 372.1629943847656 436.4136962890625 375.5353698730469 439.318603515625 377.5735168457031 C 442.22357177734375 379.6116943359375 446.2662353515625 380.12872314453125 449.4105224609375 378.4516296386719 C 451.63214111328125 377.2630920410156 453.237548828125 375.0997314453125 454.083984375 372.7243347167969 C 454.9305419921875 370.3489074707031 455.07501220703125 367.77197265625 454.8790283203125 365.2574462890625 C 454.7930908203125 364.1632080078125 454.623779296875 363.02166748046875 453.96710205078125 362.1457214355469 C 453.21466064453125 361.1411437988281 451.96240234375 360.6698913574219 450.7578125 360.3038330078125 C 447.357177734375 359.27044677734375 443.6685791015625 358.7188720703125 440.2689208984375 359.7573547363281 C 436.86932373046875 360.79583740234375 433.8773193359375 363.756591796875 433.68524169921875 367.2972412109375 L 434.01025390625 368.6628112792969" stroke-width="0.6000000238418579" fill="rgb(159, 159, 159)" opacity="1.0"/>
    <path d="M 422.589599609375 408.7601623535156 C 419.4151611328125 410.1153259277344 415.9454345703125 411.7591552734375 414.629638671875 414.9427490234375 C 413.34576416015625 418.037109375 414.51788330078125 421.5533447265625 415.74639892578125 424.671630859375 C 416.247314453125 425.937744140625 416.79156494140625 427.25421142578125 417.8311767578125 428.1322021484375 C 419.588623046875 429.6182861328125 422.20458984375 429.42535400390625 424.417236328125 428.80426025390625 C 426.47113037109375 428.22857666015625 428.4317626953125 427.3609619140625 430.239013671875 426.2279052734375 C 433.17425537109375 424.3892822265625 435.859619140625 421.37841796875 435.567626953125 417.928466796875 C 435.41278076171875 416.065673828125 434.38372802734375 414.353271484375 433.054443359375 413.03509521484375 C 431.7252197265625 411.7168884277344 430.09814453125 410.7433776855469 428.4781494140625 409.8052062988281 C 426.858154296875 408.8670654296875 425.2462158203125 407.97991943359375 423.4283447265625 407.7940673828125 L 422.589599609375 408.7601623535156" stroke-width="0.6000000238418579" fill="rgb(218, 166, 20)" opacity="1.0"/>
    <path d="M 142.6970977783203 227.1044921875 C 139.2025146484375 231.67242431640625 140.07264709472656 238.2083740234375 144.64056396484375 241.70294189453125 C 145.03170776367188 242.002197265625 145.443603515625 242.2733154296875 145.8731231689453 242.51425170898438 C 147.50538635253906 243.42950439453125 149.47654724121094 243.89266967773438 151.2726593017578 243.37060546875 C 152.79055786132812 242.92959594726562 154.03233337402344 241.84527587890625 155.1028594970703 240.68377685546875 C 157.964111328125 237.5706787109375 159.93960571289062 233.74822998046875 160.82415771484375 229.61355590820312 C 161.05615234375 228.520263671875 161.20880126953125 227.375244140625 160.93179321289062 226.28997802734375 C 160.4677734375 224.46780395507812 158.8502197265625 223.1279296875 157.10031127929688 222.43621826171875 C 154.5030517578125 221.40740966796875 151.51747131347656 221.5670166015625 148.91824340820312 222.592529296875 C 146.3190155029297 223.61807250976562 144.08908081054688 225.45526123046875 142.3411865234375 227.63497924804688 L 142.6970977783203 227.1044921875" stroke-width="0.6000000238418579" fill="rgb(143, 165, 67)" opacity="1.0"/>
    <path d="M 169.44329833984375 262.25250244140625 C 171.35812377929688 268.8008117675781 181.54132080078125 270.52117919921875 185.87078857421875 265.3053283691406 C 190.20022583007812 260.08941650390625 187.05279541015625 250.78424072265625 180.5328369140625 248.76800537109375 C 174.01287841796875 246.75177001953125 166.45321655273438 251.989990234375 165.55413818359375 258.761474609375 L 169.44329833984375 262.25250244140625" stroke-width="0.6000000238418579" fill="rgb(233, 92, 21)" opacity="1.0"/>
    <path d="M 153.8408966064453 314.0926208496094 C 152.1279296875 317.02197265625 150.3855743408203 320.6988525390625 152.1454315185547 323.6138000488281 C 152.8909149169922 324.7465515136719 153.96954345703125 325.6201171875 155.2325439453125 326.1138610839844 C 158.32461547851562 327.4196472167969 161.8577880859375 327.145751953125 164.711669921875 325.37896728515625 C 167.128662109375 323.8740539550781 168.75692749023438 321.4410095214844 170.2757568359375 319.0533447265625 C 171.12680053710938 317.710693359375 171.98822021484375 316.2571105957031 171.9556884765625 314.6765441894531 C 171.89505004882812 312.57012939453125 170.2620849609375 310.8581237792969 168.59521484375 309.5699157714844 C 166.1580810546875 307.6816101074219 163.431396484375 306.2002258300781 160.5208740234375 305.1832275390625 C 159.51458740234375 304.8337707519531 158.43801879882812 304.5355224609375 157.39324951171875 304.7415466308594 C 156.431640625 304.9827880859375 155.56097412109375 305.4986267089844 154.887451171875 306.2261657714844 C 152.758544921875 308.3535461425781 151.67002868652344 311.3077697753906 151.90968322753906 314.307861328125 L 153.8408966064453 314.0926208496094" stroke-width="0.6000000238418579" fill="rgb(70, 150, 179)" opacity="1.0"/>
    <path d="M 124.30183410644531 302.04803466796875 C 123.28970336914062 298.62359619140625 122.0240478515625 294.870361328125 118.91921997070312 293.11114501953125 C 115.58279418945312 291.2233581542969 111.21469116210938 292.43133544921875 108.24569702148438 294.8561706542969 C 107.10055541992188 295.7906188964844 106.06179809570312 296.94476318359375 105.64302062988281 298.3620300292969 C 105.29830932617188 299.5269470214844 105.39727783203125 300.7725830078125 105.56575012207031 301.9754333496094 C 106.09243774414062 305.7692565917969 107.43321228027344 309.72686767578125 110.50816345214844 312.0091552734375 C 113.60882568359375 314.3072509765625 118.21455383300781 314.3395080566406 121.33676147460938 312.06500244140625 C 124.45895385742188 309.79046630859375 125.88027954101562 305.4154968261719 124.66030883789062 301.7476806640625 L 124.30183410644531 302.04803466796875" stroke-width="0.6000000238418579" fill="rgb(140, 28, 33)" opacity="1.0"/>
    <path d="M 139.47032165527344 275.86016845703125 C 136.3114471435547 277.27099609375 133.04002380371094 278.77386474609375 130.75942993164062 281.3786926269531 C 128.4788818359375 283.9834899902344 127.47195434570312 288.055419921875 129.3446044921875 290.96661376953125 C 131.6642303466797 294.55499267578125 137.39126586914062 294.55340576171875 140.65171813964844 291.7798156738281 C 143.91217041015625 289.0061950683594 145.0821533203125 284.4484558105469 145.1417236328125 280.1736145019531 C 145.29273986816406 278.8521423339844 144.9429168701172 277.5221252441406 144.16127014160156 276.4460144042969 C 143.28448486328125 275.4747009277344 141.38099670410156 275.3937072753906 140.833740234375 276.58941650390625 L 139.47032165527344 275.86016845703125" stroke-width="0.6000000238418579" fill="rgb(159, 159, 159)" opacity="1.0"/>
    <path d="M 159.53912353515625 293.8941345214844 C 157.8460693359375 296.93115234375 157.1566162109375 300.6144104003906 158.123291015625 303.9524841308594 C 159.0899658203125 307.29058837890625 161.85833740234375 310.1657409667969 165.28732299804688 310.81500244140625 C 167.71224975585938 311.27093505859375 170.2650146484375 310.60479736328125 172.36859130859375 309.3111267089844 C 174.47222900390625 308.0174255371094 176.1636962890625 306.1392517089844 177.5570068359375 304.0997314453125 C 178.162841796875 303.2118225097656 178.7340087890625 302.2366027832031 178.770263671875 301.16510009765625 C 178.81234741210938 299.9366760253906 178.14569091796875 298.80859375 177.45089721679688 297.79010009765625 C 175.48931884765625 294.91473388671875 173.01239013671875 292.23046875 169.7803955078125 290.9371337890625 C 166.54840087890625 289.643798828125 162.44805908203125 290.06781005859375 160.12890625 292.65240478515625 L 159.53912353515625 293.8941345214844" stroke-width="0.6000000238418579" fill="rgb(159, 159, 159)" opacity="1.0"/>
    <path d="M 124.17361450195312 344.958984375 C 123.56733703613281 341.5710144042969 122.74667358398438 337.8313903808594 119.94755554199219 335.84027099609375 C 117.2281494140625 333.9000549316406 113.54899597167969 334.251953125 110.24386596679688 334.7477111816406 C 108.9014892578125 334.9510803222656 107.50041198730469 335.18524169921875 106.41450500488281 335.9989318847656 C 104.57708740234375 337.3740234375 104.17901611328125 339.9591979980469 104.28727722167969 342.248291015625 C 104.38693237304688 344.37298583984375 104.79118347167969 346.47235107421875 105.48760986328125 348.4821472167969 C 106.61724853515625 351.74591064453125 108.94187927246094 355.0292663574219 112.359619140625 355.517822265625 C 114.204345703125 355.7842712402344 116.09867858886719 355.1676025390625 117.67713928222656 354.1710205078125 C 119.25559997558594 353.1744384765625 120.56578063964844 351.811279296875 121.84002685546875 350.44708251953125 C 123.1142578125 349.0829162597656 124.33711242675781 347.71514892578125 124.92465209960938 345.990234375 L 124.17361450195312 344.958984375" stroke-width="0.6000000238418579" fill="rgb(218, 166, 20)" opacity="1.0"/>
    <path d="M 166.57394409179688 349.6856384277344 C 162.26708984375 353.3573913574219 161.75222778320312 359.8253173828125 165.42398071289062 364.1321716308594 C 165.7384033203125 364.5009765625 166.07855224609375 364.84698486328125 166.44195556640625 365.16766357421875 C 167.82293701171875 366.3858337402344 169.62350463867188 367.2391357421875 171.45947265625 367.1084289550781 C 173.010986328125 366.99810791015625 174.429931640625 366.2118225097656 175.70010375976562 365.3157958984375 C 179.09674072265625 362.9126892089844 181.78793334960938 359.6439208984375 183.49420166015625 355.8490905761719 C 183.94354248046875 354.8452453613281 184.3272705078125 353.7752685546875 184.28521728515625 352.67388916015625 C 184.21575927734375 350.8248596191406 182.93670654296875 349.20123291015625 181.39630126953125 348.1737976074219 C 179.11038208007812 346.64678955078125 176.205078125 346.1827697753906 173.49234008789062 346.6317443847656 C 170.77960205078125 347.0807189941406 168.2542724609375 348.38690185546875 166.121826171875 350.12237548828125 L 166.57394409179688 349.6856384277344" stroke-width="0.6000000238418579" fill="rgb(143, 165, 67)" opacity="1.0"/>
    <path d="M 132.784912109375 378.2935485839844 C 130.0843963623047 371.95989990234375 119.67425537109375 371.4513854980469 115.95819091796875 377.19512939453125 C 112.24215698242188 382.9388732910156 116.50697326660156 391.8880920410156 123.28143310546875 393.1303405761719 C 130.05589294433594 394.37261962890625 137.00634765625 388.2209167480469 137.0990447998047 381.3277282714844 L 132.784912109375 378.2935485839844" stroke-width="0.6000000238418579" fill="rgb(233, 92, 21)" opacity="1.0"/>
    <path d="M 183.68194580078125 364.2338562011719 C 182.650146484375 367.3977966308594 181.74578857421875 371.2842102050781 184.03912353515625 373.7113952636719 C 184.9893798828125 374.64178466796875 186.20492553710938 375.25439453125 187.51809692382812 375.4646911621094 C 190.75320434570312 376.0724182128906 194.08218383789062 375.07440185546875 196.44940185546875 372.787109375 C 198.45245361328125 370.84173583984375 199.50640869140625 368.17108154296875 200.46493530273438 365.5666809082031 C 201.00103759765625 364.1028137207031 201.52395629882812 362.53045654296875 201.16375732421875 361.0224914550781 C 200.66717529296875 359.01641845703125 198.74581909179688 357.7156677246094 196.88021850585938 356.828125 C 194.1514892578125 355.52581787109375 191.22998046875 354.67376708984375 188.22900390625 354.30499267578125 C 187.19186401367188 354.1795654296875 186.09808349609375 354.11785888671875 185.13970947265625 354.53277587890625 C 184.26837158203125 354.96417236328125 183.5413818359375 355.6397705078125 183.04736328125 356.4772033691406 C 181.449951171875 358.95916748046875 181.02178955078125 362.01690673828125 181.8759765625 364.8421630859375 L 183.68194580078125 364.2338562011719" stroke-width="0.6000000238418579" fill="rgb(70, 150, 179)" opacity="1.0"/>
  </g>
</svg>
