<?xml version="1.0" ?>
<svg xmlns="http://www.w3.org/2000/svg" version="1.1" width="600" height="600">
  <defs/>
  <g>
    <path d="M 350.2016906738281 349.4586181640625 C 352.9249572753906 351.8910827636719 358.0374450683594 349.7901916503906 358.5276794433594 346.1955261230469 C 359.01788330078125 342.6008605957031 354.95440673828125 339.2650146484375 351.422119140625 340.19464111328125 C 347.8898620605469 341.124267578125 345.9386901855469 345.6434020996094 347.44696044921875 348.9737243652344 L 350.2016906738281 349.4586181640625" stroke-width="0.6000000238418579" fill="rgb(233, 92, 21)" opacity="1.0"/>
    <path d="M 103.06576538085938 203.71316528320312 C 103.90228271484375 202.6329345703125 104.78950500488281 201.25579833984375 104.23880004882812 200.00033569335938 C 104.00021362304688 199.50924682617188 103.6151123046875 199.10430908203125 103.1365966796875 198.84136962890625 C 101.97018432617188 198.15890502929688 100.54534912109375 198.08416748046875 99.31391906738281 198.64080810546875 C 98.27053833007812 199.11566162109375 97.49371337890625 200.00216674804688 96.76290893554688 200.87628173828125 C 96.35317993164062 201.36795043945312 95.93353271484375 201.90338134765625 95.86416625976562 202.53607177734375 C 95.77859497070312 203.38018798828125 96.34130859375 204.1488037109375 96.93966674804688 204.74993896484375 C 97.81425476074219 205.63079833984375 98.82565307617188 206.36431884765625 99.93463134765625 206.9219970703125 C 100.31817626953125 207.11395263671875 100.732421875 207.28912353515625 101.16026306152344 207.26132202148438 C 101.55674743652344 207.21511840820312 101.93122863769531 207.0545654296875 102.238037109375 206.7991943359375 C 103.19882202148438 206.060791015625 103.78733825683594 204.9381103515625 103.84799194335938 203.72784423828125 L 103.06576538085938 203.71316528320312" stroke-width="0.6000000238418579" fill="rgb(70, 150, 179)" opacity="1.0"/>
    <path d="M 455.50439453125 427.68927001953125 C 455.8870849609375 428.73297119140625 456.355224609375 429.873779296875 457.3548583984375 430.3583984375 C 458.4290771484375 430.8782958984375 459.7620849609375 430.4158935546875 460.6361083984375 429.6033935546875 C 460.97320556640625 429.29022216796875 461.27294921875 428.910888671875 461.374755859375 428.4622802734375 C 461.4586181640625 428.093505859375 461.40301513671875 427.70849609375 461.32666015625 427.338134765625 C 461.08740234375 426.16998291015625 460.5919189453125 424.9671630859375 459.591064453125 424.3194580078125 C 458.5819091796875 423.6673583984375 457.150390625 423.7491455078125 456.2257080078125 424.51806640625 C 455.3011474609375 425.2869873046875 454.94677734375 426.674560546875 455.39898681640625 427.78973388671875 L 455.50439453125 427.68927001953125" stroke-width="0.6000000238418579" fill="rgb(140, 28, 33)" opacity="1.0"/>
    <path d="M 89.92501831054688 203.026123046875 C 92.02793884277344 202.7713623046875 94.21333312988281 202.48309326171875 96.01811218261719 201.37115478515625 C 97.82286071777344 200.25921630859375 99.14755249023438 198.05886840820312 98.57785034179688 196.0174560546875 C 97.8690185546875 193.49908447265625 94.51820373535156 192.46542358398438 92.10968017578125 193.49908447265625 C 89.70114135742188 194.53277587890625 88.19331359863281 196.98788452148438 87.38623046875 199.47808837890625 C 87.05917358398438 200.223876953125 87.0235595703125 201.065185546875 87.28646850585938 201.83596801757812 C 87.62396240234375 202.5626220703125 88.72293090820312 202.953857421875 89.25909423828125 202.35317993164062 L 89.92501831054688 203.026123046875" stroke-width="0.6000000238418579" fill="rgb(159, 159, 159)" opacity="1.0"/>
    <path d="M 376.96026611328125 298.2498474121094 C 377.7802429199219 297.6485290527344 378.41204833984375 296.7531433105469 378.5615234375 295.7478942871094 C 378.7109680175781 294.7426452636719 378.32501220703125 293.6410827636719 377.4923400878906 293.0509033203125 C 376.90313720703125 292.6343994140625 376.1432800292969 292.50067138671875 375.4264221191406 292.5885009765625 C 374.7095947265625 292.6763000488281 374.0311279296875 292.9697265625 373.4123229980469 293.3423156738281 C 373.14312744140625 293.504638671875 372.8725280761719 293.6943664550781 372.732421875 293.974853515625 C 372.5716247558594 294.2963562011719 372.61151123046875 294.6774597167969 372.6722412109375 295.0328674316406 C 372.8436279296875 296.0362548828125 373.17535400390625 297.05157470703125 373.877197265625 297.78900146484375 C 374.5790710449219 298.52642822265625 375.72088623046875 298.9129943847656 376.6522521972656 298.5081787109375 L 376.96026611328125 298.2498474121094" stroke-width="0.6000000238418579" fill="rgb(159, 159, 159)" opacity="1.0"/>
    <path d="M 95.92401123046875 433.383544921875 C 96.14871215820312 432.2474365234375 96.34927368164062 430.97491455078125 95.7156982421875 430.0081787109375 C 95.10089111328125 429.0672607421875 93.90469360351562 428.7271728515625 92.80812072753906 428.47796630859375 C 92.36248779296875 428.37738037109375 91.89471435546875 428.279296875 91.45477294921875 428.4013671875 C 90.71055603027344 428.607421875 90.26934814453125 429.36895751953125 90.0230712890625 430.099609375 C 89.79421997070312 430.77777099609375 89.6639404296875 431.4852294921875 89.63619995117188 432.200439453125 C 89.59072875976562 433.361572265625 89.91738891601562 434.67523193359375 90.92877197265625 435.2467041015625 C 91.47433471679688 435.5560302734375 92.14353942871094 435.5946044921875 92.76025390625 435.47552490234375 C 93.376953125 435.35638427734375 93.9544677734375 435.0894775390625 94.52081298828125 434.81793212890625 C 95.08718872070312 434.54638671875 95.63787841796875 434.267333984375 96.03317260742188 433.79864501953125 L 95.92401123046875 433.383544921875" stroke-width="0.6000000238418579" fill="rgb(218, 166, 20)" opacity="1.0"/>
    <path d="M 100.93020629882812 139.41648864746094 C 102.98858642578125 139.8242950439453 104.98782348632812 138.4862518310547 105.3956298828125 136.42787170410156 C 105.43055725097656 136.25161743164062 105.45292663574219 136.07310485839844 105.46258544921875 135.8936767578125 C 105.49916076660156 135.21189880371094 105.3331298828125 134.49203491210938 104.872802734375 133.98822021484375 C 104.48385620117188 133.5624237060547 103.92880249023438 133.33067321777344 103.3760986328125 133.16741943359375 C 101.89599609375 132.7324981689453 100.32644653320312 132.70179748535156 98.83047485351562 133.07852172851562 C 98.43521118164062 133.17877197265625 98.03579711914062 133.3133087158203 97.72518920898438 133.57887268066406 C 97.20350646972656 134.02438354492188 97.02557373046875 134.769775390625 97.08113098144531 135.4540557861328 C 97.16290283203125 136.4700164794922 97.69625854492188 137.4215850830078 98.4508056640625 138.10714721679688 C 99.20533752441406 138.79270935058594 100.16604614257812 139.2266082763672 101.16122436523438 139.447509765625 L 100.93020629882812 139.41648864746094" stroke-width="0.6000000238418579" fill="rgb(143, 165, 67)" opacity="1.0"/>
    <path d="M 453.7738037109375 343.65557861328125 C 456.2923583984375 345.3999328613281 460.33251953125 343.1230163574219 460.3697509765625 340.0793151855469 C 460.406982421875 337.0356140136719 456.67919921875 334.6773681640625 453.833984375 335.8159484863281 C 450.98876953125 336.95452880859375 449.83050537109375 340.91876220703125 451.4300537109375 343.5361022949219 L 453.7738037109375 343.65557861328125" stroke-width="0.6000000238418579" fill="rgb(233, 92, 21)" opacity="1.0"/>
    <path d="M 103.95635986328125 214.93963623046875 C 105.06112670898438 213.975830078125 106.28085327148438 212.7099609375 105.96145629882812 211.27398681640625 C 105.81211853027344 210.70745849609375 105.49066162109375 210.20123291015625 105.04141235351562 209.82513427734375 C 103.95492553710938 208.86471557617188 102.4703369140625 208.490478515625 101.05839538574219 208.82110595703125 C 99.86138916015625 209.10464477539062 98.85964965820312 209.87686157226562 97.908935546875 210.64556884765625 C 97.37559509277344 211.0782470703125 96.82272338867188 211.55490112304688 96.61843872070312 212.2066650390625 C 96.353271484375 213.07760620117188 96.78631591796875 214.0035400390625 97.29158020019531 214.76052856445312 C 98.0296630859375 215.86932373046875 98.94235229492188 216.85137939453125 99.99424743652344 217.66854858398438 C 100.35824584960938 217.9501953125 100.75804138183594 218.22052001953125 101.21424865722656 218.27999877929688 C 101.64126586914062 218.3135986328125 102.06881713867188 218.22222900390625 102.44480895996094 218.01699829101562 C 103.6094970703125 217.43890380859375 104.46197509765625 216.37896728515625 104.77685546875 215.11737060546875 L 103.95635986328125 214.93963623046875" stroke-width="0.6000000238418579" fill="rgb(70, 150, 179)" opacity="1.0"/>
    <path d="M 101.88270568847656 81.73077392578125 C 102.12698364257812 83.24099731445312 102.46116638183594 84.90472412109375 103.6851806640625 85.82084655761719 C 105.0006103515625 86.80418395996094 106.92251586914062 86.52789306640625 108.31585693359375 85.65850830078125 C 108.85322570800781 85.32354736328125 109.3572998046875 84.88943481445312 109.61219787597656 84.30987548828125 C 109.82191467285156 83.83349609375 109.84745788574219 83.29876708984375 109.84114074707031 82.7784423828125 C 109.82321166992188 81.1375732421875 109.46820068359375 79.3829345703125 108.2852783203125 78.24612426757812 C 107.09228515625 77.10122680664062 105.13671875 76.83755493164062 103.68643188476562 77.63471984863281 C 102.23611450195312 78.431884765625 101.3946533203125 80.21401977539062 101.71405029296875 81.83895874023438 L 101.88270568847656 81.73077392578125" stroke-width="0.6000000238418579" fill="rgb(140, 28, 33)" opacity="1.0"/>
    <path d="M 90.6495361328125 421.375 C 92.82331848144531 420.9287109375 95.08035278320312 420.4403076171875 96.86932373046875 419.12451171875 C 98.65829467773438 417.808837890625 99.8526611328125 415.3978271484375 99.08279418945312 413.3153076171875 C 98.126708984375 410.7466735839844 94.53952026367188 409.954833984375 92.11344909667969 411.2406311035156 C 89.6873779296875 412.5264892578125 88.32363891601562 415.2191162109375 87.69453430175781 417.8883056640625 C 87.41702270507812 418.695068359375 87.45199584960938 419.5765380859375 87.79258728027344 420.35870361328125 C 88.207275390625 421.08843994140625 89.38825988769531 421.4027099609375 89.89654541015625 420.72955322265625 L 90.6495361328125 421.375" stroke-width="0.6000000238418579" fill="rgb(159, 159, 159)" opacity="1.0"/>
    <path d="M 468.6636962890625 59.36579895019531 C 469.55767822265625 58.19413757324219 470.0697021484375 56.69065856933594 469.8660888671875 55.2318115234375 C 469.6624755859375 53.77294921875 468.67498779296875 52.39933776855469 467.2757568359375 51.9195556640625 C 466.2860107421875 51.58160400390625 465.1748046875 51.70664978027344 464.214111328125 52.12213134765625 C 463.2532958984375 52.53759765625 462.43011474609375 53.22322082519531 461.72222900390625 53.99455261230469 C 461.4144287109375 54.33039855957031 461.11578369140625 54.7049560546875 461.0357666015625 55.15228271484375 C 460.94378662109375 55.665069580078125 461.1552734375 56.17864990234375 461.3851318359375 56.64794921875 C 462.0340576171875 57.97285461425781 462.91082763671875 59.24876403808594 464.1884765625 59.98683166503906 C 465.46612548828125 60.72489929199219 467.2119140625 60.7950439453125 468.3411865234375 59.851043701171875 L 468.6636962890625 59.36579895019531" stroke-width="0.6000000238418579" fill="rgb(159, 159, 159)" opacity="1.0"/>
    <path d="M 92.18637084960938 106.66574096679688 C 93.37149047851562 107.03814697265625 94.7049560546875 107.4007568359375 95.809814453125 106.83819580078125 C 96.88505554199219 106.29263305664062 97.38751220703125 105.056884765625 97.78143310546875 103.91671752929688 C 97.94076538085938 103.45330810546875 98.10006713867188 102.96597290039062 98.02130126953125 102.48258972167969 C 97.88858032226562 101.66494750976562 97.12815856933594 101.10546875 96.3778076171875 100.7574462890625 C 95.68147277832031 100.43414306640625 94.94232177734375 100.2125244140625 94.18299865722656 100.09933471679688 C 92.95011901855469 99.91510009765625 91.51119995117188 100.10986328125 90.78359985351562 101.12149047851562 C 90.38998413085938 101.66706848144531 90.27059936523438 102.37612915039062 90.32553100585938 103.04765319824219 C 90.38046264648438 103.71917724609375 90.59750366210938 104.36618041992188 90.82089233398438 105.0018310546875 C 91.04426574707031 105.63748168945312 91.27737426757812 106.25730895996094 91.73095703125 106.73361206054688 L 92.18637084960938 106.66574096679688" stroke-width="0.6000000238418579" fill="rgb(218, 166, 20)" opacity="1.0"/>
    <path d="M 120.37113952636719 127.11749267578125 C 122.5023193359375 126.29341125488281 123.56195068359375 123.89768981933594 122.73788452148438 121.76651000976562 C 122.66731262207031 121.58401489257812 122.58389282226562 121.40675354003906 122.48823547363281 121.23605346679688 C 122.12466430664062 120.58755493164062 121.55252075195312 120.02203369140625 120.83551025390625 119.82675170898438 C 120.2296142578125 119.66165161132812 119.58399963378906 119.77183532714844 118.98040771484375 119.94367980957031 C 117.36541748046875 120.4058837890625 115.90362548828125 121.29209899902344 114.74688720703125 122.51025390625 C 114.44168090820312 122.832763671875 114.15261840820312 123.18922424316406 114.0216064453125 123.61447143554688 C 113.80123901367188 124.32827758789062 114.07183837890625 125.11767578125 114.52162170410156 125.71479797363281 C 115.18875122070312 126.60177612304688 116.23381042480469 127.16644287109375 117.32736206054688 127.35751342773438 C 118.42092895507812 127.548583984375 119.55752563476562 127.38801574707031 120.60171508789062 127.01144409179688 L 120.37113952636719 127.11749267578125" stroke-width="0.6000000238418579" fill="rgb(143, 165, 67)" opacity="1.0"/>
    <path d="M 391.3061218261719 303.99285888671875 C 393.1844482421875 306.40643310546875 397.7127685546875 305.4437255859375 398.656982421875 302.55548095703125 C 399.6011657714844 299.6672058105469 396.7542724609375 296.3078308105469 393.70404052734375 296.54296875 C 390.65380859375 296.778076171875 388.36688232421875 300.20849609375 389.1091613769531 303.1792907714844 L 391.3061218261719 303.99285888671875" stroke-width="0.6000000238418579" fill="rgb(233, 92, 21)" opacity="1.0"/>
    <path d="M 122.87429809570312 113.18379211425781 C 123.80776977539062 112.213134765625 124.8221435546875 110.95686340332031 124.41452026367188 109.66854858398438 C 124.23236083984375 109.16217041015625 123.89755249023438 108.72479248046875 123.45628356933594 108.416748046875 C 122.38497924804688 107.62521362304688 120.9964599609375 107.40203857421875 119.73106384277344 107.81800842285156 C 118.6585693359375 108.17361450195312 117.80398559570312 108.960693359375 116.99581909179688 109.74041748046875 C 116.54254150390625 110.17916870117188 116.07493591308594 110.65975952148438 115.94038391113281 111.27253723144531 C 115.76773071289062 112.09078979492188 116.23834228515625 112.90322875976562 116.761474609375 113.55531311035156 C 117.52592468261719 114.5106201171875 118.43994140625 115.33587646484375 119.46810913085938 115.99909973144531 C 119.82379150390625 116.22756958007812 120.21133422851562 116.44282531738281 120.633544921875 116.46058654785156 C 121.0269775390625 116.45703125 121.41085815429688 116.33905029296875 121.7384033203125 116.12107849121094 C 122.7576904296875 115.49853515625 123.45257568359375 114.46017456054688 123.63934326171875 113.28050231933594 L 122.87429809570312 113.18379211425781" stroke-width="0.6000000238418579" fill="rgb(70, 150, 179)" opacity="1.0"/>
    <path d="M 427.131591796875 70.07546997070312 C 427.696044921875 71.20062255859375 428.368896484375 72.424072265625 429.5557861328125 72.84112548828125 C 430.8309326171875 73.28836059570312 432.2713623046875 72.59721374511719 433.1505126953125 71.57096862792969 C 433.4896240234375 71.17543029785156 433.7781982421875 70.71029663085938 433.835205078125 70.19247436523438 C 433.88232421875 69.76679992675781 433.7703857421875 69.34075927734375 433.6370849609375 68.93389892578125 C 433.218017578125 67.65036010742188 432.50634765625 66.36067199707031 431.29736328125 65.76025390625 C 430.078369140625 65.15597534179688 428.478271484375 65.43157958984375 427.53662109375 66.41522216796875 C 426.594970703125 67.39883422851562 426.374267578125 69.00534057617188 427.02593994140625 70.20199584960938 L 427.131591796875 70.07546997070312" stroke-width="0.6000000238418579" fill="rgb(140, 28, 33)" opacity="1.0"/>
    <path d="M 113.28440856933594 415.8057861328125 C 114.38113403320312 413.9769287109375 115.502197265625 412.061767578125 115.7333984375 409.9402770996094 C 115.964599609375 407.8188171386719 115.03407287597656 405.406494140625 113.05949401855469 404.5980529785156 C 110.61984252929688 403.6055908203125 107.72805786132812 405.6303405761719 107.0616455078125 408.1833801269531 C 106.39523315429688 410.7364196777344 107.41510009765625 413.45166015625 108.89578247070312 415.6317138671875 C 109.28651428222656 416.3524169921875 109.9332275390625 416.9005126953125 110.70828247070312 417.167724609375 C 111.49435424804688 417.348388671875 112.48431396484375 416.71661376953125 112.33811950683594 415.9193115234375 L 113.28440856933594 415.8057861328125" stroke-width="0.6000000238418579" fill="rgb(159, 159, 159)" opacity="1.0"/>
    <path d="M 454.08258056640625 432.5125732421875 C 454.61407470703125 431.25927734375 454.72772216796875 429.7965087890625 454.211181640625 428.5377197265625 C 453.6947021484375 427.27886962890625 452.4962158203125 426.27593994140625 451.1341552734375 426.167236328125 C 450.1710205078125 426.0916748046875 449.205322265625 426.45819091796875 448.4407958984375 427.0501708984375 C 447.67626953125 427.64208984375 447.0966796875 428.4443359375 446.6400146484375 429.2967529296875 C 446.4415283203125 429.6678466796875 446.2601318359375 430.0714111328125 446.291015625 430.4901123046875 C 446.32623291015625 430.97003173828125 446.63311767578125 431.38116455078125 446.9464111328125 431.7484130859375 C 447.83074951171875 432.78533935546875 448.90771484375 433.7261962890625 450.22015380859375 434.0938720703125 C 451.5325927734375 434.4615478515625 453.1109619140625 434.124267578125 453.9051513671875 433.020751953125 L 454.08258056640625 432.5125732421875" stroke-width="0.6000000238418579" fill="rgb(159, 159, 159)" opacity="1.0"/>
    <path d="M 450.71881103515625 285.606201171875 C 451.523681640625 284.5648498535156 452.373291015625 283.3724670410156 452.21942138671875 282.06793212890625 C 452.07159423828125 280.7990417480469 451.027587890625 279.8463134765625 450.03887939453125 279.0365295410156 C 449.63671875 278.7081604003906 449.21075439453125 278.37103271484375 448.701416015625 278.2720031738281 C 447.8399658203125 278.10400390625 447.00494384765625 278.6545715332031 446.3837890625 279.2727355957031 C 445.8070068359375 279.84625244140625 445.3155517578125 280.4996337890625 444.92449951171875 281.2128601074219 C 444.28912353515625 282.3706970214844 443.954833984375 283.87237548828125 444.6934814453125 284.9666748046875 C 445.09136962890625 285.55804443359375 445.7523193359375 285.93682861328125 446.43994140625 286.1285705566406 C 447.1275634765625 286.3203125 447.85028076171875 286.3419189453125 448.5640869140625 286.3530578613281 C 449.27783203125 286.3642272949219 449.9793701171875 286.3598937988281 450.61920166015625 286.0837707519531 L 450.71881103515625 285.606201171875" stroke-width="0.6000000238418579" fill="rgb(218, 166, 20)" opacity="1.0"/>
    <path d="M 416.093017578125 361.57855224609375 C 417.96405029296875 363.36346435546875 420.9278564453125 363.29364013671875 422.7127685546875 361.4225769042969 C 422.8656005859375 361.2623596191406 423.00689697265625 361.09149169921875 423.13555908203125 360.9112854003906 C 423.62432861328125 360.2264099121094 423.92755126953125 359.3680114746094 423.7818603515625 358.53973388671875 C 423.65887451171875 357.8397521972656 423.23486328125 357.2318115234375 422.7679443359375 356.6966247558594 C 421.5162353515625 355.2657775878906 419.9041748046875 354.19622802734375 418.099365234375 353.5989990234375 C 417.6220703125 353.44195556640625 417.11767578125 353.31781005859375 416.619140625 353.3886413574219 C 415.78204345703125 353.507080078125 415.10418701171875 354.1646423339844 414.7095947265625 354.91302490234375 C 414.12298583984375 356.023681640625 414.048583984375 357.3658752441406 414.3800048828125 358.57769775390625 C 414.7115478515625 359.78948974609375 415.423828125 360.8758850097656 416.312744140625 361.7635192871094 L 416.093017578125 361.57855224609375" stroke-width="0.6000000238418579" fill="rgb(143, 165, 67)" opacity="1.0"/>
    <path d="M 451.453125 355.9335021972656 C 452.81182861328125 353.58856201171875 450.5164794921875 350.1884460449219 447.830078125 350.3724060058594 C 445.1436767578125 350.5563659667969 443.329833984375 354.01116943359375 444.536376953125 356.4388122558594 C 445.74298095703125 358.8664245605469 449.32086181640625 359.6053771972656 451.5147705078125 358.0085754394531 L 451.453125 355.9335021972656" stroke-width="0.6000000238418579" fill="rgb(233, 92, 21)" opacity="1.0"/>
    <path d="M 453.1920166015625 79.53866577148438 C 453.9736328125 78.66659545898438 454.8167724609375 77.5438232421875 454.4232177734375 76.4366455078125 C 454.24945068359375 76.00212097167969 453.94512939453125 75.63223266601562 453.55224609375 75.37799072265625 C 452.5970458984375 74.72282409667969 451.38348388671875 74.57127380371094 450.2965087890625 74.97140502929688 C 449.375244140625 75.31320190429688 448.6566162109375 76.0233154296875 447.97802734375 76.72564697265625 C 447.5975341796875 77.12078857421875 447.205810546875 77.552734375 447.10760498046875 78.08938598632812 C 446.9825439453125 78.8057861328125 447.4163818359375 79.49746704101562 447.890869140625 80.0482177734375 C 448.58447265625 80.85508728027344 449.40399169921875 81.54437255859375 450.3177490234375 82.08937072753906 C 450.63385009765625 82.27706909179688 450.97723388671875 82.45230102539062 451.3447265625 82.45484924316406 C 451.6865234375 82.43972778320312 452.01654052734375 82.32550048828125 452.2945556640625 82.12605285644531 C 453.161376953125 81.55389404296875 453.7335205078125 80.63026428222656 453.85986328125 79.59933471679688 L 453.1920166015625 79.53866577148438" stroke-width="0.6000000238418579" fill="rgb(70, 150, 179)" opacity="1.0"/>
    <path d="M 450.4952392578125 389.4061584472656 C 450.680908203125 388.97869873046875 450.8687744140625 388.4971008300781 450.7054443359375 388.0609436035156 C 450.52978515625 387.5924987792969 449.99151611328125 387.3473815917969 449.49127197265625 387.34124755859375 C 449.29840087890625 387.33880615234375 449.0977783203125 387.36724853515625 448.9371337890625 387.4739685058594 C 448.80499267578125 387.5616455078125 448.7105712890625 387.694580078125 448.6265869140625 387.82904052734375 C 448.3614501953125 388.2528076171875 448.16400146484375 388.7611389160156 448.28045654296875 389.24713134765625 C 448.398193359375 389.73687744140625 448.8563232421875 390.1260070800781 449.3592529296875 390.1600341796875 C 449.8623046875 390.19403076171875 450.37109375 389.8753662109375 450.5562744140625 389.4061279296875 L 450.4952392578125 389.4061584472656" stroke-width="0.6000000238418579" fill="rgb(140, 28, 33)" opacity="1.0"/>
    <path d="M 125.45370483398438 217.0255126953125 C 122.61141967773438 218.08724975585938 119.66555786132812 219.223388671875 117.52655029296875 221.37835693359375 C 115.38760375976562 223.5333251953125 114.28298950195312 227.04229736328125 115.76254272460938 229.693115234375 C 117.59620666503906 232.961181640625 122.60916137695312 233.27374267578125 125.61508178710938 231.02474975585938 C 128.6210174560547 228.7757568359375 129.89495849609375 224.8504638671875 130.18142700195312 221.11196899414062 C 130.3860626220703 219.96356201171875 130.15277099609375 218.78024291992188 129.527587890625 217.79547119140625 C 128.81338500976562 216.897216796875 127.15170288085938 216.72195434570312 126.60714721679688 217.73858642578125 L 125.45370483398438 217.0255126953125" stroke-width="0.6000000238418579" fill="rgb(159, 159, 159)" opacity="1.0"/>
    <path d="M 110.69802856445312 224.85333251953125 C 108.55313110351562 222.90936279296875 105.69546508789062 221.65792846679688 102.80647277832031 221.81451416015625 C 99.91748046875 221.97109985351562 97.0653076171875 223.67593383789062 95.89425659179688 226.3349609375 C 95.06866455078125 228.2159423828125 95.12913513183594 230.4114990234375 95.78297424316406 232.36077880859375 C 96.43681335449219 234.31002807617188 97.64218139648438 236.03488159179688 99.03439331054688 237.5482177734375 C 99.64065551757812 238.20645141601562 100.32421875 238.85302734375 101.18643188476562 239.08380126953125 C 102.17483520507812 239.34881591796875 103.21505737304688 239.0201416015625 104.17166137695312 238.64810180664062 C 106.87237548828125 237.59765625 109.51495361328125 236.09329223632812 111.17135620117188 233.71511840820312 C 112.8277587890625 231.33694458007812 113.25454711914062 227.93173217773438 111.59426879882812 225.5650634765625 L 110.69802856445312 224.85333251953125" stroke-width="0.6000000238418579" fill="rgb(159, 159, 159)" opacity="1.0"/>
    <path d="M 304.4366760253906 104.14405822753906 C 303.5227966308594 106.83470153808594 302.62353515625 109.86508178710938 303.85198974609375 112.4212646484375 C 305.0431823730469 114.90884399414062 307.8427429199219 116.12278747558594 310.429443359375 117.08349609375 C 311.4808044433594 117.47221374511719 312.5869140625 117.86212158203125 313.69647216796875 117.70738220214844 C 315.5732727050781 117.44677734375 316.8926696777344 115.73719787597656 317.72796630859375 114.03952026367188 C 318.50384521484375 112.464111328125 319.04949951171875 110.78543090820312 319.3482360839844 109.05490112304688 C 319.83428955078125 106.24516296386719 319.4644470214844 102.94435119628906 317.189208984375 101.227294921875 C 315.9622497558594 100.29850769042969 314.3470153808594 99.98822021484375 312.8084411621094 100.07856750488281 C 311.2698669433594 100.16893005371094 309.7789001464844 100.63130187988281 308.3135070800781 101.1087646484375 C 306.8481140136719 101.58621215820312 305.4184265136719 102.08674621582031 304.3053894042969 103.0989990234375 L 304.4366760253906 104.14405822753906" stroke-width="0.6000000238418579" fill="rgb(218, 166, 20)" opacity="1.0"/>
    <path d="M 218.43038940429688 125.63815307617188 C 215.24301147460938 122.26467895507812 209.92440795898438 122.11383056640625 206.55093383789062 125.30119323730469 C 206.2620849609375 125.57412719726562 205.992919921875 125.86721801757812 205.74554443359375 126.17823791503906 C 204.80569458007812 127.36024475097656 204.1822509765625 128.87057495117188 204.36614990234375 130.3686981201172 C 204.521484375 131.63473510742188 205.22482299804688 132.76390075683594 206.0118408203125 133.76661682128906 C 208.12213134765625 136.44773864746094 210.91180419921875 138.51490783691406 214.09109497070312 139.75340270996094 C 214.9320068359375 140.07936096191406 215.82440185546875 140.3488311767578 216.724609375 140.26829528808594 C 218.23602294921875 140.1339874267578 219.51214599609375 139.01852416992188 220.28912353515625 137.7139434814453 C 221.4439697265625 135.7779083251953 221.702392578125 133.37911987304688 221.22109985351562 131.17626953125 C 220.73983764648438 128.97340393066406 219.56436157226562 126.95989990234375 218.05377197265625 125.28616333007812 L 218.43038940429688 125.63815307617188" stroke-width="0.6000000238418579" fill="rgb(143, 165, 67)" opacity="1.0"/>
    <path d="M 223.05715942382812 93.63880920410156 C 221.630615234375 98.86590576171875 227.80615234375 104.26333618164062 232.90408325195312 102.53372192382812 C 238.00201416015625 100.8040771484375 239.74057006835938 93.1990966796875 236.1668701171875 89.12429809570312 C 232.59317016601562 85.04949951171875 225.30010986328125 85.451416015625 221.876708984375 89.65972900390625 L 223.05715942382812 93.63880920410156" stroke-width="0.6000000238418579" fill="rgb(233, 92, 21)" opacity="1.0"/>
    <path d="M 201.63006591796875 95.84710693359375 C 200.6553955078125 93.28009033203125 199.22491455078125 90.3148193359375 196.49505615234375 89.94229125976562 C 195.40289306640625 89.83631896972656 194.30477905273438 90.07183837890625 193.3521728515625 90.61642456054688 C 190.95892333984375 91.90042114257812 189.33648681640625 94.26475524902344 188.99935913085938 96.95967102050781 C 188.71923828125 99.24642944335938 189.42437744140625 101.50796508789062 190.156494140625 103.67752075195312 C 190.5697021484375 104.89558410644531 191.04754638671875 106.17657470703125 192.05950927734375 106.95904541015625 C 193.41693115234375 107.99098205566406 195.32473754882812 107.83230590820312 196.98284912109375 107.43695068359375 C 199.41021728515625 106.86135864257812 201.72845458984375 105.89668273925781 203.84756469726562 104.580322265625 C 204.578857421875 104.12408447265625 205.3135986328125 103.59759521484375 205.71466064453125 102.8349609375 C 206.05123901367188 102.10678100585938 206.168701171875 101.29638671875 206.05267333984375 100.50259399414062 C 205.79437255859375 98.08103942871094 204.48681640625 95.89468383789062 202.47564697265625 94.521484375 L 201.63006591796875 95.84710693359375" stroke-width="0.6000000238418579" fill="rgb(70, 150, 179)" opacity="1.0"/>
    <path d="M 269.36920166015625 132.06182861328125 C 268.2868347167969 134.80203247070312 267.2021789550781 137.88479614257812 268.3262939453125 140.60609436035156 C 269.5356140136719 143.52867126464844 272.98870849609375 144.96327209472656 276.15081787109375 144.89593505859375 C 277.3700256347656 144.8704833984375 278.6317138671875 144.64817810058594 279.6241455078125 143.93978881835938 C 280.4402160644531 143.35775756835938 281.0088806152344 142.49781799316406 281.5106506347656 141.63035583496094 C 283.09625244140625 138.89674377441406 284.2359313964844 135.64297485351562 283.3970642089844 132.5968475341797 C 282.54949951171875 129.52740478515625 279.57220458984375 127.1658935546875 276.3869323730469 127.05766296386719 C 273.20166015625 126.94943237304688 270.05450439453125 129.07086181640625 268.9835510253906 132.07489013671875 L 269.36920166015625 132.06182861328125" stroke-width="0.6000000238418579" fill="rgb(140, 28, 33)" opacity="1.0"/>
    <path d="M 316.1772155761719 115.50965881347656 C 313.4417724609375 116.13400268554688 310.60223388671875 116.81379699707031 308.3772277832031 118.52647399902344 C 306.15228271484375 120.2391357421875 304.7091979980469 123.31979370117188 305.739990234375 125.93101501464844 C 307.01959228515625 129.1514434814453 311.5759582519531 130.05316162109375 314.6070861816406 128.36068725585938 C 317.6382141113281 126.66822814941406 319.28759765625 123.226806640625 320.00897216796875 119.83537292480469 C 320.33746337890625 118.80789184570312 320.26885986328125 117.69467163085938 319.81671142578125 116.71533203125 C 319.2723388671875 115.80435180664062 317.7707824707031 115.43980407714844 317.14691162109375 116.30477905273438 L 316.1772155761719 115.50965881347656" stroke-width="0.6000000238418579" fill="rgb(159, 159, 159)" opacity="1.0"/>
    <path d="M 198.0235595703125 132.58753967285156 C 195.89361572265625 130.6350555419922 193.04827880859375 129.3697967529297 190.16375732421875 129.50975036621094 C 187.27923583984375 129.64971923828125 184.42269897460938 131.3352813720703 183.23876953125 133.98275756835938 C 182.40408325195312 135.85560607910156 182.4520263671875 138.04745483398438 183.0936279296875 139.99679565429688 C 183.73526000976562 141.94615173339844 184.92864990234375 143.67462158203125 186.30975341796875 145.19305419921875 C 186.9111328125 145.85348510742188 187.58978271484375 146.50270080566406 188.4490966796875 146.73793029785156 C 189.43417358398438 147.008056640625 190.47433471679688 146.68588256835938 191.4312744140625 146.31991577148438 C 194.1329345703125 145.28668212890625 196.77911376953125 143.800048828125 198.4459228515625 141.43563842773438 C 200.1126708984375 139.0712127685547 200.55792236328125 135.67471313476562 198.91409301757812 133.3030242919922 L 198.0235595703125 132.58753967285156" stroke-width="0.6000000238418579" fill="rgb(159, 159, 159)" opacity="1.0"/>
    <path d="M 279.8896484375 105.58229064941406 C 277.2923278808594 106.4083251953125 274.4410705566406 107.43902587890625 273.1669921875 109.84237670898438 C 271.9246520996094 112.17790222167969 272.5810546875 115.03012084960938 273.3117980957031 117.57382202148438 C 273.6101379394531 118.60671997070312 273.9387512207031 119.68254089355469 274.6897888183594 120.4510498046875 C 275.9592590332031 121.75155639648438 278.030029296875 121.7969970703125 279.8160400390625 121.47549438476562 C 281.4739074707031 121.177734375 283.08038330078125 120.6434326171875 284.58636474609375 119.88900756835938 C 287.0321044921875 118.6649169921875 289.3697509765625 116.50056457519531 289.4001770019531 113.76675415039062 C 289.4187927246094 112.2908935546875 288.7389221191406 110.86734008789062 287.79339599609375 109.73101806640625 C 286.8478698730469 108.59469604492188 285.64227294921875 107.70689392089844 284.4395751953125 106.847412109375 C 283.23687744140625 105.9879150390625 282.03668212890625 105.16915893554688 280.6217041015625 104.88609313964844 L 279.8896484375 105.58229064941406" stroke-width="0.6000000238418579" fill="rgb(218, 166, 20)" opacity="1.0"/>
    <path d="M 241.85308837890625 119.53976440429688 C 240.609375 123.85784912109375 243.10159301757812 128.36659240722656 247.419677734375 129.6103515625 C 247.7894287109375 129.71685791015625 248.166259765625 129.79698181152344 248.54739379882812 129.85015869140625 C 249.99551391601562 130.05194091796875 251.56167602539062 129.82830810546875 252.72024536132812 128.93753051757812 C 253.69940185546875 128.18484497070312 254.29461669921875 127.0426025390625 254.74325561523438 125.89285278320312 C 255.93994140625 122.8135986328125 256.290283203125 119.4700927734375 255.7579345703125 116.20965576171875 C 255.61578369140625 115.34806823730469 255.40118408203125 114.47140502929688 254.89093017578125 113.76046752929688 C 254.03497314453125 112.56643676757812 252.47674560546875 112.05148315429688 251.006591796875 112.04583740234375 C 248.82391357421875 112.03594970703125 246.69671630859375 113.00128173828125 245.096923828125 114.48687744140625 C 243.49713134765625 115.97247314453125 242.39697265625 117.94366455078125 241.7449951171875 120.02703857421875 L 241.85308837890625 119.53976440429688" stroke-width="0.6000000238418579" fill="rgb(143, 165, 67)" opacity="1.0"/>
    <path d="M 250.40655517578125 91.87420654296875 C 249.33547973632812 97.18649291992188 255.8619384765625 102.15618896484375 260.8325500488281 100.08645629882812 C 265.80316162109375 98.01670837402344 267.0252380371094 90.31047058105469 263.1842956542969 86.48521423339844 C 259.3433532714844 82.65995788574219 252.09274291992188 83.55276489257812 248.96029663085938 87.98309326171875 L 250.40655517578125 91.87420654296875" stroke-width="0.6000000238418579" fill="rgb(233, 92, 21)" opacity="1.0"/>
    <path d="M 338.10302734375 84.26913452148438 C 335.65826416015625 83.3907470703125 332.6468505859375 82.59506225585938 330.6999206542969 84.32821655273438 C 329.9519348144531 85.04808044433594 329.4457702636719 85.98231506347656 329.25128173828125 87.00204467773438 C 328.7021484375 89.51214599609375 329.4037170410156 92.13272094726562 331.13348388671875 94.03273010253906 C 332.6049499511719 95.64071655273438 334.6643371582031 96.52491760253906 336.6741943359375 97.33317565917969 C 337.803955078125 97.78536987304688 339.0186767578125 98.22982788085938 340.20361328125 97.98373413085938 C 341.78033447265625 97.64273071289062 342.83978271484375 96.17376708984375 343.5755310058594 94.73867797851562 C 344.6548767089844 92.63978576660156 345.38739013671875 90.38002014160156 345.7446594238281 88.04704284667969 C 345.8665466308594 87.24072265625 345.9400329589844 86.38873291015625 345.6385192871094 85.63134765625 C 345.3221130371094 84.94148254394531 344.81182861328125 84.35858154296875 344.16986083984375 83.95370483398438 C 342.27032470703125 82.64985656738281 339.8944396972656 82.24490356445312 337.6702575683594 82.84591674804688 L 338.10302734375 84.26913452148438" stroke-width="0.6000000238418579" fill="rgb(70, 150, 179)" opacity="1.0"/>
    <path d="M 332.68792724609375 127.40641784667969 C 331.9707946777344 124.55078125 331.0560302734375 121.41563415527344 328.5581359863281 119.86053466796875 C 325.87384033203125 118.19158935546875 322.234130859375 119.03790283203125 319.7055358886719 120.93438720703125 C 318.73028564453125 121.66517639160156 317.835205078125 122.58058166503906 317.44189453125 123.73388671875 C 317.11822509765625 124.68185424804688 317.15728759765625 125.71139526367188 317.2550964355469 126.70808410644531 C 317.5597229003906 129.8514862060547 318.5293884277344 133.15756225585938 320.9848327636719 135.14259338378906 C 323.4609375 137.1414794921875 327.2541809082031 137.3250274658203 329.9038391113281 135.5576171875 C 332.5534973144531 133.7902069091797 333.87353515625 130.2344207763672 332.9934997558594 127.17117309570312 L 332.68792724609375 127.40641784667969" stroke-width="0.6000000238418579" fill="rgb(140, 28, 33)" opacity="1.0"/>
    <path d="M 351.0124816894531 105.84158325195312 C 348.0626525878906 105.224365234375 344.9863586425781 104.61465454101562 342.0467529296875 105.28860473632812 C 339.1071472167969 105.96253967285156 336.31732177734375 108.32228088378906 336.15252685546875 111.33311462402344 C 335.9574279785156 115.05012512207031 340.000244140625 117.97328186035156 343.7176208496094 117.6805419921875 C 347.43499755859375 117.38778686523438 350.58795166015625 114.7684326171875 352.8127746582031 111.78175354003906 C 353.5940856933594 110.92620849609375 354.02630615234375 109.80889892578125 354.02410888671875 108.6502685546875 C 353.9012451171875 107.51705932617188 352.59918212890625 106.48794555664062 351.6023864746094 107.05242919921875 L 351.0124816894531 105.84158325195312" stroke-width="0.6000000238418579" fill="rgb(159, 159, 159)" opacity="1.0"/>
    <path d="M 350.6300048828125 125.89634704589844 C 347.9285583496094 126.81614685058594 345.4834289550781 128.68154907226562 344.2372131347656 131.24713134765625 C 342.9909973144531 133.81271362304688 343.0971984863281 137.0867462158203 344.8297424316406 139.3676300048828 C 346.0567321777344 140.9786834716797 347.978515625 141.97625732421875 349.9716491699219 142.344482421875 C 351.96478271484375 142.7127227783203 354.0281066894531 142.4981689453125 355.99847412109375 142.0214080810547 C 356.8558044433594 141.81341552734375 357.7400207519531 141.533203125 358.3511962890625 140.9001922607422 C 359.05224609375 140.17477416992188 359.2662353515625 139.12083435058594 359.4028015136719 138.1182098388672 C 359.7883605957031 135.28761291503906 359.75482177734375 132.29010009765625 358.49639892578125 129.72506713867188 C 357.2380065917969 127.16001892089844 354.50628662109375 125.1640625 351.6720886230469 125.46394348144531 L 350.6300048828125 125.89634704589844" stroke-width="0.6000000238418579" fill="rgb(159, 159, 159)" opacity="1.0"/>
    <path d="M 365.330078125 115.68899536132812 C 362.93292236328125 116.32244873046875 360.29583740234375 117.13038635253906 359.0298767089844 119.25662231445312 C 357.7958068847656 121.32266235351562 358.26361083984375 123.94375610351562 358.8128662109375 126.28788757324219 C 359.03741455078125 127.23983764648438 359.2874755859375 128.2321319580078 359.9352111816406 128.9642333984375 C 361.0299987792969 130.20310974121094 362.9094543457031 130.33775329589844 364.5467224121094 130.1261444091797 C 366.0664367675781 129.9303436279297 367.5502014160156 129.51731872558594 368.9525146484375 128.8997344970703 C 371.2298889160156 127.89779663085938 373.451416015625 126.03665161132812 373.6023254394531 123.55410766601562 C 373.6857604980469 122.2139892578125 373.1322326660156 120.889892578125 372.3243408203125 119.8148193359375 C 371.5164794921875 118.73974609375 370.4610900878906 117.87875366210938 369.4070739746094 117.04360961914062 C 368.3530578613281 116.20846557617188 367.2994689941406 115.41043090820312 366.026611328125 115.08944702148438 L 365.330078125 115.68899536132812" stroke-width="0.6000000238418579" fill="rgb(218, 166, 20)" opacity="1.0"/>
    <path d="M 434.12799072265625 154.2566375732422 C 430.09161376953125 155.0813446044922 427.488037109375 159.02203369140625 428.312744140625 163.05841064453125 C 428.38336181640625 163.404052734375 428.4783935546875 163.74423217773438 428.59716796875 164.076416015625 C 429.0487060546875 165.33856201171875 429.89593505859375 166.51580810546875 431.1119384765625 167.07843017578125 C 432.13946533203125 167.553955078125 433.3203125 167.55206298828125 434.44500732421875 167.42791748046875 C 437.45501708984375 167.0914306640625 440.32000732421875 165.95513916015625 442.742431640625 164.1370849609375 C 443.38189697265625 163.65545654296875 444.00286865234375 163.10858154296875 444.363525390625 162.39193725585938 C 444.96978759765625 161.18914794921875 444.7259521484375 159.70449829101562 444.105712890625 158.5078125 C 443.1861572265625 156.73046875 441.4979248046875 155.4126739501953 439.61126708984375 154.7444305419922 C 437.724609375 154.076171875 435.65570068359375 154.0201416015625 433.68621826171875 154.3759002685547 L 434.12799072265625 154.2566375732422" stroke-width="0.6000000238418579" fill="rgb(143, 165, 67)" opacity="1.0"/>
    <path d="M 143.7105712890625 418.2735595703125 C 141.1121368408203 423.00830078125 145.8425750732422 429.67620849609375 151.18618774414062 429.1854248046875 C 156.52978515625 428.694580078125 159.98370361328125 421.72760009765625 157.467529296875 416.94683837890625 C 154.95132446289062 412.166015625 147.7888641357422 410.859375 143.49185180664062 414.1422119140625 L 143.7105712890625 418.2735595703125" stroke-width="0.6000000238418579" fill="rgb(233, 92, 21)" opacity="1.0"/>
    <path d="M 436.368896484375 186.3935546875 C 433.9425048828125 186.30844116210938 431.03533935546875 186.45840454101562 429.7962646484375 188.555908203125 C 429.335693359375 189.4097900390625 429.1513671875 190.3856201171875 429.2689208984375 191.34869384765625 C 429.49542236328125 193.73941040039062 430.86669921875 195.87200927734375 432.94781494140625 197.07025146484375 C 434.7158203125 198.0821533203125 436.80078125 198.28228759765625 438.82012939453125 198.428955078125 C 439.95458984375 198.50946044921875 441.1624755859375 198.55889892578125 442.14697265625 198.00216674804688 C 443.4532470703125 197.24932861328125 443.9776611328125 195.639892578125 444.2235107421875 194.15286254882812 C 444.58612060546875 191.97705078125 444.5941162109375 189.75689697265625 444.24725341796875 187.57855224609375 C 444.1259765625 186.82611083984375 443.9486083984375 186.04681396484375 443.46435546875 185.4586181640625 C 442.98614501953125 184.93472290039062 442.3658447265625 184.56130981445312 441.6790771484375 184.3839111328125 C 439.61669921875 183.7646484375 437.3865966796875 184.081298828125 435.578125 185.2501220703125 L 436.368896484375 186.3935546875" stroke-width="0.6000000238418579" fill="rgb(70, 150, 179)" opacity="1.0"/>
    <path d="M 407.33209228515625 158.00387573242188 C 406.8930358886719 155.21214294433594 406.2891845703125 152.1361541748047 404.0355529785156 150.4339599609375 C 401.6135559082031 148.60687255859375 398.0611267089844 149.1017303466797 395.4802551269531 150.6964111328125 C 394.4848937988281 151.3108367919922 393.55023193359375 152.10865783691406 393.07470703125 153.17721557617188 C 392.6834716796875 154.05548095703125 392.6319580078125 155.0430450439453 392.639404296875 156.0042724609375 C 392.6593017578125 159.03546142578125 393.3009033203125 162.27960205078125 395.47686767578125 164.38909912109375 C 397.67132568359375 166.513671875 401.2816162109375 167.01654052734375 403.96710205078125 165.5556640625 C 406.652587890625 164.0948486328125 408.22137451171875 160.80963134765625 407.6445007324219 157.80535888671875 L 407.33209228515625 158.00387573242188" stroke-width="0.6000000238418579" fill="rgb(140, 28, 33)" opacity="1.0"/>
    <path d="M 140.2201690673828 121.560791015625 C 137.35113525390625 122.18669128417969 134.3726348876953 122.86959838867188 132.02685546875 124.63963317871094 C 129.68113708496094 126.40963745117188 128.13995361328125 129.61917114257812 129.19247436523438 132.36228942871094 C 130.499267578125 135.74546813964844 135.2586212158203 136.73492431640625 138.4478302001953 134.994140625 C 141.6370391845703 133.2533721923828 143.39776611328125 129.66836547851562 144.18679809570312 126.1263427734375 C 144.54090881347656 125.05435180664062 144.4803009033203 123.88861083984375 144.0169219970703 122.85914611816406 C 143.4563751220703 121.90031433105469 141.88861083984375 121.50369262695312 141.22698974609375 122.40264892578125 L 140.2201690673828 121.560791015625" stroke-width="0.6000000238418579" fill="rgb(159, 159, 159)" opacity="1.0"/>
    <path d="M 418.21270751953125 178.5291748046875 C 416.28399658203125 176.83126831054688 413.73150634765625 175.7572021484375 411.1692810058594 175.9332275390625 C 408.6070556640625 176.1092529296875 406.097412109375 177.6590576171875 405.09210205078125 180.0341796875 C 404.3834533691406 181.71429443359375 404.4653015136719 183.66229248046875 405.0706481933594 185.384033203125 C 405.6759948730469 187.10577392578125 406.7679748535156 188.62127685546875 408.02313232421875 189.9466552734375 C 408.5696716308594 190.5230712890625 409.1846923828125 191.08819580078125 409.95294189453125 191.281982421875 C 410.8336181640625 191.5045166015625 411.752685546875 191.199462890625 412.59698486328125 190.85693359375 C 414.9805908203125 189.88995361328125 417.306884765625 188.52081298828125 418.74652099609375 186.38873291015625 C 420.18621826171875 184.25662231445312 420.5213623046875 181.22872924804688 419.017333984375 179.1494140625 L 418.21270751953125 178.5291748046875" stroke-width="0.6000000238418579" fill="rgb(159, 159, 159)" opacity="1.0"/>
    <path d="M 401.69793701171875 187.00189208984375 C 400.7614440917969 184.40283203125 399.60791015625 181.554443359375 397.1246337890625 180.35629272460938 C 394.7112731933594 179.18768310546875 391.8475341796875 179.962158203125 389.29913330078125 180.80001831054688 C 388.2643737792969 181.14190673828125 387.18731689453125 181.51608276367188 386.4377746582031 182.30633544921875 C 385.16925048828125 183.64212036132812 385.20281982421875 185.7413330078125 385.5970764160156 187.53802490234375 C 385.9623718261719 189.20578002929688 386.5652770996094 190.81243896484375 387.3872985839844 192.308837890625 C 388.72113037109375 194.73907470703125 391.0032043457031 197.023681640625 393.7734069824219 196.949462890625 C 395.2690124511719 196.91162109375 396.684814453125 196.16827392578125 397.7994384765625 195.16693115234375 C 398.9140625 194.16552734375 399.7669982910156 192.9102783203125 400.5913391113281 191.6590576171875 C 401.4156799316406 190.4078369140625 402.1988830566406 189.16070556640625 402.4312438964844 187.71661376953125 L 401.69793701171875 187.00189208984375" stroke-width="0.6000000238418579" fill="rgb(218, 166, 20)" opacity="1.0"/>
    <path d="M 450.33453369140625 178.69537353515625 C 449.4095458984375 183.23587036132812 452.340576171875 187.66650390625 456.881103515625 188.5914306640625 C 457.2698974609375 188.670654296875 457.663818359375 188.72216796875 458.0599365234375 188.74563598632812 C 459.5650634765625 188.83447265625 461.1566162109375 188.47637939453125 462.274658203125 187.46585083007812 C 463.219482421875 186.61199951171875 463.73779296875 185.38909912109375 464.1048583984375 184.17050170898438 C 465.08282470703125 180.90728759765625 465.169189453125 177.44171142578125 464.3551025390625 174.1337890625 C 464.138427734375 173.25979614257812 463.8460693359375 172.376220703125 463.2633056640625 171.68719482421875 C 462.28570556640625 170.5299072265625 460.641845703125 170.12814331054688 459.130126953125 170.24270629882812 C 456.88568115234375 170.4112548828125 454.778076171875 171.57769775390625 453.2552490234375 173.23577880859375 C 451.732421875 174.89385986328125 450.762939453125 177.01016235351562 450.2633056640625 179.205078125 L 450.33453369140625 178.69537353515625" stroke-width="0.6000000238418579" fill="rgb(143, 165, 67)" opacity="1.0"/>
    <path d="M 148.12745666503906 104.49227905273438 C 143.11842346191406 108.25704956054688 144.9347381591797 117.56671142578125 150.8189697265625 119.60037231445312 C 156.70321655273438 121.63401794433594 163.68307495117188 115.91769409179688 163.30642700195312 109.66102600097656 C 162.92977905273438 103.40435791015625 155.98109436035156 98.60140991210938 149.8697052001953 100.01969909667969 L 148.12745666503906 104.49227905273438" stroke-width="0.6000000238418579" fill="rgb(233, 92, 21)" opacity="1.0"/>
    <path d="M 453.6396484375 152.1071319580078 C 452.1427001953125 154.78054809570312 450.6317138671875 158.1292724609375 452.26959228515625 160.73114013671875 C 452.961669921875 161.7412109375 453.9501953125 162.5115966796875 455.09869384765625 162.93606567382812 C 457.912109375 164.062744140625 461.09716796875 163.75592041015625 463.643798828125 162.11279296875 C 465.8004150390625 160.71347045898438 467.22930908203125 158.489501953125 468.5601806640625 156.30841064453125 C 469.30584716796875 155.08197021484375 470.05902099609375 153.75518798828125 470.00299072265625 152.32884216308594 C 469.9127197265625 150.42825317382812 468.40966796875 148.91024780273438 466.8831787109375 147.77542114257812 C 464.651123046875 146.11180114746094 462.16461181640625 144.8204345703125 459.5198974609375 143.95138549804688 C 458.6055908203125 143.6528778076172 457.628662109375 143.4017791748047 456.68896484375 143.60537719726562 C 455.824951171875 143.83938598632812 455.047607421875 144.3197479248047 454.45184326171875 144.98789978027344 C 452.5657958984375 146.9443359375 451.6329345703125 149.62965393066406 451.89990234375 152.33401489257812 L 453.6396484375 152.1071319580078" stroke-width="0.6000000238418579" fill="rgb(70, 150, 179)" opacity="1.0"/>
    <path d="M 376.03985595703125 77.87307739257812 C 376.3172607421875 74.4910888671875 376.48272705078125 70.73077392578125 374.33441162109375 68.10690307617188 C 372.0249328613281 65.28964233398438 367.7394714355469 64.8621826171875 364.276611328125 65.99298095703125 C 362.9412841796875 66.42842102050781 361.6249084472656 67.09503173828125 360.7677307128906 68.20744323730469 C 360.0627136230469 69.12164306640625 359.7232360839844 70.259521484375 359.46002197265625 71.38330078125 C 358.625732421875 74.92617797851562 358.4567565917969 78.89337158203125 360.3992004394531 81.97061157226562 C 362.3590393066406 85.07061767578125 366.42974853515625 86.67872619628906 369.976806640625 85.73368835449219 C 373.52386474609375 84.78866577148438 376.28387451171875 81.3988037109375 376.4605712890625 77.72982788085938 L 376.03985595703125 77.87307739257812" stroke-width="0.6000000238418579" fill="rgb(140, 28, 33)" opacity="1.0"/>
    <path d="M 130.92591857910156 413.052734375 C 128.34823608398438 415.079833984375 125.6883544921875 417.217529296875 124.19403076171875 420.13916015625 C 122.69972229003906 423.060791015625 122.71533203125 427.0367431640625 125.10969543457031 429.27996826171875 C 128.07147216796875 432.0423583984375 133.33570861816406 430.7171630859375 135.6917724609375 427.413818359375 C 138.04783630371094 424.11053466796875 138.06980895996094 419.650390625 137.1364288330078 415.7069091796875 C 136.9698028564453 414.457275390625 136.34078979492188 413.31549072265625 135.37350463867188 412.5069580078125 C 134.34300231933594 411.8167419433594 132.57447814941406 412.1822509765625 132.34780883789062 413.407958984375 L 130.92591857910156 413.052734375" stroke-width="0.6000000238418579" fill="rgb(159, 159, 159)" opacity="1.0"/>
    <path d="M 409.36419677734375 207.58438110351562 C 408.0240783691406 204.75186157226562 405.68426513671875 202.3167724609375 402.7300109863281 201.27691650390625 C 399.7757568359375 200.237060546875 396.2171630859375 200.76095581054688 393.9447326660156 202.93536376953125 C 392.34002685546875 204.4747314453125 391.4912414550781 206.69564819335938 391.337890625 208.91595458984375 C 391.1845397949219 211.13626098632812 391.6757507324219 213.36053466796875 392.4414367675781 215.45068359375 C 392.7751770019531 216.360107421875 393.1910705566406 217.28982543945312 393.9578552246094 217.87771606445312 C 394.83660888671875 218.5521240234375 396.0130920410156 218.65423583984375 397.1239318847656 218.67828369140625 C 400.2600402832031 218.74615478515625 403.5260314941406 218.33599853515625 406.16754150390625 216.64346313476562 C 408.80908203125 214.950927734375 410.64617919921875 211.72198486328125 409.9657897949219 208.6673583984375 L 409.36419677734375 207.58438110351562" stroke-width="0.6000000238418579" fill="rgb(159, 159, 159)" opacity="1.0"/>
    <path d="M 385.1221923828125 121.09019470214844 C 382.2418518066406 122.23294067382812 379.0897521972656 123.6279296875 377.8352355957031 126.45474243164062 C 376.611328125 129.2021026611328 377.5818786621094 132.3849639892578 378.6122741699219 135.21205139160156 C 379.0325622558594 136.35989379882812 379.4905090332031 137.55401611328125 380.4032287597656 138.3660888671875 C 381.94610595703125 139.740478515625 384.29833984375 139.62786865234375 386.2984924316406 139.1216583251953 C 388.1551818847656 138.65252685546875 389.93487548828125 137.91921997070312 391.5830993652344 136.94419860839844 C 394.25994873046875 135.36199951171875 396.73968505859375 132.72195434570312 396.5575256347656 129.61892700195312 C 396.4616394042969 127.94357299804688 395.5777282714844 126.38290405273438 394.4152526855469 125.1690673828125 C 393.2528076171875 123.95523071289062 391.8150634765625 123.04388427734375 390.38287353515625 122.16439819335938 C 388.95068359375 121.28494262695312 387.5245361328125 120.45144653320312 385.89727783203125 120.2425537109375 L 385.1221923828125 121.09019470214844" stroke-width="0.6000000238418579" fill="rgb(218, 166, 20)" opacity="1.0"/>
    <path d="M 402.1255798339844 80.81216430664062 C 398.5407409667969 76.79225158691406 392.3758544921875 76.43954467773438 388.35595703125 80.02439880371094 C 388.01171875 80.33135986328125 387.689697265625 80.66236877441406 387.3923034667969 81.01492309570312 C 386.2625732421875 82.35470581054688 385.4888610839844 84.08596801757812 385.65216064453125 85.83001708984375 C 385.7900390625 87.30389404296875 386.5682373046875 88.63728332519531 387.4477233886719 89.8267822265625 C 389.80621337890625 93.007568359375 392.9733581542969 95.49880981445312 396.6201477050781 97.04176330566406 C 397.5848083496094 97.44798278808594 398.6109924316406 97.79039001464844 399.6579895019531 97.72705078125 C 401.4158020019531 97.62173461914062 402.9334716796875 96.370361328125 403.8783874511719 94.88291931152344 C 405.28277587890625 92.67559814453125 405.66265869140625 89.90147399902344 405.1779479980469 87.3299560546875 C 404.6932373046875 84.7584228515625 403.39691162109375 82.38336181640625 401.700439453125 80.3912353515625 L 402.1255798339844 80.81216430664062" stroke-width="0.6000000238418579" fill="rgb(143, 165, 67)" opacity="1.0"/>
    <path d="M 117.46592712402344 424.92431640625 C 114.4931640625 419.4788818359375 105.11264038085938 419.9281005859375 102.27940368652344 425.40252685546875 C 99.44618225097656 430.876953125 104.04933166503906 438.5321044921875 110.2330322265625 439.05712890625 C 116.41671752929688 439.5821533203125 122.115234375 433.4605712890625 121.59890747070312 427.2703857421875 L 117.46592712402344 424.92431640625" stroke-width="0.6000000238418579" fill="rgb(233, 92, 21)" opacity="1.0"/>
    <path d="M 448.0338134765625 198.0675048828125 C 446.5740966796875 200.73431396484375 445.1070556640625 204.07122802734375 446.7569580078125 206.63702392578125 C 447.45330810546875 207.63253784179688 448.44140625 208.387451171875 449.5849609375 208.797607421875 C 452.38714599609375 209.8885498046875 455.54425048828125 209.55364990234375 458.05517578125 207.8990478515625 C 460.1815185546875 206.49005126953125 461.57794189453125 204.2698974609375 462.8775634765625 202.0931396484375 C 463.6055908203125 200.86920166015625 464.3402099609375 199.54559326171875 464.27099609375 198.1309814453125 C 464.1632080078125 196.24615478515625 462.657470703125 194.75442504882812 461.13201904296875 193.64309692382812 C 458.901611328125 192.01385498046875 456.4222412109375 190.75640869140625 453.7899169921875 189.91946411132812 C 452.8798828125 189.63204956054688 451.90826416015625 189.39227294921875 450.9779052734375 189.603271484375 C 450.122802734375 189.84368896484375 449.356201171875 190.32772827148438 448.771484375 190.996337890625 C 446.9189453125 192.95547485351562 446.01910400390625 195.628662109375 446.309814453125 198.30926513671875 L 448.0338134765625 198.0675048828125" stroke-width="0.6000000238418579" fill="rgb(70, 150, 179)" opacity="1.0"/>
    <path d="M 412.496826171875 134.8268280029297 C 412.19268798828125 131.61788940429688 411.7208251953125 128.07379150390625 409.2745666503906 125.97801208496094 C 406.6453857421875 123.72824096679688 402.5665283203125 124.0426025390625 399.5166320800781 125.6771240234375 C 398.3404541015625 126.30682373046875 397.220458984375 127.14956665039062 396.6042175292969 128.33270263671875 C 396.0972595214844 129.30511474609375 395.96942138671875 130.42578125 395.9105224609375 131.52056884765625 C 395.720703125 134.97276306152344 396.2237243652344 138.71090698242188 398.5530090332031 141.2649383544922 C 400.90234375 143.83740234375 404.97711181640625 144.6629180908203 408.13671875 143.18809509277344 C 411.29632568359375 141.71327209472656 413.3125 138.08328247070312 412.86639404296875 134.6227569580078 L 412.496826171875 134.8268280029297" stroke-width="0.6000000238418579" fill="rgb(140, 28, 33)" opacity="1.0"/>
    <path d="M 399.1009521484375 71.1083984375 C 400.0357971191406 74.19577026367188 401.0425720214844 77.39801025390625 403.184814453125 79.81288146972656 C 405.3270263671875 82.22769165039062 408.97564697265625 83.6363525390625 411.88800048828125 82.24526977539062 C 415.47918701171875 80.52011108398438 416.14892578125 75.22232055664062 413.96533203125 71.88128662109375 C 411.7818298339844 68.54025268554688 407.70294189453125 66.92385864257812 403.755615234375 66.36776733398438 C 402.5509338378906 66.07321166992188 401.2796630859375 66.24092102050781 400.192626953125 66.83786010742188 C 399.1913757324219 67.53506469726562 398.89337158203125 69.28633117675781 399.935302734375 69.93267822265625 L 399.1009521484375 71.1083984375" stroke-width="0.6000000238418579" fill="rgb(159, 159, 159)" opacity="1.0"/>
    <path d="M 442.0650634765625 235.5240478515625 C 440.3697509765625 238.15350341796875 439.53839111328125 241.42108154296875 440.2139892578125 244.47418212890625 C 440.88958740234375 247.52728271484375 443.209716796875 250.26849365234375 446.25128173828125 251.04913330078125 C 448.40240478515625 251.59829711914062 450.7330322265625 251.14727783203125 452.6964111328125 250.10687255859375 C 454.659912109375 249.06646728515625 456.2869873046875 247.47747802734375 457.6556396484375 245.7264404296875 C 458.25079345703125 244.96408081054688 458.81988525390625 244.121337890625 458.9141845703125 243.16128540039062 C 459.0228271484375 242.0606689453125 458.4891357421875 241.00930786132812 457.92401123046875 240.05474853515625 C 456.328369140625 237.35980224609375 454.25897216796875 234.80673217773438 451.431396484375 233.45916748046875 C 448.6038818359375 232.111572265625 444.8975830078125 232.25595092773438 442.66619873046875 234.44305419921875 L 442.0650634765625 235.5240478515625" stroke-width="0.6000000238418579" fill="rgb(159, 159, 159)" opacity="1.0"/>
    <path d="M 408.0307922363281 262.0136413574219 C 406.406494140625 259.40802001953125 404.4881286621094 256.5821228027344 401.5100402832031 255.85986328125 C 398.6148376464844 255.1533203125 395.68377685546875 256.6633605957031 393.11016845703125 258.168701171875 C 392.0655822753906 258.78173828125 390.9825439453125 259.43975830078125 390.3525390625 260.4734191894531 C 389.28594970703125 262.2210388183594 389.8124084472656 264.4942626953125 390.6602478027344 266.3545837402344 C 391.44647216796875 268.08154296875 392.4766540527344 269.6866760253906 393.71917724609375 271.1208190917969 C 395.73583984375 273.4502258300781 398.7489013671875 275.4000549316406 401.7417907714844 274.67279052734375 C 403.3581237792969 274.28253173828125 404.7230224609375 273.1443176269531 405.7004699707031 271.7960205078125 C 406.67791748046875 270.4477233886719 407.3117370605469 268.8846130371094 407.9154357910156 267.33258056640625 C 408.5191345214844 265.7805480957031 409.0790710449219 264.2425537109375 408.99444580078125 262.6191101074219 L 408.0307922363281 262.0136413574219" stroke-width="0.6000000238418579" fill="rgb(218, 166, 20)" opacity="1.0"/>
    <path d="M 416.852783203125 87.19346618652344 C 414.831298828125 92.12579345703125 417.19091796875 97.76303100585938 422.123291015625 99.78459167480469 C 422.545654296875 99.95770263671875 422.979736328125 100.10061645507812 423.42230224609375 100.21229553222656 C 425.1041259765625 100.63632202148438 426.979736328125 100.57383728027344 428.46044921875 99.6722412109375 C 429.71185302734375 98.91044616699219 430.560546875 97.63992309570312 431.23736572265625 96.34170532226562 C 433.044189453125 92.86422729492188 433.886962890625 88.96640014648438 433.6781005859375 85.05308532714844 C 433.6212158203125 84.01876831054688 433.4808349609375 82.9573974609375 432.97039794921875 82.05343627929688 C 432.11444091796875 80.53536987304688 430.34307861328125 79.7279052734375 428.610107421875 79.53233337402344 C 426.03741455078125 79.24020385742188 423.40478515625 80.10525512695312 421.327392578125 81.651611328125 C 419.24993896484375 83.19795227050781 417.69921875 85.38113403320312 416.6627197265625 87.75419616699219 L 416.852783203125 87.19346618652344" stroke-width="0.6000000238418579" fill="rgb(143, 165, 67)" opacity="1.0"/>
    <path d="M 442.54345703125 128.9885711669922 C 439.8624267578125 134.74880981445312 445.9349365234375 142.20692443847656 452.1690673828125 141.21424865722656 C 458.4031982421875 140.2215576171875 461.914306640625 131.7743377685547 458.58807373046875 126.3587646484375 C 455.2618408203125 120.94317626953125 446.7525634765625 119.9677734375 441.964599609375 124.15615844726562 L 442.54345703125 128.9885711669922" stroke-width="0.6000000238418579" fill="rgb(233, 92, 21)" opacity="1.0"/>
    <path d="M 447.00518798828125 94.0362548828125 C 446.1859130859375 97.01539611816406 445.516357421875 100.65902709960938 447.748779296875 102.81024169921875 C 448.6705322265625 103.63175964355469 449.824462890625 104.14701843261719 451.051513671875 104.284912109375 C 454.0782470703125 104.707763671875 457.1220703125 103.63735961914062 459.21795654296875 101.41311645507812 C 460.990966796875 99.52182006835938 461.8521728515625 96.99916076660156 462.62786865234375 94.5421142578125 C 463.06134033203125 93.16119384765625 463.4779052734375 91.68020629882812 463.0782470703125 90.29739379882812 C 462.5303955078125 88.45855712890625 460.69195556640625 87.3358154296875 458.92315673828125 86.5938720703125 C 456.33587646484375 85.50482177734375 453.58935546875 84.84173583984375 450.7901611328125 84.63031005859375 C 449.8228759765625 84.55911254882812 448.8057861328125 84.54946899414062 447.93505859375 84.97596740722656 C 447.145751953125 85.4139404296875 446.5008544921875 86.07212829589844 446.07916259765625 86.87026977539062 C 444.70574951171875 89.24154663085938 444.441650390625 92.09596252441406 445.3568115234375 94.67897033691406 L 447.00518798828125 94.0362548828125" stroke-width="0.6000000238418579" fill="rgb(70, 150, 179)" opacity="1.0"/>
    <path d="M 321.1916198730469 374.1620178222656 C 317.7956237792969 374.778564453125 314.0573425292969 375.6045837402344 312.0439758300781 378.4052734375 C 309.8829650878906 381.4151611328125 310.589599609375 385.7383117675781 312.611083984375 388.8435363769531 C 313.3899841308594 390.0411071777344 314.39105224609375 391.1593017578125 315.7094421386719 391.7091064453125 C 316.7930603027344 392.1614990234375 318.0003356933594 392.1958923339844 319.1737365722656 392.1590881347656 C 322.87420654296875 392.04742431640625 326.81671142578125 391.17047119140625 329.32965087890625 388.452880859375 C 331.86041259765625 385.71221923828125 332.37030029296875 381.2896728515625 330.50921630859375 378.0528564453125 C 328.64813232421875 374.8160705566406 324.59173583984375 372.9953308105469 320.94024658203125 373.78631591796875 L 321.1916198730469 374.1620178222656" stroke-width="0.6000000238418579" fill="rgb(140, 28, 33)" opacity="1.0"/>
    <path d="M 307.2729797363281 397.3867492675781 C 303.90966796875 398.4674987792969 300.4218444824219 399.629150390625 297.81719970703125 402.01953125 C 295.212646484375 404.4098815917969 293.7376708984375 408.4311218261719 295.3147277832031 411.5943908691406 C 297.2701721191406 415.4947509765625 303.0835876464844 416.130126953125 306.70159912109375 413.6773681640625 C 310.3196105957031 411.22467041015625 312.01409912109375 406.72845458984375 312.5500183105469 402.3958740234375 C 312.85028076171875 401.0713195800781 312.64312744140625 399.682373046875 311.9693603515625 398.5031433105469 C 311.18743896484375 397.419677734375 309.2642822265625 397.1257629394531 308.5758056640625 398.27862548828125 L 307.2729797363281 397.3867492675781" stroke-width="0.6000000238418579" fill="rgb(159, 159, 159)" opacity="1.0"/>
    <path d="M 320.58184814453125 413.88787841796875 C 317.0526123046875 414.8609619140625 313.7799072265625 417.064453125 311.9894714355469 420.2554931640625 C 310.19903564453125 423.446533203125 310.0868225097656 427.64739990234375 312.13262939453125 430.69970703125 C 313.5817565917969 432.8558349609375 315.96722412109375 434.279052734375 318.4917297363281 434.9017333984375 C 321.0162353515625 435.5244140625 323.67486572265625 435.40606689453125 326.2342529296875 434.94488525390625 C 327.3479309082031 434.7435302734375 328.5015563964844 434.4517822265625 329.33221435546875 433.68743896484375 C 330.2850036621094 432.81158447265625 330.638916015625 431.4781494140625 330.88983154296875 430.2044677734375 C 331.59820556640625 426.60882568359375 331.782470703125 422.76763916015625 330.36541748046875 419.38739013671875 C 328.9483642578125 416.00714111328125 325.6014099121094 413.24395751953125 321.94915771484375 413.41314697265625 L 320.58184814453125 413.88787841796875" stroke-width="0.6000000238418579" fill="rgb(159, 159, 159)" opacity="1.0"/>
    <path d="M 271.1119689941406 415.88958740234375 C 268.34124755859375 418.1787109375 265.3606262207031 420.84326171875 264.98516845703125 424.41064453125 C 264.6151428222656 427.87939453125 266.8222961425781 431.04541015625 268.96844482421875 433.7974853515625 C 269.8419494628906 434.9141845703125 270.7735595703125 436.0684814453125 272.0706481933594 436.638916015625 C 274.2638854980469 437.60491943359375 276.8194885253906 436.64105224609375 278.84613037109375 435.3685302734375 C 280.7276306152344 434.1881103515625 282.42987060546875 432.74359130859375 283.9007873535156 431.07928466796875 C 286.29010009765625 428.3778076171875 288.0843200683594 424.5792236328125 286.7757263183594 421.2198486328125 C 286.0718994140625 419.4052734375 284.5393981933594 417.99847412109375 282.82330322265625 417.0738525390625 C 281.1072082519531 416.1492919921875 279.1952819824219 415.65667724609375 277.30084228515625 415.19732666015625 C 275.40643310546875 414.73797607421875 273.5351257324219 414.32720947265625 271.6647644042969 414.677490234375 L 271.1119689941406 415.88958740234375" stroke-width="0.6000000238418579" fill="rgb(218, 166, 20)" opacity="1.0"/>
    <path d="M 223.62139892578125 414.2188720703125 C 217.97442626953125 412.60809326171875 212.0908203125 415.880126953125 210.48004150390625 421.527099609375 C 210.34210205078125 422.01068115234375 210.2386474609375 422.50341796875 210.17044067382812 423.0015869140625 C 209.91162109375 424.8946533203125 210.20916748046875 426.9405517578125 211.37710571289062 428.4515380859375 C 212.364013671875 429.72857666015625 213.85870361328125 430.5025634765625 215.3626708984375 431.0849609375 C 219.390625 432.638427734375 223.76104736328125 433.0849609375 228.01995849609375 432.37835693359375 C 229.14541625976562 432.189697265625 230.290283203125 431.90631103515625 231.2176513671875 431.237060546875 C 232.77508544921875 430.114501953125 233.44277954101562 428.0765380859375 233.4451904296875 426.1552734375 C 233.4508056640625 423.302978515625 232.18212890625 420.5263671875 230.23538208007812 418.4407958984375 C 228.28863525390625 416.35528564453125 225.708984375 414.9241943359375 222.98428344726562 414.0792236328125 L 223.62139892578125 414.2188720703125" stroke-width="0.6000000238418579" fill="rgb(143, 165, 67)" opacity="1.0"/>
    <path d="M 288.3414611816406 364.065185546875 C 289.7621154785156 370.9864196777344 300.1264953613281 373.626220703125 305.0377197265625 368.61016845703125 C 309.94891357421875 363.59405517578125 307.4900207519531 353.7228088378906 300.931640625 351.0884704589844 C 294.373291015625 348.4541320800781 286.12615966796875 353.21917724609375 284.6235656738281 360.1319580078125 L 288.3414611816406 364.065185546875" stroke-width="0.6000000238418579" fill="rgb(233, 92, 21)" opacity="1.0"/>
    <path d="M 332.7942810058594 359.9683837890625 C 333.1662292480469 363.5056457519531 333.9774169921875 367.6923828125 337.273193359375 369.0615539550781 C 338.6059875488281 369.55535888671875 340.0591735839844 369.62347412109375 341.43231201171875 369.2563781738281 C 344.85418701171875 368.4395751953125 347.66790771484375 366.0148620605469 348.9811706542969 362.7511291503906 C 350.0881042480469 359.9797668457031 349.9527282714844 356.9142150878906 349.75311279296875 353.9549255371094 C 349.6383056640625 352.29278564453125 349.46337890625 350.53045654296875 348.4546813964844 349.2158508300781 C 347.0958251953125 347.4746398925781 344.65399169921875 347.0425720214844 342.44659423828125 346.989501953125 C 339.2161865234375 346.9078063964844 335.9938659667969 347.3495178222656 332.9045715332031 348.2974853515625 C 331.8377990722656 348.6270751953125 330.7435302734375 349.0435485839844 329.9891052246094 349.8661193847656 C 329.3267822265625 350.66680908203125 328.9117431640625 351.6429443359375 328.79461669921875 352.67547607421875 C 328.3174133300781 355.7936706542969 329.2321472167969 358.9642333984375 331.2969970703125 361.34906005859375 L 332.7942810058594 359.9683837890625" stroke-width="0.6000000238418579" fill="rgb(70, 150, 179)" opacity="1.0"/>
    <path d="M 297.43389892578125 417.7904052734375 C 293.6712341308594 418.3602294921875 289.5245361328125 419.1497802734375 287.215087890625 422.1715087890625 C 284.7362060546875 425.41888427734375 285.3753356933594 430.206298828125 287.5029602050781 433.6939697265625 C 288.32269287109375 435.0389404296875 289.3898620605469 436.3037109375 290.82513427734375 436.95220947265625 C 292.0047912597656 437.48577880859375 293.334228515625 437.562744140625 294.628662109375 437.56005859375 C 298.7106018066406 437.5565185546875 303.0840148925781 436.71734619140625 305.9413146972656 433.803466796875 C 308.81903076171875 430.8646240234375 309.5238342285156 426.0069580078125 307.5772705078125 422.3795166015625 C 305.63067626953125 418.7520751953125 301.2189025878906 416.6143798828125 297.16900634765625 417.3681640625 L 297.43389892578125 417.7904052734375" stroke-width="0.6000000238418579" fill="rgb(140, 28, 33)" opacity="1.0"/>
    <path d="M 334.8270568847656 389.4289855957031 C 331.3291931152344 389.8951721191406 327.694580078125 390.4188232421875 324.71038818359375 392.3069152832031 C 321.7262268066406 394.19500732421875 319.5633850097656 397.8865966796875 320.5529479980469 401.2757873535156 C 321.7837829589844 405.4566650390625 327.385986328125 407.1118469238281 331.37744140625 405.3420715332031 C 335.368896484375 403.57232666015625 337.83172607421875 399.4527282714844 339.1266174316406 395.2886657714844 C 339.6565856933594 394.039794921875 339.69915771484375 392.6376953125 339.24591064453125 391.3590087890625 C 338.6692810058594 390.1553039550781 336.83087158203125 389.5254211425781 335.94970703125 390.53668212890625 L 334.8270568847656 389.4289855957031" stroke-width="0.6000000238418579" fill="rgb(159, 159, 159)" opacity="1.0"/>
    <path d="M 347.0750427246094 411.3249206542969 C 343.4356384277344 411.5481872558594 339.79345703125 413.023193359375 337.3929443359375 415.7652587890625 C 334.992431640625 418.50726318359375 334.01995849609375 422.57818603515625 335.3866271972656 425.97314453125 C 336.3559265136719 428.3721923828125 338.3883056640625 430.24932861328125 340.7206726074219 431.3748779296875 C 343.05303955078125 432.5003662109375 345.6683349609375 432.9312744140625 348.25738525390625 433.0076904296875 C 349.3841247558594 433.040283203125 350.5683288574219 432.992919921875 351.534912109375 432.418701171875 C 352.6434020996094 431.7608642578125 353.26226806640625 430.5340576171875 353.76849365234375 429.3443603515625 C 355.1976013183594 425.9857177734375 356.1663818359375 422.280029296875 355.4798583984375 418.69464111328125 C 354.7933349609375 415.1092529296875 352.0992126464844 411.72869873046875 348.5050964355469 411.1431884765625 L 347.0750427246094 411.3249206542969" stroke-width="0.6000000238418579" fill="rgb(159, 159, 159)" opacity="1.0"/>
    <path d="M 255.4410400390625 368.15277099609375 C 256.213134765625 364.552490234375 256.9154052734375 360.5171813964844 254.95037841796875 357.4117126464844 C 253.04360961914062 354.38897705078125 249.258056640625 353.2470397949219 245.7845458984375 352.3990783691406 C 244.37298583984375 352.05670166015625 242.89080810546875 351.72100830078125 241.4859619140625 352.0867919921875 C 239.10955810546875 352.7040710449219 237.668212890625 355.10260009765625 236.84814453125 357.4130554199219 C 236.08612060546875 359.5572509765625 235.635986328125 361.79974365234375 235.51141357421875 364.0718994140625 C 235.307861328125 367.7611999511719 236.27960205078125 371.9539794921875 239.46588134765625 373.82220458984375 C 241.1845703125 374.83331298828125 243.31005859375 374.9900817871094 245.2767333984375 374.6427001953125 C 247.243408203125 374.2953186035156 249.0928955078125 373.4762878417969 250.9072265625 372.64166259765625 C 252.7215576171875 371.80706787109375 254.4864501953125 370.9481201171875 255.7669677734375 369.4781188964844 L 255.4410400390625 368.15277099609375" stroke-width="0.6000000238418579" fill="rgb(218, 166, 20)" opacity="1.0"/>
    <path d="M 252.48025512695312 390.07208251953125 C 249.77175903320312 384.5863342285156 243.12899780273438 382.33489990234375 237.64324951171875 385.04339599609375 C 237.1734619140625 385.27532958984375 236.72076416015625 385.540283203125 236.28851318359375 385.8363037109375 C 234.64627075195312 386.9613037109375 233.275390625 388.6226501464844 232.92648315429688 390.5815124511719 C 232.6314697265625 392.2368469238281 233.080078125 393.93212890625 233.68301391601562 395.50054931640625 C 235.30279541015625 399.696533203125 238.0164794921875 403.3822937011719 241.54226684570312 406.1749572753906 C 242.4754638671875 406.91156005859375 243.495361328125 407.596923828125 244.66082763671875 407.8443603515625 C 246.6171875 408.2608947753906 248.65740966796875 407.3500671386719 250.1419677734375 406.0074768066406 C 252.34738159179688 404.0157470703125 253.6026611328125 401.093505859375 253.85003662109375 398.1314697265625 C 254.097412109375 395.16943359375 253.396728515625 392.17694091796875 252.14215087890625 389.48260498046875 L 252.48025512695312 390.07208251953125" stroke-width="0.6000000238418579" fill="rgb(143, 165, 67)" opacity="1.0"/>
    <path d="M 202.39883422851562 370.3369140625 C 200.75906372070312 377.1476745605469 208.9503173828125 383.8821716308594 215.47113037109375 381.44818115234375 C 221.99191284179688 379.01416015625 223.94219970703125 369.11822509765625 219.1649169921875 363.9915466308594 C 214.38763427734375 358.8648986816406 204.978271484375 359.66864013671875 200.71820068359375 365.24066162109375 L 202.39883422851562 370.3369140625" stroke-width="0.6000000238418579" fill="rgb(233, 92, 21)" opacity="1.0"/>
    <path d="M 266.983154296875 368.204345703125 C 266.914794921875 371.7286071777344 267.1986389160156 375.9455261230469 270.2717590332031 377.6965026855469 C 271.5218505859375 378.345703125 272.9425964355469 378.5910339355469 274.3380126953125 378.3985595703125 C 277.80340576171875 378.0152893066406 280.86810302734375 375.9761047363281 282.5601806640625 372.9277038574219 C 283.9888916015625 370.3381042480469 284.23199462890625 367.3067932128906 284.39892578125 364.3720703125 C 284.4900207519531 362.7233581542969 284.5343017578125 360.9687805175781 283.70367431640625 359.55218505859375 C 282.5810546875 357.67303466796875 280.23272705078125 356.94842529296875 278.0684509277344 356.62530517578125 C 274.901611328125 356.1484680175781 271.6784973144531 356.1873779296875 268.5240783691406 356.740478515625 C 267.4345397949219 356.93365478515625 266.3072509765625 357.2088928222656 265.46441650390625 357.92523193359375 C 264.71478271484375 358.6313781738281 264.18682861328125 359.5404052734375 263.94488525390625 360.5414123535156 C 263.0928955078125 363.54937744140625 263.60333251953125 366.7796325683594 265.3412170410156 369.37835693359375 L 266.983154296875 368.204345703125" stroke-width="0.6000000238418579" fill="rgb(70, 150, 179)" opacity="1.0"/>
    <path d="M 326.1026306152344 364.21197509765625 C 327.0773620605469 360.4932861328125 328.00164794921875 356.33050537109375 326.12091064453125 352.9804992675781 C 324.09844970703125 349.383056640625 319.4012756347656 348.06317138671875 315.3153991699219 348.6436462402344 C 313.73992919921875 348.8667907714844 312.14013671875 349.3515930175781 310.9649658203125 350.424072265625 C 309.9985656738281 351.30535888671875 309.39599609375 352.5080871582031 308.88128662109375 353.7101135253906 C 307.25360107421875 357.4987487792969 306.2846984863281 361.89166259765625 307.8465576171875 365.70697021484375 C 309.42333984375 369.5511169433594 313.648681640625 372.1459655761719 317.7919616699219 371.7893371582031 C 321.9352722167969 371.43267822265625 325.6813659667969 368.1935729980469 326.6001892089844 364.1348876953125 L 326.1026306152344 364.21197509765625" stroke-width="0.6000000238418579" fill="rgb(140, 28, 33)" opacity="1.0"/>
    <path d="M 351.1990051269531 393.8846435546875 C 347.6646728515625 394.05364990234375 343.9888610839844 394.2684631347656 340.84710693359375 395.9017028808594 C 337.7054138183594 397.5349426269531 335.2313232421875 401.0397644042969 335.93243408203125 404.5099182128906 C 336.8074951171875 408.79150390625 342.2642822265625 410.9205017089844 346.40234375 409.490966796875 C 350.5404357910156 408.0614013671875 353.3505859375 404.1544189453125 354.9975891113281 400.1039123535156 C 355.633056640625 398.9010925292969 355.7945556640625 397.50384521484375 355.4501953125 396.1878356933594 C 354.9761962890625 394.936279296875 353.1928405761719 394.1510009765625 352.2266540527344 395.08660888671875 L 351.1990051269531 393.8846435546875" stroke-width="0.6000000238418579" fill="rgb(159, 159, 159)" opacity="1.0"/>
    <path d="M 187.1280517578125 409.4096374511719 C 183.63272094726562 410.0198059082031 180.27032470703125 411.8408203125 178.24591064453125 414.7525634765625 C 176.22149658203125 417.664306640625 175.72210693359375 421.70654296875 177.41156005859375 424.84161376953125 C 178.60882568359375 427.056640625 180.777587890625 428.6517333984375 183.15505981445312 429.487548828125 C 185.53253173828125 430.3232421875 188.10836791992188 430.4566650390625 190.62042236328125 430.2501220703125 C 191.71356201171875 430.1595458984375 192.8536376953125 429.98541259765625 193.72616577148438 429.325439453125 C 194.72686767578125 428.5692138671875 195.19247436523438 427.31573486328125 195.55313110351562 426.11041259765625 C 196.5712890625 422.70751953125 197.10675048828125 419.01904296875 196.05441284179688 415.6260986328125 C 195.0020751953125 412.233154296875 192.03045654296875 409.2558288574219 188.4913330078125 409.0789794921875 L 187.1280517578125 409.4096374511719" stroke-width="0.6000000238418579" fill="rgb(159, 159, 159)" opacity="1.0"/>
    <path d="M 358.1559753417969 374.1815185546875 C 354.5933532714844 375.1844177246094 350.6767578125 376.4535217285156 348.8382263183594 379.6573791503906 C 347.0458679199219 382.7705993652344 347.80694580078125 386.67144775390625 348.6829528808594 390.156982421875 C 349.0408935546875 391.5724182128906 349.4378967285156 393.0474548339844 350.4222106933594 394.1246337890625 C 352.0859375 395.94744873046875 354.8943176269531 396.10333251953125 357.3329162597656 395.7482604980469 C 359.5964660644531 395.4195556640625 361.8011169433594 394.7675476074219 363.87933349609375 393.8121643066406 C 367.25433349609375 392.2621154785156 370.52545166015625 389.4310302734375 370.691162109375 385.7221374511719 C 370.7835693359375 383.7199401855469 369.9256286621094 381.7569885253906 368.694091796875 380.1717529296875 C 367.4625549316406 378.5865478515625 365.86669921875 377.3267517089844 364.27349853515625 376.1055603027344 C 362.6803283691406 374.88433837890625 361.0887145996094 373.718505859375 359.1811828613281 373.26995849609375 L 358.1559753417969 374.1815185546875" stroke-width="0.6000000238418579" fill="rgb(218, 166, 20)" opacity="1.0"/>
    <path d="M 373.7170715332031 384.1643371582031 C 369.51544189453125 388.6711730957031 369.76287841796875 395.73077392578125 374.26971435546875 399.9324035644531 C 374.6556396484375 400.2922058105469 375.0666198730469 400.6241455078125 375.49951171875 400.92578125 C 377.1446533203125 402.07159423828125 379.1982116699219 402.7706298828125 381.1676940917969 402.40093994140625 C 382.8320617675781 402.08868408203125 384.26898193359375 401.0617980957031 385.5313720703125 399.9347229003906 C 388.90625 396.9132080078125 391.4105224609375 393.0431213378906 392.7840881347656 388.7265625 C 393.1452331542969 387.5849304199219 393.4272155761719 386.37994384765625 393.24481201171875 385.1939697265625 C 392.9397277832031 383.2027282714844 391.3544616699219 381.605712890625 389.56060791015625 380.68597412109375 C 386.8983459472656 379.31866455078125 383.69830322265625 379.1780700683594 380.8200988769531 380.0010070800781 C 377.94189453125 380.82391357421875 375.3729553222656 382.55072021484375 373.2823791503906 384.69293212890625 L 373.7170715332031 384.1643371582031" stroke-width="0.6000000238418579" fill="rgb(143, 165, 67)" opacity="1.0"/>
    <path d="M 366.93316650390625 361.17449951171875 C 369.7924499511719 367.6380920410156 380.4844665527344 368.0162658691406 384.2193603515625 362.069580078125 C 387.9541931152344 356.12286376953125 383.45318603515625 346.9962463378906 376.48272705078125 345.814697265625 C 369.51220703125 344.6331787109375 362.46319580078125 351.0433044433594 362.4632263183594 358.1197509765625 L 366.93316650390625 361.17449951171875" stroke-width="0.6000000238418579" fill="rgb(233, 92, 21)" opacity="1.0"/>
    <path d="M 398.9223937988281 363.8161315917969 C 398.9294738769531 367.3020324707031 399.29949951171875 371.4653015136719 402.375 373.1313781738281 C 403.6247253417969 373.7467956542969 405.0346374511719 373.959228515625 406.4101867675781 373.7393798828125 C 409.8283386230469 373.2869873046875 412.815185546875 371.2059020996094 414.423583984375 368.1560363769531 C 415.78131103515625 365.5654296875 415.9573974609375 362.5632019042969 416.060302734375 359.6580810546875 C 416.1153564453125 358.02606201171875 416.12200927734375 356.29034423828125 415.270751953125 354.9073486328125 C 414.1209716796875 353.0732116699219 411.7838134765625 352.40655517578125 409.6371154785156 352.1329650878906 C 406.4959411621094 351.7286376953125 403.31005859375 351.8353576660156 400.2029724121094 352.4490661621094 C 399.12982177734375 352.6631774902344 398.0211486816406 352.9591979980469 397.2029724121094 353.685302734375 C 396.4767761230469 354.39935302734375 395.9740295410156 355.3092956542969 395.7560729980469 356.30413818359375 C 394.9774475097656 359.2961730957031 395.550537109375 362.4791259765625 397.3238830566406 365.0116882324219 L 398.9223937988281 363.8161315917969" stroke-width="0.6000000238418579" fill="rgb(70, 150, 179)" opacity="1.0"/>
    <path d="M 387.99383544921875 414.89251708984375 C 386.3076477050781 418.2674560546875 384.580322265625 422.0791015625 385.71099853515625 425.67596435546875 C 386.9278869628906 429.53900146484375 391.1730041503906 431.7540283203125 395.2143249511719 432.0206298828125 C 396.7724304199219 432.1240234375 398.40673828125 431.9810791015625 399.751708984375 431.18804931640625 C 400.85760498046875 430.5364990234375 401.6789245605469 429.5029296875 402.41571044921875 428.4522705078125 C 404.7431335449219 425.141845703125 406.5597229003906 421.11810302734375 405.82916259765625 417.1387939453125 C 405.090087890625 413.128662109375 401.5552978515625 409.7842712402344 397.50396728515625 409.2911376953125 C 393.4526672363281 408.7980041503906 389.20147705078125 411.1534118652344 387.50042724609375 414.8662109375 L 387.99383544921875 414.89251708984375" stroke-width="0.6000000238418579" fill="rgb(140, 28, 33)" opacity="1.0"/>
    <path d="M 408.073486328125 392.3756408691406 C 406.9997253417969 395.7236022949219 405.9193420410156 399.2192077636719 406.3450012207031 402.71185302734375 C 406.7706604003906 406.2044372558594 409.1705322265625 409.7276306152344 412.6441650390625 410.2838134765625 C 416.9334716796875 410.9607849121094 420.81536865234375 406.6241455078125 420.92633056640625 402.2752380371094 C 421.0372314453125 397.9263610839844 418.380126953125 393.9503479003906 415.184326171875 391.0068054199219 C 414.2862548828125 389.9964904785156 413.042236328125 389.3595275878906 411.6976013183594 389.22161865234375 C 410.3677673339844 389.226806640625 409.0158386230469 390.6129150390625 409.54998779296875 391.8379211425781 L 408.073486328125 392.3756408691406" stroke-width="0.6000000238418579" fill="rgb(159, 159, 159)" opacity="1.0"/>
    <path d="M 434.3902587890625 368.5530090332031 C 435.04296875 372.1602478027344 436.94580078125 375.6224365234375 439.96697998046875 377.6953125 C 442.9881591796875 379.7681579589844 447.16748046875 380.25830078125 450.3956298828125 378.49285888671875 C 452.6763916015625 377.2417907714844 454.31048583984375 374.9909362792969 455.15875244140625 372.52935791015625 C 456.00701904296875 370.0677795410156 456.12841796875 367.40576171875 455.89892578125 364.8117980957031 C 455.79833984375 363.6830139160156 455.6112060546875 362.50628662109375 454.92376708984375 361.60906982421875 C 454.1361083984375 360.58001708984375 452.838134765625 360.1070251464844 451.590576171875 359.74212646484375 C 448.0684814453125 358.7119445800781 444.2542724609375 358.1823425292969 440.75567626953125 359.29119873046875 C 437.257080078125 360.40008544921875 434.2000732421875 363.4891357421875 434.0399169921875 367.14666748046875 L 434.3902587890625 368.5530090332031" stroke-width="0.6000000238418579" fill="rgb(159, 159, 159)" opacity="1.0"/>
    <path d="M 422.7662353515625 408.9226379394531 C 419.4735107421875 410.3337097167969 415.8746337890625 412.0447998046875 414.513671875 415.3509521484375 C 413.185546875 418.5643310546875 414.40716552734375 422.212158203125 415.686767578125 425.44677734375 C 416.20849609375 426.7601318359375 416.77520751953125 428.12567138671875 417.85546875 429.03546142578125 C 419.681640625 430.5753173828125 422.39642333984375 430.37127685546875 424.6920166015625 429.72344970703125 C 426.8228759765625 429.12298583984375 428.8565673828125 428.2196044921875 430.73065185546875 427.0411376953125 C 433.7744140625 425.1285400390625 436.55712890625 421.999755859375 436.2491455078125 418.4195556640625 C 436.085693359375 416.4864501953125 435.0152587890625 414.71063232421875 433.63372802734375 413.34442138671875 C 432.252197265625 411.9781799316406 430.56207275390625 410.97015380859375 428.87939453125 409.998779296875 C 427.1966552734375 409.0274353027344 425.52239990234375 408.1090087890625 423.63525390625 407.9187316894531 L 422.7662353515625 408.9226379394531" stroke-width="0.6000000238418579" fill="rgb(218, 166, 20)" opacity="1.0"/>
    <path d="M 142.5610809326172 226.84457397460938 C 138.98944091796875 231.6068115234375 139.9546356201172 238.36279296875 144.71688842773438 241.93441772460938 C 145.12466430664062 242.240234375 145.55364990234375 242.51678466796875 146.00057983398438 242.76190185546875 C 147.698974609375 243.69305419921875 149.74366760253906 244.15289306640625 151.59744262695312 243.5948486328125 C 153.1640625 243.12338256835938 154.4385528564453 241.9888916015625 155.5350341796875 240.776123046875 C 158.465576171875 237.52587890625 160.47235107421875 233.55020141601562 161.34698486328125 229.26214599609375 C 161.57626342773438 228.1282958984375 161.72296142578125 226.94171142578125 161.42550659179688 225.8212890625 C 160.92724609375 223.93994140625 159.2398681640625 222.5692138671875 157.42193603515625 221.87057495117188 C 154.7236328125 220.83148193359375 151.6352081298828 221.02618408203125 148.9552001953125 222.11328125 C 146.27520751953125 223.20037841796875 143.98544311523438 225.1239013671875 142.19796752929688 227.39715576171875 L 142.5610809326172 226.84457397460938" stroke-width="0.6000000238418579" fill="rgb(143, 165, 67)" opacity="1.0"/>
    <path d="M 169.6497802734375 262.1592712402344 C 171.6912841796875 268.83502197265625 182.13177490234375 270.46710205078125 186.49578857421875 265.0760498046875 C 190.85980224609375 259.6849670410156 187.5224609375 250.20404052734375 180.82626342773438 248.22320556640625 C 174.13006591796875 246.2423095703125 166.46133422851562 251.6968994140625 165.62664794921875 258.63641357421875 L 169.6497802734375 262.1592712402344" stroke-width="0.6000000238418579" fill="rgb(233, 92, 21)" opacity="1.0"/>
    <path d="M 153.44827270507812 314.5280456542969 C 151.60317993164062 317.50250244140625 149.70765686035156 321.24688720703125 151.44386291503906 324.2999267578125 C 152.18206787109375 325.4880065917969 153.27076721191406 326.4177551269531 154.55978393554688 326.96087646484375 C 157.71295166015625 328.3905029296875 161.36346435546875 328.203125 164.35369873046875 326.4581604003906 C 166.88641357421875 324.971435546875 168.63079833984375 322.5064697265625 170.26116943359375 320.0853576660156 C 171.1748046875 318.72381591796875 172.1021728515625 317.2481689453125 172.11114501953125 315.6175231933594 C 172.10528564453125 313.4439392089844 170.46759033203125 311.63470458984375 168.78347778320312 310.2615661621094 C 166.3212890625 308.2489318847656 163.54962158203125 306.6480712890625 160.57586669921875 305.5211181640625 C 159.54766845703125 305.1336975097656 158.44561767578125 304.7972106933594 157.36279296875 304.98150634765625 C 156.36474609375 305.20440673828125 155.453125 305.7128601074219 154.7390594482422 306.4449157714844 C 152.4866485595703 308.58123779296875 151.28477478027344 311.5981140136719 151.45115661621094 314.6980285644531 L 153.44827270507812 314.5280456542969" stroke-width="0.6000000238418579" fill="rgb(70, 150, 179)" opacity="1.0"/>
    <path d="M 124.31556701660156 302.56304931640625 C 123.27542114257812 299.0052795410156 121.97314453125 295.10540771484375 118.75559997558594 293.269775390625 C 115.29806518554688 291.2999572753906 110.7601318359375 292.5404968261719 107.6707763671875 295.0484924316406 C 106.47923278808594 296.01495361328125 105.39743041992188 297.2098083496094 104.9583740234375 298.6796875 C 104.59698486328125 299.88787841796875 104.69589233398438 301.1811828613281 104.86709594726562 302.4302978515625 C 105.40219116210938 306.3700256347656 106.78182983398438 310.48223876953125 109.96675109863281 312.86077880859375 C 113.17831420898438 315.2557678222656 117.9591064453125 315.3033752441406 121.20703125 312.951904296875 C 124.4549560546875 310.6004638671875 125.9437255859375 306.06341552734375 124.6885986328125 302.2523498535156 L 124.31556701660156 302.56304931640625" stroke-width="0.6000000238418579" fill="rgb(140, 28, 33)" opacity="1.0"/>
    <path d="M 139.41036987304688 275.9270324707031 C 136.20401000976562 277.35394287109375 132.88333129882812 278.8740539550781 130.56629943847656 281.5133972167969 C 128.24932861328125 284.1526794433594 127.22232055664062 288.2820129394531 129.11807250976562 291.23773193359375 C 131.46630859375 294.88104248046875 137.27598571777344 294.88720703125 140.58724975585938 292.0780029296875 C 143.89849853515625 289.2687683105469 145.091552734375 284.6468505859375 145.1577606201172 280.3103942871094 C 145.31275939941406 278.9700622558594 144.95968627929688 277.6203918457031 144.168212890625 276.5276794433594 C 143.28009033203125 275.5411682128906 141.3492431640625 275.4564208984375 140.79248046875 276.66864013671875 L 139.41036987304688 275.9270324707031" stroke-width="0.6000000238418579" fill="rgb(159, 159, 159)" opacity="1.0"/>
    <path d="M 159.97637939453125 293.3035583496094 C 158.3175048828125 296.4861755371094 157.712890625 300.3064880371094 158.8070068359375 303.7226867675781 C 159.901123046875 307.1388854980469 162.8408203125 310.02520751953125 166.39764404296875 310.5957336425781 C 168.912841796875 310.9959411621094 171.5274658203125 310.234619140625 173.66046142578125 308.8388671875 C 175.79345703125 307.443115234375 177.4842529296875 305.4561767578125 178.86279296875 303.31146240234375 C 179.46212768554688 302.3777770996094 180.023193359375 301.35504150390625 180.029541015625 300.2484130859375 C 180.03738403320312 298.9797058105469 179.31683349609375 297.8350830078125 178.5704345703125 296.8043518066406 C 176.46322631835938 293.8944091796875 173.82977294921875 291.19659423828125 170.45755004882812 289.955810546875 C 167.0853271484375 288.71502685546875 162.866943359375 289.2713317871094 160.5489501953125 292.0052490234375 L 159.97637939453125 293.3035583496094" stroke-width="0.6000000238418579" fill="rgb(159, 159, 159)" opacity="1.0"/>
    <path d="M 124.04653930664062 344.8568115234375 C 123.44857788085938 341.32830810546875 122.63107299804688 337.43206787109375 119.73970031738281 335.3349609375 C 116.93069458007812 333.2915344238281 113.10185241699219 333.6222229003906 109.6605224609375 334.1060485839844 C 108.26280212402344 334.3046875 106.80375671386719 334.53472900390625 105.6668701171875 335.3703918457031 C 103.74320983886719 336.7825927734375 103.3045654296875 339.4667663574219 103.39521789550781 341.8479309082031 C 103.478515625 344.0580749511719 103.87872314453125 346.2448425292969 104.5836181640625 348.3412170410156 C 105.7269287109375 351.74560546875 108.11260986328125 355.1817932128906 111.66159057617188 355.7225036621094 C 113.5771484375 356.0172119140625 115.55271911621094 355.3941650390625 117.20350646972656 354.373046875 C 118.85427856445312 353.3519287109375 120.2296142578125 351.9471130371094 121.56759643554688 350.5408630371094 C 122.90557861328125 349.1346130371094 124.19015502929688 347.72418212890625 124.81756591796875 345.9362487792969 L 124.04653930664062 344.8568115234375" stroke-width="0.6000000238418579" fill="rgb(218, 166, 20)" opacity="1.0"/>
    <path d="M 166.30694580078125 349.725830078125 C 161.85906982421875 353.4916687011719 161.30615234375 360.1502380371094 165.072021484375 364.5981140136719 C 165.39447021484375 364.97900390625 165.74356079101562 365.33648681640625 166.11663818359375 365.66796875 C 167.534423828125 366.92724609375 169.38555908203125 367.812255859375 171.276611328125 367.6841125488281 C 172.87469482421875 367.57598876953125 174.338623046875 366.7712707519531 175.64971923828125 365.8530578613281 C 179.15582275390625 363.390380859375 181.9385986328125 360.0338439941406 183.70892333984375 356.1321105957031 C 184.1751708984375 355.0999755859375 184.57406616210938 353.99951171875 184.53466796875 352.865234375 C 184.4696044921875 350.9609375 183.15823364257812 349.2845153808594 181.57559204101562 348.2210998535156 C 179.22705078125 346.640625 176.2369384765625 346.152587890625 173.44189453125 346.6053771972656 C 170.64691162109375 347.05816650390625 168.04180908203125 348.3943786621094 165.83984375 350.1739807128906 L 166.30694580078125 349.725830078125" stroke-width="0.6000000238418579" fill="rgb(143, 165, 67)" opacity="1.0"/>
    <path d="M 132.93690490722656 378.5928955078125 C 130.1957550048828 372.1756286621094 119.64488220214844 371.6672058105469 115.88253784179688 377.4908447265625 C 112.12020874023438 383.3145446777344 116.448486328125 392.3816223144531 123.31513977050781 393.6361083984375 C 130.18179321289062 394.890625 137.2218780517578 388.6513366699219 137.31124877929688 381.6651306152344 L 132.93690490722656 378.5928955078125" stroke-width="0.6000000238418579" fill="rgb(233, 92, 21)" opacity="1.0"/>
    <path d="M 184.2474365234375 364.2179870605469 C 183.18704223632812 367.4771728515625 182.25839233398438 371.4803466796875 184.62197875976562 373.9784240722656 C 185.60125732421875 374.9359436035156 186.85357666015625 375.5660095214844 188.20611572265625 375.7816467285156 C 191.538330078125 376.4052429199219 194.966064453125 375.37506103515625 197.40237426757812 373.0177917480469 C 199.46392822265625 371.01287841796875 200.54745483398438 368.26165771484375 201.53277587890625 365.57879638671875 C 202.0838623046875 364.07080078125 202.62130737304688 362.4510803222656 202.249267578125 360.8983154296875 C 201.7364501953125 358.83270263671875 199.75677490234375 357.4944152832031 197.83480834960938 356.5816955566406 C 195.02365112304688 355.2424011230469 192.01425170898438 354.366943359375 188.92333984375 353.9892578125 C 187.85513305664062 353.86083984375 186.7286376953125 353.7980651855469 185.741943359375 354.2260437011719 C 184.8448486328125 354.6709289550781 184.09658813476562 355.3672180175781 183.58837890625 356.23004150390625 C 181.945068359375 358.7872619628906 181.5062255859375 361.9366760253906 182.387939453125 364.8457336425781 L 184.2474365234375 364.2179870605469" stroke-width="0.6000000238418579" fill="rgb(70, 150, 179)" opacity="1.0"/>
  </g>
</svg>
