<?xml version="1.0" ?>
<svg xmlns="http://www.w3.org/2000/svg" version="1.1" width="600" height="600">
  <defs/>
  <g>
    <path d="M 350.0336608886719 349.759765625 C 353.0202941894531 352.4506530761719 358.65875244140625 350.1618957519531 359.2154846191406 346.20672607421875 C 359.772216796875 342.2515563964844 355.3143615722656 338.55975341796875 351.421142578125 339.5664978027344 C 347.5279541015625 340.5732116699219 345.3584289550781 345.5392761230469 347.003173828125 349.212890625 L 350.0336608886719 349.759765625" stroke-width="0.6000000238418579" fill="rgb(233, 92, 21)" opacity="1.0"/>
    <path d="M 103.23446655273438 204.1763916015625 C 104.15489196777344 202.94293212890625 105.12643432617188 201.37408447265625 104.48095703125 199.97119140625 C 104.20236206054688 199.4228515625 103.76048278808594 198.97454833984375 103.21627807617188 198.68798828125 C 101.88885498046875 197.94284057617188 100.2825927734375 197.88729858398438 98.90687561035156 198.53900146484375 C 97.74128723144531 199.09478759765625 96.88418579101562 200.10885620117188 96.07868957519531 201.1080322265625 C 95.62710571289062 201.67001342773438 95.16523742675781 202.281494140625 95.09982299804688 202.9954833984375 C 95.02043151855469 203.94793701171875 95.66966247558594 204.80224609375 96.35565185546875 205.46728515625 C 97.35838317871094 206.4417724609375 98.51223754882812 207.24755859375 99.7724609375 207.8533935546875 C 100.20829772949219 208.0618896484375 100.67837524414062 208.25082397460938 101.15968322753906 208.21090698242188 C 101.60530090332031 208.15087890625 102.02383422851562 207.9625244140625 102.3642578125 207.66876220703125 C 103.4315185546875 206.81781005859375 104.07176208496094 205.54150390625 104.11575317382812 204.17724609375 L 103.23446655273438 204.1763916015625" stroke-width="0.6000000238418579" fill="rgb(70, 150, 179)" opacity="1.0"/>
    <path d="M 455.407958984375 427.4388427734375 C 455.84674072265625 428.6422119140625 456.383544921875 429.9576416015625 457.53436279296875 430.5181884765625 C 458.7708740234375 431.11962890625 460.3077392578125 430.5897216796875 461.3165283203125 429.65533447265625 C 461.7056884765625 429.2952880859375 462.0517578125 428.85888671875 462.1700439453125 428.3421630859375 C 462.2674560546875 427.91748046875 462.20428466796875 427.4737548828125 462.11712646484375 427.046875 C 461.84393310546875 425.700439453125 461.275634765625 424.3134765625 460.1239013671875 423.5650634765625 C 458.96258544921875 422.8115234375 457.31298828125 422.9027099609375 456.2459716796875 423.78662109375 C 455.17901611328125 424.67059326171875 454.767822265625 426.2685546875 455.286376953125 427.554443359375 L 455.407958984375 427.4388427734375" stroke-width="0.6000000238418579" fill="rgb(140, 28, 33)" opacity="1.0"/>
    <path d="M 89.45065307617188 203.13653564453125 C 91.57568359375 202.837158203125 93.7835693359375 202.50225830078125 95.58978271484375 201.34051513671875 C 97.39596557617188 200.1788330078125 98.69448852539062 197.924072265625 98.07736206054688 195.86752319335938 C 97.30990600585938 193.33062744140625 93.89559936523438 192.34945678710938 91.476318359375 193.44378662109375 C 89.05703735351562 194.5380859375 87.5780029296875 197.05447387695312 86.8094482421875 199.59262084960938 C 86.49281311035156 200.3544921875 86.4732666015625 201.20733642578125 86.75471496582031 201.98284912109375 C 87.11080932617188 202.71224975585938 88.23165893554688 203.08697509765625 88.762939453125 202.46798706054688 L 89.45065307617188 203.13653564453125" stroke-width="0.6000000238418579" fill="rgb(159, 159, 159)" opacity="1.0"/>
    <path d="M 376.9168395996094 298.11749267578125 C 377.85650634765625 297.4201354980469 378.5777282714844 296.3856506347656 378.7431640625 295.22784423828125 C 378.9085998535156 294.0700378417969 378.4572448730469 292.804931640625 377.49517822265625 292.1312255859375 C 376.81439208984375 291.65576171875 375.9390869140625 291.5068359375 375.11474609375 291.6125793457031 C 374.2903747558594 291.7182922363281 373.5115661621094 292.0603942871094 372.8019104003906 292.49322509765625 C 372.4931640625 292.6817626953125 372.1829833984375 292.9018859863281 372.0235900878906 293.2255554199219 C 371.8406677246094 293.5965881347656 371.8890686035156 294.034912109375 371.96124267578125 294.4435119628906 C 372.1650695800781 295.5970458984375 372.5534362792969 296.7632751464844 373.36590576171875 297.6072998046875 C 374.17840576171875 298.4513244628906 375.49493408203125 298.8887023925781 376.5640563964844 298.4167785644531 L 376.9168395996094 298.11749267578125" stroke-width="0.6000000238418579" fill="rgb(159, 159, 159)" opacity="1.0"/>
    <path d="M 95.74989318847656 433.48876953125 C 95.98365783691406 432.1767578125 96.1866455078125 430.708251953125 95.4366455078125 429.60986328125 C 94.708740234375 428.5406494140625 93.32504272460938 428.1754150390625 92.05793762207031 427.91259765625 C 91.54302978515625 427.806640625 91.002685546875 427.70391845703125 90.4991455078125 427.85400390625 C 89.64739990234375 428.1072998046875 89.1563720703125 428.99310302734375 88.88894653320312 429.83917236328125 C 88.64042663574219 430.6243896484375 88.50595092773438 431.441162109375 88.4896240234375 432.2646484375 C 88.46261596679688 433.60162353515625 88.86712646484375 435.10595703125 90.04322814941406 435.74139404296875 C 90.67767333984375 436.08538818359375 91.44845581054688 436.115234375 92.15542602539062 435.9647216796875 C 92.86239624023438 435.814208984375 93.52102661132812 435.49456787109375 94.16671752929688 435.16973876953125 C 94.81243896484375 434.844970703125 95.43994140625 434.511962890625 95.88453674316406 433.9639892578125 L 95.74989318847656 433.48876953125" stroke-width="0.6000000238418579" fill="rgb(218, 166, 20)" opacity="1.0"/>
    <path d="M 100.9866943359375 139.24485778808594 C 103.328369140625 139.69618225097656 105.59254455566406 138.1637420654297 106.04385375976562 135.8220672607422 C 106.08251953125 135.62155151367188 106.10687255859375 135.41854858398438 106.11680603027344 135.21456909179688 C 106.15434265136719 134.4395294189453 105.96139526367188 133.62240600585938 105.435302734375 133.0525665283203 C 104.99075317382812 132.57095336914062 104.35859680175781 132.31085205078125 103.7294921875 132.1285858154297 C 102.04484558105469 131.64303588867188 100.26092529296875 131.61740112304688 98.56301879882812 132.0543670654297 C 98.11441040039062 132.17062377929688 97.66128540039062 132.3258819580078 97.30987548828125 132.6295166015625 C 96.7196044921875 133.13890075683594 96.52178955078125 133.987060546875 96.58897399902344 134.764404296875 C 96.68789672851562 135.91851806640625 97.29963684082031 136.99679565429688 98.16119384765625 137.77146911621094 C 99.02275085449219 138.54612731933594 100.11712646484375 139.0335693359375 101.2493896484375 139.27874755859375 L 100.9866943359375 139.24485778808594" stroke-width="0.6000000238418579" fill="rgb(143, 165, 67)" opacity="1.0"/>
    <path d="M 453.6094970703125 343.8460693359375 C 456.4217529296875 345.8094482421875 460.95428466796875 343.27728271484375 461.0086669921875 339.86993408203125 C 461.0631103515625 336.46258544921875 456.899658203125 333.806884765625 453.7095947265625 335.0696716308594 C 450.51953125 336.33245849609375 449.206298828125 340.7656555175781 450.986083984375 343.7025146484375 L 453.6094970703125 343.8460693359375" stroke-width="0.6000000238418579" fill="rgb(233, 92, 21)" opacity="1.0"/>
    <path d="M 103.6661376953125 214.89617919921875 C 104.906982421875 213.79541015625 106.2750244140625 212.351806640625 105.90017700195312 210.73019409179688 C 105.72590637207031 210.09063720703125 105.35746765136719 209.52093505859375 104.84568786621094 209.09967041015625 C 103.60745239257812 208.0233154296875 101.92431640625 207.61386108398438 100.33001708984375 208.00119018554688 C 98.97845458984375 208.33319091796875 97.85238647460938 209.21627807617188 96.78401184082031 210.0948486328125 C 96.18466186523438 210.58938598632812 95.56364440917969 211.13385009765625 95.33865356445312 211.8731689453125 C 95.04684448242188 212.86102294921875 95.54545593261719 213.90447998046875 96.12420654296875 214.75616455078125 C 96.96966552734375 216.00369262695312 98.011474609375 217.10614013671875 99.20919799804688 218.02078247070312 C 99.6236572265625 218.33599853515625 100.07852172851562 218.63812255859375 100.59521484375 218.70111083984375 C 101.07862854003906 218.735107421875 101.56149291992188 218.627685546875 101.98493957519531 218.39199829101562 C 103.29719543457031 217.72698974609375 104.25167846679688 216.51983642578125 104.59608459472656 215.08953857421875 L 103.6661376953125 214.89617919921875" stroke-width="0.6000000238418579" fill="rgb(70, 150, 179)" opacity="1.0"/>
    <path d="M 101.98056030273438 81.8458251953125 C 102.23333740234375 83.563720703125 102.58564758300781 85.45724487304688 103.95989990234375 86.51676940917969 C 105.43685913085938 87.65403747558594 107.62245178222656 87.37159729003906 109.21781921386719 86.40751647949219 C 109.83308410644531 86.03607177734375 110.41218566894531 85.55157470703125 110.71084594726562 84.89794921875 C 110.95655822753906 84.36074829101562 110.99420166015625 83.75430297851562 110.99545288085938 83.1636962890625 C 111.00167846679688 81.30120849609375 110.627197265625 79.30413818359375 109.30313110351562 77.99485778808594 C 107.9677734375 76.67620849609375 105.75270080566406 76.34530639648438 104.0938720703125 77.22651672363281 C 102.43505859375 78.10772705078125 101.45123291015625 80.11660766601562 101.78741455078125 81.96588134765625 L 101.98056030273438 81.8458251953125" stroke-width="0.6000000238418579" fill="rgb(140, 28, 33)" opacity="1.0"/>
    <path d="M 90.91098022460938 420.9451904296875 C 93.1143798828125 420.51678466796875 95.40243530273438 420.04669189453125 97.22586059570312 418.73486328125 C 99.04925537109375 417.4229736328125 100.28285217285156 414.9970703125 99.52621459960938 412.8824462890625 C 98.58639526367188 410.2742919921875 94.96649169921875 409.43536376953125 92.4990234375 410.710205078125 C 90.03153991699219 411.98504638671875 88.6236572265625 414.694091796875 87.95906066894531 417.38720703125 C 87.66981506347656 418.20025634765625 87.69586181640625 419.0921630859375 88.03207397460938 419.886962890625 C 88.44375610351562 420.62945556640625 89.63494873046875 420.9598388671875 90.15618896484375 420.2843017578125 L 90.91098022460938 420.9451904296875" stroke-width="0.6000000238418579" fill="rgb(159, 159, 159)" opacity="1.0"/>
    <path d="M 468.638916015625 59.19972229003906 C 469.646484375 57.87083435058594 470.2205810546875 56.167816162109375 469.985107421875 54.51777648925781 C 469.7496337890625 52.86773681640625 468.6275634765625 51.316864013671875 467.0426025390625 50.778839111328125 C 465.9215087890625 50.39984130859375 464.66455078125 50.545196533203125 463.578857421875 51.01866149902344 C 462.49322509765625 51.49212646484375 461.5640869140625 52.270782470703125 460.7657470703125 53.146026611328125 C 460.4185791015625 53.52711486816406 460.08203125 53.95198059082031 459.9930419921875 54.45841979980469 C 459.8907470703125 55.03900146484375 460.13177490234375 55.619384765625 460.3935546875 56.14961242675781 C 461.1324462890625 57.64654541015625 462.12890625 59.087249755859375 463.57720947265625 59.91796875 C 465.0255126953125 60.748687744140625 467.00115966796875 60.821990966796875 468.275634765625 59.749908447265625 L 468.638916015625 59.19972229003906" stroke-width="0.6000000238418579" fill="rgb(159, 159, 159)" opacity="1.0"/>
    <path d="M 92.39167785644531 106.67019653320312 C 93.74942016601562 107.11381530761719 95.27783203125 107.548095703125 96.55548095703125 106.91567993164062 C 97.79884338378906 106.30242919921875 98.39263916015625 104.88816833496094 98.86039733886719 103.5823974609375 C 99.04963684082031 103.05168151855469 99.2391357421875 102.49343872070312 99.15487670898438 101.9366455078125 C 99.012939453125 100.99482727050781 98.14593505859375 100.34164428710938 97.28775024414062 99.93173217773438 C 96.49134826660156 99.55096435546875 95.6444091796875 99.2864990234375 94.77284240722656 99.146484375 C 93.35774230957031 98.91860961914062 91.7008056640625 99.123779296875 90.85107421875 100.27743530273438 C 90.39140319824219 100.89956665039062 90.24488830566406 101.7132568359375 90.29928588867188 102.48605346679688 C 90.35369873046875 103.25886535644531 90.59481811523438 104.00555419921875 90.8433837890625 104.73931884765625 C 91.0919189453125 105.47308349609375 91.35186767578125 106.18875122070312 91.86715698242188 106.74227905273438 L 92.39167785644531 106.67019653320312" stroke-width="0.6000000238418579" fill="rgb(218, 166, 20)" opacity="1.0"/>
    <path d="M 120.48277282714844 127.10615539550781 C 122.90354919433594 126.16842651367188 124.10580444335938 123.44583129882812 123.1680908203125 121.02505493164062 C 123.08779907226562 120.8177490234375 122.99288940429688 120.61642456054688 122.88409423828125 120.42256164550781 C 122.4705810546875 119.68600463867188 121.82015991210938 119.04389953613281 121.00541687011719 118.822509765625 C 120.31692504882812 118.63534545898438 119.58346557617188 118.76095581054688 118.8978271484375 118.95661926269531 C 117.06326293945312 119.48284912109375 115.40306091308594 120.49070739746094 114.08967590332031 121.87548828125 C 113.74313354492188 122.24211120605469 113.41497802734375 122.64730834960938 113.26640319824219 123.13055419921875 C 113.01652526855469 123.94168090820312 113.32449340820312 124.83834838867188 113.83590698242188 125.5164794921875 C 114.594482421875 126.52377319335938 115.78219604492188 127.16458129882812 117.0247802734375 127.38093566894531 C 118.267333984375 127.59727478027344 119.55856323242188 127.4140625 120.74465942382812 126.98550415039062 L 120.48277282714844 127.10615539550781" stroke-width="0.6000000238418579" fill="rgb(143, 165, 67)" opacity="1.0"/>
    <path d="M 391.4253234863281 304.0269470214844 C 393.50927734375 306.7497253417969 398.5945739746094 305.7113037109375 399.6791687011719 302.48187255859375 C 400.76373291015625 299.25244140625 397.6025085449219 295.46063232421875 394.18084716796875 295.6966857910156 C 390.7591552734375 295.9327392578125 388.1643981933594 299.75787353515625 388.9697265625 303.0950622558594 L 391.4253234863281 304.0269470214844" stroke-width="0.6000000238418579" fill="rgb(233, 92, 21)" opacity="1.0"/>
    <path d="M 122.6849365234375 113.22756958007812 C 123.73733520507812 112.12039184570312 124.87962341308594 110.688720703125 124.40875244140625 109.23008728027344 C 124.19879150390625 108.65690612792969 123.81613159179688 108.16299438476562 123.31356811523438 107.8165283203125 C 122.09315490722656 106.92578125 120.51670837402344 106.68182373046875 119.08413696289062 107.1619873046875 C 117.86996459960938 107.57243347167969 116.90582275390625 108.47085571289062 115.99427795410156 109.36065673828125 C 115.4830322265625 109.86131286621094 114.955810546875 110.40951538085938 114.8072509765625 111.10546875 C 114.61680603027344 112.03474426269531 115.15597534179688 112.95318603515625 115.75369262695312 113.68937683105469 C 116.62710571289062 114.76791381835938 117.66932678222656 115.69795227050781 118.83993530273438 116.44345092773438 C 119.244873046875 116.70025634765625 119.68589782714844 116.94183349609375 120.16493225097656 116.95919799804688 C 120.61117553710938 116.95256042480469 121.04583740234375 116.81622314453125 121.41592407226562 116.56680297851562 C 122.56796264648438 115.85391235351562 123.34928894042969 114.67152404785156 123.55335998535156 113.33219909667969 L 122.6849365234375 113.22756958007812" stroke-width="0.6000000238418579" fill="rgb(70, 150, 179)" opacity="1.0"/>
    <path d="M 426.945068359375 70.0125732421875 C 427.5850830078125 71.30537414550781 428.348876953125 72.71145629882812 429.70654296875 73.19650268554688 C 431.1651611328125 73.7166748046875 432.8199462890625 72.93325805664062 433.8336181640625 71.762451171875 C 434.224609375 71.31121826171875 434.55810546875 70.7799072265625 434.6265869140625 70.18682861328125 C 434.68304443359375 69.69929504394531 434.557373046875 69.21038818359375 434.406982421875 68.74334716796875 C 433.9344482421875 67.2698974609375 433.126708984375 65.78768920898438 431.7447509765625 65.09237670898438 C 430.3514404296875 64.392578125 428.51611328125 64.6988525390625 427.43109130859375 65.82041931152344 C 426.3460693359375 66.94200134277344 426.08349609375 68.78170776367188 426.82318115234375 70.15696716308594 L 426.945068359375 70.0125732421875" stroke-width="0.6000000238418579" fill="rgb(140, 28, 33)" opacity="1.0"/>
    <path d="M 113.48988342285156 416.0291748046875 C 114.62733459472656 414.20489501953125 115.79080200195312 412.2940673828125 116.06094360351562 410.15972900390625 C 116.33108520507812 408.025390625 115.43533325195312 405.5775451660156 113.45913696289062 404.7281494140625 C 111.01739501953125 403.68511962890625 108.06716918945312 405.67547607421875 107.35079956054688 408.2371826171875 C 106.63442993164062 410.7989196777344 107.61492919921875 413.5537109375 109.06930541992188 415.7769775390625 C 109.4505615234375 416.51025390625 110.09283447265625 417.073974609375 110.86941528320312 417.35693359375 C 111.65859985351562 417.55279541015625 112.66748046875 416.93328857421875 112.5340576171875 416.1270751953125 L 113.48988342285156 416.0291748046875" stroke-width="0.6000000238418579" fill="rgb(159, 159, 159)" opacity="1.0"/>
    <path d="M 454.2203369140625 432.718994140625 C 454.81597900390625 431.2894287109375 454.934814453125 429.6246337890625 454.3382568359375 428.1962890625 C 453.74169921875 426.76800537109375 452.371337890625 425.6356201171875 450.821044921875 425.521728515625 C 449.72491455078125 425.44256591796875 448.62890625 425.866455078125 447.763427734375 426.5452880859375 C 446.89794921875 427.22412109375 446.244384765625 428.1407470703125 445.73095703125 429.11376953125 C 445.50775146484375 429.53729248046875 445.3043212890625 429.99774169921875 445.3424072265625 430.4737548828125 C 445.3858642578125 431.01947021484375 445.7379150390625 431.4849853515625 446.096923828125 431.90057373046875 C 447.1103515625 433.07379150390625 448.3421630859375 434.13641357421875 449.8377685546875 434.54534912109375 C 451.33343505859375 434.9542236328125 453.12646484375 434.559326171875 454.0220947265625 433.29833984375 L 454.2203369140625 432.718994140625" stroke-width="0.6000000238418579" fill="rgb(159, 159, 159)" opacity="1.0"/>
    <path d="M 450.8001708984375 285.6693115234375 C 451.71588134765625 284.4735412597656 452.6820068359375 283.104736328125 452.49920654296875 281.6127014160156 C 452.323486328125 280.16143798828125 451.1240234375 279.0765686035156 449.9884033203125 278.1549987792969 C 449.5264892578125 277.7812805175781 449.037353515625 277.397705078125 448.4539794921875 277.2869873046875 C 447.4674072265625 277.0991516113281 446.5146484375 277.7334899902344 445.8070068359375 278.44403076171875 C 445.14990234375 279.1033020019531 444.5909423828125 279.8534851074219 444.1470947265625 280.6716613769531 C 443.42596435546875 281.9998474121094 443.0511474609375 283.7199401855469 443.9019775390625 284.9684143066406 C 444.3603515625 285.64306640625 445.11865234375 286.0731506347656 445.906494140625 286.2890319824219 C 446.6943359375 286.5049133300781 447.52142333984375 286.5259094238281 448.3382568359375 286.5350036621094 C 449.15509033203125 286.54412841796875 449.9578857421875 286.5355529785156 450.6885986328125 286.21630859375 L 450.8001708984375 285.6693115234375" stroke-width="0.6000000238418579" fill="rgb(218, 166, 20)" opacity="1.0"/>
    <path d="M 416.235107421875 361.472900390625 C 418.3341064453125 363.5036315917969 421.6820068359375 363.4482727050781 423.71270751953125 361.3492126464844 C 423.8865966796875 361.1694641113281 424.0474853515625 360.9776306152344 424.19427490234375 360.7751159667969 C 424.751708984375 360.0054931640625 425.10101318359375 359.03839111328125 424.94305419921875 358.1017761230469 C 424.8096923828125 357.3102722167969 424.3355712890625 356.6202697753906 423.8125 356.01214599609375 C 422.41015625 354.38623046875 420.5980224609375 353.16546630859375 418.5643310546875 352.4766845703125 C 418.0264892578125 352.2955017089844 417.4578857421875 352.15130615234375 416.89422607421875 352.22735595703125 C 415.9478759765625 352.3544921875 415.1771240234375 353.0917663574219 414.72552490234375 353.933837890625 C 414.05419921875 355.1835632324219 413.95947265625 356.6988830566406 414.32421875 358.07012939453125 C 414.68902587890625 359.4413757324219 415.48486328125 360.6739807128906 416.4818115234375 361.6835632324219 L 416.235107421875 361.472900390625" stroke-width="0.6000000238418579" fill="rgb(143, 165, 67)" opacity="1.0"/>
    <path d="M 451.364501953125 355.9067687988281 C 452.88720703125 353.2646179199219 450.2955322265625 349.4447021484375 447.273193359375 349.6587219238281 C 444.2508544921875 349.87274169921875 442.21893310546875 353.7649230957031 443.58294677734375 356.493408203125 C 444.94696044921875 359.2218933105469 448.974853515625 360.0440368652344 451.43927001953125 358.2415466308594 L 451.364501953125 355.9067687988281" stroke-width="0.6000000238418579" fill="rgb(233, 92, 21)" opacity="1.0"/>
    <path d="M 453.21044921875 79.23237609863281 C 454.1025390625 78.23748779296875 455.06494140625 76.95655822753906 454.61614990234375 75.69308471679688 C 454.41796875 75.19723510742188 454.07080078125 74.77508544921875 453.62255859375 74.48489379882812 C 452.53271484375 73.73703002929688 451.1480712890625 73.56379699707031 449.9075927734375 74.02011108398438 C 448.85638427734375 74.40986633300781 448.0361328125 75.219970703125 447.26171875 76.02120971679688 C 446.827392578125 76.47198486328125 446.38037109375 76.96475219726562 446.26812744140625 77.57708740234375 C 446.125244140625 78.39450073242188 446.62005615234375 79.18388366699219 447.161376953125 79.81243896484375 C 447.9525146484375 80.73330688476562 448.8875732421875 81.52005004882812 449.9300537109375 82.14215087890625 C 450.29071044921875 82.35641479492188 450.6824951171875 82.55645751953125 451.101806640625 82.5594482421875 C 451.4918212890625 82.54229736328125 451.868408203125 82.41201782226562 452.1856689453125 82.18452453613281 C 453.1749267578125 81.5318603515625 453.828125 80.47811889648438 453.97247314453125 79.30178833007812 L 453.21044921875 79.23237609863281" stroke-width="0.6000000238418579" fill="rgb(70, 150, 179)" opacity="1.0"/>
    <path d="M 450.5345458984375 389.4183654785156 C 450.7430419921875 388.9275207519531 450.95343017578125 388.3747253417969 450.7625732421875 387.8771667480469 C 450.55712890625 387.3428039550781 449.93896484375 387.0673522949219 449.366455078125 387.06500244140625 C 449.145751953125 387.0639953613281 448.91644287109375 387.0984191894531 448.733642578125 387.2220458984375 C 448.583251953125 387.3236083984375 448.4764404296875 387.4765930175781 448.38165283203125 387.6312561035156 C 448.08221435546875 388.11859130859375 447.861083984375 388.70208740234375 447.99884033203125 389.2571105957031 C 448.1380615234375 389.8163757324219 448.66595458984375 390.2573547363281 449.2418212890625 390.29156494140625 C 449.817626953125 390.3258056640625 450.3968505859375 389.9563903808594 450.60443115234375 389.41778564453125 L 450.5345458984375 389.4183654785156" stroke-width="0.6000000238418579" fill="rgb(140, 28, 33)" opacity="1.0"/>
    <path d="M 125.94366455078125 217.16412353515625 C 123.08645629882812 218.3739013671875 120.12672424316406 219.66424560546875 118.03616333007812 221.96002197265625 C 115.94564819335938 224.25579833984375 114.97146606445312 227.889404296875 116.59970092773438 230.5325927734375 C 118.61685180664062 233.79083251953125 123.75222778320312 233.8896484375 126.724365234375 231.45965576171875 C 129.69651794433594 229.02969360351562 130.8253936767578 224.96331787109375 130.95362854003906 221.13116455078125 C 131.11216735839844 219.9488525390625 130.82177734375 218.75015258789062 130.13970947265625 217.77154541015625 C 129.37051391601562 216.88522338867188 127.66510009765625 216.77926635742188 127.15345764160156 217.84185791015625 L 125.94366455078125 217.16412353515625" stroke-width="0.6000000238418579" fill="rgb(159, 159, 159)" opacity="1.0"/>
    <path d="M 110.49752807617188 224.71981811523438 C 108.3402099609375 222.7257080078125 105.45269775390625 221.42730712890625 102.51934814453125 221.55743408203125 C 99.58598327636719 221.68756103515625 96.67459106445312 223.38925170898438 95.459716796875 226.07598876953125 C 94.60317993164062 227.97662353515625 94.64266967773438 230.205322265625 95.28678894042969 232.18994140625 C 95.930908203125 234.17462158203125 97.13693237304688 235.93701171875 98.53472900390625 237.48663330078125 C 99.14340209960938 238.16064453125 99.83065795898438 238.8236083984375 100.70335388183594 239.06637573242188 C 101.7037353515625 239.34518432617188 102.76263427734375 239.02203369140625 103.73713684082031 238.65396118164062 C 106.48831176757812 237.61483764648438 109.18502807617188 236.114501953125 110.88963317871094 233.71759033203125 C 112.59425354003906 231.3206787109375 113.061279296875 227.86929321289062 111.39996337890625 225.45101928710938 L 110.49752807617188 224.71981811523438" stroke-width="0.6000000238418579" fill="rgb(159, 159, 159)" opacity="1.0"/>
    <path d="M 304.4975280761719 103.78939819335938 C 303.59033203125 106.55770874023438 302.7018737792969 109.67411804199219 303.9893493652344 112.28099060058594 C 305.2378845214844 114.81794738769531 308.12115478515625 116.03153991699219 310.7834167480469 116.98788452148438 C 311.865478515625 117.37478637695312 313.003662109375 117.76229858398438 314.1394348144531 117.59144592285156 C 316.06048583984375 117.30361938476562 317.39422607421875 115.53654479980469 318.2317810058594 113.78701782226562 C 319.0097961425781 112.16346740722656 319.5506591796875 110.43661499023438 319.83782958984375 108.6593017578125 C 320.3051452636719 105.77362060546875 319.8896484375 102.39395141601562 317.538330078125 100.65882873535156 C 316.2702941894531 99.72023010253906 314.6110534667969 99.41993713378906 313.0348205566406 99.52951049804688 C 311.4585876464844 99.63909912109375 309.9352722167969 100.1295166015625 308.4383239746094 100.63511657714844 C 306.9413757324219 101.14071655273438 305.4812927246094 101.66957092285156 304.3514404296875 102.71951293945312 L 304.4975280761719 103.78939819335938" stroke-width="0.6000000238418579" fill="rgb(218, 166, 20)" opacity="1.0"/>
    <path d="M 218.3658447265625 125.49888610839844 C 215.06460571289062 121.9232177734375 209.48974609375 121.70077514648438 205.9140625 125.00202941894531 C 205.60791015625 125.28471374511719 205.3221435546875 125.58876037597656 205.05899047851562 125.91189575195312 C 204.05926513671875 127.139892578125 203.3873291015625 128.71597290039062 203.56207275390625 130.2890167236328 C 203.7095947265625 131.61834716796875 204.43344116210938 132.810791015625 205.24652099609375 133.87167358398438 C 207.42678833007812 136.70838928222656 210.32684326171875 138.90957641601562 213.64544677734375 140.24658203125 C 214.52325439453125 140.5985107421875 215.45562744140625 140.891845703125 216.4005126953125 140.8182830810547 C 217.98687744140625 140.69570922851562 219.33843994140625 139.5415496826172 220.16885375976562 138.1830596923828 C 221.40313720703125 136.16705322265625 221.70306396484375 133.6549835205078 221.22503662109375 131.3394317626953 C 220.7470703125 129.0238800048828 219.53887939453125 126.89846801757812 217.9752197265625 125.12525939941406 L 218.3658447265625 125.49888610839844" stroke-width="0.6000000238418579" fill="rgb(143, 165, 67)" opacity="1.0"/>
    <path d="M 223.1214599609375 93.59844970703125 C 221.61328125 99.14741516113281 228.17318725585938 104.86875915527344 233.58160400390625 103.02752685546875 C 238.99005126953125 101.18624877929688 240.82666015625 93.11331176757812 237.02947998046875 88.79278564453125 C 233.2322998046875 84.47225952148438 225.4927978515625 84.9068603515625 221.8642578125 89.37686157226562 L 223.1214599609375 93.59844970703125" stroke-width="0.6000000238418579" fill="rgb(233, 92, 21)" opacity="1.0"/>
    <path d="M 201.46417236328125 95.8551025390625 C 200.4423828125 93.16842651367188 198.943115234375 90.06510925292969 196.08514404296875 89.67672729492188 C 194.94180297851562 89.56643676757812 193.79238891601562 89.81364440917969 192.79547119140625 90.38427734375 C 190.2908935546875 91.72982788085938 188.59384155273438 94.20585632324219 188.24249267578125 97.02719116210938 C 187.9505615234375 99.42123413085938 188.6900634765625 101.78826904296875 189.457763671875 104.05902099609375 C 189.89105224609375 105.33390808105469 190.39202880859375 106.67460632324219 191.45184326171875 107.4931640625 C 192.87347412109375 108.5726318359375 194.87054443359375 108.4053955078125 196.6060791015625 107.99053955078125 C 199.14678955078125 107.38656616210938 201.57302856445312 106.37535095214844 203.7906494140625 104.99609375 C 204.55596923828125 104.51806640625 205.32479858398438 103.96649169921875 205.744140625 103.16787719726562 C 206.09609985351562 102.4053955078125 206.21856689453125 101.55697631835938 206.09664916992188 100.72607421875 C 205.8248291015625 98.19125366210938 204.45477294921875 95.90325927734375 202.34857177734375 94.46690368652344 L 201.46417236328125 95.8551025390625" stroke-width="0.6000000238418579" fill="rgb(70, 150, 179)" opacity="1.0"/>
    <path d="M 269.3230285644531 132.08494567871094 C 268.2019348144531 134.9381103515625 267.0790710449219 138.147705078125 268.25372314453125 140.97711181640625 C 269.5174255371094 144.01577758789062 273.1130065917969 145.5020751953125 276.40301513671875 145.4261474609375 C 277.6715393066406 145.39739990234375 278.98388671875 145.16375732421875 280.01519775390625 144.4248504638672 C 280.86322021484375 143.81773376464844 281.4533386230469 142.9219207763672 281.97381591796875 142.01841735839844 C 283.6185607910156 139.17117309570312 284.7983703613281 135.78355407714844 283.9198913574219 132.6156463623047 C 283.03228759765625 129.42349243164062 279.9300842285156 126.97186279296875 276.6156311035156 126.86515808105469 C 273.3011779785156 126.75845336914062 270.0305480957031 128.9716033935547 268.9217834472656 132.09925842285156 L 269.3230285644531 132.08494567871094" stroke-width="0.6000000238418579" fill="rgb(140, 28, 33)" opacity="1.0"/>
    <path d="M 315.74273681640625 115.42678833007812 C 312.9503479003906 115.97042846679688 310.05072021484375 116.56689453125 307.74017333984375 118.23004150390625 C 305.4296875 119.8931884765625 303.86700439453125 122.96809387207031 304.82659912109375 125.64781188964844 C 306.0184631347656 128.9530029296875 310.6064453125 130.01510620117188 313.7332458496094 128.39866638183594 C 316.86004638671875 126.7822265625 318.6435241699219 123.34844970703125 319.4849548339844 119.93511962890625 C 319.8512878417969 118.90460205078125 319.8180236816406 117.77423095703125 319.39166259765625 116.76707458496094 C 318.8696594238281 115.82620239257812 317.3598937988281 115.40786743164062 316.69952392578125 116.26409912109375 L 315.74273681640625 115.42678833007812" stroke-width="0.6000000238418579" fill="rgb(159, 159, 159)" opacity="1.0"/>
    <path d="M 198.05810546875 132.75872802734375 C 195.89190673828125 130.77597045898438 192.9991455078125 129.49220275878906 190.067626953125 129.63665771484375 C 187.13604736328125 129.78109741210938 184.23416137695312 131.4963836669922 183.03289794921875 134.18798828125 C 182.18603515625 136.09207153320312 182.23641967773438 138.31968688964844 182.8900146484375 140.30038452148438 C 183.5435791015625 142.2810821533203 184.75775146484375 144.03688049316406 186.16259765625 145.57907104492188 C 186.77432250976562 146.2498321533203 187.46453857421875 146.9091339111328 188.33807373046875 147.14755249023438 C 189.33944702148438 147.4213409423828 190.39633178710938 147.09310913085938 191.36865234375 146.72042846679688 C 194.11361694335938 145.6682586669922 196.80194091796875 144.1553192138672 198.494140625 141.7510223388672 C 200.18634033203125 139.34671020507812 200.63626098632812 135.8944091796875 198.9637451171875 133.48521423339844 L 198.05810546875 132.75872802734375" stroke-width="0.6000000238418579" fill="rgb(159, 159, 159)" opacity="1.0"/>
    <path d="M 279.94287109375 105.478515625 C 277.1960144042969 106.35050964355469 274.1805419921875 107.43876647949219 272.83197021484375 109.97933959960938 C 271.51702880859375 112.44821166992188 272.2095031738281 115.46450805664062 272.9807434082031 118.15460205078125 C 273.295654296875 119.24697875976562 273.64251708984375 120.38471984863281 274.43621826171875 121.19775390625 C 275.7778015136719 122.57362365722656 277.9674377441406 122.62283325195312 279.85614013671875 122.28387451171875 C 281.6092834472656 121.96995544433594 283.30828857421875 121.40591430664062 284.901123046875 120.6090087890625 C 287.4879150390625 119.3160400390625 289.9609375 117.02877807617188 289.99468994140625 114.13807678222656 C 290.0151672363281 112.5775146484375 289.2970886230469 111.07186889648438 288.2979431152344 109.86981201171875 C 287.29876708984375 108.66773986816406 286.02447509765625 107.72830200195312 284.75323486328125 106.81881713867188 C 283.48199462890625 105.90931701660156 282.21337890625 105.04287719726562 280.7173156738281 104.74276733398438 L 279.94287109375 105.478515625" stroke-width="0.6000000238418579" fill="rgb(218, 166, 20)" opacity="1.0"/>
    <path d="M 241.943603515625 119.21322631835938 C 240.73724365234375 123.83889770507812 243.5091552734375 128.56668090820312 248.13482666015625 129.77304077148438 C 248.53094482421875 129.8763427734375 248.933837890625 129.951416015625 249.340576171875 129.99769592285156 C 250.88604736328125 130.1732635498047 252.54559326171875 129.89324951171875 253.75369262695312 128.9147186279297 C 254.77471923828125 128.087890625 255.376953125 126.85708618164062 255.82308959960938 125.62228393554688 C 257.01275634765625 122.31533813476562 257.2952575683594 118.75018310546875 256.64129638671875 115.29714965820312 C 256.4668884277344 114.38470458984375 256.215087890625 113.45819091796875 255.65325927734375 112.71586608886719 C 254.7108154296875 111.46910095214844 253.03982543945312 110.96345520019531 251.4761962890625 110.9970703125 C 249.15472412109375 111.04533386230469 246.91848754882812 112.12925720214844 245.2572021484375 113.75225830078125 C 243.59588623046875 115.375244140625 242.47900390625 117.50119018554688 241.841796875 119.73434448242188 L 241.943603515625 119.21322631835938" stroke-width="0.6000000238418579" fill="rgb(143, 165, 67)" opacity="1.0"/>
    <path d="M 250.58135986328125 91.77177429199219 C 249.4937744140625 97.41744995117188 256.4633483886719 102.62997436523438 261.7177429199219 100.38858032226562 C 266.97210693359375 98.14715576171875 268.19793701171875 89.9603271484375 264.08795166015625 85.93731689453125 C 259.97796630859375 81.914306640625 252.29388427734375 82.92800903320312 249.01129150390625 87.65692138671875 L 250.58135986328125 91.77177429199219" stroke-width="0.6000000238418579" fill="rgb(233, 92, 21)" opacity="1.0"/>
    <path d="M 338.0687255859375 84.2381591796875 C 335.4683837890625 83.276123046875 332.262451171875 82.39663696289062 330.1671447753906 84.22677612304688 C 329.36163330078125 84.98753356933594 328.8120422363281 85.97950744628906 328.5942077636719 87.06585693359375 C 327.98291015625 89.7392578125 328.7052917480469 92.54312133789062 330.5323181152344 94.58828735351562 C 332.0865478515625 96.3192138671875 334.2755432128906 97.28358459472656 336.4124450683594 98.16641235351562 C 337.6136169433594 98.66036987304688 338.90557861328125 99.14694213867188 340.17266845703125 98.89620971679688 C 341.8588562011719 98.54812622070312 343.00433349609375 96.99102783203125 343.803955078125 95.46682739257812 C 344.9770202636719 93.23764038085938 345.7815246582031 90.83326721191406 346.186279296875 88.34698486328125 C 346.324462890625 87.4876708984375 346.4114685058594 86.5791015625 346.0972900390625 85.76776123046875 C 345.76654052734375 85.0283203125 345.2278137207031 84.40109252929688 344.5467224121094 83.96253967285156 C 342.5325622558594 82.55189514160156 340.0009765625 82.0958251953125 337.62115478515625 82.71488952636719 L 338.0687255859375 84.2381591796875" stroke-width="0.6000000238418579" fill="rgb(70, 150, 179)" opacity="1.0"/>
    <path d="M 332.8431396484375 128.0541229248047 C 332.1080017089844 125.14779663085938 331.1711120605469 121.95724487304688 328.6250915527344 120.37820434570312 C 325.8890686035156 118.68359375 322.18463134765625 119.5516357421875 319.61334228515625 121.48703002929688 C 318.62164306640625 122.23280334472656 317.7118835449219 123.16641235351562 317.3134460449219 124.34138488769531 C 316.98553466796875 125.30715942382812 317.027099609375 126.35537719726562 317.12841796875 127.3699951171875 C 317.4440612792969 130.57003784179688 318.4371337890625 133.93455505371094 320.9407043457031 135.95140075683594 C 323.46533203125 137.98231506347656 327.3278503417969 138.16259765625 330.02264404296875 136.35842895507812 C 332.7174072265625 134.5542449951172 334.05523681640625 130.93148803710938 333.1538391113281 127.8140869140625 L 332.8431396484375 128.0541229248047" stroke-width="0.6000000238418579" fill="rgb(140, 28, 33)" opacity="1.0"/>
    <path d="M 350.627685546875 105.58854675292969 C 347.6076354980469 104.853271484375 344.45703125 104.12149047851562 341.4041442871094 104.71749877929688 C 338.3513488769531 105.31350708007812 335.3962707519531 107.65232849121094 335.1253356933594 110.75042724609375 C 334.7994079589844 114.57546997070312 338.8686828613281 117.72445678710938 342.7104797363281 117.54750061035156 C 346.5522766113281 117.37054443359375 349.8903503417969 114.77630615234375 352.2840270996094 111.77227783203125 C 353.1181640625 110.91658020019531 353.6011962890625 109.77934265136719 353.6378479003906 108.58493041992188 C 353.54925537109375 107.41265869140625 352.2415771484375 106.30810546875 351.19512939453125 106.85653686523438 L 350.627685546875 105.58854675292969" stroke-width="0.6000000238418579" fill="rgb(159, 159, 159)" opacity="1.0"/>
    <path d="M 350.710693359375 126.070068359375 C 347.8929138183594 127.04913330078125 345.34918212890625 129.0149383544922 344.063232421875 131.704833984375 C 342.77728271484375 134.39471435546875 342.90960693359375 137.81634521484375 344.7355041503906 140.18923950195312 C 346.0285339355469 141.86526489257812 348.04388427734375 142.89549255371094 350.1296691894531 143.2674102783203 C 352.2154541015625 143.63934326171875 354.370849609375 143.40164184570312 356.42730712890625 142.8904571533203 C 357.3221130371094 142.66746520996094 358.24456787109375 142.36880493164062 358.8793029785156 141.703125 C 359.60736083984375 140.94029235839844 359.82415771484375 139.83721923828125 359.9604187011719 138.78831481933594 C 360.3450012207031 135.82701110839844 360.2904052734375 132.6939697265625 358.95831298828125 130.0209503173828 C 357.6261901855469 127.34793090820312 354.75775146484375 125.27935791015625 351.79718017578125 125.61129760742188 L 350.710693359375 126.070068359375" stroke-width="0.6000000238418579" fill="rgb(159, 159, 159)" opacity="1.0"/>
    <path d="M 365.0788879394531 116.13026428222656 C 362.4923400878906 116.7762451171875 359.645263671875 117.6063232421875 358.2530517578125 119.87384033203125 C 356.8960266113281 122.07708740234375 357.3606872558594 124.9019775390625 357.91693115234375 127.4302978515625 C 358.1444091796875 128.45706176757812 358.39874267578125 129.527587890625 359.0844421386719 130.32418823242188 C 360.2433776855469 131.67218017578125 362.2621154785156 131.84442138671875 364.0255126953125 131.640869140625 C 365.66229248046875 131.4525604248047 367.2635803222656 131.03021240234375 368.78033447265625 130.38673400878906 C 371.24346923828125 129.34278869628906 373.6591796875 127.37429809570312 373.85772705078125 124.7073974609375 C 373.967041015625 123.26779174804688 373.3912658691406 121.83610534667969 372.5384216308594 120.66842651367188 C 371.685546875 119.50074768066406 370.5634460449219 118.55960083007812 369.44244384765625 117.64628601074219 C 368.3214416503906 116.73297119140625 367.20037841796875 115.85955810546875 365.8365173339844 115.49583435058594 L 365.0788879394531 116.13026428222656" stroke-width="0.6000000238418579" fill="rgb(218, 166, 20)" opacity="1.0"/>
    <path d="M 434.0587158203125 154.02566528320312 C 429.71771240234375 154.911865234375 426.9169921875 159.14938354492188 427.80322265625 163.49041748046875 C 427.8790283203125 163.8621826171875 427.981201171875 164.22802734375 428.10888671875 164.5853271484375 C 428.59423828125 165.9427490234375 429.50518798828125 167.208984375 430.81280517578125 167.81423950195312 C 431.9178466796875 168.32583618164062 433.187744140625 168.32403564453125 434.3973388671875 168.19070434570312 C 437.63446044921875 167.82940673828125 440.7158203125 166.60787963867188 443.3212890625 164.65310668945312 C 444.0091552734375 164.13525390625 444.677001953125 163.5472412109375 445.0650634765625 162.77655029296875 C 445.71728515625 161.483154296875 445.4552001953125 159.88644409179688 444.7884521484375 158.599365234375 C 443.79986572265625 156.68780517578125 441.9844970703125 155.27024841308594 439.95556640625 154.55123901367188 C 437.92669677734375 153.83224487304688 435.7017822265625 153.7716064453125 433.5836181640625 154.15383911132812 L 434.0587158203125 154.02566528320312" stroke-width="0.6000000238418579" fill="rgb(143, 165, 67)" opacity="1.0"/>
    <path d="M 143.5657501220703 418.321533203125 C 140.83155822753906 423.35516357421875 145.8793182373047 430.405517578125 151.5445556640625 429.8604736328125 C 157.20977783203125 429.31536865234375 160.841064453125 421.91021728515625 158.15042114257812 416.8511962890625 C 155.45977783203125 411.792236328125 147.85719299316406 410.4392395019531 143.3148193359375 413.9407958984375 L 143.5657501220703 418.321533203125" stroke-width="0.6000000238418579" fill="rgb(233, 92, 21)" opacity="1.0"/>
    <path d="M 436.2506103515625 186.49969482421875 C 433.6422119140625 186.38592529296875 430.5146484375 186.52056884765625 429.1629638671875 188.76473999023438 C 428.65985107421875 189.67877197265625 428.4527587890625 190.72637939453125 428.5703125 191.76312255859375 C 428.7919921875 194.3360595703125 430.2470703125 196.64190673828125 432.4739990234375 197.949462890625 C 434.365966796875 199.05377197265625 436.606201171875 199.2880859375 438.77630615234375 199.46429443359375 C 439.9954833984375 199.561279296875 441.2939453125 199.62548828125 442.3577880859375 199.03582763671875 C 443.769287109375 198.23822021484375 444.34796142578125 196.5123291015625 444.6259765625 194.91552734375 C 445.0357666015625 192.5791015625 445.06475830078125 190.1917724609375 444.71173095703125 187.8460693359375 C 444.588134765625 187.03582763671875 444.404541015625 186.19619750976562 443.8892822265625 185.55926513671875 C 443.3797607421875 184.99151611328125 442.7161865234375 184.58428955078125 441.979248046875 184.38720703125 C 439.7672119140625 183.70245361328125 437.3660888671875 184.02252197265625 435.41070556640625 185.2628173828125 L 436.2506103515625 186.49969482421875" stroke-width="0.6000000238418579" fill="rgb(70, 150, 179)" opacity="1.0"/>
    <path d="M 407.4151611328125 157.9407958984375 C 406.98199462890625 154.97134399414062 406.377197265625 151.6981201171875 404.0044250488281 149.8640594482422 C 401.454345703125 147.89540100097656 397.676513671875 148.37881469726562 394.9172668457031 150.04153442382812 C 393.8531188964844 150.68215942382812 392.85125732421875 151.5182342529297 392.3337097167969 152.64720153808594 C 391.90789794921875 153.5751190185547 391.8415222167969 154.62310791015625 391.83807373046875 155.64381408691406 C 391.8233337402344 158.86260986328125 392.4662170410156 162.3148193359375 394.751708984375 164.5804443359375 C 397.0566711425781 166.86224365234375 400.8841247558594 167.43890380859375 403.75286865234375 165.9195556640625 C 406.6216125488281 164.40017700195312 408.3262023925781 160.93048095703125 407.74920654296875 157.73373413085938 L 407.4151611328125 157.9407958984375" stroke-width="0.6000000238418579" fill="rgb(140, 28, 33)" opacity="1.0"/>
    <path d="M 139.76947021484375 121.56617736816406 C 136.7731170654297 122.11492919921875 133.6613006591797 122.71896362304688 131.16751098632812 124.47216796875 C 128.67376708984375 126.22537231445312 126.96389770507812 129.4990692138672 127.9593505859375 132.37974548339844 C 129.19607543945312 135.9329071044922 134.0958251953125 137.12489318847656 137.46304321289062 135.43145751953125 C 140.83026123046875 133.73802185058594 142.7808380126953 130.0826873779297 143.7225341796875 126.43801879882812 C 144.1270751953125 125.3389892578125 144.1049346923828 124.12828063964844 143.66046142578125 123.0447998046875 C 143.11277770996094 122.03115844726562 141.501220703125 121.56523132324219 140.78392028808594 122.47413635253906 L 139.76947021484375 121.56617736816406" stroke-width="0.6000000238418579" fill="rgb(159, 159, 159)" opacity="1.0"/>
    <path d="M 418.1732177734375 178.60552978515625 C 416.111572265625 176.767822265625 413.37548828125 175.596435546875 410.6205139160156 175.7685546875 C 407.8655700683594 175.940673828125 405.157958984375 177.589599609375 404.0616760253906 180.13558959960938 C 403.2888488769531 181.93658447265625 403.36383056640625 184.03076171875 404.0029602050781 185.88525390625 C 404.64208984375 187.73974609375 405.80560302734375 189.37579345703125 407.145751953125 190.80862426757812 C 407.72930908203125 191.43182373046875 408.38653564453125 192.04327392578125 409.2109375 192.25665283203125 C 410.1559753417969 192.501708984375 411.1457824707031 192.17996215820312 412.05548095703125 191.81747436523438 C 414.623779296875 190.7940673828125 417.13299560546875 189.33807373046875 418.69451904296875 187.05618286132812 C 420.25604248046875 184.7742919921875 420.63641357421875 181.52227783203125 419.0338134765625 179.2774658203125 L 418.1732177734375 178.60552978515625" stroke-width="0.6000000238418579" fill="rgb(159, 159, 159)" opacity="1.0"/>
    <path d="M 401.58203125 187.08499145507812 C 400.6130065917969 184.34429931640625 399.41717529296875 181.33990478515625 396.8117370605469 180.06353759765625 C 394.2796936035156 178.8187255859375 391.2615051269531 179.6156005859375 388.5747375488281 180.48117065429688 C 387.4837951660156 180.83441162109375 386.34814453125 181.22134399414062 385.5544738769531 182.04815673828125 C 384.2113037109375 183.44570922851562 384.2333984375 185.65478515625 384.6369323730469 187.54776000976562 C 385.0108337402344 189.304931640625 385.6351013183594 190.99929809570312 386.4906311035156 192.57901000976562 C 387.87884521484375 195.14453125 390.26568603515625 197.56283569335938 393.1810302734375 197.502197265625 C 394.7549743652344 197.47177124023438 396.2493896484375 196.69854736328125 397.42852783203125 195.65188598632812 C 398.607666015625 194.605224609375 399.5130310058594 193.289794921875 400.3883361816406 191.9783935546875 C 401.26361083984375 190.66705322265625 402.0955505371094 189.35971069335938 402.34912109375 187.8416748046875 L 401.58203125 187.08499145507812" stroke-width="0.6000000238418579" fill="rgb(218, 166, 20)" opacity="1.0"/>
    <path d="M 450.427490234375 178.5841064453125 C 449.525390625 183.37579345703125 452.678466796875 187.99160766601562 457.47021484375 188.89373779296875 C 457.88055419921875 188.97100830078125 458.29583740234375 189.01904296875 458.71295166015625 189.03753662109375 C 460.29791259765625 189.10748291015625 461.9669189453125 188.70578002929688 463.1273193359375 187.62509155273438 C 464.108154296875 186.7119140625 464.6343994140625 185.41717529296875 465.00146484375 184.1292724609375 C 465.9793701171875 180.68063354492188 466.01611328125 177.03302001953125 465.10772705078125 173.56536865234375 C 464.8660888671875 172.649169921875 464.544677734375 171.72409057617188 463.9207763671875 171.00827026367188 C 462.87408447265625 169.805908203125 461.13818359375 169.408935546875 459.5494384765625 169.55313110351562 C 457.190673828125 169.76556396484375 454.99139404296875 171.02581787109375 453.41510009765625 172.79415893554688 C 451.8388671875 174.5625 450.85186767578125 176.8043212890625 450.360595703125 179.12152099609375 L 450.427490234375 178.5841064453125" stroke-width="0.6000000238418579" fill="rgb(143, 165, 67)" opacity="1.0"/>
    <path d="M 148.23793029785156 104.1973876953125 C 143.23464965820312 108.01473999023438 145.12637329101562 117.35133361816406 151.0507354736328 119.35104370117188 C 156.97509765625 121.35073852539062 163.94354248046875 115.55909729003906 163.51983642578125 109.2781982421875 C 163.09613037109375 102.997314453125 156.0826416015625 98.22409057617188 149.95523071289062 99.69287109375 L 148.23793029785156 104.1973876953125" stroke-width="0.6000000238418579" fill="rgb(233, 92, 21)" opacity="1.0"/>
    <path d="M 453.9080810546875 152.0956573486328 C 452.4119873046875 154.806396484375 450.906005859375 158.19961547851562 452.5772705078125 160.81854248046875 C 453.28289794921875 161.83489990234375 454.2864990234375 162.60723876953125 455.44970703125 163.02902221679688 C 458.2996826171875 164.1500244140625 461.51611328125 163.82015991210938 464.0792236328125 162.14401245117188 C 466.249755859375 160.71661376953125 467.6798095703125 158.46044921875 469.0111083984375 156.24819946289062 C 469.7569580078125 155.0042724609375 470.509765625 153.65890502929688 470.44427490234375 152.2179718017578 C 470.34124755859375 150.2980194091797 468.81298828125 148.7734375 467.263427734375 147.63621520996094 C 464.9976806640625 145.9690399169922 462.47705078125 144.67959594726562 459.79925537109375 143.81787109375 C 458.87347412109375 143.52191162109375 457.884765625 143.27427673339844 456.9365234375 143.48583984375 C 456.0648193359375 143.7276611328125 455.2823486328125 144.2178955078125 454.68450927734375 144.89675903320312 C 452.7908935546875 146.8854217529297 451.8648681640625 149.60467529296875 452.15142822265625 152.33572387695312 L 453.9080810546875 152.0956573486328" stroke-width="0.6000000238418579" fill="rgb(70, 150, 179)" opacity="1.0"/>
    <path d="M 375.9256591796875 77.69894409179688 C 376.2541198730469 74.27890014648438 376.474609375 70.4742431640625 374.3365783691406 67.78755187988281 C 372.0381164550781 64.90281677246094 367.70550537109375 64.40969848632812 364.1837463378906 65.50578308105469 C 362.82574462890625 65.92781066894531 361.4836120605469 66.58415222167969 360.6001281738281 67.69830322265625 C 359.8735046386719 68.61392211914062 359.5137939453125 69.76113891601562 359.23150634765625 70.89515686035156 C 358.33697509765625 74.47024536132812 358.1100158691406 78.48428344726562 360.0332336425781 81.62704467773438 C 361.9737243652344 84.79312133789062 366.0722961425781 86.478515625 369.67669677734375 85.57170104980469 C 373.28106689453125 84.66488647460938 376.1230773925781 81.27183532714844 376.3536071777344 77.55982971191406 L 375.9256591796875 77.69894409179688" stroke-width="0.6000000238418579" fill="rgb(140, 28, 33)" opacity="1.0"/>
    <path d="M 130.9671630859375 413.178955078125 C 128.35081481933594 415.248779296875 125.65118408203125 417.43133544921875 124.13958740234375 420.407958984375 C 122.62802124023438 423.38458251953125 122.65559387207031 427.42926025390625 125.0980224609375 429.704345703125 C 128.11923217773438 432.505859375 133.47071838378906 431.14215087890625 135.8578338623047 427.77471923828125 C 138.24496459960938 424.4072265625 138.25418090820312 419.86981201171875 137.29302978515625 415.86083984375 C 137.1198272705078 414.59002685546875 136.4765625 413.43035888671875 135.49014282226562 412.61065673828125 C 134.4397735595703 411.9115295410156 132.64170837402344 412.28857421875 132.4147186279297 413.5361328125 L 130.9671630859375 413.178955078125" stroke-width="0.6000000238418579" fill="rgb(159, 159, 159)" opacity="1.0"/>
    <path d="M 409.57086181640625 207.46206665039062 C 408.245361328125 204.5826416015625 405.90447998046875 202.09463500976562 402.92718505859375 201.01141357421875 C 399.9499206542969 199.92816162109375 396.3447265625 200.4202880859375 394.0229797363281 202.59564208984375 C 392.3834228515625 204.13568115234375 391.5012512207031 206.37319946289062 391.32257080078125 208.61749267578125 C 391.14385986328125 210.86175537109375 391.6170959472656 213.11691284179688 392.369384765625 215.23931884765625 C 392.69732666015625 216.1627197265625 393.108154296875 217.10760498046875 393.87750244140625 217.71041870117188 C 394.7592468261719 218.40191650390625 395.9482116699219 218.5177001953125 397.07159423828125 218.5538330078125 C 400.2431335449219 218.65582275390625 403.5511474609375 218.275634765625 406.2411193847656 216.59164428710938 C 408.93109130859375 214.90765380859375 410.82366943359375 211.6610107421875 410.16790771484375 208.56396484375 L 409.57086181640625 207.46206665039062" stroke-width="0.6000000238418579" fill="rgb(159, 159, 159)" opacity="1.0"/>
    <path d="M 384.5523376464844 121.10639953613281 C 381.5823059082031 122.19558715820312 378.3281555175781 123.53495788574219 376.9722900390625 126.38627624511719 C 375.6497802734375 129.15733337402344 376.55517578125 132.4315185546875 377.5311584472656 135.34420776367188 C 377.9293518066406 136.52685546875 378.36480712890625 137.75775146484375 379.2745361328125 138.61090087890625 C 380.8123474121094 140.0547637939453 383.2159118652344 140.00274658203125 385.27069091796875 139.53961181640625 C 387.17803955078125 139.11050415039062 389.0138854980469 138.4097137451172 390.7220458984375 137.458740234375 C 393.49615478515625 135.91561889648438 396.097412109375 133.28765869140625 395.9944763183594 130.1160430908203 C 395.94140625 128.40371704101562 395.0810546875 126.787353515625 393.92718505859375 125.51751708984375 C 392.7733154296875 124.2476806640625 391.3304138183594 123.27915954589844 389.892333984375 122.34332275390625 C 388.4542236328125 121.40750122070312 387.0211181640625 120.51876831054688 385.3659973144531 120.2620849609375 L 384.5523376464844 121.10639953613281" stroke-width="0.6000000238418579" fill="rgb(218, 166, 20)" opacity="1.0"/>
    <path d="M 402.32989501953125 80.57113647460938 C 398.7037658691406 76.515869140625 392.4767761230469 76.16799926757812 388.4215087890625 79.79412841796875 C 388.0742492675781 80.10462951660156 387.74945068359375 80.43939208984375 387.4495849609375 80.79585266113281 C 386.3103332519531 82.15057373046875 385.53125 83.90019226074219 385.69854736328125 85.66146850585938 C 385.83978271484375 87.14988708496094 386.6275939941406 88.49555969238281 387.5174560546875 89.69577026367188 C 389.9038391113281 92.9051513671875 393.1060485839844 95.41702270507812 396.7913818359375 96.97047424316406 C 397.7662353515625 97.37945556640625 398.8031311035156 97.72389221191406 399.86053466796875 97.65849304199219 C 401.6357421875 97.54974365234375 403.16693115234375 96.2838134765625 404.1192626953125 94.78021240234375 C 405.53472900390625 92.54891967773438 405.9146423339844 89.74655151367188 405.4216003417969 87.14996337890625 C 404.9285888671875 84.55337524414062 403.6160583496094 82.15632629394531 401.8999328613281 80.14657592773438 L 402.32989501953125 80.57113647460938" stroke-width="0.6000000238418579" fill="rgb(143, 165, 67)" opacity="1.0"/>
    <path d="M 117.58804321289062 425.05499267578125 C 114.61085510253906 419.56878662109375 105.17190551757812 419.9971923828125 102.30758666992188 425.4979248046875 C 99.44328308105469 430.99859619140625 104.05526733398438 438.712158203125 110.27540588378906 439.25592041015625 C 116.49554443359375 439.7996826171875 122.2442626953125 433.655029296875 121.74037170410156 427.42578125 L 117.58804321289062 425.05499267578125" stroke-width="0.6000000238418579" fill="rgb(233, 92, 21)" opacity="1.0"/>
    <path d="M 448.1951904296875 198.31280517578125 C 446.7249755859375 201.01666259765625 445.2491455078125 204.39892578125 446.9266357421875 206.9918212890625 C 447.6343994140625 207.9976806640625 448.6368408203125 208.7591552734375 449.795654296875 209.17117309570312 C 452.635498046875 210.26776123046875 455.8306884765625 209.91983032226562 458.3680419921875 208.23776245117188 C 460.5167236328125 206.80538940429688 461.92413330078125 204.5538330078125 463.23370361328125 202.3465576171875 C 463.96734619140625 201.10540771484375 464.707275390625 199.763427734375 464.63323974609375 198.33151245117188 C 464.5189208984375 196.4237060546875 462.99029541015625 194.91775512695312 461.44293212890625 193.79696655273438 C 459.18035888671875 192.15386962890625 456.666748046875 190.8878173828125 453.9996337890625 190.04791259765625 C 453.0775146484375 189.75949096679688 452.09326171875 189.51947021484375 451.1519775390625 189.73568725585938 C 450.2869873046875 189.98150634765625 449.51226806640625 190.4736328125 448.9222412109375 191.15216064453125 C 447.05224609375 193.14071655273438 446.1488037109375 195.84945678710938 446.4505615234375 198.5623779296875 L 448.1951904296875 198.31280517578125" stroke-width="0.6000000238418579" fill="rgb(70, 150, 179)" opacity="1.0"/>
    <path d="M 412.85986328125 135.0742645263672 C 412.5654296875 131.80955505371094 412.1019287109375 128.20323181152344 409.6238708496094 126.06065368652344 C 406.96051025390625 123.76065063476562 402.81109619140625 124.0615234375 399.70196533203125 125.70967102050781 C 398.5029602050781 126.34461975097656 397.3601379394531 127.19647216796875 396.72796630859375 128.3968048095703 C 396.20794677734375 129.38336181640625 396.07275390625 130.5224151611328 396.0078125 131.63548278808594 C 395.7988586425781 135.14527893066406 396.2931823730469 138.9490966796875 398.6501159667969 141.55714416503906 C 401.02740478515625 144.18402099609375 405.1673889160156 145.04232788085938 408.3873596191406 143.55709838867188 C 411.6072998046875 142.0718536376953 413.6744384765625 138.38966369628906 413.2366943359375 134.86843872070312 L 412.85986328125 135.0742645263672" stroke-width="0.6000000238418579" fill="rgb(140, 28, 33)" opacity="1.0"/>
    <path d="M 399.1763916015625 70.946044921875 C 400.11822509765625 74.09283447265625 401.1329650878906 77.35684204101562 403.3064270019531 79.82276916503906 C 405.4798889160156 82.28866577148438 409.1905517578125 83.73492431640625 412.16064453125 82.32795715332031 C 415.822998046875 80.5830078125 416.522216796875 75.190673828125 414.3096923828125 71.78152465820312 C 412.09716796875 68.37236022949219 407.9490966796875 66.713134765625 403.9315185546875 66.134033203125 C 402.7057800292969 65.83016967773438 401.4107666015625 65.99679565429688 400.3019104003906 66.60108947753906 C 399.2801208496094 67.30775451660156 398.9709777832031 69.09002685546875 400.0298156738281 69.7515869140625 L 399.1763916015625 70.946044921875" stroke-width="0.6000000238418579" fill="rgb(159, 159, 159)" opacity="1.0"/>
    <path d="M 442.1016845703125 235.59954833984375 C 440.3843994140625 238.28240966796875 439.5489501953125 241.61212158203125 440.24713134765625 244.7183837890625 C 440.94525146484375 247.82464599609375 443.316650390625 250.60784912109375 446.4161376953125 251.39239501953125 C 448.608154296875 251.9443359375 450.97955322265625 251.477294921875 452.97515869140625 250.411376953125 C 454.97076416015625 249.34552001953125 456.6220703125 247.72219848632812 458.0096435546875 245.93475341796875 C 458.613037109375 245.15655517578125 459.189697265625 244.29660034179688 459.282470703125 243.31878662109375 C 459.3892822265625 242.19781494140625 458.842529296875 241.129150390625 458.26385498046875 240.1591796875 C 456.63018798828125 237.420654296875 454.5146484375 234.82818603515625 451.6312255859375 233.46563720703125 C 448.74774169921875 232.10308837890625 444.9747314453125 232.2625732421875 442.7100830078125 234.49688720703125 L 442.1016845703125 235.59954833984375" stroke-width="0.6000000238418579" fill="rgb(159, 159, 159)" opacity="1.0"/>
    <path d="M 408.07598876953125 262.10699462890625 C 406.41241455078125 259.4171142578125 404.4467468261719 256.4992370605469 401.38177490234375 255.74432373046875 C 398.4021301269531 255.00595092773438 395.3774108886719 256.5506286621094 392.720947265625 258.0917663574219 C 391.6427001953125 258.71942138671875 390.52471923828125 259.39324951171875 389.8719482421875 260.4556579589844 C 388.76690673828125 262.25189208984375 389.3008728027344 264.5954284667969 390.1673583984375 266.5147399902344 C 390.9709167480469 268.2965087890625 392.0261535644531 269.95367431640625 393.30078125 271.43548583984375 C 395.3695373535156 273.84228515625 398.46600341796875 275.8617858886719 401.5515441894531 275.1236267089844 C 403.2178649902344 274.7275695800781 404.62799072265625 273.5601501464844 405.6397705078125 272.1748962402344 C 406.65155029296875 270.7896423339844 407.31011962890625 269.181884765625 407.9376525878906 267.58538818359375 C 408.565185546875 265.9889221191406 409.1476135253906 264.4067687988281 409.06640625 262.73419189453125 L 408.07598876953125 262.10699462890625" stroke-width="0.6000000238418579" fill="rgb(218, 166, 20)" opacity="1.0"/>
    <path d="M 416.7392578125 87.20759582519531 C 414.7177734375 92.1939697265625 417.1212158203125 97.87503051757812 422.1075439453125 99.89657592773438 C 422.5345458984375 100.06968688964844 422.9732666015625 100.2122802734375 423.42047119140625 100.32330322265625 C 425.11962890625 100.74484252929688 427.0126953125 100.674560546875 428.5037841796875 99.75881958007812 C 429.76397705078125 98.98506164550781 430.61578369140625 97.6993408203125 431.2939453125 96.3863525390625 C 433.1043701171875 92.86932373046875 433.9400634765625 88.93167114257812 433.7142333984375 84.98245239257812 C 433.65277099609375 83.93865966796875 433.5069580078125 82.86785888671875 432.98828125 81.9573974609375 C 432.1185302734375 80.42837524414062 430.327392578125 79.62013244628906 428.577392578125 79.42939758300781 C 425.9794921875 79.1444091796875 423.32550048828125 80.0277099609375 421.2344970703125 81.5965576171875 C 419.1435546875 83.16537475585938 417.586669921875 85.37501525878906 416.549560546875 87.77432250976562 L 416.7392578125 87.20759582519531" stroke-width="0.6000000238418579" fill="rgb(143, 165, 67)" opacity="1.0"/>
    <path d="M 442.52783203125 128.9622039794922 C 439.8653564453125 134.77182006835938 446.017333984375 142.2373504638672 452.2818603515625 141.20199584960938 C 458.54638671875 140.16661071777344 462.02783203125 131.6494903564453 458.65020751953125 126.22210693359375 C 455.2725830078125 120.79470825195312 446.7080078125 119.864013671875 441.91705322265625 124.10511779785156 L 442.52783203125 128.9622039794922" stroke-width="0.6000000238418579" fill="rgb(233, 92, 21)" opacity="1.0"/>
    <path d="M 446.976318359375 93.68928527832031 C 446.184814453125 96.70928955078125 445.552490234375 100.39886474609375 447.8343505859375 102.54522705078125 C 448.775634765625 103.36404418945312 449.94781494140625 103.87060546875 451.189208984375 103.9949951171875 C 454.25244140625 104.38540649414062 457.31494140625 103.26687622070312 459.4053955078125 100.99411010742188 C 461.173828125 99.06161499023438 462.0133056640625 96.5023193359375 462.76708984375 94.0103759765625 C 463.18829345703125 92.60986328125 463.5911865234375 91.10845947265625 463.1705322265625 89.71615600585938 C 462.5946044921875 87.86492919921875 460.7235107421875 86.75289916992188 458.92730712890625 86.0247802734375 C 456.2999267578125 84.95590209960938 453.51690673828125 84.3193359375 450.6861572265625 84.1397705078125 C 449.7078857421875 84.07962036132812 448.68017578125 84.08224487304688 447.80560302734375 84.52374267578125 C 447.013427734375 84.97586059570312 446.369873046875 85.64871215820312 445.9534912109375 86.46026611328125 C 444.59466552734375 88.87283325195312 444.362548828125 91.76007080078125 445.318603515625 94.35871887207031 L 446.976318359375 93.68928527832031" stroke-width="0.6000000238418579" fill="rgb(70, 150, 179)" opacity="1.0"/>
    <path d="M 321.07537841796875 373.5631408691406 C 317.59814453125 374.1424560546875 313.76824951171875 374.9305725097656 311.6706237792969 377.7608642578125 C 309.4190979003906 380.8026123046875 310.07666015625 385.2280578613281 312.09503173828125 388.4291687011719 C 312.8727111816406 389.6637268066406 313.8784484863281 390.82049560546875 315.2166748046875 391.4015197753906 C 316.3166198730469 391.8795471191406 317.54901123046875 391.9325866699219 318.74786376953125 391.9123840332031 C 322.528564453125 391.85321044921875 326.5677795410156 391.01611328125 329.1743469238281 388.278076171875 C 331.7994384765625 385.5167236328125 332.3857421875 381.0078125 330.5331115722656 377.6747131347656 C 328.6805114746094 374.34161376953125 324.5649719238281 372.4220886230469 320.8242492675781 373.17572021484375 L 321.07537841796875 373.5631408691406" stroke-width="0.6000000238418579" fill="rgb(140, 28, 33)" opacity="1.0"/>
    <path d="M 307.4730529785156 397.58526611328125 C 304.04693603515625 398.67218017578125 300.49383544921875 399.8409423828125 297.834716796875 402.2632141113281 C 295.1756286621094 404.68548583984375 293.65972900390625 408.7713623046875 295.2524108886719 411.9958190917969 C 297.2272644042969 415.9716796875 303.1397705078125 416.64007568359375 306.8302001953125 414.158203125 C 310.5206298828125 411.67626953125 312.2616882324219 407.1079406738281 312.82330322265625 402.7017822265625 C 313.1338195800781 401.355224609375 312.92828369140625 399.9412536621094 312.2472229003906 398.7388610839844 C 311.4557189941406 397.633544921875 309.5001220703125 397.3272399902344 308.7952575683594 398.49761962890625 L 307.4730529785156 397.58526611328125" stroke-width="0.6000000238418579" fill="rgb(159, 159, 159)" opacity="1.0"/>
    <path d="M 320.11688232421875 414.25634765625 C 316.4349670410156 415.1688232421875 312.9855041503906 417.36279296875 311.0447082519531 420.61962890625 C 309.1038818359375 423.8765869140625 308.87408447265625 428.2247314453125 310.9106140136719 431.441650390625 C 312.3533630371094 433.7142333984375 314.7857666015625 435.2528076171875 317.3838195800781 435.966064453125 C 319.9819030761719 436.6793212890625 322.7388916015625 436.62860107421875 325.40240478515625 436.2200927734375 C 326.5614013671875 436.0416259765625 327.76422119140625 435.7706298828125 328.6452941894531 435.0013427734375 C 329.6558532714844 434.11993408203125 330.0585021972656 432.748291015625 330.35284423828125 431.43585205078125 C 331.18377685546875 427.7305908203125 331.4784851074219 423.7568359375 330.1020812988281 420.21722412109375 C 328.7256774902344 416.6776123046875 325.3335876464844 413.72509765625 321.5459899902344 413.801513671875 L 320.11688232421875 414.25634765625" stroke-width="0.6000000238418579" fill="rgb(159, 159, 159)" opacity="1.0"/>
    <path d="M 270.490234375 416.0450439453125 C 267.5498046875 418.3466796875 264.3810729980469 421.0323486328125 263.893310546875 424.72711181640625 C 263.4139404296875 428.319580078125 265.6194763183594 431.6683349609375 267.7730712890625 434.58551025390625 C 268.6496887207031 435.769287109375 269.5856018066406 436.99365234375 270.9171447753906 437.6217041015625 C 273.1685485839844 438.68505859375 275.8492431640625 437.75408935546875 277.9889831542969 436.4879150390625 C 279.9754638671875 435.31353759765625 281.7830505371094 433.8599853515625 283.3563537597656 432.1717529296875 C 285.9119567871094 429.431396484375 287.87957763671875 425.535400390625 286.612548828125 422.010498046875 C 285.9313049316406 420.1065673828125 284.3782043457031 418.60345458984375 282.6212158203125 417.5960693359375 C 280.86419677734375 416.5887451171875 278.8919677734375 416.0247802734375 276.93701171875 415.4957275390625 C 274.9820556640625 414.96673583984375 273.04974365234375 414.48876953125 271.09759521484375 414.8013916015625 L 270.490234375 416.0450439453125" stroke-width="0.6000000238418579" fill="rgb(218, 166, 20)" opacity="1.0"/>
    <path d="M 223.75253295898438 414.261962890625 C 217.89132690429688 412.633056640625 211.81939697265625 416.06396484375 210.19049072265625 421.9251708984375 C 210.05099487304688 422.42706298828125 209.94729614257812 422.938232421875 209.880126953125 423.454833984375 C 209.6253662109375 425.417724609375 209.94796752929688 427.5350341796875 211.16851806640625 429.092041015625 C 212.1998291015625 430.407958984375 213.753662109375 431.19927978515625 215.3157958984375 431.7919921875 C 219.49935913085938 433.3729248046875 224.02993774414062 433.8048095703125 228.43685913085938 433.0428466796875 C 229.60140991210938 432.83941650390625 230.78543090820312 432.537841796875 231.74136352539062 431.8380126953125 C 233.34689331054688 430.6641845703125 234.02423095703125 428.54833984375 234.01321411132812 426.55804443359375 C 233.99893188476562 423.60321044921875 232.6651611328125 420.73583984375 230.6337890625 418.5889892578125 C 228.60244750976562 416.4422607421875 225.92007446289062 414.9779052734375 223.091552734375 414.12176513671875 L 223.75253295898438 414.261962890625" stroke-width="0.6000000238418579" fill="rgb(143, 165, 67)" opacity="1.0"/>
    <path d="M 288.72552490234375 363.6977233886719 C 290.2264709472656 370.78619384765625 300.8716735839844 373.4272155761719 305.87603759765625 368.2520751953125 C 310.88037109375 363.076904296875 308.2959289550781 352.9698791503906 301.5537109375 350.31024169921875 C 294.8115234375 347.65057373046875 286.38470458984375 352.58953857421875 284.8878479003906 359.68798828125 L 288.72552490234375 363.6977233886719" stroke-width="0.6000000238418579" fill="rgb(233, 92, 21)" opacity="1.0"/>
    <path d="M 332.9371032714844 359.6822509765625 C 333.36248779296875 363.322265625 334.24810791015625 367.6262512207031 337.6601257324219 368.99761962890625 C 339.0391845703125 369.49053955078125 340.5372314453125 369.5433654785156 341.9476013183594 369.1488037109375 C 345.46343994140625 368.2664489746094 348.33355712890625 365.7347412109375 349.6477355957031 362.3564453125 C 350.75518798828125 359.4878845214844 350.57916259765625 356.3310852050781 350.3382568359375 353.28448486328125 C 350.2001647949219 351.57330322265625 349.9989318847656 349.7596435546875 348.9440002441406 348.417236328125 C 347.5232238769531 346.6394348144531 345.0022277832031 346.223388671875 342.727294921875 346.19500732421875 C 339.39801025390625 346.1493225097656 336.0832824707031 346.642822265625 332.9116516113281 347.6563415527344 C 331.8164978027344 348.0086364746094 330.6940002441406 348.45074462890625 329.9265441894531 349.3072204589844 C 329.2536926269531 350.1401062011719 328.83770751953125 351.1507568359375 328.72930908203125 352.2159729003906 C 328.2748107910156 355.4343566894531 329.25506591796875 358.69012451171875 331.410888671875 361.12261962890625 L 332.9371032714844 359.6822509765625" stroke-width="0.6000000238418579" fill="rgb(70, 150, 179)" opacity="1.0"/>
    <path d="M 297.9737854003906 418.2064208984375 C 294.1044921875 418.88671875 289.8442687988281 419.80328369140625 287.534912109375 422.9783935546875 C 285.0561828613281 426.390625 285.8331604003906 431.3157958984375 288.11444091796875 434.863037109375 C 288.993408203125 436.2310791015625 290.12579345703125 437.5101318359375 291.6229248046875 438.144287109375 C 292.85345458984375 438.666015625 294.2274169921875 438.71282958984375 295.563232421875 438.6783447265625 C 299.7759094238281 438.5745849609375 304.2688903808594 437.6014404296875 307.1463317871094 434.5240478515625 C 310.0442199707031 431.4205322265625 310.6525573730469 426.389892578125 308.5546875 422.6939697265625 C 306.4568176269531 418.99798583984375 301.85125732421875 416.89996337890625 297.6900634765625 417.7772216796875 L 297.9737854003906 418.2064208984375" stroke-width="0.6000000238418579" fill="rgb(140, 28, 33)" opacity="1.0"/>
    <path d="M 334.6187744140625 389.5942687988281 C 331.06219482421875 390.0758972167969 327.36669921875 390.61627197265625 324.3356018066406 392.5429992675781 C 321.3045654296875 394.4696960449219 319.1127624511719 398.2289123535156 320.12646484375 401.673828125 C 321.38726806640625 405.92340087890625 327.0885925292969 407.5948181152344 331.1443786621094 405.78631591796875 C 335.2001647949219 403.977783203125 337.6961975097656 399.78265380859375 339.0042419433594 395.5447082519531 C 339.54058837890625 394.2734069824219 339.5809020996094 392.8472900390625 339.1171569824219 391.5477600097656 C 338.52813720703125 390.3247375488281 336.656982421875 389.68804931640625 335.762939453125 390.7184753417969 L 334.6187744140625 389.5942687988281" stroke-width="0.6000000238418579" fill="rgb(159, 159, 159)" opacity="1.0"/>
    <path d="M 347.2806091308594 411.5064697265625 C 343.5082702636719 411.76190185546875 339.74127197265625 413.3154296875 337.2701416015625 416.1744384765625 C 334.79901123046875 419.0335693359375 333.81744384765625 423.26123046875 335.25689697265625 426.7725830078125 C 336.27777099609375 429.25390625 338.3975524902344 431.18695068359375 340.823486328125 432.33868408203125 C 343.2493896484375 433.49041748046875 345.964111328125 433.9200439453125 348.6492919921875 433.98223876953125 C 349.8178405761719 434.00860595703125 351.04547119140625 433.95166015625 352.0439758300781 433.34991455078125 C 353.1890563964844 432.6605224609375 353.82275390625 431.38427734375 354.3398132324219 430.1473388671875 C 355.7995910644531 426.6552734375 356.77978515625 422.806396484375 356.0443115234375 419.09307861328125 C 355.308837890625 415.3797607421875 352.4930114746094 411.89208984375 348.7622985839844 411.3086242675781 L 347.2806091308594 411.5064697265625" stroke-width="0.6000000238418579" fill="rgb(159, 159, 159)" opacity="1.0"/>
    <path d="M 255.48513793945312 368.0403137207031 C 256.32977294921875 364.3380126953125 257.1082763671875 360.18609619140625 255.1236572265625 356.9572448730469 C 253.19805908203125 353.8144226074219 249.30963134765625 352.5859069824219 245.73907470703125 351.66473388671875 C 244.28802490234375 351.29266357421875 242.76409912109375 350.9265441894531 241.31045532226562 351.28485107421875 C 238.85153198242188 351.8894348144531 237.3328857421875 354.3434753417969 236.45611572265625 356.71502685546875 C 235.6414794921875 358.9159240722656 235.1470947265625 361.222412109375 234.98806762695312 363.5638732910156 C 234.728515625 367.3656311035156 235.6741943359375 371.702392578125 238.934814453125 373.6718444824219 C 240.69357299804688 374.7376403808594 242.88336181640625 374.92791748046875 244.91607666015625 374.5961608886719 C 246.9488525390625 374.2643737792969 248.86712646484375 373.44464111328125 250.74932861328125 372.6083679199219 C 252.631591796875 371.7721252441406 254.463134765625 370.91009521484375 255.80340576171875 369.41143798828125 L 255.48513793945312 368.0403137207031" stroke-width="0.6000000238418579" fill="rgb(218, 166, 20)" opacity="1.0"/>
    <path d="M 252.513916015625 389.8052062988281 C 249.7823486328125 384.14007568359375 242.97552490234375 381.761962890625 237.31039428710938 384.4934997558594 C 236.82528686523438 384.7273864746094 236.35739135742188 384.99542236328125 235.91021728515625 385.2955322265625 C 234.21124267578125 386.4362487792969 232.78607177734375 388.130859375 232.40863037109375 390.14111328125 C 232.0894775390625 391.83990478515625 232.5343017578125 393.5868835449219 233.13906860351562 395.2049255371094 C 234.76382446289062 399.53375244140625 237.51800537109375 403.3486022949219 241.11553955078125 406.253173828125 C 242.0677490234375 407.01934814453125 243.10958862304688 407.7336730957031 244.30523681640625 407.99920654296875 C 246.31228637695312 408.4461669921875 248.41827392578125 407.52947998046875 249.95721435546875 406.1636047363281 C 252.24343872070312 404.1373596191406 253.56182861328125 401.1455078125 253.84457397460938 398.10302734375 C 254.1273193359375 395.0605773925781 253.435791015625 391.9776916503906 252.17202758789062 389.1960144042969 L 252.513916015625 389.8052062988281" stroke-width="0.6000000238418579" fill="rgb(143, 165, 67)" opacity="1.0"/>
    <path d="M 202.28945922851562 370.2077941894531 C 200.6124267578125 377.190673828125 209.01339721679688 384.0897216796875 215.69668579101562 381.5907897949219 C 222.37997436523438 379.0918273925781 224.37353515625 368.946044921875 219.4732666015625 363.69329833984375 C 214.57296752929688 358.4405517578125 204.92758178710938 359.2698974609375 200.56362915039062 364.98443603515625 L 202.28945922851562 370.2077941894531" stroke-width="0.6000000238418579" fill="rgb(233, 92, 21)" opacity="1.0"/>
    <path d="M 266.4639892578125 368.1382751464844 C 266.4380798339844 371.77227783203125 266.7840270996094 376.1158447265625 269.9742431640625 377.8820495605469 C 271.2711486816406 378.5355224609375 272.7388916015625 378.77044677734375 274.1749572753906 378.55438232421875 C 277.7425842285156 378.1154479980469 280.8761291503906 375.9745178222656 282.5819396972656 372.8105163574219 C 284.0220642089844 370.12286376953125 284.23431396484375 366.9948425292969 284.3692932128906 363.96734619140625 C 284.4423522949219 362.26654052734375 284.4657897949219 360.45721435546875 283.59161376953125 359.0073547363281 C 282.4105529785156 357.0843505859375 279.9804992675781 356.3670654296875 277.7452697753906 356.06134033203125 C 274.4745788574219 355.6098327636719 271.1523742675781 355.6907043457031 267.9075012207031 356.30078125 C 266.7867431640625 356.51373291015625 265.6281433105469 356.8117370605469 264.768310546875 357.56085205078125 C 264.0044860839844 358.29827880859375 263.4716796875 359.2420654296875 263.2349548339844 360.2770690917969 C 262.3946838378906 363.3887023925781 262.96173095703125 366.7123107910156 264.78619384765625 369.36932373046875 L 266.4639892578125 368.1382751464844" stroke-width="0.6000000238418579" fill="rgb(70, 150, 179)" opacity="1.0"/>
    <path d="M 325.7877502441406 364.094482421875 C 326.8215026855469 360.2821960449219 327.8072814941406 356.01318359375 325.90399169921875 352.554931640625 C 323.8572082519531 348.8411865234375 319.0426025390625 347.4443359375 314.83953857421875 348.00531005859375 C 313.2189025878906 348.22088623046875 311.57098388671875 348.7051086425781 310.3542785644531 349.7968444824219 C 309.35369873046875 350.6939392089844 308.72418212890625 351.9244384765625 308.1849060058594 353.1549987792969 C 306.47967529296875 357.0334777832031 305.4460754394531 361.5385437011719 307.0177001953125 365.47210693359375 C 308.6043701171875 369.4354248046875 312.92315673828125 372.13818359375 317.1832580566406 371.80767822265625 C 321.443359375 371.4772033691406 325.3204040527344 368.18170166015625 326.29962158203125 364.01959228515625 L 325.7877502441406 364.094482421875" stroke-width="0.6000000238418579" fill="rgb(140, 28, 33)" opacity="1.0"/>
    <path d="M 351.1128845214844 394.16815185546875 C 347.5172119140625 394.3277282714844 343.7774658203125 394.533447265625 340.57598876953125 396.183837890625 C 337.37457275390625 397.8341979980469 334.8457336425781 401.390625 335.54681396484375 404.9228820800781 C 336.4219665527344 409.2811584472656 341.9651794433594 411.46575927734375 346.17938232421875 410.02606201171875 C 350.3935852050781 408.58636474609375 353.2656555175781 404.62200927734375 354.9551086425781 400.507568359375 C 355.6056823730469 399.28631591796875 355.77484130859375 397.8656005859375 355.42913818359375 396.5257568359375 C 354.95135498046875 395.25103759765625 353.14007568359375 394.446044921875 352.1540222167969 395.39434814453125 L 351.1128845214844 394.16815185546875" stroke-width="0.6000000238418579" fill="rgb(159, 159, 159)" opacity="1.0"/>
    <path d="M 186.876953125 409.6151428222656 C 183.24749755859375 410.2166442871094 179.74505615234375 412.0748291015625 177.62020874023438 415.07568359375 C 175.495361328125 418.07666015625 174.94158935546875 422.26324462890625 176.665283203125 425.52880859375 C 177.88690185546875 427.8360595703125 180.121337890625 429.50921630859375 182.57891845703125 430.39691162109375 C 185.0364990234375 431.28460693359375 187.70599365234375 431.44586181640625 190.3123779296875 431.2540283203125 C 191.44656372070312 431.169921875 192.63015747070312 430.99951171875 193.54071044921875 430.322998046875 C 194.58499145507812 429.5478515625 195.07888793945312 428.2523193359375 195.46356201171875 427.005859375 C 196.54949951171875 423.48675537109375 197.13751220703125 419.66717529296875 196.07666015625 416.13995361328125 C 195.01577758789062 412.61273193359375 191.96127319335938 409.4992980957031 188.29339599609375 409.284423828125 L 186.876953125 409.6151428222656" stroke-width="0.6000000238418579" fill="rgb(159, 159, 159)" opacity="1.0"/>
    <path d="M 358.4201354980469 373.8787841796875 C 354.75341796875 374.95831298828125 350.72442626953125 376.317138671875 348.8652648925781 379.6483154296875 C 347.05267333984375 382.8853454589844 347.88665771484375 386.9043273925781 348.83416748046875 390.49298095703125 C 349.2212219238281 391.95025634765625 349.6493835449219 393.4686279296875 350.67913818359375 394.5688781738281 C 352.419677734375 396.4307861328125 355.3217468261719 396.55718994140625 357.835693359375 396.1604919433594 C 360.1691589355469 395.793212890625 362.4378356933594 395.0927429199219 364.57220458984375 394.0805358886719 C 368.0384521484375 392.43829345703125 371.3816223144531 389.47442626953125 371.507080078125 385.6422424316406 C 371.5778503417969 383.5735168457031 370.667724609375 381.55694580078125 369.37640380859375 379.93505859375 C 368.0850830078125 378.3132019042969 366.42156982421875 377.0318908691406 364.76129150390625 375.7904052734375 C 363.10101318359375 374.54888916015625 361.4430236816406 373.3645324707031 359.4676208496094 372.9248046875 L 358.4201354980469 373.8787841796875" stroke-width="0.6000000238418579" fill="rgb(218, 166, 20)" opacity="1.0"/>
    <path d="M 373.7057800292969 383.8703308105469 C 369.4598083496094 388.556884765625 369.81695556640625 395.7981262207031 374.50347900390625 400.04412841796875 C 374.90478515625 400.40771484375 375.3313903808594 400.7423400878906 375.7800598144531 401.0455627441406 C 377.4851379394531 402.1974182128906 379.6028137207031 402.8847351074219 381.6185607910156 402.4765625 C 383.3220520019531 402.1318054199219 384.78167724609375 401.05694580078125 386.0606994628906 399.8818359375 C 389.4799499511719 396.731689453125 391.9933776855469 392.7234191894531 393.3398742675781 388.27349853515625 C 393.6938171386719 387.0966491699219 393.965576171875 385.85589599609375 393.7610168457031 384.6414489746094 C 393.4188232421875 382.6024475097656 391.76861572265625 380.9866638183594 389.91424560546875 380.06903076171875 C 387.162109375 378.70477294921875 383.87603759765625 378.6072692871094 380.934326171875 379.4938659667969 C 377.9926452636719 380.3804931640625 375.38153076171875 382.1901550292969 373.26739501953125 384.4191589355469 L 373.7057800292969 383.8703308105469" stroke-width="0.6000000238418579" fill="rgb(143, 165, 67)" opacity="1.0"/>
    <path d="M 367.01702880859375 360.909912109375 C 370.0706481933594 367.50152587890625 381.0654602050781 367.69970703125 384.7978210449219 361.52178955078125 C 388.5301208496094 355.3438720703125 383.74188232421875 346.0447082519531 376.5573425292969 344.95465087890625 C 369.3727722167969 343.8646240234375 362.2427673339844 350.57781982421875 362.368896484375 357.8502197265625 L 367.01702880859375 360.909912109375" stroke-width="0.6000000238418579" fill="rgb(233, 92, 21)" opacity="1.0"/>
    <path d="M 398.94305419921875 363.650146484375 C 398.9959411621094 367.2460021972656 399.4320373535156 371.5358581542969 402.6264343261719 373.21429443359375 C 403.92364501953125 373.8327941894531 405.3808288574219 374.03350830078125 406.79693603515625 373.7887268066406 C 410.31707763671875 373.2773742675781 413.3709716796875 371.091552734375 414.99029541015625 367.9244079589844 C 416.35699462890625 365.2342834472656 416.4993896484375 362.13494873046875 416.5675048828125 359.13677978515625 C 416.60308837890625 357.4525451660156 416.587158203125 355.6619567871094 415.69097900390625 354.2464294433594 C 414.48095703125 352.36944580078125 412.061279296875 351.7122802734375 409.84326171875 351.4581298828125 C 406.59765625 351.0820617675781 403.3125915527344 351.2338562011719 400.1154479980469 351.90753173828125 C 399.01123046875 352.1424255371094 397.87139892578125 352.4622802734375 397.03692626953125 353.2220153808594 C 396.2971496582031 353.96807861328125 395.7904357910156 354.913330078125 395.57855224609375 355.9424133300781 C 394.8144836425781 359.0390625 395.4472961425781 362.3150329589844 397.3097229003906 364.9043273925781 L 398.94305419921875 363.650146484375" stroke-width="0.6000000238418579" fill="rgb(70, 150, 179)" opacity="1.0"/>
    <path d="M 387.8916320800781 415.094970703125 C 386.1556091308594 418.60400390625 384.3786926269531 422.56640625 385.56658935546875 426.294189453125 C 386.8450927734375 430.2979736328125 391.2592468261719 432.5792236328125 395.45404052734375 432.83935546875 C 397.0713195800781 432.94036865234375 398.7666320800781 432.785400390625 400.1590881347656 431.95697021484375 C 401.3040466308594 431.2763671875 402.152099609375 430.200439453125 402.9123840332031 429.107177734375 C 405.3140869140625 425.6624755859375 407.18280029296875 421.479736328125 406.4084777832031 417.353271484375 C 405.625244140625 413.195068359375 401.9435729980469 409.7389221191406 397.7375183105469 409.2436828613281 C 393.5314636230469 408.7484436035156 389.12957763671875 411.2099609375 387.3795166015625 415.06964111328125 L 387.8916320800781 415.094970703125" stroke-width="0.6000000238418579" fill="rgb(140, 28, 33)" opacity="1.0"/>
    <path d="M 408.5262756347656 391.9005126953125 C 407.5491638183594 395.3406982421875 406.5703430175781 398.9311828613281 407.1224365234375 402.4671630859375 C 407.6745300292969 406.00311279296875 410.2346496582031 409.502685546875 413.78485107421875 409.9493408203125 C 418.16839599609375 410.4909362792969 421.9664306640625 405.9496765136719 421.9305419921875 401.52490234375 C 421.89471435546875 397.1001281738281 419.0576171875 393.1490478515625 415.70819091796875 390.2658996582031 C 414.7607421875 389.26953125 413.47430419921875 388.66455078125 412.1026611328125 388.5703430175781 C 410.7509765625 388.62103271484375 409.4239807128906 390.07635498046875 410.0088806152344 391.30340576171875 L 408.5262756347656 391.9005126953125" stroke-width="0.6000000238418579" fill="rgb(159, 159, 159)" opacity="1.0"/>
    <path d="M 434.78448486328125 368.4417724609375 C 435.49578857421875 372.1639099121094 437.497802734375 375.7234191894531 440.641845703125 377.8354797363281 C 443.7857666015625 379.9475402832031 448.11083984375 380.4117736816406 451.42987060546875 378.5541076660156 C 453.7747802734375 377.23773193359375 455.44110107421875 374.8945007324219 456.29296875 372.3414001464844 C 457.14483642578125 369.78826904296875 457.2432861328125 367.03533935546875 456.979736328125 364.3563232421875 C 456.8643798828125 363.1905212402344 456.658935546875 361.9760437011719 455.93927001953125 361.0555725097656 C 455.1146240234375 359.9998779296875 453.76812744140625 359.5240783691406 452.474853515625 359.1595458984375 C 448.8236083984375 358.1304016113281 444.8756103515625 357.62164306640625 441.2703857421875 358.8033752441406 C 437.66510009765625 359.9850769042969 434.5364990234375 363.209228515625 434.4080810546875 366.9916076660156 L 434.78448486328125 368.4417724609375" stroke-width="0.6000000238418579" fill="rgb(159, 159, 159)" opacity="1.0"/>
    <path d="M 422.94091796875 409.0782470703125 C 419.52197265625 410.54888916015625 415.785400390625 412.3316650390625 414.37615966796875 415.76849365234375 C 413.00091552734375 419.10888671875 414.27520751953125 422.8968505859375 415.609130859375 426.25567626953125 C 416.153076171875 427.619384765625 416.7437744140625 429.03729248046875 417.86737060546875 429.98095703125 C 419.766845703125 431.57818603515625 422.58697509765625 431.36236572265625 424.97100830078125 430.68609619140625 C 427.18402099609375 430.05926513671875 429.2955322265625 429.117919921875 431.240966796875 427.89080810546875 C 434.4005126953125 425.8995361328125 437.28717041015625 422.64501953125 436.962158203125 418.92578125 C 436.78961181640625 416.917724609375 435.6749267578125 415.07427978515625 434.2376708984375 413.6568603515625 C 432.80047607421875 412.2393798828125 431.04315185546875 411.1944580078125 429.2935791015625 410.1876525878906 C 427.5439453125 409.18084716796875 425.80322265625 408.22906494140625 423.8424072265625 408.0340270996094 L 422.94091796875 409.0782470703125" stroke-width="0.6000000238418579" fill="rgb(218, 166, 20)" opacity="1.0"/>
    <path d="M 142.4153594970703 226.59405517578125 C 138.75808715820312 231.5693359375 139.8265380859375 238.56741333007812 144.80181884765625 242.22467041015625 C 145.22784423828125 242.53787231445312 145.67555236816406 242.8204345703125 146.14158630371094 243.07025146484375 C 147.91253662109375 244.0191650390625 150.03799438476562 244.47576904296875 151.95529174804688 243.87844848632812 C 153.57559204101562 243.37380981445312 154.88626098632812 242.184326171875 156.01153564453125 240.91546630859375 C 159.01885986328125 237.514892578125 161.06085205078125 233.37112426757812 161.92535400390625 228.91455078125 C 162.15185546875 227.7362060546875 162.29220581054688 226.50393676757812 161.97250366210938 225.34469604492188 C 161.43695068359375 223.39822387695312 159.67303466796875 221.99322509765625 157.7803955078125 221.28668212890625 C 154.97120666503906 220.23574829101562 151.76963806152344 220.46847534179688 149.0006103515625 221.622802734375 C 146.23158264160156 222.777099609375 143.8756561279297 224.7950439453125 142.04421997070312 227.17083740234375 L 142.4153594970703 226.59405517578125" stroke-width="0.6000000238418579" fill="rgb(143, 165, 67)" opacity="1.0"/>
    <path d="M 169.8507080078125 262.0572814941406 C 172.03289794921875 268.90380859375 182.7989501953125 270.45709228515625 187.22543334960938 264.85528564453125 C 191.65188598632812 259.25341796875 188.10189819335938 249.53530883789062 181.18557739257812 247.57760620117188 C 174.26925659179688 245.619873046875 166.44207763671875 251.3271484375 165.66705322265625 258.4800109863281 L 169.8507080078125 262.0572814941406" stroke-width="0.6000000238418579" fill="rgb(233, 92, 21)" opacity="1.0"/>
    <path d="M 153.00384521484375 314.9974365234375 C 151.009521484375 318.01202392578125 148.93992614746094 321.8198547363281 150.63990783691406 325.0236511230469 C 151.3660430908203 326.2723083496094 152.4617462158203 327.2648620605469 153.77589416503906 327.8643798828125 C 156.98751831054688 329.43524169921875 160.76129150390625 329.3520202636719 163.9005126953125 327.6410827636719 C 166.55975341796875 326.18292236328125 168.43472290039062 323.691162109375 170.19070434570312 321.24127197265625 C 171.17486572265625 319.86346435546875 172.1766357421875 318.36822509765625 172.235107421875 316.6853332519531 C 172.294677734375 314.4415283203125 170.6588134765625 312.5245666503906 168.9619140625 311.0563659667969 C 166.48114013671875 308.9045715332031 163.66845703125 307.1684875488281 160.6329345703125 305.9154357910156 C 159.58328247070312 305.4844970703125 158.45590209960938 305.1039123535156 157.3326416015625 305.261474609375 C 156.29571533203125 305.46142578125 155.33935546875 305.9587707519531 154.58018493652344 306.6928405761719 C 152.19073486328125 308.83001708984375 150.8590850830078 311.90777587890625 150.937255859375 315.11260986328125 L 153.00384521484375 314.9974365234375" stroke-width="0.6000000238418579" fill="rgb(70, 150, 179)" opacity="1.0"/>
    <path d="M 124.35671997070312 303.04827880859375 C 123.28466796875 299.3433837890625 121.94081115722656 295.28179931640625 118.59820556640625 293.3625183105469 C 115.00624084472656 291.302978515625 110.28089904785156 292.58074951171875 107.05917358398438 295.18145751953125 C 105.81658935546875 296.1836853027344 104.68753051757812 297.423828125 104.22647094726562 298.9519958496094 C 103.84698486328125 300.2080993652344 103.9461669921875 301.5540771484375 104.12071228027344 302.8542785644531 C 104.66619873046875 306.9551696777344 106.08990478515625 311.2379455566406 109.39701843261719 313.72198486328125 C 112.7318115234375 316.2232360839844 117.70614624023438 316.2864990234375 121.0924072265625 313.8490905761719 C 124.47866821289062 311.4117126464844 126.04080200195312 306.69512939453125 124.74575805664062 302.72607421875 L 124.35671997070312 303.04827880859375" stroke-width="0.6000000238418579" fill="rgb(140, 28, 33)" opacity="1.0"/>
    <path d="M 139.36083984375 276.14642333984375 C 136.09999084472656 277.5975646972656 132.72288513183594 279.14349365234375 130.36648559570312 281.8276672363281 C 128.01011657714844 284.51177978515625 126.96566772460938 288.7113037109375 128.8936004638672 291.7172546386719 C 131.28170776367188 295.4224548339844 137.1901092529297 295.42877197265625 140.55764770507812 292.57183837890625 C 143.92518615722656 289.7148742675781 145.13851928710938 285.0144348144531 145.20587158203125 280.60430908203125 C 145.36351013183594 279.2411804199219 145.0044403076172 277.86859130859375 144.19952392578125 276.7572937011719 C 143.29632568359375 275.7540283203125 141.33265686035156 275.6678161621094 140.7664337158203 276.900634765625 L 139.36083984375 276.14642333984375" stroke-width="0.6000000238418579" fill="rgb(159, 159, 159)" opacity="1.0"/>
    <path d="M 160.46026611328125 292.6948547363281 C 158.84210205078125 296.0408935546875 158.33514404296875 300.01422119140625 159.573974609375 303.51641845703125 C 160.81283569335938 307.0185852050781 163.94561767578125 309.9148254394531 167.6451416015625 310.3947448730469 C 170.26116943359375 310.730712890625 172.94393920898438 309.861328125 175.10842895507812 308.35015869140625 C 177.27294921875 306.8389892578125 178.96133422851562 304.72967529296875 180.321533203125 302.46673583984375 C 180.91290283203125 301.4815979003906 181.46185302734375 300.4054260253906 181.43399047851562 299.2597351074219 C 181.40264892578125 297.94622802734375 180.62115478515625 296.7838134765625 179.81646728515625 295.7400817871094 C 177.544677734375 292.7934875488281 174.73477172851562 290.08282470703125 171.20547485351562 288.90338134765625 C 167.67617797851562 287.7239074707031 163.326904296875 288.4310302734375 161.01254272460938 291.3331298828125 L 160.46026611328125 292.6948547363281" stroke-width="0.6000000238418579" fill="rgb(159, 159, 159)" opacity="1.0"/>
    <path d="M 123.93717956542969 344.7243347167969 C 123.34942626953125 341.04608154296875 122.53675842285156 336.9830017089844 119.54803466796875 334.77203369140625 C 116.64453125 332.6177673339844 112.65631103515625 332.9244079589844 109.06991577148438 333.3942565917969 C 107.61328125 333.5872802734375 106.09248352050781 333.8124084472656 104.90106201171875 334.6709899902344 C 102.88511657714844 336.1219482421875 102.40228271484375 338.9112548828125 102.47329711914062 341.390380859375 C 102.538330078125 343.6914978027344 102.93344116210938 345.9713134765625 103.64651489257812 348.16009521484375 C 104.8031005859375 351.7145080566406 107.25234985351562 355.3141784667969 110.94076538085938 355.9117126464844 C 112.93153381347656 356.2372131347656 114.9937744140625 355.60809326171875 116.72186279296875 354.5615539550781 C 118.44996643066406 353.51495361328125 119.8951416015625 352.0663146972656 121.30146789550781 350.6158447265625 C 122.70779418945312 349.1653747558594 124.05856323242188 347.71002197265625 124.72906494140625 345.8553466796875 L 123.93717956542969 344.7243347167969" stroke-width="0.6000000238418579" fill="rgb(218, 166, 20)" opacity="1.0"/>
    <path d="M 165.98715209960938 349.71453857421875 C 161.37374877929688 353.5967712402344 160.78103637695312 360.4838562011719 164.66326904296875 365.0972595214844 C 164.99569702148438 365.4923095703125 165.35574340820312 365.8632507324219 165.74069213867188 366.2073669433594 C 167.20361328125 367.51458740234375 169.11599731445312 368.4359436035156 171.07281494140625 368.30926513671875 C 172.72650146484375 368.20233154296875 174.2435302734375 367.3743591308594 175.60284423828125 366.428466796875 C 179.23782348632812 363.89154052734375 182.12725830078125 360.4275817871094 183.970947265625 356.39642333984375 C 184.45648193359375 355.3300476074219 184.87261962890625 354.1927795410156 184.83538818359375 353.0191345214844 C 184.77398681640625 351.048828125 183.4224853515625 349.31036376953125 181.78842163085938 348.2052307128906 C 179.36358642578125 346.5628356933594 176.2716064453125 346.0486145019531 173.37850952148438 346.50836181640625 C 170.48544311523438 346.9681396484375 167.7861328125 348.3424377441406 165.50250244140625 350.1767272949219 L 165.98715209960938 349.71453857421875" stroke-width="0.6000000238418579" fill="rgb(143, 165, 67)" opacity="1.0"/>
    <path d="M 133.14569091796875 378.95037841796875 C 130.32424926757812 372.4200439453125 119.56634521484375 371.94622802734375 115.75547790527344 377.8988342285156 C 111.94464111328125 383.8514709472656 116.39520263671875 393.07635498046875 123.40048217773438 394.3262939453125 C 130.40577697753906 395.57623291015625 137.5562744140625 389.18609619140625 137.61793518066406 382.0638427734375 L 133.14569091796875 378.95037841796875" stroke-width="0.6000000238418579" fill="rgb(233, 92, 21)" opacity="1.0"/>
    <path d="M 184.78839111328125 364.1838073730469 C 183.69097900390625 367.5557556152344 182.72979736328125 371.69744873046875 185.17501831054688 374.2822570800781 C 186.18814086914062 375.2730407714844 187.4837646484375 375.9250183105469 188.88311767578125 376.1482238769531 C 192.33062744140625 376.7937316894531 195.87716674804688 375.7281799316406 198.3980712890625 373.28948974609375 C 200.53115844726562 371.21533203125 201.6524658203125 368.36895751953125 202.67214965820312 365.59326171875 C 203.242431640625 364.0331115722656 203.79864501953125 362.35736083984375 203.41387939453125 360.75079345703125 C 202.8834228515625 358.61358642578125 200.83535766601562 357.2287902832031 198.846923828125 356.2843017578125 C 195.93853759765625 354.89837646484375 192.82501220703125 353.9923400878906 189.62710571289062 353.601318359375 C 188.52191162109375 353.4683532714844 187.35638427734375 353.4032897949219 186.33551025390625 353.84600830078125 C 185.40731811523438 354.30621337890625 184.63308715820312 355.02655029296875 184.10723876953125 355.919189453125 C 182.40673828125 358.5648193359375 181.95245361328125 361.8232421875 182.86444091796875 364.8331298828125 L 184.78839111328125 364.1838073730469" stroke-width="0.6000000238418579" fill="rgb(70, 150, 179)" opacity="1.0"/>
  </g>
</svg>
