<?xml version="1.0" ?>
<svg xmlns="http://www.w3.org/2000/svg" version="1.1" width="600" height="600">
  <defs/>
  <g>
    <path d="M 350.1385498046875 350.0009460449219 C 353.3365173339844 352.9611511230469 359.4814147949219 350.5625915527344 360.14251708984375 346.28369140625 C 360.8036193847656 342.0047912597656 356.0256042480469 337.9382629394531 351.79107666015625 338.97271728515625 C 347.5565490722656 340.00714111328125 345.13262939453125 345.3581848144531 346.8617858886719 349.3639831542969 L 350.1385498046875 350.0009460449219" stroke-width="0.6000000238418579" fill="rgb(233, 92, 21)" opacity="1.0"/>
    <path d="M 103.54301452636719 204.4791259765625 C 104.55747985839844 203.09152221679688 105.6253662109375 201.32879638671875 104.88916015625 199.76904296875 C 104.572021484375 199.15972900390625 104.07363891601562 198.66384887695312 103.46272277832031 198.34979248046875 C 101.97209167480469 197.5321044921875 100.17758178710938 197.48760986328125 98.64828491210938 198.23046875 C 97.35260009765625 198.86395263671875 96.40646362304688 200.005859375 95.51779174804688 201.13052368164062 C 95.01962280273438 201.76312255859375 94.51046752929688 202.45108032226562 94.44520568847656 203.24920654296875 C 94.36695861816406 204.31375122070312 95.10136413574219 205.26077270507812 95.874755859375 205.9959716796875 C 97.00527954101562 207.0733642578125 98.302734375 207.960693359375 99.716796875 208.62347412109375 C 100.205810546875 208.8515625 100.73287963867188 209.05743408203125 101.26995849609375 209.00762939453125 C 101.76699829101562 208.93572998046875 102.23236083984375 208.72076416015625 102.60931396484375 208.38897705078125 C 103.79196166992188 207.42694091796875 104.4930419921875 205.99456787109375 104.52726745605469 204.47042846679688 L 103.54301452636719 204.4791259765625" stroke-width="0.6000000238418579" fill="rgb(70, 150, 179)" opacity="1.0"/>
    <path d="M 455.37762451171875 427.16058349609375 C 455.88128662109375 428.545166015625 456.4976806640625 430.05877685546875 457.8209228515625 430.70452880859375 C 459.24285888671875 431.3973388671875 461.0111083984375 430.78912353515625 462.17236328125 429.7152099609375 C 462.6202392578125 429.30133056640625 463.01873779296875 428.7996826171875 463.1552734375 428.2054443359375 C 463.2677001953125 427.7169189453125 463.1953125 427.2064208984375 463.095458984375 426.71533203125 C 462.7823486328125 425.16632080078125 462.12982177734375 423.57049560546875 460.80560302734375 422.70855712890625 C 459.47039794921875 421.84075927734375 457.57281494140625 421.94427490234375 456.3447265625 422.96014404296875 C 455.1165771484375 423.97607421875 454.6422119140625 425.8138427734375 455.23760986328125 427.2933349609375 L 455.37762451171875 427.16058349609375" stroke-width="0.6000000238418579" fill="rgb(140, 28, 33)" opacity="1.0"/>
    <path d="M 88.92697143554688 203.05435180664062 C 91.0728759765625 202.69390869140625 93.30181884765625 202.29519653320312 95.10142517089844 201.0692138671875 C 96.9010009765625 199.84320068359375 98.15669250488281 197.52294921875 97.47598266601562 195.45498657226562 C 96.63002014160156 192.9041748046875 93.14292907714844 192.00128173828125 90.72010803222656 193.1754150390625 C 88.29728698730469 194.34951782226562 86.86566162109375 196.9398193359375 86.15473937988281 199.53311157226562 C 85.854248046875 200.3138427734375 85.85733032226562 201.17880249023438 86.16339111328125 201.95733642578125 C 86.54391479492188 202.68707275390625 87.6900634765625 203.03680419921875 88.21195983886719 202.39520263671875 L 88.92697143554688 203.05435180664062" stroke-width="0.6000000238418579" fill="rgb(159, 159, 159)" opacity="1.0"/>
    <path d="M 376.8446044921875 297.9252014160156 C 377.9207458496094 297.11767578125 378.7436828613281 295.9238586425781 378.92681884765625 294.5916748046875 C 379.1099548339844 293.2594909667969 378.5832824707031 291.8076477050781 377.4730529785156 291.0389099121094 C 376.6874084472656 290.49639892578125 375.68011474609375 290.33050537109375 374.73297119140625 290.4571228027344 C 373.7857971191406 290.5837097167969 372.8924255371094 290.9817810058594 372.0791320800781 291.4837646484375 C 371.7253112792969 291.7024230957031 371.3700256347656 291.9573974609375 371.188720703125 292.3305358886719 C 370.9806823730469 292.7582092285156 371.0389709472656 293.26190185546875 371.1244812011719 293.7312316894531 C 371.3658447265625 295.0562744140625 371.8194885253906 296.394775390625 372.7587890625 297.3602600097656 C 373.6981201171875 298.32574462890625 375.2144775390625 298.8205871582031 376.4408264160156 298.271484375 L 376.8446044921875 297.9252014160156" stroke-width="0.6000000238418579" fill="rgb(159, 159, 159)" opacity="1.0"/>
    <path d="M 95.67379760742188 433.52618408203125 C 95.92404174804688 432.01776123046875 96.13687133789062 430.33026123046875 95.26136779785156 429.080322265625 C 94.41165161132812 427.863525390625 92.81919860839844 427.4635009765625 91.36190795898438 427.1793212890625 C 90.76971435546875 427.06475830078125 90.14837646484375 426.954345703125 89.57276916503906 427.1334228515625 C 88.59902954101562 427.4356689453125 88.04780578613281 428.4586181640625 87.7525634765625 429.43292236328125 C 87.47819519042969 430.337158203125 87.3350830078125 431.276123046875 87.32760620117188 432.2210693359375 C 87.31491088867188 433.75531005859375 87.79954528808594 435.4755859375 89.15754699707031 436.1885986328125 C 89.89012145996094 436.5745849609375 90.77484130859375 436.5982666015625 91.58384704589844 436.4158935546875 C 92.39285278320312 436.2335205078125 93.14410400390625 435.85784912109375 93.88046264648438 435.476318359375 C 94.6168212890625 435.0948486328125 95.33219909667969 434.7042236328125 95.83476257324219 434.069580078125 L 95.67379760742188 433.52618408203125" stroke-width="0.6000000238418579" fill="rgb(218, 166, 20)" opacity="1.0"/>
    <path d="M 101.08975219726562 139.21469116210938 C 103.74061584472656 139.72421264648438 106.3026123046875 137.98829650878906 106.8121337890625 135.33743286132812 C 106.85577392578125 135.1104278564453 106.88323974609375 134.88063049316406 106.89434814453125 134.64974975585938 C 106.9364013671875 133.77243041992188 106.717529296875 132.8476104736328 106.12168884277344 132.20289611816406 C 105.61820983886719 131.6580047607422 104.90252685546875 131.36395263671875 104.1903076171875 131.1580047607422 C 102.28312683105469 130.60935974121094 100.26382446289062 130.5813751220703 98.34219360351562 131.07696533203125 C 97.83445739746094 131.2088165283203 97.3216552734375 131.3848114013672 96.92404174804688 131.72869873046875 C 96.25619506835938 132.30563354492188 96.03277587890625 133.26580810546875 96.1092529296875 134.14566040039062 C 96.22189331054688 135.4519805908203 96.91497802734375 136.6721649169922 97.890625 137.5485382080078 C 98.86630249023438 138.42491149902344 100.1053466796875 138.9760284423828 101.38713073730469 139.25289916992188 L 101.08975219726562 139.21469116210938" stroke-width="0.6000000238418579" fill="rgb(143, 165, 67)" opacity="1.0"/>
    <path d="M 453.35693359375 343.9725341796875 C 456.48876953125 346.15582275390625 461.5318603515625 343.33392333984375 461.58984375 339.541259765625 C 461.6478271484375 335.7486267089844 457.01165771484375 332.7957458496094 453.46185302734375 334.2037048339844 C 449.91204833984375 335.61163330078125 448.45361328125 340.547119140625 450.43682861328125 343.8147277832031 L 453.35693359375 343.9725341796875" stroke-width="0.6000000238418579" fill="rgb(233, 92, 21)" opacity="1.0"/>
    <path d="M 103.55987548828125 215.05075073242188 C 104.93408203125 213.8021240234375 106.44612121582031 212.16802978515625 106.00497436523438 210.35794067382812 C 105.80137634277344 209.6444091796875 105.38139343261719 209.01165771484375 104.80294799804688 208.54693603515625 C 103.40264892578125 207.358642578125 101.51324462890625 206.92276000976562 99.73388671875 207.37753295898438 C 98.22549438476562 207.76715087890625 96.976806640625 208.77059936523438 95.79269409179688 209.76824951171875 C 95.12841796875 210.32974243164062 94.4405517578125 210.94744873046875 94.19857788085938 211.7779541015625 C 93.88510131835938 212.88754272460938 94.45709228515625 214.04885864257812 95.11624145507812 214.99447631835938 C 96.07919311523438 216.37957763671875 97.25997924804688 217.59970092773438 98.61279296875 218.60748291015625 C 99.08090209960938 218.954833984375 99.59405517578125 219.28689575195312 100.1732177734375 219.35052490234375 C 100.71478271484375 219.38214111328125 101.25382995605469 219.2554931640625 101.72463989257812 218.98602294921875 C 103.18461608886719 218.22421264648438 104.23690795898438 216.86029052734375 104.60333251953125 215.25479125976562 L 103.55987548828125 215.05075073242188" stroke-width="0.6000000238418579" fill="rgb(70, 150, 179)" opacity="1.0"/>
    <path d="M 102.21273803710938 82.00021362304688 C 102.4642333984375 83.9422607421875 102.82455444335938 86.08428955078125 104.35350036621094 87.30584716796875 C 105.99671936035156 88.61709594726562 108.46673583984375 88.34127807617188 110.28451538085938 87.28530883789062 C 110.98553466796875 86.87847900390625 111.64801025390625 86.34346008300781 111.99752807617188 85.61227416992188 C 112.28509521484375 85.01129150390625 112.33938598632812 84.32818603515625 112.35232543945312 83.6622314453125 C 112.39569091796875 81.56221008300781 112.01242065429688 79.302978515625 110.54495239257812 77.80076599121094 C 109.06492614746094 76.28778076171875 106.57365417480469 75.87139892578125 104.68594360351562 76.83267211914062 C 102.79823303222656 77.7939453125 101.649658203125 80.03996276855469 101.99261474609375 82.13180541992188 L 102.21273803710938 82.00021362304688" stroke-width="0.6000000238418579" fill="rgb(140, 28, 33)" opacity="1.0"/>
    <path d="M 90.9847412109375 420.5224609375 C 93.21128845214844 420.0970458984375 95.52345275878906 419.6297607421875 97.36915588378906 418.3109130859375 C 99.21481323242188 416.9920654296875 100.468505859375 414.54620361328125 99.7113037109375 412.40826416015625 C 98.77073669433594 409.77130126953125 95.11785888671875 408.91229248046875 92.62185668945312 410.191650390625 C 90.12586975097656 411.4710388183594 88.69523620605469 414.20220947265625 88.01530456542969 416.91973876953125 C 87.72055053710938 417.7398681640625 87.74392700195312 418.640625 88.08087158203125 419.44439697265625 C 88.49420166015625 420.195556640625 89.69607543945312 420.5330810546875 90.22467041015625 419.85260009765625 L 90.9847412109375 420.5224609375" stroke-width="0.6000000238418579" fill="rgb(159, 159, 159)" opacity="1.0"/>
    <path d="M 468.529052734375 59.07130432128906 C 469.6546630859375 57.57130432128906 470.290771484375 55.652984619140625 470.01678466796875 53.79876708984375 C 469.7427978515625 51.944549560546875 468.4722900390625 50.20680236816406 466.6868896484375 49.61061096191406 C 465.424072265625 49.19068908691406 464.011474609375 49.36116027832031 462.793212890625 49.89964294433594 C 461.574951171875 50.43812561035156 460.53448486328125 51.318939208984375 459.6416015625 52.307647705078125 C 459.2532958984375 52.738128662109375 458.877197265625 53.217803955078125 458.77996826171875 53.78779602050781 C 458.668212890625 54.441253662109375 458.9425048828125 55.09257507324219 459.23974609375 55.6873779296875 C 460.0791015625 57.366607666015625 461.20770263671875 58.981170654296875 462.8409423828125 59.907257080078125 C 464.4742431640625 60.833343505859375 466.6964111328125 60.904754638671875 468.1236572265625 59.692047119140625 L 468.529052734375 59.07130432128906" stroke-width="0.6000000238418579" fill="rgb(159, 159, 159)" opacity="1.0"/>
    <path d="M 92.6563720703125 106.73922729492188 C 94.20053100585938 107.27113342285156 95.93995666503906 107.79547119140625 97.41212463378906 107.09576416015625 C 98.84478759765625 106.41729736328125 99.54940795898438 104.81129455566406 100.10794067382812 103.3270263671875 C 100.33396911621094 102.72372436523438 100.560791015625 102.08895874023438 100.474609375 101.45086669921875 C 100.32948303222656 100.37158203125 99.35018920898438 99.60903930664062 98.37655639648438 99.124755859375 C 97.4730224609375 98.6749267578125 96.50958251953125 98.357177734375 95.51571655273438 98.18119812011719 C 93.90206909179688 97.8948974609375 92.00407409667969 98.09927368164062 91.01158142089844 99.40267944335938 C 90.47474670410156 100.10556030273438 90.29240417480469 101.03312683105469 90.34053039550781 101.91763305664062 C 90.38864135742188 102.8021240234375 90.65069580078125 103.66017150878906 90.92147827148438 104.50357055664062 C 91.1922607421875 105.34695434570312 91.47640991210938 106.16989135742188 92.055419921875 106.81208801269531 L 92.6563720703125 106.73922729492188" stroke-width="0.6000000238418579" fill="rgb(218, 166, 20)" opacity="1.0"/>
    <path d="M 120.54977416992188 127.05442810058594 C 123.28901672363281 125.99455261230469 124.65040588378906 122.91476440429688 123.59053039550781 120.175537109375 C 123.49977111816406 119.94097900390625 123.39248657226562 119.71315002441406 123.26950073242188 119.4937744140625 C 122.80197143554688 118.66024780273438 122.06636047363281 117.93350219726562 121.14466857910156 117.68267822265625 C 120.36578369140625 117.47064208984375 119.53593444824219 117.61244201660156 118.7601318359375 117.83349609375 C 116.68429565429688 118.42807006835938 114.8055419921875 119.567626953125 113.31900024414062 121.1337890625 C 112.9267578125 121.54843139648438 112.55531311035156 122.0067138671875 112.38702392578125 122.55337524414062 C 112.10395812988281 123.47097778320312 112.45199584960938 124.485595703125 113.03033447265625 125.25302124023438 C 113.88812255859375 126.39297485351562 115.23159790039062 127.11851501464844 116.6373291015625 127.36381530761719 C 118.04306030273438 127.60911560058594 119.5040283203125 127.40240478515625 120.84613037109375 126.91804504394531 L 120.54977416992188 127.05442810058594" stroke-width="0.6000000238418579" fill="rgb(143, 165, 67)" opacity="1.0"/>
    <path d="M 391.6064453125 304.0037841796875 C 393.90228271484375 307.0517578125 399.5704650878906 305.93975830078125 400.80517578125 302.3551330566406 C 402.0398864746094 298.7704772949219 398.5543518066406 294.5235595703125 394.74444580078125 294.75689697265625 C 390.9345397949219 294.990234375 388.0140686035156 299.224853515625 388.88165283203125 302.9456481933594 L 391.6064453125 304.0037841796875" stroke-width="0.6000000238418579" fill="rgb(233, 92, 21)" opacity="1.0"/>
    <path d="M 122.41886901855469 113.301025390625 C 123.59710693359375 112.04405212402344 124.87417602539062 110.42034912109375 124.33164978027344 108.77896118164062 C 124.09033203125 108.1341552734375 123.65487670898438 107.58012390136719 123.0853271484375 107.19329833984375 C 121.70188903808594 106.19827270507812 119.9219970703125 105.93551635742188 118.31005859375 106.48834228515625 C 116.94389343261719 106.9608154296875 115.86355590820312 107.98165893554688 114.84246826171875 108.99237060546875 C 114.26982116699219 109.56106567382812 113.67950439453125 110.18350219726562 113.51741027832031 110.9696044921875 C 113.3099365234375 112.0191650390625 113.92526245117188 113.05076599121094 114.60516357421875 113.87637329101562 C 115.59872436523438 115.08592224121094 116.781494140625 116.12667846679688 118.10760498046875 116.95826721191406 C 118.56634521484375 117.24472045898438 119.06564331054688 117.51373291015625 119.60604858398438 117.529541015625 C 120.10928344726562 117.51853942871094 120.59844970703125 117.36135864257812 121.01388549804688 117.0771484375 C 122.30760192871094 116.26405334472656 123.17951965332031 114.92437744140625 123.39913940429688 113.41221618652344 L 122.41886901855469 113.301025390625" stroke-width="0.6000000238418579" fill="rgb(70, 150, 179)" opacity="1.0"/>
    <path d="M 426.7442626953125 70.0264892578125 C 427.4647216796875 71.50579833984375 428.325439453125 73.11521911621094 429.87030029296875 73.67852783203125 C 431.53021240234375 74.28265380859375 433.4234619140625 73.40139770507812 434.58831787109375 72.07351684570312 C 435.03759765625 71.56173706054688 435.421875 70.95822143554688 435.50439453125 70.28225708007812 C 435.572509765625 69.72662353515625 435.4327392578125 69.16804504394531 435.2646484375 68.63421630859375 C 434.7366943359375 66.95013427734375 433.8262939453125 65.2535400390625 432.2552490234375 64.45022583007812 C 430.6712646484375 63.641693115234375 428.57568359375 63.977386474609375 427.32977294921875 65.24859619140625 C 426.0838623046875 66.519775390625 425.770751953125 68.61618041992188 426.60418701171875 70.19027709960938 L 426.7442626953125 70.0264892578125" stroke-width="0.6000000238418579" fill="rgb(140, 28, 33)" opacity="1.0"/>
    <path d="M 113.8260498046875 416.35162353515625 C 115.0196533203125 414.5404052734375 116.24169921875 412.64263916015625 116.568359375 410.4966735839844 C 116.89501953125 408.3507080078125 116.05364990234375 405.8589782714844 114.08193969726562 404.95208740234375 C 111.64555358886719 403.8380126953125 108.6192626953125 405.77069091796875 107.8316650390625 408.3363952636719 C 107.0440673828125 410.902099609375 107.963134765625 413.70556640625 109.37362670898438 415.9849853515625 C 109.73956298828125 416.734375 110.37309265136719 417.31927490234375 111.14920043945312 417.62432861328125 C 111.94024658203125 417.8419189453125 112.97358703613281 417.24267578125 112.85946655273438 416.4261474609375 L 113.8260498046875 416.35162353515625" stroke-width="0.6000000238418579" fill="rgb(159, 159, 159)" opacity="1.0"/>
    <path d="M 454.3916015625 432.927490234375 C 455.0557861328125 431.30755615234375 455.179443359375 429.4248046875 454.495849609375 427.81396484375 C 453.812255859375 426.203125 452.2557373046875 424.931884765625 450.50244140625 424.81298828125 C 449.2628173828125 424.7305908203125 448.02655029296875 425.216796875 447.052490234375 425.98980712890625 C 446.07843017578125 426.7628173828125 445.34552001953125 427.80328369140625 444.7713623046875 428.906494140625 C 444.521728515625 429.38677978515625 444.294677734375 429.9085693359375 444.34088134765625 430.44647216796875 C 444.3935546875 431.0631103515625 444.7945556640625 431.58709716796875 445.2030029296875 432.0545654296875 C 446.356201171875 433.3743896484375 447.755615234375 434.5677490234375 449.44903564453125 435.0203857421875 C 451.1424560546875 435.4730224609375 453.16693115234375 435.0150146484375 454.1712646484375 433.58367919921875 L 454.3916015625 432.927490234375" stroke-width="0.6000000238418579" fill="rgb(159, 159, 159)" opacity="1.0"/>
    <path d="M 450.87017822265625 285.6595458984375 C 451.9056396484375 284.2955322265625 452.99755859375 282.7345275878906 452.7825927734375 281.0389099121094 C 452.57586669921875 279.3896484375 451.206787109375 278.161865234375 449.9111328125 277.11944580078125 C 449.3841552734375 276.6967468261719 448.826171875 276.262939453125 448.162353515625 276.1398620605469 C 447.0396728515625 275.9309997558594 445.95941162109375 276.6568298339844 445.158203125 277.4681396484375 C 444.41424560546875 278.2208557128906 443.7822265625 279.0765380859375 443.281494140625 280.0089416503906 C 442.4678955078125 281.5226135253906 442.050048828125 283.4801940917969 443.02337646484375 284.8956604003906 C 443.5477294921875 285.66058349609375 444.41204833984375 286.14593505859375 445.308837890625 286.38763427734375 C 446.2056884765625 286.6293029785156 447.146240234375 286.64923095703125 448.0750732421875 286.6556701660156 C 449.00390625 286.662109375 449.9166259765625 286.6485290527344 450.7459716796875 286.28204345703125 L 450.87017822265625 285.6595458984375" stroke-width="0.6000000238418579" fill="rgb(218, 166, 20)" opacity="1.0"/>
    <path d="M 416.53411865234375 361.260498046875 C 418.846435546875 363.5605163574219 422.58544921875 363.550537109375 424.885498046875 361.2382507324219 C 425.0823974609375 361.04022216796875 425.26507568359375 360.8285217285156 425.43206787109375 360.6046447753906 C 426.06640625 359.7539367675781 426.471435546875 358.67950439453125 426.3095703125 357.6312561035156 C 426.1728515625 356.7453918457031 425.65423583984375 355.9676208496094 425.07958984375 355.28045654296875 C 423.5389404296875 353.4432678222656 421.534423828125 352.0521240234375 419.2742919921875 351.25152587890625 C 418.676513671875 351.0408935546875 418.0439453125 350.8710632324219 417.413330078125 350.947265625 C 416.35467529296875 351.0745544433594 415.482666015625 351.8858642578125 414.96533203125 352.8191223144531 C 414.1964111328125 354.2041320800781 414.067138671875 355.8946533203125 414.4532470703125 357.4314270019531 C 414.83929443359375 358.96820068359375 415.7088623046875 360.3568420410156 416.8062744140625 361.4995422363281 L 416.53411865234375 361.260498046875" stroke-width="0.6000000238418579" fill="rgb(143, 165, 67)" opacity="1.0"/>
    <path d="M 451.208251953125 355.648193359375 C 452.9306640625 352.6992492675781 450.0531005859375 348.4046325683594 446.6671142578125 348.6246643066406 C 443.2811279296875 348.8447265625 440.9803466796875 353.19024658203125 442.49017333984375 356.254638671875 C 443.99993896484375 359.31903076171875 448.5052490234375 360.2658386230469 451.27679443359375 358.2633056640625 L 451.208251953125 355.648193359375" stroke-width="0.6000000238418579" fill="rgb(233, 92, 21)" opacity="1.0"/>
    <path d="M 453.283203125 78.97187805175781 C 454.29888916015625 77.84236145019531 455.39501953125 76.38778686523438 454.8868408203125 74.95082092285156 C 454.662353515625 74.3868408203125 454.268310546875 73.90640258789062 453.75927734375 73.57582092285156 C 452.5216064453125 72.72396850585938 450.9478759765625 72.52484130859375 449.53704833984375 73.04156494140625 C 448.3414306640625 73.48297119140625 447.40771484375 74.40255737304688 446.526123046875 75.31210327148438 C 446.03173828125 75.8238525390625 445.522705078125 76.38330078125 445.3941650390625 77.07919311523438 C 445.23046875 78.00814819335938 445.7916259765625 78.90628051757812 446.40606689453125 79.62164306640625 C 447.303955078125 80.66970825195312 448.365478515625 81.56552124023438 449.5496826171875 82.27435302734375 C 449.959228515625 82.51849365234375 450.404296875 82.74652099609375 450.8809814453125 82.75057983398438 C 451.3243408203125 82.73170471191406 451.752685546875 82.584228515625 452.1136474609375 82.32611083984375 C 453.2392578125 81.58578491210938 453.9833984375 80.38894653320312 454.14935302734375 79.052001953125 L 453.283203125 78.97187805175781" stroke-width="0.6000000238418579" fill="rgb(70, 150, 179)" opacity="1.0"/>
    <path d="M 450.5609130859375 389.4831237792969 C 450.79754638671875 388.9130859375 451.035888671875 388.27130126953125 450.810302734375 387.6972351074219 C 450.5675048828125 387.0807189941406 449.8494873046875 386.76776123046875 449.1868896484375 386.7704162597656 C 448.931396484375 386.7713317871094 448.6663818359375 386.8133239746094 448.4559326171875 386.9581298828125 C 448.28289794921875 387.07708740234375 448.16064453125 387.255126953125 448.05242919921875 387.4350280761719 C 447.71044921875 388.0018615722656 447.4599609375 388.67926025390625 447.6246337890625 389.3203125 C 447.791015625 389.96630859375 448.4061279296875 390.4717102050781 449.0728759765625 390.5058898925781 C 449.73968505859375 390.5400695800781 450.40655517578125 390.10711669921875 450.6417236328125 389.4817810058594 L 450.5609130859375 389.4831237792969" stroke-width="0.6000000238418579" fill="rgb(140, 28, 33)" opacity="1.0"/>
    <path d="M 126.40237426757812 217.272705078125 C 123.52239990234375 218.58981323242188 120.5401611328125 219.9920654296875 118.47383117675781 222.39495849609375 C 116.40754699707031 224.79782104492188 115.51898193359375 228.53326416015625 117.25682067871094 231.1827392578125 C 119.4093017578125 234.448486328125 124.65150451660156 234.40042114257812 127.61337280273438 231.8350830078125 C 130.5752410888672 229.26971435546875 131.60906982421875 225.0882568359375 131.62879943847656 221.1748046875 C 131.7562713623047 219.9639892578125 131.42523193359375 218.74942016601562 130.70098876953125 217.770751953125 C 129.89053344726562 216.8887939453125 128.1475067138672 216.83013916015625 127.65631103515625 217.92910766601562 L 126.40237426757812 217.272705078125" stroke-width="0.6000000238418579" fill="rgb(159, 159, 159)" opacity="1.0"/>
    <path d="M 110.30015563964844 224.63226318359375 C 108.1456298828125 222.60885620117188 105.25091552734375 221.27957153320312 102.29873657226562 221.38714599609375 C 99.34652709960938 221.49468994140625 96.4039306640625 223.18353271484375 95.1602783203125 225.87689208984375 C 94.28341674804688 227.78225708007812 94.30540466308594 230.0247802734375 94.9376220703125 232.026611328125 C 95.56983947753906 234.02841186523438 96.7691650390625 235.81112670898438 98.1630859375 237.38128662109375 C 98.77009582519531 238.06423950195312 99.45623779296875 238.7366943359375 100.33230590820312 238.98785400390625 C 101.3365478515625 239.27633666992188 102.40444946289062 238.95965576171875 103.38777160644531 238.59710693359375 C 106.16390991210938 237.5736083984375 108.88894653320312 236.08563232421875 110.62298583984375 233.687744140625 C 112.35702514648438 231.28985595703125 112.8543701171875 227.82125854492188 111.20223999023438 225.37506103515625 L 110.30015563964844 224.63226318359375" stroke-width="0.6000000238418579" fill="rgb(159, 159, 159)" opacity="1.0"/>
    <path d="M 304.5476379394531 103.35470581054688 C 303.67156982421875 106.16265869140625 302.8194274902344 109.32177734375 304.15679931640625 111.93516540527344 C 305.4538269042969 114.478515625 308.3822937011719 115.66226196289062 311.0838623046875 116.58944702148438 C 312.1819152832031 116.96450805664062 313.33660888671875 117.33935546875 314.4808044433594 117.1505126953125 C 316.41619873046875 116.832275390625 317.7372741699219 115.02902221679688 318.55767822265625 113.25064086914062 C 319.31982421875 111.60031127929688 319.8410339355469 109.84907531738281 320.1053466796875 108.05056762695312 C 320.5356140136719 105.13044738769531 320.0674743652344 101.72430419921875 317.6686096191406 100.00634765625 C 316.3748779296875 99.07699584960938 314.6954040527344 98.79769897460938 313.1055908203125 98.9310302734375 C 311.51580810546875 99.06436157226562 309.98492431640625 99.58140563964844 308.4808654785156 100.1134033203125 C 306.976806640625 100.64540100097656 305.5103454589844 101.20036315917969 304.3847351074219 102.27665710449219 L 304.5476379394531 103.35470581054688" stroke-width="0.6000000238418579" fill="rgb(218, 166, 20)" opacity="1.0"/>
    <path d="M 218.3634033203125 125.25828552246094 C 214.99365234375 121.51971435546875 209.231201171875 121.22073364257812 205.49261474609375 124.59049987792969 C 205.17245483398438 124.87905883789062 204.87319946289062 125.18994140625 204.5970458984375 125.52085876464844 C 203.54803466796875 126.77842712402344 202.8336181640625 128.4000244140625 202.994873046875 130.0289306640625 C 203.13104248046875 131.40548706054688 203.8648681640625 132.64759826660156 204.69256591796875 133.7547607421875 C 206.9122314453125 136.71530151367188 209.88409423828125 139.02749633789062 213.29946899414062 140.45120239257812 C 214.202880859375 140.8260040283203 215.16351318359375 141.140869140625 216.14154052734375 141.07647705078125 C 217.7835693359375 140.96934509277344 219.195556640625 139.79248046875 220.07113647460938 138.3978729248047 C 221.37249755859375 136.32827758789062 221.71371459960938 133.73416137695312 221.248046875 131.3336181640625 C 220.7823486328125 128.93309020996094 219.5592041015625 126.72016906738281 217.96405029296875 124.8670654296875 L 218.3634033203125 125.25828552246094" stroke-width="0.6000000238418579" fill="rgb(143, 165, 67)" opacity="1.0"/>
    <path d="M 223.2906494140625 93.60197448730469 C 221.69097900390625 99.41802978515625 228.55410766601562 105.44052124023438 234.23336791992188 103.5262451171875 C 239.91262817382812 101.61195373535156 241.86489868164062 93.14932250976562 237.8953857421875 88.60504150390625 C 233.9259033203125 84.06077575683594 225.8057861328125 84.49208068847656 221.98529052734375 89.1695556640625 L 223.2906494140625 93.60197448730469" stroke-width="0.6000000238418579" fill="rgb(233, 92, 21)" opacity="1.0"/>
    <path d="M 201.3140869140625 95.88153076171875 C 200.26019287109375 93.11116027832031 198.71392822265625 89.91119384765625 195.76681518554688 89.51095581054688 C 194.58779907226562 89.39730834960938 193.40255737304688 89.65232849121094 192.3746337890625 90.2408447265625 C 189.79205322265625 91.62855529785156 188.04229736328125 94.18193054199219 187.68023681640625 97.09127807617188 C 187.37939453125 99.55999755859375 188.14215087890625 102.00076293945312 188.93399047851562 104.34226989746094 C 189.38092041015625 105.6568603515625 189.89764404296875 107.03932189941406 190.99053955078125 107.88330078125 C 192.45657348632812 108.99630737304688 194.51589965820312 108.82369995117188 196.3055419921875 108.395751953125 C 198.9254150390625 107.77275085449219 201.42721557617188 106.72979736328125 203.7138671875 105.30734252929688 C 204.50299072265625 104.8143310546875 205.2957763671875 104.2454833984375 205.7281494140625 103.42196655273438 C 206.09097290039062 102.63566589355469 206.21719360351562 101.76077270507812 206.09140014648438 100.90396118164062 C 205.8109130859375 98.29013061523438 204.39791870117188 95.930908203125 202.22592163085938 94.449951171875 L 201.3140869140625 95.88153076171875" stroke-width="0.6000000238418579" fill="rgb(70, 150, 179)" opacity="1.0"/>
    <path d="M 269.3020935058594 132.07537841796875 C 268.1631774902344 135.00775146484375 267.02386474609375 138.30589294433594 268.24072265625 141.20462036132812 C 269.5497741699219 144.31771850585938 273.2454528808594 145.82839965820312 276.62127685546875 145.73719787597656 C 277.9228820800781 145.70257568359375 279.2686767578125 145.45751953125 280.323974609375 144.69509887695312 C 281.1917419433594 144.0686798095703 281.793701171875 143.14703369140625 282.3241271972656 142.2177734375 C 284.00042724609375 139.28936767578125 285.1974182128906 135.80828857421875 284.2831726074219 132.56101989746094 C 283.3594665527344 129.2888946533203 280.1661376953125 126.78561401367188 276.7644958496094 126.68951416015625 C 273.36285400390625 126.59339904785156 270.01556396484375 128.877685546875 268.8904113769531 132.0916748046875 L 269.3020935058594 132.07537841796875" stroke-width="0.6000000238418579" fill="rgb(140, 28, 33)" opacity="1.0"/>
    <path d="M 315.2425231933594 115.61550903320312 C 312.38818359375 116.065673828125 309.42303466796875 116.56552124023438 307.0170593261719 118.16964721679688 C 304.6111145019531 119.77375793457031 302.9128723144531 122.83816528320312 303.7893371582031 125.59329223632812 C 304.87884521484375 128.9917755126953 309.4974060058594 130.2370147705078 312.7302551269531 128.7100372314453 C 315.963134765625 127.18307495117188 317.8985900878906 123.76242065429688 318.8770446777344 120.32820129394531 C 319.28643798828125 119.29547119140625 319.2938232421875 118.14682006835938 318.8977355957031 117.10891723632812 C 318.4021301269531 116.13482666015625 316.8847961425781 115.65521240234375 316.1832580566406 116.50032043457031 L 315.2425231933594 115.61550903320312" stroke-width="0.6000000238418579" fill="rgb(159, 159, 159)" opacity="1.0"/>
    <path d="M 198.01220703125 132.90162658691406 C 195.83319091796875 130.8972625732422 192.91995239257812 129.5958251953125 189.96405029296875 129.7341766357422 C 187.00814819335938 129.87252807617188 184.0782470703125 131.59463500976562 182.8604736328125 134.3052978515625 C 182.001953125 136.2228546142578 182.04721069335938 138.46884155273438 182.70123291015625 140.4673614501953 C 183.355224609375 142.4658966064453 184.57501220703125 144.23907470703125 185.98748779296875 145.79737854003906 C 186.60256958007812 146.4751434326172 187.29681396484375 147.1415557861328 188.17691040039062 147.38409423828125 C 189.185791015625 147.66261291503906 190.25213623046875 147.33432006835938 191.23333740234375 146.96099853515625 C 194.00338745117188 145.9070281982422 196.71743774414062 144.3883819580078 198.429443359375 141.96859741210938 C 200.1414794921875 139.54881286621094 200.60366821289062 136.06936645507812 198.9234619140625 133.6363067626953 L 198.01220703125 132.90162658691406" stroke-width="0.6000000238418579" fill="rgb(159, 159, 159)" opacity="1.0"/>
    <path d="M 279.89605712890625 105.457763671875 C 277.02203369140625 106.3504638671875 273.8660583496094 107.46725463867188 272.44134521484375 110.11146545410156 C 271.0521545410156 112.68101501464844 271.75567626953125 115.83523559570312 272.5435485839844 118.64935302734375 C 272.8652648925781 119.79208374023438 273.2200927734375 120.982421875 274.0436096191406 121.83657836914062 C 275.43560791015625 123.28204345703125 277.7217712402344 123.34765625 279.69622802734375 123.0059814453125 C 281.52899169921875 122.6895751953125 283.30682373046875 122.11161804199219 284.9753112792969 121.28982543945312 C 287.6849365234375 119.95646667480469 290.2822265625 117.58409118652344 290.33624267578125 114.56573486328125 C 290.3677978515625 112.93626403808594 289.6277160644531 111.35934448242188 288.5921936035156 110.09761047363281 C 287.556640625 108.83587646484375 286.2320861816406 107.84658813476562 284.9104919433594 106.88861083984375 C 283.58892822265625 105.93060302734375 282.26983642578125 105.01760864257812 280.7095642089844 104.69448852539062 L 279.89605712890625 105.457763671875" stroke-width="0.6000000238418579" fill="rgb(218, 166, 20)" opacity="1.0"/>
    <path d="M 242.13009643554688 118.89459228515625 C 240.9876708984375 123.7886962890625 244.02899169921875 128.6822967529297 248.923095703125 129.82473754882812 C 249.3421630859375 129.9225616455078 249.76766967773438 129.99053955078125 250.19638061523438 130.0281524658203 C 251.82537841796875 130.17076110839844 253.56192016601562 129.8314971923828 254.8050537109375 128.7703399658203 C 255.85568237304688 127.87368774414062 256.4552307128906 126.5638427734375 256.8906555175781 125.25401306152344 C 258.0513000488281 121.74630737304688 258.2515563964844 117.99179077148438 257.47064208984375 114.38050842285156 C 257.26263427734375 113.42628479003906 256.9728698730469 112.45938110351562 256.3622741699219 111.6944580078125 C 255.3380126953125 110.40969848632812 253.56817626953125 109.923583984375 251.92575073242188 110.00128173828125 C 249.48727416992188 110.11495971679688 247.16644287109375 111.31472778320312 245.4644775390625 113.06547546386719 C 243.76254272460938 114.81622314453125 242.6463623046875 117.08078002929688 242.03720092773438 119.44503784179688 L 242.13009643554688 118.89459228515625" stroke-width="0.6000000238418579" fill="rgb(143, 165, 67)" opacity="1.0"/>
    <path d="M 250.734130859375 91.67819213867188 C 249.6363525390625 97.59664916992188 256.97064208984375 103.00334167480469 262.4553527832031 100.6187744140625 C 267.9400634765625 98.23419189453125 269.1641845703125 89.65435791015625 264.832275390625 85.47230529785156 C 260.5003356933594 81.29025268554688 252.46307373046875 82.4071044921875 249.06063842773438 87.38162231445312 L 250.734130859375 91.67819213867188" stroke-width="0.6000000238418579" fill="rgb(233, 92, 21)" opacity="1.0"/>
    <path d="M 338.14178466796875 84.19595336914062 C 335.4046630859375 83.17181396484375 332.02886962890625 82.23233032226562 329.81317138671875 84.15324401855469 C 328.961181640625 84.95199584960938 328.3780212402344 85.99545288085938 328.1441955566406 87.13966369628906 C 327.48944091796875 89.95516967773438 328.239990234375 92.91339111328125 330.1578063964844 95.07620239257812 C 331.7893371582031 96.90670776367188 334.0928649902344 97.93173217773438 336.3418273925781 98.87057495117188 C 337.60601806640625 99.39590454101562 338.9659118652344 99.91378784179688 340.3024597167969 99.6544189453125 C 342.0811462402344 99.29409790039062 343.2945861816406 97.65728759765625 344.14337158203125 96.05381774902344 C 345.38848876953125 93.70869445800781 346.2458190917969 91.17750549316406 346.6820983886719 88.55841064453125 C 346.83111572265625 87.6531982421875 346.9263610839844 86.69586181640625 346.59832763671875 85.83944702148438 C 346.2525939941406 85.05876159667969 345.6871643066406 84.39552307128906 344.97100830078125 83.93063354492188 C 342.85345458984375 82.4359130859375 340.1867980957031 81.94534301757812 337.6759338378906 82.588623046875 L 338.14178466796875 84.19595336914062" stroke-width="0.6000000238418579" fill="rgb(70, 150, 179)" opacity="1.0"/>
    <path d="M 333.0926818847656 128.7227783203125 C 332.3370056152344 125.79946899414062 331.3766784667969 122.59092712402344 328.8040771484375 121.013916015625 C 326.0395202636719 119.321533203125 322.3130798339844 120.21524047851562 319.7335205078125 122.17800903320312 C 318.7386169433594 122.93434143066406 317.82720947265625 123.87942504882812 317.43206787109375 125.06491088867188 C 317.10687255859375 126.03933715820312 317.1542663574219 127.0948486328125 317.2616271972656 128.11622619628906 C 317.5963134765625 131.3375701904297 318.61419677734375 134.72100830078125 321.14630126953125 136.7391815185547 C 323.69970703125 138.77142333984375 327.59088134765625 138.93270874023438 330.2955322265625 137.10145568847656 C 333.0001525878906 135.27020263671875 334.3285827636719 131.6144256591797 333.40435791015625 128.47938537597656 L 333.0926818847656 128.7227783203125" stroke-width="0.6000000238418579" fill="rgb(140, 28, 33)" opacity="1.0"/>
    <path d="M 350.18951416015625 105.27197265625 C 347.1123962402344 104.40676879882812 343.9009704589844 103.54037475585938 340.7418212890625 104.04217529296875 C 337.5827331542969 104.54396057128906 334.46087646484375 106.84042358398438 334.07000732421875 110.01460266113281 C 333.5963134765625 113.93386840820312 337.6641845703125 117.31781005859375 341.6189270019531 117.27532958984375 C 345.57366943359375 117.23283386230469 349.0984191894531 114.68777465820312 351.6674499511719 111.687255859375 C 352.5557556152344 110.83810424804688 353.09344482421875 109.68685913085938 353.1744384765625 108.46066284179688 C 353.12591552734375 107.25265502929688 351.8220520019531 106.07005310058594 350.7266845703125 106.595703125 L 350.18951416015625 105.27197265625" stroke-width="0.6000000238418579" fill="rgb(159, 159, 159)" opacity="1.0"/>
    <path d="M 350.5686340332031 126.31942749023438 C 347.65728759765625 127.30819702148438 345.02130126953125 129.31600952148438 343.67645263671875 132.07919311523438 C 342.3316345214844 134.84237670898438 342.443359375 138.3699951171875 344.30816650390625 140.8289031982422 C 345.6288146972656 142.56570434570312 347.6985778808594 143.64210510253906 349.845703125 144.0404815673828 C 351.99285888671875 144.4388885498047 354.21612548828125 144.2094268798828 356.33941650390625 143.6973876953125 C 357.2632751464844 143.4739990234375 358.2162170410156 143.17282104492188 358.875244140625 142.49130249023438 C 359.63116455078125 141.71029663085938 359.862548828125 140.57493591308594 360.01055908203125 139.4947967529297 C 360.4283142089844 136.44537353515625 360.3946228027344 133.21575927734375 359.0409240722656 130.45108032226562 C 357.68719482421875 127.6864013671875 354.7456359863281 125.53363037109375 351.6917724609375 125.85440063476562 L 350.5686340332031 126.31942749023438" stroke-width="0.6000000238418579" fill="rgb(159, 159, 159)" opacity="1.0"/>
    <path d="M 365.15814208984375 116.19203186035156 C 362.40765380859375 116.90969848632812 359.3814392089844 117.82656860351562 357.9224548339844 120.25968933105469 C 356.5002746582031 122.62393188476562 357.0272521972656 125.63058471679688 357.6485900878906 128.3199920654297 C 357.9026184082031 129.41217041015625 358.1857604980469 130.55068969726562 358.9257507324219 131.392333984375 C 360.1764831542969 132.8165740966797 362.3307189941406 132.97763061523438 364.2085266113281 132.74087524414062 C 365.9515380859375 132.52182006835938 367.654052734375 132.0535888671875 369.26397705078125 131.35057067871094 C 371.87847900390625 130.20999145507812 374.4320373535156 128.08421325683594 374.6138916015625 125.23858642578125 C 374.7143249511719 123.70248413085938 374.0844421386719 122.1824951171875 373.1620788574219 120.94708251953125 C 372.23974609375 119.711669921875 371.0328369140625 118.72079467773438 369.8274230957031 117.75958251953125 C 368.62200927734375 116.79835510253906 367.4169921875 115.87966918945312 365.95880126953125 115.50714111328125 L 365.15814208984375 116.19203186035156" stroke-width="0.6000000238418579" fill="rgb(218, 166, 20)" opacity="1.0"/>
    <path d="M 433.9102783203125 153.83840942382812 C 429.260009765625 154.75323486328125 426.23187255859375 159.26461791992188 427.146728515625 163.91485595703125 C 427.22503662109375 164.31307983398438 427.33154296875 164.7052001953125 427.46533203125 165.08834838867188 C 427.97412109375 166.5440673828125 428.93890380859375 167.90545654296875 430.3330078125 168.5628662109375 C 431.5111083984375 169.11856079101562 432.86956787109375 169.12628173828125 434.16436767578125 168.992919921875 C 437.62982177734375 168.63113403320312 440.9351806640625 167.3480224609375 443.737060546875 165.27694702148438 C 444.476806640625 164.72824096679688 445.19573974609375 164.1043701171875 445.61669921875 163.282958984375 C 446.32415771484375 161.9044189453125 446.05609130859375 160.1944580078125 445.3526611328125 158.8126220703125 C 444.309814453125 156.76031494140625 442.3787841796875 155.23016357421875 440.2139892578125 154.44558715820312 C 438.0491943359375 153.66102600097656 435.66973876953125 153.57919311523438 433.401123046875 153.97189331054688 L 433.9102783203125 153.83840942382812" stroke-width="0.6000000238418579" fill="rgb(143, 165, 67)" opacity="1.0"/>
    <path d="M 143.4914093017578 418.242431640625 C 140.6761932373047 423.542724609375 146.03355407714844 430.879638671875 151.96347045898438 430.253173828125 C 157.89337158203125 429.6265869140625 161.625244140625 421.8330078125 158.7568359375 416.5592041015625 C 155.88839721679688 411.28546142578125 147.91021728515625 409.9424133300781 143.1856231689453 413.6552734375 L 143.4914093017578 418.242431640625" stroke-width="0.6000000238418579" fill="rgb(233, 92, 21)" opacity="1.0"/>
    <path d="M 436.2735595703125 186.582275390625 C 433.48583984375 186.45501708984375 430.142578125 186.59210205078125 428.693115234375 188.98782348632812 C 428.1533203125 189.96368408203125 427.9296875 191.08297729492188 428.052978515625 192.19131469726562 C 428.284423828125 194.94183349609375 429.8345947265625 197.40957641601562 432.2120361328125 198.81201171875 C 434.2318115234375 199.99649047851562 436.625732421875 200.2518310546875 438.94482421875 200.44485473632812 C 440.24774169921875 200.55117797851562 441.63543701171875 200.62265014648438 442.7738037109375 199.99468994140625 C 444.2843017578125 199.145263671875 444.906494140625 197.30181884765625 445.2071533203125 195.595703125 C 445.6502685546875 193.09933471679688 445.6864013671875 190.54769897460938 445.31414794921875 188.039794921875 C 445.183837890625 187.17352294921875 444.98944091796875 186.27566528320312 444.4400634765625 185.59375 C 443.896728515625 184.98583984375 443.1883544921875 184.54910278320312 442.401123046875 184.33685302734375 C 440.038330078125 183.60015869140625 437.47119140625 183.93701171875 435.37847900390625 185.25848388671875 L 436.2735595703125 186.582275390625" stroke-width="0.6000000238418579" fill="rgb(70, 150, 179)" opacity="1.0"/>
    <path d="M 407.5290832519531 157.77627563476562 C 407.11480712890625 154.65853881835938 406.52471923828125 151.2201690673828 404.0626220703125 149.2664031982422 C 401.4164733886719 147.16920471191406 397.450927734375 147.62533569335938 394.53704833984375 149.33096313476562 C 393.4132995605469 149.9881134033203 392.3521728515625 150.8509063720703 391.7947082519531 152.02713012695312 C 391.3360595703125 152.99388122558594 391.25250244140625 154.09127807617188 391.2352600097656 155.16091918945312 C 391.1767883300781 158.533935546875 391.8044128417969 162.160400390625 394.1692810058594 164.56527709960938 C 396.5543518066406 166.98736572265625 400.5577697753906 167.64285278320312 403.5844421386719 166.08892822265625 C 406.61114501953125 164.53497314453125 408.44390869140625 160.92156982421875 407.8819274902344 157.563720703125 L 407.5290832519531 157.77627563476562" stroke-width="0.6000000238418579" fill="rgb(140, 28, 33)" opacity="1.0"/>
    <path d="M 139.25535583496094 121.64715576171875 C 136.13587951660156 122.09951782226562 132.89488220214844 122.60458374023438 130.2488250732422 124.32171630859375 C 127.60281372070312 126.038818359375 125.70895385742188 129.35833740234375 126.62767028808594 132.3753662109375 C 127.77003479003906 136.09703063964844 132.79086303710938 137.51780700683594 136.33779907226562 135.89602661132812 C 139.88473510742188 134.27426147460938 142.0421600341797 130.5693817138672 143.15591430664062 126.83674621582031 C 143.61643981933594 125.7158203125 143.6400604248047 124.46304321289062 143.22206115722656 123.32559204101562 C 142.6946563720703 122.25637817382812 141.04612731933594 121.71269226074219 140.26947021484375 122.625 L 139.25535583496094 121.64715576171875" stroke-width="0.6000000238418579" fill="rgb(159, 159, 159)" opacity="1.0"/>
    <path d="M 418.1942138671875 178.65057373046875 C 416.002197265625 176.68017578125 413.0872802734375 175.41790771484375 410.14630126953125 175.58941650390625 C 407.2053527832031 175.76089477539062 404.3083801269531 177.50869750976562 403.1271057128906 180.22100830078125 C 402.29437255859375 182.13970947265625 402.3651123046875 184.375 403.0389709472656 186.35699462890625 C 403.7128601074219 188.33901977539062 404.9473876953125 190.09024047851562 406.37127685546875 191.6253662109375 C 406.9913330078125 192.29302978515625 407.6900329589844 192.948486328125 408.56890869140625 193.17987060546875 C 409.576416015625 193.44561767578125 410.6341857910156 193.10662841796875 411.6066589355469 192.7237548828125 C 414.3521728515625 191.6429443359375 417.03656005859375 190.10015869140625 418.71319580078125 187.6717529296875 C 420.38983154296875 185.24334716796875 420.8101806640625 181.77435302734375 419.1097412109375 179.37152099609375 L 418.1942138671875 178.65057373046875" stroke-width="0.6000000238418579" fill="rgb(159, 159, 159)" opacity="1.0"/>
    <path d="M 401.4808044433594 187.13400268554688 C 400.4958801269531 184.2825927734375 399.2775573730469 181.15576171875 396.58343505859375 179.81158447265625 C 393.9652099609375 178.50067138671875 390.8271179199219 179.30484008789062 388.03240966796875 180.182861328125 C 386.8976135253906 180.54119873046875 385.7161865234375 180.93414306640625 384.8863220214844 181.78616333007812 C 383.48193359375 183.22634887695312 383.4881896972656 185.51895141601562 383.8927001953125 187.4864501953125 C 384.2674255371094 189.312744140625 384.9024963378906 191.07574462890625 385.77838134765625 192.7215576171875 C 387.19964599609375 195.39437866210938 389.6583557128906 197.92193603515625 392.6841735839844 197.88101196289062 C 394.3177490234375 197.86129760742188 395.8743896484375 197.07015991210938 397.1059265136719 195.992919921875 C 398.33746337890625 194.9156494140625 399.28692626953125 193.557373046875 400.20513916015625 192.20309448242188 C 401.12335205078125 190.84881591796875 401.9965515136719 189.49847412109375 402.2711486816406 187.92501831054688 L 401.4808044433594 187.13400268554688" stroke-width="0.6000000238418579" fill="rgb(218, 166, 20)" opacity="1.0"/>
    <path d="M 450.3551025390625 178.435546875 C 449.51806640625 183.41961669921875 452.8798828125 188.13851928710938 457.8638916015625 188.9755859375 C 458.2906494140625 189.0472412109375 458.7220458984375 189.08856201171875 459.1546630859375 189.09918212890625 C 460.798583984375 189.1392822265625 462.5198974609375 188.68896484375 463.700439453125 187.54534912109375 C 464.6981201171875 186.57901000976562 465.217041015625 185.22650146484375 465.5711669921875 183.8843994140625 C 466.51416015625 180.29058837890625 466.47772216796875 176.50985717773438 465.465576171875 172.93490600585938 C 465.19647216796875 171.99041748046875 464.844482421875 171.038330078125 464.183349609375 170.30926513671875 C 463.0740966796875 169.08462524414062 461.26708984375 168.70867919921875 459.6236572265625 168.89056396484375 C 457.18359375 169.15887451171875 454.93023681640625 170.509765625 453.3328857421875 172.37445068359375 C 451.7354736328125 174.23916625976562 450.7584228515625 176.58251953125 450.296630859375 178.99383544921875 L 450.3551025390625 178.435546875" stroke-width="0.6000000238418579" fill="rgb(143, 165, 67)" opacity="1.0"/>
    <path d="M 148.3800811767578 103.905029296875 C 143.36570739746094 107.79934692382812 145.35488891601562 117.20187377929688 151.34878540039062 119.16796875 C 157.34268188476562 121.134033203125 164.32244873046875 115.23104858398438 163.8406982421875 108.8984375 C 163.35891723632812 102.56582641601562 156.2423095703125 97.81121826171875 150.07354736328125 99.34596252441406 L 148.3800811767578 103.905029296875" stroke-width="0.6000000238418579" fill="rgb(233, 92, 21)" opacity="1.0"/>
    <path d="M 454.18780517578125 151.98684692382812 C 452.6873779296875 154.7509307861328 451.18170166015625 158.20831298828125 452.8978271484375 160.856689453125 C 453.621826171875 161.884033203125 454.646728515625 162.66143798828125 455.83123779296875 163.08160400390625 C 458.7340087890625 164.20010375976562 461.9989013671875 163.84222412109375 464.5904541015625 162.1214599609375 C 466.78515625 160.65618896484375 468.22174072265625 158.35433959960938 469.558349609375 156.0977783203125 C 470.30712890625 154.82896423339844 471.062255859375 153.45704650878906 470.9854736328125 151.9938507080078 C 470.86724853515625 150.04437255859375 469.30413818359375 148.506591796875 467.7220458984375 147.3624267578125 C 465.4088134765625 145.68504333496094 462.8392333984375 144.3931427001953 460.1131591796875 143.5368194580078 C 459.170654296875 143.24276733398438 458.1646728515625 142.9982147216797 457.202880859375 143.2198486328125 C 456.3192138671875 143.47166442871094 455.52789306640625 143.9751739501953 454.9254150390625 144.66897583007812 C 453.0159912109375 146.70240783691406 452.0947265625 149.47109985351562 452.4051513671875 152.2431640625 L 454.18780517578125 151.98684692382812" stroke-width="0.6000000238418579" fill="rgb(70, 150, 179)" opacity="1.0"/>
    <path d="M 375.7248229980469 77.47906494140625 C 376.1121520996094 74.02210998535156 376.3963623046875 70.17410278320312 374.2750244140625 67.41999816894531 C 371.9945068359375 64.46286010742188 367.6163635253906 63.89421081542969 364.03363037109375 64.94734191894531 C 362.652099609375 65.35279846191406 361.28289794921875 65.99571228027344 360.37066650390625 67.10943603515625 C 359.62042236328125 68.02468872070312 359.2378845214844 69.18028259277344 358.93389892578125 70.32376098632812 C 357.9710388183594 73.9285888671875 357.67694091796875 77.98849487304688 359.573486328125 81.20082092285156 C 361.4871520996094 84.43704223632812 365.6092529296875 86.20890808105469 369.2726135253906 85.34869384765625 C 372.93597412109375 84.48849487304688 375.8674011230469 81.09916687011719 376.1602783203125 77.3450927734375 L 375.7248229980469 77.47906494140625" stroke-width="0.6000000238418579" fill="rgb(140, 28, 33)" opacity="1.0"/>
    <path d="M 131.06536865234375 413.3807373046875 C 128.41226196289062 415.5076904296875 125.67498779296875 417.75 124.15386962890625 420.7939453125 C 122.63279724121094 423.837890625 122.68754577636719 427.9603271484375 125.1920166015625 430.2630615234375 C 128.2898712158203 433.09869384765625 133.73545837402344 431.6734619140625 136.14637756347656 428.2254638671875 C 138.55731201171875 424.77740478515625 138.5368194580078 420.1524658203125 137.53074645996094 416.0726318359375 C 137.34584045410156 414.7784423828125 136.68255615234375 413.6007080078125 135.67173767089844 412.771728515625 C 134.59652709960938 412.0660400390625 132.76629638671875 412.462158203125 132.5431671142578 413.73529052734375 L 131.06536865234375 413.3807373046875" stroke-width="0.6000000238418579" fill="rgb(159, 159, 159)" opacity="1.0"/>
    <path d="M 409.7925109863281 207.3101806640625 C 408.4739990234375 204.36322021484375 406.1170959472656 201.80377197265625 403.0967712402344 200.66806030273438 C 400.076416015625 199.5323486328125 396.39935302734375 199.99420166015625 394.0110778808594 202.18429565429688 C 392.324462890625 203.73486328125 391.401611328125 206.00399780273438 391.1950988769531 208.2877197265625 C 390.9886169433594 210.5714111328125 391.4459533691406 212.87332153320312 392.18896484375 215.04306030273438 C 392.51287841796875 215.98709106445312 392.92095947265625 216.953857421875 393.6979064941406 217.57620239257812 C 394.5883483886719 218.29010009765625 395.7979736328125 218.42095947265625 396.9416809082031 218.47003173828125 C 400.17059326171875 218.6085205078125 403.54376220703125 218.2574462890625 406.30169677734375 216.57177734375 C 409.0596618652344 214.8861083984375 411.0225830078125 211.6002197265625 410.3885192871094 208.43890380859375 L 409.7925109863281 207.3101806640625" stroke-width="0.6000000238418579" fill="rgb(159, 159, 159)" opacity="1.0"/>
    <path d="M 383.94781494140625 121.0706787109375 C 380.87615966796875 122.09768676757812 377.50634765625 123.37234497070312 376.03460693359375 126.25033569335938 C 374.599365234375 129.04718017578125 375.4292907714844 132.4246826171875 376.3421325683594 135.43431091308594 C 376.7147521972656 136.65638732910156 377.1240539550781 137.92892456054688 378.0298767089844 138.82888793945312 C 379.5610656738281 140.3519287109375 382.0223693847656 140.36962890625 384.1388854980469 139.95631408691406 C 386.103515625 139.57345581054688 388.00299072265625 138.91046142578125 389.7791748046875 137.98765563964844 C 392.66375732421875 136.49032592773438 395.4034118652344 133.87767028808594 395.3916931152344 130.62881469726562 C 395.387939453125 128.87486267089844 394.55517578125 127.1953125 393.4117736816406 125.8616943359375 C 392.2684020996094 124.52810668945312 390.8203125 123.49432373046875 389.376220703125 122.49417114257812 C 387.9320983886719 121.49398803710938 386.49169921875 120.54216003417969 384.805419921875 120.23062133789062 L 383.94781494140625 121.0706787109375" stroke-width="0.6000000238418579" fill="rgb(218, 166, 20)" opacity="1.0"/>
    <path d="M 402.57086181640625 80.33770751953125 C 398.88232421875 76.25558471679688 392.58294677734375 75.93655395507812 388.5008239746094 79.62509155273438 C 388.1512756347656 79.94094848632812 387.8245849609375 80.28118896484375 387.5231628417969 80.64328002929688 C 386.378173828125 82.01934814453125 385.5994567871094 83.79289245605469 385.7779235839844 85.5732421875 C 385.9285888671875 87.07777404785156 386.7323913574219 88.43453979492188 387.638671875 89.64366149902344 C 390.0689697265625 92.8768310546875 393.3206481933594 95.40031433105469 397.0559387207031 96.95196533203125 C 398.0439758300781 97.36044311523438 399.0944519042969 97.70332336425781 400.1634826660156 97.63162231445312 C 401.9582214355469 97.51229858398438 403.5000915527344 96.22396850585938 404.4552917480469 94.69831848144531 C 405.8750305175781 92.43429565429688 406.2445373535156 89.59817504882812 405.73223876953125 86.97477722167969 C 405.2199401855469 84.35137939453125 403.87994384765625 81.93408203125 402.1338195800781 79.91059875488281 L 402.57086181640625 80.33770751953125" stroke-width="0.6000000238418579" fill="rgb(143, 165, 67)" opacity="1.0"/>
    <path d="M 117.67337036132812 425.24322509765625 C 114.6683349609375 419.684814453125 105.11260986328125 420.10333251953125 102.20425415039062 425.6671142578125 C 99.29592895507812 431.23089599609375 103.95228576660156 439.04669189453125 110.248046875 439.60711669921875 C 116.5438232421875 440.16748046875 122.37307739257812 433.95654296875 121.87295532226562 427.6497802734375 L 117.67337036132812 425.24322509765625" stroke-width="0.6000000238418579" fill="rgb(233, 92, 21)" opacity="1.0"/>
    <path d="M 448.3857421875 198.431884765625 C 446.8994140625 201.18942260742188 445.4100341796875 204.63751220703125 447.127197265625 207.27029418945312 C 447.851318359375 208.29144287109375 448.87451171875 209.06271362304688 450.0555419921875 209.47769165039062 C 452.9500732421875 210.5831298828125 456.200927734375 210.21697998046875 458.777099609375 208.49542236328125 C 460.958740234375 207.0294189453125 462.3828125 204.73248291015625 463.7073974609375 202.48092651367188 C 464.44940185546875 201.21493530273438 465.197509765625 199.84622192382812 465.11669921875 198.38909912109375 C 464.9931640625 196.44769287109375 463.431640625 194.920654296875 461.8525390625 193.78573608398438 C 459.54345703125 192.12188720703125 456.9803466796875 190.84271240234375 454.26251220703125 189.99786376953125 C 453.3228759765625 189.707763671875 452.32012939453125 189.46719360351562 451.3629150390625 189.6907958984375 C 450.48345947265625 189.9442138671875 449.69677734375 190.44805908203125 449.0987548828125 191.14089965820312 C 447.2030029296875 193.17193603515625 446.2935791015625 195.93231201171875 446.6109619140625 198.69244384765625 L 448.3857421875 198.431884765625" stroke-width="0.6000000238418579" fill="rgb(70, 150, 179)" opacity="1.0"/>
    <path d="M 413.28009033203125 135.36363220214844 C 412.99285888671875 132.0260009765625 412.5343017578125 128.3385467529297 410.0108642578125 126.13850402832031 C 407.2987060546875 123.77679443359375 403.0569152832031 124.06683349609375 399.8725891113281 125.73811340332031 C 398.64459228515625 126.38197326660156 397.47308349609375 127.24772644042969 396.822021484375 128.47177124023438 C 396.2864074707031 129.477783203125 396.1434631347656 130.64129638671875 396.07244873046875 131.77853393554688 C 395.8441162109375 135.36451721191406 396.33331298828125 139.25393676757812 398.7310791015625 141.9291534423828 C 401.1495056152344 144.6237030029297 405.3768005371094 145.51824951171875 408.6737060546875 144.01393127441406 C 411.9705810546875 142.50961303710938 414.0985107421875 138.7552490234375 413.666015625 135.1548614501953 L 413.28009033203125 135.36363220214844" stroke-width="0.6000000238418579" fill="rgb(140, 28, 33)" opacity="1.0"/>
    <path d="M 399.2530212402344 70.83102416992188 C 400.1749267578125 74.05300903320312 401.16973876953125 77.39549255371094 403.3565673828125 79.93814086914062 C 405.5433654785156 82.48072814941406 409.31103515625 84.00213623046875 412.3585205078125 82.60353088378906 C 416.116455078125 80.86869812011719 416.89654541015625 75.37612915039062 414.6815185546875 71.8707275390625 C 412.466552734375 68.36534118652344 408.2552795410156 66.62127685546875 404.1637268066406 65.980712890625 C 402.9170227050781 65.65553283691406 401.5937805175781 65.80950927734375 400.455078125 66.41226196289062 C 399.4039001464844 67.12054443359375 399.0664367675781 68.93499755859375 400.1384582519531 69.62301635742188 L 399.2530212402344 70.83102416992188" stroke-width="0.6000000238418579" fill="rgb(159, 159, 159)" opacity="1.0"/>
    <path d="M 441.9722900390625 235.682861328125 C 440.2100830078125 238.42803955078125 439.35009765625 241.83685302734375 440.06085205078125 245.01885986328125 C 440.7716064453125 248.20086669921875 443.1964111328125 251.05429077148438 446.3695068359375 251.8619384765625 C 448.61358642578125 252.43008422851562 451.042724609375 251.9549560546875 453.087890625 250.8660888671875 C 455.1329345703125 249.77719116210938 456.826171875 248.11700439453125 458.2496337890625 246.28836059570312 C 458.86859130859375 245.49221801757812 459.460205078125 244.6123046875 459.55657958984375 243.611083984375 C 459.66748046875 242.4632568359375 459.10894775390625 241.36810302734375 458.5177001953125 240.37396240234375 C 456.848388671875 237.56732177734375 454.685302734375 234.90957641601562 451.7342529296875 233.51031494140625 C 448.783203125 232.111083984375 444.91900634765625 232.26934814453125 442.596923828125 234.554443359375 L 441.9722900390625 235.682861328125" stroke-width="0.6000000238418579" fill="rgb(159, 159, 159)" opacity="1.0"/>
    <path d="M 408.0401916503906 262.2160949707031 C 406.32879638671875 259.42340087890625 404.3055419921875 256.3933410644531 401.1346740722656 255.59857177734375 C 398.0520935058594 254.82131958007812 394.9131774902344 256.40814208984375 392.1556396484375 257.9928894042969 C 391.0363464355469 258.6383361816406 389.8757019042969 259.3313903808594 389.1952209472656 260.4288635253906 C 388.0432434082031 262.2843322753906 388.5862731933594 264.7135314941406 389.4754638671875 266.704833984375 C 390.3000793457031 268.5534362792969 391.3858642578125 270.2740478515625 392.6995544433594 271.8139953613281 C 394.8317565917969 274.31524658203125 398.0299072265625 276.41973876953125 401.2283630371094 275.66839599609375 C 402.9556884765625 275.2652893066406 404.42095947265625 274.0622863769531 405.474609375 272.63201904296875 C 406.52825927734375 271.2017517089844 407.21710205078125 269.53955078125 407.87371826171875 267.888916015625 C 408.5303649902344 266.2382507324219 409.1402282714844 264.6022644042969 409.0632019042969 262.86981201171875 L 408.0401916503906 262.2160949707031" stroke-width="0.6000000238418579" fill="rgb(218, 166, 20)" opacity="1.0"/>
    <path d="M 416.58221435546875 87.20796203613281 C 414.55718994140625 92.26043701171875 417.01141357421875 97.99786376953125 422.06390380859375 100.02288818359375 C 422.49652099609375 100.1962890625 422.94091796875 100.33877563476562 423.39373779296875 100.44929504394531 C 425.1143798828125 100.868896484375 427.0291748046875 100.79020690917969 428.533935546875 99.85781860351562 C 429.8056640625 99.07000732421875 430.66217041015625 97.76593017578125 431.3428955078125 96.43496704101562 C 433.1602783203125 92.8697509765625 433.9898681640625 88.88296508789062 433.74554443359375 84.88876342773438 C 433.67919921875 83.83306884765625 433.52740478515625 82.75041198730469 432.9990234375 81.83145141601562 C 432.11297607421875 80.28814697265625 430.2978515625 79.47770690917969 428.5267333984375 79.29177856445312 C 425.8974609375 79.01393127441406 423.2161865234375 79.91815185546875 421.107177734375 81.51362609863281 C 418.9981689453125 83.10910034179688 417.43212890625 85.35067749023438 416.392578125 87.78204345703125 L 416.58221435546875 87.20796203613281" stroke-width="0.6000000238418579" fill="rgb(143, 165, 67)" opacity="1.0"/>
    <path d="M 442.52130126953125 129.07940673828125 C 439.854248046875 134.95211791992188 446.089111328125 142.465576171875 452.40814208984375 141.39894104003906 C 458.7271728515625 140.332275390625 462.21142578125 131.72410583496094 458.78369140625 126.25808715820312 C 455.35595703125 120.79205322265625 446.70880126953125 119.88236999511719 441.8880615234375 124.17939758300781 L 442.52130126953125 129.07940673828125" stroke-width="0.6000000238418579" fill="rgb(233, 92, 21)" opacity="1.0"/>
    <path d="M 446.89654541015625 93.34674072265625 C 446.1314697265625 96.4207763671875 445.536376953125 100.172119140625 447.87847900390625 102.32110595703125 C 448.84381103515625 103.14004516601562 450.0394287109375 103.63925170898438 451.300537109375 103.74984741210938 C 454.41339111328125 104.10745239257812 457.5064697265625 102.93408203125 459.598876953125 100.60185241699219 C 461.3687744140625 98.61892700195312 462.1883544921875 96.01173400878906 462.92181396484375 93.47393798828125 C 463.33154296875 92.04769897460938 463.721435546875 90.51931762695312 463.277099609375 89.11198425292969 C 462.6695556640625 87.24099731445312 460.757080078125 86.13626098632812 458.925537109375 85.42010498046875 C 456.2464599609375 84.36868286132812 453.414794921875 83.75782775878906 450.5404052734375 83.61123657226562 C 449.54718017578125 83.5625 448.5045166015625 83.57809448242188 447.6226806640625 84.03703308105469 C 446.82464599609375 84.50570678710938 446.18017578125 85.19647216796875 445.7679443359375 86.02510070800781 C 444.41961669921875 88.48995971679688 444.220458984375 91.4222412109375 445.22308349609375 94.04678344726562 L 446.89654541015625 93.34674072265625" stroke-width="0.6000000238418579" fill="rgb(70, 150, 179)" opacity="1.0"/>
    <path d="M 320.9765625 373.0898742675781 C 317.43658447265625 373.6332702636719 313.5356140136719 374.38421630859375 311.367919921875 377.2322692871094 C 309.04119873046875 380.2931213378906 309.6517639160156 384.79736328125 311.6606750488281 388.0755310058594 C 312.4346923828125 389.33978271484375 313.44140625 390.5279846191406 314.7933349609375 391.1355895996094 C 315.904541015625 391.635498046875 317.15582275390625 391.70538330078125 318.3739929199219 391.7004089355469 C 322.21551513671875 391.6893310546875 326.3297424316406 390.891357421875 329.01324462890625 388.1436462402344 C 331.71588134765625 385.37249755859375 332.3699951171875 380.7995910644531 330.53118896484375 377.38946533203125 C 328.6923828125 373.9793701171875 324.5364074707031 371.9759826660156 320.7264709472656 372.69305419921875 L 320.9765625 373.0898742675781" stroke-width="0.6000000238418579" fill="rgb(140, 28, 33)" opacity="1.0"/>
    <path d="M 307.5929870605469 397.6163635253906 C 304.08917236328125 398.6880187988281 300.455078125 399.8417663574219 297.7189636230469 402.28271484375 C 294.98291015625 404.7236328125 293.39447021484375 408.8724060058594 294.9837951660156 412.176025390625 C 296.9547119140625 416.24951171875 302.974365234375 416.993408203125 306.7623596191406 414.50262451171875 C 310.55035400390625 412.0118408203125 312.3733825683594 407.3736572265625 312.9924621582031 402.8883056640625 C 313.3232116699219 401.51904296875 313.128662109375 400.0755920410156 312.4471740722656 398.8427734375 C 311.6520690917969 397.7077331542969 309.66192626953125 397.3747863769531 308.93109130859375 398.5603332519531 L 307.5929870605469 397.6163635253906" stroke-width="0.6000000238418579" fill="rgb(159, 159, 159)" opacity="1.0"/>
    <path d="M 319.8936767578125 414.61029052734375 C 316.0741882324219 415.514892578125 312.4814453125 417.7479248046875 310.4382629394531 421.09698486328125 C 308.39508056640625 424.446044921875 308.110595703125 428.94268798828125 310.1832580566406 432.2930908203125 C 311.6516418457031 434.6600341796875 314.15191650390625 436.2781982421875 316.8324890136719 437.0440673828125 C 319.5130615234375 437.8099365234375 322.36627197265625 437.78717041015625 325.1266174316406 437.39312744140625 C 326.3277587890625 437.220947265625 327.5751953125 436.953369140625 328.4951477050781 436.16693115234375 C 329.55023193359375 435.2657470703125 329.9815979003906 433.850830078125 330.3002624511719 432.4959716796875 C 331.1998291015625 428.67108154296875 331.5474853515625 424.5626220703125 330.1613464355469 420.8853759765625 C 328.77520751953125 417.2081298828125 325.297119140625 414.11663818359375 321.37725830078125 414.15509033203125 L 319.8936767578125 414.61029052734375" stroke-width="0.6000000238418579" fill="rgb(159, 159, 159)" opacity="1.0"/>
    <path d="M 269.83697509765625 416.20172119140625 C 266.7182922363281 418.495361328125 263.3511047363281 421.17999267578125 262.7308044433594 424.99365234375 C 262.122314453125 428.7015380859375 264.30377197265625 432.2403564453125 266.4447937011719 435.330322265625 C 267.31640625 436.584228515625 268.24822998046875 437.8822021484375 269.6085205078125 438.5743408203125 C 271.9085388183594 439.746337890625 274.7154541015625 438.86492919921875 276.97216796875 437.619384765625 C 279.0672607421875 436.464111328125 280.9855651855469 435.0140380859375 282.66845703125 433.3134765625 C 285.4019775390625 430.55322265625 287.5621032714844 426.5770263671875 286.35870361328125 422.8848876953125 C 285.7119445800781 420.890625 284.14923095703125 419.28466796875 282.35980224609375 418.1861572265625 C 280.5704040527344 417.087646484375 278.5441589355469 416.44189453125 276.5346984863281 415.8328857421875 C 274.5252685546875 415.223876953125 272.5377502441406 414.6685791015625 270.5050354003906 414.9317626953125 L 269.83697509765625 416.20172119140625" stroke-width="0.6000000238418579" fill="rgb(218, 166, 20)" opacity="1.0"/>
    <path d="M 223.81927490234375 414.305908203125 C 217.72381591796875 412.6279296875 211.42218017578125 416.2091064453125 209.7442626953125 422.3045654296875 C 209.6005859375 422.8265380859375 209.49411010742188 423.3580322265625 209.42562866210938 423.89501953125 C 209.16583251953125 425.9356689453125 209.50650024414062 428.13525390625 210.7789306640625 429.7503662109375 C 211.8541259765625 431.1153564453125 213.47097778320312 431.9337158203125 215.095947265625 432.5457763671875 C 219.44781494140625 434.1781005859375 224.15737915039062 434.6153564453125 228.73541259765625 433.812255859375 C 229.94512939453125 433.597900390625 231.17489624023438 433.281494140625 232.16656494140625 432.5517578125 C 233.8321533203125 431.3277587890625 234.53070068359375 429.1270751953125 234.51416015625 427.05865478515625 C 234.4918212890625 423.98785400390625 233.09835815429688 421.01123046875 230.98178100585938 418.78533935546875 C 228.86517333984375 416.5594482421875 226.07376098632812 415.04443359375 223.13198852539062 414.161865234375 L 223.81927490234375 414.305908203125" stroke-width="0.6000000238418579" fill="rgb(143, 165, 67)" opacity="1.0"/>
    <path d="M 288.82476806640625 363.37127685546875 C 290.4239196777344 370.6390075683594 301.378173828125 373.26470947265625 306.4755859375 367.9090881347656 C 311.5729675292969 362.55340576171875 308.83648681640625 352.19439697265625 301.8905029296875 349.5177917480469 C 294.9445495605469 346.8411560058594 286.330322265625 351.98211669921875 284.8507995605469 359.28448486328125 L 288.82476806640625 363.37127685546875" stroke-width="0.6000000238418579" fill="rgb(233, 92, 21)" opacity="1.0"/>
    <path d="M 332.8854675292969 359.4802551269531 C 333.3583068847656 363.2138671875 334.31036376953125 367.62469482421875 337.8276062011719 368.9991149902344 C 339.2486267089844 369.4916076660156 340.7874450683594 369.5310363769531 342.2317810058594 369.1119079589844 C 345.8333435058594 368.1710205078125 348.7554931640625 365.5428466796875 350.071533203125 362.0608215332031 C 351.1803283691406 359.1042175292969 350.9682922363281 355.86431884765625 350.69073486328125 352.73828125 C 350.531982421875 350.98248291015625 350.3074035644531 349.1221008300781 349.2108459472656 347.75408935546875 C 347.7342834472656 345.9425964355469 345.14141845703125 345.5403137207031 342.80511474609375 345.5337219238281 C 339.38592529296875 345.519775390625 335.9870300292969 346.0593566894531 332.740234375 347.1315002441406 C 331.619140625 347.5041198730469 330.47088623046875 347.96923828125 329.6912841796875 348.8563232421875 C 329.0085754394531 349.7182312011719 328.5914306640625 350.7601623535156 328.4906921386719 351.8550720214844 C 328.0558776855469 355.1644287109375 329.09466552734375 358.4979248046875 331.33251953125 360.97442626953125 L 332.8854675292969 359.4802551269531" stroke-width="0.6000000238418579" fill="rgb(70, 150, 179)" opacity="1.0"/>
    <path d="M 298.52276611328125 418.5478515625 C 294.56109619140625 419.34246826171875 290.2032775878906 420.3896484375 287.9068603515625 423.7110595703125 C 285.442138671875 427.280517578125 286.3621826171875 432.325439453125 288.7950134277344 435.9166259765625 C 289.732421875 437.3016357421875 290.9281921386719 438.58892822265625 292.483154296875 439.2041015625 C 293.76123046875 439.7103271484375 295.1750793457031 439.724609375 296.5477294921875 439.65631103515625 C 300.8766174316406 439.446044921875 305.4723815917969 438.3349609375 308.35528564453125 435.10003662109375 C 311.2585754394531 431.8377685546875 311.7603454589844 426.6502685546875 309.5124206542969 422.9017333984375 C 307.2644958496094 419.153076171875 302.4774475097656 417.109130859375 298.220458984375 418.11346435546875 L 298.52276611328125 418.5478515625" stroke-width="0.6000000238418579" fill="rgb(140, 28, 33)" opacity="1.0"/>
    <path d="M 334.2718811035156 389.54901123046875 C 330.640380859375 389.98211669921875 326.8663635253906 390.4728088378906 323.746826171875 392.38677978515625 C 320.62738037109375 394.3007507324219 318.333251953125 398.09539794921875 319.3102722167969 401.62176513671875 C 320.5260314941406 405.97198486328125 326.3078918457031 407.767333984375 330.46954345703125 405.9903869628906 C 334.6311950683594 404.2134704589844 337.2423095703125 399.97955322265625 338.6437072753906 395.6828308105469 C 339.2107849121094 394.3962097167969 339.27496337890625 392.94384765625 338.8235168457031 391.61224365234375 C 338.2431945800781 390.35662841796875 336.3470458984375 389.6776123046875 335.41943359375 390.71295166015625 L 334.2718811035156 389.54901123046875" stroke-width="0.6000000238418579" fill="rgb(159, 159, 159)" opacity="1.0"/>
    <path d="M 347.43414306640625 411.693603515625 C 343.5232849121094 411.9678039550781 339.62115478515625 413.587890625 337.0659484863281 416.55859375 C 334.5107421875 419.529296875 333.50341796875 423.9154052734375 335.00469970703125 427.552734375 C 336.0693664550781 430.12298583984375 338.27215576171875 432.1220703125 340.7904052734375 433.310302734375 C 343.30865478515625 434.49853515625 346.1246032714844 434.937255859375 348.90899658203125 434.9951171875 C 350.1206970214844 435.01953125 351.39349365234375 434.95751953125 352.4273376464844 434.3310546875 C 353.61297607421875 433.6134033203125 354.266845703125 432.28857421875 354.7999572753906 431.00469970703125 C 356.304931640625 427.380126953125 357.3117370605469 423.3868408203125 356.5399475097656 419.538330078125 C 355.7681579589844 415.68988037109375 352.83978271484375 412.08056640625 348.9700012207031 411.4847717285156 L 347.43414306640625 411.693603515625" stroke-width="0.6000000238418579" fill="rgb(159, 159, 159)" opacity="1.0"/>
    <path d="M 255.4837646484375 367.9024353027344 C 256.39947509765625 364.1076354980469 257.25299072265625 359.849853515625 255.25442504882812 356.5054016113281 C 253.31539916992188 353.2501525878906 249.334228515625 351.93743896484375 245.67584228515625 350.9447326660156 C 244.1890869140625 350.54364013671875 242.6273193359375 350.14776611328125 241.12850952148438 350.4974060058594 C 238.59320068359375 351.0873107910156 237.00067138671875 353.59033203125 236.0689697265625 356.016845703125 C 235.203369140625 358.2687072753906 234.66558837890625 360.63323974609375 234.47207641601562 363.0379638671875 C 234.15646362304688 366.9425048828125 235.0728759765625 371.4124755859375 238.39923095703125 373.4787292480469 C 240.19338989257812 374.59686279296875 242.44183349609375 374.8205261230469 244.53558349609375 374.5055847167969 C 246.62933349609375 374.1906433105469 248.61166381835938 373.3726501464844 250.55715942382812 372.5372009277344 C 252.50262451171875 371.7017822265625 254.39639282226562 370.8392028808594 255.79330444335938 369.3158874511719 L 255.4837646484375 367.9024353027344" stroke-width="0.6000000238418579" fill="rgb(218, 166, 20)" opacity="1.0"/>
    <path d="M 252.65826416015625 389.57086181640625 C 249.88818359375 383.74169921875 242.9171142578125 381.2618408203125 237.08795166015625 384.03192138671875 C 236.58877563476562 384.2691345214844 236.10708618164062 384.54144287109375 235.646484375 384.8468322753906 C 233.89642333984375 386.00750732421875 232.42416381835938 387.7381591796875 232.025146484375 389.798828125 C 231.68780517578125 391.5401916503906 232.13412475585938 393.33544921875 232.74530029296875 394.99932861328125 C 234.38742065429688 399.4508056640625 237.19149780273438 403.3814392089844 240.86627197265625 406.38287353515625 C 241.83892822265625 407.17462158203125 242.90386962890625 407.9136657714844 244.1292724609375 408.1930847167969 C 246.18618774414062 408.6634216308594 248.35260009765625 407.7349548339844 249.93975830078125 406.34228515625 C 252.2974853515625 404.2763366699219 253.66778564453125 401.2138671875 253.9755859375 398.0934753417969 C 254.28338623046875 394.97308349609375 253.5916748046875 391.8055419921875 252.31097412109375 388.9437561035156 L 252.65826416015625 389.57086181640625" stroke-width="0.6000000238418579" fill="rgb(143, 165, 67)" opacity="1.0"/>
    <path d="M 202.33078002929688 370.1492614746094 C 200.52935791015625 377.3258056640625 209.11187744140625 384.522216796875 216.0238037109375 382.01812744140625 C 222.93572998046875 379.51397705078125 225.0965576171875 369.0821228027344 220.10333251953125 363.6187438964844 C 215.110107421875 358.1553649902344 205.1640625 358.9081115722656 200.6077880859375 364.7496032714844 L 202.33078002929688 370.1492614746094" stroke-width="0.6000000238418579" fill="rgb(233, 92, 21)" opacity="1.0"/>
    <path d="M 265.9604797363281 368.0250549316406 C 265.9905700683594 371.7701721191406 266.4149475097656 376.24066162109375 269.72991943359375 378.01080322265625 C 271.0765380859375 378.6639099121094 272.5926818847656 378.8830871582031 274.0691223144531 378.63800048828125 C 277.73858642578125 378.1299133300781 280.93414306640625 375.87481689453125 282.6424560546875 372.5877685546875 C 284.0844421386719 369.7957458496094 284.2543029785156 366.569091796875 284.3460693359375 363.447265625 C 284.394775390625 361.6935119628906 284.39068603515625 359.8287048339844 283.4671936035156 358.34832763671875 C 282.2200927734375 356.3852233886719 279.7048034667969 355.6840515136719 277.396728515625 355.4039306640625 C 274.01934814453125 354.9897766113281 270.59716796875 355.125 267.26300048828125 355.80438232421875 C 266.1114196777344 356.04132080078125 264.92218017578125 356.36651611328125 264.0478820800781 357.1518859863281 C 263.27227783203125 357.9237365722656 262.7380065917969 358.9045715332031 262.5102233886719 359.9748229980469 C 261.6929931640625 363.1943664550781 262.3292541503906 366.6103820800781 264.25079345703125 369.31982421875 L 265.9604797363281 368.0250549316406" stroke-width="0.6000000238418579" fill="rgb(70, 150, 179)" opacity="1.0"/>
    <path d="M 325.83538818359375 363.95684814453125 C 326.9412841796875 360.0719909667969 328.0039367675781 355.7195129394531 326.1021423339844 352.15899658203125 C 324.056884765625 348.3354187011719 319.15179443359375 346.8454284667969 314.846923828125 347.3651428222656 C 313.1870422363281 347.5648193359375 311.4958190917969 348.038818359375 310.2377014160156 349.1395263671875 C 309.203125 350.04400634765625 308.54364013671875 351.29412841796875 307.9764709472656 352.54547119140625 C 306.1831359863281 356.4894104003906 305.06854248046875 361.0826721191406 306.6251220703125 365.1249084472656 C 308.1967468261719 369.1977844238281 312.5780944824219 372.0167236328125 316.9383544921875 371.7333984375 C 321.298583984375 371.4500732421875 325.30511474609375 368.13006591796875 326.3597412109375 363.8868408203125 L 325.83538818359375 363.95684814453125" stroke-width="0.6000000238418579" fill="rgb(140, 28, 33)" opacity="1.0"/>
    <path d="M 351.20928955078125 394.5596923828125 C 347.5472717285156 394.7665710449219 343.739013671875 395.0221862792969 340.4970397949219 396.7433166503906 C 337.255126953125 398.4644470214844 334.72198486328125 402.11956787109375 335.4798583984375 405.7102966308594 C 336.4252624511719 410.1405944824219 342.10064697265625 412.2984619140625 346.377197265625 410.7795715332031 C 350.65374755859375 409.2606506347656 353.5316162109375 405.1856384277344 355.2025146484375 400.9722595214844 C 355.8504333496094 399.71978759765625 356.00531005859375 398.27001953125 355.63653564453125 396.9089660644531 C 355.1340026855469 395.61590576171875 353.2784118652344 394.8179016113281 352.2853088378906 395.79638671875 L 351.20928955078125 394.5596923828125" stroke-width="0.6000000238418579" fill="rgb(159, 159, 159)" opacity="1.0"/>
    <path d="M 186.55426025390625 409.8754577636719 C 182.77053833007812 410.45562744140625 179.10321044921875 412.3448486328125 176.854736328125 415.4403076171875 C 174.60626220703125 418.53582763671875 173.97747802734375 422.8846435546875 175.72979736328125 426.3038330078125 C 176.97174072265625 428.7197265625 179.27545166015625 430.488525390625 181.8211669921875 431.44305419921875 C 184.36691284179688 432.39752197265625 187.14227294921875 432.598876953125 189.85638427734375 432.4320068359375 C 191.0374755859375 432.3587646484375 192.27105712890625 432.1964111328125 193.2269287109375 431.50396728515625 C 194.3231201171875 430.7105712890625 194.853271484375 429.3690185546875 195.2691650390625 428.07696533203125 C 196.44326782226562 424.4293212890625 197.10305786132812 420.4627685546875 196.04367065429688 416.7796630859375 C 194.9842529296875 413.0965576171875 191.845458984375 409.8188781738281 188.03204345703125 409.5491943359375 L 186.55426025390625 409.8754577636719" stroke-width="0.6000000238418579" fill="rgb(159, 159, 159)" opacity="1.0"/>
    <path d="M 358.5293884277344 373.4772644042969 C 354.77362060546875 374.6003723144531 350.6475830078125 376.0114440917969 348.7554016113281 379.4358825683594 C 346.9105529785156 382.7635498046875 347.7833557128906 386.8816223144531 348.7707214355469 390.55792236328125 C 349.17401123046875 392.0507507324219 349.6197204589844 393.6060791015625 350.68060302734375 394.72998046875 C 352.4737243652344 396.63189697265625 355.4505615234375 396.7489013671875 358.0270080566406 396.33111572265625 C 360.4185485839844 395.94427490234375 362.7421569824219 395.21600341796875 364.9266662597656 394.16864013671875 C 368.474365234375 392.4693298339844 371.8901062011719 389.4151306152344 372.0021057128906 385.4844665527344 C 372.065673828125 383.3625183105469 371.12347412109375 381.2983703613281 369.7921142578125 379.6406555175781 C 368.4607238769531 377.98297119140625 366.7491149902344 376.6761474609375 365.04095458984375 375.4101257324219 C 363.33282470703125 374.14410400390625 361.6272888183594 372.93670654296875 359.5994873046875 372.4943542480469 L 358.5293884277344 373.4772644042969" stroke-width="0.6000000238418579" fill="rgb(218, 166, 20)" opacity="1.0"/>
    <path d="M 373.9050598144531 383.5196838378906 C 369.6669616699219 388.4122619628906 370.1975402832031 395.81414794921875 375.0901184082031 400.0522155761719 C 375.5090637207031 400.4151306152344 375.9532165527344 400.74786376953125 376.4192810058594 401.04791259765625 C 378.1903381347656 402.187744140625 380.373046875 402.8428039550781 382.42645263671875 402.379150390625 C 384.16180419921875 401.9875183105469 385.63092041015625 400.8543395996094 386.9129638671875 399.6226806640625 C 390.340087890625 396.3211364746094 392.8207092285156 392.16217041015625 394.0971374511719 387.57781982421875 C 394.4324951171875 386.365478515625 394.68231201171875 385.0896301269531 394.4453125 383.8515319824219 C 394.04864501953125 381.7727966308594 392.3231201171875 380.1570129394531 390.40460205078125 379.26025390625 C 387.5572204589844 377.92694091796875 384.1923522949219 377.902099609375 381.2023010253906 378.8764343261719 C 378.2122497558594 379.85076904296875 375.5815734863281 381.76214599609375 373.4689636230469 384.0912780761719 L 373.9050598144531 383.5196838378906" stroke-width="0.6000000238418579" fill="rgb(143, 165, 67)" opacity="1.0"/>
    <path d="M 367.1082458496094 360.6889953613281 C 370.3660888671875 367.4422302246094 381.7159729003906 367.4690856933594 385.4679260253906 361.0331726074219 C 389.2198791503906 354.5972595214844 384.1281433105469 345.0778503417969 376.6960754394531 344.0690002441406 C 369.26397705078125 343.0601501464844 362.0142822265625 350.1033935546875 362.26190185546875 357.60650634765625 L 367.1082458496094 360.6889953613281" stroke-width="0.6000000238418579" fill="rgb(233, 92, 21)" opacity="1.0"/>
    <path d="M 398.7986145019531 363.5018615722656 C 398.9045715332031 367.21002197265625 399.41571044921875 371.6285400390625 402.7345275878906 373.3141174316406 C 404.0813903808594 373.93353271484375 405.5872802734375 374.1197204589844 407.04443359375 373.84698486328125 C 410.6679382324219 373.2692565917969 413.78662109375 370.97100830078125 415.41162109375 367.6811218261719 C 416.7828369140625 364.8868713378906 416.8853759765625 361.68804931640625 416.912841796875 358.5946350097656 C 416.9254150390625 356.8569030761719 416.8834228515625 355.01025390625 415.93878173828125 353.5630187988281 C 414.66387939453125 351.644287109375 412.15869140625 351.0010681152344 409.8673095703125 350.7705993652344 C 406.5142517089844 350.42913818359375 403.1280517578125 350.63262939453125 399.84002685546875 351.37322998046875 C 398.7044372558594 351.63128662109375 397.5333251953125 351.9775085449219 396.6834716796875 352.7730407714844 C 395.93109130859375 353.55316162109375 395.42193603515625 354.5353698730469 395.2181396484375 355.599853515625 C 394.47430419921875 358.8048095703125 395.173828125 362.17474365234375 397.1318359375 364.81884765625 L 398.7986145019531 363.5018615722656" stroke-width="0.6000000238418579" fill="rgb(70, 150, 179)" opacity="1.0"/>
    <path d="M 387.83282470703125 415.2867431640625 C 386.0556335449219 418.9337158203125 384.2388916015625 423.0506591796875 385.492919921875 426.9061279296875 C 386.842529296875 431.0469970703125 391.43072509765625 433.383544921875 395.779052734375 433.62713623046875 C 397.45556640625 433.7218017578125 399.2113342285156 433.5506591796875 400.64910888671875 432.68359375 C 401.831298828125 431.9713134765625 402.70343017578125 430.8511962890625 403.4844970703125 429.713623046875 C 405.95184326171875 426.12921142578125 407.8623352050781 421.7833251953125 407.034423828125 417.51220703125 C 406.1970520019531 413.208251953125 402.360595703125 409.6496887207031 397.9991149902344 409.1625671386719 C 393.63763427734375 408.6754455566406 389.091552734375 411.2533874511719 387.302001953125 415.26373291015625 L 387.83282470703125 415.2867431640625" stroke-width="0.6000000238418579" fill="rgb(140, 28, 33)" opacity="1.0"/>
    <path d="M 409.0010986328125 391.4122009277344 C 408.1240234375 394.9498291015625 407.2503356933594 398.640625 407.93414306640625 402.22332763671875 C 408.6179504394531 405.8059997558594 411.3458251953125 409.2826232910156 414.977294921875 409.6156311035156 C 419.46087646484375 410.0166931152344 423.1734619140625 405.2606506347656 422.9849853515625 400.75494384765625 C 422.79644775390625 396.24920654296875 419.77093505859375 392.3221740722656 416.26025390625 389.50054931640625 C 415.260986328125 388.5182189941406 413.92987060546875 387.9461669921875 412.529541015625 387.8973083496094 C 411.15447998046875 387.99542236328125 409.85284423828125 389.5233154296875 410.49072265625 390.7530822753906 L 409.0010986328125 391.4122009277344" stroke-width="0.6000000238418579" fill="rgb(159, 159, 159)" opacity="1.0"/>
    <path d="M 435.1234130859375 368.4156799316406 C 435.877685546875 372.255615234375 437.9639892578125 375.9207458496094 441.22186279296875 378.0850830078125 C 444.479736328125 380.2494201660156 448.948486328125 380.70587158203125 452.36602783203125 378.7699279785156 C 454.780517578125 377.3981628417969 456.48883056640625 374.96954345703125 457.35498046875 372.32855224609375 C 458.22113037109375 369.6875305175781 458.30816650390625 366.84417724609375 458.0218505859375 364.07904052734375 C 457.896484375 362.8758239746094 457.677978515625 361.6227722167969 456.92987060546875 360.676025390625 C 456.07269287109375 359.5902404785156 454.6796875 359.1060485839844 453.34222412109375 358.7364807128906 C 449.5662841796875 357.693115234375 445.4866943359375 357.18865966796875 441.76995849609375 358.4281005859375 C 438.05322265625 359.66754150390625 434.83953857421875 363.0135803222656 434.72705078125 366.920166015625 L 435.1234130859375 368.4156799316406" stroke-width="0.6000000238418579" fill="rgb(159, 159, 159)" opacity="1.0"/>
    <path d="M 423.1138916015625 409.2338562011719 C 419.5653076171875 410.7658386230469 415.6873779296875 412.6224365234375 414.228515625 416.1934814453125 C 412.80487060546875 419.6644287109375 414.1334228515625 423.5965576171875 415.5233154296875 427.0828857421875 C 416.090087890625 428.498291015625 416.70550537109375 429.9700927734375 417.8736572265625 430.94854736328125 C 419.84844970703125 432.6046142578125 422.7769775390625 432.376708984375 425.2518310546875 431.67108154296875 C 427.5491943359375 431.01708984375 429.74078369140625 430.0364990234375 431.7593994140625 428.759521484375 C 435.0379638671875 426.687255859375 438.03125 423.3033447265625 437.6885986328125 419.44140625 C 437.5067138671875 417.356201171875 436.3465576171875 415.443359375 434.85205078125 413.9732666015625 C 433.3575439453125 412.503173828125 431.53106689453125 411.4204406738281 429.71270751953125 410.3772888183594 C 427.89434814453125 409.3341064453125 426.0853271484375 408.3480224609375 424.0487060546875 408.148193359375 L 423.1138916015625 409.2338562011719" stroke-width="0.6000000238418579" fill="rgb(218, 166, 20)" opacity="1.0"/>
    <path d="M 142.25579833984375 226.33428955078125 C 138.5086669921875 231.53546142578125 139.68740844726562 238.78948974609375 144.8885955810547 242.53665161132812 C 145.33396911621094 242.85751342773438 145.8015594482422 243.1463623046875 146.28781127929688 243.40106201171875 C 148.13568115234375 244.3685302734375 150.34664916992188 244.8214111328125 152.33103942871094 244.1822509765625 C 154.008056640625 243.64227294921875 155.35682678222656 242.39447021484375 156.5123291015625 241.06610107421875 C 159.60043334960938 237.50604248046875 161.67901611328125 233.18411254882812 162.5321044921875 228.5491943359375 C 162.75555419921875 227.32366943359375 162.88897705078125 226.0430908203125 162.54559326171875 224.84283447265625 C 161.97027587890625 222.82754516601562 160.12518310546875 221.38653564453125 158.15338134765625 220.67190551757812 C 155.22674560546875 219.60888671875 151.90553283691406 219.88232421875 149.04248046875 221.108154296875 C 146.179443359375 222.33395385742188 143.7538299560547 224.45220947265625 141.8762664794922 226.93670654296875 L 142.25579833984375 226.33428955078125" stroke-width="0.6000000238418579" fill="rgb(143, 165, 67)" opacity="1.0"/>
    <path d="M 169.99685668945312 262.0433654785156 C 172.32147216796875 269.1051940917969 183.47479248046875 270.6069030761719 187.99951171875 264.7681579589844 C 192.52423095703125 258.9294128417969 188.7564697265625 248.91009521484375 181.58193969726562 246.95233154296875 C 174.40740966796875 244.99456787109375 166.365478515625 250.97567749023438 165.63363647460938 258.38336181640625 L 169.99685668945312 262.0433654785156" stroke-width="0.6000000238418579" fill="rgb(233, 92, 21)" opacity="1.0"/>
    <path d="M 152.49485778808594 315.5179138183594 C 150.33419799804688 318.558837890625 148.06863403320312 322.4154052734375 149.7120361328125 325.7784423828125 C 150.41812133789062 327.09130859375 151.5142059326172 328.15277099609375 152.84912109375 328.8163146972656 C 156.10784912109375 330.54693603515625 160.00323486328125 330.59075927734375 163.300048828125 328.933837890625 C 166.09304809570312 327.5211486816406 168.11264038085938 325.0154113769531 170.008056640625 322.5487365722656 C 171.07052612304688 321.161376953125 172.15518188476562 319.6535339355469 172.27334594726562 317.919677734375 C 172.411865234375 315.6073303222656 170.7904052734375 313.5738220214844 169.09051513671875 312.0011291503906 C 166.60565185546875 309.69635009765625 163.76409912109375 307.8089904785156 160.67608642578125 306.4122314453125 C 159.60821533203125 305.9316711425781 158.45843505859375 305.5003662109375 157.29437255859375 305.6242980957031 C 156.21795654296875 305.794921875 155.21441650390625 306.2750244140625 154.40614318847656 307.0061340332031 C 151.86807250976562 309.1284484863281 150.3887481689453 312.2573547363281 150.35926818847656 315.5657043457031 L 152.49485778808594 315.5179138183594" stroke-width="0.6000000238418579" fill="rgb(70, 150, 179)" opacity="1.0"/>
    <path d="M 124.373291015625 303.56756591796875 C 123.26472473144531 299.70843505859375 121.87393188476562 295.4774169921875 118.39801025390625 293.4726257324219 C 114.66281127929688 291.3212585449219 109.74093627929688 292.64190673828125 106.3817138671875 295.34283447265625 C 105.08609008789062 296.3836669921875 103.90817260742188 297.67242431640625 103.42509460449219 299.26239013671875 C 103.02748107910156 300.56927490234375 103.12803649902344 301.970703125 103.30709838867188 303.32464599609375 C 103.86665344238281 307.5949401855469 105.34014892578125 312.056396484375 108.7779541015625 314.6490783691406 C 112.24456787109375 317.2597351074219 117.42294311523438 317.3356628417969 120.953125 314.8050842285156 C 124.48329162597656 312.2745056152344 126.11909484863281 307.3675231933594 124.7789306640625 303.23291015625 L 124.373291015625 303.56756591796875" stroke-width="0.6000000238418579" fill="rgb(140, 28, 33)" opacity="1.0"/>
    <path d="M 139.2895050048828 276.4385986328125 C 135.95458984375 277.8898010253906 132.5004119873047 279.4366455078125 130.07669067382812 282.1518859863281 C 127.65304565429688 284.8670654296875 126.55340576171875 289.137451171875 128.49261474609375 292.2166442871094 C 130.89483642578125 296.0122375488281 136.91525268554688 296.06842041015625 140.37071228027344 293.1856384277344 C 143.82618713378906 290.3028564453125 145.10211181640625 285.5234680175781 145.2078857421875 281.0302429199219 C 145.37997436523438 279.6426086425781 145.02566528320312 278.2409362792969 144.21482849121094 277.101806640625 C 143.30294799804688 276.0718688964844 141.30274963378906 275.967529296875 140.7154083251953 277.2189636230469 L 139.2895050048828 276.4385986328125" stroke-width="0.6000000238418579" fill="rgb(159, 159, 159)" opacity="1.0"/>
    <path d="M 160.96820068359375 292.051025390625 C 159.40728759765625 295.572265625 159.018798828125 299.7049865722656 160.42230224609375 303.2897033691406 C 161.8258056640625 306.87445068359375 165.17007446289062 309.7664794921875 169.01828002929688 310.1363525390625 C 171.73934936523438 310.3944091796875 174.48809814453125 309.4017028808594 176.677978515625 307.76214599609375 C 178.86785888671875 306.12255859375 180.5440673828125 303.87982177734375 181.87509155273438 301.4892578125 C 182.45370483398438 300.4485778808594 182.98529052734375 299.3150939941406 182.91705322265625 298.1294250488281 C 182.83941650390625 296.7700500488281 181.99005126953125 295.5929870605469 181.1207275390625 294.5396423339844 C 178.66644287109375 291.56585693359375 175.6629638671875 288.85491943359375 171.96701049804688 287.7546691894531 C 168.27105712890625 286.6543884277344 163.7906494140625 287.5362854003906 161.493408203125 290.6216735839844 L 160.96820068359375 292.051025390625" stroke-width="0.6000000238418579" fill="rgb(159, 159, 159)" opacity="1.0"/>
    <path d="M 123.80453491210938 344.50238037109375 C 123.23190307617188 340.67242431640625 122.42947387695312 336.4400329589844 119.34552001953125 334.1103820800781 C 116.34957885742188 331.8405456542969 112.2003173828125 332.1177062988281 108.46707153320312 332.5687255859375 C 106.95075988769531 332.7541809082031 105.367431640625 332.9723815917969 104.11988830566406 333.8525085449219 C 102.00901794433594 335.33984375 101.47796630859375 338.2345275878906 101.52592468261719 340.8125305175781 C 101.56951904296875 343.2053527832031 101.95648193359375 345.5795593261719 102.67495727539062 347.8623962402344 C 103.8402099609375 351.5695495605469 106.34884643554688 355.3372802734375 110.177001953125 355.9969177246094 C 112.2431640625 356.3560791015625 114.39358520507812 355.7236022949219 116.20100402832031 354.6536560058594 C 118.0084228515625 353.58367919921875 119.52590942382812 352.0927734375 121.00302124023438 350.5995788574219 C 122.48013305664062 349.10638427734375 123.89956665039062 347.6075134277344 124.615966796875 345.6864013671875 L 123.80453491210938 344.50238037109375" stroke-width="0.6000000238418579" fill="rgb(218, 166, 20)" opacity="1.0"/>
    <path d="M 165.5797119140625 349.6807556152344 C 160.76983642578125 353.6843566894531 160.11624145507812 360.8291015625 164.119873046875 365.63897705078125 C 164.46267700195312 366.05084228515625 164.83428955078125 366.4378662109375 165.23190307617188 366.7971496582031 C 166.74298095703125 368.1620788574219 168.72268676757812 369.1290283203125 170.75436401367188 369.0084533691406 C 172.4713134765625 368.9067077636719 174.05044555664062 368.0558166503906 175.46652221679688 367.0816650390625 C 179.25341796875 364.4688720703125 182.27166748046875 360.8897705078125 184.20770263671875 356.7161560058594 C 184.71759033203125 355.6120910644531 185.15582275390625 354.43402099609375 185.12371826171875 353.2157287597656 C 185.07101440429688 351.17041015625 183.677978515625 349.3585205078125 181.9881591796875 348.202392578125 C 179.4805908203125 346.4842224121094 176.2742919921875 345.93328857421875 173.26904296875 346.3943176269531 C 170.2637939453125 346.8553771972656 167.45452880859375 348.2666931152344 165.0740966796875 350.1577453613281 L 165.5797119140625 349.6807556152344" stroke-width="0.6000000238418579" fill="rgb(143, 165, 67)" opacity="1.0"/>
    <path d="M 133.36766052246094 379.3367004394531 C 130.44381713867188 372.6526184082031 119.40884399414062 372.21661376953125 115.52824401855469 378.3390197753906 C 111.64767456054688 384.46142578125 116.2547607421875 393.9013671875 123.44483947753906 395.1507263183594 C 130.63491821289062 396.4000549316406 137.93844604492188 389.8134765625 137.9686279296875 382.5089416503906 L 133.36766052246094 379.3367004394531" stroke-width="0.6000000238418579" fill="rgb(233, 92, 21)" opacity="1.0"/>
    <path d="M 185.3212890625 364.2159423828125 C 184.17361450195312 367.7060546875 183.1646728515625 371.994140625 185.68991088867188 374.6799011230469 C 186.7364501953125 375.7096252441406 188.07672119140625 376.38922119140625 189.52587890625 376.62493896484375 C 193.095703125 377.30462646484375 196.7735595703125 376.21185302734375 199.39309692382812 373.69317626953125 C 201.60971069335938 371.5509338378906 202.78045654296875 368.6054382324219 203.84573364257812 365.73284912109375 C 204.4415283203125 364.11822509765625 205.02310180664062 362.3837585449219 204.6295166015625 360.718017578125 C 204.08673095703125 358.5020446777344 201.96914672851562 357.0608215332031 199.91195678710938 356.0759582519531 C 196.90304565429688 354.6308288574219 193.68008422851562 353.6822509765625 190.3680419921875 353.2669982910156 C 189.223388671875 353.125732421875 188.01605224609375 353.0546569824219 186.9569091796875 353.5101013183594 C 185.99380493164062 353.9839782714844 185.18936157226562 354.72784423828125 184.6417236328125 355.6510314941406 C 182.87152099609375 358.38671875 182.3905029296875 361.7612609863281 183.32586669921875 364.8825988769531 L 185.3212890625 364.2159423828125" stroke-width="0.6000000238418579" fill="rgb(70, 150, 179)" opacity="1.0"/>
  </g>
</svg>
