<?xml version="1.0" ?>
<svg xmlns="http://www.w3.org/2000/svg" version="1.1" width="600" height="600">
  <defs/>
  <g>
    <path d="M 350.4117126464844 350.0758972167969 C 353.77191162109375 353.2994384765625 360.3826599121094 350.8539733886719 361.1705017089844 346.2951354980469 C 361.9583435058594 341.73626708984375 356.93115234375 337.3006591796875 352.38739013671875 338.32513427734375 C 347.8436279296875 339.3495788574219 345.1519775390625 345.02032470703125 346.9230651855469 349.33294677734375 L 350.4117126464844 350.0758972167969" stroke-width="0.6000000238418579" fill="rgb(233, 92, 21)" opacity="1.0"/>
    <path d="M 103.9501953125 204.5013427734375 C 105.08084106445312 202.97589111328125 106.27320861816406 201.03643798828125 105.47125244140625 199.30819702148438 C 105.12533569335938 198.63284301757812 104.57838439941406 198.08148193359375 103.90582275390625 197.73013305664062 C 102.26513671875 196.81610107421875 100.283203125 196.75399780273438 98.58851623535156 197.56350708007812 C 97.1527099609375 198.25387573242188 96.09931945800781 199.5084228515625 95.10952758789062 200.74432373046875 C 94.55464172363281 201.43951416015625 93.98724365234375 202.19577026367188 93.90939331054688 203.07693481445312 C 93.81524658203125 204.25228881835938 94.61965942382812 205.3037109375 95.46865844726562 206.1214599609375 C 96.70965576171875 207.31976318359375 98.13644409179688 208.30926513671875 99.69366455078125 209.0516357421875 C 100.23220825195312 209.30712890625 100.81292724609375 209.53836059570312 101.40655517578125 209.4871826171875 C 101.95611572265625 209.411376953125 102.47171020507812 209.17730712890625 102.89053344726562 208.8134765625 C 104.203857421875 207.7593994140625 104.98866271972656 206.18218994140625 105.0374755859375 204.49884033203125 L 103.9501953125 204.5013427734375" stroke-width="0.6000000238418579" fill="rgb(70, 150, 179)" opacity="1.0"/>
    <path d="M 455.3768310546875 426.8917236328125 C 455.95135498046875 428.47637939453125 456.65472412109375 430.208740234375 458.1678466796875 430.94915771484375 C 459.79376220703125 431.7435302734375 461.8175048828125 431.0498046875 463.1473388671875 429.82257080078125 C 463.6602783203125 429.349609375 464.1168212890625 428.7762451171875 464.273681640625 428.096435546875 C 464.40289306640625 427.5377197265625 464.32073974609375 426.95361328125 464.20703125 426.39166259765625 C 463.8507080078125 424.61907958984375 463.10614013671875 422.79254150390625 461.5921630859375 421.8048095703125 C 460.065673828125 420.8104248046875 457.89453125 420.926513671875 456.48828125 422.0872802734375 C 455.08203125 423.248046875 454.53704833984375 425.3499755859375 455.2164306640625 427.04345703125 L 455.3768310546875 426.8917236328125" stroke-width="0.6000000238418579" fill="rgb(140, 28, 33)" opacity="1.0"/>
    <path d="M 88.38352966308594 202.82861328125 C 90.54965209960938 202.39459228515625 92.798828125 201.9190673828125 94.58601379394531 200.61773681640625 C 96.37315368652344 199.31640625 97.57357788085938 196.92193603515625 96.8170166015625 194.8450927734375 C 95.87741088867188 192.28350830078125 92.31011962890625 191.47821044921875 89.88887023925781 192.74676513671875 C 87.46762084960938 194.01528930664062 86.09725952148438 196.68939208984375 85.45834350585938 199.34356689453125 C 85.17825317382812 200.1453857421875 85.20889282226562 201.02304077148438 85.54425048828125 201.8033447265625 C 85.95361328125 202.53176879882812 87.1278076171875 202.85018920898438 87.63699340820312 202.1824951171875 L 88.38352966308594 202.82861328125" stroke-width="0.6000000238418579" fill="rgb(159, 159, 159)" opacity="1.0"/>
    <path d="M 376.75250244140625 297.6865234375 C 377.9800720214844 296.7553405761719 378.91534423828125 295.38330078125 379.1171569824219 293.8565979003906 C 379.3189392089844 292.32989501953125 378.7071533203125 290.67041015625 377.43115234375 289.79669189453125 C 376.5281982421875 289.1800842285156 375.3736877441406 288.9961242675781 374.2897644042969 289.1467590332031 C 373.2058410644531 289.29736328125 372.1851501464844 289.758544921875 371.2567443847656 290.3382568359375 C 370.8528747558594 290.5907897949219 370.447509765625 290.8848876953125 370.24212646484375 291.31329345703125 C 370.00640869140625 291.8043212890625 370.076171875 292.3807678222656 370.1768798828125 292.917724609375 C 370.4612121582031 294.4337158203125 370.9886779785156 295.9638671875 372.07012939453125 297.06390380859375 C 373.1515808105469 298.1639709472656 374.8910217285156 298.72161865234375 376.29217529296875 298.0854797363281 L 376.75250244140625 297.6865234375" stroke-width="0.6000000238418579" fill="rgb(159, 159, 159)" opacity="1.0"/>
    <path d="M 95.72476196289062 433.548583984375 C 95.99794006347656 431.8291015625 96.22708129882812 429.9058837890625 95.22042846679688 428.489501953125 C 94.24337768554688 427.110595703125 92.42697143554688 426.66754150390625 90.76536560058594 426.3553466796875 C 90.09017944335938 426.2294921875 89.38180541992188 426.108642578125 88.727783203125 426.3170166015625 C 87.62136840820312 426.6688232421875 87.00169372558594 427.837890625 86.67312622070312 428.9495849609375 C 86.36776733398438 429.98138427734375 86.21214294433594 431.0516357421875 86.21101379394531 432.127685546875 C 86.20855712890625 433.87481689453125 86.77381896972656 435.829833984375 88.32569885253906 436.631103515625 C 89.16287231445312 437.06488037109375 90.17045593261719 437.0849609375 91.09024047851562 436.8709716796875 C 92.010009765625 436.65704345703125 92.86250305175781 436.223388671875 93.697998046875 435.783203125 C 94.53347778320312 435.34307861328125 95.34500122070312 434.8927001953125 95.91229248046875 434.1661376953125 L 95.72476196289062 433.548583984375" stroke-width="0.6000000238418579" fill="rgb(218, 166, 20)" opacity="1.0"/>
    <path d="M 101.33918762207031 139.216064453125 C 104.32037353515625 139.8121795654297 107.22036743164062 137.87869262695312 107.81648254394531 134.8975067138672 C 107.86752319335938 134.64222717285156 107.900390625 134.38365173339844 107.91485595703125 134.12371826171875 C 107.96958923339844 133.13601684570312 107.73086547851562 132.09263610839844 107.06524658203125 131.36151123046875 C 106.50277709960938 130.74362182617188 105.69923400878906 130.40643310546875 104.89884948730469 130.1685028076172 C 102.75555419921875 129.53456115722656 100.48161315917969 129.48606872558594 98.313232421875 130.02806091308594 C 97.74032592773438 130.1722869873047 97.16128540039062 130.36618041992188 96.71060180664062 130.75013732910156 C 95.95361328125 131.39427185058594 95.69392395019531 132.47377014160156 95.77265930175781 133.46531677246094 C 95.8885498046875 134.93748474121094 96.65882873535156 136.31752014160156 97.75027465820312 137.31271362304688 C 98.84173583984375 138.3079071044922 100.23252868652344 138.93899536132812 101.67379760742188 139.2615966796875 L 101.33918762207031 139.216064453125" stroke-width="0.6000000238418579" fill="rgb(143, 165, 67)" opacity="1.0"/>
    <path d="M 453.10009765625 344.1372985839844 C 456.5552978515625 346.5390625 462.10968017578125 343.42120361328125 462.16796875 339.24078369140625 C 462.2261962890625 335.06036376953125 457.1116943359375 331.8125915527344 453.201171875 333.3697509765625 C 449.29058837890625 334.92694091796875 447.6904296875 340.36907958984375 449.8812255859375 343.96771240234375 L 453.10009765625 344.1372985839844" stroke-width="0.6000000238418579" fill="rgb(233, 92, 21)" opacity="1.0"/>
    <path d="M 103.52587890625 215.35684204101562 C 105.01763916015625 213.95123291015625 106.65380859375 212.11746215820312 106.13070678710938 210.12844848632812 C 105.89173889160156 209.34503173828125 105.41554260253906 208.655029296875 104.76780700683594 208.1536865234375 C 103.19851684570312 206.87014770507812 101.10446166992188 206.42684936523438 99.14967346191406 206.96435546875 C 97.49264526367188 207.424560546875 96.13453674316406 208.55703735351562 94.84754943847656 209.68182373046875 C 94.12564086914062 210.31484985351562 93.3787841796875 211.0103759765625 93.1282958984375 211.93182373046875 C 92.80451965332031 213.16278076171875 93.45906066894531 214.43310546875 94.20547485351562 215.46359252929688 C 95.29598999023438 216.97308349609375 96.62362670898438 218.296142578125 98.13690185546875 219.38140869140625 C 98.66049194335938 219.75537109375 99.23348999023438 220.11163330078125 99.8740234375 220.17025756835938 C 100.47235107421875 220.1943359375 101.06478881835938 220.04376220703125 101.57904052734375 219.7369384765625 C 103.17518615722656 218.86691284179688 104.309326171875 217.34051513671875 104.68165588378906 215.56118774414062 L 103.52587890625 215.35684204101562" stroke-width="0.6000000238418579" fill="rgb(70, 150, 179)" opacity="1.0"/>
    <path d="M 102.40892028808594 82.1661376953125 C 102.65007019042969 84.3382568359375 103.00857543945312 86.73576354980469 104.68980407714844 88.12991333007812 C 106.49673461914062 89.62643432617188 109.25848388671875 89.36888122558594 111.30828857421875 88.22755432128906 C 112.09880065917969 87.787841796875 112.848876953125 87.20431518554688 113.25375366210938 86.39552307128906 C 113.58685302734375 85.73077392578125 113.66131591796875 84.96963500976562 113.68930053710938 84.226806640625 C 113.78038024902344 81.8843994140625 113.39862060546875 79.35568237304688 111.79171752929688 77.64959716796875 C 110.17098999023438 75.93124389648438 107.39959716796875 75.41600036621094 105.27365112304688 76.45025634765625 C 103.14773559570312 77.48451232910156 101.8204345703125 79.96737670898438 102.16061401367188 82.30850219726562 L 102.40892028808594 82.1661376953125" stroke-width="0.6000000238418579" fill="rgb(140, 28, 33)" opacity="1.0"/>
    <path d="M 90.90338134765625 420.1165771484375 C 93.15023803710938 419.672607421875 95.48333740234375 419.18585205078125 97.33975219726562 417.8416748046875 C 99.19610595703125 416.4974365234375 100.44723510742188 414.018310546875 99.66862487792969 411.8631286621094 C 98.70158386230469 409.2048645019531 95.0054931640625 408.36016845703125 92.4918212890625 409.6686096191406 C 89.9781494140625 410.97705078125 88.55007934570312 413.74560546875 87.88037109375 416.4954833984375 C 87.5877685546875 417.32598876953125 87.61712646484375 418.2359619140625 87.962646484375 419.04583740234375 C 88.38504028320312 419.8021240234375 89.60147094726562 420.135498046875 90.13119506835938 419.4447021484375 L 90.90338134765625 420.1165771484375" stroke-width="0.6000000238418579" fill="rgb(159, 159, 159)" opacity="1.0"/>
    <path d="M 468.47747802734375 59.28077697753906 C 469.70489501953125 57.60382080078125 470.384521484375 55.46977233886719 470.05645751953125 53.41876220703125 C 469.7283935546875 51.36773681640625 468.29766845703125 49.45892333984375 466.3115234375 48.821807861328125 C 464.90667724609375 48.37315368652344 463.34356689453125 48.5806884765625 462.000732421875 49.19342041015625 C 460.65789794921875 49.80616760253906 459.5166015625 50.7958984375 458.540283203125 51.903228759765625 C 458.11572265625 52.3853759765625 457.7052001953125 52.92182922363281 457.60498046875 53.554718017578125 C 457.48974609375 54.2802734375 457.80224609375 54.998382568359375 458.1395263671875 55.65354919433594 C 459.0916748046875 57.50321960449219 460.3636474609375 59.27742004394531 462.18560791015625 60.282073974609375 C 464.007568359375 61.286712646484375 466.4708251953125 61.3365478515625 468.036376953125 59.973968505859375 L 468.47747802734375 59.28077697753906" stroke-width="0.6000000238418579" fill="rgb(159, 159, 159)" opacity="1.0"/>
    <path d="M 92.9542236328125 106.80166625976562 C 94.69488525390625 107.43363952636719 96.6571044921875 108.06069946289062 98.33926391601562 107.29501342773438 C 99.97622680664062 106.55268859863281 100.80517578125 104.7451171875 101.46624755859375 103.07281494140625 C 101.73379516601562 102.39306640625 102.00283813476562 101.67770385742188 101.91709899902344 100.95266723632812 C 101.77279663085938 99.72628784179688 100.67683410644531 98.84342956542969 99.58206176757812 98.27615356445312 C 98.56613159179688 97.74923706054688 97.47982788085938 97.37091064453125 96.35635375976562 97.15278625488281 C 94.53228759765625 96.79794311523438 92.37663269042969 96.99407958984375 91.22698974609375 98.45318603515625 C 90.60517883300781 99.24000549316406 90.38107299804688 100.28819274902344 90.41905212402344 101.2918701171875 C 90.45703125 102.29554748535156 90.738037109375 103.27325439453125 91.02923583984375 104.23451232910156 C 91.32040405273438 105.19577026367188 91.62712097167969 106.13406372070312 92.27154541015625 106.87301635742188 L 92.9542236328125 106.80166625976562" stroke-width="0.6000000238418579" fill="rgb(218, 166, 20)" opacity="1.0"/>
    <path d="M 120.7449951171875 127.19407653808594 C 123.81167602539062 126.02178955078125 125.34738159179688 122.58544921875 124.17510986328125 119.51878356933594 C 124.07472229003906 119.25617980957031 123.95584106445312 119.00103759765625 123.8193359375 118.7552490234375 C 123.300537109375 117.82145690917969 122.48159790039062 117.00576782226562 121.45248413085938 116.72122192382812 C 120.58282470703125 116.48068237304688 119.65457153320312 116.63540649414062 118.78640747070312 116.87898254394531 C 116.46337890625 117.5341796875 114.35816955566406 118.7994384765625 112.689453125 120.54328918457031 C 112.24913024902344 121.00498962402344 111.83184814453125 121.51556396484375 111.64126586914062 122.1258544921875 C 111.32069396972656 123.15023803710938 111.70512390136719 124.28594970703125 112.34808349609375 125.14639282226562 C 113.30174255371094 126.42449951171875 114.8001708984375 127.2415771484375 116.37034606933594 127.52215576171875 C 117.94052124023438 127.802734375 119.57449340820312 127.57827758789062 121.07688903808594 127.04296875 L 120.7449951171875 127.19407653808594" stroke-width="0.6000000238418579" fill="rgb(143, 165, 67)" opacity="1.0"/>
    <path d="M 391.73931884765625 303.935302734375 C 394.2545166015625 307.3033447265625 400.5035400390625 306.1041259765625 401.8799743652344 302.16094970703125 C 403.2563781738281 298.2178039550781 399.4360656738281 293.52362060546875 395.23809814453125 293.76336669921875 C 391.04010009765625 294.0030822753906 387.8037414550781 298.65460205078125 388.7425537109375 302.7572937011719 L 391.73931884765625 303.935302734375" stroke-width="0.6000000238418579" fill="rgb(233, 92, 21)" opacity="1.0"/>
    <path d="M 122.223388671875 113.09814453125 C 123.53727722167969 111.69265747070312 124.96096801757812 109.87753295898438 124.3526611328125 108.04534912109375 C 124.08221435546875 107.32565307617188 123.5950927734375 106.70758056640625 122.95848083496094 106.27645874023438 C 121.41207885742188 105.16737365722656 119.42401123046875 104.87661743164062 117.624755859375 105.49639892578125 C 116.09982299804688 106.02604675292969 114.89492797851562 107.16769409179688 113.75616455078125 108.29791259765625 C 113.11752319335938 108.933837890625 112.45924377441406 109.62982177734375 112.27938842773438 110.50790405273438 C 112.04928588867188 111.6802978515625 112.73797607421875 112.83139038085938 113.49850463867188 113.75236511230469 C 114.60983276367188 115.10159301757812 115.93222045898438 116.26205444335938 117.41436767578125 117.18873596191406 C 117.92709350585938 117.5079345703125 118.48507690429688 117.80760192871094 119.08859252929688 117.82444763183594 C 119.65054321289062 117.8114013671875 120.19656372070312 117.6351318359375 120.66006469726562 117.31712341308594 C 122.10357666015625 116.40719604492188 123.07527160644531 114.90982055664062 123.31826782226562 113.2208251953125 L 122.223388671875 113.09814453125" stroke-width="0.6000000238418579" fill="rgb(70, 150, 179)" opacity="1.0"/>
    <path d="M 426.562744140625 70.12667846679688 C 427.36541748046875 71.81036376953125 428.3258056640625 73.64291381835938 430.07171630859375 74.29611206054688 C 431.9476318359375 74.99664306640625 434.10205078125 74.01559448242188 435.43505859375 72.52139282226562 C 435.94927978515625 71.94551086425781 436.390625 71.26499938964844 436.49053955078125 70.49954223632812 C 436.57293701171875 69.87033081054688 436.4197998046875 69.23583984375 436.234375 68.62910461425781 C 435.65185546875 66.71507263183594 434.6358642578125 64.78324890136719 432.862548828125 63.857757568359375 C 431.07470703125 62.926239013671875 428.696044921875 63.28692626953125 427.27166748046875 64.71612548828125 C 425.8472900390625 66.14532470703125 425.4725341796875 68.51876831054688 426.40234375 70.31100463867188 L 426.562744140625 70.12667846679688" stroke-width="0.6000000238418579" fill="rgb(140, 28, 33)" opacity="1.0"/>
    <path d="M 114.16873168945312 416.53271484375 C 115.42166137695312 414.7313232421875 116.70556640625 412.843017578125 117.09027099609375 410.68109130859375 C 117.47494506835938 408.51922607421875 116.68719482421875 405.97802734375 114.7161865234375 405.0109558105469 C 112.280517578125 403.8226318359375 109.17111206054688 405.7004699707031 108.30964660644531 408.27520751953125 C 107.44818115234375 410.84991455078125 108.30662536621094 413.7083740234375 109.67532348632812 416.0491943359375 C 110.02642822265625 416.8162841796875 110.65228271484375 417.423828125 111.42942810058594 417.75201416015625 C 112.223876953125 417.9920654296875 113.28407287597656 417.4122314453125 113.18936157226562 416.58355712890625 L 114.16873168945312 416.53271484375" stroke-width="0.6000000238418579" fill="rgb(159, 159, 159)" opacity="1.0"/>
    <path d="M 454.59442138671875 433.158203125 C 455.3299560546875 431.3367919921875 455.45751953125 429.2237548828125 454.68096923828125 427.4205322265625 C 453.90447998046875 425.6173095703125 452.15057373046875 424.2003173828125 450.182861328125 424.07745361328125 C 448.79150390625 423.9923095703125 447.407470703125 424.545166015625 446.3192138671875 425.418212890625 C 445.23101806640625 426.291259765625 444.4149169921875 427.46295166015625 443.7772216796875 428.7041015625 C 443.5001220703125 429.244384765625 443.24847412109375 429.8311767578125 443.303466796875 430.43438720703125 C 443.3662109375 431.12591552734375 443.8192138671875 431.71142578125 444.2802734375 432.23345947265625 C 445.5819091796875 433.70733642578125 447.1590576171875 435.037841796875 449.0616455078125 435.53564453125 C 450.9642333984375 436.03338623046875 453.2327880859375 435.5074462890625 454.35107421875 433.8956298828125 L 454.59442138671875 433.158203125" stroke-width="0.6000000238418579" fill="rgb(159, 159, 159)" opacity="1.0"/>
    <path d="M 450.9251708984375 285.5305480957031 C 452.0869140625 283.9902648925781 453.31158447265625 282.2278137207031 453.0634765625 280.318359375 C 452.8248291015625 278.4610595703125 451.27813720703125 277.0826721191406 449.8148193359375 275.912841796875 C 449.2197265625 275.4385070800781 448.5894775390625 274.9517517089844 447.8411865234375 274.8153991699219 C 446.57568359375 274.58404541015625 445.36126708984375 275.4055480957031 444.46148681640625 276.3223571777344 C 443.6259765625 277.1729736328125 442.9169921875 278.13916015625 442.356201171875 279.19134521484375 C 441.4449462890625 280.8994445800781 440.98095703125 283.1062927246094 442.08251953125 284.6974792480469 C 442.67596435546875 285.5574035644531 443.6513671875 286.1011657714844 444.66253662109375 286.37030029296875 C 445.6737060546875 286.6394348144531 446.7333984375 286.6585693359375 447.77978515625 286.6625671386719 C 448.826171875 286.66656494140625 449.8544921875 286.6480712890625 450.7874755859375 286.2322692871094 L 450.9251708984375 285.5305480957031" stroke-width="0.6000000238418579" fill="rgb(218, 166, 20)" opacity="1.0"/>
    <path d="M 416.9366455078125 360.9574890136719 C 419.43316650390625 363.5496826171875 423.558349609375 363.62725830078125 426.150634765625 361.1307678222656 C 426.37255859375 360.9169921875 426.5791015625 360.687744140625 426.76861572265625 360.4447326660156 C 427.4886474609375 359.521240234375 427.96087646484375 358.3454895019531 427.80712890625 357.1852111816406 C 427.6773681640625 356.20465087890625 427.12359619140625 355.3343200683594 426.50592041015625 354.5626220703125 C 424.8497314453125 352.4992980957031 422.6712646484375 350.91705322265625 420.19683837890625 349.9802551269531 C 419.5423583984375 349.7337341308594 418.848388671875 349.5314025878906 418.1510009765625 349.60052490234375 C 416.97998046875 349.7158508300781 415.998779296875 350.5902404785156 415.40594482421875 351.60760498046875 C 414.5247802734375 353.11737060546875 414.34222412109375 354.97930908203125 414.731689453125 356.6838684082031 C 415.1212158203125 358.3883972167969 416.047607421875 359.94097900390625 417.2313232421875 361.2276306152344 L 416.9366455078125 360.9574890136719" stroke-width="0.6000000238418579" fill="rgb(143, 165, 67)" opacity="1.0"/>
    <path d="M 451.138427734375 355.27642822265625 C 453.0941162109375 352.0283203125 449.9632568359375 347.21832275390625 446.2012939453125 347.4125061035156 C 442.4393310546875 347.606689453125 439.8209228515625 352.3965759277344 441.45159912109375 355.8206481933594 C 443.082275390625 359.2447204589844 448.069580078125 360.3624572753906 451.17584228515625 358.1804504394531 L 451.138427734375 355.27642822265625" stroke-width="0.6000000238418579" fill="rgb(233, 92, 21)" opacity="1.0"/>
    <path d="M 453.33526611328125 78.62210083007812 C 454.48785400390625 77.34906005859375 455.73260498046875 75.7088623046875 455.16363525390625 74.08236694335938 C 454.9119873046875 73.44390869140625 454.468505859375 72.89926147460938 453.89422607421875 72.5235595703125 C 452.498291015625 71.55574035644531 450.71990966796875 71.32453918457031 449.1229248046875 71.90328979492188 C 447.76953125 72.39767456054688 446.71044921875 73.43370056152344 445.71026611328125 74.45858764648438 C 445.14935302734375 75.03521728515625 444.57177734375 75.66574096679688 444.42376708984375 76.45196533203125 C 444.235107421875 77.50154113769531 444.8660888671875 78.51904296875 445.55792236328125 79.33016967773438 C 446.5689697265625 80.51849365234375 447.765625 81.53533935546875 449.10162353515625 82.34124755859375 C 449.563720703125 82.61883544921875 450.06597900390625 82.87832641601562 450.6048583984375 82.884765625 C 451.106201171875 82.86514282226562 451.5909423828125 82.70004272460938 452.0001220703125 82.40963745117188 C 453.27545166015625 81.57701110839844 454.121337890625 80.22683715820312 454.31414794921875 78.71601867675781 L 453.33526611328125 78.62210083007812" stroke-width="0.6000000238418579" fill="rgb(70, 150, 179)" opacity="1.0"/>
    <path d="M 450.598876953125 389.47979736328125 C 450.869873046875 388.81341552734375 451.142333984375 388.0633850097656 450.87457275390625 387.39617919921875 C 450.58648681640625 386.6796569824219 449.7469482421875 386.32086181640625 448.97467041015625 386.32952880859375 C 448.67694091796875 386.3327331542969 448.36834716796875 386.3839111328125 448.124267578125 386.554443359375 C 447.923583984375 386.6945495605469 447.7825927734375 386.9031066894531 447.657958984375 387.1136779785156 C 447.26416015625 387.7772216796875 446.97784423828125 388.56884765625 447.1751708984375 389.31463623046875 C 447.37457275390625 390.066162109375 448.095703125 390.65008544921875 448.8731689453125 390.6843566894531 C 449.650634765625 390.7185974121094 450.4241943359375 390.2083740234375 450.693115234375 389.4775695800781 L 450.598876953125 389.47979736328125" stroke-width="0.6000000238418579" fill="rgb(140, 28, 33)" opacity="1.0"/>
    <path d="M 126.78280639648438 217.38458251953125 C 123.88589477539062 218.80718994140625 120.88716125488281 220.31939697265625 118.84959411621094 222.8251953125 C 116.81205749511719 225.33102416992188 116.01168823242188 229.16131591796875 117.85639953613281 231.81161499023438 C 120.14079284667969 235.07806396484375 125.47976684570312 234.88201904296875 128.42507934570312 232.185546875 C 131.37039184570312 229.48904418945312 132.30624389648438 225.2003173828125 132.21652221679688 221.21307373046875 C 132.31240844726562 219.97601318359375 131.94110107421875 218.74801635742188 131.1758270263672 217.7713623046875 C 130.32545471191406 216.8956298828125 128.5481719970703 216.88482666015625 128.07862854003906 218.01812744140625 L 126.78280639648438 217.38458251953125" stroke-width="0.6000000238418579" fill="rgb(159, 159, 159)" opacity="1.0"/>
    <path d="M 110.20077514648438 224.60498046875 C 108.05062866210938 222.56768798828125 105.1556396484375 221.22271728515625 102.19668579101562 221.3173828125 C 99.23770141601562 221.41204833984375 96.28131103515625 223.0914306640625 95.02304077148438 225.78500366210938 C 94.13583374023438 227.6905517578125 94.14790344238281 229.93795776367188 94.7725830078125 231.94683837890625 C 95.39724731445312 233.95574951171875 96.59121704101562 235.74758911132812 97.98114013671875 237.32733154296875 C 98.58641052246094 238.014404296875 99.27102661132812 238.69134521484375 100.1478271484375 238.94696044921875 C 101.15293884277344 239.24050903320312 102.22451782226562 238.9278564453125 103.21157836914062 238.56893920898438 C 105.99818420410156 237.55557250976562 108.73564147949219 236.0765380859375 110.48403930664062 233.6812744140625 C 112.23245239257812 231.28594970703125 112.74626159667969 227.8121337890625 111.10147094726562 225.3533935546875 L 110.20077514648438 224.60498046875" stroke-width="0.6000000238418579" fill="rgb(159, 159, 159)" opacity="1.0"/>
    <path d="M 304.61370849609375 102.85758972167969 C 303.7896728515625 105.68301391601562 302.99615478515625 108.85931396484375 304.3828125 111.44879150390625 C 305.7278137207031 113.96896362304688 308.6795349121094 115.09854125976562 311.3995056152344 115.97569274902344 C 312.5049743652344 116.33041381835938 313.6671142578125 116.68385314941406 314.8082580566406 116.47360229492188 C 316.73846435546875 116.11912536621094 318.02642822265625 114.29049682617188 318.81402587890625 112.49610900878906 C 319.545654296875 110.83087158203125 320.0343933105469 109.0692138671875 320.2652893066406 107.26506042480469 C 320.6412353515625 104.33575439453125 320.1093444824219 100.93698120117188 317.6774597167969 99.26309204101562 C 316.3658752441406 98.35751342773438 314.6805114746094 98.10943603515625 313.0925598144531 98.2724609375 C 311.504638671875 98.43551635742188 309.9827575683594 98.98133850097656 308.488037109375 99.54161071777344 C 306.9933166503906 100.10188293457031 305.5365905761719 100.68443298339844 304.4306335449219 101.78215026855469 L 304.61370849609375 102.85758972167969" stroke-width="0.6000000238418579" fill="rgb(218, 166, 20)" opacity="1.0"/>
    <path d="M 218.29644775390625 124.95828247070312 C 214.91629028320312 121.07463073730469 209.02780151367188 120.66647338867188 205.1441650390625 124.046630859375 C 204.81158447265625 124.33607482910156 204.5 124.64874267578125 204.211669921875 124.9822998046875 C 203.11639404296875 126.2498779296875 202.35693359375 127.895751953125 202.492919921875 129.5646514892578 C 202.60769653320312 130.97500610351562 203.336181640625 132.25845336914062 204.1630859375 133.40554809570312 C 206.3807373046875 136.47299194335938 209.3792724609375 138.89068603515625 212.84719848632812 140.40750122070312 C 213.76455688476562 140.80690002441406 214.741455078125 141.14601135253906 215.74295043945312 141.09751892089844 C 217.42431640625 141.01712036132812 218.88937377929688 139.83851623535156 219.8096923828125 138.42767333984375 C 221.17745971679688 136.3340301513672 221.57254028320312 133.6868438720703 221.13885498046875 131.22332763671875 C 220.7052001953125 128.7598114013672 219.49349975585938 126.4747314453125 217.89495849609375 124.55105590820312 L 218.29644775390625 124.95828247070312" stroke-width="0.6000000238418579" fill="rgb(143, 165, 67)" opacity="1.0"/>
    <path d="M 223.463134765625 93.63385009765625 C 221.77813720703125 99.64527893066406 228.85089111328125 105.91311645507812 234.738525390625 103.9605712890625 C 240.6260986328125 102.00799560546875 242.68942260742188 93.25920104980469 238.60400390625 88.53591918945312 C 234.51861572265625 83.8126220703125 226.1123046875 84.21798706054688 222.134521484375 89.039794921875 L 223.463134765625 93.63385009765625" stroke-width="0.6000000238418579" fill="rgb(233, 92, 21)" opacity="1.0"/>
    <path d="M 201.15301513671875 95.92440795898438 C 200.08306884765625 93.10244750976562 198.5123291015625 89.842529296875 195.5120849609375 89.43167114257812 C 194.31173706054688 89.31463623046875 193.10464477539062 89.57293701171875 192.05734252929688 90.17100524902344 C 189.42620849609375 91.58102416992188 187.64175415039062 94.17886352539062 187.269775390625 97.14071655273438 C 186.960693359375 99.65399169921875 187.73455810546875 102.14004516601562 188.53814697265625 104.5250244140625 C 188.99169921875 105.86404418945312 189.5162353515625 107.27224731445312 190.62811279296875 108.1328125 C 192.11953735351562 109.26773071289062 194.21652221679688 109.09429931640625 196.0391845703125 108.66061401367188 C 198.70745849609375 108.02923583984375 201.25592041015625 106.97013854980469 203.58578491210938 105.52439880371094 C 204.38983154296875 105.0233154296875 205.19766235351562 104.44503784179688 205.63882446289062 103.60699462890625 C 206.0091552734375 102.80682373046875 206.138671875 101.91615295410156 206.01153564453125 101.04362487792969 C 205.72894287109375 98.38192749023438 204.29290771484375 95.97819519042969 202.08306884765625 94.46783447265625 L 201.15301513671875 95.92440795898438" stroke-width="0.6000000238418579" fill="rgb(70, 150, 179)" opacity="1.0"/>
    <path d="M 269.2615966796875 132.0029754638672 C 268.1321105957031 134.98721313476562 267.0054626464844 138.34243774414062 268.2651062011719 141.27188110351562 C 269.6201171875 144.41796875 273.3818359375 145.91783142089844 276.8050842285156 145.79571533203125 C 278.1249694824219 145.74920654296875 279.48779296875 145.4888458251953 280.551513671875 144.70628356933594 C 281.4261779785156 144.0633087158203 282.02862548828125 143.12322998046875 282.5585021972656 142.17604064941406 C 284.2330627441406 139.1911163330078 285.4166564941406 135.6498565673828 284.46087646484375 132.3642120361328 C 283.4952697753906 129.05345153808594 280.2344055175781 126.54243469238281 276.7833557128906 126.47477722167969 C 273.3323059082031 126.4071044921875 269.95721435546875 128.75335693359375 268.84417724609375 132.0231170654297 L 269.2615966796875 132.0029754638672" stroke-width="0.6000000238418579" fill="rgb(140, 28, 33)" opacity="1.0"/>
    <path d="M 314.7161560058594 115.94561767578125 C 311.79632568359375 116.30401611328125 308.76202392578125 116.70913696289062 306.25811767578125 118.25726318359375 C 303.7542419433594 119.80538940429688 301.91943359375 122.86398315429688 302.7150573730469 125.69773864746094 C 303.7049560546875 129.19351196289062 308.360595703125 130.6216278076172 311.7031555175781 129.18084716796875 C 315.0456848144531 127.74006652832031 317.1342468261719 124.32730102539062 318.2496032714844 120.86734008789062 C 318.7021789550781 119.83087158203125 318.7497863769531 118.66244506835938 318.38299560546875 117.59262084960938 C 317.9127197265625 116.58425903320312 316.38568115234375 116.0433349609375 315.64239501953125 116.87869262695312 L 314.7161560058594 115.94561767578125" stroke-width="0.6000000238418579" fill="rgb(159, 159, 159)" opacity="1.0"/>
    <path d="M 197.90673828125 133.00001525878906 C 195.73184204101562 130.9749298095703 192.81573486328125 129.65087890625 189.8480224609375 129.77171325683594 C 186.88031005859375 129.89254760742188 183.92904663085938 131.60317993164062 182.69024658203125 134.31646728515625 C 181.81680297851562 136.23590087890625 181.84854125976562 138.49049377441406 182.4927978515625 140.5004119873047 C 183.13702392578125 142.51036071777344 184.35052490234375 144.2975616455078 185.75872802734375 145.8702392578125 C 186.3719482421875 146.5542755126953 187.064697265625 147.22740173339844 187.94659423828125 147.4761962890625 C 188.95751953125 147.76190185546875 190.02984619140625 147.43890380859375 191.01693725585938 147.0701904296875 C 193.8037109375 146.02920532226562 196.53707885742188 144.521484375 198.27020263671875 142.10316467285156 C 200.00335693359375 139.68484497070312 200.48846435546875 136.1953125 198.81689453125 133.74298095703125 L 197.90673828125 133.00001525878906" stroke-width="0.6000000238418579" fill="rgb(159, 159, 159)" opacity="1.0"/>
    <path d="M 279.96343994140625 105.41807556152344 C 276.9994812011719 106.33941650390625 273.74481201171875 107.49191284179688 272.2760009765625 110.21932983398438 C 270.8438415527344 112.86976623535156 271.5700988769531 116.12272644042969 272.38330078125 119.02491760253906 C 272.7153625488281 120.20339965820312 273.0815734863281 121.43099975585938 273.93109130859375 122.31173706054688 C 275.3670654296875 123.80221557617188 277.72491455078125 123.869384765625 279.76123046875 123.51657104492188 C 281.6513671875 123.1898193359375 283.4848327636719 122.59335327148438 285.2054443359375 121.74545288085938 C 287.9997253417969 120.36967468261719 290.6779479980469 117.92234802246094 290.7330017089844 114.809326171875 C 290.7651672363281 113.12876892089844 290.0015563964844 111.5025634765625 288.9332580566406 110.20149230957031 C 287.8649597167969 108.90042114257812 286.4986572265625 107.88041687011719 285.13543701171875 106.89268493652344 C 283.772216796875 105.90493774414062 282.4115295410156 104.96359252929688 280.8022766113281 104.63070678710938 L 279.96343994140625 105.41807556152344" stroke-width="0.6000000238418579" fill="rgb(218, 166, 20)" opacity="1.0"/>
    <path d="M 242.18899536132812 118.54156494140625 C 241.14007568359375 123.65338134765625 244.43374633789062 128.64764404296875 249.54556274414062 129.696533203125 C 249.9832763671875 129.78636169433594 250.42681884765625 129.84500122070312 250.87286376953125 129.87205505371094 C 252.56768798828125 129.97451782226562 254.36062622070312 129.57379150390625 255.62127685546875 128.43759155273438 C 256.6866760253906 127.47752380371094 257.2723693847656 126.1011962890625 257.6876525878906 124.72946166992188 C 258.79425048828125 121.05615234375 258.8970947265625 117.15354919433594 257.98553466796875 113.42703247070312 C 257.742919921875 112.44241333007812 257.41510009765625 111.44691467285156 256.75994873046875 110.6700439453125 C 255.660888671875 109.36517333984375 253.81024169921875 108.91011047363281 252.107666015625 109.03671264648438 C 249.579833984375 109.222900390625 247.2044677734375 110.53314208984375 245.48687744140625 112.39794921875 C 243.76931762695312 114.26272583007812 242.67410278320312 116.64447021484375 242.10797119140625 119.11549377441406 L 242.18899536132812 118.54156494140625" stroke-width="0.6000000238418579" fill="rgb(143, 165, 67)" opacity="1.0"/>
    <path d="M 250.88336181640625 91.54159545898438 C 249.80133056640625 97.66876220703125 257.43023681640625 103.19194030761719 263.0780944824219 100.67843627929688 C 268.7259521484375 98.1649169921875 269.9149169921875 89.28579711914062 265.4001770019531 85.00169372558594 C 260.88543701171875 80.71759033203125 252.58795166015625 81.9434814453125 249.11541748046875 87.11550903320312 L 250.88336181640625 91.54159545898438" stroke-width="0.6000000238418579" fill="rgb(233, 92, 21)" opacity="1.0"/>
    <path d="M 338.1739807128906 84.23989868164062 C 335.33160400390625 83.15422058105469 331.8237609863281 82.15214538574219 329.50335693359375 84.13626098632812 C 328.6106872558594 84.9617919921875 327.9961242675781 86.04399108886719 327.74456787109375 87.23358154296875 C 327.04290771484375 90.16015625 327.80328369140625 93.24528503417969 329.7845764160156 95.5106201171875 C 331.47015380859375 97.42794799804688 333.861083984375 98.51145935058594 336.1958312988281 99.50485229492188 C 337.50823974609375 100.06076049804688 338.92034912109375 100.60958862304688 340.3136901855469 100.34906005859375 C 342.16802978515625 99.986572265625 343.4429626464844 98.29107666015625 344.3380126953125 96.62774658203125 C 345.6509704589844 94.19508361816406 346.5614929199219 91.56594848632812 347.0343322753906 88.84230041503906 C 347.1958923339844 87.90093994140625 347.3018493652344 86.90493774414062 346.9664306640625 86.010986328125 C 346.6120300292969 85.19575500488281 346.028076171875 84.50125122070312 345.2857666015625 84.01214599609375 C 343.091796875 82.44094848632812 340.31903076171875 81.91128540039062 337.7004089355469 82.56317138671875 L 338.1739807128906 84.23989868164062" stroke-width="0.6000000238418579" fill="rgb(70, 150, 179)" opacity="1.0"/>
    <path d="M 333.3627014160156 129.38763427734375 C 332.5893249511719 126.46084594726562 331.60919189453125 123.24917602539062 329.0214538574219 121.68197631835938 C 326.24066162109375 120.00010681152344 322.5093688964844 120.91621398925781 319.9337158203125 122.89794921875 C 318.9403381347656 123.66162109375 318.03167724609375 124.61404418945312 317.64190673828125 125.80474853515625 C 317.3211364746094 126.78341674804688 317.37432861328125 127.84141540527344 317.4874572753906 128.86485290527344 C 317.84039306640625 132.09271240234375 318.879150390625 135.47940063476562 321.4286804199219 137.48915100097656 C 323.9996032714844 139.51287841796875 327.9017333984375 139.6536102294922 330.6034851074219 137.80303955078125 C 333.30523681640625 135.95248413085938 334.61737060546875 132.28009033203125 333.6738586425781 129.1419219970703 L 333.3627014160156 129.38763427734375" stroke-width="0.6000000238418579" fill="rgb(140, 28, 33)" opacity="1.0"/>
    <path d="M 349.7344970703125 104.91558837890625 C 346.6133728027344 103.90684509277344 343.3545227050781 102.89158630371094 340.09527587890625 103.28134155273438 C 336.8360900878906 103.67111206054688 333.544189453125 105.90263366699219 333.0180358886719 109.14204406738281 C 332.3774719238281 113.1422119140625 336.4150695800781 116.7728271484375 340.47198486328125 116.88546752929688 C 344.5289001464844 116.99809265136719 348.2437744140625 114.52755737304688 350.99658203125 111.55227661132812 C 351.9410095214844 110.71664428710938 352.5378723144531 109.557373046875 352.6693115234375 108.30320739746094 C 352.66729736328125 107.06259155273438 351.37701416015625 105.79843139648438 350.2330322265625 106.294189453125 L 349.7344970703125 104.91558837890625" stroke-width="0.6000000238418579" fill="rgb(159, 159, 159)" opacity="1.0"/>
    <path d="M 350.266845703125 126.63995361328125 C 347.28460693359375 127.59213256835938 344.5635986328125 129.58682250976562 343.1429138183594 132.3746337890625 C 341.7221984863281 135.1624298095703 341.77001953125 138.7556610107422 343.6224365234375 141.293701171875 C 344.93438720703125 143.08645629882812 347.02130126953125 144.22091674804688 349.19964599609375 144.66661071777344 C 351.3780212402344 145.11231994628906 353.6455993652344 144.9202880859375 355.81671142578125 144.438720703125 C 356.76141357421875 144.22857666015625 357.73712158203125 143.93978881835938 358.4207458496094 143.25831604003906 C 359.2048645019531 142.4773712158203 359.461669921875 141.32589721679688 359.63250732421875 140.2290802001953 C 360.1147766113281 137.13253784179688 360.140869140625 133.84414672851562 358.814453125 131.00437927246094 C 357.4880676269531 128.16461181640625 354.53375244140625 125.9180908203125 351.41888427734375 126.18756103515625 L 350.266845703125 126.63995361328125" stroke-width="0.6000000238418579" fill="rgb(159, 159, 159)" opacity="1.0"/>
    <path d="M 365.38702392578125 116.04696655273438 C 362.5001525878906 116.86431884765625 359.32666015625 117.89788818359375 357.8401184082031 120.49736022949219 C 356.3908996582031 123.0233154296875 357.01263427734375 126.18466186523438 357.7270202636719 129.0092010498047 C 358.0188903808594 130.1562042236328 358.342529296875 131.35147094726562 359.1418151855469 132.2235107421875 C 360.49273681640625 133.69915771484375 362.76959228515625 133.82212829589844 364.74603271484375 133.53131103515625 C 366.5805969238281 133.26210021972656 368.3670349121094 132.73085021972656 370.05059814453125 131.95384216308594 C 372.7846984863281 130.69317626953125 375.43304443359375 128.39414978027344 375.5628662109375 125.38726806640625 C 375.6353454589844 123.76406860351562 374.9374694824219 122.17379760742188 373.9371643066406 120.89022827148438 C 372.9368591308594 119.60664367675781 371.6416320800781 118.58732604980469 370.3486328125 117.59927368164062 C 369.05560302734375 116.61122131347656 367.763916015625 115.66806030273438 366.2170104980469 115.30674743652344 L 365.38702392578125 116.04696655273438" stroke-width="0.6000000238418579" fill="rgb(218, 166, 20)" opacity="1.0"/>
    <path d="M 433.6204833984375 153.63916015625 C 428.6715087890625 154.5272216796875 425.37939453125 159.25912475585938 426.2674560546875 164.20816040039062 C 426.343505859375 164.6319580078125 426.44952392578125 165.0498046875 426.584716796875 165.45858764648438 C 427.0986328125 167.01177978515625 428.097900390625 168.47299194335938 429.5650634765625 169.19503784179688 C 430.804931640625 169.80535888671875 432.24578857421875 169.83761596679688 433.62164306640625 169.71905517578125 C 437.3040771484375 169.39666748046875 440.8330078125 168.0941162109375 443.8419189453125 165.94680786132812 C 444.63623046875 165.37786865234375 445.409912109375 164.72882080078125 445.8709716796875 163.86492919921875 C 446.6458740234375 162.4151611328125 446.39178466796875 160.5965576171875 445.67010498046875 159.1182861328125 C 444.6002197265625 156.92279052734375 442.5789794921875 155.26547241210938 440.2965087890625 154.39488220214844 C 438.0140380859375 153.5242919921875 435.491455078125 153.3953399658203 433.0780029296875 153.771728515625 L 433.6204833984375 153.63916015625" stroke-width="0.6000000238418579" fill="rgb(143, 165, 67)" opacity="1.0"/>
    <path d="M 143.4366455078125 418.16595458984375 C 140.57481384277344 423.677978515625 146.189697265625 431.2183837890625 152.3199005126953 430.5125732421875 C 158.45010375976562 429.80682373046875 162.23629760742188 421.705810546875 159.21697998046875 416.27630615234375 C 156.1976318359375 410.8468017578125 147.92881774902344 409.5343017578125 143.07577514648438 413.42218017578125 L 143.4366455078125 418.16595458984375" stroke-width="0.6000000238418579" fill="rgb(233, 92, 21)" opacity="1.0"/>
    <path d="M 436.2900390625 186.5882568359375 C 433.3385009765625 186.44830322265625 429.79833984375 186.5872802734375 428.25909423828125 189.12127685546875 C 427.685791015625 190.153564453125 427.4468994140625 191.33828735351562 427.575439453125 192.51205444335938 C 427.81536865234375 195.42483520507812 429.4521484375 198.0406494140625 431.9669189453125 199.52996826171875 C 434.103271484375 200.78790283203125 436.6375732421875 201.06268310546875 439.0927734375 201.2713623046875 C 440.47216796875 201.3863525390625 441.94134521484375 201.464599609375 443.1478271484375 200.80181884765625 C 444.748779296875 199.90521240234375 445.4110107421875 197.9544677734375 445.7325439453125 196.14849853515625 C 446.206298828125 193.506103515625 446.24932861328125 190.80441284179688 445.85986328125 188.14825439453125 C 445.7235107421875 187.23077392578125 445.519287109375 186.27972412109375 444.9388427734375 185.55667114257812 C 444.36474609375 184.9119873046875 443.6153564453125 184.44827270507812 442.7822265625 184.22207641601562 C 440.28179931640625 183.4376220703125 437.5631103515625 183.78958129882812 435.3447265625 185.18487548828125 L 436.2900390625 186.5882568359375" stroke-width="0.6000000238418579" fill="rgb(70, 150, 179)" opacity="1.0"/>
    <path d="M 407.6571044921875 157.53533935546875 C 407.2764587402344 154.30325317382812 406.7188415527344 150.73672485351562 404.2015075683594 148.6774139404297 C 401.49603271484375 146.4668731689453 397.3861083984375 146.8778076171875 394.3450927734375 148.59765625 C 393.17230224609375 149.26026916503906 392.0611572265625 150.13662719726562 391.46630859375 151.34500122070312 C 390.9768981933594 152.3381805419922 390.8735656738281 153.4722900390625 390.8392639160156 154.57870483398438 C 390.72686767578125 158.06765747070312 391.3204040527344 161.829345703125 393.73016357421875 164.3538818359375 C 396.16058349609375 166.89657592773438 400.29254150390625 167.6363525390625 403.4479675292969 166.07516479492188 C 406.6033935546875 164.51397705078125 408.5552062988281 160.80364990234375 408.02545166015625 157.32086181640625 L 407.6571044921875 157.53533935546875" stroke-width="0.6000000238418579" fill="rgb(140, 28, 33)" opacity="1.0"/>
    <path d="M 138.6923828125 121.74942016601562 C 135.45635986328125 122.08773803710938 132.0928192138672 122.47547912597656 129.2930908203125 124.13775634765625 C 126.493408203125 125.800048828125 124.40362548828125 129.1459503173828 125.22718811035156 132.2954864501953 C 126.25244140625 136.18096923828125 131.37255859375 137.8527374267578 135.0975341796875 136.32583618164062 C 138.822509765625 134.79891967773438 141.19996643066406 131.06637573242188 142.5021209716797 127.26229858398438 C 143.023193359375 126.12509155273438 143.0990447998047 124.83395385742188 142.71466064453125 123.64358520507812 C 142.2146453857422 122.51913452148438 140.5366973876953 121.890625 139.69815063476562 122.79965209960938 L 138.6923828125 121.74942016601562" stroke-width="0.6000000238418579" fill="rgb(159, 159, 159)" opacity="1.0"/>
    <path d="M 418.3956298828125 178.66162109375 C 416.068603515625 176.59478759765625 412.98272705078125 175.28024291992188 409.8783874511719 175.47979736328125 C 406.7740173339844 175.67938232421875 403.72601318359375 177.5430908203125 402.4956970214844 180.41455078125 C 401.62841796875 182.44577026367188 401.7171630859375 184.8056640625 402.441162109375 186.894287109375 C 403.1651916503906 188.98291015625 404.479736328125 190.8243408203125 405.992919921875 192.43634033203125 C 406.6518249511719 193.137451171875 407.39373779296875 193.8251953125 408.3232421875 194.06402587890625 C 409.38873291015625 194.3382568359375 410.5035705566406 193.97369384765625 411.52801513671875 193.56332397460938 C 414.4202880859375 192.40478515625 417.2451171875 190.75885009765625 419.00030517578125 188.18411254882812 C 420.7554931640625 185.609375 421.177490234375 181.9437255859375 419.366943359375 179.41717529296875 L 418.3956298828125 178.66162109375" stroke-width="0.6000000238418579" fill="rgb(159, 159, 159)" opacity="1.0"/>
    <path d="M 401.4359436035156 187.16534423828125 C 400.44873046875 184.23651123046875 399.2245178222656 181.02377319335938 396.47467041015625 179.62603759765625 C 393.8023376464844 178.262939453125 390.5812072753906 179.06280517578125 387.7113037109375 179.94088745117188 C 386.5459899902344 180.29931640625 385.33258056640625 180.69287109375 384.4758605957031 181.55938720703125 C 383.0260314941406 183.02410888671875 383.014892578125 185.3729248046875 383.41424560546875 187.3917236328125 C 383.7841796875 189.265625 384.4212646484375 191.07672119140625 385.3060302734375 192.76953125 C 386.74163818359375 195.51873779296875 389.2412109375 198.12704467773438 392.34149169921875 198.1082763671875 C 394.0152282714844 198.1005859375 395.6160583496094 197.302001953125 396.88604736328125 196.20779418945312 C 398.156005859375 195.11358642578125 399.1391296386719 193.72930908203125 400.0902099609375 192.348876953125 C 401.041259765625 190.96844482421875 401.94622802734375 189.5916748046875 402.2395935058594 187.9818115234375 L 401.4359436035156 187.16534423828125" stroke-width="0.6000000238418579" fill="rgb(218, 166, 20)" opacity="1.0"/>
    <path d="M 450.31024169921875 178.34713745117188 C 449.53204345703125 183.46380615234375 453.049072265625 188.2425537109375 458.165771484375 189.02078247070312 C 458.6038818359375 189.08740234375 459.04620361328125 189.12286376953125 459.4893798828125 189.12692260742188 C 461.17333984375 189.1419677734375 462.9287109375 188.65362548828125 464.11944580078125 187.46392822265625 C 465.125732421875 186.45867919921875 465.63568115234375 185.0655517578125 465.97705078125 183.68569946289062 C 466.8857421875 179.99090576171875 466.78857421875 176.12017822265625 465.69561767578125 172.4755859375 C 465.4051513671875 171.51272583007812 465.0296630859375 170.54339599609375 464.34112548828125 169.80734252929688 C 463.1859130859375 168.57095336914062 461.3297119140625 168.214599609375 459.6497802734375 168.42681884765625 C 457.155517578125 168.74017333984375 454.86956787109375 170.15908813476562 453.263427734375 172.09375 C 451.65728759765625 174.02838134765625 450.6939697265625 176.443359375 450.25927734375 178.91973876953125 L 450.31024169921875 178.34713745117188" stroke-width="0.6000000238418579" fill="rgb(143, 165, 67)" opacity="1.0"/>
    <path d="M 148.36566162109375 103.567138671875 C 143.29295349121094 107.55003356933594 145.36419677734375 117.090576171875 151.46347045898438 119.05549621582031 C 157.562744140625 121.0203857421875 164.62115478515625 114.98646545410156 164.09765625 108.55630493164062 C 163.57418823242188 102.12612915039062 156.31939697265625 97.33462524414062 150.06137084960938 98.92684936523438 L 148.36566162109375 103.567138671875" stroke-width="0.6000000238418579" fill="rgb(233, 92, 21)" opacity="1.0"/>
    <path d="M 454.46044921875 151.88841247558594 C 452.9404296875 154.72235107421875 451.418701171875 158.26519775390625 453.18701171875 160.96429443359375 C 453.93255615234375 162.01104736328125 454.9844970703125 162.8006591796875 456.19781494140625 163.22421264648438 C 459.171630859375 164.35293579101562 462.508056640625 163.97024536132812 465.1490478515625 162.197509765625 C 467.38555908203125 160.68798828125 468.8426513671875 158.3270263671875 470.19769287109375 156.01284790039062 C 470.956787109375 154.71163940429688 471.72186279296875 153.3050079345703 471.6358642578125 151.80931091308594 C 471.5050048828125 149.8166046142578 469.8988037109375 148.2522735595703 468.2752685546875 147.09051513671875 C 465.9013671875 145.3872833251953 463.2674560546875 144.07952880859375 460.47564697265625 143.21795654296875 C 459.510498046875 142.92213439941406 458.48052978515625 142.67724609375 457.498291015625 142.9088134765625 C 456.5960693359375 143.1708221435547 455.78955078125 143.68971252441406 455.17706298828125 144.40220642089844 C 453.2352294921875 146.4911651611328 452.30743408203125 149.32684326171875 452.6390380859375 152.15963745117188 L 454.46044921875 151.88841247558594" stroke-width="0.6000000238418579" fill="rgb(70, 150, 179)" opacity="1.0"/>
    <path d="M 375.4529724121094 77.28823852539062 C 375.8966979980469 73.784912109375 376.241455078125 69.88310241699219 374.12847900390625 67.0565185546875 C 371.8568420410156 64.021484375 367.4211120605469 63.3802490234375 363.76904296875 64.3968505859375 C 362.36077880859375 64.7882080078125 360.9615783691406 65.4207763671875 360.0193176269531 66.53791809082031 C 359.2443542480469 67.45599365234375 358.83917236328125 68.62338256835938 358.513916015625 69.77963256835938 C 357.48382568359375 73.42465209960938 357.12591552734375 77.54136657714844 359.0040283203125 80.82980346679688 C 360.899169921875 84.14273071289062 365.0574035644531 86.00157165527344 368.78851318359375 85.18199157714844 C 372.51959228515625 84.36241149902344 375.54473876953125 80.96493530273438 375.8969421386719 77.15861511230469 L 375.4529724121094 77.28823852539062" stroke-width="0.6000000238418579" fill="rgb(140, 28, 33)" opacity="1.0"/>
    <path d="M 131.0989990234375 413.685302734375 C 128.37738037109375 415.8406982421875 125.56912231445312 418.11358642578125 123.99769592285156 421.212158203125 C 122.42630004882812 424.3106689453125 122.457275390625 428.5198974609375 125.00033569335938 430.8861083984375 C 128.14601135253906 433.79998779296875 133.7144317626953 432.3778076171875 136.19679260253906 428.8720703125 C 138.67913818359375 425.36627197265625 138.6862030029297 420.6441650390625 137.6837158203125 416.47265625 C 137.50274658203125 415.1502685546875 136.83267211914062 413.94378662109375 135.8056640625 413.09130859375 C 134.71217346191406 412.36431884765625 132.84117126464844 412.7576904296875 132.60565185546875 414.05615234375 L 131.0989990234375 413.685302734375" stroke-width="0.6000000238418579" fill="rgb(159, 159, 159)" opacity="1.0"/>
    <path d="M 410.0343933105469 207.1146240234375 C 408.7148742675781 204.0733642578125 406.32464599609375 201.41793823242188 403.2366027832031 200.2166748046875 C 400.1485900878906 199.015380859375 396.3676452636719 199.44677734375 393.889892578125 201.66775512695312 C 392.14007568359375 203.24020385742188 391.16607666015625 205.55938720703125 390.927490234375 207.90185546875 C 390.6888732910156 210.24435424804688 391.13165283203125 212.61322021484375 391.86932373046875 214.8497314453125 C 392.19091796875 215.82281494140625 392.5986633300781 216.82025146484375 393.3891906738281 217.46829223632812 C 394.2951965332031 218.211669921875 395.5356750488281 218.36013793945312 396.7094421386719 218.423828125 C 400.02325439453125 218.60360717773438 403.4908447265625 218.2823486328125 406.34228515625 216.58364868164062 C 409.1937255859375 214.88494873046875 411.2474670410156 211.533935546875 410.63323974609375 208.280517578125 L 410.0343933105469 207.1146240234375" stroke-width="0.6000000238418579" fill="rgb(159, 159, 159)" opacity="1.0"/>
    <path d="M 383.41973876953125 121.02047729492188 C 380.2319641113281 122.00393676757812 376.7312316894531 123.23516845703125 375.14630126953125 126.1632080078125 C 373.6009216308594 129.0085906982422 374.3740234375 132.50653076171875 375.24139404296875 135.62767028808594 C 375.5956115722656 136.8950653076172 375.9863586425781 138.21530151367188 376.8974304199219 139.1638946533203 C 378.4373779296875 140.76913452148438 380.971435546875 140.8467559814453 383.1608581542969 140.4722137451172 C 385.193115234375 140.1253662109375 387.1650695800781 139.48849487304688 389.0163269042969 138.58111572265625 C 392.0227966308594 137.10885620117188 394.9069519042969 134.484619140625 394.9732666015625 131.13888549804688 C 395.0116882324219 129.33270263671875 394.1947021484375 127.58311462402344 393.04949951171875 126.18228149414062 C 391.904296875 124.78143310546875 390.4381103515625 123.6820068359375 388.9751892089844 122.61724853515625 C 387.51226806640625 121.55252075195312 386.052001953125 120.53762817382812 384.3231201171875 120.1761474609375 L 383.41973876953125 121.02047729492188" stroke-width="0.6000000238418579" fill="rgb(218, 166, 20)" opacity="1.0"/>
    <path d="M 402.82623291015625 80.1119384765625 C 399.05743408203125 75.98965454101562 392.66046142578125 75.70307922363281 388.5381774902344 79.47186279296875 C 388.1851806640625 79.79458618164062 387.85552978515625 80.14193725585938 387.5516662597656 80.51132202148438 C 386.3974304199219 81.91508483886719 385.61737060546875 83.72018432617188 385.8091125488281 85.52651977539062 C 385.9709777832031 87.05303955078125 386.7950439453125 88.4256591796875 387.7222595214844 89.64778137207031 C 390.2086486816406 92.91569519042969 393.5246887207031 95.458251953125 397.325927734375 97.0113525390625 C 398.3313903808594 97.42018127441406 399.3998718261719 97.76205444335938 400.4847106933594 97.68292236328125 C 402.3060302734375 97.55116271972656 403.8636779785156 96.23411560058594 404.8243713378906 94.67962646484375 C 406.2522888183594 92.37278747558594 406.6105651855469 89.49139404296875 406.074951171875 86.83114624023438 C 405.5393371582031 84.17092895507812 404.1646423339844 81.72482299804688 402.3800048828125 79.68093872070312 L 402.82623291015625 80.1119384765625" stroke-width="0.6000000238418579" fill="rgb(143, 165, 67)" opacity="1.0"/>
    <path d="M 117.78851318359375 425.4075927734375 C 114.73321533203125 419.73651123046875 104.9908447265625 420.1490478515625 102.01760864257812 425.81683349609375 C 99.04440307617188 431.484619140625 103.77983093261719 439.45947265625 110.19734191894531 440.0401611328125 C 116.61485290527344 440.62078857421875 122.56681823730469 434.2974853515625 122.06631469726562 427.8673095703125 L 117.78851318359375 425.4075927734375" stroke-width="0.6000000238418579" fill="rgb(233, 92, 21)" opacity="1.0"/>
    <path d="M 448.59234619140625 198.38140869140625 C 447.084228515625 201.21722412109375 445.57696533203125 204.7611083984375 447.3526611328125 207.45062255859375 C 448.1009521484375 208.493408203125 449.1544189453125 209.27835083007812 450.36773681640625 209.69705200195312 C 453.34185791015625 210.8138427734375 456.6728515625 210.4197998046875 459.3043212890625 208.639892578125 C 461.53265380859375 207.12432861328125 462.97955322265625 204.7611083984375 464.32476806640625 202.44500732421875 C 465.07830810546875 201.14273071289062 465.83740234375 199.735107421875 465.74627685546875 198.2415771484375 C 465.60845947265625 196.25180053710938 463.99871826171875 194.695068359375 462.37310791015625 193.54052734375 C 459.99609375 191.8477783203125 457.36077880859375 190.55099487304688 454.56939697265625 189.70037841796875 C 453.6043701171875 189.4083251953125 452.5748291015625 189.16741943359375 451.59466552734375 189.40216064453125 C 450.6944580078125 189.66705322265625 449.8907470703125 190.18817138671875 449.28155517578125 190.90191650390625 C 447.3494873046875 192.99517822265625 446.43292236328125 195.83062744140625 446.774169921875 198.65875244140625 L 448.59234619140625 198.38140869140625" stroke-width="0.6000000238418579" fill="rgb(70, 150, 179)" opacity="1.0"/>
    <path d="M 413.68994140625 135.69232177734375 C 413.4012451171875 132.25570678710938 412.9368896484375 128.45860290527344 410.3436584472656 126.18844604492188 C 407.55645751953125 123.75146484375 403.1890563964844 124.04119873046875 399.9073791503906 125.75509643554688 C 398.6418151855469 126.41534423828125 397.4339599609375 127.30418395996094 396.7611389160156 128.5629425048828 C 396.2076721191406 129.59750366210938 396.0580749511719 130.79501342773438 395.9825744628906 131.96560668945312 C 395.74005126953125 135.65682983398438 396.23553466796875 139.6619110107422 398.6983947753906 142.42100524902344 C 401.1824951171875 145.20001220703125 405.5325012207031 146.1297607421875 408.9297180175781 144.58798217773438 C 412.326904296875 143.04620361328125 414.5255126953125 139.1856231689453 414.087646484375 135.47821044921875 L 413.68994140625 135.69232177734375" stroke-width="0.6000000238418579" fill="rgb(140, 28, 33)" opacity="1.0"/>
    <path d="M 399.3635559082031 70.74470520019531 C 400.25384521484375 74.05204772949219 401.21673583984375 77.48370361328125 403.41058349609375 80.11717224121094 C 405.6044006347656 82.75059509277344 409.43011474609375 84.36587524414062 412.5667724609375 82.98562622070312 C 416.43487548828125 81.273193359375 417.3203125 75.67288208007812 415.11322021484375 72.05514526367188 C 412.90606689453125 68.43740844726562 408.6305847167969 66.58744812011719 404.4597473144531 65.86711120605469 C 403.19097900390625 65.5147705078125 401.8362731933594 65.65084838867188 400.6629638671875 66.24850463867188 C 399.5773620605469 66.95539855957031 399.2033386230469 68.80415344238281 400.2878112792969 69.52445983886719 L 399.3635559082031 70.74470520019531" stroke-width="0.6000000238418579" fill="rgb(159, 159, 159)" opacity="1.0"/>
    <path d="M 441.7108154296875 235.75396728515625 C 439.87744140625 238.57293701171875 438.969970703125 242.08151245117188 439.68310546875 245.365966796875 C 440.39617919921875 248.65045166015625 442.878173828125 251.60675048828125 446.14410400390625 252.45877075195312 C 448.453857421875 253.0582275390625 450.9608154296875 252.58340454101562 453.07568359375 251.47354125976562 C 455.1905517578125 250.3636474609375 456.9461669921875 248.66268920898438 458.4246826171875 246.78643798828125 C 459.067626953125 245.96957397460938 459.68292236328125 245.066162109375 459.788330078125 244.03466796875 C 459.9097900390625 242.8521728515625 459.34075927734375 241.7198486328125 458.73736572265625 240.69140625 C 457.0338134765625 237.7879638671875 454.8204345703125 235.03500366210938 451.7869873046875 233.57449340820312 C 448.75360107421875 232.11395263671875 444.76934814453125 232.25335693359375 442.361572265625 234.5946044921875 L 441.7108154296875 235.75396728515625" stroke-width="0.6000000238418579" fill="rgb(159, 159, 159)" opacity="1.0"/>
    <path d="M 408.03692626953125 262.2291564941406 C 406.2733154296875 259.3210144042969 404.1869812011719 256.16485595703125 400.898193359375 255.32427978515625 C 397.7010192871094 254.5023193359375 394.4339599609375 256.13494873046875 391.5628967285156 257.7672424316406 C 390.39752197265625 258.43206787109375 389.1889953613281 259.1461181640625 388.4770812988281 260.2824401855469 C 387.27191162109375 262.20361328125 387.8240966796875 264.72869873046875 388.7378234863281 266.8007507324219 C 389.5851745605469 268.7242736816406 390.704345703125 270.51617431640625 392.06109619140625 272.12158203125 C 394.2630615234375 274.7291259765625 397.5738525390625 276.9298400878906 400.8987121582031 276.1650695800781 C 402.6943054199219 275.75482177734375 404.22161865234375 274.5126953125 405.3226318359375 273.0325927734375 C 406.4236145019531 271.552490234375 407.14691162109375 269.8298034667969 407.83673095703125 268.11895751953125 C 408.5265197753906 266.4080810546875 409.16766357421875 264.71221923828125 409.0960693359375 262.91290283203125 L 408.03692626953125 262.2291564941406" stroke-width="0.6000000238418579" fill="rgb(218, 166, 20)" opacity="1.0"/>
    <path d="M 416.37646484375 87.153564453125 C 414.36004638671875 92.30841064453125 416.9041748046875 98.12191772460938 422.05908203125 100.13838195800781 C 422.50048828125 100.31105041503906 422.95361328125 100.45217895507812 423.41497802734375 100.56072998046875 C 425.168212890625 100.97286987304688 427.1146240234375 100.87664794921875 428.63690185546875 99.91580200195312 C 429.9234619140625 99.10394287109375 430.7833251953125 97.77061462402344 431.46435546875 96.41142272949219 C 433.2822265625 92.77067565917969 434.09210205078125 88.7095947265625 433.80987548828125 84.6500244140625 C 433.73345947265625 83.57710266113281 433.5699462890625 82.47744750976562 433.02490234375 81.54743957519531 C 432.11083984375 79.985595703125 430.2581787109375 79.17681884765625 428.45556640625 79.00274658203125 C 425.77960205078125 78.74244689941406 423.06072998046875 79.68460083007812 420.9296875 81.32484436035156 C 418.798583984375 82.965087890625 417.22503662109375 85.25773620605469 416.1884765625 87.73892211914062 L 416.37646484375 87.153564453125" stroke-width="0.6000000238418579" fill="rgb(143, 165, 67)" opacity="1.0"/>
    <path d="M 442.4874267578125 129.2386016845703 C 439.796630859375 135.209228515625 446.1490478515625 142.81979370117188 452.56195068359375 141.7183074951172 C 458.974853515625 140.61680603027344 462.4874267578125 131.86634826660156 458.99114990234375 126.32644653320312 C 455.49481201171875 120.78656005859375 446.7122802734375 119.88818359375 441.830078125 124.26524353027344 L 442.4874267578125 129.2386016845703" stroke-width="0.6000000238418579" fill="rgb(233, 92, 21)" opacity="1.0"/>
    <path d="M 446.72265625 93.02789306640625 C 445.9803466796875 96.173828125 445.419921875 100.00872802734375 447.8363037109375 102.17214965820312 C 448.8314208984375 102.99566650390625 450.05755615234375 103.4901123046875 451.3455810546875 103.58724975585938 C 454.52606201171875 103.913330078125 457.66729736328125 102.67762756347656 459.77313232421875 100.27200317382812 C 461.55426025390625 98.226806640625 462.35791015625 95.55648803710938 463.07470703125 92.95806884765625 C 463.4749755859375 91.49777221679688 463.85369873046875 89.93353271484375 463.38287353515625 88.503173828125 C 462.73968505859375 86.60177612304688 460.774658203125 85.49845886230469 458.89703369140625 84.79058837890625 C 456.150390625 83.75119018554688 453.253662109375 83.1632080078125 450.3192138671875 83.04945373535156 C 449.30517578125 83.01210021972656 448.2415771484375 83.04098510742188 447.34759521484375 83.52023315429688 C 446.5391845703125 84.00836181640625 445.8902587890625 84.72117614746094 445.47998046875 85.57174682617188 C 444.135009765625 88.10342407226562 443.96826171875 91.09768676757812 445.02392578125 93.76300048828125 L 446.72265625 93.02789306640625" stroke-width="0.6000000238418579" fill="rgb(70, 150, 179)" opacity="1.0"/>
    <path d="M 320.8885192871094 372.5745849609375 C 317.29498291015625 373.0726013183594 313.3327331542969 373.7754821777344 311.0950622558594 376.62811279296875 C 308.693115234375 379.6938781738281 309.2449035644531 384.2651062011719 311.23114013671875 387.6151428222656 C 311.99639892578125 388.9071044921875 312.9985046386719 390.12548828125 314.35882568359375 390.7608947753906 C 315.4769287109375 391.2836608886719 316.7432861328125 391.3729553222656 317.9771728515625 391.38592529296875 C 321.8682556152344 391.4315490722656 326.0472106933594 390.6841735839844 328.80584716796875 387.9408264160156 C 331.5842590332031 385.17401123046875 332.31439208984375 380.5519714355469 330.5024108886719 377.0708312988281 C 328.6903991699219 373.58966064453125 324.5106201171875 371.4990234375 320.6410827636719 372.1689453125 L 320.8885192871094 372.5745849609375" stroke-width="0.6000000238418579" fill="rgb(140, 28, 33)" opacity="1.0"/>
    <path d="M 307.6981201171875 397.5651550292969 C 304.1083984375 398.6175537109375 300.3846740722656 399.752197265625 297.5624084472656 402.21160888671875 C 294.74017333984375 404.6709899902344 293.06927490234375 408.88751220703125 294.65252685546875 412.27899169921875 C 296.6162109375 416.4610595703125 302.75274658203125 417.2919921875 306.6494445800781 414.794189453125 C 310.546142578125 412.29638671875 312.4623718261719 407.58306884765625 313.147705078125 403.0113830566406 C 313.50164794921875 401.617431640625 313.3201904296875 400.14154052734375 312.6391296386719 398.8748779296875 C 311.8409118652344 397.7066650390625 309.8131408691406 397.3431396484375 309.0529479980469 398.54473876953125 L 307.6981201171875 397.5651550292969" stroke-width="0.6000000238418579" fill="rgb(159, 159, 159)" opacity="1.0"/>
    <path d="M 319.96661376953125 414.92529296875 C 316.0298767089844 415.8912353515625 312.3383483886719 418.2269287109375 310.2562561035156 421.702392578125 C 308.17413330078125 425.177734375 307.91766357421875 429.8236083984375 310.0858154296875 433.2662353515625 C 311.621826171875 435.6982421875 314.2171936035156 437.34857177734375 316.9916687011719 438.1171875 C 319.7661437988281 438.8858642578125 322.7123718261719 438.838623046875 325.5596008300781 438.4088134765625 C 326.79852294921875 438.22100830078125 328.0845031738281 437.934326171875 329.0279541015625 437.1146240234375 C 330.1100158691406 436.17523193359375 330.5437316894531 434.71051025390625 330.8615417480469 433.308837890625 C 331.7587585449219 429.3514404296875 332.0836486816406 425.10595703125 330.6217346191406 421.32012939453125 C 329.1597900390625 417.5343017578125 325.5424499511719 414.3707275390625 321.494873046875 414.4429931640625 L 319.96661376953125 414.92529296875" stroke-width="0.6000000238418579" fill="rgb(159, 159, 159)" opacity="1.0"/>
    <path d="M 269.1549072265625 416.3099365234375 C 265.8542785644531 418.5718994140625 262.2834777832031 421.2291259765625 261.5113220214844 425.147216796875 C 260.7550048828125 428.95654296875 262.8865661621094 432.6873779296875 264.9917907714844 435.9530029296875 C 265.8489685058594 437.2784423828125 266.766845703125 438.65130615234375 268.148193359375 439.41314697265625 C 270.4837341308594 440.70306396484375 273.4136657714844 439.8892822265625 275.78778076171875 438.6802978515625 C 277.9918212890625 437.55914306640625 280.0234069824219 436.127197265625 281.8204040527344 434.42852783203125 C 284.7392578125 431.67132568359375 287.1076354980469 427.63836669921875 285.9917297363281 423.7828369140625 C 285.392333984375 421.7005615234375 283.8333435058594 419.98779296875 282.022705078125 418.79132080078125 C 280.2120666503906 417.59490966796875 278.1412048339844 416.8580322265625 276.0863952636719 416.15972900390625 C 274.0316162109375 415.46142578125 271.99761962890625 414.8192138671875 269.8887634277344 415.0211181640625 L 269.1549072265625 416.3099365234375" stroke-width="0.6000000238418579" fill="rgb(218, 166, 20)" opacity="1.0"/>
    <path d="M 223.86285400390625 414.36090087890625 C 217.51953125 412.6099853515625 210.95782470703125 416.3328857421875 209.2069091796875 422.67626953125 C 209.05697631835938 423.21942138671875 208.94577026367188 423.7725830078125 208.87411499023438 424.33148193359375 C 208.60223388671875 426.455322265625 208.95523071289062 428.7449951171875 210.27850341796875 430.427001953125 C 211.3966064453125 431.8485107421875 213.07891845703125 432.7015380859375 214.76983642578125 433.33978271484375 C 219.29837036132812 435.04193115234375 224.2000732421875 435.50048828125 228.96572875976562 434.6678466796875 C 230.22503662109375 434.4456787109375 231.50527954101562 434.1171875 232.53802490234375 433.3583984375 C 234.27252197265625 432.0855712890625 235.00119018554688 429.79541015625 234.98550415039062 427.64251708984375 C 234.96444702148438 424.4461669921875 233.5162353515625 421.34698486328125 231.31475830078125 419.028564453125 C 229.11328125 416.710205078125 226.20892333984375 415.13128662109375 223.1475830078125 414.2105712890625 L 223.86285400390625 414.36090087890625" stroke-width="0.6000000238418579" fill="rgb(143, 165, 67)" opacity="1.0"/>
    <path d="M 288.69708251953125 363.0400085449219 C 290.45294189453125 370.4933776855469 301.7635498046875 373.0284118652344 306.92681884765625 367.4405517578125 C 312.09002685546875 361.8526916503906 309.11700439453125 351.23602294921875 301.9296875 348.5876770019531 C 294.74237060546875 345.9393310546875 285.9574279785156 351.3597412109375 284.54620361328125 358.8955383300781 L 288.69708251953125 363.0400085449219" stroke-width="0.6000000238418579" fill="rgb(233, 92, 21)" opacity="1.0"/>
    <path d="M 332.6893615722656 359.38104248046875 C 333.19873046875 363.2039794921875 334.20367431640625 367.7177429199219 337.81719970703125 369.1028747558594 C 339.2766418457031 369.5981140136719 340.8538513183594 369.6282958984375 342.3311767578125 369.1891784667969 C 346.0157165527344 368.2010498046875 348.9927978515625 365.4883728027344 350.31829833984375 361.91131591796875 C 351.4349060058594 358.8741149902344 351.19610595703125 355.5553894042969 350.8908996582031 352.3537292480469 C 350.716552734375 350.5555419921875 350.4740295410156 348.6505432128906 349.3412170410156 347.25592041015625 C 347.8160400390625 345.40936279296875 345.1562805175781 345.01434326171875 342.7620544433594 345.0231018066406 C 339.2580871582031 345.03155517578125 335.778564453125 345.6070861816406 332.45849609375 346.72735595703125 C 331.3121032714844 347.1166687011719 330.13848876953125 347.6009216308594 329.345458984375 348.5151672363281 C 328.6515808105469 349.4029541015625 328.23101806640625 350.4734802246094 328.1350402832031 351.5961608886719 C 327.7114562988281 354.9903869628906 328.7981262207031 358.3995666503906 331.1078796386719 360.92254638671875 L 332.6893615722656 359.38104248046875" stroke-width="0.6000000238418579" fill="rgb(70, 150, 179)" opacity="1.0"/>
    <path d="M 298.84735107421875 418.84765625 C 294.79412841796875 419.71429443359375 290.3378601074219 420.8450927734375 288.0256042480469 424.28179931640625 C 285.5439453125 427.97509765625 286.5532531738281 433.1378173828125 289.09539794921875 436.7896728515625 C 290.074951171875 438.1981201171875 291.3182067871094 439.50299072265625 292.921142578125 440.11376953125 C 294.2386779785156 440.6163330078125 295.6890869140625 440.6126708984375 297.09613037109375 440.52471923828125 C 301.53363037109375 440.25274658203125 306.2331237792969 439.05322265625 309.1481018066406 435.6976318359375 C 312.0835876464844 432.313720703125 312.5307922363281 426.98626708984375 310.17626953125 423.1705322265625 C 307.82177734375 419.354736328125 302.885009765625 417.320556640625 298.5316162109375 418.40606689453125 L 298.84735107421875 418.84765625" stroke-width="0.6000000238418579" fill="rgb(140, 28, 33)" opacity="1.0"/>
    <path d="M 333.8430480957031 389.3595275878906 C 330.1273193359375 389.71368408203125 326.2648010253906 390.1231689453125 323.0356750488281 392.0006408691406 C 319.8066101074219 393.87811279296875 317.3742370605469 397.6944274902344 318.2859191894531 401.3160095214844 C 319.4212341308594 405.7839660644531 325.2771911621094 407.7554626464844 329.5662841796875 406.04296875 C 333.8553771972656 404.33050537109375 336.621826171875 400.0736999511719 338.1554870605469 395.72357177734375 C 338.7651672363281 394.42449951171875 338.86572265625 392.9441833496094 338.4372863769531 391.57464599609375 C 337.87548828125 390.27947998046875 335.9572448730469 389.5408630371094 334.98577880859375 390.5748596191406 L 333.8430480957031 389.3595275878906" stroke-width="0.6000000238418579" fill="rgb(159, 159, 159)" opacity="1.0"/>
    <path d="M 347.6143798828125 411.93975830078125 C 343.5610046386719 412.23968505859375 339.5220947265625 413.9349365234375 336.88494873046875 417.02490234375 C 334.247802734375 420.1148681640625 333.2210388183594 424.666015625 334.7919921875 428.430908203125 C 335.9060363769531 431.09130859375 338.1977233886719 433.155029296875 340.81317138671875 434.37677001953125 C 343.4286804199219 435.59857177734375 346.3497619628906 436.0421142578125 349.2366027832031 436.0909423828125 C 350.492919921875 436.1114501953125 351.81219482421875 436.04205322265625 352.8815002441406 435.388427734375 C 354.1077880859375 434.63970947265625 354.7803955078125 433.2635498046875 355.3279113769531 431.930419921875 C 356.8736572265625 428.166748046875 357.9014587402344 424.0228271484375 357.0859375 420.0361328125 C 356.2703857421875 416.0494384765625 353.22003173828125 412.31927490234375 349.2057800292969 411.7171325683594 L 347.6143798828125 411.93975830078125" stroke-width="0.6000000238418579" fill="rgb(159, 159, 159)" opacity="1.0"/>
    <path d="M 255.45404052734375 367.7358093261719 C 256.4411315917969 363.8576354980469 257.37030029296875 359.50408935546875 255.36431884765625 356.0503845214844 C 253.41824340820312 352.6888732910156 249.35409545898438 351.2925109863281 245.61672973632812 350.228271484375 C 244.09783935546875 349.7981872558594 242.50201416015625 349.3724670410156 240.961181640625 349.7117614746094 C 238.3548583984375 350.28411865234375 236.69052124023438 352.82952880859375 235.70455932617188 355.304931640625 C 234.78851318359375 357.6021728515625 234.20712280273438 360.01904296875 233.97808837890625 362.4815673828125 C 233.60479736328125 366.4798583984375 234.4871826171875 371.073486328125 237.87051391601562 373.2339172363281 C 239.69534301757812 374.4029235839844 241.99725341796875 374.6608581542969 244.1474609375 374.36474609375 C 246.29766845703125 374.068603515625 248.340087890625 373.2554016113281 250.344970703125 372.4238586425781 C 252.34982299804688 371.5923156738281 254.302001953125 370.7322692871094 255.75335693359375 369.1886291503906 L 255.45404052734375 367.7358093261719" stroke-width="0.6000000238418579" fill="rgb(218, 166, 20)" opacity="1.0"/>
    <path d="M 252.86212158203125 389.37396240234375 C 250.030029296875 383.3855895996094 242.87960815429688 380.8269348144531 236.8912353515625 383.6590576171875 C 236.37844848632812 383.90155029296875 235.883544921875 384.1801452636719 235.41015625 384.4927062988281 C 233.6116943359375 385.6806945800781 232.09722900390625 387.4542236328125 231.68377685546875 389.56854248046875 C 231.33416748046875 391.3552551269531 231.78887939453125 393.1987609863281 232.41302490234375 394.9077453613281 C 234.0899658203125 399.47991943359375 236.9605712890625 403.5196838378906 240.72662353515625 406.6073913574219 C 241.7235107421875 407.421875 242.81512451171875 408.1824645996094 244.07235717773438 408.47161865234375 C 246.18270874023438 408.9582824707031 248.4080810546875 408.00946044921875 250.039794921875 406.5830383300781 C 252.4637451171875 404.467041015625 253.87603759765625 401.3263244628906 254.19793701171875 398.1241149902344 C 254.51983642578125 394.9219055175781 253.81588745117188 391.6694030761719 252.50686645507812 388.7296447753906 L 252.86212158203125 389.37396240234375" stroke-width="0.6000000238418579" fill="rgb(143, 165, 67)" opacity="1.0"/>
    <path d="M 202.52581787109375 370.1129455566406 C 200.548095703125 377.50885009765625 209.31280517578125 385.09033203125 216.50335693359375 382.60955810546875 C 223.69390869140625 380.12872314453125 226.09527587890625 369.3707580566406 221.01629638671875 363.63922119140625 C 215.9373779296875 357.9076843261719 205.63565063476562 358.5284118652344 200.8291015625 364.49932861328125 L 202.52581787109375 370.1129455566406" stroke-width="0.6000000238418579" fill="rgb(233, 92, 21)" opacity="1.0"/>
    <path d="M 265.48077392578125 367.872314453125 C 265.5743713378906 371.732421875 266.08648681640625 376.3337097167969 269.53326416015625 378.1030578613281 C 270.9323425292969 378.7538146972656 272.4989013671875 378.95440673828125 274.01678466796875 378.6771240234375 C 277.7908935546875 378.0920715332031 281.0473327636719 375.7140197753906 282.7534484863281 372.2970886230469 C 284.1932678222656 369.3948669433594 284.314453125 366.06585693359375 284.3569030761719 362.8462219238281 C 284.3778381347656 361.0375671386719 284.3424377441406 359.11529541015625 283.3657531738281 357.6047058105469 C 282.0473937988281 355.60186767578125 279.4428405761719 354.9211120605469 277.05889892578125 354.6709289550781 C 273.5704345703125 354.3004150390625 270.04498291015625 354.4969787597656 266.61932373046875 355.25299072265625 C 265.4361877441406 355.5164794921875 264.2156982421875 355.8715515136719 263.3275451660156 356.6957702636719 C 262.5409240722656 357.5043640136719 262.0065612792969 358.5243835449219 261.7896423339844 359.6314392089844 C 261.0009765625 362.96392822265625 261.71392822265625 366.47467041015625 263.739990234375 369.2355651855469 L 265.48077392578125 367.872314453125" stroke-width="0.6000000238418579" fill="rgb(70, 150, 179)" opacity="1.0"/>
    <path d="M 326.0726318359375 363.8021240234375 C 327.268798828125 359.8629150390625 328.4292297363281 355.44635009765625 326.5545959472656 351.7840881347656 C 324.5384216308594 347.8511962890625 319.56634521484375 346.24542236328125 315.1701354980469 346.6983642578125 C 313.4750671386719 346.872314453125 311.7431640625 347.3251953125 310.44146728515625 348.42449951171875 C 309.37103271484375 349.3277893066406 308.6767272949219 350.59002685546875 308.0764465332031 351.8551025390625 C 306.1786804199219 355.8423156738281 304.96099853515625 360.5032653808594 306.47528076171875 364.65032958984375 C 308.00433349609375 368.828857421875 312.4190368652344 371.7795715332031 316.8674621582031 371.5685119628906 C 321.3158874511719 371.357421875 325.4579162597656 368.04547119140625 326.6082458496094 363.7401123046875 L 326.0726318359375 363.8021240234375" stroke-width="0.6000000238418579" fill="rgb(140, 28, 33)" opacity="1.0"/>
    <path d="M 351.4602355957031 395.02520751953125 C 347.7276306152344 395.3111877441406 343.8468017578125 395.6499328613281 340.5738220214844 397.4725341796875 C 337.3008728027344 399.29510498046875 334.7907409667969 403.07672119140625 335.6375427246094 406.72528076171875 C 336.6929016113281 411.22674560546875 342.5283508300781 413.3126220703125 346.8611755371094 411.67523193359375 C 351.1940002441406 410.037841796875 354.0473327636719 405.82073974609375 355.66619873046875 401.4870910644531 C 356.3017272949219 400.19580078125 356.43011474609375 398.7132263183594 356.0259704589844 397.3319396972656 C 355.4867248535156 396.0227355957031 353.576904296875 395.24639892578125 352.5835266113281 396.2651672363281 L 351.4602355957031 395.02520751953125" stroke-width="0.6000000238418579" fill="rgb(159, 159, 159)" opacity="1.0"/>
    <path d="M 186.17123413085938 410.1167907714844 C 182.2188720703125 410.66302490234375 178.3675537109375 412.5753173828125 175.97637939453125 415.7667236328125 C 173.585205078125 418.9581298828125 172.8626708984375 423.48077392578125 174.63616943359375 427.07135009765625 C 175.89324951171875 429.6083984375 178.266845703125 431.4874267578125 180.9052734375 432.52154541015625 C 183.543701171875 433.5556640625 186.43307495117188 433.808349609375 189.26434326171875 433.6763916015625 C 190.49639892578125 433.6182861328125 191.7845458984375 433.4681396484375 192.79144287109375 432.76123046875 C 193.94619750976562 431.9512939453125 194.51943969726562 430.561279296875 194.97283935546875 429.2210693359375 C 196.2528076171875 425.4376220703125 197.001708984375 421.3138427734375 195.95452880859375 417.458984375 C 194.90728759765625 413.60400390625 191.6866455078125 410.1395568847656 187.71646118164062 409.7995910644531 L 186.17123413085938 410.1167907714844" stroke-width="0.6000000238418579" fill="rgb(159, 159, 159)" opacity="1.0"/>
    <path d="M 358.6005554199219 373.0022888183594 C 354.7729187011719 374.16156005859375 350.5685119628906 375.615966796875 348.6503601074219 379.11639404296875 C 346.7801513671875 382.5179443359375 347.68536376953125 386.71612548828125 348.70587158203125 390.4631652832031 C 349.1226501464844 391.9847412109375 349.5829772949219 393.5699157714844 350.6693115234375 394.71270751953125 C 352.5054931640625 396.64666748046875 355.54290771484375 396.75537109375 358.1699523925781 396.31988525390625 C 360.60845947265625 395.9166564941406 362.9764099121094 395.16534423828125 365.2013244628906 394.0889892578125 C 368.81463623046875 392.34259033203125 372.2884521484375 389.21441650390625 372.3886413574219 385.2038879394531 C 372.4458923339844 383.038818359375 371.4772644042969 380.93634033203125 370.113037109375 379.2498779296875 C 368.748779296875 377.5634460449219 366.9978942871094 376.2363586425781 365.25067138671875 374.95086669921875 C 363.50347900390625 373.6654052734375 361.7591552734375 372.439697265625 359.68878173828125 371.99566650390625 L 358.6005554199219 373.0022888183594" stroke-width="0.6000000238418579" fill="rgb(218, 166, 20)" opacity="1.0"/>
    <path d="M 374.1410217285156 383.10382080078125 C 369.94317626953125 388.21710205078125 370.6852722167969 395.7652587890625 375.7985534667969 399.9631042480469 C 376.23638916015625 400.32257080078125 376.6991882324219 400.6505126953125 377.1834716796875 400.9444885253906 C 379.0237731933594 402.0611877441406 381.2715148925781 402.6715087890625 383.35699462890625 402.1423034667969 C 385.119384765625 401.69525146484375 386.58978271484375 400.4977722167969 387.8663635253906 399.20477294921875 C 391.2786560058594 395.73895263671875 393.7007141113281 391.4226989746094 394.8809509277344 386.7043762207031 C 395.1908264160156 385.4566650390625 395.41156005859375 384.1463623046875 395.135986328125 382.8878173828125 C 394.6745300292969 380.7746887207031 392.867919921875 379.1704406738281 390.8835144042969 378.30609130859375 C 387.9383239746094 377.0207824707031 384.499755859375 377.0863342285156 381.4711608886719 378.16259765625 C 378.44256591796875 379.2388916015625 375.8064270019531 381.2628173828125 373.7109069824219 383.6996154785156 L 374.1410217285156 383.10382080078125" stroke-width="0.6000000238418579" fill="rgb(143, 165, 67)" opacity="1.0"/>
    <path d="M 367.2231140136719 360.4871826171875 C 370.6927490234375 367.4320068359375 382.44354248046875 367.2970886230469 386.2356262207031 360.58026123046875 C 390.0276794433594 353.8634338378906 384.61981201171875 344.08111572265625 376.9109802246094 343.1432189941406 C 369.2021789550781 342.205322265625 361.797607421875 349.60107421875 362.16156005859375 357.3653869628906 L 367.2231140136719 360.4871826171875" stroke-width="0.6000000238418579" fill="rgb(233, 92, 21)" opacity="1.0"/>
    <path d="M 398.4940490722656 363.3221740722656 C 398.67083740234375 367.1444396972656 399.2784423828125 371.6919250488281 402.7318115234375 373.36981201171875 C 404.132080078125 373.9840393066406 405.6884765625 374.1486511230469 407.1862487792969 373.8408508300781 C 410.9126281738281 373.1790466308594 414.0870361328125 370.75213623046875 415.70294189453125 367.3297119140625 C 417.066162109375 364.42303466796875 417.11376953125 361.12225341796875 417.085693359375 357.9315490722656 C 417.0670166015625 356.13922119140625 416.9901123046875 354.23553466796875 415.98956298828125 352.7602233886719 C 414.6397705078125 350.8046875 412.0445556640625 350.18695068359375 409.6772766113281 349.9909973144531 C 406.21307373046875 349.6999206542969 402.724609375 349.971435546875 399.34716796875 350.7950439453125 C 398.1807861328125 351.0818786621094 396.9793395996094 351.46026611328125 396.1173400878906 352.2961730957031 C 395.35565185546875 353.1143798828125 394.84844970703125 354.1365966796875 394.65765380859375 355.23809814453125 C 393.9488830566406 358.556884765625 394.731689453125 362.01953125 396.7991027832031 364.710693359375 L 398.4940490722656 363.3221740722656" stroke-width="0.6000000238418579" fill="rgb(70, 150, 179)" opacity="1.0"/>
    <path d="M 387.88519287109375 415.45257568359375 C 386.0884704589844 419.246826171875 384.2562255859375 423.5279541015625 385.5985107421875 427.50299072265625 C 387.04296875 431.77215576171875 391.8177490234375 434.1368408203125 396.320068359375 434.33856201171875 C 398.0559387207031 434.4171142578125 399.87078857421875 434.2197265625 401.3485107421875 433.30584716796875 C 402.5635681152344 432.5550537109375 403.4530334472656 431.3858642578125 404.2480773925781 430.19970703125 C 406.75970458984375 426.462158203125 408.686279296875 421.94305419921875 407.7801208496094 417.5330810546875 C 406.8638000488281 413.089111328125 402.852783203125 409.4512939453125 398.3340148925781 408.99774169921875 C 393.8152770996094 408.544189453125 389.1409912109375 411.264404296875 387.33563232421875 415.43487548828125 L 387.88519287109375 415.45257568359375" stroke-width="0.6000000238418579" fill="rgb(140, 28, 33)" opacity="1.0"/>
    <path d="M 409.4858703613281 390.8902282714844 C 408.7161560058594 394.53021240234375 407.955322265625 398.3262939453125 408.7795715332031 401.95709228515625 C 409.6037902832031 405.58782958984375 412.509521484375 409.03814697265625 416.22607421875 409.24951171875 C 420.814208984375 409.50018310546875 424.43359375 404.5169677734375 424.08197021484375 399.92706298828125 C 423.7303466796875 395.3371276855469 420.50506591796875 391.4378356933594 416.8238525390625 388.6834411621094 C 415.76971435546875 387.71661376953125 414.39154052734375 387.1800842285156 412.961181640625 387.17974853515625 C 411.5618896484375 387.32843017578125 410.2879943847656 388.9331359863281 410.98223876953125 390.1651611328125 L 409.4858703613281 390.8902282714844" stroke-width="0.6000000238418579" fill="rgb(159, 159, 159)" opacity="1.0"/>
    <path d="M 435.4228515625 368.51348876953125 C 436.1968994140625 372.4747619628906 438.34503173828125 376.25714111328125 441.7030029296875 378.4927978515625 C 445.0609130859375 380.7284240722656 449.66961669921875 381.2037658691406 453.19647216796875 379.21051025390625 C 455.688232421875 377.798095703125 457.45263671875 375.2949523925781 458.3486328125 372.5718688964844 C 459.24468994140625 369.8487854003906 459.33740234375 366.9162292480469 459.04486083984375 364.06396484375 C 458.91680908203125 362.82281494140625 458.69268798828125 361.5301818847656 457.92205810546875 360.552978515625 C 457.0390625 359.43218994140625 455.602783203125 358.931396484375 454.22369384765625 358.548828125 C 450.33026123046875 357.4688415527344 446.12298583984375 356.9444274902344 442.288330078125 358.218994140625 C 438.45361328125 359.49359130859375 435.13555908203125 362.9414367675781 435.0155029296875 366.9706115722656 L 435.4228515625 368.51348876953125" stroke-width="0.6000000238418579" fill="rgb(159, 159, 159)" opacity="1.0"/>
    <path d="M 423.22265625 409.37847900390625 C 419.543701171875 410.96209716796875 415.52301025390625 412.8817138671875 414.00732421875 416.5806884765625 C 412.5281982421875 420.1759033203125 413.900634765625 424.25213623046875 415.337158203125 427.866455078125 C 415.9228515625 429.3338623046875 416.5589599609375 430.859619140625 417.7684326171875 431.8748779296875 C 419.81298828125 433.59320068359375 422.847900390625 433.3602294921875 425.413330078125 432.6317138671875 C 427.7947998046875 431.95654296875 430.06689453125 430.94287109375 432.16015625 429.62176513671875 C 435.559814453125 427.4779052734375 438.66546630859375 423.9747314453125 438.314697265625 419.9722900390625 C 438.12841796875 417.811279296875 436.9283447265625 415.8277587890625 435.3812255859375 414.30267333984375 C 433.83416748046875 412.77764892578125 431.942626953125 411.6536560058594 430.05950927734375 410.5706481933594 C 428.1763916015625 409.4876403808594 426.302734375 408.46380615234375 424.1925048828125 408.2544860839844 L 423.22265625 409.37847900390625" stroke-width="0.6000000238418579" fill="rgb(218, 166, 20)" opacity="1.0"/>
    <path d="M 142.05967712402344 226.06716918945312 C 138.226806640625 231.50140380859375 139.52499389648438 239.013916015625 144.95924377441406 242.84677124023438 C 145.42457580566406 243.17498779296875 145.91259765625 243.46978759765625 146.41966247558594 243.72891235351562 C 148.34654235839844 244.7132568359375 150.6447296142578 245.1600341796875 152.696533203125 244.47640991210938 C 154.43051147460938 243.89883422851562 155.81663513183594 242.59042358398438 157.00146484375 241.200439453125 C 160.16778564453125 237.4754638671875 162.2789306640625 232.9705810546875 163.11566162109375 228.15386962890625 C 163.334716796875 226.8802490234375 163.45977783203125 225.55050659179688 163.09109497070312 224.30905151367188 C 162.47335815429688 222.22454833984375 160.54443359375 220.74896240234375 158.49163818359375 220.02813720703125 C 155.44471740722656 218.95590209960938 152.00241088867188 219.27407836914062 149.04527282714844 220.575439453125 C 146.088134765625 221.87677001953125 143.5940399169922 224.09930419921875 141.6722412109375 226.696044921875 L 142.05967712402344 226.06716918945312" stroke-width="0.6000000238418579" fill="rgb(143, 165, 67)" opacity="1.0"/>
    <path d="M 170.11993408203125 262.1055908203125 C 172.58724975585938 269.42034912109375 184.17938232421875 270.8948669433594 188.8331298828125 264.7980041503906 C 193.48681640625 258.7011413574219 189.49859619140625 248.3265380859375 182.03427124023438 246.3482666015625 C 174.5699462890625 244.37002563476562 166.26531982421875 250.64138793945312 165.56170654296875 258.3385009765625 L 170.11993408203125 262.1055908203125" stroke-width="0.6000000238418579" fill="rgb(233, 92, 21)" opacity="1.0"/>
    <path d="M 151.93446350097656 316.0617980957031 C 149.59336853027344 319.1179504394531 147.1138153076172 323.0113830566406 148.68405151367188 326.54071044921875 C 149.3636016845703 327.9209289550781 150.45469665527344 329.0562744140625 151.8068389892578 329.79010009765625 C 155.10353088378906 331.69580078125 159.119384765625 331.8853759765625 162.5809326171875 330.29876708984375 C 165.51385498046875 328.9453430175781 167.68963623046875 326.4359436035156 169.73590087890625 323.96221923828125 C 170.88311767578125 322.5707702636719 172.05764770507812 321.0558776855469 172.2437744140625 319.2720642089844 C 172.472412109375 316.892333984375 170.87548828125 314.7350158691406 169.18063354492188 313.0500183105469 C 166.70330810546875 310.5809020996094 163.8426513671875 308.529052734375 160.70965576171875 306.9740295410156 C 159.6260986328125 306.4388122558594 158.456298828125 305.9513854980469 157.25119018554688 306.0360412597656 C 156.13470458984375 306.1720886230469 155.0819091796875 306.63006591796875 154.22119140625 307.3540954589844 C 151.52488708496094 309.4488525390625 149.8832244873047 312.6209716796875 149.7301788330078 316.03192138671875 L 151.93446350097656 316.0617980957031" stroke-width="0.6000000238418579" fill="rgb(70, 150, 179)" opacity="1.0"/>
    <path d="M 124.42352294921875 304.07000732421875 C 123.27835083007812 300.0548095703125 121.84042358398438 295.65234375 118.22984313964844 293.5607604980469 C 114.34991455078125 291.3162841796875 109.22918701171875 292.6799011230469 105.73069763183594 295.4819641113281 C 104.38137817382812 296.5617370605469 103.15396118164062 297.8995666503906 102.64849853515625 299.5519714355469 C 102.23245239257812 300.91021728515625 102.33425903320312 302.3677062988281 102.51780700683594 303.7760009765625 C 103.09127807617188 308.2176513671875 104.61476135253906 312.85992431640625 108.18455505371094 315.562744140625 C 111.78427124023438 318.2843017578125 117.16897583007812 318.37347412109375 120.84490966796875 315.7489013671875 C 124.52081298828125 313.1243591308594 126.23147583007812 308.0249328613281 124.84602355957031 303.7228088378906 L 124.42352294921875 304.07000732421875" stroke-width="0.6000000238418579" fill="rgb(140, 28, 33)" opacity="1.0"/>
    <path d="M 139.336669921875 276.8351135253906 C 135.9344940185547 278.3204040527344 132.41070556640625 279.9034423828125 129.9401397705078 282.6778259277344 C 127.4696044921875 285.4521484375 126.3524169921875 289.8122253417969 128.33547973632812 292.95281982421875 C 130.7920379638672 296.82403564453125 136.93711853027344 296.87408447265625 140.46060180664062 293.92742919921875 C 143.98406982421875 290.9808044433594 145.28060913085938 286.1009521484375 145.3831024169922 281.51458740234375 C 145.5570831298828 280.0980529785156 145.1937255859375 278.66778564453125 144.36473083496094 277.5060729980469 C 143.43272399902344 276.4559326171875 141.39100646972656 276.3518371582031 140.79302978515625 277.6299133300781 L 139.336669921875 276.8351135253906" stroke-width="0.6000000238418579" fill="rgb(159, 159, 159)" opacity="1.0"/>
    <path d="M 161.5155029296875 291.40740966796875 C 160.02267456054688 295.1142883300781 159.76739501953125 299.4133605957031 161.35064697265625 303.0802307128906 C 162.93392944335938 306.74713134765625 166.50482177734375 309.62646484375 170.50823974609375 309.87261962890625 C 173.33889770507812 310.04302978515625 176.15362548828125 308.91558837890625 178.36575317382812 307.1373596191406 C 180.57794189453125 305.3591003417969 182.23590087890625 302.9737854003906 183.53067016601562 300.4474792480469 C 184.093505859375 299.3477783203125 184.604248046875 298.15350341796875 184.49111938476562 296.926513671875 C 184.36212158203125 295.519775390625 183.43939208984375 294.3295593261719 182.50039672851562 293.2684020996094 C 179.84939575195312 290.27252197265625 176.6383056640625 287.56878662109375 172.7667236328125 286.55987548828125 C 168.89511108398438 285.55096435546875 164.28091430664062 286.6253356933594 162.009033203125 289.90655517578125 L 161.5155029296875 291.40740966796875" stroke-width="0.6000000238418579" fill="rgb(159, 159, 159)" opacity="1.0"/>
    <path d="M 123.69609069824219 344.3728332519531 C 123.13887023925781 340.3946533203125 122.34715270996094 335.99688720703125 119.170654296875 333.55084228515625 C 116.08486938476562 331.16766357421875 111.77835083007812 331.41534423828125 107.90167236328125 331.84735107421875 C 106.32708740234375 332.0251770019531 104.68264770507812 332.2362976074219 103.38018798828125 333.1372375488281 C 101.1763916015625 334.65972900390625 100.5977783203125 337.65716552734375 100.62277221679688 340.3316955566406 C 100.64503479003906 342.8141174316406 101.02362060546875 345.2804870605469 101.74696350097656 347.6552734375 C 102.92005920410156 351.5117492675781 105.48602294921875 355.44390869140625 109.45048522949219 356.1648864746094 C 111.59019470214844 356.5572509765625 113.82681274414062 355.9218444824219 115.71182250976562 354.8293762207031 C 117.59686279296875 353.73687744140625 119.18521118164062 352.2049865722656 120.731689453125 350.6703186035156 C 122.27816772460938 349.1356506347656 123.76486206054688 347.5945739746094 124.52639770507812 345.6087646484375 L 123.69609069824219 344.3728332519531" stroke-width="0.6000000238418579" fill="rgb(218, 166, 20)" opacity="1.0"/>
    <path d="M 165.10000610351562 349.60968017578125 C 160.06521606445312 353.728759765625 159.3228759765625 361.1494445800781 163.44195556640625 366.1842346191406 C 163.794677734375 366.6153869628906 164.17755126953125 367.02093505859375 164.587646484375 367.39788818359375 C 166.146240234375 368.8299255371094 168.19549560546875 369.85247802734375 170.308349609375 369.7450256347656 C 172.0938720703125 369.6544189453125 173.7427978515625 368.78387451171875 175.2232666015625 367.7838134765625 C 179.1824951171875 365.10137939453125 182.351318359375 361.4077453613281 184.40045166015625 357.0866394042969 C 184.940185546875 355.94354248046875 185.40606689453125 354.722900390625 185.38345336914062 353.4562683105469 C 185.3466796875 351.329833984375 183.91470336914062 349.4342346191406 182.16845703125 348.2176208496094 C 179.5771484375 346.40960693359375 176.24929809570312 345.8086853027344 173.1214599609375 346.2614440917969 C 169.99365234375 346.71417236328125 167.06121826171875 348.1563720703125 164.57025146484375 350.1010437011719 L 165.10000610351562 349.60968017578125" stroke-width="0.6000000238418579" fill="rgb(143, 165, 67)" opacity="1.0"/>
    <path d="M 133.51522827148438 379.7334899902344 C 130.4788055419922 372.8449401855469 119.09097290039062 372.4271240234375 115.10452270507812 378.7558898925781 C 111.11810302734375 385.0846252441406 115.89942932128906 394.81195068359375 123.32221984863281 396.0802001953125 C 130.74501037597656 397.3484802246094 138.26211547851562 390.53076171875 138.27200317382812 382.9934387207031 L 133.51522827148438 379.7334899902344" stroke-width="0.6000000238418579" fill="rgb(233, 92, 21)" opacity="1.0"/>
    <path d="M 185.685302734375 364.1985168457031 C 184.4881591796875 367.8117980957031 183.43292236328125 372.25213623046875 186.04296875 375.04058837890625 C 187.12484741210938 376.1098327636719 188.51187133789062 376.81707763671875 190.0126953125 377.06463623046875 C 193.70965576171875 377.7770690917969 197.52264404296875 376.6534423828125 200.24246215820312 374.0500183105469 C 202.5439453125 371.835693359375 203.76373291015625 368.7867126464844 204.87408447265625 365.8130187988281 C 205.49508666992188 364.1415710449219 206.10165405273438 362.345947265625 205.69775390625 360.6192321777344 C 205.1405029296875 358.3221130371094 202.949951171875 356.8240051269531 200.82086181640625 355.7988586425781 C 197.70681762695312 354.294677734375 194.369873046875 353.304443359375 190.93939208984375 352.8665466308594 C 189.7537841796875 352.717529296875 188.50308227539062 352.6410827636719 187.40472412109375 353.1105041503906 C 186.40576171875 353.5992431640625 185.57061767578125 354.3680725097656 185.00106811523438 355.3232421875 C 183.16070556640625 358.1534729003906 182.654541015625 361.6485595703125 183.61639404296875 364.88458251953125 L 185.685302734375 364.1985168457031" stroke-width="0.6000000238418579" fill="rgb(70, 150, 179)" opacity="1.0"/>
  </g>
</svg>
