<?xml version="1.0" ?>
<svg xmlns="http://www.w3.org/2000/svg" version="1.1" width="600" height="600">
  <defs/>
  <g>
    <path d="M 350.7971496582031 350.00701904296875 C 354.2515869140625 353.48260498046875 361.26788330078125 351.0754089355469 362.21099853515625 346.2988586425781 C 363.154052734375 341.5223083496094 357.97613525390625 336.7297668457031 353.1700744628906 337.6937561035156 C 348.364013671875 338.6577453613281 345.39013671875 344.5563659667969 347.1454162597656 349.1379699707031 L 350.7971496582031 350.00701904296875" stroke-width="0.6000000238418579" fill="rgb(233, 92, 21)" opacity="1.0"/>
    <path d="M 104.37847900390625 204.28656005859375 C 105.64187622070312 202.6427001953125 106.98056030273438 200.54803466796875 106.13792419433594 198.64596557617188 C 105.77313232421875 197.902099609375 105.18650817871094 197.28973388671875 104.45893859863281 196.89337158203125 C 102.68515014648438 195.8642578125 100.5225830078125 195.75872802734375 98.65702819824219 196.6102294921875 C 97.07635498046875 197.33660888671875 95.9024658203125 198.6861572265625 94.79833984375 200.01663208007812 C 94.1793212890625 200.7650146484375 93.54548645019531 201.579833984375 93.4437255859375 202.54034423828125 C 93.31857299804688 203.82171630859375 94.17674255371094 204.98492431640625 95.08805847167969 205.893798828125 C 96.42010498046875 207.22564697265625 97.95892333984375 208.3331298828125 99.64486694335938 209.17327880859375 C 100.22793579101562 209.46240234375 100.8575439453125 209.72592163085938 101.50660705566406 209.68136596679688 C 102.10800170898438 209.60906982421875 102.67538452148438 209.36331176757812 103.1395263671875 208.97412109375 C 104.59339904785156 207.84829711914062 105.480224609375 206.141357421875 105.56556701660156 204.3045654296875 L 104.37847900390625 204.28656005859375" stroke-width="0.6000000238418579" fill="rgb(70, 150, 179)" opacity="1.0"/>
    <path d="M 455.340576171875 426.60809326171875 C 455.994140625 428.40625 456.7939453125 430.37188720703125 458.5120849609375 431.2109375 C 460.358154296875 432.111083984375 462.654541015625 431.3218994140625 464.162841796875 429.92779541015625 C 464.74456787109375 429.39056396484375 465.26220703125 428.7392578125 465.439697265625 427.9676513671875 C 465.58587646484375 427.3333740234375 465.49212646484375 426.67047119140625 465.36260986328125 426.03271484375 C 464.95654296875 424.0211181640625 464.10986328125 421.94866943359375 462.390625 420.82891845703125 C 460.6571044921875 419.70159912109375 458.1929931640625 419.8353271484375 456.597900390625 421.154052734375 C 455.00274658203125 422.4727783203125 454.3861083984375 424.8590087890625 455.15869140625 426.780517578125 L 455.340576171875 426.60809326171875" stroke-width="0.6000000238418579" fill="rgb(140, 28, 33)" opacity="1.0"/>
    <path d="M 87.81063842773438 202.5069580078125 C 89.99899291992188 201.98907470703125 92.2703857421875 201.42611694335938 94.04266357421875 200.03927612304688 C 95.81491088867188 198.6524658203125 96.9517822265625 196.17422485351562 96.10897827148438 194.08804321289062 C 95.0628662109375 191.51519775390625 91.40541076660156 190.82162475585938 88.98690795898438 192.19744873046875 C 86.56842041015625 193.5732421875 85.26850891113281 196.34188842773438 84.7120361328125 199.0645751953125 C 84.455322265625 199.89013671875 84.51741027832031 200.78192138671875 84.88607788085938 201.56390380859375 C 85.32817077636719 202.29052734375 86.53392028808594 202.5731201171875 87.02841186523438 201.87591552734375 L 87.81063842773438 202.5069580078125" stroke-width="0.6000000238418579" fill="rgb(159, 159, 159)" opacity="1.0"/>
    <path d="M 376.86627197265625 297.3380126953125 C 378.2709655761719 296.2864074707031 379.345947265625 294.73065185546875 379.5867004394531 292.99346923828125 C 379.8274841308594 291.25628662109375 379.1427307128906 289.362060546875 377.6958923339844 288.3578796386719 C 376.67205810546875 287.6492004394531 375.3586120605469 287.4313659667969 374.1231384277344 287.5950927734375 C 372.8876647949219 287.75885009765625 371.72198486328125 288.2767028808594 370.6605224609375 288.93017578125 C 370.1987609863281 289.21484375 369.73504638671875 289.546875 369.498046875 290.0332336425781 C 369.22607421875 290.5907287597656 369.3013916015625 291.2477111816406 369.4122314453125 291.85992431640625 C 369.72509765625 293.5884094238281 370.31475830078125 295.3347473144531 371.5384216308594 296.59527587890625 C 372.7620544433594 297.8558044433594 374.73895263671875 298.5033874511719 376.33917236328125 297.7890319824219 L 376.86627197265625 297.3380126953125" stroke-width="0.6000000238418579" fill="rgb(159, 159, 159)" opacity="1.0"/>
    <path d="M 95.91928100585938 433.6656494140625 C 96.20925903320312 431.7264404296875 96.44757080078125 429.558349609375 95.29940795898438 427.9736328125 C 94.18501281738281 426.430908203125 92.13497924804688 425.95062255859375 90.2606201171875 425.6160888671875 C 89.49899291992188 425.4813232421875 88.70005798339844 425.35247802734375 87.96566772460938 425.5938720703125 C 86.72335815429688 426.0013427734375 86.03752136230469 427.32421875 85.67892456054688 428.57958984375 C 85.34564208984375 429.74456787109375 85.18138122558594 430.951416015625 85.191162109375 432.16314697265625 C 85.206298828125 434.130615234375 85.86293029785156 436.326416015625 87.61874389648438 437.2127685546875 C 88.56594848632812 437.69268798828125 89.7008056640625 437.7049560546875 90.734375 437.45458984375 C 91.76795959472656 437.2042236328125 92.7235107421875 436.70709228515625 93.65985107421875 436.202880859375 C 94.59617614746094 435.69866943359375 95.50543212890625 435.18316650390625 96.13681030273438 434.359130859375 L 95.91928100585938 433.6656494140625" stroke-width="0.6000000238418579" fill="rgb(218, 166, 20)" opacity="1.0"/>
    <path d="M 101.49620056152344 139.246337890625 C 104.82568359375 139.9195098876953 108.07049560546875 137.76612854003906 108.74365234375 134.4366455078125 C 108.80130004882812 134.1515350341797 108.83865356445312 133.86270141601562 108.85542297363281 133.5723114013672 C 108.91893005371094 132.4688720703125 108.65470886230469 131.30252075195312 107.91273498535156 130.48403930664062 C 107.28578186035156 129.7923126220703 106.38876342773438 129.4136505126953 105.49505615234375 129.14590454101562 C 103.10185241699219 128.43247985839844 100.56126403808594 128.37286376953125 98.13722229003906 128.97325134277344 C 97.49673461914062 129.13302612304688 96.84933471679688 129.34829711914062 96.34486389160156 129.77621459960938 C 95.49752807617188 130.49411010742188 95.20478820800781 131.6996307373047 95.2904052734375 132.80767822265625 C 95.41635131835938 134.45281982421875 96.27371215820312 135.99658203125 97.49081420898438 137.1111297607422 C 98.70793151855469 138.22567749023438 100.2603759765625 138.9341278076172 101.86993408203125 139.29800415039062 L 101.49620056152344 139.246337890625" stroke-width="0.6000000238418579" fill="rgb(143, 165, 67)" opacity="1.0"/>
    <path d="M 452.92559814453125 344.37158203125 C 456.689697265625 346.9964599609375 462.7520751953125 343.6053771972656 462.82244873046875 339.0465393066406 C 462.892822265625 334.4877014160156 457.320556640625 330.9375 453.0533447265625 332.6292724609375 C 448.7861328125 334.321044921875 447.0322265625 340.2533264160156 449.41552734375 344.181396484375 L 452.92559814453125 344.37158203125" stroke-width="0.6000000238418579" fill="rgb(233, 92, 21)" opacity="1.0"/>
    <path d="M 103.33721923828125 215.763916015625 C 104.92036437988281 214.19366455078125 106.64860534667969 212.15374755859375 106.02424621582031 210.0052490234375 C 105.74249267578125 209.15988159179688 105.20538330078125 208.42279052734375 104.48696899414062 207.8956298828125 C 102.74452209472656 206.54351806640625 100.45480346679688 206.11981201171875 98.3438720703125 206.75888061523438 C 96.55462646484375 207.30560302734375 95.10923767089844 208.5750732421875 93.740966796875 209.83419799804688 C 92.9735107421875 210.54275512695312 92.18067932128906 211.32000732421875 91.93399047851562 212.3291015625 C 91.61618041992188 213.67681884765625 92.36344909667969 215.04006958007812 93.20394897460938 216.13995361328125 C 94.4320068359375 217.75115966796875 95.91275024414062 219.15301513671875 97.58876037597656 220.29104614257812 C 98.16860961914062 220.68316650390625 98.80169677734375 221.05462646484375 99.49992370605469 221.10052490234375 C 100.15130615234375 221.11001586914062 100.79139709472656 220.92974853515625 101.34210205078125 220.58172607421875 C 103.0537109375 219.59103393554688 104.24455261230469 217.89938354492188 104.599853515625 215.95391845703125 L 103.33721923828125 215.763916015625" stroke-width="0.6000000238418579" fill="rgb(70, 150, 179)" opacity="1.0"/>
    <path d="M 102.34848022460938 82.29153442382812 C 102.57705688476562 84.68539428710938 102.93093872070312 87.3292236328125 104.757080078125 88.89149475097656 C 106.71975708007812 90.56854248046875 109.76260375976562 90.33187866210938 112.03713989257812 89.11083984375 C 112.91429138183594 88.64044189453125 113.74940490722656 88.01112365722656 114.20852661132812 87.12812805175781 C 114.58624267578125 86.40240478515625 114.6810302734375 85.56625366210938 114.72439575195312 84.74946594238281 C 114.86419677734375 82.17385864257812 114.48695373535156 79.38528442382812 112.74786376953125 77.4810791015625 C 110.99380493164062 75.56312561035156 107.95339965820312 74.94938659667969 105.59693908691406 76.05133056640625 C 103.240478515625 77.15327453613281 101.73820495605469 79.86248779296875 102.0728759765625 82.4439697265625 L 102.34848022460938 82.29153442382812" stroke-width="0.6000000238418579" fill="rgb(140, 28, 33)" opacity="1.0"/>
    <path d="M 90.76992797851562 419.6708984375 C 93.03996276855469 419.1917724609375 95.39677429199219 418.668212890625 97.259521484375 417.2823486328125 C 99.12225341796875 415.896484375 100.3570556640625 413.36907958984375 99.54020690917969 411.1962585449219 C 98.52590942382812 408.5163879394531 94.77108764648438 407.70916748046875 92.24212646484375 409.0673828125 C 89.71316528320312 410.4255676269531 88.30291748046875 413.24847412109375 87.66055297851562 416.0426025390625 C 87.37506103515625 416.88763427734375 87.41668701171875 417.8089599609375 87.77726745605469 418.624755859375 C 88.21499633789062 419.38525390625 89.45147705078125 419.70703125 89.97900390625 419.0003662109375 L 90.76992797851562 419.6708984375" stroke-width="0.6000000238418579" fill="rgb(159, 159, 159)" opacity="1.0"/>
    <path d="M 468.3074951171875 59.62727355957031 C 469.6094970703125 57.768951416015625 470.30322265625 55.424041748046875 469.8988037109375 53.1925048828125 C 469.494384765625 50.96098327636719 467.88946533203125 48.909576416015625 465.7069091796875 48.258941650390625 C 464.1632080078125 47.80088806152344 462.46160888671875 48.062713623046875 461.00958251953125 48.76191711425781 C 459.55755615234375 49.46112060546875 458.33404541015625 50.56730651855469 457.293212890625 51.79814147949219 C 456.84063720703125 52.33403015136719 456.4046630859375 52.92890930175781 456.3095703125 53.62205505371094 C 456.20013427734375 54.41668701171875 456.5574951171875 55.19354248046875 456.9404296875 55.901123046875 C 458.0216064453125 57.89875793457031 459.45013427734375 59.806793212890625 461.4617919921875 60.86235046386719 C 463.473388671875 61.91792297363281 466.1634521484375 61.91670227050781 467.8416748046875 60.3939208984375 L 468.3074951171875 59.62727355957031" stroke-width="0.6000000238418579" fill="rgb(159, 159, 159)" opacity="1.0"/>
    <path d="M 93.2779541015625 106.91506958007812 C 95.21807861328125 107.658935546875 97.40682983398438 108.40170288085938 99.30929565429688 107.576416015625 C 101.16058349609375 106.77639770507812 102.12677001953125 104.76516723632812 102.90188598632812 102.90234375 C 103.21563720703125 102.1451416015625 103.53181457519531 101.34797668457031 103.45013427734375 100.53286743164062 C 103.31282043457031 99.1541748046875 102.10098266601562 98.14178466796875 100.88418579101562 97.48345947265625 C 99.75502014160156 96.87197875976562 98.54389953613281 96.42579650878906 97.28790283203125 96.15858459472656 C 95.24867248535156 95.72396850585938 92.826416015625 95.90083312988281 91.50746154785156 97.51470947265625 C 90.79412841796875 98.38494873046875 90.521728515625 99.55636596679688 90.54421997070312 100.68310546875 C 90.56672668457031 101.80984497070312 90.86239624023438 102.91232299804688 91.16981506347656 103.99655151367188 C 91.47721862792969 105.08078002929688 91.80252075195312 106.13954162597656 92.51065063476562 106.9814453125 L 93.2779541015625 106.91506958007812" stroke-width="0.6000000238418579" fill="rgb(218, 166, 20)" opacity="1.0"/>
    <path d="M 120.88809204101562 127.47186279296875 C 124.2662353515625 126.17559814453125 125.95391845703125 122.38626098632812 124.65766906738281 119.00811767578125 C 124.54666137695312 118.71884155273438 124.415283203125 118.43782043457031 124.2645263671875 118.16714477539062 C 123.69143676757812 117.13873291015625 122.78773498535156 116.24090576171875 121.65315246582031 115.92874145507812 C 120.69436645507812 115.66485595703125 119.67156982421875 115.83668518066406 118.715087890625 116.10633850097656 C 116.15580749511719 116.83168029785156 113.83743286132812 118.22906494140625 112.00076293945312 120.15328979492188 C 111.51614379882812 120.66275024414062 111.05696105957031 121.22604370117188 110.8477783203125 121.89892578125 C 110.49591064453125 123.02833557128906 110.92117309570312 124.27944946289062 111.6309814453125 125.22685241699219 C 112.68380737304688 126.63412475585938 114.33634948730469 127.53253173828125 116.06724548339844 127.83955383300781 C 117.79812622070312 128.14657592773438 119.59860229492188 127.89694213867188 121.25364685058594 127.30487060546875 L 120.88809204101562 127.47186279296875" stroke-width="0.6000000238418579" fill="rgb(143, 165, 67)" opacity="1.0"/>
    <path d="M 391.9511413574219 303.8445739746094 C 394.6662292480469 307.53179931640625 401.4820861816406 306.2713928222656 403.0103454589844 301.9862060546875 C 404.5386047363281 297.7010192871094 400.4115905761719 292.55963134765625 395.83697509765625 292.78997802734375 C 391.2623596191406 293.02032470703125 387.7028503417969 298.0634460449219 388.6954040527344 302.53936767578125 L 391.9511413574219 303.8445739746094" stroke-width="0.6000000238418579" fill="rgb(233, 92, 21)" opacity="1.0"/>
    <path d="M 121.99346923828125 112.75711059570312 C 123.44866943359375 111.21157836914062 125.02664184570312 109.21449279785156 124.36270141601562 107.19058227539062 C 124.067138671875 106.39543151855469 123.5321044921875 105.71159362792969 122.8314208984375 105.2333984375 C 121.12957763671875 104.00360107421875 118.93724060058594 103.67495727539062 116.94960021972656 104.3516845703125 C 115.2650146484375 104.93006896972656 113.93107604980469 106.18492126464844 112.67019653320312 107.42744445800781 C 111.96304321289062 108.12657165527344 111.23399353027344 108.89187622070312 111.0321044921875 109.86000061035156 C 110.77359008789062 111.15263366699219 111.52891540527344 112.42539978027344 112.3643798828125 113.44453430175781 C 113.58523559570312 114.93759155273438 115.03970336914062 116.22317504882812 116.67135620117188 117.25146484375 C 117.23580932617188 117.60565185546875 117.85028076171875 117.93849182128906 118.51608276367188 117.95945739746094 C 119.13615417480469 117.94729614257812 119.73930358886719 117.75494384765625 120.251953125 117.40591430664062 C 121.84823608398438 116.40763854980469 122.92622375488281 114.75936889648438 123.20098876953125 112.89680480957031 L 121.99346923828125 112.75711059570312" stroke-width="0.6000000238418579" fill="rgb(70, 150, 179)" opacity="1.0"/>
    <path d="M 426.3333740234375 70.267822265625 C 427.2177734375 72.16714477539062 428.27783203125 74.23529052734375 430.232177734375 74.98675537109375 C 432.33203125 75.79275512695312 434.761962890625 74.71279907226562 436.2745361328125 73.04808044433594 C 436.85791015625 72.40647888183594 437.360595703125 71.64663696289062 437.4805908203125 70.78787231445312 C 437.57958984375 70.08197021484375 437.4140625 69.36773681640625 437.2119140625 68.68435668945312 C 436.5771484375 66.52854919433594 435.45574951171875 64.34832763671875 433.473388671875 63.290740966796875 C 431.4747314453125 62.22621154785156 428.79925537109375 62.607086181640625 427.184814453125 64.19784545898438 C 425.5704345703125 65.78860473632812 425.125244140625 68.45066833496094 426.1513671875 70.47320556640625 L 426.3333740234375 70.267822265625" stroke-width="0.6000000238418579" fill="rgb(140, 28, 33)" opacity="1.0"/>
    <path d="M 114.48756408691406 416.7203369140625 C 115.80545043945312 414.92578125 117.15701293945312 413.0440673828125 117.6036376953125 410.8612365722656 C 118.05024719238281 408.6784362792969 117.31753540039062 406.0803527832031 115.34356689453125 405.0479736328125 C 112.904052734375 403.7790832519531 109.701171875 405.6026306152344 108.76017761230469 408.19171142578125 C 107.81918334960938 410.7807922363281 108.61529541015625 413.7025146484375 109.9425048828125 416.112548828125 C 110.27859497070312 416.8997802734375 110.89755249023438 417.53240966796875 111.67724609375 417.88555908203125 C 112.476806640625 418.1497802734375 113.56729125976562 417.58935546875 113.49285888671875 416.746337890625 L 114.48756408691406 416.7203369140625" stroke-width="0.6000000238418579" fill="rgb(159, 159, 159)" opacity="1.0"/>
    <path d="M 454.818115234375 433.2547607421875 C 455.63006591796875 431.228759765625 455.7655029296875 428.8804931640625 454.8974609375 426.87921142578125 C 454.02935791015625 424.8779296875 452.076416015625 423.30859375 449.8896484375 423.17779541015625 C 448.3433837890625 423.0872802734375 446.80712890625 423.7056884765625 445.60052490234375 424.67889404296875 C 444.3939208984375 425.65216064453125 443.4906005859375 426.95648193359375 442.7857666015625 428.33746337890625 C 442.4793701171875 428.9385986328125 442.20147705078125 429.59136962890625 442.264404296875 430.26141357421875 C 442.336181640625 431.02960205078125 442.8411865234375 431.6788330078125 443.35504150390625 432.257568359375 C 444.8056640625 433.891357421875 446.56195068359375 435.3651123046875 448.67742919921875 435.91259765625 C 450.79296875 436.4600830078125 453.3121337890625 435.869140625 454.5499267578125 434.07489013671875 L 454.818115234375 433.2547607421875" stroke-width="0.6000000238418579" fill="rgb(159, 159, 159)" opacity="1.0"/>
    <path d="M 451.0703125 285.2766418457031 C 452.3668212890625 283.5611877441406 453.73370361328125 281.5982360839844 453.4593505859375 279.4697265625 C 453.19537353515625 277.3993835449219 451.4730224609375 275.8613586425781 449.8433837890625 274.555908203125 C 449.1806640625 274.02655029296875 448.47882080078125 273.48333740234375 447.6448974609375 273.3305358886719 C 446.2347412109375 273.0712890625 444.8802490234375 273.9855041503906 443.8763427734375 275.00634765625 C 442.9442138671875 275.9534912109375 442.15289306640625 277.0295715332031 441.526611328125 278.20166015625 C 440.50909423828125 280.10443115234375 439.98956298828125 282.5635681152344 441.21551513671875 284.3382873535156 C 441.8759765625 285.29736328125 442.9625244140625 285.9045104980469 444.0892333984375 286.2055969238281 C 445.2159423828125 286.5067138671875 446.39697265625 286.52923583984375 447.563232421875 286.53485107421875 C 448.7294921875 286.54046630859375 449.8756103515625 286.52099609375 450.916015625 286.05859375 L 451.0703125 285.2766418457031" stroke-width="0.6000000238418579" fill="rgb(218, 166, 20)" opacity="1.0"/>
    <path d="M 417.4114990234375 360.5882568359375 C 420.0494384765625 363.4804382324219 424.53253173828125 363.6865234375 427.4246826171875 361.0485534667969 C 427.67236328125 360.8226623535156 427.9036865234375 360.5794677734375 428.116943359375 360.32086181640625 C 428.927001953125 359.3379821777344 429.4752197265625 358.0735168457031 429.34228515625 356.807373046875 C 429.2301025390625 355.7373962402344 428.6536865234375 354.7747497558594 428.0048828125 353.9174499511719 C 426.26495361328125 351.6251220703125 423.9429931640625 349.8404541015625 421.2801513671875 348.7488708496094 C 420.5758056640625 348.4615173339844 419.8272705078125 348.2210388183594 419.06689453125 348.2756042480469 C 417.79034423828125 348.366455078125 416.6976318359375 349.2882385253906 416.02301025390625 350.3769226074219 C 415.0203857421875 351.99249267578125 414.7669677734375 354.0115966796875 415.14013671875 355.87646484375 C 415.5133056640625 357.7413330078125 416.47479248046875 359.456787109375 417.723876953125 360.89068603515625 L 417.4114990234375 360.5882568359375" stroke-width="0.6000000238418579" fill="rgb(143, 165, 67)" opacity="1.0"/>
    <path d="M 451.0511474609375 354.823486328125 C 453.2720947265625 351.29638671875 449.936767578125 345.94073486328125 445.79754638671875 346.0713806152344 C 441.65838623046875 346.2020568847656 438.675048828125 351.4091796875 440.39208984375 355.2085876464844 C 442.10906982421875 359.0079650878906 447.566162109375 360.34619140625 451.02838134765625 358.0162353515625 L 451.0511474609375 354.823486328125" stroke-width="0.6000000238418579" fill="rgb(233, 92, 21)" opacity="1.0"/>
    <path d="M 453.38470458984375 78.18441772460938 C 454.6856689453125 76.76708984375 456.0927734375 74.93911743164062 455.46783447265625 73.11259460449219 C 455.19085693359375 72.39540100097656 454.6981201171875 71.78182983398438 454.0576171875 71.35652160644531 C 452.501220703125 70.26158142089844 450.51068115234375 69.98895263671875 448.7171630859375 70.62506103515625 C 447.1971435546875 71.16856384277344 446.00274658203125 72.32107543945312 444.8743896484375 73.46159362792969 C 444.2415771484375 74.10330200195312 443.589599609375 74.80523681640625 443.41778564453125 75.68490600585938 C 443.1983642578125 76.85931396484375 443.8974609375 78.00405883789062 444.6663818359375 78.91802978515625 C 445.7899169921875 80.25706481933594 447.12274169921875 81.4053955078125 448.61328125 82.31852722167969 C 449.12884521484375 82.63302612304688 449.68951416015625 82.92759704589844 450.2930908203125 82.93894958496094 C 450.85491943359375 82.92079162597656 451.3992919921875 82.73956298828125 451.85986328125 82.4173583984375 C 453.2950439453125 81.49435424804688 454.2530517578125 79.98822021484375 454.4805908203125 78.29714965820312 L 453.38470458984375 78.18441772460938" stroke-width="0.6000000238418579" fill="rgb(70, 150, 179)" opacity="1.0"/>
    <path d="M 450.582763671875 389.5275573730469 C 450.8936767578125 388.745849609375 451.2054443359375 387.8663330078125 450.88623046875 387.08856201171875 C 450.54290771484375 386.2532653808594 449.557861328125 385.8413391113281 448.6549072265625 385.85845947265625 C 448.3067626953125 385.86492919921875 447.9464111328125 385.92755126953125 447.66253662109375 386.1291809082031 C 447.42913818359375 386.2948303222656 447.2662353515625 386.53997802734375 447.122314453125 386.7873229980469 C 446.66778564453125 387.56683349609375 446.3402099609375 388.4951477050781 446.57769775390625 389.365478515625 C 446.81768798828125 390.2424621582031 447.666259765625 390.9187316894531 448.57568359375 390.9517517089844 C 449.485107421875 390.9847717285156 450.3851318359375 390.3811340332031 450.69293212890625 389.5240783691406 L 450.582763671875 389.5275573730469" stroke-width="0.6000000238418579" fill="rgb(140, 28, 33)" opacity="1.0"/>
    <path d="M 127.23521423339844 217.62673950195312 C 124.33224487304688 219.17041015625 121.32855224609375 220.80865478515625 119.33615112304688 223.42706298828125 C 117.34381103515625 226.04547119140625 116.6546630859375 229.97186279296875 118.62004089355469 232.60986328125 C 121.0533447265625 235.86077880859375 126.48318481445312 235.48577880859375 129.39358520507812 232.6434326171875 C 132.3040008544922 229.80108642578125 133.11602783203125 225.40347290039062 132.89370727539062 221.34649658203125 C 132.95071411132812 220.083740234375 132.53228759765625 218.8455810546875 131.72100830078125 217.87625122070312 C 130.8263702392578 217.01251220703125 129.01634216308594 217.05987548828125 128.57546997070312 218.229248046875 L 127.23521423339844 217.62673950195312" stroke-width="0.6000000238418579" fill="rgb(159, 159, 159)" opacity="1.0"/>
    <path d="M 110.2244873046875 224.70404052734375 C 108.06855773925781 222.66427612304688 105.16679382324219 221.3187255859375 102.20198059082031 221.415771484375 C 99.23715209960938 221.5128173828125 96.27609252929688 223.19769287109375 95.01727294921875 225.89761352539062 C 94.12969970703125 227.80758666992188 94.14346313476562 230.05950927734375 94.77084350585938 232.07196044921875 C 95.39825439453125 234.08441162109375 96.59591674804688 235.87896728515625 97.98977661132812 237.4608154296875 C 98.59677124023438 238.14883422851562 99.28326416015625 238.82659912109375 100.16201782226562 239.08209228515625 C 101.16934204101562 239.37548828125 102.24282836914062 239.06146240234375 103.23159790039062 238.7010498046875 C 106.02302551269531 237.68365478515625 108.76486206054688 236.19964599609375 110.5150146484375 233.79827880859375 C 112.26513671875 231.39691162109375 112.77743530273438 227.915771484375 111.12753295898438 225.45330810546875 L 110.2244873046875 224.70404052734375" stroke-width="0.6000000238418579" fill="rgb(159, 159, 159)" opacity="1.0"/>
    <path d="M 304.66375732421875 102.31076049804688 C 303.90191650390625 105.14273071289062 303.1777648925781 108.32357788085938 304.61334228515625 110.874267578125 C 306.00592041015625 113.35678100585938 308.9700622558594 114.42037963867188 311.6980895996094 115.23735046386719 C 312.8067932128906 115.56761169433594 313.971923828125 115.89543151855469 315.1043395996094 115.662109375 C 317.01983642578125 115.26863098144531 318.26470947265625 113.42001342773438 319.01177978515625 111.61593627929688 C 319.7058410644531 109.94172668457031 320.1559143066406 108.176513671875 320.34820556640625 106.37435913085938 C 320.6614990234375 103.44828796386719 320.0605773925781 100.07351684570312 317.6029052734375 98.45680236816406 C 316.2773742675781 97.58206176757812 314.5931701660156 97.37014770507812 313.0146484375 97.56576538085938 C 311.4361572265625 97.76138305664062 309.93145751953125 98.33695983886719 308.4541015625 98.92636108398438 C 306.97674560546875 99.5157470703125 305.5377197265625 100.12654113769531 304.4588928222656 101.24322509765625 L 304.66375732421875 102.31076049804688" stroke-width="0.6000000238418579" fill="rgb(218, 166, 20)" opacity="1.0"/>
    <path d="M 218.30093383789062 124.58123779296875 C 214.95260620117188 120.57859802246094 208.99346923828125 120.04815673828125 204.99081420898438 123.396484375 C 204.6480712890625 123.68319702148438 204.32611083984375 123.99386596679688 204.02731323242188 124.32614135742188 C 202.8922119140625 125.58895874023438 202.08993530273438 127.24176025390625 202.19464111328125 128.93568420410156 C 202.28298950195312 130.3671875 202.9957275390625 131.6822509765625 203.81097412109375 132.86109924316406 C 205.9974365234375 136.0135498046875 208.98809814453125 138.52308654785156 212.4722900390625 140.1289825439453 C 213.39398193359375 140.5519256591797 214.37725830078125 140.91494750976562 215.39309692382812 140.88568115234375 C 217.0985107421875 140.83755493164062 218.6065673828125 139.67225646972656 219.56719970703125 138.26080322265625 C 220.99481201171875 136.16629028320312 221.44769287109375 133.49154663085938 221.05706787109375 130.98646545410156 C 220.66650390625 128.4813995361328 219.48391723632812 126.1417236328125 217.90216064453125 124.16061401367188 L 218.30093383789062 124.58123779296875" stroke-width="0.6000000238418579" fill="rgb(143, 165, 67)" opacity="1.0"/>
    <path d="M 223.63055419921875 93.6954345703125 C 221.85101318359375 99.82804870605469 229.02630615234375 106.30471801757812 235.0662841796875 104.36270141601562 C 241.106201171875 102.420654296875 243.29824829101562 93.49185180664062 239.16390991210938 88.62281799316406 C 235.02957153320312 83.7537841796875 226.427978515625 84.08985900878906 222.3145751953125 88.98431396484375 L 223.63055419921875 93.6954345703125" stroke-width="0.6000000238418579" fill="rgb(233, 92, 21)" opacity="1.0"/>
    <path d="M 201.08123779296875 95.97041320800781 C 199.99337768554688 93.12896728515625 198.39920043945312 89.84762573242188 195.3731689453125 89.44320678710938 C 194.16265869140625 89.32913208007812 192.94659423828125 89.59347534179688 191.8927001953125 90.1998291015625 C 189.2447509765625 91.62991333007812 187.4542236328125 94.25473022460938 187.08892822265625 97.24192810058594 C 186.7855224609375 99.77668762207031 187.57379150390625 102.28045654296875 188.39166259765625 104.68223571777344 C 188.85330200195312 106.03067016601562 189.38671875 107.44862365722656 190.51043701171875 108.31257629394531 C 192.0177001953125 109.45187377929688 194.13119506835938 109.27020263671875 195.96728515625 108.8270263671875 C 198.65521240234375 108.18179321289062 201.22100830078125 107.10575866699219 203.56512451171875 105.64065551757812 C 204.37408447265625 105.13287353515625 205.18661499023438 104.5472412109375 205.62863159179688 103.70094299316406 C 205.9993896484375 102.89303588867188 206.12701416015625 101.99468994140625 205.99603271484375 101.115478515625 C 205.70242309570312 98.43301391601562 204.24685668945312 96.01438903808594 202.01409912109375 94.49893188476562 L 201.08123779296875 95.97041320800781" stroke-width="0.6000000238418579" fill="rgb(70, 150, 179)" opacity="1.0"/>
    <path d="M 269.3215026855469 131.90065002441406 C 268.22186279296875 134.92115783691406 267.12982177734375 138.3153076171875 268.43609619140625 141.2501220703125 C 269.8412170410156 144.4019012451172 273.6496276855469 145.8647003173828 277.0963439941406 145.69796752929688 C 278.42529296875 145.63424682617188 279.7947998046875 145.35458374023438 280.8562927246094 144.55271911621094 C 281.7291564941406 143.89385986328125 282.3240051269531 142.939208984375 282.84564208984375 141.9783172607422 C 284.49432373046875 138.95016479492188 285.641357421875 135.3678741455078 284.6365966796875 132.0703887939453 C 283.6216735839844 128.74774169921875 280.30487060546875 126.260009765625 276.82769775390625 126.23593139648438 C 273.35052490234375 126.21185302734375 269.980712890625 128.61837768554688 268.9012756347656 131.92626953125 L 269.3215026855469 131.90065002441406" stroke-width="0.6000000238418579" fill="rgb(140, 28, 33)" opacity="1.0"/>
    <path d="M 314.1520080566406 116.3499755859375 C 311.1614074707031 116.60380554199219 308.05230712890625 116.90090942382812 305.4403076171875 118.38365173339844 C 302.82830810546875 119.86636352539062 300.8407897949219 122.91464233398438 301.543701171875 125.83419799804688 C 302.41937255859375 129.43614196777344 307.1114807128906 131.070068359375 310.57440185546875 129.72882080078125 C 314.0373229980469 128.38758850097656 316.2971496582031 124.98788452148438 317.5664978027344 121.50289916992188 C 318.0675354003906 120.46345520019531 318.16070556640625 119.27401733398438 317.8276062011719 118.16928100585938 C 317.3866882324219 117.12321472167969 315.8504333496094 116.51336669921875 315.06072998046875 117.336669921875 L 314.1520080566406 116.3499755859375" stroke-width="0.6000000238418579" fill="rgb(159, 159, 159)" opacity="1.0"/>
    <path d="M 197.76092529296875 133.03379821777344 C 195.59783935546875 130.97962951660156 192.683837890625 129.621826171875 189.70376586914062 129.7138214111328 C 186.72369384765625 129.8058319091797 183.74444580078125 131.49375915527344 182.47418212890625 134.2050323486328 C 181.57852172851562 136.12307739257812 181.588134765625 138.38645935058594 182.2149658203125 140.41030883789062 C 182.841796875 142.43417358398438 184.042236328125 144.2400665283203 185.44021606445312 145.8325653076172 C 186.04901123046875 146.5252227783203 186.73773193359375 147.2077178955078 187.62045288085938 147.46615600585938 C 188.63235473632812 147.76290893554688 189.7119140625 147.44927978515625 190.70635986328125 147.0889129638672 C 193.51388549804688 146.07151794433594 196.27243041992188 144.58509826660156 198.03594970703125 142.17478942871094 C 199.79946899414062 139.7644805908203 200.32086181640625 136.2666015625 198.66717529296875 133.78854370117188 L 197.76092529296875 133.03379821777344" stroke-width="0.6000000238418579" fill="rgb(159, 159, 159)" opacity="1.0"/>
    <path d="M 279.9750671386719 105.29727172851562 C 276.9508361816406 106.22784423828125 273.62957763671875 107.39323425292969 272.124267578125 110.16935729980469 C 270.6565246582031 112.86709594726562 271.38739013671875 116.18536376953125 272.2079162597656 119.14633178710938 C 272.5429992675781 120.34867858886719 272.9127197265625 121.60118103027344 273.7762145996094 122.50152587890625 C 275.2357177734375 124.025146484375 277.6391906738281 124.10050964355469 279.716064453125 123.74679565429688 C 281.6438903808594 123.41921997070312 283.51470947265625 122.81651306152344 285.2712097167969 121.9571533203125 C 288.1238098144531 120.56280517578125 290.8612060546875 118.07574462890625 290.9264221191406 114.90242004394531 C 290.9641418457031 113.18930053710938 290.1904296875 111.52926635742188 289.1051940917969 110.19979858398438 C 288.0199279785156 108.87033081054688 286.6300354003906 107.8265380859375 285.24322509765625 106.81561279296875 C 283.8564147949219 105.80471801757812 282.4720458984375 104.84109497070312 280.8324890136719 104.49703979492188 L 279.9750671386719 105.29727172851562" stroke-width="0.6000000238418579" fill="rgb(218, 166, 20)" opacity="1.0"/>
    <path d="M 242.07550048828125 118.11019897460938 C 241.16763305664062 123.38264465332031 244.705810546875 128.39279174804688 249.978271484375 129.3006591796875 C 250.42974853515625 129.37841796875 250.88616943359375 129.4240264892578 251.3441162109375 129.43716430664062 C 253.08419799804688 129.48681640625 254.90838623046875 129.0176239013672 256.1630554199219 127.81216430664062 C 257.2234802246094 126.79356384277344 257.7786865234375 125.36407470703125 258.1594543457031 123.94486999511719 C 259.17340087890625 120.14460754394531 259.1513366699219 116.14215087890625 258.09552001953125 112.35330200195312 C 257.81475830078125 111.35226440429688 257.4463195800781 110.34284973144531 256.7496032714844 109.56817626953125 C 255.58074951171875 108.26693725585938 253.66949462890625 107.861083984375 251.928955078125 108.04641723632812 C 249.3447265625 108.31976318359375 246.95343017578125 109.73997497558594 245.2542724609375 111.70697021484375 C 243.55517578125 113.67396545410156 242.51065063476562 116.15036010742188 242.01123046875 118.70095825195312 L 242.07550048828125 118.11019897460938" stroke-width="0.6000000238418579" fill="rgb(143, 165, 67)" opacity="1.0"/>
    <path d="M 251.05685424804688 91.38932800292969 C 249.99896240234375 97.66285705566406 257.8431701660156 103.24990844726562 263.5981750488281 100.63517761230469 C 269.3531799316406 98.02043151855469 270.4986267089844 88.93218994140625 265.84844970703125 84.58746337890625 C 261.1982727050781 80.24273681640625 252.72381591796875 81.56184387207031 249.214111328125 86.87765502929688 L 251.05685424804688 91.38932800292969" stroke-width="0.6000000238418579" fill="rgb(233, 92, 21)" opacity="1.0"/>
    <path d="M 338.1251525878906 84.35256958007812 C 335.2198486328125 83.18756103515625 331.6285705566406 82.09725952148438 329.20806884765625 84.09878540039062 C 328.2757873535156 84.93280029296875 327.62530517578125 86.03555297851562 327.3463439941406 87.25491333007812 C 326.5749206542969 90.25337219238281 327.3046875 93.43972778320312 329.3042297363281 95.80355834960938 C 331.0055236816406 97.80439758300781 333.446533203125 98.95950317382812 335.83123779296875 100.02098083496094 C 337.1717834472656 100.61508178710938 338.614990234375 101.20359802246094 340.0526428222656 100.95925903320312 C 341.96624755859375 100.61785888671875 343.30645751953125 98.89547729492188 344.25537109375 97.19970703125 C 345.6471862792969 94.71969604492188 346.6284484863281 92.03073120117188 347.1610412597656 89.23715209960938 C 347.34320068359375 88.27157592773438 347.4690856933594 87.24885559082031 347.1392517089844 86.32363891601562 C 346.7885437011719 85.47903442382812 346.19964599609375 84.75473022460938 345.44439697265625 84.23904418945312 C 343.21429443359375 82.58561706542969 340.37115478515625 81.99371337890625 337.6664733886719 82.61981201171875 L 338.1251525878906 84.35256958007812" stroke-width="0.6000000238418579" fill="rgb(70, 150, 179)" opacity="1.0"/>
    <path d="M 333.66900634765625 129.94053649902344 C 332.88482666015625 127.007080078125 331.8924560546875 123.78851318359375 329.2923278808594 122.22401428222656 C 326.4981994628906 120.54507446289062 322.75823974609375 121.4747314453125 320.18048095703125 123.46994018554688 C 319.186279296875 124.23878479003906 318.2776184082031 125.19674682617188 317.8901062011719 126.39218139648438 C 317.5711669921875 127.374755859375 317.6275939941406 128.43580627441406 317.7440490722656 129.4620361328125 C 318.10736083984375 132.69866943359375 319.1590576171875 136.0926513671875 321.7221374511719 138.10113525390625 C 324.3067321777344 140.12359619140625 328.2210998535156 140.25347900390625 330.92572021484375 138.3894805908203 C 333.6303405761719 136.52548217773438 334.93585205078125 132.83815002441406 333.98040771484375 129.6931915283203 L 333.66900634765625 129.94053649902344" stroke-width="0.6000000238418579" fill="rgb(140, 28, 33)" opacity="1.0"/>
    <path d="M 349.22833251953125 104.53854370117188 C 346.07611083984375 103.37579345703125 342.7832336425781 102.20065307617188 339.4312438964844 102.46343994140625 C 336.0793151855469 102.72625732421875 332.61700439453125 104.87265014648438 331.9432373046875 108.16607666015625 C 331.12060546875 112.23333740234375 335.1012878417969 116.11772155761719 339.2486877441406 116.40240478515625 C 343.3960876464844 116.68710327148438 347.30126953125 114.31375122070312 350.2428894042969 111.38363647460938 C 351.244384765625 110.56781005859375 351.90362548828125 109.40628051757812 352.0905456542969 108.128173828125 C 352.1402587890625 106.85838317871094 350.87249755859375 105.51068115234375 349.6809997558594 105.97029113769531 L 349.22833251953125 104.53854370117188" stroke-width="0.6000000238418579" fill="rgb(159, 159, 159)" opacity="1.0"/>
    <path d="M 349.8739013671875 127.03897094726562 C 346.84124755859375 127.92491149902344 344.0460510253906 129.86920166015625 342.5428771972656 132.646240234375 C 341.0397033691406 135.42327880859375 340.9979248046875 139.0496826171875 342.8032531738281 141.65672302246094 C 344.08197021484375 143.49832153320312 346.1590576171875 144.69515991210938 348.34564208984375 145.1993865966797 C 350.5322265625 145.70362854003906 352.8248291015625 145.5666961669922 355.0273132324219 145.1352081298828 C 355.9856872558594 144.94686889648438 356.977294921875 144.67994689941406 357.68408203125 144.00953674316406 C 358.4947814941406 143.2412872314453 358.78271484375 142.0859832763672 358.9825439453125 140.9836883544922 C 359.5466613769531 137.8716583251953 359.6553649902344 134.5546417236328 358.3883056640625 131.6563720703125 C 357.1212158203125 128.75808715820312 354.1968994140625 126.41757202148438 351.04754638671875 126.61140441894531 L 349.8739013671875 127.03897094726562" stroke-width="0.6000000238418579" fill="rgb(159, 159, 159)" opacity="1.0"/>
    <path d="M 365.4541931152344 115.74273681640625 C 362.46136474609375 116.64320373535156 359.1736755371094 117.77377319335938 357.6697082519531 120.50651550292969 C 356.2033386230469 123.16204833984375 356.9047546386719 126.444091796875 357.6968994140625 129.37376403808594 C 358.02044677734375 130.56341552734375 358.3778991699219 131.80282592773438 359.2252197265625 132.69744873046875 C 360.6573791503906 134.2113800048828 363.0308837890625 134.3006591796875 365.0844421386719 133.96409606933594 C 366.9906311035156 133.65245056152344 368.8421630859375 133.06869506835938 370.5824279785156 132.23072814941406 C 373.4085998535156 130.8711395263672 376.12774658203125 128.4315185546875 376.2117614746094 125.29756164550781 C 376.25958251953125 123.605712890625 375.505615234375 121.9613037109375 374.4419250488281 120.64144897460938 C 373.3782043457031 119.32160949707031 372.0118408203125 118.28202819824219 370.6482849121094 117.27496337890625 C 369.28472900390625 116.26791381835938 367.92333984375 115.30758666992188 366.3060302734375 114.9576416015625 L 365.4541931152344 115.74273681640625" stroke-width="0.6000000238418579" fill="rgb(218, 166, 20)" opacity="1.0"/>
    <path d="M 433.46929931640625 153.3441162109375 C 428.275146484375 154.27110290527344 424.81591796875 159.2332763671875 425.742919921875 164.42745971679688 C 425.822265625 164.87225341796875 425.93310546875 165.31082153320312 426.07452392578125 165.73992919921875 C 426.6123046875 167.37030029296875 427.659423828125 168.90457153320312 429.1983642578125 169.66372680664062 C 430.49871826171875 170.30535888671875 432.01068115234375 170.34066772460938 433.45458984375 170.21762084960938 C 437.319091796875 169.8829345703125 441.0234375 168.5196533203125 444.1829833984375 166.26931762695312 C 445.01708984375 165.673095703125 445.82958984375 164.99273681640625 446.31427001953125 164.08673095703125 C 447.1287841796875 162.566162109375 446.864013671875 160.65753173828125 446.108154296875 159.1055908203125 C 444.98760986328125 156.80068969726562 442.8682861328125 155.05955505371094 440.4739990234375 154.14373779296875 C 438.079833984375 153.22792053222656 435.43280029296875 153.09011840820312 432.89990234375 153.48269653320312 L 433.46929931640625 153.3441162109375" stroke-width="0.6000000238418579" fill="rgb(143, 165, 67)" opacity="1.0"/>
    <path d="M 143.4140625 418.0599365234375 C 140.5505828857422 423.73614501953125 146.387939453125 431.38720703125 152.6542510986328 430.59161376953125 C 158.92056274414062 429.79595947265625 162.69927978515625 421.458740234375 159.54388427734375 415.937255859375 C 156.38851928710938 410.4158020019531 147.90904235839844 409.171142578125 142.98802185058594 413.2086181640625 L 143.4140625 418.0599365234375" stroke-width="0.6000000238418579" fill="rgb(233, 92, 21)" opacity="1.0"/>
    <path d="M 436.44671630859375 186.5660400390625 C 433.351806640625 186.44488525390625 429.642333984375 186.62112426757812 428.05078125 189.29052734375 C 427.458740234375 190.37747192382812 427.21856689453125 191.621337890625 427.36346435546875 192.8505859375 C 427.64007568359375 195.901611328125 429.37841796875 198.62933349609375 432.027099609375 200.168701171875 C 434.27728271484375 201.46875 436.9361572265625 201.73486328125 439.51141357421875 201.93243408203125 C 440.958251953125 202.041015625 442.4989013671875 202.1103515625 443.7578125 201.40521240234375 C 445.4281005859375 200.45156860351562 446.1053466796875 198.401123046875 446.4267578125 196.50537109375 C 446.90057373046875 193.7315673828125 446.92230224609375 190.89932250976562 446.4910888671875 188.1185302734375 C 446.34027099609375 187.15802001953125 446.1180419921875 186.1629638671875 445.5032958984375 185.41006469726562 C 444.89599609375 184.7392578125 444.1065673828125 184.25970458984375 443.2313232421875 184.02978515625 C 440.6036376953125 183.22915649414062 437.7569580078125 183.62155151367188 435.44384765625 185.103271484375 L 436.44671630859375 186.5660400390625" stroke-width="0.6000000238418579" fill="rgb(70, 150, 179)" opacity="1.0"/>
    <path d="M 407.6618347167969 157.2161865234375 C 407.3268127441406 153.8988494873047 406.8161926269531 150.23593139648438 404.2724914550781 148.08367919921875 C 401.5386047363281 145.77330017089844 397.3215637207031 146.1244354248047 394.17718505859375 147.8345489501953 C 392.964599609375 148.49339294433594 391.8114929199219 149.37222290039062 391.18157958984375 150.59996032714844 C 390.66339111328125 151.60902404785156 390.53826904296875 152.76902770996094 390.48431396484375 153.9018096923828 C 390.3099365234375 157.473876953125 390.85406494140625 161.33734130859375 393.2796630859375 163.96435546875 C 395.72613525390625 166.61029052734375 399.94622802734375 167.438232421875 403.2050476074219 165.89263916015625 C 406.4638977050781 164.34698486328125 408.52630615234375 160.57937622070312 408.04278564453125 157.00274658203125 L 407.6618347167969 157.2161865234375" stroke-width="0.6000000238418579" fill="rgb(140, 28, 33)" opacity="1.0"/>
    <path d="M 138.18365478515625 121.96676635742188 C 134.8409423828125 122.21255493164062 131.36537170410156 122.50517272949219 128.429931640625 124.12800598144531 C 125.49455261230469 125.75082397460938 123.23675537109375 129.12973022460938 123.98489379882812 132.3987579345703 C 124.91738891601562 136.4319610595703 130.1363525390625 138.3155975341797 134.0201873779297 136.86148071289062 C 137.90402221679688 135.40736389160156 140.4702911376953 131.6394805908203 141.93162536621094 127.76388549804688 C 142.5041961669922 126.60946655273438 142.6232147216797 125.28244018554688 142.2651824951172 124.04460144042969 C 141.78598022460938 122.87094116210938 140.07818603515625 122.17060852050781 139.1859588623047 123.08001708984375 L 138.18365478515625 121.96676635742188" stroke-width="0.6000000238418579" fill="rgb(159, 159, 159)" opacity="1.0"/>
    <path d="M 418.56427001953125 178.70892333984375 C 416.12158203125 176.56512451171875 412.89111328125 175.2115478515625 409.6507263183594 175.43914794921875 C 406.4103698730469 175.666748046875 403.2391357421875 177.63177490234375 401.9721984863281 180.63775634765625 C 401.07916259765625 182.76416015625 401.1864318847656 185.22781372070312 401.95538330078125 187.404296875 C 402.7243347167969 189.580810546875 404.1084289550781 191.4954833984375 405.698486328125 193.16940307617188 C 406.390869140625 193.8974609375 407.1698303222656 194.61102294921875 408.14190673828125 194.8546142578125 C 409.2562255859375 195.1343994140625 410.4180603027344 194.74676513671875 411.48529052734375 194.31195068359375 C 414.49822998046875 193.08425903320312 417.43780517578125 191.34808349609375 419.254638671875 188.64862060546875 C 421.0714111328125 185.94918823242188 421.48944091796875 182.11886596679688 419.5831298828125 179.4918212890625 L 418.56427001953125 178.70892333984375" stroke-width="0.6000000238418579" fill="rgb(159, 159, 159)" opacity="1.0"/>
    <path d="M 401.46331787109375 187.29324340820312 C 400.4795837402344 184.31903076171875 399.25726318359375 181.0556640625 396.4781799316406 179.6231689453125 C 393.7774963378906 178.22622680664062 390.5080871582031 179.01837158203125 387.59423828125 179.89187622070312 C 386.4110412597656 180.24847412109375 385.178955078125 180.640380859375 384.3056335449219 181.51370239257812 C 382.8277282714844 182.98992919921875 382.80291748046875 185.37051391601562 383.196044921875 187.4189453125 C 383.5602111816406 189.32040405273438 384.1955261230469 191.15969848632812 385.08251953125 192.88055419921875 C 386.5217590332031 195.67526245117188 389.04022216796875 198.33331298828125 392.1826171875 198.3321533203125 C 393.8791198730469 198.333984375 395.5062255859375 197.53378295898438 396.7997131347656 196.43206787109375 C 398.0931701660156 195.330322265625 399.09759521484375 193.93292236328125 400.0694885253906 192.53927612304688 C 401.0414123535156 191.1456298828125 401.966552734375 189.75540161132812 402.2731628417969 188.1253662109375 L 401.46331787109375 187.29324340820312" stroke-width="0.6000000238418579" fill="rgb(218, 166, 20)" opacity="1.0"/>
    <path d="M 450.1881103515625 178.34912109375 C 449.4365234375 183.54266357421875 453.03741455078125 188.36215209960938 458.23095703125 189.11373901367188 C 458.6756591796875 189.1781005859375 459.1243896484375 189.2108154296875 459.57373046875 189.211669921875 C 461.28125 189.214599609375 463.0574951171875 188.70660400390625 464.256103515625 187.49166870117188 C 465.26904296875 186.46502685546875 465.77587890625 185.048828125 466.11187744140625 183.64727783203125 C 467.00616455078125 179.89443969726562 466.8792724609375 175.9705810546875 465.7445068359375 172.2833251953125 C 465.44287109375 171.3092041015625 465.0550537109375 170.32913208007812 464.3515625 169.587890625 C 463.1712646484375 168.34274291992188 461.28662109375 167.99502563476562 459.58489990234375 168.22250366210938 C 457.0582275390625 168.5584716796875 454.7508544921875 170.01385498046875 453.1365966796875 171.9871826171875 C 451.522216796875 173.96047973632812 450.563232421875 176.41607666015625 450.14056396484375 178.9300537109375 L 450.1881103515625 178.34912109375" stroke-width="0.6000000238418579" fill="rgb(143, 165, 67)" opacity="1.0"/>
    <path d="M 148.3029022216797 103.24685668945312 C 143.118896484375 107.34255981445312 145.27020263671875 117.10922241210938 151.52423095703125 119.10311889648438 C 157.77825927734375 121.09698486328125 164.989990234375 114.89411926269531 164.433837890625 108.30885314941406 C 163.87765502929688 101.72357177734375 156.43121337890625 96.8377685546875 150.0255584716797 98.48820495605469 L 148.3029022216797 103.24685668945312" stroke-width="0.6000000238418579" fill="rgb(233, 92, 21)" opacity="1.0"/>
    <path d="M 454.73455810546875 151.68312072753906 C 453.1875 154.611572265625 451.6431884765625 158.27011108398438 453.48187255859375 161.03839111328125 C 454.2564697265625 162.11160278320312 455.344970703125 162.91799926757812 456.59722900390625 163.3463134765625 C 459.667236328125 164.489501953125 463.100830078125 164.07379150390625 465.809326171875 162.23095703125 C 468.102783203125 160.661865234375 469.588134765625 158.220947265625 470.9686279296875 155.828857421875 C 471.74200439453125 154.48387145996094 472.52081298828125 153.03025817871094 472.422607421875 151.4904327392578 C 472.27490234375 149.43905639648438 470.610595703125 147.83837890625 468.9310302734375 146.6524200439453 C 466.4752197265625 144.91368103027344 463.75408935546875 143.5839080810547 460.873291015625 142.71469116210938 C 459.87738037109375 142.416259765625 458.8150634765625 142.17074584960938 457.8050537109375 142.4155731201172 C 456.8775634765625 142.69125366210938 456.05029296875 143.2308807373047 455.424072265625 143.96861267089844 C 453.437744140625 146.132568359375 452.5006103515625 149.0589599609375 452.8604736328125 151.9742431640625 L 454.73455810546875 151.68312072753906" stroke-width="0.6000000238418579" fill="rgb(70, 150, 179)" opacity="1.0"/>
    <path d="M 375.07861328125 77.07257080078125 C 375.58221435546875 73.5018310546875 375.9905090332031 69.52279663085938 373.873779296875 66.606201171875 C 371.5980529785156 63.474456787109375 367.078125 62.7557373046875 363.3344421386719 63.74107360839844 C 361.890869140625 64.120361328125 360.45306396484375 64.74609375 359.4748229980469 65.87318420410156 C 358.6703186035156 66.79940795898438 358.23974609375 67.98556518554688 357.8909606933594 69.16146850585938 C 356.7865905761719 72.86842346191406 356.3617858886719 77.06672668457031 358.2320251464844 80.4515380859375 C 360.11932373046875 83.86160278320312 364.33837890625 85.81956481933594 368.1598815917969 85.03652954101562 C 371.9814147949219 84.25347900390625 375.1192932128906 80.82806396484375 375.5338134765625 76.94662475585938 L 375.07861328125 77.07257080078125" stroke-width="0.6000000238418579" fill="rgb(140, 28, 33)" opacity="1.0"/>
    <path d="M 131.03970336914062 413.92742919921875 C 128.2224884033203 416.0870361328125 125.31483459472656 418.3653564453125 123.65827941894531 421.5078125 C 122.00177001953125 424.650146484375 121.96546936035156 428.9539794921875 124.52714538574219 431.4140625 C 127.696044921875 434.4437255859375 133.41180419921875 433.0797119140625 136.00619506835938 429.53570556640625 C 138.6005859375 425.99169921875 138.6840362548828 421.164306640625 137.7264862060547 416.8834228515625 C 137.56283569335938 415.528564453125 136.89727783203125 414.2843017578125 135.861083984375 413.39617919921875 C 134.75489807128906 412.63525390625 132.83575439453125 413.00732421875 132.5740203857422 414.3309326171875 L 131.03970336914062 413.92742919921875" stroke-width="0.6000000238418579" fill="rgb(159, 159, 159)" opacity="1.0"/>
    <path d="M 410.3029479980469 206.91839599609375 C 408.97222900390625 203.75775146484375 406.52960205078125 200.98419189453125 403.3489074707031 199.70697021484375 C 400.168212890625 198.42974853515625 396.2524719238281 198.83352661132812 393.66461181640625 201.10302734375 C 391.83697509765625 202.70989990234375 390.803466796875 205.09786987304688 390.5303649902344 207.5181884765625 C 390.25726318359375 209.93853759765625 390.6886901855469 212.393798828125 391.4266052246094 214.71548461914062 C 391.7483215332031 215.72564697265625 392.1589050292969 216.76193237304688 392.9693298339844 217.44110107421875 C 393.89813232421875 218.22021484375 395.1795959472656 218.3876953125 396.39300537109375 218.46676635742188 C 399.8186950683594 218.68994140625 403.4090881347656 218.39654541015625 406.37762451171875 216.67144775390625 C 409.3461608886719 214.94635009765625 411.50811767578125 211.503173828125 410.9092712402344 208.13104248046875 L 410.3029479980469 206.91839599609375" stroke-width="0.6000000238418579" fill="rgb(159, 159, 159)" opacity="1.0"/>
    <path d="M 383.1544189453125 120.97299194335938 C 379.8472595214844 121.96456909179688 376.214111328125 123.21002197265625 374.5497741699219 126.227294921875 C 372.9270324707031 129.1593475341797 373.6983947753906 132.78579711914062 374.57037353515625 136.02305603027344 C 374.9265441894531 137.33763122558594 375.3200988769531 138.70718383789062 376.25518798828125 139.69638061523438 C 377.8357238769531 141.370361328125 380.4576416015625 141.4715118408203 382.7265930175781 141.10189819335938 C 384.83270263671875 140.7596435546875 386.8787536621094 140.1167449951172 388.8020935058594 139.19287109375 C 391.9256591796875 137.6939239501953 394.9320983886719 135.0017547607422 395.0282287597656 131.53973388671875 C 395.0828552246094 129.6707763671875 394.251708984375 127.85336303710938 393.0780334472656 126.39419555664062 C 391.90435791015625 124.93502807617188 390.39599609375 123.78514099121094 388.8907470703125 122.67118835449219 C 387.385498046875 121.55723571777344 385.882568359375 120.49490356445312 384.0962829589844 120.10658264160156 L 383.1544189453125 120.97299194335938" stroke-width="0.6000000238418579" fill="rgb(218, 166, 20)" opacity="1.0"/>
    <path d="M 402.9848937988281 79.88006591796875 C 399.13995361328125 75.66775512695312 392.6082458496094 75.36991882324219 388.3959045410156 79.21485900878906 C 388.03521728515625 79.54409790039062 387.69830322265625 79.89852905273438 387.38775634765625 80.27545166015625 C 386.2080078125 81.7078857421875 385.4100646972656 83.5504150390625 385.6043395996094 85.39505004882812 C 385.7684020996094 86.95388793945312 386.6087341308594 88.35614013671875 387.55450439453125 89.60479736328125 C 390.0906982421875 92.94367980957031 393.4746398925781 95.54257202148438 397.35479736328125 97.13153076171875 C 398.3811340332031 97.5498046875 399.47186279296875 97.89976501464844 400.5796813964844 97.81985473632812 C 402.4395446777344 97.68678283691406 404.0311279296875 96.34321594238281 405.0133361816406 94.7567138671875 C 406.4732360839844 92.40237426757812 406.8414306640625 89.46047973632812 406.29669189453125 86.74368286132812 C 405.751953125 84.02688598632812 404.3502502441406 81.528076171875 402.52960205078125 79.43960571289062 L 402.9848937988281 79.88006591796875" stroke-width="0.6000000238418579" fill="rgb(143, 165, 67)" opacity="1.0"/>
    <path d="M 117.91860961914062 425.6640625 C 114.76817321777344 419.837158203125 104.75070190429688 420.2762451171875 101.70199584960938 426.1090087890625 C 98.6533203125 431.94171142578125 103.53497314453125 440.135009765625 110.13497924804688 440.7222900390625 C 116.73501586914062 441.3095703125 122.84573364257812 434.7982177734375 122.32124328613281 428.186767578125 L 117.91860961914062 425.6640625" stroke-width="0.6000000238418579" fill="rgb(233, 92, 21)" opacity="1.0"/>
    <path d="M 448.7093505859375 198.27127075195312 C 447.1668701171875 201.20468139648438 445.628662109375 204.86868286132812 447.473876953125 207.63528442382812 C 448.2509765625 208.70770263671875 449.341796875 209.5125732421875 450.5958251953125 209.93875122070312 C 453.6700439453125 211.0767822265625 457.10516357421875 210.65414428710938 459.8118896484375 208.80487060546875 C 462.1038818359375 207.23028564453125 463.58551025390625 204.78482055664062 464.96240234375 202.38845825195312 C 465.733642578125 201.04107666015625 466.51019287109375 199.5849609375 466.408935546875 198.0443115234375 C 466.25714111328125 195.9918212890625 464.588623046875 194.39328002929688 462.9056396484375 193.20977783203125 C 460.44482421875 191.474609375 457.71929931640625 190.149169921875 454.83489990234375 189.284912109375 C 453.83770751953125 188.98822021484375 452.7742919921875 188.74459838867188 451.76397705078125 188.99154663085938 C 450.83636474609375 189.26922607421875 450.00958251953125 189.810791015625 449.3843994140625 190.55023193359375 C 447.40087890625 192.719482421875 446.46881103515625 195.649658203125 446.8345947265625 198.56622314453125 L 448.7093505859375 198.27127075195312" stroke-width="0.6000000238418579" fill="rgb(70, 150, 179)" opacity="1.0"/>
    <path d="M 414.00048828125 136.08267211914062 C 413.69281005859375 132.51795959472656 413.2021484375 128.5796661376953 410.50634765625 126.23056030273438 C 407.60894775390625 123.70883178710938 403.07855224609375 124.01974487304688 399.6779479980469 125.80560302734375 C 398.3665466308594 126.49359130859375 397.11553955078125 127.4185791015625 396.42047119140625 128.72610473632812 C 395.84869384765625 129.8007354736328 395.6963195800781 131.04345703125 395.6207580566406 132.25811767578125 C 395.37786865234375 136.08822631835938 395.9013671875 140.24221801757812 398.4630126953125 143.098876953125 C 401.0467529296875 145.97616577148438 405.5619812011719 146.93048095703125 409.0828552246094 145.32290649414062 C 412.603759765625 143.71534729003906 414.87554931640625 139.70489501953125 414.41259765625 135.85960388183594 L 414.00048828125 136.08267211914062" stroke-width="0.6000000238418579" fill="rgb(140, 28, 33)" opacity="1.0"/>
    <path d="M 399.5594177246094 70.59367370605469 C 400.45306396484375 73.9830322265625 401.4203186035156 77.49998474121094 403.65155029296875 80.20658874511719 C 405.88275146484375 82.91314697265625 409.78936767578125 84.58638000488281 413.00665283203125 83.1904296875 C 416.97418212890625 81.45840454101562 417.909912109375 75.73185729980469 415.6702880859375 72.01789855957031 C 413.4306640625 68.30393981933594 409.06500244140625 66.38816833496094 404.80047607421875 65.62896728515625 C 403.50390625 65.26170349121094 402.1168212890625 65.393798828125 400.9129333496094 65.99923706054688 C 399.7982482910156 66.7169189453125 399.40570068359375 68.60690307617188 400.51171875 69.34979248046875 L 399.5594177246094 70.59367370605469" stroke-width="0.6000000238418579" fill="rgb(159, 159, 159)" opacity="1.0"/>
    <path d="M 441.5089111328125 235.84149169921875 C 439.59014892578125 238.75277709960938 438.6270751953125 242.3848876953125 439.345703125 245.79489135742188 C 440.0643310546875 249.20489501953125 442.619140625 252.2857666015625 446.0 253.1898193359375 C 448.39111328125 253.82598876953125 450.993408203125 253.3494873046875 453.1932373046875 252.21206665039062 C 455.39300537109375 251.07464599609375 457.22406005859375 249.32208251953125 458.7689208984375 247.38604736328125 C 459.44073486328125 246.54315185546875 460.08441162109375 245.6103515625 460.20025634765625 244.54150390625 C 460.3336181640625 243.316162109375 459.750732421875 242.1385498046875 459.131591796875 241.06842041015625 C 457.3836669921875 238.0472412109375 455.1060791015625 235.1788330078125 451.97015380859375 233.64535522460938 C 448.8341064453125 232.11187744140625 444.70220947265625 232.23123168945312 442.19097900390625 234.6435546875 L 441.5089111328125 235.84149169921875" stroke-width="0.6000000238418579" fill="rgb(159, 159, 159)" opacity="1.0"/>
    <path d="M 407.9765930175781 262.2435302734375 C 406.1559143066406 259.2085266113281 404.0006408691406 255.913818359375 400.5825500488281 255.022705078125 C 397.25970458984375 254.15142822265625 393.85186767578125 255.833984375 390.8560791015625 257.5182189941406 C 389.6401062011719 258.2041931152344 388.3789367675781 258.94122314453125 387.6324462890625 260.1201171875 C 386.3687744140625 262.1132507324219 386.9307556152344 264.74359130859375 387.8712158203125 266.904296875 C 388.7433776855469 268.91015625 389.8990478515625 270.7803955078125 391.30279541015625 272.457763671875 C 393.5811767578125 275.1821594238281 397.0153503417969 277.4887390136719 400.4790344238281 276.7095031738281 C 402.34954833984375 276.29156494140625 403.945068359375 275.00665283203125 405.09814453125 273.47198486328125 C 406.2512512207031 271.9372863769531 407.01251220703125 270.1482849121094 407.7388610839844 268.3714294433594 C 408.4652099609375 266.59454345703125 409.1408386230469 264.8330383300781 409.0752868652344 262.9603271484375 L 407.9765930175781 262.2435302734375" stroke-width="0.6000000238418579" fill="rgb(218, 166, 20)" opacity="1.0"/>
    <path d="M 416.183837890625 87.08486938476562 C 414.16033935546875 92.38079833984375 416.81317138671875 98.3143310546875 422.109130859375 100.33781433105469 C 422.5626220703125 100.51107788085938 423.02783203125 100.65196228027344 423.501220703125 100.7593994140625 C 425.30023193359375 101.16729736328125 427.29296875 101.052978515625 428.84423828125 100.05654907226562 C 430.15533447265625 99.21463012695312 431.0252685546875 97.84205627441406 431.7117919921875 96.4444580078125 C 433.5440673828125 92.70089721679688 434.3406982421875 88.53500366210938 434.0186767578125 84.37950134277344 C 433.9317626953125 83.28121948242188 433.75537109375 82.15628051757812 433.1895751953125 81.20819091796875 C 432.24072265625 79.615966796875 430.336669921875 78.80264282226562 428.4891357421875 78.63897705078125 C 425.74627685546875 78.39404296875 422.96923828125 79.38104248046875 420.7999267578125 81.0782470703125 C 418.6304931640625 82.77542114257812 417.0374755859375 85.13630676269531 415.9959716796875 87.6859130859375 L 416.183837890625 87.08486938476562" stroke-width="0.6000000238418579" fill="rgb(143, 165, 67)" opacity="1.0"/>
    <path d="M 442.444580078125 129.37005615234375 C 439.71405029296875 135.48728942871094 446.2398681640625 143.24887084960938 452.795654296875 142.09866333007812 C 459.351318359375 140.94842529296875 462.912353515625 131.9846649169922 459.315673828125 126.33071899414062 C 455.7188720703125 120.6767578125 446.73193359375 119.78999328613281 441.7540283203125 124.28520202636719 L 442.444580078125 129.37005615234375" stroke-width="0.6000000238418579" fill="rgb(233, 92, 21)" opacity="1.0"/>
    <path d="M 446.528564453125 92.76248168945312 C 445.80181884765625 95.99859619140625 445.269287109375 99.93960571289062 447.7725830078125 102.13259887695312 C 448.802734375 102.966552734375 450.0662841796875 103.46031188964844 451.38897705078125 103.54568481445312 C 454.6558837890625 103.84503173828125 457.865234375 102.54232788085938 459.99932861328125 100.05070495605469 C 461.80419921875 97.93247985839844 462.5992431640625 95.18370056152344 463.30584716796875 92.5096435546875 C 463.7003173828125 91.00686645507812 464.0716552734375 89.39767456054688 463.57269287109375 87.93527221679688 C 462.89166259765625 85.99148559570312 460.86322021484375 84.88119506835938 458.9288330078125 84.17568969726562 C 456.09918212890625 83.1396484375 453.1204833984375 82.56845092773438 450.1082763671875 82.48423767089844 C 449.06744384765625 82.4571533203125 447.97637939453125 82.49858093261719 447.064453125 83.00021362304688 C 446.2403564453125 83.510009765625 445.58245849609375 84.24859619140625 445.1708984375 85.12586975097656 C 443.8189697265625 87.7384033203125 443.68109130859375 90.8125 444.7938232421875 93.53555297851562 L 446.528564453125 92.76248168945312" stroke-width="0.6000000238418579" fill="rgb(70, 150, 179)" opacity="1.0"/>
    <path d="M 320.8209533691406 372.0498962402344 C 317.1719665527344 372.4992370605469 313.1462097167969 373.1505432128906 310.8348693847656 376.00665283203125 C 308.35382080078125 379.0762634277344 308.8426208496094 383.7167663574219 310.8037414550781 387.14190673828125 C 311.559326171875 388.46282958984375 312.55596923828125 389.71282958984375 313.9246520996094 390.37762451171875 C 315.049560546875 390.924560546875 316.3313903808594 391.0345153808594 317.5815124511719 391.066650390625 C 321.52362060546875 391.1727294921875 325.7696533203125 390.4797058105469 328.6072082519531 387.7423095703125 C 331.4651184082031 384.9814453125 332.2760925292969 380.3091735839844 330.4935302734375 376.75384521484375 C 328.71099853515625 373.1985168457031 324.5077819824219 371.0157470703125 320.5764465332031 371.63507080078125 L 320.8209533691406 372.0498962402344" stroke-width="0.6000000238418579" fill="rgb(140, 28, 33)" opacity="1.0"/>
    <path d="M 307.7395935058594 397.5831298828125 C 304.0592956542969 398.6217346191406 300.24114990234375 399.7430419921875 297.3307800292969 402.22784423828125 C 294.4204406738281 404.7126159667969 292.6688232421875 409.0054626464844 294.2521057128906 412.4886474609375 C 296.2160949707031 416.7838134765625 302.48028564453125 417.69677734375 306.4893493652344 415.183837890625 C 310.4983825683594 412.6708984375 312.5059509277344 407.87274169921875 313.2537841796875 403.2066650390625 C 313.6300048828125 401.7854309082031 313.4598083496094 400.2748718261719 312.7767333984375 398.9730529785156 C 311.9728698730469 397.7706604003906 309.90386962890625 397.3780517578125 309.1143798828125 398.5984802246094 L 307.7395935058594 397.5831298828125" stroke-width="0.6000000238418579" fill="rgb(159, 159, 159)" opacity="1.0"/>
    <path d="M 320.1796875 415.15948486328125 C 316.1454162597656 416.22222900390625 312.3873596191406 418.6903076171875 310.305419921875 422.3031005859375 C 308.2235107421875 425.9158935546875 308.0407409667969 430.7012939453125 310.3320617675781 434.2061767578125 C 311.9552001953125 436.6820068359375 314.6548156738281 438.3349609375 317.52337646484375 439.0775146484375 C 320.3919372558594 439.82000732421875 323.4229736328125 439.719970703125 326.3454284667969 439.2279052734375 C 327.6170959472656 439.01300048828125 328.9354553222656 438.695556640625 329.8919982910156 437.83544921875 C 330.9891357421875 436.84991455078125 331.40985107421875 435.33502197265625 331.7124328613281 433.88702392578125 C 332.56658935546875 429.79901123046875 332.8267822265625 425.42431640625 331.2562255859375 421.5540771484375 C 329.6856384277344 417.6837158203125 325.90789794921875 414.4913330078125 321.7439270019531 414.6363525390625 L 320.1796875 415.15948486328125" stroke-width="0.6000000238418579" fill="rgb(159, 159, 159)" opacity="1.0"/>
    <path d="M 268.4718933105469 416.408935546875 C 264.987060546875 418.622314453125 261.2093811035156 421.2335205078125 260.2720031738281 425.2457275390625 C 259.3548889160156 429.146240234375 261.41827392578125 433.0699462890625 263.4713134765625 436.5130615234375 C 264.3074035644531 437.91064453125 265.204345703125 439.3592529296875 266.6011962890625 440.194580078125 C 268.96295166015625 441.60888671875 272.0133361816406 440.875244140625 274.5048828125 439.71435546875 C 276.8179016113281 438.6376953125 278.96429443359375 437.2344970703125 280.8784484863281 435.54766845703125 C 283.9874572753906 432.80987548828125 286.57489013671875 428.73681640625 285.5632019042969 424.72113037109375 C 285.02020263671875 422.5523681640625 283.4744567871094 420.73016357421875 281.6506042480469 419.4312744140625 C 279.8267517089844 418.13232421875 277.718017578125 417.29791259765625 275.62445068359375 416.5037841796875 C 273.5309143066406 415.709716796875 271.456787109375 414.97430419921875 269.2750549316406 415.1064453125 L 268.4718933105469 416.408935546875" stroke-width="0.6000000238418579" fill="rgb(218, 166, 20)" opacity="1.0"/>
    <path d="M 223.86404418945312 414.372314453125 C 217.27197265625 412.5223388671875 210.42828369140625 416.3665771484375 208.5782470703125 422.9586181640625 C 208.41986083984375 423.52313232421875 208.30169677734375 424.09814453125 208.22463989257812 424.6793212890625 C 207.93231201171875 426.88787841796875 208.28933715820312 429.27178955078125 209.65863037109375 431.0277099609375 C 210.81561279296875 432.51171875 212.56219482421875 433.40673828125 214.31866455078125 434.07830810546875 C 219.02273559570312 435.8695068359375 224.12060546875 436.368408203125 229.082763671875 435.52337646484375 C 230.39401245117188 435.29779052734375 231.72747802734375 434.96173095703125 232.80535888671875 434.1768798828125 C 234.61572265625 432.8602294921875 235.38406372070312 430.48077392578125 235.3773193359375 428.24072265625 C 235.36968994140625 424.9150390625 233.876708984375 421.68402099609375 231.59652709960938 419.2620849609375 C 229.31637573242188 416.840087890625 226.30154418945312 415.184326171875 223.1204833984375 414.21270751953125 L 223.86404418945312 414.372314453125" stroke-width="0.6000000238418579" fill="rgb(143, 165, 67)" opacity="1.0"/>
    <path d="M 288.4318542480469 362.6815490722656 C 290.40130615234375 370.3284912109375 302.11669921875 372.7005920410156 307.3206787109375 366.8292236328125 C 312.524658203125 360.9578857421875 309.23272705078125 350.0755615234375 301.76605224609375 347.49859619140625 C 294.29937744140625 344.921630859375 285.35784912109375 350.69769287109375 284.06378173828125 358.49725341796875 L 288.4318542480469 362.6815490722656" stroke-width="0.6000000238418579" fill="rgb(233, 92, 21)" opacity="1.0"/>
    <path d="M 332.4409484863281 359.32196044921875 C 332.9814147949219 363.23809814453125 334.03314208984375 367.85992431640625 337.7436828613281 369.2623596191406 C 339.2420349121094 369.76300048828125 340.85882568359375 369.7863464355469 342.3710021972656 369.32916259765625 C 346.1429748535156 368.2986755371094 349.18145751953125 365.50384521484375 350.5229797363281 361.8309631347656 C 351.6529541015625 358.7124328613281 351.3922424316406 355.31182861328125 351.0640563964844 352.03155517578125 C 350.876708984375 350.189208984375 350.6189880371094 348.23773193359375 349.4511413574219 346.81365966796875 C 347.87896728515625 344.92822265625 345.1507873535156 344.5361022949219 342.69671630859375 344.55657958984375 C 339.1051330566406 344.58203125 335.5413513183594 345.1886291503906 332.1435852050781 346.3528747558594 C 330.97039794921875 346.7574157714844 329.7697448730469 347.2594299316406 328.9612731933594 348.2003479003906 C 328.2543029785156 349.1136474609375 327.828369140625 350.2129821777344 327.7353820800781 351.36419677734375 C 327.31744384765625 354.8453674316406 328.44769287109375 358.3346252441406 330.8273010253906 360.90960693359375 L 332.4409484863281 359.32196044921875" stroke-width="0.6000000238418579" fill="rgb(70, 150, 179)" opacity="1.0"/>
    <path d="M 298.8995361328125 419.099853515625 C 294.7453918457031 419.98126220703125 290.1778869628906 421.1326904296875 287.8033447265625 424.650146484375 C 285.2548522949219 428.43017578125 286.2807312011719 433.7213134765625 288.87945556640625 437.4669189453125 C 289.88079833984375 438.9114990234375 291.15252685546875 440.2503662109375 292.7938537597656 440.87872314453125 C 294.1429443359375 441.395751953125 295.62896728515625 441.394287109375 297.0707092285156 441.30645751953125 C 301.6176452636719 441.034912109375 306.4344482421875 439.8133544921875 309.4263610839844 436.38006591796875 C 312.4393615722656 432.91766357421875 312.9060363769531 427.46014404296875 310.4997863769531 423.54693603515625 C 308.0935363769531 419.6336669921875 303.0387878417969 417.5416259765625 298.5767517089844 418.6468505859375 L 298.8995361328125 419.099853515625" stroke-width="0.6000000238418579" fill="rgb(140, 28, 33)" opacity="1.0"/>
    <path d="M 333.4393310546875 389.23236083984375 C 329.63470458984375 389.50494384765625 325.67877197265625 389.83050537109375 322.334716796875 391.6710510253906 C 318.9906921386719 393.5115966796875 316.4140319824219 397.35205078125 317.2584228515625 401.0738830566406 C 318.31103515625 405.6658020019531 324.2463073730469 407.8205871582031 328.6693420410156 406.174072265625 C 333.09234619140625 404.52752685546875 336.0209045410156 400.2450866699219 337.6922302246094 395.837646484375 C 338.3462829589844 394.525146484375 338.4845886230469 393.01519775390625 338.07977294921875 391.6057434082031 C 337.53692626953125 390.2690734863281 335.59490966796875 389.4683837890625 334.5776062011719 390.5014343261719 L 333.4393310546875 389.23236083984375" stroke-width="0.6000000238418579" fill="rgb(159, 159, 159)" opacity="1.0"/>
    <path d="M 347.8825988769531 412.276123046875 C 343.6875915527344 412.63250732421875 339.5233154296875 414.4339599609375 336.82666015625 417.6641845703125 C 334.1300048828125 420.89447021484375 333.11785888671875 425.6199951171875 334.7874755859375 429.50189208984375 C 335.97137451171875 432.24493408203125 338.3683166503906 434.35662841796875 341.09112548828125 435.59259033203125 C 343.81396484375 436.82861328125 346.8445739746094 437.255126953125 349.83526611328125 437.2730712890625 C 351.1367492675781 437.2801513671875 352.50244140625 437.193359375 353.6026306152344 436.50433349609375 C 354.8643493652344 435.7149658203125 355.5455017089844 434.281982421875 356.0975646972656 432.89501953125 C 357.6561584472656 428.979248046875 358.67401123046875 424.67547607421875 357.7843322753906 420.5552978515625 C 356.8946533203125 416.4351806640625 353.693115234375 412.60595703125 349.5284423828125 412.027587890625 L 347.8825988769531 412.276123046875" stroke-width="0.6000000238418579" fill="rgb(159, 159, 159)" opacity="1.0"/>
    <path d="M 255.34625244140625 367.54803466796875 C 256.4049377441406 363.58514404296875 257.4100646972656 359.13433837890625 255.39596557617188 355.5702209472656 C 253.442138671875 352.101318359375 249.29360961914062 350.6208801269531 245.47598266601562 349.48480224609375 C 243.9244384765625 349.02557373046875 242.29397583007812 348.56988525390625 240.71063232421875 348.89898681640625 C 238.03240966796875 349.4539794921875 236.29571533203125 352.04266357421875 235.25515747070312 354.56781005859375 C 234.2884521484375 356.9112243652344 233.66323852539062 359.38128662109375 233.398681640625 361.9024353027344 C 232.96759033203125 365.9958801269531 233.81625366210938 370.7146911621094 237.25772094726562 372.9700012207031 C 239.1138916015625 374.1902770996094 241.47003173828125 374.4825744628906 243.67742919921875 374.20513916015625 C 245.88482666015625 373.92767333984375 247.988037109375 373.1189880371094 250.05294799804688 372.2909851074219 C 252.11788940429688 371.4630126953125 254.129150390625 370.605224609375 255.6353759765625 369.0406799316406 L 255.34625244140625 367.54803466796875" stroke-width="0.6000000238418579" fill="rgb(218, 166, 20)" opacity="1.0"/>
    <path d="M 253.1513671875 389.15826416015625 C 250.22311401367188 383.0191345214844 242.87252807617188 380.4162292480469 236.7333984375 383.3445129394531 C 236.20770263671875 383.5952453613281 235.700439453125 383.8829650878906 235.2154541015625 384.20550537109375 C 233.37289428710938 385.431396484375 231.82388305664062 387.2575988769531 231.406494140625 389.429931640625 C 231.05361938476562 391.2656555175781 231.5267333984375 393.1570129394531 232.17340087890625 394.9096374511719 C 233.91079711914062 399.5985412597656 236.87200927734375 403.73675537109375 240.7493896484375 406.8943786621094 C 241.77569580078125 407.7273254394531 242.899169921875 408.50457763671875 244.1910400390625 408.7972106933594 C 246.35955810546875 409.28973388671875 248.64129638671875 408.30792236328125 250.31185913085938 406.8377990722656 C 252.7935791015625 404.6568908691406 254.2330322265625 401.4272766113281 254.55267333984375 398.1382141113281 C 254.872314453125 394.84918212890625 254.13848876953125 391.511962890625 252.784423828125 388.4978942871094 L 253.1513671875 389.15826416015625" stroke-width="0.6000000238418579" fill="rgb(143, 165, 67)" opacity="1.0"/>
    <path d="M 202.852294921875 370.1659240722656 C 200.62423706054688 377.7945861816406 209.54049682617188 385.870849609375 217.0618896484375 383.4669189453125 C 224.583251953125 381.0629577636719 227.33074951171875 369.955078125 222.19577026367188 363.88623046875 C 217.060791015625 357.8173828125 206.354736328125 358.2170715332031 201.22467041015625 364.2997131347656 L 202.852294921875 370.1659240722656" stroke-width="0.6000000238418579" fill="rgb(233, 92, 21)" opacity="1.0"/>
    <path d="M 265.00341796875 367.6972351074219 C 265.1705017089844 371.6750793457031 265.7826232910156 376.40936279296875 269.368408203125 378.17047119140625 C 270.8226623535156 378.8157653808594 272.44134521484375 378.993896484375 274.00115966796875 378.6802673339844 C 277.88134765625 378.00811767578125 281.195068359375 375.4969177246094 282.8914794921875 371.94305419921875 C 284.3227844238281 368.9247131347656 284.3868408203125 365.490478515625 284.3717346191406 362.17041015625 C 284.3602294921875 360.305419921875 284.2886047363281 358.3243408203125 283.2540588378906 356.78485107421875 C 281.8582763671875 354.744140625 279.1606750488281 354.0899658203125 276.6983642578125 353.8756103515625 C 273.0951843261719 353.55743408203125 269.4642639160156 353.8245544433594 265.9464111328125 354.6665954589844 C 264.73150634765625 354.95989990234375 263.479736328125 355.3482666015625 262.57916259765625 356.2142333984375 C 261.7829895019531 357.0622253417969 261.2507629394531 358.12359619140625 261.04736328125 359.26885986328125 C 260.2952575683594 362.7189025878906 261.0944519042969 366.3252258300781 263.23370361328125 369.134521484375 L 265.00341796875 367.6972351074219" stroke-width="0.6000000238418579" fill="rgb(70, 150, 179)" opacity="1.0"/>
    <path d="M 326.4237060546875 363.6086120605469 C 327.7304382324219 359.62548828125 329.0116271972656 355.1556396484375 327.1860046386719 351.3850402832031 C 325.2224426269531 347.33575439453125 320.1971130371094 345.58868408203125 315.71148681640625 345.9504089355469 C 313.9819641113281 346.0891418457031 312.2086486816406 346.51104736328125 310.858642578125 347.6007385253906 C 309.74853515625 348.49609375 309.01318359375 349.7653503417969 308.3735046386719 351.0396728515625 C 306.3514404296875 355.0557556152344 305.0064697265625 359.77313232421875 306.45428466796875 364.02911376953125 C 307.9164123535156 368.31744384765625 312.3439025878906 371.42108154296875 316.877197265625 371.3067626953125 C 321.4104919433594 371.19244384765625 325.7020263671875 367.91448974609375 326.9703674316406 363.5576171875 L 326.4237060546875 363.6086120605469" stroke-width="0.6000000238418579" fill="rgb(140, 28, 33)" opacity="1.0"/>
    <path d="M 351.6441955566406 395.5050964355469 C 347.8334045410156 395.84130859375 343.8717956542969 396.2331848144531 340.54876708984375 398.1341857910156 C 337.22576904296875 400.03515625 334.70538330078125 403.928955078125 335.6136474609375 407.6472473144531 C 336.7451171875 412.234619140625 342.7326354980469 414.29736328125 347.1408386230469 412.5731201171875 C 351.5490417480469 410.848876953125 354.4150085449219 406.5060119628906 356.0181884765625 402.0586242675781 C 356.65240478515625 400.7315979003906 356.76611328125 399.21514892578125 356.3368835449219 397.80841064453125 C 355.7704162597656 396.47698974609375 353.8097229003906 395.7061767578125 352.806640625 396.7589111328125 L 351.6441955566406 395.5050964355469" stroke-width="0.6000000238418579" fill="rgb(159, 159, 159)" opacity="1.0"/>
    <path d="M 185.81939697265625 410.28985595703125 C 181.69464111328125 410.80755615234375 177.65740966796875 412.749755859375 175.124755859375 416.0435791015625 C 172.59210205078125 419.33740234375 171.78057861328125 424.039794921875 173.58157348632812 427.8035888671875 C 174.85824584960938 430.4630126953125 177.30670166015625 432.4515380859375 180.04202270507812 433.5631103515625 C 182.77734375 434.6748046875 185.7843017578125 434.9755859375 188.73565673828125 434.87493896484375 C 190.02001953125 434.83038330078125 191.36398315429688 434.690673828125 192.42218017578125 433.96728515625 C 193.6357421875 433.1385498046875 194.25103759765625 431.69775390625 194.74078369140625 430.3074951171875 C 196.12347412109375 426.3824462890625 196.957275390625 422.095947265625 195.9163818359375 418.066162109375 C 194.87548828125 414.03643798828125 191.565185546875 410.38525390625 187.433349609375 409.9794616699219 L 185.81939697265625 410.28985595703125" stroke-width="0.6000000238418579" fill="rgb(159, 159, 159)" opacity="1.0"/>
    <path d="M 358.45574951171875 372.4713134765625 C 354.5458984375 373.5994873046875 350.2488098144531 375.02288818359375 348.2503356933594 378.55859375 C 346.3019714355469 381.99432373046875 347.16668701171875 386.27777099609375 348.15478515625 390.103759765625 C 348.5584411621094 391.65740966796875 349.0055236816406 393.2763671875 350.0954895019531 394.45361328125 C 351.937744140625 396.44586181640625 355.026611328125 396.5971374511719 357.70526123046875 396.18927001953125 C 360.1916198730469 395.8116760253906 362.6108703613281 395.0790100097656 364.88897705078125 394.01373291015625 C 368.588623046875 392.2853088378906 372.16485595703125 389.1492004394531 372.3205261230469 385.0701599121094 C 372.40777587890625 382.8681640625 371.450439453125 380.716064453125 370.08502197265625 378.9819641113281 C 368.7196350097656 377.2478942871094 366.9560241699219 375.87420654296875 365.1955871582031 374.5429382324219 C 363.4352111816406 373.2116394042969 361.6768798828125 371.9412536621094 359.576416015625 371.46173095703125 L 358.45574951171875 372.4713134765625" stroke-width="0.6000000238418579" fill="rgb(218, 166, 20)" opacity="1.0"/>
    <path d="M 374.49224853515625 382.80755615234375 C 370.3450622558594 388.1581726074219 371.3206481933594 395.8576354980469 376.6712646484375 400.00482177734375 C 377.1294250488281 400.3599548339844 377.6122131347656 400.6820983886719 378.1159973144531 400.9689025878906 C 380.0303955078125 402.058349609375 382.3470764160156 402.6181335449219 384.4650573730469 402.01702880859375 C 386.25494384765625 401.5091857910156 387.724609375 400.2421875 388.9932556152344 398.8829650878906 C 392.3841857910156 395.24005126953125 394.7378234863281 390.755615234375 395.8096923828125 385.8955383300781 C 396.0908508300781 384.61041259765625 396.2790832519531 383.2638244628906 395.9610900878906 381.9844055175781 C 395.428466796875 379.836181640625 393.5345153808594 378.2471008300781 391.47998046875 377.4198913574219 C 388.4305419921875 376.1896667480469 384.9152526855469 376.3553161621094 381.8482666015625 377.5430908203125 C 378.7812805175781 378.7308654785156 376.1429138183594 380.876708984375 374.06939697265625 383.4293212890625 L 374.49224853515625 382.80755615234375" stroke-width="0.6000000238418579" fill="rgb(143, 165, 67)" opacity="1.0"/>
    <path d="M 367.3394775390625 360.24932861328125 C 371.0550537109375 367.39813232421875 383.2461853027344 367.0631103515625 387.0696105957031 360.0303649902344 C 390.89300537109375 352.99761962890625 385.1191101074219 342.9366455078125 377.1043701171875 342.0913391113281 C 369.08966064453125 341.2460632324219 361.5289611816406 349.0432434082031 362.0354919433594 357.0939636230469 L 367.3394775390625 360.24932861328125" stroke-width="0.6000000238418579" fill="rgb(233, 92, 21)" opacity="1.0"/>
    <path d="M 398.1023864746094 363.1159973144531 C 398.3680114746094 367.0525817871094 399.09356689453125 371.72735595703125 402.6902770996094 373.3818054199219 C 404.1472473144531 373.9844970703125 405.7553405761719 374.1202697753906 407.2926940917969 373.7702941894531 C 411.1198425292969 373.0067443847656 414.3394775390625 370.435546875 415.9306640625 366.8721008300781 C 417.272705078125 363.8458251953125 417.249755859375 360.4419860839844 417.15118408203125 357.15325927734375 C 417.0928955078125 355.305908203125 416.9720458984375 353.3450622558594 415.90838623046875 351.8459777832031 C 414.4742431640625 349.8594055175781 411.78533935546875 349.2791748046875 409.340576171875 349.1288146972656 C 405.762939453125 348.9042663574219 402.17254638671875 349.2602844238281 398.70867919921875 350.1830139160156 C 397.512451171875 350.504150390625 396.2821350097656 350.92041015625 395.4117431640625 351.80096435546875 C 394.6443176269531 352.6611022949219 394.1437683105469 353.7259521484375 393.9710693359375 354.8656921386719 C 393.31280517578125 358.3025207519531 394.1953125 361.8551330566406 396.3853454589844 364.58441162109375 L 398.1023864746094 363.1159973144531" stroke-width="0.6000000238418579" fill="rgb(70, 150, 179)" opacity="1.0"/>
    <path d="M 388.0274353027344 415.5963134765625 C 386.2314758300781 419.54443359375 384.40655517578125 423.99609375 385.8561706542969 428.08111572265625 C 387.416015625 432.46844482421875 392.3860168457031 434.8355712890625 397.040283203125 434.97265625 C 398.83477783203125 435.0262451171875 400.7064208984375 434.7935791015625 402.218505859375 433.82611083984375 C 403.4617919921875 433.03125 404.36212158203125 431.809326171875 405.1646423339844 430.5714111328125 C 407.70001220703125 426.6705322265625 409.6186218261719 421.97161865234375 408.6126403808594 417.4302978515625 C 407.5956115722656 412.85400390625 403.3944091796875 409.1595764160156 398.71917724609375 408.7626647949219 C 394.0439453125 408.36572265625 389.2583312988281 411.2498779296875 387.4594421386719 415.5867919921875 L 388.0274353027344 415.5963134765625" stroke-width="0.6000000238418579" fill="rgb(140, 28, 33)" opacity="1.0"/>
    <path d="M 410.0077209472656 390.3836669921875 C 409.3573913574219 394.1303405761719 408.7220153808594 398.0361328125 409.6994323730469 401.7138977050781 C 410.6768798828125 405.3916015625 413.773681640625 408.8073425292969 417.57763671875 408.8844909667969 C 422.2734375 408.96923828125 425.78424072265625 403.74420166015625 425.2537841796875 399.0691223144531 C 424.7232666015625 394.3940124511719 421.2833251953125 390.5316467285156 417.42047119140625 387.85565185546875 C 416.30767822265625 386.907470703125 414.8798828125 386.4109191894531 413.4189453125 386.4639892578125 C 411.9952392578125 386.6680603027344 410.75396728515625 388.354736328125 411.5090637207031 389.58721923828125 L 410.0077209472656 390.3836669921875" stroke-width="0.6000000238418579" fill="rgb(159, 159, 159)" opacity="1.0"/>
    <path d="M 435.7579345703125 368.7246398925781 C 436.52490234375 372.8132629394531 438.70947265625 376.7281494140625 442.1529541015625 379.0583190917969 C 445.596435546875 381.38848876953125 450.342529296875 381.91412353515625 453.99285888671875 379.88720703125 C 456.5718994140625 378.45086669921875 458.4097900390625 375.8847351074219 459.3543701171875 373.0852355957031 C 460.29901123046875 370.28570556640625 460.417236328125 367.2640075683594 460.137939453125 364.3221435546875 C 460.015625 363.0419921875 459.79461669921875 361.7080078125 459.0079345703125 360.69488525390625 C 458.10662841796875 359.5329284667969 456.6302490234375 359.0056457519531 455.2119140625 358.6006774902344 C 451.2076416015625 357.4573974609375 446.87554931640625 356.88427734375 442.91351318359375 358.1681213378906 C 438.95147705078125 359.4519958496094 435.50506591796875 362.9797058105469 435.35009765625 367.13134765625 L 435.7579345703125 368.7246398925781" stroke-width="0.6000000238418579" fill="rgb(159, 159, 159)" opacity="1.0"/>
    <path d="M 423.37200927734375 409.5576171875 C 419.569091796875 411.1960754394531 415.4129638671875 413.1820068359375 413.84722900390625 417.0067138671875 C 412.3193359375 420.72412109375 413.739501953125 424.93780517578125 415.225830078125 428.6739501953125 C 415.8319091796875 430.1907958984375 416.49005126953125 431.76806640625 417.74078369140625 432.8172607421875 C 419.8551025390625 434.59307861328125 422.99267578125 434.35113525390625 425.64471435546875 433.59716796875 C 428.10650634765625 432.8983154296875 430.4552001953125 431.849609375 432.618896484375 430.4830322265625 C 436.13287353515625 428.2655029296875 439.3424072265625 424.6427001953125 438.9783935546875 420.5048828125 C 438.78515625 418.27081298828125 437.54376220703125 416.2205810546875 435.94378662109375 414.6444091796875 C 434.3438720703125 413.0682373046875 432.387939453125 411.9068603515625 430.440673828125 410.787841796875 C 428.493408203125 409.6687927246094 426.55609130859375 408.6109619140625 424.37432861328125 408.3952331542969 L 423.37200927734375 409.5576171875" stroke-width="0.6000000238418579" fill="rgb(218, 166, 20)" opacity="1.0"/>
    <path d="M 141.7954864501953 225.81320190429688 C 137.8612518310547 231.46792602539062 139.2559814453125 239.2413330078125 144.91070556640625 243.175537109375 C 145.39491271972656 243.512451171875 145.9024200439453 243.81454467773438 146.4293975830078 244.07962036132812 C 148.4319610595703 245.08645629882812 150.81558227539062 245.53399658203125 152.9364471435547 244.81216430664062 C 154.72879028320312 244.20233154296875 156.15594482421875 242.8377685546875 157.3740234375 241.39004516601562 C 160.629150390625 237.51031494140625 162.78610229492188 232.82980346679688 163.62081909179688 227.83465576171875 C 163.8392333984375 226.51394653320312 163.9599609375 225.1356201171875 163.56979370117188 223.85211181640625 C 162.916015625 221.6968994140625 160.9080810546875 220.18121337890625 158.77682495117188 219.44821166992188 C 155.6134490966797 218.35775756835938 152.04974365234375 218.71023559570312 148.99517822265625 220.07794189453125 C 145.94061279296875 221.44564819335938 143.37181091308594 223.7645263671875 141.39833068847656 226.46722412109375 L 141.7954864501953 225.81320190429688" stroke-width="0.6000000238418579" fill="rgb(143, 165, 67)" opacity="1.0"/>
    <path d="M 170.18075561523438 262.0938720703125 C 172.830810546875 269.6796875 184.91281127929688 271.0845031738281 189.688232421875 264.6865539550781 C 194.46368408203125 258.28857421875 190.19635009765625 247.5350341796875 182.405029296875 245.55963134765625 C 174.61376953125 243.584228515625 166.040283203125 250.20474243164062 165.39419555664062 258.2240295410156 L 170.18075561523438 262.0938720703125" stroke-width="0.6000000238418579" fill="rgb(233, 92, 21)" opacity="1.0"/>
    <path d="M 151.38809204101562 316.5489196777344 C 148.8670196533203 319.625732421875 146.1746368408203 323.5625305175781 147.6767578125 327.2604064941406 C 148.33180236816406 328.708740234375 149.42013549804688 329.9181213378906 150.79164123535156 330.7217102050781 C 154.13160705566406 332.80126953125 158.2723388671875 333.13299560546875 161.9007568359375 331.61163330078125 C 164.975341796875 330.313232421875 167.30718994140625 327.7954406738281 169.50408935546875 325.31011962890625 C 170.73590087890625 323.9120178222656 172.0001220703125 322.3873596191406 172.252685546875 320.551513671875 C 172.5693359375 318.10174560546875 170.99322509765625 315.8198547363281 169.29998779296875 314.02239990234375 C 166.82525634765625 311.3887023925781 163.9405517578125 309.1729431152344 160.75775146484375 307.4610595703125 C 159.65689086914062 306.8716735839844 158.46533203125 306.3287048339844 157.21795654296875 306.3753662109375 C 156.06036376953125 306.4780578613281 154.95765686035156 306.9153747558594 154.04429626464844 307.63397216796875 C 151.18894958496094 309.7059326171875 149.38626098632812 312.9261779785156 149.1127471923828 316.4434509277344 L 151.38809204101562 316.5489196777344" stroke-width="0.6000000238418579" fill="rgb(70, 150, 179)" opacity="1.0"/>
    <path d="M 124.50173950195312 304.61822509765625 C 123.31733703613281 300.45196533203125 121.82958984375 295.88372802734375 118.0859375 293.7107849121094 C 114.06301879882812 291.37896728515625 108.74972534179688 292.78900146484375 105.11801147460938 295.6926574707031 C 103.71731567382812 296.81158447265625 102.44284057617188 298.1983337402344 101.91702270507812 299.91204833984375 C 101.48422241210938 301.3206481933594 101.58853149414062 302.83270263671875 101.77769470214844 304.29376220703125 C 102.36865234375 308.90191650390625 103.9449462890625 313.718994140625 107.64573669433594 316.5260009765625 C 111.37753295898438 319.35247802734375 116.96340942382812 319.4497375488281 120.77902221679688 316.7303771972656 C 124.59461975097656 314.010986328125 126.37374877929688 308.7225341796875 124.94033813476562 304.2584228515625 L 124.50173950195312 304.61822509765625" stroke-width="0.6000000238418579" fill="rgb(140, 28, 33)" opacity="1.0"/>
    <path d="M 139.455810546875 277.2950439453125 C 135.9906463623047 278.8403015136719 132.4019775390625 280.4864501953125 129.89926147460938 283.3416748046875 C 127.39659118652344 286.1968994140625 126.28974914550781 290.66192626953125 128.34165954589844 293.855712890625 C 130.88330078125 297.79248046875 137.1640625 297.79437255859375 140.74148559570312 294.7546081542969 C 144.31890869140625 291.7148742675781 145.6048583984375 286.7171936035156 145.6728515625 282.0290832519531 C 145.8393096923828 280.5799255371094 145.4564971923828 279.1211242675781 144.5999298095703 277.9404602050781 C 143.6389923095703 276.87469482421875 141.55149841308594 276.78466796875 140.95059204101562 278.09564208984375 L 139.455810546875 277.2950439453125" stroke-width="0.6000000238418579" fill="rgb(159, 159, 159)" opacity="1.0"/>
    <path d="M 162.049560546875 290.7855529785156 C 160.62826538085938 294.6846618652344 160.51190185546875 299.1556396484375 162.281982421875 302.90692138671875 C 164.05206298828125 306.6581726074219 167.85797119140625 309.5233154296875 172.021728515625 309.6404113769531 C 174.9656982421875 309.719482421875 177.84820556640625 308.45196533203125 180.08282470703125 306.52978515625 C 182.31744384765625 304.6076354980469 183.95587158203125 302.0744934082031 185.21243286132812 299.4075927734375 C 185.75857543945312 298.2467041015625 186.2474365234375 296.9894714355469 186.08761596679688 295.7198791503906 C 185.90505981445312 294.2641906738281 184.90618896484375 293.0607604980469 183.8948974609375 291.99176025390625 C 181.039794921875 288.973876953125 177.6134033203125 286.278564453125 173.56005859375 285.3652038574219 C 169.5067138671875 284.45184326171875 164.754638671875 285.7264709472656 162.50994873046875 289.210693359375 L 162.049560546875 290.7855529785156" stroke-width="0.6000000238418579" fill="rgb(159, 159, 159)" opacity="1.0"/>
    <path d="M 123.58627319335938 344.2256164550781 C 123.04940795898438 340.1030578613281 122.27407836914062 335.54388427734375 119.01121520996094 332.9806823730469 C 115.84158325195312 330.4834899902344 111.38229370117188 330.69671630859375 107.36601257324219 331.1050109863281 C 105.73469543457031 331.27325439453125 104.03077697753906 331.4753112792969 102.673828125 332.3946533203125 C 100.37791442871094 333.9482421875 99.74911499023438 337.04449462890625 99.74822998046875 339.8125915527344 C 99.74641418457031 342.3818664550781 100.11354064941406 344.9380798339844 100.83836364746094 347.4029846191406 C 102.01380920410156 351.40576171875 104.62997436523438 355.5008239746094 108.72555541992188 356.2866516113281 C 110.93600463867188 356.714111328125 113.25703430175781 356.07891845703125 115.21878051757812 354.9671630859375 C 117.18051147460938 353.85540771484375 118.83961486816406 352.28594970703125 120.45541381835938 350.71319580078125 C 122.07122802734375 349.1404724121094 123.62521362304688 347.5604553222656 124.43319702148438 345.51300048828125 L 123.58627319335938 344.2256164550781" stroke-width="0.6000000238418579" fill="rgb(218, 166, 20)" opacity="1.0"/>
    <path d="M 164.5684814453125 349.4723815917969 C 159.29888916015625 353.7143859863281 158.46588134765625 361.425048828125 162.7078857421875 366.69464111328125 C 163.07110595703125 367.1458740234375 163.46591186523438 367.5707702636719 163.8892822265625 367.9661560058594 C 165.498291015625 369.4681701660156 167.62091064453125 370.5483703613281 169.8189697265625 370.45404052734375 C 171.67645263671875 370.3744812011719 173.3983154296875 369.4827880859375 174.94610595703125 368.4549865722656 C 179.08541870117188 365.6981201171875 182.4110107421875 361.8831787109375 184.5775146484375 357.4065246582031 C 185.148193359375 356.2222595214844 185.64273071289062 354.95672607421875 185.62960815429688 353.6393737792969 C 185.60888671875 351.42779541015625 184.1353759765625 349.44476318359375 182.32943725585938 348.1652526855469 C 179.64959716796875 346.2637939453125 176.19390869140625 345.6114807128906 172.93756103515625 346.0565490722656 C 169.68121337890625 346.5016174316406 166.61990356445312 347.97723388671875 164.0135498046875 349.9789733886719 L 164.5684814453125 349.4723815917969" stroke-width="0.6000000238418579" fill="rgb(143, 165, 67)" opacity="1.0"/>
    <path d="M 133.7106475830078 380.2052001953125 C 130.4846954345703 373.09307861328125 118.66712951660156 372.7856140136719 114.60185241699219 379.3946838378906 C 110.53662109375 386.0037841796875 115.60400390625 396.0413513183594 123.31790161132812 397.2748718261719 C 131.03182983398438 398.50836181640625 138.75413513183594 391.3530578613281 138.68104553222656 383.53424072265625 L 133.7106475830078 380.2052001953125" stroke-width="0.6000000238418579" fill="rgb(233, 92, 21)" opacity="1.0"/>
    <path d="M 185.90350341796875 364.1094665527344 C 184.66259765625 367.8505554199219 183.56829833984375 372.44805908203125 186.27001953125 375.3363952636719 C 187.389892578125 376.4440002441406 188.82586669921875 377.17681884765625 190.3798828125 377.4336853027344 C 194.20782470703125 378.1727294921875 198.156494140625 377.0105895996094 200.9737548828125 374.3157653808594 C 203.35769653320312 372.023681640625 204.62185668945312 368.8669128417969 205.77264404296875 365.7880859375 C 206.41629028320312 364.05755615234375 207.04501342773438 362.19842529296875 206.62738037109375 360.4102783203125 C 206.05120849609375 358.03143310546875 203.78341674804688 356.4794006347656 201.57916259765625 355.4171142578125 C 198.35516357421875 353.85845947265625 194.90011596679688 352.8318786621094 191.34805297851562 352.3772277832031 C 190.12045288085938 352.2225036621094 188.82537841796875 352.14288330078125 187.6878662109375 352.62860107421875 C 186.6533203125 353.1343078613281 185.78823852539062 353.93011474609375 185.19815063476562 354.91900634765625 C 183.29147338867188 357.8489990234375 182.76611328125 361.4679260253906 183.76092529296875 364.81915283203125 L 185.90350341796875 364.1094665527344" stroke-width="0.6000000238418579" fill="rgb(70, 150, 179)" opacity="1.0"/>
  </g>
</svg>
