<?xml version="1.0" ?>
<svg xmlns="http://www.w3.org/2000/svg" version="1.1" width="600" height="600">
  <defs/>
  <g>
    <path d="M 351.2489929199219 349.8233642578125 C 354.7364501953125 353.5060729980469 362.0566101074219 351.1908264160156 363.1519775390625 346.27197265625 C 364.2472839355469 341.3531494140625 359.00946044921875 336.2646484375 354.01239013671875 337.1418762207031 C 349.01531982421875 338.01910400390625 345.79058837890625 344.04815673828125 347.4921875 348.8327941894531 L 351.2489929199219 349.8233642578125" stroke-width="0.6000000238418579" fill="rgb(233, 92, 21)" opacity="1.0"/>
    <path d="M 104.86854553222656 203.94464111328125 C 106.27340698242188 202.2083740234375 107.77146911621094 199.9886474609375 106.915283203125 197.9176025390625 C 106.54248046875 197.106689453125 105.92721557617188 196.431396484375 105.15437316894531 195.9849853515625 C 103.27188110351562 194.82891845703125 100.94584655761719 194.65701293945312 98.91384887695312 195.52374267578125 C 97.19204711914062 196.263427734375 95.89151000976562 197.68515014648438 94.6666259765625 199.08819580078125 C 93.97984313964844 199.87744140625 93.27529907226562 200.73788452148438 93.13983154296875 201.76953125 C 92.97053527832031 203.14608764648438 93.86337280273438 204.421875 94.82028198242188 205.42523193359375 C 96.21890258789062 206.8953857421875 97.84625244140625 208.12945556640625 99.63922119140625 209.07965087890625 C 100.25935363769531 209.40673828125 100.93026733398438 209.70745849609375 101.63046264648438 209.67697143554688 C 102.28005981445312 209.61529541015625 102.89768981933594 209.365966796875 103.40802001953125 208.95932006835938 C 105.00404357910156 207.78607177734375 106.00506591796875 205.97177124023438 106.14645385742188 203.9959716796875 L 104.86854553222656 203.94464111328125" stroke-width="0.6000000238418579" fill="rgb(70, 150, 179)" opacity="1.0"/>
    <path d="M 455.50311279296875 426.231689453125 C 456.2525634765625 428.2510986328125 457.1680908203125 430.45806884765625 459.1087646484375 431.38958740234375 C 461.194091796875 432.3890380859375 463.77349853515625 431.48297119140625 465.4609375 429.9019775390625 C 466.11181640625 429.2926025390625 466.689697265625 428.55548095703125 466.8836669921875 427.68536376953125 C 467.0433349609375 426.9700927734375 466.9327392578125 426.2244873046875 466.78204345703125 425.50750732421875 C 466.3095703125 423.245849609375 465.3404541015625 420.91900634765625 463.3963623046875 419.67144775390625 C 461.43603515625 418.41546630859375 458.662841796875 418.5848388671875 456.8770751953125 420.0816650390625 C 455.09124755859375 421.5784912109375 454.4151611328125 424.269775390625 455.2996826171875 426.4271240234375 L 455.50311279296875 426.231689453125" stroke-width="0.6000000238418579" fill="rgb(140, 28, 33)" opacity="1.0"/>
    <path d="M 87.30673217773438 202.22216796875 C 89.52005004882812 201.62445068359375 91.81651306152344 200.97808837890625 93.57804870605469 199.5081787109375 C 95.33953857421875 198.038330078125 96.41867065429688 195.4766845703125 95.49307250976562 193.37786865234375 C 94.34475708007812 190.7896728515625 90.59568786621094 190.20004272460938 88.17532348632812 191.67938232421875 C 85.75497436523438 193.15869140625 84.51902770996094 196.021484375 84.03912353515625 198.81365966796875 C 83.80398559570312 199.66311645507812 83.89579772949219 200.56982421875 84.29647827148438 201.3548583984375 C 84.77023315429688 202.08111572265625 86.00790405273438 202.33047485351562 86.48947143554688 201.60418701171875 L 87.30673217773438 202.22216796875" stroke-width="0.6000000238418579" fill="rgb(159, 159, 159)" opacity="1.0"/>
    <path d="M 377.1567687988281 296.9515075683594 C 378.7607727050781 295.7935791015625 380.0030212402344 294.0608825683594 380.3084411621094 292.10736083984375 C 380.6138610839844 290.1538391113281 379.8790283203125 288.0051574707031 378.2677307128906 286.8448486328125 C 377.1274719238281 286.02593994140625 375.6511535644531 285.75469970703125 374.2552490234375 285.9150695800781 C 372.8593444824219 286.0754699707031 371.5351867675781 286.63641357421875 370.32586669921875 287.352294921875 C 369.7998046875 287.66412353515625 369.2705383300781 288.0293273925781 368.9938659667969 288.5729675292969 C 368.6763916015625 289.1960754394531 368.7484436035156 289.9381103515625 368.86138916015625 290.63043212890625 C 369.18023681640625 292.5849609375 369.8107604980469 294.5650939941406 371.16546630859375 296.0099792480469 C 372.5201416015625 297.4548645019531 374.7359313964844 298.2235412597656 376.5537414550781 297.4496154785156 L 377.1567687988281 296.9515075683594" stroke-width="0.6000000238418579" fill="rgb(159, 159, 159)" opacity="1.0"/>
    <path d="M 96.25791931152344 433.760986328125 C 96.59638977050781 431.6158447265625 96.87969970703125 429.21685791015625 95.62228393554688 427.4515380859375 C 94.40185546875 425.7330322265625 92.13572692871094 425.1827392578125 90.06285095214844 424.79547119140625 C 89.22055053710938 424.639404296875 88.33688354492188 424.48956298828125 87.52139282226562 424.75030517578125 C 86.14187622070312 425.1905517578125 85.3704833984375 426.6495361328125 84.96212768554688 428.03656005859375 C 84.58259582519531 429.3238525390625 84.389892578125 430.658935546875 84.38987731933594 432.00103759765625 C 84.38906860351562 434.18017578125 85.09666442871094 436.617919921875 87.0333251953125 437.615234375 C 88.07806396484375 438.15521240234375 89.33480834960938 438.178955078125 90.48175048828125 437.910888671875 C 91.62867736816406 437.642822265625 92.69139099121094 437.100830078125 93.73289489746094 436.55078125 C 94.77439880371094 436.000732421875 95.7860107421875 435.4378662109375 96.49263000488281 434.5308837890625 L 96.25791931152344 433.760986328125" stroke-width="0.6000000238418579" fill="rgb(218, 166, 20)" opacity="1.0"/>
    <path d="M 101.58331298828125 139.26318359375 C 105.2689208984375 139.98611450195312 108.84272766113281 137.5843963623047 109.56565856933594 133.8988037109375 C 109.6275634765625 133.5832061767578 109.6669921875 133.2636260986328 109.68368530273438 132.94244384765625 C 109.746826171875 131.72201538085938 109.44720458984375 130.43411254882812 108.62158203125 129.533935546875 C 107.9239501953125 128.77313232421875 106.92971801757812 128.3602294921875 105.93988037109375 128.06991577148438 C 103.28923034667969 127.29647827148438 100.47982788085938 127.24685668945312 97.80352783203125 127.92623901367188 C 97.09640502929688 128.1070098876953 96.38197326660156 128.3491668701172 95.82695007324219 128.82553100585938 C 94.89469909667969 129.62472534179688 94.57876586914062 130.95948791503906 94.68052673339844 132.18405151367188 C 94.83035278320312 134.00221252441406 95.78819274902344 135.70358276367188 97.14105224609375 136.92807006835938 C 98.493896484375 138.15257263183594 100.21493530273438 138.92591857910156 101.99688720703125 139.3179168701172 L 101.58331298828125 139.26318359375" stroke-width="0.6000000238418579" fill="rgb(143, 165, 67)" opacity="1.0"/>
    <path d="M 452.7821044921875 344.66229248046875 C 456.8223876953125 347.4911193847656 463.34521484375 343.8585510253906 463.4300537109375 338.9588317871094 C 463.51483154296875 334.05908203125 457.5328369140625 330.2320861816406 452.94305419921875 332.04180908203125 C 448.353271484375 333.8515625 446.45611572265625 340.22406005859375 449.00982666015625 344.4508056640625 L 452.7821044921875 344.66229248046875" stroke-width="0.6000000238418579" fill="rgb(233, 92, 21)" opacity="1.0"/>
    <path d="M 103.0633544921875 216.2425537109375 C 104.7022705078125 214.51345825195312 106.48068237304688 212.27801513671875 105.74310302734375 210.004150390625 C 105.41436767578125 209.11065673828125 104.81646728515625 208.3411865234375 104.0318603515625 207.8018798828125 C 102.12649536132812 206.41534423828125 99.66728210449219 206.038330078125 97.43405151367188 206.7904052734375 C 95.54129028320312 207.4332275390625 94.03955078125 208.8365478515625 92.61984252929688 210.226318359375 C 91.82359313964844 211.00830078125 91.00253295898438 211.86447143554688 90.7723388671875 212.95022583007812 C 90.47735595703125 214.39996337890625 91.3203125 215.83120727539062 92.254150390625 216.97808837890625 C 93.61872863769531 218.65826416015625 95.24626159667969 220.10650634765625 97.07362365722656 221.26666259765625 C 97.70578002929688 221.666259765625 98.39413452148438 222.0421142578125 99.14129638671875 222.068115234375 C 99.83724975585938 222.0567626953125 100.51486206054688 221.84317016601562 101.09152221679688 221.453369140625 C 102.88671875 220.33895874023438 104.10270690917969 218.4931640625 104.41802978515625 216.40383911132812 L 103.0633544921875 216.2425537109375" stroke-width="0.6000000238418579" fill="rgb(70, 150, 179)" opacity="1.0"/>
    <path d="M 102.22981262207031 82.387451171875 C 102.4427490234375 84.985595703125 102.787841796875 87.85650634765625 104.74452209472656 89.57650756835938 C 106.8475341796875 91.42291259765625 110.1492919921875 91.210693359375 112.63252258300781 89.92025756835938 C 113.59016418457031 89.42314147949219 114.50454711914062 88.75315856933594 115.01507568359375 87.80271911621094 C 115.43504333496094 87.02156066894531 115.54998779296875 86.11660766601562 115.60885620117188 85.23188781738281 C 115.79791259765625 82.44210815429688 115.42959594726562 79.4139404296875 113.57223510742188 77.32455444335938 C 111.69883728027344 75.22007751464844 108.41213989257812 74.51054382324219 105.84182739257812 75.67068481445312 C 103.27151489257812 76.83084106445312 101.60366821289062 79.74560546875 101.92886352539062 82.54867553710938 L 102.22981262207031 82.387451171875" stroke-width="0.6000000238418579" fill="rgb(140, 28, 33)" opacity="1.0"/>
    <path d="M 90.70645141601562 419.2645263671875 C 93.00736999511719 418.7667236328125 95.39610290527344 418.223388671875 97.27911376953125 416.8077392578125 C 99.16207885742188 415.3919677734375 100.40206909179688 412.8211669921875 99.56210327148438 410.6205749511719 C 98.51919555664062 407.90655517578125 94.70512390136719 407.1067199707031 92.14599609375 408.497802734375 C 89.58685302734375 409.888916015625 88.17034912109375 412.760498046875 87.53286743164062 415.59893798828125 C 87.24749755859375 416.45782470703125 87.29446411132812 417.3924560546875 87.66450500488281 418.2183837890625 C 88.112548828125 418.98785400390625 89.36883544921875 419.3079833984375 89.90048217773438 418.5882568359375 L 90.70645141601562 419.2645263671875" stroke-width="0.6000000238418579" fill="rgb(159, 159, 159)" opacity="1.0"/>
    <path d="M 468.3094482421875 60.06169128417969 C 469.6488037109375 58.03753662109375 470.3238525390625 55.510406494140625 469.827880859375 53.1357421875 C 469.33197021484375 50.761077880859375 467.55743408203125 48.613189697265625 465.20513916015625 47.979583740234375 C 463.54144287109375 47.533721923828125 461.7293701171875 47.86210632324219 460.19659423828125 48.651092529296875 C 458.663818359375 49.4400634765625 457.38702392578125 50.65773010253906 456.30914306640625 52.00347900390625 C 455.8404541015625 52.589385986328125 455.39117431640625 53.23789978027344 455.3092041015625 53.981781005859375 C 455.21478271484375 54.8345947265625 455.6190185546875 55.65509033203125 456.04864501953125 56.40081787109375 C 457.2615966796875 58.50611877441406 458.8433837890625 60.50572204589844 461.0244140625 61.57719421386719 C 463.20550537109375 62.648651123046875 466.08197021484375 62.57080078125 467.8331298828125 60.89472961425781 L 468.3094482421875 60.06169128417969" stroke-width="0.6000000238418579" fill="rgb(159, 159, 159)" opacity="1.0"/>
    <path d="M 93.50698852539062 107.08065795898438 C 95.64144897460938 107.93954467773438 98.05120849609375 108.80178833007812 100.17257690429688 107.92271423339844 C 102.23683166503906 107.07070922851562 103.34317016601562 104.861572265625 104.23526000976562 102.81324768066406 C 104.59645080566406 101.98060607910156 104.96102905273438 101.10379028320312 104.88545227050781 100.19984436035156 C 104.75851440429688 98.67092895507812 103.43528747558594 97.52796936035156 102.10008239746094 96.77691650390625 C 100.86105346679688 96.079345703125 99.52828979492188 95.56330871582031 98.142578125 95.24458312988281 C 95.89273071289062 94.72625732421875 93.20770263671875 94.8779296875 91.718017578125 96.64073181152344 C 90.91238403320312 97.59121704101562 90.58944702148438 98.88320922851562 90.59384155273438 100.131103515625 C 90.59823608398438 101.37899780273438 90.90550231933594 102.60498046875 91.22610473632812 103.81098937988281 C 91.54670715332031 105.01699829101562 91.8875732421875 106.19514465332031 92.65625 107.14015197753906 L 93.50698852539062 107.08065795898438" stroke-width="0.6000000238418579" fill="rgb(218, 166, 20)" opacity="1.0"/>
    <path d="M 121.17861938476562 127.85591125488281 C 124.85906982421875 126.47674560546875 126.72463989257812 122.3751220703125 125.34548950195312 118.69467163085938 C 125.22738647460938 118.3795166015625 125.08706665039062 118.07313537597656 124.92562866210938 117.77783203125 C 124.31192016601562 116.65585327148438 123.33796691894531 115.67291259765625 122.10823059082031 115.32414245605469 C 121.06904602050781 115.029296875 119.95660400390625 115.20721435546875 118.91534423828125 115.49195861816406 C 116.12922668457031 116.25796508789062 113.59902954101562 117.75601196289062 111.58758544921875 119.83047485351562 C 111.05682373046875 120.37969970703125 110.55325317382812 120.98764038085938 110.32028198242188 121.71673583984375 C 109.92843627929688 122.94052124023438 110.37966918945312 124.30313110351562 111.142578125 125.33828735351562 C 112.27415466308594 126.87588500976562 114.06150817871094 127.8658447265625 115.93899536132812 128.21412658691406 C 117.81649780273438 128.56240844726562 119.77433776855469 128.30662536621094 121.57711791992188 127.67764282226562 L 121.17861938476562 127.85591125488281" stroke-width="0.6000000238418579" fill="rgb(143, 165, 67)" opacity="1.0"/>
    <path d="M 392.2706298828125 303.7762756347656 C 395.141845703125 307.778564453125 402.48992919921875 306.5137939453125 404.1909484863281 301.9249572753906 C 405.8919372558594 297.3360900878906 401.5214538574219 291.7508544921875 396.59783935546875 291.93756103515625 C 391.6741943359375 292.124267578125 387.7782287597656 297.50128173828125 388.7861022949219 302.32891845703125 L 392.2706298828125 303.7762756347656" stroke-width="0.6000000238418579" fill="rgb(233, 92, 21)" opacity="1.0"/>
    <path d="M 121.6829833984375 112.32904052734375 C 123.28720092773438 110.66461181640625 125.03085327148438 108.51002502441406 124.33358764648438 106.29776000976562 C 124.0218505859375 105.42816162109375 123.44796752929688 104.67671203613281 122.69107055664062 104.14710998535156 C 120.85354614257812 102.78634643554688 118.47047424316406 102.40061950683594 116.29753112792969 103.11224365234375 C 114.455810546875 103.72064208984375 112.98735046386719 105.07009887695312 111.59858703613281 106.40705871582031 C 110.81967163085938 107.15934753417969 110.01608276367188 107.98342895507812 109.783935546875 109.03506469726562 C 109.48599243164062 110.4393310546875 110.29229736328125 111.8348388671875 111.18910217285156 112.9552001953125 C 112.49951171875 114.59649658203125 114.06695556640625 116.01487731933594 115.83059692382812 117.15530395507812 C 116.44073486328125 117.54818725585938 117.1055908203125 117.91841125488281 117.830322265625 117.94970703125 C 118.50567626953125 117.9443359375 119.16488647460938 117.7425537109375 119.72755432128906 117.3690185546875 C 121.47842407226562 116.30227661132812 122.6732177734375 114.52117919921875 122.99607849121094 112.49650573730469 L 121.6829833984375 112.32904052734375" stroke-width="0.6000000238418579" fill="rgb(70, 150, 179)" opacity="1.0"/>
    <path d="M 426.12060546875 70.35910034179688 C 427.0860595703125 72.47998046875 428.24517822265625 74.79025268554688 430.4114990234375 75.644775390625 C 432.73919677734375 76.56130981445312 435.4520263671875 75.383544921875 437.150146484375 73.546630859375 C 437.80517578125 72.83865356445312 438.3714599609375 71.99839782714844 438.51324462890625 71.04447937011719 C 438.63006591796875 70.26034545898438 438.452880859375 69.46440124511719 438.234619140625 68.70243835449219 C 437.54931640625 66.29873657226562 436.32305908203125 63.86322021484375 434.12847900390625 62.66795349121094 C 431.9158935546875 61.46484375 428.9366455078125 61.86277770996094 427.1258544921875 63.61647033691406 C 425.31512451171875 65.37017822265625 424.79443359375 68.3265380859375 425.916259765625 70.58580017089844 L 426.12060546875 70.35910034179688" stroke-width="0.6000000238418579" fill="rgb(140, 28, 33)" opacity="1.0"/>
    <path d="M 114.7877197265625 416.75262451171875 C 116.17718505859375 414.96142578125 117.603271484375 413.082275390625 118.1163330078125 410.8725280761719 C 118.62939453125 408.66278076171875 117.9532470703125 405.99871826171875 115.97171020507812 404.8950500488281 C 113.522705078125 403.5381774902344 110.21383666992188 405.3084411621094 109.18667602539062 407.9184875488281 C 108.1595458984375 410.5285339355469 108.89158630371094 413.523681640625 110.17787170410156 416.0123291015625 C 110.49887084960938 416.822509765625 111.11192321777344 417.4830322265625 111.89607238769531 417.86334228515625 C 112.70280456542969 418.15374755859375 113.8277587890625 417.61248779296875 113.77456665039062 416.75244140625 L 114.7877197265625 416.75262451171875" stroke-width="0.6000000238418579" fill="rgb(159, 159, 159)" opacity="1.0"/>
    <path d="M 454.89385986328125 433.47705078125 C 455.767822265625 431.246337890625 455.896484375 428.66766357421875 454.9266357421875 426.4783935546875 C 453.9566650390625 424.2890625 451.7996826171875 422.5831298828125 449.39825439453125 422.458251953125 C 447.7003173828125 422.3720703125 446.019287109375 423.06390380859375 444.7032470703125 424.1424560546875 C 443.3870849609375 425.2210693359375 442.40667724609375 426.660400390625 441.644775390625 428.1822509765625 C 441.3135986328125 428.8447265625 441.01416015625 429.56353759765625 441.08892822265625 430.2984619140625 C 441.1741943359375 431.14111328125 441.734130859375 431.849365234375 442.3031005859375 432.480224609375 C 443.9093017578125 434.26123046875 445.849609375 435.8638916015625 448.17626953125 436.44677734375 C 450.50299072265625 437.02972412109375 453.2630615234375 436.3594970703125 454.6064453125 434.37957763671875 L 454.89385986328125 433.47705078125" stroke-width="0.6000000238418579" fill="rgb(159, 159, 159)" opacity="1.0"/>
    <path d="M 451.27288818359375 285.07220458984375 C 452.701904296875 283.1904602050781 454.208740234375 281.0368957519531 453.91259765625 278.6973571777344 C 453.62774658203125 276.4217224121094 451.739013671875 274.7273864746094 449.95159912109375 273.288818359375 C 449.224609375 272.70550537109375 448.454833984375 272.1068420410156 447.53887939453125 271.9368591308594 C 445.989990234375 271.6484375 444.49932861328125 272.649658203125 443.3936767578125 273.76885986328125 C 442.3670654296875 274.8072814941406 441.49481201171875 275.98773193359375 440.8037109375 277.27410888671875 C 439.68084716796875 279.3623962402344 439.103759765625 282.0632629394531 440.446533203125 284.0164489746094 C 441.1697998046875 285.07196044921875 442.3621826171875 285.7418518066406 443.59954833984375 286.07550048828125 C 444.8369140625 286.4091796875 446.1346435546875 286.4368896484375 447.4161376953125 286.44598388671875 C 448.6976318359375 286.455078125 449.95703125 286.4365234375 451.10137939453125 285.9310607910156 L 451.27288818359375 285.07220458984375" stroke-width="0.6000000238418579" fill="rgb(218, 166, 20)" opacity="1.0"/>
    <path d="M 417.9444580078125 360.2487487792969 C 420.665771484375 363.4310607910156 425.4515380859375 363.8048095703125 428.6337890625 361.0835876464844 C 428.9063720703125 360.8505554199219 429.1619873046875 360.5985107421875 429.3988037109375 360.32928466796875 C 430.29852294921875 359.3062438964844 430.9278564453125 357.9731750488281 430.8291015625 356.6150207519531 C 430.74578857421875 355.4672546386719 430.1624755859375 354.4183349609375 429.4981689453125 353.4796142578125 C 427.71649169921875 350.9693298339844 425.295166015625 348.98187255859375 422.4857177734375 347.7237243652344 C 421.7425537109375 347.39239501953125 420.9505615234375 347.10968017578125 420.1357421875 347.1419982910156 C 418.767822265625 347.1954345703125 417.5679931640625 348.14349365234375 416.8095703125 349.2843017578125 C 415.682373046875 350.9772033691406 415.34228515625 353.1271667480469 415.677490234375 355.1336364746094 C 416.0125732421875 357.14013671875 416.9818115234375 359.00701904296875 418.26806640625 360.582763671875 L 417.9444580078125 360.2487487792969" stroke-width="0.6000000238418579" fill="rgb(143, 165, 67)" opacity="1.0"/>
    <path d="M 450.8756103515625 354.3081970214844 C 453.39019775390625 350.5353088378906 449.9141845703125 344.61724853515625 445.409423828125 344.642578125 C 440.904541015625 344.6679382324219 437.5135498046875 350.24627685546875 439.27349853515625 354.42633056640625 C 441.033447265625 358.60638427734375 446.9300537109375 360.2155456542969 450.7607421875 357.77947998046875 L 450.8756103515625 354.3081970214844" stroke-width="0.6000000238418579" fill="rgb(233, 92, 21)" opacity="1.0"/>
    <path d="M 453.2598876953125 77.69467163085938 C 454.7220458984375 76.13981628417969 456.307373046875 74.130859375 455.6385498046875 72.09634399414062 C 455.3409423828125 71.29705810546875 454.80255126953125 70.60983276367188 454.0977783203125 70.12948608398438 C 452.3858642578125 68.89404296875 450.181396484375 68.56497192382812 448.183349609375 69.24662780761719 C 446.489990234375 69.82919311523438 445.1495361328125 71.09170532226562 443.882568359375 72.341796875 C 443.1719970703125 73.045166015625 442.439453125 73.81509399414062 442.237060546875 74.78860473632812 C 441.9779052734375 76.08843994140625 442.7381591796875 77.36766052246094 443.578857421875 78.39183044433594 C 444.8072509765625 79.89224243164062 446.27044677734375 81.18392944335938 447.91162109375 82.216796875 C 448.4793701171875 82.57257080078125 449.097412109375 82.90682983398438 449.766845703125 82.927490234375 C 450.3902587890625 82.91488647460938 450.99658203125 82.72111511230469 451.5118408203125 82.36985778808594 C 453.11614990234375 81.36515808105469 454.198974609375 79.70724487304688 454.47412109375 77.83436584472656 L 453.2598876953125 77.69467163085938" stroke-width="0.6000000238418579" fill="rgb(70, 150, 179)" opacity="1.0"/>
    <path d="M 450.62744140625 389.631591796875 C 450.984375 388.7146301269531 451.3414306640625 387.6832275390625 450.96142578125 386.7762756347656 C 450.55267333984375 385.8022155761719 449.39703369140625 385.3288879394531 448.341064453125 385.356689453125 C 447.9339599609375 385.3672180175781 447.512939453125 385.4435729980469 447.18267822265625 385.68182373046875 C 446.9111328125 385.8775939941406 446.72265625 386.1657409667969 446.5565185546875 386.4562683105469 C 446.031494140625 387.37188720703125 445.6563720703125 388.4604797363281 445.941650390625 389.4764099121094 C 446.2298583984375 390.5001220703125 447.2281494140625 391.2838134765625 448.2921142578125 391.3146057128906 C 449.3560791015625 391.3454284667969 450.403564453125 390.63165283203125 450.7562255859375 389.6265869140625 L 450.62744140625 389.631591796875" stroke-width="0.6000000238418579" fill="rgb(140, 28, 33)" opacity="1.0"/>
    <path d="M 127.68795776367188 217.8800048828125 C 124.771240234375 219.5269775390625 121.75439453125 221.27288818359375 119.79275512695312 223.99093627929688 C 117.8311767578125 226.708984375 117.23052978515625 230.72552490234375 119.30015563964844 233.36151123046875 C 121.86215209960938 236.60968017578125 127.38243103027344 236.0877685546875 130.2732391357422 233.11798095703125 C 133.1640625 230.148193359375 133.87770080566406 225.6485595703125 133.54669189453125 221.52252197265625 C 133.5721893310547 220.2349853515625 133.11415100097656 218.9847412109375 132.26290893554688 218.01849365234375 C 131.32949829101562 217.161865234375 129.48731994628906 217.25674438476562 129.06846618652344 218.45904541015625 L 127.68795776367188 217.8800048828125" stroke-width="0.6000000238418579" fill="rgb(159, 159, 159)" opacity="1.0"/>
    <path d="M 110.38719177246094 224.88534545898438 C 108.20744323730469 222.84649658203125 105.28167724609375 221.510009765625 102.30075073242188 221.6246337890625 C 99.31985473632812 221.73922729492188 96.35182189941406 223.45059204101562 95.1014404296875 226.1728515625 C 94.21983337402344 228.09869384765625 94.24658203125 230.3631591796875 94.88905334472656 232.38330078125 C 95.53152465820312 234.4034423828125 96.7462158203125 236.20120239257812 98.156982421875 237.783935546875 C 98.77133178710938 238.47235107421875 99.465576171875 239.14999389648438 100.3507080078125 239.40188598632812 C 101.36538696289062 239.69113159179688 102.443115234375 239.36917114257812 103.43534851074219 239.0010986328125 C 106.23663330078125 237.9619140625 108.9853515625 236.453857421875 110.73153686523438 234.02896118164062 C 112.47772216796875 231.60406494140625 112.972900390625 228.10043334960938 111.29962158203125 225.63360595703125 L 110.38719177246094 224.88534545898438" stroke-width="0.6000000238418579" fill="rgb(159, 159, 159)" opacity="1.0"/>
    <path d="M 304.75750732421875 101.846923828125 C 304.0489501953125 104.69390869140625 303.3846740722656 107.88916015625 304.86871337890625 110.413330078125 C 306.3084716796875 112.8701171875 309.2933654785156 113.87802124023438 312.03741455078125 114.64370727539062 C 313.1526184082031 114.95310974121094 314.3241882324219 115.25900268554688 315.4524841308594 115.0042724609375 C 317.3609924316406 114.57455444335938 318.57122802734375 112.70199584960938 319.2844543457031 110.8834228515625 C 319.94708251953125 109.19572448730469 320.3639221191406 107.421630859375 320.5222473144531 105.61541748046875 C 320.7803649902344 102.68275451660156 320.1156311035156 99.31854248046875 317.62689208984375 97.74786376953125 C 316.2845153808594 96.89791870117188 314.595947265625 96.7177734375 313.020751953125 96.94322204589844 C 311.4455871582031 97.16867065429688 309.951416015625 97.77278137207031 308.4848327636719 98.39019775390625 C 307.0182800292969 99.00761413574219 305.5904541015625 99.64570617675781 304.5324401855469 100.78300476074219 L 304.75750732421875 101.846923828125" stroke-width="0.6000000238418579" fill="rgb(218, 166, 20)" opacity="1.0"/>
    <path d="M 218.34292602539062 124.21469116210938 C 215.04400634765625 120.12039184570312 209.05056762695312 119.47560119628906 204.95626831054688 122.7745361328125 C 204.60565185546875 123.05703735351562 204.27557373046875 123.36404418945312 203.9683837890625 123.6932373046875 C 202.801513671875 124.94436645507812 201.96267700195312 126.59454345703125 202.03677368164062 128.30294799804688 C 202.0992431640625 129.7466583251953 202.79290771484375 131.0846710205078 203.59231567382812 132.28733825683594 C 205.73654174804688 135.50364685058594 208.70285034179688 138.08714294433594 212.18310546875 139.7694854736328 C 213.103759765625 140.21263122558594 214.08758544921875 140.59657287597656 215.11148071289062 140.58590698242188 C 216.8304443359375 140.56903076171875 218.3712158203125 139.42303466796875 219.36508178710938 138.01893615722656 C 220.84207153320312 135.9353790283203 221.34786987304688 133.2492218017578 221.00079345703125 130.7183837890625 C 220.65374755859375 128.1875457763672 219.5057373046875 125.80862426757812 217.948974609375 123.78355407714844 L 218.34292602539062 124.21469116210938" stroke-width="0.6000000238418579" fill="rgb(143, 165, 67)" opacity="1.0"/>
    <path d="M 223.88525390625 93.67991638183594 C 222.08148193359375 99.89549255371094 229.353759765625 106.45999145507812 235.47552490234375 104.4918212890625 C 241.59722900390625 102.52362060546875 243.81915283203125 93.4739990234375 239.62896728515625 88.53897094726562 C 235.43875122070312 83.60394287109375 226.72076416015625 83.94436645507812 222.55154418945312 88.90499877929688 L 223.88525390625 93.67991638183594" stroke-width="0.6000000238418579" fill="rgb(233, 92, 21)" opacity="1.0"/>
    <path d="M 200.92437744140625 96.04631042480469 C 199.81887817382812 93.2000732421875 198.20318603515625 89.91481018066406 195.1644287109375 89.52362060546875 C 193.9490966796875 89.41497802734375 192.72998046875 89.6861572265625 191.67532348632812 90.29977416992188 C 189.02490234375 91.74774169921875 187.24075317382812 94.39053344726562 186.88861083984375 97.39007568359375 C 186.59640502929688 99.93528747558594 187.39959716796875 102.44410705566406 188.23202514648438 104.85044860839844 C 188.70181274414062 106.201416015625 189.24398803710938 107.621826171875 190.3758544921875 108.4833984375 C 191.89398193359375 109.61941528320312 194.01409912109375 109.4268798828125 195.85455322265625 108.97323608398438 C 198.54888916015625 108.31271362304688 201.11856079101562 107.22044372558594 203.4638671875 105.73878479003906 C 204.27325439453125 105.22528076171875 205.0858154296875 104.63363647460938 205.52529907226562 103.78221130371094 C 205.8934326171875 102.96963500976562 206.0172119140625 102.0675048828125 205.8814697265625 101.18580627441406 C 205.5738525390625 98.49526977539062 204.10140991210938 96.07511901855469 201.8533935546875 94.56509399414062 L 200.92437744140625 96.04631042480469" stroke-width="0.6000000238418579" fill="rgb(70, 150, 179)" opacity="1.0"/>
    <path d="M 269.408203125 131.77468872070312 C 268.3484802246094 134.82154846191406 267.3017883300781 138.2432403564453 268.6550598144531 141.16928100585938 C 270.11065673828125 144.31163024902344 273.953369140625 145.72434997558594 277.40960693359375 145.50717163085938 C 278.7422180175781 145.42401123046875 280.1123962402344 145.12355041503906 281.16595458984375 144.3035430908203 C 282.03228759765625 143.62977600097656 282.6153869628906 142.6632080078125 283.12493896484375 141.69146728515625 C 284.7355041503906 138.6289825439453 285.8346252441406 135.0177001953125 284.7786865234375 131.72337341308594 C 283.712158203125 128.4039306640625 280.347900390625 125.95559692382812 276.85833740234375 125.98175048828125 C 273.3688049316406 126.00790405273438 270.0221862792969 128.47152709960938 268.9869079589844 131.80648803710938 L 269.408203125 131.77468872070312" stroke-width="0.6000000238418579" fill="rgb(140, 28, 33)" opacity="1.0"/>
    <path d="M 313.5566711425781 116.75778198242188 C 310.4912414550781 116.89437866210938 307.302978515625 117.0703125 304.5738525390625 118.47781372070312 C 301.8447570800781 119.88531494140625 299.6893310546875 122.91769409179688 300.2875671386719 125.92898559570312 C 301.03436279296875 129.6444549560547 305.760498046875 131.506103515625 309.3530578613281 130.27804565429688 C 312.94561767578125 129.0500030517578 315.3935852050781 125.6697998046875 316.8332824707031 122.16180419921875 C 317.38775634765625 121.12054443359375 317.53173828125 119.9093017578125 317.23681640625 118.76708984375 C 316.82928466796875 117.68040466308594 315.28497314453125 116.994384765625 314.4444885253906 117.80300903320312 L 313.5566711425781 116.75778198242188" stroke-width="0.6000000238418579" fill="rgb(159, 159, 159)" opacity="1.0"/>
    <path d="M 197.60769653320312 133.0378875732422 C 195.4530029296875 130.9442138671875 192.53399658203125 129.54318237304688 189.53176879882812 129.60145568847656 C 186.529541015625 129.6597442626953 183.50970458984375 131.3252716064453 182.19915771484375 134.0410919189453 C 181.27505493164062 135.96238708496094 181.25860595703125 138.24191284179688 181.86654663085938 140.28732299804688 C 182.4744873046875 142.33274841308594 183.66253662109375 144.165283203125 185.05209350585938 145.78518676757812 C 185.65719604492188 146.48977661132812 186.34292602539062 147.18505859375 187.22894287109375 147.45550537109375 C 188.24456787109375 147.7660369873047 189.33538818359375 147.46263122558594 190.34103393554688 147.11119079589844 C 193.18017578125 146.1189727783203 195.97540283203125 144.65383911132812 197.77923583984375 142.24679565429688 C 199.58303833007812 139.83975219726562 200.14846801757812 136.32310485839844 198.51165771484375 133.8084259033203 L 197.60769653320312 133.0378875732422" stroke-width="0.6000000238418579" fill="rgb(159, 159, 159)" opacity="1.0"/>
    <path d="M 280.07568359375 105.25540161132812 C 277.0224609375 106.22113037109375 273.6705017089844 107.42684936523438 272.1690673828125 110.24826049804688 C 270.7050476074219 112.99006652832031 271.47100830078125 116.34245300292969 272.3248291015625 119.33250427246094 C 272.6734619140625 120.54666137695312 273.05755615234375 121.81130981445312 273.93853759765625 122.71563720703125 C 275.42767333984375 124.24601745605469 277.8606262207031 124.30325317382812 279.9596862792969 123.9288330078125 C 281.9081115722656 123.58204650878906 283.796630859375 122.957275390625 285.5674743652344 122.07366943359375 C 288.4433288574219 120.63995361328125 291.1939392089844 118.101318359375 291.23480224609375 114.88931274414062 C 291.2593994140625 113.15530395507812 290.4632263183594 111.4814453125 289.35443115234375 110.14459228515625 C 288.24560546875 108.8077392578125 286.8307189941406 107.76237487792969 285.4192199707031 106.75030517578125 C 284.0077209472656 105.73822021484375 282.5990905761719 104.77398681640625 280.93707275390625 104.43878173828125 L 280.07568359375 105.25540161132812" stroke-width="0.6000000238418579" fill="rgb(218, 166, 20)" opacity="1.0"/>
    <path d="M 241.80789184570312 117.62142944335938 C 241.0784912109375 122.99832153320312 244.84600830078125 127.94845581054688 250.222900390625 128.67787170410156 C 250.68328857421875 128.74034118652344 251.1475830078125 128.77005004882812 251.61221313476562 128.76681518554688 C 253.37771606445312 128.75416564941406 255.20968627929688 128.21258544921875 256.43780517578125 126.94537353515625 C 257.4757385253906 125.87457275390625 257.98675537109375 124.40557861328125 258.3213195800781 122.95332336425781 C 259.2115478515625 119.06477355957031 259.0443420410156 115.0087890625 257.83709716796875 111.20668029785156 C 257.51629638671875 110.20220947265625 257.1063232421875 109.19241333007812 256.37213134765625 108.43243408203125 C 255.14031982421875 107.15583801269531 253.18841552734375 106.81361389160156 251.43096923828125 107.064453125 C 248.821533203125 107.43502807617188 246.44915771484375 108.9610595703125 244.79812622070312 111.0162353515625 C 243.1470947265625 113.0714111328125 242.17803955078125 115.61923217773438 241.76409912109375 118.2225341796875 L 241.80789184570312 117.62142944335938" stroke-width="0.6000000238418579" fill="rgb(143, 165, 67)" opacity="1.0"/>
    <path d="M 251.0455322265625 91.13174438476562 C 250.0687255859375 97.51100158691406 258.11053466796875 103.0574951171875 263.9075622558594 100.31721496582031 C 269.70458984375 97.576904296875 270.7270202636719 88.3414306640625 265.9438781738281 84.00601196289062 C 261.16070556640625 79.67059326171875 252.58560180664062 81.13845825195312 249.1072998046875 86.58395385742188 L 251.0455322265625 91.13174438476562" stroke-width="0.6000000238418579" fill="rgb(233, 92, 21)" opacity="1.0"/>
    <path d="M 338.0404052734375 84.47906494140625 C 335.10809326171875 83.22871398925781 331.4757080078125 82.03927612304688 328.9670715332031 84.02365112304688 C 327.99945068359375 84.85220336914062 327.3127746582031 85.96058654785156 327.0018310546875 87.1959228515625 C 326.150146484375 90.23176574707031 326.82275390625 93.49209594726562 328.8063659667969 95.94300842285156 C 330.49432373046875 98.01774597167969 332.9541015625 99.24775695800781 335.3586730957031 100.38119506835938 C 336.7104187011719 101.01568603515625 338.1668395996094 101.64677429199219 339.6359558105469 101.42976379394531 C 341.5918273925781 101.12445068359375 342.9944152832031 99.40042114257812 343.9980163574219 97.69485473632812 C 345.4699401855469 95.2005615234375 346.52838134765625 92.48446655273438 347.13238525390625 89.65194702148438 C 347.33917236328125 88.67286682128906 347.4899597167969 87.63436889648438 347.174560546875 86.68505859375 C 346.8361511230469 85.8173828125 346.2525939941406 85.06692504882812 345.4950256347656 84.52517700195312 C 343.260986328125 82.79248046875 340.3792724609375 82.12701416015625 337.6116943359375 82.7047119140625 L 338.0404052734375 84.47906494140625" stroke-width="0.6000000238418579" fill="rgb(70, 150, 179)" opacity="1.0"/>
    <path d="M 333.9341735839844 130.4713897705078 C 333.136474609375 127.51690673828125 332.12823486328125 124.27557373046875 329.5037841796875 122.705322265625 C 326.68353271484375 121.02023315429688 322.91656494140625 121.96658325195312 320.3236083984375 123.98391723632812 C 319.32354736328125 124.76129150390625 318.41015625 125.72904968261719 318.0226135253906 126.934814453125 C 317.7036437988281 127.92591857910156 317.7631530761719 128.99514770507812 317.8830871582031 130.0291290283203 C 318.25738525390625 133.2902374267578 319.32586669921875 136.7082061767578 321.9140930175781 138.7259979248047 C 324.5240478515625 140.75782775878906 328.46942138671875 140.87890625 331.1905822753906 138.99349975585938 C 333.9117431640625 137.1080780029297 335.2182312011719 133.3885498046875 334.2474060058594 130.2213134765625 L 333.9341735839844 130.4713897705078" stroke-width="0.6000000238418579" fill="rgb(140, 28, 33)" opacity="1.0"/>
    <path d="M 348.75372314453125 104.18574523925781 C 345.5790100097656 102.87118530273438 342.26104736328125 101.538330078125 338.8250732421875 101.67256164550781 C 335.38916015625 101.80682373046875 331.76495361328125 103.86149597167969 330.9444274902344 107.20010375976562 C 329.9407653808594 111.32354736328125 333.8530578613281 115.45257568359375 338.0799255371094 115.90969848632812 C 342.3067932128906 116.36683654785156 346.3927001953125 114.09796142578125 349.5162048339844 111.22149658203125 C 350.57232666015625 110.42794799804688 351.2925720214844 109.26736450195312 351.5348205566406 107.96875 C 351.6365051269531 106.67312622070312 350.3949890136719 105.24507141113281 349.158935546875 105.66702270507812 L 348.75372314453125 104.18574523925781" stroke-width="0.6000000238418579" fill="rgb(159, 159, 159)" opacity="1.0"/>
    <path d="M 349.461181640625 127.47801208496094 C 346.3927917480469 128.291015625 343.5361022949219 130.1730194091797 341.95599365234375 132.9241485595703 C 340.3758850097656 135.67529296875 340.2420349121094 139.31654357910156 341.9892578125 141.98074340820312 C 343.2269287109375 143.86279296875 345.2828063964844 145.11749267578125 347.4661865234375 145.6793212890625 C 349.64959716796875 146.2411651611328 351.9556884765625 146.16171264648438 354.17877197265625 145.78411865234375 C 355.1461181640625 145.61923217773438 356.14886474609375 145.3762664794922 356.875732421875 144.72080993652344 C 357.70941162109375 143.9697265625 358.0278625488281 142.81666564941406 358.2565002441406 141.71458435058594 C 358.9019470214844 138.60321044921875 359.09515380859375 135.27439880371094 357.89593505859375 132.33132934570312 C 356.69671630859375 129.38824462890625 353.81884765625 126.96339416503906 350.6507873535156 127.07830810546875 L 349.461181640625 127.47801208496094" stroke-width="0.6000000238418579" fill="rgb(159, 159, 159)" opacity="1.0"/>
    <path d="M 365.40899658203125 115.34040832519531 C 362.3430480957031 116.31610107421875 358.97735595703125 117.53343200683594 357.47381591796875 120.370849609375 C 356.00775146484375 123.12820434570312 356.7832336425781 126.49508666992188 357.6463928222656 129.49777221679688 C 357.99884033203125 130.717041015625 358.3869934082031 131.9869842529297 359.27374267578125 132.89402770996094 C 360.7726135253906 134.42901611328125 363.2171630859375 134.48220825195312 365.32550048828125 134.102294921875 C 367.2825012207031 133.7504425048828 369.1788635253906 133.119384765625 370.95648193359375 132.22845458984375 C 373.8434143066406 130.78289794921875 376.6025390625 128.22738647460938 376.6379089355469 125.0001220703125 C 376.6595458984375 123.25787353515625 375.8566589355469 121.5775146484375 374.740234375 120.23629760742188 C 373.6238098144531 118.89508056640625 372.2004089355469 117.84727478027344 370.7804260253906 116.83291625976562 C 369.3604736328125 115.81854248046875 367.9434814453125 114.85224914550781 366.2730407714844 114.51840209960938 L 365.40899658203125 115.34040832519531" stroke-width="0.6000000238418579" fill="rgb(218, 166, 20)" opacity="1.0"/>
    <path d="M 433.3153076171875 153.050048828125 C 427.9163818359375 154.002197265625 424.3115234375 159.15078735351562 425.263671875 164.54974365234375 C 425.34521484375 165.01205444335938 425.45941162109375 165.468017578125 425.60546875 165.91415405273438 C 426.1607666015625 167.60931396484375 427.24554443359375 169.20574951171875 428.8428955078125 169.997802734375 C 430.1927490234375 170.66729736328125 431.76361083984375 170.7071533203125 433.26416015625 170.5823974609375 C 437.2802734375 170.24285888671875 441.1322021484375 168.83416748046875 444.4197998046875 166.502685546875 C 445.287841796875 165.88494873046875 446.13348388671875 165.17977905273438 446.6390380859375 164.2393798828125 C 447.4886474609375 162.66119384765625 447.217529296875 160.677490234375 446.4354248046875 159.06332397460938 C 445.2760009765625 156.66607666015625 443.07763671875 154.85243225097656 440.59185791015625 153.89578247070312 C 438.1060791015625 152.93911743164062 435.35601806640625 152.79029846191406 432.723388671875 153.1928253173828 L 433.3153076171875 153.050048828125" stroke-width="0.6000000238418579" fill="rgb(143, 165, 67)" opacity="1.0"/>
    <path d="M 143.31204223632812 417.865478515625 C 140.510009765625 423.6773681640625 146.57281494140625 431.33453369140625 152.91676330566406 430.412841796875 C 159.2607421875 429.4912109375 162.94287109375 420.96240234375 159.640380859375 415.41729736328125 C 156.33786010742188 409.8721923828125 147.71095275878906 408.7639465332031 142.7912139892578 412.95062255859375 L 143.31204223632812 417.865478515625" stroke-width="0.6000000238418579" fill="rgb(233, 92, 21)" opacity="1.0"/>
    <path d="M 436.3775634765625 186.6397705078125 C 433.17236328125 186.47174072265625 429.3262939453125 186.60348510742188 427.640625 189.34759521484375 C 427.01226806640625 190.4656982421875 426.746337890625 191.75128173828125 426.879638671875 193.02694702148438 C 427.1243896484375 196.19210815429688 428.88812255859375 199.04229736328125 431.61151123046875 200.67367553710938 C 433.92523193359375 202.0516357421875 436.67657470703125 202.36383056640625 439.34228515625 202.60385131835938 C 440.8399658203125 202.73626708984375 442.435302734375 202.8292236328125 443.74945068359375 202.1158447265625 C 445.49322509765625 201.150634765625 446.22314453125 199.03530883789062 446.5821533203125 197.075439453125 C 447.1112060546875 194.20779418945312 447.17254638671875 191.2734375 446.763916015625 188.38619995117188 C 446.62078857421875 187.38888549804688 446.4041748046875 186.35476684570312 445.777587890625 185.56622314453125 C 445.157470703125 184.86285400390625 444.3460693359375 184.3551025390625 443.44232177734375 184.1048583984375 C 440.7305908203125 183.23922729492188 437.77557373046875 183.60675048828125 435.35845947265625 185.11029052734375 L 436.3775634765625 186.6397705078125" stroke-width="0.6000000238418579" fill="rgb(70, 150, 179)" opacity="1.0"/>
    <path d="M 407.75927734375 156.86956787109375 C 407.4823303222656 153.4961700439453 407.0337219238281 149.76861572265625 404.49285888671875 147.53570556640625 C 401.7619323730469 145.13870239257812 397.4749755859375 145.4148712158203 394.2509460449219 147.0908203125 C 393.00762939453125 147.73646545410156 391.8205261230469 148.60655212402344 391.1578369140625 149.8406982421875 C 390.6126708984375 150.8550262451172 390.463623046875 152.03004455566406 390.3873291015625 153.1787872314453 C 390.1423645019531 156.80108642578125 390.62115478515625 160.73281860351562 393.03314208984375 163.44534301757812 C 395.4659423828125 166.177490234375 399.7335510253906 167.09814453125 403.0706481933594 165.59130859375 C 406.4077453613281 164.08450317382812 408.57275390625 160.29965209960938 408.1500244140625 156.66018676757812 L 407.75927734375 156.86956787109375" stroke-width="0.6000000238418579" fill="rgb(140, 28, 33)" opacity="1.0"/>
    <path d="M 137.657470703125 122.29925537109375 C 134.21432495117188 122.46517944335938 130.6333770751953 122.67578125 127.57321166992188 124.26806640625 C 124.51310729980469 125.8603515625 122.10404968261719 129.27569580078125 122.78837585449219 132.65611267089844 C 123.64239501953125 136.82701110839844 128.95928955078125 138.89913940429688 132.9901580810547 137.50494384765625 C 137.02101135253906 136.11074829101562 139.75730895996094 132.30348205566406 141.36038208007812 128.35678100585938 C 141.97903442382812 127.18475341796875 142.1358642578125 125.823486328125 141.7998809814453 124.54151916503906 C 141.33766174316406 123.32240295410156 139.60000610351562 122.55801391601562 138.65907287597656 123.4698486328125 L 137.657470703125 122.29925537109375" stroke-width="0.6000000238418579" fill="rgb(159, 159, 159)" opacity="1.0"/>
    <path d="M 418.88946533203125 178.77008056640625 C 416.3310546875 176.60699462890625 412.97576904296875 175.27340698242188 409.640380859375 175.56964111328125 C 406.30499267578125 175.86590576171875 403.07391357421875 177.9515380859375 401.8253479003906 181.07379150390625 C 400.94537353515625 183.28240966796875 401.1028137207031 185.819580078125 401.936767578125 188.04815673828125 C 402.770751953125 190.27676391601562 404.23370361328125 192.22381591796875 405.90435791015625 193.9188232421875 C 406.6318359375 194.656005859375 407.4482727050781 195.3765869140625 408.45477294921875 195.60919189453125 C 409.60858154296875 195.8763427734375 410.7986755371094 195.45474243164062 411.8903503417969 194.98626708984375 C 414.9722900390625 193.66357421875 417.968994140625 191.8182373046875 419.7901611328125 189.00143432617188 C 421.61126708984375 186.18463134765625 421.96923828125 182.22891235351562 419.9544677734375 179.55758666992188 L 418.88946533203125 178.77008056640625" stroke-width="0.6000000238418579" fill="rgb(159, 159, 159)" opacity="1.0"/>
    <path d="M 401.5631408691406 187.54190063476562 C 400.5784606933594 184.5506591796875 399.3543395996094 181.2684326171875 396.5627136230469 179.824462890625 C 393.8498229980469 178.4163818359375 390.5621032714844 179.20803833007812 387.6317138671875 180.08197021484375 C 386.4418029785156 180.43878173828125 385.2026672363281 180.83099365234375 384.32354736328125 181.7076416015625 C 382.8357849121094 183.18954467773438 382.80743408203125 185.58258056640625 383.1997375488281 187.642333984375 C 383.5631103515625 189.5543212890625 384.19915771484375 191.4041748046875 385.08837890625 193.13531494140625 C 386.5312194824219 195.94674682617188 389.05914306640625 198.62234497070312 392.2180480957031 198.6256103515625 C 393.9234313964844 198.6298828125 395.56024169921875 197.8277587890625 396.862060546875 196.72210693359375 C 398.1639099121094 195.61639404296875 399.1755676269531 194.21310424804688 400.1545715332031 192.81350708007812 C 401.133544921875 191.41390991210938 402.0655212402344 190.0177001953125 402.37603759765625 188.37957763671875 L 401.5631408691406 187.54190063476562" stroke-width="0.6000000238418579" fill="rgb(218, 166, 20)" opacity="1.0"/>
    <path d="M 450.0401611328125 178.39285278320312 C 449.27935791015625 183.62359619140625 452.9029541015625 188.48077392578125 458.1336669921875 189.24160766601562 C 458.58154296875 189.3067626953125 459.0335693359375 189.34002685546875 459.4862060546875 189.34124755859375 C 461.2060546875 189.345458984375 462.99560546875 188.83505249023438 464.2037353515625 187.61215209960938 C 465.224853515625 186.57879638671875 465.73638916015625 185.15264892578125 466.07586669921875 183.74118041992188 C 466.97943115234375 179.96170043945312 466.8544921875 176.00921630859375 465.714111328125 172.29434204101562 C 465.4110107421875 171.31289672851562 465.02117919921875 170.325439453125 464.3131103515625 169.5782470703125 C 463.1251220703125 168.32321166992188 461.22705078125 167.9715576171875 459.51275634765625 168.199462890625 C 456.9674072265625 168.5360107421875 454.64227294921875 170.00030517578125 453.0147705078125 171.98678588867188 C 451.3873291015625 173.9732666015625 450.41943359375 176.44598388671875 449.991943359375 178.97796630859375 L 450.0401611328125 178.39285278320312" stroke-width="0.6000000238418579" fill="rgb(143, 165, 67)" opacity="1.0"/>
    <path d="M 148.29100036621094 102.9945068359375 C 142.9460906982422 107.23641967773438 145.19015502929688 117.31884765625 151.65403747558594 119.36402893066406 C 158.117919921875 121.4091796875 165.55233764648438 114.986328125 164.96298217773438 108.18611145019531 C 164.37362670898438 101.38591003417969 156.671630859375 96.3565673828125 150.05941772460938 98.07571411132812 L 148.29100036621094 102.9945068359375" stroke-width="0.6000000238418579" fill="rgb(233, 92, 21)" opacity="1.0"/>
    <path d="M 455.0274658203125 151.51864624023438 C 453.4373779296875 154.56288146972656 451.85382080078125 158.36419677734375 453.77386474609375 161.22589111328125 C 454.582275390625 162.33502197265625 455.7149658203125 163.16592407226562 457.015625 163.60400390625 C 460.2047119140625 164.7745361328125 463.76318359375 164.3267822265625 466.5628662109375 162.40267944335938 C 468.93353271484375 160.764404296875 470.4619140625 158.22601318359375 471.88189697265625 155.73880004882812 C 472.67724609375 154.34033203125 473.477783203125 152.82919311523438 473.3685302734375 151.23291015625 C 473.205322265625 149.1063995361328 471.47174072265625 147.4546356201172 469.724365234375 146.2329864501953 C 467.16925048828125 144.44189453125 464.341064453125 143.07618713378906 461.349609375 142.18881225585938 C 460.31536865234375 141.8842010498047 459.212646484375 141.634765625 458.1663818359375 141.8935546875 C 457.2059326171875 142.18392944335938 456.3507080078125 142.7475128173828 455.70501708984375 143.5155792236328 C 453.65570068359375 145.76918029785156 452.6981201171875 148.80831909179688 453.08551025390625 151.8296356201172 L 455.0274658203125 151.51864624023438" stroke-width="0.6000000238418579" fill="rgb(70, 150, 179)" opacity="1.0"/>
    <path d="M 374.6868591308594 76.89727783203125 C 375.2493896484375 73.23423767089844 375.7190856933594 69.15042114257812 373.5806579589844 66.12657165527344 C 371.2815246582031 62.879638671875 366.6457824707031 62.0841064453125 362.7862548828125 63.04948425292969 C 361.29803466796875 63.421051025390625 359.8126220703125 64.04594421386719 358.79315185546875 65.19184875488281 C 357.9547424316406 66.13352966308594 357.4973449707031 67.34701538085938 357.12408447265625 68.551025390625 C 355.9425048828125 72.34646606445312 355.4530334472656 76.65538024902344 357.3323059082031 80.15725708007812 C 359.228759765625 83.685302734375 363.5396728515625 85.75054931640625 367.4766540527344 84.99403381347656 C 371.4136047363281 84.23751831054688 374.68133544921875 80.75701904296875 375.1562194824219 76.77359008789062 L 374.6868591308594 76.89727783203125" stroke-width="0.6000000238418579" fill="rgb(140, 28, 33)" opacity="1.0"/>
    <path d="M 131.21591186523438 413.8790283203125 C 128.34063720703125 416.1005859375 125.37324523925781 418.44384765625 123.68980407714844 421.66680908203125 C 122.00640869140625 424.88970947265625 121.98594665527344 429.2950439453125 124.6175537109375 431.80328369140625 C 127.8729248046875 434.89215087890625 133.7181854248047 433.4737548828125 136.36001586914062 429.836181640625 C 139.00186157226562 426.198486328125 139.06857299804688 421.2569580078125 138.07183837890625 416.8787841796875 C 137.89907836914062 415.49267578125 137.21299743652344 414.22161865234375 136.14894104003906 413.31658935546875 C 135.01370239257812 412.54205322265625 133.05075073242188 412.9302978515625 132.78797912597656 414.2861328125 L 131.21591186523438 413.8790283203125" stroke-width="0.6000000238418579" fill="rgb(159, 159, 159)" opacity="1.0"/>
    <path d="M 410.6261901855469 206.74441528320312 C 409.2724914550781 203.44195556640625 406.7578125 200.53131103515625 403.460205078125 199.170654296875 C 400.1626281738281 197.80999755859375 396.08343505859375 198.19158935546875 393.3677673339844 200.52789306640625 C 391.4498596191406 202.18215942382812 390.3506774902344 204.65716552734375 390.04254150390625 207.17333984375 C 389.73443603515625 209.68954467773438 390.1591796875 212.24908447265625 390.9041748046875 214.67254638671875 C 391.2290344238281 215.72702026367188 391.6460876464844 216.8095703125 392.4828186035156 217.5244140625 C 393.44171142578125 218.34442138671875 394.7737121582031 218.5313720703125 396.0357666015625 218.62567138671875 C 399.5987548828125 218.8917236328125 403.3382263183594 218.62188720703125 406.4447021484375 216.85586547851562 C 409.5511474609375 215.08984375 411.83514404296875 211.52783203125 411.2452392578125 208.012451171875 L 410.6261901855469 206.74441528320312" stroke-width="0.6000000238418579" fill="rgb(159, 159, 159)" opacity="1.0"/>
    <path d="M 383.07232666015625 120.96075439453125 C 379.6397399902344 122.00199890136719 375.8693542480469 123.30807495117188 374.1502990722656 126.44837951660156 C 372.4742126464844 129.49996948242188 373.2877197265625 133.2650146484375 374.2044677734375 136.6253662109375 C 374.57891845703125 137.9899139404297 374.99237060546875 139.41146850585938 375.9671630859375 140.43603515625 C 377.61480712890625 142.16989135742188 380.339111328125 142.26620483398438 382.6951599121094 141.87461853027344 C 384.882080078125 141.5120086669922 387.0056457519531 140.8372344970703 389.0007629394531 139.8709716796875 C 392.24090576171875 138.30322265625 395.3553771972656 135.4962158203125 395.44366455078125 131.89910888671875 C 395.4941711425781 129.9572296142578 394.6246032714844 128.0718536376953 393.4003601074219 126.559814453125 C 392.17608642578125 125.04776000976562 390.6051940917969 123.85816955566406 389.0376281738281 122.70588684082031 C 387.4700622558594 121.55360412597656 385.9050598144531 120.4549560546875 384.0479736328125 120.0574951171875 L 383.07232666015625 120.96075439453125" stroke-width="0.6000000238418579" fill="rgb(218, 166, 20)" opacity="1.0"/>
    <path d="M 403.0213928222656 79.69387817382812 C 399.09014892578125 75.3438720703125 392.3768615722656 75.00439453125 388.02685546875 78.93563842773438 C 387.65435791015625 79.27226257324219 387.3062438964844 79.6348876953125 386.98504638671875 80.02081298828125 C 385.7649230957031 81.48736572265625 384.9352111816406 83.37750244140625 385.12554931640625 85.27481079101562 C 385.2862243652344 86.878173828125 386.1429748535156 88.32402038574219 387.10888671875 89.61251831054688 C 389.6991271972656 93.05792236328125 393.1646728515625 95.74691772460938 397.1455078125 97.40020751953125 C 398.198486328125 97.83543395996094 399.3179931640625 98.20077514648438 400.457275390625 98.124267578125 C 402.36993408203125 97.9969482421875 404.0129699707031 96.62384033203125 405.0308532714844 94.99787902832031 C 406.5436706542969 92.58497619628906 406.93719482421875 89.5625 406.3910217285156 86.76676940917969 C 405.8448486328125 83.97103881835938 404.4165954589844 81.39505004882812 402.5555725097656 79.23876953125 L 403.0213928222656 79.69387817382812" stroke-width="0.6000000238418579" fill="rgb(143, 165, 67)" opacity="1.0"/>
    <path d="M 118.01704406738281 425.872314453125 C 114.75003051757812 419.8375244140625 104.37255859375 420.298095703125 101.21746826171875 426.34228515625 C 98.06243896484375 432.386474609375 103.12423706054688 440.87176513671875 109.96194458007812 441.4764404296875 C 116.79965209960938 442.08111572265625 123.12649536132812 435.3321533203125 122.57940673828125 428.4832763671875 L 118.01704406738281 425.872314453125" stroke-width="0.6000000238418579" fill="rgb(233, 92, 21)" opacity="1.0"/>
    <path d="M 448.9268798828125 198.0108642578125 C 447.34027099609375 201.06427001953125 445.76171875 204.876220703125 447.69158935546875 207.73931884765625 C 448.50390625 208.84881591796875 449.6405029296875 209.67889404296875 450.944580078125 210.11505126953125 C 454.1422119140625 211.28103637695312 457.70660400390625 210.8248291015625 460.5074462890625 208.89108276367188 C 462.879150390625 207.24465942382812 464.405029296875 204.69815063476562 465.822509765625 202.20315551757812 C 466.61639404296875 200.80032348632812 467.415283203125 199.28460693359375 467.3023681640625 197.68548583984375 C 467.13427734375 195.55526733398438 465.3939208984375 193.904052734375 463.64056396484375 192.68377685546875 C 461.0767822265625 190.89471435546875 458.24029541015625 189.53240966796875 455.2412109375 188.64971923828125 C 454.204345703125 188.34674072265625 453.0989990234375 188.09918212890625 452.05133056640625 188.36068725585938 C 451.089599609375 188.6536865234375 450.2340087890625 189.22015380859375 449.588623046875 189.99105834960938 C 447.540283203125 192.25332641601562 446.58740234375 195.30029296875 446.98187255859375 198.32656860351562 L 448.9268798828125 198.0108642578125" stroke-width="0.6000000238418579" fill="rgb(70, 150, 179)" opacity="1.0"/>
    <path d="M 414.2415771484375 136.52610778808594 C 413.90167236328125 132.80955505371094 413.36883544921875 128.70431518554688 410.5444641113281 126.26844787597656 C 407.5088806152344 123.65361022949219 402.78509521484375 124.00205993652344 399.24761962890625 125.88294982910156 C 397.8833923339844 126.60757446289062 396.5834655761719 127.57905578613281 395.8654479980469 128.94656372070312 C 395.2747802734375 130.07052612304688 395.1224670410156 131.36756896972656 395.0501403808594 132.63491821289062 C 394.81719970703125 136.63124084472656 395.3854064941406 140.96128845214844 398.0726013183594 143.92727661132812 C 400.7829284667969 146.91465759277344 405.4976501464844 147.885986328125 409.16156005859375 146.19041442871094 C 412.825439453125 144.49485778808594 415.1737060546875 140.29962158203125 414.6702880859375 136.29122924804688 L 414.2415771484375 136.52610778808594" stroke-width="0.6000000238418579" fill="rgb(140, 28, 33)" opacity="1.0"/>
    <path d="M 399.8578796386719 70.38636779785156 C 400.8059997558594 73.8499755859375 401.83074951171875 77.443603515625 404.142578125 80.19491577148438 C 406.4543762207031 82.9461669921875 410.4725646972656 84.62271118164062 413.75506591796875 83.16166687011719 C 417.802978515625 81.34912109375 418.7064208984375 75.47357177734375 416.3763427734375 71.69036865234375 C 414.04620361328125 67.90716552734375 409.5553894042969 65.986572265625 405.1792907714844 65.24986267089844 C 403.8475036621094 64.88607788085938 402.4277648925781 65.03475952148438 401.20025634765625 65.66658020019531 C 400.0652160644531 66.41253662109375 399.6813049316406 68.35250854492188 400.82147216796875 69.1029052734375 L 399.8578796386719 70.38636779785156" stroke-width="0.6000000238418579" fill="rgb(159, 159, 159)" opacity="1.0"/>
    <path d="M 441.2379150390625 235.93179321289062 C 439.2105712890625 238.945556640625 438.171630859375 242.71957397460938 438.88677978515625 246.27874755859375 C 439.6019287109375 249.837890625 442.23291015625 253.072265625 445.7457275390625 254.04718017578125 C 448.23028564453125 254.73333740234375 450.9456787109375 254.26251220703125 453.248291015625 253.09930419921875 C 455.55096435546875 251.93609619140625 457.47552490234375 250.12847900390625 459.10382080078125 248.126953125 C 459.8118896484375 247.2554931640625 460.49151611328125 246.2901611328125 460.6226806640625 245.17791748046875 C 460.773681640625 243.90283203125 460.1781005859375 242.67041015625 459.54364013671875 241.54959106445312 C 457.7525634765625 238.38534545898438 455.408203125 235.37506103515625 452.1566162109375 233.74688720703125 C 448.905029296875 232.11868286132812 444.5997314453125 232.20245361328125 441.96014404296875 234.69061279296875 L 441.2379150390625 235.93179321289062" stroke-width="0.6000000238418579" fill="rgb(159, 159, 159)" opacity="1.0"/>
    <path d="M 407.83074951171875 262.4742431640625 C 405.9432067871094 259.3086853027344 403.7080078125 255.87179565429688 400.1510925292969 254.934326171875 C 396.6932678222656 254.01776123046875 393.1398620605469 255.76043701171875 390.01556396484375 257.5059509277344 C 388.74737548828125 258.2169189453125 387.4320373535156 258.98089599609375 386.65142822265625 260.20648193359375 C 385.3299560546875 262.27850341796875 385.9078369140625 265.0191345214844 386.8811950683594 267.2718200683594 C 387.7838134765625 269.363037109375 388.9820556640625 271.31378173828125 390.439208984375 273.06439208984375 C 392.80419921875 275.90777587890625 396.3739318847656 278.3192443847656 399.98297119140625 277.5174560546875 C 401.9320068359375 277.0874328613281 403.5970458984375 275.75384521484375 404.8020935058594 274.1589050292969 C 406.0071105957031 272.5639953613281 406.8048095703125 270.703125 407.5661315917969 268.8548278808594 C 408.32745361328125 267.0065002441406 409.03594970703125 265.1740417480469 408.972900390625 263.2237548828125 L 407.83074951171875 262.4742431640625" stroke-width="0.6000000238418579" fill="rgb(218, 166, 20)" opacity="1.0"/>
    <path d="M 415.9676513671875 87.12744140625 C 413.8525390625 92.5848388671875 416.56201171875 98.72355651855469 422.0194091796875 100.83865356445312 C 422.4866943359375 101.019775390625 422.96630859375 101.16751098632812 423.45452880859375 101.28076171875 C 425.30975341796875 101.71073913574219 427.3675537109375 101.6025390625 428.9739990234375 100.58151245117188 C 430.3316650390625 99.71879577636719 431.236572265625 98.30609130859375 431.9521484375 96.86662292480469 C 433.8623046875 93.01091003417969 434.7052001953125 88.71406555175781 434.393310546875 84.42245483398438 C 434.3089599609375 83.2882080078125 434.13238525390625 82.1259765625 433.552978515625 81.14439392089844 C 432.58123779296875 79.49594116210938 430.61962890625 78.64689636230469 428.7130126953125 78.46881103515625 C 425.882568359375 78.20242309570312 423.0107421875 79.20767211914062 420.7628173828125 80.94912719726562 C 418.51483154296875 82.6905517578125 416.85858154296875 85.1199951171875 415.77081298828125 87.74702453613281 L 415.9676513671875 87.12744140625" stroke-width="0.6000000238418579" fill="rgb(143, 165, 67)" opacity="1.0"/>
    <path d="M 442.3326416015625 129.50636291503906 C 439.53814697265625 135.81617736816406 446.28399658203125 143.7921142578125 453.03387451171875 142.58753967285156 C 459.78369140625 141.38294982910156 463.4251708984375 132.13833618164062 459.70306396484375 126.32475280761719 C 455.98095703125 120.51118469238281 446.720458984375 119.62466430664062 441.60595703125 124.27032470703125 L 442.3326416015625 129.50636291503906" stroke-width="0.6000000238418579" fill="rgb(233, 92, 21)" opacity="1.0"/>
    <path d="M 446.33013916015625 92.65040588378906 C 445.60662841796875 95.99655151367188 445.0894775390625 100.06864929199219 447.6912841796875 102.31155395507812 C 448.761474609375 103.163818359375 450.0697021484375 103.66304016113281 451.43560791015625 103.74026489257812 C 454.81005859375 104.02232360839844 458.11187744140625 102.65130615234375 460.29400634765625 100.06198120117188 C 462.13946533203125 97.86079406738281 462.9373779296875 95.01708984375 463.64471435546875 92.25123596191406 C 464.03955078125 90.6968994140625 464.40948486328125 89.03289794921875 463.8824462890625 87.527587890625 C 463.16357421875 85.52691650390625 461.06072998046875 84.39762878417969 459.058349609375 83.68537902832031 C 456.129150390625 82.63934326171875 453.04998779296875 82.07431030273438 449.94024658203125 82.01220703125 C 448.86572265625 81.99281311035156 447.73992919921875 82.04457092285156 446.8028564453125 82.56985473632812 C 445.9564208984375 83.10281372070312 445.283447265625 83.87055969238281 444.8658447265625 84.77943420410156 C 443.491943359375 87.48710632324219 443.375 90.66117858886719 444.5458984375 93.46261596679688 L 446.33013916015625 92.65040588378906" stroke-width="0.6000000238418579" fill="rgb(70, 150, 179)" opacity="1.0"/>
    <path d="M 320.8578796386719 371.5956726074219 C 317.1449279785156 372.0459289550781 313.04833984375 372.70086669921875 310.691650390625 375.60205078125 C 308.1618957519531 378.7200622558594 308.6504211425781 383.4417419433594 310.6390075683594 386.9298095703125 C 311.4051513671875 388.2749938964844 312.41668701171875 389.5484924316406 313.8077697753906 390.22735595703125 C 314.9510803222656 390.7858581542969 316.2548828125 390.900146484375 317.52655029296875 390.9351806640625 C 321.5366516113281 391.050537109375 325.857421875 390.353515625 328.7491760253906 387.5741271972656 C 331.6617431640625 384.77093505859375 332.49554443359375 380.0193786621094 330.6888732910156 376.3992004394531 C 328.8822021484375 372.7790222167969 324.61041259765625 370.55059814453125 320.6099548339844 371.1732177734375 L 320.8578796386719 371.5956726074219" stroke-width="0.6000000238418579" fill="rgb(140, 28, 33)" opacity="1.0"/>
    <path d="M 307.75384521484375 397.614990234375 C 303.980224609375 398.64984130859375 300.0649719238281 399.76824951171875 297.06817626953125 402.2886657714844 C 294.07147216796875 404.80908203125 292.24664306640625 409.1883239746094 293.8403015136719 412.76434326171875 C 295.8173522949219 417.1741943359375 302.22003173828125 418.15576171875 306.3412170410156 415.6148681640625 C 310.4623718261719 413.073974609375 312.5528869628906 408.1795959472656 313.35345458984375 403.4108581542969 C 313.7491760253906 401.9595031738281 313.5864562988281 400.4125671386719 312.89739990234375 399.0753479003906 C 312.083984375 397.83892822265625 309.9699401855469 397.42156982421875 309.15283203125 398.6643371582031 L 307.75384521484375 397.614990234375" stroke-width="0.6000000238418579" fill="rgb(159, 159, 159)" opacity="1.0"/>
    <path d="M 320.5124816894531 415.33544921875 C 316.3966979980469 416.52801513671875 312.599853515625 419.1566162109375 310.5528259277344 422.9185791015625 C 308.50579833984375 426.6805419921875 308.43829345703125 431.598876953125 310.8790588378906 435.14013671875 C 312.6078796386719 437.6416015625 315.4214172363281 439.2711181640625 318.385498046875 439.96148681640625 C 321.3496398925781 440.65191650390625 324.45941162109375 440.4730224609375 327.4479064941406 439.8944091796875 C 328.748291015625 439.641845703125 330.093994140625 439.28277587890625 331.0545959472656 438.3756103515625 C 332.1564025878906 437.3360595703125 332.55035400390625 435.77001953125 332.8246765136719 434.275634765625 C 333.59912109375 430.0565185546875 333.7564392089844 425.5579833984375 332.04656982421875 421.6234130859375 C 330.33673095703125 417.688720703125 326.37750244140625 414.505615234375 322.10552978515625 414.75909423828125 L 320.5124816894531 415.33544921875" stroke-width="0.6000000238418579" fill="rgb(159, 159, 159)" opacity="1.0"/>
    <path d="M 267.8080749511719 416.49951171875 C 264.1405944824219 418.65625 260.157470703125 421.2125244140625 259.05035400390625 425.31195068359375 C 257.96807861328125 429.29718017578125 259.95489501953125 433.411376953125 261.9480285644531 437.0302734375 C 262.7598571777344 438.4991455078125 263.632568359375 440.02294921875 265.0418701171875 440.93267822265625 C 267.4245300292969 442.47265625 270.5923156738281 441.82470703125 273.1995849609375 440.7169189453125 C 275.6199645996094 439.6895751953125 277.8802795410156 438.32000732421875 279.911376953125 436.650146484375 C 283.21026611328125 433.93994140625 286.01904296875 429.8360595703125 285.11871337890625 425.6641845703125 C 284.635986328125 423.4112548828125 283.108154296875 421.47979736328125 281.27545166015625 420.07757568359375 C 279.4427185058594 418.67535400390625 277.3001708984375 417.741455078125 275.1718444824219 416.84967041015625 C 273.04351806640625 415.9578857421875 270.9331359863281 415.127197265625 268.6812744140625 415.186279296875 L 267.8080749511719 416.49951171875" stroke-width="0.6000000238418579" fill="rgb(218, 166, 20)" opacity="1.0"/>
    <path d="M 223.80389404296875 414.3582763671875 C 216.97216796875 412.3701171875 209.82229614257812 416.296630859375 207.83416748046875 423.12835693359375 C 207.6639404296875 423.71337890625 207.535400390625 424.3096923828125 207.44955444335938 424.91290283203125 C 207.12374877929688 427.2049560546875 207.47100830078125 429.68572998046875 208.87640380859375 431.5240478515625 C 210.06390380859375 433.07763671875 211.86993408203125 434.025146484375 213.6884765625 434.740478515625 C 218.558837890625 436.648681640625 223.851318359375 437.218017578125 229.01611328125 436.3892822265625 C 230.3809814453125 436.16790771484375 231.76998901367188 435.83197021484375 232.89788818359375 435.027099609375 C 234.792236328125 433.677001953125 235.6143798828125 431.2120361328125 235.62969970703125 428.88427734375 C 235.65487670898438 425.4283447265625 234.13565063476562 422.055908203125 231.79034423828125 419.51641845703125 C 229.445068359375 416.9769287109375 226.3287353515625 415.226318359375 223.0328369140625 414.1849365234375 L 223.80389404296875 414.3582763671875" stroke-width="0.6000000238418579" fill="rgb(143, 165, 67)" opacity="1.0"/>
    <path d="M 288.0723571777344 362.31585693359375 C 290.3005065917969 370.15948486328125 302.45477294921875 372.30926513671875 307.677001953125 366.1155090332031 C 312.8992004394531 359.9217834472656 309.22332763671875 348.77203369140625 301.44976806640625 346.3023681640625 C 293.67620849609375 343.83270263671875 284.5932922363281 350.0234375 283.4564514160156 358.1078796386719 L 288.0723571777344 362.31585693359375" stroke-width="0.6000000238418579" fill="rgb(233, 92, 21)" opacity="1.0"/>
    <path d="M 332.2335205078125 359.314453125 C 332.78363037109375 363.3303527832031 333.85723876953125 368.07037353515625 337.66033935546875 369.5121765136719 C 339.1961364746094 370.02703857421875 340.8538513183594 370.0526428222656 342.4048156738281 369.58544921875 C 346.2734069824219 368.5327453613281 349.39178466796875 365.67022705078125 350.77105712890625 361.9056701660156 C 351.9328918457031 358.7093200683594 351.6690979003906 355.2222900390625 351.3359680175781 351.85858154296875 C 351.1457824707031 349.9693298339844 350.883544921875 347.9681701660156 349.6875915527344 346.5068054199219 C 348.0775146484375 344.5719909667969 345.2806396484375 344.1671142578125 342.7643737792969 344.185546875 C 339.0817565917969 344.20794677734375 335.42706298828125 344.8262634277344 331.9420166015625 346.0164794921875 C 330.7386779785156 346.4300537109375 329.507080078125 346.94354248046875 328.6771545410156 347.907470703125 C 327.95135498046875 348.84320068359375 327.5134582519531 349.96990966796875 327.41693115234375 351.1502380371094 C 326.9848327636719 354.7191467285156 328.1401062011719 358.2979736328125 330.57733154296875 360.9406433105469 L 332.2335205078125 359.314453125" stroke-width="0.6000000238418579" fill="rgb(70, 150, 179)" opacity="1.0"/>
    <path d="M 298.78656005859375 419.40020751953125 C 294.5161437988281 420.25543212890625 289.8186340332031 421.3826904296875 287.34228515625 424.96197509765625 C 284.6844482421875 428.80853271484375 285.6744384765625 434.24664306640625 288.2955322265625 438.1182861328125 C 289.30548095703125 439.61138916015625 290.5939025878906 440.9993896484375 292.2697448730469 441.6629638671875 C 293.6471862792969 442.208984375 295.1711120605469 442.2249755859375 296.6506652832031 442.1517333984375 C 301.3167419433594 441.92657470703125 306.2707214355469 440.73046875 309.37921142578125 437.24462890625 C 312.5096435546875 433.729248046875 313.0522155761719 428.1380615234375 310.6304931640625 424.0968017578125 C 308.20880126953125 420.0555419921875 303.0496520996094 417.850830078125 298.46087646484375 418.931884765625 L 298.78656005859375 419.40020751953125" stroke-width="0.6000000238418579" fill="rgb(140, 28, 33)" opacity="1.0"/>
    <path d="M 333.0363464355469 389.2718200683594 C 329.13946533203125 389.4718933105469 325.08673095703125 389.7230224609375 321.62841796875 391.5362854003906 C 318.1701965332031 393.34954833984375 315.45538330078125 397.22412109375 316.2420349121094 401.0481872558594 C 317.22357177734375 405.76641845703125 323.2494201660156 408.09307861328125 327.8072204589844 406.5005798339844 C 332.3650207519531 404.9080810546875 335.4488220214844 400.58868408203125 337.2494201660156 396.1155090332031 C 337.9455261230469 394.7866516113281 338.1181945800781 393.24517822265625 337.73333740234375 391.7952575683594 C 337.205810546875 390.4169006347656 335.23614501953125 389.5578308105469 334.1742858886719 390.59332275390625 L 333.0363464355469 389.2718200683594" stroke-width="0.6000000238418579" fill="rgb(159, 159, 159)" opacity="1.0"/>
    <path d="M 348.2173767089844 412.687744140625 C 343.8851623535156 413.1207275390625 339.60693359375 415.0474853515625 336.86822509765625 418.4290771484375 C 334.1295166015625 421.8106689453125 333.1556091308594 426.71258544921875 334.94171142578125 430.7008056640625 C 336.20806884765625 433.5189208984375 338.7190246582031 435.66558837890625 341.553466796875 436.9017333984375 C 344.387939453125 438.137939453125 347.5281677246094 438.5323486328125 350.6208801269531 438.50494384765625 C 351.96673583984375 438.49224853515625 353.3775634765625 438.3814697265625 354.50457763671875 437.652099609375 C 355.79705810546875 436.81646728515625 356.4793395996094 435.3243408203125 357.02886962890625 433.88165283203125 C 358.58026123046875 429.8087158203125 359.5665283203125 425.3428955078125 358.583251953125 421.0963134765625 C 357.59991455078125 416.84967041015625 354.2305908203125 412.939453125 349.9153747558594 412.4053955078125 L 348.2173767089844 412.687744140625" stroke-width="0.6000000238418579" fill="rgb(159, 159, 159)" opacity="1.0"/>
    <path d="M 255.34368896484375 367.4051818847656 C 256.4781188964844 363.3580017089844 257.56378173828125 358.8102111816406 255.54473876953125 355.1330871582031 C 253.5863037109375 351.5542907714844 249.35418701171875 349.98541259765625 245.456787109375 348.77349853515625 C 243.872802734375 348.28350830078125 242.20791625976562 347.7961730957031 240.58148193359375 348.113525390625 C 237.830322265625 348.64862060546875 236.0184326171875 351.279296875 234.92059326171875 353.85357666015625 C 233.90072631835938 356.2425537109375 233.22915649414062 358.7655944824219 232.92645263671875 361.3454895019531 C 232.4334716796875 365.5343322753906 233.243896484375 370.3799743652344 236.7418212890625 372.73394775390625 C 238.62838745117188 374.00750732421875 241.03890991210938 374.3365478515625 243.30413818359375 374.0799255371094 C 245.5693359375 373.8233337402344 247.73446655273438 373.02105712890625 249.860595703125 372.1985778808594 C 251.98675537109375 371.3760986328125 254.05828857421875 370.5223693847656 255.6212158203125 368.9382019042969 L 255.34368896484375 367.4051818847656" stroke-width="0.6000000238418579" fill="rgb(218, 166, 20)" opacity="1.0"/>
    <path d="M 253.48541259765625 389.0149230957031 C 250.42962646484375 382.7222595214844 242.85125732421875 380.0982666015625 236.55859375 383.1540222167969 C 236.01974487304688 383.4156799316406 235.50015258789062 383.71527099609375 235.00372314453125 384.05047607421875 C 233.1175537109375 385.3244934082031 231.53762817382812 387.2137756347656 231.1240234375 389.4508972167969 C 230.77432250976562 391.3414001464844 231.2745361328125 393.2831115722656 231.95220947265625 395.0809326171875 C 233.77276611328125 399.8907165527344 236.84799194335938 404.12530517578125 240.8583984375 407.3448181152344 C 241.919921875 408.19403076171875 243.08090209960938 408.9853210449219 244.41162109375 409.2769775390625 C 246.6453857421875 409.76788330078125 248.98495483398438 408.7417297363281 250.69244384765625 407.2177429199219 C 253.22903442382812 404.9569396972656 254.6861572265625 401.6251220703125 254.9912109375 398.2402038574219 C 255.2962646484375 394.8553161621094 254.51751708984375 391.4284362792969 253.103271484375 388.3384094238281 L 253.48541259765625 389.0149230957031" stroke-width="0.6000000238418579" fill="rgb(143, 165, 67)" opacity="1.0"/>
    <path d="M 203.27212524414062 370.3238830566406 C 200.726318359375 378.19122314453125 209.75759887695312 386.85791015625 217.65213012695312 384.58306884765625 C 225.546630859375 382.30816650390625 228.73687744140625 370.8379211425781 223.578125 364.3722839355469 C 218.41937255859375 357.9066162109375 207.272705078125 358.0015563964844 201.75506591796875 364.174072265625 L 203.27212524414062 370.3238830566406" stroke-width="0.6000000238418579" fill="rgb(233, 92, 21)" opacity="1.0"/>
    <path d="M 264.4804992675781 367.4744567871094 C 264.7412109375 371.574462890625 265.47784423828125 376.4449462890625 269.2162170410156 378.18212890625 C 270.7308349609375 378.8155517578125 272.4046936035156 378.96337890625 274.00689697265625 378.60516357421875 C 277.99493408203125 377.8255615234375 281.35772705078125 375.16131591796875 283.0289001464844 371.4573059082031 C 284.4384460449219 368.3116455078125 284.4282531738281 364.767333984375 284.33892822265625 361.3425598144531 C 284.2856140136719 359.4188232421875 284.167724609375 357.3766174316406 283.0662536621094 355.8114013671875 C 281.58099365234375 353.7371520996094 278.7834777832031 353.1221618652344 276.238525390625 352.9557189941406 C 272.5142517089844 352.70751953125 268.77435302734375 353.063720703125 265.1639099121094 354.01055908203125 C 263.9170837402344 354.3401184082031 262.63433837890625 354.7685852050781 261.7244873046875 355.68194580078125 C 260.9219665527344 356.574462890625 260.3964538574219 357.68121337890625 260.2120666503906 358.86724853515625 C 259.5127868652344 362.44317626953125 260.4173583984375 366.1458435058594 262.68670654296875 368.99652099609375 L 264.4804992675781 367.4744567871094" stroke-width="0.6000000238418579" fill="rgb(70, 150, 179)" opacity="1.0"/>
    <path d="M 326.8281555175781 363.4046630859375 C 328.2530822753906 359.3736267089844 329.6632385253906 354.845703125 327.8893127441406 350.9585876464844 C 325.981201171875 346.78411865234375 320.897705078125 344.8860168457031 316.3155517578125 345.1506652832031 C 314.5487976074219 345.2519836425781 312.7308349609375 345.6409912109375 311.3290100097656 346.7207336425781 C 310.17626953125 347.60791015625 309.3970031738281 348.8850402832031 308.71514892578125 350.1695251464844 C 306.56005859375 354.21759033203125 305.0791320800781 358.9964294433594 306.45654296875 363.36962890625 C 307.8478088378906 367.7762145996094 312.29022216796875 371.0436706542969 316.915283203125 371.0323791503906 C 321.5403137207031 371.0211181640625 325.9922790527344 367.77838134765625 327.3867492675781 363.3653564453125 L 326.8281555175781 363.4046630859375" stroke-width="0.6000000238418579" fill="rgb(140, 28, 33)" opacity="1.0"/>
    <path d="M 351.7524719238281 395.89892578125 C 347.8542785644531 396.2398681640625 343.8017272949219 396.63763427734375 340.4012145996094 398.57952880859375 C 337.0007629394531 400.5213928222656 334.419677734375 404.5022888183594 335.3458557128906 408.3063659667969 C 336.4996032714844 412.99951171875 342.62249755859375 415.11407470703125 347.13287353515625 413.35382080078125 C 351.6432189941406 411.59356689453125 354.578125 407.1535949707031 356.2214050292969 402.6057434082031 C 356.87115478515625 401.2488708496094 356.9886474609375 399.69781494140625 356.5506896972656 398.2585754394531 C 355.9723205566406 396.896240234375 353.9673767089844 396.10626220703125 352.9405212402344 397.18231201171875 L 351.7524719238281 395.89892578125" stroke-width="0.6000000238418579" fill="rgb(159, 159, 159)" opacity="1.0"/>
    <path d="M 185.441162109375 410.5035095214844 C 181.14016723632812 410.9866027832031 176.9110107421875 412.953857421875 174.2298583984375 416.3485107421875 C 171.5487060546875 419.7431640625 170.6402587890625 424.62744140625 172.46417236328125 428.570068359375 C 173.75723266601562 431.3558349609375 176.27923583984375 433.4591064453125 179.1116943359375 434.65338134765625 C 181.9442138671875 435.84765625 185.0704345703125 436.2015380859375 188.14422607421875 436.13671875 C 189.48187255859375 436.107666015625 190.88287353515625 435.98046875 191.9942626953125 435.24169921875 C 193.26885986328125 434.3953857421875 193.92889404296875 432.90386962890625 194.45758056640625 431.463134765625 C 195.95013427734375 427.395751953125 196.87615966796875 422.9447021484375 195.84710693359375 418.735595703125 C 194.81805419921875 414.5263671875 191.42138671875 410.68060302734375 187.12554931640625 410.2022399902344 L 185.441162109375 410.5035095214844" stroke-width="0.6000000238418579" fill="rgb(159, 159, 159)" opacity="1.0"/>
    <path d="M 358.2733459472656 371.9114685058594 C 354.27301025390625 372.9864196777344 349.87298583984375 374.35455322265625 347.7728271484375 377.91552734375 C 345.72552490234375 381.375732421875 346.5253601074219 385.7513427734375 347.45928955078125 389.6637268066406 C 347.84100341796875 391.2525329589844 348.26568603515625 392.9085388183594 349.3529052734375 394.12713623046875 C 351.1905517578125 396.189208984375 354.33135986328125 396.40106201171875 357.0651550292969 396.0361328125 C 359.60272216796875 395.69842529296875 362.07861328125 394.9980773925781 364.4171142578125 393.9565734863281 C 368.21478271484375 392.2668151855469 371.9132080078125 389.14208984375 372.1480407714844 384.99359130859375 C 372.2781066894531 382.754150390625 371.3440856933594 380.54595947265625 369.9869689941406 378.7555236816406 C 368.62982177734375 376.965087890625 366.86065673828125 375.53399658203125 365.0939636230469 374.1461181640625 C 363.3272705078125 372.75823974609375 361.5615539550781 371.4323425292969 359.43280029296875 370.90496826171875 L 358.2733459472656 371.9114685058594" stroke-width="0.6000000238418579" fill="rgb(218, 166, 20)" opacity="1.0"/>
    <path d="M 374.8849792480469 382.4514465332031 C 370.8072814941406 388.0740661621094 372.0596618652344 395.9377136230469 377.6822814941406 400.0154113769531 C 378.1637268066406 400.3645935058594 378.66937255859375 400.6791687011719 379.1953430175781 400.956787109375 C 381.1941833496094 402.0113220214844 383.5881652832031 402.50958251953125 385.74041748046875 401.8238220214844 C 387.55926513671875 401.2445068359375 389.02490234375 399.8970947265625 390.2814025878906 398.4617614746094 C 393.63946533203125 394.6150817871094 395.90631103515625 389.9394226074219 396.846435546875 384.92047119140625 C 397.09271240234375 383.5934143066406 397.2416687011719 382.20635986328125 396.8736877441406 380.9047546386719 C 396.2572326660156 378.7192687988281 394.2630310058594 377.15167236328125 392.12908935546875 376.3706359863281 C 388.96173095703125 375.2088928222656 385.3623352050781 375.4937744140625 382.2560729980469 376.8121643066406 C 379.14984130859375 378.13055419921875 376.5144958496094 380.4173889160156 374.4717102050781 383.1028747558594 L 374.8849792480469 382.4514465332031" stroke-width="0.6000000238418579" fill="rgb(143, 165, 67)" opacity="1.0"/>
    <path d="M 367.4460144042969 360.06011962890625 C 371.4056701660156 367.4407958984375 384.0738830566406 366.9266357421875 387.9526672363281 359.5639953613281 C 391.8314208984375 352.2013854980469 385.6924743652344 341.82147216796875 377.3495788574219 341.0518798828125 C 369.0067138671875 340.2822570800781 361.25341796875 348.4903869628906 361.8895263671875 356.852294921875 L 367.4460144042969 360.06011962890625" stroke-width="0.6000000238418579" fill="rgb(233, 92, 21)" opacity="1.0"/>
    <path d="M 397.6444396972656 362.8708190917969 C 398.0198974609375 366.9232177734375 398.888671875 371.7249450683594 402.64013671875 373.338134765625 C 404.1580505371094 373.9220275878906 405.81976318359375 374.0205383300781 407.39599609375 373.6199951171875 C 411.32269287109375 372.7339172363281 414.57635498046875 369.9995422363281 416.1251220703125 366.28399658203125 C 417.430908203125 363.1288146972656 417.3194580078125 359.6194763183594 417.1329345703125 356.2308044433594 C 417.025146484375 354.3274230957031 416.8499755859375 352.30859375 415.7144775390625 350.79022216796875 C 414.1844482421875 348.77874755859375 411.3967590332031 348.2498474121094 408.8719482421875 348.1578369140625 C 405.1770324707031 348.01861572265625 401.4839782714844 348.47833251953125 397.9359436035156 349.5191955566406 C 396.71075439453125 349.8811950683594 395.45281982421875 350.3421936035156 394.5780334472656 351.2726135253906 C 393.80889892578125 352.1793518066406 393.3201904296875 353.2903137207031 393.1715393066406 354.47003173828125 C 392.5814208984375 358.03094482421875 393.58306884765625 361.6714782714844 395.9117736816406 364.4292907714844 L 397.6444396972656 362.8708190917969" stroke-width="0.6000000238418579" fill="rgb(70, 150, 179)" opacity="1.0"/>
    <path d="M 388.2247619628906 415.706298828125 C 386.4517822265625 419.8123779296875 384.6589660644531 424.43817138671875 386.23480224609375 428.620849609375 C 387.9302978515625 433.113037109375 393.101318359375 435.4544677734375 397.9024658203125 435.50311279296875 C 399.7535705566406 435.52264404296875 401.6785583496094 435.24554443359375 403.2181701660156 434.218017578125 C 404.4841613769531 433.373779296875 405.3880310058594 432.09613037109375 406.1907653808594 430.8038330078125 C 408.72698974609375 426.73175048828125 410.6114501953125 421.84912109375 409.48394775390625 417.1871337890625 C 408.34429931640625 412.48944091796875 403.939453125 408.7642517089844 399.1115417480469 408.4481201171875 C 394.28363037109375 408.1319580078125 389.4072570800781 411.2007141113281 387.63897705078125 415.70770263671875 L 388.2247619628906 415.706298828125" stroke-width="0.6000000238418579" fill="rgb(140, 28, 33)" opacity="1.0"/>
    <path d="M 410.53778076171875 389.90496826171875 C 410.0030822753906 393.7586975097656 409.48919677734375 397.77459716796875 410.6165466308594 401.5012512207031 C 411.743896484375 405.22784423828125 415.029296875 408.61285400390625 418.921630859375 408.5594482421875 C 423.7261962890625 408.48284912109375 427.1343994140625 403.0179748535156 426.429443359375 398.2559814453125 C 425.72442626953125 393.4939880371094 422.0726318359375 389.6641845703125 418.0296630859375 387.0622253417969 C 416.85882568359375 386.1313781738281 415.381591796875 385.67327880859375 413.88958740234375 385.7783203125 C 412.44085693359375 386.0365295410156 411.23028564453125 387.8043518066406 412.0452880859375 389.0383605957031 L 410.53778076171875 389.90496826171875" stroke-width="0.6000000238418579" fill="rgb(159, 159, 159)" opacity="1.0"/>
    <path d="M 436.111083984375 369.0399475097656 C 436.8419189453125 373.26397705078125 439.03582763671875 377.3296203613281 442.5499267578125 379.7807312011719 C 446.0640869140625 382.2318420410156 450.94677734375 382.84259033203125 454.737548828125 380.8072204589844 C 457.4158935546875 379.36480712890625 459.346923828125 376.74749755859375 460.36102294921875 373.8766784667969 C 461.3751220703125 371.0058288574219 461.541015625 367.8940734863281 461.2960205078125 364.8587341308594 C 461.1885986328125 363.53790283203125 460.9803466796875 362.1601867675781 460.1845703125 361.1048278808594 C 459.272705078125 359.8944396972656 457.7591552734375 359.3296203613281 456.30364990234375 358.8916931152344 C 452.1943359375 357.6553649902344 447.739013671875 357.0017395019531 443.63787841796875 358.26690673828125 C 439.5367431640625 359.5320739746094 435.9342041015625 363.11676025390625 435.714111328125 367.3923034667969 L 436.111083984375 369.0399475097656" stroke-width="0.6000000238418579" fill="rgb(159, 159, 159)" opacity="1.0"/>
    <path d="M 423.6304931640625 409.7685241699219 C 419.715087890625 411.4798278808594 415.43719482421875 413.5516357421875 413.84222412109375 417.5068359375 C 412.28570556640625 421.35101318359375 413.7740478515625 425.69140625 415.3280029296875 429.5386962890625 C 415.9615478515625 431.1007080078125 416.6492919921875 432.724609375 417.945556640625 433.800537109375 C 420.136962890625 435.62152099609375 423.37335205078125 435.3548583984375 426.1058349609375 434.5625 C 428.642333984375 433.8280029296875 431.060302734375 432.733154296875 433.2855224609375 431.311279296875 C 436.899658203125 429.0040283203125 440.1920166015625 425.2481689453125 439.7939453125 420.98046875 C 439.5823974609375 418.6761474609375 438.290283203125 416.56719970703125 436.6307373046875 414.949462890625 C 434.97125244140625 413.33172607421875 432.9466552734375 412.14385986328125 430.9312744140625 410.99969482421875 C 428.91583251953125 409.8554992675781 426.91094970703125 408.7744140625 424.658447265625 408.56365966796875 L 423.6304931640625 409.7685241699219" stroke-width="0.6000000238418579" fill="rgb(218, 166, 20)" opacity="1.0"/>
    <path d="M 141.50457763671875 225.54266357421875 C 137.48133850097656 231.427001953125 138.9900360107422 239.45867919921875 144.87435913085938 243.48193359375 C 145.37823486328125 243.826416015625 145.90591430664062 244.134765625 146.4534454345703 244.40460205078125 C 148.5340576171875 245.42953491210938 151.00424194335938 245.87249755859375 153.19271850585938 245.10772705078125 C 155.04217529296875 244.46160888671875 156.50741577148438 243.03759765625 157.755615234375 241.52932739257812 C 161.09112548828125 237.48739624023438 163.28353881835938 232.6260986328125 164.10516357421875 227.45037841796875 C 164.32000732421875 226.08193969726562 164.433349609375 224.65472412109375 164.01876831054688 223.32989501953125 C 163.32412719726562 221.1053466796875 161.233642578125 219.55392456054688 159.02218627929688 218.81341552734375 C 155.73973083496094 217.71173095703125 152.05520629882812 218.10650634765625 148.90603637695312 219.5474853515625 C 145.7568817138672 220.98846435546875 143.11839294433594 223.4095458984375 141.09913635253906 226.22271728515625 L 141.50457763671875 225.54266357421875" stroke-width="0.6000000238418579" fill="rgb(143, 165, 67)" opacity="1.0"/>
    <path d="M 170.2476806640625 262.0210266113281 C 173.10931396484375 269.88714599609375 185.71292114257812 271.1890869140625 190.6016845703125 264.4610900878906 C 195.49038696289062 257.7330627441406 190.90185546875 246.58895874023438 182.75991821289062 244.63540649414062 C 174.61798095703125 242.68182373046875 165.776123046875 249.6923828125 165.21023559570312 258.0540466308594 L 170.2476806640625 262.0210266113281" stroke-width="0.6000000238418579" fill="rgb(233, 92, 21)" opacity="1.0"/>
    <path d="M 150.88450622558594 316.9931640625 C 148.17840576171875 320.0904235839844 145.26712036132812 324.07080078125 146.698486328125 327.9415588378906 C 147.32806396484375 329.45977783203125 148.41322326660156 330.7452392578125 149.8043212890625 331.6205749511719 C 153.18797302246094 333.8790283203125 157.45635986328125 334.3573303222656 161.2559814453125 332.9038391113281 C 164.47592163085938 331.66259765625 166.96817016601562 329.1368713378906 169.31988525390625 326.6402893066406 C 170.63864135742188 325.2357177734375 171.99505615234375 323.701416015625 172.316162109375 321.81243896484375 C 172.72357177734375 319.29107666015625 171.16937255859375 316.8812561035156 169.47833251953125 314.9682312011719 C 167.0069580078125 312.16546630859375 164.0982666015625 309.78118896484375 160.864990234375 307.9078674316406 C 159.74661254882812 307.26275634765625 158.532958984375 306.6626281738281 157.2423095703125 306.6700134277344 C 156.04266357421875 306.73828125 154.88873291015625 307.15411376953125 153.9213104248047 307.86688232421875 C 150.9026336669922 309.91473388671875 148.9342498779297 313.1837158203125 148.5364990234375 316.8097229003906 L 150.88450622558594 316.9931640625" stroke-width="0.6000000238418579" fill="rgb(70, 150, 179)" opacity="1.0"/>
    <path d="M 124.62411499023438 305.1759948730469 C 123.40008544921875 300.8647766113281 121.8623046875 296.13751220703125 117.98953247070312 293.88787841796875 C 113.82785034179688 291.4737548828125 108.3297119140625 292.93084716796875 104.57099914550781 295.9339904785156 C 103.12130737304688 297.09124755859375 101.8021240234375 298.5256652832031 101.25747680664062 300.29864501953125 C 100.80917358398438 301.7559509277344 100.91656494140625 303.3205261230469 101.11178588867188 304.83233642578125 C 101.72163391113281 309.6005859375 103.35092163085938 314.5853576660156 107.17913818359375 317.49102783203125 C 111.0394287109375 320.4168701171875 116.81906127929688 320.5194396972656 120.76800537109375 317.7070617675781 C 124.71694946289062 314.8946838378906 126.55963134765625 309.42333984375 125.07806396484375 304.8038635253906 L 124.62411499023438 305.1759948730469" stroke-width="0.6000000238418579" fill="rgb(140, 28, 33)" opacity="1.0"/>
    <path d="M 139.59165954589844 277.803466796875 C 136.06875610351562 279.4333801269531 132.42092895507812 281.168212890625 129.90115356445312 284.1245422363281 C 127.38143920898438 287.08087158203125 126.31243896484375 291.6642150878906 128.456787109375 294.90234375 C 131.11265563964844 298.8935852050781 137.53781127929688 298.80645751953125 141.1543731689453 295.6461181640625 C 144.77093505859375 292.4858093261719 146.01560974121094 287.3550109863281 146.01870727539062 282.5581970214844 C 146.16844177246094 281.0733642578125 145.7561492919922 279.5864562988281 144.86317443847656 278.39080810546875 C 143.8650360107422 277.31414794921875 141.72828674316406 277.25164794921875 141.1321563720703 278.6012878417969 L 139.59165954589844 277.803466796875" stroke-width="0.6000000238418579" fill="rgb(159, 159, 159)" opacity="1.0"/>
    <path d="M 162.470458984375 290.21929931640625 C 161.11126708984375 294.30804443359375 161.12335205078125 298.9515380859375 163.07183837890625 302.79205322265625 C 165.02029418945312 306.6325378417969 169.05523681640625 309.492919921875 173.37991333007812 309.49072265625 C 176.4375 309.48529052734375 179.391357421875 308.0841979980469 181.6533203125 306.02294921875 C 183.91534423828125 303.9617004394531 185.5404052734375 301.28411865234375 186.7652587890625 298.47906494140625 C 187.29754638671875 297.258056640625 187.76751708984375 295.9387512207031 187.56396484375 294.6258850097656 C 187.33123779296875 293.12060546875 186.25885009765625 291.9013366699219 185.17755126953125 290.8219909667969 C 182.12481689453125 287.77484130859375 178.48883056640625 285.0794372558594 174.25509643554688 284.2519836425781 C 170.0213623046875 283.4245300292969 165.12744140625 284.8885803222656 162.90145874023438 288.57122802734375 L 162.470458984375 290.21929931640625" stroke-width="0.6000000238418579" fill="rgb(159, 159, 159)" opacity="1.0"/>
    <path d="M 123.43170166015625 344.0646057128906 C 122.91854858398438 339.80303955078125 122.16352844238281 335.08831787109375 118.8204345703125 332.40948486328125 C 115.57293701171875 329.79974365234375 110.96696472167969 329.97540283203125 106.81640625 330.3569030761719 C 105.13052368164062 330.51434326171875 103.36935424804688 330.7059631347656 101.95925903320312 331.6415710449219 C 99.57339477539062 333.2226257324219 98.89334106445312 336.4129943847656 98.86483764648438 339.27081298828125 C 98.83734130859375 341.9233703613281 99.19088745117188 344.5661315917969 99.91462707519531 347.1181945800781 C 101.08827209472656 351.262451171875 103.7484130859375 355.516357421875 107.96896362304688 356.36846923828125 C 110.24679565429688 356.83184814453125 112.6494140625 356.1991882324219 114.68582153320312 355.0709533691406 C 116.72225952148438 353.9427185058594 118.45079040527344 352.33892822265625 120.13465881347656 350.7312927246094 C 121.81852722167969 349.1236877441406 123.43865966796875 347.5079650878906 124.29324340820312 345.40216064453125 L 123.43170166015625 344.0646057128906" stroke-width="0.6000000238418579" fill="rgb(218, 166, 20)" opacity="1.0"/>
    <path d="M 163.9921875 349.27001953125 C 158.49044799804688 353.63916015625 157.57229614257812 361.6410827636719 161.94143676757812 367.1427917480469 C 162.3155517578125 367.6139221191406 162.72265625 368.0578918457031 163.15960693359375 368.4714050292969 C 164.82025146484375 370.0423278808594 167.01718139648438 371.1787414550781 169.300537109375 371.09588623046875 C 171.23013305664062 371.02606201171875 173.02444458007812 370.1118469238281 174.638916015625 369.05511474609375 C 178.95660400390625 366.22052001953125 182.43655395507812 362.28155517578125 184.71728515625 357.6473693847656 C 185.31805419921875 356.4214172363281 185.84036254882812 355.1105651855469 185.83578491210938 353.74237060546875 C 185.8294677734375 351.4454650878906 184.3128662109375 349.3759460449219 182.4461669921875 348.03472900390625 C 179.67620849609375 346.04156494140625 176.0919189453125 345.34039306640625 172.70709228515625 345.78021240234375 C 169.322265625 346.2200012207031 166.13287353515625 347.7314147949219 163.41238403320312 349.7923278808594 L 163.9921875 349.27001953125" stroke-width="0.6000000238418579" fill="rgb(143, 165, 67)" opacity="1.0"/>
    <path d="M 133.96737670898438 380.6242370605469 C 130.529052734375 373.2569580078125 118.22366333007812 373.0700378417969 114.06623840332031 379.9958190917969 C 109.90884399414062 386.921630859375 115.29702758789062 397.3135070800781 123.34100341796875 398.5106506347656 C 131.38499450683594 399.7077941894531 139.34320068359375 392.17218017578125 139.1790008544922 384.0337219238281 L 133.96737670898438 380.6242370605469" stroke-width="0.6000000238418579" fill="rgb(233, 92, 21)" opacity="1.0"/>
    <path d="M 186.0263671875 363.8638916015625 C 184.7659912109375 367.7372741699219 183.66217041015625 372.4948425292969 186.47113037109375 375.46380615234375 C 187.63494873046875 376.6018371582031 189.12322998046875 377.3506774902344 190.73068237304688 377.60699462890625 C 194.69082641601562 378.3482666015625 198.76461791992188 377.1240539550781 201.66015625 374.3226013183594 C 204.11029052734375 371.93994140625 205.39813232421875 368.6702575683594 206.56927490234375 365.4818115234375 C 207.22427368164062 363.68963623046875 207.86306762695312 361.76470947265625 207.42098999023438 359.9192810058594 C 206.81158447265625 357.4643249511719 204.4588623046875 355.873779296875 202.17471313476562 354.7889709472656 C 198.83380126953125 353.1971435546875 195.25732421875 352.1565856933594 191.58389282226562 351.7076416015625 C 190.31436157226562 351.5549621582031 188.97555541992188 351.48028564453125 187.80288696289062 351.9889221191406 C 186.73672485351562 352.5176086425781 185.847412109375 353.3450927734375 185.243408203125 354.3704833984375 C 183.290283203125 357.40960693359375 182.76861572265625 361.15252685546875 183.81640625 364.6098937988281 L 186.0263671875 363.8638916015625" stroke-width="0.6000000238418579" fill="rgb(70, 150, 179)" opacity="1.0"/>
  </g>
</svg>
