<?xml version="1.0" ?>
<svg xmlns="http://www.w3.org/2000/svg" version="1.1" width="600" height="600">
  <defs/>
  <g>
    <path d="M 351.7637023925781 349.5527038574219 C 355.2155456542969 353.41424560546875 362.75567626953125 351.26568603515625 364.01812744140625 346.2768249511719 C 365.280517578125 341.2879638671875 360.0832214355469 335.9400634765625 354.95660400390625 336.6888732910156 C 349.8299865722656 337.4377136230469 346.36138916015625 343.49737548828125 347.9579162597656 348.4313049316406 L 351.7637023925781 349.5527038574219" stroke-width="0.6000000238418579" fill="rgb(233, 92, 21)" opacity="1.0"/>
    <path d="M 105.41361999511719 203.51324462890625 C 106.96237182617188 201.71389770507812 108.62579345703125 199.40386962890625 107.78303527832031 197.17575073242188 C 107.41314697265625 196.30209350585938 106.78126525878906 195.56475830078125 105.97454833984375 195.0654296875 C 104.01179504394531 193.77630615234375 101.54595947265625 193.51846313476562 99.35897827148438 194.37371826171875 C 97.50567626953125 195.10394287109375 96.07789611816406 196.57247924804688 94.73114013671875 198.02362060546875 C 93.97592163085938 198.83999633789062 93.19955444335938 199.7314453125 93.02227783203125 200.82318115234375 C 92.79791259765625 202.2802734375 93.70530700683594 203.66461181640625 94.68959045410156 204.7615966796875 C 96.12808227539062 206.36883544921875 97.8172607421875 207.732666015625 99.69155883789062 208.80014038085938 C 100.33987426757812 209.167724609375 101.04298400878906 209.50894165039062 101.78793334960938 209.4991455078125 C 102.4801025390625 209.45462036132812 103.14439392089844 209.20965576171875 103.69976806640625 208.79412841796875 C 105.43344116210938 207.59912109375 106.55563354492188 205.70379638671875 106.76971435546875 203.60910034179688 L 105.41361999511719 203.51324462890625" stroke-width="0.6000000238418579" fill="rgb(70, 150, 179)" opacity="1.0"/>
    <path d="M 455.76513671875 425.8306884765625 C 456.6160888671875 428.07550048828125 457.653564453125 430.5279541015625 459.82373046875 431.551025390625 C 462.155517578125 432.6485595703125 465.0230712890625 431.6187744140625 466.89141845703125 429.8436279296875 C 467.612060546875 429.1595458984375 468.2503662109375 428.33349609375 468.459716796875 427.3623046875 C 468.6322021484375 426.56396484375 468.50311279296875 425.73382568359375 468.32958984375 424.9359130859375 C 467.78546142578125 422.4190673828125 466.68731689453125 419.8333740234375 464.51092529296875 418.4581298828125 C 462.3165283203125 417.0736083984375 459.2271728515625 417.28387451171875 457.24853515625 418.9659423828125 C 455.2698974609375 420.64801025390625 454.537353515625 423.652587890625 455.5399169921875 426.05010986328125 L 455.76513671875 425.8306884765625" stroke-width="0.6000000238418579" fill="rgb(140, 28, 33)" opacity="1.0"/>
    <path d="M 87.08157348632812 201.99169921875 C 89.32904052734375 201.33282470703125 91.660400390625 200.6224365234375 93.4273681640625 199.08267211914062 C 95.1943359375 197.54290771484375 96.24046325683594 194.90298461914062 95.24923706054688 192.77963256835938 C 94.01980590820312 190.16131591796875 90.17782592773438 189.64105224609375 87.7381591796875 191.20489501953125 C 85.29849243164062 192.76870727539062 84.0987548828125 195.71966552734375 83.669677734375 198.5819091796875 C 83.44808959960938 199.45465087890625 83.56169128417969 200.378662109375 83.98809814453125 201.17169189453125 C 84.48783874511719 201.90310668945312 85.75738525390625 202.1307373046875 86.23333740234375 201.37841796875 L 87.08157348632812 201.99169921875" stroke-width="0.6000000238418579" fill="rgb(159, 159, 159)" opacity="1.0"/>
    <path d="M 377.5525207519531 296.55523681640625 C 379.3712158203125 295.3106384277344 380.8031311035156 293.41583251953125 381.1979675292969 291.2488708496094 C 381.5927734375 289.0819091796875 380.8346252441406 286.6684875488281 379.07269287109375 285.3312072753906 C 377.8258056640625 284.3873291015625 376.1893005371094 284.0439147949219 374.63031005859375 284.1834411621094 C 373.0712890625 284.3229675292969 371.5809631347656 284.91058349609375 370.21417236328125 285.6739501953125 C 369.61956787109375 286.0065002441406 369.01995849609375 286.39837646484375 368.6966247558594 286.99603271484375 C 368.32562255859375 287.6810607910156 368.3851013183594 288.50946044921875 368.491455078125 289.2835998535156 C 368.7918395996094 291.46917724609375 369.4385681152344 293.69195556640625 370.90673828125 295.3389587402344 C 372.3749084472656 296.9859619140625 374.82098388671875 297.904052734375 376.8670349121094 297.0930480957031 L 377.5525207519531 296.55523681640625" stroke-width="0.6000000238418579" fill="rgb(159, 159, 159)" opacity="1.0"/>
    <path d="M 96.68746948242188 433.91400146484375 C 97.08987426757812 431.5936279296875 97.4366455078125 428.9970703125 96.10235595703125 427.0621337890625 C 94.80738830566406 425.1785888671875 92.35929870605469 424.5445556640625 90.11807250976562 424.0904541015625 C 89.20732116699219 423.9073486328125 88.25161743164062 423.730224609375 87.36308288574219 423.99951171875 C 85.86000061035156 424.4541015625 84.99951171875 426.0233154296875 84.53382873535156 427.5206298828125 C 84.10107421875 428.91015625 83.87008666992188 430.35467529296875 83.84793090820312 431.80987548828125 C 83.81109619140625 434.1727294921875 84.53811645507812 436.82763671875 86.62158203125 437.9410400390625 C 87.7454833984375 438.543701171875 89.10780334472656 438.5902099609375 90.35585021972656 438.3184814453125 C 91.60389709472656 438.0467529296875 92.76513671875 437.4765625 93.90353393554688 436.8973388671875 C 95.04191589355469 436.318115234375 96.14808654785156 435.72454833984375 96.92926025390625 434.75274658203125 L 96.68746948242188 433.91400146484375" stroke-width="0.6000000238418579" fill="rgb(218, 166, 20)" opacity="1.0"/>
    <path d="M 101.40603637695312 139.39102172851562 C 105.44406127929688 140.10838317871094 109.29908752441406 137.4164581298828 110.01644897460938 133.37841796875 C 110.077880859375 133.0326385498047 110.11470031738281 132.6829376220703 110.12664794921875 132.33193969726562 C 110.17176818847656 130.99826049804688 109.81950378417969 129.5979766845703 108.9005126953125 128.6312713623047 C 108.12399291992188 127.81425476074219 107.03044128417969 127.38284301757812 105.94406127929688 127.08518981933594 C 103.03500366210938 126.29248046875 99.96673583984375 126.29315185546875 97.05801391601562 127.08712768554688 C 96.28948974609375 127.29827880859375 95.51420593261719 127.57661437988281 94.91752624511719 128.1075439453125 C 93.91529846191406 128.998291015625 93.59640502929688 130.46176147460938 93.73141479492188 131.7967529296875 C 93.93046569824219 133.7788848876953 95.00944519042969 135.6177520751953 96.51040649414062 136.92825317382812 C 98.01133728027344 138.23875427246094 99.90544128417969 139.04949951171875 101.858642578125 139.4427032470703 L 101.40603637695312 139.39102172851562" stroke-width="0.6000000238418579" fill="rgb(143, 165, 67)" opacity="1.0"/>
    <path d="M 452.7216796875 344.8951721191406 C 456.9794921875 347.9223937988281 463.9161376953125 344.1248779296875 464.0435791015625 338.935791015625 C 464.1708984375 333.7467346191406 457.8642578125 329.64739990234375 452.989013671875 331.529052734375 C 448.1136474609375 333.4106750488281 446.055419921875 340.1457824707031 448.72784423828125 344.6422424316406 L 452.7216796875 344.8951721191406" stroke-width="0.6000000238418579" fill="rgb(233, 92, 21)" opacity="1.0"/>
    <path d="M 102.69711303710938 216.77566528320312 C 104.35311889648438 214.90451049804688 106.13720703125 212.49761962890625 105.28262329101562 210.1405029296875 C 104.90602111816406 209.21572875976562 104.25173950195312 208.43057250976562 103.41000366210938 207.89340209960938 C 101.36312866210938 206.50823974609375 98.7718505859375 206.20111083984375 96.4578857421875 207.0694580078125 C 94.49688720703125 207.81103515625 92.97300720214844 209.3358154296875 91.53463745117188 210.84344482421875 C 90.72801208496094 211.69161987304688 89.89802551269531 212.61846923828125 89.69561767578125 213.76483154296875 C 89.4383544921875 215.2950439453125 90.37319946289062 216.76507568359375 91.39314270019531 217.93380737304688 C 92.88368225097656 219.6461181640625 94.64155578613281 221.10589599609375 96.59857177734375 222.25650024414062 C 97.2755126953125 222.65277099609375 98.010498046875 223.02203369140625 98.79461669921875 223.02255249023438 C 99.52371215820312 222.9857177734375 100.22634887695312 222.737548828125 100.81683349609375 222.30828857421875 C 102.65869140625 221.07589721679688 103.8671875 219.0975341796875 104.12286376953125 216.89620971679688 L 102.69711303710938 216.77566528320312" stroke-width="0.6000000238418579" fill="rgb(70, 150, 179)" opacity="1.0"/>
    <path d="M 102.058837890625 82.453857421875 C 102.25404357910156 85.22517395019531 102.5867919921875 88.28875732421875 104.65093994140625 90.14553833007812 C 106.8695068359375 92.13882446289062 110.39057922363281 91.95291137695312 113.05258178710938 90.60806274414062 C 114.07914733886719 90.08999633789062 115.06172180175781 89.38717651367188 115.61735534667969 88.38056945800781 C 116.07443237304688 87.55325317382812 116.20794677734375 86.59030151367188 116.281494140625 85.64820861816406 C 116.5169677734375 82.67759704589844 116.16140747070312 79.44615173339844 114.20759582519531 77.19696044921875 C 112.23687744140625 74.93145751953125 108.74307250976562 74.13526916503906 105.98988342285156 75.34022521972656 C 103.2366943359375 76.54519653320312 101.42381286621094 79.63095092773438 101.73614501953125 82.62200927734375 L 102.058837890625 82.453857421875" stroke-width="0.6000000238418579" fill="rgb(140, 28, 33)" opacity="1.0"/>
    <path d="M 90.67088317871094 418.9031982421875 C 93.01002502441406 418.383056640625 95.43829345703125 417.81610107421875 97.34669494628906 416.36407470703125 C 99.25506591796875 414.912109375 100.50222778320312 412.28802490234375 99.6343994140625 410.05303955078125 C 98.5570068359375 407.29656982421875 94.67007446289062 406.50469970703125 92.07330322265625 407.93560791015625 C 89.47653198242188 409.36651611328125 88.05145263671875 412.29766845703125 87.41915893554688 415.1905517578125 C 87.13369750976562 416.0665283203125 87.18695068359375 417.017578125 87.56845092773438 417.8560791015625 C 88.02899169921875 418.63671875 89.30960083007812 418.9552001953125 89.8465576171875 418.219482421875 L 90.67088317871094 418.9031982421875" stroke-width="0.6000000238418579" fill="rgb(159, 159, 159)" opacity="1.0"/>
    <path d="M 468.461669921875 60.5601806640625 C 469.7998046875 58.39198303222656 470.42425537109375 55.71807861328125 469.82513427734375 53.24299621582031 C 469.22601318359375 50.767913818359375 467.29290771484375 48.57318115234375 464.8038330078125 47.986419677734375 C 463.04345703125 47.57379150390625 461.153076171875 47.97845458984375 459.571044921875 48.85710144042969 C 457.98907470703125 49.735748291015625 456.68975830078125 51.055694580078125 455.603515625 52.50341796875 C 455.131103515625 53.133697509765625 454.6812744140625 53.82904052734375 454.61993408203125 54.61224365234375 C 454.5491943359375 55.510162353515625 455.00054931640625 56.357635498046875 455.47607421875 57.12580871582031 C 456.8184814453125 59.29449462890625 458.54449462890625 61.34004211425781 460.868408203125 62.39189147949219 C 463.1923828125 63.443756103515625 466.207763671875 63.26666259765625 467.989501953125 61.45001220703125 L 468.461669921875 60.5601806640625" stroke-width="0.6000000238418579" fill="rgb(159, 159, 159)" opacity="1.0"/>
    <path d="M 93.68168640136719 107.23800659179688 C 95.99967956542969 108.20719909667969 98.61822509765625 109.18408203125 100.94744873046875 108.25540161132812 C 103.21389770507812 107.35543823242188 104.45436096191406 104.95953369140625 105.45854187011719 102.736083984375 C 105.86514282226562 101.83224487304688 106.27609252929688 100.88018798828125 106.20686340332031 99.89208984375 C 106.09072875976562 98.22079467773438 104.66268920898438 96.953369140625 103.21583557128906 96.11369323730469 C 101.87319946289062 95.33380126953125 100.425537109375 94.75076293945312 98.91716003417969 94.38238525390625 C 96.46820068359375 93.78335571289062 93.53419494628906 93.9095458984375 91.8817138671875 95.81243896484375 C 90.98809814453125 96.83843994140625 90.61648559570312 98.24441528320312 90.60293579101562 99.60702514648438 C 90.58941650390625 100.96966552734375 90.90690612792969 102.31283569335938 91.2392578125 103.63436889648438 C 91.57159423828125 104.95590209960938 91.92645263671875 106.24734497070312 92.75189208984375 107.29046630859375 L 93.68168640136719 107.23800659179688" stroke-width="0.6000000238418579" fill="rgb(218, 166, 20)" opacity="1.0"/>
    <path d="M 121.57492065429688 128.3184051513672 C 125.52473449707031 126.900146484375 127.57695007324219 122.5484619140625 126.15867614746094 118.59864807128906 C 126.0372314453125 118.26042175292969 125.89193725585938 117.93124389648438 125.72390747070312 117.61358642578125 C 125.085205078125 116.40664672851562 124.05984497070312 115.34284973144531 122.75202941894531 114.95236206054688 C 121.64688110351562 114.62228393554688 120.45652770996094 114.79583740234375 119.34062194824219 115.08450317382812 C 116.35470581054688 115.86131286621094 113.6312255859375 117.4234619140625 111.453125 119.608642578125 C 110.87835693359375 120.18722534179688 110.33175659179688 120.82888793945312 110.07228088378906 121.6038818359375 C 109.63589477539062 122.90470886230469 110.09761047363281 124.36616516113281 110.89688110351562 125.48258972167969 C 112.08236694335938 127.14089965820312 113.97608947753906 128.22418212890625 115.97549438476562 128.62367248535156 C 117.97489929199219 129.02317810058594 120.06898498535156 128.7789306640625 122.00302124023438 128.13394165039062 L 121.57492065429688 128.3184051513672" stroke-width="0.6000000238418579" fill="rgb(143, 165, 67)" opacity="1.0"/>
    <path d="M 392.5135192871094 303.7270812988281 C 395.511962890625 308.0019836425781 403.3153381347656 306.7440490722656 405.170166015625 301.8989562988281 C 407.0249938964844 297.0538635253906 402.4551086425781 291.0841064453125 397.2338562011719 291.2265625 C 392.0126037597656 291.3689880371094 387.82220458984375 297.0248107910156 388.8361511230469 302.1535949707031 L 392.5135192871094 303.7270812988281" stroke-width="0.6000000238418579" fill="rgb(233, 92, 21)" opacity="1.0"/>
    <path d="M 121.32823181152344 111.83995056152344 C 123.08663940429688 110.08792114257812 125.00540161132812 107.81271362304688 124.304931640625 105.42254638671875 C 123.98915100097656 104.48219299316406 123.38937377929688 103.66299438476562 122.58828735351562 103.07797241210938 C 120.64517211914062 101.57717895507812 118.09515380859375 101.11126708984375 115.74688720703125 101.82803344726562 C 113.75645446777344 102.44114685058594 112.15061950683594 103.85797119140625 110.63063049316406 105.26312255859375 C 109.778076171875 106.0538330078125 108.89744567871094 106.92108154296875 108.6253662109375 108.04502868652344 C 108.27499389648438 109.54612731933594 109.11029052734375 111.06182861328125 110.0487060546875 112.28411865234375 C 111.41986083984375 114.07464599609375 113.07177734375 115.63142395019531 114.94039916992188 116.89408874511719 C 115.58688354492188 117.32913208007812 116.2926025390625 117.74104309082031 117.06997680664062 117.79039001464844 C 117.79513549804688 117.79928588867188 118.50723266601562 117.59701538085938 119.11941528320312 117.20819091796875 C 121.02227783203125 116.10104370117188 122.34367370605469 114.21487426757812 122.73428344726562 112.04826354980469 L 121.32823181152344 111.83995056152344" stroke-width="0.6000000238418579" fill="rgb(70, 150, 179)" opacity="1.0"/>
    <path d="M 425.9293212890625 70.49420166015625 C 426.9644775390625 72.83187866210938 428.2100830078125 75.37956237792969 430.5771484375 76.34149169921875 C 433.1204833984375 77.373291015625 436.1099853515625 76.11177062988281 437.99371337890625 74.11566162109375 C 438.7203369140625 73.34634399414062 439.35107421875 72.430908203125 439.51739501953125 71.38595581054688 C 439.6544189453125 70.52700805664062 439.468994140625 69.65179443359375 439.2381591796875 68.81338500976562 C 438.513427734375 66.16856384277344 437.195556640625 63.48274230957031 434.8013916015625 62.14666748046875 C 432.3875732421875 60.801788330078125 429.1146240234375 61.20472717285156 427.1082763671875 63.10826110839844 C 425.10186767578125 65.01179504394531 424.497314453125 68.24934387207031 425.7025146484375 70.7406005859375 L 425.9293212890625 70.49420166015625" stroke-width="0.6000000238418579" fill="rgb(140, 28, 33)" opacity="1.0"/>
    <path d="M 115.02395629882812 416.75067138671875 C 116.48907470703125 414.95513916015625 117.99382019042969 413.07061767578125 118.5738525390625 410.8251953125 C 119.15383911132812 408.579833984375 118.52992248535156 405.8401794433594 116.53265380859375 404.662353515625 C 114.06399536132812 403.2139587402344 110.6378173828125 404.9397888183594 109.52236938476562 407.581298828125 C 108.40689086914062 410.22283935546875 109.07958984375 413.30224609375 110.33145141601562 415.8779296875 C 110.63909912109375 416.714111328125 111.24897766113281 417.404541015625 112.040771484375 417.81298828125 C 112.85791015625 418.13006591796875 114.021240234375 417.605224609375 113.98854064941406 416.7249755859375 L 115.02395629882812 416.75067138671875" stroke-width="0.6000000238418579" fill="rgb(159, 159, 159)" opacity="1.0"/>
    <path d="M 454.873046875 433.75299072265625 C 455.7899169921875 431.32958984375 455.896484375 428.539306640625 454.81982421875 426.1839599609375 C 453.74322509765625 423.8287353515625 451.388916015625 422.01116943359375 448.7904052734375 421.906494140625 C 446.953125 421.8348388671875 445.14404296875 422.604248046875 443.734375 423.787353515625 C 442.32476806640625 424.97039794921875 441.28271484375 426.5394287109375 440.47802734375 428.19476318359375 C 440.1282958984375 428.9154052734375 439.8135986328125 429.696533203125 439.90374755859375 430.4903564453125 C 440.0067138671875 431.4005126953125 440.62109375 432.159423828125 441.244384765625 432.8343505859375 C 443.00390625 434.7401123046875 445.12255859375 436.44873046875 447.6461181640625 437.04962158203125 C 450.16961669921875 437.6505126953125 453.14599609375 436.89080810546875 454.57373046875 434.732666015625 L 454.873046875 433.75299072265625" stroke-width="0.6000000238418579" fill="rgb(159, 159, 159)" opacity="1.0"/>
    <path d="M 451.4722900390625 284.8836364746094 C 453.02410888671875 282.8492736816406 454.660888671875 280.5207824707031 454.34564208984375 277.9866638183594 C 454.04248046875 275.5217590332031 452.001220703125 273.6825866699219 450.069091796875 272.1206359863281 C 449.283203125 271.4872741699219 448.45098876953125 270.8371887207031 447.4595947265625 270.6509704589844 C 445.782958984375 270.3350524902344 444.1663818359375 271.4157409667969 442.966552734375 272.6251220703125 C 441.85235595703125 273.7471923828125 440.9051513671875 275.0234375 440.15374755859375 276.414794921875 C 438.93292236328125 278.67352294921875 438.3017578125 281.5968933105469 439.75115966796875 283.715087890625 C 440.531982421875 284.8597717285156 441.82159423828125 285.5879211425781 443.16070556640625 285.9521484375 C 444.49981689453125 286.3163757324219 445.905029296875 286.3493957519531 447.292724609375 286.36224365234375 C 448.680419921875 286.3750915527344 450.044189453125 286.35797119140625 451.2845458984375 285.8132629394531 L 451.4722900390625 284.8836364746094" stroke-width="0.6000000238418579" fill="rgb(218, 166, 20)" opacity="1.0"/>
    <path d="M 418.5247802734375 359.8229064941406 C 421.27099609375 363.2763671875 426.296875 363.8497009277344 429.7503662109375 361.10345458984375 C 430.04608154296875 360.8683166503906 430.32470703125 360.6124572753906 430.584228515625 360.3378601074219 C 431.5701904296875 359.2942810058594 432.282958984375 357.9140625 432.22998046875 356.4800720214844 C 432.185302734375 355.26824951171875 431.6104736328125 354.1417236328125 430.9461669921875 353.1282043457031 C 429.16412353515625 350.417724609375 426.6888427734375 348.23382568359375 423.7774658203125 346.8033447265625 C 423.00732421875 346.4265441894531 422.183837890625 346.09906005859375 421.3245849609375 346.1025085449219 C 419.88201904296875 346.107421875 418.5828857421875 347.0607604980469 417.7413330078125 348.233642578125 C 416.49072265625 349.97412109375 416.0518798828125 352.2254638671875 416.3294677734375 354.35107421875 C 416.6070556640625 356.4766845703125 417.5576171875 358.4790954589844 418.85302734375 360.18682861328125 L 418.5247802734375 359.8229064941406" stroke-width="0.6000000238418579" fill="rgb(143, 165, 67)" opacity="1.0"/>
    <path d="M 450.583984375 353.7427673339844 C 453.416015625 349.7637939453125 449.86920166015625 343.2771911621094 445.0181884765625 343.1556091308594 C 440.167236328125 343.0340576171875 436.3319091796875 348.92791748046875 438.08868408203125 353.4865417480469 C 439.845458984375 358.045166015625 446.14080810546875 359.9725646972656 450.3455810546875 357.4763488769531 L 450.583984375 353.7427673339844" stroke-width="0.6000000238418579" fill="rgb(233, 92, 21)" opacity="1.0"/>
    <path d="M 453.1680908203125 77.17205810546875 C 454.804931640625 75.50308227539062 456.5870361328125 73.33970642089844 455.90142822265625 71.09652709960938 C 455.5938720703125 70.21444702148438 455.0201416015625 69.44955444335938 454.2593994140625 68.90736389160156 C 452.413330078125 67.51519775390625 450.0069580078125 67.10421752929688 447.80340576171875 67.80470275878906 C 445.93572998046875 68.40370178222656 444.43896484375 69.75537109375 443.02288818359375 71.0950927734375 C 442.2286376953125 71.84895324707031 441.4088134765625 72.67520141601562 441.164794921875 73.736572265625 C 440.8511962890625 75.1539306640625 441.65423583984375 76.57215881347656 442.55126953125 77.71295166015625 C 443.86187744140625 79.3841552734375 445.4344482421875 80.83218383789062 447.207763671875 82.00090026855469 C 447.8212890625 82.40353393554688 448.4903564453125 82.78375244140625 449.222900390625 82.82177734375 C 449.9058837890625 82.822265625 450.57421875 82.62403869628906 451.146484375 82.25125122070312 C 452.92633056640625 81.18795776367188 454.150146484375 79.39743041992188 454.49444580078125 77.35293579101562 L 453.1680908203125 77.17205810546875" stroke-width="0.6000000238418579" fill="rgb(70, 150, 179)" opacity="1.0"/>
    <path d="M 450.72943115234375 389.7867736816406 C 451.138916015625 388.713134765625 451.54766845703125 387.50592041015625 451.09674072265625 386.4498291015625 C 450.6116943359375 385.3156433105469 449.25836181640625 384.7720947265625 448.0255126953125 384.81292724609375 C 447.5501708984375 384.8284912109375 447.05914306640625 384.9209899902344 446.6754150390625 385.20184326171875 C 446.35980224609375 385.4325866699219 446.1419677734375 385.77056884765625 445.9503173828125 386.1111755371094 C 445.3446044921875 387.1845703125 444.91510009765625 388.458740234375 445.25628662109375 389.642822265625 C 445.6009521484375 390.8359375 446.77294921875 391.7431640625 448.01568603515625 391.77069091796875 C 449.2584228515625 391.7982177734375 450.4759521484375 390.95635986328125 450.8797607421875 389.7799072265625 L 450.72943115234375 389.7867736816406" stroke-width="0.6000000238418579" fill="rgb(140, 28, 33)" opacity="1.0"/>
    <path d="M 127.97584533691406 218.06915283203125 C 125.0242919921875 219.78338623046875 121.97195434570312 221.59967041015625 120.0068359375 224.39349365234375 C 118.041748046875 227.187255859375 117.47946166992188 231.28729248046875 119.62089538574219 233.94754028320312 C 122.2716064453125 237.2254638671875 127.88992309570312 236.6253662109375 130.79869079589844 233.56356811523438 C 133.7074737548828 230.50177001953125 134.37892150878906 225.90814208984375 133.99057006835938 221.70806884765625 C 134.00062561035156 220.3958740234375 133.51841735839844 219.12762451171875 132.6391143798828 218.15362548828125 C 131.67742919921875 217.29232788085938 129.80154418945312 217.41180419921875 129.3896484375 218.64205932617188 L 127.97584533691406 218.06915283203125" stroke-width="0.6000000238418579" fill="rgb(159, 159, 159)" opacity="1.0"/>
    <path d="M 110.5384521484375 225.16409301757812 C 108.31471252441406 223.12075805664062 105.34245300292969 221.7947998046875 102.32742309570312 221.9375 C 99.31240844726562 222.0802001953125 96.32475280761719 223.83837890625 95.08404541015625 226.60394287109375 C 94.2093505859375 228.56036376953125 94.25672912597656 230.851318359375 94.92489624023438 232.8895263671875 C 95.59307861328125 234.927734375 96.83822631835938 236.73577880859375 98.27981567382812 238.32449340820312 C 98.9075927734375 239.0155029296875 99.6160888671875 239.69488525390625 100.51393127441406 239.94183349609375 C 101.54315185546875 240.22537231445312 102.63069152832031 239.88995361328125 103.63131713867188 239.50863647460938 C 106.456298828125 238.43206787109375 109.22389221191406 236.88156127929688 110.96890258789062 234.41241455078125 C 112.71391296386719 231.9432373046875 113.18350219726562 228.39385986328125 111.46835327148438 225.91299438476562 L 110.5384521484375 225.16409301757812" stroke-width="0.6000000238418579" fill="rgb(159, 159, 159)" opacity="1.0"/>
    <path d="M 304.85528564453125 101.45468139648438 C 304.1890563964844 104.33596801757812 303.5733337402344 107.56752014160156 305.11151123046875 110.08656311035156 C 306.60394287109375 112.5384521484375 309.6292724609375 113.5040283203125 312.40777587890625 114.22955322265625 C 313.5369567871094 114.52262878417969 314.722900390625 114.81121826171875 315.8557434082031 114.53549194335938 C 317.77203369140625 114.07028198242188 318.9602966308594 112.16264343261719 319.64849853515625 110.3177490234375 C 320.2879333496094 108.60563659667969 320.67822265625 106.81057739257812 320.807373046875 104.98751831054688 C 321.0181884765625 102.02743530273438 320.2916259765625 98.64796447753906 317.7568664550781 97.1068115234375 C 316.3896484375 96.27279663085938 314.6847839355469 96.11962890625 313.1009826660156 96.37335205078125 C 311.5172119140625 96.62709045410156 310.0214538574219 97.26109313964844 308.5537414550781 97.90805053710938 C 307.0860595703125 98.55499267578125 305.65771484375 99.22213745117188 304.6105651855469 100.38616943359375 L 304.85528564453125 101.45468139648438" stroke-width="0.6000000238418579" fill="rgb(218, 166, 20)" opacity="1.0"/>
    <path d="M 218.4736328125 123.7730712890625 C 215.23309326171875 119.5970458984375 209.22076416015625 118.83869934082031 205.04473876953125 122.07925415039062 C 204.68716430664062 122.35675048828125 204.34970092773438 122.65925598144531 204.034912109375 122.9844970703125 C 202.83905029296875 124.2205810546875 201.96551513671875 125.86380004882812 202.00857543945312 127.58233642578125 C 202.0447998046875 129.03460693359375 202.7174072265625 130.3922576904297 203.498779296875 131.6157989501953 C 205.5948486328125 134.8880615234375 208.52886962890625 137.53939819335938 211.99603271484375 139.29440307617188 C 212.91329956054688 139.7567596435547 213.89508056640625 140.1607666015625 214.9244384765625 140.16888427734375 C 216.65252685546875 140.18353271484375 218.2222900390625 139.0600128173828 219.24713134765625 137.6669921875 C 220.77001953125 135.5998992919922 221.32781982421875 132.9092559814453 221.0255126953125 130.35903930664062 C 220.72323608398438 127.80880737304688 219.61309814453125 125.39657592773438 218.08560180664062 123.33245849609375 L 218.4736328125 123.7730712890625" stroke-width="0.6000000238418579" fill="rgb(143, 165, 67)" opacity="1.0"/>
    <path d="M 224.13876342773438 93.61672973632812 C 222.3536376953125 99.88833618164062 229.71453857421875 106.4644775390625 235.8720703125 104.4498291015625 C 242.02957153320312 102.43513488769531 244.2213134765625 93.30606079101562 239.97409057617188 88.35565185546875 C 235.72686767578125 83.40525817871094 226.94515991210938 83.79339599609375 222.77032470703125 88.8128662109375 L 224.13876342773438 93.61672973632812" stroke-width="0.6000000238418579" fill="rgb(233, 92, 21)" opacity="1.0"/>
    <path d="M 200.6473388671875 96.16838073730469 C 199.51705932617188 93.31755065917969 197.87127685546875 90.02938842773438 194.81661987304688 89.6578369140625 C 193.59524536132812 89.55728149414062 192.37274169921875 89.83819580078125 191.31781005859375 90.46185302734375 C 188.66607666015625 91.93472290039062 186.89273071289062 94.60151672363281 186.56011962890625 97.61654663085938 C 186.28451538085938 100.17485046386719 187.10882568359375 102.68890380859375 187.96173095703125 105.09983825683594 C 188.44305419921875 106.453369140625 188.99755859375 107.87612915039062 190.14041137695312 108.73348999023438 C 191.673095703125 109.86378479003906 193.801025390625 109.655517578125 195.64630126953125 109.18698120117188 C 198.34768676757812 108.50466918945312 200.92083740234375 107.38961791992188 203.26593017578125 105.88507080078125 C 204.0751953125 105.36366271972656 204.88714599609375 104.76373291015625 205.32254028320312 103.90553283691406 C 205.68658447265625 103.08685302734375 205.80453491210938 102.179931640625 205.66204833984375 101.29534912109375 C 205.33416748046875 98.59530639648438 203.83837890625 96.17500305175781 201.57000732421875 94.67422485351562 L 200.6473388671875 96.16838073730469" stroke-width="0.6000000238418579" fill="rgb(70, 150, 179)" opacity="1.0"/>
    <path d="M 269.3702697753906 131.6438751220703 C 268.3291015625 134.70901489257812 267.30377197265625 138.1501922607422 268.6830749511719 141.0764923095703 C 270.1666259765625 144.21910095214844 274.0329895019531 145.60867309570312 277.4996032714844 145.3655242919922 C 278.8362121582031 145.2723388671875 280.2089538574219 144.96084594726562 281.2601623535156 144.13031005859375 C 282.12457275390625 143.44789123535156 282.70263671875 142.47372436523438 283.2068786621094 141.49488830566406 C 284.8006591796875 138.41004943847656 285.87725830078125 134.7782440185547 284.7936096191406 131.48020935058594 C 283.69915771484375 128.1570587158203 280.3053894042969 125.72479248046875 276.803955078125 125.77651977539062 C 273.302490234375 125.82823181152344 269.9622497558594 128.32479858398438 268.94775390625 131.67884826660156 L 269.3702697753906 131.6438751220703" stroke-width="0.6000000238418579" fill="rgb(140, 28, 33)" opacity="1.0"/>
    <path d="M 312.9901123046875 117.13262939453125 C 309.8478698730469 117.14694213867188 306.578369140625 117.19647216796875 303.728271484375 118.52497863769531 C 300.8782043457031 119.85346984863281 298.5486145019531 122.86807250976562 299.0375061035156 125.97378540039062 C 299.6495666503906 129.80612182617188 304.4092712402344 131.90440368652344 308.1355285644531 130.7948760986328 C 311.8617858886719 129.68533325195312 314.5049743652344 126.32679748535156 316.1216735839844 122.7962646484375 C 316.73162841796875 121.75350952148438 316.92852783203125 120.52001953125 316.6734924316406 119.33920288085938 C 316.3009948730469 118.21060180664062 314.7488708496094 117.44546508789062 313.8557434082031 118.23846435546875 L 312.9901123046875 117.13262939453125" stroke-width="0.6000000238418579" fill="rgb(159, 159, 159)" opacity="1.0"/>
    <path d="M 197.49066162109375 132.9552001953125 C 195.33740234375 130.80325317382812 192.39987182617188 129.34217834472656 189.35723876953125 129.3584747314453 C 186.31460571289062 129.374755859375 183.23123168945312 131.01922607421875 181.86474609375 133.752197265625 C 180.901123046875 135.68565368652344 180.85198974609375 137.99497985839844 181.43881225585938 140.07601928710938 C 182.025634765625 142.1570587158203 183.2032470703125 144.03067016601562 184.58804321289062 145.69171142578125 C 185.19110107421875 146.41421508789062 185.87594604492188 147.12841796875 186.769775390625 147.4150390625 C 187.79440307617188 147.744140625 188.90390014648438 147.4522705078125 189.92779541015625 147.11050415039062 C 192.81851196289062 146.14564514160156 195.67144775390625 144.7010040283203 197.5333251953125 142.28793334960938 C 199.39520263671875 139.87484741210938 200.01815795898438 136.3199005126953 198.39556884765625 133.748779296875 L 197.49066162109375 132.9552001953125" stroke-width="0.6000000238418579" fill="rgb(159, 159, 159)" opacity="1.0"/>
    <path d="M 280.2856140136719 105.2584228515625 C 277.223876953125 106.28485107421875 273.8651123046875 107.55838012695312 272.4000244140625 110.42901611328125 C 270.9712829589844 113.21871948242188 271.80145263671875 116.58552551269531 272.7139587402344 119.58549499511719 C 273.0864562988281 120.80364990234375 273.49554443359375 122.07208251953125 274.3994140625 122.96865844726562 C 275.9272766113281 124.48593139648438 278.38128662109375 124.50161743164062 280.4911804199219 124.08784484863281 C 282.4496765136719 123.70455932617188 284.3429870605469 123.04202270507812 286.1131591796875 122.12052917480469 C 288.98797607421875 120.62533569335938 291.7174377441406 118.01824951171875 291.7031555175781 114.779052734375 C 291.697998046875 113.03030395507812 290.8663635253906 111.35639953613281 289.7253112792969 110.02766418457031 C 288.5842590332031 108.69894409179688 287.1396484375 107.66940307617188 285.69903564453125 106.67333984375 C 284.2584228515625 105.67730712890625 282.8215026855469 104.72944641113281 281.1400146484375 104.42018127441406 L 280.2856140136719 105.2584228515625" stroke-width="0.6000000238418579" fill="rgb(218, 166, 20)" opacity="1.0"/>
    <path d="M 241.5205078125 117.0841064453125 C 240.9954833984375 122.52981567382812 244.98446655273438 127.37008666992188 250.43017578125 127.89512634277344 C 250.896484375 127.94009399414062 251.36541748046875 127.951904296875 251.83343505859375 127.93051147460938 C 253.6116943359375 127.84886169433594 255.436279296875 127.23171997070312 256.6241455078125 125.90704345703125 C 257.6280822753906 124.78770446777344 258.0856018066406 123.28775024414062 258.36602783203125 121.81153869628906 C 259.11114501953125 117.85903930664062 258.7843933105469 113.77914428710938 257.4197082519531 109.99560546875 C 257.0572814941406 108.99612426757812 256.6048278808594 107.9947509765625 255.83544921875 107.25772094726562 C 254.5445556640625 106.01962280273438 252.564697265625 105.75099182128906 250.8038330078125 106.07229614257812 C 248.18923950195312 106.54751586914062 245.858642578125 108.17756652832031 244.27542114257812 110.3126220703125 C 242.69219970703125 112.44766235351562 241.8153076171875 115.05242919921875 241.4998779296875 117.69142150878906 L 241.5205078125 117.0841064453125" stroke-width="0.6000000238418579" fill="rgb(143, 165, 67)" opacity="1.0"/>
    <path d="M 250.97662353515625 90.97511291503906 C 250.02410888671875 97.4183349609375 258.1690368652344 102.97407531738281 264.0052490234375 100.17828369140625 C 269.84149169921875 97.38247680664062 270.8251953125 88.05644226074219 265.9753112792969 83.70596313476562 C 261.12542724609375 79.35546875 252.47882080078125 80.88160705566406 248.996826171875 86.39547729492188 L 250.97662353515625 90.97511291503906" stroke-width="0.6000000238418579" fill="rgb(233, 92, 21)" opacity="1.0"/>
    <path d="M 337.9291076660156 84.42257690429688 C 334.9994812011719 83.08572387695312 331.361328125 81.79269409179688 328.7777404785156 83.73321533203125 C 327.7796325683594 84.54547119140625 327.05816650390625 85.64743041992188 326.712890625 86.88711547851562 C 325.7760314941406 89.93136596679688 326.3728332519531 93.24087524414062 328.31402587890625 95.76614379882812 C 329.9661865234375 97.90403747558594 332.4191589355469 99.20840454101562 334.8187561035156 100.413818359375 C 336.1678161621094 101.08877563476562 337.6226501464844 101.76290893554688 339.11175537109375 101.58090209960938 C 341.09466552734375 101.32203674316406 342.5546875 99.61647033691406 343.611328125 97.91943359375 C 345.16082763671875 95.437744140625 346.2984313964844 92.72163391113281 346.9800109863281 89.87643432617188 C 347.2135925292969 88.89291381835938 347.3921203613281 87.84799194335938 347.0976257324219 86.88133239746094 C 346.77783203125 85.99653625488281 346.20745849609375 85.22390747070312 345.45611572265625 84.65765380859375 C 343.24383544921875 82.85136413574219 340.3505554199219 82.10646057128906 337.5410461425781 82.619873046875 L 337.9291076660156 84.42257690429688" stroke-width="0.6000000238418579" fill="rgb(70, 150, 179)" opacity="1.0"/>
    <path d="M 334.1519775390625 130.96983337402344 C 333.3368835449219 127.970947265625 332.3074645996094 124.68115234375 329.63970947265625 123.09109497070312 C 326.77288818359375 121.38473510742188 322.94921875 122.35218811035156 320.3195495605469 124.40518188476562 C 319.3053283691406 125.19630432128906 318.37945556640625 126.18060302734375 317.98797607421875 127.40571594238281 C 317.665771484375 128.41270446777344 317.72802734375 129.49838256835938 317.8515930175781 130.5481719970703 C 318.2372741699219 133.85916137695312 319.328125 137.32821655273438 321.9598693847656 139.37283325195312 C 324.61370849609375 141.43165588378906 328.62042236328125 141.5478515625 331.3804931640625 139.62860107421875 C 334.1405334472656 137.70933532714844 335.4609069824219 133.9299774169922 334.4696350097656 130.71534729003906 L 334.1519775390625 130.96983337402344" stroke-width="0.6000000238418579" fill="rgb(140, 28, 33)" opacity="1.0"/>
    <path d="M 348.3000183105469 104.17831420898438 C 345.06524658203125 102.81143188476562 341.6842346191406 101.42477416992188 338.1717834472656 101.53656005859375 C 334.65936279296875 101.64837646484375 330.94036865234375 103.721435546875 330.0771484375 107.12734985351562 C 329.02099609375 111.33395385742188 332.9887390136719 115.58261108398438 337.30511474609375 116.08102416992188 C 341.6214904785156 116.57940673828125 345.8138732910156 114.29086303710938 349.02728271484375 111.37428283691406 C 350.11248779296875 110.57109069824219 350.85711669921875 109.39033508300781 351.1142578125 108.06497192382812 C 351.227783203125 106.74162292480469 349.9695129394531 105.27304077148438 348.70318603515625 105.69511413574219 L 348.3000183105469 104.17831420898438" stroke-width="0.6000000238418579" fill="rgb(159, 159, 159)" opacity="1.0"/>
    <path d="M 349.0599365234375 127.94189453125 C 345.9574279785156 128.68409729003906 343.0415954589844 130.50543212890625 341.38720703125 133.2310028076172 C 339.7327880859375 135.95657348632812 339.509765625 139.61160278320312 341.20037841796875 142.3307647705078 C 342.3980712890625 144.25172424316406 344.43304443359375 145.56228637695312 346.61297607421875 146.17984008789062 C 348.7929382324219 146.7974090576172 351.11175537109375 146.77365112304688 353.35443115234375 146.4483642578125 C 354.3302917480469 146.3062286376953 355.3436279296875 146.0865020751953 356.08984375 145.44566345214844 C 356.9457092285156 144.7113494873047 357.293701171875 143.5606231689453 357.5502014160156 142.45895385742188 C 358.2743225097656 139.34872436523438 358.54937744140625 136.00904846191406 357.4161071777344 133.02304077148438 C 356.2828674316406 130.0370330810547 353.45050048828125 127.53085327148438 350.26483154296875 127.56924438476562 L 349.0599365234375 127.94189453125" stroke-width="0.6000000238418579" fill="rgb(159, 159, 159)" opacity="1.0"/>
    <path d="M 365.1827087402344 114.86404418945312 C 362.0585632324219 115.86610412597656 358.6293640136719 117.11526489257812 357.102783203125 120.01213073730469 C 355.61419677734375 122.82723999023438 356.4128112792969 126.25872802734375 357.2999572753906 129.31858825683594 C 357.6622009277344 130.56109619140625 358.0609436035156 131.85516357421875 358.96728515625 132.77804565429688 C 360.499267578125 134.33981323242188 362.9921569824219 134.38836669921875 365.14117431640625 133.99606323242188 C 367.1359558105469 133.63272094726562 369.0682373046875 132.98480224609375 370.87884521484375 132.0721893310547 C 373.8193359375 130.59140014648438 376.62689208984375 127.97909545898438 376.65545654296875 124.68812561035156 C 376.6734924316406 122.91146850585938 375.8508605957031 121.1998291015625 374.7093200683594 119.83477783203125 C 373.5677490234375 118.46971130371094 372.11383056640625 117.40457153320312 370.66351318359375 116.37350463867188 C 369.21319580078125 115.34243774414062 367.7660217285156 114.36038208007812 366.0618591308594 114.02381896972656 L 365.1827087402344 114.86404418945312" stroke-width="0.6000000238418579" fill="rgb(218, 166, 20)" opacity="1.0"/>
    <path d="M 433.18841552734375 152.6594696044922 C 427.6363525390625 153.67420959472656 423.95806884765625 158.9976806640625 424.9727783203125 164.54977416992188 C 425.0596923828125 165.02520751953125 425.18017578125 165.49386596679688 425.3333740234375 165.95223999023438 C 425.9158935546875 167.69384765625 427.04290771484375 169.3304443359375 428.69244384765625 170.13565063476562 C 430.0863037109375 170.81622314453125 431.703857421875 170.84722900390625 433.247802734375 170.70919799804688 C 437.38018798828125 170.333984375 441.33673095703125 168.859130859375 444.7064208984375 166.4378662109375 C 445.5960693359375 165.79638671875 446.462158203125 165.06500244140625 446.9765625 164.09365844726562 C 447.8411865234375 162.46347045898438 447.54931640625 160.4229736328125 446.73388671875 158.7662353515625 C 445.5250244140625 156.3056640625 443.2501220703125 154.45260620117188 440.6849365234375 153.48362731933594 C 438.1197509765625 152.5146484375 435.28765869140625 152.37901306152344 432.5799560546875 152.81024169921875 L 433.18841552734375 152.6594696044922" stroke-width="0.6000000238418579" fill="rgb(143, 165, 67)" opacity="1.0"/>
    <path d="M 143.25071716308594 417.82763671875 C 140.4994659423828 423.73223876953125 146.7221221923828 431.38153076171875 153.1142578125 430.36651611328125 C 159.50640869140625 429.3514404296875 163.10995483398438 420.69232177734375 159.7020263671875 415.138427734375 C 156.29412841796875 409.58447265625 147.57022094726562 408.5806579589844 142.65940856933594 412.872802734375 L 143.25071716308594 417.82763671875" stroke-width="0.6000000238418579" fill="rgb(233, 92, 21)" opacity="1.0"/>
    <path d="M 436.127685546875 186.63720703125 C 432.84503173828125 186.39208984375 428.89837646484375 186.4398193359375 427.1075439453125 189.2152099609375 C 426.4378662109375 190.34744262695312 426.135986328125 191.65960693359375 426.24365234375 192.97064208984375 C 426.4227294921875 196.2216796875 428.16650390625 199.18426513671875 430.921875 200.91891479492188 C 433.2630615234375 202.3843994140625 436.0770263671875 202.76702880859375 438.804931640625 203.07369995117188 C 440.33758544921875 203.24346923828125 441.97137451171875 203.37506103515625 443.33502197265625 202.6734619140625 C 445.14501953125 201.72335815429688 445.94146728515625 199.5709228515625 446.3541259765625 197.56948852539062 C 446.96173095703125 194.64111328125 447.09130859375 191.63372802734375 446.7379150390625 188.6639404296875 C 446.61376953125 187.6380615234375 446.4151611328125 186.57275390625 445.79058837890625 185.75 C 445.17071533203125 185.0146484375 444.35028076171875 184.4755859375 443.4293212890625 184.198486328125 C 440.66845703125 183.249267578125 437.630126953125 183.55902099609375 435.11749267578125 185.0457763671875 L 436.127685546875 186.63720703125" stroke-width="0.6000000238418579" fill="rgb(70, 150, 179)" opacity="1.0"/>
    <path d="M 407.8809509277344 156.9814453125 C 407.6114807128906 153.58074951171875 407.16998291015625 149.82266235351562 404.61553955078125 147.5649871826172 C 401.8700256347656 145.14137268066406 397.5486145019531 145.407470703125 394.2945251464844 147.08737182617188 C 393.03961181640625 147.7345428466797 391.8406982421875 148.60806274414062 391.1692810058594 149.85000610351562 C 390.616943359375 150.87074279785156 390.4633483886719 152.05455017089844 390.3831787109375 153.21209716796875 C 390.1259765625 156.86212158203125 390.5972900390625 160.8260498046875 393.0204772949219 163.5667724609375 C 395.4645690917969 166.3272705078125 399.7630615234375 167.267333984375 403.1306457519531 165.75823974609375 C 406.49822998046875 164.24911499023438 408.6910095214844 160.44073486328125 408.2753601074219 156.771484375 L 407.8809509277344 156.9814453125" stroke-width="0.6000000238418579" fill="rgb(140, 28, 33)" opacity="1.0"/>
    <path d="M 137.28811645507812 122.63148498535156 C 133.7493896484375 122.707275390625 130.0679931640625 122.82513427734375 126.88320922851562 124.37548828125 C 123.698486328125 125.92584228515625 121.13198852539062 129.36534118652344 121.7415771484375 132.85391235351562 C 122.50367736816406 137.1585235595703 127.90423583984375 139.43141174316406 132.07992553710938 138.11102294921875 C 136.25563049316406 136.7906494140625 139.16879272460938 132.95785522460938 140.922607421875 128.95082092285156 C 141.5897979736328 127.76480102539062 141.7881317138672 126.37184143066406 141.4784698486328 125.04676818847656 C 141.03750610351562 123.78273010253906 139.27490234375 122.950439453125 138.2840576171875 123.86053466796875 L 137.28811645507812 122.63148498535156" stroke-width="0.6000000238418579" fill="rgb(159, 159, 159)" opacity="1.0"/>
    <path d="M 419.3094482421875 178.61062622070312 C 416.6551513671875 176.46392822265625 413.20751953125 175.17984008789062 409.8163757324219 175.5556640625 C 406.4252014160156 175.93145751953125 403.17999267578125 178.12777709960938 401.97735595703125 181.33615112304688 C 401.1299743652344 183.6055908203125 401.3466491699219 186.18667602539062 402.24566650390625 188.43841552734375 C 403.1446838378906 190.690185546875 404.6781921386719 192.64117431640625 406.417724609375 194.330810546875 C 407.1751708984375 195.06561279296875 408.0228576660156 195.78155517578125 409.0533447265625 195.99615478515625 C 410.2346496582031 196.24273681640625 411.4376525878906 195.78680419921875 412.539306640625 195.28533935546875 C 415.6495361328125 193.86956787109375 418.66131591796875 191.92318725585938 420.4539794921875 189.0133056640625 C 422.2467041015625 186.10342407226562 422.52349853515625 182.0657958984375 420.411865234375 179.38922119140625 L 419.3094482421875 178.61062622070312" stroke-width="0.6000000238418579" fill="rgb(159, 159, 159)" opacity="1.0"/>
    <path d="M 401.6370849609375 187.81549072265625 C 400.6611328125 184.81658935546875 399.4463806152344 181.5255126953125 396.6556091308594 180.0699462890625 C 393.9435729980469 178.650634765625 390.6484375 179.43228149414062 387.71087646484375 180.29754638671875 C 386.5180358886719 180.65081787109375 385.2757568359375 181.03936767578125 384.39239501953125 181.91433715820312 C 382.8974609375 183.393310546875 382.8609619140625 185.78973388671875 383.2468566894531 187.85379028320312 C 383.604248046875 189.76971435546875 384.2349548339844 191.62442016601562 385.11956787109375 193.361083984375 C 386.5549621582031 196.18145751953125 389.0774230957031 198.8695068359375 392.24090576171875 198.88348388671875 C 393.94873046875 198.8935546875 395.5906066894531 198.0958251953125 396.8980712890625 196.99298095703125 C 398.2055358886719 195.89010620117188 399.22344970703125 194.48822021484375 400.2085876464844 193.08990478515625 C 401.1937255859375 191.691650390625 402.1318054199219 190.29656982421875 402.4483337402344 188.6571044921875 L 401.6370849609375 187.81549072265625" stroke-width="0.6000000238418579" fill="rgb(218, 166, 20)" opacity="1.0"/>
    <path d="M 449.8873291015625 178.22607421875 C 449.1995849609375 183.48574829101562 452.9058837890625 188.30706787109375 458.16552734375 188.99481201171875 C 458.615966796875 189.0537109375 459.0699462890625 189.08056640625 459.524169921875 189.07522583007812 C 461.25 189.05453491210938 463.03826904296875 188.5164794921875 464.23284912109375 187.27191162109375 C 465.242431640625 186.22027587890625 465.735107421875 184.78182983398438 466.05535888671875 183.360595703125 C 466.90728759765625 179.55508422851562 466.7247314453125 175.59088134765625 465.52667236328125 171.87979125976562 C 465.2083740234375 170.89935302734375 464.8028564453125 169.9141845703125 464.08154296875 169.1746826171875 C 462.871337890625 167.93255615234375 460.96160888671875 167.607177734375 459.2447509765625 167.86065673828125 C 456.69561767578125 168.2352294921875 454.3836669921875 169.7381591796875 452.77935791015625 171.7550048828125 C 451.175048828125 173.7718505859375 450.23974609375 176.26705932617188 449.84735107421875 178.81390380859375 L 449.8873291015625 178.22607421875" stroke-width="0.6000000238418579" fill="rgb(143, 165, 67)" opacity="1.0"/>
    <path d="M 148.30165100097656 102.68399047851562 C 142.77381896972656 107.123779296875 145.1664581298828 117.58609008789062 151.89495849609375 119.67198181152344 C 158.62347412109375 121.75784301757812 166.30914306640625 115.03936767578125 165.6556396484375 107.97735595703125 C 165.00216674804688 100.91532897949219 156.96917724609375 95.736328125 150.1093292236328 97.56256103515625 L 148.30165100097656 102.68399047851562" stroke-width="0.6000000238418579" fill="rgb(233, 92, 21)" opacity="1.0"/>
    <path d="M 455.31927490234375 151.48536682128906 C 453.66619873046875 154.66204833984375 452.02105712890625 158.62811279296875 454.027587890625 161.60891723632812 C 454.872314453125 162.76406860351562 456.0545654296875 163.628662109375 457.4114990234375 164.0833740234375 C 460.73846435546875 165.298828125 464.4482421875 164.8262939453125 467.3642578125 162.815673828125 C 469.83349609375 161.10372924804688 471.423095703125 158.45455932617188 472.8997802734375 155.8589324951172 C 473.7269287109375 154.39952087402344 474.5592041015625 152.82261657714844 474.44268798828125 151.15838623046875 C 474.2691650390625 148.94137573242188 472.458984375 147.22186279296875 470.63507080078125 145.95083618164062 C 467.96807861328125 144.08734130859375 465.01708984375 142.66781616210938 461.896484375 141.747314453125 C 460.817626953125 141.4313507080078 459.66748046875 141.17300415039062 458.5770263671875 141.4445037841797 C 457.57598876953125 141.74879455566406 456.6851806640625 142.33779907226562 456.0130615234375 143.1396484375 C 453.8798828125 145.49269104003906 452.88629150390625 148.66305541992188 453.294921875 151.81271362304688 L 455.31927490234375 151.48536682128906" stroke-width="0.6000000238418579" fill="rgb(70, 150, 179)" opacity="1.0"/>
    <path d="M 374.3186340332031 76.74313354492188 C 374.9468994140625 72.96195983886719 375.4845275878906 68.74444580078125 373.31134033203125 65.58999633789062 C 370.9748229980469 62.20283508300781 366.19061279296875 61.32121276855469 362.18682861328125 62.270599365234375 C 360.6429748535156 62.635986328125 359.09881591796875 63.263397216796875 358.0299377441406 64.435546875 C 357.1509094238281 65.3988037109375 356.6624450683594 66.64797973632812 356.2611389160156 67.888427734375 C 354.9909362792969 71.79867553710938 354.4300231933594 76.24874877929688 356.3291015625 79.894287109375 C 358.2456359863281 83.56707763671875 362.6777648925781 85.7576904296875 366.7590026855469 85.02529907226562 C 370.8402099609375 84.29290771484375 374.263916015625 80.73483276367188 374.80560302734375 76.62118530273438 L 374.3186340332031 76.74313354492188" stroke-width="0.6000000238418579" fill="rgb(140, 28, 33)" opacity="1.0"/>
    <path d="M 131.44711303710938 413.76641845703125 C 128.5286865234375 416.0770263671875 125.51736450195312 418.513427734375 123.83200073242188 421.83544921875 C 122.14666748046875 425.1573486328125 122.17916870117188 429.67041015625 124.9053955078125 432.20782470703125 C 128.2776336669922 435.33251953125 134.24822998046875 433.80859375 136.91033935546875 430.0501708984375 C 139.57244873046875 426.29180908203125 139.580810546875 421.2288818359375 138.5066375732422 416.756103515625 C 138.31285095214844 415.3382568359375 137.5946044921875 414.0445556640625 136.4936065673828 413.13037109375 C 135.32130432128906 412.3507080078125 133.315185546875 412.772216796875 133.0624542236328 414.164306640625 L 131.44711303710938 413.76641845703125" stroke-width="0.6000000238418579" fill="rgb(159, 159, 159)" opacity="1.0"/>
    <path d="M 410.9527282714844 206.48138427734375 C 409.5805358886719 203.01168823242188 406.98968505859375 199.9365234375 403.560302734375 198.47137451171875 C 400.13092041015625 197.00625610351562 395.8619384765625 197.3521728515625 392.9928894042969 199.75912475585938 C 390.9665832519531 201.46343994140625 389.7854309082031 204.036376953125 389.4306945800781 206.66256713867188 C 389.075927734375 209.288818359375 389.4866943359375 211.9698486328125 390.2340087890625 214.5128173828125 C 390.5599060058594 215.61929321289062 390.9818115234375 216.75631713867188 391.84716796875 217.514404296875 C 392.8388977050781 218.384033203125 394.22882080078125 218.59677124023438 395.5468444824219 218.711669921875 C 399.2678527832031 219.03607177734375 403.1802978515625 218.80255126953125 406.4504699707031 216.996826171875 C 409.72064208984375 215.19107055664062 412.1544189453125 211.49728393554688 411.5833740234375 207.81494140625 L 410.9527282714844 206.48138427734375" stroke-width="0.6000000238418579" fill="rgb(159, 159, 159)" opacity="1.0"/>
    <path d="M 383.0519104003906 121.0169677734375 C 379.4892272949219 122.1273193359375 375.57720947265625 123.515869140625 373.813720703125 126.79632568359375 C 372.09423828125 129.9841766357422 372.9703369140625 133.89451599121094 373.95062255859375 137.38304138183594 C 374.3509216308594 138.79962158203125 374.79229736328125 140.27520751953125 375.8144836425781 141.33335876464844 C 377.542236328125 143.12405395507812 380.3771057128906 143.20269775390625 382.82501220703125 142.77667236328125 C 385.09722900390625 142.38214111328125 387.3009948730469 141.6633758544922 389.368896484375 140.64239501953125 C 392.7272033691406 138.98582458496094 395.94500732421875 136.04103088378906 396.0083923339844 132.2982635498047 C 396.0455627441406 130.27772521972656 395.1260070800781 128.3232421875 393.8404846191406 126.75994873046875 C 392.554931640625 125.1966552734375 390.9112854003906 123.97152709960938 389.27142333984375 122.78521728515625 C 387.6315612792969 121.59890747070312 385.99481201171875 120.46835327148438 384.0597229003906 120.06956481933594 L 383.0519104003906 121.0169677734375" stroke-width="0.6000000238418579" fill="rgb(218, 166, 20)" opacity="1.0"/>
    <path d="M 402.9965515136719 79.50759887695312 C 398.97015380859375 74.96998596191406 392.0276184082031 74.55557250976562 387.4900207519531 78.58197021484375 C 387.1014709472656 78.9267578125 386.73785400390625 79.29867553710938 386.40191650390625 79.69491577148438 C 385.1257629394531 81.20077514648438 384.24951171875 83.14852905273438 384.4285888671875 85.11331176757812 C 384.57977294921875 86.77371215820312 385.4525451660156 88.27767944335938 386.4397888183594 89.619873046875 C 389.0872802734375 93.20893859863281 392.6474914550781 96.02365112304688 396.7505798339844 97.77163696289062 C 397.8359375 98.23184204101562 398.99078369140625 98.620361328125 400.1701965332031 98.55194091796875 C 402.1502990722656 98.43821716308594 403.8631286621094 97.03302001953125 404.9315490722656 95.3603515625 C 406.5194396972656 92.87814331054688 406.9550476074219 89.75473022460938 406.4162902832031 86.85707092285156 C 405.8775329589844 83.95941162109375 404.424072265625 81.28079223632812 402.5188903808594 79.03233337402344 L 402.9965515136719 79.50759887695312" stroke-width="0.6000000238418579" fill="rgb(143, 165, 67)" opacity="1.0"/>
    <path d="M 118.04977416992188 426.0889892578125 C 114.64263916015625 419.8040771484375 103.83177185058594 420.2900390625 100.5484619140625 426.5887451171875 C 97.26519775390625 432.887451171875 102.54360961914062 441.72418212890625 109.66740417480469 442.35009765625 C 116.79119873046875 442.9759521484375 123.37838745117188 435.941162109375 122.80435180664062 428.806396484375 L 118.04977416992188 426.0889892578125" stroke-width="0.6000000238418579" fill="rgb(233, 92, 21)" opacity="1.0"/>
    <path d="M 449.239013671875 197.99053955078125 C 447.59173583984375 201.1748046875 445.95428466796875 205.1492919921875 447.97021484375 208.12860107421875 C 448.81866455078125 209.28302001953125 450.00439453125 210.145751953125 451.3638916015625 210.59771728515625 C 454.69757080078125 211.8065185546875 458.41033935546875 211.32452392578125 461.3248291015625 209.3045654296875 C 463.792724609375 207.58477783203125 465.37774658203125 204.9288330078125 466.849853515625 202.32672119140625 C 467.67437744140625 200.8636474609375 468.5037841796875 199.282958984375 468.3831787109375 197.61712646484375 C 468.2041015625 195.3980712890625 466.38775634765625 193.68096923828125 464.5587158203125 192.41290283203125 C 461.88427734375 190.55377197265625 458.926513671875 189.13973999023438 455.8001708984375 188.2257080078125 C 454.7193603515625 187.9119873046875 453.5672607421875 187.6561279296875 452.4761962890625 187.9305419921875 C 451.474853515625 188.23760986328125 450.5843505859375 188.82940673828125 449.91351318359375 189.6337890625 C 447.7835693359375 191.99459838867188 446.7965087890625 195.17092895507812 447.2132568359375 198.3231201171875 L 449.239013671875 197.99053955078125" stroke-width="0.6000000238418579" fill="rgb(70, 150, 179)" opacity="1.0"/>
    <path d="M 414.5927734375 136.8025665283203 C 414.249267578125 132.92518615722656 413.70556640625 128.641845703125 410.7669372558594 126.0928955078125 C 407.6085510253906 123.35665893554688 402.68060302734375 123.70614624023438 398.9854431152344 125.65748596191406 C 397.5604248046875 126.40922546386719 396.20172119140625 127.41865539550781 395.44879150390625 128.84286499023438 C 394.82940673828125 130.01339721679688 394.666748046875 131.36578369140625 394.5875549316406 132.68740844726562 C 394.3327941894531 136.85488891601562 394.91265869140625 141.37281799316406 397.7066345214844 144.47427368164062 C 400.52471923828125 147.59812927246094 405.4393005371094 148.62513732910156 409.2657775878906 146.86746215820312 C 413.09222412109375 145.10980224609375 415.5538330078125 140.74110412597656 415.04058837890625 136.55885314941406 L 414.5927734375 136.8025665283203" stroke-width="0.6000000238418579" fill="rgb(140, 28, 33)" opacity="1.0"/>
    <path d="M 400.207763671875 70.12783813476562 C 401.24072265625 73.66194152832031 402.3545227050781 77.3280029296875 404.77294921875 80.10786437988281 C 407.1913757324219 82.88768005371094 411.3402404785156 84.53570556640625 414.6796875 82.9801025390625 C 418.7974853515625 81.05068969726562 419.620361328125 75.01133728027344 417.16497802734375 71.17391967773438 C 414.7095947265625 67.33648681640625 410.07196044921875 65.44659423828125 405.5727233886719 64.76835632324219 C 404.20098876953125 64.41886901855469 402.7481689453125 64.59628295898438 401.5008544921875 65.26560974121094 C 400.35040283203125 66.05032348632812 399.9909362792969 68.0458984375 401.17303466796875 68.79510498046875 L 400.207763671875 70.12783813476562" stroke-width="0.6000000238418579" fill="rgb(159, 159, 159)" opacity="1.0"/>
    <path d="M 440.926513671875 236.0733642578125 C 438.76336669921875 239.19366455078125 437.6221923828125 243.12301635742188 438.3175048828125 246.853515625 C 439.0128173828125 250.58404541015625 441.71533203125 254.003173828125 445.3726806640625 255.0736083984375 C 447.95947265625 255.82717895507812 450.80450439453125 255.3748779296875 453.228271484375 254.19284057617188 C 455.6519775390625 253.01080322265625 457.6900634765625 251.14968872070312 459.4212646484375 249.08154296875 C 460.174072265625 248.18109130859375 460.89862060546875 247.18206787109375 461.052001953125 246.021484375 C 461.228515625 244.69094848632812 460.6240234375 243.39407348632812 459.97735595703125 242.21331787109375 C 458.151611328125 238.87982177734375 455.7454833984375 235.6990966796875 452.3707275390625 233.94967651367188 C 448.99603271484375 232.20025634765625 444.494873046875 232.22470092773438 441.6995849609375 234.78668212890625 L 440.926513671875 236.0733642578125" stroke-width="0.6000000238418579" fill="rgb(159, 159, 159)" opacity="1.0"/>
    <path d="M 407.5997619628906 262.7845764160156 C 405.6393737792969 259.4845886230469 403.3173828125 255.90142822265625 399.6146240234375 254.9190673828125 C 396.0150146484375 253.9586181640625 392.31134033203125 255.76748657226562 389.0545654296875 257.5800476074219 C 387.7326354980469 258.31829833984375 386.3614501953125 259.1117248535156 385.54638671875 260.3867492675781 C 384.1666259765625 262.54241943359375 384.7637939453125 265.39764404296875 385.773681640625 267.745361328125 C 386.71014404296875 269.9248046875 387.9547424316406 271.9584655761719 389.46929931640625 273.78411865234375 C 391.927490234375 276.7493591308594 395.6410827636719 279.2668762207031 399.4010925292969 278.43798828125 C 401.431640625 277.99346923828125 403.16796875 276.607421875 404.4256591796875 274.94842529296875 C 405.683349609375 273.2894287109375 406.5173034667969 271.3528137207031 407.3133239746094 269.4291687011719 C 408.1093444824219 267.50555419921875 408.8503112792969 265.5983581542969 408.7879638671875 263.56707763671875 L 407.5997619628906 262.7845764160156" stroke-width="0.6000000238418579" fill="rgb(218, 166, 20)" opacity="1.0"/>
    <path d="M 415.74261474609375 87.21429443359375 C 413.5067138671875 92.866943359375 416.27655029296875 99.26185607910156 421.92919921875 101.49774169921875 C 422.4132080078125 101.689208984375 422.9102783203125 101.84608459472656 423.41650390625 101.96720886230469 C 425.3402099609375 102.42709350585938 427.47802734375 102.32952880859375 429.15380859375 101.28067016601562 C 430.570068359375 100.39443969726562 431.51995849609375 98.93374633789062 432.27349853515625 97.44392395019531 C 434.2850341796875 93.4532470703125 435.1912841796875 88.99678039550781 434.898193359375 84.53742980957031 C 434.8187255859375 83.35882568359375 434.64373779296875 82.1505126953125 434.049072265625 81.12692260742188 C 433.05169677734375 79.40792846679688 431.0205078125 78.51203918457031 429.0416259765625 78.31336975097656 C 426.10400390625 78.01638793945312 423.1142578125 79.03974914550781 420.76708984375 80.83218383789062 C 418.419921875 82.6246337890625 416.682373046875 85.1358642578125 415.53369140625 87.85635375976562 L 415.74261474609375 87.21429443359375" stroke-width="0.6000000238418579" fill="rgb(143, 165, 67)" opacity="1.0"/>
    <path d="M 442.2572021484375 129.59634399414062 C 439.388427734375 136.1521759033203 446.42022705078125 144.3918914794922 453.4140625 143.11181640625 C 460.4078369140625 141.83169555664062 464.141357421875 132.22869873046875 460.2550048828125 126.21737670898438 C 456.36865234375 120.20603942871094 446.7618408203125 119.32929992675781 441.4796142578125 124.17013549804688 L 442.2572021484375 129.59634399414062" stroke-width="0.6000000238418579" fill="rgb(233, 92, 21)" opacity="1.0"/>
    <path d="M 446.17901611328125 92.79815673828125 C 445.4283447265625 96.2698974609375 444.8917236328125 100.49485778808594 447.5911865234375 102.82196044921875 C 448.7015380859375 103.70625305175781 450.058837890625 104.22421264648438 451.47607421875 104.30435180664062 C 454.9771728515625 104.59701538085938 458.4029541015625 103.17457580566406 460.6669921875 100.48808288574219 C 462.58172607421875 98.20426940917969 463.40966796875 95.25382995605469 464.1435546875 92.3841552734375 C 464.55322265625 90.771484375 464.93707275390625 89.04502868652344 464.3902587890625 87.48321533203125 C 463.6444091796875 85.40740966796875 461.462646484375 84.2357177734375 459.3851318359375 83.49671936035156 C 456.345947265625 82.411376953125 453.1512451171875 81.82511901855469 449.92474365234375 81.76065063476562 C 448.80987548828125 81.74052429199219 447.641845703125 81.79421997070312 446.6695556640625 82.33920288085938 C 445.7913818359375 82.89218139648438 445.0931396484375 83.688720703125 444.65985107421875 84.6317138671875 C 443.234375 87.44100952148438 443.11297607421875 90.73423767089844 444.32781982421875 93.64083862304688 L 446.17901611328125 92.79815673828125" stroke-width="0.6000000238418579" fill="rgb(70, 150, 179)" opacity="1.0"/>
    <path d="M 320.78155517578125 371.0940246582031 C 316.9809875488281 371.5130310058594 312.7859802246094 372.13702392578125 310.3446044921875 375.0765380859375 C 307.72393798828125 378.2358093261719 308.17083740234375 383.0679626464844 310.1649169921875 386.65576171875 C 310.9331359863281 388.03936767578125 311.9530334472656 389.3524475097656 313.3675231933594 390.0618896484375 C 314.53009033203125 390.6455078125 315.8616027832031 390.7768249511719 317.16119384765625 390.8267822265625 C 321.25921630859375 390.9892578125 325.683837890625 390.32476806640625 328.6708679199219 387.51568603515625 C 331.6793518066406 384.6824645996094 332.5845031738281 379.83447265625 330.77789306640625 376.1136779785156 C 328.97125244140625 372.39288330078125 324.6291809082031 370.0674133300781 320.5328063964844 370.6593933105469 L 320.78155517578125 371.0940246582031" stroke-width="0.6000000238418579" fill="rgb(140, 28, 33)" opacity="1.0"/>
    <path d="M 307.835693359375 397.784912109375 C 303.9806213378906 398.87738037109375 299.98126220703125 400.056640625 296.9345703125 402.6635437011719 C 293.8879699707031 405.2704162597656 292.0574951171875 409.7705078125 293.7204284667969 413.4183349609375 C 295.7832336425781 417.91668701171875 302.347900390625 418.8660888671875 306.5457458496094 416.22845458984375 C 310.74359130859375 413.5908203125 312.8416442871094 408.5610046386719 313.61993408203125 403.6709899902344 C 314.01251220703125 402.181396484375 313.8324279785156 400.59881591796875 313.1152038574219 399.23553466796875 C 312.2715759277344 397.9765625 310.10321044921875 397.56756591796875 309.27734375 398.84722900390625 L 307.835693359375 397.784912109375" stroke-width="0.6000000238418579" fill="rgb(159, 159, 159)" opacity="1.0"/>
    <path d="M 320.9277648925781 415.483642578125 C 316.7400207519531 416.83294677734375 312.92333984375 419.646484375 310.93707275390625 423.56976318359375 C 308.9508056640625 427.49310302734375 309.0313720703125 432.5428466796875 311.6442565917969 436.10296630859375 C 313.49481201171875 438.61767578125 316.4320373535156 440.2042236328125 319.49517822265625 440.822509765625 C 322.5583190917969 441.4407958984375 325.7445068359375 441.1624755859375 328.79400634765625 440.4775390625 C 330.12091064453125 440.1787109375 331.4911193847656 439.7691650390625 332.4493713378906 438.808837890625 C 333.5484619140625 437.7083740234375 333.90509033203125 436.089111328125 334.1410827636719 434.5469970703125 C 334.8073425292969 430.19329833984375 334.8317565917969 425.5716552734375 332.9570007324219 421.5855712890625 C 331.0822448730469 417.59942626953125 326.9218444824219 414.45318603515625 322.5451965332031 414.843505859375 L 320.9277648925781 415.483642578125" stroke-width="0.6000000238418579" fill="rgb(159, 159, 159)" opacity="1.0"/>
    <path d="M 267.17620849609375 416.5860595703125 C 263.32672119140625 418.68072509765625 259.1385498046875 421.17578125 257.85833740234375 425.35821533203125 C 256.60760498046875 429.423828125 258.51202392578125 433.7274169921875 260.4399108886719 437.52130126953125 C 261.225341796875 439.06134033203125 262.07159423828125 440.659912109375 263.49127197265625 441.644775390625 C 265.89141845703125 443.311767578125 269.1748046875 442.7532958984375 271.8968811035156 441.7021484375 C 274.423828125 440.72747802734375 276.7977294921875 439.39501953125 278.9458923339844 437.7454833984375 C 282.4349060058594 435.06842041015625 285.4671325683594 430.939697265625 284.6831970214844 426.614013671875 C 284.263427734375 424.27813720703125 282.7567443847656 422.2374267578125 280.91802978515625 420.7310791015625 C 279.0793151855469 419.22467041015625 276.9056091308594 418.1898193359375 274.7450866699219 417.1988525390625 C 272.5845642089844 416.207763671875 270.4404296875 415.2802734375 268.1201477050781 415.2640380859375 L 267.17620849609375 416.5860595703125" stroke-width="0.6000000238418579" fill="rgb(218, 166, 20)" opacity="1.0"/>
    <path d="M 223.68365478515625 414.2686767578125 C 216.6387939453125 412.093505859375 209.16439819335938 416.0411376953125 206.98916625976562 423.08599853515625 C 206.80291748046875 423.68927001953125 206.65966796875 424.304931640625 206.560546875 424.928466796875 C 206.18429565429688 427.2978515625 206.50222778320312 429.87408447265625 207.9273681640625 431.802490234375 C 209.13153076171875 433.4322509765625 210.98678588867188 434.4444580078125 212.85888671875 435.21630859375 C 217.87298583984375 437.275634765625 223.34698486328125 437.954833984375 228.71231079101562 437.183349609375 C 230.13018798828125 436.97705078125 231.57501220703125 436.6524658203125 232.75726318359375 435.8375244140625 C 234.7427978515625 434.470703125 235.63623046875 431.9305419921875 235.69140625 429.5189208984375 C 235.77581787109375 425.9385986328125 234.25863647460938 422.41876220703125 231.87152099609375 419.7479248046875 C 229.484375 417.0771484375 226.2850341796875 415.21075439453125 222.8876953125 414.076171875 L 223.68365478515625 414.2686767578125" stroke-width="0.6000000238418579" fill="rgb(143, 165, 67)" opacity="1.0"/>
    <path d="M 287.64227294921875 361.9004211425781 C 290.18121337890625 369.9397888183594 302.8074645996094 371.7957458496094 308.0182189941406 365.23724365234375 C 313.2289733886719 358.67877197265625 309.0942687988281 347.26605224609375 300.9858703613281 344.9476623535156 C 292.87750244140625 342.6292419433594 283.6766052246094 349.30084228515625 282.7450256347656 357.6903991699219 L 287.64227294921875 361.9004211425781" stroke-width="0.6000000238418579" fill="rgb(233, 92, 21)" opacity="1.0"/>
    <path d="M 332.10406494140625 359.35009765625 C 332.6409912109375 363.4766845703125 333.7103271484375 368.3503112792969 337.6046447753906 369.8568115234375 C 339.177734375 370.3960266113281 340.8794250488281 370.4338073730469 342.4748840332031 369.96490478515625 C 346.4537353515625 368.9110107421875 349.6749267578125 365.9939270019531 351.11700439453125 362.13873291015625 C 352.3319091796875 358.8653564453125 352.0852355957031 355.28369140625 351.7665710449219 351.8281555175781 C 351.58441162109375 349.8873291015625 351.3290710449219 347.8310852050781 350.1114196777344 346.3225402832031 C 348.4718933105469 344.3250732421875 345.6033630371094 343.8900451660156 343.02001953125 343.89154052734375 C 339.2392272949219 343.8890075683594 335.4830017089844 344.4984436035156 331.89697265625 345.69622802734375 C 330.6587219238281 346.1124572753906 329.39080810546875 346.6310729980469 328.5321044921875 347.6148986816406 C 327.7804870605469 348.57049560546875 327.3231506347656 349.72418212890625 327.21588134765625 350.9352111816406 C 326.74755859375 354.59613037109375 327.90875244140625 358.2781982421875 330.3925476074219 361.00811767578125 L 332.10406494140625 359.35009765625" stroke-width="0.6000000238418579" fill="rgb(70, 150, 179)" opacity="1.0"/>
    <path d="M 298.55322265625 419.718994140625 C 294.1494445800781 420.51434326171875 289.3016052246094 421.58087158203125 286.6878662109375 425.209716796875 C 283.8824768066406 429.109619140625 284.7935485839844 434.71563720703125 287.4108581542969 438.74407958984375 C 288.4193115234375 440.2977294921875 289.7159118652344 441.74871826171875 291.42462158203125 442.463134765625 C 292.82904052734375 443.0509033203125 294.3943176269531 443.096923828125 295.91571044921875 443.05059814453125 C 300.71368408203125 442.91015625 305.82635498046875 441.77783203125 309.0876770019531 438.25732421875 C 312.3721618652344 434.7069091796875 313.0384826660156 428.9735107421875 310.6293029785156 424.774658203125 C 308.22015380859375 420.5758056640625 302.9630126953125 418.2103271484375 298.2277526855469 419.2315673828125 L 298.55322265625 419.718994140625" stroke-width="0.6000000238418579" fill="rgb(140, 28, 33)" opacity="1.0"/>
    <path d="M 332.7037048339844 389.500732421875 C 328.71258544921875 389.6732177734375 324.5614929199219 389.896728515625 321.0060119628906 391.7243957519531 C 317.4505615234375 393.5520324707031 314.63916015625 397.49615478515625 315.4127502441406 401.4175720214844 C 316.37847900390625 406.2560119628906 322.5281677246094 408.68792724609375 327.20745849609375 407.09539794921875 C 331.8867492675781 405.50286865234375 335.07965087890625 401.1064453125 336.9600830078125 396.54193115234375 C 337.68377685546875 395.1872863769531 337.8733215332031 393.6106262207031 337.4913330078125 392.123046875 C 336.96270751953125 390.7076110839844 334.953369140625 389.811767578125 333.8576965332031 390.8630676269531 L 332.7037048339844 389.500732421875" stroke-width="0.6000000238418579" fill="rgb(159, 159, 159)" opacity="1.0"/>
    <path d="M 348.6109313964844 413.1671142578125 C 344.1496887207031 413.7030029296875 339.7748718261719 415.779052734375 337.0185241699219 419.32470703125 C 334.2621765136719 422.87030029296875 333.3580627441406 427.9482421875 335.2830810546875 432.0267333984375 C 336.6477355957031 434.9085693359375 339.28277587890625 437.0718994140625 342.23291015625 438.28912353515625 C 345.18304443359375 439.50634765625 348.4313659667969 439.8487548828125 351.6219787597656 439.7568359375 C 353.01043701171875 439.716064453125 354.4638977050781 439.57275390625 355.6117858886719 438.7969970703125 C 356.9282531738281 437.908203125 357.6015319824219 436.3544921875 358.1388854980469 434.85455322265625 C 359.6559143066406 430.62005615234375 360.58172607421875 425.99169921875 359.47979736328125 421.630126953125 C 358.3778076171875 417.2685546875 354.8207702636719 413.30316162109375 350.357177734375 412.8408203125 L 348.6109313964844 413.1671142578125" stroke-width="0.6000000238418579" fill="rgb(159, 159, 159)" opacity="1.0"/>
    <path d="M 255.33059692382812 367.2461853027344 C 256.5481262207031 363.1058349609375 257.7220764160156 358.4508972167969 255.69720458984375 354.64935302734375 C 253.73318481445312 350.94952392578125 249.40866088867188 349.2835388183594 245.42312622070312 347.98846435546875 C 243.80328369140625 347.4647216796875 242.100341796875 346.9426574707031 240.4263916015625 347.2472229003906 C 237.5948486328125 347.7607116699219 235.70028686523438 350.4378967285156 234.53961181640625 353.0665283203125 C 233.4613037109375 355.50592041015625 232.7388916015625 358.0875244140625 232.39447021484375 360.7322692871094 C 231.83364868164062 365.0263977050781 232.60247802734375 370.01190185546875 236.1629638671875 372.47430419921875 C 238.083251953125 373.8064880371094 240.55377197265625 374.1757507324219 242.88275146484375 373.9418640136719 C 245.21173095703125 373.7079772949219 247.44509887695312 372.9125671386719 249.63870239257812 372.09588623046875 C 251.83230590820312 371.27923583984375 253.97024536132812 370.42974853515625 255.59552001953125 368.82373046875 L 255.33059692382812 367.2461853027344" stroke-width="0.6000000238418579" fill="rgb(218, 166, 20)" opacity="1.0"/>
    <path d="M 253.8397216796875 388.97430419921875 C 250.60903930664062 382.525390625 242.76220703125 379.9165344238281 236.31329345703125 383.1471862792969 C 235.76107788085938 383.423828125 235.22918701171875 383.73931884765625 234.72158813476562 384.09124755859375 C 232.79315185546875 385.4288024902344 231.18829345703125 387.39678955078125 230.79037475585938 389.70855712890625 C 230.45388793945312 391.6621398925781 230.99432373046875 393.6577453613281 231.71591186523438 395.5026550292969 C 233.65420532226562 400.4384460449219 236.87872314453125 404.76519775390625 241.05450439453125 408.0334777832031 C 242.15975952148438 408.8955383300781 243.3668212890625 409.6965637207031 244.7425537109375 409.9803161621094 C 247.05181884765625 410.4580078125 249.450927734375 409.3702392578125 251.19195556640625 407.7772521972656 C 253.77838134765625 405.4140319824219 255.23831176757812 401.9602966308594 255.50970458984375 398.4665222167969 C 255.7811279296875 394.9727478027344 254.93460083007812 391.4495544433594 253.43710327148438 388.28167724609375 L 253.8397216796875 388.97430419921875" stroke-width="0.6000000238418579" fill="rgb(143, 165, 67)" opacity="1.0"/>
    <path d="M 203.761962890625 370.5626220703125 C 200.83941650390625 378.6672058105469 209.94476318359375 388.0038146972656 218.24407958984375 385.9074401855469 C 226.5433349609375 383.81103515625 230.2613525390625 371.9768981933594 225.11260986328125 365.06597900390625 C 219.96380615234375 358.1550598144531 208.35324096679688 357.8691711425781 202.39447021484375 364.1062927246094 L 203.761962890625 370.5626220703125" stroke-width="0.6000000238418579" fill="rgb(233, 92, 21)" opacity="1.0"/>
    <path d="M 263.9082946777344 367.22308349609375 C 264.2865905761719 371.4473571777344 265.17657470703125 376.4541015625 269.08087158203125 378.14727783203125 C 270.66082763671875 378.7606201171875 272.3922119140625 378.86859130859375 274.0361328125 378.45623779296875 C 278.13104248046875 377.54541015625 281.5304870605469 374.706298828125 283.15643310546875 370.8392333984375 C 284.52728271484375 367.55535888671875 284.4223327636719 363.8978576660156 284.2388916015625 360.3658752441406 C 284.1326599121094 358.3819885253906 283.9565734863281 356.2775573730469 282.77813720703125 354.69158935546875 C 281.1900939941406 352.59051513671875 278.28668212890625 352.0303649902344 275.65582275390625 351.9264221191406 C 271.8057556152344 351.76947021484375 267.9556579589844 352.2367248535156 264.2548828125 353.31005859375 C 262.9768981933594 353.6833801269531 261.6645202636719 354.1597595214844 260.7499084472656 355.1265869140625 C 259.9454650878906 356.06903076171875 259.4326171875 357.2252197265625 259.27392578125 358.4541320800781 C 258.6475524902344 362.1631164550781 259.6797180175781 365.960205078125 262.09765625 368.8416442871094 L 263.9082946777344 367.22308349609375" stroke-width="0.6000000238418579" fill="rgb(70, 150, 179)" opacity="1.0"/>
    <path d="M 327.28118896484375 363.26605224609375 C 328.8210754394531 359.17498779296875 330.35614013671875 354.5757141113281 328.6231689453125 350.565673828125 C 326.759033203125 346.2591247558594 321.6019287109375 344.21380615234375 316.91259765625 344.3896179199219 C 315.10455322265625 344.4566345214844 313.2381896972656 344.81671142578125 311.7829284667969 345.8914489746094 C 310.5863037109375 346.77447509765625 309.7633056640625 348.0638427734375 309.0397644042969 349.36273193359375 C 306.753173828125 353.4560852050781 305.1405944824219 358.3103942871094 306.4581604003906 362.80914306640625 C 307.7892150878906 367.3422546386719 312.2626953125 370.7740783691406 316.9906311035156 370.858154296875 C 321.7185363769531 370.9422302246094 326.33636474609375 367.7195739746094 327.8529968261719 363.2374267578125 L 327.28118896484375 363.26605224609375" stroke-width="0.6000000238418579" fill="rgb(140, 28, 33)" opacity="1.0"/>
    <path d="M 351.7787170410156 396.13104248046875 C 347.78497314453125 396.4377746582031 343.63262939453125 396.8009948730469 340.1309509277344 398.75177001953125 C 336.62933349609375 400.7025146484375 333.9443054199219 404.7492370605469 334.85107421875 408.6529846191406 C 335.98114013671875 413.46923828125 342.2253723144531 415.699951171875 346.861083984375 413.9471435546875 C 351.4967956542969 412.19427490234375 354.5489501953125 407.6815185546875 356.2802734375 403.0443115234375 C 356.96002197265625 401.6625061035156 357.0970764160156 400.076171875 356.6643981933594 398.5982971191406 C 356.087158203125 397.1976013183594 354.0435485839844 396.3672790527344 352.9808349609375 397.4575500488281 L 351.7787170410156 396.13104248046875" stroke-width="0.6000000238418579" fill="rgb(159, 159, 159)" opacity="1.0"/>
    <path d="M 185.096923828125 410.7607727050781 C 180.61920166015625 411.2083740234375 176.19735717773438 413.19989013671875 173.36676025390625 416.695068359375 C 170.5361328125 420.1903076171875 169.52957153320312 425.25677490234375 171.37570190429688 429.37890625 C 172.68463134765625 432.2916259765625 175.2799072265625 434.5103759765625 178.20956420898438 435.7879638671875 C 181.13922119140625 437.0655517578125 184.38491821289062 437.47320556640625 187.58148193359375 437.44488525390625 C 188.9725341796875 437.4317626953125 190.43072509765625 437.3172607421875 191.5955810546875 436.5633544921875 C 192.93145751953125 435.69964599609375 193.6365966796875 434.1573486328125 194.20455932617188 432.666259765625 C 195.8079833984375 428.45654296875 196.82733154296875 423.8406982421875 195.81097412109375 419.4515380859375 C 194.7945556640625 415.0623779296875 191.31204223632812 411.0208740234375 186.8519287109375 410.4689636230469 L 185.096923828125 410.7607727050781" stroke-width="0.6000000238418579" fill="rgb(159, 159, 159)" opacity="1.0"/>
    <path d="M 358.2679138183594 371.3283386230469 C 354.1755676269531 372.40380859375 349.6733093261719 373.7765197753906 347.5079345703125 377.40216064453125 C 345.3971252441406 380.9251403808594 346.189453125 385.3992919921875 347.1213684082031 389.4009704589844 C 347.5023193359375 391.02606201171875 347.9267883300781 392.7200622558594 349.0304870605469 393.970947265625 C 350.8959655761719 396.08770751953125 354.10308837890625 396.3218078613281 356.8976745605469 395.9644775390625 C 359.49163818359375 395.63385009765625 362.0246887207031 394.93243408203125 364.4192810058594 393.8817138671875 C 368.3080749511719 392.1770935058594 372.10357666015625 389.006103515625 372.36688232421875 384.7698059082031 C 372.5123596191406 382.4830017089844 371.5707702636719 380.2220764160156 370.194580078125 378.385498046875 C 368.818359375 376.5489501953125 367.019287109375 375.0771484375 365.2224426269531 373.64947509765625 C 363.4256286621094 372.2218017578125 361.6294860839844 370.85748291015625 359.45794677734375 370.3067626953125 L 358.2679138183594 371.3283386230469" stroke-width="0.6000000238418579" fill="rgb(218, 166, 20)" opacity="1.0"/>
    <path d="M 375.2148132324219 382.0198059082031 C 371.21881103515625 387.9465026855469 372.7839660644531 395.9904479980469 378.7106628417969 399.9864501953125 C 379.2181701660156 400.32861328125 379.74932861328125 400.6343688964844 380.30010986328125 400.9013977050781 C 382.3930969238281 401.91558837890625 384.87298583984375 402.3437194824219 387.0624694824219 401.5625915527344 C 388.912841796875 400.90264892578125 390.3728332519531 399.4651794433594 391.6146240234375 397.9446105957031 C 394.9329833984375 393.869873046875 397.09979248046875 388.98089599609375 397.88995361328125 383.7856140136719 C 398.09649658203125 382.4120178222656 398.2008361816406 380.9801330566406 397.7765197753906 379.65435791015625 C 397.0654602050781 377.42822265625 394.9591369628906 375.8861389160156 392.7367858886719 375.1579895019531 C 389.4381103515625 374.0746765136719 385.74603271484375 374.4945068359375 382.59759521484375 375.9599304199219 C 379.44915771484375 377.4253845214844 376.8191833496094 379.87030029296875 374.81268310546875 382.7043762207031 L 375.2148132324219 382.0198059082031" stroke-width="0.6000000238418579" fill="rgb(143, 165, 67)" opacity="1.0"/>
    <path d="M 367.5732116699219 359.9139709472656 C 371.76605224609375 367.55078125 384.93719482421875 366.8883361816406 388.8973388671875 359.19134521484375 C 392.85748291015625 351.49432373046875 386.36773681640625 340.75994873046875 377.6824951171875 340.0435485839844 C 368.9972229003906 339.3271484375 361.0156555175781 347.9425964355469 361.76153564453125 356.6334533691406 L 367.5732116699219 359.9139709472656" stroke-width="0.6000000238418579" fill="rgb(233, 92, 21)" opacity="1.0"/>
    <path d="M 397.132568359375 362.6304016113281 C 397.6363525390625 366.8006591796875 398.6706237792969 371.72991943359375 402.5875244140625 373.2865905761719 C 404.17041015625 373.84539794921875 405.8876953125 373.8992919921875 407.5024719238281 373.4407653808594 C 411.52838134765625 372.41375732421875 414.8067626953125 369.4991455078125 416.298095703125 365.6211242675781 C 417.5546875 362.3282775878906 417.3388671875 358.71075439453125 417.04913330078125 355.2198181152344 C 416.88323974609375 353.2591247558594 416.64453125 351.18121337890625 415.42938232421875 349.6472473144531 C 413.79296875 347.6158752441406 410.9015808105469 347.15020751953125 408.2939453125 347.1278381347656 C 404.4777526855469 347.0903015136719 400.6806335449219 347.6706848144531 397.04986572265625 348.84649658203125 C 395.796142578125 349.25518798828125 394.51153564453125 349.7669372558594 393.63568115234375 350.7520446777344 C 392.8681640625 351.70965576171875 392.3958740234375 352.86993408203125 392.2763671875 354.0913391113281 C 391.769775390625 357.7822570800781 392.9078063964844 361.5096130371094 395.3896484375 364.2881164550781 L 397.132568359375 362.6304016113281" stroke-width="0.6000000238418579" fill="rgb(70, 150, 179)" opacity="1.0"/>
    <path d="M 388.410400390625 415.783203125 C 386.67193603515625 420.0458984375 384.9239807128906 424.84368896484375 386.63330078125 429.11492919921875 C 388.47222900390625 433.70208740234375 393.8426513671875 436.00323486328125 398.7843322753906 435.95263671875 C 400.6896667480469 435.9339599609375 402.664794921875 435.60845947265625 404.2276306152344 434.518798828125 C 405.5127258300781 433.62353515625 406.4161071777344 432.289794921875 407.2150573730469 430.943115234375 C 409.7396545410156 426.699462890625 411.5765686035156 421.6353759765625 410.31854248046875 416.861572265625 C 409.0473327636719 412.0511474609375 404.4363708496094 408.31005859375 399.46148681640625 408.0859069824219 C 394.48663330078125 407.8617858886719 389.5328369140625 411.1219482421875 387.8076171875 415.7969970703125 L 388.410400390625 415.783203125" stroke-width="0.6000000238418579" fill="rgb(140, 28, 33)" opacity="1.0"/>
    <path d="M 410.8435974121094 389.4502868652344 C 410.3955993652344 393.4085388183594 409.97308349609375 397.53228759765625 411.2229919433594 401.3176574707031 C 412.472900390625 405.1029968261719 415.9228515625 408.48309326171875 419.905517578125 408.3281555175781 C 424.8212890625 408.1259460449219 428.1689453125 402.4445495605469 427.32470703125 397.58856201171875 C 426.48040771484375 392.7325744628906 422.6439208984375 388.9066467285156 418.438720703125 386.3475646972656 C 417.21630859375 385.4249572753906 415.6925048828125 384.994140625 414.16802978515625 385.1401062011719 C 412.69183349609375 385.44171142578125 411.498291015625 387.2823486328125 412.3642578125 388.5244140625 L 410.8435974121094 389.4502868652344" stroke-width="0.6000000238418579" fill="rgb(159, 159, 159)" opacity="1.0"/>
    <path d="M 436.43865966796875 369.4100036621094 C 437.11468505859375 373.7734680175781 439.30047607421875 378.0003662109375 442.8751220703125 380.58843994140625 C 446.4498291015625 383.1764831542969 451.46734619140625 383.89398193359375 455.40826416015625 381.8665466308594 C 458.1927490234375 380.4295959472656 460.22900390625 377.7690734863281 461.325439453125 374.83087158203125 C 462.421875 371.8926696777344 462.64910888671875 368.69091796875 462.4517822265625 365.56048583984375 C 462.3651123046875 364.1982116699219 462.1756591796875 362.77557373046875 461.375244140625 361.67425537109375 C 460.4581298828125 360.4111633300781 458.9095458984375 359.8020324707031 457.41845703125 359.32464599609375 C 453.20880126953125 357.97686767578125 448.6322021484375 357.2229309082031 444.3856201171875 358.4515380859375 C 440.1390380859375 359.68017578125 436.3638916015625 363.306640625 436.0596923828125 367.7059326171875 L 436.43865966796875 369.4100036621094" stroke-width="0.6000000238418579" fill="rgb(159, 159, 159)" opacity="1.0"/>
    <path d="M 423.95965576171875 409.9307556152344 C 419.946044921875 411.7355041503906 415.5628662109375 413.91546630859375 413.96307373046875 418.00592041015625 C 412.40167236328125 421.981689453125 413.9814453125 426.435546875 415.6234130859375 430.38079833984375 C 416.29278564453125 431.9825439453125 417.0185546875 433.6474609375 418.365234375 434.741455078125 C 420.6417236328125 436.5931396484375 423.9718017578125 436.283447265625 426.7772216796875 435.4378662109375 C 429.38153076171875 434.654052734375 431.8597412109375 433.500244140625 434.13604736328125 432.011962890625 C 437.8330078125 429.5966796875 441.1829833984375 425.693115234375 440.726806640625 421.3023681640625 C 440.48406982421875 418.9315185546875 439.13055419921875 416.773681640625 437.404052734375 415.1256103515625 C 435.677490234375 413.4775390625 433.57958984375 412.276123046875 431.49163818359375 411.1196594238281 C 429.4036865234375 409.963134765625 427.3272705078125 408.8714904785156 425.00531005859375 408.6788024902344 L 423.95965576171875 409.9307556152344" stroke-width="0.6000000238418579" fill="rgb(218, 166, 20)" opacity="1.0"/>
    <path d="M 141.23890686035156 225.26324462890625 C 137.14016723632812 231.37979125976562 138.77589416503906 239.66091918945312 144.89244079589844 243.75967407226562 C 145.41619873046875 244.11065673828125 145.9641876220703 244.42401123046875 146.5323028564453 244.69744873046875 C 148.69119262695312 245.73602294921875 151.24685668945312 246.16973876953125 153.4998779296875 245.35870361328125 C 155.40390014648438 244.67352294921875 156.903564453125 243.1885986328125 158.17822265625 241.61868286132812 C 161.58441162109375 237.4117431640625 163.80203247070312 232.3695068359375 164.60073852539062 227.01577758789062 C 164.80947875976562 225.60028076171875 164.91275024414062 224.12506103515625 164.4718017578125 222.76068115234375 C 163.73284912109375 220.46969604492188 161.5587158203125 218.887451171875 159.26742553710938 218.1439208984375 C 155.866455078125 217.03768920898438 152.0646209716797 217.48095703125 148.82583618164062 218.9996337890625 C 145.58706665039062 220.51834106445312 142.8852081298828 223.04443359375 140.8267059326172 225.9696044921875 L 141.23890686035156 225.26324462890625" stroke-width="0.6000000238418579" fill="rgb(143, 165, 67)" opacity="1.0"/>
    <path d="M 170.26763916015625 261.9842224121094 C 173.35272216796875 270.1309509277344 186.48611450195312 271.3141174316406 191.4818115234375 264.24615478515625 C 196.4775390625 257.1781921386719 191.55072021484375 245.643798828125 183.0513916015625 243.7218017578125 C 174.55206298828125 241.79977416992188 165.44647216796875 249.215576171875 164.97149658203125 257.9246826171875 L 170.26763916015625 261.9842224121094" stroke-width="0.6000000238418579" fill="rgb(233, 92, 21)" opacity="1.0"/>
    <path d="M 150.44154357910156 317.3502197265625 C 147.55819702148438 320.4786071777344 144.43844604492188 324.51458740234375 145.81222534179688 328.5564880371094 C 146.42152404785156 330.1437072753906 147.50833129882812 331.50274658203125 148.92276000976562 332.44610595703125 C 152.35960388183594 334.8743896484375 156.76022338867188 335.48626708984375 160.72915649414062 334.0876159667969 C 164.09283447265625 332.892578125 166.7393798828125 330.34930419921875 169.23974609375 327.8323059082031 C 170.64199829101562 326.4161071777344 172.08673095703125 324.8668212890625 172.470703125 322.9223327636719 C 172.961181640625 320.3262939453125 171.4202880859375 317.7917175292969 169.72421264648438 315.7671203613281 C 167.24566650390625 312.8009948730469 164.30340576171875 310.255615234375 161.01150512695312 308.22967529296875 C 159.87274169921875 307.5318908691406 158.63421630859375 306.87799072265625 157.2994384765625 306.85015869140625 C 156.05706787109375 306.8877868652344 154.8524169921875 307.2861022949219 153.83245849609375 307.9965515136719 C 150.65472412109375 310.0312194824219 148.52951049804688 313.3574523925781 148.01861572265625 317.0960388183594 L 150.44154357910156 317.3502197265625" stroke-width="0.6000000238418579" fill="rgb(70, 150, 179)" opacity="1.0"/>
    <path d="M 124.72627258300781 305.75347900390625 C 123.46244812011719 301.3018798828125 121.87469482421875 296.42071533203125 117.87586975097656 294.0977783203125 C 113.57875061035156 291.6050109863281 107.901611328125 293.1094665527344 104.02047729492188 296.2102966308594 C 102.52357482910156 297.40521240234375 101.16143798828125 298.88629150390625 100.59901428222656 300.71697998046875 C 100.1361083984375 302.22174072265625 100.24697875976562 303.8372497558594 100.44851684570312 305.3982849121094 C 101.07815551757812 310.3217468261719 102.76040649414062 315.46881103515625 106.71319580078125 318.4691467285156 C 110.69911193847656 321.49029541015625 116.66690063476562 321.5963134765625 120.74443054199219 318.6924133300781 C 124.82196044921875 315.7885437011719 126.7247314453125 310.1391296386719 125.19497680664062 305.3692626953125 L 124.72627258300781 305.75347900390625" stroke-width="0.6000000238418579" fill="rgb(140, 28, 33)" opacity="1.0"/>
    <path d="M 139.82984924316406 278.1708984375 C 136.2528076171875 279.9028625488281 132.54978942871094 281.7445373535156 130.02354431152344 284.8163146972656 C 127.49734497070312 287.8880615234375 126.48556518554688 292.5992736816406 128.73902893066406 295.87554931640625 C 131.5297393798828 299.91351318359375 138.1055908203125 299.7086181640625 141.75094604492188 296.40826416015625 C 145.39630126953125 293.10791015625 146.57806396484375 287.8331298828125 146.49484252929688 282.92254638671875 C 146.6213836669922 281.3998718261719 146.17254638671875 279.8851318359375 145.2368621826172 278.6772155761719 C 144.1956787109375 277.593017578125 142.00717163085938 277.5675354003906 141.4212188720703 278.9598693847656 L 139.82984924316406 278.1708984375" stroke-width="0.6000000238418579" fill="rgb(159, 159, 159)" opacity="1.0"/>
    <path d="M 162.8486328125 289.6735534667969 C 161.55419921875 293.9509582519531 161.69711303710938 298.7650451660156 163.82513427734375 302.69219970703125 C 165.95315551757812 306.61932373046875 170.2169189453125 309.4717102050781 174.70074462890625 309.3480224609375 C 177.8707275390625 309.25653076171875 180.89395141601562 307.720947265625 183.18133544921875 305.52032470703125 C 185.46868896484375 303.3196716308594 187.07843017578125 300.4979248046875 188.26959228515625 297.5552062988281 C 188.78720092773438 296.2743225097656 189.2374267578125 294.8932800292969 188.989501953125 293.53778076171875 C 188.70596313476562 291.983642578125 187.55987548828125 290.7496032714844 186.408447265625 289.660888671875 C 183.15780639648438 286.5872802734375 179.31228637695312 283.894775390625 174.89947509765625 283.1557312011719 C 170.4866943359375 282.41668701171875 165.4537353515625 284.072021484375 163.24923706054688 287.9527282714844 L 162.8486328125 289.6735534667969" stroke-width="0.6000000238418579" fill="rgb(159, 159, 159)" opacity="1.0"/>
    <path d="M 123.2357177734375 343.83392333984375 C 122.7506103515625 339.4382019042969 122.02099609375 334.57318115234375 118.60418701171875 331.7791442871094 C 115.28517150878906 329.0572509765625 110.53810119628906 329.19110107421875 106.25810241699219 329.54168701171875 C 104.51962280273438 329.6866455078125 102.70321655273438 329.86602783203125 101.24090576171875 330.8155212402344 C 98.7667236328125 332.41998291015625 98.03346252441406 335.69989013671875 97.974853515625 338.64385986328125 C 97.91940307617188 341.3763427734375 98.25660705566406 344.1026611328125 98.97613525390625 346.7392883300781 C 100.14288330078125 351.0209045410156 102.8399658203125 355.4306945800781 107.179443359375 356.35174560546875 C 109.52143859863281 356.8524169921875 112.003173828125 356.2252197265625 114.11273193359375 355.0837097167969 C 116.2222900390625 353.9421691894531 118.01950073242188 352.30755615234375 119.770751953125 350.66851806640625 C 121.52198791503906 349.0295104980469 123.2076416015625 347.3815002441406 124.109619140625 345.22076416015625 L 123.2357177734375 343.83392333984375" stroke-width="0.6000000238418579" fill="rgb(218, 166, 20)" opacity="1.0"/>
    <path d="M 163.37570190429688 349.0313720703125 C 157.6370849609375 353.5165100097656 156.6209716796875 361.8044738769531 161.1060791015625 367.5430908203125 C 161.49017333984375 368.03448486328125 161.90859985351562 368.4980163574219 162.3582763671875 368.9302062988281 C 164.06719970703125 370.57208251953125 166.33554077148438 371.767822265625 168.70330810546875 371.7002868652344 C 170.7042236328125 371.6434020996094 172.5716552734375 370.7101135253906 174.25384521484375 369.6275939941406 C 178.75265502929688 366.7237548828125 182.39187622070312 362.6683044433594 184.79348754882812 357.8825378417969 C 185.42617797851562 356.6164245605469 185.9781494140625 355.26171875 185.98440551757812 353.84332275390625 C 185.996337890625 351.4621276855469 184.44073486328125 349.30450439453125 182.516357421875 347.89910888671875 C 179.66085815429688 345.81060791015625 175.95074462890625 345.0549011230469 172.43826293945312 345.483642578125 C 168.92578125 345.912353515625 165.6072998046875 347.4535217285156 162.77044677734375 349.5681457519531 L 163.37570190429688 349.0313720703125" stroke-width="0.6000000238418579" fill="rgb(143, 165, 67)" opacity="1.0"/>
    <path d="M 134.2895965576172 380.9411315917969 C 130.63356018066406 373.2894592285156 117.79696655273438 373.2110290527344 113.52626037597656 380.47418212890625 C 109.25558471679688 387.7373352050781 114.97402954101562 398.5252685546875 123.37544250488281 399.69775390625 C 131.77685546875 400.8702087402344 140.00608825683594 392.93499755859375 139.75775146484375 384.44793701171875 L 134.2895965576172 380.9411315917969" stroke-width="0.6000000238418579" fill="rgb(233, 92, 21)" opacity="1.0"/>
    <path d="M 186.068603515625 363.541748046875 C 184.79730224609375 367.5473937988281 183.69415283203125 372.4640808105469 186.61441040039062 375.5061340332031 C 187.82366943359375 376.6715087890625 189.36474609375 377.4329528808594 191.02508544921875 377.68536376953125 C 195.11636352539062 378.42041015625 199.31011962890625 377.1268615722656 202.2764892578125 374.21490478515625 C 204.78646850585938 371.73828125 206.09063720703125 368.3553161621094 207.27499389648438 365.0569763183594 C 207.93731689453125 363.20306396484375 208.58193969726562 361.2123107910156 208.11199951171875 359.31170654296875 C 207.46484375 356.7834777832031 205.025634765625 355.16009521484375 202.66094970703125 354.0580139160156 C 199.2021484375 352.4407958984375 195.50445556640625 351.39404296875 191.711181640625 350.9584045410156 C 190.4002685546875 350.8103942871094 189.0184326171875 350.743408203125 187.81243896484375 351.2769470214844 C 186.7164306640625 351.83038330078125 185.80511474609375 352.6907653808594 185.18966674804688 353.7532043457031 C 183.1973876953125 356.9033203125 182.687255859375 360.7688293457031 183.79412841796875 364.32794189453125 L 186.068603515625 363.541748046875" stroke-width="0.6000000238418579" fill="rgb(70, 150, 179)" opacity="1.0"/>
  </g>
</svg>
