<?xml version="1.0" ?>
<svg xmlns="http://www.w3.org/2000/svg" version="1.1" width="600" height="600">
  <defs/>
  <g>
    <path d="M 352.31982421875 349.19439697265625 C 355.71337890625 353.1746520996094 363.3766784667969 351.1839294433594 364.769287109375 346.1770935058594 C 366.1618347167969 341.1702575683594 361.041259765625 335.6481018066406 355.8477478027344 336.28277587890625 C 350.6542663574219 336.9174499511719 347.0090026855469 342.9531555175781 348.50408935546875 347.9721984863281 L 352.31982421875 349.19439697265625" stroke-width="0.6000000238418579" fill="rgb(233, 92, 21)" opacity="1.0"/>
    <path d="M 106.00404357910156 203.01626586914062 C 107.69174194335938 201.18719482421875 109.51805114746094 198.82730102539062 108.71575927734375 196.46246337890625 C 108.35986328125 195.5338134765625 107.72456359863281 194.73843383789062 106.89747619628906 194.18612670898438 C 104.88783264160156 192.76449584960938 102.31379699707031 192.4051513671875 99.99163818359375 193.22198486328125 C 98.02357482910156 193.919921875 96.474609375 195.40679931640625 95.01113891601562 196.87835693359375 C 94.19038391113281 197.706298828125 93.3447265625 198.61212158203125 93.11949157714844 199.74945068359375 C 92.83169555664062 201.26788330078125 93.73223876953125 202.75106811523438 94.72372436523438 203.93597412109375 C 96.172607421875 205.671875 97.89291381835938 207.16180419921875 99.81791687011719 208.3480224609375 C 100.48382568359375 208.756591796875 101.20809936523438 209.1395263671875 101.9888916015625 209.15621948242188 C 102.71568298339844 209.13461303710938 103.42048645019531 208.90200805664062 104.01736450195312 208.48675537109375 C 105.87692260742188 207.297607421875 107.12120056152344 205.3525390625 107.42129516601562 203.165771484375 L 106.00404357910156 203.01626586914062" stroke-width="0.6000000238418579" fill="rgb(70, 150, 179)" opacity="1.0"/>
    <path d="M 456.0018310546875 425.4700927734375 C 456.947265625 427.9381103515625 458.0987548828125 430.63397216796875 460.49169921875 431.75189208984375 C 463.0628662109375 432.9512939453125 466.21575927734375 431.806640625 468.2657470703125 429.84527587890625 C 469.0565185546875 429.08941650390625 469.7559814453125 428.1776123046875 469.9827880859375 427.10760498046875 C 470.1695556640625 426.22802734375 470.0242919921875 425.314697265625 469.8302001953125 424.43701171875 C 469.2215576171875 421.6683349609375 468.00274658203125 418.8260498046875 465.6015625 417.3204345703125 C 463.1805419921875 415.80462646484375 459.7803955078125 416.0479736328125 457.60858154296875 417.9072265625 C 455.43682861328125 419.7666015625 454.641845703125 423.0770263671875 455.7547607421875 425.7125244140625 L 456.0018310546875 425.4700927734375" stroke-width="0.6000000238418579" fill="rgb(140, 28, 33)" opacity="1.0"/>
    <path d="M 87.03129577636719 201.75234985351562 C 89.31863403320312 201.04287719726562 91.69091796875 200.2794189453125 93.47296142578125 198.67697143554688 C 95.25495910644531 197.07452392578125 96.282470703125 194.35879516601562 95.23516845703125 192.20364379882812 C 93.93646240234375 189.5462646484375 90.00009155273438 189.0755615234375 87.53067016601562 190.71331787109375 C 85.06126403808594 192.35107421875 83.88168334960938 195.38726806640625 83.48860168457031 198.32049560546875 C 83.27595520019531 199.21630859375 83.40682983398438 200.15924072265625 83.85542297363281 200.9632568359375 C 84.37802124023438 201.70309448242188 85.67965698242188 201.91558837890625 86.15426635742188 201.13882446289062 L 87.03129577636719 201.75234985351562" stroke-width="0.6000000238418579" fill="rgb(159, 159, 159)" opacity="1.0"/>
    <path d="M 378.0189514160156 296.10516357421875 C 380.05859375 294.79742431640625 381.69464111328125 292.76239013671875 382.1999816894531 290.3940734863281 C 382.705322265625 288.0257568359375 381.9517517089844 285.3486022949219 380.0596008300781 283.8209533691406 C 378.7204895019531 282.7425537109375 376.9334411621094 282.31121826171875 375.2156066894531 282.41314697265625 C 373.4977722167969 282.51507568359375 371.84063720703125 283.1116638183594 370.3134765625 283.9054870605469 C 369.6490783691406 284.2513427734375 368.97723388671875 284.6622009277344 368.6022033691406 285.3083190917969 C 368.1719055175781 286.04888916015625 368.2099304199219 286.961181640625 368.30133056640625 287.8153991699219 C 368.559326171875 290.2270812988281 369.19677734375 292.6910705566406 370.755859375 294.5494384765625 C 372.31494140625 296.40777587890625 374.97271728515625 297.4973449707031 377.2479248046875 296.673583984375 L 378.0189514160156 296.10516357421875" stroke-width="0.6000000238418579" fill="rgb(159, 159, 159)" opacity="1.0"/>
    <path d="M 97.18301391601562 434.06158447265625 C 97.66908264160156 431.60498046875 98.10295104980469 428.853271484375 96.73306274414062 426.7626953125 C 95.40371704101562 424.727783203125 92.81707763671875 423.99224853515625 90.44583129882812 423.4532470703125 C 89.48223876953125 423.23565673828125 88.47068786621094 423.0234375 87.51931762695312 423.287353515625 C 85.90998840332031 423.73291015625 84.95578002929688 425.3795166015625 84.42312622070312 426.9595947265625 C 83.92816162109375 428.4259033203125 83.64631652832031 429.955810546875 83.58621215820312 431.502197265625 C 83.48773193359375 434.01324462890625 84.19393920898438 436.8538818359375 86.38088989257812 438.08984375 C 87.56057739257812 438.75885009765625 89.00767517089844 438.8424072265625 90.34129333496094 438.5849609375 C 91.67489624023438 438.327392578125 92.92375183105469 437.75042724609375 94.14849853515625 437.1632080078125 C 95.37326049804688 436.5760498046875 96.56413269042969 435.9727783203125 97.41900634765625 434.9593505859375 L 97.18301391601562 434.06158447265625" stroke-width="0.6000000238418579" fill="rgb(218, 166, 20)" opacity="1.0"/>
    <path d="M 101.26524353027344 139.52540588378906 C 105.63227844238281 140.22012329101562 109.73564147949219 137.24313354492188 110.43035888671875 132.8760986328125 C 110.4898681640625 132.5021514892578 110.52273559570312 132.12445068359375 110.52877807617188 131.745849609375 C 110.55145263671875 130.30722045898438 110.14445495605469 128.8045654296875 109.13496398925781 127.78031921386719 C 108.28195190429688 126.9146728515625 107.09469604492188 126.47088623046875 105.91775512695312 126.17117309570312 C 102.76629638671875 125.37326049804688 99.45867919921875 125.43370056152344 96.33847045898438 126.34625244140625 C 95.51412963867188 126.58883666992188 94.68377685546875 126.90397644042969 94.05087280273438 127.48794555664062 C 92.98779296875 128.4676971435547 92.67251586914062 130.05154418945312 92.84402465820312 131.48806762695312 C 93.09719848632812 133.62095642089844 94.29617309570312 135.582275390625 95.93972778320312 136.96580505371094 C 97.58328247070312 138.3493194580078 99.64093017578125 139.1864471435547 101.754150390625 139.5723114013672 L 101.26524353027344 139.52540588378906" stroke-width="0.6000000238418579" fill="rgb(143, 165, 67)" opacity="1.0"/>
    <path d="M 452.9249267578125 344.95074462890625 C 457.32025146484375 348.1929016113281 464.6405029296875 344.3500671386719 464.8685302734375 338.9282531738281 C 465.09649658203125 333.5064392089844 458.57904052734375 329.10614013671875 453.448486328125 330.98394775390625 C 448.31787109375 332.8617858886719 446.0433349609375 339.8644104003906 448.7547607421875 344.6133728027344 L 452.9249267578125 344.95074462890625" stroke-width="0.6000000238418579" fill="rgb(233, 92, 21)" opacity="1.0"/>
    <path d="M 102.25201416015625 217.34854125976562 C 103.88899230957031 215.35284423828125 105.63740539550781 212.79916381835938 104.6639404296875 210.39910888671875 C 104.23934936523438 209.45904541015625 103.53353881835938 208.67388916015625 102.64384460449219 208.15200805664062 C 100.47723388671875 206.80145263671875 97.79043579101562 206.58477783203125 95.4354248046875 207.57077026367188 C 93.43988037109375 208.41226196289062 91.92588806152344 210.0452880859375 90.49948120117188 211.65728759765625 C 89.69970703125 212.5640869140625 88.87882995605469 213.55300903320312 88.71429443359375 214.74420166015625 C 88.50801086425781 216.333740234375 89.52998352050781 217.81500244140625 90.62811279296875 218.98196411132812 C 92.23309326171875 220.69180297851562 94.10423278808594 222.13058471679688 96.16897583007812 223.24249267578125 C 96.88311767578125 223.62530517578125 97.65614318847656 223.97805786132812 98.465576171875 223.94821166992188 C 99.21676635742188 223.8819580078125 99.93246459960938 223.59857177734375 100.525390625 223.132568359375 C 102.37893676757812 221.78903198242188 103.54978942871094 219.70001220703125 103.72845458984375 217.417724609375 L 102.25201416015625 217.34854125976562" stroke-width="0.6000000238418579" fill="rgb(70, 150, 179)" opacity="1.0"/>
    <path d="M 101.8607177734375 82.49404907226562 C 102.03286743164062 85.39692687988281 102.34555053710938 88.60731506347656 104.48446655273438 90.57470703125 C 106.78338623046875 92.68673706054688 110.47090148925781 92.53306579589844 113.27272033691406 91.1563720703125 C 114.35321044921875 90.62605285644531 115.38978576660156 89.90185546875 115.9830322265625 88.854736328125 C 116.47103881835938 87.99412536621094 116.62196350097656 86.98779296875 116.70986938476562 86.00259399414062 C 116.9908447265625 82.8961181640625 116.65621948242188 79.509765625 114.63735961914062 77.1329345703125 C 112.60101318359375 74.73887634277344 108.95344543457031 73.86495971679688 106.05780029296875 75.09416198730469 C 103.16215515136719 76.3233642578125 101.22885131835938 79.53205871582031 101.52102661132812 82.66629028320312 L 101.8607177734375 82.49404907226562" stroke-width="0.6000000238418579" fill="rgb(140, 28, 33)" opacity="1.0"/>
    <path d="M 90.7574462890625 418.4703369140625 C 93.14613342285156 417.9364013671875 95.62582397460938 417.35455322265625 97.573486328125 415.8692626953125 C 99.52113342285156 414.38397216796875 100.79208374023438 411.7022705078125 99.90313720703125 409.4203796386719 C 98.79954528808594 406.6060485839844 94.82841491699219 405.8015441894531 92.17759704589844 407.26605224609375 C 89.52677917480469 408.73052978515625 88.074462890625 411.72613525390625 87.43185424804688 414.6817626953125 C 87.14125061035156 415.5767822265625 87.19671630859375 416.5482177734375 87.58732604980469 417.404296875 C 88.05862426757812 418.2010498046875 89.36703491210938 418.5250244140625 89.9146728515625 417.77288818359375 L 90.7574462890625 418.4703369140625" stroke-width="0.6000000238418579" fill="rgb(159, 159, 159)" opacity="1.0"/>
    <path d="M 468.6995849609375 61.104034423828125 C 470.0020751953125 58.81916809082031 470.55010986328125 56.03826904296875 469.843017578125 53.50648498535156 C 469.135986328125 50.974700927734375 467.0628662109375 48.78009033203125 464.4739990234375 48.26426696777344 C 462.64312744140625 47.90190124511719 460.70751953125 48.3873291015625 459.1070556640625 49.35064697265625 C 457.50665283203125 50.31396484375 456.2137451171875 51.72235107421875 455.1451416015625 53.254913330078125 C 454.6805419921875 53.922119140625 454.241455078125 54.655609130859375 454.20635986328125 55.465789794921875 C 454.1656494140625 56.394622802734375 454.6617431640625 57.25267028808594 455.179931640625 58.02803039550781 C 456.642822265625 60.217010498046875 458.4969482421875 62.265167236328125 460.93212890625 63.266693115234375 C 463.36737060546875 64.26824951171875 466.4718017578125 63.97711181640625 468.2445068359375 62.038970947265625 L 468.6995849609375 61.104034423828125" stroke-width="0.6000000238418579" fill="rgb(159, 159, 159)" opacity="1.0"/>
    <path d="M 93.80889892578125 107.27655029296875 C 96.29490661621094 108.33604431152344 99.1041259765625 109.40602111816406 101.61618041992188 108.42431640625 C 104.06051635742188 107.4730224609375 105.41236877441406 104.90521240234375 106.5087890625 102.52114868164062 C 106.95278930664062 101.552001953125 107.40179443359375 100.53105163574219 107.3345947265625 99.46775817871094 C 107.22201538085938 97.66934204101562 105.69538879394531 96.29562377929688 104.1453857421875 95.3818359375 C 102.70703125 94.53314208984375 101.15426635742188 93.8953857421875 99.53463745117188 93.48806762695312 C 96.905029296875 92.82574462890625 93.74838256835938 92.93984985351562 91.95703125 94.974365234375 C 90.98832702636719 96.07131958007812 90.57830810546875 97.58079528808594 90.5537109375 99.04629516601562 C 90.52911376953125 100.51177978515625 90.86070251464844 101.95878601074219 91.20843505859375 103.38262939453125 C 91.55615234375 104.80647277832031 91.9283447265625 106.19808959960938 92.8084716796875 107.32614135742188 L 93.80889892578125 107.27655029296875" stroke-width="0.6000000238418579" fill="rgb(218, 166, 20)" opacity="1.0"/>
    <path d="M 121.92074584960938 128.81875610351562 C 126.07785034179688 127.36134338378906 128.2664031982422 122.80986022949219 126.80899047851562 118.65274047851562 C 126.6842041015625 118.2967529296875 126.5343017578125 117.95008850097656 126.36044311523438 117.61532592773438 C 125.69956970214844 116.34341430664062 124.6317138671875 115.21868896484375 123.2620849609375 114.7984619140625 C 122.10467529296875 114.4432373046875 120.85385131835938 114.61599731445312 119.68026733398438 114.91015625 C 116.53994750976562 115.701904296875 113.66891479492188 117.32003784179688 111.36537170410156 119.59648132324219 C 110.75749206542969 120.19924926757812 110.17868041992188 120.86842346191406 109.90017700195312 121.67984008789062 C 109.43183898925781 123.04179382324219 109.9049072265625 124.5794677734375 110.73501586914062 125.75762939453125 C 111.96624755859375 127.50765991210938 113.94540405273438 128.6597137451172 116.04090881347656 129.09486389160156 C 118.13641357421875 129.53001403808594 120.33639526367188 129.29022216796875 122.37155151367188 128.62852478027344 L 121.92074584960938 128.81875610351562" stroke-width="0.6000000238418579" fill="rgb(143, 165, 67)" opacity="1.0"/>
    <path d="M 392.6586608886719 303.59661865234375 C 395.7755432128906 308.07806396484375 403.93853759765625 306.7953796386719 405.897705078125 301.7379150390625 C 407.8568115234375 296.68048095703125 403.1041564941406 290.4206848144531 397.6451721191406 290.5479431152344 C 392.18621826171875 290.6752014160156 387.78204345703125 296.5705261230469 388.8208312988281 301.9364318847656 L 392.6586608886719 303.59661865234375" stroke-width="0.6000000238418579" fill="rgb(233, 92, 21)" opacity="1.0"/>
    <path d="M 120.90048217773438 111.29545593261719 C 122.80490112304688 109.49069213867188 124.89260864257812 107.13735961914062 124.21571350097656 104.59320068359375 C 123.90693664550781 103.59121704101562 123.29486083984375 102.709716796875 122.4638671875 102.07035827636719 C 120.45037841796875 100.43307495117188 117.7681884765625 99.87327575683594 115.26788330078125 100.56849670410156 C 113.1484375 101.16366577148438 111.41412353515625 102.61827087402344 109.77081298828125 104.06280517578125 C 108.84901428222656 104.875732421875 107.89553833007812 105.76881408691406 107.57827758789062 106.94924926757812 C 107.16831970214844 108.52613830566406 108.01083374023438 110.14984130859375 108.97007751464844 111.46621704101562 C 110.37152099609375 113.39450073242188 112.07583618164062 115.08322143554688 114.01692199707031 116.46688842773438 C 114.68850708007812 116.94369506835938 115.42330932617188 117.39762878417969 116.24343872070312 117.4703369140625 C 117.00944519042969 117.49896240234375 117.76724243164062 117.30404663085938 118.42440795898438 116.909423828125 C 120.46440124511719 115.78988647460938 121.91059875488281 113.83181762695312 122.38070678710938 111.55279541015625 L 120.90048217773438 111.29545593261719" stroke-width="0.6000000238418579" fill="rgb(70, 150, 179)" opacity="1.0"/>
    <path d="M 425.78375244140625 70.57005310058594 C 426.8814697265625 73.10963439941406 428.20489501953125 75.87847900390625 430.75701904296875 76.942138671875 C 433.499267578125 78.08309936523438 436.74639892578125 76.74674987792969 438.803955078125 74.6048583984375 C 439.59765625 73.77935791015625 440.28900146484375 72.7947998046875 440.47900390625 71.6656494140625 C 440.635498046875 70.73748779296875 440.4432373046875 69.78863525390625 440.2015380859375 68.87916564941406 C 439.4427490234375 66.01022338867188 438.04254150390625 63.0911865234375 435.464599609375 61.62239074707031 C 432.865478515625 60.14387512207031 429.3199462890625 60.548431396484375 427.1304931640625 62.5889892578125 C 424.94110107421875 64.6295166015625 424.2557373046875 68.12709045410156 425.5360107421875 70.83450317382812 L 425.78375244140625 70.57005310058594" stroke-width="0.6000000238418579" fill="rgb(140, 28, 33)" opacity="1.0"/>
    <path d="M 115.19342041015625 416.7386474609375 C 116.73153686523438 414.9271240234375 118.31205749511719 413.025146484375 118.95172119140625 410.7346496582031 C 119.59136962890625 408.4441833496094 119.006591796875 405.6228332519531 116.98246765136719 404.3752136230469 C 114.48046875 402.84075927734375 110.93315124511719 404.5415344238281 109.736572265625 407.2274475097656 C 108.54000854492188 409.913330078125 109.16798400878906 413.083984375 110.39987182617188 415.7498779296875 C 110.69851684570312 416.61328125 111.30998229980469 417.3333740234375 112.11360168457031 417.76806640625 C 112.94503784179688 418.1094970703125 114.14825439453125 417.5947265625 114.13236999511719 416.69158935546875 L 115.19342041015625 416.7386474609375" stroke-width="0.6000000238418579" fill="rgb(159, 159, 159)" opacity="1.0"/>
    <path d="M 454.8797607421875 434.119140625 C 455.8201904296875 431.522705078125 455.8914794921875 428.5474853515625 454.70855712890625 426.0538330078125 C 453.525634765625 423.5601806640625 450.98919677734375 421.6588134765625 448.21844482421875 421.586669921875 C 446.2593994140625 421.5380859375 444.34307861328125 422.3853759765625 442.8587646484375 423.66748046875 C 441.37451171875 424.9495849609375 440.2877197265625 426.6373291015625 439.45526123046875 428.4136962890625 C 439.09344482421875 429.1868896484375 438.7698974609375 430.02410888671875 438.8779296875 430.86865234375 C 439.00140380859375 431.8370361328125 439.667724609375 432.636474609375 440.34210205078125 433.346435546875 C 442.24603271484375 435.3505859375 444.5296630859375 437.139404296875 447.22802734375 437.7415771484375 C 449.9263916015625 438.34381103515625 453.08673095703125 437.4891357421875 454.5755615234375 435.167724609375 L 454.8797607421875 434.119140625" stroke-width="0.6000000238418579" fill="rgb(159, 159, 159)" opacity="1.0"/>
    <path d="M 451.6456298828125 284.7705078125 C 453.3006591796875 282.6045837402344 455.0465087890625 280.1253662109375 454.712890625 277.42535400390625 C 454.39208984375 274.79913330078125 452.2191162109375 272.8379211425781 450.16204833984375 271.17218017578125 C 449.32537841796875 270.4967346191406 448.4393310546875 269.8034362792969 447.38330078125 269.6041564941406 C 445.597412109375 269.2660827636719 443.874267578125 270.41595458984375 442.5948486328125 271.70330810546875 C 441.40692138671875 272.897705078125 440.3966064453125 274.25653076171875 439.59490966796875 275.7381286621094 C 438.29229736328125 278.14337158203125 437.6173095703125 281.2572326660156 439.1595458984375 283.51513671875 C 439.9903564453125 284.7353210449219 441.36358642578125 285.5122375488281 442.7899169921875 285.9014587402344 C 444.2161865234375 286.2906494140625 445.713134765625 286.3271179199219 447.1915283203125 286.3420104980469 C 448.669921875 286.35693359375 450.12286376953125 286.33990478515625 451.44476318359375 285.7607116699219 L 451.6456298828125 284.7705078125" stroke-width="0.6000000238418579" fill="rgb(218, 166, 20)" opacity="1.0"/>
    <path d="M 419.140625 359.3388977050781 C 421.852294921875 363.02972412109375 427.04248046875 363.82354736328125 430.7333984375 361.1119079589844 C 431.0494384765625 360.8797302246094 431.34857177734375 360.6253967285156 431.628662109375 360.3508605957031 C 432.692626953125 359.3074645996094 433.48663330078125 357.90411376953125 433.488525390625 356.4146423339844 C 433.490234375 355.15594482421875 432.93853759765625 353.9647216796875 432.2896728515625 352.88714599609375 C 430.5487060546875 350.0051574707031 428.06787109375 347.64190673828125 425.104736328125 346.0428161621094 C 424.32080078125 345.6214599609375 423.47967529296875 345.2491760253906 422.5882568359375 345.21868896484375 C 421.09185791015625 345.1666259765625 419.7066650390625 346.10400390625 418.7872314453125 347.2872009277344 C 417.421142578125 349.0428771972656 416.876708984375 351.36065673828125 417.0804443359375 353.5763854980469 C 417.2841796875 355.7921142578125 418.190673828125 357.90673828125 419.4666748046875 359.7293701171875 L 419.140625 359.3388977050781" stroke-width="0.6000000238418579" fill="rgb(143, 165, 67)" opacity="1.0"/>
    <path d="M 450.1873779296875 353.1407165527344 C 453.3343505859375 349.010009765625 449.7890625 341.9942321777344 444.6380615234375 341.69757080078125 C 439.4871826171875 341.40093994140625 435.2078857421875 347.531982421875 436.91741943359375 352.4371032714844 C 438.626953125 357.34222412109375 445.2506103515625 359.6077575683594 449.80517578125 357.1001892089844 L 450.1873779296875 353.1407165527344" stroke-width="0.6000000238418579" fill="rgb(233, 92, 21)" opacity="1.0"/>
    <path d="M 453.01025390625 76.60015869140625 C 454.8231201171875 74.84245300292969 456.806396484375 72.5548095703125 456.126953125 70.1138916015625 C 455.81884765625 69.15304565429688 455.2200927734375 68.31149291992188 454.41339111328125 67.705322265625 C 452.457763671875 66.15184020996094 449.8704833984375 65.64260864257812 447.471923828125 66.339111328125 C 445.4388427734375 66.93515014648438 443.785888671875 68.35403442382812 442.2203369140625 69.76222229003906 C 441.3421630859375 70.55467224121094 440.4344482421875 71.42459106445312 440.14208984375 72.56405639648438 C 439.764892578125 74.0860595703125 440.593505859375 75.63934326171875 441.5311279296875 76.89559936523438 C 442.90093994140625 78.73583984375 444.55963134765625 80.34223937988281 446.44281005859375 81.6524658203125 C 447.0943603515625 82.10392761230469 447.80645751953125 82.53269958496094 448.59649658203125 82.59365844726562 C 449.333984375 82.61277770996094 450.06109619140625 82.41690063476562 450.689208984375 82.02989196777344 C 452.6400146484375 80.93011474609375 454.01025390625 79.02989196777344 454.4376220703125 76.83154296875 L 453.01025390625 76.60015869140625" stroke-width="0.6000000238418579" fill="rgb(70, 150, 179)" opacity="1.0"/>
    <path d="M 450.8602294921875 389.92425537109375 C 451.330810546875 388.6706848144531 451.7998046875 387.261474609375 451.2679443359375 386.0335693359375 C 450.69580078125 384.71490478515625 449.1156005859375 384.0897216796875 447.67919921875 384.1448059082031 C 447.1253662109375 384.1658020019531 446.55377197265625 384.2765808105469 446.1082763671875 384.6061706542969 C 445.741943359375 384.8769836425781 445.490234375 385.27215576171875 445.2689208984375 385.6701965332031 C 444.569580078125 386.9246826171875 444.076904296875 388.41204833984375 444.481689453125 389.78973388671875 C 444.89056396484375 391.1779479980469 446.26171875 392.2279968261719 447.71002197265625 392.2525329589844 C 449.15826416015625 392.27703857421875 450.5718994140625 391.2886962890625 451.03533935546875 389.91534423828125 L 450.8602294921875 389.92425537109375" stroke-width="0.6000000238418579" fill="rgb(140, 28, 33)" opacity="1.0"/>
    <path d="M 128.1380157470703 218.3489990234375 C 125.14305114746094 220.1224365234375 122.04617309570312 222.00082397460938 120.06637573242188 224.86663818359375 C 118.08660888671875 227.73239135742188 117.54855346679688 231.91806030273438 119.75509643554688 234.61236572265625 C 122.48626708984375 237.93206787109375 128.21017456054688 237.27178955078125 131.14991760253906 234.12457275390625 C 134.0896759033203 230.97735595703125 134.73480224609375 226.287353515625 134.30264282226562 222.00787353515625 C 134.3015899658203 220.66973876953125 133.79896545410156 219.38064575195312 132.89393615722656 218.39498901367188 C 131.9058837890625 217.5250244140625 129.99404907226562 217.66299438476562 129.58460998535156 218.92105102539062 L 128.1380157470703 218.3489990234375" stroke-width="0.6000000238418579" fill="rgb(159, 159, 159)" opacity="1.0"/>
    <path d="M 110.72836303710938 225.543212890625 C 108.42990112304688 223.492431640625 105.37875366210938 222.18450927734375 102.30593872070312 222.37509155273438 C 99.23309326171875 222.56564331054688 96.21231079101562 224.40338134765625 94.98823547363281 227.24249267578125 C 94.12535095214844 229.2508544921875 94.2078857421875 231.58660888671875 94.91978454589844 233.65536499023438 C 95.63168334960938 235.72412109375 96.92857360839844 237.54949951171875 98.42257690429688 239.1483154296875 C 99.0731201171875 239.84368896484375 99.80586242675781 240.5260009765625 100.72525024414062 240.764404296875 C 101.7791748046875 241.03823852539062 102.88331604003906 240.67990112304688 103.89814758300781 240.27606201171875 C 106.76319885253906 239.13592529296875 109.56265258789062 237.51324462890625 111.30548095703125 234.96893310546875 C 113.04830932617188 232.42462158203125 113.47422790527344 228.79769897460938 111.68792724609375 226.2930908203125 L 110.72836303710938 225.543212890625" stroke-width="0.6000000238418579" fill="rgb(159, 159, 159)" opacity="1.0"/>
    <path d="M 304.9229736328125 101.10671997070312 C 304.28912353515625 104.04798889160156 303.7120056152344 107.34480285644531 305.3151550292969 109.88397216796875 C 306.8707580566406 112.35551452636719 309.9631042480469 113.29170227050781 312.80072021484375 113.9874267578125 C 313.953857421875 114.26837158203125 315.16473388671875 114.54388427734375 316.3129577636719 114.24612426757812 C 318.25531005859375 113.74365234375 319.43505859375 111.78494262695312 320.1070556640625 109.89767456054688 C 320.7314453125 108.14620971679688 321.1011047363281 106.31414794921875 321.2047424316406 104.45759582519531 C 321.3741149902344 101.443115234375 320.5834655761719 98.01628112792969 317.98138427734375 96.48709106445312 C 316.5778503417969 95.65948486328125 314.8411560058594 95.52964782714844 313.2338562011719 95.8118896484375 C 311.6265563964844 96.09414672851562 310.1145935058594 96.76190185546875 308.63134765625 97.44241333007812 C 307.14813232421875 98.12290954589844 305.7052917480469 98.82333374023438 304.6577453613281 100.02346801757812 L 304.9229736328125 101.10671997070312" stroke-width="0.6000000238418579" fill="rgb(218, 166, 20)" opacity="1.0"/>
    <path d="M 218.6136474609375 123.38262939453125 C 215.4117431640625 119.12887573242188 209.36773681640625 118.27621459960938 205.114013671875 121.47813415527344 C 204.749755859375 121.7523193359375 204.40542602539062 122.05198669433594 204.08355712890625 122.37490844726562 C 202.86090087890625 123.60211181640625 201.95684814453125 125.244140625 201.97479248046875 126.97555541992188 C 201.98980712890625 128.43875122070312 202.64712524414062 129.81602478027344 203.41598510742188 131.0598602294922 C 205.4786376953125 134.38645935058594 208.39434814453125 137.10009765625 211.86029052734375 138.91891479492188 C 212.77725219726562 139.39813232421875 213.76007080078125 139.81951904296875 214.79666137695312 139.84292602539062 C 216.536865234375 139.88323974609375 218.13446044921875 138.77491760253906 219.18716430664062 137.38711547851562 C 220.75152587890625 135.3278045654297 221.35308837890625 132.626220703125 221.08636474609375 130.05332946777344 C 220.81961059570312 127.48043823242188 219.73724365234375 125.03457641601562 218.2293701171875 122.93313598632812 L 218.6136474609375 123.38262939453125" stroke-width="0.6000000238418579" fill="rgb(143, 165, 67)" opacity="1.0"/>
    <path d="M 224.4893798828125 93.46206665039062 C 222.7861328125 99.79708862304688 230.28753662109375 106.30366516113281 236.45184326171875 104.18630981445312 C 242.6160888671875 102.06893920898438 244.68624877929688 92.853515625 240.34091186523438 87.93643188476562 C 235.99557495117188 83.01931762695312 227.1676025390625 83.53921508789062 223.04205322265625 88.64993286132812 L 224.4893798828125 93.46206665039062" stroke-width="0.6000000238418579" fill="rgb(233, 92, 21)" opacity="1.0"/>
    <path d="M 200.31118774414062 96.30450439453125 C 199.16485595703125 93.4344482421875 197.4979248046875 90.12496948242188 194.41864013671875 89.75833129882812 C 193.1875 89.66011047363281 191.95623779296875 89.94631958007812 190.89471435546875 90.57752990722656 C 188.22616577148438 92.068603515625 186.44586181640625 94.76058959960938 186.11837768554688 97.79986572265625 C 185.84716796875 100.37872314453125 186.68426513671875 102.91018676757812 187.54998779296875 105.337646484375 C 188.03848266601562 106.70046997070312 188.60092163085938 108.13284301757812 189.75482177734375 108.99392700195312 C 191.30230712890625 110.12908935546875 193.44622802734375 109.91377258300781 195.3045654296875 109.4368896484375 C 198.02520751953125 108.74240112304688 200.61544799804688 107.61212158203125 202.97491455078125 106.08990478515625 C 203.78912353515625 105.56239318847656 204.6058349609375 104.95574951171875 205.04241943359375 104.08976745605469 C 205.4072265625 103.2637939453125 205.52374267578125 102.34954833984375 205.37789916992188 101.45846557617188 C 205.04058837890625 98.73831176757812 203.52700805664062 96.30303955078125 201.23721313476562 94.79641723632812 L 200.31118774414062 96.30450439453125" stroke-width="0.6000000238418579" fill="rgb(70, 150, 179)" opacity="1.0"/>
    <path d="M 269.2659912109375 131.52227783203125 C 268.2212219238281 134.6149444580078 267.1929931640625 138.08677673339844 268.58880615234375 141.03536987304688 C 270.090087890625 144.20191955566406 273.99127197265625 145.5967254638672 277.48663330078125 145.34571838378906 C 278.8343505859375 145.24952697753906 280.2181091308594 144.93310546875 281.2767639160156 144.09384155273438 C 282.1473083496094 143.40423583984375 282.7286071777344 142.4208984375 283.2354431152344 141.43299865722656 C 284.83746337890625 138.31954956054688 285.9170227050781 134.6553955078125 284.8187561035156 131.33143615722656 C 283.7095642089844 127.982177734375 280.2831726074219 125.53512573242188 276.7523498535156 125.5931396484375 C 273.2215576171875 125.65115356445312 269.857421875 128.17430114746094 268.8399658203125 131.55825805664062 L 269.2659912109375 131.52227783203125" stroke-width="0.6000000238418579" fill="rgb(140, 28, 33)" opacity="1.0"/>
    <path d="M 312.46026611328125 117.46157836914062 C 309.23944091796875 117.36184692382812 305.8868713378906 117.2935791015625 302.91754150390625 118.55134582519531 C 299.9482727050781 119.80908203125 297.4510498046875 122.81381225585938 297.8390197753906 126.01449584960938 C 298.3267822265625 129.96434020996094 303.1283874511719 132.28807067871094 306.9876403808594 131.28662109375 C 310.8468933105469 130.28517150878906 313.67803955078125 126.93940734863281 315.46343994140625 123.37997436523438 C 316.12652587890625 122.33351135253906 316.37322998046875 121.07655334472656 316.15484619140625 119.85711669921875 C 315.8141784667969 118.6868896484375 314.2513427734375 117.84622192382812 313.3071594238281 118.62641906738281 L 312.46026611328125 117.46157836914062" stroke-width="0.6000000238418579" fill="rgb(159, 159, 159)" opacity="1.0"/>
    <path d="M 197.4716796875 132.85693359375 C 195.30072021484375 130.6327667236328 192.3204345703125 129.1039581298828 189.21405029296875 129.08201599121094 C 186.10769653320312 129.06007385253906 182.93911743164062 130.69979858398438 181.50946044921875 133.4724884033203 C 180.50119018554688 135.43409729003906 180.42178344726562 137.791015625 180.99447631835938 139.9229278564453 C 181.567138671875 142.0548553466797 182.74560546875 143.98251342773438 184.13824462890625 145.69578552246094 C 184.7447509765625 146.44100952148438 185.43484497070312 147.17880249023438 186.34368896484375 147.4827423095703 C 187.38552856445312 147.83169555664062 188.52191162109375 147.54779052734375 189.571533203125 147.21188354492188 C 192.5347900390625 146.26351928710938 195.46560668945312 144.82489013671875 197.39691162109375 142.38504028320312 C 199.3282470703125 139.94517517089844 200.00927734375 136.32391357421875 198.38543701171875 133.6785430908203 L 197.4716796875 132.85693359375" stroke-width="0.6000000238418579" fill="rgb(159, 159, 159)" opacity="1.0"/>
    <path d="M 280.4709167480469 105.34237670898438 C 277.40338134765625 106.43142700195312 274.0408630371094 107.77484130859375 272.6153869628906 110.69418334960938 C 271.2251281738281 113.53128051757812 272.1217956542969 116.90980529785156 273.0949401855469 119.9171142578125 C 273.4920654296875 121.13822937011719 273.927001953125 122.40934753417969 274.8539733886719 123.296875 C 276.4208679199219 124.79888916015625 278.89447021484375 124.77096557617188 281.01361083984375 124.31634521484375 C 282.980712890625 123.8951416015625 284.8771057128906 123.19364929199219 286.6448059082031 122.23336791992188 C 289.5155944824219 120.67518615722656 292.2200622558594 117.99894714355469 292.14794921875 114.7344970703125 C 292.1116027832031 112.97209167480469 291.24359130859375 111.29981994628906 290.06988525390625 109.98095703125 C 288.89617919921875 108.662109375 287.421875 107.65020751953125 285.9521484375 106.67198181152344 C 284.4824523925781 105.69375610351562 283.017333984375 104.76405334472656 281.3171081542969 104.4822998046875 L 280.4709167480469 105.34237670898438" stroke-width="0.6000000238418579" fill="rgb(218, 166, 20)" opacity="1.0"/>
    <path d="M 241.24041748046875 116.58663940429688 C 240.91314697265625 122.084716796875 245.10488891601562 126.80708312988281 250.60296630859375 127.13435363769531 C 251.07376098632812 127.16238403320312 251.54595947265625 127.15696716308594 252.0159912109375 127.1181640625 C 253.802001953125 126.97041320800781 255.6148681640625 126.28221130371094 256.76104736328125 124.90568542480469 C 257.7297668457031 123.74250793457031 258.1347351074219 122.21658325195312 258.36236572265625 120.72108459472656 C 258.9661560058594 116.7171630859375 258.48687744140625 112.62460327148438 256.97430419921875 108.8685302734375 C 256.5727844238281 107.87635803222656 256.0806579589844 106.8856201171875 255.2794189453125 106.17251586914062 C 253.93502807617188 104.97454833984375 251.9332275390625 104.77735900878906 250.173583984375 105.16558837890625 C 247.56069946289062 105.74015808105469 245.276123046875 107.46609497070312 243.7620849609375 109.6724853515625 C 242.24810791015625 111.87889099121094 241.46197509765625 114.53179931640625 241.24203491210938 117.19839477539062 L 241.24041748046875 116.58663940429688" stroke-width="0.6000000238418579" fill="rgb(143, 165, 67)" opacity="1.0"/>
    <path d="M 250.86056518554688 90.88973999023438 C 249.88836669921875 97.37820434570312 258.0819396972656 102.9906005859375 263.96636962890625 100.18585205078125 C 269.85076904296875 97.38107299804688 270.8600158691406 87.98876953125 265.98321533203125 83.596923828125 C 261.1064147949219 79.205078125 252.39361572265625 80.72537231445312 248.87530517578125 86.272705078125 L 250.86056518554688 90.88973999023438" stroke-width="0.6000000238418579" fill="rgb(233, 92, 21)" opacity="1.0"/>
    <path d="M 337.79852294921875 84.26004028320312 C 334.89251708984375 82.83779907226562 331.2737121582031 81.4403076171875 328.6261901855469 83.31903076171875 C 327.6016845703125 84.10769653320312 326.84710693359375 85.19485473632812 326.4666748046875 86.43051147460938 C 325.4430236816406 89.4625244140625 325.9525146484375 92.8026123046875 327.8335266113281 95.39157104492188 C 329.43475341796875 97.58364868164062 331.8629150390625 98.96029663085938 334.24017333984375 100.23616027832031 C 335.5767517089844 100.95068359375 337.0195617675781 101.66729736328125 338.52008056640625 101.52496337890625 C 340.51861572265625 101.31884765625 342.0313415527344 99.64553833007812 343.138671875 97.9698486328125 C 344.7623291015625 95.51950073242188 345.9786376953125 92.822509765625 346.740478515625 89.98348999023438 C 347.0018310546875 89.00204467773438 347.20953369140625 87.95744323730469 346.94000244140625 86.97859191894531 C 346.6428527832031 86.08126831054688 346.0910339355469 85.289794921875 345.351806640625 84.70068359375 C 343.17901611328125 82.826416015625 340.29339599609375 81.99967956542969 337.457763671875 82.43899536132812 L 337.79852294921875 84.26004028320312" stroke-width="0.6000000238418579" fill="rgb(70, 150, 179)" opacity="1.0"/>
    <path d="M 334.3075866699219 131.4292755126953 C 333.4706115722656 128.3589324951172 332.4139404296875 124.9908447265625 329.68084716796875 123.36459350585938 C 326.7438049316406 121.61941528320312 322.8289794921875 122.613037109375 320.1376647949219 124.71737670898438 C 319.09967041015625 125.52828979492188 318.15228271484375 126.53695678710938 317.7523193359375 127.79182434082031 C 317.42315673828125 128.82325744628906 317.48773193359375 129.93499755859375 317.6150817871094 131.00991821289062 C 318.0125427246094 134.4001922607422 319.13226318359375 137.95179748535156 321.8288269042969 140.04354858398438 C 324.54803466796875 142.14984130859375 328.651123046875 142.26577758789062 331.47607421875 140.29827880859375 C 334.301025390625 138.33078002929688 335.6502380371094 134.45956420898438 334.6326904296875 131.16842651367188 L 334.3075866699219 131.4292755126953" stroke-width="0.6000000238418579" fill="rgb(140, 28, 33)" opacity="1.0"/>
    <path d="M 347.8217468261719 104.38087463378906 C 344.5024108886719 103.0191650390625 341.033447265625 101.6387939453125 337.4462585449219 101.79071044921875 C 333.859130859375 101.942626953125 330.0820007324219 104.10038757324219 329.2366638183594 107.58917236328125 C 328.2027893066406 111.89804077148438 332.3018798828125 116.19595336914062 336.7168884277344 116.6588134765625 C 341.13189697265625 117.12167358398438 345.390380859375 114.73867797851562 348.6419372558594 111.72457885742188 C 349.7419738769531 110.89239501953125 350.49005126953125 109.67813110351562 350.738525390625 108.32135009765625 C 350.84027099609375 106.96818542480469 349.5390625 105.48135375976562 348.2499084472656 105.9261474609375 L 347.8217468261719 104.38087463378906" stroke-width="0.6000000238418579" fill="rgb(159, 159, 159)" opacity="1.0"/>
    <path d="M 348.6622314453125 128.19561767578125 C 345.5228576660156 128.87118530273438 342.54656982421875 130.63706970214844 340.8189392089844 133.34197998046875 C 339.0912780761719 136.046875 338.7828063964844 139.72007751464844 340.421630859375 142.49545288085938 C 341.5827941894531 144.45620727539062 343.6006164550781 145.82191467285156 345.7802429199219 146.49354553222656 C 347.9598693847656 147.16519165039062 350.2940368652344 147.19461059570312 352.5584716796875 146.91883850097656 C 353.5438232421875 146.79824829101562 354.5686950683594 146.6004180908203 355.33441162109375 145.97265625 C 356.21258544921875 145.2533416748047 356.5892639160156 144.10328674316406 356.87274169921875 143.00048828125 C 357.6730041503906 139.8870849609375 358.0266418457031 136.53244018554688 356.954833984375 133.50132751464844 C 355.8830261230469 130.47021484375 353.0902404785156 127.88291931152344 349.8833923339844 127.84829711914062 L 348.6622314453125 128.19561767578125" stroke-width="0.6000000238418579" fill="rgb(159, 159, 159)" opacity="1.0"/>
    <path d="M 364.8290710449219 114.33340454101562 C 361.65277099609375 115.3065185546875 358.1642761230469 116.5257568359375 356.5802917480469 119.43844604492188 C 355.0358581542969 122.26889038085938 355.7989196777344 125.753662109375 356.65655517578125 128.8634033203125 C 357.0068054199219 130.1261749267578 357.39337158203125 131.441650390625 358.2987365722656 132.38803100585938 C 359.8291015625 133.9895477294922 362.3523864746094 134.07177734375 364.5333557128906 133.7030792236328 C 366.55780029296875 133.3616485595703 368.522705078125 132.73129272460938 370.36798095703125 131.83131408691406 C 373.36468505859375 130.37107849121094 376.24188232421875 127.76347351074219 376.3144226074219 124.43190002441406 C 376.3562316894531 122.63336181640625 375.5460510253906 120.8895263671875 374.40838623046875 119.4923095703125 C 373.2707214355469 118.09512329101562 371.8128356933594 116.9974365234375 370.3581237792969 115.93431091308594 C 368.9034118652344 114.87118530273438 367.45123291015625 113.85769653320312 365.7303161621094 113.49436950683594 L 364.8290710449219 114.33340454101562" stroke-width="0.6000000238418579" fill="rgb(218, 166, 20)" opacity="1.0"/>
    <path d="M 433.0369873046875 152.21673583984375 C 427.37451171875 153.30917358398438 423.66973876953125 158.78515625 424.76220703125 164.4476318359375 C 424.855712890625 164.93252563476562 424.9835205078125 165.41015625 425.1446533203125 165.876953125 C 425.75732421875 167.65057373046875 426.9251708984375 169.3114013671875 428.61859130859375 170.1175537109375 C 430.049560546875 170.7989501953125 431.7025146484375 170.81439208984375 433.2786865234375 170.65789794921875 C 437.4970703125 170.23309326171875 441.524658203125 168.6865234375 444.94329833984375 166.17892456054688 C 445.8458251953125 165.51455688476562 446.723388671875 164.75860595703125 447.2392578125 163.76101684570312 C 448.1063232421875 162.08676147460938 447.7877197265625 160.0048828125 446.93792724609375 158.3203125 C 445.6781005859375 155.81845092773438 443.33526611328125 153.9479522705078 440.70465087890625 152.983642578125 C 438.07403564453125 152.01931762695312 435.1790771484375 151.90914916992188 432.41680908203125 152.37689208984375 L 433.0369873046875 152.21673583984375" stroke-width="0.6000000238418579" fill="rgb(143, 165, 67)" opacity="1.0"/>
    <path d="M 143.277099609375 417.8665771484375 C 140.5814971923828 423.85687255859375 146.95753479003906 431.4869384765625 153.38926696777344 430.3785400390625 C 159.82098388671875 429.27001953125 163.33935546875 420.4910888671875 159.82928466796875 414.93634033203125 C 156.3192138671875 409.381591796875 147.50953674316406 408.48541259765625 142.61500549316406 412.8785400390625 L 143.277099609375 417.8665771484375" stroke-width="0.6000000238418579" fill="rgb(233, 92, 21)" opacity="1.0"/>
    <path d="M 435.82135009765625 186.7552490234375 C 432.486572265625 186.41461181640625 428.4677734375 186.35357666015625 426.5677490234375 189.12905883789062 C 425.8546142578125 190.26300048828125 425.5108642578125 191.59033203125 425.58404541015625 192.92791748046875 C 425.67608642578125 196.24224853515625 427.36883544921875 199.30645751953125 430.12554931640625 201.14874267578125 C 432.468017578125 202.70550537109375 435.3218994140625 203.17315673828125 438.09027099609375 203.56106567382812 C 439.64569091796875 203.77645874023438 441.30517578125 203.95574951171875 442.7127685546875 203.2794189453125 C 444.58154296875 202.36251831054688 445.4521484375 200.193603515625 445.927734375 198.16766357421875 C 446.6275634765625 195.20361328125 446.843017578125 192.14581298828125 446.565673828125 189.1129150390625 C 446.4678955078125 188.065185546875 446.29522705078125 186.97528076171875 445.6822509765625 186.12039184570312 C 445.07171630859375 185.35467529296875 444.25152587890625 184.78314208984375 443.32171630859375 184.47549438476562 C 440.53759765625 183.43258666992188 437.4361572265625 183.66351318359375 434.837158203125 185.107177734375 L 435.82135009765625 186.7552490234375" stroke-width="0.6000000238418579" fill="rgb(70, 150, 179)" opacity="1.0"/>
    <path d="M 407.96240234375 157.2645263671875 C 407.6587829589844 153.853515625 407.1790466308594 150.0854034423828 404.5928649902344 147.84396362304688 C 401.81329345703125 145.43783569335938 397.47802734375 145.7470245361328 394.2278747558594 147.46499633789062 C 392.9744567871094 148.12684631347656 391.77947998046875 149.01536560058594 391.1175842285156 150.26858520507812 C 390.5730895996094 151.298583984375 390.430419921875 152.4884033203125 390.3612365722656 153.65113830566406 C 390.1385498046875 157.31759643554688 390.6502685546875 161.29205322265625 393.1093444824219 164.01962280273438 C 395.58966064453125 166.76687622070312 399.9136657714844 167.668701171875 403.2793884277344 166.12103271484375 C 406.6451416015625 164.57342529296875 408.8092041015625 160.72915649414062 408.35626220703125 157.04998779296875 L 407.96240234375 157.2645263671875" stroke-width="0.6000000238418579" fill="rgb(140, 28, 33)" opacity="1.0"/>
    <path d="M 137.30752563476562 123.05628967285156 C 133.68032836914062 123.16802978515625 129.90725708007812 123.32429504394531 126.65711975097656 124.94438171386719 C 123.40704345703125 126.564453125 120.80892944335938 130.11534118652344 121.46746826171875 133.68600463867188 C 122.29019165039062 138.09178161621094 127.8487548828125 140.3699951171875 132.11700439453125 138.9761505126953 C 136.38526916503906 137.58230590820312 139.33497619628906 133.62486267089844 141.09445190429688 129.49993896484375 C 141.76702880859375 128.27761840820312 141.95697021484375 126.84762573242188 141.6267547607422 125.49212646484375 C 141.16250610351562 124.20046997070312 139.3474578857422 123.36416625976562 138.3404083251953 124.30673217773438 L 137.30752563476562 123.05628967285156" stroke-width="0.6000000238418579" fill="rgb(159, 159, 159)" opacity="1.0"/>
    <path d="M 419.7789306640625 178.30770874023438 C 417.06494140625 176.17828369140625 413.56231689453125 174.93234252929688 410.1414489746094 175.36273193359375 C 406.7205505371094 175.7930908203125 403.474365234375 178.06072998046875 402.3071594238281 181.32046508789062 C 401.4848327636719 183.62615966796875 401.7423095703125 186.23092651367188 402.684326171875 188.49267578125 C 403.6263427734375 190.75445556640625 405.2049560546875 192.702880859375 406.9878234863281 194.38409423828125 C 407.7641296386719 195.115234375 408.63134765625 195.82598876953125 409.6757507324219 196.02740478515625 C 410.873046875 196.2589111328125 412.081787109375 195.7802734375 413.1873779296875 195.25714111328125 C 416.308837890625 193.7801513671875 419.3228759765625 191.7685546875 421.0908203125 188.80157470703125 C 422.858642578125 185.83465576171875 423.078125 181.7508544921875 420.9044189453125 179.07794189453125 L 419.7789306640625 178.30770874023438" stroke-width="0.6000000238418579" fill="rgb(159, 159, 159)" opacity="1.0"/>
    <path d="M 401.60882568359375 187.9959716796875 C 400.6658630371094 184.982666015625 399.4872131347656 181.674072265625 396.7098693847656 180.1851806640625 C 394.010986328125 178.73345947265625 390.70330810546875 179.478515625 387.75262451171875 180.31134033203125 C 386.554443359375 180.65142822265625 385.306396484375 181.02630615234375 384.4120788574219 181.8922119140625 C 382.8986511230469 183.3558349609375 382.83489990234375 185.75448608398438 383.1977233886719 187.82522583007812 C 383.53375244140625 189.74737548828125 384.14404296875 191.61126708984375 385.0099182128906 193.35992431640625 C 386.4148254394531 196.19976806640625 388.9095458984375 198.91946411132812 392.0763854980469 198.96945190429688 C 393.7859802246094 198.99893188476562 395.43878173828125 198.218994140625 396.7602233886719 197.1297607421875 C 398.0816650390625 196.04052734375 399.11663818359375 194.648681640625 400.1187744140625 193.260009765625 C 401.12091064453125 191.87139892578125 402.07586669921875 190.48541259765625 402.4114074707031 188.8477783203125 L 401.60882568359375 187.9959716796875" stroke-width="0.6000000238418579" fill="rgb(218, 166, 20)" opacity="1.0"/>
    <path d="M 449.739501953125 177.921630859375 C 449.172607421875 183.213134765625 453.002685546875 187.96221923828125 458.294189453125 188.52908325195312 C 458.747314453125 188.57763671875 459.2032470703125 188.59396362304688 459.65869140625 188.57797241210938 C 461.38916015625 188.51690673828125 463.1702880859375 187.9354248046875 464.33935546875 186.65924072265625 C 465.327392578125 185.580810546875 465.787841796875 184.1265869140625 466.07586669921875 182.693603515625 C 466.8414306640625 178.8568115234375 466.565673828125 174.88504028320312 465.2772216796875 171.19085693359375 C 464.93505859375 170.21493530273438 464.50531005859375 169.23626708984375 463.7645263671875 168.51144409179688 C 462.521728515625 167.29388427734375 460.59869384765625 167.01217651367188 458.88262939453125 167.3065185546875 C 456.3345947265625 167.74179077148438 454.0509033203125 169.30328369140625 452.4888916015625 171.3636474609375 C 450.927001953125 173.42401123046875 450.047119140625 175.94854736328125 449.713134765625 178.51214599609375 L 449.739501953125 177.921630859375" stroke-width="0.6000000238418579" fill="rgb(143, 165, 67)" opacity="1.0"/>
    <path d="M 148.36793518066406 102.43502807617188 C 142.6262664794922 107.10560607910156 145.19189453125 118.01165771484375 152.2292938232422 120.14541625976562 C 159.2667236328125 122.27914428710938 167.24615478515625 115.21583557128906 166.51812744140625 107.84805297851562 C 165.79006958007812 100.48027038574219 157.37078857421875 95.1260986328125 150.22171020507812 97.0770263671875 L 148.36793518066406 102.43502807617188" stroke-width="0.6000000238418579" fill="rgb(233, 92, 21)" opacity="1.0"/>
    <path d="M 455.6407470703125 151.52577209472656 C 453.90533447265625 154.8433074951172 452.1763916015625 158.98617553710938 454.267578125 162.10711669921875 C 455.14813232421875 163.3167724609375 456.38232421875 164.22335815429688 457.7999267578125 164.70181274414062 C 461.275634765625 165.98004150390625 465.15521240234375 165.49432373046875 468.20849609375 163.398681640625 C 470.7939453125 161.6143798828125 472.4617919921875 158.84823608398438 474.011474609375 156.13778686523438 C 474.8795166015625 154.6138153076172 475.7532958984375 152.96701049804688 475.63519287109375 151.22677612304688 C 475.458740234375 148.9084930419922 473.570068359375 147.10665893554688 471.66595458984375 145.77371215820312 C 468.88177490234375 143.81942749023438 465.7996826171875 142.3286895751953 462.5390625 141.3592987060547 C 461.411865234375 141.02651977539062 460.2099609375 140.75384521484375 459.0692138671875 141.03524780273438 C 458.02197265625 141.35116577148438 457.0892333984375 141.9649658203125 456.3848876953125 142.8018035888672 C 454.1492919921875 145.25714111328125 453.1033935546875 148.56956481933594 453.5235595703125 151.8634796142578 L 455.6407470703125 151.52577209472656" stroke-width="0.6000000238418579" fill="rgb(70, 150, 179)" opacity="1.0"/>
    <path d="M 373.87567138671875 76.596435546875 C 374.5682373046875 72.67105102539062 375.1710510253906 68.29098510742188 372.9439697265625 64.98825073242188 C 370.5494689941406 61.44181823730469 365.5837097167969 60.47541809082031 361.41046142578125 61.42109680175781 C 359.80126953125 61.7850341796875 358.1890563964844 62.421417236328125 357.0654296875 63.62919616699219 C 356.141357421875 64.62171936035156 355.62042236328125 65.91561889648438 355.1902770996094 67.20135498046875 C 353.828857421875 71.25428771972656 353.19940185546875 75.87594604492188 355.1363525390625 79.68649291992188 C 357.0911560058594 83.52557373046875 361.67724609375 85.84951782226562 365.9287414550781 85.13027954101562 C 370.18023681640625 84.41104125976562 373.77734375 80.74667358398438 374.3833312988281 76.47467041015625 L 373.87567138671875 76.596435546875" stroke-width="0.6000000238418579" fill="rgb(140, 28, 33)" opacity="1.0"/>
    <path d="M 131.78150939941406 413.57073974609375 C 128.8362579345703 415.99737548828125 125.79832458496094 418.554931640625 124.13717651367188 421.99365234375 C 122.47605895996094 425.43231201171875 122.59953308105469 430.05755615234375 125.44464111328125 432.60400390625 C 128.963623046875 435.7393798828125 135.05307006835938 434.05810546875 137.70664978027344 430.152587890625 C 140.36024475097656 426.24700927734375 140.26766967773438 421.057373046875 139.07728576660156 416.494140625 C 138.85032653808594 415.044677734375 138.08827209472656 413.7330322265625 136.9414825439453 412.8179931640625 C 135.7242889404297 412.042236328125 133.67642211914062 412.51434326171875 133.4451904296875 413.9462890625 L 131.78150939941406 413.57073974609375" stroke-width="0.6000000238418579" fill="rgb(159, 159, 159)" opacity="1.0"/>
    <path d="M 411.3497314453125 206.3604736328125 C 409.9331359863281 202.71878051757812 407.23797607421875 199.48312377929688 403.65521240234375 197.92861938476562 C 400.07244873046875 196.37411499023438 395.5997619628906 196.71124267578125 392.58099365234375 199.21505737304688 C 390.448974609375 200.98797607421875 389.1968994140625 203.67547607421875 388.8099365234375 206.42364501953125 C 388.4229736328125 209.171875 388.83740234375 211.98193359375 389.6050720214844 214.64947509765625 C 389.9398498535156 215.81011962890625 390.375 217.00332641601562 391.2767639160156 217.80233764648438 C 392.31024169921875 218.7188720703125 393.76458740234375 218.9498291015625 395.1441650390625 219.07791137695312 C 399.0390319824219 219.43951416015625 403.1376953125 219.21795654296875 406.5729675292969 217.34613037109375 C 410.00823974609375 215.47433471679688 412.57867431640625 211.620361328125 412.0023193359375 207.7607421875 L 411.3497314453125 206.3604736328125" stroke-width="0.6000000238418579" fill="rgb(159, 159, 159)" opacity="1.0"/>
    <path d="M 383.0204772949219 121.13027954101562 C 379.3246154785156 122.30874633789062 375.2675476074219 123.77874755859375 373.45672607421875 127.20077514648438 C 371.6910400390625 130.52622985839844 372.6283264160156 134.58505249023438 373.6710510253906 138.20469665527344 C 374.0968322753906 139.6745147705078 374.565673828125 141.2053680419922 375.6354064941406 142.29835510253906 C 377.4436340332031 144.14801025390625 380.3909912109375 144.21047973632812 382.93267822265625 143.7509765625 C 385.29193115234375 143.32540893554688 387.577880859375 142.56326293945312 389.72052001953125 141.48788452148438 C 393.2001953125 139.74302673339844 396.5250244140625 136.6600341796875 396.5654602050781 132.7689971923828 C 396.5903625488281 130.66839599609375 395.6211853027344 128.6429901123047 394.27423095703125 127.02668762207031 C 392.9272766113281 125.410400390625 391.21038818359375 124.1480712890625 389.4976806640625 122.92605590820312 C 387.78497314453125 121.70404052734375 386.0758972167969 120.53997802734375 384.0616455078125 120.13861083984375 L 383.0204772949219 121.13027954101562" stroke-width="0.6000000238418579" fill="rgb(218, 166, 20)" opacity="1.0"/>
    <path d="M 402.9591369628906 79.27157592773438 C 398.83416748046875 74.4962158203125 391.6190185546875 73.96896362304688 386.8436584472656 78.09393310546875 C 386.43475341796875 78.44715881347656 386.0514221191406 78.82894897460938 385.6965026855469 79.23641967773438 C 384.3482971191406 80.78497314453125 383.4099426269531 82.79869079589844 383.5689697265625 84.84475708007812 C 383.70318603515625 86.57382202148438 384.5901184082031 88.15017700195312 385.59832763671875 89.55987548828125 C 388.30224609375 93.32954406738281 391.9662170410156 96.30645751953125 396.2096252441406 98.181396484375 C 397.33209228515625 98.67510986328125 398.5278625488281 99.09521484375 399.7555236816406 99.04037475585938 C 401.81658935546875 98.94953918457031 403.6175842285156 97.51174926757812 404.75201416015625 95.78680419921875 C 406.43798828125 93.22708129882812 406.9343566894531 89.98446655273438 406.41412353515625 86.963134765625 C 405.8939208984375 83.94183349609375 404.4193115234375 81.13565063476562 402.46893310546875 78.7706298828125 L 402.9591369628906 79.27157592773438" stroke-width="0.6000000238418579" fill="rgb(143, 165, 67)" opacity="1.0"/>
    <path d="M 118.01829528808594 426.30999755859375 C 114.46182250976562 419.73223876953125 103.15348815917969 420.22802734375 99.71199035644531 426.8123779296875 C 96.27052307128906 433.3968505859375 101.78131103515625 442.6458740234375 109.23182678222656 443.3087158203125 C 116.68234252929688 443.97161865234375 123.5804443359375 436.62115478515625 122.98828125 429.15771484375 L 118.01829528808594 426.30999755859375" stroke-width="0.6000000238418579" fill="rgb(233, 92, 21)" opacity="1.0"/>
    <path d="M 449.609619140625 198.1519775390625 C 447.88580322265625 201.47564697265625 446.17138671875 205.6246337890625 448.2735595703125 208.73828125 C 449.15838623046875 209.94482421875 450.395751953125 210.84710693359375 451.81512451171875 211.32058715820312 C 455.2952880859375 212.58660888671875 459.17327880859375 212.08724975585938 462.21923828125 209.98086547851562 C 464.7984619140625 208.18746948242188 466.4566650390625 205.4154052734375 467.996826171875 202.699462890625 C 468.8594970703125 201.17242431640625 469.7274169921875 199.52252197265625 469.603271484375 197.78268432617188 C 469.418701171875 195.4649658203125 467.5235595703125 193.66976928710938 465.61480712890625 192.343505859375 C 462.82373046875 190.39898681640625 459.736328125 188.9190673828125 456.4722900390625 187.96112060546875 C 455.3438720703125 187.63229370117188 454.1409912109375 187.36383056640625 453.001220703125 187.64923095703125 C 451.955078125 187.96884155273438 451.0245361328125 188.5859375 450.322998046875 189.42526245117188 C 448.0960693359375 191.88848876953125 447.061767578125 195.20465087890625 447.4935302734375 198.49713134765625 L 449.609619140625 198.1519775390625" stroke-width="0.6000000238418579" fill="rgb(70, 150, 179)" opacity="1.0"/>
    <path d="M 415.030517578125 136.82174682617188 C 414.7276611328125 132.78125 414.22235107421875 128.3153839111328 411.1997375488281 125.62091064453125 C 407.9510803222656 122.72837829589844 402.8170166015625 123.02255249023438 398.9434814453125 125.00135803222656 C 397.4496765136719 125.763671875 396.0212707519531 126.79512023925781 395.2174987792969 128.26683044433594 C 394.5563049316406 129.47640991210938 394.3678894042969 130.88168334960938 394.2668151855469 132.25613403320312 C 393.9428405761719 136.5901336669922 394.4825744628906 141.3006591796875 397.3468017578125 144.56817626953125 C 400.23577880859375 147.8593292236328 405.33648681640625 148.99765014648438 409.3439636230469 147.22225952148438 C 413.3514404296875 145.44688415527344 415.97515869140625 140.9346160888672 415.50006103515625 136.57440185546875 L 415.030517578125 136.82174682617188" stroke-width="0.6000000238418579" fill="rgb(140, 28, 33)" opacity="1.0"/>
    <path d="M 400.60565185546875 69.8289794921875 C 401.7382507324219 73.432861328125 402.95654296875 77.17041015625 405.4947814941406 79.97198486328125 C 408.0329895019531 82.77348327636719 412.3228759765625 84.37826538085938 415.71624755859375 82.71353149414062 C 419.900390625 80.64927673339844 420.61962890625 74.43722534179688 418.02166748046875 70.55160522460938 C 415.4237060546875 66.66598510742188 410.6274108886719 64.82321166992188 405.9981689453125 64.22047424316406 C 404.5838623046875 63.89031982421875 403.09722900390625 64.10232543945312 401.83160400390625 64.814697265625 C 400.6676940917969 65.64341735839844 400.3402099609375 67.69784545898438 401.5682678222656 68.44195556640625 L 400.60565185546875 69.8289794921875" stroke-width="0.6000000238418579" fill="rgb(159, 159, 159)" opacity="1.0"/>
    <path d="M 440.6448974609375 236.21905517578125 C 438.3321533203125 239.45321655273438 437.0771484375 243.55023193359375 437.7481689453125 247.46710205078125 C 438.41912841796875 251.38397216796875 441.1966552734375 255.0054931640625 445.0098876953125 256.18231201171875 C 447.70697021484375 257.01092529296875 450.6929931640625 256.5808410644531 453.24896240234375 255.38018798828125 C 455.804931640625 254.1795654296875 457.967529296875 252.26193237304688 459.8118896484375 250.12286376953125 C 460.61395263671875 249.19146728515625 461.38787841796875 248.156494140625 461.5662841796875 246.94357299804688 C 461.7713623046875 245.5531005859375 461.1583251953125 244.18588256835938 460.499267578125 242.93960571289062 C 458.63848876953125 239.421142578125 456.16766357421875 236.0538330078125 452.6607666015625 234.17034912109375 C 449.15380859375 232.28692626953125 444.4403076171875 232.24365234375 441.47412109375 234.88357543945312 L 440.6448974609375 236.21905517578125" stroke-width="0.6000000238418579" fill="rgb(159, 159, 159)" opacity="1.0"/>
    <path d="M 407.33966064453125 263.084716796875 C 405.3093566894531 259.6490173339844 402.9037170410156 255.91799926757812 399.0563049316406 254.88775634765625 C 395.31610107421875 253.88055419921875 391.46099853515625 255.7523193359375 388.070556640625 257.6290588378906 C 386.6943664550781 258.3934631347656 385.266845703125 259.215087890625 384.4163513183594 260.538818359375 C 382.97662353515625 262.7767639160156 383.5906677246094 265.7467956542969 384.635009765625 268.1901550292969 C 385.60345458984375 270.4583740234375 386.892578125 272.57574462890625 388.4629211425781 274.4775390625 C 391.0115966796875 277.5664367675781 394.8666076660156 280.19281005859375 398.77789306640625 279.34002685546875 C 400.89013671875 278.8827209472656 402.6987609863281 277.44580078125 404.0103759765625 275.7239685058594 C 405.32196044921875 274.0021057128906 406.19366455078125 271.9905700683594 407.0259094238281 269.9924621582031 C 407.858154296875 267.994384765625 408.63311767578125 266.0132141113281 408.57318115234375 263.9011535644531 L 407.33966064453125 263.084716796875" stroke-width="0.6000000238418579" fill="rgb(218, 166, 20)" opacity="1.0"/>
    <path d="M 415.445556640625 87.40603637695312 C 413.01544189453125 93.26382446289062 415.7940673828125 99.9825439453125 421.65185546875 102.41268920898438 C 422.1534423828125 102.62078857421875 422.669189453125 102.79302978515625 423.1951904296875 102.92813110351562 C 425.19390869140625 103.441162109375 427.42572021484375 103.37637329101562 429.19189453125 102.31124877929688 C 430.6845703125 101.41130065917969 431.7008056640625 99.904052734375 432.5125732421875 98.36299133300781 C 434.679931640625 94.2349853515625 435.702392578125 89.6019287109375 435.47381591796875 84.94515991210938 C 435.411376953125 83.71432495117188 435.24969482421875 82.45086669921875 434.6470947265625 81.37283325195312 C 433.636474609375 79.56240844726562 431.53314208984375 78.59274291992188 429.47235107421875 78.35125732421875 C 426.4130859375 77.99063110351562 423.27667236328125 79.00639343261719 420.7972412109375 80.83554077148438 C 418.31781005859375 82.66470336914062 416.4617919921875 85.25418090820312 415.216552734375 88.07217407226562 L 415.445556640625 87.40603637695312" stroke-width="0.6000000238418579" fill="rgb(143, 165, 67)" opacity="1.0"/>
    <path d="M 442.1409912109375 129.5013427734375 C 439.19873046875 136.35690307617188 446.590087890625 144.89483642578125 453.87164306640625 143.50875854492188 C 461.15313720703125 142.1226348876953 464.9744873046875 132.0840606689453 460.87860107421875 125.84597778320312 C 456.78271484375 119.60791015625 446.76123046875 118.76481628417969 441.2904052734375 123.85031127929688 L 442.1409912109375 129.5013427734375" stroke-width="0.6000000238418579" fill="rgb(233, 92, 21)" opacity="1.0"/>
    <path d="M 446.07989501953125 93.09814453125 C 445.2691650390625 96.70870971679688 444.6751708984375 101.10568237304688 447.4681396484375 103.55230712890625 C 448.6175537109375 104.48269653320312 450.02734375 105.03352355957031 451.5030517578125 105.12872314453125 C 455.14794921875 105.46257019042969 458.728515625 104.009033203125 461.10943603515625 101.22904968261719 C 463.123046875 98.86569213867188 464.0098876953125 95.79885864257812 464.7982177734375 92.81539916992188 C 465.23828125 91.13873291015625 465.6524658203125 89.34335327148438 465.095703125 87.71177673339844 C 464.3358154296875 85.54312133789062 462.0726318359375 84.304443359375 459.91448974609375 83.51739501953125 C 456.75738525390625 82.36160278320312 453.43402099609375 81.72444152832031 450.07330322265625 81.630615234375 C 448.912109375 81.60043334960938 447.69482421875 81.64669799804688 446.6773681640625 82.20640563964844 C 445.7579345703125 82.77522277832031 445.02392578125 83.59927368164062 444.5648193359375 84.57806396484375 C 443.0565185546875 87.49290466308594 442.90283203125 90.92266845703125 444.1444091796875 93.96072387695312 L 446.07989501953125 93.09814453125" stroke-width="0.6000000238418579" fill="rgb(70, 150, 179)" opacity="1.0"/>
    <path d="M 320.6502685546875 370.7099914550781 C 316.73529052734375 371.08001708984375 312.411376953125 371.6545104980469 309.853759765625 374.6382751464844 C 307.10821533203125 377.8451232910156 307.49041748046875 382.8213806152344 309.4835510253906 386.54278564453125 C 310.25140380859375 387.9779052734375 311.2791748046875 389.34454345703125 312.722412109375 390.0967102050781 C 313.9085693359375 390.71551513671875 315.2757263183594 390.8718566894531 316.611328125 390.9440612792969 C 320.8229064941406 391.1767578125 325.3835754394531 390.56427001953125 328.500244140625 387.723388671875 C 331.63934326171875 384.8580322265625 332.6477966308594 379.88714599609375 330.84954833984375 376.0319519042969 C 329.0513000488281 372.1767883300781 324.6233825683594 369.71588134765625 320.40142822265625 370.2590637207031 L 320.6502685546875 370.7099914550781" stroke-width="0.6000000238418579" fill="rgb(140, 28, 33)" opacity="1.0"/>
    <path d="M 307.9229431152344 397.91845703125 C 303.98297119140625 399.0711975097656 299.8959045410156 400.3141174316406 296.7972412109375 403.0113525390625 C 293.69866943359375 405.70855712890625 291.86248779296875 410.33477783203125 293.597900390625 414.0574951171875 C 295.7503356933594 418.6480712890625 302.4840393066406 419.56365966796875 306.7617492675781 416.824951171875 C 311.03948974609375 414.086181640625 313.14520263671875 408.9149475097656 313.9000244140625 403.8984069824219 C 314.28924560546875 402.3689270019531 314.0910339355469 400.7491455078125 313.3443908691406 399.35870361328125 C 312.4691162109375 398.07623291015625 310.2441101074219 397.67608642578125 309.4091491699219 398.9942626953125 L 307.9229431152344 397.91845703125" stroke-width="0.6000000238418579" fill="rgb(159, 159, 159)" opacity="1.0"/>
    <path d="M 321.3557434082031 415.6553955078125 C 317.0998229980469 417.172607421875 313.27099609375 420.1810302734375 311.3560791015625 424.2708740234375 C 309.4411315917969 428.3607177734375 309.6832580566406 433.54150390625 312.4776916503906 437.11328125 C 314.4565734863281 439.63604736328125 317.5215759277344 441.171875 320.6852722167969 441.70977783203125 C 323.8489685058594 442.2476806640625 327.11065673828125 441.8614501953125 330.2192077636719 441.0621337890625 C 331.57177734375 440.71343994140625 332.96527099609375 440.2498779296875 333.9185485839844 439.23388671875 C 335.0119934082031 438.069580078125 335.3269348144531 436.396240234375 335.5204772949219 434.805908203125 C 336.06689453125 430.31591796875 335.9460144042969 425.5712890625 333.8958435058594 421.5389404296875 C 331.84564208984375 417.506591796875 327.4758605957031 414.408447265625 322.9957580566406 414.947265625 L 321.3557434082031 415.6553955078125" stroke-width="0.6000000238418579" fill="rgb(159, 159, 159)" opacity="1.0"/>
    <path d="M 266.517578125 416.6416015625 C 262.48382568359375 418.64837646484375 258.0870361328125 421.0538330078125 256.6141052246094 425.30230712890625 C 255.17587280273438 429.4320068359375 256.9701232910156 433.925048828125 258.8076477050781 437.8953857421875 C 259.5565185546875 439.50714111328125 260.3656311035156 441.181396484375 261.7869873046875 442.24664306640625 C 264.1899108886719 444.0498046875 267.5841369628906 443.599853515625 270.4203186035156 442.62255859375 C 273.0531311035156 441.71649169921875 275.54217529296875 440.43707275390625 277.811279296875 438.823486328125 C 281.4966735839844 436.20477294921875 284.7674865722656 432.0775146484375 284.125244140625 427.60394287109375 C 283.78204345703125 425.1883544921875 282.31109619140625 423.03497314453125 280.4789123535156 421.4180908203125 C 278.646728515625 419.80120849609375 276.45257568359375 418.6561279296875 274.27032470703125 417.5565185546875 C 272.0881042480469 416.4569091796875 269.9202880859375 415.4232177734375 267.5372009277344 415.3189697265625 L 266.517578125 416.6416015625" stroke-width="0.6000000238418579" fill="rgb(218, 166, 20)" opacity="1.0"/>
    <path d="M 223.477294921875 414.12054443359375 C 216.253173828125 411.7100830078125 208.44281005859375 415.6123046875 206.03231811523438 422.83642578125 C 205.82589721679688 423.45501708984375 205.66363525390625 424.0875244140625 205.5467529296875 424.72906494140625 C 205.10296630859375 427.1669921875 205.3712158203125 429.834716796875 206.79791259765625 431.8592529296875 C 208.00335693359375 433.5703125 209.89556884765625 434.6588134765625 211.81082153320312 435.49951171875 C 216.9405517578125 437.742919921875 222.577392578125 438.5718994140625 228.13580322265625 437.900390625 C 229.60476684570312 437.72039794921875 231.1043701171875 437.4188232421875 232.34417724609375 436.60491943359375 C 234.42636108398438 435.23974609375 235.408203125 432.63751220703125 235.52139282226562 430.1484375 C 235.69204711914062 426.4532470703125 234.2073974609375 422.783203125 231.80462646484375 419.96954345703125 C 229.40185546875 417.1558837890625 226.1416015625 415.15399169921875 222.65982055664062 413.90313720703125 L 223.477294921875 414.12054443359375" stroke-width="0.6000000238418579" fill="rgb(143, 165, 67)" opacity="1.0"/>
    <path d="M 287.15631103515625 361.5014343261719 C 290.0282897949219 369.7361145019531 303.140625 371.267578125 308.3271789550781 364.3262634277344 C 313.5137023925781 357.38494873046875 308.88818359375 345.7112731933594 300.4330749511719 343.5629577636719 C 291.97796630859375 341.41461181640625 282.66912841796875 348.5953369140625 281.9634094238281 357.29864501953125 L 287.15631103515625 361.5014343261719" stroke-width="0.6000000238418579" fill="rgb(233, 92, 21)" opacity="1.0"/>
    <path d="M 332.213134765625 359.40667724609375 C 332.71002197265625 363.6630554199219 333.7450256347656 368.69586181640625 337.7344970703125 370.2998962402344 C 339.34698486328125 370.8764343261719 341.0986633300781 370.9384460449219 342.74786376953125 370.4772644042969 C 346.859130859375 369.4460144042969 350.21551513671875 366.48602294921875 351.7526550292969 362.5359802246094 C 353.04803466796875 359.181884765625 352.8426208496094 355.4905700683594 352.56134033203125 351.9281005859375 C 352.4001159667969 349.9272155761719 352.1650695800781 347.80645751953125 350.93170166015625 346.2366027832031 C 349.2706298828125 344.1576232910156 346.3228454589844 343.6707763671875 343.66278076171875 343.63726806640625 C 339.7698059082031 343.5834045410156 335.893798828125 344.15997314453125 332.18505859375 345.34466552734375 C 330.9044189453125 345.7564697265625 329.5918273925781 346.27325439453125 328.6943054199219 347.274658203125 C 327.90740966796875 348.2484436035156 327.42083740234375 349.4301452636719 327.2939453125 350.6756896972656 C 326.7620849609375 354.4389343261719 327.9078063964844 358.2460632324219 330.4283142089844 361.0906982421875 L 332.213134765625 359.40667724609375" stroke-width="0.6000000238418579" fill="rgb(70, 150, 179)" opacity="1.0"/>
    <path d="M 298.237548828125 420.021728515625 C 293.6833801269531 420.7314453125 288.665283203125 421.709228515625 285.8839111328125 425.380859375 C 282.89849853515625 429.3267822265625 283.69744873046875 435.12176513671875 286.2923889160156 439.334716796875 C 287.29217529296875 440.95947265625 288.59124755859375 442.48565673828125 290.3328857421875 443.263671875 C 291.764404296875 443.90374755859375 293.37493896484375 443.989990234375 294.942626953125 443.98004150390625 C 299.88641357421875 443.95458984375 305.1788635253906 442.91552734375 308.62432861328125 439.37158203125 C 312.0943603515625 435.79736328125 312.92279052734375 429.910400390625 310.54638671875 425.52716064453125 C 308.16998291015625 421.1439208984375 302.8155822753906 418.57781982421875 297.9145202636719 419.51177978515625 L 298.237548828125 420.021728515625" stroke-width="0.6000000238418579" fill="rgb(140, 28, 33)" opacity="1.0"/>
    <path d="M 332.43707275390625 389.8363952636719 C 328.3491516113281 390.0227355957031 324.09747314453125 390.2616882324219 320.45977783203125 392.1424560546875 C 316.8221435546875 394.023193359375 313.9517517089844 398.0701599121094 314.753662109375 402.08526611328125 C 315.7546081542969 407.03924560546875 322.0599670410156 409.51556396484375 326.8493957519531 407.8729553222656 C 331.6388244628906 406.2303466796875 334.8988952636719 401.7191162109375 336.81414794921875 397.0388488769531 C 337.55218505859375 395.6494445800781 337.7425537109375 394.033935546875 337.3476867675781 392.51104736328125 C 336.802734375 391.0623779296875 334.7423095703125 390.14959716796875 333.6224670410156 391.2291259765625 L 332.43707275390625 389.8363952636719" stroke-width="0.6000000238418579" fill="rgb(159, 159, 159)" opacity="1.0"/>
    <path d="M 349.0624694824219 413.7027587890625 C 344.4847412109375 414.3736572265625 340.0371398925781 416.6275634765625 337.2947998046875 420.35089111328125 C 334.55242919921875 424.07421875 333.7575988769531 429.32525634765625 335.84814453125 433.4718017578125 C 337.3298645019531 436.401611328125 340.10003662109375 438.5579833984375 343.1692199707031 439.73199462890625 C 346.2384033203125 440.906005859375 349.5911560058594 441.17156982421875 352.87286376953125 440.99169921875 C 354.3009338378906 440.91259765625 355.7931823730469 440.7261962890625 356.9539794921875 439.89697265625 C 358.2852783203125 438.9468994140625 358.936767578125 437.32958984375 359.44976806640625 435.7713623046875 C 360.8980407714844 431.37213134765625 361.72723388671875 426.58331298828125 360.4763488769531 422.123291015625 C 359.2254333496094 417.663330078125 355.45806884765625 413.6767578125 350.8511962890625 413.3201904296875 L 349.0624694824219 413.7027587890625" stroke-width="0.6000000238418579" fill="rgb(159, 159, 159)" opacity="1.0"/>
    <path d="M 255.36453247070312 367.1720275878906 C 256.66497802734375 362.92578125 257.926513671875 358.1495666503906 255.88674926757812 354.214599609375 C 253.908447265625 350.385009765625 249.47787475585938 348.6210021972656 245.39181518554688 347.2425231933594 C 243.7310791015625 346.68499755859375 241.98483276367188 346.1282043457031 240.25888061523438 346.4223327636719 C 237.33944702148438 346.9180908203125 235.35919189453125 349.6510009765625 234.1346435546875 352.3423767089844 C 232.99703979492188 354.84002685546875 232.2239990234375 357.488037109375 231.83914184570312 360.2054443359375 C 231.212646484375 364.61749267578125 231.94635009765625 369.7561950683594 235.58163452148438 372.3309020996094 C 237.54217529296875 373.7237854003906 240.07998657226562 374.1321716308594 242.4791259765625 373.9183349609375 C 244.87823486328125 373.7044677734375 247.1854248046875 372.9117431640625 249.45196533203125 372.0966491699219 C 251.718505859375 371.2815856933594 253.92813110351562 370.4321594238281 255.61895751953125 368.7983093261719 L 255.36453247070312 367.1720275878906" stroke-width="0.6000000238418579" fill="rgb(218, 166, 20)" opacity="1.0"/>
    <path d="M 254.16854858398438 388.87786865234375 C 250.77227783203125 382.2428283691406 242.6402587890625 379.6172790527344 236.00521850585938 383.0135498046875 C 235.43707275390625 383.3043518066406 234.8902587890625 383.6351318359375 234.368896484375 384.0033264160156 C 232.38812255859375 385.4028015136719 230.74737548828125 387.4508361816406 230.35690307617188 389.8432922363281 C 230.02670288085938 391.8650817871094 230.60308837890625 393.92236328125 231.36526489257812 395.8223876953125 C 233.4124755859375 400.9054260253906 236.78338623046875 405.34759521484375 241.12774658203125 408.6874694824219 C 242.277587890625 409.568359375 243.53213500976562 410.3852844238281 244.95626831054688 410.6661682128906 C 247.34686279296875 411.13909912109375 249.81622314453125 409.9935302734375 251.60104370117188 408.331787109375 C 254.25259399414062 405.8665466308594 255.730224609375 402.2845153808594 255.9793701171875 398.6717529296875 C 256.2284851074219 395.05902099609375 255.3221435546875 391.4258728027344 253.74627685546875 388.1657409667969 L 254.16854858398438 388.87786865234375" stroke-width="0.6000000238418579" fill="rgb(143, 165, 67)" opacity="1.0"/>
    <path d="M 204.3067626953125 370.8641357421875 C 200.95770263671875 379.18695068359375 210.078369140625 389.24859619140625 218.79440307617188 387.3822326660156 C 227.51043701171875 385.5158386230469 231.82888793945312 373.3421630859375 226.7333984375 365.9549865722656 C 221.637939453125 358.56781005859375 209.56655883789062 357.82940673828125 203.12890625 364.0935974121094 L 204.3067626953125 370.8641357421875" stroke-width="0.6000000238418579" fill="rgb(233, 92, 21)" opacity="1.0"/>
    <path d="M 263.29791259765625 366.9318542480469 C 263.8188171386719 371.27728271484375 264.8917236328125 376.4139709472656 268.9712219238281 378.03955078125 C 270.6198425292969 378.623291015625 272.40899658203125 378.68109130859375 274.09185791015625 378.20489501953125 C 278.2873840332031 377.1387023925781 281.7059020996094 374.1051330566406 283.2633056640625 370.06610107421875 C 284.5756530761719 366.63653564453125 284.354248046875 362.86724853515625 284.0557556152344 359.2298583984375 C 283.884765625 357.1868591308594 283.63800048828125 355.0216979980469 282.3734436035156 353.4223327636719 C 280.6704406738281 351.3043212890625 277.6583557128906 350.81640625 274.9415588378906 350.79058837890625 C 270.9655456542969 350.7478332519531 267.0088195800781 351.34893798828125 263.224853515625 352.570556640625 C 261.9182434082031 352.9951477050781 260.579345703125 353.527099609375 259.6658630371094 354.5526428222656 C 258.86529541015625 355.5496520996094 258.3721008300781 356.758056640625 258.2464599609375 358.030517578125 C 257.7151184082031 361.87554931640625 258.89727783203125 365.7601013183594 261.48040771484375 368.6573486328125 L 263.29791259765625 366.9318542480469" stroke-width="0.6000000238418579" fill="rgb(70, 150, 179)" opacity="1.0"/>
    <path d="M 327.751220703125 363.12542724609375 C 329.40692138671875 358.9579772949219 331.0671691894531 354.2691650390625 329.3644714355469 350.123779296875 C 327.53271484375 345.6718444824219 322.28125 343.4778137207031 317.4681701660156 343.5707092285156 C 315.6124267578125 343.60577392578125 313.69140625 343.9402770996094 312.1787109375 345.0154724121094 C 310.93487548828125 345.8988952636719 310.06671142578125 347.2060546875 309.30035400390625 348.52484130859375 C 306.87872314453125 352.68072509765625 305.1341857910156 357.6296691894531 306.4017333984375 362.2685546875 C 307.6824645996094 366.9429626464844 312.2069091796875 370.5463562011719 317.0547180175781 370.7207336425781 C 321.9025573730469 370.8951110839844 326.6990661621094 367.6757507324219 328.3382263183594 363.1067199707031 L 327.751220703125 363.12542724609375" stroke-width="0.6000000238418579" fill="rgb(140, 28, 33)" opacity="1.0"/>
    <path d="M 351.71331787109375 396.1905822753906 C 347.6179504394531 396.4293518066406 343.359130859375 396.7229309082031 339.73663330078125 398.65447998046875 C 336.11419677734375 400.58599853515625 333.28839111328125 404.6791687011719 334.1432800292969 408.6936950683594 C 335.2096252441406 413.6468505859375 341.5616149902344 416.04888916015625 346.34161376953125 414.3414306640625 C 351.12164306640625 412.63397216796875 354.3321533203125 408.0704650878906 356.1924743652344 403.3546447753906 C 356.91461181640625 401.9525146484375 357.08489990234375 400.3306884765625 356.6697082519531 398.8092041015625 C 356.10504150390625 397.3639831542969 354.0280456542969 396.4752197265625 352.9192810058594 397.57159423828125 L 351.71331787109375 396.1905822753906" stroke-width="0.6000000238418579" fill="rgb(159, 159, 159)" opacity="1.0"/>
    <path d="M 184.99923706054688 410.976318359375 C 180.3580322265625 411.43438720703125 175.77264404296875 413.49261474609375 172.83450317382812 417.111328125 C 169.89633178710938 420.7301025390625 168.8465576171875 425.9796142578125 170.75454711914062 430.254150390625 C 172.10733032226562 433.2745361328125 174.794189453125 435.577392578125 177.82876586914062 436.9052734375 C 180.86337280273438 438.23321533203125 184.22665405273438 438.659912109375 187.53955078125 438.6346435546875 C 188.98126220703125 438.62286376953125 190.49264526367188 438.506103515625 191.70086669921875 437.726318359375 C 193.08648681640625 436.8328857421875 193.81930541992188 435.2353515625 194.40988159179688 433.6907958984375 C 196.07711791992188 429.3299560546875 197.1395263671875 424.5474853515625 196.09188842773438 419.99725341796875 C 195.044189453125 415.447021484375 191.44021606445312 411.25396728515625 186.8184814453125 410.6761474609375 L 184.99923706054688 410.976318359375" stroke-width="0.6000000238418579" fill="rgb(159, 159, 159)" opacity="1.0"/>
    <path d="M 358.2974548339844 370.7583923339844 C 354.09130859375 371.8477783203125 349.46319580078125 373.24090576171875 347.2264709472656 376.9559326171875 C 345.046142578125 380.5657958984375 345.8433837890625 385.1629333496094 346.78570556640625 389.27545166015625 C 347.17095947265625 390.9455261230469 347.6006164550781 392.6865539550781 348.7294006347656 393.9750671386719 C 350.63720703125 396.1554260253906 353.9295654296875 396.4075622558594 356.8004455566406 396.05084228515625 C 359.46527099609375 395.7207946777344 362.0688781738281 395.0097961425781 364.5315856933594 393.93963623046875 C 368.5309753417969 392.2034606933594 372.4399719238281 388.961181640625 372.7257995605469 384.6121520996094 C 372.883544921875 382.26446533203125 371.9248962402344 379.9394226074219 370.51849365234375 378.0485534667969 C 369.112060546875 376.1576843261719 367.27001953125 374.6398010253906 365.43017578125 373.167236328125 C 363.5903625488281 371.6946716308594 361.7509765625 370.28717041015625 359.5231628417969 369.7137451171875 L 358.2974548339844 370.7583923339844" stroke-width="0.6000000238418579" fill="rgb(218, 166, 20)" opacity="1.0"/>
    <path d="M 375.48162841796875 381.55865478515625 C 371.5533447265625 387.81243896484375 373.4385070800781 396.0666198730469 379.6922912597656 399.99493408203125 C 380.227783203125 400.331298828125 380.7864990234375 400.6292724609375 381.3641662597656 400.8865966796875 C 383.5594177246094 401.8639221191406 386.1345520019531 402.2231140136719 388.3694152832031 401.3432922363281 C 390.25811767578125 400.5999450683594 391.71771240234375 399.0667419433594 392.9491882324219 397.45501708984375 C 396.2396545410156 393.1363220214844 398.3137512207031 388.01531982421875 398.9560241699219 382.6240234375 C 399.1233825683594 381.19866943359375 399.1832580566406 379.7165832519531 398.70074462890625 378.3616943359375 C 397.8920593261719 376.0866394042969 395.6654357910156 374.5646667480469 393.3461608886719 373.88702392578125 C 389.90362548828125 372.8786315917969 386.10504150390625 373.43560791015625 382.9028015136719 375.05413818359375 C 379.7005920410156 376.67266845703125 377.0664978027344 379.28533935546875 375.0892639160156 382.2790222167969 L 375.48162841796875 381.55865478515625" stroke-width="0.6000000238418579" fill="rgb(143, 165, 67)" opacity="1.0"/>
    <path d="M 367.8207092285156 359.8427429199219 C 372.198974609375 367.763671875 385.87957763671875 367.0364685058594 389.970703125 359.02886962890625 C 394.0617980957031 351.021240234375 387.2882385253906 339.8893127441406 378.2636413574219 339.1708068847656 C 369.239013671875 338.45233154296875 360.97308349609375 347.42596435546875 361.7736511230469 356.45208740234375 L 367.8207092285156 359.8427429199219" stroke-width="0.6000000238418579" fill="rgb(233, 92, 21)" opacity="1.0"/>
    <path d="M 396.5865478515625 362.38470458984375 C 397.2388916015625 366.67474365234375 398.46307373046875 371.7316589355469 402.55682373046875 373.21484375 C 404.20892333984375 373.74169921875 405.98382568359375 373.7428894042969 407.63665771484375 373.21826171875 C 411.76104736328125 372.0302429199219 415.0538330078125 368.91680908203125 416.470703125 364.8653259277344 C 417.663818359375 361.4254455566406 417.3262939453125 357.6969909667969 416.91650390625 354.1016540527344 C 416.68310546875 352.0823669433594 416.3707275390625 349.94439697265625 415.0673828125 348.3990173339844 C 413.3133544921875 346.3533935546875 410.3130798339844 345.9642028808594 407.619873046875 346.02374267578125 C 403.6782531738281 346.10595703125 399.7759094238281 346.8255920410156 396.0642395019531 348.1547546386719 C 394.7826843261719 348.6164855957031 393.47247314453125 349.18560791015625 392.5993347167969 350.23052978515625 C 391.8371887207031 351.24365234375 391.38629150390625 352.4566650390625 391.3016357421875 353.72161865234375 C 390.8955383300781 357.5487365722656 392.1887512207031 361.3613586425781 394.8394470214844 364.1516418457031 L 396.5865478515625 362.38470458984375" stroke-width="0.6000000238418579" fill="rgb(70, 150, 179)" opacity="1.0"/>
    <path d="M 388.5530700683594 415.7999267578125 C 386.8651123046875 420.22149658203125 385.1798095703125 425.193359375 387.0357666015625 429.5438232421875 C 389.03228759765625 434.2159423828125 394.6054992675781 436.45654296875 399.68353271484375 436.2899169921875 C 401.6414489746094 436.2265625 403.66400146484375 435.84613037109375 405.24505615234375 434.68988037109375 C 406.54510498046875 433.7398681640625 407.44268798828125 432.34808349609375 408.2326354980469 430.9454345703125 C 410.72906494140625 426.525146484375 412.4996337890625 421.27752685546875 411.0958557128906 416.4000244140625 C 409.67767333984375 411.48529052734375 404.85162353515625 407.74700927734375 399.7331237792969 407.6320495605469 C 394.6146240234375 407.5170593261719 389.5986022949219 410.98284912109375 387.933837890625 415.8280029296875 L 388.5530700683594 415.7999267578125" stroke-width="0.6000000238418579" fill="rgb(140, 28, 33)" opacity="1.0"/>
    <path d="M 411.1224670410156 389.07830810546875 C 410.7554626464844 393.1427001953125 410.4183654785156 397.3759765625 411.78631591796875 401.22393798828125 C 413.154296875 405.0718078613281 416.76611328125 408.4536437988281 420.8414306640625 408.20257568359375 C 425.8714599609375 407.8814392089844 429.1683349609375 401.9849853515625 428.19097900390625 397.0311279296875 C 427.213623046875 392.0772399902344 423.19561767578125 388.247802734375 418.82928466796875 385.724365234375 C 417.555908203125 384.80780029296875 415.98529052734375 384.4018859863281 414.42730712890625 384.5867614746094 C 412.92242431640625 384.9299011230469 411.74273681640625 386.8427429199219 412.658447265625 388.09478759765625 L 411.1224670410156 389.07830810546875" stroke-width="0.6000000238418579" fill="rgb(159, 159, 159)" opacity="1.0"/>
    <path d="M 436.7379150390625 369.8465270996094 C 437.3349609375 374.35723876953125 439.49041748046875 378.76165771484375 443.1141357421875 381.5093688964844 C 446.7379150390625 384.257080078125 451.890625 385.1106262207031 455.996826171875 383.1117248535156 C 458.89813232421875 381.6947937011719 461.0565185546875 379.0003356933594 462.2530517578125 375.9983215332031 C 463.4495849609375 372.9963073730469 463.75665283203125 369.7030334472656 463.624755859375 366.4735107421875 C 463.5665283203125 365.068115234375 463.4036865234375 363.5981750488281 462.60418701171875 362.4453125 C 461.6881103515625 361.1231689453125 460.106689453125 360.4603576660156 458.5814208984375 359.9345397949219 C 454.2752685546875 358.45013427734375 449.57757568359375 357.569091796875 445.1746826171875 358.7380676269531 C 440.7718505859375 359.90704345703125 436.79998779296875 363.55706787109375 436.38629150390625 368.08233642578125 L 436.7379150390625 369.8465270996094" stroke-width="0.6000000238418579" fill="rgb(159, 159, 159)" opacity="1.0"/>
    <path d="M 424.3394775390625 410.1122741699219 C 420.2347412109375 412.0233154296875 415.7548828125 414.3253173828125 414.16448974609375 418.55517578125 C 412.61199951171875 422.66656494140625 414.2974853515625 427.22723388671875 416.0401611328125 431.2637939453125 C 416.75048828125 432.902587890625 417.519775390625 434.605712890625 418.919921875 435.712890625 C 421.28704833984375 437.5870361328125 424.708740234375 437.223388671875 427.58355712890625 436.31549072265625 C 430.252197265625 435.4737548828125 432.7861328125 434.2532958984375 435.1077880859375 432.6912841796875 C 438.87847900390625 430.156494140625 442.27197265625 426.09521484375 441.7432861328125 421.584228515625 C 441.46142578125 419.1484375 440.039794921875 416.94677734375 438.2412109375 415.274658203125 C 436.442626953125 413.6025390625 434.26812744140625 412.39495849609375 432.1043701171875 411.2334289550781 C 429.940673828125 410.0718994140625 427.78973388671875 408.9769287109375 425.3983154296875 408.81011962890625 L 424.3394775390625 410.1122741699219" stroke-width="0.6000000238418579" fill="rgb(218, 166, 20)" opacity="1.0"/>
    <path d="M 140.8616180419922 224.9283447265625 C 136.70428466796875 231.28045654296875 138.48348999023438 239.800048828125 144.83558654785156 243.95736694335938 C 145.3795166015625 244.3133544921875 145.94801330566406 244.63031005859375 146.53680419921875 244.9058837890625 C 148.77426147460938 245.95245361328125 151.41403198242188 246.37100219726562 153.7278289794922 245.50961303710938 C 155.6832275390625 244.7818603515625 157.2127685546875 243.23406982421875 158.50936889648438 241.6011962890625 C 161.97406005859375 237.22567749023438 164.2039794921875 232.00225830078125 164.96746826171875 226.47357177734375 C 165.16683959960938 225.0118408203125 165.25677490234375 223.48971557617188 164.786865234375 222.08795166015625 C 163.9993896484375 219.73422241210938 161.7401123046875 218.12725830078125 159.36941528320312 217.3863525390625 C 155.85061645507812 216.28387451171875 151.93585205078125 216.78347778320312 148.61366271972656 218.38555908203125 C 145.29147338867188 219.98760986328125 142.5341033935547 222.622314453125 140.44454956054688 225.66119384765625 L 140.8616180419922 224.9283447265625" stroke-width="0.6000000238418579" fill="rgb(143, 165, 67)" opacity="1.0"/>
    <path d="M 170.2628173828125 261.93731689453125 C 173.59381103515625 270.3542175292969 187.25762939453125 271.3810729980469 192.3392333984375 263.96044921875 C 197.42083740234375 256.539794921875 192.12408447265625 244.63153076171875 183.26361083984375 242.76556396484375 C 174.40316772460938 240.89959716796875 165.0567626953125 248.74502563476562 164.697509765625 257.80108642578125 L 170.2628173828125 261.93731689453125" stroke-width="0.6000000238418579" fill="rgb(233, 92, 21)" opacity="1.0"/>
    <path d="M 149.99581909179688 317.60467529296875 C 146.94775390625 320.7789306640625 143.63597106933594 324.8867492675781 144.97113037109375 329.0957946777344 C 145.56765747070312 330.7501525878906 146.66282653808594 332.17864990234375 148.10562133789062 333.1841735839844 C 151.6084747314453 335.7681884765625 156.146484375 336.49407958984375 160.2806396484375 335.1316833496094 C 163.7845458984375 333.9670104980469 166.5753173828125 331.3928527832031 169.21438598632812 328.8427734375 C 170.69451904296875 327.40789794921875 172.221435546875 325.83624267578125 172.65966796875 323.83343505859375 C 173.22186279296875 321.1590881347656 171.68197631835938 318.50531005859375 169.97079467773438 316.3756408691406 C 167.47036743164062 313.2557067871094 164.4814453125 310.56109619140625 161.11996459960938 308.3962707519531 C 159.95706176757812 307.6505126953125 158.6900634765625 306.94805908203125 157.310302734375 306.89105224609375 C 156.02462768554688 306.9036560058594 154.77041625976562 307.29010009765625 153.70057678222656 308.0032043457031 C 150.37120056152344 310.0401306152344 148.1029815673828 313.4350280761719 147.4954833984375 317.29052734375 L 149.99581909179688 317.60467529296875" stroke-width="0.6000000238418579" fill="rgb(70, 150, 179)" opacity="1.0"/>
    <path d="M 124.86752319335938 306.2960510253906 C 123.5675048828125 301.7098693847656 121.93399047851562 296.6810607910156 117.81573486328125 294.2864990234375 C 113.3902587890625 291.71685791015625 107.54153442382812 293.26422119140625 103.542236328125 296.4568176269531 C 101.999755859375 297.68707275390625 100.59597778320312 299.2121887207031 100.01583862304688 301.0977783203125 C 99.53836059570312 302.64764404296875 99.65188598632812 304.31182861328125 99.85885620117188 305.9199523925781 C 100.50537109375 310.9919738769531 102.23612976074219 316.29473876953125 106.30670166015625 319.3870849609375 C 110.41136169433594 322.5008544921875 116.55880737304688 322.612548828125 120.76034545898438 319.6229553222656 C 124.96188354492188 316.63336181640625 126.92431640625 310.8146057128906 125.35050964355469 305.90045166015625 L 124.86752319335938 306.2960510253906" stroke-width="0.6000000238418579" fill="rgb(140, 28, 33)" opacity="1.0"/>
    <path d="M 140.0402374267578 278.4278259277344 C 136.4048309326172 280.2607727050781 132.6422119140625 282.2081298828125 130.10519409179688 285.3961486816406 C 127.5682373046875 288.5841064453125 126.60946655273438 293.4264221191406 128.97161865234375 296.7451477050781 C 131.8966064453125 300.8352355957031 138.62879943847656 300.5170593261719 142.30833435058594 297.0765075683594 C 145.98788452148438 293.6359558105469 147.11148071289062 288.2135925292969 146.94537353515625 283.18511962890625 C 147.04991149902344 281.62335205078125 146.56521606445312 280.0792236328125 145.5869140625 278.8573913574219 C 144.50259399414062 277.7640075683594 142.26051330566406 277.77392578125 141.68325805664062 279.20977783203125 L 140.0402374267578 278.4278259277344" stroke-width="0.6000000238418579" fill="rgb(159, 159, 159)" opacity="1.0"/>
    <path d="M 163.2205810546875 289.1339416503906 C 161.99783325195312 293.600341796875 162.27871704101562 298.5829772949219 164.59136962890625 302.5921325683594 C 166.904052734375 306.60125732421875 171.3992919921875 309.43817138671875 176.04034423828125 309.186279296875 C 179.3214111328125 309.0040588378906 182.41058349609375 307.33001708984375 184.71917724609375 304.9873962402344 C 187.02780151367188 302.644775390625 188.61734008789062 299.677490234375 189.76995849609375 296.5964660644531 C 190.27078247070312 295.25537109375 190.69903564453125 293.8124084472656 190.40478515625 292.41522216796875 C 190.0682373046875 290.8132019042969 188.84698486328125 289.5665588378906 187.62429809570312 288.4706115722656 C 184.17233276367188 285.3765869140625 180.11468505859375 282.6937255859375 175.52337646484375 282.04998779296875 C 170.93206787109375 281.40625 165.76446533203125 283.2597961425781 163.58807373046875 287.34039306640625 L 163.2205810546875 289.1339416503906" stroke-width="0.6000000238418579" fill="rgb(159, 159, 159)" opacity="1.0"/>
    <path d="M 123.06182861328125 343.6878662109375 C 122.60501098632812 339.16473388671875 121.90130615234375 334.1568603515625 118.4156494140625 331.2522277832031 C 115.02981567382812 328.42266845703125 110.14883422851562 328.5151062011719 105.74594116210938 328.8347473144531 C 103.95750427246094 328.96722412109375 102.08865356445312 329.1343078613281 100.57644653320312 330.096435546875 C 98.01786804199219 331.72216796875 97.23291015625 335.0867004394531 97.14463806152344 338.11236572265625 C 97.06163024902344 340.9206848144531 97.38230895996094 343.7263488769531 98.09683227539062 346.4435119628906 C 99.25543212890625 350.8558349609375 101.98590087890625 355.41448974609375 106.43783569335938 356.402587890625 C 108.84049987792969 356.9395446777344 111.39753723144531 356.31842041015625 113.576904296875 355.16510009765625 C 115.75625610351562 354.0117492675781 117.61923217773438 352.34857177734375 119.43499755859375 350.680419921875 C 121.25076293945312 349.0122985839844 122.99920654296875 347.3342590332031 123.94696044921875 345.12176513671875 L 123.06182861328125 343.6878662109375" stroke-width="0.6000000238418579" fill="rgb(218, 166, 20)" opacity="1.0"/>
    <path d="M 162.7269287109375 348.7102355957031 C 156.75704956054688 353.2928161621094 155.63243103027344 361.8472900390625 160.21502685546875 367.8171691894531 C 160.607421875 368.3283996582031 161.03558349609375 368.81109619140625 161.496337890625 369.26171875 C 163.24728393554688 370.9736022949219 165.580322265625 372.22955322265625 168.02740478515625 372.1811218261719 C 170.09539794921875 372.140380859375 172.03338623046875 371.19287109375 173.78128051757812 370.0895080566406 C 178.45587158203125 367.129638671875 182.252685546875 362.97210693359375 184.77728271484375 358.0487976074219 C 185.44244384765625 356.74627685546875 186.02496337890625 355.3514709472656 186.04421997070312 353.8859558105469 C 186.0780029296875 351.4256896972656 184.49008178710938 349.1822814941406 182.514404296875 347.7127990722656 C 179.58273315429688 345.52911376953125 175.75604248046875 344.71484375 172.12286376953125 345.12615966796875 C 168.48968505859375 345.5375061035156 165.04693603515625 347.10003662109375 162.09671020507812 349.2594299316406 L 162.7269287109375 348.7102355957031" stroke-width="0.6000000238418579" fill="rgb(143, 165, 67)" opacity="1.0"/>
    <path d="M 134.70046997070312 381.26025390625 C 130.7861785888672 373.3216857910156 117.38818359375 373.4053649902344 113.02468872070312 381.0406494140625 C 108.6612548828125 388.6759338378906 114.76841735839844 399.861083984375 123.55171203613281 400.9764099121094 C 132.3350067138672 402.09173583984375 140.8211669921875 393.7040100097656 140.45254516601562 384.8496398925781 L 134.70046997070312 381.26025390625" stroke-width="0.6000000238418579" fill="rgb(233, 92, 21)" opacity="1.0"/>
    <path d="M 186.04534912109375 363.1359558105469 C 184.776123046875 367.2761535644531 183.689453125 372.3533630371094 186.72930908203125 375.4580993652344 C 187.98712158203125 376.6466064453125 189.582763671875 377.4154968261719 191.29608154296875 377.65869140625 C 195.51904296875 378.37451171875 199.8270263671875 376.9990539550781 202.8538818359375 373.968505859375 C 205.4149169921875 371.3912048339844 206.72430419921875 367.8922119140625 207.9111328125 364.481689453125 C 208.57470703125 362.56475830078125 209.21868896484375 360.5069885253906 208.71514892578125 358.5534362792969 C 208.02264404296875 355.95501708984375 205.49288940429688 354.3071594238281 203.045166015625 353.19561767578125 C 199.46493530273438 351.5644226074219 195.644287109375 350.5234680175781 191.73141479492188 350.1131286621094 C 190.37918090820312 349.9739685058594 188.9547119140625 349.9189758300781 187.71746826171875 350.4809875488281 C 186.59381103515625 351.0623779296875 185.66357421875 351.9581604003906 185.04022216796875 353.0591125488281 C 183.01947021484375 356.32513427734375 182.53314208984375 360.3132019042969 183.70980834960938 363.9691467285156 L 186.04534912109375 363.1359558105469" stroke-width="0.6000000238418579" fill="rgb(70, 150, 179)" opacity="1.0"/>
  </g>
</svg>
