<?xml version="1.0" ?>
<svg xmlns="http://www.w3.org/2000/svg" version="1.1" width="600" height="600">
  <defs/>
  <g>
    <path d="M 353.34130859375 348.2669372558594 C 356.73675537109375 352.2074890136719 364.34722900390625 350.1879577636719 365.7060546875 345.2016296386719 C 367.06488037109375 340.21533203125 361.9439697265625 334.7503662109375 356.7825622558594 335.4085388183594 C 351.62115478515625 336.06671142578125 348.0274658203125 342.0879211425781 349.5403747558594 347.07135009765625 L 353.34130859375 348.2669372558594" stroke-width="0.6000000238418579" fill="rgb(233, 92, 21)" opacity="1.0"/>
    <path d="M 107.25375366210938 201.94439697265625 C 109.18075561523438 200.14898681640625 111.29641723632812 197.804443359375 110.63858032226562 195.244873046875 C 110.337158203125 194.2364501953125 109.73025512695312 193.34637451171875 108.90155029296875 192.697509765625 C 106.89431762695312 191.036865234375 104.20669555664062 190.4521484375 101.69097900390625 191.12872314453125 C 99.55841064453125 191.7081298828125 97.80511474609375 193.15353393554688 96.14328002929688 194.58956909179688 C 95.2110595703125 195.39776611328125 94.24635314941406 196.2861328125 93.91786193847656 197.46835327148438 C 93.492919921875 199.0477294921875 94.3248291015625 200.68478393554688 95.27651977539062 202.01434326171875 C 96.66690063476562 203.96185302734375 98.36334228515625 205.6715087890625 100.30001831054688 207.07696533203125 C 100.97012329101562 207.561279296875 101.703857421875 208.023193359375 102.52647399902344 208.1031494140625 C 103.29515075683594 208.13836669921875 104.0574951171875 207.94918823242188 104.72050476074219 207.55865478515625 C 106.77777099609375 206.45220947265625 108.24612426757812 204.49899291992188 108.73739624023438 202.21530151367188 L 107.25375366210938 201.94439697265625" stroke-width="0.6000000238418579" fill="rgb(70, 150, 179)" opacity="1.0"/>
    <path d="M 456.58544921875 424.7523193359375 C 457.6964111328125 427.61505126953125 459.0479736328125 430.7415771484375 461.8338623046875 432.02838134765625 C 464.827392578125 433.408935546875 468.48486328125 432.0631103515625 470.85687255859375 429.77392578125 C 471.77178955078125 428.89166259765625 472.5799560546875 427.8287353515625 472.8380126953125 426.5843505859375 C 473.05059814453125 425.5615234375 472.877197265625 424.50103759765625 472.64727783203125 423.482177734375 C 471.9261474609375 420.26837158203125 470.49566650390625 416.97210693359375 467.69818115234375 415.23486328125 C 464.87750244140625 413.48590087890625 460.92816162109375 413.7857666015625 458.4141845703125 415.95703125 C 455.9002685546875 418.1282958984375 454.9932861328125 421.9786376953125 456.29962158203125 425.03521728515625 L 456.58544921875 424.7523193359375" stroke-width="0.6000000238418579" fill="rgb(140, 28, 33)" opacity="1.0"/>
    <path d="M 87.46670532226562 201.39080810546875 C 89.85833740234375 200.6414794921875 92.33871459960938 199.83538818359375 94.19886779785156 198.15301513671875 C 96.05899047851562 196.47067260742188 97.12615966796875 193.62548828125 96.023681640625 191.37319946289062 C 94.65655517578125 188.59603881835938 90.53561401367188 188.11526489257812 87.95620727539062 189.83660888671875 C 85.37680053710938 191.5579833984375 84.15142822265625 194.739013671875 83.74887084960938 197.8099365234375 C 83.52900695800781 198.748046875 83.66879272460938 199.7344970703125 84.14068603515625 200.57455444335938 C 84.6898193359375 201.34722900390625 86.05264282226562 201.565673828125 86.54702758789062 200.75137329101562 L 87.46670532226562 201.39080810546875" stroke-width="0.6000000238418579" fill="rgb(159, 159, 159)" opacity="1.0"/>
    <path d="M 379.1102600097656 295.30792236328125 C 381.56390380859375 293.9691467285156 383.6123046875 291.7605285644531 384.3866882324219 289.07635498046875 C 385.16107177734375 286.3921813964844 384.5119323730469 283.25006103515625 382.4589538574219 281.3380126953125 C 381.0057678222656 279.9880065917969 378.98443603515625 279.3460998535156 376.99932861328125 279.3235168457031 C 375.0142517089844 279.3009033203125 373.0586853027344 279.85247802734375 371.2366638183594 280.6416015625 C 370.4439697265625 280.9854736328125 369.6373596191406 281.403564453125 369.1531677246094 282.1165466308594 C 368.59771728515625 282.9337158203125 368.5671691894531 283.98663330078125 368.6027526855469 284.9770812988281 C 368.7032775878906 287.7733459472656 369.23614501953125 290.66070556640625 370.8789367675781 292.9261779785156 C 372.521728515625 295.191650390625 375.4914245605469 296.6618957519531 378.17669677734375 295.89923095703125 L 379.1102600097656 295.30792236328125" stroke-width="0.6000000238418579" fill="rgb(159, 159, 159)" opacity="1.0"/>
    <path d="M 98.31805419921875 434.06561279296875 C 98.99832153320312 431.4873046875 99.64279174804688 428.5919189453125 98.3262939453125 426.279052734375 C 97.04917907714844 424.02789306640625 94.34933471679688 423.0738525390625 91.86531066894531 422.343017578125 C 90.85577392578125 422.04754638671875 89.794921875 421.754638671875 88.76629638671875 421.9716796875 C 87.02635192871094 422.337890625 85.902587890625 424.02423095703125 85.23121643066406 425.6678466796875 C 84.60748291015625 427.1932373046875 84.20602416992188 428.8001708984375 84.03909301757812 430.439697265625 C 83.76708984375 433.1015625 84.32827758789062 436.16748046875 86.57003784179688 437.626708984375 C 87.77912902832031 438.416259765625 89.3114013671875 438.60150146484375 90.74581909179688 438.41668701171875 C 92.18023681640625 438.23193359375 93.54585266113281 437.701904296875 94.88655090332031 437.1595458984375 C 96.22724914550781 436.6171875 97.53300476074219 436.055419921875 98.50901794433594 435.035400390625 L 98.31805419921875 434.06561279296875" stroke-width="0.6000000238418579" fill="rgb(218, 166, 20)" opacity="1.0"/>
    <path d="M 100.669189453125 139.6038360595703 C 105.57051086425781 140.10540771484375 109.95040893554688 136.53871154785156 110.45199584960938 131.63739013671875 C 110.49494934082031 131.2176971435547 110.508056640625 130.79547119140625 110.49127197265625 130.37391662597656 C 110.4271240234375 128.7720947265625 109.88101196289062 127.12571716308594 108.69435119628906 126.04899597167969 C 107.69163513183594 125.13899230957031 106.34327697753906 124.71905517578125 105.015380859375 124.458740234375 C 101.45993041992188 123.766845703125 97.78407287597656 124.03956604003906 94.36965942382812 125.24856567382812 C 93.4676513671875 125.56964111328125 92.56350708007812 125.9718017578125 91.89570617675781 126.6607666015625 C 90.77392578125 127.81674194335938 90.52157592773438 129.59829711914062 90.8016357421875 131.1857147216797 C 91.21575927734375 133.54275512695312 92.67140197753906 135.65016174316406 94.58573913574219 137.08718872070312 C 96.50007629394531 138.5242156982422 98.84115600585938 139.32766723632812 101.21600341796875 139.62564086914062 L 100.669189453125 139.6038360595703" stroke-width="0.6000000238418579" fill="rgb(143, 165, 67)" opacity="1.0"/>
    <path d="M 453.6220703125 344.4991149902344 C 458.07275390625 348.1365661621094 465.96783447265625 344.479736328125 466.49072265625 338.7927551269531 C 467.0135498046875 333.10577392578125 460.39288330078125 328.14013671875 454.9019775390625 329.8459167480469 C 449.4111328125 331.55169677734375 446.654541015625 338.7933654785156 449.2564697265625 343.9266662597656 L 453.6220703125 344.4991149902344" stroke-width="0.6000000238418579" fill="rgb(233, 92, 21)" opacity="1.0"/>
    <path d="M 101.18325805664062 218.45501708984375 C 102.73597717285156 216.29360961914062 104.3665771484375 213.55068969726562 103.20661926269531 211.14535522460938 C 102.70774841308594 210.20611572265625 101.92971801757812 209.44479370117188 100.97984313964844 208.96646118164062 C 98.66145324707031 207.7197265625 95.88258361816406 207.67401123046875 93.52444458007812 208.84384155273438 C 91.52664184570312 209.84130859375 90.0765380859375 211.6214599609375 88.71517944335938 213.37420654296875 C 87.95205688476562 214.3599853515625 87.17263793945312 215.43170166015625 87.08192443847656 216.668212890625 C 86.97451782226562 218.3173828125 88.12374877929688 219.77410888671875 89.33062744140625 220.90240478515625 C 91.0948486328125 222.55587768554688 93.11505126953125 223.91290283203125 95.31289672851562 224.92080688476562 C 96.07293701171875 225.26760864257812 96.89161682128906 225.57955932617188 97.72250366210938 225.4954833984375 C 98.4910888671875 225.37774658203125 99.20880126953125 225.0389404296875 99.78814697265625 224.52035522460938 C 101.60671997070312 223.01568603515625 102.67369079589844 220.78897094726562 102.70700073242188 218.4288330078125 L 101.18325805664062 218.45501708984375" stroke-width="0.6000000238418579" fill="rgb(70, 150, 179)" opacity="1.0"/>
    <path d="M 101.85546875 82.5269775390625 C 101.97744750976562 85.585205078125 102.2410888671875 88.96989440917969 104.4517822265625 91.08377075195312 C 106.82791137695312 93.3531494140625 110.71145629882812 93.26657104492188 113.68788146972656 91.87496948242188 C 114.835693359375 91.33891296386719 115.94125366210938 90.59796142578125 116.58686828613281 89.50814819335938 C 117.11795043945312 88.61247253417969 117.29727172851562 87.55657958984375 117.40985107421875 86.52163696289062 C 117.76882934570312 83.25839233398438 117.48568725585938 79.68809509277344 115.40968322753906 77.14579772949219 C 113.31561279296875 74.58499145507812 109.49504089355469 73.59103393554688 106.42288208007812 74.82553100585938 C 103.3507080078125 76.06002807617188 101.25091552734375 79.39715576171875 101.4945068359375 82.7012939453125 L 101.85546875 82.5269775390625" stroke-width="0.6000000238418579" fill="rgb(140, 28, 33)" opacity="1.0"/>
    <path d="M 91.1456298828125 417.754150390625 C 93.66177368164062 417.20751953125 96.27394104003906 416.611083984375 98.3321533203125 415.06085205078125 C 100.39031982421875 413.5106201171875 101.744140625 410.6976318359375 100.82337951660156 408.29156494140625 C 99.68014526367188 405.3240966796875 95.50778198242188 404.45281982421875 92.71002197265625 405.97674560546875 C 89.91229248046875 407.5006408691406 88.36566162109375 410.6427307128906 87.67108154296875 413.7479248046875 C 87.35977172851562 414.68756103515625 87.41201782226562 415.70977783203125 87.81753540039062 416.61279296875 C 88.30828857421875 417.4539794921875 89.68264770507812 417.80291748046875 90.26345825195312 417.01519775390625 L 91.1456298828125 417.754150390625" stroke-width="0.6000000238418579" fill="rgb(159, 159, 159)" opacity="1.0"/>
    <path d="M 469.3831787109375 62.320526123046875 C 470.5263671875 59.8870849609375 470.8607177734375 57.008941650390625 469.9361572265625 54.48582458496094 C 469.0115966796875 51.96270751953125 466.72198486328125 49.89329528808594 464.0421142578125 49.5762939453125 C 462.14715576171875 49.35455322265625 460.2137451171875 50.0052490234375 458.660400390625 51.115936279296875 C 457.1070556640625 52.22662353515625 455.9029541015625 53.766082763671875 454.9375 55.41401672363281 C 454.517822265625 56.13140869140625 454.1295166015625 56.914276123046875 454.15899658203125 57.74275207519531 C 454.1923828125 58.692596435546875 454.76708984375 59.52703857421875 455.357666015625 60.275421142578125 C 457.02490234375 62.388275146484375 459.07940673828125 64.32608032226562 461.641845703125 65.15048217773438 C 464.2042236328125 65.974853515625 467.34442138671875 65.427978515625 468.99481201171875 63.30998229980469 L 469.3831787109375 62.320526123046875" stroke-width="0.6000000238418579" fill="rgb(159, 159, 159)" opacity="1.0"/>
    <path d="M 94.13778686523438 107.50790405273438 C 96.84033203125 108.750732421875 99.89817810058594 110.01510620117188 102.69265747070312 109.01278686523438 C 105.41168212890625 108.04183959960938 106.97872924804688 105.25836181640625 108.259033203125 102.66912841796875 C 108.777587890625 101.61651611328125 109.30331420898438 100.507080078125 109.2623291015625 99.33503723144531 C 109.19418334960938 97.35272216796875 107.5570068359375 95.79388427734375 105.87983703613281 94.74038696289062 C 104.32351684570312 93.761962890625 102.634765625 93.01211547851562 100.86528015136719 92.51373291015625 C 97.992431640625 91.70346069335938 94.51559448242188 91.73117065429688 92.48147583007812 93.91424560546875 C 91.38160705566406 95.09121704101562 90.8836669921875 96.73939514160156 90.81117248535156 98.35113525390625 C 90.73867797851562 99.96286010742188 91.05868530273438 101.5653076171875 91.39715576171875 103.14276123046875 C 91.73562622070312 104.72021484375 92.10202026367188 106.26296997070312 93.03546142578125 107.53143310546875 L 94.13778686523438 107.50790405273438" stroke-width="0.6000000238418579" fill="rgb(218, 166, 20)" opacity="1.0"/>
    <path d="M 122.43853759765625 129.8517303466797 C 126.82855224609375 128.32205200195312 129.14730834960938 123.523193359375 127.61761474609375 119.1331787109375 C 127.48663330078125 118.75726318359375 127.32914733886719 118.39111328125 127.14633178710938 118.0374755859375 C 126.45147705078125 116.69387817382812 125.32681274414062 115.50479125976562 123.88224792480469 115.05857849121094 C 122.66152954101562 114.68136596679688 121.34117126464844 114.86117553710938 120.10208129882812 115.16925048828125 C 116.78646850585938 115.99847412109375 113.75334167480469 117.70036315917969 111.31781005859375 120.09809875488281 C 110.67509460449219 120.73297119140625 110.06292724609375 121.43801879882812 109.76737976074219 122.29376220703125 C 109.2703857421875 123.7301025390625 109.76654052734375 125.35379028320312 110.64021301269531 126.59880065917969 C 111.93601989746094 128.44808959960938 114.0223388671875 129.66786193847656 116.23289489746094 130.1313018798828 C 118.44345092773438 130.59474182128906 120.76559448242188 130.34609985351562 122.91465759277344 129.65188598632812 L 122.43853759765625 129.8517303466797" stroke-width="0.6000000238418579" fill="rgb(143, 165, 67)" opacity="1.0"/>
    <path d="M 393.0360107421875 303.57574462890625 C 396.2236022949219 308.3616638183594 404.8479309082031 307.1839294433594 407.0185852050781 301.8990478515625 C 409.1891784667969 296.61419677734375 404.3165588378906 289.920654296875 398.5645446777344 289.9388732910156 C 392.81256103515625 289.95709228515625 388.0491027832031 296.0725402832031 389.0292663574219 301.745849609375 L 393.0360107421875 303.57574462890625" stroke-width="0.6000000238418579" fill="rgb(233, 92, 21)" opacity="1.0"/>
    <path d="M 119.92660522460938 110.09317016601562 C 122.0811767578125 108.2950439453125 124.4683837890625 105.92367553710938 123.91732788085938 103.1622314453125 C 123.6552734375 102.07182312011719 123.06130981445312 101.089599609375 122.21736145019531 100.35107421875 C 120.17840576171875 98.46759033203125 117.35299682617188 97.689208984375 114.63713073730469 98.26278686523438 C 112.33457946777344 98.75521850585938 110.38519287109375 100.1910400390625 108.53361511230469 101.62225341796875 C 107.49482727050781 102.42790222167969 106.41680908203125 103.31695556640625 105.99858093261719 104.55563354492188 C 105.45465087890625 106.21127319335938 106.24455261230469 108.00132751464844 107.17977905273438 109.47117614746094 C 108.5457763671875 111.6240234375 110.25123596191406 113.54158020019531 112.23001098632812 115.14947509765625 C 112.91476440429688 115.70370483398438 113.66854858398438 116.23780822753906 114.53909301757812 116.3707275390625 C 115.3548583984375 116.45289611816406 116.17691040039062 116.29592895507812 116.905029296875 115.91897583007812 C 119.15811157226562 114.86143493652344 120.83389282226562 112.86874389648438 121.48934936523438 110.4676513671875 L 119.92660522460938 110.09317016601562" stroke-width="0.6000000238418579" fill="rgb(70, 150, 179)" opacity="1.0"/>
    <path d="M 425.0791015625 70.64974975585938 C 426.2567138671875 73.48989868164062 427.6812744140625 76.5885009765625 430.49951171875 77.81277465820312 C 433.527587890625 79.12611389160156 437.157958984375 77.69509887695312 439.4798583984375 75.3492431640625 C 440.37542724609375 74.44514465332031 441.1600341796875 73.36260986328125 441.389892578125 72.111083984375 C 441.5792236328125 71.08233642578125 441.38134765625 70.02481079101562 441.1278076171875 69.01022338867188 C 440.332275390625 65.80972290039062 438.8248291015625 62.542938232421875 435.9847412109375 60.868072509765625 C 433.1212158203125 59.182037353515625 429.17474365234375 59.572723388671875 426.70806884765625 61.80377197265625 C 424.2413330078125 64.03482055664062 423.4217529296875 67.90985107421875 424.7994384765625 70.93949890136719 L 425.0791015625 70.64974975585938" stroke-width="0.6000000238418579" fill="rgb(140, 28, 33)" opacity="1.0"/>
    <path d="M 115.24314880371094 416.96441650390625 C 116.89730834960938 415.0654296875 118.59764099121094 413.0711669921875 119.30616760253906 410.6524963378906 C 120.01467895507812 408.2339172363281 119.43280029296875 405.23638916015625 117.30462646484375 403.88720703125 C 114.67390441894531 402.2276611328125 110.89212036132812 403.9823913574219 109.58816528320312 406.8125 C 108.28421020507812 409.64263916015625 108.90715026855469 413.01092529296875 110.17681884765625 415.8524169921875 C 110.48171997070312 416.7713623046875 111.12002563476562 417.5426025390625 111.96575927734375 418.013916015625 C 112.84222412109375 418.386962890625 114.1241455078125 417.8575439453125 114.11941528320312 416.9002685546875 L 115.24314880371094 416.96441650390625" stroke-width="0.6000000238418579" fill="rgb(159, 159, 159)" opacity="1.0"/>
    <path d="M 455.48480224609375 435.0526123046875 C 456.4573974609375 432.273681640625 456.4990234375 429.10107421875 455.2091064453125 426.45623779296875 C 453.91912841796875 423.8114013671875 451.193115234375 421.813720703125 448.2384033203125 421.768798828125 C 446.1492919921875 421.7396240234375 444.11614990234375 422.6651611328125 442.548583984375 424.049072265625 C 440.98095703125 425.43304443359375 439.8419189453125 427.2449951171875 438.9749755859375 429.14825439453125 C 438.59814453125 429.976806640625 438.26287841796875 430.873046875 438.3878173828125 431.772216796875 C 438.5306396484375 432.80316162109375 439.250244140625 433.647705078125 439.9774169921875 434.39678955078125 C 442.0302734375 436.511474609375 444.48553466796875 438.39208984375 447.36920166015625 439.0029296875 C 450.25286865234375 439.61376953125 453.6121826171875 438.6661376953125 455.172607421875 436.1739501953125 L 455.48480224609375 435.0526123046875" stroke-width="0.6000000238418579" fill="rgb(159, 159, 159)" opacity="1.0"/>
    <path d="M 451.84814453125 284.6507568359375 C 453.6309814453125 282.29815673828125 455.51080322265625 279.6059265136719 455.1378173828125 276.6835632324219 C 454.7791748046875 273.841064453125 452.41748046875 271.7267761230469 450.1827392578125 269.931884765625 C 449.2738037109375 269.2040710449219 448.3114013671875 268.4571533203125 447.16693115234375 268.2459411621094 C 445.2315673828125 267.8875732421875 443.37060546875 269.14019775390625 441.99072265625 270.539794921875 C 440.70947265625 271.8383483886719 439.621337890625 273.31414794921875 438.7596435546875 274.9220275878906 C 437.3594970703125 277.5322265625 436.6419677734375 280.9070739746094 438.32183837890625 283.3454284667969 C 439.226806640625 284.66314697265625 440.71722412109375 285.4985046386719 442.263427734375 285.9137878417969 C 443.8095703125 286.3290710449219 445.4307861328125 286.362060546875 447.03173828125 286.3717956542969 C 448.6326904296875 286.3815612792969 450.2060546875 286.3568115234375 451.635009765625 285.7239074707031 L 451.84814453125 284.6507568359375" stroke-width="0.6000000238418579" fill="rgb(218, 166, 20)" opacity="1.0"/>
    <path d="M 420.3441162109375 358.2753601074219 C 422.8778076171875 362.30487060546875 428.1983642578125 363.5174865722656 432.2279052734375 360.9837951660156 C 432.5728759765625 360.766845703125 432.902099609375 360.5256652832031 433.21307373046875 360.2621154785156 C 434.394287109375 359.26043701171875 435.32275390625 357.8653869628906 435.4365234375 356.321533203125 C 435.5328369140625 355.01690673828125 435.0504150390625 353.74066162109375 434.458740234375 352.574951171875 C 432.8704833984375 349.456787109375 430.476318359375 346.82073974609375 427.52490234375 344.9406433105469 C 426.743896484375 344.4449768066406 425.89996337890625 343.99591064453125 424.978271484375 343.8973693847656 C 423.43096923828125 343.7310485839844 421.9246826171875 344.5986633300781 420.8828125 345.7561340332031 C 419.3348388671875 347.4734802246094 418.596435546875 349.8351745605469 418.6412353515625 352.14727783203125 C 418.68603515625 354.4593811035156 419.4669189453125 356.719482421875 420.65277099609375 358.70458984375 L 420.3441162109375 358.2753601074219" stroke-width="0.6000000238418579" fill="rgb(143, 165, 67)" opacity="1.0"/>
    <path d="M 449.1859130859375 352.12493896484375 C 452.74749755859375 347.71234130859375 449.09228515625 339.9457092285156 443.478759765625 339.4642333984375 C 437.865234375 338.9827880859375 433.006591796875 345.5442199707031 434.7225341796875 350.95074462890625 C 436.4384765625 356.3572998046875 443.59912109375 359.03302001953125 448.6475830078125 356.43524169921875 L 449.1859130859375 352.12493896484375" stroke-width="0.6000000238418579" fill="rgb(233, 92, 21)" opacity="1.0"/>
    <path d="M 453.347900390625 75.3406982421875 C 455.4871826171875 73.52005004882812 457.8538818359375 71.12338256835938 457.27569580078125 68.36456298828125 C 457.00286865234375 67.27560424804688 456.39886474609375 66.29815673828125 455.5469970703125 65.56704711914062 C 453.4879150390625 63.70137023925781 450.6522216796875 62.949462890625 447.93927001953125 63.54974365234375 C 445.63922119140625 64.06484985351562 443.7017822265625 65.52085876464844 441.8621826171875 66.97129821777344 C 440.83013916015625 67.78775024414062 439.7596435546875 68.68804931640625 439.3529052734375 69.93197631835938 C 438.824462890625 71.59445190429688 439.63232421875 73.37863159179688 440.5826416015625 74.84091186523438 C 441.970703125 76.98269653320312 443.6962890625 78.88568115234375 445.6925048828125 80.47605895996094 C 446.38330078125 81.02423095703125 447.1429443359375 81.55160522460938 448.015625 81.67625427246094 C 448.83294677734375 81.75065612792969 449.654296875 81.58561706542969 450.3795166015625 81.20127868652344 C 452.62457275390625 80.12100219726562 454.28277587890625 78.1102294921875 454.915771484375 75.70048522949219 L 453.347900390625 75.3406982421875" stroke-width="0.6000000238418579" fill="rgb(70, 150, 179)" opacity="1.0"/>
    <path d="M 450.8570556640625 390.6391906738281 C 451.4237060546875 388.95831298828125 451.98114013671875 387.0714111328125 451.22161865234375 385.4696960449219 C 450.4046630859375 383.74957275390625 448.28436279296875 382.9930725097656 446.3851318359375 383.1307373046875 C 445.65283203125 383.1835021972656 444.90106201171875 383.3559265136719 444.3260498046875 383.8123474121094 C 443.853271484375 384.1873779296875 443.53778076171875 384.721923828125 443.2626953125 385.2589111328125 C 442.393310546875 386.9512939453125 441.80804443359375 388.9427185058594 442.406005859375 390.7485046386719 C 443.010009765625 392.56805419921875 444.8726806640625 393.896484375 446.791259765625 393.8636779785156 C 448.7098388671875 393.8309020996094 450.53692626953125 392.4586486816406 451.08856201171875 390.6194763183594 L 450.8570556640625 390.6391906738281" stroke-width="0.6000000238418579" fill="rgb(140, 28, 33)" opacity="1.0"/>
    <path d="M 128.2417449951172 219.03387451171875 C 125.13629150390625 220.91131591796875 121.92556762695312 222.89913940429688 119.88887023925781 225.90576171875 C 117.85221862792969 228.91229248046875 117.33119201660156 233.28118896484375 119.65730285644531 236.06903076171875 C 122.53631591796875 239.50393676757812 128.4974365234375 238.76095581054688 131.53224182128906 235.45181274414062 C 134.56703186035156 232.1427001953125 135.19488525390625 227.24703979492188 134.70352172851562 222.78961181640625 C 134.6896514892578 221.39453125 134.1533660888672 220.05538940429688 133.20042419433594 219.03643798828125 C 132.16204833984375 218.13888549804688 130.17019653320312 218.30096435546875 129.75534057617188 219.616455078125 L 128.2417449951172 219.03387451171875" stroke-width="0.6000000238418579" fill="rgb(159, 159, 159)" opacity="1.0"/>
    <path d="M 111.36082458496094 226.50759887695312 C 108.818603515625 224.4373779296875 105.51170349121094 223.193115234375 102.25364685058594 223.54315185546875 C 98.99559020996094 223.8931884765625 95.87188720703125 225.9920654296875 94.70658874511719 229.06948852539062 C 93.88546752929688 231.24627685546875 94.08529663085938 233.725830078125 94.94146728515625 235.89129638671875 C 95.79762268066406 238.0567626953125 97.26412963867188 239.93536376953125 98.9293212890625 241.56362915039062 C 99.65438842773438 242.27178955078125 100.46620178222656 242.96209716796875 101.45516967773438 243.1715087890625 C 102.58889770507812 243.41207885742188 103.74569702148438 242.97808837890625 104.80535888671875 242.50003051757812 C 107.79693603515625 241.15032958984375 110.69561767578125 239.29071044921875 112.4266357421875 236.50189208984375 C 114.15765380859375 233.7130126953125 114.43649291992188 229.83624267578125 112.41705322265625 227.2589111328125 L 111.36082458496094 226.50759887695312" stroke-width="0.6000000238418579" fill="rgb(159, 159, 159)" opacity="1.0"/>
    <path d="M 305.0649108886719 100.39335632324219 C 304.4895324707031 103.55349731445312 303.98687744140625 107.091064453125 305.78460693359375 109.74537658691406 C 307.529296875 112.32916259765625 310.86102294921875 113.22196960449219 313.9126892089844 113.866943359375 C 315.15277099609375 114.12713623046875 316.4542236328125 114.37954711914062 317.669189453125 114.02243041992188 C 319.7244567871094 113.41961669921875 320.9160461425781 111.28915405273438 321.56829833984375 109.2523193359375 C 322.1744384765625 107.362060546875 322.5060119628906 105.39453125 322.5528564453125 103.41000366210938 C 322.6300964355469 100.18768310546875 321.66888427734375 96.55831909179688 318.8399353027344 95.01596069335938 C 317.31390380859375 94.18106079101562 315.45635986328125 94.10212707519531 313.75103759765625 94.45845031738281 C 312.04571533203125 94.81478881835938 310.4553527832031 95.57919311523438 308.89605712890625 96.356201171875 C 307.3367919921875 97.13320922851562 305.8212890625 97.93011474609375 304.7447204589844 99.24661254882812 L 305.0649108886719 100.39335632324219" stroke-width="0.6000000238418579" fill="rgb(218, 166, 20)" opacity="1.0"/>
    <path d="M 218.7735595703125 123.03765869140625 C 215.49749755859375 118.61100769042969 209.25320434570312 117.67828369140625 204.8265380859375 120.95437622070312 C 204.447509765625 121.23489379882812 204.08883666992188 121.54196166992188 203.75323486328125 121.87326049804688 C 202.478271484375 123.13232421875 201.52938842773438 124.8231201171875 201.53338623046875 126.61412048339844 C 201.53662109375 128.12765502929688 202.2049560546875 129.55772399902344 202.98974609375 130.8507080078125 C 205.09521484375 134.30882263183594 208.0882568359375 137.14010620117188 211.65786743164062 139.0504608154297 C 212.602294921875 139.5538330078125 213.61529541015625 139.99795532226562 214.687255859375 140.03086853027344 C 216.48684692382812 140.08718872070312 218.14859008789062 138.95425415039062 219.24908447265625 137.52764892578125 C 220.88442993164062 135.41079711914062 221.52935791015625 132.6215362548828 221.27508544921875 129.95809936523438 C 221.02081298828125 127.29464721679688 219.92184448242188 124.7557373046875 218.3798828125 122.56951904296875 L 218.7735595703125 123.03765869140625" stroke-width="0.6000000238418579" fill="rgb(143, 165, 67)" opacity="1.0"/>
    <path d="M 225.25634765625 93.18540954589844 C 223.66473388671875 99.67523193359375 231.45074462890625 106.132080078125 237.68048095703125 103.83676147460938 C 243.91021728515625 101.54141235351562 245.81045532226562 92.11000061035156 241.27435302734375 87.20062255859375 C 236.73825073242188 82.29124450683594 227.75985717773438 83.01985168457031 223.673828125 88.31753540039062 L 225.25634765625 93.18540954589844" stroke-width="0.6000000238418579" fill="rgb(233, 92, 21)" opacity="1.0"/>
    <path d="M 199.48724365234375 96.59294128417969 C 198.31939697265625 93.61761474609375 196.6158447265625 90.18461608886719 193.4334716796875 89.78640747070312 C 192.16082763671875 89.67724609375 190.88568115234375 89.96563720703125 189.783935546875 90.61189270019531 C 187.01486206054688 92.13751220703125 185.15704345703125 94.91062927246094 184.799560546875 98.0518798828125 C 184.503173828125 100.71728515625 185.35330200195312 103.34053039550781 186.233642578125 105.85638427734375 C 186.73046875 107.26885986328125 187.30328369140625 108.75370788574219 188.49136352539062 109.65138244628906 C 190.08477783203125 110.83493041992188 192.30337524414062 110.62547302246094 194.228271484375 110.14375305175781 C 197.0462646484375 109.44227600097656 199.73211669921875 108.289306640625 202.18170166015625 106.72958374023438 C 203.02700805664062 106.18904113769531 203.87542724609375 105.56668090820312 204.33230590820312 104.67376708984375 C 204.71466064453125 103.82179260253906 204.84085083007812 102.87696838378906 204.69549560546875 101.95451354980469 C 204.36343383789062 99.13919067382812 202.81307983398438 96.61126708984375 200.4542236328125 95.03895568847656 L 199.48724365234375 96.59294128417969" stroke-width="0.6000000238418579" fill="rgb(70, 150, 179)" opacity="1.0"/>
    <path d="M 269.10211181640625 131.2611846923828 C 268.01226806640625 134.47140502929688 266.9390563964844 138.075439453125 268.3840637207031 141.1398162841797 C 269.9383239746094 144.43072509765625 273.9876708984375 145.88531494140625 277.6181335449219 145.63006591796875 C 279.0179138183594 145.53224182128906 280.4554748535156 145.20578002929688 281.5562438964844 144.33580017089844 C 282.46142578125 143.6209716796875 283.0666198730469 142.6006622314453 283.5945129394531 141.57546997070312 C 285.26312255859375 138.3445281982422 286.38995361328125 134.5408477783203 285.2545166015625 131.08709716796875 C 284.1077575683594 127.6070556640625 280.5531005859375 125.06039428710938 276.88616943359375 125.11515808105469 C 273.2192077636719 125.16993713378906 269.7215270996094 127.78509521484375 268.65960693359375 131.2978973388672 L 269.10211181640625 131.2611846923828" stroke-width="0.6000000238418579" fill="rgb(140, 28, 33)" opacity="1.0"/>
    <path d="M 311.32666015625 118.20126342773438 C 307.9458312988281 117.83828735351562 304.42388916015625 117.49786376953125 301.198974609375 118.58331298828125 C 297.9740905761719 119.66876220703125 295.10589599609375 122.63009643554688 295.2576599121094 126.02879333496094 C 295.4543762207031 130.2237091064453 300.3202209472656 133.05331420898438 304.46099853515625 132.308837890625 C 308.60174560546875 131.56436157226562 311.84857177734375 128.27093505859375 314.0122985839844 124.66891479492188 C 314.7937927246094 123.62100219726562 315.154052734375 122.31825256347656 315.02197265625 121.01771545410156 C 314.7572937011719 119.75918579101562 313.1803283691406 118.74945068359375 312.1243896484375 119.49468994140625 L 311.32666015625 118.20126342773438" stroke-width="0.6000000238418579" fill="rgb(159, 159, 159)" opacity="1.0"/>
    <path d="M 197.60687255859375 132.58323669433594 C 195.343994140625 130.1465606689453 192.19696044921875 128.43212890625 188.875 128.32606506347656 C 185.55307006835938 128.22000122070312 182.12042236328125 129.8895721435547 180.51754760742188 132.8171844482422 C 179.386962890625 134.8884735107422 179.23934936523438 137.4073028564453 179.79519653320312 139.70278930664062 C 180.35101318359375 141.998291015625 181.56024169921875 144.09141540527344 183.00424194335938 145.9609375 C 183.63311767578125 146.77413940429688 184.35162353515625 147.5816192626953 185.31564331054688 147.93089294433594 C 186.42068481445312 148.33181762695312 187.6436767578125 148.05838012695312 188.7752685546875 147.7270050048828 C 191.969970703125 146.79144287109375 195.1429443359375 145.3306427001953 197.2735595703125 142.77236938476562 C 199.40414428710938 140.21408081054688 200.22885131835938 136.35894775390625 198.56231689453125 133.48631286621094 L 197.60687255859375 132.58323669433594" stroke-width="0.6000000238418579" fill="rgb(159, 159, 159)" opacity="1.0"/>
    <path d="M 281.0025329589844 105.0947265625 C 277.91851806640625 106.35804748535156 274.54522705078125 107.89590454101562 273.22979736328125 110.95095825195312 C 271.9463195800781 113.92019653320312 273.028076171875 117.33163452148438 274.1699523925781 120.35971069335938 C 274.6356201171875 121.58914184570312 275.14239501953125 122.86788940429688 276.1336669921875 123.73036193847656 C 277.809326171875 125.19003295898438 280.33770751953125 125.04086303710938 282.48272705078125 124.47259521484375 C 284.4739074707031 123.9459228515625 286.3791198730469 123.13604736328125 288.14007568359375 122.06777954101562 C 291.0 120.33427429199219 293.6353454589844 117.4654541015625 293.40240478515625 114.1304931640625 C 293.279296875 112.32987976074219 292.31005859375 110.66200256347656 291.04541015625 109.37045288085938 C 289.78076171875 108.07891845703125 288.22369384765625 107.11595153808594 286.6729431152344 106.18721008300781 C 285.1221923828125 105.25846862792969 283.5785217285156 104.37910461425781 281.82598876953125 104.17388916015625 L 281.0025329589844 105.0947265625" stroke-width="0.6000000238418579" fill="rgb(218, 166, 20)" opacity="1.0"/>
    <path d="M 240.74859619140625 115.65646362304688 C 240.78173828125 121.28182983398438 245.36892700195312 125.81521606445312 250.99432373046875 125.78204345703125 C 251.47601318359375 125.77920532226562 251.9569091796875 125.7421875 252.43338012695312 125.67129516601562 C 254.24380493164062 125.40158081054688 256.0455322265625 124.57925415039062 257.12188720703125 123.099853515625 C 258.0316162109375 121.84976196289062 258.3425598144531 120.26754760742188 258.47479248046875 118.72817993164062 C 258.8231201171875 114.60716247558594 258.0616760253906 110.46804809570312 256.26953125 106.74078369140625 C 255.79415893554688 105.75637817382812 255.22650146484375 104.77944946289062 254.3623046875 104.10610961914062 C 252.9122314453125 102.97482299804688 250.85888671875 102.90737915039062 249.09133911132812 103.42044067382812 C 246.4666748046875 104.1802978515625 244.25338745117188 106.09173583984375 242.85748291015625 108.44146728515625 C 241.46157836914062 110.79116821289062 240.83734130859375 113.54739379882812 240.79104614257812 116.27984619140625 L 240.74859619140625 115.65646362304688" stroke-width="0.6000000238418579" fill="rgb(143, 165, 67)" opacity="1.0"/>
    <path d="M 250.53201293945312 90.96267700195312 C 249.3912353515625 97.554931640625 257.61468505859375 103.46551513671875 263.67828369140625 100.74197387695312 C 269.7418518066406 98.01838684082031 270.9874267578125 88.4666748046875 266.1170959472656 83.87689208984375 C 261.2467346191406 79.287109375 252.329345703125 80.63595581054688 248.6146240234375 86.21002197265625 L 250.53201293945312 90.96267700195312" stroke-width="0.6000000238418579" fill="rgb(233, 92, 21)" opacity="1.0"/>
    <path d="M 337.6259460449219 83.87203979492188 C 334.7582092285156 82.29409790039062 331.16900634765625 80.70663452148438 328.4026184082031 82.47694396972656 C 327.3291320800781 83.22430419921875 326.5140075683594 84.28634643554688 326.0697021484375 85.51658630371094 C 324.8884582519531 88.53094482421875 325.2415466308594 91.93086242675781 327.0169677734375 94.63816833496094 C 328.5289001464844 96.93086242675781 330.91595458984375 98.43960571289062 333.2564697265625 99.84400939941406 C 334.572509765625 100.63079833984375 335.99578857421875 101.4248046875 337.5190124511719 101.3536376953125 C 339.548583984375 101.24214172363281 341.1582336425781 99.62448120117188 342.3583679199219 97.98478698730469 C 344.1177673339844 95.5872802734375 345.4775390625 92.92079162597656 346.3848876953125 90.08877563476562 C 346.6965026855469 89.10964965820312 346.95697021484375 88.06411743164062 346.7320251464844 87.06190490722656 C 346.4751892089844 86.1407470703125 345.95587158203125 85.314208984375 345.2373962402344 84.68310546875 C 343.13250732421875 82.68389892578125 340.25653076171875 81.70870971679688 337.3697814941406 82.01531982421875 L 337.6259460449219 83.87203979492188" stroke-width="0.6000000238418579" fill="rgb(70, 150, 179)" opacity="1.0"/>
    <path d="M 334.7242736816406 132.33074951171875 C 333.8193054199219 129.0415802001953 332.6781005859375 125.43377685546875 329.7441711425781 123.69741821289062 C 326.5914001464844 121.83406066894531 322.3973388671875 122.90908813476562 319.5176696777344 125.17166137695312 C 318.40704345703125 126.04356384277344 317.39404296875 127.12721252441406 316.96844482421875 128.473388671875 C 316.6181945800781 129.5798797607422 316.69024658203125 130.77145385742188 316.8294677734375 131.9234161376953 C 317.26409912109375 135.556640625 318.473388671875 139.3610076904297 321.3692932128906 141.5964813232422 C 324.28948974609375 143.8474578857422 328.68817138671875 143.9613800048828 331.71142578125 141.84515380859375 C 334.73468017578125 139.7289276123047 336.17120361328125 135.57571411132812 335.0721130371094 132.05030822753906 L 334.7242736816406 132.33074951171875" stroke-width="0.6000000238418579" fill="rgb(140, 28, 33)" opacity="1.0"/>
    <path d="M 346.843017578125 104.88357543945312 C 343.34246826171875 103.55422973632812 339.685302734375 102.20956420898438 335.94696044921875 102.46676635742188 C 332.20867919921875 102.72398376464844 328.3273620605469 105.07913208007812 327.54144287109375 108.74224853515625 C 326.5813903808594 113.26614379882812 330.97625732421875 117.63739013671875 335.5951843261719 117.998779296875 C 340.214111328125 118.36018371582031 344.5914001464844 115.75680541992188 347.90081787109375 112.522705078125 C 349.02557373046875 111.62420654296875 349.77264404296875 110.33677673339844 349.9945373535156 108.9144287109375 C 350.0634765625 107.49984741210938 348.66497802734375 105.98443603515625 347.3322448730469 106.48397827148438 L 346.843017578125 104.88357543945312" stroke-width="0.6000000238418579" fill="rgb(159, 159, 159)" opacity="1.0"/>
    <path d="M 347.9333190917969 128.50962829589844 C 344.6687316894531 129.0677032470703 341.5242004394531 130.75645446777344 339.62506103515625 133.4676971435547 C 337.72589111328125 136.178955078125 337.2464904785156 139.9503631591797 338.81317138671875 142.8822479248047 C 339.9234619140625 144.95372009277344 341.9425964355469 146.44972229003906 344.1590270996094 147.23764038085938 C 346.3754577636719 148.02554321289062 348.77935791015625 148.15850830078125 351.1248474121094 147.97390747070312 C 352.1454772949219 147.89297485351562 353.210205078125 147.73419189453125 354.0268249511719 147.12100219726562 C 354.96337890625 146.4184112548828 355.4020690917969 145.2499237060547 355.74267578125 144.12603759765625 C 356.7041931152344 140.9530792236328 357.2160949707031 137.51190185546875 356.2449645996094 134.3414306640625 C 355.2738037109375 131.17095947265625 352.50982666015625 128.3821258544922 349.2069091796875 128.2054443359375 L 347.9333190917969 128.50962829589844" stroke-width="0.6000000238418579" fill="rgb(159, 159, 159)" opacity="1.0"/>
    <path d="M 363.8910827636719 113.13790893554688 C 360.618408203125 113.9730224609375 357.0168762207031 115.04306030273438 355.2677917480469 117.92471313476562 C 353.5628356933594 120.7247314453125 354.1697692871094 124.300537109375 354.89080810546875 127.50003051757812 C 355.1856384277344 128.79934692382812 355.5147705078125 130.1539306640625 356.3886413574219 131.15869140625 C 357.8656005859375 132.85891723632812 360.4241943359375 133.0640869140625 362.6568908691406 132.7947998046875 C 364.7292785644531 132.545654296875 366.75518798828125 132.00022888183594 368.67254638671875 131.17520141601562 C 371.78631591796875 129.83673095703125 374.833984375 127.3272705078125 375.06829833984375 123.94734191894531 C 375.1974792480469 122.12281799316406 374.4587707519531 120.31277465820312 373.3707580566406 118.8389892578125 C 372.2827453613281 117.36518859863281 370.8550720214844 116.18013000488281 369.4289855957031 115.03030395507812 C 368.0028991699219 113.8804931640625 366.5769958496094 112.78123474121094 364.8468017578125 112.32926940917969 L 363.8910827636719 113.13790893554688" stroke-width="0.6000000238418579" fill="rgb(218, 166, 20)" opacity="1.0"/>
    <path d="M 432.770263671875 151.25868225097656 C 426.964599609375 152.49212646484375 423.258056640625 158.198486328125 424.491455078125 164.00421142578125 C 424.5970458984375 164.5013427734375 424.73785400390625 164.9903564453125 424.91265869140625 165.46759033203125 C 425.5772705078125 167.28082275390625 426.81109619140625 168.96728515625 428.5692138671875 169.76416015625 C 430.054931640625 170.43768310546875 431.756103515625 170.42169189453125 433.37493896484375 170.230224609375 C 437.70751953125 169.711669921875 441.8221435546875 168.04251098632812 445.29156494140625 165.3961181640625 C 446.2073974609375 164.695068359375 447.09588623046875 163.9002685546875 447.607421875 162.86376953125 C 448.46728515625 161.12420654296875 448.0992431640625 158.98806762695312 447.1923828125 157.27099609375 C 445.84765625 154.72088623046875 443.4007568359375 152.84133911132812 440.6751708984375 151.8998260498047 C 437.94964599609375 150.95831298828125 434.968505859375 150.90081787109375 432.13519287109375 151.43545532226562 L 432.770263671875 151.25868225097656" stroke-width="0.6000000238418579" fill="rgb(143, 165, 67)" opacity="1.0"/>
    <path d="M 143.2778778076172 417.6080322265625 C 140.8061981201172 423.8544921875 147.67918395996094 431.3489990234375 154.19754028320312 429.913818359375 C 160.71588134765625 428.478515625 163.896728515625 419.3443603515625 160.04931640625 413.83502197265625 C 156.201904296875 408.32568359375 147.15988159179688 407.8250427246094 142.36659240722656 412.54345703125 L 143.2778778076172 417.6080322265625" stroke-width="0.6000000238418579" fill="rgb(233, 92, 21)" opacity="1.0"/>
    <path d="M 435.152587890625 187.04364013671875 C 431.7578125 186.4993896484375 427.64617919921875 186.2012939453125 425.53790283203125 188.9320068359375 C 424.7412109375 190.05136108398438 424.3114013671875 191.390380859375 424.3079833984375 192.76431274414062 C 424.2078857421875 196.16357421875 425.76165771484375 199.40045166015625 428.47650146484375 201.44851684570312 C 430.783935546875 203.179931640625 433.6788330078125 203.82611083984375 436.4908447265625 204.38558959960938 C 438.07098388671875 204.69729614257812 439.75970458984375 204.97817993164062 441.24072265625 204.36810302734375 C 443.2081298828125 203.53875732421875 444.2266845703125 201.36883544921875 444.83251953125 199.32223510742188 C 445.7227783203125 196.32809448242188 446.1226806640625 193.2095947265625 446.0164794921875 190.08770751953125 C 445.9776611328125 189.00909423828125 445.86480712890625 187.8829345703125 445.28729248046875 186.97158813476562 C 444.70697021484375 186.1517333984375 443.90057373046875 185.51837158203125 442.966552734375 185.14886474609375 C 440.1767578125 183.91775512695312 436.9874267578125 183.972412109375 434.241455078125 185.29840087890625 L 435.152587890625 187.04364013671875" stroke-width="0.6000000238418579" fill="rgb(70, 150, 179)" opacity="1.0"/>
    <path d="M 407.9356689453125 158.09454345703125 C 407.4931945800781 154.66468811035156 406.85870361328125 150.88156127929688 404.15966796875 148.72300720214844 C 401.2588806152344 146.40597534179688 396.8966369628906 146.89096069335938 393.685546875 148.75421142578125 C 392.4471740722656 149.47207641601562 391.2768249511719 150.41635131835938 390.6589660644531 151.70733642578125 C 390.1506042480469 152.76840209960938 390.05413818359375 153.97470092773438 390.03070068359375 155.1507568359375 C 389.95233154296875 158.85931396484375 390.6272888183594 162.84942626953125 393.217529296875 165.50360107421875 C 395.8299255371094 168.1767578125 400.2291259765625 168.9141845703125 403.5636291503906 167.21820068359375 C 406.89813232421875 165.522216796875 408.92840576171875 161.5567626953125 408.32452392578125 157.8623046875 L 407.9356689453125 158.09454345703125" stroke-width="0.6000000238418579" fill="rgb(140, 28, 33)" opacity="1.0"/>
    <path d="M 137.90530395507812 124.07269287109375 C 134.11619567871094 124.37008666992188 130.17669677734375 124.7213134765625 126.85711669921875 126.57791137695312 C 123.53759765625 128.4345245361328 120.99623107910156 132.2786407470703 121.86285400390625 135.98138427734375 C 122.94279479980469 140.5496368408203 128.87135314941406 142.65643310546875 133.26731872558594 140.98583984375 C 137.6632843017578 139.3152618408203 140.55226135253906 135.0283203125 142.1876983642578 130.6254119873047 C 142.8305206298828 129.3131866455078 142.95806884765625 127.80770874023438 142.545166015625 126.40606689453125 C 141.99520874023438 125.077880859375 140.05474853515625 124.29327392578125 139.048095703125 125.3294677734375 L 137.90530395507812 124.07269287109375" stroke-width="0.6000000238418579" fill="rgb(159, 159, 159)" opacity="1.0"/>
    <path d="M 420.77349853515625 177.6226806640625 C 417.9586181640625 175.541015625 414.369140625 174.37841796875 410.9112548828125 174.9140625 C 407.45330810546875 175.44970703125 404.22576904296875 177.84417724609375 403.1360168457031 181.18487548828125 C 402.3685302734375 183.54776000976562 402.7051696777344 186.1827392578125 403.7262878417969 188.44998168945312 C 404.7474060058594 190.71722412109375 406.4052734375 192.64813232421875 408.26263427734375 194.30206298828125 C 409.0713195800781 195.0213623046875 409.9716796875 195.71728515625 411.03704833984375 195.89138793945312 C 412.25836181640625 196.091552734375 413.470703125 195.57101440429688 414.5772705078125 195.00830078125 C 417.701171875 193.4195556640625 420.7005615234375 191.29156494140625 422.40814208984375 188.23052978515625 C 424.11572265625 185.16943359375 424.2200927734375 181.02017211914062 421.9376220703125 178.37152099609375 L 420.77349853515625 177.6226806640625" stroke-width="0.6000000238418579" fill="rgb(159, 159, 159)" opacity="1.0"/>
    <path d="M 401.669921875 187.67730712890625 C 400.8622131347656 184.58294677734375 399.8303527832031 181.17837524414062 397.0927734375 179.5372314453125 C 394.4327392578125 177.93746948242188 391.0501403808594 178.53070068359375 388.02447509765625 179.23004150390625 C 386.7957458496094 179.51593017578125 385.514892578125 179.83462524414062 384.5680847167969 180.667236328125 C 382.96588134765625 182.07452392578125 382.784912109375 184.4981689453125 383.0514831542969 186.61077880859375 C 383.29815673828125 188.57174682617188 383.8251037597656 190.48712158203125 384.6162109375 192.29827880859375 C 385.89971923828125 195.23959350585938 388.2916259765625 198.11224365234375 391.49310302734375 198.3165283203125 C 393.2213134765625 198.42938232421875 394.93133544921875 197.72052001953125 396.3211364746094 196.68270874023438 C 397.7109375 195.64486694335938 398.8255920410156 194.28692626953125 399.9068603515625 192.9306640625 C 400.9881591796875 191.57440185546875 402.0216064453125 190.21859741210938 402.4405517578125 188.57803344726562 L 401.669921875 187.67730712890625" stroke-width="0.6000000238418579" fill="rgb(218, 166, 20)" opacity="1.0"/>
    <path d="M 449.376708984375 177.16665649414062 C 449.106689453125 182.57003784179688 453.26812744140625 187.169189453125 458.6715087890625 187.439208984375 C 459.13421630859375 187.46231079101562 459.59796142578125 187.45257568359375 460.05926513671875 187.41006469726562 C 461.8121337890625 187.24822998046875 463.5863037109375 186.55526733398438 464.69921875 185.1925048828125 C 465.639892578125 184.04092407226562 466.0233154296875 182.538330078125 466.23291015625 181.06732177734375 C 466.7884521484375 177.12890625 466.2794189453125 173.11361694335938 464.758544921875 169.4384765625 C 464.35491943359375 168.46771240234375 463.86224365234375 167.49920654296875 463.068603515625 166.8062744140625 C 461.73687744140625 165.64218139648438 459.768798828125 165.46725463867188 458.0440673828125 165.86505126953125 C 455.4830322265625 166.453857421875 453.2552490234375 168.17047119140625 451.788818359375 170.35183715820312 C 450.3223876953125 172.533203125 449.5750732421875 175.14627075195312 449.384033203125 177.76751708984375 L 449.376708984375 177.16665649414062" stroke-width="0.6000000238418579" fill="rgb(143, 165, 67)" opacity="1.0"/>
    <path d="M 148.37477111816406 101.87033081054688 C 142.12017822265625 107.070068359375 145.06739807128906 119.02435302734375 152.82565307617188 121.28656005859375 C 160.58392333984375 123.54872131347656 169.26947021484375 115.69342041015625 168.383056640625 107.60568237304688 C 167.49658203125 99.51795959472656 158.18206787109375 93.73312377929688 150.34898376464844 95.96083068847656 L 148.37477111816406 101.87033081054688" stroke-width="0.6000000238418579" fill="rgb(233, 92, 21)" opacity="1.0"/>
    <path d="M 456.4874267578125 152.07379150390625 C 454.51568603515625 155.6627197265625 452.5325927734375 160.154296875 454.74957275390625 163.61373901367188 C 455.6854248046875 164.95611572265625 457.0147705078125 165.97503662109375 458.55419921875 166.5299072265625 C 462.3262939453125 168.0052490234375 466.57940673828125 167.560791015625 469.9649658203125 165.33743286132812 C 472.83203125 163.444091796875 474.71759033203125 160.45654296875 476.47265625 157.52734375 C 477.4559326171875 155.88026428222656 478.4481201171875 154.09901428222656 478.35784912109375 152.19345092773438 C 478.21673583984375 149.65447998046875 476.191650390625 147.6420135498047 474.13934326171875 146.14190673828125 C 471.1385498046875 143.9427490234375 467.801513671875 142.24378967285156 464.2578125 141.11093139648438 C 463.03265380859375 140.7218780517578 461.724365234375 140.39686584472656 460.4708251953125 140.67909240722656 C 459.318603515625 141.0011444091797 458.28497314453125 141.6514892578125 457.4959716796875 142.55084228515625 C 454.99658203125 145.185791015625 453.7789306640625 148.78453063964844 454.164794921875 152.39576721191406 L 456.4874267578125 152.07379150390625" stroke-width="0.6000000238418579" fill="rgb(70, 150, 179)" opacity="1.0"/>
    <path d="M 373.1763000488281 76.29605102539062 C 374.03179931640625 72.03311157226562 374.8010559082031 67.2720947265625 372.456787109375 63.61358642578125 C 369.9361877441406 59.68504333496094 364.5457458496094 58.50434875488281 359.9706726074219 59.42901611328125 C 358.2065734863281 59.78477478027344 356.43218994140625 60.43756103515625 355.176025390625 61.7259521484375 C 354.1429748535156 62.78468322753906 353.5418701171875 64.182373046875 353.0399475097656 65.57345581054688 C 351.4518127441406 69.95840454101562 350.6473388671875 74.98220825195312 352.6622314453125 79.18707275390625 C 354.69586181640625 83.42352294921875 359.6376037597656 86.07489013671875 364.292236328125 85.399169921875 C 368.94683837890625 84.72344970703125 372.9630432128906 80.8193359375 373.7330017089844 76.17622375488281 L 373.1763000488281 76.29605102539062" stroke-width="0.6000000238418579" fill="rgb(140, 28, 33)" opacity="1.0"/>
    <path d="M 132.45314025878906 413.30859375 C 129.45616149902344 415.982177734375 126.36712646484375 418.79718017578125 124.7623291015625 422.48199462890625 C 123.15757751464844 426.166748046875 123.47854614257812 431.025634765625 126.57568359375 433.58587646484375 C 130.40582275390625 436.73773193359375 136.74005126953125 434.718017578125 139.36920166015625 430.50128173828125 C 141.9983673095703 426.2845458984375 141.68658447265625 420.83087158203125 140.24623107910156 416.0814208984375 C 139.94764709472656 414.5665283203125 139.09207153320312 413.2186279296875 137.84829711914062 412.3037109375 C 136.53623962402344 411.53826904296875 134.40220642089844 412.119384765625 134.21820068359375 413.634765625 L 132.45314025878906 413.30859375" stroke-width="0.6000000238418579" fill="rgb(159, 159, 159)" opacity="1.0"/>
    <path d="M 412.32257080078125 206.68341064453125 C 410.7012023925781 202.7239990234375 407.68792724609375 199.23388671875 403.7354736328125 197.60140991210938 C 399.7830505371094 195.96893310546875 394.8929748535156 196.42465209960938 391.6365966796875 199.2242431640625 C 389.3368225097656 201.20648193359375 388.01812744140625 204.17291259765625 387.647705078125 207.1890869140625 C 387.2773132324219 210.20526123046875 387.785400390625 213.27365112304688 388.677490234375 216.17913818359375 C 389.06646728515625 217.44329833984375 389.56597900390625 218.74114990234375 390.5686950683594 219.59844970703125 C 391.7178649902344 220.58184814453125 393.31451416015625 220.8065185546875 394.82733154296875 220.9200439453125 C 399.0983581542969 221.240478515625 403.5812072753906 220.91854858398438 407.3057861328125 218.80279541015625 C 411.0304260253906 216.68707275390625 413.76983642578125 212.41802978515625 413.0640869140625 208.20376586914062 L 412.32257080078125 206.68341064453125" stroke-width="0.6000000238418579" fill="rgb(159, 159, 159)" opacity="1.0"/>
    <path d="M 382.75439453125 121.612548828125 C 378.7783508300781 122.86476135253906 374.4130554199219 124.42889404296875 372.4540710449219 128.09921264648438 C 370.5439147949219 131.66595458984375 371.53558349609375 136.03109741210938 372.6422424316406 139.92471313476562 C 373.0941162109375 141.5057830810547 373.5920715332031 143.15261840820312 374.7374267578125 144.33123779296875 C 376.6734313964844 146.32577514648438 379.84039306640625 146.40419006347656 382.57342529296875 145.92015075683594 C 385.11029052734375 145.47186279296875 387.56964111328125 144.66162109375 389.876220703125 143.5142364501953 C 393.6221008300781 141.65257263183594 397.2067565917969 138.35235595703125 397.2651062011719 134.17124938964844 C 397.2998962402344 131.9140625 396.2662048339844 129.73387145996094 394.824951171875 127.99186706542969 C 393.38372802734375 126.24984741210938 391.5436096191406 124.88681030273438 389.70782470703125 123.56707763671875 C 387.8720703125 122.24736022949219 386.0399475097656 120.98992919921875 383.87701416015625 120.5509033203125 L 382.75439453125 121.612548828125" stroke-width="0.6000000238418579" fill="rgb(218, 166, 20)" opacity="1.0"/>
    <path d="M 402.8312072753906 78.80642700195312 C 398.4755554199219 73.46560668945312 390.6150207519531 72.66694641113281 385.274169921875 77.0225830078125 C 384.81683349609375 77.39556884765625 384.3865661621094 77.80050659179688 383.98651123046875 78.234375 C 382.466796875 79.88328552246094 381.3800964355469 82.05265808105469 381.490478515625 84.29127502441406 C 381.5835266113281 86.18307495117188 382.5030822753906 87.93142700195312 383.5601806640625 89.50155639648438 C 386.39556884765625 93.70053100585938 390.30352783203125 97.06373596191406 394.87811279296875 99.24180603027344 C 396.0882568359375 99.81549072265625 397.3807067871094 100.31109619140625 398.72265625 100.2891845703125 C 400.9755554199219 100.25372314453125 402.9861755371094 98.73974609375 404.2779541015625 96.89169311523438 C 406.19769287109375 94.14933776855469 406.8398132324219 90.62466430664062 406.36529541015625 87.3101806640625 C 405.8907775878906 83.99571228027344 404.36767578125 80.8865966796875 402.3115234375 78.244384765625 L 402.8312072753906 78.80642700195312" stroke-width="0.6000000238418579" fill="rgb(143, 165, 67)" opacity="1.0"/>
    <path d="M 118.12997436523438 426.898193359375 C 114.15971374511719 419.69818115234375 101.73051452636719 420.34619140625 98.00640869140625 427.6171875 C 94.2823486328125 434.88812255859375 100.42572021484375 445.00750732421875 108.62371826171875 445.6685791015625 C 116.82171630859375 446.32958984375 124.33944702148438 438.1849365234375 123.62045288085938 429.984130859375 L 118.12997436523438 426.898193359375" stroke-width="0.6000000238418579" fill="rgb(233, 92, 21)" opacity="1.0"/>
    <path d="M 450.42266845703125 198.80279541015625 C 448.5029296875 202.4114990234375 446.583984375 206.9212646484375 448.84326171875 210.3443603515625 C 449.79541015625 211.671630859375 451.13592529296875 212.67071533203125 452.679931640625 213.20382690429688 C 456.4647216796875 214.62567138671875 460.703857421875 214.12481689453125 464.0531005859375 211.86016845703125 C 466.8892822265625 209.93182373046875 468.73114013671875 206.924560546875 470.44354248046875 203.97726440429688 C 471.4027099609375 202.320068359375 472.369140625 200.52886962890625 472.25341796875 198.62811279296875 C 472.078369140625 196.0958251953125 470.03009033203125 194.1143798828125 467.96142578125 192.64471435546875 C 464.936767578125 190.49005126953125 461.58319091796875 188.83917236328125 458.0308837890625 187.75613403320312 C 456.8028564453125 187.38427734375 455.49267578125 187.07748413085938 454.2452392578125 187.37603759765625 C 453.0994873046875 187.71298217773438 452.07659912109375 188.37600708007812 451.30120849609375 189.28427124023438 C 448.84197998046875 191.9478759765625 447.67498779296875 195.55618286132812 448.1087646484375 199.15542602539062 L 450.42266845703125 198.80279541015625" stroke-width="0.6000000238418579" fill="rgb(70, 150, 179)" opacity="1.0"/>
    <path d="M 416.083984375 136.52896118164062 C 415.958984375 132.18873596191406 415.6383056640625 127.3831787109375 412.5355224609375 124.3497314453125 C 409.2004699707031 121.09310913085938 403.6900634765625 121.15484619140625 399.4459228515625 123.08212280273438 C 397.8092346191406 123.82449340820312 396.2292785644531 124.85820007324219 395.2962951660156 126.39399719238281 C 394.5288391113281 127.65621948242188 394.2578430175781 129.15126037597656 394.08184814453125 130.61761474609375 C 393.52130126953125 135.24110412597656 393.8667907714844 140.31027221679688 396.7717590332031 143.9493408203125 C 399.70208740234375 147.61492919921875 405.1061706542969 149.08502197265625 409.483642578125 147.3821258544922 C 413.86114501953125 145.67922973632812 416.892333984375 140.97830200195312 416.5987548828125 136.28733825683594 L 416.083984375 136.52896118164062" stroke-width="0.6000000238418579" fill="rgb(140, 28, 33)" opacity="1.0"/>
    <path d="M 401.20953369140625 69.26705932617188 C 402.5022277832031 73.03265380859375 403.88885498046875 76.93669128417969 406.6402893066406 79.81820678710938 C 409.3916931152344 82.69967651367188 413.95556640625 84.27200317382812 417.484619140625 82.42453002929688 C 421.83587646484375 80.13429260253906 422.4222412109375 73.56980895996094 419.57794189453125 69.54783630371094 C 416.733642578125 65.52586364746094 411.6297302246094 63.716766357421875 406.73602294921875 63.20947265625 C 405.23687744140625 62.900665283203125 403.6764831542969 63.1650390625 402.3627624511719 63.950469970703125 C 401.1593933105469 64.85568237304688 400.87109375 67.02914428710938 402.1854248046875 67.77920532226562 L 401.20953369140625 69.26705932617188" stroke-width="0.6000000238418579" fill="rgb(159, 159, 159)" opacity="1.0"/>
    <path d="M 440.0645751953125 236.160888671875 C 437.4747314453125 239.64682006835938 436.02288818359375 244.095947265625 436.6778564453125 248.38665771484375 C 437.33282470703125 252.67730712890625 440.2940673828125 256.6872863769531 444.4349365234375 258.04815673828125 C 447.36376953125 259.0065612792969 450.63311767578125 258.59619140625 453.44818115234375 257.3357849121094 C 456.2633056640625 256.07537841796875 458.662841796875 254.02423095703125 460.719482421875 251.72488403320312 C 461.6138916015625 250.7237548828125 462.4796142578125 249.60885620117188 462.69842529296875 248.287841796875 C 462.9500732421875 246.77349853515625 462.3077392578125 245.26824951171875 461.6126708984375 243.89422607421875 C 459.65057373046875 240.01498413085938 457.01922607421875 236.2886962890625 453.2269287109375 234.16226196289062 C 449.43463134765625 232.03582763671875 444.2882080078125 231.89501953125 440.99658203125 234.718994140625 L 440.0645751953125 236.160888671875" stroke-width="0.6000000238418579" fill="rgb(159, 159, 159)" opacity="1.0"/>
    <path d="M 406.80120849609375 263.50933837890625 C 404.64874267578125 259.8162841796875 402.0962219238281 255.80450439453125 397.98193359375 254.6761474609375 C 393.9823303222656 253.57318115234375 389.8410949707031 255.55316162109375 386.197509765625 257.5413818359375 C 384.7185363769531 258.35125732421875 383.1842041015625 259.2220764160156 382.2647399902344 260.6343994140625 C 380.70819091796875 263.02215576171875 381.3467102050781 266.207275390625 382.44952392578125 268.8310852050781 C 383.47216796875 271.26678466796875 384.8392639160156 273.5430603027344 386.5089416503906 275.5901794433594 C 389.2188415527344 278.91510009765625 393.3309631347656 281.75311279296875 397.52581787109375 280.86492919921875 C 399.7911682128906 280.3887634277344 401.7376403808594 278.86138916015625 403.15362548828125 277.0256042480469 C 404.569580078125 275.1898193359375 405.5162353515625 273.0409240722656 406.4205322265625 270.9061279296875 C 407.3248596191406 268.7713623046875 408.1676940917969 266.6543884277344 408.11712646484375 264.39178466796875 L 406.80120849609375 263.50933837890625" stroke-width="0.6000000238418579" fill="rgb(218, 166, 20)" opacity="1.0"/>
    <path d="M 414.76611328125 87.946044921875 C 411.8026123046875 94.23004150390625 414.494384765625 101.72660827636719 420.7784423828125 104.69009399414062 C 421.3165283203125 104.94384765625 421.8719482421875 105.15911865234375 422.4405517578125 105.33428955078125 C 424.60107421875 105.99946594238281 427.04669189453125 106.04444885253906 429.0347900390625 104.97061157226562 C 430.71490478515625 104.06329345703125 431.9051513671875 102.4666748046875 432.87353515625 100.82244873046875 C 435.4595947265625 96.41769409179688 436.819091796875 91.40084838867188 436.810791015625 86.29306030273438 C 436.8062744140625 84.94293212890625 436.695068359375 83.55194091796875 436.091552734375 82.3409423828125 C 435.07958984375 80.30732727050781 432.82830810546875 79.13699340820312 430.58575439453125 78.7657470703125 C 427.2567138671875 78.21224975585938 423.77178955078125 79.16094970703125 420.96356201171875 81.03384399414062 C 418.15533447265625 82.90673828125 415.9898681640625 85.64404296875 414.48089599609375 88.66311645507812 L 414.76611328125 87.946044921875" stroke-width="0.6000000238418579" fill="rgb(143, 165, 67)" opacity="1.0"/>
    <path d="M 441.5460205078125 128.8958740234375 C 438.5322265625 136.47027587890625 446.85528564453125 145.58065795898438 454.7685546875 143.85401916503906 C 462.681884765625 142.12734985351562 466.5628662109375 131.05039978027344 461.90673828125 124.35598754882812 C 457.2506103515625 117.66156005859375 446.279296875 117.03321838378906 440.4517822265625 122.74794006347656 L 441.5460205078125 128.8958740234375" stroke-width="0.6000000238418579" fill="rgb(233, 92, 21)" opacity="1.0"/>
    <path d="M 446.16357421875 93.96385192871094 C 445.14111328125 97.87127685546875 444.3250732421875 102.64483642578125 447.27813720703125 105.42045593261719 C 448.496337890625 106.47929382324219 450.0130615234375 107.13404846191406 451.619140625 107.29434204101562 C 455.582275390625 107.79786682128906 459.54364013671875 106.34925842285156 462.2470703125 103.40786743164062 C 464.53387451171875 100.90687561035156 465.61859130859375 97.595458984375 466.592529296875 94.3712158203125 C 467.13671875 92.55912780761719 467.6571044921875 90.61653137207031 467.11224365234375 88.81550598144531 C 466.36627197265625 86.42083740234375 463.9449462890625 84.983154296875 461.620849609375 84.04209899902344 C 458.2213134765625 82.66061401367188 454.6204833984375 81.8385009765625 450.9581298828125 81.60763549804688 C 449.692626953125 81.53030395507812 448.363037109375 81.53422546386719 447.2318115234375 82.10585021972656 C 446.2071533203125 82.691162109375 445.375 83.56198120117188 444.836669921875 84.61209106445312 C 443.08001708984375 87.73397827148438 442.78125 91.46932983398438 444.01934814453125 94.83074951171875 L 446.16357421875 93.96385192871094" stroke-width="0.6000000238418579" fill="rgb(70, 150, 179)" opacity="1.0"/>
    <path d="M 320.4400939941406 370.5690002441406 C 316.21527099609375 370.86932373046875 311.54498291015625 371.37957763671875 308.7162170410156 374.5283203125 C 305.67950439453125 377.91259765625 305.96636962890625 383.2804870605469 308.0192565917969 387.3375549316406 C 308.81011962890625 388.9021301269531 309.8825378417969 390.3994140625 311.417724609375 391.24554443359375 C 312.679443359375 391.9415588378906 314.14764404296875 392.1441650390625 315.5840148925781 392.25537109375 C 320.11309814453125 392.6114807128906 325.0392761230469 392.0662536621094 328.4664001464844 389.0853576660156 C 331.9183349609375 386.0787048339844 333.1287841796875 380.75140380859375 331.2890625 376.55517578125 C 329.4493713378906 372.35894775390625 324.7431640625 369.5981140136719 320.1834411621094 370.07720947265625 L 320.4400939941406 370.5690002441406" stroke-width="0.6000000238418579" fill="rgb(140, 28, 33)" opacity="1.0"/>
    <path d="M 307.54046630859375 398.22088623046875 C 303.3948059082031 399.4104919433594 299.0941467285156 400.69403076171875 295.8240051269531 403.5108642578125 C 292.5539245605469 406.32769775390625 290.599609375 411.1780090332031 292.4025573730469 415.0986328125 C 294.6388854980469 419.9332275390625 301.7083740234375 420.9317626953125 306.2174987792969 418.0777587890625 C 310.72662353515625 415.2237548828125 312.9670715332031 409.80230712890625 313.78741455078125 404.5360412597656 C 314.2046813964844 402.9312438964844 314.0052490234375 401.2284240722656 313.2284240722656 399.7635498046875 C 312.31585693359375 398.41143798828125 309.98040771484375 397.9788818359375 309.09600830078125 399.3592224121094 L 307.54046630859375 398.22088623046875" stroke-width="0.6000000238418579" fill="rgb(159, 159, 159)" opacity="1.0"/>
    <path d="M 322.0536193847656 416.07171630859375 C 317.63525390625 417.8905029296875 313.7437744140625 421.2626953125 311.9288024902344 425.67987060546875 C 310.1138000488281 430.09710693359375 310.6326904296875 435.55712890625 313.7657470703125 439.18798828125 C 315.9841003417969 441.75225830078125 319.2995910644531 443.2188720703125 322.66864013671875 443.6263427734375 C 326.0376892089844 444.0338134765625 329.46331787109375 443.460205078125 332.7061767578125 442.4580078125 C 334.11712646484375 442.02105712890625 335.5655212402344 441.4605712890625 336.5208435058594 440.3389892578125 C 337.61669921875 439.0537109375 337.8643493652344 437.2701416015625 337.988037109375 435.58050537109375 C 338.3371887207031 430.8101806640625 337.9685363769531 425.80462646484375 335.5981750488281 421.64947509765625 C 333.2278137207031 417.49432373046875 328.4548034667969 414.44378662109375 323.74993896484375 415.240478515625 L 322.0536193847656 416.07171630859375" stroke-width="0.6000000238418579" fill="rgb(159, 159, 159)" opacity="1.0"/>
    <path d="M 265.1212463378906 416.76171875 C 260.6980285644531 418.529541015625 255.85797119140625 420.68621826171875 253.94049072265625 425.0364990234375 C 252.06979370117188 429.2645263671875 253.57412719726562 434.15350341796875 255.16903686523438 438.49530029296875 C 255.81954956054688 440.2581787109375 256.5281982421875 442.09197998046875 257.9343566894531 443.3367919921875 C 260.3114318847656 445.4434814453125 263.9268493652344 445.26123046875 266.99957275390625 444.475341796875 C 269.8518371582031 443.7469482421875 272.5847473144531 442.61279296875 275.1146545410156 441.1075439453125 C 279.2233581542969 438.66497802734375 283.0249938964844 434.5970458984375 282.73291015625 429.8277587890625 C 282.5789794921875 427.25274658203125 281.2141418457031 424.85711669921875 279.4224853515625 422.9957275390625 C 277.6308288574219 421.13427734375 275.41717529296875 419.73895263671875 273.212158203125 418.392578125 C 271.0071716308594 417.04620361328125 268.8116760253906 415.7705078125 266.3094177246094 415.45574951171875 L 265.1212463378906 416.76171875" stroke-width="0.6000000238418579" fill="rgb(218, 166, 20)" opacity="1.0"/>
    <path d="M 223.45468139648438 413.736083984375 C 215.86767578125 410.9572448730469 207.46453857421875 414.85498046875 204.6856689453125 422.4420166015625 C 204.44772338867188 423.0916748046875 204.25616455078125 423.7574462890625 204.1124267578125 424.4342041015625 C 203.56671142578125 427.0059814453125 203.76904296875 429.8433837890625 205.21966552734375 432.034423828125 C 206.44537353515625 433.8861083984375 208.4185791015625 435.09869384765625 210.42379760742188 436.04931640625 C 215.7947998046875 438.58648681640625 221.7471923828125 439.6392822265625 227.66262817382812 439.0982666015625 C 229.22601318359375 438.95263671875 230.82562255859375 438.6790771484375 232.16552734375 437.85406494140625 C 234.415771484375 436.47039794921875 235.537109375 433.740966796875 235.73385620117188 431.10479736328125 C 236.02862548828125 427.1912841796875 234.56723022460938 423.25335693359375 232.105712890625 420.1954345703125 C 229.64422607421875 417.1375732421875 226.24835205078125 414.91412353515625 222.59442138671875 413.4803466796875 L 223.45468139648438 413.736083984375" stroke-width="0.6000000238418579" fill="rgb(143, 165, 67)" opacity="1.0"/>
    <path d="M 286.0587463378906 360.6808776855469 C 289.6885070800781 369.2674255371094 303.7808532714844 369.99945068359375 308.83612060546875 362.2384948730469 C 313.8913879394531 354.47747802734375 308.1546325683594 342.3431396484375 298.9877624511719 340.6328430175781 C 289.8209228515625 338.92254638671875 280.38482666015625 347.2223815917969 280.23046875 356.5547790527344 L 286.0587463378906 360.6808776855469" stroke-width="0.6000000238418579" fill="rgb(233, 92, 21)" opacity="1.0"/>
    <path d="M 332.7331237792969 359.6812744140625 C 333.0609130859375 364.23638916015625 333.92486572265625 369.6435546875 338.09649658203125 371.5399475097656 C 339.7860107421875 372.23004150390625 341.6480407714844 372.37884521484375 343.4256896972656 371.9658203125 C 347.8515625 371.0622863769531 351.56494140625 368.069580078125 353.38824462890625 363.9367370605469 C 354.92596435546875 360.427001953125 354.8818054199219 356.4872741699219 354.7507629394531 352.68115234375 C 354.6737060546875 350.5432434082031 354.52374267578125 348.27423095703125 353.28485107421875 346.5445556640625 C 351.6146240234375 344.2525939941406 348.499267578125 343.5948791503906 345.66876220703125 343.4334716796875 C 341.5265808105469 343.1920471191406 337.3726501464844 343.6226501464844 333.3680725097656 344.7085876464844 C 331.98516845703125 345.0864562988281 330.563232421875 345.57464599609375 329.5603332519531 346.5983581542969 C 328.676513671875 347.597900390625 328.1026306152344 348.8330383300781 327.90863037109375 350.1531066894531 C 327.1644287109375 354.1345520019531 328.2042541503906 358.2420349121094 330.7532653808594 361.3898010253906 L 332.7331237792969 359.6812744140625" stroke-width="0.6000000238418579" fill="rgb(70, 150, 179)" opacity="1.0"/>
    <path d="M 297.5021667480469 420.7880859375 C 292.5981140136719 421.2774658203125 287.18292236328125 422.0257568359375 283.9970703125 425.7818603515625 C 280.57720947265625 429.81884765625 281.0887451171875 436.0528564453125 283.6109619140625 440.70367431640625 C 284.5826721191406 442.49725341796875 285.87969970703125 444.2032470703125 287.6933288574219 445.136474609375 C 289.1839294433594 445.90423583984375 290.8983459472656 446.09124755859375 292.57269287109375 446.1729736328125 C 297.8523864746094 446.43707275390625 303.5640869140625 445.6396484375 307.4514465332031 442.05889892578125 C 311.3668212890625 438.4473876953125 312.59814453125 432.2109375 310.31927490234375 427.3912353515625 C 308.0403747558594 422.5714111328125 302.4749755859375 419.5162353515625 297.1873474121094 420.224609375 L 297.5021667480469 420.7880859375" stroke-width="0.6000000238418579" fill="rgb(140, 28, 33)" opacity="1.0"/>
    <path d="M 332.0895080566406 390.6014099121094 C 327.80096435546875 390.8870849609375 323.3416442871094 391.23162841796875 319.5632019042969 393.28668212890625 C 315.7848205566406 395.3417053222656 312.85980224609375 399.654541015625 313.790283203125 403.85302734375 C 314.950439453125 409.0330810546875 321.6260681152344 411.4945373535156 326.6191711425781 409.6642150878906 C 331.6122741699219 407.8338623046875 334.9362487792969 403.02496337890625 336.8443603515625 398.06817626953125 C 337.5887451171875 396.5929260253906 337.7530822753906 394.8923034667969 337.3049011230469 393.3018798828125 C 336.7008056640625 391.79266357421875 334.5170593261719 390.8795471191406 333.36492919921875 392.03778076171875 L 332.0895080566406 390.6014099121094" stroke-width="0.6000000238418579" fill="rgb(159, 159, 159)" opacity="1.0"/>
    <path d="M 350.0894470214844 414.851806640625 C 345.3096008300781 415.8656005859375 340.77294921875 418.53912353515625 338.13201904296875 422.6470947265625 C 335.4910583496094 426.7550048828125 335.005126953125 432.3427734375 337.4862365722656 436.5731201171875 C 339.2442321777344 439.561767578125 342.3083190917969 441.64892578125 345.6217956542969 442.6806640625 C 348.935302734375 443.71246337890625 352.4867858886719 443.76776123046875 355.9335632324219 443.35833740234375 C 357.43341064453125 443.17926025390625 358.99371337890625 442.88287353515625 360.16162109375 441.93115234375 C 361.5010986328125 440.840576171875 362.0794372558594 439.0924072265625 362.5157470703125 437.4156494140625 C 363.7474365234375 432.6820068359375 364.3006286621094 427.57916259765625 362.6834411621094 422.9622802734375 C 361.06622314453125 418.3453369140625 356.8284606933594 414.39599609375 351.9490966796875 414.328857421875 L 350.0894470214844 414.851806640625" stroke-width="0.6000000238418579" fill="rgb(159, 159, 159)" opacity="1.0"/>
    <path d="M 255.23016357421875 367.11273193359375 C 256.6675720214844 362.5899963378906 258.0693664550781 357.5005187988281 255.93408203125 353.2727966308594 C 253.86325073242188 349.15838623046875 249.14874267578125 347.2235412597656 244.798095703125 345.7045593261719 C 243.02978515625 345.090087890625 241.1700439453125 344.4754638671875 239.32244873046875 344.77032470703125 C 236.197265625 345.2672119140625 234.05047607421875 348.1651916503906 232.711669921875 351.02734375 C 231.46795654296875 353.68341064453125 230.61212158203125 356.5043029785156 230.1702880859375 359.4036560058594 C 229.45114135742188 364.11114501953125 230.17730712890625 369.6104431152344 234.0328369140625 372.402587890625 C 236.11212158203125 373.91302490234375 238.8193359375 374.37799072265625 241.3853759765625 374.1764831542969 C 243.95138549804688 373.9749755859375 246.4256591796875 373.1539001464844 248.85678100585938 372.3084411621094 C 251.28790283203125 371.4630126953125 253.6585693359375 370.5802001953125 255.4837646484375 368.8533935546875 L 255.23016357421875 367.11273193359375" stroke-width="0.6000000238418579" fill="rgb(218, 166, 20)" opacity="1.0"/>
    <path d="M 254.73037719726562 388.5284729003906 C 251.06576538085938 381.4211120605469 242.33331298828125 378.63018798828125 235.2259521484375 382.2947998046875 C 234.61737060546875 382.6086120605469 234.03179931640625 382.9652099609375 233.4736328125 383.36187744140625 C 231.35308837890625 384.8695373535156 229.599365234375 387.0718994140625 229.18804931640625 389.6397705078125 C 228.84024047851562 391.8097839355469 229.465087890625 394.01507568359375 230.288818359375 396.0509948730469 C 232.501220703125 401.4976501464844 236.13165283203125 406.2525634765625 240.80294799804688 409.8218078613281 C 242.039306640625 410.76318359375 243.38775634765625 411.6356201171875 244.91650390625 411.93243408203125 C 247.482666015625 412.43218994140625 250.128173828125 411.19537353515625 252.03768920898438 409.406982421875 C 254.87445068359375 406.7538146972656 256.4483337402344 402.90631103515625 256.7041015625 399.0296936035156 C 256.9599304199219 395.15313720703125 255.97604370117188 391.2583312988281 254.27511596679688 387.7658386230469 L 254.73037719726562 388.5284729003906" stroke-width="0.6000000238418579" fill="rgb(143, 165, 67)" opacity="1.0"/>
    <path d="M 205.52481079101562 371.6473388671875 C 201.19451904296875 380.310791015625 210.13055419921875 391.933837890625 219.67242431640625 390.6863708496094 C 229.21426391601562 389.4388732910156 234.923828125 376.7162780761719 230.08563232421875 368.3224792480469 C 225.2474365234375 359.9286804199219 212.32244873046875 358.08038330078125 204.848388671875 364.2590637207031 L 205.52481079101562 371.6473388671875" stroke-width="0.6000000238418579" fill="rgb(233, 92, 21)" opacity="1.0"/>
    <path d="M 262.0042419433594 366.3607482910156 C 262.849853515625 370.9444885253906 264.3353271484375 376.3321838378906 268.7806396484375 377.78594970703125 C 270.5721740722656 378.295654296875 272.4777526855469 378.23687744140625 274.2344665527344 377.61767578125 C 278.62225341796875 376.2025451660156 282.0519714355469 372.7485046386719 283.4360046386719 368.3507995605469 C 284.6004943847656 364.6173400878906 284.1119079589844 360.6258544921875 283.5502624511719 356.77972412109375 C 283.23126220703125 354.6197204589844 282.82354736328125 352.3349609375 281.37200927734375 350.7199401855469 C 279.4195556640625 348.5830993652344 276.1852722167969 348.2668762207031 273.29583740234375 348.4219665527344 C 269.0668640136719 348.6436462402344 264.9016418457031 349.5483703613281 260.9617614746094 351.1010437011719 C 259.60150146484375 351.64013671875 258.214111328125 352.2955017089844 257.31207275390625 353.4468994140625 C 256.52813720703125 354.5603942871094 256.0851135253906 355.8779602050781 256.0370178222656 357.2388916015625 C 255.7305908203125 361.3614807128906 257.2480773925781 365.41094970703125 260.1883544921875 368.31689453125 L 262.0042419433594 366.3607482910156" stroke-width="0.6000000238418579" fill="rgb(70, 150, 179)" opacity="1.0"/>
    <path d="M 328.7169189453125 362.6073913574219 C 330.6443176269531 358.2412414550781 332.59735107421875 353.32073974609375 330.9520263671875 348.84393310546875 C 329.1816711425781 344.035888671875 323.6841125488281 341.49267578125 318.56146240234375 341.3992614746094 C 316.58636474609375 341.3623962402344 314.5299072265625 341.6414489746094 312.8781433105469 342.72454833984375 C 311.51995849609375 343.6144104003906 310.5444030761719 344.969970703125 309.67669677734375 346.3419494628906 C 306.9351501464844 350.66522216796875 304.882080078125 355.8589782714844 306.0448913574219 360.8432922363281 C 307.2203063964844 365.8659362792969 311.8883361816406 369.8790283203125 317.03729248046875 370.25811767578125 C 322.18621826171875 370.6372375488281 327.4161682128906 367.40484619140625 329.34197998046875 362.6109313964844 L 328.7169189453125 362.6073913574219" stroke-width="0.6000000238418579" fill="rgb(140, 28, 33)" opacity="1.0"/>
    <path d="M 351.59368896484375 396.2258605957031 C 347.2870178222656 396.3175048828125 342.8067321777344 396.4603271484375 338.9305725097656 398.3465881347656 C 335.0544738769531 400.2328186035156 331.9304504394531 404.41827392578125 332.6717529296875 408.66400146484375 C 333.5985107421875 413.90283203125 340.1706237792969 416.669921875 345.252685546875 415.063720703125 C 350.33477783203125 413.45745849609375 353.8807678222656 408.7934265136719 356.0158386230469 403.9171447753906 C 356.8280029296875 402.473876953125 357.0696105957031 400.7786560058594 356.6929626464844 399.1659851074219 C 356.1565246582031 397.6275634765625 354.0115661621094 396.6143493652344 352.8055419921875 397.7217712402344 L 351.59368896484375 396.2258605957031" stroke-width="0.6000000238418579" fill="rgb(159, 159, 159)" opacity="1.0"/>
    <path d="M 184.45123291015625 411.38629150390625 C 179.49932861328125 411.7635803222656 174.56884765625 413.845703125 171.3548583984375 417.6282958984375 C 168.14083862304688 421.410888671875 166.8984375 426.9744873046875 168.82797241210938 431.570556640625 C 170.1962890625 434.8182373046875 173.00192260742188 437.33367919921875 176.200927734375 438.819580078125 C 179.39996337890625 440.305419921875 182.9703369140625 440.839599609375 186.49786376953125 440.8916015625 C 188.032958984375 440.9132080078125 189.64471435546875 440.82489013671875 190.94952392578125 440.0234375 C 192.44589233398438 439.10528564453125 193.2640380859375 437.42205810546875 193.92950439453125 435.79168701171875 C 195.80813598632812 431.1888427734375 197.05291748046875 426.12274169921875 196.04580688476562 421.25372314453125 C 195.0386962890625 416.3846435546875 191.3016357421875 411.8350524902344 186.3951416015625 411.1100158691406 L 184.45123291015625 411.38629150390625" stroke-width="0.6000000238418579" fill="rgb(159, 159, 159)" opacity="1.0"/>
    <path d="M 358.52520751953125 369.6541748046875 C 354.0242614746094 370.84735107421875 349.07293701171875 372.3685607910156 346.6986083984375 376.3635559082031 C 344.3840637207031 380.24542236328125 345.2665100097656 385.1672058105469 346.3014831542969 389.5686950683594 C 346.7245788574219 391.35614013671875 347.1956787109375 393.2193298339844 348.4132080078125 394.59326171875 C 350.4710998535156 396.91827392578125 354.0009460449219 397.1683349609375 357.075439453125 396.7685241699219 C 359.92919921875 396.3985290527344 362.715087890625 395.6206970214844 365.3477783203125 394.4587707519531 C 369.6231994628906 392.57373046875 373.79254150390625 389.0751953125 374.072265625 384.4127197265625 C 374.22698974609375 381.89581298828125 373.1854553222656 379.40997314453125 371.66668701171875 377.3921813964844 C 370.14788818359375 375.3743591308594 368.1645812988281 373.7589416503906 366.1838684082031 372.19207763671875 C 364.20318603515625 370.625244140625 362.2233581542969 369.1280822753906 359.8323974609375 368.52716064453125 L 358.52520751953125 369.6541748046875" stroke-width="0.6000000238418579" fill="rgb(218, 166, 20)" opacity="1.0"/>
    <path d="M 376.0395202636719 380.8835144042969 C 372.1286926269531 387.80950927734375 374.572998046875 396.5945129394531 381.4989929199219 400.5053405761719 C 382.0920715332031 400.8402099609375 382.7081604003906 401.1325988769531 383.3426208496094 401.38031005859375 C 385.7535705566406 402.321044921875 388.54205322265625 402.57763671875 390.9020080566406 401.5184326171875 C 392.89642333984375 400.62347412109375 394.3893737792969 398.90045166015625 395.63299560546875 397.10443115234375 C 398.9552001953125 392.2923583984375 400.9283447265625 386.67852783203125 401.34747314453125 380.8460693359375 C 401.4556579589844 379.30419921875 401.4453430175781 377.7066955566406 400.8579406738281 376.2734375 C 399.87322998046875 373.8666687011719 397.4010314941406 372.341552734375 394.87176513671875 371.7294921875 C 391.1173400878906 370.8182067871094 387.058837890625 371.60894775390625 383.6954345703125 373.51165771484375 C 380.33203125 375.41436767578125 377.62994384765625 378.3579406738281 375.6537170410156 381.67828369140625 L 376.0395202636719 380.8835144042969" stroke-width="0.6000000238418579" fill="rgb(143, 165, 67)" opacity="1.0"/>
    <path d="M 368.1409912109375 360.0880126953125 C 372.7862548828125 368.5526123046875 387.38372802734375 367.8211669921875 391.7743225097656 359.2915344238281 C 396.16485595703125 350.76190185546875 388.9745788574219 338.86383056640625 379.3490295410156 338.06805419921875 C 369.72344970703125 337.27227783203125 360.8758544921875 346.8189697265625 361.70068359375 356.4510803222656 L 368.1409912109375 360.0880126953125" stroke-width="0.6000000238418579" fill="rgb(233, 92, 21)" opacity="1.0"/>
    <path d="M 395.7564392089844 361.71697998046875 C 396.7037353515625 366.27197265625 398.3077392578125 371.6147766113281 402.7764892578125 372.96514892578125 C 404.5757751464844 373.4333190917969 406.47601318359375 373.3316345214844 408.2150573730469 372.674072265625 C 412.5616455078125 371.16290283203125 415.9061279296875 367.638671875 417.18798828125 363.218994140625 C 418.2657470703125 359.46710205078125 417.6881103515625 355.49505615234375 417.040771484375 351.6697082519531 C 416.6737060546875 349.5214538574219 416.2152099609375 347.2507019042969 414.73028564453125 345.6718444824219 C 412.7337646484375 343.5836181640625 409.4991149902344 343.341064453125 406.6192626953125 343.5610656738281 C 402.4042053222656 343.87774658203125 398.2681884765625 344.8746032714844 394.37164306640625 346.512939453125 C 393.02642822265625 347.08160400390625 391.65673828125 347.7669372558594 390.7826232910156 348.936279296875 C 390.02545166015625 350.06512451171875 389.61309814453125 351.389892578125 389.5958557128906 352.7490539550781 C 389.3831481933594 356.869873046875 390.9888610839844 360.8765563964844 393.988525390625 363.7099914550781 L 395.7564392089844 361.71697998046875" stroke-width="0.6000000238418579" fill="rgb(70, 150, 179)" opacity="1.0"/>
    <path d="M 388.7301330566406 415.7342529296875 C 387.16552734375 420.4896240234375 385.63092041015625 425.82623291015625 387.8072509765625 430.3310546875 C 390.1480407714844 435.16876220703125 396.1475524902344 437.26031494140625 401.5047302246094 436.8328857421875 C 403.5703125 436.66900634765625 405.6884765625 436.1669921875 407.3017883300781 434.8670654296875 C 408.62841796875 433.7989501953125 409.5079040527344 432.283935546875 410.27313232421875 430.76275634765625 C 412.6920166015625 425.96875 414.30303955078125 420.3365478515625 412.578369140625 415.2525634765625 C 410.8367004394531 410.12982177734375 405.552490234375 406.4188537597656 400.13861083984375 406.55072021484375 C 394.7247619628906 406.6826171875 389.5964050292969 410.5928039550781 388.0772399902344 415.7945556640625 L 388.7301330566406 415.7342529296875" stroke-width="0.6000000238418579" fill="rgb(140, 28, 33)" opacity="1.0"/>
    <path d="M 411.3929748535156 388.6192932128906 C 411.1165771484375 392.8975830078125 410.87615966796875 397.3524169921875 412.416015625 401.3568420410156 C 413.9559326171875 405.3612060546875 417.83978271484375 408.8158874511719 422.113037109375 408.44287109375 C 427.38690185546875 407.97064208984375 430.69110107421875 401.6897277832031 429.53173828125 396.5133972167969 C 428.3724365234375 391.3370361328125 424.0499267578125 387.42315673828125 419.396728515625 384.89019775390625 C 418.0347900390625 383.9617614746094 416.37445068359375 383.57763671875 414.74322509765625 383.8135681152344 C 413.1719970703125 384.2143249511719 411.984375 386.2548522949219 412.97967529296875 387.545166015625 L 411.3929748535156 388.6192932128906" stroke-width="0.6000000238418579" fill="rgb(159, 159, 159)" opacity="1.0"/>
    <path d="M 437.06201171875 370.5032653808594 C 437.55712890625 375.31805419921875 439.712646484375 380.068115234375 443.48065185546875 383.10205078125 C 447.24871826171875 386.135986328125 452.70123291015625 387.2031555175781 457.12933349609375 385.20489501953125 C 460.25823974609375 383.78814697265625 462.63677978515625 380.98992919921875 464.00201416015625 377.8349304199219 C 465.3673095703125 374.679931640625 465.79583740234375 371.1876525878906 465.755615234375 367.7495422363281 C 465.7371826171875 366.2533874511719 465.609619140625 364.6853332519531 464.79522705078125 363.4347229003906 C 463.8621826171875 362.00048828125 462.201171875 361.2467346191406 460.5955810546875 360.640380859375 C 456.062744140625 358.9285888671875 451.09490966796875 357.84625244140625 446.3770751953125 358.9528503417969 C 441.6591796875 360.0594482421875 437.3228759765625 363.8175354003906 436.7427978515625 368.6164855957031 L 437.06201171875 370.5032653808594" stroke-width="0.6000000238418579" fill="rgb(159, 159, 159)" opacity="1.0"/>
    <path d="M 424.385009765625 410.3518371582031 C 420.06500244140625 412.3712158203125 415.35064697265625 414.802978515625 413.6824951171875 419.26043701171875 C 412.05419921875 423.593017578125 413.8367919921875 428.39349365234375 415.6787109375 432.6419677734375 C 416.429443359375 434.36676025390625 417.242431640625 436.1591796875 418.7188720703125 437.322998046875 C 421.2149658203125 439.29290771484375 424.818115234375 438.9044189453125 427.84429931640625 437.9434814453125 C 430.65350341796875 437.05267333984375 433.3201904296875 435.76312255859375 435.7628173828125 434.1142578125 C 439.72998046875 431.4384765625 443.29736328125 427.1556396484375 442.733154296875 422.40557861328125 C 442.432373046875 419.8406982421875 440.93145751953125 417.5242919921875 439.0345458984375 415.76611328125 C 437.1375732421875 414.00799560546875 434.84539794921875 412.73974609375 432.564697265625 411.51995849609375 C 430.2840576171875 410.3001708984375 428.016845703125 409.15045166015625 425.4979248046875 408.97869873046875 L 424.385009765625 410.3518371582031" stroke-width="0.6000000238418579" fill="rgb(218, 166, 20)" opacity="1.0"/>
    <path d="M 140.02374267578125 224.19271850585938 C 135.78427124023438 231.05316162109375 137.90899658203125 240.05142211914062 144.76943969726562 244.2908935546875 C 145.35690307617188 244.6539306640625 145.96937561035156 244.97479248046875 146.60226440429688 245.25115966796875 C 149.0072479248047 246.30081176757812 151.8220977783203 246.67236328125 154.25546264648438 245.6937255859375 C 156.3118896484375 244.86688232421875 157.8934326171875 243.18096923828125 159.22528076171875 241.4111328125 C 162.78378295898438 236.6688232421875 165.007568359375 231.06024169921875 165.66571044921875 225.16790771484375 C 165.8370361328125 223.610107421875 165.89053344726562 221.9912109375 165.352783203125 220.51559448242188 C 164.45150756835938 218.03778076171875 162.00787353515625 216.3936767578125 159.4698486328125 215.67230224609375 C 155.70260620117188 214.5987548828125 151.55911254882812 215.2374267578125 148.07534790039062 217.03048706054688 C 144.59158325195312 218.82354736328125 141.7361602783203 221.6976318359375 139.60107421875 224.98248291015625 L 140.02374267578125 224.19271850585938" stroke-width="0.6000000238418579" fill="rgb(143, 165, 67)" opacity="1.0"/>
    <path d="M 170.431884765625 261.8561706542969 C 174.25714111328125 270.8043518066406 188.97113037109375 271.50921630859375 194.21563720703125 263.3862609863281 C 199.46014404296875 255.2633056640625 193.42050170898438 242.6204833984375 183.84405517578125 240.87368774414062 C 174.26760864257812 239.12689208984375 164.4522705078125 247.83078002929688 164.33038330078125 257.573486328125 L 170.431884765625 261.8561706542969" stroke-width="0.6000000238418579" fill="rgb(233, 92, 21)" opacity="1.0"/>
    <path d="M 149.08262634277344 317.8445739746094 C 145.7235107421875 321.1407775878906 142.05282592773438 325.4265441894531 143.3462371826172 329.9682312011719 C 143.93130493164062 331.7555847167969 145.05657958984375 333.3173828125 146.56686401367188 334.4381103515625 C 150.2290802001953 337.3116149902344 155.05690002441406 338.2318115234375 159.51934814453125 336.9068908691406 C 163.3018798828125 335.7733154296875 166.36688232421875 333.1103820800781 169.26895141601562 330.4683837890625 C 170.89675903320312 328.98162841796875 172.57888793945312 327.3501892089844 173.11099243164062 325.2232360839844 C 173.7969970703125 322.3823547363281 172.23529052734375 319.4966735839844 170.47381591796875 317.165771484375 C 167.90020751953125 313.75128173828125 164.79083251953125 310.7758483886719 161.26641845703125 308.35491943359375 C 160.04705810546875 307.5207824707031 158.71505737304688 306.7296142578125 157.241943359375 306.62481689453125 C 155.8672637939453 306.597412109375 154.5142822265625 306.97064208984375 153.3480224609375 307.69891357421875 C 149.724365234375 309.77044677734375 147.19183349609375 313.3273010253906 146.41989135742188 317.4292907714844 L 149.08262634277344 317.8445739746094" stroke-width="0.6000000238418579" fill="rgb(70, 150, 179)" opacity="1.0"/>
    <path d="M 125.1552734375 307.1328125 C 123.79608154296875 302.27032470703125 122.08538818359375 296.937744140625 117.7327880859375 294.3856201171875 C 113.05546569824219 291.6468811035156 106.85479736328125 293.26318359375 102.60659790039062 296.6291198730469 C 100.96810913085938 297.92620849609375 99.47540283203125 299.5361022949219 98.85366821289062 301.5309753417969 C 98.34194946289062 303.1706848144531 98.45578002929688 304.93377685546875 98.66874694824219 306.6378173828125 C 99.33392333984375 312.0123291015625 101.14654541015625 317.63543701171875 105.44593811035156 320.92645263671875 C 109.7813720703125 324.2402648925781 116.29200744628906 324.3823547363281 120.75363159179688 321.2321472167969 C 125.21527099609375 318.0819396972656 127.31626892089844 311.9266052246094 125.66836547851562 306.7156677246094 L 125.1552734375 307.1328125" stroke-width="0.6000000238418579" fill="rgb(140, 28, 33)" opacity="1.0"/>
    <path d="M 140.56307983398438 278.91571044921875 C 136.8068389892578 280.9610595703125 132.9208221435547 283.1307678222656 130.36288452148438 286.5624084472656 C 127.80502319335938 289.9940185546875 126.95918273925781 295.1101989746094 129.54966735839844 298.516357421875 C 132.75674438476562 302.7137451171875 139.8148956298828 302.156005859375 143.56407165527344 298.4212646484375 C 147.31324768066406 294.6864929199219 148.31288146972656 288.95574951171875 147.97142028808594 283.6814270019531 C 148.029296875 282.0381164550781 147.46908569335938 280.4328918457031 146.4012908935547 279.1824951171875 C 145.2264404296875 278.0704650878906 142.87261962890625 278.1553649902344 142.314208984375 279.6821594238281 L 140.56307983398438 278.91571044921875" stroke-width="0.6000000238418579" fill="rgb(159, 159, 159)" opacity="1.0"/>
    <path d="M 163.72116088867188 288.11822509765625 C 162.63778686523438 292.9444580078125 163.18438720703125 298.24700927734375 165.85061645507812 302.41015625 C 168.516845703125 306.57330322265625 173.453857421875 309.3775634765625 178.39337158203125 308.87884521484375 C 181.88522338867188 308.5218200683594 185.09844970703125 306.5825500488281 187.44561767578125 303.9685974121094 C 189.79281616210938 301.3546447753906 191.34185791015625 298.1097717285156 192.41903686523438 294.7652282714844 C 192.886962890625 293.3094787597656 193.27239990234375 291.7486267089844 192.88922119140625 290.27239990234375 C 192.45068359375 288.5797424316406 191.08587646484375 287.3100891113281 189.72698974609375 286.2012939453125 C 185.89044189453125 283.0710144042969 181.42803955078125 280.4094543457031 176.4971923828125 279.9500732421875 C 171.56637573242188 279.4906921386719 166.1444091796875 281.7244567871094 164.02435302734375 286.1863098144531 L 163.72116088867188 288.11822509765625" stroke-width="0.6000000238418579" fill="rgb(159, 159, 159)" opacity="1.0"/>
    <path d="M 122.80830383300781 343.10302734375 C 122.44673156738281 338.32061767578125 121.837646484375 333.0203857421875 118.23870849609375 329.8644104003906 C 114.74305725097656 326.790283203125 109.59292602539062 326.758056640625 104.94094848632812 326.9781494140625 C 103.05126953125 327.0703430175781 101.07586669921875 327.1969299316406 99.45545959472656 328.1714172363281 C 96.71388244628906 329.8179931640625 95.79661560058594 333.34552001953125 95.62312316894531 336.5341796875 C 95.46095275878906 339.49371337890625 95.72459411621094 342.4612121582031 96.40596008300781 345.3458251953125 C 97.5106201171875 350.0300598144531 100.26913452148438 354.91033935546875 104.93807983398438 356.07073974609375 C 107.457763671875 356.70086669921875 110.1710205078125 356.11376953125 112.5001220703125 354.9553527832031 C 114.82919311523438 353.7969055175781 116.83819580078125 352.09234619140625 118.7974853515625 350.3813171386719 C 120.75680541992188 348.6702575683594 122.6453857421875 346.947021484375 123.70370483398438 344.6387939453125 L 122.80830383300781 343.10302734375" stroke-width="0.6000000238418579" fill="rgb(218, 166, 20)" opacity="1.0"/>
    <path d="M 161.35235595703125 347.88262939453125 C 154.92599487304688 352.5984802246094 153.53936767578125 361.63104248046875 158.25521850585938 368.057373046875 C 158.6590576171875 368.607666015625 159.10137939453125 369.12860107421875 159.57891845703125 369.6163024902344 C 161.39385986328125 371.4690856933594 163.83554077148438 372.8524169921875 166.4278564453125 372.85711669921875 C 168.61859130859375 372.8612976074219 170.6923828125 371.90234375 172.56845092773438 370.77398681640625 C 177.58609008789062 367.7467956542969 181.70166015625 363.4312744140625 184.48760986328125 358.2757873535156 C 185.22174072265625 356.91180419921875 185.87051391601562 355.44818115234375 185.9244384765625 353.89678955078125 C 186.01651000976562 351.2923889160156 184.38641357421875 348.88055419921875 182.3280029296875 347.279296875 C 179.273681640625 344.89990234375 175.240234375 343.9501037597656 171.3836669921875 344.3025207519531 C 167.527099609375 344.6549072265625 163.8458251953125 346.2306823730469 160.67242431640625 348.4497375488281 L 161.35235595703125 347.88262939453125" stroke-width="0.6000000238418579" fill="rgb(143, 165, 67)" opacity="1.0"/>
    <path d="M 135.64439392089844 382.06793212890625 C 131.0578155517578 373.6055603027344 116.50215148925781 374.2585754394531 112.080810546875 382.7386169433594 C 107.65950012207031 391.2187194824219 114.76522827148438 403.1170654296875 124.35653686523438 403.9605712890625 C 133.94784545898438 404.8040771484375 142.81759643554688 395.3333740234375 142.0455780029297 385.7270812988281 L 135.64439392089844 382.06793212890625" stroke-width="0.6000000238418579" fill="rgb(233, 92, 21)" opacity="1.0"/>
    <path d="M 185.83169555664062 362.22210693359375 C 184.54644775390625 366.6246643066406 183.4677734375 372.01690673828125 186.73110961914062 375.2616882324219 C 188.08001708984375 376.5024108886719 189.78073120117188 377.29400634765625 191.59860229492188 377.5272216796875 C 196.08096313476562 378.22528076171875 200.62359619140625 376.70745849609375 203.7860107421875 373.455078125 C 206.4615478515625 370.68927001953125 207.79849243164062 366.9652404785156 209.00689697265625 363.3365783691406 C 209.68240356445312 361.297119140625 210.33514404296875 359.1087646484375 209.774169921875 357.0470886230469 C 209.00387573242188 354.30517578125 206.3013916015625 352.59600830078125 203.69345092773438 351.45367431640625 C 199.8787841796875 349.7770690917969 195.81787109375 348.7289733886719 191.66827392578125 348.35003662109375 C 190.23428344726562 348.22186279296875 188.7249755859375 348.1838684082031 187.4227294921875 348.7966003417969 C 186.24102783203125 349.4282531738281 185.26861572265625 350.39013671875 184.6241455078125 351.5649108886719 C 182.530517578125 355.0523681640625 182.0721435546875 359.2826843261719 183.37017822265625 363.1376647949219 L 185.83169555664062 362.22210693359375" stroke-width="0.6000000238418579" fill="rgb(70, 150, 179)" opacity="1.0"/>
  </g>
</svg>
