<?xml version="1.0" ?>
<svg xmlns="http://www.w3.org/2000/svg" version="1.1" width="600" height="600">
  <defs/>
  <g>
    <path d="M 353.8160705566406 347.7208557128906 C 357.2510681152344 351.5703430175781 364.763671875 349.436767578125 366.0255432128906 344.4684753417969 C 367.2873840332031 339.50018310546875 362.1150207519531 334.1685791015625 357.00775146484375 334.9100036621094 C 351.9004821777344 335.65142822265625 348.44012451171875 341.6844482421875 350.026123046875 346.60052490234375 L 353.8160705566406 347.7208557128906" stroke-width="0.6000000238418579" fill="rgb(233, 92, 21)" opacity="1.0"/>
    <path d="M 107.92091369628906 201.57012939453125 C 109.9259033203125 199.79800415039062 112.13710021972656 197.47323608398438 111.5372314453125 194.85610961914062 C 111.25796508789062 193.82388305664062 110.665283203125 192.90374755859375 109.84091186523438 192.22265625 C 107.84658813476562 190.48257446289062 105.132568359375 189.81707763671875 102.55949401855469 190.43719482421875 C 100.378173828125 190.96881103515625 98.55894470214844 192.3900146484375 96.83285522460938 193.80419921875 C 95.86453247070312 194.6002197265625 94.86106872558594 195.47674560546875 94.49594116210938 196.66867065429688 C 94.02226257324219 198.26141357421875 94.82353210449219 199.94622802734375 95.75466918945312 201.3218994140625 C 97.11485290527344 203.3369140625 98.792236328125 205.11849975585938 100.72172546386719 206.5975341796875 C 101.38937377929688 207.10726928710938 102.12226867675781 207.595947265625 102.95561218261719 207.6990966796875 C 103.73536682128906 207.75537109375 104.5146484375 207.58355712890625 105.19845581054688 207.20458984375 C 107.31735229492188 206.13568115234375 108.8607177734375 204.19110107421875 109.4205322265625 201.88479614257812 L 107.92091369628906 201.57012939453125" stroke-width="0.6000000238418579" fill="rgb(70, 150, 179)" opacity="1.0"/>
    <path d="M 456.54339599609375 424.39300537109375 C 457.71484375 427.395751953125 459.1392822265625 430.6748046875 462.06591796875 432.020263671875 C 465.2105712890625 433.4637451171875 469.04705810546875 432.04425048828125 471.532470703125 429.636962890625 C 472.4910888671875 428.709228515625 473.33740234375 427.592041015625 473.60595703125 426.285400390625 C 473.8271484375 425.21142578125 473.6431884765625 424.0986328125 473.39990234375 423.0296630859375 C 472.636962890625 419.65771484375 471.1292724609375 416.2005615234375 468.189697265625 414.38232421875 C 465.22576904296875 412.5518798828125 461.08099365234375 412.8740234375 458.44635009765625 415.1578369140625 C 455.811767578125 417.4415283203125 454.86700439453125 421.4847412109375 456.243896484375 424.69049072265625 L 456.54339599609375 424.39300537109375" stroke-width="0.6000000238418579" fill="rgb(140, 28, 33)" opacity="1.0"/>
    <path d="M 87.78021240234375 201.38711547851562 C 90.22894287109375 200.63272094726562 92.76864624023438 199.82073974609375 94.6785888671875 198.10986328125 C 96.58847045898438 196.39901733398438 97.69337463378906 193.4954833984375 96.5772705078125 191.1875 C 95.19317626953125 188.34164428710938 90.98251342773438 187.82998657226562 88.33708190917969 189.57720947265625 C 85.691650390625 191.32443237304688 84.42337036132812 194.57052612304688 83.996826171875 197.70806884765625 C 83.76747131347656 198.66607666015625 83.90556335449219 199.67523193359375 84.38388061523438 200.536376953125 C 84.9415283203125 201.3289794921875 86.33372497558594 201.55899047851562 86.84312438964844 200.7288818359375 L 87.78021240234375 201.38711547851562" stroke-width="0.6000000238418579" fill="rgb(159, 159, 159)" opacity="1.0"/>
    <path d="M 379.7196960449219 295.2376708984375 C 382.3440246582031 293.93804931640625 384.5802307128906 291.71099853515625 385.50244140625 288.93310546875 C 386.4246826171875 286.15521240234375 385.8756103515625 282.8387756347656 383.8058166503906 280.75177001953125 C 382.340576171875 279.278076171875 380.2511291503906 278.5221252441406 378.17388916015625 278.4159851074219 C 376.0966491699219 278.3098449707031 374.0264587402344 278.8060302734375 372.0862121582031 279.55645751953125 C 371.2420349121094 279.883544921875 370.3802490234375 280.2877197265625 369.84375 281.0140075683594 C 369.228271484375 281.846435546875 369.1525573730469 282.94744873046875 369.148681640625 283.98583984375 C 369.1377258300781 286.9173889160156 369.57562255859375 289.9622802734375 371.2013244628906 292.4022521972656 C 372.8270263671875 294.84222412109375 375.8749084472656 296.5047912597656 378.7178039550781 295.81793212890625 L 379.7196960449219 295.2376708984375" stroke-width="0.6000000238418579" fill="rgb(159, 159, 159)" opacity="1.0"/>
    <path d="M 98.92070007324219 433.8843994140625 C 99.7027587890625 431.3104248046875 100.46052551269531 428.4154052734375 99.21958923339844 426.03448486328125 C 98.01603698730469 423.71728515625 95.32974243164062 422.6546630859375 92.8526611328125 421.82513427734375 C 91.84590148925781 421.4896240234375 90.78732299804688 421.1546630859375 89.74217224121094 421.335205078125 C 87.97433471679688 421.639404296875 86.7784423828125 423.297607421875 86.04025268554688 424.9296875 C 85.3544921875 426.4442138671875 84.8897705078125 428.04931640625 84.66030883789062 429.6959228515625 C 84.2867431640625 432.3695068359375 84.73809814453125 435.48138427734375 86.9437255859375 437.03619384765625 C 88.13323974609375 437.8773193359375 89.671142578125 438.12127685546875 91.12417602539062 437.988525390625 C 92.57720947265625 437.855712890625 93.9737548828125 437.3724365234375 95.34567260742188 436.8756103515625 C 96.71755981445312 436.3787841796875 98.05496215820312 435.8612060546875 99.0770263671875 434.8692626953125 L 98.92070007324219 433.8843994140625" stroke-width="0.6000000238418579" fill="rgb(218, 166, 20)" opacity="1.0"/>
    <path d="M 100.31617736816406 139.50888061523438 C 105.4005126953125 139.88092041015625 109.82379150390625 136.0608367919922 110.19583129882812 130.97650146484375 C 110.22769165039062 130.5411376953125 110.22860717773438 130.1040496826172 110.1986083984375 129.6685333251953 C 110.08432006835938 128.01373291015625 109.47018432617188 126.3272705078125 108.21063232421875 125.24917602539062 C 107.14630126953125 124.33798217773438 105.73916625976562 123.94403076171875 104.35794067382812 123.71453857421875 C 100.659912109375 123.10537719726562 96.86622619628906 123.49746704101562 93.37095642089844 124.85012817382812 C 92.44766235351562 125.209228515625 91.5245361328125 125.65225219726562 90.8544921875 126.38481140136719 C 89.72885131835938 127.61398315429688 89.52117919921875 129.4641571044922 89.85836791992188 131.0976104736328 C 90.35726928710938 133.52305603027344 91.92587280273438 135.65911865234375 93.94886779785156 137.0880889892578 C 95.97183227539062 138.51705932617188 98.41720581054688 139.27796936035156 100.88238525390625 139.5150604248047 L 100.31617736816406 139.50888061523438" stroke-width="0.6000000238418579" fill="rgb(143, 165, 67)" opacity="1.0"/>
    <path d="M 454.083740234375 344.158935546875 C 458.466796875 347.9781799316406 466.56488037109375 344.5334777832031 467.2750244140625 338.8011169433594 C 467.985107421875 333.0687255859375 461.45068359375 327.8375244140625 455.845458984375 329.3866271972656 C 450.24017333984375 330.93572998046875 447.2222900390625 338.16845703125 449.688720703125 343.44085693359375 L 454.083740234375 344.158935546875" stroke-width="0.6000000238418579" fill="rgb(233, 92, 21)" opacity="1.0"/>
    <path d="M 100.59034729003906 218.72088623046875 C 102.13864135742188 216.52532958984375 103.7603759765625 213.74212646484375 102.5682373046875 211.3243408203125 C 102.05636596679688 210.380615234375 101.26426696777344 209.6190185546875 100.30120849609375 209.14453125 C 97.94992065429688 207.906494140625 95.1444091796875 207.88491821289062 92.77435302734375 209.08663940429688 C 90.7664794921875 210.11114501953125 89.31842041015625 211.9208984375 87.95968627929688 213.70220947265625 C 87.19805908203125 214.7041015625 86.4207763671875 215.79278564453125 86.34011840820312 217.041748046875 C 86.24626159667969 218.70745849609375 87.41921997070312 220.16778564453125 88.6474609375 221.29608154296875 C 90.44293212890625 222.94955444335938 92.49418640136719 224.301513671875 94.7216796875 225.299560546875 C 95.49197387695312 225.64288330078125 96.32113647460938 225.9505615234375 97.15911865234375 225.85833740234375 C 97.93389892578125 225.73272705078125 98.65541076660156 225.3843994140625 99.23565673828125 224.85577392578125 C 101.05810546875 223.32086181640625 102.11546325683594 221.06369018554688 102.12823486328125 218.68099975585938 L 100.59034729003906 218.72088623046875" stroke-width="0.6000000238418579" fill="rgb(70, 150, 179)" opacity="1.0"/>
    <path d="M 101.95042419433594 82.56735229492188 C 102.02937316894531 85.65457153320312 102.24650573730469 89.07321166992188 104.44638061523438 91.23780822753906 C 106.81094360351562 93.56166076660156 110.73031616210938 93.53034973144531 113.75332641601562 92.1693115234375 C 114.91909790039062 91.64503479003906 116.04518127441406 90.91342163085938 116.7122802734375 89.8232421875 C 117.260986328125 88.92724609375 117.4571533203125 87.86453247070312 117.58567810058594 86.822021484375 C 117.99493408203125 83.53488159179688 117.76078796386719 79.9287109375 115.70297241210938 77.33383178710938 C 113.627197265625 74.72000122070312 109.78695678710938 73.66207885742188 106.66961669921875 74.86322021484375 C 103.55229187011719 76.06439208984375 101.38565063476562 79.40093994140625 101.58372497558594 82.73800659179688 L 101.95042419433594 82.56735229492188" stroke-width="0.6000000238418579" fill="rgb(140, 28, 33)" opacity="1.0"/>
    <path d="M 91.3101806640625 417.446044921875 C 93.89913940429688 416.88519287109375 96.5869140625 416.2730712890625 98.70535278320312 414.679443359375 C 100.82373046875 413.0858154296875 102.21823120117188 410.1925048828125 101.27236938476562 407.7165832519531 C 100.09796142578125 404.6629333496094 95.80589294433594 403.76409912109375 92.9266357421875 405.33026123046875 C 90.04739379882812 406.8963928222656 88.454345703125 410.12811279296875 87.7379150390625 413.322265625 C 87.41706848144531 414.288818359375 87.47021484375 415.340576171875 87.88687133789062 416.26983642578125 C 88.39128112792969 417.135498046875 89.80502319335938 417.495361328125 90.40304565429688 416.685302734375 L 91.3101806640625 417.446044921875" stroke-width="0.6000000238418579" fill="rgb(159, 159, 159)" opacity="1.0"/>
    <path d="M 469.794921875 62.9659423828125 C 470.8338623046875 60.486785888671875 471.046142578125 57.59765625 470.015869140625 55.11640930175781 C 468.9854736328125 52.635162353515625 466.61090087890625 50.66485595703125 463.9205322265625 50.4615478515625 C 462.01824951171875 50.32023620605469 460.114501953125 51.052001953125 458.60986328125 52.2271728515625 C 457.10516357421875 53.40235900878906 455.967529296875 54.9910888671875 455.0728759765625 56.67803955078125 C 454.6839599609375 57.41239929199219 454.3291015625 58.210845947265625 454.3936767578125 59.03717041015625 C 454.4671630859375 59.98455810546875 455.0765380859375 60.79377746582031 455.6981201171875 61.51637268066406 C 457.452880859375 63.55638122558594 459.587158203125 65.40518188476562 462.181640625 66.12026977539062 C 464.77618408203125 66.83535766601562 467.8897705078125 66.15625 469.44879150390625 63.970733642578125 L 469.794921875 62.9659423828125" stroke-width="0.6000000238418579" fill="rgb(159, 159, 159)" opacity="1.0"/>
    <path d="M 93.91056823730469 107.34286499023438 C 96.70060729980469 108.57388305664062 99.85519409179688 109.82131958007812 102.70378112792969 108.74945068359375 C 105.47550964355469 107.7109375 107.03756713867188 104.832763671875 108.30877685546875 102.15829467773438 C 108.8236083984375 101.07107543945312 109.3448486328125 99.92544555664062 109.28421020507812 98.72470092773438 C 109.18284606933594 96.69377136230469 107.4798583984375 95.12190246582031 105.743896484375 94.06867980957031 C 104.13301086425781 93.09048461914062 102.3900146484375 92.34867858886719 100.56825256347656 91.86593627929688 C 97.61050415039062 91.0810546875 94.0469970703125 91.16473388671875 91.99661254882812 93.43487548828125 C 90.88787841796875 94.6588134765625 90.40365600585938 96.35623168945312 90.35498046875 98.00950622558594 C 90.30630493164062 99.66278076171875 90.65982055664062 101.30029296875 91.0318603515625 102.91191101074219 C 91.40388488769531 104.52351379394531 91.80398559570312 106.09910583496094 92.78099060058594 107.384521484375 L 93.91056823730469 107.34286499023438" stroke-width="0.6000000238418579" fill="rgb(218, 166, 20)" opacity="1.0"/>
    <path d="M 122.57807922363281 130.25083923339844 C 127.02215576171875 128.68870544433594 129.35841369628906 123.8197021484375 127.7962646484375 119.37564086914062 C 127.66250610351562 118.99508666992188 127.50190734863281 118.62451171875 127.31570434570312 118.26669311523438 C 126.60789489746094 116.90719604492188 125.46499633789062 115.70541381835938 124.00003051757812 115.25727844238281 C 122.76205444335938 114.87844848632812 121.42466735839844 115.06428527832031 120.16996765136719 115.3798828125 C 116.8126220703125 116.22929382324219 113.74395751953125 117.962158203125 111.28271484375 120.39846801757812 C 110.63320922851562 121.04354858398438 110.01486206054688 121.7596435546875 109.7177734375 122.62757873535156 C 109.21815490722656 124.08436584472656 109.72537231445312 125.72824096679688 110.61410522460938 126.98736572265625 C 111.93223571777344 128.8576202392578 114.04962158203125 130.0878143310547 116.29081726074219 130.55128479003906 C 118.531982421875 131.0147705078125 120.88429260253906 130.7563934326172 123.05996704101562 130.04701232910156 L 122.57807922363281 130.25083923339844" stroke-width="0.6000000238418579" fill="rgb(143, 165, 67)" opacity="1.0"/>
    <path d="M 392.9930725097656 303.7135009765625 C 396.18023681640625 308.58648681640625 404.9228820800781 307.46685791015625 407.1654357910156 302.1339416503906 C 409.4079895019531 296.801025390625 404.5307312011719 289.98223876953125 398.7063293457031 289.9520568847656 C 392.8819274902344 289.9219055175781 388.0069580078125 296.0738830566406 388.95147705078125 301.8267517089844 L 392.9930725097656 303.7135009765625" stroke-width="0.6000000238418579" fill="rgb(233, 92, 21)" opacity="1.0"/>
    <path d="M 119.72564697265625 109.53915405273438 C 121.96780395507812 107.79351806640625 124.46505737304688 105.47579956054688 124.00228881835938 102.66236877441406 C 123.77455139160156 101.54989624023438 123.20724487304688 100.5355224609375 122.37857055664062 99.7591552734375 C 120.37991333007812 97.78306579589844 117.54743957519531 96.89830017089844 114.77935791015625 97.38540649414062 C 112.43231201171875 97.80464172363281 110.41026306152344 99.190673828125 108.48736572265625 100.57537841796875 C 107.408447265625 101.35498046875 106.2869873046875 102.2176513671875 105.82119750976562 103.456787109375 C 105.2138671875 105.11355590820312 105.95172119140625 106.9521484375 106.84762573242188 108.47174072265625 C 108.156005859375 110.69729614257812 109.81600952148438 112.69639587402344 111.76319885253906 114.39151000976562 C 112.43711853027344 114.97590637207031 113.18156433105469 115.54229736328125 114.05796813964844 115.70672607421875 C 114.88067626953125 115.81790161132812 115.71795654296875 115.68731689453125 116.46774291992188 115.33085632324219 C 118.78413391113281 114.33807373046875 120.54843139648438 112.37911987304688 121.29421997070312 109.9718017578125 L 119.72564697265625 109.53915405273438" stroke-width="0.6000000238418579" fill="rgb(70, 150, 179)" opacity="1.0"/>
    <path d="M 424.6033935546875 70.51983642578125 C 425.80859375 73.4368896484375 427.266845703125 76.61962890625 430.15826416015625 77.88009643554688 C 433.26507568359375 79.23226928710938 436.99365234375 77.76803588867188 439.3802490234375 75.36294555664062 C 440.30078125 74.43603515625 441.10760498046875 73.3258056640625 441.34521484375 72.04136657714844 C 441.5408935546875 70.98556518554688 441.33917236328125 69.89968872070312 441.080322265625 68.85784912109375 C 440.267822265625 65.57135009765625 438.72467041015625 62.21588134765625 435.8114013671875 60.492828369140625 C 432.8740234375 58.75828552246094 428.82232666015625 59.15415954589844 426.2872314453125 61.441192626953125 C 423.75213623046875 63.72822570800781 422.90570068359375 67.70501708984375 424.31597900390625 70.81689453125 L 424.6033935546875 70.51983642578125" stroke-width="0.6000000238418579" fill="rgb(140, 28, 33)" opacity="1.0"/>
    <path d="M 115.26470947265625 417.1307373046875 C 116.98735046386719 415.1832275390625 118.75839233398438 413.1378173828125 119.50886535644531 410.6464538574219 C 120.25932312011719 408.1551513671875 119.68218994140625 405.0560302734375 117.49574279785156 403.6464538574219 C 114.79290771484375 401.9125061035156 110.87493896484375 403.69427490234375 109.50653076171875 406.6057434082031 C 108.13809204101562 409.5172424316406 108.75473022460938 412.99945068359375 110.04315185546875 415.94287109375 C 110.35069274902344 416.8939208984375 111.00357055664062 417.6951904296875 111.87298583984375 418.18841552734375 C 112.77490234375 418.58038330078125 114.10246276855469 418.0439453125 114.1051025390625 417.0556640625 L 115.26470947265625 417.1307373046875" stroke-width="0.6000000238418579" fill="rgb(159, 159, 159)" opacity="1.0"/>
    <path d="M 455.9324951171875 435.594482421875 C 456.9237060546875 432.80633544921875 456.981201171875 429.617919921875 455.69775390625 426.95343017578125 C 454.414306640625 424.2889404296875 451.6844482421875 422.267822265625 448.71502685546875 422.2080078125 C 446.6156005859375 422.16845703125 444.567626953125 423.088623046875 442.9853515625 424.4718017578125 C 441.403076171875 425.85504150390625 440.249267578125 427.67047119140625 439.36859130859375 429.5791015625 C 438.98583984375 430.409912109375 438.6444091796875 431.30908203125 438.765625 432.21337890625 C 438.904052734375 433.250244140625 439.62310791015625 434.1025390625 440.3502197265625 434.85894775390625 C 442.403076171875 436.994384765625 444.8614501953125 438.8966064453125 447.756591796875 439.524658203125 C 450.65179443359375 440.15283203125 454.03271484375 439.2169189453125 455.61328125 436.71990966796875 L 455.9324951171875 435.594482421875" stroke-width="0.6000000238418579" fill="rgb(159, 159, 159)" opacity="1.0"/>
    <path d="M 451.7906494140625 284.47015380859375 C 453.6019287109375 282.0573425292969 455.51080322265625 279.2969055175781 455.1160888671875 276.3117370605469 C 454.73626708984375 273.4081115722656 452.31268310546875 271.258056640625 450.020263671875 269.4338684082031 C 449.087890625 268.6941833496094 448.1007080078125 267.93524169921875 446.92999267578125 267.72467041015625 C 444.9501953125 267.36737060546875 443.053955078125 268.6562805175781 441.65008544921875 270.0931701660156 C 440.3465576171875 271.4263610839844 439.2412109375 272.9397888183594 438.367919921875 274.587158203125 C 436.948974609375 277.26153564453125 436.231201171875 280.7142639160156 437.95947265625 283.1986999511719 C 438.8905029296875 284.54132080078125 440.417724609375 285.3882141113281 442.0 285.8055114746094 C 443.582275390625 286.2228088378906 445.239501953125 286.2489929199219 446.8758544921875 286.25152587890625 C 448.51220703125 286.25408935546875 450.1201171875 286.2215270996094 451.5777587890625 285.5679931640625 L 451.7906494140625 284.47015380859375" stroke-width="0.6000000238418579" fill="rgb(218, 166, 20)" opacity="1.0"/>
    <path d="M 420.8533935546875 357.77294921875 C 423.28125 361.9130554199219 428.605712890625 363.3011169433594 432.74578857421875 360.8732604980469 C 433.100341796875 360.6653747558594 433.43963623046875 360.4325866699219 433.76123046875 360.1766662597656 C 434.98291015625 359.2040100097656 435.962158203125 357.82696533203125 436.125 356.27459716796875 C 436.26275634765625 354.9627380371094 435.81640625 353.66143798828125 435.25634765625 352.4681396484375 C 433.75299072265625 349.2760009765625 431.4222412109375 346.54461669921875 428.50640869140625 344.5577697753906 C 427.7347412109375 344.03387451171875 426.898193359375 343.5549621582031 425.9722900390625 343.4268798828125 C 424.4180908203125 343.21099853515625 422.8729248046875 344.0384521484375 421.78680419921875 345.1724853515625 C 420.17315673828125 346.85498046875 419.3553466796875 349.2121276855469 419.328369140625 351.54376220703125 C 419.3013916015625 353.8753662109375 420.0179443359375 356.1775207519531 421.151123046875 358.2151794433594 L 420.8533935546875 357.77294921875" stroke-width="0.6000000238418579" fill="rgb(143, 165, 67)" opacity="1.0"/>
    <path d="M 448.60858154296875 351.72418212890625 C 452.27459716796875 347.1783752441406 448.50701904296875 339.1814270019531 442.7257080078125 338.6879577636719 C 436.9444580078125 338.1944885253906 431.9434814453125 344.95379638671875 433.712890625 350.5210266113281 C 435.48236083984375 356.0882263183594 442.85791015625 358.8407897949219 448.055908203125 356.1633605957031 L 448.60858154296875 351.72418212890625" stroke-width="0.6000000238418579" fill="rgb(233, 92, 21)" opacity="1.0"/>
    <path d="M 453.72412109375 74.68865966796875 C 455.9942626953125 72.89883422851562 458.520263671875 70.525390625 458.031982421875 67.66612243652344 C 457.7933349609375 66.53581237792969 457.20989990234375 65.50738525390625 456.362060546875 64.72274780273438 C 454.31646728515625 62.724884033203125 451.429443359375 61.842437744140625 448.616455078125 62.355224609375 C 446.2313232421875 62.79634094238281 444.18292236328125 64.21896362304688 442.2353515625 65.6396484375 C 441.142578125 66.43948364257812 440.007080078125 67.32406616210938 439.54095458984375 68.58757019042969 C 438.93341064453125 70.27680969238281 439.69549560546875 72.14266967773438 440.61639404296875 73.6829833984375 C 441.9613037109375 75.93893432617188 443.6624755859375 77.96231079101562 445.65399169921875 79.67466735839844 C 446.34320068359375 80.26498413085938 447.1041259765625 80.8365478515625 447.9967041015625 80.99835205078125 C 448.8343505859375 81.10635375976562 449.685302734375 80.96827697753906 450.44586181640625 80.60098266601562 C 452.79620361328125 79.57656860351562 454.578857421875 77.57269287109375 455.32257080078125 75.11903381347656 L 453.72412109375 74.68865966796875" stroke-width="0.6000000238418579" fill="rgb(70, 150, 179)" opacity="1.0"/>
    <path d="M 450.5906982421875 391.1033020019531 C 451.1802978515625 389.17889404296875 451.7529296875 387.0211181640625 450.8409423828125 385.2283630371094 C 449.86004638671875 383.30316162109375 447.43115234375 382.5120544433594 445.2813720703125 382.7281188964844 C 444.45245361328125 382.81109619140625 443.60516357421875 383.0303955078125 442.9674072265625 383.5662536621094 C 442.4429931640625 384.0065612792969 442.10205078125 384.622802734375 441.8070068359375 385.2405700683594 C 440.8743896484375 387.18756103515625 440.27337646484375 389.4648132324219 441.0086669921875 391.4941101074219 C 441.7510986328125 393.538818359375 443.90582275390625 394.9867858886719 446.08087158203125 394.8890075683594 C 448.25592041015625 394.7912292480469 450.28497314453125 393.1770935058594 450.85260009765625 391.0736389160156 L 450.5906982421875 391.1033020019531" stroke-width="0.6000000238418579" fill="rgb(140, 28, 33)" opacity="1.0"/>
    <path d="M 128.05130004882812 219.44088745117188 C 124.85116577148438 221.31927490234375 121.54196166992188 223.30911254882812 119.41958618164062 226.356201171875 C 117.29727172851562 229.40325927734375 116.70654296875 233.86331176757812 119.04788208007812 236.74465942382812 C 121.94595336914062 240.294921875 128.05081176757812 239.61441040039062 131.19769287109375 236.271240234375 C 134.34458923339844 232.9281005859375 135.05154418945312 227.93084716796875 134.60833740234375 223.36676025390625 C 134.6126708984375 221.940185546875 134.08212280273438 220.5638427734375 133.12130737304688 219.50936889648438 C 132.07151794433594 218.577880859375 130.0327911376953 218.7171630859375 129.59115600585938 220.056640625 L 128.05130004882812 219.44088745117188" stroke-width="0.6000000238418579" fill="rgb(159, 159, 159)" opacity="1.0"/>
    <path d="M 111.72491455078125 227.06912231445312 C 109.01301574707031 224.98800659179688 105.52902221679688 223.79071044921875 102.14389038085938 224.2535400390625 C 98.75877380371094 224.7164306640625 95.56631469726562 226.99798583984375 94.44442749023438 230.24041748046875 C 93.65414428710938 232.53387451171875 93.93702697753906 235.11212158203125 94.89453125 237.34326171875 C 95.85202026367188 239.57440185546875 97.43699645996094 241.48825073242188 99.22152709960938 243.1351318359375 C 99.99851989746094 243.85137939453125 100.86538696289062 244.54644775390625 101.90243530273438 244.73492431640625 C 103.09127807617188 244.9515380859375 104.28387451171875 244.46441650390625 105.37388610839844 243.93426513671875 C 108.45120239257812 242.4375 111.41635131835938 240.41213989257812 113.13653564453125 237.45343017578125 C 114.85671997070312 234.49468994140625 115.03067016601562 230.44573974609375 112.84835815429688 227.82037353515625 L 111.72491455078125 227.06912231445312" stroke-width="0.6000000238418579" fill="rgb(159, 159, 159)" opacity="1.0"/>
    <path d="M 304.9963073730469 100.01119995117188 C 304.4482421875 103.3204345703125 303.9823913574219 107.02255249023438 305.90374755859375 109.7640380859375 C 307.7685241699219 112.43280029296875 311.26220703125 113.3094482421875 314.4593200683594 113.93199157714844 C 315.75848388671875 114.1829833984375 317.1216125488281 114.42485046386719 318.3842468261719 114.03170776367188 C 320.52020263671875 113.36801147460938 321.7288513183594 111.12362670898438 322.3759460449219 108.98602294921875 C 322.977294921875 107.002197265625 323.2906799316406 104.94229125976562 323.3065185546875 102.86936950683594 C 323.33343505859375 99.5035400390625 322.2692565917969 95.72998046875 319.2897033691406 94.16671752929688 C 317.6824035644531 93.32040405273438 315.7415466308594 93.26898193359375 313.9668884277344 93.66946411132812 C 312.1922302246094 94.06997680664062 310.5444030761719 94.89462280273438 308.92926025390625 95.73194885253906 C 307.3140869140625 96.56925964355469 305.7449951171875 97.42660522460938 304.6428527832031 98.81918334960938 L 304.9963073730469 100.01119995117188" stroke-width="0.6000000238418579" fill="rgb(218, 166, 20)" opacity="1.0"/>
    <path d="M 218.90008544921875 122.98483276367188 C 215.51031494140625 118.44586181640625 209.08282470703125 117.51423645019531 204.54385375976562 120.90397644042969 C 204.15518188476562 121.19424438476562 203.78759765625 121.51171875 203.44384765625 121.85400390625 C 202.137939453125 123.15486145019531 201.16937255859375 124.89834594726562 201.18148803710938 126.74069213867188 C 201.19155883789062 128.297607421875 201.88543701171875 129.7657012939453 202.698486328125 131.09226989746094 C 204.8797607421875 134.64016723632812 207.97122192382812 137.53929138183594 211.6517333984375 139.48851013183594 C 212.62542724609375 140.00210571289062 213.66949462890625 140.45443725585938 214.7723388671875 140.4835205078125 C 216.623779296875 140.53343200683594 218.328125 139.360595703125 219.45379638671875 137.88818359375 C 221.1265869140625 135.70335388183594 221.777587890625 132.83123779296875 221.504150390625 130.09255981445312 C 221.230712890625 127.3538818359375 220.08892822265625 124.7470703125 218.49298095703125 122.50503540039062 L 218.90008544921875 122.98483276367188" stroke-width="0.6000000238418579" fill="rgb(143, 165, 67)" opacity="1.0"/>
    <path d="M 225.69790649414062 93.14157104492188 C 224.09521484375 99.74932861328125 232.03451538085938 106.29917907714844 238.3675537109375 103.94744873046875 C 244.7005615234375 101.595703125 246.60964965820312 91.99398803710938 241.98126220703125 87.01028442382812 C 237.3529052734375 82.02658081054688 228.21896362304688 82.791259765625 224.07501220703125 88.19244384765625 L 225.69790649414062 93.14157104492188" stroke-width="0.6000000238418579" fill="rgb(233, 92, 21)" opacity="1.0"/>
    <path d="M 198.9954833984375 96.77815246582031 C 197.8255615234375 93.70489501953125 196.1092529296875 90.15516662597656 192.83956909179688 89.71186828613281 C 191.531494140625 89.58609008789062 190.21661376953125 89.86932373046875 189.07635498046875 90.52249145507812 C 186.2115478515625 92.06271362304688 184.27093505859375 94.89593505859375 183.8699951171875 98.12374877929688 C 183.53689575195312 100.86268615722656 184.38372802734375 103.57035827636719 185.2628173828125 106.16787719726562 C 185.75897216796875 107.626220703125 186.33258056640625 109.15982055664062 187.54531860351562 110.09588623046875 C 189.17202758789062 111.33030700683594 191.4566650390625 111.13829040527344 193.4420166015625 110.66307067871094 C 196.34844970703125 109.97122192382812 199.12374877929688 108.81349182128906 201.66024780273438 107.23480224609375 C 202.53561401367188 106.68765258789062 203.41497802734375 106.05636596679688 203.89447021484375 105.14260864257812 C 204.29681396484375 104.27017211914062 204.4366455078125 103.29949951171875 204.29684448242188 102.34898376464844 C 203.9849853515625 99.44918823242188 202.41680908203125 96.83216857910156 200.00674438476562 95.189697265625 L 198.9954833984375 96.77815246582031" stroke-width="0.6000000238418579" fill="rgb(70, 150, 179)" opacity="1.0"/>
    <path d="M 268.9818420410156 131.08502197265625 C 267.8674621582031 134.393798828125 266.7712097167969 138.10812377929688 268.2669982910156 141.26039123535156 C 269.8758544921875 144.6456756591797 274.04974365234375 146.1335906982422 277.7879638671875 145.86166381835938 C 279.22930908203125 145.75743103027344 280.708984375 145.4176483154297 281.8404235839844 144.51893615722656 C 282.7708435058594 143.780517578125 283.3915710449219 142.72821044921875 283.93267822265625 141.6710968017578 C 285.6430358886719 138.33953857421875 286.7940368652344 134.4194793701172 285.6160583496094 130.86544799804688 C 284.4263916015625 127.28434753417969 280.75927734375 124.6705322265625 276.98297119140625 124.736083984375 C 273.2066650390625 124.8016357421875 269.6110534667969 127.50360107421875 268.5262145996094 131.12393188476562 L 268.9818420410156 131.08502197265625" stroke-width="0.6000000238418579" fill="rgb(140, 28, 33)" opacity="1.0"/>
    <path d="M 310.8207092285156 118.52574157714844 C 307.3581237792969 118.0394287109375 303.749755859375 117.57157897949219 300.39886474609375 118.57916259765625 C 297.04803466796875 119.58673095703125 294.0009765625 122.53427124023438 294.0431213378906 126.032470703125 C 294.10479736328125 130.3505096435547 299.01104736328125 133.4217071533203 303.291748046875 132.7952423095703 C 307.5724792480469 132.16879272460938 311.01983642578125 128.8926239013672 313.3642883300781 125.26303100585938 C 314.2026062011719 124.21218872070312 314.61651611328125 122.88531494140625 314.52435302734375 121.54421997070312 C 314.2944641113281 120.24186706542969 312.70751953125 119.15126037597656 311.5972900390625 119.8818359375 L 310.8207092285156 118.52574157714844" stroke-width="0.6000000238418579" fill="rgb(159, 159, 159)" opacity="1.0"/>
    <path d="M 197.755859375 132.6329803466797 C 195.39169311523438 130.08583068847656 192.10330200195312 128.29319763183594 188.63168334960938 128.181396484375 C 185.1600341796875 128.069580078125 181.57217407226562 129.8134002685547 179.896240234375 132.8725128173828 C 178.71405029296875 135.0368194580078 178.55908203125 137.66912841796875 179.13931274414062 140.06825256347656 C 179.71954345703125 142.46737670898438 180.982666015625 144.6551971435547 182.49118041992188 146.60940551757812 C 183.14816284179688 147.45944213867188 183.8988037109375 148.30352783203125 184.90618896484375 148.66880798339844 C 186.0609130859375 149.088134765625 187.339111328125 148.802734375 188.52178955078125 148.4567413330078 C 191.86077880859375 147.47994995117188 195.17718505859375 145.9542236328125 197.40457153320312 143.28126525878906 C 199.63192749023438 140.60829162597656 200.49493408203125 136.5796356201172 198.754150390625 133.57704162597656 L 197.755859375 132.6329803466797" stroke-width="0.6000000238418579" fill="rgb(159, 159, 159)" opacity="1.0"/>
    <path d="M 281.285400390625 104.76132202148438 C 278.1783142089844 106.13124084472656 274.78399658203125 107.78857421875 273.5265808105469 110.93569946289062 C 272.2994384765625 113.99458312988281 273.49322509765625 117.44004821777344 274.7379150390625 120.49343872070312 C 275.2453918457031 121.73309326171875 275.7960510253906 123.0218505859375 276.82891845703125 123.87356567382812 C 278.57501220703125 125.31509399414062 281.1462097167969 125.094970703125 283.3156433105469 124.45831298828125 C 285.3294982910156 123.86817932128906 287.2481689453125 122.99191284179688 289.012939453125 121.85638427734375 C 291.8791198730469 120.01361083984375 294.48590087890625 117.02056884765625 294.1587219238281 113.63009643554688 C 293.9847717285156 111.7994384765625 292.95257568359375 110.12680053710938 291.6296691894531 108.84542846679688 C 290.3067626953125 107.56407165527344 288.6948547363281 106.625244140625 287.09033203125 105.72113037109375 C 285.4858093261719 104.8170166015625 283.88983154296875 103.96298217773438 282.0992736816406 103.80122375488281 L 281.285400390625 104.76132202148438" stroke-width="0.6000000238418579" fill="rgb(218, 166, 20)" opacity="1.0"/>
    <path d="M 240.43600463867188 115.13095092773438 C 240.68231201171875 120.85995483398438 245.52630615234375 125.3045654296875 251.25531005859375 125.0582275390625 C 251.74591064453125 125.03713989257812 252.234375 124.98126220703125 252.717041015625 124.89105224609375 C 254.551025390625 124.54791259765625 256.35528564453125 123.64218139648438 257.39581298828125 122.09454345703125 C 258.2752685546875 120.7867431640625 258.5322265625 119.16329956054688 258.6087951660156 117.59022521972656 C 258.8078918457031 113.37921142578125 257.8758544921875 109.19171142578125 255.90948486328125 105.46266174316406 C 255.3880615234375 104.47784423828125 254.77288818359375 103.50416564941406 253.8671875 102.85090637207031 C 252.3472900390625 101.75332641601562 250.25311279296875 101.76220703125 248.47201538085938 102.35159301757812 C 245.82711791992188 103.22479248046875 243.644775390625 105.2554931640625 242.3116455078125 107.70175170898438 C 240.97848510742188 110.14801025390625 240.44674682617188 112.97921752929688 240.5028076171875 115.76435852050781 L 240.43600463867188 115.13095092773438" stroke-width="0.6000000238418579" fill="rgb(143, 165, 67)" opacity="1.0"/>
    <path d="M 250.22463989257812 91.03280639648438 C 248.98757934570312 97.71917724609375 257.27557373046875 103.82305908203125 263.47015380859375 101.12649536132812 C 269.66473388671875 98.429931640625 271.04315185546875 88.737060546875 266.1474304199219 84.01504516601562 C 261.251708984375 79.29299926757812 252.1729736328125 80.55880737304688 248.33197021484375 86.1800537109375 L 250.22463989257812 91.03280639648438" stroke-width="0.6000000238418579" fill="rgb(233, 92, 21)" opacity="1.0"/>
    <path d="M 337.6441955566406 83.716552734375 C 334.7756042480469 82.05322265625 331.1764831542969 80.36386108398438 328.3344421386719 82.09397888183594 C 327.230224609375 82.82650756835938 326.3805236816406 83.88363647460938 325.9025573730469 85.11953735351562 C 324.6376953125 88.14566040039062 324.91802978515625 91.59713745117188 326.6546936035156 94.37945556640625 C 328.1338806152344 96.73587036132812 330.5172119140625 98.31817626953125 332.8558044433594 99.79376220703125 C 334.1708068847656 100.62054443359375 335.5942687988281 101.45706176757812 337.1386413574219 101.41960144042969 C 339.19671630859375 101.352783203125 340.8637390136719 99.75100708007812 342.11651611328125 98.11758422851562 C 343.95294189453125 95.72933959960938 345.39068603515625 93.05961608886719 346.3740234375 90.21194458007812 C 346.7118835449219 89.22737121582031 346.99945068359375 88.17434692382812 346.7944030761719 87.15420532226562 C 346.5552062988281 86.21540832519531 346.04803466796875 85.36648559570312 345.3346862792969 84.71096801757812 C 343.2482604980469 82.63832092285156 340.3576354980469 81.58528137207031 337.42694091796875 81.83021545410156 L 337.6441955566406 83.716552734375" stroke-width="0.6000000238418579" fill="rgb(70, 150, 179)" opacity="1.0"/>
    <path d="M 334.9403076171875 132.8245086669922 C 333.9803161621094 129.38626098632812 332.7718505859375 125.61553955078125 329.6949157714844 123.81021118164062 C 326.388427734375 121.87286376953125 322.00396728515625 123.01437377929688 318.9996032714844 125.39337158203125 C 317.84088134765625 126.31013488769531 316.78515625 127.44808959960938 316.34515380859375 128.85842895507812 C 315.9830017089844 130.0176544189453 316.0631103515625 131.26425170898438 316.21337890625 132.4691162109375 C 316.68255615234375 136.26925659179688 317.9630126953125 140.24539184570312 321.002197265625 142.57315063476562 C 324.06683349609375 144.9170379638672 328.67010498046875 145.01882934570312 331.8252868652344 142.79241943359375 C 334.9804992675781 140.5659942626953 336.4672546386719 136.21435546875 335.30316162109375 132.52967834472656 L 334.9403076171875 132.8245086669922" stroke-width="0.6000000238418579" fill="rgb(140, 28, 33)" opacity="1.0"/>
    <path d="M 346.6286315917969 105.15484619140625 C 343.0323486328125 103.8486328125 339.27581787109375 102.52908325195312 335.4601745605469 102.84738159179688 C 331.64459228515625 103.16567993164062 327.7139892578125 105.62959289550781 326.96539306640625 109.38389587402344 C 326.0516662597656 114.02024841308594 330.6068420410156 118.42109680175781 335.3313903808594 118.72175598144531 C 340.0559387207031 119.02241516113281 344.4895935058594 116.29754638671875 347.8228454589844 112.944091796875 C 348.9586486816406 112.00938415527344 349.70281982421875 110.68292236328125 349.9084167480469 109.22639465332031 C 349.95782470703125 107.78009033203125 348.5065002441406 106.2525634765625 347.1522521972656 106.78271484375 L 346.6286315917969 105.15484619140625" stroke-width="0.6000000238418579" fill="rgb(159, 159, 159)" opacity="1.0"/>
    <path d="M 347.5323791503906 128.60696411132812 C 344.1657409667969 129.0962371826172 340.8934326171875 130.74964904785156 338.8736572265625 133.48497009277344 C 336.8538818359375 136.22030639648438 336.2648010253906 140.0807342529297 337.7983093261719 143.131591796875 C 338.88525390625 145.28721618652344 340.92022705078125 146.875244140625 343.1759948730469 147.7412109375 C 345.4317321777344 148.607177734375 347.89678955078125 148.805419921875 350.3100280761719 148.67605590820312 C 351.36016845703125 148.619140625 352.45758056640625 148.48342895507812 353.3118591308594 147.87472534179688 C 354.2915954589844 147.17730712890625 354.7720947265625 145.98867797851562 355.15069580078125 144.84335327148438 C 356.219482421875 141.60983276367188 356.8334655761719 138.08935546875 355.9176025390625 134.80877685546875 C 355.00177001953125 131.5281982421875 352.235107421875 128.593505859375 348.8479919433594 128.32730102539062 L 347.5323791503906 128.60696411132812" stroke-width="0.6000000238418579" fill="rgb(159, 159, 159)" opacity="1.0"/>
    <path d="M 363.3434143066406 112.489013671875 C 360.0121765136719 113.2305908203125 356.3414611816406 114.19918823242188 354.48529052734375 117.05508422851562 C 352.6762390136719 119.82992553710938 353.17791748046875 123.46023559570312 353.80657958984375 126.71401977539062 C 354.06390380859375 128.0354461669922 354.3541564941406 129.41375732421875 355.2054443359375 130.45570373535156 C 356.6441955566406 132.21884155273438 359.2218933105469 132.5056610107422 361.48516845703125 132.30319213867188 C 363.5859680175781 132.11605834960938 365.6490173339844 131.62823486328125 367.61114501953125 130.85467529296875 C 370.7975769042969 129.59979248046875 373.95367431640625 127.16018676757812 374.2955322265625 123.75390625 C 374.4827575683594 121.91523742675781 373.79302978515625 120.06417846679688 372.74005126953125 118.54183959960938 C 371.68707275390625 117.01953125 370.2820739746094 115.77822875976562 368.8775634765625 114.57258605957031 C 367.4730529785156 113.366943359375 366.0671691894531 112.21237182617188 364.3338317871094 111.70205688476562 L 363.3434143066406 112.489013671875" stroke-width="0.6000000238418579" fill="rgb(218, 166, 20)" opacity="1.0"/>
    <path d="M 432.530029296875 150.72271728515625 C 426.65283203125 151.99005126953125 422.91571044921875 157.7818603515625 424.18304443359375 163.65911865234375 C 424.29156494140625 164.16238403320312 424.4356689453125 164.65731811523438 424.6142578125 165.14019775390625 C 425.2930908203125 166.97491455078125 426.548095703125 168.679443359375 428.3314208984375 169.48123168945312 C 429.8385009765625 170.158935546875 431.56170654296875 170.13751220703125 433.200927734375 169.93853759765625 C 437.588134765625 169.39990234375 441.75103759765625 167.6964111328125 445.25732421875 165.0050048828125 C 446.18292236328125 164.29205322265625 447.0804443359375 163.48419189453125 447.595458984375 162.43267822265625 C 448.4610595703125 160.66787719726562 448.08172607421875 158.50518798828125 447.15771484375 156.76861572265625 C 445.7877197265625 154.18954467773438 443.30328369140625 152.29315185546875 440.5394287109375 151.3478240966797 C 437.775634765625 150.40249633789062 434.75567626953125 150.3534393310547 431.88720703125 150.9037322998047 L 432.530029296875 150.72271728515625" stroke-width="0.6000000238418579" fill="rgb(143, 165, 67)" opacity="1.0"/>
    <path d="M 143.24037170410156 417.4107666015625 C 140.8995361328125 423.827880859375 148.09132385253906 431.2569580078125 154.67750549316406 429.619140625 C 161.263671875 427.9813232421875 164.24606323242188 418.60955810546875 160.18411254882812 413.115234375 C 156.12216186523438 407.62091064453125 146.91763305664062 407.36029052734375 142.175048828125 412.28790283203125 L 143.24037170410156 417.4107666015625" stroke-width="0.6000000238418579" fill="rgb(233, 92, 21)" opacity="1.0"/>
    <path d="M 434.984375 187.31277465820312 C 431.5576171875 186.6934814453125 427.400146484375 186.30908203125 425.21038818359375 189.03192138671875 C 424.381103515625 190.1494140625 423.9190673828125 191.4967041015625 423.88800048828125 192.88790893554688 C 423.71844482421875 196.32806396484375 425.226806640625 199.636962890625 427.934814453125 201.765380859375 C 430.236572265625 203.56500244140625 433.15509033203125 204.27743530273438 435.9913330078125 204.90045166015625 C 437.58514404296875 205.247802734375 439.28955078125 205.56613159179688 440.801513671875 204.97811889648438 C 442.8104248046875 204.17779541015625 443.8853759765625 202.00094604492188 444.5399169921875 199.940673828125 C 445.5015869140625 196.92660522460938 445.96905517578125 193.77679443359375 445.9241943359375 190.61334228515625 C 445.9066162109375 189.52035522460938 445.81494140625 188.377685546875 445.2484130859375 187.44329833984375 C 444.67724609375 186.60137939453125 443.8734130859375 185.94390869140625 442.9349365234375 185.55096435546875 C 440.13470458984375 184.248291015625 436.9039306640625 184.2396240234375 434.09674072265625 185.5272216796875 L 434.984375 187.31277465820312" stroke-width="0.6000000238418579" fill="rgb(70, 150, 179)" opacity="1.0"/>
    <path d="M 407.72412109375 158.60372924804688 C 407.18017578125 155.1385955810547 406.4317932128906 151.3206024169922 403.6352844238281 149.2071075439453 C 400.6298522949219 146.93853759765625 396.2205810546875 147.55148315429688 393.0167236328125 149.52981567382812 C 391.7811279296875 150.29205322265625 390.6207580566406 151.28195190429688 390.0301818847656 152.60801696777344 C 389.5442810058594 153.69793701171875 389.4800109863281 154.9236602783203 389.4889221191406 156.11666870117188 C 389.51251220703125 159.87890625 390.3077087402344 163.90557861328125 393.0076599121094 166.52459716796875 C 395.7305908203125 169.16226196289062 400.2113342285156 169.78768920898438 403.5449523925781 167.97549438476562 C 406.87860107421875 166.163330078125 408.8268737792969 162.08642578125 408.1119384765625 158.35748291015625 L 407.72412109375 158.60372924804688" stroke-width="0.6000000238418579" fill="rgb(140, 28, 33)" opacity="1.0"/>
    <path d="M 138.3486328125 124.64118957519531 C 134.48619079589844 125.06861877441406 130.4718017578125 125.55596923828125 127.13999938964844 127.56146240234375 C 123.80825805664062 129.5669708251953 121.33650207519531 133.5781707763672 122.34280395507812 137.3338165283203 C 123.5953369140625 141.96697998046875 129.72250366210938 143.9266815185547 134.1603546142578 142.07618713378906 C 138.5981903076172 140.22567749023438 141.41073608398438 135.75062561035156 142.93849182128906 131.19790649414062 C 143.5526123046875 129.83596801757812 143.63388061523438 128.29335021972656 143.16622924804688 126.87445068359375 C 142.56094360351562 125.53509521484375 140.5523681640625 124.79653930664062 139.55743408203125 125.88825988769531 L 138.3486328125 124.64118957519531" stroke-width="0.6000000238418579" fill="rgb(159, 159, 159)" opacity="1.0"/>
    <path d="M 421.2222900390625 177.17678833007812 C 418.37518310546875 175.07489013671875 414.745849609375 173.90267944335938 411.2508850097656 174.447021484375 C 407.7558898925781 174.9913330078125 404.495361328125 177.4144287109375 403.3965759277344 180.79226684570312 C 402.62274169921875 183.181396484375 402.9652099609375 185.84469604492188 403.9992980957031 188.13568115234375 C 405.03338623046875 190.4266357421875 406.7108459472656 192.37710571289062 408.5896911621094 194.04742431640625 C 409.40777587890625 194.7738037109375 410.3184509277344 195.4765625 411.3955078125 195.65167236328125 C 412.6302490234375 195.85296630859375 413.85528564453125 195.3258056640625 414.973388671875 194.75604248046875 C 418.1297607421875 193.14749145507812 421.15997314453125 190.99392700195312 422.883544921875 187.89825439453125 C 424.6070556640625 184.80255126953125 424.7091064453125 180.60821533203125 422.399658203125 177.9327392578125 L 421.2222900390625 177.17678833007812" stroke-width="0.6000000238418579" fill="rgb(159, 159, 159)" opacity="1.0"/>
    <path d="M 401.8825378417969 187.32672119140625 C 401.1627502441406 184.15838623046875 400.22540283203125 180.6678466796875 397.49884033203125 178.91253662109375 C 394.8496398925781 177.2017822265625 391.3955993652344 177.6944580078125 388.300537109375 178.30642700195312 C 387.0435791015625 178.556884765625 385.73260498046875 178.83892822265625 384.7441711425781 179.6536865234375 C 383.07159423828125 181.03070068359375 382.8092346191406 183.48590087890625 383.0113830566406 185.6397705078125 C 383.1982116699219 187.63897705078125 383.6711730957031 189.60101318359375 384.4157409667969 191.4658203125 C 385.6236267089844 194.494140625 387.9592590332031 197.48870849609375 391.2035217285156 197.80001831054688 C 392.9547424316406 197.97064208984375 394.7141418457031 197.30633544921875 396.1590576171875 196.297607421875 C 397.6039733886719 195.288818359375 398.7798767089844 193.94610595703125 399.9218444824219 192.60400390625 C 401.0638427734375 191.26187133789062 402.1571960449219 189.91864013671875 402.6358337402344 188.266357421875 L 401.8825378417969 187.32672119140625" stroke-width="0.6000000238418579" fill="rgb(218, 166, 20)" opacity="1.0"/>
    <path d="M 449.15179443359375 177.00677490234375 C 448.97149658203125 182.49835205078125 453.27716064453125 187.0963134765625 458.76873779296875 187.276611328125 C 459.239013671875 187.29205322265625 459.709716796875 187.27410888671875 460.17742919921875 187.222900390625 C 461.95458984375 187.02813720703125 463.744140625 186.29364013671875 464.8505859375 184.89047241210938 C 465.7857666015625 183.70477294921875 466.1490478515625 182.17230224609375 466.3363037109375 180.67489624023438 C 466.83203125 176.666015625 466.245361328125 172.59747314453125 464.63714599609375 168.8919677734375 C 464.21044921875 167.9132080078125 463.69329833984375 166.93829345703125 462.8753662109375 166.2484130859375 C 461.5028076171875 165.0894775390625 459.5013427734375 164.946044921875 457.7568359375 165.37994384765625 C 455.16644287109375 166.0223388671875 452.93408203125 167.80419921875 451.4827880859375 170.04473876953125 C 450.0316162109375 172.2852783203125 449.31817626953125 174.95172119140625 449.169677734375 177.6168212890625 L 449.15179443359375 177.00677490234375" stroke-width="0.6000000238418579" fill="rgb(143, 165, 67)" opacity="1.0"/>
    <path d="M 148.46151733398438 101.49911499023438 C 141.981201171875 107.05784606933594 145.26812744140625 119.55682373046875 153.447509765625 121.80543518066406 C 161.62689208984375 124.05401611328125 170.61566162109375 115.66873168945312 169.55426025390625 107.19454956054688 C 168.49285888671875 98.72038269042969 158.623046875 92.79977416992188 150.43783569335938 95.26475524902344 L 148.46151733398438 101.49911499023438" stroke-width="0.6000000238418579" fill="rgb(233, 92, 21)" opacity="1.0"/>
    <path d="M 456.80462646484375 152.14596557617188 C 454.72015380859375 155.85281372070312 452.6146240234375 160.49691772460938 454.8814697265625 164.11227416992188 C 455.83953857421875 165.51593017578125 457.2095947265625 166.58770751953125 458.8026123046875 167.17971801757812 C 462.7047119140625 168.75054931640625 467.12615966796875 168.33261108398438 470.664794921875 166.05844116210938 C 473.66162109375 164.12161254882812 475.6505126953125 161.0384521484375 477.503173828125 158.01446533203125 C 478.5411376953125 156.3140869140625 479.58984375 154.47445678710938 479.515625 152.49461364746094 C 479.3951416015625 149.85646057128906 477.312744140625 147.74575805664062 475.19683837890625 146.16685485839844 C 472.10308837890625 143.8522491455078 468.655029296875 142.0536651611328 464.986572265625 140.84085083007812 C 463.71826171875 140.4242401123047 462.3629150390625 140.0732879638672 461.0582275390625 140.35353088378906 C 459.85833740234375 140.6761474609375 458.77825927734375 141.34092712402344 457.94970703125 142.2667999267578 C 455.3270263671875 144.9775390625 454.0255126953125 148.70230102539062 454.3892822265625 152.45651245117188 L 456.80462646484375 152.14596557617188" stroke-width="0.6000000238418579" fill="rgb(70, 150, 179)" opacity="1.0"/>
    <path d="M 372.8185119628906 76.05067443847656 C 373.79864501953125 71.61257934570312 374.6986999511719 66.65213012695312 372.3224182128906 62.78118896484375 C 369.76727294921875 58.62445068359375 364.1573181152344 57.28167724609375 359.3570861816406 58.15577697753906 C 357.50616455078125 58.49200439453125 355.6385192871094 59.138458251953125 354.2996520996094 60.45965576171875 C 353.1985778808594 61.54534912109375 352.54217529296875 62.99400329589844 351.989501953125 64.43777465820312 C 350.2412109375 68.98860168457031 349.2990417480469 74.22297668457031 351.320068359375 78.65829467773438 C 353.3600158691406 83.12701416015625 358.4713439941406 85.99778747558594 363.3497314453125 85.38546752929688 C 368.22808837890625 84.77316284179688 372.5043640136719 80.77386474609375 373.40277099609375 75.93667602539062 L 372.8185119628906 76.05067443847656" stroke-width="0.6000000238418579" fill="rgb(140, 28, 33)" opacity="1.0"/>
    <path d="M 132.8380126953125 413.0374755859375 C 129.82821655273438 415.853271484375 126.7274169921875 418.81640625 125.17050170898438 422.6358642578125 C 123.6136474609375 426.45526123046875 124.06100463867188 431.43243408203125 127.30075073242188 433.98388671875 C 131.30690002441406 437.12445068359375 137.75645446777344 434.8984375 140.35137939453125 430.50836181640625 C 142.94631958007812 426.1182861328125 142.49391174316406 420.5306396484375 140.9007568359375 415.69287109375 C 140.5576171875 414.1458740234375 139.64707946777344 412.7838134765625 138.34878540039062 411.87542724609375 C 136.98406982421875 411.1219787597656 134.8087615966797 411.77001953125 134.6568145751953 413.3292236328125 L 132.8380126953125 413.0374755859375" stroke-width="0.6000000238418579" fill="rgb(159, 159, 159)" opacity="1.0"/>
    <path d="M 412.8818359375 207.02935791015625 C 411.105712890625 202.9349365234375 407.8880615234375 199.35983276367188 403.7309265136719 197.7423095703125 C 399.5737609863281 196.12481689453125 394.483642578125 196.70523071289062 391.14776611328125 199.6949462890625 C 388.79193115234375 201.81170654296875 387.4804382324219 204.933837890625 387.15899658203125 208.08737182617188 C 386.8375549316406 211.24093627929688 387.4334411621094 214.43008422851562 388.4263000488281 217.4410400390625 C 388.8591613769531 218.7510986328125 389.4079895019531 220.09393310546875 390.4721984863281 220.9664306640625 C 391.6918029785156 221.96728515625 393.36181640625 222.16729736328125 394.9420166015625 222.25311279296875 C 399.4031982421875 222.4954833984375 404.07147216796875 222.06332397460938 407.910400390625 219.77670288085938 C 411.74932861328125 217.49005126953125 414.5145263671875 212.97894287109375 413.6878662109375 208.5989990234375 L 412.8818359375 207.02935791015625" stroke-width="0.6000000238418579" fill="rgb(159, 159, 159)" opacity="1.0"/>
    <path d="M 382.4681701660156 121.86370849609375 C 378.3451232910156 123.09312438964844 373.8154296875 124.63827514648438 371.7357482910156 128.39508056640625 C 369.7080993652344 132.04574584960938 370.6624755859375 136.56622314453125 371.74298095703125 140.60191345214844 C 372.1843566894531 142.24072265625 372.6722106933594 143.9481201171875 373.8355712890625 145.1825408935547 C 375.8019714355469 147.27151489257812 379.06903076171875 147.40249633789062 381.8971252441406 146.9461669921875 C 384.52227783203125 146.52365112304688 387.0731201171875 145.7263641357422 389.47161865234375 144.5787353515625 C 393.3668212890625 142.71670532226562 397.1183166503906 139.36756896972656 397.24462890625 135.05361938476562 C 397.31622314453125 132.72476196289062 396.2839050292969 130.45846557617188 394.8240966796875 128.637939453125 C 393.3642883300781 126.81741333007812 391.4868469238281 125.38165283203125 389.6131896972656 123.99069213867188 C 387.73956298828125 122.5997314453125 385.86871337890625 121.27310180664062 383.64349365234375 120.78582763671875 L 382.4681701660156 121.86370849609375" stroke-width="0.6000000238418579" fill="rgb(218, 166, 20)" opacity="1.0"/>
    <path d="M 402.891845703125 78.52781677246094 C 398.3799133300781 72.90391540527344 390.1632080078125 72.00248718261719 384.539306640625 76.514404296875 C 384.0577392578125 76.9007568359375 383.60418701171875 77.32080078125 383.1820373535156 77.77134704589844 C 381.5783386230469 79.48361206054688 380.42327880859375 81.7440185546875 380.51995849609375 84.0869140625 C 380.6014709472656 86.06681823730469 381.548828125 87.90357971191406 382.64154052734375 89.55506896972656 C 385.5726013183594 93.97164916992188 389.63275146484375 97.52287292480469 394.4002380371094 99.83984375 C 395.6614685058594 100.45016479492188 397.0093994140625 100.97947692871094 398.4134826660156 100.96781921386719 C 400.77069091796875 100.94961547851562 402.8868103027344 99.38259887695312 404.25372314453125 97.46006774902344 C 406.2850646972656 94.60722351074219 406.98638916015625 90.92523193359375 406.51776123046875 87.45376586914062 C 406.04913330078125 83.9822998046875 404.4817810058594 80.71688842773438 402.3528747558594 77.93547058105469 L 402.891845703125 78.52781677246094" stroke-width="0.6000000238418579" fill="rgb(143, 165, 67)" opacity="1.0"/>
    <path d="M 118.43218994140625 427.2147216796875 C 114.1751708984375 419.749755859375 101.19561767578125 420.6131591796875 97.41265869140625 428.267578125 C 93.62971496582031 435.92193603515625 100.20150756835938 446.4052734375 108.77882385253906 446.9732666015625 C 117.35614013671875 447.54132080078125 125.090576171875 438.9169921875 124.21632385253906 430.357421875 L 118.43218994140625 427.2147216796875" stroke-width="0.6000000238418579" fill="rgb(233, 92, 21)" opacity="1.0"/>
    <path d="M 450.842529296875 199.21075439453125 C 448.8184814453125 202.9683837890625 446.7904052734375 207.66690063476562 449.13092041015625 211.25335693359375 C 450.117919921875 212.6444091796875 451.51220703125 213.69488525390625 453.12152099609375 214.2598876953125 C 457.06573486328125 215.76495361328125 461.49481201171875 215.26495361328125 465.004150390625 212.91839599609375 C 467.97601318359375 210.92022705078125 469.91546630859375 207.7901611328125 471.7193603515625 204.72198486328125 C 472.72998046875 202.996826171875 473.7486572265625 201.1317138671875 473.63812255859375 199.14642333984375 C 473.4691162109375 196.50137329101562 471.341064453125 194.42138671875 469.1890869140625 192.8756103515625 C 466.04241943359375 190.60943603515625 462.5496826171875 188.8675537109375 458.846435546875 187.71746826171875 C 457.566162109375 187.32257080078125 456.1998291015625 186.9951171875 454.8956298828125 187.30010986328125 C 453.697509765625 187.64572143554688 452.6258544921875 188.33248901367188 451.811279296875 189.27667236328125 C 449.2291259765625 192.0445556640625 447.9910888671875 195.805908203125 448.4244384765625 199.56640625 L 450.842529296875 199.21075439453125" stroke-width="0.6000000238418579" fill="rgb(70, 150, 179)" opacity="1.0"/>
    <path d="M 416.6793212890625 136.23391723632812 C 416.68701171875 131.75808715820312 416.507568359375 126.79666137695312 413.406005859375 123.57366943359375 C 410.0721740722656 120.11343383789062 404.39263916015625 120.00386047363281 399.95916748046875 121.856201171875 C 398.2494812011719 122.56965637207031 396.589111328125 123.58506774902344 395.5795593261719 125.13815307617188 C 394.7491455078125 126.41455078125 394.4229431152344 127.9464111328125 394.1955261230469 129.4517364501953 C 393.47265625 134.1978759765625 393.6693115234375 139.4316864013672 396.5480651855469 143.2724609375 C 399.4520568847656 147.141357421875 404.9739074707031 148.82589721679688 409.5377197265625 147.2089080810547 C 414.10150146484375 145.59193420410156 417.3724365234375 140.84365844726562 417.2174072265625 136.0011444091797 L 416.6793212890625 136.23391723632812" stroke-width="0.6000000238418579" fill="rgb(140, 28, 33)" opacity="1.0"/>
    <path d="M 401.3876647949219 69.07431030273438 C 402.7200012207031 72.93923950195312 404.14898681640625 76.94622802734375 406.9780578613281 79.90145874023438 C 409.8070983886719 82.85661315917969 414.4954833984375 84.46511840820312 418.11688232421875 82.56341552734375 C 422.58184814453125 80.20599365234375 423.17529296875 73.46456909179688 420.2493896484375 69.33840942382812 C 417.323486328125 65.21224975585938 412.0802001953125 63.361328125 407.0544738769531 62.846893310546875 C 405.51470947265625 62.531768798828125 403.91278076171875 62.8052978515625 402.5648498535156 63.613525390625 C 401.33038330078125 64.54461669921875 401.03717041015625 66.77679443359375 402.3877868652344 67.54522705078125 L 401.3876647949219 69.07431030273438" stroke-width="0.6000000238418579" fill="rgb(159, 159, 159)" opacity="1.0"/>
    <path d="M 439.80267333984375 236.09747314453125 C 437.0777587890625 239.7059326171875 435.52972412109375 244.32659912109375 436.17669677734375 248.7994384765625 C 436.82366943359375 253.27227783203125 439.874267578125 257.4716796875 444.1746826171875 258.92236328125 C 447.21636962890625 259.9441833496094 450.623779296875 259.5435791015625 453.565185546875 258.2541809082031 C 456.506591796875 256.96478271484375 459.02178955078125 254.84866333007812 461.181884765625 252.47134399414062 C 462.121337890625 251.43621826171875 463.03179931640625 250.282470703125 463.27044677734375 248.9088134765625 C 463.5447998046875 247.33404541015625 462.88824462890625 245.76156616210938 462.17578125 244.32522583007812 C 460.1644287109375 240.2701416015625 457.45501708984375 236.36880493164062 453.5238037109375 234.12380981445312 C 449.592529296875 231.87881469726562 444.23516845703125 231.69024658203125 440.78485107421875 234.603759765625 L 439.80267333984375 236.09747314453125" stroke-width="0.6000000238418579" fill="rgb(159, 159, 159)" opacity="1.0"/>
    <path d="M 406.54644775390625 263.8537292480469 C 404.32684326171875 260.04742431640625 401.69476318359375 255.9127197265625 397.4534912109375 254.7506103515625 C 393.3304748535156 253.6146240234375 389.06219482421875 255.65652465820312 385.3068542480469 257.70684814453125 C 383.78253173828125 258.5419921875 382.201171875 259.44000244140625 381.2536926269531 260.8960266113281 C 379.6498107910156 263.357666015625 380.3087158203125 266.6407470703125 381.44610595703125 269.3450622558594 C 382.50079345703125 271.8555603027344 383.9105224609375 274.20159912109375 385.63214111328125 276.31134033203125 C 388.42626953125 279.738037109375 392.6656799316406 282.6624755859375 396.989501953125 281.7459716796875 C 399.32452392578125 281.2546081542969 401.33056640625 279.6797180175781 402.7897033691406 277.7870788574219 C 404.24884033203125 275.8944396972656 405.2241516113281 273.67913818359375 406.1557922363281 271.4783935546875 C 407.08746337890625 269.2776794433594 407.95574951171875 267.0953063964844 407.9031066894531 264.7630310058594 L 406.54644775390625 263.8537292480469" stroke-width="0.6000000238418579" fill="rgb(218, 166, 20)" opacity="1.0"/>
    <path d="M 414.36083984375 88.30747985839844 C 411.05810546875 94.7816162109375 413.6290283203125 102.70733642578125 420.1031494140625 106.01010131835938 C 420.65753173828125 106.29292297363281 421.23126220703125 106.53604125976562 421.820068359375 106.7376708984375 C 424.0574951171875 107.50337219238281 426.6131591796875 107.6298828125 428.7266845703125 106.57170104980469 C 430.51287841796875 105.67762756347656 431.809326171875 104.04690551757812 432.875244140625 102.35920715332031 C 435.7222900390625 97.83772277832031 437.3067626953125 92.63638305664062 437.464111328125 87.29551696777344 C 437.5032958984375 85.88369750976562 437.43212890625 84.42568969726562 436.8404541015625 83.13987731933594 C 435.8485107421875 80.98068237304688 433.5325927734375 79.68385314941406 431.199951171875 79.22280883789062 C 427.7371826171875 78.53590393066406 424.0625 79.41461181640625 421.0654296875 81.2816162109375 C 418.068359375 83.14862060546875 415.7152099609375 85.94032287597656 414.03936767578125 89.0479736328125 L 414.36083984375 88.30747985839844" stroke-width="0.6000000238418579" fill="rgb(143, 165, 67)" opacity="1.0"/>
    <path d="M 441.1312255859375 128.45147705078125 C 438.1522216796875 136.441650390625 447.064453125 145.77952575683594 455.3009033203125 143.79324340820312 C 463.537353515625 141.80691528320312 467.3433837890625 130.1339569091797 462.3212890625 123.23907470703125 C 457.299072265625 116.34419250488281 445.810791015625 115.93736267089844 439.8466796875 122.04684448242188 L 441.1312255859375 128.45147705078125" stroke-width="0.6000000238418579" fill="rgb(233, 92, 21)" opacity="1.0"/>
    <path d="M 446.2996826171875 94.47993469238281 C 445.1329345703125 98.53158569335938 444.159423828125 103.49240112304688 447.17041015625 106.46438598632812 C 448.4146728515625 107.6004638671875 449.9808349609375 108.32247924804688 451.65283203125 108.53073120117188 C 455.77587890625 109.15737915039062 459.9468994140625 107.74673461914062 462.8431396484375 104.74612426757812 C 465.29351806640625 102.19448852539062 466.510009765625 98.76641845703125 467.6087646484375 95.42648315429688 C 468.222900390625 93.54930114746094 468.8155517578125 91.53530883789062 468.29290771484375 89.64187622070312 C 467.5755615234375 87.123779296875 465.08538818359375 85.56161499023438 462.6839599609375 84.52023315429688 C 459.1715087890625 82.99176025390625 455.4346923828125 82.04190063476562 451.61865234375 81.70748901367188 C 450.2999267578125 81.594482421875 448.9122314453125 81.56463623046875 447.7171630859375 82.13232421875 C 446.6329345703125 82.71697998046875 445.7421875 83.60452270507812 445.1536865234375 84.68667602539062 C 443.24072265625 87.8997802734375 442.83355712890625 91.79034423828125 444.03985595703125 95.32989501953125 L 446.2996826171875 94.47993469238281" stroke-width="0.6000000238418579" fill="rgb(70, 150, 179)" opacity="1.0"/>
    <path d="M 320.4393615722656 370.4255676269531 C 316.034423828125 370.7088928222656 311.1637878417969 371.2078552246094 308.1937255859375 374.4693908691406 C 305.0053405761719 377.97491455078125 305.2666015625 383.57098388671875 307.37750244140625 387.8133850097656 C 308.190673828125 389.4494323730469 309.29779052734375 391.017333984375 310.8916931152344 391.9098815917969 C 312.2016906738281 392.64410400390625 313.7303466796875 392.86553955078125 315.2264099121094 392.99151611328125 C 319.94384765625 393.3944396972656 325.0813903808594 392.8608093261719 328.673828125 389.77838134765625 C 332.2923278808594 386.6692810058594 333.5911560058594 381.12603759765625 331.7033996582031 376.7401123046875 C 329.8156433105469 372.35418701171875 324.9305419921875 369.4440002441406 320.17535400390625 369.9112548828125 L 320.4393615722656 370.4255676269531" stroke-width="0.6000000238418579" fill="rgb(140, 28, 33)" opacity="1.0"/>
    <path d="M 307.1600646972656 398.3403015136719 C 302.8908386230469 399.4908447265625 298.461181640625 400.735107421875 295.0623474121094 403.5682067871094 C 291.6636047363281 406.4012451171875 289.5798034667969 411.340576171875 291.36279296875 415.3892822265625 C 293.5748291015625 420.382080078125 300.80474853515625 421.5230712890625 305.4742126464844 418.6724853515625 C 310.1436462402344 415.8218994140625 312.53021240234375 410.3018493652344 313.4585876464844 404.9173278808594 C 313.9129638671875 403.279296875 313.7367858886719 401.530517578125 312.96484375 400.0160827636719 C 312.0518798828125 398.61492919921875 309.6651306152344 398.1327819824219 308.73565673828125 399.5329895019531 L 307.1600646972656 398.3403015136719" stroke-width="0.6000000238418579" fill="rgb(159, 159, 159)" opacity="1.0"/>
    <path d="M 322.234130859375 416.2921142578125 C 317.7027587890625 418.211181640625 313.7301940917969 421.72467041015625 311.9070129394531 426.292724609375 C 310.0838317871094 430.86077880859375 310.6750793457031 436.478515625 313.9395446777344 440.1851806640625 C 316.2508850097656 442.8028564453125 319.6806945800781 444.27874755859375 323.15460205078125 444.663330078125 C 326.6285095214844 445.0478515625 330.1504821777344 444.42138671875 333.4797668457031 443.35546875 C 334.9283142089844 442.89080810546875 336.41412353515625 442.2984619140625 337.38629150390625 441.13348388671875 C 338.50146484375 439.79833984375 338.7379455566406 437.958984375 338.84771728515625 436.217529296875 C 339.1575927734375 431.3011474609375 338.72576904296875 426.14990234375 336.2413330078125 421.8953857421875 C 333.75689697265625 417.64080810546875 328.8095397949219 414.54888916015625 323.97247314453125 415.4183349609375 L 322.234130859375 416.2921142578125" stroke-width="0.6000000238418579" fill="rgb(159, 159, 159)" opacity="1.0"/>
    <path d="M 264.3904113769531 416.8092041015625 C 259.7610168457031 418.42718505859375 254.68536376953125 420.42620849609375 252.51626586914062 424.813720703125 C 250.40081787109375 429.07763671875 251.72671508789062 434.174072265625 253.1705322265625 438.7119140625 C 253.75982666015625 440.554443359375 254.4056396484375 442.47265625 255.79556274414062 443.816650390625 C 258.1450500488281 446.09100341796875 261.871826171875 446.0672607421875 265.0677185058594 445.39801025390625 C 268.0343017578125 444.7779541015625 270.896484375 443.7352294921875 273.566650390625 442.30157470703125 C 277.9031066894531 439.975341796875 281.9972839355469 435.9635009765625 281.91278076171875 431.0450439453125 C 281.87103271484375 428.3896484375 280.5757141113281 425.8638916015625 278.8172607421875 423.8682861328125 C 277.05877685546875 421.87274169921875 274.84515380859375 420.33740234375 272.6382141113281 418.852783203125 C 270.4313049316406 417.3681640625 268.23095703125 415.95672607421875 265.67156982421875 415.51971435546875 L 264.3904113769531 416.8092041015625" stroke-width="0.6000000238418579" fill="rgb(218, 166, 20)" opacity="1.0"/>
    <path d="M 223.3787841796875 413.46368408203125 C 215.62835693359375 410.4582824707031 206.90899658203125 414.30487060546875 203.903564453125 422.0552978515625 C 203.646240234375 422.718994140625 203.436279296875 423.4000244140625 203.27532958984375 424.09344482421875 C 202.66415405273438 426.728271484375 202.81729125976562 429.65087890625 204.26702880859375 431.9327392578125 C 205.49197387695312 433.86126708984375 207.4981689453125 435.14678955078125 209.54241943359375 436.1634521484375 C 215.01806640625 438.8773193359375 221.12054443359375 440.0755615234375 227.21588134765625 439.63372802734375 C 228.82684326171875 439.51422119140625 230.4775390625 439.2637939453125 231.871826171875 438.441162109375 C 234.21331787109375 437.0614013671875 235.419677734375 434.27557373046875 235.673095703125 431.5677490234375 C 236.05215454101562 427.54779052734375 234.62518310546875 423.46881103515625 232.15243530273438 420.275634765625 C 229.6796875 417.08251953125 226.22964477539062 414.7296142578125 222.49884033203125 413.1839599609375 L 223.3787841796875 413.46368408203125" stroke-width="0.6000000238418579" fill="rgb(143, 165, 67)" opacity="1.0"/>
    <path d="M 285.4568786621094 360.18438720703125 C 289.5335998535156 368.9095458984375 304.110107421875 369.1245422363281 309.03118896484375 360.9184265136719 C 313.9522399902344 352.7122802734375 307.5642395019531 340.40533447265625 298.0350646972656 338.9914245605469 C 288.50592041015625 337.5775451660156 279.0829162597656 346.5080261230469 279.2816467285156 356.1484069824219 L 285.4568786621094 360.18438720703125" stroke-width="0.6000000238418579" fill="rgb(233, 92, 21)" opacity="1.0"/>
    <path d="M 333.1173095703125 359.9588317871094 C 333.3111572265625 364.6768798828125 334.03204345703125 370.2926330566406 338.28302001953125 372.38525390625 C 340.00714111328125 373.15216064453125 341.9267883300781 373.3652038574219 343.777099609375 372.9949035644531 C 348.3799133300781 372.201904296875 352.3128356933594 369.2271423339844 354.3287048339844 365.013916015625 C 356.029541015625 361.4355773925781 356.1092529296875 357.3625183105469 356.0949401855469 353.4247741699219 C 356.0832824707031 351.21282958984375 356.00048828125 348.8630676269531 354.775146484375 347.03607177734375 C 353.1219177246094 344.61419677734375 349.92315673828125 343.8353576660156 347.00299072265625 343.5784912109375 C 342.72979736328125 343.19720458984375 338.423095703125 343.51007080078125 334.2498779296875 344.5049743652344 C 332.8086242675781 344.85150146484375 331.32354736328125 345.310791015625 330.2544860839844 346.3368835449219 C 329.30926513671875 347.3417663574219 328.6768798828125 348.6000061035156 328.43438720703125 349.9581298828125 C 327.5386047363281 354.0492248535156 328.48260498046875 358.32733154296875 331.0168151855469 361.6615905761719 L 333.1173095703125 359.9588317871094" stroke-width="0.6000000238418579" fill="rgb(70, 150, 179)" opacity="1.0"/>
    <path d="M 297.1556396484375 421.2652587890625 C 292.0588073730469 421.6373291015625 286.4249572753906 422.2637939453125 283.0191345214844 426.0694580078125 C 279.3629455566406 430.1597900390625 279.7214050292969 436.6358642578125 282.2076721191406 441.5262451171875 C 283.1654968261719 443.41217041015625 284.4629211425781 445.21630859375 286.317138671875 446.233642578125 C 287.8410949707031 447.070556640625 289.6130676269531 447.3116455078125 291.3463439941406 447.4425048828125 C 296.81182861328125 447.8616943359375 302.75433349609375 447.1925048828125 306.88250732421875 443.5880126953125 C 311.04058837890625 439.95233154296875 312.4888000488281 433.5218505859375 310.2594299316406 428.4630126953125 C 308.030029296875 423.40423583984375 302.3453369140625 420.083984375 296.8448181152344 420.6724853515625 L 297.1556396484375 421.2652587890625" stroke-width="0.6000000238418579" fill="rgb(140, 28, 33)" opacity="1.0"/>
    <path d="M 331.9424133300781 391.0572814941406 C 327.5537414550781 391.443115234375 322.9913024902344 391.8929748535156 319.16375732421875 394.08099365234375 C 315.3363037109375 396.26898193359375 312.4323425292969 400.75225830078125 313.4770202636719 405.03466796875 C 314.7783508300781 410.3179626464844 321.6729736328125 412.695556640625 326.7501525878906 410.71148681640625 C 331.82733154296875 408.7274169921875 335.12939453125 403.72711181640625 336.97723388671875 398.6059875488281 C 337.70806884765625 397.0780334472656 337.8395690917969 395.3316650390625 337.34576416015625 393.7115173339844 C 336.69390869140625 392.1780090332031 334.43621826171875 391.28961181640625 333.2806396484375 392.5015869140625 L 331.9424133300781 391.0572814941406" stroke-width="0.6000000238418579" fill="rgb(159, 159, 159)" opacity="1.0"/>
    <path d="M 350.6748352050781 415.35821533203125 C 345.8148498535156 416.57958984375 341.2674560546875 419.49261474609375 338.71759033203125 423.803466796875 C 336.167724609375 428.1142578125 335.88287353515625 433.859375 338.5870361328125 438.1002197265625 C 340.50274658203125 441.09613037109375 343.7226257324219 443.1182861328125 347.1578369140625 444.04925537109375 C 350.5930480957031 444.980224609375 354.23492431640625 444.90142822265625 357.7517395019531 444.350341796875 C 359.28204345703125 444.109619140625 360.86981201171875 443.746337890625 362.03045654296875 442.72637939453125 C 363.36163330078125 441.5576171875 363.88763427734375 439.743896484375 364.27081298828125 438.00885009765625 C 365.3525390625 433.1104736328125 365.72479248046875 427.8597412109375 363.8912658691406 423.1898193359375 C 362.0577392578125 418.519775390625 357.56396484375 414.6339111328125 352.5607604980469 414.7513427734375 L 350.6748352050781 415.35821533203125" stroke-width="0.6000000238418579" fill="rgb(159, 159, 159)" opacity="1.0"/>
    <path d="M 254.93753051757812 367.1089782714844 C 256.3857116699219 362.4039306640625 257.7915954589844 357.1112976074219 255.53656005859375 352.74609375 C 253.34954833984375 348.4978332519531 248.44085693359375 346.5354919433594 243.91348266601562 345.0010681152344 C 242.07339477539062 344.38043212890625 240.13848876953125 343.760498046875 238.2247314453125 344.0838623046875 C 234.98773193359375 344.6288757324219 232.78829956054688 347.6553039550781 231.4266357421875 350.6368713378906 C 230.16171264648438 353.40380859375 229.3006591796875 356.3380432128906 228.86981201171875 359.3497314453125 C 228.16845703125 364.2396545410156 228.97378540039062 369.93719482421875 232.99960327148438 372.7969970703125 C 235.17071533203125 374.34405517578125 237.98336791992188 374.80072021484375 240.6431884765625 374.5674133300781 C 243.30303955078125 374.3340759277344 245.86184692382812 373.4588928222656 248.3756103515625 372.5588684082031 C 250.889404296875 371.65887451171875 253.34017944335938 370.7206726074219 255.217041015625 368.91217041015625 L 254.93753051757812 367.1089782714844" stroke-width="0.6000000238418579" fill="rgb(218, 166, 20)" opacity="1.0"/>
    <path d="M 255.00018310546875 388.23486328125 C 251.25668334960938 380.8293762207031 242.2186279296875 377.8607177734375 234.81314086914062 381.6042175292969 C 234.17901611328125 381.9247741699219 233.56842041015625 382.2899169921875 232.9859619140625 382.6968688964844 C 230.77301025390625 384.2436828613281 228.9349365234375 386.5143737792969 228.48675537109375 389.175537109375 C 228.10781860351562 391.42437744140625 228.73785400390625 393.7178955078125 229.57565307617188 395.83734130859375 C 231.8260498046875 401.5074768066406 235.55364990234375 406.4716491699219 240.37115478515625 410.21417236328125 C 241.646240234375 411.2012634277344 243.03823852539062 412.1177978515625 244.6220703125 412.4384765625 C 247.28067016601562 412.9783935546875 250.03610229492188 411.717041015625 252.03240966796875 409.8771667480469 C 254.99807739257812 407.147705078125 256.6632080078125 403.16839599609375 256.96087646484375 399.14794921875 C 257.258544921875 395.1275329589844 256.2700500488281 391.077880859375 254.53411865234375 387.4397277832031 L 255.00018310546875 388.23486328125" stroke-width="0.6000000238418579" fill="rgb(143, 165, 67)" opacity="1.0"/>
    <path d="M 206.18411254882812 372.1288757324219 C 201.31024169921875 380.8965759277344 210.0289306640625 393.3287658691406 219.95870971679688 392.47113037109375 C 229.88848876953125 391.6134033203125 236.37374877929688 378.708251953125 231.74859619140625 369.8034362792969 C 227.12344360351562 360.8985900878906 213.83358764648438 358.3994445800781 205.81954956054688 364.453369140625 L 206.18411254882812 372.1288757324219" stroke-width="0.6000000238418579" fill="rgb(233, 92, 21)" opacity="1.0"/>
    <path d="M 261.3660888671875 366.1851501464844 C 262.3345642089844 370.8902282714844 263.97943115234375 376.4101257324219 268.59063720703125 377.8138427734375 C 270.4474182128906 378.301025390625 272.40966796875 378.2000732421875 274.20660400390625 377.5247802734375 C 278.6977233886719 375.9736328125 282.1584167480469 372.3419189453125 283.4912414550781 367.78125 C 284.6119689941406 363.90966796875 284.0238952636719 359.8072509765625 283.3636474609375 355.8561706542969 C 282.9891357421875 353.6372985839844 282.5205993652344 351.291748046875 280.9906921386719 349.658447265625 C 278.9336242675781 347.4980773925781 275.5943603515625 347.2408142089844 272.62042236328125 347.4618835449219 C 268.26763916015625 347.77996826171875 263.99505615234375 348.8005065917969 259.9683837890625 350.48388671875 C 258.5782165527344 351.0682067871094 257.1625671386719 351.77288818359375 256.2575378417969 352.9784240722656 C 255.473388671875 354.1423645019531 255.04483032226562 355.5093688964844 255.024169921875 356.91265869140625 C 254.79583740234375 361.1669921875 256.4452819824219 365.3073425292969 259.5364990234375 368.2392272949219 L 261.3660888671875 366.1851501464844" stroke-width="0.6000000238418579" fill="rgb(70, 150, 179)" opacity="1.0"/>
    <path d="M 329.1921081542969 362.28143310546875 C 331.2590026855469 357.78692626953125 333.36126708984375 352.7182922363281 331.72711181640625 348.0523681640625 C 329.9686584472656 343.0411682128906 324.31134033203125 340.3180847167969 319.0036315917969 340.1399230957031 C 316.9572448730469 340.0703430175781 314.82147216796875 340.326904296875 313.0923767089844 341.4232177734375 C 311.67059326171875 342.32391357421875 310.63800048828125 343.71331787109375 309.7169189453125 345.1214904785156 C 306.8069152832031 349.5586242675781 304.5966491699219 354.9089050292969 305.72265625 360.0931396484375 C 306.86114501953125 365.3172912597656 311.6353759765625 369.5506286621094 316.96575927734375 370.0252685546875 C 322.296142578125 370.49993896484375 327.767822265625 367.23291015625 329.8398742675781 362.2950439453125 L 329.1921081542969 362.28143310546875" stroke-width="0.6000000238418579" fill="rgb(140, 28, 33)" opacity="1.0"/>
    <path d="M 351.77972412109375 396.4439697265625 C 347.36541748046875 396.5350341796875 342.7730712890625 396.678466796875 338.798828125 398.6092529296875 C 334.8246765136719 400.5400695800781 331.61981201171875 404.8280029296875 332.3768005371094 409.1802978515625 C 333.3232421875 414.5506591796875 340.0577087402344 417.39117431640625 345.267822265625 415.7481689453125 C 350.4779357910156 414.105224609375 354.1155700683594 409.3270263671875 356.3072509765625 404.330322265625 C 357.1406555175781 402.8515319824219 357.3894348144531 401.1141357421875 357.00445556640625 399.4609375 C 356.45562744140625 397.88372802734375 354.25775146484375 396.8437805175781 353.0208740234375 397.9780578613281 L 351.77972412109375 396.4439697265625" stroke-width="0.6000000238418579" fill="rgb(159, 159, 159)" opacity="1.0"/>
    <path d="M 184.09765625 411.5644226074219 C 178.99432373046875 411.8628234863281 173.88201904296875 413.91619873046875 170.50546264648438 417.7508544921875 C 167.12890625 421.5855712890625 165.74920654296875 427.28912353515625 167.651611328125 432.05438232421875 C 169.00091552734375 435.4217529296875 171.84280395507812 438.0616455078125 175.1082763671875 439.64898681640625 C 178.37374877929688 441.236328125 182.0386962890625 441.8509521484375 185.66824340820312 441.968505859375 C 187.247802734375 442.0186767578125 188.90826416015625 441.95703125 190.26571655273438 441.1558837890625 C 191.82244873046875 440.23809814453125 192.695068359375 438.5205078125 193.4095458984375 436.85467529296875 C 195.4266357421875 432.1514892578125 196.79977416992188 426.9600830078125 195.8516845703125 421.9305419921875 C 194.903564453125 416.9010009765625 191.13995361328125 412.15069580078125 186.10333251953125 411.31536865234375 L 184.09765625 411.5644226074219" stroke-width="0.6000000238418579" fill="rgb(159, 159, 159)" opacity="1.0"/>
    <path d="M 358.74932861328125 369.067138671875 C 354.0825500488281 370.3495788574219 348.95074462890625 371.9772033691406 346.5205383300781 376.1517028808594 C 344.15142822265625 380.20806884765625 345.1148986816406 385.3151550292969 346.23199462890625 389.8800964355469 C 346.68853759765625 391.7338562011719 347.1956787109375 393.6659240722656 348.47406005859375 395.08245849609375 C 350.6347351074219 397.4795837402344 354.3058166503906 397.706298828125 357.49749755859375 397.2618408203125 C 360.4600830078125 396.8504638671875 363.3482360839844 396.01580810546875 366.07354736328125 394.783447265625 C 370.49945068359375 392.7840270996094 374.7999267578125 389.108642578125 375.0468444824219 384.2601013183594 C 375.1839599609375 381.6427307128906 374.07806396484375 379.0688781738281 372.4805603027344 376.9859924316406 C 370.883056640625 374.903076171875 368.8065185546875 373.24273681640625 366.733154296875 371.63287353515625 C 364.6598205566406 370.02301025390625 362.5880432128906 368.4855651855469 360.09735107421875 367.88348388671875 L 358.74932861328125 369.067138671875" stroke-width="0.6000000238418579" fill="rgb(218, 166, 20)" opacity="1.0"/>
    <path d="M 376.35430908203125 380.64373779296875 C 372.4225769042969 387.919921875 375.1338195800781 397.0057067871094 382.4100036621094 400.93743896484375 C 383.0330505371094 401.27410888671875 383.6792297363281 401.566162109375 384.3436279296875 401.8114013671875 C 386.86834716796875 402.7427673339844 389.7723083496094 402.95550537109375 392.20526123046875 401.80865478515625 C 394.2613830566406 400.8396301269531 395.7801513671875 399.0194091796875 397.03826904296875 397.1281433105469 C 400.3989562988281 392.0610656738281 402.34161376953125 386.1865539550781 402.6644287109375 380.1148681640625 C 402.7470703125 378.5097961425781 402.7054138183594 376.8492126464844 402.0669860839844 375.3704833984375 C 400.9966735839844 372.8874206542969 398.39697265625 371.3497314453125 395.755615234375 370.7623596191406 C 391.83477783203125 369.8876647949219 387.6307373046875 370.7882995605469 384.1708984375 372.83154296875 C 380.7110290527344 374.874755859375 377.9588623046875 377.9872741699219 375.9686279296875 381.47747802734375 L 376.35430908203125 380.64373779296875" stroke-width="0.6000000238418579" fill="rgb(143, 165, 67)" opacity="1.0"/>
    <path d="M 367.97601318359375 360.3664855957031 C 372.7652587890625 369.0284729003906 387.7267150878906 368.23138427734375 392.1998596191406 359.4734802246094 C 396.6729431152344 350.7155456542969 389.2637023925781 338.54217529296875 379.3940124511719 337.7575988769531 C 369.5242919921875 336.9730529785156 360.4855651855469 346.7879943847656 361.3623046875 356.6591491699219 L 367.97601318359375 360.3664855957031" stroke-width="0.6000000238418579" fill="rgb(233, 92, 21)" opacity="1.0"/>
    <path d="M 395.6405944824219 361.3452453613281 C 396.6768798828125 366.05792236328125 398.4035339355469 371.5798645019531 403.053955078125 372.9274597167969 C 404.92547607421875 373.3917236328125 406.8949890136719 373.2637939453125 408.6907043457031 372.561279296875 C 413.18060302734375 370.94268798828125 416.607421875 367.24822998046875 417.884521484375 362.6495361328125 C 418.9578857421875 358.74578857421875 418.3118896484375 354.63330078125 417.5953369140625 350.67376708984375 C 417.189208984375 348.4501953125 416.6868896484375 346.1006774902344 415.12823486328125 344.4808349609375 C 413.032958984375 342.3387756347656 409.675537109375 342.12548828125 406.6914978027344 342.3876953125 C 402.3238830566406 342.7659606933594 398.04632568359375 343.84869384765625 394.0246887207031 345.5938415527344 C 392.63629150390625 346.1994934082031 391.22393798828125 346.9264221191406 390.3312072753906 348.14947509765625 C 389.559326171875 349.3291320800781 389.1473693847656 350.7079162597656 389.1455383300781 352.11767578125 C 388.97369384765625 356.3937683105469 390.6863098144531 360.530029296875 393.8306884765625 363.4330749511719 L 395.6405944824219 361.3452453613281" stroke-width="0.6000000238418579" fill="rgb(70, 150, 179)" opacity="1.0"/>
    <path d="M 388.6473693847656 415.6617431640625 C 387.1200256347656 420.5845947265625 385.6337890625 426.1053466796875 387.9532165527344 430.70465087890625 C 390.4477233886719 435.64385986328125 396.66064453125 437.69183349609375 402.1681213378906 437.157958984375 C 404.2916564941406 436.9530029296875 406.46343994140625 436.3990478515625 408.1014709472656 435.032470703125 C 409.44842529296875 433.90966796875 410.3272705078125 432.3345947265625 411.0883483886719 430.7552490234375 C 413.4945068359375 425.777587890625 415.05419921875 419.9512939453125 413.18963623046875 414.74774169921875 C 411.30682373046875 409.5046691894531 405.8019104003906 405.77703857421875 400.23089599609375 406.0077209472656 C 394.6598815917969 406.2384033203125 389.4490051269531 410.3536682128906 387.976318359375 415.73529052734375 L 388.6473693847656 415.6617431640625" stroke-width="0.6000000238418579" fill="rgb(140, 28, 33)" opacity="1.0"/>
    <path d="M 411.47589111328125 388.4202575683594 C 411.22088623046875 392.80804443359375 411.0038757324219 397.3765869140625 412.6090087890625 401.4715881347656 C 414.214111328125 405.5665588378906 418.2186279296875 409.08245849609375 422.59698486328125 408.6717834472656 C 428.00042724609375 408.15277099609375 431.34619140625 401.6918640136719 430.1234130859375 396.3929443359375 C 428.900634765625 391.093994140625 424.4434814453125 387.1101989746094 419.6563720703125 384.5443115234375 C 418.2540283203125 383.6015625 416.54937744140625 383.2187194824219 414.878662109375 383.4714050292969 C 413.2705078125 383.89263916015625 412.0665283203125 385.9924011230469 413.09539794921875 387.30859375 L 411.47589111328125 388.4202575683594" stroke-width="0.6000000238418579" fill="rgb(159, 159, 159)" opacity="1.0"/>
    <path d="M 437.33013916015625 370.5972900390625 C 437.84375 375.5731201171875 440.0733642578125 380.4813537597656 443.9688720703125 383.6153564453125 C 447.86431884765625 386.7493591308594 453.4998779296875 387.8500671386719 458.075439453125 385.7831115722656 C 461.30859375 384.317626953125 463.765625 381.42474365234375 465.17529296875 378.1635437011719 C 466.58502197265625 374.9023132324219 467.0264892578125 371.29290771484375 466.9835205078125 367.73968505859375 C 466.9638671875 366.19342041015625 466.8314208984375 364.5729064941406 465.98919677734375 363.28076171875 C 465.0242919921875 361.79888916015625 463.307373046875 361.0205383300781 461.6478271484375 360.39453125 C 456.96246337890625 358.62725830078125 451.827880859375 357.5107116699219 446.95245361328125 358.6562805175781 C 442.0770263671875 359.8018493652344 437.59698486328125 363.68756103515625 436.99945068359375 368.6474609375 L 437.33013916015625 370.5972900390625" stroke-width="0.6000000238418579" fill="rgb(159, 159, 159)" opacity="1.0"/>
    <path d="M 424.233642578125 410.36407470703125 C 419.7974853515625 412.4134521484375 414.95526123046875 414.8836669921875 413.22528076171875 419.4437255859375 C 411.53662109375 423.8759765625 413.3411865234375 428.803466796875 415.20904541015625 433.16552734375 C 415.970458984375 434.93646240234375 416.79522705078125 436.7769775390625 418.3028564453125 437.9764404296875 C 420.85162353515625 440.006591796875 424.545654296875 439.6251220703125 427.65118408203125 438.6544189453125 C 430.53399658203125 437.7545166015625 433.272705078125 436.44537353515625 435.7833251953125 434.7669677734375 C 439.8609619140625 432.04327392578125 443.536376953125 427.6710205078125 442.980224609375 422.80078125 C 442.68377685546875 420.17108154296875 441.156494140625 417.7904052734375 439.220703125 415.97998046875 C 437.284912109375 414.1695556640625 434.94189453125 412.859375 432.61041259765625 411.5988464355469 C 430.2789306640625 410.3383483886719 427.96099853515625 409.1497497558594 425.3804931640625 408.96209716796875 L 424.233642578125 410.36407470703125" stroke-width="0.6000000238418579" fill="rgb(218, 166, 20)" opacity="1.0"/>
    <path d="M 139.56016540527344 223.85076904296875 C 135.2686767578125 230.97369384765625 137.56399536132812 240.2269287109375 144.68690490722656 244.51840209960938 C 145.29684448242188 244.88589477539062 145.9320831298828 245.20962524414062 146.5878448486328 245.48724365234375 C 149.0797576904297 246.54153442382812 151.98641967773438 246.8919677734375 154.48402404785156 245.85458374023438 C 156.59478759765625 244.9781494140625 158.20587158203125 243.22146606445312 159.55853271484375 241.38116455078125 C 163.17251586914062 236.45013427734375 165.40023803710938 230.641357421875 166.01034545898438 224.55828857421875 C 166.16891479492188 222.95010375976562 166.20526123046875 221.2802734375 165.6336669921875 219.76504516601562 C 164.675537109375 217.220703125 162.13687133789062 215.55389404296875 159.5115966796875 214.839599609375 C 155.6147918701172 213.77645874023438 151.34996032714844 214.48312377929688 147.7787628173828 216.37237548828125 C 144.2075653076172 218.26165771484375 141.29681396484375 221.25823974609375 139.13352966308594 224.67001342773438 L 139.56016540527344 223.85076904296875" stroke-width="0.6000000238418579" fill="rgb(143, 165, 67)" opacity="1.0"/>
    <path d="M 170.63232421875 261.750732421875 C 174.72509765625 270.9442138671875 189.95001220703125 271.4468994140625 195.2479248046875 262.96728515625 C 200.54580688476562 254.4876708984375 194.10659790039062 241.5079345703125 184.17782592773438 239.8489990234375 C 174.24908447265625 238.19003295898438 164.23388671875 247.340576171875 164.25762939453125 257.4162902832031 L 170.63232421875 261.750732421875" stroke-width="0.6000000238418579" fill="rgb(233, 92, 21)" opacity="1.0"/>
    <path d="M 148.73776245117188 317.81561279296875 C 145.25355529785156 321.2101135253906 141.44363403320312 325.6263122558594 142.76368713378906 330.3254089355469 C 143.3617706298828 332.17498779296875 144.51907348632812 333.7934265136719 146.0759735107422 334.9573974609375 C 149.85060119628906 337.9410400390625 154.8372344970703 338.9100646972656 159.45455932617188 337.5571594238281 C 163.36837768554688 336.3995056152344 166.54623413085938 333.6584777832031 169.55563354492188 330.9384460449219 C 171.24365234375 329.40777587890625 172.98834228515625 327.72772216796875 173.54620361328125 325.53125 C 174.26577758789062 322.59747314453125 172.66229248046875 319.6090087890625 170.85028076171875 317.1932678222656 C 168.20281982421875 313.6545104980469 165.00003051757812 310.56756591796875 161.36614990234375 308.05224609375 C 160.10888671875 307.185546875 158.73507690429688 306.36285400390625 157.21282958984375 306.24908447265625 C 155.7920684814453 306.2156677246094 154.39224243164062 306.5964050292969 153.18408203125 307.3448486328125 C 149.4309844970703 309.4725341796875 146.8001708984375 313.1395263671875 145.98709106445312 317.3764953613281 L 148.73776245117188 317.81561279296875" stroke-width="0.6000000238418579" fill="rgb(70, 150, 179)" opacity="1.0"/>
    <path d="M 125.37152099609375 307.5796813964844 C 123.97280883789062 302.573974609375 122.21231079101562 297.0842590332031 117.73185729980469 294.4565734863281 C 112.91717529296875 291.63677978515625 106.53384399414062 293.3000183105469 102.1602783203125 296.76458740234375 C 100.47344970703125 298.09967041015625 98.9366455078125 299.7568054199219 98.29641723632812 301.8103332519531 C 97.76947021484375 303.4982604980469 97.88645935058594 305.313232421875 98.10552978515625 307.06744384765625 C 98.78973388671875 312.6001892089844 100.6551513671875 318.38897705078125 105.08074951171875 321.77728271484375 C 109.54342651367188 325.1890563964844 116.24566650390625 325.33599853515625 120.83891296386719 322.093505859375 C 125.43215942382812 318.8510437011719 127.59562683105469 312.5147705078125 125.89974975585938 307.15032958984375 L 125.37152099609375 307.5796813964844" stroke-width="0.6000000238418579" fill="rgb(140, 28, 33)" opacity="1.0"/>
    <path d="M 140.73399353027344 278.9706115722656 C 136.88259887695312 281.0664367675781 132.8981170654297 283.28973388671875 130.2748260498047 286.80712890625 C 127.651611328125 290.324462890625 126.7830810546875 295.56927490234375 129.43788146972656 299.0619201660156 C 132.72457885742188 303.3658752441406 139.9606475830078 302.7960205078125 143.80526733398438 298.9682312011719 C 147.64988708496094 295.1404113769531 148.67623901367188 289.265625 148.32762145996094 283.8583679199219 C 148.3874053955078 282.1737060546875 147.8135223388672 280.52789306640625 146.71917724609375 279.2456970214844 C 145.51504516601562 278.1053466796875 143.10189819335938 278.1917419433594 142.5290069580078 279.7568359375 L 140.73399353027344 278.9706115722656" stroke-width="0.6000000238418579" fill="rgb(159, 159, 159)" opacity="1.0"/>
    <path d="M 163.87091064453125 287.6972961425781 C 162.83590698242188 292.6961669921875 163.4910888671875 298.1585388183594 166.31396484375 302.40869140625 C 169.1368408203125 306.65887451171875 174.27960205078125 309.4677734375 179.3681640625 308.86822509765625 C 182.96533203125 308.4397888183594 186.24774169921875 306.3834228515625 188.6248779296875 303.64569091796875 C 191.0020751953125 300.9079895019531 192.54473876953125 297.532958984375 193.59881591796875 294.06317138671875 C 194.056640625 292.55291748046875 194.42755126953125 290.9356384277344 194.00677490234375 289.4188537597656 C 193.52520751953125 287.6797180175781 192.09500122070312 286.39300537109375 190.67364501953125 285.272216796875 C 186.660888671875 282.10797119140625 182.01031494140625 279.43817138671875 176.91424560546875 279.04888916015625 C 171.81817626953125 278.65960693359375 166.2615966796875 281.057861328125 164.15057373046875 285.6985168457031 L 163.87091064453125 287.6972961425781" stroke-width="0.6000000238418579" fill="rgb(159, 159, 159)" opacity="1.0"/>
    <path d="M 122.75897216796875 342.69647216796875 C 122.46707153320312 337.7694091796875 121.92918395996094 332.305419921875 118.27886962890625 328.9976806640625 C 114.73342895507812 325.77587890625 109.43463134765625 325.6564025878906 104.6441650390625 325.8049011230469 C 102.69819641113281 325.86810302734375 100.66342163085938 325.9652099609375 98.979736328125 326.9407958984375 C 96.13111877441406 328.5891418457031 95.12814331054688 332.2034912109375 94.89617919921875 335.48162841796875 C 94.67971801757812 338.52423095703125 94.90126037597656 341.5821228027344 95.55401611328125 344.5617370605469 C 96.61216735839844 349.40020751953125 99.36882019042969 354.4681396484375 104.15359497070312 355.74041748046875 C 106.7357177734375 356.4310302734375 109.53744506835938 355.8724060058594 111.95343017578125 354.7194519042969 C 114.36943054199219 353.56646728515625 116.46519470214844 351.84619140625 118.50994873046875 350.118408203125 C 120.55471801757812 348.390625 122.52688598632812 346.64910888671875 123.65455627441406 344.291748046875 L 122.75897216796875 342.69647216796875" stroke-width="0.6000000238418579" fill="rgb(218, 166, 20)" opacity="1.0"/>
    <path d="M 160.62997436523438 347.4472351074219 C 153.94668579101562 352.1773986816406 152.3633575439453 361.4298095703125 157.093505859375 368.11309814453125 C 157.49853515625 368.6853942871094 157.94366455078125 369.22821044921875 158.425537109375 369.737548828125 C 160.25689697265625 371.67242431640625 162.740234375 373.13616943359375 165.40261840820312 373.18670654296875 C 167.65252685546875 373.2296142578125 169.79931640625 372.2812805175781 171.74603271484375 371.1554870605469 C 176.95272827148438 368.13482666015625 181.25567626953125 363.7751159667969 184.2078857421875 358.5292663574219 C 184.98590087890625 357.1413269042969 185.677978515625 355.6495666503906 185.7607421875 354.0571594238281 C 185.90118408203125 351.3839416503906 184.26953125 348.87811279296875 182.18365478515625 347.197265625 C 179.088623046875 344.6996765136719 174.96282958984375 343.6531066894531 170.9957275390625 343.94708251953125 C 167.02865600585938 344.2410583496094 163.22003173828125 345.7945556640625 159.92169189453125 348.0177001953125 L 160.62997436523438 347.4472351074219" stroke-width="0.6000000238418579" fill="rgb(143, 165, 67)" opacity="1.0"/>
    <path d="M 136.17877197265625 382.50030517578125 C 131.20782470703125 373.81146240234375 116.08973693847656 374.8382263183594 111.6954345703125 383.7607116699219 C 107.30119323730469 392.6832275390625 114.97341918945312 404.88427734375 124.96578979492188 405.5321044921875 C 134.95816040039062 406.1799011230469 143.95382690429688 396.12115478515625 142.92160034179688 386.1518249511719 L 136.17877197265625 382.50030517578125" stroke-width="0.6000000238418579" fill="rgb(233, 92, 21)" opacity="1.0"/>
    <path d="M 185.72650146484375 361.6900329589844 C 184.43902587890625 366.23272705078125 183.372314453125 371.7926330566406 186.75811767578125 375.1065368652344 C 188.1568603515625 376.3729248046875 189.91409301757812 377.1740417480469 191.78741455078125 377.3993835449219 C 196.40753173828125 378.0816650390625 201.07171630859375 376.4822692871094 204.30096435546875 373.1084289550781 C 207.03289794921875 370.23944091796875 208.3790283203125 366.3948059082031 209.5936279296875 362.6494140625 C 210.27249145507812 360.5444030761719 210.92672729492188 358.2862548828125 210.33251953125 356.16839599609375 C 209.51727294921875 353.3519287109375 206.7213134765625 351.6142883300781 204.02725219726562 350.4594421386719 C 200.08657836914062 348.7643737792969 195.89752197265625 347.71832275390625 191.62258911132812 347.3618469238281 C 190.145263671875 347.2415466308594 188.5911865234375 347.21466064453125 187.25552368164062 347.85601806640625 C 186.04412841796875 348.515869140625 185.05087280273438 349.51397705078125 184.39691162109375 350.72857666015625 C 182.2698974609375 354.3357849121094 181.832275390625 358.6944885253906 183.19989013671875 362.65252685546875 L 185.72650146484375 361.6900329589844" stroke-width="0.6000000238418579" fill="rgb(70, 150, 179)" opacity="1.0"/>
  </g>
</svg>
