<?xml version="1.0" ?>
<svg xmlns="http://www.w3.org/2000/svg" version="1.1" width="600" height="600">
  <defs/>
  <g>
    <path d="M 354.71185302734375 346.5072326660156 C 358.331787109375 350.13995361328125 365.67144775390625 347.61126708984375 366.6520080566406 342.6111145019531 C 367.632568359375 337.6109313964844 362.2071533203125 332.6022644042969 357.1786804199219 333.61761474609375 C 352.15020751953125 334.6329345703125 349.04583740234375 340.8101501464844 350.88897705078125 345.6026611328125 L 354.71185302734375 346.5072326660156" stroke-width="0.6000000238418579" fill="rgb(233, 92, 21)" opacity="1.0"/>
    <path d="M 109.32876586914062 201.047119140625 C 111.44285583496094 199.32415771484375 113.78948974609375 197.04681396484375 113.2852783203125 194.35711669921875 C 113.04296875 193.2945556640625 112.4769287109375 192.33334350585938 111.66517639160156 191.60610961914062 C 109.70513916015625 189.75274658203125 106.96835327148438 188.96432495117188 104.32269287109375 189.49093627929688 C 102.07958984375 189.94338989257812 100.16900634765625 191.31658935546875 98.353515625 192.6864013671875 C 97.33493041992188 193.45751953125 96.27729797363281 194.30926513671875 95.85685729980469 195.50820922851562 C 95.30953979492188 197.11093139648438 96.05685424804688 198.859375 96.94900512695312 200.29827880859375 C 98.25204467773438 202.40582275390625 99.88760375976562 204.28851318359375 101.79226684570312 205.8734130859375 C 102.451416015625 206.41973876953125 103.1778564453125 206.94729614257812 104.02230834960938 207.0863037109375 C 104.81410217285156 207.1754150390625 105.61471557617188 207.03219604492188 106.3265380859375 206.67413330078125 C 108.52796936035156 205.6719970703125 110.17898559570312 203.75457763671875 110.84312438964844 201.4287109375 L 109.32876586914062 201.047119140625" stroke-width="0.6000000238418579" fill="rgb(70, 150, 179)" opacity="1.0"/>
    <path d="M 455.93023681640625 423.583984375 C 457.2144775390625 426.67645263671875 458.767822265625 430.05029296875 461.83782958984375 431.3819580078125 C 465.1365966796875 432.810546875 469.0894775390625 431.24981689453125 471.6168212890625 428.693603515625 C 472.5916748046875 427.7083740234375 473.445556640625 426.5289306640625 473.695068359375 425.165771484375 C 473.90069580078125 424.0452880859375 473.6845703125 422.89361572265625 473.4078369140625 421.78875732421875 C 472.53955078125 418.3035888671875 470.8958740234375 414.74664306640625 467.80169677734375 412.92425537109375 C 464.6820068359375 411.0897216796875 460.3841552734375 411.517578125 457.69903564453125 413.9488525390625 C 455.013916015625 416.38018798828125 454.12359619140625 420.6009521484375 455.6258544921875 423.89971923828125 L 455.93023681640625 423.583984375" stroke-width="0.6000000238418579" fill="rgb(140, 28, 33)" opacity="1.0"/>
    <path d="M 88.4893798828125 201.75799560546875 C 91.05903625488281 201.01934814453125 93.72476196289062 200.22247314453125 95.751220703125 198.47531127929688 C 97.77764892578125 196.72821044921875 98.98782348632812 193.7208251953125 97.86904907226562 191.29083251953125 C 96.48135375976562 188.29437255859375 92.0985107421875 187.67727661132812 89.30398559570312 189.44781494140625 C 86.50946044921875 191.21832275390625 85.1220703125 194.57989501953125 84.61495971679688 197.84478759765625 C 84.35673522949219 198.83975219726562 84.48085021972656 199.89532470703125 84.96282958984375 200.80322265625 C 85.5289306640625 201.64117431640625 86.97686767578125 201.90869140625 87.52473449707031 201.052734375 L 88.4893798828125 201.75799560546875" stroke-width="0.6000000238418579" fill="rgb(159, 159, 159)" opacity="1.0"/>
    <path d="M 381.0362854003906 295.2088928222656 C 383.9430847167969 294.06982421875 386.52294921875 291.9100341796875 387.75787353515625 289.0444030761719 C 388.9927673339844 286.17877197265625 388.7145080566406 282.6058654785156 386.7080383300781 280.1989440917969 C 385.28729248046875 278.4990234375 383.1375732421875 277.50396728515625 380.9410705566406 277.20025634765625 C 378.7445373535156 276.89654541015625 376.50018310546875 277.2332458496094 374.37042236328125 277.8518981933594 C 373.4437561035156 278.12164306640625 372.49127197265625 278.4717102050781 371.85467529296875 279.19378662109375 C 371.1244201660156 280.0213317871094 370.9427795410156 281.18377685546875 370.84320068359375 282.2862854003906 C 370.56201171875 285.39892578125 370.7471618652344 288.6731872558594 372.24951171875 291.4141845703125 C 373.7518615722656 294.1551513671875 376.8362121582031 296.20123291015625 379.9187927246094 295.7330627441406 L 381.0362854003906 295.2088928222656" stroke-width="0.6000000238418579" fill="rgb(159, 159, 159)" opacity="1.0"/>
    <path d="M 100.06887817382812 433.3963623046875 C 101.02426147460938 430.9005126953125 101.97810363769531 428.08489990234375 100.91531372070312 425.6385498046875 C 99.88508605957031 423.25799560546875 97.297607421875 422.0167236328125 94.90115356445312 421.02105712890625 C 93.92701721191406 420.6180419921875 92.90150451660156 420.2119140625 91.85317993164062 420.3175048828125 C 90.08004760742188 420.4951171875 88.77874755859375 422.054443359375 87.932861328125 423.619873046875 C 87.14715576171875 425.0726318359375 86.57414245605469 426.63067626953125 86.2313232421875 428.246337890625 C 85.67373657226562 430.869384765625 85.90289306640625 433.9847412109375 87.97955322265625 435.6800537109375 C 89.09930419921875 436.596923828125 90.60617065429688 436.946533203125 92.05534362792969 436.916748046875 C 93.5045166015625 436.8870849609375 94.92230224609375 436.5059814453125 96.31658935546875 436.10986328125 C 97.71087646484375 435.7137451171875 99.07243347167969 435.29461669921875 100.15475463867188 434.38323974609375 L 100.06887817382812 433.3963623046875" stroke-width="0.6000000238418579" fill="rgb(218, 166, 20)" opacity="1.0"/>
    <path d="M 99.64927673339844 139.34608459472656 C 104.95347595214844 139.4687042236328 109.352783203125 135.26820373535156 109.47540283203125 129.96400451660156 C 109.48590087890625 129.50979614257812 109.46417236328125 129.05543518066406 109.41036987304688 128.6042938232422 C 109.20561218261719 126.89015197753906 108.47966003417969 125.16908264160156 107.11442565917969 124.11387634277344 C 105.96078491210938 123.2220458984375 104.47767639160156 122.8856201171875 103.03005981445312 122.71884155273438 C 99.154541015625 122.27772521972656 95.2315673828125 122.88235473632812 91.668701171875 124.46990966796875 C 90.72764587402344 124.89112854003906 89.7911376953125 125.39956665039062 89.1326904296875 126.19583129882812 C 88.02651977539062 127.53195190429688 87.90676879882812 129.4658966064453 88.34208679199219 131.14627075195312 C 88.98663330078125 133.64144897460938 90.72808837890625 135.78028869628906 92.90509033203125 137.16055297851562 C 95.08206176757812 138.54080200195312 97.66342163085938 139.20469665527344 100.23812866210938 139.32310485839844 L 99.64927673339844 139.34608459472656" stroke-width="0.6000000238418579" fill="rgb(143, 165, 67)" opacity="1.0"/>
    <path d="M 455.1158447265625 343.6264953613281 C 459.2508544921875 347.7918701171875 467.6563720703125 344.91375732421875 468.7894287109375 339.1933288574219 C 469.9224853515625 333.4729309082031 463.72412109375 327.7288818359375 457.9669189453125 328.8800354003906 C 452.2098388671875 330.0311584472656 448.6435546875 337.0940856933594 450.74261474609375 342.58294677734375 L 455.1158447265625 343.6264953613281" stroke-width="0.6000000238418579" fill="rgb(233, 92, 21)" opacity="1.0"/>
    <path d="M 99.4161376953125 219.10211181640625 C 100.97311401367188 216.8511962890625 102.59950256347656 214.0009765625 101.36273193359375 211.5489501953125 C 100.83258056640625 210.59234619140625 100.01864624023438 209.82376098632812 99.03317260742188 209.34933471679688 C 96.62649536132812 208.10983276367188 93.768310546875 208.11373901367188 91.36502075195312 209.35980224609375 C 89.32907104492188 210.42205810546875 87.87062072753906 212.27899169921875 86.5029296875 214.10617065429688 C 85.73629760742188 215.1337890625 84.95451354980469 216.25003051757812 84.88388061523438 217.52313232421875 C 84.80363464355469 219.2208251953125 86.01202392578125 220.6976318359375 87.27365112304688 221.835693359375 C 89.11795043945312 223.5035400390625 91.22006225585938 224.86187744140625 93.4984130859375 225.85797119140625 C 94.28630065917969 226.20065307617188 95.1337890625 226.50640869140625 95.98660278320312 226.40472412109375 C 96.77471923828125 226.26962280273438 97.50651550292969 225.9080810546875 98.09271240234375 225.3642578125 C 99.93508911132812 223.78378295898438 100.99139404296875 221.47467041015625 100.98240661621094 219.04730224609375 L 99.4161376953125 219.10211181640625" stroke-width="0.6000000238418579" fill="rgb(70, 150, 179)" opacity="1.0"/>
    <path d="M 102.30654907226562 82.58322143554688 C 102.31632995605469 85.68238830566406 102.45729064941406 89.11715698242188 104.61572265625 91.33837890625 C 106.93580627441406 93.72305297851562 110.8687744140625 93.77978515625 113.93235778808594 92.48225402832031 C 115.11375427246094 91.98248291015625 116.260009765625 91.2738037109375 116.95381164550781 90.19502258300781 C 117.52450561523438 89.30841064453125 117.74520874023438 88.24662780761719 117.89759826660156 87.20355224609375 C 118.38212585449219 83.914794921875 118.22833251953125 80.29148864746094 116.22209167480469 77.64178466796875 C 114.19827270507812 74.97267150878906 110.36917114257812 73.82487487792969 107.21456909179688 74.95988464355469 C 104.05996704101562 76.09487915039062 101.81112670898438 79.39369201660156 101.934814453125 82.7462158203125 L 102.30654907226562 82.58322143554688" stroke-width="0.6000000238418579" fill="rgb(140, 28, 33)" opacity="1.0"/>
    <path d="M 91.80081176757812 417.225341796875 C 94.56405639648438 416.681396484375 97.43339538574219 416.0850830078125 99.71734619140625 414.433837890625 C 102.00126647949219 412.78271484375 103.5419921875 409.7354736328125 102.58657836914062 407.0845947265625 C 101.39991760253906 403.81500244140625 96.85581970214844 402.77288818359375 93.76370239257812 404.3794860839844 C 90.67156982421875 405.986083984375 88.91299438476562 409.3890380859375 88.08694458007812 412.76983642578125 C 87.72637939453125 413.790771484375 87.76162719726562 414.90972900390625 88.18576049804688 415.9058837890625 C 88.70443725585938 416.8363037109375 90.19990539550781 417.247314453125 90.8519287109375 416.3983154296875 L 91.80081176757812 417.225341796875" stroke-width="0.6000000238418579" fill="rgb(159, 159, 159)" opacity="1.0"/>
    <path d="M 470.62432861328125 64.15596008300781 C 471.4912109375 61.593353271484375 471.4989013671875 58.67791748046875 470.2882080078125 56.26025390625 C 469.07757568359375 53.84260559082031 466.5537109375 52.033416748046875 463.8385009765625 52.020538330078125 C 461.91876220703125 52.01385498046875 460.0595703125 52.88377380371094 458.63262939453125 54.170440673828125 C 457.2056884765625 55.457122802734375 456.176513671875 57.13287353515625 455.39825439453125 58.88996887207031 C 455.06005859375 59.654815673828125 454.7606201171875 60.4815673828125 454.884033203125 61.3065185546875 C 455.02520751953125 62.25236511230469 455.6944580078125 63.02142333984375 456.36981201171875 63.70263671875 C 458.2763671875 65.6258544921875 460.55035400390625 67.33013916015625 463.20574951171875 67.86361694335938 C 465.86114501953125 68.3970947265625 468.9385986328125 67.49404907226562 470.3482666015625 65.18927001953125 L 470.62432861328125 64.15596008300781" stroke-width="0.6000000238418579" fill="rgb(159, 159, 159)" opacity="1.0"/>
    <path d="M 93.13906860351562 106.7498779296875 C 96.02610778808594 107.84892272949219 99.28280639648438 108.94549560546875 102.10832214355469 107.71177673339844 C 104.85784912109375 106.515869140625 106.28715515136719 103.52230834960938 107.43295288085938 100.75007629394531 C 107.89675903320312 99.62319946289062 108.36398315429688 98.43692016601562 108.23968505859375 97.22537231445312 C 108.03065490722656 95.1761474609375 106.22543334960938 93.67529296875 104.4140625 92.70083618164062 C 102.733154296875 91.79571533203125 100.93096923828125 91.13667297363281 99.06271362304688 90.74383544921875 C 96.0294189453125 90.10488891601562 92.4288330078125 90.37640380859375 90.4736328125 92.78045654296875 C 89.41616821289062 94.07676696777344 89.01531982421875 95.81930541992188 89.05274963378906 97.494384765625 C 89.09019470214844 99.16943359375 89.53366088867188 100.80746459960938 89.99453735351562 102.41830444335938 C 90.45541381835938 104.02914428710938 90.9427490234375 105.60211181640625 91.99853515625 106.85125732421875 L 93.13906860351562 106.7498779296875" stroke-width="0.6000000238418579" fill="rgb(218, 166, 20)" opacity="1.0"/>
    <path d="M 122.81329345703125 130.75222778320312 C 127.37158203125 129.16009521484375 129.776123046875 124.1741943359375 128.18399047851562 119.61590576171875 C 128.0476531982422 119.2255859375 127.88380432128906 118.84542846679688 127.69366455078125 118.478271484375 C 126.970947265625 117.08335876464844 125.80194091796875 115.8492431640625 124.30126953125 115.38691711425781 C 123.03312683105469 114.99609375 121.66195678710938 115.18386840820312 120.37525939941406 115.50479125976562 C 116.93229675292969 116.36860656738281 113.78341674804688 118.13853454589844 111.2557373046875 120.63070678710938 C 110.58869934082031 121.29058837890625 109.95344543457031 122.02333068847656 109.64715576171875 122.91233825683594 C 109.13209533691406 124.40451049804688 109.64865112304688 126.09048461914062 110.55702209472656 127.38287353515625 C 111.90428161621094 129.30255126953125 114.07208251953125 130.56777954101562 116.36831665039062 131.04739379882812 C 118.66456604003906 131.52700805664062 121.076171875 131.2669677734375 123.30764770507812 130.54429626464844 L 122.81329345703125 130.75222778320312" stroke-width="0.6000000238418579" fill="rgb(143, 165, 67)" opacity="1.0"/>
    <path d="M 392.5257568359375 304.0480041503906 C 395.7951354980469 308.9344787597656 404.6105041503906 307.7118225097656 406.8184814453125 302.3036804199219 C 409.0264892578125 296.89556884765625 404.0301513671875 290.0622863769531 398.14910888671875 290.09326171875 C 392.26806640625 290.1242370605469 387.41082763671875 296.3871154785156 388.4252014160156 302.1856384277344 L 392.5257568359375 304.0480041503906" stroke-width="0.6000000238418579" fill="rgb(233, 92, 21)" opacity="1.0"/>
    <path d="M 120.01577758789062 109.09027099609375 C 122.34132385253906 107.47430419921875 124.95164489746094 105.30279541015625 124.64315795898438 102.47805786132812 C 124.47662353515625 101.35870361328125 123.96688842773438 100.318603515625 123.1842041015625 99.50125122070312 C 121.30204772949219 97.42678833007812 118.53117370605469 96.39328002929688 115.750244140625 96.72846984863281 C 113.39199829101562 97.01884460449219 111.30488586425781 98.28886413574219 109.3165283203125 99.56294250488281 C 108.20074462890625 100.28045654296875 107.03814697265625 101.07830810546875 106.50765991210938 102.2862548828125 C 105.81378173828125 103.90213012695312 106.44868469238281 105.77166748046875 107.25813293457031 107.33224487304688 C 108.43989562988281 109.61766052246094 109.98379516601562 111.69671630859375 111.82991027832031 113.48880004882812 C 112.46896362304688 114.10675048828125 113.17919921875 114.71061706542969 114.04244995117188 114.92158508300781 C 114.85513305664062 115.07669067382812 115.69540405273438 114.99197387695312 116.46078491210938 114.67776489257812 C 118.81954956054688 113.81497192382812 120.68109130859375 111.96087646484375 121.5533447265625 109.6055908203125 L 120.01577758789062 109.09027099609375" stroke-width="0.6000000238418579" fill="rgb(70, 150, 179)" opacity="1.0"/>
    <path d="M 423.5157470703125 70.33616638183594 C 424.7222900390625 73.30104064941406 426.18408203125 76.53671264648438 429.109619140625 77.83062744140625 C 432.253173828125 79.21868896484375 436.0423583984375 77.75382995605469 438.4757080078125 75.32754516601562 C 439.414306640625 74.39247131347656 440.23858642578125 73.2708740234375 440.4864501953125 71.96951293945312 C 440.690673828125 70.89981079101562 440.49188232421875 69.7974853515625 440.2349853515625 68.73947143554688 C 439.4287109375 65.40206909179688 437.88177490234375 61.99073791503906 434.9365234375 60.227569580078125 C 431.9669189453125 58.45263671875 427.855712890625 58.83226013183594 425.2723388671875 61.13801574707031 C 422.6890869140625 63.44377136230469 421.8092041015625 67.47233581542969 423.22265625 70.63589477539062 L 423.5157470703125 70.33616638183594" stroke-width="0.6000000238418579" fill="rgb(140, 28, 33)" opacity="1.0"/>
    <path d="M 114.99884033203125 417.8333740234375 C 116.80780029296875 415.73046875 118.66696166992188 413.5224609375 119.43084716796875 410.8537902832031 C 120.19473266601562 408.18511962890625 119.53346252441406 404.88763427734375 117.18032836914062 403.4161376953125 C 114.27154541015625 401.6062316894531 110.11827087402344 403.5646057128906 108.70135498046875 406.6905822753906 C 107.28445434570312 409.8165588378906 107.99349975585938 413.5220947265625 109.41123962402344 416.64306640625 C 109.75332641601562 417.653076171875 110.46157836914062 418.4981689453125 111.39628601074219 419.0115966796875 C 112.36416625976562 419.41644287109375 113.7724609375 418.82464599609375 113.76072692871094 417.7703857421875 L 114.99884033203125 417.8333740234375" stroke-width="0.6000000238418579" fill="rgb(159, 159, 159)" opacity="1.0"/>
    <path d="M 457.00030517578125 436.766357421875 C 457.9993896484375 434.0472412109375 458.088623046875 430.9266357421875 456.8597412109375 428.3050537109375 C 455.6309814453125 425.6834716796875 452.9794921875 423.6767578125 450.0733642578125 423.58758544921875 C 448.0185546875 423.527099609375 446.0042724609375 424.40673828125 444.4410400390625 425.744384765625 C 442.8778076171875 427.0821533203125 441.72967529296875 428.8472900390625 440.8477783203125 430.70660400390625 C 440.4644775390625 431.51593017578125 440.12103271484375 432.39263916015625 440.2303466796875 433.27911376953125 C 440.3551025390625 434.2955322265625 441.0501708984375 435.1373291015625 441.754150390625 435.88525390625 C 443.74169921875 437.9969482421875 446.1285400390625 439.8843994140625 448.9561767578125 440.5291748046875 C 451.7838134765625 441.1739501953125 455.1031494140625 440.29278564453125 456.6761474609375 437.86474609375 L 457.00030517578125 436.766357421875" stroke-width="0.6000000238418579" fill="rgb(159, 159, 159)" opacity="1.0"/>
    <path d="M 451.801025390625 284.4872741699219 C 453.6265869140625 282.0023498535156 455.5482177734375 279.1611633300781 455.11328125 276.1146240234375 C 454.6944580078125 273.1512756347656 452.1949462890625 270.9795837402344 449.8328857421875 269.13958740234375 C 448.87225341796875 268.39349365234375 447.8553466796875 267.6283264160156 446.65673828125 267.42547607421875 C 444.6297607421875 267.08123779296875 442.7054443359375 268.4184875488281 441.2860107421875 269.9017639160156 C 439.9678955078125 271.2779541015625 438.85430908203125 272.8363037109375 437.979248046875 274.5290832519531 C 436.55731201171875 277.2771301269531 435.8603515625 280.813232421875 437.6527099609375 283.3339538574219 C 438.618408203125 284.69622802734375 440.1881103515625 285.54559326171875 441.8095703125 285.955322265625 C 443.430908203125 286.3650817871094 445.124755859375 286.3743591308594 446.797119140625 286.35968017578125 C 448.46942138671875 286.344970703125 450.1123046875 286.29473876953125 451.594970703125 285.6114807128906 L 451.801025390625 284.4872741699219" stroke-width="0.6000000238418579" fill="rgb(218, 166, 20)" opacity="1.0"/>
    <path d="M 421.505615234375 357.4691467285156 C 423.6328125 361.7303466796875 428.81158447265625 363.4602966308594 433.07275390625 361.3331298828125 C 433.4376220703125 361.1509704589844 433.7891845703125 360.94317626953125 434.1246337890625 360.7112731933594 C 435.39923095703125 359.82989501953125 436.46075439453125 358.53192138671875 436.7257080078125 357.005859375 C 436.94970703125 355.7162170410156 436.59466552734375 354.3980407714844 436.11993408203125 353.1791687011719 C 434.8447265625 349.9183044433594 432.7196044921875 347.058349609375 429.9654541015625 344.89642333984375 C 429.2364501953125 344.326171875 428.440185546875 343.796142578125 427.53204345703125 343.60748291015625 C 426.0076904296875 343.2899169921875 424.422607421875 344.00592041015625 423.271484375 345.05615234375 C 421.56146240234375 346.6141357421875 420.59423828125 348.89324951171875 420.41180419921875 351.1999206542969 C 420.2293701171875 353.506591796875 420.78497314453125 355.833740234375 421.77081298828125 357.9268798828125 L 421.505615234375 357.4691467285156" stroke-width="0.6000000238418579" fill="rgb(143, 165, 67)" opacity="1.0"/>
    <path d="M 448.2435302734375 350.8116455078125 C 452.140869140625 346.230712890625 448.478271484375 337.89556884765625 442.53955078125 337.2310791015625 C 436.60089111328125 336.5666198730469 431.26922607421875 343.3903503417969 432.9403076171875 349.169921875 C 434.61138916015625 354.9494934082031 442.13043212890625 357.9829406738281 447.554443359375 355.3670349121094 L 448.2435302734375 350.8116455078125" stroke-width="0.6000000238418579" fill="rgb(233, 92, 21)" opacity="1.0"/>
    <path d="M 454.669189453125 73.69123840332031 C 457.1285400390625 72.04800415039062 459.89599609375 69.83004760742188 459.627685546875 66.874267578125 C 459.47509765625 65.7021484375 458.962646484375 64.60623168945312 458.160888671875 63.73773193359375 C 456.23486328125 61.53546142578125 453.36090087890625 60.4033203125 450.45037841796875 60.7003173828125 C 447.9820556640625 60.958587646484375 445.7783203125 62.245086669921875 443.677490234375 63.537689208984375 C 442.4986572265625 64.26571655273438 441.269287109375 65.07675170898438 440.6922607421875 66.32810974121094 C 439.936767578125 68.00234985351562 440.564208984375 69.96682739257812 441.3797607421875 71.61199951171875 C 442.5703125 74.02122497558594 444.1429443359375 76.22186279296875 446.03668212890625 78.1285400390625 C 446.6922607421875 78.78607177734375 447.4224853515625 79.43023681640625 448.3199462890625 79.66702270507812 C 449.1656494140625 79.844482421875 450.0447998046875 79.77203369140625 450.85009765625 79.45851135253906 C 453.329833984375 78.60247802734375 455.3092041015625 76.70172119140625 456.2650146484375 74.25869750976562 L 454.669189453125 73.69123840332031" stroke-width="0.6000000238418579" fill="rgb(70, 150, 179)" opacity="1.0"/>
    <path d="M 449.7918701171875 392.1927490234375 C 450.3673095703125 389.7354431152344 450.9019775390625 386.9875183105469 449.60986328125 384.82147216796875 C 448.22039794921875 382.4954833984375 445.114990234375 381.7104187011719 442.4434814453125 382.16192626953125 C 441.4134521484375 382.3355712890625 440.37188720703125 382.6813659667969 439.619140625 383.405517578125 C 439.00018310546875 384.0005798339844 438.62548828125 384.8003234863281 438.3084716796875 385.59808349609375 C 437.3056640625 388.1125793457031 436.7457275390625 391.0122985839844 437.83660888671875 393.48919677734375 C 438.93780517578125 395.98480224609375 441.755615234375 397.6147766113281 444.4686279296875 397.30914306640625 C 447.181640625 397.0035095214844 449.5841064453125 394.81304931640625 450.1170654296875 392.1335754394531 L 449.7918701171875 392.1927490234375" stroke-width="0.6000000238418579" fill="rgb(140, 28, 33)" opacity="1.0"/>
    <path d="M 127.41415405273438 220.39035034179688 C 123.98245239257812 222.2200927734375 120.43174743652344 224.161865234375 118.07852172851562 227.26165771484375 C 115.72537231445312 230.3614501953125 114.91543579101562 235.00662231445312 117.24365234375 238.12435913085938 C 120.12615966796875 241.96649169921875 126.54827880859375 241.5157470703125 129.987060546875 238.14981079101562 C 133.42584228515625 234.78390502929688 134.38052368164062 229.5811767578125 134.11216735839844 224.78274536132812 C 134.17791748046875 223.2890625 133.68136596679688 221.82501220703125 132.720458984375 220.6795654296875 C 131.66110229492188 219.6590576171875 129.5201873779297 219.71746826171875 129.00025939941406 221.10122680664062 L 127.41415405273438 220.39035034179688" stroke-width="0.6000000238418579" fill="rgb(159, 159, 159)" opacity="1.0"/>
    <path d="M 112.56759643554688 228.09121704101562 C 109.46026611328125 225.977783203125 105.56117248535156 224.88299560546875 101.87506103515625 225.60400390625 C 98.18896484375 226.32501220703125 94.82875061035156 229.02996826171875 93.80149841308594 232.65921020507812 C 93.07846069335938 235.22604370117188 93.55117797851562 238.03793334960938 94.74244689941406 240.4263916015625 C 95.9337158203125 242.81484985351562 97.793701171875 244.81558227539062 99.85588073730469 246.51080322265625 C 100.75372314453125 247.24798583984375 101.74887084960938 247.95623779296875 102.89891052246094 248.09783935546875 C 104.21731567382812 248.26080322265625 105.49555969238281 247.651123046875 106.65850830078125 247.00067138671875 C 109.94171142578125 245.164306640625 113.06857299804688 242.75482177734375 114.77032470703125 239.39935302734375 C 116.47206115722656 236.0438232421875 116.408203125 231.589111328125 113.84786987304688 228.84503173828125 L 112.56759643554688 228.09121704101562" stroke-width="0.6000000238418579" fill="rgb(159, 159, 159)" opacity="1.0"/>
    <path d="M 304.9313659667969 99.37518310546875 C 304.4256286621094 103.054931640625 304.0228576660156 107.16705322265625 306.2332458496094 110.14306640625 C 308.3787841796875 113.04026794433594 312.2727355957031 113.90409851074219 315.8306579589844 114.49569702148438 C 317.2763671875 114.73390197753906 318.7925720214844 114.96005249023438 320.1782531738281 114.48635864257812 C 322.5223083496094 113.68658447265625 323.7917175292969 111.16537475585938 324.44281005859375 108.77949523925781 C 325.0479736328125 106.56523132324219 325.33203125 104.27554321289062 325.2863464355469 101.98052978515625 C 325.2135009765625 98.2540283203125 323.9204406738281 94.1094970703125 320.5746765136719 92.46994018554688 C 318.76971435546875 91.58218383789062 316.61981201171875 91.58442687988281 314.6676025390625 92.08186340332031 C 312.7154235839844 92.57931518554688 310.9165954589844 93.54238891601562 309.154296875 94.51849365234375 C 307.3919982910156 95.49456787109375 305.6812744140625 96.49142456054688 304.5037841796875 98.06651306152344 L 304.9313659667969 99.37518310546875" stroke-width="0.6000000238418579" fill="rgb(218, 166, 20)" opacity="1.0"/>
    <path d="M 219.2845458984375 122.56103515625 C 215.6494140625 117.67086791992188 208.73828125 116.65345764160156 203.84808349609375 120.28858947753906 C 203.42935180664062 120.599853515625 203.033203125 120.94046020507812 202.66265869140625 121.30780029296875 C 201.25491333007812 122.703857421875 200.208984375 124.57684326171875 200.21759033203125 126.5584716796875 C 200.2247314453125 128.23309326171875 200.967529296875 129.81382751464844 201.8388671875 131.24261474609375 C 204.17657470703125 135.06390380859375 207.4947509765625 138.18955993652344 211.44882202148438 140.294921875 C 212.49493408203125 140.84967041015625 213.6168212890625 141.3386993408203 214.80294799804688 141.37261962890625 C 216.79421997070312 141.43072509765625 218.63018798828125 140.17330932617188 219.84451293945312 138.59228515625 C 221.64898681640625 136.2462921142578 222.35601806640625 133.15863037109375 222.0684814453125 130.21226501464844 C 221.78091430664062 127.26593017578125 220.55902099609375 124.45932006835938 218.84783935546875 122.04399108886719 L 219.2845458984375 122.56103515625" stroke-width="0.6000000238418579" fill="rgb(143, 165, 67)" opacity="1.0"/>
    <path d="M 226.47802734375 93.16102600097656 C 224.7958984375 100.13899230957031 233.18685913085938 107.04170227050781 239.86892700195312 104.5496826171875 C 246.55099487304688 102.05764770507812 248.55218505859375 91.91859436035156 243.65875244140625 86.66432189941406 C 238.765380859375 81.41004943847656 229.12408447265625 82.23081970214844 224.75747680664062 87.93879699707031 L 226.47802734375 93.16102600097656" stroke-width="0.6000000238418579" fill="rgb(233, 92, 21)" opacity="1.0"/>
    <path d="M 197.97491455078125 97.24253845214844 C 196.77859497070312 93.90019226074219 195.0029296875 90.03173828125 191.4833984375 89.48260498046875 C 190.07427978515625 89.31857299804688 188.64895629882812 89.59585571289062 187.40411376953125 90.27621459960938 C 184.27871704101562 91.87667846679688 182.12295532226562 94.89273071289062 181.62042236328125 98.36793518066406 C 181.20169067382812 101.31695556640625 182.05718994140625 104.25775146484375 182.9498291015625 107.08033752441406 C 183.453857421875 108.66508483886719 184.039794921875 110.332763671875 185.32852172851562 111.36929321289062 C 187.0576171875 112.73681640625 189.52764892578125 112.57894897460938 191.68075561523438 112.10894775390625 C 194.83273315429688 111.42501831054688 197.85321044921875 110.23544311523438 200.62506103515625 108.58633422851562 C 201.58169555664062 108.01470947265625 202.54449462890625 107.35234069824219 203.08175659179688 106.37644958496094 C 203.53488159179688 105.44351196289062 203.706787109375 104.39886474609375 203.57644653320312 103.36990356445312 C 203.30255126953125 100.23333740234375 201.66650390625 97.37478637695312 199.10073852539062 95.5499267578125 L 197.97491455078125 97.24253845214844" stroke-width="0.6000000238418579" fill="rgb(70, 150, 179)" opacity="1.0"/>
    <path d="M 268.9081726074219 131.1676025390625 C 267.598388671875 134.7127227783203 266.29541015625 138.69720458984375 267.8147888183594 142.15505981445312 C 269.44915771484375 145.8685760498047 273.9186096191406 147.60975646972656 277.9719543457031 147.43304443359375 C 279.5347900390625 147.36558532714844 281.1465148925781 147.04444885253906 282.3990173339844 146.1076202392578 C 283.428955078125 145.33787536621094 284.1336975097656 144.21878051757812 284.7524108886719 143.09197998046875 C 286.707763671875 139.5409393310547 288.076416015625 135.33555603027344 286.9136047363281 131.4530029296875 C 285.7389221191406 127.54080200195312 281.85321044921875 124.5972900390625 277.76513671875 124.54949951171875 C 273.67706298828125 124.501708984375 269.70159912109375 127.31224060058594 268.4139709472656 131.19537353515625 L 268.9081726074219 131.1676025390625" stroke-width="0.6000000238418579" fill="rgb(140, 28, 33)" opacity="1.0"/>
    <path d="M 310.0137939453125 119.33697509765625 C 306.364990234375 118.71365356445312 302.56134033203125 118.10528564453125 298.98382568359375 119.06629943847656 C 295.4063720703125 120.02731323242188 292.0894470214844 123.05070495605469 292.02423095703125 126.7537841796875 C 291.95391845703125 131.32504272460938 297.0492248535156 134.72898864746094 301.5987243652344 134.20046997070312 C 306.1482238769531 133.6719512939453 309.8990478515625 130.31336975097656 312.4938659667969 126.54617309570312 C 313.4139709472656 125.46047973632812 313.89361572265625 124.06939697265625 313.83819580078125 122.64736938476562 C 313.6358337402344 121.26202392578125 311.9907531738281 120.05812072753906 310.79296875 120.79635620117188 L 310.0137939453125 119.33697509765625" stroke-width="0.6000000238418579" fill="rgb(159, 159, 159)" opacity="1.0"/>
    <path d="M 197.82275390625 132.7971954345703 C 195.21420288085938 129.9677734375 191.57940673828125 127.970458984375 187.7354736328125 127.83372497558594 C 183.89151000976562 127.69700622558594 179.91195678710938 129.61471557617188 178.044677734375 132.99603271484375 C 176.7275390625 135.38832092285156 176.546142578125 138.3026885986328 177.17974853515625 140.96153259277344 C 177.8133544921875 143.6204071044922 179.20394897460938 146.04782104492188 180.8671875 148.2174530029297 C 181.59152221679688 149.1612091064453 182.41961669921875 150.0987091064453 183.5338134765625 150.5069580078125 C 184.81097412109375 150.97560119628906 186.22744750976562 150.664306640625 187.53839111328125 150.2855682373047 C 191.239501953125 149.21630859375 194.91766357421875 147.5391082763672 197.39413452148438 144.58743286132812 C 199.87060546875 141.63575744628906 200.84121704101562 137.1777801513672 198.9246826171875 133.84632873535156 L 197.82275390625 132.7971954345703" stroke-width="0.6000000238418579" fill="rgb(159, 159, 159)" opacity="1.0"/>
    <path d="M 282.02294921875 103.851806640625 C 278.842041015625 105.50677490234375 275.37799072265625 107.48416137695312 274.26708984375 110.88604736328125 C 273.1820983886719 114.19288635253906 274.6745300292969 117.74235534667969 276.1938781738281 120.87521362304688 C 276.8129577636719 122.14700317382812 277.48089599609375 123.46759033203125 278.6272888183594 124.29481506347656 C 280.5653381347656 125.69503784179688 283.259765625 125.28813171386719 285.5025634765625 124.46963500976562 C 287.58453369140625 123.71075439453125 289.5467224121094 122.65682983398438 291.3291320800781 121.34016418457031 C 294.2239990234375 119.20330810546875 296.7673034667969 115.87197875976562 296.19183349609375 112.32147216796875 C 295.8839416503906 110.40423583984375 294.6824645996094 108.71189880371094 293.2012634277344 107.45166015625 C 291.72003173828125 106.19140625 289.95758056640625 105.31179809570312 288.20526123046875 104.46823120117188 C 286.4529724121094 103.62467956542969 284.71307373046875 102.83334350585938 282.81524658203125 102.78469848632812 L 282.02294921875 103.851806640625" stroke-width="0.6000000238418579" fill="rgb(218, 166, 20)" opacity="1.0"/>
    <path d="M 239.70977783203125 114.13702392578125 C 240.43035888671875 120.15914916992188 245.8963623046875 124.45687866210938 251.91848754882812 123.73629760742188 C 252.43417358398438 123.67460632324219 252.94482421875 123.57638549804688 253.44659423828125 123.44242858886719 C 255.3531494140625 122.93301391601562 257.18310546875 121.83270263671875 258.156005859375 120.11683654785156 C 258.9783020019531 118.66690063476562 259.11871337890625 116.93409729003906 259.07293701171875 115.26895141601562 C 258.9442138671875 110.81192016601562 257.62445068359375 106.47064208984375 255.25076293945312 102.69610595703125 C 254.62164306640625 101.69943237304688 253.89456176757812 100.7220458984375 252.8868408203125 100.10595703125 C 251.1956787109375 99.0706787109375 248.98779296875 99.24847412109375 247.15682983398438 100.01332092285156 C 244.43768310546875 101.14694213867188 242.29949951171875 103.46408081054688 241.09030151367188 106.15118408203125 C 239.881103515625 108.83828735351562 239.54803466796875 111.86691284179688 239.8311767578125 114.79965209960938 L 239.70977783203125 114.13702392578125" stroke-width="0.6000000238418579" fill="rgb(143, 165, 67)" opacity="1.0"/>
    <path d="M 249.3685302734375 91.41824340820312 C 247.78240966796875 98.39447021484375 256.2344970703125 105.165283203125 262.8617858886719 102.59512329101562 C 269.48907470703125 100.02494812011719 271.3522033691406 89.89414978027344 266.4072570800781 84.720947265625 C 261.4623107910156 79.5477294921875 251.8641357421875 80.49058532714844 247.58612060546875 86.23588562011719 L 249.3685302734375 91.41824340820312" stroke-width="0.6000000238418579" fill="rgb(233, 92, 21)" opacity="1.0"/>
    <path d="M 337.6418762207031 83.39752197265625 C 334.718505859375 81.51380920410156 331.0310974121094 79.56686401367188 327.96856689453125 81.23951721191406 C 326.77569580078125 81.95259094238281 325.8334655761719 83.01824951171875 325.2719421386719 84.28950500488281 C 323.79791259765625 87.39752197265625 323.9217529296875 91.02719116210938 325.60418701171875 94.02749633789062 C 327.0378723144531 96.56895446777344 329.45684814453125 98.34391784667969 331.8341979980469 100.00486755371094 C 333.1711730957031 100.93572998046875 334.62127685546875 101.88214111328125 336.24102783203125 101.91891479492188 C 338.4004211425781 101.9501953125 340.2256774902344 100.35415649414062 341.6184997558594 98.70458984375 C 343.6599426269531 96.29296875 345.29754638671875 93.56683349609375 346.4678649902344 90.63192749023438 C 346.8702697753906 89.61708068847656 347.2233581542969 88.52804565429688 347.0587158203125 87.44921875 C 346.8543395996094 86.45394897460938 346.36480712890625 85.53962707519531 345.6497497558594 84.81777954101562 C 343.5659484863281 82.54373168945312 340.5894470214844 81.29827880859375 337.5071105957031 81.41064453125 L 337.6418762207031 83.39752197265625" stroke-width="0.6000000238418579" fill="rgb(70, 150, 179)" opacity="1.0"/>
    <path d="M 335.18011474609375 133.6236114501953 C 334.12445068359375 129.8163299560547 332.7944641113281 125.64059448242188 329.392578125 123.63636779785156 C 325.73687744140625 121.48556518554688 320.8819885253906 122.74024963378906 317.5521240234375 125.36729431152344 C 316.2678527832031 126.379638671875 315.09710693359375 127.63699340820312 314.6073303222656 129.19703674316406 C 314.2042236328125 130.47933959960938 314.2904052734375 131.85919189453125 314.45428466796875 133.19300842285156 C 314.9660339355469 137.39984130859375 316.37530517578125 141.80308532714844 319.7343444824219 144.38543701171875 C 323.1215515136719 146.98570251464844 328.21612548828125 147.10751342773438 331.712646484375 144.649658203125 C 335.20916748046875 142.19178771972656 336.86334228515625 137.37844848632812 335.5823059082031 133.2980194091797 L 335.18011474609375 133.6236114501953" stroke-width="0.6000000238418579" fill="rgb(140, 28, 33)" opacity="1.0"/>
    <path d="M 346.0225830078125 105.67134094238281 C 342.23291015625 104.38810729980469 338.2753601074219 103.0946044921875 334.2935485839844 103.5147705078125 C 330.311767578125 103.9349365234375 326.2589111328125 106.60086059570312 325.562255859375 110.54299926757812 C 324.71319580078125 115.41104125976562 329.57623291015625 119.90765380859375 334.5224609375 120.11376953125 C 339.46868896484375 120.31988525390625 344.04150390625 117.36959838867188 347.449462890625 113.787353515625 C 348.61553955078125 112.78414916992188 349.3631286621094 111.38031005859375 349.5447082519531 109.85287475585938 C 349.5632629394531 108.33969116210938 348.0109558105469 106.77593994140625 346.6072692871094 107.36123657226562 L 346.0225830078125 105.67134094238281" stroke-width="0.6000000238418579" fill="rgb(159, 159, 159)" opacity="1.0"/>
    <path d="M 347.0199279785156 128.26638793945312 C 343.42138671875 128.70252990722656 339.8938903808594 130.381103515625 337.6733093261719 133.24380493164062 C 335.4527282714844 136.10650634765625 334.7276916503906 140.2038116455078 336.2841491699219 143.4923858642578 C 337.38751220703125 145.8160400390625 339.5151062011719 147.55902099609375 341.8961181640625 148.5384521484375 C 344.277099609375 149.51788330078125 346.8979187011719 149.79132080078125 349.4717712402344 149.7144775390625 C 350.5918273925781 149.6803741455078 351.7642517089844 149.56353759765625 352.68963623046875 148.93670654296875 C 353.7508850097656 148.2185516357422 354.292724609375 146.96453857421875 354.7249450683594 145.75408935546875 C 355.94512939453125 142.33668518066406 356.68804931640625 138.60211181640625 355.79534912109375 135.08447265625 C 354.90264892578125 131.5668182373047 352.0296936035156 128.370849609375 348.42840576171875 128.001708984375 L 347.0199279785156 128.26638793945312" stroke-width="0.6000000238418579" fill="rgb(159, 159, 159)" opacity="1.0"/>
    <path d="M 362.2204284667969 111.10897827148438 C 358.724609375 111.65716552734375 354.86260986328125 112.41793823242188 352.7540283203125 115.25100708007812 C 350.6995544433594 118.00326538085938 350.9798278808594 121.79275512695312 351.416259765625 125.20097351074219 C 351.5955810546875 126.58526611328125 351.8052673339844 128.03057861328125 352.6175842285156 129.1647491455078 C 353.9903564453125 131.0838165283203 356.6387634277344 131.55018615722656 358.9940490722656 131.4895782470703 C 361.18017578125 131.4341583251953 363.34698486328125 131.06512451171875 365.42822265625 130.3937530517578 C 368.8079528808594 129.3048858642578 372.2342529296875 126.98812866210938 372.81207275390625 123.48593139648438 C 373.12677001953125 121.59568786621094 372.53485107421875 119.63491821289062 371.5454406738281 117.99040222167969 C 370.5559997558594 116.34588623046875 369.183837890625 114.96902465820312 367.8098449707031 113.62907409667969 C 366.43585205078125 112.28912353515625 365.0570373535156 111.00192260742188 363.2970275878906 110.35983276367188 L 362.2204284667969 111.10897827148438" stroke-width="0.6000000238418579" fill="rgb(218, 166, 20)" opacity="1.0"/>
    <path d="M 432.204345703125 149.57667541503906 C 426.1583251953125 151.01075744628906 422.419677734375 157.07455444335938 423.853759765625 163.12054443359375 C 423.9765625 163.63824462890625 424.13592529296875 164.1466064453125 424.3306884765625 164.64178466796875 C 425.07098388671875 166.523193359375 426.40386962890625 168.25787353515625 428.26361083984375 169.04852294921875 C 429.835205078125 169.71685791015625 431.61529541015625 169.65817260742188 433.304931640625 169.4178466796875 C 437.82666015625 168.768310546875 442.092041015625 166.91986083984375 445.657958984375 164.0645751953125 C 446.5992431640625 163.30825805664062 447.509521484375 162.4544677734375 448.0194091796875 161.3570556640625 C 448.87646484375 159.51519775390625 448.4385986328125 157.28851318359375 447.447021484375 155.51377868652344 C 445.976806640625 152.87789916992188 443.3695068359375 150.97103881835938 440.49365234375 150.05282592773438 C 437.6177978515625 149.13461303710938 434.4962158203125 149.14793395996094 431.5439453125 149.77734375 L 432.204345703125 149.57667541503906" stroke-width="0.6000000238418579" fill="rgb(143, 165, 67)" opacity="1.0"/>
    <path d="M 143.50839233398438 416.730712890625 C 141.48992919921875 423.63720703125 149.56121826171875 430.95068359375 156.371337890625 428.77545166015625 C 163.181396484375 426.60015869140625 165.67071533203125 416.54376220703125 161.0225830078125 411.0483093261719 C 156.37445068359375 405.5528869628906 146.68133544921875 405.91302490234375 142.0356903076172 411.4193115234375 L 143.50839233398438 416.730712890625" stroke-width="0.6000000238418579" fill="rgb(233, 92, 21)" opacity="1.0"/>
    <path d="M 434.6883544921875 188.0533447265625 C 431.16204833984375 187.259521484375 426.867431640625 186.67703247070312 424.4761962890625 189.4039306640625 C 423.5667724609375 190.52615356445312 423.0279541015625 191.90292358398438 422.9342041015625 193.34429931640625 C 422.606201171875 196.90444946289062 424.024169921875 200.4027099609375 426.7384033203125 202.729736328125 C 429.04583740234375 204.69781494140625 432.041015625 205.56573486328125 434.954833984375 206.3372802734375 C 436.59228515625 206.76800537109375 438.3458251953125 207.17349243164062 439.9398193359375 206.63055419921875 C 442.05853271484375 205.88943481445312 443.2696533203125 203.679443359375 444.03955078125 201.57174682617188 C 445.17010498046875 198.488525390625 445.794189453125 195.24267578125 445.88763427734375 191.96002197265625 C 445.917724609375 190.82574462890625 445.8731689453125 189.63668823242188 445.32696533203125 188.642578125 C 444.7718505859375 187.7442626953125 443.96728515625 187.02685546875 443.011474609375 186.57781982421875 C 440.1650390625 185.10305786132812 436.81494140625 184.951171875 433.8468017578125 186.162353515625 L 434.6883544921875 188.0533447265625" stroke-width="0.6000000238418579" fill="rgb(70, 150, 179)" opacity="1.0"/>
    <path d="M 407.3663330078125 159.53988647460938 C 406.61871337890625 155.90342712402344 405.6373291015625 151.90408325195312 402.5754699707031 149.80882263183594 C 399.28497314453125 147.56002807617188 394.6537170410156 148.42762756347656 391.36492919921875 150.6787872314453 C 390.0965576171875 151.5461883544922 388.9190673828125 152.65054321289062 388.3606872558594 154.0819549560547 C 387.9012451171875 155.25848388671875 387.8943176269531 156.55758666992188 387.9631652832031 157.8184814453125 C 388.1754455566406 161.794921875 389.2166748046875 166.0125732421875 392.2016296386719 168.6470947265625 C 395.2118225097656 171.30023193359375 399.98028564453125 171.73834228515625 403.41455078125 169.6563720703125 C 406.84881591796875 167.57443237304688 408.70562744140625 163.16708374023438 407.76409912109375 159.26022338867188 L 407.3663330078125 159.53988647460938" stroke-width="0.6000000238418579" fill="rgb(140, 28, 33)" opacity="1.0"/>
    <path d="M 139.37615966796875 125.86029052734375 C 135.38206481933594 126.59906005859375 131.234130859375 127.41180419921875 127.91299438476562 129.7554168701172 C 124.5919189453125 132.09901428222656 122.31962585449219 136.46823120117188 123.65374755859375 140.3070526123047 C 125.31117248535156 145.04197692871094 131.84738159179688 146.619873046875 136.33331298828125 144.35391235351562 C 140.81922912597656 142.0879364013672 143.41159057617188 137.20928955078125 144.65869140625 132.34719848632812 C 145.19552612304688 130.88076782226562 145.1631622314453 129.26646423339844 144.5679473876953 127.82276916503906 C 143.83526611328125 126.47244262695312 141.685302734375 125.85496520996094 140.73097229003906 127.068603515625 L 139.37615966796875 125.86029052734375" stroke-width="0.6000000238418579" fill="rgb(159, 159, 159)" opacity="1.0"/>
    <path d="M 421.908447265625 176.35247802734375 C 418.9766845703125 174.12542724609375 415.218017578125 172.85430908203125 411.57470703125 173.37069702148438 C 407.93133544921875 173.8870849609375 404.5050964355469 176.3612060546875 403.3139343261719 179.85928344726562 C 402.47491455078125 182.33352661132812 402.793212890625 185.10882568359375 403.8362121582031 187.5067138671875 C 404.8792419433594 189.90460205078125 406.59637451171875 191.95745849609375 408.52703857421875 193.72177124023438 C 409.36767578125 194.48907470703125 410.3049621582031 195.2330322265625 411.4228515625 195.4305419921875 C 412.70440673828125 195.6575927734375 413.98626708984375 195.12664794921875 415.15740966796875 194.5499267578125 C 418.46380615234375 192.921630859375 421.6466064453125 190.724609375 423.483642578125 187.52899169921875 C 425.32061767578125 184.33331298828125 425.486572265625 179.9716796875 423.122314453125 177.1556396484375 L 421.908447265625 176.35247802734375" stroke-width="0.6000000238418579" fill="rgb(159, 159, 159)" opacity="1.0"/>
    <path d="M 402.6421203613281 186.508056640625 C 402.1187744140625 183.1021728515625 401.3895263671875 179.33905029296875 398.63702392578125 177.27719116210938 C 395.9630126953125 175.26824951171875 392.2719421386719 175.52981567382812 388.9516906738281 175.944580078125 C 387.6031188964844 176.11508178710938 386.1950378417969 176.31494140625 385.088134765625 177.10256958007812 C 383.2152099609375 178.43359375 382.75311279296875 181.01123046875 382.8050537109375 183.30499267578125 C 382.8524475097656 185.43402099609375 383.205322265625 187.54522705078125 383.85284423828125 189.57394409179688 C 384.903076171875 192.868408203125 387.14886474609375 196.2119140625 390.55755615234375 196.78512573242188 C 392.3973693847656 197.09725952148438 394.3085632324219 196.5267333984375 395.9129638671875 195.56817626953125 C 397.5173645019531 194.60958862304688 398.8622741699219 193.27752685546875 400.1712646484375 191.94351196289062 C 401.480224609375 190.60952758789062 402.73785400390625 189.27069091796875 403.368408203125 187.5587158203125 L 402.6421203613281 186.508056640625" stroke-width="0.6000000238418579" fill="rgb(218, 166, 20)" opacity="1.0"/>
    <path d="M 448.36669921875 177.04443359375 C 448.28271484375 182.7950439453125 452.87646484375 187.52487182617188 458.62701416015625 187.60882568359375 C 459.11944580078125 187.61602783203125 459.61175537109375 187.5882568359375 460.1002197265625 187.52578735351562 C 461.9564208984375 187.28802490234375 463.81524658203125 186.48526000976562 464.9464111328125 184.99566650390625 C 465.9024658203125 183.7369384765625 466.25341796875 182.12625122070312 466.4208984375 180.55557250976562 C 466.86328125 176.35064697265625 466.171630859375 172.10394287109375 464.41796875 168.25665283203125 C 463.95269775390625 167.240478515625 463.3929443359375 166.23004150390625 462.52374267578125 165.523681640625 C 461.06524658203125 164.33697509765625 458.9678955078125 164.22503662109375 457.15045166015625 164.71240234375 C 454.4517822265625 165.43408203125 452.1494140625 167.34146118164062 450.6734619140625 169.71392822265625 C 449.1973876953125 172.08642578125 448.5015869140625 174.89056396484375 448.39697265625 177.68252563476562 L 448.36669921875 177.04443359375" stroke-width="0.6000000238418579" fill="rgb(143, 165, 67)" opacity="1.0"/>
    <path d="M 148.3789520263672 101.20724487304688 C 141.22000122070312 107.261962890625 144.7338104248047 121.01292419433594 153.6988067626953 123.54489135742188 C 162.663818359375 126.07684326171875 172.59906005859375 116.93734741210938 171.49838256835938 107.623291015625 C 170.397705078125 98.3092041015625 159.6044921875 91.73187255859375 150.5970001220703 94.37612915039062 L 148.3789520263672 101.20724487304688" stroke-width="0.6000000238418579" fill="rgb(233, 92, 21)" opacity="1.0"/>
    <path d="M 456.7476806640625 151.8733673095703 C 454.4814453125 155.72499084472656 452.17388916015625 160.5609130859375 454.48114013671875 164.4058837890625 C 455.4588623046875 165.9002685546875 456.876220703125 167.05447387695312 458.5377197265625 167.70919799804688 C 462.60504150390625 169.43975830078125 467.2589111328125 169.09158325195312 471.0234375 166.7750244140625 C 474.2117919921875 164.80178833007812 476.3646240234375 161.60345458984375 478.373291015625 158.4644775390625 C 479.498779296875 156.69937133789062 480.63836669921875 154.78817749023438 480.60113525390625 152.70660400390625 C 480.52880859375 149.93243408203125 478.3843994140625 147.6720733642578 476.19384765625 145.96974182128906 C 472.9910888671875 143.474365234375 469.405517578125 141.5138397216797 465.576171875 140.16421508789062 C 464.252197265625 139.700439453125 462.8355712890625 139.30386352539062 461.458984375 139.5714569091797 C 460.1917724609375 139.8857421875 459.0433349609375 140.5619659423828 458.15380859375 141.51766967773438 C 455.3426513671875 144.3116912841797 453.89874267578125 148.19825744628906 454.20367431640625 152.1499786376953 L 456.7476806640625 151.8733673095703" stroke-width="0.6000000238418579" fill="rgb(70, 150, 179)" opacity="1.0"/>
    <path d="M 372.7573547363281 75.97308349609375 C 373.9013366699219 71.1923828125 374.9685974121094 65.84530639648438 372.4722900390625 61.61431884765625 C 369.7879638671875 57.070892333984375 363.7469177246094 55.5125732421875 358.5394592285156 56.366851806640625 C 356.53155517578125 56.69537353515625 354.4996643066406 57.35906982421875 353.02679443359375 58.762420654296875 C 351.8155517578125 59.91558837890625 351.0782775878906 61.469696044921875 350.4532775878906 63.02049255371094 C 348.47650146484375 67.9085693359375 347.3584899902344 73.55105590820312 349.4599304199219 78.3856201171875 C 351.5812683105469 83.25665283203125 357.0541687011719 86.4578857421875 362.34112548828125 85.88816833496094 C 367.62811279296875 85.31845092773438 372.3281555175781 81.07470703125 373.3913269042969 75.86088562011719 L 372.7573547363281 75.97308349609375" stroke-width="0.6000000238418579" fill="rgb(140, 28, 33)" opacity="1.0"/>
    <path d="M 133.42739868164062 412.5289306640625 C 130.38204956054688 415.623046875 127.247314453125 418.876220703125 125.77461242675781 422.9635009765625 C 124.30195617675781 427.05078125 124.9888916015625 432.26953125 128.50929260253906 434.8140869140625 C 132.8618621826172 437.9454345703125 139.55294799804688 435.3226318359375 142.09332275390625 430.58966064453125 C 144.63369750976562 425.856689453125 143.9149627685547 419.9957275390625 142.0281982421875 414.9735107421875 C 141.5998992919922 413.36029052734375 140.58248901367188 411.9663391113281 139.1766815185547 411.066650390625 C 137.70767211914062 410.3329772949219 135.4464569091797 411.10943603515625 135.35423278808594 412.757080078125 L 133.42739868164062 412.5289306640625" stroke-width="0.6000000238418579" fill="rgb(159, 159, 159)" opacity="1.0"/>
    <path d="M 413.9765625 207.76809692382812 C 411.8663330078125 203.4373779296875 408.22637939453125 199.7353515625 403.6664733886719 198.18902587890625 C 399.1065979003906 196.6427001953125 393.6452941894531 197.51092529296875 390.1903381347656 200.89373779296875 C 387.7507019042969 203.28851318359375 386.485107421875 206.71771240234375 386.2886047363281 210.1336669921875 C 386.0921325683594 213.54962158203125 386.88653564453125 216.96026611328125 388.1005554199219 220.159912109375 C 388.6296691894531 221.552001953125 389.28546142578125 222.973876953125 390.4745788574219 223.86407470703125 C 391.83740234375 224.88531494140625 393.64776611328125 225.021484375 395.3558654785156 225.038818359375 C 400.17816162109375 225.08773803710938 405.1916198730469 224.39947509765625 409.2225036621094 221.75091552734375 C 413.25335693359375 219.10235595703125 416.0203857421875 214.10610961914062 414.9205322265625 209.42233276367188 L 413.9765625 207.76809692382812" stroke-width="0.6000000238418579" fill="rgb(159, 159, 159)" opacity="1.0"/>
    <path d="M 381.6321716308594 121.86270141601562 C 377.242431640625 122.92369079589844 372.4089660644531 124.29318237304688 370.0215148925781 128.1162872314453 C 367.6944885253906 131.83099365234375 368.4452209472656 136.62216186523438 369.3549499511719 140.91212463378906 C 369.7270812988281 142.65432739257812 370.1441650390625 144.4709930419922 371.2954406738281 145.82919311523438 C 373.2413024902344 148.1274871826172 376.6586608886719 148.44522094726562 379.6483459472656 148.1230926513672 C 382.42340087890625 147.82518005371094 385.14129638671875 147.1303253173828 387.71881103515625 146.059814453125 C 391.9046630859375 144.32313537597656 396.02203369140625 141.01968383789062 396.3926696777344 136.50469970703125 C 396.5963439941406 134.0675048828125 395.6394348144531 131.63491821289062 394.20977783203125 129.64598083496094 C 392.78009033203125 127.65704345703125 390.89141845703125 126.04837036132812 389.0042419433594 124.48684692382812 C 387.1170959472656 122.92533874511719 385.2292785644531 121.43141174316406 382.9237060546875 120.79776000976562 L 381.6321716308594 121.86270141601562" stroke-width="0.6000000238418579" fill="rgb(218, 166, 20)" opacity="1.0"/>
    <path d="M 402.9014892578125 78.36148071289062 C 398.02947998046875 72.17207336425781 389.06243896484375 71.1041259765625 382.8730163574219 75.97613525390625 C 382.343017578125 76.393310546875 381.8432922363281 76.84757995605469 381.3775634765625 77.33549499511719 C 379.6083068847656 79.18978881835938 378.3236083984375 81.64743041992188 378.4054870605469 84.20783996582031 C 378.4744873046875 86.37158203125 379.4908142089844 88.38771057128906 380.6678161621094 90.20291137695312 C 383.8250427246094 95.05740356445312 388.2245178222656 98.97796630859375 393.4092102050781 101.557373046875 C 394.78082275390625 102.23687744140625 396.24798583984375 102.82876586914062 397.781982421875 102.83023071289062 C 400.3572082519531 102.834228515625 402.684814453125 101.14381408691406 404.1975402832031 99.05741882324219 C 406.4455261230469 95.96145629882812 407.2489318847656 91.94624328613281 406.77215576171875 88.149169921875 C 406.2953796386719 84.35209655761719 404.6162109375 80.76898193359375 402.3186950683594 77.70892333984375 L 402.9014892578125 78.36148071289062" stroke-width="0.6000000238418579" fill="rgb(143, 165, 67)" opacity="1.0"/>
    <path d="M 119.31033325195312 428.0218505859375 C 114.31178283691406 420.1947021484375 100.34884643554688 421.8284912109375 96.67958068847656 430.294921875 C 93.01036071777344 438.7613525390625 100.67059326171875 449.7213134765625 109.95933532714844 449.87060546875 C 119.24807739257812 450.01983642578125 127.12995910644531 440.29278564453125 125.72344970703125 431.1011962890625 L 119.31033325195312 428.0218505859375" stroke-width="0.6000000238418579" fill="rgb(233, 92, 21)" opacity="1.0"/>
    <path d="M 451.48388671875 200.14422607421875 C 449.2548828125 204.1673583984375 447.00946044921875 209.20428466796875 449.4857177734375 213.09881591796875 C 450.53143310546875 214.61029052734375 452.0203857421875 215.76007080078125 453.747314453125 216.389404296875 C 457.9781494140625 218.0616455078125 462.75701904296875 217.5794677734375 466.56854248046875 215.09576416015625 C 469.79638671875 212.98065185546875 471.9261474609375 209.6326904296875 473.9091796875 206.34963989257812 C 475.0201416015625 204.50360107421875 476.1417236328125 202.50689697265625 476.0479736328125 200.36624145507812 C 475.899658203125 197.513916015625 473.6331787109375 195.24542236328125 471.33404541015625 193.55230712890625 C 467.972412109375 191.07022094726562 464.2310791015625 189.14862060546875 460.25537109375 187.86199951171875 C 458.880859375 187.42010498046875 457.4127197265625 187.0498046875 456.0035400390625 187.36178588867188 C 454.7081298828125 187.71890258789062 453.5445556640625 188.44522094726562 452.65478515625 189.45220947265625 C 449.8369140625 192.4017333984375 448.454833984375 196.43890380859375 448.873779296875 200.49658203125 L 451.48388671875 200.14422607421875" stroke-width="0.6000000238418579" fill="rgb(70, 150, 179)" opacity="1.0"/>
    <path d="M 417.97369384765625 135.60601806640625 C 418.29986572265625 130.8846435546875 418.46319580078125 125.6376953125 415.420166015625 122.01705932617188 C 412.14892578125 118.129638671875 406.1649169921875 117.61039733886719 401.35601806640625 119.24949645996094 C 399.50164794921875 119.88067626953125 397.6778259277344 120.83392333984375 396.50238037109375 122.400634765625 C 395.5356140136719 123.68820190429688 395.08258056640625 125.28111267089844 394.7356872558594 126.85302734375 C 393.6357727050781 131.80874633789062 393.4712829589844 137.3442840576172 396.2353210449219 141.60081481933594 C 399.0240478515625 145.88882446289062 404.7297668457031 148.05841064453125 409.659423828125 146.67686462402344 C 414.58905029296875 145.2953338623047 418.37725830078125 140.51846313476562 418.557861328125 135.398681640625 L 417.97369384765625 135.60601806640625" stroke-width="0.6000000238418579" fill="rgb(140, 28, 33)" opacity="1.0"/>
    <path d="M 401.5265808105469 68.44696044921875 C 402.99322509765625 72.49978637695312 404.5640563964844 76.7008056640625 407.5938720703125 79.77059936523438 C 410.6236572265625 82.84031677246094 415.591796875 84.46054077148438 419.3787841796875 82.39761352539062 C 424.047607421875 79.8406982421875 424.5648193359375 72.724609375 421.4140625 68.42204284667969 C 418.26336669921875 64.11947631835938 412.706298828125 62.25262451171875 407.4001770019531 61.7911376953125 C 405.77191162109375 61.48370361328125 404.087646484375 61.79780578613281 402.6797180175781 62.67149353027344 C 401.3933410644531 63.6728515625 401.12017822265625 66.0306396484375 402.5562744140625 66.81898498535156 L 401.5265808105469 68.44696044921875" stroke-width="0.6000000238418579" fill="rgb(159, 159, 159)" opacity="1.0"/>
    <path d="M 439.447265625 236.13909912109375 C 436.46002197265625 239.96890258789062 434.7198486328125 244.90557861328125 435.339599609375 249.72036743164062 C 435.9593505859375 254.53515625 439.165283203125 259.0965576171875 443.7596435546875 260.7268371582031 C 447.00927734375 261.8753662109375 450.6756591796875 261.5023193359375 453.8564453125 260.1668701171875 C 457.037109375 258.8314208984375 459.7740478515625 256.6009216308594 462.134033203125 254.08389282226562 C 463.1602783203125 252.9879150390625 464.1575927734375 251.7640380859375 464.43695068359375 250.292724609375 C 464.758056640625 248.60604858398438 464.07928466796875 246.9061279296875 463.3382568359375 245.35150146484375 C 461.24609375 240.96249389648438 458.401611328125 236.7269287109375 454.2171630859375 234.249755859375 C 450.0325927734375 231.7725830078125 444.2818603515625 231.4801025390625 440.5272216796875 234.55133056640625 L 439.447265625 236.13909912109375" stroke-width="0.6000000238418579" fill="rgb(159, 159, 159)" opacity="1.0"/>
    <path d="M 406.0546569824219 264.740478515625 C 403.6641845703125 260.734130859375 400.83349609375 256.3844299316406 396.3306884765625 255.1990966796875 C 391.95330810546875 254.0401611328125 387.4559326171875 256.2474365234375 383.5017395019531 258.4581298828125 C 381.8966979980469 259.35858154296875 380.2319641113281 260.3261413574219 379.24432373046875 261.8777770996094 C 377.57232666015625 264.5011291503906 378.30487060546875 267.9700927734375 379.5378112792969 270.8212585449219 C 380.6811828613281 273.4680480957031 382.19866943359375 275.9369201660156 384.0438537597656 278.1523742675781 C 387.03857421875 281.7507019042969 391.55816650390625 284.8019104003906 396.1263122558594 283.7856140136719 C 398.5932922363281 283.24053955078125 400.70050048828125 281.55181884765625 402.2252502441406 279.532470703125 C 403.75 277.5130920410156 404.75909423828125 275.1572570800781 405.7220764160156 272.81732177734375 C 406.68511962890625 270.4773864746094 407.58123779296875 268.15753173828125 407.5007019042969 265.68878173828125 L 406.0546569824219 264.740478515625" stroke-width="0.6000000238418579" fill="rgb(218, 166, 20)" opacity="1.0"/>
    <path d="M 413.756591796875 89.24044799804688 C 409.6575927734375 96.00128173828125 411.8153991699219 104.80491638183594 418.57623291015625 108.9039306640625 C 419.1551513671875 109.25492858886719 419.75830078125 109.56440734863281 420.3809814453125 109.83006286621094 C 422.7474365234375 110.83905029296875 425.510009765625 111.17990112304688 427.88739013671875 110.20022583007812 C 429.896484375 109.37252807617188 431.4329833984375 107.70658874511719 432.723876953125 105.96047973632812 C 436.17291259765625 101.28182983398438 438.3062744140625 95.76498413085938 438.9024658203125 89.98306274414062 C 439.0574951171875 88.4544677734375 439.096435546875 86.86697387695312 438.5570068359375 85.42483520507812 C 437.65283203125 83.00325012207031 435.2435302734375 81.41178894042969 432.7493896484375 80.72573852539062 C 429.04730224609375 79.70465087890625 424.9906005859375 80.365234375 421.59027099609375 82.15203857421875 C 418.18994140625 83.93882751464844 415.41455078125 86.7801513671875 413.34881591796875 90.01821899414062 L 413.756591796875 89.24044799804688" stroke-width="0.6000000238418579" fill="rgb(143, 165, 67)" opacity="1.0"/>
    <path d="M 440.13360595703125 127.38235473632812 C 437.3929443359375 136.26138305664062 447.6732177734375 145.86209106445312 456.50927734375 143.18553161621094 C 465.3453369140625 140.50894165039062 468.75518798828125 127.57160949707031 462.85986328125 120.38510131835938 C 456.964599609375 113.19857788085938 444.44097900390625 113.47525024414062 438.33514404296875 120.49517822265625 L 440.13360595703125 127.38235473632812" stroke-width="0.6000000238418579" fill="rgb(233, 92, 21)" opacity="1.0"/>
    <path d="M 446.63934326171875 95.4683837890625 C 445.1568603515625 99.7957763671875 443.8348388671875 105.11871337890625 446.9373779296875 108.501220703125 C 448.22442626953125 109.79925537109375 449.882568359375 110.66595458984375 451.68304443359375 110.981689453125 C 456.11688232421875 111.88275146484375 460.71240234375 110.57887268066406 464.0123291015625 107.4835205078125 C 466.804931640625 104.85061645507812 468.3077392578125 101.20159912109375 469.6781005859375 97.6417236328125 C 470.4447021484375 95.6407470703125 471.1954345703125 93.49038696289062 470.7310791015625 91.41058349609375 C 470.08935546875 88.6434326171875 467.4752197265625 86.81658935546875 464.92926025390625 85.558837890625 C 461.20556640625 83.71347045898438 457.2076416015625 82.48297119140625 453.0906982421875 81.91506958007812 C 451.6678466796875 81.72160339355469 450.1658935546875 81.61453247070312 448.84033203125 82.165283203125 C 447.63397216796875 82.74041748046875 446.62103271484375 83.65414428710938 445.925048828125 84.79501342773438 C 443.67913818359375 88.17361450195312 443.0284423828125 92.36735534667969 444.1448974609375 96.26766967773438 L 446.63934326171875 95.4683837890625" stroke-width="0.6000000238418579" fill="rgb(70, 150, 179)" opacity="1.0"/>
    <path d="M 319.8988342285156 370.1316223144531 C 315.09417724609375 370.2216796875 309.7723388671875 370.52325439453125 306.38079833984375 373.92333984375 C 302.73968505859375 377.5780029296875 302.74676513671875 383.677001953125 304.8324890136719 388.3953552246094 C 305.6358947753906 390.21490478515625 306.7623291015625 391.97491455078125 308.4516296386719 393.0245056152344 C 309.8399963378906 393.8878479003906 311.49151611328125 394.2043762207031 313.11236572265625 394.4154357910156 C 318.222900390625 395.087158203125 323.83673095703125 394.7611083984375 327.89630126953125 391.5866394042969 C 331.98553466796875 388.3844299316406 333.6725158691406 382.42010498046875 331.8365783691406 377.5566711425781 C 330.0006408691406 372.6932678222656 324.83184814453125 369.28643798828125 319.63714599609375 369.5592041015625 L 319.8988342285156 370.1316223144531" stroke-width="0.6000000238418579" fill="rgb(140, 28, 33)" opacity="1.0"/>
    <path d="M 306.1824035644531 398.306884765625 C 301.6410217285156 399.2890930175781 296.9263000488281 400.3611755371094 293.2096252441406 403.1551818847656 C 289.4930419921875 405.94915771484375 287.04534912109375 411.0231018066406 288.70294189453125 415.366455078125 C 290.7610168457031 420.7232666015625 298.2887878417969 422.3023681640625 303.3399353027344 419.5570068359375 C 308.3910827636719 416.81170654296875 311.18719482421875 411.1442565917969 312.4457092285156 405.5420837402344 C 313.0090637207031 403.8468933105469 312.9164733886719 402.0022277832031 312.1861877441406 400.37200927734375 C 311.3019714355469 398.8533020019531 308.8224792480469 398.2212829589844 307.7730712890625 399.64178466796875 L 306.1824035644531 398.306884765625" stroke-width="0.6000000238418579" fill="rgb(159, 159, 159)" opacity="1.0"/>
    <path d="M 322.26788330078125 416.66546630859375 C 317.4341125488281 418.683349609375 313.1864318847656 422.4012451171875 311.22076416015625 427.2535400390625 C 309.255126953125 432.1058349609375 309.8536376953125 438.088623046875 313.30804443359375 442.05194091796875 C 315.75390625 444.8509521484375 319.396484375 446.440673828125 323.092041015625 446.8690185546875 C 326.7876281738281 447.29742431640625 330.5398254394531 446.64990234375 334.08941650390625 445.5335693359375 C 335.6337890625 445.046875 337.21856689453125 444.42462158203125 338.2597351074219 443.18994140625 C 339.4540710449219 441.77490234375 339.7158508300781 439.818359375 339.8422546386719 437.96533203125 C 340.19903564453125 432.73394775390625 339.7676696777344 427.24859619140625 337.14654541015625 422.7064208984375 C 334.5254211425781 418.1641845703125 329.2763671875 414.84600830078125 324.1229553222656 415.7449951171875 L 322.26788330078125 416.66546630859375" stroke-width="0.6000000238418579" fill="rgb(159, 159, 159)" opacity="1.0"/>
    <path d="M 262.8822326660156 416.7652587890625 C 257.8252868652344 418.02490234375 252.25885009765625 419.64422607421875 249.53469848632812 424.0750732421875 C 246.87939453125 428.38037109375 247.78436279296875 433.903076171875 248.86871337890625 438.8460693359375 C 249.31216430664062 440.85345458984375 249.80810546875 442.9464111328125 251.1475830078125 444.50439453125 C 253.4114990234375 447.14080810546875 257.35748291015625 447.4798583984375 260.8047790527344 447.0841064453125 C 264.0046081542969 446.7178955078125 267.1352844238281 445.8941650390625 270.1009826660156 444.6380615234375 C 274.91717529296875 442.600341796875 279.6416931152344 438.755126953125 280.0329895019531 433.5421142578125 C 280.24835205078125 430.7281494140625 279.12451171875 427.9288330078125 277.458740234375 425.64520263671875 C 275.79296875 423.36163330078125 273.6005859375 421.52056884765625 271.4103088378906 419.73388671875 C 269.2200622558594 417.94720458984375 267.02960205078125 416.238525390625 264.3639831542969 415.52593994140625 L 262.8822326660156 416.7652587890625" stroke-width="0.6000000238418579" fill="rgb(218, 166, 20)" opacity="1.0"/>
    <path d="M 223.03369140625 412.87701416015625 C 214.98379516601562 409.31329345703125 205.569091796875 412.9500732421875 202.00537109375 421.0 C 201.7001953125 421.68927001953125 201.4443359375 422.39935302734375 201.23965454101562 423.1248779296875 C 200.46246337890625 425.88189697265625 200.4794921875 428.981201171875 201.89996337890625 431.467041015625 C 203.10015869140625 433.56787109375 205.15869140625 435.02734375 207.27081298828125 436.2042236328125 C 212.92877197265625 439.34674072265625 219.324951171875 440.9169921875 225.794921875 440.7518310546875 C 227.50506591796875 440.705322265625 229.26373291015625 440.522216796875 230.77947998046875 439.72113037109375 C 233.32489013671875 438.377685546875 234.7392578125 435.490478515625 235.14163208007812 432.63848876953125 C 235.74200439453125 428.40472412109375 234.43475341796875 424.0189208984375 231.97723388671875 420.518310546875 C 229.519775390625 417.01776123046875 225.98675537109375 414.3575439453125 222.11669921875 412.5374755859375 L 223.03369140625 412.87701416015625" stroke-width="0.6000000238418579" fill="rgb(143, 165, 67)" opacity="1.0"/>
    <path d="M 284.1741638183594 359.0890808105469 C 289.23028564453125 368.0133056640625 304.7252197265625 367.0260925292969 309.26605224609375 357.90264892578125 C 313.80682373046875 348.7791748046875 305.9979248046875 336.24462890625 295.7621765136719 335.5379943847656 C 285.52642822265625 334.83135986328125 276.2659912109375 345.0993347167969 277.2808837890625 355.3186950683594 L 284.1741638183594 359.0890808105469" stroke-width="0.6000000238418579" fill="rgb(233, 92, 21)" opacity="1.0"/>
    <path d="M 334.0691833496094 360.7578125 C 333.910400390625 365.8089294433594 334.2445983886719 371.8591003417969 338.6199645996094 374.4222717285156 C 340.4008483886719 375.3745422363281 342.4333801269531 375.750732421875 344.4371337890625 375.4988708496094 C 349.41168212890625 375.0091552734375 353.8403015136719 372.1387023925781 356.318603515625 367.7977294921875 C 358.4114685058594 364.1100158691406 358.812255859375 359.7685546875 359.1021728515625 355.56427001953125 C 359.26116943359375 353.2023010253906 359.35491943359375 350.6877136230469 358.1885986328125 348.642578125 C 356.61163330078125 345.9293212890625 353.2575988769531 344.8500671386719 350.1605224609375 344.3495178222656 C 345.6288146972656 343.611328125 341.0075378417969 343.6114807128906 336.47589111328125 344.3500061035156 C 334.9106140136719 344.6081848144531 333.28985595703125 344.98333740234375 332.0692138671875 345.9957275390625 C 330.9823913574219 346.9950866699219 330.2098083496094 348.28912353515625 329.8457336425781 349.7200012207031 C 328.5724792480469 354.0174560546875 329.2485046386719 358.6571044921875 331.6950988769531 362.41253662109375 L 334.0691833496094 360.7578125" stroke-width="0.6000000238418579" fill="rgb(70, 150, 179)" opacity="1.0"/>
    <path d="M 296.5067138671875 422.1990966796875 C 291.02410888671875 422.29998779296875 284.9513244628906 422.64202880859375 281.07989501953125 426.5205078125 C 276.92364501953125 430.689453125 276.92938232421875 437.64892578125 279.30755615234375 443.0338134765625 C 280.2236022949219 445.1104736328125 281.5082702636719 447.11920166015625 283.4355163574219 448.3175048828125 C 285.0194091796875 449.30322265625 286.9038391113281 449.6650390625 288.7532958984375 449.906494140625 C 294.5846252441406 450.67498779296875 300.99066162109375 450.30517578125 305.6242370605469 446.684326171875 C 310.29168701171875 443.03192138671875 312.218994140625 436.22674560546875 310.1258850097656 430.6763916015625 C 308.0328063964844 425.1260986328125 302.1360778808594 421.236572265625 296.2083435058594 421.54583740234375 L 296.5067138671875 422.1990966796875" stroke-width="0.6000000238418579" fill="rgb(140, 28, 33)" opacity="1.0"/>
    <path d="M 331.51055908203125 392.09539794921875 C 326.9286804199219 392.74822998046875 322.16815185546875 393.47802734375 318.2767639160156 395.9896240234375 C 314.3854675292969 398.5011901855469 311.5926818847656 403.3682556152344 312.93060302734375 407.8014221191406 C 314.5943908691406 413.27001953125 321.961181640625 415.3743896484375 327.1749572753906 413.006103515625 C 332.38873291015625 410.63775634765625 335.5699157714844 405.205810546875 337.2187805175781 399.7293395996094 C 337.8990478515625 398.0851745605469 337.9382629394531 396.245849609375 337.32867431640625 394.57421875 C 336.5581970214844 393.0024108886719 334.1396789550781 392.1981506347656 332.9960021972656 393.5348205566406 L 331.51055908203125 392.09539794921875" stroke-width="0.6000000238418579" fill="rgb(159, 159, 159)" opacity="1.0"/>
    <path d="M 351.951416015625 416.0897216796875 C 346.95465087890625 417.7908935546875 342.4319152832031 421.2410888671875 340.1267395019531 425.9864501953125 C 337.821533203125 430.73187255859375 338.017822265625 436.7877197265625 341.2223205566406 441.006591796875 C 343.4917297363281 443.986572265625 347.0463562011719 445.831787109375 350.73291015625 446.51300048828125 C 354.41949462890625 447.1942138671875 358.2359619140625 446.7974853515625 361.8804626464844 445.9156494140625 C 363.4662170410156 445.531005859375 365.10174560546875 445.0128173828125 366.23223876953125 443.8419189453125 C 367.5289611816406 442.500244140625 367.9248046875 440.55078125 368.1774597167969 438.6962890625 C 368.8907470703125 433.460693359375 368.8288269042969 427.9163818359375 366.5013732910156 423.171875 C 364.1738586425781 418.4273681640625 359.1212463378906 414.7353515625 353.8789367675781 415.2899169921875 L 351.951416015625 416.0897216796875" stroke-width="0.6000000238418579" fill="rgb(159, 159, 159)" opacity="1.0"/>
    <path d="M 254.2349853515625 366.564453125 C 255.78805541992188 361.51739501953125 257.2957458496094 355.8400573730469 254.87652587890625 351.1578063964844 C 252.5302734375 346.6009826660156 247.26473999023438 344.49639892578125 242.40826416015625 342.8507995605469 C 240.4344482421875 342.1851806640625 238.35888671875 341.52032470703125 236.30609130859375 341.8673400878906 C 232.8338623046875 342.45220947265625 230.474853515625 345.6986999511719 229.01446533203125 348.89703369140625 C 227.65777587890625 351.8651123046875 226.734375 355.01263427734375 226.27243041992188 358.24322509765625 C 225.52044677734375 363.4884948730469 226.38470458984375 369.60003662109375 230.70327758789062 372.6673583984375 C 233.03228759765625 374.3266906738281 236.04934692382812 374.81634521484375 238.90243530273438 374.5658874511719 C 241.75555419921875 374.3153991699219 244.500244140625 373.3764343261719 247.19662475585938 372.4108581542969 C 249.89300537109375 371.4452819824219 252.52178955078125 370.438720703125 254.53497314453125 368.4986572265625 L 254.2349853515625 366.564453125" stroke-width="0.6000000238418579" fill="rgb(218, 166, 20)" opacity="1.0"/>
    <path d="M 255.83642578125 388.3506164550781 C 251.56976318359375 380.5792236328125 241.81100463867188 377.73809814453125 234.03961181640625 382.0047302246094 C 233.3741455078125 382.3700866699219 232.7354736328125 382.7821960449219 232.1282958984375 383.2379455566406 C 229.82159423828125 384.9700927734375 227.9415283203125 387.4615783691406 227.55975341796875 390.3194580078125 C 227.23690795898438 392.73455810546875 227.99310302734375 395.16064453125 228.96478271484375 397.393310546875 C 231.573974609375 403.3659973144531 235.73486328125 408.5311279296875 241.01510620117188 412.35211181640625 C 242.41253662109375 413.3597412109375 243.9322509765625 414.28778076171875 245.63510131835938 414.5726318359375 C 248.49359130859375 415.052490234375 251.38995361328125 413.6053466796875 253.45465087890625 411.568115234375 C 256.5221252441406 408.5457458496094 258.1553955078125 404.236083984375 258.3269958496094 399.9322509765625 C 258.4986267089844 395.62841796875 257.2957763671875 391.3401794433594 255.309814453125 387.5185241699219 L 255.83642578125 388.3506164550781" stroke-width="0.6000000238418579" fill="rgb(143, 165, 67)" opacity="1.0"/>
    <path d="M 207.06536865234375 373.20098876953125 C 201.17251586914062 381.95709228515625 209.20199584960938 395.769287109375 219.68844604492188 395.75732421875 C 230.17486572265625 395.74530029296875 238.12664794921875 382.7956848144531 234.073486328125 373.047119140625 C 230.02032470703125 363.2985534667969 216.311279296875 359.4912414550781 207.36892700195312 365.1218566894531 L 207.06536865234375 373.20098876953125" stroke-width="0.6000000238418579" fill="rgb(233, 92, 21)" opacity="1.0"/>
    <path d="M 260.2336730957031 366.1087646484375 C 261.3328552246094 371.0812683105469 263.16156005859375 376.9070739746094 268.0711364746094 378.3238830566406 C 270.046875 378.8116760253906 272.12530517578125 378.67437744140625 274.0196838378906 377.9308776855469 C 278.7563781738281 376.2173767089844 282.3687438964844 372.3143005371094 283.71124267578125 367.45941162109375 C 284.8394775390625 363.3381652832031 284.1528625488281 358.9986572265625 283.39202880859375 354.8206481933594 C 282.9608459472656 352.474365234375 282.427978515625 349.99530029296875 280.7810974121094 348.2875671386719 C 278.5672302246094 346.029296875 275.02362060546875 345.80810546875 271.8746032714844 346.0882873535156 C 267.2655334472656 346.49261474609375 262.7522888183594 347.6402893066406 258.5099182128906 349.4867858886719 C 257.0453186035156 350.12762451171875 255.55560302734375 350.8964538574219 254.6148681640625 352.1882629394531 C 253.80157470703125 353.4341735839844 253.368408203125 354.8898010253906 253.36813354492188 356.37762451171875 C 253.19171142578125 360.89080810546875 255.0040283203125 365.2541809082031 258.3259582519531 368.3143310546875 L 260.2336730957031 366.1087646484375" stroke-width="0.6000000238418579" fill="rgb(70, 150, 179)" opacity="1.0"/>
    <path d="M 330.0775451660156 361.395263671875 C 332.46990966796875 356.6207580566406 334.92120361328125 351.2281188964844 333.32666015625 346.13494873046875 C 331.6104736328125 340.6647644042969 325.6051025390625 337.52239990234375 319.885009765625 337.138427734375 C 317.6796569824219 336.98944091796875 315.3660583496094 337.1890869140625 313.4609069824219 338.3094482421875 C 311.8944091796875 339.2298583984375 310.73016357421875 340.69158935546875 309.6855163574219 342.1776123046875 C 306.38555908203125 346.8597412109375 303.80755615234375 352.5523681640625 304.83514404296875 358.1864013671875 C 305.8747253417969 363.8639221191406 310.8727722167969 368.6037902832031 316.60662841796875 369.3084716796875 C 322.3404846191406 370.0131530761719 328.3619689941406 366.6860046386719 330.77593994140625 361.433349609375 L 330.0775451660156 361.395263671875" stroke-width="0.6000000238418579" fill="rgb(140, 28, 33)" opacity="1.0"/>
    <path d="M 352.51165771484375 397.20867919921875 C 347.8793640136719 397.4499206542969 343.06182861328125 397.7520446777344 338.95233154296875 399.9106140136719 C 334.8428955078125 402.0691833496094 331.6190490722656 406.67755126953125 332.5575256347656 411.2227478027344 C 333.728515625 416.83074951171875 340.89385986328125 419.59130859375 346.31060791015625 417.6942138671875 C 351.7273254394531 415.79705810546875 355.38946533203125 410.6596374511719 357.5260009765625 405.3404846191406 C 358.35235595703125 403.7601623535156 358.5562744140625 401.9275817871094 358.09747314453125 400.2043151855469 C 357.4691467285156 398.5662536621094 355.1269226074219 397.5467529296875 353.86553955078125 398.77862548828125 L 352.51165771484375 397.20867919921875" stroke-width="0.6000000238418579" fill="rgb(159, 159, 159)" opacity="1.0"/>
    <path d="M 183.24969482421875 412.11712646484375 C 177.8328857421875 412.1822509765625 172.32037353515625 414.104736328125 168.5577392578125 417.998046875 C 164.79510498046875 421.891357421875 163.05438232421875 427.861083984375 164.8341064453125 432.99884033203125 C 166.09698486328125 436.629638671875 168.97552490234375 439.563720703125 172.35421752929688 441.4044189453125 C 175.73291015625 443.2451171875 179.58221435546875 444.0758056640625 183.41851806640625 444.3785400390625 C 185.08807373046875 444.50927734375 186.84881591796875 444.525634765625 188.32513427734375 443.7442626953125 C 190.01806640625 442.84918212890625 191.02618408203125 441.07391357421875 191.86431884765625 439.3455810546875 C 194.2305908203125 434.4661865234375 195.93914794921875 429.0382080078125 195.1826171875 423.66766357421875 C 194.42608642578125 418.297119140625 190.675537109375 413.08367919921875 185.38504028320312 411.9520263671875 L 183.24969482421875 412.11712646484375" stroke-width="0.6000000238418579" fill="rgb(159, 159, 159)" opacity="1.0"/>
    <path d="M 358.8055725097656 367.7911376953125 C 353.742919921875 369.1010437011719 348.17230224609375 370.7763671875 345.4791564941406 375.24700927734375 C 342.8539733886719 379.59100341796875 343.8121337890625 385.1241760253906 344.945068359375 390.0740966796875 C 345.40826416015625 392.0842590332031 345.9248962402344 394.1798095703125 347.2830505371094 395.7309265136719 C 349.5785827636719 398.355712890625 353.541015625 398.66009521484375 356.9964294433594 398.23162841796875 C 360.2037658691406 397.8351745605469 363.33758544921875 396.980224609375 366.3019104003906 395.69293212890625 C 371.11590576171875 393.6045227050781 375.8215637207031 389.7033996582031 376.1668395996094 384.46917724609375 C 376.3573913574219 381.6436767578125 375.2043151855469 378.8450622558594 373.51214599609375 376.56884765625 C 371.8199768066406 374.29266357421875 369.60345458984375 372.46527099609375 367.3895263671875 370.6924133300781 C 365.17559814453125 368.9195861816406 362.96221923828125 367.2250061035156 360.2810974121094 366.5342102050781 L 358.8055725097656 367.7911376953125" stroke-width="0.6000000238418579" fill="rgb(218, 166, 20)" opacity="1.0"/>
    <path d="M 377.16363525390625 380.37896728515625 C 373.173828125 388.3614807128906 376.4105529785156 398.0669860839844 384.39306640625 402.0567932128906 C 385.0766296386719 402.3984680175781 385.7835388183594 402.691162109375 386.5085144042969 402.93280029296875 C 389.263427734375 403.850341796875 392.402587890625 403.9798583984375 394.9870300292969 402.6592102050781 C 397.171142578125 401.54339599609375 398.7464599609375 399.5280456542969 400.0382080078125 397.445068359375 C 403.48822021484375 391.8646545410156 405.3811340332031 385.4622802734375 405.5202941894531 378.9029846191406 C 405.5541687011719 377.1690979003906 405.4520568847656 375.379638671875 404.712646484375 373.8068542480469 C 403.4728698730469 371.1657409667969 400.6162109375 369.59686279296875 397.74737548828125 369.0543518066406 C 393.4887390136719 368.2459411621094 388.98577880859375 369.3619689941406 385.3247375488281 371.68463134765625 C 381.6636962890625 374.0072937011719 378.80267333984375 377.45880126953125 376.7763671875 381.2914123535156 L 377.16363525390625 380.37896728515625" stroke-width="0.6000000238418579" fill="rgb(143, 165, 67)" opacity="1.0"/>
    <path d="M 367.3171081542969 361.1447448730469 C 372.4159240722656 370.1043701171875 387.9872741699219 369.08245849609375 392.5335388183594 359.9042053222656 C 397.07977294921875 350.7259216308594 389.2073669433594 338.1429748535156 378.91851806640625 337.452392578125 C 368.62969970703125 336.7618408203125 359.3421325683594 347.0994567871094 360.3817443847656 357.3685302734375 L 367.3171081542969 361.1447448730469" stroke-width="0.6000000238418579" fill="rgb(233, 92, 21)" opacity="1.0"/>
    <path d="M 395.906982421875 360.61328125 C 396.968994140625 365.688720703125 398.7640075683594 371.6413269042969 403.7464599609375 373.1402587890625 C 405.75250244140625 373.65960693359375 407.8702392578125 373.543701171875 409.8075866699219 372.8084411621094 C 414.6500244140625 371.11822509765625 418.372802734375 367.185791015625 419.79541015625 362.25811767578125 C 420.991455078125 358.07501220703125 420.34222412109375 353.6487731933594 419.6156005859375 349.3861389160156 C 419.2034912109375 346.9923095703125 418.689453125 344.46209716796875 417.0322265625 342.7044372558594 C 414.80413818359375 340.3797302246094 411.1986999511719 340.1138000488281 407.9892883300781 340.3629150390625 C 403.2918395996094 340.7216491699219 398.6834716796875 341.83831787109375 394.34283447265625 343.66961669921875 C 392.84429931640625 344.3052673339844 391.31866455078125 345.0709533691406 390.34600830078125 346.37542724609375 C 389.503662109375 347.6346130371094 389.0458984375 349.1116943359375 389.0285339355469 350.6265563964844 C 388.79705810546875 355.21966552734375 390.5921630859375 359.68310546875 393.9393005371094 362.83697509765625 L 395.906982421875 360.61328125" stroke-width="0.6000000238418579" fill="rgb(70, 150, 179)" opacity="1.0"/>
    <path d="M 388.0401306152344 415.3724365234375 C 386.47845458984375 420.6051025390625 384.9671936035156 426.47076416015625 387.4770202636719 431.316650390625 C 390.17626953125 436.5206298828125 396.7816162109375 438.619140625 402.61004638671875 437.99041748046875 C 404.85736083984375 437.74896240234375 407.1517639160156 437.13720703125 408.8714294433594 435.67083740234375 C 410.2855529785156 434.46588134765625 411.1985168457031 432.7872314453125 411.9867248535156 431.1053466796875 C 414.478759765625 425.8045654296875 416.0643310546875 419.61431884765625 414.02947998046875 414.12310791015625 C 411.97479248046875 408.5902099609375 406.1002502441406 404.7042541503906 400.2010192871094 405.0124206542969 C 394.3017883300781 405.3205871582031 388.82861328125 409.7399597167969 387.330078125 415.4580078125 L 388.0401306152344 415.3724365234375" stroke-width="0.6000000238418579" fill="rgb(140, 28, 33)" opacity="1.0"/>
    <path d="M 411.8901672363281 387.9993591308594 C 411.73828125 392.61602783203125 411.631103515625 397.4216003417969 413.42578125 401.6814880371094 C 415.220458984375 405.9412841796875 419.520751953125 409.529296875 424.10986328125 408.9820251464844 C 429.77313232421875 408.2938232421875 433.117431640625 401.4173889160156 431.692626953125 395.88250732421875 C 430.26776123046875 390.34765625 425.4796142578125 386.2800598144531 420.38232421875 383.7108459472656 C 418.884033203125 382.7574462890625 417.08294677734375 382.40032958984375 415.3343505859375 382.7099914550781 C 413.6558837890625 383.195068359375 412.446533203125 385.4329833984375 413.562255859375 386.7886047363281 L 411.8901672363281 387.9993591308594" stroke-width="0.6000000238418579" fill="rgb(159, 159, 159)" opacity="1.0"/>
    <path d="M 438.128662109375 370.40716552734375 C 438.81103515625 375.733154296875 441.3331298828125 380.94134521484375 445.595947265625 384.2016906738281 C 449.8587646484375 387.4620361328125 455.93524169921875 388.4945983886719 460.790771484375 386.1558837890625 C 464.2215576171875 384.498046875 466.7818603515625 381.32891845703125 468.2086181640625 377.7921447753906 C 469.6353759765625 374.2554016113281 470.013916015625 370.37054443359375 469.8741455078125 366.5587463378906 C 469.812255859375 364.8999938964844 469.62738037109375 363.1645202636719 468.6895751953125 361.80010986328125 C 467.61505126953125 360.2353820800781 465.7520751953125 359.4454345703125 463.9547119140625 358.81744384765625 C 458.88031005859375 357.0445251464844 453.3409423828125 355.9817810058594 448.139404296875 357.3396301269531 C 442.9378662109375 358.697509765625 438.2327880859375 362.9853515625 437.722412109375 368.3235168457031 L 438.128662109375 370.40716552734375" stroke-width="0.6000000238418579" fill="rgb(159, 159, 159)" opacity="1.0"/>
    <path d="M 424.263427734375 410.24359130859375 C 419.6400146484375 412.5013427734375 414.5987548828125 415.211181640625 412.880859375 420.050537109375 C 411.2035827636719 424.75439453125 413.2147216796875 429.9005126953125 415.2796630859375 434.45001220703125 C 416.1212158203125 436.29693603515625 417.0311279296875 438.2156982421875 418.64532470703125 439.4442138671875 C 421.37420654296875 441.52362060546875 425.254150390625 441.03839111328125 428.501220703125 439.9462890625 C 431.5155029296875 438.93377685546875 434.36871337890625 437.49365234375 436.9736328125 435.67010498046875 C 441.204345703125 432.710693359375 444.974365234375 428.02496337890625 444.278564453125 422.910888671875 C 443.90704345703125 420.1494140625 442.24542236328125 417.6778564453125 440.166748046875 415.81597900390625 C 438.0880126953125 413.9541015625 435.592041015625 412.6279296875 433.1092529296875 411.3537902832031 C 430.62646484375 410.0796813964844 428.1595458984375 408.8809509277344 425.43896484375 408.7418212890625 L 424.263427734375 410.24359130859375" stroke-width="0.6000000238418579" fill="rgb(218, 166, 20)" opacity="1.0"/>
    <path d="M 138.85556030273438 223.32659912109375 C 134.3135223388672 230.92791748046875 136.79354858398438 240.7720947265625 144.39486694335938 245.31411743164062 C 145.04576110839844 245.70306396484375 145.7234344482422 246.04531860351562 146.42279052734375 246.33837890625 C 149.08033752441406 247.45135498046875 152.17677307128906 247.81320190429688 154.832275390625 246.69891357421875 C 157.07644653320312 245.7574462890625 158.78515625 243.880615234375 160.2183837890625 241.915771484375 C 164.0474853515625 236.65106201171875 166.3970947265625 230.45709228515625 167.02313232421875 223.97735595703125 C 167.18572998046875 222.2642822265625 167.21795654296875 220.48605346679688 166.6033935546875 218.87481689453125 C 165.57330322265625 216.16925048828125 162.86358642578125 214.40423583984375 160.06536865234375 213.65383911132812 C 155.91183471679688 212.53692626953125 151.37327575683594 213.305908203125 147.57789611816406 215.33154296875 C 143.78253173828125 217.35711669921875 140.69471740722656 220.55926513671875 138.40444946289062 224.20062255859375 L 138.85556030273438 223.32659912109375" stroke-width="0.6000000238418579" fill="rgb(143, 165, 67)" opacity="1.0"/>
    <path d="M 171.2298583984375 261.6241760253906 C 175.7828369140625 271.32720947265625 192.005859375 271.5398864746094 197.46771240234375 262.3980712890625 C 202.9295654296875 253.2562255859375 195.79766845703125 239.57110595703125 185.1898193359375 238.01495361328125 C 174.58197021484375 236.45877075195312 164.11111450195312 246.41497802734375 164.349853515625 257.1436767578125 L 171.2298583984375 261.6241760253906" stroke-width="0.6000000238418579" fill="rgb(233, 92, 21)" opacity="1.0"/>
    <path d="M 148.03158569335938 317.6409606933594 C 144.2871551513672 321.2441711425781 140.1880340576172 325.9366455078125 141.56716918945312 330.9651794433594 C 142.19387817382812 332.9449768066406 143.4194793701172 334.6815490722656 145.07496643066406 335.93524169921875 C 149.08753967285156 339.1474304199219 154.4081573486328 340.21551513671875 159.34957885742188 338.8007507324219 C 163.53817749023438 337.58990478515625 166.9510498046875 334.6827392578125 170.18377685546875 331.79693603515625 C 171.99713134765625 330.17291259765625 173.87200927734375 328.38970947265625 174.48245239257812 326.0469970703125 C 175.2705078125 322.917724609375 173.57730102539062 319.7146911621094 171.65756225585938 317.1221008300781 C 168.85272216796875 313.3243103027344 165.45172119140625 310.0055236816406 161.58636474609375 307.2945251464844 C 160.24905395507812 306.3603820800781 158.786865234375 305.47247314453125 157.1614990234375 305.3408508300781 C 155.64395141601562 305.2958068847656 154.1460723876953 305.6932678222656 152.8505096435547 306.4848327636719 C 148.8271942138672 308.73297119140625 145.9925994873047 312.6329040527344 145.0960693359375 317.1537170410156 L 148.03158569335938 317.6409606933594" stroke-width="0.6000000238418579" fill="rgb(70, 150, 179)" opacity="1.0"/>
    <path d="M 125.89566040039062 307.9919128417969 C 124.45465087890625 302.6686096191406 122.63388061523438 296.82867431640625 117.90255737304688 294.0020751953125 C 112.8182373046875 290.96875 106.03097534179688 292.6786193847656 101.36064147949219 296.31707763671875 C 99.55935668945312 297.7191467285156 97.91450500488281 299.4642028808594 97.217529296875 301.6375427246094 C 96.64390563964844 303.4239807128906 96.75244140625 305.3507385253906 96.96978759765625 307.2138977050781 C 97.64817810058594 313.09027099609375 99.57766723632812 319.2484436035156 104.24424743652344 322.8816223144531 C 108.94999694824219 326.5400390625 116.06005859375 326.7535705566406 120.96157836914062 323.3526916503906 C 125.86306762695312 319.9518127441406 128.2130889892578 313.24737548828125 126.45982360839844 307.5408935546875 L 125.89566040039062 307.9919128417969" stroke-width="0.6000000238418579" fill="rgb(140, 28, 33)" opacity="1.0"/>
    <path d="M 140.65536499023438 279.3036193847656 C 136.5597686767578 281.4161682128906 132.32135009765625 283.6595458984375 129.48309326171875 287.29437255859375 C 126.6448974609375 290.92913818359375 125.6102294921875 296.4198913574219 128.31846618652344 300.1515197753906 C 131.67178344726562 304.7503967285156 139.2882843017578 304.3200378417969 143.41708374023438 300.387451171875 C 147.54586791992188 296.45489501953125 148.7610321044922 290.30584716796875 148.52056884765625 284.6161193847656 C 148.62258911132812 282.84735107421875 148.05789184570312 281.10467529296875 146.93785095214844 279.7319641113281 C 145.69915771484375 278.5057373046875 143.16156005859375 278.54034423828125 142.52316284179688 280.1715087890625 L 140.65536499023438 279.3036193847656" stroke-width="0.6000000238418579" fill="rgb(159, 159, 159)" opacity="1.0"/>
    <path d="M 164.28707885742188 287.0740966796875 C 163.31304931640625 292.4246826171875 164.15097045898438 298.2255554199219 167.26654052734375 302.6797790527344 C 170.38211059570312 307.1340026855469 175.93145751953125 309.9936218261719 181.33566284179688 309.2245178222656 C 185.15579223632812 308.6759338378906 188.59896850585938 306.40155029296875 191.06051635742188 303.4247741699219 C 193.5220947265625 300.4479675292969 195.0784912109375 296.8138122558594 196.11212158203125 293.09124755859375 C 196.56097412109375 291.4710388183594 196.91452026367188 289.739013671875 196.42745971679688 288.1343994140625 C 195.86990356445312 286.2944641113281 194.31365966796875 284.9607849121094 192.7711181640625 283.80352783203125 C 188.4161376953125 280.5364074707031 183.39453125 277.8122863769531 177.95697021484375 277.5284423828125 C 172.5194091796875 277.2445983886719 166.66290283203125 279.94140625 164.53366088867188 284.9381103515625 L 164.28707885742188 287.0740966796875" stroke-width="0.6000000238418579" fill="rgb(159, 159, 159)" opacity="1.0"/>
    <path d="M 122.56623840332031 342.2357482910156 C 122.38136291503906 336.9841613769531 121.9483642578125 331.1547546386719 118.14756774902344 327.54095458984375 C 114.45623779296875 324.02130126953125 108.8194580078125 323.75885009765625 103.71690368652344 323.7945861816406 C 101.64407348632812 323.8121643066406 99.47589111328125 323.86358642578125 97.658935546875 324.85894775390625 C 94.58489990234375 326.5406494140625 93.42509460449219 330.36199951171875 93.09451293945312 333.8451843261719 C 92.78642272949219 337.07806396484375 92.94415283203125 340.3384094238281 93.56283569335938 343.5264587402344 C 94.5655517578125 348.7033386230469 97.37022399902344 354.1678161621094 102.43045043945312 355.64410400390625 C 105.1611328125 356.44512939453125 108.15740966796875 355.92205810546875 110.75833129882812 354.756591796875 C 113.3592529296875 353.5910949707031 115.63380432128906 351.8136291503906 117.85427856445312 350.02685546875 C 120.07473754882812 348.2400817871094 122.21830749511719 346.43682861328125 123.47872924804688 343.95654296875 L 122.56623840332031 342.2357482910156" stroke-width="0.6000000238418579" fill="rgb(218, 166, 20)" opacity="1.0"/>
    <path d="M 159.13336181640625 346.5374450683594 C 151.83277893066406 351.175048828125 149.67401123046875 360.8528747558594 154.31161499023438 368.1534729003906 C 154.70872497558594 368.77862548828125 155.1497039794922 369.37481689453125 155.63119506835938 369.93756103515625 C 157.461181640625 372.0755615234375 160.00384521484375 373.75091552734375 162.81002807617188 373.9447326660156 C 165.181396484375 374.1087341308594 167.496337890625 373.2215576171875 169.60955810546875 372.1365661621094 C 175.26214599609375 369.22454833984375 180.0318603515625 364.8521423339844 183.42333984375 359.4735412597656 C 184.31744384765625 358.0503234863281 185.1263427734375 356.51300048828125 185.29766845703125 354.8373718261719 C 185.58694458007812 352.0245056152344 183.99777221679688 349.29473876953125 181.8858642578125 347.4113464355469 C 178.75244140625 344.6130065917969 174.45492553710938 343.29107666015625 170.25408935546875 343.391845703125 C 166.05325317382812 343.49261474609375 161.953125 344.9305725097656 158.35601806640625 347.1018981933594 L 159.13336181640625 346.5374450683594" stroke-width="0.6000000238418579" fill="rgb(143, 165, 67)" opacity="1.0"/>
    <path d="M 137.351318359375 383.1872863769531 C 131.56007385253906 374.14898681640625 115.42390441894531 376.0618896484375 111.19760131835938 385.85418701171875 C 106.97134399414062 395.6465148925781 115.84457397460938 408.30108642578125 126.58120727539062 408.4573669433594 C 137.31781005859375 408.6136779785156 146.4110565185547 397.3569030761719 144.76927185058594 386.7353210449219 L 137.351318359375 383.1872863769531" stroke-width="0.6000000238418579" fill="rgb(233, 92, 21)" opacity="1.0"/>
    <path d="M 185.85821533203125 360.6476135253906 C 184.4896240234375 365.4849853515625 183.35647583007812 371.4053039550781 186.96304321289062 374.93212890625 C 188.45294189453125 376.2798156738281 190.32427978515625 377.1319580078125 192.31900024414062 377.3710021972656 C 197.23849487304688 378.0952453613281 202.203857421875 376.3901062011719 205.6405029296875 372.7962951660156 C 208.54794311523438 369.74029541015625 209.97940063476562 365.64617919921875 211.27081298828125 361.6577453613281 C 211.99264526367188 359.4161376953125 212.68814086914062 357.0115051269531 212.054443359375 354.7568054199219 C 211.18511962890625 351.7584228515625 208.20733642578125 349.90966796875 205.33831787109375 348.68133544921875 C 201.1417236328125 346.87841796875 196.6810302734375 345.7666320800781 192.12918090820312 345.3891296386719 C 190.55621337890625 345.26171875 188.9014892578125 345.2338562011719 187.47967529296875 345.9173583984375 C 186.19015502929688 346.6204833984375 185.13308715820312 347.6836853027344 184.4373779296875 348.97723388671875 C 182.17437744140625 352.8189392089844 181.71054077148438 357.46002197265625 183.16851806640625 361.6736145019531 L 185.85821533203125 360.6476135253906" stroke-width="0.6000000238418579" fill="rgb(70, 150, 179)" opacity="1.0"/>
  </g>
</svg>
