<?xml version="1.0" ?>
<svg xmlns="http://www.w3.org/2000/svg" version="1.1" width="600" height="600">
  <defs/>
  <g>
    <path d="M 355.1749572753906 344.47760009765625 C 359.2759094238281 347.7648010253906 366.4629821777344 344.3526611328125 366.89166259765625 339.1483154296875 C 367.3203430175781 333.9439392089844 361.22369384765625 329.4611511230469 356.2179870605469 331.0685119628906 C 351.2123107910156 332.67584228515625 348.7547302246094 339.32110595703125 351.17828369140625 343.9920959472656 L 355.1749572753906 344.47760009765625" stroke-width="0.6000000238418579" fill="rgb(233, 92, 21)" opacity="1.0"/>
    <path d="M 111.57864379882812 201.12408447265625 C 113.84317016601562 199.48046875 116.37771606445312 197.28228759765625 116.01559448242188 194.49807739257812 C 115.828369140625 193.39569091796875 115.30368041992188 192.3785400390625 114.51388549804688 191.58700561523438 C 112.6124267578125 189.575927734375 109.85415649414062 188.61123657226562 107.11378479003906 188.99884033203125 C 104.79002380371094 189.33358764648438 102.7540283203125 190.630615234375 100.815673828125 191.92962646484375 C 99.72799682617188 192.66107177734375 98.59567260742188 193.47286987304688 98.09616088867188 194.67694091796875 C 97.44352722167969 196.28729248046875 98.10870361328125 198.12127685546875 98.94001770019531 199.646484375 C 100.15386962890625 201.88018798828125 101.72126770019531 203.90264892578125 103.58139038085938 205.635498046875 C 104.22525024414062 206.23300170898438 104.93911743164062 206.81512451171875 105.79618835449219 207.0059814453125 C 106.6021728515625 207.1427001953125 107.4305419921875 207.04193115234375 108.18025207519531 206.71600341796875 C 110.49288940429688 205.81576538085938 112.294189453125 203.94635009765625 113.1080322265625 201.6019287109375 L 111.57864379882812 201.12408447265625" stroke-width="0.6000000238418579" fill="rgb(70, 150, 179)" opacity="1.0"/>
    <path d="M 454.517578125 422.76763916015625 C 455.765625 425.809326171875 457.27667236328125 429.12847900390625 460.285400390625 430.4488525390625 C 463.518310546875 431.865234375 467.406005859375 430.349365234375 469.898193359375 427.85009765625 C 470.8594970703125 426.8868408203125 471.7027587890625 425.73236083984375 471.9534912109375 424.39495849609375 C 472.1600341796875 423.295654296875 471.95263671875 422.1639404296875 471.68560791015625 421.0780029296875 C 470.84759521484375 417.6524658203125 469.24859619140625 414.1531982421875 466.2181396484375 412.3509521484375 C 463.1627197265625 410.53662109375 458.941162109375 410.9387512207031 456.2945556640625 413.314697265625 C 453.64794921875 415.690673828125 452.7562255859375 419.8311767578125 454.2174072265625 423.07635498046875 L 454.517578125 422.76763916015625" stroke-width="0.6000000238418579" fill="rgb(140, 28, 33)" opacity="1.0"/>
    <path d="M 89.36627197265625 202.97735595703125 C 92.12319946289062 202.29412841796875 94.98443603515625 201.552734375 97.20429992675781 199.77752685546875 C 99.42411804199219 198.0023193359375 100.82687377929688 194.857177734375 99.73455810546875 192.23358154296875 C 98.37899780273438 188.99810791015625 93.75039672851562 188.17095947265625 90.7142333984375 189.94085693359375 C 87.67807006835938 191.71075439453125 86.07327270507812 195.22491455078125 85.40678405761719 198.67108154296875 C 85.09359741210938 199.7171630859375 85.18392944335938 200.8426513671875 85.65997314453125 201.82537841796875 C 86.22805786132812 202.7371826171875 87.75466918945312 203.0780029296875 88.36988830566406 202.1907958984375 L 89.36627197265625 202.97735595703125" stroke-width="0.6000000238418579" fill="rgb(159, 159, 159)" opacity="1.0"/>
    <path d="M 382.2615661621094 296.132568359375 C 385.3618469238281 295.1593933105469 388.19622802734375 293.1028137207031 389.68499755859375 290.2164001464844 C 391.17376708984375 287.3299865722656 391.14239501953125 283.6001281738281 389.2325439453125 280.95635986328125 C 387.8798828125 279.0888977050781 385.7195129394531 277.9007873535156 383.46075439453125 277.4271240234375 C 381.20196533203125 276.95343017578125 378.8473205566406 277.1412353515625 376.59136962890625 277.6300964355469 C 375.6097717285156 277.8433837890625 374.5955505371094 278.13818359375 373.8825378417969 278.8420715332031 C 373.0646667480469 279.648681640625 372.7922668457031 280.8425598144531 372.6094055175781 281.9801330566406 C 372.09307861328125 285.1917419433594 372.04931640625 288.6048278808594 373.4116516113281 291.5591125488281 C 374.7740173339844 294.5133972167969 377.82904052734375 296.86016845703125 381.0634765625 296.5962829589844 L 382.2615661621094 296.132568359375" stroke-width="0.6000000238418579" fill="rgb(159, 159, 159)" opacity="1.0"/>
    <path d="M 100.71664428710938 432.002197265625 C 101.89239501953125 429.5140380859375 103.09152221679688 426.6973876953125 102.191162109375 424.1025390625 C 101.31912231445312 421.57781982421875 98.75918579101562 420.101318359375 96.37620544433594 418.8919677734375 C 95.40744018554688 418.40216064453125 94.38613891601562 417.9051513671875 93.30148315429688 417.9317626953125 C 91.46697998046875 417.9757080078125 90.00912475585938 419.47528076171875 89.01838684082031 421.0167236328125 C 88.0982666015625 422.447021484375 87.3883056640625 424.0020751953125 86.91021728515625 425.63427734375 C 86.13298034667969 428.2841796875 86.12515258789062 431.5008544921875 88.12513732910156 433.40362548828125 C 89.203369140625 434.43243408203125 90.72331237792969 434.908935546875 92.21363830566406 434.9915771484375 C 93.70396423339844 435.0740966796875 95.18946838378906 434.79351806640625 96.65203857421875 434.49560546875 C 98.11459350585938 434.1976318359375 99.54534912109375 433.87353515625 100.72779846191406 433.022216796875 L 100.71664428710938 432.002197265625" stroke-width="0.6000000238418579" fill="rgb(218, 166, 20)" opacity="1.0"/>
    <path d="M 98.94406127929688 139.85812377929688 C 104.37362670898438 139.8062744140625 108.733154296875 135.3627166748047 108.68130493164062 129.93313598632812 C 108.6768798828125 129.46820068359375 108.63945007324219 129.00416564941406 108.5693359375 128.54452514648438 C 108.30262756347656 126.79803466796875 107.5025634765625 125.06185913085938 106.07083129882812 124.02816772460938 C 104.86102294921875 123.15449523925781 103.332763671875 122.85995483398438 101.84646606445312 122.73773193359375 C 97.86758422851562 122.41604614257812 93.87515258789062 123.16560363769531 90.28387451171875 124.90852355957031 C 89.33535766601562 125.37083435058594 88.39443969726562 125.92218017578125 87.74755859375 126.7586669921875 C 86.66073608398438 128.1623077392578 86.60287475585938 130.14447021484375 87.10430908203125 131.8487091064453 C 87.84698486328125 134.37939453125 89.69972229003906 136.50894165039062 91.97262573242188 137.84800720214844 C 94.24551391601562 139.18707275390625 96.90806579589844 139.77987670898438 99.54562377929688 139.81494140625 L 98.94406127929688 139.85812377929688" stroke-width="0.6000000238418579" fill="rgb(143, 165, 67)" opacity="1.0"/>
    <path d="M 456.65948486328125 343.8800048828125 C 460.304443359375 348.62823486328125 469.1796875 346.8027648925781 471.065185546875 341.16217041015625 C 472.9505615234375 335.52154541015625 467.42230224609375 328.9096984863281 461.4493408203125 329.33026123046875 C 455.4764404296875 329.7508544921875 450.95599365234375 336.4351501464844 452.37017822265625 342.2591857910156 L 456.65948486328125 343.8800048828125" stroke-width="0.6000000238418579" fill="rgb(233, 92, 21)" opacity="1.0"/>
    <path d="M 97.82833862304688 219.75546264648438 C 99.424560546875 217.28488159179688 101.07504272460938 214.16815185546875 99.66349792480469 211.576171875 C 99.06161499023438 210.56655883789062 98.16128540039062 209.7685546875 97.08665466308594 209.29229736328125 C 94.45947265625 208.04241943359375 91.38946533203125 208.1434326171875 88.85012817382812 209.56329345703125 C 86.69914245605469 210.77325439453125 85.1954345703125 212.8173828125 83.78817749023438 214.82635498046875 C 82.99951171875 215.9561767578125 82.19754028320312 217.18167114257812 82.164794921875 218.55157470703125 C 82.1361083984375 220.3779296875 83.484130859375 221.92333984375 84.87786865234375 223.10305786132812 C 86.91546630859375 224.8321533203125 89.219482421875 226.22000122070312 91.7005615234375 227.21282958984375 C 92.5584716796875 227.55426025390625 93.47918701171875 227.85400390625 94.39181518554688 227.71588134765625 C 95.23381042480469 227.54403686523438 96.00762939453125 227.13092041015625 96.618896484375 226.52688598632812 C 98.54437255859375 224.76678466796875 99.60079956054688 222.2506103515625 99.50894165039062 219.64349365234375 L 97.82833862304688 219.75546264648438" stroke-width="0.6000000238418579" fill="rgb(70, 150, 179)" opacity="1.0"/>
    <path d="M 103.20101928710938 82.11135864257812 C 103.30035400390625 85.28828430175781 103.54388427734375 88.80549621582031 105.82070922851562 91.02043151855469 C 108.2679443359375 93.3983154296875 112.30160522460938 93.34310913085938 115.40493774414062 91.92459106445312 C 116.6016845703125 91.378173828125 117.75637817382812 90.61859130859375 118.43655395507812 89.49266052246094 C 118.99606323242188 88.56727600097656 119.19172668457031 87.47238159179688 119.31788635253906 86.39865112304688 C 119.71981811523438 83.01310729980469 119.45770263671875 79.302978515625 117.3245849609375 76.64434814453125 C 115.1728515625 73.96636962890625 111.2142333984375 72.9000244140625 108.01289367675781 74.154541015625 C 104.81155395507812 75.4090576171875 102.60116577148438 78.85577392578125 102.82460021972656 82.28915405273438 L 103.20101928710938 82.11135864257812" stroke-width="0.6000000238418579" fill="rgb(140, 28, 33)" opacity="1.0"/>
    <path d="M 92.388427734375 416.3310546875 C 95.44094848632812 415.750244140625 98.61087036132812 415.1121826171875 101.14230346679688 413.306396484375 C 103.67367553710938 411.5005187988281 105.39480590820312 408.1492004394531 104.35916137695312 405.2178039550781 C 103.07269287109375 401.6021728515625 98.06640625 400.4207458496094 94.64361572265625 402.1717529296875 C 91.22085571289062 403.92279052734375 89.25686645507812 407.6650390625 88.32192993164062 411.3893737792969 C 87.91700744628906 412.5133056640625 87.94808959960938 413.748046875 88.40908813476562 414.85009765625 C 88.97488403320312 415.8802490234375 90.62197875976562 416.3441162109375 91.3472900390625 415.4119873046875 L 92.388427734375 416.3310546875" stroke-width="0.6000000238418579" fill="rgb(159, 159, 159)" opacity="1.0"/>
    <path d="M 472.23876953125 65.25837707519531 C 473.12396240234375 62.58990478515625 473.1141357421875 59.56004333496094 471.8411865234375 57.054931640625 C 470.5682373046875 54.54981994628906 467.93426513671875 52.685089111328125 465.1124267578125 52.688323974609375 C 463.1173095703125 52.693145751953125 461.1905517578125 53.60856628417969 459.7154541015625 54.9544677734375 C 458.2403564453125 56.30035400390625 457.18109130859375 58.04815673828125 456.383056640625 59.87896728515625 C 456.0362548828125 60.67588806152344 455.7301025390625 61.53692626953125 455.863525390625 62.39347839355469 C 456.0159912109375 63.375579833984375 456.7161865234375 64.17070007324219 457.4222412109375 64.87451171875 C 459.4154052734375 66.86152648925781 461.7889404296875 68.61875915527344 464.55181884765625 69.15692138671875 C 467.314697265625 69.695068359375 470.50732421875 68.73776245117188 471.958251953125 66.33392333984375 L 472.23876953125 65.25837707519531" stroke-width="0.6000000238418579" fill="rgb(159, 159, 159)" opacity="1.0"/>
    <path d="M 91.70147705078125 105.8817138671875 C 94.65534973144531 106.70314025878906 97.97430419921875 107.48822021484375 100.65348815917969 106.00994873046875 C 103.26104736328125 104.57600402832031 104.39907836914062 101.48660278320312 105.27723693847656 98.64190673828125 C 105.63226318359375 97.48574829101562 105.98526000976562 96.27058410644531 105.75132751464844 95.08467102050781 C 105.35687255859375 93.07870483398438 103.43525695800781 91.760986328125 101.55584716796875 90.96406555175781 C 99.81170654296875 90.22370910644531 97.97029113769531 89.73764038085938 96.08798217773438 89.52072143554688 C 93.03173828125 89.16738891601562 89.49838256835938 89.76583862304688 87.78657531738281 92.32089233398438 C 86.86041259765625 93.69891357421875 86.6240234375 95.45773315429688 86.81460571289062 97.10966491699219 C 87.00518798828125 98.76161193847656 87.5936279296875 100.3397216796875 88.19677734375 101.88937377929688 C 88.79991149902344 103.43902587890625 89.42575073242188 104.94879150390625 90.58364868164062 106.08647155761719 L 91.70147705078125 105.8817138671875" stroke-width="0.6000000238418579" fill="rgb(218, 166, 20)" opacity="1.0"/>
    <path d="M 123.77587890625 131.48199462890625 C 128.68338012695312 130.05039978027344 131.5011749267578 124.91156005859375 130.069580078125 120.00404357910156 C 129.94700622558594 119.58380126953125 129.7947540283203 119.17280578613281 129.61399841308594 118.77410888671875 C 128.92691040039062 117.25930786132812 127.75906372070312 115.889892578125 126.19792175292969 115.31816101074219 C 124.87869262695312 114.83489990234375 123.41854858398438 114.95767211914062 122.04037475585938 115.22592163085938 C 118.35235595703125 115.94905090332031 114.92521667480469 117.646484375 112.11495971679688 120.14187622070312 C 111.37324523925781 120.802734375 110.66110229492188 121.54237365722656 110.28814697265625 122.46542358398438 C 109.6611328125 124.01467895507812 110.11416625976562 125.8258056640625 111.00320434570312 127.24246215820312 C 112.3216552734375 129.3466033935547 114.54380798339844 130.80410766601562 116.94517517089844 131.43804931640625 C 119.34652709960938 132.07200622558594 121.91073608398438 131.93028259277344 124.31002807617188 131.28944396972656 L 123.77587890625 131.48199462890625" stroke-width="0.6000000238418579" fill="rgb(143, 165, 67)" opacity="1.0"/>
    <path d="M 391.7803649902344 304.9140319824219 C 395.1490478515625 309.94610595703125 404.2283020019531 308.6844482421875 406.50103759765625 303.1136474609375 C 408.7737731933594 297.5428466796875 403.6258850097656 290.5060729980469 397.5685729980469 290.5395202636719 C 391.5112609863281 290.572998046875 386.5101013183594 297.0248718261719 387.556396484375 302.9969177246094 L 391.7803649902344 304.9140319824219" stroke-width="0.6000000238418579" fill="rgb(233, 92, 21)" opacity="1.0"/>
    <path d="M 120.8184814453125 108.95684814453125 C 123.26908874511719 107.50851440429688 126.04617309570312 105.5242919921875 125.94541931152344 102.66978454589844 C 125.86111450195312 101.53536987304688 125.4268798828125 100.45504760742188 124.70257568359375 99.57791137695312 C 122.96888732910156 97.359375 120.26742553710938 96.1187744140625 117.45486450195312 96.24951171875 C 115.06932067871094 96.36651611328125 112.88328552246094 97.48564147949219 110.79595947265625 98.61610412597656 C 109.62445068359375 99.25303649902344 108.40005493164062 99.96705627441406 107.77908325195312 101.13883972167969 C 106.96420288085938 102.70751953125 107.46269226074219 104.6285400390625 108.15895080566406 106.25274658203125 C 109.17495727539062 108.63107299804688 110.5692138671875 110.82925415039062 112.28762817382812 112.76203918457031 C 112.88265991210938 113.4287109375 113.55007934570312 114.08648681640625 114.39990234375 114.36170959472656 C 115.20315551757812 114.57717895507812 116.0517578125 114.55427551269531 116.84223937988281 114.2957763671875 C 119.27053833007812 113.60496520996094 121.2735595703125 111.88368225097656 122.32182312011719 109.58692932128906 L 120.8184814453125 108.95684814453125" stroke-width="0.6000000238418579" fill="rgb(70, 150, 179)" opacity="1.0"/>
    <path d="M 422.39111328125 69.65830993652344 C 423.60968017578125 72.63349914550781 425.0853271484375 75.88009643554688 428.0267333984375 77.17303466796875 C 431.187255859375 78.56005859375 434.9898681640625 77.080078125 437.42840576171875 74.6375732421875 C 438.3690185546875 73.69622802734375 439.1943359375 72.56779479980469 439.4403076171875 71.26014709472656 C 439.6429443359375 70.18527221679688 439.4407958984375 69.07852172851562 439.1802978515625 68.01644897460938 C 438.3629150390625 64.66616821289062 436.8013916015625 61.24334716796875 433.839111328125 59.4791259765625 C 430.8524169921875 57.703125 426.72393798828125 58.09381103515625 424.134521484375 60.415618896484375 C 421.5450439453125 62.7374267578125 420.67047119140625 66.78573608398438 422.097412109375 69.96002197265625 L 422.39111328125 69.65830993652344" stroke-width="0.6000000238418579" fill="rgb(140, 28, 33)" opacity="1.0"/>
    <path d="M 113.80703735351562 419.33642578125 C 115.58656311035156 416.8758544921875 117.4111328125 414.2958984375 117.99851989746094 411.3143310546875 C 118.58587646484375 408.3328857421875 117.5606689453125 404.7967224121094 114.858154296875 403.4084167480469 C 111.51835632324219 401.7021179199219 107.168212890625 404.22113037109375 105.91064453125 407.76165771484375 C 104.653076171875 411.30218505859375 105.76799011230469 415.279052734375 107.60212707519531 418.5528564453125 C 108.068359375 419.6231689453125 108.91883850097656 420.479736328125 109.98576354980469 420.95361328125 C 111.07888793945312 421.30609130859375 112.56057739257812 420.53076171875 112.45063781738281 419.3818359375 L 113.80703735351562 419.33642578125" stroke-width="0.6000000238418579" fill="rgb(159, 159, 159)" opacity="1.0"/>
    <path d="M 458.89593505859375 438.68585205078125 C 459.83001708984375 436.1072998046875 459.9010009765625 433.1524658203125 458.7261962890625 430.67584228515625 C 457.551513671875 428.19921875 455.0325927734375 426.31085205078125 452.28082275390625 426.239013671875 C 450.335205078125 426.190673828125 448.4320068359375 427.0321044921875 446.9578857421875 428.30535888671875 C 445.483642578125 429.57861328125 444.404296875 431.2547607421875 443.57745361328125 433.018798828125 C 443.21807861328125 433.7867431640625 442.896728515625 434.61822509765625 443.0040283203125 435.45703125 C 443.1265869140625 436.41876220703125 443.78826904296875 437.21270751953125 444.4580078125 437.91778564453125 C 446.3487548828125 439.9083251953125 448.61669921875 441.6849365234375 451.2965087890625 442.283203125 C 453.976318359375 442.88134765625 457.11505126953125 442.03271484375 458.59375 439.7271728515625 L 458.89593505859375 438.68585205078125" stroke-width="0.6000000238418579" fill="rgb(159, 159, 159)" opacity="1.0"/>
    <path d="M 452.0291748046875 284.42315673828125 C 453.896484375 281.86773681640625 455.861328125 278.9463806152344 455.40679931640625 275.82049560546875 C 454.9691162109375 272.77996826171875 452.3978271484375 270.5575256347656 449.96844482421875 268.6751403808594 C 448.98046875 267.9118957519531 447.9346923828125 267.1291809082031 446.703857421875 266.9241638183594 C 444.622314453125 266.5762023925781 442.6507568359375 267.9538879394531 441.19769287109375 269.4801025390625 C 439.84844970703125 270.89617919921875 438.7095947265625 272.4986267089844 437.8157958984375 274.23846435546875 C 436.3636474609375 277.0628967285156 435.6575927734375 280.69427490234375 437.5040283203125 283.27685546875 C 438.4989013671875 284.67254638671875 440.1123046875 285.5401916503906 441.777587890625 285.95648193359375 C 443.4429931640625 286.3727722167969 445.18157958984375 286.3777770996094 446.8980712890625 286.3582763671875 C 448.614501953125 286.3387756347656 450.3006591796875 286.2828369140625 451.82073974609375 285.5776062011719 L 452.0291748046875 284.42315673828125" stroke-width="0.6000000238418579" fill="rgb(218, 166, 20)" opacity="1.0"/>
    <path d="M 422.214599609375 358.0127258300781 C 423.7691650390625 362.3642883300781 428.55706787109375 364.6316833496094 432.90863037109375 363.07708740234375 C 433.28125 362.9439697265625 433.64398193359375 362.7845764160156 433.9940185546875 362.6001281738281 C 435.3240966796875 361.8990173339844 436.49725341796875 360.7718811035156 436.9295654296875 359.33258056640625 C 437.294921875 358.1163024902344 437.10595703125 356.8053283691406 436.79010009765625 355.5761413574219 C 435.9400634765625 352.2870178222656 434.22491455078125 349.2854919433594 431.82275390625 346.8833312988281 C 431.1866455078125 346.24945068359375 430.48114013671875 345.6464538574219 429.6282958984375 345.359375 C 428.19677734375 344.8765563964844 426.58673095703125 345.3823547363281 425.3560791015625 346.26043701171875 C 423.52801513671875 347.56280517578125 422.3319091796875 349.64599609375 421.888427734375 351.8467712402344 C 421.44500732421875 354.0475769042969 421.710205078125 356.353759765625 422.41693115234375 358.4844055175781 L 422.214599609375 358.0127258300781" stroke-width="0.6000000238418579" fill="rgb(143, 165, 67)" opacity="1.0"/>
    <path d="M 448.7308349609375 349.1553039550781 C 453.064208984375 344.8478698730469 450.0623779296875 336.09967041015625 444.10662841796875 334.9240417480469 C 438.15087890625 333.7484130859375 432.175537109375 340.204833984375 433.3778076171875 346.1972961425781 C 434.58001708984375 352.1897277832031 441.9349365234375 355.89739990234375 447.6474609375 353.70855712890625 L 448.7308349609375 349.1553039550781" stroke-width="0.6000000238418579" fill="rgb(233, 92, 21)" opacity="1.0"/>
    <path d="M 455.08673095703125 73.51602172851562 C 457.61181640625 71.99067687988281 460.4698486328125 69.90673828125 460.33697509765625 66.94961547851562 C 460.23828125 65.77487182617188 459.7774658203125 64.65969848632812 459.0181884765625 63.7579345703125 C 457.19940185546875 61.4761962890625 454.38751220703125 60.217529296875 451.47418212890625 60.381103515625 C 449.00323486328125 60.52616882324219 446.7490234375 61.707733154296875 444.5972900390625 62.900054931640625 C 443.38958740234375 63.57179260253906 442.12786865234375 64.32394409179688 441.49609375 65.54446411132812 C 440.66729736328125 67.17819213867188 441.2030029296875 69.16395568847656 441.9407958984375 70.84016418457031 C 443.01739501953125 73.29464721679688 444.48419189453125 75.55868530273438 446.2843017578125 77.54446411132812 C 446.90753173828125 78.22940063476562 447.605712890625 78.90438842773438 448.4891357421875 79.18110656738281 C 449.32373046875 79.39637756347656 450.202880859375 79.36416625976562 451.01947021484375 79.08840942382812 C 453.52899169921875 78.34828186035156 455.5875244140625 76.54454040527344 456.65087890625 74.15396118164062 L 455.08673095703125 73.51602172851562" stroke-width="0.6000000238418579" fill="rgb(70, 150, 179)" opacity="1.0"/>
    <path d="M 448.142578125 394.0945129394531 C 448.505615234375 390.7767639160156 448.768798828125 387.08404541015625 446.7266845703125 384.44683837890625 C 444.53125 381.615234375 440.3292236328125 381.0804748535156 436.894287109375 382.0997619628906 C 435.56982421875 382.4922180175781 434.2576904296875 383.1124572753906 433.38525390625 384.18328857421875 C 432.6676025390625 385.06329345703125 432.303466796875 386.1729736328125 432.0146484375 387.2708435058594 C 431.0997314453125 390.7319030761719 430.82763671875 394.6279602050781 432.6552734375 397.7053527832031 C 434.49932861328125 400.8056640625 438.458740234375 402.4954833984375 441.971435546875 401.66107177734375 C 445.484130859375 400.8266906738281 448.288330078125 397.5675048828125 448.56005859375 393.96490478515625 L 448.142578125 394.0945129394531" stroke-width="0.6000000238418579" fill="rgb(140, 28, 33)" opacity="1.0"/>
    <path d="M 127.9281005859375 220.45684814453125 C 124.33047485351562 222.5897216796875 120.61044311523438 224.84878540039062 118.23333740234375 228.2935791015625 C 115.85626220703125 231.73834228515625 115.21240234375 236.76821899414062 117.86550903320312 240.0042724609375 C 121.1494140625 243.99151611328125 128.02685546875 243.1944580078125 131.55726623535156 239.410888671875 C 135.08766174316406 235.6273193359375 135.85987854003906 229.99142456054688 135.33786010742188 224.84942626953125 C 135.3357391357422 223.24151611328125 134.73097229003906 221.69287109375 133.64285278320312 220.50909423828125 C 132.45504760742188 219.46435546875 130.15786743164062 219.63134765625 129.6667022705078 221.143310546875 L 127.9281005859375 220.45684814453125" stroke-width="0.6000000238418579" fill="rgb(159, 159, 159)" opacity="1.0"/>
    <path d="M 112.20578002929688 229.25119018554688 C 108.55911254882812 226.84121704101562 104.00732421875 225.62814331054688 99.7313232421875 226.52374267578125 C 95.455322265625 227.4193115234375 91.58901977539062 230.61724853515625 90.45039367675781 234.85415649414062 C 89.64915466308594 237.8507080078125 90.24241638183594 241.11376953125 91.66485595703125 243.87326049804688 C 93.08731079101562 246.63275146484375 95.281494140625 248.93096923828125 97.70613098144531 250.8707275390625 C 98.76177978515625 251.7142333984375 99.93014526367188 252.5225830078125 101.26988220214844 252.66949462890625 C 102.8057861328125 252.838623046875 104.28302001953125 252.10977172851562 105.62554931640625 251.33529663085938 C 109.41571044921875 249.14874267578125 113.01516723632812 246.29803466796875 114.9425048828125 242.36911010742188 C 116.86985778808594 238.44015502929688 116.72669982910156 233.26007080078125 113.70648193359375 230.10812377929688 L 112.20578002929688 229.25119018554688" stroke-width="0.6000000238418579" fill="rgb(159, 159, 159)" opacity="1.0"/>
    <path d="M 304.52801513671875 98.45533752441406 C 304.0426025390625 102.7196044921875 303.687744140625 107.4805908203125 306.3210144042969 110.8590087890625 C 308.87725830078125 114.14814758300781 313.3985900878906 115.04145812988281 317.5244445800781 115.62933349609375 C 319.20086669921875 115.86566162109375 320.95843505859375 116.08619689941406 322.5463562011719 115.50180053710938 C 325.232666015625 114.51498413085938 326.63134765625 111.56849670410156 327.31939697265625 108.79495239257812 C 327.9590148925781 106.22085571289062 328.2256774902344 103.56826782226562 328.11126708984375 100.91838073730469 C 327.92706298828125 96.61561584472656 326.32208251953125 91.86273193359375 322.4131774902344 90.05862426757812 C 320.3043212890625 89.08157348632812 317.82086181640625 89.14190673828125 315.5791320800781 89.76895141601562 C 313.33740234375 90.39599609375 311.2853088378906 91.55679321289062 309.2757568359375 92.73165893554688 C 307.2662353515625 93.90652465820312 305.31683349609375 95.10400390625 303.9989318847656 96.955078125 L 304.52801513671875 98.45533752441406" stroke-width="0.6000000238418579" fill="rgb(218, 166, 20)" opacity="1.0"/>
    <path d="M 220.20913696289062 121.71368408203125 C 216.0384521484375 116.10507202148438 208.1107177734375 114.93940734863281 202.5020751953125 119.110107421875 C 202.02182006835938 119.46725463867188 201.5675048828125 119.85800170898438 201.14251708984375 120.27944946289062 C 199.52801513671875 121.881103515625 198.32867431640625 124.02973937988281 198.33892822265625 126.30279541015625 C 198.34744262695312 128.22369384765625 199.19979858398438 130.0367431640625 200.1995849609375 131.67547607421875 C 202.88180541992188 136.05828857421875 206.68862915039062 139.64295959472656 211.224609375 142.05715942382812 C 212.4246826171875 142.69326782226562 213.71160888671875 143.25399780273438 215.07220458984375 143.29266357421875 C 217.35635375976562 143.35891723632812 219.46209716796875 141.91622924804688 220.85467529296875 140.10244750976562 C 222.92401123046875 137.4110870361328 223.73443603515625 133.8691864013672 223.40402221679688 130.48959350585938 C 223.0736083984375 127.1099853515625 221.67144775390625 123.89089965820312 219.70809936523438 121.12069702148438 L 220.20913696289062 121.71368408203125" stroke-width="0.6000000238418579" fill="rgb(143, 165, 67)" opacity="1.0"/>
    <path d="M 226.43374633789062 92.62893676757812 C 224.862548828125 100.47824096679688 234.513427734375 107.80581665039062 241.8515625 104.73823547363281 C 249.18966674804688 101.67063903808594 250.97897338867188 90.28477478027344 245.29739379882812 84.64218139648438 C 239.6158447265625 78.99958801269531 228.9073486328125 80.3333740234375 224.28936767578125 86.88412475585938 L 226.43374633789062 92.62893676757812" stroke-width="0.6000000238418579" fill="rgb(233, 92, 21)" opacity="1.0"/>
    <path d="M 197.18023681640625 98.32998657226562 C 195.73504638671875 94.50437927246094 193.61196899414062 90.08447265625 189.54718017578125 89.52279663085938 C 187.92086791992188 89.36222839355469 186.2847900390625 89.71026611328125 184.86468505859375 90.51895141601562 C 181.29708862304688 92.42526245117188 178.874755859375 95.9425048828125 178.36590576171875 99.955322265625 C 177.94293212890625 103.36039733886719 178.98748779296875 106.7303466796875 180.07241821289062 109.96342468261719 C 180.684814453125 111.77857971191406 181.39324951171875 113.68760681152344 182.89846801757812 114.85554504394531 C 184.91754150390625 116.39584350585938 187.75930786132812 116.164306640625 190.22979736328125 115.57963562011719 C 193.846435546875 114.72848510742188 197.30148315429688 113.29756164550781 200.46090698242188 111.34236145019531 C 201.55123901367188 110.66470336914062 202.6468505859375 109.88241577148438 203.24603271484375 108.74758911132812 C 203.7491455078125 107.66390991210938 203.92608642578125 106.45724487304688 203.75531005859375 105.27471923828125 C 203.376708984375 101.66755676269531 201.43478393554688 98.40803527832031 198.44287109375 96.35780334472656 L 197.18023681640625 98.32998657226562" stroke-width="0.6000000238418579" fill="rgb(70, 150, 179)" opacity="1.0"/>
    <path d="M 268.6022033691406 132.2653350830078 C 266.7049255371094 136.21633911132812 264.7678527832031 140.67538452148438 266.14666748046875 144.83282470703125 C 267.6304931640625 149.2979736328125 272.60186767578125 151.79368591308594 277.30108642578125 152.02981567382812 C 279.1128845214844 152.1216278076172 281.0086669921875 151.92584228515625 282.5565490722656 150.9801788330078 C 283.8293151855469 150.20326232910156 284.7645263671875 148.98768615722656 285.60125732421875 147.75384521484375 C 288.24456787109375 143.86611938476562 290.2814636230469 139.15914916992188 289.3604431152344 134.550048828125 C 288.4289855957031 129.90541076660156 284.26214599609375 126.08486938476562 279.5472106933594 125.58576965332031 C 274.832275390625 125.086669921875 269.93695068359375 127.90005493164062 268.028564453125 132.2437286376953 L 268.6022033691406 132.2653350830078" stroke-width="0.6000000238418579" fill="rgb(140, 28, 33)" opacity="1.0"/>
    <path d="M 309.48065185546875 120.854248046875 C 305.48211669921875 120.33116149902344 301.315673828125 119.8309326171875 297.46221923828125 121.02943420410156 C 293.6088562011719 122.22793579101562 290.126953125 125.660400390625 290.21368408203125 129.69422912597656 C 290.3318786621094 134.67333984375 296.0234375 138.1617431640625 300.953369140625 137.39263916015625 C 305.88330078125 136.62351989746094 309.8232727050781 132.80770874023438 312.4874572753906 128.59634399414062 C 313.44281005859375 127.37530517578125 313.90570068359375 125.840576171875 313.7847595214844 124.29496765136719 C 313.5054626464844 122.7955322265625 311.6634521484375 121.55508422851562 310.3910217285156 122.40971374511719 L 309.48065185546875 120.854248046875" stroke-width="0.6000000238418579" fill="rgb(159, 159, 159)" opacity="1.0"/>
    <path d="M 197.50970458984375 132.47926330566406 C 194.62509155273438 129.0601348876953 190.50616455078125 126.55484008789062 186.0491943359375 126.19956970214844 C 181.59222412109375 125.84429931640625 176.87277221679688 127.86785888671875 174.531494140625 131.6990966796875 C 172.87960815429688 134.40992736816406 172.51995849609375 137.78506469726562 173.11984252929688 140.9051513671875 C 173.7197265625 144.0252685546875 175.21051025390625 146.915283203125 177.03106689453125 149.51988220214844 C 177.82403564453125 150.6528778076172 178.73776245117188 151.78392028808594 180.01077270507812 152.31497192382812 C 181.469970703125 152.92449951171875 183.13082885742188 152.63539123535156 184.672607421875 152.26260375976562 C 189.0252685546875 151.21006774902344 193.38247680664062 149.45037841796875 196.40924072265625 146.1492462158203 C 199.43600463867188 142.84808349609375 200.79107666015625 137.72068786621094 198.73574829101562 133.75393676757812 L 197.50970458984375 132.47926330566406" stroke-width="0.6000000238418579" fill="rgb(159, 159, 159)" opacity="1.0"/>
    <path d="M 283.501220703125 102.098388671875 C 280.1490173339844 104.36831665039062 276.5212097167969 107.03665161132812 275.7178955078125 110.99652099609375 C 274.93121337890625 114.84640502929688 277.0667724609375 118.63308715820312 279.1783752441406 121.94903564453125 C 280.03814697265625 123.29484558105469 280.9590759277344 124.68904113769531 282.3523864746094 125.4676513671875 C 284.7081298828125 126.78591918945312 287.6770935058594 125.97903442382812 290.0859680175781 124.76930236816406 C 292.3222351074219 123.6473388671875 294.38580322265625 122.21005249023438 296.2135314941406 120.50149536132812 C 299.1822509765625 117.72833251953125 301.60125732421875 113.66127014160156 300.4939270019531 109.75411987304688 C 299.89923095703125 107.6439208984375 298.3315734863281 105.9022216796875 296.5063781738281 104.6815185546875 C 294.68121337890625 103.46080017089844 292.5901184082031 102.70358276367188 290.5151062011719 101.98545837402344 C 288.4400939941406 101.267333984375 286.3857727050781 100.60617065429688 284.2509765625 100.79852294921875 L 283.501220703125 102.098388671875" stroke-width="0.6000000238418579" fill="rgb(218, 166, 20)" opacity="1.0"/>
    <path d="M 238.80340576171875 114.69534301757812 C 239.3671875 121.40277099609375 245.26165771484375 126.38320922851562 251.9691162109375 125.81942749023438 C 252.54345703125 125.77114868164062 253.11367797851562 125.68218994140625 253.67547607421875 125.55320739746094 C 255.80996704101562 125.062744140625 257.88262939453125 123.91390991210938 259.0287780761719 122.048828125 C 259.99749755859375 120.47280883789062 260.2209777832031 118.55642700195312 260.23529052734375 116.707763671875 C 260.26678466796875 111.75935363769531 258.97271728515625 106.89276123046875 256.487548828125 102.613525390625 C 255.8287353515625 101.48348999023438 255.060546875 100.37103271484375 253.9669189453125 99.6483154296875 C 252.13168334960938 98.43394470214844 249.67596435546875 98.54483032226562 247.61529541015625 99.32156372070312 C 244.55511474609375 100.47259521484375 242.09298706054688 102.958984375 240.64678955078125 105.89204406738281 C 239.2005615234375 108.82510375976562 238.7127685546875 112.17117309570312 238.91217041015625 115.43502807617188 L 238.80340576171875 114.69534301757812" stroke-width="0.6000000238418579" fill="rgb(143, 165, 67)" opacity="1.0"/>
    <path d="M 249.74734497070312 91.45587158203125 C 247.9927978515625 99.28683471679688 257.49755859375 106.85195922851562 264.9224548339844 103.94558715820312 C 272.34735107421875 101.0391845703125 274.4014892578125 89.66867065429688 268.8363952636719 83.88323974609375 C 263.27130126953125 78.09780883789062 252.5081787109375 79.18930053710938 247.729736328125 85.64901733398438 L 249.74734497070312 91.45587158203125" stroke-width="0.6000000238418579" fill="rgb(233, 92, 21)" opacity="1.0"/>
    <path d="M 338.1867980957031 82.89804077148438 C 334.9848327636719 80.646484375 330.9264831542969 78.28901672363281 327.4060974121094 80.03073120117188 C 326.0321044921875 80.77836608886719 324.9239501953125 81.9339599609375 324.23455810546875 83.33807373046875 C 322.435302734375 86.766357421875 322.40936279296875 90.85403442382812 324.1648864746094 94.30488586425781 C 325.6615905761719 97.22833251953125 328.3012390136719 99.33465576171875 330.8992614746094 101.31083679199219 C 332.3604736328125 102.4185791015625 333.9482421875 103.54896545410156 335.7681884765625 103.66404724121094 C 338.1952819824219 103.79754638671875 340.3207092285156 102.08566284179688 341.96221923828125 100.29389953613281 C 344.36785888671875 97.67465209960938 346.33367919921875 94.68330383300781 347.783447265625 91.43588256835938 C 348.2822265625 90.3128662109375 348.7288818359375 89.10418701171875 348.5928649902344 87.88340759277344 C 348.4083251953125 86.75479125976562 347.89935302734375 85.7042236328125 347.1280517578125 84.85986328125 C 344.8880615234375 82.20753479003906 341.5973205566406 80.67135620117188 338.12567138671875 80.65740966796875 L 338.1867980957031 82.89804077148438" stroke-width="0.6000000238418579" fill="rgb(70, 150, 179)" opacity="1.0"/>
    <path d="M 334.60235595703125 134.14183044433594 C 333.5876770019531 129.68638610839844 332.2759094238281 124.79048156738281 328.4535217285156 122.29183959960938 C 324.3457946777344 119.61019897460938 318.6693420410156 120.79841613769531 314.6808776855469 123.65423583984375 C 313.1426086425781 124.75466918945312 311.7223815917969 126.14431762695312 311.0725402832031 127.9202880859375 C 310.53778076171875 129.3800506591797 310.5630798339844 130.97886657714844 310.68060302734375 132.52867126464844 C 311.0453796386719 137.41644287109375 312.4365234375 142.57945251464844 316.17828369140625 145.7436981201172 C 319.95159912109375 148.93017578125 325.8309020996094 149.34515380859375 330.0028076171875 146.69375610351562 C 334.1747131347656 144.0423583984375 336.34490966796875 138.57046508789062 335.08453369140625 133.78732299804688 L 334.60235595703125 134.14183044433594" stroke-width="0.6000000238418579" fill="rgb(140, 28, 33)" opacity="1.0"/>
    <path d="M 346.140380859375 106.84075927734375 C 341.9980163574219 105.73213195800781 337.6754455566406 104.62419128417969 333.4461669921875 105.35069274902344 C 329.2169189453125 106.07719421386719 325.0679626464844 109.21047973632812 324.5972900390625 113.47505187988281 C 324.0280456542969 118.74050903320312 329.5420227050781 123.21109008789062 334.8463134765625 123.08726501464844 C 340.150634765625 122.96343994140625 344.83587646484375 119.48983764648438 348.2313232421875 115.42146301269531 C 349.4085998535156 114.26736450195312 350.11041259765625 112.71395874023438 350.1983337402344 111.06773376464844 C 350.1128234863281 109.44810485839844 348.34381103515625 107.88372802734375 346.8833312988281 108.60739135742188 L 346.140380859375 106.84075927734375" stroke-width="0.6000000238418579" fill="rgb(159, 159, 159)" opacity="1.0"/>
    <path d="M 347.23089599609375 127.01144409179688 C 343.2980041503906 127.69390869140625 339.5132751464844 129.7386932373047 337.2325439453125 133.01206970214844 C 334.9517822265625 136.28543090820312 334.3853759765625 140.832275390625 336.2823791503906 144.3611297607422 C 337.62677001953125 146.8543701171875 340.0647888183594 148.65130615234375 342.73846435546875 149.59423828125 C 345.4121398925781 150.53717041015625 348.30975341796875 150.69017028808594 351.1360168457031 150.4606170654297 C 352.3658752441406 150.36000061035156 353.6486511230469 150.16543579101562 354.6309814453125 149.42393493652344 C 355.75762939453125 148.5743408203125 356.2828369140625 147.1647186279297 356.68994140625 145.80917358398438 C 357.8392333984375 141.98214721679688 358.44580078125 137.83322143554688 357.2658386230469 134.01502990722656 C 356.0858459472656 130.1968231201172 352.7462158203125 126.843994140625 348.7649230957031 126.64100646972656 L 347.23089599609375 127.01144409179688" stroke-width="0.6000000238418579" fill="rgb(159, 159, 159)" opacity="1.0"/>
    <path d="M 360.4351501464844 108.92958068847656 C 356.57305908203125 109.11285400390625 352.2881164550781 109.48385620117188 349.66351318359375 112.31271362304688 C 347.1072082519531 115.06021118164062 346.9648132324219 119.209716796875 347.0370178222656 122.96347045898438 C 347.0685729980469 124.48835754394531 347.1259460449219 126.08309936523438 347.8746032714844 127.41093444824219 C 349.1395263671875 129.657470703125 351.9614562988281 130.47637939453125 354.527099609375 130.68826293945312 C 356.90838623046875 130.8858642578125 359.3056945800781 130.740478515625 361.64569091796875 130.25662231445312 C 365.4454345703125 129.47232055664062 369.4405822753906 127.35968017578125 370.4812316894531 123.62344360351562 C 371.04595947265625 121.60720825195312 370.6341857910156 119.40744018554688 369.7533264160156 117.50436401367188 C 368.8724365234375 115.60128784179688 367.54425048828125 113.94381713867188 366.2096862792969 112.32621765136719 C 364.8751220703125 110.7086181640625 363.5291442871094 109.14776611328125 361.6929931640625 108.24273681640625 L 360.4351501464844 108.92958068847656" stroke-width="0.6000000238418579" fill="rgb(218, 166, 20)" opacity="1.0"/>
    <path d="M 431.96630859375 147.62564086914062 C 425.48583984375 149.53775024414062 421.78253173828125 156.34124755859375 423.69464111328125 162.8216552734375 C 423.8583984375 163.3765869140625 424.061279296875 163.919189453125 424.3017578125 164.44540405273438 C 425.216064453125 166.4447021484375 426.76513671875 168.24993896484375 428.83087158203125 168.99920654296875 C 430.57647705078125 169.63259887695312 432.505859375 169.46435546875 434.3262939453125 169.10421752929688 C 439.19781494140625 168.13345336914062 443.7205810546875 165.87600708007812 447.4246826171875 162.56640625 C 448.40234375 161.68994140625 449.340576171875 160.70947265625 449.8297119140625 159.48794555664062 C 450.652099609375 157.437744140625 450.0460205078125 155.04580688476562 448.86517333984375 153.17703247070312 C 447.114013671875 150.4013671875 444.17108154296875 148.48402404785156 440.99462890625 147.65591430664062 C 437.818115234375 146.82778930664062 434.42962646484375 147.02554321289062 431.2611083984375 147.88229370117188 L 431.96630859375 147.62564086914062" stroke-width="0.6000000238418579" fill="rgb(143, 165, 67)" opacity="1.0"/>
    <path d="M 144.46287536621094 415.244140625 C 143.14161682128906 423.178466796875 153.073486328125 430.221923828125 160.3427734375 426.9012451171875 C 167.612060546875 423.58050537109375 169.03671264648438 412.0872802734375 163.14627075195312 406.6062927246094 C 157.25579833984375 401.1252746582031 146.54501342773438 402.8149719238281 142.12144470214844 409.5447998046875 L 144.46287536621094 415.244140625" stroke-width="0.6000000238418579" fill="rgb(233, 92, 21)" opacity="1.0"/>
    <path d="M 434.5208740234375 189.29571533203125 C 430.67291259765625 188.31854248046875 425.97503662109375 187.5504150390625 423.267822265625 190.47283935546875 C 422.2357177734375 191.67779541015625 421.60296630859375 193.17330932617188 421.4569091796875 194.75311279296875 C 420.99017333984375 198.65216064453125 422.4422607421875 202.53558349609375 425.3526611328125 205.171875 C 427.8272705078125 207.40182495117188 431.08984375 208.4444580078125 434.26605224609375 209.3787841796875 C 436.051025390625 209.9007568359375 437.9642333984375 210.39846801757812 439.7305908203125 209.85003662109375 C 442.0791015625 209.09976196289062 443.4749755859375 206.70953369140625 444.3834228515625 204.41842651367188 C 445.717041015625 201.0670166015625 446.49951171875 197.5218505859375 446.7003173828125 193.92041015625 C 446.767333984375 192.6759033203125 446.7540283203125 191.36904907226562 446.18408203125 190.26123046875 C 445.6014404296875 189.25823974609375 444.73956298828125 188.44647216796875 443.70355224609375 187.92486572265625 C 440.6224365234375 186.22039794921875 436.94873046875 185.95330810546875 433.653564453125 187.19427490234375 L 434.5208740234375 189.29571533203125" stroke-width="0.6000000238418579" fill="rgb(70, 150, 179)" opacity="1.0"/>
    <path d="M 406.4341735839844 160.69439697265625 C 405.36883544921875 156.56500244140625 404.01458740234375 152.03262329101562 400.3821105957031 149.8035430908203 C 396.47857666015625 147.41134643554688 391.2147216796875 148.67112731933594 387.57000732421875 151.44161987304688 C 386.1643371582031 152.5092010498047 384.8764343261719 153.84344482421875 384.3175354003906 155.51756286621094 C 383.8575744628906 156.89361572265625 383.9237976074219 158.38446044921875 384.07476806640625 159.8271484375 C 384.5453186035156 164.377197265625 385.980712890625 169.15664672851562 389.55572509765625 172.0087890625 C 393.1607666015625 174.880859375 398.6565856933594 175.11126708984375 402.47784423828125 172.526611328125 C 406.29913330078125 169.94195556640625 408.1778259277344 164.7794189453125 406.8745422363281 160.350830078125 L 406.4341735839844 160.69439697265625" stroke-width="0.6000000238418579" fill="rgb(140, 28, 33)" opacity="1.0"/>
    <path d="M 140.8926239013672 127.31549072265625 C 136.71583557128906 128.52883911132812 132.38302612304688 129.83743286132812 129.09451293945312 132.68890380859375 C 125.80606079101562 135.54034423828125 123.85122680664062 140.43814086914062 125.68234252929688 144.38595581054688 C 127.95355224609375 149.25405883789062 135.0861358642578 150.23779296875 139.62399291992188 147.34475708007812 C 144.16183471679688 144.45172119140625 146.40335083007812 138.97698974609375 147.2132568359375 133.6634521484375 C 147.62876892089844 132.04371643066406 147.42202758789062 130.3271484375 146.63377380371094 128.85244750976562 C 145.7090301513672 127.49188232421875 143.35240173339844 127.06341552734375 142.465087890625 128.45834350585938 L 140.8926239013672 127.31549072265625" stroke-width="0.6000000238418579" fill="rgb(159, 159, 159)" opacity="1.0"/>
    <path d="M 423.317626953125 175.34100341796875 C 419.99627685546875 173.0506591796875 415.81787109375 171.84835815429688 411.8555603027344 172.59698486328125 C 407.893310546875 173.34564208984375 404.2671813964844 176.22640991210938 403.1393127441406 180.1156005859375 C 402.34539794921875 182.86627197265625 402.83349609375 185.8883056640625 404.0959167480469 188.46072387695312 C 405.3583679199219 191.03314208984375 407.34136962890625 193.19390869140625 409.5435791015625 195.028076171875 C 410.5024108886719 195.82568359375 411.5658874511719 196.59292602539062 412.799560546875 196.75286865234375 C 414.2138671875 196.9368896484375 415.59033203125 196.29119873046875 416.84332275390625 195.60092163085938 C 420.3807373046875 193.652099609375 423.7542724609375 191.0869140625 425.6043701171875 187.49627685546875 C 427.4544677734375 183.9056396484375 427.4166259765625 179.12274169921875 424.6868896484375 176.15911865234375 L 423.317626953125 175.34100341796875" stroke-width="0.6000000238418579" fill="rgb(159, 159, 159)" opacity="1.0"/>
    <path d="M 404.1983337402344 185.8592529296875 C 403.98260498046875 181.96621704101562 403.5741271972656 177.6483154296875 400.7005310058594 175.02435302734375 C 397.9095153808594 172.4686279296875 393.72406005859375 172.3582763671875 389.93939208984375 172.461181640625 C 388.4019775390625 172.50521850585938 386.7943115234375 172.5758056640625 385.4613342285156 173.34140014648438 C 383.20611572265625 174.63494873046875 382.4029235839844 177.48709106445312 382.2098083496094 180.07595825195312 C 382.0296325683594 182.47882080078125 382.1954345703125 184.89508056640625 382.7021179199219 187.25079345703125 C 383.5234375 191.07611083984375 385.685791015625 195.08782958984375 389.4617004394531 196.1072998046875 C 391.4993896484375 196.66064453125 393.71429443359375 196.227783203125 395.62628173828125 195.32427978515625 C 397.53826904296875 194.42074584960938 399.1990051269531 193.068115234375 400.8194580078125 191.70941162109375 C 402.43994140625 190.3507080078125 404.00311279296875 188.98092651367188 404.9010009765625 187.12213134765625 L 404.1983337402344 185.8592529296875" stroke-width="0.6000000238418579" fill="rgb(218, 166, 20)" opacity="1.0"/>
    <path d="M 446.7191162109375 177.80169677734375 C 446.614990234375 184.1505126953125 451.6773681640625 189.38168334960938 458.02618408203125 189.48580932617188 C 458.56982421875 189.4947509765625 459.1134033203125 189.465087890625 459.65289306640625 189.39703369140625 C 461.70263671875 189.13824462890625 463.75653076171875 188.255615234375 465.0084228515625 186.61328125 C 466.06640625 185.22549438476562 466.4571533203125 183.4478759765625 466.6451416015625 181.71405029296875 C 467.141845703125 177.07244873046875 466.38671875 172.38247680664062 464.45819091796875 168.13134765625 C 463.946533203125 167.00848388671875 463.33056640625 165.89178466796875 462.372314453125 165.11019897460938 C 460.764404296875 163.797119140625 458.448974609375 163.6693115234375 456.4415283203125 164.20379638671875 C 453.46051025390625 164.9952392578125 450.914794921875 167.09649658203125 449.280517578125 169.71295166015625 C 447.6461181640625 172.329345703125 446.87237548828125 175.4239501953125 446.7513427734375 178.5062255859375 L 446.7191162109375 177.80169677734375" stroke-width="0.6000000238418579" fill="rgb(143, 165, 67)" opacity="1.0"/>
    <path d="M 148.5700225830078 101.52926635742188 C 140.2820587158203 108.0302734375 143.6574249267578 123.61370849609375 153.61737060546875 126.82760620117188 C 163.57733154296875 130.0414581298828 175.10992431640625 120.19223022460938 174.260009765625 109.68992614746094 C 173.4100341796875 99.1876220703125 161.56512451171875 91.35638427734375 151.3430938720703 93.95196533203125 L 148.5700225830078 101.52926635742188" stroke-width="0.6000000238418579" fill="rgb(233, 92, 21)" opacity="1.0"/>
    <path d="M 455.7373046875 150.7216796875 C 453.322265625 154.66246032714844 450.8460693359375 159.62030029296875 453.160400390625 163.63922119140625 C 454.1436767578125 165.2027587890625 455.587890625 166.42266845703125 457.2938232421875 167.130615234375 C 461.4676513671875 168.995849609375 466.28662109375 168.72235107421875 470.2225341796875 166.3968505859375 C 473.5562744140625 164.4156494140625 475.842041015625 161.1483154296875 477.9775390625 157.939697265625 C 479.17425537109375 156.1353759765625 480.38818359375 154.18020629882812 480.388427734375 152.0269775390625 C 480.365234375 149.15689086914062 478.18975830078125 146.77960205078125 475.9561767578125 144.97848510742188 C 472.690673828125 142.33848571777344 469.019287109375 140.24444580078125 465.0845947265625 138.77757263183594 C 463.72412109375 138.27337646484375 462.26654052734375 137.83692932128906 460.83807373046875 138.08804321289062 C 459.52178955078125 138.38946533203125 458.3216552734375 139.0673828125 457.384033203125 140.03912353515625 C 454.425048828125 142.87611389160156 452.859619140625 146.86830139160156 453.1014404296875 150.9604034423828 L 455.7373046875 150.7216796875" stroke-width="0.6000000238418579" fill="rgb(70, 150, 179)" opacity="1.0"/>
    <path d="M 373.4825134277344 77.1622314453125 C 374.3419494628906 71.94412231445312 375.0754699707031 66.12417602539062 372.0709533691406 61.7762451171875 C 368.84063720703125 57.1075439453125 362.2381896972656 55.900543212890625 356.7160339355469 57.218231201171875 C 354.5867004394531 57.725372314453125 352.45745849609375 58.59400939941406 350.9850158691406 60.21331787109375 C 349.77410888671875 61.54402160644531 349.10260009765625 63.268463134765625 348.5513610839844 64.98068237304688 C 346.8065185546875 70.37812805175781 346.04132080078125 76.51898193359375 348.6685791015625 81.54498291015625 C 351.3199768066406 86.60859680175781 357.43927001953125 89.622314453125 363.0686950683594 88.60385131835938 C 368.6981201171875 87.58538818359375 373.414794921875 82.66964721679688 374.1541442871094 76.99301147460938 L 373.4825134277344 77.1622314453125" stroke-width="0.6000000238418579" fill="rgb(140, 28, 33)" opacity="1.0"/>
    <path d="M 133.3007354736328 411.9810791015625 C 130.0857696533203 415.39324951171875 126.77803039550781 418.979248046875 125.2843017578125 423.4266357421875 C 123.79061889648438 427.87396240234375 124.65507507324219 433.49200439453125 128.51565551757812 436.15625 C 133.28848266601562 439.4344482421875 140.45053100585938 436.4453125 143.08175659179688 431.2757568359375 C 145.7129669189453 426.106201171875 144.79904174804688 419.7955322265625 142.6438446044922 414.4178466796875 C 142.1434783935547 412.686279296875 141.01223754882812 411.2052917480469 139.47332763671875 410.26708984375 C 137.87010192871094 409.5095520019531 135.44712829589844 410.4010925292969 135.3863525390625 412.1820068359375 L 133.3007354736328 411.9810791015625" stroke-width="0.6000000238418579" fill="rgb(159, 159, 159)" opacity="1.0"/>
    <path d="M 415.6011962890625 208.79364013671875 C 412.9873046875 204.19464111328125 408.74072265625 200.39105224609375 403.6360778808594 199.01385498046875 C 398.5314636230469 197.63665771484375 392.6070251464844 198.96823120117188 389.05633544921875 202.915771484375 C 386.5494689941406 205.7099609375 385.4012145996094 209.55593872070312 385.42364501953125 213.31301879882812 C 385.4460754394531 217.07012939453125 386.55401611328125 220.75244140625 388.10711669921875 224.17431640625 C 388.7838439941406 225.66302490234375 389.6014709472656 227.17559814453125 390.9665222167969 228.068359375 C 392.5310974121094 229.0926513671875 394.52447509765625 229.1158447265625 396.39752197265625 229.01596069335938 C 401.68548583984375 228.73394775390625 407.1316833496094 227.63079833984375 411.3646240234375 224.44778442382812 C 415.5975341796875 221.2647705078125 418.2821044921875 215.59698486328125 416.75079345703125 210.54074096679688 L 415.6011962890625 208.79364013671875" stroke-width="0.6000000238418579" fill="rgb(159, 159, 159)" opacity="1.0"/>
    <path d="M 380.06329345703125 120.82145690917969 C 375.3360290527344 121.43173217773438 370.10791015625 122.31484985351562 367.1650085449219 126.05250549316406 C 364.29791259765625 129.683349609375 364.53668212890625 134.79623413085938 364.9996643066406 139.40147399902344 C 365.1905212402344 141.2720184326172 365.41998291015625 143.22584533691406 366.4723205566406 144.7827606201172 C 368.2505798339844 147.41705322265625 371.7996520996094 148.1419219970703 374.97332763671875 148.14646911621094 C 377.9190368652344 148.15182495117188 380.8502197265625 147.73416137695312 383.6772155761719 146.90628051757812 C 388.2679443359375 145.563720703125 392.96630859375 142.56947326660156 393.8724670410156 137.87481689453125 C 394.3653869628906 135.341064453125 393.64007568359375 132.67916870117188 392.3679504394531 130.4285888671875 C 391.0958251953125 128.1780242919922 389.29852294921875 126.27383422851562 387.4974060058594 124.41929626464844 C 385.6962890625 122.56475830078125 383.88677978515625 120.78106689453125 381.5403747558594 119.85209655761719 L 380.06329345703125 120.82145690917969" stroke-width="0.6000000238418579" fill="rgb(218, 166, 20)" opacity="1.0"/>
    <path d="M 403.4107666015625 77.98834228515625 C 397.91864013671875 71.13900756835938 387.9139099121094 70.03875732421875 381.0645751953125 75.5308837890625 C 380.4780578613281 76.00117492675781 379.9256591796875 76.51248168945312 379.4114990234375 77.06094360351562 C 377.4582214355469 79.14537048339844 376.05108642578125 81.89738464355469 376.16802978515625 84.75019836425781 C 376.26666259765625 87.16104125976562 377.4195861816406 89.39787292480469 378.7496337890625 91.40914916992188 C 382.3171691894531 96.78790283203125 387.2598571777344 101.11331176757812 393.0642395019531 103.93609619140625 C 394.5997619628906 104.67964172363281 396.24090576171875 105.3245849609375 397.9505615234375 105.31082153320312 C 400.82080078125 105.28941345214844 403.3979797363281 103.38203430175781 405.0630187988281 101.04150390625 C 407.5373840332031 97.56840515136719 408.3924865722656 93.08529663085938 407.8229675292969 88.85812377929688 C 407.25347900390625 84.6309814453125 405.3460388183594 80.65435791015625 402.75469970703125 77.26690673828125 L 403.4107666015625 77.98834228515625" stroke-width="0.6000000238418579" fill="rgb(143, 165, 67)" opacity="1.0"/>
    <path d="M 120.99520874023438 429.66253662109375 C 114.63131713867188 421.7381591796875 99.63363647460938 425.1671142578125 96.64299011230469 434.81201171875 C 93.65240478515625 444.45703125 103.28254699707031 455.474853515625 113.40585327148438 454.5386962890625 C 123.52914428710938 453.60247802734375 130.95379638671875 442.0877685546875 128.33651733398438 432.25421142578125 L 120.99520874023438 429.66253662109375" stroke-width="0.6000000238418579" fill="rgb(233, 92, 21)" opacity="1.0"/>
    <path d="M 450.9498291015625 201.8997802734375 C 448.35662841796875 206.07821655273438 445.69232177734375 211.33843994140625 448.13067626953125 215.62835693359375 C 449.16748046875 217.29782104492188 450.69677734375 218.60443115234375 452.5076904296875 219.36788940429688 C 456.93731689453125 221.37744140625 462.0662841796875 221.11529541015625 466.2679443359375 218.66458129882812 C 469.82684326171875 216.57656860351562 472.2784423828125 213.1138916015625 474.56976318359375 209.7127685546875 C 475.85382080078125 207.8001708984375 477.15716552734375 205.72720336914062 477.1702880859375 203.43621826171875 C 477.1627197265625 200.38235473632812 474.86236572265625 197.83993530273438 472.4967041015625 195.91021728515625 C 469.0379638671875 193.08175659179688 465.144287109375 190.83172607421875 460.9666748046875 189.24746704101562 C 459.52215576171875 188.702880859375 457.97393798828125 188.22976684570312 456.4525146484375 188.4884033203125 C 455.05029296875 188.80120849609375 453.769287109375 189.51531982421875 452.76580810546875 190.54364013671875 C 449.6005859375 193.54437255859375 447.91107177734375 197.78262329101562 448.1439208984375 202.13800048828125 L 450.9498291015625 201.8997802734375" stroke-width="0.6000000238418579" fill="rgb(70, 150, 179)" opacity="1.0"/>
    <path d="M 420.0986328125 135.0680389404297 C 420.9644775390625 129.9529266357422 421.70947265625 124.24688720703125 418.781005859375 119.96855163574219 C 415.632568359375 115.37457275390625 409.1609191894531 114.16171264648438 403.738037109375 115.43026733398438 C 401.64697265625 115.91847229003906 399.5544738769531 116.76129150390625 398.10296630859375 118.3433837890625 C 396.9092712402344 119.64349365234375 396.2430419921875 121.33221435546875 395.6947937011719 123.00946044921875 C 393.9596252441406 128.296630859375 393.18218994140625 134.31735229492188 395.737548828125 139.25921630859375 C 398.3164367675781 144.2380828857422 404.30621337890625 147.22116088867188 409.8329772949219 146.2466278076172 C 415.3597412109375 145.2720947265625 420.0081787109375 140.4704132080078 420.75823974609375 134.90496826171875 L 420.0986328125 135.0680389404297" stroke-width="0.6000000238418579" fill="rgb(140, 28, 33)" opacity="1.0"/>
    <path d="M 400.7615966796875 68.2369384765625 C 402.1658020019531 72.67919921875 403.6759338378906 77.2861328125 406.81201171875 80.73603820800781 C 409.9480895996094 84.18586730957031 415.24200439453125 86.15621948242188 419.42352294921875 84.09620666503906 C 424.57952880859375 81.54182434082031 425.453857421875 73.87918090820312 422.2418212890625 69.09245300292969 C 419.0299072265625 64.30572509765625 413.1109619140625 62.04290771484375 407.4006042480469 61.30903625488281 C 405.6556701660156 60.904754638671875 403.8226623535156 61.16926574707031 402.2632751464844 62.05039978027344 C 400.82952880859375 63.0748291015625 400.42987060546875 65.60919189453125 401.9459228515625 66.52435302734375 L 400.7615966796875 68.2369384765625" stroke-width="0.6000000238418579" fill="rgb(159, 159, 159)" opacity="1.0"/>
    <path d="M 439.26904296875 236.71923828125 C 435.828369140625 240.770751953125 433.70086669921875 246.08935546875 434.15924072265625 251.38214111328125 C 434.61767578125 256.6749267578125 437.915283203125 261.8084411621094 442.8646240234375 263.80023193359375 C 446.3656005859375 265.2040100097656 450.39141845703125 264.96307373046875 453.9300537109375 263.647705078125 C 457.46875 262.3323669433594 460.56298828125 260.01812744140625 463.2579345703125 257.3734130859375 C 464.4300537109375 256.2218322753906 465.576171875 254.92901611328125 465.94866943359375 253.33297729492188 C 466.3765869140625 251.50335693359375 465.7117919921875 249.61373901367188 464.9722900390625 247.880126953125 C 462.8846435546875 242.98583984375 459.96728515625 238.22509765625 455.50469970703125 235.325927734375 C 451.04205322265625 232.42681884765625 444.76739501953125 231.84515380859375 440.522216796875 235.03228759765625 L 439.26904296875 236.71923828125" stroke-width="0.6000000238418579" fill="rgb(159, 159, 159)" opacity="1.0"/>
    <path d="M 406.6733093261719 264.24114990234375 C 404.1969299316406 259.8836975097656 401.25555419921875 255.1474609375 396.44622802734375 253.77191162109375 C 391.77105712890625 252.42758178710938 386.890380859375 254.69601440429688 382.5930480957031 256.98046875 C 380.8486633300781 257.91107177734375 379.03863525390625 258.9124450683594 377.9425354003906 260.5565490722656 C 376.0870361328125 263.33612060546875 376.794921875 267.07867431640625 378.0543212890625 270.16900634765625 C 379.2221374511719 273.037841796875 380.79583740234375 275.7240905761719 382.7272644042969 278.1455993652344 C 385.8619384765625 282.07855224609375 390.6468505859375 285.45855712890625 395.576416015625 284.47088623046875 C 398.2384948730469 283.94158935546875 400.5401611328125 282.17572021484375 402.2237854003906 280.04150390625 C 403.90740966796875 277.9072570800781 405.0447998046875 275.39990234375 406.13238525390625 272.9085998535156 C 407.2199401855469 270.4172668457031 408.2351989746094 267.9460144042969 408.2048645019531 265.2926025390625 L 406.6733093261719 264.24114990234375" stroke-width="0.6000000238418579" fill="rgb(218, 166, 20)" opacity="1.0"/>
    <path d="M 413.2684326171875 90.69696044921875 C 407.95458984375 97.64408874511719 409.2786560058594 107.58355712890625 416.22576904296875 112.89739990234375 C 416.8206787109375 113.3524169921875 417.447021484375 113.76466369628906 418.10028076171875 114.13105773925781 C 420.5826416015625 115.52275085449219 423.58038330078125 116.22683715820312 426.311767578125 115.43270874023438 C 428.6201171875 114.7618408203125 430.50836181640625 113.11273193359375 432.13623046875 111.34619140625 C 436.487060546875 106.61158752441406 439.4908447265625 100.79837036132812 440.8355712890625 94.51040649414062 C 441.188232421875 92.84771728515625 441.4202880859375 91.10641479492188 440.99884033203125 89.4560546875 C 440.29296875 86.68502807617188 437.8328857421875 84.64759826660156 435.171630859375 83.59585571289062 C 431.2216796875 82.03164672851562 426.681396484375 82.27471923828125 422.728759765625 83.83462524414062 C 418.77606201171875 85.39453125 415.3851318359375 88.18870544433594 412.727294921875 91.50375366210938 L 413.2684326171875 90.69696044921875" stroke-width="0.6000000238418579" fill="rgb(143, 165, 67)" opacity="1.0"/>
    <path d="M 438.31640625 125.65765380859375 C 436.2618408203125 135.73963928222656 448.63372802734375 145.20111083984375 458.079345703125 141.291015625 C 467.5250244140625 137.38088989257812 469.875732421875 122.75421142578125 462.59814453125 115.47621154785156 C 455.32061767578125 108.19821166992188 441.5506591796875 109.86476135253906 435.5858154296875 118.26406860351562 L 438.31640625 125.65765380859375" stroke-width="0.6000000238418579" fill="rgb(233, 92, 21)" opacity="1.0"/>
    <path d="M 446.6025390625 96.274169921875 C 444.67041015625 100.97293090820312 442.8497314453125 106.7861328125 446.063720703125 110.74311828613281 C 447.404052734375 112.26806640625 449.1845703125 113.33952331542969 451.15966796875 113.80964660644531 C 456.0152587890625 115.10433959960938 461.1971435546875 113.96527099609375 465.0621337890625 110.75363159179688 C 468.333740234375 108.02088928222656 470.2432861328125 104.0755615234375 472.0 100.22024536132812 C 472.9832763671875 98.05296325683594 473.958984375 95.718994140625 473.5828857421875 93.3822021484375 C 473.0560302734375 90.27154541015625 470.2796630859375 88.07183837890625 467.5408935546875 86.50761413574219 C 463.53564453125 84.21334838867188 459.1854248046875 82.58248901367188 454.658935546875 81.67831420898438 C 453.0943603515625 81.36891174316406 451.436279296875 81.1500244140625 449.929931640625 81.67221069335938 C 448.55419921875 82.22940063476562 447.3702392578125 83.17485046386719 446.5224609375 84.39329528808594 C 443.8072509765625 87.98924255371094 442.80609130859375 92.59530639648438 443.78375244140625 96.99392700195312 L 446.6025390625 96.274169921875" stroke-width="0.6000000238418579" fill="rgb(70, 150, 179)" opacity="1.0"/>
    <path d="M 318.6780090332031 369.0663757324219 C 313.2935485839844 368.6458435058594 307.3076477050781 368.4057922363281 303.1448059082031 371.8412780761719 C 298.6752014160156 375.53448486328125 298.02142333984375 382.3578186035156 299.8426818847656 387.8622741699219 C 300.5439758300781 389.98486328125 301.61309814453125 392.07586669921875 303.3889465332031 393.43328857421875 C 304.8483581542969 394.5496826171875 306.6614685058594 395.08294677734375 308.45172119140625 395.494873046875 C 314.0956726074219 396.80078125 320.410888671875 397.0451354980469 325.2965393066406 393.9344787597656 C 330.21832275390625 390.7960205078125 332.7525329589844 384.30712890625 331.2264404296875 378.66754150390625 C 329.7003479003906 373.0279235839844 324.2879943847656 368.6561279296875 318.4473876953125 368.3976745605469 L 318.6780090332031 369.0663757324219" stroke-width="0.6000000238418579" fill="rgb(140, 28, 33)" opacity="1.0"/>
    <path d="M 304.4216613769531 397.8802795410156 C 299.45623779296875 398.45849609375 294.2958068847656 399.1148986816406 290.02459716796875 401.71923828125 C 285.7534484863281 404.32354736328125 282.60333251953125 409.50164794921875 283.9254150390625 414.325439453125 C 285.5707092285156 420.2762451171875 293.4669494628906 422.7520751953125 299.1620788574219 420.33905029296875 C 304.8572082519531 417.926025390625 308.44232177734375 412.148681640625 310.3741455078125 406.2809753417969 C 311.15411376953125 404.52447509765625 311.2473449707031 402.53948974609375 310.63531494140625 400.7176818847656 C 309.8468322753906 398.99920654296875 307.25762939453125 398.06390380859375 305.9858093261719 399.4755859375 L 304.4216613769531 397.8802795410156" stroke-width="0.6000000238418579" fill="rgb(159, 159, 159)" opacity="1.0"/>
    <path d="M 322.135498046875 415.77325439453125 C 316.9114990234375 417.93450927734375 312.3141784667969 421.93267822265625 310.1759338378906 427.1629638671875 C 308.0377197265625 432.39324951171875 308.66314697265625 438.8525390625 312.3778381347656 443.1419677734375 C 315.00799560546875 446.17138671875 318.9339904785156 447.899658203125 322.9211120605469 448.374755859375 C 326.90826416015625 448.849853515625 330.96026611328125 448.163818359375 334.7951354980469 446.97125244140625 C 336.46368408203125 446.4512939453125 338.1762390136719 445.78509521484375 339.3042297363281 444.4560546875 C 340.59814453125 442.9329833984375 340.8874206542969 440.8221435546875 341.03021240234375 438.8226318359375 C 341.43328857421875 433.1776123046875 340.986572265625 427.255859375 338.1732482910156 422.34442138671875 C 335.35986328125 417.4329833984375 329.70599365234375 413.8336181640625 324.1408386230469 414.7861328125 L 322.135498046875 415.77325439453125" stroke-width="0.6000000238418579" fill="rgb(159, 159, 159)" opacity="1.0"/>
    <path d="M 260.5700378417969 416.4232177734375 C 254.8370361328125 417.017578125 248.49029541015625 417.9266357421875 244.81948852539062 422.35565185546875 C 241.2435302734375 426.6578369140625 241.377197265625 432.845703125 241.7972412109375 438.4267578125 C 241.97125244140625 440.6937255859375 242.18939208984375 443.0625 243.41427612304688 444.97650146484375 C 245.48406982421875 448.21484375 249.75234985351562 449.19873046875 253.58868408203125 449.3004150390625 C 257.1493835449219 449.39617919921875 260.7054138183594 448.98016357421875 264.1478576660156 448.06512451171875 C 269.738037109375 446.58135986328125 275.5083923339844 443.104248046875 276.74609375 437.4566650390625 C 277.41876220703125 434.40869140625 276.6226806640625 431.16888427734375 275.15313720703125 428.40972900390625 C 273.6835632324219 425.65057373046875 271.56866455078125 423.294189453125 269.4476013183594 420.997802734375 C 267.32659912109375 418.7012939453125 265.1932678222656 416.490234375 262.3849792480469 415.296142578125 L 260.5700378417969 416.4232177734375" stroke-width="0.6000000238418579" fill="rgb(218, 166, 20)" opacity="1.0"/>
    <path d="M 222.65228271484375 411.89471435546875 C 214.02392578125 407.45489501953125 203.43008422851562 410.850341796875 198.990234375 419.4786376953125 C 198.61004638671875 420.217529296875 198.28277587890625 420.982421875 198.01083374023438 421.767578125 C 196.97808837890625 424.751220703125 196.7972412109375 428.1627197265625 198.20016479492188 430.98956298828125 C 199.385498046875 433.3785400390625 201.55667114257812 435.11700439453125 203.80499267578125 436.548095703125 C 209.82843017578125 440.370361328125 216.76544189453125 442.5101318359375 223.89544677734375 442.7451171875 C 225.78021240234375 442.80401611328125 227.7271728515625 442.7158203125 229.4466552734375 441.93194580078125 C 232.33407592773438 440.61767578125 234.07632446289062 437.53167724609375 234.7027587890625 434.41937255859375 C 235.63604736328125 429.79931640625 234.48004150390625 424.88916015625 232.0013427734375 420.87896728515625 C 229.52267456054688 416.8687744140625 225.806396484375 413.71405029296875 221.66513061523438 411.4620056152344 L 222.65228271484375 411.89471435546875" stroke-width="0.6000000238418579" fill="rgb(143, 165, 67)" opacity="1.0"/>
    <path d="M 282.19140625 358.679931640625 C 287.8778381347656 368.0828857421875 304.4413146972656 366.55377197265625 309.0262145996094 356.6451416015625 C 313.6110534667969 346.7365417480469 304.8667297363281 333.55108642578125 293.88372802734375 333.1061096191406 C 282.9007263183594 332.6611328125 273.29644775390625 343.93914794921875 274.6945495605469 354.8521728515625 L 282.19140625 358.679931640625" stroke-width="0.6000000238418579" fill="rgb(233, 92, 21)" opacity="1.0"/>
    <path d="M 335.19305419921875 361.4333190917969 C 334.3643493652344 366.82965087890625 333.9341125488281 373.3616638183594 338.29229736328125 376.68084716796875 C 340.0780944824219 377.93426513671875 342.20880126953125 378.6026306152344 344.3905334472656 378.59375 C 349.789306640625 378.7170104980469 354.91290283203125 376.21588134765625 358.1365966796875 371.88348388671875 C 360.8617858886719 368.201416015625 361.8575134277344 363.59771728515625 362.7164611816406 359.12664794921875 C 363.19488525390625 356.6142883300781 363.6231994628906 353.9297790527344 362.63897705078125 351.58447265625 C 361.30145263671875 348.4690856933594 357.8451232910156 346.87445068359375 354.58892822265625 345.9339294433594 C 349.8251953125 344.5515441894531 344.8691101074219 343.9493103027344 339.91290283203125 344.150634765625 C 338.2005920410156 344.2234802246094 336.41351318359375 344.4145202636719 334.97247314453125 345.34112548828125 C 333.6766357421875 346.271240234375 332.679443359375 347.5583190917969 332.1024475097656 349.0453796386719 C 330.1767883300781 353.4881591796875 330.2969665527344 358.5520324707031 332.4313049316406 362.8984375 L 335.19305419921875 361.4333190917969" stroke-width="0.6000000238418579" fill="rgb(70, 150, 179)" opacity="1.0"/>
    <path d="M 295.7467346191406 421.71502685546875 C 289.91644287109375 421.24871826171875 283.4344787597656 420.9766845703125 278.91937255859375 424.688720703125 C 274.071533203125 428.6793212890625 273.3497619628906 436.0673828125 275.31097412109375 442.0321044921875 C 276.066162109375 444.3321533203125 277.2197265625 446.59881591796875 279.14013671875 448.0723876953125 C 280.7183532714844 449.28436279296875 282.6808166503906 449.86553955078125 284.6187438964844 450.3153076171875 C 290.728271484375 451.7408447265625 297.5668640136719 452.018310546875 302.86407470703125 448.659423828125 C 308.20050048828125 445.27056884765625 310.9580383300781 438.24853515625 309.3167419433594 432.13800048828125 C 307.6754455566406 426.0274658203125 301.8229064941406 421.2821044921875 295.4983215332031 420.9903564453125 L 295.7467346191406 421.71502685546875" stroke-width="0.6000000238418579" fill="rgb(140, 28, 33)" opacity="1.0"/>
    <path d="M 330.3996887207031 393.5409240722656 C 325.5179443359375 394.5107421875 320.4488830566406 395.5736999511719 316.41766357421875 398.49896240234375 C 312.3865051269531 401.4241943359375 309.6731262207031 406.8143310546875 311.3699035644531 411.49615478515625 C 313.477294921875 417.270751953125 321.5112609863281 419.09820556640625 326.97088623046875 416.249267578125 C 332.4305114746094 413.4002685546875 335.5278015136719 407.38079833984375 336.97705078125 401.40338134765625 C 337.611083984375 399.5979919433594 337.5452880859375 397.6205749511719 336.7926330566406 395.8613586425781 C 335.8730773925781 394.21875 333.2288513183594 393.49700927734375 332.0792236328125 394.99945068359375 L 330.3996887207031 393.5409240722656" stroke-width="0.6000000238418579" fill="rgb(159, 159, 159)" opacity="1.0"/>
    <path d="M 354.06170654296875 416.00396728515625 C 348.97088623046875 418.5577392578125 344.6441650390625 422.91143798828125 342.87841796875 428.3231201171875 C 341.1126708984375 433.73486328125 342.2137145996094 440.17926025390625 346.260009765625 444.2174072265625 C 349.1243896484375 447.06878662109375 353.19561767578125 448.51806640625 357.2365417480469 448.70367431640625 C 361.2774963378906 448.8892822265625 365.29864501953125 447.903564453125 369.0645751953125 446.4246826171875 C 370.7030334472656 445.7801513671875 372.3750305175781 444.9854736328125 373.4111633300781 443.5675048828125 C 374.59979248046875 441.9425048828125 374.73602294921875 439.8004150390625 374.7331848144531 437.7808837890625 C 374.7251281738281 432.0794677734375 373.8429870605469 426.16204833984375 370.6568603515625 421.43304443359375 C 367.4706726074219 416.7039794921875 361.52642822265625 413.5010986328125 356.0044250488281 414.86541748046875 L 354.06170654296875 416.00396728515625" stroke-width="0.6000000238418579" fill="rgb(159, 159, 159)" opacity="1.0"/>
    <path d="M 252.8248291015625 365.130126953125 C 254.7987060546875 359.6906433105469 256.757080078125 353.5589294433594 254.3636474609375 348.3030090332031 C 252.04318237304688 343.1883239746094 246.39453125 340.5989990234375 241.168701171875 338.5342102050781 C 239.0445556640625 337.69854736328125 236.80902099609375 336.858154296875 234.54351806640625 337.1264953613281 C 230.7115478515625 337.5780334472656 227.953369140625 341.0030822753906 226.18133544921875 344.42425537109375 C 224.53536987304688 347.5990295410156 223.35379028320312 350.99371337890625 222.67279052734375 354.5043640136719 C 221.56494140625 360.2043151855469 222.178955078125 366.9400634765625 226.7388916015625 370.5316467285156 C 229.19778442382812 372.4742126464844 232.47323608398438 373.1739501953125 235.60943603515625 373.05474853515625 C 238.74566650390625 372.935546875 241.80059814453125 372.05694580078125 244.80413818359375 371.1465759277344 C 247.80767822265625 370.2362060546875 250.73944091796875 369.2773132324219 253.048095703125 367.2633056640625 L 252.8248291015625 365.130126953125" stroke-width="0.6000000238418579" fill="rgb(218, 166, 20)" opacity="1.0"/>
    <path d="M 257.49462890625 389.5095520019531 C 252.08642578125 381.58563232421875 241.278564453125 379.5462341308594 233.35467529296875 384.9544372558594 C 232.67611694335938 385.41754150390625 232.03131103515625 385.9281921386719 231.425048828125 386.4825744628906 C 229.12176513671875 388.5894470214844 227.357421875 391.46954345703125 227.24514770507812 394.5875549316406 C 227.1500244140625 397.2225036621094 228.21820068359375 399.7564392089844 229.498291015625 402.0594787597656 C 232.9332275390625 408.219482421875 237.95489501953125 413.347412109375 244.04165649414062 416.9105224609375 C 245.65216064453125 417.8497314453125 247.385986328125 418.6903076171875 249.2498779296875 418.8189697265625 C 252.3787841796875 419.03680419921875 255.34695434570312 417.17523193359375 257.3576965332031 414.76513671875 C 260.3453674316406 411.18902587890625 261.65374755859375 406.37646484375 261.3884582519531 401.7230529785156 C 261.1231689453125 397.0696716308594 259.3791198730469 392.5768127441406 256.8404541015625 388.66839599609375 L 257.49462890625 389.5095520019531" stroke-width="0.6000000238418579" fill="rgb(143, 165, 67)" opacity="1.0"/>
    <path d="M 207.06658935546875 375.0857849121094 C 199.78860473632812 383.3392639160156 206.21804809570312 398.70556640625 217.0601806640625 400.1138000488281 C 227.90234375 401.5220031738281 237.87692260742188 389.21234130859375 235.00753784179688 378.5855407714844 C 232.13815307617188 367.9587097167969 218.48199462890625 362.1656799316406 208.47491455078125 366.77496337890625 L 207.06658935546875 375.0857849121094" stroke-width="0.6000000238418579" fill="rgb(233, 92, 21)" opacity="1.0"/>
    <path d="M 258.5010986328125 366.7203674316406 C 259.51690673828125 372.1346435546875 261.2918701171875 378.49676513671875 266.5507507324219 380.198974609375 C 268.669921875 380.794921875 270.9218444824219 380.7186279296875 272.99578857421875 379.9804992675781 C 278.1764221191406 378.2923278808594 282.2174377441406 374.1978454589844 283.83740234375 368.9954528808594 C 285.20025634765625 364.5788879394531 284.6085205078125 359.8633117675781 283.9309387207031 355.31976318359375 C 283.5461730957031 352.7680969238281 283.0561218261719 350.0693054199219 281.3348083496094 348.1658020019531 C 279.0196533203125 345.64739990234375 275.196044921875 345.2852478027344 271.78173828125 345.4788818359375 C 266.7845153808594 345.7560729980469 261.8651123046875 346.84027099609375 257.2143249511719 348.68939208984375 C 255.60861206054688 349.3314208984375 253.97128295898438 350.1109313964844 252.90936279296875 351.4749755859375 C 251.98681640625 352.79376220703125 251.46795654296875 354.3525085449219 251.416015625 355.96112060546875 C 251.06866455078125 360.83447265625 252.87661743164062 365.6148986816406 256.36199951171875 369.03875732421875 L 258.5010986328125 366.7203674316406" stroke-width="0.6000000238418579" fill="rgb(70, 150, 179)" opacity="1.0"/>
    <path d="M 331.3515319824219 360.1535339355469 C 334.1266174316406 354.9034423828125 336.9821472167969 348.96759033203125 335.33258056640625 343.266845703125 C 333.5569152832031 337.14404296875 326.95660400390625 333.50543212890625 320.6067199707031 332.94024658203125 C 318.1585693359375 332.7213134765625 315.5816650390625 332.8873291015625 313.43658447265625 334.0867919921875 C 311.6728515625 335.0721435546875 310.3431396484375 336.6690368652344 309.1458740234375 338.2958068847656 C 305.3640441894531 343.4212646484375 302.36041259765625 349.68756103515625 303.3665771484375 355.97589111328125 C 304.385009765625 362.3128356933594 309.8268737792969 367.7030944824219 316.1842956542969 368.6251220703125 C 322.5417175292969 369.54718017578125 329.3163757324219 365.993896484375 332.1270446777344 360.2127380371094 L 331.3515319824219 360.1535339355469" stroke-width="0.6000000238418579" fill="rgb(140, 28, 33)" opacity="1.0"/>
    <path d="M 354.0331115722656 398.8012390136719 C 349.0888977050781 399.46966552734375 343.9515075683594 400.2197265625 339.7373352050781 402.8971862792969 C 335.5232238769531 405.57464599609375 332.47515869140625 410.79974365234375 333.88330078125 415.5888671875 C 335.6346740722656 421.49676513671875 343.5597229003906 423.82196044921875 349.1983337402344 421.30914306640625 C 354.8369140625 418.79632568359375 358.3080139160156 412.96533203125 360.1276550292969 407.074462890625 C 360.8736267089844 405.3073425292969 360.9300842285156 403.3248596191406 360.28582763671875 401.5181884765625 C 359.4673767089844 399.81787109375 356.866455078125 398.9322509765625 355.623291015625 400.3643493652344 L 354.0331115722656 398.8012390136719" stroke-width="0.6000000238418579" fill="rgb(159, 159, 159)" opacity="1.0"/>
    <path d="M 182.373046875 413.07733154296875 C 176.44708251953125 412.89691162109375 170.33023071289062 414.742919921875 166.03515625 418.8251953125 C 161.74005126953125 422.90753173828125 159.55938720703125 429.35418701171875 161.2667236328125 435.05462646484375 C 162.47891235351562 439.0833740234375 165.49014282226562 442.42529296875 169.0989990234375 444.594970703125 C 172.7078857421875 446.7646484375 176.87826538085938 447.851806640625 181.0589599609375 448.3609619140625 C 182.87841796875 448.58154296875 184.80291748046875 448.68115234375 186.45346069335938 447.89532470703125 C 188.34619140625 446.99530029296875 189.53094482421875 445.10101318359375 190.5277099609375 443.2501220703125 C 193.34173583984375 438.02471923828125 195.46209716796875 432.16900634765625 194.8843994140625 426.261474609375 C 194.306640625 420.3538818359375 190.44781494140625 414.47918701171875 184.71560668945312 412.9959716796875 L 182.373046875 413.07733154296875" stroke-width="0.6000000238418579" fill="rgb(159, 159, 159)" opacity="1.0"/>
    <path d="M 359.214111328125 366.4811096191406 C 353.605712890625 367.8514709472656 347.43109130859375 369.6176452636719 344.3912048339844 374.5126647949219 C 341.42822265625 379.2688903808594 342.40325927734375 385.3914489746094 343.5799560546875 390.8727722167969 C 344.06121826171875 393.0987854003906 344.6002197265625 395.4198303222656 346.07635498046875 397.1524658203125 C 348.57122802734375 400.0843505859375 352.94091796875 400.4796142578125 356.7618713378906 400.05828857421875 C 360.3085021972656 399.6685791015625 363.78076171875 398.7716064453125 367.07244873046875 397.3948669433594 C 372.4179992675781 395.1613464355469 377.6710205078125 390.9251403808594 378.13043212890625 385.1520690917969 C 378.3830261230469 382.0357360839844 377.1519470214844 378.92901611328125 375.31793212890625 376.3909606933594 C 373.4839172363281 373.8529052734375 371.0643615722656 371.80242919921875 368.6468200683594 369.812255859375 C 366.2293395996094 367.8220520019531 363.81121826171875 365.91827392578125 360.8617858886719 365.1156005859375 L 359.214111328125 366.4811096191406" stroke-width="0.6000000238418579" fill="rgb(218, 166, 20)" opacity="1.0"/>
    <path d="M 378.6995544433594 381.14019775390625 C 374.1163635253906 389.7828063964844 377.40716552734375 400.5044250488281 386.0497741699219 405.087646484375 C 386.78985595703125 405.4801025390625 387.55682373046875 405.8195495605469 388.3449401855469 406.1034851074219 C 391.33978271484375 407.1817626953125 394.77655029296875 407.4065856933594 397.6436767578125 406.0275573730469 C 400.06671142578125 404.8624267578125 401.84625244140625 402.6954040527344 403.31689453125 400.4468078613281 C 407.2450866699219 394.4223937988281 409.48858642578125 387.4560852050781 409.8143005371094 380.271484375 C 409.897216796875 378.37225341796875 409.83258056640625 376.4084777832031 409.06378173828125 374.6653747558594 C 407.7748718261719 371.73828125 404.68572998046875 369.9435119628906 401.5561218261719 369.2732238769531 C 396.91046142578125 368.27484130859375 391.9462585449219 369.37896728515625 387.872802734375 371.8276672363281 C 383.79937744140625 374.2763671875 380.5728759765625 377.9833068847656 378.2510681152344 382.1299133300781 L 378.6995544433594 381.14019775390625" stroke-width="0.6000000238418579" fill="rgb(143, 165, 67)" opacity="1.0"/>
    <path d="M 365.9165344238281 362.7716979980469 C 371.0699157714844 372.46441650390625 387.6756896972656 371.8526916503906 392.7954406738281 362.22210693359375 C 397.9151611328125 352.5915222167969 389.9202575683594 338.9572448730469 378.9896545410156 337.90765380859375 C 368.05908203125 336.8580627441406 357.8571472167969 347.5777587890625 358.6498107910156 358.5401611328125 L 365.9165344238281 362.7716979980469" stroke-width="0.6000000238418579" fill="rgb(233, 92, 21)" opacity="1.0"/>
    <path d="M 396.9958190917969 359.0736083984375 C 398.0641784667969 364.62261962890625 399.9158630371094 371.1402587890625 405.3187255859375 372.8608093261719 C 407.4954528808594 373.46185302734375 409.8050842285156 373.37261962890625 411.928955078125 372.6053771972656 C 417.23504638671875 370.84844970703125 421.3604736328125 366.628662109375 422.996826171875 361.2841796875 C 424.3734130859375 356.74700927734375 423.74346923828125 351.91265869140625 423.02630615234375 347.25518798828125 C 422.61920166015625 344.6395568847656 422.1033935546875 341.8735046386719 420.32843017578125 339.92926025390625 C 417.9412841796875 337.3571472167969 414.01727294921875 337.0042419433594 410.51580810546875 337.2195129394531 C 405.3909912109375 337.52813720703125 400.3499450683594 338.6642150878906 395.588134765625 340.58367919921875 C 393.94415283203125 341.25006103515625 392.2683410644531 342.05767822265625 391.1856384277344 343.4620666503906 C 390.2457580566406 344.8193664550781 389.7210693359375 346.42083740234375 389.6756286621094 348.0711975097656 C 389.3429870605469 353.0719909667969 391.2208557128906 357.96697998046875 394.81280517578125 361.4621887207031 L 396.9958190917969 359.0736083984375" stroke-width="0.6000000238418579" fill="rgb(70, 150, 179)" opacity="1.0"/>
    <path d="M 386.5389709472656 414.599853515625 C 384.75067138671875 420.287841796875 383.00732421875 426.66766357421875 385.6702575683594 431.9981689453125 C 388.5343017578125 437.72265625 395.7123107910156 440.118896484375 402.0855712890625 439.52532958984375 C 404.5429382324219 439.2974853515625 407.0576171875 438.66619873046875 408.95843505859375 437.0926513671875 C 410.521484375 435.7996826171875 411.54498291015625 433.9814453125 412.43231201171875 432.1578369140625 C 415.2374267578125 426.4102783203125 417.06707763671875 419.6773681640625 414.9329833984375 413.64990234375 C 412.77783203125 407.5765686035156 406.4261779785156 403.240478515625 399.980712890625 403.48297119140625 C 393.5352783203125 403.7254638671875 387.489501953125 408.4631652832031 385.76239013671875 414.68206787109375 L 386.5389709472656 414.599853515625" stroke-width="0.6000000238418579" fill="rgb(140, 28, 33)" opacity="1.0"/>
    <path d="M 411.7730712890625 386.99322509765625 C 411.7557678222656 391.96392822265625 411.7925720214844 397.1364440917969 413.8577880859375 401.6617736816406 C 415.923095703125 406.1870422363281 420.662109375 409.910400390625 425.58111572265625 409.176513671875 C 431.6510009765625 408.2570495605469 435.03076171875 400.75457763671875 433.322998046875 394.8460998535156 C 431.615234375 388.9376220703125 426.33612060546875 384.7138366699219 420.77191162109375 382.111572265625 C 419.130126953125 381.1334533691406 417.1815185546875 380.80633544921875 415.3104248046875 381.1947326660156 C 413.5203857421875 381.7696228027344 412.290283203125 384.215087890625 413.5333251953125 385.6379699707031 L 411.7730712890625 386.99322509765625" stroke-width="0.6000000238418579" fill="rgb(159, 159, 159)" opacity="1.0"/>
    <path d="M 439.56610107421875 369.5284118652344 C 440.7589111328125 375.3902282714844 443.986083984375 380.97100830078125 448.98846435546875 384.2455749511719 C 453.9908447265625 387.5201416015625 460.82647705078125 388.17144775390625 466.0303955078125 385.1767272949219 C 469.7069091796875 383.0547790527344 472.29296875 379.32470703125 473.5894775390625 375.2787170410156 C 474.8861083984375 371.23272705078125 474.9896240234375 366.885498046875 474.523193359375 362.6617736816406 C 474.319091796875 360.8238220214844 473.9720458984375 358.91070556640625 472.8187255859375 357.4713134765625 C 471.4971923828125 355.8204650878906 469.36279296875 355.0948181152344 467.3145751953125 354.54376220703125 C 461.53192138671875 352.98809814453125 455.29058837890625 352.2593994140625 449.6221923828125 354.19256591796875 C 443.9537353515625 356.125732421875 439.0760498046875 361.2738037109375 438.94464111328125 367.24652099609375 L 439.56610107421875 369.5284118652344" stroke-width="0.6000000238418579" fill="rgb(159, 159, 159)" opacity="1.0"/>
    <path d="M 425.22064208984375 409.96380615234375 C 420.38916015625 412.85693359375 415.14410400390625 416.281982421875 413.7218017578125 421.719482421875 C 412.3311767578125 427.0054931640625 415.0040283203125 432.42999267578125 417.6800537109375 437.1988525390625 C 418.76995849609375 439.134521484375 419.9410400390625 441.1422119140625 421.81591796875 442.3314208984375 C 424.985595703125 444.34466552734375 429.17156982421875 443.453857421875 432.61077880859375 441.960205078125 C 435.80352783203125 440.5750732421875 438.78076171875 438.7386474609375 441.4515380859375 436.5072021484375 C 445.789306640625 432.885498046875 449.46380615234375 427.4241943359375 448.2283935546875 421.91204833984375 C 447.5657958984375 418.93524169921875 445.52337646484375 416.3948974609375 443.0830078125 414.5582275390625 C 440.642578125 412.7215576171875 437.7969970703125 411.5079650878906 434.97064208984375 410.3499450683594 C 432.14434814453125 409.19195556640625 429.3424072265625 408.1146545410156 426.362548828125 408.2165222167969 L 425.22064208984375 409.96380615234375" stroke-width="0.6000000238418579" fill="rgb(218, 166, 20)" opacity="1.0"/>
    <path d="M 137.5537872314453 222.7449951171875 C 132.33641052246094 231.02557373046875 134.81961059570312 241.96783447265625 143.1001739501953 247.1851806640625 C 143.80923461914062 247.6319580078125 144.54910278320312 248.02783203125 145.314208984375 248.36993408203125 C 148.2216339111328 249.66915893554688 151.63365173339844 250.14987182617188 154.59698486328125 248.98797607421875 C 157.101318359375 248.00634765625 159.0384521484375 245.97714233398438 160.67340087890625 243.84347534179688 C 165.0419921875 238.12615966796875 167.79998779296875 231.34344482421875 168.6610107421875 224.1998291015625 C 168.88543701171875 222.31121826171875 168.96749877929688 220.34716796875 168.33053588867188 218.55078125 C 167.26300048828125 215.5343017578125 164.31494140625 213.51321411132812 161.24261474609375 212.6109619140625 C 156.6822509765625 211.26828002929688 151.647216796875 211.99945068359375 147.40054321289062 214.1385498046875 C 143.15386962890625 216.27764892578125 139.65829467773438 219.7352294921875 137.03250122070312 223.698974609375 L 137.5537872314453 222.7449951171875" stroke-width="0.6000000238418579" fill="rgb(143, 165, 67)" opacity="1.0"/>
    <path d="M 172.38528442382812 261.0859375 C 177.837890625 271.4533386230469 195.56024169921875 270.88006591796875 201.06939697265625 260.62811279296875 C 206.57855224609375 250.37615966796875 198.11273193359375 235.789306640625 186.4541015625 234.61700439453125 C 174.7955322265625 233.4447021484375 163.85812377929688 244.83447265625 164.6514892578125 256.5358581542969 L 172.38528442382812 261.0859375" stroke-width="0.6000000238418579" fill="rgb(233, 92, 21)" opacity="1.0"/>
    <path d="M 147.00193786621094 317.1277160644531 C 142.89796447753906 321.1368408203125 138.41148376464844 326.3514404296875 139.97586059570312 331.8915710449219 C 140.6842041015625 334.07208251953125 142.05172729492188 335.97906494140625 143.8898162841797 337.34942626953125 C 148.34645080566406 340.8623962402344 154.2293701171875 341.9973449707031 159.6729736328125 340.39434814453125 C 164.2872314453125 339.02276611328125 168.0308837890625 335.78485107421875 171.575927734375 332.5719909667969 C 173.56439208984375 330.76397705078125 175.61944580078125 328.77972412109375 176.27392578125 326.18829345703125 C 177.117919921875 322.7269592285156 175.22198486328125 319.204833984375 173.08102416992188 316.3585510253906 C 169.95291137695312 312.18902587890625 166.1705322265625 308.5533447265625 161.88064575195312 305.59246826171875 C 160.39642333984375 304.572265625 158.7747802734375 303.6041564941406 156.979248046875 303.47235107421875 C 155.3035125732422 303.43524169921875 153.6531219482422 303.8865051269531 152.22938537597656 304.7711486816406 C 147.8062744140625 307.28656005859375 144.70925903320312 311.6156921386719 143.7570343017578 316.61419677734375 L 147.00193786621094 317.1277160644531" stroke-width="0.6000000238418579" fill="rgb(70, 150, 179)" opacity="1.0"/>
    <path d="M 127.08523559570312 306.984619140625 C 125.89936828613281 301.0873718261719 124.33731079101562 294.6004943847656 119.39097595214844 291.1841735839844 C 114.07528686523438 287.5174560546875 106.56536865234375 288.8907165527344 101.22088623046875 292.51513671875 C 99.15969848632812 293.91168212890625 97.24407958984375 295.6927795410156 96.32936096191406 298.00811767578125 C 95.57669067382812 299.91119384765625 95.55636596679688 302.0160217285156 95.6590576171875 304.0594482421875 C 95.97515869140625 310.5038757324219 97.63265991210938 317.3448791503906 102.45059204101562 321.6344299316406 C 107.309326171875 325.95428466796875 115.03237915039062 326.6975402832031 120.61141967773438 323.34832763671875 C 126.1904296875 319.99908447265625 129.22984313964844 312.8710021972656 127.73167419433594 306.5342712402344 L 127.08523559570312 306.984619140625" stroke-width="0.6000000238418579" fill="rgb(140, 28, 33)" opacity="1.0"/>
    <path d="M 139.90158081054688 279.9925231933594 C 135.33770751953125 281.93414306640625 130.6101531982422 284.0048522949219 127.27470397949219 287.6803283691406 C 123.9393310546875 291.35577392578125 122.39205932617188 297.166748046875 125.00198364257812 301.3873596191406 C 128.2353057861328 306.590087890625 136.4443817138672 306.7340087890625 141.1886444091797 302.8415832519531 C 145.9329071044922 298.94915771484375 147.7262725830078 292.446044921875 147.9207763671875 286.320068359375 C 148.17095947265625 284.4297790527344 147.7034912109375 282.5144348144531 146.61053466796875 280.9519958496094 C 145.37857055664062 279.537353515625 142.65220642089844 279.3726501464844 141.83726501464844 281.0726013183594 L 139.90158081054688 279.9925231933594" stroke-width="0.6000000238418579" fill="rgb(159, 159, 159)" opacity="1.0"/>
    <path d="M 164.55340576171875 286.32275390625 C 163.60040283203125 292.2112121582031 164.64410400390625 298.5544738769531 168.156494140625 303.3719482421875 C 171.66891479492188 308.1894226074219 177.81591796875 311.2059326171875 183.72564697265625 310.2462158203125 C 187.90304565429688 309.5624084472656 191.6298828125 306.9942321777344 194.26519775390625 303.6769104003906 C 196.9005126953125 300.35955810546875 198.52911376953125 296.3408203125 199.58245849609375 292.23638916015625 C 200.039794921875 290.4499816894531 200.3902587890625 288.54302978515625 199.82159423828125 286.79388427734375 C 199.17059326171875 284.7882080078125 197.435302734375 283.359130859375 195.71881103515625 282.123291015625 C 190.872802734375 278.6342468261719 185.3074951171875 275.7550048828125 179.33853149414062 275.5607604980469 C 173.36953735351562 275.36651611328125 167.00527954101562 278.44989013671875 164.77783203125 283.9751281738281 L 164.55340576171875 286.32275390625" stroke-width="0.6000000238418579" fill="rgb(159, 159, 159)" opacity="1.0"/>
    <path d="M 121.79611206054688 343.2078857421875 C 121.3516845703125 337.4348449707031 120.60760498046875 331.037109375 116.25750732421875 327.23297119140625 C 112.03225708007812 323.5274963378906 105.81463623046875 323.4971008300781 100.1988525390625 323.7705078125 C 97.91767883300781 323.88494873046875 95.53305053710938 324.041015625 93.57839965820312 325.2201843261719 C 90.27133178710938 327.2125549316406 89.16978454589844 331.47271728515625 88.96560668945312 335.32257080078125 C 88.77471923828125 338.8957824707031 89.09793090820312 342.4778747558594 89.92529296875 345.9592590332031 C 91.26664733886719 351.61248779296875 94.60498046875 357.4997253417969 100.24354553222656 358.89288330078125 C 103.2864990234375 359.64947509765625 106.5611572265625 358.9361877441406 109.37104797363281 357.5338134765625 C 112.18095397949219 356.13140869140625 114.60350036621094 354.07025146484375 116.966064453125 352.0013122558594 C 119.32864379882812 349.9324035644531 121.60578918457031 347.8488464355469 122.879638671875 345.0604553222656 L 121.79611206054688 343.2078857421875" stroke-width="0.6000000238418579" fill="rgb(218, 166, 20)" opacity="1.0"/>
    <path d="M 156.78765869140625 345.14031982421875 C 148.28228759765625 349.3377380371094 144.78997802734375 359.6353759765625 148.9873809814453 368.1407775878906 C 149.3468017578125 368.86907958984375 149.7574462890625 369.57098388671875 150.21620178222656 370.2412109375 C 151.95985412597656 372.78753662109375 154.5350341796875 374.9132995605469 157.57174682617188 375.45477294921875 C 160.137939453125 375.91259765625 162.76629638671875 375.2176513671875 165.197998046875 374.2833557128906 C 171.7034912109375 371.7734375 177.4183349609375 367.5674133300781 181.74884033203125 362.1022033691406 C 182.89108276367188 360.6556701660156 183.95391845703125 359.07470703125 184.33782958984375 357.2679748535156 C 184.98419189453125 354.23516845703125 183.57269287109375 351.0719299316406 181.49169921875 348.77001953125 C 178.404541015625 345.350341796875 173.87457275390625 343.4034729003906 169.2825927734375 343.01910400390625 C 164.69061279296875 342.63470458984375 160.05108642578125 343.7200927734375 155.87371826171875 345.6642761230469 L 156.78765869140625 345.14031982421875" stroke-width="0.6000000238418579" fill="rgb(143, 165, 67)" opacity="1.0"/>
    <path d="M 139.26443481445312 382.979736328125 C 132.33229064941406 373.6413879394531 115.03347778320312 376.9096984863281 111.19403076171875 387.8084411621094 C 107.3546142578125 398.7071533203125 117.88710021972656 411.72491455078125 129.503662109375 411.09490966796875 C 141.12020874023438 410.4649353027344 150.11123657226562 397.62115478515625 147.54632568359375 386.26275634765625 L 139.26443481445312 382.979736328125" stroke-width="0.6000000238418579" fill="rgb(233, 92, 21)" opacity="1.0"/>
    <path d="M 186.7784423828125 358.86181640625 C 185.20135498046875 364.2140197753906 183.87255859375 370.77093505859375 187.83279418945312 374.728515625 C 189.4700927734375 376.24212646484375 191.5367431640625 377.21038818359375 193.7476806640625 377.4996643066406 C 199.19879150390625 378.36260986328125 204.72998046875 376.5299072265625 208.58734130859375 372.5827331542969 C 211.850830078125 369.22607421875 213.48873901367188 364.6994934082031 214.969970703125 360.2885437011719 C 215.79803466796875 357.8094177246094 216.598876953125 355.1490478515625 215.92266845703125 352.63909912109375 C 214.99392700195312 349.3009338378906 211.71133422851562 347.21331787109375 208.5419921875 345.8155517578125 C 203.90618896484375 343.76416015625 198.96893310546875 342.47662353515625 193.92169189453125 342.0028991699219 C 192.17745971679688 341.84259033203125 190.34136962890625 341.791748046875 188.75515747070312 342.533203125 C 187.3155517578125 343.2980651855469 186.12960815429688 344.4653015136719 185.3419189453125 345.892578125 C 182.78414916992188 350.1289978027344 182.21356201171875 355.27423095703125 183.781005859375 359.9681396484375 L 186.7784423828125 358.86181640625" stroke-width="0.6000000238418579" fill="rgb(70, 150, 179)" opacity="1.0"/>
  </g>
</svg>
