<?xml version="1.0" ?>
<svg xmlns="http://www.w3.org/2000/svg" version="1.1" width="600" height="600">
  <defs/>
  <g>
    <path d="M 355.11083984375 343.92071533203125 C 359.3946838378906 347.0910949707031 366.5434875488281 343.3526916503906 366.7743225097656 338.0626525878906 C 367.005126953125 332.7725830078125 360.6524353027344 328.4688720703125 355.643310546875 330.2932434082031 C 350.6341857910156 332.11761474609375 348.4039306640625 338.947021484375 351.042236328125 343.5850830078125 L 355.11083984375 343.92071533203125" stroke-width="0.6000000238418579" fill="rgb(233, 92, 21)" opacity="1.0"/>
    <path d="M 112.35598754882812 201.3826904296875 C 114.67803955078125 199.76168823242188 117.28369140625 197.58456420898438 116.96913146972656 194.760498046875 C 116.80020141601562 193.6414794921875 116.2882080078125 192.60247802734375 115.50376892089844 191.78680419921875 C 113.61715698242188 189.7164306640625 110.84405517578125 188.68887329101562 108.06385803222656 189.030029296875 C 105.70622253417969 189.32550048828125 103.62184143066406 190.5999755859375 101.63623046875 191.87835693359375 C 100.52200317382812 192.5982666015625 99.36109924316406 193.39862060546875 98.83322143554688 194.60772705078125 C 98.14280700683594 196.22509765625 98.78173828125 198.09326171875 99.59454345703125 199.652099609375 C 100.78121948242188 201.93496704101562 102.32958984375 204.01068115234375 104.1795654296875 205.798828125 C 104.81996154785156 206.4154052734375 105.53147888183594 207.01773071289062 106.39518737792969 207.22683715820312 C 107.20822143554688 207.38018798828125 108.04830932617188 207.29367065429688 108.81300354003906 206.97781372070312 C 111.169921875 206.10992431640625 113.02748107910156 204.2518310546875 113.8946533203125 201.8946533203125 L 112.35598754882812 201.3826904296875" stroke-width="0.6000000238418579" fill="rgb(70, 150, 179)" opacity="1.0"/>
    <path d="M 454.084716796875 422.586669921875 C 455.2957763671875 425.629638671875 456.7657470703125 428.9517822265625 459.748779296875 430.2987060546875 C 462.95404052734375 431.7437744140625 466.842529296875 430.27490234375 469.35137939453125 427.811767578125 C 470.319091796875 426.8624267578125 471.1712646484375 425.721435546875 471.43511962890625 424.39190673828125 C 471.6524658203125 423.299072265625 471.4578857421875 422.169677734375 471.203369140625 421.08514404296875 C 470.40478515625 417.6641845703125 468.84906005859375 414.16168212890625 465.849609375 412.33447265625 C 462.8253173828125 410.4949951171875 458.615966796875 410.8509216308594 455.95465087890625 413.1895751953125 C 453.2933349609375 415.5283203125 452.361328125 419.64306640625 453.782470703125 422.8909912109375 L 454.084716796875 422.586669921875" stroke-width="0.6000000238418579" fill="rgb(140, 28, 33)" opacity="1.0"/>
    <path d="M 89.49647521972656 203.46539306640625 C 92.31234741210938 202.76715087890625 95.2347412109375 202.009521484375 97.50189208984375 200.19598388671875 C 99.76901245117188 198.38247680664062 101.20138549804688 195.1697998046875 100.0853271484375 192.49020385742188 C 98.70028686523438 189.18560791015625 93.97247314453125 188.34136962890625 90.87155151367188 190.14959716796875 C 87.77061462402344 191.95782470703125 86.13192749023438 195.54742431640625 85.45164489746094 199.06744384765625 C 85.13189697265625 200.135986328125 85.22430419921875 201.2855224609375 85.71066284179688 202.28924560546875 C 86.29104614257812 203.22052001953125 87.85037231445312 203.56838989257812 88.47866821289062 202.66213989257812 L 89.49647521972656 203.46539306640625" stroke-width="0.6000000238418579" fill="rgb(159, 159, 159)" opacity="1.0"/>
    <path d="M 382.4261474609375 296.6217346191406 C 385.5235595703125 295.66387939453125 388.3602600097656 293.6239013671875 389.85791015625 290.7502746582031 C 391.35552978515625 287.8766784667969 391.3399963378906 284.15509033203125 389.44561767578125 281.5091857910156 C 388.1039123535156 279.64019775390625 385.95343017578125 278.44561767578125 383.7017517089844 277.9634704589844 C 381.4500732421875 277.4813232421875 379.0999450683594 277.6587219238281 376.8470153808594 278.1369323730469 C 375.86669921875 278.3456115722656 374.8535461425781 278.6354675292969 374.1391296386719 279.334716796875 C 373.3197021484375 280.13604736328125 373.0428771972656 281.3260803222656 372.8555908203125 282.4603271484375 C 372.32684326171875 285.66253662109375 372.26873779296875 289.0677490234375 373.6155090332031 292.0211486816406 C 374.9623107910156 294.97454833984375 378.0005187988281 297.3289489746094 381.22882080078125 297.079345703125 L 382.4261474609375 296.6217346191406" stroke-width="0.6000000238418579" fill="rgb(159, 159, 159)" opacity="1.0"/>
    <path d="M 100.68878173828125 431.4302978515625 C 101.9674072265625 428.89306640625 103.27876281738281 426.017333984375 102.41738891601562 423.3155517578125 C 101.58341979980469 420.6868896484375 98.97991943359375 419.0960693359375 96.55206298828125 417.7855224609375 C 95.56500244140625 417.2545166015625 94.52389526367188 416.71484375 93.40371704101562 416.7139892578125 C 91.5091552734375 416.7113037109375 89.96524047851562 418.2208251953125 88.90235900878906 419.785888671875 C 87.91525268554688 421.238037109375 87.14178466796875 422.824462890625 86.60563659667969 424.49652099609375 C 85.73410034179688 427.211181640625 85.64181518554688 430.53094482421875 87.65625 432.5472412109375 C 88.74215698242188 433.63726806640625 90.2984619140625 434.16888427734375 91.83447265625 434.2930908203125 C 93.37051391601562 434.4173583984375 94.91105651855469 434.1666259765625 96.42839050292969 433.8973388671875 C 97.94572448730469 433.628173828125 99.43089294433594 433.3310546875 100.67361450195312 432.4833984375 L 100.68878173828125 431.4302978515625" stroke-width="0.6000000238418579" fill="rgb(218, 166, 20)" opacity="1.0"/>
    <path d="M 98.71307373046875 140.00387573242188 C 104.19961547851562 139.89122009277344 108.55599975585938 135.3521728515625 108.44332885742188 129.86563110351562 C 108.43368530273438 129.39581298828125 108.39071655273438 128.9272918701172 108.31475830078125 128.4635467529297 C 108.02583312988281 126.70150756835938 107.19801330566406 124.95582580566406 105.73965454101562 123.92706298828125 C 104.50730895996094 123.05757141113281 102.9595947265625 122.77687072753906 101.45619201660156 122.66984558105469 C 97.43157958984375 122.388916015625 93.4051513671875 123.19073486328125 89.795166015625 124.99200439453125 C 88.84173583984375 125.4697265625 87.89697265625 126.03738403320312 87.25250244140625 126.889892578125 C 86.16976928710938 128.3204803466797 86.13328552246094 130.32427978515625 86.65895080566406 132.041015625 C 87.43759155273438 134.5902862548828 89.33360290527344 136.72183227539062 91.64544677734375 138.0498504638672 C 93.95729064941406 139.37786865234375 96.65463256835938 139.94740295410156 99.32052612304688 139.95355224609375 L 98.71307373046875 140.00387573242188" stroke-width="0.6000000238418579" fill="rgb(143, 165, 67)" opacity="1.0"/>
    <path d="M 457.151123046875 344.1524963378906 C 460.634521484375 349.14532470703125 469.736083984375 347.7015380859375 471.91278076171875 342.0580749511719 C 474.0894775390625 336.41461181640625 468.7789306640625 329.4411926269531 462.6910400390625 329.59197998046875 C 456.60321044921875 329.7427978515625 451.70111083984375 336.3246765136719 452.8682861328125 342.3072204589844 L 457.151123046875 344.1524963378906" stroke-width="0.6000000238418579" fill="rgb(233, 92, 21)" opacity="1.0"/>
    <path d="M 97.63473510742188 220.0364990234375 C 99.2503662109375 217.4703369140625 100.91412353515625 214.23739624023438 99.42764282226562 211.58245849609375 C 98.79498291015625 210.5489501953125 97.857177734375 209.7371826171875 96.74362182617188 209.25921630859375 C 94.02020263671875 208.00250244140625 90.85659790039062 208.14373779296875 88.25601196289062 209.63818359375 C 86.05325317382812 210.91152954101562 84.52783203125 213.03692626953125 83.10140991210938 215.12496948242188 C 82.30204772949219 216.2991943359375 81.49014282226562 217.572265625 81.47294616699219 218.98486328125 C 81.4654541015625 220.867919921875 82.87380981445312 222.44476318359375 84.32484436035156 223.64407348632812 C 86.44625854492188 225.40191650390625 88.83822631835938 226.80474853515625 91.40792846679688 227.79827880859375 C 92.29644775390625 228.13983154296875 93.24922180175781 228.43768310546875 94.1883544921875 228.28427124023438 C 95.05427551269531 228.09695434570312 95.84698486328125 227.66171264648438 96.46981811523438 227.03164672851562 C 98.4334716796875 225.19390869140625 99.49211120605469 222.5872802734375 99.36587524414062 219.9007568359375 L 97.63473510742188 220.0364990234375" stroke-width="0.6000000238418579" fill="rgb(70, 150, 179)" opacity="1.0"/>
    <path d="M 103.39949035644531 81.77798461914062 C 103.57513427734375 85.0169677734375 103.90582275390625 88.5997314453125 106.28054809570312 90.80632019042969 C 108.83297729492188 93.17514038085938 112.94708251953125 93.02452087402344 116.08010864257812 91.50469970703125 C 117.288330078125 90.91923522949219 118.44866943359375 90.11727905273438 119.11630249023438 88.95262145996094 C 119.66549682617188 87.99542236328125 119.83953857421875 86.87374877929688 119.94314575195312 85.77532958984375 C 120.27407836914062 82.31179809570312 119.91990661621094 78.53260803222656 117.681396484375 75.8699951171875 C 115.4234619140625 73.18804931640625 111.35971069335938 72.19267272949219 108.12283325195312 73.54745483398438 C 104.88595581054688 74.90225219726562 102.71138000488281 78.470458984375 103.01962280273438 81.96818542480469 L 103.39949035644531 81.77798461914062" stroke-width="0.6000000238418579" fill="rgb(140, 28, 33)" opacity="1.0"/>
    <path d="M 92.4034423828125 416.0052490234375 C 95.55690002441406 415.397216796875 98.83155822753906 414.7296142578125 101.44331359863281 412.85675048828125 C 104.05500793457031 410.98382568359375 105.82533264160156 407.51568603515625 104.7474365234375 404.4885559082031 C 103.4085693359375 400.7548828125 98.23126220703125 399.5466003417969 94.69810485839844 401.3651428222656 C 91.16494750976562 403.18365478515625 89.1446533203125 407.0565185546875 88.18785095214844 410.908203125 C 87.772216796875 412.07080078125 87.8074951171875 413.34698486328125 88.28678894042969 414.48486328125 C 88.87419128417969 415.548095703125 90.5777587890625 416.02337646484375 91.32501220703125 415.05810546875 L 92.4034423828125 416.0052490234375" stroke-width="0.6000000238418579" fill="rgb(159, 159, 159)" opacity="1.0"/>
    <path d="M 472.8609619140625 65.45603942871094 C 473.8070068359375 62.73930358886719 473.84283447265625 59.63926696777344 472.578369140625 57.0570068359375 C 471.31390380859375 54.4747314453125 468.64727783203125 52.52705383300781 465.7601318359375 52.487640380859375 C 463.7188720703125 52.462371826171875 461.7337646484375 53.36979675292969 460.2042236328125 54.72447204589844 C 458.6746826171875 56.07914733886719 457.564453125 57.851287841796875 456.72021484375 59.71232604980469 C 456.3533935546875 60.522430419921875 456.02716064453125 61.39872741699219 456.150634765625 62.277099609375 C 456.291748046875 63.28419494628906 456.99615478515625 64.10829162597656 457.707763671875 64.83906555175781 C 459.7169189453125 66.90216064453125 462.11883544921875 68.73593139648438 464.9373779296875 69.32833862304688 C 467.75592041015625 69.92074584960938 471.036865234375 68.9896240234375 472.55767822265625 66.55218505859375 L 472.8609619140625 65.45603942871094" stroke-width="0.6000000238418579" fill="rgb(159, 159, 159)" opacity="1.0"/>
    <path d="M 91.23619079589844 105.74392700195312 C 94.22866821289062 106.48799133300781 97.58717346191406 107.18539428710938 100.23983764648438 105.62503051757812 C 102.82170104980469 104.11117553710938 103.88034057617188 100.97367858886719 104.6844482421875 98.08938598632812 C 105.00936889648438 96.91719055175781 105.33062744140625 95.68572998046875 105.06260681152344 94.49990844726562 C 104.61048889160156 92.49407958984375 102.64207458496094 91.22250366210938 100.73049926757812 90.47332763671875 C 98.95648193359375 89.77728271484375 97.09173583984375 89.33956909179688 95.19329833984375 89.17359924316406 C 92.11087036132812 88.90298461914062 88.57510375976562 89.60246276855469 86.92481994628906 92.2186279296875 C 86.03182983398438 93.62969970703125 85.84288024902344 95.40451049804688 86.0802001953125 97.06004333496094 C 86.31755065917969 98.71559143066406 86.95285034179688 100.285888671875 87.60212707519531 101.82716369628906 C 88.25140380859375 103.36843872070312 88.92240905761719 104.86900329589844 90.11801147460938 105.98072814941406 L 91.23619079589844 105.74392700195312" stroke-width="0.6000000238418579" fill="rgb(218, 166, 20)" opacity="1.0"/>
    <path d="M 124.00889587402344 131.6103057861328 C 129.10313415527344 130.22366333007812 132.10873413085938 124.96987915039062 130.72210693359375 119.87564086914062 C 130.60336303710938 119.43942260742188 130.45382690429688 119.01217651367188 130.27462768554688 118.59710693359375 C 129.59341430664062 117.02009582519531 128.41307067871094 115.58421325683594 126.81170654296875 114.96470642089844 C 125.45848083496094 114.4410400390625 123.94842529296875 114.54057312011719 122.52032470703125 114.79183959960938 C 118.69856262207031 115.46968078613281 115.12799072265625 117.15846252441406 112.17953491210938 119.68275451660156 C 111.40130615234375 120.35130310058594 110.65213012695312 121.10176086425781 110.24978637695312 122.04794311523438 C 109.57339477539062 123.635986328125 110.00738525390625 125.5146484375 110.89895629882812 126.99407958984375 C 112.22109985351562 129.19143676757812 114.48849487304688 130.73794555664062 116.95632934570312 131.43739318847656 C 119.42413330078125 132.13685607910156 122.0745849609375 132.03839111328125 124.56407165527344 131.4214630126953 L 124.00889587402344 131.6103057861328" stroke-width="0.6000000238418579" fill="rgb(143, 165, 67)" opacity="1.0"/>
    <path d="M 391.6402282714844 305.29498291015625 C 395.03704833984375 310.4844665527344 404.3492431640625 309.28851318359375 406.7359924316406 303.6070556640625 C 409.1227111816406 297.92559814453125 403.9248962402344 290.6640930175781 397.7207336425781 290.6341857910156 C 391.5166015625 290.604248046875 386.32611083984375 297.1591796875 387.33441162109375 303.2867736816406 L 391.6402282714844 305.29498291015625" stroke-width="0.6000000238418579" fill="rgb(233, 92, 21)" opacity="1.0"/>
    <path d="M 121.12612915039062 109.00094604492188 C 123.65896606445312 107.58770751953125 126.53793334960938 105.6368408203125 126.50755310058594 102.7266845703125 C 126.45039367675781 101.56903076171875 126.03541564941406 100.4576416015625 125.31983947753906 99.54583740234375 C 123.61004638671875 97.24215698242188 120.88972473144531 95.91009521484375 118.02153015136719 95.97209167480469 C 115.58865356445312 96.03091430664062 113.3336181640625 97.11552429199219 111.17884826660156 98.21420288085938 C 109.96942138671875 98.83332824707031 108.70419311523438 99.52964782714844 108.04202270507812 100.70751953125 C 107.17228698730469 102.28474426269531 107.63142395019531 104.25411987304688 108.29953002929688 105.92617797851562 C 109.27424621582031 108.37445068359375 110.63880920410156 110.6488037109375 112.34028625488281 112.66104125976562 C 112.92950439453125 113.35516357421875 113.59268188476562 114.04208374023438 114.45135498046875 114.34391784667969 C 115.26409912109375 114.583740234375 116.12908935546875 114.58187866210938 116.9407958984375 114.33857727050781 C 119.4317626953125 113.69636535644531 121.51560974121094 111.99374389648438 122.64149475097656 109.68080139160156 L 121.12612915039062 109.00094604492188" stroke-width="0.6000000238418579" fill="rgb(70, 150, 179)" opacity="1.0"/>
    <path d="M 422.36865234375 69.23379516601562 C 423.62445068359375 72.23760986328125 425.14251708984375 75.51437377929688 428.1304931640625 76.80206298828125 C 431.34112548828125 78.18341064453125 435.180908203125 76.6568603515625 437.63232421875 74.16560363769531 C 438.577880859375 73.20547485351562 439.40533447265625 72.0567626953125 439.64483642578125 70.73078918457031 C 439.8421630859375 69.64085388183594 439.62939453125 68.52162170410156 439.3577880859375 67.44802856445312 C 438.5054931640625 64.06146240234375 436.899169921875 60.60687255859375 433.88653564453125 58.84211730957031 C 430.84906005859375 57.06561279296875 426.67132568359375 57.49151611328125 424.06622314453125 59.86163330078125 C 421.46112060546875 62.23175048828125 420.605224609375 66.33758544921875 422.07342529296875 69.54147338867188 L 422.36865234375 69.23379516601562" stroke-width="0.6000000238418579" fill="rgb(140, 28, 33)" opacity="1.0"/>
    <path d="M 113.29373168945312 419.9359130859375 C 115.03245544433594 417.3372802734375 116.81304931640625 414.614013671875 117.30551147460938 411.52398681640625 C 117.79794311523438 408.4340515136719 116.61024475097656 404.83392333984375 113.77725219726562 403.5068359375 C 110.27658081054688 401.8764953613281 105.89495849609375 404.6318359375 104.73387145996094 408.32220458984375 C 103.57278442382812 412.0125732421875 104.86935424804688 416.0628662109375 106.87956237792969 419.3626708984375 C 107.39950561523438 420.446533203125 108.30679321289062 421.2960205078125 109.42245483398438 421.7435302734375 C 110.56048583984375 422.065185546875 112.05599975585938 421.21173095703125 111.89973449707031 420.0335693359375 L 113.29373168945312 419.9359130859375" stroke-width="0.6000000238418579" fill="rgb(159, 159, 159)" opacity="1.0"/>
    <path d="M 459.573486328125 439.359130859375 C 460.44525146484375 436.8037109375 460.46051025390625 433.89398193359375 459.2584228515625 431.4779052734375 C 458.056396484375 429.0618896484375 455.5421142578125 427.24969482421875 452.8321533203125 427.2298583984375 C 450.916259765625 427.21826171875 449.0584716796875 428.0816650390625 447.63092041015625 429.36212158203125 C 446.20343017578125 430.642578125 445.1719970703125 432.31243896484375 444.39068603515625 434.0640869140625 C 444.0511474609375 434.8265380859375 443.75018310546875 435.65093994140625 443.87127685546875 436.474609375 C 444.00970458984375 437.4189453125 444.6756591796875 438.188232421875 445.347900390625 438.869873046875 C 447.245849609375 440.7943115234375 449.510986328125 442.5010986328125 452.1597900390625 443.0404052734375 C 454.80859375 443.5797119140625 457.8824462890625 442.68634033203125 459.2952880859375 440.3896484375 L 459.573486328125 439.359130859375" stroke-width="0.6000000238418579" fill="rgb(159, 159, 159)" opacity="1.0"/>
    <path d="M 452.166015625 284.453857421875 C 454.064453125 281.85791015625 456.0621337890625 278.89013671875 455.60150146484375 275.7135925292969 C 455.15789794921875 272.623779296875 452.54595947265625 270.3644714355469 450.078125 268.45074462890625 C 449.074462890625 267.6747741699219 448.0120849609375 266.8790283203125 446.761474609375 266.67022705078125 C 444.646484375 266.3158264160156 442.642578125 267.7149963378906 441.1654052734375 269.2652893066406 C 439.7938232421875 270.70367431640625 438.63592529296875 272.33160400390625 437.72705078125 274.0991516113281 C 436.2503662109375 276.9686279296875 435.531494140625 280.65838623046875 437.40673828125 283.28338623046875 C 438.4171142578125 284.7020263671875 440.0562744140625 285.58428955078125 441.748291015625 286.0079345703125 C 443.44036865234375 286.43157958984375 445.20703125 286.4373779296875 446.9512939453125 286.4182434082031 C 448.6954345703125 286.3990783691406 450.40887451171875 286.3428955078125 451.9537353515625 285.6268615722656 L 452.166015625 284.453857421875" stroke-width="0.6000000238418579" fill="rgb(218, 166, 20)" opacity="1.0"/>
    <path d="M 422.59912109375 358.2883605957031 C 423.96539306640625 362.72088623046875 428.666259765625 365.20654296875 433.09881591796875 363.8402099609375 C 433.4783935546875 363.7232360839844 433.84912109375 363.5794372558594 434.2083740234375 363.40997314453125 C 435.57318115234375 362.7657775878906 436.79949951171875 361.68743896484375 437.29669189453125 360.26324462890625 C 437.71697998046875 359.05975341796875 437.58544921875 357.73675537109375 437.3231201171875 356.4901428222656 C 436.6163330078125 353.1542053222656 435.02923583984375 350.0683898925781 432.7266845703125 347.5531921386719 C 432.116943359375 346.8893737792969 431.43609619140625 346.25347900390625 430.593505859375 345.9278564453125 C 429.179443359375 345.38031005859375 427.54248046875 345.8162536621094 426.26953125 346.6423034667969 C 424.37872314453125 347.86737060546875 423.0870361328125 349.9034423828125 422.544921875 352.09075927734375 C 422.00286865234375 354.278076171875 422.166748046875 356.6024169921875 422.7811279296875 358.77032470703125 L 422.59912109375 358.2883605957031" stroke-width="0.6000000238418579" fill="rgb(143, 165, 67)" opacity="1.0"/>
    <path d="M 448.9925537109375 348.6285400390625 C 453.49609375 344.4058837890625 450.7220458984375 335.4820556640625 444.74163818359375 334.11920166015625 C 438.76116943359375 332.7563781738281 432.5360107421875 339.1010437011719 433.57366943359375 345.1886291503906 C 434.611328125 351.2762145996094 441.9302978515625 355.237548828125 447.76422119140625 353.19525146484375 L 448.9925537109375 348.6285400390625" stroke-width="0.6000000238418579" fill="rgb(233, 92, 21)" opacity="1.0"/>
    <path d="M 454.911376953125 73.68826293945312 C 457.428466796875 72.13529968261719 460.274169921875 70.01919555664062 460.113037109375 67.05586242675781 C 460.0030517578125 65.87907409667969 459.5306396484375 64.76541137695312 458.7608642578125 63.86851501464844 C 456.91607666015625 61.598114013671875 454.085205078125 60.36273193359375 451.16607666015625 60.55413818359375 C 448.69024658203125 60.72282409667969 446.44146728515625 61.92857360839844 444.29541015625 63.1441650390625 C 443.091064453125 63.82896423339844 441.833251953125 64.59489440917969 441.2113037109375 65.82443237304688 C 440.39581298828125 67.4700927734375 440.95159912109375 69.45584106445312 441.70697021484375 71.12934875488281 C 442.8094482421875 73.57989501953125 444.30120849609375 75.83586120605469 446.12451171875 77.80972290039062 C 446.755859375 78.49050903320312 447.462158203125 79.16064453125 448.35040283203125 79.42974853515625 C 449.1890869140625 79.63772583007812 450.0701904296875 79.59716796875 450.88623046875 79.31301879882812 C 453.3951416015625 78.54739379882812 455.44189453125 76.7197265625 456.4854736328125 74.3131103515625 L 454.911376953125 73.68826293945312" stroke-width="0.6000000238418579" fill="rgb(70, 150, 179)" opacity="1.0"/>
    <path d="M 447.901611328125 394.67999267578125 C 448.17205810546875 391.1029052734375 448.3216552734375 387.1266174316406 446.0328369140625 384.3673095703125 C 443.57244873046875 381.4046630859375 439.03924560546875 380.981689453125 435.38616943359375 382.2004699707031 C 433.9775390625 382.6697692871094 432.59039306640625 383.3833312988281 431.6917724609375 384.5650939941406 C 430.95263671875 385.5362854003906 430.6014404296875 386.741455078125 430.33074951171875 387.9312438964844 C 429.47265625 391.6821594238281 429.32080078125 395.8771667480469 431.39495849609375 399.1170959472656 C 433.4876708984375 402.3810119628906 437.80181884765625 404.05352783203125 441.545166015625 403.03057861328125 C 445.28851318359375 402.00762939453125 448.183349609375 398.4054870605469 448.34539794921875 394.52569580078125 L 447.901611328125 394.67999267578125" stroke-width="0.6000000238418579" fill="rgb(140, 28, 33)" opacity="1.0"/>
    <path d="M 128.09921264648438 220.14801025390625 C 124.45758056640625 222.40673828125 120.69314575195312 224.7972412109375 118.32870483398438 228.3748779296875 C 115.96432495117188 231.95245361328125 115.40792846679688 237.11822509765625 118.19216918945312 240.3787841796875 C 121.63800048828125 244.39593505859375 128.66688537597656 243.4383544921875 132.20579528808594 239.49002075195312 C 135.7447052001953 235.54171752929688 136.42013549804688 229.75247192382812 135.77987670898438 224.4957275390625 C 135.74472045898438 222.8486328125 135.09341430664062 221.27459716796875 133.9544677734375 220.08425903320312 C 132.71624755859375 219.03839111328125 130.366455078125 219.25665283203125 129.89431762695312 220.8155517578125 L 128.09921264648438 220.14801025390625" stroke-width="0.6000000238418579" fill="rgb(159, 159, 159)" opacity="1.0"/>
    <path d="M 111.84597778320312 229.600830078125 C 108.0474853515625 227.03384399414062 103.28677368164062 225.71234130859375 98.79249572753906 226.6053466796875 C 94.2982177734375 227.49835205078125 90.20870971679688 230.81045532226562 88.96867370605469 235.24169921875 C 88.09593200683594 238.37579345703125 88.68283081054688 241.804443359375 90.14480590820312 244.71392822265625 C 91.60678100585938 247.62344360351562 93.88311767578125 250.0574951171875 96.40505981445312 252.11810302734375 C 97.50308227539062 253.01419067382812 98.71968078613281 253.87466430664062 100.12319946289062 254.043212890625 C 101.73219299316406 254.23721313476562 103.28938293457031 253.48880004882812 104.70576477050781 252.6910400390625 C 108.70449829101562 250.4388427734375 112.5103759765625 247.488037109375 114.57424926757812 243.3883056640625 C 116.63813781738281 239.28854370117188 116.54405212402344 233.85418701171875 113.41059875488281 230.51580810546875 L 111.84597778320312 229.600830078125" stroke-width="0.6000000238418579" fill="rgb(159, 159, 159)" opacity="1.0"/>
    <path d="M 304.11212158203125 98.35704040527344 C 303.5541687011719 102.73855590820312 303.1238098144531 107.63296508789062 305.78729248046875 111.14559936523438 C 308.3727111816406 114.5653076171875 313.0131530761719 115.5465087890625 317.2508239746094 116.20797729492188 C 318.97271728515625 116.47415161132812 320.7783203125 116.72517395019531 322.4203796386719 116.14555358886719 C 325.1982421875 115.1668701171875 326.67791748046875 112.15394592285156 327.4239501953125 109.30923461914062 C 328.1174011230469 106.66914367675781 328.42816162109375 103.94314575195312 328.34674072265625 101.21470642089844 C 328.21612548828125 96.784423828125 326.629638671875 91.87147521972656 322.63189697265625 89.96142578125 C 320.47515869140625 88.92709350585938 317.9187316894531 88.95515441894531 315.603271484375 89.5697021484375 C 313.2878112792969 90.18423461914062 311.16021728515625 91.35066223144531 309.0762023925781 92.53213500976562 C 306.9921875 93.71359252929688 304.9697570800781 94.91914367675781 303.5882263183594 96.80595397949219 L 304.11212158203125 98.35704040527344" stroke-width="0.6000000238418579" fill="rgb(218, 166, 20)" opacity="1.0"/>
    <path d="M 220.5341796875 121.38592529296875 C 216.2005615234375 115.467529296875 207.8896484375 114.18283081054688 201.97128295898438 118.5164794921875 C 201.4644775390625 118.88755798339844 200.98468017578125 119.29412841796875 200.535400390625 119.73312377929688 C 198.82861328125 121.40153503417969 197.55328369140625 123.64718627929688 197.5465087890625 126.03277587890625 C 197.54052734375 128.0487823486328 198.4210205078125 129.9581298828125 199.45758056640625 131.6856689453125 C 202.23858642578125 136.30606079101562 206.20599365234375 140.09754943847656 210.94769287109375 142.66629028320312 C 212.20220947265625 143.34317016601562 213.54849243164062 143.9416046142578 214.97610473632812 143.9927215576172 C 217.37274169921875 144.07992553710938 219.59381103515625 142.5821533203125 221.0693359375 140.68942260742188 C 223.26190185546875 137.88092041015625 224.13983154296875 134.17007446289062 223.8192138671875 130.62071228027344 C 223.49859619140625 127.07136535644531 222.052001953125 123.68215942382812 220.01296997070312 120.75970458984375 L 220.5341796875 121.38592529296875" stroke-width="0.6000000238418579" fill="rgb(143, 165, 67)" opacity="1.0"/>
    <path d="M 226.05291748046875 92.22018432617188 C 224.65805053710938 100.40617370605469 234.88397216796875 107.71615600585938 242.40139770507812 104.3162841796875 C 249.9188232421875 100.9163818359375 251.434326171875 89.0567626953125 245.37457275390625 83.37547302246094 C 239.31478881835938 77.69418334960938 228.25079345703125 79.39688110351562 223.65789794921875 86.32731628417969 L 226.05291748046875 92.22018432617188" stroke-width="0.6000000238418579" fill="rgb(233, 92, 21)" opacity="1.0"/>
    <path d="M 197.05438232421875 98.71224975585938 C 195.5301513671875 94.69985961914062 193.29330444335938 90.06503295898438 189.0260009765625 89.4833984375 C 187.31875610351562 89.31802368164062 185.602294921875 89.68649291992188 184.11334228515625 90.53799438476562 C 180.3726806640625 92.54568481445312 177.837158203125 96.241943359375 177.31082153320312 100.45462036132812 C 176.87353515625 104.02926635742188 177.97634887695312 107.56419372558594 179.121337890625 110.95538330078125 C 179.767578125 112.85931396484375 180.51486206054688 114.861572265625 182.096923828125 116.08445739746094 C 184.21905517578125 117.69717407226562 187.20120239257812 117.44865417480469 189.79296875 116.83021545410156 C 193.58721923828125 115.92987060546875 197.210693359375 114.42132568359375 200.52288818359375 112.36309814453125 C 201.66595458984375 111.64974975585938 202.8143310546875 110.82658386230469 203.44097900390625 109.63433837890625 C 203.96694946289062 108.49600219726562 204.15032958984375 107.22917175292969 203.96875 105.98838806152344 C 203.56442260742188 102.20318603515625 201.51995849609375 98.78591918945312 198.37579345703125 96.63987731933594 L 197.05438232421875 98.71224975585938" stroke-width="0.6000000238418579" fill="rgb(70, 150, 179)" opacity="1.0"/>
    <path d="M 268.2972106933594 132.7353515625 C 266.1444091796875 136.81187438964844 263.9293518066406 141.4207763671875 265.2115783691406 145.84585571289062 C 266.591796875 150.59854125976562 271.716796875 153.42135620117188 276.64642333984375 153.85826110839844 C 278.5470275878906 154.02752685546875 280.5474548339844 153.89788818359375 282.2123718261719 152.9661102294922 C 283.581298828125 152.2006378173828 284.61309814453125 150.9605712890625 285.5420837402344 149.6973419189453 C 288.4764709472656 145.71726989746094 290.8064270019531 140.85182189941406 290.02349853515625 135.97039794921875 C 289.23101806640625 131.05123901367188 285.0048828125 126.8682861328125 280.06927490234375 126.15434265136719 C 275.1336364746094 125.44039916992188 269.87542724609375 128.2008056640625 267.6951599121094 132.68960571289062 L 268.2972106933594 132.7353515625" stroke-width="0.6000000238418579" fill="rgb(140, 28, 33)" opacity="1.0"/>
    <path d="M 309.1338195800781 121.38037109375 C 305.0127258300781 120.91641235351562 300.7193603515625 120.47908020019531 296.7792663574219 121.78266906738281 C 292.8392639160156 123.08624267578125 289.3224792480469 126.67999267578125 289.4862060546875 130.82614135742188 C 289.69976806640625 135.94366455078125 295.6165771484375 139.42535400390625 300.6714782714844 138.5433807373047 C 305.7264099121094 137.6614227294922 309.7070617675781 133.66502380371094 312.36865234375 129.2854766845703 C 313.3283996582031 128.01231384277344 313.7760009765625 126.42568969726562 313.6230773925781 124.83866882324219 C 313.30816650390625 123.30204772949219 311.3912048339844 122.06063842773438 310.0986328125 122.96292114257812 L 309.1338195800781 121.38037109375" stroke-width="0.6000000238418579" fill="rgb(159, 159, 159)" opacity="1.0"/>
    <path d="M 197.23599243164062 132.39871215820312 C 194.28509521484375 128.7720947265625 190.02737426757812 126.07749938964844 185.37646484375 125.62338256835938 C 180.72552490234375 125.16926574707031 175.75607299804688 127.1961669921875 173.23818969726562 131.1562957763672 C 171.46157836914062 133.95840454101562 171.02301025390625 137.47874450683594 171.59188842773438 140.75039672851562 C 172.1607666015625 144.02206420898438 173.6649169921875 147.06985473632812 175.51898193359375 149.8255157470703 C 176.3265380859375 151.02423095703125 177.26040649414062 152.22315979003906 178.580810546875 152.80178833007812 C 180.0943603515625 153.46585083007812 181.8353271484375 153.19461059570312 183.45343017578125 152.83370971679688 C 188.02154541015625 151.81472778320312 192.6075439453125 150.0568389892578 195.83187866210938 146.6634063720703 C 199.05621337890625 143.26995849609375 200.56759643554688 137.93701171875 198.49349975585938 133.7535400390625 L 197.23599243164062 132.39871215820312" stroke-width="0.6000000238418579" fill="rgb(159, 159, 159)" opacity="1.0"/>
    <path d="M 283.63641357421875 101.4403076171875 C 280.1947021484375 103.91836547851562 276.4764099121094 106.82192993164062 275.7546691894531 110.99266052246094 C 275.0470886230469 115.0477294921875 277.3975524902344 118.94847106933594 279.7087097167969 122.35700988769531 C 280.64959716796875 123.74029541015625 281.656005859375 125.17242431640625 283.13848876953125 125.94570922851562 C 285.64501953125 127.25503540039062 288.7295837402344 126.32052612304688 291.21551513671875 124.98110961914062 C 293.5233154296875 123.73878479003906 295.64080810546875 122.1715087890625 297.50311279296875 120.3272705078125 C 300.5281066894531 117.33383178710938 302.93841552734375 113.00210571289062 301.6610412597656 108.9442138671875 C 300.974609375 106.75248718261719 299.280517578125 104.97598266601562 297.3324890136719 103.7528076171875 C 295.38446044921875 102.52963256835938 293.1719665527344 101.7998046875 290.97747802734375 101.11044311523438 C 288.7829895019531 100.42108154296875 286.6119079589844 99.79072570800781 284.3822937011719 100.05654907226562 L 283.63641357421875 101.4403076171875" stroke-width="0.6000000238418579" fill="rgb(218, 166, 20)" opacity="1.0"/>
    <path d="M 238.4609375 115.13229370117188 C 238.84149169921875 122.08975219726562 244.79010009765625 127.42141723632812 251.74755859375 127.04087829589844 C 252.34332275390625 127.00830078125 252.93603515625 126.93348693847656 253.521240234375 126.8170166015625 C 255.74472045898438 126.37408447265625 257.92413330078125 125.24800109863281 259.1664733886719 123.35281372070312 C 260.21649169921875 121.7513427734375 260.50567626953125 119.775146484375 260.5763854980469 117.86270141601562 C 260.75860595703125 112.74336242675781 259.5667724609375 107.66859436035156 257.12469482421875 103.16555786132812 C 256.4771728515625 101.97636413574219 255.7159423828125 100.80203247070312 254.606201171875 100.02114868164062 C 252.743896484375 98.70909118652344 250.19952392578125 98.74957275390625 248.04376220703125 99.490966796875 C 244.84249877929688 100.58943176269531 242.21969604492188 103.08773803710938 240.63455200195312 106.07894897460938 C 239.0494384765625 109.07015991210938 238.4434814453125 112.5177001953125 238.55108642578125 115.90095520019531 L 238.4609375 115.13229370117188" stroke-width="0.6000000238418579" fill="rgb(143, 165, 67)" opacity="1.0"/>
    <path d="M 250.13897705078125 91.1209716796875 C 248.50704956054688 99.35223388671875 258.6379089355469 107.01492309570312 266.3243713378906 103.78515625 C 274.01080322265625 100.55535888671875 275.86456298828125 88.61639404296875 269.8978576660156 82.71237182617188 C 263.93115234375 76.80831909179688 252.70831298828125 78.22711181640625 247.8800048828125 85.10296630859375 L 250.13897705078125 91.1209716796875" stroke-width="0.6000000238418579" fill="rgb(233, 92, 21)" opacity="1.0"/>
    <path d="M 338.5858154296875 82.53179931640625 C 335.21881103515625 80.22494506835938 330.95758056640625 77.81854248046875 327.3092956542969 79.67918395996094 C 325.88623046875 80.47613525390625 324.74554443359375 81.69503784179688 324.0445861816406 83.16775512695312 C 322.21221923828125 86.76495361328125 322.237060546875 91.02717590332031 324.1112365722656 94.602783203125 C 325.70880126953125 97.63182067871094 328.4877014160156 99.79437255859375 331.2215270996094 101.82177734375 C 332.75909423828125 102.95816040039062 334.4288635253906 104.11656188964844 336.32781982421875 104.21343994140625 C 338.86004638671875 104.32180786132812 341.0543212890625 102.50997924804688 342.7430114746094 100.62103271484375 C 345.2179260253906 97.859619140625 347.2295227050781 94.7158203125 348.6998291015625 91.31159973144531 C 349.2055969238281 90.13441467285156 349.65594482421875 88.86856079101562 349.4986267089844 87.59747314453125 C 349.2919006347656 86.423095703125 348.7478942871094 85.334228515625 347.9330139160156 84.46366882324219 C 345.5638732910156 81.72676086425781 342.1134033203125 80.16690063476562 338.4936218261719 80.19645690917969 L 338.5858154296875 82.53179931640625" stroke-width="0.6000000238418579" fill="rgb(70, 150, 179)" opacity="1.0"/>
    <path d="M 334.3577575683594 134.386962890625 C 333.3961486816406 129.7415771484375 332.13525390625 124.63290405273438 328.21917724609375 121.96084594726562 C 324.0107116699219 119.09298706054688 318.0943908691406 120.20960998535156 313.8958435058594 123.09181213378906 C 312.2765808105469 124.202392578125 310.7738952636719 125.61555480957031 310.0628662109375 127.44558715820312 C 309.4778137207031 128.9497528076172 309.47119140625 130.60975646972656 309.56134033203125 132.22079467773438 C 309.8394775390625 137.3015594482422 311.17724609375 142.68911743164062 314.9959716796875 146.0503692626953 C 318.84698486328125 149.43533325195312 324.9408874511719 149.98692321777344 329.32562255859375 147.3206787109375 C 333.7103576660156 144.65443420410156 336.07537841796875 139.01950073242188 334.86553955078125 134.02891540527344 L 334.3577575683594 134.386962890625" stroke-width="0.6000000238418579" fill="rgb(140, 28, 33)" opacity="1.0"/>
    <path d="M 346.4543151855469 107.36747741699219 C 342.1806335449219 106.37326049804688 337.7226867675781 105.38583374023438 333.42193603515625 106.27133178710938 C 329.1212463378906 107.15679931640625 324.9837646484375 110.50096130371094 324.6461181640625 114.87811279296875 C 324.2413635253906 120.28216552734375 330.0310363769531 124.66839599609375 335.45147705078125 124.363037109375 C 340.8719482421875 124.05767822265625 345.5464172363281 120.34742736816406 348.8818054199219 116.07235717773438 C 350.046875 114.8524169921875 350.7123107910156 113.24012756347656 350.7467346191406 111.5535888671875 C 350.604736328125 109.90011596679688 348.74285888671875 108.35986328125 347.2736511230469 109.14913940429688 L 346.4543151855469 107.36747741699219" stroke-width="0.6000000238418579" fill="rgb(159, 159, 159)" opacity="1.0"/>
    <path d="M 347.40850830078125 126.5040283203125 C 343.3772888183594 127.32041931152344 339.5379638671875 129.53578186035156 337.283203125 132.9731903076172 C 335.0284729003906 136.41061401367188 334.57623291015625 141.1102294921875 336.63201904296875 144.6902618408203 C 338.0886535644531 147.21954345703125 340.6517028808594 149.00006103515625 343.4328308105469 149.89414978027344 C 346.21392822265625 150.78823852539062 349.20294189453125 150.86224365234375 352.1073913574219 150.54425048828125 C 353.3712463378906 150.40512084960938 354.6869201660156 150.16770935058594 355.6773376464844 149.3756103515625 C 356.8132629394531 148.468017578125 357.3135986328125 147.00094604492188 357.69378662109375 145.59295654296875 C 358.7671813964844 141.61793518066406 359.272216796875 137.32699584960938 357.9466552734375 133.42825317382812 C 356.62109375 129.52951049804688 353.08453369140625 126.17240905761719 348.9779052734375 126.07818603515625 L 347.40850830078125 126.5040283203125" stroke-width="0.6000000238418579" fill="rgb(159, 159, 159)" opacity="1.0"/>
    <path d="M 359.96246337890625 108.20292663574219 C 355.9798889160156 108.24613952636719 351.5549621582031 108.46670532226562 348.74664306640625 111.2799072265625 C 346.01171875 114.01191711425781 345.7088623046875 118.278076171875 345.6418151855469 122.14495849609375 C 345.6169128417969 123.71588134765625 345.6158752441406 125.35968017578125 346.3365478515625 126.7547607421875 C 347.5540771484375 129.11497497558594 350.42816162109375 130.06423950195312 353.061279296875 130.3789825439453 C 355.5051574707031 130.67205810546875 357.9784240722656 130.61270141601562 360.4054260253906 130.2027130126953 C 364.3464660644531 129.5384521484375 368.5386657714844 127.51414489746094 369.7506103515625 123.70721435546875 C 370.40789794921875 121.6529541015625 370.0668640136719 119.37300109863281 369.23175048828125 117.38078308105469 C 368.3966064453125 115.38856506347656 367.091796875 113.63232421875 365.7789001464844 111.91691589355469 C 364.4660339355469 110.20150756835938 363.13922119140625 108.54405212402344 361.28314208984375 107.54327392578125 L 359.96246337890625 108.20292663574219" stroke-width="0.6000000238418579" fill="rgb(218, 166, 20)" opacity="1.0"/>
    <path d="M 431.9405517578125 146.94207763671875 C 425.257568359375 149.0821075439453 421.57476806640625 156.23455810546875 423.71478271484375 162.91754150390625 C 423.8980712890625 163.48980712890625 424.12164306640625 164.04833984375 424.3839111328125 164.5889892578125 C 425.3809814453125 166.64306640625 427.032470703125 168.48043823242188 429.1951904296875 169.2091064453125 C 431.02276611328125 169.8250732421875 433.02203369140625 169.6043701171875 434.903564453125 169.18695068359375 C 439.9384765625 168.062744140625 444.58056640625 165.61087036132812 448.34759521484375 162.08609008789062 C 449.341796875 161.1527099609375 450.29254150390625 160.1123046875 450.771240234375 158.83233642578125 C 451.5762939453125 156.6839599609375 450.8897705078125 154.21487426757812 449.619140625 152.30271911621094 C 447.7347412109375 149.46253967285156 444.63323974609375 147.54202270507812 441.31536865234375 146.7580108642578 C 437.99749755859375 145.97398376464844 434.48388671875 146.2602081298828 431.2144775390625 147.22540283203125 L 431.9405517578125 146.94207763671875" stroke-width="0.6000000238418579" fill="rgb(143, 165, 67)" opacity="1.0"/>
    <path d="M 144.47238159179688 414.67041015625 C 143.45172119140625 422.95263671875 154.05601501464844 429.816650390625 161.44476318359375 426.0550537109375 C 168.83352661132812 422.29345703125 169.80490112304688 410.3178405761719 163.45831298828125 404.8956604003906 C 157.11175537109375 399.47344970703125 146.08407592773438 401.6957702636719 141.7948455810547 408.86590576171875 L 144.47238159179688 414.67041015625" stroke-width="0.6000000238418579" fill="rgb(233, 92, 21)" opacity="1.0"/>
    <path d="M 434.6697998046875 189.76971435546875 C 430.658935546875 188.80670166015625 425.7679443359375 188.07229614257812 422.9951171875 191.14505004882812 C 421.939208984375 192.41082763671875 421.30206298828125 193.97305297851562 421.171630859375 195.61624145507812 C 420.7396240234375 199.67327880859375 422.30078125 203.68801879882812 425.360107421875 206.38739013671875 C 427.9610595703125 208.67059326171875 431.36468505859375 209.70953369140625 434.677001953125 210.63720703125 C 436.5384521484375 211.15530395507812 438.53271484375 211.646484375 440.36041259765625 211.05279541015625 C 442.7900390625 210.24154663085938 444.2078857421875 207.73947143554688 445.12060546875 205.34695434570312 C 446.460693359375 201.84716796875 447.2255859375 198.153564453125 447.385498046875 194.40936279296875 C 447.438232421875 193.11553955078125 447.40667724609375 191.758056640625 446.799560546875 190.6148681640625 C 446.18072509765625 189.58078002929688 445.2742919921875 188.74908447265625 444.19091796875 188.22125244140625 C 440.96697998046875 186.4921875 437.14678955078125 186.26449584960938 433.740234375 187.59832763671875 L 434.6697998046875 189.76971435546875" stroke-width="0.6000000238418579" fill="rgb(70, 150, 179)" opacity="1.0"/>
    <path d="M 406.5228271484375 160.67678833007812 C 405.44818115234375 156.3515625 404.07537841796875 151.60247802734375 400.3002624511719 149.2390594482422 C 396.2434387207031 146.70266723632812 390.7308349609375 147.9698944091797 386.89617919921875 150.8309783935547 C 385.4172058105469 151.93345642089844 384.0588684082031 153.31568908691406 383.4591369628906 155.05995178222656 C 382.9656066894531 156.49365234375 383.0208435058594 158.05218505859375 383.16510009765625 159.56121826171875 C 383.6142883300781 164.32049560546875 385.0695495605469 169.3284912109375 388.7787780761719 172.34249877929688 C 392.51922607421875 175.3775634765625 398.26025390625 175.6697998046875 402.2777099609375 173.00454711914062 C 406.295166015625 170.33929443359375 408.3067321777344 164.96197509765625 406.9862365722656 160.3218994140625 L 406.5228271484375 160.67678833007812" stroke-width="0.6000000238418579" fill="rgb(140, 28, 33)" opacity="1.0"/>
    <path d="M 141.36270141601562 127.79217529296875 C 137.12939453125 129.171142578125 132.73959350585938 130.6527099609375 129.46905517578125 133.67837524414062 C 126.19857788085938 136.70401000976562 124.35990905761719 141.7793426513672 126.36338806152344 145.75804138183594 C 128.84742736816406 150.66378784179688 136.17718505859375 151.43527221679688 140.7245635986328 148.325927734375 C 145.27194213867188 145.21658325195312 147.38487243652344 139.54153442382812 148.03846740722656 134.0785675048828 C 148.41021728515625 132.40773010253906 148.14215087890625 130.6583251953125 147.287109375 129.17552185058594 C 146.2961883544922 127.81399536132812 143.87100219726562 127.4532470703125 143.00914001464844 128.9096221923828 L 141.36270141601562 127.79217529296875" stroke-width="0.6000000238418579" fill="rgb(159, 159, 159)" opacity="1.0"/>
    <path d="M 423.8909912109375 174.94015502929688 C 420.392578125 172.6697998046875 416.0401611328125 171.548583984375 411.9676513671875 172.43695068359375 C 407.8951416015625 173.32537841796875 404.23175048828125 176.40716552734375 403.17901611328125 180.45855712890625 C 402.4383850097656 183.3238525390625 403.0303039550781 186.432373046875 404.4093322753906 189.05386352539062 C 405.7883605957031 191.67535400390625 407.9000549316406 193.85061645507812 410.228759765625 195.68206787109375 C 411.24261474609375 196.47845458984375 412.36376953125 197.24041748046875 413.64312744140625 197.36993408203125 C 415.10986328125 197.51910400390625 416.513427734375 196.81201171875 417.7882080078125 196.06243896484375 C 421.386962890625 193.94619750976562 424.7984619140625 191.19781494140625 426.606201171875 187.43399047851562 C 428.413818359375 183.670166015625 428.236083984375 178.72906494140625 425.32958984375 175.745849609375 L 423.8909912109375 174.94015502929688" stroke-width="0.6000000238418579" fill="rgb(159, 159, 159)" opacity="1.0"/>
    <path d="M 404.7754821777344 186.05810546875 C 404.5699768066406 182.01516723632812 404.1663818359375 177.53018188476562 401.1953430175781 174.792236328125 C 398.3097229003906 172.12554931640625 393.9647521972656 171.9910888671875 390.03485107421875 172.0799560546875 C 388.43841552734375 172.118408203125 386.7689514160156 172.18408203125 385.3813781738281 172.97259521484375 C 383.03375244140625 174.30487060546875 382.1863098144531 177.26229858398438 381.9735107421875 179.94927978515625 C 381.7750549316406 182.44314575195312 381.93572998046875 184.95257568359375 382.4505920410156 187.40081787109375 C 383.28515625 191.3763427734375 385.51116943359375 195.5517578125 389.4266357421875 196.62808227539062 C 391.53961181640625 197.2122802734375 393.8412780761719 196.77337646484375 395.8306884765625 195.84439086914062 C 397.820068359375 194.9154052734375 399.5507507324219 193.5189208984375 401.2396240234375 192.115966796875 C 402.92852783203125 190.71298217773438 404.5579528808594 189.2982177734375 405.4990234375 187.37261962890625 L 404.7754821777344 186.05810546875" stroke-width="0.6000000238418579" fill="rgb(218, 166, 20)" opacity="1.0"/>
    <path d="M 446.089111328125 178.1337890625 C 445.99383544921875 184.72332763671875 451.25848388671875 190.14239501953125 457.8480224609375 190.2376708984375 C 458.4122314453125 190.245849609375 458.9764404296875 190.21395874023438 459.5361328125 190.14227294921875 C 461.6630859375 189.8695068359375 463.79296875 188.9493408203125 465.0888671875 187.24224853515625 C 466.1842041015625 185.79977416992188 466.58612060546875 183.95404052734375 466.7777099609375 182.1541748046875 C 467.283935546875 177.33575439453125 466.49072265625 172.46966552734375 464.4805908203125 168.0614013671875 C 463.947265625 166.89703369140625 463.3056640625 165.73931884765625 462.3095703125 164.9300537109375 C 460.63812255859375 163.57046508789062 458.2347412109375 163.4425048828125 456.15228271484375 164.00128173828125 C 453.06005859375 164.82867431640625 450.422119140625 167.01470947265625 448.731201171875 169.7335205078125 C 447.04022216796875 172.45233154296875 446.243408203125 175.66571044921875 446.1240234375 178.86495971679688 L 446.089111328125 178.1337890625" stroke-width="0.6000000238418579" fill="rgb(143, 165, 67)" opacity="1.0"/>
    <path d="M 148.71002197265625 101.81216430664062 C 140.0487823486328 108.37371826171875 143.2599334716797 124.50550842285156 153.4771728515625 127.99319458007812 C 163.69442749023438 131.48081970214844 175.7603759765625 121.52207946777344 175.06588745117188 110.67494201660156 C 174.37139892578125 99.82780456542969 162.2900390625 91.54495239257812 151.7017059326172 94.0447998046875 L 148.71002197265625 101.81216430664062" stroke-width="0.6000000238418579" fill="rgb(233, 92, 21)" opacity="1.0"/>
    <path d="M 455.2620849609375 150.2201385498047 C 452.80438232421875 154.19419860839844 450.28082275390625 159.19619750976562 452.6041259765625 163.26861572265625 C 453.59173583984375 164.85330200195312 455.0467529296875 166.09246826171875 456.76849365234375 166.81512451171875 C 460.98040771484375 168.71786499023438 465.853271484375 168.4610595703125 469.841796875 166.12619018554688 C 473.22021484375 164.13690185546875 475.5443115234375 160.8431396484375 477.71630859375 157.608154296875 C 478.9334716796875 155.78892517089844 480.16876220703125 153.8173370361328 480.17779541015625 151.64051818847656 C 480.166015625 148.73890686035156 477.9764404296875 146.32669067382812 475.725830078125 144.49671936035156 C 472.435302734375 141.814453125 468.7322998046875 139.68246459960938 464.760498046875 138.18345642089844 C 463.38720703125 137.6681671142578 461.91546630859375 137.22097778320312 460.4703369140625 137.468994140625 C 459.138427734375 137.76834106445312 457.92236328125 138.4487762451172 456.970458984375 139.4273223876953 C 453.967529296875 142.2832794189453 452.36859130859375 146.3127899169922 452.5963134765625 150.45069885253906 L 455.2620849609375 150.2201385498047" stroke-width="0.6000000238418579" fill="rgb(70, 150, 179)" opacity="1.0"/>
    <path d="M 373.87969970703125 77.69625854492188 C 374.5729675292969 72.35450744628906 375.1170959472656 66.40447998046875 371.90728759765625 62.083038330078125 C 368.4564514160156 57.44288635253906 361.693359375 56.444000244140625 356.11785888671875 57.97755432128906 C 353.9679260253906 58.56793212890625 351.8306884765625 59.526275634765625 350.38818359375 61.225921630859375 C 349.2018127441406 62.62266540527344 348.5782470703125 64.40145874023438 348.07672119140625 66.16363525390625 C 346.4883728027344 71.71875 345.92315673828125 77.99656677246094 348.7725524902344 83.02140808105469 C 351.6478271484375 88.08369445800781 357.98193359375 90.93856811523438 363.6770324707031 89.70587158203125 C 369.37213134765625 88.47320556640625 374.0024719238281 83.30497741699219 374.5575256347656 77.50064086914062 L 373.87969970703125 77.69625854492188" stroke-width="0.6000000238418579" fill="rgb(140, 28, 33)" opacity="1.0"/>
    <path d="M 133.30580139160156 411.5917053222656 C 130.08041381835938 415.1561279296875 126.76351928710938 418.9007568359375 125.32408142089844 423.490966796875 C 123.88467407226562 428.0810546875 124.88697814941406 433.8226318359375 128.89976501464844 436.4742431640625 C 133.86044311523438 439.73626708984375 141.1409912109375 436.52398681640625 143.73162841796875 431.169921875 C 146.32225036621094 425.81585693359375 145.25494384765625 419.365234375 142.9344024658203 413.896728515625 C 142.3856658935547 412.1319580078125 141.1953582763672 410.6370849609375 139.59832763671875 409.7070617675781 C 137.93910217285156 408.96356201171875 135.47357177734375 409.9275817871094 135.44805908203125 411.7546081542969 L 133.30580139160156 411.5917053222656" stroke-width="0.6000000238418579" fill="rgb(159, 159, 159)" opacity="1.0"/>
    <path d="M 416.176513671875 209.18035888671875 C 413.3739013671875 204.52655029296875 408.915771484375 200.73162841796875 403.6395263671875 199.44989013671875 C 398.36328125 198.16818237304688 392.3155517578125 199.68862915039062 388.7724914550781 203.833251953125 C 386.2712097167969 206.7667236328125 385.19195556640625 210.744873046875 385.312255859375 214.6014404296875 C 385.43255615234375 218.4580078125 386.66534423828125 222.20974731445312 388.348388671875 225.68252563476562 C 389.0816955566406 227.193359375 389.96026611328125 228.72503662109375 391.3847961425781 229.60626220703125 C 393.0175476074219 230.6173095703125 395.06463623046875 230.58950805664062 396.9849853515625 230.4384765625 C 402.4064636230469 230.01202392578125 407.9691467285156 228.73849487304688 412.232421875 225.36111450195312 C 416.49566650390625 221.98370361328125 419.10498046875 216.09548950195312 417.4019775390625 210.94424438476562 L 416.176513671875 209.18035888671875" stroke-width="0.6000000238418579" fill="rgb(159, 159, 159)" opacity="1.0"/>
    <path d="M 379.6326599121094 120.32099914550781 C 374.7864685058594 120.76300048828125 369.4188232421875 121.46426391601562 366.2735900878906 125.16510009765625 C 363.20977783203125 128.75985717773438 363.2580261230469 133.98529052734375 363.554443359375 138.70138549804688 C 363.6777038574219 140.6170654296875 363.837158203125 142.61917114257812 364.8512878417969 144.247802734375 C 366.56488037109375 147.00331115722656 370.1580810546875 147.87844848632812 373.3957824707031 148.00433349609375 C 376.4008483886719 148.12232971191406 379.4073181152344 147.80819702148438 382.3231201171875 147.07159423828125 C 387.0580139160156 145.87725830078125 391.9658203125 143.00193786621094 393.0696716308594 138.24693298339844 C 393.6693420410156 135.6807403564453 393.03106689453125 132.9373016357422 391.8192138671875 130.59259033203125 C 390.6072998046875 128.2478790283203 388.8464050292969 126.23651123046875 387.0797119140625 124.275634765625 C 385.3130187988281 122.31477355957031 383.5350341796875 120.42585754394531 381.1766357421875 119.38845825195312 L 379.6326599121094 120.32099914550781" stroke-width="0.6000000238418579" fill="rgb(218, 166, 20)" opacity="1.0"/>
    <path d="M 403.58349609375 77.78802490234375 C 397.95263671875 70.69467163085938 387.6376037597656 69.50909423828125 380.54425048828125 75.13995361328125 C 379.9368591308594 75.62213134765625 379.36444091796875 76.14678955078125 378.8312683105469 76.70997619628906 C 376.8057556152344 78.85031127929688 375.34027099609375 81.68209838867188 375.446533203125 84.62556457519531 C 375.53607177734375 87.11302185058594 376.7140808105469 89.42630004882812 378.075927734375 91.50778198242188 C 381.7288818359375 97.07440185546875 386.8057556152344 101.56137084960938 392.7790832519531 104.50260925292969 C 394.35931396484375 105.27740478515625 396.04901123046875 105.95100402832031 397.812744140625 105.94546508789062 C 400.773681640625 105.93789672851562 403.4418640136719 103.98333740234375 405.1712951660156 101.57733154296875 C 407.7413330078125 98.00709533691406 408.6461486816406 93.38677978515625 408.08001708984375 89.02328491210938 C 407.513916015625 84.65980529785156 405.5663757324219 80.54800415039062 402.91033935546875 77.04049682617188 L 403.58349609375 77.78802490234375" stroke-width="0.6000000238418579" fill="rgb(143, 165, 67)" opacity="1.0"/>
    <path d="M 121.56085205078125 430.1707763671875 C 114.77310180664062 422.3028564453125 99.57220458984375 426.346435546875 96.8636474609375 436.30908203125 C 94.15512084960938 446.27178955078125 104.39164733886719 457.182861328125 114.70172119140625 455.8619384765625 C 125.01177978515625 454.5408935546875 132.18362426757812 442.5081787109375 129.15533447265625 432.55462646484375 L 121.56085205078125 430.1707763671875" stroke-width="0.6000000238418579" fill="rgb(233, 92, 21)" opacity="1.0"/>
    <path d="M 450.54620361328125 202.55242919921875 C 447.8035888671875 206.7183837890625 444.95947265625 211.9791259765625 447.315185546875 216.394775390625 C 448.321044921875 218.11553955078125 449.8360595703125 219.48175048828125 451.6512451171875 220.30499267578125 C 456.0877685546875 222.46267700195312 461.294921875 222.336181640625 465.6214599609375 219.965576171875 C 469.286376953125 217.94528198242188 471.865966796875 214.50115966796875 474.28143310546875 211.11514282226562 C 475.63525390625 209.21087646484375 477.012939453125 207.14456176757812 477.08843994140625 204.8221435546875 C 477.1636962890625 201.72576904296875 474.9005126953125 199.08563232421875 472.55438232421875 197.06494140625 C 469.12457275390625 194.10333251953125 465.238037109375 191.71640014648438 461.04547119140625 189.9967041015625 C 459.595703125 189.40533447265625 458.0389404296875 188.88363647460938 456.4893798828125 189.10452270507812 C 455.0592041015625 189.38360595703125 453.7410888671875 190.07281494140625 452.69573974609375 191.088134765625 C 449.4051513671875 194.0445556640625 447.5771484375 198.295654296875 447.69488525390625 202.71771240234375 L 450.54620361328125 202.55242919921875" stroke-width="0.6000000238418579" fill="rgb(70, 150, 179)" opacity="1.0"/>
    <path d="M 420.7833251953125 134.9913787841797 C 421.82293701171875 129.70266723632812 422.75323486328125 123.79690551757812 419.8292236328125 119.27314758300781 C 416.685302734375 114.41549682617188 409.9972839355469 112.978271484375 404.3303527832031 114.14695739746094 C 402.1452331542969 114.59661865234375 399.9488525390625 115.41455078125 398.39794921875 117.01783752441406 C 397.12249755859375 118.33535766601562 396.38421630859375 120.07095336914062 395.768798828125 121.79788208007812 C 393.82159423828125 127.24142456054688 392.84893798828125 133.47311401367188 395.3673095703125 138.67578125 C 397.9090576171875 143.91751098632812 404.0480651855469 147.18003845214844 409.8148498535156 146.31956481933594 C 415.58160400390625 145.4591064453125 420.5411376953125 140.59971618652344 421.47283935546875 134.84011840820312 L 420.7833251953125 134.9913787841797" stroke-width="0.6000000238418579" fill="rgb(140, 28, 33)" opacity="1.0"/>
    <path d="M 400.29815673828125 68.51025390625 C 401.6000061035156 73.1080322265625 403.00531005859375 77.87789916992188 406.11346435546875 81.51200866699219 C 409.2215576171875 85.14604187011719 414.5877685546875 87.33021545410156 418.9385986328125 85.34796142578125 C 424.30377197265625 82.88909912109375 425.437744140625 75.06044006347656 422.293212890625 70.053466796875 C 419.1488037109375 65.0465087890625 413.15081787109375 62.5430908203125 407.3193054199219 61.6136474609375 C 405.5429382324219 61.14506530761719 403.6555480957031 61.35939025878906 402.029541015625 62.214385986328125 C 400.52789306640625 63.22016906738281 400.03955078125 65.80601501464844 401.5654296875 66.791259765625 L 400.29815673828125 68.51025390625" stroke-width="0.6000000238418579" fill="rgb(159, 159, 159)" opacity="1.0"/>
    <path d="M 439.2923583984375 236.83306884765625 C 435.71240234375 240.96002197265625 433.4683837890625 246.40350341796875 433.88238525390625 251.8482666015625 C 434.29638671875 257.2930603027344 437.6302490234375 262.6048278808594 442.695556640625 264.7053527832031 C 446.2786865234375 266.1859436035156 450.4190673828125 265.98175048828125 454.0701904296875 264.66802978515625 C 457.721435546875 263.35430908203125 460.92657470703125 261.0091552734375 463.7249755859375 258.3200378417969 C 464.94207763671875 257.14910888671875 466.134033203125 255.832763671875 466.5340576171875 254.19635009765625 C 466.99359130859375 252.32049560546875 466.33074951171875 250.3712158203125 465.5894775390625 248.58148193359375 C 463.49658203125 243.52862548828125 460.549560546875 238.6041259765625 455.99420166015625 235.57626342773438 C 451.4388427734375 232.54840087890625 444.99609375 231.88287353515625 440.59857177734375 235.11279296875 L 439.2923583984375 236.83306884765625" stroke-width="0.6000000238418579" fill="rgb(159, 159, 159)" opacity="1.0"/>
    <path d="M 407.09002685546875 263.81915283203125 C 404.6507568359375 259.3085632324219 401.7440185546875 254.4005126953125 396.85418701171875 252.88983154296875 C 392.100830078125 251.41403198242188 387.0595397949219 253.62930297851562 382.61456298828125 255.87353515625 C 380.8101806640625 256.78790283203125 378.9371337890625 257.7732238769531 377.7804870605469 259.4313659667969 C 375.8226318359375 262.2346496582031 376.46612548828125 266.07818603515625 377.68780517578125 269.2664489746094 C 378.8205871582031 272.22613525390625 380.37249755859375 275.0078125 382.2960205078125 277.5263671875 C 385.41778564453125 281.6169128417969 390.239501953125 285.1773986816406 395.3032531738281 284.2732849121094 C 398.0377197265625 283.7891845703125 400.4301452636719 282.0324401855469 402.19830322265625 279.8855895996094 C 403.9664611816406 277.7387390136719 405.18389892578125 275.1984558105469 406.35003662109375 272.6734924316406 C 407.51617431640625 270.1485290527344 408.60791015625 267.64251708984375 408.634033203125 264.92767333984375 L 407.09002685546875 263.81915283203125" stroke-width="0.6000000238418579" fill="rgb(218, 166, 20)" opacity="1.0"/>
    <path d="M 413.20135498046875 91.15496826171875 C 407.5232238769531 98.127197265625 408.5722961425781 108.38235473632812 415.5445556640625 114.06048583984375 C 416.14154052734375 114.54670715332031 416.7723388671875 114.98994445800781 417.43212890625 115.38690185546875 C 419.9393310546875 116.89479064941406 422.9976806640625 117.71224975585938 425.82928466796875 116.9818115234375 C 428.2222900390625 116.36477661132812 430.21435546875 114.72933959960938 431.9425048828125 112.965087890625 C 436.561767578125 108.23625183105469 439.83056640625 102.3568115234375 441.409423828125 95.93754577636719 C 441.8238525390625 94.24005126953125 442.116943359375 92.45797729492188 441.735595703125 90.74888610839844 C 441.09710693359375 87.87930297851562 438.633056640625 85.70857238769531 435.9312744140625 84.54441833496094 C 431.92138671875 82.81326293945312 427.248291015625 82.92074584960938 423.1376953125 84.39982604980469 C 419.027099609375 85.87887573242188 415.45501708984375 88.64385986328125 412.6199951171875 91.96707153320312 L 413.20135498046875 91.15496826171875" stroke-width="0.6000000238418579" fill="rgb(143, 165, 67)" opacity="1.0"/>
    <path d="M 437.654052734375 125.3594970703125 C 435.660400390625 135.6903533935547 448.411376953125 145.23342895507812 458.0281982421875 141.1349334716797 C 467.64501953125 137.03640747070312 469.89324951171875 122.05538940429688 462.37451171875 114.69082641601562 C 454.855712890625 107.32626342773438 440.79345703125 109.1766357421875 434.783447265625 117.82843017578125 L 437.654052734375 125.3594970703125" stroke-width="0.6000000238418579" fill="rgb(233, 92, 21)" opacity="1.0"/>
    <path d="M 446.692138671875 96.05068969726562 C 444.78155517578125 100.89546203613281 443.0018310546875 106.88079833984375 446.35498046875 110.88876342773438 C 447.75140380859375 112.43183898925781 449.59228515625 113.50357055664062 451.6236572265625 113.9560546875 C 456.61962890625 115.21089172363281 461.9139404296875 113.96635437011719 465.82763671875 110.61711120605469 C 469.1402587890625 107.76751708984375 471.03875732421875 103.69534301757812 472.78204345703125 99.71768188476562 C 473.7576904296875 97.481689453125 474.7230224609375 95.07498168945312 474.30279541015625 92.68544006347656 C 473.716552734375 89.5050048828125 470.83819580078125 87.29167175292969 468.0078125 85.7291259765625 C 463.86846923828125 83.4371337890625 459.3853759765625 81.83026123046875 454.7325439453125 80.97080993652344 C 453.12432861328125 80.67694091796875 451.421630859375 80.47724914550781 449.88543701171875 81.03485107421875 C 448.483642578125 81.62640380859375 447.2841796875 82.61305236816406 446.43341064453125 83.87451171875 C 443.703857421875 87.60057067871094 442.7462158203125 92.33647155761719 443.81365966796875 96.830322265625 L 446.692138671875 96.05068969726562" stroke-width="0.6000000238418579" fill="rgb(70, 150, 179)" opacity="1.0"/>
    <path d="M 318.1900329589844 368.756591796875 C 312.6407470703125 368.1228942871094 306.46319580078125 367.6534729003906 302.0339050292969 371.0501403808594 C 297.2780456542969 374.7017822265625 296.3500671386719 381.72955322265625 298.02880859375 387.4857177734375 C 298.6751403808594 389.705322265625 299.7027587890625 391.9059143066406 301.4878845214844 393.37445068359375 C 302.95489501953125 394.58221435546875 304.8090515136719 395.20037841796875 306.64404296875 395.6922912597656 C 312.42877197265625 397.2506103515625 318.9465026855469 397.7366638183594 324.1108093261719 394.70245361328125 C 329.3135070800781 391.6408386230469 332.17254638671875 385.02825927734375 330.8038330078125 379.143310546875 C 329.4351501464844 373.25836181640625 324.0030822753906 368.5400085449219 317.9764099121094 368.05694580078125 L 318.1900329589844 368.756591796875" stroke-width="0.6000000238418579" fill="rgb(140, 28, 33)" opacity="1.0"/>
    <path d="M 303.8326110839844 397.5413818359375 C 298.72894287109375 397.9459533691406 293.4227294921875 398.4231872558594 288.9531555175781 400.92755126953125 C 284.483642578125 403.4319152832031 281.06439208984375 408.6126708984375 282.2356262207031 413.59942626953125 C 283.69512939453125 419.7518310546875 291.6831970214844 422.58349609375 297.6029052734375 420.32855224609375 C 303.5225830078125 418.0736083984375 307.4095764160156 412.2960205078125 309.6079406738281 406.363525390625 C 310.4724426269531 404.5952453613281 310.6427001953125 402.5672302246094 310.08502197265625 400.67962646484375 C 309.34283447265625 398.89111328125 306.7281799316406 397.83624267578125 305.373291015625 399.23309326171875 L 303.8326110839844 397.5413818359375" stroke-width="0.6000000238418579" fill="rgb(159, 159, 159)" opacity="1.0"/>
    <path d="M 322.2708740234375 415.316650390625 C 316.9635009765625 417.6116943359375 312.3268127441406 421.7750244140625 310.2249755859375 427.1585693359375 C 308.1231384277344 432.5421142578125 308.8675231933594 439.1376953125 312.7359924316406 443.464111328125 C 315.4749450683594 446.51953125 319.5179443359375 448.2232666015625 323.6031799316406 448.64447021484375 C 327.68841552734375 449.065673828125 331.8211364746094 448.29833984375 335.7236022949219 447.01654052734375 C 337.4215087890625 446.45770263671875 339.162109375 445.7486572265625 340.2940979003906 444.37115478515625 C 341.5926208496094 442.79254150390625 341.8542175292969 440.62921142578125 341.9678039550781 438.58203125 C 342.2884521484375 432.80255126953125 341.73553466796875 426.75372314453125 338.77874755859375 421.776611328125 C 335.82196044921875 416.799560546875 329.98150634765625 413.21026611328125 324.3056640625 414.274658203125 L 322.2708740234375 415.316650390625" stroke-width="0.6000000238418579" fill="rgb(159, 159, 159)" opacity="1.0"/>
    <path d="M 259.7791748046875 416.4293212890625 C 253.824462890625 416.7552490234375 247.21966552734375 417.37554931640625 243.20330810546875 421.76812744140625 C 239.29132080078125 426.034423828125 239.11822509765625 432.43603515625 239.27169799804688 438.2249755859375 C 239.33749389648438 440.5765380859375 239.44381713867188 443.0355224609375 240.61343383789062 445.0751953125 C 242.589599609375 448.52593994140625 246.95123291015625 449.75738525390625 250.9107666015625 450.055419921875 C 254.5858154296875 450.33349609375 258.28173828125 450.0823974609375 261.8854064941406 449.309814453125 C 267.7372131347656 448.05755615234375 273.8755187988281 444.7542724609375 275.43865966796875 438.97998046875 C 276.287109375 435.8638916015625 275.6273498535156 432.47564697265625 274.24737548828125 429.55029296875 C 272.86737060546875 426.6248779296875 270.80023193359375 424.0833740234375 268.7237243652344 421.6033935546875 C 266.647216796875 419.1234130859375 264.5537109375 416.73114013671875 261.7115173339844 415.3558349609375 L 259.7791748046875 416.4293212890625" stroke-width="0.6000000238418579" fill="rgb(218, 166, 20)" opacity="1.0"/>
    <path d="M 222.572998046875 411.5521545410156 C 213.71438598632812 406.82708740234375 202.70260620117188 410.1780090332031 197.9775390625 419.03662109375 C 197.57293701171875 419.79522705078125 197.22265625 420.58154296875 196.9293212890625 421.3896484375 C 195.8153076171875 424.46063232421875 195.57608032226562 427.9873046875 196.98431396484375 430.9332275390625 C 198.17413330078125 433.4228515625 200.39373779296875 435.2545166015625 202.6978759765625 436.7694091796875 C 208.87103271484375 440.8157958984375 216.01507568359375 443.135498046875 223.3878173828125 443.48748779296875 C 225.33682250976562 443.5772705078125 227.3524169921875 443.5157470703125 229.14324951171875 442.7310791015625 C 232.1505126953125 441.4154052734375 234.0001220703125 438.24951171875 234.69577026367188 435.0391845703125 C 235.73187255859375 430.2738037109375 234.61093139648438 425.17626953125 232.10784912109375 420.9896240234375 C 229.60479736328125 416.80303955078125 225.80831909179688 413.4825439453125 221.55838012695312 411.08941650390625 L 222.572998046875 411.5521545410156" stroke-width="0.6000000238418579" fill="rgb(143, 165, 67)" opacity="1.0"/>
    <path d="M 281.53118896484375 358.9019775390625 C 287.1621398925781 368.53497314453125 304.0022277832031 367.2334289550781 308.8074035644531 357.2427062988281 C 313.612548828125 347.251953125 304.93426513671875 333.7322692871094 293.7899475097656 333.1140441894531 C 282.6456298828125 332.4958190917969 272.7235107421875 343.8008728027344 273.9776306152344 354.90203857421875 L 281.53118896484375 358.9019775390625" stroke-width="0.6000000238418579" fill="rgb(233, 92, 21)" opacity="1.0"/>
    <path d="M 335.2300109863281 361.3172607421875 C 334.22088623046875 366.77813720703125 333.5818176269531 373.4059753417969 337.91033935546875 376.91510009765625 C 339.687255859375 378.24456787109375 341.8329162597656 378.9898681640625 344.0513916015625 379.0481872558594 C 349.5364990234375 379.34014892578125 354.8228759765625 376.9554138183594 358.234130859375 372.6501770019531 C 361.11846923828125 368.9907531738281 362.27294921875 364.3409118652344 363.2842712402344 359.8216857910156 C 363.8482360839844 357.28216552734375 364.3665771484375 354.5660400390625 363.43829345703125 352.1511535644531 C 362.1745910644531 348.9424743652344 358.7098083496094 347.2144775390625 355.4282531738281 346.15777587890625 C 350.62762451171875 344.605224609375 345.60736083984375 343.8399658203125 340.56219482421875 343.8916320800781 C 338.81903076171875 343.912841796875 336.9962158203125 344.0519104003906 335.50250244140625 344.94952392578125 C 334.15631103515625 345.85516357421875 333.10272216796875 347.1329345703125 332.47021484375 348.6270446777344 C 330.3752136230469 353.0845642089844 330.34112548828125 358.2367248535156 332.37689208984375 362.72161865234375 L 335.2300109863281 361.3172607421875" stroke-width="0.6000000238418579" fill="rgb(70, 150, 179)" opacity="1.0"/>
    <path d="M 295.5940856933594 421.32464599609375 C 289.7036437988281 420.635986328125 283.1456298828125 420.1199951171875 278.43292236328125 423.7139892578125 C 273.3727111816406 427.5777587890625 272.367431640625 435.0372314453125 274.1335144042969 441.1539306640625 C 274.8134765625 443.5125732421875 275.8983459472656 445.85205078125 277.78961181640625 447.41644287109375 C 279.3438720703125 448.7030029296875 281.31085205078125 449.3646240234375 283.2578125 449.8922119140625 C 289.3956604003906 451.56329345703125 296.3148193359375 452.097900390625 301.8069152832031 448.890869140625 C 307.33990478515625 445.6549072265625 310.3944396972656 438.64178466796875 308.9579162597656 432.38922119140625 C 307.5213623046875 426.13665771484375 301.76702880859375 421.1112060546875 295.3692626953125 420.5811767578125 L 295.5940856933594 421.32464599609375" stroke-width="0.6000000238418579" fill="rgb(140, 28, 33)" opacity="1.0"/>
    <path d="M 329.9100341796875 393.6961669921875 C 324.90020751953125 394.633056640625 319.69757080078125 395.66314697265625 315.5361328125 398.6120910644531 C 311.37481689453125 401.56097412109375 308.5344543457031 407.0489807128906 310.218017578125 411.8624572753906 C 312.3094177246094 417.799560546875 320.5147399902344 419.76318359375 326.13787841796875 416.9088134765625 C 331.76104736328125 414.054443359375 335.001708984375 407.92645263671875 336.5544738769531 401.82257080078125 C 337.22442626953125 399.9812316894531 337.1798095703125 397.9557189941406 336.42938232421875 396.1457214355469 C 335.5066833496094 394.45318603515625 332.8074645996094 393.6837463378906 331.6130065917969 395.20892333984375 L 329.9100341796875 393.6961669921875" stroke-width="0.6000000238418579" fill="rgb(159, 159, 159)" opacity="1.0"/>
    <path d="M 354.79791259765625 415.7757568359375 C 349.7037353515625 418.64532470703125 345.48175048828125 423.32275390625 343.93792724609375 428.95892333984375 C 342.39410400390625 434.5950927734375 343.84075927734375 441.1488037109375 348.18878173828125 445.0899658203125 C 351.2664489746094 447.87255859375 355.512451171875 449.157958984375 359.66510009765625 449.14910888671875 C 363.8177795410156 449.1402587890625 367.8924255371094 447.9312744140625 371.68109130859375 446.229248046875 C 373.3293762207031 445.487548828125 375.004638671875 444.59033203125 375.9971923828125 443.0853271484375 C 377.1358947753906 441.36041259765625 377.16998291015625 439.15728759765625 377.06756591796875 437.086669921875 C 376.77825927734375 431.2408447265625 375.5820617675781 425.2166748046875 372.0819396972656 420.524658203125 C 368.581787109375 415.8326416015625 362.32879638671875 412.8414306640625 356.73382568359375 414.5125732421875 L 354.79791259765625 415.7757568359375" stroke-width="0.6000000238418579" fill="rgb(159, 159, 159)" opacity="1.0"/>
    <path d="M 252.24603271484375 364.6047668457031 C 254.29989624023438 359.03729248046875 256.3416748046875 352.7597961425781 253.91580200195312 347.35675048828125 C 251.56402587890625 342.0989685058594 245.785400390625 339.41278076171875 240.4375 337.266845703125 C 238.26370239257812 336.3982849121094 235.97573852539062 335.5242919921875 233.65097045898438 335.787109375 C 229.71875 336.22930908203125 226.87158203125 339.7267150878906 225.03570556640625 343.2254943847656 C 223.3304443359375 346.4722900390625 222.1002197265625 349.9471130371094 221.3826904296875 353.54364013671875 C 220.21554565429688 359.3829345703125 220.80850219726562 366.29388427734375 225.4652099609375 370.0019226074219 C 227.97625732421875 372.0074462890625 231.33145141601562 372.7428894042969 234.54830932617188 372.63775634765625 C 237.76519775390625 372.5325927734375 240.90283203125 371.6482238769531 243.98797607421875 370.7309875488281 C 247.07305908203125 369.8137512207031 250.0848388671875 368.8464050292969 252.46337890625 366.7935791015625 L 252.24603271484375 364.6047668457031" stroke-width="0.6000000238418579" fill="rgb(218, 166, 20)" opacity="1.0"/>
    <path d="M 258.1241760253906 389.9674072265625 C 252.28387451171875 382.0868225097656 241.160888671875 380.4328308105469 233.2802734375 386.27313232421875 C 232.60546875 386.7732238769531 231.96697998046875 387.3205871582031 231.36962890625 387.9110412597656 C 229.10018920898438 390.1551208496094 227.412109375 393.167724609375 227.42132568359375 396.35772705078125 C 227.42889404296875 399.05352783203125 228.62091064453125 401.5998840332031 230.020263671875 403.9019470214844 C 233.77444458007812 410.058837890625 239.10870361328125 415.0982666015625 245.46893310546875 418.49664306640625 C 247.151611328125 419.39208984375 248.95645141601562 420.1820068359375 250.86578369140625 420.2393798828125 C 254.0711669921875 420.3375244140625 257.0296325683594 418.31768798828125 258.98809814453125 415.775390625 C 261.89837646484375 412.003173828125 263.0437927246094 407.0343322753906 262.5877685546875 402.2906799316406 C 262.13177490234375 397.54705810546875 260.1714172363281 393.0262145996094 257.4223937988281 389.1340637207031 L 258.1241760253906 389.9674072265625" stroke-width="0.6000000238418579" fill="rgb(143, 165, 67)" opacity="1.0"/>
    <path d="M 206.84588623046875 375.7736511230469 C 199.0841064453125 383.7973327636719 204.880859375 399.670654296875 215.80255126953125 401.60504150390625 C 226.72430419921875 403.5394287109375 237.40866088867188 391.53131103515625 234.99798583984375 380.6276550292969 C 232.5872802734375 369.7239990234375 219.01895141601562 363.21429443359375 208.66192626953125 367.4172058105469 L 206.84588623046875 375.7736511230469" stroke-width="0.6000000238418579" fill="rgb(233, 92, 21)" opacity="1.0"/>
    <path d="M 257.8749694824219 367.1256103515625 C 258.77734375 372.6949157714844 260.4328918457031 379.2539978027344 265.77398681640625 381.13055419921875 C 267.9285583496094 381.79461669921875 270.23614501953125 381.77374267578125 272.37835693359375 381.07073974609375 C 277.7255554199219 379.4740295410156 281.9671325683594 375.38458251953125 283.7580261230469 370.0992431640625 C 285.2657165527344 365.6119384765625 284.7797546386719 360.768798828125 284.2015380859375 356.0995788574219 C 283.87249755859375 353.47723388671875 283.4393615722656 350.70159912109375 281.7253723144531 348.7088928222656 C 279.41900634765625 346.0715026855469 275.5133972167969 345.6034851074219 272.0126647949219 345.7149658203125 C 266.88916015625 345.8716735839844 261.82476806640625 346.85662841796875 257.0159606933594 348.63165283203125 C 255.35565185546875 349.2481384277344 253.659423828125 350.004638671875 252.53744506835938 351.37420654296875 C 251.55938720703125 352.7010192871094 250.98849487304688 354.2837829589844 250.8944091796875 355.929443359375 C 250.41485595703125 360.9102783203125 252.14437866210938 365.8507385253906 255.6258544921875 369.4449157714844 L 257.8749694824219 367.1256103515625" stroke-width="0.6000000238418579" fill="rgb(70, 150, 179)" opacity="1.0"/>
    <path d="M 331.8505859375 360.0498046875 C 334.6625671386719 354.6597595214844 337.5531005859375 348.5672607421875 335.83294677734375 342.7403259277344 C 333.9813232421875 336.4819641113281 327.2042541503906 332.79339599609375 320.7005310058594 332.2498779296875 C 318.19305419921875 332.03924560546875 315.555908203125 332.2234191894531 313.3665466308594 333.46319580078125 C 311.56634521484375 334.481689453125 310.21392822265625 336.12384033203125 308.9971923828125 337.7958068847656 C 305.1539001464844 343.0638122558594 302.1135559082031 349.49542236328125 303.1783142089844 355.92742919921875 C 304.2558898925781 362.4092102050781 309.856689453125 367.8973693847656 316.3700866699219 368.80621337890625 C 322.8835144042969 369.71502685546875 329.79937744140625 366.0400390625 332.64483642578125 360.10614013671875 L 331.8505859375 360.0498046875" stroke-width="0.6000000238418579" fill="rgb(140, 28, 33)" opacity="1.0"/>
    <path d="M 354.517333984375 399.3302001953125 C 349.4700012207031 400.1208190917969 344.2266845703125 400.9991455078125 339.9699401855469 403.830810546875 C 335.7132568359375 406.6624755859375 332.7051086425781 412.0772705078125 334.2496337890625 416.949951171875 C 336.1696472167969 422.9605712890625 344.3330078125 425.17059326171875 350.05157470703125 422.47686767578125 C 355.7701110839844 419.7830810546875 359.19830322265625 413.7388916015625 360.9345397949219 407.6689758300781 C 361.6602783203125 405.84381103515625 361.6754455566406 403.8130187988281 360.9770202636719 401.977294921875 C 360.1025695800781 400.254150390625 357.4208068847656 399.4034118652344 356.1789245605469 400.8962707519531 L 354.517333984375 399.3302001953125" stroke-width="0.6000000238418579" fill="rgb(159, 159, 159)" opacity="1.0"/>
    <path d="M 182.543701171875 413.54376220703125 C 176.42941284179688 413.4620361328125 170.1539306640625 415.473388671875 165.7965087890625 419.7589111328125 C 161.4390869140625 424.0443115234375 159.30374145507812 430.7308349609375 161.164794921875 436.579345703125 C 162.48577880859375 440.712646484375 165.64993286132812 444.10595703125 169.40972900390625 446.2799072265625 C 173.16958618164062 448.45379638671875 177.48944091796875 449.50146484375 181.8096923828125 449.9530029296875 C 183.68991088867188 450.1484375 185.67626953125 450.21728515625 187.36456298828125 449.3778076171875 C 189.30059814453125 448.4163818359375 190.489013671875 446.4420166015625 191.48431396484375 444.5157470703125 C 194.29428100585938 439.0775146484375 196.37783813476562 433.00152587890625 195.67807006835938 426.9195556640625 C 194.978271484375 420.837646484375 190.89547729492188 414.8472900390625 184.9580078125 413.418701171875 L 182.543701171875 413.54376220703125" stroke-width="0.6000000238418579" fill="rgb(159, 159, 159)" opacity="1.0"/>
    <path d="M 359.5888671875 366.36859130859375 C 353.84625244140625 367.83856201171875 347.5267639160156 369.7212829589844 344.4608154296875 374.7810363769531 C 341.4722595214844 379.6974792480469 342.5421447753906 385.972412109375 343.81182861328125 391.5867004394531 C 344.33099365234375 393.86669921875 344.91046142578125 396.2436218261719 346.4454345703125 398.005859375 C 349.0398254394531 400.9879150390625 353.5305480957031 401.3446044921875 357.44866943359375 400.86907958984375 C 361.0855407714844 400.4291076660156 364.640380859375 399.46917724609375 368.0043640136719 398.0186767578125 C 373.4674072265625 395.6654968261719 378.8129577636719 391.2572326660156 379.2197265625 385.3249816894531 C 379.4440002441406 382.1226806640625 378.1451721191406 378.9469299316406 376.23370361328125 376.36175537109375 C 374.3222351074219 373.776611328125 371.8150634765625 371.69866943359375 369.3106689453125 369.68255615234375 C 366.8063049316406 367.66644287109375 364.30230712890625 365.73907470703125 361.26513671875 364.9481201171875 L 359.5888671875 366.36859130859375" stroke-width="0.6000000238418579" fill="rgb(218, 166, 20)" opacity="1.0"/>
    <path d="M 379.1907653808594 381.375244140625 C 374.38250732421875 390.13262939453125 377.5838928222656 401.1297607421875 386.34124755859375 405.9380187988281 C 387.0911560058594 406.3497619628906 387.8692932128906 406.707763671875 388.66986083984375 407.0093688964844 C 391.7120666503906 408.1548767089844 395.2181701660156 408.4353942871094 398.1663513183594 407.06976318359375 C 400.65789794921875 405.9159240722656 402.5072021484375 403.7294616699219 404.04229736328125 401.45513916015625 C 408.14288330078125 395.3616027832031 410.537109375 388.2812805175781 410.97625732421875 380.9496154785156 C 411.0890808105469 379.0114440917969 411.0522155761719 377.00518798828125 410.29302978515625 375.2138366699219 C 409.020263671875 372.2057189941406 405.8924255371094 370.32720947265625 402.7065734863281 369.5963134765625 C 397.9775085449219 368.5079345703125 392.8919677734375 369.5617980957031 388.6960754394531 372.0018615722656 C 384.5002136230469 374.4419250488281 381.1505126953125 378.17938232421875 378.7181091308594 382.3792419433594 L 379.1907653808594 381.375244140625" stroke-width="0.6000000238418579" fill="rgb(143, 165, 67)" opacity="1.0"/>
    <path d="M 365.4889831542969 363.39501953125 C 370.50555419921875 373.4708557128906 387.5426330566406 373.2987060546875 393.0539855957031 363.5679016113281 C 398.5652770996094 353.83709716796875 390.74420166015625 339.64349365234375 379.5694885253906 338.268310546875 C 368.394775390625 336.89312744140625 357.6445617675781 347.60101318359375 358.15673828125 358.85882568359375 L 365.4889831542969 363.39501953125" stroke-width="0.6000000238418579" fill="rgb(233, 92, 21)" opacity="1.0"/>
    <path d="M 397.4491882324219 358.4945068359375 C 398.58843994140625 364.16546630859375 400.5374450683594 370.8213806152344 406.081787109375 372.5379333496094 C 408.31475830078125 373.13519287109375 410.6780700683594 373.02484130859375 412.84564208984375 372.2220153808594 C 418.26226806640625 370.3799743652344 422.4500732421875 366.02679443359375 424.0810546875 360.54290771484375 C 425.45263671875 355.88751220703125 424.7679443359375 350.9444580078125 423.99554443359375 346.1831359863281 C 423.55731201171875 343.5092468261719 423.00653076171875 340.68231201171875 421.1737060546875 338.7068786621094 C 418.70916748046875 336.09381103515625 414.6898193359375 335.76495361328125 411.10760498046875 336.0141296386719 C 405.8646240234375 336.37225341796875 400.7141418457031 337.57666015625 395.8559875488281 339.58056640625 C 394.1787414550781 340.2762145996094 392.4701232910156 341.11663818359375 391.3735046386719 342.56304931640625 C 390.4226379394531 343.9600830078125 389.8988037109375 345.6036071777344 389.8658752441406 347.293212890625 C 389.5666198730469 352.4145812988281 391.529052734375 357.4093933105469 395.23443603515625 360.9573669433594 L 397.4491882324219 358.4945068359375" stroke-width="0.6000000238418579" fill="rgb(70, 150, 179)" opacity="1.0"/>
    <path d="M 385.9519958496094 414.580322265625 C 383.96697998046875 420.38983154296875 382.0106506347656 426.9124755859375 384.616455078125 432.4669189453125 C 387.4192810058594 438.43194580078125 394.7470703125 441.0804443359375 401.3222961425781 440.6312255859375 C 403.8575134277344 440.45904541015625 406.46197509765625 439.873046875 408.45843505859375 438.301513671875 C 410.1001281738281 437.01025390625 411.19976806640625 435.1646728515625 412.15936279296875 433.31005859375 C 415.1925048828125 427.46514892578125 417.2467041015625 420.58111572265625 415.202880859375 414.32275390625 C 413.13861083984375 408.0166320800781 406.71063232421875 403.3922424316406 400.0699768066406 403.47833251953125 C 393.4293518066406 403.564453125 387.0860595703125 408.2877502441406 385.1505432128906 414.645263671875 L 385.9519958496094 414.580322265625" stroke-width="0.6000000238418579" fill="rgb(140, 28, 33)" opacity="1.0"/>
    <path d="M 411.4659118652344 386.571533203125 C 411.39862060546875 391.66180419921875 411.38470458984375 396.9592590332031 413.45458984375 401.61419677734375 C 415.5244140625 406.2690734863281 420.3404541015625 410.1294250488281 425.38525390625 409.42694091796875 C 431.610595703125 408.5458679199219 435.146484375 400.8963928222656 433.45654296875 394.82855224609375 C 431.7666015625 388.7607116699219 426.4024658203125 384.3825378417969 420.730224609375 381.6620788574219 C 419.0587158203125 380.6440124511719 417.06634521484375 380.28955078125 415.146240234375 380.6686706542969 C 413.307373046875 381.23956298828125 412.0233154296875 383.73162841796875 413.2821044921875 385.201171875 L 411.4659118652344 386.571533203125" stroke-width="0.6000000238418579" fill="rgb(159, 159, 159)" opacity="1.0"/>
    <path d="M 439.9224853515625 369.2063903808594 C 441.31640625 375.24310302734375 444.808837890625 380.9337463378906 450.0767822265625 384.1885070800781 C 455.3447265625 387.4432373046875 462.439697265625 387.9323425292969 467.74639892578125 384.69073486328125 C 471.495361328125 382.3941345214844 474.07177734375 378.4621276855469 475.3045654296875 374.23797607421875 C 476.53729248046875 370.0137939453125 476.5267333984375 365.5101013183594 475.9293212890625 361.1496887207031 C 475.668212890625 359.2522888183594 475.257080078125 357.28094482421875 474.02392578125 355.8219299316406 C 472.6109619140625 354.1485290527344 470.3814697265625 353.455078125 468.245849609375 352.9400634765625 C 462.2166748046875 351.486083984375 455.73492431640625 350.9007568359375 449.91851806640625 353.0558776855469 C 444.10205078125 355.21099853515625 439.1915283203125 360.6732482910156 439.21728515625 366.86065673828125 L 439.9224853515625 369.2063903808594" stroke-width="0.6000000238418579" fill="rgb(159, 159, 159)" opacity="1.0"/>
    <path d="M 425.6890869140625 409.8262023925781 C 420.80908203125 412.9971923828125 415.52215576171875 416.7332763671875 414.2593994140625 422.4027099609375 C 413.023681640625 427.91455078125 415.98974609375 433.41534423828125 418.93408203125 438.2388916015625 C 420.13311767578125 440.1966552734375 421.418701171875 442.2255859375 423.39996337890625 443.3826904296875 C 426.7498779296875 445.3416748046875 431.0390625 444.2630615234375 434.5343017578125 442.590087890625 C 437.77899169921875 441.03857421875 440.7841796875 439.02911376953125 443.45770263671875 436.62335205078125 C 447.80023193359375 432.7186279296875 451.38800048828125 426.939208984375 449.90313720703125 421.2933349609375 C 449.10595703125 418.24420166015625 446.900390625 415.6981201171875 444.3104248046875 413.893798828125 C 441.720458984375 412.08953857421875 438.7357177734375 410.944091796875 435.77294921875 409.8553466796875 C 432.8101806640625 408.7665710449219 429.87567138671875 407.7602233886719 426.8021240234375 407.9784240722656 L 425.6890869140625 409.8262023925781" stroke-width="0.6000000238418579" fill="rgb(218, 166, 20)" opacity="1.0"/>
    <path d="M 137.32957458496094 222.53713989257812 C 131.96600341796875 231.10595703125 134.56439208984375 242.40042114257812 143.1332244873047 247.76397705078125 C 143.86697387695312 248.2232666015625 144.63238525390625 248.62991333007812 145.42369079589844 248.98089599609375 C 148.4307098388672 250.31393432617188 151.95639038085938 250.79998779296875 155.01361083984375 249.5908203125 C 157.5972900390625 248.5692138671875 159.59188842773438 246.46734619140625 161.27410888671875 244.258544921875 C 165.768798828125 238.33984375 168.59674072265625 231.32562255859375 169.46417236328125 223.94448852539062 C 169.690185546875 221.99307250976562 169.76889038085938 219.96420288085938 169.10549926757812 218.11065673828125 C 167.99362182617188 214.998291015625 164.94244384765625 212.91976928710938 161.76632690429688 211.99728393554688 C 157.0518798828125 210.62442016601562 151.853515625 211.39508056640625 147.47373962402344 213.61749267578125 C 143.093994140625 215.8399658203125 139.49404907226562 219.42193603515625 136.7940673828125 223.5240478515625 L 137.32957458496094 222.53713989257812" stroke-width="0.6000000238418579" fill="rgb(143, 165, 67)" opacity="1.0"/>
    <path d="M 172.80999755859375 260.76641845703125 C 178.65594482421875 271.3128967285156 196.88214111328125 270.3222961425781 202.32022094726562 259.6468811035156 C 207.75827026367188 248.971435546875 198.71585083007812 234.15057373046875 186.6907958984375 233.20761108398438 C 174.66571044921875 232.2646484375 163.66683959960938 244.23379516601562 164.74783325195312 256.2584533691406 L 172.80999755859375 260.76641845703125" stroke-width="0.6000000238418579" fill="rgb(233, 92, 21)" opacity="1.0"/>
    <path d="M 146.69178771972656 316.97137451171875 C 142.45046997070312 321.1171569824219 137.8140869140625 326.50927734375 139.43301391601562 332.2359924316406 C 140.1659698486328 334.48992919921875 141.58026123046875 336.4609069824219 143.48085021972656 337.876953125 C 148.08909606933594 341.5071716308594 154.1710205078125 342.6786193847656 159.7979736328125 341.0198059082031 C 164.567626953125 339.6004638671875 168.43670654296875 336.2520446777344 172.1004638671875 332.9295959472656 C 174.155517578125 331.0599060058594 176.27935791015625 329.00799560546875 176.95513916015625 326.3288269042969 C 177.82659912109375 322.7503662109375 175.86550903320312 319.1098937988281 173.6513671875 316.1681213378906 C 170.41629028320312 311.8587646484375 166.50506591796875 308.1014709472656 162.06939697265625 305.04193115234375 C 160.53472900390625 303.9877624511719 158.8580322265625 302.9874267578125 157.0018310546875 302.8517761230469 C 155.2694549560547 302.81390380859375 153.5634765625 303.2809143066406 152.09193420410156 304.1958923339844 C 147.5202178955078 306.7976379394531 144.31996154785156 311.27392578125 143.33714294433594 316.4414978027344 L 146.69178771972656 316.97137451171875" stroke-width="0.6000000238418579" fill="rgb(70, 150, 179)" opacity="1.0"/>
    <path d="M 127.27557373046875 306.5096740722656 C 126.22941589355469 300.39306640625 124.81301879882812 293.6571960449219 119.81484985351562 289.9861755371094 C 114.44334411621094 286.0458984375 106.65818786621094 287.23699951171875 101.03852844238281 290.8142395019531 C 98.87123107910156 292.19256591796875 96.84255981445312 293.9717712402344 95.8299560546875 296.3319091796875 C 94.99679565429688 298.271728515625 94.91276550292969 300.4415588378906 94.95744323730469 302.5517883300781 C 95.09031677246094 309.20654296875 96.59454345703125 316.3104553222656 101.43411254882812 320.8780517578125 C 106.31488037109375 325.4781188964844 114.25640869140625 326.4759521484375 120.10966491699219 323.1894836425781 C 125.96293640136719 319.9029846191406 129.31065368652344 312.643798828125 127.95562744140625 306.0646667480469 L 127.27557373046875 306.5096740722656" stroke-width="0.6000000238418579" fill="rgb(140, 28, 33)" opacity="1.0"/>
    <path d="M 140.02586364746094 279.898193359375 C 135.36398315429688 281.916259765625 130.5352783203125 284.06756591796875 127.14276123046875 287.85357666015625 C 123.75030517578125 291.6395263671875 122.20301818847656 297.6011962890625 124.90335083007812 301.9071960449219 C 128.24850463867188 307.2150573730469 136.6573028564453 307.3095703125 141.4913787841797 303.29229736328125 C 146.325439453125 299.2750244140625 148.12033081054688 292.6028747558594 148.280029296875 286.3273010253906 C 148.52410888671875 284.38958740234375 148.032958984375 282.4308776855469 146.90347290039062 280.837646484375 C 145.63255310058594 279.3966979980469 142.83909606933594 279.2455749511719 142.01539611816406 280.9919738769531 L 140.02586364746094 279.898193359375" stroke-width="0.6000000238418579" fill="rgb(159, 159, 159)" opacity="1.0"/>
    <path d="M 164.7027587890625 286.1152038574219 C 163.73831176757812 292.1956481933594 164.83612060546875 298.73895263671875 168.47686767578125 303.6995544433594 C 172.11761474609375 308.6601257324219 178.4715576171875 311.7533874511719 184.5677490234375 310.74371337890625 C 188.87692260742188 310.0243835449219 192.7149658203125 307.3616943359375 195.42401123046875 303.92938232421875 C 198.133056640625 300.4970703125 199.80084228515625 296.3441162109375 200.8746337890625 292.1046142578125 C 201.34085083007812 290.2594299316406 201.6962890625 288.2901611328125 201.10372924804688 286.48675537109375 C 200.42532348632812 284.4188537597656 198.62973022460938 282.9496154785156 196.85418701171875 281.6796875 C 191.84136962890625 278.0945129394531 186.08816528320312 275.1409912109375 179.9271240234375 274.9599304199219 C 173.76605224609375 274.7788391113281 167.2076416015625 277.9818115234375 164.9267578125 283.6915283203125 L 164.7027587890625 286.1152038574219" stroke-width="0.6000000238418579" fill="rgb(159, 159, 159)" opacity="1.0"/>
    <path d="M 121.4090576171875 343.6992492675781 C 120.790283203125 337.7499694824219 119.84478759765625 331.16387939453125 115.247314453125 327.35595703125 C 110.78147888183594 323.64642333984375 104.35997009277344 323.7872009277344 98.56834411621094 324.2250061035156 C 96.21585083007812 324.40631103515625 93.75765991210938 324.6335144042969 91.77182006835938 325.9052734375 C 88.41189575195312 328.0542907714844 87.392333984375 332.4841003417969 87.28807067871094 336.4653015136719 C 87.18988037109375 340.1604919433594 87.622802734375 343.85064697265625 88.57356262207031 347.42279052734375 C 90.115234375 353.2235412597656 93.72557067871094 359.2106018066406 99.58685302734375 360.4931640625 C 102.7501220703125 361.1902160644531 106.11196899414062 360.36297607421875 108.97482299804688 358.8370056152344 C 111.83766174316406 357.3110046386719 114.28225708007812 355.115478515625 116.66470336914062 352.91357421875 C 119.04716491699219 350.711669921875 121.34100341796875 348.4970703125 122.57925415039062 345.58233642578125 L 121.4090576171875 343.6992492675781" stroke-width="0.6000000238418579" fill="rgb(218, 166, 20)" opacity="1.0"/>
    <path d="M 155.98553466796875 344.6305236816406 C 147.01593017578125 348.60455322265625 142.96621704101562 359.09747314453125 146.94027709960938 368.06707763671875 C 147.2805633544922 368.83514404296875 147.6749267578125 369.5780944824219 148.120361328125 370.2903747558594 C 149.81344604492188 372.99652099609375 152.3838653564453 375.3035888671875 155.4990692138672 375.99310302734375 C 158.131591796875 376.5760192871094 160.87762451171875 375.9702453613281 163.43063354492188 375.10870361328125 C 170.26126098632812 372.7930908203125 176.3472900390625 368.6907653808594 181.0565185546875 363.2278747558594 C 182.29888916015625 361.78179931640625 183.46490478515625 360.1933898925781 183.93896484375 358.34259033203125 C 184.73666381835938 355.2359313964844 183.41326904296875 351.9064636230469 181.361083984375 349.4384765625 C 178.31689453125 345.7723083496094 173.71859741210938 343.5664978027344 168.9893798828125 342.9728088378906 C 164.2601318359375 342.3791198730469 159.4189453125 343.3023681640625 155.01858520507812 345.1329345703125 L 155.98553466796875 344.6305236816406" stroke-width="0.6000000238418579" fill="rgb(143, 165, 67)" opacity="1.0"/>
    <path d="M 139.94320678710938 382.8191223144531 C 132.5628662109375 373.476806640625 114.96240234375 377.3528137207031 111.36871337890625 388.6228942871094 C 107.77508544921875 399.89300537109375 118.95252990722656 412.88958740234375 130.8197479248047 411.88787841796875 C 142.68698120117188 410.88616943359375 151.49220275878906 397.46746826171875 148.51852416992188 385.9238586425781 L 139.94320678710938 382.8191223144531" stroke-width="0.6000000238418579" fill="rgb(233, 92, 21)" opacity="1.0"/>
    <path d="M 187.205810546875 358.2291564941406 C 185.6263427734375 363.7926025390625 184.31658935546875 370.60211181640625 188.46185302734375 374.6631164550781 C 190.17440795898438 376.21502685546875 192.32635498046875 377.1972961425781 194.62078857421875 377.474365234375 C 200.27935791015625 378.3126525878906 205.9932861328125 376.35626220703125 209.9505615234375 372.2255859375 C 213.29840087890625 368.7130126953125 214.94940185546875 364.004638671875 216.43923950195312 359.4177551269531 C 217.27194213867188 356.8397521972656 218.0745849609375 354.07421875 217.347900390625 351.47979736328125 C 216.3509521484375 348.029541015625 212.92730712890625 345.8996276855469 209.62808227539062 344.48358154296875 C 204.80224609375 342.4051208496094 199.67184448242188 341.1214904785156 194.43582153320312 340.6824645996094 C 192.62640380859375 340.53424072265625 190.72286987304688 340.5004577636719 189.08648681640625 341.2852478027344 C 187.60232543945312 342.0928039550781 186.38519287109375 343.3147888183594 185.58349609375 344.8021240234375 C 182.97610473632812 349.2192687988281 182.43768310546875 354.5578308105469 184.11053466796875 359.4066467285156 L 187.205810546875 358.2291564941406" stroke-width="0.6000000238418579" fill="rgb(70, 150, 179)" opacity="1.0"/>
  </g>
</svg>
