<?xml version="1.0" ?>
<svg xmlns="http://www.w3.org/2000/svg" version="1.1" width="600" height="600">
  <defs/>
  <g>
    <path d="M 355.6318359375 325.320068359375 C 351.4231872558594 324.67999267578125 347.7698974609375 329.9883728027344 349.58135986328125 333.81048583984375 C 351.392822265625 337.632568359375 357.4855651855469 338.30084228515625 360.3421630859375 335.1427917480469 C 363.1987609863281 331.9847717285156 362.22479248046875 326.32928466796875 358.63043212890625 324.03851318359375 L 355.6318359375 325.320068359375" stroke-width="0.6000000238418579" fill="rgb(233, 92, 21)" opacity="1.0"/>
    <path d="M 95.24134826660156 192.599609375 C 93.01702880859375 192.994873046875 90.4010009765625 193.69775390625 89.6822509765625 195.84765625 C 89.42950439453125 196.71435546875 89.45193481445312 197.63812255859375 89.7464599609375 198.49154663085938 C 90.41839599609375 200.62271118164062 92.08158874511719 202.2960205078125 94.20864868164062 202.98080444335938 C 96.01448059082031 203.55706787109375 97.95060729980469 203.33297729492188 99.8165283203125 203.072998046875 C 100.86445617675781 202.92523193359375 101.97312927246094 202.73489379882812 102.76051330566406 202.0364990234375 C 103.80239868164062 201.09698486328125 103.96595764160156 199.5303955078125 103.89997863769531 198.12945556640625 C 103.80596923828125 196.07907104492188 103.38072204589844 194.05740356445312 102.64071655273438 192.14288330078125 C 102.38375854492188 191.48187255859375 102.07052612304688 190.807373046875 101.51531982421875 190.36651611328125 C 100.97813415527344 189.98300170898438 100.3409423828125 189.76409912109375 99.68148803710938 189.7364501953125 C 97.684326171875 189.5748291015625 95.71682739257812 190.29742431640625 94.29902648925781 191.7132568359375 L 95.24134826660156 192.599609375" stroke-width="0.6000000238418579" fill="rgb(70, 150, 179)" opacity="1.0"/>
    <path d="M 466.007568359375 440.625 C 463.739990234375 439.4705810546875 461.177978515625 438.28631591796875 458.7464599609375 439.0306396484375 C 456.13494873046875 439.83172607421875 454.6195068359375 442.68353271484375 454.419189453125 445.40777587890625 C 454.341552734375 446.4581298828125 454.4296875 447.56103515625 454.9576416015625 448.47216796875 C 455.3914794921875 449.2213134765625 456.08441162109375 449.780517578125 456.78924560546875 450.28271484375 C 459.0101318359375 451.86920166015625 461.714599609375 453.11474609375 464.402099609375 452.64227294921875 C 467.11041259765625 452.1641845703125 469.3839111328125 449.797119140625 469.737060546875 447.06732177734375 C 470.0902099609375 444.3375244140625 468.523193359375 441.4583740234375 466.02783203125 440.2923583984375 L 466.007568359375 440.625" stroke-width="0.6000000238418579" fill="rgb(140, 28, 33)" opacity="1.0"/>
    <path d="M 96.0 196.0 C 95.548583984375 196.33908081054688 95.08261108398438 196.6968994140625 94.81423950195312 197.19406127929688 C 94.5458984375 197.69125366210938 94.53341674804688 198.37567138671875 94.93698120117188 198.77090454101562 C 95.43624877929688 199.2576904296875 96.34739685058594 199.04965209960938 96.76553344726562 198.49005126953125 C 97.18367004394531 197.93048095703125 97.2044677734375 197.162841796875 97.05885314941406 196.48052978515625 C 97.03494262695312 196.26480102539062 96.9310302734375 196.06588745117188 96.76760864257812 195.92303466796875 C 96.59286499023438 195.80029296875 96.28707885742188 195.8564453125 96.24337768554688 196.06655883789062 L 96.0 196.0" stroke-width="0.6000000238418579" fill="rgb(159, 159, 159)" opacity="1.0"/>
    <path d="M 380.7227478027344 308.66259765625 C 378.4942321777344 309.40191650390625 376.4704895019531 310.9208679199219 375.4285888671875 313.02362060546875 C 374.38671875 315.12640380859375 374.45294189453125 317.8207702636719 375.8636779785156 319.7085266113281 C 376.8627624511719 321.04193115234375 378.43743896484375 321.87506103515625 380.07489013671875 322.1908874511719 C 381.71234130859375 322.5067138671875 383.41131591796875 322.3435363769531 385.0354919433594 321.9639892578125 C 385.7421875 321.79840087890625 386.47149658203125 321.5735778808594 386.9784240722656 321.05670166015625 C 387.55987548828125 320.46441650390625 387.74273681640625 319.5986633300781 387.861572265625 318.774658203125 C 388.19708251953125 316.44830322265625 388.1888122558594 313.9819030761719 387.1700439453125 311.8634338378906 C 386.1512451171875 309.74493408203125 383.9166564941406 308.08514404296875 381.5829162597656 308.3135681152344 L 380.7227478027344 308.66259765625" stroke-width="0.6000000238418579" fill="rgb(159, 159, 159)" opacity="1.0"/>
    <path d="M 99.94647216796875 437.6405029296875 C 97.57673645019531 438.32696533203125 94.972412109375 439.192626953125 93.76303100585938 441.3375244140625 C 92.583984375 443.42181396484375 93.1109619140625 446.0181884765625 93.71246337890625 448.337158203125 C 93.95819091796875 449.27886962890625 94.23027038574219 450.2601318359375 94.89183044433594 450.97314453125 C 96.01002502441406 452.1798095703125 97.88282775878906 452.26959228515625 99.50656127929688 452.0206298828125 C 101.01374816894531 451.79010009765625 102.48002624511719 451.3443603515625 103.86050415039062 450.697021484375 C 106.1024169921875 449.64678955078125 108.26861572265625 447.7431640625 108.36038208007812 445.27001953125 C 108.41188049316406 443.9349365234375 107.83010864257812 442.63079833984375 107.00119018554688 441.580322265625 C 106.17227172851562 440.5299072265625 105.10215759277344 439.6981201171875 104.03401184082031 438.89215087890625 C 102.96586608886719 438.086181640625 101.8990478515625 437.3170166015625 100.62525939941406 437.0277099609375 L 99.94647216796875 437.6405029296875" stroke-width="0.6000000238418579" fill="rgb(218, 166, 20)" opacity="1.0"/>
    <path d="M 95.79621887207031 144.8724365234375 C 92.11485290527344 143.58006286621094 88.08282470703125 145.5167236328125 86.79046630859375 149.19808959960938 C 86.67979431152344 149.51332092285156 86.59162902832031 149.8360137939453 86.52662658691406 150.16372680664062 C 86.27987670898438 151.40902709960938 86.39602661132812 152.77772521972656 87.11068725585938 153.82620239257812 C 87.71456909179688 154.71229553222656 88.6751708984375 155.28494262695312 89.64956665039062 155.73089599609375 C 92.2593994140625 156.92098999023438 95.14028930664062 157.39059448242188 97.99298095703125 157.09088134765625 C 98.74688720703125 157.01040649414062 99.5174560546875 156.867919921875 100.15904235839844 156.46087646484375 C 101.23654174804688 155.77813720703125 101.76023864746094 154.45297241210938 101.83807373046875 153.17884826660156 C 101.9549560546875 151.2873077392578 101.22369384765625 149.3954620361328 100.01528930664062 147.93499755859375 C 98.80691528320312 146.47454833984375 97.15278625488281 145.42306518554688 95.37919616699219 144.75454711914062 L 95.79621887207031 144.8724365234375" stroke-width="0.6000000238418579" fill="rgb(143, 165, 67)" opacity="1.0"/>
    <path d="M 460.89117431640625 338.8667297363281 C 456.68231201171875 338.0903015136719 452.84320068359375 343.308837890625 454.54248046875 347.2068786621094 C 456.24176025390625 351.10491943359375 462.34295654296875 351.9693298339844 465.3134765625 348.8863525390625 C 468.283935546875 345.80340576171875 467.4842529296875 340.0895690917969 463.9449462890625 337.67388916015625 L 460.89117431640625 338.8667297363281" stroke-width="0.6000000238418579" fill="rgb(233, 92, 21)" opacity="1.0"/>
    <path d="M 105.63998413085938 209.92779541015625 C 103.40565490722656 210.21487426757812 100.76646423339844 210.78948974609375 99.94755554199219 212.89633178710938 C 99.654296875 213.7474365234375 99.63235473632812 214.6685791015625 99.88479614257812 215.53268432617188 C 100.45187377929688 217.6875 102.02816772460938 219.43377685546875 104.11386108398438 220.2177734375 C 105.88481140136719 220.87826538085938 107.82389831542969 220.74786376953125 109.69479370117188 220.578369140625 C 110.74557495117188 220.4814453125 111.85891723632812 220.34500122070312 112.67660522460938 219.6871337890625 C 113.75933837890625 218.80133056640625 113.997314453125 217.2489013671875 113.99874877929688 215.85043334960938 C 114.00341796875 213.80377197265625 113.67677307128906 211.76983642578125 113.031494140625 209.82757568359375 C 112.8072509765625 209.15692138671875 112.52761840820312 208.4700927734375 111.99578857421875 208.00439453125 C 111.4791259765625 207.5966796875 110.85501098632812 207.34808349609375 110.19950866699219 207.28897094726562 C 108.2181396484375 207.03228759765625 106.22390747070312 207.65765380859375 104.74394226074219 208.9998779296875 L 105.63998413085938 209.92779541015625" stroke-width="0.6000000238418579" fill="rgb(70, 150, 179)" opacity="1.0"/>
    <path d="M 101.00564575195312 82.67147827148438 C 98.64810180664062 81.67373657226562 95.9930419921875 80.66680908203125 93.6055908203125 81.58610534667969 C 91.04150390625 82.57518005371094 89.72280883789062 85.54458618164062 89.71490478515625 88.29275512695312 C 89.71139526367188 89.35232543945312 89.87799072265625 90.45297241210938 90.47250366210938 91.32992553710938 C 90.9609375 92.05101013183594 91.69598388671875 92.56304931640625 92.43894958496094 93.01712036132812 C 94.78018188476562 94.45187377929688 97.5826416015625 95.51019287109375 100.24624633789062 94.84548950195312 C 102.93032836914062 94.17373657226562 105.044189453125 91.63711547851562 105.20509338378906 88.87249755859375 C 105.36599731445312 86.10787963867188 103.58934020996094 83.32958984375 101.00238037109375 82.33621215820312 L 101.00564575195312 82.67147827148438" stroke-width="0.6000000238418579" fill="rgb(140, 28, 33)" opacity="1.0"/>
    <path d="M 102.49258422851562 435.27587890625 C 101.99484252929688 435.5462646484375 101.47991943359375 435.8330078125 101.14068603515625 436.287109375 C 100.80145263671875 436.7412109375 100.68873596191406 437.418701171875 101.03134155273438 437.8701171875 C 101.45547485351562 438.4263916015625 102.39027404785156 438.353515625 102.88729858398438 437.8594970703125 C 103.38433837890625 437.3653564453125 103.51751708984375 436.6065673828125 103.4730224609375 435.9080810546875 C 103.48091125488281 435.6904296875 103.40695190429688 435.477783203125 103.26571655273438 435.31201171875 C 103.11027526855469 435.16455078125 102.79853820800781 435.175537109375 102.724365234375 435.37762451171875 L 102.49258422851562 435.27587890625" stroke-width="0.6000000238418579" fill="rgb(159, 159, 159)" opacity="1.0"/>
    <path d="M 460.7305908203125 66.2904052734375 C 458.58740234375 67.31263732910156 456.747802734375 69.0914306640625 455.96685791015625 71.33248901367188 C 455.1859130859375 73.57357788085938 455.59136962890625 76.26887512207031 457.24444580078125 77.98565673828125 C 458.4146728515625 79.19793701171875 460.099609375 79.83584594726562 461.782470703125 79.94674682617188 C 463.46533203125 80.05766296386719 465.1495361328125 79.68016052246094 466.7315673828125 79.09498596191406 C 467.419921875 78.83993530273438 468.1234130859375 78.52256774902344 468.5670166015625 77.94015502929688 C 469.07598876953125 77.27264404296875 469.15057373046875 76.38092041015625 469.1661376953125 75.53912353515625 C 469.2100830078125 73.16256713867188 468.89154052734375 70.688720703125 467.60272216796875 68.69111633300781 C 466.31396484375 66.69351196289062 463.86279296875 65.30914306640625 461.5498046875 65.83197021484375 L 460.7305908203125 66.2904052734375" stroke-width="0.6000000238418579" fill="rgb(159, 159, 159)" opacity="1.0"/>
    <path d="M 98.40476989746094 97.35005187988281 C 95.92503356933594 97.45550537109375 93.17324829101562 97.68017578125 91.47955322265625 99.48779296875 C 89.82994079589844 101.243408203125 89.72544860839844 103.9066162109375 89.75994873046875 106.31646728515625 C 89.77542114257812 107.29542541503906 89.80718994140625 108.31930541992188 90.28359985351562 109.17404174804688 C 91.0885009765625 110.6201171875 92.89736938476562 111.15469360351562 94.54365539550781 111.29879760742188 C 96.07162475585938 111.43315124511719 97.61099243164062 111.34739685058594 99.11459350585938 111.04415893554688 C 101.55619812011719 110.55268859863281 104.12744140625 109.20913696289062 104.80722045898438 106.81405639648438 C 105.17611694335938 105.52156066894531 104.91873168945312 104.10818481445312 104.35928344726562 102.8837890625 C 103.79981994628906 101.65936279296875 102.95245361328125 100.59121704101562 102.10086059570312 99.54864501953125 C 101.24928283691406 98.50607299804688 100.39019775390625 97.4998779296875 99.21435546875 96.91311645507812 L 98.40476989746094 97.35005187988281" stroke-width="0.6000000238418579" fill="rgb(218, 166, 20)" opacity="1.0"/>
    <path d="M 110.20834350585938 134.98831176757812 C 106.28909301757812 134.98593139648438 103.1099853515625 138.16119384765625 103.10760498046875 142.0804443359375 C 103.10739135742188 142.4160614013672 103.13101196289062 142.75125122070312 103.17822265625 143.08352661132812 C 103.35794067382812 144.34603881835938 103.92266845703125 145.60499572753906 104.94845581054688 146.36158752441406 C 105.81527709960938 147.00103759765625 106.91615295410156 147.22482299804688 107.98800659179688 147.32394409179688 C 110.85746765136719 147.5852813720703 113.74456787109375 147.0735321044922 116.34939575195312 145.8418731689453 C 117.03738403320312 145.51515197753906 117.72055053710938 145.1240997314453 118.19357299804688 144.5251007080078 C 118.98828125 143.51995849609375 119.04458618164062 142.08973693847656 118.69515991210938 140.8560028076172 C 118.17767333984375 139.0240020751953 116.85603332519531 137.473388671875 115.225341796875 136.490234375 C 113.59466552734375 135.50709533691406 111.67727661132812 135.05970764160156 109.77383422851562 135.01507568359375 L 110.20834350585938 134.98831176757812" stroke-width="0.6000000238418579" fill="rgb(143, 165, 67)" opacity="1.0"/>
    <path d="M 392.1219177246094 293.1796875 C 387.9619445800781 292.2200012207031 383.90557861328125 297.2508544921875 385.4267272949219 301.2104797363281 C 386.9479064941406 305.1700744628906 392.98980712890625 306.3010559082031 396.0862121582031 303.3599853515625 C 399.1826171875 300.4189453125 398.63812255859375 294.6895751953125 395.2178039550781 292.1258850097656 L 392.1219177246094 293.1796875" stroke-width="0.6000000238418579" fill="rgb(233, 92, 21)" opacity="1.0"/>
    <path d="M 114.23226928710938 102.9749755859375 C 112.015625 103.375244140625 109.40927124023438 104.08328247070312 108.69862365722656 106.22882080078125 C 108.44903564453125 107.09367370605469 108.47396850585938 108.01466369628906 108.76998901367188 108.86473083496094 C 109.44583129882812 110.98773193359375 111.1087646484375 112.65145874023438 113.2314453125 113.32832336425781 C 115.03352355957031 113.89788818359375 116.96331787109375 113.6690673828125 118.822998046875 113.4046630859375 C 119.86740112304688 113.25445556640625 120.97227478027344 113.06158447265625 121.75540161132812 112.36306762695312 C 122.79158020019531 111.42344665527344 122.9503173828125 109.86103820800781 122.88064575195312 108.46443176269531 C 122.78121948242188 106.42034912109375 122.35162353515625 104.40585327148438 121.60848999023438 102.49905395507812 C 121.35044860839844 101.84071350097656 121.03627014160156 101.1690673828125 120.48149108886719 100.73104858398438 C 119.94482421875 100.35015869140625 119.30892944335938 100.1336669921875 118.65133666992188 100.10795593261719 C 116.65963745117188 99.95234680175781 114.699951171875 100.67828369140625 113.290283203125 102.0938720703125 L 114.23226928710938 102.9749755859375" stroke-width="0.6000000238418579" fill="rgb(70, 150, 179)" opacity="1.0"/>
    <path d="M 437.716796875 79.69241333007812 C 435.4287109375 78.55853271484375 432.844970703125 77.39779663085938 430.41290283203125 78.17105102539062 C 427.80084228515625 79.00323486328125 426.3109130859375 81.88148498535156 426.139404296875 84.61749267578125 C 426.0728759765625 85.67234802246094 426.1732177734375 86.77822875976562 426.71295166015625 87.68684387207031 C 427.1563720703125 88.43394470214844 427.8577880859375 88.98757934570312 428.570556640625 89.48396301269531 C 430.81640625 91.052001953125 433.5439453125 92.27268981933594 436.23583984375 91.7694091796875 C 438.948486328125 91.26031494140625 441.204345703125 88.8603515625 441.5291748046875 86.11709594726562 C 441.85400390625 83.37382507324219 440.2503662109375 80.50155639648438 437.7335205078125 79.35836791992188 L 437.716796875 79.69241333007812" stroke-width="0.6000000238418579" fill="rgb(140, 28, 33)" opacity="1.0"/>
    <path d="M 120.0 419.0 C 119.548583984375 419.339111328125 119.08261108398438 419.6968994140625 118.81423950195312 420.194091796875 C 118.5458984375 420.6912841796875 118.53341674804688 421.3756103515625 118.93698120117188 421.7708740234375 C 119.43624877929688 422.2576904296875 120.34739685058594 422.0496826171875 120.76553344726562 421.49005126953125 C 121.18367004394531 420.93048095703125 121.2044677734375 420.162841796875 121.05885314941406 419.48052978515625 C 121.03494262695312 419.2647705078125 120.9310302734375 419.06591796875 120.76760864257812 418.92303466796875 C 120.59286499023438 418.80029296875 120.28707885742188 418.8564453125 120.24337768554688 419.0665283203125 L 120.0 419.0" stroke-width="0.6000000238418579" fill="rgb(159, 159, 159)" opacity="1.0"/>
    <path d="M 442.3082275390625 418.3787841796875 C 440.2052001953125 419.455322265625 438.42529296875 421.2757568359375 437.711181640625 423.5264892578125 C 436.9970703125 425.77716064453125 437.47552490234375 428.44647216796875 439.16748046875 430.1077880859375 C 440.36529541015625 431.28082275390625 442.058837890625 431.8681640625 443.735595703125 431.9315185546875 C 445.412353515625 431.994873046875 447.0770263671875 431.5723876953125 448.634033203125 430.94622802734375 C 449.3115234375 430.67333984375 450.0023193359375 430.33807373046875 450.42730712890625 429.7464599609375 C 450.91485595703125 429.068359375 450.964111328125 428.17938232421875 450.95611572265625 427.34173583984375 C 450.9334716796875 424.97686767578125 450.547607421875 422.525390625 449.21002197265625 420.5745849609375 C 447.8724365234375 418.623779296875 445.39599609375 417.3154296875 443.11016845703125 417.89996337890625 L 442.3082275390625 418.3787841796875" stroke-width="0.6000000238418579" fill="rgb(159, 159, 159)" opacity="1.0"/>
    <path d="M 441.1622314453125 279.06011962890625 C 438.7913818359375 279.8015441894531 436.1881103515625 280.7283935546875 435.016357421875 282.9132385253906 C 433.873779296875 285.0364074707031 434.45953369140625 287.6388244628906 435.1143798828125 289.96038818359375 C 435.3817138671875 290.9031066894531 435.676513671875 291.88507080078125 436.35760498046875 292.5887756347656 C 437.5089111328125 293.7796630859375 439.39599609375 293.8302001953125 441.0252685546875 293.5450134277344 C 442.5374755859375 293.2809143066406 444.0040283203125 292.801025390625 445.3798828125 292.12005615234375 C 447.6143798828125 291.0151672363281 449.75439453125 289.0528259277344 449.794189453125 286.56134033203125 C 449.817626953125 285.21630859375 449.20428466796875 283.9158630371094 448.3475341796875 282.8760681152344 C 447.49072265625 281.8362731933594 446.3958740234375 281.0218200683594 445.303466796875 280.2331848144531 C 444.21112060546875 279.4445495605469 443.120849609375 278.6930236816406 441.83245849609375 278.4288024902344 L 441.1622314453125 279.06011962890625" stroke-width="0.6000000238418579" fill="rgb(218, 166, 20)" opacity="1.0"/>
    <path d="M 432.834716796875 372.8071594238281 C 429.30615234375 371.1571960449219 425.10809326171875 372.68011474609375 423.4581298828125 376.2087097167969 C 423.31683349609375 376.5108642578125 423.1971435546875 376.8226318359375 423.0999755859375 377.1417541503906 C 422.7310791015625 378.3542785644531 422.7103271484375 379.72552490234375 423.3160400390625 380.8381652832031 C 423.8277587890625 381.7784729003906 424.72509765625 382.44287109375 425.648681640625 382.9827880859375 C 428.123046875 384.42462158203125 430.938232421875 385.1776123046875 433.8018798828125 385.1636047363281 C 434.558837890625 385.1585998535156 435.3385009765625 385.09368896484375 436.016357421875 384.75311279296875 C 437.1546630859375 384.1820373535156 437.80670166015625 382.9176940917969 438.0107421875 381.6596984863281 C 438.31494140625 379.7922668457031 437.77667236328125 377.84014892578125 436.721435546875 376.2691345214844 C 435.666259765625 374.6981201171875 434.12762451171875 373.48907470703125 432.43218994140625 372.6485900878906 L 432.834716796875 372.8071594238281" stroke-width="0.6000000238418579" fill="rgb(143, 165, 67)" opacity="1.0"/>
    <path d="M 442.1983642578125 363.77545166015625 C 438.32080078125 365.5824890136719 438.2188720703125 372.0573425292969 441.8619384765625 374.2469482421875 C 445.50494384765625 376.4365234375 450.974609375 373.6043701171875 451.6068115234375 369.3721008300781 C 452.2391357421875 365.13983154296875 448.27630615234375 360.95013427734375 443.993896484375 361.0341796875 L 442.1983642578125 363.77545166015625" stroke-width="0.6000000238418579" fill="rgb(233, 92, 21)" opacity="1.0"/>
    <path d="M 442.9091796875 92.03530883789062 C 440.6953125 92.4237060546875 438.091064453125 93.11724853515625 437.371337890625 95.254638671875 C 437.117919921875 96.11637878417969 437.13824462890625 97.03550720214844 437.429443359375 97.88522338867188 C 438.09326171875 100.00700378417969 439.74432373046875 101.6754150390625 441.85906982421875 102.36138916015625 C 443.6544189453125 102.93867492675781 445.5811767578125 102.71994018554688 447.438232421875 102.46536254882812 C 448.4810791015625 102.32066345214844 449.5845947265625 102.13371276855469 450.36944580078125 101.44059753417969 C 451.4080810546875 100.50814819335938 451.57421875 98.94989013671875 451.51165771484375 97.55593872070312 C 451.422607421875 95.51577758789062 451.00396728515625 93.50347900390625 450.27191162109375 91.59707641601562 C 450.0177001953125 90.93888854980469 449.70751953125 90.26712036132812 449.1561279296875 89.82728576660156 C 448.62255859375 89.44454956054688 447.989013671875 89.22537231445312 447.3330078125 89.19644165039062 C 445.34637451171875 89.03125 443.3873291015625 89.74588012695312 441.9736328125 91.15141296386719 L 442.9091796875 92.03530883789062" stroke-width="0.6000000238418579" fill="rgb(70, 150, 179)" opacity="1.0"/>
    <path d="M 438.2603759765625 403.66705322265625 C 435.78955078125 404.2669372558594 433.0760498046875 405.0356140136719 431.7161865234375 407.18206787109375 C 430.2568359375 409.4887390136719 430.962890625 412.6375732421875 432.58343505859375 414.833984375 C 433.2078857421875 415.6810302734375 433.9923095703125 416.460205078125 434.985595703125 416.8076171875 C 435.802001953125 417.0936279296875 436.6912841796875 417.06683349609375 437.5526123046875 416.9891357421875 C 440.2691650390625 416.7474365234375 443.130615234375 415.9324951171875 444.8614501953125 413.8255615234375 C 446.6043701171875 411.7009582519531 446.78857421875 408.4266052246094 445.2803955078125 406.12652587890625 C 443.7720947265625 403.8264465332031 440.71051025390625 402.66241455078125 438.059326171875 403.4015808105469 L 438.2603759765625 403.66705322265625" stroke-width="0.6000000238418579" fill="rgb(140, 28, 33)" opacity="1.0"/>
    <path d="M 118.66329956054688 223.65594482421875 C 117.58891296386719 223.9945068359375 116.47470092773438 224.358642578125 115.63987731933594 225.11614990234375 C 114.80508422851562 225.8736572265625 114.32752990722656 227.1531982421875 114.82470703125 228.1646728515625 C 115.44119262695312 229.41189575195312 117.29371643066406 229.62493896484375 118.4517822265625 228.849365234375 C 119.60983276367188 228.07382202148438 120.15823364257812 226.6431884765625 120.3369140625 225.2626953125 C 120.43504333496094 224.84088134765625 120.37149047851562 224.39761352539062 120.15878295898438 224.0203857421875 C 119.91140747070312 223.67352294921875 119.2987060546875 223.57632446289062 119.07711791992188 223.94268798828125 L 118.66329956054688 223.65594482421875" stroke-width="0.6000000238418579" fill="rgb(159, 159, 159)" opacity="1.0"/>
    <path d="M 119.986328125 226.4549560546875 C 115.38302612304688 225.520751953125 110.35940551757812 226.14337158203125 106.458984375 228.75616455078125 C 102.55856323242188 231.36895751953125 99.99270629882812 236.111083984375 100.56280517578125 240.79095458984375 C 100.97006225585938 244.09921264648438 102.87405395507812 247.1119384765625 105.40167236328125 249.289306640625 C 107.92930603027344 251.46664428710938 111.04032897949219 252.87384033203125 114.23675537109375 253.83114624023438 C 115.62802124023438 254.24691772460938 117.11746215820312 254.58233642578125 118.51150512695312 254.189697265625 C 120.1099853515625 253.74026489257812 121.28872680664062 252.419677734375 122.31484985351562 251.1077880859375 C 125.21176147460938 247.40411376953125 127.65142822265625 243.11538696289062 127.99113464355469 238.42498779296875 C 128.33084106445312 233.734619140625 126.10403442382812 228.630615234375 121.82644653320312 226.70504760742188 L 119.986328125 226.4549560546875" stroke-width="0.6000000238418579" fill="rgb(159, 159, 159)" opacity="1.0"/>
    <path d="M 289.3739318847656 107.68789672851562 C 284.70849609375 109.21807861328125 279.5888977050781 111.12106323242188 277.332763671875 115.47119140625 C 275.1326904296875 119.6986083984375 276.3614501953125 124.82597351074219 277.71905517578125 129.39637756347656 C 278.2732849121094 131.2522430419922 278.8827209472656 133.18490600585938 280.24810791015625 134.55711364746094 C 282.5560302734375 136.87928771972656 286.287109375 136.92752075195312 289.499267578125 136.3193817138672 C 292.48089599609375 135.75607299804688 295.3662109375 134.76754760742188 298.06683349609375 133.38406372070312 C 302.4527587890625 131.13925170898438 306.62872314453125 127.20242309570312 306.63922119140625 122.27719116210938 C 306.6487731933594 119.61825561523438 305.40093994140625 117.06484985351562 303.6792297363281 115.03323364257812 C 301.9574890136719 113.0015869140625 299.7712707519531 111.42184448242188 297.59075927734375 109.89306640625 C 295.4102478027344 108.36428833007812 293.23492431640625 106.9088134765625 290.6813659667969 106.421875 L 289.3739318847656 107.68789672851562" stroke-width="0.6000000238418579" fill="rgb(218, 166, 20)" opacity="1.0"/>
    <path d="M 231.22409057617188 117.24664306640625 C 223.53240966796875 117.87969970703125 217.810302734375 124.62821960449219 218.443359375 132.31988525390625 C 218.49755859375 132.97853088378906 218.59841918945312 133.63247680664062 218.74517822265625 134.27685546875 C 219.30325317382812 136.72520446777344 220.61636352539062 139.1039581298828 222.75250244140625 140.4217987060547 C 224.5576171875 141.53562927246094 226.75445556640625 141.79568481445312 228.8740234375 141.81578063964844 C 234.54766845703125 141.8617401123047 240.130126953125 140.38771057128906 245.04150390625 137.54681396484375 C 246.33847045898438 136.793701171875 247.61553955078125 135.91513061523438 248.44635009765625 134.66265869140625 C 249.84234619140625 132.5608367919922 249.72012329101562 129.74496459960938 248.83364868164062 127.38069152832031 C 247.52001953125 123.86968994140625 244.674072265625 121.04177856445312 241.31402587890625 119.37774658203125 C 237.95391845703125 117.71372985839844 234.118408203125 117.14775085449219 230.37576293945312 117.369873046875 L 231.22409057617188 117.24664306640625" stroke-width="0.6000000238418579" fill="rgb(143, 165, 67)" opacity="1.0"/>
    <path d="M 230.64263916015625 106.64340209960938 C 223.0506591796875 110.30657958984375 223.02145385742188 123.06661987304688 230.25732421875 127.2841796875 C 237.4931640625 131.501708984375 248.19482421875 125.77655029296875 249.328369140625 117.42098999023438 C 250.46194458007812 109.0654296875 242.54296875 100.91558837890625 234.107666015625 101.19467163085938 L 230.64263916015625 106.64340209960938" stroke-width="0.6000000238418579" fill="rgb(233, 92, 21)" opacity="1.0"/>
    <path d="M 209.68453979492188 107.62425231933594 C 205.82720947265625 105.40740966796875 200.98959350585938 103.15939331054688 197.18539428710938 105.49533081054688 C 195.7076416015625 106.48385620117188 194.57305908203125 107.90657043457031 193.93817138671875 109.56724548339844 C 192.25677490234375 113.63388061523438 192.65069580078125 118.26324462890625 194.9951171875 121.98728942871094 C 196.99188232421875 125.14122009277344 200.19775390625 127.25189208984375 203.34298706054688 129.21958923339844 C 205.11160278320312 130.32205200195312 207.0257568359375 131.4370574951172 209.09759521484375 131.3788299560547 C 211.85858154296875 131.27857971191406 214.08694458007812 129.12086486816406 215.75933837890625 126.9228515625 C 218.21090698242188 123.7091064453125 220.12615966796875 120.1197509765625 221.4307861328125 116.29397583007812 C 221.87899780273438 114.97125244140625 222.2593994140625 113.55694580078125 221.97900390625 112.18927001953125 C 221.65325927734375 110.93093872070312 220.9683837890625 109.79458618164062 220.0079345703125 108.91874694824219 C 217.1978759765625 106.148681640625 213.31414794921875 104.75076293945312 209.38330078125 105.09451293945312 L 209.68453979492188 107.62425231933594" stroke-width="0.6000000238418579" fill="rgb(70, 150, 179)" opacity="1.0"/>
    <path d="M 256.220947265625 117.32650756835938 C 251.30929565429688 118.53555297851562 245.9158935546875 120.0819091796875 243.22421264648438 124.3607177734375 C 240.33551025390625 128.95883178710938 241.76019287109375 135.2185516357422 244.99795532226562 139.5778045654297 C 246.24560546875 141.25909423828125 247.81103515625 142.80416870117188 249.78921508789062 143.48912048339844 C 251.41519165039062 144.05279541015625 253.18423461914062 143.9939422607422 254.89727783203125 143.8339385986328 C 260.29998779296875 143.3358612060547 265.98748779296875 141.696533203125 269.4173889160156 137.49411010742188 C 272.8713073730469 133.25631713867188 273.21710205078125 126.74118041992188 270.2020568847656 122.17494201660156 C 267.1869812011719 117.60870361328125 261.0888671875 115.31240844726562 255.81927490234375 116.7996826171875 L 256.220947265625 117.32650756835938" stroke-width="0.6000000238418579" fill="rgb(140, 28, 33)" opacity="1.0"/>
    <path d="M 318.5350646972656 109.62919616699219 C 317.6168518066406 110.29104614257812 316.668701171875 110.9898681640625 316.1111755371094 111.97586059570312 C 315.5536804199219 112.96185302734375 315.5016784667969 114.33320617675781 316.2950134277344 115.14138793945312 C 317.27655029296875 116.13679504394531 319.1111145019531 115.75576782226562 319.9713134765625 114.65058898925781 C 320.8315124511719 113.54541015625 320.9034729003906 112.00759887695312 320.6385192871094 110.63418579101562 C 320.5990905761719 110.2008056640625 320.3986511230469 109.7979736328125 320.0767517089844 109.50518798828125 C 319.7313232421875 109.25228881835938 319.11614990234375 109.35281372070312 319.0202941894531 109.772216796875 L 318.5350646972656 109.62919616699219" stroke-width="0.6000000238418579" fill="rgb(159, 159, 159)" opacity="1.0"/>
    <path d="M 208.63943481445312 118.28854370117188 C 204.04937744140625 117.30648803710938 199.02288818359375 117.87567138671875 195.0977783203125 120.44538879394531 C 191.17266845703125 123.01510620117188 188.55865478515625 127.72665405273438 189.0789794921875 132.40914916992188 C 189.4510498046875 135.71923828125 191.32186889648438 138.74984741210938 193.82464599609375 140.95225524902344 C 196.32745361328125 143.1546630859375 199.42135620117188 144.59365844726562 202.6053466796875 145.58396911621094 C 203.99118041992188 146.0141143798828 205.47598266601562 146.364990234375 206.8731689453125 145.98733520507812 C 208.4752197265625 145.55508422851562 209.6669921875 144.24789428710938 210.70620727539062 142.94781494140625 C 213.64007568359375 139.2774200439453 216.1231689453125 135.017578125 216.51211547851562 130.334228515625 C 216.90103149414062 125.65086364746094 214.72970581054688 120.52711486816406 210.4755859375 118.557861328125 L 208.63943481445312 118.28854370117188" stroke-width="0.6000000238418579" fill="rgb(159, 159, 159)" opacity="1.0"/>
    <path d="M 276.3099365234375 109.73663330078125 C 271.41229248046875 109.75094604492188 265.9689636230469 109.97903442382812 262.4882507324219 113.41098022460938 C 259.09857177734375 116.7437744140625 258.6846008300781 121.98678588867188 258.5644836425781 126.7410888671875 C 258.5185241699219 128.67254638671875 258.501220703125 130.69386291503906 259.37384033203125 132.41636657714844 C 260.84796142578125 135.3305206298828 264.37286376953125 136.52581787109375 267.607666015625 136.93850708007812 C 270.6099548339844 137.3227081298828 273.65185546875 137.2738037109375 276.6402282714844 136.79331970214844 C 281.49285888671875 136.01490783691406 286.6675720214844 133.56654357910156 288.1949768066406 128.89710998535156 C 289.02325439453125 126.37745666503906 288.6260986328125 123.570556640625 287.61859130859375 121.11265563964844 C 286.611083984375 118.65475463867188 285.0237121582031 116.48245239257812 283.4259948730469 114.36027526855469 C 281.8283386230469 112.23809814453125 280.2129821777344 110.18704223632812 277.94036865234375 108.93832397460938 L 276.3099365234375 109.73663330078125" stroke-width="0.6000000238418579" fill="rgb(218, 166, 20)" opacity="1.0"/>
    <path d="M 240.6346435546875 117.20770263671875 C 233.1854248046875 119.200439453125 228.76205444335938 126.85466003417969 230.75479125976562 134.3038787841797 C 230.9254150390625 134.94175720214844 231.14111328125 135.5667266845703 231.40020751953125 136.17408752441406 C 232.38507080078125 138.4817352294922 234.099853515625 140.58644104003906 236.43475341796875 141.50148010253906 C 238.40786743164062 142.2749481201172 240.614013671875 142.13922119140625 242.701416015625 141.78135681152344 C 248.28759765625 140.8157196044922 253.51336669921875 138.37196350097656 257.8358154296875 134.70394897460938 C 258.97674560546875 133.73245239257812 260.07574462890625 132.64117431640625 260.66943359375 131.2617950439453 C 261.6674499511719 128.94668579101562 261.0455627441406 126.20005798339844 259.7528381347656 124.03358459472656 C 257.8358154296875 120.81581115722656 254.5340576171875 118.54258728027344 250.93414306640625 117.5052490234375 C 247.334228515625 116.46792602539062 243.4625244140625 116.59481811523438 239.82257080078125 117.47998046875 L 240.6346435546875 117.20770263671875" stroke-width="0.6000000238418579" fill="rgb(143, 165, 67)" opacity="1.0"/>
    <path d="M 251.94866943359375 106.61624145507812 C 244.35858154296875 110.28277587890625 244.33523559570312 123.04238891601562 251.57275390625 127.25648498535156 C 258.8103332519531 131.47055053710938 269.5090026855469 125.74070739746094 270.6387023925781 117.38491821289062 C 271.76837158203125 109.02911376953125 263.8459777832031 100.88319396972656 255.41107177734375 101.16610717773438 L 251.94866943359375 106.61624145507812" stroke-width="0.6000000238418579" fill="rgb(233, 92, 21)" opacity="1.0"/>
    <path d="M 349.8318176269531 97.64535522460938 C 345.4347839355469 98.29461669921875 340.249755859375 99.5262451171875 338.7125244140625 103.71279907226562 C 338.1656188964844 105.40267944335938 338.15655517578125 107.22064208984375 338.6866455078125 108.91587829589844 C 339.8853454589844 113.1456298828125 343.0597839355469 116.53199768066406 347.203369140625 118.00112915039062 C 350.7214660644531 119.23835754394531 354.5419006347656 118.90908813476562 358.226318359375 118.50521850585938 C 360.2956237792969 118.27499389648438 362.4868469238281 117.9644775390625 364.07550048828125 116.6363525390625 C 366.1784973144531 114.84872436523438 366.59033203125 111.77735900878906 366.5412292480469 109.01852416992188 C 366.4743957519531 104.98089599609375 365.7544860839844 100.98068237304688 364.4093933105469 97.17308044433594 C 363.942138671875 95.85838317871094 363.3649597167969 94.51385498046875 362.29852294921875 93.61492919921875 C 361.26416015625 92.829833984375 360.0237121582031 92.36264038085938 358.7284240722656 92.27035522460938 C 354.8102111816406 91.8375244140625 350.8993835449219 93.14532470703125 348.0296936035156 95.84805297851562 L 349.8318176269531 97.64535522460938" stroke-width="0.6000000238418579" fill="rgb(70, 150, 179)" opacity="1.0"/>
    <path d="M 347.62591552734375 109.3299560546875 C 343.097412109375 107.0670166015625 337.98291015625 104.74885559082031 333.15643310546875 106.26565551757812 C 327.97271728515625 107.89816284179688 325.0000915527344 113.59423828125 324.6419982910156 119.01702880859375 C 324.5030212402344 121.1077880859375 324.6946716308594 123.30075073242188 325.7586975097656 125.1055908203125 C 326.6328125 126.58961486816406 328.0196838378906 127.69178771972656 329.4294128417969 128.6805419921875 C 333.8713073730469 131.8039093017578 339.2702941894531 134.2418670654297 344.6100769042969 133.261962890625 C 349.9910583496094 132.27064514160156 354.47906494140625 127.52781677246094 355.14117431640625 122.09164428710938 C 355.80328369140625 116.65545654296875 352.6430969238281 110.95077514648438 347.6612854003906 108.66786193847656 L 347.62591552734375 109.3299560546875" stroke-width="0.6000000238418579" fill="rgb(140, 28, 33)" opacity="1.0"/>
    <path d="M 362.0 102.0 C 361.0997619628906 102.67620849609375 360.17047119140625 103.3897705078125 359.63531494140625 104.38127136230469 C 359.10015869140625 105.37277221679688 359.07525634765625 106.73765563964844 359.8800964355469 107.52587890625 C 360.875732421875 108.49664306640625 362.69281005859375 108.081787109375 363.52667236328125 106.9658203125 C 364.36053466796875 105.849853515625 364.4020080566406 104.31903076171875 364.11163330078125 102.95831298828125 C 364.0639343261719 102.52809143066406 363.856689453125 102.13139343261719 363.53082275390625 101.84649658203125 C 363.1823425292969 101.60173034667969 362.572509765625 101.7137451171875 362.4853820800781 102.13275146484375 L 362.0 102.0" stroke-width="0.6000000238418579" fill="rgb(159, 159, 159)" opacity="1.0"/>
    <path d="M 354.58038330078125 107.80831909179688 C 349.89801025390625 107.74214172363281 345.09100341796875 109.27877807617188 341.7514953613281 112.55807495117188 C 338.4120178222656 115.83737182617188 336.7728271484375 120.95671081542969 338.194580078125 125.43667602539062 C 339.20379638671875 128.602783203125 341.62493896484375 131.20330810546875 344.5029602050781 132.87033081054688 C 347.3810119628906 134.537353515625 350.6885986328125 135.34222412109375 353.9968566894531 135.6905517578125 C 355.4366149902344 135.84127807617188 356.957763671875 135.89517211914062 358.25115966796875 135.2533416748047 C 359.734375 134.51815795898438 360.6456298828125 133.00689697265625 361.40899658203125 131.53233337402344 C 363.5640869140625 127.36932373046875 365.16326904296875 122.71746826171875 364.6309509277344 118.05941772460938 C 364.0986328125 113.4013671875 360.9754943847656 108.81147766113281 356.4293518066406 107.71394348144531 L 354.58038330078125 107.80831909179688" stroke-width="0.6000000238418579" fill="rgb(159, 159, 159)" opacity="1.0"/>
    <path d="M 367.5846862792969 102.415771484375 C 362.6929931640625 102.35708618164062 357.25311279296875 102.5037841796875 353.72564697265625 105.87954711914062 C 350.2905578613281 109.15766906738281 349.7989807128906 114.38790893554688 349.6081848144531 119.13446044921875 C 349.53350830078125 121.06278991699219 349.48614501953125 123.081298828125 350.33197021484375 124.81463623046875 C 351.7608337402344 127.74710083007812 355.26348876953125 128.993408203125 358.4880676269531 129.45376586914062 C 361.4808654785156 129.88221740722656 364.5196533203125 129.8787078857422 367.5114440917969 129.44334411621094 C 372.36956787109375 128.73822021484375 377.5742492675781 126.37002563476562 379.1692810058594 121.72923278808594 C 380.0340576171875 119.22508239746094 379.6792297363281 116.41580200195312 378.7096252441406 113.94598388671875 C 377.7400207519531 111.47615051269531 376.1869812011719 109.28294372558594 374.6229248046875 107.13961791992188 C 373.0588684082031 104.99630737304688 371.4761047363281 102.92376708984375 369.2249755859375 101.64276123046875 L 367.5846862792969 102.415771484375" stroke-width="0.6000000238418579" fill="rgb(218, 166, 20)" opacity="1.0"/>
    <path d="M 429.0 167.0 C 421.3271484375 166.2901611328125 414.53155517578125 171.93478393554688 413.8216552734375 179.607666015625 C 413.7608642578125 180.26470947265625 413.746826171875 180.92523193359375 413.779541015625 181.584228515625 C 413.9041748046875 184.08837890625 414.7833251953125 186.65487670898438 416.655517578125 188.32073974609375 C 418.237548828125 189.7286376953125 420.3526611328125 190.3648681640625 422.433349609375 190.75177001953125 C 428.0042724609375 191.77978515625 433.74884033203125 191.29733276367188 439.0703125 189.3546142578125 C 440.47607421875 188.8387451171875 441.884033203125 188.196044921875 442.91790771484375 187.1083984375 C 444.6546630859375 185.28350830078125 445.022216796875 182.49346923828125 444.56011962890625 180.01513671875 C 443.8765869140625 176.335205078125 441.5679931640625 173.0615234375 438.55224609375 170.84326171875 C 435.53656005859375 168.625 431.86309814453125 167.40411376953125 428.14453125 166.97421264648438 L 429.0 167.0" stroke-width="0.6000000238418579" fill="rgb(143, 165, 67)" opacity="1.0"/>
    <path d="M 131.99842834472656 407.4183044433594 C 123.6719970703125 408.7415771484375 119.9708251953125 420.95526123046875 125.68754577636719 427.0780029296875 C 131.40428161621094 433.20068359375 143.30287170410156 430.79754638671875 146.79391479492188 423.12054443359375 C 150.2849578857422 415.44354248046875 145.04592895507812 405.3576965332031 136.8859100341797 403.1967468261719 L 131.99842834472656 407.4183044433594" stroke-width="0.6000000238418579" fill="rgb(233, 92, 21)" opacity="1.0"/>
    <path d="M 429.0 173.0 C 424.61468505859375 172.28036499023438 419.30169677734375 171.87554931640625 416.563720703125 175.39508056640625 C 415.528564453125 176.83807373046875 414.96673583984375 178.56674194335938 414.95574951171875 180.34259033203125 C 414.810302734375 184.73577880859375 416.80316162109375 188.92694091796875 420.302490234375 191.58700561523438 C 423.276611328125 193.83587646484375 427.015380859375 194.684814453125 430.6473388671875 195.42135620117188 C 432.68817138671875 195.831787109375 434.86962890625 196.20281982421875 436.7867431640625 195.42135620117188 C 439.3336181640625 194.3587646484375 440.66046142578125 191.55889892578125 441.45318603515625 188.91644287109375 C 442.6181640625 185.0506591796875 443.1497802734375 181.02178955078125 443.02740478515625 176.98614501953125 C 442.982421875 175.59182739257812 442.84185791015625 174.13568115234375 442.0997314453125 172.95501708984375 C 441.353515625 171.89254760742188 440.31427001953125 171.07012939453125 439.1087646484375 170.58807373046875 C 435.50872802734375 168.98355102539062 431.3861083984375 169.0390625 427.83056640625 170.7398681640625 L 429.0 173.0" stroke-width="0.6000000238418579" fill="rgb(70, 150, 179)" opacity="1.0"/>
    <path d="M 423.6429443359375 166.8541259765625 C 419.12811279296875 164.5867919921875 414.028564453125 162.26324462890625 409.20892333984375 163.76739501953125 C 404.03253173828125 165.3863525390625 401.0546569824219 171.06494140625 400.6865539550781 176.47601318359375 C 400.5437316894531 178.562255859375 400.73065185546875 180.75115966796875 401.7889404296875 182.554443359375 C 402.6583251953125 184.03717041015625 404.0401916503906 185.13983154296875 405.44512939453125 186.12936401367188 C 409.8717956542969 189.25518798828125 415.2550048828125 191.69888305664062 420.5858154296875 190.73153686523438 C 425.9578857421875 189.75286865234375 430.4461669921875 185.028564453125 431.11767578125 179.604736328125 C 431.7891845703125 174.180908203125 428.646728515625 168.4815673828125 423.6795654296875 166.19342041015625 L 423.6429443359375 166.8541259765625" stroke-width="0.6000000238418579" fill="rgb(140, 28, 33)" opacity="1.0"/>
    <path d="M 147.0 115.0 C 146.09976196289062 115.67620849609375 145.1704864501953 116.3897705078125 144.63531494140625 117.38127136230469 C 144.10015869140625 118.37277221679688 144.0752716064453 119.73765563964844 144.8800811767578 120.52587890625 C 145.875732421875 121.49664306640625 147.69281005859375 121.081787109375 148.52667236328125 119.9658203125 C 149.36053466796875 118.849853515625 149.40200805664062 117.31903076171875 149.1116180419922 115.95831298828125 C 149.06393432617188 115.52809143066406 148.85670471191406 115.13139343261719 148.53082275390625 114.84649658203125 C 148.18234252929688 114.60173034667969 147.572509765625 114.7137451171875 147.48538208007812 115.13275146484375 L 147.0 115.0" stroke-width="0.6000000238418579" fill="rgb(159, 159, 159)" opacity="1.0"/>
    <path d="M 429.0 168.0 C 424.37017822265625 168.62005615234375 419.8519287109375 170.83990478515625 417.036865234375 174.564453125 C 414.2216796875 178.28900146484375 413.3536376953125 183.58023071289062 415.4122314453125 187.79254150390625 C 416.8714599609375 190.76885986328125 419.64111328125 192.98046875 422.72491455078125 194.20404052734375 C 425.8087158203125 195.42767333984375 429.190185546875 195.73770141601562 432.5054931640625 195.59716796875 C 433.9481201171875 195.53512573242188 435.45697021484375 195.36566162109375 436.6392822265625 194.54302978515625 C 437.9951171875 193.60052490234375 438.673095703125 191.9759521484375 439.21044921875 190.40924072265625 C 440.7275390625 185.986083984375 441.62457275390625 181.1619873046875 440.41748046875 176.64373779296875 C 439.21044921875 172.12548828125 435.45697021484375 168.05374145507812 430.81060791015625 167.63623046875 L 429.0 168.0" stroke-width="0.6000000238418579" fill="rgb(159, 159, 159)" opacity="1.0"/>
    <path d="M 423.65234375 176.76742553710938 C 419.1319580078125 174.88619995117188 414.0257568359375 172.990966796875 409.4896240234375 174.808349609375 C 405.0757141113281 176.569580078125 402.66607666015625 181.24267578125 400.71636962890625 185.5789794921875 C 399.9269104003906 187.34170532226562 399.1291198730469 189.1983642578125 399.26727294921875 191.123779296875 C 399.4989929199219 194.38040161132812 402.28607177734375 196.845703125 405.1084289550781 198.47735595703125 C 407.72747802734375 199.99285888671875 410.5505676269531 201.1243896484375 413.49127197265625 201.83737182617188 C 418.2657470703125 202.99679565429688 423.98309326171875 202.74136352539062 427.197265625 199.02764892578125 C 428.9354248046875 197.02529907226562 429.655029296875 194.28411865234375 429.677001953125 191.62863159179688 C 429.698974609375 188.97311401367188 429.0758056640625 186.3565673828125 428.42388916015625 183.7822265625 C 427.77191162109375 181.20794677734375 427.076171875 178.69235229492188 425.46417236328125 176.66217041015625 L 423.65234375 176.76742553710938" stroke-width="0.6000000238418579" fill="rgb(218, 166, 20)" opacity="1.0"/>
    <path d="M 435.3856201171875 171.17950439453125 C 427.8856201171875 172.98587036132812 423.27008056640625 180.5301513671875 425.07647705078125 188.03012084960938 C 425.23114013671875 188.67236328125 425.43121337890625 189.30279541015625 425.67510986328125 189.91668701171875 C 426.602294921875 192.249267578125 428.2645263671875 194.39715576171875 430.5767822265625 195.37078857421875 C 432.53076171875 196.19378662109375 434.74053955078125 196.11328125 436.837158203125 195.80767822265625 C 442.4481201171875 194.9818115234375 447.7357177734375 192.668701171875 452.1505126953125 189.1085205078125 C 453.31591796875 188.16549682617188 454.4423828125 187.10162353515625 455.0706787109375 185.7369384765625 C 456.12677001953125 183.44659423828125 455.5736083984375 180.68408203125 454.3349609375 178.4849853515625 C 452.49835205078125 175.21881103515625 449.253173828125 172.86264038085938 445.6788330078125 171.73504638671875 C 442.1044921875 170.607421875 438.22918701171875 170.63735961914062 434.566650390625 171.43145751953125 L 435.3856201171875 171.17950439453125" stroke-width="0.6000000238418579" fill="rgb(143, 165, 67)" opacity="1.0"/>
    <path d="M 141.2984161376953 112.52729797363281 C 129.97433471679688 115.49234008789062 126.5277099609375 132.87338256835938 135.26239013671875 140.5528106689453 C 143.99708557128906 148.232177734375 160.10943603515625 143.28744506835938 163.88504028320312 132.20347595214844 C 167.66064453125 121.11952209472656 159.04498291015625 107.89898681640625 147.47520446777344 106.02714538574219 L 141.2984161376953 112.52729797363281" stroke-width="0.6000000238418579" fill="rgb(233, 92, 21)" opacity="1.0"/>
    <path d="M 435.392333984375 155.8652801513672 C 429.3590087890625 157.0655517578125 422.27655029296875 159.125 420.43994140625 165.0179443359375 C 419.80029296875 167.39154052734375 419.91290283203125 169.9051513671875 420.7623291015625 172.21197509765625 C 422.7105712890625 177.97622680664062 427.331787109375 182.43862915039062 433.16064453125 184.18411254882812 C 438.10888671875 185.652099609375 443.3671875 184.93389892578125 448.432373046875 184.12191772460938 C 451.2769775390625 183.66119384765625 454.2845458984375 183.08111572265625 456.3890380859375 181.1358642578125 C 459.1729736328125 178.52001953125 459.53076171875 174.24609375 459.27288818359375 170.4359130859375 C 458.9024658203125 164.85928344726562 457.6319580078125 159.37939453125 455.51043701171875 154.20872497558594 C 454.7740478515625 152.423583984375 453.88360595703125 150.60479736328125 452.3475341796875 149.4356231689453 C 450.86376953125 148.42160034179688 449.11688232421875 147.8612060546875 447.320068359375 147.82281494140625 C 441.87408447265625 147.4943389892578 436.55816650390625 149.57138061523438 432.77752685546875 153.5049591064453 L 435.392333984375 155.8652801513672" stroke-width="0.6000000238418579" fill="rgb(70, 150, 179)" opacity="1.0"/>
    <path d="M 376.4593505859375 95.6636962890625 C 370.1484375 92.67984008789062 363.02801513671875 89.63742065429688 356.4197082519531 91.873291015625 C 349.3223571777344 94.27935791015625 345.3951416015625 102.22116088867188 345.0641174316406 109.70780944824219 C 344.93524169921875 112.59429931640625 345.2652282714844 115.61180114746094 346.7862243652344 118.06805419921875 C 348.03582763671875 120.08770751953125 349.9808349609375 121.56558227539062 351.9539489746094 122.88638305664062 C 358.1712646484375 127.05905151367188 365.6875 130.2581024169922 373.01953125 128.74700927734375 C 380.4080505371094 127.21896362304688 386.4530334472656 120.54585266113281 387.2027282714844 113.03163146972656 C 387.95245361328125 105.51742553710938 383.4246826171875 97.74769592285156 376.4882507324219 94.7498779296875 L 376.4593505859375 95.6636962890625" stroke-width="0.6000000238418579" fill="rgb(140, 28, 33)" opacity="1.0"/>
    <path d="M 132.0 407.0 C 130.75296020507812 407.93670654296875 129.46566772460938 408.9251708984375 128.7243194580078 410.29864501953125 C 127.98300170898438 411.672119140625 127.94851684570312 413.5628662109375 129.0634002685547 414.65472412109375 C 130.44261169433594 415.99945068359375 132.95970153808594 415.4248046875 134.1148223876953 413.87890625 C 135.26992797851562 412.3330078125 135.32737731933594 410.2124328613281 134.92510986328125 408.3275146484375 C 134.8590545654297 407.7315368652344 134.57199096679688 407.1820068359375 134.12057495117188 406.787353515625 C 133.63783264160156 406.44830322265625 132.79306030273438 406.6034851074219 132.67236328125 407.18389892578125 L 132.0 407.0" stroke-width="0.6000000238418579" fill="rgb(159, 159, 159)" opacity="1.0"/>
    <path d="M 422.68475341796875 194.05572509765625 C 416.37689208984375 192.60919189453125 409.43603515625 193.29229736328125 403.97308349609375 196.75555419921875 C 398.5101318359375 200.21881103515625 394.8114013671875 206.66119384765625 395.43408203125 213.1268310546875 C 395.880126953125 217.697509765625 398.3979797363281 221.9132080078125 401.80377197265625 224.99993896484375 C 405.20953369140625 228.086669921875 409.44561767578125 230.1329345703125 413.81494140625 231.56243896484375 C 415.71673583984375 232.18341064453125 417.756591796875 232.6971435546875 419.6903076171875 232.2047119140625 C 421.9075927734375 231.6412353515625 423.576904296875 229.86322021484375 425.03582763671875 228.09197998046875 C 429.15447998046875 223.09133911132812 432.6636962890625 217.26901245117188 433.29443359375 210.820556640625 C 433.9251708984375 204.3720703125 431.035400390625 197.2647705078125 425.2105712890625 194.464111328125 L 422.68475341796875 194.05572509765625" stroke-width="0.6000000238418579" fill="rgb(159, 159, 159)" opacity="1.0"/>
    <path d="M 387.5213623046875 105.53050231933594 C 380.7527770996094 105.77415466308594 373.2397155761719 106.33819580078125 368.58575439453125 111.24072265625 C 364.05303955078125 116.0020751953125 363.72052001953125 123.26760864257812 363.77178955078125 129.84423828125 C 363.7965393066406 132.51588439941406 363.86505126953125 135.3104248046875 365.14984130859375 137.65127563476562 C 367.32049560546875 141.61167907714844 372.2470397949219 143.10264587402344 376.73687744140625 143.52517700195312 C 380.9040222167969 143.91897583007812 385.10614013671875 143.7123565673828 389.2145690917969 142.9116668701172 C 395.8860168457031 141.61398315429688 402.92633056640625 137.99346923828125 404.823974609375 131.46983337402344 C 405.8536071777344 127.949462890625 405.1763916015625 124.08807373046875 403.6715393066406 120.7369384765625 C 402.16668701171875 117.38580322265625 399.8733825683594 114.4559326171875 397.5681457519531 111.59579467773438 C 395.2629089355469 108.73565673828125 392.9365234375 105.97467041015625 389.7383728027344 104.35263061523438 L 387.5213623046875 105.53050231933594" stroke-width="0.6000000238418579" fill="rgb(218, 166, 20)" opacity="1.0"/>
    <path d="M 393.8556213378906 95.90962219238281 C 384.0739440917969 91.68389892578125 372.7187194824219 96.1878662109375 368.49298095703125 105.96954345703125 C 368.131103515625 106.80714416503906 367.82916259765625 107.66935729980469 367.5893249511719 108.54971313476562 C 366.6786193847656 111.89498901367188 366.73297119140625 115.64599609375 368.47918701171875 118.63920593261719 C 369.9546203613281 121.16883850097656 372.46197509765625 122.91282653808594 375.0310974121094 124.31430053710938 C 381.9131774902344 128.0562286376953 389.6716613769531 129.88717651367188 397.5006103515625 129.61697387695312 C 399.56988525390625 129.5420684814453 401.6964416503906 129.3013916015625 403.52227783203125 128.3153076171875 C 406.58843994140625 126.66169738769531 408.26885986328125 123.15182495117188 408.7248840332031 119.69564819335938 C 409.4054870605469 114.56494140625 407.7756042480469 109.27093505859375 404.7632141113281 105.06083679199219 C 401.7508544921875 100.85073852539062 397.44586181640625 97.66944885253906 392.7420959472656 95.50860595703125 L 393.8556213378906 95.90962219238281" stroke-width="0.6000000238418579" fill="rgb(143, 165, 67)" opacity="1.0"/>
    <path d="M 126.76966857910156 411.2664489746094 C 115.45114135742188 408.32110595703125 103.95932006835938 421.7882080078125 107.82284545898438 432.747314453125 C 111.6864013671875 443.7064208984375 128.14532470703125 447.26434326171875 136.84890747070312 439.44677734375 C 145.55247497558594 431.629150390625 144.49855041503906 415.8983154296875 135.3278350830078 408.61688232421875 L 126.76966857910156 411.2664489746094" stroke-width="0.6000000238418579" fill="rgb(233, 92, 21)" opacity="1.0"/>
    <path d="M 432.3975830078125 202.24124145507812 C 426.364501953125 203.44302368164062 419.282470703125 205.5042724609375 417.44732666015625 211.39773559570312 C 416.8082275390625 213.771484375 416.9215087890625 216.28509521484375 417.7716064453125 218.59173583984375 C 419.72119140625 224.35552978515625 424.3436279296875 228.81683349609375 430.1729736328125 230.56085205078125 C 435.12158203125 232.02764892578125 440.3797607421875 231.30810546875 445.44482421875 230.494873046875 C 448.289306640625 230.03341674804688 451.2967529296875 229.45257568359375 453.4007568359375 227.50677490234375 C 456.18408203125 224.89019775390625 456.540771484375 220.61614990234375 456.281982421875 216.8060302734375 C 455.91015625 211.22943115234375 454.63824462890625 205.74981689453125 452.5155029296875 200.57965087890625 C 451.778564453125 198.794677734375 450.8876953125 196.97607421875 449.351318359375 195.80731201171875 C 447.86724853515625 194.79364013671875 446.1202392578125 194.23367309570312 444.3233642578125 194.19573974609375 C 438.8773193359375 193.86859130859375 433.5618896484375 195.947021484375 429.78216552734375 199.88153076171875 L 432.3975830078125 202.24124145507812" stroke-width="0.6000000238418579" fill="rgb(70, 150, 179)" opacity="1.0"/>
    <path d="M 424.619140625 139.38836669921875 C 418.39263916015625 136.21890258789062 411.3580017089844 132.96722412109375 404.6815490722656 135.0110626220703 C 397.5108642578125 137.2108917236328 393.3500061035156 145.04141235351562 392.8002014160156 152.52162170410156 C 392.5870056152344 155.4055938720703 392.8289794921875 158.43402099609375 394.2789001464844 160.93576049804688 C 395.47003173828125 162.9927978515625 397.3727111816406 164.528076171875 399.3081359863281 165.9071044921875 C 405.40625 170.26312255859375 412.832275390625 173.68304443359375 420.21160888671875 172.38546752929688 C 427.64794921875 171.07254028320312 433.890380859375 164.57308959960938 434.85986328125 157.0775146484375 C 435.829345703125 149.58197021484375 431.526611328125 141.6766815185547 424.6746826171875 138.47499084472656 L 424.619140625 139.38836669921875" stroke-width="0.6000000238418579" fill="rgb(140, 28, 33)" opacity="1.0"/>
    <path d="M 402.5729675292969 95.61134338378906 C 401.731689453125 96.92610168457031 400.87078857421875 98.303466796875 400.65655517578125 99.8507080078125 C 400.4422912597656 101.39791870117188 401.07183837890625 103.18264770507812 402.49932861328125 103.81607055664062 C 404.2631530761719 104.59405517578125 406.4219055175781 103.17413330078125 406.9637451171875 101.32040405273438 C 407.5055847167969 99.46669006347656 406.817138671875 97.45841979980469 405.7801513671875 95.83200073242188 C 405.50958251953125 95.29637145996094 405.0480651855469 94.88165283203125 404.4866943359375 94.66964721679688 C 403.9154052734375 94.520751953125 403.1777038574219 94.96195983886719 403.2677307128906 95.54837036132812 L 402.5729675292969 95.61134338378906" stroke-width="0.6000000238418579" fill="rgb(159, 159, 159)" opacity="1.0"/>
    <path d="M 431.1650390625 221.97610473632812 C 425.4124755859375 224.95022583007812 420.5535888671875 229.9600830078125 418.62109375 236.13739013671875 C 416.6885986328125 242.314697265625 418.02972412109375 249.6263427734375 422.6861572265625 254.16134643554688 C 425.9822998046875 257.3634948730469 430.631103515625 258.954833984375 435.22802734375 259.1098327636719 C 439.824951171875 259.26483154296875 444.383056640625 258.0883483886719 448.64422607421875 256.3547058105469 C 450.4981689453125 255.59918212890625 452.3880615234375 254.6724853515625 453.54644775390625 253.04605102539062 C 454.8753662109375 251.18194580078125 455.00048828125 248.74468994140625 454.96923828125 246.44866943359375 C 454.881103515625 239.96652221679688 453.79608154296875 233.2509765625 450.1080322265625 227.9185791015625 C 446.41998291015625 222.58612060546875 439.6173095703125 219.02703857421875 433.3580322265625 220.65472412109375 L 431.1650390625 221.97610473632812" stroke-width="0.6000000238418579" fill="rgb(159, 159, 159)" opacity="1.0"/>
    <path d="M 418.72259521484375 253.71710205078125 C 412.439453125 251.15740966796875 405.3446044921875 248.58438110351562 399.0780944824219 251.14971923828125 C 392.9803771972656 253.63592529296875 389.6900939941406 260.1361083984375 387.0335693359375 266.164794921875 C 385.9580078125 268.615478515625 384.87188720703125 271.1963806152344 385.0832824707031 273.8628234863281 C 385.4382019042969 278.3728332519531 389.32562255859375 281.7598876953125 393.2532958984375 283.9914245605469 C 396.89801025390625 286.0640869140625 400.8215026855469 287.6026306152344 404.9035949707031 288.55999755859375 C 411.5312194824219 290.116943359375 419.45062255859375 289.70361328125 423.86566162109375 284.52447509765625 C 426.2532958984375 281.7319030761719 427.221923828125 277.9262390136719 427.2247314453125 274.2464599609375 C 427.22760009765625 270.56671142578125 426.3370361328125 266.9476623535156 425.40692138671875 263.3874206542969 C 424.476806640625 259.8271484375 423.48663330078125 256.3487854003906 421.23193359375 253.55245971679688 L 418.72259521484375 253.71710205078125" stroke-width="0.6000000238418579" fill="rgb(218, 166, 20)" opacity="1.0"/>
    <path d="M 414.196044921875 97.61207580566406 C 403.87591552734375 100.26495361328125 397.6603698730469 110.78167724609375 400.3132629394531 121.10183715820312 C 400.5404052734375 121.98553466796875 400.8299865722656 122.85202026367188 401.1797790527344 123.69476318359375 C 402.5094909667969 126.89675903320312 404.85052490234375 129.8281707763672 408.06451416015625 131.12411499023438 C 410.78045654296875 132.2195281982422 413.8306884765625 132.06179809570312 416.71990966796875 131.5955047607422 C 424.451904296875 130.336669921875 431.70574951171875 127.03053283691406 437.72802734375 122.0205078125 C 439.317626953125 120.69354248046875 440.8509521484375 119.20045471191406 441.68994140625 117.302490234375 C 443.10028076171875 114.11698913574219 442.278076171875 110.31333923339844 440.52105712890625 107.30226135253906 C 437.9156494140625 102.83009338378906 433.384033203125 99.64437866210938 428.4237060546875 98.16236877441406 C 423.4635009765625 96.68035888671875 418.11187744140625 96.80340576171875 413.07025146484375 97.97732543945312 L 414.196044921875 97.61207580566406" stroke-width="0.6000000238418579" fill="rgb(143, 165, 67)" opacity="1.0"/>
    <path d="M 431.3924560546875 122.18283081054688 C 420.87939453125 127.23760986328125 420.81463623046875 144.8953094482422 430.81982421875 150.74549865722656 C 440.82501220703125 156.59564208984375 455.645263671875 148.6934051513672 457.2298583984375 137.13287353515625 C 458.81439208984375 125.57232666015625 447.8714599609375 114.27923583984375 436.1978759765625 114.64932250976562 L 431.3924560546875 122.18283081054688" stroke-width="0.6000000238418579" fill="rgb(233, 92, 21)" opacity="1.0"/>
    <path d="M 429.3740234375 107.83143615722656 C 423.34033203125 109.01190185546875 416.25543212890625 111.04779052734375 414.40118408203125 116.9315185546875 C 413.75439453125 119.30171203613281 413.8590087890625 121.81422424316406 414.70068359375 124.12240600585938 C 416.6295166015625 129.88951110839844 421.2340087890625 134.36398315429688 427.053955078125 136.1269073486328 C 431.9947509765625 137.6096954345703 437.2523193359375 136.90853881835938 442.317138671875 136.1130828857422 C 445.1614990234375 135.66162109375 448.169189453125 135.09136962890625 450.2786865234375 133.15391540527344 C 453.0692138671875 130.5483856201172 453.4403076171875 126.27804565429688 453.1947021484375 122.46926879882812 C 452.8421630859375 116.89466857910156 451.58966064453125 111.41387939453125 449.48577880859375 106.239501953125 C 448.75537109375 104.45306396484375 447.87127685546875 102.63249206542969 446.33984375 101.45913696289062 C 444.86004638671875 100.44099426269531 443.115966796875 99.87539672851562 441.3203125 99.83135986328125 C 435.8785400390625 99.48580932617188 430.55908203125 101.54486083984375 426.7681884765625 105.46420288085938 L 429.3740234375 107.83143615722656" stroke-width="0.6000000238418579" fill="rgb(70, 150, 179)" opacity="1.0"/>
    <path d="M 312.0 391.0 C 305.06475830078125 390.2115173339844 297.344482421875 389.62872314453125 291.8113708496094 393.8762512207031 C 285.87030029296875 398.442626953125 284.71502685546875 407.22564697265625 286.81646728515625 414.41796875 C 287.62554931640625 417.19140625 288.9111328125 419.9407958984375 291.14288330078125 421.77490234375 C 292.9769287109375 423.2833251953125 295.29443359375 424.0546875 297.5878601074219 424.6683349609375 C 304.81793212890625 426.612060546875 312.9633483886719 427.2154541015625 319.4151916503906 423.42041015625 C 325.9150390625 419.5911865234375 329.48382568359375 411.3257751464844 327.76971435546875 403.9722900390625 C 326.0556335449219 396.61883544921875 319.26434326171875 390.7257385253906 311.73260498046875 390.1258239746094 L 312.0 391.0" stroke-width="0.6000000238418579" fill="rgb(140, 28, 33)" opacity="1.0"/>
    <path d="M 311.0 391.0 C 309.4591369628906 392.15740966796875 307.8685607910156 393.37872314453125 306.9525451660156 395.0758361816406 C 306.03656005859375 396.77288818359375 305.99395751953125 399.10906982421875 307.37152099609375 400.45819091796875 C 309.07568359375 402.1197814941406 312.1858215332031 401.4096984863281 313.6130676269531 399.4996032714844 C 315.04034423828125 397.5894775390625 315.111328125 394.96929931640625 314.6142883300781 392.6402587890625 C 314.53265380859375 391.9039001464844 314.1779479980469 391.2248840332031 313.62017822265625 390.73724365234375 C 313.0237121582031 390.31829833984375 311.97991943359375 390.5100402832031 311.8307800292969 391.2272033691406 L 311.0 391.0" stroke-width="0.6000000238418579" fill="rgb(159, 159, 159)" opacity="1.0"/>
    <path d="M 322.6325988769531 391.9979553222656 C 314.6587219238281 392.1945495605469 306.5785217285156 395.12744140625 301.1112365722656 400.9294738769531 C 295.6439514160156 406.7314758300781 293.1921081542969 415.552978515625 295.9078674316406 423.0841064453125 C 297.8346862792969 428.40625 302.1272888183594 432.6724853515625 307.1358642578125 435.3197021484375 C 312.1445007324219 437.9669189453125 317.82720947265625 439.118408203125 323.48095703125 439.49273681640625 C 325.9414367675781 439.6541748046875 328.5340270996094 439.64544677734375 330.6930236816406 438.46759033203125 C 333.1689147949219 437.118408203125 334.6200866699219 434.4859619140625 335.8219909667969 431.92578125 C 339.2150573730469 424.6978759765625 341.6296691894531 416.6746826171875 340.4159851074219 408.7817687988281 C 339.2023010253906 400.8888244628906 333.58349609375 393.282958984375 325.77337646484375 391.7151794433594 L 322.6325988769531 391.9979553222656" stroke-width="0.6000000238418579" fill="rgb(159, 159, 159)" opacity="1.0"/>
    <path d="M 269.0320129394531 394.8856201171875 C 260.7655334472656 396.0841064453125 251.62887573242188 397.77435302734375 246.57440185546875 404.4039001464844 C 241.64984130859375 410.8442687988281 242.20794677734375 419.796630859375 243.14501953125 427.853271484375 C 243.530517578125 431.1256103515625 243.9859619140625 434.5428466796875 245.87240600585938 437.2421875 C 249.06027221679688 441.8094482421875 255.298828125 442.98260498046875 260.85986328125 442.90380859375 C 266.0215148925781 442.832763671875 271.14617919921875 442.02081298828125 276.0770263671875 440.49298095703125 C 284.08428955078125 438.01513671875 292.2350158691406 432.64019775390625 293.69451904296875 424.389404296875 C 294.4889831542969 419.936279296875 293.1453552246094 415.2918701171875 290.8548583984375 411.3831787109375 C 288.5643005371094 407.4744567871094 285.3630676269531 404.18701171875 282.15643310546875 400.9866943359375 C 278.9498596191406 397.7863464355469 275.73046875 394.7103576660156 271.59368896484375 393.146728515625 L 269.0320129394531 394.8856201171875" stroke-width="0.6000000238418579" fill="rgb(218, 166, 20)" opacity="1.0"/>
    <path d="M 232.27703857421875 397.8030090332031 C 219.12652587890625 397.3038024902344 208.06124877929688 407.5596923828125 207.56201171875 420.710205078125 C 207.519287109375 421.8363037109375 207.55645751953125 422.9639892578125 207.67330932617188 424.0848388671875 C 208.1180419921875 428.3436279296875 209.85519409179688 432.6387939453125 213.20233154296875 435.3060302734375 C 216.03070068359375 437.560302734375 219.69659423828125 438.44921875 223.28070068359375 438.9161376953125 C 232.876220703125 440.1527099609375 242.62786865234375 438.7974853515625 251.5225830078125 434.9912109375 C 253.87200927734375 433.9810791015625 256.21337890625 432.75457763671875 257.87567138671875 430.803955078125 C 260.6682434082031 427.5308837890625 261.0364074707031 422.73895263671875 260.0185546875 418.555419921875 C 258.51177978515625 412.3433837890625 254.271484375 406.9747314453125 248.92303466796875 403.4714660644531 C 243.57464599609375 399.96820068359375 237.197021484375 398.2267150878906 230.81576538085938 397.8383483886719 L 232.27703857421875 397.8030090332031" stroke-width="0.6000000238418579" fill="rgb(143, 165, 67)" opacity="1.0"/>
    <path d="M 290.6294860839844 386.61590576171875 C 277.6835632324219 392.86279296875 277.63427734375 414.62158203125 289.9732360839844 421.81317138671875 C 302.3122253417969 429.0047607421875 320.560791015625 419.2415771484375 322.493408203125 404.993408203125 C 324.426025390625 390.7452087402344 310.92205810546875 376.8482360839844 296.5379638671875 377.3244323730469 L 290.6294860839844 386.61590576171875" stroke-width="0.6000000238418579" fill="rgb(233, 92, 21)" opacity="1.0"/>
    <path d="M 331.6244201660156 384.6341857910156 C 324.1839599609375 386.0902099609375 315.44720458984375 388.60113525390625 313.160888671875 395.8568420410156 C 312.3634033203125 398.77972412109375 312.4925537109375 401.8780517578125 313.5306091308594 404.7243957519531 C 315.9094543457031 411.83612060546875 321.5877380371094 417.3536376953125 328.7648010253906 419.52734375 C 334.857666015625 421.35565185546875 341.3410949707031 420.49072265625 347.5868225097656 419.50958251953125 C 351.09442138671875 418.95269775390625 354.8033447265625 418.2493896484375 357.40460205078125 415.86004638671875 C 360.845703125 412.6468505859375 361.30316162109375 407.38079833984375 361.00006103515625 402.6839599609375 C 360.5650634765625 395.8095397949219 359.0202331542969 389.0508728027344 356.425537109375 382.6700744628906 C 355.5247802734375 380.4671325683594 354.4344482421875 378.22210693359375 352.54583740234375 376.7752685546875 C 350.7209777832031 375.519775390625 348.5701904296875 374.8223876953125 346.3558349609375 374.7681579589844 C 339.6451721191406 374.3423156738281 333.0855407714844 376.8817138671875 328.4108581542969 381.7151184082031 L 331.6244201660156 384.6341857910156" stroke-width="0.6000000238418579" fill="rgb(70, 150, 179)" opacity="1.0"/>
    <path d="M 296.7517395019531 394.3144836425781 C 288.1365051269531 394.31024169921875 278.5870056152344 394.6672668457031 272.3905334472656 400.64483642578125 C 265.7380065917969 407.070068359375 265.5404357910156 418.00250244140625 269.1163024902344 426.5318603515625 C 270.49359130859375 429.821044921875 272.4519958496094 433.01458740234375 275.44378662109375 434.95416259765625 C 277.902587890625 436.549560546875 280.8519592285156 437.173828125 283.7499694824219 437.6080322265625 C 292.88720703125 438.98828125 302.9609680175781 438.59747314453125 310.3470458984375 433.04736328125 C 317.7872314453125 427.44854736328125 321.0166931152344 416.81591796875 317.8935546875 408.0351867675781 C 314.7704162597656 399.2544250488281 305.62310791015625 392.9696044921875 296.30242919921875 393.2794494628906 L 296.7517395019531 394.3144836425781" stroke-width="0.6000000238418579" fill="rgb(140, 28, 33)" opacity="1.0"/>
    <path d="M 338.0 390.0 C 336.4591369628906 391.15740966796875 334.8685607910156 392.37872314453125 333.9525451660156 394.0758361816406 C 333.03656005859375 395.77288818359375 332.99395751953125 398.10906982421875 334.37152099609375 399.45819091796875 C 336.07568359375 401.1197814941406 339.1858215332031 400.4096984863281 340.6130676269531 398.4996032714844 C 342.04034423828125 396.5894775390625 342.111328125 393.96929931640625 341.6142883300781 391.6402587890625 C 341.53265380859375 390.9039001464844 341.1779479980469 390.2248840332031 340.62017822265625 389.73724365234375 C 340.0237121582031 389.31829833984375 338.97991943359375 389.5100402832031 338.8307800292969 390.2272033691406 L 338.0 390.0" stroke-width="0.6000000238418579" fill="rgb(159, 159, 159)" opacity="1.0"/>
    <path d="M 346.1775207519531 389.0809326171875 C 338.2730407714844 390.1319580078125 330.5564880371094 393.9140930175781 325.744873046875 400.26763916015625 C 320.9332580566406 406.62115478515625 319.4428405761719 415.65228271484375 322.95025634765625 422.84637451171875 C 325.43646240234375 427.9295654296875 330.1608581542969 431.7093505859375 335.42315673828125 433.8031005859375 C 340.68548583984375 435.8968505859375 346.45733642578125 436.43157958984375 352.1170349121094 436.197021484375 C 354.5799255371094 436.093505859375 357.1558532714844 435.806640625 359.1754150390625 434.4041748046875 C 361.49151611328125 432.7974853515625 362.6514587402344 430.0252685546875 363.57135009765625 427.3516845703125 C 366.1683044433594 419.803466796875 367.7073669433594 411.5697937011719 365.6541442871094 403.8548889160156 C 363.6008605957031 396.1399841308594 357.1999816894531 389.18310546875 349.2689514160156 388.4628601074219 L 346.1775207519531 389.0809326171875" stroke-width="0.6000000238418579" fill="rgb(159, 159, 159)" opacity="1.0"/>
    <path d="M 264.0272216796875 389.28253173828125 C 256.21337890625 386.36090087890625 247.4013671875 383.45184326171875 239.791015625 386.8286437988281 C 232.38528442382812 390.1021423339844 228.57345581054688 398.2088928222656 225.52374267578125 405.7134704589844 C 224.289306640625 408.7639465332031 223.04656982421875 411.974853515625 223.401611328125 415.24456787109375 C 223.99893188476562 420.7750244140625 228.8978271484375 424.799072265625 233.80490112304688 427.4014892578125 C 238.35858154296875 429.81878662109375 243.23577880859375 431.56964111328125 248.28717041015625 432.60052490234375 C 256.48858642578125 434.27734375 266.20733642578125 433.486572265625 271.4487609863281 426.9632568359375 C 274.2835693359375 423.44573974609375 275.338134765625 418.73370361328125 275.2102355957031 414.2109375 C 275.0823059082031 409.6881408691406 273.8584899902344 405.2718811035156 272.588134765625 400.9292907714844 C 271.3178405761719 396.5867004394531 269.9765625 392.34686279296875 267.10552978515625 388.99053955078125 L 264.0272216796875 389.28253173828125" stroke-width="0.6000000238418579" fill="rgb(218, 166, 20)" opacity="1.0"/>
    <path d="M 267.0 393.0 C 253.91357421875 391.789306640625 242.32345581054688 401.41650390625 241.11273193359375 414.5029296875 C 241.00906372070312 415.62353515625 240.98504638671875 416.75006103515625 241.040771484375 417.8740234375 C 241.25341796875 422.14501953125 242.7528076171875 426.522216796875 245.94595336914062 429.3634033203125 C 248.64413452148438 431.7646484375 252.25152587890625 432.84979248046875 255.80023193359375 433.5096435546875 C 265.3017272949219 435.262939453125 275.099365234375 434.440185546875 284.1753845214844 431.12677001953125 C 286.57293701171875 430.2469482421875 288.9742126464844 429.1507568359375 290.7375793457031 427.2957763671875 C 293.69970703125 424.18328857421875 294.32659912109375 419.4248046875 293.5384216308594 415.1978759765625 C 292.37261962890625 408.9216003417969 288.435302734375 403.3382263183594 283.2918395996094 399.55487060546875 C 278.1484069824219 395.77154541015625 271.8831481933594 393.689208984375 265.5409240722656 392.9560241699219 L 267.0 393.0" stroke-width="0.6000000238418579" fill="rgb(143, 165, 67)" opacity="1.0"/>
    <path d="M 220.68844604492188 388.6045227050781 C 207.69442749023438 394.7552490234375 207.482421875 416.5159912109375 219.7689208984375 423.8006591796875 C 232.05545043945312 431.085205078125 250.37893676757812 421.45751953125 252.4183349609375 407.2222900390625 C 254.45770263671875 392.9870300292969 241.05624389648438 378.987548828125 226.66705322265625 379.35626220703125 L 220.68844604492188 388.6045227050781" stroke-width="0.6000000238418579" fill="rgb(233, 92, 21)" opacity="1.0"/>
    <path d="M 266.6229553222656 387.6148681640625 C 259.1439514160156 388.85443115234375 250.33865356445312 391.11077880859375 247.84310913085938 398.2966613769531 C 246.96124267578125 401.1949768066406 247.00048828125 404.2955322265625 247.95550537109375 407.1705627441406 C 250.12698364257812 414.3477783203125 255.64248657226562 420.0272216796875 262.7530212402344 422.407958984375 C 268.78985595703125 424.4119873046875 275.295166015625 423.73553466796875 281.5662841796875 422.9359130859375 C 285.0882873535156 422.4810791015625 288.8157958984375 421.8856201171875 291.48504638671875 419.5728759765625 C 295.01763916015625 416.4610595703125 295.6275329589844 411.2108459472656 295.4607849121094 406.50750732421875 C 295.2253112792969 399.6238708496094 293.87725830078125 392.82373046875 291.4688415527344 386.370849609375 C 290.63238525390625 384.14288330078125 289.607666015625 381.8673400878906 287.7619323730469 380.3664245605469 C 285.9743957519531 379.05865478515625 283.84490966796875 378.29925537109375 281.6331787109375 378.18084716796875 C 274.9382019042969 377.5606384277344 268.3081359863281 379.9085693359375 263.49560546875 384.6040344238281 L 266.6229553222656 387.6148681640625" stroke-width="0.6000000238418579" fill="rgb(70, 150, 179)" opacity="1.0"/>
    <path d="M 339.8901672363281 383.7807922363281 C 332.17425537109375 379.9613342285156 323.46142578125 376.0517578125 315.2630310058594 378.6622314453125 C 306.45782470703125 381.4717712402344 301.43890380859375 391.1778259277344 300.8646545410156 400.40240478515625 C 300.6417541503906 403.95892333984375 300.9817199707031 407.68719482421875 302.80279541015625 410.749755859375 C 304.29888916015625 413.2679443359375 306.6645202636719 415.13348388671875 309.0683288574219 416.80596923828125 C 316.6424255371094 422.0892333984375 325.83984375 426.2008056640625 334.91461181640625 424.50006103515625 C 344.0594177246094 422.7796630859375 351.66162109375 414.68505859375 352.7527770996094 405.435791015625 C 353.84393310546875 396.1864929199219 348.4330139160156 386.5050964355469 339.9460754394531 382.6545715332031 L 339.8901672363281 383.7807922363281" stroke-width="0.6000000238418579" fill="rgb(140, 28, 33)" opacity="1.0"/>
    <path d="M 353.0 389.0 C 351.4591369628906 390.15740966796875 349.8685607910156 391.37872314453125 348.9525451660156 393.0758361816406 C 348.03656005859375 394.77288818359375 347.99395751953125 397.10906982421875 349.37152099609375 398.45819091796875 C 351.07568359375 400.1197814941406 354.1858215332031 399.4096984863281 355.6130676269531 397.4996032714844 C 357.04034423828125 395.5894775390625 357.111328125 392.96929931640625 356.6142883300781 390.6402587890625 C 356.53265380859375 389.9039001464844 356.1779479980469 389.2248840332031 355.62017822265625 388.73724365234375 C 355.0237121582031 388.31829833984375 353.97991943359375 388.5100402832031 353.8307800292969 389.2272033691406 L 353.0 389.0" stroke-width="0.6000000238418579" fill="rgb(159, 159, 159)" opacity="1.0"/>
    <path d="M 191.233154296875 393.4125061035156 C 183.24905395507812 393.6621398925781 175.17657470703125 396.6527404785156 169.73974609375 402.49932861328125 C 164.30291748046875 408.34588623046875 161.9058837890625 417.1964111328125 164.67538452148438 424.720458984375 C 166.64019775390625 430.0374755859375 170.96722412109375 434.28155517578125 176.0006103515625 436.8994140625 C 181.03396606445312 439.51739501953125 186.7325439453125 440.6329345703125 192.39694213867188 440.970458984375 C 194.862060546875 441.1158447265625 197.45831298828125 441.0899658203125 199.6126708984375 439.8961181640625 C 202.08319091796875 438.52850341796875 203.51907348632812 435.8826904296875 204.70574951171875 433.3109130859375 C 208.055908203125 426.05010986328125 210.42095947265625 417.999267578125 209.1533203125 410.10296630859375 C 207.88565063476562 402.20660400390625 202.20840454101562 394.6269226074219 194.37661743164062 393.1085510253906 L 191.233154296875 393.4125061035156" stroke-width="0.6000000238418579" fill="rgb(159, 159, 159)" opacity="1.0"/>
    <path d="M 363.41998291015625 383.83026123046875 C 355.1124572753906 384.59130859375 345.9112548828125 385.797119140625 340.52191162109375 392.1435546875 C 335.2720947265625 398.3081359863281 335.3583984375 407.2660217285156 335.8697814941406 415.3505859375 C 336.08233642578125 418.634521484375 336.3570861816406 422.066650390625 338.0967102050781 424.85784912109375 C 341.03619384765625 429.5804443359375 347.1965637207031 431.0782470703125 352.74700927734375 431.2918701171875 C 357.898681640625 431.4920654296875 363.05242919921875 430.9515380859375 368.05047607421875 429.686767578125 C 376.1666259765625 427.6361083984375 384.578125 422.70361328125 386.4671630859375 414.5513916015625 C 387.49346923828125 410.15179443359375 386.39739990234375 405.44915771484375 384.3182678222656 401.4304504394531 C 382.2391357421875 397.4117736816406 379.2190856933594 393.96490478515625 376.1891174316406 390.6046142578125 C 373.1591491699219 387.2442932128906 370.1098937988281 384.0073547363281 366.0661926269531 382.2305603027344 L 363.41998291015625 383.83026123046875" stroke-width="0.6000000238418579" fill="rgb(218, 166, 20)" opacity="1.0"/>
    <path d="M 365.0 389.0 C 351.91357421875 387.789306640625 340.3234558105469 397.41650390625 339.1127624511719 410.5029296875 C 339.0090637207031 411.6235046386719 338.98504638671875 412.75006103515625 339.040771484375 413.8740234375 C 339.25341796875 418.14501953125 340.7528381347656 422.522216796875 343.9459533691406 425.3634033203125 C 346.6441345214844 427.7646484375 350.25152587890625 428.84979248046875 353.8002624511719 429.5096435546875 C 363.3017272949219 431.262939453125 373.099365234375 430.440185546875 382.1753845214844 427.12677001953125 C 384.57293701171875 426.2469482421875 386.9742126464844 425.1507568359375 388.7375793457031 423.2957763671875 C 391.69970703125 420.18328857421875 392.32659912109375 415.4248046875 391.5384216308594 411.1978454589844 C 390.37261962890625 404.9216003417969 386.435302734375 399.3382263183594 381.2918395996094 395.55487060546875 C 376.1484069824219 391.77154541015625 369.8831481933594 389.689208984375 363.5409240722656 388.9560241699219 L 365.0 389.0" stroke-width="0.6000000238418579" fill="rgb(143, 165, 67)" opacity="1.0"/>
    <path d="M 366.2310791015625 384.92138671875 C 353.1789245605469 390.94122314453125 352.750244140625 412.694580078125 364.9612121582031 420.099853515625 C 377.1722412109375 427.50506591796875 395.5871887207031 418.06219482421875 397.76788330078125 403.8506774902344 C 399.94854736328125 389.63916015625 386.68975830078125 375.50958251953125 372.30035400390625 375.7348937988281 L 366.2310791015625 384.92138671875" stroke-width="0.6000000238418579" fill="rgb(233, 92, 21)" opacity="1.0"/>
    <path d="M 379.060791015625 384.64739990234375 C 371.625244140625 386.1312561035156 362.897216796875 388.6749267578125 360.6377868652344 395.939697265625 C 359.8511657714844 398.8657531738281 359.9918518066406 401.9638366699219 361.04058837890625 404.8065185546875 C 363.44610595703125 411.90985107421875 369.1453857421875 417.4066162109375 376.3310852050781 419.5537109375 C 382.4311828613281 421.35943603515625 388.9118347167969 420.4703369140625 395.15435791015625 419.46575927734375 C 398.6601257324219 418.895751953125 402.36669921875 418.17852783203125 404.959228515625 415.77935791015625 C 408.38861083984375 412.5531005859375 408.826416015625 407.28497314453125 408.50579833984375 402.58892822265625 C 408.0451354980469 395.71563720703125 406.47503662109375 388.9622497558594 403.8563537597656 382.5906982421875 C 402.94732666015625 380.3909606933594 401.8485107421875 378.14984130859375 399.9543762207031 376.70989990234375 C 398.1247253417969 375.4611511230469 395.97119140625 374.771728515625 393.7564697265625 374.7257385253906 C 387.04376220703125 374.32489013671875 380.49310302734375 376.8889465332031 375.83612060546875 381.7401123046875 L 379.060791015625 384.64739990234375" stroke-width="0.6000000238418579" fill="rgb(70, 150, 179)" opacity="1.0"/>
    <path d="M 382.0149841308594 393.40484619140625 C 373.4543151855469 394.3858642578125 364.0066833496094 395.8326721191406 358.53338623046875 402.48065185546875 C 352.6581726074219 409.6255798339844 353.7120666503906 420.5107421875 358.240478515625 428.57666015625 C 359.9851379394531 431.687255859375 362.29620361328125 434.636474609375 365.4906921386719 436.2215576171875 C 368.1162414550781 437.52557373046875 371.1181335449219 437.80859375 374.04730224609375 437.9085693359375 C 383.2839660644531 438.235107421875 393.2486572265625 436.69476318359375 399.95281982421875 430.33544921875 C 406.7051696777344 423.92156982421875 408.6980895996094 412.98760986328125 404.59075927734375 404.6201171875 C 400.4834289550781 396.25262451171875 390.67584228515625 391.0540466308594 381.4501953125 392.42779541015625 L 382.0149841308594 393.40484619140625" stroke-width="0.6000000238418579" fill="rgb(140, 28, 33)" opacity="1.0"/>
    <path d="M 398.0 391.0 C 396.4591369628906 392.15740966796875 394.8685607910156 393.37872314453125 393.9525451660156 395.0758361816406 C 393.03656005859375 396.77288818359375 392.99395751953125 399.10906982421875 394.37152099609375 400.45819091796875 C 396.07568359375 402.1197814941406 399.1858215332031 401.4096984863281 400.6130676269531 399.4996032714844 C 402.04034423828125 397.5894775390625 402.111328125 394.96929931640625 401.6142883300781 392.6402587890625 C 401.53265380859375 391.9039001464844 401.1779479980469 391.2248840332031 400.62017822265625 390.73724365234375 C 400.0237121582031 390.31829833984375 398.97991943359375 390.5100402832031 398.8307800292969 391.2272033691406 L 398.0 391.0" stroke-width="0.6000000238418579" fill="rgb(159, 159, 159)" opacity="1.0"/>
    <path d="M 412.380859375 385.14495849609375 C 405.35418701171875 388.90771484375 399.463623046875 395.159912109375 397.19537353515625 402.7967834472656 C 394.9270935058594 410.4336242675781 396.70794677734375 419.40814208984375 402.5193786621094 424.90643310546875 C 406.633056640625 428.78857421875 412.3826904296875 430.6641845703125 418.0428466796875 430.7730712890625 C 423.7030029296875 430.88189697265625 429.29180908203125 429.352783203125 434.505126953125 427.143310546875 C 436.77325439453125 426.180419921875 439.08270263671875 425.0062255859375 440.47930908203125 422.98394775390625 C 442.08154296875 420.6661376953125 442.192138671875 417.66436767578125 442.11285400390625 414.83917236328125 C 441.8887939453125 406.8631896972656 440.433837890625 398.6177062988281 435.7999267578125 392.12078857421875 C 431.166015625 385.6238708496094 422.7305908203125 381.36492919921875 415.05621337890625 383.4796447753906 L 412.380859375 385.14495849609375" stroke-width="0.6000000238418579" fill="rgb(159, 159, 159)" opacity="1.0"/>
    <path d="M 412.79730224609375 390.3102722167969 C 404.72003173828125 392.442138671875 395.8341064453125 395.1617431640625 391.56658935546875 402.3243713378906 C 387.4066162109375 409.2842102050781 388.98028564453125 418.1158447265625 390.82855224609375 426.01446533203125 C 391.5841064453125 429.2220458984375 392.4256896972656 432.565673828125 394.60736083984375 435.032958984375 C 398.2948303222656 439.2081298828125 404.6271057128906 439.66363525390625 410.1437072753906 438.95233154296875 C 415.2642822265625 438.2940673828125 420.2637939453125 436.9039306640625 424.9892578125 434.82452392578125 C 432.663330078125 431.450927734375 440.150146484375 425.18243408203125 440.6611328125 416.81817626953125 C 440.94354248046875 412.302978515625 439.07977294921875 407.84124755859375 436.35888671875 404.2182312011719 C 433.6380615234375 400.59521484375 430.0830078125 397.69317626953125 426.532470703125 394.8783264160156 C 422.9820556640625 392.0634460449219 419.43310546875 389.37359619140625 415.1446533203125 388.2908630371094 L 412.79730224609375 390.3102722167969" stroke-width="0.6000000238418579" fill="rgb(218, 166, 20)" opacity="1.0"/>
    <path d="M 148.35739135742188 245.618408203125 C 135.59654235839844 248.81536865234375 127.84349060058594 261.751708984375 131.0404510498047 274.5125732421875 C 131.314208984375 275.60528564453125 131.66514587402344 276.67718505859375 132.09059143066406 277.7202453613281 C 133.70794677734375 281.683349609375 136.5758514404297 285.320068359375 140.5338897705078 286.9443054199219 C 143.87857055664062 288.3172302246094 147.6454315185547 288.1455993652344 151.21583557128906 287.591796875 C 160.7708740234375 286.0962829589844 169.751220703125 282.0696105957031 177.22396850585938 275.93011474609375 C 179.19650268554688 274.3039245605469 181.10076904296875 272.4722595214844 182.15090942382812 270.1354675292969 C 183.9161376953125 266.2134704589844 182.929931640625 261.5114440917969 180.78359985351562 257.78082275390625 C 177.6009521484375 252.23995971679688 172.030517578125 248.272705078125 165.91802978515625 246.405517578125 C 159.80557250976562 244.538330078125 153.1977996826172 244.64971923828125 146.96478271484375 246.060791015625 L 148.35739135742188 245.618408203125" stroke-width="0.6000000238418579" fill="rgb(143, 165, 67)" opacity="1.0"/>
    <path d="M 149.39517211914062 270.3456115722656 C 136.4412384033203 276.59197998046875 136.3859405517578 298.361328125 148.7289276123047 305.559814453125 C 161.07192993164062 312.7582702636719 179.33203125 302.9953918457031 181.26953125 288.7408142089844 C 183.20700073242188 274.4862365722656 169.7003173828125 260.5787658691406 155.30908203125 261.05126953125 L 149.39517211914062 270.3456115722656" stroke-width="0.6000000238418579" fill="rgb(233, 92, 21)" opacity="1.0"/>
    <path d="M 150.37313842773438 330.62579345703125 C 142.9320068359375 332.07879638671875 134.194091796875 334.5861511230469 131.90480041503906 341.8410339355469 C 131.10610961914062 344.76361083984375 131.23399353027344 347.862060546875 132.27088928222656 350.7088623046875 C 134.6468505859375 357.8216247558594 140.3229522705078 363.341552734375 147.4992218017578 365.5182189941406 C 153.59141540527344 367.3490295410156 160.07525634765625 366.48675537109375 166.32147216796875 365.50811767578125 C 169.829345703125 364.95269775390625 173.53860473632812 364.2508544921875 176.140869140625 361.862548828125 C 179.58331298828125 358.6507263183594 180.04290771484375 353.3847961425781 179.74172973632812 348.6877746582031 C 179.30953979492188 341.8131103515625 177.76748657226562 335.0537414550781 175.17535400390625 328.67181396484375 C 174.2755126953125 326.4684753417969 173.18603515625 324.22296142578125 171.29800415039062 322.77532958984375 C 169.4736328125 321.5190734863281 167.3231201171875 320.8208312988281 165.1087646484375 320.76568603515625 C 158.398193359375 320.33709716796875 151.83743286132812 322.87384033203125 147.16073608398438 327.70538330078125 L 150.37313842773438 330.62579345703125" stroke-width="0.6000000238418579" fill="rgb(70, 150, 179)" opacity="1.0"/>
    <path d="M 138.62937927246094 294.8290100097656 C 130.9488983154297 290.91497802734375 122.27134704589844 286.8990478515625 114.03274536132812 289.41693115234375 C 105.18424987792969 292.1270446777344 100.04609680175781 301.7860412597656 99.36349487304688 311.0148620605469 C 99.09880065917969 314.572998046875 99.39566040039062 318.3096618652344 101.18316650390625 321.39715576171875 C 102.65162658691406 323.935791015625 104.998291015625 325.8311462402344 107.38543701171875 327.5336608886719 C 114.9068603515625 332.9116516113281 124.06724548339844 337.1353759765625 133.1726531982422 335.53857421875 C 142.34840393066406 333.92291259765625 150.05409240722656 325.9073791503906 151.25450134277344 316.65985107421875 C 152.45492553710938 307.4123229980469 147.15057373046875 297.6562805175781 138.69850158691406 293.7021179199219 L 138.62937927246094 294.8290100097656" stroke-width="0.6000000238418579" fill="rgb(140, 28, 33)" opacity="1.0"/>
    <path d="M 144.0 264.0 C 142.4591522216797 265.15740966796875 140.86856079101562 266.37872314453125 139.9525604248047 268.0758361816406 C 139.0365753173828 269.77288818359375 138.9939727783203 272.10906982421875 140.37152099609375 273.45819091796875 C 142.07568359375 275.1197814941406 145.18582153320312 274.4096984863281 146.61306762695312 272.4996032714844 C 148.0403289794922 270.5894775390625 148.111328125 267.96929931640625 147.61428833007812 265.6402587890625 C 147.53265380859375 264.9039001464844 147.17796325683594 264.2248840332031 146.62017822265625 263.73724365234375 C 146.0237274169922 263.31829833984375 144.9799041748047 263.5100402832031 144.83078002929688 264.2272033691406 L 144.0 264.0" stroke-width="0.6000000238418579" fill="rgb(159, 159, 159)" opacity="1.0"/>
    <path d="M 149.09756469726562 280.8831481933594 C 142.00071716308594 284.51373291015625 135.99319458007812 290.6549072265625 133.58169555664062 298.2486267089844 C 131.1702117919922 305.84234619140625 132.782470703125 314.8497009277344 138.49026489257812 320.4566955566406 C 142.53076171875 324.4158020019531 148.2447967529297 326.39923095703125 153.9025115966797 326.61431884765625 C 159.56024169921875 326.8294372558594 165.17730712890625 325.40533447265625 170.4317626953125 323.29388427734375 C 172.71780395507812 322.3736572265625 175.04913330078125 321.2429504394531 176.48361206054688 319.24700927734375 C 178.1292724609375 316.9594421386719 178.29623413085938 313.9599304199219 178.26995849609375 311.13348388671875 C 178.19564819335938 303.1538391113281 176.89559936523438 294.8816223144531 172.384033203125 288.2981872558594 C 167.87240600585938 281.7146911621094 159.51748657226562 277.2976989746094 151.80397033691406 279.2681884765625 L 149.09756469726562 280.8831481933594" stroke-width="0.6000000238418579" fill="rgb(159, 159, 159)" opacity="1.0"/>
    <path d="M 139.60157775878906 344.24810791015625 C 131.90072631835938 341.01129150390625 123.20065307617188 337.74700927734375 115.45060729980469 340.8202209472656 C 107.90945434570312 343.7983093261719 103.77020263671875 351.7565002441406 100.41763305664062 359.14276123046875 C 99.06010437011719 362.1453552246094 97.68780517578125 365.30816650390625 97.91184997558594 368.5939025878906 C 98.28752136230469 374.1513366699219 103.02760314941406 378.37420654296875 107.83291625976562 381.1750183105469 C 112.29208374023438 383.7763671875 117.10165405273438 385.7239074707031 122.11444091796875 386.9580993652344 C 130.2530517578125 388.9649963378906 140.0088653564453 388.56378173828125 145.5149383544922 382.247314453125 C 148.49246215820312 378.84161376953125 149.73672485351562 374.1693115234375 149.79025268554688 369.638916015625 C 149.84375 365.1085205078125 148.79652404785156 360.6407470703125 147.69976806640625 356.2447814941406 C 146.60304260253906 351.8488464355469 145.4311981201172 347.5528869628906 142.6932830810547 344.0794982910156 L 139.60157775878906 344.24810791015625" stroke-width="0.6000000238418579" fill="rgb(218, 166, 20)" opacity="1.0"/>
    <path d="M 150.37364196777344 335.7244567871094 C 137.68922424316406 339.1925048828125 130.21788024902344 352.28668212890625 133.68592834472656 364.9710998535156 C 133.98289489746094 366.0572814941406 134.35655212402344 367.1210021972656 134.80406188964844 368.154296875 C 136.50521850585938 372.0802917480469 139.4491424560547 375.6533508300781 143.439453125 377.1918640136719 C 146.81143188476562 378.49237060546875 150.57225036621094 378.240234375 154.12857055664062 377.6103820800781 C 163.6456298828125 375.91131591796875 172.53411865234375 371.6949768066406 179.87081909179688 365.3993835449219 C 181.80731201171875 363.73199462890625 183.67120361328125 361.8607482910156 184.670654296875 359.5029296875 C 186.35086059570312 355.5456237792969 185.2646484375 350.8676452636719 183.039794921875 347.185302734375 C 179.74053955078125 341.7160339355469 174.0887451171875 337.8704833984375 167.94012451171875 336.1352844238281 C 161.79150390625 334.4000549316406 155.19029235839844 334.6528015136719 148.9913787841797 336.1963806152344 L 150.37364196777344 335.7244567871094" stroke-width="0.6000000238418579" fill="rgb(143, 165, 67)" opacity="1.0"/>
    <path d="M 146.2533416748047 374.519287109375 C 132.06015014648438 372.199951171875 119.5208740234375 389.9955749511719 125.49740600585938 402.9745178222656 C 131.47396850585938 415.95343017578125 152.0306854248047 418.4383544921875 161.79840087890625 407.87701416015625 C 171.56610107421875 397.31561279296875 168.487060546875 378.1746520996094 156.43063354492188 370.3020935058594 L 146.2533416748047 374.519287109375" stroke-width="0.6000000238418579" fill="rgb(233, 92, 21)" opacity="1.0"/>
    <path d="M 164.35089111328125 378.7650146484375 C 156.9127197265625 380.2453308105469 148.18115234375 382.7850646972656 145.9173583984375 390.05047607421875 C 145.1289825439453 392.97686767578125 145.26809692382812 396.0757751464844 146.3155975341797 398.91973876953125 C 148.71800231933594 406.026123046875 154.41580200195312 411.5272521972656 161.6021728515625 413.67864990234375 C 167.702880859375 415.488037109375 174.18560791015625 414.60205078125 180.43023681640625 413.6005859375 C 183.93719482421875 413.0322265625 187.64505004882812 412.3167724609375 190.239501953125 409.9183654785156 C 193.67141723632812 406.693115234375 194.11212158203125 401.42388916015625 193.79388427734375 396.72650146484375 C 193.33673095703125 389.85125732421875 191.769775390625 383.0953369140625 189.15377807617188 376.7207946777344 C 188.24566650390625 374.52001953125 187.14776611328125 372.27777099609375 185.25390625 370.83648681640625 C 183.4244384765625 369.5864562988281 181.270751953125 368.895751953125 179.05548095703125 368.8486022949219 C 172.34130859375 368.4441223144531 165.78765869140625 371.0053405761719 161.126953125 375.85528564453125 L 164.35089111328125 378.7650146484375" stroke-width="0.6000000238418579" fill="rgb(70, 150, 179)" opacity="1.0"/>
  </g>
</svg>
