<?xml version="1.0" ?>
<svg xmlns="http://www.w3.org/2000/svg" version="1.1" width="600" height="600">
  <defs/>
  <g>
    <path d="M 355.0445251464844 343.5662536621094 C 359.47930908203125 346.67333984375 366.6416931152344 342.68756103515625 366.7365417480469 337.308349609375 C 366.83135986328125 331.92913818359375 360.26531982421875 327.7254943847656 355.2256774902344 329.7107238769531 C 350.1860656738281 331.6959533691406 348.1010437011719 338.69146728515625 350.9031982421875 343.3327331542969 L 355.0445251464844 343.5662536621094" stroke-width="0.6000000238418579" fill="rgb(233, 92, 21)" opacity="1.0"/>
    <path d="M 113.14585876464844 201.70669555664062 C 115.53578186035156 200.1104736328125 118.22505187988281 197.95584106445312 117.96484375 195.08383178710938 C 117.81680297851562 193.94491577148438 117.31900024414062 192.8800048828125 116.54010009765625 192.0360107421875 C 114.6690673828125 189.8958740234375 111.87680053710938 188.79541015625 109.04876708984375 189.08349609375 C 106.65042114257812 189.33404541015625 104.5089111328125 190.583740234375 102.467529296875 191.83935546875 C 101.32194519042969 192.54656982421875 100.1273193359375 193.33441162109375 99.56646728515625 194.5501708984375 C 98.83218383789062 196.17681884765625 99.44146728515625 198.085693359375 100.233642578125 199.684326171875 C 101.39004516601562 202.025390625 102.91775512695312 204.16387939453125 104.75749206542969 206.01678466796875 C 105.39437866210938 206.65579223632812 106.103759765625 207.28179931640625 106.97573852539062 207.51202392578125 C 107.7974853515625 207.6845703125 108.65167236328125 207.61431884765625 109.43417358398438 207.309814453125 C 111.84371948242188 206.47845458984375 113.76728820800781 204.63189697265625 114.69638061523438 202.25830078125 L 113.14585876464844 201.70669555664062" stroke-width="0.6000000238418579" fill="rgb(70, 150, 179)" opacity="1.0"/>
    <path d="M 453.7579345703125 422.30535888671875 C 454.97216796875 425.364013671875 456.446533203125 428.703369140625 459.4427490234375 430.05938720703125 C 462.6622314453125 431.5140380859375 466.57073974609375 430.04150390625 469.09375 427.56854248046875 C 470.06689453125 426.615478515625 470.9241943359375 425.46966552734375 471.1904296875 424.13397216796875 C 471.4097900390625 423.0360107421875 471.2152099609375 421.9010009765625 470.9603271484375 420.81103515625 C 470.160888671875 417.3729248046875 468.6005859375 413.85223388671875 465.588134765625 412.013671875 C 462.55084228515625 410.16278076171875 458.3209228515625 410.516845703125 455.644775390625 412.86456298828125 C 452.96868896484375 415.2122802734375 452.0286865234375 419.34613037109375 453.4539794921875 422.61090087890625 L 453.7579345703125 422.30535888671875" stroke-width="0.6000000238418579" fill="rgb(140, 28, 33)" opacity="1.0"/>
    <path d="M 89.46513366699219 203.95318603515625 C 92.33726501464844 203.19989013671875 95.31756591796875 202.38433837890625 97.61279296875 200.49722290039062 C 99.90798950195312 198.610107421875 101.32968139648438 195.3026123046875 100.15066528320312 192.57571411132812 C 98.68780517578125 189.212890625 93.83782958984375 188.4139404296875 90.68923950195312 190.30706787109375 C 87.54066467285156 192.2001953125 85.91302490234375 195.89630126953125 85.26522827148438 199.50799560546875 C 84.95269775390625 200.60592651367188 85.06307983398438 201.78106689453125 85.57461547851562 202.80157470703125 C 86.18136596679688 203.74664306640625 87.78196716308594 204.08123779296875 88.4124755859375 203.1451416015625 L 89.46513366699219 203.95318603515625" stroke-width="0.6000000238418579" fill="rgb(159, 159, 159)" opacity="1.0"/>
    <path d="M 382.48455810546875 297.1635437011719 C 385.56494140625 296.201171875 388.3826904296875 294.1624450683594 389.8651428222656 291.29779052734375 C 391.34759521484375 288.43310546875 391.3214111328125 284.7287292480469 389.42816162109375 282.1004943847656 C 388.0872802734375 280.2439880371094 385.9432678222656 279.06109619140625 383.7005920410156 278.587646484375 C 381.4578857421875 278.11419677734375 379.1191101074219 278.29754638671875 376.8779296875 278.780029296875 C 375.90277099609375 278.9905700683594 374.89508056640625 279.281982421875 374.18597412109375 279.9801025390625 C 373.3726501464844 280.78009033203125 373.10052490234375 281.9654541015625 372.9173583984375 283.0950012207031 C 372.4002990722656 286.2839660644531 372.3522644042969 289.6736145019531 373.7013244628906 292.6095275878906 C 375.0503845214844 295.5454406738281 378.08135986328125 297.8802490234375 381.2940673828125 297.62249755859375 L 382.48455810546875 297.1635437011719" stroke-width="0.6000000238418579" fill="rgb(159, 159, 159)" opacity="1.0"/>
    <path d="M 100.65217590332031 430.8338623046875 C 102.0458984375 428.2376708984375 103.48260498046875 425.29150390625 102.66213989257812 422.46746826171875 C 101.86811828613281 419.71990966796875 99.21171569824219 418.000732421875 96.72988891601562 416.57684326171875 C 95.7208251953125 415.9998779296875 94.65597534179688 415.41241455078125 93.49468994140625 415.38140869140625 C 91.53060913085938 415.3277587890625 89.88946533203125 416.851318359375 88.74552917480469 418.44525146484375 C 87.68318176269531 419.92431640625 86.83872985839844 421.5482177734375 86.23799133300781 423.26727294921875 C 85.26155090332031 426.0582275390625 85.07676696777344 429.4974365234375 87.11103820800781 431.641845703125 C 88.20758056640625 432.80108642578125 89.80674743652344 433.39404296875 91.39584350585938 433.56402587890625 C 92.98495483398438 433.73406982421875 94.58880615234375 433.5155029296875 96.16909790039062 433.277099609375 C 97.7493896484375 433.0386962890625 99.29705810546875 432.7706298828125 100.60818481445312 431.9251708984375 L 100.65217590332031 430.8338623046875" stroke-width="0.6000000238418579" fill="rgb(218, 166, 20)" opacity="1.0"/>
    <path d="M 98.72198486328125 140.16925048828125 C 104.29499816894531 140.08436584472656 108.7440185546875 135.49774169921875 108.65911865234375 129.9247283935547 C 108.65185546875 129.447509765625 108.61074829101562 128.97142028808594 108.53610229492188 128.50001525878906 C 108.25213623046875 126.70883178710938 107.42076110839844 124.93138122558594 105.94511413574219 123.878662109375 C 104.69816589355469 122.98892211914062 103.12773132324219 122.69549560546875 101.60137939453125 122.57870483398438 C 97.51528930664062 122.27169799804688 93.42153930664062 123.06439208984375 89.745361328125 124.87440490722656 C 88.77444458007812 125.35447692871094 87.81181335449219 125.92591857910156 87.15267944335938 126.78831481933594 C 86.0452880859375 128.23545837402344 85.99745178222656 130.27041625976562 86.5220947265625 132.016845703125 C 87.2991943359375 134.61021423339844 89.21340942382812 136.7853240966797 91.55429077148438 138.14657592773438 C 93.8951416015625 139.50782775878906 96.63165283203125 140.10079956054688 99.3392333984375 140.1214141845703 L 98.72198486328125 140.16925048828125" stroke-width="0.6000000238418579" fill="rgb(143, 165, 67)" opacity="1.0"/>
    <path d="M 457.62890625 344.4165954589844 C 460.981201171875 349.6875305175781 470.375 348.6059875488281 472.85357666015625 342.9158630371094 C 475.33209228515625 337.22576904296875 470.193359375 329.8443908691406 463.94573974609375 329.732421875 C 457.6981201171875 329.6204528808594 452.384521484375 336.1532287597656 453.319091796875 342.3373718261719 L 457.62890625 344.4165954589844" stroke-width="0.6000000238418579" fill="rgb(233, 92, 21)" opacity="1.0"/>
    <path d="M 97.63668823242188 220.181884765625 C 99.31080627441406 217.5526123046875 101.03787231445312 214.23825073242188 99.52384948730469 211.50152587890625 C 98.87893676757812 210.43585205078125 97.91925048828125 209.5965576171875 96.77713012695312 209.09942626953125 C 93.98434448242188 207.79339599609375 90.73178100585938 207.92202758789062 88.05087280273438 209.44451904296875 C 85.78001403808594 210.74185180664062 84.200927734375 212.91851806640625 82.72381591796875 215.057373046875 C 81.89599609375 216.2601318359375 81.0548095703125 217.564453125 81.02972412109375 219.016357421875 C 81.01217651367188 220.951904296875 82.4515380859375 222.580078125 83.936767578125 223.8204345703125 C 86.10813903808594 225.63836669921875 88.5594482421875 227.09286499023438 91.19561767578125 228.12750244140625 C 92.10714721679688 228.48324584960938 93.08491516113281 228.79443359375 94.05104064941406 228.64163208007812 C 94.94207763671875 228.45361328125 95.75918579101562 228.0103759765625 96.40267944335938 227.36602783203125 C 98.43070983886719 225.4873046875 99.53250122070312 222.81353759765625 99.41680908203125 220.05145263671875 L 97.63668823242188 220.181884765625" stroke-width="0.6000000238418579" fill="rgb(70, 150, 179)" opacity="1.0"/>
    <path d="M 103.65707397460938 81.3671875 C 103.93374633789062 84.6956787109375 104.38015747070312 88.37344360351562 106.88966369628906 90.57424926757812 C 109.58685302734375 92.93679809570312 113.81680297851562 92.65995788574219 116.9964599609375 91.00296020507812 C 118.22268676757812 90.36459350585938 119.39320373535156 89.50483703613281 120.0458984375 88.28634643554688 C 120.58280944824219 87.28489685058594 120.72872924804688 86.12528991699219 120.8028564453125 84.99166870117188 C 121.04092407226562 81.41705322265625 120.56451416015625 77.537841796875 118.18171691894531 74.8636474609375 C 115.77835083007812 72.17010498046875 111.56629943847656 71.26593017578125 108.27487182617188 72.75616455078125 C 104.98345947265625 74.24638366699219 102.85092163085938 77.98333740234375 103.271728515625 81.57420349121094 L 103.65707397460938 81.3671875" stroke-width="0.6000000238418579" fill="rgb(140, 28, 33)" opacity="1.0"/>
    <path d="M 92.2010498046875 415.635498046875 C 95.44747924804688 414.951171875 98.81805419921875 414.20318603515625 101.48236083984375 412.2220458984375 C 104.14662170410156 410.2408447265625 105.913330078125 406.62689208984375 104.74594116210938 403.51934814453125 C 103.29634094238281 399.6866455078125 97.92703247070312 398.5309753417969 94.30999755859375 400.4724426269531 C 90.6929931640625 402.41387939453125 88.67526245117188 406.4503173828125 87.75570678710938 410.44586181640625 C 87.34713745117188 411.6542053222656 87.4063720703125 412.97174072265625 87.92173767089844 414.1385498046875 C 88.54745483398438 415.22625732421875 90.31558227539062 415.686767578125 91.07020568847656 414.6763916015625 L 92.2010498046875 415.635498046875" stroke-width="0.6000000238418579" fill="rgb(159, 159, 159)" opacity="1.0"/>
    <path d="M 473.515380859375 65.60029602050781 C 474.5419921875 62.82884216308594 474.6414794921875 59.645263671875 473.3948974609375 56.96722412109375 C 472.1483154296875 54.28919982910156 469.4486083984375 52.23463439941406 466.4837646484375 52.135772705078125 C 464.3875732421875 52.06852722167969 462.330078125 52.96046447753906 460.7315673828125 54.32102966308594 C 459.133056640625 55.68159484863281 457.956787109375 57.479461669921875 457.052001953125 59.37400817871094 C 456.6588134765625 60.198699951171875 456.30596923828125 61.09222412109375 456.4150390625 61.996978759765625 C 456.5396728515625 63.0343017578125 457.24652099609375 63.895050048828125 457.9627685546875 64.66007995605469 C 459.9847412109375 66.81988525390625 462.41485595703125 68.7520751953125 465.29803466796875 69.4176025390625 C 468.18121337890625 70.08309936523438 471.5701904296875 69.19305419921875 473.181640625 66.72010803222656 L 473.515380859375 65.60029602050781" stroke-width="0.6000000238418579" fill="rgb(159, 159, 159)" opacity="1.0"/>
    <path d="M 90.77153015136719 105.68568420410156 C 93.82551574707031 106.35848999023438 97.24929809570312 106.97402954101562 99.89602661132812 105.31988525390625 C 102.47222900390625 103.71484375 103.45999145507812 100.50526428222656 104.19662475585938 97.55931091308594 C 104.49411010742188 96.36212158203125 104.78622436523438 95.10491943359375 104.48223876953125 93.91007995605469 C 103.96923828125 91.888916015625 101.93907165527344 90.65342712402344 99.98074340820312 89.94599914550781 C 98.16331481933594 89.28868103027344 96.26092529296875 88.89573669433594 94.33181762695312 88.77919006347656 C 91.19953918457031 88.58880615234375 87.63409423828125 89.39422607421875 86.03231811523438 92.09140014648438 C 85.16546630859375 93.54624938964844 85.02224731445312 95.35066223144531 85.30795288085938 97.02255249023438 C 85.59365844726562 98.6944580078125 86.28048706054688 100.26907348632812 86.98069763183594 101.81391906738281 C 87.680908203125 103.3587646484375 88.40203857421875 104.86172485351562 89.6444091796875 105.95620727539062 L 90.77153015136719 105.68568420410156" stroke-width="0.6000000238418579" fill="rgb(218, 166, 20)" opacity="1.0"/>
    <path d="M 124.27825927734375 131.7586669921875 C 129.5937042236328 130.4286651611328 132.82455444335938 125.04147338867188 131.4945526123047 119.72602844238281 C 131.38067626953125 119.2708740234375 131.23463439941406 118.82437133789062 131.05755615234375 118.38986206054688 C 130.3843994140625 116.73898315429688 129.19033813476562 115.22389221191406 127.54196166992188 114.546875 C 126.14903259277344 113.97463989257812 124.58006286621094 114.045654296875 123.09288024902344 114.27586364746094 C 119.11289978027344 114.8975830078125 115.37197875976562 116.57363891601562 112.25872802734375 119.1298828125 C 111.43693542480469 119.80697631835938 110.6435546875 120.56964111328125 110.20587158203125 121.54281616210938 C 109.47015380859375 123.1761474609375 109.88034057617188 125.13473510742188 110.77384948730469 126.6888427734375 C 112.09878540039062 128.99708557128906 114.41842651367188 130.65017700195312 116.96412658691406 131.42864990234375 C 119.50982666015625 132.2071075439453 122.26205444335938 132.16152954101562 124.85835266113281 131.57456970214844 L 124.27825927734375 131.7586669921875" stroke-width="0.6000000238418579" fill="rgb(143, 165, 67)" opacity="1.0"/>
    <path d="M 391.5699768066406 305.63458251953125 C 395.0041809082031 311.03118896484375 404.6231689453125 309.9212341308594 407.1597595214844 304.0939025878906 C 409.6962890625 298.26654052734375 404.4322509765625 290.7093200683594 398.03466796875 290.5962829589844 C 391.6370849609375 290.4832458496094 386.1976013183594 297.1741943359375 387.15625 303.5065612792969 L 391.5699768066406 305.63458251953125" stroke-width="0.6000000238418579" fill="rgb(233, 92, 21)" opacity="1.0"/>
    <path d="M 121.38319396972656 109.06338500976562 C 124.02090454101562 107.6676025390625 127.02694702148438 105.72673034667969 127.06227111816406 102.73251342773438 C 127.02995300292969 101.5404052734375 126.62850952148438 100.38768005371094 125.91329956054688 99.43339538574219 C 124.20724487304688 97.02462768554688 121.43948364257812 95.59219360351562 118.48773193359375 95.59034729003906 C 115.98382568359375 95.59519958496094 113.639404296875 96.65928649902344 111.39778137207031 97.74012756347656 C 110.13955688476562 98.34933471679688 108.8221435546875 99.03665161132812 108.11407470703125 100.23309326171875 C 107.183349609375 101.83560180664062 107.61058044433594 103.87188720703125 108.25956726074219 105.60711669921875 C 109.20619201660156 108.14779663085938 110.55780029296875 110.51850891113281 112.26199340820312 112.62728881835938 C 112.85220336914062 113.35479736328125 113.51866149902344 114.0765380859375 114.39501953125 114.40667724609375 C 115.22555541992188 114.67193603515625 116.1153564453125 114.6898193359375 116.95587158203125 114.4581298828125 C 119.53286743164062 113.85450744628906 121.71536254882812 112.15080261230469 122.9263916015625 109.79736328125 L 121.38319396972656 109.06338500976562" stroke-width="0.6000000238418579" fill="rgb(70, 150, 179)" opacity="1.0"/>
    <path d="M 422.4686279296875 68.75563049316406 C 423.7735595703125 71.81471252441406 425.3485107421875 75.15068054199219 428.41021728515625 76.4439697265625 C 431.70001220703125 77.83126831054688 435.61102294921875 76.24356079101562 438.0966796875 73.6806640625 C 439.0555419921875 72.69293212890625 439.8922119140625 71.51339721679688 440.1270751953125 70.15718078613281 C 440.32061767578125 69.0423583984375 440.094970703125 67.90066528320312 439.8096923828125 66.80599975585938 C 438.9140625 63.35295104980469 437.2476806640625 59.83599853515625 434.1572265625 58.055572509765625 C 431.0413818359375 56.26332092285156 426.77703857421875 56.72923278808594 424.1334228515625 59.169525146484375 C 421.4898681640625 61.60981750488281 420.6458740234375 65.81021118164062 422.1693115234375 69.07209777832031 L 422.4686279296875 68.75563049316406" stroke-width="0.6000000238418579" fill="rgb(140, 28, 33)" opacity="1.0"/>
    <path d="M 112.91217041015625 420.5712890625 C 114.60009765625 417.83551025390625 116.32630920410156 414.9700927734375 116.71519470214844 411.7767639160156 C 117.10406494140625 408.58343505859375 115.74739074707031 404.9295959472656 112.78646850585938 403.6734619140625 C 109.1280517578125 402.1310729980469 104.73068237304688 405.12799072265625 103.67758178710938 408.9635314941406 C 102.62449645996094 412.799072265625 104.11006164550781 416.9112548828125 106.3004150390625 420.225341796875 C 106.87567138671875 421.3192138671875 107.84002685546875 422.1575927734375 109.00321960449219 422.5751953125 C 110.18463134765625 422.86248779296875 111.6888427734375 421.928955078125 111.483642578125 420.7244873046875 L 112.91217041015625 420.5712890625" stroke-width="0.6000000238418579" fill="rgb(159, 159, 159)" opacity="1.0"/>
    <path d="M 460.27410888671875 440.05078125 C 461.07281494140625 437.5052490234375 461.01678466796875 434.630615234375 459.77032470703125 432.2734375 C 458.52386474609375 429.9161376953125 455.9959716796875 428.1875 453.318603515625 428.234130859375 C 451.42572021484375 428.2694091796875 449.6116943359375 429.167724609375 448.2327880859375 430.467529296875 C 446.85400390625 431.7672119140625 445.87591552734375 433.44189453125 445.14697265625 435.1912841796875 C 444.8302001953125 435.95281982421875 444.55303955078125 436.7745361328125 444.69281005859375 437.58514404296875 C 444.85260009765625 438.5146484375 445.529296875 439.25823974609375 446.2099609375 439.9151611328125 C 448.13177490234375 441.76971435546875 450.4110107421875 443.400390625 453.04071044921875 443.868408203125 C 455.67047119140625 444.33636474609375 458.6849365234375 443.3787841796875 460.0245361328125 441.07562255859375 L 460.27410888671875 440.05078125" stroke-width="0.6000000238418579" fill="rgb(159, 159, 159)" opacity="1.0"/>
    <path d="M 452.3909912109375 284.5746765136719 C 454.32470703125 281.9248352050781 456.3592529296875 278.8956298828125 455.8861083984375 275.6560363769531 C 455.430419921875 272.5048828125 452.763916015625 270.20306396484375 450.2447509765625 268.2536315917969 C 449.22021484375 267.46319580078125 448.1357421875 266.6526184082031 446.85992431640625 266.4409484863281 C 444.7022705078125 266.0816345214844 442.65966796875 267.5108642578125 441.1546630859375 269.0937194824219 C 439.757080078125 270.56231689453125 438.57769775390625 272.2239990234375 437.65252685546875 274.02783203125 C 436.14923095703125 276.9562683105469 435.4197998046875 280.7205505371094 437.3353271484375 283.3961181640625 C 438.3673095703125 284.8420715332031 440.0401611328125 285.74029541015625 441.76654052734375 286.170654296875 C 443.492919921875 286.6010437011719 445.294921875 286.6051025390625 447.073974609375 286.5837707519531 C 448.85302734375 286.5624084472656 450.6007080078125 286.5033264160156 452.17572021484375 285.7713623046875 L 452.3909912109375 284.5746765136719" stroke-width="0.6000000238418579" fill="rgb(218, 166, 20)" opacity="1.0"/>
    <path d="M 423.057861328125 358.61077880859375 C 424.239013671875 363.1753234863281 428.896728515625 365.91815185546875 433.4613037109375 364.737060546875 C 433.8521728515625 364.63592529296875 434.2353515625 364.5072021484375 434.60797119140625 364.3518371582031 C 436.0238037109375 363.7611999511719 437.31927490234375 362.7232971191406 437.89044189453125 361.30029296875 C 438.37322998046875 360.0977783203125 438.30126953125 358.74822998046875 438.0928955078125 357.47015380859375 C 437.530517578125 354.0498352050781 436.0625 350.8424987792969 433.84149169921875 348.1813049316406 C 433.253173828125 347.4788818359375 432.59149169921875 346.80145263671875 431.7510986328125 346.43157958984375 C 430.340576171875 345.8097839355469 428.65814208984375 346.1762390136719 427.3270263671875 346.955810546875 C 425.35009765625 348.1117858886719 423.94366455078125 350.119140625 423.2913818359375 352.31500244140625 C 422.63916015625 354.5108337402344 422.69732666015625 356.8786926269531 423.2203369140625 359.108642578125 L 423.057861328125 358.61077880859375" stroke-width="0.6000000238418579" fill="rgb(143, 165, 67)" opacity="1.0"/>
    <path d="M 449.2945556640625 348.09893798828125 C 454.00732421875 343.94219970703125 451.4613037109375 334.7769775390625 445.4189453125 333.2052001953125 C 439.37646484375 331.6334228515625 432.846435546875 337.8958435058594 433.713623046875 344.1216125488281 C 434.580810546875 350.3473815917969 441.90460205078125 354.6044006347656 447.9034423828125 352.7071533203125 L 449.2945556640625 348.09893798828125" stroke-width="0.6000000238418579" fill="rgb(233, 92, 21)" opacity="1.0"/>
    <path d="M 454.6182861328125 73.94706726074219 C 457.133056640625 72.33358764648438 459.96966552734375 70.14544677734375 459.754150390625 67.1551513671875 C 459.6220703125 65.96847534179688 459.125 64.85202026367188 458.33154296875 63.95982360839844 C 456.42767333984375 61.699462890625 453.54632568359375 60.502105712890625 450.6011962890625 60.747467041015625 C 448.1033935546875 60.962005615234375 445.853515625 62.21998596191406 443.70751953125 63.48606872558594 C 442.50323486328125 64.19924926757812 441.2464599609375 64.99530029296875 440.64013671875 66.24830627441406 C 439.8458251953125 67.92507934570312 440.44256591796875 69.92091369628906 441.2353515625 71.59779357910156 C 442.392578125 74.05337524414062 443.939697265625 76.30545043945312 445.8165283203125 78.26666259765625 C 446.46630859375 78.94305419921875 447.191650390625 79.60733032226562 448.0936279296875 79.86331176757812 C 448.94451904296875 80.05842590332031 449.833740234375 80.00173950195312 450.6529541015625 79.7001953125 C 453.1734619140625 78.88214111328125 455.208251953125 76.99957275390625 456.219482421875 74.55014038085938 L 454.6182861328125 73.94706726074219" stroke-width="0.6000000238418579" fill="rgb(70, 150, 179)" opacity="1.0"/>
    <path d="M 447.930419921875 395.15692138671875 C 448.1392822265625 391.3746643066406 448.21197509765625 387.173583984375 445.736572265625 384.30950927734375 C 443.0755615234375 381.23443603515625 438.2806396484375 380.885009765625 434.4500732421875 382.2499694824219 C 432.972900390625 382.7756042480469 431.5238037109375 383.5586853027344 430.600341796875 384.8255310058594 C 429.8408203125 385.86669921875 429.49591064453125 387.1465759277344 429.235595703125 388.408447265625 C 428.41009521484375 392.3868103027344 428.339599609375 396.8188781738281 430.59881591796875 400.1949462890625 C 432.8780517578125 403.595947265625 437.468505859375 405.269287109375 441.3985595703125 404.109130859375 C 445.32861328125 402.948974609375 448.3076171875 399.0840148925781 448.3956298828125 394.9845275878906 L 447.930419921875 395.15692138671875" stroke-width="0.6000000238418579" fill="rgb(140, 28, 33)" opacity="1.0"/>
    <path d="M 128.0313720703125 219.79144287109375 C 124.30953979492188 222.12057495117188 120.46246337890625 224.585205078125 118.05462646484375 228.26043701171875 C 115.64683532714844 231.93557739257812 115.09797668457031 237.23052978515625 117.96397399902344 240.55975341796875 C 121.51091003417969 244.66143798828125 128.70851135253906 243.6514892578125 132.3181610107422 239.5916748046875 C 135.92779541015625 235.5318603515625 136.5960693359375 229.59765625 135.9185333251953 224.21444702148438 C 135.87574768066406 222.52703857421875 135.20199584960938 220.9169921875 134.03018188476562 219.70208740234375 C 132.75726318359375 218.6356201171875 130.35064697265625 218.86886596679688 129.87330627441406 220.46798706054688 L 128.0313720703125 219.79144287109375" stroke-width="0.6000000238418579" fill="rgb(159, 159, 159)" opacity="1.0"/>
    <path d="M 111.47084045410156 230.02810668945312 C 107.51933288574219 227.3292236328125 102.55706787109375 225.92538452148438 97.86148071289062 226.8343505859375 C 93.16592407226562 227.7432861328125 88.88038635253906 231.1793212890625 87.56327819824219 235.79812622070312 C 86.63619995117188 239.06484985351562 87.23114013671875 242.6466064453125 88.74212646484375 245.69094848632812 C 90.25311279296875 248.73532104492188 92.61656188964844 251.28762817382812 95.23826599121094 253.451416015625 C 96.37973022460938 254.392333984375 97.6451416015625 255.29672241210938 99.10922241210938 255.47988891601562 C 100.78762817382812 255.69064331054688 102.41682434082031 254.91748046875 103.89930725097656 254.09213256835938 C 108.08462524414062 251.761962890625 112.072265625 248.70156860351562 114.24757385253906 244.43301391601562 C 116.42288208007812 240.1644287109375 116.35264587402344 234.49179077148438 113.0992431640625 230.99118041992188 L 111.47084045410156 230.02810668945312" stroke-width="0.6000000238418579" fill="rgb(159, 159, 159)" opacity="1.0"/>
    <path d="M 303.6275634765625 98.36932373046875 C 302.96484375 102.8231201171875 302.4211730957031 107.80245971679688 305.06048583984375 111.4398193359375 C 307.62225341796875 114.98077392578125 312.3309020996094 116.0804443359375 316.6358642578125 116.8455810546875 C 318.3851623535156 117.15383911132812 320.2200927734375 117.44842529296875 321.90618896484375 116.89291381835938 C 324.75848388671875 115.95501708984375 326.331298828125 112.9158935546875 327.1527099609375 110.03250122070312 C 327.9161682128906 107.35650634765625 328.2914123535156 104.58474731445312 328.2669677734375 101.80206298828125 C 328.2289123535156 97.28378295898438 326.7173767089844 92.24227905273438 322.6837158203125 90.20968627929688 C 320.5076904296875 89.10917663574219 317.9014892578125 89.08291625976562 315.5283203125 89.65957641601562 C 313.1551513671875 90.23626708984375 310.9615783691406 91.37945556640625 308.8121337890625 92.53890991210938 C 306.6626892089844 93.69837951660156 304.57550048828125 94.88371276855469 303.12689208984375 96.77716064453125 L 303.6275634765625 98.36932373046875" stroke-width="0.6000000238418579" fill="rgb(218, 166, 20)" opacity="1.0"/>
    <path d="M 220.8419189453125 120.99996948242188 C 216.402099609375 114.72000122070312 207.71197509765625 113.228271484375 201.4320068359375 117.6680908203125 C 200.89422607421875 118.04826354980469 200.3841552734375 118.46612548828125 199.905517578125 118.91848754882812 C 198.087158203125 120.63775634765625 196.71102905273438 122.96966552734375 196.66229248046875 125.47042846679688 C 196.62088012695312 127.58375549316406 197.5106201171875 129.60072326660156 198.567138671875 131.42984008789062 C 201.40191650390625 136.32200622558594 205.49493408203125 140.3659210205078 210.42095947265625 143.14149475097656 C 211.72430419921875 143.8729705810547 213.12521362304688 144.5238037109375 214.62091064453125 144.60227966308594 C 217.1318359375 144.7355194091797 219.48638916015625 143.2041015625 221.06622314453125 141.24563598632812 C 223.41372680664062 138.3396759033203 224.3988037109375 134.4647979736328 224.12457275390625 130.7383270263672 C 223.85040283203125 127.01187133789062 222.39300537109375 123.43365478515625 220.306396484375 120.33439636230469 L 220.8419189453125 120.99996948242188" stroke-width="0.6000000238418579" fill="rgb(143, 165, 67)" opacity="1.0"/>
    <path d="M 225.5989990234375 91.74295043945312 C 224.435546875 100.27339172363281 235.28350830078125 107.49583435058594 242.9560546875 103.71392822265625 C 250.62860107421875 99.93199157714844 251.79046630859375 87.59075927734375 245.31558227539062 81.9124755859375 C 238.8406982421875 76.23417663574219 227.43475341796875 78.37960815429688 222.91424560546875 85.71919250488281 L 225.5989990234375 91.74295043945312" stroke-width="0.6000000238418579" fill="rgb(233, 92, 21)" opacity="1.0"/>
    <path d="M 196.88375854492188 99.1488037109375 C 195.25262451171875 94.95684814453125 192.86944580078125 90.11863708496094 188.392578125 89.54508972167969 C 186.60211181640625 89.38616943359375 184.80642700195312 89.78677368164062 183.2532958984375 90.691650390625 C 179.35015869140625 92.8271484375 176.72418212890625 96.72201538085938 176.20816040039062 101.14112854003906 C 175.77999877929688 104.890869140625 176.96551513671875 108.58602905273438 178.1939697265625 112.13017272949219 C 178.88726806640625 114.11993408203125 179.687255859375 116.2119140625 181.35549926757812 117.4801025390625 C 183.59295654296875 119.15228271484375 186.71600341796875 118.86669921875 189.4268798828125 118.19676208496094 C 193.39544677734375 117.22125244140625 197.17999267578125 115.60983276367188 200.63363647460938 113.42500305175781 C 201.82550048828125 112.66781616210938 203.02200317382812 111.79548645019531 203.66867065429688 110.54080200195312 C 204.21026611328125 109.34342956542969 204.39175415039062 108.01431274414062 204.1910400390625 106.715576171875 C 203.73538208007812 102.75227355957031 201.5640869140625 99.1883544921875 198.25103759765625 96.96591186523438 L 196.88375854492188 99.1488037109375" stroke-width="0.6000000238418579" fill="rgb(70, 150, 179)" opacity="1.0"/>
    <path d="M 268.04229736328125 133.24618530273438 C 265.6072998046875 137.43617248535156 263.084228515625 142.1826934814453 264.2423400878906 146.88523864746094 C 265.4894714355469 151.9360809326172 270.75213623046875 155.1195068359375 275.9113464355469 155.78857421875 C 277.9004211425781 156.04739379882812 280.0071105957031 155.99652099609375 281.7955627441406 155.08880615234375 C 283.26605224609375 154.34317016601562 284.4026794433594 153.0846405029297 285.43231201171875 151.79742431640625 C 288.6841125488281 147.7420654296875 291.33880615234375 142.73095703125 290.7245788574219 137.5703887939453 C 290.1019287109375 132.3697509765625 285.8413391113281 127.7960205078125 280.6876525878906 126.83570861816406 C 275.5339660644531 125.87539672851562 269.893310546875 128.5506134033203 267.4118957519531 133.17247009277344 L 268.04229736328125 133.24618530273438" stroke-width="0.6000000238418579" fill="rgb(140, 28, 33)" opacity="1.0"/>
    <path d="M 308.7081604003906 121.8780517578125 C 304.4627990722656 121.49429321289062 300.0410461425781 121.14178466796875 296.0215759277344 122.57029724121094 C 292.002197265625 123.99879455566406 288.46942138671875 127.77114868164062 288.7312927246094 132.02806091308594 C 289.0662536621094 137.2820587158203 295.2249755859375 140.72633361816406 300.3995666503906 139.7059326171875 C 305.5741271972656 138.68551635742188 309.57452392578125 134.4889373779297 312.2107238769531 129.92840576171875 C 313.1682434082031 128.59841918945312 313.5923767089844 126.9578857421875 313.3994140625 125.33050537109375 C 313.0411376953125 123.75857543945312 311.043212890625 122.526123046875 309.7353515625 123.48251342773438 L 308.7081604003906 121.8780517578125" stroke-width="0.6000000238418579" fill="rgb(159, 159, 159)" opacity="1.0"/>
    <path d="M 196.9669189453125 132.4659881591797 C 193.92428588867188 128.6681671142578 189.51419067382812 125.830078125 184.67718505859375 125.32073974609375 C 179.84014892578125 124.8114013671875 174.65203857421875 126.88174438476562 172.000244140625 130.98350524902344 C 170.1290283203125 133.8858642578125 169.64480590820312 137.5463104248047 170.2110595703125 140.9558868408203 C 170.77728271484375 144.365478515625 172.31875610351562 147.54942321777344 174.2266845703125 150.43209838867188 C 175.0577392578125 151.6860809326172 176.02020263671875 152.9412841796875 177.389892578125 153.5539093017578 C 178.95993041992188 154.25701904296875 180.7740478515625 153.98846435546875 182.46096801757812 153.62559509277344 C 187.22344970703125 152.60110473632812 192.01031494140625 150.8077392578125 195.3929443359375 147.30136108398438 C 198.77557373046875 143.79495239257812 200.39068603515625 138.25645446777344 198.2650146484375 133.88600158691406 L 196.9669189453125 132.4659881591797" stroke-width="0.6000000238418579" fill="rgb(159, 159, 159)" opacity="1.0"/>
    <path d="M 283.6634216308594 100.7623291015625 C 280.1235046386719 103.44462585449219 276.3049621582031 106.57949829101562 275.65594482421875 110.96440124511719 C 275.0187683105469 115.22785949707031 277.5792541503906 119.2515869140625 280.0859680175781 122.76101684570312 C 281.10638427734375 124.1851806640625 282.1966247558594 125.65878295898438 283.7684326171875 126.43046569824219 C 286.42608642578125 127.7371826171875 289.6315002441406 126.67999267578125 292.1998596191406 125.21417236328125 C 294.584228515625 123.85456848144531 296.7610168457031 122.15962219238281 298.6636047363281 120.18122863769531 C 301.7540283203125 116.97000122070312 304.166748046875 112.37338256835938 302.7257080078125 108.15769958496094 C 301.9510803222656 105.88067626953125 300.132080078125 104.06410217285156 298.06134033203125 102.83331298828125 C 295.9906311035156 101.60250854492188 293.6556396484375 100.89497375488281 291.3405456542969 100.22935485839844 C 289.0254821777344 99.563720703125 286.73638916015625 98.95928955078125 284.408935546875 99.29457092285156 L 283.6634216308594 100.7623291015625" stroke-width="0.6000000238418579" fill="rgb(218, 166, 20)" opacity="1.0"/>
    <path d="M 238.06341552734375 115.63442993164062 C 238.21511840820312 122.84231567382812 244.1812744140625 128.5625 251.38916015625 128.41079711914062 C 252.00634765625 128.39781188964844 252.62188720703125 128.34104919433594 253.2310791015625 128.24095153808594 C 255.5457763671875 127.86016845703125 257.8385925292969 126.77145385742188 259.1891784667969 124.85482788085938 C 260.3306579589844 123.23524475097656 260.6983642578125 121.20172119140625 260.8379821777344 119.22654724121094 C 261.2043151855469 113.93899536132812 260.1482238769531 108.6497802734375 257.7793884277344 103.90835571289062 C 257.151123046875 102.6561279296875 256.40472412109375 101.415283203125 255.2843017578125 100.5692138671875 C 253.40411376953125 99.147705078125 250.7716064453125 99.10113525390625 248.5166015625 99.79287719726562 C 245.16796875 100.81753540039062 242.36892700195312 103.30987548828125 240.62579345703125 106.34796142578125 C 238.88262939453125 109.38606262207031 238.13623046875 112.93009948730469 238.12994384765625 116.43243408203125 L 238.06341552734375 115.63442993164062" stroke-width="0.6000000238418579" fill="rgb(143, 165, 67)" opacity="1.0"/>
    <path d="M 250.60702514648438 90.69496154785156 C 249.15695190429688 99.36172485351562 260.0010986328125 107.06463623046875 267.9452209472656 103.44306945800781 C 275.8893127441406 99.82147216796875 277.4553527832031 87.26692199707031 271.0249328613281 81.27426147460938 C 264.5945129394531 75.28158569335938 252.89208984375 77.11846923828125 248.05392456054688 84.46676635742188 L 250.60702514648438 90.69496154785156" stroke-width="0.6000000238418579" fill="rgb(233, 92, 21)" opacity="1.0"/>
    <path d="M 339.0595397949219 82.08499145507812 C 335.5027770996094 79.7532958984375 331.01226806640625 77.3369140625 327.2510681152344 79.35287475585938 C 325.78546142578125 80.21340942382812 324.6230163574219 81.50749206542969 323.924072265625 83.05667114257812 C 322.0915832519531 86.84318542480469 322.20806884765625 91.28302001953125 324.2366027832031 94.96823120117188 C 325.9653625488281 98.08990478515625 328.9063720703125 100.28375244140625 331.7975769042969 102.3377685546875 C 333.4235534667969 103.48896789550781 335.187744140625 104.6602783203125 337.16815185546875 104.7208251953125 C 339.8085021972656 104.77987670898438 342.05596923828125 102.84568786621094 343.77508544921875 100.84188842773438 C 346.2947082519531 97.91242980957031 348.32354736328125 94.594482421875 349.782958984375 91.0167236328125 C 350.2848205566406 89.77957153320312 350.7270812988281 88.45123291015625 350.5361633300781 87.13037109375 C 350.2958068847656 85.91130065917969 349.7059326171875 84.78848266601562 348.8385009765625 83.89886474609375 C 346.3121337890625 81.09794616699219 342.68426513671875 79.5462646484375 338.9138488769531 79.65399169921875 L 339.0595397949219 82.08499145507812" stroke-width="0.6000000238418579" fill="rgb(70, 150, 179)" opacity="1.0"/>
    <path d="M 334.18792724609375 134.74969482421875 C 333.20611572265625 129.97140502929688 331.9172058105469 124.71626281738281 327.89434814453125 121.96270751953125 C 323.57110595703125 119.00735473632812 317.4856872558594 120.14665222167969 313.16400146484375 123.10409545898438 C 311.49725341796875 124.24366760253906 309.94989013671875 125.69456481933594 309.21600341796875 127.57530212402344 C 308.61212158203125 129.12115478515625 308.6028137207031 130.828125 308.6930847167969 132.48489379882812 C 308.971435546875 137.70985412597656 310.33892822265625 143.2518768310547 314.2606506347656 146.71400451660156 C 318.215576171875 150.2005615234375 324.4810791015625 150.7769317626953 328.993896484375 148.04183959960938 C 333.5067443847656 145.30674743652344 335.9471740722656 139.51589965820312 334.7106018066406 134.3822784423828 L 334.18792724609375 134.74969482421875" stroke-width="0.6000000238418579" fill="rgb(140, 28, 33)" opacity="1.0"/>
    <path d="M 346.7266540527344 107.68057250976562 C 342.3281555175781 106.7957763671875 337.7414855957031 105.92359924316406 333.3730773925781 106.96078491210938 C 329.0047302246094 107.99798583984375 324.8787536621094 111.5430908203125 324.6681823730469 116.02719116210938 C 324.4206237792969 121.56291198730469 330.4728088378906 125.86793518066406 336.0034484863281 125.38925170898438 C 341.5340881347656 124.91055297851562 346.1976623535156 120.97477722167969 349.4752502441406 116.50288391113281 C 350.6285400390625 115.22023010253906 351.2590637207031 113.55191040039062 351.242431640625 111.82711791992188 C 351.0464782714844 110.14151000976562 349.09619140625 108.62451171875 347.6188049316406 109.47636413574219 L 346.7266540527344 107.68057250976562" stroke-width="0.6000000238418579" fill="rgb(159, 159, 159)" opacity="1.0"/>
    <path d="M 347.45611572265625 125.9495849609375 C 343.33807373046875 126.88894653320312 339.45220947265625 129.2596893310547 337.2237548828125 132.84523010253906 C 334.9953308105469 136.43075561523438 334.6490783691406 141.266845703125 336.8494873046875 144.89053344726562 C 338.4084167480469 147.45054626464844 341.08441162109375 149.21409606933594 343.9620056152344 150.0621337890625 C 346.839599609375 150.91018676757812 349.9100341796875 150.9110870361328 352.8837890625 150.51170349121094 C 354.1778259277344 150.33712768554688 355.52252197265625 150.0603485107422 356.5194396972656 149.22230529785156 C 357.6628112792969 148.26202392578125 358.13958740234375 146.7433319091797 358.49456787109375 145.288330078125 C 359.4966735839844 141.1805419921875 359.9074401855469 136.7626953125 358.44866943359375 132.79347229003906 C 356.9898986816406 128.82423400878906 353.27490234375 125.46658325195312 349.05657958984375 125.47299194335938 L 347.45611572265625 125.9495849609375" stroke-width="0.6000000238418579" fill="rgb(159, 159, 159)" opacity="1.0"/>
    <path d="M 359.75958251953125 107.47076416015625 C 355.6766357421875 107.42123413085938 351.1361083984375 107.54302978515625 348.19146728515625 110.36027526855469 C 345.3239440917969 113.09602355957031 344.91302490234375 117.46148681640625 344.75323486328125 121.42324829101562 C 344.690673828125 123.03277587890625 344.6509094238281 124.71755981445312 345.356689453125 126.16441345214844 C 346.5489807128906 128.61221313476562 349.4723815917969 129.65286254882812 352.1637878417969 130.03749084472656 C 354.6617431640625 130.39544677734375 357.1981201171875 130.3928680419922 359.6953430175781 130.0298309326172 C 363.7503356933594 129.44183349609375 368.09478759765625 127.46578979492188 369.4266662597656 123.59243774414062 C 370.14874267578125 121.50241088867188 369.8529052734375 119.15754699707031 369.04388427734375 117.095947265625 C 368.23486328125 115.03436279296875 366.9388732910156 113.20356750488281 365.6336364746094 111.4144287109375 C 364.3283996582031 109.62527465820312 363.007568359375 107.89523315429688 361.1287536621094 106.82574462890625 L 359.75958251953125 107.47076416015625" stroke-width="0.6000000238418579" fill="rgb(218, 166, 20)" opacity="1.0"/>
    <path d="M 431.79534912109375 146.24256896972656 C 424.85546875 148.52810668945312 421.0823974609375 156.00677490234375 423.367919921875 162.9466552734375 C 423.5635986328125 163.54092407226562 423.80126953125 164.12054443359375 424.0789794921875 164.68121337890625 C 425.13470458984375 166.81130981445312 426.8699951171875 168.710205078125 429.1280517578125 169.4503173828125 C 431.03619384765625 170.07598876953125 433.11590576171875 169.8289794921875 435.0714111328125 169.37823486328125 C 440.3040771484375 168.16448974609375 445.11627197265625 165.57180786132812 449.0081787109375 161.8695068359375 C 450.0352783203125 160.88916015625 451.0162353515625 159.7977294921875 451.5037841796875 158.46090698242188 C 452.323486328125 156.2171630859375 451.5875244140625 153.65228271484375 450.2481689453125 151.67225646972656 C 448.26171875 148.7312774658203 445.0159912109375 146.75827026367188 441.5546875 145.97044372558594 C 438.09344482421875 145.1826171875 434.4376220703125 145.51077270507812 431.041748046875 146.54379272460938 L 431.79534912109375 146.24256896972656" stroke-width="0.6000000238418579" fill="rgb(143, 165, 67)" opacity="1.0"/>
    <path d="M 144.35055541992188 414.067626953125 C 143.6669464111328 422.684814453125 154.95013427734375 429.31109619140625 162.42745971679688 425.0858154296875 C 169.90478515625 420.8604736328125 170.37118530273438 408.42327880859375 163.55917358398438 403.0974426269531 C 156.74716186523438 397.7716369628906 145.43467712402344 400.56768798828125 141.3184051513672 408.1810302734375 L 144.35055541992188 414.067626953125" stroke-width="0.6000000238418579" fill="rgb(233, 92, 21)" opacity="1.0"/>
    <path d="M 434.9696044921875 190.30087280273438 C 430.771728515625 189.3919677734375 425.6629638671875 188.74163818359375 422.84808349609375 192.005126953125 C 421.7784423828125 193.34747314453125 421.151611328125 194.98867797851562 421.05419921875 196.70233154296875 C 420.69915771484375 200.93585205078125 422.4180908203125 205.078857421875 425.6658935546875 207.81756591796875 C 428.4268798828125 210.1336669921875 431.994384765625 211.13580322265625 435.4642333984375 212.02423095703125 C 437.4141845703125 212.52008056640625 439.501708984375 212.98486328125 441.3905029296875 212.32418823242188 C 443.90087890625 211.42291259765625 445.31842041015625 208.78509521484375 446.2127685546875 206.27313232421875 C 447.52618408203125 202.5985107421875 448.2362060546875 198.73550415039062 448.315185546875 194.833984375 C 448.33990478515625 193.48590087890625 448.275390625 192.07342529296875 447.61669921875 190.89752197265625 C 446.94830322265625 189.83544921875 445.9853515625 188.99081420898438 444.84521484375 188.46661376953125 C 441.4486083984375 186.74188232421875 437.46636962890625 186.59402465820312 433.95123291015625 188.06207275390625 L 434.9696044921875 190.30087280273438" stroke-width="0.6000000238418579" fill="rgb(70, 150, 179)" opacity="1.0"/>
    <path d="M 406.79119873046875 160.46792602539062 C 405.76507568359375 155.96343994140625 404.4385681152344 151.01365661621094 400.57391357421875 148.48770141601562 C 396.4207763671875 145.77676391601562 390.68182373046875 146.9783935546875 386.6495666503906 149.8659210205078 C 385.09442138671875 150.97857666015625 383.65863037109375 152.38360595703125 383.001708984375 154.17919921875 C 382.4611511230469 155.6550750732422 382.48681640625 157.271484375 382.6057434082031 158.83837890625 C 382.9748229980469 163.77999877929688 384.381591796875 168.99981689453125 388.1647644042969 172.19873046875 C 391.9798583984375 175.42010498046875 397.9239807128906 175.83929443359375 402.1416931152344 173.158447265625 C 406.3594055175781 170.47760009765625 408.5531921386719 164.94525146484375 407.2786865234375 160.1094970703125 L 406.79119873046875 160.46792602539062" stroke-width="0.6000000238418579" fill="rgb(140, 28, 33)" opacity="1.0"/>
    <path d="M 141.85740661621094 128.26681518554688 C 137.57339477539062 129.82420349121094 133.13279724121094 131.49197387695312 129.890869140625 134.7010498046875 C 126.64900207519531 137.9100799560547 124.94309997558594 143.1669464111328 127.13070678710938 147.1688232421875 C 129.84210205078125 152.10269165039062 137.36886596679688 152.638671875 141.9144287109375 149.29983520507812 C 146.45997619628906 145.9609832763672 148.42579650878906 140.08099365234375 148.9056854248047 134.46847534179688 C 149.22830200195312 132.74595642089844 148.8935089111328 130.96514892578125 147.9673309326172 129.4774627685547 C 146.9062957763672 128.11854553222656 144.4122772216797 127.83326721191406 143.5807342529297 129.35330200195312 L 141.85740661621094 128.26681518554688" stroke-width="0.6000000238418579" fill="rgb(159, 159, 159)" opacity="1.0"/>
    <path d="M 424.5040283203125 174.46517944335938 C 420.82049560546875 172.23074340820312 416.2911376953125 171.209716796875 412.1138916015625 172.25491333007812 C 407.9366760253906 173.30014038085938 404.25079345703125 176.59732055664062 403.291015625 180.81365966796875 C 402.6162414550781 183.7955322265625 403.3250427246094 186.9866943359375 404.831298828125 189.65023803710938 C 406.3375549316406 192.31378173828125 408.5863037109375 194.49356079101562 411.0483703613281 196.31149291992188 C 412.1202392578125 197.10198974609375 413.30181884765625 197.85357666015625 414.626953125 197.9471435546875 C 416.1461181640625 198.05508422851562 417.5732421875 197.2808837890625 418.86590576171875 196.46685791015625 C 422.515380859375 194.168701171875 425.95166015625 191.22369384765625 427.70001220703125 187.28057861328125 C 429.4483642578125 183.33740234375 429.10968017578125 178.24099731445312 426.0147705078125 175.25189208984375 L 424.5040283203125 174.46517944335938" stroke-width="0.6000000238418579" fill="rgb(159, 159, 159)" opacity="1.0"/>
    <path d="M 405.36212158203125 186.39581298828125 C 405.1015930175781 182.21923828125 404.63104248046875 177.588134765625 401.52740478515625 174.79339599609375 C 398.512939453125 172.07125854492188 394.0201110839844 171.9840087890625 389.958984375 172.12261962890625 C 388.3092956542969 172.18133544921875 386.58441162109375 172.26910400390625 385.1595153808594 173.1007080078125 C 382.7487487792969 174.50576782226562 381.9079895019531 177.57281494140625 381.7200012207031 180.35272216796875 C 381.5445251464844 182.93292236328125 381.740478515625 185.52490234375 382.30181884765625 188.04937744140625 C 383.2117919921875 192.1488037109375 385.5624084472656 196.438232421875 389.6224670410156 197.50421142578125 C 391.8135070800781 198.08291625976562 394.18743896484375 197.60186767578125 396.23272705078125 196.617919921875 C 398.27801513671875 195.63397216796875 400.0503234863281 194.169921875 401.77935791015625 192.69964599609375 C 403.5083923339844 191.22933959960938 405.17584228515625 189.74758911132812 406.12567138671875 187.74594116210938 L 405.36212158203125 186.39581298828125" stroke-width="0.6000000238418579" fill="rgb(218, 166, 20)" opacity="1.0"/>
    <path d="M 445.42950439453125 178.52044677734375 C 445.327392578125 185.369873046875 450.7972412109375 191.00518798828125 457.64666748046875 191.10723876953125 C 458.233154296875 191.115966796875 458.819580078125 191.08309936523438 459.4014892578125 191.00885009765625 C 461.61236572265625 190.726318359375 463.82672119140625 189.77081298828125 465.174560546875 187.99700927734375 C 466.31378173828125 186.49810791015625 466.732421875 184.57974243164062 466.932373046875 182.708984375 C 467.4608154296875 177.70071411132812 466.6385498046875 172.64230346679688 464.5511474609375 168.0592041015625 C 463.997314453125 166.84869384765625 463.33099365234375 165.64495849609375 462.29595947265625 164.80331420898438 C 460.5592041015625 163.38934326171875 458.06103515625 163.25521850585938 455.896240234375 163.8350830078125 C 452.6815185546875 164.69369506835938 449.9385986328125 166.9647216796875 448.1796875 169.79000854492188 C 446.4207763671875 172.61529541015625 445.5909423828125 175.95504760742188 445.4654541015625 179.28045654296875 L 445.42950439453125 178.52044677734375" stroke-width="0.6000000238418579" fill="rgb(143, 165, 67)" opacity="1.0"/>
    <path d="M 148.54713439941406 102.01492309570312 C 139.501220703125 108.5506591796875 142.4229736328125 125.18925476074219 152.8327178955078 129.00811767578125 C 163.24246215820312 132.82693481445312 175.86331176757812 122.88223266601562 175.40264892578125 111.72842407226562 C 174.9420166015625 100.5745849609375 162.72979736328125 91.78874206542969 151.79969787597656 94.109130859375 L 148.54713439941406 102.01492309570312" stroke-width="0.6000000238418579" fill="rgb(233, 92, 21)" opacity="1.0"/>
    <path d="M 454.7459716796875 149.69496154785156 C 452.224853515625 153.7119903564453 449.6300048828125 158.77188110351562 451.960693359375 162.92083740234375 C 452.9525146484375 164.53582763671875 454.4210205078125 165.80328369140625 456.16363525390625 166.54830932617188 C 460.42578125 168.50775146484375 465.37322998046875 168.27978515625 469.4371337890625 165.93673706054688 C 472.87939453125 163.94036865234375 475.2603759765625 160.6129150390625 477.486572265625 157.34405517578125 C 478.734130859375 155.5058135986328 480.0010986328125 153.5130157470703 480.02484130859375 151.30369567871094 C 480.0323486328125 148.3585968017578 477.8262939453125 145.89559936523438 475.55419921875 144.02317810058594 C 472.232421875 141.27871704101562 468.4884033203125 139.08999633789062 464.46722412109375 137.5419158935547 C 463.0767822265625 137.00970458984375 461.5860595703125 136.5459747314453 460.11761474609375 136.7880096435547 C 458.7637939453125 137.08290100097656 457.52496337890625 137.76536560058594 456.55224609375 138.7521514892578 C 453.4852294921875 141.6306915283203 451.83538818359375 145.7097625732422 452.038818359375 149.9110870361328 L 454.7459716796875 149.69496154785156" stroke-width="0.6000000238418579" fill="rgb(70, 150, 179)" opacity="1.0"/>
    <path d="M 374.29296875 78.25315856933594 C 374.8022766113281 72.77676391601562 375.1368713378906 66.68524169921875 371.7013854980469 62.394683837890625 C 368.00811767578125 57.78788757324219 361.0700988769531 57.0194091796875 355.4377746582031 58.790985107421875 C 353.265869140625 59.473114013671875 351.12060546875 60.530242919921875 349.711669921875 62.31803894042969 C 348.55291748046875 63.787261962890625 347.98260498046875 65.62545776367188 347.53619384765625 67.44215393066406 C 346.1214599609375 73.16946411132812 345.7774963378906 79.59623718261719 348.871337890625 84.61788940429688 C 351.9929504394531 89.67678833007812 358.56207275390625 92.35498046875 364.32757568359375 90.885986328125 C 370.0931091308594 89.4169921875 374.626220703125 83.9716796875 374.97735595703125 78.02841186523438 L 374.29296875 78.25315856933594" stroke-width="0.6000000238418579" fill="rgb(140, 28, 33)" opacity="1.0"/>
    <path d="M 133.43368530273438 411.3080749511719 C 130.2216033935547 415.044677734375 126.92044067382812 418.96826171875 125.56515502929688 423.7093505859375 C 124.20989990234375 428.450439453125 125.38670349121094 434.3076171875 129.5677490234375 436.9200439453125 C 134.73602294921875 440.13330078125 142.1126251220703 436.65179443359375 144.6276092529297 431.097900390625 C 147.14259338378906 425.5440673828125 145.8806915283203 418.96197509765625 143.36021423339844 413.4189453125 C 142.75189208984375 411.6248779296875 141.4932098388672 410.1241149902344 139.8324737548828 409.2127685546875 C 138.11288452148438 408.49420166015625 135.61158752441406 409.54632568359375 135.6331024169922 411.41912841796875 L 133.43368530273438 411.3080749511719" stroke-width="0.6000000238418579" fill="rgb(159, 159, 159)" opacity="1.0"/>
    <path d="M 416.756103515625 209.5419921875 C 413.762939453125 204.839111328125 409.0932922363281 201.059326171875 403.648193359375 199.87844848632812 C 398.20306396484375 198.69757080078125 392.0376892089844 200.41082763671875 388.50830078125 204.75250244140625 C 386.01690673828125 207.82525634765625 385.0107421875 211.93359375 385.2320861816406 215.88674926757812 C 385.4533996582031 219.83990478515625 386.81329345703125 223.65725708007812 388.62799072265625 227.17703247070312 C 389.4185791015625 228.70828247070312 390.3587341308594 230.25726318359375 391.8424377441406 231.12506103515625 C 393.54302978515625 232.12075805664062 395.6423034667969 232.040283203125 397.6084289550781 231.83660888671875 C 403.1591796875 231.26150512695312 408.8332214355469 229.81381225585938 413.120849609375 226.240966796875 C 417.4085693359375 222.66806030273438 419.935791015625 216.56146240234375 418.0579833984375 211.32037353515625 L 416.756103515625 209.5419921875" stroke-width="0.6000000238418579" fill="rgb(159, 159, 159)" opacity="1.0"/>
    <path d="M 379.4072570800781 119.77752685546875 C 374.4251403808594 120.08868408203125 368.9007873535156 120.650390625 365.5672912597656 124.35292053222656 C 362.32037353515625 127.94906616210938 362.2167053222656 133.30848693847656 362.38238525390625 138.1529083251953 C 362.4526062011719 140.12078857421875 362.55743408203125 142.17837524414062 363.549560546875 143.87803649902344 C 365.2258605957031 146.75369262695312 368.8845520019531 147.75634765625 372.20068359375 147.98033142089844 C 375.2785339355469 148.1894073486328 378.3704833984375 147.9554443359375 381.3818359375 147.28561401367188 C 386.2718811035156 146.19976806640625 391.38848876953125 143.39537048339844 392.6596984863281 138.55209350585938 C 393.3498229980469 135.93838500976562 392.7757568359375 133.10662841796875 391.60186767578125 130.6669158935547 C 390.427978515625 128.22720336914062 388.6813659667969 126.11318969726562 386.92730712890625 124.05078125 C 385.17327880859375 121.98837280273438 383.40557861328125 119.99943542480469 381.01776123046875 118.8665771484375 L 379.4072570800781 119.77752685546875" stroke-width="0.6000000238418579" fill="rgb(218, 166, 20)" opacity="1.0"/>
    <path d="M 403.51904296875 77.81707763671875 C 397.7703552246094 70.48110961914062 387.16314697265625 69.19436645507812 379.8271789550781 74.94305419921875 C 379.198974609375 75.435302734375 378.6065368652344 75.97151184082031 378.05419921875 76.54762268066406 C 375.95599365234375 78.73709106445312 374.4295959472656 81.64170837402344 374.5198974609375 84.67144775390625 C 374.595947265625 87.23178100585938 375.79327392578125 89.61993408203125 377.18121337890625 91.770751953125 C 380.9044189453125 97.52279663085938 386.099853515625 102.17303466796875 392.2278137207031 105.2384033203125 C 393.8489685058594 106.04592895507812 395.58343505859375 106.75004577636719 397.3984375 106.7557373046875 C 400.4455261230469 106.76710510253906 403.20391845703125 104.77297973632812 404.9991760253906 102.30821228027344 C 407.6670227050781 98.65080261230469 408.62799072265625 93.90200805664062 408.0736389160156 89.40802001953125 C 407.519287109375 84.91403198242188 405.541748046875 80.67008972167969 402.8311767578125 77.04345703125 L 403.51904296875 77.81707763671875" stroke-width="0.6000000238418579" fill="rgb(143, 165, 67)" opacity="1.0"/>
    <path d="M 122.11962890625 430.4146728515625 C 115.01425170898438 422.5787353515625 99.64698791503906 427.0760498046875 97.14129638671875 437.2825927734375 C 94.63563537597656 447.4891357421875 105.32717895507812 458.33514404296875 115.78585815429688 456.7314453125 C 126.24453735351562 455.1278076171875 133.24014282226562 442.702392578125 129.90805053710938 432.6495361328125 L 122.11962890625 430.4146728515625" stroke-width="0.6000000238418579" fill="rgb(233, 92, 21)" opacity="1.0"/>
    <path d="M 450.0823974609375 203.231201171875 C 447.1676025390625 207.36749267578125 444.11480712890625 212.6107177734375 446.36175537109375 217.16387939453125 C 447.32647705078125 218.94100952148438 448.81884765625 220.37506103515625 450.63311767578125 221.26806640625 C 455.0625 223.59841918945312 460.3466796875 223.6373291015625 464.8099365234375 221.37237548828125 C 468.59112548828125 219.44140625 471.3173828125 216.03179931640625 473.87542724609375 212.6759033203125 C 475.309326171875 210.78839111328125 476.77264404296875 208.73733520507812 476.923828125 206.38482666015625 C 477.0994873046875 203.2474365234375 474.8892822265625 200.49765014648438 472.5751953125 198.37332153320312 C 469.1923828125 195.26010131835938 465.3280029296875 192.7149658203125 461.13189697265625 190.83660888671875 C 459.6807861328125 190.19036865234375 458.118896484375 189.61138916015625 456.5406494140625 189.78564453125 C 455.0814208984375 190.022705078125 453.72265625 190.67929077148438 452.630126953125 191.67526245117188 C 449.198486328125 194.5675048828125 447.2083740234375 198.81951904296875 447.18585205078125 203.30731201171875 L 450.0823974609375 203.231201171875" stroke-width="0.6000000238418579" fill="rgb(70, 150, 179)" opacity="1.0"/>
    <path d="M 421.39599609375 134.98680114746094 C 422.5853271484375 129.49159240722656 423.67279052734375 123.35066223144531 420.7130126953125 118.57456970214844 C 417.530517578125 113.44589233398438 410.5837707519531 111.81414794921875 404.6502685546875 112.92051696777344 C 402.3623962402344 113.34611511230469 400.0554504394531 114.15554809570312 398.4060974121094 115.79692077636719 C 397.0497131347656 117.14569091796875 396.2452697753906 118.941162109375 395.56915283203125 120.73004150390625 C 393.4302062988281 126.36871337890625 392.2920837402344 132.84873962402344 394.8153076171875 138.3248291015625 C 397.3621520996094 143.84214782714844 403.7000427246094 147.36668395996094 409.7315673828125 146.583740234375 C 415.7630615234375 145.80081176757812 421.0321044921875 140.83119201660156 422.1181640625 134.8427276611328 L 421.39599609375 134.98680114746094" stroke-width="0.6000000238418579" fill="rgb(140, 28, 33)" opacity="1.0"/>
    <path d="M 399.9700012207031 68.64920043945312 C 401.1877746582031 73.39505004882812 402.5072326660156 78.31993103027344 405.6009521484375 82.12382507324219 C 408.6946105957031 85.92764282226562 414.13970947265625 88.3026123046875 418.649658203125 86.38114929199219 C 424.21142578125 83.99688720703125 425.5723876953125 76.0010986328125 422.476318359375 70.78907775878906 C 419.380126953125 65.57704162597656 413.295654296875 62.85882568359375 407.3418273925781 61.75816345214844 C 405.53289794921875 61.2327880859375 403.59283447265625 61.40460205078125 401.9044189453125 62.239715576171875 C 400.3396911621094 63.232574462890625 399.7735290527344 65.8707275390625 401.3126220703125 66.91934204101562 L 399.9700012207031 68.64920043945312" stroke-width="0.6000000238418579" fill="rgb(159, 159, 159)" opacity="1.0"/>
    <path d="M 439.32928466796875 236.861572265625 C 435.62109375 241.0704345703125 433.274169921875 246.6414794921875 433.65618896484375 252.23489379882812 C 434.0382080078125 257.82830810546875 437.419189453125 263.3082275390625 442.60308837890625 265.5048828125 C 446.2701416015625 267.05328369140625 450.52264404296875 266.8763427734375 454.28167724609375 265.556396484375 C 458.040771484375 264.2364807128906 461.3499755859375 261.8540344238281 464.244384765625 259.1152648925781 C 465.503173828125 257.92266845703125 466.7373046875 256.5805969238281 467.1610107421875 254.9036865234375 C 467.64764404296875 252.98138427734375 466.9825439453125 250.97482299804688 466.23553466796875 249.13140869140625 C 464.126708984375 243.92718505859375 461.139892578125 238.847900390625 456.4869384765625 235.70321655273438 C 451.8338623046875 232.55853271484375 445.224365234375 231.82427978515625 440.6839599609375 235.10568237304688 L 439.32928466796875 236.861572265625" stroke-width="0.6000000238418579" fill="rgb(159, 159, 159)" opacity="1.0"/>
    <path d="M 407.56768798828125 263.3301086425781 C 405.1881103515625 258.6419372558594 402.3399658203125 253.53387451171875 397.36859130859375 251.85498046875 C 392.53619384765625 250.21542358398438 387.3100280761719 252.35125732421875 382.6943054199219 254.53271484375 C 380.8205261230469 255.42169189453125 378.8744812011719 256.38153076171875 377.64471435546875 258.05010986328125 C 375.5632019042969 260.8710021972656 376.12005615234375 264.8275146484375 377.28704833984375 268.1278991699219 C 378.3690185546875 271.1916198730469 379.88531494140625 274.0840759277344 381.7895202636719 276.716796875 C 384.8798522949219 280.9927062988281 389.7266540527344 284.77069091796875 394.9407958984375 283.97930908203125 C 397.75634765625 283.5561828613281 400.2553405761719 281.8195495605469 402.1249084472656 279.6664123535156 C 403.9944763183594 277.51324462890625 405.31011962890625 274.942138671875 406.57275390625 272.3853759765625 C 407.83538818359375 269.8286437988281 409.02130126953125 267.289306640625 409.1205749511719 264.5074768066406 L 407.56768798828125 263.3301086425781" stroke-width="0.6000000238418579" fill="rgb(218, 166, 20)" opacity="1.0"/>
    <path d="M 413.1131591796875 91.63552856445312 C 407.0524597167969 98.59182739257812 407.7784729003906 109.14421081542969 414.7347412109375 115.20492553710938 C 415.3304443359375 115.72390747070312 415.962158203125 116.199951171875 416.625244140625 116.62954711914062 C 419.14495849609375 118.26138305664062 422.25341796875 119.20401000976562 425.18212890625 118.55152893066406 C 427.65716552734375 118.00038146972656 429.75579833984375 116.39120483398438 431.588134765625 114.64093017578125 C 436.4864501953125 109.94906616210938 440.0391845703125 104.03125 441.877197265625 97.50216674804688 C 442.36016845703125 95.77552795410156 442.721435546875 93.95802307128906 442.388671875 92.19235229492188 C 441.831787109375 89.22782897949219 439.37896728515625 86.917724609375 436.6480712890625 85.63172912597656 C 432.594970703125 83.71968078613281 427.799072265625 83.67050170898438 423.533203125 85.04707336425781 C 419.267333984375 86.42364501953125 415.5098876953125 89.13726806640625 412.4892578125 92.448486328125 L 413.1131591796875 91.63552856445312" stroke-width="0.6000000238418579" fill="rgb(143, 165, 67)" opacity="1.0"/>
    <path d="M 436.966064453125 125.21780395507812 C 434.919677734375 135.72903442382812 447.881591796875 145.46298217773438 457.67626953125 141.3075714111328 C 467.4708251953125 137.15213012695312 469.783935546875 121.908447265625 462.14373779296875 114.40045166015625 C 454.5035400390625 106.89244079589844 440.1881103515625 108.75238037109375 434.056884765625 117.54804992675781 L 436.966064453125 125.21780395507812" stroke-width="0.6000000238418579" fill="rgb(233, 92, 21)" opacity="1.0"/>
    <path d="M 446.9466552734375 95.70962524414062 C 445.1065673828125 100.70242309570312 443.4263916015625 106.85725402832031 446.9437255859375 110.87413024902344 C 448.4056396484375 112.418212890625 450.310791015625 113.4705810546875 452.3961181640625 113.88604736328125 C 457.5283203125 115.05284118652344 462.90771484375 113.65972900390625 466.828369140625 110.14848327636719 C 470.14654541015625 107.16146850585938 471.9920654296875 102.9581298828125 473.6812744140625 98.85493469238281 C 474.6263427734375 96.5484619140625 475.55712890625 94.06784057617188 475.0728759765625 91.63665771484375 C 474.4007568359375 88.40139770507812 471.40966796875 86.206787109375 468.48260498046875 84.67581176757812 C 464.2015380859375 82.42987060546875 459.58526611328125 80.89166259765625 454.81268310546875 80.12083435058594 C 453.1632080078125 79.85768127441406 451.4193115234375 79.69287109375 449.8629150390625 80.29782104492188 C 448.44464111328125 80.934326171875 447.2421875 81.96977233886719 446.402099609375 83.27789306640625 C 443.69970703125 87.14680480957031 442.8304443359375 92.00645446777344 444.0242919921875 96.572265625 L 446.9466552734375 95.70962524414062" stroke-width="0.6000000238418579" fill="rgb(70, 150, 179)" opacity="1.0"/>
    <path d="M 317.7024230957031 368.59088134765625 C 312.0068054199219 367.7497253417969 305.6583557128906 367.0564880371094 300.9798583984375 370.4056091308594 C 295.95623779296875 374.0063171386719 294.76177978515625 381.2151184082031 296.29595947265625 387.20233154296875 C 296.8865051269531 389.5110168457031 297.87054443359375 391.8130187988281 299.65985107421875 393.38653564453125 C 301.1302490234375 394.68060302734375 303.0195007324219 395.38037109375 304.8932800292969 395.949462890625 C 310.80010986328125 397.75115966796875 317.4984436035156 398.4730529785156 322.921875 395.5223083496094 C 328.3858337402344 392.5446472167969 331.5556945800781 385.8291015625 330.34527587890625 379.7197265625 C 329.1348571777344 373.6103820800781 323.6986389160156 368.56500244140625 317.5060729980469 367.86285400390625 L 317.7024230957031 368.59088134765625" stroke-width="0.6000000238418579" fill="rgb(140, 28, 33)" opacity="1.0"/>
    <path d="M 303.20849609375 397.11932373046875 C 297.97149658203125 397.3387756347656 292.5245361328125 397.6248779296875 287.8562927246094 400.0168151855469 C 283.1881103515625 402.4087219238281 279.49249267578125 407.5788879394531 280.50079345703125 412.7254638671875 C 281.75958251953125 419.0755615234375 289.8243103027344 422.2769775390625 295.9666748046875 420.195556640625 C 302.1090087890625 418.11407470703125 306.3059387207031 412.35107421875 308.7811279296875 406.36529541015625 C 309.73297119140625 404.589111328125 309.9844055175781 402.520751953125 309.48577880859375 400.5682678222656 C 308.7945861816406 398.7101745605469 306.15972900390625 397.53131103515625 304.7203063964844 398.9088134765625 L 303.20849609375 397.11932373046875" stroke-width="0.6000000238418579" fill="rgb(159, 159, 159)" opacity="1.0"/>
    <path d="M 322.4683837890625 414.85784912109375 C 317.0860290527344 417.3206787109375 312.43023681640625 421.68133544921875 310.3949279785156 427.2362060546875 C 308.3595886230469 432.791015625 309.2632141113281 439.525146484375 313.31536865234375 443.8697509765625 C 316.18414306640625 446.937744140625 320.3585205078125 448.59454345703125 324.5484924316406 448.937744140625 C 328.7384948730469 449.28094482421875 332.9515380859375 448.4068603515625 336.9178466796875 447.01104736328125 C 338.6435546875 446.402587890625 340.4096374511719 445.6395263671875 341.5385437011719 444.2054443359375 C 342.83355712890625 442.5618896484375 343.05474853515625 440.34228515625 343.1269836425781 438.2447509765625 C 343.33087158203125 432.32293701171875 342.63494873046875 426.144287109375 339.50189208984375 421.11419677734375 C 336.3688049316406 416.0841064453125 330.3143615722656 412.53631591796875 324.5284423828125 413.7476806640625 L 322.4683837890625 414.85784912109375" stroke-width="0.6000000238418579" fill="rgb(159, 159, 159)" opacity="1.0"/>
    <path d="M 258.9767150878906 416.5390625 C 252.8226318359375 416.56927490234375 245.9833984375 416.86944580078125 241.61834716796875 421.1905517578125 C 237.36734008789062 425.3868408203125 236.8602294921875 431.9759521484375 236.72116088867188 437.9501953125 C 236.66824340820312 440.3773193359375 236.65155029296875 442.917236328125 237.7523193359375 445.07940673828125 C 239.6119384765625 448.737548828125 244.0440673828125 450.23065185546875 248.10977172851562 450.74114990234375 C 251.88323974609375 451.2164306640625 255.70538330078125 451.14739990234375 259.4592590332031 450.53619384765625 C 265.5548400878906 449.54595947265625 272.0509948730469 446.45654296875 273.9585876464844 440.58544921875 C 274.9930725097656 437.41729736328125 274.4870300292969 433.89129638671875 273.2149353027344 430.8052978515625 C 271.9428405761719 427.7193603515625 269.9427795410156 424.9937744140625 267.9299011230469 422.33111572265625 C 265.91705322265625 419.66845703125 263.8821716308594 417.0953369140625 261.0234375 415.5318603515625 L 258.9767150878906 416.5390625" stroke-width="0.6000000238418579" fill="rgb(218, 166, 20)" opacity="1.0"/>
    <path d="M 222.7593994140625 411.3114318847656 C 213.56036376953125 406.49365234375 202.19744873046875 410.0453796386719 197.37966918945312 419.24444580078125 C 196.96710205078125 420.03216552734375 196.6109619140625 420.84814453125 196.31390380859375 421.686279296875 C 195.1856689453125 424.87115478515625 194.9658203125 428.5205078125 196.4453125 431.556396484375 C 197.6953125 434.12200927734375 200.00531005859375 435.9991455078125 202.40020751953125 437.54791259765625 C 208.81646728515625 441.68475341796875 216.223388671875 444.028076171875 223.85153198242188 444.3345947265625 C 225.86801147460938 444.4122314453125 227.95217895507812 444.3328857421875 229.79827880859375 443.50732421875 C 232.8983154296875 442.1231689453125 234.78656005859375 438.834228515625 235.48095703125 435.508544921875 C 236.51535034179688 430.57177734375 235.31619262695312 425.308349609375 232.69467163085938 420.99786376953125 C 230.07315063476562 416.68731689453125 226.12066650390625 413.28271484375 221.7064208984375 410.84075927734375 L 222.7593994140625 411.3114318847656" stroke-width="0.6000000238418579" fill="rgb(143, 165, 67)" opacity="1.0"/>
    <path d="M 280.8768310546875 359.23065185546875 C 286.3668518066406 369.1259765625 303.4710388183594 368.189697265625 308.5705871582031 358.16925048828125 C 313.6700744628906 348.1488037109375 305.1787414550781 334.2433166503906 293.89337158203125 333.3627624511719 C 282.60797119140625 332.48223876953125 272.2903137207031 343.7187805175781 273.3091735839844 355.0030517578125 L 280.8768310546875 359.23065185546875" stroke-width="0.6000000238418579" fill="rgb(233, 92, 21)" opacity="1.0"/>
    <path d="M 335.147705078125 361.06793212890625 C 334.00421142578125 366.58892822265625 333.21087646484375 373.302490234375 337.52789306640625 376.9588623046875 C 339.3025207519531 378.34710693359375 341.4642028808594 379.1504821777344 343.7147216796875 379.2580871582031 C 349.2759704589844 379.6741638183594 354.69390869140625 377.36895751953125 358.2504577636719 373.07342529296875 C 361.258056640625 369.42193603515625 362.5313720703125 364.7273254394531 363.65655517578125 360.1622009277344 C 364.284423828125 357.5968017578125 364.8698425292969 354.85113525390625 363.9803161621094 352.3796691894531 C 362.7676696777344 349.09515380859375 359.2884521484375 347.26556396484375 355.9806213378906 346.1213073730469 C 351.14166259765625 344.4406433105469 346.0626220703125 343.5542907714844 340.9404296875 343.4966125488281 C 339.17059326171875 343.4801025390625 337.31732177734375 343.58148193359375 335.78155517578125 344.4599609375 C 334.3953552246094 345.349853515625 333.29803466796875 346.62384033203125 332.6233825683594 348.1266174316406 C 330.39959716796875 352.6054382324219 330.25250244140625 357.8343505859375 332.2210388183594 362.4311218261719 L 335.147705078125 361.06793212890625" stroke-width="0.6000000238418579" fill="rgb(70, 150, 179)" opacity="1.0"/>
    <path d="M 295.4953308105469 420.8758544921875 C 289.548095703125 419.9554443359375 282.91741943359375 419.1849365234375 278.00299072265625 422.6517333984375 C 272.72601318359375 426.37908935546875 271.42535400390625 433.9053955078125 272.9856872558594 440.1746826171875 C 273.58624267578125 442.592041015625 274.59814453125 445.00537109375 276.45703125 446.6629638671875 C 277.984619140625 448.0262451171875 279.95428466796875 448.7713623046875 281.9087219238281 449.3797607421875 C 288.0697937011719 451.3056640625 295.0660095214844 452.10870361328125 300.75616455078125 449.06365966796875 C 306.4888916015625 445.99072265625 309.8507385253906 438.9942626953125 308.6297607421875 432.5997314453125 C 307.40875244140625 426.2052001953125 301.7630615234375 420.8922119140625 295.2953796386719 420.113525390625 L 295.4953308105469 420.8758544921875" stroke-width="0.6000000238418579" fill="rgb(140, 28, 33)" opacity="1.0"/>
    <path d="M 329.6380615234375 393.8077697753906 C 324.4996337890625 394.7124938964844 319.16278076171875 395.7105407714844 314.8709716796875 398.68408203125 C 310.5792541503906 401.6575927734375 307.61224365234375 407.2445373535156 309.28338623046875 412.19012451171875 C 311.3598937988281 418.290283203125 319.7379455566406 420.38934326171875 325.5250244140625 417.5284423828125 C 331.31207275390625 414.66748046875 334.69586181640625 408.42974853515625 336.35150146484375 402.1983947753906 C 337.0572814941406 400.3207702636719 337.0335693359375 398.24688720703125 336.2850036621094 396.38592529296875 C 335.3588562011719 394.64337158203125 332.6041259765625 393.82647705078125 331.3648986816406 395.3747863769531 L 329.6380615234375 393.8077697753906" stroke-width="0.6000000238418579" fill="rgb(159, 159, 159)" opacity="1.0"/>
    <path d="M 355.5505676269531 415.5152587890625 C 350.46014404296875 418.7232666015625 346.3579406738281 423.7452392578125 345.0571594238281 429.61669921875 C 343.7563781738281 435.4881591796875 345.57586669921875 442.1510009765625 350.2450256347656 445.9813232421875 C 353.5495910644531 448.6851806640625 357.97906494140625 449.79095458984375 362.2469482421875 449.57110595703125 C 366.51483154296875 449.35125732421875 370.6416015625 447.90185546875 374.44940185546875 445.9600830078125 C 376.10595703125 445.1141357421875 377.7823486328125 444.10687255859375 378.72613525390625 442.5096435546875 C 379.8090515136719 440.67889404296875 379.7322692871094 438.41265869140625 379.52191162109375 436.28955078125 C 378.92791748046875 430.295654296875 377.3926696777344 424.1644287109375 373.55694580078125 419.519287109375 C 369.7212219238281 414.874267578125 363.14227294921875 412.1170654296875 357.4762878417969 414.11865234375 L 355.5505676269531 415.5152587890625" stroke-width="0.6000000238418579" fill="rgb(159, 159, 159)" opacity="1.0"/>
    <path d="M 251.64154052734375 364.2410583496094 C 253.6773681640625 358.5239562988281 255.692626953125 352.0809326171875 253.14938354492188 346.5838623046875 C 250.68359375 341.23443603515625 244.7432861328125 338.554443359375 239.24966430664062 336.421875 C 237.01666259765625 335.558837890625 234.6668701171875 334.69158935546875 232.2926025390625 334.98724365234375 C 228.27664184570312 335.48492431640625 225.40557861328125 339.0943603515625 223.56869506835938 342.6934509277344 C 221.86245727539062 346.03338623046875 220.6446533203125 349.60101318359375 219.95254516601562 353.287109375 C 218.82659912109375 359.27191162109375 219.512939453125 366.3321838378906 224.31781005859375 370.0701599121094 C 226.9088134765625 372.09197998046875 230.348388671875 372.80517578125 233.63671875 372.6604309082031 C 236.92510986328125 372.51568603515625 240.12344360351562 371.57501220703125 243.2677001953125 370.601318359375 C 246.41192626953125 369.6276550292969 249.4805908203125 368.60357666015625 251.88909912109375 366.4768371582031 L 251.64154052734375 364.2410583496094" stroke-width="0.6000000238418579" fill="rgb(218, 166, 20)" opacity="1.0"/>
    <path d="M 258.7807922363281 390.2813415527344 C 252.50439453125 382.4896545410156 241.09991455078125 381.2612609863281 233.30819702148438 387.5376892089844 C 232.6409912109375 388.07513427734375 232.01275634765625 388.65924072265625 231.42822265625 389.28558349609375 C 229.20748901367188 391.6660461425781 227.61090087890625 394.8058776855469 227.75146484375 398.0567321777344 C 227.8699951171875 400.803955078125 229.18960571289062 403.35015869140625 230.71044921875 405.6388854980469 C 234.78985595703125 411.75958251953125 240.4337158203125 416.67633056640625 247.05572509765625 419.87841796875 C 248.80752563476562 420.721923828125 250.679443359375 421.4527587890625 252.6278076171875 421.43267822265625 C 255.89874267578125 421.4010009765625 258.8309326171875 419.220703125 260.72247314453125 416.54913330078125 C 263.5334777832031 412.58477783203125 264.49658203125 407.4735412597656 263.8367614746094 402.6575927734375 C 263.1769714355469 397.8416748046875 260.9930725097656 393.3146667480469 258.0312805175781 389.4608459472656 L 258.7807922363281 390.2813415527344" stroke-width="0.6000000238418579" fill="rgb(143, 165, 67)" opacity="1.0"/>
    <path d="M 206.58111572265625 376.4853210449219 C 198.293701171875 384.27264404296875 203.421142578125 400.70550537109375 214.44024658203125 403.20416259765625 C 225.4593505859375 405.7027587890625 236.91400146484375 394.0031433105469 234.9906005859375 382.79144287109375 C 233.06716918945312 371.5797424316406 219.5772705078125 364.2970886230469 208.83477783203125 368.0707092285156 L 206.58111572265625 376.4853210449219" stroke-width="0.6000000238418579" fill="rgb(233, 92, 21)" opacity="1.0"/>
    <path d="M 257.22509765625 367.5982971191406 C 257.9776916503906 373.32562255859375 259.470703125 380.0889892578125 264.87921142578125 382.17333984375 C 267.0638427734375 382.9190673828125 269.4260559082031 382.9685363769531 271.6399841308594 382.3148193359375 C 277.16131591796875 380.84478759765625 281.62762451171875 376.7898254394531 283.6225891113281 371.4357604980469 C 285.3032531738281 366.8896789550781 284.9545593261719 361.9183044433594 284.5060729980469 357.1221008300781 C 284.2497863769531 354.42828369140625 283.8916931152344 351.5743713378906 282.1987609863281 349.4824523925781 C 279.9193420410156 346.71258544921875 275.9366760253906 346.11376953125 272.3506164550781 346.12042236328125 C 267.1023864746094 346.12359619140625 261.8892822265625 346.9761962890625 256.9134826660156 348.64520263671875 C 255.19537353515625 349.22515869140625 253.43624877929688 349.94732666015625 252.24600219726562 351.31451416015625 C 251.204345703125 352.6423645019531 250.571533203125 354.24462890625 250.42474365234375 355.9259338378906 C 249.7811279296875 361.00860595703125 251.3995361328125 366.1177673339844 254.85220336914062 369.9028625488281 L 257.22509765625 367.5982971191406" stroke-width="0.6000000238418579" fill="rgb(70, 150, 179)" opacity="1.0"/>
    <path d="M 332.39215087890625 360.09942626953125 C 335.1883544921875 354.5854797363281 338.0561828613281 348.3562927246094 336.2386474609375 342.45123291015625 C 334.28240966796875 336.1090393066406 327.3477478027344 332.437744140625 320.7279357910156 331.9613037109375 C 318.1756896972656 331.77655029296875 315.4962158203125 331.9947509765625 313.2844543457031 333.2811279296875 C 311.4658508300781 334.3379211425781 310.10986328125 336.02362060546875 308.8922119140625 337.73809814453125 C 305.0458679199219 343.1400451660156 302.0296630859375 349.7157897949219 303.1878356933594 356.24383544921875 C 304.3596496582031 362.8222961425781 310.1192626953125 368.33734130859375 316.75323486328125 369.18511962890625 C 323.3871765136719 370.03289794921875 330.3765869140625 366.21478271484375 333.200439453125 360.14739990234375 L 332.39215087890625 360.09942626953125" stroke-width="0.6000000238418579" fill="rgb(140, 28, 33)" opacity="1.0"/>
    <path d="M 354.85968017578125 399.7156066894531 C 349.69659423828125 400.54638671875 344.3332824707031 401.4677734375 339.9881286621094 404.3844299316406 C 335.6430358886719 407.3010559082031 332.5869445800781 412.8564453125 334.188720703125 417.8375244140625 C 336.17962646484375 423.9818115234375 344.5450744628906 426.209228515625 350.3871154785156 423.4276123046875 C 356.2291564941406 420.6458740234375 359.7125244140625 414.4444580078125 361.4638671875 408.2238464355469 C 362.1989440917969 406.3525390625 362.205810546875 404.27374267578125 361.4831237792969 402.39764404296875 C 360.5806884765625 400.6375732421875 357.8320007324219 399.7781677246094 356.567138671875 401.3115539550781 L 354.85968017578125 399.7156066894531" stroke-width="0.6000000238418579" fill="rgb(159, 159, 159)" opacity="1.0"/>
    <path d="M 182.81307983398438 414.0697021484375 C 176.51068115234375 414.13446044921875 170.09323120117188 416.3599853515625 165.7076416015625 420.882080078125 C 161.32205200195312 425.4041748046875 159.28466796875 432.34619140625 161.34487915039062 438.327392578125 C 162.80682373046875 442.55426025390625 166.14996337890625 445.9737548828125 170.07720947265625 448.1221923828125 C 174.00445556640625 450.2706298828125 178.48129272460938 451.24493408203125 182.944091796875 451.60491943359375 C 184.88626098632812 451.76043701171875 186.93475341796875 451.782958984375 188.65396118164062 450.8768310546875 C 190.62548828125 449.83892822265625 191.80194091796875 447.7755126953125 192.7806396484375 445.76641845703125 C 195.5435791015625 440.09423828125 197.54244995117188 433.782470703125 196.67315673828125 427.532470703125 C 195.8038330078125 421.282470703125 191.4508056640625 415.20928955078125 185.29782104492188 413.8819580078125 L 182.81307983398438 414.0697021484375" stroke-width="0.6000000238418579" fill="rgb(159, 159, 159)" opacity="1.0"/>
    <path d="M 360.0361633300781 366.36444091796875 C 354.18450927734375 367.96600341796875 347.74951171875 369.99969482421875 344.6977844238281 375.2294006347656 C 341.7228088378906 380.3111572265625 342.9239501953125 386.71429443359375 344.3183898925781 392.43804931640625 C 344.8882751464844 394.7624206542969 345.5215148925781 397.18499755859375 347.1221618652344 398.96234130859375 C 349.82757568359375 401.9700012207031 354.4291076660156 402.2589111328125 358.4305725097656 401.7059020996094 C 362.1448059082031 401.19403076171875 365.7662658691406 400.1514892578125 369.1841735839844 398.6101989746094 C 374.7347717285156 396.10955810546875 380.13031005859375 391.5079040527344 380.4460754394531 385.4303894042969 C 380.621337890625 382.14959716796875 379.2384033203125 378.9217834472656 377.2385559082031 376.3087158203125 C 375.23870849609375 373.6956481933594 372.6378479003906 371.6116943359375 370.0408935546875 369.59100341796875 C 367.4439392089844 367.5702819824219 364.848876953125 365.640380859375 361.72747802734375 364.8824462890625 L 360.0361633300781 366.36444091796875" stroke-width="0.6000000238418579" fill="rgb(218, 166, 20)" opacity="1.0"/>
    <path d="M 379.73101806640625 381.5383605957031 C 374.7384033203125 390.4034729003906 377.8777160644531 401.63739013671875 386.7428283691406 406.6300048828125 C 387.5019226074219 407.0575256347656 388.2904357910156 407.4306335449219 389.10235595703125 407.74658203125 C 392.187744140625 408.94647216796875 395.7550354003906 409.2706604003906 398.77227783203125 407.912353515625 C 401.3221740722656 406.7647399902344 403.2294006347656 404.55853271484375 404.8175964355469 402.25933837890625 C 409.060302734375 396.0991516113281 411.5762023925781 388.915283203125 412.10394287109375 381.45404052734375 C 412.2401123046875 379.4815673828125 412.224609375 377.4381408691406 411.4711608886719 375.6055908203125 C 410.2080993652344 372.5283508300781 407.0435485839844 370.5810546875 403.8073425292969 369.8017578125 C 399.0035095214844 368.6414794921875 393.81317138671875 369.6588134765625 389.5135498046875 372.0975341796875 C 385.2139587402344 374.5362243652344 381.76177978515625 378.3054504394531 379.2386779785156 382.5555725097656 L 379.73101806640625 381.5383605957031" stroke-width="0.6000000238418579" fill="rgb(143, 165, 67)" opacity="1.0"/>
    <path d="M 365.0546875 364.03680419921875 C 369.890869140625 374.5613098144531 387.4197082519531 374.93133544921875 393.4008483886719 365.099853515625 C 399.3819274902344 355.268310546875 391.79345703125 340.41845703125 380.3439636230469 338.6451416015625 C 368.89447021484375 336.8718566894531 357.49359130859375 347.5401306152344 357.65887451171875 359.13568115234375 L 365.0546875 364.03680419921875" stroke-width="0.6000000238418579" fill="rgb(233, 92, 21)" opacity="1.0"/>
    <path d="M 397.92041015625 357.8807067871094 C 399.1604309082031 363.6646423339844 401.2415771484375 370.445068359375 406.9338073730469 372.12701416015625 C 409.2251281738281 372.7082214355469 411.64031982421875 372.5640869140625 413.84625244140625 371.7144470214844 C 419.36083984375 369.75909423828125 423.5855712890625 365.252197265625 425.1807861328125 359.62286376953125 C 426.521728515625 354.8442077636719 425.7562255859375 349.798583984375 424.9033203125 344.94000244140625 C 424.4197998046875 342.2115173339844 423.81915283203125 339.3280029296875 421.9188232421875 337.33221435546875 C 419.364013671875 334.6927795410156 415.24951171875 334.4096984863281 411.5897521972656 334.7119140625 C 406.23309326171875 335.14752197265625 400.98223876953125 336.447265625 396.0408935546875 338.5607604980469 C 394.3349914550781 339.2942810058594 392.5989074707031 340.17633056640625 391.49664306640625 341.6698913574219 C 390.5428161621094 343.1110534667969 390.0289001464844 344.79864501953125 390.0176086425781 346.52685546875 C 389.77935791015625 351.7677917480469 391.8522033691406 356.8494567871094 395.688232421875 360.4284973144531 L 397.92041015625 357.8807067871094" stroke-width="0.6000000238418579" fill="rgb(70, 150, 179)" opacity="1.0"/>
    <path d="M 385.3537292480469 414.7421875 C 383.1298522949219 420.6619873046875 380.91339111328125 427.3170166015625 383.4241027832031 433.1165771484375 C 386.1249084472656 439.344970703125 393.5873718261719 442.299072265625 400.37109375 442.0404052734375 C 402.9866638183594 441.9417724609375 405.68634033203125 441.41912841796875 407.7906188964844 439.863037109375 C 409.52093505859375 438.58447265625 410.7102966308594 436.7183837890625 411.75579833984375 434.838623046875 C 415.0599365234375 428.914794921875 417.3883056640625 421.89080810546875 415.47802734375 415.3839111328125 C 413.5482177734375 408.8271789550781 407.0734558105469 403.8666687011719 400.2336730957031 403.7494201660156 C 393.3938903808594 403.6322021484375 386.7164611816406 408.298583984375 384.52655029296875 414.7841796875 L 385.3537292480469 414.7421875" stroke-width="0.6000000238418579" fill="rgb(140, 28, 33)" opacity="1.0"/>
    <path d="M 411.05841064453125 386.0981750488281 C 410.88592529296875 391.3068542480469 410.7638854980469 396.72869873046875 412.7877197265625 401.5353088378906 C 414.8115234375 406.34185791015625 419.662353515625 410.39105224609375 424.8402099609375 409.774658203125 C 431.22998046875 408.99957275390625 435.0047607421875 401.2420349121094 433.3985595703125 394.99700927734375 C 431.79229736328125 388.75201416015625 426.39105224609375 384.16162109375 420.640625 381.26171875 C 418.950439453125 380.1856689453125 416.91845703125 379.7823486328125 414.94549560546875 380.13128662109375 C 413.0517578125 380.6781921386719 411.68670654296875 383.2027893066406 412.94525146484375 384.7325439453125 L 411.05841064453125 386.0981750488281" stroke-width="0.6000000238418579" fill="rgb(159, 159, 159)" opacity="1.0"/>
    <path d="M 439.9151611328125 368.8746337890625 C 441.51983642578125 375.0485534667969 445.2747802734375 380.8071594238281 450.7884521484375 384.0086364746094 C 456.3021240234375 387.2101135253906 463.61822509765625 387.51361083984375 468.98876953125 384.0277099609375 C 472.7825927734375 381.5583190917969 475.3236083984375 377.4387512207031 476.47332763671875 373.0563659667969 C 477.62310791015625 368.6739807128906 477.48529052734375 364.0389099121094 476.74755859375 359.5678405761719 C 476.4254150390625 357.6223449707031 475.9466552734375 355.6049499511719 474.6363525390625 354.1380310058594 C 473.1348876953125 352.4555358886719 470.82073974609375 351.80462646484375 468.608154296875 351.334716796875 C 462.3616943359375 350.00811767578125 455.674072265625 349.5882873535156 449.748291015625 351.9703063964844 C 443.822509765625 354.3523254394531 438.92230224609375 360.11260986328125 439.1231689453125 366.4801940917969 L 439.9151611328125 368.8746337890625" stroke-width="0.6000000238418579" fill="rgb(159, 159, 159)" opacity="1.0"/>
    <path d="M 426.1883544921875 409.8162536621094 C 421.269775390625 413.284912109375 415.9527587890625 417.353515625 414.87042236328125 423.26214599609375 C 413.809814453125 429.0068359375 417.0909423828125 434.5750732421875 420.3232421875 439.44427490234375 C 421.63922119140625 441.42041015625 423.04742431640625 443.46673583984375 425.140380859375 444.584716796875 C 428.67919921875 446.47772216796875 433.06951904296875 445.194580078125 436.61590576171875 443.328369140625 C 439.908203125 441.59759521484375 442.9349365234375 439.4029541015625 445.60345458984375 436.811767578125 C 449.9378662109375 432.60595703125 453.41864013671875 426.49237060546875 451.6624755859375 420.716064453125 C 450.71893310546875 417.59625244140625 448.339599609375 415.0516357421875 445.5921630859375 413.2886962890625 C 442.8447265625 411.5257568359375 439.7152099609375 410.459228515625 436.610595703125 409.4504089355469 C 433.50604248046875 408.4415588378906 430.433837890625 407.51678466796875 427.26611328125 407.86297607421875 L 426.1883544921875 409.8162536621094" stroke-width="0.6000000238418579" fill="rgb(218, 166, 20)" opacity="1.0"/>
    <path d="M 137.44158935546875 222.36233520507812 C 132.03111267089844 231.28985595703125 134.88221740722656 242.9130859375 143.8097381591797 248.32354736328125 C 144.57418823242188 248.786865234375 145.3705596923828 249.19534301757812 146.19284057617188 249.54595947265625 C 149.3175506591797 250.87759399414062 152.96517944335938 251.32696533203125 156.1038818359375 250.03292846679688 C 158.75640869140625 248.93963623046875 160.78460693359375 246.73968505859375 162.4886474609375 244.43392944335938 C 167.04144287109375 238.2557373046875 169.85693359375 230.97116088867188 170.6427001953125 223.33697509765625 C 170.84701538085938 221.31866455078125 170.8980712890625 219.22262573242188 170.18548583984375 217.31866455078125 C 168.9910888671875 214.12158203125 165.8096923828125 212.0208740234375 162.5164794921875 211.11566162109375 C 157.62820434570312 209.768310546875 152.2721710205078 210.6414794921875 147.7830047607422 213.00143432617188 C 143.29383850097656 215.36138916015625 139.63011169433594 219.113525390625 136.90335083007812 223.38934326171875 L 137.44158935546875 222.36233520507812" stroke-width="0.6000000238418579" fill="rgb(143, 165, 67)" opacity="1.0"/>
    <path d="M 173.23590087890625 260.47265625 C 179.46270751953125 271.21148681640625 198.20257568359375 269.8293762207031 203.58746337890625 258.73333740234375 C 208.97232055664062 247.6373291015625 199.3704833984375 232.56259155273438 186.9747314453125 231.83123779296875 C 174.5789794921875 231.09988403320312 163.49630737304688 243.6380615234375 164.84814453125 255.9931640625 L 173.23590087890625 260.47265625" stroke-width="0.6000000238418579" fill="rgb(233, 92, 21)" opacity="1.0"/>
    <path d="M 146.31314086914062 316.7747802734375 C 141.93507385253906 321.05731201171875 137.14952087402344 326.626953125 138.82334899902344 332.539794921875 C 139.58102416992188 334.866943359375 141.04217529296875 336.9016418457031 143.0052490234375 338.3631591796875 C 147.76507568359375 342.11004638671875 154.04574584960938 343.31744384765625 159.85556030273438 341.6024475097656 C 164.78018188476562 340.13507080078125 168.774169921875 336.6760559082031 172.55615234375 333.243896484375 C 174.67752075195312 331.3125 176.869873046875 329.1929016113281 177.566650390625 326.4261474609375 C 178.4652099609375 322.73065185546875 176.4388427734375 318.97222900390625 174.15142822265625 315.93536376953125 C 170.80929565429688 311.4866943359375 166.7691650390625 307.60833740234375 162.18768310546875 304.45068359375 C 160.60263061523438 303.3627014160156 158.87088012695312 302.3304138183594 156.9541015625 302.19097900390625 C 155.1652374267578 302.15252685546875 153.40380859375 302.6354064941406 151.88462829589844 303.58074951171875 C 147.16482543945312 306.2690124511719 143.86187744140625 310.8924560546875 142.8489227294922 316.2288818359375 L 146.31314086914062 316.7747802734375" stroke-width="0.6000000238418579" fill="rgb(70, 150, 179)" opacity="1.0"/>
    <path d="M 127.21871948242188 306.0301208496094 C 126.30926513671875 299.6826171875 125.03468322753906 292.6850891113281 119.97450256347656 288.7532043457031 C 114.53619384765625 284.53271484375 106.46110534667969 285.5451965332031 100.55610656738281 289.0831298828125 C 98.27880859375 290.44622802734375 96.13346862792969 292.227294921875 95.02142333984375 294.6368713378906 C 94.10653686523438 296.6173400878906 93.95901489257812 298.8563232421875 93.94610595703125 301.037353515625 C 93.89712524414062 307.9151611328125 95.25212097167969 315.29534912109375 100.1234130859375 320.14892578125 C 105.03631591796875 325.0372314453125 113.211669921875 326.2901916503906 119.34983825683594 323.0591735839844 C 125.48800659179688 319.82818603515625 129.14923095703125 312.42340087890625 127.93365478515625 305.5894775390625 L 127.21871948242188 306.0301208496094" stroke-width="0.6000000238418579" fill="rgb(140, 28, 33)" opacity="1.0"/>
    <path d="M 140.321044921875 279.8011779785156 C 135.588623046875 281.9595947265625 130.6880645751953 284.2577209472656 127.29017639160156 288.2008361816406 C 123.89236450195312 292.1438903808594 122.42665100097656 298.27764892578125 125.27647399902344 302.6322326660156 C 128.8062744140625 307.9996337890625 137.4163818359375 307.9295654296875 142.28541564941406 303.7210998535156 C 147.15444946289062 299.5126647949219 148.8595428466797 292.6466064453125 148.89854431152344 286.2190246582031 C 149.10997009277344 284.23052978515625 148.5683135986328 282.235107421875 147.38043212890625 280.6264953613281 C 146.05078125 279.1765441894531 143.1880645751953 279.0772705078125 142.37945556640625 280.88140869140625 L 140.321044921875 279.8011779785156" stroke-width="0.6000000238418579" fill="rgb(159, 159, 159)" opacity="1.0"/>
    <path d="M 164.90374755859375 285.97052001953125 C 163.9132080078125 292.2495422363281 165.0523681640625 299.0047302246094 168.8157958984375 304.1235046386719 C 172.5792236328125 309.2422790527344 179.14251708984375 312.4306640625 185.43609619140625 311.3828430175781 C 189.884765625 310.63641357421875 193.8453369140625 307.8838195800781 196.6395263671875 304.3375549316406 C 199.4337158203125 300.791259765625 201.15216064453125 296.5018005371094 202.25723266601562 292.1235046386719 C 202.73699951171875 290.2178955078125 203.10232543945312 288.1842956542969 202.48892211914062 286.3227233886719 C 201.78668212890625 284.18817138671875 199.931396484375 282.67266845703125 198.09701538085938 281.3630065917969 C 192.9180908203125 277.66552734375 186.9752197265625 274.6209411621094 180.6136474609375 274.4393005371094 C 174.25201416015625 274.2576599121094 167.48312377929688 277.5704650878906 165.13296508789062 283.46783447265625 L 164.90374755859375 285.97052001953125" stroke-width="0.6000000238418579" fill="rgb(159, 159, 159)" opacity="1.0"/>
    <path d="M 121.04510498046875 344.2185974121094 C 120.23220825195312 338.09228515625 119.063232421875 331.31781005859375 114.20370483398438 327.51934814453125 C 109.48300170898438 323.81866455078125 102.85501098632812 324.15167236328125 96.88623046875 324.7731018066406 C 94.46186828613281 325.0290832519531 91.92970275878906 325.3355712890625 89.91590881347656 326.70709228515625 C 86.50857543945312 329.0247802734375 85.58502197265625 333.629638671875 85.59367370605469 337.74444580078125 C 85.60023498535156 341.563720703125 86.15518188476562 345.36224365234375 87.24151611328125 349.0237731933594 C 89.00325012207031 354.9696960449219 92.90695190429688 361.0476379394531 98.99794006347656 362.20098876953125 C 102.28533935546875 362.8284606933594 105.7332763671875 361.8758544921875 108.64541625976562 360.2161865234375 C 111.55755615234375 358.5564880371094 114.01817321777344 356.2174987792969 116.4144287109375 353.8737487792969 C 118.8106689453125 351.530029296875 121.11502075195312 349.1757507324219 122.30870056152344 346.1292419433594 L 121.04510498046875 344.2185974121094" stroke-width="0.6000000238418579" fill="rgb(218, 166, 20)" opacity="1.0"/>
    <path d="M 155.17576599121094 344.135498046875 C 145.7086944580078 347.8453063964844 141.04150390625 358.52728271484375 144.75131225585938 367.9943542480469 C 145.06898498535156 368.8050231933594 145.4437713623047 369.5921325683594 145.87283325195312 370.3497619628906 C 147.5037078857422 373.2283020019531 150.06106567382812 375.7332763671875 153.2555389404297 376.5879211425781 C 155.95504760742188 377.3103942871094 158.8258056640625 376.80718994140625 161.50823974609375 376.0303955078125 C 168.68560791015625 373.9411926269531 175.17266845703125 369.96832275390625 180.29556274414062 364.52447509765625 C 181.64727783203125 363.083251953125 182.9263916015625 361.4912109375 183.5008544921875 359.59619140625 C 184.4671630859375 356.4154357910156 183.2471923828125 352.90814208984375 181.23373413085938 350.260009765625 C 178.24722290039062 346.3263854980469 173.58551025390625 343.83465576171875 168.7154541015625 343.00634765625 C 163.84539794921875 342.1780090332031 158.79086303710938 342.91534423828125 154.15184020996094 344.6120300292969 L 155.17576599121094 344.135498046875" stroke-width="0.6000000238418579" fill="rgb(143, 165, 67)" opacity="1.0"/>
    <path d="M 140.64248657226562 382.53515625 C 132.872314453125 373.15789794921875 114.96661376953125 377.5417175292969 111.560791015625 389.1523132324219 C 108.15501403808594 400.7629089355469 119.89537048339844 413.786376953125 132.00686645507812 412.47869873046875 C 144.1183624267578 411.1710205078125 152.80221557617188 397.23883056640625 149.48573303222656 385.5053405761719 L 140.64248657226562 382.53515625" stroke-width="0.6000000238418579" fill="rgb(233, 92, 21)" opacity="1.0"/>
    <path d="M 187.654052734375 357.5653381347656 C 186.093505859375 363.34600830078125 184.82891845703125 370.41302490234375 189.17474365234375 374.5615539550781 C 190.96844482421875 376.1451721191406 193.2093505859375 377.1332092285156 195.58834838867188 377.3892517089844 C 201.45758056640625 378.18121337890625 207.34661865234375 376.0792541503906 211.38790893554688 371.7499694824219 C 214.806640625 368.0687255859375 216.45269775390625 363.17230224609375 217.9334716796875 358.40380859375 C 218.760986328125 355.72381591796875 219.5548095703125 352.8500671386719 218.76773071289062 350.1739196777344 C 217.68939208984375 346.615478515625 214.11651611328125 344.4564208984375 210.68206787109375 343.03472900390625 C 205.6583251953125 340.94775390625 200.32989501953125 339.68768310546875 194.90350341796875 339.3033752441406 C 193.0283203125 339.1742248535156 191.0572509765625 339.1647644042969 189.373779296875 339.9991455078125 C 187.84811401367188 340.8550720214844 186.60446166992188 342.13641357421875 185.79446411132812 343.68695068359375 C 183.15444946289062 348.294677734375 182.66864013671875 353.8285827636719 184.4654541015625 358.8258056640625 L 187.654052734375 357.5653381347656" stroke-width="0.6000000238418579" fill="rgb(70, 150, 179)" opacity="1.0"/>
  </g>
</svg>
