<?xml version="1.0" ?>
<svg xmlns="http://www.w3.org/2000/svg" version="1.1" width="600" height="600">
  <defs/>
  <g>
    <path d="M 354.95843505859375 343.4010009765625 C 359.59033203125 346.5341796875 366.9185485839844 342.2972106933594 366.9253234863281 336.7411193847656 C 366.9320983886719 331.18505859375 360.0809326171875 326.9557189941406 354.9107360839844 329.09100341796875 C 349.7405700683594 331.2262878417969 347.7061462402344 338.48504638671875 350.67822265625 343.23004150390625 L 354.95843505859375 343.4010009765625" stroke-width="0.6000000238418579" fill="rgb(233, 92, 21)" opacity="1.0"/>
    <path d="M 114.75736999511719 202.4971923828125 C 117.36286926269531 200.96185302734375 120.31596374511719 198.857666015625 120.21286010742188 195.82492065429688 C 120.1248779296875 194.61962890625 119.66502380371094 193.4713134765625 118.89674377441406 192.53839111328125 C 117.05795288085938 190.1790771484375 114.18963623046875 188.85733032226562 111.201416015625 188.99234008789062 C 108.6668701171875 189.11337280273438 106.3428955078125 190.29928588867188 104.123779296875 191.49740600585938 C 102.8782958984375 192.1724853515625 101.57650756835938 192.92935180664062 100.91519165039062 194.17340087890625 C 100.04730224609375 195.83880615234375 100.57424926757812 197.88037109375 101.31170654296875 199.60687255859375 C 102.3878173828125 202.135009765625 103.86602783203125 204.47225952148438 105.68899536132812 206.52801513671875 C 106.32023620605469 207.23709106445312 107.02838134765625 207.93682861328125 107.93084716796875 208.23040771484375 C 108.78392028808594 208.46044921875 109.68551635742188 208.437255859375 110.52566528320312 208.16375732421875 C 113.10641479492188 207.43316650390625 115.23680114746094 205.60723876953125 116.3536376953125 203.16864013671875 L 114.75736999511719 202.4971923828125" stroke-width="0.6000000238418579" fill="rgb(70, 150, 179)" opacity="1.0"/>
    <path d="M 453.369384765625 421.512451171875 C 454.67431640625 424.6854248046875 456.2540283203125 428.1475830078125 459.394775390625 429.522705078125 C 462.76953125 430.997802734375 466.82501220703125 429.41265869140625 469.42340087890625 426.80242919921875 C 470.4256591796875 425.7965087890625 471.3045654296875 424.591064453125 471.5650634765625 423.19525146484375 C 471.77960205078125 422.0479736328125 471.56219482421875 420.86724853515625 471.2825927734375 419.73431396484375 C 470.40509033203125 416.1605224609375 468.73345947265625 412.51043701171875 465.5697021484375 410.6324462890625 C 462.3797607421875 408.741943359375 457.97491455078125 409.1652526855469 455.21533203125 411.6468811035156 C 452.4556884765625 414.1285400390625 451.52880859375 418.4498291015625 453.056396484375 421.83489990234375 L 453.369384765625 421.512451171875" stroke-width="0.6000000238418579" fill="rgb(140, 28, 33)" opacity="1.0"/>
    <path d="M 89.15933227539062 204.9395751953125 C 92.14837646484375 204.0206298828125 95.24850463867188 203.03146362304688 97.58065795898438 200.94482421875 C 99.91278076171875 198.85821533203125 101.2633056640625 195.3154296875 99.90280151367188 192.4979248046875 C 98.21563720703125 189.02374267578125 93.07717895507812 188.39630126953125 89.84735107421875 190.52679443359375 C 86.61753845214844 192.65725708007812 85.0673828125 196.61801147460938 84.5445556640625 200.44683837890625 C 84.26397705078125 201.61590576171875 84.43179321289062 202.84759521484375 85.01493835449219 203.89889526367188 C 85.69493103027344 204.86663818359375 87.39385986328125 205.1483154296875 88.01614379882812 204.1356201171875 L 89.15933227539062 204.9395751953125" stroke-width="0.6000000238418579" fill="rgb(159, 159, 159)" opacity="1.0"/>
    <path d="M 382.2998046875 298.3669738769531 C 385.3350830078125 297.3330993652344 388.0822448730469 295.2367858886719 389.4822082519531 292.3538818359375 C 390.8821716308594 289.4709777832031 390.76239013671875 285.7922058105469 388.81536865234375 283.22955322265625 C 387.4364929199219 281.41949462890625 385.2769775390625 280.2988586425781 383.03741455078125 279.8853759765625 C 380.7978515625 279.47186279296875 378.4794616699219 279.71319580078125 376.2655944824219 280.2491760253906 C 375.30230712890625 280.48297119140625 374.30877685546875 280.7979431152344 373.62213134765625 281.5093078613281 C 372.83453369140625 282.3244934082031 372.59423828125 283.5087585449219 372.4408874511719 284.6353454589844 C 372.0080261230469 287.81591796875 372.0461120605469 291.1839599609375 373.4604187011719 294.0659484863281 C 374.8747253417969 296.94793701171875 377.94439697265625 299.1903076171875 381.1289367675781 298.85296630859375 L 382.2998046875 298.3669738769531" stroke-width="0.6000000238418579" fill="rgb(159, 159, 159)" opacity="1.0"/>
    <path d="M 100.89334106445312 429.84368896484375 C 102.55667114257812 427.17474365234375 104.2899169921875 424.135986328125 103.61077880859375 421.0716552734375 C 102.95449829101562 418.0906982421875 100.24380493164062 416.0765380859375 97.69869995117188 414.38897705078125 C 96.66375732421875 413.7049560546875 95.57015991210938 413.005859375 94.33547973632812 412.89276123046875 C 92.24734497070312 412.7003173828125 90.39442443847656 414.2098388671875 89.06620788574219 415.82855224609375 C 87.83280944824219 417.33056640625 86.82147216796875 419.0018310546875 86.06317138671875 420.7913818359375 C 84.83082580566406 423.696533203125 84.39694213867188 427.3466796875 86.41572570800781 429.77081298828125 C 87.503662109375 431.0810546875 89.16598510742188 431.82275390625 90.84674072265625 432.1134033203125 C 92.5274658203125 432.404052734375 94.250732421875 432.28179931640625 95.95024108886719 432.1368408203125 C 97.64974975585938 431.99188232421875 99.31658935546875 431.81304931640625 100.77125549316406 431.0029296875 L 100.89334106445312 429.84368896484375" stroke-width="0.6000000238418579" fill="rgb(218, 166, 20)" opacity="1.0"/>
    <path d="M 98.96853637695312 140.74887084960938 C 104.8131103515625 140.82850646972656 109.61563110351562 136.15509033203125 109.69525146484375 130.31053161621094 C 109.70207214355469 129.81005859375 109.67337036132812 129.3097381591797 109.60939025878906 128.81332397460938 C 109.36590576171875 126.92709350585938 108.54818725585938 125.0386962890625 107.03317260742188 123.89051818847656 C 105.75296020507812 122.92010498046875 104.1156005859375 122.56500244140625 102.51910400390625 122.39639282226562 C 98.24508666992188 121.95095825195312 93.92974853515625 122.65805053710938 90.0213623046875 124.44419860839844 C 88.98905944824219 124.91806030273438 87.96267700195312 125.48797607421875 87.24565124511719 126.37203979492188 C 86.041015625 127.85552978515625 85.92930603027344 129.98727416992188 86.42643737792969 131.83387756347656 C 87.16258239746094 134.57591247558594 89.10337829589844 136.9139404296875 91.51605224609375 138.41171264648438 C 93.92872619628906 139.90948486328125 96.77935791015625 140.61387634277344 99.61700439453125 140.71739196777344 L 98.96853637695312 140.74887084960938" stroke-width="0.6000000238418579" fill="rgb(143, 165, 67)" opacity="1.0"/>
    <path d="M 458.47705078125 344.7713623046875 C 461.689208984375 350.6868896484375 471.8681640625 350.2222595214844 474.95556640625 344.2894287109375 C 478.0428466796875 338.3565979003906 473.06707763671875 330.0395202636719 466.35906982421875 329.45489501953125 C 459.65106201171875 328.8702392578125 453.45330810546875 335.498291015625 453.99847412109375 342.21588134765625 L 458.47705078125 344.7713623046875" stroke-width="0.6000000238418579" fill="rgb(233, 92, 21)" opacity="1.0"/>
    <path d="M 98.0435791015625 220.03564453125 C 99.90968322753906 217.3570556640625 101.86097717285156 213.96389770507812 100.39559936523438 211.0343017578125 C 99.76708984375 209.89114379882812 98.79931640625 208.97119140625 97.62579345703125 208.4013671875 C 94.7601318359375 206.913330078125 91.35098266601562 206.90655517578125 88.47944641113281 208.38320922851562 C 86.04679870605469 209.64205932617188 84.2998046875 211.85113525390625 82.66116333007812 214.02505493164062 C 81.74264526367188 215.24771118164062 80.80570983886719 216.57598876953125 80.71636962890625 218.09420776367188 C 80.61387634277344 220.11883544921875 82.04928588867188 221.88516235351562 83.549560546875 223.24761962890625 C 85.74272155761719 225.24432373046875 88.24459838867188 226.87289428710938 90.95817565917969 228.07012939453125 C 91.89654541015625 228.48199462890625 92.90618896484375 228.85009765625 93.92379760742188 228.73223876953125 C 94.8643798828125 228.57421875 95.73867797851562 228.14593505859375 96.4400634765625 227.49960327148438 C 98.64387512207031 225.621826171875 99.91302490234375 222.871826171875 99.91200256347656 219.97650146484375 L 98.0435791015625 220.03564453125" stroke-width="0.6000000238418579" fill="rgb(70, 150, 179)" opacity="1.0"/>
    <path d="M 103.91136169433594 80.61135864257812 C 104.38790893554688 84.18272399902344 105.06607055664062 88.12130737304688 107.88787841796875 90.35794067382812 C 110.92056274414062 92.7587890625 115.46318054199219 92.23373413085938 118.80018615722656 90.2779541015625 C 120.08712768554688 89.52442932128906 121.30216979980469 88.53533935546875 121.9400634765625 87.18753051757812 C 122.46485900878906 86.07974243164062 122.55989074707031 84.82252502441406 122.5789794921875 83.59715270996094 C 122.64381408691406 79.73301696777344 121.92253112792969 75.57901000976562 119.21186828613281 72.82550048828125 C 116.47801208496094 70.05230712890625 111.891357421875 69.30393981933594 108.42501831054688 71.08602905273438 C 104.95864868164062 72.86810302734375 102.86135864257812 77.00872802734375 103.50726318359375 80.85505676269531 L 103.91136169433594 80.61135864257812" stroke-width="0.6000000238418579" fill="rgb(140, 28, 33)" opacity="1.0"/>
    <path d="M 91.45896911621094 414.7266845703125 C 94.87149047851562 413.806884765625 98.41229248046875 412.81219482421875 101.1290283203125 410.5475158691406 C 103.84571838378906 408.2828674316406 105.51127624511719 404.3346252441406 104.08598327636719 401.098388671875 C 102.31768798828125 397.10748291015625 96.53849792480469 396.1955871582031 92.80609130859375 398.4742736816406 C 89.07369995117188 400.75299072265625 87.16612243652344 405.1654357910156 86.42416381835938 409.4695129394531 C 86.06100463867188 410.77886962890625 86.20184326171875 412.1767578125 86.81895446777344 413.38726806640625 C 87.54875183105469 414.50726318359375 89.45657348632812 414.892578125 90.19950866699219 413.7733154296875 L 91.45896911621094 414.7266845703125" stroke-width="0.6000000238418579" fill="rgb(159, 159, 159)" opacity="1.0"/>
    <path d="M 474.89227294921875 65.60552978515625 C 476.1646728515625 62.6729736328125 476.4600830078125 59.240570068359375 475.2718505859375 56.27471923828125 C 474.0836181640625 53.30885314941406 471.2891845703125 50.9305419921875 468.09307861328125 50.64874267578125 C 465.8331298828125 50.452362060546875 463.558349609375 51.294189453125 461.75164794921875 52.66923522949219 C 459.9449462890625 54.044281005859375 458.5684814453125 55.916534423828125 457.4794921875 57.90924072265625 C 457.006103515625 58.77668762207031 456.572265625 59.720855712890625 456.63671875 60.70442199707031 C 456.71002197265625 61.83209228515625 457.422607421875 62.803436279296875 458.1510009765625 63.67193603515625 C 460.207275390625 66.1239013671875 462.7176513671875 68.3541259765625 465.792236328125 69.24308776855469 C 468.86676025390625 70.13204956054688 472.579345703125 69.370849609375 474.46575927734375 66.79522705078125 L 474.89227294921875 65.60552978515625" stroke-width="0.6000000238418579" fill="rgb(159, 159, 159)" opacity="1.0"/>
    <path d="M 89.99737548828125 105.76948547363281 C 93.25006103515625 106.35343933105469 96.890869140625 106.86163330078125 99.61715698242188 105.00534057617188 C 102.27099609375 103.20382690429688 103.18109130859375 99.7738037109375 103.83692932128906 96.63253784179688 C 104.10147094726562 95.35604858398438 104.35787963867188 94.01644897460938 103.98738098144531 92.767333984375 C 103.36199951171875 90.65435791015625 101.16708374023438 89.433837890625 99.06990051269531 88.76792907714844 C 97.12359619140625 88.14910888671875 95.09852600097656 87.81297302246094 93.05667114257812 87.76979064941406 C 89.74127197265625 87.698486328125 86.00973510742188 88.69662475585938 84.43006896972656 91.61100769042969 C 83.57496643066406 93.18313598632812 83.49847412109375 95.09442138671875 83.869384765625 96.84800720214844 C 84.24032592773438 98.60159301757812 85.03076171875 100.23587036132812 85.83413696289062 101.838134765625 C 86.63748168945312 103.44038391113281 87.46121215820312 104.99755859375 88.81838989257812 106.101806640625 L 89.99737548828125 105.76948547363281" stroke-width="0.6000000238418579" fill="rgb(218, 166, 20)" opacity="1.0"/>
    <path d="M 124.7237548828125 132.1011199951172 C 130.54505920410156 130.8059844970703 134.2142333984375 125.03695678710938 132.91909790039062 119.21566772460938 C 132.80819702148438 118.71719360351562 132.6620635986328 118.22720336914062 132.4818115234375 117.7493896484375 C 131.7965850830078 115.93399047851562 130.5407257080078 114.25141906738281 128.76663208007812 113.46771240234375 C 127.2674560546875 112.80528259277344 125.558349609375 112.83770751953125 123.93370056152344 113.04568481445312 C 119.58566284179688 113.60838317871094 115.46757507324219 115.32504272460938 112.00724792480469 118.01730346679688 C 111.09378051757812 118.73049926757812 110.20877075195312 119.53762817382812 109.70475769042969 120.58393859863281 C 108.85758972167969 122.34001159667969 109.24789428710938 124.48269653320312 110.17564392089844 126.19912719726562 C 111.55122375488281 128.74839782714844 114.02780151367188 130.61328125 116.77529907226562 131.53302001953125 C 119.52281188964844 132.4527587890625 122.51858520507812 132.48182678222656 125.36016845703125 131.9174041748047 L 124.7237548828125 132.1011199951172" stroke-width="0.6000000238418579" fill="rgb(143, 165, 67)" opacity="1.0"/>
    <path d="M 391.27239990234375 306.4355773925781 C 394.80908203125 312.37481689453125 405.2347717285156 311.4839172363281 408.1613464355469 305.2706298828125 C 411.087890625 299.0573425292969 405.64385986328125 290.7256774902344 398.7369689941406 290.398681640625 C 391.8301086425781 290.0716857910156 385.74029541015625 297.1248779296875 386.5729675292969 303.99560546875 L 391.27239990234375 306.4355773925781" stroke-width="0.6000000238418579" fill="rgb(233, 92, 21)" opacity="1.0"/>
    <path d="M 121.91032409667969 109.03749084472656 C 124.85627746582031 107.67045593261719 128.23350524902344 105.73196411132812 128.44203186035156 102.47990417480469 C 128.4746551513672 101.1824951171875 128.1038818359375 99.90692138671875 127.38082885742188 98.82916259765625 C 125.66357421875 96.1143798828125 122.73699951171875 94.40036010742188 119.5291748046875 94.23062133789062 C 116.80767822265625 94.09359741210938 114.1993408203125 95.1168212890625 111.70175170898438 96.16407775878906 C 110.29971313476562 96.754638671875 108.82890319824219 97.4267578125 107.99139404296875 98.68679809570312 C 106.88882446289062 100.37550354003906 107.2374267578125 102.61279296875 107.8441162109375 104.53549194335938 C 108.72853088378906 107.3504638671875 110.06272888183594 110.00375366210938 111.79498291015625 112.39239501953125 C 112.39508056640625 113.21656799316406 113.078369140625 114.03883361816406 114.01202392578125 114.44741821289062 C 114.89956665039062 114.78289794921875 115.86557006835938 114.8529052734375 116.79220581054688 114.64886474609375 C 119.62716674804688 114.1392822265625 122.09587097167969 112.4117431640625 123.54574584960938 109.92288208007812 L 121.91032409667969 109.03749084472656" stroke-width="0.6000000238418579" fill="rgb(70, 150, 179)" opacity="1.0"/>
    <path d="M 422.5042724609375 67.73799133300781 C 423.945556640625 70.94772338867188 425.677978515625 74.44496154785156 428.9422607421875 75.75189208984375 C 432.4498291015625 77.15371704101562 436.5550537109375 75.39631652832031 439.1331787109375 72.63583374023438 C 440.12762451171875 71.57192993164062 440.98919677734375 70.30758666992188 441.2105712890625 68.86834716796875 C 441.39300537109375 67.68527221679688 441.131591796875 66.48213195800781 440.8079833984375 65.3299560546875 C 439.791748046875 61.6953125 437.958984375 58.00846862792969 434.654541015625 56.18682861328125 C 431.322998046875 54.35321044921875 426.8216552734375 54.93107604980469 424.0740966796875 57.565032958984375 C 421.326416015625 60.198974609375 420.5174560546875 64.6588134765625 422.1939697265625 68.07870483398438 L 422.5042724609375 67.73799133300781" stroke-width="0.6000000238418579" fill="rgb(140, 28, 33)" opacity="1.0"/>
    <path d="M 112.78721618652344 421.9251708984375 C 114.43014526367188 418.956298828125 116.10699462890625 415.848876953125 116.357421875 412.4625244140625 C 116.60781860351562 409.07623291015625 114.99481201171875 405.2916259765625 111.8101806640625 404.11517333984375 C 107.87583923339844 402.6717834472656 103.38925170898438 406.0513610839844 102.47061157226562 410.1479797363281 C 101.55197143554688 414.24462890625 103.32379150390625 418.506103515625 105.798828125 421.890869140625 C 106.46002197265625 423.015380859375 107.51869201660156 423.8511962890625 108.76596069335938 424.2332763671875 C 110.02595520019531 424.4771728515625 111.56524658203125 423.41778564453125 111.28871154785156 422.15802001953125 L 112.78721618652344 421.9251708984375" stroke-width="0.6000000238418579" fill="rgb(159, 159, 159)" opacity="1.0"/>
    <path d="M 461.7359619140625 441.49749755859375 C 462.388671875 438.943115234375 462.18048095703125 436.1094970703125 460.8250732421875 433.8497314453125 C 459.4697265625 431.5899658203125 456.88330078125 430.01861572265625 454.2437744140625 430.20703125 C 452.3778076171875 430.34259033203125 450.635498046875 431.32550048828125 449.3441162109375 432.681396484375 C 448.0526123046875 434.037353515625 447.17657470703125 435.741943359375 446.55029296875 437.5069580078125 C 446.2781982421875 438.2752685546875 446.0484619140625 439.100830078125 446.2294921875 439.893310546875 C 446.4366455078125 440.802001953125 447.1439208984375 441.499755859375 447.8505859375 442.11181640625 C 449.8455810546875 443.839599609375 452.181396484375 445.3275146484375 454.80126953125 445.6494140625 C 457.421142578125 445.9713134765625 460.3448486328125 444.8660888671875 461.544189453125 442.52203369140625 L 461.7359619140625 441.49749755859375" stroke-width="0.6000000238418579" fill="rgb(159, 159, 159)" opacity="1.0"/>
    <path d="M 452.83447265625 285.2341003417969 C 454.77764892578125 282.39556884765625 456.8145751953125 279.1562194824219 456.2164306640625 275.7755126953125 C 455.6392822265625 272.4869384765625 452.7716064453125 270.158447265625 450.069580078125 268.19464111328125 C 448.970703125 267.3984680175781 447.8084716796875 266.5830993652344 446.4644775390625 266.4014892578125 C 444.1915283203125 266.093017578125 442.095703125 267.6555480957031 440.568115234375 269.3621520996094 C 439.149658203125 270.94561767578125 437.96588134765625 272.72454833984375 437.0531005859375 274.6445007324219 C 435.56982421875 277.7614440917969 434.92413330078125 281.7301025390625 437.016357421875 284.47406005859375 C 438.14373779296875 285.95709228515625 439.925537109375 286.84576416015625 441.74859619140625 287.24237060546875 C 443.57171630859375 287.63897705078125 445.460693359375 287.58636474609375 447.32470703125 287.5078125 C 449.1888427734375 287.4292907714844 451.018798828125 287.3121643066406 452.6466064453125 286.4952392578125 L 452.83447265625 285.2341003417969" stroke-width="0.6000000238418579" fill="rgb(218, 166, 20)" opacity="1.0"/>
    <path d="M 424.14501953125 359.3232421875 C 424.9365234375 364.3233642578125 429.63165283203125 367.735107421875 434.6318359375 366.94354248046875 C 435.0599365234375 366.8757629394531 435.4827880859375 366.7776794433594 435.8970947265625 366.65008544921875 C 437.47119140625 366.16485595703125 438.962646484375 365.189208984375 439.7198486328125 363.7272644042969 C 440.35986328125 362.4918518066406 440.422119140625 361.0421142578125 440.331298828125 359.6546936035156 C 440.0828857421875 355.9412536621094 438.8447265625 352.3620300292969 436.7454833984375 349.2888488769531 C 436.189208984375 348.4774475097656 435.55181884765625 347.68524169921875 434.6917724609375 347.2032470703125 C 433.24847412109375 346.39324951171875 431.41259765625 346.6114196777344 429.9095458984375 347.3072814941406 C 427.677490234375 348.3388671875 425.96734619140625 350.3392028808594 425.0438232421875 352.61871337890625 C 424.1202392578125 354.89825439453125 423.938232421875 357.4349060058594 424.2672119140625 359.8721008300781 L 424.14501953125 359.3232421875" stroke-width="0.6000000238418579" fill="rgb(143, 165, 67)" opacity="1.0"/>
    <path d="M 449.8465576171875 347.0010986328125 C 455.10125732421875 342.93426513671875 453.0360107421875 333.09039306640625 446.7664794921875 331.0221862792969 C 440.4969482421875 328.9540100097656 433.1817626953125 335.1195983886719 433.6748046875 341.7479248046875 C 434.1678466796875 348.37628173828125 441.60748291015625 353.3648376464844 448.066162109375 351.76947021484375 L 449.8465576171875 347.0010986328125" stroke-width="0.6000000238418579" fill="rgb(233, 92, 21)" opacity="1.0"/>
    <path d="M 453.96893310546875 74.40023803710938 C 456.52093505859375 72.67079162597656 459.3900146484375 70.34024047851562 459.09014892578125 67.26150512695312 C 458.923095703125 66.04093933105469 458.3814697265625 64.90225219726562 457.5399169921875 64.00257873535156 C 455.517578125 61.72050476074219 452.5145263671875 60.56022644042969 449.48309326171875 60.889678955078125 C 446.912353515625 61.175750732421875 444.62432861328125 62.531646728515625 442.4437255859375 63.893218994140625 C 441.219970703125 64.66004943847656 439.9443359375 65.51374816894531 439.35150146484375 66.82188415527344 C 438.5755615234375 68.57199096679688 439.242919921875 70.6151123046875 440.1041259765625 72.32417297363281 C 441.3614501953125 74.82696533203125 443.015625 77.1097412109375 445.0023193359375 79.083984375 C 445.69012451171875 79.76478576660156 446.45556640625 80.43115234375 447.39251708984375 80.67178344726562 C 448.27520751953125 80.8509521484375 449.19091796875 80.76943969726562 450.028076171875 80.43716430664062 C 452.606689453125 79.52801513671875 454.6566162109375 77.533447265625 455.63604736328125 74.98074340820312 L 453.96893310546875 74.40023803710938" stroke-width="0.6000000238418579" fill="rgb(70, 150, 179)" opacity="1.0"/>
    <path d="M 448.45648193359375 395.82281494140625 C 448.6505126953125 391.8067321777344 448.69696044921875 387.3470764160156 446.04852294921875 384.3251953125 C 443.2015380859375 381.08074951171875 438.109619140625 380.74493408203125 434.0537109375 382.2217712402344 C 432.48974609375 382.79052734375 430.957275390625 383.63226318359375 429.9864501953125 384.98370361328125 C 429.1878662109375 386.0943908691406 428.83111572265625 387.45538330078125 428.5640869140625 388.7966613769531 C 427.71697998046875 393.0254211425781 427.67462158203125 397.730224609375 430.0972900390625 401.297119140625 C 432.5413818359375 404.89031982421875 437.426025390625 406.6328430175781 441.5889892578125 405.3726501464844 C 445.751953125 404.11248779296875 448.8856201171875 399.9883728027344 448.948974609375 395.6364440917969 L 448.45648193359375 395.82281494140625" stroke-width="0.6000000238418579" fill="rgb(140, 28, 33)" opacity="1.0"/>
    <path d="M 127.52069091796875 218.906494140625 C 123.57009887695312 221.27899169921875 119.48544311523438 223.79129028320312 116.88783264160156 227.6016845703125 C 114.29026794433594 231.41204833984375 113.61227416992188 236.9580078125 116.55572509765625 240.5069580078125 C 120.19888305664062 244.879638671875 127.77156066894531 243.95843505859375 131.6377716064453 239.76760864257812 C 135.5039825439453 235.5767822265625 136.31959533691406 229.36224365234375 135.71229553222656 223.70001220703125 C 135.69992065429688 221.92837524414062 135.02389526367188 220.225830078125 133.81759643554688 218.92831420898438 C 132.50233459472656 217.78463745117188 129.97232055664062 217.9830322265625 129.44058227539062 219.6519775390625 L 127.52069091796875 218.906494140625" stroke-width="0.6000000238418579" fill="rgb(159, 159, 159)" opacity="1.0"/>
    <path d="M 110.80709838867188 231.06771850585938 C 106.48712158203125 228.25860595703125 101.11058044433594 226.868408203125 96.07762145996094 227.9615478515625 C 91.044677734375 229.05474853515625 86.51483154296875 232.85848999023438 85.2095947265625 237.8631591796875 C 84.29127502441406 241.40264892578125 85.01919555664062 245.24417114257812 86.72018432617188 248.48477172851562 C 88.42118835449219 251.72540283203125 91.02793884277344 254.41546630859375 93.90321350097656 256.6809387207031 C 95.15505981445312 257.66607666015625 96.53945922851562 258.60882568359375 98.1201171875 258.770263671875 C 99.93218994140625 258.9562072753906 101.66728210449219 258.0840759277344 103.24313354492188 257.1593017578125 C 107.69207763671875 254.54852294921875 111.91038513183594 251.15646362304688 114.1480712890625 246.5079345703125 C 116.38577270507812 241.85940551757812 116.17169189453125 235.75405883789062 112.58370971679688 232.0648193359375 L 110.80709838867188 231.06771850585938" stroke-width="0.6000000238418579" fill="rgb(159, 159, 159)" opacity="1.0"/>
    <path d="M 302.5294189453125 98.78094482421875 C 301.59649658203125 103.2987060546875 300.7552490234375 108.36080932617188 303.24664306640625 112.23251342773438 C 305.66424560546875 116.00119018554688 310.4176330566406 117.39566040039062 314.77728271484375 118.42481994628906 C 316.5489196777344 118.84030151367188 318.40899658203125 119.2467041015625 320.16546630859375 118.7750244140625 C 323.13671875 117.97901916503906 324.9195556640625 114.96044921875 325.92486572265625 112.05810546875 C 326.8590393066406 109.36460876464844 327.4015808105469 106.55093383789062 327.5359191894531 103.70321655273438 C 327.7557373046875 99.07937622070312 326.4983215332031 93.83598327636719 322.4888000488281 91.52590942382812 C 320.32598876953125 90.27560424804688 317.66168212890625 90.0994873046875 315.2012023925781 90.55345153808594 C 312.74072265625 91.00741577148438 310.4314880371094 92.0511474609375 308.1664733886719 93.11405944824219 C 305.9014587402344 94.17694091796875 303.6986389160156 95.26988220214844 302.10845947265625 97.12368774414062 L 302.5294189453125 98.78094482421875" stroke-width="0.6000000238418579" fill="rgb(218, 166, 20)" opacity="1.0"/>
    <path d="M 221.48028564453125 120.0653076171875 C 216.9378662109375 113.0 207.52789306640625 110.954833984375 200.46261596679688 115.49726867675781 C 199.85760498046875 115.88623046875 199.28094482421875 116.31764221191406 198.73699951171875 116.7882080078125 C 196.67041015625 118.57669067382812 195.056884765625 121.05487060546875 194.883544921875 123.78106689453125 C 194.73681640625 126.08488464355469 195.61068725585938 128.32830810546875 196.675537109375 130.37478637695312 C 199.533447265625 135.84877014160156 203.804931640625 140.45767211914062 209.0462646484375 143.72276306152344 C 210.43316650390625 144.58348083496094 211.93038940429688 145.3609161376953 213.55853271484375 145.51841735839844 C 216.291748046875 145.784423828125 218.934326171875 144.22666931152344 220.752197265625 142.16574096679688 C 223.453125 139.10791015625 224.714111328125 134.9274444580078 224.593994140625 130.848388671875 C 224.47390747070312 126.76934814453125 223.05572509765625 122.79518127441406 220.927978515625 119.31338500976562 L 221.48028564453125 120.0653076171875" stroke-width="0.6000000238418579" fill="rgb(143, 165, 67)" opacity="1.0"/>
    <path d="M 224.51837158203125 90.69349670410156 C 223.94049072265625 99.89541625976562 236.08984375 106.76425170898438 243.9901123046875 102.126953125 C 251.89031982421875 97.4896240234375 252.1695556640625 84.21755981445312 244.81134033203125 78.6572265625 C 237.453125 73.09687805175781 225.437744140625 76.2772216796875 221.18142700195312 84.46881103515625 L 224.51837158203125 90.69349670410156" stroke-width="0.6000000238418579" fill="rgb(233, 92, 21)" opacity="1.0"/>
    <path d="M 196.332275390625 100.05360412597656 C 194.5386962890625 95.48794555664062 191.9227294921875 90.22018432617188 187.03860473632812 89.61051940917969 C 185.08547973632812 89.44354248046875 183.128662109375 89.88673400878906 181.4381103515625 90.87901306152344 C 177.189208984375 93.22158813476562 174.33929443359375 97.47828674316406 173.7921142578125 102.29924011230469 C 173.33843994140625 106.38992309570312 174.64431762695312 110.41537475585938 175.99649047851562 114.27601623535156 C 176.75958251953125 116.44345092773438 177.63934326171875 118.72196960449219 179.46307373046875 120.09907531738281 C 181.90896606445312 121.91471862792969 185.313720703125 121.59226989746094 188.26760864257812 120.85211181640625 C 192.59197998046875 119.77430725097656 196.71337890625 118.003662109375 200.47198486328125 115.60887145996094 C 201.76904296875 114.7789306640625 203.07080078125 113.82342529296875 203.77154541015625 112.452880859375 C 204.35797119140625 111.14520263671875 204.55120849609375 109.69514465332031 204.32769775390625 108.279541015625 C 203.81683349609375 103.95907592773438 201.4364013671875 100.08021545410156 197.81561279296875 97.66830444335938 L 196.332275390625 100.05360412597656" stroke-width="0.6000000238418579" fill="rgb(70, 150, 179)" opacity="1.0"/>
    <path d="M 267.2215270996094 133.55841064453125 C 264.3849792480469 137.89625549316406 261.42303466796875 142.82350158691406 262.3951416015625 147.9110870361328 C 263.4426574707031 153.3756561279297 268.88397216796875 157.0718994140625 274.3564147949219 158.0770263671875 C 276.4661865234375 158.4654541015625 278.718994140625 158.52972412109375 280.6802062988281 157.66098022460938 C 282.2926940917969 156.94744873046875 283.5774841308594 155.66732788085938 284.7496032714844 154.3505401611328 C 288.450927734375 150.20248413085938 291.568359375 145.00006103515625 291.20294189453125 139.4539337158203 C 290.8307800292969 133.8645477294922 286.5379638671875 128.73985290527344 281.0878601074219 127.42401123046875 C 275.63775634765625 126.10818481445312 269.46282958984375 128.64772033691406 266.5523986816406 133.44418334960938 L 267.2215270996094 133.55841064453125" stroke-width="0.6000000238418579" fill="rgb(140, 28, 33)" opacity="1.0"/>
    <path d="M 307.8929748535156 122.9908447265625 C 303.40301513671875 122.85794067382812 298.7295227050781 122.76913452148438 294.5927429199219 124.52803039550781 C 290.4560546875 126.28692626953125 286.9806823730469 130.4801483154297 287.527587890625 134.9410858154297 C 288.2149658203125 140.44613647460938 294.9126892089844 143.67626953125 300.29046630859375 142.27294921875 C 305.66827392578125 140.86964416503906 309.60845947265625 136.20037841796875 312.0905456542969 131.23526000976562 C 313.01287841796875 129.77525329589844 313.3543701171875 128.02261352539062 313.0476379394531 126.32315063476562 C 312.570556640625 124.69256591796875 310.39044189453125 123.52363586425781 309.07574462890625 124.61300659179688 L 307.8929748535156 122.9908447265625" stroke-width="0.6000000238418579" fill="rgb(159, 159, 159)" opacity="1.0"/>
    <path d="M 196.33831787109375 132.81106567382812 C 193.07369995117188 128.7418975830078 188.34381103515625 125.70260620117188 183.157958984375 125.16015625 C 177.97207641601562 124.61769104003906 172.4117431640625 126.84103393554688 169.5718994140625 131.240234375 C 167.56805419921875 134.3530731201172 167.0516357421875 138.277587890625 167.66119384765625 141.932373046875 C 168.270751953125 145.58717346191406 169.92562866210938 148.99935913085938 171.97314453125 152.08828735351562 C 172.864990234375 153.4320068359375 173.897705078125 154.77691650390625 175.3665771484375 155.43267822265625 C 177.05020141601562 156.18524169921875 178.99481201171875 155.89601135253906 180.802978515625 155.50576782226562 C 185.90780639648438 154.40396118164062 191.0382080078125 152.47784423828125 194.66192626953125 148.7163543701172 C 198.28564453125 144.95486450195312 200.01303100585938 139.01614379882812 197.73098754882812 134.33241271972656 L 196.33831787109375 132.81106567382812" stroke-width="0.6000000238418579" fill="rgb(159, 159, 159)" opacity="1.0"/>
    <path d="M 283.22149658203125 99.35543823242188 C 279.4172058105469 102.28916931152344 275.3156433105469 105.71495056152344 274.6538391113281 110.46377563476562 C 274.0037536621094 115.08111572265625 276.81011962890625 119.40986633300781 279.55364990234375 123.18280029296875 C 280.6704406738281 124.7138671875 281.8631896972656 126.29779052734375 283.57037353515625 127.11805725097656 C 286.45697021484375 128.507080078125 289.91436767578125 127.33419799804688 292.678955078125 125.72517395019531 C 295.2455139160156 124.23272705078125 297.58447265625 122.37945556640625 299.6242370605469 120.22212219238281 C 302.9375 116.72041320800781 305.50506591796875 111.72642517089844 303.9077453613281 107.1798095703125 C 303.0489807128906 104.72398376464844 301.0648498535156 102.77578735351562 298.81378173828125 101.4635009765625 C 296.562744140625 100.15121459960938 294.0306701660156 99.40731811523438 291.5204772949219 98.70858764648438 C 289.0102844238281 98.00984191894531 286.52880859375 97.37702941894531 284.0144348144531 97.76103210449219 L 283.22149658203125 99.35543823242188" stroke-width="0.6000000238418579" fill="rgb(218, 166, 20)" opacity="1.0"/>
    <path d="M 237.10934448242188 116.74559020996094 C 236.69427490234375 124.48216247558594 242.6295166015625 131.09039306640625 250.36605834960938 131.50547790527344 C 251.028564453125 131.54103088378906 251.69271850585938 131.52952575683594 252.35357666015625 131.47108459472656 C 254.86468505859375 131.24853515625 257.4090576171875 130.26553344726562 259.010009765625 128.31980895996094 C 260.36309814453125 126.67564392089844 260.9201354980469 124.52587890625 261.22802734375 122.42034912109375 C 262.0444030761719 116.78324890136719 261.3365173339844 111.03038024902344 259.17791748046875 105.75933837890625 C 258.60498046875 104.36700439453125 257.9045715332031 102.97743225097656 256.7716369628906 101.98092651367188 C 254.87066650390625 100.306884765625 252.05322265625 100.04598999023438 249.5811767578125 100.60658264160156 C 245.91049194335938 101.43630981445312 242.71112060546875 103.88290405273438 240.59957885742188 106.9990234375 C 238.488037109375 110.11512756347656 237.40411376953125 113.85330200195312 237.11669921875 117.60610961914062 L 237.10934448242188 116.74559020996094" stroke-width="0.6000000238418579" fill="rgb(143, 165, 67)" opacity="1.0"/>
    <path d="M 251.69155883789062 89.69107055664062 C 250.71484375 99.31208801269531 263.1713562011719 107.00106811523438 271.638427734375 102.45936584472656 C 280.1054382324219 97.91763305664062 280.93328857421875 84.01873779296875 273.44549560546875 77.89437866210938 C 265.9577331542969 71.77001953125 253.2364501953125 74.6187744140625 248.4451904296875 83.03256225585938 L 251.69155883789062 89.69107055664062" stroke-width="0.6000000238418579" fill="rgb(233, 92, 21)" opacity="1.0"/>
    <path d="M 340.0783996582031 81.06942749023438 C 336.2056579589844 78.623779296875 331.325927734375 76.10406494140625 327.31268310546875 78.34384155273438 C 325.7502746582031 79.29731750488281 324.5222473144531 80.71212768554688 323.7980041503906 82.39312744140625 C 321.8941345214844 86.50411987304688 322.1009521484375 91.28286743164062 324.35284423828125 95.21401977539062 C 326.2716064453125 98.5438232421875 329.478759765625 100.85231018066406 332.6297302246094 103.01115417480469 C 334.4017028808594 104.22097778320312 336.3228759765625 105.449951171875 338.4565124511719 105.47885131835938 C 341.3008117675781 105.49406433105469 343.6854553222656 103.37010192871094 345.49993896484375 101.18084716796875 C 348.1594543457031 97.98017883300781 350.2833557128906 94.37014770507812 351.789306640625 90.49078369140625 C 352.3070373535156 89.1494140625 352.7589416503906 87.71090698242188 352.5291442871094 86.29208374023438 C 352.24798583984375 84.9837646484375 351.59222412109375 83.7855224609375 350.6418151855469 82.84344482421875 C 347.8700866699219 79.87364196777344 343.93505859375 78.26922607421875 339.8769836425781 78.454345703125 L 340.0783996582031 81.06942749023438" stroke-width="0.6000000238418579" fill="rgb(70, 150, 179)" opacity="1.0"/>
    <path d="M 334.1494445800781 135.70529174804688 C 333.0159606933594 130.81817626953125 331.5543518066406 125.44877624511719 327.3468933105469 122.72227478027344 C 322.82537841796875 119.79611206054688 316.5984802246094 121.12545776367188 312.2320861816406 124.27827453613281 C 310.548095703125 125.4931640625 308.9949035644531 127.0250244140625 308.2892150878906 128.97769165039062 C 307.7085266113281 130.58267211914062 307.7432861328125 132.33786010742188 307.87908935546875 134.0388641357422 C 308.30096435546875 139.4034881591797 309.850830078125 145.06578063964844 313.9726867675781 148.5233917236328 C 318.1293029785156 152.00526428222656 324.5859069824219 152.4351348876953 329.1545715332031 149.50596618652344 C 333.7232360839844 146.57679748535156 336.0819091796875 140.55979919433594 334.6772766113281 135.31398010253906 L 334.1494445800781 135.70529174804688" stroke-width="0.6000000238418579" fill="rgb(140, 28, 33)" opacity="1.0"/>
    <path d="M 346.9032897949219 107.66796875 C 342.2932434082031 106.86807250976562 337.4873962402344 106.08656311035156 332.96221923828125 107.28948974609375 C 328.4371337890625 108.492431640625 324.2345886230469 112.3031005859375 324.13995361328125 116.98359680175781 C 324.0360107421875 122.76144409179688 330.4653015136719 127.08084106445312 336.2176208496094 126.42778015136719 C 341.9699401855469 125.77471923828125 346.7220764160156 121.54180908203125 350.0143737792969 116.78860473632812 C 351.18096923828125 115.41932678222656 351.7918395996094 113.66256713867188 351.7264404296875 111.86492919921875 C 351.4752197265625 110.1131591796875 349.3998107910156 108.58602905273438 347.8833923339844 109.51519775390625 L 346.9032897949219 107.66796875" stroke-width="0.6000000238418579" fill="rgb(159, 159, 159)" opacity="1.0"/>
    <path d="M 347.2442932128906 124.75413513183594 C 342.9783020019531 125.91876220703125 339.01837158203125 128.5703582763672 336.84588623046875 132.4193878173828 C 334.67340087890625 136.26841735839844 334.5249938964844 141.34234619140625 336.98681640625 145.0355224609375 C 338.73065185546875 147.64442443847656 341.60772705078125 149.370849609375 344.65521240234375 150.13070678710938 C 347.7027282714844 150.89059448242188 350.9144592285156 150.7558135986328 354.0074462890625 150.20660400390625 C 355.353271484375 149.966796875 356.74761962890625 149.6178436279297 357.7533874511719 148.69715881347656 C 358.90692138671875 147.64215087890625 359.3385009765625 146.03250122070312 359.6455078125 144.49485778808594 C 360.51214599609375 140.15374755859375 360.74652099609375 135.5144500732422 359.0451965332031 131.42706298828125 C 357.3438720703125 127.33966064453125 353.3094787597656 123.99172973632812 348.8973388671875 124.18487548828125 L 347.2442932128906 124.75413513183594" stroke-width="0.6000000238418579" fill="rgb(159, 159, 159)" opacity="1.0"/>
    <path d="M 359.8723449707031 105.98367309570312 C 355.6641845703125 105.87451171875 350.98187255859375 105.93545532226562 347.9062805175781 108.79766845703125 C 344.911376953125 111.57698059082031 344.4256591796875 116.07124328613281 344.20452880859375 120.15293884277344 C 344.11712646484375 121.81120300292969 344.0521545410156 123.54739379882812 344.7591247558594 125.04891967773438 C 345.9533386230469 127.58918762207031 348.9521179199219 128.7035675048828 351.7210388183594 129.1383514404297 C 354.29095458984375 129.5429229736328 356.9056091308594 129.57635498046875 359.4850158691406 129.2376708984375 C 363.6734619140625 128.6892547607422 368.1800537109375 126.71409606933594 369.6081237792969 122.740234375 C 370.3822326660156 120.59600830078125 370.11065673828125 118.17462158203125 369.3060302734375 116.03790283203125 C 368.50140380859375 113.90121459960938 367.19146728515625 111.99551391601562 365.8714294433594 110.13259887695312 C 364.5514221191406 108.26968383789062 363.2144775390625 106.46746826171875 361.2929382324219 105.3382568359375 L 359.8723449707031 105.98367309570312" stroke-width="0.6000000238418579" fill="rgb(218, 166, 20)" opacity="1.0"/>
    <path d="M 431.0699462890625 144.79928588867188 C 423.4898681640625 147.05264282226562 419.1717529296875 155.0242156982422 421.425048828125 162.60427856445312 C 421.6180419921875 163.25335693359375 421.8568115234375 163.887939453125 422.1395263671875 164.50323486328125 C 423.21441650390625 166.841064453125 425.03173828125 168.95016479492188 427.451171875 169.82220458984375 C 429.4957275390625 170.559326171875 431.75347900390625 170.35784912109375 433.88323974609375 169.93197631835938 C 439.58251953125 168.7841796875 444.8704833984375 166.13131713867188 449.1978759765625 162.24896240234375 C 450.34002685546875 161.2208251953125 451.435791015625 160.071044921875 452.00537109375 158.64022827148438 C 452.9630126953125 156.23873901367188 452.2479248046875 153.440673828125 450.8614501953125 151.2563018798828 C 448.8052978515625 148.01185607910156 445.3563232421875 145.77484130859375 441.63665771484375 144.8131866455078 C 437.9169921875 143.85154724121094 433.9515380859375 144.09107971191406 430.24517822265625 145.1013641357422 L 431.0699462890625 144.79928588867188" stroke-width="0.6000000238418579" fill="rgb(143, 165, 67)" opacity="1.0"/>
    <path d="M 144.6834716796875 412.79931640625 C 144.75445556640625 422.0467529296875 157.39474487304688 428.0621337890625 164.97195434570312 422.864990234375 C 172.54913330078125 417.66796875 171.8922119140625 404.3692626953125 164.13787841796875 399.32513427734375 C 156.383544921875 394.281005859375 144.5863037109375 398.3106689453125 140.9056396484375 406.8067932128906 L 144.6834716796875 412.79931640625" stroke-width="0.6000000238418579" fill="rgb(233, 92, 21)" opacity="1.0"/>
    <path d="M 435.181640625 191.46429443359375 C 430.63323974609375 190.64651489257812 425.11517333984375 190.141357421875 422.21240234375 193.757568359375 C 421.11322021484375 195.24160766601562 420.5015869140625 197.0301513671875 420.4620361328125 198.87652587890625 C 420.2410888671875 203.4422607421875 422.2469482421875 207.83181762695312 425.84332275390625 210.65325927734375 C 428.900146484375 213.03878784179688 432.7742919921875 213.98077392578125 436.53912353515625 214.80419921875 C 438.65472412109375 215.2633056640625 440.9171142578125 215.6837158203125 442.9229736328125 214.90151977539062 C 445.5880126953125 213.83697509765625 447.0120849609375 210.94671630859375 447.878173828125 208.211669921875 C 449.15087890625 204.21051025390625 449.7674560546875 200.02972412109375 449.7042236328125 195.83148193359375 C 449.6795654296875 194.38095092773438 449.5565185546875 192.8646240234375 448.803466796875 191.62518310546875 C 448.04443359375 190.50860595703125 446.97686767578125 189.636962890625 445.73095703125 189.11663818359375 C 442.01312255859375 187.39117431640625 437.72552490234375 187.38351440429688 434.00152587890625 189.095703125 L 435.181640625 191.46429443359375" stroke-width="0.6000000238418579" fill="rgb(70, 150, 179)" opacity="1.0"/>
    <path d="M 407.6322326660156 159.723876953125 C 406.8353576660156 154.97064208984375 405.7525329589844 149.73550415039062 401.8800354003906 146.87156677246094 C 397.7182312011719 143.79754638671875 391.668701171875 144.70269775390625 387.2949523925781 147.46665954589844 C 385.608154296875 148.5316162109375 384.02801513671875 149.9082794189453 383.23553466796875 151.73870849609375 C 382.5834655761719 153.24317932128906 382.5126647949219 154.92820739746094 382.5419616699219 156.5672607421875 C 382.6281433105469 161.73611450195312 383.7782287597656 167.25732421875 387.5252990722656 170.81723022460938 C 391.30426025390625 174.40243530273438 397.4696044921875 175.19772338867188 402.0240478515625 172.66021728515625 C 406.5784912109375 170.1226806640625 409.1971130371094 164.4932861328125 408.16156005859375 159.3800048828125 L 407.6322326660156 159.723876953125" stroke-width="0.6000000238418579" fill="rgb(140, 28, 33)" opacity="1.0"/>
    <path d="M 142.60629272460938 129.16995239257812 C 138.21189880371094 131.04811096191406 133.6599884033203 133.05088806152344 130.45201110839844 136.59774780273438 C 127.24411010742188 140.14454650878906 125.76254272460938 145.74615478515625 128.28408813476562 149.80874633789062 C 131.4078826904297 154.81663513183594 139.31793212890625 154.9421844482422 143.88302612304688 151.18405151367188 C 148.4481201171875 147.42591857910156 150.1656951904297 141.156982421875 150.34329223632812 135.25401306152344 C 150.5813446044922 133.43222045898438 150.12783813476562 131.5874481201172 149.0722198486328 130.08370971679688 C 147.88290405273438 128.72259521484375 145.2556610107422 128.5682830810547 144.47314453125 130.2075653076172 L 142.60629272460938 129.16995239257812" stroke-width="0.6000000238418579" fill="rgb(159, 159, 159)" opacity="1.0"/>
    <path d="M 425.826171875 173.39031982421875 C 421.8018798828125 171.215576171875 416.94482421875 170.37225341796875 412.5703125 171.70147705078125 C 408.1958923339844 173.03070068359375 404.4615173339844 176.72201538085938 403.6666564941406 181.24395751953125 C 403.10870361328125 184.44171142578125 404.0290832519531 187.78826904296875 405.7671813964844 190.53317260742188 C 407.5052795410156 193.278076171875 410.00518798828125 195.470703125 412.712158203125 197.26837158203125 C 413.890625 198.04998779296875 415.183349609375 198.78451538085938 416.593505859375 198.81365966796875 C 418.210205078125 198.84783935546875 419.6826171875 197.951416015625 421.0103759765625 197.01983642578125 C 424.75897216796875 194.38986206054688 428.247314453125 191.085205078125 429.892822265625 186.81130981445312 C 431.538330078125 182.53738403320312 430.9097900390625 177.15087890625 427.4698486328125 174.14471435546875 L 425.826171875 173.39031982421875" stroke-width="0.6000000238418579" fill="rgb(159, 159, 159)" opacity="1.0"/>
    <path d="M 406.62445068359375 187.3114013671875 C 406.1515808105469 182.94573974609375 405.43682861328125 178.11358642578125 402.0497131347656 175.33242797851562 C 398.7595520019531 172.62310791015625 394.04571533203125 172.74652099609375 389.79522705078125 173.0860595703125 C 388.0687255859375 173.22653198242188 386.2647705078125 173.4010009765625 384.8108825683594 174.34088134765625 C 382.3509521484375 175.9290771484375 381.6163024902344 179.18438720703125 381.5522155761719 182.10745239257812 C 381.49169921875 184.820556640625 381.8210754394531 187.52828979492188 382.5302429199219 190.14776611328125 C 383.6802062988281 194.4014892578125 386.34942626953125 198.78555297851562 390.65643310546875 199.70880126953125 C 392.9809265136719 200.21063232421875 395.4463806152344 199.59280395507812 397.5433349609375 198.46356201171875 C 399.6402893066406 197.33428955078125 401.4281005859375 195.71484375 403.1702575683594 194.09088134765625 C 404.9124450683594 192.4669189453125 406.5895080566406 190.83389282226562 407.4894104003906 188.690185546875 L 406.62445068359375 187.3114013671875" stroke-width="0.6000000238418579" fill="rgb(218, 166, 20)" opacity="1.0"/>
    <path d="M 444.0662841796875 179.44818115234375 C 443.8836669921875 186.87188720703125 449.7537841796875 193.03799438476562 457.177490234375 193.2205810546875 C 457.81317138671875 193.2362060546875 458.44915771484375 193.20672607421875 459.0806884765625 193.13238525390625 C 461.48028564453125 192.84933471679688 463.890625 191.83682250976562 465.370361328125 189.92816162109375 C 466.6209716796875 188.3153076171875 467.094970703125 186.24020385742188 467.3314208984375 184.21441650390625 C 467.956787109375 178.791015625 467.11865234375 173.29901123046875 464.90399169921875 168.30902099609375 C 464.31640625 166.99102783203125 463.606689453125 165.67919921875 462.4935302734375 164.7559814453125 C 460.625732421875 163.2049560546875 457.919189453125 163.0333251953125 455.56640625 163.63916015625 C 452.07275390625 164.5361328125 449.07550048828125 166.9691162109375 447.13916015625 170.01327514648438 C 445.2027587890625 173.05743408203125 444.26824951171875 176.66897583007812 444.09716796875 180.27239990234375 L 444.0662841796875 179.44818115234375" stroke-width="0.6000000238418579" fill="rgb(143, 165, 67)" opacity="1.0"/>
    <path d="M 148.0364532470703 102.46534729003906 C 138.2234344482422 108.83609008789062 140.41346740722656 126.4102783203125 151.11355590820312 130.95265197753906 C 161.81365966796875 135.49497985839844 175.54791259765625 125.74163818359375 175.64828491210938 114.03887939453125 C 175.7486572265625 102.33612060546875 163.42071533203125 92.49887084960938 151.85507202148438 94.35745239257812 L 148.0364532470703 102.46534729003906" stroke-width="0.6000000238418579" fill="rgb(233, 92, 21)" opacity="1.0"/>
    <path d="M 453.87908935546875 148.72488403320312 C 451.254150390625 152.90960693359375 448.55267333984375 158.18060302734375 450.98138427734375 162.50146484375 C 452.0147705078125 164.18341064453125 453.544677734375 165.50323486328125 455.3599853515625 166.27877807617188 C 459.7999267578125 168.31863403320312 464.95306396484375 168.0799560546875 469.1854248046875 165.638427734375 C 472.770263671875 163.55816650390625 475.24945068359375 160.09170532226562 477.5673828125 156.68637084960938 C 478.86639404296875 154.77134704589844 480.185546875 152.69534301757812 480.209716796875 150.39413452148438 C 480.216796875 147.32655334472656 477.9183349609375 144.76168823242188 475.55126953125 142.8119659423828 C 472.0906982421875 139.95419311523438 468.19036865234375 137.67539978027344 464.0015869140625 136.06396484375 C 462.55322265625 135.5099639892578 461.0003662109375 135.02731323242188 459.470947265625 135.27978515625 C 458.060791015625 135.58729553222656 456.7706298828125 136.29844665527344 455.7578125 137.32652282714844 C 452.56396484375 140.3255615234375 450.84649658203125 144.57467651367188 451.0594482421875 148.95068359375 L 453.87908935546875 148.72488403320312" stroke-width="0.6000000238418579" fill="rgb(70, 150, 179)" opacity="1.0"/>
    <path d="M 375.3006591796875 79.2042236328125 C 375.5009765625 73.43814086914062 375.4809265136719 67.03849792480469 371.6221923828125 62.754180908203125 C 367.4742736816406 58.15437316894531 360.1617431640625 57.77153015136719 354.3710632324219 59.969329833984375 C 352.1380615234375 60.815765380859375 349.9557189941406 62.053314208984375 348.5889892578125 64.01126098632812 C 347.4648132324219 65.620361328125 346.9793701171875 67.580078125 346.6223449707031 69.50975036621094 C 345.4891052246094 75.59365844726562 345.5197448730469 82.344970703125 349.06512451171875 87.41569519042969 C 352.6418762207031 92.52374267578125 359.6842346191406 94.928955078125 365.6327819824219 93.0399169921875 C 371.5813293457031 91.15087890625 375.9974365234375 85.17265319824219 376.0036926269531 78.92724609375 L 375.3006591796875 79.2042236328125" stroke-width="0.6000000238418579" fill="rgb(140, 28, 33)" opacity="1.0"/>
    <path d="M 133.5866241455078 411.5113525390625 C 130.39923095703125 415.5831298828125 127.12747192382812 419.8551025390625 125.9349365234375 424.8905029296875 C 124.742431640625 429.92578125 126.25802612304688 436.00927734375 130.7667999267578 438.546630859375 C 136.3394012451172 441.6663818359375 143.90475463867188 437.66162109375 146.27389526367188 431.7183837890625 C 148.6430206298828 425.775146484375 147.00332641601562 418.93585205078125 144.0942840576172 413.246337890625 C 143.37022399902344 411.3949279785156 141.97848510742188 409.8822326660156 140.19366455078125 409.0068054199219 C 138.35641479492188 408.3363037109375 135.78494262695312 409.5596618652344 135.8976287841797 411.52191162109375 L 133.5866241455078 411.5113525390625" stroke-width="0.6000000238418579" fill="rgb(159, 159, 159)" opacity="1.0"/>
    <path d="M 417.949951171875 210.380859375 C 414.510009765625 205.6202392578125 409.36395263671875 201.9345703125 403.56365966796875 201.030517578125 C 397.76336669921875 200.12646484375 391.3851013183594 202.31109619140625 387.9424743652344 207.0965576171875 C 385.5127868652344 210.4830322265625 384.70953369140625 214.86651611328125 385.1876525878906 219.0106201171875 C 385.665771484375 223.15469360351562 387.3330078125 227.08526611328125 389.4601135253906 230.67465209960938 C 390.3866882324219 232.23611450195312 391.4716491699219 233.80691528320312 393.0860290527344 234.6275634765625 C 394.93646240234375 235.56927490234375 397.1394348144531 235.35433959960938 399.1947021484375 235.01806640625 C 404.99713134765625 234.06869506835938 410.8750915527344 232.19390869140625 415.1629638671875 228.16995239257812 C 419.450927734375 224.14596557617188 421.72998046875 217.56634521484375 419.4296875 212.17047119140625 L 417.949951171875 210.380859375" stroke-width="0.6000000238418579" fill="rgb(159, 159, 159)" opacity="1.0"/>
    <path d="M 379.398681640625 118.57217407226562 C 374.1073913574219 118.72039794921875 368.2322998046875 119.1143798828125 364.5646057128906 122.91676330566406 C 360.9925231933594 126.60958862304688 360.6873779296875 132.28562927246094 360.6864318847656 137.42568969726562 C 360.68914794921875 139.51377868652344 360.7252502441406 141.69818115234375 361.7147521972656 143.53561401367188 C 363.386474609375 146.64425659179688 367.22735595703125 147.84017944335938 370.73358154296875 148.19839477539062 C 373.9878234863281 148.53213500976562 377.27313232421875 148.39683532714844 380.48895263671875 147.79669189453125 C 385.7108459472656 146.82412719726562 391.23553466796875 144.0385284423828 392.7592468261719 138.9520263671875 C 393.58587646484375 136.20721435546875 393.0806884765625 133.1852569580078 391.9255065917969 130.55691528320312 C 390.77032470703125 127.92857360839844 388.996337890625 125.62454223632812 387.21258544921875 123.37490844726562 C 385.4288330078125 121.12530517578125 383.6279296875 118.95303344726562 381.1386413574219 117.66546630859375 L 379.398681640625 118.57217407226562" stroke-width="0.6000000238418579" fill="rgb(218, 166, 20)" opacity="1.0"/>
    <path d="M 403.11846923828125 78.35440063476562 C 396.97686767578125 70.74990844726562 385.8334655761719 69.56401062011719 378.22900390625 75.70559692382812 C 377.57781982421875 76.23150634765625 376.96478271484375 76.80294799804688 376.39447021484375 77.41561889648438 C 374.22784423828125 79.7440185546875 372.6719055175781 82.81353759765625 372.81329345703125 85.9893798828125 C 372.9325256347656 88.67318725585938 374.22491455078125 91.15911865234375 375.7135925292969 93.39324951171875 C 379.7066650390625 99.367919921875 385.2266845703125 104.16445922851562 391.7001953125 107.28460693359375 C 393.4127197265625 108.10646057128906 395.2424621582031 108.818115234375 397.14593505859375 108.79611206054688 C 400.34149169921875 108.76106262207031 403.2034606933594 106.62734985351562 405.0481262207031 104.01493835449219 C 407.7894592285156 100.13836669921875 408.7240295410156 95.14360046386719 408.07342529296875 90.43939208984375 C 407.4228210449219 85.73516845703125 405.2835998535156 81.31512451171875 402.38519287109375 77.55372619628906 L 403.11846923828125 78.35440063476562" stroke-width="0.6000000238418579" fill="rgb(143, 165, 67)" opacity="1.0"/>
    <path d="M 122.92501831054688 430.3048095703125 C 115.58331298828125 422.2828369140625 99.80642700195312 426.9788818359375 97.27877807617188 437.4835205078125 C 94.75119018554688 447.98809814453125 105.79386901855469 459.087646484375 116.53822326660156 457.38946533203125 C 127.28256225585938 455.69134521484375 134.41552734375 442.8843994140625 130.94239807128906 432.5654296875 L 122.92501831054688 430.3048095703125" stroke-width="0.6000000238418579" fill="rgb(233, 92, 21)" opacity="1.0"/>
    <path d="M 449.1512451171875 204.57366943359375 C 445.8349609375 208.62271118164062 442.29345703125 213.80331420898438 444.2708740234375 218.66842651367188 C 445.13311767578125 220.57391357421875 446.5654296875 222.1649169921875 448.3702392578125 223.22186279296875 C 452.765380859375 225.95718383789062 458.213623046875 226.39254760742188 462.9874267578125 224.38986206054688 C 467.032470703125 222.6806640625 470.0999755859375 219.36721801757812 472.9898681640625 216.0965576171875 C 474.61029052734375 214.25665283203125 476.2733154296875 212.25021362304688 476.60516357421875 209.83462524414062 C 477.0211181640625 206.61123657226562 474.94671630859375 203.60919189453125 472.7183837890625 201.24462890625 C 469.46148681640625 197.77996826171875 465.665283203125 194.8653564453125 461.47705078125 192.61373901367188 C 460.0284423828125 191.83856201171875 458.46051025390625 191.12445068359375 456.81927490234375 191.1861572265625 C 455.296142578125 191.32159423828125 453.84539794921875 191.89727783203125 452.643798828125 192.843017578125 C 448.887451171875 195.57000732421875 446.516357421875 199.80755615234375 446.15740966796875 204.435546875 L 449.1512451171875 204.57366943359375" stroke-width="0.6000000238418579" fill="rgb(70, 150, 179)" opacity="1.0"/>
    <path d="M 422.25421142578125 135.4933624267578 C 423.44677734375 129.5203857421875 424.517822265625 122.84976196289062 421.228759765625 117.72792053222656 C 417.6922607421875 112.22805786132812 410.1393127441406 110.58151245117188 403.7315368652344 111.8831787109375 C 401.2607727050781 112.38398742675781 398.7760314941406 113.30091857910156 397.01806640625 115.10751342773438 C 395.5723571777344 116.59208679199219 394.73223876953125 118.55088806152344 394.031005859375 120.50033569335938 C 391.81231689453125 126.64523315429688 390.69232177734375 133.6840362548828 393.5207214355469 139.5717010498047 C 396.3754577636719 145.5035858154297 403.3018493652344 149.21095275878906 409.8214111328125 148.25791931152344 C 416.3409423828125 147.30487060546875 421.96173095703125 141.8302001953125 423.033935546875 135.32473754882812 L 422.25421142578125 135.4933624267578" stroke-width="0.6000000238418579" fill="rgb(140, 28, 33)" opacity="1.0"/>
    <path d="M 400.0091552734375 68.38864135742188 C 401.263916015625 73.37899780273438 402.6245422363281 78.55792236328125 405.854248046875 82.56857299804688 C 409.08392333984375 86.57916259765625 414.79034423828125 89.10111999511719 419.53656005859375 87.10612487792969 C 425.3897705078125 84.63044738769531 426.85980224609375 76.24008178710938 423.634765625 70.75056457519531 C 420.40966796875 65.26104736328125 414.033447265625 62.375335693359375 407.7862243652344 61.1890869140625 C 405.88916015625 60.628143310546875 403.8507995605469 60.79869079589844 402.0733642578125 61.667144775390625 C 400.42498779296875 62.701904296875 399.8169860839844 65.46965026855469 401.427978515625 66.57875061035156 L 400.0091552734375 68.38864135742188" stroke-width="0.6000000238418579" fill="rgb(159, 159, 159)" opacity="1.0"/>
    <path d="M 439.71356201171875 236.34661865234375 C 435.9534912109375 240.88296508789062 433.66583251953125 246.806396484375 434.2440185546875 252.66693115234375 C 434.822265625 258.5274658203125 438.54541015625 264.173828125 444.05767822265625 266.3160095214844 C 447.956787109375 267.8255920410156 452.416015625 267.50518798828125 456.32086181640625 266.0003662109375 C 460.22576904296875 264.4955139160156 463.624755859375 261.8893737792969 466.576904296875 258.9222412109375 C 467.86083984375 257.6302795410156 469.11407470703125 256.18212890625 469.50579833984375 254.40811157226562 C 469.955810546875 252.37445068359375 469.1939697265625 250.28875732421875 468.35137939453125 248.37701416015625 C 465.97247314453125 242.97976684570312 462.67578125 237.74151611328125 457.69097900390625 234.587158203125 C 452.70611572265625 231.432861328125 445.743408203125 230.8712158203125 441.0802001953125 234.46017456054688 L 439.71356201171875 236.34661865234375" stroke-width="0.6000000238418579" fill="rgb(159, 159, 159)" opacity="1.0"/>
    <path d="M 408.62384033203125 262.2152404785156 C 406.4093017578125 257.0974426269531 403.7260437011719 251.50469970703125 398.5721130371094 249.40423583984375 C 393.56280517578125 247.3544921875 387.89129638671875 249.27606201171875 382.8630676269531 251.2855224609375 C 380.8216247558594 252.1048583984375 378.69903564453125 252.99456787109375 377.2887268066406 254.68115234375 C 374.90179443359375 257.5322265625 375.2342224121094 261.75701904296875 376.2552185058594 265.3268127441406 C 377.2015686035156 268.64056396484375 378.6188659667969 271.8012390136719 380.46368408203125 274.71209716796875 C 383.4574279785156 279.43963623046875 388.34307861328125 283.75421142578125 393.91448974609375 283.25518798828125 C 396.9226989746094 282.9902038574219 399.68109130859375 281.3140869140625 401.8002624511719 279.1561279296875 C 403.9194030761719 276.9981689453125 405.4792785644531 274.3617248535156 406.98211669921875 271.7370300292969 C 408.4849853515625 269.11236572265625 409.90545654296875 266.5011291503906 410.1913146972656 263.5625915527344 L 408.62384033203125 262.2152404785156" stroke-width="0.6000000238418579" fill="rgb(218, 166, 20)" opacity="1.0"/>
    <path d="M 413.4395751953125 91.78776550292969 C 407.1705017089844 99.05197143554688 407.97723388671875 110.0228271484375 415.241455078125 116.2918701171875 C 415.86346435546875 116.82870483398438 416.5228271484375 117.32070922851562 417.2144775390625 117.76422119140625 C 419.84295654296875 119.44900512695312 423.080322265625 120.41409301757812 426.12298583984375 119.72119140625 C 428.6943359375 119.1358642578125 430.8690185546875 117.45205688476562 432.76611328125 115.622802734375 C 437.83740234375 110.71931457519531 441.503173828125 104.54739379882812 443.3828125 97.74819946289062 C 443.8765869140625 95.95013427734375 444.243408203125 94.05816650390625 443.888671875 92.2235107421875 C 443.2950439453125 89.14314270019531 440.73272705078125 86.75265502929688 437.8863525390625 85.42860412597656 C 433.66180419921875 83.45993041992188 428.67376708984375 83.43228149414062 424.24407958984375 84.88479614257812 C 419.81439208984375 86.3372802734375 415.919921875 89.1778564453125 412.794677734375 92.63629150390625 L 413.4395751953125 91.78776550292969" stroke-width="0.6000000238418579" fill="rgb(143, 165, 67)" opacity="1.0"/>
    <path d="M 435.5523681640625 125.21467590332031 C 433.21209716796875 135.94662475585938 446.2802734375 146.2267608642578 456.4200439453125 142.19082641601562 C 466.559814453125 138.1548309326172 469.28253173828125 122.57601928710938 461.620361328125 114.70095825195312 C 453.958251953125 106.82589721679688 439.23529052734375 108.40388488769531 432.7454833984375 117.2825927734375 L 435.5523681640625 125.21467590332031" stroke-width="0.6000000238418579" fill="rgb(233, 92, 21)" opacity="1.0"/>
    <path d="M 447.719482421875 94.81729125976562 C 446.12774658203125 100.09317016601562 444.7735595703125 106.56039428710938 448.6595458984375 110.49423217773438 C 450.26690673828125 111.99954223632812 452.3017578125 112.96900939941406 454.48345947265625 113.268798828125 C 459.861572265625 114.15585327148438 465.33599853515625 112.38116455078125 469.1707763671875 108.50747680664062 C 472.415283203125 105.21319580078125 474.061767578125 100.75311279296875 475.55279541015625 96.40626525878906 C 476.38641357421875 93.96310424804688 477.1943359375 91.34080505371094 476.54248046875 88.85762023925781 C 475.6466064453125 85.55487060546875 472.41796875 83.47213745117188 469.2967529296875 82.07147216796875 C 464.7314453125 80.01589965820312 459.863525390625 78.71279907226562 454.8818359375 78.21273803710938 C 453.16021728515625 78.04327392578125 451.34716796875 77.98135375976562 449.77587890625 78.70352172851562 C 448.3492431640625 79.44972229003906 447.1705322265625 80.59494018554688 446.38348388671875 81.99948120117188 C 443.830322265625 86.16714477539062 443.2340087890625 91.2449951171875 444.7520751953125 95.89079284667969 L 447.719482421875 94.81729125976562" stroke-width="0.6000000238418579" fill="rgb(70, 150, 179)" opacity="1.0"/>
    <path d="M 316.6049499511719 368.40283203125 C 310.6993713378906 367.0768737792969 304.0978088378906 365.8551025390625 298.9317932128906 369.0014343261719 C 293.3843994140625 372.3846435546875 291.57000732421875 379.8490905761719 292.71160888671875 386.24560546875 C 293.15069580078125 388.7120361328125 294.00286865234375 391.2021484375 295.7560119628906 392.9913024902344 C 297.1966552734375 394.462646484375 299.12274169921875 395.34356689453125 301.0428161621094 396.0863037109375 C 307.0949401855469 398.4357604980469 314.06109619140625 399.7148742675781 319.97698974609375 397.04425048828125 C 325.9374694824219 394.3485412597656 329.7843322753906 387.5552673339844 328.9917297363281 381.0559387207031 C 328.1991271972656 374.5566101074219 322.893310546875 368.8432312011719 316.45587158203125 367.624267578125 L 316.6049499511719 368.40283203125" stroke-width="0.6000000238418579" fill="rgb(140, 28, 33)" opacity="1.0"/>
    <path d="M 301.92913818359375 396.0867614746094 C 296.4450988769531 395.8745422363281 290.736328125 395.7142028808594 285.6628112792969 397.8171691894531 C 280.58935546875 399.920166015625 276.296875 405.00457763671875 276.91552734375 410.4607238769531 C 277.6942138671875 417.19403076171875 285.8411865234375 421.2147216796875 292.4269714355469 419.5599365234375 C 299.01275634765625 417.9051513671875 303.87841796875 412.2442626953125 306.9659423828125 406.2057800292969 C 308.1089782714844 404.4322814941406 308.545654296875 402.2947998046875 308.18975830078125 400.2151184082031 C 307.6249694824219 398.2176818847656 304.9744567871094 396.765380859375 303.35614013671875 398.08172607421875 L 301.92913818359375 396.0867614746094" stroke-width="0.6000000238418579" fill="rgb(159, 159, 159)" opacity="1.0"/>
    <path d="M 322.7023010253906 414.060791015625 C 317.1298522949219 416.85797119140625 312.3943786621094 421.62530517578125 310.46282958984375 427.55029296875 C 308.53131103515625 433.4752197265625 309.7384338378906 440.5299072265625 314.1692199707031 444.949462890625 C 317.3057861328125 448.07025146484375 321.76312255859375 449.65576171875 326.18695068359375 449.8577880859375 C 330.6108093261719 450.0599365234375 335.0126953125 448.9796142578125 339.1350402832031 447.359619140625 C 340.9285583496094 446.653564453125 342.7587585449219 445.7830810546875 343.89263916015625 444.2305908203125 C 345.1934814453125 442.451171875 345.34197998046875 440.106201171875 345.3383483886719 437.89532470703125 C 345.32794189453125 431.6536865234375 344.360595703125 425.17584228515625 340.87127685546875 419.9996337890625 C 337.3819274902344 414.823486328125 330.87359619140625 411.3187561035156 324.8287658691406 412.8138427734375 L 322.7023010253906 414.060791015625" stroke-width="0.6000000238418579" fill="rgb(159, 159, 159)" opacity="1.0"/>
    <path d="M 257.46136474609375 416.9027099609375 C 251.06771850585938 416.32025146484375 243.9356689453125 415.9498291015625 238.97177124023438 420.0015869140625 C 234.1387939453125 423.93511962890625 232.95498657226562 430.7269287109375 232.21466064453125 436.9169921875 C 231.9176025390625 439.43212890625 231.64694213867188 442.0679931640625 232.5743408203125 444.423095703125 C 234.14056396484375 448.4073486328125 238.59414672851562 450.39990234375 242.76519775390625 451.3355712890625 C 246.63632202148438 452.20550537109375 250.6123046875 452.51507568359375 254.5714111328125 452.2547607421875 C 261.00006103515625 451.83453369140625 268.0541076660156 449.27435302734375 270.6206359863281 443.3677978515625 C 272.0108642578125 440.1810302734375 271.8370666503906 436.468994140625 270.82391357421875 433.1375732421875 C 269.8106994628906 429.80615234375 268.0056457519531 426.7762451171875 266.1809997558594 423.8104248046875 C 264.3563537597656 420.8447265625 262.4999084472656 417.9696044921875 259.6872253417969 416.06097412109375 L 257.46136474609375 416.9027099609375" stroke-width="0.6000000238418579" fill="rgb(218, 166, 20)" opacity="1.0"/>
    <path d="M 223.29989624023438 410.6152648925781 C 213.50262451171875 405.6297607421875 201.518798828125 409.5304870605469 196.5333251953125 419.3277587890625 C 196.10641479492188 420.166748046875 195.73956298828125 421.034912109375 195.43551635742188 421.92578125 C 194.28082275390625 425.31103515625 194.09341430664062 429.1766357421875 195.69717407226562 432.371826171875 C 197.05221557617188 435.0721435546875 199.52069091796875 437.03045654296875 202.07501220703125 438.64013671875 C 208.91818237304688 442.9393310546875 216.7877197265625 445.327880859375 224.8660888671875 445.55755615234375 C 227.00152587890625 445.61468505859375 229.2066650390625 445.50482177734375 231.15057373046875 444.6080322265625 C 234.41485595703125 443.10430908203125 236.37274169921875 439.5994873046875 237.06649780273438 436.070556640625 C 238.10009765625 430.83203125 236.76541137695312 425.275390625 233.93692016601562 420.74517822265625 C 231.10845947265625 416.2149658203125 226.88232421875 412.66015625 222.17941284179688 410.130126953125 L 223.29989624023438 410.6152648925781" stroke-width="0.6000000238418579" fill="rgb(143, 165, 67)" opacity="1.0"/>
    <path d="M 279.5701904296875 360.1108703613281 C 284.61163330078125 370.6559143066406 302.30413818359375 370.7599792480469 308.1881103515625 360.74798583984375 C 314.0720520019531 350.7359924316406 306.1870422363281 335.868896484375 294.6071472167969 334.2555236816406 C 283.0272521972656 332.64215087890625 271.6875 343.5816955566406 272.0324401855469 355.2792053222656 L 279.5701904296875 360.1108703613281" stroke-width="0.6000000238418579" fill="rgb(233, 92, 21)" opacity="1.0"/>
    <path d="M 334.6453857421875 360.3332214355469 C 333.2880859375 365.9835510253906 332.2527770996094 372.873779296875 336.5812072753906 376.7806701660156 C 338.3642578125 378.2684020996094 340.5650329589844 379.16619873046875 342.87994384765625 379.3501281738281 C 348.5953674316406 379.95941162109375 354.2515563964844 377.7606506347656 358.05487060546875 373.45111083984375 C 361.2717590332031 369.78717041015625 362.7359619140625 364.99237060546875 364.0433349609375 360.3261413574219 C 364.7734680175781 357.7037353515625 365.4656982421875 354.8943176269531 364.629638671875 352.3194274902344 C 363.4870910644531 348.896484375 359.96240234375 346.8987121582031 356.59197998046875 345.6125183105469 C 351.66168212890625 343.7239990234375 346.458251953125 342.6459655761719 341.1835021972656 342.420166015625 C 339.3608093261719 342.3456726074219 337.4483642578125 342.3899230957031 335.8377685546875 343.2450256347656 C 334.380859375 344.11669921875 333.2090759277344 345.39349365234375 332.46527099609375 346.919677734375 C 330.0289611816406 351.4613342285156 329.7076110839844 356.8431396484375 331.586181640625 361.6424560546875 L 334.6453857421875 360.3332214355469" stroke-width="0.6000000238418579" fill="rgb(70, 150, 179)" opacity="1.0"/>
    <path d="M 295.7957763671875 419.8441162109375 C 289.6434020996094 418.672119140625 282.7747497558594 417.6314697265625 277.5382080078125 421.059814453125 C 271.91522216796875 424.74609375 270.290771484375 432.52716064453125 271.6873474121094 439.10394287109375 C 272.2247619628906 441.639892578125 273.19012451171875 444.18646240234375 275.06365966796875 445.9776611328125 C 276.603271484375 447.45068359375 278.625 448.2967529296875 280.63580322265625 449.00006103515625 C 286.97430419921875 451.2255859375 294.2219543457031 452.31329345703125 300.2501220703125 449.3515625 C 306.323486328125 446.3624267578125 310.0726318359375 439.20684814453125 309.03350830078125 432.511962890625 C 307.9943542480469 425.8170166015625 302.3141174316406 420.0872802734375 295.6153259277344 419.0439453125 L 295.7957763671875 419.8441162109375" stroke-width="0.6000000238418579" fill="rgb(140, 28, 33)" opacity="1.0"/>
    <path d="M 329.3212890625 393.80511474609375 C 323.9134216308594 394.5740661621094 318.2947082519531 395.433837890625 313.701171875 398.39678955078125 C 309.1077575683594 401.35968017578125 305.8100280761719 407.1029968261719 307.38763427734375 412.3355712890625 C 309.34942626953125 418.790283203125 318.0431823730469 421.27630615234375 324.1973876953125 418.48291015625 C 330.3515930175781 415.68951416015625 334.1078796386719 409.2796630859375 336.05572509765625 402.8167419433594 C 336.859130859375 400.8764953613281 336.9060363769531 398.7056884765625 336.1871337890625 396.73260498046875 C 335.2783203125 394.8772888183594 332.4241943359375 393.92724609375 331.073974609375 395.50445556640625 L 329.3212890625 393.80511474609375" stroke-width="0.6000000238418579" fill="rgb(159, 159, 159)" opacity="1.0"/>
    <path d="M 357.0857238769531 414.87152099609375 C 352.0509948730469 418.7996826171875 348.25244140625 424.53839111328125 347.5023193359375 430.876708984375 C 346.7522277832031 437.2149658203125 349.3811340332031 444.05755615234375 354.7184143066406 447.6064453125 C 358.4951171875 450.11083984375 363.28997802734375 450.80810546875 367.7734375 450.12274169921875 C 372.25689697265625 449.4373779296875 376.4607849121094 447.46856689453125 380.2755126953125 445.0137939453125 C 381.9349670410156 443.944580078125 383.5982666015625 442.702880859375 384.42529296875 440.91595458984375 C 385.3743896484375 438.8677978515625 385.05267333984375 436.4827880859375 384.6050720214844 434.26318359375 C 383.34130859375 427.996826171875 381.0690612792969 421.68536376953125 376.52532958984375 417.1876220703125 C 371.9815979003906 412.6898193359375 364.7415466308594 410.4768981933594 358.970947265625 413.1922607421875 L 357.0857238769531 414.87152099609375" stroke-width="0.6000000238418579" fill="rgb(159, 159, 159)" opacity="1.0"/>
    <path d="M 250.43377685546875 364.0347595214844 C 252.26092529296875 358.03424072265625 254.03192138671875 351.28521728515625 251.1419677734375 345.73193359375 C 248.33905029296875 340.3273620605469 242.07708740234375 337.8458557128906 236.30264282226562 335.9081115722656 C 233.9556884765625 335.1243896484375 231.48794555664062 334.3419189453125 229.05078125 334.76129150390625 C 224.92840576171875 335.4681396484375 222.13760375976562 339.33270263671875 220.4140625 343.13690185546875 C 218.81298828125 346.6672668457031 217.72711181640625 350.4092102050781 217.189697265625 354.2482604980469 C 216.3148193359375 360.4814453125 217.36276245117188 367.7379150390625 222.50323486328125 371.3663024902344 C 225.27554321289062 373.3291931152344 228.86102294921875 373.9002380371094 232.2491455078125 373.5927734375 C 235.6373291015625 373.2852478027344 238.894287109375 372.16033935546875 242.09378051757812 371.0039367675781 C 245.29327392578125 369.8475646972656 248.412353515625 368.64276123046875 250.79684448242188 366.3312072753906 L 250.43377685546875 364.0347595214844" stroke-width="0.6000000238418579" fill="rgb(218, 166, 20)" opacity="1.0"/>
    <path d="M 260.17193603515625 390.08184814453125 C 253.04360961914062 382.6333312988281 241.22674560546875 382.373779296875 233.77822875976562 389.5021057128906 C 233.14041137695312 390.11248779296875 232.54669189453125 390.76739501953125 232.00155639648438 391.4617919921875 C 229.93060302734375 394.1008605957031 228.567138671875 397.4647521972656 228.99697875976562 400.7900695800781 C 229.35995483398438 403.6002197265625 230.93841552734375 406.0985412597656 232.70089721679688 408.3147888183594 C 237.4267578125 414.2406005859375 243.65313720703125 418.79296875 250.73321533203125 421.4990234375 C 252.60586547851562 422.211181640625 254.59197998046875 422.79705810546875 256.590576171875 422.6053466796875 C 259.9460754394531 422.2855224609375 262.76507568359375 419.78955078125 264.47247314453125 416.8804931640625 C 267.0103454589844 412.56341552734375 267.5502624511719 407.2310791015625 266.44989013671875 402.3445129394531 C 265.3494873046875 397.45794677734375 262.709716796875 393.0018615722656 259.3303527832031 389.3052673339844 L 260.17193603515625 390.08184814453125" stroke-width="0.6000000238418579" fill="rgb(143, 165, 67)" opacity="1.0"/>
    <path d="M 205.91009521484375 377.9521179199219 C 196.40765380859375 385.2551574707031 200.07260131835938 403.0225830078125 211.36801147460938 406.79107666015625 C 222.66342163085938 410.5595397949219 235.89495849609375 399.4836730957031 235.04608154296875 387.5255126953125 C 234.19720458984375 375.5673828125 220.80917358398438 366.5244445800781 209.1502685546875 369.3625183105469 L 205.91009521484375 377.9521179199219" stroke-width="0.6000000238418579" fill="rgb(233, 92, 21)" opacity="1.0"/>
    <path d="M 255.8748779296875 368.6954040527344 C 256.2394714355469 374.7523498535156 257.3031311035156 381.9496765136719 262.81597900390625 384.5341491699219 C 265.04986572265625 385.477294921875 267.5213928222656 385.7039794921875 269.88958740234375 385.18292236328125 C 275.7837829589844 384.0513916015625 280.763916015625 380.1331481933594 283.2507019042969 374.6707458496094 C 285.3482971191406 370.0317077636719 285.3509826660156 364.7967529296875 285.23614501953125 359.73797607421875 C 285.16705322265625 356.8963623046875 285.00311279296875 353.87945556640625 283.38409423828125 351.5621643066406 C 281.20074462890625 348.4910888671875 277.07196044921875 347.5687561035156 273.31390380859375 347.31024169921875 C 267.814453125 346.92498779296875 262.2889099121094 347.43243408203125 256.95159912109375 348.8128356933594 C 255.1083984375 349.2933349609375 253.211669921875 349.9197998046875 251.86328125 351.2642517089844 C 250.6734619140625 352.5784912109375 249.89178466796875 354.21051025390625 249.613525390625 355.96136474609375 C 248.56280517578125 361.23944091796875 249.88034057617188 366.7127685546875 253.2178955078125 370.93450927734375 L 255.8748779296875 368.6954040527344" stroke-width="0.6000000238418579" fill="rgb(70, 150, 179)" opacity="1.0"/>
    <path d="M 333.5826416015625 360.5148620605469 C 336.2198181152344 354.7905578613281 338.902587890625 348.3348693847656 336.8246765136719 342.388916015625 C 334.5887451171875 336.0030212402344 327.383544921875 332.52880859375 320.62158203125 332.29718017578125 C 318.0144958496094 332.206787109375 315.2932434082031 332.53179931640625 313.0893859863281 333.9270324707031 C 311.2772521972656 335.07330322265625 309.96051025390625 336.842529296875 308.7857666015625 338.6357421875 C 305.07452392578125 344.2862243652344 302.25390625 351.10064697265625 303.6839599609375 357.70648193359375 C 305.12982177734375 364.3631591796875 311.2086486816406 369.76068115234375 317.999267578125 370.3700256347656 C 324.7898864746094 370.9794006347656 331.7637634277344 366.8219299316406 334.40789794921875 360.5327453613281 L 333.5826416015625 360.5148620605469" stroke-width="0.6000000238418579" fill="rgb(140, 28, 33)" opacity="1.0"/>
    <path d="M 355.3035888671875 400.06292724609375 C 349.883544921875 400.818359375 344.25201416015625 401.6642150878906 339.6417541503906 404.61993408203125 C 335.03155517578125 407.57568359375 331.7118225097656 413.320556640625 333.27789306640625 418.56719970703125 C 335.2254943847656 425.039306640625 343.9285583496094 427.55401611328125 350.1019287109375 424.7724609375 C 356.2752990722656 421.9908447265625 360.0562744140625 415.5794677734375 362.025634765625 409.10992431640625 C 362.8359069824219 407.1683044433594 362.8888854980469 404.99359130859375 362.1741027832031 403.0148620605469 C 361.26873779296875 401.153564453125 358.41192626953125 400.1938781738281 357.0548400878906 401.770263671875 L 355.3035888671875 400.06292724609375" stroke-width="0.6000000238418579" fill="rgb(159, 159, 159)" opacity="1.0"/>
    <path d="M 182.88629150390625 414.4384765625 C 176.29705810546875 414.70703125 169.65625 417.23895263671875 165.213623046875 422.1080322265625 C 160.77102661132812 426.9771728515625 158.86135864257812 434.30230712890625 161.20651245117188 440.4920654296875 C 162.8701171875 444.8662109375 166.4754638671875 448.33599853515625 170.65115356445312 450.45782470703125 C 174.82687377929688 452.5797119140625 179.53997802734375 453.4560546875 184.21881103515625 453.6904296875 C 186.2550048828125 453.7911376953125 188.39813232421875 453.74951171875 190.16729736328125 452.7470703125 C 192.1961669921875 451.59881591796875 193.36083984375 449.4033203125 194.32037353515625 447.27093505859375 C 197.02932739257812 441.25067138671875 198.9188232421875 434.5859375 197.81060791015625 428.07708740234375 C 196.702392578125 421.5682373046875 191.956298828125 415.355224609375 185.47900390625 414.1629638671875 L 182.88629150390625 414.4384765625" stroke-width="0.6000000238418579" fill="rgb(159, 159, 159)" opacity="1.0"/>
    <path d="M 360.53582763671875 366.8533935546875 C 354.4256896972656 368.41607666015625 347.7016906738281 370.41778564453125 344.4385681152344 375.8003845214844 C 341.2578125 381.0305480957031 342.39471435546875 387.7069396972656 343.7443542480469 393.6805419921875 C 344.29620361328125 396.1064147949219 344.91217041015625 398.6354675292969 346.544921875 400.5107421875 C 349.3045349121094 403.68408203125 354.08233642578125 404.0645751953125 358.2511291503906 403.5594787597656 C 362.1206359863281 403.0921630859375 365.9029846191406 402.0716552734375 369.482421875 400.5291748046875 C 375.2953186035156 398.0267333984375 380.983642578125 393.3377685546875 381.417724609375 387.0262756347656 C 381.6570739746094 383.6192626953125 380.27587890625 380.2401428222656 378.2427673339844 377.4892578125 C 376.20965576171875 374.7384033203125 373.5426330566406 372.5270080566406 370.8785400390625 370.38140869140625 C 368.2144775390625 368.23583984375 365.55078125 366.1846618652344 362.3196105957031 365.34246826171875 L 360.53582763671875 366.8533935546875" stroke-width="0.6000000238418579" fill="rgb(218, 166, 20)" opacity="1.0"/>
    <path d="M 380.33306884765625 381.35919189453125 C 375.3357238769531 390.5071105957031 378.700439453125 401.9740905761719 387.8483581542969 406.971435546875 C 388.6317138671875 407.39935302734375 389.44439697265625 407.7711486816406 390.2803649902344 408.0840759277344 C 393.4570617675781 409.2724914550781 397.1158447265625 409.5574035644531 400.1888732910156 408.1259460449219 C 402.7859191894531 406.91650390625 404.7106018066406 404.6311340332031 406.30718994140625 402.2547302246094 C 410.57208251953125 395.8877868652344 413.05438232421875 388.4949951171875 413.496337890625 380.8443603515625 C 413.60968017578125 378.8218688964844 413.5667724609375 376.72869873046875 412.7706298828125 374.8612976074219 C 411.43597412109375 371.7255554199219 408.1683044433594 369.77252197265625 404.8426513671875 369.01702880859375 C 399.9060363769531 367.8919677734375 394.6022644042969 369.0028381347656 390.22979736328125 371.55810546875 C 385.85736083984375 374.1133117675781 382.3706970214844 378.0203552246094 379.8421630859375 382.40777587890625 L 380.33306884765625 381.35919189453125" stroke-width="0.6000000238418579" fill="rgb(143, 165, 67)" opacity="1.0"/>
    <path d="M 364.4275817871094 364.8955078125 C 368.9488525390625 376.3912353515625 387.59222412109375 377.83197021484375 394.5482482910156 367.72015380859375 C 401.50421142578125 357.6082763671875 394.3104553222656 341.3424072265625 382.2244873046875 338.77044677734375 C 370.13848876953125 336.1984558105469 357.3612976074219 346.8776550292969 356.8448791503906 359.2349548339844 L 364.4275817871094 364.8955078125" stroke-width="0.6000000238418579" fill="rgb(233, 92, 21)" opacity="1.0"/>
    <path d="M 398.8658142089844 356.5653991699219 C 400.4041442871094 362.5579833984375 402.86322021484375 369.55670166015625 408.8824157714844 371.0758361816406 C 411.30133056640625 371.5871887207031 413.8193359375 371.3353271484375 416.08905029296875 370.3549499511719 C 421.7701416015625 368.08038330078125 425.996337890625 363.1933288574219 427.427490234375 357.2435302734375 C 428.6285400390625 352.1933288574219 427.6170654296875 346.95245361328125 426.5220947265625 341.9106750488281 C 425.9024658203125 339.07952880859375 425.1539306640625 336.0912780761719 423.08428955078125 334.085205078125 C 420.3037109375 331.4339294433594 415.99200439453125 331.3105163574219 412.17999267578125 331.7797546386719 C 406.6002197265625 332.4595031738281 401.1672668457031 334.03790283203125 396.09185791015625 336.4537048339844 C 394.33984375 337.2917785644531 392.5625 338.28631591796875 391.4731750488281 339.8934020996094 C 390.5367736816406 341.4394836425781 390.0704345703125 343.2246398925781 390.13104248046875 345.03118896484375 C 390.10174560546875 350.5182800292969 392.4809875488281 355.74200439453125 396.63983154296875 359.321533203125 L 398.8658142089844 356.5653991699219" stroke-width="0.6000000238418579" fill="rgb(70, 150, 179)" opacity="1.0"/>
    <path d="M 384.1734313964844 415.453125 C 381.3757019042969 421.574951171875 378.5317077636719 428.47802734375 380.7701416015625 434.8211669921875 C 383.1788024902344 441.6336669921875 390.88482666015625 445.32049560546875 398.1069641113281 445.54583740234375 C 400.8915100097656 445.6339111328125 403.7966003417969 445.2779541015625 406.1456298828125 443.78076171875 C 408.0771789550781 442.5506591796875 409.4776306152344 440.656982421875 410.726318359375 438.73809814453125 C 414.67138671875 432.691650390625 417.661376953125 425.405029296875 416.1126708984375 418.35498046875 C 414.546875 411.250732421875 408.0374755859375 405.5063171386719 400.78350830078125 404.8776550292969 C 393.529541015625 404.2489929199219 386.0953674316406 408.7116394042969 383.29205322265625 415.436767578125 L 384.1734313964844 415.453125" stroke-width="0.6000000238418579" fill="rgb(140, 28, 33)" opacity="1.0"/>
    <path d="M 410.08831787109375 385.289794921875 C 409.5908508300781 390.7225646972656 409.1330871582031 396.38116455078125 410.9553527832031 401.52752685546875 C 412.777587890625 406.67376708984375 417.60028076171875 411.2007751464844 423.048828125 410.87200927734375 C 429.7735595703125 410.4511413574219 434.1907958984375 402.5741271972656 432.892578125 395.95001220703125 C 431.5943603515625 389.325927734375 426.22943115234375 384.1998291015625 420.39666748046875 380.819091796875 C 418.6959228515625 379.5916748046875 416.596923828125 379.04638671875 414.513916015625 379.2909240722656 C 412.50152587890625 379.7471008300781 410.9212646484375 382.3022766113281 412.143310546875 383.9775695800781 L 410.08831787109375 385.289794921875" stroke-width="0.6000000238418579" fill="rgb(159, 159, 159)" opacity="1.0"/>
    <path d="M 439.3760986328125 368.28802490234375 C 441.4091796875 374.59564208984375 445.647705078125 380.3440856933594 451.5574951171875 383.3352966308594 C 457.4674072265625 386.3265075683594 465.0736083984375 386.204345703125 470.4356689453125 382.2680969238281 C 474.22314453125 379.4803161621094 476.61248779296875 375.0558776855469 477.543212890625 370.44189453125 C 478.47406005859375 365.827880859375 478.0543212890625 361.0287170410156 477.02215576171875 356.43548583984375 C 476.57177734375 354.4368896484375 475.95477294921875 352.3730773925781 474.50811767578125 350.92987060546875 C 472.850341796875 349.2745056152344 470.4112548828125 348.73760986328125 468.08843994140625 348.3823547363281 C 461.530517578125 347.3794860839844 454.569091796875 347.3434753417969 448.5653076171875 350.1679382324219 C 442.5615234375 352.992431640625 437.8231201171875 359.2595520019531 438.4117431640625 365.85186767578125 L 439.3760986328125 368.28802490234375" stroke-width="0.6000000238418579" fill="rgb(159, 159, 159)" opacity="1.0"/>
    <path d="M 427.0684814453125 409.8450622558594 C 422.08953857421875 413.9093017578125 416.731201171875 418.642578125 416.02203369140625 425.0179443359375 C 415.3236083984375 431.2169189453125 419.23699951171875 436.9019775390625 423.04571533203125 441.8460693359375 C 424.595947265625 443.852294921875 426.2496337890625 445.92633056640625 428.5631103515625 446.9600830078125 C 432.47491455078125 448.71075439453125 437.05517578125 447.01422119140625 440.6927490234375 444.760009765625 C 444.06988525390625 442.6690673828125 447.12921142578125 440.10400390625 449.7772216796875 437.1434326171875 C 454.0784912109375 432.3377685546875 457.32720947265625 425.5640869140625 455.022705078125 419.5428466796875 C 453.7833251953125 416.2904052734375 451.0577392578125 413.75848388671875 447.99871826171875 412.08685302734375 C 444.939697265625 410.4152526855469 441.52587890625 409.5141906738281 438.14306640625 408.6726989746094 C 434.76025390625 407.8311767578125 431.418212890625 407.0768127441406 428.06988525390625 407.6834411621094 L 427.0684814453125 409.8450622558594" stroke-width="0.6000000238418579" fill="rgb(218, 166, 20)" opacity="1.0"/>
    <path d="M 138.0776824951172 222.1146240234375 C 132.79981994628906 231.89227294921875 136.44764709472656 244.09722900390625 146.22531127929688 249.37506103515625 C 147.0625762939453 249.8270263671875 147.93084716796875 250.218994140625 148.82359313964844 250.54806518554688 C 152.21603393554688 251.7978515625 156.1175537109375 252.08197021484375 159.385498046875 250.53973388671875 C 162.14727783203125 249.2366943359375 164.18661499023438 246.79034423828125 165.875732421875 244.24874877929688 C 170.38775634765625 237.43930053710938 172.99420166015625 229.5458984375 173.42431640625 221.3885498046875 C 173.53436279296875 219.23214721679688 173.4774169921875 217.001220703125 172.61883544921875 215.01498413085938 C 171.179443359375 211.6796875 167.6859130859375 209.6153564453125 164.136962890625 208.82781982421875 C 158.86892700195312 207.65496826171875 153.22145080566406 208.867431640625 148.57443237304688 211.614501953125 C 143.9274139404297 214.361572265625 140.23178100585938 218.5447998046875 137.5600128173828 223.23495483398438 L 138.0776824951172 222.1146240234375" stroke-width="0.6000000238418579" fill="rgb(143, 165, 67)" opacity="1.0"/>
    <path d="M 173.677490234375 259.8448791503906 C 180.82614135742188 270.8823547363281 200.58193969726562 268.4422302246094 205.7005615234375 256.4210205078125 C 210.81915283203125 244.39981079101562 199.873291015625 228.9508056640625 186.71969604492188 228.82369995117188 C 173.56610107421875 228.69662475585938 162.49407958984375 242.541015625 164.56903076171875 255.54290771484375 L 173.677490234375 259.8448791503906" stroke-width="0.6000000238418579" fill="rgb(233, 92, 21)" opacity="1.0"/>
    <path d="M 145.47669982910156 316.16949462890625 C 140.89602661132812 320.7879638671875 135.90330505371094 326.7799377441406 137.77601623535156 333.03253173828125 C 138.61810302734375 335.4917907714844 140.2025604248047 337.629150390625 142.31088256835938 339.14971923828125 C 147.42611694335938 343.0523986816406 154.1156463623047 344.233642578125 160.25814819335938 342.31890869140625 C 165.46453857421875 340.6813049316406 169.65057373046875 336.9435729980469 173.61187744140625 333.23779296875 C 175.83367919921875 331.15252685546875 178.12789916992188 328.8662109375 178.82342529296875 325.91668701171875 C 179.71826171875 321.9776306152344 177.50579833984375 318.0187072753906 175.02767944335938 314.830322265625 C 171.40676879882812 310.1595764160156 167.0537109375 306.1056823730469 162.13739013671875 302.8258972167969 C 160.43655395507812 301.6959533691406 158.580810546875 300.62750244140625 156.54296875 300.51025390625 C 154.64254760742188 300.4981994628906 152.7796630859375 301.0393371582031 151.1814727783203 302.0677185058594 C 146.2122344970703 304.99859619140625 142.77883911132812 309.9618225097656 141.7888946533203 315.64544677734375 L 145.47669982910156 316.16949462890625" stroke-width="0.6000000238418579" fill="rgb(70, 150, 179)" opacity="1.0"/>
    <path d="M 126.72959899902344 305.2278137207031 C 126.0125732421875 298.389892578125 124.93069458007812 290.8406982421875 119.66841125488281 286.4226379394531 C 114.0126953125 281.6800842285156 105.31954956054688 282.4374084472656 98.84915161132812 285.9886474609375 C 96.35385131835938 287.3567810058594 93.98300170898438 289.1781311035156 92.69380187988281 291.71478271484375 C 91.63320922851562 293.79962158203125 91.38435363769531 296.192626953125 91.28207397460938 298.5289611816406 C 90.95066833496094 305.896240234375 92.10319519042969 313.8586730957031 97.12570190429688 319.2566223144531 C 102.19140625 324.69342041015625 110.90010070800781 326.3674621582031 117.60787963867188 323.1545104980469 C 124.315673828125 319.94158935546875 128.5387725830078 312.15618896484375 127.51348876953125 304.78466796875 L 126.72959899902344 305.2278137207031" stroke-width="0.6000000238418579" fill="rgb(140, 28, 33)" opacity="1.0"/>
    <path d="M 141.18264770507812 279.22113037109375 C 136.36520385742188 281.76348876953125 131.38040161132812 284.4620666503906 128.06597900390625 288.78973388671875 C 124.75160217285156 293.1173400878906 123.58952331542969 299.6186828613281 126.8319091796875 303.9993591308594 C 130.8463897705078 309.39788818359375 139.84405517578125 308.8048095703125 144.68055725097656 304.1108703613281 C 149.51705932617188 299.4169616699219 150.8852081298828 292.13555908203125 150.5379180908203 285.41314697265625 C 150.63890075683594 283.3214111328125 149.95213317871094 281.26788330078125 148.6130828857422 279.65777587890625 C 147.13539123535156 278.2221374511719 144.13641357421875 278.29119873046875 143.3999481201172 280.22625732421875 L 141.18264770507812 279.22113037109375" stroke-width="0.6000000238418579" fill="rgb(159, 159, 159)" opacity="1.0"/>
    <path d="M 165.08758544921875 285.7187805175781 C 164.01611328125 292.4043273925781 165.2119140625 299.60260009765625 169.20721435546875 305.0646667480469 C 173.20248413085938 310.5267333984375 180.18508911132812 313.93994140625 186.89141845703125 312.84027099609375 C 191.63189697265625 312.0567932128906 195.85769653320312 309.13519287109375 198.84317016601562 305.3651428222656 C 201.82867431640625 301.5950927734375 203.67019653320312 297.0306396484375 204.85867309570312 292.3699645996094 C 205.37469482421875 290.3414306640625 205.76910400390625 288.1763000488281 205.12060546875 286.19183349609375 C 204.37814331054688 283.9163818359375 202.40594482421875 282.2973327636719 200.4554443359375 280.89752197265625 C 194.94873046875 276.9456787109375 188.62661743164062 273.687255859375 181.85101318359375 273.4772033691406 C 175.075439453125 273.26715087890625 167.85687255859375 276.7781677246094 165.33822631835938 283.05364990234375 L 165.08758544921875 285.7187805175781" stroke-width="0.6000000238418579" fill="rgb(159, 159, 159)" opacity="1.0"/>
    <path d="M 120.41270446777344 345.1691589355469 C 119.22271728515625 338.6736755371094 117.61860656738281 331.5051574707031 112.23239135742188 327.7070007324219 C 106.99949645996094 324.00592041015625 99.94332885742188 324.71014404296875 93.60588073730469 325.6874694824219 C 91.03195190429688 326.0882568359375 88.34564208984375 326.5486145019531 86.26860046386719 328.11834716796875 C 82.75411987304688 330.7712097167969 82.01080322265625 335.7343444824219 82.23660278320312 340.1253967285156 C 82.44459533691406 344.2011413574219 83.23678588867188 348.22589111328125 84.58885192871094 352.07647705078125 C 86.781982421875 358.32952880859375 91.26806640625 364.6107177734375 97.829345703125 365.5210876464844 C 101.37081909179688 366.0177307128906 105.00047302246094 364.8196105957031 108.02110290527344 362.89508056640625 C 111.04171752929688 360.97052001953125 113.54470825195312 358.3447265625 115.978759765625 355.71728515625 C 118.41278076171875 353.08984375 120.74819946289062 350.4559631347656 121.86181640625 347.14178466796875 L 120.41270446777344 345.1691589355469" stroke-width="0.6000000238418579" fill="rgb(218, 166, 20)" opacity="1.0"/>
    <path d="M 153.5909881591797 343.20135498046875 C 143.0855255126953 346.26068115234375 137.04922485351562 357.2571105957031 140.10855102539062 367.7625732421875 C 140.37051391601562 368.66217041015625 140.69598388671875 369.5420227050781 141.08245849609375 370.39556884765625 C 142.5516357421875 373.6385192871094 145.04989624023438 376.57080078125 148.3908233642578 377.79608154296875 C 151.2140350341797 378.831787109375 154.33946228027344 378.5704040527344 157.28955078125 377.99761962890625 C 165.18414306640625 376.4534912109375 172.52127075195312 372.8236999511719 178.538818359375 367.4853210449219 C 180.12701416015625 366.071533203125 181.65203857421875 364.4891357421875 182.45123291015625 362.5137939453125 C 183.7947998046875 359.19842529296875 182.82693481445312 355.3213806152344 180.9254150390625 352.2882995605469 C 178.10552978515625 347.7832946777344 173.35064697265625 344.66143798828125 168.21136474609375 343.3021545410156 C 163.0721435546875 341.94287109375 157.58358764648438 342.2436828613281 152.4474639892578 343.6129455566406 L 153.5909881591797 343.20135498046875" stroke-width="0.6000000238418579" fill="rgb(143, 165, 67)" opacity="1.0"/>
    <path d="M 141.31784057617188 381.6868896484375 C 133.4898681640625 371.671875 114.67745971679688 375.712890625 110.77845764160156 387.7254638671875 C 106.8795166015625 399.7380676269531 118.74127197265625 413.675537109375 131.41676330566406 412.67156982421875 C 144.0922393798828 411.6676025390625 153.56715393066406 397.3898620605469 150.45606994628906 385.04901123046875 L 141.31784057617188 381.6868896484375" stroke-width="0.6000000238418579" fill="rgb(233, 92, 21)" opacity="1.0"/>
    <path d="M 187.897705078125 356.1643371582031 C 186.53414916992188 362.3779602050781 185.54977416992188 369.9416809082031 190.37164306640625 374.1242980957031 C 192.35531616210938 375.714111328125 194.783447265625 376.64923095703125 197.32110595703125 376.8005676269531 C 203.58978271484375 377.343994140625 209.73300170898438 374.8153076171875 213.80267333984375 370.0163879394531 C 217.24444580078125 365.9367370605469 218.74346923828125 360.6571960449219 220.07363891601562 355.52178955078125 C 220.816162109375 352.63580322265625 221.51315307617188 349.5459289550781 220.54248046875 346.7457580566406 C 219.21804809570312 343.0240173339844 215.31710815429688 340.9135437011719 211.60040283203125 339.57861328125 C 206.1634521484375 337.6180725097656 200.44500732421875 336.5505065917969 194.6668701171875 336.41729736328125 C 192.67034912109375 336.3751220703125 190.578125 336.46484375 188.833740234375 337.4355163574219 C 187.25799560546875 338.4210510253906 186.0030517578125 339.84381103515625 185.221923828125 341.5302429199219 C 182.6534423828125 346.5537414550781 182.41793823242188 352.4510803222656 184.57769775390625 357.6633605957031 L 187.897705078125 356.1643371582031" stroke-width="0.6000000238418579" fill="rgb(70, 150, 179)" opacity="1.0"/>
  </g>
</svg>
