<?xml version="1.0" ?>
<svg xmlns="http://www.w3.org/2000/svg" version="1.1" width="600" height="600">
  <defs/>
  <g>
    <path d="M 354.9950866699219 343.53814697265625 C 359.6662292480469 346.7520751953125 367.1303405761719 342.5150146484375 367.18182373046875 336.8817138671875 C 367.2333068847656 331.2484436035156 360.32080078125 326.9053039550781 355.06158447265625 329.02880859375 C 349.8023681640625 331.15228271484375 347.681396484375 338.49560546875 350.65673828125 343.3304443359375 L 354.9950866699219 343.53814697265625" stroke-width="0.6000000238418579" fill="rgb(233, 92, 21)" opacity="1.0"/>
    <path d="M 115.57023620605469 202.92974853515625 C 118.33174133300781 201.42926025390625 121.47480773925781 199.35052490234375 121.47724914550781 196.19696044921875 C 121.42938232421875 194.94195556640625 120.99325561523438 193.73272705078125 120.22901916503906 192.736083984375 C 118.40444946289062 190.21923828125 115.47315979003906 188.742919921875 112.36471557617188 188.77523803710938 C 109.72796630859375 188.80938720703125 107.271484375 189.95718383789062 104.92343139648438 191.12139892578125 C 103.60549926757812 191.77752685546875 102.22613525390625 192.51663208007812 101.49436950683594 193.7847900390625 C 100.5328369140625 195.483154296875 101.00637817382812 197.62255859375 101.7099609375 199.44235229492188 C 102.73631286621094 202.10690307617188 104.18717956542969 204.5877685546875 106.00628662109375 206.7886962890625 C 106.63627624511719 207.54794311523438 107.34648132324219 208.30026245117188 108.27317810058594 208.63775634765625 C 109.15087890625 208.907470703125 110.08810424804688 208.91595458984375 110.97055053710938 208.6622314453125 C 113.67732238769531 207.99664306640625 115.95587158203125 206.17718505859375 117.203857421875 203.68478393554688 L 115.57023620605469 202.92974853515625" stroke-width="0.6000000238418579" fill="rgb(70, 150, 179)" opacity="1.0"/>
    <path d="M 453.46405029296875 421.0205078125 C 454.8265380859375 424.29437255859375 456.47412109375 427.865966796875 459.726318359375 429.2738037109375 C 463.22076416015625 430.7840576171875 467.4056396484375 429.128173828125 470.080078125 426.4190673828125 C 471.11163330078125 425.375 472.014892578125 424.1253662109375 472.27813720703125 422.6815185546875 C 472.4949951171875 421.4947509765625 472.26513671875 420.275390625 471.9713134765625 419.1055908203125 C 471.0489501953125 415.41552734375 469.3055419921875 411.6500244140625 466.02740478515625 409.7225646972656 C 462.72216796875 407.7822570800781 458.17120361328125 408.2387390136719 455.32958984375 410.8155822753906 C 452.48797607421875 413.3924560546875 451.5484619140625 417.8629150390625 453.1419677734375 421.3551025390625 L 453.46405029296875 421.0205078125" stroke-width="0.6000000238418579" fill="rgb(140, 28, 33)" opacity="1.0"/>
    <path d="M 89.09251403808594 205.496337890625 C 92.1546630859375 204.51513671875 95.33016967773438 203.46044921875 97.70272827148438 201.28665161132812 C 100.07524108886719 199.11288452148438 101.42080688476562 195.45379638671875 99.98773193359375 192.57339477539062 C 98.21080017089844 189.02175903320312 92.91986083984375 188.43905639648438 89.62486267089844 190.6688232421875 C 86.32986450195312 192.89862060546875 84.78411865234375 196.9898681640625 84.2930908203125 200.9329833984375 C 84.01878356933594 202.13836669921875 84.206298828125 203.40277099609375 84.81864929199219 204.47662353515625 C 85.52957153320312 205.46337890625 87.27981567382812 205.73236083984375 87.90733337402344 204.68356323242188 L 89.09251403808594 205.496337890625" stroke-width="0.6000000238418579" fill="rgb(159, 159, 159)" opacity="1.0"/>
    <path d="M 382.15374755859375 298.98614501953125 C 385.20111083984375 297.8935852050781 387.9405517578125 295.7331237792969 389.30731201171875 292.80035400390625 C 390.674072265625 289.8675842285156 390.4939270019531 286.1558837890625 388.4871520996094 283.600341796875 C 387.0660400390625 281.79534912109375 384.8680419921875 280.69891357421875 382.6005859375 280.31756591796875 C 380.3331298828125 279.9362487792969 377.9966735839844 280.21722412109375 375.77044677734375 280.7939147949219 C 374.80181884765625 281.04547119140625 373.803955078125 281.3794250488281 373.12225341796875 282.10858154296875 C 372.34033203125 282.9441833496094 372.1168518066406 284.1435241699219 371.9801940917969 285.28326416015625 C 371.594482421875 288.5009460449219 371.68719482421875 291.9002990722656 373.16131591796875 294.78680419921875 C 374.6354675292969 297.6733093261719 377.7703552246094 299.887451171875 380.9796142578125 299.49560546875 L 382.15374755859375 298.98614501953125" stroke-width="0.6000000238418579" fill="rgb(159, 159, 159)" opacity="1.0"/>
    <path d="M 101.16560363769531 429.619873046875 C 102.96749877929688 426.9444580078125 104.8544921875 423.8924560546875 104.26956176757812 420.7266845703125 C 103.70501708984375 417.6470947265625 100.99951171875 415.484130859375 98.45185852050781 413.661865234375 C 97.41581726074219 412.923095703125 96.3201904296875 412.16680908203125 95.05865478515625 412.006103515625 C 92.92515563964844 411.73297119140625 90.97100830078125 413.2130126953125 89.55075073242188 414.82415771484375 C 88.23190307617188 416.31903076171875 87.13456726074219 417.99554443359375 86.29229736328125 419.8023681640625 C 84.92361450195312 422.735595703125 84.34635925292969 426.4615478515625 86.32774353027344 429.0196533203125 C 87.39540100097656 430.40228271484375 89.07247924804688 431.222900390625 90.7847900390625 431.58184814453125 C 92.49710083007812 431.9407958984375 94.26800537109375 431.87799072265625 96.01536560058594 431.7911376953125 C 97.76272583007812 431.7042236328125 99.47784423828125 431.5814208984375 100.99838256835938 430.80377197265625 L 101.16560363769531 429.619873046875" stroke-width="0.6000000238418579" fill="rgb(218, 166, 20)" opacity="1.0"/>
    <path d="M 99.02838134765625 141.10028076171875 C 105.0546875 141.23728942871094 110.05104064941406 136.46307373046875 110.18804931640625 130.43678283691406 C 110.19978332519531 129.92074584960938 110.17489624023438 129.404541015625 110.11357116699219 128.8920135498047 C 109.88020324707031 126.94462585449219 109.0546875 124.98957824707031 107.50314331054688 123.79132080078125 C 106.19207763671875 122.77859497070312 104.50692749023438 122.39701843261719 102.8621826171875 122.20816040039062 C 98.45889282226562 121.70866394042969 94.00218200683594 122.39730834960938 89.95500183105469 124.2025146484375 C 88.88601684570312 124.68148803710938 87.82223510742188 125.25955200195312 87.07452392578125 126.16448974609375 C 85.81834411621094 127.6829833984375 85.68312072753906 129.88021850585938 86.17843627929688 131.7891387939453 C 86.91180419921875 134.62371826171875 88.8912353515625 137.05296325683594 91.36517333984375 138.6201629638672 C 93.839111328125 140.18736267089844 96.77212524414062 140.9405059814453 99.69740295410156 141.07391357421875 L 99.02838134765625 141.10028076171875" stroke-width="0.6000000238418579" fill="rgb(143, 165, 67)" opacity="1.0"/>
    <path d="M 458.80291748046875 344.6553039550781 C 462.1500244140625 350.8279724121094 472.76824951171875 350.3495788574219 475.992431640625 344.1627502441406 C 479.21661376953125 337.9759216308594 474.0313720703125 329.29705810546875 467.03436279296875 328.68304443359375 C 460.037353515625 328.0690612792969 453.5682373046875 334.9791564941406 454.13275146484375 341.9868469238281 L 458.80291748046875 344.6553039550781" stroke-width="0.6000000238418579" fill="rgb(233, 92, 21)" opacity="1.0"/>
    <path d="M 98.40057373046875 219.8131103515625 C 100.3834228515625 217.13934326171875 102.47467041015625 213.73977661132812 101.06954956054688 210.7095947265625 C 100.46342468261719 209.52545166015625 99.50480651855469 208.55859375 98.32589721679688 207.9423828125 C 95.45001220703125 206.33920288085938 91.97549438476562 206.22943115234375 89.00411987304688 207.64779663085938 C 86.48667907714844 208.85745239257812 84.63937377929688 211.05630493164062 82.90359497070312 213.22259521484375 C 81.93051147460938 214.4410400390625 80.93545532226562 215.7666015625 80.79856872558594 217.31134033203125 C 80.63299560546875 219.371826171875 82.04269409179688 221.2154541015625 83.53071594238281 222.6494140625 C 85.705810546875 224.750732421875 88.2066650390625 226.48614501953125 90.93630981445312 227.788330078125 C 91.88031005859375 228.2364501953125 92.89826965332031 228.64212036132812 93.93902587890625 228.55267333984375 C 94.9024658203125 228.42001342773438 95.80650329589844 228.0098876953125 96.5408935546875 227.372314453125 C 98.84378051757812 225.52490234375 100.22036743164062 222.76028442382812 100.30671691894531 219.80923461914062 L 98.40057373046875 219.8131103515625" stroke-width="0.6000000238418579" fill="rgb(70, 150, 179)" opacity="1.0"/>
    <path d="M 103.88531494140625 80.61566162109375 C 104.36203002929688 84.33273315429688 105.0465087890625 88.43278503417969 107.96957397460938 90.7740478515625 C 111.11111450195312 93.2872314453125 115.838623046875 92.76519775390625 119.31976318359375 90.74868774414062 C 120.66229248046875 89.97178649902344 121.93128967285156 88.94949340820312 122.60189819335938 87.551025390625 C 123.15359497070312 86.401611328125 123.25910949707031 85.09451293945312 123.28546142578125 83.82009887695312 C 123.37338256835938 79.80140686035156 122.64520263671875 75.47705078125 119.84046936035156 72.59880065917969 C 117.01171875 69.69992065429688 112.24516296386719 68.89724731445312 108.63040161132812 70.73239135742188 C 105.01564025878906 72.56753540039062 102.81231689453125 76.863037109375 103.46372985839844 80.86698913574219 L 103.88531494140625 80.61566162109375" stroke-width="0.6000000238418579" fill="rgb(140, 28, 33)" opacity="1.0"/>
    <path d="M 90.98538208007812 414.21337890625 C 94.46992492675781 413.14404296875 98.08401489257812 411.99285888671875 100.8035888671875 409.5620422363281 C 103.52310180664062 407.13128662109375 105.099365234375 403.00262451171875 103.51522827148438 399.7177429199219 C 101.55072021484375 395.667236328125 95.56170654296875 394.9328918457031 91.79580688476562 397.4142761230469 C 88.02989196777344 399.8956604003906 86.220703125 404.5113830566406 85.60906982421875 408.9739685058594 C 85.28132629394531 410.33642578125 85.47622680664062 411.77215576171875 86.15530395507812 412.9979248046875 C 86.94734191894531 414.1263427734375 88.92742919921875 414.45562744140625 89.65335083007812 413.27557373046875 L 90.98538208007812 414.21337890625" stroke-width="0.6000000238418579" fill="rgb(159, 159, 159)" opacity="1.0"/>
    <path d="M 475.57098388671875 65.50869750976562 C 477.0078125 62.4600830078125 477.43145751953125 58.852783203125 476.2763671875 55.688507080078125 C 475.121337890625 52.524261474609375 472.2545166015625 49.92657470703125 468.895751953125 49.52500915527344 C 466.5206298828125 49.24409484863281 464.09600830078125 50.056732177734375 462.1470947265625 51.44657897949219 C 460.1982421875 52.83642578125 458.68646240234375 54.764312744140625 457.4736328125 56.828521728515625 C 456.9464111328125 57.727142333984375 456.4583740234375 58.7078857421875 456.49407958984375 59.7464599609375 C 456.534423828125 60.937164306640625 457.2535400390625 61.98406982421875 457.99267578125 62.923126220703125 C 460.07928466796875 65.57426452636719 462.65167236328125 68.006591796875 465.8624267578125 69.04400634765625 C 469.0732421875 70.0814208984375 473.01043701171875 69.40081787109375 475.08258056640625 66.7484130859375 L 475.57098388671875 65.50869750976562" stroke-width="0.6000000238418579" fill="rgb(159, 159, 159)" opacity="1.0"/>
    <path d="M 89.65219116210938 105.87832641601562 C 93.04780578613281 106.43804931640625 96.84645080566406 106.91311645507812 99.65768432617188 104.939697265625 C 102.39430236816406 103.02439880371094 103.29098510742188 99.43927001953125 103.92721557617188 96.15859985351562 C 104.1837158203125 94.82550048828125 104.4307861328125 93.42677307128906 104.02644348144531 92.13162231445312 C 103.34384155273438 89.94071960449219 101.04019165039062 88.70242309570312 98.8465576171875 88.04019165039062 C 96.81072998046875 87.42474365234375 94.69706726074219 87.10482788085938 92.57028198242188 87.0902099609375 C 89.11698913574219 87.06523132324219 85.24624633789062 88.16000366210938 83.64468383789062 91.21817016601562 C 82.77764892578125 92.86788940429688 82.72639465332031 94.85922241210938 83.13868713378906 96.67967224121094 C 83.55097961425781 98.5001220703125 84.39834594726562 100.19010925292969 85.25868225097656 101.8465576171875 C 86.11900329589844 103.50302124023438 86.99984741210938 105.11222839355469 88.42947387695312 106.24189758300781 L 89.65219116210938 105.87832641601562" stroke-width="0.6000000238418579" fill="rgb(218, 166, 20)" opacity="1.0"/>
    <path d="M 125.06222534179688 132.43064880371094 C 131.14877319335938 131.17030334472656 135.06118774414062 125.2144775390625 133.8008575439453 119.1279296875 C 133.69293212890625 118.60673522949219 133.5481719970703 118.09385681152344 133.36767578125 117.5931396484375 C 132.6814422607422 115.69068908691406 131.3984832763672 113.91790771484375 129.56163024902344 113.07394409179688 C 128.0094451904297 112.36056518554688 126.22781372070312 112.36810302734375 124.531494140625 112.55990600585938 C 119.99153137207031 113.07954406738281 115.67352294921875 114.80531311035156 112.0260009765625 117.55792236328125 C 111.06307983398438 118.28713989257812 110.12837219238281 119.11471557617188 109.5870361328125 120.1973876953125 C 108.67720031738281 122.01446533203125 109.05105590820312 124.25344848632812 109.99154663085938 126.05648803710938 C 111.38595581054688 128.7343292236328 113.93827819824219 130.71585083007812 116.7874755859375 131.71653747558594 C 119.63665771484375 132.7172393798828 122.75823974609375 132.7935333251953 125.728271484375 132.24896240234375 L 125.06222534179688 132.43064880371094" stroke-width="0.6000000238418579" fill="rgb(143, 165, 67)" opacity="1.0"/>
    <path d="M 391.17315673828125 306.9054870605469 C 394.7352294921875 313.19482421875 405.6544494628906 312.500732421875 408.8552551269531 306.072021484375 C 412.0560302734375 299.6432800292969 406.55450439453125 290.80950927734375 399.341552734375 290.31048583984375 C 392.12860107421875 289.81146240234375 385.601806640625 297.0462341308594 386.31591796875 304.2478332519531 L 391.17315673828125 306.9054870605469" stroke-width="0.6000000238418579" fill="rgb(233, 92, 21)" opacity="1.0"/>
    <path d="M 122.11689758300781 108.86448669433594 C 125.25698852539062 107.52993774414062 128.86949157714844 105.61012268066406 129.1997833251953 102.20254516601562 C 129.27845764160156 100.84136962890625 128.93280029296875 99.48928833007812 128.21047973632812 98.3328857421875 C 126.50027465820312 95.42355346679688 123.48602294921875 93.52360534667969 120.12356567382812 93.23554992675781 C 117.27066040039062 92.99850463867188 114.496826171875 93.98361206054688 111.83847045898438 94.99774169921875 C 110.34609985351562 95.56985473632812 108.77871704101562 96.2252197265625 107.85617065429688 97.51962280273438 C 106.64065551757812 99.25503540039062 106.93009948730469 101.61614990234375 107.50132751464844 103.65576171875 C 108.33358764648438 106.64181518554688 109.6436767578125 109.47346496582031 111.38079833984375 112.0408935546875 C 111.98269653320312 112.92681884765625 112.6719970703125 113.8135986328125 113.63836669921875 114.27456665039062 C 114.55880737304688 114.6572265625 115.57072448730469 114.7637939453125 116.55070495605469 114.58126831054688 C 119.54489135742188 114.14328002929688 122.19619750976562 112.41384887695312 123.80380249023438 109.85012817382812 L 122.11689758300781 108.86448669433594" stroke-width="0.6000000238418579" fill="rgb(70, 150, 179)" opacity="1.0"/>
    <path d="M 422.46356201171875 67.15560913085938 C 424.02178955078125 70.43264770507812 425.88653564453125 73.99958801269531 429.2816162109375 75.27377319335938 C 432.9295654296875 76.64031982421875 437.122802734375 74.73609924316406 439.718994140625 71.83193969726562 C 440.720458984375 70.71266174316406 441.580322265625 69.38967895507812 441.77630615234375 67.90077209472656 C 441.9378662109375 66.67686462402344 441.6412353515625 65.44223022460938 441.2816162109375 64.26153564453125 C 440.1522216796875 60.536834716796875 438.1796875 56.77665710449219 434.73175048828125 54.972686767578125 C 431.2554931640625 53.15696716308594 426.6273193359375 53.853912353515625 423.85357666015625 56.63140869140625 C 421.079833984375 59.408905029296875 420.345947265625 64.02542114257812 422.15130615234375 67.51387023925781 L 422.46356201171875 67.15560913085938" stroke-width="0.6000000238418579" fill="rgb(140, 28, 33)" opacity="1.0"/>
    <path d="M 112.94964599609375 422.62628173828125 C 114.61520385742188 419.56103515625 116.31452941894531 416.3531494140625 116.54518127441406 412.86981201171875 C 116.77581787109375 409.386474609375 115.08758544921875 405.5083923339844 111.80424499511719 404.3241271972656 C 107.748046875 402.8713684082031 103.16229248046875 406.38128662109375 102.25027465820312 410.6001892089844 C 101.33827209472656 414.819091796875 103.19355773925781 419.1861572265625 105.76484680175781 422.64630126953125 C 106.4534912109375 423.797119140625 107.54849243164062 424.6480712890625 108.83380126953125 425.031005859375 C 110.13108825683594 425.271728515625 111.7052001953125 424.17041015625 111.41091918945312 422.8775634765625 L 112.94964599609375 422.62628173828125" stroke-width="0.6000000238418579" fill="rgb(159, 159, 159)" opacity="1.0"/>
    <path d="M 462.49029541015625 442.2486572265625 C 463.0706787109375 439.6773681640625 462.78271484375 436.85125732421875 461.36444091796875 434.6309814453125 C 459.9461669921875 432.41070556640625 457.31695556640625 430.9132080078125 454.684326171875 431.1759033203125 C 452.8232421875 431.36395263671875 451.109619140625 432.3953857421875 449.857177734375 433.78692626953125 C 448.60467529296875 435.178466796875 447.77716064453125 436.90673828125 447.2010498046875 438.6883544921875 C 446.95074462890625 439.4638671875 446.744384765625 440.29541015625 446.9476318359375 441.0823974609375 C 447.1802978515625 441.9847412109375 447.90679931640625 442.66217041015625 448.6302490234375 443.25390625 C 450.6728515625 444.92449951171875 453.04925537109375 446.345703125 455.6766357421875 446.59356689453125 C 458.3040771484375 446.8414306640625 461.1949462890625 445.6544189453125 462.3275146484375 443.27801513671875 L 462.49029541015625 442.2486572265625" stroke-width="0.6000000238418579" fill="rgb(159, 159, 159)" opacity="1.0"/>
    <path d="M 452.7904052734375 285.6961364746094 C 454.7080078125 282.72418212890625 456.7108154296875 279.337646484375 456.001220703125 275.87969970703125 C 455.31585693359375 272.5158386230469 452.30322265625 270.2029724121094 449.470947265625 268.2602844238281 C 448.3192138671875 267.4727783203125 447.10174560546875 266.6673278808594 445.71533203125 266.5183410644531 C 443.3704833984375 266.2649841308594 441.26019287109375 267.92974853515625 439.7379150390625 269.72662353515625 C 438.32440185546875 271.3938903808594 437.1575927734375 273.2554931640625 436.27325439453125 275.25445556640625 C 434.8360595703125 278.4996337890625 434.28369140625 282.59674072265625 436.51104736328125 285.3583984375 C 437.7113037109375 286.8510437011719 439.56756591796875 287.7145080566406 441.4525146484375 288.0710144042969 C 443.33740234375 288.42755126953125 445.2774658203125 288.3205261230469 447.191162109375 288.1875305175781 C 449.1048583984375 288.0545654296875 450.982421875 287.8829040527344 452.632568359375 286.99761962890625 L 452.7904052734375 285.6961364746094" stroke-width="0.6000000238418579" fill="rgb(218, 166, 20)" opacity="1.0"/>
    <path d="M 424.72894287109375 359.7123718261719 C 425.2930908203125 364.9623107910156 430.00634765625 368.76092529296875 435.25634765625 368.19677734375 C 435.70587158203125 368.1484680175781 436.15142822265625 368.0683288574219 436.589599609375 367.9569396972656 C 438.25469970703125 367.5334777832031 439.8592529296875 366.5948181152344 440.72412109375 365.111328125 C 441.4552001953125 363.85772705078125 441.5955810546875 362.35076904296875 441.57318115234375 360.9007263183594 C 441.50787353515625 357.0194091796875 440.40447998046875 353.2264099121094 438.377685546875 349.9156799316406 C 437.8404541015625 349.0414733886719 437.2177734375 348.1830139160156 436.34698486328125 347.6361083984375 C 434.8856201171875 346.7171630859375 432.9617919921875 346.8487854003906 431.35986328125 347.49542236328125 C 428.98089599609375 348.4537658691406 427.09521484375 350.4484558105469 426.014404296875 352.7749938964844 C 424.93359375 355.10150146484375 424.6119384765625 357.7344970703125 424.82769775390625 360.2904968261719 L 424.72894287109375 359.7123718261719" stroke-width="0.6000000238418579" fill="rgb(143, 165, 67)" opacity="1.0"/>
    <path d="M 450.08563232421875 346.413330078125 C 455.67779541015625 342.39447021484375 453.90087890625 332.12274169921875 447.4832763671875 329.75 C 441.0657958984375 327.37725830078125 433.2623291015625 333.49407958984375 433.52911376953125 340.3774719238281 C 433.7958984375 347.2608642578125 441.3179931640625 352.701416015625 448.06622314453125 351.2866516113281 L 450.08563232421875 346.413330078125" stroke-width="0.6000000238418579" fill="rgb(233, 92, 21)" opacity="1.0"/>
    <path d="M 453.7288818359375 74.36015319824219 C 456.3421630859375 72.60597229003906 459.28192138671875 70.23953247070312 458.9896240234375 67.09490966796875 C 458.82470703125 65.84799194335938 458.27679443359375 64.68301391601562 457.421630859375 63.76068115234375 C 455.3671875 61.421661376953125 452.306396484375 60.2235107421875 449.21002197265625 60.54620361328125 C 446.5841064453125 60.82666015625 444.241943359375 62.200653076171875 442.009521484375 63.5809326171875 C 440.7567138671875 64.35830688476562 439.450439453125 65.22415161132812 438.83929443359375 66.55703735351562 C 438.03924560546875 68.34031677246094 438.7113037109375 70.42927551269531 439.5828857421875 72.17803955078125 C 440.85528564453125 74.73895263671875 442.5338134765625 77.0770263671875 444.55328369140625 79.10160827636719 C 445.25238037109375 79.79978942871094 446.03082275390625 80.48358154296875 446.98638916015625 80.73347473144531 C 447.88671875 80.92037963867188 448.822021484375 80.84127807617188 449.67822265625 80.50581359863281 C 452.31494140625 79.5892333984375 454.4168701171875 77.5621337890625 455.4283447265625 74.96034240722656 L 453.7288818359375 74.36015319824219" stroke-width="0.6000000238418579" fill="rgb(70, 150, 179)" opacity="1.0"/>
    <path d="M 448.86859130859375 396.0517578125 C 449.099609375 392.0052795410156 449.185791015625 387.5103759765625 446.5428466796875 384.44097900390625 C 443.7017822265625 381.1454772949219 438.572021484375 380.7620544433594 434.470703125 382.2148742675781 C 432.88922119140625 382.77435302734375 431.337158203125 383.60931396484375 430.3465576171875 384.9630126953125 C 429.5318603515625 386.07550048828125 429.16015625 387.4442138671875 428.87921142578125 388.79388427734375 C 427.988037109375 393.0489501953125 427.90374755859375 397.7909851074219 430.3143310546875 401.40777587890625 C 432.74627685546875 405.05126953125 437.654541015625 406.850830078125 441.8619384765625 405.6173400878906 C 446.06927490234375 404.3838195800781 449.264404296875 400.25439453125 449.36669921875 395.86822509765625 L 448.86859130859375 396.0517578125" stroke-width="0.6000000238418579" fill="rgb(140, 28, 33)" opacity="1.0"/>
    <path d="M 127.21257019042969 218.383544921875 C 123.14225769042969 220.77374267578125 118.93321228027344 223.30575561523438 116.23417663574219 227.18234252929688 C 113.53518676757812 231.05889892578125 112.78482055664062 236.73251342773438 115.76385498046875 240.397216796875 C 119.45123291015625 244.91265869140625 127.21682739257812 244.0455322265625 131.2190704345703 239.79205322265625 C 135.22129821777344 235.53860473632812 136.119384765625 229.18157958984375 135.55447387695312 223.37591552734375 C 135.55966186523438 221.56121826171875 134.88441467285156 219.81057739257812 133.66195678710938 218.46942138671875 C 132.3263397216797 217.28472900390625 129.73297119140625 217.46240234375 129.1715087890625 219.16647338867188 L 127.21257019042969 218.383544921875" stroke-width="0.6000000238418579" fill="rgb(159, 159, 159)" opacity="1.0"/>
    <path d="M 110.40878295898438 231.65567016601562 C 105.91017150878906 228.83782958984375 100.34811401367188 227.49990844726562 95.183349609375 228.71383666992188 C 90.01858520507812 229.927734375 85.41940307617188 233.92474365234375 84.16252136230469 239.10226440429688 C 83.27851867675781 242.76397705078125 84.09541320800781 246.70794677734375 85.904052734375 250.0159912109375 C 87.71270751953125 253.32403564453125 90.44464111328125 256.0491943359375 93.44572448730469 258.33233642578125 C 94.7523193359375 259.32513427734375 96.1947021484375 260.27197265625 97.82557678222656 260.4106140136719 C 99.69525146484375 260.5704650878906 101.46711730957031 259.641845703125 103.07406616210938 258.6618347167969 C 107.61077880859375 255.89501953125 111.89627075195312 252.3275146484375 114.11981201171875 247.50048828125 C 116.34335327148438 242.67343139648438 116.01614379882812 236.38876342773438 112.25608825683594 232.651611328125 L 110.40878295898438 231.65567016601562" stroke-width="0.6000000238418579" fill="rgb(159, 159, 159)" opacity="1.0"/>
    <path d="M 301.96697998046875 99.06642150878906 C 300.88861083984375 103.5880126953125 299.88580322265625 108.66067504882812 302.2762145996094 112.63674926757812 C 304.595458984375 116.50677490234375 309.3402099609375 118.0572509765625 313.6995849609375 119.22770690917969 C 315.4712219238281 119.70059204101562 317.3321533203125 120.16705322265625 319.11578369140625 119.74592590332031 C 322.1328125 119.03544616699219 324.02117919921875 116.0499267578125 325.1228942871094 113.1575927734375 C 326.146484375 110.47341918945312 326.77935791015625 107.65617370605469 327.00213623046875 104.79208374023438 C 327.36553955078125 100.14175415039062 326.2601013183594 94.82205200195312 322.2926940917969 92.37220764160156 C 320.15277099609375 91.04649353027344 317.4747009277344 90.78729248046875 314.9825744628906 91.1689453125 C 312.4904479980469 91.55061340332031 310.132568359375 92.53092956542969 307.8186340332031 93.53192138671875 C 305.5046691894531 94.53288269042969 303.25244140625 95.56600952148438 301.5939025878906 97.38432312011719 L 301.96697998046875 99.06642150878906" stroke-width="0.6000000238418579" fill="rgb(218, 166, 20)" opacity="1.0"/>
    <path d="M 221.84756469726562 119.91830444335938 C 217.1124267578125 112.60848999023438 207.34808349609375 110.52130126953125 200.03826904296875 115.25643920898438 C 199.41229248046875 115.66189575195312 198.81591796875 116.11126708984375 198.25357055664062 116.60113525390625 C 196.11712646484375 118.46293640136719 194.452880859375 121.03828430175781 194.28280639648438 123.86566162109375 C 194.13885498046875 126.2550048828125 195.05291748046875 128.57809448242188 196.16433715820312 130.69627380371094 C 199.14715576171875 136.36204528808594 203.59259033203125 141.12582397460938 209.03887939453125 144.49273681640625 C 210.47998046875 145.38027954101562 212.03521728515625 146.1810760498047 213.7239990234375 146.33859252929688 C 216.55902099609375 146.60472106933594 219.29354858398438 144.9801025390625 221.171142578125 142.83668518066406 C 223.96087646484375 139.65643310546875 225.2535400390625 135.3172607421875 225.114501953125 131.08815002441406 C 224.9754638671875 126.85903930664062 223.4908447265625 122.7432861328125 221.272216796875 119.14060974121094 L 221.84756469726562 119.91830444335938" stroke-width="0.6000000238418579" fill="rgb(143, 165, 67)" opacity="1.0"/>
    <path d="M 223.9351806640625 90.17613220214844 C 223.70184326171875 99.72283935546875 236.54852294921875 106.350341796875 244.541259765625 101.23764038085938 C 252.53399658203125 96.12490844726562 252.29690551757812 82.37753295898438 244.46087646484375 76.91436767578125 C 236.62481689453125 71.45123291015625 224.31524658203125 75.21913146972656 220.2347412109375 83.86599731445312 L 223.9351806640625 90.17613220214844" stroke-width="0.6000000238418579" fill="rgb(233, 92, 21)" opacity="1.0"/>
    <path d="M 196.269287109375 100.07522583007812 C 194.45980834960938 95.3497314453125 191.8082275390625 89.8927001953125 186.775634765625 89.22038269042969 C 184.762451171875 89.03076171875 182.74002075195312 89.47052001953125 180.98736572265625 90.47903442382812 C 176.583740234375 92.85763549804688 173.60614013671875 97.22312927246094 172.99887084960938 102.19113159179688 C 172.4945068359375 106.40669250488281 173.80572509765625 110.57061767578125 175.16616821289062 114.56494140625 C 175.93402099609375 116.80746459960938 176.82122802734375 119.16560363769531 178.690185546875 120.60232543945312 C 181.197021484375 122.4969482421875 184.7119140625 122.19461059570312 187.7655029296875 121.45741271972656 C 192.2357177734375 120.38410949707031 196.50274658203125 118.59432983398438 200.40109252929688 116.15750122070312 C 201.74639892578125 115.31294250488281 203.09765625 114.33889770507812 203.83270263671875 112.931396484375 C 204.44921875 111.58773803710938 204.66143798828125 110.09368896484375 204.44351196289062 108.63150024414062 C 203.9549560546875 104.17034912109375 201.53399658203125 100.1480712890625 197.82061767578125 97.62794494628906 L 196.269287109375 100.07522583007812" stroke-width="0.6000000238418579" fill="rgb(70, 150, 179)" opacity="1.0"/>
    <path d="M 266.7449951171875 133.38931274414062 C 263.80780029296875 137.7436981201172 260.7349853515625 142.6935272216797 261.6462097167969 147.8628692626953 C 262.6283874511719 153.41531372070312 268.0884704589844 157.23968505859375 273.6191101074219 158.3375244140625 C 275.7513122558594 158.76168823242188 278.0331726074219 158.85952758789062 280.0330505371094 158.0076904296875 C 281.6773376464844 157.30804443359375 282.9977722167969 156.02951049804688 284.20458984375 154.71221923828125 C 288.01531982421875 150.56268310546875 291.2496643066406 145.3363037109375 290.9598388671875 139.7111053466797 C 290.663818359375 134.04197692871094 286.38824462890625 128.78684997558594 280.8847351074219 127.37446594238281 C 275.3812255859375 125.96206665039062 269.08734130859375 128.44581604003906 266.068603515625 133.2638702392578 L 266.7449951171875 133.38931274414062" stroke-width="0.6000000238418579" fill="rgb(140, 28, 33)" opacity="1.0"/>
    <path d="M 307.4952697753906 123.37258911132812 C 302.89117431640625 123.39642333984375 298.10064697265625 123.47196960449219 293.9257507324219 125.42111206054688 C 289.7509460449219 127.37025451660156 286.34027099609375 131.7894744873047 287.0594482421875 136.33963012695312 C 287.959716796875 141.95433044433594 294.93572998046875 145.02450561523438 300.3945617675781 143.39540100097656 C 305.8533935546875 141.7662811279297 309.72320556640625 136.8428497314453 312.0888671875 131.66831970214844 C 312.9816589355469 130.13987731933594 313.26904296875 128.33236694335938 312.8942565917969 126.60243225097656 C 312.3474426269531 124.9490966796875 310.07257080078125 123.82937622070312 308.7646484375 124.99212646484375 L 307.4952697753906 123.37258911132812" stroke-width="0.6000000238418579" fill="rgb(159, 159, 159)" opacity="1.0"/>
    <path d="M 195.96945190429688 132.95143127441406 C 192.63397216796875 128.7498321533203 187.7862548828125 125.59951782226562 182.45648193359375 125.0142822265625 C 177.126708984375 124.42904663085938 171.397216796875 126.6859130859375 168.45376586914062 131.19461059570312 C 166.37673950195312 134.3849639892578 165.824951171875 138.41781616210938 166.43243408203125 142.17926025390625 C 167.0399169921875 145.94073486328125 168.72357177734375 149.458251953125 170.812744140625 152.64544677734375 C 171.72271728515625 154.03189086914062 172.77755737304688 155.4203338623047 174.28448486328125 156.1024169921875 C 176.01181030273438 156.88519287109375 178.01300048828125 156.59808349609375 179.87442016601562 156.20632934570312 C 185.12954711914062 155.10032653808594 190.41534423828125 153.14682006835938 194.16152954101562 149.29803466796875 C 197.90771484375 145.44923400878906 199.71536254882812 139.35157775878906 197.39349365234375 134.52320861816406 L 195.96945190429688 132.95143127441406" stroke-width="0.6000000238418579" fill="rgb(159, 159, 159)" opacity="1.0"/>
    <path d="M 282.81475830078125 98.6221923828125 C 278.8478088378906 101.56228637695312 274.5657043457031 105.00216674804688 273.79241943359375 109.86917114257812 C 273.0337219238281 114.60128784179688 275.8326416015625 119.10466003417969 278.577880859375 123.03567504882812 C 279.6954650878906 124.63095092773438 280.8900451660156 126.28202819824219 282.6282958984375 127.15846252441406 C 285.5673522949219 128.6425018310547 289.1432800292969 127.50511169433594 292.0157775878906 125.90591430664062 C 294.6825256347656 124.422607421875 297.1224670410156 122.56407165527344 299.26092529296875 120.38719177246094 C 302.7344665527344 116.85380554199219 305.470947265625 111.77229309082031 303.91876220703125 107.06874084472656 C 303.0845031738281 104.52822875976562 301.08380126953125 102.48727416992188 298.79632568359375 101.09455871582031 C 296.50885009765625 99.70184326171875 293.92144775390625 98.8876953125 291.35565185546875 98.12039184570312 C 288.78985595703125 97.35307312011719 286.25225830078125 96.65408325195312 283.660888671875 96.99932861328125 L 282.81475830078125 98.6221923828125" stroke-width="0.6000000238418579" fill="rgb(218, 166, 20)" opacity="1.0"/>
    <path d="M 236.6383056640625 117.25321960449219 C 235.93609619140625 125.29246520996094 241.8839111328125 132.37884521484375 249.92315673828125 133.08106994628906 C 250.611572265625 133.14120483398438 251.3033447265625 133.1524200439453 251.99334716796875 133.11465454101562 C 254.61517333984375 132.9706573486328 257.2981872558594 132.03619384765625 259.03271484375 130.06658935546875 C 260.4986572265625 128.40228271484375 261.15362548828125 126.18382263183594 261.5476379394531 124.00273132324219 C 262.59429931640625 118.16302490234375 262.0582580566406 112.14959716796875 259.99517822265625 106.58709716796875 C 259.4473876953125 105.11767578125 258.7667541503906 103.64669799804688 257.6221923828125 102.56976318359375 C 255.70172119140625 100.76071166992188 252.77789306640625 100.39076232910156 250.1849365234375 100.88803100585938 C 246.33477783203125 101.62361145019531 242.9188232421875 104.05880737304688 240.6119384765625 107.22894287109375 C 238.30502319335938 110.39907836914062 237.046142578125 114.25265502929688 236.61590576171875 118.14927673339844 L 236.6383056640625 117.25321960449219" stroke-width="0.6000000238418579" fill="rgb(143, 165, 67)" opacity="1.0"/>
    <path d="M 252.26324462890625 89.19259643554688 C 251.482421875 99.28643798828125 264.71234130859375 107.0211181640625 273.4599609375 102.05531311035156 C 282.2075500488281 97.0894775390625 282.7252197265625 82.52217102050781 274.7348327636719 76.30032348632812 C 266.7444763183594 70.0784912109375 253.50189208984375 73.37921142578125 248.698486328125 82.3052978515625 L 252.26324462890625 89.19259643554688" stroke-width="0.6000000238418579" fill="rgb(233, 92, 21)" opacity="1.0"/>
    <path d="M 340.5268249511719 80.57084655761719 C 336.5574645996094 78.00444030761719 331.5498046875 75.35049438476562 327.3837890625 77.61746215820312 C 325.760986328125 78.58413696289062 324.4781494140625 80.03054809570312 323.7122497558594 81.7572021484375 C 321.7022705078125 85.9783935546875 321.86297607421875 90.91194152832031 324.14337158203125 94.99337768554688 C 326.0866394042969 98.45062255859375 329.3706970214844 100.8681640625 332.598388671875 103.13064575195312 C 334.41357421875 104.39865112304688 336.38250732421875 105.68801879882812 338.58392333984375 105.74139404296875 C 341.518798828125 105.7884521484375 344.00299072265625 103.62301635742188 345.8995361328125 101.3839111328125 C 348.6792297363281 98.11044311523438 350.9107360839844 94.40863037109375 352.5075378417969 90.42207336425781 C 353.05657958984375 89.04359436035156 353.5387878417969 87.56417846679688 353.3172912597656 86.0975341796875 C 353.0416259765625 84.74435424804688 352.3781433105469 83.50062561035156 351.4078063964844 82.51800537109375 C 348.5803527832031 79.4228515625 344.5374755859375 77.72384643554688 340.3478088378906 77.87008666992188 L 340.5268249511719 80.57084655761719" stroke-width="0.6000000238418579" fill="rgb(70, 150, 179)" opacity="1.0"/>
    <path d="M 334.1531677246094 136.23056030273438 C 332.933349609375 131.34671020507812 331.376220703125 125.98455810546875 327.10894775390625 123.32032775878906 C 322.52325439453125 120.46112060546875 316.298583984375 121.90007019042969 311.9713134765625 125.136962890625 C 310.3023681640625 126.38427734375 308.77001953125 127.9473876953125 308.0950622558594 129.9183349609375 C 307.53961181640625 131.53836059570312 307.6041564941406 133.29867553710938 307.7691955566406 135.00291442871094 C 308.2831115722656 140.3778533935547 309.93377685546875 146.03236389160156 314.1275329589844 149.4315185546875 C 318.3565368652344 152.85443115234375 324.8414001464844 153.17652893066406 329.3753967285156 150.16058349609375 C 333.9093933105469 147.14463806152344 336.17401123046875 141.0681915283203 334.67608642578125 135.8290557861328 L 334.1531677246094 136.23056030273438" stroke-width="0.6000000238418579" fill="rgb(140, 28, 33)" opacity="1.0"/>
    <path d="M 346.80902099609375 107.43685913085938 C 342.10986328125 106.60490417480469 337.2109680175781 105.791015625 332.5914001464844 107.00210571289062 C 327.971923828125 108.21319580078125 323.6722717285156 112.08511352539062 323.55938720703125 116.85858154296875 C 323.43316650390625 122.751220703125 329.97552490234375 127.17919921875 335.84478759765625 126.53323364257812 C 341.71405029296875 125.88726806640625 346.57568359375 121.58660888671875 349.9502258300781 116.75018310546875 C 351.14483642578125 115.35768127441406 351.7740478515625 113.56803894042969 351.713623046875 111.73434448242188 C 351.4635314941406 109.94677734375 349.35211181640625 108.38194274902344 347.80218505859375 109.3243408203125 L 346.80902099609375 107.43685913085938" stroke-width="0.6000000238418579" fill="rgb(159, 159, 159)" opacity="1.0"/>
    <path d="M 346.96112060546875 124.1201171875 C 342.6343078613281 125.34359741210938 338.6324462890625 128.07618713378906 336.4590148925781 132.00978088378906 C 334.28558349609375 135.94338989257812 334.18145751953125 141.10377502441406 336.7185974121094 144.83619689941406 C 338.5157470703125 147.4727783203125 341.45697021484375 149.20162963867188 344.5625915527344 149.94613647460938 C 347.668212890625 150.690673828125 350.93255615234375 150.52401733398438 354.07232666015625 149.9370880126953 C 355.43853759765625 149.68084716796875 356.8530578613281 149.3131866455078 357.8671875 148.3677978515625 C 359.03033447265625 147.28445434570312 359.4543151855469 145.6438446044922 359.7522888183594 144.07757568359375 C 360.59344482421875 139.65567016601562 360.78900146484375 134.93641662597656 359.0214538574219 130.79615783691406 C 357.25390625 126.65589904785156 353.1210021972656 123.28901672363281 348.63665771484375 123.52609252929688 L 346.96112060546875 124.1201171875" stroke-width="0.6000000238418579" fill="rgb(159, 159, 159)" opacity="1.0"/>
    <path d="M 360.1435852050781 105.241455078125 C 355.9134521484375 105.17266845703125 351.20849609375 105.27944946289062 348.1454772949219 108.185791015625 C 345.1627197265625 111.00802612304688 344.7182922363281 115.52934265136719 344.5357666015625 119.63345336914062 C 344.46405029296875 121.30081176757812 344.4156494140625 123.04624938964844 345.1407165527344 124.54835510253906 C 346.3656005859375 127.08963012695312 349.39007568359375 128.18035888671875 352.177001953125 128.59039306640625 C 354.7635803222656 128.97195434570312 357.3915710449219 128.98013305664062 359.9804992675781 128.61468505859375 C 364.18438720703125 128.02281188964844 368.69415283203125 125.9940185546875 370.0906982421875 121.98654174804688 C 370.8477783203125 119.82414245605469 370.5513000488281 117.39335632324219 369.7218933105469 115.25387573242188 C 368.8924865722656 113.1143798828125 367.5575256347656 111.21194458007812 366.21282958984375 109.35263061523438 C 364.8681335449219 107.49331665039062 363.50701904296875 105.69515991210938 361.56494140625 104.57901000976562 L 360.1435852050781 105.241455078125" stroke-width="0.6000000238418579" fill="rgb(218, 166, 20)" opacity="1.0"/>
    <path d="M 430.5885009765625 144.08834838867188 C 422.67047119140625 146.21656799316406 417.9769287109375 154.36070251464844 420.1051025390625 162.27874755859375 C 420.287353515625 162.956787109375 420.5174560546875 163.62103271484375 420.793701171875 164.2664794921875 C 421.8438720703125 166.71890258789062 423.6697998046875 168.95462036132812 426.153564453125 169.92462158203125 C 428.25250244140625 170.74453735351562 430.5980224609375 170.59744262695312 432.817138671875 170.21429443359375 C 438.75555419921875 169.18051147460938 444.308837890625 166.57550048828125 448.90020751953125 162.66995239257812 C 450.11212158203125 161.63555908203125 451.279296875 160.47381591796875 451.90875244140625 159.00640869140625 C 452.967041015625 156.5435791015625 452.3023681640625 153.62393188476562 450.925048828125 151.32199096679688 C 448.8826904296875 147.90304565429688 445.369140625 145.49014282226562 441.5401611328125 144.3917236328125 C 437.71112060546875 143.2932891845703 433.5946044921875 143.43312072753906 429.7254638671875 144.37887573242188 L 430.5885009765625 144.08834838867188" stroke-width="0.6000000238418579" fill="rgb(143, 165, 67)" opacity="1.0"/>
    <path d="M 145.04083251953125 412.1260986328125 C 145.5341033935547 421.66656494140625 158.8525390625 427.30047607421875 166.43646240234375 421.5927734375 C 174.02032470703125 415.885009765625 172.73834228515625 402.19012451171875 164.5064697265625 397.33660888671875 C 156.274658203125 392.48309326171875 144.28248596191406 397.17767333984375 140.8697967529297 406.1131591796875 L 145.04083251953125 412.1260986328125" stroke-width="0.6000000238418579" fill="rgb(233, 92, 21)" opacity="1.0"/>
    <path d="M 434.93585205078125 192.03857421875 C 430.26318359375 191.16909790039062 424.59130859375 190.6151123046875 421.5833740234375 194.31600952148438 C 420.4437255859375 195.83538818359375 419.80352783203125 197.6710205078125 419.75128173828125 199.56964111328125 C 419.49560546875 204.2637939453125 421.531005859375 208.79074096679688 425.2120361328125 211.71490478515625 C 428.3409423828125 214.1873779296875 432.3193359375 215.18035888671875 436.18609619140625 216.05072021484375 C 438.3590087890625 216.53607177734375 440.68310546875 216.98257446289062 442.7508544921875 216.190673828125 C 445.4984130859375 215.112548828125 446.98095703125 212.14895629882812 447.88885498046875 209.341552734375 C 449.22271728515625 205.2344970703125 449.88299560546875 200.93865966796875 449.8441162109375 196.62063598632812 C 449.82781982421875 195.12872314453125 449.710693359375 193.5684814453125 448.944091796875 192.28912353515625 C 448.17041015625 191.13601684570312 447.077880859375 190.23294067382812 445.79986572265625 189.69000244140625 C 441.987060546875 187.89227294921875 437.5775146484375 187.85760498046875 433.7369384765625 189.59521484375 L 434.93585205078125 192.03857421875" stroke-width="0.6000000238418579" fill="rgb(70, 150, 179)" opacity="1.0"/>
    <path d="M 408.1503601074219 159.28948974609375 C 407.5044860839844 154.4655303955078 406.5860290527344 149.1456756591797 402.7729797363281 146.12608337402344 C 398.6749572753906 142.88482666015625 392.5390930175781 143.5968017578125 388.0325927734375 146.24070739746094 C 386.2946472167969 147.25933837890625 384.6539306640625 148.5961456298828 383.7930908203125 150.41717529296875 C 383.0848388671875 151.9138946533203 382.95721435546875 153.61219787597656 382.93218994140625 155.2674560546875 C 382.846923828125 160.48721313476562 383.82373046875 166.09805297851562 387.4869689941406 169.81585693359375 C 391.1815490722656 173.560302734375 397.377685546875 174.56842041015625 402.05902099609375 172.15911865234375 C 406.7403259277344 169.749755859375 409.57086181640625 164.15533447265625 408.6960754394531 158.96002197265625 L 408.1503601074219 159.28948974609375" stroke-width="0.6000000238418579" fill="rgb(140, 28, 33)" opacity="1.0"/>
    <path d="M 142.82969665527344 129.67311096191406 C 138.37225341796875 131.69082641601562 133.7562713623047 133.83949279785156 130.54942321777344 137.53958129882812 C 127.34262084960938 141.2396240234375 125.94744873046875 147.00555419921875 128.61654663085938 151.1094207763672 C 131.92257690429688 156.1678466796875 140.02207946777344 156.125 144.613525390625 152.17922973632812 C 149.2049560546875 148.2334747314453 150.8272705078125 141.77932739257812 150.8811492919922 135.73316955566406 C 151.08535766601562 133.8632049560547 150.5811767578125 131.98471069335938 149.4680633544922 130.46835327148438 C 148.22117614746094 129.1008758544922 145.528564453125 128.9998321533203 144.7631072998047 130.6947784423828 L 142.82969665527344 129.67311096191406" stroke-width="0.6000000238418579" fill="rgb(159, 159, 159)" opacity="1.0"/>
    <path d="M 426.52783203125 172.80056762695312 C 422.36962890625 170.62435913085938 417.3753662109375 169.82540893554688 412.90576171875 171.2486572265625 C 408.4361267089844 172.67193603515625 404.6553955078125 176.50970458984375 403.9015808105469 181.1595458984375 C 403.3727722167969 184.44772338867188 404.3625793457031 187.86837768554688 406.18310546875 190.66064453125 C 408.00360107421875 193.45294189453125 410.5981140136719 195.66827392578125 413.399658203125 197.4755859375 C 414.6192626953125 198.2613525390625 415.9554443359375 198.99728393554688 417.40252685546875 199.00799560546875 C 419.0615234375 199.02099609375 420.5599365234375 198.081298828125 421.90936279296875 197.1075439453125 C 425.7191162109375 194.35833740234375 429.25274658203125 190.92059326171875 430.88262939453125 186.51361083984375 C 432.51251220703125 182.10662841796875 431.79425048828125 176.58920288085938 428.2242431640625 173.5521240234375 L 426.52783203125 172.80056762695312" stroke-width="0.6000000238418579" fill="rgb(159, 159, 159)" opacity="1.0"/>
    <path d="M 407.27239990234375 187.85317993164062 C 406.6572570800781 183.4178466796875 405.7813415527344 178.51437377929688 402.244140625 175.78292846679688 C 398.8079528808594 173.12176513671875 394.0070495605469 173.391357421875 389.6850280761719 173.8670654296875 C 387.9295349121094 174.06289672851562 386.0961608886719 174.2957763671875 384.6429138183594 175.298095703125 C 382.18402099609375 176.991943359375 381.5345153808594 180.33233642578125 381.558349609375 183.313720703125 C 381.5794372558594 186.0809326171875 381.99774169921875 188.83078002929688 382.80047607421875 191.47909545898438 C 384.1023254394531 195.77972412109375 386.95672607421875 200.16680908203125 391.3748779296875 200.97650146484375 C 393.7594299316406 201.41705322265625 396.2535705566406 200.712158203125 398.3564758300781 199.4971923828125 C 400.4593811035156 198.2822265625 402.2322692871094 196.57699584960938 403.95843505859375 194.86859130859375 C 405.6846618652344 193.16021728515625 407.3442077636719 191.444580078125 408.19610595703125 189.23214721679688 L 407.27239990234375 187.85317993164062" stroke-width="0.6000000238418579" fill="rgb(218, 166, 20)" opacity="1.0"/>
    <path d="M 443.3529052734375 179.9478759765625 C 443.1412353515625 187.66650390625 449.226806640625 194.0953369140625 456.9454345703125 194.30706787109375 C 457.60638427734375 194.3251953125 458.267822265625 194.29641723632812 458.9246826171875 194.220947265625 C 461.42059326171875 193.9337158203125 463.929931640625 192.88800048828125 465.47412109375 190.90774536132812 C 466.779296875 189.234375 467.2781982421875 187.07806396484375 467.530029296875 184.97235107421875 C 468.1962890625 179.33489990234375 467.3409423828125 173.62188720703125 465.0528564453125 168.42672729492188 C 464.44580078125 167.05450439453125 463.711669921875 165.68838500976562 462.5570068359375 164.72515869140625 C 460.619384765625 163.10690307617188 457.8056640625 162.92047119140625 455.357421875 163.54348754882812 C 451.7220458984375 164.46588134765625 448.59832763671875 166.98684692382812 446.575927734375 170.146484375 C 444.55352783203125 173.30609130859375 443.5711669921875 177.05865478515625 443.3826904296875 180.80499267578125 L 443.3529052734375 179.9478759765625" stroke-width="0.6000000238418579" fill="rgb(143, 165, 67)" opacity="1.0"/>
    <path d="M 147.65914916992188 102.77703857421875 C 137.47821044921875 109.00125122070312 139.22552490234375 126.97964477539062 150.0093994140625 131.906494140625 C 160.79327392578125 136.83326721191406 175.06561279296875 127.26861572265625 175.49127197265625 115.33975219726562 C 175.9168701171875 103.41090393066406 163.61962890625 93.0406494140625 151.77645874023438 94.61605834960938 L 147.65914916992188 102.77703857421875" stroke-width="0.6000000238418579" fill="rgb(233, 92, 21)" opacity="1.0"/>
    <path d="M 453.6478271484375 148.35194396972656 C 450.9930419921875 152.67129516601562 448.269775390625 158.106201171875 450.802734375 162.51800537109375 C 451.87908935546875 164.23452758789062 453.4615478515625 165.57473754882812 455.3319091796875 166.353759765625 C 459.9075927734375 168.40570068359375 465.194091796875 168.11257934570312 469.514892578125 165.5672607421875 C 473.1746826171875 163.39874267578125 475.6866455078125 159.81793212890625 478.03369140625 156.30133056640625 C 479.3489990234375 154.32379150390625 480.68341064453125 152.18084716796875 480.68670654296875 149.81887817382812 C 480.665283203125 146.67054748535156 478.2823486328125 144.05970764160156 475.8348388671875 142.08082580566406 C 472.2564697265625 139.1802520751953 468.2322998046875 136.87799072265625 463.918212890625 135.26333618164062 C 462.4266357421875 134.70831298828125 460.828369140625 134.22747802734375 459.26104736328125 134.5009002685547 C 457.8167724609375 134.8296661376953 456.499267578125 135.57159423828125 455.4693603515625 136.63619995117188 C 452.2196044921875 139.7439727783203 450.4967041015625 144.1209259033203 450.756103515625 148.61004638671875 L 453.6478271484375 148.35194396972656" stroke-width="0.6000000238418579" fill="rgb(70, 150, 179)" opacity="1.0"/>
    <path d="M 375.7554626464844 79.49417114257812 C 375.8847351074219 73.56655883789062 375.77911376953125 66.9908447265625 371.75714111328125 62.63972473144531 C 367.433837890625 57.96826171875 359.91473388671875 57.6719970703125 353.99371337890625 60.00726318359375 C 351.71044921875 60.90669250488281 349.484375 62.20732116699219 348.1059875488281 64.23736572265625 C 346.97222900390625 65.90573120117188 346.49945068359375 67.92588806152344 346.158203125 69.91348266601562 C 345.07452392578125 76.18006896972656 345.1956787109375 83.11700439453125 348.9061279296875 88.28034973144531 C 352.6492614746094 93.48162841796875 359.9176025390625 95.85958862304688 366.00494384765625 93.83950805664062 C 372.0923156738281 91.81939697265625 376.5506896972656 85.6177978515625 376.4742126464844 79.20021057128906 L 375.7554626464844 79.49417114257812" stroke-width="0.6000000238418579" fill="rgb(140, 28, 33)" opacity="1.0"/>
    <path d="M 133.7969970703125 411.7943420410156 C 130.66053771972656 416.05889892578125 127.44387817382812 420.531005859375 126.37835693359375 425.7203369140625 C 125.3128662109375 430.9095458984375 127.05076599121094 437.08819580078125 131.74256896972656 439.54608154296875 C 137.54087829589844 442.567138671875 145.1593475341797 438.23651123046875 147.40097045898438 432.08203125 C 149.64259338378906 425.92755126953125 147.75445556640625 418.9793701171875 144.60275268554688 413.24676513671875 C 143.80490112304688 411.37445068359375 142.33425903320312 409.86932373046875 140.48094177246094 409.0283508300781 C 138.58029174804688 408.3987121582031 135.98651123046875 409.7296142578125 136.1621551513672 411.7341003417969 L 133.7969970703125 411.7943420410156" stroke-width="0.6000000238418579" fill="rgb(159, 159, 159)" opacity="1.0"/>
    <path d="M 418.5953369140625 210.8294677734375 C 414.90350341796875 206.0589599609375 409.49676513671875 202.449462890625 403.5123291015625 201.71728515625 C 397.5279235839844 200.985107421875 391.0545349121094 203.44293212890625 387.68231201171875 208.47137451171875 C 385.3026123046875 212.02960205078125 384.6260986328125 216.5562744140625 385.2568054199219 220.7939453125 C 385.88751220703125 225.0316162109375 387.73162841796875 229.010009765625 390.0362243652344 232.62261962890625 C 391.0400695800781 234.19415283203125 392.206787109375 235.7698974609375 393.8916320800781 236.55780029296875 C 395.8228759765625 237.46194458007812 398.076904296875 237.16693115234375 400.1752624511719 236.75238037109375 C 406.0992736816406 235.58193969726562 412.069580078125 233.45904541015625 416.335205078125 229.18374633789062 C 420.60076904296875 224.908447265625 422.718017578125 218.07763671875 420.17462158203125 212.61651611328125 L 418.5953369140625 210.8294677734375" stroke-width="0.6000000238418579" fill="rgb(159, 159, 159)" opacity="1.0"/>
    <path d="M 379.5385437011719 117.9171142578125 C 374.096435546875 118.00027465820312 368.0508728027344 118.32846069335938 364.230224609375 122.18986511230469 C 360.5093078613281 125.93984985351562 360.12127685546875 131.7716064453125 360.0531005859375 137.05630493164062 C 360.0285339355469 139.2031707763672 360.0370788574219 141.44952392578125 361.0303649902344 143.35159301757812 C 362.7084655761719 146.569580078125 366.6417541503906 147.8494110107422 370.2419738769531 148.26358032226562 C 373.5834045410156 148.6492919921875 376.9629211425781 148.55319213867188 380.2770690917969 147.97824096679688 C 385.6586608886719 147.046630859375 391.375244140625 144.2549285888672 393.00836181640625 139.04525756835938 C 393.8941650390625 136.23402404785156 393.414306640625 133.12042236328125 392.2610168457031 130.4029998779297 C 391.10772705078125 127.68559265136719 389.31396484375 125.29351806640625 387.50946044921875 122.95726013183594 C 385.7049865722656 120.62100219726562 383.8818054199219 118.36404418945312 381.3393249511719 117.00765991210938 L 379.5385437011719 117.9171142578125" stroke-width="0.6000000238418579" fill="rgb(218, 166, 20)" opacity="1.0"/>
    <path d="M 403.12646484375 78.77314758300781 C 396.6834716796875 71.18499755859375 385.30902099609375 70.25666809082031 377.7208557128906 76.69964599609375 C 377.07110595703125 77.25135803222656 376.4612731933594 77.84848022460938 375.89599609375 78.48649597167969 C 373.74853515625 80.91120910644531 372.2413330078125 84.07516479492188 372.46478271484375 87.30485534667969 C 372.6533508300781 90.0341796875 374.0313415527344 92.53268432617188 375.6028747558594 94.76991271972656 C 379.81768798828125 100.75259399414062 385.55755615234375 105.49760437011719 392.2261657714844 108.51205444335938 C 393.990234375 109.30589294433594 395.870849609375 109.98458862304688 397.80816650390625 109.91453552246094 C 401.06060791015625 109.79884338378906 403.9208679199219 107.55491638183594 405.73345947265625 104.84912109375 C 408.4272766113281 100.8338623046875 409.2536926269531 95.72543334960938 408.4735412597656 90.95248413085938 C 407.69342041015625 86.17953491210938 405.40484619140625 81.73318481445312 402.3598937988281 77.97636413574219 L 403.12646484375 78.77314758300781" stroke-width="0.6000000238418579" fill="rgb(143, 165, 67)" opacity="1.0"/>
    <path d="M 123.11538696289062 430.050048828125 C 115.79776000976562 421.8275146484375 99.76365661621094 426.35821533203125 97.05743408203125 436.95440673828125 C 94.35122680664062 447.5506591796875 105.37129211425781 458.94012451171875 116.26968383789062 457.372802734375 C 127.16807556152344 455.805419921875 134.5678253173828 442.94384765625 131.197998046875 432.45098876953125 L 123.11538696289062 430.050048828125" stroke-width="0.6000000238418579" fill="rgb(233, 92, 21)" opacity="1.0"/>
    <path d="M 448.87445068359375 205.25082397460938 C 445.31951904296875 209.24847412109375 441.4876708984375 214.39239501953125 443.3052978515625 219.44317626953125 C 444.10693359375 221.42498779296875 445.503662109375 223.10931396484375 447.30303955078125 224.26361083984375 C 451.67828369140625 227.23956298828125 457.2244873046875 227.91024780273438 462.1829833984375 226.06298828125 C 466.3851318359375 224.4852294921875 469.6553955078125 221.228515625 472.7425537109375 218.00811767578125 C 474.4737548828125 216.1962890625 476.2554931640625 214.21612548828125 476.694580078125 211.76287841796875 C 477.253173828125 208.48809814453125 475.2591552734375 205.33612060546875 473.08148193359375 202.8287353515625 C 469.8990478515625 199.15518188476562 466.1429443359375 196.02096557617188 461.958984375 193.54766845703125 C 460.51165771484375 192.69586181640625 458.93994140625 191.9014892578125 457.26123046875 191.89642333984375 C 455.7000732421875 191.9715576171875 454.19451904296875 192.49929809570312 452.9281005859375 193.41531372070312 C 448.97857666015625 196.04449462890625 446.3812255859375 200.27386474609375 445.8226318359375 204.98553466796875 L 448.87445068359375 205.25082397460938" stroke-width="0.6000000238418579" fill="rgb(70, 150, 179)" opacity="1.0"/>
    <path d="M 422.65118408203125 135.85003662109375 C 423.7686767578125 129.6817169189453 424.7484130859375 122.79769897460938 421.269775390625 117.58749389648438 C 417.5296630859375 111.99282836914062 409.7271423339844 110.43710327148438 403.1571960449219 111.89419555664062 C 400.62384033203125 112.45492553710938 398.0837707519531 113.444091796875 396.30792236328125 115.33541870117188 C 394.84747314453125 116.8896484375 394.0189208984375 118.92076110839844 393.3331298828125 120.93968200683594 C 391.1628112792969 127.30377197265625 390.13946533203125 134.5675506591797 393.1581115722656 140.57427978515625 C 396.20465087890625 146.6260223388672 403.4002380371094 150.3139190673828 410.0916442871094 149.21351623535156 C 416.7830810546875 148.1131134033203 422.466552734375 142.3762664794922 423.450439453125 135.66220092773438 L 422.65118408203125 135.85003662109375" stroke-width="0.6000000238418579" fill="rgb(140, 28, 33)" opacity="1.0"/>
    <path d="M 400.1210021972656 68.0673828125 C 401.4578552246094 73.16513061523438 402.9051208496094 78.45486450195312 406.25439453125 82.52876281738281 C 409.6036376953125 86.60258483886719 415.4739990234375 89.12612915039062 420.31396484375 87.03372192382812 C 426.28271484375 84.4375 427.7010498046875 75.82940673828125 424.3411865234375 70.24093627929688 C 420.9813232421875 64.65243530273438 414.4212646484375 61.76332092285156 408.010986328125 60.61334228515625 C 406.0622863769531 60.05853271484375 403.97650146484375 60.25437927246094 402.16522216796875 61.162261962890625 C 400.4878234863281 62.23908996582031 399.89385986328125 65.07994079589844 401.5552673339844 66.19906616210938 L 400.1210021972656 68.0673828125" stroke-width="0.6000000238418579" fill="rgb(159, 159, 159)" opacity="1.0"/>
    <path d="M 439.991455078125 235.94247436523438 C 436.255126953125 240.6807861328125 434.060791015625 246.802490234375 434.799072265625 252.7882080078125 C 435.53741455078125 258.77392578125 439.49029541015625 264.4618835449219 445.1873779296875 266.5174560546875 C 449.21710205078125 267.9656677246094 453.7745361328125 267.52630615234375 457.73486328125 265.8880920410156 C 461.6951904296875 264.2499084472656 465.110107421875 261.4967956542969 468.0584716796875 258.3852844238281 C 469.34075927734375 257.03045654296875 470.5877685546875 255.51651000976562 470.9444580078125 253.6904296875 C 471.3544921875 251.59707641601562 470.52239990234375 249.48074340820312 469.61199951171875 247.54449462890625 C 467.0416259765625 242.0780029296875 463.53564453125 236.7972412109375 458.353271484375 233.6922607421875 C 453.1708984375 230.58721923828125 446.0283203125 230.18609619140625 441.34356689453125 233.97695922851562 L 439.991455078125 235.94247436523438" stroke-width="0.6000000238418579" fill="rgb(159, 159, 159)" opacity="1.0"/>
    <path d="M 409.1894226074219 261.60723876953125 C 407.08746337890625 256.22991943359375 404.51806640625 250.34381103515625 399.2630615234375 247.979736328125 C 394.1557922363281 245.67352294921875 388.2164001464844 247.45181274414062 382.9393310546875 249.34494018554688 C 380.7967529296875 250.11715698242188 378.56756591796875 250.95916748046875 377.0459289550781 252.65203857421875 C 374.47064208984375 255.51373291015625 374.65826416015625 259.89739990234375 375.58258056640625 263.62884521484375 C 376.4391174316406 267.09259033203125 377.7886047363281 270.4153747558594 379.5897216796875 273.4955139160156 C 382.51239013671875 278.49786376953125 387.4078369140625 283.1429443359375 393.1910400390625 282.83282470703125 C 396.3134460449219 282.66998291015625 399.2295837402344 281.03778076171875 401.5021057128906 278.8833923339844 C 403.774658203125 276.7289733886719 405.4862365722656 274.0588073730469 407.13836669921875 271.3986511230469 C 408.7904968261719 268.738525390625 410.35687255859375 266.0892639160156 410.76141357421875 263.0593566894531 L 409.1894226074219 261.60723876953125" stroke-width="0.6000000238418579" fill="rgb(218, 166, 20)" opacity="1.0"/>
    <path d="M 413.7816162109375 91.62213134765625 C 407.5668029785156 99.11988830566406 408.6068420410156 110.23612976074219 416.1046142578125 116.450927734375 C 416.74664306640625 116.98310852050781 417.4256591796875 117.46905517578125 418.136474609375 117.9051513671875 C 420.837646484375 119.56170654296875 424.1422119140625 120.47569274902344 427.2156982421875 119.71115112304688 C 429.8131103515625 119.06532287597656 431.98590087890625 117.31282043457031 433.8740234375 115.41830444335938 C 438.9210205078125 110.34024047851562 442.5162353515625 104.00338745117188 444.286376953125 97.06607055664062 C 444.7510986328125 95.23155212402344 445.085205078125 93.30429077148438 444.688232421875 91.44976806640625 C 444.02362060546875 88.33599853515625 441.3753662109375 85.96199035644531 438.46026611328125 84.67587280273438 C 434.1337890625 82.76345825195312 429.0716552734375 82.8360595703125 424.60601806640625 84.39938354492188 C 420.140380859375 85.96267700195312 416.245849609375 88.9237060546875 413.14434814453125 92.49618530273438 L 413.7816162109375 91.62213134765625" stroke-width="0.6000000238418579" fill="rgb(143, 165, 67)" opacity="1.0"/>
    <path d="M 434.81561279296875 125.26393127441406 C 432.282470703125 136.09214782714844 445.354248046875 146.69859313964844 455.68048095703125 142.76803588867188 C 466.0067138671875 138.83743286132812 469.0010986328125 123.10855102539062 461.3651123046875 115.01943969726562 C 453.7291259765625 106.93032836914062 438.8009033203125 108.3026123046875 432.09552001953125 117.19134521484375 L 434.81561279296875 125.26393127441406" stroke-width="0.6000000238418579" fill="rgb(233, 92, 21)" opacity="1.0"/>
    <path d="M 448.211669921875 94.31523132324219 C 446.7767333984375 99.72491455078125 445.6236572265625 106.33575439453125 449.7027587890625 110.19561767578125 C 451.3858642578125 111.66850280761719 453.4844970703125 112.58283996582031 455.70928955078125 112.81242370605469 C 461.1986083984375 113.52861022949219 466.69451904296875 111.53973388671875 470.4542236328125 107.47648620605469 C 473.63470458984375 104.02157592773438 475.1531982421875 99.43804931640625 476.517822265625 94.97479248046875 C 477.2802734375 92.46636962890625 478.010498046875 89.7769775390625 477.2637939453125 87.27879333496094 C 476.24127197265625 83.95707702636719 472.892822265625 81.95361328125 469.6767578125 80.63880920410156 C 464.972412109375 78.70869445800781 459.9866943359375 77.552734375 454.9129638671875 77.21577453613281 C 453.15966796875 77.10272216796875 451.3172607421875 77.10197448730469 449.7470703125 77.88880920410156 C 448.3245849609375 78.69509887695312 447.1673583984375 79.89788818359375 446.4166259765625 81.35050964355469 C 443.96783447265625 85.66824340820312 443.536376953125 90.84286499023438 445.2364501953125 95.50650024414062 L 448.211669921875 94.31523132324219" stroke-width="0.6000000238418579" fill="rgb(70, 150, 179)" opacity="1.0"/>
    <path d="M 316.00616455078125 368.1794128417969 C 310.0613098144531 366.5882568359375 303.40509033203125 365.07415771484375 298.0267639160156 368.05712890625 C 292.2511291503906 371.26495361328125 290.099365234375 378.7733154296875 290.9947509765625 385.31890869140625 C 291.33892822265625 387.8427734375 292.1017150878906 390.40777587890625 293.8088684082031 392.2978820800781 C 295.2116394042969 393.8522033691406 297.13201904296875 394.8267822265625 299.0519714355469 395.6606750488281 C 305.1033935546875 398.2976989746094 312.1276550292969 399.8851013183594 318.2481689453125 397.41644287109375 C 324.4150085449219 394.9241638183594 328.6039123535156 388.181640625 328.06732177734375 381.5460205078125 C 327.53070068359375 374.910400390625 322.37646484375 368.8867492675781 315.88690185546875 367.38226318359375 L 316.00616455078125 368.1794128417969" stroke-width="0.6000000238418579" fill="rgb(140, 28, 33)" opacity="1.0"/>
    <path d="M 301.2509460449219 395.5186462402344 C 295.6563415527344 395.0671691894531 289.8298645019531 394.6590576171875 284.5556640625 396.5908508300781 C 279.2815246582031 398.52264404296875 274.6778259277344 403.5343322753906 275.0765380859375 409.135986328125 C 275.5841369628906 416.049560546875 283.73681640625 420.5064697265625 290.537109375 419.097412109375 C 297.33740234375 417.68829345703125 302.5514221191406 412.112060546875 305.9646911621094 406.073974609375 C 307.20855712890625 404.3106689453125 307.7462158203125 402.145263671875 307.4715576171875 400.0049743652344 C 306.9798889160156 397.9397888183594 304.3336486816406 396.3423767089844 302.6237487792969 397.6181945800781 L 301.2509460449219 395.5186462402344" stroke-width="0.6000000238418579" fill="rgb(159, 159, 159)" opacity="1.0"/>
    <path d="M 322.7486267089844 413.69940185546875 C 317.07781982421875 416.6597900390625 312.29779052734375 421.62750244140625 310.4129943847656 427.737060546875 C 308.5281982421875 433.8465576171875 309.881591796875 441.06378173828125 314.4989318847656 445.52532958984375 C 317.7674560546875 448.675537109375 322.36578369140625 450.229248046875 326.9072265625 450.3643798828125 C 331.44866943359375 450.49951171875 335.9466552734375 449.319580078125 340.1490783691406 447.5904541015625 C 341.9774169921875 446.8369140625 343.8406982421875 445.9140625 344.9785461425781 444.302978515625 C 346.2839660644531 442.4564208984375 346.3980712890625 440.04833984375 346.3582458496094 437.78045654296875 C 346.24578857421875 431.377685546875 345.14776611328125 424.748291015625 341.48388671875 419.495361328125 C 337.8199462890625 414.2423095703125 331.0863037109375 410.75323486328125 324.90966796875 412.38555908203125 L 322.7486267089844 413.69940185546875" stroke-width="0.6000000238418579" fill="rgb(159, 159, 159)" opacity="1.0"/>
    <path d="M 256.9250793457031 417.0845947265625 C 250.5096435546875 416.286376953125 243.34405517578125 415.6771240234375 238.21392822265625 419.59033203125 C 233.219482421875 423.388916015625 231.80288696289062 430.1851806640625 230.85256958007812 436.39044189453125 C 230.47021484375 438.911865234375 230.11041259765625 441.5556640625 230.9656982421875 443.95672607421875 C 232.40985107421875 448.0184326171875 236.82601928710938 450.1715087890625 240.99285888671875 451.25146484375 C 244.8599853515625 452.25537109375 248.85125732421875 452.69873046875 252.84445190429688 452.5679931640625 C 259.328369140625 452.35821533203125 266.5126037597656 450.01544189453125 269.29144287109375 444.156005859375 C 270.7962951660156 440.994873046875 270.74444580078125 437.2532958984375 269.835205078125 433.8668212890625 C 268.92596435546875 430.4803466796875 267.2097473144531 427.37115478515625 265.4717102050781 424.3258056640625 C 263.7336730957031 421.280517578125 261.96063232421875 418.325439453125 259.1931457519531 416.311279296875 L 256.9250793457031 417.0845947265625" stroke-width="0.6000000238418579" fill="rgb(218, 166, 20)" opacity="1.0"/>
    <path d="M 223.31353759765625 410.145751953125 C 213.42633056640625 404.89971923828125 201.158447265625 408.6621398925781 195.91241455078125 418.54931640625 C 195.46319580078125 419.39599609375 195.0745849609375 420.2734375 194.74954223632812 421.175048828125 C 193.51507568359375 424.601318359375 193.25698852539062 428.533447265625 194.83404541015625 431.81414794921875 C 196.16650390625 434.58673095703125 198.64541625976562 436.62335205078125 201.2177734375 438.3065185546875 C 208.10952758789062 442.802490234375 216.07940673828125 445.37109375 224.29949951171875 445.74560546875 C 226.47247314453125 445.8409423828125 228.71932983398438 445.76751708984375 230.71389770507812 444.88836669921875 C 234.063232421875 443.4144287109375 236.11749267578125 439.8804931640625 236.88519287109375 436.2999267578125 C 238.0286865234375 430.98486328125 236.76666259765625 425.3048095703125 233.96603393554688 420.64361572265625 C 231.1654052734375 415.982421875 226.92498779296875 412.2899169921875 222.1812744140625 409.6323547363281 L 223.31353759765625 410.145751953125" stroke-width="0.6000000238418579" fill="rgb(143, 165, 67)" opacity="1.0"/>
    <path d="M 278.92071533203125 360.6146240234375 C 283.68353271484375 371.56048583984375 301.73773193359375 372.3089294433594 308.1066589355469 362.3036804199219 C 314.4755554199219 352.2984313964844 306.96734619140625 336.8380126953125 295.206787109375 334.77099609375 C 283.4462585449219 332.7039794921875 271.4751892089844 343.4578857421875 271.4026184082031 355.4095458984375 L 278.92071533203125 360.6146240234375" stroke-width="0.6000000238418579" fill="rgb(233, 92, 21)" opacity="1.0"/>
    <path d="M 334.26531982421875 359.86767578125 C 332.8177795410156 365.5983581542969 331.68304443359375 372.59393310546875 336.03900146484375 376.61883544921875 C 337.8348388671875 378.15313720703125 340.0625305175781 379.0923767089844 342.4147644042969 379.30694580078125 C 348.22052001953125 379.99444580078125 353.9993591308594 377.82525634765625 357.9187316894531 373.4873046875 C 361.2340087890625 369.7989807128906 362.7801208496094 364.939697265625 364.1651611328125 360.2093505859375 C 364.93890380859375 357.55084228515625 365.6763000488281 354.7016906738281 364.85650634765625 352.07293701171875 C 363.7350769042969 348.5779724121094 360.1739196777344 346.5042724609375 356.76123046875 345.1561279296875 C 351.76922607421875 343.1768798828125 346.48974609375 342.0186767578125 341.12762451171875 341.7264404296875 C 339.27471923828125 341.6290283203125 337.3291015625 341.6513366699219 335.68084716796875 342.5019226074219 C 334.188720703125 343.3712158203125 332.9817810058594 344.6558837890625 332.2071838378906 346.19927978515625 C 329.6753845214844 350.78955078125 329.28466796875 356.2594299316406 331.13836669921875 361.1629638671875 L 334.26531982421875 359.86767578125" stroke-width="0.6000000238418579" fill="rgb(70, 150, 179)" opacity="1.0"/>
    <path d="M 296.04229736328125 419.276611328125 C 289.7287292480469 418.01904296875 282.6778259277344 416.89013671875 277.2659606933594 420.3687744140625 C 271.4546203613281 424.10919189453125 269.7178955078125 432.0928955078125 271.0966491699219 438.8648681640625 C 271.62713623046875 441.47607421875 272.597412109375 444.101806640625 274.5076904296875 445.958984375 C 276.07745361328125 447.486328125 278.1481628417969 448.37335205078125 280.20892333984375 449.11358642578125 C 286.7046813964844 451.4556884765625 294.1447448730469 452.63623046875 300.3662414550781 449.64404296875 C 306.6344909667969 446.6240234375 310.5496826171875 439.301513671875 309.5393371582031 432.4112548828125 C 308.52899169921875 425.52099609375 302.7400207519531 419.582763671875 295.86370849609375 418.45263671875 L 296.04229736328125 419.276611328125" stroke-width="0.6000000238418579" fill="rgb(140, 28, 33)" opacity="1.0"/>
    <path d="M 329.1720886230469 393.6905517578125 C 323.6251525878906 394.349609375 317.86053466796875 395.0965576171875 313.0945739746094 398.017822265625 C 308.3287353515625 400.9390563964844 304.8222351074219 406.73333740234375 306.3121337890625 412.12005615234375 C 308.1661071777344 418.7652587890625 316.9959411621094 421.51129150390625 323.353515625 418.800048828125 C 329.7110595703125 416.08880615234375 333.7020568847656 409.62384033203125 335.84539794921875 403.0621032714844 C 336.7123718261719 401.0973205566406 336.81134033203125 398.8790588378906 336.12274169921875 396.8449401855469 C 335.2371826171875 394.9267272949219 332.3415222167969 393.8883361816406 330.9240417480469 395.4691162109375 L 329.1720886230469 393.6905517578125" stroke-width="0.6000000238418579" fill="rgb(159, 159, 159)" opacity="1.0"/>
    <path d="M 357.79742431640625 414.46710205078125 C 352.8194885253906 418.71734619140625 349.1893615722656 424.7657470703125 348.7079772949219 431.2901611328125 C 348.2265930175781 437.8145751953125 351.2281799316406 444.7025146484375 356.8541564941406 448.09521484375 C 360.8348388671875 450.48883056640625 365.7763977050781 450.9859619140625 370.33648681640625 450.081298828125 C 374.8966064453125 449.1766357421875 379.11236572265625 446.97039794921875 382.9076843261719 444.2840576171875 C 384.55859375 443.1141357421875 386.2056579589844 441.767333984375 386.9717102050781 439.900146484375 C 387.8509521484375 437.759765625 387.4136047363281 435.3321533203125 386.8548278808594 433.0794677734375 C 385.2772521972656 426.7197265625 382.6649169921875 420.359619140625 377.8086242675781 415.9593505859375 C 372.9523010253906 411.5591125488281 365.43829345703125 409.6206359863281 359.6519470214844 412.6622314453125 L 357.79742431640625 414.46710205078125" stroke-width="0.6000000238418579" fill="rgb(159, 159, 159)" opacity="1.0"/>
    <path d="M 250.03945922851562 364.18353271484375 C 251.69766235351562 358.09197998046875 253.2769775390625 351.2491149902344 250.20297241210938 345.7489929199219 C 247.22100830078125 340.3958740234375 240.84686279296875 338.08721923828125 234.97943115234375 336.31097412109375 C 232.59481811523438 335.5928955078125 230.08868408203125 334.87969970703125 227.6494140625 335.37469482421875 C 223.52334594726562 336.20947265625 220.83160400390625 340.1810607910156 219.2117919921875 344.0599365234375 C 217.7069091796875 347.65960693359375 216.72671508789062 351.45672607421875 216.30120849609375 355.3350524902344 C 215.60797119140625 361.6321105957031 216.87991333007812 368.90093994140625 222.16024780273438 372.39703369140625 C 225.0081787109375 374.28863525390625 228.63238525390625 374.755615234375 232.03176879882812 374.3446350097656 C 235.43115234375 373.93365478515625 238.67404174804688 372.7042541503906 241.858154296875 371.4449157714844 C 245.04229736328125 370.18560791015625 248.14404296875 368.8799743652344 250.47360229492188 366.48297119140625 L 250.03945922851562 364.18353271484375" stroke-width="0.6000000238418579" fill="rgb(218, 166, 20)" opacity="1.0"/>
    <path d="M 260.89471435546875 389.76519775390625 C 253.33349609375 382.5517578125 241.35626220703125 382.83367919921875 234.142822265625 390.3948974609375 C 233.52511596679688 391.0423583984375 232.95416259765625 391.73284912109375 232.43414306640625 392.46112060546875 C 230.4588623046875 395.228759765625 229.23333740234375 398.6977844238281 229.82186889648438 402.0450439453125 C 230.3189697265625 404.8737487792969 232.03240966796875 407.3306579589844 233.919189453125 409.4934997558594 C 238.97760009765625 415.27587890625 245.49203491210938 419.598388671875 252.7857666015625 422.0120849609375 C 254.71478271484375 422.64678955078125 256.7528076171875 423.14849853515625 258.7677001953125 422.8623046875 C 262.15057373046875 422.38372802734375 264.889892578125 419.7264404296875 266.4846496582031 416.7021484375 C 268.85540771484375 412.2138671875 269.1562805175781 406.7896728515625 267.8168029785156 401.8924560546875 C 266.4773254394531 396.9952392578125 263.5989685058594 392.60491943359375 260.0067443847656 389.0176696777344 L 260.89471435546875 389.76519775390625" stroke-width="0.6000000238418579" fill="rgb(143, 165, 67)" opacity="1.0"/>
    <path d="M 205.4886474609375 378.70733642578125 C 195.30307006835938 385.74078369140625 198.14935302734375 404.26031494140625 209.602294921875 408.7413024902344 C 221.05523681640625 413.22222900390625 235.28570556640625 402.49322509765625 235.03875732421875 390.1139221191406 C 234.79183959960938 377.734619140625 221.4576416015625 367.703125 209.28240966796875 370.0176086425781 L 205.4886474609375 378.70733642578125" stroke-width="0.6000000238418579" fill="rgb(233, 92, 21)" opacity="1.0"/>
    <path d="M 255.18780517578125 369.3083190917969 C 255.3140869140625 375.5332336425781 256.1105651855469 382.9559631347656 261.6571350097656 385.8310241699219 C 263.9089660644531 386.8892822265625 266.4336853027344 387.22271728515625 268.8830261230469 386.7852478027344 C 274.9724426269531 385.8659362792969 280.2385559082031 382.0521545410156 283.0113830566406 376.55328369140625 C 285.3515625 371.8827209472656 285.5682067871094 366.51556396484375 285.6571960449219 361.32421875 C 285.70245361328125 358.407958984375 285.65765380859375 355.30810546875 284.0924072265625 352.8660888671875 C 281.9793701171875 349.628173828125 277.7839050292969 348.5138244628906 273.9414367675781 348.09521484375 C 268.3187255859375 347.47552490234375 262.6327819824219 347.7699890136719 257.1041564941406 348.9671936035156 C 255.1947021484375 349.3845520019531 253.22442626953125 349.9493103027344 251.78704833984375 351.2726745605469 C 250.51348876953125 352.5715026855469 249.64532470703125 354.21282958984375 249.28851318359375 355.9965515136719 C 247.99554443359375 361.3651123046875 249.12274169921875 367.0306091308594 252.37216186523438 371.4954528808594 L 255.18780517578125 369.3083190917969" stroke-width="0.6000000238418579" fill="rgb(70, 150, 179)" opacity="1.0"/>
    <path d="M 334.23211669921875 360.8287353515625 C 336.75115966796875 355.006591796875 339.29888916015625 348.4474182128906 337.0681457519531 342.5131530761719 C 334.66802978515625 336.1398620605469 327.3360595703125 332.8133850097656 320.5263671875 332.7393493652344 C 317.90081787109375 332.7096862792969 315.1701965332031 333.1007385253906 312.9853515625 334.5565185546875 C 311.1888427734375 335.7525634765625 309.90545654296875 337.5638427734375 308.76556396484375 339.3959045410156 C 305.1639709472656 345.1690368652344 302.4859619140625 352.0924072265625 304.080322265625 358.7059631347656 C 305.6918029785156 365.3702697753906 311.93560791015625 370.6585693359375 318.78302001953125 371.112060546875 C 325.63043212890625 371.5655212402344 332.5501708984375 367.218017578125 335.0629577636719 360.82733154296875 L 334.23211669921875 360.8287353515625" stroke-width="0.6000000238418579" fill="rgb(140, 28, 33)" opacity="1.0"/>
    <path d="M 355.412841796875 400.1028747558594 C 349.85772705078125 400.7655334472656 344.0846252441406 401.5163269042969 339.312744140625 404.44427490234375 C 334.5409851074219 407.3722229003906 331.0318298339844 413.177001953125 332.52655029296875 418.5712890625 C 334.386474609375 425.225830078125 343.2311096191406 427.971923828125 349.59710693359375 425.2535400390625 C 355.963134765625 422.53515625 359.9571838378906 416.05841064453125 362.1007385253906 409.4856262207031 C 362.9681396484375 407.5174560546875 363.06622314453125 405.29571533203125 362.3756103515625 403.2588195800781 C 361.48779296875 401.3381042480469 358.58721923828125 400.29949951171875 357.1683044433594 401.8833312988281 L 355.412841796875 400.1028747558594" stroke-width="0.6000000238418579" fill="rgb(159, 159, 159)" opacity="1.0"/>
    <path d="M 182.71954345703125 414.2857666015625 C 176.04840087890625 414.5860595703125 169.3348388671875 417.1785888671875 164.85723876953125 422.128173828125 C 160.379638671875 427.07781982421875 158.47750854492188 434.5035400390625 160.87890625 440.7611083984375 C 162.58233642578125 445.1832275390625 166.248046875 448.68115234375 170.48553466796875 450.811767578125 C 174.7230224609375 452.9423828125 179.49929809570312 453.8094482421875 184.23809814453125 454.02655029296875 C 186.30038452148438 454.11981201171875 188.4703369140625 454.068359375 190.25747680664062 453.04571533203125 C 192.30694580078125 451.87420654296875 193.476806640625 449.64605712890625 194.43927001953125 447.482666015625 C 197.1563720703125 441.37481689453125 199.04095458984375 434.617919921875 197.89068603515625 428.0318603515625 C 196.74041748046875 421.44580078125 191.90777587890625 415.17498779296875 185.34368896484375 413.99560546875 L 182.71954345703125 414.2857666015625" stroke-width="0.6000000238418579" fill="rgb(159, 159, 159)" opacity="1.0"/>
    <path d="M 360.5821533203125 367.25164794921875 C 354.3428039550781 368.70013427734375 347.47021484375 370.58050537109375 344.0352478027344 375.9720153808594 C 340.68731689453125 381.2105712890625 341.690673828125 388.0152587890625 342.9259338378906 394.11114501953125 C 343.4313659667969 396.5867919921875 343.9996337890625 399.1686096191406 345.61505126953125 401.1096496582031 C 348.34527587890625 404.3941345214844 353.1878967285156 404.8885192871094 357.43212890625 404.469970703125 C 361.37164306640625 404.0830078125 365.2351989746094 403.1323547363281 368.9045104980469 401.64715576171875 C 374.8633117675781 399.23773193359375 380.7450866699219 394.6053771972656 381.32861328125 388.2067565917969 C 381.648681640625 384.7528076171875 380.32269287109375 381.2905578613281 378.3205871582031 378.451416015625 C 376.31842041015625 375.6123046875 373.66046142578125 373.3066101074219 371.00396728515625 371.06781005859375 C 368.3475036621094 368.8290100097656 365.6893005371094 366.6860656738281 362.4275207519531 365.7578430175781 L 360.5821533203125 367.25164794921875" stroke-width="0.6000000238418579" fill="rgb(218, 166, 20)" opacity="1.0"/>
    <path d="M 380.2986755371094 381.10736083984375 C 375.4192810058594 390.4068908691406 379.0025329589844 401.90118408203125 388.30206298828125 406.7805480957031 C 389.098388671875 407.1983947753906 389.92333984375 407.5591735839844 390.7707214355469 407.8602600097656 C 393.9908142089844 409.0036926269531 397.6813049316406 409.2288513183594 400.752685546875 407.7349548339844 C 403.34832763671875 406.4727478027344 405.2485046386719 404.1380615234375 406.816650390625 401.71722412109375 C 411.0052185058594 395.2314453125 413.38079833984375 387.742431640625 413.6966552734375 380.0281677246094 C 413.77667236328125 377.9889221191406 413.697998046875 375.881103515625 412.864501953125 374.01348876953125 C 411.467041015625 370.8772888183594 408.1423645019531 368.96514892578125 404.7795104980469 368.26031494140625 C 399.78765869140625 367.2104187011719 394.4637145996094 368.41912841796875 390.1023864746094 371.0670471191406 C 385.7410583496094 373.7149353027344 382.2948303222656 377.7095947265625 379.8218688964844 382.17193603515625 L 380.2986755371094 381.10736083984375" stroke-width="0.6000000238418579" fill="rgb(143, 165, 67)" opacity="1.0"/>
    <path d="M 364.3216247558594 364.9733581542969 C 368.8995361328125 376.8965759277344 388.1625061035156 378.54278564453125 395.4391784667969 368.146728515625 C 402.7158203125 357.75067138671875 395.4149169921875 340.8731994628906 382.9410095214844 338.112548828125 C 370.46710205078125 335.3518981933594 357.1672668457031 346.2856140136719 356.529541015625 359.05731201171875 L 364.3216247558594 364.9733581542969" stroke-width="0.6000000238418579" fill="rgb(233, 92, 21)" opacity="1.0"/>
    <path d="M 399.3664855957031 355.88836669921875 C 400.98236083984375 361.9999084472656 403.5464172363281 369.1326904296875 409.7076416015625 370.64056396484375 C 412.18292236328125 371.1452331542969 414.7537841796875 370.8693542480469 417.065673828125 369.8509826660156 C 422.853515625 367.4851379394531 427.1356201171875 362.4607238769531 428.5540771484375 356.37103271484375 C 429.744140625 351.20220947265625 428.672119140625 345.8548278808594 427.5162353515625 340.7115173339844 C 426.86224365234375 337.8233642578125 426.075439453125 334.7756652832031 423.946044921875 332.7412109375 C 421.0855712890625 330.0527648925781 416.67919921875 329.9584045410156 412.7877197265625 330.46588134765625 C 407.0916442871094 331.2014465332031 401.5522155761719 332.8541564941406 396.3842468261719 335.3598327636719 C 394.60028076171875 336.2290344238281 392.7916259765625 337.2582702636719 391.6904296875 338.9082946777344 C 390.7450256347656 340.494873046875 390.2817077636719 342.3222961425781 390.35693359375 344.16766357421875 C 390.36737060546875 349.7742614746094 392.8367919921875 355.09405517578125 397.1123962402344 358.7207946777344 L 399.3664855957031 355.88836669921875" stroke-width="0.6000000238418579" fill="rgb(70, 150, 179)" opacity="1.0"/>
    <path d="M 383.90618896484375 415.90625 C 380.8315124511719 422.1300048828125 377.6847839355469 429.15771484375 379.79486083984375 435.766357421875 C 382.0657958984375 442.86419677734375 389.8949890136719 446.90472412109375 397.3331298828125 447.36181640625 C 400.20086669921875 447.539306640625 403.2067565917969 447.2628173828125 405.6749267578125 445.79248046875 C 407.7043762207031 444.5845947265625 409.20703125 442.676025390625 410.55401611328125 440.73675537109375 C 414.80908203125 434.62640380859375 418.1182861328125 427.2078857421875 416.7412109375 419.89202880859375 C 415.3482666015625 412.5196533203125 408.81671142578125 406.3952331542969 401.35833740234375 405.5213317871094 C 393.89996337890625 404.6474609375 386.0973205566406 409.0164489746094 382.99810791015625 415.8619384765625 L 383.90618896484375 415.90625" stroke-width="0.6000000238418579" fill="rgb(140, 28, 33)" opacity="1.0"/>
    <path d="M 409.609619140625 385.0995788574219 C 408.9049987792969 390.6333923339844 408.2327880859375 396.3994445800781 409.9090270996094 401.724365234375 C 411.5852966308594 407.0492248535156 416.35009765625 411.849609375 421.92987060546875 411.71044921875 C 428.817138671875 411.5233154296875 433.61578369140625 403.6333312988281 432.5284423828125 396.81719970703125 C 431.4410400390625 390.0010681152344 426.14373779296875 384.56884765625 420.3052978515625 380.9033508300781 C 418.6116943359375 379.58758544921875 416.48638916015625 378.95452880859375 414.348876953125 379.129150390625 C 412.27593994140625 379.52264404296875 410.5687255859375 382.0766906738281 411.75701904296875 383.8328552246094 L 409.609619140625 385.0995788574219" stroke-width="0.6000000238418579" fill="rgb(159, 159, 159)" opacity="1.0"/>
    <path d="M 438.9835205078125 368.2611083984375 C 441.0845947265625 374.60784912109375 445.4058837890625 380.3730163574219 451.3912353515625 383.3434753417969 C 457.37664794921875 386.31396484375 465.048583984375 386.13031005859375 470.42626953125 382.1169738769531 C 474.224853515625 379.2746887207031 476.5999755859375 374.79248046875 477.50225830078125 370.1306457519531 C 478.404541015625 365.46881103515625 477.9429931640625 360.63092041015625 476.8653564453125 356.0056457519531 C 476.3951416015625 353.99310302734375 475.75634765625 351.9161376953125 474.2855224609375 350.47174072265625 C 472.60009765625 348.8150329589844 470.1353759765625 348.2928161621094 467.789306640625 347.9529113769531 C 461.166015625 346.99334716796875 454.143310546875 347.0123291015625 448.10931396484375 349.90924072265625 C 442.0753173828125 352.8061828613281 437.34521484375 359.16583251953125 437.9913330078125 365.811279296875 L 438.9835205078125 368.2611083984375" stroke-width="0.6000000238418579" fill="rgb(159, 159, 159)" opacity="1.0"/>
    <path d="M 427.17626953125 409.843017578125 C 422.117919921875 414.08984375 416.6793212890625 419.029541015625 416.0411376953125 425.59033203125 C 415.41143798828125 431.96990966796875 419.51324462890625 437.75592041015625 423.4970703125 442.78204345703125 C 425.118408203125 444.82147216796875 426.8470458984375 446.92913818359375 429.2388916015625 447.95849609375 C 433.283203125 449.701904296875 437.96551513671875 447.8935546875 441.6712646484375 445.5257568359375 C 445.111572265625 443.3292236328125 448.21875 440.650146484375 450.8975830078125 437.5704345703125 C 455.2490234375 432.57147216796875 458.4910888671875 425.565185546875 456.03759765625 419.410888671875 C 454.718017578125 416.0865478515625 451.88134765625 413.52362060546875 448.7144775390625 411.8493957519531 C 445.5474853515625 410.1752014160156 442.0269775390625 409.29779052734375 438.5390625 408.4811706542969 C 435.0511474609375 407.6645202636719 431.6064453125 406.9367980957031 428.174560546875 407.607666015625 L 427.17626953125 409.843017578125" stroke-width="0.6000000238418579" fill="rgb(218, 166, 20)" opacity="1.0"/>
    <path d="M 138.40771484375 221.88986206054688 C 133.28005981445312 232.0672607421875 137.37368774414062 244.47442626953125 147.5510711669922 249.60208129882812 C 148.4225616455078 250.04116821289062 149.3240966796875 250.4178466796875 150.24891662597656 250.7293701171875 C 153.76319885253906 251.912353515625 157.77142333984375 252.090576171875 161.07711791992188 250.4146728515625 C 163.87081909179688 248.99871826171875 165.89071655273438 246.43154907226562 167.54879760742188 243.77685546875 C 171.977294921875 236.664794921875 174.42071533203125 228.49664306640625 174.62527465820312 220.1209716796875 C 174.67562866210938 217.906982421875 174.55255126953125 215.62139892578125 173.61474609375 213.60992431640625 C 172.0423583984375 210.232177734375 168.40081787109375 208.21697998046875 164.739501953125 207.512451171875 C 159.30450439453125 206.46270751953125 153.5496826171875 207.86947631835938 148.86502075195312 210.820556640625 C 144.18035888671875 213.7716064453125 140.51271057128906 218.16751098632812 137.90945434570312 223.053466796875 L 138.40771484375 221.88986206054688" stroke-width="0.6000000238418579" fill="rgb(143, 165, 67)" opacity="1.0"/>
    <path d="M 173.61151123046875 259.84967041015625 C 181.171630859375 270.9913024902344 201.34127807617188 268.0596618652344 206.31704711914062 255.64166259765625 C 211.29278564453125 243.2236328125 199.74871826171875 227.6494140625 186.2811279296875 227.80816650390625 C 172.81350708007812 227.9669189453125 161.7835693359375 242.3819580078125 164.19305419921875 255.64593505859375 L 173.61151123046875 259.84967041015625" stroke-width="0.6000000238418579" fill="rgb(233, 92, 21)" opacity="1.0"/>
    <path d="M 145.01780700683594 315.73565673828125 C 140.42344665527344 320.57415771484375 135.4371795654297 326.8303527832031 137.49720764160156 333.2005615234375 C 138.41567993164062 335.7037353515625 140.0882568359375 337.8602294921875 142.28427124023438 339.37249755859375 C 147.61705017089844 343.260498046875 154.50352478027344 344.3225402832031 160.7598876953125 342.2218322753906 C 166.06243896484375 340.42626953125 170.27178955078125 336.4997863769531 174.25137329101562 332.611083984375 C 176.48330688476562 330.42303466796875 178.78497314453125 328.0272216796875 179.432373046875 324.9869689941406 C 180.2620849609375 320.927490234375 177.90484619140625 316.9170227050781 175.2923583984375 313.7026672363281 C 171.474853515625 308.99365234375 166.92034912109375 304.9335632324219 161.80545043945312 301.679931640625 C 160.0360107421875 300.55914306640625 158.10910034179688 299.5048522949219 156.01666259765625 299.43011474609375 C 154.06752014160156 299.46014404296875 152.16920471191406 300.05670166015625 150.55323791503906 301.14697265625 C 145.52272033691406 304.2635192871094 142.11257934570312 309.429931640625 141.22427368164062 315.28057861328125 L 145.01780700683594 315.73565673828125" stroke-width="0.6000000238418579" fill="rgb(70, 150, 179)" opacity="1.0"/>
    <path d="M 126.35260009765625 304.9435729980469 C 125.68531799316406 297.8525390625 124.64794921875 290.0207214355469 119.2457275390625 285.38616943359375 C 113.43951416015625 280.4111328125 104.42631530761719 281.0997314453125 97.68470764160156 284.7069091796875 C 95.0848388671875 286.0965576171875 92.60888671875 287.9570617675781 91.24545288085938 290.5704345703125 C 90.12382507324219 292.7183532714844 89.83964538574219 295.19439697265625 89.70791625976562 297.6134033203125 C 89.28334045410156 305.2411804199219 90.38934326171875 313.5018615722656 95.53237915039062 319.1487731933594 C 100.71974182128906 324.83642578125 109.72222900390625 326.66656494140625 116.70599365234375 323.4124450683594 C 123.68975830078125 320.1582946777344 128.15020751953125 312.1403503417969 127.16949462890625 304.4931945800781 L 126.35260009765625 304.9435729980469" stroke-width="0.6000000238418579" fill="rgb(140, 28, 33)" opacity="1.0"/>
    <path d="M 141.7039031982422 278.80560302734375 C 136.87132263183594 281.5779724121094 131.873291015625 284.5160217285156 128.64138793945312 289.0591125488281 C 125.4095458984375 293.60211181640625 124.4560546875 300.2894592285156 127.92822265625 304.6503601074219 C 132.2262725830078 310.0238342285156 141.40200805664062 309.0932922363281 146.17652893066406 304.1209716796875 C 150.9510498046875 299.148681640625 152.0870361328125 291.65655517578125 151.48974609375 284.7976379394531 C 151.517578125 282.6558837890625 150.74156188964844 280.58160400390625 149.3147735595703 278.9841003417969 C 147.75257873535156 277.5699157714844 144.6896209716797 277.74859619140625 144.00657653808594 279.7530822753906 L 141.7039031982422 278.80560302734375" stroke-width="0.6000000238418579" fill="rgb(159, 159, 159)" opacity="1.0"/>
    <path d="M 165.153564453125 285.6434326171875 C 164.02139282226562 292.53656005859375 165.22625732421875 299.9677734375 169.3262939453125 305.61895751953125 C 173.42633056640625 311.2701416015625 180.6165771484375 314.8194885253906 187.53985595703125 313.7118225097656 C 192.4337158203125 312.9224853515625 196.80514526367188 309.9252014160156 199.90032958984375 306.0476379394531 C 202.99554443359375 302.1700744628906 204.91372680664062 297.46832275390625 206.15853881835938 292.6647033691406 C 206.69900512695312 290.5739440917969 207.1146240234375 288.3417663574219 206.4534912109375 286.2918395996094 C 205.69662475585938 283.9412841796875 203.66842651367188 282.26300048828125 201.66168212890625 280.81103515625 C 195.99627685546875 276.7118835449219 189.48684692382812 273.3248596191406 182.49737548828125 273.08099365234375 C 175.50784301757812 272.837158203125 168.04644775390625 276.4305419921875 165.4228515625 282.89483642578125 L 165.153564453125 285.6434326171875" stroke-width="0.6000000238418579" fill="rgb(159, 159, 159)" opacity="1.0"/>
    <path d="M 120.54751586914062 345.4845886230469 C 119.279296875 338.8153991699219 117.5806884765625 331.4572448730469 112.01737976074219 327.5899353027344 C 106.61233520507812 323.82135009765625 99.3634033203125 324.5941162109375 92.855224609375 325.6426086425781 C 90.21199035644531 326.0724182128906 87.45361328125 326.5642395019531 85.32926940917969 328.1922912597656 C 81.73469543457031 330.9437561035156 81.00486755371094 336.051025390625 81.26734924316406 340.5635070800781 C 81.50935363769531 344.751953125 82.35153198242188 348.8839416503906 83.76809692382812 352.8330078125 C 86.06588745117188 359.24603271484375 90.72103881835938 365.6721496582031 97.47235107421875 366.5626220703125 C 101.116455078125 367.0487060546875 104.8394775390625 365.79193115234375 107.931396484375 363.7926025390625 C 111.0233154296875 361.79327392578125 113.57826232910156 359.07666015625 116.06230163574219 356.3587951660156 C 118.54634094238281 353.64093017578125 120.92893981933594 350.9171447753906 122.05084228515625 347.50244140625 L 120.54751586914062 345.4845886230469" stroke-width="0.6000000238418579" fill="rgb(218, 166, 20)" opacity="1.0"/>
    <path d="M 152.8740234375 343.071044921875 C 141.85069274902344 345.7723083496094 135.1043243408203 356.8983154296875 137.8055877685547 367.921630859375 C 138.03689575195312 368.8655700683594 138.3348846435547 369.7919006347656 138.69728088378906 370.69366455078125 C 140.07496643066406 374.11993408203125 142.53297424316406 377.2701721191406 145.9404296875 378.6890869140625 C 148.8198699951172 379.888427734375 152.07040405273438 379.75714111328125 155.15313720703125 379.2952880859375 C 163.40316772460938 378.047607421875 171.16864013671875 374.61370849609375 177.6429443359375 369.35028076171875 C 179.3519287109375 367.95611572265625 181.00296020507812 366.3843688964844 181.9193115234375 364.3730163574219 C 183.459716796875 360.997314453125 182.62982177734375 356.93634033203125 180.79473876953125 353.7082824707031 C 178.07366943359375 348.91387939453125 173.28561401367188 345.4664306640625 168.0205078125 343.8283386230469 C 162.75546264648438 342.19024658203125 157.05429077148438 342.25689697265625 151.67062377929688 343.4465026855469 L 152.8740234375 343.071044921875" stroke-width="0.6000000238418579" fill="rgb(143, 165, 67)" opacity="1.0"/>
    <path d="M 141.33055114746094 381.1652526855469 C 133.60609436035156 370.7196044921875 114.275634765625 374.33502197265625 109.96441650390625 386.50164794921875 C 105.65324401855469 398.66827392578125 117.39193725585938 413.2314453125 130.3695831298828 412.551513671875 C 143.34722900390625 411.87158203125 153.4170379638672 397.54278564453125 150.57516479492188 384.8495178222656 L 141.33055114746094 381.1652526855469" stroke-width="0.6000000238418579" fill="rgb(233, 92, 21)" opacity="1.0"/>
    <path d="M 187.597900390625 355.4467468261719 C 186.407470703125 361.8206481933594 185.64654541015625 369.5578918457031 190.6927490234375 373.6648254394531 C 192.7645263671875 375.2210693359375 195.26815795898438 376.0960693359375 197.8582763671875 376.1690673828125 C 204.2620849609375 376.522216796875 210.43978881835938 373.7495422363281 214.432373046875 368.7303466796875 C 217.80828857421875 364.4639892578125 219.1666259765625 359.0373840332031 220.35748291015625 353.7629699707031 C 221.02166748046875 350.7990417480469 221.63290405273438 347.62884521484375 220.554443359375 344.8071594238281 C 219.0860595703125 341.0578918457031 215.04440307617188 339.0325622558594 211.2152099609375 337.7914123535156 C 205.61343383789062 335.9679870605469 199.75344848632812 335.06329345703125 193.862548828125 335.1123962402344 C 191.82720947265625 335.1332702636719 189.69854736328125 335.2915954589844 187.95248413085938 336.3363037109375 C 186.378662109375 337.3907470703125 185.1456298828125 338.8803405761719 184.40380859375 340.6234436035156 C 181.94775390625 345.8233947753906 181.89645385742188 351.8390197753906 184.26348876953125 357.0801086425781 L 187.597900390625 355.4467468261719" stroke-width="0.6000000238418579" fill="rgb(70, 150, 179)" opacity="1.0"/>
  </g>
</svg>
