<?xml version="1.0" ?>
<svg xmlns="http://www.w3.org/2000/svg" version="1.1" width="600" height="600">
  <defs/>
  <g>
    <path d="M 355.1360778808594 343.74981689453125 C 359.81396484375 347.08038330078125 367.4413757324219 342.91119384765625 367.5851745605469 337.2075500488281 C 367.72894287109375 331.50390625 360.79974365234375 326.993408203125 355.43951416015625 329.05816650390625 C 350.07928466796875 331.1228942871094 347.81201171875 338.5245361328125 350.74627685546875 343.4689025878906 L 355.1360778808594 343.74981689453125" stroke-width="0.6000000238418579" fill="rgb(233, 92, 21)" opacity="1.0"/>
    <path d="M 116.36363220214844 203.41973876953125 C 119.298828125 201.94183349609375 122.65170288085938 199.8720703125 122.75738525390625 196.5762939453125 C 122.7484130859375 195.26309204101562 122.3321533203125 193.98501586914062 121.56600952148438 192.91839599609375 C 119.74140930175781 190.22836303710938 116.72613525390625 188.58953857421875 113.47637939453125 188.52166748046875 C 110.71951293945312 188.47113037109375 108.11463928222656 189.59036254882812 105.62255859375 190.7303466796875 C 104.22369384765625 191.37298583984375 102.7579345703125 192.10031127929688 101.95166015625 193.40179443359375 C 100.89120483398438 195.14532470703125 101.31614685058594 197.39675903320312 101.99195861816406 199.3216552734375 C 102.97747802734375 202.1400146484375 104.41268920898438 204.7802734375 106.24189758300781 207.1400146484375 C 106.87548828125 207.95413208007812 107.5931396484375 208.76364135742188 108.55061340332031 209.14666748046875 C 109.4591064453125 209.45724487304688 110.43833923339844 209.49676513671875 111.36892700195312 209.26043701171875 C 114.21958923339844 208.65335083007812 116.66046142578125 206.8262939453125 118.04629516601562 204.26226806640625 L 116.36363220214844 203.41973876953125" stroke-width="0.6000000238418579" fill="rgb(70, 150, 179)" opacity="1.0"/>
    <path d="M 453.704833984375 420.473876953125 C 455.12872314453125 423.87908935546875 456.8499755859375 427.59375 460.237548828125 429.0533447265625 C 463.87750244140625 430.6190185546875 468.23040771484375 428.8880615234375 471.00927734375 426.0635986328125 C 472.0811767578125 424.9749755859375 473.0191650390625 423.67266845703125 473.29058837890625 422.16943359375 C 473.51416015625 420.9337158203125 473.2728271484375 419.6649169921875 472.96484375 418.4478759765625 C 471.998291015625 414.608642578125 470.17694091796875 410.6924133300781 466.761474609375 408.6919860839844 C 463.3177490234375 406.67828369140625 458.5816650390625 407.1614990234375 455.62847900390625 409.8486633300781 C 452.67529296875 412.535888671875 451.705322265625 417.190673828125 453.3701171875 420.8226318359375 L 453.704833984375 420.473876953125" stroke-width="0.6000000238418579" fill="rgb(140, 28, 33)" opacity="1.0"/>
    <path d="M 89.107666015625 206.0654296875 C 92.2542724609375 205.03997802734375 95.51718139648438 203.938232421875 97.94796752929688 201.6888427734375 C 100.37870788574219 199.439453125 101.74491882324219 195.6666259765625 100.25527954101562 192.7093505859375 C 98.40830993652344 189.06301879882812 92.95980834960938 188.49029541015625 89.57992553710938 190.80203247070312 C 86.20002746582031 193.11376953125 84.6300048828125 197.33242797851562 84.14471435546875 201.39324951171875 C 83.86856079101562 202.63528442382812 84.06800842285156 203.9356689453125 84.7037353515625 205.03778076171875 C 85.44046020507812 206.04974365234375 87.24319458007812 206.317626953125 87.88371276855469 205.2349853515625 L 89.107666015625 206.0654296875" stroke-width="0.6000000238418579" fill="rgb(159, 159, 159)" opacity="1.0"/>
    <path d="M 381.9968566894531 299.5489807128906 C 385.1012878417969 298.37860107421875 387.872314453125 296.1191101074219 389.22393798828125 293.0910949707031 C 390.5755310058594 290.0630798339844 390.3290100097656 286.2627258300781 388.2300720214844 283.6775207519531 C 386.7437744140625 281.8516540527344 384.47314453125 280.7647705078125 382.1433410644531 280.4118347167969 C 379.81353759765625 280.0589294433594 377.4240417480469 280.38580322265625 375.1524658203125 281.0138854980469 C 374.1640930175781 281.28778076171875 373.14715576171875 281.64666748046875 372.4607849121094 282.4051818847656 C 371.6734619140625 283.27447509765625 371.4644775390625 284.5071716308594 371.3434753417969 285.6773376464844 C 371.00189208984375 288.9809265136719 371.1535949707031 292.46270751953125 372.7122802734375 295.3959045410156 C 374.27099609375 298.3291015625 377.5202331542969 300.545654296875 380.8022155761719 300.0906066894531 L 381.9968566894531 299.5489807128906" stroke-width="0.6000000238418579" fill="rgb(159, 159, 159)" opacity="1.0"/>
    <path d="M 101.48419189453125 429.57745361328125 C 103.39509582519531 426.90960693359375 105.40359497070312 423.861328125 104.90165710449219 420.6248779296875 C 104.41796875 417.47662353515625 101.73016357421875 415.1976318359375 99.19287109375 413.269775390625 C 98.16099548339844 412.48809814453125 97.06903076171875 411.6868591308594 95.79086303710938 411.48638916015625 C 93.6292724609375 411.1460266113281 91.5986328125 412.59381103515625 90.1070556640625 414.19049072265625 C 88.72203063964844 415.6719970703125 87.55691528320312 417.3446044921875 86.64736938476562 419.15728759765625 C 85.16944885253906 422.0999755859375 84.47308349609375 425.8720703125 86.41290283203125 428.5316162109375 C 87.45803833007812 429.96893310546875 89.139404296875 430.8526611328125 90.87014770507812 431.2679443359375 C 92.60092163085938 431.68316650390625 94.40359497070312 431.67132568359375 96.18309020996094 431.63427734375 C 97.96255493164062 431.59716796875 99.71029663085938 431.5225830078125 101.27938842773438 430.7764892578125 L 101.48419189453125 429.57745361328125" stroke-width="0.6000000238418579" fill="rgb(218, 166, 20)" opacity="1.0"/>
    <path d="M 99.01675415039062 141.5154266357422 C 105.25563049316406 141.6752166748047 110.44277954101562 136.7471466064453 110.60258483886719 130.50827026367188 C 110.61627197265625 129.97402954101562 110.59202575683594 129.4394989013672 110.53005981445312 128.90869140625 C 110.29425048828125 126.89176940917969 109.44537353515625 124.86517333984375 107.84255981445312 123.61994934082031 C 106.48817443847656 122.56752014160156 104.74459838867188 122.16744995117188 103.04229736328125 121.96701049804688 C 98.48486328125 121.436767578125 93.86859130859375 122.136474609375 89.67298889160156 123.99342346191406 C 88.56480407714844 124.48614501953125 87.46170043945312 125.08145141601562 86.68486022949219 126.01617431640625 C 85.3797607421875 127.58457946777344 85.23321533203125 129.8590850830078 85.7403564453125 131.83694458007812 C 86.4912109375 134.7738800048828 88.53337097167969 137.2948760986328 91.090087890625 138.92483520507812 C 93.64678955078125 140.55479431152344 96.68122863769531 141.34329223632812 99.70948791503906 141.49012756347656 L 99.01675415039062 141.5154266357422" stroke-width="0.6000000238418579" fill="rgb(143, 165, 67)" opacity="1.0"/>
    <path d="M 459.2000732421875 344.37652587890625 C 462.7882080078125 350.78485107421875 473.88671875 350.1339111328125 477.1710205078125 343.61761474609375 C 480.455322265625 337.10125732421875 474.9091796875 328.0978698730469 467.58251953125 327.554931640625 C 460.25592041015625 327.0119934082031 453.5880126953125 334.330810546875 454.27783203125 341.6518859863281 L 459.2000732421875 344.37652587890625" stroke-width="0.6000000238418579" fill="rgb(233, 92, 21)" opacity="1.0"/>
    <path d="M 98.84121704101562 219.509033203125 C 100.95730590820312 216.8489990234375 103.20913696289062 213.45208740234375 101.88002014160156 210.31106567382812 C 101.30245971679688 209.0816650390625 100.35762023925781 208.061767578125 99.17584228515625 207.39208984375 C 96.29641723632812 205.656494140625 92.75439453125 205.4241943359375 89.67295837402344 206.76885986328125 C 87.06198120117188 207.91622924804688 85.10067749023438 210.09628295898438 83.25428771972656 212.2469482421875 C 82.21907043457031 213.45672607421875 81.15771484375 214.7750244140625 80.96455383300781 216.34674072265625 C 80.72427368164062 218.44378662109375 82.09910583496094 220.37405395507812 83.56802368164062 221.888916015625 C 85.71502685546875 224.108642578125 88.20716857910156 225.96624755859375 90.94775390625 227.3896484375 C 91.8956298828125 227.87960815429688 92.92044067382812 228.32882690429688 93.98564147949219 228.2735595703125 C 94.97344970703125 228.17153930664062 95.91023254394531 227.78427124023438 96.6817626953125 227.15899658203125 C 99.09585571289062 225.3533935546875 100.59637451171875 222.5797119140625 100.78662109375 219.571044921875 L 98.84121704101562 219.509033203125" stroke-width="0.6000000238418579" fill="rgb(70, 150, 179)" opacity="1.0"/>
    <path d="M 103.75865173339844 80.77615356445312 C 104.19488525390625 84.64849853515625 104.84100341796875 88.92236328125 107.84274291992188 91.40336608886719 C 111.06887817382812 94.06658935546875 115.99252319335938 93.59942626953125 119.64419555664062 91.5584716796875 C 121.05245971679688 90.77217102050781 122.38821411132812 89.72955322265625 123.10781860351562 88.2862548828125 C 123.6998291015625 87.10000610351562 123.83041381835938 85.74266052246094 123.87818908691406 84.41806030273438 C 124.03385925292969 80.24113464355469 123.34588623046875 75.73336791992188 120.47576904296875 72.69593811035156 C 117.58099365234375 69.63668823242188 112.637939453125 68.72592163085938 108.85025024414062 70.576171875 C 105.06256103515625 72.42642211914062 102.70303344726562 76.8572998046875 103.31631469726562 81.03073120117188 L 103.75865173339844 80.77615356445312" stroke-width="0.6000000238418579" fill="rgb(140, 28, 33)" opacity="1.0"/>
    <path d="M 90.60317993164062 413.65057373046875 C 94.1551513671875 412.42352294921875 97.837646484375 411.1075134277344 100.552490234375 408.5051574707031 C 103.26727294921875 405.90283203125 104.7430419921875 401.5921325683594 102.99273681640625 398.2643737792969 C 100.82302856445312 394.1614685058594 94.62571716308594 393.6199951171875 90.83457946777344 396.31207275390625 C 87.04344177246094 399.004150390625 85.34516906738281 403.8250732421875 84.87530517578125 408.4451904296875 C 84.5865478515625 409.8608093261719 84.83895874023438 411.3331604003906 85.58273315429688 412.57177734375 C 86.43936157226562 413.7059326171875 88.49142456054688 413.97412109375 89.19699096679688 412.732177734375 L 90.60317993164062 413.65057373046875" stroke-width="0.6000000238418579" fill="rgb(159, 159, 159)" opacity="1.0"/>
    <path d="M 476.20220947265625 65.4803466796875 C 477.802734375 62.29595947265625 478.34716796875 58.49383544921875 477.21075439453125 55.117828369140625 C 476.0743408203125 51.7418212890625 473.1131591796875 48.918975830078125 469.57318115234375 48.40455627441406 C 467.0699462890625 48.044036865234375 464.4849853515625 48.838226318359375 462.387451171875 50.255340576171875 C 460.2900390625 51.67247009277344 458.6402587890625 53.670074462890625 457.30291748046875 55.81980895996094 C 456.72149658203125 56.75567626953125 456.1793212890625 57.77940368652344 456.18927001953125 58.87828063964844 C 456.2000732421875 60.13812255859375 456.9322509765625 61.26409912109375 457.6884765625 62.276611328125 C 459.8233642578125 65.13510131835938 462.47772216796875 67.7752685546875 465.84423828125 68.95790100097656 C 469.2108154296875 70.14053344726562 473.39117431640625 69.52639770507812 475.6527099609375 66.77784729003906 L 476.20220947265625 65.4803466796875" stroke-width="0.6000000238418579" fill="rgb(159, 159, 159)" opacity="1.0"/>
    <path d="M 89.35714721679688 105.9766845703125 C 92.9263916015625 106.52249145507812 96.91743469238281 106.97454833984375 99.84268188476562 104.86988830566406 C 102.69036865234375 102.82711791992188 103.58737182617188 99.054931640625 104.21482849121094 95.6053466796875 C 104.4676513671875 94.20362854003906 104.70980834960938 92.73318481445312 104.26980590820312 91.37934875488281 C 103.52694702148438 89.08914184570312 101.09503173828125 87.81813049316406 98.78555297851562 87.15013122558594 C 96.6422119140625 86.529296875 94.42080688476562 86.21943664550781 92.18939208984375 86.23004150390625 C 88.566162109375 86.24595642089844 84.51861572265625 87.44174194335938 82.87570190429688 90.66966247558594 C 81.9862060546875 92.4110107421875 81.95672607421875 94.50076293945312 82.41146850585938 96.40560913085938 C 82.8662109375 98.31047058105469 83.77583312988281 100.07313537597656 84.69863891601562 101.80047607421875 C 85.62142944335938 103.52780151367188 86.565185546875 105.20530700683594 88.07881164550781 106.37301635742188 L 89.35714721679688 105.9766845703125" stroke-width="0.6000000238418579" fill="rgb(218, 166, 20)" opacity="1.0"/>
    <path d="M 125.48631286621094 132.8377685546875 C 131.82257080078125 131.67213439941406 136.0142059326172 125.59063720703125 134.84857177734375 119.25436401367188 C 134.74876403808594 118.7117919921875 134.61056518554688 118.17698669433594 134.43507385253906 117.65396118164062 C 133.76785278320312 115.66670227050781 132.47927856445312 113.80007934570312 130.59530639648438 112.88313293457031 C 129.0032958984375 112.10809326171875 127.15692138671875 112.0748291015625 125.3946533203125 112.23443603515625 C 120.67813110351562 112.668212890625 116.16378784179688 114.35693359375 112.320556640625 117.12521362304688 C 111.305908203125 117.858642578125 110.31822204589844 118.69464111328125 109.7322998046875 119.80409240722656 C 108.74755859375 121.66604614257812 109.08332824707031 123.99484252929688 110.01632690429688 125.88491821289062 C 111.39952087402344 128.69198608398438 113.9986572265625 130.80422973632812 116.92805480957031 131.9069061279297 C 119.85745239257812 133.0095977783203 123.09043884277344 133.16067504882812 126.18069458007812 132.66485595703125 L 125.48631286621094 132.8377685546875" stroke-width="0.6000000238418579" fill="rgb(143, 165, 67)" opacity="1.0"/>
    <path d="M 391.23919677734375 307.3775634765625 C 394.793701171875 314.0801086425781 406.2706298828125 313.6694641113281 409.81597900390625 307.0173645019531 C 413.361328125 300.3652648925781 407.84588623046875 290.9366149902344 400.2923889160156 290.2032470703125 C 392.7388610839844 289.4698486328125 385.68035888671875 296.8709411621094 386.22015380859375 304.4477844238281 L 391.23919677734375 307.3775634765625" stroke-width="0.6000000238418579" fill="rgb(233, 92, 21)" opacity="1.0"/>
    <path d="M 122.1993408203125 108.56710815429688 C 125.55607604980469 107.28172302246094 129.43247985839844 105.39814758300781 129.9100341796875 101.82321166992188 C 130.04470825195312 100.39315795898438 129.73233032226562 98.95651245117188 129.0159149169922 97.71153259277344 C 127.32623291015625 94.58340454101562 124.22518920898438 92.46829223632812 120.6961669921875 92.03694152832031 C 117.70162963867188 91.67869567871094 114.7437744140625 92.61013793945312 111.90641784667969 93.57655334472656 C 110.31344604492188 94.12200927734375 108.63833618164062 94.75228881835938 107.61776733398438 96.07989501953125 C 106.27194213867188 97.86062622070312 106.48672485351562 100.35745239257812 107.01040649414062 102.52655029296875 C 107.77285766601562 105.70198059082031 109.04425048828125 108.73306274414062 110.77528381347656 111.50224304199219 C 111.37522888183594 112.4578857421875 112.067138671875 113.41775512695312 113.06697082519531 113.93988037109375 C 114.02145385742188 114.3778076171875 115.08273315429688 114.528564453125 116.12142944335938 114.37373352050781 C 119.2904052734375 114.02667236328125 122.14761352539062 112.30693054199219 123.93777465820312 109.66908264160156 L 122.1993408203125 108.56710815429688" stroke-width="0.6000000238418579" fill="rgb(70, 150, 179)" opacity="1.0"/>
    <path d="M 422.3961181640625 66.558349609375 C 424.09539794921875 69.89016723632812 426.1187744140625 73.51187133789062 429.6533203125 74.72750854492188 C 433.450927734375 76.03109741210938 437.71685791015625 73.9490966796875 440.30865478515625 70.882568359375 C 441.3084716796875 69.70068359375 442.156494140625 68.31298828125 442.3157958984375 66.7733154296875 C 442.4471435546875 65.50765991210938 442.10626220703125 64.24406433105469 441.7020263671875 63.037872314453125 C 440.431640625 59.23255920410156 438.291748046875 55.414825439453125 434.6876220703125 53.65484619140625 C 431.053955078125 51.883575439453125 426.305419921875 52.734130859375 423.5269775390625 55.67524719238281 C 420.7486572265625 58.616363525390625 420.1246337890625 63.39385986328125 422.08465576171875 66.93641662597656 L 422.3961181640625 66.558349609375" stroke-width="0.6000000238418579" fill="rgb(140, 28, 33)" opacity="1.0"/>
    <path d="M 113.21926879882812 423.2935791015625 C 114.92192077636719 420.1368408203125 116.65884399414062 416.8333740234375 116.88490295410156 413.251220703125 C 117.11094665527344 409.669189453125 115.36288452148438 405.6873779296875 111.98341369628906 404.4802551269531 C 107.80850219726562 402.99951171875 103.10488891601562 406.6227722167969 102.18064880371094 410.9632263183594 C 101.25640869140625 415.3037109375 103.17776489257812 419.7877197265625 105.8323974609375 423.3370361328125 C 106.54408264160156 424.51806640625 107.67259216308594 425.389404296875 108.99526977539062 425.779052734375 C 110.32981872558594 426.0224609375 111.94471740722656 424.8851318359375 111.63804626464844 423.55682373046875 L 113.21926879882812 423.2935791015625" stroke-width="0.6000000238418579" fill="rgb(159, 159, 159)" opacity="1.0"/>
    <path d="M 463.2603759765625 443.0135498046875 C 463.75860595703125 440.4169921875 463.37799072265625 437.59320068359375 461.884033203125 435.41357421875 C 460.3900146484375 433.23388671875 457.70550537109375 431.818115234375 455.0748291015625 432.1671142578125 C 453.2152099609375 432.4161376953125 451.53094482421875 433.505859375 450.320556640625 434.941650390625 C 449.1102294921875 436.37738037109375 448.33685302734375 438.1368408203125 447.8172607421875 439.94171142578125 C 447.591552734375 440.727294921875 447.41168212890625 441.567626953125 447.64105224609375 442.34991455078125 C 447.90362548828125 443.2469482421875 448.65399169921875 443.9024658203125 449.3985595703125 444.47210693359375 C 451.50048828125 446.0804443359375 453.9290771484375 447.4278564453125 456.57110595703125 447.5909423828125 C 459.213134765625 447.75396728515625 462.07257080078125 446.469970703125 463.13067626953125 444.05078125 L 463.2603759765625 443.0135498046875" stroke-width="0.6000000238418579" fill="rgb(159, 159, 159)" opacity="1.0"/>
    <path d="M 452.7861328125 286.2181091308594 C 454.6663818359375 283.0888977050781 456.620849609375 279.5292053222656 455.7747802734375 275.9852600097656 C 454.95684814453125 272.53759765625 451.7725830078125 270.25091552734375 448.78668212890625 268.3401794433594 C 447.572509765625 267.56573486328125 446.2900390625 266.7749328613281 444.85479736328125 266.6669616699219 C 442.427490234375 266.4829406738281 440.3052978515625 268.26995849609375 438.794189453125 270.1738586425781 C 437.390869140625 271.94049072265625 436.24853515625 273.8994445800781 435.402099609375 275.99078369140625 C 434.02655029296875 279.38604736328125 433.591796875 283.6309814453125 435.980712890625 286.4065246582031 C 437.2681884765625 287.90679931640625 439.2115478515625 288.7363586425781 441.1678466796875 289.0420227050781 C 443.12420654296875 289.34765625 445.1220703125 289.1732482910156 447.0919189453125 288.97296142578125 C 449.061767578125 288.7726745605469 450.99310302734375 288.5336608886719 452.666259765625 287.5659484863281 L 452.7861328125 286.2181091308594" stroke-width="0.6000000238418579" fill="rgb(218, 166, 20)" opacity="1.0"/>
    <path d="M 425.2974853515625 360.16900634765625 C 425.6048583984375 365.64105224609375 430.28997802734375 369.8279113769531 435.7620849609375 369.52056884765625 C 436.2305908203125 369.4942626953125 436.69677734375 369.4347229003906 437.1568603515625 369.3424377441406 C 438.9052734375 368.991455078125 440.6182861328125 368.10321044921875 441.59326171875 366.611083984375 C 442.41729736328125 365.3502197265625 442.6424560546875 363.79547119140625 442.6959228515625 362.2911376953125 C 442.8333740234375 358.2642517089844 441.8900146484375 354.27398681640625 439.9639892578125 350.73486328125 C 439.4532470703125 349.80023193359375 438.8531494140625 348.8774108886719 437.9793701171875 348.2644958496094 C 436.5130615234375 347.234619140625 434.51177978515625 347.2693786621094 432.8170166015625 347.85504150390625 C 430.30029296875 348.7227478027344 428.2401123046875 350.69085693359375 426.99676513671875 353.04547119140625 C 425.75341796875 355.4000549316406 425.28076171875 358.11248779296875 425.36932373046875 360.77349853515625 L 425.2974853515625 360.16900634765625" stroke-width="0.6000000238418579" fill="rgb(143, 165, 67)" opacity="1.0"/>
    <path d="M 450.3519287109375 345.8858642578125 C 456.2725830078125 341.947509765625 454.82244873046875 331.28167724609375 448.2886962890625 328.5935974121094 C 441.7548828125 325.9055480957031 433.4739990234375 331.92626953125 433.492431640625 339.0392761230469 C 433.5107421875 346.15228271484375 441.0697021484375 352.04730224609375 448.086181640625 350.8393249511719 L 450.3519287109375 345.8858642578125" stroke-width="0.6000000238418579" fill="rgb(233, 92, 21)" opacity="1.0"/>
    <path d="M 453.58343505859375 74.20103454589844 C 456.2802734375 72.442626953125 459.3194580078125 70.06245422363281 459.0635986328125 66.84213256835938 C 458.911865234375 65.56454467773438 458.367431640625 64.36550903320312 457.50537109375 63.410430908203125 C 455.4361572265625 60.989959716796875 452.322021484375 59.722625732421875 449.15057373046875 60.010284423828125 C 446.4609375 60.26121520996094 444.046630859375 61.63447570800781 441.744384765625 63.01567077636719 C 440.452392578125 63.79362487792969 439.10443115234375 64.66133117675781 438.46112060546875 66.0162353515625 C 437.618408203125 67.8292236328125 438.27728271484375 69.97500610351562 439.144775390625 71.77557373046875 C 440.4111328125 74.41229248046875 442.09588623046875 76.82666015625 444.1336669921875 78.92501831054688 C 444.8392333984375 79.648681640625 445.62603759765625 80.35871887207031 446.5999755859375 80.62739562988281 C 447.518310546875 80.83090209960938 448.47601318359375 80.76278686523438 449.3563232421875 80.43138122558594 C 452.065673828125 79.52999877929688 454.2432861328125 77.48544311523438 455.31341552734375 74.83816528320312 L 453.58343505859375 74.20103454589844" stroke-width="0.6000000238418579" fill="rgb(70, 150, 179)" opacity="1.0"/>
    <path d="M 449.3470458984375 396.2364807128906 C 449.6343994140625 392.20208740234375 449.783447265625 387.71820068359375 447.18939208984375 384.618408203125 C 444.4007568359375 381.29022216796875 439.28759765625 380.83563232421875 435.17486572265625 382.22772216796875 C 433.58892822265625 382.7637939453125 432.02850341796875 383.57513427734375 431.0211181640625 384.9119567871094 C 430.19256591796875 386.0105895996094 429.802490234375 387.3711242675781 429.503173828125 388.7138671875 C 428.55419921875 392.9471435546875 428.403564453125 397.67767333984375 430.75811767578125 401.3204040527344 C 433.1336669921875 404.9900817871094 438.0059814453125 406.8545837402344 442.221435546875 405.6828308105469 C 446.4368896484375 404.5110778808594 449.68310546875 400.43548583984375 449.8466796875 396.06036376953125 L 449.3470458984375 396.2364807128906" stroke-width="0.6000000238418579" fill="rgb(140, 28, 33)" opacity="1.0"/>
    <path d="M 126.99209594726562 217.815673828125 C 122.81900024414062 220.25637817382812 118.50357055664062 222.84207153320312 115.73226928710938 226.8076171875 C 112.96102905273438 230.7730712890625 112.18228149414062 236.5826416015625 115.22679138183594 240.34133911132812 C 118.99526977539062 244.97265625 126.9503173828125 244.0985107421875 131.05702209472656 239.74932861328125 C 135.16372680664062 235.400146484375 136.094970703125 228.8909912109375 135.52682495117188 222.94384765625 C 135.535400390625 221.08523559570312 134.84698486328125 219.291015625 133.59735107421875 217.91522216796875 C 132.23155212402344 216.69949340820312 129.5751190185547 216.87680053710938 128.99700927734375 218.62106323242188 L 126.99209594726562 217.815673828125" stroke-width="0.6000000238418579" fill="rgb(159, 159, 159)" opacity="1.0"/>
    <path d="M 109.94087219238281 232.267822265625 C 105.29843139648438 229.4344482421875 99.58407592773438 228.12994384765625 94.30712890625 229.43511962890625 C 89.03019714355469 230.74026489257812 84.36582946777344 234.88998413085938 83.13975524902344 240.20941162109375 C 82.27767944335938 243.971435546875 83.16154479980469 248.00238037109375 85.05390930175781 251.3699951171875 C 86.94627380371094 254.73760986328125 89.77761840820312 257.4970703125 92.87945556640625 259.80047607421875 C 94.22990417480469 260.80206298828125 95.71893310546875 261.7549133300781 97.39143371582031 261.8775634765625 C 99.30886840820312 262.0190734863281 101.11309814453125 261.0466003417969 102.74778747558594 260.0234375 C 107.36279296875 257.134765625 111.71089172363281 253.42877197265625 113.93148803710938 248.45693969726562 C 116.152099609375 243.48507690429688 115.74205017089844 237.05023193359375 111.84532165527344 233.26617431640625 L 109.94087219238281 232.267822265625" stroke-width="0.6000000238418579" fill="rgb(159, 159, 159)" opacity="1.0"/>
    <path d="M 301.4337158203125 99.25984191894531 C 300.2281494140625 103.78875732421875 299.08428955078125 108.87507629394531 301.38916015625 112.94525146484375 C 303.6250915527344 116.90664672851562 308.3665466308594 118.59390258789062 312.72955322265625 119.88803100585938 C 314.50274658203125 120.4111328125 316.3661193847656 120.93011474609375 318.1748352050781 120.55250549316406 C 321.23431396484375 119.91561889648438 323.2159423828125 116.95613098144531 324.4022216796875 114.06993103027344 C 325.5043640136719 111.3914794921875 326.2161865234375 108.56863403320312 326.5158996582031 105.68782043457031 C 327.0042419433594 101.0103759765625 326.0297546386719 95.61972045898438 322.0953674316406 93.04641723632812 C 319.9733581542969 91.65408325195312 317.281005859375 91.32254028320312 314.75921630859375 91.64178466796875 C 312.2374267578125 91.96102905273438 309.8352355957031 92.88717651367188 307.4767761230469 93.83531188964844 C 305.1183166503906 94.78343200683594 302.8211975097656 95.76559448242188 301.1018371582031 97.5546875 L 301.4337158203125 99.25984191894531" stroke-width="0.6000000238418579" fill="rgb(218, 166, 20)" opacity="1.0"/>
    <path d="M 222.28167724609375 120.00578308105469 C 217.27398681640625 112.5634765625 207.18121337890625 110.58985900878906 199.7388916015625 115.59757995605469 C 199.10162353515625 116.02639770507812 198.49557495117188 116.4998779296875 197.92529296875 117.01446533203125 C 195.7586669921875 118.97015380859375 194.09121704101562 121.65216064453125 193.96697998046875 124.56683349609375 C 193.86175537109375 127.0299072265625 194.8448486328125 129.40573120117188 196.02749633789062 131.5670166015625 C 199.20111083984375 137.3478546142578 203.86471557617188 142.17349243164062 209.5338134765625 145.54266357421875 C 211.0338134765625 146.4307098388672 212.6497802734375 147.22735595703125 214.3917236328125 147.3591766357422 C 217.31591796875 147.5821990966797 220.1026611328125 145.8599853515625 221.99761962890625 143.61892700195312 C 224.81317138671875 140.2937469482422 226.06625366210938 135.8020782470703 225.84695434570312 131.44949340820312 C 225.62765502929688 127.09693908691406 224.02474975585938 122.88533020019531 221.67523193359375 119.21527099609375 L 222.28167724609375 120.00578308105469" stroke-width="0.6000000238418579" fill="rgb(143, 165, 67)" opacity="1.0"/>
    <path d="M 223.32342529296875 89.79849243164062 C 223.41412353515625 99.6805419921875 236.931640625 106.08842468261719 245.02053833007812 100.52249145507812 C 253.10943603515625 94.95654296875 252.38607788085938 80.74618530273438 244.0914306640625 75.36830139160156 C 235.79681396484375 69.99041748046875 223.19635009765625 74.31559753417969 219.27667236328125 83.4007568359375 L 223.32342529296875 89.79849243164062" stroke-width="0.6000000238418579" fill="rgb(233, 92, 21)" opacity="1.0"/>
    <path d="M 196.36968994140625 99.88125610351562 C 194.60174560546875 95.02996826171875 191.98681640625 89.4183349609375 186.86328125 88.64901733398438 C 184.8123779296875 88.42221069335938 182.74166870117188 88.83737182617188 180.936767578125 89.83731079101562 C 176.4044189453125 92.19122314453125 173.29412841796875 96.59593200683594 172.59222412109375 101.65464782714844 C 172.0078125 105.94735717773438 173.27667236328125 110.21743774414062 174.59854125976562 114.3153076171875 C 175.34481811523438 116.61604309082031 176.21099853515625 119.03671264648438 178.09402465820312 120.53353881835938 C 180.62030029296875 122.50808715820312 184.2115478515625 122.25784301757812 187.3392333984375 121.5562744140625 C 191.91790771484375 120.53524780273438 196.3011474609375 118.77984619140625 200.31890869140625 116.358154296875 C 201.70550537109375 115.51875305175781 203.10028076171875 114.54733276367188 203.87356567382812 113.12347412109375 C 204.52484130859375 111.76275634765625 204.76611328125 110.241943359375 204.56796264648438 108.7464599609375 C 204.14340209960938 104.18675231933594 201.739990234375 100.04280090332031 197.99298095703125 97.4100341796875 L 196.36968994140625 99.88125610351562" stroke-width="0.6000000238418579" fill="rgb(70, 150, 179)" opacity="1.0"/>
    <path d="M 266.24102783203125 133.08627319335938 C 263.2429504394531 137.39633178710938 260.1007995605469 142.29959106445312 260.9374694824219 147.4793243408203 C 261.839599609375 153.04299926757812 267.2420654296875 156.943603515625 272.754150390625 158.12014770507812 C 274.8791809082031 158.57464599609375 277.158447265625 158.70513916015625 279.16949462890625 157.88238525390625 C 280.8229675292969 157.2066650390625 282.1610412597656 155.94772338867188 283.3861389160156 154.6483917236328 C 287.2543640136719 150.55560302734375 290.5619201660156 145.37823486328125 290.35284423828125 139.7517852783203 C 290.13818359375 134.08132934570312 285.94012451171875 128.76763916015625 280.4596862792969 127.27713012695312 C 274.9792175292969 125.78660583496094 268.6529846191406 128.17889404296875 265.5668029785156 132.95120239257812 L 266.24102783203125 133.08627319335938" stroke-width="0.6000000238418579" fill="rgb(140, 28, 33)" opacity="1.0"/>
    <path d="M 307.0729675292969 123.75602722167969 C 302.36236572265625 123.95661926269531 297.46295166015625 124.21728515625 293.2652587890625 126.37168884277344 C 289.0676574707031 128.5260772705078 285.7465515136719 133.17893981933594 286.6566467285156 137.80772399902344 C 287.7928161621094 143.51895141601562 295.049072265625 146.39376831054688 300.5729064941406 144.51773071289062 C 306.09674072265625 142.64169311523438 309.8684387207031 137.4552764892578 312.0912170410156 132.06948852539062 C 312.94635009765625 130.47120666503906 313.1712646484375 128.61053466796875 312.7215576171875 126.85458374023438 C 312.09869384765625 125.18360900878906 309.7278747558594 124.12481689453125 308.4339294433594 125.36477661132812 L 307.0729675292969 123.75602722167969" stroke-width="0.6000000238418579" fill="rgb(159, 159, 159)" opacity="1.0"/>
    <path d="M 195.518798828125 133.04127502441406 C 192.16021728515625 128.68624877929688 187.236328125 125.3870849609375 181.78134155273438 124.71037292480469 C 176.32635498046875 124.03366088867188 170.42068481445312 126.26455688476562 167.33843994140625 130.8439178466797 C 165.16339111328125 134.08433532714844 164.53964233398438 138.21035766601562 165.108154296875 142.07489013671875 C 165.67669677734375 145.93943786621094 167.35186767578125 149.56942749023438 169.44747924804688 152.86663818359375 C 170.36029052734375 154.30096435546875 171.42156982421875 155.7394256591797 172.95648193359375 156.4603271484375 C 174.7158203125 157.28762817382812 176.7713623046875 157.02212524414062 178.68505859375 156.64739990234375 C 184.08792114257812 155.58938598632812 189.534423828125 153.66305541992188 193.42999267578125 149.771728515625 C 197.3255615234375 145.88040161132812 199.26641845703125 139.6558837890625 196.95590209960938 134.67298889160156 L 195.518798828125 133.04127502441406" stroke-width="0.6000000238418579" fill="rgb(159, 159, 159)" opacity="1.0"/>
    <path d="M 282.3354187011719 97.89202880859375 C 278.1996154785156 100.79324340820312 273.7281494140625 104.19723510742188 272.8073425292969 109.15449523925781 C 271.9050598144531 113.97419738769531 274.6476135253906 118.65489196777344 277.3504943847656 122.74873352050781 C 278.4509582519531 124.41018676757812 279.6286926269531 126.13076782226562 281.3831787109375 127.07356262207031 C 284.3495788574219 128.66986083984375 288.037353515625 127.60197448730469 291.01800537109375 126.04299926757812 C 293.78509521484375 124.59707641601562 296.3302307128906 122.76129150390625 298.57550048828125 120.59187316894531 C 302.22247314453125 117.0706787109375 305.15692138671875 111.94638061523438 303.69488525390625 107.09423828125 C 302.909423828125 104.47357177734375 300.9176025390625 102.33273315429688 298.61517333984375 100.84722900390625 C 296.312744140625 99.36172485351562 293.6881103515625 98.45999145507812 291.0843200683594 97.60671997070312 C 288.48052978515625 96.75344848632812 285.9037780761719 95.97079467773438 283.244140625 96.2547607421875 L 282.3354187011719 97.89202880859375" stroke-width="0.6000000238418579" fill="rgb(218, 166, 20)" opacity="1.0"/>
    <path d="M 236.10906982421875 117.72918701171875 C 235.1300048828125 126.09877014160156 241.1212158203125 133.67733764648438 249.49081420898438 134.65640258789062 C 250.20751953125 134.740234375 250.92922973632812 134.7731170654297 251.65057373046875 134.75482177734375 C 254.39154052734375 134.6847686767578 257.2206115722656 133.79156494140625 259.09130859375 131.78884887695312 C 260.67236328125 130.09657287597656 261.42388916015625 127.80107116699219 261.9019470214844 125.53659057617188 C 263.17315673828125 119.47335815429688 262.7977294921875 113.18034362792969 260.8146667480469 107.31124877929688 C 260.2878723144531 105.7607421875 259.62249755859375 104.20455932617188 258.4607849121094 103.04547119140625 C 256.51165771484375 101.09844970703125 253.47119140625 100.622802734375 250.74951171875 101.06245422363281 C 246.7083740234375 101.71237182617188 243.068359375 104.14958190917969 240.56344604492188 107.38783264160156 C 238.05853271484375 110.62608337402344 236.6265869140625 114.60977172851562 236.0582275390625 118.66377258300781 L 236.10906982421875 117.72918701171875" stroke-width="0.6000000238418579" fill="rgb(143, 165, 67)" opacity="1.0"/>
    <path d="M 252.87347412109375 88.71072387695312 C 252.2359619140625 99.26461791992188 266.1870422363281 107.10824584960938 275.2339782714844 101.768798828125 C 284.2808837890625 96.4293212890625 284.5648193359375 81.20880126953125 276.111572265625 74.85260009765625 C 267.6582946777344 68.49639892578125 253.88836669921875 72.17633056640625 249.02978515625 81.58169555664062 L 252.87347412109375 88.71072387695312" stroke-width="0.6000000238418579" fill="rgb(233, 92, 21)" opacity="1.0"/>
    <path d="M 340.88323974609375 80.06591796875 C 336.8560485839844 77.34913635253906 331.7637023925781 74.52154541015625 327.4374084472656 76.76731872558594 C 325.7505187988281 77.72805786132812 324.4032897949219 79.18856811523438 323.5816345214844 80.94741821289062 C 321.4315490722656 85.24453735351562 321.49761962890625 90.31723022460938 323.7589111328125 94.556884765625 C 325.6863098144531 98.14837646484375 329.0122985839844 100.69844055175781 332.2834777832031 103.08807373046875 C 334.12322998046875 104.42742919921875 336.1205139160156 105.7918701171875 338.3815002441406 105.89088439941406 C 341.39630126953125 105.9981689453125 343.9924011230469 103.82293701171875 345.98614501953125 101.56022644042969 C 348.9081115722656 98.25238037109375 351.2754211425781 94.49337768554688 352.9962158203125 90.42906188964844 C 353.5881042480469 89.02362060546875 354.1132507324219 87.51312255859375 353.9151306152344 86.00163269042969 C 353.6590270996094 84.60565185546875 353.0022277832031 83.3143310546875 352.02490234375 82.28517150878906 C 349.1816711425781 79.04798889160156 345.0615234375 77.22100830078125 340.7535095214844 77.28717041015625 L 340.88323974609375 80.06591796875" stroke-width="0.6000000238418579" fill="rgb(70, 150, 179)" opacity="1.0"/>
    <path d="M 334.2242126464844 136.68348693847656 C 332.9621276855469 131.8284149169922 331.3593444824219 126.49993896484375 327.0816955566406 123.88575744628906 C 322.4848327636719 121.08029174804688 316.29571533203125 122.57354736328125 312.0145263671875 125.84031677246094 C 310.3633117675781 127.09915161132812 308.85125732421875 128.67138671875 308.1974792480469 130.641845703125 C 307.6593933105469 132.261474609375 307.7405090332031 134.01498413085938 307.92120361328125 135.711669921875 C 308.4845886230469 141.0628204345703 310.183349609375 146.68173217773438 314.3947448730469 150.0289764404297 C 318.64154052734375 153.39955139160156 325.106689453125 153.65869140625 329.5960388183594 150.61012268066406 C 334.0853576660156 147.56155395507812 336.2840881347656 141.48484802246094 334.7414855957031 136.2783966064453 L 334.2242126464844 136.68348693847656" stroke-width="0.6000000238418579" fill="rgb(140, 28, 33)" opacity="1.0"/>
    <path d="M 346.6343078613281 107.1207275390625 C 341.8537292480469 106.22882080078125 336.86944580078125 105.35342407226562 332.1507568359375 106.54409790039062 C 327.4321594238281 107.73478698730469 323.0144348144531 111.63983154296875 322.85455322265625 116.50289916992188 C 322.67059326171875 122.50627136230469 329.2955627441406 127.079833984375 335.2823486328125 126.47674560546875 C 341.2691650390625 125.87367248535156 346.2635498046875 121.53701782226562 349.7476501464844 116.64044189453125 C 350.97802734375 115.23272705078125 351.6360168457031 113.41500854492188 351.5916748046875 111.54592895507812 C 351.3536071777344 109.72207641601562 349.216796875 108.107666015625 347.62860107421875 109.05340576171875 L 346.6343078613281 107.1207275390625" stroke-width="0.6000000238418579" fill="rgb(159, 159, 159)" opacity="1.0"/>
    <path d="M 346.5707092285156 123.46038818359375 C 342.1804504394531 124.66014099121094 338.1056213378906 127.39019775390625 335.8707275390625 131.35218811035156 C 333.6358337402344 135.3141632080078 333.48443603515625 140.53627014160156 336.01910400390625 144.33663940429688 C 337.8145446777344 147.02125549316406 340.7760925292969 148.7973175048828 343.9127502441406 149.5785675048828 C 347.0494384765625 150.35983276367188 350.35491943359375 150.22027587890625 353.53802490234375 149.65420532226562 C 354.923095703125 149.40704345703125 356.35809326171875 149.04754638671875 357.3929443359375 148.09970092773438 C 358.57989501953125 147.0135955810547 359.0236511230469 145.35684204101562 359.3392028808594 143.77420043945312 C 360.2300109863281 139.30612182617188 360.4700012207031 134.53131103515625 358.7179260253906 130.3250274658203 C 356.9658203125 126.11874389648438 352.8127746582031 122.67411804199219 348.2718811035156 122.87408447265625 L 346.5707092285156 123.46038818359375" stroke-width="0.6000000238418579" fill="rgb(159, 159, 159)" opacity="1.0"/>
    <path d="M 360.50054931640625 104.49418640136719 C 356.2735900878906 104.48953247070312 351.5749206542969 104.66746520996094 348.5589599609375 107.6173095703125 C 345.6219177246094 110.48191833496094 345.2464294433594 115.00546264648438 345.126220703125 119.10826110839844 C 345.0798645019531 120.77503967285156 345.05792236328125 122.51947021484375 345.8050231933594 124.00910949707031 C 347.0671691894531 126.529296875 350.10516357421875 127.57315063476562 352.8955383300781 127.9405517578125 C 355.4853210449219 128.28256225585938 358.1108093261719 128.2509307861328 360.6916198730469 127.84663391113281 C 364.88238525390625 127.19168090820312 369.35693359375 125.09658813476562 370.6913757324219 121.07196044921875 C 371.41497802734375 118.90023803710938 371.0819396972656 116.47636413574219 370.2209777832031 114.3515625 C 369.3599853515625 112.22677612304688 367.9975280761719 110.34646606445312 366.6260070800781 108.50935363769531 C 365.2545166015625 106.6722412109375 363.86749267578125 104.896484375 361.91046142578125 103.81088256835938 L 360.50054931640625 104.49418640136719" stroke-width="0.6000000238418579" fill="rgb(218, 166, 20)" opacity="1.0"/>
    <path d="M 430.0517578125 143.3572235107422 C 421.8072509765625 145.2999725341797 416.69866943359375 153.55838012695312 418.64141845703125 161.80291748046875 C 418.8077392578125 162.50888061523438 419.0240478515625 163.2021484375 419.2884521484375 163.8775634765625 C 420.29388427734375 166.44366455078125 422.10736083984375 168.81097412109375 424.640869140625 169.89251708984375 C 426.78179931640625 170.80670166015625 429.20849609375 170.73028564453125 431.51220703125 170.40606689453125 C 437.6773681640625 169.52972412109375 443.4954833984375 167.01858520507812 448.362060546875 163.133544921875 C 449.646728515625 162.10443115234375 450.8892822265625 160.94241333007812 451.5865478515625 159.44744873046875 C 452.758544921875 156.93841552734375 452.1661376953125 153.90228271484375 450.818115234375 151.48101806640625 C 448.8192138671875 147.88494873046875 445.268798828125 145.28036499023438 441.3504638671875 144.02293395996094 C 437.4320068359375 142.76548767089844 433.1768798828125 142.7773895263672 429.1512451171875 143.6294403076172 L 430.0517578125 143.3572235107422" stroke-width="0.6000000238418579" fill="rgb(143, 165, 67)" opacity="1.0"/>
    <path d="M 145.4755401611328 411.4956359863281 C 146.3599395751953 421.29962158203125 160.29571533203125 426.5750732421875 167.8792724609375 420.3988037109375 C 175.46282958984375 414.22247314453125 173.6024169921875 400.1720275878906 164.93487548828125 395.4993896484375 C 156.26739501953125 390.8267822265625 144.10479736328125 396.13385009765625 140.9435272216797 405.468994140625 L 145.4755401611328 411.4956359863281" stroke-width="0.6000000238418579" fill="rgb(233, 92, 21)" opacity="1.0"/>
    <path d="M 434.57080078125 192.65057373046875 C 429.817626953125 191.68307495117188 424.03955078125 191.02032470703125 420.9066162109375 194.74505615234375 C 419.717529296875 196.27587890625 419.03271484375 198.13800048828125 418.94677734375 200.074462890625 C 418.60516357421875 204.860107421875 420.6043701171875 209.51446533203125 424.310302734375 212.56158447265625 C 427.4605712890625 215.1383056640625 431.503173828125 216.21994018554688 435.4339599609375 217.17449951171875 C 437.642822265625 217.7071533203125 440.0067138671875 218.20269775390625 442.13031005859375 217.43014526367188 C 444.95245361328125 216.377197265625 446.5162353515625 213.37860107421875 447.490966796875 210.52947998046875 C 448.922607421875 206.36151123046875 449.670166015625 201.98931884765625 449.7047119140625 197.58242797851562 C 449.7137451171875 196.05975341796875 449.62109375 194.46566772460938 448.8607177734375 193.14700317382812 C 448.091064453125 191.95706176757812 446.9918212890625 191.01678466796875 445.697021484375 190.4407958984375 C 441.83721923828125 188.54083251953125 437.3382568359375 188.4296875 433.389404296875 190.13674926757812 L 434.57080078125 192.65057373046875" stroke-width="0.6000000238418579" fill="rgb(70, 150, 179)" opacity="1.0"/>
    <path d="M 408.7093811035156 158.93267822265625 C 408.1954650878906 154.0641632080078 407.4214172363281 148.68939208984375 403.67230224609375 145.54617309570312 C 399.6429138183594 142.17205810546875 393.4534606933594 142.715576171875 388.8480224609375 145.24737548828125 C 387.07196044921875 146.22276306152344 385.38470458984375 147.5207977294922 384.468017578125 149.32760620117188 C 383.7138366699219 150.8126220703125 383.537841796875 152.5166473388672 383.4661560058594 154.18026733398438 C 383.2337951660156 159.42620849609375 384.058349609375 165.09515380859375 387.63720703125 168.93621826171875 C 391.2468566894531 172.804931640625 397.4485778808594 173.99264526367188 402.22320556640625 171.70159912109375 C 406.997802734375 169.41058349609375 410.0009765625 163.86505126953125 409.267333984375 158.61676025390625 L 408.7093811035156 158.93267822265625" stroke-width="0.6000000238418579" fill="rgb(140, 28, 33)" opacity="1.0"/>
    <path d="M 143.02792358398438 130.21519470214844 C 138.51365661621094 132.38558959960938 133.84024047851562 134.69378662109375 130.64566040039062 138.5564422607422 C 127.45114135742188 142.41905212402344 126.15957641601562 148.35317993164062 128.98828125 152.49017333984375 C 132.49142456054688 157.58905029296875 140.7798309326172 157.35369873046875 145.38565063476562 153.20687866210938 C 149.99147033691406 149.06005859375 151.4992218017578 142.4162139892578 151.41143798828125 136.2270050048828 C 151.5762176513672 134.30836486816406 151.01580810546875 132.39773559570312 149.84075927734375 130.8721466064453 C 148.5323028564453 129.5020751953125 145.77415466308594 129.4623260498047 145.03082275390625 131.21510314941406 L 143.02792358398438 130.21519470214844" stroke-width="0.6000000238418579" fill="rgb(159, 159, 159)" opacity="1.0"/>
    <path d="M 427.2508544921875 172.18792724609375 C 423.008544921875 169.9605712890625 417.9107666015625 169.13815307617188 413.345703125 170.585205078125 C 408.7806701660156 172.0322265625 404.9156494140625 175.94525146484375 404.1397705078125 180.69140625 C 403.5954895019531 184.04766845703125 404.60137939453125 187.541259765625 406.45623779296875 190.3944091796875 C 408.31109619140625 193.24758911132812 410.9569396972656 195.51278686523438 413.814697265625 197.3616943359375 C 415.05877685546875 198.16552734375 416.42193603515625 198.918701171875 417.8992919921875 198.93157958984375 C 419.593017578125 198.94708251953125 421.12396240234375 197.98971557617188 422.50299072265625 196.99737548828125 C 426.396240234375 194.19580078125 430.0084228515625 190.69085693359375 431.6783447265625 186.19384765625 C 433.3482666015625 181.69677734375 432.6224365234375 176.06292724609375 428.9818115234375 172.95745849609375 L 427.2508544921875 172.18792724609375" stroke-width="0.6000000238418579" fill="rgb(159, 159, 159)" opacity="1.0"/>
    <path d="M 407.94140625 188.42767333984375 C 407.170166015625 183.92672729492188 406.1179504394531 178.9571533203125 402.4237060546875 176.28802490234375 C 398.8346862792969 173.68722534179688 393.9499206542969 174.11810302734375 389.55999755859375 174.7435302734375 C 387.7770080566406 175.000244140625 385.91583251953125 175.29718017578125 384.4671325683594 176.36611938476562 C 382.015869140625 178.17257690429688 381.46246337890625 181.59854125976562 381.58367919921875 184.63665771484375 C 381.69512939453125 187.45657348632812 382.2109069824219 190.24588012695312 383.115234375 192.919189453125 C 384.58203125 197.26043701171875 387.6341552734375 201.639404296875 392.1638488769531 202.321044921875 C 394.6087646484375 202.69256591796875 397.1280822753906 201.89297485351562 399.2320556640625 200.586181640625 C 401.3360595703125 199.2794189453125 403.0876770019531 197.483642578125 404.7916259765625 195.68618774414062 C 406.4955749511719 193.88873291015625 408.1313781738281 192.08602905273438 408.9277648925781 189.80319213867188 L 407.94140625 188.42767333984375" stroke-width="0.6000000238418579" fill="rgb(218, 166, 20)" opacity="1.0"/>
    <path d="M 442.69024658203125 180.39556884765625 C 442.5406494140625 188.3997802734375 448.9080810546875 195.009765625 456.9122314453125 195.15939331054688 C 457.59765625 195.17221069335938 458.2830810546875 195.13638305664062 458.9635009765625 195.05218505859375 C 461.54852294921875 194.7318115234375 464.140625 193.62493896484375 465.7236328125 191.55792236328125 C 467.0616455078125 189.811279296875 467.559326171875 187.5711669921875 467.80133056640625 185.38580322265625 C 468.4410400390625 179.53515625 467.5025634765625 173.61990356445312 465.0833740234375 168.25454711914062 C 464.4415283203125 166.83740234375 463.6680908203125 165.427734375 462.46221923828125 164.43951416015625 C 460.43878173828125 162.77935791015625 457.5198974609375 162.611572265625 454.9873046875 163.27963256835938 C 451.2266845703125 164.26885986328125 448.0111083984375 166.91073608398438 445.9429931640625 170.20477294921875 C 443.8748779296875 173.49880981445312 442.89031982421875 177.398193359375 442.7288818359375 181.283935546875 L 442.69024658203125 180.39556884765625" stroke-width="0.6000000238418579" fill="rgb(143, 165, 67)" opacity="1.0"/>
    <path d="M 147.20504760742188 103.05967712402344 C 136.66650390625 109.04901123046875 137.8576202392578 127.35914611816406 148.646728515625 132.71102905273438 C 159.43585205078125 138.0628662109375 174.2366943359375 128.81466674804688 175.0556640625 116.71708679199219 C 175.87457275390625 104.6195068359375 163.7254638671875 93.69186401367188 151.64996337890625 94.9073486328125 L 147.20504760742188 103.05967712402344" stroke-width="0.6000000238418579" fill="rgb(233, 92, 21)" opacity="1.0"/>
    <path d="M 453.5125732421875 148.00045776367188 C 450.8558349609375 152.4832305908203 448.1470947265625 158.11355590820312 450.8232421875 162.60552978515625 C 451.957763671875 164.3516845703125 453.606201171875 165.70281982421875 455.5411376953125 166.472412109375 C 460.27740478515625 168.50543212890625 465.705322265625 168.11669921875 470.103515625 165.429443359375 C 473.82861328125 163.140380859375 476.350830078125 159.4189453125 478.70465087890625 155.76622009277344 C 480.0235595703125 153.7122039794922 481.35943603515625 151.48788452148438 481.32373046875 149.06051635742188 C 481.2496337890625 145.825439453125 478.757568359375 143.1818084716797 476.2095947265625 141.18869018554688 C 472.4842529296875 138.26708984375 468.31060791015625 135.9677276611328 463.85052490234375 134.37979125976562 C 462.30841064453125 133.83409118652344 460.657958984375 133.36642456054688 459.0518798828125 133.67333984375 C 457.572998046875 134.0351104736328 456.2314453125 134.81935119628906 455.19061279296875 135.93045043945312 C 451.90234375 139.17799377441406 450.2042236328125 143.7045440673828 450.545166015625 148.3135528564453 L 453.5125732421875 148.00045776367188" stroke-width="0.6000000238418579" fill="rgb(70, 150, 179)" opacity="1.0"/>
    <path d="M 376.2347412109375 79.62969970703125 C 376.364501953125 73.5362548828125 376.2524719238281 66.77670288085938 372.1157531738281 62.30604553222656 C 367.6690979003906 57.5062255859375 359.9395751953125 57.20562744140625 353.8542175292969 59.60931396484375 C 351.5075378417969 60.53509521484375 349.2199401855469 61.873260498046875 347.8040771484375 63.960784912109375 C 346.63946533203125 65.67642211914062 346.154541015625 67.75331115722656 345.8047790527344 69.79666137695312 C 344.694091796875 76.23905944824219 344.82232666015625 83.36990356445312 348.6391906738281 88.67568969726562 C 352.48974609375 94.02046203613281 359.96258544921875 96.46109008789062 366.2191162109375 94.38130187988281 C 372.47564697265625 92.301513671875 377.055419921875 85.92414855957031 376.9734191894531 79.3271484375 L 376.2347412109375 79.62969970703125" stroke-width="0.6000000238418579" fill="rgb(140, 28, 33)" opacity="1.0"/>
    <path d="M 134.13784790039062 412.14324951171875 C 131.07540893554688 416.61212158203125 127.93803405761719 421.2960205078125 127.02534484863281 426.64007568359375 C 126.11268615722656 431.9840087890625 128.1011199951172 438.2442626953125 132.98382568359375 440.59808349609375 C 139.0175018310547 443.4901123046875 146.6619110107422 438.8006591796875 148.74459838867188 432.4293212890625 C 150.8272705078125 426.0579833984375 148.65890502929688 419.0157470703125 145.23963928222656 413.25994873046875 C 144.35968017578125 411.3721923828125 142.8041229248047 409.8829040527344 140.8798370361328 409.0860290527344 C 138.91433715820312 408.50689697265625 136.3068389892578 409.9566955566406 136.55490112304688 412.00091552734375 L 134.13784790039062 412.14324951171875" stroke-width="0.6000000238418579" fill="rgb(159, 159, 159)" opacity="1.0"/>
    <path d="M 419.2703857421875 211.25103759765625 C 415.31011962890625 206.4818115234375 409.62957763671875 202.965576171875 403.45733642578125 202.42498779296875 C 397.28509521484375 201.88433837890625 390.72332763671875 204.6373291015625 387.43743896484375 209.92095947265625 C 385.1190185546875 213.65951538085938 384.5840759277344 218.3326416015625 385.38153076171875 222.6627197265625 C 386.1789855957031 226.9927978515625 388.2135009765625 231.01370239257812 390.70806884765625 234.6427001953125 C 391.7945861816406 236.22128295898438 393.0485534667969 237.79852294921875 394.80682373046875 238.54818725585938 C 396.822265625 239.40863037109375 399.12689208984375 239.0260009765625 401.2673645019531 238.526123046875 C 407.3103942871094 237.11477661132812 413.3673095703125 234.72354125976562 417.5972900390625 230.181884765625 C 421.82733154296875 225.64019775390625 423.7606201171875 218.54974365234375 420.95550537109375 213.03067016601562 L 419.2703857421875 211.25103759765625" stroke-width="0.6000000238418579" fill="rgb(159, 159, 159)" opacity="1.0"/>
    <path d="M 379.78741455078125 117.23480224609375 C 374.220947265625 117.299072265625 368.03631591796875 117.61167907714844 364.11383056640625 121.5465087890625 C 360.2937927246094 125.36778259277344 359.8746643066406 131.33099365234375 359.78472900390625 136.7358856201172 C 359.7514343261719 138.93161010742188 359.7516174316406 141.22918701171875 360.7602844238281 143.17840576171875 C 362.46435546875 146.47616577148438 366.482421875 147.8001708984375 370.1631164550781 148.23751831054688 C 373.5792541503906 148.644775390625 377.0361633300781 148.55938720703125 380.42803955078125 147.98397827148438 C 385.93585205078125 147.05166625976562 391.7934265136719 144.21815490722656 393.4836730957031 138.8959503173828 C 394.4003601074219 136.02401733398438 393.92144775390625 132.8376007080078 392.75225830078125 130.05384826660156 C 391.5830383300781 127.27009582519531 389.7575378417969 124.81663513183594 387.9208068847656 122.42024230957031 C 386.0841064453125 120.02383422851562 384.2279968261719 117.70849609375 381.6327209472656 116.31147766113281 L 379.78741455078125 117.23480224609375" stroke-width="0.6000000238418579" fill="rgb(218, 166, 20)" opacity="1.0"/>
    <path d="M 403.3196716308594 79.26187133789062 C 396.5523376464844 71.7550048828125 384.9808044433594 71.15548706054688 377.47393798828125 77.92282104492188 C 376.83111572265625 78.50228881835938 376.230224609375 79.12666320800781 375.6757507324219 79.79119873046875 C 373.56939697265625 82.316650390625 372.1351013183594 85.57304382324219 372.4591369628906 88.843994140625 C 372.73272705078125 91.60823059082031 374.20648193359375 94.10237121582031 375.8687438964844 96.32551574707031 C 380.3264465332031 102.27017211914062 386.2945556640625 106.91282653808594 393.15313720703125 109.77122497558594 C 394.9673156738281 110.52372741699219 396.8963317871094 111.15586853027344 398.8603515625 111.02642822265625 C 402.15765380859375 110.81103515625 404.99285888671875 108.44760131835938 406.7508850097656 105.64697265625 C 409.3638000488281 101.49087524414062 410.0486145019531 96.28160095214844 409.11309814453125 91.46119689941406 C 408.1776123046875 86.64080810546875 405.7210998535156 82.197265625 402.5177001953125 78.47633361816406 L 403.3196716308594 79.26187133789062" stroke-width="0.6000000238418579" fill="rgb(143, 165, 67)" opacity="1.0"/>
    <path d="M 123.17291259765625 429.6866455078125 C 115.95158386230469 421.2081298828125 99.63253784179688 425.4384765625 96.66195678710938 436.09765625 C 93.69143676757812 446.75677490234375 104.58833312988281 458.520263671875 115.64714050292969 457.174560546875 C 126.70594787597656 455.82879638671875 134.47410583496094 442.98138427734375 131.296142578125 432.2930908203125 L 123.17291259765625 429.6866455078125" stroke-width="0.6000000238418579" fill="rgb(233, 92, 21)" opacity="1.0"/>
    <path d="M 448.72802734375 205.9324951171875 C 444.9110107421875 209.8717041015625 440.76007080078125 214.97308349609375 442.4005126953125 220.22677612304688 C 443.13470458984375 222.2921142578125 444.49169921875 224.07876586914062 446.2843017578125 225.3402099609375 C 450.6357421875 228.58062744140625 456.287841796875 229.510986328125 461.4483642578125 227.83615112304688 C 465.82220458984375 226.40423583984375 469.31512451171875 223.21151733398438 472.61883544921875 220.0479736328125 C 474.4718017578125 218.26785278320312 476.3837890625 216.31756591796875 476.9412841796875 213.82373046875 C 477.6571044921875 210.49356079101562 475.752685546875 207.17718505859375 473.6318359375 204.51312255859375 C 470.53289794921875 200.6103515625 466.8226318359375 197.23492431640625 462.64508056640625 194.51773071289062 C 461.1998291015625 193.5816650390625 459.6246337890625 192.698974609375 457.9051513671875 192.62014770507812 C 456.3026123046875 192.62863159179688 454.7371826171875 193.10321044921875 453.3997802734375 193.98602294921875 C 449.238525390625 196.506103515625 446.39227294921875 200.72476196289062 445.6134033203125 205.52682495117188 L 448.72802734375 205.9324951171875" stroke-width="0.6000000238418579" fill="rgb(70, 150, 179)" opacity="1.0"/>
    <path d="M 423.0908203125 136.19229125976562 C 424.107666015625 129.89561462402344 424.9703369140625 122.87353515625 421.33026123046875 117.64096069335938 C 417.4166259765625 112.0223388671875 409.4490051269531 110.59152221679688 402.7938232421875 112.20159912109375 C 400.22760009765625 112.8212890625 397.6628723144531 113.87698364257812 395.8930969238281 115.83554077148438 C 394.4376525878906 117.44503784179688 393.63427734375 119.52738952636719 392.9759216308594 121.59454345703125 C 390.8918762207031 128.11087036132812 389.9921875 135.52011108398438 393.1798400878906 141.57192993164062 C 396.3967590332031 147.66900634765625 403.7884521484375 151.28067016601562 410.5741271972656 150.0310821533203 C 417.35980224609375 148.781494140625 423.0299072265625 142.8349151611328 423.90020751953125 135.9856719970703 L 423.0908203125 136.19229125976562" stroke-width="0.6000000238418579" fill="rgb(140, 28, 33)" opacity="1.0"/>
    <path d="M 400.1142883300781 67.70486450195312 C 401.53375244140625 72.90982055664062 403.06817626953125 78.31024169921875 406.5374450683594 82.44700622558594 C 410.0066833496094 86.58369445800781 416.0411376953125 89.10823059082031 420.9747314453125 86.91787719726562 C 427.0587158203125 84.20054626464844 428.42449951171875 75.37461853027344 424.92919921875 69.68753051757812 C 421.4339599609375 64.00044250488281 414.6898193359375 61.10859680175781 408.1163635253906 59.99554443359375 C 406.11602783203125 59.447113037109375 403.98284912109375 59.66845703125 402.1377868652344 60.61592102050781 C 400.4314880371094 61.735015869140625 399.8518981933594 64.64901733398438 401.5638122558594 65.77799987792969 L 400.1142883300781 67.70486450195312" stroke-width="0.6000000238418579" fill="rgb(159, 159, 159)" opacity="1.0"/>
    <path d="M 440.28955078125 235.48220825195312 C 436.5948486328125 240.4464111328125 434.5203857421875 246.78463745117188 435.44842529296875 252.899658203125 C 436.37646484375 259.0146484375 440.59130859375 264.73248291015625 446.490234375 266.6767883300781 C 450.66265869140625 268.0461730957031 455.32196044921875 267.4654235839844 459.3349609375 265.6728515625 C 463.3480224609375 263.8802490234375 466.77001953125 260.9603271484375 469.7034912109375 257.6863098144531 C 470.979248046875 256.26080322265625 472.2142333984375 254.67315673828125 472.5277099609375 252.791015625 C 472.88818359375 250.63336181640625 471.97467041015625 248.48760986328125 470.98602294921875 246.52874755859375 C 468.19482421875 240.99844360351562 464.44970703125 235.68524169921875 459.04833984375 232.65042114257812 C 453.64697265625 229.61557006835938 446.3134765625 229.4085693359375 441.61944580078125 233.42864990234375 L 440.28955078125 235.48220825195312" stroke-width="0.6000000238418579" fill="rgb(159, 159, 159)" opacity="1.0"/>
    <path d="M 409.6603088378906 261.01287841796875 C 407.67694091796875 255.349365234375 405.2269592285156 249.1400146484375 399.8565368652344 246.48910522460938 C 394.63739013671875 243.90374755859375 388.402099609375 245.53005981445312 382.8504943847656 247.30026245117188 C 380.5962829589844 248.022705078125 378.24957275390625 248.81439208984375 376.6061096191406 250.5162353515625 C 373.8247985839844 253.39288330078125 373.8567199707031 257.953125 374.67803955078125 261.8633117675781 C 375.43896484375 265.4928894042969 376.7171630859375 268.9944152832031 378.4734191894531 272.26068115234375 C 381.32318115234375 277.56524658203125 386.2353820800781 282.5720520019531 392.25384521484375 282.46490478515625 C 395.50311279296875 282.4118347167969 398.5927429199219 280.8249206542969 401.0333251953125 278.6716613769531 C 403.473876953125 276.51837158203125 405.3509521484375 273.80853271484375 407.1658630371094 271.10687255859375 C 408.9808044433594 268.4052429199219 410.706298828125 265.71173095703125 411.2391357421875 262.5796203613281 L 409.6603088378906 261.01287841796875" stroke-width="0.6000000238418579" fill="rgb(218, 166, 20)" opacity="1.0"/>
    <path d="M 414.068115234375 91.35720825195312 C 407.96234130859375 99.07301330566406 409.26751708984375 110.277587890625 416.98333740234375 116.38334655761719 C 417.64404296875 116.90618896484375 418.34100341796875 117.38148498535156 419.0689697265625 117.80569458007812 C 421.83538818359375 119.41708374023438 425.1942138671875 120.26458740234375 428.28125 119.42193603515625 C 430.89007568359375 118.71006774902344 433.04461669921875 116.89010620117188 434.90838623046875 114.9332275390625 C 439.8900146484375 109.68827819824219 443.3763427734375 103.20512390136719 445.00537109375 96.15725708007812 C 445.43280029296875 94.2935791015625 445.72607421875 92.33921813964844 445.2825927734375 90.47506713867188 C 444.53997802734375 87.3450927734375 441.81060791015625 85.0078125 438.836669921875 83.77549743652344 C 434.42266845703125 81.94290161132812 429.3111572265625 82.1322021484375 424.8363037109375 83.8135986328125 C 420.361328125 85.4949951171875 416.495361328125 88.57510375976562 413.4444580078125 92.25466918945312 L 414.068115234375 91.35720825195312" stroke-width="0.6000000238418579" fill="rgb(143, 165, 67)" opacity="1.0"/>
    <path d="M 434.0611572265625 125.38934326171875 C 431.281982421875 136.3015899658203 444.3056640625 147.29856872558594 454.8377685546875 143.52394104003906 C 465.369873046875 139.74925231933594 468.713134765625 123.88473510742188 461.142822265625 115.54402160644531 C 453.572509765625 107.20330810546875 438.4320068359375 108.29672241210938 431.46728515625 117.16275024414062 L 434.0611572265625 125.38934326171875" stroke-width="0.6000000238418579" fill="rgb(233, 92, 21)" opacity="1.0"/>
    <path d="M 448.758544921875 93.81642150878906 C 447.4923095703125 99.34866333007812 446.5535888671875 106.08837890625 450.8216552734375 109.85833740234375 C 452.57855224609375 111.29251098632812 454.7371826171875 112.14617919921875 456.99981689453125 112.30152893066406 C 462.5877685546875 112.8365478515625 468.08837890625 110.62992858886719 471.7574462890625 106.38140869140625 C 474.8604736328125 102.76953125 476.2401123046875 98.0716552734375 477.4678955078125 93.50100708007812 C 478.1534423828125 90.932373046875 478.7999267578125 88.18145751953125 477.9564208984375 85.6756591796875 C 476.8046875 82.34487915039062 473.34161376953125 80.43087768554688 470.03662109375 79.21017456054688 C 465.2020263671875 77.41763305664062 460.109130859375 76.41944885253906 454.95556640625 76.25430297851562 C 453.1748046875 76.20068359375 451.3076171875 76.26394653320312 449.74365234375 77.11593627929688 C 448.330078125 77.98249816894531 447.1990966796875 79.24166870117188 446.48876953125 80.73989868164062 C 444.1571044921875 85.20077514648438 443.8997802734375 90.45989990234375 445.78472900390625 95.12710571289062 L 448.758544921875 93.81642150878906" stroke-width="0.6000000238418579" fill="rgb(70, 150, 179)" opacity="1.0"/>
    <path d="M 315.3725891113281 368.0994567871094 C 309.43316650390625 366.25225830078125 302.7722473144531 364.4541931152344 297.2200927734375 367.2492980957031 C 291.2576599121094 370.2554626464844 288.7811279296875 377.751220703125 289.42083740234375 384.3977966308594 C 289.6664123535156 386.9605407714844 290.3330993652344 389.581787109375 291.9807434082031 391.55963134765625 C 293.3345947265625 393.1860046386719 295.2345886230469 394.2478332519531 297.1398620605469 395.1676025390625 C 303.1446228027344 398.0753173828125 310.17425537109375 399.96234130859375 316.4551696777344 397.7165832519531 C 322.7837829589844 395.4488525390625 327.28668212890625 388.80889892578125 327.012939453125 382.08587646484375 C 326.73919677734375 375.36285400390625 321.77740478515625 369.0712585449219 315.28436279296875 367.28961181640625 L 315.3725891113281 368.0994567871094" stroke-width="0.6000000238418579" fill="rgb(140, 28, 33)" opacity="1.0"/>
    <path d="M 300.5539245605469 394.94085693359375 C 294.85986328125 394.2308654785156 288.9270324707031 393.55487060546875 283.4541931152344 395.2933654785156 C 277.9814758300781 397.0318298339844 273.05645751953125 401.9458312988281 273.21453857421875 407.6849365234375 C 273.4254455566406 414.768798828125 281.5540771484375 419.68359375 288.5623474121094 418.546875 C 295.57061767578125 417.41015625 301.14410400390625 411.94671630859375 304.8988952636719 405.931396484375 C 306.2477722167969 404.18572998046875 306.8932189941406 401.99798583984375 306.7078857421875 399.79974365234375 C 306.297607421875 397.6685485839844 303.6658630371094 395.9193115234375 301.8626708984375 397.1463317871094 L 300.5539245605469 394.94085693359375" stroke-width="0.6000000238418579" fill="rgb(159, 159, 159)" opacity="1.0"/>
    <path d="M 322.7833557128906 413.3504638671875 C 317.04034423828125 416.47747802734375 312.2436218261719 421.64031982421875 310.4264831542969 427.9183349609375 C 308.60931396484375 434.1964111328125 310.1216125488281 441.5487060546875 314.92059326171875 446.026123046875 C 318.3175354003906 449.1873779296875 323.0451354980469 450.6932373046875 327.689208984375 450.7501220703125 C 332.3332824707031 450.80712890625 336.909423828125 449.52069091796875 341.17364501953125 447.67822265625 C 343.02886962890625 446.8753662109375 344.9167785644531 445.89892578125 346.0509338378906 444.23187255859375 C 347.3521423339844 442.3212890625 347.42572021484375 439.8580322265625 347.344482421875 437.540771484375 C 347.11505126953125 430.998779296875 345.8742980957031 424.24273681640625 342.03564453125 418.9393310546875 C 338.19696044921875 413.6358642578125 331.2523498535156 410.1902160644531 324.9685974121094 411.9689636230469 L 322.7833557128906 413.3504638671875" stroke-width="0.6000000238418579" fill="rgb(159, 159, 159)" opacity="1.0"/>
    <path d="M 256.5859069824219 417.2236328125 C 250.18048095703125 416.30712890625 243.02081298828125 415.56585693359375 237.81512451171875 419.3878173828125 C 232.74737548828125 423.0975341796875 231.20501708984375 429.8726806640625 230.14013671875 436.0650634765625 C 229.71124267578125 438.581298828125 229.30267333984375 441.220458984375 230.114501953125 443.638916015625 C 231.48519897460938 447.7301025390625 235.86505126953125 449.9658203125 240.01513671875 451.123046875 C 243.86666870117188 452.1986083984375 247.85269165039062 452.71551513671875 251.8511962890625 452.65802001953125 C 258.3436584472656 452.5670166015625 265.5761413574219 450.3543701171875 268.46453857421875 444.5416259765625 C 270.0284729003906 441.4058837890625 270.0452575683594 437.6605224609375 269.197509765625 434.25494384765625 C 268.3497314453125 430.849365234375 266.6893310546875 427.70635986328125 265.0058898925781 424.626953125 C 263.32244873046875 421.5474853515625 261.60235595703125 418.5577392578125 258.86981201171875 416.4913330078125 L 256.5859069824219 417.2236328125" stroke-width="0.6000000238418579" fill="rgb(218, 166, 20)" opacity="1.0"/>
    <path d="M 223.214599609375 409.7871398925781 C 213.3353271484375 404.2560729980469 200.84271240234375 407.7810363769531 195.31167602539062 417.66033935546875 C 194.83804321289062 418.50628662109375 194.425048828125 419.384765625 194.07571411132812 420.28924560546875 C 192.74908447265625 423.72607421875 192.3983154296875 427.69677734375 193.9183349609375 431.05059814453125 C 195.20257568359375 433.885009765625 197.66302490234375 436.001220703125 200.22607421875 437.76220703125 C 207.09317016601562 442.46630859375 215.0946044921875 445.24591064453125 223.39913940429688 445.812255859375 C 225.59454345703125 445.95831298828125 227.86846923828125 445.935302734375 229.90567016601562 445.09173583984375 C 233.3265380859375 443.67755126953125 235.48471069335938 440.1505126953125 236.34283447265625 436.5469970703125 C 237.62057495117188 431.1978759765625 236.47393798828125 425.4248046875 233.74801635742188 420.64697265625 C 231.0220947265625 415.86907958984375 226.8179931640625 412.0379638671875 222.08126831054688 409.2420959472656 L 223.214599609375 409.7871398925781" stroke-width="0.6000000238418579" fill="rgb(143, 165, 67)" opacity="1.0"/>
    <path d="M 278.25640869140625 361.027099609375 C 282.78350830078125 372.37518310546875 301.2296142578125 373.7104187011719 308.0608215332031 363.67584228515625 C 314.8919677734375 353.6412658691406 307.6986999511719 337.5881042480469 295.7326965332031 335.10247802734375 C 283.7666931152344 332.6168212890625 271.1807861328125 343.2405700683594 270.7294921875 355.46502685546875 L 278.25640869140625 361.027099609375" stroke-width="0.6000000238418579" fill="rgb(233, 92, 21)" opacity="1.0"/>
    <path d="M 333.8212890625 359.3702697753906 C 332.26275634765625 365.18359375 331.0039978027344 372.2893981933594 335.3795471191406 376.4518127441406 C 337.185302734375 378.0404968261719 339.4395751953125 379.02972412109375 341.8313293457031 379.282958984375 C 347.7323303222656 380.0687561035156 353.6481628417969 377.94561767578125 357.70281982421875 373.5868225097656 C 361.1328430175781 369.8805847167969 362.7788391113281 364.9559020996094 364.25897216796875 360.16015625 C 365.0860595703125 357.4648132324219 365.87896728515625 354.5747985839844 365.0831604003906 351.8861999511719 C 363.9930114746094 348.31121826171875 360.3978576660156 346.147216796875 356.9431457519531 344.7241516113281 C 351.8897399902344 342.6351623535156 346.5315246582031 341.3778991699219 341.07635498046875 341.0010986328125 C 339.1912536621094 340.8745422363281 337.2099914550781 340.86846923828125 335.51922607421875 341.71014404296875 C 333.9871520996094 342.5731506347656 332.73931884765625 343.8633117675781 331.9278259277344 345.42327880859375 C 329.2821960449219 350.0594787597656 328.8035583496094 355.6228942871094 330.618408203125 360.6428527832031 L 333.8212890625 359.3702697753906" stroke-width="0.6000000238418579" fill="rgb(70, 150, 179)" opacity="1.0"/>
    <path d="M 296.14324951171875 418.67626953125 C 289.64923095703125 417.2694091796875 282.39202880859375 415.982666015625 276.746826171875 419.4793701171875 C 270.68487548828125 423.23919677734375 268.75469970703125 431.44854736328125 270.06072998046875 438.461181640625 C 270.5631408691406 441.16510009765625 271.5191650390625 443.8917236328125 273.45855712890625 445.84130859375 C 275.0522155761719 447.4447021484375 277.1739196777344 448.3958740234375 279.2878723144531 449.1953125 C 285.95123291015625 451.724609375 293.609130859375 453.0712890625 300.08148193359375 450.0906982421875 C 306.6025695800781 447.0821533203125 310.76953125 439.5927734375 309.84576416015625 432.4644775390625 C 308.9219970703125 425.33612060546875 303.0501403808594 419.10784912109375 295.9731750488281 417.82281494140625 L 296.14324951171875 418.67626953125" stroke-width="0.6000000238418579" fill="rgb(140, 28, 33)" opacity="1.0"/>
    <path d="M 329.0283203125 393.5126953125 C 323.3424072265625 394.0412292480469 317.43170166015625 394.6539001464844 312.48480224609375 397.51470947265625 C 307.5379638671875 400.3755187988281 303.8030700683594 406.2053527832031 305.18487548828125 411.7492370605469 C 306.9058837890625 418.58880615234375 315.8577575683594 421.6258544921875 322.42572021484375 419.021240234375 C 328.9936828613281 416.41668701171875 333.24127197265625 409.91412353515625 335.6031494140625 403.2643737792969 C 336.54052734375 401.2791442871094 336.69964599609375 399.0147399902344 336.0491027832031 396.91796875 C 335.1942443847656 394.93450927734375 332.2621765136719 393.79766845703125 330.7722473144531 395.3760681152344 L 329.0283203125 393.5126953125" stroke-width="0.6000000238418579" fill="rgb(159, 159, 159)" opacity="1.0"/>
    <path d="M 358.4031677246094 414.03143310546875 C 353.4805603027344 418.530029296875 349.99200439453125 424.8131103515625 349.72589111328125 431.472900390625 C 349.45977783203125 438.132568359375 352.75250244140625 445.04290771484375 358.5974426269531 448.30419921875 C 362.7327880859375 450.60467529296875 367.7813720703125 450.941162109375 372.3934020996094 449.86346435546875 C 377.0054931640625 448.7857666015625 381.2222595214844 446.39459228515625 384.9944152832031 443.529052734375 C 386.6352233886719 442.28106689453125 388.2660217285156 440.853271484375 388.9819030761719 438.92572021484375 C 389.80364990234375 436.71624755859375 389.2749938964844 434.2593994140625 388.6286926269531 431.98492431640625 C 386.80401611328125 425.5635986328125 383.92572021484375 419.17730712890625 378.8299255371094 414.86370849609375 C 373.7341003417969 410.5501403808594 366.0167236328125 408.8343505859375 360.2294616699219 412.1300048828125 L 358.4031677246094 414.03143310546875" stroke-width="0.6000000238418579" fill="rgb(159, 159, 159)" opacity="1.0"/>
    <path d="M 249.82058715820312 364.45159912109375 C 251.27847290039062 358.29461669921875 252.63226318359375 351.3876953125 249.3697509765625 345.98089599609375 C 246.20437622070312 340.7182922363281 239.74261474609375 338.6182861328125 233.80621337890625 337.0346984863281 C 231.3936767578125 336.39495849609375 228.859619140625 335.7641296386719 226.43276977539062 336.3412780761719 C 222.32763671875 337.31500244140625 219.76385498046875 341.3829345703125 218.2706298828125 345.322265625 C 216.88327026367188 348.9781188964844 216.02804565429688 352.8142395019531 215.73110961914062 356.71319580078125 C 215.2467041015625 363.0438537597656 216.76309204101562 370.28240966796875 222.16879272460938 373.6082763671875 C 225.08450317382812 375.4080810546875 228.7303466796875 375.7550048828125 232.12167358398438 375.2300109863281 C 235.51300048828125 374.70501708984375 238.7203369140625 373.3654479980469 241.86773681640625 371.99786376953125 C 245.01519775390625 370.6302795410156 248.07858276367188 369.21905517578125 250.33212280273438 366.7403869628906 L 249.82058715820312 364.45159912109375" stroke-width="0.6000000238418579" fill="rgb(218, 166, 20)" opacity="1.0"/>
    <path d="M 261.6361083984375 389.357421875 C 253.625732421875 382.4054260253906 241.49627685546875 383.263427734375 234.5443115234375 391.2738342285156 C 233.94900512695312 391.95977783203125 233.40313720703125 392.68707275390625 232.91073608398438 393.45025634765625 C 231.04034423828125 396.3505554199219 229.96359252929688 399.92608642578125 230.72015380859375 403.29150390625 C 231.3592529296875 406.1356201171875 233.21380615234375 408.5446472167969 235.23001098632812 410.6472473144531 C 240.63458251953125 416.2679443359375 247.44561767578125 420.33905029296875 254.95550537109375 422.4376220703125 C 256.9415283203125 422.989013671875 259.03173828125 423.4002685546875 261.060791015625 423.01385498046875 C 264.46759033203125 422.3670654296875 267.11785888671875 419.5421142578125 268.5902099609375 416.39990234375 C 270.7793273925781 411.7362365722656 270.8252258300781 406.2226867675781 269.2332763671875 401.32171630859375 C 267.6413269042969 396.4207763671875 264.513427734375 392.1072082519531 260.7001647949219 388.6419677734375 L 261.6361083984375 389.357421875" stroke-width="0.6000000238418579" fill="rgb(143, 165, 67)" opacity="1.0"/>
    <path d="M 205.01705932617188 379.3583068847656 C 194.13479614257812 386.0801086425781 196.09619140625 405.34246826171875 207.67962646484375 410.5704345703125 C 219.26303100585938 415.79833984375 234.514404296875 405.4758605957031 234.91195678710938 392.6872863769531 C 235.30950927734375 379.8987121582031 222.07711791992188 368.8434143066406 209.39019775390625 370.5903625488281 L 205.01705932617188 379.3583068847656" stroke-width="0.6000000238418579" fill="rgb(233, 92, 21)" opacity="1.0"/>
    <path d="M 254.47662353515625 369.9557189941406 C 254.3367919921875 376.3448791503906 254.83233642578125 383.99139404296875 260.39599609375 387.1797790527344 C 262.6594543457031 388.3624572753906 265.2341613769531 388.8136291503906 267.764892578125 388.47100830078125 C 274.0494079589844 387.791748046875 279.6148376464844 384.10858154296875 282.69635009765625 378.5894470214844 C 285.2983093261719 373.9010009765625 285.75274658203125 368.40631103515625 286.068603515625 363.08642578125 C 286.2412109375 360.0977478027344 286.32940673828125 356.9169006347656 284.82989501953125 354.3448486328125 C 282.8030700683594 350.93292236328125 278.548828125 349.608642578125 274.62646484375 349.0130615234375 C 268.8871765136719 348.1342468261719 263.0434875488281 348.1902160644531 257.322021484375 349.1787414550781 C 255.3458251953125 349.5240783691406 253.30087280273438 350.01800537109375 251.76953125 351.3128967285156 C 250.40728759765625 352.5897521972656 249.44598388671875 354.23541259765625 249.00286865234375 356.0491638183594 C 247.44464111328125 361.49871826171875 248.35543823242188 367.35748291015625 251.4945068359375 372.0767822265625 L 254.47662353515625 369.9557189941406" stroke-width="0.6000000238418579" fill="rgb(70, 150, 179)" opacity="1.0"/>
    <path d="M 334.9082946777344 361.09515380859375 C 337.3396911621094 355.1855773925781 339.78656005859375 348.533203125 337.43212890625 342.5969543457031 C 334.89910888671875 336.22161865234375 327.45428466796875 333.0044250488281 320.594482421875 333.0534973144531 C 317.9496154785156 333.0712890625 315.2065124511719 333.51470947265625 313.032470703125 335.02056884765625 C 311.24481201171875 336.2578125 309.985107421875 338.1053466796875 308.8703308105469 339.9712219238281 C 305.3477478027344 345.8510437011719 302.7762756347656 352.87261962890625 304.5021057128906 359.5045471191406 C 306.2461242675781 366.18731689453125 312.630615234375 371.400146484375 319.5352783203125 371.7325439453125 C 326.4399719238281 372.0649719238281 333.330322265625 367.56072998046875 335.74505615234375 361.0786437988281 L 334.9082946777344 361.09515380859375" stroke-width="0.6000000238418579" fill="rgb(140, 28, 33)" opacity="1.0"/>
    <path d="M 355.46673583984375 400.0764465332031 C 349.7754821777344 400.61578369140625 343.8593444824219 401.2397155761719 338.9120788574219 404.112548828125 C 333.9649353027344 406.9853820800781 330.236328125 412.828369140625 331.629638671875 418.37591552734375 C 333.3647766113281 425.219970703125 342.3320007324219 428.24432373046875 348.9025573730469 425.6251220703125 C 355.47314453125 423.005859375 359.7137451171875 416.48846435546875 362.0663146972656 409.8271179199219 C 363.0011901855469 407.8380126953125 363.15643310546875 405.5708312988281 362.5013732910156 403.472900390625 C 361.64202880859375 401.4888000488281 358.7046813964844 400.3559265136719 357.2159118652344 401.93878173828125 L 355.46673583984375 400.0764465332031" stroke-width="0.6000000238418579" fill="rgb(159, 159, 159)" opacity="1.0"/>
    <path d="M 182.412841796875 414.0206298828125 C 175.67926025390625 414.2650146484375 168.88275146484375 416.82183837890625 164.321533203125 421.7764892578125 C 159.76031494140625 426.731201171875 157.77590942382812 434.206787109375 160.14389038085938 440.5416259765625 C 161.82379150390625 445.018310546875 165.49163818359375 448.579833984375 169.7484130859375 450.7667236328125 C 174.00518798828125 452.95361328125 178.81671142578125 453.8704833984375 183.59609985351562 454.131103515625 C 185.67605590820312 454.2432861328125 187.86590576171875 454.21044921875 189.67807006835938 453.1943359375 C 191.75616455078125 452.0302734375 192.95611572265625 449.79248046875 193.94622802734375 447.6180419921875 C 196.7413330078125 441.4793701171875 198.70208740234375 434.67840576171875 197.599365234375 428.023193359375 C 196.49661254882812 421.367919921875 191.6756591796875 414.99847412109375 185.06307983398438 413.75091552734375 L 182.412841796875 414.0206298828125" stroke-width="0.6000000238418579" fill="rgb(159, 159, 159)" opacity="1.0"/>
    <path d="M 360.4741516113281 367.7193603515625 C 354.0983581542969 369.0098876953125 347.0672607421875 370.7205505371094 343.4246520996094 376.09478759765625 C 339.8748474121094 381.3162536621094 340.6971740722656 388.2531433105469 341.77532958984375 394.4771423339844 C 342.217041015625 397.00494384765625 342.7194519042969 399.642333984375 344.30340576171875 401.6593933105469 C 346.9803161621094 405.07244873046875 351.88214111328125 405.71405029296875 356.2028503417969 405.41156005859375 C 360.21331787109375 405.13232421875 364.16290283203125 404.2786865234375 367.93072509765625 402.87677001953125 C 374.0494384765625 400.6026611328125 380.154052734375 396.0697021484375 380.93096923828125 389.5907897949219 C 381.35552978515625 386.09368896484375 380.10931396484375 382.5406494140625 378.15869140625 379.6006774902344 C 376.20806884765625 376.6607360839844 373.57623291015625 374.243408203125 370.94403076171875 371.8940124511719 C 368.31182861328125 369.54461669921875 365.6750793457031 367.2925109863281 362.3905944824219 366.2561340332031 L 360.4741516113281 367.7193603515625" stroke-width="0.6000000238418579" fill="rgb(218, 166, 20)" opacity="1.0"/>
    <path d="M 380.1534118652344 380.8545227050781 C 375.3683776855469 390.2840881347656 379.13348388671875 401.8073425292969 388.5630798339844 406.5923767089844 C 389.3705139160156 407.00213623046875 390.2060241699219 407.35406494140625 391.0633239746094 407.6455993652344 C 394.3209228515625 408.7526550292969 398.03955078125 408.9287414550781 401.111328125 407.3825988769531 C 403.7073059082031 406.07623291015625 405.58837890625 403.69964599609375 407.1340026855469 401.2408447265625 C 411.2621154785156 394.65362548828125 413.5511474609375 387.0812072753906 413.763427734375 379.3102111816406 C 413.8160400390625 377.2560119628906 413.7080078125 375.13494873046875 412.84320068359375 373.2660827636719 C 411.39324951171875 370.1277160644531 408.019775390625 368.2481689453125 404.6244201660156 367.58465576171875 C 399.5842590332031 366.5960693359375 394.2407531738281 367.8859558105469 389.8860778808594 370.61163330078125 C 385.5314025878906 373.3372802734375 382.1165466308594 377.40631103515625 379.6879577636719 381.932861328125 L 380.1534118652344 380.8545227050781" stroke-width="0.6000000238418579" fill="rgb(143, 165, 67)" opacity="1.0"/>
    <path d="M 364.3029479980469 364.8838195800781 C 369.0840759277344 377.1578369140625 388.95904541015625 378.7591552734375 396.4117431640625 368.0008239746094 C 403.8643798828125 357.2424621582031 396.2501220703125 339.87255859375 383.3714294433594 337.08782958984375 C 370.4927062988281 334.3031311035156 356.83074951171875 345.64617919921875 356.23699951171875 358.82135009765625 L 364.3029479980469 364.8838195800781" stroke-width="0.6000000238418579" fill="rgb(233, 92, 21)" opacity="1.0"/>
    <path d="M 399.86712646484375 355.263427734375 C 401.456298828125 361.5024719238281 404.0016784667969 368.79034423828125 410.2624816894531 370.3829345703125 C 412.7786865234375 370.91973876953125 415.3995361328125 370.6625671386719 417.7633056640625 369.6467590332031 C 423.6796875 367.29083251953125 428.0870361328125 362.21343994140625 429.58795166015625 356.024658203125 C 430.84765625 350.7716064453125 429.8052978515625 345.3158264160156 428.6756591796875 340.06707763671875 C 428.0362548828125 337.11968994140625 427.26318359375 334.0085754394531 425.11334228515625 331.9169921875 C 422.2249755859375 329.1525573730469 417.73828125 329.0157470703125 413.7705078125 329.4966125488281 C 407.9626770019531 330.193115234375 402.3059387207031 331.8250732421875 397.01959228515625 334.3291931152344 C 395.19476318359375 335.1979064941406 393.34326171875 336.2294006347656 392.2065734863281 337.899658203125 C 391.2290954589844 339.5067138671875 390.7403259277344 341.3634948730469 390.7998962402344 343.2435607910156 C 390.75872802734375 348.95355224609375 393.2244873046875 354.3941650390625 397.54534912109375 358.1272277832031 L 399.86712646484375 355.263427734375" stroke-width="0.6000000238418579" fill="rgb(70, 150, 179)" opacity="1.0"/>
    <path d="M 383.8598327636719 416.3980712890625 C 380.5716857910156 422.7393798828125 377.19329833984375 429.90625 379.2315368652344 436.7476806640625 C 381.42547607421875 444.0955810546875 389.3990783691406 448.4095458984375 397.04229736328125 449.0291748046875 C 399.98907470703125 449.269287109375 403.08709716796875 449.04510498046875 405.6558837890625 447.58203125 C 407.7680358886719 446.3800048828125 409.3522644042969 444.44659423828125 410.7769775390625 442.478515625 C 415.2772216796875 436.277587890625 418.83062744140625 428.7117919921875 417.56072998046875 421.157470703125 C 416.27557373046875 413.54486083984375 409.67877197265625 407.1129150390625 402.0231018066406 406.0641784667969 C 394.367431640625 405.01544189453125 386.2523498535156 409.3537292480469 382.9264831542969 416.33416748046875 L 383.8598327636719 416.3980712890625" stroke-width="0.6000000238418579" fill="rgb(140, 28, 33)" opacity="1.0"/>
    <path d="M 409.14599609375 384.9096984863281 C 408.2090759277344 390.5342102050781 407.2961730957031 396.39715576171875 408.79925537109375 401.9017333984375 C 410.3023376464844 407.40625 414.9805908203125 412.496337890625 420.6851806640625 412.5732421875 C 427.72705078125 412.6524658203125 432.93798828125 404.7820739746094 432.094970703125 397.7774963378906 C 431.2518310546875 390.7729187011719 426.0545654296875 385.0166320800781 420.235107421875 381.0435485839844 C 418.556884765625 379.6331787109375 416.4110107421875 378.9031677246094 414.220947265625 378.99761962890625 C 412.0882568359375 379.31817626953125 410.2442626953125 381.8598327636719 411.3890380859375 383.7001647949219 L 409.14599609375 384.9096984863281" stroke-width="0.6000000238418579" fill="rgb(159, 159, 159)" opacity="1.0"/>
    <path d="M 438.54534912109375 368.4153747558594 C 440.60650634765625 374.8050231933594 444.9017333984375 380.6276550292969 450.88958740234375 383.6565856933594 C 456.87744140625 386.685546875 464.5831298828125 386.55999755859375 470.01434326171875 382.5710144042969 C 473.8507080078125 379.74591064453125 476.270263671875 375.2630310058594 477.212158203125 370.5884704589844 C 478.154052734375 365.9139099121094 477.7276611328125 361.05206298828125 476.68096923828125 356.3990173339844 C 476.2242431640625 354.3743896484375 475.5986328125 352.2837219238281 474.1328125 350.8219909667969 C 472.45294189453125 349.1453552246094 469.9818115234375 348.60198974609375 467.6285400390625 348.2426452636719 C 460.984619140625 347.22821044921875 453.93212890625 347.193359375 447.8504638671875 350.05615234375 C 441.768798828125 352.91900634765625 436.9698486328125 359.2691650390625 437.5677490234375 365.94757080078125 L 438.54534912109375 368.4153747558594" stroke-width="0.6000000238418579" fill="rgb(159, 159, 159)" opacity="1.0"/>
    <path d="M 427.12548828125 409.8165588378906 C 421.961669921875 414.166748046875 416.41033935546875 419.225830078125 415.7691650390625 425.93408203125 C 415.136474609375 432.4569091796875 419.339599609375 438.3648681640625 423.42083740234375 443.49615478515625 C 425.08184814453125 445.5782470703125 426.8526611328125 447.72991943359375 429.29962158203125 448.77813720703125 C 433.43707275390625 450.55340576171875 438.22064208984375 448.69677734375 442.0048828125 446.269775390625 C 445.5181884765625 444.0184326171875 448.68994140625 441.2742919921875 451.4232177734375 438.121337890625 C 455.86309814453125 433.00341796875 459.165283203125 425.8353271484375 456.6466064453125 419.54815673828125 C 455.2918701171875 416.15191650390625 452.38763427734375 413.5367431640625 449.147216796875 411.8306579589844 C 445.90679931640625 410.12457275390625 442.3062744140625 409.2336730957031 438.7392578125 408.4048156738281 C 435.17218017578125 407.5759582519531 431.6494140625 406.83795166015625 428.14215087890625 407.5296630859375 L 427.12548828125 409.8165588378906" stroke-width="0.6000000238418579" fill="rgb(218, 166, 20)" opacity="1.0"/>
    <path d="M 138.44125366210938 221.53607177734375 C 133.47857666015625 232.010986328125 137.94715881347656 244.525634765625 148.4220733642578 249.48831176757812 C 149.3190460205078 249.91326904296875 150.24502563476562 250.2740478515625 151.1930694580078 250.56796264648438 C 154.79559326171875 251.68408203125 158.87554931640625 251.76641845703125 162.1954345703125 249.98077392578125 C 165.00115966796875 248.47210693359375 166.99163818359375 245.81195068359375 168.61209106445312 243.07171630859375 C 172.93951416015625 235.73086547851562 175.222412109375 227.36520385742188 175.22372436523438 218.84375 C 175.22027587890625 216.59130859375 175.03875732421875 214.27032470703125 174.03558349609375 212.24822998046875 C 172.3533935546875 208.85247802734375 168.6009521484375 206.893310546875 164.8607177734375 206.26730346679688 C 159.30850219726562 205.33404541015625 153.49168395996094 206.90643310546875 148.80111694335938 210.022705078125 C 144.11056518554688 213.13894653320312 140.48976135253906 217.69921875 137.9633331298828 222.73150634765625 L 138.44125366210938 221.53607177734375" stroke-width="0.6000000238418579" fill="rgb(143, 165, 67)" opacity="1.0"/>
    <path d="M 173.54510498046875 260.0481262207031 C 181.35821533203125 271.32379150390625 201.8775634765625 268.1362609863281 206.82318115234375 255.43539428710938 C 211.76870727539062 242.73452758789062 199.85272216796875 226.982666015625 186.1336669921875 227.27850341796875 C 172.41461181640625 227.5743408203125 161.32098388671875 242.37005615234375 163.9078369140625 255.85919189453125 L 173.54510498046875 260.0481262207031" stroke-width="0.6000000238418579" fill="rgb(233, 92, 21)" opacity="1.0"/>
    <path d="M 144.69447326660156 315.2377014160156 C 140.1370086669922 320.3028259277344 135.21832275390625 326.825927734375 137.4958038330078 333.2723388671875 C 138.50198364257812 335.802490234375 140.2684783935547 337.95806884765625 142.55165100097656 339.441650390625 C 148.10202026367188 343.2644958496094 155.16099548339844 344.15997314453125 161.49008178710938 341.8440856933594 C 166.8538818359375 339.8658447265625 171.04327392578125 335.7422790527344 174.99917602539062 331.6635437011719 C 177.2176513671875 329.3687744140625 179.5015869140625 326.8600158691406 180.07916259765625 323.73870849609375 C 180.81494140625 319.57196044921875 178.2987060546875 315.5425720214844 175.54376220703125 312.3328552246094 C 171.51773071289062 307.63037109375 166.75714111328125 303.61053466796875 161.44659423828125 300.4292907714844 C 159.60955810546875 299.3336486816406 157.6136474609375 298.3102111816406 155.4755859375 298.291259765625 C 153.4866943359375 298.37530517578125 151.56520080566406 299.0362854003906 149.94544982910156 300.19354248046875 C 144.89556884765625 303.5128173828125 141.55596923828125 308.8802795410156 140.80947875976562 314.8770751953125 L 144.69447326660156 315.2377014160156" stroke-width="0.6000000238418579" fill="rgb(70, 150, 179)" opacity="1.0"/>
    <path d="M 125.96487426757812 304.6162414550781 C 125.37937927246094 297.2748107910156 124.42214965820312 289.1619873046875 118.90489196777344 284.2906494140625 C 112.9749755859375 279.06134033203125 103.64584350585938 279.6405334472656 96.62240600585938 283.27081298828125 C 93.91384887695312 284.6693420410156 91.32649230957031 286.5564880371094 89.87832641601562 289.2384338378906 C 88.68701171875 291.4427185058594 88.35671997070312 293.99859619140625 88.18490600585938 296.4977111816406 C 87.63359069824219 304.3780212402344 88.65544128417969 312.93524169921875 93.88981628417969 318.8494873046875 C 99.16940307617188 324.8064880371094 108.45037841796875 326.8313293457031 115.718994140625 323.56964111328125 C 122.98760986328125 320.3079528808594 127.71746826171875 312.0836486816406 126.81611633300781 304.16259765625 L 125.96487426757812 304.6162414550781" stroke-width="0.6000000238418579" fill="rgb(140, 28, 33)" opacity="1.0"/>
    <path d="M 142.24246215820312 278.32196044921875 C 137.40924072265625 281.3367919921875 132.41322326660156 284.5271911621094 129.28224182128906 289.2909240722656 C 126.15133666992188 294.0545959472656 125.42916870117188 300.92340087890625 129.14126586914062 305.248291015625 C 133.73538208007812 310.57666015625 143.07568359375 309.2799987792969 147.7666473388672 304.01953125 C 152.45761108398438 298.75909423828125 153.33592224121094 291.0611267089844 152.4670867919922 284.07550048828125 C 152.41477966308594 281.8861083984375 151.54368591308594 279.79595947265625 150.02565002441406 278.21746826171875 C 148.37615966796875 276.8313903808594 145.25331115722656 277.12939453125 144.63095092773438 279.2032470703125 L 142.24246215820312 278.32196044921875" stroke-width="0.6000000238418579" fill="rgb(159, 159, 159)" opacity="1.0"/>
    <path d="M 164.9111328125 285.55950927734375 C 163.66400146484375 292.6072082519531 164.80441284179688 300.2357177734375 168.93341064453125 306.0772399902344 C 173.06243896484375 311.9187316894531 180.38397216796875 315.64599609375 187.49090576171875 314.5987548828125 C 192.5146484375 313.85198974609375 197.03106689453125 310.8365478515625 200.25112915039062 306.9031066894531 C 203.47122192382812 302.96966552734375 205.49588012695312 298.177001953125 206.83193969726562 293.27142333984375 C 207.412109375 291.13629150390625 207.86611938476562 288.85467529296875 207.2147216796875 286.74615478515625 C 206.46905517578125 284.32843017578125 204.41238403320312 282.5833740234375 202.37484741210938 281.0704650878906 C 196.62246704101562 276.7992248535156 189.99636840820312 273.2468566894531 182.8387451171875 272.90863037109375 C 175.6810302734375 272.5704345703125 167.99139404296875 276.157470703125 165.22174072265625 282.7469482421875 L 164.9111328125 285.55950927734375" stroke-width="0.6000000238418579" fill="rgb(159, 159, 159)" opacity="1.0"/>
    <path d="M 120.84539794921875 345.8110656738281 C 119.5350341796875 339.0205993652344 117.78433227539062 331.5294494628906 112.10624694824219 327.60516357421875 C 106.58966064453125 323.7810363769531 99.20724487304688 324.5882568359375 92.5802001953125 325.6743469238281 C 89.88870239257812 326.1195068359375 87.080078125 326.6281433105469 84.92047119140625 328.29254150390625 C 81.26626586914062 331.1053771972656 80.53688049316406 336.3102111816406 80.81674194335938 340.9064025878906 C 81.0748291015625 345.17254638671875 81.94419860839844 349.3795471191406 83.39817810058594 353.3985595703125 C 85.75665283203125 359.92523193359375 90.51666259765625 366.4587097167969 97.39675903320312 367.3471984863281 C 101.11038208007812 367.8323059082031 104.89959716796875 366.541748046875 108.04383850097656 364.4964599609375 C 111.18807983398438 362.451171875 113.78330993652344 359.67669677734375 116.30632019042969 356.9010925292969 C 118.82933044433594 354.12554931640625 121.24897766113281 351.3442077636719 122.3824462890625 347.8625183105469 L 120.84539794921875 345.8110656738281" stroke-width="0.6000000238418579" fill="rgb(218, 166, 20)" opacity="1.0"/>
    <path d="M 152.1865692138672 343.12109375 C 140.6598358154297 345.4065246582031 133.16827392578125 356.603515625 135.45370483398438 368.1302490234375 C 135.6494140625 369.1172790527344 135.91488647460938 370.08917236328125 136.24813842773438 371.0386657714844 C 137.5150604248047 374.6462097167969 139.91217041015625 378.01812744140625 143.37123107910156 379.64300537109375 C 146.2942657470703 381.0164489746094 149.66253662109375 381.0306396484375 152.8725128173828 380.69512939453125 C 161.46356201171875 379.7852783203125 169.65432739257812 376.5917053222656 176.59393310546875 371.4461669921875 C 178.42596435546875 370.08294677734375 180.20623779296875 368.53338623046875 181.24691772460938 366.4952392578125 C 182.99600219726562 363.0745849609375 182.32501220703125 358.8358154296875 180.5758056640625 355.41217041015625 C 177.98245239257812 350.32745361328125 173.18896484375 346.5406188964844 167.81854248046875 344.6033020019531 C 162.44818115234375 342.6659851074219 156.54803466796875 342.47186279296875 150.92449951171875 343.4539489746094 L 152.1865692138672 343.12109375" stroke-width="0.6000000238418579" fill="rgb(143, 165, 67)" opacity="1.0"/>
    <path d="M 141.1999053955078 380.5963134765625 C 133.63970947265625 369.66546630859375 113.75711059570312 372.73651123046875 108.95498657226562 385.0374450683594 C 104.15292358398438 397.33837890625 115.68441772460938 412.609375 128.9761962890625 412.334228515625 C 142.26795959472656 412.05908203125 153.0282745361328 397.7337341308594 150.53334045410156 384.66278076171875 L 141.1999053955078 380.5963134765625" stroke-width="0.6000000238418579" fill="rgb(233, 92, 21)" opacity="1.0"/>
    <path d="M 187.1956787109375 354.733642578125 C 186.19671630859375 361.2155456542969 185.6756591796875 369.0619812011719 190.90887451171875 373.052001953125 C 193.05328369140625 374.5588073730469 195.6124267578125 375.36309814453125 198.2332763671875 375.35382080078125 C 204.71853637695312 375.50537109375 210.87496948242188 372.504150390625 214.75027465820312 367.3018798828125 C 218.02630615234375 362.8804931640625 219.22540283203125 357.350830078125 220.2601318359375 351.98046875 C 220.83648681640625 348.9627685546875 221.35272216796875 345.7382507324219 220.17190551757812 342.92022705078125 C 218.56719970703125 339.177001953125 214.416259765625 337.2591552734375 210.50531005859375 336.12725830078125 C 204.78366088867188 334.46356201171875 198.83047485351562 333.7369384765625 192.87664794921875 333.9755554199219 C 190.81964111328125 334.0619812011719 188.67276000976562 334.2903137207031 186.94110107421875 335.4024963378906 C 185.38385009765625 336.5189514160156 184.18511962890625 338.0644226074219 183.49105834960938 339.8504333496094 C 181.1749267578125 345.1861572265625 181.3160400390625 351.2693176269531 183.87713623046875 356.49188232421875 L 187.1956787109375 354.733642578125" stroke-width="0.6000000238418579" fill="rgb(70, 150, 179)" opacity="1.0"/>
  </g>
</svg>
