<?xml version="1.0" ?>
<svg xmlns="http://www.w3.org/2000/svg" version="1.1" width="600" height="600">
  <defs/>
  <g>
    <path d="M 355.19580078125 343.9798278808594 C 359.84417724609375 347.408447265625 367.58563232421875 343.34429931640625 367.82659912109375 337.6104736328125 C 368.0675354003906 331.87664794921875 361.1749267578125 327.2232971191406 355.7491455078125 329.20928955078125 C 350.3233947753906 331.1953125 347.9181213378906 338.6009521484375 350.78564453125 343.6231689453125 L 355.19580078125 343.9798278808594" stroke-width="0.6000000238418579" fill="rgb(233, 92, 21)" opacity="1.0"/>
    <path d="M 117.158203125 203.9610595703125 C 120.28189086914062 202.50640869140625 123.86233520507812 200.44485473632812 124.07891845703125 196.994140625 C 124.11166381835938 195.61752319335938 123.71646118164062 194.26467895507812 122.94775390625 193.12222290039062 C 121.12185668945312 190.24432373046875 118.01432800292969 188.429931640625 114.610595703125 188.25445556640625 C 111.722900390625 188.11297607421875 108.95692443847656 189.20233154296875 106.30850219726562 190.31707763671875 C 104.82177734375 190.9456787109375 103.26223754882812 191.660888671875 102.37544250488281 192.99899291992188 C 101.20803833007812 194.79229736328125 101.58111572265625 197.16552734375 102.22758483886719 199.20465087890625 C 103.16996765136719 202.1900634765625 104.58935546875 205.00323486328125 106.43069458007812 207.53509521484375 C 107.06857299804688 208.40869140625 107.79470825195312 209.28012084960938 108.78590393066406 209.7122802734375 C 109.72805786132812 210.06695556640625 110.75308227539062 210.13983154296875 111.7359619140625 209.92202758789062 C 114.74310302734375 209.3773193359375 117.35992431640625 207.54086303710938 118.8946533203125 204.89810180664062 L 117.158203125 203.9610595703125" stroke-width="0.6000000238418579" fill="rgb(70, 150, 179)" opacity="1.0"/>
    <path d="M 454.02032470703125 419.892822265625 C 455.54205322265625 423.42431640625 457.3770751953125 427.27490234375 460.922607421875 428.75732421875 C 464.7322998046875 430.3475341796875 469.2476806640625 428.49530029296875 472.1109619140625 425.521484375 C 473.21533203125 424.3753662109375 474.1778564453125 423.008056640625 474.4437255859375 421.43896484375 C 474.66278076171875 420.14910888671875 474.3970947265625 418.8299560546875 474.06256103515625 417.56549072265625 C 473.012451171875 413.57666015625 471.07086181640625 409.51727294921875 467.4901123046875 407.4716796875 C 463.8798828125 405.41253662109375 458.95123291015625 405.9692077636719 455.9049072265625 408.8019104003906 C 452.8585205078125 411.6346130371094 451.900390625 416.494873046875 453.67559814453125 420.25994873046875 L 454.02032470703125 419.892822265625" stroke-width="0.6000000238418579" fill="rgb(140, 28, 33)" opacity="1.0"/>
    <path d="M 89.19097900390625 206.66030883789062 C 92.43246459960938 205.60800170898438 95.7938232421875 204.477294921875 98.29962158203125 202.16375732421875 C 100.80535888671875 199.8502197265625 102.2166748046875 195.9666748046875 100.68612670898438 192.91958618164062 C 98.7884521484375 189.16253662109375 93.17837524414062 188.56634521484375 89.69515991210938 190.9429931640625 C 86.2119140625 193.319580078125 84.5902099609375 197.66201782226562 84.08572387695312 201.84320068359375 C 83.79989624023438 203.12188720703125 84.00375366210938 204.461181640625 84.6571044921875 205.59686279296875 C 85.41458129882812 206.63983154296875 87.27069091796875 206.9178466796875 87.93154907226562 205.80368041992188 L 89.19097900390625 206.66030883789062" stroke-width="0.6000000238418579" fill="rgb(159, 159, 159)" opacity="1.0"/>
    <path d="M 381.8769226074219 300.0770263671875 C 385.0787048339844 298.82049560546875 387.9197082519531 296.4396057128906 389.2785949707031 293.2818908691406 C 390.6374816894531 290.1241455078125 390.32891845703125 286.18804931640625 388.1170654296875 283.5374450683594 C 386.5508728027344 281.66546630859375 384.18194580078125 280.5704345703125 381.76190185546875 280.237060546875 C 379.34185791015625 279.9036865234375 376.8694152832031 280.27587890625 374.5234069824219 280.9586486816406 C 373.502685546875 281.25634765625 372.4535217285156 281.6425476074219 371.7525939941406 282.43841552734375 C 370.94854736328125 283.35052490234375 370.74908447265625 284.63128662109375 370.6399841308594 285.8459777832031 C 370.33197021484375 289.2752990722656 370.53778076171875 292.8824462890625 372.1944580078125 295.9013366699219 C 373.85113525390625 298.92022705078125 377.2502746582031 301.1726379394531 380.6460876464844 300.6551513671875 L 381.8769226074219 300.0770263671875" stroke-width="0.6000000238418579" fill="rgb(159, 159, 159)" opacity="1.0"/>
    <path d="M 101.79203796386719 429.5869140625 C 103.77899169921875 426.939208984375 105.87286376953125 423.91009521484375 105.43919372558594 420.63482666015625 C 105.02194213867188 417.448974609375 102.36236572265625 415.09039306640625 99.84674072265625 413.08929443359375 C 98.82357788085938 412.27783203125 97.74029541015625 411.4453430175781 96.45574951171875 411.2145080566406 C 94.283447265625 410.82281494140625 92.20309448242188 412.2374267578125 90.66304016113281 413.814208984375 C 89.23304748535156 415.2772216796875 88.02055358886719 416.93798828125 87.06265258789062 418.7457275390625 C 85.50621032714844 421.6802978515625 84.71939086914062 425.46881103515625 86.6160888671875 428.1944580078125 C 87.63790893554688 429.6673583984375 89.31375122070312 430.5963134765625 91.04991149902344 431.053955078125 C 92.78607177734375 431.511474609375 94.60433959960938 431.5399169921875 96.3997802734375 431.54241943359375 C 98.19522094726562 431.544921875 99.95947265625 431.5089111328125 101.55862426757812 430.79156494140625 L 101.79203796386719 429.5869140625" stroke-width="0.6000000238418579" fill="rgb(218, 166, 20)" opacity="1.0"/>
    <path d="M 98.81901550292969 141.9745330810547 C 105.30293273925781 142.0634002685547 110.6312255859375 136.8791961669922 110.7200927734375 130.39527893066406 C 110.72772216796875 129.84005737304688 110.6959228515625 129.28500366210938 110.62498474121094 128.73426818847656 C 110.35504150390625 126.64169311523438 109.44802856445312 124.546630859375 107.76736450195312 123.27272033691406 C 106.34719848632812 122.196044921875 104.53076171875 121.80194091796875 102.7596435546875 121.61474609375 C 98.01811218261719 121.12019348144531 93.23065185546875 121.90425109863281 88.89456176757812 123.88543701171875 C 87.74928283691406 124.41105651855469 86.61056518554688 125.043212890625 85.81501770019531 126.02392578125 C 84.47848510742188 127.66958618164062 84.35435485839844 130.03451538085938 84.90570068359375 132.08316040039062 C 85.72213745117188 135.125244140625 87.87501525878906 137.7191925048828 90.55149841308594 139.3810272216797 C 93.22796630859375 141.04287719726562 96.390380859375 141.82456970214844 99.53842163085938 141.93966674804688 L 98.81901550292969 141.9745330810547" stroke-width="0.6000000238418579" fill="rgb(143, 165, 67)" opacity="1.0"/>
    <path d="M 459.64501953125 344.0934143066406 C 463.45367431640625 350.7398986816406 475.022216796875 349.9461364746094 478.3802490234375 343.1158752441406 C 481.7381591796875 336.2856140136719 475.86053466796875 326.95281982421875 468.2135009765625 326.46240234375 C 460.5665283203125 325.97198486328125 453.68798828125 333.6742248535156 454.483154296875 341.30267333984375 L 459.64501953125 344.0934143066406" stroke-width="0.6000000238418579" fill="rgb(233, 92, 21)" opacity="1.0"/>
    <path d="M 99.34120178222656 219.2198486328125 C 101.60826110839844 216.57162475585938 104.04165649414062 213.173095703125 102.79539489746094 209.90472412109375 C 102.24880981445312 208.62332153320312 101.31808471679688 207.5430908203125 100.13156127929688 206.8131103515625 C 97.24443054199219 204.92791748046875 93.62265014648438 204.55905151367188 90.41473388671875 205.823486328125 C 87.69627380371094 206.90301513671875 85.60556030273438 209.06503295898438 83.63374328613281 211.20114135742188 C 82.52804565429688 212.40286254882812 81.39154052734375 213.71487426757812 81.13552856445312 215.31863403320312 C 80.81182861328125 217.4591064453125 82.14968872070312 219.48825073242188 83.59930419921875 221.09515380859375 C 85.71788024902344 223.44952392578125 88.20356750488281 225.4454345703125 90.95994567871094 227.0054931640625 C 91.91336059570312 227.54266357421875 92.94712829589844 228.04095458984375 94.04093933105469 228.02362060546875 C 95.05714416503906 227.95550537109375 96.03158569335938 227.59320068359375 96.84542846679688 226.9808349609375 C 99.38639831542969 225.2193603515625 101.0267333984375 222.431884765625 101.33282470703125 219.355224609375 L 99.34120178222656 219.2198486328125" stroke-width="0.6000000238418579" fill="rgb(70, 150, 179)" opacity="1.0"/>
    <path d="M 103.48910522460938 80.92112731933594 C 103.88352966308594 84.92880249023438 104.48898315429688 89.35446166992188 107.55464172363281 91.9617919921875 C 110.84951782226562 94.76065063476562 115.94395446777344 94.34954833984375 119.74697875976562 92.29373168945312 C 121.21359252929688 91.50173950195312 122.6090087890625 90.44381713867188 123.37358093261719 88.96290588378906 C 124.0025634765625 87.74575805664062 124.15725708007812 86.3450927734375 124.22589111328125 84.97706604003906 C 124.447509765625 80.66326904296875 123.80221557617188 75.99530029296875 120.88064575195312 72.81494140625 C 117.9339599609375 69.61166381835938 112.8394775390625 68.59864807128906 108.89869689941406 70.4554443359375 C 104.95791625976562 72.31222534179688 102.45533752441406 76.85638427734375 103.0283203125 81.17774963378906 L 103.48910522460938 80.92112731933594" stroke-width="0.6000000238418579" fill="rgb(140, 28, 33)" opacity="1.0"/>
    <path d="M 90.3951416015625 413.046875 C 94.01339721679688 411.6658020019531 97.76318359375 410.1888122558594 100.47380065917969 407.418701171875 C 103.18435668945312 404.64862060546875 104.56231689453125 400.15966796875 102.649658203125 396.78961181640625 C 100.27938842773438 392.6349182128906 93.87796020507812 392.2815856933594 90.0616455078125 395.17962646484375 C 86.24534606933594 398.0776672363281 84.655029296875 403.0994873046875 84.32342529296875 407.87396240234375 C 84.07269287109375 409.3416748046875 84.3812255859375 410.8499755859375 85.18820190429688 412.10125732421875 C 86.10800170898438 413.2413330078125 88.2305908203125 413.4498291015625 88.91641235351562 412.14727783203125 L 90.3951416015625 413.046875" stroke-width="0.6000000238418579" fill="rgb(159, 159, 159)" opacity="1.0"/>
    <path d="M 476.7220458984375 65.59619140625 C 478.44464111328125 62.26179504394531 479.0623779296875 58.26457214355469 477.9052734375 54.696380615234375 C 476.7481689453125 51.128204345703125 473.6630859375 48.121124267578125 469.9415283203125 47.538055419921875 C 467.309814453125 47.12913513183594 464.57861328125 47.9351806640625 462.35345458984375 49.40284729003906 C 460.1282958984375 50.870513916015625 458.36767578125 52.954681396484375 456.934326171875 55.202667236328125 C 456.3111572265625 56.181304931640625 455.72833251953125 57.252960205078125 455.7259521484375 58.41017150878906 C 455.7225341796875 59.736907958984375 456.4803466796875 60.93110656738281 457.2647705078125 62.006103515625 C 459.4793701171875 65.04103088378906 462.2435302734375 67.85215759277344 465.7745361328125 69.1368408203125 C 469.3056640625 70.4215087890625 473.7147216796875 69.82373046875 476.1282958984375 66.95599365234375 L 476.7220458984375 65.59619140625" stroke-width="0.6000000238418579" fill="rgb(159, 159, 159)" opacity="1.0"/>
    <path d="M 89.10775756835938 106.17025756835938 C 92.8673095703125 106.72317504882812 97.07015991210938 107.17489624023438 100.13601684570312 104.9423828125 C 103.12060546875 102.77545166015625 104.04191589355469 98.80023193359375 104.68148803710938 95.1661376953125 C 104.93914794921875 93.689453125 105.18511962890625 92.1405029296875 104.71392822265625 90.7183837890625 C 103.91836547851562 88.31265258789062 101.35137939453125 86.98968505859375 98.91688537597656 86.30058288574219 C 96.65750122070312 85.66011047363281 94.31787109375 85.34738159179688 91.96957397460938 85.37197875976562 C 88.1566162109375 85.4105224609375 83.90420532226562 86.69331359863281 82.19464111328125 90.10025024414062 C 81.26901245117188 91.93817138671875 81.25054931640625 94.13760375976562 81.74058532714844 96.1395263671875 C 82.23062133789062 98.14143371582031 83.19850158691406 99.99098205566406 84.1800537109375 101.80325317382812 C 85.16159057617188 103.61553955078125 86.16487121582031 105.37525939941406 87.76483154296875 106.59506225585938 L 89.10775756835938 106.17025756835938" stroke-width="0.6000000238418579" fill="rgb(218, 166, 20)" opacity="1.0"/>
    <path d="M 125.97183227539062 133.31346130371094 C 132.53944396972656 132.2917938232422 137.0353240966797 126.13946533203125 136.01365661621094 119.57183837890625 C 135.92617797851562 119.00946044921875 135.7989044189453 118.45399475097656 135.6328125 117.90960693359375 C 135.00131225585938 115.84121704101562 133.7255859375 113.87950134277344 131.80880737304688 112.8802490234375 C 130.18907165527344 112.03562927246094 128.28590393066406 111.94874572753906 126.4639892578125 112.06317138671875 C 121.58761596679688 112.37619018554688 116.88400268554688 113.98919677734375 112.84173583984375 116.73460388183594 C 111.77447509765625 117.46209716796875 110.73208618164062 118.29611206054688 110.09625244140625 119.42356872558594 C 109.0277099609375 121.31571960449219 109.30766296386719 123.72689819335938 110.21600341796875 125.70266723632812 C 111.56253051757812 128.63690185546875 114.18281555175781 130.8892059326172 117.17242431640625 132.1097869873047 C 120.16203308105469 133.33038330078125 123.4918212890625 133.57823181152344 126.69285583496094 133.1549072265625 L 125.97183227539062 133.31346130371094" stroke-width="0.6000000238418579" fill="rgb(143, 165, 67)" opacity="1.0"/>
    <path d="M 391.3141784667969 307.8301696777344 C 394.8391418457031 314.9933776855469 406.92388916015625 314.9274597167969 410.8651123046875 308.043701171875 C 414.8062744140625 301.1599426269531 409.30572509765625 291.0668029785156 401.3841857910156 290.0545654296875 C 393.4626159667969 289.04229736328125 385.80230712890625 296.601806640625 386.12847900390625 304.5885314941406 L 391.3141784667969 307.8301696777344" stroke-width="0.6000000238418579" fill="rgb(233, 92, 21)" opacity="1.0"/>
    <path d="M 122.23519897460938 108.34970092773438 C 125.80075073242188 107.133544921875 129.93377685546875 105.31100463867188 130.572509765625 101.58526611328125 C 130.7689971923828 100.09268188476562 130.49749755859375 98.57589721679688 129.79541015625 97.24417114257812 C 128.14695739746094 93.90238952636719 124.98101806640625 91.56690979003906 121.30154418945312 90.97833251953125 C 118.1790771484375 90.48704528808594 115.04502868652344 91.34796142578125 112.03581237792969 92.25018310546875 C 110.34623718261719 92.75971984863281 108.56736755371094 93.35490417480469 107.44699096679688 94.70584106445312 C 105.96841430664062 96.51876831054688 106.09658813476562 99.14218139648438 106.56100463867188 101.43429565429688 C 107.23648071289062 104.78968811035156 108.45062255859375 108.01361083984375 110.15628051757812 110.98104858398438 C 110.74760437011719 112.00521850585938 111.43508911132812 113.037353515625 112.4620361328125 113.62298583984375 C 113.44474792480469 114.11865234375 114.55047607421875 114.31765747070312 115.64434814453125 114.19577026367188 C 118.97686767578125 113.95510864257812 122.03607177734375 112.2646484375 124.01327514648438 109.57125854492188 L 122.23519897460938 108.34970092773438" stroke-width="0.6000000238418579" fill="rgb(70, 150, 179)" opacity="1.0"/>
    <path d="M 422.3189697265625 65.94363403320312 C 424.16162109375 69.30572509765625 426.34527587890625 72.95498657226562 430.00390625 74.09283447265625 C 433.934814453125 75.31277465820312 438.24237060546875 73.04946899414062 440.8045654296875 69.82839965820312 C 441.79296875 68.5869140625 442.61962890625 67.13919067382812 442.73590087890625 65.55673217773438 C 442.8319091796875 64.25592041015625 442.444091796875 62.971588134765625 441.99310302734375 61.74798583984375 C 440.5755615234375 57.887664794921875 438.2664794921875 54.041107177734375 434.5198974609375 52.347625732421875 C 430.7427978515625 50.64347839355469 425.9031982421875 51.65971374511719 423.14599609375 54.757965087890625 C 420.38885498046875 57.856201171875 419.8951416015625 62.770416259765625 422.0113525390625 66.34049987792969 L 422.3189697265625 65.94363403320312" stroke-width="0.6000000238418579" fill="rgb(140, 28, 33)" opacity="1.0"/>
    <path d="M 113.57106018066406 423.84320068359375 C 115.3323974609375 420.607421875 117.1295166015625 417.2210693359375 117.37582397460938 413.54254150390625 C 117.62213134765625 409.8641052246094 115.84228515625 405.76727294921875 112.37579345703125 404.5140380859375 C 108.09333801269531 402.9766540527344 103.24771118164062 406.67974853515625 102.28126525878906 411.13446044921875 C 101.3148193359375 415.58917236328125 103.27069091796875 420.2025146484375 105.98342895507812 423.85870361328125 C 106.70977783203125 425.0745849609375 107.86549377441406 425.97406005859375 109.22256469726562 426.3795166015625 C 110.59239196777344 426.634765625 112.25563049316406 425.47296142578125 111.94586181640625 424.1072998046875 L 113.57106018066406 423.84320068359375" stroke-width="0.6000000238418579" fill="rgb(159, 159, 159)" opacity="1.0"/>
    <path d="M 464.04437255859375 443.792236328125 C 464.452392578125 441.158935546875 463.967041015625 438.3284912109375 462.38360595703125 436.1871337890625 C 460.80010986328125 434.045654296875 458.045166015625 432.7166748046875 455.40814208984375 433.1630859375 C 453.54412841796875 433.48114013671875 451.8870849609375 434.63958740234375 450.7198486328125 436.12939453125 C 449.5526123046875 437.619140625 448.837158203125 439.41925048828125 448.37896728515625 441.255859375 C 448.1800537109375 442.05523681640625 448.02923583984375 442.90814208984375 448.28851318359375 443.687744140625 C 448.5853271484375 444.581787109375 449.36480712890625 445.21490478515625 450.13525390625 445.7618408203125 C 452.31048583984375 447.3057861328125 454.80517578125 448.57525634765625 457.47216796875 448.64404296875 C 460.13909912109375 448.712890625 462.9727783203125 447.31640625 463.951171875 444.841552734375 L 464.04437255859375 443.792236328125" stroke-width="0.6000000238418579" fill="rgb(159, 159, 159)" opacity="1.0"/>
    <path d="M 452.98883056640625 286.7883605957031 C 454.82476806640625 283.4835510253906 456.7222900390625 279.7305603027344 455.721923828125 276.0924377441406 C 454.7540283203125 272.552978515625 451.3779296875 270.29840087890625 448.2203369140625 268.4259033203125 C 446.9365234375 267.6671142578125 445.581298828125 266.893798828125 444.092041015625 266.8325500488281 C 441.5733642578125 266.7275085449219 439.4398193359375 268.6517333984375 437.94287109375 270.6754150390625 C 436.55267333984375 272.5531921386719 435.4393310546875 274.6208801269531 434.636962890625 276.8151550292969 C 433.332763671875 280.3775634765625 433.03216552734375 284.7862548828125 435.602294921875 287.5747985839844 C 436.987548828125 289.082275390625 439.0281982421875 289.8724365234375 441.06365966796875 290.1199035644531 C 443.09912109375 290.3674011230469 445.1607666015625 290.1165771484375 447.19244384765625 289.8399658203125 C 449.22418212890625 289.5633544921875 451.214599609375 289.2480163574219 452.9122314453125 288.18756103515625 L 452.98883056640625 286.7883605957031" stroke-width="0.6000000238418579" fill="rgb(218, 166, 20)" opacity="1.0"/>
    <path d="M 425.8035888671875 360.68695068359375 C 425.8282470703125 366.3154602050781 430.4111328125 370.85821533203125 436.0396728515625 370.83349609375 C 436.5216064453125 370.8313903808594 437.0028076171875 370.7950744628906 437.4796142578125 370.7248840332031 C 439.29150390625 370.4577331542969 441.095458984375 369.6376647949219 442.174560546875 368.1590881347656 C 443.086669921875 366.90966796875 443.40020751953125 365.32708740234375 443.53485107421875 363.78704833984375 C 443.8895263671875 359.664306640625 443.1339111328125 355.52178955078125 441.346435546875 351.789794921875 C 440.87225341796875 350.80413818359375 440.3057861328125 349.8258361816406 439.442138671875 349.15081787109375 C 437.992919921875 348.0167236328125 435.9385986328125 347.9461364746094 434.1693115234375 348.4568176269531 C 431.54205322265625 349.213134765625 429.32470703125 351.1222839355469 427.92449951171875 353.47119140625 C 426.5242919921875 355.8200988769531 425.89556884765625 358.5768737792969 425.8450927734375 361.3107604980469 L 425.8035888671875 360.68695068359375" stroke-width="0.6000000238418579" fill="rgb(143, 165, 67)" opacity="1.0"/>
    <path d="M 450.54278564453125 345.52008056640625 C 456.711181640625 341.6416320800781 455.50634765625 330.67803955078125 448.88427734375 327.7526550292969 C 442.26220703125 324.8272705078125 433.621337890625 330.77667236328125 433.4530029296875 338.06329345703125 C 433.28466796875 345.34991455078125 440.87255859375 351.5872802734375 448.091552734375 350.53448486328125 L 450.54278564453125 345.52008056640625" stroke-width="0.6000000238418579" fill="rgb(233, 92, 21)" opacity="1.0"/>
    <path d="M 453.5194091796875 73.93478393554688 C 456.314453125 72.19131469726562 459.4725341796875 69.81881713867188 459.2769775390625 66.51908874511719 C 459.14801025390625 65.20896911621094 458.61572265625 63.97113037109375 457.75341796875 62.976348876953125 C 455.686279296875 60.45762634277344 452.5264892578125 59.09709167480469 449.276123046875 59.326202392578125 C 446.5194091796875 59.527618408203125 444.021240234375 60.88287353515625 441.63763427734375 62.24853515625 C 440.2999267578125 63.01786804199219 438.903076171875 63.877838134765625 438.21710205078125 65.25071716308594 C 437.3177490234375 67.088134765625 437.9476318359375 69.296875 438.798095703125 71.15670776367188 C 440.0394287109375 73.88017272949219 441.71337890625 76.38475036621094 443.7550048828125 78.57331848144531 C 444.46185302734375 79.32815551757812 445.252197265625 80.07069396972656 446.2430419921875 80.36557006835938 C 447.1783447265625 80.59263610839844 448.15948486328125 80.54264831542969 449.06689453125 80.22171020507812 C 451.857177734375 79.35525512695312 454.12689208984375 77.30838012695312 455.276123046875 74.62214660644531 L 453.5194091796875 73.93478393554688" stroke-width="0.6000000238418579" fill="rgb(70, 150, 179)" opacity="1.0"/>
    <path d="M 449.87646484375 396.4263000488281 C 450.2254638671875 392.4322509765625 450.44451904296875 387.9905090332031 447.9227294921875 384.8769226074219 C 445.2117919921875 381.53387451171875 440.1512451171875 381.001953125 436.0528564453125 382.3162841796875 C 434.472412109375 382.8223571777344 432.9129638671875 383.6016845703125 431.8931884765625 384.9106140136719 C 431.05450439453125 385.986328125 430.646240234375 387.3285827636719 430.3282470703125 388.6546630859375 C 429.3203125 392.8352966308594 429.09576416015625 397.521484375 431.3714599609375 401.16937255859375 C 433.66754150390625 404.84429931640625 438.4669189453125 406.7698059082031 442.6636962890625 405.6755065917969 C 446.8604736328125 404.5812072753906 450.1427001953125 400.5934143066406 450.3743896484375 396.2596740722656 L 449.87646484375 396.4263000488281" stroke-width="0.6000000238418579" fill="rgb(140, 28, 33)" opacity="1.0"/>
    <path d="M 126.89031982421875 217.21286010742188 C 122.63671875 219.745849609375 118.23854064941406 222.42843627929688 115.43267822265625 226.51153564453125 C 112.62689208984375 230.59457397460938 111.87631225585938 236.5499267578125 115.02426147460938 240.37429809570312 C 118.92059326171875 245.08645629882812 127.0595703125 244.12713623046875 131.2298126220703 239.640380859375 C 135.40003967285156 235.15365600585938 136.30113220214844 228.48065185546875 135.67137145996094 222.39532470703125 C 135.6651611328125 220.49200439453125 134.9457244873047 218.6602783203125 133.65499877929688 217.26153564453125 C 132.24659729003906 216.027587890625 129.52780151367188 216.2305908203125 128.94989013671875 218.02142333984375 L 126.89031982421875 217.21286010742188" stroke-width="0.6000000238418579" fill="rgb(159, 159, 159)" opacity="1.0"/>
    <path d="M 109.48138427734375 232.80294799804688 C 104.74003601074219 229.9560546875 98.92001342773438 228.671630859375 93.56393432617188 230.03753662109375 C 88.20785522460938 231.4034423828125 83.49555969238281 235.6572265625 82.28797912597656 241.07513427734375 C 81.43905639648438 244.90670776367188 82.36741638183594 248.99896240234375 84.31636047363281 252.40927124023438 C 86.26530456542969 255.81964111328125 89.16455078125 258.60467529296875 92.33547973632812 260.92401123046875 C 93.71600341796875 261.9324951171875 95.23707580566406 262.89044189453125 96.9385986328125 263.0028381347656 C 98.88931274414062 263.13262939453125 100.71675109863281 262.13055419921875 102.37139892578125 261.0781555175781 C 107.04277038574219 258.1069641113281 111.43673706054688 254.30670166015625 113.65814208984375 249.23492431640625 C 115.8795166015625 244.16314697265625 115.415283203125 237.62310791015625 111.42520141601562 233.8040771484375 L 109.48138427734375 232.80294799804688" stroke-width="0.6000000238418579" fill="rgb(159, 159, 159)" opacity="1.0"/>
    <path d="M 300.91778564453125 99.37019348144531 C 299.5986022949219 103.90524291992188 298.3287048339844 109.0032958984375 300.556884765625 113.1572265625 C 302.7181091308594 117.19998168945312 307.4561462402344 119.00936889648438 311.822021484375 120.4139404296875 C 313.596435546875 120.98193359375 315.4617919921875 121.54783630371094 317.29278564453125 121.20913696289062 C 320.3899230957031 120.63813781738281 322.4547424316406 117.70220947265625 323.71661376953125 114.82174682617188 C 324.88885498046875 112.14865112304688 325.6711730957031 109.32107543945312 326.0396728515625 106.42556762695312 C 326.63970947265625 101.72431945800781 325.7823486328125 96.27072143554688 321.8778991699219 93.5872802734375 C 319.7721252441406 92.135498046875 317.06719970703125 91.73928833007812 314.5191345214844 92.00270080566406 C 311.9710693359375 92.26611328125 309.52947998046875 93.14373779296875 307.13140869140625 94.04452514648438 C 304.7333679199219 94.94528198242188 302.3963623046875 95.88177490234375 300.622802734375 97.64459228515625 L 300.91778564453125 99.37019348144531" stroke-width="0.6000000238418579" fill="rgb(218, 166, 20)" opacity="1.0"/>
    <path d="M 222.77294921875 120.22640991210938 C 217.46334838867188 112.74819946289062 207.09677124023438 110.99020385742188 199.61856079101562 116.2998046875 C 198.97821044921875 116.75445556640625 198.37091064453125 117.25398254394531 197.80123901367188 117.79458618164062 C 195.636962890625 119.84918212890625 194.00152587890625 122.63331604003906 193.94943237304688 125.6156005859375 C 193.9051513671875 128.13583374023438 194.97100830078125 130.5389404296875 196.23529052734375 132.71762084960938 C 199.6275634765625 138.54473876953125 204.51821899414062 143.35726928710938 210.39920043945312 146.65530395507812 C 211.9552001953125 147.5244598388672 213.6273193359375 148.29721069335938 215.41116333007812 148.38720703125 C 218.40576171875 148.5400390625 221.20986938476562 146.70816040039062 223.089111328125 144.368896484375 C 225.88153076171875 140.8978729248047 227.04693603515625 136.27471923828125 226.71099853515625 131.83154296875 C 226.37503051757812 127.38839721679688 224.62850952148438 123.12484741210938 222.13275146484375 119.43400573730469 L 222.77294921875 120.22640991210938" stroke-width="0.6000000238418579" fill="rgb(143, 165, 67)" opacity="1.0"/>
    <path d="M 222.68121337890625 89.51638793945312 C 223.09017944335938 99.72433471679688 237.2618408203125 105.91413879394531 245.44232177734375 99.90496826171875 C 253.62274169921875 93.89576721191406 252.4219970703125 79.23568725585938 243.6798095703125 73.94351196289062 C 234.93765258789062 68.65133666992188 222.055908203125 73.52239990234375 218.29571533203125 83.03488159179688 L 222.68121337890625 89.51638793945312" stroke-width="0.6000000238418579" fill="rgb(233, 92, 21)" opacity="1.0"/>
    <path d="M 196.62091064453125 99.56147766113281 C 194.93258666992188 94.62557983398438 192.4039306640625 88.90463256835938 187.2440185546875 88.02459716796875 C 185.17697143554688 87.7542724609375 183.07696533203125 88.13204956054688 181.23370361328125 89.1058349609375 C 176.60821533203125 91.39248657226562 173.37796020507812 95.77923583984375 172.56732177734375 100.87501525878906 C 171.8907470703125 105.19940185546875 173.08660888671875 109.53817749023438 174.33950805664062 113.70405578613281 C 175.047119140625 116.04306030273438 175.8734130859375 118.505615234375 177.74542236328125 120.055419921875 C 180.257568359375 122.1007080078125 183.89013671875 121.92010498046875 187.06356811523438 121.27427673339844 C 191.70907592773438 120.33491516113281 196.17190551757812 118.64984130859375 200.27899169921875 116.28439331054688 C 201.69647216796875 115.46435546875 203.1248779296875 114.51113891601562 203.93460083007812 113.08840942382812 C 204.61981201171875 111.72702026367188 204.89404296875 110.19566345214844 204.72396850585938 108.68109130859375 C 204.38671875 104.06671142578125 202.04226684570312 99.83255004882812 198.310302734375 97.09786987304688 L 196.62091064453125 99.56147766113281" stroke-width="0.6000000238418579" fill="rgb(70, 150, 179)" opacity="1.0"/>
    <path d="M 265.68511962890625 132.70877075195312 C 262.6440734863281 136.9282684326172 259.45050048828125 141.73294067382812 260.19342041015625 146.87741088867188 C 260.99481201171875 152.40322875976562 266.2813720703125 156.35635375976562 271.7216796875 157.613037109375 C 273.8190002441406 158.09844970703125 276.0744934082031 158.26547241210938 278.0801086425781 157.48382568359375 C 279.7290954589844 156.8419189453125 281.0753173828125 155.61709594726562 282.310302734375 154.35040283203125 C 286.20965576171875 150.3605194091797 289.57159423828125 145.28707885742188 289.4577331542969 139.71054077148438 C 289.3390808105469 134.09033203125 285.26885986328125 128.7574920654297 279.8651123046875 127.1903076171875 C 274.46136474609375 125.62313842773438 268.155517578125 127.88790893554688 265.01953125 132.56381225585938 L 265.68511962890625 132.70877075195312" stroke-width="0.6000000238418579" fill="rgb(140, 28, 33)" opacity="1.0"/>
    <path d="M 306.6295166015625 123.882080078125 C 301.82049560546875 124.27728271484375 296.82080078125 124.74151611328125 292.6151428222656 127.114013671875 C 288.4095458984375 129.4864959716797 285.2010803222656 134.37857055664062 286.31854248046875 139.07530212402344 C 287.7108459472656 144.8698272705078 295.2471618652344 147.51686096191406 300.8202209472656 145.37551879882812 C 306.39324951171875 143.2341766357422 310.04095458984375 137.77830505371094 312.0966796875 132.18104553222656 C 312.9066467285156 130.5121307373047 313.06158447265625 128.6002960205078 312.5308532714844 126.82278442382812 C 311.82647705078125 125.13916015625 309.3593444824219 124.152099609375 308.086181640625 125.4722900390625 L 306.6295166015625 123.882080078125" stroke-width="0.6000000238418579" fill="rgb(159, 159, 159)" opacity="1.0"/>
    <path d="M 195.460693359375 133.31954956054688 C 191.98828125 128.9208221435547 186.93316650390625 125.61598205566406 181.36709594726562 124.9893798828125 C 175.801025390625 124.36276245117188 169.80926513671875 126.70401000976562 166.72149658203125 131.4055938720703 C 164.54263305664062 134.73243713378906 163.95468139648438 138.9437713623047 164.57855224609375 142.87489318847656 C 165.202392578125 146.80604553222656 166.951171875 150.4854278564453 169.12445068359375 153.82089233398438 C 170.07110595703125 155.2718505859375 171.1690673828125 156.72528076171875 172.7413330078125 157.442138671875 C 174.54351806640625 158.26483154296875 176.6348876953125 157.9705810546875 178.58053588867188 157.56668090820312 C 184.07345581054688 156.42633056640625 189.600830078125 154.40072631835938 193.5252685546875 150.3908233642578 C 197.44970703125 146.38088989257812 199.35552978515625 140.0161590576172 196.94378662109375 134.965576171875 L 195.460693359375 133.31954956054688" stroke-width="0.6000000238418579" fill="rgb(159, 159, 159)" opacity="1.0"/>
    <path d="M 281.7991638183594 97.15777587890625 C 277.4940185546875 99.98280334472656 272.8310241699219 103.3094482421875 271.7362976074219 108.33070373535156 C 270.6648254394531 113.21240234375 273.3109436035156 118.06765747070312 275.93524169921875 122.32377624511719 C 277.0038757324219 124.05119323730469 278.1493835449219 125.84130859375 279.9070129394531 126.85723876953125 C 282.8786926269531 128.57723999023438 286.6694641113281 127.60581970214844 289.7553405761719 126.11172485351562 C 292.6200866699219 124.72607421875 295.2710266113281 122.93624877929688 297.62701416015625 120.79702758789062 C 301.4537048339844 117.32493591308594 304.60516357421875 112.1971435546875 303.2690124511719 107.20767211914062 C 302.55157470703125 104.51298522949219 300.5899963378906 102.26899719238281 298.291259765625 100.68284606933594 C 295.9925537109375 99.09671020507812 293.34710693359375 98.0950927734375 290.72137451171875 97.14353942871094 C 288.0956726074219 96.19197082519531 285.4952392578125 95.31320190429688 282.77667236328125 95.51846313476562 L 281.7991638183594 97.15777587890625" stroke-width="0.6000000238418579" fill="rgb(218, 166, 20)" opacity="1.0"/>
    <path d="M 235.54257202148438 118.1214599609375 C 234.31765747070312 126.83316040039062 240.38690185546875 134.88841247558594 249.09860229492188 136.1133270263672 C 249.8446044921875 136.21823120117188 250.59707641601562 136.27005004882812 251.35040283203125 136.26846313476562 C 254.212890625 136.26185607910156 257.1872863769531 135.39822387695312 259.1883544921875 133.35336303710938 C 260.8796081542969 131.62545776367188 261.71966552734375 129.2478485107422 262.2735595703125 126.89596557617188 C 263.7474670410156 120.59854125976562 263.50830078125 114.02130126953125 261.5809326171875 107.84751892089844 C 261.0687255859375 106.21646118164062 260.4120178222656 104.57609558105469 259.2276611328125 103.33816528320312 C 257.2405700683594 101.25872802734375 254.0787353515625 100.68852233886719 251.2274169921875 101.08135986328125 C 246.99383544921875 101.66165161132812 243.13555908203125 104.1170654296875 240.44256591796875 107.43612670898438 C 237.7496337890625 110.75515747070312 236.15841674804688 114.87826538085938 235.46685791015625 119.09567260742188 L 235.54257202148438 118.1214599609375" stroke-width="0.6000000238418579" fill="rgb(143, 165, 67)" opacity="1.0"/>
    <path d="M 253.503662109375 88.22006225585938 C 252.98043823242188 99.21743774414062 267.6110534667969 107.19851684570312 276.9597473144531 101.51849365234375 C 286.30841064453125 95.83843994140625 286.40130615234375 79.98678588867188 277.51495361328125 73.48121643066406 C 268.6286315917969 66.97563171386719 254.34014892578125 70.99064636230469 249.4066162109375 80.84837341308594 L 253.503662109375 88.22006225585938" stroke-width="0.6000000238418579" fill="rgb(233, 92, 21)" opacity="1.0"/>
    <path d="M 341.0478210449219 79.55130004882812 C 337.001220703125 76.66259765625 331.86785888671875 73.63165283203125 327.3807678222656 75.81204223632812 C 325.62884521484375 76.74925231933594 324.2109069824219 78.20700073242188 323.3226013183594 79.98420715332031 C 321.00634765625 84.32232666015625 320.93646240234375 89.51400756835938 323.1351013183594 93.91290283203125 C 325.0096740722656 97.63961791992188 328.3433837890625 100.3387451171875 331.6253967285156 102.87223815917969 C 333.4713439941406 104.29241943359375 335.477783203125 105.74249267578125 337.788330078125 105.90509033203125 C 340.869873046875 106.09657287597656 343.58489990234375 103.94145202636719 345.68603515625 101.68049621582031 C 348.7651672363281 98.37542724609375 351.2890625 94.59375 353.1597900390625 90.482177734375 C 353.80340576171875 89.060302734375 354.38165283203125 87.52914428710938 354.21990966796875 85.97735595703125 C 353.9957275390625 84.54217529296875 353.3587646484375 83.20323181152344 352.38671875 82.12380981445312 C 349.5655822753906 78.73477172851562 345.3997497558594 76.75390625 340.99041748046875 76.704833984375 L 341.0478210449219 79.55130004882812" stroke-width="0.6000000238418579" fill="rgb(70, 150, 179)" opacity="1.0"/>
    <path d="M 334.37225341796875 137.023193359375 C 333.1209411621094 132.21961975097656 331.53228759765625 126.94775390625 327.2981262207031 124.36309814453125 C 322.7480163574219 121.58932495117188 316.6244812011719 123.07003784179688 312.3897399902344 126.30474853515625 C 310.7565002441406 127.55120849609375 309.26104736328125 129.1077423095703 308.6151123046875 131.05789184570312 C 308.08349609375 132.66082763671875 308.1646423339844 134.39593505859375 308.3442687988281 136.07473754882812 C 308.9044189453125 141.36956787109375 310.5882263183594 146.92877197265625 314.7572021484375 150.23883056640625 C 318.961181640625 153.5719757080078 325.3587646484375 153.82516479492188 329.7995300292969 150.8062744140625 C 334.24029541015625 147.78738403320312 336.4129638671875 141.7732391357422 334.8839111328125 136.62208557128906 L 334.37225341796875 137.023193359375" stroke-width="0.6000000238418579" fill="rgb(140, 28, 33)" opacity="1.0"/>
    <path d="M 346.385986328125 106.80352783203125 C 341.5260314941406 105.84591674804688 336.4584045410156 104.90304565429688 331.64007568359375 106.06723022460938 C 326.8218078613281 107.2314453125 322.2820739746094 111.16337585449219 322.0692138671875 116.11488342285156 C 321.820068359375 122.22758483886719 328.5207214355469 126.95401000976562 334.6246337890625 126.40135192871094 C 340.7285461425781 125.84869384765625 345.8600769042969 121.48307800292969 349.4590759277344 116.53164672851562 C 350.72674560546875 115.11050415039062 351.41558837890625 113.265869140625 351.3896789550781 111.36170959472656 C 351.16595458984375 109.50161743164062 349.00616455078125 107.8353271484375 347.3788146972656 108.78224182128906 L 346.385986328125 106.80352783203125" stroke-width="0.6000000238418579" fill="rgb(159, 159, 159)" opacity="1.0"/>
    <path d="M 346.10687255859375 122.80514526367188 C 341.6539611816406 123.94326782226562 337.4939880371094 126.63185119628906 335.1712646484375 130.5950164794922 C 332.8485412597656 134.5581817626953 332.6085205078125 139.82847595214844 335.1043701171875 143.70803833007812 C 336.8724365234375 146.44869995117188 339.8330993652344 148.29144287109375 342.9872131347656 149.13262939453125 C 346.14129638671875 149.9738311767578 349.4812316894531 149.88807678222656 352.7047119140625 149.36964416503906 C 354.10736083984375 149.1431884765625 355.562255859375 148.80413818359375 356.62298583984375 147.8643798828125 C 357.839599609375 146.7875213623047 358.3153381347656 145.12208557128906 358.6603698730469 143.5293426513672 C 359.6343994140625 139.03273010253906 359.9563903808594 134.21556091308594 358.25750732421875 129.93917846679688 C 356.55859375 125.66281127929688 352.4226989746094 122.11541748046875 347.8343505859375 122.24154663085938 L 346.10687255859375 122.80514526367188" stroke-width="0.6000000238418579" fill="rgb(159, 159, 159)" opacity="1.0"/>
    <path d="M 360.93157958984375 103.73355102539062 C 356.7253723144531 103.81990051269531 352.0537109375 104.09808349609375 349.11614990234375 107.09829711914062 C 346.2552185058594 110.01197814941406 345.97894287109375 114.52127075195312 345.9476318359375 118.60641479492188 C 345.9373779296875 120.26597595214844 345.9530944824219 122.00228881835938 346.72857666015625 123.46849060058594 C 348.0387268066406 125.94906616210938 351.0841979980469 126.92239379882812 353.86871337890625 127.22793579101562 C 356.4530944824219 127.51251220703125 359.06494140625 127.42453002929688 361.6242980957031 126.9666748046875 C 365.7802734375 126.22476196289062 370.18768310546875 124.04371643066406 371.4289245605469 120.01020812988281 C 372.1022033691406 117.83363342285156 371.7186584472656 115.42889404296875 370.8161926269531 113.33309936523438 C 369.9137268066406 111.23731994628906 368.51751708984375 109.39559936523438 367.1132507324219 107.59707641601562 C 365.7089538574219 105.79855346679688 364.29058837890625 104.0614013671875 362.31982421875 103.02328491210938 L 360.93157958984375 103.73355102539062" stroke-width="0.6000000238418579" fill="rgb(218, 166, 20)" opacity="1.0"/>
    <path d="M 429.46875 142.61180114746094 C 420.9259033203125 144.31080627441406 415.3778076171875 152.6134796142578 417.07684326171875 161.1563720703125 C 417.22235107421875 161.88787841796875 417.4195556640625 162.608154296875 417.6669921875 163.31179809570312 C 418.60760498046875 165.9852294921875 420.3858642578125 168.4835205078125 422.950439453125 169.68646240234375 C 425.11767578125 170.70318603515625 427.61431884765625 170.71224975585938 429.99346923828125 170.46218872070312 C 436.3609619140625 169.7840576171875 442.4307861328125 167.41336059570312 447.572265625 163.59637451171875 C 448.9296875 162.58514404296875 450.24853515625 161.435791015625 451.01904296875 159.92462158203125 C 452.31402587890625 157.388427734375 451.8148193359375 154.24685668945312 450.516845703125 151.7099151611328 C 448.59234619140625 147.94215393066406 445.0377197265625 145.1373291015625 441.05615234375 143.70367431640625 C 437.07470703125 142.27001953125 432.7012939453125 142.12869262695312 428.533447265625 142.8590545654297 L 429.46875 142.61180114746094" stroke-width="0.6000000238418579" fill="rgb(143, 165, 67)" opacity="1.0"/>
    <path d="M 145.96913146972656 410.84613037109375 C 147.27127075195312 420.87725830078125 161.79248046875 425.73388671875 169.33102416992188 419.08734130859375 C 176.8695068359375 412.44073486328125 174.39450073242188 398.0885925292969 165.30694580078125 393.63916015625 C 156.2193603515625 389.189697265625 143.94422912597656 395.1278076171875 141.07345581054688 404.8401794433594 L 145.96913146972656 410.84613037109375" stroke-width="0.6000000238418579" fill="rgb(233, 92, 21)" opacity="1.0"/>
    <path d="M 434.123046875 193.290771484375 C 429.32305908203125 192.19015502929688 423.47528076171875 191.37322998046875 420.20257568359375 195.07537841796875 C 418.95751953125 196.599365234375 418.216064453125 198.47216796875 418.0804443359375 200.43539428710938 C 417.6142578125 205.283935546875 419.527099609375 210.05764770507812 423.2122802734375 213.24276733398438 C 426.34521484375 215.93658447265625 430.421142578125 217.13531494140625 434.38671875 218.2022705078125 C 436.6153564453125 218.79800415039062 439.0020751953125 219.35995483398438 441.17669677734375 218.62890625 C 444.0672607421875 217.6307373046875 445.729248046875 214.62640380859375 446.78961181640625 211.75906372070312 C 448.3466796875 207.56463623046875 449.214599609375 203.1458740234375 449.35968017578125 198.674072265625 C 449.4068603515625 197.12890625 449.3525390625 195.50872802734375 448.6138916015625 194.1513671875 C 447.8624267578125 192.92446899414062 446.77020263671875 191.94268798828125 445.470458984375 191.3258056640625 C 441.6004638671875 189.30108642578125 437.03717041015625 189.07595825195312 432.98675537109375 190.70993041992188 L 434.123046875 193.290771484375" stroke-width="0.6000000238418579" fill="rgb(70, 150, 179)" opacity="1.0"/>
    <path d="M 409.30926513671875 158.79852294921875 C 408.85784912109375 153.91958618164062 408.1526184082031 148.53060913085938 404.441162109375 145.3365020751953 C 400.4521789550781 141.90769958496094 394.2508544921875 142.3717041015625 389.609130859375 144.8459930419922 C 387.8190612792969 145.79920959472656 386.1137390136719 147.0764617919922 385.1729736328125 148.8728485107422 C 384.3990478515625 150.3492889404297 384.20086669921875 152.05238342285156 384.107666015625 153.71636962890625 C 383.807373046875 158.96337890625 384.559326171875 164.6474609375 388.0914001464844 168.53778076171875 C 391.65386962890625 172.45611572265625 397.8451232910156 173.724853515625 402.653076171875 171.49371337890625 C 407.46099853515625 169.2625732421875 410.5381774902344 163.75146484375 409.8717346191406 158.48956298828125 L 409.30926513671875 158.79852294921875" stroke-width="0.6000000238418579" fill="rgb(140, 28, 33)" opacity="1.0"/>
    <path d="M 143.10369873046875 130.79086303710938 C 138.5206298828125 133.0889129638672 133.7770233154297 135.5306854248047 130.57334899902344 139.53817749023438 C 127.36973571777344 143.54562377929688 126.14889526367188 149.64071655273438 129.11424255371094 153.82647705078125 C 132.7861785888672 158.98516845703125 141.2647247314453 158.603271484375 145.90786743164062 154.2809600830078 C 150.55101013183594 149.95863342285156 151.9810333251953 143.13351440429688 151.78587341308594 136.80084228515625 C 151.921875 134.83445739746094 151.31582641601562 132.88861083984375 150.0872802734375 131.34727478027344 C 148.72486877441406 129.96737670898438 145.9014434814453 129.9736328125 145.17051696777344 131.78012084960938 L 143.10369873046875 130.79086303710938" stroke-width="0.6000000238418579" fill="rgb(159, 159, 159)" opacity="1.0"/>
    <path d="M 427.9930419921875 171.564208984375 C 423.7149658203125 169.24063110351562 418.54754638671875 168.33218383789062 413.888916015625 169.73703002929688 C 409.230224609375 171.14187622070312 405.2475280761719 175.06210327148438 404.3913879394531 179.8729248046875 C 403.7904052734375 183.2750244140625 404.76239013671875 186.83877563476562 406.6060791015625 189.7640380859375 C 408.4497375488281 192.68927001953125 411.10540771484375 195.02850341796875 413.9822998046875 196.94778442382812 C 415.23480224609375 197.78228759765625 416.6090087890625 198.56695556640625 418.1097412109375 198.60113525390625 C 419.83026123046875 198.64117431640625 421.39935302734375 197.69039916992188 422.8145751953125 196.70196533203125 C 426.81005859375 193.91131591796875 430.530029296875 190.40203857421875 432.29095458984375 185.85711669921875 C 434.0518798828125 181.3121337890625 433.39501953125 175.57794189453125 429.74066162109375 172.370849609375 L 427.9930419921875 171.564208984375" stroke-width="0.6000000238418579" fill="rgb(159, 159, 159)" opacity="1.0"/>
    <path d="M 408.6330871582031 189.02957153320312 C 407.6904602050781 184.456298828125 406.444580078125 179.41372680664062 402.57763671875 176.81277465820312 C 398.820556640625 174.27804565429688 393.8433532714844 174.88601684570312 389.37847900390625 175.67584228515625 C 387.5651550292969 175.99935913085938 385.6733093261719 176.36672973632812 384.2294921875 177.50885009765625 C 381.7864074707031 179.4390869140625 381.3384094238281 182.959228515625 381.56658935546875 186.05987548828125 C 381.7772521972656 188.93792724609375 382.40008544921875 191.770751953125 383.416015625 194.47174072265625 C 385.0639953613281 198.85797119140625 388.3333740234375 203.22830200195312 392.9859313964844 203.76943969726562 C 395.49725341796875 204.06524658203125 398.0444641113281 203.16162109375 400.1498107910156 201.75396728515625 C 402.255126953125 200.34625244140625 403.98358154296875 198.45098876953125 405.6632385253906 196.5555419921875 C 407.3429260253906 194.66015625 408.9527893066406 192.76171875 409.68829345703125 190.40145874023438 L 408.6330871582031 189.02957153320312" stroke-width="0.6000000238418579" fill="rgb(218, 166, 20)" opacity="1.0"/>
    <path d="M 442.0338134765625 180.7999267578125 C 442.01458740234375 189.06430053710938 448.6986083984375 195.77947998046875 456.96295166015625 195.79876708984375 C 457.670654296875 195.8004150390625 458.3775634765625 195.7518310546875 459.078369140625 195.6534423828125 C 461.7412109375 195.27911376953125 464.39794921875 194.09283447265625 465.9970703125 191.93255615234375 C 467.3486328125 190.10708618164062 467.82452392578125 187.7864990234375 468.03741455078125 185.52667236328125 C 468.59893798828125 179.4769287109375 467.53033447265625 173.38714599609375 464.942626953125 167.88998413085938 C 464.2562255859375 166.43804931640625 463.43408203125 164.99606323242188 462.1727294921875 163.99642944335938 C 460.05609130859375 162.3170166015625 457.04046630859375 162.193115234375 454.4376220703125 162.92544555664062 C 450.57269287109375 164.010009765625 447.2982177734375 166.791259765625 445.2191162109375 170.22622680664062 C 443.14007568359375 173.66119384765625 442.189697265625 177.70269775390625 442.08868408203125 181.71624755859375 L 442.0338134765625 180.7999267578125" stroke-width="0.6000000238418579" fill="rgb(143, 165, 67)" opacity="1.0"/>
    <path d="M 146.70008850097656 102.9737548828125 C 135.8456573486328 108.64105224609375 136.38941955566406 127.16850280761719 147.08880615234375 132.9595184326172 C 157.7882080078125 138.75048828125 173.06280517578125 129.94662475585938 174.32476806640625 117.76322937011719 C 175.58670043945312 105.579833984375 163.71490478515625 94.11099243164062 151.48065185546875 94.90365600585938 L 146.70008850097656 102.9737548828125" stroke-width="0.6000000238418579" fill="rgb(233, 92, 21)" opacity="1.0"/>
    <path d="M 453.49755859375 147.66680908203125 C 450.8726806640625 152.3350830078125 448.221435546875 158.18365478515625 451.07635498046875 162.7364501953125 C 452.282958984375 164.50408935546875 454.00836181640625 165.85372924804688 456.0145263671875 166.59915161132812 C 460.9287109375 168.5771484375 466.4967041015625 168.050537109375 470.95294189453125 165.1864013671875 C 474.726806640625 162.74713134765625 477.231201171875 158.8642578125 479.564208984375 155.05596923828125 C 480.87127685546875 152.91458129882812 482.1917724609375 150.59780883789062 482.0982666015625 148.1045379638672 C 481.94635009765625 144.78224182128906 479.3238525390625 142.12429809570312 476.6590576171875 140.13604736328125 C 472.76287841796875 137.22137451171875 468.42059326171875 134.95657348632812 463.8006591796875 133.429443359375 C 462.203369140625 132.90487670898438 460.49664306640625 132.46299743652344 458.853515625 132.81597900390625 C 457.342529296875 133.2223358154297 455.98236083984375 134.05958557128906 454.93896484375 135.22560119628906 C 451.6363525390625 138.63946533203125 449.99755859375 143.33026123046875 450.455810546875 148.0580291748047 L 453.49755859375 147.66680908203125" stroke-width="0.6000000238418579" fill="rgb(70, 150, 179)" opacity="1.0"/>
    <path d="M 376.7687683105469 79.649658203125 C 376.9578857421875 73.39360046386719 376.90484619140625 66.4512939453125 372.69793701171875 61.822509765625 C 368.1757507324219 56.852874755859375 360.2412109375 56.473297119140625 353.9701843261719 58.88580322265625 C 351.55194091796875 59.81494140625 349.1905822753906 61.16810607910156 347.7174987792969 63.29876708984375 C 346.505859375 65.04983520507812 345.98883056640625 67.1781005859375 345.6109313964844 69.273193359375 C 344.41131591796875 75.87860107421875 344.4775695800781 83.20231628417969 348.3484191894531 88.68574523925781 C 352.2534484863281 94.20950317382812 359.9048156738281 96.78428649902344 366.3486022949219 94.70596313476562 C 372.7923889160156 92.62765502929688 377.5538024902344 86.120849609375 377.53009033203125 79.34573364257812 L 376.7687683105469 79.649658203125" stroke-width="0.6000000238418579" fill="rgb(140, 28, 33)" opacity="1.0"/>
    <path d="M 134.5545654296875 412.5013427734375 C 131.59234619140625 417.185302734375 128.56161499023438 422.0919189453125 127.83006286621094 427.58953857421875 C 127.09854125976562 433.08709716796875 129.36734008789062 439.4119873046875 134.44766235351562 441.6341552734375 C 140.7248992919922 444.3631591796875 148.36294555664062 439.28094482421875 150.2518310546875 432.68896484375 C 152.14073181152344 426.0970458984375 149.6584930419922 418.9794921875 145.94598388671875 413.224365234375 C 144.97523498535156 411.32769775390625 143.32884216308594 409.8638610839844 141.33160400390625 409.12176513671875 C 139.30044555664062 408.60382080078125 136.68946838378906 410.18426513671875 137.0201416015625 412.26470947265625 L 134.5545654296875 412.5013427734375" stroke-width="0.6000000238418579" fill="rgb(159, 159, 159)" opacity="1.0"/>
    <path d="M 419.9620361328125 211.6934814453125 C 415.71527099609375 206.94281005859375 409.7483215332031 203.543701171875 403.3878173828125 203.21966552734375 C 397.02728271484375 202.8956298828125 390.3900451660156 205.96942138671875 387.21270751953125 211.52001953125 C 384.97125244140625 215.44720458984375 384.59686279296875 220.267578125 385.5782775878906 224.68563842773438 C 386.5596923828125 229.10372924804688 388.8002624511719 233.15786743164062 391.49871826171875 236.79217529296875 C 392.6739807128906 238.37301635742188 394.0211486816406 239.9461669921875 395.8553771972656 240.650390625 C 397.9579162597656 241.45870971679688 400.3109436035156 240.97933959960938 402.490966796875 240.3856201171875 C 408.6456298828125 238.70941162109375 414.77783203125 236.026123046875 418.9527587890625 231.20233154296875 C 423.1278076171875 226.37850952148438 424.8480224609375 219.0225830078125 421.759765625 213.45840454101562 L 419.9620361328125 211.6934814453125" stroke-width="0.6000000238418579" fill="rgb(159, 159, 159)" opacity="1.0"/>
    <path d="M 380.069580078125 116.52774047851562 C 374.4226379394531 116.58267211914062 368.148193359375 116.88836669921875 364.16180419921875 120.87274169921875 C 360.27960205078125 124.74211120605469 359.8434143066406 130.79061889648438 359.7421875 136.27334594726562 C 359.7043762207031 138.50070190429688 359.7002868652344 140.83145141601562 360.7199401855469 142.8106689453125 C 362.4425048828125 146.15916442871094 366.51611328125 147.50970458984375 370.2491149902344 147.9601593017578 C 373.71380615234375 148.3795928955078 377.2207946777344 148.29934692382812 380.6626892089844 147.72189331054688 C 386.251708984375 146.78631591796875 392.19903564453125 143.92271423339844 393.92352294921875 138.5268096923828 C 394.8587646484375 135.6151123046875 394.3788146972656 132.3818359375 393.1978759765625 129.5557403564453 C 392.0169372558594 126.72964477539062 390.1695861816406 124.23741149902344 388.310791015625 121.80303955078125 C 386.4519958496094 119.36866760253906 384.5733642578125 117.01646423339844 381.9432373046875 115.59449768066406 L 380.069580078125 116.52774047851562" stroke-width="0.6000000238418579" fill="rgb(218, 166, 20)" opacity="1.0"/>
    <path d="M 403.64727783203125 79.796875 C 396.5342712402344 72.4244384765625 384.79150390625 72.21414184570312 377.4190673828125 79.3271484375 C 376.7877502441406 79.93621826171875 376.2004699707031 80.58932495117188 375.6615905761719 81.28153991699219 C 373.61444091796875 83.91213989257812 372.273193359375 87.26016235351562 372.71368408203125 90.56259155273438 C 373.085693359375 93.35342407226562 374.6641845703125 95.8294677734375 376.42437744140625 98.02452087402344 C 381.1440734863281 103.89364624023438 387.34918212890625 108.39198303222656 394.3951416015625 111.05227661132812 C 396.2587585449219 111.75233459472656 398.2345886230469 112.32652282714844 400.2197265625 112.12800598144531 C 403.5525817871094 111.79669189453125 406.3435974121094 109.30519104003906 408.0284423828125 106.40777587890625 C 410.53277587890625 102.10792541503906 411.04779052734375 96.80734252929688 409.9346923828125 91.95626831054688 C 408.8216247558594 87.10520935058594 406.1806640625 82.6881103515625 402.8078918457031 79.02862548828125 L 403.64727783203125 79.796875" stroke-width="0.6000000238418579" fill="rgb(143, 165, 67)" opacity="1.0"/>
    <path d="M 123.15762329101562 429.28619384765625 C 116.06088256835938 420.52398681640625 99.4378662109375 424.397216796875 96.16439819335938 435.11138916015625 C 92.8909912109375 445.8255615234375 103.62568664550781 458.004638671875 114.8524169921875 456.91937255859375 C 126.07914733886719 455.8341064453125 134.26319885253906 443.02520751953125 131.314208984375 432.127685546875 L 123.15762329101562 429.28619384765625" stroke-width="0.6000000238418579" fill="rgb(233, 92, 21)" opacity="1.0"/>
    <path d="M 448.6920166015625 206.63742065429688 C 444.5958251953125 210.50238037109375 440.10357666015625 215.54397583007812 441.54461669921875 221.00811767578125 C 442.20269775390625 223.16030883789062 443.512451171875 225.05526733398438 445.2930908203125 226.4315185546875 C 449.60736083984375 229.95535278320312 455.3619384765625 231.16946411132812 460.7320556640625 229.68890380859375 C 465.2841796875 228.42129516601562 469.013671875 225.30712890625 472.5477294921875 222.21417236328125 C 474.5301513671875 220.4735107421875 476.5809326171875 218.56103515625 477.2674560546875 216.02874755859375 C 478.15478515625 212.64590454101562 476.35400390625 209.15673828125 474.3011474609375 206.32669067382812 C 471.302001953125 202.18115234375 467.651611328125 198.54833984375 463.4915771484375 195.56924438476562 C 462.05224609375 194.54269409179688 460.4771728515625 193.56488037109375 458.7171630859375 193.40496826171875 C 457.072998046875 193.3399658203125 455.445556640625 193.7547607421875 454.0330810546875 194.5987548828125 C 449.6490478515625 196.99224853515625 446.53564453125 201.1884765625 445.5159912109375 206.078125 L 448.6920166015625 206.63742065429688" stroke-width="0.6000000238418579" fill="rgb(70, 150, 179)" opacity="1.0"/>
    <path d="M 423.595703125 136.4070587158203 C 424.55706787109375 130.05767822265625 425.3560791015625 122.97950744628906 421.63946533203125 117.74755859375 C 417.6436767578125 112.12966918945312 409.6079406738281 110.76809692382812 402.92364501953125 112.45501708984375 C 400.34619140625 113.10433959960938 397.7745361328125 114.19256591796875 396.01220703125 116.18191528320312 C 394.5628662109375 117.81674194335938 393.7746887207031 119.921142578125 393.13232421875 122.00881958007812 C 391.0987243652344 128.58990478515625 390.2663269042969 136.0582275390625 393.5355224609375 142.1194305419922 C 396.8346252441406 148.22593688964844 404.3121643066406 151.788818359375 411.1313781738281 150.4635467529297 C 417.95062255859375 149.13827514648438 423.6002197265625 143.0952606201172 424.4085693359375 136.19102478027344 L 423.595703125 136.4070587158203" stroke-width="0.6000000238418579" fill="rgb(140, 28, 33)" opacity="1.0"/>
    <path d="M 399.9125061035156 67.31599426269531 C 401.3833312988281 72.63653564453125 402.9724426269531 78.15664672851562 406.5367736816406 82.37696838378906 C 410.10107421875 86.59719848632812 416.2843017578125 89.15884399414062 421.324462890625 86.90025329589844 C 427.53973388671875 84.098388671875 428.9058837890625 75.0631103515625 425.3094482421875 69.25663757324219 C 421.7130126953125 63.450164794921875 414.8023681640625 60.515228271484375 408.0726623535156 59.39967346191406 C 406.0240173339844 58.84562683105469 403.84222412109375 59.07965087890625 401.957763671875 60.055633544921875 C 400.21588134765625 61.206695556640625 399.6332092285156 64.19027709960938 401.3887939453125 65.33935546875 L 399.9125061035156 67.31599426269531" stroke-width="0.6000000238418579" fill="rgb(159, 159, 159)" opacity="1.0"/>
    <path d="M 440.68212890625 234.9732666015625 C 437.05517578125 240.19235229492188 435.1373291015625 246.767822265625 436.29412841796875 253.013916015625 C 437.450927734375 259.2599792480469 441.96826171875 264.9886474609375 448.0885009765625 266.7875671386719 C 452.417236328125 268.0539245605469 457.1806640625 267.3022766113281 461.2401123046875 265.32818603515625 C 465.2996826171875 263.3541259765625 468.71484375 260.2425842285156 471.6168212890625 256.78387451171875 C 472.8787841796875 255.27798461914062 474.093505859375 253.6070556640625 474.3525390625 251.66455078125 C 474.65045166015625 249.43768310546875 473.64111328125 247.26556396484375 472.56085205078125 245.28778076171875 C 469.51104736328125 239.7041015625 465.48931884765625 234.3751220703125 459.843505859375 231.440185546875 C 454.1976318359375 228.50521850585938 446.66290283203125 228.53753662109375 441.97869873046875 232.82086181640625 L 440.68212890625 234.9732666015625" stroke-width="0.6000000238418579" fill="rgb(159, 159, 159)" opacity="1.0"/>
    <path d="M 410.13970947265625 260.4985656738281 C 408.2549743652344 254.55374145507812 405.9024658203125 248.02743530273438 400.40582275390625 245.10711669921875 C 395.0643005371094 242.25961303710938 388.5365905761719 243.75567626953125 382.71466064453125 245.42242431640625 C 380.3505554199219 246.10296630859375 377.8882141113281 246.8526611328125 376.128173828125 248.56954956054688 C 373.1497497558594 251.47161865234375 373.04150390625 256.2098388671875 373.7734375 260.2972106933594 C 374.45135498046875 264.0912780761719 375.6705627441406 267.768310546875 377.3937072753906 271.2158203125 C 380.1895751953125 276.8146057128906 385.13714599609375 282.16802978515625 391.39251708984375 282.2433776855469 C 394.7695007324219 282.28900146484375 398.02825927734375 280.7362976074219 400.63031005859375 278.57513427734375 C 403.23236083984375 276.4139709472656 405.2663269042969 273.65716552734375 407.2354736328125 270.9069519042969 C 409.2046203613281 268.15673828125 411.0805969238281 265.4122009277344 411.731201171875 262.175048828125 L 410.13970947265625 260.4985656738281" stroke-width="0.6000000238418579" fill="rgb(218, 166, 20)" opacity="1.0"/>
    <path d="M 414.2271728515625 91.00250244140625 C 408.28424072265625 98.91401672363281 409.88006591796875 110.14527893066406 417.7916259765625 116.08822631835938 C 418.46905517578125 116.59713745117188 419.1817626953125 117.05731201171875 419.92437744140625 117.46536254882812 C 422.746337890625 119.01528930664062 426.14453125 119.78225708007812 429.2266845703125 118.85694885253906 C 431.8314208984375 118.07524108886719 433.9512939453125 116.19102478027344 435.7755126953125 114.17652893066406 C 440.65087890625 108.77749633789062 443.99169921875 102.1715087890625 445.450927734375 95.04481506347656 C 445.83343505859375 93.16036987304688 446.0787353515625 91.18817138671875 445.58575439453125 89.3253173828125 C 444.7598876953125 86.19746398925781 441.956787109375 83.91680908203125 438.935791015625 82.75323486328125 C 434.451904296875 81.02262878417969 429.31793212890625 81.34236145019531 424.86175537109375 83.14602661132812 C 420.40557861328125 84.94967651367188 416.59698486328125 88.14408874511719 413.6229248046875 91.9205322265625 L 414.2271728515625 91.00250244140625" stroke-width="0.6000000238418579" fill="rgb(143, 165, 67)" opacity="1.0"/>
    <path d="M 433.2919921875 125.51913452148438 C 430.2470703125 136.5204620361328 443.21636962890625 147.9382781982422 453.9696044921875 144.33303833007812 C 464.7227783203125 140.72776794433594 468.4429931640625 124.71914672851562 460.94500732421875 116.10751342773438 C 453.447021484375 107.49589538574219 438.079345703125 108.287353515625 430.83526611328125 117.12728881835938 L 433.2919921875 125.51913452148438" stroke-width="0.6000000238418579" fill="rgb(233, 92, 21)" opacity="1.0"/>
    <path d="M 449.323974609375 93.34300231933594 C 448.2314453125 98.98324584960938 447.511474609375 105.83393859863281 451.9580078125 109.50257873535156 C 453.784423828125 110.8936767578125 455.9974365234375 111.68377685546875 458.2918701171875 111.76382446289062 C 463.96356201171875 112.11463928222656 469.4534912109375 109.69467163085938 473.0206298828125 105.27130126953125 C 476.0369873046875 101.51132202148438 477.2725830078125 96.71136474609375 478.3590087890625 92.04531860351562 C 478.9649658203125 89.4232177734375 479.525390625 86.6180419921875 478.5865478515625 84.11161804199219 C 477.30780029296875 80.78103637695312 473.7388916015625 78.96267700195312 470.353515625 77.84031677246094 C 465.40118408203125 76.19155883789062 460.214599609375 75.35527038574219 454.9949951171875 75.36386108398438 C 453.1915283203125 75.37030029296875 451.3045654296875 75.49795532226562 449.75140380859375 76.41322326660156 C 448.3507080078125 77.338134765625 447.24945068359375 78.65060424804688 446.58184814453125 80.19061279296875 C 444.375 84.78323364257812 444.29388427734375 90.11276245117188 446.3599853515625 94.77041625976562 L 449.323974609375 93.34300231933594" stroke-width="0.6000000238418579" fill="rgb(70, 150, 179)" opacity="1.0"/>
    <path d="M 314.7980041503906 368.148193359375 C 308.8909606933594 366.14056396484375 302.2591857910156 364.1632995605469 296.6189270019531 366.82061767578125 C 290.5617370605469 369.6788024902344 287.88232421875 377.1299133300781 288.34979248046875 383.8111267089844 C 288.5289306640625 386.38720703125 289.1288146972656 389.032958984375 290.7291564941406 391.0592041015625 C 292.0440673828125 392.7254333496094 293.92138671875 393.83984375 295.8077087402344 394.81195068359375 C 301.75250244140625 397.8846435546875 308.7516784667969 399.96075439453125 315.1082763671875 397.8733825683594 C 321.5133056640625 395.7651672363281 326.20208740234375 389.2252197265625 326.10357666015625 382.4769287109375 C 326.0050964355469 375.7286682128906 321.1946105957031 369.2902526855469 314.7307434082031 367.3338623046875 L 314.7980041503906 368.148193359375" stroke-width="0.6000000238418579" fill="rgb(140, 28, 33)" opacity="1.0"/>
    <path d="M 299.8467712402344 394.387939453125 C 294.066162109375 393.4012145996094 288.0402526855469 392.438232421875 282.3729248046875 393.9613952636719 C 276.7056884765625 395.48455810546875 271.45159912109375 400.2749328613281 271.3490295410156 406.1413879394531 C 271.23858642578125 413.38323974609375 279.3113098144531 418.7747802734375 286.5185546875 417.9365234375 C 293.7257995605469 417.09832763671875 299.6672058105469 411.7768859863281 303.7772216796875 405.8083190917969 C 305.234619140625 404.08819580078125 305.99420166015625 401.8843078613281 305.9060974121094 399.63153076171875 C 305.585205078125 397.4368896484375 302.9788513183594 395.5299987792969 301.0814514160156 396.69976806640625 L 299.8467712402344 394.387939453125" stroke-width="0.6000000238418579" fill="rgb(159, 159, 159)" opacity="1.0"/>
    <path d="M 322.8849792480469 413.0015869140625 C 317.1128845214844 416.321044921875 312.3523254394531 421.6904296875 310.6513671875 428.1243896484375 C 308.95037841796875 434.558349609375 310.6641540527344 442.0069580078125 315.65557861328125 446.45111083984375 C 319.18853759765625 449.58868408203125 324.03680419921875 451.009521484375 328.7657165527344 450.95733642578125 C 333.49462890625 450.90521240234375 338.1225280761719 449.4871826171875 342.41973876953125 447.510498046875 C 344.2892761230469 446.64923095703125 346.1879577636719 445.6104736328125 347.302978515625 443.88653564453125 C 348.582275390625 441.9107666015625 348.5987854003906 439.4014892578125 348.4611511230469 437.0445556640625 C 348.072509765625 430.390380859375 346.6492614746094 423.542236328125 342.6158447265625 418.2344970703125 C 338.5824279785156 412.9267578125 331.4312744140625 409.58380126953125 325.0767517089844 411.5434875488281 L 322.8849792480469 413.0015869140625" stroke-width="0.6000000238418579" fill="rgb(159, 159, 159)" opacity="1.0"/>
    <path d="M 256.3952941894531 417.2764892578125 C 250.01922607421875 416.30999755859375 242.89007568359375 415.511962890625 237.67047119140625 419.2777099609375 C 232.58920288085938 422.932861328125 230.99594116210938 429.672119140625 229.88336181640625 435.8345947265625 C 229.43505859375 438.3387451171875 229.00601196289062 440.965576171875 229.7950439453125 443.38250732421875 C 231.12713623046875 447.4710693359375 235.47357177734375 449.7354736328125 239.59991455078125 450.92315673828125 C 243.429443359375 452.0269775390625 247.39761352539062 452.5751953125 251.38299560546875 452.551025390625 C 257.8541259765625 452.51416015625 265.080322265625 450.3690185546875 268.007080078125 444.5999755859375 C 269.5916748046875 441.48785400390625 269.6394348144531 437.75543212890625 268.82281494140625 434.3543701171875 C 268.0061340332031 430.953369140625 266.37744140625 427.80731201171875 264.7252502441406 424.724365234375 C 263.0730895996094 421.6414794921875 261.38360595703125 418.64764404296875 258.677490234375 416.56561279296875 L 256.3952941894531 417.2764892578125" stroke-width="0.6000000238418579" fill="rgb(218, 166, 20)" opacity="1.0"/>
    <path d="M 222.99835205078125 409.71478271484375 C 213.20437622070312 403.8802490234375 200.53497314453125 407.0900573730469 194.700439453125 416.884033203125 C 194.2008056640625 417.72265625 193.7613525390625 418.595703125 193.38525390625 419.49658203125 C 191.95693969726562 422.919921875 191.49639892578125 426.906982421875 192.935546875 430.3238525390625 C 194.15145874023438 433.21148681640625 196.5706787109375 435.4080810546875 199.10275268554688 437.2498779296875 C 205.88729858398438 442.17059326171875 213.86563110351562 445.1849365234375 222.208984375 445.979736328125 C 224.41473388671875 446.1861572265625 226.7041015625 446.224609375 228.77740478515625 445.4306640625 C 232.25888061523438 444.099853515625 234.52658081054688 440.60821533203125 235.48785400390625 437.00439453125 C 236.918701171875 431.655029296875 235.92083740234375 425.81329345703125 233.30645751953125 420.93048095703125 C 230.692138671875 416.0477294921875 226.56430053710938 412.07781982421875 221.87237548828125 409.135498046875 L 222.99835205078125 409.71478271484375" stroke-width="0.6000000238418579" fill="rgb(143, 165, 67)" opacity="1.0"/>
    <path d="M 277.5691223144531 361.2466125488281 C 281.9991760253906 372.9579772949219 300.87591552734375 374.6654968261719 308.06024169921875 364.50897216796875 C 315.2445373535156 354.3524169921875 308.1690673828125 337.7708435058594 295.9535217285156 335.0037536621094 C 283.73797607421875 332.2366638183594 270.6460876464844 342.8910217285156 269.95880126953125 355.4088439941406 L 277.5691223144531 361.2466125488281" stroke-width="0.6000000238418579" fill="rgb(233, 92, 21)" opacity="1.0"/>
    <path d="M 333.3386535644531 358.8504943847656 C 331.644287109375 364.741455078125 330.2312927246094 371.9541015625 334.610107421875 376.2734375 C 336.4195861816406 377.924560546875 338.69683837890625 378.9735107421875 341.1277160644531 379.2755126953125 C 347.1222229003906 380.18463134765625 353.1855163574219 378.1318664550781 357.3948669433594 373.76812744140625 C 360.9560546875 370.0573425292969 362.7231140136719 365.07293701171875 364.3188781738281 360.2167053222656 C 365.2108459472656 357.4873352050781 366.07159423828125 354.5590515136719 365.3108825683594 351.8065490722656 C 364.26678466796875 348.1460266113281 360.645751953125 345.87603759765625 357.1540832519531 344.3631591796875 C 352.0467529296875 342.14263916015625 346.6136779785156 340.763427734375 341.06561279296875 340.2790222167969 C 339.1483459472656 340.1153564453125 337.13092041015625 340.0726013183594 335.3936767578125 340.8984680175781 C 333.8176574707031 341.7489929199219 332.52313232421875 343.03973388671875 331.6679992675781 344.61328125 C 328.88836669921875 349.2854919433594 328.2982482910156 354.94189453125 330.05364990234375 360.0872497558594 L 333.3386535644531 358.8504943847656" stroke-width="0.6000000238418579" fill="rgb(70, 150, 179)" opacity="1.0"/>
    <path d="M 296.15728759765625 418.0416259765625 C 289.4842834472656 416.43603515625 282.0203857421875 414.9365234375 276.10858154296875 418.41461181640625 C 269.7602233886719 422.1546630859375 267.5739440917969 430.586669921875 268.7576599121094 437.8590087890625 C 269.2128601074219 440.6630859375 270.135986328125 443.501220703125 272.09283447265625 445.56011962890625 C 273.7008056640625 447.2532958984375 275.86944580078125 448.285400390625 278.03363037109375 449.1607666015625 C 284.8550720214844 451.9293212890625 292.7313537597656 453.5001220703125 299.4851989746094 450.574462890625 C 306.2900085449219 447.62109375 310.7691955566406 439.98516845703125 309.9829406738281 432.602294921875 C 309.1966857910156 425.219482421875 303.27960205078125 418.64971923828125 296.0017395019531 417.15625 L 296.15728759765625 418.0416259765625" stroke-width="0.6000000238418579" fill="rgb(140, 28, 33)" opacity="1.0"/>
    <path d="M 328.8229064941406 393.26031494140625 C 322.9989318847656 393.6275329589844 316.9427795410156 394.0738525390625 311.8028564453125 396.8458557128906 C 306.6629943847656 399.6177978515625 302.6709289550781 405.4593200683594 303.9140319824219 411.1641540527344 C 305.4642639160156 418.2027587890625 314.5160217285156 421.5767822265625 321.30401611328125 419.11578369140625 C 328.0920104980469 416.65478515625 332.628173828125 410.1416320800781 335.2427062988281 403.4208984375 C 336.2604675292969 401.4215393066406 336.4917907714844 399.1133728027344 335.89093017578125 396.9518737792969 C 335.0779724121094 394.89990234375 332.11749267578125 393.64959716796875 330.54766845703125 395.2166442871094 L 328.8229064941406 393.26031494140625" stroke-width="0.6000000238418579" fill="rgb(159, 159, 159)" opacity="1.0"/>
    <path d="M 358.8761901855469 413.540771484375 C 354.01092529296875 418.2154541015625 350.6413269042969 424.6588134765625 350.5406494140625 431.40167236328125 C 350.43994140625 438.14447021484375 353.94525146484375 445.05072021484375 359.939697265625 448.2015380859375 C 364.1806640625 450.423828125 369.295654296875 450.63641357421875 373.9333190917969 449.4296875 C 378.5710144042969 448.22296142578125 382.775634765625 445.69769287109375 386.5185546875 442.703857421875 C 388.1466064453125 441.40008544921875 389.7599792480469 439.9146728515625 390.435302734375 437.9468994140625 C 391.2105712890625 435.6912841796875 390.61370849609375 433.21966552734375 389.9024658203125 430.9354248046875 C 387.8944091796875 424.48663330078125 384.8215637207031 418.0999755859375 379.5581970214844 413.8658447265625 C 374.2948303222656 409.6316833496094 366.445556640625 408.0914611816406 360.6753234863281 411.5712890625 L 358.8761901855469 413.540771484375" stroke-width="0.6000000238418579" fill="rgb(159, 159, 159)" opacity="1.0"/>
    <path d="M 249.78524780273438 364.80975341796875 C 251.0224609375 358.5989990234375 252.128662109375 351.641845703125 248.67132568359375 346.3508605957031 C 245.3162841796875 341.20062255859375 238.777587890625 339.3320617675781 232.782958984375 337.9612121582031 C 230.34689331054688 337.40789794921875 227.78958129882812 336.86785888671875 225.38287353515625 337.5322570800781 C 221.31173706054688 338.653564453125 218.89337158203125 342.81451416015625 217.54119873046875 346.8083801269531 C 216.28472900390625 350.514892578125 215.56698608398438 354.3825988769531 215.40994262695312 358.29315185546875 C 215.15264892578125 364.6427001953125 216.92919921875 371.8285217285156 222.45556640625 374.9611511230469 C 225.43658447265625 376.6567077636719 229.09576416015625 376.87286376953125 232.46905517578125 376.22601318359375 C 235.84234619140625 375.57916259765625 239.0023193359375 374.1241455078125 242.10140991210938 372.64324951171875 C 245.20050048828125 371.1623840332031 248.21395874023438 369.640869140625 250.37905883789062 367.0807189941406 L 249.78524780273438 364.80975341796875" stroke-width="0.6000000238418579" fill="rgb(218, 166, 20)" opacity="1.0"/>
    <path d="M 262.3905334472656 388.87713623046875 C 253.9085693359375 382.20361328125 241.62261962890625 383.66961669921875 234.9490966796875 392.1515808105469 C 234.37765502929688 392.87786865234375 233.85845947265625 393.643798828125 233.3953857421875 394.443603515625 C 231.63641357421875 397.48297119140625 230.71710205078125 401.1697692871094 231.65087890625 404.55322265625 C 232.439697265625 407.41259765625 234.44256591796875 409.7702331542969 236.5947265625 411.80853271484375 C 242.363037109375 417.256591796875 249.48486328125 421.060791015625 257.220458984375 422.825927734375 C 259.2659912109375 423.28912353515625 261.4105529785156 423.604736328125 263.45391845703125 423.1126708984375 C 266.88482666015625 422.2884521484375 269.44012451171875 419.28753662109375 270.7826843261719 416.021728515625 C 272.7792663574219 411.174560546875 272.5559387207031 405.5684814453125 270.69793701171875 400.6652526855469 C 268.8399353027344 395.7620544433594 265.4495849609375 391.5310363769531 261.4042053222656 388.19580078125 L 262.3905334472656 388.87713623046875" stroke-width="0.6000000238418579" fill="rgb(143, 165, 67)" opacity="1.0"/>
    <path d="M 204.49130249023438 379.8462829589844 C 192.9173583984375 386.1982421875 193.91796875 406.1580505371094 205.5810546875 412.1612548828125 C 217.24420166015625 418.16436767578125 233.51278686523438 408.3324279785156 234.6005859375 395.1708984375 C 235.68841552734375 382.0093994140625 222.63446044921875 369.9118957519531 209.46405029296875 371.0400390625 L 204.49130249023438 379.8462829589844" stroke-width="0.6000000238418579" fill="rgb(233, 92, 21)" opacity="1.0"/>
    <path d="M 253.74896240234375 370.6251220703125 C 253.32186889648438 377.1639099121094 253.4898681640625 385.0189514160156 259.04754638671875 388.5322265625 C 261.3136901855469 389.8443298339844 263.93115234375 390.4208984375 266.5388488769531 390.18231201171875 C 273.0068054199219 389.76568603515625 278.8716125488281 386.2398986816406 282.2734375 380.7230529785156 C 285.14715576171875 376.03582763671875 285.85675048828125 370.42730712890625 286.41668701171875 364.99169921875 C 286.72625732421875 361.93780517578125 286.9579162597656 358.68328857421875 285.53607177734375 355.9819030761719 C 283.61138916015625 352.3966979980469 279.31219482421875 350.8511047363281 275.3206481933594 350.0667724609375 C 269.4803771972656 348.91156005859375 263.4916687011719 348.70928955078125 257.5867614746094 349.4677734375 C 255.54702758789062 349.7337646484375 253.43023681640625 350.14886474609375 251.80401611328125 351.4073486328125 C 250.35183715820312 352.6548156738281 249.29397583007812 354.2978820800781 248.75946044921875 356.1361999511719 C 246.921142578125 361.6494445800781 247.59390258789062 367.69158935546875 250.59991455078125 372.6654357910156 L 253.74896240234375 370.6251220703125" stroke-width="0.6000000238418579" fill="rgb(70, 150, 179)" opacity="1.0"/>
    <path d="M 335.5959167480469 361.3059997558594 C 337.95086669921875 355.29998779296875 340.3089599609375 348.5439147949219 337.8326110839844 342.5914001464844 C 335.1686096191406 336.19866943359375 327.59967041015625 333.0763244628906 320.6761779785156 333.24114990234375 C 318.0067138671875 333.3035583496094 315.24530029296875 333.7972412109375 313.07611083984375 335.35382080078125 C 311.29241943359375 336.63275146484375 310.05194091796875 338.5188293457031 308.9580078125 340.4209899902344 C 305.5011291503906 346.4153137207031 303.0234680175781 353.5461730957031 304.87701416015625 360.2114562988281 C 306.7497253417969 366.92779541015625 313.2818908691406 372.08233642578125 320.257080078125 372.30181884765625 C 327.2322998046875 372.52130126953125 334.11175537109375 367.85888671875 336.4402770996094 361.2752685546875 L 335.5959167480469 361.3059997558594" stroke-width="0.6000000238418579" fill="rgb(140, 28, 33)" opacity="1.0"/>
    <path d="M 355.5560302734375 400.0007019042969 C 349.7305908203125 400.3975830078125 343.6732482910156 400.8747863769531 338.54437255859375 403.6743469238281 C 333.4156188964844 406.473876953125 329.4507751464844 412.33892822265625 330.72344970703125 418.04071044921875 C 332.3101501464844 425.075439453125 341.3841552734375 428.40576171875 348.16357421875 425.908935546875 C 354.9430236816406 423.4122314453125 359.4488525390625 416.8724365234375 362.0308532714844 410.1346435546875 C 363.03912353515625 408.1289978027344 363.2588806152344 405.8183288574219 362.6467590332031 403.65863037109375 C 361.8229675292969 401.6095886230469 358.8544616699219 400.3735656738281 357.2916564941406 401.9494323730469 L 355.5560302734375 400.0007019042969" stroke-width="0.6000000238418579" fill="rgb(159, 159, 159)" opacity="1.0"/>
    <path d="M 182.01034545898438 413.686279296875 C 175.2227783203125 413.813720703125 168.33099365234375 416.26953125 163.64874267578125 421.1802978515625 C 158.96649169921875 426.09112548828125 156.83560180664062 433.5869140625 159.109375 440.01025390625 C 160.72268676757812 444.549560546875 164.35482788085938 448.20208740234375 168.60443115234375 450.48016357421875 C 172.85406494140625 452.75830078125 177.68490600585938 453.7667236328125 182.4949951171875 454.11358642578125 C 184.58831787109375 454.2633056640625 186.794921875 454.268798828125 188.63833618164062 453.27716064453125 C 190.7523193359375 452.14117431640625 192.0006103515625 449.907958984375 193.03631591796875 447.7349853515625 C 195.9603271484375 441.60028076171875 198.05551147460938 434.78375244140625 197.06201171875 428.0599365234375 C 196.0684814453125 421.336181640625 191.32427978515625 414.83465576171875 184.68490600585938 413.4613037109375 L 182.01034545898438 413.686279296875" stroke-width="0.6000000238418579" fill="rgb(159, 159, 159)" opacity="1.0"/>
    <path d="M 360.2705078125 368.2383728027344 C 353.75762939453125 369.3348388671875 346.56573486328125 370.8357849121094 342.68988037109375 376.1675109863281 C 338.91326904296875 381.3472900390625 339.5158996582031 388.41387939453125 340.4019775390625 394.7656555175781 C 340.7657165527344 397.345458984375 341.1874084472656 400.03851318359375 342.727294921875 402.1382141113281 C 345.3296203613281 405.6910400390625 350.2822265625 406.5058898925781 354.6767272949219 406.34332275390625 C 358.755615234375 406.1940002441406 362.79193115234375 405.45977783203125 366.6621398925781 404.1630859375 C 372.947021484375 402.0599365234375 379.2930603027344 397.6641540527344 380.2979736328125 391.11572265625 C 380.84564208984375 387.5812683105469 379.69976806640625 383.9342041015625 377.8186340332031 380.8857421875 C 375.9375 377.8372802734375 373.3476867675781 375.29638671875 370.75518798828125 372.82440185546875 C 368.1627197265625 370.3524475097656 365.5623474121094 367.97900390625 362.26409912109375 366.817626953125 L 360.2705078125 368.2383728027344" stroke-width="0.6000000238418579" fill="rgb(218, 166, 20)" opacity="1.0"/>
    <path d="M 379.91217041015625 380.6927185058594 C 375.0951232910156 390.1917724609375 378.8906555175781 401.7972717285156 388.38970947265625 406.61431884765625 C 389.2030944824219 407.02679443359375 390.04473876953125 407.38104248046875 390.9082946777344 407.6744384765625 C 394.1897888183594 408.7886047363281 397.9353332519531 408.9649353027344 401.02886962890625 407.4067687988281 C 403.64324951171875 406.09027099609375 405.53729248046875 403.6959533691406 407.0933837890625 401.218994140625 C 411.2495422363281 394.5830078125 413.55303955078125 386.9552307128906 413.7646484375 379.12799072265625 C 413.817138671875 377.0589294433594 413.70770263671875 374.9225769042969 412.836181640625 373.0404357910156 C 411.3748474121094 369.8797912597656 407.9764709472656 367.9875793457031 404.5564270019531 367.3201904296875 C 399.47955322265625 366.3258361816406 394.0977783203125 367.62652587890625 389.7123718261719 370.37310791015625 C 385.32696533203125 373.1196594238281 381.8885498046875 377.2190246582031 379.44366455078125 381.77899169921875 L 379.91217041015625 380.6927185058594" stroke-width="0.6000000238418579" fill="rgb(143, 165, 67)" opacity="1.0"/>
    <path d="M 364.40557861328125 364.7183837890625 C 369.42059326171875 377.2644958496094 389.82073974609375 378.7270812988281 397.3675231933594 367.6249084472656 C 404.914306640625 356.522705078125 396.9472351074219 338.7754211425781 383.7124328613281 336.03570556640625 C 370.4776306152344 333.2959899902344 356.56732177734375 345.0540771484375 356.0775451660156 358.5731506347656 L 364.40557861328125 364.7183837890625" stroke-width="0.6000000238418579" fill="rgb(233, 92, 21)" opacity="1.0"/>
    <path d="M 400.39495849609375 354.7546081542969 C 401.8817138671875 361.1085205078125 404.3166809082031 368.5442199707031 410.62957763671875 370.28216552734375 C 413.16876220703125 370.87603759765625 415.8297119140625 370.6673278808594 418.2452392578125 369.684814453125 C 424.287353515625 367.4146423339844 428.854248046875 362.35675048828125 430.497802734375 356.1150207519531 C 431.87847900390625 350.8167724609375 430.9302978515625 345.26739501953125 429.88958740234375 339.9261474609375 C 429.30010986328125 336.92669677734375 428.57830810546875 333.7586669921875 426.44122314453125 331.5965270996094 C 423.56903076171875 328.7379455566406 419.025146484375 328.5103759765625 414.9947509765625 328.9190368652344 C 409.0955505371094 329.509765625 403.33087158203125 331.0513916015625 397.92425537109375 333.48419189453125 C 396.0578308105469 334.328369140625 394.1611633300781 335.3369445800781 392.9761657714844 337.0069885253906 C 391.9537658691406 338.61614990234375 391.42169189453125 340.4880676269531 391.4447937011719 342.3944396972656 C 391.2899169921875 348.1799011230469 393.6807861328125 353.7420654296875 397.98541259765625 357.61065673828125 L 400.39495849609375 354.7546081542969" stroke-width="0.6000000238418579" fill="rgb(70, 150, 179)" opacity="1.0"/>
    <path d="M 383.96734619140625 416.8897705078125 C 380.571044921875 423.3575439453125 377.0780944824219 430.669189453125 379.1263427734375 437.67657470703125 C 381.3311462402344 445.2027587890625 389.46282958984375 449.6568603515625 397.2761535644531 450.3309326171875 C 400.2885437011719 450.592041015625 403.4580078125 450.3792724609375 406.0928039550781 448.896484375 C 408.2592468261719 447.678466796875 409.8896484375 445.7095947265625 411.3570861816406 443.704345703125 C 415.99224853515625 437.38653564453125 419.66632080078125 429.66796875 418.4075927734375 421.935546875 C 417.133544921875 414.1434326171875 410.421142578125 407.5306701660156 402.59735107421875 406.4176025390625 C 394.7735595703125 405.3045654296875 386.451416015625 409.69830322265625 383.0131530761719 416.81951904296875 L 383.96734619140625 416.8897705078125" stroke-width="0.6000000238418579" fill="rgb(140, 28, 33)" opacity="1.0"/>
    <path d="M 408.75079345703125 384.70697021484375 C 407.5616149902344 390.4102478027344 406.3870849609375 396.3579406738281 407.6938781738281 402.03973388671875 C 409.0006408691406 407.7214660644531 413.56610107421875 413.1114501953125 419.38671875 413.4259033203125 C 426.57244873046875 413.798095703125 432.2178955078125 405.9788513183594 431.64697265625 398.79302978515625 C 431.0760498046875 391.6072082519531 426.00823974609375 385.515625 420.2315673828125 381.2187805175781 C 418.57666015625 379.7095031738281 416.4161376953125 378.87548828125 414.1763916015625 378.88128662109375 C 411.98583984375 379.12030029296875 409.9981994628906 381.6387939453125 411.09075927734375 383.56494140625 L 408.75079345703125 384.70697021484375" stroke-width="0.6000000238418579" fill="rgb(159, 159, 159)" opacity="1.0"/>
    <path d="M 438.082275390625 368.6828918457031 C 440.044189453125 375.1257629394531 444.2562255859375 381.0368347167969 450.2120361328125 384.17376708984375 C 456.1678466796875 387.3106994628906 463.8988037109375 387.31201171875 469.4122314453125 383.4007263183594 C 473.3067626953125 380.63043212890625 475.8076171875 376.17401123046875 476.82952880859375 371.5009765625 C 477.8514404296875 366.8279113769531 477.5040283203125 361.94439697265625 476.531005859375 357.26007080078125 C 476.1063232421875 355.2218017578125 475.513427734375 353.1145324707031 474.0672607421875 351.6241760253906 C 472.4100341796875 349.9147644042969 469.94049072265625 349.3289794921875 467.58599853515625 348.9296875 C 460.9388427734375 347.8025207519531 453.86572265625 347.6510925292969 447.718505859375 350.422119140625 C 441.5712890625 353.1931457519531 436.65313720703125 359.4831848144531 437.14251708984375 366.1915283203125 L 438.082275390625 368.6828918457031" stroke-width="0.6000000238418579" fill="rgb(159, 159, 159)" opacity="1.0"/>
    <path d="M 427.00390625 409.6279296875 C 421.75946044921875 414.02593994140625 416.12054443359375 419.1417236328125 415.455322265625 425.9403076171875 C 414.799072265625 432.5511474609375 419.04638671875 438.549560546875 423.17181396484375 443.76043701171875 C 424.850830078125 445.87481689453125 426.64105224609375 448.06005859375 429.11907958984375 449.128173828125 C 433.3092041015625 450.9371337890625 438.1624755859375 449.0660400390625 442.004150390625 446.6143798828125 C 445.5706787109375 444.3402099609375 448.7921142578125 441.565673828125 451.57000732421875 438.375732421875 C 456.0823974609375 433.1978759765625 459.4461669921875 425.9390869140625 456.90728759765625 419.56005859375 C 455.54168701171875 416.11419677734375 452.6036376953125 413.45660400390625 449.32275390625 411.7197570800781 C 446.04180908203125 409.9829406738281 442.39398193359375 409.0716247558594 438.7799072265625 408.2232971191406 C 435.1658935546875 407.3749694824219 431.5965576171875 406.6188049316406 428.0396728515625 407.3120422363281 L 427.00390625 409.6279296875" stroke-width="0.6000000238418579" fill="rgb(218, 166, 20)" opacity="1.0"/>
    <path d="M 138.3074493408203 221.09600830078125 C 133.5271759033203 231.8115234375 138.3386688232422 244.3734130859375 149.05421447753906 249.1536865234375 C 149.97178649902344 249.56301879882812 150.917236328125 249.90673828125 151.8834686279297 250.1822509765625 C 155.55508422851562 251.22857666015625 159.68600463867188 251.21759033203125 163.00457763671875 249.33380126953125 C 165.80914306640625 247.74212646484375 167.7620849609375 245.00396728515625 169.33868408203125 242.193359375 C 173.54849243164062 234.66424560546875 175.66552734375 226.145263671875 175.46994018554688 217.52133178710938 C 175.41439819335938 215.24188232421875 175.17706298828125 212.897216796875 174.11508178710938 210.87396240234375 C 172.33419799804688 207.47625732421875 168.49139404296875 205.58026123046875 164.69171142578125 205.03314208984375 C 159.05117797851562 204.21697998046875 153.2007598876953 205.94268798828125 148.52581787109375 209.20480346679688 C 143.8508758544922 212.4669189453125 140.29193115234375 217.16571044921875 137.85140991210938 222.31686401367188 L 138.3074493408203 221.09600830078125" stroke-width="0.6000000238418579" fill="rgb(143, 165, 67)" opacity="1.0"/>
    <path d="M 173.49288940429688 260.3794250488281 C 181.38656616210938 271.8175048828125 202.18035888671875 268.6275939941406 207.2149658203125 255.7701416015625 C 212.24951171875 242.91265869140625 200.20785522460938 226.9320068359375 186.308837890625 227.20541381835938 C 172.40985107421875 227.47882080078125 161.142822265625 242.44674682617188 163.73764038085938 256.11724853515625 L 173.49288940429688 260.3794250488281" stroke-width="0.6000000238418579" fill="rgb(233, 92, 21)" opacity="1.0"/>
    <path d="M 144.4013214111328 314.8707580566406 C 139.78692626953125 320.0146789550781 134.8083953857422 326.6378173828125 137.1280059814453 333.17218017578125 C 138.15231323242188 335.7366943359375 139.9471435546875 337.920166015625 142.2649688720703 339.42132568359375 C 147.89988708496094 343.2899169921875 155.06036376953125 344.1873474121094 161.4757080078125 341.8289794921875 C 166.91256713867188 339.81451416015625 171.15512084960938 335.6260681152344 175.16091918945312 331.48345947265625 C 177.4073486328125 329.1527404785156 179.71987915039062 326.60491943359375 180.3009033203125 323.4384765625 C 181.040771484375 319.21148681640625 178.48272705078125 315.1287536621094 175.68377685546875 311.8777160644531 C 171.593505859375 307.1146545410156 166.75921630859375 303.0450744628906 161.36849975585938 299.8267822265625 C 159.5037841796875 298.7183837890625 157.47799682617188 297.6834716796875 155.30955505371094 297.6675109863281 C 153.29257202148438 297.75579833984375 151.34483337402344 298.4290771484375 149.70387268066406 299.605224609375 C 144.58741760253906 302.979248046875 141.2086181640625 308.4279479980469 140.46066284179688 314.5109558105469 L 144.4013214111328 314.8707580566406" stroke-width="0.6000000238418579" fill="rgb(70, 150, 179)" opacity="1.0"/>
    <path d="M 125.65800476074219 304.27471923828125 C 125.18283081054688 296.7079772949219 124.33842468261719 288.3407897949219 118.74404907226562 283.23089599609375 C 112.73115539550781 277.7453308105469 103.11856079101562 278.17950439453125 95.82624816894531 281.7942199707031 C 93.0140380859375 283.18670654296875 90.31808471679688 285.084228515625 88.78091430664062 287.81964111328125 C 87.51640319824219 290.0678405761719 87.13206481933594 292.69287109375 86.91180419921875 295.26226806640625 C 86.20750427246094 303.36395263671875 87.1107177734375 312.189697265625 92.39581298828125 318.3681640625 C 97.72666931152344 324.5914001464844 107.24447631835938 326.83673095703125 114.78274536132812 323.60565185546875 C 122.32102966308594 320.3746032714844 127.33230590820312 311.99139404296875 126.54206848144531 303.82257080078125 L 125.65800476074219 304.27471923828125" stroke-width="0.6000000238418579" fill="rgb(140, 28, 33)" opacity="1.0"/>
    <path d="M 142.61863708496094 277.7999267578125 C 137.74429321289062 280.9841613769531 132.70736694335938 284.35125732421875 129.6099395751953 289.2861633300781 C 126.5125732421875 294.2210388183594 125.92169189453125 301.25543212890625 129.8075408935547 305.59539794921875 C 134.6161651611328 310.94189453125 144.1328887939453 309.4169006347656 148.81378173828125 303.9410095214844 C 153.4946746826172 298.4651184082031 154.22735595703125 290.580078125 153.18997192382812 283.4603271484375 C 153.0896453857422 281.2242126464844 152.15475463867188 279.10699462890625 150.5697479248047 277.5264892578125 C 148.85452270507812 276.14544677734375 145.66976928710938 276.516845703125 145.07821655273438 278.64935302734375 L 142.61863708496094 277.7999267578125" stroke-width="0.6000000238418579" fill="rgb(159, 159, 159)" opacity="1.0"/>
    <path d="M 164.65478515625 285.30712890625 C 163.44683837890625 292.4836120605469 164.67135620117188 300.23028564453125 168.91937255859375 306.1345520019531 C 173.1673583984375 312.038818359375 180.64340209960938 315.76617431640625 187.86053466796875 314.64080810546875 C 192.962158203125 313.8387145996094 197.52862548828125 310.7342224121094 200.7691650390625 306.7074279785156 C 204.00970458984375 302.68060302734375 206.0274658203125 297.7903137207031 207.3441162109375 292.7911071777344 C 207.91583251953125 290.615234375 208.35800170898438 288.29150390625 207.677734375 286.1531677246094 C 206.89892578125 283.7012939453125 204.79290771484375 281.94451904296875 202.70834350585938 280.423583984375 C 196.8231201171875 276.1297607421875 190.0556640625 272.5743103027344 182.775146484375 272.2914123535156 C 175.49459838867188 272.0085144042969 167.70660400390625 275.7212219238281 164.9466552734375 282.4447937011719 L 164.65478515625 285.30712890625" stroke-width="0.6000000238418579" fill="rgb(159, 159, 159)" opacity="1.0"/>
    <path d="M 121.2425537109375 346.1510925292969 C 119.92304992675781 339.2906188964844 118.1591796875 331.7220458984375 112.4256591796875 327.75421142578125 C 106.85523986816406 323.8876647949219 99.3970947265625 324.6985168457031 92.70181274414062 325.7915344238281 C 89.98260498046875 326.23956298828125 87.14505004882812 326.75164794921875 84.96240234375 328.431640625 C 81.26919555664062 331.2708740234375 80.52914428710938 336.5283203125 80.80899047851562 341.1715087890625 C 81.06706237792969 345.4812927246094 81.94265747070312 349.731689453125 83.40895080566406 353.7926025390625 C 85.78741455078125 360.3872375488281 90.59185791015625 366.9902648925781 97.54150390625 367.8921203613281 C 101.29267883300781 368.38446044921875 105.12130737304688 367.0831298828125 108.29887390136719 365.0189514160156 C 111.4764404296875 362.95477294921875 114.099853515625 360.15362548828125 116.65029907226562 357.351318359375 C 119.20074462890625 354.5490417480469 121.64678955078125 351.7408752441406 122.79397583007812 348.22442626953125 L 121.2425537109375 346.1510925292969" stroke-width="0.6000000238418579" fill="rgb(218, 166, 20)" opacity="1.0"/>
    <path d="M 151.51019287109375 343.3006896972656 C 139.50540161132812 345.1081848144531 131.23887634277344 356.3052673339844 133.04637145996094 368.31005859375 C 133.20114135742188 369.3380126953125 133.4286651611328 370.3537292480469 133.7271728515625 371.3495178222656 C 134.86216735839844 375.133056640625 137.17477416992188 378.7274475097656 140.6668243408203 380.5697021484375 C 143.6177215576172 382.1268005371094 147.09307861328125 382.3024597167969 150.4217987060547 382.10968017578125 C 159.33123779296875 381.5814514160156 167.93670654296875 378.67724609375 175.3443603515625 373.6988525390625 C 177.3001708984375 372.3796081542969 179.21148681640625 370.8655700683594 180.38287353515625 368.81195068359375 C 182.35147094726562 365.365478515625 181.86163330078125 360.9590148925781 180.22015380859375 357.3421936035156 C 177.78689575195312 351.9708251953125 173.02105712890625 347.83367919921875 167.57147216796875 345.57763671875 C 162.12188720703125 343.32159423828125 156.042236328125 342.8392028808594 150.1918182373047 343.5838623046875 L 151.51019287109375 343.3006896972656" stroke-width="0.6000000238418579" fill="rgb(143, 165, 67)" opacity="1.0"/>
    <path d="M 140.98941040039062 379.986083984375 C 133.6525421142578 368.53326416015625 113.20669555664062 370.9551696777344 107.85052490234375 383.3622131347656 C 102.49444580078125 395.7692565917969 113.73597717285156 411.8045349121094 127.33999633789062 412.0037841796875 C 140.9440155029297 412.20306396484375 152.4670867919922 397.9410095214844 150.3880615234375 384.4825439453125 L 140.98941040039062 379.986083984375" stroke-width="0.6000000238418579" fill="rgb(233, 92, 21)" opacity="1.0"/>
    <path d="M 186.7200927734375 354.06689453125 C 185.88812255859375 360.6146240234375 185.5733642578125 368.5223388671875 190.9447021484375 372.3967590332031 C 193.14227294921875 373.8554382324219 195.73834228515625 374.59625244140625 198.374755859375 374.5169372558594 C 204.90325927734375 374.4963073730469 211.01675415039062 371.3126220703125 214.776611328125 365.9754638671875 C 217.95437622070312 361.43994140625 219.01312255859375 355.8448791503906 219.91070556640625 350.4144287109375 C 220.40997314453125 347.3631286621094 220.84326171875 344.1053466796875 219.58010864257812 341.3018493652344 C 217.86578369140625 337.5788269042969 213.63858032226562 335.7602233886719 209.67376708984375 334.72589111328125 C 203.8731689453125 333.20489501953125 197.8646240234375 332.6328125 191.8812255859375 333.03179931640625 C 189.8140869140625 333.17364501953125 187.66033935546875 333.4606628417969 185.94790649414062 334.62579345703125 C 184.41107177734375 335.7905578613281 183.246337890625 337.37738037109375 182.59576416015625 339.19268798828125 C 180.40811157226562 344.6224670410156 180.71246337890625 350.73858642578125 183.42843627929688 355.9243469238281 L 186.7200927734375 354.06689453125" stroke-width="0.6000000238418579" fill="rgb(70, 150, 179)" opacity="1.0"/>
  </g>
</svg>
