<?xml version="1.0" ?>
<svg xmlns="http://www.w3.org/2000/svg" version="1.1" width="600" height="600">
  <defs/>
  <g>
    <path d="M 354.79779052734375 344.4624328613281 C 359.26708984375 347.9437255859375 366.9619140625 344.15826416015625 367.34576416015625 338.54266357421875 C 367.7296142578125 332.92706298828125 361.0914611816406 328.18719482421875 355.7205810546875 329.9947204589844 C 350.34967041015625 331.80224609375 347.80078125 339.0013122558594 350.48297119140625 343.99920654296875 L 354.79779052734375 344.4624328613281" stroke-width="0.6000000238418579" fill="rgb(233, 92, 21)" opacity="1.0"/>
    <path d="M 119.54086303710938 205.80908203125 C 123.189697265625 204.4285888671875 127.4051513671875 202.40106201171875 127.93899536132812 198.5230712890625 C 128.09140014648438 196.97152709960938 127.75857543945312 195.41091918945312 126.98643493652344 194.05654907226562 C 125.1661376953125 190.65408325195312 121.80958557128906 188.344970703125 117.981201171875 187.8614501953125 C 114.73263549804688 187.45962524414062 111.51828002929688 188.45770263671875 108.43452453613281 189.49429321289062 C 106.70321655273438 190.07940673828125 104.88238525390625 190.75616455078125 103.76893615722656 192.19265747070312 C 102.30050659179688 194.11956787109375 102.52276611328125 196.8304443359375 103.08172607421875 199.18695068359375 C 103.89546203613281 202.63671875 105.26220703125 205.93206787109375 107.12895202636719 208.94512939453125 C 107.77593994140625 209.98492431640625 108.52276611328125 211.02972412109375 109.60565185546875 211.60076904296875 C 110.63970947265625 212.08023071289062 111.79092407226562 212.24847412109375 112.91893005371094 212.08493041992188 C 116.35990905761719 211.72201538085938 119.46847534179688 209.86788940429688 121.42288208007812 207.0126953125 L 119.54086303710938 205.80908203125" stroke-width="0.6000000238418579" fill="rgb(70, 150, 179)" opacity="1.0"/>
    <path d="M 454.80517578125 417.9742431640625 C 456.626953125 421.70123291015625 458.8026123046875 425.755859375 462.69952392578125 427.1705322265625 C 466.8865966796875 428.687744140625 471.65667724609375 426.4591064453125 474.5887451171875 423.107177734375 C 475.7197265625 421.8153076171875 476.6864013671875 420.29229736328125 476.89202880859375 418.5877685546875 C 477.06158447265625 417.1866455078125 476.707275390625 415.7789306640625 476.28167724609375 414.43365478515625 C 474.944580078125 410.18963623046875 472.643310546875 405.91546630859375 468.679443359375 403.8957824707031 C 464.68310546875 401.86297607421875 459.40093994140625 402.7168273925781 456.26434326171875 405.9261779785156 C 453.127685546875 409.13555908203125 452.345703125 414.42205810546875 454.45263671875 418.3876953125 L 454.80517578125 417.9742431640625" stroke-width="0.6000000238418579" fill="rgb(140, 28, 33)" opacity="1.0"/>
    <path d="M 89.30802917480469 207.13140869140625 C 92.838134765625 205.94921875 96.49835205078125 204.68020629882812 99.21209716796875 202.1278076171875 C 101.92579650878906 199.575439453125 103.42817687988281 195.31912231445312 101.7255859375 192.0062255859375 C 99.61480712890625 187.9215087890625 93.48085021972656 187.32696533203125 89.7000732421875 189.9581298828125 C 85.9193115234375 192.58929443359375 84.19172668457031 197.34893798828125 83.68289184570312 201.92120361328125 C 83.38357543945312 203.32077026367188 83.61978149414062 204.78167724609375 84.34490966796875 206.01559448242188 C 85.18283081054688 207.14715576171875 87.21310424804688 207.43209838867188 87.9237060546875 206.20843505859375 L 89.30802917480469 207.13140869140625" stroke-width="0.6000000238418579" fill="rgb(159, 159, 159)" opacity="1.0"/>
    <path d="M 382.0316467285156 301.46044921875 C 385.697509765625 300.04766845703125 388.95916748046875 297.34814453125 390.53338623046875 293.75091552734375 C 392.10760498046875 290.1536865234375 391.7827453613281 285.65576171875 389.2749328613281 282.61279296875 C 387.4991455078125 280.463623046875 384.80108642578125 279.1962890625 382.03924560546875 278.798583984375 C 379.27740478515625 278.4008483886719 376.4508056640625 278.80865478515625 373.7664489746094 279.5720520019531 C 372.5984802246094 279.90496826171875 371.3974304199219 280.33868408203125 370.59124755859375 281.2428283691406 C 369.66650390625 282.27899169921875 369.4297180175781 283.740478515625 369.29656982421875 285.12713623046875 C 368.9207458496094 289.04193115234375 369.13055419921875 293.1634521484375 371.00164794921875 296.6231689453125 C 372.87274169921875 300.08294677734375 376.73944091796875 302.6794128417969 380.62176513671875 302.1121520996094 L 382.0316467285156 301.46044921875" stroke-width="0.6000000238418579" fill="rgb(159, 159, 159)" opacity="1.0"/>
    <path d="M 102.02105712890625 429.39581298828125 C 103.99142456054688 426.6630859375 106.06320190429688 423.54022216796875 105.55833435058594 420.2159423828125 C 105.0718994140625 416.98236083984375 102.31991577148438 414.634033203125 99.7213134765625 412.64666748046875 C 98.66447448730469 411.8409118652344 97.5460205078125 411.0148010253906 96.2344970703125 410.80487060546875 C 94.0164794921875 410.4485168457031 91.9271240234375 411.92828369140625 90.39068603515625 413.5626220703125 C 88.96401977539062 415.0791015625 87.76251220703125 416.79248046875 86.82290649414062 418.6505126953125 C 85.29617309570312 421.666748046875 84.56910705566406 425.5369873046875 86.552001953125 428.2735595703125 C 87.62033081054688 429.75250244140625 89.34359741210938 430.6651611328125 91.11907958984375 431.0970458984375 C 92.89456176757812 431.5289306640625 94.74526977539062 431.5225830078125 96.57223510742188 431.490234375 C 98.39920043945312 431.4578857421875 100.19366455078125 431.38702392578125 101.80693054199219 430.6260986328125 L 102.02105712890625 429.39581298828125" stroke-width="0.6000000238418579" fill="rgb(218, 166, 20)" opacity="1.0"/>
    <path d="M 99.03182983398438 143.61175537109375 C 106.14701843261719 143.88157653808594 112.13375854492188 138.33230590820312 112.40357971191406 131.21710205078125 C 112.42669677734375 130.6078338623047 112.40652465820312 129.99769592285156 112.34329223632812 129.39125061035156 C 112.10256958007812 127.08700561523438 111.16258239746094 124.76312255859375 109.35153198242188 123.320068359375 C 107.82118225097656 122.10043334960938 105.83770751953125 121.61955261230469 103.89846801757812 121.36700439453125 C 98.70672607421875 120.69815063476562 93.43057250976562 121.431640625 88.61808776855469 123.49124145507812 C 87.346923828125 124.03778076171875 86.08013916015625 124.70146179199219 85.1807861328125 125.75689697265625 C 83.669921875 127.52786254882812 83.4708251953125 130.12060546875 84.02163696289062 132.38409423828125 C 84.83702087402344 135.74514770507812 87.13137817382812 138.64979553222656 90.0252685546875 140.54515075683594 C 92.91914367675781 142.4405059814453 96.36982727050781 143.3826141357422 99.82246398925781 143.5926055908203 L 99.03182983398438 143.61175537109375" stroke-width="0.6000000238418579" fill="rgb(143, 165, 67)" opacity="1.0"/>
    <path d="M 460.697021484375 344.4106750488281 C 464.39825439453125 351.498291015625 476.49658203125 351.1423645019531 480.277587890625 344.1554870605469 C 484.05853271484375 337.1685791015625 478.3089599609375 327.19476318359375 470.35321044921875 326.37127685546875 C 462.3974609375 325.54779052734375 454.908935546875 333.3005065917969 455.4271240234375 341.28936767578125 L 460.697021484375 344.4106750488281" stroke-width="0.6000000238418579" fill="rgb(233, 92, 21)" opacity="1.0"/>
    <path d="M 101.12091064453125 219.57559204101562 C 103.73533630371094 217.00738525390625 106.59196472167969 213.66839599609375 105.58283996582031 210.13226318359375 C 105.12649536132812 208.74066162109375 104.24955749511719 207.52490234375 103.07298278808594 206.65283203125 C 100.21994018554688 204.41671752929688 96.46002197265625 203.70217895507812 92.985595703125 204.73580932617188 C 90.04055786132812 205.62014770507812 87.6549072265625 207.69509887695312 85.3961181640625 209.75369262695312 C 84.12913513183594 210.91217041015625 82.81991577148438 212.18331909179688 82.40646362304688 213.83984375 C 81.87345886230469 216.0523681640625 83.09078979492188 218.29885864257812 84.46347045898438 220.11322021484375 C 86.46905517578125 222.77105712890625 88.8916015625 225.0867919921875 91.63716125488281 226.97052001953125 C 92.58705139160156 227.61956787109375 93.62464904785156 228.23507690429688 94.77182006835938 228.31610107421875 C 95.84234619140625 228.33682250976562 96.89578247070312 228.045654296875 97.80364990234375 227.47802734375 C 100.62460327148438 225.86334228515625 102.59521484375 223.09246826171875 103.19461059570312 219.89788818359375 L 101.12091064453125 219.57559204101562" stroke-width="0.6000000238418579" fill="rgb(70, 150, 179)" opacity="1.0"/>
    <path d="M 102.69302368164062 80.69473266601562 C 103.1845703125 84.79388427734375 103.90155029296875 89.31684875488281 107.10054016113281 91.92250061035156 C 110.53863525390625 94.719482421875 115.75131225585938 94.18716430664062 119.60450744628906 91.9971923828125 C 121.09049987792969 91.15345764160156 122.49771118164062 90.03872680664062 123.24911499023438 88.50419616699219 C 123.86729431152344 87.24295043945312 123.99534606933594 85.803955078125 124.035888671875 84.4002685546875 C 124.16909790039062 79.97393798828125 123.406005859375 75.2034912109375 120.34223937988281 72.00735473632812 C 117.252197265625 68.78826904296875 112.00845336914062 67.86093139648438 108.00971984863281 69.84991455078125 C 104.010986328125 71.83888244628906 101.54490661621094 76.551025390625 102.226318359375 80.96780395507812 L 102.69302368164062 80.69473266601562" stroke-width="0.6000000238418579" fill="rgb(140, 28, 33)" opacity="1.0"/>
    <path d="M 90.96932983398438 411.1411437988281 C 94.86834716796875 409.55804443359375 98.90802001953125 407.8677673339844 101.78924560546875 404.7965087890625 C 104.67041015625 401.72528076171875 106.06463623046875 396.81732177734375 103.90975952148438 393.20013427734375 C 101.23983764648438 388.74102783203125 94.27774047851562 388.5036315917969 90.19830322265625 391.7391357421875 C 86.11886596679688 394.9746398925781 84.50614929199219 400.46636962890625 84.255126953125 405.66058349609375 C 84.01634216308594 407.2607116699219 84.38603210449219 408.89215087890625 85.29129028320312 410.23297119140625 C 86.31655883789062 411.45037841796875 88.62715148925781 411.6283874511719 89.34237670898438 410.1976623535156 L 90.96932983398438 411.1411437988281" stroke-width="0.6000000238418579" fill="rgb(159, 159, 159)" opacity="1.0"/>
    <path d="M 478.0079345703125 66.5784912109375 C 479.7886962890625 63.007659912109375 480.3848876953125 58.74891662597656 479.10076904296875 54.97314453125 C 477.816650390625 51.197357177734375 474.491455078125 48.04730224609375 470.52630615234375 47.4837646484375 C 467.722412109375 47.088897705078125 464.8310546875 47.98712158203125 462.48773193359375 49.581085205078125 C 460.1444091796875 51.17503356933594 458.3043212890625 53.417327880859375 456.8145751953125 55.828826904296875 C 456.1668701171875 56.87864685058594 455.5634765625 58.02671813964844 455.57843017578125 59.256988525390625 C 455.594970703125 60.667449951171875 456.41864013671875 61.92552185058594 457.268798828125 63.05647277832031 C 459.6690673828125 66.24932861328125 462.650146484375 69.19595336914062 466.42340087890625 70.50822448730469 C 470.1966552734375 71.82049560546875 474.8748779296875 71.11825561523438 477.39727783203125 68.0330810546875 L 478.0079345703125 66.5784912109375" stroke-width="0.6000000238418579" fill="rgb(159, 159, 159)" opacity="1.0"/>
    <path d="M 88.38595581054688 107.09869384765625 C 92.69486999511719 107.67559814453125 97.50942993164062 108.13021850585938 100.98358154296875 105.53099060058594 C 104.36578369140625 103.00799560546875 105.36093139648438 98.4468994140625 106.03884887695312 94.28021240234375 C 106.31173706054688 92.58714294433594 106.57025146484375 90.81159973144531 106.01016235351562 89.19172668457031 C 105.06451416015625 86.45146179199219 102.10845947265625 84.97598266601562 99.31332397460938 84.22369384765625 C 96.71923828125 83.52442932128906 94.03817749023438 83.2012939453125 91.35220336914062 83.26412963867188 C 86.99093627929688 83.3646240234375 82.14535522460938 84.89494323730469 80.24005126953125 88.81758117675781 C 79.20834350585938 90.93377685546875 79.21975708007812 93.45008850097656 79.8099365234375 95.73294067382812 C 80.40013122558594 98.01577758789062 81.53468322753906 100.11726379394531 82.684326171875 102.1759033203125 C 83.83395385742188 104.23455810546875 85.0076904296875 106.23275756835938 86.85598754882812 107.6044921875 L 88.38595581054688 107.09869384765625" stroke-width="0.6000000238418579" fill="rgb(218, 166, 20)" opacity="1.0"/>
    <path d="M 127.4793701171875 135.0089111328125 C 134.53720092773438 134.4419708251953 139.7991180419922 128.26084899902344 139.232177734375 121.20301818847656 C 139.1836395263672 120.59864807128906 139.09226989746094 119.99850463867188 138.9587860107422 119.40704345703125 C 138.451171875 117.15982055664062 137.25074768066406 114.97506713867188 135.29331970214844 113.76217651367188 C 133.63925170898438 112.73704528808594 131.62423706054688 112.4945068359375 129.67967224121094 112.47225952148438 C 124.4744873046875 112.41987609863281 119.3502197265625 113.76217651367188 114.83914184570312 116.35969543457031 C 113.64790344238281 117.04830932617188 112.47468566894531 117.85205078125 111.710205078125 118.9996337890625 C 110.42564392089844 120.92543029785156 110.53273010253906 123.50906372070312 111.34176635742188 125.67974853515625 C 112.5406494140625 128.9032745361328 115.14653015136719 131.50286865234375 118.22622680664062 133.0355682373047 C 121.30592346191406 134.5682830810547 124.82382202148438 135.0944366455078 128.2578887939453 134.8973846435547 L 127.4793701171875 135.0089111328125" stroke-width="0.6000000238418579" fill="rgb(143, 165, 67)" opacity="1.0"/>
    <path d="M 391.6038818359375 309.0578918457031 C 395.0322265625 317.59210205078125 408.920166015625 318.5638732910156 414.0443115234375 310.9978942871094 C 419.1683349609375 303.431884765625 413.72454833984375 291.3607177734375 404.7124938964844 289.51123046875 C 395.700439453125 287.6617736816406 386.2454833984375 295.6816711425781 385.9278564453125 304.88458251953125 L 391.6038818359375 309.0578918457031" stroke-width="0.6000000238418579" fill="rgb(233, 92, 21)" opacity="1.0"/>
    <path d="M 122.51298522949219 108.82830810546875 C 126.42237854003906 107.76814270019531 130.9822998046875 106.09628295898438 131.9234619140625 102.142333984375 C 132.2367706298828 100.55426025390625 132.04957580566406 98.90809631347656 131.3876495361328 97.43093872070312 C 129.8482666015625 93.73196411132812 126.61149597167969 91.00860595703125 122.70376586914062 90.12445068359375 C 119.38702392578125 89.38291931152344 115.96505737304688 90.09152221679688 112.67416381835938 90.85302734375 C 110.82624816894531 91.28378295898438 108.87661743164062 91.80029296875 107.58171081542969 93.17295837402344 C 105.87069702148438 95.01673889160156 105.82810974121094 97.84049987792969 106.16908264160156 100.33187866210938 C 106.66352844238281 103.9786376953125 107.74496459960938 107.52133178710938 109.3714599609375 110.82252502441406 C 109.93563842773438 111.96206665039062 110.60247802734375 113.11677551269531 111.6641845703125 113.81565856933594 C 112.68463134765625 114.41497802734375 113.857421875 114.70443725585938 115.03953552246094 114.64874267578125 C 118.63191223144531 114.61929321289062 122.03054809570312 113.01544189453125 124.33702087402344 110.26112365722656 L 122.51298522949219 108.82830810546875" stroke-width="0.6000000238418579" fill="rgb(70, 150, 179)" opacity="1.0"/>
    <path d="M 422.01861572265625 64.60171508789062 C 424.0792236328125 67.88235473632812 426.5009765625 71.43215942382812 430.259765625 72.36016845703125 C 434.298095703125 73.35462951660156 438.507080078125 70.81295776367188 440.8980712890625 67.41006469726562 C 441.8204345703125 66.09843444824219 442.5673828125 64.58847045898438 442.589599609375 62.98530578613281 C 442.6083984375 61.66740417480469 442.14007568359375 60.39521789550781 441.6116943359375 59.188079833984375 C 439.949951171875 55.379364013671875 437.3897705078125 51.6380615234375 433.509033203125 50.154876708984375 C 429.59674072265625 48.66276550292969 424.776123046875 49.978485107421875 422.18109130859375 53.26922607421875 C 419.5860595703125 56.559967041015625 419.3831787109375 61.54652404785156 421.732177734375 65.0205078125 L 422.01861572265625 64.60171508789062" stroke-width="0.6000000238418579" fill="rgb(140, 28, 33)" opacity="1.0"/>
    <path d="M 114.84234619140625 424.44873046875 C 116.80264282226562 421.0428466796875 118.80490112304688 417.477294921875 119.16082763671875 413.56085205078125 C 119.51675415039062 409.64447021484375 117.72265625 405.2305908203125 114.057861328125 403.8062744140625 C 109.53012084960938 402.0582580566406 104.26896667480469 405.8843078613281 103.12542724609375 410.61016845703125 C 101.98187255859375 415.3360595703125 103.95059204101562 420.30517578125 106.75067138671875 424.2728271484375 C 107.49441528320312 425.587890625 108.70404052734375 426.57635498046875 110.14089965820312 427.0430908203125 C 111.59518432617188 427.35009765625 113.39828491210938 426.1533203125 113.10258483886719 424.689208984375 L 114.84234619140625 424.44873046875" stroke-width="0.6000000238418579" fill="rgb(159, 159, 159)" opacity="1.0"/>
    <path d="M 466.4530029296875 445.7415771484375 C 466.72802734375 442.90362548828125 466.03668212890625 439.90966796875 464.2142333984375 437.71875 C 462.391845703125 435.5279541015625 459.36767578125 434.2764892578125 456.57794189453125 434.91455078125 C 454.60614013671875 435.3681640625 452.90673828125 436.7069091796875 451.7508544921875 438.36968994140625 C 450.594970703125 440.032470703125 449.940673828125 441.9991455078125 449.5633544921875 443.9891357421875 C 449.39971923828125 444.855224609375 449.29071044921875 445.7755126953125 449.6153564453125 446.592529296875 C 449.987060546875 447.5294189453125 450.8583984375 448.158203125 451.71484375 448.6953125 C 454.13287353515625 450.21185302734375 456.87542724609375 451.41552734375 459.7286376953125 451.32611083984375 C 462.581787109375 451.2366943359375 465.5235595703125 449.57177734375 466.4176025390625 446.8682861328125 L 466.4530029296875 445.7415771484375" stroke-width="0.6000000238418579" fill="rgb(159, 159, 159)" opacity="1.0"/>
    <path d="M 453.6673583984375 288.5562744140625 C 455.3551025390625 284.6034851074219 457.059814453125 280.13665771484375 455.5010986328125 276.1402282714844 C 453.99072265625 272.2515563964844 449.908203125 270.0987548828125 446.1175537109375 268.3523864746094 C 444.57666015625 267.64520263671875 442.95330810546875 266.9299621582031 441.2620849609375 267.03570556640625 C 438.401611328125 267.2128601074219 436.21514892578125 269.63946533203125 434.7601318359375 272.1037292480469 C 433.4088134765625 274.3904724121094 432.392822265625 276.8594055175781 431.7432861328125 279.4349670410156 C 430.68701171875 283.6165771484375 430.86517333984375 288.6372375488281 434.09912109375 291.488525390625 C 435.8427734375 293.0303649902344 438.2430419921875 293.6841125488281 440.5738525390625 293.72479248046875 C 442.9046630859375 293.7654724121094 445.2064208984375 293.2396240234375 447.471435546875 292.6880798339844 C 449.736328125 292.1365661621094 451.9500732421875 291.5461120605469 453.7451171875 290.1474914550781 L 453.6673583984375 288.5562744140625" stroke-width="0.6000000238418579" fill="rgb(218, 166, 20)" opacity="1.0"/>
    <path d="M 426.84002685546875 362.4528503417969 C 425.9564208984375 368.0987854003906 429.81695556640625 373.3920593261719 435.462890625 374.27569580078125 C 435.94635009765625 374.35137939453125 436.4345703125 374.39263916015625 436.92388916015625 374.39923095703125 C 438.78314208984375 374.4238586425781 440.7237548828125 373.89300537109375 442.044189453125 372.5850830078125 C 443.16009521484375 371.4798889160156 443.729736328125 369.944091796875 444.11328125 368.4221496582031 C 445.13427734375 364.3468017578125 445.04541015625 360.07244873046875 443.85595703125 356.0430603027344 C 443.539794921875 354.9784851074219 443.12982177734375 353.90643310546875 442.373046875 353.09039306640625 C 441.10345458984375 351.7197265625 439.0555419921875 351.3174133300781 437.19964599609375 351.5437316894531 C 434.444091796875 351.8778381347656 431.91326904296875 353.43365478515625 430.130615234375 355.56219482421875 C 428.34796142578125 357.6907043457031 427.2728271484375 360.35260009765625 426.781005859375 363.0848388671875 L 426.84002685546875 362.4528503417969" stroke-width="0.6000000238418579" fill="rgb(143, 165, 67)" opacity="1.0"/>
    <path d="M 450.4581298828125 345.9087829589844 C 456.6607666015625 341.80718994140625 455.1746826171875 330.64947509765625 448.3497314453125 327.8198547363281 C 441.52484130859375 324.99029541015625 432.84814453125 331.26275634765625 432.8470458984375 338.70111083984375 C 432.8460693359375 346.13946533203125 440.73388671875 352.3255615234375 448.0745849609375 351.0823059082031 L 450.4581298828125 345.9087829589844" stroke-width="0.6000000238418579" fill="rgb(233, 92, 21)" opacity="1.0"/>
    <path d="M 453.2958984375 73.099853515625 C 456.3323974609375 71.51576232910156 459.7952880859375 69.30859375 459.85601806640625 65.87257385253906 C 459.826904296875 64.50424194335938 459.3740234375 63.17863464355469 458.55963134765625 62.078643798828125 C 456.617919921875 59.302764892578125 453.451171875 57.640228271484375 450.0635986328125 57.61822509765625 C 447.1900634765625 57.60693359375 444.4923095703125 58.81233215332031 441.9124755859375 60.03765869140625 C 440.46441650390625 60.72831726074219 438.9478759765625 61.50823974609375 438.127197265625 62.876556396484375 C 437.04827880859375 64.70938110351562 437.52490234375 67.04917907714844 438.25799560546875 69.04495239257812 C 439.3272705078125 71.96710205078125 440.8624267578125 74.69692993164062 442.8040771484375 77.12850952148438 C 443.47650146484375 77.96737670898438 444.23651123046875 78.80018615722656 445.239990234375 79.18495178222656 C 446.19140625 79.49497985839844 447.21240234375 79.521484375 448.1785888671875 79.26126098632812 C 451.14013671875 78.58586120605469 453.65625 76.64532470703125 455.06195068359375 73.95259094238281 L 453.2958984375 73.099853515625" stroke-width="0.6000000238418579" fill="rgb(70, 150, 179)" opacity="1.0"/>
    <path d="M 451.5267333984375 397.2299499511719 C 451.973876953125 393.3448181152344 452.306396484375 389.0196533203125 449.9307861328125 385.9162292480469 C 447.376953125 382.5839538574219 442.456787109375 381.92987060546875 438.42529296875 383.10174560546875 C 436.87078857421875 383.5528869628906 435.329345703125 384.27105712890625 434.29998779296875 385.52008056640625 C 433.453369140625 386.5465087890625 433.0194091796875 387.8443908691406 432.673828125 389.12890625 C 431.57916259765625 393.1783447265625 431.23480224609375 397.7416687011719 433.3560791015625 401.3595275878906 C 435.49658203125 405.0043029785156 440.1248779296875 407.01025390625 444.24627685546875 406.0555419921875 C 448.36767578125 405.100830078125 451.6748046875 401.3003234863281 452.0167236328125 397.080810546875 L 451.5267333984375 397.2299499511719" stroke-width="0.6000000238418579" fill="rgb(140, 28, 33)" opacity="1.0"/>
    <path d="M 126.6353759765625 215.25653076171875 C 122.14747619628906 218.09011840820312 117.5087890625 221.08810424804688 114.61581420898438 225.54254150390625 C 111.722900390625 229.99688720703125 111.08499145507812 236.400390625 114.56564331054688 240.4111328125 C 118.87319946289062 245.35235595703125 127.56919860839844 244.0966796875 131.9131317138672 239.1715087890625 C 136.25706481933594 234.246337890625 137.03623962402344 227.06951904296875 136.19119262695312 220.56524658203125 C 136.13131713867188 218.52557373046875 135.30908203125 216.58258056640625 133.88665771484375 215.11956787109375 C 132.3427276611328 213.83651733398438 129.43460083007812 214.13006591796875 128.8652801513672 216.06549072265625 L 126.6353759765625 215.25653076171875" stroke-width="0.6000000238418579" fill="rgb(159, 159, 159)" opacity="1.0"/>
    <path d="M 109.34382629394531 234.36590576171875 C 104.43124389648438 231.846923828125 98.548583984375 230.95620727539062 93.30500793457031 232.67431640625 C 88.06143188476562 234.3924560546875 83.65193176269531 238.9439697265625 82.8109130859375 244.42098999023438 C 82.22122192382812 248.29403686523438 83.41915893554688 252.3079833984375 85.58807373046875 255.57464599609375 C 87.75698852539062 258.8412780761719 90.83067321777344 261.4216613769531 94.14387512207031 263.52001953125 C 95.58624267578125 264.43231201171875 97.16523742675781 265.2848815917969 98.86749267578125 265.2832336425781 C 100.81912231445312 265.2822570800781 102.57237243652344 264.162109375 104.15017700195312 263.00341796875 C 108.60456848144531 259.73211669921875 112.727294921875 255.653564453125 114.6011962890625 250.45364379882812 C 116.47509765625 245.25369262695312 115.57598876953125 238.77066040039062 111.34677124023438 235.23324584960938 L 109.34382629394531 234.36590576171875" stroke-width="0.6000000238418579" fill="rgb(159, 159, 159)" opacity="1.0"/>
    <path d="M 299.6113586425781 99.1119384765625 C 298.0383605957031 103.76724243164062 296.4915771484375 109.00994873046875 298.62286376953125 113.4268798828125 C 300.68951416015625 117.72528076171875 305.53399658203125 119.81686401367188 310.0096130371094 121.4710693359375 C 311.8287658691406 122.14041137695312 313.7425537109375 122.81163024902344 315.6608581542969 122.54104614257812 C 318.9056091308594 122.08528137207031 321.1824951171875 119.1253662109375 322.6222839355469 116.18740844726562 C 323.959716796875 113.46099853515625 324.8987121582031 110.55665588378906 325.4105529785156 107.56332397460938 C 326.2433776855469 102.70326232910156 325.5948486328125 96.99635314941406 321.65570068359375 94.0333251953125 C 319.53143310546875 92.43058776855469 316.7374267578125 91.89842224121094 314.0771179199219 92.05886840820312 C 311.4167785644531 92.21931457519531 308.8398132324219 93.02294921875 306.30706787109375 93.85258483886719 C 303.77435302734375 94.68220520019531 301.303466796875 95.55166625976562 299.3815002441406 97.30513000488281 L 299.6113586425781 99.1119384765625" stroke-width="0.6000000238418579" fill="rgb(218, 166, 20)" opacity="1.0"/>
    <path d="M 224.5142822265625 121.11883544921875 C 218.36441040039062 113.93756103515625 207.557373046875 113.10142517089844 200.3760986328125 119.25128173828125 C 199.76116943359375 119.77789306640625 199.18438720703125 120.34747314453125 198.6500244140625 120.95571899414062 C 196.6201171875 123.26728820800781 195.2012939453125 126.27841186523438 195.42645263671875 129.3450164794922 C 195.61651611328125 131.93653869628906 196.935302734375 134.30406188964844 198.4368896484375 136.42263793945312 C 202.46405029296875 142.08799743652344 207.9346923828125 146.5717315673828 214.280517578125 149.4080810546875 C 215.95916748046875 150.15499877929688 217.74810791015625 150.7920684814453 219.58782958984375 150.7177734375 C 222.676513671875 150.5948486328125 225.3841552734375 148.4521484375 227.0948486328125 145.87493896484375 C 229.6373291015625 142.05050659179688 230.4017333984375 137.19529724121094 229.64166259765625 132.66514587402344 C 228.88156127929688 128.135009765625 226.69012451171875 123.92109680175781 223.78298950195312 120.36514282226562 L 224.5142822265625 121.11883544921875" stroke-width="0.6000000238418579" fill="rgb(143, 165, 67)" opacity="1.0"/>
    <path d="M 220.68527221679688 89.17657470703125 C 221.6746826171875 100.34518432617188 237.53817749023438 106.3795166015625 246.1873779296875 99.35848999023438 C 254.83651733398438 92.33741760253906 252.7431640625 76.33023071289062 242.87921142578125 70.99212646484375 C 233.0152587890625 65.65403747558594 219.152099609375 71.67662048339844 215.53424072265625 82.30380249023438 L 220.68527221679688 89.17657470703125" stroke-width="0.6000000238418579" fill="rgb(233, 92, 21)" opacity="1.0"/>
    <path d="M 197.45849609375 98.50210571289062 C 196.13677978515625 93.34371948242188 194.02301025390625 87.31898498535156 188.8428955078125 86.00909423828125 C 186.76113891601562 85.56803894042969 184.59381103515625 85.7838134765625 182.639892578125 86.62673950195312 C 177.74932861328125 88.58221435546875 174.10992431640625 92.78683471679688 172.87582397460938 97.90725708007812 C 171.840087890625 102.25347900390625 172.70858764648438 106.76467895507812 173.6490478515625 111.10453796386719 C 174.1812744140625 113.54154968261719 174.82440185546875 116.11383056640625 176.60491943359375 117.84124755859375 C 178.9970703125 120.12428283691406 182.7081298828125 120.23219299316406 185.98931884765625 119.829833984375 C 190.79205322265625 119.2469482421875 195.46878051757812 117.89056396484375 199.838134765625 115.81326293945312 C 201.346435546875 115.09262084960938 202.87655639648438 114.23731994628906 203.81475830078125 112.85455322265625 C 204.621337890625 111.52421569824219 205.02340698242188 109.9879150390625 204.971923828125 108.43299865722656 C 204.99932861328125 103.71029663085938 202.95355224609375 99.21331787109375 199.37545776367188 96.13078308105469 L 197.45849609375 98.50210571289062" stroke-width="0.6000000238418579" fill="rgb(70, 150, 179)" opacity="1.0"/>
    <path d="M 263.80633544921875 131.34645080566406 C 260.5719299316406 135.08792114257812 257.1439514160156 139.370849609375 257.416015625 144.30587768554688 C 257.71148681640625 149.60704040527344 262.38714599609375 153.7948760986328 267.4346008300781 155.44158935546875 C 269.38043212890625 156.07733154296875 271.50274658203125 156.42474365234375 273.4679870605469 155.8526611328125 C 275.083740234375 155.38299560546875 276.46160888671875 154.33583068847656 277.73760986328125 153.23965454101562 C 281.7657165527344 149.78768920898438 285.375732421875 145.26431274414062 285.7357177734375 139.97280883789062 C 286.0948486328125 134.6395263671875 282.68707275390625 129.24691772460938 277.70025634765625 127.30917358398438 C 272.71343994140625 125.37141418457031 266.5506896972656 126.98750305175781 263.18804931640625 131.15330505371094 L 263.80633544921875 131.34645080566406" stroke-width="0.6000000238418579" fill="rgb(140, 28, 33)" opacity="1.0"/>
    <path d="M 305.1191101074219 123.49972534179688 C 300.07696533203125 124.58544921875 294.84228515625 125.77078247070312 290.7137756347656 128.8685302734375 C 286.5853576660156 131.9662628173828 283.8631591796875 137.59616088867188 285.6988220214844 142.41915893554688 C 287.97802734375 148.36756896972656 296.3326416015625 150.1280517578125 301.94244384765625 147.08566284179688 C 307.55224609375 144.0432891845703 310.6617736816406 137.7549285888672 312.064453125 131.53746032714844 C 312.6914978027344 129.6562957763672 312.590576171875 127.60850524902344 311.78155517578125 125.79815673828125 C 310.80157470703125 124.11140441894531 308.0498352050781 123.4073486328125 306.8835144042969 124.98313903808594 L 305.1191101074219 123.49972534179688" stroke-width="0.6000000238418579" fill="rgb(159, 159, 159)" opacity="1.0"/>
    <path d="M 195.737060546875 134.30807495117188 C 191.94921875 129.95010375976562 186.58575439453125 126.79498291015625 180.82684326171875 126.42108154296875 C 175.06793212890625 126.04718017578125 169.01541137695312 128.7484130859375 166.06646728515625 133.7374725341797 C 163.98602294921875 137.26742553710938 163.5859375 141.63021850585938 164.41937255859375 145.6456298828125 C 165.2528076171875 149.66107177734375 167.23171997070312 153.36264038085938 169.63079833984375 156.6895751953125 C 170.67568969726562 158.13677978515625 171.87646484375 159.57916259765625 173.52947998046875 160.2403564453125 C 175.42431640625 160.99929809570312 177.56231689453125 160.59466552734375 179.5450439453125 160.084228515625 C 185.14266967773438 158.64321899414062 190.732666015625 156.2894287109375 194.57635498046875 151.97149658203125 C 198.4200439453125 147.65353393554688 200.071533203125 141.0103759765625 197.34359741210938 135.92990112304688 L 195.737060546875 134.30807495117188" stroke-width="0.6000000238418579" fill="rgb(159, 159, 159)" opacity="1.0"/>
    <path d="M 280.2165222167969 96.26785278320312 C 275.497802734375 98.68281555175781 270.3573303222656 101.57156372070312 268.6813659667969 106.58950805664062 C 267.0445861816406 111.46717834472656 269.2156066894531 116.7291259765625 271.4305419921875 121.37545776367188 C 272.3331298828125 123.26165771484375 273.30743408203125 125.22048950195312 274.993896484375 126.45474243164062 C 277.8450012207031 128.54388427734375 281.8321838378906 127.9691162109375 285.15576171875 126.78140258789062 C 288.24102783203125 125.68022155761719 291.1521911621094 124.14169311523438 293.8001403808594 122.21298217773438 C 298.1007995605469 119.08282470703125 301.8935546875 114.18341064453125 301.0780944824219 108.92904663085938 C 300.6419982910156 106.09176635742188 298.8826599121094 103.57809448242188 296.7055358886719 101.70039367675781 C 294.5283508300781 99.82269287109375 291.9316711425781 98.5048828125 289.3496398925781 97.240478515625 C 286.7676086425781 95.97605895996094 284.2033996582031 94.78897094726562 281.3983459472656 94.6982421875 L 280.2165222167969 96.26785278320312" stroke-width="0.6000000238418579" fill="rgb(218, 166, 20)" opacity="1.0"/>
    <path d="M 234.50390625 119.07196044921875 C 232.62051391601562 128.8230743408203 238.99853515625 138.2547149658203 248.7496337890625 140.13812255859375 C 249.58462524414062 140.29940795898438 250.42999267578125 140.4012451171875 251.2794189453125 140.44288635253906 C 254.50698852539062 140.60052490234375 257.9101867675781 139.79840087890625 260.2841796875 137.60836791992188 C 262.2905578613281 135.75784301757812 263.37481689453125 133.125732421875 264.1348876953125 130.50611877441406 C 266.1597900390625 123.49127197265625 266.26947021484375 116.06219482421875 264.45257568359375 108.9906005859375 C 263.96917724609375 107.1221923828125 263.3233642578125 105.23492431640625 262.05950927734375 103.77093505859375 C 259.93914794921875 101.31196594238281 256.40728759765625 100.48675537109375 253.17001342773438 100.76521301269531 C 248.363525390625 101.17526245117188 243.87203979492188 103.7210693359375 240.64453125 107.30770874023438 C 237.4169921875 110.89433288574219 235.38525390625 115.45103454589844 234.36236572265625 120.16595458984375 L 234.50390625 119.07196044921875" stroke-width="0.6000000238418579" fill="rgb(143, 165, 67)" opacity="1.0"/>
    <path d="M 254.61260986328125 86.53948974609375 C 254.74481201171875 98.14599609375 270.63812255859375 105.63711547851562 280.1242980957031 99.07876586914062 C 289.6104431152344 92.5203857421875 288.72393798828125 75.83180236816406 278.96771240234375 69.53689575195312 C 269.21148681640625 63.241973876953125 254.423095703125 68.354736328125 249.84295654296875 79.03569030761719 L 254.61260986328125 86.53948974609375" stroke-width="0.6000000238418579" fill="rgb(233, 92, 21)" opacity="1.0"/>
    <path d="M 340.48638916015625 77.94097900390625 C 336.6203308105469 74.51719665527344 331.6470947265625 70.828369140625 326.7750244140625 72.59297180175781 C 324.8634948730469 73.37066650390625 323.2403564453125 74.72236633300781 322.12957763671875 76.46163940429688 C 319.2654724121094 80.69107055664062 318.6289978027344 86.04635620117188 320.4219970703125 90.82928466796875 C 321.953369140625 94.88264465332031 325.1036376953125 98.03311157226562 328.218505859375 101.00686645507812 C 329.9709777832031 102.67451477050781 331.885986328125 104.3905029296875 334.25506591796875 104.80958557128906 C 337.41741943359375 105.34231567382812 340.4562072753906 103.41120910644531 342.87237548828125 101.30406188964844 C 346.4122619628906 98.22465515136719 349.4303894042969 94.59259033203125 351.8096923828125 90.54875183105469 C 352.6291198730469 89.14996337890625 353.392822265625 87.63116455078125 353.3944091796875 86.0106201171875 C 353.3188171386719 84.50375366210938 352.806396484375 83.05142211914062 351.91961669921875 81.83073425292969 C 349.373779296875 78.0233154296875 345.2858581542969 75.52433776855469 340.7364807128906 74.99441528320312 L 340.48638916015625 77.94097900390625" stroke-width="0.6000000238418579" fill="rgb(70, 150, 179)" opacity="1.0"/>
    <path d="M 334.5393371582031 137.36622619628906 C 333.539794921875 132.71607971191406 332.2366638183594 127.60372924804688 328.2900085449219 124.95458984375 C 324.0487060546875 122.11137390136719 318.1255187988281 123.27601623535156 313.9380187988281 126.19775390625 C 312.3230285644531 127.32354736328125 310.8271789550781 128.75186157226562 310.1282958984375 130.59207153320312 C 309.55316162109375 132.1046142578125 309.5592041015625 133.7689971923828 309.661865234375 135.383544921875 C 309.9794616699219 140.4754180908203 311.36181640625 145.8667755126953 315.2160949707031 149.20765686035156 C 319.10296630859375 152.5720672607422 325.2169189453125 153.07861328125 329.5927429199219 150.37197875976562 C 333.9685363769531 147.6653594970703 336.2967529296875 141.99771118164062 335.0456848144531 137.0033721923828 L 334.5393371582031 137.36622619628906" stroke-width="0.6000000238418579" fill="rgb(140, 28, 33)" opacity="1.0"/>
    <path d="M 345.484130859375 105.87725830078125 C 340.40521240234375 104.78469848632812 335.1082763671875 103.70381164550781 330.0344543457031 104.83700561523438 C 324.960693359375 105.97021484375 320.1286926269531 110.01081848144531 319.8154296875 115.19926452636719 C 319.4430236816406 121.60470581054688 326.38360595703125 126.682861328125 332.7944030761719 126.21430969238281 C 339.2052307128906 125.74575805664062 344.66571044921875 121.26113891601562 348.52978515625 116.13433837890625 C 349.88494873046875 114.66714477539062 350.6408386230469 112.74533081054688 350.6482849121094 110.74809265136719 C 350.447509765625 108.79345703125 348.2129821777344 107.00686645507812 346.4892578125 107.97024536132812 L 345.484130859375 105.87725830078125" stroke-width="0.6000000238418579" fill="rgb(159, 159, 159)" opacity="1.0"/>
    <path d="M 345.5281677246094 121.3333740234375 C 340.9591064453125 122.57757568359375 336.716796875 125.414306640625 334.3877258300781 129.53456115722656 C 332.05865478515625 133.65480041503906 331.896240234375 139.08811950683594 334.5299377441406 143.044677734375 C 336.3955383300781 145.8396453857422 339.4752502441406 147.69036865234375 342.7381591796875 148.50616455078125 C 346.00103759765625 149.32199096679688 349.4404602050781 149.1798858642578 352.7529296875 148.59388732910156 C 354.1943054199219 148.33802795410156 355.68768310546875 147.96530151367188 356.76531982421875 146.98008728027344 C 358.0013427734375 145.8511199951172 358.464599609375 144.12771606445312 358.79443359375 142.48133850097656 C 359.7254638671875 137.833251953125 359.9796447753906 132.8654022216797 358.1606140136719 128.48724365234375 C 356.3415222167969 124.10906982421875 352.02362060546875 120.5211181640625 347.2987365722656 120.72492980957031 L 345.5281677246094 121.3333740234375" stroke-width="0.6000000238418579" fill="rgb(159, 159, 159)" opacity="1.0"/>
    <path d="M 362.45806884765625 101.38638305664062 C 358.3656311035156 101.795166015625 353.83441162109375 102.42686462402344 351.2032165527344 105.577392578125 C 348.64007568359375 108.63771057128906 348.7188720703125 113.05349731445312 349.0036926269531 117.03703308105469 C 349.12176513671875 118.65512084960938 349.2710876464844 120.34599304199219 350.1400146484375 121.71499633789062 C 351.6082458496094 124.03129577636719 354.65130615234375 124.7447509765625 357.38848876953125 124.82759094238281 C 359.92901611328125 124.90545654296875 362.4675598144531 124.61810302734375 364.9264221191406 123.974365234375 C 368.9193115234375 122.93057250976562 373.0461120605469 120.46487426757812 373.94439697265625 116.43827819824219 C 374.43255615234375 114.26516723632812 373.8731689453125 111.95126342773438 372.8319091796875 109.97850036621094 C 371.7906799316406 108.00575256347656 370.2878723144531 106.31869506835938 368.780517578125 104.67437744140625 C 367.273193359375 103.03004455566406 365.7568359375 101.44660949707031 363.75616455078125 100.5870361328125 L 362.45806884765625 101.38638305664062" stroke-width="0.6000000238418579" fill="rgb(218, 166, 20)" opacity="1.0"/>
    <path d="M 427.732421875 140.50843811035156 C 418.7257080078125 141.27394104003906 412.0447998046875 149.19593811035156 412.810302734375 158.20269775390625 C 412.8758544921875 158.97393798828125 412.99609375 159.73956298828125 413.169921875 160.49380493164062 C 413.831298828125 163.35964965820312 415.376708984375 166.1416015625 417.8826904296875 167.67840576171875 C 420.0003662109375 168.97735595703125 422.57421875 169.27505493164062 425.0567626953125 169.29196166992188 C 431.7020263671875 169.32806396484375 438.23583984375 167.58416748046875 443.9793701171875 164.241455078125 C 445.49603271484375 163.35531616210938 446.989013671875 162.32232666015625 447.9581298828125 160.852783203125 C 449.586669921875 158.38668823242188 449.4346923828125 155.08901977539062 448.3890380859375 152.32269287109375 C 446.8394775390625 148.214599609375 443.49737548828125 144.91134643554688 439.5567626953125 142.972900390625 C 435.6160888671875 141.03443908691406 431.12200927734375 140.38356018066406 426.7392578125 140.65541076660156 L 427.732421875 140.50843811035156" stroke-width="0.6000000238418579" fill="rgb(143, 165, 67)" opacity="1.0"/>
    <path d="M 147.66729736328125 408.76153564453125 C 150.4113006591797 419.146728515625 166.36761474609375 422.2738037109375 173.39654541015625 414.242919921875 C 180.42544555664062 406.2120056152344 175.85501098632812 391.43707275390625 165.67636108398438 387.99517822265625 C 155.49771118164062 384.55328369140625 143.38388061523438 392.486328125 141.68994140625 403.10687255859375 L 147.66729736328125 408.76153564453125" stroke-width="0.6000000238418579" fill="rgb(233, 92, 21)" opacity="1.0"/>
    <path d="M 432.5096435546875 195.00445556640625 C 427.7691650390625 193.4212646484375 421.9422607421875 192.02178955078125 418.272705078125 195.4400634765625 C 416.8653564453125 196.85723876953125 415.93243408203125 198.67620849609375 415.6026611328125 200.64605712890625 C 414.6556396484375 205.49798583984375 416.1190185546875 210.50799560546875 419.52880859375 214.08734130859375 C 422.42901611328125 217.1162109375 426.4285888671875 218.72735595703125 430.32958984375 220.194580078125 C 432.52227783203125 221.01522827148438 434.8780517578125 221.81729125976562 437.14654541015625 221.2923583984375 C 440.1644287109375 220.56793212890625 442.13836669921875 217.69635009765625 443.4910888671875 214.904052734375 C 445.475830078125 210.82000732421875 446.7864990234375 206.44158935546875 447.37225341796875 201.938720703125 C 447.5716552734375 200.38250732421875 447.6759033203125 198.74053955078125 447.06298828125 197.296875 C 446.4244384765625 195.98370361328125 445.4176025390625 194.88470458984375 444.1651611328125 194.1339111328125 C 440.454833984375 191.7086181640625 435.8673095703125 191.0330810546875 431.6153564453125 192.28582763671875 L 432.5096435546875 195.00445556640625" stroke-width="0.6000000238418579" fill="rgb(70, 150, 179)" opacity="1.0"/>
    <path d="M 411.0269470214844 159.1888427734375 C 410.4630126953125 154.20347595214844 409.6286315917969 148.70126342773438 405.7624206542969 145.50872802734375 C 401.6072082519531 142.08172607421875 395.268310546875 142.6861114501953 390.5679931640625 145.31597900390625 C 388.75531005859375 146.3291778564453 387.0361328125 147.67233276367188 386.1105041503906 149.53099060058594 C 385.3489990234375 151.0586395263672 385.1816711425781 152.80628967285156 385.1209411621094 154.51173400878906 C 384.9229736328125 159.88961791992188 385.8113708496094 165.69296264648438 389.5084533691406 169.60195922851562 C 393.2372741699219 173.5390625 399.60198974609375 174.708740234375 404.4775390625 172.32431030273438 C 409.35308837890625 169.93988037109375 412.38836669921875 164.23373413085938 411.5963134765625 158.86083984375 L 411.0269470214844 159.1888427734375" stroke-width="0.6000000238418579" fill="rgb(140, 28, 33)" opacity="1.0"/>
    <path d="M 142.89889526367188 132.72860717773438 C 138.01364135742188 135.2291259765625 132.9578399658203 137.88490295410156 129.5642547607422 142.20294189453125 C 126.17074584960938 146.52090454101562 124.91810607910156 153.05587768554688 128.12936401367188 157.50991821289062 C 132.10560607910156 162.99911499023438 141.1775360107422 162.5150146484375 146.10910034179688 157.84722900390625 C 151.04066467285156 153.1793975830078 152.51072692871094 145.86117553710938 152.24559020996094 139.08448791503906 C 152.37367248535156 136.97848510742188 151.7076873779297 134.90106201171875 150.3789825439453 133.26214599609375 C 148.90841674804688 131.79722595214844 145.8863067626953 131.82899475097656 145.11997985839844 133.76913452148438 L 142.89889526367188 132.72860717773438" stroke-width="0.6000000238418579" fill="rgb(159, 159, 159)" opacity="1.0"/>
    <path d="M 430.3125 169.54327392578125 C 426.1298828125 166.85226440429688 420.93408203125 165.53564453125 416.08160400390625 166.61431884765625 C 411.22906494140625 167.6929931640625 406.8748474121094 171.38543701171875 405.6385192871094 176.22186279296875 C 404.7687683105469 179.64239501953125 405.48931884765625 183.3466796875 407.146240234375 186.4664306640625 C 408.80316162109375 189.586181640625 411.3316955566406 192.17031860351562 414.117431640625 194.34341430664062 C 415.33026123046875 195.28839111328125 416.6708984375 196.1917724609375 418.19720458984375 196.3402099609375 C 419.947021484375 196.51116943359375 421.6175537109375 195.66131591796875 423.13427734375 194.76141357421875 C 427.41595458984375 192.220703125 431.471435546875 188.92706298828125 433.609375 184.42999267578125 C 435.74737548828125 179.93292236328125 435.51220703125 174.041259765625 432.0318603515625 170.497314453125 L 430.3125 169.54327392578125" stroke-width="0.6000000238418579" fill="rgb(159, 159, 159)" opacity="1.0"/>
    <path d="M 410.37213134765625 190.87326049804688 C 408.9123229980469 186.06488037109375 407.0813903808594 180.78335571289062 402.68157958984375 178.37615966796875 C 398.406005859375 176.02911376953125 393.1318359375 177.16998291015625 388.4245910644531 178.45538330078125 C 386.5130920410156 178.9803466796875 384.52178955078125 179.56005859375 383.0867614746094 180.92596435546875 C 380.6583557128906 183.2347412109375 380.5242919921875 187.05126953125 381.07366943359375 190.35174560546875 C 381.5823669433594 193.41531372070312 382.5283508300781 196.38995361328125 383.88262939453125 199.18466186523438 C 386.0799865722656 203.7232666015625 390.01336669921875 208.08541870117188 395.0525817871094 208.20794677734375 C 397.77301025390625 208.27804565429688 400.4139404296875 207.05923461914062 402.5317687988281 205.34368896484375 C 404.64959716796875 203.62811279296875 406.31561279296875 201.42706298828125 407.9293212890625 199.23065185546875 C 409.5430603027344 197.03424072265625 411.0816650390625 194.84149169921875 411.6378479003906 192.23974609375 L 410.37213134765625 190.87326049804688" stroke-width="0.6000000238418579" fill="rgb(218, 166, 20)" opacity="1.0"/>
    <path d="M 440.06494140625 182.12286376953125 C 440.650390625 190.974365234375 448.300537109375 197.67532348632812 457.1519775390625 197.08990478515625 C 457.909912109375 197.03976440429688 458.66339111328125 196.9359130859375 459.4066162109375 196.7791748046875 C 462.23077392578125 196.1829833984375 464.9888916015625 194.71783447265625 466.5428466796875 192.28717041015625 C 467.8563232421875 190.23321533203125 468.19580078125 187.71328735351562 468.258056640625 185.2777099609375 C 468.41571044921875 178.75799560546875 466.8248291015625 172.31500244140625 463.650634765625 166.61801147460938 C 462.80902099609375 165.113525390625 461.8228759765625 163.629638671875 460.3988037109375 162.65167236328125 C 458.009033203125 161.0084228515625 454.7706298828125 161.09689331054688 452.03704833984375 162.07199096679688 C 447.9776611328125 163.516845703125 444.675048828125 166.73532104492188 442.7005615234375 170.56622314453125 C 440.72607421875 174.3970947265625 440.0047607421875 178.794677734375 440.19091796875 183.10009765625 L 440.06494140625 182.12286376953125" stroke-width="0.6000000238418579" fill="rgb(143, 165, 67)" opacity="1.0"/>
    <path d="M 145.54139709472656 101.88385009765625 C 134.250732421875 107.3369140625 134.21441650390625 126.31686401367188 144.97975158691406 132.58624267578125 C 155.74513244628906 138.85556030273438 171.66012573242188 130.3336944580078 173.341552734375 117.90457153320312 C 175.02301025390625 105.47543334960938 163.2393798828125 93.35739135742188 150.69244384765625 93.77719116210938 L 145.54139709472656 101.88385009765625" stroke-width="0.6000000238418579" fill="rgb(233, 92, 21)" opacity="1.0"/>
    <path d="M 453.67138671875 146.49000549316406 C 451.3017578125 151.67080688476562 449.00848388671875 158.10516357421875 452.4375 162.67892456054688 C 453.8729248046875 164.44598388671875 455.8212890625 165.72412109375 458.013916015625 166.33688354492188 C 463.398193359375 167.9990234375 469.25408935546875 166.9483642578125 473.724609375 163.51806640625 C 477.50946044921875 160.5985107421875 479.82086181640625 156.260986328125 481.9571533203125 152.01759338378906 C 483.1533203125 149.63198852539062 484.3482666015625 147.0592803955078 484.02862548828125 144.42453002929688 C 483.57373046875 140.91612243652344 480.55859375 138.33045959472656 477.5579833984375 136.45848083496094 C 473.16998291015625 133.7133331298828 468.3665771484375 131.696533203125 463.3341064453125 130.4862823486328 C 461.594482421875 130.07147216796875 459.74615478515625 129.75399780273438 458.0355224609375 130.27349853515625 C 456.4697265625 130.83790588378906 455.1019287109375 131.84573364257812 454.0989990234375 133.174072265625 C 450.9000244140625 137.08506774902344 449.57763671875 142.20254516601562 450.4815673828125 147.17373657226562 L 453.67138671875 146.49000549316406" stroke-width="0.6000000238418579" fill="rgb(70, 150, 179)" opacity="1.0"/>
    <path d="M 378.5754089355469 79.69537353515625 C 378.9875793457031 73.22256469726562 379.17266845703125 66.03067016601562 374.97564697265625 61.09124755859375 C 370.4638977050781 55.78788757324219 362.25927734375 55.12043762207031 355.6810607910156 57.4022216796875 C 353.1443786621094 58.280914306640625 350.6519470214844 59.600738525390625 349.0526123046875 61.756500244140625 C 347.7372131347656 63.52818298339844 347.1281433105469 65.71453857421875 346.6643371582031 67.87132263183594 C 345.19354248046875 74.67098999023438 345.0089416503906 82.25839233398438 348.8283386230469 88.07135009765625 C 352.6817626953125 93.92724609375 360.5171813964844 96.85845947265625 367.2627868652344 94.92877197265625 C 374.0084228515625 92.99905395507812 379.1647033691406 86.42465209960938 379.3743896484375 79.40692138671875 L 378.5754089355469 79.69537353515625" stroke-width="0.6000000238418579" fill="rgb(140, 28, 33)" opacity="1.0"/>
    <path d="M 136.1454620361328 413.2432861328125 C 133.61366271972656 418.5963134765625 131.03819274902344 424.1943359375 130.97796630859375 430.119873046875 C 130.9177703857422 436.04534912109375 134.14715576171875 442.4576416015625 139.82418823242188 444.153076171875 C 146.8365478515625 446.2301025390625 154.2753143310547 439.84619140625 155.42047119140625 432.609375 C 156.56561279296875 425.3726806640625 153.0067138671875 418.1474609375 148.32040405273438 412.52728271484375 C 147.0440216064453 410.64215087890625 145.10743713378906 409.3040466308594 142.89273071289062 408.7770080566406 C 140.67123413085938 408.49212646484375 138.10797119140625 410.508056640625 138.7294464111328 412.67138671875 L 136.1454620361328 413.2432861328125" stroke-width="0.6000000238418579" fill="rgb(159, 159, 159)" opacity="1.0"/>
    <path d="M 421.7193603515625 213.2445068359375 C 416.69769287109375 208.69610595703125 410.0082702636719 205.7691650390625 403.2464904785156 206.13775634765625 C 396.4847106933594 206.50634765625 389.810302734375 210.49868774414062 387.0712585449219 216.72311401367188 C 385.14031982421875 221.12628173828125 385.283447265625 226.26513671875 386.8152160644531 230.8270263671875 C 388.34698486328125 235.388916015625 391.1694641113281 239.4251708984375 394.4291687011719 242.96624755859375 C 395.8486328125 244.50640869140625 397.44903564453125 246.01922607421875 399.4672546386719 246.55874633789062 C 401.7808532714844 247.17837524414062 404.2153015136719 246.40835571289062 406.45404052734375 245.53680419921875 C 412.7744140625 243.07623291015625 418.95849609375 239.55325317382812 422.83367919921875 233.98577880859375 C 426.7088623046875 228.41830444335938 427.705322265625 220.4478759765625 423.817626953125 214.90972900390625 L 421.7193603515625 213.2445068359375" stroke-width="0.6000000238418579" fill="rgb(159, 159, 159)" opacity="1.0"/>
    <path d="M 380.8870849609375 114.38517761230469 C 375.0390319824219 114.33169555664062 368.53631591796875 114.52560424804688 364.33087158203125 118.5732421875 C 360.23553466796875 122.50381469726562 359.66571044921875 128.758056640625 359.4537658691406 134.43304443359375 C 359.3710632324219 136.73855590820312 359.3212890625 139.1517791748047 360.33837890625 141.22103881835938 C 362.0565185546875 144.72181701660156 366.2480773925781 146.19979858398438 370.1044921875 146.73916625976562 C 373.6837463378906 147.2411651611328 377.3164978027344 147.2266082763672 380.8916320800781 146.6959686279297 C 386.6968994140625 145.83645629882812 392.910888671875 142.98764038085938 394.8018798828125 137.43429565429688 C 395.8271484375 134.43772888183594 395.3934020996094 131.08053588867188 394.2258605957031 128.13124084472656 C 393.05828857421875 125.18196105957031 391.1942138671875 122.56533813476562 389.317138671875 120.00840759277344 C 387.4400634765625 117.45147705078125 385.5408630371094 114.97923278808594 382.8453369140625 113.45550537109375 L 380.8870849609375 114.38517761230469" stroke-width="0.6000000238418579" fill="rgb(218, 166, 20)" opacity="1.0"/>
    <path d="M 404.6942138671875 81.29782104492188 C 396.71405029296875 74.49781799316406 384.7323303222656 75.45452880859375 377.93231201171875 83.4346923828125 C 377.35003662109375 84.1180419921875 376.81695556640625 84.84182739257812 376.33709716796875 85.60061645507812 C 374.5142822265625 88.48419189453125 373.4819641113281 92.028076171875 374.25994873046875 95.347900390625 C 374.9171142578125 98.1534423828125 376.7718200683594 100.51805114746094 378.7835693359375 102.57833862304688 C 384.1761169433594 108.08576965332031 390.9449462890625 112.04887390136719 398.3869323730469 114.05596923828125 C 400.3549499511719 114.58319091796875 402.4247131347656 114.97100830078125 404.4269104003906 114.57086181640625 C 407.7886047363281 113.90107727050781 410.3829650878906 111.08502197265625 411.8101806640625 107.96583557128906 C 413.9322509765625 103.33644104003906 413.92822265625 97.8861083984375 412.310791015625 93.05598449707031 C 410.693359375 88.22586059570312 407.56292724609375 83.9901123046875 403.7626647949219 80.59902954101562 L 404.6942138671875 81.29782104492188" stroke-width="0.6000000238418579" fill="rgb(143, 165, 67)" opacity="1.0"/>
    <path d="M 123.01542663574219 428.15673828125 C 116.2650146484375 418.56365966796875 98.73947143554688 421.4161376953125 94.5892333984375 432.306640625 C 90.43905639648438 443.197265625 100.72537231445312 456.59228515625 112.45413208007812 456.2545166015625 C 124.18289184570312 455.916748046875 133.57708740234375 443.1968994140625 131.28175354003906 431.67889404296875 L 123.01542663574219 428.15673828125" stroke-width="0.6000000238418579" fill="rgb(233, 92, 21)" opacity="1.0"/>
    <path d="M 448.96392822265625 208.7242431640625 C 444.154052734375 212.18472290039062 438.76751708984375 216.81716918945312 439.50970458984375 222.7161865234375 C 439.896484375 225.05224609375 440.99853515625 227.21075439453125 442.66400146484375 228.89389038085938 C 446.6727294921875 233.1693115234375 452.5050048828125 235.23651123046875 458.31146240234375 234.44000244140625 C 463.23516845703125 233.75167846679688 467.55804443359375 231.02313232421875 471.6741943359375 228.28952026367188 C 473.98388671875 226.75018310546875 476.3887939453125 225.0411376953125 477.457275390625 222.495849609375 C 478.853515625 219.09149169921875 477.461181640625 215.20208740234375 475.7142333984375 211.96493530273438 C 473.16357421875 207.22418212890625 469.86236572265625 202.92752075195312 465.938720703125 199.24163818359375 C 464.58056640625 197.970703125 463.073974609375 196.73171997070312 461.2607421875 196.3199462890625 C 459.55523681640625 196.0233154296875 457.80023193359375 196.2293701171875 456.209716796875 196.91293334960938 C 451.3045654296875 198.798828125 447.4736328125 202.74151611328125 445.72955322265625 207.69888305664062 L 448.96392822265625 208.7242431640625" stroke-width="0.6000000238418579" fill="rgb(70, 150, 179)" opacity="1.0"/>
    <path d="M 425.3695068359375 136.21319580078125 C 426.46759033203125 130.05853271484375 427.42626953125 123.19046020507812 423.94317626953125 118.00358581542969 C 420.19818115234375 112.43399047851562 412.41259765625 110.90327453613281 405.86419677734375 112.37396240234375 C 403.3392028808594 112.93994140625 400.80859375 113.93321228027344 399.0426025390625 115.82417297363281 C 397.5902404785156 117.37811279296875 396.7693176269531 119.40596008300781 396.09075927734375 121.4212646484375 C 393.9432678222656 127.77398681640625 392.94207763671875 135.02090454101562 395.9685974121094 141.0033721923828 C 399.0230712890625 147.03067016601562 406.2091064453125 150.68942260742188 412.8795166015625 149.5741424560547 C 419.5499267578125 148.4588623046875 425.20281982421875 142.72232055664062 426.1661376953125 136.02374267578125 L 425.3695068359375 136.21319580078125" stroke-width="0.6000000238418579" fill="rgb(140, 28, 33)" opacity="1.0"/>
    <path d="M 398.7139892578125 65.93038940429688 C 400.25628662109375 71.61782836914062 401.923828125 77.5189208984375 405.7066955566406 82.04281616210938 C 409.48956298828125 86.56660461425781 416.07684326171875 89.33352661132812 421.46905517578125 86.94880676269531 C 428.11865234375 83.99028015136719 429.624267578125 74.35215759277344 425.8154296875 68.13487243652344 C 422.0064697265625 61.917572021484375 414.6446533203125 58.74835205078125 407.4664611816406 57.52229309082031 C 405.28240966796875 56.920135498046875 402.95208740234375 57.158538818359375 400.9352722167969 58.1905517578125 C 399.0697937011719 59.41021728515625 398.43218994140625 62.59217834472656 400.3002624511719 63.82801818847656 L 398.7139892578125 65.93038940429688" stroke-width="0.6000000238418579" fill="rgb(159, 159, 159)" opacity="1.0"/>
    <path d="M 439.8734130859375 235.1805419921875 C 435.80010986328125 240.48297119140625 433.454833984375 247.2965087890625 434.35693359375 253.918212890625 C 435.259033203125 260.5398864746094 439.7186279296875 266.7865295410156 446.0596923828125 268.98406982421875 C 450.544921875 270.53204345703125 455.5882568359375 269.9812316894531 459.9532470703125 268.11053466796875 C 464.3182373046875 266.2398376464844 468.063232421875 263.1414794921875 471.2862548828125 259.652587890625 C 472.68798828125 258.1334533691406 474.04833984375 256.43853759765625 474.41796875 254.4102783203125 C 474.84283447265625 252.08511352539062 473.89117431640625 249.751953125 472.85528564453125 247.619384765625 C 469.9306640625 241.5987548828125 465.97186279296875 235.7969970703125 460.186279296875 232.42950439453125 C 454.4007568359375 229.06195068359375 446.48126220703125 228.7177734375 441.3438720703125 232.98382568359375 L 439.8734130859375 235.1805419921875" stroke-width="0.6000000238418579" fill="rgb(159, 159, 159)" opacity="1.0"/>
    <path d="M 411.8540344238281 259.7646789550781 C 410.03253173828125 253.4517822265625 407.734375 246.5135498046875 402.025634765625 243.2867431640625 C 396.478271484375 240.14080810546875 389.5621337890625 241.53692626953125 383.3846435546875 243.13223266601562 C 380.8760681152344 243.78399658203125 378.2621154785156 244.50582885742188 376.3612365722656 246.265625 C 373.14453125 249.24017333984375 372.90020751953125 254.22747802734375 373.5586853027344 258.55242919921875 C 374.1683044433594 262.5669860839844 375.3512268066406 266.4731750488281 377.07122802734375 270.1514587402344 C 379.86187744140625 276.125 384.9253845214844 281.8992919921875 391.511474609375 282.15069580078125 C 395.0668640136719 282.2915954589844 398.54168701171875 280.74591064453125 401.34161376953125 278.5413513183594 C 404.1415100097656 276.3367919921875 406.3594970703125 273.4892578125 408.509033203125 270.64691162109375 C 410.6585693359375 267.8045654296875 412.7098388671875 264.9656066894531 413.484130859375 261.5741271972656 L 411.8540344238281 259.7646789550781" stroke-width="0.6000000238418579" fill="rgb(218, 166, 20)" opacity="1.0"/>
    <path d="M 414.962646484375 89.6622314453125 C 409.7551574707031 98.14335632324219 412.408935546875 109.24017333984375 420.89007568359375 114.44766235351562 C 421.6163330078125 114.89358520507812 422.373291015625 115.28739929199219 423.1552734375 115.62620544433594 C 426.1268310546875 116.91302490234375 429.601806640625 117.36161804199219 432.60125732421875 116.14529418945312 C 435.1361083984375 115.11767578125 437.08184814453125 113.03157043457031 438.71917724609375 110.84280395507812 C 443.09375 104.97799682617188 445.8182373046875 98.048828125 446.609619140625 90.77510070800781 C 446.8155517578125 88.85208129882812 446.8758544921875 86.85409545898438 446.20703125 85.03500366210938 C 445.08599853515625 81.98043823242188 442.06463623046875 79.96014404296875 438.9300537109375 79.07891845703125 C 434.27728271484375 77.76739501953125 429.166259765625 78.5701904296875 424.8734130859375 80.79522705078125 C 420.58062744140625 83.020263671875 417.0670166015625 86.57711791992188 414.44384765625 90.63835144042969 L 414.962646484375 89.6622314453125" stroke-width="0.6000000238418579" fill="rgb(143, 165, 67)" opacity="1.0"/>
    <path d="M 430.9439697265625 125.06297302246094 C 427.8206787109375 136.65283203125 441.5396728515625 148.56631469726562 452.8211669921875 144.6985626220703 C 464.10260009765625 140.8307647705078 467.9002685546875 123.9708251953125 459.9544677734375 114.96905517578125 C 452.0086669921875 105.96728515625 435.85498046875 106.90922546386719 428.30072021484375 116.25633239746094 L 430.9439697265625 125.06297302246094" stroke-width="0.6000000238418579" fill="rgb(233, 92, 21)" opacity="1.0"/>
    <path d="M 450.336181640625 92.60028076171875 C 449.5943603515625 98.47256469726562 449.31732177734375 105.5640869140625 454.13665771484375 109.03500366210938 C 456.1082763671875 110.34164428710938 458.43682861328125 111.00428771972656 460.801025390625 110.93145751953125 C 466.655517578125 110.90866088867188 472.1357421875 108.04966735839844 475.50390625 103.26107788085938 C 478.3507080078125 99.19171142578125 479.29644775390625 94.17361450195312 480.09783935546875 89.30322265625 C 480.5435791015625 86.56661987304688 480.92999267578125 83.64488220214844 479.79541015625 81.13165283203125 C 478.255615234375 77.79411315917969 474.463623046875 76.166015625 470.90753173828125 75.24105834960938 C 465.70477294921875 73.88087463378906 460.316162109375 73.37176513671875 454.95074462890625 73.73348999023438 C 453.09716796875 73.86203002929688 451.16595458984375 74.12083435058594 449.63104248046875 75.16679382324219 C 448.253662109375 76.21232604980469 447.210205078125 77.63607788085938 446.62799072265625 79.264404296875 C 444.669677734375 84.135009765625 444.9466552734375 89.6195068359375 447.3856201171875 94.26809692382812 L 450.336181640625 92.60028076171875" stroke-width="0.6000000238418579" fill="rgb(70, 150, 179)" opacity="1.0"/>
    <path d="M 313.0752258300781 368.60028076171875 C 307.4239807128906 366.3143005371094 301.0640563964844 364.0177307128906 295.4144592285156 366.29736328125 C 289.3470153808594 368.74981689453125 286.3200988769531 375.8700866699219 286.4057312011719 382.41375732421875 C 286.4376525878906 384.936767578125 286.8761901855469 387.551025390625 288.32501220703125 389.616455078125 C 289.5154113769531 391.3148193359375 291.2850036621094 392.50604248046875 293.0712890625 393.5589294433594 C 298.7003173828125 396.88604736328125 305.4131774902344 399.29937744140625 311.72998046875 397.615478515625 C 318.0951843261719 395.9139404296875 323.0318298339844 389.79388427734375 323.30987548828125 383.20526123046875 C 323.587890625 376.6166076660156 319.25201416015625 370.0690002441406 313.05474853515625 367.8021240234375 L 313.0752258300781 368.60028076171875" stroke-width="0.6000000238418579" fill="rgb(140, 28, 33)" opacity="1.0"/>
    <path d="M 298.0981750488281 392.60455322265625 C 292.1610412597656 390.6813659667969 285.9619140625 388.74560546875 279.76025390625 389.48309326171875 C 273.5586853027344 390.2205810546875 267.2926025390625 394.46221923828125 266.28741455078125 400.625 C 265.0636291503906 408.2350769042969 272.7411804199219 415.14794921875 280.45989990234375 415.3673095703125 C 288.17864990234375 415.586669921875 295.24981689453125 410.8908386230469 300.49114990234375 405.2333984375 C 302.28912353515625 403.6446228027344 303.4261474609375 401.4397277832031 303.6778564453125 399.05364990234375 C 303.675537109375 396.6932067871094 301.22216796875 394.2863464355469 299.04498291015625 395.2281494140625 L 298.0981750488281 392.60455322265625" stroke-width="0.6000000238418579" fill="rgb(159, 159, 159)" opacity="1.0"/>
    <path d="M 322.999267578125 412.23681640625 C 317.2324523925781 416.03106689453125 312.6400146484375 421.8837890625 311.280029296875 428.64794921875 C 309.9200439453125 435.41204833984375 312.1570129394531 443.01373291015625 317.59893798828125 447.30224609375 C 321.4502868652344 450.32940673828125 326.5559997558594 451.49810791015625 331.4465026855469 451.14990234375 C 336.3370666503906 450.8017578125 341.0380859375 449.04632568359375 345.36212158203125 446.7333984375 C 347.24322509765625 445.72576904296875 349.14349365234375 444.53265380859375 350.1901550292969 442.6793212890625 C 351.39111328125 440.55499267578125 351.2520751953125 437.95721435546875 350.9629821777344 435.526611328125 C 350.14678955078125 428.6646728515625 348.24786376953125 421.6663818359375 343.7436218261719 416.424560546875 C 339.23931884765625 411.1827087402344 331.6308898925781 408.1680908203125 325.1767578125 410.5914611816406 L 322.999267578125 412.23681640625" stroke-width="0.6000000238418579" fill="rgb(159, 159, 159)" opacity="1.0"/>
    <path d="M 256.01971435546875 417.6163330078125 C 249.68869018554688 416.6170654296875 242.608154296875 415.78057861328125 237.397705078125 419.491455078125 C 232.32537841796875 423.09326171875 230.700927734375 429.781494140625 229.5577392578125 435.8994140625 C 229.09695434570312 438.3853759765625 228.65457153320312 440.99346923828125 229.424072265625 443.400390625 C 230.72314453125 447.4720458984375 235.02911376953125 449.7489013671875 239.12289428710938 450.954345703125 C 242.92218017578125 452.07470703125 246.8626708984375 452.6436767578125 250.82373046875 452.6439208984375 C 257.2553405761719 452.6466064453125 264.4502258300781 450.55853271484375 267.3940734863281 444.8427734375 C 268.9878845214844 441.75933837890625 269.05804443359375 438.05010986328125 268.26708984375 434.66497802734375 C 267.47613525390625 431.27984619140625 265.8765563964844 428.1431884765625 264.25323486328125 425.0692138671875 C 262.6299743652344 421.9952392578125 260.96905517578125 419.00946044921875 258.292236328125 416.9237060546875 L 256.01971435546875 417.6163330078125" stroke-width="0.6000000238418579" fill="rgb(218, 166, 20)" opacity="1.0"/>
    <path d="M 221.88238525390625 410.5150146484375 C 212.55587768554688 403.7809143066406 199.53619384765625 405.8824462890625 192.80206298828125 415.208984375 C 192.22540283203125 416.007568359375 191.7061767578125 416.84613037109375 191.2481689453125 417.71826171875 C 189.50857543945312 421.032470703125 188.69168090820312 424.9991455078125 189.83489990234375 428.5614013671875 C 190.80072021484375 431.57183837890625 193.03741455078125 433.99462890625 195.41900634765625 436.0706787109375 C 201.80169677734375 441.6190185546875 209.55355834960938 445.35723876953125 217.86935424804688 446.89691162109375 C 220.06814575195312 447.3001708984375 222.36593627929688 447.54205322265625 224.52041625976562 446.9281005859375 C 228.13796997070312 445.89947509765625 230.72735595703125 442.5911865234375 232.01348876953125 439.05413818359375 C 233.9266357421875 433.80426025390625 233.4422607421875 427.84375 231.2479248046875 422.70367431640625 C 229.0535888671875 417.5635986328125 225.25689697265625 413.206787109375 220.80203247070312 409.8327941894531 L 221.88238525390625 410.5150146484375" stroke-width="0.6000000238418579" fill="rgb(143, 165, 67)" opacity="1.0"/>
    <path d="M 275.3861999511719 361.0927734375 C 280.1436462402344 373.5589599609375 300.2646789550781 375.3195495605469 307.8887939453125 364.47393798828125 C 315.51287841796875 353.6282958984375 307.9211730957031 335.98052978515625 294.89520263671875 333.07000732421875 C 281.8692321777344 330.15948486328125 267.9513854980469 341.5540771484375 267.25811767578125 354.8956298828125 L 275.3861999511719 361.0927734375" stroke-width="0.6000000238418579" fill="rgb(233, 92, 21)" opacity="1.0"/>
    <path d="M 331.745849609375 357.4294738769531 C 329.44586181640625 363.42755126953125 327.320556640625 370.8309631347656 331.5032653808594 375.7354431152344 C 333.2437438964844 377.6224365234375 335.5268859863281 378.9228820800781 338.03778076171875 379.457275390625 C 344.2147216796875 380.94671630859375 350.7304382324219 379.3498229980469 355.5187072753906 375.1729736328125 C 359.5713806152344 371.61944580078125 361.86553955078125 366.574462890625 363.9693298339844 361.6478576660156 C 365.1466064453125 358.87847900390625 366.3092346191406 355.89862060546875 365.76300048828125 352.9561462402344 C 365.0027160644531 349.0400695800781 361.42657470703125 346.3436584472656 357.917236328125 344.44940185546875 C 352.7847595214844 341.6706848144531 347.2363586425781 339.74102783203125 341.48724365234375 338.7352600097656 C 339.5001525878906 338.3916015625 337.3976135253906 338.1651611328125 335.5093078613281 338.8708801269531 C 333.7871398925781 339.61688232421875 332.3192138671875 340.8478698730469 331.2845458984375 342.41375732421875 C 327.9612731933594 347.04156494140625 326.83538818359375 352.89422607421875 328.20452880859375 358.4247131347656 L 331.745849609375 357.4294738769531" stroke-width="0.6000000238418579" fill="rgb(70, 150, 179)" opacity="1.0"/>
    <path d="M 296.5029296875 415.97900390625 C 289.4007873535156 414.024169921875 281.446533203125 412.155517578125 274.9837646484375 415.680419921875 C 268.0435485839844 419.4710693359375 265.4044494628906 428.43994140625 266.4207763671875 436.28216552734375 C 266.81134033203125 439.30596923828125 267.70263671875 442.382568359375 269.72998046875 444.65936279296875 C 271.3958740234375 446.53167724609375 273.6861877441406 447.71441650390625 275.9771728515625 448.72882080078125 C 283.1980285644531 451.9364013671875 291.5921630859375 453.8958740234375 298.93896484375 450.99285888671875 C 306.34136962890625 448.06195068359375 311.4123229980469 440.027099609375 310.8262023925781 432.080078125 C 310.2400817871094 424.13311767578125 304.1217956542969 416.8795166015625 296.3669128417969 415.02386474609375 L 296.5029296875 415.97900390625" stroke-width="0.6000000238418579" fill="rgb(140, 28, 33)" opacity="1.0"/>
    <path d="M 327.910400390625 392.35009765625 C 321.6990051269531 392.1963806152344 315.2340087890625 392.10491943359375 309.52386474609375 394.5655822753906 C 303.8138122558594 397.0262451171875 299.0348205566406 402.8496398925781 299.82122802734375 409.0163269042969 C 300.8089599609375 416.62628173828125 310.09490966796875 421.04925537109375 317.5240478515625 419.07208251953125 C 324.95318603515625 417.094970703125 330.3719177246094 410.6099853515625 333.77178955078125 403.7255859375 C 335.03778076171875 401.69989013671875 335.4983825683594 399.27337646484375 335.0627136230469 396.92474365234375 C 334.391845703125 394.6725158691406 331.36846923828125 393.0702819824219 329.5572814941406 394.5859375 L 327.910400390625 392.35009765625" stroke-width="0.6000000238418579" fill="rgb(159, 159, 159)" opacity="1.0"/>
    <path d="M 359.4761657714844 411.8473205566406 C 354.6737060546875 416.68084716796875 351.42266845703125 423.26513671875 351.47894287109375 430.0750732421875 C 351.5352478027344 436.885009765625 355.23602294921875 443.77545166015625 361.3618469238281 446.8160400390625 C 365.6955871582031 448.9603271484375 370.8646545410156 449.05517578125 375.51861572265625 447.728271484375 C 380.1725769042969 446.4012451171875 384.3584289550781 443.7532958984375 388.0671691894531 440.64300537109375 C 389.6803283691406 439.28857421875 391.2743835449219 437.7510986328125 391.91009521484375 435.74859619140625 C 392.6399841308594 433.453125 391.9794921875 430.9718017578125 391.2079162597656 428.6822509765625 C 389.0295104980469 422.2186279296875 385.77752685546875 415.842529296875 380.36444091796875 411.6910400390625 C 374.9513244628906 407.5395202636719 366.9906005859375 406.16839599609375 361.2464599609375 409.8168029785156 L 359.4761657714844 411.8473205566406" stroke-width="0.6000000238418579" fill="rgb(159, 159, 159)" opacity="1.0"/>
    <path d="M 250.38760375976562 365.9962158203125 C 251.12594604492188 359.5211181640625 251.6661376953125 352.291748046875 247.6685791015625 347.1609191894531 C 243.7879638671875 342.1656799316406 236.92263793945312 340.807861328125 230.65777587890625 339.91400146484375 C 228.11221313476562 339.55462646484375 225.44342041015625 339.21923828125 223.03201293945312 340.1061706542969 C 218.95263671875 341.6038513183594 216.827880859375 346.07763671875 215.78228759765625 350.2890319824219 C 214.810302734375 354.1975402832031 214.40460205078125 358.2253723144531 214.57754516601562 362.2492370605469 C 214.85601806640625 368.782958984375 217.29171752929688 376.0006103515625 223.226806640625 378.7412414550781 C 226.42880249023438 380.22552490234375 230.19989013671875 380.1346130371094 233.6041259765625 379.1831359863281 C 237.00836181640625 378.23162841796875 240.124755859375 376.4695739746094 243.17654418945312 374.6861267089844 C 246.22833251953125 372.9027099609375 249.18881225585938 371.0849304199219 251.1905517578125 368.27447509765625 L 250.38760375976562 365.9962158203125" stroke-width="0.6000000238418579" fill="rgb(218, 166, 20)" opacity="1.0"/>
    <path d="M 264.22894287109375 387.3132629394531 C 254.5177001953125 381.26995849609375 241.74609375 384.243408203125 235.7027587890625 393.95465087890625 C 235.18527221679688 394.7862243652344 234.7274169921875 395.6534729003906 234.3326416015625 396.54986572265625 C 232.83328247070312 399.9561462402344 232.29376220703125 403.94677734375 233.67095947265625 407.40234375 C 234.83453369140625 410.3226623535156 237.2186279296875 412.5732421875 239.72283935546875 414.4700927734375 C 246.43295288085938 419.53814697265625 254.377685546875 422.71710205078125 262.7317810058594 423.67669677734375 C 264.9404296875 423.9266357421875 267.23626708984375 424.00970458984375 269.3315124511719 423.25360107421875 C 272.8497619628906 421.986328125 275.1925048828125 418.52783203125 276.22686767578125 414.931396484375 C 277.7662353515625 409.5931396484375 276.8788757324219 403.713623046875 274.35125732421875 398.7646484375 C 271.8236999511719 393.815673828125 267.7601013183594 389.7530822753906 263.1106872558594 386.71026611328125 L 264.22894287109375 387.3132629394531" stroke-width="0.6000000238418579" fill="rgb(143, 165, 67)" opacity="1.0"/>
    <path d="M 202.67572021484375 380.0143127441406 C 189.4398193359375 384.9407958984375 187.4007568359375 406.2217712402344 198.81332397460938 414.3858642578125 C 210.22592163085938 422.54998779296875 228.97076416015625 414.66888427734375 232.1650390625 400.907470703125 C 235.3592529296875 387.14605712890625 223.42059326171875 372.3157958984375 209.3057861328125 371.465576171875 L 202.67572021484375 380.0143127441406" stroke-width="0.6000000238418579" fill="rgb(233, 92, 21)" opacity="1.0"/>
    <path d="M 252.77655029296875 372.6947326660156 C 251.3839111328125 379.43475341796875 250.41937255859375 387.6303405761719 255.691162109375 392.0911560058594 C 257.85821533203125 393.78472900390625 260.4974060058594 394.7641296386719 263.2446594238281 394.8941650390625 C 270.0334167480469 395.39886474609375 276.6456604003906 392.5818176269531 280.9845886230469 387.3363037109375 C 284.65380859375 382.8772277832031 286.2054443359375 377.1458740234375 287.5762634277344 371.57269287109375 C 288.34124755859375 368.4407653808594 289.05426025390625 365.0888671875 287.9670104980469 362.072509765625 C 286.4848327636719 358.0638427734375 282.2367858886719 355.8324890136719 278.19830322265625 354.4376220703125 C 272.29052734375 352.3888854980469 266.090087890625 351.3098449707031 259.8374938964844 351.2424011230469 C 257.6770935058594 351.2232360839844 255.41488647460938 351.3480529785156 253.54071044921875 352.42132568359375 C 251.84912109375 353.50836181640625 250.5103759765625 355.06414794921875 249.68771362304688 356.8989562988281 C 246.97576904296875 362.3674621582031 246.79922485351562 368.7503967285156 249.204833984375 374.3604431152344 L 252.77655029296875 372.6947326660156" stroke-width="0.6000000238418579" fill="rgb(70, 150, 179)" opacity="1.0"/>
    <path d="M 337.536865234375 361.4610290527344 C 339.7095947265625 355.1007385253906 341.8508605957031 347.95965576171875 338.9975891113281 341.8789367675781 C 335.92864990234375 335.3487243652344 327.9060974121094 332.4496765136719 320.7076110839844 332.9420471191406 C 317.93212890625 333.1307373046875 315.0808410644531 333.77252197265625 312.895263671875 335.4931640625 C 311.0980224609375 336.90692138671875 309.8943176269531 338.927490234375 308.8439025878906 340.9579772949219 C 305.523681640625 347.357177734375 303.27532958984375 354.8938903808594 305.5133972167969 361.7453308105469 C 307.7738037109375 368.6490173339844 314.8114318847656 373.71124267578125 322.0815124511719 373.616455078125 C 329.3515930175781 373.52166748046875 336.2957763671875 368.35015869140625 338.4142761230469 361.3899230957031 L 337.536865234375 361.4610290527344" stroke-width="0.6000000238418579" fill="rgb(140, 28, 33)" opacity="1.0"/>
    <path d="M 356.1349792480469 399.68719482421875 C 349.932373046875 399.6187744140625 343.47747802734375 399.615966796875 337.8110046386719 402.1504821777344 C 332.1446533203125 404.68499755859375 327.4537353515625 410.5635986328125 328.32318115234375 416.708740234375 C 329.4133605957031 424.29180908203125 338.7435607910156 428.57989501953125 346.13262939453125 426.5045166015625 C 353.52166748046875 424.42913818359375 358.8421325683594 417.88134765625 362.1418151855469 410.9624938964844 C 363.3778381347656 408.92303466796875 363.8044128417969 406.49444580078125 363.3373718261719 404.1559143066406 C 362.6368408203125 401.91680908203125 359.5968322753906 400.3587951660156 357.8095703125 401.89654541015625 L 356.1349792480469 399.68719482421875" stroke-width="0.6000000238418579" fill="rgb(159, 159, 159)" opacity="1.0"/>
    <path d="M 180.445068359375 412.4920654296875 C 173.4708251953125 412.0477294921875 166.19244384765625 413.983154296875 160.9727783203125 418.62451171875 C 155.75315856933594 423.2657470703125 152.9319610595703 430.775146484375 154.72035217285156 437.55755615234375 C 155.9908447265625 442.3511962890625 159.4075927734375 446.40606689453125 163.57427978515625 449.103271484375 C 167.740966796875 451.8004150390625 172.61151123046875 453.24432373046875 177.51678466796875 454.00775146484375 C 179.65164184570312 454.3387451171875 181.91494750976562 454.5313720703125 183.89016723632812 453.670166015625 C 186.1551513671875 452.68389892578125 187.625 450.49859619140625 188.87164306640625 448.35711669921875 C 192.39120483398438 442.31121826171875 195.11825561523438 435.49560546875 194.66873168945312 428.513427734375 C 194.21917724609375 421.53125 189.9029541015625 414.45941162109375 183.20794677734375 412.4879150390625 L 180.445068359375 412.4920654296875" stroke-width="0.6000000238418579" fill="rgb(159, 159, 159)" opacity="1.0"/>
    <path d="M 359.9429016113281 369.8133239746094 C 353.0530090332031 370.22698974609375 345.4125061035156 370.9852600097656 340.7908630371094 376.0937194824219 C 336.2893371582031 381.05535888671875 336.1281433105469 388.4656066894531 336.34112548828125 395.16461181640625 C 336.431640625 397.8858947753906 336.5697326660156 400.7312927246094 337.9359130859375 403.0847473144531 C 340.2441711425781 407.0665588378906 345.2997741699219 408.4651184082031 349.8843078613281 408.7858581542969 C 354.1394348144531 409.085205078125 358.4154968261719 408.7720031738281 362.58160400390625 407.8558349609375 C 369.34674072265625 406.3707275390625 376.430908203125 402.5100402832031 378.20477294921875 395.8173828125 C 379.167724609375 392.2056579589844 378.3833923339844 388.2882385253906 376.76837158203125 384.910888671875 C 375.1533203125 381.5335388183594 372.7452697753906 378.6046447753906 370.3267822265625 375.7470703125 C 367.9083251953125 372.8895263671875 365.470703125 370.13348388671875 362.17279052734375 368.5591125488281 L 359.9429016113281 369.8133239746094" stroke-width="0.6000000238418579" fill="rgb(218, 166, 20)" opacity="1.0"/>
    <path d="M 378.62139892578125 380.2559814453125 C 373.2620849609375 389.8375549316406 376.6849365234375 401.9495544433594 386.2665100097656 407.3088684082031 C 387.0870056152344 407.7677917480469 387.9389953613281 408.16790771484375 388.81610107421875 408.5062561035156 C 392.1491394042969 409.7912902832031 395.9994201660156 410.1298828125 399.2508850097656 408.6546936035156 C 401.99871826171875 407.4082946777344 404.0497741699219 405.0216979980469 405.7562561035156 402.5357666015625 C 410.3149108886719 395.8752746582031 413.00701904296875 388.11566162109375 413.552978515625 380.0629577636719 C 413.69366455078125 377.9341735839844 413.6705322265625 375.729248046875 412.85174560546875 373.75421142578125 C 411.4791259765625 370.437744140625 408.0583190917969 368.3464660644531 404.5638122558594 367.51580810546875 C 399.3766174316406 366.2789306640625 393.7792053222656 367.3930358886719 389.1474304199219 370.0380859375 C 384.5156555175781 372.68310546875 380.802490234375 376.7611083984375 378.0933532714844 381.3551330566406 L 378.62139892578125 380.2559814453125" stroke-width="0.6000000238418579" fill="rgb(143, 165, 67)" opacity="1.0"/>
    <path d="M 364.76898193359375 364.0452575683594 C 370.44482421875 376.8585205078125 391.6455078125 377.5977783203125 399.045166015625 365.8028869628906 C 406.44476318359375 354.0079650878906 397.5110778808594 335.916015625 383.688720703125 333.5801696777344 C 369.8663635253906 331.24432373046875 355.89581298828125 343.9613952636719 355.9028625488281 357.99273681640625 L 364.76898193359375 364.0452575683594" stroke-width="0.6000000238418579" fill="rgb(233, 92, 21)" opacity="1.0"/>
    <path d="M 402.1869812011719 353.745361328125 C 403.10516357421875 360.363037109375 404.8883056640625 368.1727600097656 411.160888671875 370.538330078125 C 413.6937255859375 371.3825988769531 416.42620849609375 371.42010498046875 418.98126220703125 370.64556884765625 C 425.354736328125 368.8993835449219 430.4864501953125 364.17236328125 432.7490234375 357.9634704589844 C 434.6549072265625 352.6916809082031 434.210205078125 346.9449157714844 433.6514892578125 341.401611328125 C 433.3326416015625 338.2882080078125 432.8946533203125 334.9905090332031 430.91925048828125 332.585205078125 C 428.2598876953125 329.4007263183594 423.6488037109375 328.7413635253906 419.5013427734375 328.7789611816406 C 413.4315185546875 328.8263854980469 407.4093933105469 329.85595703125 401.6685485839844 331.82769775390625 C 399.6863098144531 332.5128173828125 397.65777587890625 333.3626708984375 396.2926025390625 334.9538269042969 C 395.09893798828125 336.49822998046875 394.38043212890625 338.35662841796875 394.2247009277344 340.3023681640625 C 393.5226745605469 346.18609619140625 395.43707275390625 352.0816345214844 399.4618225097656 356.4305114746094 L 402.1869812011719 353.745361328125" stroke-width="0.6000000238418579" fill="rgb(70, 150, 179)" opacity="1.0"/>
    <path d="M 384.7127990722656 418.0244140625 C 381.5562438964844 424.624755859375 378.3345642089844 432.0732421875 380.6471862792969 439.009521484375 C 383.13592529296875 446.4591064453125 391.441162109375 450.6119384765625 399.28607177734375 450.99365234375 C 402.3106689453125 451.14208984375 405.4747009277344 450.81024169921875 408.0560607910156 449.2275390625 C 410.1785888671875 447.92730712890625 411.73651123046875 445.89569091796875 413.12994384765625 443.8338623046875 C 417.531982421875 437.337158203125 420.919677734375 429.47454833984375 419.3699951171875 421.78314208984375 C 417.8028564453125 414.032470703125 410.83709716796875 407.6659851074219 402.96527099609375 406.8453674316406 C 395.0934143066406 406.0247497558594 386.9292907714844 410.7340087890625 383.75518798828125 417.9898681640625 L 384.7127990722656 418.0244140625" stroke-width="0.6000000238418579" fill="rgb(140, 28, 33)" opacity="1.0"/>
    <path d="M 408.6655578613281 383.7529602050781 C 406.91619873046875 389.70123291015625 405.1614990234375 395.9100341796875 406.0616455078125 402.0490417480469 C 406.96185302734375 408.1879577636719 411.3437805175781 414.296142578125 417.4913330078125 415.127685546875 C 425.08209228515625 416.13720703125 431.7396240234375 408.32550048828125 431.7486572265625 400.65399169921875 C 431.75775146484375 392.98248291015625 426.9029541015625 386.0870361328125 421.1427001953125 381.0348205566406 C 419.5162353515625 379.292236328125 417.2957763671875 378.2226867675781 414.9193115234375 378.0372619628906 C 412.5751953125 378.1033935546875 410.2512512207031 380.60498046875 411.2454528808594 382.74169921875 L 408.6655578613281 383.7529602050781" stroke-width="0.6000000238418579" fill="rgb(159, 159, 159)" opacity="1.0"/>
    <path d="M 436.90234375 369.6683044433594 C 438.51837158203125 376.4649658203125 442.498291015625 382.8559875488281 448.46221923828125 386.4873046875 C 454.4261474609375 390.11865234375 462.429931640625 390.6180419921875 468.389892578125 386.92388916015625 C 472.600341796875 384.3067321777344 475.4765625 379.8541259765625 476.8355712890625 375.0820007324219 C 478.194580078125 370.309814453125 478.1495361328125 365.2315673828125 477.44390869140625 360.3192443847656 C 477.1356201171875 358.18170166015625 476.657470703125 355.96185302734375 475.2562255859375 354.32574462890625 C 473.65069580078125 352.44921875 471.1317138671875 351.6836853027344 468.7198486328125 351.1186218261719 C 461.91070556640625 349.5234375 454.5977783203125 348.9110107421875 448.0550537109375 351.3838195800781 C 441.5123291015625 353.85662841796875 436.015380859375 360.05181884765625 436.08984375 367.0284729003906 L 436.90234375 369.6683044433594" stroke-width="0.6000000238418579" fill="rgb(159, 159, 159)" opacity="1.0"/>
    <path d="M 427.045166015625 408.7518005371094 C 421.82586669921875 413.284912109375 416.220703125 418.5496826171875 415.667724609375 425.42706298828125 C 415.12060546875 432.11456298828125 419.5146484375 438.09796142578125 423.77191162109375 443.2882080078125 C 425.50445556640625 445.39404296875 427.3505859375 447.569580078125 429.8717041015625 448.60491943359375 C 434.134765625 450.3585205078125 439.0032958984375 448.384033203125 442.8399658203125 445.841064453125 C 446.4019775390625 443.48211669921875 449.60675048828125 440.6239013671875 452.3563232421875 437.35394287109375 C 456.8226318359375 432.0460205078125 460.0927734375 424.6568603515625 457.4173583984375 418.25927734375 C 455.97802734375 414.80322265625 452.9644775390625 412.1707763671875 449.620849609375 410.4741516113281 C 446.2772216796875 408.77752685546875 442.577392578125 407.9209899902344 438.91290283203125 407.1274719238281 C 435.2484130859375 406.33392333984375 431.630615234375 405.6327209472656 428.05078125 406.39495849609375 L 427.045166015625 408.7518005371094" stroke-width="0.6000000238418579" fill="rgb(218, 166, 20)" opacity="1.0"/>
    <path d="M 137.32901000976562 219.43289184570312 C 133.1241455078125 230.6182861328125 138.7830047607422 243.0946044921875 149.9684295654297 247.2994384765625 C 150.9262237548828 247.6595458984375 151.9083709716797 247.951171875 152.907470703125 248.1722412109375 C 156.70394897460938 249.0115966796875 160.9027099609375 248.74801635742188 164.1612548828125 246.63018798828125 C 166.91510009765625 244.84075927734375 168.733154296875 241.9378662109375 170.1641845703125 238.98428344726562 C 173.98379516601562 231.07302856445312 175.61544799804688 222.2833251953125 174.88967895507812 213.52825927734375 C 174.69393920898438 211.21435546875 174.30941772460938 208.84530639648438 173.10617065429688 206.8533935546875 C 171.088134765625 203.50814819335938 167.06573486328125 201.81549072265625 163.16958618164062 201.491455078125 C 157.38558959960938 201.00634765625 151.54354858398438 203.1181640625 146.9903564453125 206.72006225585938 C 142.43716430664062 210.32192993164062 139.10626220703125 215.31613159179688 136.94000244140625 220.701904296875 L 137.32901000976562 219.43289184570312" stroke-width="0.6000000238418579" fill="rgb(143, 165, 67)" opacity="1.0"/>
    <path d="M 173.09359741210938 261.8348388671875 C 180.51434326171875 273.7677307128906 201.66937255859375 271.54888916015625 207.37432861328125 258.8060302734375 C 213.07919311523438 246.0631103515625 201.688232421875 229.34231567382812 187.63739013671875 228.94808959960938 C 173.58657836914062 228.55386352539062 161.4852294921875 243.12765502929688 163.44659423828125 257.05963134765625 L 173.09359741210938 261.8348388671875" stroke-width="0.6000000238418579" fill="rgb(233, 92, 21)" opacity="1.0"/>
    <path d="M 143.989990234375 314.7147216796875 C 138.980224609375 319.65814208984375 133.50863647460938 326.0827331542969 135.4618377685547 332.8693542480469 C 136.34423828125 335.5398864746094 138.03358459472656 337.8708190917969 140.296875 339.54052734375 C 145.78562927246094 343.82257080078125 153.00938415527344 345.1785888671875 159.67739868164062 343.1785888671875 C 165.329345703125 341.4675598144531 169.90191650390625 337.47247314453125 174.23089599609375 333.5093078613281 C 176.6590576171875 331.2790832519531 179.16787719726562 328.832275390625 179.95477294921875 325.64923095703125 C 180.96881103515625 321.3979187011719 178.62127685546875 317.0888977050781 175.97735595703125 313.61041259765625 C 172.11428833007812 308.51483154296875 167.451904296875 304.0780944824219 162.17111206054688 300.4723205566406 C 160.3441162109375 299.22998046875 158.34881591796875 298.0523376464844 156.1453857421875 297.9017639160156 C 154.08941650390625 297.86651611328125 152.06761169433594 298.4302978515625 150.32652282714844 299.5242919921875 C 144.91603088378906 302.6372985839844 141.1435089111328 307.9670715332031 140.00619506835938 314.104736328125 L 143.989990234375 314.7147216796875" stroke-width="0.6000000238418579" fill="rgb(70, 150, 179)" opacity="1.0"/>
    <path d="M 125.09469604492188 303.2378234863281 C 125.06497192382812 295.195556640625 124.69436645507812 286.2825927734375 119.09013366699219 280.5216369628906 C 113.06622314453125 274.336669921875 102.86015319824219 274.1949768066406 94.91206359863281 277.5663757324219 C 91.8470458984375 278.86492919921875 88.87353515625 280.70556640625 87.07464599609375 283.50592041015625 C 85.59498596191406 285.80743408203125 85.02374267578125 288.5631103515625 84.62974548339844 291.2700500488281 C 83.37702941894531 299.80499267578125 83.78123474121094 309.20721435546875 88.9910888671875 316.080322265625 C 94.24662780761719 323.0037841796875 104.18466186523438 325.9768981933594 112.36921691894531 323.0271301269531 C 120.55377197265625 320.077392578125 126.38479614257812 311.5138854980469 126.05914306640625 302.8143615722656 L 125.09469604492188 303.2378234863281" stroke-width="0.6000000238418579" fill="rgb(140, 28, 33)" opacity="1.0"/>
    <path d="M 142.76637268066406 276.02459716796875 C 137.52389526367188 279.34051513671875 132.1053466796875 282.84869384765625 128.72842407226562 288.05743408203125 C 125.35157775878906 293.26611328125 124.61204528808594 300.7506408691406 128.6837615966797 305.434814453125 C 133.72276306152344 311.20574951171875 143.8848419189453 309.73004150390625 148.95709228515625 303.9697570800781 C 154.02935791015625 298.2095031738281 154.93325805664062 289.82098388671875 153.93951416015625 282.2200622558594 C 153.86761474609375 279.8363342285156 152.90481567382812 277.56622314453125 151.2410125732422 275.8576965332031 C 149.4353790283203 274.359619140625 146.03683471679688 274.7054443359375 145.373291015625 276.9679870605469 L 142.76637268066406 276.02459716796875" stroke-width="0.6000000238418579" fill="rgb(159, 159, 159)" opacity="1.0"/>
    <path d="M 163.6138916015625 284.0299987792969 C 162.90966796875 291.3582458496094 164.700927734375 299.0873718261719 169.41094970703125 304.74053955078125 C 174.12094116210938 310.3936767578125 181.93212890625 313.6186828613281 189.13406372070312 311.9654846191406 C 194.22442626953125 310.79022216796875 198.60964965820312 307.3300476074219 201.59078979492188 303.0343017578125 C 204.57192993164062 298.738525390625 206.25726318359375 293.6591491699219 207.22732543945312 288.5201416015625 C 207.64813232421875 286.28350830078125 207.92767333984375 283.906982421875 207.08786010742188 281.79803466796875 C 206.12615966796875 279.3797607421875 203.87503051757812 277.7580871582031 201.6624755859375 276.37286376953125 C 195.4158935546875 272.4621887207031 188.33203125 269.35986328125 180.96514892578125 269.5965576171875 C 173.59823608398438 269.8332824707031 166.005859375 274.13824462890625 163.703125 281.1207580566406 L 163.6138916015625 284.0299987792969" stroke-width="0.6000000238418579" fill="rgb(159, 159, 159)" opacity="1.0"/>
    <path d="M 122.82000732421875 347.29315185546875 C 121.62326049804688 340.37396240234375 119.99325561523438 332.7348327636719 114.30621337890625 328.6394348144531 C 108.78115844726562 324.6488342285156 101.27093505859375 325.32318115234375 94.52206420898438 326.29547119140625 C 91.78099060058594 326.6944885253906 88.9197998046875 327.1556396484375 86.69473266601562 328.80279541015625 C 82.9298095703125 331.5864562988281 82.08705139160156 336.85589599609375 82.28080749511719 341.52728271484375 C 82.45896911621094 345.8631896972656 83.25880432128906 350.1510314941406 84.65582275390625 354.25958251953125 C 86.92178344726562 360.93157958984375 91.62551879882812 367.6576843261719 98.59246826171875 368.69488525390625 C 102.35287475585938 369.2603454589844 106.22489929199219 368.02471923828125 109.45703125 366.01025390625 C 112.68914794921875 363.9957275390625 115.37826538085938 361.2301940917969 117.99409484863281 358.4621276855469 C 120.60992431640625 355.6940612792969 123.12094116210938 352.9181213378906 124.34002685546875 349.40594482421875 L 122.82000732421875 347.29315185546875" stroke-width="0.6000000238418579" fill="rgb(218, 166, 20)" opacity="1.0"/>
    <path d="M 150.35841369628906 343.0355529785156 C 137.79385375976562 344.19805908203125 128.55064392089844 355.3260498046875 129.713134765625 367.8905944824219 C 129.81268310546875 368.96649169921875 129.98843383789062 370.03399658203125 130.23904418945312 371.0850524902344 C 131.1920623779297 375.0785827636719 133.3782958984375 378.94580078125 136.89251708984375 381.0649108886719 C 139.86212158203125 382.8559875488281 143.4580078125 383.2447204589844 146.9236297607422 383.242431640625 C 156.2001953125 383.2235107421875 165.302490234375 380.7210693359375 173.2850341796875 375.9950866699219 C 175.3929443359375 374.7423400878906 177.4661865234375 373.2847595214844 178.80374145507812 371.2233581542969 C 181.05123901367188 367.7639465332031 180.8046875 363.1623229980469 179.31622314453125 359.3116760253906 C 177.1103515625 353.5933532714844 172.41064453125 349.0171813964844 166.88970947265625 346.3523864746094 C 161.36874389648438 343.6875915527344 155.08865356445312 342.82586669921875 148.97354125976562 343.2510681152344 L 150.35841369628906 343.0355529785156" stroke-width="0.6000000238418579" fill="rgb(143, 165, 67)" opacity="1.0"/>
    <path d="M 139.78103637695312 378.3777770996094 C 133.46463012695312 365.31298828125 111.498046875 365.27984619140625 104.2471923828125 377.7420959472656 C 96.99638366699219 390.20440673828125 106.86665344238281 408.6197509765625 121.25234985351562 410.5599365234375 C 135.6380615234375 412.5001220703125 149.65745544433594 398.856689453125 149.1657257080078 384.3355712890625 L 139.78103637695312 378.3777770996094" stroke-width="0.6000000238418579" fill="rgb(233, 92, 21)" opacity="1.0"/>
    <path d="M 184.98681640625 353.170166015625 C 184.246826171875 359.7867736816406 184.04916381835938 367.7671813964844 189.52532958984375 371.59356689453125 C 191.76388549804688 373.0314636230469 194.39349365234375 373.7393493652344 197.05136108398438 373.61944580078125 C 203.6356201171875 373.4997253417969 209.75341796875 370.1960754394531 213.46475219726562 364.7561340332031 C 216.60113525390625 360.1335144042969 217.584228515625 354.4743347167969 218.40731811523438 348.983642578125 C 218.86468505859375 345.8985595703125 219.2523193359375 342.606201171875 217.93585205078125 339.7977600097656 C 216.150390625 336.0686950683594 211.85934448242188 334.2984924316406 207.84478759765625 333.3153076171875 C 201.9713134765625 331.8691101074219 195.90249633789062 331.3830871582031 189.87368774414062 331.8761291503906 C 187.79095458984375 332.0505065917969 185.623046875 332.37261962890625 183.91351318359375 333.5736999511719 C 182.38113403320312 334.7717590332031 181.23043823242188 336.3898620605469 180.60174560546875 338.2306213378906 C 178.4775390625 343.74017333984375 178.87713623046875 349.90423583984375 181.69500732421875 355.0934143066406 L 184.98681640625 353.170166015625" stroke-width="0.6000000238418579" fill="rgb(70, 150, 179)" opacity="1.0"/>
  </g>
</svg>
