<?xml version="1.0" ?>
<svg xmlns="http://www.w3.org/2000/svg" version="1.1" width="600" height="600">
  <defs/>
  <g>
    <path d="M 354.5241394042969 344.5682678222656 C 358.88330078125 347.9759216308594 366.405029296875 344.2917785644531 366.7894287109375 338.80780029296875 C 367.173828125 333.3238525390625 360.6985168457031 328.6833190917969 355.4498596191406 330.4395751953125 C 350.2012023925781 332.19586181640625 347.6995544433594 339.2226867675781 350.3107604980469 344.1085510253906 L 354.5241394042969 344.5682678222656" stroke-width="0.6000000238418579" fill="rgb(233, 92, 21)" opacity="1.0"/>
    <path d="M 120.34107971191406 206.48260498046875 C 124.12155151367188 205.13784790039062 128.4979248046875 203.139404296875 129.1264190673828 199.16253662109375 C 129.31494140625 197.5701904296875 129.0047149658203 195.95858764648438 128.2384796142578 194.550048828125 C 126.43643188476562 191.013916015625 123.03219604492188 188.570556640625 119.1053466796875 187.994873046875 C 115.77304077148438 187.5150146484375 112.44720458984375 188.4754638671875 109.25489807128906 189.4781494140625 C 107.46255493164062 190.0443115234375 105.57630920410156 190.702880859375 104.40187072753906 192.1572265625 C 102.85235595703125 194.10855102539062 103.02529907226562 196.9007568359375 103.55177307128906 199.33541870117188 C 104.31779479980469 202.89956665039062 105.65565490722656 206.31622314453125 107.51345825195312 209.452880859375 C 108.15744018554688 210.535400390625 108.90397644042969 211.6251220703125 110.00581359863281 212.23452758789062 C 111.05929565429688 212.748779296875 112.23966979980469 212.94537353515625 113.40296936035156 212.80035400390625 C 116.94880676269531 212.49771118164062 120.18341064453125 210.65484619140625 122.251708984375 207.75885009765625 L 120.34107971191406 206.48260498046875" stroke-width="0.6000000238418579" fill="rgb(70, 150, 179)" opacity="1.0"/>
    <path d="M 454.91949462890625 417.29095458984375 C 456.8541259765625 420.97186279296875 459.1529541015625 424.9705810546875 463.0989990234375 426.2738037109375 C 467.3387451171875 427.6712646484375 472.0528564453125 425.29840087890625 474.89239501953125 421.8538818359375 C 475.98779296875 420.52630615234375 476.91168212890625 418.97198486328125 477.0677490234375 417.25811767578125 C 477.196533203125 415.8492431640625 476.80029296875 414.44915771484375 476.3343505859375 413.11370849609375 C 474.8702392578125 408.90057373046875 472.4390869140625 404.6854553222656 468.408203125 402.77801513671875 C 464.34442138671875 400.8584289550781 459.076904296875 401.8688049316406 456.02825927734375 405.17645263671875 C 452.9796142578125 408.48406982421875 452.35107421875 413.80389404296875 454.578369140625 417.71551513671875 L 454.91949462890625 417.29095458984375" stroke-width="0.6000000238418579" fill="rgb(140, 28, 33)" opacity="1.0"/>
    <path d="M 89.33345031738281 207.1527099609375 C 92.95915222167969 205.95166015625 96.71865844726562 204.66195678710938 99.51141357421875 202.0523681640625 C 102.30410766601562 199.44287109375 103.85975646972656 195.0810546875 102.12406921386719 191.67645263671875 C 99.97216796875 187.4786376953125 93.68096923828125 186.84808349609375 89.79322814941406 189.53488159179688 C 85.90548706054688 192.2216796875 84.11709594726562 197.09912109375 83.57974243164062 201.78836059570312 C 83.26795959472656 203.2232666015625 83.50540161132812 204.722900390625 84.24522399902344 205.99127197265625 C 85.10111999511719 207.155029296875 87.18312072753906 207.45416259765625 87.916259765625 206.20111083984375 L 89.33345031738281 207.1527099609375" stroke-width="0.6000000238418579" fill="rgb(159, 159, 159)" opacity="1.0"/>
    <path d="M 382.2530517578125 301.9332580566406 C 386.0586242675781 300.54071044921875 389.4700012207031 297.81396484375 391.1568603515625 294.1316833496094 C 392.84368896484375 290.44940185546875 392.5877990722656 285.8048095703125 390.0549011230469 282.6223449707031 C 388.26129150390625 280.37457275390625 385.5009460449219 279.02008056640625 382.6595764160156 278.5613098144531 C 379.81817626953125 278.1025390625 376.89581298828125 278.473388671875 374.1138916015625 279.2135009765625 C 372.9034729003906 279.5362854003906 371.6571350097656 279.9624938964844 370.809814453125 280.88079833984375 C 369.8378601074219 281.9331359863281 369.56793212890625 283.4362487792969 369.4062194824219 284.864013671875 C 368.9497375488281 288.8948974609375 369.0936279296875 293.1492614746094 370.96246337890625 296.7503662109375 C 372.8313293457031 300.3514404296875 376.7735290527344 303.0973205566406 380.7875061035156 302.58056640625 L 382.2530517578125 301.9332580566406" stroke-width="0.6000000238418579" fill="rgb(159, 159, 159)" opacity="1.0"/>
    <path d="M 101.9058837890625 429.116943359375 C 103.84945678710938 426.3271484375 105.88896179199219 423.1419677734375 105.32513427734375 419.7957763671875 C 104.78138732910156 416.540771484375 101.96595764160156 414.21612548828125 99.31123352050781 412.25323486328125 C 98.23161315917969 411.4574279785156 97.0894775390625 410.6421203613281 95.76260375976562 410.45172119140625 C 93.51860046386719 410.12841796875 91.43446350097656 411.65582275390625 89.91081237792969 413.3302001953125 C 88.49600219726562 414.88372802734375 87.31159973144531 416.63238525390625 86.39385986328125 418.5225830078125 C 84.902587890625 421.59130859375 84.23223876953125 425.508544921875 86.27790832519531 428.237548828125 C 87.380126953125 429.71246337890625 89.13398742675781 430.605224609375 90.93267822265625 431.01202392578125 C 92.73135375976562 431.4188232421875 94.59878540039062 431.382080078125 96.44181823730469 431.319580078125 C 98.28485107421875 431.257080078125 100.094482421875 431.1561279296875 101.70994567871094 430.36187744140625 L 101.9058837890625 429.116943359375" stroke-width="0.6000000238418579" fill="rgb(218, 166, 20)" opacity="1.0"/>
    <path d="M 99.35237121582031 144.23779296875 C 106.59823608398438 144.69113159179688 112.83966064453125 139.1846923828125 113.29299926757812 131.9388427734375 C 113.33181762695312 131.31837463378906 113.32656860351562 130.69595336914062 113.27731323242188 130.0762176513672 C 113.08966064453125 127.721435546875 112.18975830078125 125.3291015625 110.37989807128906 123.81278991699219 C 108.85055541992188 122.53125 106.8408203125 121.99139404296875 104.87045288085938 121.68536376953125 C 99.59518432617188 120.87348937988281 94.19876098632812 121.48892211914062 89.24171447753906 123.46769714355469 C 87.93231201171875 123.99295043945312 86.62442016601562 124.6376953125 85.68125915527344 125.69097900390625 C 84.09681701660156 127.45829772949219 83.82891845703125 130.0961151123047 84.3336181640625 132.41714477539062 C 85.08053588867188 135.86354064941406 87.346435546875 138.88177490234375 90.24871826171875 140.88626098632812 C 93.15097045898438 142.8907470703125 96.64469909667969 143.93751525878906 100.15875244140625 144.2380828857422 L 99.35237121582031 144.23779296875" stroke-width="0.6000000238418579" fill="rgb(143, 165, 67)" opacity="1.0"/>
    <path d="M 460.577880859375 344.7850646972656 C 464.04827880859375 351.81829833984375 475.91998291015625 351.74072265625 479.784423828125 344.9741516113281 C 483.64886474609375 338.2075500488281 478.23455810546875 328.2981262207031 470.4515380859375 327.3121032714844 C 462.6685791015625 326.3260803222656 455.1512451171875 333.7604675292969 455.48016357421875 341.6060485839844 L 460.577880859375 344.7850646972656" stroke-width="0.6000000238418579" fill="rgb(233, 92, 21)" opacity="1.0"/>
    <path d="M 101.78450012207031 219.92520141601562 C 104.48629760742188 217.40557861328125 107.45234680175781 214.11566162109375 106.52798461914062 210.52581787109375 C 106.10455322265625 209.11151123046875 105.25267028808594 207.86346435546875 104.08984375 206.953857421875 C 101.2733154296875 204.6258544921875 97.50312805175781 203.807373046875 93.97483825683594 204.758056640625 C 90.98394775390625 205.57211303710938 88.52557373046875 207.60064697265625 86.19549560546875 209.61599731445312 C 84.888427734375 210.75021362304688 83.53584289550781 211.99691772460938 83.07583618164062 213.6553955078125 C 82.48080444335938 215.87103271484375 83.64874267578125 218.16671752929688 84.98451232910156 220.031005859375 C 86.93600463867188 222.7618408203125 89.31661987304688 225.1588134765625 92.0340576171875 227.12893676757812 C 92.97427368164062 227.80783081054688 94.00376892089844 228.45526123046875 95.15768432617188 228.56692504882812 C 96.23590087890625 228.6158447265625 97.30508422851562 228.3499755859375 98.23483276367188 227.8017578125 C 101.11978149414062 226.24847412109375 103.17813110351562 223.5078125 103.86575317382812 220.30422973632812 L 101.78450012207031 219.92520141601562" stroke-width="0.6000000238418579" fill="rgb(70, 150, 179)" opacity="1.0"/>
    <path d="M 102.74925231933594 80.41140747070312 C 103.33023071289062 84.43521118164062 104.14314270019531 88.87088012695312 107.35409545898438 91.36029052734375 C 110.80496215820312 94.03240966796875 115.92401123046875 93.38491821289062 119.66546630859375 91.13777160644531 C 121.10836791992188 90.27197265625 122.46733093261719 89.14126586914062 123.17071533203125 87.61279296875 C 123.74942016601562 86.35652160644531 123.84141540527344 84.93685913085938 123.84811401367188 83.55404663085938 C 123.87443542480469 79.19334411621094 123.01026916503906 74.51510620117188 119.91845703125 71.44119262695312 C 116.80023193359375 68.34532165527344 111.61604309082031 67.55654907226562 107.7265625 69.60926818847656 C 103.83706665039062 71.66200256347656 101.5208740234375 76.35928344726562 102.2962646484375 80.69126892089844 L 102.74925231933594 80.41140747070312" stroke-width="0.6000000238418579" fill="rgb(140, 28, 33)" opacity="1.0"/>
    <path d="M 91.35842895507812 410.5613708496094 C 95.35226440429688 408.9571533203125 99.49038696289062 407.24383544921875 102.448974609375 404.1136779785156 C 105.407470703125 400.9835510253906 106.85220336914062 395.9691467285156 104.662109375 392.2613525390625 C 101.94845581054688 387.69049072265625 94.8287353515625 387.42108154296875 90.64404296875 390.71466064453125 C 86.4593505859375 394.00823974609375 84.78890991210938 399.61883544921875 84.51231384277344 404.9303283691406 C 84.261962890625 406.56597900390625 84.63381958007812 408.2359619140625 85.5545654296875 409.6108093261719 C 86.59854125976562 410.85986328125 88.9610595703125 411.0507507324219 89.69802856445312 409.5902099609375 L 91.35842895507812 410.5613708496094" stroke-width="0.6000000238418579" fill="rgb(159, 159, 159)" opacity="1.0"/>
    <path d="M 478.18231201171875 67.0498046875 C 479.8775634765625 63.48463439941406 480.3883056640625 59.26097106933594 479.048095703125 55.54991149902344 C 477.7078857421875 51.83885192871094 474.36029052734375 48.784576416015625 470.4276123046875 48.300689697265625 C 467.646728515625 47.96209716796875 464.80340576171875 48.904205322265625 462.5150146484375 50.52435302734375 C 460.2265625 52.144500732421875 458.44805908203125 54.39662170410156 457.0191650390625 56.80963134765625 C 456.39794921875 57.86009216308594 455.8223876953125 59.00691223144531 455.8599853515625 60.22357177734375 C 455.9024658203125 61.61846923828125 456.7406005859375 62.847625732421875 457.6025390625 63.9505615234375 C 460.0360107421875 67.06431579589844 463.0394287109375 69.92373657226562 466.796142578125 71.15180969238281 C 470.55291748046875 72.3798828125 475.1673583984375 71.59849548339844 477.605224609375 68.49996948242188 L 478.18231201171875 67.0498046875" stroke-width="0.6000000238418579" fill="rgb(159, 159, 159)" opacity="1.0"/>
    <path d="M 88.11085510253906 107.46784973144531 C 92.50848388671875 108.04788208007812 97.42178344726562 108.50210571289062 100.96136474609375 105.84310913085938 C 104.40724182128906 103.2620849609375 105.41349792480469 98.6063232421875 106.09684753417969 94.35360717773438 C 106.37191772460938 92.62559509277344 106.63211059570312 90.81344604492188 106.05743408203125 89.16177368164062 C 105.08708190917969 86.36770629882812 102.0679931640625 84.8681640625 99.21456909179688 84.10617065429688 C 96.56634521484375 83.39788818359375 93.83016967773438 83.07353210449219 91.08975219726562 83.14303588867188 C 86.64004516601562 83.2542724609375 81.69906616210938 84.82537841796875 79.76287841796875 88.83154296875 C 78.71444702148438 90.9927978515625 78.73112487792969 93.56021118164062 79.33786010742188 95.88827514648438 C 79.94461059570312 98.21633911132812 81.10641479492188 100.35824584960938 82.28350830078125 102.45643615722656 C 83.46061706542969 104.55462646484375 84.66220092773438 106.59107971191406 86.55081176757812 107.98698425292969 L 88.11085510253906 107.46784973144531" stroke-width="0.6000000238418579" fill="rgb(218, 166, 20)" opacity="1.0"/>
    <path d="M 127.77671813964844 135.6433563232422 C 134.81504821777344 135.08497619628906 140.06808471679688 128.92662048339844 139.5096893310547 121.88829040527344 C 139.46188354492188 121.28559875488281 139.37136840820312 120.68705749511719 139.2388458251953 120.09716796875 C 138.73489379882812 117.85581970214844 137.5400390625 115.67611694335938 135.58935546875 114.46473693847656 C 133.94100952148438 113.44088745117188 131.9319610595703 113.19705200195312 129.99295043945312 113.17295837402344 C 124.8026123046875 113.1156005859375 119.69158935546875 114.44903564453125 115.1907958984375 117.03472900390625 C 114.00225830078125 117.72021484375 112.83160400390625 118.52052307128906 112.06814575195312 119.66407775878906 C 110.78535461425781 121.5831298828125 110.88958740234375 124.15953063964844 111.69418334960938 126.32484436035156 C 112.886474609375 129.54037475585938 115.48239135742188 132.13514709472656 118.55183410644531 133.66651916503906 C 121.62126159667969 135.19789123535156 125.12863159179688 135.7260284423828 128.55313110351562 135.53292846679688 L 127.77671813964844 135.6433563232422" stroke-width="0.6000000238418579" fill="rgb(143, 165, 67)" opacity="1.0"/>
    <path d="M 391.80792236328125 309.1964111328125 C 395.2987365722656 317.9743347167969 409.55987548828125 319.0220947265625 414.8499755859375 311.26922607421875 C 420.14007568359375 303.5163269042969 414.59173583984375 291.0982971191406 405.3418884277344 289.1664733886719 C 396.092041015625 287.2346496582031 386.35198974609375 295.4382629394531 385.9928894042969 304.8896179199219 L 391.80792236328125 309.1964111328125" stroke-width="0.6000000238418579" fill="rgb(233, 92, 21)" opacity="1.0"/>
    <path d="M 122.82278442382812 109.21214294433594 C 126.75634765625 108.22221374511719 131.3524169921875 106.63174438476562 132.36708068847656 102.69021606445312 C 132.7098388671875 101.10592651367188 132.55255126953125 99.45431518554688 131.91683959960938 97.96324157714844 C 130.44325256347656 94.23159790039062 127.25238037109375 91.4456787109375 123.35606384277344 90.48892211914062 C 120.048828125 89.68580627441406 116.60971069335938 90.33265686035156 113.30088806152344 91.03486633300781 C 111.44282531738281 91.43234252929688 109.48136901855469 91.91380310058594 108.15975952148438 93.26443481445312 C 106.41290283203125 95.07916259765625 106.318603515625 97.90559387207031 106.61439514160156 100.40625 C 107.04270935058594 104.06651306152344 108.06065368652344 107.63330078125 109.62872314453125 110.96830749511719 C 110.1727294921875 112.11956787109375 110.81924438476562 113.28788757324219 111.86947631835938 114.00704956054688 C 112.88018798828125 114.62577819824219 114.04911804199219 114.93705749511719 115.23370361328125 114.90292358398438 C 118.83099365234375 114.93917846679688 122.26312255859375 113.39555358886719 124.62281799316406 110.68008422851562 L 122.82278442382812 109.21214294433594" stroke-width="0.6000000238418579" fill="rgb(70, 150, 179)" opacity="1.0"/>
    <path d="M 421.92523193359375 64.421630859375 C 423.954345703125 67.63690185546875 426.3385009765625 71.1156005859375 430.02923583984375 72.01846313476562 C 433.9945068359375 72.9859619140625 438.119873046875 70.4827880859375 440.459228515625 67.13821411132812 C 441.36175537109375 65.84906005859375 442.0916748046875 64.36563110351562 442.110107421875 62.792236328125 C 442.125732421875 61.49882507324219 441.6634521484375 60.25128173828125 441.142333984375 59.067718505859375 C 439.50360107421875 55.333343505859375 436.9832763671875 51.667022705078125 433.171630859375 50.219573974609375 C 429.3289794921875 48.763397216796875 424.600830078125 50.064727783203125 422.06097412109375 53.299652099609375 C 419.5211181640625 56.53460693359375 419.3323974609375 61.42878723144531 421.64501953125 64.83322143554688 L 421.92523193359375 64.421630859375" stroke-width="0.6000000238418579" fill="rgb(140, 28, 33)" opacity="1.0"/>
    <path d="M 115.32614135742188 424.4881591796875 C 117.34194946289062 421.0611572265625 119.40174865722656 417.4730224609375 119.79931640625 413.51422119140625 C 120.19686889648438 409.555419921875 118.42401123046875 405.0727233886719 114.72996520996094 403.5967102050781 C 110.16598510742188 401.784912109375 104.80667114257812 405.6053771972656 103.60453796386719 410.3756103515625 C 102.40240478515625 415.1458740234375 104.34660339355469 420.19195556640625 107.14149475097656 424.2327880859375 C 107.88134765625 425.57037353515625 109.09567260742188 426.5819091796875 110.54487609863281 427.06793212890625 C 112.01324462890625 427.39239501953125 113.848876953125 426.1988525390625 113.563720703125 424.71478271484375 L 115.32614135742188 424.4881591796875" stroke-width="0.6000000238418579" fill="rgb(159, 159, 159)" opacity="1.0"/>
    <path d="M 467.265625 446.015869140625 C 467.586181640625 443.0802001953125 466.9078369140625 439.97076416015625 465.0479736328125 437.6788330078125 C 463.18817138671875 435.38690185546875 460.0718994140625 434.0528564453125 457.174560546875 434.67852783203125 C 455.126708984375 435.12353515625 453.349853515625 436.48858642578125 452.1318359375 438.1961669921875 C 450.913818359375 439.9036865234375 450.21142578125 441.9322509765625 449.795654296875 443.98846435546875 C 449.61529541015625 444.8834228515625 449.4908447265625 445.835205078125 449.8167724609375 446.6854248046875 C 450.18994140625 447.660400390625 451.08441162109375 448.322509765625 451.9647216796875 448.8896484375 C 454.4498291015625 450.4906005859375 457.27508544921875 451.771728515625 460.231201171875 451.71502685546875 C 463.187255859375 451.6583251953125 466.2548828125 449.9710693359375 467.2147216796875 447.182373046875 L 467.265625 446.015869140625" stroke-width="0.6000000238418579" fill="rgb(159, 159, 159)" opacity="1.0"/>
    <path d="M 453.6627197265625 289.20477294921875 C 455.25555419921875 285.04193115234375 456.84576416015625 280.3457336425781 455.07269287109375 276.2658996582031 C 453.35394287109375 272.29583740234375 449.0382080078125 270.2261657714844 445.0411376953125 268.5661315917969 C 443.4163818359375 267.8941345214844 441.7059326171875 267.2170715332031 439.95758056640625 267.3934326171875 C 437.0003662109375 267.6899719238281 434.830322265625 270.2909240722656 433.419921875 272.90203857421875 C 432.10986328125 275.3251037597656 431.15447998046875 277.9237365722656 430.58306884765625 280.6183776855469 C 429.6536865234375 284.9933776855469 430.03656005859375 290.1891174316406 433.5003662109375 293.0161437988281 C 435.3681640625 294.5450744628906 437.88140869140625 295.12774658203125 440.29833984375 295.0778503417969 C 442.71533203125 295.0279541015625 445.079833984375 294.39215087890625 447.4051513671875 293.73114013671875 C 449.73046875 293.0701599121094 452.001220703125 292.3708801269531 453.80615234375 290.85064697265625 L 453.6627197265625 289.20477294921875" stroke-width="0.6000000238418579" fill="rgb(218, 166, 20)" opacity="1.0"/>
    <path d="M 426.9891357421875 363.0939636230469 C 425.821044921875 368.5858459472656 429.32623291015625 373.98480224609375 434.818115234375 375.15283203125 C 435.28839111328125 375.25286865234375 435.76513671875 375.31939697265625 436.244873046875 375.3519592285156 C 438.06756591796875 375.47528076171875 439.999755859375 375.0579833984375 441.36492919921875 373.8452453613281 C 442.5186767578125 372.82049560546875 443.159423828125 371.34417724609375 443.61688232421875 369.87152099609375 C 444.83587646484375 365.92779541015625 444.9766845703125 361.7296447753906 444.024658203125 357.7131042480469 C 443.771240234375 356.65185546875 443.42626953125 355.5782165527344 442.72735595703125 354.7372741699219 C 441.554931640625 353.3248291015625 439.5672607421875 352.8209228515625 437.734375 352.9439697265625 C 435.01318359375 353.1247863769531 432.44732666015625 354.5161437988281 430.58489990234375 356.50927734375 C 428.7225341796875 358.5024108886719 427.52569580078125 361.0565490722656 426.8974609375 363.7108459472656 L 426.9891357421875 363.0939636230469" stroke-width="0.6000000238418579" fill="rgb(143, 165, 67)" opacity="1.0"/>
    <path d="M 450.5794677734375 346.296630859375 C 456.6395263671875 342.1324768066406 454.9739990234375 331.1275329589844 448.17681884765625 328.4501037597656 C 441.37957763671875 325.7727355957031 432.9117431640625 332.12664794921875 433.04150390625 339.4805908203125 C 433.17138671875 346.83453369140625 441.07855224609375 352.8116455078125 448.3140869140625 351.453369140625 L 450.5794677734375 346.296630859375" stroke-width="0.6000000238418579" fill="rgb(233, 92, 21)" opacity="1.0"/>
    <path d="M 453.09661865234375 72.82666015625 C 456.192138671875 71.31968688964844 459.7335205078125 69.19854736328125 459.8905029296875 65.74752807617188 C 459.8995361328125 64.37173461914062 459.4814453125 63.02703857421875 458.69384765625 61.898956298828125 C 456.8201904296875 59.05534362792969 453.6845703125 57.2962646484375 450.2811279296875 57.179534912109375 C 447.3939208984375 57.087921142578125 444.6494140625 58.22381591796875 442.0228271484375 59.383026123046875 C 440.5484619140625 60.036590576171875 439.00274658203125 60.777923583984375 438.139892578125 62.129974365234375 C 437.0045166015625 63.94157409667969 437.4180908203125 66.3060302734375 438.0989990234375 68.33197021484375 C 439.091796875 71.29820251464844 440.5582275390625 74.08416748046875 442.4412841796875 76.58180236816406 C 443.0936279296875 77.44352722167969 443.833984375 78.30160522460938 444.8316650390625 78.71627807617188 C 445.77899169921875 79.05438232421875 446.80419921875 79.10954284667969 447.7823486328125 78.87503051757812 C 450.77716064453125 78.27908325195312 453.3597412109375 76.3994140625 454.84747314453125 73.73286437988281 L 453.09661865234375 72.82666015625" stroke-width="0.6000000238418579" fill="rgb(70, 150, 179)" opacity="1.0"/>
    <path d="M 451.94488525390625 397.6790771484375 C 452.33843994140625 393.77227783203125 452.610595703125 389.4253845214844 450.1815185546875 386.3435974121094 C 447.570068359375 383.03460693359375 442.62127685546875 382.44805908203125 438.5906982421875 383.6819763183594 C 437.0364990234375 384.15704345703125 435.4991455078125 384.8999938964844 434.4835205078125 386.1685791015625 C 433.6483154296875 387.21112060546875 433.2310791015625 388.5202941894531 432.9024658203125 389.8147888183594 C 431.86114501953125 393.895751953125 431.5804443359375 398.4819030761719 433.76165771484375 402.0837707519531 C 435.9625244140625 405.7123718261719 440.63751220703125 407.6602783203125 444.76153564453125 406.6430969238281 C 448.88555908203125 405.62591552734375 452.1514892578125 401.7633361816406 452.4346923828125 397.5223693847656 L 451.94488525390625 397.6790771484375" stroke-width="0.6000000238418579" fill="rgb(140, 28, 33)" opacity="1.0"/>
    <path d="M 126.40151977539062 214.55426025390625 C 121.80496215820312 217.4388427734375 117.05377197265625 220.4910888671875 114.08338928222656 225.03738403320312 C 111.11306762695312 229.58358764648438 110.44287109375 236.12896728515625 113.99038696289062 240.23947143554688 C 118.3807373046875 245.30364990234375 127.275390625 244.044189453125 131.73062133789062 239.02069091796875 C 136.18585205078125 233.9971923828125 137.0026397705078 226.6614990234375 136.1568603515625 220.0089111328125 C 136.10137939453125 217.92333984375 135.26612854003906 215.93438720703125 133.81588745117188 214.4345703125 C 132.2409210205078 213.118408203125 129.26670837402344 213.410400390625 128.67918395996094 215.38763427734375 L 126.40151977539062 214.55426025390625" stroke-width="0.6000000238418579" fill="rgb(159, 159, 159)" opacity="1.0"/>
    <path d="M 109.42410278320312 234.9281005859375 C 104.471923828125 232.56796264648438 98.603271484375 231.85311889648438 93.4447021484375 233.71102905273438 C 88.28611755371094 235.56893920898438 84.03778076171875 240.21707153320312 83.36058044433594 245.681396484375 C 82.88668823242188 249.5452880859375 84.19241333007812 253.49761962890625 86.44100952148438 256.6795654296875 C 88.68960571289062 259.8615417480469 91.81704711914062 262.33575439453125 95.16845703125 264.3243103027344 C 96.62744140625 265.1888122558594 98.22038269042969 265.9900207519531 99.91111755371094 265.9392395019531 C 101.84951782226562 265.88189697265625 103.55860900878906 264.7187194824219 105.09231567382812 263.52227783203125 C 109.42219543457031 260.14447021484375 113.39935302734375 255.97442626953125 115.1104736328125 250.7554931640625 C 116.82157897949219 245.53652954101562 115.74136352539062 239.12319946289062 111.43855285644531 235.73178100585938 L 109.42410278320312 234.9281005859375" stroke-width="0.6000000238418579" fill="rgb(159, 159, 159)" opacity="1.0"/>
    <path d="M 299.1405944824219 98.91311645507812 C 297.4821472167969 103.60748291015625 295.8420715332031 108.8973388671875 297.93975830078125 113.40182495117188 C 299.9736022949219 117.78533935546875 304.8524169921875 119.97178649902344 309.3636474609375 121.71002197265625 C 311.19732666015625 122.41346740722656 313.1268310546875 123.12013244628906 315.07403564453125 122.87271118164062 C 318.3676452636719 122.4561767578125 320.7156066894531 119.48921203613281 322.2151794433594 116.53280639648438 C 323.60809326171875 113.789306640625 324.5998229980469 110.8599853515625 325.1600646972656 107.83456420898438 C 326.071533203125 102.92242431640625 325.4939880371094 97.1317138671875 321.54449462890625 94.07501220703125 C 319.41473388671875 92.42169189453125 316.591552734375 91.8436279296875 313.8941345214844 91.9691162109375 C 311.19671630859375 92.0946044921875 308.57476806640625 92.87286376953125 305.997314453125 93.6781005859375 C 303.4198303222656 94.48330688476562 300.9044494628906 95.32974243164062 298.9328918457031 97.07942199707031 L 299.1405944824219 98.91311645507812" stroke-width="0.6000000238418579" fill="rgb(218, 166, 20)" opacity="1.0"/>
    <path d="M 225.1519775390625 121.29191589355469 C 218.775390625 114.27189636230469 207.91534423828125 113.75025939941406 200.89532470703125 120.12680053710938 C 200.294189453125 120.67282104492188 199.73257446289062 121.26081848144531 199.21466064453125 121.88632202148438 C 197.24710083007812 124.26348876953125 195.91278076171875 127.32414245605469 196.2283935546875 130.39224243164062 C 196.494873046875 132.98504638671875 197.88656616210938 135.32017517089844 199.45419311523438 137.4003448486328 C 203.65802001953125 142.962646484375 209.27450561523438 147.29791259765625 215.72021484375 149.95578002929688 C 217.42520141601562 150.6554718017578 219.23748779296875 151.24180603027344 221.0799560546875 151.1134033203125 C 224.17315673828125 150.89964294433594 226.82513427734375 148.6719207763672 228.46484375 146.03778076171875 C 230.9019775390625 142.12875366210938 231.526123046875 137.23829650878906 230.63125610351562 132.7184600830078 C 229.73638916015625 128.19863891601562 227.4156494140625 124.03781127929688 224.39666748046875 120.55764770507812 L 225.1519775390625 121.29191589355469" stroke-width="0.6000000238418579" fill="rgb(143, 165, 67)" opacity="1.0"/>
    <path d="M 219.99407958984375 89.38832092285156 C 220.87527465820312 100.7867431640625 236.98028564453125 107.12030029296875 245.87884521484375 100.0606689453125 C 254.77740478515625 93.00100708007812 252.825927734375 76.65670776367188 242.82992553710938 71.10151672363281 C 232.83392333984375 65.54632568359375 218.6307373046875 71.5284423828125 214.82073974609375 82.32225036621094 L 219.99407958984375 89.38832092285156" stroke-width="0.6000000238418579" fill="rgb(233, 92, 21)" opacity="1.0"/>
    <path d="M 197.75994873046875 98.26605224609375 C 196.4676513671875 93.02978515625 194.38092041015625 86.90896606445312 189.14627075195312 85.53579711914062 C 187.04183959960938 85.07040405273438 184.8448486328125 85.26950073242188 182.85833740234375 86.10565185546875 C 177.88763427734375 88.04226684570312 174.16390991210938 92.26800537109375 172.8680419921875 97.44287109375 C 171.780029296875 101.83540344238281 172.619140625 106.41213989257812 173.53265380859375 110.81597900390625 C 174.04983520507812 113.28895568847656 174.67803955078125 115.89991760253906 176.46588134765625 117.66543579101562 C 178.8681640625 119.99916076660156 182.625732421875 120.14176940917969 185.95248413085938 119.76371765136719 C 190.82192993164062 119.21652221679688 195.5706787109375 117.884765625 200.01458740234375 115.82009887695312 C 201.54864501953125 115.10377502441406 203.1060791015625 114.25128173828125 204.06869506835938 112.85922241210938 C 204.89752197265625 111.51910400390625 205.31854248046875 109.96676635742188 205.2803955078125 108.3914794921875 C 205.35052490234375 103.60858154296875 203.3189697265625 99.03567504882812 199.72271728515625 95.881591796875 L 197.75994873046875 98.26605224609375" stroke-width="0.6000000238418579" fill="rgb(70, 150, 179)" opacity="1.0"/>
    <path d="M 263.175537109375 131.0011749267578 C 259.8391418457031 134.58644104003906 256.29150390625 138.70050048828125 256.3818359375 143.59405517578125 C 256.4819641113281 148.85076904296875 260.9571533203125 153.16455078125 265.8923645019531 154.9771728515625 C 267.7948913574219 155.67684936523438 269.8825378417969 156.09759521484375 271.84808349609375 155.60272216796875 C 273.46405029296875 155.196533203125 274.86553955078125 154.21022033691406 276.16802978515625 153.1717071533203 C 280.2793884277344 149.90171813964844 284.0158386230469 145.55630493164062 284.56396484375 140.33291625976562 C 285.11273193359375 135.06814575195312 281.9359436035156 129.60809326171875 277.0712890625 127.50968933105469 C 272.20660400390625 125.41128540039062 266.04937744140625 126.78709411621094 262.5707092285156 130.78761291503906 L 263.175537109375 131.0011749267578" stroke-width="0.6000000238418579" fill="rgb(140, 28, 33)" opacity="1.0"/>
    <path d="M 304.5220947265625 123.23783874511719 C 299.4227600097656 124.57070922851562 294.13128662109375 126.01385498046875 290.05426025390625 129.3601837158203 C 285.9773254394531 132.70648193359375 283.4487609863281 138.57537841796875 285.5374755859375 143.41758728027344 C 288.1291198730469 149.3890380859375 296.7369689941406 150.8144989013672 302.3287353515625 147.45877075195312 C 307.9205322265625 144.10304260253906 310.81524658203125 137.544677734375 311.97052001953125 131.13465881347656 C 312.5269470214844 129.18621826171875 312.3327941894531 127.10006713867188 311.42626953125 125.287841796875 C 310.3506774902344 123.60940551757812 307.5100402832031 123.01309204101562 306.3894348144531 124.67376708984375 L 304.5220947265625 123.23783874511719" stroke-width="0.6000000238418579" fill="rgb(159, 159, 159)" opacity="1.0"/>
    <path d="M 195.61785888671875 134.29998779296875 C 191.86636352539062 129.9056396484375 186.52755737304688 126.70089721679688 180.76834106445312 126.27560424804688 C 175.0091552734375 125.85031127929688 168.9288330078125 128.49949645996094 165.9337158203125 133.46548461914062 C 163.82061767578125 136.97918701171875 163.38153076171875 141.34115600585938 164.1798095703125 145.3665008544922 C 164.97811889648438 149.39186096191406 166.92535400390625 153.11331176757812 169.29641723632812 156.46365356445312 C 170.3291015625 157.9210205078125 171.517822265625 159.375 173.166015625 160.05130004882812 C 175.05526733398438 160.82754516601562 177.1982421875 160.441650390625 179.18673706054688 159.94851684570312 C 184.8006591796875 158.55630493164062 190.41510009765625 156.25067138671875 194.29949951171875 151.9641876220703 C 198.1839599609375 147.6776580810547 199.89553833007812 141.0449981689453 197.21099853515625 135.93710327148438 L 195.61785888671875 134.29998779296875" stroke-width="0.6000000238418579" fill="rgb(159, 159, 159)" opacity="1.0"/>
    <path d="M 279.7088317871094 96.322998046875 C 274.8899841308594 98.55252075195312 269.6302185058594 101.23947143554688 267.7533264160156 106.1951904296875 C 265.9212646484375 111.0120849609375 267.885009765625 116.36491394042969 269.917236328125 121.10336303710938 C 270.7456359863281 123.02706909179688 271.6429443359375 125.02635192871094 273.28179931640625 126.32870483398438 C 276.0523681640625 128.53302001953125 280.0658874511719 128.11619567871094 283.4395751953125 127.0595703125 C 286.5713195800781 126.08004760742188 289.5461730957031 124.6558837890625 292.2731018066406 122.83071899414062 C 296.7019348144531 119.8687744140625 300.6927490234375 115.11581420898438 300.0854187011719 109.824462890625 C 299.76171875 106.96734619140625 298.1007385253906 104.38154602050781 295.996337890625 102.41567993164062 C 293.89190673828125 100.44979858398438 291.3453369140625 99.02761840820312 288.811279296875 97.65948486328125 C 286.2772521972656 96.29133605957031 283.7579650878906 95.00128173828125 280.9540710449219 94.79898071289062 L 279.7088317871094 96.322998046875" stroke-width="0.6000000238418579" fill="rgb(218, 166, 20)" opacity="1.0"/>
    <path d="M 234.1026611328125 119.16290283203125 C 232.114013671875 129.07723999023438 238.5390625 138.72650146484375 248.453369140625 140.71514892578125 C 249.3023681640625 140.8854522705078 250.16232299804688 140.9952850341797 251.02685546875 141.04388427734375 C 254.31185913085938 141.22789001464844 257.78265380859375 140.43600463867188 260.2156982421875 138.2235565185547 C 262.27197265625 136.35406494140625 263.3950500488281 133.6820831298828 264.1880187988281 131.02047729492188 C 266.30078125 123.89309692382812 266.4665832519531 116.32998657226562 264.6682434082031 109.11683654785156 C 264.189697265625 107.21099853515625 263.5459289550781 105.28477478027344 262.2698059082031 103.7850341796875 C 260.1288757324219 101.26597595214844 256.5389404296875 100.40005493164062 253.24090576171875 100.65997314453125 C 248.34420776367188 101.04244995117188 243.75265502929688 103.60169982910156 240.4404296875 107.22991943359375 C 237.12823486328125 110.85810852050781 235.02642822265625 115.48269653320312 233.9505615234375 120.27571105957031 L 234.1026611328125 119.16290283203125" stroke-width="0.6000000238418579" fill="rgb(143, 165, 67)" opacity="1.0"/>
    <path d="M 254.7633056640625 85.97048950195312 C 255.14773559570312 97.47689819335938 271.0714416503906 104.55838012695312 280.33502197265625 97.84791564941406 C 289.59857177734375 91.13742065429688 288.3552551269531 74.60797119140625 278.5433349609375 68.5787353515625 C 268.7314147949219 62.54948425292969 254.17852783203125 67.94219970703125 249.869873046875 78.63363647460938 L 254.7633056640625 85.97048950195312" stroke-width="0.6000000238418579" fill="rgb(233, 92, 21)" opacity="1.0"/>
    <path d="M 340.1192321777344 77.35586547851562 C 336.3932189941406 73.77301025390625 331.57080078125 69.879638671875 326.625732421875 71.44450378417969 C 324.68206787109375 72.14384460449219 323.00323486328125 73.4290771484375 321.82098388671875 75.12298583984375 C 318.7829284667969 79.23536682128906 317.9266052246094 84.56517028808594 319.5235595703125 89.4222412109375 C 320.88873291015625 93.53892517089844 323.91009521484375 96.81906127929688 326.9032897949219 99.92098999023438 C 328.5874938964844 101.66075134277344 330.43231201171875 103.45553588867188 332.78448486328125 103.97189331054688 C 335.9253234863281 104.63446044921875 339.0437316894531 102.82785034179688 341.5466613769531 100.81961059570312 C 345.2133483886719 97.8851318359375 348.38092041015625 94.37651062011719 350.92645263671875 90.42984008789062 C 351.8033752441406 89.06449890136719 352.6295166015625 87.57685852050781 352.6976013183594 85.95619201660156 C 352.683837890625 84.446044921875 352.23095703125 82.97250366210938 351.3941650390625 81.71530151367188 C 349.0043029785156 77.80294799804688 345.0184631347656 75.13589477539062 340.4902648925781 74.41921997070312 L 340.1192321777344 77.35586547851562" stroke-width="0.6000000238418579" fill="rgb(70, 150, 179)" opacity="1.0"/>
    <path d="M 334.4826354980469 137.5421600341797 C 333.5527648925781 132.91989135742188 332.3279724121094 127.83551025390625 328.45074462890625 125.15806579589844 C 324.28399658203125 122.28439331054688 318.3977355957031 123.36126708984375 314.2088928222656 126.20248413085938 C 312.5933837890625 127.2972412109375 311.092041015625 128.6934051513672 310.3752136230469 130.50827026367188 C 309.7853698730469 131.99996948242188 309.76959228515625 133.64974975585938 309.8501892089844 135.25143432617188 C 310.098388671875 140.3026123046875 311.39801025390625 145.66458129882812 315.1746520996094 149.02647399902344 C 318.9832763671875 152.412109375 325.0367431640625 152.9941864013672 329.409423828125 150.36865234375 C 333.7821044921875 147.7431182861328 336.1639709472656 142.15585327148438 334.9892883300781 137.1891326904297 L 334.4826354980469 137.5421600341797" stroke-width="0.6000000238418579" fill="rgb(140, 28, 33)" opacity="1.0"/>
    <path d="M 345.3747253417969 105.50653076171875 C 340.228271484375 104.4200439453125 334.8611145019531 103.34622192382812 329.7284240722656 104.51322937011719 C 324.5958251953125 105.68023681640625 319.7192687988281 109.78994750976562 319.4222106933594 115.04428100585938 C 319.07000732421875 121.531005859375 326.1167907714844 126.64553833007812 332.605712890625 126.14628601074219 C 339.0946044921875 125.64703369140625 344.6057434082031 121.08535766601562 348.49810791015625 115.87966918945312 C 349.8644714355469 114.388916015625 350.6223449707031 112.44021606445312 350.62213134765625 110.41806030273438 C 350.4112854003906 108.43984985351562 348.1419677734375 106.6396484375 346.4005126953125 107.6217041015625 L 345.3747253417969 105.50653076171875" stroke-width="0.6000000238418579" fill="rgb(159, 159, 159)" opacity="1.0"/>
    <path d="M 345.54559326171875 121.10647583007812 C 340.938232421875 122.45291137695312 336.6918029785156 125.40724182128906 334.4084167480469 129.6265869140625 C 332.1250305175781 133.84591674804688 332.0620422363281 139.35549926757812 334.80523681640625 143.3161163330078 C 336.7482604980469 146.1138458251953 339.9041442871094 147.93190002441406 343.22625732421875 148.6976776123047 C 346.54840087890625 149.4634552001953 350.031494140625 149.25509643554688 353.3776550292969 148.5992431640625 C 354.83367919921875 148.31295776367188 356.3402099609375 147.90728759765625 357.4139404296875 146.88864135742188 C 358.6454772949219 145.72132873535156 359.082763671875 143.96604919433594 359.38623046875 142.2913055419922 C 360.2428894042969 137.5631561279297 360.4075622558594 132.5236053466797 358.4820861816406 128.12046813964844 C 356.5566101074219 123.71731567382812 352.1133728027344 120.16178894042969 347.3286437988281 120.45672607421875 L 345.54559326171875 121.10647583007812" stroke-width="0.6000000238418579" fill="rgb(159, 159, 159)" opacity="1.0"/>
    <path d="M 363.0043640136719 100.58261108398438 C 358.9336853027344 101.11209106445312 354.431884765625 101.87698364257812 351.9005126953125 105.09832763671875 C 349.434326171875 108.22763061523438 349.6441955566406 112.63072204589844 350.0467529296875 116.59642028808594 C 350.212646484375 118.20719909667969 350.411865234375 119.88966369628906 351.3194274902344 121.22964477539062 C 352.85308837890625 123.49685668945312 355.9101867675781 124.11819458007812 358.6434020996094 124.11947631835938 C 361.1802978515625 124.12164306640625 363.704345703125 123.759521484375 366.1382751464844 123.04421997070312 C 370.09075927734375 121.88418579101562 374.13458251953125 119.3016357421875 374.9111022949219 115.25778198242188 C 375.33349609375 113.07525634765625 374.7066650390625 110.78341674804688 373.6092224121094 108.84623718261719 C 372.51177978515625 106.9090576171875 370.9623718261719 105.27064514160156 369.4096984863281 103.67498779296875 C 367.8570251464844 102.07931518554688 366.29718017578125 100.544677734375 364.275634765625 99.74658203125 L 363.0043640136719 100.58261108398438" stroke-width="0.6000000238418579" fill="rgb(218, 166, 20)" opacity="1.0"/>
    <path d="M 427.435302734375 139.87037658691406 C 418.4241943359375 140.41119384765625 411.55767822265625 148.154541015625 412.0985107421875 157.1656494140625 C 412.144775390625 157.937255859375 412.24578857421875 158.70462036132812 412.40069580078125 159.46197509765625 C 412.9898681640625 162.33953857421875 414.46368408203125 165.15533447265625 416.92755126953125 166.7518310546875 C 419.009521484375 168.10116577148438 421.57177734375 168.46224975585938 424.0499267578125 168.54071044921875 C 430.6834716796875 168.74160766601562 437.2498779296875 167.16265869140625 443.0670166015625 163.9678955078125 C 444.60321044921875 163.12081909179688 446.119384765625 162.12652587890625 447.1234130859375 160.68341064453125 C 448.8104248046875 158.26174926757812 448.74053955078125 154.96566772460938 447.76519775390625 152.17788696289062 C 446.320068359375 148.0380401611328 443.0654296875 144.65724182128906 439.17926025390625 142.62417602539062 C 435.2930908203125 140.59112548828125 430.822509765625 139.8297882080078 426.4400634765625 139.99246215820312 L 427.435302734375 139.87037658691406" stroke-width="0.6000000238418579" fill="rgb(143, 165, 67)" opacity="1.0"/>
    <path d="M 148.2528076171875 408.03094482421875 C 151.48690795898438 418.401611328125 167.7474365234375 420.8516845703125 174.4920654296875 412.4251708984375 C 181.2366943359375 403.9986877441406 175.96209716796875 389.27398681640625 165.52508544921875 386.2489929199219 C 155.08804321289062 383.2239990234375 143.20150756835938 391.7777099609375 141.96218872070312 402.58349609375 L 148.2528076171875 408.03094482421875" stroke-width="0.6000000238418579" fill="rgb(233, 92, 21)" opacity="1.0"/>
    <path d="M 431.976318359375 195.2525634765625 C 427.32373046875 193.52899169921875 421.5872802734375 191.95269775390625 417.83624267578125 195.22616577148438 C 416.3941650390625 196.58697509765625 415.409912109375 198.3616943359375 415.019287109375 200.30560302734375 C 413.92327880859375 205.0892333984375 415.2138671875 210.10736083984375 418.4818115234375 213.7686767578125 C 421.26190185546875 216.86737060546875 425.1783447265625 218.59478759765625 429.00177001953125 220.17626953125 C 431.15093994140625 221.0611572265625 433.4625244140625 221.932861328125 435.730224609375 221.485107421875 C 438.74798583984375 220.863525390625 440.799072265625 218.077880859375 442.23114013671875 215.35092163085938 C 444.33203125 211.36260986328125 445.7735595703125 207.060546875 446.499755859375 202.611572265625 C 446.7476806640625 201.07391357421875 446.90411376953125 199.44805908203125 446.34246826171875 197.99591064453125 C 445.75115966796875 196.67242431640625 444.78753662109375 195.549560546875 443.569091796875 194.76425170898438 C 439.96575927734375 192.23834228515625 435.435791015625 191.42022705078125 431.176513671875 192.52627563476562 L 431.976318359375 195.2525634765625" stroke-width="0.6000000238418579" fill="rgb(70, 150, 179)" opacity="1.0"/>
    <path d="M 411.49908447265625 159.49493408203125 C 410.8182373046875 154.40029907226562 409.84967041015625 148.78189086914062 405.8235778808594 145.5919952392578 C 401.49658203125 142.1679229736328 395.0164794921875 142.91824340820312 390.256591796875 145.709228515625 C 388.4209289550781 146.7845458984375 386.6878662109375 148.1958770751953 385.7782897949219 150.11878967285156 C 385.0299377441406 151.69924926757812 384.89471435546875 153.49276733398438 384.86785888671875 155.24082946777344 C 384.7764587402344 160.75323486328125 385.80657958984375 166.678955078125 389.6742858886719 170.606201171875 C 393.5750732421875 174.56158447265625 400.118408203125 175.62783813476562 405.0628356933594 173.0845947265625 C 410.00726318359375 170.5413818359375 412.99798583984375 164.63397216796875 412.075439453125 159.14715576171875 L 411.49908447265625 159.49493408203125" stroke-width="0.6000000238418579" fill="rgb(140, 28, 33)" opacity="1.0"/>
    <path d="M 142.74868774414062 133.4300994873047 C 137.73114013671875 135.93992614746094 132.5377655029297 138.60684204101562 129.02781677246094 142.9887237548828 C 125.5179443359375 147.37054443359375 124.175537109375 154.03892517089844 127.41598510742188 158.6224365234375 C 131.42861938476562 164.27133178710938 140.70684814453125 163.8624267578125 145.79226684570312 159.1375732421875 C 150.87770080566406 154.4127197265625 152.4497833251953 146.9457244873047 152.24295043945312 140.01583862304688 C 152.39385986328125 137.86424255371094 151.7327423095703 135.73431396484375 150.3900146484375 134.04637145996094 C 148.900634765625 132.5349578857422 145.81105041503906 132.53878784179688 145.00930786132812 134.51480102539062 L 142.74868774414062 133.4300994873047" stroke-width="0.6000000238418579" fill="rgb(159, 159, 159)" opacity="1.0"/>
    <path d="M 431.1075439453125 168.8848876953125 C 426.9713134765625 166.10821533203125 421.7935791015625 164.688232421875 416.912841796875 165.67376708984375 C 412.0321044921875 166.6593017578125 407.5993957519531 170.27215576171875 406.2668151855469 175.09161376953125 C 405.3290100097656 178.50018310546875 405.9783020019531 182.2239990234375 407.5767517089844 185.38067626953125 C 409.1752014160156 188.53741455078125 411.6570129394531 191.17474365234375 414.4044189453125 193.4053955078125 C 415.6005859375 194.37542724609375 416.925537109375 195.30636596679688 418.45123291015625 195.48480224609375 C 420.2003173828125 195.690185546875 421.889892578125 194.87167358398438 423.4263916015625 194.00006103515625 C 427.7640380859375 191.53921508789062 431.8897705078125 188.31988525390625 434.11871337890625 183.85791015625 C 436.34765625 179.39593505859375 436.22705078125 173.49099731445312 432.8109130859375 169.8739013671875 L 431.1075439453125 168.8848876953125" stroke-width="0.6000000238418579" fill="rgb(159, 159, 159)" opacity="1.0"/>
    <path d="M 410.6929931640625 191.4356689453125 C 409.1183776855469 186.54254150390625 407.1561584472656 181.17178344726562 402.61529541015625 178.78439331054688 C 398.2025451660156 176.4564208984375 392.8276062011719 177.7127685546875 388.03497314453125 179.10723876953125 C 386.0888366699219 179.6766357421875 384.0619812011719 180.30328369140625 382.6174621582031 181.72467041015625 C 380.17291259765625 184.127197265625 380.1005554199219 188.03292846679688 380.7184143066406 191.39923095703125 C 381.2906494140625 194.52398681640625 382.30865478515625 197.55032348632812 383.7411804199219 200.38568115234375 C 386.0655517578125 204.99038696289062 390.1625061035156 209.38516235351562 395.318603515625 209.42498779296875 C 398.1021423339844 209.4505615234375 400.7825622558594 208.1591796875 402.9195251464844 206.36865234375 C 405.0564880371094 204.57809448242188 406.7231140136719 202.29864501953125 408.3363342285156 200.02484130859375 C 409.9495544433594 197.75103759765625 411.4859924316406 195.48223876953125 412.0107421875 192.81179809570312 L 410.6929931640625 191.4356689453125" stroke-width="0.6000000238418579" fill="rgb(218, 166, 20)" opacity="1.0"/>
    <path d="M 439.375732421875 182.67578125 C 440.132080078125 191.63031005859375 448.0042724609375 198.2762451171875 456.958740234375 197.51992797851562 C 457.72552490234375 197.45516967773438 458.4866943359375 197.33609008789062 459.2366943359375 197.16360473632812 C 462.08612060546875 196.50765991210938 464.8526611328125 194.97274780273438 466.38177490234375 192.48214721679688 C 467.6741943359375 190.3775634765625 467.97149658203125 187.81890869140625 467.9896240234375 185.35089111328125 C 468.02899169921875 178.74444580078125 466.2987060546875 172.2479248046875 462.978515625 166.5362548828125 C 462.098388671875 165.0279541015625 461.07220458984375 163.54315185546875 459.61175537109375 162.57891845703125 C 457.16094970703125 160.9586181640625 453.8824462890625 161.1080322265625 451.1317138671875 162.1461181640625 C 447.046875 163.6844482421875 443.76116943359375 167.00527954101562 441.83197021484375 170.921875 C 439.90283203125 174.83843994140625 439.25335693359375 179.305908203125 439.5213623046875 183.66326904296875 L 439.375732421875 182.67578125" stroke-width="0.6000000238418579" fill="rgb(143, 165, 67)" opacity="1.0"/>
    <path d="M 145.512939453125 101.37400817871094 C 134.21054077148438 107.09701538085938 134.53411865234375 126.27137756347656 145.5283203125 132.400390625 C 156.52255249023438 138.52935791015625 172.438232421875 129.6184539794922 173.90090942382812 117.03054809570312 C 175.36358642578125 104.44265747070312 163.229736328125 92.42460632324219 150.56268310546875 93.08685302734375 L 145.512939453125 101.37400817871094" stroke-width="0.6000000238418579" fill="rgb(233, 92, 21)" opacity="1.0"/>
    <path d="M 453.57781982421875 146.07183837890625 C 451.2176513671875 151.3270721435547 448.943359375 157.849365234375 452.4425048828125 162.45053100585938 C 453.90625 164.2274169921875 455.88531494140625 165.50628662109375 458.106689453125 166.1107177734375 C 463.562744140625 167.754150390625 469.4769287109375 166.65106201171875 473.97369384765625 163.1513671875 C 477.7806396484375 160.1728515625 480.0877685546875 155.77072143554688 482.2186279296875 151.4650421142578 C 483.41162109375 149.04443359375 484.60205078125 146.43463134765625 484.260498046875 143.77261352539062 C 483.7762451171875 140.22808837890625 480.70941162109375 137.63441467285156 477.6622314453125 135.76229858398438 C 473.2060546875 133.01687622070312 468.33489990234375 131.0108184814453 463.2376708984375 129.8219451904297 C 461.4757080078125 129.41455078125 459.6044921875 129.10635375976562 457.87835693359375 129.64353942871094 C 456.2989501953125 130.22512817382812 454.9228515625 131.25372314453125 453.9178466796875 132.60389709472656 C 450.710205078125 136.5808563232422 449.4085693359375 141.76478576660156 450.3570556640625 146.7853546142578 L 453.57781982421875 146.07183837890625" stroke-width="0.6000000238418579" fill="rgb(70, 150, 179)" opacity="1.0"/>
    <path d="M 379.2417297363281 79.83999633789062 C 379.6647033691406 73.38877868652344 379.8626708984375 66.22035217285156 375.6883850097656 61.2889404296875 C 371.2010803222656 55.99420166015625 363.02410888671875 55.31353759765625 356.4627380371094 57.57566833496094 C 353.9325866699219 58.44677734375 351.4457092285156 59.7576904296875 349.84747314453125 61.903533935546875 C 348.5329895019531 63.66703796386719 347.9217834472656 65.84521484375 347.4554138183594 67.99420166015625 C 345.97662353515625 74.76925659179688 345.7784118652344 82.3319091796875 349.57464599609375 88.13333129882812 C 353.40472412109375 93.97761535644531 361.20941162109375 96.9140625 367.9369812011719 95.00320434570312 C 374.6645202636719 93.09234619140625 379.8165283203125 86.54872131347656 380.0386962890625 79.553955078125 L 379.2417297363281 79.83999633789062" stroke-width="0.6000000238418579" fill="rgb(140, 28, 33)" opacity="1.0"/>
    <path d="M 136.54522705078125 413.27984619140625 C 134.1571044921875 418.8377685546875 131.73338317871094 424.64739990234375 131.8895263671875 430.698974609375 C 132.04568481445312 436.75054931640625 135.57806396484375 443.17828369140625 141.43601989746094 444.7005615234375 C 148.67123413085938 446.5635986328125 156.031005859375 439.77294921875 156.934326171875 432.3428955078125 C 157.837646484375 424.912841796875 153.9390106201172 417.6673583984375 148.94834899902344 412.101806640625 C 147.5760498046875 410.22412109375 145.5498504638672 408.9291687011719 143.26950073242188 408.4724426269531 C 140.99110412597656 408.26318359375 138.44830322265625 410.4154052734375 139.16221618652344 412.60107421875 L 136.54522705078125 413.27984619140625" stroke-width="0.6000000238418579" fill="rgb(159, 159, 159)" opacity="1.0"/>
    <path d="M 422.09814453125 213.76596069335938 C 416.966796875 209.31109619140625 410.1974182128906 206.51727294921875 403.4250183105469 207.02951049804688 C 396.652587890625 207.541748046875 390.044189453125 211.68576049804688 387.42901611328125 217.98492431640625 C 385.585693359375 222.44085693359375 385.8376159667969 227.59066772460938 387.46978759765625 232.13262939453125 C 389.1019592285156 236.67465209960938 392.01727294921875 240.662353515625 395.36053466796875 244.14434814453125 C 396.81634521484375 245.65875244140625 398.4530334472656 247.14193725585938 400.4881591796875 247.64035034179688 C 402.82110595703125 248.21282958984375 405.2459411621094 247.389404296875 407.472412109375 246.46826171875 C 413.75811767578125 243.86761474609375 419.88470458984375 240.20458984375 423.65301513671875 234.54022216796875 C 427.4212646484375 228.8758544921875 428.2523193359375 220.86270141601562 424.2371826171875 215.39141845703125 L 422.09814453125 213.76596069335938" stroke-width="0.6000000238418579" fill="rgb(159, 159, 159)" opacity="1.0"/>
    <path d="M 381.2760314941406 113.796142578125 C 375.32794189453125 113.79710388183594 368.71636962890625 114.05584716796875 364.4776306152344 118.212158203125 C 360.3497619628906 122.24838256835938 359.82940673828125 128.61448669433594 359.6675720214844 134.3880615234375 C 359.6052551269531 136.7335968017578 359.5774841308594 139.18838500976562 360.6314697265625 141.28323364257812 C 362.4119873046875 144.8273468017578 366.6888427734375 146.29083251953125 370.61602783203125 146.80288696289062 C 374.2609558105469 147.27957153320312 377.9554138183594 147.23037719726562 381.58636474609375 146.65689086914062 C 387.4823303222656 145.72781372070312 393.7751159667969 142.77169799804688 395.6457824707031 137.10594177246094 C 396.66015625 134.04867553710938 396.1872253417969 130.638427734375 394.971923828125 127.64999389648438 C 393.756591796875 124.66156005859375 391.8360290527344 122.01803588867188 389.9028015136719 119.43533325195312 C 387.9695739746094 116.85263061523438 386.0146484375 114.35629272460938 383.2588195800781 112.83212280273438 L 381.2760314941406 113.796142578125" stroke-width="0.6000000238418579" fill="rgb(218, 166, 20)" opacity="1.0"/>
    <path d="M 404.78619384765625 81.68495178222656 C 396.6916198730469 74.98989868164062 384.7022399902344 76.12442016601562 378.0071716308594 84.218994140625 C 377.4338684082031 84.91212463378906 376.9104919433594 85.64506530761719 376.4408874511719 86.41227722167969 C 374.6571350097656 89.32785034179688 373.675048828125 92.89334106445312 374.5032043457031 96.20773315429688 C 375.20281982421875 99.00871276855469 377.09564208984375 101.35035705566406 379.14129638671875 103.38481140136719 C 384.6245422363281 108.822998046875 391.4638977050781 112.69381713867188 398.9488830566406 114.59518432617188 C 400.92822265625 115.09443664550781 403.0074462890625 115.45254516601562 405.00738525390625 115.02224731445312 C 408.3653259277344 114.30183410644531 410.9230041503906 111.44256591796875 412.30694580078125 108.29673767089844 C 414.3648681640625 103.62776184082031 414.28076171875 98.1676025390625 412.58935546875 93.35249328613281 C 410.8980407714844 88.53738403320312 407.6996765136719 84.3399658203125 403.8426818847656 80.99856567382812 L 404.78619384765625 81.68495178222656" stroke-width="0.6000000238418579" fill="rgb(143, 165, 67)" opacity="1.0"/>
    <path d="M 123.04000854492188 427.886474609375 C 116.2967529296875 418.0836181640625 98.490234375 420.7877197265625 94.16328430175781 431.7889404296875 C 89.83636474609375 442.790283203125 100.125 456.48748779296875 112.02481079101562 456.2713623046875 C 123.92465209960938 456.0552978515625 133.59017944335938 443.2552490234375 131.3863525390625 431.548095703125 L 123.04000854492188 427.886474609375" stroke-width="0.6000000238418579" fill="rgb(233, 92, 21)" opacity="1.0"/>
    <path d="M 449.1251220703125 209.30767822265625 C 444.17584228515625 212.61181640625 438.6065673828125 217.07196044921875 439.14410400390625 223.018798828125 C 439.45013427734375 225.3770751953125 440.48040771484375 227.58230590820312 442.09283447265625 229.3302001953125 C 445.96600341796875 233.7623291015625 451.7471923828125 236.04220581054688 457.60302734375 235.44683837890625 C 462.569091796875 234.92913818359375 467.0037841796875 232.34249877929688 471.231201171875 229.74349975585938 C 473.60357666015625 228.27969360351562 476.0775146484375 226.64892578125 477.2392578125 224.13177490234375 C 478.7603759765625 220.76397705078125 477.4996337890625 216.81124877929688 475.860107421875 213.50076293945312 C 473.4666748046875 208.65283203125 470.30438232421875 204.22430419921875 466.495849609375 200.3868408203125 C 465.1773681640625 199.06350708007812 463.70880126953125 197.7669677734375 461.90338134765625 197.28994750976562 C 460.2020263671875 196.9322509765625 458.4332275390625 197.07736206054688 456.8128662109375 197.70755004882812 C 451.8233642578125 199.42791748046875 447.839599609375 203.25048828125 445.91485595703125 208.16482543945312 L 449.1251220703125 209.30767822265625" stroke-width="0.6000000238418579" fill="rgb(70, 150, 179)" opacity="1.0"/>
    <path d="M 426.0201416015625 135.9031982421875 C 427.2410888671875 129.88381958007812 428.3416748046875 123.1605224609375 425.040771484375 117.98562622070312 C 421.4915771484375 112.42874145507812 413.88037109375 110.74513244628906 407.4148864746094 112.0379638671875 C 404.9218444824219 112.53538513183594 402.4134521484375 113.45234680175781 400.63519287109375 115.2686767578125 C 399.17279052734375 116.76124572753906 398.319580078125 118.73388671875 397.6064758300781 120.697509765625 C 395.3502502441406 126.88711547851562 394.1991882324219 133.98150634765625 397.0331726074219 139.92724609375 C 399.8935852050781 145.91766357421875 406.86663818359375 149.67745971679688 413.44384765625 148.7364959716797 C 420.02099609375 147.79554748535156 425.70574951171875 142.29226684570312 426.80694580078125 135.73556518554688 L 426.0201416015625 135.9031982421875" stroke-width="0.6000000238418579" fill="rgb(140, 28, 33)" opacity="1.0"/>
    <path d="M 398.180419921875 65.35737609863281 C 399.7668151855469 71.15937805175781 401.4814758300781 77.17919921875 405.3524169921875 81.78875732421875 C 409.2232971191406 86.39822387695312 415.9530029296875 89.20843505859375 421.45184326171875 86.76280212402344 C 428.23291015625 83.72879028320312 429.74920654296875 73.88772583007812 425.84814453125 67.54972839355469 C 421.947021484375 61.21173095703125 414.4259033203125 57.992523193359375 407.0963134765625 56.756378173828125 C 404.86572265625 56.146392822265625 402.48760986328125 56.39472961425781 400.4312438964844 57.452423095703125 C 398.5296936035156 58.70133972167969 397.8856506347656 61.950592041015625 399.7950744628906 63.20805358886719 L 398.180419921875 65.35737609863281" stroke-width="0.6000000238418579" fill="rgb(159, 159, 159)" opacity="1.0"/>
    <path d="M 439.414306640625 235.49349975585938 C 435.19140625 240.67254638671875 432.6510009765625 247.4112548828125 433.3602294921875 254.05245971679688 C 434.0694580078125 260.69366455078125 438.343505859375 267.06329345703125 444.6146240234375 269.4424133300781 C 449.0504150390625 271.1188659667969 454.1046142578125 270.71478271484375 458.51953125 268.97247314453125 C 462.934326171875 267.2301940917969 466.765380859375 264.2434997558594 470.0863037109375 260.85150146484375 C 471.5306396484375 259.3745422363281 472.938720703125 257.7207336425781 473.3668212890625 255.70523071289062 C 473.858642578125 253.39471435546875 472.9755859375 251.03631591796875 472.0025634765625 248.8758544921875 C 469.25531005859375 242.7764892578125 465.46875 236.86581420898438 459.78656005859375 233.333984375 C 454.1043701171875 229.8021240234375 446.202880859375 229.228759765625 440.947021484375 233.34161376953125 L 439.414306640625 235.49349975585938" stroke-width="0.6000000238418579" fill="rgb(159, 159, 159)" opacity="1.0"/>
    <path d="M 412.4937744140625 259.8427429199219 C 410.58502197265625 253.60931396484375 408.1932678222656 246.76324462890625 402.4778137207031 243.654052734375 C 396.9237976074219 240.62255859375 390.0850830078125 242.11907958984375 383.9823303222656 243.80126953125 C 381.5041809082031 244.48828125 378.922607421875 245.24652099609375 377.0652160644531 247.02301025390625 C 373.9219970703125 250.02578735351562 373.760009765625 254.97744750976562 374.48297119140625 259.2574462890625 C 375.1524658203125 263.23028564453125 376.38897705078125 267.0863952636719 378.15460205078125 270.707763671875 C 381.0193786621094 276.5888671875 386.1357727050781 282.2356872558594 392.6736145019531 282.3789367675781 C 396.20306396484375 282.46142578125 399.6253662109375 280.87200927734375 402.3675231933594 278.6398010253906 C 405.1096496582031 276.4075927734375 407.2641296386719 273.54693603515625 409.35076904296875 270.6924743652344 C 411.43743896484375 267.8380432128906 413.4266357421875 264.98858642578125 414.14013671875 261.6115417480469 L 412.4937744140625 259.8427429199219" stroke-width="0.6000000238418579" fill="rgb(218, 166, 20)" opacity="1.0"/>
    <path d="M 415.3299560546875 89.19747924804688 C 410.4055480957031 97.86004638671875 413.4359130859375 108.87446594238281 422.0985107421875 113.79887390136719 C 422.8402099609375 114.22055053710938 423.61102294921875 114.58908081054688 424.4049072265625 114.90168762207031 C 427.42193603515625 116.08895874023438 430.91436767578125 116.42047119140625 433.8746337890625 115.10205078125 C 436.37646484375 113.98812866210938 438.2530517578125 111.83493041992188 439.8175048828125 109.58943176269531 C 443.996826171875 103.57302856445312 446.489013671875 96.54730224609375 447.03515625 89.24208068847656 C 447.17626953125 87.31085205078125 447.16912841796875 85.30952453613281 446.4384765625 83.51182556152344 C 445.2135009765625 80.49313354492188 442.1219482421875 78.57356262207031 438.95556640625 77.79766845703125 C 434.25543212890625 76.64244079589844 429.168212890625 77.61837768554688 424.94775390625 79.98989868164062 C 420.727294921875 82.36138916015625 417.33154296875 86.03924560546875 414.84375 90.19174194335938 L 415.3299560546875 89.19747924804688" stroke-width="0.6000000238418579" fill="rgb(143, 165, 67)" opacity="1.0"/>
    <path d="M 430.1734619140625 124.69473266601562 C 427.2586669921875 136.54013061523438 441.46337890625 148.33856201171875 452.8394775390625 144.1571044921875 C 464.215576171875 139.97561645507812 467.69793701171875 122.76058959960938 459.4239501953125 113.791748046875 C 451.14990234375 104.82292175292969 434.7581787109375 106.14035034179688 427.2913818359375 115.80584716796875 L 430.1734619140625 124.69473266601562" stroke-width="0.6000000238418579" fill="rgb(233, 92, 21)" opacity="1.0"/>
    <path d="M 450.3731689453125 92.53788757324219 C 449.6781005859375 98.46119689941406 449.462158203125 105.60882568359375 454.348876953125 109.06303405761719 C 456.3470458984375 110.36198425292969 458.6990966796875 111.00888061523438 461.08056640625 110.9144287109375 C 466.97906494140625 110.83929443359375 472.47528076171875 107.90982055664062 475.8262939453125 103.05497741699219 C 478.65826416015625 98.92947387695312 479.56646728515625 93.86495971679688 480.33050537109375 88.95060729980469 C 480.7552490234375 86.1893310546875 481.1185302734375 83.24203491210938 479.95294189453125 80.71990966796875 C 478.37176513671875 77.370849609375 474.53662109375 75.76425170898438 470.9453125 74.86398315429688 C 465.691162109375 73.53990173339844 460.2572021484375 73.07498168945312 454.85443115234375 73.48724365234375 C 452.98797607421875 73.63330078125 451.04443359375 73.91127014160156 449.50726318359375 74.97882080078125 C 448.1287841796875 76.04454040527344 447.090087890625 77.48835754394531 446.51800537109375 79.13418579101562 C 444.58837890625 84.05911254882812 444.916259765625 89.58261108398438 447.41510009765625 94.24462890625 L 450.3731689453125 92.53788757324219" stroke-width="0.6000000238418579" fill="rgb(70, 150, 179)" opacity="1.0"/>
    <path d="M 312.6380615234375 368.77032470703125 C 307.08544921875 366.4693908691406 300.83416748046875 364.1521301269531 295.2450866699219 366.3525390625 C 289.2425842285156 368.71990966796875 286.19891357421875 375.7147216796875 286.228759765625 382.1669921875 C 286.2392272949219 384.65472412109375 286.6497802734375 387.2358703613281 288.0610046386719 389.2843017578125 C 289.220458984375 390.9686584472656 290.9552307128906 392.15789794921875 292.70758056640625 393.21087646484375 C 298.2296447753906 396.5380859375 304.827880859375 398.9734191894531 311.0697937011719 397.3658752441406 C 317.3595886230469 395.7413635253906 322.2778015136719 389.7486572265625 322.6068420410156 383.25506591796875 C 322.9359130859375 376.761474609375 318.7156677246094 370.2698974609375 312.62451171875 367.9832458496094 L 312.6380615234375 368.77032470703125" stroke-width="0.6000000238418579" fill="rgb(140, 28, 33)" opacity="1.0"/>
    <path d="M 297.8436279296875 392.10137939453125 C 291.87554931640625 389.89129638671875 285.6410827636719 387.6573791503906 279.29119873046875 388.1470642089844 C 272.9414367675781 388.63677978515625 266.3780212402344 392.69403076171875 265.09381103515625 398.9307556152344 C 263.5257263183594 406.63287353515625 271.0564880371094 414.000244140625 278.91168212890625 414.54949951171875 C 286.76690673828125 415.0987548828125 294.16973876953125 410.6127014160156 299.7488098144531 405.06964111328125 C 301.64776611328125 403.5267639160156 302.8993225097656 401.3282165527344 303.2564697265625 398.90771484375 C 303.3537292480469 396.50262451171875 300.95562744140625 393.9467468261719 298.6976013183594 394.814453125 L 297.8436279296875 392.10137939453125" stroke-width="0.6000000238418579" fill="rgb(159, 159, 159)" opacity="1.0"/>
    <path d="M 323.0523681640625 412.1378173828125 C 317.31854248046875 416.0810546875 312.8108215332031 422.07470703125 311.5798645019531 428.920166015625 C 310.348876953125 435.765625 312.7604675292969 443.38092041015625 318.33380126953125 447.5908203125 C 322.27801513671875 450.562255859375 327.4480285644531 451.6346435546875 332.369873046875 451.1827392578125 C 337.2917175292969 450.73077392578125 341.99346923828125 448.864501953125 346.30377197265625 446.44403076171875 C 348.17889404296875 445.38958740234375 350.0694580078125 444.1478271484375 351.0860595703125 442.25830078125 C 352.2525939941406 440.0924072265625 352.0588073730469 437.47711181640625 351.7172546386719 435.0333251953125 C 350.7528991699219 428.13421630859375 348.6944580078125 421.1201171875 344.0464782714844 415.9300537109375 C 339.3984680175781 410.7399597167969 331.6678771972656 407.8587646484375 325.2130126953125 410.4345397949219 L 323.0523681640625 412.1378173828125" stroke-width="0.6000000238418579" fill="rgb(159, 159, 159)" opacity="1.0"/>
    <path d="M 255.84408569335938 417.7569580078125 C 249.48590087890625 416.7301025390625 242.3740234375 415.86419677734375 237.12493896484375 419.574462890625 C 232.01513671875 423.175537109375 230.35882568359375 429.8905029296875 229.18814086914062 436.033935546875 C 228.71624755859375 438.5303955078125 228.2623291015625 441.1495361328125 229.0269775390625 443.5709228515625 C 230.3177490234375 447.66693115234375 234.636474609375 449.9703369140625 238.74581909179688 451.1962890625 C 242.55953979492188 452.335693359375 246.51712036132812 452.9215087890625 250.49737548828125 452.9359130859375 C 256.9602355957031 452.961669921875 264.197509765625 450.8892822265625 267.1761169433594 445.15625 C 268.7887268066406 442.0635986328125 268.87249755859375 438.33660888671875 268.08984375 434.9322509765625 C 267.3071594238281 431.52783203125 265.7110595703125 428.3702392578125 264.09088134765625 425.2755126953125 C 262.4707336425781 422.18072509765625 260.8124694824219 419.174560546875 258.130126953125 417.069091796875 L 255.84408569335938 417.7569580078125" stroke-width="0.6000000238418579" fill="rgb(218, 166, 20)" opacity="1.0"/>
    <path d="M 221.4295654296875 410.9762268066406 C 212.2099609375 404.01373291015625 199.09173583984375 405.843505859375 192.1292724609375 415.0631103515625 C 191.53305053710938 415.85260009765625 190.99362182617188 416.683349609375 190.51498413085938 417.5491943359375 C 188.6968994140625 420.8394775390625 187.791259765625 424.8048095703125 188.8624267578125 428.40625 C 189.76736450195312 431.4498291015625 191.96099853515625 433.9306640625 194.30767822265625 436.0665283203125 C 200.596923828125 441.7750244140625 208.29998779296875 445.6954345703125 216.61663818359375 447.42047119140625 C 218.81573486328125 447.87274169921875 221.11773681640625 448.1650390625 223.29425048828125 447.594970703125 C 226.94873046875 446.64013671875 229.61993408203125 443.3740234375 230.987548828125 439.8502197265625 C 233.02154541015625 434.62005615234375 232.66357421875 428.624755859375 230.5709228515625 423.41644287109375 C 228.47833251953125 418.20806884765625 224.75994873046875 413.751708984375 220.3594970703125 410.2679443359375 L 221.4295654296875 410.9762268066406" stroke-width="0.6000000238418579" fill="rgb(143, 165, 67)" opacity="1.0"/>
    <path d="M 274.6225891113281 360.8321228027344 C 279.6382141113281 373.3553771972656 300.00762939453125 374.80206298828125 307.5352783203125 363.71209716796875 C 315.0628662109375 352.6220703125 307.0963439941406 334.90771484375 293.8802795410156 332.18109130859375 C 280.6642150878906 329.4544982910156 266.7833557128906 341.20361328125 266.3033752441406 354.7019958496094 L 274.6225891113281 360.8321228027344" stroke-width="0.6000000238418579" fill="rgb(233, 92, 21)" opacity="1.0"/>
    <path d="M 331.2311706542969 357.0003662109375 C 328.68994140625 362.978759765625 326.2743835449219 370.3836364746094 330.323974609375 375.49127197265625 C 332.0146179199219 377.461181640625 334.27490234375 378.85797119140625 336.79302978515625 379.48883056640625 C 342.98150634765625 381.2174072265625 349.6239013671875 379.8392333984375 354.6138916015625 375.7913818359375 C 358.83795166015625 372.3468322753906 361.3388671875 367.3314208984375 363.64306640625 362.4287414550781 C 364.9329833984375 359.6726379394531 366.2156677246094 356.70330810546875 365.7700500488281 353.7099609375 C 365.14337158203125 349.7249450683594 361.62689208984375 346.87066650390625 358.14892578125 344.82940673828125 C 353.0626220703125 341.835693359375 347.5252990722656 339.6849670410156 341.7517395019531 338.46063232421875 C 339.75604248046875 338.04144287109375 337.6394348144531 337.736572265625 335.70562744140625 338.3815002441406 C 333.9382629394531 339.0730895996094 332.4102783203125 340.2640380859375 331.30804443359375 341.80908203125 C 327.7822265625 346.36566162109375 326.4327392578125 352.23956298828125 327.6163635253906 357.8780822753906 L 331.2311706542969 357.0003662109375" stroke-width="0.6000000238418579" fill="rgb(70, 150, 179)" opacity="1.0"/>
    <path d="M 296.8688049316406 415.2713623046875 C 289.69439697265625 413.43231201171875 281.6649169921875 411.695068359375 275.2305603027344 415.35333251953125 C 268.3209533691406 419.28729248046875 265.8271789550781 428.35040283203125 266.9881286621094 436.216064453125 C 267.4344482421875 439.2489013671875 268.3851013183594 442.325927734375 270.4635925292969 444.57879638671875 C 272.1715393066406 446.431396484375 274.49493408203125 447.5797119140625 276.8160705566406 448.558837890625 C 284.1320495605469 451.6551513671875 292.6053771972656 453.4759521484375 299.939453125 450.4271240234375 C 307.3289794921875 447.3492431640625 312.2840270996094 439.181884765625 311.5537109375 431.2032470703125 C 310.8233947753906 423.2247314453125 304.5439453125 416.0413818359375 296.7151184082031 414.3135986328125 L 296.8688049316406 415.2713623046875" stroke-width="0.6000000238418579" fill="rgb(140, 28, 33)" opacity="1.0"/>
    <path d="M 327.55462646484375 392.07598876953125 C 321.21954345703125 391.8375244140625 314.6248779296875 391.6592102050781 308.76678466796875 394.0946350097656 C 302.9088134765625 396.530029296875 297.95654296875 402.4084777832031 298.67779541015625 408.7103271484375 C 299.5854797363281 416.4873046875 309.0012512207031 421.121826171875 316.60675048828125 419.20233154296875 C 324.2122802734375 417.2828369140625 329.825927734375 410.7378234863281 333.3851318359375 403.7587890625 C 334.703369140625 401.708740234375 335.2052001953125 399.2391357421875 334.79156494140625 396.8372497558594 C 334.13671875 394.5306091308594 331.0732116699219 392.856201171875 329.2054443359375 394.37872314453125 L 327.55462646484375 392.07598876953125" stroke-width="0.6000000238418579" fill="rgb(159, 159, 159)" opacity="1.0"/>
    <path d="M 359.4592590332031 411.2440490722656 C 354.61444091796875 416.0511474609375 351.31109619140625 422.6229248046875 351.3188171386719 429.4443359375 C 351.3265686035156 436.2657470703125 354.984130859375 443.19384765625 361.0981750488281 446.283203125 C 365.4236755371094 448.4619140625 370.6004943847656 448.59381103515625 375.271484375 447.2979736328125 C 379.9425048828125 446.0020751953125 384.1540832519531 443.379638671875 387.8910827636719 440.29083251953125 C 389.5165100097656 438.9456787109375 391.1241760253906 437.4171142578125 391.77520751953125 435.4158935546875 C 392.522705078125 433.1219482421875 391.87884521484375 430.6318359375 391.12237548828125 428.33306884765625 C 388.986572265625 421.84332275390625 385.7748718261719 415.43365478515625 380.38262939453125 411.2367248535156 C 374.9903564453125 407.039794921875 367.0264892578125 405.60955810546875 361.2469177246094 409.2228698730469 L 359.4592590332031 411.2440490722656" stroke-width="0.6000000238418579" fill="rgb(159, 159, 159)" opacity="1.0"/>
    <path d="M 250.74703979492188 366.2809143066406 C 251.4735107421875 359.65020751953125 251.99371337890625 352.2483825683594 247.87896728515625 347.01495361328125 C 243.884521484375 341.9197692871094 236.85159301757812 340.5610656738281 230.43536376953125 339.6744689941406 C 227.82830810546875 339.3181457519531 225.09527587890625 338.9869384765625 222.631103515625 339.9056091308594 C 218.46258544921875 341.4569396972656 216.30807495117188 346.0455627441406 215.25692749023438 350.3607177734375 C 214.27972412109375 354.36553955078125 213.8826904296875 358.48992919921875 214.077880859375 362.6076354980469 C 214.39242553710938 369.29376220703125 216.91802978515625 376.6701354980469 223.005126953125 379.4483947753906 C 226.28909301757812 380.9530944824219 230.14846801757812 380.8430480957031 233.62844848632812 379.8537902832031 C 237.10842895507812 378.8645324707031 240.2901611328125 377.04693603515625 243.40567016601562 375.207763671875 C 246.52117919921875 373.3686218261719 249.54306030273438 371.4947204589844 251.57916259765625 368.609130859375 L 250.74703979492188 366.2809143066406" stroke-width="0.6000000238418579" fill="rgb(218, 166, 20)" opacity="1.0"/>
    <path d="M 264.37847900390625 386.77227783203125 C 254.52362060546875 380.6004638671875 241.53143310546875 383.586181640625 235.359619140625 393.4410400390625 C 234.83111572265625 394.284912109375 234.3631591796875 395.1651916503906 233.959228515625 396.0753173828125 C 232.42507934570312 399.5337829589844 231.864990234375 403.5890808105469 233.25503540039062 407.1059875488281 C 234.429443359375 410.0781555175781 236.8465576171875 412.373046875 239.38677978515625 414.30859375 C 246.19354248046875 419.480224609375 254.26092529296875 422.7349853515625 262.7508544921875 423.73486328125 C 264.99542236328125 423.995361328125 267.3291015625 424.08642578125 269.4613342285156 423.3238525390625 C 273.0416564941406 422.0457763671875 275.4333190917969 418.5367431640625 276.49530029296875 414.88360595703125 C 278.0757141113281 409.4612121582031 277.1907043457031 403.4815368652344 274.6355285644531 398.4430847167969 C 272.08038330078125 393.4046630859375 267.9611511230469 389.2628479003906 263.2434387207031 386.1560363769531 L 264.37847900390625 386.77227783203125" stroke-width="0.6000000238418579" fill="rgb(143, 165, 67)" opacity="1.0"/>
    <path d="M 202.01278686523438 379.78277587890625 C 188.4083251953125 384.17047119140625 185.39187622070312 405.59722900390625 196.56546020507812 414.3643798828125 C 207.73907470703125 423.1314697265625 227.0465087890625 416.00335693359375 230.8936767578125 402.2317810058594 C 234.7408447265625 388.460205078125 223.33432006835938 372.92901611328125 209.10028076171875 371.4361267089844 L 202.01278686523438 379.78277587890625" stroke-width="0.6000000238418579" fill="rgb(233, 92, 21)" opacity="1.0"/>
    <path d="M 252.7706298828125 373.33221435546875 C 251.06671142578125 379.991943359375 249.72201538085938 388.12384033203125 254.77374267578125 392.8204345703125 C 256.8568420410156 394.61126708984375 259.4443359375 395.7115478515625 262.17926025390625 395.969482421875 C 268.92901611328125 396.7897644042969 275.6576232910156 394.2875671386719 280.23138427734375 389.2564392089844 C 284.10028076171875 384.97869873046875 285.915771484375 379.332763671875 287.5434875488281 373.8362121582031 C 288.45281982421875 370.7471008300781 289.3205871582031 367.43609619140625 288.37652587890625 364.3758850097656 C 287.0847473144531 360.30718994140625 282.9504699707031 357.88275146484375 278.98626708984375 356.30267333984375 C 273.1875 353.9829406738281 267.0515441894531 352.61712646484375 260.8163146972656 352.25811767578125 C 258.6617126464844 352.13824462890625 256.3988342285156 352.1572265625 254.47885131835938 353.1405944824219 C 252.74041748046875 354.1462707519531 251.33209228515625 355.63604736328125 250.42572021484375 357.42828369140625 C 247.46484375 362.7578430175781 246.99093627929688 369.11798095703125 249.12933349609375 374.8275146484375 L 252.7706298828125 373.33221435546875" stroke-width="0.6000000238418579" fill="rgb(70, 150, 179)" opacity="1.0"/>
    <path d="M 338.0819396972656 361.3807373046875 C 340.1763916015625 354.8827209472656 342.2251281738281 347.5922546386719 339.219970703125 341.46685791015625 C 335.9878234863281 334.8887634277344 327.78875732421875 332.0859680175781 320.4864807128906 332.71307373046875 C 317.6709289550781 332.9536437988281 314.78643798828125 333.6557922363281 312.5970458984375 335.4418640136719 C 310.79669189453125 336.9094543457031 309.60980224609375 338.9828186035156 308.57879638671875 341.0635681152344 C 305.31964111328125 347.621337890625 303.16912841796875 355.3155212402344 305.5630798339844 362.23455810546875 C 307.9805908203125 369.2062072753906 315.217529296875 374.223388671875 322.59954833984375 373.99884033203125 C 329.9815673828125 373.7742919921875 336.9430236816406 368.3994445800781 338.9718017578125 361.29302978515625 L 338.0819396972656 361.3807373046875" stroke-width="0.6000000238418579" fill="rgb(140, 28, 33)" opacity="1.0"/>
    <path d="M 356.3514099121094 399.58905029296875 C 350.0325622558594 399.3648986816406 343.4549865722656 399.2013244628906 337.61767578125 401.6429748535156 C 331.7804870605469 404.0845947265625 326.8540344238281 409.95819091796875 327.5870056152344 416.2418212890625 C 328.5091247558594 423.9962158203125 337.90997314453125 428.59814453125 345.4911804199219 426.667236328125 C 353.0724182128906 424.73638916015625 358.65704345703125 418.196533203125 362.1917419433594 411.2283020019531 C 363.5020446777344 409.18084716796875 363.9972229003906 406.7166748046875 363.5794677734375 404.3220520019531 C 362.92138671875 402.0229187011719 359.86236572265625 400.3595886230469 358.0028381347656 401.8821105957031 L 356.3514099121094 399.58905029296875" stroke-width="0.6000000238418579" fill="rgb(159, 159, 159)" opacity="1.0"/>
    <path d="M 179.8782958984375 412.11962890625 C 172.85321044921875 411.46990966796875 165.45245361328125 413.212890625 160.0511474609375 417.74591064453125 C 154.64981079101562 422.2789306640625 151.58602905273438 429.77545166015625 153.19496154785156 436.67144775390625 C 154.33865356445312 441.5455322265625 157.6695556640625 445.736083984375 161.79641723632812 448.5782470703125 C 165.92327880859375 451.42034912109375 170.796630859375 453.01806640625 175.7247314453125 453.9300537109375 C 177.8695068359375 454.32568359375 180.14794921875 454.58544921875 182.16604614257812 453.77337646484375 C 184.480224609375 452.843505859375 186.02655029296875 450.6806640625 187.346435546875 448.55560302734375 C 191.07269287109375 442.55609130859375 194.02142333984375 435.7569580078125 193.76934814453125 428.69805908203125 C 193.51730346679688 421.63916015625 189.3658447265625 414.3780517578125 182.66656494140625 412.1951904296875 L 179.8782958984375 412.11962890625" stroke-width="0.6000000238418579" fill="rgb(159, 159, 159)" opacity="1.0"/>
    <path d="M 360.0932922363281 370.24298095703125 C 353.125 370.4458923339844 345.3882141113281 370.97332763671875 340.5634460449219 375.9863586425781 C 335.864501953125 380.85491943359375 335.47088623046875 388.3305969238281 335.4771423339844 395.0999450683594 C 335.4837341308594 397.84991455078125 335.53448486328125 400.7266845703125 336.8403015136719 403.14508056640625 C 339.0464782714844 407.2366943359375 344.1065673828125 408.80609130859375 348.7247314453125 409.2727355957031 C 353.010986328125 409.70751953125 357.33746337890625 409.5245361328125 361.57171630859375 408.7294921875 C 368.4474792480469 407.4410400390625 375.71929931640625 403.764404296875 377.7185974121094 397.0633544921875 C 378.80322265625 393.4472961425781 378.13348388671875 389.4681701660156 376.60833740234375 386.0083923339844 C 375.0831604003906 382.548583984375 372.7434997558594 379.5168151855469 370.39105224609375 376.55670166015625 C 368.0386047363281 373.59661865234375 365.6636962890625 370.7384338378906 362.38348388671875 369.04632568359375 L 360.0932922363281 370.24298095703125" stroke-width="0.6000000238418579" fill="rgb(218, 166, 20)" opacity="1.0"/>
    <path d="M 378.06622314453125 380.0333557128906 C 372.4308776855469 389.60784912109375 375.6241760253906 401.9378662109375 385.19866943359375 407.5732116699219 C 386.0185241699219 408.0557861328125 386.8716125488281 408.47955322265625 387.75146484375 408.8414001464844 C 391.09490966796875 410.2156677246094 394.9827575683594 410.6439208984375 398.30511474609375 409.22381591796875 C 401.1128845214844 408.0240173339844 403.2410888671875 405.6551208496094 405.02288818359375 403.1780700683594 C 409.7831726074219 396.5410461425781 412.6795654296875 388.75048828125 413.4111328125 380.61566162109375 C 413.60089111328125 378.4650573730469 413.62652587890625 376.2337951660156 412.8421630859375 374.2174377441406 C 411.52728271484375 370.83154296875 408.1129455566406 368.6396484375 404.5960388183594 367.7214660644531 C 399.3756408691406 366.3546447753906 393.6878662109375 367.357177734375 388.9429626464844 369.93011474609375 C 384.1980895996094 372.50299072265625 380.35064697265625 376.5461120605469 377.50750732421875 381.1336364746094 L 378.06622314453125 380.0333557128906" stroke-width="0.6000000238418579" fill="rgb(143, 165, 67)" opacity="1.0"/>
    <path d="M 364.8391418457031 363.78466796875 C 370.7091369628906 376.53082275390625 391.9468078613281 376.9613037109375 399.18328857421875 365.04376220703125 C 406.41973876953125 353.1261901855469 397.21075439453125 335.14239501953125 383.3371887207031 333.005615234375 C 369.4636535644531 330.8688049316406 355.66162109375 343.8056335449219 355.8736877441406 357.85418701171875 L 364.8391418457031 363.78466796875" stroke-width="0.6000000238418579" fill="rgb(233, 92, 21)" opacity="1.0"/>
    <path d="M 402.73626708984375 353.6708679199219 C 403.40289306640625 360.3243713378906 404.88922119140625 368.2030334472656 411.0727233886719 370.8074951171875 C 413.5738525390625 371.7481994628906 416.30523681640625 371.8896484375 418.89013671875 371.2121887207031 C 425.330810546875 369.7081604003906 430.64306640625 365.1756591796875 433.1422119140625 359.05194091796875 C 435.248779296875 353.8519287109375 435.0225830078125 348.0874328613281 434.6746826171875 342.5220947265625 C 434.47412109375 339.3961486816406 434.16156005859375 336.0813293457031 432.27734375 333.6005554199219 C 429.73876953125 330.3144836425781 425.15203857421875 329.4796447753906 421.00262451171875 329.3594970703125 C 414.93017578125 329.17608642578125 408.8680114746094 329.97674560546875 403.0513916015625 331.7304382324219 C 401.04278564453125 332.3402404785156 398.981689453125 333.1130676269531 397.5557861328125 334.65252685546875 C 396.30322265625 336.1517639160156 395.513916015625 337.9830627441406 395.2841491699219 339.92315673828125 C 394.3582763671875 345.781005859375 396.0486755371094 351.75018310546875 399.9085998535156 356.2527160644531 L 402.73626708984375 353.6708679199219" stroke-width="0.6000000238418579" fill="rgb(70, 150, 179)" opacity="1.0"/>
    <path d="M 385.0246276855469 418.4244384765625 C 382.0367126464844 424.9765625 378.99993896484375 432.3646240234375 381.4003601074219 439.149169921875 C 383.9833068847656 446.43572998046875 392.2311706542969 450.37347412109375 399.95831298828125 450.6082763671875 C 402.93756103515625 450.7000732421875 406.0453796386719 450.316650390625 408.55731201171875 448.7127685546875 C 410.6227722167969 447.39508056640625 412.1195068359375 445.3677978515625 413.4537353515625 443.31365966796875 C 417.66925048828125 436.84112548828125 420.8619384765625 429.0426025390625 419.1988525390625 421.501220703125 C 417.517333984375 413.9017333984375 410.5479736328125 407.7615051269531 402.78643798828125 407.0952453613281 C 395.02490234375 406.428955078125 387.07501220703125 411.21002197265625 384.08160400390625 418.4075927734375 L 385.0246276855469 418.4244384765625" stroke-width="0.6000000238418579" fill="rgb(140, 28, 33)" opacity="1.0"/>
    <path d="M 408.97344970703125 383.26171875 C 407.19696044921875 389.332275390625 405.4153747558594 395.6686096191406 406.3420715332031 401.9301452636719 C 407.268798828125 408.1915588378906 411.74737548828125 414.4168701171875 418.01995849609375 415.25677490234375 C 425.76513671875 416.2762451171875 432.546142578125 408.2980041503906 432.544921875 400.47186279296875 C 432.543701171875 392.6457214355469 427.5816650390625 385.617919921875 421.6983642578125 380.47174072265625 C 420.0367431640625 378.6962585449219 417.77001953125 377.6081848144531 415.345458984375 377.4222717285156 C 412.95416259765625 377.4929504394531 410.5867919921875 380.0481262207031 411.6039733886719 382.2265319824219 L 408.97344970703125 383.26171875" stroke-width="0.6000000238418579" fill="rgb(159, 159, 159)" opacity="1.0"/>
    <path d="M 436.62255859375 369.89398193359375 C 438.18988037109375 376.8293762207031 442.16754150390625 383.37884521484375 448.19580078125 387.1423034667969 C 454.2239990234375 390.90576171875 462.36376953125 391.50506591796875 468.4713134765625 387.8132629394531 C 472.7861328125 385.1976623535156 475.763916015625 380.6989440917969 477.2012939453125 375.8577575683594 C 478.63861083984375 371.0165710449219 478.65057373046875 365.847900390625 477.98834228515625 360.8405456542969 C 477.6988525390625 358.66162109375 477.23748779296875 356.39703369140625 475.83013916015625 354.7160339355469 C 474.217529296875 352.78802490234375 471.66259765625 351.98028564453125 469.2144775390625 351.3777770996094 C 462.30291748046875 349.6768798828125 454.867431640625 348.9704284667969 448.1807861328125 351.41259765625 C 441.49407958984375 353.8547668457031 435.82928466796875 360.0971374511719 435.82574462890625 367.19818115234375 L 436.62255859375 369.89398193359375" stroke-width="0.6000000238418579" fill="rgb(159, 159, 159)" opacity="1.0"/>
    <path d="M 427.2877197265625 408.599853515625 C 422.140380859375 413.2244873046875 416.619140625 418.5880126953125 416.1815185546875 425.4803466796875 C 415.7464599609375 432.1826171875 420.244873046875 438.09698486328125 424.5928955078125 443.2198486328125 C 426.36236572265625 445.29833984375 428.24658203125 447.44451904296875 430.7872314453125 448.4383544921875 C 435.0833740234375 450.12164306640625 439.92266845703125 448.0635986328125 443.7197265625 445.4539794921875 C 447.24493408203125 443.0330810546875 450.404296875 440.11859130859375 453.10107421875 436.7996826171875 C 457.4818115234375 431.4122314453125 460.6302490234375 423.9619140625 457.844970703125 417.60400390625 C 456.3463134765625 414.16943359375 453.2860107421875 411.58544921875 449.9110107421875 409.9436950683594 C 446.5360107421875 408.3019714355469 442.81884765625 407.5069580078125 439.13787841796875 406.7744445800781 C 435.45703125 406.04193115234375 431.824462890625 405.4010314941406 428.25439453125 406.22412109375 L 427.2877197265625 408.599853515625" stroke-width="0.6000000238418579" fill="rgb(218, 166, 20)" opacity="1.0"/>
    <path d="M 136.9627685546875 218.802490234375 C 133.0264892578125 230.179443359375 139.05831909179688 242.59326171875 150.4352569580078 246.529541015625 C 151.40945434570312 246.86663818359375 152.40635681152344 247.1341552734375 153.41844177246094 247.33013916015625 C 157.26422119140625 248.07412719726562 161.48577880859375 247.69668579101562 164.71087646484375 245.47689819335938 C 167.4365234375 243.601318359375 169.19003295898438 240.62933349609375 170.55242919921875 237.61660766601562 C 174.1881103515625 229.54733276367188 175.59683227539062 220.65176391601562 174.63235473632812 211.85394287109375 C 174.37347412109375 209.52886962890625 173.92303466796875 207.15325927734375 172.65814208984375 205.1793212890625 C 170.53652954101562 201.86416625976562 166.4404296875 200.26681518554688 162.50799560546875 200.04443359375 C 156.6700439453125 199.710205078125 150.8428955078125 201.99285888671875 146.35350036621094 205.74176025390625 C 141.86410522460938 209.49066162109375 138.64280700683594 214.609130859375 136.60484313964844 220.09088134765625 L 136.9627685546875 218.802490234375" stroke-width="0.6000000238418579" fill="rgb(143, 165, 67)" opacity="1.0"/>
    <path d="M 172.7607421875 262.32275390625 C 180.1651611328125 274.29010009765625 201.35638427734375 272.1162414550781 207.0987548828125 259.3676452636719 C 212.841064453125 246.61904907226562 201.47149658203125 229.84768676757812 187.40093994140625 229.42083740234375 C 173.33038330078125 228.99398803710938 161.17800903320312 243.56158447265625 163.1104736328125 257.5185546875 L 172.7607421875 262.32275390625" stroke-width="0.6000000238418579" fill="rgb(233, 92, 21)" opacity="1.0"/>
    <path d="M 144.26043701171875 314.7223815917969 C 139.09690856933594 319.57220458984375 133.4319610595703 325.9010009765625 135.22894287109375 332.7782287597656 C 136.05056762695312 335.48724365234375 137.6925811767578 337.87457275390625 139.92849731445312 339.6108093261719 C 145.3451385498047 344.05560302734375 152.5801239013672 345.5992431640625 159.33917236328125 343.75225830078125 C 165.06869506835938 342.1708068847656 169.76873779296875 338.2643127441406 174.22296142578125 334.3839111328125 C 176.7215576171875 332.2001037597656 179.306640625 329.80029296875 180.1773681640625 326.61700439453125 C 181.30319213867188 322.36444091796875 179.0479736328125 317.9704284667969 176.473876953125 314.4047546386719 C 172.7132568359375 309.1816711425781 168.13198852539062 304.6017150878906 162.9078369140625 300.842529296875 C 161.10028076171875 299.5471496582031 159.121826171875 298.3127136230469 156.90841674804688 298.10650634765625 C 154.840576171875 298.02008056640625 152.79222106933594 298.53717041015625 151.01316833496094 299.5947570800781 C 145.49185180664062 302.5928955078125 141.56365966796875 307.8622131347656 140.26702880859375 314.0097961425781 L 144.26043701171875 314.7223815917969" stroke-width="0.6000000238418579" fill="rgb(70, 150, 179)" opacity="1.0"/>
    <path d="M 125.03230285644531 303.086669921875 C 125.07044982910156 294.97796630859375 124.77227783203125 285.98846435546875 119.17070007324219 280.13262939453125 C 113.14959716796875 273.8457336425781 102.86068725585938 273.6164245605469 94.81861877441406 276.9482421875 C 91.71737670898438 278.2315368652344 88.70379638671875 280.0621337890625 86.86637878417969 282.8703308105469 C 85.35504150390625 285.17828369140625 84.75576782226562 287.9517822265625 84.33560180664062 290.67767333984375 C 83.00028991699219 299.2722473144531 83.32818603515625 308.7552795410156 88.52272033691406 315.7291259765625 C 93.76287841796875 322.7540588378906 103.757568359375 325.8358459472656 112.03445434570312 322.9311218261719 C 120.31137084960938 320.0263977050781 126.262939453125 311.4418029785156 126.00827026367188 302.6678771972656 L 125.03230285644531 303.086669921875" stroke-width="0.6000000238418579" fill="rgb(140, 28, 33)" opacity="1.0"/>
    <path d="M 142.5950469970703 275.36712646484375 C 137.17906188964844 278.6456604003906 131.57955932617188 282.11688232421875 128.02926635742188 287.3642883300781 C 124.47906494140625 292.61163330078125 123.57441711425781 300.2341613769531 127.6353759765625 305.0956115722656 C 132.66160583496094 311.0853576660156 143.06077575683594 309.783203125 148.35205078125 304.0069885253906 C 153.64332580566406 298.23077392578125 154.73382568359375 289.6890869140625 153.8721466064453 281.9130554199219 C 153.84657287597656 279.47918701171875 152.90960693359375 277.1434326171875 151.24607849121094 275.36669921875 C 149.43359375 273.80181884765625 145.95872497558594 274.0865783691406 145.2362823486328 276.38201904296875 L 142.5950469970703 275.36712646484375" stroke-width="0.6000000238418579" fill="rgb(159, 159, 159)" opacity="1.0"/>
    <path d="M 163.13690185546875 283.760986328125 C 162.51553344726562 291.0832824707031 164.38937377929688 298.7779541015625 169.15341186523438 304.36810302734375 C 173.91741943359375 309.958251953125 181.74981689453125 313.09027099609375 188.9197998046875 311.360107421875 C 193.98751831054688 310.13043212890625 198.32601928710938 306.62799072265625 201.25375366210938 302.3071594238281 C 204.1815185546875 297.9862976074219 205.80718994140625 292.8977355957031 206.71826171875 287.75762939453125 C 207.11343383789062 285.5205383300781 207.36599731445312 283.1453552246094 206.50433349609375 281.0497131347656 C 205.51751708984375 278.64666748046875 203.25259399414062 277.0531005859375 201.02877807617188 275.6950988769531 C 194.75042724609375 271.8612365722656 187.64541625976562 268.8435363769531 180.2950439453125 269.1617126464844 C 172.94461059570312 269.47991943359375 165.41436767578125 273.8612365722656 163.19363403320312 280.856201171875 L 163.13690185546875 283.760986328125" stroke-width="0.6000000238418579" fill="rgb(159, 159, 159)" opacity="1.0"/>
    <path d="M 123.43362426757812 347.58544921875 C 122.361083984375 340.62060546875 120.86715698242188 332.92535400390625 115.23675537109375 328.71063232421875 C 109.76692199707031 324.6040954589844 102.21871948242188 325.1415100097656 95.42892456054688 325.99200439453125 C 92.67117309570312 326.341552734375 89.79171752929688 326.751220703125 87.528564453125 328.3627014160156 C 83.69927978515625 331.0860290527344 82.7559814453125 336.3576965332031 82.86380004882812 341.04852294921875 C 82.96218872070312 345.4024353027344 83.68525695800781 349.71966552734375 85.0108642578125 353.8680725097656 C 87.16081237792969 360.60467529296875 91.75582885742188 367.4407958984375 98.72718811035156 368.6106872558594 C 102.48985290527344 369.2477722167969 106.39791870117188 368.0797119140625 109.67835998535156 366.1183166503906 C 112.95878601074219 364.1568908691406 115.70829772949219 361.43182373046875 118.38430786132812 358.7028503417969 C 121.06031799316406 355.9739074707031 123.63131713867188 353.2350769042969 124.91964721679688 349.73358154296875 L 123.43362426757812 347.58544921875" stroke-width="0.6000000238418579" fill="rgb(218, 166, 20)" opacity="1.0"/>
    <path d="M 150.30873107910156 342.7623596191406 C 137.8086700439453 344.0157470703125 128.69142150878906 355.1651306152344 129.94482421875 367.66522216796875 C 130.05213928222656 368.735595703125 130.2352752685547 369.7969970703125 130.49281311035156 370.84149169921875 C 131.47213745117188 374.8100891113281 133.67825317382812 378.64349365234375 137.193115234375 380.7263488769531 C 140.16326904296875 382.4867858886719 143.7462158203125 382.8463134765625 147.19647216796875 382.81756591796875 C 156.43182373046875 382.7278137207031 165.4747314453125 380.1668701171875 173.38580322265625 375.4007873535156 C 175.47479248046875 374.137451171875 177.52777099609375 372.6705017089844 178.8436279296875 370.60797119140625 C 181.05474853515625 367.1466979980469 180.77410888671875 362.56732177734375 179.26275634765625 358.7451171875 C 177.02294921875 353.0689392089844 172.30911254882812 348.5489501953125 166.79220581054688 345.9381408691406 C 161.27532958984375 343.3273620605469 155.0164337158203 342.5174560546875 148.931640625 342.9875183105469 L 150.30873107910156 342.7623596191406" stroke-width="0.6000000238418579" fill="rgb(143, 165, 67)" opacity="1.0"/>
    <path d="M 139.2713623046875 377.906494140625 C 133.45071411132812 364.4061279296875 111.21861267089844 363.4099426269531 103.33349609375 375.7059326171875 C 95.44844055175781 388.001953125 104.63166809082031 407.0736389160156 119.10720825195312 409.6678466796875 C 133.5827178955078 412.26202392578125 148.37039184570312 399.0671081542969 148.509033203125 384.34796142578125 L 139.2713623046875 377.906494140625" stroke-width="0.6000000238418579" fill="rgb(233, 92, 21)" opacity="1.0"/>
    <path d="M 184.33505249023438 353.0528564453125 C 183.57037353515625 359.7074890136719 183.34716796875 367.73590087890625 188.84500122070312 371.602294921875 C 191.0927734375 373.0558166503906 193.73623657226562 373.7760009765625 196.41067504882812 373.6634826660156 C 203.035400390625 373.5631408691406 209.2005615234375 370.258056640625 212.9510498046875 364.7962951660156 C 216.12066650390625 360.15509033203125 217.12701416015625 354.4644470214844 217.97186279296875 348.9428405761719 C 218.44140625 345.8403625488281 218.84149169921875 342.5291442871094 217.52557373046875 339.6995544433594 C 215.74063110351562 335.9423522949219 211.4288330078125 334.14825439453125 207.39285278320312 333.1468505859375 C 201.488037109375 331.6739196777344 195.38372802734375 331.1664123535156 189.31668090820312 331.6440734863281 C 187.22076416015625 331.8131408691406 185.03863525390625 332.130615234375 183.3150634765625 333.3337707519531 C 181.76968383789062 334.5344543457031 180.60702514648438 336.15887451171875 179.96893310546875 338.0089416503906 C 177.81494140625 343.5455627441406 178.19815063476562 349.7484130859375 181.017333984375 354.977783203125 L 184.33505249023438 353.0528564453125" stroke-width="0.6000000238418579" fill="rgb(70, 150, 179)" opacity="1.0"/>
  </g>
</svg>
