<?xml version="1.0" ?>
<svg xmlns="http://www.w3.org/2000/svg" version="1.1" width="600" height="600">
  <defs/>
  <g>
    <path d="M 355.3914489746094 326.1949768066406 C 351.9580078125 325.5975036621094 348.87506103515625 329.8783264160156 350.29083251953125 333.03826904296875 C 351.70660400390625 336.1982116699219 356.6816101074219 336.8517150878906 359.07489013671875 334.31695556640625 C 361.4681701660156 331.78216552734375 360.7698974609375 327.13629150390625 357.86810302734375 325.1985168457031 L 355.3914489746094 326.1949768066406" stroke-width="0.6000000238418579" fill="rgb(233, 92, 21)" opacity="1.0"/>
    <path d="M 96.01103210449219 193.2530517578125 C 94.19427490234375 193.658203125 92.06611633300781 194.33062744140625 91.55160522460938 196.1260986328125 C 91.37466430664062 196.84857177734375 91.42626953125 197.60818481445312 91.6993408203125 198.30010986328125 C 92.32887268066406 200.03024291992188 93.75796508789062 201.34793090820312 95.53341674804688 201.8353271484375 C 97.04054260253906 202.244873046875 98.626220703125 201.990966796875 100.15281677246094 201.71002197265625 C 101.01010131835938 201.55078125 101.91587829589844 201.35433959960938 102.5389404296875 200.751220703125 C 103.36285400390625 199.94049072265625 103.4412841796875 198.64508056640625 103.33673095703125 197.4942626953125 C 103.185791015625 195.80987548828125 102.76321411132812 194.1610107421875 102.08538818359375 192.61163330078125 C 101.85015869140625 192.07675170898438 101.56813049316406 191.53277587890625 101.09530639648438 191.18978881835938 C 100.63935852050781 190.89337158203125 100.10700988769531 190.73602294921875 99.56318664550781 190.7369384765625 C 97.9134521484375 190.67556762695312 96.31982421875 191.3409423828125 95.20356750488281 192.5572509765625 L 96.01103210449219 193.2530517578125" stroke-width="0.6000000238418579" fill="rgb(70, 150, 179)" opacity="1.0"/>
    <path d="M 465.6793212890625 439.74407958984375 C 463.89276123046875 438.70318603515625 461.8687744140625 437.62451171875 459.86181640625 438.11639404296875 C 457.706298828125 438.6461181640625 456.3455810546875 440.8900146484375 456.05767822265625 443.0909423828125 C 455.9462890625 443.93951416015625 455.967041015625 444.83837890625 456.353515625 445.60186767578125 C 456.6708984375 446.2296142578125 457.2073974609375 446.71514892578125 457.756103515625 447.155029296875 C 459.48486328125 448.54437255859375 461.62164306640625 449.67938232421875 463.82373046875 449.419677734375 C 466.04296875 449.156494140625 467.996337890625 447.3408203125 468.40850830078125 445.142333984375 C 468.8206787109375 442.9439697265625 467.681884765625 440.5360107421875 465.7110595703125 439.47509765625 L 465.6793212890625 439.74407958984375" stroke-width="0.6000000238418579" fill="rgb(140, 28, 33)" opacity="1.0"/>
    <path d="M 96.0 196.0 C 95.63369750976562 196.275146484375 95.25555419921875 196.56549072265625 95.03779602050781 196.96893310546875 C 94.82003784179688 197.37240600585938 94.80990600585938 197.92779541015625 95.13739013671875 198.24850463867188 C 95.54252624511719 198.64352416992188 96.28190612792969 198.4747314453125 96.6212158203125 198.0206298828125 C 96.96051025390625 197.5665283203125 96.97738647460938 196.94363403320312 96.85922241210938 196.38995361328125 C 96.83981323242188 196.21490478515625 96.7554931640625 196.053466796875 96.62289428710938 195.93753051757812 C 96.48110961914062 195.83795166015625 96.23295593261719 195.883544921875 96.197509765625 196.05401611328125 L 96.0 196.0" stroke-width="0.6000000238418579" fill="rgb(159, 159, 159)" opacity="1.0"/>
    <path d="M 380.7138366699219 307.9859924316406 C 378.9117126464844 308.6021728515625 377.28143310546875 309.8492431640625 376.451904296875 311.56256103515625 C 375.62237548828125 313.2759094238281 375.6960754394531 315.46087646484375 376.8543395996094 316.9816589355469 C 377.6745910644531 318.0558166503906 378.95806884765625 318.7199401855469 380.28857421875 318.9639587402344 C 381.6191101074219 319.2080078125 382.9959716796875 319.06304931640625 384.3105773925781 318.7431640625 C 384.882568359375 318.6036376953125 385.4724426269531 318.4158630371094 385.87982177734375 317.99285888671875 C 386.3470764160156 317.50811767578125 386.48895263671875 316.8045349121094 386.5792541503906 316.1352844238281 C 386.8341369628906 314.2458190917969 386.8091735839844 312.2453308105469 385.9671325683594 310.5345153808594 C 385.12506103515625 308.8236999511719 383.30023193359375 307.4939270019531 381.4089660644531 307.6965026855469 L 380.7138366699219 307.9859924316406" stroke-width="0.6000000238418579" fill="rgb(159, 159, 159)" opacity="1.0"/>
    <path d="M 100.55557250976562 436.912841796875 C 98.6436767578125 437.552734375 96.5462646484375 438.346923828125 95.63069152832031 440.1387939453125 C 94.73785400390625 441.88006591796875 95.25515747070312 443.98236083984375 95.82400512695312 445.85565185546875 C 96.05619812011719 446.6163330078125 96.31124877929688 447.40838623046875 96.87530517578125 447.9683837890625 C 97.82876586914062 448.91619873046875 99.36091613769531 448.92669677734375 100.6783447265625 448.6689453125 C 101.9012451171875 448.4302978515625 103.08352661132812 448.01715087890625 104.18899536132812 447.4423828125 C 105.98431396484375 446.50970458984375 107.689208984375 444.8828125 107.68124389648438 442.8603515625 C 107.67855834960938 441.7685546875 107.15982055664062 440.72320556640625 106.44779968261719 439.893310546875 C 105.73577880859375 439.0633544921875 104.83415222167969 438.420166015625 103.93499755859375 437.7978515625 C 103.03584289550781 437.175537109375 102.13900756835938 436.58331298828125 101.08926391601562 436.3897705078125 L 100.55557250976562 436.912841796875" stroke-width="0.6000000238418579" fill="rgb(218, 166, 20)" opacity="1.0"/>
    <path d="M 96.15829467773438 144.32691955566406 C 93.13658142089844 143.25857543945312 89.82095336914062 144.84210205078125 88.75259399414062 147.86380004882812 C 88.66111755371094 148.12254333496094 88.58810424804688 148.38746643066406 88.53411865234375 148.6565399169922 C 88.32913208007812 149.67904663085938 88.42205810546875 150.80357360839844 89.0072021484375 151.66615295410156 C 89.50164794921875 152.3951416015625 90.28970336914062 152.86729431152344 91.08929443359375 153.2353973388672 C 93.23097229003906 154.2177734375 95.59661865234375 154.60877990722656 97.94052124023438 154.3677978515625 C 98.55996704101562 154.30307006835938 99.19320678710938 154.18740844726562 99.72097778320312 153.8542022705078 C 100.60736083984375 153.29534912109375 101.03994750976562 152.20773315429688 101.10621643066406 151.1612548828125 C 101.20567321777344 149.607666015625 100.60844421386719 148.05226135253906 99.61846923828125 146.85037231445312 C 98.62849426269531 145.64846801757812 97.27163696289062 144.78170776367188 95.81594848632812 144.2293243408203 L 96.15829467773438 144.32691955566406" stroke-width="0.6000000238418579" fill="rgb(143, 165, 67)" opacity="1.0"/>
    <path d="M 460.44049072265625 338.2554931640625 C 456.99298095703125 337.5128479003906 453.70306396484375 341.7169189453125 455.007080078125 344.9691162109375 C 456.3111572265625 348.2213134765625 461.31512451171875 349.082763671875 463.8372802734375 346.6163635253906 C 466.359375 344.1499328613281 465.8408203125 339.42425537109375 462.98486328125 337.3478698730469 L 460.44049072265625 338.2554931640625" stroke-width="0.6000000238418579" fill="rgb(233, 92, 21)" opacity="1.0"/>
    <path d="M 106.2041015625 210.51055908203125 C 104.37283325195312 210.803466796875 102.21572875976562 211.34326171875 101.5953369140625 213.09765625 C 101.3756103515625 213.805419921875 101.38093566894531 214.56396484375 101.61058044433594 215.26858520507812 C 102.13186645507812 217.02728271484375 103.47325134277344 218.42425537109375 105.20936584472656 219.01644897460938 C 106.68336486816406 219.5150146484375 108.27566528320312 219.3585205078125 109.81082153320312 219.17156982421875 C 110.67303466796875 219.065185546875 111.585693359375 218.9246826171875 112.24185180664062 218.36260986328125 C 113.11029052734375 217.60626220703125 113.26675415039062 216.32275390625 113.23245239257812 215.1719970703125 C 113.18435668945312 213.48773193359375 112.86398315429688 211.82241821289062 112.28372192382812 210.24053955078125 C 112.08218383789062 209.69439697265625 111.83465576171875 209.13632202148438 111.38522338867188 208.7666015625 C 110.94975280761719 208.4442138671875 110.42987060546875 208.25552368164062 109.88900756835938 208.2235107421875 C 108.25210571289062 208.06253051757812 106.62698364257812 208.62774658203125 105.4432373046875 209.76971435546875 L 106.2041015625 210.51055908203125" stroke-width="0.6000000238418579" fill="rgb(70, 150, 179)" opacity="1.0"/>
    <path d="M 101.40606689453125 81.91693115234375 C 99.50425720214844 81.02227783203125 97.35867309570312 80.11044311523438 95.37039184570312 80.7874755859375 C 93.23495483398438 81.51605224609375 92.05722045898438 83.90945434570312 91.96194458007812 86.1636962890625 C 91.92485046386719 87.03282165527344 92.02597045898438 87.94113159179688 92.4853515625 88.67974853515625 C 92.86274719238281 89.28709411621094 93.44921875 89.73089599609375 94.04403686523438 90.12741088867188 C 95.91836547851562 91.38005065917969 98.18319702148438 92.33880615234375 100.38983154296875 91.87954711914062 C 102.61343383789062 91.4151611328125 104.42951965332031 89.40249633789062 104.65083312988281 87.13970947265625 C 104.87214660644531 84.87692260742188 103.50439453125 82.540283203125 101.41423034667969 81.64178466796875 L 101.40606689453125 81.91693115234375" stroke-width="0.6000000238418579" fill="rgb(140, 28, 33)" opacity="1.0"/>
    <path d="M 102.06687927246094 434.9871826171875 C 101.65155029296875 435.1904296875 101.22160339355469 435.40643310546875 100.92916870117188 435.7650146484375 C 100.63673400878906 436.1236572265625 100.52127075195312 436.6722412109375 100.7850341796875 437.05230712890625 C 101.11163330078125 437.520751953125 101.87660217285156 437.4937744140625 102.29913330078125 437.1080322265625 C 102.72164916992188 436.7222900390625 102.85662841796875 436.10809326171875 102.84457397460938 435.53680419921875 C 102.85858154296875 435.359619140625 102.80563354492188 435.18359375 102.69619750976562 435.04345703125 C 102.57453918457031 434.9178466796875 102.31991577148438 434.91595458984375 102.25241088867188 435.0782470703125 L 102.06687927246094 434.9871826171875" stroke-width="0.6000000238418579" fill="rgb(159, 159, 159)" opacity="1.0"/>
    <path d="M 461.29791259765625 65.74632263183594 C 459.5638427734375 66.65235900878906 458.1024169921875 68.17227172851562 457.526611328125 70.04107666015625 C 456.9508056640625 71.90988159179688 457.36553955078125 74.11709594726562 458.7781982421875 75.48115539550781 C 459.77825927734375 76.44427490234375 461.184814453125 76.91899108886719 462.5738525390625 76.95982360839844 C 463.96282958984375 77.00067138671875 465.33837890625 76.6392822265625 466.62353515625 76.10995483398438 C 467.1826171875 75.87928771972656 467.75244140625 75.59686279296875 468.10028076171875 75.10395812988281 C 468.49932861328125 74.5390625 468.533935546875 73.80255126953125 468.52154541015625 73.10891723632812 C 468.4864501953125 71.15065002441406 468.14990234375 69.1231689453125 467.0286865234375 67.51695251464844 C 465.90753173828125 65.91073608398438 463.84765625 64.84432983398438 461.958740234375 65.34423828125 L 461.29791259765625 65.74632263183594" stroke-width="0.6000000238418579" fill="rgb(159, 159, 159)" opacity="1.0"/>
    <path d="M 97.68301391601562 98.15823364257812 C 95.64320373535156 98.20294189453125 93.37777709960938 98.34101867675781 91.95518493652344 99.79800415039062 C 90.5697021484375 101.21298217773438 90.43876647949219 103.40003967285156 90.42634582519531 105.3812255859375 C 90.4224853515625 106.18606567382812 90.4312744140625 107.02810668945312 90.80836486816406 107.73863220214844 C 91.44541931152344 108.94076538085938 92.92303466796875 109.41072082519531 94.27363586425781 109.5570068359375 C 95.52716064453125 109.69329833984375 96.79376220703125 109.64884948730469 98.03466796875 109.42507934570312 C 100.0496826171875 109.06246948242188 102.1856689453125 108.00173950195312 102.78488159179688 106.04478454589844 C 103.10993957519531 104.98876953125 102.92230224609375 103.82279968261719 102.48323059082031 102.80702209472656 C 102.04415893554688 101.79124450683594 101.36578369140625 100.89901733398438 100.68353271484375 100.02774047851562 C 100.00129699707031 99.15646362304688 99.312255859375 98.31497192382812 98.35580444335938 97.81283569335938 L 97.68301391601562 98.15823364257812" stroke-width="0.6000000238418579" fill="rgb(218, 166, 20)" opacity="1.0"/>
    <path d="M 110.75267028808594 134.30250549316406 C 107.52627563476562 134.3961639404297 104.9866943359375 137.08758544921875 105.08035278320312 140.31398010253906 C 105.08837890625 140.5902557373047 105.11599731445312 140.86561584472656 105.1629638671875 141.1379852294922 C 105.34170532226562 142.1728973388672 105.83731079101562 143.19549560546875 106.7001953125 143.7932891845703 C 107.42935180664062 144.2985382080078 108.341064453125 144.45591735839844 109.225830078125 144.5113525390625 C 111.59432983398438 144.656494140625 113.95851135253906 144.164794921875 116.07275390625 143.08734130859375 C 116.63113403320312 142.80160522460938 117.18399047851562 142.4630126953125 117.55877685546875 141.9583740234375 C 118.18844604492188 141.111572265625 118.19989013671875 139.93283081054688 117.88215637207031 138.92575073242188 C 117.41146850585938 137.43026733398438 116.28567504882812 136.18603515625 114.9193115234375 135.41650390625 C 113.55294799804688 134.64695739746094 111.96363830566406 134.325439453125 110.39564514160156 134.3351287841797 L 110.75267028808594 134.30250549316406" stroke-width="0.6000000238418579" fill="rgb(143, 165, 67)" opacity="1.0"/>
    <path d="M 391.53826904296875 293.8424377441406 C 388.1467590332031 292.92401123046875 384.6544189453125 296.93560791015625 385.7825622558594 300.2393798828125 C 386.9106750488281 303.5431213378906 391.8446350097656 304.6608581542969 394.4825439453125 302.33819580078125 C 397.1204528808594 300.0155029296875 396.8505554199219 295.28656005859375 394.1171569824219 293.0718688964844 L 391.53826904296875 293.8424377441406" stroke-width="0.6000000238418579" fill="rgb(233, 92, 21)" opacity="1.0"/>
    <path d="M 114.98013305664062 103.61270141601562 C 113.17420959472656 104.0263671875 111.05990600585938 104.70779418945312 110.55807495117188 106.497802734375 C 110.3861083984375 107.21792602539062 110.44181823730469 107.97366333007812 110.71755981445312 108.6607666015625 C 111.35404968261719 110.37918090820312 112.78398132324219 111.68252563476562 114.55389404296875 112.15744018554688 C 116.05628967285156 112.55645751953125 117.63308715820312 112.29464721679688 119.15090942382812 112.00627136230469 C 120.00326538085938 111.8428955078125 120.90365600585938 111.64218139648438 121.52035522460938 111.03829956054688 C 122.33575439453125 110.22665405273438 122.40640258789062 108.9368896484375 122.29574584960938 107.79208374023438 C 122.1358642578125 106.116455078125 121.70584106445312 104.47775268554688 121.02232360839844 102.93951416015625 C 120.78512573242188 102.40849304199219 120.50131225585938 101.86866760253906 120.02874755859375 101.53001403808594 C 119.5732421875 101.23760986328125 119.04248046875 101.08404541015625 118.501220703125 101.08807373046875 C 116.85885620117188 101.03642272949219 115.27651977539062 101.70782470703125 114.17247009277344 102.9248046875 L 114.98013305664062 103.61270141601562" stroke-width="0.6000000238418579" fill="rgb(70, 150, 179)" opacity="1.0"/>
    <path d="M 436.95941162109375 78.92538452148438 C 435.13037109375 77.90768432617188 433.06036376953125 76.85641479492188 431.03900146484375 77.39445495605469 C 428.867919921875 77.97372436523438 427.53570556640625 80.27198791503906 427.28839111328125 82.50529479980469 C 427.192626953125 83.3663330078125 427.23162841796875 84.275634765625 427.6380615234375 85.04061889648438 C 427.971923828125 85.66961669921875 428.5245361328125 86.15029907226562 429.08868408203125 86.58453369140625 C 430.8660888671875 87.9560546875 433.051513671875 89.06201171875 435.2750244140625 88.75515747070312 C 437.5157470703125 88.4443359375 439.45654296875 86.56759643554688 439.82958984375 84.33433532714844 C 440.2027587890625 82.10107421875 439.0020751953125 79.68684387207031 436.98614501953125 78.65255737304688 L 436.95941162109375 78.92538452148438" stroke-width="0.6000000238418579" fill="rgb(140, 28, 33)" opacity="1.0"/>
    <path d="M 120.0 419.0 C 119.63369750976562 419.275146484375 119.25555419921875 419.56549072265625 119.03779602050781 419.968994140625 C 118.82003784179688 420.3724365234375 118.80990600585938 420.927734375 119.13739013671875 421.24853515625 C 119.54252624511719 421.6435546875 120.28190612792969 421.4747314453125 120.6212158203125 421.0206298828125 C 120.96051025390625 420.5665283203125 120.97738647460938 419.943603515625 120.85922241210938 419.38995361328125 C 120.83981323242188 419.21484375 120.7554931640625 419.053466796875 120.62289428710938 418.9375 C 120.48110961914062 418.83795166015625 120.23295593261719 418.883544921875 120.197509765625 419.05401611328125 L 120.0 419.0" stroke-width="0.6000000238418579" fill="rgb(159, 159, 159)" opacity="1.0"/>
    <path d="M 443.140869140625 419.2320556640625 C 441.4605712890625 420.1973876953125 440.074462890625 421.7593994140625 439.57861328125 423.6317138671875 C 439.082763671875 425.5040283203125 439.5806884765625 427.6719970703125 441.03271484375 428.96600341796875 C 442.060546875 429.87957763671875 443.471435546875 430.293701171875 444.84765625 430.279052734375 C 446.22393798828125 430.26446533203125 447.57098388671875 429.85235595703125 448.82183837890625 429.277587890625 C 449.3660888671875 429.0272216796875 449.91876220703125 428.72509765625 450.24346923828125 428.2235107421875 C 450.61602783203125 427.648681640625 450.62115478515625 426.91839599609375 450.5814208984375 426.232421875 C 450.4691162109375 424.2957763671875 450.05572509765625 422.3026123046875 448.882568359375 420.75738525390625 C 447.7093505859375 419.212158203125 445.6285400390625 418.2384033203125 443.7789306640625 418.80792236328125 L 443.140869140625 419.2320556640625" stroke-width="0.6000000238418579" fill="rgb(159, 159, 159)" opacity="1.0"/>
    <path d="M 441.82861328125 279.67626953125 C 439.90777587890625 280.3702392578125 437.802734375 281.2248229980469 436.9185791015625 283.0614318847656 C 436.05615234375 284.8463134765625 436.6304931640625 286.9629211425781 437.2515869140625 288.8463439941406 C 437.5050048828125 289.6111145019531 437.78228759765625 290.4071044921875 438.366943359375 290.9607238769531 C 439.3553466796875 291.89764404296875 440.9072265625 291.87152099609375 442.23516845703125 291.5788879394531 C 443.4678955078125 291.3077697753906 444.6552734375 290.8610534667969 445.760986328125 290.25238037109375 C 447.5567626953125 289.2647705078125 449.2442626953125 287.57623291015625 449.1876220703125 285.5283203125 C 449.15869140625 284.4226989746094 448.6082763671875 283.37652587890625 447.8673095703125 282.5531311035156 C 447.12628173828125 281.7297668457031 446.19775390625 281.1000061035156 445.272216796875 280.49139404296875 C 444.3466796875 279.88275146484375 443.4241943359375 279.3045349121094 442.35650634765625 279.1336975097656 L 441.82861328125 279.67626953125" stroke-width="0.6000000238418579" fill="rgb(218, 166, 20)" opacity="1.0"/>
    <path d="M 432.08837890625 373.4068603515625 C 429.2572021484375 371.91552734375 425.7530517578125 373.0016784667969 424.26171875 375.8329162597656 C 424.134033203125 376.0753479003906 424.023681640625 376.3265380859375 423.9315185546875 376.5845947265625 C 423.58154296875 377.5652160644531 423.5111083984375 378.6896057128906 423.96478271484375 379.626220703125 C 424.34814453125 380.417724609375 425.05859375 380.9978942871094 425.79541015625 381.4768981933594 C 427.7696533203125 382.7563781738281 430.0504150390625 383.48388671875 432.40081787109375 383.58392333984375 C 433.02215576171875 383.60931396484375 433.6644287109375 383.5863952636719 434.23394775390625 383.3333435058594 C 435.19024658203125 382.9090576171875 435.7745361328125 381.8969421386719 435.990966796875 380.87261962890625 C 436.31329345703125 379.3520812988281 435.9476318359375 377.7292785644531 435.1429443359375 376.3990478515625 C 434.3382568359375 375.0688171386719 433.12274169921875 374.0167541503906 431.7642822265625 373.26104736328125 L 432.08837890625 373.4068603515625" stroke-width="0.6000000238418579" fill="rgb(143, 165, 67)" opacity="1.0"/>
    <path d="M 442.88385009765625 363.1003723144531 C 439.761474609375 364.7317199707031 439.9193115234375 370.0620422363281 442.998046875 371.727294921875 C 446.07672119140625 373.39251708984375 450.4705810546875 370.8584289550781 450.8326416015625 367.3531494140625 C 451.19476318359375 363.8478698730469 447.7783203125 360.5491943359375 444.258544921875 360.7782287597656 L 442.88385009765625 363.1003723144531" stroke-width="0.6000000238418579" fill="rgb(233, 92, 21)" opacity="1.0"/>
    <path d="M 443.6962890625 91.49578857421875 C 441.906982421875 91.90852355957031 439.8123779296875 92.58711242675781 439.317626953125 94.362060546875 C 439.1483154296875 95.07608032226562 439.20465087890625 95.82505798339844 439.47900390625 96.50567626953125 C 440.1124267578125 98.20797729492188 441.53173828125 99.49765014648438 443.28668212890625 99.9656982421875 C 444.77642822265625 100.35894775390625 446.3388671875 100.09706115722656 447.8428955078125 99.8089599609375 C 448.6875 99.645751953125 449.57958984375 99.4454345703125 450.18994140625 98.84597778320312 C 450.9969482421875 98.040283203125 451.06500244140625 96.76179504394531 450.95361328125 95.62725830078125 C 450.7926025390625 93.9666748046875 450.3638916015625 92.34307861328125 449.68414306640625 90.8194580078125 C 449.4482421875 90.29348754882812 449.1661376953125 89.75885009765625 448.69720458984375 89.42388916015625 C 448.24530029296875 89.134765625 447.718994140625 88.98336791992188 447.1824951171875 88.9881591796875 C 445.5545654296875 88.93943786621094 443.9871826171875 89.60728454589844 442.894775390625 90.815185546875 L 443.6962890625 91.49578857421875" stroke-width="0.6000000238418579" fill="rgb(70, 150, 179)" opacity="1.0"/>
    <path d="M 439.1414794921875 402.8479919433594 C 437.16680908203125 403.45147705078125 435.00341796875 404.2033386230469 434.002685546875 406.0079650878906 C 432.928955078125 407.94720458984375 433.6507568359375 410.46649169921875 435.068603515625 412.1702880859375 C 435.61505126953125 412.82745361328125 436.2879638671875 413.421875 437.109619140625 413.656494140625 C 437.78509521484375 413.849609375 438.50482177734375 413.7857666015625 439.19940185546875 413.681884765625 C 441.3902587890625 413.357177734375 443.6715087890625 412.560791015625 444.9747314453125 410.7706298828125 C 446.2869873046875 408.96551513671875 446.2811279296875 406.3022155761719 444.94927978515625 404.509033203125 C 443.617431640625 402.7158508300781 441.0802001953125 401.9173583984375 438.96588134765625 402.6423034667969 L 439.1414794921875 402.8479919433594" stroke-width="0.6000000238418579" fill="rgb(140, 28, 33)" opacity="1.0"/>
    <path d="M 118.21755981445312 222.76763916015625 C 117.224853515625 223.02099609375 116.19467163085938 223.2955322265625 115.39840698242188 223.94140625 C 114.6021728515625 224.58724975585938 114.10404968261719 225.72518920898438 114.50459289550781 226.66876220703125 C 115.00161743164062 227.83242797851562 116.6732177734375 228.11920166015625 117.763916015625 227.47320556640625 C 118.85464477539062 226.82723999023438 119.42471313476562 225.55569458007812 119.656494140625 224.31103515625 C 119.766845703125 223.93292236328125 119.7314453125 223.52716064453125 119.55728149414062 223.17388916015625 C 119.35011291503906 222.846435546875 118.79861450195312 222.72732543945312 118.57891845703125 223.04885864257812 L 118.21755981445312 222.76763916015625" stroke-width="0.6000000238418579" fill="rgb(159, 159, 159)" opacity="1.0"/>
    <path d="M 119.36131286621094 226.09979248046875 C 115.20748901367188 225.080322265625 110.6138916015625 225.46185302734375 106.96896362304688 227.6954345703125 C 103.32402038574219 229.92901611328125 100.81489562988281 234.1490478515625 101.1612548828125 238.427978515625 C 101.40997314453125 241.45291137695312 103.0313720703125 244.26409912109375 105.25091552734375 246.33819580078125 C 107.470458984375 248.41229248046875 110.2491455078125 249.80718994140625 113.12211608886719 250.79586791992188 C 114.37261962890625 251.22537231445312 115.71540832519531 251.58538818359375 116.99822998046875 251.27947998046875 C 118.46913146972656 250.929443359375 119.5902099609375 249.77130126953125 120.57211303710938 248.61550903320312 C 123.34420776367188 245.35244750976562 125.72181701660156 241.54025268554688 126.20361328125 237.2852783203125 C 126.68539428710938 233.03033447265625 124.84732055664062 228.30453491210938 121.02630615234375 226.39508056640625 L 119.36131286621094 226.09979248046875" stroke-width="0.6000000238418579" fill="rgb(159, 159, 159)" opacity="1.0"/>
    <path d="M 290.25091552734375 107.53533935546875 C 286.1065673828125 109.16062927246094 281.5703430175781 111.146728515625 279.7520446777344 115.2005615234375 C 277.9781799316406 119.14044189453125 279.3543701171875 123.71844482421875 280.81854248046875 127.78564453125 C 281.415771484375 129.43701171875 282.0669250488281 131.1550750732422 283.37347412109375 132.32688903808594 C 285.5821533203125 134.31008911132812 288.96197509765625 134.1616973876953 291.8382873535156 133.4458465576172 C 294.50823974609375 132.78245544433594 297.069091796875 131.73910522460938 299.4424743652344 130.3477783203125 C 303.2969970703125 128.09002685546875 306.8743591308594 124.31146240234375 306.63031005859375 119.8526611328125 C 306.5021057128906 117.4453125 305.2411193847656 115.1982421875 303.57806396484375 113.44784545898438 C 301.91497802734375 111.69746398925781 299.8547058105469 110.38003540039062 297.80224609375 109.10845947265625 C 295.749755859375 107.83686828613281 293.70574951171875 106.63137817382812 291.36920166015625 106.32205200195312 L 290.25091552734375 107.53533935546875" stroke-width="0.6000000238418579" fill="rgb(218, 166, 20)" opacity="1.0"/>
    <path d="M 230.67855834960938 118.10458374023438 C 223.70147705078125 118.4520263671875 218.3271484375 124.38973999023438 218.67459106445312 131.36679077148438 C 218.704345703125 131.96424865722656 218.77642822265625 132.55882263183594 218.89031982421875 133.1460723876953 C 219.32354736328125 135.37741088867188 220.44183349609375 137.56787109375 222.33575439453125 138.82266235351562 C 223.9361572265625 139.88319396972656 225.91598510742188 140.1827850341797 227.83294677734375 140.26304626464844 C 232.96444702148438 140.4707794189453 238.0579833984375 139.3007354736328 242.58444213867188 136.8744659423828 C 243.77984619140625 136.2311248779297 244.96087646484375 135.4736785888672 245.74920654296875 134.36492919921875 C 247.07373046875 132.50433349609375 247.04559326171875 129.95327758789062 246.3128662109375 127.78839111328125 C 245.22723388671875 124.57357788085938 242.73541259765625 121.93185424804688 239.74432373046875 120.32804870605469 C 236.75326538085938 118.72422790527344 233.29986572265625 118.09988403320312 229.907470703125 118.19122314453125 L 230.67855834960938 118.10458374023438" stroke-width="0.6000000238418579" fill="rgb(143, 165, 67)" opacity="1.0"/>
    <path d="M 229.87890625 105.75303649902344 C 223.2120361328125 109.45208740234375 223.84304809570312 120.97601318359375 230.59439086914062 124.41171264648438 C 237.34576416015625 127.84738159179688 246.7144775390625 122.12615966796875 247.3076171875 114.52259826660156 C 247.90072631835938 106.91903686523438 240.3299560546875 99.9676513671875 232.7271728515625 100.65426635742188 L 229.87890625 105.75303649902344" stroke-width="0.6000000238418579" fill="rgb(233, 92, 21)" opacity="1.0"/>
    <path d="M 209.0416259765625 106.74714660644531 C 205.66323852539062 104.55441284179688 201.4002685546875 102.2855224609375 197.84710693359375 104.21090698242188 C 196.46292114257812 105.03216552734375 195.36767578125 106.2626953125 194.71246337890625 107.73280334472656 C 192.99346923828125 111.32656860351562 193.12298583984375 115.53060913085938 195.05996704101562 119.01174926757812 C 196.71060180664062 121.96049499511719 199.5052490234375 124.02536010742188 202.25213623046875 125.95803833007812 C 203.796875 127.04118347167969 205.47265625 128.14279174804688 207.34835815429688 128.19155883789062 C 209.84906005859375 128.23606872558594 211.96902465820312 126.3946533203125 213.58837890625 124.48959350585938 C 215.9617919921875 121.70449829101562 217.8687744140625 118.55361938476562 219.2353515625 115.15914916992188 C 219.70526123046875 113.98539733886719 220.11834716796875 112.72552490234375 219.93182373046875 111.47549438476562 C 219.698974609375 110.32208251953125 219.135498046875 109.26132202148438 218.3101806640625 108.422607421875 C 215.90557861328125 105.78103637695312 212.4632568359375 104.32728576660156 208.89312744140625 104.44561767578125 L 209.0416259765625 106.74714660644531" stroke-width="0.6000000238418579" fill="rgb(70, 150, 179)" opacity="1.0"/>
    <path d="M 256.7944641113281 118.21517944335938 C 252.419677734375 119.56802368164062 247.62738037109375 121.25123596191406 245.4215087890625 125.2607421875 C 243.054443359375 129.56924438476562 244.673583984375 135.15089416503906 247.83062744140625 138.91897583007812 C 249.0472412109375 140.372314453125 250.5438232421875 141.68572998046875 252.36785888671875 142.199951171875 C 253.86715698242188 142.62322998046875 255.46279907226562 142.476318359375 257.00244140625 142.240966796875 C 261.8586730957031 141.504638671875 266.9118347167969 139.72181701660156 269.7889404296875 135.74224853515625 C 272.68585205078125 131.72943115234375 272.6532287597656 125.82315063476562 269.6865234375 121.85621643066406 C 266.7198181152344 117.8892822265625 261.0870666503906 116.13706970214844 256.403564453125 117.76033020019531 L 256.7944641113281 118.21517944335938" stroke-width="0.6000000238418579" fill="rgb(140, 28, 33)" opacity="1.0"/>
    <path d="M 318.5657653808594 109.89643859863281 C 317.717041015625 110.49609375 316.84051513671875 111.12940979003906 316.3200988769531 112.02976989746094 C 315.7997131347656 112.93011474609375 315.74005126953125 114.18865966796875 316.46136474609375 114.9375 C 317.35382080078125 115.85989379882812 319.0413818359375 115.5260009765625 319.8406982421875 114.51885986328125 C 320.6400146484375 113.51171875 320.7194519042969 112.10052490234375 320.4881286621094 110.83734130859375 C 320.4557189941406 110.43914794921875 320.2751770019531 110.06759643554688 319.9822082519531 109.79598999023438 C 319.66729736328125 109.560791015625 319.1016540527344 109.64773559570312 319.0099792480469 110.03195190429688 L 318.5657653808594 109.89643859863281" stroke-width="0.6000000238418579" fill="rgb(159, 159, 159)" opacity="1.0"/>
    <path d="M 207.79931640625 119.17507934570312 C 203.66741943359375 118.09382629394531 199.07510375976562 118.4046630859375 195.4017333984375 120.57919311523438 C 191.72833251953125 122.75372314453125 189.15869140625 126.92898559570312 189.43927001953125 131.2065887451172 C 189.64141845703125 134.23065185546875 191.21743774414062 137.062255859375 193.40191650390625 139.16700744628906 C 195.58639526367188 141.2717742919922 198.33953857421875 142.70689392089844 201.1929931640625 143.73788452148438 C 202.43499755859375 144.18580627441406 203.77020263671875 144.56576538085938 205.05572509765625 144.27987670898438 C 206.52969360351562 143.95281982421875 207.66671752929688 142.81358337402344 208.66473388671875 141.67454528808594 C 211.48236083984375 138.45880126953125 213.9144287109375 134.6887664794922 214.46038818359375 130.44772338867188 C 215.00634765625 126.2066650390625 213.24319458007812 121.46011352539062 209.45721435546875 119.49533081054688 L 207.79931640625 119.17507934570312" stroke-width="0.6000000238418579" fill="rgb(159, 159, 159)" opacity="1.0"/>
    <path d="M 276.9897155761719 109.68368530273438 C 272.57000732421875 109.87875366210938 267.6657409667969 110.28701782226562 264.6519470214844 113.51385498046875 C 261.71661376953125 116.64785766601562 261.5379638671875 121.39518737792969 261.6063537597656 125.69052124023438 C 261.6366882324219 127.4354248046875 261.6962585449219 129.26034545898438 262.5478515625 130.78250122070312 C 263.9866638183594 133.35777282714844 267.2124328613281 134.30548095703125 270.1472473144531 134.55764770507812 C 272.87115478515625 134.79275512695312 275.61474609375 134.635498046875 278.2939758300781 134.09072875976562 C 282.6446228027344 133.20773315429688 287.223876953125 130.8055877685547 288.42877197265625 126.53451538085938 C 289.08258056640625 124.22967529296875 288.6197814941406 121.71115112304688 287.61907958984375 119.53030395507812 C 286.618408203125 117.34945678710938 285.1049499511719 115.44793701171875 283.5840759277344 113.59202575683594 C 282.0632019042969 111.73611450195312 280.529052734375 109.945068359375 278.4315185546875 108.902587890625 L 276.9897155761719 109.68368530273438" stroke-width="0.6000000238418579" fill="rgb(218, 166, 20)" opacity="1.0"/>
    <path d="M 239.87786865234375 118.0245361328125 C 233.25198364257812 120.1844482421875 229.631591796875 127.30673217773438 231.79150390625 133.9326171875 C 231.9764404296875 134.49998474121094 232.201416015625 135.05352783203125 232.4647216796875 135.5890655517578 C 233.46554565429688 137.6238250732422 235.11520385742188 139.44000244140625 237.26678466796875 140.1524658203125 C 239.0849609375 140.7547149658203 241.06930541992188 140.525146484375 242.93572998046875 140.1008758544922 C 247.93017578125 138.95831298828125 252.527587890625 136.49928283691406 256.2503967285156 132.97926330566406 C 257.2328796386719 132.0471649169922 258.17169189453125 131.0089874267578 258.6405334472656 129.7353515625 C 259.4288330078125 127.59762573242188 258.73431396484375 125.14909362792969 257.4625244140625 123.25668334960938 C 255.5762939453125 120.44583129882812 252.48626708984375 118.55459594726562 249.18716430664062 117.79316711425781 C 245.8880615234375 117.03173828125 242.40017700195312 117.33418273925781 239.15823364257812 118.30966186523438 L 239.87786865234375 118.0245361328125" stroke-width="0.6000000238418579" fill="rgb(143, 165, 67)" opacity="1.0"/>
    <path d="M 252.6737060546875 105.728271484375 C 246.01995849609375 109.44921875 246.68951416015625 120.96969604492188 253.45156860351562 124.38238525390625 C 260.2136535644531 127.79502868652344 269.5621337890625 122.0430908203125 270.12969970703125 114.43844604492188 C 270.6972961425781 106.83380126953125 263.1041259765625 99.9085693359375 255.5045166015625 100.62055969238281 L 252.6737060546875 105.728271484375" stroke-width="0.6000000238418579" fill="rgb(233, 92, 21)" opacity="1.0"/>
    <path d="M 349.0341491699219 96.78152465820312 C 345.06732177734375 97.38934326171875 340.39190673828125 98.52679443359375 339.0245361328125 102.31430053710938 C 338.5390319824219 103.84275817871094 338.5397644042969 105.48420715332031 339.0267028808594 107.01220703125 C 340.1297302246094 110.82528686523438 343.01251220703125 113.8671875 346.7608947753906 115.17330932617188 C 349.9433898925781 116.27310180664062 353.39117431640625 115.95706176757812 356.7157897949219 115.57432556152344 C 358.5830078125 115.35630798339844 360.5599060058594 115.065185546875 361.98773193359375 113.85826110839844 C 363.8777160644531 112.23391723632812 364.2344970703125 109.45881652832031 364.1766052246094 106.96817016601562 C 364.096435546875 103.32296752929688 363.42681884765625 99.71478271484375 362.19366455078125 96.2835693359375 C 361.76531982421875 95.09884643554688 361.23760986328125 93.88774108886719 360.27032470703125 93.08134460449219 C 359.33258056640625 92.3775634765625 358.2102966308594 91.96183776855469 357.04034423828125 91.88485717773438 C 353.50054931640625 91.51332092285156 349.9759521484375 92.71330261230469 347.3982238769531 95.16763305664062 L 349.0341491699219 96.78152465820312" stroke-width="0.6000000238418579" fill="rgb(70, 150, 179)" opacity="1.0"/>
    <path d="M 346.7350158691406 110.21630859375 C 342.7465515136719 107.93927001953125 338.23004150390625 105.58282470703125 333.7820129394531 106.71461486816406 C 329.00457763671875 107.93328857421875 326.026123046875 112.94374084472656 325.4296569824219 117.83786010742188 C 325.1988830566406 119.7247314453125 325.262451171875 121.72079467773438 326.13568115234375 123.40902709960938 C 326.85302734375 124.79714965820312 328.0539855957031 125.8651123046875 329.2813415527344 126.83146667480469 C 333.1481628417969 129.88356018066406 337.9163818359375 132.36280822753906 342.8023986816406 131.74310302734375 C 347.7263488769531 131.11514282226562 352.0296630859375 127.04417419433594 352.9021911621094 122.1531982421875 C 353.7746887207031 117.26220703125 351.1983642578125 111.93623352050781 346.8002624511719 109.61834716796875 L 346.7350158691406 110.21630859375" stroke-width="0.6000000238418579" fill="rgb(140, 28, 33)" opacity="1.0"/>
    <path d="M 362.0 102.0 C 361.1820373535156 102.61441040039062 360.3376770019531 103.26275634765625 359.8514099121094 104.16366577148438 C 359.3651428222656 105.06455993652344 359.342529296875 106.30471801757812 360.0738220214844 107.02090454101562 C 360.97845458984375 107.90296936035156 362.6294860839844 107.52601623535156 363.38714599609375 106.51202392578125 C 364.14483642578125 105.498046875 364.1824951171875 104.10711669921875 363.91864013671875 102.87074279785156 C 363.8753356933594 102.47982788085938 363.6870422363281 102.119384765625 363.39093017578125 101.86051940917969 C 363.0743103027344 101.63812255859375 362.52020263671875 101.73989868164062 362.4410095214844 102.12060546875 L 362.0 102.0" stroke-width="0.6000000238418579" fill="rgb(159, 159, 159)" opacity="1.0"/>
    <path d="M 354.88641357421875 108.65301513671875 C 350.6463928222656 108.7449951171875 346.3455505371094 110.29168701171875 343.429443359375 113.36799621582031 C 340.5133361816406 116.44432067871094 339.19580078125 121.13084411621094 340.6278991699219 125.139404296875 C 341.64398193359375 127.97222900390625 343.9196472167969 130.2473602294922 346.57855224609375 131.6627655029297 C 349.2374572753906 133.0782012939453 352.25714111328125 133.69937133789062 355.2626647949219 133.90733337402344 C 356.5706481933594 133.99705505371094 357.9491271972656 133.99649047851562 359.09893798828125 133.37362670898438 C 360.41748046875 132.66014099121094 361.1932373046875 131.26278686523438 361.8363037109375 129.9034423828125 C 363.65179443359375 126.06571960449219 364.9482727050781 121.80357360839844 364.3153991699219 117.60499572753906 C 363.6825256347656 113.40640258789062 360.70697021484375 109.353515625 356.55682373046875 108.50762939453125 L 354.88641357421875 108.65301513671875" stroke-width="0.6000000238418579" fill="rgb(159, 159, 159)" opacity="1.0"/>
    <path d="M 367.25457763671875 102.85128784179688 C 362.8434143066406 102.92764282226562 357.9435119628906 103.20359802246094 354.8529052734375 106.33987426757812 C 351.84295654296875 109.38566589355469 351.53802490234375 114.11343383789062 351.49139404296875 118.39724731445312 C 351.47503662109375 120.13751220703125 351.48565673828125 121.95834350585938 352.2939453125 123.49850463867188 C 353.6594543457031 126.10421752929688 356.8498229980469 127.13516235351562 359.7687683105469 127.4649658203125 C 362.4779357910156 127.77210998535156 365.2171630859375 127.68865966796875 367.9026184082031 127.2171630859375 C 372.2633056640625 126.45318603515625 376.89251708984375 124.18087768554688 378.2077331542969 119.95529174804688 C 378.921142578125 117.67510986328125 378.52703857421875 115.15203857421875 377.5877685546875 112.95124816894531 C 376.6484375 110.75045776367188 375.1905212402344 108.81442260742188 373.7239685058594 106.92364501953125 C 372.2574462890625 105.03288269042969 370.7759094238281 103.2064208984375 368.7127685546875 102.11114501953125 L 367.25457763671875 102.85128784179688" stroke-width="0.6000000238418579" fill="rgb(218, 166, 20)" opacity="1.0"/>
    <path d="M 429.0 167.0 C 422.0758056640625 166.35940551757812 415.9432373046875 171.45330810546875 415.30267333984375 178.37750244140625 C 415.247802734375 178.97042846679688 415.235107421875 179.56649780273438 415.26458740234375 180.16122436523438 C 415.3770751953125 182.4210205078125 416.17047119140625 184.73712158203125 417.8599853515625 186.24041748046875 C 419.28759765625 187.51095581054688 421.1964111328125 188.08511352539062 423.07403564453125 188.43426513671875 C 428.1014404296875 189.3619384765625 433.2855224609375 188.92657470703125 438.0877685546875 187.17343139648438 C 439.3563232421875 186.7078857421875 440.62689208984375 186.12789916992188 441.5599365234375 185.14639282226562 C 443.127197265625 183.49954223632812 443.45892333984375 180.98175048828125 443.0418701171875 178.74520874023438 C 442.425048828125 175.42434692382812 440.34173583984375 172.4700927734375 437.6202392578125 170.46826171875 C 434.8988037109375 168.46646118164062 431.583740234375 167.36468505859375 428.22796630859375 166.97674560546875 L 429.0 167.0" stroke-width="0.6000000238418579" fill="rgb(143, 165, 67)" opacity="1.0"/>
    <path d="M 132.62901306152344 407.7505187988281 C 125.15225219726562 409.268798828125 122.27825927734375 420.45428466796875 127.68344116210938 425.768798828125 C 133.08865356445312 431.083251953125 143.7532196044922 428.4505615234375 146.61265563964844 421.3748779296875 C 149.47210693359375 414.29913330078125 144.34556579589844 405.3830871582031 136.88455200195312 403.744873046875 L 132.62901306152344 407.7505187988281" stroke-width="0.6000000238418579" fill="rgb(233, 92, 21)" opacity="1.0"/>
    <path d="M 429.0 173.0 C 425.04193115234375 172.3504638671875 420.24658203125 171.985107421875 417.77532958984375 175.16171264648438 C 416.841064453125 176.46414184570312 416.333984375 178.0244140625 416.32403564453125 179.62722778320312 C 416.1927490234375 183.5924072265625 417.991455078125 187.37521362304688 421.14984130859375 189.776123046875 C 423.834228515625 191.805908203125 427.208740234375 192.5721435546875 430.48681640625 193.23690795898438 C 432.328857421875 193.60736083984375 434.2977294921875 193.9422607421875 436.028076171875 193.23690795898438 C 438.32684326171875 192.27783203125 439.5244140625 189.75076293945312 440.23992919921875 187.36578369140625 C 441.2913818359375 183.87661743164062 441.771240234375 180.24026489257812 441.6607666015625 176.5977783203125 C 441.6201171875 175.33932495117188 441.4932861328125 174.0250244140625 440.823486328125 172.95941162109375 C 440.14996337890625 172.00042724609375 439.21197509765625 171.25814819335938 438.1239013671875 170.82305908203125 C 434.8746337890625 169.3748779296875 431.15362548828125 169.4249267578125 427.94451904296875 170.9600830078125 L 429.0 173.0" stroke-width="0.6000000238418579" fill="rgb(70, 150, 179)" opacity="1.0"/>
    <path d="M 422.7548828125 165.98904418945312 C 418.7977294921875 163.71484375 414.3160400390625 161.3602294921875 409.89251708984375 162.47235107421875 C 405.141357421875 163.66986083984375 402.1672058105469 168.64065551757812 401.560546875 173.50259399414062 C 401.32586669921875 175.3770751953125 401.38336181640625 177.36087036132812 402.2463684082031 179.04107666015625 C 402.9552917480469 180.422607421875 404.1457214355469 181.4873046875 405.3627014160156 182.45114135742188 C 409.19677734375 185.49520874023438 413.92822265625 187.9725341796875 418.78564453125 187.37060546875 C 423.6806640625 186.76052856445312 427.96875 182.72714233398438 428.8497314453125 177.86907958984375 C 429.730712890625 173.01104736328125 427.185546875 167.7109375 422.8214111328125 165.39498901367188 L 422.7548828125 165.98904418945312" stroke-width="0.6000000238418579" fill="rgb(140, 28, 33)" opacity="1.0"/>
    <path d="M 147.0 115.0 C 146.18203735351562 115.61441040039062 145.33766174316406 116.26275634765625 144.85140991210938 117.16366577148438 C 144.36514282226562 118.06455993652344 144.342529296875 119.30471801757812 145.0738067626953 120.02090454101562 C 145.9784698486328 120.90296936035156 147.62948608398438 120.52601623535156 148.3871612548828 119.51202392578125 C 149.1448211669922 118.498046875 149.18251037597656 117.10711669921875 148.9186553955078 115.87074279785156 C 148.8753204345703 115.47982788085938 148.68702697753906 115.119384765625 148.39093017578125 114.86051940917969 C 148.0742950439453 114.63812255859375 147.5201873779297 114.73989868164062 147.44102478027344 115.12060546875 L 147.0 115.0" stroke-width="0.6000000238418579" fill="rgb(159, 159, 159)" opacity="1.0"/>
    <path d="M 428.60601806640625 168.39404296875 C 424.4140625 168.84375 420.2847900390625 170.73947143554688 417.6566162109375 174.03323364257812 C 415.0283203125 177.32696533203125 414.11962890625 182.0804443359375 415.877197265625 185.92984008789062 C 417.123291015625 188.64984130859375 419.5697021484375 190.71087646484375 422.3231201171875 191.88800048828125 C 425.07647705078125 193.06509399414062 428.1199951171875 193.42498779296875 431.1146240234375 193.37677001953125 C 432.417724609375 193.35504150390625 433.7830810546875 193.23788452148438 434.86932373046875 192.523681640625 C 436.114990234375 191.7054443359375 436.76519775390625 190.2557373046875 437.2872314453125 188.85491943359375 C 438.7608642578125 184.90008544921875 439.6845703125 180.56875610351562 438.70263671875 176.46356201171875 C 437.72064208984375 172.35833740234375 434.4305419921875 168.5955810546875 430.248291015625 168.10873413085938 L 428.60601806640625 168.39404296875" stroke-width="0.6000000238418579" fill="rgb(159, 159, 159)" opacity="1.0"/>
    <path d="M 422.7587890625 176.34185791015625 C 418.7781982421875 174.414794921875 414.2701416015625 172.4451904296875 410.08673095703125 173.85269165039062 C 406.01641845703125 175.21575927734375 403.6050109863281 179.30706787109375 401.62554931640625 183.11810302734375 C 400.8236999511719 184.66744995117188 400.0095520019531 186.30108642578125 400.035888671875 188.04449462890625 C 400.0787353515625 190.99310302734375 402.46636962890625 193.3585205078125 404.9283447265625 194.97393798828125 C 407.212890625 196.47418212890625 409.7010192871094 197.63864135742188 412.31658935546875 198.431640625 C 416.56304931640625 199.72076416015625 421.73199462890625 199.78207397460938 424.8199462890625 196.59701538085938 C 426.4896240234375 194.87994384765625 427.27838134765625 192.4447021484375 427.43365478515625 190.05105590820312 C 427.58892822265625 187.65740966796875 427.1605224609375 185.26605224609375 426.703857421875 182.9112548828125 C 426.247314453125 180.55645751953125 425.7481689453125 178.25244140625 424.3980712890625 176.33938598632812 L 422.7587890625 176.34185791015625" stroke-width="0.6000000238418579" fill="rgb(218, 166, 20)" opacity="1.0"/>
    <path d="M 436.2801513671875 171.99688720703125 C 429.5758056640625 173.93270874023438 425.71014404296875 180.93695068359375 427.64599609375 187.64126586914062 C 427.81170654296875 188.21536254882812 428.01800537109375 188.7769775390625 428.26324462890625 189.3218994140625 C 429.19549560546875 191.3922119140625 430.7845458984375 193.26593017578125 432.91339111328125 194.05221557617188 C 434.71240234375 194.71685791015625 436.7060546875 194.5546875 438.58831787109375 194.19369506835938 C 443.6253662109375 193.22039794921875 448.3099365234375 190.91616821289062 452.1553955078125 187.52035522460938 C 453.1702880859375 186.62103271484375 454.14520263671875 185.61407470703125 454.65771484375 184.35546875 C 455.5194091796875 182.24301147460938 454.9078369140625 179.76901245117188 453.6995849609375 177.8319091796875 C 451.90771484375 174.9547119140625 448.87982177734375 172.95684814453125 445.604248046875 172.08245849609375 C 442.32861328125 171.20809936523438 438.827880859375 171.3919677734375 435.55029296875 172.25775146484375 L 436.2801513671875 171.99688720703125" stroke-width="0.6000000238418579" fill="rgb(143, 165, 67)" opacity="1.0"/>
    <path d="M 141.369873046875 112.19622802734375 C 130.81887817382812 115.16001892089844 127.88153076171875 131.4874267578125 136.18557739257812 138.53077697753906 C 144.4896697998047 145.5740966796875 159.48992919921875 140.6775360107422 162.8399658203125 130.2392578125 C 166.18997192382812 119.80097961425781 157.90521240234375 107.56869506835938 147.04379272460938 106.00885009765625 L 141.369873046875 112.19622802734375" stroke-width="0.6000000238418579" fill="rgb(233, 92, 21)" opacity="1.0"/>
    <path d="M 436.29132080078125 155.00074768066406 C 430.75469970703125 156.4493408203125 424.29132080078125 158.75390625 422.91180419921875 164.3282470703125 C 422.44915771484375 166.56793212890625 422.69287109375 168.89605712890625 423.60943603515625 170.9913330078125 C 425.73773193359375 176.2366943359375 430.2763671875 180.12509155273438 435.7861328125 181.4234619140625 C 440.4627685546875 182.51290893554688 445.3062744140625 181.55487060546875 449.96527099609375 180.5205078125 C 452.58148193359375 179.9351806640625 455.3424072265625 179.23001098632812 457.189208984375 177.3070068359375 C 459.62982177734375 174.7236328125 459.72552490234375 170.7347412109375 459.27520751953125 167.2105712890625 C 458.62255859375 162.0521240234375 457.13934326171875 157.03335571289062 454.88299560546875 152.348876953125 C 454.10028076171875 150.7318115234375 453.1727294921875 149.09201049804688 451.6815185546875 148.0912322998047 C 450.24737548828125 147.2316436767578 448.5941162109375 146.8079071044922 446.92327880859375 146.8717041015625 C 441.8475341796875 146.86805725097656 437.02569580078125 149.0911865234375 433.73236083984375 152.95347595214844 L 436.29132080078125 155.00074768066406" stroke-width="0.6000000238418579" fill="rgb(70, 150, 179)" opacity="1.0"/>
    <path d="M 376.9666748046875 94.79776000976562 C 371.26947021484375 91.71710205078125 364.8252258300781 88.54164123535156 358.5909423828125 90.28189086914062 C 351.89501953125 92.15531921386719 347.858642578125 99.31619262695312 347.17681884765625 106.235595703125 C 346.91278076171875 108.90333557128906 347.0672912597656 111.71543884277344 348.35333251953125 114.06724548339844 C 349.4097900390625 116.0009765625 351.1376647949219 117.46760559082031 352.89947509765625 118.79014587402344 C 358.45037841796875 122.96746826171875 365.25347900390625 126.30789184570312 372.1219787597656 125.27537536621094 C 379.04364013671875 124.22998046875 384.9783935546875 118.35060119628906 386.0495300292969 111.4266357421875 C 387.12066650390625 104.50267028808594 383.3152770996094 97.0775146484375 377.03924560546875 93.95260620117188 L 376.9666748046875 94.79776000976562" stroke-width="0.6000000238418579" fill="rgb(140, 28, 33)" opacity="1.0"/>
    <path d="M 132.0 407.0 C 130.83045959472656 407.87847900390625 129.62318420410156 408.8055114746094 128.92791748046875 410.0936279296875 C 128.232666015625 411.3817443847656 128.20033264160156 413.1549072265625 129.24591064453125 414.178955078125 C 130.53939819335938 415.44012451171875 132.90005493164062 414.901123046875 133.98336791992188 413.45135498046875 C 135.0666961669922 412.00152587890625 135.12057495117188 410.0127868652344 134.74330139160156 408.2449951171875 C 134.6813507080078 407.6860656738281 134.41213989257812 407.1706848144531 133.98876953125 406.8005676269531 C 133.53604125976562 406.4825744628906 132.7437744140625 406.62811279296875 132.6305694580078 407.1724548339844 L 132.0 407.0" stroke-width="0.6000000238418579" fill="rgb(159, 159, 159)" opacity="1.0"/>
    <path d="M 421.799560546875 194.8916015625 C 416.01373291015625 193.1962890625 409.52099609375 193.44638061523438 404.2483825683594 196.36395263671875 C 398.9757995605469 199.281494140625 395.17852783203125 205.06747436523438 395.3988037109375 211.11489868164062 C 395.5599365234375 215.39031982421875 397.6675109863281 219.45053100585938 400.6634826660156 222.51010131835938 C 403.65948486328125 225.5697021484375 407.4853515625 227.70773315429688 411.4693908691406 229.2796630859375 C 413.20355224609375 229.96267700195312 415.072021484375 230.55361938476562 416.897705078125 230.2030029296875 C 418.990966796875 229.802001953125 420.64208984375 228.24118041992188 422.09710693359375 226.6749267578125 C 426.20489501953125 222.2530517578125 429.79144287109375 217.03317260742188 430.7359619140625 211.0712890625 C 431.680419921875 205.109375 429.38739013671875 198.33938598632812 424.1258544921875 195.41156005859375 L 421.799560546875 194.8916015625" stroke-width="0.6000000238418579" fill="rgb(159, 159, 159)" opacity="1.0"/>
    <path d="M 386.8600158691406 106.25772094726562 C 380.56170654296875 106.25509643554688 373.56072998046875 106.5250244140625 369.06988525390625 110.9234619140625 C 364.6965026855469 115.19482421875 364.1416015625 121.9354248046875 363.9667053222656 128.04884338378906 C 363.8993225097656 130.53244018554688 363.868408203125 133.13172912597656 364.983154296875 135.35057067871094 C 366.8663330078125 139.10443115234375 371.3941345214844 140.65670776367188 375.5522155761719 141.20130920410156 C 379.41143798828125 141.70828247070312 383.323486328125 141.65846252441406 387.1685485839844 141.05340576171875 C 393.4122314453125 140.07322692871094 400.07733154296875 136.94692993164062 402.06158447265625 130.94871520996094 C 403.1375427246094 127.71206665039062 402.63885498046875 124.10073852539062 401.35382080078125 120.93560791015625 C 400.0687561035156 117.77047729492188 398.0367431640625 114.97013854980469 395.9912414550781 112.23419189453125 C 393.94580078125 109.49826049804688 391.8772888183594 106.85372924804688 388.96014404296875 105.23812866210938 L 386.8600158691406 106.25772094726562" stroke-width="0.6000000238418579" fill="rgb(218, 166, 20)" opacity="1.0"/>
    <path d="M 394.678955078125 95.04092407226562 C 385.82177734375 90.63627624511719 375.0709533691406 94.24575805664062 370.6662902832031 103.10293579101562 C 370.28912353515625 103.86137390136719 369.96624755859375 104.6456298828125 369.7000427246094 105.44976806640625 C 368.68914794921875 108.50550842285156 368.5526428222656 111.98541259765625 370.02227783203125 114.84716796875 C 371.2640075683594 117.26567077636719 373.50146484375 119.00729370117188 375.813232421875 120.43447875976562 C 382.0065612792969 124.24617004394531 389.1075439453125 126.33001708984375 396.3785095214844 126.4696044921875 C 398.30047607421875 126.50326538085938 400.2838134765625 126.38609313964844 402.0255126953125 125.56295776367188 C 404.95025634765625 124.18280029296875 406.6828918457031 121.01284790039062 407.27783203125 117.83163452148438 C 408.1643981933594 113.10934448242188 406.917236328125 108.12054443359375 404.33447265625 104.06764221191406 C 401.7517395019531 100.01475524902344 397.9194641113281 96.85118103027344 393.66668701171875 94.61370849609375 L 394.678955078125 95.04092407226562" stroke-width="0.6000000238418579" fill="rgb(143, 165, 67)" opacity="1.0"/>
    <path d="M 125.91252136230469 412.14105224609375 C 115.49403381347656 408.8194885253906 104.08473205566406 420.812255859375 107.13824462890625 431.2391357421875 C 110.19181823730469 441.66595458984375 125.37858581542969 445.819091796875 133.8993377685547 438.96002197265625 C 142.4200897216797 432.1009521484375 142.23069763183594 417.3609619140625 134.03648376464844 410.099609375 L 125.91252136230469 412.14105224609375" stroke-width="0.6000000238418579" fill="rgb(233, 92, 21)" opacity="1.0"/>
    <path d="M 433.294677734375 201.5732421875 C 427.7572021484375 203.02203369140625 421.292724609375 205.3270263671875 419.91302490234375 210.9022216796875 C 419.4503173828125 213.14230346679688 419.694091796875 215.47076416015625 420.61077880859375 217.56640625 C 422.7393798828125 222.81259155273438 427.27880859375 226.70159912109375 432.7894287109375 228.00018310546875 C 437.466796875 229.08978271484375 442.3111572265625 228.13162231445312 446.97088623046875 227.0970458984375 C 449.5875244140625 226.51165771484375 452.348876953125 225.80633544921875 454.19598388671875 223.883056640625 C 456.636962890625 221.29925537109375 456.732666015625 217.3096923828125 456.28228759765625 213.78497314453125 C 455.6295166015625 208.625732421875 454.14605712890625 203.60614013671875 451.88934326171875 198.9208984375 C 451.1064453125 197.3035888671875 450.17877197265625 195.66351318359375 448.68731689453125 194.66259765625 C 447.2529296875 193.8028564453125 445.599365234375 193.3790283203125 443.9283447265625 193.44287109375 C 438.851806640625 193.439208984375 434.0291748046875 195.6627197265625 430.73529052734375 199.525634765625 L 433.294677734375 201.5732421875" stroke-width="0.6000000238418579" fill="rgb(70, 150, 179)" opacity="1.0"/>
    <path d="M 423.72265625 139.8496551513672 C 418.11676025390625 136.57073974609375 411.765380859375 133.1717071533203 405.4590759277344 134.7060546875 C 398.6856994628906 136.35836791992188 394.3997802734375 143.3989715576172 393.4837646484375 150.31040954589844 C 393.12945556640625 152.97503662109375 393.1897277832031 155.79840087890625 394.3994445800781 158.19854736328125 C 395.3931579589844 160.1719970703125 397.0754699707031 161.69989013671875 398.796630859375 163.08453369140625 C 404.21905517578125 167.45758056640625 410.92449951171875 171.03399658203125 417.842529296875 170.230224609375 C 424.8143310546875 169.41534423828125 430.95965576171875 163.72283935546875 432.2659912109375 156.8199462890625 C 433.572265625 149.91702270507812 430.00830078125 142.34783935546875 423.8238525390625 139.00511169433594 L 423.72265625 139.8496551513672" stroke-width="0.6000000238418579" fill="rgb(140, 28, 33)" opacity="1.0"/>
    <path d="M 403.3540954589844 94.71343994140625 C 402.63671875 95.9923095703125 401.9043273925781 97.33097839355469 401.7876892089844 98.79373168945312 C 401.6710205078125 100.25648498535156 402.358642578125 101.89599609375 403.73193359375 102.41232299804688 C 405.42852783203125 103.04586791992188 407.37579345703125 101.59658813476562 407.7829895019531 99.82855224609375 C 408.190185546875 98.06051635742188 407.43511962890625 96.21453857421875 406.3739929199219 94.74568176269531 C 406.091064453125 94.25807189941406 405.6356506347656 93.89425659179688 405.09759521484375 93.72601318359375 C 404.5537109375 93.61749267578125 403.8858642578125 94.07145690917969 404.00225830078125 94.61654663085938 L 403.3540954589844 94.71343994140625" stroke-width="0.6000000238418579" fill="rgb(159, 159, 159)" opacity="1.0"/>
    <path d="M 432.0029296875 222.80364990234375 C 426.77001953125 225.82318115234375 422.45770263671875 230.701416015625 420.92291259765625 236.54150390625 C 419.3880615234375 242.38162231445312 420.9530029296875 249.1378173828125 425.48785400390625 253.16351318359375 C 428.6976318359375 256.00567626953125 433.0986328125 257.28839111328125 437.3892822265625 257.23480224609375 C 441.679931640625 257.1811828613281 445.877197265625 255.88836669921875 449.7735595703125 254.08917236328125 C 451.46875 253.30517578125 453.190185546875 252.360107421875 454.1995849609375 250.79446411132812 C 455.357666015625 249.0 455.369384765625 246.72323608398438 455.2413330078125 244.5848388671875 C 454.87982177734375 238.5477294921875 453.579345703125 232.33602905273438 449.91259765625 227.52545166015625 C 446.245849609375 222.71484375 439.7528076171875 219.69113159179688 433.9896240234375 221.47772216796875 L 432.0029296875 222.80364990234375" stroke-width="0.6000000238418579" fill="rgb(159, 159, 159)" opacity="1.0"/>
    <path d="M 417.976806640625 254.13177490234375 C 412.23297119140625 251.47601318359375 405.7333679199219 248.77288818359375 399.7840881347656 250.89300537109375 C 393.9955139160156 252.9466552734375 390.64971923828125 258.8612976074219 387.91473388671875 264.3639221191406 C 386.8069763183594 266.6009521484375 385.6837463378906 268.9588623046875 385.76580810546875 271.4523620605469 C 385.9021301269531 275.6697692871094 389.378173828125 278.9931335449219 392.9415283203125 281.2416076660156 C 396.24810791015625 283.329833984375 399.8374328613281 284.9324645996094 403.5995788574219 286.0003967285156 C 409.7076416015625 287.7366638183594 417.104248046875 287.69287109375 421.4410400390625 283.0575866699219 C 423.7860107421875 280.5585632324219 424.8525390625 277.054443359375 425.0137939453125 273.62603759765625 C 425.175048828125 270.1976013183594 424.501220703125 266.7872314453125 423.7880859375 263.4299621582031 C 423.074951171875 260.0726623535156 422.30224609375 256.7890625 420.322021484375 254.08648681640625 L 417.976806640625 254.13177490234375" stroke-width="0.6000000238418579" fill="rgb(218, 166, 20)" opacity="1.0"/>
    <path d="M 414.7056884765625 96.72335815429688 C 405.27325439453125 99.722412109375 400.05792236328125 109.8001708984375 403.0569763183594 119.23263549804688 C 403.31378173828125 120.04034423828125 403.6275634765625 120.82881164550781 403.9959411621094 121.59213256835938 C 405.39630126953125 124.49224853515625 407.72039794921875 127.08865356445312 410.76873779296875 128.1227264404297 C 413.3447265625 128.99685668945312 416.165283203125 128.6913299560547 418.8204345703125 128.10806274414062 C 425.92535400390625 126.5369873046875 432.4801025390625 123.0921630859375 437.8035888671875 118.1314697265625 C 439.2086181640625 116.81784057617188 440.55267333984375 115.35308837890625 441.23162841796875 113.54910278320312 C 442.373291015625 110.521240234375 441.4122314453125 107.03662109375 439.6256103515625 104.33584594726562 C 436.975830078125 100.3243408203125 432.6068115234375 97.60647583007812 427.9293212890625 96.49098205566406 C 423.251708984375 95.37548828125 418.2950439453125 95.76898193359375 413.68072509765625 97.12088012695312 L 414.7056884765625 96.72335815429688" stroke-width="0.6000000238418579" fill="rgb(143, 165, 67)" opacity="1.0"/>
    <path d="M 432.28662109375 122.98464965820312 C 422.779052734375 128.24801635742188 423.6629638671875 144.67430114746094 433.28125 149.58041381835938 C 442.8995361328125 154.48648071289062 456.2607421875 146.344482421875 457.116455078125 135.5076904296875 C 457.9720458984375 124.67092895507812 447.19061279296875 114.752685546875 436.35321044921875 115.7210693359375 L 432.28662109375 122.98464965820312" stroke-width="0.6000000238418579" fill="rgb(233, 92, 21)" opacity="1.0"/>
    <path d="M 430.25531005859375 107.01776123046875 C 424.71868896484375 108.43608093261719 418.252197265625 110.70452880859375 416.84600830078125 116.26432800292969 C 416.37255859375 118.49867248535156 416.60400390625 120.82490539550781 417.5086669921875 122.92208862304688 C 419.60723876953125 128.17129516601562 424.119873046875 132.07769775390625 429.61566162109375 133.40252685546875 C 434.2803955078125 134.514404296875 439.1224365234375 133.5824432373047 443.78045654296875 132.57327270507812 C 446.3961181640625 132.00213623046875 449.156982421875 131.31201171875 451.01116943359375 129.4010467529297 C 453.461669921875 126.8336181640625 453.57769775390625 122.85052490234375 453.14599609375 119.32879638671875 C 452.5206298828125 114.17391967773438 451.0650634765625 109.15426635742188 448.835693359375 104.46452331542969 C 448.062255859375 102.84561157226562 447.144287109375 101.20326232910156 445.66021728515625 100.19621276855469 C 444.232421875 99.3304443359375 442.58349609375 98.8988037109375 440.91455078125 98.9539794921875 C 435.845703125 98.92437744140625 431.0189208984375 101.119873046875 427.710205078125 104.96014404296875 L 430.25531005859375 107.01776123046875" stroke-width="0.6000000238418579" fill="rgb(70, 150, 179)" opacity="1.0"/>
    <path d="M 312.0 391.0 C 305.5666809082031 390.2685852050781 298.4051818847656 389.72796630859375 293.27252197265625 393.6680908203125 C 287.76141357421875 397.9039611816406 286.68975830078125 406.05133056640625 288.6391296386719 412.72314453125 C 289.3896484375 415.2957763671875 290.5821533203125 417.84625244140625 292.65240478515625 419.547607421875 C 294.3537292480469 420.94683837890625 296.50347900390625 421.662353515625 298.6309509277344 422.2315673828125 C 305.3377380371094 424.03466796875 312.89361572265625 424.5943603515625 318.8785400390625 421.07403564453125 C 324.907958984375 417.5218505859375 328.21844482421875 409.8547058105469 326.6283874511719 403.033447265625 C 325.0383605957031 396.212158203125 318.7386169433594 390.7455749511719 311.751953125 390.1890869140625 L 312.0 391.0" stroke-width="0.6000000238418579" fill="rgb(140, 28, 33)" opacity="1.0"/>
    <path d="M 311.0 391.0 C 309.530517578125 392.10382080078125 308.0135803222656 393.2685852050781 307.1399841308594 394.8870849609375 C 306.2664489746094 396.50555419921875 306.2257995605469 398.7335205078125 307.53955078125 400.0201721191406 C 309.164794921875 401.60479736328125 312.1308898925781 400.9276123046875 313.4920654296875 399.10595703125 C 314.85321044921875 397.2843322753906 314.9209289550781 394.7854919433594 314.4468994140625 392.5643005371094 C 314.3690490722656 391.8620300292969 314.0307922363281 391.2144775390625 313.49884033203125 390.7494201660156 C 312.92999267578125 390.3498840332031 311.9345397949219 390.5327453613281 311.79229736328125 391.2166748046875 L 311.0 391.0" stroke-width="0.6000000238418579" fill="rgb(159, 159, 159)" opacity="1.0"/>
    <path d="M 322.1962585449219 392.7506408691406 C 314.6821594238281 393.00653076171875 307.092041015625 395.8424987792969 301.99017333984375 401.3596496582031 C 296.8882751464844 406.8768005371094 294.6553649902344 415.2132568359375 297.28179931640625 422.2877197265625 C 299.1450500488281 427.287109375 303.2288513183594 431.27032470703125 307.97320556640625 433.72113037109375 C 312.717529296875 436.1719970703125 318.08404541015625 437.20703125 323.4163513183594 437.509765625 C 325.7369384765625 437.64019775390625 328.1805114746094 437.6090087890625 330.205078125 436.479736328125 C 332.52679443359375 435.18603515625 333.871337890625 432.6920166015625 334.98150634765625 430.26824951171875 C 338.1156921386719 423.425537109375 340.3205871582031 415.841796875 339.10675048828125 408.4129638671875 C 337.8929138183594 400.9841003417969 332.5295104980469 393.8648986816406 325.1541442871094 392.456298828125 L 322.1962585449219 392.7506408691406" stroke-width="0.6000000238418579" fill="rgb(159, 159, 159)" opacity="1.0"/>
    <path d="M 269.53289794921875 395.6460876464844 C 261.81451416015625 397.15557861328125 253.300537109375 399.1678161621094 248.85400390625 405.6361389160156 C 244.5208740234375 411.9205322265625 245.45986938476562 420.31353759765625 246.7138671875 427.84674072265625 C 247.227783203125 430.90625 247.814208984375 434.0987548828125 249.71310424804688 436.5499267578125 C 252.92230224609375 440.697509765625 258.84332275390625 441.51214599609375 264.0693359375 441.1807861328125 C 268.9200744628906 440.8751220703125 273.7017822265625 439.87451171875 278.2680969238281 438.2095947265625 C 285.68353271484375 435.5089111328125 293.099853515625 430.07720947265625 294.0906677246094 422.2506103515625 C 294.6317443847656 418.026123046875 293.1533203125 413.720703125 290.8184814453125 410.1508483886719 C 288.4836120605469 406.5810241699219 285.321044921875 403.63763427734375 282.157470703125 400.7763671875 C 278.993896484375 397.91510009765625 275.8240661621094 395.17138671875 271.8614501953125 393.892333984375 L 269.53289794921875 395.6460876464844" stroke-width="0.6000000238418579" fill="rgb(218, 166, 20)" opacity="1.0"/>
    <path d="M 231.48162841796875 398.62286376953125 C 219.10427856445312 397.7517395019531 208.3642578125 407.07940673828125 207.4931640625 419.456787109375 C 207.41854858398438 420.5166015625 207.41925048828125 421.5804443359375 207.49517822265625 422.6402587890625 C 207.7845458984375 426.6671142578125 209.29071044921875 430.7677001953125 212.3636474609375 433.3831787109375 C 214.9603271484375 435.59368896484375 218.38784790039062 436.5430908203125 221.75115966796875 437.09228515625 C 230.75595092773438 438.5499267578125 239.98681640625 437.56988525390625 248.48486328125 434.2540283203125 C 250.72964477539062 433.373779296875 252.97341918945312 432.28924560546875 254.59933471679688 430.501708984375 C 257.3306884765625 427.50238037109375 257.8236389160156 422.997802734375 256.9919128417969 419.0244140625 C 255.76123046875 413.12451171875 251.92889404296875 407.93609619140625 246.9954833984375 404.4717712402344 C 242.06207275390625 401.0074768066406 236.1051025390625 399.17205810546875 230.10348510742188 398.61163330078125 L 231.48162841796875 398.62286376953125" stroke-width="0.6000000238418579" fill="rgb(143, 165, 67)" opacity="1.0"/>
    <path d="M 290.6600646972656 385.7190856933594 C 278.8291015625 392.3211364746094 280.00042724609375 412.7962646484375 292.0123291015625 418.8721923828125 C 304.0242919921875 424.947998046875 320.6475830078125 414.7408447265625 321.6685791015625 401.2268981933594 C 322.6895751953125 387.71295166015625 309.206298828125 375.3932800292969 295.6992492675781 376.64630126953125 L 290.6600646972656 385.7190856933594" stroke-width="0.6000000238418579" fill="rgb(233, 92, 21)" opacity="1.0"/>
    <path d="M 332.4117431640625 383.7413024902344 C 325.50048828125 385.52618408203125 317.4299621582031 388.3750305175781 315.6873474121094 395.3221435546875 C 315.1014709472656 398.1138000488281 315.3962707519531 401.01849365234375 316.5311584472656 403.6354675292969 C 319.1649475097656 410.18609619140625 324.8103942871094 415.0538330078125 331.67730712890625 416.6949462890625 C 337.5058898925781 418.072265625 343.55078125 416.896484375 349.36578369140625 415.624755859375 C 352.63116455078125 414.905029296875 356.0775451660156 414.036376953125 358.3885192871094 411.6452331542969 C 361.4427490234375 408.4327697753906 361.577880859375 403.4579772949219 361.0301208496094 399.06072998046875 C 360.23651123046875 392.6242980957031 358.4063415527344 386.3587951660156 355.6106262207031 380.5071716308594 C 354.6407775878906 378.4871826171875 353.4903564453125 376.43829345703125 351.6343994140625 375.1842041015625 C 349.84906005859375 374.1064147949219 347.7886657714844 373.5713806152344 345.7044982910156 373.64434814453125 C 339.3738098144531 373.6197509765625 333.35101318359375 376.37353515625 329.2281494140625 381.177734375 L 332.4117431640625 383.7413024902344" stroke-width="0.6000000238418579" fill="rgb(70, 150, 179)" opacity="1.0"/>
    <path d="M 297.5833435058594 395.1228942871094 C 289.4862060546875 395.5382080078125 280.5285949707031 396.3385314941406 274.995849609375 402.2580261230469 C 269.0562744140625 408.6204833984375 269.40264892578125 418.90478515625 273.1784973144531 426.7469482421875 C 274.6330261230469 429.771240234375 276.6290283203125 432.6773681640625 279.53521728515625 434.3546142578125 C 281.9237365722656 435.734375 284.72607421875 436.17755126953125 287.4708557128906 436.444580078125 C 296.12554931640625 437.297119140625 305.57421875 436.43951416015625 312.2458190917969 430.86383056640625 C 318.96588134765625 425.23974609375 321.48358154296875 415.08966064453125 318.1210021972656 406.9891662597656 C 314.7583923339844 398.888671875 305.85552978515625 393.42718505859375 297.1106872558594 394.1719970703125 L 297.5833435058594 395.1228942871094" stroke-width="0.6000000238418579" fill="rgb(140, 28, 33)" opacity="1.0"/>
    <path d="M 338.0 390.0 C 336.530517578125 391.10382080078125 335.0135803222656 392.2685852050781 334.1399841308594 393.8870849609375 C 333.2664489746094 395.50555419921875 333.2257995605469 397.7335205078125 334.53955078125 399.0201721191406 C 336.164794921875 400.60479736328125 339.1308898925781 399.9276123046875 340.4920654296875 398.10595703125 C 341.85321044921875 396.2843322753906 341.9209289550781 393.7854919433594 341.4468994140625 391.5643005371094 C 341.3690490722656 390.8620300292969 341.0307922363281 390.2144775390625 340.49884033203125 389.7494201660156 C 339.92999267578125 389.3498840332031 338.9345397949219 389.5327453613281 338.79229736328125 390.2166748046875 L 338.0 390.0" stroke-width="0.6000000238418579" fill="rgb(159, 159, 159)" opacity="1.0"/>
    <path d="M 346.78265380859375 389.7931823730469 C 339.29949951171875 390.4734191894531 331.88641357421875 393.7323303222656 327.1076965332031 399.52587890625 C 322.3289489746094 405.3194274902344 320.5723571777344 413.763916015625 323.5930480957031 420.67431640625 C 325.73492431640625 425.557373046875 330.0350341796875 429.3009033203125 334.90753173828125 431.47808837890625 C 339.7800598144531 433.6552734375 345.1933288574219 434.384521484375 350.53106689453125 434.3851318359375 C 352.8539123535156 434.384033203125 355.2903747558594 434.21478271484375 357.24664306640625 432.97344970703125 C 359.4901123046875 431.5513916015625 360.690673828125 428.98675537109375 361.6613464355469 426.50555419921875 C 364.4017333984375 419.5006103515625 366.1729431152344 411.8088073730469 364.5417175292969 404.46490478515625 C 362.91046142578125 397.1210021972656 357.15625 390.3206787109375 349.7174072265625 389.3322448730469 L 346.78265380859375 389.7931823730469" stroke-width="0.6000000238418579" fill="rgb(159, 159, 159)" opacity="1.0"/>
    <path d="M 264.713623046875 388.4981384277344 C 257.52178955078125 385.3771667480469 249.39251708984375 382.2196044921875 242.086181640625 385.0197448730469 C 234.9769287109375 387.73291015625 231.00625610351562 395.1564636230469 227.78005981445312 402.0518798828125 C 226.47357177734375 404.8549499511719 225.1514892578125 407.8082580566406 225.326171875 410.8941955566406 C 225.61856079101562 416.1136474609375 230.02117919921875 420.1279296875 234.50042724609375 422.808349609375 C 238.656982421875 425.29791259765625 243.14947509765625 427.1776123046875 247.84036254882812 428.39013671875 C 255.45635986328125 430.3616943359375 264.6160583496094 430.0906982421875 269.8516540527344 424.22265625 C 272.6827697753906 421.05877685546875 273.9010314941406 416.6875 274.0003356933594 412.4365234375 C 274.0995788574219 408.185546875 273.1651611328125 403.9814147949219 272.18353271484375 399.8441467285156 C 271.2018737792969 395.7068786621094 270.148681640625 391.6626281738281 267.61688232421875 388.3733825683594 L 264.713623046875 388.4981384277344" stroke-width="0.6000000238418579" fill="rgb(218, 166, 20)" opacity="1.0"/>
    <path d="M 267.0 393.0 C 254.68817138671875 391.8609619140625 243.78408813476562 400.9183044433594 242.64505004882812 413.2301025390625 C 242.5474853515625 414.284423828125 242.52490234375 415.34423828125 242.57733154296875 416.4017333984375 C 242.77740478515625 420.41986083984375 244.18804931640625 424.53802490234375 247.192138671875 427.21099853515625 C 249.73065185546875 429.47015380859375 253.12451171875 430.4910888671875 256.4631652832031 431.11187744140625 C 265.4022521972656 432.7613525390625 274.6199645996094 431.9873046875 283.15875244140625 428.8699951171875 C 285.4143981933594 428.042236328125 287.67352294921875 427.010986328125 289.33251953125 425.2657470703125 C 292.11932373046875 422.3375244140625 292.7091064453125 417.86065673828125 291.96759033203125 413.8839111328125 C 290.87078857421875 407.97918701171875 287.1665344238281 402.7262878417969 282.3275146484375 399.1669006347656 C 277.4884948730469 395.60748291015625 271.5941162109375 393.6484069824219 265.6272888183594 392.9586181640625 L 267.0 393.0" stroke-width="0.6000000238418579" fill="rgb(143, 165, 67)" opacity="1.0"/>
    <path d="M 219.84014892578125 387.7088623046875 C 207.87911987304688 394.0835876464844 208.6549072265625 414.5855712890625 220.55181884765625 420.8948974609375 C 232.44879150390625 427.2042236328125 249.2728271484375 417.3162841796875 250.55526733398438 403.81927490234375 C 251.83770751953125 390.322265625 238.58978271484375 377.7394104003906 225.05572509765625 378.7315979003906 L 219.84014892578125 387.7088623046875" stroke-width="0.6000000238418579" fill="rgb(233, 92, 21)" opacity="1.0"/>
    <path d="M 265.77276611328125 386.7191162109375 C 258.8094787597656 388.2829895019531 250.65383911132812 390.8732604980469 248.6915283203125 397.7602233886719 C 248.01724243164062 400.5313415527344 248.219482421875 403.44342041015625 249.2703857421875 406.0946960449219 C 251.69406127929688 412.724609375 257.1808776855469 417.7685546875 263.9908752441406 419.626953125 C 269.7716979980469 421.1885986328125 275.849853515625 420.2059326171875 281.70135498046875 419.11993408203125 C 284.98736572265625 418.50457763671875 288.45904541015625 417.74609375 290.844482421875 415.43011474609375 C 293.998779296875 412.31695556640625 294.2920227050781 407.349853515625 293.88446044921875 402.93817138671875 C 293.29608154296875 396.48089599609375 291.6664123535156 390.16143798828125 289.0586853027344 384.22491455078125 C 288.1537170410156 382.17547607421875 287.0692443847656 380.0914001464844 285.2544250488281 378.7791442871094 C 283.50457763671875 377.64532470703125 281.4626159667969 377.0451354980469 279.3775329589844 377.0517578125 C 273.0519714355469 376.82586669921875 266.9456787109375 379.38623046875 262.6728820800781 384.0560607910156 L 265.77276611328125 386.7191162109375" stroke-width="0.6000000238418579" fill="rgb(70, 150, 179)" opacity="1.0"/>
    <path d="M 339.0408630371094 382.90985107421875 C 332.00933837890625 378.90032958984375 324.0470886230469 374.7513122558594 316.208740234375 376.75006103515625 C 307.7898864746094 378.9022216796875 302.5450439453125 387.735595703125 301.49822998046875 396.3617248535156 C 301.0932312011719 399.68743896484375 301.2070617675781 403.2053527832031 302.7476501464844 406.17999267578125 C 304.01318359375 408.6258239746094 306.1307678222656 410.5069580078125 308.2947998046875 412.208984375 C 315.1126403808594 417.5845947265625 323.5185852050781 421.9498291015625 332.12939453125 420.85321044921875 C 340.8070068359375 419.741943359375 348.3876647949219 412.563232421875 349.9209899902344 403.9423522949219 C 351.45428466796875 395.32147216796875 346.9088134765625 385.93707275390625 339.15533447265625 381.8559265136719 L 339.0408630371094 382.90985107421875" stroke-width="0.6000000238418579" fill="rgb(140, 28, 33)" opacity="1.0"/>
    <path d="M 353.0 389.0 C 351.530517578125 390.10382080078125 350.0135803222656 391.2685852050781 349.1399841308594 392.8870849609375 C 348.2664489746094 394.50555419921875 348.2257995605469 396.7335205078125 349.53955078125 398.0201721191406 C 351.164794921875 399.60479736328125 354.1308898925781 398.9276123046875 355.4920654296875 397.10595703125 C 356.85321044921875 395.2843322753906 356.9209289550781 392.7854919433594 356.4468994140625 390.5643005371094 C 356.3690490722656 389.8620300292969 356.0307922363281 389.2144775390625 355.49884033203125 388.7494201660156 C 354.92999267578125 388.3498840332031 353.9345397949219 388.5327453613281 353.79229736328125 389.2166748046875 L 353.0 389.0" stroke-width="0.6000000238418579" fill="rgb(159, 159, 159)" opacity="1.0"/>
    <path d="M 191.1878662109375 394.0760498046875 C 183.65997314453125 394.5971984863281 176.14666748046875 397.7088623046875 171.22348022460938 403.42230224609375 C 166.30029296875 409.1357727050781 164.35400390625 417.57611083984375 167.23739624023438 424.57958984375 C 169.2822265625 429.528564453125 173.51861572265625 433.380126953125 178.36361694335938 435.67138671875 C 183.2086181640625 437.962646484375 188.6278076171875 438.81195068359375 193.9869384765625 438.927978515625 C 196.31915283203125 438.9771728515625 198.76904296875 438.85986328125 200.760009765625 437.6558837890625 C 203.04324340820312 436.276611328125 204.3040771484375 433.7276611328125 205.33233642578125 431.2574462890625 C 208.23516845703125 424.28369140625 210.17984008789062 416.599365234375 208.70086669921875 409.1907043457031 C 207.22189331054688 401.78204345703125 201.5916748046875 394.8299865722656 194.14434814453125 393.6767272949219 L 191.1878662109375 394.0760498046875" stroke-width="0.6000000238418579" fill="rgb(159, 159, 159)" opacity="1.0"/>
    <path d="M 362.83758544921875 382.9582824707031 C 355.03955078125 383.766357421875 346.40667724609375 385.00238037109375 341.413330078125 391.02642822265625 C 336.5490417480469 396.87799072265625 336.7303771972656 405.29473876953125 337.3013610839844 412.88604736328125 C 337.537841796875 415.9696044921875 337.83441162109375 419.191650390625 339.5003662109375 421.79510498046875 C 342.3153991699219 426.20001220703125 348.12103271484375 427.53857421875 353.33917236328125 427.67718505859375 C 358.18243408203125 427.8077392578125 363.01934814453125 427.24212646484375 367.70184326171875 425.9976806640625 C 375.3056335449219 423.9798583984375 383.1546936035156 419.250732421875 384.8386535644531 411.5690002441406 C 385.7538146972656 407.4232177734375 384.6712341308594 403.0164489746094 382.67254638671875 399.26336669921875 C 380.673828125 395.51025390625 377.7973327636719 392.3050231933594 374.9124755859375 389.1812744140625 C 372.02764892578125 386.0574951171875 369.12603759765625 383.04986572265625 365.30633544921875 381.4254455566406 L 362.83758544921875 382.9582824707031" stroke-width="0.6000000238418579" fill="rgb(218, 166, 20)" opacity="1.0"/>
    <path d="M 365.0 389.0 C 352.68817138671875 387.8609619140625 341.7840881347656 396.9183044433594 340.6450500488281 409.2301330566406 C 340.5474853515625 410.2843933105469 340.52490234375 411.3442687988281 340.57733154296875 412.4017333984375 C 340.7773742675781 416.41986083984375 342.18804931640625 420.53802490234375 345.1921691894531 423.21099853515625 C 347.73065185546875 425.47015380859375 351.12451171875 426.4910888671875 354.4631652832031 427.11187744140625 C 363.4022521972656 428.7613525390625 372.6199645996094 427.9873046875 381.15875244140625 424.8699951171875 C 383.4143981933594 424.042236328125 385.67352294921875 423.010986328125 387.33251953125 421.2657470703125 C 390.11932373046875 418.3375244140625 390.7091064453125 413.86065673828125 389.96759033203125 409.8839416503906 C 388.87078857421875 403.97918701171875 385.1665344238281 398.7262878417969 380.3275146484375 395.1669006347656 C 375.4884948730469 391.60748291015625 369.5941162109375 389.6484069824219 363.6272888183594 388.9586181640625 L 365.0 389.0" stroke-width="0.6000000238418579" fill="rgb(143, 165, 67)" opacity="1.0"/>
    <path d="M 365.40264892578125 384.0794677734375 C 353.4415588378906 390.43878173828125 354.1963195800781 410.93072509765625 366.08062744140625 417.2486572265625 C 377.9649658203125 423.56658935546875 394.7900390625 413.7008056640625 396.0853576660156 400.21221923828125 C 397.38067626953125 386.7236328125 384.15240478515625 374.1341247558594 370.62451171875 375.1122131347656 L 365.40264892578125 384.0794677734375" stroke-width="0.6000000238418579" fill="rgb(233, 92, 21)" opacity="1.0"/>
    <path d="M 379.88836669921875 383.7547912597656 C 372.9831848144531 385.5689697265625 364.92291259765625 388.4521789550781 363.2090148925781 395.40802001953125 C 362.63470458984375 398.2026672363281 362.94171142578125 401.1067199707031 364.0877990722656 403.719482421875 C 366.7495422363281 410.26043701171875 372.41650390625 415.10552978515625 379.29168701171875 416.71826171875 C 385.1272277832031 418.0714111328125 391.16845703125 416.8701171875 396.97930908203125 415.57379150390625 C 400.2423400878906 414.84033203125 403.685791015625 413.95703125 405.98724365234375 411.55572509765625 C 409.02862548828125 408.329833984375 409.14300537109375 403.35345458984375 408.57672119140625 398.95758056640625 C 407.7560119628906 392.5231628417969 405.8992614746094 386.2640075683594 403.0784606933594 380.42291259765625 C 402.0999450683594 378.4065856933594 400.94073486328125 376.362060546875 399.0791320800781 375.115478515625 C 397.2889404296875 374.0449523925781 395.22589111328125 373.5184326171875 393.1416015625 373.60015869140625 C 386.80950927734375 373.60205078125 380.7969970703125 376.3815612792969 376.6933898925781 381.20404052734375 L 379.88836669921875 383.7547912597656" stroke-width="0.6000000238418579" fill="rgb(70, 150, 179)" opacity="1.0"/>
    <path d="M 381.2492370605469 394.19110107421875 C 373.2484436035156 395.53326416015625 364.4365539550781 397.3568420410156 359.6164855957031 403.87579345703125 C 354.44287109375 410.8816833496094 355.967529296875 421.06439208984375 360.6207275390625 428.426025390625 C 362.41363525390625 431.26513671875 364.7311706542969 433.92474365234375 367.8123779296875 435.2584228515625 C 370.34490966796875 436.355712890625 373.1812438964844 436.474609375 375.940185546875 436.42498779296875 C 384.64068603515625 436.279052734375 393.9341125488281 434.3421630859375 399.9256591796875 428.0343017578125 C 405.9598083496094 421.6727294921875 407.29742431640625 411.2947082519531 403.02532958984375 403.62884521484375 C 398.75323486328125 395.9630126953125 389.27703857421875 391.55615234375 380.6702880859375 393.3001708984375 L 381.2492370605469 394.19110107421875" stroke-width="0.6000000238418579" fill="rgb(140, 28, 33)" opacity="1.0"/>
    <path d="M 398.0 391.0 C 396.530517578125 392.10382080078125 395.0135803222656 393.2685852050781 394.1399841308594 394.8870849609375 C 393.2664489746094 396.50555419921875 393.2257995605469 398.7335205078125 394.53955078125 400.0201721191406 C 396.164794921875 401.60479736328125 399.1308898925781 400.9276123046875 400.4920654296875 399.10595703125 C 401.85321044921875 397.2843322753906 401.9209289550781 394.7854919433594 401.4468994140625 392.5643005371094 C 401.3690490722656 391.8620300292969 401.0307922363281 391.2144775390625 400.49884033203125 390.7494201660156 C 399.92999267578125 390.3498840332031 398.9345397949219 390.5327453613281 398.79229736328125 391.2166748046875 L 398.0 391.0" stroke-width="0.6000000238418579" fill="rgb(159, 159, 159)" opacity="1.0"/>
    <path d="M 413.27734375 384.3498840332031 C 406.8852233886719 388.2806396484375 401.70062255859375 394.4870910644531 399.9979248046875 401.79132080078125 C 398.29522705078125 409.0955810546875 400.4728698730469 417.42950439453125 406.2430725097656 422.2701416015625 C 410.3269958496094 425.68743896484375 415.835693359375 427.12713623046875 421.1610107421875 426.9114990234375 C 426.486328125 426.6959228515625 431.652587890625 424.9449462890625 436.427734375 422.57574462890625 C 438.50518798828125 421.54345703125 440.60955810546875 420.31036376953125 441.8084716796875 418.3314208984375 C 443.18402099609375 416.063232421875 443.119384765625 413.236083984375 442.8861083984375 410.58551025390625 C 442.22760009765625 403.1025695800781 440.397216796875 395.43548583984375 435.677490234375 389.5901794433594 C 430.95782470703125 383.744873046875 422.791259765625 380.21624755859375 415.697998046875 382.6346130371094 L 413.27734375 384.3498840332031" stroke-width="0.6000000238418579" fill="rgb(159, 159, 159)" opacity="1.0"/>
    <path d="M 413.41461181640625 391.0504150390625 C 405.92523193359375 393.4605712890625 397.704833984375 396.4639892578125 394.0507507324219 403.41424560546875 C 390.48760986328125 410.1683654785156 392.4106140136719 418.39520263671875 394.54510498046875 425.73077392578125 C 395.41656494140625 428.70947265625 396.37579345703125 431.811767578125 398.55133056640625 434.022705078125 C 402.2286682128906 437.7642822265625 408.2067565917969 437.875 413.35919189453125 436.9293212890625 C 418.141845703125 436.0533447265625 422.77398681640625 434.4952392578125 427.11376953125 432.30255126953125 C 434.16162109375 428.744873046875 440.88818359375 422.4739990234375 440.9490966796875 414.5821533203125 C 440.98822021484375 410.3216552734375 439.0115966796875 406.21905517578125 436.27099609375 402.9482421875 C 433.5303955078125 399.6774597167969 430.0413818359375 397.1265869140625 426.5611572265625 394.65740966796875 C 423.0809326171875 392.1882629394531 419.6082763671875 389.83660888671875 415.5208740234375 389.03350830078125 L 413.41461181640625 391.0504150390625" stroke-width="0.6000000238418579" fill="rgb(218, 166, 20)" opacity="1.0"/>
    <path d="M 148.41981506347656 244.72332763671875 C 136.5308380126953 248.2469482421875 129.7493896484375 260.7413330078125 133.2730255126953 272.63031005859375 C 133.57473754882812 273.64837646484375 133.9483184814453 274.64373779296875 134.3909149169922 275.6089172363281 C 136.07334899902344 279.276123046875 138.92034912109375 282.5857238769531 142.71310424804688 283.9562683105469 C 145.91812133789062 285.1147766113281 149.45864868164062 284.8017578125 152.79881286621094 284.13671875 C 161.73712158203125 282.3442687988281 170.032470703125 278.1911926269531 176.8231201171875 272.1089782714844 C 178.61541748046875 270.4982604980469 180.33511352539062 268.6967468261719 181.23013305664062 266.4538879394531 C 182.73492431640625 262.6894226074219 181.6171875 258.3009338378906 179.4459228515625 254.8739013671875 C 176.2259521484375 249.78375244140625 170.82058715820312 246.271484375 164.9891357421875 244.75875854492188 C 159.15765380859375 243.24603271484375 152.93931579589844 243.61651611328125 147.12611389160156 245.1959228515625 L 148.41981506347656 244.72332763671875" stroke-width="0.6000000238418579" fill="rgb(143, 165, 67)" opacity="1.0"/>
    <path d="M 150.290771484375 271.18646240234375 C 138.44261169433594 277.798828125 139.6166229248047 298.30419921875 151.6466064453125 304.3885498046875 C 163.6766357421875 310.47283935546875 180.32403564453125 300.2497863769531 181.34591674804688 286.71575927734375 C 182.3677978515625 273.1817626953125 168.86395263671875 260.844482421875 155.3369903564453 262.1000061035156 L 150.290771484375 271.18646240234375" stroke-width="0.6000000238418579" fill="rgb(233, 92, 21)" opacity="1.0"/>
    <path d="M 151.21563720703125 329.83245849609375 C 144.29273986816406 331.5748291015625 136.20388793945312 334.3741149902344 134.41822814941406 341.31109619140625 C 133.81504821777344 344.099365234375 134.09193420410156 347.0061340332031 135.21078491210938 349.6303405761719 C 137.80435180664062 356.1978454589844 143.42025756835938 361.1008605957031 150.27764892578125 362.7845764160156 C 156.0982666015625 364.19793701171875 162.15093994140625 363.0594177246094 167.97433471679688 361.8234558105469 C 171.24444580078125 361.1238708496094 174.69650268554688 360.27642822265625 177.0224609375 357.8993225097656 C 180.0968017578125 354.7054443359375 180.26266479492188 349.73101806640625 179.74200439453125 345.3299865722656 C 178.98809814453125 338.8880920410156 177.19644165039062 332.6106872558594 174.43658447265625 326.74127197265625 C 173.4791259765625 324.71514892578125 172.34124755859375 322.658935546875 170.49285888671875 321.3932800292969 C 168.71405029296875 320.30438232421875 166.65673828125 319.7565612792969 164.57196044921875 319.8166809082031 C 158.2408447265625 319.75299072265625 152.2004852294922 322.4698181152344 148.04759216308594 327.2490234375 L 151.21563720703125 329.83245849609375" stroke-width="0.6000000238418579" fill="rgb(70, 150, 179)" opacity="1.0"/>
    <path d="M 137.7384033203125 294.21881103515625 C 130.72296142578125 290.11566162109375 122.77462768554688 285.8621826171875 114.88284301757812 287.782470703125 C 106.40653991699219 289.850341796875 101.04324340820312 298.6612243652344 99.8970947265625 307.31036376953125 C 99.45376586914062 310.6448974609375 99.52925109863281 314.1781311035156 101.04318237304688 317.18170166015625 C 102.28678894042969 319.6512756347656 104.39208984375 321.56329345703125 106.5460205078125 323.2960205078125 C 113.33184814453125 328.76837158203125 121.72328186035156 333.2438049316406 130.38064575195312 332.23779296875 C 139.10525512695312 331.2178649902344 146.7954864501953 324.093994140625 148.43002319335938 315.4555358886719 C 150.0645751953125 306.8170471191406 145.6044464111328 297.3449401855469 137.86495971679688 293.16192626953125 L 137.7384033203125 294.21881103515625" stroke-width="0.6000000238418579" fill="rgb(140, 28, 33)" opacity="1.0"/>
    <path d="M 144.0 264.0 C 142.53050231933594 265.10382080078125 141.01358032226562 266.2685852050781 140.13999938964844 267.8870849609375 C 139.2664337158203 269.50555419921875 139.22579956054688 271.7335205078125 140.53956604003906 273.0201721191406 C 142.164794921875 274.60479736328125 145.1309051513672 273.9276123046875 146.4920654296875 272.10595703125 C 147.8532257080078 270.2843322753906 147.92092895507812 267.7854919433594 147.4468994140625 265.5643005371094 C 147.36904907226562 264.8620300292969 147.03079223632812 264.2144775390625 146.49884033203125 263.7494201660156 C 145.9300079345703 263.3498840332031 144.9345245361328 263.5327453613281 144.79229736328125 264.2166748046875 L 144.0 264.0" stroke-width="0.6000000238418579" fill="rgb(159, 159, 159)" opacity="1.0"/>
    <path d="M 149.97027587890625 281.7073059082031 C 143.4942626953125 285.50738525390625 138.1791534423828 291.6090393066406 136.32460021972656 298.8809814453125 C 134.4700469970703 306.1529235839844 136.4761199951172 314.5352478027344 142.14845275878906 319.497314453125 C 146.16329956054688 323.0004577636719 151.64439392089844 324.5547180175781 156.976318359375 324.44921875 C 162.30828857421875 324.34375 167.5128173828125 322.69903564453125 172.33895874023438 320.42767333984375 C 174.4385986328125 319.43798828125 176.5693359375 318.2478942871094 177.8096923828125 316.29296875 C 179.23272705078125 314.0523376464844 179.2265625 311.2226867675781 179.048095703125 308.5662536621094 C 178.54412841796875 301.066650390625 176.87164306640625 293.3586120605469 172.27105712890625 287.41326904296875 C 167.67041015625 281.4679260253906 159.5736083984375 277.7688903808594 152.42739868164062 280.04144287109375 L 149.97027587890625 281.7073059082031" stroke-width="0.6000000238418579" fill="rgb(159, 159, 159)" opacity="1.0"/>
    <path d="M 138.70263671875 344.7989501953125 C 131.6412811279297 341.3229064941406 123.64166259765625 337.7650451660156 116.18028259277344 340.2209777832031 C 108.92070007324219 342.59918212890625 104.58148193359375 349.85198974609375 101.01422119140625 356.6109924316406 C 99.56910705566406 359.35888671875 98.10111999511719 362.25665283203125 98.12762451171875 365.3595275878906 C 98.16940307617188 370.60748291015625 102.39080810546875 374.8449401855469 106.7532958984375 377.74853515625 C 110.80140686035156 380.4451599121094 115.21574401855469 382.5465087890625 119.86117553710938 383.98828125 C 127.40322875976562 386.3321228027344 136.60128784179688 386.5016784667969 142.1339874267578 380.86956787109375 C 145.12533569335938 377.8333740234375 146.55752563476562 373.50872802734375 146.8618621826172 369.25079345703125 C 147.16616821289062 364.99285888671875 146.4316864013672 360.7320861816406 145.6466064453125 356.5361022949219 C 144.86155700683594 352.34014892578125 144.00025939941406 348.2339782714844 141.61990356445312 344.8136901855469 L 138.70263671875 344.7989501953125" stroke-width="0.6000000238418579" fill="rgb(218, 166, 20)" opacity="1.0"/>
    <path d="M 151.26461791992188 335.20062255859375 C 139.53109741210938 339.1669006347656 133.23451232910156 351.89410400390625 137.20079040527344 363.62762451171875 C 137.54042053222656 364.63238525390625 137.95091247558594 365.61175537109375 138.4291534423828 366.55841064453125 C 140.2469940185547 370.1551513671875 143.21372985839844 373.3509521484375 147.0511474609375 374.57562255859375 C 150.2939453125 375.61083984375 153.8159942626953 375.16461181640625 157.124755859375 374.3746032714844 C 165.97857666015625 372.24774169921875 174.10137939453125 367.7890319824219 180.64947509765625 361.46160888671875 C 182.37753295898438 359.7861633300781 184.02593994140625 357.9230651855469 184.83453369140625 355.65057373046875 C 186.19424438476562 351.8363037109375 184.91275024414062 347.4983215332031 182.6160888671875 344.15972900390625 C 179.20977783203125 339.2008056640625 173.681884765625 335.8994140625 167.80416870117188 334.6098937988281 C 161.926513671875 333.3203430175781 155.73382568359375 333.92510986328125 149.9912109375 335.7212219238281 L 151.26461791992188 335.20062255859375" stroke-width="0.6000000238418579" fill="rgb(143, 165, 67)" opacity="1.0"/>
    <path d="M 145.44610595703125 375.1856994628906 C 132.1952362060547 372.2615661621094 119.45516967773438 388.3741760253906 124.409912109375 400.9130554199219 C 129.36471557617188 413.451904296875 148.6021270751953 416.8634033203125 158.35440063476562 407.4219970703125 C 168.10665893554688 397.98052978515625 166.2025146484375 379.7872314453125 155.25389099121094 371.7425537109375 L 145.44610595703125 375.1856994628906" stroke-width="0.6000000238418579" fill="rgb(233, 92, 21)" opacity="1.0"/>
    <path d="M 165.23663330078125 377.9228515625 C 158.3240966796875 379.72894287109375 150.25428771972656 382.6033020019531 148.52978515625 389.56170654296875 C 147.95127868652344 392.3575439453125 148.25457763671875 395.2640380859375 149.39794921875 397.88018798828125 C 152.0526885986328 404.4293518066406 157.71710205078125 409.2854919433594 164.59490966796875 410.90869140625 C 170.4327392578125 412.27069091796875 176.47979736328125 411.07672119140625 182.29653930664062 409.7873229980469 C 185.56283569335938 409.0577087402344 189.0098876953125 408.17852783203125 191.31622314453125 405.77862548828125 C 194.36410522460938 402.5545654296875 194.48529052734375 397.5748596191406 193.924560546875 393.1751403808594 C 193.11199951171875 386.7350769042969 191.26239013671875 380.4690246582031 188.447509765625 374.6199951171875 C 187.47103881835938 372.6009216308594 186.31378173828125 370.55340576171875 184.45257568359375 369.3034362792969 C 182.66253662109375 368.229736328125 180.5987548828125 367.7000427246094 178.51287841796875 367.77899169921875 C 172.17636108398438 367.7723388671875 166.15585327148438 370.5456848144531 162.0428466796875 375.365966796875 L 165.23663330078125 377.9228515625" stroke-width="0.6000000238418579" fill="rgb(70, 150, 179)" opacity="1.0"/>
  </g>
</svg>
