<?xml version="1.0" ?>
<svg xmlns="http://www.w3.org/2000/svg" version="1.1" width="600" height="600">
  <defs/>
  <g>
    <path d="M 354.1939697265625 344.6216125488281 C 358.44561767578125 347.9259338378906 365.75555419921875 344.3199157714844 366.1145935058594 338.98193359375 C 366.4736328125 333.6439514160156 360.1592102050781 329.1455993652344 355.05609130859375 330.86920166015625 C 349.9529724121094 332.5928039550781 347.5377197265625 339.4381103515625 350.09228515625 344.185791015625 L 354.1939697265625 344.6216125488281" stroke-width="0.6000000238418579" fill="rgb(233, 92, 21)" opacity="1.0"/>
    <path d="M 121.150146484375 207.18206787109375 C 125.04637145996094 205.89111328125 129.56661987304688 203.94488525390625 130.29806518554688 199.891845703125 C 130.5263671875 198.267578125 130.24505615234375 196.61248779296875 129.4928436279297 195.1549072265625 C 127.728759765625 191.49835205078125 124.30180358886719 188.92367553710938 120.2987060546875 188.247314453125 C 116.9014892578125 187.68228149414062 113.47879028320312 188.59033203125 110.19169616699219 189.5445556640625 C 108.3460693359375 190.0836181640625 106.40234375 190.715087890625 105.1688232421875 192.17620849609375 C 103.54061889648438 194.13723754882812 103.65524291992188 196.99664306640625 104.13934326171875 199.498291015625 C 104.84326171875 203.160400390625 106.13528442382812 206.68438720703125 107.96527099609375 209.93362426757812 C 108.5997314453125 211.0550537109375 109.33889770507812 212.1861572265625 110.4521484375 212.833984375 C 111.51806640625 213.38336181640625 112.7208251953125 213.61074829101562 113.91374206542969 213.48837280273438 C 117.54678344726562 213.25796508789062 120.89584350585938 211.4454345703125 123.07568359375 208.52987670898438 L 121.150146484375 207.18206787109375" stroke-width="0.6000000238418579" fill="rgb(70, 150, 179)" opacity="1.0"/>
    <path d="M 454.94036865234375 416.5867919921875 C 456.9808349609375 420.17236328125 459.39312744140625 424.06097412109375 463.34906005859375 425.22216796875 C 467.599365234375 426.4669189453125 472.19488525390625 423.9576416015625 474.89605712890625 420.44793701171875 C 475.9381103515625 419.09521484375 476.8026123046875 417.5233154296875 476.900390625 415.8187255859375 C 476.9813232421875 414.41748046875 476.54193115234375 413.0423583984375 476.03558349609375 411.7336730957031 C 474.44384765625 407.6047668457031 471.893310546875 403.5060119628906 467.83319091796875 401.74853515625 C 463.739990234375 399.9801330566406 458.550537109375 401.1568908691406 455.637451171875 404.5378112792969 C 452.724365234375 407.91876220703125 452.27783203125 413.2144775390625 454.6162109375 417.01910400390625 L 454.94036865234375 416.5867919921875" stroke-width="0.6000000238418579" fill="rgb(140, 28, 33)" opacity="1.0"/>
    <path d="M 89.46759033203125 207.2762451171875 C 93.19038391113281 206.10589599609375 97.05126953125 204.8470458984375 99.94511413574219 202.2247314453125 C 102.83892822265625 199.60247802734375 104.49630737304688 195.17074584960938 102.77632141113281 191.66546630859375 C 100.64350891113281 187.34332275390625 94.22624206542969 186.60086059570312 90.2125244140625 189.28497314453125 C 86.19882202148438 191.96908569335938 84.29560852050781 196.9239501953125 83.67337036132812 201.70611572265625 C 83.33242797851562 203.16717529296875 83.55157470703125 204.702880859375 84.28756713867188 206.01022338867188 C 85.14376831054688 207.2125244140625 87.26608276367188 207.55062866210938 88.03465270996094 206.28195190429688 L 89.46759033203125 207.2762451171875" stroke-width="0.6000000238418579" fill="rgb(159, 159, 159)" opacity="1.0"/>
    <path d="M 382.5132751464844 302.4125061035156 C 386.4169616699219 301.0765075683594 389.94793701171875 298.3739013671875 391.7439270019531 294.6617126464844 C 393.5399169921875 290.94952392578125 393.37890625 286.2160949707031 390.8687744140625 282.92230224609375 C 389.09112548828125 280.5957946777344 386.3102722167969 279.1578674316406 383.4277648925781 278.6300048828125 C 380.54522705078125 278.1021423339844 377.5625 278.4170227050781 374.7148132324219 279.1108093261719 C 373.4757385253906 279.4134826660156 372.19793701171875 279.82061767578125 371.31573486328125 280.73724365234375 C 370.3038024902344 281.78765869140625 369.996826171875 283.31195068359375 369.8016357421875 284.7618713378906 C 369.2506103515625 288.8552551269531 369.3059387207031 293.18902587890625 371.1311950683594 296.8947448730469 C 372.9564208984375 300.6004943847656 376.9105224609375 303.4800720214844 381.007568359375 303.0400390625 L 382.5132751464844 302.4125061035156" stroke-width="0.6000000238418579" fill="rgb(159, 159, 159)" opacity="1.0"/>
    <path d="M 101.72709655761719 428.7476806640625 C 103.64759826660156 425.8909912109375 105.6585693359375 422.6324462890625 105.03155517578125 419.25469970703125 C 104.42642211914062 415.9688720703125 101.53738403320312 413.6630859375 98.81709289550781 411.72076416015625 C 97.71084594726562 410.933349609375 96.54100036621094 410.1272277832031 95.19464111328125 409.9568176269531 C 92.91767883300781 409.6672668457031 90.83366394042969 411.2484436035156 89.31947326660156 412.968994140625 C 87.91342163085938 414.56536865234375 86.743896484375 416.3553466796875 85.8466796875 418.2841796875 C 84.38870239257812 421.4156494140625 83.7760009765625 425.3922119140625 85.89263916015625 428.1202392578125 C 87.033203125 429.5947265625 88.82357788085938 430.468994140625 90.65115356445312 430.8504638671875 C 92.47874450683594 431.23199462890625 94.36843872070312 431.1634521484375 96.2330322265625 431.0692138671875 C 98.09762573242188 430.97491455078125 99.92776489257812 430.84234619140625 101.5496826171875 430.01123046875 L 101.72709655761719 428.7476806640625" stroke-width="0.6000000238418579" fill="rgb(218, 166, 20)" opacity="1.0"/>
    <path d="M 99.62846374511719 144.8843536376953 C 106.93646240234375 145.51405334472656 113.37124633789062 140.1002197265625 114.00094604492188 132.79222106933594 C 114.05487060546875 132.16644287109375 114.0643310546875 131.53762817382812 114.02926635742188 130.91049194335938 C 113.89556884765625 128.52757263183594 113.0433349609375 126.08984375 111.251220703125 124.51535034179688 C 109.73687744140625 123.18466186523438 107.7197265625 122.59170532226562 105.73680114746094 122.23590087890625 C 100.42770385742188 121.290771484375 94.96240234375 121.78443908691406 89.9085693359375 123.66558837890625 C 88.57354736328125 124.16506958007812 87.23721313476562 124.78530883789062 86.25958251953125 125.82681274414062 C 84.6173095703125 127.5743408203125 84.28414916992188 130.2323455810547 84.73892211914062 132.58868408203125 C 85.41162109375 136.08746337890625 87.62875366210938 139.18978881835938 90.5126953125 141.2832489013672 C 93.39663696289062 143.376708984375 96.90068054199219 144.51686096191406 100.44296264648438 144.9037628173828 L 99.62846374511719 144.8843536376953" stroke-width="0.6000000238418579" fill="rgb(143, 165, 67)" opacity="1.0"/>
    <path d="M 460.36541748046875 345.2115478515625 C 463.57275390625 352.15338134765625 475.14617919921875 352.3736267089844 479.08154296875 345.8744812011719 C 483.016845703125 339.37530517578125 477.9864501953125 329.5815734863281 470.4248046875 328.426513671875 C 462.86328125 327.271484375 455.350830078125 334.33050537109375 455.475830078125 341.9858703613281 L 460.36541748046875 345.2115478515625" stroke-width="0.6000000238418579" fill="rgb(233, 92, 21)" opacity="1.0"/>
    <path d="M 102.4681396484375 220.35455322265625 C 105.23590087890625 217.853271484375 108.28265380859375 214.57830810546875 107.40606689453125 210.93911743164062 C 107.00086975097656 209.50445556640625 106.16046142578125 208.23086547851562 105.00076293945312 207.2940673828125 C 102.19375610351562 204.89898681640625 98.39997863769531 204.0130615234375 94.822509765625 204.91717529296875 C 91.789794921875 205.69186401367188 89.27557373046875 207.701171875 86.89108276367188 209.69921875 C 85.55343627929688 210.82379150390625 84.16806030273438 212.06118774414062 83.67739868164062 213.72845458984375 C 83.04161071777344 215.95611572265625 84.1845703125 218.29248046875 85.50381469726562 220.1959228515625 C 87.43104553222656 222.98406982421875 89.79684448242188 225.44183349609375 92.50946044921875 227.4739990234375 C 93.44807434082031 228.17431640625 94.477294921875 228.84429931640625 95.64060974121094 228.97525024414062 C 96.72850036621094 229.04168701171875 97.81222534179688 228.7901611328125 98.7596435546875 228.25128173828125 C 101.69708251953125 226.72854614257812 103.81866455078125 223.993896484375 104.56355285644531 220.7701416015625 L 102.4681396484375 220.35455322265625" stroke-width="0.6000000238418579" fill="rgb(70, 150, 179)" opacity="1.0"/>
    <path d="M 102.89044189453125 80.08148193359375 C 103.56605529785156 83.99014282226562 104.47903442382812 88.29423522949219 107.67808532714844 90.63519287109375 C 111.1160888671875 93.1478271484375 116.09115600585938 92.377685546875 119.6793212890625 90.08470153808594 C 121.06314086914062 89.20120239257812 122.35789489746094 88.06161499023438 123.00251770019531 86.55184936523438 C 123.53289794921875 85.31094360351562 123.58416748046875 83.92384338378906 123.55322265625 82.57501220703125 C 123.46078491210938 78.32131958007812 122.49125671386719 73.78207397460938 119.39256286621094 70.86782836914062 C 116.26751708984375 67.93287658691406 111.19001770019531 67.30400085449219 107.45220947265625 69.411376953125 C 103.71440124511719 71.51875305175781 101.58267211914062 76.1627197265625 102.45623779296875 80.36669921875 L 102.89044189453125 80.08148193359375" stroke-width="0.6000000238418579" fill="rgb(140, 28, 33)" opacity="1.0"/>
    <path d="M 91.7445068359375 410.06341552734375 C 95.7979736328125 408.417724609375 99.99769592285156 406.6606140136719 102.99310302734375 403.4678039550781 C 105.98846435546875 400.2750244140625 107.43801879882812 395.1726989746094 105.19790649414062 391.41217041015625 C 102.42236328125 386.7763977050781 95.18452453613281 386.5294494628906 90.94343566894531 389.8929748535156 C 86.70234680175781 393.25653076171875 85.025634765625 398.9656982421875 84.7645263671875 404.3656311035156 C 84.5162353515625 406.02911376953125 84.90052795410156 407.72515869140625 85.84161376953125 409.119140625 C 86.90744018554688 410.3847961425781 89.30953979492188 410.56988525390625 90.05313110351562 409.0825500488281 L 91.7445068359375 410.06341552734375" stroke-width="0.6000000238418579" fill="rgb(159, 159, 159)" opacity="1.0"/>
    <path d="M 478.2183837890625 67.55918884277344 C 479.79638671875 64.03384399414062 480.200927734375 59.89105224609375 478.80645751953125 56.29130554199219 C 477.4119873046875 52.69157409667969 474.0689697265625 49.7794189453125 470.21142578125 49.39459228515625 C 467.48370361328125 49.1259765625 464.7237548828125 50.111480712890625 462.5218505859375 51.7476806640625 C 460.3199462890625 53.383880615234375 458.6309814453125 55.62677001953125 457.28765869140625 58.0191650390625 C 456.70367431640625 59.06062316894531 456.16650390625 60.19532775878906 456.230712890625 61.384521484375 C 456.3035888671875 62.747955322265625 457.15106201171875 63.931365966796875 458.01898193359375 64.99078369140625 C 460.46929931640625 67.981689453125 463.4713134765625 70.71099853515625 467.173583984375 71.82768249511719 C 470.875732421875 72.94436645507812 475.37176513671875 72.07623291015625 477.6865234375 68.99061584472656 L 478.2183837890625 67.55918884277344" stroke-width="0.6000000238418579" fill="rgb(159, 159, 159)" opacity="1.0"/>
    <path d="M 88.14212036132812 107.83432006835938 C 92.56417846679688 108.48391723632812 97.50765991210938 109.01443481445312 101.11323547363281 106.38795471191406 C 104.62327575683594 103.83863830566406 105.70614624023438 99.16282653808594 106.45768737792969 94.8883056640625 C 106.76043701171875 93.15139770507812 107.04946899414062 91.32949829101562 106.49496459960938 89.65689086914062 C 105.55877685546875 86.82745361328125 102.53924560546875 85.27188110351562 99.67567443847656 84.46183776855469 C 97.01808166503906 83.70895385742188 94.26615905761719 83.34159851074219 91.50411987304688 83.3709716796875 C 87.01934814453125 83.41705322265625 82.01795959472656 84.92669677734375 80.00782775878906 88.93423461914062 C 78.91946411132812 91.09617614746094 78.898193359375 93.68313598632812 79.47496032714844 96.03767395019531 C 80.05172729492188 98.3922119140625 81.19050598144531 100.56744384765625 82.3453369140625 102.6988525390625 C 83.50016784667969 104.83024597167969 84.68057250976562 106.89982604980469 86.56268310546875 108.334228515625 L 88.14212036132812 107.83432006835938" stroke-width="0.6000000238418579" fill="rgb(218, 166, 20)" opacity="1.0"/>
    <path d="M 127.91943359375 136.2412567138672 C 134.8839874267578 135.64822387695312 140.0491180419922 129.52159118652344 139.45608520507812 122.55705261230469 C 139.40530395507812 121.96067810058594 139.31227111816406 121.36865234375 139.17770385742188 120.78543090820312 C 138.66598510742188 118.5694580078125 137.47064208984375 116.41844177246094 135.53260803222656 115.23037719726562 C 133.89492797851562 114.22622680664062 131.90464782714844 113.99632263183594 129.98495483398438 113.98355102539062 C 124.84634399414062 113.95645141601562 119.79420471191406 115.30574035644531 115.35333251953125 117.8912353515625 C 114.18063354492188 118.57664489746094 113.02629089355469 119.37562561035156 112.27703857421875 120.5120849609375 C 111.01809692382812 122.41921997070312 111.13601684570312 124.96917724609375 111.94491577148438 127.10818481445312 C 113.14364624023438 130.28463745117188 115.72836303710938 132.8385467529297 118.77578735351562 134.33700561523438 C 121.82318115234375 135.83546447753906 125.29838562011719 136.33824157714844 128.6874237060547 136.1274871826172 L 127.91943359375 136.2412567138672" stroke-width="0.6000000238418579" fill="rgb(143, 165, 67)" opacity="1.0"/>
    <path d="M 392.1504211425781 309.1038513183594 C 395.7669372558594 317.96246337890625 410.2210388183594 318.8923645019531 415.50775146484375 310.9911193847656 C 420.79443359375 303.08984375 415.0604248046875 290.56329345703125 405.6739196777344 288.69183349609375 C 396.2873840332031 286.8203430175781 386.4976806640625 295.2190856933594 386.2209777832031 304.7952575683594 L 392.1504211425781 309.1038513183594" stroke-width="0.6000000238418579" fill="rgb(233, 92, 21)" opacity="1.0"/>
    <path d="M 123.17718505859375 109.67007446289062 C 127.09721374511719 108.68844604492188 131.67796325683594 107.10931396484375 132.69345092773438 103.18368530273438 C 133.03677368164062 101.60574340820312 132.8820037841797 99.96011352539062 132.25042724609375 98.473876953125 C 130.78671264648438 94.75445556640625 127.61102294921875 91.9752197265625 123.73040771484375 91.01748657226562 C 120.43649291992188 90.2135009765625 117.00946044921875 90.85389709472656 113.71218872070312 91.54960632324219 C 111.860595703125 91.94342041015625 109.90591430664062 92.42079162597656 108.58766174316406 93.76483154296875 C 106.84521484375 95.57072448730469 106.74797058105469 98.386474609375 107.03973388671875 100.87812805175781 C 107.462158203125 104.52520751953125 108.47210693359375 108.07986450195312 110.03042602539062 111.40422058105469 C 110.571044921875 112.55180358886719 111.21377563476562 113.71652221679688 112.25923156738281 114.43421936035156 C 113.26544189453125 115.05181884765625 114.42962646484375 115.36331176757812 115.60983276367188 115.3306884765625 C 119.19363403320312 115.37100219726562 122.61473083496094 113.83717346191406 124.96878051757812 111.13461303710938 L 123.17718505859375 109.67007446289062" stroke-width="0.6000000238418579" fill="rgb(70, 150, 179)" opacity="1.0"/>
    <path d="M 421.8505859375 64.375732421875 C 423.80572509765625 67.51515197753906 426.1046142578125 70.91287231445312 429.6895751953125 71.81256103515625 C 433.5411376953125 72.7767333984375 437.568603515625 70.36575317382812 439.8636474609375 67.12591552734375 C 440.7490234375 65.87715148925781 441.4676513671875 64.43841552734375 441.49468994140625 62.90802001953125 C 441.5174560546875 61.64994812011719 441.07501220703125 60.43373107910156 440.574951171875 59.279388427734375 C 439.0025634765625 55.637298583984375 436.572265625 52.0562744140625 432.8729248046875 50.626129150390625 C 429.14349365234375 49.187347412109375 424.53662109375 50.42572021484375 422.0472412109375 53.5577392578125 C 419.55780029296875 56.689727783203125 419.3458251953125 61.44941711425781 421.5755615234375 64.77447509765625 L 421.8505859375 64.375732421875" stroke-width="0.6000000238418579" fill="rgb(140, 28, 33)" opacity="1.0"/>
    <path d="M 115.84834289550781 424.4832763671875 C 117.92010498046875 421.0615234375 120.03814697265625 417.4781494140625 120.48876953125 413.5006103515625 C 120.9393310546875 409.523193359375 119.21316528320312 404.99090576171875 115.51583862304688 403.4587707519531 C 110.9476318359375 401.57769775390625 105.50729370117188 405.3525390625 104.23690795898438 410.13604736328125 C 102.96652221679688 414.9195556640625 104.85784912109375 420.02081298828125 107.61782836914062 424.1217041015625 C 108.34500122070312 425.4766845703125 109.55368041992188 426.5098876953125 111.00537109375 427.017333984375 C 112.4783935546875 427.362548828125 114.34033203125 426.185302734375 114.07244873046875 424.688720703125 L 115.84834289550781 424.4832763671875" stroke-width="0.6000000238418579" fill="rgb(159, 159, 159)" opacity="1.0"/>
    <path d="M 468.0863037109375 446.11181640625 C 468.4832763671875 443.0672607421875 467.8458251953125 439.82037353515625 465.96246337890625 437.3975830078125 C 464.0791015625 434.9747314453125 460.86883544921875 433.520263671875 457.8436279296875 434.10760498046875 C 455.705322265625 434.525634765625 453.82861328125 435.9058837890625 452.525390625 437.654296875 C 451.22216796875 439.40277099609375 450.447998046875 441.49609375 449.9710693359375 443.6243896484375 C 449.76409912109375 444.55072021484375 449.614013671875 445.537353515625 449.934326171875 446.42822265625 C 450.301025390625 447.44976806640625 451.2164306640625 448.157470703125 452.11907958984375 448.76611328125 C 454.66748046875 450.484375 457.5762939453125 451.87744140625 460.6502685546875 451.8828125 C 463.7242431640625 451.88818359375 466.9495849609375 450.2010498046875 468.00799560546875 447.32318115234375 L 468.0863037109375 446.11181640625" stroke-width="0.6000000238418579" fill="rgb(159, 159, 159)" opacity="1.0"/>
    <path d="M 453.46484375 289.86444091796875 C 454.9364013671875 285.5277404785156 456.38427734375 280.6435546875 454.4033203125 276.5245056152344 C 452.48248291015625 272.5160217285156 447.9700927734375 270.5608825683594 443.8009033203125 269.0137939453125 C 442.1063232421875 268.3877868652344 440.32354736328125 267.7599182128906 438.535400390625 268.0097961425781 C 435.5108642578125 268.4306335449219 433.38525390625 271.1864318847656 432.0399169921875 273.92279052734375 C 430.7901611328125 276.4621276855469 429.9114990234375 279.1677551269531 429.430908203125 281.95684814453125 C 428.6488037109375 286.4852600097656 429.246337890625 291.8047180175781 432.9139404296875 294.5709533691406 C 434.89178466796875 296.0672302246094 437.49505615234375 296.5665588378906 439.974609375 296.4202575683594 C 442.45416259765625 296.27392578125 444.8568115234375 295.528076171875 447.21826171875 294.7579345703125 C 449.5797119140625 293.98779296875 451.883544921875 293.18048095703125 453.6768798828125 291.5486145019531 L 453.46484375 289.86444091796875" stroke-width="0.6000000238418579" fill="rgb(218, 166, 20)" opacity="1.0"/>
    <path d="M 427.03594970703125 363.7650146484375 C 425.610107421875 369.0301208496094 428.72247314453125 374.4541931152344 433.987548828125 375.8800354003906 C 434.43841552734375 376.00213623046875 434.8973388671875 376.0920715332031 435.3609619140625 376.14923095703125 C 437.12255859375 376.36602783203125 439.01904296875 376.0642395019531 440.407958984375 374.9606018066406 C 441.581787109375 374.028076171875 442.2821044921875 372.630126953125 442.8043212890625 371.2259521484375 C 444.197021484375 367.4653625488281 444.55743408203125 363.40045166015625 443.84808349609375 359.4534912109375 C 443.6588134765625 358.4105224609375 443.38134765625 357.35064697265625 442.748291015625 356.4976501464844 C 441.6861572265625 355.0650329589844 439.78497314453125 354.4702453613281 438.00048828125 354.4919128417969 C 435.35107421875 354.522216796875 432.7879638671875 355.7351379394531 430.87506103515625 357.56927490234375 C 428.962158203125 359.4034118652344 427.66510009765625 361.8172607421875 426.9141845703125 364.3585205078125 L 427.03594970703125 363.7650146484375" stroke-width="0.6000000238418579" fill="rgb(143, 165, 67)" opacity="1.0"/>
    <path d="M 450.85699462890625 346.72674560546875 C 456.74188232421875 342.57366943359375 454.9757080078125 331.8145751953125 448.284912109375 329.2752990722656 C 441.5941162109375 326.73602294921875 433.3775634765625 333.0635070800781 433.5948486328125 340.26519775390625 C 433.8121337890625 347.4668884277344 441.6304931640625 353.22467041015625 448.701171875 351.80560302734375 L 450.85699462890625 346.72674560546875" stroke-width="0.6000000238418579" fill="rgb(233, 92, 21)" opacity="1.0"/>
    <path d="M 452.82275390625 72.58523559570312 C 455.96826171875 71.16427612304688 459.5782470703125 69.14065551757812 459.8349609375 65.68685913085938 C 459.8836669921875 64.30841064453125 459.50341796875 62.948822021484375 458.74658203125 61.79566955566406 C 456.950927734375 58.89207458496094 453.85931396484375 57.0389404296875 450.4521484375 56.82391357421875 C 447.5614013671875 56.64892578125 444.77838134765625 57.708160400390625 442.11285400390625 58.794158935546875 C 440.616455078125 59.4066162109375 439.046142578125 60.105010986328125 438.14251708984375 61.43505859375 C 436.9525146484375 63.2177734375 437.298828125 65.59915161132812 437.9228515625 67.64898681640625 C 438.8323974609375 70.65008544921875 440.2215576171875 73.48419189453125 442.0367431640625 76.0413818359375 C 442.66552734375 76.9237060546875 443.3828125 77.804931640625 444.37060546875 78.24922180175781 C 445.3101806640625 78.61532592773438 446.3360595703125 78.70014953613281 447.322998046875 78.49331665039062 C 450.34130859375 77.98239135742188 452.9835205078125 76.17314147949219 454.55120849609375 73.5438232421875 L 452.82275390625 72.58523559570312" stroke-width="0.6000000238418579" fill="rgb(70, 150, 179)" opacity="1.0"/>
    <path d="M 452.35791015625 398.15679931640625 C 452.68353271484375 394.23419189453125 452.87982177734375 389.8726501464844 450.390869140625 386.82659912109375 C 447.71527099609375 383.55609130859375 442.744873046875 383.0553283691406 438.72686767578125 384.3630065917969 C 437.177490234375 384.8665466308594 435.6497802734375 385.6382751464844 434.6541748046875 386.9276123046875 C 433.8353271484375 387.98724365234375 433.4403076171875 389.30670166015625 433.1336669921875 390.60992431640625 C 432.161865234375 394.718505859375 431.9613037109375 399.3200378417969 434.21087646484375 402.8916931152344 C 436.4805908203125 406.4897766113281 441.2005615234375 408.3597717285156 445.3160400390625 407.2676696777344 C 449.4315185546875 406.1755676269531 452.6368408203125 402.2467041015625 452.8460693359375 397.9911193847656 L 452.35791015625 398.15679931640625" stroke-width="0.6000000238418579" fill="rgb(140, 28, 33)" opacity="1.0"/>
    <path d="M 126.10415649414062 213.83859252929688 C 121.39346313476562 216.76336669921875 116.52395629882812 219.85870361328125 113.46664428710938 224.48928833007812 C 110.40939331054688 229.11981201171875 109.6925048828125 235.80429077148438 113.29701232910156 240.0216064453125 C 117.75802612304688 245.21749877929688 126.85234069824219 243.97430419921875 131.4291229248047 238.86337280273438 C 136.00592041015625 233.75247192382812 136.87646484375 226.26119995117188 136.04493713378906 219.45974731445312 C 135.99847412109375 217.32852172851562 135.15481567382812 215.292236328125 133.68038940429688 213.752685546875 C 132.07762145996094 212.400146484375 129.0372772216797 212.68389892578125 128.42727661132812 214.7012939453125 L 126.10415649414062 213.83859252929688" stroke-width="0.6000000238418579" fill="rgb(159, 159, 159)" opacity="1.0"/>
    <path d="M 109.44903564453125 235.52484130859375 C 104.45478820800781 233.30465698242188 98.591064453125 232.7471923828125 93.50228881835938 234.7333984375 C 88.41351318359375 236.7196044921875 84.30474853515625 241.46075439453125 83.77413940429688 246.9207763671875 C 83.40390014648438 250.78155517578125 84.80841064453125 254.6834716796875 87.13165283203125 257.7933349609375 C 89.45492553710938 260.9032287597656 92.63482666015625 263.28509521484375 96.02503967285156 265.1773681640625 C 97.50086975097656 265.99993896484375 99.10845947265625 266.7559814453125 100.791015625 266.660888671875 C 102.72006225585938 266.5527648925781 104.3916015625 265.34930419921875 105.88758850097656 264.1173095703125 C 110.11102294921875 260.6391906738281 113.9622802734375 256.3813171386719 115.52908325195312 251.138427734375 C 117.09585571289062 245.89556884765625 115.85116577148438 239.53665161132812 111.47650146484375 236.27224731445312 L 109.44903564453125 235.52484130859375" stroke-width="0.6000000238418579" fill="rgb(159, 159, 159)" opacity="1.0"/>
    <path d="M 298.61907958984375 98.64433288574219 C 296.871826171875 103.36015319824219 295.13397216796875 108.67770385742188 297.1833801269531 113.25953674316406 C 299.1701354980469 117.71817016601562 304.06414794921875 120.00155639648438 308.5937805175781 121.82656860351562 C 310.4349670410156 122.56524658203125 312.3728942871094 123.30867004394531 314.3434143066406 123.08871459960938 C 317.6763610839844 122.71868896484375 320.09344482421875 119.75814819335938 321.65350341796875 116.79522705078125 C 323.1025390625 114.04570007324219 324.1492614746094 111.10234069824219 324.76165771484375 108.05526733398438 C 325.7577819824219 103.10800170898438 325.2635192871094 97.25048828125 321.321533203125 94.10244750976562 C 319.1958923339844 92.39981079101562 316.3533630371094 91.77253723144531 313.62701416015625 91.8577880859375 C 310.90069580078125 91.94305419921875 308.24053955078125 92.68878173828125 305.6249084472656 93.46241760253906 C 303.00927734375 94.23605346679688 300.4556884765625 95.05224609375 298.4375 96.78910827636719 L 298.61907958984375 98.64433288574219" stroke-width="0.6000000238418579" fill="rgb(218, 166, 20)" opacity="1.0"/>
    <path d="M 225.8201904296875 121.33869934082031 C 219.22900390625 114.49565124511719 208.33840942382812 114.29147338867188 201.495361328125 120.88267517089844 C 200.90936279296875 121.44708251953125 200.36419677734375 122.05233764648438 199.8638916015625 122.69390869140625 C 197.96322631835938 125.13204956054688 196.7166748046875 128.23609924316406 197.12265014648438 131.2992706298828 C 197.46548461914062 133.8878936767578 198.92755126953125 136.18553161621094 200.55831909179688 138.22268676757812 C 204.9310302734375 143.66964721679688 210.68243408203125 147.84642028808594 217.215087890625 150.31918334960938 C 218.94293212890625 150.9698944091797 220.77496337890625 151.5039520263672 222.6162109375 151.32138061523438 C 225.70751953125 151.01669311523438 228.2979736328125 148.7081298828125 229.86279296875 146.02224731445312 C 232.18878173828125 142.03631591796875 232.6705322265625 137.12071228027344 231.64199829101562 132.62075805664062 C 230.61346435546875 128.1208038330078 228.16754150390625 124.02212524414062 225.04232788085938 120.62554931640625 L 225.8201904296875 121.33869934082031" stroke-width="0.6000000238418579" fill="rgb(143, 165, 67)" opacity="1.0"/>
    <path d="M 219.2958984375 89.70634460449219 C 219.9610595703125 101.25375366210938 236.1260986328125 107.98004150390625 245.26748657226562 101.01559448242188 C 254.4088134765625 94.05110168457031 252.75921630859375 77.47952270507812 242.7581787109375 71.66184997558594 C 232.75714111328125 65.84417724609375 218.2713623046875 71.61337280273438 214.20315551757812 82.45608520507812 L 219.2958984375 89.70634460449219" stroke-width="0.6000000238418579" fill="rgb(233, 92, 21)" opacity="1.0"/>
    <path d="M 198.16314697265625 98.06851196289062 C 196.787841796875 92.79838562011719 194.59844970703125 86.64573669433594 189.29412841796875 85.32948303222656 C 187.162841796875 84.8878173828125 184.947021484375 85.11837768554688 182.95236206054688 85.98941040039062 C 177.95904541015625 88.01174926757812 174.25567626953125 92.32888793945312 173.01666259765625 97.57177734375 C 171.97705078125 102.02191162109375 172.88589477539062 106.63214111328125 173.86752319335938 111.0667724609375 C 174.4229736328125 113.55699157714844 175.09246826171875 116.18505859375 176.92144775390625 117.94380187988281 C 179.37860107421875 120.26808166503906 183.17486572265625 120.36158752441406 186.52908325195312 119.93511962890625 C 191.43881225585938 119.317138671875 196.21612548828125 117.90853881835938 200.67575073242188 115.76396179199219 C 202.2152099609375 115.02001953125 203.7763671875 114.13824462890625 204.72970581054688 112.71965026855469 C 205.54864501953125 111.35528564453125 205.95294189453125 109.78208923339844 205.89321899414062 108.19192504882812 C 205.89974975585938 103.36129760742188 203.786865234375 98.77096557617188 200.11309814453125 95.63433837890625 L 198.16314697265625 98.06851196289062" stroke-width="0.6000000238418579" fill="rgb(70, 150, 179)" opacity="1.0"/>
    <path d="M 262.6749267578125 130.8450164794922 C 259.2062683105469 134.31349182128906 255.5072021484375 138.3036651611328 255.42132568359375 143.20506286621094 C 255.332275390625 148.47030639648438 259.65631103515625 152.94931030273438 264.5309143066406 154.94134521484375 C 266.4100036621094 155.71018981933594 268.4844665527344 156.20651245117188 270.4696960449219 155.78196716308594 C 272.1017761230469 155.43359375 273.5401306152344 154.496826171875 274.8812255859375 153.50424194335938 C 279.11419677734375 150.37924194335938 283.0106506347656 146.164306640625 283.74737548828125 140.95574951171875 C 284.48626708984375 135.70579528808594 281.50311279296875 130.126220703125 276.7094421386719 127.85064697265625 C 271.915771484375 125.57510375976562 265.7032165527344 126.73046875 262.07720947265625 130.60948181152344 L 262.6749267578125 130.8450164794922" stroke-width="0.6000000238418579" fill="rgb(140, 28, 33)" opacity="1.0"/>
    <path d="M 303.88824462890625 122.97801208496094 C 298.74285888671875 124.56764221191406 293.40631103515625 126.27847290039062 289.3949279785156 129.87745666503906 C 285.38360595703125 133.47640991210938 283.066162109375 139.58079528808594 285.4158020019531 144.4297637939453 C 288.3295593261719 150.40882873535156 297.1802062988281 151.4772186279297 302.7373962402344 147.8005828857422 C 308.2945861816406 144.12396240234375 310.9548034667969 137.29931640625 311.84613037109375 130.70425415039062 C 312.32659912109375 128.6903533935547 312.03466796875 126.569580078125 311.0279235839844 124.76043701171875 C 309.8546142578125 123.095458984375 306.9281311035156 122.6143798828125 305.85888671875 124.35989379882812 L 303.88824462890625 122.97801208496094" stroke-width="0.6000000238418579" fill="rgb(159, 159, 159)" opacity="1.0"/>
    <path d="M 195.50189208984375 134.16700744628906 C 191.82891845703125 129.7287139892578 186.55535888671875 126.4521484375 180.8201904296875 125.94015502929688 C 175.08502197265625 125.42814636230469 168.98272705078125 127.97634887695312 165.92086791992188 132.88145446777344 C 163.760498046875 136.35215759277344 163.256103515625 140.6941375732422 163.99044799804688 144.71942138671875 C 164.72479248046875 148.74472045898438 166.6092529296875 152.48460388183594 168.921875 155.86097717285156 C 169.92916870117188 157.3297119140625 171.092041015625 158.79739379882812 172.72488403320312 159.496826171875 C 174.59652709960938 160.299560546875 176.73886108398438 159.94757080078125 178.72885131835938 159.48635864257812 C 184.34695434570312 158.18417358398438 189.9794921875 155.9713592529297 193.9176025390625 151.7572784423828 C 197.85574340820312 147.54315185546875 199.6634521484375 140.95684814453125 197.06512451171875 135.823486328125 L 195.50189208984375 134.16700744628906" stroke-width="0.6000000238418579" fill="rgb(159, 159, 159)" opacity="1.0"/>
    <path d="M 279.1837463378906 96.44931030273438 C 274.2896728515625 98.46920776367188 268.93719482421875 100.92642211914062 266.8602294921875 105.7852783203125 C 264.833740234375 110.50770568847656 266.5665588378906 115.92266845703125 268.3932189941406 120.7283935546875 C 269.13818359375 122.6795654296875 269.9486083984375 124.70889282226562 271.5269775390625 126.07489013671875 C 274.19512939453125 128.38674926757812 278.21112060546875 128.13917541503906 281.6164245605469 127.2274169921875 C 284.7774353027344 126.38238525390625 287.80072021484375 125.08782958984375 290.5937805175781 123.38337707519531 C 295.1298828125 120.61749267578125 299.304443359375 116.0489501953125 298.9204406738281 110.75189208984375 C 298.7173156738281 107.89189147949219 297.1705627441406 105.24630737304688 295.1560974121094 103.1998291015625 C 293.1416320800781 101.15335083007812 290.6639709472656 99.63006591796875 288.1965026855469 98.1611328125 C 285.7290344238281 96.69219970703125 283.2730407714844 95.30168151855469 280.488037109375 94.98300170898438 L 279.1837463378906 96.44931030273438" stroke-width="0.6000000238418579" fill="rgb(218, 166, 20)" opacity="1.0"/>
    <path d="M 233.6290283203125 119.130615234375 C 231.57992553710938 129.06761169433594 237.97430419921875 138.78427124023438 247.91131591796875 140.83338928222656 C 248.76220703125 141.0088653564453 249.62451171875 141.1237335205078 250.49169921875 141.1771697998047 C 253.78677368164062 141.37962341308594 257.2735900878906 140.6038818359375 259.726806640625 138.3971405029297 C 261.8001708984375 136.53250122070312 262.9415283203125 133.8575897216797 263.7515869140625 131.19129943847656 C 265.9101257324219 124.05133056640625 266.11749267578125 116.46360778808594 264.3522033691406 109.21636962890625 C 263.8823547363281 107.30148315429688 263.24688720703125 105.36528015136719 261.97454833984375 103.85354614257812 C 259.8400573730469 101.31439208984375 256.24273681640625 100.42608642578125 252.93212890625 100.66900634765625 C 248.016845703125 101.02621459960938 243.39593505859375 103.5692138671875 240.0528564453125 107.19171142578125 C 236.70977783203125 110.81419372558594 234.57583618164062 115.4429931640625 233.47039794921875 120.246337890625 L 233.6290283203125 119.130615234375" stroke-width="0.6000000238418579" fill="rgb(143, 165, 67)" opacity="1.0"/>
    <path d="M 254.78359985351562 85.54864501953125 C 255.31182861328125 96.845947265625 271.04583740234375 103.59335327148438 280.0572814941406 96.880615234375 C 289.06866455078125 90.16786193847656 287.6309814453125 73.94786071777344 277.9141540527344 68.15400695800781 C 268.19732666015625 62.36015319824219 253.97314453125 67.84774780273438 249.88088989257812 78.40599060058594 L 254.78359985351562 85.54864501953125" stroke-width="0.6000000238418579" fill="rgb(233, 92, 21)" opacity="1.0"/>
    <path d="M 339.6913757324219 76.73594665527344 C 336.12908935546875 73.00088500976562 331.4864807128906 68.90870666503906 326.48583984375 70.25625610351562 C 324.5166320800781 70.86997985839844 322.7864074707031 72.07962036132812 321.53387451171875 73.71835327148438 C 318.32562255859375 77.68960571289062 317.2412109375 82.96951293945312 318.6245422363281 87.8837890625 C 319.8086853027344 92.0494384765625 322.6810607910156 95.45208740234375 325.5330810546875 98.67575073242188 C 327.1380920410156 100.48402404785156 328.9009704589844 102.3541259765625 331.22509765625 102.97079467773438 C 334.3297424316406 103.76737976074219 337.51861572265625 102.09979248046875 340.1021728515625 100.20449829101562 C 343.88671875 97.43545532226562 347.1980895996094 94.07209777832031 349.90789794921875 90.24490356445312 C 350.8416442871094 88.92074584960938 351.7300109863281 87.47238159179688 351.867919921875 85.85856628417969 C 351.9194030761719 84.35148620605469 351.5312194824219 82.86196899414062 350.7507629394531 81.5716552734375 C 348.5356140136719 77.56558227539062 344.6745910644531 74.73291015625 340.1883239746094 73.82241821289062 L 339.6913757324219 76.73594665527344" stroke-width="0.6000000238418579" fill="rgb(70, 150, 179)" opacity="1.0"/>
    <path d="M 334.3561706542969 137.7784881591797 C 333.4789733886719 133.15457153320312 332.3125305175781 128.066162109375 328.4720153808594 125.35096740722656 C 324.3447265625 122.43670654296875 318.4575500488281 123.44670104980469 314.24517822265625 126.2364501953125 C 312.6206359863281 127.31137084960938 311.106689453125 128.68836975097656 310.3711853027344 130.491943359375 C 309.7659912109375 131.974365234375 309.7320556640625 133.62091064453125 309.79486083984375 135.22048950195312 C 309.9869079589844 140.26499938964844 311.2250061035156 145.63131713867188 314.9575500488281 149.028564453125 C 318.72174072265625 152.4498748779297 324.7575378417969 153.0976104736328 329.1510314941406 150.52516174316406 C 333.54449462890625 147.95272827148438 335.9835205078125 142.40211486816406 334.8657531738281 137.43170166015625 L 334.3561706542969 137.7784881591797" stroke-width="0.6000000238418579" fill="rgb(140, 28, 33)" opacity="1.0"/>
    <path d="M 345.4661560058594 105.14366149902344 C 340.2506103515625 104.10958862304688 334.8121337890625 103.091064453125 329.6385498046875 104.33462524414062 C 324.465087890625 105.57820129394531 319.5870666503906 109.79306030273438 319.352294921875 115.10783386230469 C 319.0771179199219 121.66899108886719 326.26373291015625 126.75091552734375 332.8164978027344 126.1654052734375 C 339.3692321777344 125.57989501953125 344.8830261230469 120.9002685546875 348.7525329589844 115.58987426757812 C 350.1150817871094 114.06600952148438 350.8568420410156 112.08682250976562 350.8314208984375 110.04281616210938 C 350.5936584472656 108.04586791992188 348.27740478515625 106.2545166015625 346.52935791015625 107.26889038085938 L 345.4661560058594 105.14366149902344" stroke-width="0.6000000238418579" fill="rgb(159, 159, 159)" opacity="1.0"/>
    <path d="M 345.60992431640625 120.88731384277344 C 340.9726257324219 122.35244750976562 336.7362976074219 125.43830871582031 334.51617431640625 129.7623748779297 C 332.2960510253906 134.08645629882812 332.3533935546875 139.66860961914062 335.2191162109375 143.62008666992188 C 337.2487487792969 146.4112548828125 340.4853820800781 148.18341064453125 343.86724853515625 148.8860321044922 C 347.2491760253906 149.5886688232422 350.7726745605469 149.301025390625 354.1476745605469 148.56312561035156 C 355.6162109375 148.24114990234375 357.13330078125 147.79710388183594 358.198486328125 146.74166870117188 C 359.4202880859375 145.53221130371094 359.82464599609375 143.74462890625 360.0951843261719 142.04156494140625 C 360.85894775390625 137.23348999023438 360.9149475097656 132.1251983642578 358.8677978515625 127.70748901367188 C 356.82061767578125 123.28977966308594 352.2418212890625 119.7860107421875 347.4017333984375 120.18995666503906 L 345.60992431640625 120.88731384277344" stroke-width="0.6000000238418579" fill="rgb(159, 159, 159)" opacity="1.0"/>
    <path d="M 363.5330810546875 99.76885986328125 C 359.45977783203125 100.41587829589844 354.96014404296875 101.3115234375 352.5090026855469 104.61849975585938 C 350.1207275390625 107.8311767578125 350.4561767578125 112.24737548828125 350.9727478027344 116.2188720703125 C 351.1849670410156 117.8319091796875 351.4327087402344 119.51602172851562 352.38214111328125 120.83610534667969 C 353.9866027832031 123.06971740722656 357.0745544433594 123.60719299316406 359.81964111328125 123.53109741210938 C 362.3675537109375 123.46145629882812 364.89227294921875 123.02630615234375 367.3165283203125 122.23898315429688 C 371.2532653808594 120.96202087402344 375.2414855957031 118.2537841796875 375.9068603515625 114.17044067382812 C 376.2693176269531 111.96652221679688 375.5748596191406 109.6824951171875 374.4178466796875 107.76800537109375 C 373.26080322265625 105.853515625 371.6582946777344 104.25186157226562 370.0537109375 102.69325256347656 C 368.4491271972656 101.1346435546875 366.8390808105469 99.63751220703125 364.78619384765625 98.8931884765625 L 363.5330810546875 99.76885986328125" stroke-width="0.6000000238418579" fill="rgb(218, 166, 20)" opacity="1.0"/>
    <path d="M 427.3253173828125 139.27162170410156 C 418.386962890625 139.6961212158203 411.4851379394531 147.2862091064453 411.9096374511719 156.22454833984375 C 411.94598388671875 156.98992919921875 412.03662109375 157.75177001953125 412.1807861328125 158.50436401367188 C 412.72906494140625 161.3638916015625 414.15509033203125 164.17306518554688 416.57745361328125 165.78598022460938 C 418.6243896484375 167.14920043945312 421.1595458984375 167.538818359375 423.6148681640625 167.64727783203125 C 430.1875 167.92849731445312 436.715576171875 166.44476318359375 442.5208740234375 163.35015869140625 C 444.0540771484375 162.52957153320312 445.56915283203125 161.56280517578125 446.58221435546875 160.14486694335938 C 448.2843017578125 157.76544189453125 448.255859375 154.49755859375 447.3236083984375 151.72227478027344 C 445.9425048828125 147.60104370117188 442.75830078125 144.2097625732422 438.931640625 142.14651489257812 C 435.10491943359375 140.08328247070312 430.68310546875 139.2733154296875 426.33734130859375 139.38031005859375 L 427.3253173828125 139.27162170410156" stroke-width="0.6000000238418579" fill="rgb(143, 165, 67)" opacity="1.0"/>
    <path d="M 148.84556579589844 407.29132080078125 C 152.5689239501953 417.5933837890625 169.05941772460938 419.3319091796875 175.4757080078125 410.54052734375 C 181.8919677734375 401.7491455078125 175.91766357421875 387.1524658203125 165.26785278320312 384.573486328125 C 154.6180419921875 381.9945373535156 143.02761840820312 391.1448059082031 142.26405334472656 402.0859680175781 L 148.84556579589844 407.29132080078125" stroke-width="0.6000000238418579" fill="rgb(233, 92, 21)" opacity="1.0"/>
    <path d="M 431.5103759765625 195.3455810546875 C 426.9508056640625 193.511474609375 421.3140869140625 191.79345703125 417.51031494140625 194.931884765625 C 416.045166015625 196.23974609375 415.02197265625 197.97003173828125 414.5819091796875 199.884033203125 C 413.3656005859375 204.59051513671875 414.50592041015625 209.59457397460938 417.64129638671875 213.30938720703125 C 420.30908203125 216.4537353515625 424.13958740234375 218.27151489257812 427.8819580078125 219.94219970703125 C 429.9857177734375 220.87725830078125 432.2506103515625 221.8037109375 434.50830078125 221.42254638671875 C 437.5133056640625 220.88980102539062 439.6204833984375 218.18783569335938 441.11328125 215.5269775390625 C 443.302734375 211.63555908203125 444.8480224609375 207.4154052734375 445.68896484375 203.0301513671875 C 445.9766845703125 201.51446533203125 446.176025390625 199.908935546875 445.65972900390625 198.4556884765625 C 445.110595703125 197.1290283203125 444.18719482421875 195.99078369140625 443.0023193359375 195.17984008789062 C 439.503662109375 192.58004760742188 435.040771484375 191.6458740234375 430.79315185546875 192.624267578125 L 431.5103759765625 195.3455810546875" stroke-width="0.6000000238418579" fill="rgb(70, 150, 179)" opacity="1.0"/>
    <path d="M 411.9034729003906 159.84414672851562 C 411.081787109375 154.6143341064453 409.951416015625 148.8520050048828 405.7301940917969 145.66268920898438 C 401.1936340332031 142.2393798828125 394.538818359375 143.16543579101562 389.7036437988281 146.1520233154297 C 387.83892822265625 147.302734375 386.08782958984375 148.79701232910156 385.1967468261719 150.798583984375 C 384.4635925292969 152.44371032714844 384.3668518066406 154.29368591308594 384.38055419921875 156.09429931640625 C 384.4169921875 161.77261352539062 385.6180114746094 167.84991455078125 389.6935729980469 171.80224609375 C 393.80389404296875 175.78271484375 400.5668029785156 176.7257080078125 405.59783935546875 173.9898681640625 C 410.62890625 171.2540283203125 413.568603515625 165.100341796875 412.48876953125 159.472412109375 L 411.9034729003906 159.84414672851562" stroke-width="0.6000000238418579" fill="rgb(140, 28, 33)" opacity="1.0"/>
    <path d="M 142.60696411132812 134.07144165039062 C 137.44012451171875 136.55044555664062 132.09107971191406 139.18695068359375 128.4325408935547 143.6033172607422 C 124.77407836914062 148.01963806152344 123.2908935546875 154.80775451660156 126.52342224121094 159.5435791015625 C 130.5266876220703 165.3804931640625 140.00979614257812 165.118896484375 145.283203125 160.37872314453125 C 150.55661010742188 155.6385498046875 152.28781127929688 148.03863525390625 152.19309997558594 140.9573974609375 C 152.38340759277344 138.7624053955078 151.74400329589844 136.57591247558594 150.4010009765625 134.82936096191406 C 148.90525817871094 133.26065063476562 145.74966430664062 133.21261596679688 144.8975830078125 135.21731567382812 L 142.60696411132812 134.07144165039062" stroke-width="0.6000000238418579" fill="rgb(159, 159, 159)" opacity="1.0"/>
    <path d="M 431.91278076171875 168.326171875 C 427.78265380859375 165.53311157226562 422.6055908203125 164.09426879882812 417.717529296875 165.06390380859375 C 412.8294677734375 166.03350830078125 408.3807678222656 169.6341552734375 407.0306396484375 174.45294189453125 C 406.08038330078125 177.861083984375 406.71746826171875 181.59014892578125 408.3064270019531 184.7548828125 C 409.8953857421875 187.91961669921875 412.37017822265625 190.56756591796875 415.1121826171875 192.8094482421875 C 416.3060302734375 193.78436279296875 417.62884521484375 194.7205810546875 419.1551513671875 194.90435791015625 C 420.90496826171875 195.11590576171875 422.5987548828125 194.30252075195312 424.139404296875 193.4354248046875 C 428.489013671875 190.98745727539062 432.629150390625 187.77960205078125 434.8751220703125 183.3216552734375 C 437.12109375 178.86367797851562 437.02069091796875 172.95355224609375 433.61407470703125 169.32180786132812 L 431.91278076171875 168.326171875" stroke-width="0.6000000238418579" fill="rgb(159, 159, 159)" opacity="1.0"/>
    <path d="M 411.08978271484375 191.94119262695312 C 409.4427490234375 186.97341918945312 407.3967590332031 181.52285766601562 402.75213623046875 179.13287353515625 C 398.23846435546875 176.80224609375 392.77728271484375 178.12957763671875 387.91021728515625 179.59234619140625 C 385.9339294433594 180.18948364257812 383.87591552734375 180.845703125 382.4179382324219 182.3057861328125 C 379.9505920410156 184.77383422851562 379.91192626953125 188.75103759765625 380.5711669921875 192.17288208007812 C 381.18182373046875 195.34915161132812 382.24542236328125 198.4212646484375 383.7293701171875 201.29522705078125 C 386.1371765136719 205.96258544921875 390.3478698730469 210.40036010742188 395.59783935546875 210.3946533203125 C 398.4320983886719 210.395751953125 401.1495361328125 209.05691528320312 403.3092346191406 207.2147216796875 C 405.4689025878906 205.37255859375 407.1452941894531 203.03680419921875 408.76739501953125 200.707275390625 C 410.38946533203125 198.37777709960938 411.9334411621094 196.0540771484375 412.4437255859375 193.33047485351562 L 411.08978271484375 191.94119262695312" stroke-width="0.6000000238418579" fill="rgb(218, 166, 20)" opacity="1.0"/>
    <path d="M 438.66748046875 183.2725830078125 C 439.57513427734375 192.28713989257812 447.61865234375 198.859130859375 456.6331787109375 197.95147705078125 C 457.4051513671875 197.873779296875 458.1705322265625 197.74139404296875 458.9237060546875 197.55535888671875 C 461.7855224609375 196.847900390625 464.549560546875 195.2557373046875 466.0506591796875 192.72024536132812 C 467.3193359375 190.57769775390625 467.57763671875 187.99359130859375 467.55584716796875 185.50531005859375 C 467.4884033203125 178.84487915039062 465.6387939453125 172.323974609375 462.19921875 166.6199951171875 C 461.2874755859375 165.11383056640625 460.22894287109375 163.6336669921875 458.7410888671875 162.685302734375 C 456.24420166015625 161.0916748046875 452.941650390625 161.29541015625 450.185546875 162.38650512695312 C 446.0926513671875 164.00350952148438 442.834228515625 167.4044189453125 440.9530029296875 171.3839111328125 C 439.07177734375 175.3634033203125 438.489501953125 179.87750244140625 438.830322265625 184.26568603515625 L 438.66748046875 183.2725830078125" stroke-width="0.6000000238418579" fill="rgb(143, 165, 67)" opacity="1.0"/>
    <path d="M 145.5158233642578 100.83132934570312 C 134.22589111328125 106.86831665039062 134.98526000976562 126.23321533203125 146.2311553955078 132.17750549316406 C 157.47705078125 138.1217498779297 173.35595703125 128.75991821289062 174.54983520507812 116.0091552734375 C 175.74371337890625 103.25839233398438 163.21356201171875 91.38998413085938 150.43077087402344 92.34475708007812 L 145.5158233642578 100.83132934570312" stroke-width="0.6000000238418579" fill="rgb(233, 92, 21)" opacity="1.0"/>
    <path d="M 453.3770751953125 145.65631103515625 C 450.979736328125 150.92788696289062 448.662841796875 157.47354125976562 452.1585693359375 162.11526489257812 C 453.62158203125 163.9083251953125 455.60498046875 165.2032470703125 457.83514404296875 165.82131958007812 C 463.31195068359375 167.49905395507812 469.26220703125 166.41815185546875 473.799072265625 162.92132568359375 C 477.639892578125 159.94522094726562 479.97991943359375 155.53094482421875 482.14215087890625 151.21279907226562 C 483.352783203125 148.78515625 484.561767578125 146.16732788085938 484.2310791015625 143.48977661132812 C 483.76092529296875 139.9244384765625 480.6903076171875 137.302734375 477.635986328125 135.40646362304688 C 473.16949462890625 132.62567138671875 468.2823486328125 130.58615112304688 463.1640625 129.3670196533203 C 461.39483642578125 128.94918823242188 459.5152587890625 128.63055419921875 457.777587890625 129.16241455078125 C 456.1871337890625 129.73959350585938 454.79901123046875 130.76707458496094 453.782470703125 132.1195526123047 C 450.5391845703125 136.10218811035156 449.206298828125 141.3070831298828 450.1361083984375 146.35836791992188 L 453.3770751953125 145.65631103515625" stroke-width="0.6000000238418579" fill="rgb(70, 150, 179)" opacity="1.0"/>
    <path d="M 379.9349365234375 80.05270385742188 C 380.3330383300781 73.65542602539062 380.5057067871094 66.54782104492188 376.3509521484375 61.67242431640625 C 371.88470458984375 56.4378662109375 363.7756042480469 55.78997802734375 357.2779541015625 58.05430603027344 C 354.7723693847656 58.92626953125 352.3111267089844 60.234130859375 350.7336730957031 62.366851806640625 C 349.4362487792969 64.11956787109375 348.83746337890625 66.28106689453125 348.3821716308594 68.41317749023438 C 346.9383544921875 75.13499450683594 346.7667541503906 82.63345336914062 350.5495300292969 88.37261962890625 C 354.36602783203125 94.15419006347656 362.11346435546875 97.03976440429688 368.77703857421875 95.12313842773438 C 375.44061279296875 93.20651245117188 380.52691650390625 86.7020263671875 380.72412109375 79.76651000976562 L 379.9349365234375 80.05270385742188" stroke-width="0.6000000238418579" fill="rgb(140, 28, 33)" opacity="1.0"/>
    <path d="M 136.64369201660156 413.32891845703125 C 134.28182983398438 419.03668212890625 131.88710021972656 425.001953125 132.12982177734375 431.1787109375 C 132.37258911132812 437.35546875 136.0677947998047 443.869873046875 142.06997680664062 445.34356689453125 C 149.4831085205078 447.1461181640625 156.904296875 440.111328125 157.72433471679688 432.512451171875 C 158.54437255859375 424.91357421875 154.4639129638672 417.56927490234375 149.29159545898438 411.9552917480469 C 147.8645782470703 410.0570068359375 145.7779083251953 408.7626953125 143.4432830810547 408.3277893066406 C 141.1140594482422 408.1454772949219 138.54737854003906 410.37799072265625 139.30641174316406 412.599853515625 L 136.64369201660156 413.32891845703125" stroke-width="0.6000000238418579" fill="rgb(159, 159, 159)" opacity="1.0"/>
    <path d="M 422.3406982421875 214.33633422851562 C 417.13983154296875 210.01412963867188 410.3448181152344 207.37966918945312 403.61773681640625 208.03457641601562 C 396.890625 208.689453125 390.4046325683594 212.9542236328125 387.9378356933594 219.27755737304688 C 386.1994323730469 223.75042724609375 386.560546875 228.86871337890625 388.2818603515625 233.3526611328125 C 390.003173828125 237.83663940429688 392.9892272949219 241.7415771484375 396.3902587890625 245.13421630859375 C 397.8711853027344 246.60971069335938 399.5313720703125 248.05023193359375 401.5668640136719 248.50250244140625 C 403.9002685546875 249.02203369140625 406.2951354980469 248.1507568359375 408.49053955078125 247.1865234375 C 414.6885986328125 244.4642333984375 420.70556640625 240.68841552734375 424.333251953125 234.971923828125 C 427.9609375 229.25540161132812 428.6158447265625 221.26507568359375 424.50372314453125 215.90768432617188 L 422.3406982421875 214.33633422851562" stroke-width="0.6000000238418579" fill="rgb(159, 159, 159)" opacity="1.0"/>
    <path d="M 381.7415466308594 113.26730346679688 C 375.68792724609375 113.3837890625 368.9640808105469 113.7755126953125 364.7308654785156 118.08790588378906 C 360.6081237792969 122.27590942382812 360.2021789550781 128.76507568359375 360.14959716796875 134.6442413330078 C 360.1317443847656 137.03260803222656 360.1511535644531 139.53147888183594 361.2645263671875 141.64303588867188 C 363.14544677734375 145.2154541015625 367.5266418457031 146.62184143066406 371.533447265625 147.06671142578125 C 375.2522888183594 147.48106384277344 379.0113525390625 147.3592529296875 382.6955871582031 146.70506286621094 C 388.6781311035156 145.64498901367188 395.025146484375 142.51422119140625 396.8189392089844 136.71160888671875 C 397.7919616699219 133.58038330078125 397.2444152832031 130.1188201904297 395.9494934082031 127.10096740722656 C 394.6545715332031 124.08309936523438 392.6485900878906 121.42997741699219 390.6308898925781 118.83900451660156 C 388.61322021484375 116.24801635742188 386.57513427734375 113.74534606933594 383.7408142089844 112.24765014648438 L 381.7415466308594 113.26730346679688" stroke-width="0.6000000238418579" fill="rgb(218, 166, 20)" opacity="1.0"/>
    <path d="M 404.7802429199219 82.10362243652344 C 396.6114196777344 75.49566650390625 384.6324462890625 76.76100158691406 378.02447509765625 84.92984008789062 C 377.4586181640625 85.62933349609375 376.943115234375 86.36810302734375 376.4818115234375 87.14054870605469 C 374.72955322265625 90.07603454589844 373.7861328125 93.65281677246094 374.6505432128906 96.95872497558594 C 375.3807678222656 99.75253295898438 377.2994079589844 102.07394409179688 379.3675842285156 104.08642578125 C 384.9109802246094 109.46575927734375 391.79364013671875 113.2626953125 399.300537109375 115.08282470703125 C 401.28564453125 115.56059265136719 403.3691101074219 115.89610290527344 405.36468505859375 115.44395446777344 C 408.7153015136719 114.68682861328125 411.2422790527344 111.79922485351562 412.5921630859375 108.6378173828125 C 414.59954833984375 103.94564819335938 414.4559326171875 98.48551940917969 412.7117919921875 93.68804931640625 C 410.9677429199219 88.89059448242188 407.72314453125 84.72732543945312 403.8291015625 81.42739868164062 L 404.7802429199219 82.10362243652344" stroke-width="0.6000000238418579" fill="rgb(143, 165, 67)" opacity="1.0"/>
    <path d="M 123.13229370117188 427.69586181640625 C 116.30879211425781 417.73583984375 98.23516845703125 420.4453125 93.82330322265625 431.5999755859375 C 89.4114990234375 442.7547607421875 99.82501220703125 456.67333984375 111.9002685546875 456.47705078125 C 123.97552490234375 456.28076171875 133.80795288085938 443.3111572265625 131.5943145751953 431.427490234375 L 123.13229370117188 427.69586181640625" stroke-width="0.6000000238418579" fill="rgb(233, 92, 21)" opacity="1.0"/>
    <path d="M 449.20343017578125 209.77191162109375 C 444.149169921875 212.90939331054688 438.4371337890625 217.18136596679688 438.7774658203125 223.14080810546875 C 439.00518798828125 225.50714111328125 439.9615478515625 227.74453735351562 441.5147705078125 229.54425048828125 C 445.2379150390625 234.10067749023438 450.9385986328125 236.56988525390625 456.8089599609375 236.1688232421875 C 461.787841796875 235.81585693359375 466.3043212890625 233.37823486328125 470.614013671875 230.92138671875 C 473.03271484375 229.537353515625 475.5584716796875 227.9898681640625 476.80255126953125 225.51339721679688 C 478.43377685546875 222.1988525390625 477.304931640625 218.2078857421875 475.7763671875 214.84600830078125 C 473.54541015625 209.92312622070312 470.53240966796875 205.393798828125 466.8541259765625 201.4337158203125 C 465.58062744140625 200.06787109375 464.15625 198.723876953125 462.36822509765625 198.18753051757812 C 460.68017578125 197.77386474609375 458.908203125 197.86029052734375 457.26837158203125 198.43634033203125 C 452.22625732421875 199.99008178710938 448.1195068359375 203.677490234375 446.0338134765625 208.52383422851562 L 449.20343017578125 209.77191162109375" stroke-width="0.6000000238418579" fill="rgb(70, 150, 179)" opacity="1.0"/>
    <path d="M 426.6966552734375 135.5072784423828 C 428.0712890625 129.614013671875 429.34747314453125 123.02406311035156 426.24462890625 117.83314514160156 C 422.90814208984375 112.25894165039062 415.46044921875 110.38313293457031 409.0558776855469 111.47146606445312 C 406.58636474609375 111.89004516601562 404.0897521972656 112.72135925292969 402.2864685058594 114.45930480957031 C 400.80352783203125 115.88743591308594 399.9068298339844 117.8057861328125 399.14837646484375 119.71926879882812 C 396.7492980957031 125.75057983398438 395.4127502441406 132.70455932617188 398.03375244140625 138.64126586914062 C 400.6794738769531 144.62274169921875 407.4393615722656 148.5250244140625 413.94378662109375 147.7864532470703 C 420.4482421875 147.04786682128906 426.20428466796875 141.79055786132812 427.476318359375 135.36468505859375 L 426.6966552734375 135.5072784423828" stroke-width="0.6000000238418579" fill="rgb(140, 28, 33)" opacity="1.0"/>
    <path d="M 397.60040283203125 64.74449157714844 C 399.22589111328125 70.66098022460938 400.9825439453125 76.79949951171875 404.93695068359375 81.49674987792969 C 408.8913269042969 86.19390869140625 415.7596435546875 89.05209350585938 421.3658447265625 86.55049133300781 C 428.2791748046875 83.44706726074219 429.8135986328125 73.40655517578125 425.8262939453125 66.94619750976562 C 421.8389892578125 60.48585510253906 414.16278076171875 57.211456298828125 406.68450927734375 55.95965576171875 C 404.40838623046875 55.34022521972656 401.98284912109375 55.596527099609375 399.8865051269531 56.67802429199219 C 397.9483642578125 57.95440673828125 397.2954406738281 61.269683837890625 399.2447814941406 62.55000305175781 L 397.60040283203125 64.74449157714844" stroke-width="0.6000000238418579" fill="rgb(159, 159, 159)" opacity="1.0"/>
    <path d="M 438.925537109375 235.8675537109375 C 434.571533203125 240.87551879882812 431.8385009765625 247.48431396484375 432.33404541015625 254.09835815429688 C 432.82958984375 260.71240234375 436.87188720703125 267.16876220703125 443.0216064453125 269.7270202636719 C 447.371826171875 271.5302429199219 452.401123046875 271.28778076171875 456.8377685546875 269.697021484375 C 461.2744140625 268.10626220703125 465.170654296875 265.2620544433594 468.5733642578125 261.9995422363281 C 470.0533447265625 260.57891845703125 471.50286865234375 258.98162841796875 471.990966796875 256.99456787109375 C 472.55169677734375 254.7166748046875 471.749267578125 252.34808349609375 470.8511962890625 250.17318725585938 C 468.31591796875 244.03298950195312 464.7430419921875 238.04745483398438 459.2139892578125 234.36355590820312 C 453.68499755859375 230.67965698242188 445.8602294921875 229.862548828125 440.514404296875 233.77978515625 L 438.925537109375 235.8675537109375" stroke-width="0.6000000238418579" fill="rgb(159, 159, 159)" opacity="1.0"/>
    <path d="M 413.1519775390625 259.9964599609375 C 411.1414794921875 253.89114379882812 408.6421813964844 247.19189453125 402.9437561035156 244.24508666992188 C 397.4060363769531 241.37152099609375 390.6955261230469 242.9881591796875 384.7143249511719 244.77261352539062 C 382.28564453125 245.5010986328125 379.7564392089844 246.30194091796875 377.9621887207031 248.091552734375 C 374.9257507324219 251.1165771484375 374.8684387207031 256.0011901855469 375.66961669921875 260.20538330078125 C 376.4117431640625 264.1078796386719 377.71038818359375 267.8835754394531 379.5257873535156 271.41693115234375 C 382.4714050292969 277.1551818847656 387.6318054199219 282.61590576171875 394.0796203613281 282.6219482421875 C 397.5605773925781 282.63031005859375 400.9013671875 280.9927062988281 403.558349609375 278.7355651855469 C 406.2153625488281 276.4784240722656 408.280029296875 273.6138916015625 410.2779846191406 270.75689697265625 C 412.2760009765625 267.89990234375 414.177978515625 265.0498352050781 414.81146240234375 261.7060852050781 L 413.1519775390625 259.9964599609375" stroke-width="0.6000000238418579" fill="rgb(218, 166, 20)" opacity="1.0"/>
    <path d="M 415.5462646484375 88.71731567382812 C 410.9072570800781 97.53076171875 414.291259765625 108.43618774414062 423.104736328125 113.07524108886719 C 423.85943603515625 113.47248840332031 424.641357421875 113.815673828125 425.444580078125 114.10227966308594 C 428.4970703125 115.19068908691406 431.99676513671875 115.40879821777344 434.9114990234375 113.99581909179688 C 437.374755859375 112.80197143554688 439.1796875 110.59014892578125 440.669921875 108.29621887207031 C 444.65032958984375 102.15042114257812 446.91259765625 95.05093383789062 447.2216796875 87.73526000976562 C 447.300048828125 85.80137634277344 447.2281494140625 83.80224609375 446.43994140625 82.02999877929688 C 445.1185302734375 79.053955078125 441.9677734375 77.23638916015625 438.7794189453125 76.56378173828125 C 434.0465087890625 75.5618896484375 428.99591064453125 76.70159912109375 424.8564453125 79.20741271972656 C 420.7169189453125 81.71322631835938 417.443603515625 85.49740600585938 415.0927734375 89.72634887695312 L 415.5462646484375 88.71731567382812" stroke-width="0.6000000238418579" fill="rgb(143, 165, 67)" opacity="1.0"/>
    <path d="M 429.40814208984375 124.27836608886719 C 426.7738037109375 136.35897827148438 441.484375 147.93093872070312 452.8983154296875 143.38775634765625 C 464.312255859375 138.8445281982422 467.3770751953125 121.30795288085938 458.751953125 112.44329833984375 C 450.126953125 103.57864379882812 433.5538330078125 105.35498046875 426.24853515625 115.34950256347656 L 429.40814208984375 124.27836608886719" stroke-width="0.6000000238418579" fill="rgb(233, 92, 21)" opacity="1.0"/>
    <path d="M 450.266357421875 92.6058349609375 C 449.5511474609375 98.54383850097656 449.3126220703125 105.71110534667969 454.20263671875 109.19012451171875 C 456.2025146484375 110.4989013671875 458.55926513671875 111.15487670898438 460.94775390625 111.06744384765625 C 466.86328125 111.01019287109375 472.38409423828125 108.08927917480469 475.759521484375 103.23094177246094 C 478.6121826171875 99.10238647460938 479.53857421875 94.02630615234375 480.31982421875 89.10032653808594 C 480.7542724609375 86.33248901367188 481.12762451171875 83.37796020507812 479.9664306640625 80.8450927734375 C 478.39111328125 77.48165893554688 474.5499267578125 75.85871887207031 470.95123291015625 74.94488525390625 C 465.6861572265625 73.60090637207031 460.23828125 73.11798095703125 454.81884765625 73.51483154296875 C 452.9466552734375 73.65556335449219 450.99676513671875 73.92837524414062 449.451904296875 74.99423217773438 C 448.0662841796875 76.05874633789062 447.02020263671875 77.50347900390625 446.44140625 79.1522216796875 C 444.49114990234375 84.085205078125 444.8031005859375 89.62542724609375 447.294677734375 94.308349609375 L 450.266357421875 92.6058349609375" stroke-width="0.6000000238418579" fill="rgb(70, 150, 179)" opacity="1.0"/>
    <path d="M 312.42572021484375 368.9474792480469 C 306.9643859863281 366.7015686035156 300.816650390625 364.44146728515625 295.3314208984375 366.6180725097656 C 289.4404602050781 368.95977783203125 286.4686279296875 375.8399353027344 286.5150146484375 382.1789855957031 C 286.5318603515625 384.6230773925781 286.9420471191406 387.1578369140625 288.33392333984375 389.1666259765625 C 289.4775085449219 390.8183898925781 291.18499755859375 391.982177734375 292.9093933105469 393.0120544433594 C 298.3433837890625 396.26629638671875 304.83233642578125 398.6414794921875 310.9605407714844 397.045654296875 C 317.1357421875 395.4330139160156 321.95184326171875 389.5323791503906 322.2579650878906 383.1518249511719 C 322.5640563964844 376.7712707519531 318.40069580078125 370.4046630859375 312.41033935546875 368.1742248535156 L 312.42572021484375 368.9474792480469" stroke-width="0.6000000238418579" fill="rgb(140, 28, 33)" opacity="1.0"/>
    <path d="M 297.73565673828125 391.71661376953125 C 291.7336730957031 389.2586364746094 285.461181640625 386.76715087890625 278.9766845703125 387.04571533203125 C 272.4922790527344 387.3243103027344 265.6665954589844 391.2291259765625 264.1423034667969 397.536865234375 C 262.2781066894531 405.3272705078125 269.6929016113281 413.09222412109375 277.6745910644531 413.924072265625 C 285.65625 414.7559814453125 293.351806640625 410.4434509277344 299.2264404296875 404.9911804199219 C 301.2140808105469 403.4855651855469 302.5650634765625 401.2896728515625 303.01275634765625 398.83673095703125 C 303.1952209472656 396.39044189453125 300.84130859375 393.7041015625 298.5113525390625 394.50958251953125 L 297.73565673828125 391.71661376953125" stroke-width="0.6000000238418579" fill="rgb(159, 159, 159)" opacity="1.0"/>
    <path d="M 323.0318298339844 412.14813232421875 C 317.32373046875 416.16070556640625 312.8660888671875 422.21636962890625 311.70245361328125 429.09228515625 C 310.538818359375 435.96820068359375 313.0351257324219 443.57843017578125 318.66632080078125 447.7418212890625 C 322.6513366699219 450.6802978515625 327.8458557128906 451.7022705078125 332.77581787109375 451.19842529296875 C 337.7057800292969 450.694580078125 342.4005126953125 448.7750244140625 346.6970520019531 446.3038330078125 C 348.5661926269531 445.2274169921875 350.4488525390625 443.962890625 351.4486389160156 442.0579833984375 C 352.59588623046875 439.87451171875 352.3746643066406 437.25439453125 352.00701904296875 434.807861328125 C 350.9690856933594 427.90069580078125 348.83306884765625 420.8895263671875 344.1195373535156 415.73388671875 C 339.4059753417969 410.5782470703125 331.6256408691406 407.76922607421875 325.1805114746094 410.418212890625 L 323.0318298339844 412.14813232421875" stroke-width="0.6000000238418579" fill="rgb(159, 159, 159)" opacity="1.0"/>
    <path d="M 255.65585327148438 417.88232421875 C 249.23651123046875 416.8214111328125 242.05511474609375 415.9202880859375 236.7386474609375 419.6490478515625 C 231.56329345703125 423.2679443359375 229.86517333984375 430.04534912109375 228.65972900390625 436.247314453125 C 228.17376708984375 438.7674560546875 227.70553588867188 441.41168212890625 228.468994140625 443.860595703125 C 229.75778198242188 448.0032958984375 234.11212158203125 450.34625244140625 238.2589111328125 451.5999755859375 C 242.10736083984375 452.76513671875 246.10321044921875 453.37164306640625 250.12411499023438 453.40093994140625 C 256.6529235839844 453.450927734375 263.9718322753906 451.3841552734375 267.00213623046875 445.6036376953125 C 268.6426696777344 442.4853515625 268.74114990234375 438.7205810546875 267.9631042480469 435.2784423828125 C 267.1850280761719 431.83636474609375 265.5843200683594 428.640625 263.9590759277344 425.50823974609375 C 262.3338317871094 422.3758544921875 260.6697692871094 419.332763671875 257.9678039550781 417.1959228515625 L 255.65585327148438 417.88232421875" stroke-width="0.6000000238418579" fill="rgb(218, 166, 20)" opacity="1.0"/>
    <path d="M 220.974853515625 411.49810791015625 C 211.7696533203125 404.3965759277344 198.55047607421875 406.1018981933594 191.44891357421875 415.30706787109375 C 190.8408203125 416.0953369140625 190.28939819335938 416.9256591796875 189.79879760742188 417.7919921875 C 187.93524169921875 421.083984375 186.98284912109375 425.0648193359375 188.0234375 428.6998291015625 C 188.90249633789062 431.77178955078125 191.08416748046875 434.2908935546875 193.42340087890625 436.46435546875 C 199.69287109375 442.27374267578125 207.40350341796875 446.2984619140625 215.75430297851562 448.12042236328125 C 217.96246337890625 448.59832763671875 220.27581787109375 448.91632080078125 222.47186279296875 448.365234375 C 226.15908813476562 447.4422607421875 228.880859375 444.18341064453125 230.29348754882812 440.6517333984375 C 232.3944091796875 435.409912109375 232.09625244140625 429.3734130859375 230.04449462890625 424.11083984375 C 227.99273681640625 418.84820556640625 224.29727172851562 414.325439453125 219.9053955078125 410.7743225097656 L 220.974853515625 411.49810791015625" stroke-width="0.6000000238418579" fill="rgb(143, 165, 67)" opacity="1.0"/>
    <path d="M 273.8454895019531 360.4914855957031 C 279.16424560546875 372.9583740234375 299.6572265625 373.9549560546875 306.9700012207031 362.6466064453125 C 314.28271484375 351.3382568359375 305.88348388671875 333.7231750488281 292.5471496582031 331.2806091308594 C 279.2108154296875 328.8380126953125 265.5312194824219 340.95086669921875 265.3516540527344 354.5204162597656 L 273.8454895019531 360.4914855957031" stroke-width="0.6000000238418579" fill="rgb(233, 92, 21)" opacity="1.0"/>
    <path d="M 330.7540588378906 356.6084899902344 C 327.9638366699219 362.52947998046875 325.2449035644531 369.8916320800781 329.12445068359375 375.191162109375 C 330.75042724609375 377.2400817871094 332.97210693359375 378.7339782714844 335.48309326171875 379.4667053222656 C 341.6470642089844 381.44683837890625 348.3884582519531 380.3164978027344 353.5694580078125 376.4341125488281 C 357.9559326171875 373.1295166015625 360.6682434082031 368.1765441894531 363.17816162109375 363.3294982910156 C 364.5836486816406 360.60443115234375 365.9901428222656 357.6643981933594 365.65740966796875 354.63323974609375 C 365.1807861328125 350.5965881347656 361.750732421875 347.5865478515625 358.32794189453125 345.3965759277344 C 353.32269287109375 342.185302734375 347.8306579589844 339.8053283691406 342.06488037109375 338.3489990234375 C 340.0717468261719 337.8496398925781 337.9524230957031 337.460693359375 335.9803771972656 338.0351257324219 C 334.174072265625 338.66302490234375 332.5894775390625 339.802978515625 331.4198303222656 341.31591796875 C 327.6933288574219 345.7672119140625 326.1070861816406 351.629150390625 327.0804443359375 357.35223388671875 L 330.7540588378906 356.6084899902344" stroke-width="0.6000000238418579" fill="rgb(70, 150, 179)" opacity="1.0"/>
    <path d="M 297.3003845214844 414.54840087890625 C 290.11328125 412.884033203125 282.07708740234375 411.3410339355469 275.7548828125 415.1337890625 C 268.9659118652344 419.2120361328125 266.6935729980469 428.295166015625 268.03277587890625 436.10076904296875 C 268.5478210449219 439.1104736328125 269.5661315917969 442.1524658203125 271.6883544921875 444.34747314453125 C 273.4322509765625 446.152587890625 275.77264404296875 447.241943359375 278.1068115234375 448.16290283203125 C 285.46417236328125 451.075927734375 293.94427490234375 452.6917724609375 301.1766052246094 449.4849853515625 C 308.4634094238281 446.248046875 313.2075500488281 437.99957275390625 312.2945251464844 430.071533203125 C 311.38153076171875 422.1434326171875 304.96124267578125 415.136474609375 297.1250305175781 413.5982666015625 L 297.3003845214844 414.54840087890625" stroke-width="0.6000000238418579" fill="rgb(140, 28, 33)" opacity="1.0"/>
    <path d="M 327.1289978027344 391.7804260253906 C 320.6689453125 391.5050354003906 313.9438781738281 391.2896728515625 307.9567565917969 393.74383544921875 C 301.9697570800781 396.1979675292969 296.88897705078125 402.1683349609375 297.5926208496094 408.5993347167969 C 298.4788818359375 416.53582763671875 308.05859375 421.31048583984375 315.8253173828125 419.391357421875 C 323.592041015625 417.4722900390625 329.3507385253906 410.825439453125 333.0162658691406 403.7254943847656 C 334.37115478515625 401.6413269042969 334.8955383300781 399.1250915527344 334.4858703613281 396.6732482910156 C 333.8297119140625 394.3173522949219 330.71368408203125 392.59405517578125 328.8009948730469 394.13739013671875 L 327.1289978027344 391.7804260253906" stroke-width="0.6000000238418579" fill="rgb(159, 159, 159)" opacity="1.0"/>
    <path d="M 359.4401550292969 410.73260498046875 C 354.5244445800781 415.5091552734375 351.1382141113281 422.073974609375 351.0744323730469 428.92431640625 C 351.0106201171875 435.774658203125 354.6109619140625 442.7703857421875 360.71844482421875 445.9368896484375 C 365.039306640625 448.170166015625 370.2366027832031 448.35699462890625 374.94091796875 447.1046142578125 C 379.645263671875 445.852294921875 383.9021301269531 443.262939453125 387.68731689453125 440.2003173828125 C 389.333740234375 438.8665771484375 390.9642028808594 437.348388671875 391.6390075683594 435.3455810546875 C 392.4136962890625 433.04974365234375 391.79327392578125 430.5423583984375 391.0577087402344 428.2259521484375 C 388.9809875488281 421.6864013671875 385.82293701171875 415.2159423828125 380.45196533203125 410.94476318359375 C 375.0809631347656 406.67352294921875 367.09844970703125 405.1537170410156 361.2565612792969 408.7216491699219 L 359.4401550292969 410.73260498046875" stroke-width="0.6000000238418579" fill="rgb(159, 159, 159)" opacity="1.0"/>
    <path d="M 251.1807861328125 366.4565124511719 C 251.97833251953125 359.656982421875 252.57025146484375 352.064453125 248.38821411132812 346.6610107421875 C 244.32855224609375 341.40045166015625 237.1212158203125 339.95086669921875 230.54302978515625 338.99066162109375 C 227.87017822265625 338.6045227050781 225.06781005859375 338.2431945800781 222.5316162109375 339.166748046875 C 218.2412109375 340.72625732421875 215.9940185546875 345.4187316894531 214.88140869140625 349.8392028808594 C 213.84710693359375 353.9417724609375 213.40728759765625 358.1716003417969 213.57537841796875 362.3992004394531 C 213.84579467773438 369.2637634277344 216.38006591796875 376.85406494140625 222.6055908203125 379.7531433105469 C 225.96420288085938 381.32318115234375 229.926025390625 381.240478515625 233.50531005859375 380.2524719238281 C 237.08465576171875 379.2644348144531 240.3643798828125 377.4239196777344 243.57626342773438 375.560791015625 C 246.78814697265625 373.6976623535156 249.90426635742188 371.7981262207031 252.0166015625 368.8525085449219 L 251.1807861328125 366.4565124511719" stroke-width="0.6000000238418579" fill="rgb(218, 166, 20)" opacity="1.0"/>
    <path d="M 264.349609375 386.2258605957031 C 254.4532470703125 379.8376770019531 241.25201416015625 382.6816101074219 234.86383056640625 392.5779724121094 C 234.31680297851562 393.4253845214844 233.83059692382812 394.3105773925781 233.4088134765625 395.226806640625 C 231.806884765625 398.7086181640625 231.18331909179688 402.8084411621094 232.54248046875 406.3900146484375 C 233.69076538085938 409.41680908203125 236.10723876953125 411.77484130859375 238.65338134765625 413.7706298828125 C 245.4761962890625 419.10345458984375 253.60247802734375 422.51220703125 262.1880798339844 423.6427001953125 C 264.4580078125 423.93768310546875 266.8205261230469 424.0623779296875 268.9908447265625 423.319580078125 C 272.6351013183594 422.07464599609375 275.1062927246094 418.553466796875 276.232666015625 414.8680419921875 C 277.9087219238281 409.3975524902344 277.09527587890625 403.3284912109375 274.5770263671875 398.1895751953125 C 272.058837890625 393.0506896972656 267.9439392089844 388.7982482910156 263.2084655761719 385.5859069824219 L 264.349609375 386.2258605957031" stroke-width="0.6000000238418579" fill="rgb(143, 165, 67)" opacity="1.0"/>
    <path d="M 201.327392578125 379.4592590332031 C 187.45599365234375 383.287353515625 183.5010986328125 404.7077941894531 194.36212158203125 414.0057373046875 C 205.22314453125 423.3035888671875 224.9481201171875 416.96441650390625 229.409423828125 403.27899169921875 C 233.87078857421875 389.5935363769531 223.06625366210938 373.48260498046875 208.814453125 371.3692626953125 L 201.327392578125 379.4592590332031" stroke-width="0.6000000238418579" fill="rgb(233, 92, 21)" opacity="1.0"/>
    <path d="M 252.6685791015625 373.8127136230469 C 250.71014404296875 380.31805419921875 249.04541015625 388.2919616699219 253.8389892578125 393.1387634277344 C 255.82168579101562 394.9933776855469 258.3310241699219 396.1870422363281 261.0208740234375 396.5550231933594 C 267.6517028808594 397.6446533203125 274.39935302734375 395.4527282714844 279.1240539550781 390.67437744140625 C 283.12152099609375 386.61077880859375 285.1480712890625 381.1111145019531 286.9830627441406 375.75115966796875 C 288.00897216796875 372.73858642578125 289.00299072265625 369.5051574707031 288.1976013183594 366.4443359375 C 287.0906677246094 362.3733215332031 283.10882568359375 359.8080749511719 279.2599792480469 358.0836181640625 C 273.6302795410156 355.5528259277344 267.6280822753906 353.9499206542969 261.4862060546875 353.33709716796875 C 259.3636474609375 353.12945556640625 257.12847900390625 353.054443359375 255.19189453125 353.9458923339844 C 253.43365478515625 354.86688232421875 251.98135375976562 356.2795715332031 251.01211547851562 358.01171875 C 247.86764526367188 363.1515197753906 247.13616943359375 369.41204833984375 249.0111083984375 375.1383056640625 L 252.6685791015625 373.8127136230469" stroke-width="0.6000000238418579" fill="rgb(70, 150, 179)" opacity="1.0"/>
    <path d="M 338.51568603515625 361.3024597167969 C 340.482666015625 354.6628723144531 342.3841552734375 347.2207946777344 339.1890869140625 341.08209228515625 C 335.7529296875 334.4898376464844 327.371337890625 331.84564208984375 319.9819030761719 332.6577453613281 C 317.1326904296875 332.96966552734375 314.2247314453125 333.7512512207031 312.0477600097656 335.61517333984375 C 310.2575988769531 337.1467590332031 309.1041259765625 339.27783203125 308.10888671875 341.4126281738281 C 304.9623107910156 348.14093017578125 302.9673767089844 355.9947814941406 305.5617980957031 362.9530029296875 C 308.18145751953125 369.9639892578125 315.640869140625 374.8768005371094 323.1208801269531 374.4709777832031 C 330.6009216308594 374.06512451171875 337.53021240234375 368.4469909667969 339.4158935546875 361.1920471191406 L 338.51568603515625 361.3024597167969" stroke-width="0.6000000238418579" fill="rgb(140, 28, 33)" opacity="1.0"/>
    <path d="M 356.5489807128906 399.49078369140625 C 350.11883544921875 399.1089172363281 343.4237060546875 398.782470703125 337.419189453125 401.1273498535156 C 331.414794921875 403.47222900390625 326.2545471191406 409.3345947265625 326.8483581542969 415.75213623046875 C 327.5990295410156 423.6722412109375 337.0617370605469 428.587646484375 344.8299865722656 426.805419921875 C 352.59820556640625 425.0230712890625 358.4449768066406 418.4981689453125 362.21435546875 411.4870300292969 C 363.5986328125 409.43359375 364.1628112792969 406.9359436035156 363.79559326171875 404.4869079589844 C 363.18121337890625 402.1293029785156 360.1060791015625 400.36090087890625 358.1752014160156 401.8663635253906 L 356.5489807128906 399.49078369140625" stroke-width="0.6000000238418579" fill="rgb(159, 159, 159)" opacity="1.0"/>
    <path d="M 179.40203857421875 411.7820129394531 C 172.34124755859375 411.01300048828125 164.86322021484375 412.6463623046875 159.35211181640625 417.120849609375 C 153.8409881591797 421.5953369140625 150.63433837890625 429.09112548828125 152.1409912109375 436.05889892578125 C 153.21246337890625 440.98388671875 156.49673461914062 445.25653076171875 160.60427856445312 448.1849365234375 C 164.71185302734375 451.11334228515625 169.5911865234375 452.80126953125 174.53677368164062 453.79998779296875 C 176.68927001953125 454.2332763671875 178.97842407226562 454.53204345703125 181.02313232421875 453.7476806640625 C 183.3677978515625 452.849609375 184.959716796875 450.69781494140625 186.32305908203125 448.580322265625 C 190.17205810546875 442.602294921875 193.25152587890625 435.80657958984375 193.11334228515625 428.697021484375 C 192.97512817382812 421.58740234375 188.91513061523438 414.2105712890625 182.20745849609375 411.9036865234375 L 179.40203857421875 411.7820129394531" stroke-width="0.6000000238418579" fill="rgb(159, 159, 159)" opacity="1.0"/>
    <path d="M 360.26458740234375 370.5280456542969 C 353.2734069824219 370.496337890625 345.5010070800781 370.7639465332031 340.4960021972656 375.6257019042969 C 335.6219787597656 380.3469543457031 334.9752197265625 387.8265380859375 334.75311279296875 394.6116943359375 C 334.6669616699219 397.36822509765625 334.6207580566406 400.2533264160156 335.8479919433594 402.7213439941406 C 337.9211730957031 406.89678955078125 342.9399719238281 408.6405334472656 347.5530090332031 409.2640686035156 C 351.83447265625 409.8444519042969 356.1770935058594 409.80706787109375 360.44793701171875 409.15301513671875 C 367.3829650878906 408.09356689453125 374.79559326171875 404.65380859375 377.0255432128906 398.00482177734375 C 378.23468017578125 394.4170227050781 377.6976623535156 390.4061584472656 376.2857360839844 386.8869323730469 C 374.873779296875 383.36773681640625 372.6310119628906 380.2500305175781 370.3730163574219 377.2037658691406 C 368.11505126953125 374.157470703125 365.8310852050781 371.2125549316406 362.60040283203125 369.4059143066406 L 360.26458740234375 370.5280456542969" stroke-width="0.6000000238418579" fill="rgb(218, 166, 20)" opacity="1.0"/>
    <path d="M 377.4704284667969 379.76568603515625 C 371.54461669921875 389.32586669921875 374.4908447265625 401.8797607421875 384.0510559082031 407.8055725097656 C 384.86968994140625 408.31298828125 385.7232971191406 408.76171875 386.6054382324219 409.1483459472656 C 389.9576721191406 410.6168518066406 393.8828125 411.14044189453125 397.27850341796875 409.7801208496094 C 400.1481628417969 408.6308288574219 402.3571472167969 406.282470703125 404.2180480957031 403.816650390625 C 409.1900634765625 397.2093505859375 412.30224609375 389.3912658691406 413.2313232421875 381.1745300292969 C 413.4732666015625 379.002197265625 413.5509033203125 376.74444580078125 412.80377197265625 374.68536376953125 C 411.55145263671875 371.22784423828125 408.1464538574219 368.9301452636719 404.6080627441406 367.9192810058594 C 399.3559265136719 366.4148254394531 393.5758056640625 367.29766845703125 388.7135925292969 369.7918395996094 C 383.85137939453125 372.2859802246094 379.86346435546875 376.2890319824219 376.8794250488281 380.8663635253906 L 377.4704284667969 379.76568603515625" stroke-width="0.6000000238418579" fill="rgb(143, 165, 67)" opacity="1.0"/>
    <path d="M 364.9936828613281 363.5322265625 C 370.9607849121094 376.1946105957031 392.1485290527344 376.4375 399.2620544433594 364.4865417480469 C 406.37554931640625 352.5355529785156 397.0318908691406 334.6781005859375 383.1746826171875 332.66851806640625 C 369.31744384765625 330.6589660644531 355.6639099121094 343.6842956542969 355.9988098144531 357.6954650878906 L 364.9936828613281 363.5322265625" stroke-width="0.6000000238418579" fill="rgb(233, 92, 21)" opacity="1.0"/>
    <path d="M 403.1725769042969 353.7490539550781 C 403.566162109375 360.3960876464844 404.7257385253906 368.2952880859375 410.77252197265625 371.1372375488281 C 413.222900390625 372.1745910644531 415.934814453125 372.4259948730469 418.5341796875 371.85675048828125 C 425.00341796875 370.6213073730469 430.4725341796875 366.3269348144531 433.207275390625 360.3353576660156 C 435.5140380859375 355.24688720703125 435.5225830078125 349.50225830078125 435.4019775390625 343.95086669921875 C 435.32916259765625 340.83251953125 435.1524658203125 337.521728515625 433.3782958984375 334.9770812988281 C 430.9857177734375 331.60467529296875 426.4559326171875 330.5881652832031 422.332275390625 330.3004455566406 C 416.29779052734375 329.871826171875 410.2337341308594 330.4227600097656 404.37530517578125 331.931884765625 C 402.3521423339844 332.45721435546875 400.27008056640625 333.14263916015625 398.7889709472656 334.6165466308594 C 397.48193359375 336.05743408203125 396.6224060058594 337.8475646972656 396.315185546875 339.7685546875 C 395.1565246582031 345.55938720703125 396.5965270996094 351.5669860839844 400.2545166015625 356.20330810546875 L 403.1725769042969 353.7490539550781" stroke-width="0.6000000238418579" fill="rgb(70, 150, 179)" opacity="1.0"/>
    <path d="M 385.36248779296875 418.8502197265625 C 382.558349609375 425.34259033203125 379.7227783203125 432.6566162109375 382.2138366699219 439.2706298828125 C 384.89404296875 446.3739013671875 393.0701599121094 450.0771484375 400.6617431640625 450.15484619140625 C 403.5887451171875 450.18603515625 406.63262939453125 449.7481689453125 409.0672607421875 448.12371826171875 C 411.0691833496094 446.7890625 412.4986572265625 444.7689208984375 413.76812744140625 442.7257080078125 C 417.77911376953125 436.2872314453125 420.7596435546875 428.5670166015625 418.9775390625 421.1953125 C 417.17633056640625 413.7669677734375 410.2119445800781 407.8759460449219 402.5780334472656 407.3752746582031 C 394.9441223144531 406.87457275390625 387.2330017089844 411.72613525390625 384.4362487792969 418.85235595703125 L 385.36248779296875 418.8502197265625" stroke-width="0.6000000238418579" fill="rgb(140, 28, 33)" opacity="1.0"/>
    <path d="M 409.3666687011719 382.7201843261719 C 407.6149597167969 388.927734375 405.86065673828125 395.4063415527344 406.8672180175781 401.7820129394531 C 407.8738098144531 408.1575927734375 412.5018310546875 414.46142578125 418.90618896484375 415.256103515625 C 426.8138427734375 416.2193603515625 433.64990234375 408.017333984375 433.57159423828125 400.0371398925781 C 433.4932861328125 392.0569152832031 428.3643798828125 384.9396057128906 422.31463623046875 379.7500305175781 C 420.602783203125 377.9559326171875 418.28076171875 376.8687438964844 415.806640625 376.7030334472656 C 413.36895751953125 376.7986755371094 410.9801330566406 379.42742919921875 412.038818359375 381.63873291015625 L 409.3666687011719 382.7201843261719" stroke-width="0.6000000238418579" fill="rgb(159, 159, 159)" opacity="1.0"/>
    <path d="M 436.37042236328125 370.0613098144531 C 437.9222412109375 377.1178283691406 441.92547607421875 383.79638671875 448.02880859375 387.65606689453125 C 454.1322021484375 391.5157470703125 462.3997802734375 392.172607421875 468.6275634765625 388.45721435546875 C 473.02734375 385.8248291015625 476.0797119140625 381.27105712890625 477.5687255859375 376.3602294921875 C 479.0577392578125 371.4493713378906 479.100341796875 366.1973571777344 478.4569091796875 361.1053161621094 C 478.17559814453125 358.8895568847656 477.72015380859375 356.5857238769531 476.2999267578125 354.8692932128906 C 474.672607421875 352.90069580078125 472.081298828125 352.0648498535156 469.59716796875 351.438232421875 C 462.5841064453125 349.669189453125 455.0328369140625 348.9075927734375 448.223876953125 351.34979248046875 C 441.4149169921875 353.7919921875 435.62200927734375 360.10174560546875 435.57666015625 367.31732177734375 L 436.37042236328125 370.0613098144531" stroke-width="0.6000000238418579" fill="rgb(159, 159, 159)" opacity="1.0"/>
    <path d="M 427.61328125 408.7174072265625 C 422.5242919921875 413.44549560546875 417.072509765625 418.92138671875 416.7486572265625 425.8466796875 C 416.42425537109375 432.5810546875 421.0384521484375 438.4420166015625 425.488525390625 443.5111083984375 C 427.29931640625 445.567626953125 429.22650146484375 447.69024658203125 431.79327392578125 448.6451416015625 C 436.133544921875 450.26275634765625 440.956298828125 448.11602783203125 444.7237548828125 445.43304443359375 C 448.22149658203125 442.94415283203125 451.34375 439.96588134765625 453.994873046875 436.5894775390625 C 458.3016357421875 431.108642578125 461.33697509765625 423.577880859375 458.434814453125 417.2430419921875 C 456.873046875 413.82080078125 453.758056640625 411.2785339355469 450.34307861328125 409.6872253417969 C 446.9281005859375 408.0959167480469 443.1837158203125 407.3602600097656 439.47686767578125 406.6866760253906 C 435.77001953125 406.01312255859375 432.11328125 405.4306945800781 428.5438232421875 406.316650390625 L 427.61328125 408.7174072265625" stroke-width="0.6000000238418579" fill="rgb(218, 166, 20)" opacity="1.0"/>
    <path d="M 136.64227294921875 218.1402587890625 C 133.03125 229.7423095703125 139.50924682617188 242.07492065429688 151.1112823486328 245.68594360351562 C 152.10476684570312 245.99517822265625 153.11892700195312 246.2335205078125 154.14614868164062 246.39920043945312 C 158.04946899414062 247.028076171875 162.29635620117188 246.513671875 165.479736328125 244.1722412109375 C 168.17010498046875 242.19378662109375 169.84503173828125 239.14004516601562 171.1241455078125 236.0576171875 C 174.53656005859375 227.802001953125 175.67623901367188 218.783203125 174.4248046875 209.93820190429688 C 174.090087890625 207.60076904296875 173.56045532226562 205.21841430664062 172.22189331054688 203.26702880859375 C 169.97665405273438 199.98977661132812 165.79376220703125 198.5079345703125 161.819580078125 198.40802001953125 C 155.91946411132812 198.25558471679688 150.11306762695312 200.74282836914062 145.70263671875 204.66693115234375 C 141.29222106933594 208.59100341796875 138.20445251464844 213.856689453125 136.32196044921875 219.45135498046875 L 136.64227294921875 218.1402587890625" stroke-width="0.6000000238418579" fill="rgb(143, 165, 67)" opacity="1.0"/>
    <path d="M 172.33978271484375 262.7084655761719 C 179.8916015625 274.60870361328125 201.08877563476562 272.1897888183594 206.6939697265625 259.35711669921875 C 212.29913330078125 246.52444458007812 200.72158813476562 229.85845947265625 186.62570190429688 229.59161376953125 C 172.52981567382812 229.32476806640625 160.52606201171875 244.05224609375 162.62066650390625 258.0074157714844 L 172.33978271484375 262.7084655761719" stroke-width="0.6000000238418579" fill="rgb(233, 92, 21)" opacity="1.0"/>
    <path d="M 144.63742065429688 314.653076171875 C 139.32894897460938 319.4271545410156 133.4829864501953 325.6804504394531 135.14366149902344 332.6490478515625 C 135.91246032714844 335.39654541015625 137.51487731933594 337.83782958984375 139.72991943359375 339.635986328125 C 145.09075927734375 344.2326354980469 152.34701538085938 345.94573974609375 159.1976318359375 344.23211669921875 C 165.005126953125 342.7635803222656 169.8260498046875 338.929931640625 174.39871215820312 335.1171875 C 176.9638671875 332.9712829589844 179.62091064453125 330.609619140625 180.56765747070312 327.4211730957031 C 181.79473876953125 323.1608581542969 179.61822509765625 318.6842956542969 177.10235595703125 315.0354309082031 C 173.42703247070312 309.6907043457031 168.910888671875 304.97607421875 163.72900390625 301.074462890625 C 161.93597412109375 299.7298278808594 159.96942138671875 298.44287109375 157.74371337890625 298.1868591308594 C 155.6620635986328 298.0546569824219 153.58688354492188 298.5310363769531 151.77127075195312 299.557861328125 C 146.1426544189453 302.4583740234375 142.06976318359375 307.6820373535156 140.6292266845703 313.8479919433594 L 144.63742065429688 314.653076171875" stroke-width="0.6000000238418579" fill="rgb(70, 150, 179)" opacity="1.0"/>
    <path d="M 124.87240600585938 303.083251953125 C 124.88072204589844 294.9584655761719 124.54879760742188 285.952392578125 118.91462707519531 280.1056823730469 C 112.85848999023438 273.8286437988281 102.54852294921875 273.6368408203125 94.5029296875 277.0048828125 C 91.40032958984375 278.3021240234375 88.3875732421875 280.1474304199219 86.55690002441406 282.9679260253906 C 85.05108642578125 285.2859802246094 84.46086120605469 288.067138671875 84.0499267578125 290.7999572753906 C 82.74368286132812 299.41632080078125 83.10720825195312 308.91680908203125 88.33767700195312 315.88519287109375 C 93.61404418945312 322.9046325683594 103.63973999023438 325.9555969238281 111.92219543457031 323.0146484375 C 120.20465087890625 320.0736999511719 126.13626098632812 311.45025634765625 125.8487548828125 302.6600341796875 L 124.87240600585938 303.083251953125" stroke-width="0.6000000238418579" fill="rgb(140, 28, 33)" opacity="1.0"/>
    <path d="M 142.43971252441406 274.6815185546875 C 136.8506317138672 277.919189453125 131.07057189941406 281.3498229980469 127.34587097167969 286.6325378417969 C 123.62123107910156 291.9151916503906 122.54844665527344 299.6727600097656 126.59515380859375 304.7115478515625 C 131.60426330566406 310.9202880859375 142.23751831054688 309.7966613769531 147.74853515625 304.0087890625 C 153.25955200195312 298.2209167480469 154.5399932861328 289.5294494628906 153.81405639648438 281.58056640625 C 153.8358612060547 279.0974426269531 152.9260711669922 276.6964111328125 151.26416015625 274.851318359375 C 149.44615173339844 273.21942138671875 145.89602661132812 273.4414978027344 145.11392211914062 275.76873779296875 L 142.43971252441406 274.6815185546875" stroke-width="0.6000000238418579" fill="rgb(159, 159, 159)" opacity="1.0"/>
    <path d="M 162.60284423828125 283.7428894042969 C 161.95635986328125 291.05084228515625 163.79965209960938 298.739501953125 168.53585815429688 304.3373718261719 C 173.27206420898438 309.9352722167969 181.08029174804688 313.090087890625 188.24462890625 311.3883361816406 C 193.308349609375 310.17877197265625 197.65216064453125 306.6976013183594 200.5904541015625 302.39434814453125 C 203.52880859375 298.0910949707031 205.169921875 293.0167541503906 206.09783935546875 287.8883972167969 C 206.50033569335938 285.6564025878906 206.76095581054688 283.2860412597656 205.90817260742188 281.1908264160156 C 204.93157958984375 278.7882385253906 202.67608642578125 277.189208984375 200.46078491210938 275.82550048828125 C 194.20654296875 271.9755859375 187.1240234375 268.9375305175781 179.78463745117188 269.2289733886719 C 172.44525146484375 269.5204162597656 164.91183471679688 273.86761474609375 162.6697998046875 280.8431091308594 L 162.60284423828125 283.7428894042969" stroke-width="0.6000000238418579" fill="rgb(159, 159, 159)" opacity="1.0"/>
    <path d="M 124.0618896484375 347.7929992675781 C 123.14566040039062 340.7415466308594 121.82174682617188 332.9432067871094 116.24221801757812 328.5575256347656 C 110.82209777832031 324.2848205566406 103.19488525390625 324.6473388671875 96.32527160644531 325.3437194824219 C 93.53500366210938 325.6307373046875 90.62054443359375 325.9754638671875 88.2991943359375 327.5472717285156 C 84.37149047851562 330.203369140625 83.29449462890625 335.49884033203125 83.29164123535156 340.2333984375 C 83.28729248046875 344.62786865234375 83.91398620605469 349.00018310546875 85.15249633789062 353.21649169921875 C 87.16104125976562 360.0633850097656 91.63369750976562 367.0688171386719 98.63839721679688 368.41485595703125 C 102.41891479492188 369.14703369140625 106.38906860351562 368.0617370605469 109.74496459960938 366.16119384765625 C 113.10084533691406 364.2606201171875 115.93931579589844 361.5770263671875 118.7037353515625 358.8877868652344 C 121.46817016601562 356.1985778808594 124.12687683105469 353.4969177246094 125.50982666015625 349.9953308105469 L 124.0618896484375 347.7929992675781" stroke-width="0.6000000238418579" fill="rgb(218, 166, 20)" opacity="1.0"/>
    <path d="M 150.37937927246094 342.48492431640625 C 138.01708984375 343.909912109375 129.15066528320312 355.0867004394531 130.57565307617188 367.4490051269531 C 130.69766235351562 368.507568359375 130.89463806152344 369.55615234375 131.16505432128906 370.5868835449219 C 132.19329833984375 374.5032043457031 134.4346466064453 378.267578125 137.946533203125 380.2789306640625 C 140.91415405273438 381.9789733886719 144.46817016601562 382.2824401855469 147.8850555419922 382.2032775878906 C 157.03091430664062 381.9787902832031 165.9498291015625 379.30950927734375 173.71536254882812 374.4727478027344 C 175.765869140625 373.1907958984375 177.77764892578125 371.70770263671875 179.0506591796875 369.64556884765625 C 181.1898193359375 366.18487548828125 180.84463500976562 361.6533508300781 179.2916259765625 357.88983154296875 C 176.98980712890625 352.30078125 172.254638671875 347.8931579589844 166.7520751953125 345.3883361816406 C 161.24954223632812 342.88348388671875 155.0385284423828 342.1732177734375 149.01873779296875 342.7281494140625 L 150.37937927246094 342.48492431640625" stroke-width="0.6000000238418579" fill="rgb(143, 165, 67)" opacity="1.0"/>
    <path d="M 138.75538635253906 377.4579162597656 C 133.50076293945312 363.6380920410156 111.20768737792969 361.659912109375 102.74491882324219 373.667236328125 C 94.28219604492188 385.674560546875 102.67034912109375 405.23980712890625 117.10003662109375 408.4825439453125 C 131.5297393798828 411.72528076171875 146.9671173095703 399.1181945800781 147.75341796875 384.3358154296875 L 138.75538635253906 377.4579162597656" stroke-width="0.6000000238418579" fill="rgb(233, 92, 21)" opacity="1.0"/>
    <path d="M 183.6544189453125 353.0057373046875 C 182.8443603515625 359.7131652832031 182.5723876953125 367.80938720703125 188.094970703125 371.7410888671875 C 190.3536376953125 373.2202453613281 193.015625 373.9620666503906 195.7137451171875 373.8641662597656 C 202.39605712890625 373.8016052246094 208.633544921875 370.5040283203125 212.44818115234375 365.01715087890625 C 215.67214965820312 360.3544921875 216.7203369140625 354.6207580566406 217.60467529296875 349.0565490722656 C 218.09637451171875 345.93011474609375 218.51919555664062 342.5927429199219 217.20843505859375 339.73114013671875 C 215.4300537109375 335.9311828613281 211.09161376953125 334.09649658203125 207.02676391601562 333.06292724609375 C 201.0797119140625 331.5428771972656 194.92584228515625 330.99542236328125 188.80380249023438 331.4417724609375 C 186.6888427734375 331.6000671386719 184.48611450195312 331.90753173828125 182.74066162109375 333.11102294921875 C 181.17498779296875 334.3130187988281 179.99285888671875 335.94464111328125 179.33843994140625 337.8069152832031 C 177.13363647460938 343.37860107421875 177.4840087890625 349.6370544433594 180.29690551757812 354.9278564453125 L 183.6544189453125 353.0057373046875" stroke-width="0.6000000238418579" fill="rgb(70, 150, 179)" opacity="1.0"/>
  </g>
</svg>
