<?xml version="1.0" ?>
<svg xmlns="http://www.w3.org/2000/svg" version="1.1" width="600" height="600">
  <defs/>
  <g>
    <path d="M 353.82562255859375 344.6172180175781 C 357.9861755371094 347.8047790527344 365.0769348144531 344.2456359863281 365.39044189453125 339.0475769042969 C 365.70391845703125 333.8494873046875 359.52752685546875 329.5136413574219 354.57208251953125 331.2256774902344 C 349.61663818359375 332.9377136230469 347.3118896484375 339.61676025390625 349.8303527832031 344.22064208984375 L 353.82562255859375 344.6172180175781" stroke-width="0.6000000238418579" fill="rgb(233, 92, 21)" opacity="1.0"/>
    <path d="M 121.9669189453125 207.90328979492188 C 125.9498291015625 206.68417358398438 130.5810546875 204.81484985351562 131.41741943359375 200.71987915039062 C 131.68682861328125 199.07733154296875 131.43992614746094 197.3916015625 130.710693359375 195.89532470703125 C 129.00601196289062 192.14459228515625 125.58912658691406 189.4527587890625 121.54354858398438 188.67343139648438 C 118.11009216308594 188.02114868164062 114.61651611328125 188.86279296875 111.25941467285156 189.75442504882812 C 109.37442016601562 190.25836181640625 107.38772583007812 190.85382080078125 106.102294921875 192.3074951171875 C 104.40481567382812 194.2591552734375 104.45455932617188 197.16278076171875 104.88751220703125 199.71209716796875 C 105.5164794921875 203.44378662109375 106.74530029296875 207.049072265625 108.52633666992188 210.38812255859375 C 109.1439208984375 211.5406494140625 109.86752319335938 212.70538330078125 110.98187255859375 213.38848876953125 C 112.05052185058594 213.970703125 113.26547241210938 214.2293701171875 114.47860717773438 214.1329345703125 C 118.1697998046875 213.98370361328125 121.6097412109375 212.22271728515625 123.88908386230469 209.31549072265625 L 121.9669189453125 207.90328979492188" stroke-width="0.6000000238418579" fill="rgb(70, 150, 179)" opacity="1.0"/>
    <path d="M 454.89410400390625 415.86224365234375 C 457.02838134765625 419.3094482421875 459.538818359375 423.0408935546875 463.4661865234375 424.0374755859375 C 467.6856689453125 425.1055908203125 472.1077880859375 422.47412109375 474.633056640625 418.9290771484375 C 475.60723876953125 417.5626220703125 476.399169921875 415.9874267578125 476.4332275390625 414.309814453125 C 476.4617919921875 412.9307861328125 475.98028564453125 411.59619140625 475.43548583984375 410.3293151855469 C 473.72216796875 406.3321228027344 471.0682373046875 402.3994140625 467.0169677734375 400.8209533691406 C 462.9327392578125 399.2329406738281 457.87890625 400.5772399902344 455.140869140625 404.0035400390625 C 452.40277099609375 407.4298400878906 452.15667724609375 412.6470947265625 454.59149169921875 416.298583984375 L 454.89410400390625 415.86224365234375" stroke-width="0.6000000238418579" fill="rgb(140, 28, 33)" opacity="1.0"/>
    <path d="M 89.62539672851562 207.44415283203125 C 93.43695068359375 206.33401489257812 97.39085388183594 205.1368408203125 100.39059448242188 202.53207397460938 C 103.39027404785156 199.92733764648438 105.17141723632812 195.45565795898438 103.49754333496094 191.853515625 C 101.42140197753906 187.41162109375 94.91055297851562 186.518310546875 90.77052307128906 189.16180419921875 C 86.63047790527344 191.8052978515625 84.58807373046875 196.80374145507812 83.85220336914062 201.65414428710938 C 83.4739990234375 203.1328125 83.66378784179688 204.699462890625 84.38421630859375 206.04498291015625 C 85.2291259765625 207.28622436523438 87.38040161132812 207.67584228515625 88.18940734863281 206.40203857421875 L 89.62539672851562 207.44415283203125" stroke-width="0.6000000238418579" fill="rgb(159, 159, 159)" opacity="1.0"/>
    <path d="M 382.7489013671875 302.9130554199219 C 386.70269775390625 301.6513366699219 390.3103332519531 299.00750732421875 392.1943359375 295.31195068359375 C 394.07830810546875 291.61639404296875 394.01568603515625 286.852783203125 391.5603942871094 283.4877014160156 C 389.82147216796875 281.11077880859375 387.0550231933594 279.60638427734375 384.167236328125 279.01507568359375 C 381.2794494628906 278.4237976074219 378.27325439453125 278.67791748046875 375.3948974609375 279.31591796875 C 374.1424560546875 279.59429931640625 372.8489074707031 279.9769592285156 371.9424743652344 280.8802795410156 C 370.90277099609375 281.9154052734375 370.5621032714844 283.44189453125 370.3354187011719 284.89593505859375 C 369.6954345703125 289.0009460449219 369.6601867675781 293.36041259765625 371.4180603027344 297.1253967285156 C 373.17596435546875 300.890380859375 377.092041015625 303.86920166015625 381.2215270996094 303.5125732421875 L 382.7489013671875 302.9130554199219" stroke-width="0.6000000238418579" fill="rgb(159, 159, 159)" opacity="1.0"/>
    <path d="M 101.55790710449219 428.313232421875 C 103.47003173828125 425.4144287109375 105.46987915039062 422.109375 104.80741882324219 418.70733642578125 C 104.16783142089844 415.39794921875 101.23291015625 413.097412109375 98.471435546875 411.16204833984375 C 97.34846496582031 410.3774719238281 96.16116333007812 409.5746154785156 94.80142211914062 409.4146423339844 C 92.5018310546875 409.1427001953125 90.4134521484375 410.75628662109375 88.90115356445312 412.50537109375 C 87.49685668945312 414.1282958984375 86.33287048339844 415.9444580078125 85.44482421875 417.89825439453125 C 84.00173950195312 421.07012939453125 83.41885375976562 425.087158203125 85.57833862304688 427.820556640625 C 86.74198913574219 429.2979736328125 88.55589294433594 430.1640625 90.4029541015625 430.53271484375 C 92.25003051757812 430.9013671875 94.15579223632812 430.8155517578125 96.03598022460938 430.703857421875 C 97.91616821289062 430.59228515625 99.76126098632812 430.44232177734375 101.39013671875 429.5894775390625 L 101.55790710449219 428.313232421875" stroke-width="0.6000000238418579" fill="rgb(218, 166, 20)" opacity="1.0"/>
    <path d="M 99.72625732421875 145.46603393554688 C 107.05844116210938 146.17483520507812 113.57695007324219 140.8054962158203 114.28575134277344 133.4733123779297 C 114.34645080566406 132.845458984375 114.36251831054688 132.21409606933594 114.3338623046875 131.58395385742188 C 114.22453308105469 129.18959045410156 113.39421081542969 126.73268127441406 111.61102294921875 125.1328125 C 110.10421752929688 123.78068542480469 108.08476257324219 123.16413879394531 106.09722900390625 122.78607177734375 C 100.77566528320312 121.78144836425781 95.28216552734375 122.22003173828125 90.1873779296875 124.05624389648438 C 88.84149169921875 124.54386901855469 87.49305725097656 125.15272521972656 86.50041198730469 126.18838500976562 C 84.83294677734375 127.92610168457031 84.4705810546875 130.59181213378906 84.90261840820312 132.96282958984375 C 85.54156494140625 136.48338317871094 87.73556518554688 139.62197875976562 90.60977172851562 141.75440979003906 C 93.48394775390625 143.88685607910156 96.99082946777344 145.06846618652344 100.54397583007812 145.49404907226562 L 99.72625732421875 145.46603393554688" stroke-width="0.6000000238418579" fill="rgb(143, 165, 67)" opacity="1.0"/>
    <path d="M 460.070068359375 345.5996398925781 C 463.0792236328125 352.41253662109375 474.345947265625 352.8175964355469 478.2852783203125 346.55340576171875 C 482.224609375 340.2892150878906 477.48712158203125 330.6690673828125 470.142578125 329.41973876953125 C 462.7979736328125 328.17041015625 455.365966796875 334.9209289550781 455.3616943359375 342.3778991699219 L 460.070068359375 345.5996398925781" stroke-width="0.6000000238418579" fill="rgb(233, 92, 21)" opacity="1.0"/>
    <path d="M 103.144775390625 220.84170532226562 C 105.96542358398438 218.3115234375 109.07235717773438 214.99664306640625 108.19570922851562 211.29696655273438 C 107.78955078125 209.8382568359375 106.94073486328125 208.54147338867188 105.766357421875 207.58563232421875 C 102.92427062988281 205.142333984375 99.07424926757812 204.22821044921875 95.43717956542969 205.133056640625 C 92.35391235351562 205.90850830078125 89.79264831542969 207.93988037109375 87.36317443847656 209.96035766601562 C 86.00028991699219 211.0975341796875 84.58848571777344 212.34915161132812 84.08383178710938 214.040771484375 C 83.42967224121094 216.301025390625 84.58180236816406 218.67840576171875 85.91459655761719 220.61669921875 C 87.86160278320312 223.45587158203125 90.25531005859375 225.961181640625 93.00286865234375 228.03546142578125 C 93.95358276367188 228.75030517578125 94.99644470214844 229.4346923828125 96.17755126953125 229.57208251953125 C 97.28227233886719 229.6436767578125 98.38397216796875 229.39224243164062 99.34829711914062 228.8485107421875 C 102.33758544921875 227.31289672851562 104.50279235839844 224.54327392578125 105.27153015136719 221.271728515625 L 103.144775390625 220.84170532226562" stroke-width="0.6000000238418579" fill="rgb(70, 150, 179)" opacity="1.0"/>
    <path d="M 103.1376953125 79.78936767578125 C 103.89356994628906 83.56192016601562 104.8897705078125 87.71173095703125 108.05203247070312 89.89910888671875 C 111.45039367675781 92.24679565429688 116.25450134277344 91.37178039550781 119.674560546875 89.05593872070312 C 120.99357604980469 88.16358947753906 122.21963500976562 87.02523803710938 122.80574035644531 85.54470825195312 C 123.28802490234375 84.32780456542969 123.30197143554688 82.98152160644531 123.23719787597656 81.6744384765625 C 123.03790283203125 77.55233764648438 121.98078918457031 73.17593383789062 118.90106201171875 70.43011474609375 C 115.79525756835938 67.66487121582031 110.85577392578125 67.18600463867188 107.28582763671875 69.32574462890625 C 103.71588134765625 71.46546936035156 101.76861572265625 76.02336120605469 102.72402954101562 80.07713317871094 L 103.1376953125 79.78936767578125" stroke-width="0.6000000238418579" fill="rgb(140, 28, 33)" opacity="1.0"/>
    <path d="M 92.02212524414062 409.68109130859375 C 96.09286499023438 407.9620666503906 100.30972290039062 406.1284484863281 103.29011535644531 402.86175537109375 C 106.27044677734375 399.5950927734375 107.66278076171875 394.4216003417969 105.3475341796875 390.65509033203125 C 102.47921752929688 386.01214599609375 95.16583251953125 385.8643798828125 90.92974853515625 389.3210144042969 C 86.69366455078125 392.7776184082031 85.0804443359375 398.5672302246094 84.89260864257812 404.02459716796875 C 84.66519165039062 405.7081298828125 85.0771484375 407.4156799316406 86.04718017578125 408.810302734375 C 87.14141845703125 410.0736083984375 89.57003784179688 410.226806640625 90.30014038085938 408.7142028808594 L 92.02212524414062 409.68109130859375" stroke-width="0.6000000238418579" fill="rgb(159, 159, 159)" opacity="1.0"/>
    <path d="M 478.13623046875 68.06929016113281 C 479.58935546875 64.60018920898438 479.8856201171875 60.557647705078125 478.443359375 57.08612060546875 C 477.00115966796875 53.61457824707031 473.6781005859375 50.858306884765625 469.9136962890625 50.574493408203125 C 467.251953125 50.377227783203125 464.58831787109375 51.40159606933594 462.4832763671875 53.04627990722656 C 460.3782958984375 54.69097900390625 458.786865234375 56.914215087890625 457.535400390625 59.27484130859375 C 456.991455078125 60.302459716796875 456.4952392578125 61.41973876953125 456.585693359375 62.575927734375 C 456.68878173828125 63.90150451660156 457.5416259765625 65.03361511230469 458.4114990234375 66.04452514648438 C 460.8673095703125 68.89849853515625 463.8541259765625 71.48480224609375 467.4844970703125 72.4847412109375 C 471.11492919921875 73.48466491699219 475.4713134765625 72.53367614746094 477.65216064453125 69.47531127929688 L 478.13623046875 68.06929016113281" stroke-width="0.6000000238418579" fill="rgb(159, 159, 159)" opacity="1.0"/>
    <path d="M 88.34445190429688 108.23886108398438 C 92.73641967773438 108.9881591796875 97.65078735351562 109.63075256347656 101.3045654296875 107.09634399414062 C 104.86135864257812 104.63662719726562 106.04824829101562 100.00173950195312 106.89573669433594 95.7591552734375 C 107.23748779296875 94.03515625 107.5675048828125 92.22613525390625 107.05343627929688 90.54647827148438 C 106.18563842773438 87.70513916015625 103.2122802734375 86.08529663085938 100.37716674804688 85.2120361328125 C 97.74600219726562 84.40048217773438 95.01193237304688 83.97097778320312 92.2586669921875 83.93661499023438 C 87.78816223144531 83.87918090820312 82.76907348632812 85.26841735839844 80.6734619140625 89.2159423828125 C 79.53900146484375 91.34541320800781 79.45819091796875 93.92303466796875 79.97872924804688 96.28282165527344 C 80.49928283691406 98.64260864257812 81.58404541015625 100.83663940429688 82.68582153320312 102.98736572265625 C 83.78758239746094 105.13809204101562 84.916259765625 107.22781372070312 86.75888061523438 108.70066833496094 L 88.34445190429688 108.23886108398438" stroke-width="0.6000000238418579" fill="rgb(218, 166, 20)" opacity="1.0"/>
    <path d="M 128.0317840576172 136.7836456298828 C 134.89004516601562 136.16781616210938 139.95053100585938 130.10885620117188 139.33468627929688 123.2506103515625 C 139.28196716308594 122.663330078125 139.1876220703125 122.08053588867188 139.05242919921875 121.50660705566406 C 138.5382537841797 119.32589721679688 137.35092163085938 117.21231079101562 135.4363250732422 116.05072021484375 C 133.8184356689453 115.06893920898438 131.85671997070312 114.85150146484375 129.96551513671875 114.84762573242188 C 124.90322875976562 114.84425354003906 119.93234252929688 116.1964111328125 115.56927490234375 118.76362609863281 C 114.41714477539062 119.44415283203125 113.28358459472656 120.23648071289062 112.55064392089844 121.35943603515625 C 111.31906127929688 123.24394226074219 111.44680786132812 125.75543212890625 112.25340270996094 127.85894775390625 C 113.44871520996094 130.9827117919922 116.006591796875 133.4868927001953 119.01547241210938 134.94923400878906 C 122.02435302734375 136.4115753173828 125.45016479492188 136.89108276367188 128.78782653808594 136.6680908203125 L 128.0317840576172 136.7836456298828" stroke-width="0.6000000238418579" fill="rgb(143, 165, 67)" opacity="1.0"/>
    <path d="M 392.5822448730469 308.977294921875 C 396.27996826171875 317.765869140625 410.69232177734375 318.5389099121094 415.876220703125 310.6097106933594 C 421.0601806640625 302.68048095703125 415.21356201171875 290.25958251953125 405.84063720703125 288.4944763183594 C 396.46771240234375 286.7293701171875 386.80218505859375 295.2021484375 386.6282043457031 304.7470703125 L 392.5822448730469 308.977294921875" stroke-width="0.6000000238418579" fill="rgb(233, 92, 21)" opacity="1.0"/>
    <path d="M 123.55950927734375 110.17793273925781 C 127.45355224609375 109.17092895507812 132.0006103515625 107.56419372558594 132.9812774658203 103.64932250976562 C 133.3109130859375 102.076171875 133.14427185058594 100.43951416015625 132.50430297851562 98.965087890625 C 131.01902770996094 95.2744140625 127.8370361328125 92.5325927734375 123.96737670898438 91.60906982421875 C 120.68284606933594 90.83406066894531 117.27688598632812 91.4976806640625 114.00047302246094 92.21533203125 C 112.16064453125 92.6214599609375 110.21881103515625 93.11154174804688 108.91705322265625 94.45932006835938 C 107.1966552734375 96.27005004882812 107.12139892578125 99.07325744628906 107.43084716796875 101.55093383789062 C 107.87921142578125 105.17758178710938 108.91159057617188 108.70774841308594 110.48800659179688 112.0045166015625 C 111.03485107421875 113.14254760742188 111.6834716796875 114.29684448242188 112.7294921875 115.003173828125 C 113.73568725585938 115.61016845703125 114.89675903320312 115.91127014160156 116.07113647460938 115.86978149414062 C 119.63836669921875 115.88247680664062 123.03160095214844 114.32969665527344 125.35386657714844 111.62187194824219 L 123.55950927734375 110.17793273925781" stroke-width="0.6000000238418579" fill="rgb(70, 150, 179)" opacity="1.0"/>
    <path d="M 421.842529296875 64.43368530273438 C 423.69232177734375 67.49789428710938 425.87127685546875 70.81668090820312 429.3282470703125 71.7354736328125 C 433.0423583984375 72.72021484375 436.9720458984375 70.4412841796875 439.23638916015625 67.33700561523438 C 440.1099853515625 66.1405029296875 440.82470703125 64.75791931152344 440.8714599609375 63.27734375 C 440.91033935546875 62.06025695800781 440.49853515625 60.877410888671875 440.03021240234375 59.753662109375 C 438.55755615234375 56.208160400390625 436.25390625 52.710235595703125 432.693359375 51.276611328125 C 429.10382080078125 49.83421325683594 424.6292724609375 50.970672607421875 422.17822265625 53.967987060546875 C 419.7271728515625 56.96531677246094 419.45806884765625 61.56829833984375 421.571044921875 64.81585693359375 L 421.842529296875 64.43368530273438" stroke-width="0.6000000238418579" fill="rgb(140, 28, 33)" opacity="1.0"/>
    <path d="M 116.3115234375 424.431640625 C 118.40278625488281 421.0123291015625 120.54116821289062 417.43121337890625 121.01052856445312 413.44775390625 C 121.47984313964844 409.4642639160156 119.7705078125 404.91510009765625 116.07260131835938 403.3633117675781 C 111.50363159179688 401.4579772949219 106.035400390625 405.216064453125 104.74101257324219 410.00347900390625 C 103.44662475585938 414.7908935546875 105.31889343261719 419.910888671875 108.0660400390625 424.032470703125 C 108.78861999511719 425.3934326171875 109.99508666992188 426.4342041015625 111.44743347167969 426.9490966796875 C 112.921875 427.3016357421875 114.79281616210938 426.13037109375 114.5311279296875 424.6295166015625 L 116.3115234375 424.431640625" stroke-width="0.6000000238418579" fill="rgb(159, 159, 159)" opacity="1.0"/>
    <path d="M 468.9149169921875 446.06170654296875 C 469.4144287109375 442.9051513671875 468.84320068359375 439.50872802734375 466.95233154296875 436.93438720703125 C 465.0614013671875 434.36004638671875 461.762451171875 432.755615234375 458.59814453125 433.2808837890625 C 456.36138916015625 433.6551513671875 454.36956787109375 435.03814697265625 452.9639892578125 436.8204345703125 C 451.558349609375 438.6026611328125 450.6934814453125 440.7587890625 450.1368408203125 442.959716796875 C 449.895263671875 443.91766357421875 449.7110595703125 444.93994140625 450.01904296875 445.8759765625 C 450.37158203125 446.9493408203125 451.30401611328125 447.711669921875 452.2259521484375 448.37054443359375 C 454.828857421875 450.2305908203125 457.81591796875 451.7626953125 461.01416015625 451.85546875 C 464.21240234375 451.9482421875 467.6162109375 450.28424072265625 468.79913330078125 447.31988525390625 L 468.9149169921875 446.06170654296875" stroke-width="0.6000000238418579" fill="rgb(159, 159, 159)" opacity="1.0"/>
    <path d="M 453.185302734375 290.54864501953125 C 454.493896484375 286.1044006347656 455.75579833984375 281.10772705078125 453.58349609375 277.0259704589844 C 451.4764404296875 273.053466796875 446.8345947265625 271.2634582519531 442.556640625 269.8717041015625 C 440.81787109375 269.30889892578125 438.98992919921875 268.7478332519531 437.19281005859375 269.0741882324219 C 434.1529541015625 269.6243896484375 432.1181640625 272.4976501464844 430.8712158203125 275.319091796875 C 429.7127685546875 277.9374084472656 428.936279296875 280.70849609375 428.5655517578125 283.54754638671875 C 427.96197509765625 288.1571350097656 428.7855224609375 293.5093688964844 432.6068115234375 296.1540832519531 C 434.667724609375 297.58489990234375 437.31976318359375 297.9822082519531 439.820068359375 297.7319641113281 C 442.3203125 297.48175048828125 444.7181396484375 296.6286926269531 447.0732421875 295.7527770996094 C 449.42840576171875 294.8768615722656 451.72381591796875 293.96575927734375 453.46917724609375 292.24224853515625 L 453.185302734375 290.54864501953125" stroke-width="0.6000000238418579" fill="rgb(218, 166, 20)" opacity="1.0"/>
    <path d="M 426.9949951171875 364.4541320800781 C 425.346923828125 369.4347229003906 428.04833984375 374.80841064453125 433.0289306640625 376.45654296875 C 433.4554443359375 376.5976867675781 433.89141845703125 376.7083740234375 434.3336181640625 376.7878112792969 C 436.01373291015625 377.0893249511719 437.85101318359375 376.89996337890625 439.2432861328125 375.9137268066406 C 440.41986083984375 375.08038330078125 441.16644287109375 373.7750244140625 441.7423095703125 372.4542236328125 C 443.2789306640625 368.91668701171875 443.84039306640625 365.0322265625 443.3682861328125 361.204345703125 C 443.24176025390625 360.1927185058594 443.031494140625 359.16021728515625 442.4686279296875 358.30755615234375 C 441.524658203125 356.8755187988281 439.73040771484375 356.20361328125 438.015625 356.1298828125 C 435.4697265625 356.0186767578125 432.944091796875 357.04766845703125 431.010009765625 358.7076721191406 C 429.07586669921875 360.36767578125 427.702392578125 362.61700439453125 426.8466796875 365.01763916015625 L 426.9949951171875 364.4541320800781" stroke-width="0.6000000238418579" fill="rgb(143, 165, 67)" opacity="1.0"/>
    <path d="M 451.2216796875 347.15753173828125 C 456.95556640625 343.0672607421875 455.175048828125 332.55535888671875 448.61993408203125 330.1055603027344 C 442.0648193359375 327.6557922363281 434.061767578125 333.88385009765625 434.3099365234375 340.92486572265625 C 434.55816650390625 347.96588134765625 442.23193359375 353.5572814941406 449.1387939453125 352.134521484375 L 451.2216796875 347.15753173828125" stroke-width="0.6000000238418579" fill="rgb(233, 92, 21)" opacity="1.0"/>
    <path d="M 452.49365234375 72.28268432617188 C 455.6876220703125 70.959228515625 459.3656005859375 69.04705810546875 459.7315673828125 65.59733581542969 C 459.82373046875 64.21882629394531 459.48583984375 62.845672607421875 458.76458740234375 61.66729736328125 C 457.058349609375 58.703704833984375 454.0216064453125 56.750946044921875 450.6171875 56.42823791503906 C 447.7286376953125 56.161895751953125 444.908935546875 57.13462829589844 442.2060546875 58.137847900390625 C 440.68865966796875 58.703857421875 439.094482421875 59.353546142578125 438.1478271484375 60.656646728515625 C 436.9002685546875 62.4039306640625 437.17193603515625 64.79901123046875 437.7320556640625 66.87091064453125 C 438.5479736328125 69.9041748046875 439.8494873046875 72.78536987304688 441.5860595703125 75.40277099609375 C 442.1878662109375 76.30596923828125 442.878173828125 77.2108154296875 443.85308837890625 77.686767578125 C 444.7822265625 78.08294677734375 445.806640625 78.2001953125 446.80126953125 78.02423095703125 C 449.839111328125 77.60787963867188 452.54150390625 75.87982177734375 454.19390869140625 73.29685974121094 L 452.49365234375 72.28268432617188" stroke-width="0.6000000238418579" fill="rgb(70, 150, 179)" opacity="1.0"/>
    <path d="M 452.7689208984375 398.6023254394531 C 453.0233154296875 394.6961669921875 453.141357421875 390.3558349609375 450.6126708984375 387.3710632324219 C 447.894287109375 384.1663818359375 442.9432373046875 383.7563781738281 438.9710693359375 385.12774658203125 C 437.4393310546875 385.65582275390625 435.9339599609375 386.4501953125 434.966796875 387.7498779296875 C 434.17138671875 388.8179626464844 433.8018798828125 390.136962890625 433.52001953125 391.438232421875 C 432.62646484375 395.5407409667969 432.50836181640625 400.1197814941406 434.80841064453125 403.63140869140625 C 437.12890625 407.16900634765625 441.855224609375 408.9449157714844 445.9281005859375 407.78619384765625 C 450.0009765625 406.6274719238281 453.11865234375 402.6641540527344 453.25140380859375 398.4289245605469 L 452.7689208984375 398.6023254394531" stroke-width="0.6000000238418579" fill="rgb(140, 28, 33)" opacity="1.0"/>
    <path d="M 125.72103881835938 213.11187744140625 C 120.87944030761719 216.04559326171875 115.87382507324219 219.15164184570312 112.70126342773438 223.84512329101562 C 109.52876281738281 228.53857421875 108.7227783203125 235.3548583984375 112.35589599609375 239.70025634765625 C 116.85255432128906 245.05422973632812 126.15077209472656 243.8858642578125 130.87989807128906 238.7188720703125 C 135.60902404785156 233.55184936523438 136.58082580566406 225.91363525390625 135.8073272705078 218.96075439453125 C 135.78350830078125 216.78448486328125 134.94479370117188 214.69625854492188 133.4566192626953 213.108154296875 C 131.8353271484375 211.7095947265625 128.72828674316406 211.965576171875 128.0831756591797 214.01837158203125 L 125.72103881835938 213.11187744140625" stroke-width="0.6000000238418579" fill="rgb(159, 159, 159)" opacity="1.0"/>
    <path d="M 109.366455078125 236.156982421875 C 104.29922485351562 234.04318237304688 98.39738464355469 233.61944580078125 93.33287048339844 235.7322998046875 C 88.26834106445312 237.84515380859375 84.25199890136719 242.70205688476562 83.84585571289062 248.19781494140625 C 83.56364440917969 252.08377075195312 85.06475830078125 255.9698486328125 87.47018432617188 259.03912353515625 C 89.8756103515625 262.10845947265625 93.12446594238281 264.4267272949219 96.57315063476562 266.2484130859375 C 98.07441711425781 267.040283203125 99.70645141601562 267.7622375488281 101.39402770996094 267.627685546875 C 103.328857421875 267.47430419921875 104.97964477539062 266.22686767578125 106.45344543457031 264.95489501953125 C 110.61427307128906 261.36376953125 114.38323974609375 256.99822998046875 115.83505249023438 251.69647216796875 C 117.28684997558594 246.39471435546875 115.88920593261719 240.03741455078125 111.41998291015625 236.86053466796875 L 109.366455078125 236.156982421875" stroke-width="0.6000000238418579" fill="rgb(159, 159, 159)" opacity="1.0"/>
    <path d="M 298.07440185546875 98.306396484375 C 296.24530029296875 103.04248046875 294.41729736328125 108.38607788085938 296.4224853515625 113.03955078125 C 298.3661804199219 117.56781005859375 303.2746887207031 119.94058227539062 307.8217468261719 121.84561157226562 C 309.6700439453125 122.61680603027344 311.615966796875 123.39410400390625 313.60809326171875 123.19940185546875 C 316.9776306152344 122.87210083007812 319.45855712890625 119.91714477539062 321.0744323730469 116.94790649414062 C 322.57525634765625 114.19253540039062 323.67266845703125 111.23593139648438 324.3330993652344 108.16859436035156 C 325.4072265625 103.1884765625 324.9895324707031 97.26884460449219 321.05401611328125 94.03643798828125 C 318.9319152832031 92.28828430175781 316.0712585449219 91.61567687988281 313.3180236816406 91.6639404296875 C 310.5647888183594 91.71220397949219 307.86920166015625 92.42807006835938 305.2181701660156 93.1727294921875 C 302.567138671875 93.91738891601562 299.9781494140625 94.70590209960938 297.9168395996094 96.43115234375 L 298.07440185546875 98.306396484375" stroke-width="0.6000000238418579" fill="rgb(218, 166, 20)" opacity="1.0"/>
    <path d="M 226.51422119140625 121.30073547363281 C 219.70449829101562 114.64816284179688 208.7911376953125 114.77555847167969 202.1385498046875 121.58529663085938 C 201.56887817382812 122.16839599609375 201.04132080078125 122.79119873046875 200.55978393554688 123.44898986816406 C 198.73052978515625 125.94876098632812 197.57672119140625 129.0955047607422 198.07666015625 132.1509552001953 C 198.49887084960938 134.73306274414062 200.03317260742188 136.9896240234375 201.728515625 138.9801788330078 C 206.27383422851562 144.30215454101562 212.1612548828125 148.3100128173828 218.7791748046875 150.58743286132812 C 220.52947998046875 151.1864776611328 222.38055419921875 151.66552734375 224.21905517578125 151.4265594482422 C 227.30575561523438 151.02720642089844 229.82977294921875 148.63621520996094 231.31515502929688 145.89857482910156 C 233.523193359375 141.835693359375 233.85589599609375 136.89794921875 232.68865966796875 132.42250061035156 C 231.52142333984375 127.94706726074219 228.9468994140625 123.91670227050781 225.71343994140625 120.61019897460938 L 226.51422119140625 121.30073547363281" stroke-width="0.6000000238418579" fill="rgb(143, 165, 67)" opacity="1.0"/>
    <path d="M 218.64813232421875 90.11311340332031 C 219.0120849609375 101.75067138671875 235.10092163085938 108.9466552734375 244.48388671875 102.18014526367188 C 253.8668212890625 95.41358947753906 252.64501953125 78.69424438476562 242.73495483398438 72.57557678222656 C 232.82489013671875 66.4569091796875 218.09552001953125 71.87934875488281 213.71502685546875 82.6826171875 L 218.64813232421875 90.11311340332031" stroke-width="0.6000000238418579" fill="rgb(233, 92, 21)" opacity="1.0"/>
    <path d="M 198.6395263671875 97.84646606445312 C 197.14990234375 92.56472778320312 194.82269287109375 86.41004943847656 189.45330810546875 85.18899536132812 C 187.29757690429688 84.78622436523438 185.07000732421875 85.06230163574219 183.07785034179688 85.97921752929688 C 178.0877685546875 88.11520385742188 174.4425048828125 92.537353515625 173.29803466796875 97.8433837890625 C 172.3387451171875 102.34683227539062 173.345458984375 106.97305297851562 174.4219970703125 111.42095947265625 C 175.03082275390625 113.91851806640625 175.7572021484375 116.55270385742188 177.63446044921875 118.28823852539062 C 180.15567016601562 120.5810546875 183.98171997070312 120.60017395019531 187.35223388671875 120.104248046875 C 192.285888671875 119.38459777832031 197.070556640625 117.87115478515625 201.5206298828125 115.62258911132812 C 203.05670166015625 114.84271240234375 204.6119384765625 113.92356872558594 205.54425048828125 112.47567749023438 C 206.34222412109375 111.08506774902344 206.7183837890625 109.49227905273438 206.62677001953125 107.89158630371094 C 206.53781127929688 103.02523803710938 204.318603515625 98.44287109375 200.55572509765625 95.35580444335938 L 198.6395263671875 97.84646606445312" stroke-width="0.6000000238418579" fill="rgb(70, 150, 179)" opacity="1.0"/>
    <path d="M 262.34759521484375 130.8369598388672 C 258.7260437011719 134.23997497558594 254.85467529296875 138.1640167236328 254.61346435546875 143.12449645996094 C 254.3575439453125 148.45333862304688 258.5950927734375 153.1249237060547 263.46844482421875 155.29551696777344 C 265.3470458984375 156.13320922851562 267.4320373535156 156.70108032226562 269.45562744140625 156.33367919921875 C 271.1192626953125 156.03228759765625 272.605224609375 155.1289825439453 273.9945068359375 154.16610717773438 C 278.3791809082031 151.13494873046875 282.45745849609375 146.98953247070312 283.367431640625 141.73849487304688 C 284.2809143066406 136.4456329345703 281.435791015625 130.70179748535156 276.6533203125 128.24664306640625 C 271.870849609375 125.79148864746094 265.5436096191406 126.765869140625 261.749755859375 130.5796356201172 L 262.34759521484375 130.8369598388672" stroke-width="0.6000000238418579" fill="rgb(140, 28, 33)" opacity="1.0"/>
    <path d="M 303.25885009765625 122.72137451171875 C 298.05133056640625 124.49630737304688 292.65216064453125 126.40066528320312 288.6618957519531 130.19410705566406 C 284.67169189453125 133.9875030517578 282.4850769042969 140.2894744873047 285.0273742675781 145.17190551757812 C 288.1790466308594 151.19174194335938 297.2486572265625 152.0218963623047 302.815185546875 148.10362243652344 C 308.3817443847656 144.18533325195312 310.8971862792969 137.1377410888672 311.6130065917969 130.37672424316406 C 312.0442810058594 128.30599975585938 311.6836853027344 126.14892578125 310.602294921875 124.33114624023438 C 309.35504150390625 122.66546630859375 306.3524169921875 122.26045227050781 305.31195068359375 124.07443237304688 L 303.25885009765625 122.72137451171875" stroke-width="0.6000000238418579" fill="rgb(159, 159, 159)" opacity="1.0"/>
    <path d="M 195.40032958984375 133.939697265625 C 191.82855224609375 129.43968200683594 186.63720703125 126.06539916992188 180.9293212890625 125.43815612792969 C 175.221435546875 124.8109130859375 169.085205078125 127.22738647460938 165.9324951171875 132.0557403564453 C 163.70782470703125 135.47225952148438 163.11651611328125 139.79119873046875 163.76678466796875 143.81959533691406 C 164.41702270507812 147.84800720214844 166.21981811523438 151.61524963378906 168.4569091796875 155.0287628173828 C 169.43133544921875 156.513671875 170.5609130859375 158.000732421875 172.1746826171875 158.7313232421875 C 174.02450561523438 159.56982421875 176.16769409179688 159.26251220703125 178.16122436523438 158.8431396484375 C 183.789306640625 157.65911865234375 189.45034790039062 155.5675048828125 193.462646484375 151.4459686279297 C 197.4749755859375 147.3244171142578 199.41143798828125 140.79428100585938 196.92529296875 135.6231231689453 L 195.40032958984375 133.939697265625" stroke-width="0.6000000238418579" fill="rgb(159, 159, 159)" opacity="1.0"/>
    <path d="M 278.6270751953125 96.64532470703125 C 273.6671142578125 98.44137573242188 268.2316589355469 100.65264892578125 265.95135498046875 105.39804077148438 C 263.72723388671875 110.00982666015625 265.2147216796875 115.4757080078125 266.8223571777344 120.33927917480469 C 267.47833251953125 122.3140869140625 268.1960754394531 124.36956787109375 269.707275390625 125.79840087890625 C 272.26177978515625 128.2165069580078 276.27008056640625 128.14608764648438 279.6996154785156 127.38780212402344 C 282.883056640625 126.68521118164062 285.9490966796875 125.52911376953125 288.803955078125 123.95497131347656 C 293.4403076171875 121.40066528320312 297.7958068847656 117.03619384765625 297.6457214355469 111.74679565429688 C 297.5688781738281 108.89109802246094 296.1452331542969 106.18995666503906 294.2297668457031 104.06463623046875 C 292.3143005371094 101.9393310546875 289.9148254394531 100.31449890136719 287.5231628417969 98.74421691894531 C 285.1314697265625 97.17393493652344 282.7477722167969 95.68220520019531 279.9895935058594 95.24293518066406 L 278.6270751953125 96.64532470703125" stroke-width="0.6000000238418579" fill="rgb(218, 166, 20)" opacity="1.0"/>
    <path d="M 233.0987548828125 118.95591735839844 C 231.11297607421875 128.79885864257812 237.48248291015625 138.38792419433594 247.32537841796875 140.3737030029297 C 248.16827392578125 140.5437469482422 249.0220947265625 140.65377807617188 249.88055419921875 140.70298767089844 C 253.14239501953125 140.8893585205078 256.5898742675781 140.1068572998047 259.0083923339844 137.91253662109375 C 261.0523986816406 136.05836486816406 262.1706237792969 133.40628051757812 262.96099853515625 130.76412963867188 C 265.0669250488281 123.68881225585938 265.2399597167969 116.17868041992188 263.4621887207031 109.01385498046875 C 262.98907470703125 107.12078857421875 262.3519592285156 105.20730590820312 261.08636474609375 103.71658325195312 C 258.96319580078125 101.21273803710938 255.3992919921875 100.348876953125 252.12396240234375 100.60333251953125 C 247.260986328125 100.97769165039062 242.69866943359375 103.51400756835938 239.405517578125 107.11322021484375 C 236.11236572265625 110.71241760253906 234.02011108398438 115.30239868164062 232.94647216796875 120.060791015625 L 233.0987548828125 118.95591735839844" stroke-width="0.6000000238418579" fill="rgb(143, 165, 67)" opacity="1.0"/>
    <path d="M 254.7054443359375 85.32575988769531 C 255.2591552734375 96.34706115722656 270.6341552734375 102.87734985351562 279.4040832519531 96.2969970703125 C 288.17401123046875 89.71661376953125 286.71624755859375 73.89518737792969 277.2156066894531 68.27490234375 C 267.7149963378906 62.65461730957031 253.85464477539062 68.0572509765625 249.89752197265625 78.37307739257812 L 254.7054443359375 85.32575988769531" stroke-width="0.6000000238418579" fill="rgb(233, 92, 21)" opacity="1.0"/>
    <path d="M 339.2030029296875 76.10844421386719 C 335.8111877441406 72.21391296386719 331.3556823730469 67.91358947753906 326.2962951660156 69.03439331054688 C 324.30023193359375 69.55879211425781 322.51605224609375 70.68966674804688 321.18994140625 72.27102661132812 C 317.8034973144531 76.09542846679688 316.4808044433594 81.32400512695312 317.64129638671875 86.29867553710938 C 318.6365051269531 90.51603698730469 321.353759765625 94.04708862304688 324.0587158203125 97.39833068847656 C 325.5812683105469 99.27838134765625 327.2587890625 101.22738647460938 329.55401611328125 101.94889831542969 C 332.62127685546875 102.88552856445312 335.8841552734375 101.36288452148438 338.55230712890625 99.58526611328125 C 342.46038818359375 96.98858642578125 345.92242431640625 93.77645874023438 348.8041076660156 90.073486328125 C 349.7973327636719 88.79214477539062 350.7508239746094 87.38458251953125 350.9616394042969 85.77772521972656 C 351.08123779296875 84.27362060546875 350.7606201171875 82.7672119140625 350.0388488769531 81.44218444824219 C 348.0058288574219 77.33769226074219 344.2746276855469 74.33163452148438 339.83148193359375 73.21868896484375 L 339.2030029296875 76.10844421386719" stroke-width="0.6000000238418579" fill="rgb(70, 150, 179)" opacity="1.0"/>
    <path d="M 334.1813049316406 138.06689453125 C 333.34234619140625 133.41082763671875 332.2169494628906 128.28517150878906 328.38165283203125 125.52030944824219 C 324.2598876953125 122.55270385742188 318.332763671875 123.513427734375 314.07269287109375 126.27867126464844 C 312.4297180175781 127.34413146972656 310.8951416015625 128.7142791748047 310.1391296386719 130.52041625976562 C 309.51708984375 132.0049285888672 309.46771240234375 133.65972900390625 309.51605224609375 135.26820373535156 C 309.6623840332031 140.3406982421875 310.85723876953125 145.74636840820312 314.57769775390625 149.19583129882812 C 318.3298034667969 152.66978454589844 324.3909606933594 153.3767547607422 328.8310852050781 150.8316192626953 C 333.2712097167969 148.28648376464844 335.7743225097656 142.72962951660156 334.6967468261719 137.7230224609375 L 334.1813049316406 138.06689453125" stroke-width="0.6000000238418579" fill="rgb(140, 28, 33)" opacity="1.0"/>
    <path d="M 345.69561767578125 104.70484924316406 C 340.41778564453125 103.73532104492188 334.9151916503906 102.78465270996094 329.7120361328125 104.11296081542969 C 324.50897216796875 105.4412841796875 319.646240234375 109.76382446289062 319.4847106933594 115.13043212890625 C 319.30010986328125 121.75540161132812 326.6244201660156 126.78176879882812 333.22869873046875 126.09796142578125 C 339.83294677734375 125.41413879394531 345.3306884765625 120.61358642578125 349.1601867675781 115.19979858398438 C 350.5135498046875 113.6427001953125 351.2340087890625 111.63491821289062 351.1793518066406 109.5726318359375 C 350.9111022949219 107.56082153320312 348.54827880859375 105.78596496582031 346.7986755371094 106.83441162109375 L 345.69561767578125 104.70484924316406" stroke-width="0.6000000238418579" fill="rgb(159, 159, 159)" opacity="1.0"/>
    <path d="M 345.6823425292969 120.67495727539062 C 341.02362060546875 122.2618408203125 336.80712890625 125.47943115234375 334.658447265625 129.90431213378906 C 332.5097351074219 134.3291778564453 332.693603515625 139.9755859375 335.68206787109375 143.90882873535156 C 337.7984619140625 146.68701171875 341.1130065917969 148.40699768066406 344.5504455566406 149.0416259765625 C 347.9878845214844 149.67626953125 351.5462646484375 149.30581665039062 354.9442443847656 148.48316955566406 C 356.4227600097656 148.12429809570312 357.9476318359375 147.64083862304688 359.0015563964844 146.54901123046875 C 360.2104187011719 145.2978057861328 360.5792236328125 143.48013305664062 360.8145446777344 141.7509765625 C 361.4788818359375 136.86923217773438 361.4203796386719 131.69972229003906 359.2496032714844 127.27630615234375 C 357.07879638671875 122.85287475585938 352.36724853515625 119.41120910644531 347.4794616699219 119.92901611328125 L 345.6823425292969 120.67495727539062" stroke-width="0.6000000238418579" fill="rgb(159, 159, 159)" opacity="1.0"/>
    <path d="M 364.0097961425781 98.94631958007812 C 359.9098815917969 99.69500732421875 355.38507080078125 100.70480346679688 352.98602294921875 104.10279846191406 C 350.64825439453125 107.40408325195312 351.09014892578125 111.85768127441406 351.7046813964844 115.85775756835938 C 351.9566955566406 117.48237609863281 352.24627685546875 119.17794799804688 353.2362060546875 120.4893798828125 C 354.9092102050781 122.70843505859375 358.04132080078125 123.17935180664062 360.8127136230469 123.0384521484375 C 363.3851013183594 122.90864562988281 365.9255065917969 122.41014099121094 368.356201171875 121.55819702148438 C 372.303466796875 120.17633056640625 376.2693176269531 117.34732055664062 376.84625244140625 113.20664978027344 C 377.1609802246094 110.97171020507812 376.4061279296875 108.68051147460938 375.1925964355469 106.77340698242188 C 373.97906494140625 104.86631774902344 372.32275390625 103.28565979003906 370.6654052734375 101.74853515625 C 369.0080261230469 100.21139526367188 367.3465576171875 98.73651123046875 365.25531005859375 98.03245544433594 L 364.0097961425781 98.94631958007812" stroke-width="0.6000000238418579" fill="rgb(218, 166, 20)" opacity="1.0"/>
    <path d="M 427.3792724609375 138.83763122558594 C 418.5677490234375 139.24876403808594 411.7579040527344 146.7252197265625 412.1690673828125 155.5367431640625 C 412.2042236328125 156.291259765625 412.29296875 157.0423583984375 412.4344482421875 157.78436279296875 C 412.97259521484375 160.6036376953125 414.37603759765625 163.3740234375 416.7625732421875 164.96600341796875 C 418.779296875 166.31149291992188 421.278076171875 166.6976318359375 423.6983642578125 166.80657958984375 C 430.17724609375 167.08917236328125 436.6136474609375 165.63189697265625 442.3389892578125 162.5860595703125 C 443.8509521484375 161.7784423828125 445.3453369140625 160.82666015625 446.34515380859375 159.42971801757812 C 448.0250244140625 157.08551025390625 447.99957275390625 153.86410522460938 447.0828857421875 151.12754821777344 C 445.72479248046875 147.06381225585938 442.5887451171875 143.71817016601562 438.818115234375 141.68113708496094 C 435.047607421875 139.6441192626953 430.6893310546875 138.84205627441406 426.4052734375 138.9439697265625 L 427.3792724609375 138.83763122558594" stroke-width="0.6000000238418579" fill="rgb(143, 165, 67)" opacity="1.0"/>
    <path d="M 149.45144653320312 406.5534973144531 C 153.66566467285156 416.73345947265625 170.31423950195312 417.7227783203125 176.357177734375 408.594970703125 C 182.40008544921875 399.4671630859375 175.72698974609375 385.07562255859375 164.908203125 382.9736022949219 C 154.0894012451172 380.8715515136719 142.8642578125 390.59759521484375 142.59962463378906 401.625732421875 L 149.45144653320312 406.5534973144531" stroke-width="0.6000000238418579" fill="rgb(233, 92, 21)" opacity="1.0"/>
    <path d="M 431.168701171875 195.35592651367188 C 426.67315673828125 193.45751953125 421.1063232421875 191.65606689453125 417.276611328125 194.7071533203125 C 415.79974365234375 195.98068237304688 414.7545166015625 197.68109130859375 414.2850341796875 199.5738525390625 C 412.9974365234375 204.2257080078125 414.0445556640625 209.21310424804688 417.0941162109375 212.95443725585938 C 419.689208984375 216.12149047851562 423.461181640625 217.99130249023438 427.148193359375 219.71356201171875 C 429.22088623046875 220.67767333984375 431.4537353515625 221.635986328125 433.70159912109375 221.29592895507812 C 436.694091796875 220.818115234375 438.83197021484375 218.17144775390625 440.3592529296875 215.55517578125 C 442.59912109375 211.72900390625 444.2049560546875 207.5655517578125 445.114501953125 203.2261962890625 C 445.42578125 201.726318359375 445.651123046875 200.1357421875 445.1632080078125 198.6842041015625 C 444.6405029296875 197.3577880859375 443.7431640625 196.2120361328125 442.58056640625 195.38677978515625 C 439.15142822265625 192.7462158203125 434.736572265625 191.74288940429688 430.5029296875 192.64202880859375 L 431.168701171875 195.35592651367188" stroke-width="0.6000000238418579" fill="rgb(70, 150, 179)" opacity="1.0"/>
    <path d="M 412.212646484375 160.21051025390625 C 411.2451477050781 154.84463500976562 409.94744873046875 148.93759155273438 405.5269470214844 145.75167846679688 C 400.77630615234375 142.33213806152344 393.945556640625 143.44017028808594 389.03631591796875 146.62762451171875 C 387.1429748535156 147.85577392578125 385.3746337890625 149.43505859375 384.5035705566406 151.51669311523438 C 383.7868957519531 153.22764587402344 383.730224609375 155.13475036621094 383.7861328125 156.98846435546875 C 383.9554748535156 162.83441162109375 385.333251953125 169.06414794921875 389.6214904785156 173.0390625 C 393.9461669921875 177.04217529296875 400.93157958984375 177.85614013671875 406.04840087890625 174.92230224609375 C 411.1651916503906 171.98849487304688 414.0491943359375 165.583984375 412.806640625 159.81414794921875 L 412.212646484375 160.21051025390625" stroke-width="0.6000000238418579" fill="rgb(140, 28, 33)" opacity="1.0"/>
    <path d="M 142.42529296875 134.3848876953125 C 137.09422302246094 136.7839813232422 131.57337951660156 139.3391571044922 127.73211669921875 143.75164794921875 C 123.89093017578125 148.16407775878906 122.2088623046875 155.04962158203125 125.38717651367188 159.9599609375 C 129.32398986816406 166.012451171875 139.00144958496094 165.98245239257812 144.4976806640625 161.28005981445312 C 149.993896484375 156.57766723632812 151.9491424560547 148.87045288085938 152.0293731689453 141.64659118652344 C 152.2782440185547 139.41287231445312 151.68077087402344 137.1671142578125 150.3547821044922 135.35243225097656 C 148.8685760498047 133.71530151367188 145.6516876220703 133.58750915527344 144.732666015625 135.6106414794922 L 142.42529296875 134.3848876953125" stroke-width="0.6000000238418579" fill="rgb(159, 159, 159)" opacity="1.0"/>
    <path d="M 432.72137451171875 167.95053100585938 C 428.54833984375 165.19842529296875 423.341552734375 163.81610107421875 418.452392578125 164.84500122070312 C 413.56329345703125 165.87387084960938 409.14520263671875 169.53533935546875 407.84765625 174.3819580078125 C 406.93463134765625 177.80975341796875 407.6166687011719 181.540771484375 409.2464294433594 184.69500732421875 C 410.87615966796875 187.84930419921875 413.38800048828125 190.47515869140625 416.1629638671875 192.69082641601562 C 417.37115478515625 193.65432739257812 418.70819091796875 194.5775146484375 420.240478515625 194.74404907226562 C 421.9971923828125 194.935791015625 423.685791015625 194.10064697265625 425.22021484375 193.21347045898438 C 429.5523681640625 190.708740234375 433.6656494140625 187.4447021484375 435.865478515625 182.94940185546875 C 438.0653076171875 178.4541015625 437.89599609375 172.53021240234375 434.43853759765625 168.92889404296875 L 432.72137451171875 167.95053100585938" stroke-width="0.6000000238418579" fill="rgb(159, 159, 159)" opacity="1.0"/>
    <path d="M 411.5616760253906 192.337646484375 C 409.9019775390625 187.306640625 407.8392333984375 181.78631591796875 403.14141845703125 179.360107421875 C 398.5760803222656 176.99417114257812 393.0461120605469 178.3294677734375 388.1173095703125 179.80279541015625 C 386.1159362792969 180.40423583984375 384.03179931640625 181.06536865234375 382.55377197265625 182.5411376953125 C 380.0525207519531 185.03561401367188 380.00738525390625 189.0614013671875 380.6695251464844 192.52606201171875 C 381.2828674316406 195.74212646484375 382.3548278808594 198.85342407226562 383.8525695800781 201.7647705078125 C 386.28277587890625 206.49282836914062 390.5382385253906 210.9912109375 395.8524169921875 210.993408203125 C 398.7213439941406 210.998779296875 401.4740295410156 209.64764404296875 403.66290283203125 207.78619384765625 C 405.8517761230469 205.92474365234375 407.55218505859375 203.56295776367188 409.1976318359375 201.20742797851562 C 410.84307861328125 198.85189819335938 412.409423828125 196.5020751953125 412.93011474609375 193.7459716796875 L 411.5616760253906 192.337646484375" stroke-width="0.6000000238418579" fill="rgb(218, 166, 20)" opacity="1.0"/>
    <path d="M 437.9442138671875 183.89511108398438 C 438.842041015625 192.9444580078125 446.9058837890625 199.55255126953125 455.9552001953125 198.6546630859375 C 456.7301025390625 198.57781982421875 457.49853515625 198.446044921875 458.25482177734375 198.26040649414062 C 461.1282958984375 197.55450439453125 463.90478515625 195.96044921875 465.4151611328125 193.417724609375 C 466.6917724609375 191.26907348632812 466.9547119140625 188.67578125 466.9365234375 186.17822265625 C 466.8785400390625 179.49298095703125 465.03155517578125 172.9451904296875 461.5875244140625 167.21502685546875 C 460.67462158203125 165.701904296875 459.6142578125 164.2147216796875 458.122314453125 163.26068115234375 C 455.618408203125 161.65753173828125 452.3033447265625 161.857177734375 449.53546142578125 162.94830322265625 C 445.42498779296875 164.56536865234375 442.1495361328125 167.97412109375 440.2554931640625 171.96566772460938 C 438.3614501953125 175.95718383789062 437.7705078125 180.4871826171875 438.10614013671875 184.89212036132812 L 437.9442138671875 183.89511108398438" stroke-width="0.6000000238418579" fill="rgb(143, 165, 67)" opacity="1.0"/>
    <path d="M 145.48912048339844 100.28866577148438 C 134.22108459472656 106.63658142089844 135.41836547851562 126.17715454101562 146.90817260742188 131.93063354492188 C 158.39801025390625 137.68405151367188 174.22674560546875 127.87625122070312 175.14910888671875 114.97218322753906 C 176.07147216796875 102.06809997558594 163.15301513671875 90.36015319824219 150.2643280029297 91.60848999023438 L 145.48912048339844 100.28866577148438" stroke-width="0.6000000238418579" fill="rgb(233, 92, 21)" opacity="1.0"/>
    <path d="M 453.11285400390625 145.27622985839844 C 450.65625 150.51853942871094 448.2655029296875 157.035400390625 451.70703125 161.71527099609375 C 453.1490478515625 163.5244140625 455.116943359375 164.84146118164062 457.3392333984375 165.4847412109375 C 462.794921875 167.22433471679688 468.75537109375 166.211669921875 473.3304443359375 162.76791381835938 C 477.203857421875 159.836669921875 479.5933837890625 155.45071411132812 481.8040771484375 151.1588134765625 C 483.0419921875 148.74586486816406 484.2803955078125 146.14279174804688 483.98028564453125 143.4624481201172 C 483.551025390625 139.89305114746094 480.511474609375 137.23727416992188 477.4798583984375 135.30685424804688 C 473.04669189453125 132.47610473632812 468.1845703125 130.381591796875 463.0821533203125 129.10452270507812 C 461.3182373046875 128.66665649414062 459.4429931640625 128.3267059326172 457.69989013671875 128.8385467529297 C 456.10345458984375 129.39736938476562 454.7041015625 130.40863037109375 453.6724853515625 131.74903869628906 C 450.385009765625 135.69322204589844 448.99322509765625 140.88101196289062 449.86505126953125 145.94107055664062 L 453.11285400390625 145.27622985839844" stroke-width="0.6000000238418579" fill="rgb(70, 150, 179)" opacity="1.0"/>
    <path d="M 380.6353454589844 80.23429870605469 C 381.02764892578125 73.8837890625 381.19586181640625 66.82827758789062 377.0694580078125 61.99055480957031 C 372.6336364746094 56.79640197753906 364.5837707519531 56.156890869140625 358.13482666015625 58.40753173828125 C 355.64801025390625 59.27423095703125 353.2054138183594 60.573577880859375 351.6405029296875 62.69134521484375 C 350.3533935546875 64.43177795410156 349.7599792480469 66.57769775390625 349.3089904785156 68.6943359375 C 347.8787841796875 75.36746215820312 347.7117919921875 82.81095886230469 351.4693908691406 88.50630187988281 C 355.26043701171875 94.24372863769531 362.95233154296875 97.10464477539062 369.56610107421875 95.1990966796875 C 376.1799011230469 93.29354858398438 381.2259521484375 86.83453369140625 381.4186096191406 79.94985961914062 L 380.6353454589844 80.23429870605469" stroke-width="0.6000000238418579" fill="rgb(140, 28, 33)" opacity="1.0"/>
    <path d="M 136.52902221679688 413.2906494140625 C 134.1165313720703 419.11474609375 131.67041015625 425.2015380859375 131.91580200195312 431.5052490234375 C 132.16123962402344 437.808837890625 135.92987060546875 444.4583740234375 142.05470275878906 445.96453857421875 C 149.6193389892578 447.806884765625 157.19549560546875 440.63043212890625 158.03521728515625 432.8758544921875 C 158.87493896484375 425.121337890625 154.71347045898438 417.624755859375 149.4370880126953 411.8935852050781 C 147.9814910888672 409.955810546875 145.8524627685547 408.6341552734375 143.47007751464844 408.1894226074219 C 141.09310913085938 408.00250244140625 138.47288513183594 410.2798767089844 139.24667358398438 412.547607421875 L 136.52902221679688 413.2906494140625" stroke-width="0.6000000238418579" fill="rgb(159, 159, 159)" opacity="1.0"/>
    <path d="M 422.4295654296875 214.93344116210938 C 417.2198486328125 210.74737548828125 410.46246337890625 208.25509643554688 403.82586669921875 209.01202392578125 C 397.18927001953125 209.76895141601562 390.8498229980469 214.0889892578125 388.5155029296875 220.3775634765625 C 386.8707275390625 224.82574462890625 387.3110656738281 229.87744140625 389.08514404296875 234.28009033203125 C 390.8592529296875 238.68276977539062 393.8736267089844 242.49267578125 397.2896728515625 245.78952026367188 C 398.777099609375 247.22335815429688 400.44110107421875 248.61972045898438 402.4598388671875 249.03335571289062 C 404.7740478515625 249.5086669921875 407.12628173828125 248.60861206054688 409.2799072265625 247.6199951171875 C 415.3599853515625 244.828857421875 421.24395751953125 240.99957275390625 424.7353515625 235.29171752929688 C 428.2266845703125 229.58380126953125 428.743408203125 221.67755126953125 424.5926513671875 216.45086669921875 L 422.4295654296875 214.93344116210938" stroke-width="0.6000000238418579" fill="rgb(159, 159, 159)" opacity="1.0"/>
    <path d="M 382.26654052734375 112.78672790527344 C 376.13134765625 113.06317138671875 369.32379150390625 113.63624572753906 365.1441650390625 118.11962890625 C 361.0733642578125 122.4739990234375 360.8314514160156 129.06446838378906 360.9319152832031 135.02719116210938 C 360.9762878417969 137.44940185546875 361.0613098144531 139.98269653320312 362.2454528808594 142.0946502685547 C 364.2461242675781 145.6678009033203 368.725341796875 146.979248046875 372.7997741699219 147.32554626464844 C 376.5814208984375 147.64842224121094 380.3898620605469 147.42660522460938 384.10845947265625 146.66690063476562 C 390.14691162109375 145.435546875 396.5007629394531 142.09500122070312 398.1678771972656 136.16436767578125 C 399.07257080078125 132.96392822265625 398.4268493652344 129.4683074951172 397.0348815917969 126.442138671875 C 395.6429138183594 123.41595458984375 393.5395202636719 120.77822875976562 391.42584228515625 118.20379638671875 C 389.3122253417969 115.62937927246094 387.18017578125 113.14501953125 384.2670593261719 111.70053100585938 L 382.26654052734375 112.78672790527344" stroke-width="0.6000000238418579" fill="rgb(218, 166, 20)" opacity="1.0"/>
    <path d="M 404.7225341796875 82.478271484375 C 396.5098571777344 75.93704223632812 384.5494689941406 77.2919921875 378.00823974609375 85.50465393066406 C 377.4480895996094 86.20790100097656 376.9385681152344 86.95001220703125 376.48345947265625 87.72537231445312 C 374.7546691894531 90.67190551757812 373.8390197753906 94.25312805175781 374.727783203125 97.55001831054688 C 375.47857666015625 100.33619689941406 377.413330078125 102.641357421875 379.49517822265625 104.63670349121094 C 385.0750732421875 109.9700927734375 391.98126220703125 113.71212768554688 399.4963073730469 115.47412109375 C 401.4835205078125 115.9365234375 403.5679626464844 116.25604248046875 405.5586242675781 115.78913879394531 C 408.9010009765625 115.00726318359375 411.40423583984375 112.10270690917969 412.729248046875 108.9334716796875 C 414.6995849609375 104.22966003417969 414.51483154296875 98.77471923828125 412.7357177734375 93.99403381347656 C 410.9566955566406 89.21336364746094 407.68304443359375 85.0777587890625 403.7669982910156 81.80975341796875 L 404.7225341796875 82.478271484375" stroke-width="0.6000000238418579" fill="rgb(143, 165, 67)" opacity="1.0"/>
    <path d="M 123.25917053222656 427.56396484375 C 116.30422973632812 417.502197265625 98.00514221191406 420.3233642578125 93.58248901367188 431.642822265625 C 89.15988159179688 442.96240234375 99.76852416992188 457.01947021484375 112.00123596191406 456.769775390625 C 124.23394775390625 456.52001953125 134.14056396484375 443.33892822265625 131.8478240966797 431.308837890625 L 123.25917053222656 427.56396484375" stroke-width="0.6000000238418579" fill="rgb(233, 92, 21)" opacity="1.0"/>
    <path d="M 449.13323974609375 210.03497314453125 C 443.9974365234375 212.9969482421875 438.16973876953125 217.06771850585938 438.31622314453125 223.01483154296875 C 438.46661376953125 225.3792724609375 439.3470458984375 227.6387939453125 440.83599853515625 229.481689453125 C 444.39739990234375 234.14053344726562 449.99603271484375 236.7841796875 455.8564453125 236.57431030273438 C 460.8272705078125 236.383544921875 465.40478515625 234.10134887695312 469.7769775390625 231.7933349609375 C 472.23095703125 230.49282836914062 474.7967529296875 229.032958984375 476.115966796875 226.60635375976562 C 477.847900390625 223.35748291015625 476.85235595703125 219.34561157226562 475.4383544921875 215.94754028320312 C 473.37518310546875 210.97186279296875 470.520263671875 206.3629150390625 466.9842529296875 202.29949951171875 C 465.7598876953125 200.89785766601562 464.384521484375 199.51312255859375 462.6207275390625 198.92111206054688 C 460.95263671875 198.45452880859375 459.184814453125 198.4833984375 457.53277587890625 199.00421142578125 C 452.460205078125 200.3890380859375 448.25042724609375 203.92938232421875 446.016357421875 208.68939208984375 L 449.13323974609375 210.03497314453125" stroke-width="0.6000000238418579" fill="rgb(70, 150, 179)" opacity="1.0"/>
    <path d="M 427.3795166015625 135.04383850097656 C 428.933837890625 129.24978637695312 430.4134521484375 122.76226806640625 427.50872802734375 117.51791381835938 C 424.385009765625 111.88615417480469 417.06719970703125 109.78446960449219 410.6861572265625 110.65365600585938 C 408.22576904296875 110.98771667480469 405.7250061035156 111.7298583984375 403.8816223144531 113.39291381835938 C 402.36572265625 114.75944519042969 401.4146728515625 116.63084411621094 400.6007080078125 118.50192260742188 C 398.0268249511719 124.39926147460938 396.4755554199219 131.2454833984375 398.8785400390625 137.21304321289062 C 401.3045654296875 143.2257537841797 407.87469482421875 147.31277465820312 414.34326171875 146.7933807373047 C 420.8118896484375 146.2740020751953 426.6865234375 141.25311279296875 428.1566162109375 134.9280242919922 L 427.3795166015625 135.04383850097656" stroke-width="0.6000000238418579" fill="rgb(140, 28, 33)" opacity="1.0"/>
    <path d="M 396.9815368652344 64.09857177734375 C 398.6163330078125 70.13592529296875 400.38397216796875 76.40011596679688 404.3974304199219 81.20333862304688 C 408.4108581542969 86.0064697265625 415.401611328125 88.94589233398438 421.1259765625 86.41683959960938 C 428.18511962890625 83.27920532226562 429.7869873046875 73.04971313476562 425.74658203125 66.44906616210938 C 421.70623779296875 59.848419189453125 413.8934326171875 56.481658935546875 406.2748718261719 55.17747497558594 C 403.9569091796875 54.5374755859375 401.4833679199219 54.78962707519531 399.34228515625 55.88423156738281 C 397.36175537109375 57.17808532714844 396.6837158203125 60.55522155761719 398.66607666015625 61.86769104003906 L 396.9815368652344 64.09857177734375" stroke-width="0.6000000238418579" fill="rgb(159, 159, 159)" opacity="1.0"/>
    <path d="M 438.5059814453125 236.298583984375 C 434.03466796875 241.13421630859375 431.12261962890625 247.607177734375 431.4132080078125 254.18341064453125 C 431.70379638671875 260.7596435546875 435.51763916015625 267.2872314453125 441.5404052734375 270.01190185546875 C 445.80108642578125 271.9328918457031 450.79754638671875 271.84521484375 455.2470703125 270.4019775390625 C 459.6966552734375 268.958740234375 463.648193359375 266.2556457519531 467.12286376953125 263.12261962890625 C 468.6341552734375 261.75830078125 470.12060546875 260.21783447265625 470.66522216796875 258.261474609375 C 471.2906494140625 256.0188293457031 470.56658935546875 253.644775390625 469.7418212890625 251.4599609375 C 467.413330078125 245.29180908203125 464.0509033203125 239.24554443359375 458.677978515625 235.423095703125 C 453.30511474609375 231.60061645507812 445.5677490234375 230.55224609375 440.1456298828125 234.2757568359375 L 438.5059814453125 236.298583984375" stroke-width="0.6000000238418579" fill="rgb(159, 159, 159)" opacity="1.0"/>
    <path d="M 413.759521484375 260.23101806640625 C 411.61578369140625 254.26492309570312 408.9744567871094 247.7261962890625 403.2783508300781 244.97171020507812 C 397.74261474609375 242.28515625 391.16943359375 244.05657958984375 385.31976318359375 245.97412109375 C 382.9445495605469 246.75662231445312 380.4721984863281 247.61309814453125 378.7505798339844 249.42498779296875 C 375.83697509765625 252.48773193359375 375.9096984863281 257.30499267578125 376.8108215332031 261.4287414550781 C 377.645751953125 265.2566223144531 379.0260009765625 268.94476318359375 380.9093017578125 272.3802795410156 C 383.9652404785156 277.9597473144531 389.1974182128906 283.2070007324219 395.5545654296875 283.0423278808594 C 398.9866638183594 282.9584655761719 402.237060546875 281.25555419921875 404.796875 278.9599304199219 C 407.3567199707031 276.6642761230469 409.3164978027344 273.78546142578125 411.2107238769531 270.9158630371094 C 413.10498046875 268.0462646484375 414.90472412109375 265.18603515625 415.4407958984375 261.87261962890625 L 413.759521484375 260.23101806640625" stroke-width="0.6000000238418579" fill="rgb(218, 166, 20)" opacity="1.0"/>
    <path d="M 415.5560302734375 88.19966125488281 C 411.2127380371094 97.130126953125 414.931396484375 107.890625 423.86181640625 112.23391723632812 C 424.62652587890625 112.6058349609375 425.41668701171875 112.92301940917969 426.226318359375 113.18313598632812 C 429.30279541015625 114.1708984375 432.79742431640625 114.27713012695312 435.6572265625 112.77647399902344 C 438.0740966796875 111.50852966308594 439.80267333984375 109.24700927734375 441.21490478515625 106.91363525390625 C 444.98651123046875 100.66259765625 447.015625 93.51568603515625 447.09130859375 86.21533203125 C 447.108154296875 84.28559875488281 446.972900390625 82.29562377929688 446.1312255859375 80.55448913574219 C 444.7198486328125 77.630615234375 441.522216796875 75.91932678222656 438.323486328125 75.35025024414062 C 433.57501220703125 74.5020751953125 428.57794189453125 75.7982177734375 424.5322265625 78.42684936523438 C 420.48651123046875 81.05548095703125 417.3446044921875 84.93057250976562 415.1361083984375 89.21963500976562 L 415.5560302734375 88.19966125488281" stroke-width="0.6000000238418579" fill="rgb(143, 165, 67)" opacity="1.0"/>
    <path d="M 428.64263916015625 123.87643432617188 C 426.308837890625 136.10360717773438 441.41748046875 147.3632354736328 452.78521728515625 142.49111938476562 C 464.1529541015625 137.6189727783203 466.77667236328125 119.88955688476562 457.863525390625 111.19471740722656 C 448.9503173828125 102.49986267089844 432.3177490234375 104.72296142578125 425.228271484375 114.97337341308594 L 428.64263916015625 123.87643432617188" stroke-width="0.6000000238418579" fill="rgb(233, 92, 21)" opacity="1.0"/>
    <path d="M 450.1163330078125 92.72518920898438 C 449.3675537109375 98.64276123046875 449.08685302734375 105.78912353515625 453.9427490234375 109.28791809082031 C 455.92938232421875 110.6051025390625 458.2757568359375 111.27336120605469 460.6583251953125 111.20046997070312 C 466.55810546875 111.17874145507812 472.08135986328125 108.29876708984375 475.47662353515625 103.47383117675781 C 478.3463134765625 99.37356567382812 479.3004150390625 94.31681823730469 480.1090087890625 89.40890502929688 C 480.558837890625 86.65121459960938 480.9488525390625 83.70693969726562 479.8060302734375 81.17401123046875 C 478.2550048828125 77.81031799316406 474.43408203125 76.1688232421875 470.8505859375 75.23594665527344 C 465.60784912109375 73.8641357421875 460.17767333984375 73.34994506835938 454.7706298828125 73.71333312988281 C 452.90264892578125 73.84248352050781 450.9564208984375 74.10287475585938 449.409423828125 75.15660095214844 C 448.0211181640625 76.20994567871094 446.9693603515625 77.64448547363281 446.3822021484375 79.28529357910156 C 444.40777587890625 84.19320678710938 444.6856689453125 89.72021484375 447.142578125 94.40530395507812 L 450.1163330078125 92.72518920898438" stroke-width="0.6000000238418579" fill="rgb(70, 150, 179)" opacity="1.0"/>
    <path d="M 312.3551025390625 369.0472106933594 C 306.9756164550781 366.8841247558594 300.9220275878906 364.7123718261719 295.5531005859375 366.8917236328125 C 289.7870788574219 369.2362976074219 286.92218017578125 376.01446533203125 287.01654052734375 382.2381286621094 C 287.0519104003906 384.6376953125 287.4741516113281 387.1233215332031 288.85626220703125 389.0849304199219 C 289.9917907714844 390.6979064941406 291.67724609375 391.8274230957031 293.3782958984375 392.8253173828125 C 298.7387390136719 395.9786682128906 305.1282043457031 398.2607727050781 311.1329040527344 396.646728515625 C 317.18359375 395.0157775878906 321.8668518066406 389.1851806640625 322.1182861328125 382.9180603027344 C 322.36968994140625 376.65093994140625 318.2328796386719 370.43194580078125 312.33404541015625 368.2881164550781 L 312.3551025390625 369.0472106933594" stroke-width="0.6000000238418579" fill="rgb(140, 28, 33)" opacity="1.0"/>
    <path d="M 297.7422790527344 391.44818115234375 C 291.6982421875 388.7828674316406 285.37969970703125 386.07611083984375 278.7701721191406 386.1838073730469 C 272.1607666015625 386.29156494140625 265.1054992675781 390.08197021484375 263.38250732421875 396.4626159667969 C 261.2732238769531 404.3435974121094 268.6116943359375 412.4503173828125 276.71539306640625 413.5137939453125 C 284.819091796875 414.57720947265625 292.77105712890625 410.3953552246094 298.8999938964844 405.003662109375 C 300.9644775390625 403.5246887207031 302.39947509765625 401.3256530761719 302.9218444824219 398.8404541015625 C 303.1739807128906 396.3547668457031 300.85028076171875 393.555908203125 298.4562683105469 394.3127746582031 L 297.7422790527344 391.44818115234375" stroke-width="0.6000000238418579" fill="rgb(159, 159, 159)" opacity="1.0"/>
    <path d="M 322.94305419921875 412.231201171875 C 317.26922607421875 416.23779296875 312.8445739746094 422.27557373046875 311.7007751464844 429.1229248046875 C 310.5570068359375 435.9703369140625 313.0582275390625 443.5408935546875 318.6728515625 447.67352294921875 C 322.6461486816406 450.59033203125 327.81939697265625 451.5966796875 332.7260437011719 451.0845947265625 C 337.6326904296875 450.57257080078125 342.30218505859375 448.651611328125 346.5740966796875 446.18255615234375 C 348.4324951171875 445.10693359375 350.3039855957031 443.84417724609375 351.29522705078125 441.9456787109375 C 352.4326477050781 439.7696533203125 352.20684814453125 437.16180419921875 351.835693359375 434.72705078125 C 350.7877502441406 427.853271484375 348.6464538574219 420.8782958984375 343.9432373046875 415.7559814453125 C 339.239990234375 410.6335754394531 331.48876953125 407.853759765625 325.078369140625 410.5044860839844 L 322.94305419921875 412.231201171875" stroke-width="0.6000000238418579" fill="rgb(159, 159, 159)" opacity="1.0"/>
    <path d="M 255.52615356445312 417.8604736328125 C 249.01885986328125 416.7818603515625 241.73895263671875 415.8648681640625 236.34744262695312 419.642333984375 C 231.0989990234375 423.3087158203125 229.37420654296875 430.1785888671875 228.149169921875 436.4654541015625 C 227.6552734375 439.0201416015625 227.1793212890625 441.7005615234375 227.95208740234375 444.18359375 C 229.25665283203125 448.38397216796875 233.66983032226562 450.7613525390625 237.8731689453125 452.0343017578125 C 241.77410888671875 453.2174072265625 245.82470703125 453.834228515625 249.9010009765625 453.8658447265625 C 256.5197448730469 453.919677734375 263.94049072265625 451.8280029296875 267.015380859375 445.96923828125 C 268.6800231933594 442.80877685546875 268.7816467285156 438.9921875 267.99456787109375 435.5023193359375 C 267.20745849609375 432.012451171875 265.5862121582031 428.7718505859375 263.9400939941406 425.59552001953125 C 262.2939758300781 422.419189453125 260.60845947265625 419.3333740234375 257.8702697753906 417.165771484375 L 255.52615356445312 417.8604736328125" stroke-width="0.6000000238418579" fill="rgb(218, 166, 20)" opacity="1.0"/>
    <path d="M 220.58087158203125 412.069091796875 C 211.30032348632812 404.9165344238281 197.97866821289062 406.6416015625 190.82611083984375 415.922119140625 C 190.213623046875 416.716796875 189.6583251953125 417.553955078125 189.164306640625 418.42724609375 C 187.28781127929688 421.74591064453125 186.32992553710938 425.75830078125 187.38040161132812 429.42120361328125 C 188.267822265625 432.5167236328125 190.4677734375 435.054443359375 192.8262939453125 437.2437744140625 C 199.14761352539062 443.095458984375 206.92044067382812 447.14788818359375 215.33737182617188 448.98004150390625 C 217.56301879882812 449.4605712890625 219.89459228515625 449.77996826171875 222.10748291015625 449.2235107421875 C 225.8231201171875 448.29144287109375 228.56451416015625 445.005859375 229.98651123046875 441.4459228515625 C 232.10125732421875 436.162109375 231.7978515625 430.07861328125 229.72750854492188 424.77587890625 C 227.65716552734375 419.47314453125 223.93060302734375 414.9168701171875 219.50271606445312 411.34014892578125 L 220.58087158203125 412.069091796875" stroke-width="0.6000000238418579" fill="rgb(143, 165, 67)" opacity="1.0"/>
    <path d="M 273.057373046875 360.0960998535156 C 278.6929931640625 372.3927917480469 299.16363525390625 372.8454284667969 306.16015625 361.3706970214844 C 313.15667724609375 349.8959655761719 304.31182861328125 332.544677734375 290.942626953125 330.4603576660156 C 277.57342529296875 328.37603759765625 264.2464294433594 340.8216247558594 264.4259033203125 354.3636779785156 L 273.057373046875 360.0960998535156" stroke-width="0.6000000238418579" fill="rgb(233, 92, 21)" opacity="1.0"/>
    <path d="M 330.3644714355469 356.2613525390625 C 327.3199768066406 362.0910339355469 324.2878723144531 369.3704833984375 327.9649658203125 374.8503112792969 C 329.5131530761719 376.9740905761719 331.6822509765625 378.5651550292969 334.1730041503906 379.4039306640625 C 340.2799072265625 381.6451110839844 347.09429931640625 380.7872619628906 352.4552307128906 377.1024475097656 C 356.9947509765625 373.9650573730469 359.9212341308594 369.10400390625 362.64019775390625 364.3409729003906 C 364.1632080078125 361.6629333496094 365.6960144042969 358.76910400390625 365.48651123046875 355.7123107910156 C 365.1738586425781 351.64019775390625 361.85394287109375 348.47735595703125 358.5076599121094 346.13812255859375 C 353.6145935058594 342.70855712890625 348.19873046875 340.0935974121094 342.4700622558594 338.3946228027344 C 340.4895935058594 337.8114013671875 338.37786865234375 337.3338623046875 336.37445068359375 337.82952880859375 C 334.5352478027344 338.3857116699219 332.8975830078125 339.46502685546875 331.6611633300781 340.9358825683594 C 327.73712158203125 345.2515869140625 325.9037780761719 351.07147216796875 326.6458435058594 356.8570861816406 L 330.3644714355469 356.2613525390625" stroke-width="0.6000000238418579" fill="rgb(70, 150, 179)" opacity="1.0"/>
    <path d="M 297.73248291015625 413.891357421875 C 290.5630187988281 412.428955078125 282.5548400878906 411.1089172363281 276.3854675292969 415.0345458984375 C 269.7607421875 419.2554931640625 267.7449645996094 428.3206787109375 269.2766418457031 436.02496337890625 C 269.8659362792969 438.99560546875 270.9550476074219 441.98516845703125 273.1165466308594 444.1060791015625 C 274.89276123046875 445.8502197265625 277.24169921875 446.8692626953125 279.580078125 447.721435546875 C 286.9509582519531 450.41748046875 295.40118408203125 451.798095703125 302.4882507324219 448.4296875 C 309.6285705566406 445.0299072265625 314.1169128417969 436.7276611328125 313.0046081542969 428.890869140625 C 311.89227294921875 421.0540771484375 305.34356689453125 414.2744140625 297.5338134765625 412.953857421875 L 297.73248291015625 413.891357421875" stroke-width="0.6000000238418579" fill="rgb(140, 28, 33)" opacity="1.0"/>
    <path d="M 326.6798095703125 391.4201354980469 C 320.09442138671875 391.1384582519531 313.23883056640625 390.91796875 307.1351318359375 393.4189147949219 C 301.03155517578125 395.91986083984375 295.851318359375 402.00537109375 296.56768798828125 408.5613098144531 C 297.47003173828125 416.6519775390625 307.2350158691406 421.52069091796875 315.15277099609375 419.5654296875 C 323.0705261230469 417.6102294921875 328.94195556640625 410.83514404296875 332.6796569824219 403.597900390625 C 334.0611572265625 401.4734802246094 334.5960693359375 398.9084777832031 334.1788024902344 396.40899658203125 C 333.5102233886719 394.00726318359375 330.3339538574219 392.25006103515625 328.3839416503906 393.8230895996094 L 326.6798095703125 391.4201354980469" stroke-width="0.6000000238418579" fill="rgb(159, 159, 159)" opacity="1.0"/>
    <path d="M 359.45709228515625 410.3818359375 C 354.4410400390625 415.134765625 350.9441833496094 421.70977783203125 350.79302978515625 428.61474609375 C 350.6418762207031 435.5196533203125 354.1826477050781 442.61767578125 360.2994079589844 445.88720703125 C 364.626953125 448.193359375 369.86395263671875 448.44757080078125 374.6221923828125 447.2447509765625 C 379.3804931640625 446.0418701171875 383.70465087890625 443.485595703125 387.55926513671875 440.4461669921875 C 389.2359313964844 439.1224365234375 390.8988342285156 437.61260986328125 391.6044921875 435.6021728515625 C 392.41455078125 433.297607421875 391.8208923339844 430.76202392578125 391.1087341308594 428.4176025390625 C 389.0981140136719 421.79876708984375 385.9965515136719 415.2359619140625 380.6362609863281 410.8620910644531 C 375.27593994140625 406.4881896972656 367.2480773925781 404.8548889160156 361.3136901855469 408.37762451171875 L 359.45709228515625 410.3818359375" stroke-width="0.6000000238418579" fill="rgb(159, 159, 159)" opacity="1.0"/>
    <path d="M 251.6763916015625 366.64617919921875 C 252.56985473632812 359.689697265625 253.26162719726562 351.9185485839844 249.03829956054688 346.33624267578125 C 244.93875122070312 340.9016418457031 237.57183837890625 339.3356018066406 230.84393310546875 338.2779846191406 C 228.11019897460938 337.85235595703125 225.2435302734375 337.45068359375 222.63507080078125 338.3682556152344 C 218.222412109375 339.91754150390625 215.86761474609375 344.6992492675781 214.67813110351562 349.215087890625 C 213.57244873046875 353.4061279296875 213.0743408203125 357.7342224121094 213.198974609375 362.06689453125 C 213.39874267578125 369.10198974609375 215.90951538085938 376.906005859375 222.25430297851562 379.94586181640625 C 225.67724609375 381.5920104980469 229.73663330078125 381.55181884765625 233.4144287109375 380.5799560546875 C 237.09219360351562 379.60809326171875 240.47265625 377.7595520019531 243.78387451171875 375.8870849609375 C 247.0950927734375 374.0146179199219 250.30859375 372.103759765625 252.505615234375 369.11004638671875 L 251.6763916015625 366.64617919921875" stroke-width="0.6000000238418579" fill="rgb(218, 166, 20)" opacity="1.0"/>
    <path d="M 264.1766662597656 385.6998596191406 C 254.32064819335938 379.03497314453125 240.92779541015625 381.6218566894531 234.26287841796875 391.4778747558594 C 233.69216918945312 392.3218688964844 233.18206787109375 393.20526123046875 232.736328125 394.1214294433594 C 231.04339599609375 397.60296630859375 230.32513427734375 401.72979736328125 231.620361328125 405.37603759765625 C 232.71463012695312 408.4574890136719 235.10400390625 410.89093017578125 237.6322021484375 412.96142578125 C 244.40713500976562 418.494140625 252.53994750976562 422.11199951171875 261.1858215332031 423.4390869140625 C 263.47174072265625 423.7860107421875 265.8548889160156 423.962890625 268.0626525878906 423.2596435546875 C 271.76971435546875 422.0811767578125 274.3413391113281 418.57861328125 275.55841064453125 414.881103515625 C 277.369140625 409.3929138183594 276.6787109375 403.24639892578125 274.2466125488281 398.00244140625 C 271.8145446777344 392.75848388671875 267.75091552734375 388.375244140625 263.0380859375 385.0289611816406 L 264.1766662597656 385.6998596191406" stroke-width="0.6000000238418579" fill="rgb(143, 165, 67)" opacity="1.0"/>
    <path d="M 200.630859375 379.0575256347656 C 186.59561157226562 382.36279296875 181.82040405273438 403.6607971191406 192.34182739257812 413.38421630859375 C 202.86328125 423.1075439453125 222.8553466796875 417.5107421875 227.84332275390625 403.97711181640625 C 232.831298828125 390.4435119628906 222.62567138671875 373.9002990722656 208.43563842773438 371.2418212890625 L 200.630859375 379.0575256347656" stroke-width="0.6000000238418579" fill="rgb(233, 92, 21)" opacity="1.0"/>
    <path d="M 252.55999755859375 374.1988830566406 C 250.39013671875 380.5024108886719 248.45193481445312 388.25714111328125 252.9661865234375 393.1934814453125 C 254.83914184570312 395.0880126953125 257.25384521484375 396.3547058105469 259.8771667480469 396.8187255859375 C 266.3370666503906 398.1415100097656 273.03741455078125 396.25115966796875 277.8533935546875 391.7471008300781 C 281.92889404296875 387.9159851074219 284.1269836425781 382.6011657714844 286.1318664550781 377.4159851074219 C 287.25335693359375 374.5014343261719 288.35205078125 371.3691101074219 287.6798095703125 368.3370056152344 C 286.7505798339844 364.30279541015625 282.9447021484375 361.634765625 279.2369384765625 359.7962341308594 C 273.8139953613281 357.0987548828125 267.99017333984375 355.29681396484375 261.99139404296875 354.4602966308594 C 259.91815185546875 354.1752624511719 257.7293701171875 354.0159606933594 255.79632568359375 354.8157653808594 C 254.0369873046875 355.6513671875 252.55877685546875 356.9808349609375 251.54196166992188 358.64202880859375 C 248.26153564453125 363.5611572265625 247.30413818359375 369.6716613769531 248.92288208007812 375.3583679199219 L 252.55999755859375 374.1988830566406" stroke-width="0.6000000238418579" fill="rgb(70, 150, 179)" opacity="1.0"/>
    <path d="M 338.804443359375 361.237060546875 C 340.59539794921875 354.472412109375 342.2964782714844 346.89910888671875 338.8880310058594 340.792724609375 C 335.2226867675781 334.2353210449219 326.678466796875 331.8117370605469 319.2384033203125 332.8500671386719 C 316.36962890625 333.2491760253906 313.45538330078125 334.12445068359375 311.3114318847656 336.0714416503906 C 309.54840087890625 337.6712951660156 308.4461669921875 339.85791015625 307.50384521484375 342.0436096191406 C 304.5240478515625 348.93267822265625 302.7406921386719 356.9246826171875 305.5666198730469 363.8765869140625 C 308.4195861816406 370.88104248046875 316.0992431640625 375.62335205078125 323.6427917480469 374.99273681640625 C 331.18634033203125 374.3620910644531 338.0198059082031 368.4827880859375 339.7104797363281 361.0989990234375 L 338.804443359375 361.237060546875" stroke-width="0.6000000238418579" fill="rgb(140, 28, 33)" opacity="1.0"/>
    <path d="M 356.74102783203125 399.40142822265625 C 350.20428466796875 398.8658752441406 343.3965148925781 398.38067626953125 337.23077392578125 400.6304626464844 C 331.06512451171875 402.8802795410156 325.678466796875 408.7299499511719 326.1363525390625 415.276123046875 C 326.7196044921875 423.35546875 336.23980712890625 428.57513427734375 344.18804931640625 426.93829345703125 C 352.1363220214844 425.30145263671875 358.2369689941406 418.79296875 362.2340393066406 411.7422180175781 C 363.6900329589844 409.6835632324219 364.3214111328125 407.15399169921875 364.0035095214844 404.65264892578125 C 363.43194580078125 402.2387390136719 360.342041015625 400.3683776855469 358.3421630859375 401.85675048828125 L 356.74102783203125 399.40142822265625" stroke-width="0.6000000238418579" fill="rgb(159, 159, 159)" opacity="1.0"/>
    <path d="M 179.02853393554688 411.4222412109375 C 171.96441650390625 410.6088562011719 164.46774291992188 412.1981201171875 158.92276000976562 416.64373779296875 C 153.37779235839844 421.08935546875 150.12130737304688 428.57403564453125 151.5867919921875 435.55908203125 C 152.629150390625 440.4962158203125 155.89088439941406 444.7940673828125 159.985107421875 447.7510986328125 C 164.079345703125 450.7081298828125 168.953857421875 452.4281005859375 173.89898681640625 453.4583740234375 C 176.05123901367188 453.90545654296875 178.3411865234375 454.2186279296875 180.39306640625 453.44598388671875 C 182.74594116210938 452.561279296875 184.35293579101562 450.41680908203125 185.73089599609375 448.3052978515625 C 189.62112426757812 442.3441162109375 192.74591064453125 435.5595703125 192.6513671875 428.4410400390625 C 192.5567626953125 421.322509765625 188.53756713867188 413.912109375 181.83639526367188 411.56134033203125 L 179.02853393554688 411.4222412109375" stroke-width="0.6000000238418579" fill="rgb(159, 159, 159)" opacity="1.0"/>
    <path d="M 360.48028564453125 370.64801025390625 C 353.5284423828125 370.3712463378906 345.7891540527344 370.36474609375 340.6409912109375 375.02435302734375 C 335.6280212402344 379.548828125 334.7224426269531 386.96484375 334.2635498046875 393.7051086425781 C 334.0811462402344 396.4435119628906 333.9339904785156 399.31121826171875 335.0679626464844 401.8088073730469 C 336.98333740234375 406.03411865234375 341.91351318359375 407.94439697265625 346.4794616699219 408.726318359375 C 350.7171630859375 409.4537353515625 355.0373229980469 409.56884765625 359.3077392578125 409.0682067871094 C 366.2420349121094 408.2578125 373.7347717285156 405.0968933105469 376.185791015625 398.5624694824219 C 377.51416015625 395.03668212890625 377.1207580566406 391.0289306640625 375.8399963378906 387.47943115234375 C 374.5592041015625 383.929931640625 372.43804931640625 380.7506103515625 370.2992858886719 377.64178466796875 C 368.1604919433594 374.532958984375 365.9923400878906 371.5240478515625 362.84271240234375 369.61395263671875 L 360.48028564453125 370.64801025390625" stroke-width="0.6000000238418579" fill="rgb(218, 166, 20)" opacity="1.0"/>
    <path d="M 376.8393249511719 379.54998779296875 C 370.5751953125 389.0589599609375 373.2056579589844 401.8455810546875 382.7146301269531 408.1097106933594 C 383.52886962890625 408.6461181640625 384.3801574707031 409.1240539550781 385.2620544433594 409.5400085449219 C 388.6133728027344 411.11981201171875 392.5708923339844 411.75946044921875 396.0452575683594 410.4778137207031 C 398.9814453125 409.3949890136719 401.2825622558594 407.080322265625 403.23468017578125 404.636962890625 C 408.4510498046875 398.089599609375 411.8191223144531 390.264892578125 412.9891357421875 381.97576904296875 C 413.294677734375 379.7841796875 413.4364013671875 377.50152587890625 412.7379150390625 375.39691162109375 C 411.5672607421875 371.86297607421875 408.18572998046875 369.4425354003906 404.6332702636719 368.3205871582031 C 399.36029052734375 366.6512451171875 393.4862365722656 367.383056640625 388.4960632324219 369.7711181640625 C 383.505859375 372.1591491699219 379.3582458496094 376.0986328125 376.21044921875 380.6473388671875 L 376.8393249511719 379.54998779296875" stroke-width="0.6000000238418579" fill="rgb(143, 165, 67)" opacity="1.0"/>
    <path d="M 365.1902770996094 363.3351745605469 C 371.12213134765625 375.9183349609375 392.1786804199219 376.1568908691406 399.2465515136719 364.27899169921875 C 406.31439208984375 352.4010314941406 397.0262145996094 334.65545654296875 383.2545166015625 332.6601867675781 C 369.48284912109375 330.6649169921875 355.9156188964844 343.6114196777344 356.25030517578125 357.5357666015625 L 365.1902770996094 363.3351745605469" stroke-width="0.6000000238418579" fill="rgb(233, 92, 21)" opacity="1.0"/>
    <path d="M 403.5218811035156 353.8888244628906 C 403.63726806640625 360.5090637207031 404.46173095703125 368.4051208496094 410.3514404296875 371.4794006347656 C 412.742919921875 372.6116027832031 415.42681884765625 372.973876953125 418.0328369140625 372.5160827636719 C 424.51141357421875 371.55694580078125 430.1231689453125 367.5172119140625 433.088623046875 361.67791748046875 C 435.5914306640625 356.7181396484375 435.838134765625 351.0111389160156 435.94854736328125 345.49072265625 C 436.0054931640625 342.38958740234375 435.96728515625 339.09295654296875 434.3101806640625 336.4912414550781 C 432.0728759765625 333.0414733886719 427.6146240234375 331.8437194824219 423.5296630859375 331.3868713378906 C 417.5521240234375 330.7107849121094 411.50457763671875 331.0066833496094 405.62158203125 332.2630615234375 C 403.5897216796875 332.7010803222656 401.49273681640625 333.29571533203125 399.96014404296875 334.6986389160156 C 398.6018371582031 336.07598876953125 397.6736145019531 337.81884765625 397.2887268066406 339.7146301269531 C 395.8974609375 345.41986083984375 397.0789794921875 351.4482116699219 400.5209655761719 356.2061462402344 L 403.5218811035156 353.8888244628906" stroke-width="0.6000000238418579" fill="rgb(70, 150, 179)" opacity="1.0"/>
    <path d="M 385.7496643066406 419.3094482421875 C 383.1319885253906 425.763671875 380.50146484375 433.0274658203125 383.10003662109375 439.484619140625 C 385.8956298828125 446.4193115234375 394.0274353027344 449.88507080078125 401.50372314453125 449.7940673828125 C 404.38629150390625 449.76025390625 407.37359619140625 449.261962890625 409.7348937988281 447.6087646484375 C 411.676513671875 446.25054931640625 413.03936767578125 444.23004150390625 414.244140625 442.1903076171875 C 418.05133056640625 435.7625732421875 420.81561279296875 428.0955810546875 418.89837646484375 420.8768310546875 C 416.9610595703125 413.602783203125 409.9739990234375 407.9561462402344 402.44671630859375 407.631591796875 C 394.9194030761719 407.3070373535156 387.4341735839844 412.25390625 384.8377380371094 419.33203125 L 385.7496643066406 419.3094482421875" stroke-width="0.6000000238418579" fill="rgb(140, 28, 33)" opacity="1.0"/>
    <path d="M 409.8122863769531 382.13348388671875 C 408.11590576171875 388.4852600097656 406.4207763671875 395.11334228515625 407.53802490234375 401.5969543457031 C 408.6553039550781 408.0804443359375 413.4625244140625 414.43890380859375 420.0010986328125 415.15704345703125 C 428.0743408203125 416.0255126953125 434.92401123046875 407.5681457519531 434.7298583984375 399.4359130859375 C 434.5357666015625 391.3036804199219 429.20635986328125 384.123291015625 422.9661865234375 378.9208068847656 C 421.19580078125 377.1167907714844 418.8135986328125 376.0420227050781 416.28961181640625 375.9085998535156 C 413.8065185546875 376.0409851074219 411.4095458984375 378.7544250488281 412.52020263671875 380.99298095703125 L 409.8122863769531 382.13348388671875" stroke-width="0.6000000238418579" fill="rgb(159, 159, 159)" opacity="1.0"/>
    <path d="M 436.11480712890625 370.1861572265625 C 437.6680908203125 377.3066711425781 441.69482421875 384.05010986328125 447.8447265625 387.9537048339844 C 453.99462890625 391.8572998046875 462.33294677734375 392.533935546875 468.6212158203125 388.79681396484375 C 473.063720703125 386.14898681640625 476.15032958984375 381.560791015625 477.66064453125 376.60980224609375 C 479.1710205078125 371.65875244140625 479.22283935546875 366.3611755371094 478.58245849609375 361.2237548828125 C 478.302490234375 358.9882507324219 477.846923828125 356.6636047363281 476.4173583984375 354.9298400878906 C 474.7791748046875 352.94134521484375 472.166748046875 352.0938415527344 469.662109375 351.4575500488281 C 462.591064453125 349.6612548828125 454.97540283203125 348.88018798828125 448.1031494140625 351.3320617675781 C 441.2308349609375 353.783935546875 435.3768310546875 360.1387023925781 435.3187255859375 367.4169616699219 L 436.11480712890625 370.1861572265625" stroke-width="0.6000000238418579" fill="rgb(159, 159, 159)" opacity="1.0"/>
    <path d="M 427.95166015625 409.0023193359375 C 422.86151123046875 413.77978515625 417.41058349609375 419.31072998046875 417.1204833984375 426.27203369140625 C 416.828857421875 433.04150390625 421.495849609375 438.90802001953125 425.993896484375 443.9794921875 C 427.82415771484375 446.0369873046875 429.771728515625 448.16033935546875 432.3560791015625 449.10687255859375 C 436.72613525390625 450.7103271484375 441.5618896484375 448.5283203125 445.3343505859375 445.8128662109375 C 448.83673095703125 443.293701171875 451.95928955078125 440.2847900390625 454.60638427734375 436.8780517578125 C 458.90655517578125 431.3480224609375 461.91851806640625 423.76446533203125 458.9696044921875 417.4129638671875 C 457.38262939453125 413.981689453125 454.2392578125 411.4427490234375 450.7991943359375 409.8609619140625 C 447.359130859375 408.2792053222656 443.5924072265625 407.5589904785156 439.86376953125 406.9010009765625 C 436.135009765625 406.24298095703125 432.4571533203125 405.67633056640625 428.87451171875 406.5849304199219 L 427.95166015625 409.0023193359375" stroke-width="0.6000000238418579" fill="rgb(218, 166, 20)" opacity="1.0"/>
    <path d="M 136.34080505371094 217.45089721679688 C 133.10943603515625 229.28912353515625 140.08665466308594 241.50543212890625 151.92486572265625 244.73678588867188 C 152.93856811523438 245.01348876953125 153.9706268310547 245.21792602539062 155.01327514648438 245.34857177734375 C 158.97518920898438 245.84429931640625 163.2431640625 245.17388916015625 166.3726806640625 242.6973876953125 C 169.01754760742188 240.60479736328125 170.59927368164062 237.46310424804688 171.78045654296875 234.3065185546875 C 174.9305419921875 225.85284423828125 175.7596435546875 216.7098388671875 174.181640625 207.82736206054688 C 173.76055908203125 205.48016357421875 173.14120483398438 203.0946044921875 171.72076416015625 201.17279052734375 C 169.33798217773438 197.945068359375 165.06356811523438 196.59844970703125 161.0489501953125 196.63909912109375 C 155.08868408203125 196.69537353515625 149.3170166015625 199.41241455078125 145.0054168701172 203.52996826171875 C 140.69383239746094 207.64752197265625 137.7649383544922 213.07196044921875 136.064208984375 218.7855224609375 L 136.34080505371094 217.45089721679688" stroke-width="0.6000000238418579" fill="rgb(143, 165, 67)" opacity="1.0"/>
    <path d="M 171.88003540039062 262.9626159667969 C 179.68502807617188 274.75714111328125 200.9056396484375 271.9235534667969 206.2830810546875 258.9410705566406 C 211.66046142578125 245.95855712890625 199.7249755859375 229.4598388671875 185.57757568359375 229.46258544921875 C 171.43011474609375 229.46530151367188 159.66943359375 244.47161865234375 162.0386962890625 258.4325866699219 L 171.88003540039062 262.9626159667969" stroke-width="0.6000000238418579" fill="rgb(233, 92, 21)" opacity="1.0"/>
    <path d="M 145.07171630859375 314.5221862792969 C 139.6359405517578 319.2220458984375 133.63021850585938 325.39990234375 135.16441345214844 332.44512939453125 C 135.8840789794922 335.2250671386719 137.44862365722656 337.71319580078125 139.64230346679688 339.5662536621094 C 144.94662475585938 344.2972412109375 152.21499633789062 346.16375732421875 159.14251708984375 344.5739440917969 C 165.0155029296875 343.2102966308594 169.94216918945312 339.4471740722656 174.61859130859375 335.70025634765625 C 177.24209594726562 333.5912170410156 179.9622802734375 331.2668762207031 180.97769165039062 328.076904296875 C 182.29623413085938 323.8138427734375 180.1939697265625 319.2662658691406 177.73394775390625 315.5449523925781 C 174.14044189453125 310.0942687988281 169.68844604492188 305.26116943359375 164.55059814453125 301.23309326171875 C 162.77267456054688 299.8447570800781 160.81900024414062 298.51104736328125 158.58428955078125 298.20965576171875 C 156.4920654296875 298.03570556640625 154.3944549560547 298.47430419921875 152.54721069335938 299.4719543457031 C 146.8260955810547 302.2801513671875 142.62484741210938 307.4566955566406 141.05406188964844 313.6332702636719 L 145.07171630859375 314.5221862792969" stroke-width="0.6000000238418579" fill="rgb(70, 150, 179)" opacity="1.0"/>
    <path d="M 124.63943481445312 303.13116455078125 C 124.59278869628906 295.04632568359375 124.20162963867188 286.0868835449219 118.5556640625 280.30706787109375 C 112.4869384765625 274.10186767578125 102.2264404296875 273.980712890625 94.24324035644531 277.38653564453125 C 91.16470336914062 278.6983642578125 88.17926025390625 280.5549621582031 86.37666320800781 283.3739318847656 C 84.89395141601562 285.69073486328125 84.32542419433594 288.4621887207031 83.93499755859375 291.184326171875 C 82.69342041015625 299.76708984375 83.119384765625 309.21832275390625 88.37118530273438 316.1170349121094 C 93.66903686523438 323.06622314453125 103.66595458984375 326.0343933105469 111.88775634765625 323.05194091796875 C 120.10954284667969 320.0694885253906 125.95364379882812 311.44842529296875 125.60809326171875 302.70343017578125 L 124.63943481445312 303.13116455078125" stroke-width="0.6000000238418579" fill="rgb(140, 28, 33)" opacity="1.0"/>
    <path d="M 142.34681701660156 273.9716796875 C 136.5970916748047 277.1863098144531 130.6496124267578 280.5947265625 126.76924133300781 285.92376708984375 C 122.88894653320312 291.25274658203125 121.67431640625 299.14666748046875 125.72250366210938 304.3478698730469 C 130.73390197753906 310.75701904296875 141.59445190429688 309.776611328125 147.3042449951172 303.9602355957031 C 153.01402282714844 298.14385986328125 154.45492553710938 289.3008117675781 153.8383026123047 281.1838073730469 C 153.899169921875 278.6519775390625 153.00877380371094 276.189453125 151.34275817871094 274.2820739746094 C 149.51425170898438 272.5896911621094 145.89060974121094 272.7609558105469 145.056884765625 275.1219482421875 L 142.34681701660156 273.9716796875" stroke-width="0.6000000238418579" fill="rgb(159, 159, 159)" opacity="1.0"/>
    <path d="M 162.05551147460938 283.83026123046875 C 161.35147094726562 291.1347351074219 163.13470458984375 298.8395080566406 167.82797241210938 304.475830078125 C 172.52120971679688 310.1121520996094 180.30633544921875 313.3290100097656 187.485595703125 311.6831970214844 C 192.55990600585938 310.51318359375 196.93203735351562 307.0653991699219 199.90478515625 302.7843322753906 C 202.87759399414062 298.5032043457031 204.5589599609375 293.440673828125 205.52737426757812 288.3184814453125 C 205.94747924804688 286.08917236328125 206.226806640625 283.7203674316406 205.39028930664062 281.61798095703125 C 204.432373046875 279.2071838378906 202.18896484375 277.590087890625 199.98388671875 276.20867919921875 C 193.758544921875 272.3088073730469 186.6983642578125 269.21441650390625 179.3551025390625 269.4482421875 C 172.0118408203125 269.68206787109375 164.442626953125 273.97100830078125 162.14529418945312 280.9303894042969 L 162.05551147460938 283.83026123046875" stroke-width="0.6000000238418579" fill="rgb(159, 159, 159)" opacity="1.0"/>
    <path d="M 124.7052001953125 347.87060546875 C 123.98030090332031 340.6851806640625 122.86325073242188 332.72967529296875 117.32650756835938 328.1148681640625 C 111.94833374023438 323.6193542480469 104.19453430175781 323.765380859375 97.20013427734375 324.2723693847656 C 94.35906982421875 324.4825134277344 91.39022827148438 324.7476501464844 88.98780822753906 326.2757873535156 C 84.92303466796875 328.85797119140625 83.67550659179688 334.2026672363281 83.53477478027344 339.0091552734375 C 83.40243530273438 343.4703369140625 83.911376953125 347.9273986816406 85.04598999023438 352.2439270019531 C 86.88577270507812 359.2534484863281 91.22254943847656 366.49566650390625 98.29461669921875 368.0660705566406 C 102.111328125 368.9194641113281 106.17349243164062 367.9332275390625 109.6357421875 366.1014404296875 C 113.0980224609375 364.2696533203125 116.05780029296875 361.62786865234375 118.94256591796875 358.97821044921875 C 121.82733154296875 356.32855224609375 124.60513305664062 353.6631774902344 126.11105346679688 350.1485900878906 L 124.7052001953125 347.87060546875" stroke-width="0.6000000238418579" fill="rgb(218, 166, 20)" opacity="1.0"/>
    <path d="M 150.56448364257812 342.27423095703125 C 138.38966369628906 343.9436340332031 129.87332153320312 355.1665954589844 131.542724609375 367.3414306640625 C 131.6856689453125 368.38397216796875 131.90240478515625 369.4150390625 132.1912841796875 370.4269104003906 C 133.28961181640625 374.2715759277344 135.58241271972656 377.9405212402344 139.09234619140625 379.8517150878906 C 142.058349609375 381.46710205078125 145.57362365722656 381.69122314453125 148.94537353515625 381.54052734375 C 157.97015380859375 381.1246337890625 166.718994140625 378.2998962402344 174.28305053710938 373.3597412109375 C 176.28024291992188 372.050537109375 178.2349853515625 370.5435791015625 179.447998046875 368.4806213378906 C 181.4864501953125 365.01849365234375 181.0494384765625 360.55194091796875 179.43621826171875 356.8692626953125 C 177.04501342773438 351.400146484375 172.27642822265625 347.1491394042969 166.7906494140625 344.7929992675781 C 161.30487060546875 342.4368591308594 155.15777587890625 341.8675537109375 149.226318359375 342.5432434082031 L 150.56448364257812 342.27423095703125" stroke-width="0.6000000238418579" fill="rgb(143, 165, 67)" opacity="1.0"/>
    <path d="M 138.2764129638672 377.0028991699219 C 133.6437225341797 362.9848327636719 111.49176025390625 360.0287170410156 102.5201416015625 371.6339111328125 C 93.54856872558594 383.2391662597656 101.05392456054688 403.1268615722656 115.3057861328125 406.99786376953125 C 129.55763244628906 410.8688659667969 145.513427734375 398.9728088378906 146.94949340820312 384.2608337402344 L 138.2764129638672 377.0028991699219" stroke-width="0.6000000238418579" fill="rgb(233, 92, 21)" opacity="1.0"/>
    <path d="M 182.94900512695312 353.068359375 C 182.0701904296875 359.834228515625 181.72213745117188 368.0073547363281 187.26324462890625 372.0276794433594 C 189.5306396484375 373.54180908203125 192.21197509765625 374.3150329589844 194.93743896484375 374.2406311035156 C 201.68585205078125 374.238037109375 208.01437377929688 370.9646911621094 211.91619873046875 365.4586181640625 C 215.21401977539062 360.77947998046875 216.32449340820312 354.9990234375 217.2679443359375 349.3882751464844 C 217.79278564453125 346.23565673828125 218.25003051757812 342.869384765625 216.952392578125 339.96783447265625 C 215.19100952148438 336.114501953125 210.82666015625 334.2225036621094 206.7313232421875 333.1419372558594 C 200.73974609375 331.55303955078125 194.53048706054688 330.9444274902344 188.34439086914062 331.33966064453125 C 186.207275390625 331.4803466796875 183.98016357421875 331.7708435058594 182.2066650390625 332.97027587890625 C 180.61474609375 334.1698913574219 179.40625 335.8067932128906 178.728515625 337.6813659667969 C 176.45159912109375 343.2877197265625 176.74859619140625 349.6106872558594 179.5411376953125 354.9788818359375 L 182.94900512695312 353.068359375" stroke-width="0.6000000238418579" fill="rgb(70, 150, 179)" opacity="1.0"/>
  </g>
</svg>
