<?xml version="1.0" ?>
<svg xmlns="http://www.w3.org/2000/svg" version="1.1" width="600" height="600">
  <defs/>
  <g>
    <path d="M 353.4071044921875 344.5433349609375 C 357.51641845703125 347.61572265625 364.4164733886719 344.05023193359375 364.66357421875 338.9583435058594 C 364.9106750488281 333.866455078125 358.8149108886719 329.6932067871094 353.98382568359375 331.4260559082031 C 349.1527404785156 333.158935546875 346.9734802246094 339.723388671875 349.4916687011719 344.2010803222656 L 353.4071044921875 344.5433349609375" stroke-width="0.6000000238418579" fill="rgb(233, 92, 21)" opacity="1.0"/>
    <path d="M 122.7923583984375 208.64422607421875 C 126.82135009765625 207.51873779296875 131.51736450195312 205.75650024414062 132.45835876464844 201.66583251953125 C 132.76950073242188 200.02337646484375 132.56329345703125 198.32479858398438 131.86814880371094 196.80450439453125 C 130.24945068359375 192.99658203125 126.88546752929688 190.20944213867188 122.84298706054688 189.32696533203125 C 119.41192626953125 188.58712768554688 115.883544921875 189.345703125 112.490966796875 190.15786743164062 C 110.58596801757812 190.6171875 108.57659912109375 191.16586303710938 107.25006103515625 192.59356689453125 C 105.49749755859375 194.51104736328125 105.47563171386719 197.42755126953125 105.84725952148438 199.99774169921875 C 106.38641357421875 203.75994873046875 107.53097534179688 207.4100341796875 109.23652648925781 210.8065185546875 C 109.82807922363281 211.97894287109375 110.5257568359375 213.16619873046875 111.627685546875 213.879638671875 C 112.68618774414062 214.49057006835938 113.89962768554688 214.78033447265625 115.11996459960938 214.71356201171875 C 118.82965087890625 214.655029296875 122.326904296875 212.97210693359375 124.68728637695312 210.109619140625 L 122.7923583984375 208.64422607421875" stroke-width="0.6000000238418579" fill="rgb(70, 150, 179)" opacity="1.0"/>
    <path d="M 454.781494140625 415.12127685546875 C 456.9993896484375 418.40386962890625 459.5955810546875 421.94921875 463.46875 422.76947021484375 C 467.62994384765625 423.6480712890625 471.844970703125 420.90692138671875 474.1724853515625 417.3475341796875 C 475.07049560546875 415.97552490234375 475.7823486328125 414.4068603515625 475.7503662109375 412.767578125 C 475.724609375 411.4200439453125 475.20263671875 410.1358337402344 474.62139892578125 408.9201354980469 C 472.79315185546875 405.084228515625 470.049072265625 401.3478698730469 466.0322265625 399.9643859863281 C 461.98291015625 398.5728454589844 457.1009521484375 400.08197021484375 454.56103515625 403.53369140625 C 452.0211181640625 406.98541259765625 451.9837646484375 412.08868408203125 454.5030517578125 415.55908203125 L 454.781494140625 415.12127685546875" stroke-width="0.6000000238418579" fill="rgb(140, 28, 33)" opacity="1.0"/>
    <path d="M 89.83111572265625 207.71176147460938 C 93.72085571289062 206.69384765625 97.75712585449219 205.59173583984375 100.86653137207031 203.0380859375 C 103.97587585449219 200.48443603515625 105.90347290039062 196.00677490234375 104.30899047851562 192.3133544921875 C 102.33061218261719 187.75860595703125 95.76380920410156 186.67315673828125 91.49887084960938 189.23431396484375 C 87.23391723632812 191.79550170898438 85.02716064453125 196.7991943359375 84.14727783203125 201.6893310546875 C 83.72325134277344 203.17584228515625 83.87185668945312 204.7672119140625 84.56378173828125 206.14947509765625 C 85.38467407226562 207.42962646484375 87.55181884765625 207.88388061523438 88.40628051757812 206.61676025390625 L 89.83111572265625 207.71176147460938" stroke-width="0.6000000238418579" fill="rgb(159, 159, 159)" opacity="1.0"/>
    <path d="M 382.9026794433594 303.3216247558594 C 386.8704528808594 302.1253967285156 390.5147705078125 299.5436706542969 392.455078125 295.8842468261719 C 394.3954162597656 292.2248229980469 394.4093322753906 287.4678039550781 392.011962890625 284.06866455078125 C 390.31396484375 281.6676025390625 387.57611083984375 280.1211853027344 384.7024230957031 279.4844970703125 C 381.8287048339844 278.8477783203125 378.8232116699219 279.05322265625 375.939208984375 279.6440124511719 C 374.6842956542969 279.90185546875 373.3866271972656 280.26312255859375 372.4671630859375 281.15045166015625 C 371.4125061035156 282.1672668457031 371.0478820800781 283.68585205078125 370.7981872558594 285.1339111328125 C 370.09332275390625 289.2221374511719 369.9881591796875 293.5740966796875 371.68280029296875 297.3612976074219 C 373.37744140625 301.14849853515625 377.239501953125 304.1854248046875 381.36810302734375 303.8956604003906 L 382.9026794433594 303.3216247558594" stroke-width="0.6000000238418579" fill="rgb(159, 159, 159)" opacity="1.0"/>
    <path d="M 101.39810180664062 427.82928466796875 C 103.30831909179688 424.90936279296875 105.30509948730469 421.58099365234375 104.62657165527344 418.165283203125 C 103.97137451171875 414.8426513671875 101.01374816894531 412.542236328125 98.23178100585938 410.60821533203125 C 97.10049438476562 409.8241882324219 95.90451049804688 409.02203369140625 94.53768920898438 408.866455078125 C 92.22613525390625 408.6019592285156 90.13394165039062 410.23114013671875 88.62109375 411.9942932128906 C 87.21627807617188 413.6302490234375 86.05368041992188 415.45947265625 85.1688232421875 417.4259033203125 C 83.73092651367188 420.618408203125 83.1605224609375 424.65673828125 85.34066772460938 427.39495849609375 C 86.51547241210938 428.87493896484375 88.34127807617188 429.73828125 90.19854736328125 430.1016845703125 C 92.05580139160156 430.465087890625 93.97029113769531 430.37158203125 95.8590087890625 430.25225830078125 C 97.74771118164062 430.1329345703125 99.60101318359375 429.97528076171875 101.234375 429.1121826171875 L 101.39810180664062 427.82928466796875" stroke-width="0.6000000238418579" fill="rgb(218, 166, 20)" opacity="1.0"/>
    <path d="M 99.70191955566406 146.0756378173828 C 107.01286315917969 146.81346130371094 113.53768920898438 141.48489379882812 114.2755126953125 134.1739501953125 C 114.33871459960938 133.54791259765625 114.35739135742188 132.91818237304688 114.33145141601562 132.28948974609375 C 114.23245239257812 129.90065002441406 113.41452026367188 127.44636535644531 111.64248657226562 125.84300231933594 C 110.14511108398438 124.48789978027344 108.13328552246094 123.86441040039062 106.15228271484375 123.47894287109375 C 100.84820556640625 122.4544677734375 95.36654663085938 122.86886596679688 90.2767333984375 124.67910766601562 C 88.93215942382812 125.15986633300781 87.58453369140625 125.76153564453125 86.58999633789062 126.79046630859375 C 84.91937255859375 128.51683044433594 84.54672241210938 131.1743927001953 84.96771240234375 133.54132080078125 C 85.59030151367188 137.0557861328125 87.76564025878906 140.19577026367188 90.62371826171875 142.33497619628906 C 93.48178100585938 144.47418212890625 96.9749755859375 145.6675567626953 100.51748657226562 146.10702514648438 L 99.70191955566406 146.0756378173828" stroke-width="0.6000000238418579" fill="rgb(143, 165, 67)" opacity="1.0"/>
    <path d="M 459.784423828125 345.8953857421875 C 462.6846923828125 352.6123352050781 473.7489013671875 353.1020812988281 477.669677734375 346.98077392578125 C 481.5904541015625 340.8594665527344 477.01513671875 331.37078857421875 469.81060791015625 330.0837097167969 C 462.6060791015625 328.7966003417969 455.25048828125 335.3671569824219 455.1854248046875 342.6922607421875 L 459.784423828125 345.8953857421875" stroke-width="0.6000000238418579" fill="rgb(233, 92, 21)" opacity="1.0"/>
    <path d="M 103.79135131835938 221.37667846679688 C 106.64962768554688 218.773681640625 109.7939453125 215.367919921875 108.87118530273438 211.60018920898438 C 108.44561767578125 210.11505126953125 107.56968688964844 208.798583984375 106.36421203613281 207.83242797851562 C 103.44590759277344 205.361572265625 99.51101684570312 204.45849609375 95.80735778808594 205.4095458984375 C 92.66769409179688 206.22430419921875 90.07023620605469 208.31646728515625 87.60714721679688 210.39642333984375 C 86.22543334960938 211.56707763671875 84.794677734375 212.85479736328125 84.29281616210938 214.58450317382812 C 83.64276123046875 216.8955078125 84.83642578125 219.31210327148438 86.2110595703125 221.27935791015625 C 88.21920776367188 224.1610107421875 90.68055725097656 226.69857788085938 93.49960327148438 228.793701171875 C 94.47502136230469 229.5157470703125 95.54421997070312 230.2059326171875 96.75025939941406 230.3370361328125 C 97.87786865234375 230.401611328125 98.99992370605469 230.13665771484375 99.97955322265625 229.57452392578125 C 103.01751708984375 227.98492431640625 105.20526123046875 225.14266967773438 105.96441650390625 221.799072265625 L 103.79135131835938 221.37667846679688" stroke-width="0.6000000238418579" fill="rgb(70, 150, 179)" opacity="1.0"/>
    <path d="M 103.49710083007812 79.77778625488281 C 104.27256774902344 83.45712280273438 105.28660583496094 87.50283813476562 108.39825439453125 89.60958862304688 C 111.74221801757812 91.87071228027344 116.42849731445312 90.96875 119.7481689453125 88.67221069335938 C 121.02847290039062 87.78729248046875 122.21553039550781 86.66287231445312 122.77386474609375 85.21029663085938 C 123.23330688476562 84.01638793945312 123.23379516601562 82.70059204101562 123.15774536132812 81.42388916015625 C 122.92276000976562 77.39749145507812 121.84701538085938 73.13096618652344 118.810546875 70.47763061523438 C 115.74842834472656 67.80560302734375 110.9166259765625 67.38581848144531 107.44876098632812 69.51171875 C 103.98089599609375 71.63760375976562 102.12240600585938 76.11080932617188 103.09564208984375 80.06303405761719 L 103.49710083007812 79.77778625488281" stroke-width="0.6000000238418579" fill="rgb(140, 28, 33)" opacity="1.0"/>
    <path d="M 92.16595458984375 409.3426513671875 C 96.2159423828125 407.5262451171875 100.41017150878906 405.5915222167969 103.33096313476562 402.2449951171875 C 106.25169372558594 398.8985290527344 107.53546142578125 393.6722106933594 105.12704467773438 389.94091796875 C 102.143798828125 385.3416748046875 94.79603576660156 385.3551330566406 90.61842346191406 388.920166015625 C 86.44081115722656 392.4851989746094 84.94882202148438 398.3351135253906 84.88095092773438 403.8198547363281 C 84.6898193359375 405.5155944824219 85.14129638671875 407.2212829589844 86.14631652832031 408.6003723144531 C 87.27316284179688 409.8448181152344 89.71549987792969 409.9449462890625 90.41522216796875 408.4097595214844 L 92.16595458984375 409.3426513671875" stroke-width="0.6000000238418579" fill="rgb(159, 159, 159)" opacity="1.0"/>
    <path d="M 478.02618408203125 68.53665161132812 C 479.3741455078125 65.11825561523438 479.5802001953125 61.16358947753906 478.09991455078125 57.80247497558594 C 476.61968994140625 54.441375732421875 473.31707763671875 51.817626953125 469.63433837890625 51.618011474609375 C 467.0303955078125 51.48016357421875 464.4498291015625 52.535614013671875 462.4276123046875 54.1854248046875 C 460.4053955078125 55.83526611328125 458.8968505859375 58.03961181640625 457.72314453125 60.37115478515625 C 457.21295166015625 61.386077880859375 456.75128173828125 62.48760986328125 456.86346435546875 63.61505126953125 C 456.991455078125 64.90768432617188 457.847900390625 65.99591064453125 458.71832275390625 66.96539306640625 C 461.1759033203125 69.70240783691406 464.146484375 72.16705322265625 467.71307373046875 73.06893920898438 C 471.27972412109375 73.97079467773438 475.5152587890625 72.95216369628906 477.5823974609375 69.91995239257812 L 478.02618408203125 68.53665161132812" stroke-width="0.6000000238418579" fill="rgb(159, 159, 159)" opacity="1.0"/>
    <path d="M 88.65130615234375 108.58834838867188 C 92.98272705078125 109.4552001953125 97.83485412597656 110.23109436035156 101.52761840820312 107.82278442382812 C 105.12213134765625 105.48574829101562 106.4295654296875 100.92597961425781 107.38949584960938 96.74539184570312 C 107.77696228027344 95.04649353027344 108.15521240234375 93.26303100585938 107.69328308105469 91.5838623046875 C 106.91366577148438 88.74343872070312 104.01278686523438 87.053955078125 101.22776794433594 86.10830688476562 C 98.64315795898438 85.22958374023438 95.94573974609375 84.7265625 93.21810913085938 84.61459350585938 C 88.78927612304688 84.43118286132812 83.77584838867188 85.66593933105469 81.58732604980469 89.518798828125 C 80.40277099609375 91.59709167480469 80.249755859375 94.14932250976562 80.6988525390625 96.50270080566406 C 81.14796447753906 98.8560791015625 82.16091918945312 101.0611572265625 83.19195556640625 103.22378540039062 C 84.22299194335938 105.38641357421875 85.28244018554688 107.48933410644531 87.06686401367188 109.00114440917969 L 88.65130615234375 108.58834838867188" stroke-width="0.6000000238418579" fill="rgb(218, 166, 20)" opacity="1.0"/>
    <path d="M 128.16761779785156 137.25775146484375 C 134.91213989257812 136.6519775390625 139.88856506347656 130.69337463378906 139.2827911376953 123.9488525390625 C 139.23092651367188 123.37132263183594 139.1381378173828 122.79820251464844 139.00515747070312 122.23379516601562 C 138.4994659423828 120.08926391601562 137.33177185058594 118.0107421875 135.4488983154297 116.86845397949219 C 133.85781860351562 115.90298461914062 131.92861938476562 115.68919372558594 130.06878662109375 115.68544006347656 C 125.09042358398438 115.68223571777344 120.2020263671875 117.0120849609375 115.91136169433594 119.53683471679688 C 114.77833557128906 120.20610046386719 113.66360473632812 120.98532104492188 112.94284057617188 122.08967590332031 C 111.73171997070312 123.94294738769531 111.857421875 126.41279602050781 112.65068054199219 128.4813995361328 C 113.82624816894531 131.5533447265625 116.34176635742188 134.0159454345703 119.30078125 135.45396423339844 C 122.25979614257812 136.89198303222656 125.62879943847656 137.36346435546875 128.9111328125 137.1440887451172 L 128.16761779785156 137.25775146484375" stroke-width="0.6000000238418579" fill="rgb(143, 165, 67)" opacity="1.0"/>
    <path d="M 393.07757568359375 308.99041748046875 C 396.6755676269531 317.656982421875 410.85589599609375 318.4852294921875 415.9947509765625 310.7059326171875 C 421.133544921875 302.9266662597656 415.437744140625 290.67523193359375 406.2216491699219 288.894287109375 C 397.00555419921875 287.1133117675781 387.4535827636719 295.40655517578125 387.2376708984375 304.79937744140625 L 393.07757568359375 308.99041748046875" stroke-width="0.6000000238418579" fill="rgb(233, 92, 21)" opacity="1.0"/>
    <path d="M 123.97100830078125 110.69288635253906 C 127.87744140625 109.66766357421875 132.4374237060547 108.03787231445312 133.40797424316406 104.10333251953125 C 133.7332763671875 102.52252197265625 133.56004333496094 100.87971496582031 132.912109375 99.40155029296875 C 131.40737915039062 95.70103454589844 128.202392578125 92.95941162109375 124.31344604492188 92.04606628417969 C 121.0125732421875 91.27975463867188 117.59500122070312 91.95840454101562 114.30767822265625 92.69085693359375 C 112.46173095703125 93.10530090332031 110.51370239257812 93.60441589355469 109.21144104003906 94.96246337890625 C 107.49049377441406 96.78684997558594 107.42506408691406 99.60188293457031 107.7447509765625 102.08863830566406 C 108.20803833007812 105.72860717773438 109.2574462890625 109.26957702636719 110.85226440429688 112.57421875 C 111.40548706054688 113.7149658203125 112.06092834472656 114.87168884277344 113.11381530761719 115.5771484375 C 114.1263427734375 116.1829833984375 115.29330444335938 116.48114013671875 116.47235107421875 116.43522644042969 C 120.0543212890625 116.43510437011719 123.45591735839844 114.86366271972656 125.77796936035156 112.13629150390625 L 123.97100830078125 110.69288635253906" stroke-width="0.6000000238418579" fill="rgb(70, 150, 179)" opacity="1.0"/>
    <path d="M 421.86962890625 64.59056091308594 C 423.588623046875 67.572509765625 425.6192626953125 70.80558776855469 428.92510986328125 71.7559814453125 C 432.4769287109375 72.7747802734375 436.29931640625 70.659912109375 438.53656005859375 67.71920776367188 C 439.399658203125 66.58576965332031 440.11358642578125 65.27033996582031 440.187255859375 63.84776306152344 C 440.248291015625 62.6783447265625 439.87530517578125 61.533111572265625 439.44677734375 60.44361877441406 C 438.09967041015625 57.006256103515625 435.95263671875 53.5985107421875 432.55712890625 52.151123046875 C 429.13397216796875 50.694732666015625 424.80987548828125 51.70062255859375 422.39520263671875 54.53485107421875 C 419.98052978515625 57.369110107421875 419.632568359375 61.78941345214844 421.6011962890625 64.95272827148438 L 421.86962890625 64.59056091308594" stroke-width="0.6000000238418579" fill="rgb(140, 28, 33)" opacity="1.0"/>
    <path d="M 116.82809448242188 424.3787841796875 C 118.95376586914062 420.99267578125 121.12832641601562 417.44580078125 121.642822265625 413.47802734375 C 122.15731811523438 409.5103759765625 120.50538635253906 404.9530944824219 116.83511352539062 403.36224365234375 C 112.30015563964844 401.4086608886719 106.80232238769531 405.09332275390625 105.45553588867188 409.853271484375 C 104.1087646484375 414.61328125 105.91658020019531 419.7418212890625 108.60861206054688 423.8846435546875 C 109.3134765625 425.2506103515625 110.50471496582031 426.3026123046875 111.94729614257812 426.8331298828125 C 113.413818359375 427.201904296875 115.29356384277344 426.05548095703125 115.05001831054688 424.55548095703125 L 116.82809448242188 424.3787841796875" stroke-width="0.6000000238418579" fill="rgb(159, 159, 159)" opacity="1.0"/>
    <path d="M 469.7506103515625 445.93255615234375 C 470.369140625 442.685791015625 469.888671875 439.15631103515625 468.0174560546875 436.4339599609375 C 466.146240234375 433.71160888671875 462.7879638671875 431.9461669921875 459.5 432.38671875 C 457.1756591796875 432.701171875 455.0718994140625 434.06622314453125 453.56121826171875 435.863037109375 C 452.050537109375 437.65985107421875 451.0865478515625 439.86065673828125 450.43994140625 442.1177978515625 C 450.1591796875 443.1002197265625 449.9356689453125 444.1510009765625 450.22369384765625 445.1285400390625 C 450.55340576171875 446.24951171875 451.4925537109375 447.0677490234375 452.4241943359375 447.7786865234375 C 455.0545654296875 449.7857666015625 458.0927734375 451.4661865234375 461.39581298828125 451.66571044921875 C 464.6988525390625 451.865234375 468.2713623046875 450.25537109375 469.59014892578125 447.2293701171875 L 469.7506103515625 445.93255615234375" stroke-width="0.6000000238418579" fill="rgb(159, 159, 159)" opacity="1.0"/>
    <path d="M 452.86138916015625 291.2552795410156 C 453.9749755859375 286.7688903808594 455.01849365234375 281.7338562011719 452.67779541015625 277.75823974609375 C 450.40692138671875 273.88873291015625 445.70294189453125 272.3036193847656 441.378662109375 271.09991455078125 C 439.621337890625 270.613525390625 437.7750244140625 270.1326904296875 435.99761962890625 270.53515625 C 432.990966796875 271.214111328125 431.0859375 274.1656494140625 429.9639892578125 277.03167724609375 C 428.921630859375 279.69146728515625 428.2666015625 282.48712158203125 428.0189208984375 285.3330993652344 C 427.6151123046875 289.95404052734375 428.665771484375 295.2539978027344 432.5885009765625 297.7263488769531 C 434.704345703125 299.06414794921875 437.36505126953125 299.34637451171875 439.8466796875 298.9896240234375 C 442.32830810546875 298.6328430175781 444.681884765625 297.6795654296875 446.9920654296875 296.705322265625 C 449.3021240234375 295.7310791015625 451.5511474609375 294.72430419921875 453.217041015625 292.9313659667969 L 452.86138916015625 291.2552795410156" stroke-width="0.6000000238418579" fill="rgb(218, 166, 20)" opacity="1.0"/>
    <path d="M 426.8685302734375 365.1661376953125 C 425.034423828125 369.8235778808594 427.3231201171875 375.0860290527344 431.9805908203125 376.9201354980469 C 432.37939453125 377.07720947265625 432.788818359375 377.2057800292969 433.20587158203125 377.30487060546875 C 434.79052734375 377.6811828613281 436.55084228515625 377.59820556640625 437.929443359375 376.732421875 C 439.094482421875 376.00091552734375 439.87493896484375 374.79693603515625 440.4935302734375 373.5691833496094 C 442.14501953125 370.28057861328125 442.8857421875 366.6097717285156 442.63885498046875 362.9381103515625 C 442.57196044921875 361.9676818847656 442.4263916015625 360.972900390625 441.9354248046875 360.1307678222656 C 441.11199951171875 358.71649169921875 439.43829345703125 357.9812927246094 437.80859375 357.8201599121094 C 435.38916015625 357.5792541503906 432.92852783203125 358.4256591796875 430.99798583984375 359.9045715332031 C 429.06744384765625 361.3834533691406 427.6397705078125 363.4534912109375 426.69732666015625 365.6950988769531 L 426.8685302734375 365.1661376953125" stroke-width="0.6000000238418579" fill="rgb(143, 165, 67)" opacity="1.0"/>
    <path d="M 451.6434326171875 347.5611877441406 C 457.25439453125 343.571533203125 455.52978515625 333.2934265136719 449.12579345703125 330.8888854980469 C 442.7218017578125 328.484375 434.889404296875 334.560302734375 435.1214599609375 341.4433288574219 C 435.353515625 348.3263244628906 442.84619140625 353.803466796875 449.59991455078125 352.423095703125 L 451.6434326171875 347.5611877441406" stroke-width="0.6000000238418579" fill="rgb(233, 92, 21)" opacity="1.0"/>
    <path d="M 452.13958740234375 71.89480590820312 C 455.374755859375 70.68276977539062 459.113525390625 68.8994140625 459.59735107421875 65.46685791015625 C 459.73675537109375 64.09333801269531 459.446533203125 62.71040344238281 458.7666015625 61.50885009765625 C 457.1644287109375 58.49061584472656 454.19873046875 56.436187744140625 450.8099365234375 55.997039794921875 C 447.934326171875 55.63188171386719 445.0850830078125 56.506500244140625 442.351318359375 57.41558837890625 C 440.8165283203125 57.928741455078125 439.2021484375 58.5228271484375 438.2120361328125 59.79170227050781 C 436.9061279296875 61.49383544921875 437.09521484375 63.895050048828125 437.58343505859375 65.98342895507812 C 438.29412841796875 69.04066467285156 439.4949951171875 71.96272277832031 441.139404296875 74.63624572753906 C 441.7093505859375 75.55889892578125 442.36767578125 76.48626708984375 443.324951171875 76.99505615234375 C 444.2392578125 77.42257690429688 445.25830078125 77.57485961914062 446.25762939453125 77.43328857421875 C 449.3057861328125 77.12178039550781 452.0638427734375 75.48880004882812 453.802734375 72.96600341796875 L 452.13958740234375 71.89480590820312" stroke-width="0.6000000238418579" fill="rgb(70, 150, 179)" opacity="1.0"/>
    <path d="M 453.224609375 399.0352783203125 C 453.4072265625 395.1871032714844 453.44818115234375 390.91400146484375 450.9080810546875 388.0207214355469 C 448.17767333984375 384.9143371582031 443.29852294921875 384.5966796875 439.41357421875 386.01495361328125 C 437.91546630859375 386.5611572265625 436.4478759765625 387.3689270019531 435.5186767578125 388.66461181640625 C 434.75445556640625 389.72943115234375 434.4136962890625 391.03375244140625 434.158935546875 392.31915283203125 C 433.3507080078125 396.3716125488281 433.3138427734375 400.87957763671875 435.63800048828125 404.2952880859375 C 437.9827880859375 407.73614501953125 442.6644287109375 409.4018249511719 446.652099609375 408.1910400390625 C 450.639892578125 406.980224609375 453.63916015625 403.02618408203125 453.69635009765625 398.8562927246094 L 453.224609375 399.0352783203125" stroke-width="0.6000000238418579" fill="rgb(140, 28, 33)" opacity="1.0"/>
    <path d="M 125.27999877929688 212.371826171875 C 120.29731750488281 215.29156494140625 115.14474487304688 218.3846435546875 111.83810424804688 223.12451171875 C 108.53152465820312 227.86431884765625 107.60699462890625 234.8050537109375 111.24760437011719 239.2921142578125 C 115.75392150878906 244.8209228515625 125.2559814453125 243.76882934570312 130.15748596191406 238.5693359375 C 135.05899047851562 233.369873046875 136.16502380371094 225.59320068359375 135.48048400878906 218.48944091796875 C 135.4888916015625 216.2691650390625 134.6647491455078 214.12652587890625 133.1706085205078 212.4842529296875 C 131.53785705566406 211.0333251953125 128.36471557617188 211.24774169921875 127.67584228515625 213.33197021484375 L 125.27999877929688 212.371826171875" stroke-width="0.6000000238418579" fill="rgb(159, 159, 159)" opacity="1.0"/>
    <path d="M 109.17880249023438 236.80242919921875 C 104.00863647460938 234.77349853515625 98.03070068359375 234.47174072265625 92.95407104492188 236.71737670898438 C 87.87744140625 238.9630126953125 83.91983032226562 243.9613037109375 83.62713623046875 249.5281982421875 C 83.42520141601562 253.46432495117188 85.02682495117188 257.36224365234375 87.52548217773438 260.41473388671875 C 90.02415466308594 263.46722412109375 93.35969543457031 265.74200439453125 96.88665771484375 267.51031494140625 C 98.42198181152344 268.2789306640625 100.08805847167969 268.9740295410156 101.79190063476562 268.80169677734375 C 103.74539184570312 268.6050109863281 105.38812255859375 267.3079528808594 106.85134887695312 265.9898681640625 C 110.98226928710938 262.26861572265625 114.70022583007812 257.77252197265625 116.05464172363281 252.37939453125 C 117.40904235839844 246.98626708984375 115.85897827148438 240.5867919921875 111.270751953125 237.4698486328125 L 109.17880249023438 236.80242919921875" stroke-width="0.6000000238418579" fill="rgb(159, 159, 159)" opacity="1.0"/>
    <path d="M 297.4874267578125 97.93316650390625 C 295.56463623046875 102.66827392578125 293.63250732421875 108.01487731933594 295.5702819824219 112.73309326171875 C 297.44830322265625 117.32421875 302.3475646972656 119.79714965820312 306.89111328125 121.79307556152344 C 308.7380676269531 122.60118103027344 310.6831359863281 123.41712951660156 312.6915283203125 123.25559997558594 C 316.0885009765625 122.98439025878906 318.63653564453125 120.05319213867188 320.31414794921875 117.0926513671875 C 321.872314453125 114.34539794921875 323.02789306640625 111.38861083984375 323.7455749511719 108.31285095214844 C 324.9126892089844 103.319091796875 324.5945739746094 97.35394287109375 320.689453125 94.03262329101562 C 318.5838623046875 92.23648071289062 315.71630859375 91.51010131835938 312.9444274902344 91.5111083984375 C 310.17254638671875 91.51211547851562 307.4471740722656 92.18603515625 304.76611328125 92.88972473144531 C 302.0850524902344 93.5933837890625 299.4656982421875 94.34225463867188 297.3612365722656 96.04306030273438 L 297.4874267578125 97.93316650390625" stroke-width="0.6000000238418579" fill="rgb(218, 166, 20)" opacity="1.0"/>
    <path d="M 227.17562866210938 121.24395751953125 C 220.16879272460938 114.7774658203125 209.24649047851562 115.21551513671875 202.77999877929688 122.22235107421875 C 202.22625732421875 122.82234191894531 201.7158203125 123.46087646484375 201.25244140625 124.13311767578125 C 199.4921875 126.68780517578125 198.42657470703125 129.87100219726562 199.01400756835938 132.91574096679688 C 199.51019287109375 135.4888153076172 201.1104736328125 137.70431518554688 202.8643798828125 139.64892578125 C 207.56634521484375 144.8477020263672 213.5745849609375 148.6926727294922 220.264892578125 150.78443908691406 C 222.0343017578125 151.33438110351562 223.901123046875 151.7613067626953 225.73492431640625 151.4697723388672 C 228.8138427734375 150.9821319580078 231.27273559570312 148.51657104492188 232.68191528320312 145.7335205078125 C 234.77691650390625 141.6031494140625 234.96951293945312 136.65025329589844 233.673583984375 132.20286560058594 C 232.377685546875 127.75547790527344 229.685546875 123.79373168945312 226.354248046875 120.57540893554688 L 227.17562866210938 121.24395751953125" stroke-width="0.6000000238418579" fill="rgb(143, 165, 67)" opacity="1.0"/>
    <path d="M 218.00778198242188 90.51416015625 C 218.06600952148438 102.1893310546875 234.00396728515625 109.82656860351562 243.58782958984375 103.29098510742188 C 253.171630859375 96.75537109375 252.38742065429688 79.96356201171875 242.61471557617188 73.56904602050781 C 232.84197998046875 67.17453002929688 217.93426513671875 72.221923828125 213.25860595703125 82.935791015625 L 218.00778198242188 90.51416015625" stroke-width="0.6000000238418579" fill="rgb(233, 92, 21)" opacity="1.0"/>
    <path d="M 199.17361450195312 97.60711669921875 C 197.54214477539062 92.33770751953125 195.04681396484375 86.21249389648438 189.6202392578125 85.12236022949219 C 187.44381713867188 84.7725830078125 185.21246337890625 85.10675048828125 183.23403930664062 86.07887268066406 C 178.274169921875 88.35238647460938 174.72390747070312 92.88888549804688 173.7091064453125 98.24981689453125 C 172.85995483398438 102.799560546875 173.98944091796875 107.42256164550781 175.1845703125 111.86459350585938 C 175.85995483398438 114.3587646484375 176.656982421875 116.98721313476562 178.58758544921875 118.68333435058594 C 181.179443359375 120.92300415039062 185.0245361328125 120.8447265625 188.39877319335938 120.26048278808594 C 193.3380126953125 119.41162109375 198.1072998046875 117.76890563964844 202.52166748046875 115.39602661132812 C 204.04531860351562 114.5732421875 205.58465576171875 113.61000061035156 206.484619140625 112.13131713867188 C 207.25103759765625 110.713623046875 207.58837890625 109.10354614257812 207.45556640625 107.49740600585938 C 207.2421875 102.6097412109375 204.89541625976562 98.06170654296875 201.03561401367188 95.0555419921875 L 199.17361450195312 97.60711669921875" stroke-width="0.6000000238418579" fill="rgb(70, 150, 179)" opacity="1.0"/>
    <path d="M 262.13116455078125 130.9131622314453 C 258.3431396484375 134.2866973876953 254.28604125976562 138.18505859375 253.90469360351562 143.2399139404297 C 253.498291015625 148.6702117919922 257.6947326660156 153.55238342285156 262.6080627441406 155.89999389648438 C 264.5020751953125 156.80593872070312 266.614013671875 157.44223022460938 268.6888122558594 157.12249755859375 C 270.3945007324219 156.86032104492188 271.9353332519531 155.97914123535156 273.3791198730469 155.0345458984375 C 277.9356689453125 152.06124877929688 282.2099304199219 147.94264221191406 283.2815856933594 142.60955810546875 C 284.35791015625 137.23387145996094 281.6114807128906 131.29559326171875 276.7986145019531 128.6601104736328 C 271.9857482910156 126.02462768554688 265.503173828125 126.84634399414062 261.5281677246094 130.63430786132812 L 262.13116455078125 130.9131622314453" stroke-width="0.6000000238418579" fill="rgb(140, 28, 33)" opacity="1.0"/>
    <path d="M 302.59954833984375 122.51583862304688 C 297.3298034667969 124.466064453125 291.8678283691406 126.553466796875 287.8943786621094 130.5322723388672 C 283.9209899902344 134.51104736328125 281.8555603027344 141.00320434570312 284.58062744140625 145.92068481445312 C 287.9579772949219 151.98329162597656 297.2398986816406 152.59048461914062 302.8193664550781 148.4424285888672 C 308.3988342285156 144.2943878173828 310.7802734375 137.03225708007812 311.3319091796875 130.1103973388672 C 311.71734619140625 127.98478698730469 311.2919921875 125.79200744628906 310.1397399902344 123.96473693847656 C 308.8221740722656 122.29718017578125 305.7458190917969 121.9632568359375 304.7315979003906 123.8428955078125 L 302.59954833984375 122.51583862304688" stroke-width="0.6000000238418579" fill="rgb(159, 159, 159)" opacity="1.0"/>
    <path d="M 195.32354736328125 133.72581481933594 C 191.83636474609375 129.15484619140625 186.70709228515625 125.67909240722656 181.00827026367188 124.94189453125 C 175.3094482421875 124.20468139648438 169.12362670898438 126.50456237792969 165.87652587890625 131.27487182617188 C 163.5850830078125 134.6504364013672 162.91049194335938 138.9602813720703 163.48370361328125 143.00326538085938 C 164.05694580078125 147.0462646484375 165.788330078125 150.85011291503906 167.96099853515625 154.30838012695312 C 168.90740966796875 155.81277465820312 170.00900268554688 157.32229614257812 171.609619140625 158.08428955078125 C 173.44427490234375 158.958740234375 175.594482421875 158.69241333007812 177.59710693359375 158.31112670898438 C 183.25088500976562 157.234619140625 188.95501708984375 155.25062561035156 193.04861450195312 151.20401000976562 C 197.1422119140625 147.15737915039062 199.20510864257812 140.66102600097656 196.81695556640625 135.4394073486328 L 195.32354736328125 133.72581481933594" stroke-width="0.6000000238418579" fill="rgb(159, 159, 159)" opacity="1.0"/>
    <path d="M 278.04742431640625 96.88803100585938 C 273.0267333984375 98.44976806640625 267.513671875 100.40318298339844 265.0263671875 105.02395629882812 C 262.6011047363281 109.5142822265625 263.8324890136719 115.02462768554688 265.21099853515625 119.94070434570312 C 265.77392578125 121.93698120117188 266.3946533203125 124.01641845703125 267.8340759277344 125.50814819335938 C 270.2671203613281 128.03256225585938 274.2613830566406 128.14556884765625 277.7107849121094 127.5472412109375 C 280.9126281738281 126.99310302734375 284.018310546875 125.98208618164062 286.9327697753906 124.54513549804688 C 291.6658935546875 122.21363830566406 296.2020263671875 118.06695556640625 296.2942810058594 112.79344177246094 C 296.3482360839844 109.946533203125 295.0541076660156 107.19197082519531 293.2440185546875 104.98828125 C 291.4338684082031 102.78460693359375 289.11895751953125 101.05714416503906 286.809326171875 99.38435363769531 C 284.49969482421875 97.7115478515625 282.19439697265625 96.11734008789062 279.4681701660156 95.553955078125 L 278.04742431640625 96.88803100585938" stroke-width="0.6000000238418579" fill="rgb(218, 166, 20)" opacity="1.0"/>
    <path d="M 232.52490234375 118.67184448242188 C 230.69873046875 128.3297119140625 237.047607421875 137.6393585205078 246.70547485351562 139.4654998779297 C 247.532470703125 139.62188720703125 248.36953735351562 139.71937561035156 249.21035766601562 139.75729370117188 C 252.4052734375 139.90078735351562 255.770263671875 139.09371948242188 258.1112976074219 136.9170684814453 C 260.08978271484375 135.07781982421875 261.1526184082031 132.46864318847656 261.89471435546875 129.8730926513672 C 263.8714904785156 122.9227294921875 263.95123291015625 115.56980895996094 262.1256103515625 108.57818603515625 C 261.63995361328125 106.73091125488281 260.9934997558594 104.86561584472656 259.7369689941406 103.421630859375 C 257.62890625 100.99624633789062 254.13027954101562 100.19325256347656 250.92745971679688 100.48139953613281 C 246.172119140625 100.9058837890625 241.73681640625 103.44285583496094 238.5565185546875 107.00505065917969 C 235.37619018554688 110.56723022460938 233.38311767578125 115.08482360839844 232.3890380859375 119.75509643554688 L 232.52490234375 118.67184448242188" stroke-width="0.6000000238418579" fill="rgb(143, 165, 67)" opacity="1.0"/>
    <path d="M 254.558349609375 85.27346801757812 C 255.032958984375 95.99003601074219 269.9406433105469 102.42666625976562 278.5035705566406 96.08084106445312 C 287.0664978027344 89.73495483398438 285.7408142089844 74.34713745117188 276.5380859375 68.82901000976562 C 267.33538818359375 63.310882568359375 253.8310546875 68.48251342773438 249.9249267578125 78.48727416992188 L 254.558349609375 85.27346801757812" stroke-width="0.6000000238418579" fill="rgb(233, 92, 21)" opacity="1.0"/>
    <path d="M 338.69329833984375 75.50125122070312 C 335.4687194824219 71.435546875 331.1952209472656 66.91340637207031 326.065185546875 67.80471801757812 C 324.0374450683594 68.23887634277344 322.19439697265625 69.29154968261719 320.7903137207031 70.81756591796875 C 317.214599609375 74.49983215332031 315.6455078125 79.68679809570312 316.5805358886719 84.73361206054688 C 317.38470458984375 89.01266479492188 319.9490051269531 92.68238830566406 322.50927734375 96.17105102539062 C 323.9506530761719 98.12844848632812 325.5444030761719 100.16217041015625 327.81488037109375 100.99240112304688 C 330.8503112792969 102.07418823242188 334.1956787109375 100.69656372070312 336.95587158203125 99.03555297851562 C 340.99847412109375 96.60968017578125 344.62176513671875 93.54547119140625 347.6852111816406 89.9617919921875 C 348.7413024902344 88.72154235839844 349.76336669921875 87.352783203125 350.0491943359375 85.74966430664062 C 350.23870849609375 84.2454833984375 349.9864501953125 82.71864318847656 349.3232116699219 81.3553466796875 C 347.47216796875 77.14166259765625 343.8658752441406 73.95205688476562 339.45758056640625 72.62973022460938 L 338.69329833984375 75.50125122070312" stroke-width="0.6000000238418579" fill="rgb(70, 150, 179)" opacity="1.0"/>
    <path d="M 333.9560852050781 138.3520965576172 C 333.1610107421875 133.6349334716797 332.0816650390625 128.43971252441406 328.2354736328125 125.60047912597656 C 324.1019592285156 122.552978515625 318.0982666015625 123.45668029785156 313.7594909667969 126.20388793945312 C 312.0862121582031 127.26239013671875 310.5190124511719 128.63018798828125 309.7340087890625 130.4476776123047 C 309.088134765625 131.9415283203125 309.0193176269531 133.6140594482422 309.0498352050781 135.24087524414062 C 309.139892578125 140.37118530273438 310.2862548828125 145.85031127929688 314.008544921875 149.3804168701172 C 317.7624816894531 152.9356231689453 323.88262939453125 153.71961975097656 328.4009704589844 151.19700622558594 C 332.9192810058594 148.6743927001953 335.51348876953125 143.08460998535156 334.4811706542969 138.0102996826172 L 333.9560852050781 138.3520965576172" stroke-width="0.6000000238418579" fill="rgb(140, 28, 33)" opacity="1.0"/>
    <path d="M 346.0223083496094 104.2021484375 C 340.6894836425781 103.30209350585938 335.1304931640625 102.42434692382812 329.90643310546875 103.83883666992188 C 324.6824951171875 105.25332641601562 319.84521484375 109.68023681640625 319.7607116699219 115.09072875976562 C 319.67132568359375 121.7696533203125 327.1256103515625 126.72805786132812 333.77099609375 125.94261169433594 C 340.4163818359375 125.15716552734375 345.8866271972656 120.23927307128906 349.6667785644531 114.72775268554688 C 351.0079040527344 113.13885498046875 351.70465087890625 111.10504150390625 351.6194763183594 109.027587890625 C 351.3197937011719 107.00411987304688 348.9128112792969 105.25 347.16497802734375 106.33207702636719 L 346.0223083496094 104.2021484375" stroke-width="0.6000000238418579" fill="rgb(159, 159, 159)" opacity="1.0"/>
    <path d="M 345.77923583984375 120.4019775390625 C 341.11724853515625 122.11668395996094 336.941162109375 125.46601867675781 334.8809509277344 129.98312377929688 C 332.82073974609375 134.50021362304688 333.14385986328125 140.1929931640625 336.2550964355469 144.08883666992188 C 338.458251953125 146.8404541015625 341.8445739746094 148.49517822265625 345.32843017578125 149.0517578125 C 348.81231689453125 149.60833740234375 352.39373779296875 149.1478271484375 355.80224609375 148.23495483398438 C 357.28533935546875 147.83682250976562 358.8121643066406 147.31185913085938 359.8489685058594 146.18450927734375 C 361.0382385253906 144.89256286621094 361.3660583496094 143.04953002929688 361.5613708496094 141.299072265625 C 362.11273193359375 136.35716247558594 361.9277038574219 131.14251708984375 359.62957763671875 126.73216247558594 C 357.3314208984375 122.32179260253906 352.4935607910156 118.96394348144531 347.5743408203125 119.60552978515625 L 345.77923583984375 120.4019775390625" stroke-width="0.6000000238418579" fill="rgb(159, 159, 159)" opacity="1.0"/>
    <path d="M 364.4491271972656 98.11581420898438 C 360.29205322265625 98.96807861328125 355.7081604003906 100.09548950195312 353.3406982421875 103.60725402832031 C 351.0335388183594 107.01922607421875 351.5812683105469 111.5430908203125 352.29473876953125 115.60150146484375 C 352.5870056152344 117.249755859375 352.9190673828125 118.96942138671875 353.95562744140625 120.28265380859375 C 355.70745849609375 122.50477600097656 358.9061584472656 122.91531372070312 361.7242431640625 122.7109375 C 364.3399658203125 122.52226257324219 366.9150695800781 121.95895385742188 369.37066650390625 121.03828430175781 C 373.35845947265625 119.54481506347656 377.3333435058594 116.57781982421875 377.8296203613281 112.35009765625 C 378.1008605957031 110.06809997558594 377.2821044921875 107.75233459472656 376.0048522949219 105.83766174316406 C 374.7275695800781 103.92300415039062 373.0068054199219 102.35035705566406 371.2858581542969 100.82205200195312 C 369.56494140625 99.29373168945312 367.8412170410156 97.82888793945312 365.6969299316406 97.15817260742188 L 364.4491271972656 98.11581420898438" stroke-width="0.6000000238418579" fill="rgb(218, 166, 20)" opacity="1.0"/>
    <path d="M 427.51385498046875 138.51419067382812 C 418.865478515625 138.9418487548828 412.20123291015625 146.2994384765625 412.62890625 154.9478302001953 C 412.66552734375 155.68838500976562 412.754638671875 156.4254150390625 412.89556884765625 157.15338134765625 C 413.4315185546875 159.91934204101562 414.8167724609375 162.63497924804688 417.163818359375 164.19113159179688 C 419.1470947265625 165.50637817382812 421.6009521484375 165.87860107421875 423.97705078125 165.9788818359375 C 430.33758544921875 166.23861694335938 436.65167236328125 164.79052734375 442.26336669921875 161.78506469726562 C 443.745361328125 160.9881591796875 445.20965576171875 160.0498046875 446.187255859375 158.67581176757812 C 447.829833984375 156.3701171875 447.7960205078125 153.2080078125 446.88873291015625 150.52427673339844 C 445.54449462890625 146.53897094726562 442.4569091796875 143.26341247558594 438.7501220703125 141.27415466308594 C 435.0433349609375 139.28488159179688 430.7630615234375 138.50949096679688 426.55804443359375 138.62123107910156 L 427.51385498046875 138.51419067382812" stroke-width="0.6000000238418579" fill="rgb(143, 165, 67)" opacity="1.0"/>
    <path d="M 149.97109985351562 405.83428955078125 C 154.66262817382812 415.866943359375 171.42608642578125 416.10888671875 177.08245849609375 406.6697998046875 C 182.73880004882812 397.230712890625 175.38787841796875 383.0797119140625 164.4285888671875 381.45721435546875 C 153.4692840576172 379.8346862792969 142.63584899902344 390.10845947265625 142.86793518066406 401.1950378417969 L 149.97109985351562 405.83428955078125" stroke-width="0.6000000238418579" fill="rgb(233, 92, 21)" opacity="1.0"/>
    <path d="M 430.948486328125 195.35516357421875 C 426.46795654296875 193.43350219726562 420.91650390625 191.60275268554688 417.073486328125 194.62957763671875 C 415.5909423828125 195.89361572265625 414.5372314453125 197.5865478515625 414.0577392578125 199.474853515625 C 412.7454833984375 204.11505126953125 413.763671875 209.10345458984375 416.78948974609375 212.858154296875 C 419.3643798828125 216.03662109375 423.122314453125 217.9256591796875 426.796142578125 219.66680908203125 C 428.8614501953125 220.64154052734375 431.0867919921875 221.61138916015625 433.3343505859375 221.2841796875 C 436.32659912109375 220.82351684570312 438.4771728515625 218.19134521484375 440.017578125 215.58609008789062 C 442.276611328125 211.776123046875 443.90411376953125 207.6256103515625 444.8369140625 203.29559326171875 C 445.1563720703125 201.79885864257812 445.3902587890625 200.21112060546875 444.9110107421875 198.75823974609375 C 444.39617919921875 197.43017578125 443.506103515625 196.28054809570312 442.3492431640625 195.4495849609375 C 438.9381103515625 192.79248046875 434.5330810546875 191.7655029296875 430.298583984375 192.64013671875 L 430.948486328125 195.35516357421875" stroke-width="0.6000000238418579" fill="rgb(70, 150, 179)" opacity="1.0"/>
    <path d="M 412.53662109375 160.511962890625 C 411.46160888671875 155.01620483398438 410.039306640625 148.96969604492188 405.4513854980469 145.7650146484375 C 400.5208435058594 142.32542419433594 393.52288818359375 143.56695556640625 388.52972412109375 146.91477966308594 C 386.60400390625 148.20474243164062 384.81195068359375 149.8533935546875 383.94903564453125 152.00433349609375 C 383.2389831542969 153.7722625732422 383.209716796875 155.7316131591797 383.2952880859375 157.63442993164062 C 383.5578918457031 163.63531494140625 385.06732177734375 170.011962890625 389.5314025878906 174.0289306640625 C 394.0333251953125 178.07427978515625 401.2193298339844 178.80416870117188 406.4294738769531 175.71368408203125 C 411.6396179199219 172.6231689453125 414.504150390625 166.00234985351562 413.140625 160.09591674804688 L 412.53662109375 160.511962890625" stroke-width="0.6000000238418579" fill="rgb(140, 28, 33)" opacity="1.0"/>
    <path d="M 142.19204711914062 134.37216186523438 C 136.69635009765625 136.6503448486328 131.0028839111328 139.0814971923828 126.96134948730469 143.45298767089844 C 122.91989135742188 147.82443237304688 120.99948120117188 154.7771759033203 124.08305358886719 159.86859130859375 C 127.9034423828125 166.1448974609375 137.74818420410156 166.40875244140625 143.48193359375 161.792724609375 C 149.21568298339844 157.17669677734375 151.43898010253906 149.39645385742188 151.74032592773438 142.05084228515625 C 152.06143188476562 139.7863006591797 151.52200317382812 137.48374938964844 150.22842407226562 135.59754943847656 C 148.76646423339844 133.88705444335938 145.49815368652344 133.6592254638672 144.50180053710938 135.68917846679688 L 142.19204711914062 134.37216186523438" stroke-width="0.6000000238418579" fill="rgb(159, 159, 159)" opacity="1.0"/>
    <path d="M 433.539306640625 167.75 C 429.28314208984375 165.06344604492188 424.0137939453125 163.776611328125 419.11279296875 164.91064453125 C 414.2117919921875 166.044677734375 409.8378601074219 169.8193359375 408.6291198730469 174.724365234375 C 407.7789001464844 178.193359375 408.5404968261719 181.93557739257812 410.2445373535156 185.07806396484375 C 411.94854736328125 188.2205810546875 414.5299072265625 190.8134765625 417.367919921875 192.98809814453125 C 418.603515625 193.93374633789062 419.968017578125 194.83621215820312 421.513916015625 194.97305297851562 C 423.2861328125 195.1307373046875 424.96923828125 194.256103515625 426.49609375 193.3321533203125 C 430.8067626953125 190.7236328125 434.88177490234375 187.35516357421875 437.00592041015625 182.78564453125 C 439.13006591796875 178.21612548828125 438.8404541015625 172.25616455078125 435.28759765625 168.70037841796875 L 433.539306640625 167.75" stroke-width="0.6000000238418579" fill="rgb(159, 159, 159)" opacity="1.0"/>
    <path d="M 412.06536865234375 192.6444091796875 C 410.4458923339844 187.57391357421875 408.4261169433594 182.0079345703125 403.7293701171875 179.5255126953125 C 399.1651611328125 177.1048583984375 393.5964660644531 178.3936767578125 388.63043212890625 179.82684326171875 C 386.6139221191406 180.41204833984375 384.513671875 181.056396484375 383.0146179199219 182.52496337890625 C 380.477783203125 185.00732421875 380.39404296875 189.0516357421875 381.0262145996094 192.53887939453125 C 381.6117248535156 195.77587890625 382.6590270996094 198.91204833984375 384.13604736328125 201.85134887695312 C 386.5325622558594 206.62484741210938 390.76507568359375 211.18499755859375 396.1042175292969 211.2379150390625 C 398.986572265625 211.27069091796875 401.7651062011719 209.93948364257812 403.9820251464844 208.09017944335938 C 406.1989440917969 206.24087524414062 407.9299011230469 203.88421630859375 409.6055603027344 201.53329467773438 C 411.2812194824219 199.18240356445312 412.87738037109375 196.83648681640625 413.4267578125 194.0723876953125 L 412.06536865234375 192.6444091796875" stroke-width="0.6000000238418579" fill="rgb(218, 166, 20)" opacity="1.0"/>
    <path d="M 437.201904296875 184.5506591796875 C 438.0335693359375 193.61935424804688 446.05938720703125 200.2967529296875 455.1280517578125 199.46511840820312 C 455.90460205078125 199.3939208984375 456.67510986328125 199.2677001953125 457.433837890625 199.08743286132812 C 460.3165283203125 198.40194702148438 463.10888671875 196.82635498046875 464.64031982421875 194.29135131835938 C 465.9346923828125 192.14920043945312 466.21734619140625 189.55422973632812 466.21771240234375 187.05303955078125 C 466.20947265625 180.3580322265625 464.40869140625 173.78732299804688 461.0025634765625 168.02349853515625 C 460.09967041015625 166.50146484375 459.0489501953125 165.00430297851562 457.56201171875 164.03778076171875 C 455.06658935546875 162.4136962890625 451.745361328125 162.5889892578125 448.9654541015625 163.66098022460938 C 444.837158203125 165.2496337890625 441.53173828125 168.6387939453125 439.6053466796875 172.62176513671875 C 437.678955078125 176.60476684570312 437.0533447265625 181.13665771484375 437.35662841796875 185.55029296875 L 437.201904296875 184.5506591796875" stroke-width="0.6000000238418579" fill="rgb(143, 165, 67)" opacity="1.0"/>
    <path d="M 145.37501525878906 99.795166015625 C 134.12440490722656 106.3758544921875 135.65020751953125 126.04653930664062 147.3220672607422 131.65631103515625 C 158.99392700195312 137.26602172851562 174.78363037109375 127.12440490722656 175.502197265625 114.10641479492188 C 176.22073364257812 101.08840942382812 163.011962890625 89.50190734863281 150.04495239257812 90.970458984375 L 145.37501525878906 99.795166015625" stroke-width="0.6000000238418579" fill="rgb(233, 92, 21)" opacity="1.0"/>
    <path d="M 452.7626953125 144.98358154296875 C 450.20941162109375 150.15301513671875 447.695556640625 156.59283447265625 451.02642822265625 161.32305908203125 C 452.42523193359375 163.15386962890625 454.357666015625 164.50555419921875 456.5572509765625 165.19155883789062 C 461.953857421875 167.03533935546875 467.9093017578125 166.14907836914062 472.53515625 162.81378173828125 C 476.451904296875 159.9744873046875 478.9208984375 155.65631103515625 481.2099609375 151.4281463623047 C 482.491943359375 149.05093383789062 483.77825927734375 146.4844207763672 483.5343017578125 143.80947875976562 C 483.179931640625 140.2466583251953 480.2078857421875 137.54010009765625 477.2288818359375 135.55593872070312 C 472.87274169921875 132.6466522216797 468.074462890625 130.4616241455078 463.02008056640625 129.08560180664062 C 461.2728271484375 128.613525390625 459.41259765625 128.2366485595703 457.66650390625 128.71058654785156 C 456.06549072265625 129.2343292236328 454.6514892578125 130.2126007080078 453.59686279296875 131.52610778808594 C 450.2427978515625 135.38600158691406 448.75079345703125 140.52296447753906 449.51531982421875 145.57907104492188 L 452.7626953125 144.98358154296875" stroke-width="0.6000000238418579" fill="rgb(70, 150, 179)" opacity="1.0"/>
    <path d="M 381.258056640625 80.33412170410156 C 381.6841735839844 73.98904418945312 381.89007568359375 66.93814086914062 377.7917175292969 62.080841064453125 C 373.38604736328125 56.86567687988281 365.3438415527344 56.18339538574219 358.88623046875 58.3983154296875 C 356.3960876464844 59.25123596191406 353.94781494140625 60.536834716796875 352.37237548828125 62.64509582519531 C 351.0766296386719 64.37773132324219 350.4720153808594 66.51934814453125 350.0099182128906 68.63246154785156 C 348.54473876953125 75.29443359375 348.3379821777344 82.73312377929688 352.0631103515625 88.44560241699219 C 355.8214416503906 94.2003173828125 363.49395751953125 97.10092163085938 370.114501953125 95.23178100585938 C 376.7350158691406 93.3626708984375 381.8130187988281 86.93406677246094 382.0424499511719 80.05401611328125 L 381.258056640625 80.33412170410156" stroke-width="0.6000000238418579" fill="rgb(140, 28, 33)" opacity="1.0"/>
    <path d="M 136.28631591796875 413.14288330078125 C 133.76950073242188 419.0589599609375 131.2158203125 425.24273681640625 131.40492248535156 431.67376708984375 C 131.59405517578125 438.104736328125 135.3728790283203 444.922607421875 141.60452270507812 446.51806640625 C 149.30123901367188 448.4703369140625 157.09722900390625 441.22509765625 158.02880859375 433.32501220703125 C 158.96041870117188 425.42486572265625 154.78919982910156 417.73931884765625 149.4638214111328 411.8433532714844 C 147.9981689453125 409.85302734375 145.8397674560547 408.4844970703125 143.41445922851562 408.0078430175781 C 140.9921875 407.7941589355469 138.2979278564453 410.0912780761719 139.06504821777344 412.4114990234375 L 136.28631591796875 413.14288330078125" stroke-width="0.6000000238418579" fill="rgb(159, 159, 159)" opacity="1.0"/>
    <path d="M 422.4847412109375 215.56402587890625 C 417.275634765625 211.55978393554688 410.58111572265625 209.2530517578125 404.0740661621094 210.13742065429688 C 397.5670471191406 211.02175903320312 391.42742919921875 215.4019775390625 389.26605224609375 221.63232421875 C 387.7434997558594 226.0391845703125 388.2831726074219 230.9951171875 390.1200256347656 235.284912109375 C 391.9568786621094 239.57476806640625 395.000244140625 243.25570678710938 398.4275817871094 246.42388916015625 C 399.9198913574219 247.8017578125 401.5849609375 249.13900756835938 403.5779113769531 249.50286865234375 C 405.8625793457031 249.92111206054688 408.1555480957031 248.9866943359375 410.25140380859375 247.96945190429688 C 416.16845703125 245.09747314453125 421.8707275390625 241.20925903320312 425.181640625 235.52520751953125 C 428.49249267578125 229.84112548828125 428.83319091796875 222.0592041015625 424.642822265625 217.00970458984375 L 422.4847412109375 215.56402587890625" stroke-width="0.6000000238418579" fill="rgb(159, 159, 159)" opacity="1.0"/>
    <path d="M 382.8400573730469 112.28216552734375 C 376.67626953125 112.74777221679688 369.8451232910156 113.53236389160156 365.7773132324219 118.17054748535156 C 361.81500244140625 122.67562866210938 361.7730407714844 129.3132781982422 362.05633544921875 135.30892944335938 C 362.1750183105469 137.74441528320312 362.3379821777344 140.2904052734375 363.59381103515625 142.37890625 C 365.71575927734375 145.9124755859375 370.2620849609375 147.094970703125 374.3717346191406 147.31881713867188 C 378.1860656738281 147.528076171875 382.0107116699219 147.18850708007812 385.7285461425781 146.31057739257812 C 391.76580810546875 144.88723754882812 398.0559387207031 141.3323516845703 399.5518493652344 135.31495666503906 C 400.36419677734375 132.0675506591797 399.6077575683594 128.570556640625 398.1148986816406 125.56866455078125 C 396.6220397949219 122.56675720214844 394.4253234863281 119.97737121582031 392.22021484375 117.45199584960938 C 390.01513671875 114.9266357421875 387.7943115234375 112.49244689941406 384.8194580078125 111.12826538085938 L 382.8400573730469 112.28216552734375" stroke-width="0.6000000238418579" fill="rgb(218, 166, 20)" opacity="1.0"/>
    <path d="M 404.6479187011719 82.85116577148438 C 396.3980712890625 76.40023803710938 384.4807434082031 77.85855102539062 378.0298156738281 86.10838317871094 C 377.4774169921875 86.8148193359375 376.9758605957031 87.55953979492188 376.5288391113281 88.33697509765625 C 374.83087158203125 91.29132080078125 373.9495849609375 94.8714599609375 374.8655090332031 98.15187072753906 C 375.6392517089844 100.92413330078125 377.589599609375 103.20602416992188 379.6838684082031 105.1776123046875 C 385.2969665527344 110.44732666015625 392.21868896484375 114.11796569824219 399.7300109863281 115.80827331542969 C 401.71624755859375 116.25172424316406 403.7981262207031 116.55178833007812 405.7794494628906 116.06829833984375 C 409.106201171875 115.25857543945312 411.5769958496094 112.33918762207031 412.8702392578125 109.16630554199219 C 414.79345703125 104.45707702636719 414.5604248046875 99.01791381835938 412.7432861328125 94.2655029296875 C 410.9261169433594 89.51310729980469 407.6239929199219 85.41744995117188 403.6888732910156 82.19290161132812 L 404.6479187011719 82.85116577148438" stroke-width="0.6000000238418579" fill="rgb(143, 165, 67)" opacity="1.0"/>
    <path d="M 123.41105651855469 427.4495849609375 C 116.32220458984375 417.3555908203125 97.89073181152344 420.33782958984375 93.51596069335938 431.7855224609375 C 89.14125061035156 443.2332763671875 99.94448852539062 457.32867431640625 112.27798461914062 456.9849853515625 C 124.6114501953125 456.6412353515625 134.50222778320312 443.275146484375 132.09991455078125 431.161376953125 L 123.41105651855469 427.4495849609375" stroke-width="0.6000000238418579" fill="rgb(233, 92, 21)" opacity="1.0"/>
    <path d="M 448.93310546875 210.12789916992188 C 443.724609375 212.89639282226562 437.7901611328125 216.74359130859375 437.7313232421875 222.66189575195312 C 437.799560546875 225.01806640625 438.5972900390625 227.29498291015625 440.014404296875 229.17855834960938 C 443.39532470703125 233.933349609375 448.87115478515625 236.75445556640625 454.7054443359375 236.747314453125 C 459.65447998046875 236.72854614257812 464.284423828125 234.61672973632812 468.71112060546875 232.47219848632812 C 471.19580078125 231.26348876953125 473.7972412109375 229.900146484375 475.1923828125 227.53271484375 C 477.026123046875 224.36187744140625 476.1741943359375 220.33865356445312 474.8851318359375 216.91131591796875 C 473.0047607421875 211.89300537109375 470.3245849609375 207.21212768554688 466.948486328125 203.05026245117188 C 465.7791748046875 201.614501953125 464.45928955078125 200.19036865234375 462.7259521484375 199.54107666015625 C 461.0833740234375 199.019775390625 459.3245849609375 198.98770141601562 457.6640625 199.44873046875 C 452.57275390625 200.6512451171875 448.2652587890625 204.02670288085938 445.88018798828125 208.68280029296875 L 448.93310546875 210.12789916992188" stroke-width="0.6000000238418579" fill="rgb(70, 150, 179)" opacity="1.0"/>
    <path d="M 427.9219970703125 134.59201049804688 C 429.63531494140625 128.85311889648438 431.29345703125 122.42007446289062 428.541259765625 117.10501098632812 C 425.5814208984375 111.39723205566406 418.337158203125 109.09504699707031 411.94464111328125 109.78396606445312 C 409.4798583984375 110.04852294921875 406.96337890625 110.71920776367188 405.0771789550781 112.32733154296875 C 403.5260925292969 113.64871215820312 402.52459716796875 115.48971557617188 401.6599426269531 117.33425903320312 C 398.92626953125 123.147705078125 397.18658447265625 129.93673706054688 399.41778564453125 135.95948791503906 C 401.6706848144531 142.0279541015625 408.1132507324219 146.29054260253906 414.58331298828125 145.9531707763672 C 421.05340576171875 145.6157989501953 427.056640625 140.76937866210938 428.7008056640625 134.4981689453125 L 427.9219970703125 134.59201049804688" stroke-width="0.6000000238418579" fill="rgb(140, 28, 33)" opacity="1.0"/>
    <path d="M 396.3302307128906 63.43035888671875 C 397.9177551269531 69.60104370117188 399.6376953125 76.00447082519531 403.66400146484375 80.94865417480469 C 407.6902770996094 85.89274597167969 414.77325439453125 88.97677612304688 420.6365966796875 86.47433471679688 C 427.867431640625 83.36915588378906 429.63067626953125 72.97000122070312 425.60009765625 66.19462585449219 C 421.5694580078125 59.41923522949219 413.6546630859375 55.88934326171875 405.9111633300781 54.46290588378906 C 403.558349609375 53.78118896484375 401.0355529785156 54.006195068359375 398.840576171875 55.09361267089844 C 396.8065490722656 56.38604736328125 396.0724792480469 59.81727600097656 398.0747985839844 61.179656982421875 L 396.3302307128906 63.43035888671875" stroke-width="0.6000000238418579" fill="rgb(159, 159, 159)" opacity="1.0"/>
    <path d="M 438.07550048828125 236.777587890625 C 433.48345947265625 241.433349609375 430.38653564453125 247.76385498046875 430.46453857421875 254.29934692382812 C 430.54254150390625 260.8348388671875 434.1185302734375 267.43475341796875 440.00830078125 270.3313903808594 C 444.175048828125 272.3740234375 449.1363525390625 272.4468688964844 453.59814453125 271.156982421875 C 458.06005859375 269.8670654296875 462.0679931640625 267.31097412109375 465.61639404296875 264.31292724609375 C 467.1597900390625 263.00732421875 468.68426513671875 261.5261535644531 469.287353515625 259.60211181640625 C 469.979736328125 257.39654541015625 469.337158203125 255.01739501953125 468.58856201171875 252.82281494140625 C 466.47509765625 246.62713623046875 463.3316650390625 240.51931762695312 458.1219482421875 236.5540771484375 C 452.9122314453125 232.58880615234375 445.267333984375 231.3009033203125 439.767333984375 234.82260131835938 L 438.07550048828125 236.777587890625" stroke-width="0.6000000238418579" fill="rgb(159, 159, 159)" opacity="1.0"/>
    <path d="M 414.3114013671875 260.5373229980469 C 412.0023193359375 254.695556640625 409.1825866699219 248.30224609375 403.45550537109375 245.75189208984375 C 397.889404296875 243.2637939453125 391.434814453125 245.22305297851562 385.7013244628906 247.30450439453125 C 383.3733825683594 248.15350341796875 380.9515686035156 249.07879638671875 379.30303955078125 250.9268798828125 C 376.51300048828125 254.05093383789062 376.7352294921875 258.8194885253906 377.7562255859375 262.8753967285156 C 378.7024230957031 266.6403503417969 380.1843566894531 270.2498779296875 382.1566162109375 273.5935974121094 C 385.3570251464844 279.02398681640625 390.7023620605469 284.0575256347656 396.9930419921875 283.6962890625 C 400.38946533203125 283.5062255859375 403.555419921875 281.7183837890625 406.0190124511719 279.3650817871094 C 408.48260498046875 277.0117492675781 410.333740234375 274.099609375 412.1202392578125 271.1986083984375 C 413.90673828125 268.2976379394531 415.5999755859375 265.40887451171875 416.02764892578125 262.1106872558594 L 414.3114013671875 260.5373229980469" stroke-width="0.6000000238418579" fill="rgb(218, 166, 20)" opacity="1.0"/>
    <path d="M 415.4097900390625 87.654296875 C 411.37530517578125 96.66622924804688 415.41033935546875 107.242431640625 424.4222412109375 111.27688598632812 C 425.1939697265625 111.62236022949219 425.98919677734375 111.91262817382812 426.802001953125 112.14558410644531 C 429.8905029296875 113.03010559082031 433.36669921875 113.02542114257812 436.161376953125 111.44384765625 C 438.523193359375 110.10752868652344 440.169677734375 107.80552673339844 441.49951171875 105.44212341308594 C 445.05035400390625 99.1109619140625 446.84130859375 91.94450378417969 446.6861572265625 84.68719482421875 C 446.6419677734375 82.76895141601562 446.44482421875 80.79562377929688 445.55340576171875 79.09188842773438 C 444.05853271484375 76.23074340820312 440.82684326171875 74.63101196289062 437.6300048828125 74.16641235351562 C 432.8843994140625 73.47335815429688 427.95928955078125 74.91912841796875 424.021728515625 77.6590576171875 C 420.0841064453125 80.39898681640625 417.08404541015625 84.34912109375 415.024658203125 88.68118286132812 L 415.4097900390625 87.654296875" stroke-width="0.6000000238418579" fill="rgb(143, 165, 67)" opacity="1.0"/>
    <path d="M 428.0831298828125 123.48837280273438 C 426.038330078125 135.747802734375 441.3819580078125 146.63504028320312 452.6156005859375 141.50692749023438 C 463.8492431640625 136.37876892089844 466.05517578125 118.62033081054688 456.95562744140625 110.14888000488281 C 447.8560791015625 101.67742919921875 431.3052978515625 104.28396606445312 424.46746826171875 114.68099975585938 L 428.0831298828125 123.48837280273438" stroke-width="0.6000000238418579" fill="rgb(233, 92, 21)" opacity="1.0"/>
    <path d="M 450.00469970703125 92.82220458984375 C 449.24114990234375 98.70870971679688 448.9395751953125 105.8194580078125 453.760986328125 109.31634521484375 C 455.73388671875 110.63330078125 458.06683349609375 111.30561828613281 460.43798828125 111.240478515625 C 466.3092041015625 111.2371826171875 471.8145751953125 108.38838195800781 475.2083740234375 103.59744262695312 C 478.0767822265625 99.52601623535156 479.0419921875 94.49679565429688 479.8619384765625 89.61524963378906 C 480.318115234375 86.87234497070312 480.71539306640625 83.943603515625 479.58599853515625 81.41941833496094 C 478.052978515625 78.06724548339844 474.25567626953125 76.42184448242188 470.6925048828125 75.48237609863281 C 465.4794921875 74.10093688964844 460.07733154296875 73.57237243652344 454.6954345703125 73.91717529296875 C 452.83612060546875 74.03990173339844 450.8985595703125 74.29298400878906 449.3558349609375 75.3367919921875 C 447.970947265625 76.38069152832031 446.9197998046875 77.80499267578125 446.33050537109375 79.43600463867188 C 444.350341796875 84.31393432617188 444.6097412109375 89.81494140625 447.0401611328125 94.48490905761719 L 450.00469970703125 92.82220458984375" stroke-width="0.6000000238418579" fill="rgb(70, 150, 179)" opacity="1.0"/>
    <path d="M 312.26837158203125 368.96954345703125 C 306.95489501953125 366.840087890625 300.97589111328125 364.7028503417969 295.6777648925781 366.8605651855469 C 289.98779296875 369.18182373046875 287.1670227050781 375.8769836425781 287.2672424316406 382.0213317871094 C 287.3049011230469 384.3903503417969 287.7245788574219 386.8438415527344 289.09130859375 388.7789001464844 C 290.2142333984375 390.37005615234375 291.8795166015625 391.4832763671875 293.56005859375 392.466552734375 C 298.8558349609375 395.5736999511719 305.1665954589844 397.81951904296875 311.093017578125 396.21917724609375 C 317.06488037109375 394.6021423339844 321.6819152832031 388.8404235839844 321.92303466796875 382.65277099609375 C 322.1641540527344 376.4651184082031 318.0729064941406 370.3299865722656 312.2467346191406 368.2201232910156 L 312.26837158203125 368.96954345703125" stroke-width="0.6000000238418579" fill="rgb(140, 28, 33)" opacity="1.0"/>
    <path d="M 297.8417053222656 391.2813415527344 C 291.7447509765625 388.447265625 285.3692932128906 385.5654296875 278.6410217285156 385.5419006347656 C 271.912841796875 385.51837158203125 264.6567687988281 389.2335205078125 262.7748107910156 395.6919860839844 C 260.46954345703125 403.66949462890625 267.774169921875 412.067138671875 275.9993896484375 413.31256103515625 C 284.2245788574219 414.5579833984375 292.40106201171875 410.46258544921875 298.7467346191406 405.0992431640625 C 300.87744140625 403.63580322265625 302.3820495605469 401.4268798828125 302.96368408203125 398.9083557128906 C 303.2703552246094 396.3839111328125 300.9620666503906 393.4888610839844 298.5105895996094 394.2108459472656 L 297.8417053222656 391.2813415527344" stroke-width="0.6000000238418579" fill="rgb(159, 159, 159)" opacity="1.0"/>
    <path d="M 322.8020935058594 412.427001953125 C 317.1565856933594 416.36334228515625 312.7367858886719 422.31964111328125 311.56298828125 429.09747314453125 C 310.38922119140625 435.87530517578125 312.8227233886719 443.3912353515625 318.3614501953125 447.51922607421875 C 322.28106689453125 450.4327392578125 327.40093994140625 451.46044921875 332.265625 450.98211669921875 C 337.13031005859375 450.5037841796875 341.7683410644531 448.62811279296875 346.0157165527344 446.2069091796875 C 347.8634338378906 445.152099609375 349.7252502441406 443.91204833984375 350.7185974121094 442.03680419921875 C 351.8584899902344 439.887451171875 351.6501770019531 437.30218505859375 351.29681396484375 434.8875732421875 C 350.29913330078125 428.07061767578125 348.2187194824219 421.14691162109375 343.5888977050781 416.043701171875 C 338.9590759277344 410.9404602050781 331.29534912109375 408.14031982421875 324.92803955078125 410.7287902832031 L 322.8020935058594 412.427001953125" stroke-width="0.6000000238418579" fill="rgb(159, 159, 159)" opacity="1.0"/>
    <path d="M 255.50576782226562 417.638671875 C 248.89306640625 416.58392333984375 241.4970703125 415.69793701171875 236.047119140625 419.566162109375 C 230.74166870117188 423.3204345703125 229.03314208984375 430.3052978515625 227.828369140625 436.695068359375 C 227.3427734375 439.29150390625 226.87615966796875 442.015625 227.67599487304688 444.53155517578125 C 229.02627563476562 448.78759765625 233.5211181640625 451.1737060546875 237.79608154296875 452.4400634765625 C 241.76348876953125 453.61700439453125 245.87939453125 454.2181396484375 250.0177001953125 454.22509765625 C 256.7371826171875 454.23883056640625 264.25762939453125 452.069580078125 267.3429260253906 446.10296630859375 C 269.0133056640625 442.88427734375 269.0929260253906 439.0091552734375 268.2723083496094 435.47119140625 C 267.45172119140625 431.9332275390625 265.7858581542969 428.6534423828125 264.09515380859375 425.4390869140625 C 262.4044189453125 422.2247314453125 260.67425537109375 419.1025390625 257.88116455078125 416.9189453125 L 255.50576782226562 417.638671875" stroke-width="0.6000000238418579" fill="rgb(218, 166, 20)" opacity="1.0"/>
    <path d="M 220.2447509765625 412.680908203125 C 210.83602905273438 405.5576477050781 197.43423461914062 407.410400390625 190.31103515625 416.819091796875 C 189.7010498046875 417.624755859375 189.14901733398438 418.47271728515625 188.6590576171875 419.35650634765625 C 186.79788208007812 422.715087890625 185.867919921875 426.764404296875 186.95758056640625 430.4443359375 C 187.878173828125 433.5543212890625 190.11578369140625 436.091064453125 192.5101318359375 438.275634765625 C 198.92718505859375 444.11431884765625 206.79058837890625 448.12835693359375 215.283447265625 449.90069580078125 C 217.5291748046875 450.3653564453125 219.880126953125 450.6668701171875 222.10400390625 450.0872802734375 C 225.83807373046875 449.11639404296875 228.57061767578125 445.7835693359375 229.97189331054688 442.1859130859375 C 232.0560302734375 436.84613037109375 231.69775390625 430.7218017578125 229.56671142578125 425.399169921875 C 227.4356689453125 420.0765380859375 223.64306640625 415.52001953125 219.152587890625 411.9560852050781 L 220.2447509765625 412.680908203125" stroke-width="0.6000000238418579" fill="rgb(143, 165, 67)" opacity="1.0"/>
    <path d="M 272.2576599121094 359.6752014160156 C 278.19244384765625 371.7148742675781 298.5107727050781 371.5902099609375 305.1293640136719 360.0118713378906 C 311.7479248046875 348.43353271484375 302.4881286621094 331.469970703125 289.16827392578125 329.777099609375 C 275.8484191894531 328.084228515625 262.97760009765625 340.802978515625 263.5351257324219 354.2308654785156 L 272.2576599121094 359.6752014160156" stroke-width="0.6000000238418579" fill="rgb(233, 92, 21)" opacity="1.0"/>
    <path d="M 330.06805419921875 355.952392578125 C 326.7732849121094 361.6514587402344 323.4286804199219 368.80084228515625 326.87060546875 374.4385681152344 C 328.3276672363281 376.62884521484375 330.428466796875 378.3130187988281 332.8832702636719 379.2586975097656 C 338.89404296875 381.7620544433594 345.7453308105469 381.19671630859375 351.26446533203125 377.7419738769531 C 355.9387512207031 374.79937744140625 359.07391357421875 370.06390380859375 361.9973449707031 365.4175109863281 C 363.63531494140625 362.8048095703125 365.2923889160156 359.9767150878906 365.2140808105469 356.9109191894531 C 365.0762023925781 352.8253479003906 361.89202880859375 349.51995849609375 358.6460876464844 347.0370788574219 C 353.90020751953125 343.3974304199219 348.59649658203125 340.5499572753906 342.9407043457031 338.6050720214844 C 340.9852294921875 337.9368591308594 338.8940124511719 337.36865234375 336.8692932128906 337.7783203125 C 335.00616455078125 338.25555419921875 333.3221435546875 339.26458740234375 332.0225830078125 340.6824035644531 C 327.9132385253906 344.8297424316406 325.830078125 350.57098388671875 326.32379150390625 356.3885192871094 L 330.06805419921875 355.952392578125" stroke-width="0.6000000238418579" fill="rgb(70, 150, 179)" opacity="1.0"/>
    <path d="M 297.9398498535156 413.3529052734375 C 290.796875 412.023193359375 282.8236389160156 410.8492431640625 276.7654724121094 414.85186767578125 C 270.26025390625 419.155517578125 268.41351318359375 428.1900634765625 270.0655822753906 435.81292724609375 C 270.7012939453125 438.75225830078125 271.83355712890625 441.7017822265625 274.0157165527344 443.7706298828125 C 275.8089294433594 445.47198486328125 278.1584167480469 446.443603515625 280.4945373535156 447.249755859375 C 287.8585205078125 449.80078125 296.27166748046875 451.0274658203125 303.25042724609375 447.5623779296875 C 310.28155517578125 444.06524658203125 314.59613037109375 435.74603271484375 313.358154296875 427.984375 C 312.1202087402344 420.2227783203125 305.5028381347656 413.6033935546875 297.72662353515625 412.425537109375 L 297.9398498535156 413.3529052734375" stroke-width="0.6000000238418579" fill="rgb(140, 28, 33)" opacity="1.0"/>
    <path d="M 326.236572265625 390.9826965332031 C 319.52655029296875 390.7167663574219 312.5414733886719 390.5140380859375 306.33111572265625 393.08148193359375 C 300.120849609375 395.6488952636719 294.86273193359375 401.86529541015625 295.613525390625 408.5421142578125 C 296.55865478515625 416.7818603515625 306.52264404296875 421.7108154296875 314.5829162597656 419.693603515625 C 322.6431884765625 417.67626953125 328.6032409667969 410.7552185058594 332.3880310058594 403.37005615234375 C 333.7886962890625 401.2013244628906 334.3254699707031 398.58642578125 333.8923645019531 396.04132080078125 C 333.2035827636719 393.59661865234375 329.9620361328125 391.8165588378906 327.9803771972656 393.42535400390625 L 326.236572265625 390.9826965332031" stroke-width="0.6000000238418579" fill="rgb(159, 159, 159)" opacity="1.0"/>
    <path d="M 359.5329284667969 410.12646484375 C 354.40850830078125 414.8642578125 350.79571533203125 421.4609375 350.5576171875 428.43218994140625 C 350.3194885253906 435.4034423828125 353.807373046875 442.6153564453125 359.944091796875 445.99298095703125 C 364.28582763671875 448.37548828125 369.5714111328125 448.697021484375 374.3915710449219 447.5411376953125 C 379.21173095703125 446.3853759765625 383.6102294921875 443.8572998046875 387.5405578613281 440.8355712890625 C 389.2501525878906 439.51953125 390.94818115234375 438.015380859375 391.6856689453125 435.99383544921875 C 392.53228759765625 433.676513671875 391.9641418457031 431.1085205078125 391.2739562988281 428.732177734375 C 389.3254089355469 422.0230712890625 386.2744445800781 415.3570556640625 380.91534423828125 410.87359619140625 C 375.55621337890625 406.3901672363281 367.4692687988281 404.641357421875 361.43267822265625 408.1254577636719 L 359.5329284667969 410.12646484375" stroke-width="0.6000000238418579" fill="rgb(159, 159, 159)" opacity="1.0"/>
    <path d="M 252.22433471679688 366.9141845703125 C 253.1944580078125 359.847900390625 253.96664428710938 351.9513854980469 249.72119140625 346.23724365234375 C 245.600341796875 340.6744384765625 238.12261962890625 339.01678466796875 231.29025268554688 337.88177490234375 C 228.51400756835938 337.4247741699219 225.60235595703125 336.990966796875 222.941650390625 337.9009704589844 C 218.44064331054688 339.4374694824219 216.00372314453125 344.2792663574219 214.75418090820312 348.86102294921875 C 213.59274291992188 353.1131896972656 213.04791259765625 357.5101013183594 213.1363525390625 361.91717529296875 C 213.27731323242188 369.0730895996094 215.76153564453125 377.0313720703125 222.18682861328125 380.17877197265625 C 225.65310668945312 381.88299560546875 229.78155517578125 381.8780517578125 233.5301513671875 380.9222717285156 C 237.27874755859375 379.9664611816406 240.73275756835938 378.1165466308594 244.1165771484375 376.2416687011719 C 247.50039672851562 374.3667907714844 250.78515625 372.4520263671875 253.04580688476562 369.4270935058594 L 252.22433471679688 366.9141845703125" stroke-width="0.6000000238418579" fill="rgb(218, 166, 20)" opacity="1.0"/>
    <path d="M 263.8926086425781 385.17230224609375 C 254.15802001953125 378.1961975097656 240.61129760742188 380.43243408203125 233.63519287109375 390.1670227050781 C 233.037841796875 391.0006103515625 232.5003662109375 391.8755187988281 232.02679443359375 392.78515625 C 230.22802734375 396.241943359375 229.392333984375 400.3746643066406 230.59573364257812 404.0789794921875 C 231.61239624023438 407.20947265625 233.949951171875 409.72344970703125 236.43710327148438 411.8759765625 C 243.1025390625 417.6285400390625 251.18670654296875 421.491455078125 259.8498229980469 423.06353759765625 C 262.1404113769531 423.4752197265625 264.5334777832031 423.718505859375 266.7742004394531 423.0712890625 C 270.5365295410156 421.98699951171875 273.219970703125 418.533203125 274.54583740234375 414.8460693359375 C 276.51806640625 409.37347412109375 275.9916687011719 403.1699523925781 273.6881103515625 397.8268737792969 C 271.3845520019531 392.48382568359375 267.4157409667969 387.962158203125 262.7653503417969 384.466064453125 L 263.8926086425781 385.17230224609375" stroke-width="0.6000000238418579" fill="rgb(143, 165, 67)" opacity="1.0"/>
    <path d="M 199.9171142578125 378.5891418457031 C 185.79739379882812 381.38226318359375 180.2689208984375 402.4568176269531 190.41543579101562 412.534423828125 C 200.56201171875 422.6119384765625 220.706298828125 417.74676513671875 226.16818237304688 404.42529296875 C 231.63006591796875 391.1038513183594 222.04351806640625 374.2344665527344 207.98355102539062 371.07281494140625 L 199.9171142578125 378.5891418457031" stroke-width="0.6000000238418579" fill="rgb(233, 92, 21)" opacity="1.0"/>
    <path d="M 252.63455200195312 374.5189514160156 C 250.26583862304688 380.6030578613281 248.06735229492188 388.1163330078125 252.29287719726562 393.1226806640625 C 254.052001953125 395.0495300292969 256.36566162109375 396.383056640625 258.914794921875 396.9392395019531 C 265.1849060058594 398.485107421875 271.8153381347656 396.8959655761719 276.7034912109375 392.67578125 C 280.8408508300781 389.0852966308594 283.1986999511719 383.9698181152344 285.3624267578125 378.9736633300781 C 286.5733337402344 376.1651611328125 287.7704162597656 373.1427001953125 287.2305603027344 370.1493225097656 C 286.47821044921875 366.16534423828125 282.857666015625 363.40631103515625 279.30084228515625 361.46282958984375 C 274.0989685058594 358.612060546875 268.469970703125 356.6220703125 262.6322021484375 355.57000732421875 C 260.61444091796875 355.21038818359375 258.4787292480469 354.9693298339844 256.555908203125 355.6767883300781 C 254.8017578125 356.426025390625 253.30343627929688 357.66949462890625 252.24374389648438 359.2555847167969 C 248.84213256835938 363.9416809082031 247.66741943359375 369.8841247558594 249.03021240234375 375.5120544433594 L 252.63455200195312 374.5189514160156" stroke-width="0.6000000238418579" fill="rgb(70, 150, 179)" opacity="1.0"/>
    <path d="M 338.9278869628906 361.1758728027344 C 340.5015563964844 354.30889892578125 341.9574890136719 346.63128662109375 338.3218078613281 340.6022033691406 C 334.4123840332031 334.1279296875 325.73345947265625 331.9778137207031 318.28240966796875 333.27374267578125 C 315.4093933105469 333.77215576171875 312.5066223144531 334.7512512207031 310.4151611328125 336.78265380859375 C 308.6952209472656 338.45196533203125 307.65997314453125 340.6893005371094 306.78564453125 342.92034912109375 C 304.0199279785156 349.95263671875 302.495361328125 358.0542907714844 305.573486328125 364.9538269042969 C 308.6805419921875 371.90533447265625 316.5678405761719 376.417724609375 324.13677978515625 375.5285339355469 C 331.70574951171875 374.6393127441406 338.38299560546875 368.492919921875 339.8348693847656 361.00634765625 L 338.9278869628906 361.1758728027344" stroke-width="0.6000000238418579" fill="rgb(140, 28, 33)" opacity="1.0"/>
    <path d="M 356.92864990234375 399.32135009765625 C 350.289794921875 398.6369934082031 343.3741149902344 397.998046875 337.0532531738281 400.15533447265625 C 330.73248291015625 402.3126220703125 325.1274108886719 408.14892578125 325.45355224609375 414.818603515625 C 325.87451171875 423.05072021484375 335.4486389160156 428.56427001953125 343.56988525390625 427.068603515625 C 351.691162109375 425.572998046875 358.03668212890625 419.0816650390625 362.2536926269531 411.9937438964844 C 363.7789001464844 409.9303894042969 364.4752197265625 407.3703918457031 364.2052001953125 404.81878662109375 C 363.67523193359375 402.35076904296875 360.57159423828125 400.3819580078125 358.50518798828125 401.8534851074219 L 356.92864990234375 399.32135009765625" stroke-width="0.6000000238418579" fill="rgb(159, 159, 159)" opacity="1.0"/>
    <path d="M 178.77606201171875 411.09881591796875 C 171.7301025390625 410.318115234375 164.26321411132812 411.9344787597656 158.75424194335938 416.39019775390625 C 153.24525451660156 420.845947265625 150.03073120117188 428.321533203125 151.5215606689453 435.27886962890625 C 152.5818328857422 440.19647216796875 155.85191345214844 444.4671630859375 159.94622802734375 447.3975830078125 C 164.04052734375 450.328125 168.90744018554688 452.02197265625 173.841796875 453.0279541015625 C 175.9893798828125 453.4644775390625 178.27365112304688 453.76690673828125 180.31594848632812 452.98785400390625 C 182.65780639648438 452.0958251953125 184.250732421875 449.9510498046875 185.61541748046875 447.84014892578125 C 189.46826171875 441.880615234375 192.55450439453125 435.103515625 192.4298095703125 428.0072021484375 C 192.30511474609375 420.910888671875 188.26654052734375 413.5404052734375 181.57589721679688 411.2254943847656 L 178.77606201171875 411.09881591796875" stroke-width="0.6000000238418579" fill="rgb(159, 159, 159)" opacity="1.0"/>
    <path d="M 360.7887268066406 370.6424560546875 C 353.930908203125 370.1477355957031 346.2866516113281 369.8949279785156 341.0532531738281 374.3335266113281 C 335.9576416015625 378.6429138183594 334.8270263671875 385.939208984375 334.1591796875 392.582275390625 C 333.8918151855469 395.28131103515625 333.6551818847656 398.10919189453125 334.6957092285156 400.6122741699219 C 336.4530944824219 404.8468017578125 341.2620544433594 406.890625 345.74713134765625 407.808349609375 C 349.90972900390625 408.6617431640625 354.17327880859375 408.91302490234375 358.4073181152344 408.5544738769531 C 365.28240966796875 407.97479248046875 372.7839660644531 405.0911560058594 375.4129943847656 398.71484375 C 376.83734130859375 395.27459716796875 376.5763854980469 391.30340576171875 375.42431640625 387.7566223144531 C 374.272216796875 384.2098693847656 372.2783203125 381.0019836425781 370.26470947265625 377.8631591796875 C 368.2511291503906 374.7243347167969 366.205322265625 371.6832580566406 363.1551208496094 369.6962890625 L 360.7887268066406 370.6424560546875" stroke-width="0.6000000238418579" fill="rgb(218, 166, 20)" opacity="1.0"/>
    <path d="M 376.17889404296875 379.3175964355469 C 369.5818176269531 388.7413024902344 371.8732604980469 401.728759765625 381.2969665527344 408.3258361816406 C 382.1039123535156 408.8907470703125 382.9499206542969 409.3976745605469 383.8286437988281 409.8428955078125 C 387.1678161621094 411.53387451171875 391.1460266113281 412.292724609375 394.6911315917969 411.0976257324219 C 397.6871032714844 410.08795166015625 400.076904296875 407.816162109375 402.1179504394531 405.4045104980469 C 407.5724182128906 398.94158935546875 411.1969299316406 391.1360778808594 412.614990234375 382.7987976074219 C 412.986083984375 380.5943908691406 413.1943359375 378.2933654785156 412.54901123046875 376.1481018066406 C 411.46771240234375 372.5460205078125 408.12200927734375 370.0052490234375 404.56658935546875 368.7709045410156 C 399.2893981933594 366.9346923828125 393.33673095703125 367.50604248046875 388.22930908203125 369.77520751953125 C 383.1219177246094 372.0443115234375 378.8210754394531 375.9041748046875 375.5125427246094 380.40777587890625 L 376.17889404296875 379.3175964355469" stroke-width="0.6000000238418579" fill="rgb(143, 165, 67)" opacity="1.0"/>
    <path d="M 365.40765380859375 363.2079772949219 C 371.19415283203125 375.7283935546875 392.0692138671875 376.1234130859375 399.1661682128906 364.40008544921875 C 406.2630615234375 352.6767272949219 397.187744140625 335.0126647949219 383.54864501953125 332.9307556152344 C 369.9095153808594 330.848876953125 356.3606262207031 343.582763671875 356.587646484375 357.3907775878906 L 365.40765380859375 363.2079772949219" stroke-width="0.6000000238418579" fill="rgb(233, 92, 21)" opacity="1.0"/>
    <path d="M 403.7970886230469 354.04901123046875 C 403.6360778808594 360.6372985839844 404.12701416015625 368.52386474609375 409.8559875488281 371.8264465332031 C 412.18701171875 373.052001953125 414.8409423828125 373.5240478515625 417.45159912109375 373.1773681640625 C 423.93408203125 372.4934387207031 429.6829833984375 368.70989990234375 432.875244140625 363.0265197753906 C 435.57080078125 358.19854736328125 436.0538330078125 352.5334777832031 436.3935546875 347.0483093261719 C 436.5794677734375 343.9667663574219 436.67877197265625 340.68682861328125 435.13916015625 338.0305480957031 C 433.05804443359375 334.5067443847656 428.6744384765625 333.1299133300781 424.6312255859375 332.5054016113281 C 418.7149658203125 331.5840759277344 412.688720703125 331.62640380859375 406.7859802246094 332.6307373046875 C 404.7471923828125 332.981689453125 402.6370544433594 333.48565673828125 401.05450439453125 334.81695556640625 C 399.6463623046875 336.1300964355469 398.6507263183594 337.8246154785156 398.1889953613281 339.69384765625 C 396.5677795410156 345.3094482421875 397.4916076660156 351.3535461425781 400.7162780761719 356.22845458984375 L 403.7970886230469 354.04901123046875" stroke-width="0.6000000238418579" fill="rgb(70, 150, 179)" opacity="1.0"/>
    <path d="M 386.20257568359375 419.8046875 C 383.7677001953125 426.2718505859375 381.3403625488281 433.54248046875 384.07940673828125 439.882080078125 C 387.02581787109375 446.6904296875 395.17822265625 449.92449951171875 402.5914611816406 449.64715576171875 C 405.4497375488281 449.54144287109375 408.4002990722656 448.97247314453125 410.70098876953125 447.273681640625 C 412.59283447265625 445.87786865234375 413.89404296875 443.83966064453125 415.03802490234375 441.786376953125 C 418.6533203125 435.31561279296875 421.20330810546875 427.641845703125 419.1209716796875 420.52972412109375 C 417.017333984375 413.36328125 409.9458312988281 407.93743896484375 402.47161865234375 407.80389404296875 C 394.9974060058594 407.67034912109375 387.6968078613281 412.76434326171875 385.29864501953125 419.849853515625 L 386.20257568359375 419.8046875" stroke-width="0.6000000238418579" fill="rgb(140, 28, 33)" opacity="1.0"/>
    <path d="M 410.2831115722656 381.5087585449219 C 408.6498718261719 388.0050964355469 407.02203369140625 394.7829284667969 408.2571716308594 401.3714904785156 C 409.49237060546875 407.9599609375 414.48486328125 414.3658447265625 421.15692138671875 414.999755859375 C 429.3946533203125 415.7637939453125 436.24639892578125 407.0452880859375 435.927001953125 398.76336669921875 C 435.607666015625 390.4814147949219 430.0709228515625 383.2459411621094 423.63580322265625 378.03912353515625 C 421.8052978515625 376.22772216796875 419.3623046875 375.16839599609375 416.7889404296875 375.0701904296875 C 414.26123046875 375.2421875 411.8598327636719 378.04241943359375 413.0247802734375 380.3063659667969 L 410.2831115722656 381.5087585449219" stroke-width="0.6000000238418579" fill="rgb(159, 159, 159)" opacity="1.0"/>
    <path d="M 435.86346435546875 370.3092346191406 C 437.40673828125 377.435791015625 441.42523193359375 384.1888427734375 447.57232666015625 388.1038513183594 C 453.71942138671875 392.01885986328125 462.06103515625 392.70855712890625 468.3582763671875 388.9790954589844 C 472.80712890625 386.3367004394531 475.90234375 381.7508544921875 477.4210205078125 376.7995910644531 C 478.939697265625 371.8482971191406 478.9996337890625 366.54803466796875 478.36676025390625 361.4070129394531 C 478.09002685546875 359.169921875 477.6378173828125 356.8433532714844 476.2100830078125 355.10650634765625 C 474.57415771484375 353.114501953125 471.961669921875 352.2625732421875 469.4566650390625 351.62213134765625 C 462.384765625 349.8141174316406 454.766357421875 349.0210266113281 447.88671875 351.46368408203125 C 441.0072021484375 353.9063415527344 435.140380859375 360.2554626464844 435.07122802734375 367.5373840332031 L 435.86346435546875 370.3092346191406" stroke-width="0.6000000238418579" fill="rgb(159, 159, 159)" opacity="1.0"/>
    <path d="M 428.29046630859375 409.37017822265625 C 423.1785888671875 414.14556884765625 417.7034912109375 419.675048828125 417.39642333984375 426.6500244140625 C 417.0882568359375 433.4327392578125 421.7510986328125 439.3223876953125 426.2464599609375 444.41485595703125 C 428.07568359375 446.48095703125 430.02227783203125 448.6131591796875 432.6097412109375 449.5677490234375 C 436.98504638671875 451.184814453125 441.8359375 449.0096435546875 445.62249755859375 446.29742431640625 C 449.1380615234375 443.7813720703125 452.27410888671875 440.7735595703125 454.9346923828125 437.36602783203125 C 459.2567138671875 431.834716796875 462.29266357421875 424.2425537109375 459.3526611328125 417.87109375 C 457.77044677734375 414.42901611328125 454.62652587890625 411.8774108886719 451.18310546875 410.2843017578125 C 447.7396240234375 408.691162109375 443.9669189453125 407.96063232421875 440.2320556640625 407.2925109863281 C 436.49725341796875 406.6243896484375 432.8131103515625 406.04791259765625 429.220947265625 406.949951171875 L 428.29046630859375 409.37017822265625" stroke-width="0.6000000238418579" fill="rgb(218, 166, 20)" opacity="1.0"/>
    <path d="M 136.0526123046875 216.73825073242188 C 133.24798583984375 228.81134033203125 140.76156616210938 240.87210083007812 152.83465576171875 243.67672729492188 C 153.86846923828125 243.91690063476562 154.9180145263672 244.08340454101562 155.9754180908203 244.175048828125 C 159.99334716796875 244.5224609375 164.275146484375 243.68115234375 167.33822631835938 241.06082153320312 C 169.92694091796875 238.8466796875 171.40219116210938 235.61471557617188 172.4725341796875 232.3831787109375 C 175.32574462890625 223.729248046875 175.80975341796875 214.46917724609375 173.874267578125 205.56491088867188 C 173.35873413085938 203.21209716796875 172.64154052734375 200.8282470703125 171.13369750976562 198.943359375 C 168.60418701171875 195.77755737304688 164.238037109375 194.58331298828125 160.1876220703125 194.779296875 C 154.17405700683594 195.06610107421875 148.45350646972656 198.03115844726562 144.26068115234375 202.3533935546875 C 140.06785583496094 206.6756591796875 137.32101440429688 212.26358032226562 135.824951171875 218.09600830078125 L 136.0526123046875 216.73825073242188" stroke-width="0.6000000238418579" fill="rgb(143, 165, 67)" opacity="1.0"/>
    <path d="M 171.366943359375 263.1619567871094 C 179.49896240234375 274.8249816894531 200.756591796875 271.4591369628906 205.84402465820312 258.2803955078125 C 210.931396484375 245.10162353515625 198.53338623046875 228.81167602539062 184.315185546875 229.1597900390625 C 170.09698486328125 229.5079345703125 158.643798828125 244.87652587890625 161.36572265625 258.8494873046875 L 171.366943359375 263.1619567871094" stroke-width="0.6000000238418579" fill="rgb(233, 92, 21)" opacity="1.0"/>
    <path d="M 145.44485473632812 314.3651123046875 C 139.90200805664062 318.9562072753906 133.75709533691406 325.0152587890625 135.14407348632812 332.1026611328125 C 135.80580139160156 334.90167236328125 137.31976318359375 337.4263916015625 139.4771728515625 339.3284912109375 C 144.68850708007812 344.1783752441406 151.9272918701172 346.2015380859375 158.89801025390625 344.75634765625 C 164.8079833984375 343.51531982421875 169.8211669921875 339.8514404296875 174.58343505859375 336.1985168457031 C 177.2552490234375 334.14215087890625 180.0284423828125 331.872314453125 181.11282348632812 328.699462890625 C 182.5235595703125 324.45849609375 180.5147705078125 319.860107421875 178.1302490234375 316.08154296875 C 174.64736938476562 310.5472106933594 170.29168701171875 305.6131286621094 165.23211669921875 301.47064208984375 C 163.481201171875 300.0426940917969 161.5531005859375 298.6657409667969 159.32171630859375 298.31658935546875 C 157.2303466796875 298.0980529785156 155.1205291748047 298.4927978515625 153.24960327148438 299.45263671875 C 147.4611053466797 302.1434326171875 143.14437866210938 307.2380676269531 141.44052124023438 313.38983154296875 L 145.44485473632812 314.3651123046875" stroke-width="0.6000000238418579" fill="rgb(70, 150, 179)" opacity="1.0"/>
    <path d="M 124.36395263671875 303.1122131347656 C 124.30117797851562 295.1317138671875 123.89653015136719 286.28857421875 118.31141662597656 280.5949401855469 C 112.30807495117188 274.4822998046875 102.17962646484375 274.3839111328125 94.306396484375 277.7623596191406 C 91.27024841308594 279.06365966796875 88.32713317871094 280.9024658203125 86.55361938476562 283.6888427734375 C 85.09481811523438 285.9788513183594 84.53935241699219 288.7157287597656 84.15957641601562 291.4035949707031 C 82.95176696777344 299.8782958984375 83.39178466796875 309.206787109375 88.59014892578125 316.00567626953125 C 93.83406066894531 322.8543395996094 103.708251953125 325.7635498046875 111.81787109375 322.8025207519531 C 119.927490234375 319.8415222167969 125.67840576171875 311.31951904296875 125.31924438476562 302.68798828125 L 124.36395263671875 303.1122131347656" stroke-width="0.6000000238418579" fill="rgb(140, 28, 33)" opacity="1.0"/>
    <path d="M 142.34536743164062 273.24066162109375 C 136.45413208007812 276.4643859863281 130.3594970703125 279.8838195800781 126.35429382324219 285.2803649902344 C 122.34918212890625 290.6768493652344 121.0377197265625 298.7128601074219 125.11627197265625 304.0526123046875 C 130.16552734375 310.63275146484375 141.2461395263672 309.7341003417969 147.12081909179688 303.85772705078125 C 152.9954833984375 297.98138427734375 154.5464324951172 288.97991943359375 153.99314880371094 280.6994934082031 C 154.0786895751953 278.11907958984375 153.19384765625 275.6004333496094 151.51316833496094 273.64056396484375 C 149.66485595703125 271.8983459472656 145.96923828125 272.039306640625 145.09739685058594 274.43841552734375 L 142.34536743164062 273.24066162109375" stroke-width="0.6000000238418579" fill="rgb(159, 159, 159)" opacity="1.0"/>
    <path d="M 161.549560546875 283.9439392089844 C 160.796630859375 291.2734680175781 162.53854370117188 299.0205993652344 167.2152099609375 304.709228515625 C 171.89190673828125 310.39788818359375 179.68817138671875 313.6767883300781 186.90679931640625 312.0695495605469 C 192.00897216796875 310.9267883300781 196.42047119140625 307.4926452636719 199.43218994140625 303.2130126953125 C 202.4439697265625 298.933349609375 204.16400146484375 293.8609619140625 205.16864013671875 288.72418212890625 C 205.6044921875 286.488525390625 205.89984130859375 284.1119079589844 205.07321166992188 281.9957580566406 C 204.1265869140625 279.5692138671875 201.88433837890625 277.93145751953125 199.6790771484375 276.53057861328125 C 193.45315551757812 272.5757141113281 186.38397216796875 269.4243469238281 179.00958251953125 269.61285400390625 C 171.63519287109375 269.8013610839844 164.0084228515625 274.0599365234375 161.657958984375 281.0329284667969 L 161.549560546875 283.9439392089844" stroke-width="0.6000000238418579" fill="rgb(159, 159, 159)" opacity="1.0"/>
    <path d="M 125.31877136230469 347.9673767089844 C 124.790283203125 340.6323547363281 123.88510131835938 332.5020446777344 118.38381958007812 327.64337158203125 C 113.04046630859375 322.9107666015625 105.14376831054688 322.83343505859375 98.00955200195312 323.14569091796875 C 95.11154174804688 323.2768249511719 92.08189392089844 323.4601745605469 89.59199523925781 324.9456481933594 C 85.37930297851562 327.4555358886719 83.95370483398438 332.85943603515625 83.67041015625 337.7477722167969 C 83.40570068359375 342.2848815917969 83.79386901855469 346.8364562988281 84.822998046875 351.26324462890625 C 86.49139404296875 358.4516906738281 90.69468688964844 365.94976806640625 97.84744262695312 367.75433349609375 C 101.70755004882812 368.7342224121094 105.87106323242188 367.8487243652344 109.44862365722656 366.0850830078125 C 113.02616882324219 364.3214111328125 116.1158447265625 361.7186584472656 119.12940979003906 359.1056823730469 C 122.14297485351562 356.4927062988281 125.04811096191406 353.8606262207031 126.68338012695312 350.3270568847656 L 125.31877136230469 347.9673767089844" stroke-width="0.6000000238418579" fill="rgb(218, 166, 20)" opacity="1.0"/>
    <path d="M 150.8472137451172 342.14349365234375 C 138.87954711914062 344.11602783203125 130.77688598632812 355.41680908203125 132.74942016601562 367.38446044921875 C 132.91831970214844 368.40924072265625 133.15972900390625 369.4207763671875 133.47178649902344 370.4114074707031 C 134.65823364257812 374.1753845214844 137.01846313476562 377.73406982421875 140.5326385498047 379.52593994140625 C 143.50221252441406 381.04046630859375 146.97654724121094 381.16766357421875 150.29925537109375 380.9288330078125 C 159.19244384765625 380.27728271484375 167.74896240234375 377.25640869140625 175.07998657226562 372.1800231933594 C 177.01553344726562 370.8349304199219 178.90390014648438 369.29583740234375 180.04559326171875 367.2279968261719 C 181.96429443359375 363.75762939453125 181.4136962890625 359.36236572265625 179.72360229492188 355.77197265625 C 177.2181396484375 350.4397888183594 172.39959716796875 346.37298583984375 166.924072265625 344.1949462890625 C 161.44854736328125 342.0168762207031 155.36831665039062 341.6194763183594 149.5341033935547 342.4447021484375 L 150.8472137451172 342.14349365234375" stroke-width="0.6000000238418579" fill="rgb(143, 165, 67)" opacity="1.0"/>
    <path d="M 137.91360473632812 376.6086120605469 C 133.86865234375 362.53387451171875 112.0279541015625 358.7398986816406 102.68304443359375 369.8924865722656 C 93.33819580078125 381.0451354980469 100.00146484375 401.0496520996094 113.97625732421875 405.4422912597656 C 127.9510498046875 409.8349304199219 144.2296905517578 398.66644287109375 146.22686767578125 384.140625 L 137.91360473632812 376.6086120605469" stroke-width="0.6000000238418579" fill="rgb(233, 92, 21)" opacity="1.0"/>
    <path d="M 182.22216796875 353.227294921875 C 181.24954223632812 360.05230712890625 180.79559326171875 368.3058166503906 186.34384155273438 372.43719482421875 C 188.61578369140625 373.9953918457031 191.31527709960938 374.8101806640625 194.06991577148438 374.7691345214844 C 200.8883056640625 374.8509826660156 207.32342529296875 371.6228942871094 211.33462524414062 366.1085510253906 C 214.7252197265625 361.4221496582031 215.9195556640625 355.5956726074219 216.9429931640625 349.9385681152344 C 217.51275634765625 346.7597961425781 218.016845703125 343.3643798828125 216.7420654296875 340.41650390625 C 215.0106201171875 336.50115966796875 210.62472534179688 334.534912109375 206.50042724609375 333.39190673828125 C 200.46661376953125 331.7115478515625 194.20062255859375 331.0188903808594 187.9454345703125 331.3408203125 C 185.78436279296875 331.4562072753906 183.530517578125 331.72186279296875 181.72366333007812 332.9115295410156 C 180.1002197265625 334.1036376953125 178.85867309570312 335.7424011230469 178.15048217773438 337.6279296875 C 175.77978515625 343.263916015625 176.000732421875 349.65618896484375 178.75506591796875 355.114990234375 L 182.22216796875 353.227294921875" stroke-width="0.6000000238418579" fill="rgb(70, 150, 179)" opacity="1.0"/>
  </g>
</svg>
