<?xml version="1.0" ?>
<svg xmlns="http://www.w3.org/2000/svg" version="1.1" width="600" height="600">
  <defs/>
  <g>
    <path d="M 352.98040771484375 344.41461181640625 C 357.08203125 347.389892578125 363.8447265625 343.77069091796875 364.01611328125 338.7391052246094 C 364.1874694824219 333.7075500488281 358.1086120605469 329.6735534667969 353.36279296875 331.4535827636719 C 348.61700439453125 333.2336120605469 346.5586853027344 339.7468566894531 349.10919189453125 344.1324768066406 L 352.98040771484375 344.41461181640625" stroke-width="0.6000000238418579" fill="rgb(233, 92, 21)" opacity="1.0"/>
    <path d="M 123.58747863769531 209.35791015625 C 127.6573486328125 208.3187255859375 132.41114807128906 206.65524291992188 133.44776916503906 202.5699462890625 C 133.7970428466797 200.9281005859375 133.62823486328125 199.21832275390625 132.964599609375 197.676513671875 C 131.42526245117188 193.81747436523438 128.11094665527344 190.94390869140625 124.07267761230469 189.96710205078125 C 120.64498901367188 189.14727783203125 117.08590698242188 189.82943725585938 113.66195678710938 190.5684814453125 C 111.7392578125 190.98672485351562 109.70977783203125 191.49234008789062 108.34600830078125 192.89572143554688 C 106.54354858398438 194.78121948242188 106.45602416992188 197.70849609375 106.77128601074219 200.2969970703125 C 107.22793579101562 204.08587646484375 108.29484558105469 207.77581787109375 109.93060302734375 211.2237548828125 C 110.49807739257812 212.41400146484375 111.17176818847656 213.62158203125 112.26190185546875 214.362548828125 C 113.31077575683594 214.9996337890625 114.52236938476562 215.31781005859375 115.74894714355469 215.2781982421875 C 119.47427368164062 215.3028564453125 123.02291870117188 213.69207763671875 125.45677185058594 210.87158203125 L 123.58747863769531 209.35791015625" stroke-width="0.6000000238418579" fill="rgb(70, 150, 179)" opacity="1.0"/>
    <path d="M 454.6221923828125 414.36602783203125 C 456.91455078125 417.46783447265625 459.5855712890625 420.8096923828125 463.38671875 421.44830322265625 C 467.470458984375 422.1318359375 471.4576416015625 419.292236328125 473.57537841796875 415.7342529296875 C 474.3924560546875 414.36285400390625 475.0203857421875 412.8077392578125 474.921875 411.21453857421875 C 474.8414306640625 409.90484619140625 474.2808837890625 408.6771240234375 473.66552734375 407.5185241699219 C 471.7294921875 403.86248779296875 468.90673828125 400.3409423828125 464.942626953125 399.1603698730469 C 460.9466552734375 397.9732971191406 456.26007080078125 399.6419372558594 453.931396484375 403.1038513183594 C 451.6026611328125 406.5657653808594 451.77618408203125 411.53125 454.36932373046875 414.8033447265625 L 454.6221923828125 414.36602783203125" stroke-width="0.6000000238418579" fill="rgb(140, 28, 33)" opacity="1.0"/>
    <path d="M 90.10719299316406 208.00506591796875 C 94.07257080078125 207.102783203125 98.18881225585938 206.12017822265625 101.41537475585938 203.639892578125 C 104.64186096191406 201.15969848632812 106.73638916015625 196.69595336914062 105.24484252929688 192.9102783203125 C 103.39324951171875 188.2413330078125 96.79010009765625 186.9300537109375 92.39515686035156 189.3802490234375 C 88.00021362304688 191.8304443359375 85.6063232421875 196.81686401367188 84.55752563476562 201.73175048828125 C 84.0804443359375 203.22064208984375 84.17880249023438 204.834228515625 84.83326721191406 206.25411987304688 C 85.62141418457031 207.57501220703125 87.79740905761719 208.10479736328125 88.70248413085938 206.85171508789062 L 90.10719299316406 208.00506591796875" stroke-width="0.6000000238418579" fill="rgb(159, 159, 159)" opacity="1.0"/>
    <path d="M 382.9075927734375 303.5920104980469 C 386.8797912597656 302.41790771484375 390.5362548828125 299.8572998046875 392.49542236328125 296.2102966308594 C 394.45458984375 292.56329345703125 394.49432373046875 287.808837890625 392.11663818359375 284.3984375 C 390.43255615234375 281.9893798828125 387.7044677734375 280.4289245605469 384.8357238769531 279.7769470214844 C 381.96697998046875 279.1249694824219 378.9619140625 279.3139953613281 376.076171875 279.88885498046875 C 374.8205261230469 280.1397399902344 373.5215759277344 280.4938049316406 372.5977478027344 281.37567138671875 C 371.53814697265625 282.38623046875 371.1654357910156 283.90203857421875 370.9080505371094 285.3480224609375 C 370.1813659667969 289.4302978515625 370.0526428222656 293.7794494628906 371.7258605957031 297.5738830566406 C 373.3990783691406 301.3683166503906 377.2426452636719 304.4246520996094 381.3706970214844 304.1574401855469 L 382.9075927734375 303.5920104980469" stroke-width="0.6000000238418579" fill="rgb(159, 159, 159)" opacity="1.0"/>
    <path d="M 101.308837890625 427.297119140625 C 103.24481201171875 424.38818359375 105.27072143554688 421.0709228515625 104.61822509765625 417.64508056640625 C 103.98837280273438 414.31256103515625 101.04478454589844 411.985595703125 98.27421569824219 410.0268249511719 C 97.14753723144531 409.2327575683594 95.95620727539062 408.4200134277344 94.58868408203125 408.25341796875 C 92.27598571777344 407.97027587890625 90.16798400878906 409.585205078125 88.63908386230469 411.3388977050781 C 87.2193603515625 412.966064453125 86.0406494140625 414.78863525390625 85.1390380859375 416.7508544921875 C 83.67387390136719 419.9364013671875 83.07075500488281 423.9759521484375 85.2322998046875 426.7352294921875 C 86.39706420898438 428.2265625 88.21861267089844 429.10552978515625 90.07559204101562 429.484130859375 C 91.93258666992188 429.86273193359375 93.85050964355469 429.7841796875 95.74281311035156 429.6796875 C 97.63511657714844 429.5751953125 99.49224853515625 429.431884765625 101.13473510742188 428.58050537109375 L 101.308837890625 427.297119140625" stroke-width="0.6000000238418579" fill="rgb(218, 166, 20)" opacity="1.0"/>
    <path d="M 99.606201171875 146.7150115966797 C 106.87727355957031 147.46023559570312 113.37577819824219 142.1699981689453 114.12100219726562 134.89891052246094 C 114.18482971191406 134.2762908935547 114.20439147949219 133.64993286132812 114.1795654296875 133.02452087402344 C 114.08477783203125 130.64817810058594 113.27499389648438 128.20562744140625 111.51481628417969 126.60801696777344 C 110.0274658203125 125.25778198242188 108.02726745605469 124.63447570800781 106.05734252929688 124.24798583984375 C 100.78294372558594 123.22073364257812 95.32968139648438 123.62445068359375 90.2640380859375 125.417236328125 C 88.92584228515625 125.89337158203125 87.58441162109375 126.48977661132812 86.59356689453125 127.51170349121094 C 84.92910766601562 129.22634887695312 84.55433654785156 131.86924743652344 84.96943664550781 134.2242889404297 C 85.58326721191406 137.72109985351562 87.74224853515625 140.8478240966797 90.58187866210938 142.98011779785156 C 93.42149353027344 145.11241149902344 96.89431762695312 146.3048858642578 100.41738891601562 146.7474822998047 L 99.606201171875 146.7150115966797" stroke-width="0.6000000238418579" fill="rgb(143, 165, 67)" opacity="1.0"/>
    <path d="M 459.614990234375 346.0765380859375 C 462.4940185546875 352.7874450683594 473.53582763671875 353.30230712890625 477.4635009765625 347.20196533203125 C 481.39111328125 341.10162353515625 476.846923828125 331.6203918457031 469.65924072265625 330.31878662109375 C 462.4715576171875 329.0171813964844 455.1146240234375 335.55780029296875 455.032470703125 342.86871337890625 L 459.614990234375 346.0765380859375" stroke-width="0.6000000238418579" fill="rgb(233, 92, 21)" opacity="1.0"/>
    <path d="M 104.40567016601562 221.95819091796875 C 107.28076171875 219.24948120117188 110.4342041015625 215.71566772460938 109.42633056640625 211.88238525390625 C 108.96586608886719 210.37252807617188 108.04823303222656 209.042724609375 106.79997253417969 208.07647705078125 C 103.77581787109375 205.6026611328125 99.74020385742188 204.748046875 95.97288513183594 205.78375244140625 C 92.77938842773438 206.67044067382812 90.16192626953125 208.85275268554688 87.68153381347656 211.020263671875 C 86.2901611328125 212.2401123046875 84.85075378417969 213.58047485351562 84.36793518066406 215.35626220703125 C 83.74378967285156 217.72848510742188 85.00506591796875 220.17669677734375 86.44342041015625 222.16278076171875 C 88.54486083984375 225.072021484375 91.10330200195312 227.62191772460938 94.01956176757812 229.713623046875 C 95.028564453125 230.43438720703125 96.1328125 231.12103271484375 97.36721801757812 231.234130859375 C 98.52032470703125 231.28057861328125 99.66207885742188 230.990478515625 100.65318298339844 230.39923095703125 C 103.7293701171875 228.72274780273438 105.91525268554688 225.78118896484375 106.63304138183594 222.35211181640625 L 104.40567016601562 221.95819091796875" stroke-width="0.6000000238418579" fill="rgb(70, 150, 179)" opacity="1.0"/>
    <path d="M 103.90196228027344 79.95475769042969 C 104.65789794921875 83.60409545898438 105.64903259277344 87.61734008789062 108.72581481933594 89.71609497070312 C 112.03231811523438 91.9686279296875 116.68008422851562 91.09075927734375 119.9781494140625 88.82603454589844 C 121.2501220703125 87.95339965820312 122.43049621582031 86.84303283691406 122.98886108398438 85.4052734375 C 123.44833374023438 84.22354125976562 123.45333862304688 82.91943359375 123.38235473632812 81.65380859375 C 123.16329956054688 77.662353515625 122.11175537109375 73.43002319335938 119.11138916015625 70.78982543945312 C 116.08563232421875 68.13101196289062 111.29820251464844 67.69833374023438 107.85382080078125 69.79342651367188 C 104.40945434570312 71.88851928710938 102.55209350585938 76.31561279296875 103.50309753417969 80.236083984375 L 103.90196228027344 79.95475769042969" stroke-width="0.6000000238418579" fill="rgb(140, 28, 33)" opacity="1.0"/>
    <path d="M 92.23138427734375 409.1067810058594 C 96.22811889648438 407.1837463378906 100.36575317382812 405.138671875 103.1934814453125 401.717529296875 C 106.02116394042969 398.2964172363281 107.16328430175781 393.04150390625 104.65744018554688 389.3789978027344 C 101.55413818359375 384.86492919921875 94.21495056152344 385.07550048828125 90.13766479492188 388.7486572265625 C 86.06036376953125 392.4217834472656 84.72700500488281 398.3052062988281 84.80635070800781 403.7856140136719 C 84.66094970703125 405.4845886230469 85.15768432617188 407.17626953125 86.19857788085938 408.52685546875 C 87.3575439453125 409.73968505859375 89.79983520507812 409.7741394042969 90.45759582519531 408.2218933105469 L 92.23138427734375 409.1067810058594" stroke-width="0.6000000238418579" fill="rgb(159, 159, 159)" opacity="1.0"/>
    <path d="M 477.8546142578125 68.96481323242188 C 479.11431884765625 65.57563781738281 479.24029541015625 61.6810302734375 477.71875 58.403106689453125 C 476.197265625 55.12518310546875 472.897216796875 52.608062744140625 469.270263671875 52.483154296875 C 466.7059326171875 52.39808654785156 464.1876220703125 53.48651123046875 462.230224609375 55.14886474609375 C 460.27276611328125 56.81121826171875 458.8314208984375 59.009124755859375 457.721923828125 61.32568359375 C 457.23974609375 62.334075927734375 456.80694580078125 63.42671203613281 456.939208984375 64.53370666503906 C 457.0902099609375 65.80291748046875 457.953857421875 66.85690307617188 458.82904052734375 67.79377746582031 C 461.2999267578125 70.43875122070312 464.27020263671875 72.80580139160156 467.7965087890625 73.62384033203125 C 471.3228759765625 74.44187927246094 475.4700927734375 73.35752868652344 477.44482421875 70.33432006835938 L 477.8546142578125 68.96481323242188" stroke-width="0.6000000238418579" fill="rgb(159, 159, 159)" opacity="1.0"/>
    <path d="M 88.9893798828125 108.86643981933594 C 93.2509765625 109.8515625 98.03060913085938 110.76193237304688 101.7562255859375 108.4866943359375 C 105.38252258300781 106.27911376953125 106.81039428710938 101.80445861816406 107.88322448730469 97.69486999511719 C 108.31658935546875 96.02476501464844 108.74331665039062 94.27067565917969 108.33541870117188 92.59516906738281 C 107.64715576171875 89.76095581054688 104.82559204101562 88.00363159179688 102.09689331054688 86.98591613769531 C 99.56454467773438 86.04032897949219 96.90953063964844 85.4632568359375 94.213134765625 85.27236938476562 C 89.83506774902344 84.96084594726562 84.83676147460938 86.03578186035156 82.55755615234375 89.784912109375 C 81.32414245605469 91.80714416503906 81.09776306152344 94.3287353515625 81.47317504882812 96.67117309570312 C 81.84860229492188 99.01362609863281 82.78643798828125 101.22584533691406 83.74343872070312 103.39657592773438 C 84.700439453125 105.56732177734375 85.68728637695312 107.67979431152344 87.4090576171875 109.22848510742188 L 88.9893798828125 108.86643981933594" stroke-width="0.6000000238418579" fill="rgb(218, 166, 20)" opacity="1.0"/>
    <path d="M 128.35829162597656 137.6803741455078 C 135.01535034179688 137.1310272216797 139.9666290283203 131.2890625 139.41726684570312 124.63200378417969 C 139.3702392578125 124.06196594238281 139.28280639648438 123.4959716796875 139.15567016601562 122.93829345703125 C 138.67218017578125 120.8193359375 137.5352325439453 118.76077270507812 135.68614196777344 117.62057495117188 C 134.1236114501953 116.65689086914062 132.22219848632812 116.43222045898438 130.3876953125 116.41522216796875 C 125.47711181640625 116.37649536132812 120.64572143554688 117.65333557128906 116.39541625976562 120.11306762695312 C 115.27304077148438 120.76513671875 114.16790771484375 121.52578735351562 113.44906616210938 122.60995483398438 C 112.24119567871094 124.42935180664062 112.3475341796875 126.86648559570312 113.11521911621094 128.91261291503906 C 114.25283813476562 131.95115661621094 116.71652221679688 134.39820861816406 119.62501525878906 135.83778381347656 C 122.53347778320312 137.27737426757812 125.853271484375 137.76651000976562 129.09249877929688 137.5735626220703 L 128.35829162597656 137.6803741455078" stroke-width="0.6000000238418579" fill="rgb(143, 165, 67)" opacity="1.0"/>
    <path d="M 393.6238708496094 309.0301513671875 C 397.0390319824219 317.5152282714844 410.8513488769531 318.47247314453125 415.94232177734375 310.94464111328125 C 421.03326416015625 303.41680908203125 415.611328125 291.41552734375 406.6475524902344 289.5821533203125 C 397.68377685546875 287.7488098144531 388.2860412597656 295.7309265136719 387.97625732421875 304.8835144042969 L 393.6238708496094 309.0301513671875" stroke-width="0.6000000238418579" fill="rgb(233, 92, 21)" opacity="1.0"/>
    <path d="M 124.37953186035156 111.19140625 C 128.3351593017578 110.16285705566406 132.9535675048828 108.52395629882812 133.9447784423828 104.54446411132812 C 134.27760314941406 102.9454345703125 134.10604858398438 101.28253173828125 133.4537353515625 99.78514099121094 C 131.93943786621094 96.03680419921875 128.70228576660156 93.25494384765625 124.76881408691406 92.32174682617188 C 121.43011474609375 91.53866577148438 117.969970703125 92.21763610839844 114.64155578613281 92.95133972167969 C 112.77252197265625 93.36651611328125 110.79998779296875 93.86715698242188 109.47900390625 95.23851013183594 C 107.73323059082031 97.08084106445312 107.66056823730469 99.92947387695312 107.97837829589844 102.44679260253906 C 108.43890380859375 106.1314697265625 109.49276733398438 109.71731567382812 111.09913635253906 113.06524658203125 C 111.6563720703125 114.220947265625 112.31704711914062 115.39303588867188 113.38093566894531 116.109375 C 114.40422058105469 116.72479248046875 115.58448791503906 117.02920532226562 116.77780151367188 116.98544311523438 C 120.4027099609375 116.9935302734375 123.84870910644531 115.41102600097656 126.20486450195312 112.65626525878906 L 124.37953186035156 111.19140625" stroke-width="0.6000000238418579" fill="rgb(70, 150, 179)" opacity="1.0"/>
    <path d="M 421.9765625 64.80206298828125 C 423.55511474609375 67.7044677734375 425.4266357421875 70.85528564453125 428.5762939453125 71.84603881835938 C 431.9603271484375 72.90829467773438 435.6785888671875 70.96994018554688 437.8955078125 68.20138549804688 C 438.750732421875 67.13430786132812 439.4671630859375 65.88905334472656 439.57177734375 64.52571105957031 C 439.658203125 63.404998779296875 439.3275146484375 62.29716491699219 438.94232177734375 61.241485595703125 C 437.73150634765625 57.910919189453125 435.75244140625 54.58973693847656 432.5286865234375 53.11993408203125 C 429.27850341796875 51.640838623046875 425.10516357421875 52.5030517578125 422.7205810546875 55.16523742675781 C 420.3359375 57.82740783691406 419.896728515625 62.060821533203125 421.71038818359375 65.14320373535156 L 421.9765625 64.80206298828125" stroke-width="0.6000000238418579" fill="rgb(140, 28, 33)" opacity="1.0"/>
    <path d="M 117.21798706054688 424.3076171875 C 119.3409423828125 420.937744140625 121.51284790039062 417.4078369140625 122.03172302246094 413.45611572265625 C 122.55056762695312 409.5044250488281 120.91221618652344 404.9619140625 117.25849914550781 403.3713073730469 C 112.74398803710938 401.41790771484375 107.26126098632812 405.0797424316406 105.91203308105469 409.8193664550781 C 104.56280517578125 414.55902099609375 106.35552978515625 419.6708984375 109.03068542480469 423.80218505859375 C 109.73068237304688 425.1640625 110.91567993164062 426.2139892578125 112.35191345214844 426.7447509765625 C 113.81224060058594 427.11444091796875 115.6866455078125 425.97540283203125 115.4464111328125 424.480712890625 L 117.21798706054688 424.3076171875" stroke-width="0.6000000238418579" fill="rgb(159, 159, 159)" opacity="1.0"/>
    <path d="M 470.5838623046875 445.71710205078125 C 471.331787109375 442.4261474609375 470.968505859375 438.80712890625 469.15679931640625 435.9617919921875 C 467.34515380859375 433.116455078125 463.981689453125 431.19415283203125 460.6104736328125 431.5255126953125 C 458.22735595703125 431.7628173828125 456.031494140625 433.08013916015625 454.42529296875 434.859375 C 452.8189697265625 436.638671875 451.7562255859375 438.849853515625 451.0152587890625 441.1298828125 C 450.693359375 442.122314453125 450.427490234375 443.1866455078125 450.686279296875 444.194580078125 C 450.982421875 445.3502197265625 451.911376953125 446.218994140625 452.8365478515625 446.97802734375 C 455.4486083984375 449.1207275390625 458.48846435546875 450.94482421875 461.8519287109375 451.26715087890625 C 465.2154541015625 451.5894775390625 468.9189453125 450.0751953125 470.37353515625 447.03466796875 L 470.5838623046875 445.71710205078125" stroke-width="0.6000000238418579" fill="rgb(159, 159, 159)" opacity="1.0"/>
    <path d="M 452.598876953125 291.983154296875 C 453.4996337890625 287.499755859375 454.3067626953125 282.47723388671875 451.8165283203125 278.65240478515625 C 449.39990234375 274.9293212890625 444.68048095703125 273.5722351074219 440.353271484375 272.57513427734375 C 438.5948486328125 272.17266845703125 436.748779296875 271.7796630859375 435.0101318359375 272.2565612792969 C 432.0689697265625 273.0614318847656 430.317626953125 276.0632019042969 429.33642578125 278.94561767578125 C 428.4246826171875 281.6206359863281 427.90179443359375 284.4127197265625 427.78369140625 287.23638916015625 C 427.59033203125 291.8211975097656 428.8646240234375 297.0122985839844 432.8515625 299.281005859375 C 435.002197265625 300.5089416503906 437.644287109375 300.6694030761719 440.0809326171875 300.2063293457031 C 442.517578125 299.7432556152344 444.80120849609375 298.69635009765625 447.0408935546875 297.63067626953125 C 449.280517578125 296.56500244140625 451.45843505859375 295.4698791503906 453.02490234375 293.6237487792969 L 452.598876953125 291.983154296875" stroke-width="0.6000000238418579" fill="rgb(218, 166, 20)" opacity="1.0"/>
    <path d="M 426.66473388671875 365.8833923339844 C 424.6837158203125 370.1963195800781 426.57415771484375 375.298583984375 430.8870849609375 377.2795715332031 C 431.25640869140625 377.44921875 431.6373291015625 377.5924072265625 432.02685546875 377.7081604003906 C 433.50732421875 378.14764404296875 435.17822265625 378.1614990234375 436.52880859375 377.4142761230469 C 437.67022705078125 376.7829284667969 438.4722900390625 375.68408203125 439.1224365234375 374.55426025390625 C 440.85858154296875 371.5276184082031 441.75262451171875 368.09130859375 441.7117919921875 364.6023254394531 C 441.69940185546875 363.6800842285156 441.61376953125 362.7306823730469 441.1932373046875 361.9076232910156 C 440.48797607421875 360.5254821777344 438.94207763671875 359.7415466308594 437.4075927734375 359.50341796875 C 435.12982177734375 359.1482849121094 432.755859375 359.8203430175781 430.8504638671875 361.1190490722656 C 428.9451904296875 362.4177551269531 427.48486328125 364.302490234375 426.474853515625 366.37518310546875 L 426.66473388671875 365.8833923339844" stroke-width="0.6000000238418579" fill="rgb(143, 165, 67)" opacity="1.0"/>
    <path d="M 452.06964111328125 347.8505859375 C 457.6343994140625 343.9628601074219 456.01800537109375 333.8150939941406 449.7236328125 331.39202880859375 C 443.4293212890625 328.9689636230469 435.6573486328125 334.8955078125 435.82989501953125 341.6836853027344 C 436.00244140625 348.47186279296875 443.3450927734375 353.9332580566406 450.01513671875 352.6274719238281 L 452.06964111328125 347.8505859375" stroke-width="0.6000000238418579" fill="rgb(233, 92, 21)" opacity="1.0"/>
    <path d="M 451.80145263671875 71.42974853515625 C 455.076171875 70.34184265136719 458.875 68.70266723632812 459.48724365234375 65.2947998046875 C 459.6781005859375 63.92912292480469 459.4405517578125 62.537872314453125 458.80712890625 61.31297302246094 C 457.3216552734375 58.240081787109375 454.43890380859375 56.07783508300781 451.07305908203125 55.51188659667969 C 448.2166748046875 55.03912353515625 445.33978271484375 55.804779052734375 442.57696533203125 56.60919189453125 C 441.02569580078125 57.063568115234375 439.39202880859375 57.59574890136719 438.35595703125 58.82493591308594 C 436.98846435546875 60.47467041015625 437.08673095703125 62.87847900390625 437.495361328125 64.98129272460938 C 438.089599609375 68.05953979492188 439.1781005859375 71.02131652832031 440.71875 73.75173950195312 C 441.2529296875 74.69412231445312 441.87506103515625 75.64453125 442.8114013671875 76.18840026855469 C 443.7078857421875 76.64956665039062 444.71917724609375 76.83993530273438 445.72198486328125 76.73626708984375 C 448.776123046875 76.54014587402344 451.5904541015625 75.01412963867188 453.421142578125 72.56158447265625 L 451.80145263671875 71.42974853515625" stroke-width="0.6000000238418579" fill="rgb(70, 150, 179)" opacity="1.0"/>
    <path d="M 453.7257080078125 399.4424743652344 C 453.846435546875 395.699951171875 453.82318115234375 391.54656982421875 451.31195068359375 388.7722473144531 C 448.612548828125 385.7936096191406 443.8660888671875 385.5569152832031 440.1114501953125 386.99261474609375 C 438.66357421875 387.5455322265625 437.24920654296875 388.3522033691406 436.3653564453125 389.6251220703125 C 435.6383056640625 390.6712341308594 435.326416015625 391.9438781738281 435.0977783203125 393.1968078613281 C 434.37213134765625 397.1471252441406 434.40283203125 401.5286865234375 436.71197509765625 404.81390380859375 C 439.04150390625 408.123291015625 443.61590576171875 409.6729736328125 447.4735107421875 408.43743896484375 C 451.3310546875 407.2018737792969 454.1875 403.31488037109375 454.18157958984375 399.2615661621094 L 453.7257080078125 399.4424743652344" stroke-width="0.6000000238418579" fill="rgb(140, 28, 33)" opacity="1.0"/>
    <path d="M 124.80116271972656 211.62789916992188 C 119.673095703125 214.51812744140625 114.36891174316406 217.58212280273438 110.91778564453125 222.35604858398438 C 107.46672058105469 227.12991333007812 106.40556335449219 234.1876220703125 110.03897094726562 238.82296752929688 C 114.53680419921875 244.5347900390625 124.23873901367188 243.6253662109375 129.32315063476562 238.41033935546875 C 134.40753173828125 233.19534301757812 135.66798400878906 225.288818359375 135.09205627441406 218.037353515625 C 135.138671875 215.77474975585938 134.33544921875 213.57696533203125 132.8408660888672 211.877685546875 C 131.20172119140625 210.3709716796875 127.96417236328125 210.53512573242188 127.22640991210938 212.6474609375 L 124.80116271972656 211.62789916992188" stroke-width="0.6000000238418579" fill="rgb(159, 159, 159)" opacity="1.0"/>
    <path d="M 108.92564392089844 237.4776611328125 C 103.64456176757812 235.51641845703125 97.57647705078125 235.32177734375 92.46990966796875 237.69378662109375 C 87.36335754394531 240.0657958984375 83.44293212890625 245.20855712890625 83.2498779296875 250.859619140625 C 83.11843872070312 254.85516357421875 84.81535339355469 258.7783508300781 87.40623474121094 261.827392578125 C 89.99713134765625 264.8764953613281 93.4222412109375 267.12127685546875 97.03204345703125 268.8488464355469 C 98.60337829589844 269.5997009277344 100.30596923828125 270.2735900878906 102.03068542480469 270.0670471191406 C 104.00814819335938 269.8311767578125 105.64993286132812 268.48516845703125 107.10926818847656 267.1211853027344 C 111.229248046875 263.2702941894531 114.91598510742188 258.641357421875 116.18902587890625 253.146728515625 C 117.46206665039062 247.652099609375 115.77078247070312 241.1910400390625 111.05960083007812 238.11553955078125 L 108.92564392089844 237.4776611328125" stroke-width="0.6000000238418579" fill="rgb(159, 159, 159)" opacity="1.0"/>
    <path d="M 296.8777160644531 97.49354553222656 C 294.87445068359375 102.22203063964844 292.8525695800781 107.56475830078125 294.72833251953125 112.33447265625 C 296.5459899902344 116.97560119628906 301.4311218261719 119.53408813476562 305.96600341796875 121.60795593261719 C 307.80950927734375 122.44772338867188 309.75146484375 123.29685974121094 311.7717590332031 123.16485595703125 C 315.1888732910156 122.94358825683594 317.79315185546875 120.03695678710938 319.5233154296875 117.08775329589844 C 321.1302795410156 114.35099792480469 322.3359069824219 111.39768981933594 323.1033630371094 108.31822204589844 C 324.3512878417969 103.31846618652344 324.12164306640625 97.32034301757812 320.2481384277344 93.92446899414062 C 318.15966796875 92.08810424804688 315.28955078125 91.31504821777344 312.5045471191406 91.27424621582031 C 309.7195739746094 91.23345947265625 306.9711608886719 91.86947631835938 304.2668151855469 92.53604125976562 C 301.5625 93.20260620117188 298.91949462890625 93.91552734375 296.7794494628906 95.59262084960938 L 296.8777160644531 97.49354553222656" stroke-width="0.6000000238418579" fill="rgb(218, 166, 20)" opacity="1.0"/>
    <path d="M 227.85137939453125 121.09030151367188 C 220.65948486328125 114.81524658203125 209.74237060546875 115.55850219726562 203.46731567382812 122.75038146972656 C 202.92999267578125 123.3662109375 202.43701171875 124.0194091796875 201.99212646484375 124.70501708984375 C 200.30206298828125 127.31050109863281 199.32461547851562 130.52549743652344 199.9974365234375 133.55580139160156 C 200.56576538085938 136.11668395996094 202.22891235351562 138.2889404296875 204.03826904296875 140.18585205078125 C 208.88836669921875 145.2567138671875 215.0078125 148.93643188476562 221.7608642578125 150.8427734375 C 223.5467529296875 151.34365844726562 225.42669677734375 151.71875 227.25357055664062 151.37582397460938 C 230.32083129882812 150.8019256591797 232.71249389648438 148.26612854003906 234.04489135742188 145.4419403076172 C 236.02593994140625 141.2504119873047 236.08038330078125 136.28895568847656 234.65948486328125 131.87486267089844 C 233.23858642578125 127.46078491210938 230.43408203125 123.57164001464844 227.01080322265625 120.44424438476562 L 227.85137939453125 121.09030151367188" stroke-width="0.6000000238418579" fill="rgb(143, 165, 67)" opacity="1.0"/>
    <path d="M 217.34820556640625 90.73002624511719 C 217.29876708984375 102.36126708984375 233.105712890625 110.1160888671875 242.71319580078125 103.693603515625 C 252.3206787109375 97.27105712890625 251.6939697265625 80.5360107421875 242.017333984375 74.07589721679688 C 232.3406982421875 67.61579895019531 217.44329833984375 72.50677490234375 212.68685913085938 83.13681030273438 L 217.34820556640625 90.73002624511719" stroke-width="0.6000000238418579" fill="rgb(233, 92, 21)" opacity="1.0"/>
    <path d="M 199.7479248046875 97.36563110351562 C 197.95919799804688 92.14848327636719 195.28143310546875 86.10198974609375 189.82550048828125 85.17550659179688 C 187.639892578125 84.89129638671875 185.41995239257812 85.29228210449219 183.471923828125 86.32321166992188 C 178.58340454101562 88.74429321289062 175.17156982421875 93.38461303710938 174.31842041015625 98.772705078125 C 173.6064453125 103.34515380859375 174.87405395507812 107.93136596679688 176.20184326171875 112.33477783203125 C 176.95175170898438 114.80712890625 177.82720947265625 117.41000366210938 179.80755615234375 119.04708862304688 C 182.465087890625 121.20755004882812 186.30548095703125 121.01382446289062 189.66006469726562 120.32861328125 C 194.57077026367188 119.33193969726562 199.28778076171875 117.5469970703125 203.62814331054688 115.04302978515625 C 205.12615966796875 114.17495727539062 206.6356201171875 113.16610717773438 207.4906005859375 111.66130065917969 C 208.21395874023438 110.22146606445312 208.50277709960938 108.60223388671875 208.32177734375 107.0010986328125 C 207.96173095703125 102.12283325195312 205.47982788085938 97.64810180664062 201.5321044921875 94.75971984863281 L 199.7479248046875 97.36563110351562" stroke-width="0.6000000238418579" fill="rgb(70, 150, 179)" opacity="1.0"/>
    <path d="M 261.9002990722656 131.05337524414062 C 257.9186096191406 134.3811798095703 253.64492797851562 138.23695373535156 253.09259033203125 143.39337158203125 C 252.50259399414062 148.93287658691406 256.63665771484375 154.05978393554688 261.585205078125 156.61810302734375 C 263.49273681640625 157.60528564453125 265.63177490234375 158.32376098632812 267.7635498046875 158.0634765625 C 269.5160827636719 157.8502197265625 271.1199035644531 156.99868774414062 272.6265563964844 156.0792236328125 C 277.3812255859375 153.1853485107422 281.884033203125 149.11134338378906 283.1511535644531 143.69261169433594 C 284.4244384765625 138.23046875 281.8069152832031 132.0702667236328 276.9703674316406 129.22080993652344 C 272.1338195800781 126.37136840820312 265.4788818359375 127.00332641601562 261.2926940917969 130.74887084960938 L 261.9002990722656 131.05337524414062" stroke-width="0.6000000238418579" fill="rgb(140, 28, 33)" opacity="1.0"/>
    <path d="M 301.913818359375 122.47067260742188 C 296.59344482421875 124.61408996582031 291.0809631347656 126.903076171875 287.14239501953125 131.07867431640625 C 283.2038879394531 135.2542266845703 281.2853698730469 141.9388427734375 284.20916748046875 146.877197265625 C 287.8319091796875 152.9650115966797 297.3206481933594 153.31430053710938 302.89306640625 148.91925048828125 C 308.4654541015625 144.52420043945312 310.6839599609375 137.0447235107422 311.0452880859375 129.96572875976562 C 311.3766784667969 127.78558349609375 310.8788146972656 125.56050109863281 309.6498718261719 123.72955322265625 C 308.25689697265625 122.06637573242188 305.1081237792969 121.81521606445312 304.1279602050781 123.76268005371094 L 301.913818359375 122.47067260742188" stroke-width="0.6000000238418579" fill="rgb(159, 159, 159)" opacity="1.0"/>
    <path d="M 195.4351806640625 133.57736206054688 C 192.007080078125 128.96340942382812 186.92349243164062 125.42349243164062 181.2357177734375 124.61405944824219 C 175.54794311523438 123.80464172363281 169.33468627929688 126.02523803710938 166.02792358398438 130.7528839111328 C 163.6942138671875 134.0983428955078 162.965087890625 138.39834594726562 163.48675537109375 142.4474334716797 C 164.0084228515625 146.4965362548828 165.69091796875 150.32127380371094 167.81903076171875 153.80613708496094 C 168.74603271484375 155.32212829589844 169.828125 156.84521484375 171.4185791015625 157.6273193359375 C 173.2415771484375 158.52484130859375 175.39456176757812 158.28591918945312 177.40142822265625 157.93017578125 C 183.0672607421875 156.92584228515625 188.79495239257812 155.01492309570312 192.93875122070312 151.0215301513672 C 197.08258056640625 147.02810668945312 199.22744750976562 140.55987548828125 196.9063720703125 135.30943298339844 L 195.4351806640625 133.57736206054688" stroke-width="0.6000000238418579" fill="rgb(159, 159, 159)" opacity="1.0"/>
    <path d="M 277.4664306640625 97.13946533203125 C 272.3874816894531 98.45892333984375 266.79913330078125 100.14556884765625 264.10101318359375 104.63436889648438 C 261.470947265625 108.99607849121094 262.4378967285156 114.54754638671875 263.57965087890625 119.51356506347656 C 264.0464172363281 121.5302734375 264.56689453125 123.63259887695312 265.9313049316406 125.18777465820312 C 268.2374267578125 127.81941223144531 272.21392822265625 128.1209716796875 275.6809387207031 127.68760681152344 C 278.8990478515625 127.28662109375 282.04290771484375 126.42559814453125 285.01629638671875 125.13093566894531 C 289.844970703125 123.030517578125 294.5631408691406 119.1112060546875 294.90447998046875 113.85842895507812 C 295.0928955078125 111.02291870117188 293.9330749511719 108.2156982421875 292.2327880859375 105.93324279785156 C 290.5325012207031 103.65080261230469 288.30645751953125 101.81922912597656 286.0830993652344 100.04238891601562 C 283.8597412109375 98.26556396484375 281.6369934082031 96.56727600097656 278.94586181640625 95.876708984375 L 277.4664306640625 97.13946533203125" stroke-width="0.6000000238418579" fill="rgb(218, 166, 20)" opacity="1.0"/>
    <path d="M 231.92041015625 118.36958312988281 C 230.19287109375 127.7581787109375 236.40335083007812 136.7696075439453 245.79193115234375 138.49716186523438 C 246.59588623046875 138.6450958251953 247.4093017578125 138.73580932617188 248.22610473632812 138.7686309814453 C 251.32977294921875 138.89276123046875 254.59405517578125 138.09288024902344 256.8573303222656 135.96771240234375 C 258.7701110839844 134.1719970703125 259.7899169921875 131.63284301757812 260.498291015625 129.10845947265625 C 262.3850402832031 122.34872436523438 262.42742919921875 115.20706176757812 260.62103271484375 108.42538452148438 C 260.14056396484375 106.63357543945312 259.5038146972656 104.82505798339844 258.2765808105469 103.42861938476562 C 256.2176513671875 101.08309936523438 252.81588745117188 100.31988525390625 249.70660400390625 100.61500549316406 C 245.09017944335938 101.0499267578125 240.79461669921875 103.53501892089844 237.72283935546875 107.00984191894531 C 234.65103149414062 110.48464965820312 232.73681640625 114.8817138671875 231.79364013671875 119.42230224609375 L 231.92041015625 118.36958312988281" stroke-width="0.6000000238418579" fill="rgb(143, 165, 67)" opacity="1.0"/>
    <path d="M 254.33087158203125 85.34494018554688 C 254.6600341796875 95.74374389648438 269.0388488769531 102.16845703125 277.4208679199219 96.11900329589844 C 285.8028869628906 90.06951904296875 284.70556640625 75.13008117675781 275.84820556640625 69.66595458984375 C 266.9908752441406 64.20181274414062 253.83099365234375 69.05203247070312 249.92037963867188 78.70693969726562 L 254.33087158203125 85.34494018554688" stroke-width="0.6000000238418579" fill="rgb(233, 92, 21)" opacity="1.0"/>
    <path d="M 338.23956298828125 74.87664794921875 C 335.1753845214844 70.64231872558594 331.07598876953125 65.90211486816406 325.87432861328125 66.5711669921875 C 323.81463623046875 66.91799926757812 321.9132995605469 67.8953857421875 320.4326477050781 69.36859130859375 C 316.67108154296875 72.91506958007812 314.8617858886719 78.06478881835938 315.57855224609375 83.18467712402344 C 316.19769287109375 87.52619934082031 318.61505126953125 91.33273315429688 321.036376953125 94.95692443847656 C 322.39984130859375 96.99055480957031 323.9132385253906 99.1077880859375 326.1610412597656 100.04403686523438 C 329.1673889160156 101.26739501953125 332.5948791503906 100.02972412109375 335.4460754394531 98.48091125488281 C 339.6217041015625 96.21942138671875 343.4037170410156 93.29696655273438 346.6454772949219 89.82693481445312 C 347.76324462890625 88.62582397460938 348.85247802734375 87.29391479492188 349.2113037109375 85.69346618652344 C 349.46881103515625 84.18829345703125 349.28277587890625 82.64070129394531 348.6759338378906 81.23941040039062 C 347.0004577636719 76.91717529296875 343.5132751464844 73.54750061035156 339.13616943359375 72.0211181640625 L 338.23956298828125 74.87664794921875" stroke-width="0.6000000238418579" fill="rgb(70, 150, 179)" opacity="1.0"/>
    <path d="M 333.7349853515625 138.53445434570312 C 333.0130310058594 133.73477172851562 332.01129150390625 128.4450225830078 328.160400390625 125.49568176269531 C 324.02178955078125 122.32992553710938 317.9150085449219 123.13897705078125 313.46417236328125 125.84806823730469 C 311.7476501464844 126.89186096191406 310.13323974609375 128.25132751464844 309.3042907714844 130.08102416992188 C 308.62225341796875 131.58489990234375 308.5224304199219 133.2803955078125 308.5242004394531 134.93130493164062 C 308.52349853515625 140.13746643066406 309.588134765625 145.7164306640625 313.3009338378906 149.36439514160156 C 317.0453796386719 153.03842163085938 323.2400207519531 153.94357299804688 327.8689880371094 151.4655303955078 C 332.4979553222656 148.98748779296875 335.2300109863281 143.36338806152344 334.2738037109375 138.1971435546875 L 333.7349853515625 138.53445434570312" stroke-width="0.6000000238418579" fill="rgb(140, 28, 33)" opacity="1.0"/>
    <path d="M 346.3980407714844 103.6513671875 C 341.0150451660156 102.8262939453125 335.4046630859375 102.02711486816406 330.1664123535156 103.53076171875 C 324.9282531738281 105.03439331054688 320.1252136230469 109.56520080566406 320.1224670410156 115.01397705078125 C 320.1340637207031 121.73994445800781 327.71478271484375 126.61886596679688 334.3936767578125 125.72694396972656 C 341.07257080078125 124.83502197265625 346.50543212890625 119.80026245117188 350.22760009765625 114.19351196289062 C 351.5537109375 112.57334899902344 352.2242736816406 110.5150146484375 352.10693359375 108.42465209960938 C 351.7743835449219 106.39190673828125 349.3242492675781 104.66241455078125 347.5809326171875 105.77847290039062 L 346.3980407714844 103.6513671875" stroke-width="0.6000000238418579" fill="rgb(159, 159, 159)" opacity="1.0"/>
    <path d="M 345.91754150390625 120.07728576660156 C 341.27001953125 121.92788696289062 337.15533447265625 125.4111328125 335.20184326171875 130.01351928710938 C 333.24835205078125 134.6158905029297 333.7255554199219 140.33822631835938 336.96160888671875 144.17718505859375 C 339.2529602050781 146.8884735107422 342.7061767578125 148.46392822265625 346.2282409667969 148.93125915527344 C 349.7503356933594 149.3986053466797 353.343505859375 148.83944702148438 356.75054931640625 147.82949829101562 C 358.2329406738281 147.38909912109375 359.7560119628906 146.8198699951172 360.7696838378906 145.65728759765625 C 361.93243408203125 144.324951171875 362.2132873535156 142.46080017089844 362.3631896972656 140.69338989257812 C 362.786376953125 135.70361328125 362.4609680175781 130.45892333984375 360.02972412109375 126.080322265625 C 357.59844970703125 121.70169067382812 352.6385192871094 118.45042419433594 347.7034606933594 119.22758483886719 L 345.91754150390625 120.07728576660156" stroke-width="0.6000000238418579" fill="rgb(159, 159, 159)" opacity="1.0"/>
    <path d="M 364.8134765625 97.2783203125 C 360.5692138671875 98.21540832519531 355.8921203613281 99.44088745117188 353.52178955078125 103.07403564453125 C 351.211669921875 106.60401916503906 351.84259033203125 111.22862243652344 352.6360168457031 115.37397766113281 C 352.9608154296875 117.0574951171875 353.32745361328125 118.81353759765625 354.4093322753906 120.14244079589844 C 356.2378234863281 122.39111328125 359.52008056640625 122.76211547851562 362.40301513671875 122.50924682617188 C 365.0789794921875 122.27557373046875 367.70751953125 121.65887451171875 370.2081604003906 120.67800903320312 C 374.2691345214844 119.08685302734375 378.2940979003906 115.98678588867188 378.73699951171875 111.64935302734375 C 378.9795227050781 109.30807495117188 378.1051940917969 106.94906616210938 376.7674865722656 105.00791931152344 C 375.4298095703125 103.0667724609375 373.6431579589844 101.4827880859375 371.8570861816406 99.94418334960938 C 370.07098388671875 98.40557861328125 368.28302001953125 96.9320068359375 366.0765686035156 96.27825927734375 L 364.8134765625 97.2783203125" stroke-width="0.6000000238418579" fill="rgb(218, 166, 20)" opacity="1.0"/>
    <path d="M 427.71478271484375 138.29415893554688 C 419.2337646484375 138.77183532714844 412.745849609375 146.03427124023438 413.2235107421875 154.5152587890625 C 413.264404296875 155.24148559570312 413.3568115234375 155.96388244628906 413.4998779296875 156.67706298828125 C 414.0443115234375 159.38681030273438 415.42138671875 162.04144287109375 417.7342529296875 163.55221557617188 C 419.68865966796875 164.8291015625 422.098388671875 165.17776489257812 424.429931640625 165.26019287109375 C 430.67120361328125 165.47219848632812 436.85546875 164.00918579101562 442.3402099609375 161.023193359375 C 443.78863525390625 160.2314453125 445.21875 159.30108642578125 446.16851806640625 157.9466552734375 C 447.7642822265625 155.67381286621094 447.7099609375 152.57208251953125 446.8018798828125 149.94549560546875 C 445.4564208984375 146.0450439453125 442.405517578125 142.85255432128906 438.755859375 140.9260711669922 C 435.106201171875 138.99957275390625 430.902099609375 138.2677001953125 426.77789306640625 138.4055938720703 L 427.71478271484375 138.29415893554688" stroke-width="0.6000000238418579" fill="rgb(143, 165, 67)" opacity="1.0"/>
    <path d="M 150.37588500976562 405.0970458984375 C 155.55612182617188 414.9559326171875 172.4058837890625 414.41741943359375 177.64752197265625 404.6723937988281 C 182.88916015625 394.9273681640625 174.84564208984375 381.0557556152344 163.76165771484375 379.9368896484375 C 152.6776580810547 378.8179931640625 142.2747039794922 389.6427917480469 143.024658203125 400.7681884765625 L 150.37588500976562 405.0970458984375" stroke-width="0.6000000238418579" fill="rgb(233, 92, 21)" opacity="1.0"/>
    <path d="M 430.781494140625 195.37460327148438 C 426.29010009765625 193.441650390625 420.72454833984375 191.5985107421875 416.8663330078125 194.62939453125 C 415.37786865234375 195.89532470703125 414.31890869140625 197.59197998046875 413.8355712890625 199.4852294921875 C 412.5135498046875 204.13751220703125 413.528564453125 209.14193725585938 416.55859375 212.91156005859375 C 419.1370849609375 216.1026611328125 422.90380859375 218.00201416015625 426.5863037109375 219.7529296875 C 428.656494140625 220.73312377929688 430.88720703125 221.7086181640625 433.14178466796875 221.38330078125 C 436.1434326171875 220.925048828125 438.3037109375 218.28778076171875 439.8519287109375 215.6767578125 C 442.1224365234375 211.8583984375 443.760009765625 207.69766235351562 444.70098876953125 203.35598754882812 C 445.023193359375 201.855224609375 445.2598876953125 200.2630615234375 444.78094482421875 198.80532836914062 C 444.266357421875 197.47265625 443.375 196.31854248046875 442.2158203125 195.48367309570312 C 438.7979736328125 192.81439208984375 434.38116455078125 191.77886962890625 430.133056640625 192.6507568359375 L 430.781494140625 195.37460327148438" stroke-width="0.6000000238418579" fill="rgb(70, 150, 179)" opacity="1.0"/>
    <path d="M 412.93603515625 160.74044799804688 C 411.8043518066406 155.15440368652344 410.3154602050781 149.01022338867188 405.6241149902344 145.7799835205078 C 400.58251953125 142.31300354003906 393.4687194824219 143.62442016601562 388.4097595214844 147.0658416748047 C 386.45867919921875 148.3918914794922 384.64605712890625 150.0820770263672 383.7825012207031 152.27713012695312 C 383.0719299316406 154.08131408691406 383.0555419921875 156.07568359375 383.1556396484375 158.01171875 C 383.46392822265625 164.11737060546875 385.04376220703125 170.59698486328125 389.6145935058594 174.65475463867188 C 394.2241516113281 178.7412109375 401.54278564453125 179.4349365234375 406.8243408203125 176.25390625 C 412.10589599609375 173.0728759765625 414.97607421875 166.31488037109375 413.5478515625 160.3128662109375 L 412.93603515625 160.74044799804688" stroke-width="0.6000000238418579" fill="rgb(140, 28, 33)" opacity="1.0"/>
    <path d="M 141.91162109375 134.19664001464844 C 136.2570037841797 136.31832885742188 130.39645385742188 138.58840942382812 126.14495849609375 142.88418579101562 C 121.8935546875 147.179931640625 119.70503234863281 154.1678924560547 122.6578369140625 159.44012451171875 C 126.31730651855469 165.94000244140625 136.2967071533203 166.54763793945312 142.2735595703125 162.06216430664062 C 148.25042724609375 157.57669067382812 150.77484130859375 149.7595977783203 151.33421325683594 142.317138671875 C 151.73818969726562 140.03060913085938 151.2703857421875 137.67581176757812 150.02304077148438 135.7174072265625 C 148.5988006591797 133.93145751953125 145.29063415527344 133.5874481201172 144.20962524414062 135.61264038085938 L 141.91162109375 134.19664001464844" stroke-width="0.6000000238418579" fill="rgb(159, 159, 159)" opacity="1.0"/>
    <path d="M 434.311767578125 167.64453125 C 429.9566650390625 165.035888671875 424.61279296875 163.862548828125 419.697509765625 165.1217041015625 C 414.7822265625 166.38082885742188 410.4607238769531 170.290283203125 409.3575744628906 175.26486206054688 C 408.58209228515625 178.782958984375 409.4383239746094 182.53851318359375 411.230712890625 185.66714477539062 C 413.02313232421875 188.7957763671875 415.687255859375 191.34945678710938 418.600341796875 193.47537231445312 C 419.86859130859375 194.3997802734375 421.265869140625 195.27761840820312 422.827880859375 195.379150390625 C 424.61865234375 195.496337890625 426.295166015625 194.57467651367188 427.81304931640625 193.60699462890625 C 432.0982666015625 190.87493896484375 436.1279296875 187.38214111328125 438.162109375 182.72427368164062 C 440.19622802734375 178.06640625 439.76361083984375 172.06338500976562 436.09716796875 168.56161499023438 L 434.311767578125 167.64453125" stroke-width="0.6000000238418579" fill="rgb(159, 159, 159)" opacity="1.0"/>
    <path d="M 412.62078857421875 192.9622802734375 C 411.04364013671875 187.8656005859375 409.0697937011719 182.268798828125 404.3849792480469 179.73809814453125 C 399.8323974609375 177.2706298828125 394.23944091796875 178.51181030273438 389.24920654296875 179.9031982421875 C 387.2228088378906 180.47140502929688 385.1119689941406 181.09814453125 383.59619140625 182.55645751953125 C 381.0311279296875 185.02142333984375 380.9104919433594 189.0740966796875 381.5124816894531 192.574951171875 C 382.0699462890625 195.8245849609375 383.0911865234375 198.97732543945312 384.54486083984375 201.93667602539062 C 386.9034729003906 206.74267578125 391.1042175292969 211.35153198242188 396.4549255371094 211.4530029296875 C 399.343505859375 211.511962890625 402.140380859375 210.2030029296875 404.37908935546875 208.36962890625 C 406.6177673339844 206.5362548828125 408.3740234375 204.18994140625 410.0747985839844 201.84893798828125 C 411.77557373046875 199.5079345703125 413.3966064453125 197.17120361328125 413.9722900390625 194.40582275390625 L 412.62078857421875 192.9622802734375" stroke-width="0.6000000238418579" fill="rgb(218, 166, 20)" opacity="1.0"/>
    <path d="M 436.7581787109375 185.22601318359375 C 437.47552490234375 194.30615234375 445.41796875 201.08554077148438 454.498046875 200.36819458007812 C 455.275634765625 200.3067626953125 456.04779052734375 200.19024658203125 456.808837890625 200.01956176757812 C 459.7005615234375 199.37039184570312 462.5130615234375 197.82986450195312 464.07659912109375 195.31390380859375 C 465.39813232421875 193.1878662109375 465.71356201171875 190.59619140625 465.7454833984375 188.0947265625 C 465.8216552734375 181.39889526367188 464.1036376953125 174.80477905273438 460.7698974609375 168.99737548828125 C 459.8861083984375 167.46377563476562 458.8541259765625 165.95318603515625 457.379150390625 164.96783447265625 C 454.904052734375 163.31210327148438 451.58026123046875 163.44549560546875 448.7864990234375 164.4825439453125 C 444.6378173828125 166.019287109375 441.28924560546875 169.3670654296875 439.3123779296875 173.326171875 C 437.33544921875 177.2852783203125 436.6527099609375 181.809814453125 436.90032958984375 186.22769165039062 L 436.7581787109375 185.22601318359375" stroke-width="0.6000000238418579" fill="rgb(143, 165, 67)" opacity="1.0"/>
    <path d="M 145.1649627685547 99.30368041992188 C 133.92674255371094 106.02789306640625 135.65615844726562 125.77656555175781 147.43934631347656 131.29638671875 C 159.2225341796875 136.816162109375 174.98583984375 126.46884155273438 175.57781982421875 113.3819580078125 C 176.1697998046875 100.29510498046875 162.78271484375 88.78555297851562 149.7689208984375 90.39053344726562 L 145.1649627685547 99.30368041992188" stroke-width="0.6000000238418579" fill="rgb(233, 92, 21)" opacity="1.0"/>
    <path d="M 452.3575439453125 144.8991241455078 C 449.6781005859375 149.97560119628906 447.00390625 156.3175048828125 450.19232177734375 161.1142578125 C 451.53546142578125 162.97381591796875 453.42254638671875 164.37075805664062 455.59326171875 165.11233520507812 C 460.914794921875 167.09173583984375 466.8656005859375 166.36904907226562 471.55865478515625 163.17343139648438 C 475.53271484375 160.45245361328125 478.10546875 156.220947265625 480.4967041015625 152.0741729736328 C 481.836181640625 149.7425994873047 483.18511962890625 147.2227325439453 483.013916015625 144.5540008544922 C 482.756591796875 140.99868774414062 479.87109375 138.2255096435547 476.9593505859375 136.17108154296875 C 472.70184326171875 133.15908813476562 467.98486328125 130.8560791015625 462.991455078125 129.35137939453125 C 461.26513671875 128.8347930908203 459.423828125 128.40992736816406 457.67333984375 128.83489990234375 C 456.0660400390625 129.3133087158203 454.632568359375 130.2490692138672 453.54779052734375 131.52810668945312 C 450.1064453125 135.2798614501953 448.484130859375 140.35240173339844 449.10968017578125 145.40487670898438 L 452.3575439453125 144.8991241455078" stroke-width="0.6000000238418579" fill="rgb(70, 150, 179)" opacity="1.0"/>
    <path d="M 381.6809387207031 80.35794067382812 C 382.175537109375 73.95706176757812 382.4549865722656 66.8414306640625 378.3670959472656 61.896484375 C 373.9726257324219 56.587127685546875 365.8611145019531 55.81672668457031 359.31982421875 57.987060546875 C 356.79742431640625 58.822784423828125 354.3128967285156 60.095703125 352.70111083984375 62.20794677734375 C 351.37548828125 63.94384765625 350.743408203125 66.09962463378906 350.2554626464844 68.22807312011719 C 348.708740234375 74.93830871582031 348.42449951171875 82.44540405273438 352.1269226074219 88.24984741210938 C 355.8624267578125 94.09725952148438 363.5782165527344 97.103271484375 370.2804870605469 95.28366088867188 C 376.9827575683594 93.46405029296875 382.17413330078125 87.02607727050781 382.4755859375 80.08316040039062 L 381.6809387207031 80.35794067382812" stroke-width="0.6000000238418579" fill="rgb(140, 28, 33)" opacity="1.0"/>
    <path d="M 135.95301818847656 412.9420166015625 C 133.29029846191406 418.9295654296875 130.58560180664062 425.189208984375 130.67198181152344 431.7462158203125 C 130.75839233398438 438.3031005859375 134.49667358398438 445.313720703125 140.82098388671875 447.042724609375 C 148.63243103027344 449.1595458984375 156.6971435546875 441.90484619140625 157.77716064453125 433.86920166015625 C 158.857177734375 425.83355712890625 154.7333526611328 417.9322509765625 149.4037322998047 411.8355712890625 C 147.9429931640625 409.7829895019531 145.76597595214844 408.3526611328125 143.30223083496094 407.8267822265625 C 140.83721923828125 407.5689697265625 138.0535125732422 409.8653869628906 138.7969207763672 412.24261474609375 L 135.95301818847656 412.9420166015625" stroke-width="0.6000000238418579" fill="rgb(159, 159, 159)" opacity="1.0"/>
    <path d="M 422.42169189453125 216.154296875 C 417.26861572265625 212.27752685546875 410.6750183105469 210.081787109375 404.29791259765625 211.0159912109375 C 397.9207763671875 211.95013427734375 391.93988037109375 216.31146240234375 389.882080078125 222.44802856445312 C 388.43267822265625 226.78851318359375 389.0127868652344 231.6468505859375 390.85919189453125 235.8382568359375 C 392.70556640625 240.0296630859375 395.7298583984375 243.61123657226562 399.1257629394531 246.6856689453125 C 400.6043701171875 248.022705078125 402.25213623046875 249.31817626953125 404.21173095703125 249.65499877929688 C 406.45819091796875 250.04220581054688 408.69903564453125 249.101806640625 410.74560546875 248.08212280273438 C 416.5234375 245.2032470703125 422.0802001953125 241.32928466796875 425.271728515625 235.71710205078125 C 428.46319580078125 230.10491943359375 428.71832275390625 222.46417236328125 424.554443359375 217.55117797851562 L 422.42169189453125 216.154296875" stroke-width="0.6000000238418579" fill="rgb(159, 159, 159)" opacity="1.0"/>
    <path d="M 383.4389953613281 111.787353515625 C 377.2989501953125 112.44883728027344 370.50262451171875 113.45010375976562 366.58856201171875 118.21131896972656 C 362.7756042480469 122.83624267578125 362.94537353515625 129.4656982421875 363.41943359375 135.44366455078125 C 363.6156005859375 137.87185668945312 363.8595275878906 140.4089813232422 365.1801452636719 142.45445251464844 C 367.4117126464844 145.915283203125 371.98919677734375 146.95108032226562 376.10003662109375 147.0435791015625 C 379.91558837890625 147.1309051513672 383.723876953125 146.66989135742188 387.40838623046875 145.67466735839844 C 393.3915710449219 144.0608673095703 399.55926513671875 140.31053161621094 400.8611755371094 134.25408935546875 C 401.56878662109375 130.9854736328125 400.7019348144531 127.51763916015625 399.1155090332031 124.56765747070312 C 397.5290832519531 121.61767578125 395.2529602050781 119.10206604003906 392.97052001953125 116.65065002441406 C 390.6880798339844 114.19923400878906 388.392822265625 111.83935546875 385.3787536621094 110.57200622558594 L 383.4389953613281 111.787353515625" stroke-width="0.6000000238418579" fill="rgb(218, 166, 20)" opacity="1.0"/>
    <path d="M 404.586181640625 83.16471862792969 C 396.2908935546875 76.81472778320312 384.41851806640625 78.39169311523438 378.0685119628906 86.68698120117188 C 377.5247802734375 87.39730834960938 377.0321044921875 88.14532470703125 376.59417724609375 88.92538452148438 C 374.9308166503906 91.88970947265625 374.0885009765625 95.46987915039062 375.0357971191406 98.73263549804688 C 375.8360595703125 101.48997497558594 377.8049011230469 103.74612426757812 379.9141540527344 105.69123840332031 C 385.56719970703125 110.89006042480469 392.50921630859375 114.48042297363281 400.01898193359375 116.08935546875 C 402.0047302246094 116.51130676269531 404.08447265625 116.78924560546875 406.05584716796875 116.28663635253906 C 409.36590576171875 115.44480895996094 411.800537109375 112.50740051269531 413.05792236328125 109.3292236328125 C 414.927978515625 104.61210632324219 414.6397705078125 99.18902587890625 412.7783203125 94.46722412109375 C 410.9169616699219 89.74545288085938 407.58111572265625 85.69400024414062 403.622802734375 82.51797485351562 L 404.586181640625 83.16471862792969" stroke-width="0.6000000238418579" fill="rgb(143, 165, 67)" opacity="1.0"/>
    <path d="M 123.55526733398438 427.36834716796875 C 116.3367919921875 417.3096923828125 97.86776733398438 420.4918212890625 93.5941162109375 432.026611328125 C 89.32051086425781 443.5615234375 100.30810546875 457.5982666015625 112.68365478515625 457.126953125 C 125.0592041015625 456.6556396484375 134.84959411621094 443.1387939453125 132.31427001953125 431.00482177734375 L 123.55526733398438 427.36834716796875" stroke-width="0.6000000238418579" fill="rgb(233, 92, 21)" opacity="1.0"/>
    <path d="M 448.66351318359375 210.12005615234375 C 443.379638671875 212.6903076171875 437.33447265625 216.30859375 437.06475830078125 222.19833374023438 C 437.04864501953125 224.54638671875 437.761474609375 226.841552734375 439.1051025390625 228.76727294921875 C 442.30126953125 233.62139892578125 447.6519775390625 236.625244140625 453.46038818359375 236.82623291015625 C 458.387939453125 236.984130859375 463.072509765625 235.04693603515625 467.555908203125 233.06991577148438 C 470.0726318359375 231.95526123046875 472.7110595703125 230.69085693359375 474.18438720703125 228.3837890625 C 476.123046875 225.29254150390625 475.41845703125 221.25692749023438 474.2574462890625 217.79891967773438 C 472.56451416015625 212.73599243164062 470.06329345703125 207.98046875 466.85076904296875 203.71676635742188 C 465.73797607421875 202.2457275390625 464.4747314453125 200.7808837890625 462.7723388671875 200.0726318359375 C 461.15570068359375 199.4951171875 459.40594482421875 199.40042114257812 457.7364501953125 199.80014038085938 C 452.625 200.815673828125 448.21630859375 204.02230834960938 445.67584228515625 208.572509765625 L 448.66351318359375 210.12005615234375" stroke-width="0.6000000238418579" fill="rgb(70, 150, 179)" opacity="1.0"/>
    <path d="M 428.32379150390625 134.17185974121094 C 430.17327880859375 128.44175720214844 431.982666015625 122.01275634765625 429.33453369140625 116.60946655273438 C 426.486328125 110.80685424804688 419.2562255859375 108.33206176757812 412.81591796875 108.88253784179688 C 410.3326416015625 109.09371948242188 407.7884521484375 109.71194458007812 405.85693359375 111.286376953125 C 404.26861572265625 112.58004760742188 403.2210998535156 114.408203125 402.31109619140625 116.24293518066406 C 399.43438720703125 122.02532958984375 397.5350646972656 128.81033325195312 399.6438903808594 134.913330078125 C 401.7735290527344 141.06275939941406 408.1542663574219 145.4901580810547 414.664794921875 145.29473876953125 C 421.1754150390625 145.0993194580078 427.31689453125 140.36151123046875 429.108642578125 134.09483337402344 L 428.32379150390625 134.17185974121094" stroke-width="0.6000000238418579" fill="rgb(140, 28, 33)" opacity="1.0"/>
    <path d="M 395.6593017578125 62.747283935546875 C 397.1448669433594 69.05899047851562 398.76025390625 75.61026000976562 402.7528991699219 80.72531127929688 C 406.74554443359375 85.84027099609375 413.88726806640625 89.126953125 419.905517578125 86.70404052734375 C 427.32769775390625 83.69662475585938 429.34027099609375 73.15310668945312 425.3817138671875 66.17483520507812 C 421.423095703125 59.196533203125 413.4444580078125 55.438751220703125 405.5958251953125 53.82470703125 C 403.2162780761719 53.0816650390625 400.6447448730469 53.257598876953125 398.38861083984375 54.31785583496094 C 396.2919616699219 55.59010314941406 395.47296142578125 59.065765380859375 397.4815979003906 60.493988037109375 L 395.6593017578125 62.747283935546875" stroke-width="0.6000000238418579" fill="rgb(159, 159, 159)" opacity="1.0"/>
    <path d="M 437.6522216796875 237.29986572265625 C 432.9373779296875 241.7742919921875 429.65283203125 247.96157836914062 429.51568603515625 254.456787109375 C 429.3785400390625 260.95196533203125 432.7142333984375 267.6260681152344 438.4703369140625 270.6971435546875 C 442.542724609375 272.86328125 447.468994140625 273.09857177734375 451.9439697265625 271.96368408203125 C 456.4189453125 270.82879638671875 460.48455810546875 268.42108154296875 464.108154296875 265.5592346191406 C 465.68438720703125 264.3128967285156 467.24749755859375 262.8914794921875 467.9097900390625 260.9998779296875 C 468.67010498046875 258.8315124511719 468.10986328125 256.4468688964844 467.438232421875 254.24209594726562 C 465.54217529296875 248.01760864257812 462.61993408203125 241.84658813476562 457.57464599609375 237.7362060546875 C 452.529296875 233.6258544921875 444.976806640625 232.09530639648438 439.397216796875 235.41326904296875 L 437.6522216796875 237.29986572265625" stroke-width="0.6000000238418579" fill="rgb(159, 159, 159)" opacity="1.0"/>
    <path d="M 414.7874755859375 260.8933410644531 C 412.28594970703125 255.15713500976562 409.25689697265625 248.88946533203125 403.4664001464844 246.54876708984375 C 397.83831787109375 244.2645263671875 391.47979736328125 246.43896484375 385.8434753417969 248.71014404296875 C 383.55517578125 249.6361083984375 381.1759948730469 250.64132690429688 379.5987243652344 252.53851318359375 C 376.9291687011719 255.74566650390625 377.31573486328125 260.4857177734375 378.4728698730469 264.488525390625 C 379.54547119140625 268.2042541503906 381.1460876464844 271.7466735839844 383.22564697265625 275.0074157714844 C 386.6003723144531 280.30316162109375 392.0968933105469 285.1294250488281 398.3476257324219 284.5516357421875 C 401.7226257324219 284.2446594238281 404.8127746582031 282.3548889160156 407.1840515136719 279.9264221191406 C 409.5552978515625 277.4979553222656 411.2973937988281 274.53436279296875 412.97552490234375 271.5840759277344 C 414.6536865234375 268.6338195800781 416.2393798828125 265.6989440917969 416.55078125 262.4003601074219 L 414.7874755859375 260.8933410644531" stroke-width="0.6000000238418579" fill="rgb(218, 166, 20)" opacity="1.0"/>
    <path d="M 415.135986328125 87.12335205078125 C 411.3824462890625 96.16970825195312 415.673095703125 106.54609680175781 424.719482421875 110.29962158203125 C 425.494140625 110.62106323242188 426.29058837890625 110.88710021972656 427.1029052734375 111.09580993652344 C 430.1895751953125 111.88827514648438 433.6363525390625 111.78839111328125 436.36407470703125 110.14363098144531 C 438.6693115234375 108.75390625 440.23883056640625 106.42623901367188 441.49267578125 104.04635620117188 C 444.8402099609375 97.67138671875 446.419677734375 90.516357421875 446.067138671875 83.32456970214844 C 445.970703125 81.42372131347656 445.72119140625 79.47247314453125 444.7906494140625 77.80752563476562 C 443.22998046875 75.01150512695312 439.98175048828125 73.51377868652344 436.7991943359375 73.14068603515625 C 432.0745849609375 72.58346557617188 427.230712890625 74.15191650390625 423.40142822265625 76.97659301757812 C 419.5721435546875 79.80123901367188 416.70556640625 83.80020141601562 414.7822265625 88.152099609375 L 415.135986328125 87.12335205078125" stroke-width="0.6000000238418579" fill="rgb(143, 165, 67)" opacity="1.0"/>
    <path d="M 427.6820068359375 123.11593627929688 C 425.895263671875 135.30551147460938 441.3143310546875 145.7952423095703 452.3470458984375 140.49342346191406 C 463.3797607421875 135.19155883789062 465.21875 117.549072265625 456.0350341796875 109.33140563964844 C 446.85137939453125 101.11373901367188 430.4998779296875 104.02053833007812 423.926513671875 114.4581298828125 L 427.6820068359375 123.11593627929688" stroke-width="0.6000000238418579" fill="rgb(233, 92, 21)" opacity="1.0"/>
    <path d="M 449.92816162109375 92.87554931640625 C 449.1793212890625 98.7220458984375 448.89111328125 105.78347778320312 453.684326171875 109.24821472167969 C 455.6455078125 110.55281066894531 457.963134765625 111.21672058105469 460.317626953125 111.14826965332031 C 466.14764404296875 111.13569641113281 471.6099853515625 108.298095703125 474.97235107421875 103.53533935546875 C 477.81427001953125 99.48788452148438 478.7647705078125 94.49235534667969 479.5711669921875 89.64370727539062 C 480.019775390625 86.91928100585938 480.40966796875 84.01040649414062 479.2841796875 81.50570678710938 C 477.756591796875 78.179443359375 473.9832763671875 76.55160522460938 470.443603515625 75.62435913085938 C 465.264892578125 74.2608642578125 459.899658203125 73.74458312988281 454.5560302734375 74.09552001953125 C 452.7099609375 74.22032165527344 450.786376953125 74.47470092773438 449.256103515625 75.51364135742188 C 447.882568359375 76.55242919921875 446.841064453125 77.96842956542969 446.2584228515625 79.58895874023438 C 444.2999267578125 84.43585205078125 444.5662841796875 89.89791870117188 446.98699951171875 94.53131103515625 L 449.92816162109375 92.87554931640625" stroke-width="0.6000000238418579" fill="rgb(70, 150, 179)" opacity="1.0"/>
    <path d="M 312.1543273925781 368.7387390136719 C 306.89013671875 366.5823059082031 300.9646911621094 364.4130859375 295.68328857421875 366.5171813964844 C 290.01123046875 368.78082275390625 287.1573181152344 375.4128112792969 287.2103576660156 381.51953125 C 287.22979736328125 383.8740539550781 287.6282958984375 386.3154296875 288.9718017578125 388.248779296875 C 290.07568359375 389.8385009765625 291.72210693359375 390.9573974609375 293.38470458984375 391.947265625 C 298.6239013671875 395.0751647949219 304.8782043457031 397.35479736328125 310.77978515625 395.8093566894531 C 316.7265930175781 394.2476806640625 321.3584899902344 388.5569152832031 321.6449890136719 382.40972900390625 C 321.9315185546875 376.2625427246094 317.9123229980469 370.13470458984375 312.13848876953125 367.99383544921875 L 312.1543273925781 368.7387390136719" stroke-width="0.6000000238418579" fill="rgb(140, 28, 33)" opacity="1.0"/>
    <path d="M 298.0139465332031 391.1943054199219 C 291.8528747558594 388.2254638671875 285.4091796875 385.2041320800781 278.56622314453125 385.0849304199219 C 271.72332763671875 384.96575927734375 264.2906188964844 388.6417236328125 262.2850646972656 395.1839599609375 C 259.82745361328125 403.2652282714844 267.1380920410156 411.9098205566406 275.4862976074219 413.29296875 C 283.83453369140625 414.6761474609375 292.208740234375 410.62646484375 298.7388610839844 405.2612609863281 C 300.92669677734375 403.8029479980469 302.4883117675781 401.57757568359375 303.11553955078125 399.02423095703125 C 303.4631652832031 396.4609680175781 301.15643310546875 393.4837341308594 298.6528015136719 394.1833801269531 L 298.0139465332031 391.1943054199219" stroke-width="0.6000000238418579" fill="rgb(159, 159, 159)" opacity="1.0"/>
    <path d="M 322.666259765625 412.72039794921875 C 317.04669189453125 416.5511474609375 312.6171875 422.3907470703125 311.3866882324219 429.075927734375 C 310.1561584472656 435.76116943359375 312.4824523925781 443.21337890625 317.9124450683594 447.35009765625 C 321.7552185058594 450.2698974609375 326.80364990234375 451.33880615234375 331.6156311035156 450.9168701171875 C 336.4276123046875 450.49493408203125 341.0301818847656 448.6898193359375 345.2524108886719 446.34161376953125 C 347.0892028808594 445.318603515625 348.9418640136719 444.1126708984375 349.9429931640625 442.27001953125 C 351.0917663574219 440.157958984375 350.9128723144531 437.6011962890625 350.5888671875 435.2115478515625 C 349.674072265625 428.465087890625 347.6905212402344 421.601806640625 343.1688232421875 416.5108642578125 C 338.6470947265625 411.4198913574219 331.1034851074219 408.57305908203125 324.7846984863281 411.0644836425781 L 322.666259765625 412.72039794921875" stroke-width="0.6000000238418579" fill="rgb(159, 159, 159)" opacity="1.0"/>
    <path d="M 255.61041259765625 417.29632568359375 C 248.90106201171875 416.3162841796875 241.40087890625 415.517578125 235.9342041015625 419.5064697265625 C 230.61236572265625 423.3782958984375 228.975341796875 430.47314453125 227.8404541015625 436.958740234375 C 227.38330078125 439.59417724609375 226.94708251953125 442.35845947265625 227.79034423828125 444.89520263671875 C 229.214111328125 449.1865234375 233.79681396484375 451.542724609375 238.14202880859375 452.76806640625 C 242.1746826171875 453.906982421875 246.35000610351562 454.46087646484375 250.5401611328125 454.41290283203125 C 257.3437805175781 454.3375244140625 264.9293518066406 452.0411376953125 267.9739074707031 445.958984375 C 269.62237548828125 442.67779541015625 269.6514587402344 438.753173828125 268.7735595703125 435.181884765625 C 267.8956604003906 431.610595703125 266.1654052734375 428.31207275390625 264.41082763671875 425.08001708984375 C 262.65625 421.8480224609375 260.86297607421875 418.709716796875 258.00592041015625 416.5360107421875 L 255.61041259765625 417.29632568359375" stroke-width="0.6000000238418579" fill="rgb(218, 166, 20)" opacity="1.0"/>
    <path d="M 219.92721557617188 413.326904296875 C 210.37228393554688 406.3072814941406 196.93597412109375 408.362548828125 189.91632080078125 417.91748046875 C 189.31524658203125 418.73565673828125 188.77294921875 419.595458984375 188.29351806640625 420.49041748046875 C 186.47247314453125 423.891357421875 185.59686279296875 427.97265625 186.74481201171875 431.6536865234375 C 187.71466064453125 434.7645263671875 189.99923706054688 437.280517578125 192.4361572265625 439.4404296875 C 198.9671630859375 445.21295166015625 206.9246826171875 449.1314697265625 215.48208618164062 450.7889404296875 C 217.74481201171875 451.2232666015625 220.11090087890625 451.4920654296875 222.33657836914062 450.87762451171875 C 226.07366943359375 449.8482666015625 228.77047729492188 446.460693359375 230.1260986328125 442.82623291015625 C 232.1424560546875 437.4317626953125 231.69387817382812 431.28466796875 229.47601318359375 425.968505859375 C 227.25814819335938 420.65234375 223.3822021484375 416.12982177734375 218.819580078125 412.6146240234375 L 219.92721557617188 413.326904296875" stroke-width="0.6000000238418579" fill="rgb(143, 165, 67)" opacity="1.0"/>
    <path d="M 271.44757080078125 359.2618103027344 C 277.67236328125 370.9991455078125 297.7706604003906 370.2797546386719 303.9790954589844 358.6305847167969 C 310.1875 346.98138427734375 300.5286560058594 330.4701232910156 287.3009948730469 329.18603515625 C 274.0733337402344 327.90191650390625 261.7126770019531 340.8628234863281 262.658203125 354.13134765625 L 271.44757080078125 359.2618103027344" stroke-width="0.6000000238418579" fill="rgb(233, 92, 21)" opacity="1.0"/>
    <path d="M 329.8745422363281 355.6449890136719 C 326.3399963378906 361.1838684082031 322.6923522949219 368.166748046875 325.8780517578125 373.9389343261719 C 327.2352294921875 376.18670654296875 329.2564392089844 377.95794677734375 331.6629333496094 379.0082702636719 C 337.5472412109375 381.76727294921875 344.4037780761719 381.5030517578125 350.0583190917969 378.2993469238281 C 354.84796142578125 375.5694580078125 358.1812438964844 370.9844665527344 361.29949951171875 366.47906494140625 C 363.0470275878906 363.9453430175781 364.8230285644531 361.19775390625 364.87896728515625 358.13720703125 C 364.92010498046875 354.05718994140625 361.8894348144531 350.6219787597656 358.7612609863281 348.0042419433594 C 354.18792724609375 344.1674499511719 349.02374267578125 341.0962219238281 343.468994140625 338.90960693359375 C 341.5483093261719 338.15777587890625 339.48785400390625 337.4997863769531 337.4509582519531 337.8197937011719 C 335.572265625 338.2142333984375 333.8489074707031 339.14678955078125 332.4910583496094 340.5037536621094 C 328.2120666503906 344.4596862792969 325.88385009765625 350.0935974121094 326.1218566894531 355.91619873046875 L 329.8745422363281 355.6449890136719" stroke-width="0.6000000238418579" fill="rgb(70, 150, 179)" opacity="1.0"/>
    <path d="M 297.9556579589844 412.9656982421875 C 290.8257141113281 411.6915588378906 282.8692626953125 410.57861328125 276.8590087890625 414.61212158203125 C 270.4052734375 418.94891357421875 268.62933349609375 427.9681396484375 270.3309631347656 435.5550537109375 C 270.98577880859375 438.48052978515625 272.13568115234375 441.41259765625 274.3258056640625 443.45916748046875 C 276.1255798339844 445.14227294921875 278.474609375 446.093994140625 280.80914306640625 446.88079833984375 C 288.1681823730469 449.370849609375 296.56353759765625 450.53314208984375 303.4953308105469 447.02880859375 C 310.4790954589844 443.49224853515625 314.7202453613281 435.1683349609375 313.4303894042969 427.44012451171875 C 312.14056396484375 419.7119140625 305.4965515136719 413.16107177734375 297.7364501953125 412.04278564453125 L 297.9556579589844 412.9656982421875" stroke-width="0.6000000238418579" fill="rgb(140, 28, 33)" opacity="1.0"/>
    <path d="M 325.807373046875 390.4848937988281 C 318.973876953125 390.2564697265625 311.8607482910156 390.0940856933594 305.5538330078125 392.7472839355469 C 299.2470703125 395.40045166015625 293.9327087402344 401.7628479003906 294.73919677734375 408.5561218261719 C 295.7534484863281 416.93951416015625 305.92938232421875 421.8951416015625 314.12322998046875 419.7904052734375 C 322.31707763671875 417.6856689453125 328.3417053222656 410.60137939453125 332.14862060546875 403.0583190917969 C 333.5610046386719 400.84136962890625 334.0910339355469 398.1756286621094 333.634033203125 395.5870666503906 C 332.9173278808594 393.1023254394531 329.605712890625 391.3103942871094 327.5982360839844 392.9609069824219 L 325.807373046875 390.4848937988281" stroke-width="0.6000000238418579" fill="rgb(159, 159, 159)" opacity="1.0"/>
    <path d="M 359.64276123046875 409.9606018066406 C 354.4039001464844 414.672607421875 350.6653137207031 421.28216552734375 350.32843017578125 428.31658935546875 C 349.9915466308594 435.35101318359375 353.412841796875 442.67999267578125 359.561279296875 446.17474365234375 C 363.91143798828125 448.64007568359375 369.2429504394531 449.037841796875 374.12506103515625 447.937744140625 C 379.0071716308594 446.837646484375 383.48260498046875 444.34637451171875 387.49224853515625 441.3502197265625 C 389.2363586425781 440.04534912109375 390.9714050292969 438.55035400390625 391.7439270019531 436.51971435546875 C 392.63067626953125 434.1920166015625 392.0926513671875 431.59173583984375 391.4288024902344 429.18310546875 C 389.5545654296875 422.383056640625 386.5668029785156 415.61126708984375 381.21868896484375 411.0108947753906 C 375.87054443359375 406.4105224609375 367.730712890625 404.5330810546875 361.5883483886719 407.966796875 L 359.64276123046875 409.9606018066406" stroke-width="0.6000000238418579" fill="rgb(159, 159, 159)" opacity="1.0"/>
    <path d="M 252.81475830078125 367.2624206542969 C 253.81903076171875 360.1566162109375 254.62750244140625 352.2146911621094 250.37884521484375 346.44854736328125 C 246.2548828125 340.8351135253906 238.73785400390625 339.1374206542969 231.86807250976562 337.9681701660156 C 229.07659912109375 337.49725341796875 226.1488037109375 337.0491638183594 223.4681396484375 337.9541320800781 C 218.933349609375 339.4820861816406 216.462158203125 344.3438720703125 215.18661499023438 348.9487609863281 C 214.00106811523438 353.222412109375 213.43533325195312 357.6441650390625 213.5067138671875 362.0786437988281 C 213.61996459960938 369.279052734375 216.08767700195312 377.2961120605469 222.53982543945312 380.4884948730469 C 226.02056884765625 382.217041015625 230.17440795898438 382.228515625 233.9498291015625 381.2818603515625 C 237.72528076171875 380.33514404296875 241.2078857421875 378.4876708984375 244.61993408203125 376.6147766113281 C 248.03204345703125 374.7419128417969 251.34463500976562 372.8285217285156 253.6312255859375 369.7940368652344 L 252.81475830078125 367.2624206542969" stroke-width="0.6000000238418579" fill="rgb(218, 166, 20)" opacity="1.0"/>
    <path d="M 263.5286560058594 384.69183349609375 C 253.978515625 377.38641357421875 240.31439208984375 379.20611572265625 233.00894165039062 388.7562561035156 C 232.38336181640625 389.57403564453125 231.81661987304688 390.4351501464844 231.31292724609375 391.3331604003906 C 229.39959716796875 394.74566650390625 228.43148803710938 398.8666687011719 229.5230712890625 402.62164306640625 C 230.44525146484375 405.7949523925781 232.71221923828125 408.39093017578125 235.14065551757812 410.62890625 C 241.64923095703125 416.6103515625 249.64065551757812 420.74005126953125 258.2848205566406 422.5889892578125 C 260.570556640625 423.0738525390625 262.96435546875 423.3929443359375 265.2331848144531 422.81365966796875 C 269.0426330566406 421.84344482421875 271.8436584472656 418.46160888671875 273.2896423339844 414.8031005859375 C 275.4402160644531 409.3731384277344 275.1062927246094 403.13140869140625 272.9620361328125 397.697509765625 C 270.8177795410156 392.26361083984375 266.9767150878906 387.601806640625 262.4195556640625 383.94781494140625 L 263.5286560058594 384.69183349609375" stroke-width="0.6000000238418579" fill="rgb(143, 165, 67)" opacity="1.0"/>
    <path d="M 199.18701171875 378.0655212402344 C 185.06613159179688 380.339111328125 178.82937622070312 401.07183837890625 188.54864501953125 411.4390563964844 C 198.2679443359375 421.80621337890625 218.445068359375 417.6883544921875 224.34100341796875 404.6526794433594 C 230.2369384765625 391.616943359375 221.31439208984375 374.5248107910156 207.46380615234375 370.8869934082031 L 199.18701171875 378.0655212402344" stroke-width="0.6000000238418579" fill="rgb(233, 92, 21)" opacity="1.0"/>
    <path d="M 252.83880615234375 374.74847412109375 C 250.2869873046875 380.615966796875 247.8472900390625 387.88946533203125 251.7940673828125 392.9532470703125 C 253.44317626953125 394.90728759765625 255.657958984375 396.30145263671875 258.1329650878906 396.9433898925781 C 264.2139892578125 398.696533203125 270.7675476074219 397.3934631347656 275.71539306640625 393.4473876953125 C 279.9039611816406 390.08929443359375 282.4081726074219 385.169921875 284.71771240234375 380.3600158691406 C 286.0107116699219 377.656005859375 287.29833984375 374.7419128417969 286.8839416503906 371.7900390625 C 286.2992858886719 367.8599853515625 282.8591613769531 365.0199890136719 279.4502868652344 362.9810791015625 C 274.46514892578125 359.9908752441406 269.02886962890625 357.8273010253906 263.3523254394531 356.57421875 C 261.3901672363281 356.1450500488281 259.3079528808594 355.8274841308594 257.3980407714844 356.44683837890625 C 255.65164184570312 357.11358642578125 254.136962890625 358.2740783691406 253.0386962890625 359.78680419921875 C 249.52877807617188 364.2458801269531 248.151611328125 370.02020263671875 249.27130126953125 375.5834045410156 L 252.83880615234375 374.74847412109375" stroke-width="0.6000000238418579" fill="rgb(70, 150, 179)" opacity="1.0"/>
    <path d="M 338.88031005859375 361.0636901855469 C 340.2061462402344 354.1239318847656 341.38433837890625 346.3760986328125 337.51995849609375 340.46673583984375 C 333.3649597167969 334.1212463378906 324.58819580078125 332.28399658203125 317.1680908203125 333.85546875 C 314.30694580078125 334.46014404296875 311.4336242675781 335.547607421875 309.411865234375 337.6600646972656 C 307.74920654296875 339.39599609375 306.7935791015625 341.6761474609375 305.9989318847656 343.9441223144531 C 303.4844970703125 351.0931701660156 302.2530517578125 359.2685241699219 305.5904541015625 366.0706481933594 C 308.95880126953125 372.923828125 317.0286560058594 377.15753173828125 324.581787109375 375.9893493652344 C 332.1349182128906 374.8211975097656 338.6020202636719 368.4168395996094 339.7830810546875 360.860595703125 L 338.88031005859375 361.0636901855469" stroke-width="0.6000000238418579" fill="rgb(140, 28, 33)" opacity="1.0"/>
    <path d="M 357.1184387207031 399.2559509277344 C 350.38140869140625 398.43121337890625 343.362060546875 397.64727783203125 336.8931884765625 399.71807861328125 C 330.4244384765625 401.78887939453125 324.6119384765625 407.6143493652344 324.8140869140625 414.40234375 C 325.082275390625 422.78082275390625 334.7101135253906 428.57275390625 342.9967346191406 427.209716796875 C 351.28338623046875 425.84661865234375 357.8614501953125 419.3695068359375 362.2868347167969 412.2445068359375 C 363.87774658203125 410.17608642578125 364.63543701171875 407.58660888671875 364.410400390625 404.9869384765625 C 363.9194641113281 402.4671936035156 360.80194091796875 400.40509033203125 358.6722717285156 401.8612060546875 L 357.1184387207031 399.2559509277344" stroke-width="0.6000000238418579" fill="rgb(159, 159, 159)" opacity="1.0"/>
    <path d="M 178.60430908203125 410.7685546875 C 171.59710693359375 410.069091796875 164.19760131835938 411.7551574707031 158.7735595703125 416.240478515625 C 153.34951782226562 420.725830078125 150.2371368408203 428.18603515625 151.79302978515625 435.08074951171875 C 152.8992462158203 439.9539794921875 156.19351196289062 444.16082763671875 160.29202270507812 447.02752685546875 C 164.39053344726562 449.894287109375 169.2431640625 451.5242919921875 174.15533447265625 452.4703369140625 C 176.29327392578125 452.8807373046875 178.56549072265625 453.156494140625 180.58572387695312 452.36065673828125 C 182.90228271484375 451.44927978515625 184.46142578125 449.3017578125 185.79421997070312 447.190185546875 C 189.55697631835938 441.22900390625 192.5494384765625 434.4639892578125 192.34906005859375 427.41650390625 C 192.14865112304688 420.3690185546875 188.0576171875 413.09149169921875 181.38677978515625 410.86419677734375 L 178.60430908203125 410.7685546875" stroke-width="0.6000000238418579" fill="rgb(159, 159, 159)" opacity="1.0"/>
    <path d="M 361.1607666015625 370.5347900390625 C 354.4381408691406 369.831787109375 346.9352111816406 369.3415832519531 341.6526184082031 373.53729248046875 C 336.5095520019531 377.6103820800781 335.16790771484375 384.7436828613281 334.3015441894531 391.2497863769531 C 333.9534912109375 393.8933410644531 333.63153076171875 396.6644287109375 334.57476806640625 399.1567687988281 C 336.1675720214844 403.373046875 340.8280029296875 405.5333251953125 345.20587158203125 406.576904296875 C 349.2688903808594 407.547119140625 353.4501953125 407.9288330078125 357.6217346191406 407.7104797363281 C 364.3952941894531 407.3583679199219 371.8572692871094 404.76226806640625 374.6421203613281 398.5802917480469 C 376.15045166015625 395.24505615234375 376.0196533203125 391.3348693847656 374.9998474121094 387.8134765625 C 373.98004150390625 384.2921142578125 372.1223449707031 381.07708740234375 370.2431335449219 377.9293212890625 C 368.36395263671875 374.7815246582031 366.45001220703125 371.728759765625 363.51580810546875 369.6799621582031 L 361.1607666015625 370.5347900390625" stroke-width="0.6000000238418579" fill="rgb(218, 166, 20)" opacity="1.0"/>
    <path d="M 375.5086975097656 379.154296875 C 368.5760192871094 388.4546813964844 370.4954528808594 401.61419677734375 379.79583740234375 408.546875 C 380.59222412109375 409.1405334472656 381.4297180175781 409.6769104003906 382.3020324707031 410.1520690917969 C 385.6169738769531 411.9568176269531 389.6039733886719 412.84124755859375 393.2131652832031 411.7431640625 C 396.2632751464844 410.81549072265625 398.7403259277344 408.5974426269531 400.8700866699219 406.22796630859375 C 406.5621032714844 399.8775634765625 410.449951171875 392.1189270019531 412.1297607421875 383.7579650878906 C 412.570068359375 381.54718017578125 412.84912109375 379.234130859375 412.26312255859375 377.05242919921875 C 411.2814636230469 373.38922119140625 407.9855041503906 370.7277526855469 404.4389343261719 369.37677001953125 C 399.1749572753906 367.36737060546875 393.1578063964844 367.764404296875 387.9416198730469 369.89813232421875 C 382.7254333496094 372.0318298339844 378.2744445800781 375.7931213378906 374.8042907714844 380.2331237792969 L 375.5086975097656 379.154296875" stroke-width="0.6000000238418579" fill="rgb(143, 165, 67)" opacity="1.0"/>
    <path d="M 365.61651611328125 363.0312194824219 C 371.296875 375.487548828125 392.01446533203125 375.9847412109375 399.11761474609375 364.38446044921875 C 406.2207336425781 352.7841491699219 397.3019714355469 335.2059326171875 383.77490234375 333.07086181640625 C 370.2478332519531 330.9357604980469 356.7357177734375 343.5065612792969 356.8914794921875 357.2129211425781 L 365.61651611328125 363.0312194824219" stroke-width="0.6000000238418579" fill="rgb(233, 92, 21)" opacity="1.0"/>
    <path d="M 404.00860595703125 354.1629638671875 C 403.58514404296875 360.76641845703125 403.7641906738281 368.69830322265625 409.3805847167969 372.2394104003906 C 411.6705322265625 373.5616455078125 414.3143310546875 374.1407470703125 416.94732666015625 373.896728515625 C 423.478271484375 373.46826171875 429.3963623046875 369.90087890625 432.824951171875 364.3258361816406 C 435.7213134765625 359.5892028808594 436.43115234375 353.9248352050781 436.99005126953125 348.4352111816406 C 437.29901123046875 345.3509826660156 437.529052734375 342.06427001953125 436.090087890625 339.33807373046875 C 434.1422119140625 335.7200012207031 429.7989501953125 334.1643981933594 425.767333984375 333.37713623046875 C 419.868408203125 332.21759033203125 413.8206787109375 332.0204772949219 407.8587341308594 332.79345703125 C 405.79931640625 333.06451416015625 403.6622619628906 333.4862365722656 402.0216064453125 334.75897216796875 C 400.5566711425781 336.0204162597656 399.4903869628906 337.680908203125 398.9528503417969 339.53790283203125 C 397.10308837890625 345.1073913574219 397.7896423339844 351.2080078125 400.8310852050781 356.2270812988281 L 404.00860595703125 354.1629638671875" stroke-width="0.6000000238418579" fill="rgb(70, 150, 179)" opacity="1.0"/>
    <path d="M 386.7140808105469 420.25714111328125 C 384.46905517578125 426.80572509765625 382.25555419921875 434.1585693359375 385.18756103515625 440.4248046875 C 388.3411865234375 447.154296875 396.60107421875 450.1492919921875 404.0159606933594 449.65020751953125 C 406.8749084472656 449.458984375 409.8124084472656 448.8011474609375 412.0654296875 447.0313720703125 C 413.91815185546875 445.5772705078125 415.1602783203125 443.4974365234375 416.24444580078125 441.4072265625 C 419.67138671875 434.81988525390625 421.99560546875 427.0596923828125 419.6981201171875 420.000244140625 C 417.37774658203125 412.88702392578125 410.134765625 407.66510009765625 402.64654541015625 407.7545471191406 C 395.1583557128906 407.8440246582031 388.0001220703125 413.162841796875 385.8102722167969 420.32940673828125 L 386.7140808105469 420.25714111328125" stroke-width="0.6000000238418579" fill="rgb(140, 28, 33)" opacity="1.0"/>
    <path d="M 410.7472229003906 380.85308837890625 C 409.1622314453125 387.4886474609375 407.5860900878906 394.4107666015625 408.92333984375 401.1056823730469 C 410.2606506347656 407.80047607421875 415.422119140625 414.26409912109375 422.224609375 414.8292236328125 C 430.62310791015625 415.50811767578125 437.495849609375 406.546630859375 437.07080078125 398.11614990234375 C 436.64581298828125 389.6856689453125 430.9200439453125 382.3837890625 424.30377197265625 377.1587219238281 C 422.417724609375 375.3360595703125 419.91705322265625 374.28668212890625 417.295166015625 374.2176818847656 C 414.7230224609375 374.42327880859375 412.3111572265625 377.303955078125 413.52484130859375 379.5955505371094 L 410.7472229003906 380.85308837890625" stroke-width="0.6000000238418579" fill="rgb(159, 159, 159)" opacity="1.0"/>
    <path d="M 435.544921875 370.4335632324219 C 437.0648193359375 377.5011291503906 441.039306640625 384.201904296875 447.128173828125 388.09197998046875 C 453.2169189453125 391.9820861816406 461.4859619140625 392.6776428222656 467.734375 388.9891052246094 C 472.1488037109375 386.37567138671875 475.22393798828125 381.83355712890625 476.736572265625 376.92694091796875 C 478.2491455078125 372.0202941894531 478.316162109375 366.765625 477.6959228515625 361.6678161621094 C 477.42474365234375 359.4495544433594 476.979736328125 357.142333984375 475.56671142578125 355.4183654785156 C 473.9476318359375 353.441162109375 471.3587646484375 352.59283447265625 468.876220703125 351.954345703125 C 461.8675537109375 350.15185546875 454.31561279296875 349.35479736328125 447.49163818359375 351.7667541503906 C 440.66766357421875 354.1787414550781 434.84228515625 360.4650573730469 434.763427734375 367.68438720703125 L 435.544921875 370.4335632324219" stroke-width="0.6000000238418579" fill="rgb(159, 159, 159)" opacity="1.0"/>
    <path d="M 428.59228515625 409.8106994628906 C 423.43603515625 414.5194091796875 417.90869140625 419.976806640625 417.5234375 426.9351806640625 C 417.1392822265625 433.7017822265625 421.72686767578125 439.63299560546875 426.15631103515625 444.7667236328125 C 427.95880126953125 446.849609375 429.877685546875 448.9998779296875 432.44952392578125 449.98193359375 C 436.79833984375 451.6453857421875 441.66473388671875 449.529052734375 445.474853515625 446.8646240234375 C 449.01226806640625 444.39300537109375 452.1763916015625 441.42620849609375 454.8704833984375 438.0550537109375 C 459.2469482421875 432.58294677734375 462.3629150390625 425.039306640625 459.5003662109375 418.646484375 C 457.9599609375 415.1929931640625 454.850830078125 412.61065673828125 451.4317626953125 410.98162841796875 C 448.01275634765625 409.35260009765625 444.25531005859375 408.580810546875 440.5350341796875 407.8717956542969 C 436.814697265625 407.1627197265625 433.14398193359375 406.5457458496094 429.54833984375 407.405517578125 L 428.59228515625 409.8106994628906" stroke-width="0.6000000238418579" fill="rgb(218, 166, 20)" opacity="1.0"/>
    <path d="M 135.80943298339844 216.005126953125 C 133.47866821289062 228.29583740234375 141.55279541015625 240.14886474609375 153.84347534179688 242.4796142578125 C 154.89593505859375 242.67919921875 155.96121215820312 242.80386352539062 157.03131103515625 242.85269165039062 C 161.0975341796875 243.0374755859375 165.38082885742188 242.0125732421875 168.36181640625 239.24386596679688 C 170.88116455078125 236.90435791015625 172.23565673828125 233.58425903320312 173.181884765625 230.28131103515625 C 175.7025146484375 221.4366455078125 175.80899047851562 212.07839965820312 173.49020385742188 203.17864990234375 C 172.87335205078125 200.82723999023438 172.05181884765625 198.4527587890625 170.45358276367188 196.61410522460938 C 167.772216796875 193.52578735351562 163.3199462890625 192.50140380859375 159.243408203125 192.865966796875 C 153.1908416748047 193.40301513671875 147.5441436767578 196.62890625 143.4940185546875 201.16046142578125 C 139.4438934326172 205.6920166015625 136.90414428710938 211.44039916992188 135.63580322265625 217.38372802734375 L 135.80943298339844 216.005126953125" stroke-width="0.6000000238418579" fill="rgb(143, 165, 67)" opacity="1.0"/>
    <path d="M 170.84127807617188 263.33660888671875 C 179.343017578125 274.86279296875 200.65869140625 270.9029846191406 205.42794799804688 257.4957580566406 C 210.1971435546875 244.0885009765625 197.27545166015625 228.017578125 182.9674072265625 228.74969482421875 C 168.65933227539062 229.4818115234375 157.53863525390625 245.2650146484375 160.654541015625 259.262451171875 L 170.84127807617188 263.33660888671875" stroke-width="0.6000000238418579" fill="rgb(233, 92, 21)" opacity="1.0"/>
    <path d="M 145.6300811767578 314.1715087890625 C 140.01141357421875 318.6062316894531 133.75973510742188 324.486328125 134.97251892089844 331.5655212402344 C 135.56480407714844 334.36395263671875 137.01084899902344 336.90966796875 139.1112518310547 338.8514099121094 C 144.1788787841797 343.795654296875 151.32861328125 345.9769592285156 158.29315185546875 344.70355224609375 C 164.1982421875 343.6082458496094 169.2685546875 340.0830383300781 174.089111328125 336.5627746582031 C 176.79376220703125 334.5809020996094 179.604248046875 332.3891296386719 180.7568359375 329.2599792480469 C 182.2589111328125 325.0764465332031 180.36953735351562 320.4574279785156 178.08731079101562 316.6446533203125 C 174.7542724609375 311.0604553222656 170.539306640625 306.05255126953125 165.60601806640625 301.8152160644531 C 163.89865112304688 300.35443115234375 162.013916015625 298.9401550292969 159.80352783203125 298.5406799316406 C 157.72930908203125 298.2743835449219 155.6223907470703 298.61737060546875 153.7397003173828 299.5278015136719 C 147.92138671875 302.0673828125 143.50997924804688 307.0314636230469 141.67164611816406 313.10791015625 L 145.6300811767578 314.1715087890625" stroke-width="0.6000000238418579" fill="rgb(70, 150, 179)" opacity="1.0"/>
    <path d="M 123.99421691894531 302.94000244140625 C 123.99943542480469 295.09613037109375 123.67587280273438 286.401611328125 118.2344970703125 280.759033203125 C 112.38560485839844 274.7011413574219 102.43208312988281 274.51953125 94.66584777832031 277.7738952636719 C 91.67098999023438 279.0273742675781 88.76304626464844 280.8099060058594 86.99664306640625 283.53350830078125 C 85.54373168945312 285.77191162109375 84.974853515625 288.4571228027344 84.57908630371094 291.0955810546875 C 83.32098388671875 299.4144592285156 83.67523193359375 308.5863037109375 88.72723388671875 315.3119201660156 C 93.82359313964844 322.0867919921875 103.503662109375 325.02880859375 111.49871826171875 322.1866760253906 C 119.49375915527344 319.3445739746094 125.21726989746094 311.0172424316406 124.9366455078125 302.5310974121094 L 123.99421691894531 302.94000244140625" stroke-width="0.6000000238418579" fill="rgb(140, 28, 33)" opacity="1.0"/>
    <path d="M 142.4906463623047 272.49932861328125 C 136.48854064941406 275.7877197265625 130.27926635742188 279.2756652832031 126.20036315917969 284.77740478515625 C 122.12155151367188 290.2790832519531 120.78923034667969 298.46929931640625 124.94850158691406 303.9089660644531 C 130.09767150878906 310.6121826171875 141.38949584960938 309.6905517578125 147.3733367919922 303.6988525390625 C 153.357177734375 297.7071228027344 154.93304443359375 288.53289794921875 154.36485290527344 280.0945739746094 C 154.45068359375 277.4648132324219 153.54762268066406 274.8985290527344 151.8338165283203 272.902099609375 C 149.9492645263672 271.1275329589844 146.18312072753906 271.27313232421875 145.29588317871094 273.7185363769531 L 142.4906463623047 272.49932861328125" stroke-width="0.6000000238418579" fill="rgb(159, 159, 159)" opacity="1.0"/>
    <path d="M 161.2542724609375 284.0632019042969 C 160.48513793945312 291.4595642089844 162.23333740234375 299.28057861328125 166.94610595703125 305.02777099609375 C 171.65884399414062 310.77496337890625 179.52310180664062 314.09405517578125 186.81048583984375 312.4811096191406 C 191.96133422851562 311.334228515625 196.41796875 307.8739013671875 199.4630126953125 303.5584716796875 C 202.508056640625 299.2430419921875 204.25042724609375 294.12591552734375 205.27084350585938 288.9429016113281 C 205.71356201171875 286.6871032714844 206.0146484375 284.28887939453125 205.18304443359375 282.152099609375 C 204.23077392578125 279.701904296875 201.96981811523438 278.046142578125 199.74594116210938 276.6295166015625 C 193.4674072265625 272.63018798828125 186.33685302734375 269.44073486328125 178.89401245117188 269.62164306640625 C 171.451171875 269.80255126953125 163.7484130859375 274.0908508300781 161.36737060546875 281.1253967285156 L 161.2542724609375 284.0632019042969" stroke-width="0.6000000238418579" fill="rgb(159, 159, 159)" opacity="1.0"/>
    <path d="M 125.87991333007812 348.1104431152344 C 125.53604125976562 340.6427001953125 124.83027648925781 332.3568420410156 119.36784362792969 327.27459716796875 C 114.06256103515625 322.3246154785156 106.03997802734375 322.0380859375 98.78196716308594 322.16754150390625 C 95.83357238769531 322.2244567871094 92.75001525878906 322.3310241699219 90.1806640625 323.77496337890625 C 85.83363342285156 326.2145690917969 84.24264526367188 331.6684875488281 83.82601928710938 336.6285400390625 C 83.43756103515625 341.2321472167969 83.712158203125 345.8677062988281 84.64137268066406 350.3932800292969 C 86.14750671386719 357.74212646484375 90.221435546875 365.47235107421875 97.44253540039062 367.4945068359375 C 101.33935546875 368.5919189453125 105.59364318847656 367.80169677734375 109.27558898925781 366.10369873046875 C 112.95753479003906 364.40570068359375 116.16580200195312 361.8421325683594 119.2969970703125 359.26617431640625 C 122.42816162109375 356.69024658203125 125.44969177246094 354.0920104980469 127.20449829101562 350.5442810058594 L 125.87991333007812 348.1104431152344" stroke-width="0.6000000238418579" fill="rgb(218, 166, 20)" opacity="1.0"/>
    <path d="M 151.1581268310547 342.2254638671875 C 139.38345336914062 344.46954345703125 131.65736389160156 355.833984375 133.9014434814453 367.6086730957031 C 134.09359741210938 368.616943359375 134.3570556640625 369.61029052734375 134.68978881835938 370.581298828125 C 135.95480346679688 374.2706298828125 138.37440490722656 377.7281494140625 141.8904266357422 379.41168212890625 C 144.861572265625 380.8346862792969 148.29714965820312 380.8746032714844 151.5738983154297 380.556640625 C 160.34375 379.6934814453125 168.72256469726562 376.4978942871094 175.83993530273438 371.30181884765625 C 177.71893310546875 369.9251708984375 179.54656982421875 368.3580322265625 180.62344360351562 366.2869567871094 C 182.43338012695312 362.81109619140625 181.78094482421875 358.482421875 180.02264404296875 354.9770202636719 C 177.41580200195312 349.7709655761719 172.55499267578125 345.8721008300781 167.09173583984375 343.8554382324219 C 161.6285400390625 341.8387756347656 155.6117706298828 341.59619140625 149.8682861328125 342.555419921875 L 151.1581268310547 342.2254638671875" stroke-width="0.6000000238418579" fill="rgb(143, 165, 67)" opacity="1.0"/>
    <path d="M 137.7251739501953 376.3463134765625 C 134.13185119628906 362.3506774902344 112.6973876953125 357.9939270019531 103.16668701171875 368.7306213378906 C 93.63601684570312 379.4673156738281 99.64485168457031 399.3851013183594 113.30439758300781 404.1108703613281 C 126.96394348144531 408.836669921875 143.33377075195312 398.2795104980469 145.7124481201172 384.0090637207031 L 137.7251739501953 376.3463134765625" stroke-width="0.6000000238418579" fill="rgb(233, 92, 21)" opacity="1.0"/>
    <path d="M 181.479248046875 353.4369201660156 C 180.38833618164062 360.30242919921875 179.79727172851562 368.6165771484375 185.324462890625 372.8716125488281 C 187.58990478515625 374.4793395996094 190.2984619140625 375.344482421875 193.07647705078125 375.34759521484375 C 199.94970703125 375.5403137207031 206.489990234375 372.3896179199219 210.623291015625 366.8946838378906 C 214.1175537109375 362.2244873046875 215.41586303710938 356.36932373046875 216.53912353515625 350.6821594238281 C 217.16494750976562 347.4864501953125 217.72808837890625 344.0711669921875 216.49041748046875 341.07843017578125 C 214.80801391601562 337.1028747558594 210.41778564453125 335.049560546875 206.27798461914062 333.83050537109375 C 200.22161865234375 332.038818359375 193.91519165039062 331.23919677734375 187.60330200195312 331.46270751953125 C 185.422607421875 331.5440979003906 183.1458740234375 331.7755432128906 181.304931640625 332.94580078125 C 179.64883422851562 334.1214904785156 178.37060546875 335.7536926269531 177.6260986328125 337.643310546875 C 175.144775390625 343.2873840332031 175.2642822265625 349.7358703613281 177.95306396484375 355.2841491699219 L 181.479248046875 353.4369201660156" stroke-width="0.6000000238418579" fill="rgb(70, 150, 179)" opacity="1.0"/>
  </g>
</svg>
