<?xml version="1.0" ?>
<svg xmlns="http://www.w3.org/2000/svg" version="1.1" width="600" height="600">
  <defs/>
  <g>
    <path d="M 352.6051940917969 344.2683410644531 C 356.74609375 347.18853759765625 363.4597473144531 343.4794616699219 363.5639343261719 338.4461364746094 C 363.66815185546875 333.412841796875 357.53607177734375 329.4604187011719 352.8145446777344 331.3035888671875 C 348.093017578125 333.14678955078125 346.1218566894531 339.6867980957031 348.7306213378906 344.0379333496094 L 352.6051940917969 344.2683410644531" stroke-width="0.6000000238418579" fill="rgb(233, 92, 21)" opacity="1.0"/>
    <path d="M 124.12966918945312 209.87860107421875 C 128.26251220703125 208.942626953125 133.10223388671875 207.39593505859375 134.26004028320312 203.30462646484375 C 134.65744018554688 201.65853881835938 134.5342559814453 199.9296875 133.90744018554688 198.3565673828125 C 132.4613037109375 194.422607421875 129.19808959960938 191.43356323242188 125.152587890625 190.33737182617188 C 121.718505859375 189.416259765625 118.110595703125 190.00625610351562 114.63739013671875 190.65728759765625 C 112.68693542480469 191.02618408203125 110.62640380859375 191.480224609375 109.21249389648438 192.85791015625 C 107.34292602539062 194.70974731445312 107.17410278320312 197.6593017578125 107.42079162597656 200.27838134765625 C 107.77703857421875 204.11181640625 108.75140380859375 207.8623046875 110.30609130859375 211.3843994140625 C 110.84561157226562 212.60028076171875 111.49176025390625 213.83657836914062 112.57070922851562 214.61380004882812 C 113.61090087890625 215.28515625 114.823974609375 215.63934326171875 116.06201171875 215.6331787109375 C 119.818115234375 215.76055908203125 123.4410400390625 214.23382568359375 125.97308349609375 211.45651245117188 L 124.12966918945312 209.87860107421875" stroke-width="0.6000000238418579" fill="rgb(70, 150, 179)" opacity="1.0"/>
    <path d="M 454.51861572265625 413.5972900390625 C 456.8828125 416.518798828125 459.62591552734375 419.65771484375 463.35357666015625 420.1168212890625 C 467.3582763671875 420.60760498046875 471.1182861328125 417.6727294921875 473.02764892578125 414.11859130859375 C 473.764404296875 412.74859619140625 474.3092041015625 411.2078552246094 474.1451416015625 409.6611328125 C 474.01080322265625 408.38958740234375 473.41259765625 407.2184143066406 472.7640380859375 406.1168518066406 C 470.72296142578125 402.6405944824219 467.82440185546875 399.3331604003906 463.91497802734375 398.35345458984375 C 459.97418212890625 397.3687744140625 455.4832763671875 399.193603515625 453.3643798828125 402.6632995605469 C 451.2454833984375 406.13299560546875 451.6268310546875 410.9593811035156 454.2911376953125 414.03375244140625 L 454.51861572265625 413.5972900390625" stroke-width="0.6000000238418579" fill="rgb(140, 28, 33)" opacity="1.0"/>
    <path d="M 90.37867736816406 208.2418212890625 C 94.41670227050781 207.4683837890625 98.60995483398438 206.61907958984375 101.95651245117188 204.22555541992188 C 105.302978515625 201.83206176757812 107.57487487792969 197.39495849609375 106.19981384277344 193.5179443359375 C 104.49176025390625 188.7359619140625 97.86575317382812 187.18087768554688 93.3397216796875 189.5032958984375 C 88.81370544433594 191.82571411132812 86.22111511230469 196.78048706054688 84.99008178710938 201.7098388671875 C 84.45611572265625 203.19757080078125 84.49925231933594 204.83135986328125 85.11100769042969 206.288818359375 C 85.86129760742188 207.65087890625 88.04141235351562 208.2620849609375 88.99958801269531 207.02752685546875 L 90.37867736816406 208.2418212890625" stroke-width="0.6000000238418579" fill="rgb(159, 159, 159)" opacity="1.0"/>
    <path d="M 382.7955627441406 303.8618469238281 C 386.7449951171875 302.678955078125 390.37518310546875 300.11712646484375 392.3121032714844 296.4801025390625 C 394.2489929199219 292.8430480957031 394.2714538574219 288.1106262207031 391.8926086425781 284.7247009277344 C 390.20770263671875 282.33294677734375 387.4867248535156 280.7895812988281 384.6290283203125 280.1509704589844 C 381.77130126953125 279.5123596191406 378.78094482421875 279.7113342285156 375.9107666015625 280.2938537597656 C 374.661865234375 280.548095703125 373.3702392578125 280.9051818847656 372.45391845703125 281.7862548828125 C 371.4028625488281 282.7958984375 371.0373840332031 284.3059997558594 370.786376953125 285.74615478515625 C 370.0777587890625 289.8119812011719 369.9653015136719 294.14129638671875 371.64434814453125 297.9120178222656 C 373.3233947753906 301.6827392578125 377.1600341796875 304.7109680175781 381.26788330078125 304.43017578125 L 382.7955627441406 303.8618469238281" stroke-width="0.6000000238418579" fill="rgb(159, 159, 159)" opacity="1.0"/>
    <path d="M 101.29478454589844 426.732666015625 C 103.27107238769531 423.861572265625 105.34344482421875 420.5845947265625 104.74612426757812 417.15753173828125 C 104.16990661621094 413.8238525390625 101.27032470703125 411.45709228515625 98.53756713867188 409.460205078125 C 97.42622375488281 408.650634765625 96.25068664550781 407.8214416503906 94.88935852050781 407.6339416503906 C 92.58711242675781 407.3154602050781 90.45944213867188 408.8932800292969 88.90716552734375 410.6184997558594 C 87.46578979492188 412.21923828125 86.26171875 414.0186767578125 85.33183288574219 415.961669921875 C 83.82081604003906 419.1160888671875 83.15625 423.1356201171875 85.26907348632812 425.92138671875 C 86.40751647949219 427.427001953125 88.21060180664062 428.33209228515625 90.05682373046875 428.73870849609375 C 91.90304565429688 429.145263671875 93.81716918945312 429.096923828125 95.70614624023438 429.02215576171875 C 97.59512329101562 428.9473876953125 99.44964599609375 428.83349609375 101.10110473632812 428.010009765625 L 101.29478454589844 426.732666015625" stroke-width="0.6000000238418579" fill="rgb(218, 166, 20)" opacity="1.0"/>
    <path d="M 99.48822021484375 147.3763885498047 C 106.70790100097656 148.12217712402344 113.16519165039062 142.8740234375 113.91098022460938 135.6543426513672 C 113.97483825683594 135.03611755371094 113.9947509765625 134.41415405273438 113.97059631347656 133.79310607910156 C 113.87835693359375 131.4332733154297 113.07615661621094 129.0071563720703 111.32955932617188 127.4193115234375 C 109.85366821289062 126.07733154296875 107.867919921875 125.45680236816406 105.91207885742188 125.07145690917969 C 100.67535400390625 124.04719543457031 95.25985717773438 124.44378662109375 90.22821044921875 126.22001647949219 C 88.89898681640625 126.6917724609375 87.56643676757812 127.28294372558594 86.58171081542969 128.2969512939453 C 84.92753601074219 129.998291015625 84.55328369140625 132.6224365234375 84.963623046875 134.9613494873047 C 85.57038879394531 138.43421936035156 87.7117919921875 141.54080200195312 90.5299072265625 143.6604461669922 C 93.34799194335938 145.78009033203125 96.79562377929688 146.96697998046875 100.29371643066406 147.40928649902344 L 99.48822021484375 147.3763885498047" stroke-width="0.6000000238418579" fill="rgb(143, 165, 67)" opacity="1.0"/>
    <path d="M 459.563232421875 346.17803955078125 C 462.46533203125 352.95086669921875 473.6068115234375 353.4751281738281 477.57257080078125 347.3213195800781 C 481.538330078125 341.1675109863281 476.95721435546875 331.59857177734375 469.705078125 330.2821044921875 C 462.45294189453125 328.9656677246094 455.026611328125 335.562255859375 454.94061279296875 342.9392395019531 L 459.563232421875 346.17803955078125" stroke-width="0.6000000238418579" fill="rgb(233, 92, 21)" opacity="1.0"/>
    <path d="M 105.00595092773438 222.578369140625 C 107.86813354492188 219.74932861328125 110.99366760253906 216.07308959960938 109.87353515625 212.19345092773438 C 109.36767578125 210.6668701171875 108.40060424804688 209.3348388671875 107.10563659667969 208.3812255859375 C 103.965087890625 205.9354248046875 99.83389282226562 205.16354370117188 96.02210998535156 206.31036376953125 C 92.79115295410156 207.29147338867188 90.17851257324219 209.57806396484375 87.70510864257812 211.8463134765625 C 86.31776428222656 213.12271118164062 84.88442993164062 214.52301025390625 84.43603515625 216.34344482421875 C 83.85824584960938 218.77484130859375 85.20263671875 221.23760986328125 86.71614074707031 223.22531127929688 C 88.92750549316406 226.1370849609375 91.5955810546875 228.6717529296875 94.61689758300781 230.73098754882812 C 95.66217041015625 231.44046020507812 96.80364990234375 232.11285400390625 98.06365966796875 232.19790649414062 C 99.2392578125 232.217041015625 100.39505004882812 231.89373779296875 101.39007568359375 231.267333984375 C 104.48228454589844 229.48468017578125 106.63682556152344 226.435302734375 107.2841796875 222.92523193359375 L 105.00595092773438 222.578369140625" stroke-width="0.6000000238418579" fill="rgb(70, 150, 179)" opacity="1.0"/>
    <path d="M 104.34368896484375 80.24093627929688 C 105.05914306640625 83.90599060058594 106.00607299804688 87.93838500976562 109.06466674804688 90.07652282714844 C 112.35165405273438 92.37139892578125 117.01847839355469 91.54525756835938 120.34893798828125 89.31405639648438 C 121.63339233398438 88.454345703125 122.82879638671875 87.35540771484375 123.40476989746094 85.92129516601562 C 123.87869262695312 84.7425537109375 123.89871215820312 83.43600463867188 123.84213256835938 82.1671142578125 C 123.66851806640625 78.16545104980469 122.66357421875 73.91287231445312 119.68775939941406 71.23309326171875 C 116.68672180175781 68.53437805175781 111.89501953125 68.04586791992188 108.419921875 70.10542297363281 C 104.94483947753906 72.16497802734375 103.03302001953125 76.57925415039062 103.94081115722656 80.51823425292969 L 104.34368896484375 80.24093627929688" stroke-width="0.6000000238418579" fill="rgb(140, 28, 33)" opacity="1.0"/>
    <path d="M 92.23641967773438 408.9305419921875 C 96.15399169921875 406.894287109375 100.20797729492188 404.7322692871094 102.91635131835938 401.2413330078125 C 105.62466430664062 397.7504577636719 106.59951782226562 392.48681640625 103.99363708496094 388.91973876953125 C 100.76713562011719 384.52374267578125 93.47125244140625 384.9588623046875 89.52734375 388.7389221191406 C 85.58343505859375 392.51898193359375 84.4376220703125 398.4138488769531 84.68505859375 403.8643493652344 C 84.59262084960938 405.55926513671875 85.13885498046875 407.2271728515625 86.21604919433594 408.5389709472656 C 87.406494140625 409.7100830078125 89.83758544921875 409.6693115234375 90.4443359375 408.1046142578125 L 92.23641967773438 408.9305419921875" stroke-width="0.6000000238418579" fill="rgb(159, 159, 159)" opacity="1.0"/>
    <path d="M 477.64056396484375 69.39564514160156 C 478.8175048828125 66.01373291015625 478.861328125 62.154937744140625 477.2867431640625 58.94093322753906 C 475.712158203125 55.72694396972656 472.3924560546875 53.30317687988281 468.7987060546875 53.25482177734375 C 466.2578125 53.223846435546875 463.78692626953125 54.35383605957031 461.88336181640625 56.040435791015625 C 459.979736328125 57.72705078125 458.5982666015625 59.93321228027344 457.5478515625 62.24995422363281 C 457.09136962890625 63.25840759277344 456.685546875 64.34927368164062 456.8394775390625 65.44259643554688 C 457.015380859375 66.6961669921875 457.892333984375 67.7218017578125 458.7783203125 68.63125610351562 C 461.27978515625 71.19883728027344 464.2698974609375 73.48086547851562 467.7784423828125 74.21759033203125 C 471.28704833984375 74.95433044433594 475.37078857421875 73.7945556640625 477.2633056640625 70.76016235351562 L 477.64056396484375 69.39564514160156" stroke-width="0.6000000238418579" fill="rgb(159, 159, 159)" opacity="1.0"/>
    <path d="M 89.251708984375 109.21292114257812 C 93.43452453613281 110.29373168945312 98.1307373046875 111.31390380859375 101.8670654296875 109.16191101074219 C 105.50360107421875 107.07421875 107.02699279785156 102.6922607421875 108.1905517578125 98.66177368164062 C 108.66082763671875 97.02374267578125 109.12667846679688 95.3026123046875 108.76641845703125 93.63790893554688 C 108.15878295898438 90.82199096679688 105.41741943359375 89.01527404785156 102.74896240234375 87.941162109375 C 100.2725830078125 86.94325256347656 97.66574096679688 86.30610656738281 95.00822448730469 86.04920959472656 C 90.69331359863281 85.63052368164062 85.7308349609375 86.5650634765625 83.38525390625 90.20904541015625 C 82.1160888671875 92.1744384765625 81.82858276367188 94.65847778320312 82.13983154296875 96.98086547851562 C 82.45108032226562 99.30328369140625 83.32095336914062 101.51136779785156 84.21080017089844 103.67898559570312 C 85.10061645507812 105.84661865234375 86.02142333984375 107.95745849609375 87.68215942382812 109.53030395507812 L 89.251708984375 109.21292114257812" stroke-width="0.6000000238418579" fill="rgb(218, 166, 20)" opacity="1.0"/>
    <path d="M 128.5906219482422 138.08163452148438 C 135.17498779296875 137.6232452392578 140.14109802246094 131.91397094726562 139.68270874023438 125.32958984375 C 139.64346313476562 124.76577758789062 139.5642547607422 124.2054443359375 139.44570922851562 123.65283203125 C 138.994873046875 121.5531005859375 137.89761352539062 119.50473022460938 136.08509826660156 118.354736328125 C 134.55349731445312 117.38276672363281 132.67767333984375 117.13668823242188 130.86532592773438 117.09664916992188 C 126.01400756835938 116.99612426757812 121.2242431640625 118.19644165039062 116.99359130859375 120.57284545898438 C 115.87637329101562 121.202880859375 114.77482604980469 121.9404296875 114.05084228515625 123.00251770019531 C 112.8343505859375 124.78483581542969 112.90850830078125 127.19415283203125 113.64108276367188 129.22552490234375 C 114.7265625 132.2421417236328 117.1297607421875 134.69114685058594 119.98519897460938 136.15037536621094 C 122.84060668945312 137.609619140625 126.11447143554688 138.13497924804688 129.31739807128906 137.98541259765625 L 128.5906219482422 138.08163452148438" stroke-width="0.6000000238418579" fill="rgb(143, 165, 67)" opacity="1.0"/>
    <path d="M 394.2144775390625 309.2124938964844 C 397.36773681640625 317.4716796875 410.6993103027344 318.63629150390625 415.749755859375 311.44970703125 C 420.8001708984375 304.2630920410156 415.7685546875 292.5710754394531 407.1377868652344 290.6438903808594 C 398.50701904296875 288.7166748046875 389.2866516113281 296.2676086425781 388.82855224609375 305.1072692871094 L 394.2144775390625 309.2124938964844" stroke-width="0.6000000238418579" fill="rgb(233, 92, 21)" opacity="1.0"/>
    <path d="M 124.8394775390625 111.69482421875 C 128.87156677246094 110.69039916992188 133.5838165283203 109.07241821289062 134.63296508789062 105.037109375 C 134.98800659179688 103.41497802734375 134.8309326171875 101.72264099121094 134.18338012695312 100.19357299804688 C 132.6829833984375 96.36715698242188 129.4210205078125 93.50532531738281 125.43190002441406 92.51560974121094 C 122.04586791992188 91.68472290039062 118.52114868164062 92.33891296386719 115.12977600097656 93.05010986328125 C 113.22535705566406 93.45272827148438 111.21481323242188 93.94111633300781 109.85757446289062 95.32148742675781 C 108.0635986328125 97.17623901367188 107.96002197265625 100.07147216796875 108.25689697265625 102.63394165039062 C 108.6866455078125 106.3846435546875 109.72067260742188 110.04107666015625 111.31883239746094 113.46139526367188 C 111.873291015625 114.64210510253906 112.53271484375 115.84056091308594 113.60682678222656 116.57987976074219 C 114.64071655273438 117.21621704101562 115.83741760253906 117.5379638671875 117.05101013183594 117.50592041015625 C 120.736083984375 117.55191040039062 124.255859375 115.97903442382812 126.67987060546875 113.20306396484375 L 124.8394775390625 111.69482421875" stroke-width="0.6000000238418579" fill="rgb(70, 150, 179)" opacity="1.0"/>
    <path d="M 422.12091064453125 64.95635986328125 C 423.5777587890625 67.79046630859375 425.31146240234375 70.87069702148438 428.326171875 71.8968505859375 C 431.5653076171875 72.99722290039062 435.1942138671875 71.21180725097656 437.3941650390625 68.59210205078125 C 438.2427978515625 67.58241271972656 438.96160888671875 66.39779663085938 439.0931396484375 65.0855712890625 C 439.20166015625 64.00686645507812 438.90771484375 62.93121337890625 438.56005859375 61.90461730957031 C 437.4674072265625 58.665924072265625 435.6337890625 55.41899108886719 432.558349609375 53.92926025390625 C 429.4576416015625 52.429962158203125 425.4141845703125 53.16749572753906 423.054931640625 55.68084716796875 C 420.69573974609375 58.1942138671875 420.17706298828125 62.266357421875 421.8565673828125 65.27932739257812 L 422.12091064453125 64.95635986328125" stroke-width="0.6000000238418579" fill="rgb(140, 28, 33)" opacity="1.0"/>
    <path d="M 117.64561462402344 424.20013427734375 C 119.7850341796875 420.863525390625 121.97445678710938 417.3680419921875 122.522216796875 413.439697265625 C 123.0699462890625 409.51129150390625 121.47567749023438 404.9778137207031 117.85235595703125 403.36590576171875 C 113.37530517578125 401.3861083984375 107.89010620117188 404.986572265625 106.509765625 409.69244384765625 C 105.12942504882812 414.3983154296875 106.872802734375 419.4996337890625 109.50210571289062 423.632080078125 C 110.1878662109375 424.992919921875 111.3587646484375 426.047119140625 112.7838134765625 426.5867919921875 C 114.23410034179688 426.96630859375 116.10844421386719 425.84765625 115.88125610351562 424.35833740234375 L 117.64561462402344 424.20013427734375" stroke-width="0.6000000238418579" fill="rgb(159, 159, 159)" opacity="1.0"/>
    <path d="M 471.4156494140625 445.4407958984375 C 472.2991943359375 442.14373779296875 472.0723876953125 438.47210693359375 470.35174560546875 435.526123046875 C 468.631103515625 432.5802001953125 465.30633544921875 430.5069580078125 461.8863525390625 430.7110595703125 C 459.4686279296875 430.8583984375 457.1982421875 432.10467529296875 455.505859375 433.840576171875 C 453.8134765625 435.5765380859375 452.653564453125 437.77008056640625 451.81622314453125 440.04571533203125 C 451.452392578125 441.0362548828125 451.1424560546875 442.1015625 451.36492919921875 443.1302490234375 C 451.619384765625 444.309814453125 452.5245361328125 445.223876953125 453.43017578125 446.02685546875 C 455.9869384765625 448.293701171875 458.988525390625 450.255126953125 462.3753662109375 450.71142578125 C 465.76220703125 451.1676025390625 469.56396484375 449.78082275390625 471.1519775390625 446.76434326171875 L 471.4156494140625 445.4407958984375" stroke-width="0.6000000238418579" fill="rgb(159, 159, 159)" opacity="1.0"/>
    <path d="M 452.34649658203125 292.6812744140625 C 453.04376220703125 288.2160339355469 453.6253662109375 283.2225036621094 451.002685546875 279.5528259277344 C 448.4571533203125 275.9804992675781 443.7392578125 274.84283447265625 439.4241943359375 274.0438537597656 C 437.67071533203125 273.72186279296875 435.8311767578125 273.4129638671875 434.135009765625 273.95831298828125 C 431.2655029296875 274.8790588378906 429.6650390625 277.9178771972656 428.81982421875 280.80584716796875 C 428.0343017578125 283.486083984375 427.6376953125 286.2652282714844 427.64215087890625 289.0582275390625 C 427.647705078125 293.5932312011719 429.12841796875 298.66400146484375 433.16204833984375 300.73309326171875 C 435.33807373046875 301.85333251953125 437.95355224609375 301.89849853515625 440.33953857421875 301.33685302734375 C 442.72552490234375 300.77520751953125 444.935302734375 299.6436767578125 447.1009521484375 298.4954833984375 C 449.2666015625 297.3473205566406 451.3699951171875 296.1727294921875 452.8375244140625 294.2828369140625 L 452.34649658203125 292.6812744140625" stroke-width="0.6000000238418579" fill="rgb(218, 166, 20)" opacity="1.0"/>
    <path d="M 426.4085693359375 366.60736083984375 C 424.3155517578125 370.5680847167969 425.8297119140625 375.4756164550781 429.7904052734375 377.5686340332031 C 430.12957763671875 377.74786376953125 430.48101806640625 377.90277099609375 430.84210205078125 378.03228759765625 C 432.2142333984375 378.5240478515625 433.7882080078125 378.62469482421875 435.1002197265625 377.9913024902344 C 436.208984375 377.4561462402344 437.0224609375 376.4626159667969 437.69439697265625 375.43194580078125 C 439.48919677734375 372.67059326171875 440.51190185546875 369.4790344238281 440.65625 366.18878173828125 C 440.6929931640625 365.31903076171875 440.66204833984375 364.4197998046875 440.308837890625 363.6221008300781 C 439.7166748046875 362.2825622558594 438.30084228515625 361.4627685546875 436.8673095703125 361.15789794921875 C 434.7392578125 360.70379638671875 432.46673583984375 361.2127380371094 430.60302734375 362.3367919921875 C 428.73931884765625 363.4608154296875 427.2642822265625 365.1604919433594 426.203857421875 367.0608825683594 L 426.4085693359375 366.60736083984375" stroke-width="0.6000000238418579" fill="rgb(143, 165, 67)" opacity="1.0"/>
    <path d="M 452.52044677734375 348.0421142578125 C 458.1048583984375 344.2547302246094 456.6380615234375 334.14654541015625 450.4154052734375 331.65155029296875 C 444.19287109375 329.15655517578125 436.3865966796875 334.93994140625 436.464599609375 341.68914794921875 C 436.5426025390625 348.4383239746094 443.7652587890625 353.9675598144531 450.4127197265625 352.7615966796875 L 452.52044677734375 348.0421142578125" stroke-width="0.6000000238418579" fill="rgb(233, 92, 21)" opacity="1.0"/>
    <path d="M 451.51153564453125 70.90534973144531 C 454.8253173828125 69.95147705078125 458.684814453125 68.46835327148438 459.4339599609375 65.09030151367188 C 459.67974853515625 63.73439025878906 459.498779296875 62.335601806640625 458.9158935546875 61.0869140625 C 457.556884765625 57.95854187011719 454.765869140625 55.68293762207031 451.4278564453125 54.98173522949219 C 448.5948486328125 54.3941650390625 445.6912841796875 55.04237365722656 442.9000244140625 55.73387145996094 C 441.332763671875 56.124847412109375 439.679931640625 56.590179443359375 438.59576416015625 57.775634765625 C 437.16357421875 59.36761474609375 437.16448974609375 61.771820068359375 437.48748779296875 63.888031005859375 C 437.95635986328125 66.98573303222656 438.92352294921875 69.98710632324219 440.3514404296875 72.7757568359375 C 440.8466796875 73.73832702636719 441.42950439453125 74.71246337890625 442.3424072265625 75.29339599609375 C 443.21893310546875 75.79013061523438 444.2210693359375 76.02110290527344 445.2265625 75.95814514160156 C 448.2840576171875 75.88580322265625 451.15594482421875 74.47586059570312 453.0830078125 72.10098266601562 L 451.51153564453125 70.90534973144531" stroke-width="0.6000000238418579" fill="rgb(70, 150, 179)" opacity="1.0"/>
    <path d="M 454.2696533203125 399.8057556152344 C 454.34539794921875 396.20635986328125 454.2781982421875 392.2135314941406 451.833984375 389.5733337402344 C 449.2066650390625 386.73876953125 444.640869140625 386.5623474121094 441.046630859375 387.98309326171875 C 439.6605224609375 388.5302734375 438.3094482421875 389.3210754394531 437.47344970703125 390.55438232421875 C 436.7857666015625 391.5679626464844 436.4996337890625 392.79486083984375 436.2933349609375 394.00189208984375 C 435.63818359375 397.8075866699219 435.7149658203125 402.01971435546875 437.97039794921875 405.15325927734375 C 440.2457275390625 408.3098449707031 444.6602783203125 409.7503967285156 448.35565185546875 408.5209655761719 C 452.051025390625 407.29150390625 454.75537109375 403.52374267578125 454.7059326171875 399.6269226074219 L 454.2696533203125 399.8057556152344" stroke-width="0.6000000238418579" fill="rgb(140, 28, 33)" opacity="1.0"/>
    <path d="M 124.3614501953125 210.941162109375 C 119.10406494140625 213.81878662109375 113.6651611328125 216.87109375 110.09120178222656 221.68771362304688 C 106.51731872558594 226.5042724609375 105.34767150878906 233.67623901367188 108.9881591796875 238.44140625 C 113.49508666992188 244.31341552734375 123.384033203125 243.51031494140625 128.62637329101562 238.26528930664062 C 133.8687286376953 233.020263671875 135.2519989013672 224.98666381835938 134.7574005126953 217.59674072265625 C 134.83348083496094 215.2938232421875 134.04354858398438 213.04611206054688 132.54342651367188 211.29718017578125 C 130.89369201660156 209.74249267578125 127.59552001953125 209.86865234375 126.81765747070312 212.00982666015625 L 124.3614501953125 210.941162109375" stroke-width="0.6000000238418579" fill="rgb(159, 159, 159)" opacity="1.0"/>
    <path d="M 108.66278076171875 238.17822265625 C 103.268798828125 236.301513671875 97.11431884765625 236.23199462890625 91.98844909667969 238.74371337890625 C 86.86257934570312 241.25537109375 82.99726867675781 246.55038452148438 82.92056274414062 252.28216552734375 C 82.87144470214844 256.3346252441406 84.67398071289062 260.2752990722656 87.36419677734375 263.3111877441406 C 90.05441284179688 266.3470764160156 93.57321166992188 268.5502014160156 97.26834106445312 270.2251892089844 C 98.87680053710938 270.9531555175781 100.61666870117188 271.6003112792969 102.36042785644531 271.35467529296875 C 104.3597412109375 271.073974609375 105.99543762207031 269.6751403808594 107.44586181640625 268.2619323730469 C 111.54061889648438 264.2720947265625 115.17991638183594 259.50274658203125 116.35453796386719 253.9068603515625 C 117.52915954589844 248.3109130859375 115.67892456054688 241.79779052734375 110.839111328125 238.77978515625 L 108.66278076171875 238.17822265625" stroke-width="0.6000000238418579" fill="rgb(159, 159, 159)" opacity="1.0"/>
    <path d="M 296.240966796875 97.01190185546875 C 294.17144775390625 101.72842407226562 292.07537841796875 107.06072998046875 293.89556884765625 111.86822509765625 C 295.65911865234375 116.5460205078125 300.525634765625 119.17437744140625 305.047119140625 121.31224060058594 C 306.88519287109375 122.17802429199219 308.8218994140625 123.054443359375 310.8497314453125 122.94789123535156 C 314.279541015625 122.76968383789062 316.92852783203125 119.88796997070312 318.701416015625 116.95237731933594 C 320.3480224609375 114.228271484375 321.59490966796875 111.28182983398438 322.4039611816406 108.20327758789062 C 323.7194519042969 103.20504760742188 323.5658264160156 97.1866455078125 319.724609375 93.73141479492188 C 317.653564453125 91.86302185058594 314.7850341796875 91.051025390625 311.9925231933594 90.9744873046875 C 309.20001220703125 90.89797973632812 306.4355163574219 91.50067138671875 303.71484375 92.13458251953125 C 300.9941711425781 92.76849365234375 298.33441162109375 93.44964599609375 296.1667175292969 95.10421752929688 L 296.240966796875 97.01190185546875" stroke-width="0.6000000238418579" fill="rgb(218, 166, 20)" opacity="1.0"/>
    <path d="M 228.212158203125 120.94784545898438 C 220.9637451171875 114.73736572265625 210.05316162109375 115.57876586914062 203.8426513671875 122.82716369628906 C 203.31085205078125 123.44784545898438 202.82379150390625 124.10546875 202.385009765625 124.79510498046875 C 200.7183837890625 127.41580200195312 199.76980590820312 130.6396484375 200.46987915039062 133.6639404296875 C 201.06124877929688 136.21974182128906 202.74395751953125 138.3770751953125 204.57037353515625 140.25775146484375 C 209.4661865234375 145.2850799560547 215.6187744140625 148.90982055664062 222.3890380859375 150.75547790527344 C 224.179443359375 151.24032592773438 226.06280517578125 151.5985107421875 227.8865966796875 151.23916625976562 C 230.94876098632812 150.63768005371094 233.31765747070312 148.08033752441406 234.62469482421875 145.24412536621094 C 236.56808471679688 141.0347442626953 236.57791137695312 136.07272338867188 235.1173095703125 131.6713409423828 C 233.65667724609375 127.26998901367188 230.81719970703125 123.406005859375 227.36578369140625 120.309326171875 L 228.212158203125 120.94784545898438" stroke-width="0.6000000238418579" fill="rgb(143, 165, 67)" opacity="1.0"/>
    <path d="M 216.6610107421875 90.8634033203125 C 216.59930419921875 102.3604736328125 232.21542358398438 110.0433349609375 241.71923828125 103.70553588867188 C 251.22299194335938 97.36767578125 250.62203979492188 80.82490539550781 241.06411743164062 74.4285888671875 C 231.5062255859375 68.03228759765625 216.77520751953125 72.85040283203125 212.06182861328125 83.35260009765625 L 216.6610107421875 90.8634033203125" stroke-width="0.6000000238418579" fill="rgb(233, 92, 21)" opacity="1.0"/>
    <path d="M 200.359375 97.11334228515625 C 198.40869140625 91.97099304199219 195.54525756835938 86.03065490722656 190.0775146484375 85.28277587890625 C 187.8900146484375 85.06982421875 185.6903076171875 85.54092407226562 183.78192138671875 86.63111877441406 C 178.98745727539062 89.20147705078125 175.7362060546875 93.93623352050781 175.05926513671875 99.33395385742188 C 174.4967041015625 103.9141845703125 175.90771484375 108.4444580078125 177.372802734375 112.79057312011719 C 178.19976806640625 115.23062133789062 179.15606689453125 117.79672241210938 181.18255615234375 119.36468505859375 C 183.90081787109375 121.4324951171875 187.72222900390625 121.1158447265625 191.043701171875 120.32498168945312 C 195.9061279296875 119.173583984375 200.55010986328125 117.24278259277344 204.7955322265625 114.607421875 C 206.26065063476562 113.69404602050781 207.732666015625 112.63995361328125 208.536376953125 111.11260986328125 C 209.2110595703125 109.65426635742188 209.44680786132812 108.03109741210938 209.21490478515625 106.44107055664062 C 208.6990966796875 101.59054565429688 206.0814208984375 97.21044921875 202.0538330078125 94.45864868164062 L 200.359375 97.11334228515625" stroke-width="0.6000000238418579" fill="rgb(70, 150, 179)" opacity="1.0"/>
    <path d="M 261.6412353515625 131.1640625 C 257.4654846191406 134.41868591308594 252.9736328125 138.20150756835938 252.23101806640625 143.44003295898438 C 251.4366455078125 149.06785583496094 255.4735107421875 154.4393768310547 260.4302673339844 157.22018432617188 C 262.3409423828125 158.29315185546875 264.49700927734375 159.10015869140625 266.67974853515625 158.90899658203125 C 268.47412109375 158.75250244140625 270.13909912109375 157.9400634765625 271.7073669433594 157.054931640625 C 276.6561584472656 154.26968383789062 281.38922119140625 150.27232360839844 282.86981201171875 144.79119873046875 C 284.35821533203125 139.26605224609375 281.9036560058594 132.89369201660156 277.0711975097656 129.8199462890625 C 272.23876953125 126.74618530273438 265.43109130859375 127.15896606445312 261.03228759765625 130.83242797851562 L 261.6412353515625 131.1640625" stroke-width="0.6000000238418579" fill="rgb(140, 28, 33)" opacity="1.0"/>
    <path d="M 301.2042236328125 122.52938842773438 C 295.8409729003906 124.86636352539062 290.2859802246094 127.35722351074219 286.3894348144531 131.72669982910156 C 282.49298095703125 136.09613037109375 280.7275390625 142.96609497070312 283.8492431640625 147.91763305664062 C 287.71630859375 154.02117919921875 297.4004821777344 154.1068115234375 302.95654296875 149.46701049804688 C 308.5125732421875 144.82720947265625 310.56121826171875 137.1383056640625 310.7278137207031 129.91064453125 C 311.0035705566406 127.67843627929688 310.4325256347656 125.424072265625 309.12738037109375 123.59234619140625 C 307.6597595214844 121.93637084960938 304.4422607421875 121.77005004882812 303.49847412109375 123.78353881835938 L 301.2042236328125 122.52938842773438" stroke-width="0.6000000238418579" fill="rgb(159, 159, 159)" opacity="1.0"/>
    <path d="M 195.6412353515625 133.5285186767578 C 192.23175048828125 128.8845672607422 187.1568603515625 125.3076171875 181.46087646484375 124.46389770507812 C 175.764892578125 123.62016296386719 169.52490234375 125.81028747558594 166.18365478515625 130.52972412109375 C 163.82562255859375 133.86941528320312 163.07025146484375 138.17495727539062 163.56997680664062 142.23617553710938 C 164.0697021484375 146.2974090576172 165.73419189453125 150.140380859375 167.84719848632812 153.645263671875 C 168.76763916015625 155.16998291015625 169.84344482421875 156.70266723632812 171.43304443359375 157.49563598632812 C 173.25506591796875 158.40557861328125 175.41424560546875 158.17840576171875 177.42767333984375 157.83334350585938 C 183.11203002929688 156.85910034179688 188.86358642578125 154.97657775878906 193.03955078125 150.99781799316406 C 197.21551513671875 147.01904296875 199.40216064453125 140.54844665527344 197.1058349609375 135.2729034423828 L 195.6412353515625 133.5285186767578" stroke-width="0.6000000238418579" fill="rgb(159, 159, 159)" opacity="1.0"/>
    <path d="M 276.9095458984375 97.37791442871094 C 271.776611328125 98.45417785644531 266.11773681640625 99.87286376953125 263.2112731933594 104.22607421875 C 260.3787536621094 108.45559692382812 261.0807189941406 114.04351806640625 261.98492431640625 119.05526733398438 C 262.3552551269531 121.0906982421875 262.7751159667969 123.21414184570312 264.0634460449219 124.83140563964844 C 266.24078369140625 127.5679931640625 270.1962585449219 128.05767822265625 273.67791748046875 127.78952026367188 C 276.90960693359375 127.5418701171875 280.0889587402344 126.83145141601562 283.11871337890625 125.68002319335938 C 288.03887939453125 123.81224060058594 292.9349365234375 120.1234130859375 293.52490234375 114.89573669433594 C 293.8475036621094 112.07395935058594 292.82281494140625 109.21649169921875 291.2336730957031 106.85725402832031 C 289.6445617675781 104.49801635742188 287.5091857910156 102.56396484375 285.3738708496094 100.68466186523438 C 283.23858642578125 98.80538940429688 281.10015869140625 97.00454711914062 278.44635009765625 96.18746948242188 L 276.9095458984375 97.37791442871094" stroke-width="0.6000000238418579" fill="rgb(218, 166, 20)" opacity="1.0"/>
    <path d="M 231.40164184570312 118.05831909179688 C 229.77166748046875 127.15184020996094 235.82208251953125 135.84494018554688 244.91561889648438 137.4748992919922 C 245.69427490234375 137.61447143554688 246.48187255859375 137.69862365722656 247.27249145507812 137.72674560546875 C 250.276611328125 137.83302307128906 253.43206787109375 137.0443878173828 255.61285400390625 134.9776611328125 C 257.4559326171875 133.2313232421875 258.4315490722656 130.76950073242188 259.10577392578125 128.32337951660156 C 260.90155029296875 121.77322387695312 260.91070556640625 114.8616943359375 259.13232421875 108.3067626953125 C 258.6593322753906 106.57490539550781 258.0350646972656 104.82754516601562 256.8411560058594 103.48162841796875 C 254.83816528320312 101.22091674804688 251.542724609375 100.49749755859375 248.5350341796875 100.79696655273438 C 244.06942749023438 101.23846435546875 239.92349243164062 103.66258239746094 236.96624755859375 107.03903198242188 C 234.009033203125 110.41549682617188 232.1761474609375 114.67929077148438 231.28363037109375 119.07765197753906 L 231.40164184570312 118.05831909179688" stroke-width="0.6000000238418579" fill="rgb(143, 165, 67)" opacity="1.0"/>
    <path d="M 254.0655517578125 85.51237487792969 C 254.201904296875 95.64505004882812 268.0909118652344 102.1563720703125 276.3608703613281 96.41355895996094 C 284.63079833984375 90.67071533203125 283.8266906738281 76.10256958007812 275.2977600097656 70.62448120117188 C 266.7688293457031 65.14640808105469 253.86724853515625 69.63674926757812 249.887939453125 78.96987915039062 L 254.0655517578125 85.51237487792969" stroke-width="0.6000000238418579" fill="rgb(233, 92, 21)" opacity="1.0"/>
    <path d="M 337.92120361328125 74.22311401367188 C 334.99078369140625 69.83529663085938 331.03521728515625 64.89785766601562 325.7624206542969 65.37542724609375 C 323.6714782714844 65.64712524414062 321.7163391113281 66.56097412109375 320.1667785644531 67.99093627929688 C 316.237548828125 71.42585754394531 314.2169494628906 76.55216979980469 314.7457275390625 81.7442626953125 C 315.20556640625 86.14744567871094 317.4997253417969 90.07919311523438 319.8048095703125 93.82710266113281 C 321.10308837890625 95.93035888671875 322.5494384765625 98.12362670898438 324.781494140625 99.15339660644531 C 327.7678527832031 100.5015869140625 331.27239990234375 99.38311767578125 334.20745849609375 97.92886352539062 C 338.5055847167969 95.80593872070312 342.4317626953125 93.00132751464844 345.8337097167969 89.62380981445312 C 347.0068664550781 88.45455932617188 348.1562194824219 87.15225219726562 348.57891845703125 85.55136108398438 C 348.89581298828125 84.04273986816406 348.7668762207031 82.4744873046875 348.2078552246094 81.037841796875 C 346.68170166015625 76.61404418945312 343.2917175292969 73.08241271972656 338.9340515136719 71.37652587890625 L 337.92120361328125 74.22311401367188" stroke-width="0.6000000238418579" fill="rgb(70, 150, 179)" opacity="1.0"/>
    <path d="M 333.7670593261719 138.57322692871094 C 333.1528625488281 133.683349609375 332.2667541503906 128.28909301757812 328.4306945800781 125.20011901855469 C 324.30792236328125 121.88433837890625 318.0890808105469 122.55467224121094 313.5041809082031 125.19461059570312 C 311.7359924316406 126.21171569824219 310.06365966796875 127.55177307128906 309.1769714355469 129.38858032226562 C 308.447509765625 130.89825439453125 308.30426025390625 132.61685180664062 308.2652587890625 134.29269409179688 C 308.1358642578125 139.5773162841797 309.07867431640625 145.26669311523438 312.7572937011719 149.06143188476562 C 316.4674072265625 152.8833770751953 322.7330627441406 153.95526123046875 327.4930419921875 151.5542755126953 C 332.2530517578125 149.1532745361328 335.165283203125 143.51190185546875 334.32232666015625 138.244140625 L 333.7670593261719 138.57322692871094" stroke-width="0.6000000238418579" fill="rgb(140, 28, 33)" opacity="1.0"/>
    <path d="M 346.7645568847656 103.05635070800781 C 341.3391418457031 102.2723388671875 335.68505859375 101.51632690429688 330.4254150390625 103.07504272460938 C 325.1658935546875 104.63374328613281 320.3704528808594 109.23570251464844 320.4147033691406 114.72024536132812 C 320.48443603515625 121.49021911621094 328.156982421875 126.33572387695312 334.8719787597656 125.38031005859375 C 341.58697509765625 124.42491149902344 347.0119934082031 119.31024169921875 350.710205078125 113.63461303710938 C 352.0310363769531 111.99237060546875 352.688232421875 109.91474914550781 352.55206298828125 107.81167602539062 C 352.1998291015625 105.76849365234375 349.71868896484375 104.04878234863281 347.97357177734375 105.18722534179688 L 346.7645568847656 103.05635070800781" stroke-width="0.6000000238418579" fill="rgb(159, 159, 159)" opacity="1.0"/>
    <path d="M 346.1722717285156 119.84983825683594 C 341.5236511230469 121.87144470214844 337.4664306640625 125.52978515625 335.6336364746094 130.253173828125 C 333.8008117675781 134.97657775878906 334.46539306640625 140.75732421875 337.8646545410156 144.54310607910156 C 340.2713317871094 147.21664428710938 343.8188171386719 148.7029571533203 347.4009704589844 149.06472778320312 C 350.9831237792969 149.426513671875 354.604736328125 148.74635314941406 358.0235595703125 147.61550903320312 C 359.51104736328125 147.12249755859375 361.0356750488281 146.49771118164062 362.0255432128906 145.28807067871094 C 363.1610412597656 143.9017791748047 363.38641357421875 142.00479125976562 363.4822692871094 140.2099151611328 C 363.7528381347656 135.1426239013672 363.2571105957031 129.84085083007812 360.65594482421875 125.48298645019531 C 358.05474853515625 121.1251220703125 352.9281005859375 117.98916625976562 347.9542236328125 118.93264770507812 L 346.1722717285156 119.84983825683594" stroke-width="0.6000000238418579" fill="rgb(159, 159, 159)" opacity="1.0"/>
    <path d="M 365.14984130859375 96.43435668945312 C 360.8027038574219 97.46005249023438 356.0151062011719 98.7884521484375 353.63336181640625 102.55661010742188 C 351.31195068359375 106.21788024902344 352.0286560058594 110.9603271484375 352.9052734375 115.20796203613281 C 353.2639465332031 116.9329833984375 353.6666564941406 118.73188781738281 354.7979431152344 120.08132934570312 C 356.7099914550781 122.36480712890625 360.0880432128906 122.69741821289062 363.0465393066406 122.39492797851562 C 365.7926330566406 122.115234375 368.48431396484375 121.44265747070312 371.03924560546875 120.39779663085938 C 375.1883544921875 118.70277404785156 379.27813720703125 115.45787048339844 379.66900634765625 110.99456787109375 C 379.883544921875 108.58531188964844 378.95025634765625 106.17436218261719 377.54705810546875 104.19963073730469 C 376.1438293457031 102.22489929199219 374.28460693359375 100.623779296875 372.4266357421875 99.06930541992188 C 370.5686340332031 97.51481628417969 368.7096862792969 96.02719116210938 366.4328918457031 95.38810729980469 L 365.14984130859375 96.43435668945312" stroke-width="0.6000000238418579" fill="rgb(218, 166, 20)" opacity="1.0"/>
    <path d="M 427.98223876953125 138.21475219726562 C 419.62158203125 138.78541564941406 413.30657958984375 146.0256805419922 413.877197265625 154.38632202148438 C 413.92608642578125 155.1022491455078 414.02569580078125 155.8137969970703 414.17529296875 156.515625 C 414.74407958984375 159.18234252929688 416.1336669921875 161.784912109375 418.4329833984375 163.24813842773438 C 420.3758544921875 164.48483276367188 422.757080078125 164.80047607421875 425.05810546875 164.85446166992188 C 431.2174072265625 164.99041748046875 437.30078125 163.47467041015625 442.67626953125 160.4647216796875 C 444.09588623046875 159.666748046875 445.4957275390625 158.732177734375 446.416748046875 157.38494873046875 C 447.96435546875 155.12413024902344 447.87432861328125 152.06500244140625 446.94775390625 149.484619140625 C 445.57470703125 145.6527099609375 442.5277099609375 142.53919982910156 438.90478515625 140.6815643310547 C 435.28192138671875 138.8239288330078 431.12615966796875 138.15127563476562 427.059326171875 138.33566284179688 L 427.98223876953125 138.21475219726562" stroke-width="0.6000000238418579" fill="rgb(143, 165, 67)" opacity="1.0"/>
    <path d="M 150.7216339111328 404.342041015625 C 156.41876220703125 414.027587890625 173.37405395507812 412.67059326171875 178.18572998046875 402.59619140625 C 182.99737548828125 392.5217590332031 174.220703125 378.9305114746094 162.99609375 378.3385314941406 C 151.77146911621094 377.74652099609375 141.81036376953125 389.1585693359375 143.1038055419922 400.3346252441406 L 150.7216339111328 404.342041015625" stroke-width="0.6000000238418579" fill="rgb(233, 92, 21)" opacity="1.0"/>
    <path d="M 430.62579345703125 195.44818115234375 C 426.115966796875 193.5013427734375 420.52703857421875 191.64349365234375 416.6478271484375 194.6839599609375 C 415.151123046875 195.95404052734375 414.0853271484375 197.6572265625 413.59765625 199.55862426757812 C 412.264404296875 204.23068237304688 413.2784423828125 209.2591552734375 416.318115234375 213.0494384765625 C 418.90478515625 216.258056640625 422.6866455078125 218.17031860351562 426.38397216796875 219.93338012695312 C 428.4625244140625 220.92041015625 430.702392578125 221.90286254882812 432.9676513671875 221.57858276367188 C 435.98358154296875 221.12158203125 438.15673828125 218.47470092773438 439.71490478515625 215.85345458984375 C 442.0001220703125 212.0201416015625 443.64984130859375 207.84222412109375 444.60003662109375 203.48175048828125 C 444.9254150390625 201.9744873046875 445.1649169921875 200.37530517578125 444.6854248046875 198.91033935546875 C 444.16998291015625 197.57101440429688 443.27587890625 196.41058349609375 442.1123046875 195.57061767578125 C 438.6817626953125 192.88528442382812 434.2459716796875 191.84002685546875 429.9774169921875 192.711181640625 L 430.62579345703125 195.44818115234375" stroke-width="0.6000000238418579" fill="rgb(70, 150, 179)" opacity="1.0"/>
    <path d="M 413.3948974609375 160.84652709960938 C 412.2711181640625 155.2135009765625 410.7889709472656 149.0169219970703 406.0707092285156 145.74745178222656 C 401.0001220703125 142.23834228515625 393.826904296875 143.53871154785156 388.7181701660156 146.99185180664062 C 386.7478942871094 148.32240295410156 384.91607666015625 150.02035522460938 384.0392150878906 152.2299346923828 C 383.3177185058594 154.04608154296875 383.29522705078125 156.05596923828125 383.3902893066406 158.00738525390625 C 383.6827392578125 164.16162109375 385.2554931640625 170.69650268554688 389.849853515625 174.79962158203125 C 394.483154296875 178.9317626953125 401.8568115234375 179.65277099609375 407.1890869140625 176.4627685546875 C 412.5213623046875 173.272705078125 415.43414306640625 166.4705810546875 414.0128173828125 160.41741943359375 L 413.3948974609375 160.84652709960938" stroke-width="0.6000000238418579" fill="rgb(140, 28, 33)" opacity="1.0"/>
    <path d="M 141.83499145507812 133.9174346923828 C 136.03428649902344 135.85745239257812 130.0197296142578 137.9401092529297 125.55940246582031 142.13192749023438 C 121.09916687011719 146.32371520996094 118.62802124023438 153.31585693359375 121.4232177734375 158.760009765625 C 124.88861083984375 165.47259521484375 134.96627807617188 166.453369140625 141.17977905273438 162.1328125 C 147.3932647705078 157.81228637695312 150.2347412109375 149.99331665039062 151.07371520996094 142.4814453125 C 151.56639099121094 140.18211364746094 151.17926025390625 137.78172302246094 149.9886474609375 135.75392150878906 C 148.6126708984375 133.89419555664062 145.2771453857422 133.4247589111328 144.10885620117188 135.43478393554688 L 141.83499145507812 133.9174346923828" stroke-width="0.6000000238418579" fill="rgb(159, 159, 159)" opacity="1.0"/>
    <path d="M 434.8568115234375 167.57281494140625 C 430.41253662109375 165.01458740234375 424.99493408203125 163.92330932617188 420.052734375 165.28118896484375 C 415.110595703125 166.63909912109375 410.8146057128906 170.66329956054688 409.7877197265625 175.706787109375 C 409.06622314453125 179.27352905273438 409.99688720703125 183.051513671875 411.8620300292969 186.1798095703125 C 413.7271728515625 189.30816650390625 416.462646484375 191.840576171875 419.4420166015625 193.93655395507812 C 420.7391357421875 194.847900390625 422.1656494140625 195.70999145507812 423.74505615234375 195.78509521484375 C 425.5557861328125 195.8720703125 427.2327880859375 194.91180419921875 428.748779296875 193.9078369140625 C 433.02874755859375 191.07345581054688 437.037353515625 187.47515869140625 439.010009765625 182.7352294921875 C 440.98272705078125 177.9952392578125 440.44049072265625 171.94000244140625 436.676025390625 168.46771240234375 L 434.8568115234375 167.57281494140625" stroke-width="0.6000000238418579" fill="rgb(159, 159, 159)" opacity="1.0"/>
    <path d="M 413.21966552734375 193.33786010742188 C 411.6622009277344 188.24246215820312 409.71026611328125 182.64614868164062 405.0403137207031 180.10260009765625 C 400.50225830078125 177.62261962890625 394.9123229980469 178.8428955078125 389.923828125 180.2152099609375 C 387.89813232421875 180.77569580078125 385.78790283203125 181.39431762695312 384.26910400390625 182.845458984375 C 381.6988830566406 185.29833984375 381.5644226074219 189.34527587890625 382.15350341796875 192.8436279296875 C 382.69903564453125 196.0909423828125 383.7080078125 199.2430419921875 385.1495666503906 202.20355224609375 C 387.4884948730469 207.01141357421875 391.6678161621094 211.62869262695312 397.0111389160156 211.74850463867188 C 399.8957214355469 211.8173828125 402.6934814453125 210.519775390625 404.9355773925781 208.696533203125 C 407.17767333984375 206.873291015625 408.939697265625 204.53616333007812 410.6463317871094 202.20407104492188 C 412.35296630859375 199.87200927734375 413.97991943359375 197.5439453125 414.564453125 194.7841796875 L 413.21966552734375 193.33786010742188" stroke-width="0.6000000238418579" fill="rgb(218, 166, 20)" opacity="1.0"/>
    <path d="M 436.634521484375 185.8282470703125 C 437.271728515625 194.89166259765625 445.1356201171875 201.72247314453125 454.19903564453125 201.08526611328125 C 454.97509765625 201.03070068359375 455.74639892578125 200.921142578125 456.5069580078125 200.7574462890625 C 459.39697265625 200.13485717773438 462.2156982421875 198.62249755859375 463.7969970703125 196.1263427734375 C 465.133544921875 194.01708984375 465.47052001953125 191.43463134765625 465.52392578125 188.9398193359375 C 465.65771484375 182.26153564453125 464.0009765625 175.66921997070312 460.72564697265625 169.84771728515625 C 459.8572998046875 168.31036376953125 458.84100341796875 166.79470825195312 457.3782958984375 165.799072265625 C 454.9237060546875 164.12619018554688 451.607177734375 164.23052978515625 448.8115234375 165.24087524414062 C 444.65997314453125 166.73797607421875 441.291015625 170.04843139648438 439.28497314453125 173.98049926757812 C 437.2789306640625 177.91253662109375 436.55877685546875 182.41973876953125 436.7677001953125 186.82861328125 L 436.634521484375 185.8282470703125" stroke-width="0.6000000238418579" fill="rgb(143, 165, 67)" opacity="1.0"/>
    <path d="M 144.9244842529297 98.82644653320312 C 133.7066650390625 105.656494140625 135.59371948242188 125.44734191894531 147.45274353027344 130.89154052734375 C 159.311767578125 136.335693359375 175.03936767578125 125.83732604980469 175.53179931640625 112.70906066894531 C 176.024169921875 99.58079528808594 162.51043701171875 88.14244079589844 149.47244262695312 89.85260009765625 L 144.9244842529297 98.82644653320312" stroke-width="0.6000000238418579" fill="rgb(233, 92, 21)" opacity="1.0"/>
    <path d="M 451.89837646484375 145.02195739746094 C 449.06903076171875 149.9930877685547 446.20489501953125 156.22467041015625 449.22857666015625 161.10296630859375 C 450.5074462890625 162.99752807617188 452.3426513671875 164.44854736328125 454.4810791015625 165.255859375 C 459.71844482421875 167.395751953125 465.6680908203125 166.86434936523438 470.44329833984375 163.83023071289062 C 474.4874267578125 161.24609375 477.1837158203125 157.11309814453125 479.6966552734375 153.05882263183594 C 481.1044921875 150.77908325195312 482.5277099609375 148.31210327148438 482.44171142578125 145.6487579345703 C 482.2979736328125 142.09967041015625 479.51190185546875 139.24635314941406 476.677001953125 137.10804748535156 C 472.5321044921875 133.9734649658203 467.9071044921875 131.5304412841797 462.9814453125 129.8737335205078 C 461.2784423828125 129.30458068847656 459.4581298828125 128.82315063476562 457.7012939453125 129.1909942626953 C 456.08526611328125 129.61656188964844 454.6279296875 130.503173828125 453.507080078125 131.74269104003906 C 449.9609375 135.37033081054688 448.1845703125 140.37100219726562 448.6475830078125 145.4228515625 L 451.89837646484375 145.02195739746094" stroke-width="0.6000000238418579" fill="rgb(70, 150, 179)" opacity="1.0"/>
    <path d="M 381.935302734375 80.35246276855469 C 382.51983642578125 73.84440612792969 382.8945007324219 66.606201171875 378.796875 61.521759033203125 C 374.3918762207031 56.062591552734375 366.1463623046875 55.17564392089844 359.46160888671875 57.301483154296875 C 356.8838806152344 58.120025634765625 354.33917236328125 59.38398742675781 352.67205810546875 61.51324462890625 C 351.3009033203125 63.26307678222656 350.6302795410156 65.44903564453125 350.1067199707031 67.60903930664062 C 348.44744873046875 74.4185791015625 348.0629577636719 82.05511474609375 351.75738525390625 88.0093994140625 C 355.4849548339844 94.00782775878906 363.29937744140625 97.16497802734375 370.14349365234375 95.39811706542969 C 376.98760986328125 93.63125610351562 382.3526611328125 87.14501953125 382.7475280761719 80.0828857421875 L 381.935302734375 80.35246276855469" stroke-width="0.6000000238418579" fill="rgb(140, 28, 33)" opacity="1.0"/>
    <path d="M 135.5456085205078 412.6942138671875 C 132.70166015625 418.7318115234375 129.80892944335938 425.045654296875 129.75155639648438 431.72412109375 C 129.69424438476562 438.4024658203125 133.3452911376953 445.62371826171875 139.74656677246094 447.5244140625 C 147.65350341796875 449.8529052734375 156.0260009765625 442.6446533203125 157.30380249023438 434.4864501953125 C 158.58160400390625 426.32830810546875 154.55770874023438 418.1915283203125 149.26605224609375 411.8656311035156 C 147.82415771484375 409.7432861328125 145.63916015625 408.23858642578125 143.1421661376953 407.6485290527344 C 140.63792419433594 407.3313903808594 137.75257873535156 409.6080017089844 138.4568634033203 412.0450439453125 L 135.5456085205078 412.6942138671875" stroke-width="0.6000000238418579" fill="rgb(159, 159, 159)" opacity="1.0"/>
    <path d="M 422.2489013671875 216.71295166015625 C 417.1761474609375 212.90219116210938 410.6872253417969 210.7464599609375 404.41351318359375 211.67001342773438 C 398.1397705078125 212.59356689453125 392.25823974609375 216.8887939453125 390.2378845214844 222.92791748046875 C 388.81488037109375 227.19949340820312 389.3890075683594 231.97918701171875 391.2085876464844 236.10174560546875 C 393.02813720703125 240.224365234375 396.0062255859375 243.74609375 399.34954833984375 246.76864624023438 C 400.8052673339844 248.0831298828125 402.4273681640625 249.3565673828125 404.35565185546875 249.68658447265625 C 406.5661926269531 250.06597900390625 408.770263671875 249.13919067382812 410.7831726074219 248.134521484375 C 416.4659423828125 245.29800415039062 421.930419921875 241.4825439453125 425.06658935546875 235.95855712890625 C 428.2027587890625 230.43460083007812 428.448486328125 222.916748046875 424.3482666015625 218.0858154296875 L 422.2489013671875 216.71295166015625" stroke-width="0.6000000238418579" fill="rgb(159, 159, 159)" opacity="1.0"/>
    <path d="M 383.9755859375 111.50381469726562 C 377.839111328125 112.33505249023438 371.0541687011719 113.52485656738281 367.2612609863281 118.404541015625 C 363.5659484863281 123.14486694335938 363.917724609375 129.78533935546875 364.556640625 135.7644805908203 C 364.81976318359375 138.19305419921875 365.1337585449219 140.7294921875 366.5135498046875 142.74362182617188 C 368.8451843261719 146.15151977539062 373.4618835449219 147.06439208984375 377.5849914550781 147.0445098876953 C 381.4119567871094 147.02752685546875 385.2166442871094 146.46109008789062 388.8825988769531 145.3625946044922 C 394.8357238769531 143.58108520507812 400.9153137207031 139.65293884277344 402.05438232421875 133.5465087890625 C 402.6741638183594 130.25076293945312 401.7102355957031 126.7984619140625 400.0392761230469 123.88494873046875 C 398.3682861328125 120.97146606445312 396.0178527832031 118.51223754882812 393.6628723144531 116.1175537109375 C 391.3078918457031 113.72283935546875 388.94256591796875 111.42025756835938 385.88665771484375 110.23246765136719 L 383.9755859375 111.50381469726562" stroke-width="0.6000000238418579" fill="rgb(218, 166, 20)" opacity="1.0"/>
    <path d="M 404.5426940917969 83.39433288574219 C 396.2279357910156 77.18569946289062 384.45440673828125 78.89303588867188 378.2457580566406 87.20777893066406 C 377.714111328125 87.91976928710938 377.233642578125 88.6685791015625 376.8079528808594 89.44857788085938 C 375.1910095214844 92.41267395019531 374.3968811035156 95.97869873046875 375.37652587890625 99.20819091796875 C 376.20416259765625 101.93742370605469 378.1865234375 104.15496826171875 380.30462646484375 106.06190490722656 C 385.9812927246094 111.15852355957031 392.9190979003906 114.6422119140625 400.3973388671875 116.15110778808594 C 402.37469482421875 116.546630859375 404.4436950683594 116.79798889160156 406.39581298828125 116.27536010742188 C 409.6735534667969 115.39988708496094 412.056884765625 112.45338439941406 413.26806640625 109.28172302246094 C 415.0694580078125 104.57421875 414.71875 99.19113159179688 412.8138427734375 94.5233154296875 C 410.9089050292969 89.85548400878906 407.5474548339844 85.87098693847656 403.578125 82.76339721679688 L 404.5426940917969 83.39433288574219" stroke-width="0.6000000238418579" fill="rgb(143, 165, 67)" opacity="1.0"/>
    <path d="M 123.59124755859375 427.282470703125 C 116.2957763671875 417.3082275390625 97.890869140625 420.6510009765625 93.72955322265625 432.202392578125 C 89.56831359863281 443.753662109375 100.66160583496094 457.6644287109375 113.00918579101562 457.0821533203125 C 125.35676574707031 456.5 135.00633239746094 442.920654296875 132.36630249023438 430.8328857421875 L 123.59124755859375 427.282470703125" stroke-width="0.6000000238418579" fill="rgb(233, 92, 21)" opacity="1.0"/>
    <path d="M 448.38665771484375 210.0845947265625 C 443.0142822265625 212.45700073242188 436.84295654296875 215.84808349609375 436.3564453125 221.7208251953125 C 436.25372314453125 224.06546020507812 436.881103515625 226.38421630859375 438.152099609375 228.35711669921875 C 441.16552734375 233.32330322265625 446.3990478515625 236.5208740234375 452.193115234375 236.935791015625 C 457.1090087890625 237.275146484375 461.859375 235.51300048828125 466.41033935546875 233.70367431640625 C 468.96514892578125 232.68310546875 471.64697265625 231.51748657226562 473.20367431640625 229.26748657226562 C 475.2540283203125 226.25143432617188 474.6990966796875 222.19464111328125 473.6668701171875 218.69796752929688 C 472.1627197265625 213.57867431640625 469.83978271484375 208.736572265625 466.788330078125 204.35955810546875 C 465.7310791015625 202.8492431640625 464.52337646484375 201.33953857421875 462.84912109375 200.56939697265625 C 461.25567626953125 199.93292236328125 459.511474609375 199.77386474609375 457.8292236328125 200.11154174804688 C 452.68646240234375 200.9373779296875 448.164794921875 203.9776611328125 445.4595947265625 208.42874145507812 L 448.38665771484375 210.0845947265625" stroke-width="0.6000000238418579" fill="rgb(70, 150, 179)" opacity="1.0"/>
    <path d="M 428.6224365234375 133.77333068847656 C 430.58935546875 128.02569580078125 432.52825927734375 121.57232666015625 429.952392578125 116.07489013671875 C 427.18170166015625 110.17111206054688 419.9320068359375 107.546875 413.42547607421875 107.98837280273438 C 410.916748046875 108.15753173828125 408.3393249511719 108.73622131347656 406.3630676269531 110.29031372070312 C 404.7379455566406 111.5672607421875 403.64898681640625 113.3929443359375 402.6985778808594 115.2276611328125 C 399.6944885253906 121.00990295410156 397.65863037109375 127.82080078125 399.6781005859375 134.01455688476562 C 401.7177429199219 140.2554931640625 408.076171875 144.8344268798828 414.647216796875 144.75233459472656 C 421.21826171875 144.6702423095703 427.497314453125 139.99942016601562 429.41552734375 133.70948791503906 L 428.6224365234375 133.77333068847656" stroke-width="0.6000000238418579" fill="rgb(140, 28, 33)" opacity="1.0"/>
    <path d="M 394.96209716796875 62.05322265625 C 396.3080139160156 68.50430297851562 397.77960205078125 75.20217895507812 401.7037048339844 80.50239562988281 C 405.62774658203125 85.80252075195312 412.798583984375 89.32666015625 418.975830078125 87.02081298828125 C 426.5946044921875 84.15745544433594 428.91229248046875 73.4974365234375 425.071044921875 66.3050537109375 C 421.2298583984375 59.112701416015625 413.22088623046875 55.0882568359375 405.28851318359375 53.245208740234375 C 402.8901672363281 52.42864990234375 400.27294921875 52.54083251953125 397.95330810546875 53.55963134765625 C 395.7901611328125 54.797943115234375 394.86810302734375 58.3079833984375 396.8718566894531 59.811065673828125 L 394.96209716796875 62.05322265625" stroke-width="0.6000000238418579" fill="rgb(159, 159, 159)" opacity="1.0"/>
    <path d="M 437.19610595703125 237.87124633789062 C 432.31689453125 242.17828369140625 428.80712890625 248.2508544921875 428.435546875 254.74505615234375 C 428.06396484375 261.2392578125 431.16094970703125 268.03778076171875 436.8096923828125 271.31842041015625 C 440.806396484375 273.6327819824219 445.72723388671875 274.04595947265625 450.245849609375 273.07183837890625 C 454.7645263671875 272.09771728515625 458.91949462890625 269.835205078125 462.6485595703125 267.1023864746094 C 464.27069091796875 265.91217041015625 465.885986328125 264.5462646484375 466.616943359375 262.6773986816406 C 467.45599365234375 260.53515625 466.9814453125 258.12884521484375 466.38897705078125 255.89849853515625 C 464.71630859375 249.601806640625 462.01495361328125 243.32159423828125 457.1148681640625 239.02667236328125 C 452.21478271484375 234.73175048828125 444.712890625 232.92779541015625 439.01019287109375 236.04647827148438 L 437.19610595703125 237.87124633789062" stroke-width="0.6000000238418579" fill="rgb(159, 159, 159)" opacity="1.0"/>
    <path d="M 415.185791015625 261.2754211425781 C 412.4696044921875 255.62640380859375 409.2056579589844 249.46487426757812 403.3230285644531 247.3363037109375 C 397.6050720214844 245.25823974609375 391.321044921875 247.67010498046875 385.763427734375 250.15203857421875 C 383.5072326660156 251.16360473632812 381.16302490234375 252.2578125 379.65447998046875 254.21517944335938 C 377.1011047363281 257.5242004394531 377.6634826660156 262.2544250488281 378.96990966796875 266.21820068359375 C 380.1810607910156 269.897705078125 381.9142761230469 273.3842468261719 384.11651611328125 276.57110595703125 C 387.6904602050781 281.7469482421875 393.3708190917969 286.37432861328125 399.6060791015625 285.56463623046875 C 402.972900390625 285.1324462890625 405.9960632324219 283.1264953613281 408.2796630859375 280.60797119140625 C 410.5632629394531 278.08941650390625 412.19732666015625 275.05853271484375 413.767822265625 272.0433654785156 C 415.33837890625 269.0281982421875 416.81695556640625 266.0318298339844 417.006591796875 262.7185974121094 L 415.185791015625 261.2754211425781" stroke-width="0.6000000238418579" fill="rgb(218, 166, 20)" opacity="1.0"/>
    <path d="M 414.8134765625 86.60346984863281 C 411.32855224609375 95.68795776367188 415.86785888671875 105.87750244140625 424.95233154296875 109.36247253417969 C 425.730224609375 109.660888671875 426.5283203125 109.90374755859375 427.340576171875 110.08921813964844 C 430.42724609375 110.79342651367188 433.847412109375 110.60179138183594 436.51220703125 108.89523315429688 C 438.7642822265625 107.45330810546875 440.260498046875 105.09963989257812 441.44183349609375 102.70257568359375 C 444.59521484375 96.28190612792969 445.971923828125 89.13400268554688 445.4288330078125 82.00138854980469 C 445.28216552734375 80.11627197265625 444.9820556640625 78.18521118164062 444.01324462890625 76.55673217773438 C 442.388427734375 73.8218994140625 439.12249755859375 72.42166137695312 435.951904296875 72.136474609375 C 431.2451171875 71.7098388671875 426.47674560546875 73.39736938476562 422.7496337890625 76.30520629882812 C 419.0225830078125 79.2130126953125 416.28314208984375 83.26119995117188 414.48980712890625 87.63458251953125 L 414.8134765625 86.60346984863281" stroke-width="0.6000000238418579" fill="rgb(143, 165, 67)" opacity="1.0"/>
    <path d="M 427.43524169921875 122.85252380371094 C 425.7872314453125 134.8915557861328 441.093017578125 145.09280395507812 451.9246826171875 139.76034545898438 C 462.7562255859375 134.4278564453125 464.4046630859375 117.01026916503906 455.27001953125 108.99147033691406 C 446.13531494140625 100.97265625 430.0355224609375 103.99281311035156 423.650146484375 114.3487548828125 L 427.43524169921875 122.85252380371094" stroke-width="0.6000000238418579" fill="rgb(233, 92, 21)" opacity="1.0"/>
    <path d="M 449.891357421875 92.87619018554688 C 449.192626953125 98.69009399414062 448.9609375 105.7073974609375 453.74951171875 109.11233520507812 C 455.7078857421875 110.3931884765625 458.01544189453125 111.03482055664062 460.3538818359375 110.9486083984375 C 466.14556884765625 110.89103698730469 471.550048828125 108.02984619140625 474.85357666015625 103.27232360839844 C 477.6455078125 99.22946166992188 478.5511474609375 94.2593994140625 479.3148193359375 89.43632507324219 C 479.7393798828125 86.726318359375 480.104248046875 83.83352661132812 478.96673583984375 81.35397338867188 C 477.4234619140625 78.06137084960938 473.662353515625 76.473388671875 470.138671875 75.57960510253906 C 464.9835205078125 74.26510620117188 459.6495361328125 73.79368591308594 454.3436279296875 74.18363952636719 C 452.5106201171875 74.3218994140625 450.60162353515625 74.58949279785156 449.08941650390625 75.63343811035156 C 447.7330322265625 76.676025390625 446.709228515625 78.09078979492188 446.14300537109375 79.70516967773438 C 444.23486328125 84.535400390625 444.5416259765625 89.95956420898438 446.9822998046875 94.5438232421875 L 449.891357421875 92.87619018554688" stroke-width="0.6000000238418579" fill="rgb(70, 150, 179)" opacity="1.0"/>
    <path d="M 311.9247131347656 368.3827209472656 C 306.69384765625 366.12469482421875 300.8009948730469 363.8414611816406 295.4730224609375 365.8493957519531 C 289.7508544921875 368.009765625 286.7687683105469 374.5972595214844 286.7073974609375 380.7132263183594 C 286.6827392578125 383.0712890625 287.0360107421875 385.5234375 288.3451232910156 387.4845886230469 C 289.420654296875 389.09716796875 291.0483703613281 390.2484436035156 292.69464111328125 391.27081298828125 C 297.8822937011719 394.50115966796875 304.1023254394531 396.9010925292969 310.0408630371094 395.4642028808594 C 316.0249938964844 394.01190185546875 320.76983642578125 388.4002685546875 321.1719665527344 382.2501220703125 C 321.5740966796875 376.0999755859375 317.664306640625 369.88848876953125 311.9228210449219 367.63653564453125 L 311.9247131347656 368.3827209472656" stroke-width="0.6000000238418579" fill="rgb(140, 28, 33)" opacity="1.0"/>
    <path d="M 298.2350158691406 391.1771240234375 C 291.9979248046875 388.1062316894531 285.47406005859375 384.97955322265625 278.5192565917969 384.7994079589844 C 271.5645751953125 384.6192932128906 263.9776306152344 388.29180908203125 261.88262939453125 394.9246520996094 C 259.3148498535156 403.11798095703125 266.6715087890625 411.9681091308594 275.1454772949219 413.446044921875 C 283.6194152832031 414.9239501953125 292.1666259765625 410.8796691894531 298.85064697265625 405.4822998046875 C 301.0871276855469 404.018798828125 302.69366455078125 401.7701721191406 303.353271484375 399.18011474609375 C 303.72869873046875 396.5776062011719 301.4095764160156 393.5313720703125 298.858642578125 394.2209777832031 L 298.2350158691406 391.1771240234375" stroke-width="0.6000000238418579" fill="rgb(159, 159, 159)" opacity="1.0"/>
    <path d="M 322.6958312988281 413.0841064453125 C 317.11712646484375 416.852783203125 312.7081298828125 422.6148681640625 311.46221923828125 429.22735595703125 C 310.21630859375 435.83984375 312.48809814453125 443.2264404296875 317.8459777832031 447.3438720703125 C 321.6377258300781 450.250244140625 326.63067626953125 451.32928466796875 331.395751953125 450.931640625 C 336.1608581542969 450.53399658203125 340.72442626953125 448.76629638671875 344.9137268066406 446.45941162109375 C 346.7362060546875 445.45440673828125 348.5751647949219 444.268310546875 349.5738525390625 442.448486328125 C 350.7197570800781 440.36260986328125 350.5533142089844 437.8309326171875 350.2425537109375 435.464111328125 C 349.3650817871094 428.781982421875 347.4301452636719 421.9798583984375 342.975341796875 416.92156982421875 C 338.5205383300781 411.8632507324219 331.06500244140625 409.0137939453125 324.79974365234375 411.4537353515625 L 322.6958312988281 413.0841064453125" stroke-width="0.6000000238418579" fill="rgb(159, 159, 159)" opacity="1.0"/>
    <path d="M 255.82550048828125 416.876220703125 C 249.038818359375 416.0233154296875 241.4581298828125 415.3692626953125 236.025146484375 419.5029296875 C 230.73590087890625 423.51544189453125 229.22817993164062 430.7042236328125 228.214599609375 437.2684326171875 C 227.8067626953125 439.9356689453125 227.42263793945312 442.7325439453125 228.32440185546875 445.27398681640625 C 229.84707641601562 449.57330322265625 234.5167236328125 451.857177734375 238.9239501953125 453.0052490234375 C 243.01422119140625 454.0723876953125 247.236572265625 454.5467529296875 251.461669921875 454.4136962890625 C 258.3221435546875 454.20013427734375 265.9264221191406 451.7308349609375 268.87420654296875 445.534912109375 C 270.47052001953125 442.1923828125 270.4205627441406 438.2335205078125 269.4629821777344 434.6492919921875 C 268.5054016113281 431.06512451171875 266.6936340332031 427.773193359375 264.85870361328125 424.54888916015625 C 263.0237731933594 421.3245849609375 261.15167236328125 418.1956787109375 258.2262268066406 416.06097412109375 L 255.82550048828125 416.876220703125" stroke-width="0.6000000238418579" fill="rgb(218, 166, 20)" opacity="1.0"/>
    <path d="M 219.72235107421875 413.9873046875 C 210.04638671875 407.1725769042969 196.6781005859375 409.4920654296875 189.8634033203125 419.16796875 C 189.27984619140625 419.99658203125 188.755859375 420.865478515625 188.29525756835938 421.7681884765625 C 186.5457763671875 425.1986083984375 185.75344848632812 429.2891845703125 186.97259521484375 432.93994140625 C 188.00262451171875 436.025146484375 190.33285522460938 438.490478515625 192.80804443359375 440.59735107421875 C 199.44119262695312 446.2279052734375 207.46099853515625 449.9796142578125 216.0343017578125 451.462890625 C 218.3011474609375 451.85113525390625 220.66787719726562 452.0721435546875 222.8768310546875 451.41448974609375 C 226.58587646484375 450.31256103515625 229.2095947265625 446.87786865234375 230.4898681640625 443.2236328125 C 232.39447021484375 437.7998046875 231.82403564453125 431.6739501953125 229.50442504882812 426.4127197265625 C 227.18487548828125 421.151611328125 223.22637939453125 416.715576171875 218.60269165039062 413.29852294921875 L 219.72235107421875 413.9873046875" stroke-width="0.6000000238418579" fill="rgb(143, 165, 67)" opacity="1.0"/>
    <path d="M 270.6428527832031 358.9759826660156 C 277.08160400390625 370.4515380859375 296.96478271484375 369.2677307128906 302.8387145996094 357.5877990722656 C 308.7126159667969 345.9078674316406 298.76171875 329.7860107421875 285.6343688964844 328.82489013671875 C 272.50701904296875 327.86376953125 260.5723571777344 340.98681640625 261.8197937011719 354.102294921875 L 270.6428527832031 358.9759826660156" stroke-width="0.6000000238418579" fill="rgb(233, 92, 21)" opacity="1.0"/>
    <path d="M 329.7758483886719 355.3382568359375 C 326.0137939453125 360.6966552734375 322.07562255859375 367.4875793457031 324.9931640625 373.37371826171875 C 326.245361328125 375.67095947265625 328.1795654296875 377.5230407714844 330.5289611816406 378.6744079589844 C 336.2653503417969 381.67962646484375 343.10247802734375 381.7180480957031 348.87225341796875 378.7774658203125 C 353.76025390625 376.2705078125 357.280029296875 371.8528137207031 360.5822448730469 367.5048828125 C 362.4332580566406 365.0594787597656 364.322021484375 362.4023742675781 364.51226806640625 359.3581848144531 C 364.7325744628906 355.2984313964844 361.8666687011719 351.7455139160156 358.86773681640625 349.0021057128906 C 354.4837951660156 344.98162841796875 349.47802734375 341.69720458984375 344.0445556640625 339.27630615234375 C 342.16558837890625 338.4434509277344 340.1434020996094 337.69781494140625 338.1016540527344 337.9268493652344 C 336.2141418457031 338.23687744140625 334.45758056640625 339.0894470214844 333.04620361328125 340.3805847167969 C 328.6126708984375 344.1304931640625 326.0472717285156 349.63653564453125 326.0281982421875 355.4432373046875 L 329.7758483886719 355.3382568359375" stroke-width="0.6000000238418579" fill="rgb(70, 150, 179)" opacity="1.0"/>
    <path d="M 297.79736328125 412.777587890625 C 290.6373291015625 411.4692687988281 282.64605712890625 410.31976318359375 276.5904846191406 414.34967041015625 C 270.08807373046875 418.68255615234375 268.2681579589844 427.7392578125 269.9485168457031 435.3701171875 C 270.59515380859375 438.31256103515625 271.7392578125 441.2635498046875 273.9321594238281 443.3287353515625 C 275.7342224121094 445.02716064453125 278.091064453125 445.99267578125 280.4340515136719 446.79248046875 C 287.8195495605469 449.323486328125 296.2516784667969 450.52435302734375 303.23126220703125 447.0299072265625 C 310.2632141113281 443.503173828125 314.5577087402344 435.15484619140625 313.29168701171875 427.383544921875 C 312.02569580078125 419.6123046875 305.37457275390625 413.0032958984375 297.5806579589844 411.8492126464844 L 297.79736328125 412.777587890625" stroke-width="0.6000000238418579" fill="rgb(140, 28, 33)" opacity="1.0"/>
    <path d="M 325.46575927734375 389.9347839355469 C 318.51068115234375 389.77850341796875 311.2718200683594 389.6925354003906 304.8846130371094 392.46221923828125 C 298.4975280761719 395.23187255859375 293.1614685058594 401.7643127441406 294.05767822265625 408.66693115234375 C 295.1830139160156 417.18505859375 305.5914306640625 422.1136474609375 313.904541015625 419.8809814453125 C 322.2176818847656 417.6483154296875 328.2683410644531 410.37347412109375 332.0575256347656 402.6566162109375 C 333.4698486328125 400.38531494140625 333.9794006347656 397.6672058105469 333.485595703125 395.03863525390625 C 332.7287292480469 392.5185852050781 329.3394775390625 390.7323303222656 327.3153991699219 392.4339599609375 L 325.46575927734375 389.9347839355469" stroke-width="0.6000000238418579" fill="rgb(159, 159, 159)" opacity="1.0"/>
    <path d="M 359.7602844238281 409.8223876953125 C 354.4083251953125 414.4833984375 350.5367431640625 421.07958984375 350.0840759277344 428.158447265625 C 349.6314392089844 435.2373046875 352.9588928222656 442.6734619140625 359.0946350097656 446.29205322265625 C 363.4359130859375 448.844970703125 368.798828125 449.3314208984375 373.7332763671875 448.30224609375 C 378.6677551269531 447.27294921875 383.215087890625 444.836181640625 387.3014221191406 441.8834228515625 C 389.0789489746094 440.597412109375 390.8503723144531 439.1197509765625 391.6611022949219 437.087158203125 C 392.5916748046875 434.75732421875 392.09173583984375 432.1298828125 391.46197509765625 429.6934814453125 C 389.6840515136719 422.81500244140625 386.7842102050781 415.947021484375 381.4722900390625 411.2278137207031 C 376.16033935546875 406.5086364746094 367.9930725097656 404.4866943359375 361.75177001953125 407.8458251953125 L 359.7602844238281 409.8223876953125" stroke-width="0.6000000238418579" fill="rgb(159, 159, 159)" opacity="1.0"/>
    <path d="M 253.43853759765625 367.68988037109375 C 254.41717529296875 360.59564208984375 255.19760131835938 352.6676330566406 250.93869018554688 346.9276428222656 C 246.80474853515625 341.33966064453125 239.29782104492188 339.6704406738281 232.43853759765625 338.52642822265625 C 229.6513671875 338.0657958984375 226.72821044921875 337.6283264160156 224.05615234375 338.5403137207031 C 219.53591918945312 340.0801086425781 217.08599853515625 344.9399108886719 215.82843017578125 349.53936767578125 C 214.6595458984375 353.8080139160156 214.10968017578125 358.2223815917969 214.19558715820312 362.6473388671875 C 214.33251953125 369.8323059082031 216.8216552734375 377.82440185546875 223.2708740234375 380.98870849609375 C 226.75009155273438 382.70208740234375 230.895263671875 382.69976806640625 234.65966796875 381.7425537109375 C 238.42404174804688 380.7853088378906 241.89321899414062 378.9301452636719 245.29193115234375 377.04986572265625 C 248.690673828125 375.1695861816406 251.989990234375 373.24920654296875 254.26171875 370.2134704589844 L 253.43853759765625 367.68988037109375" stroke-width="0.6000000238418579" fill="rgb(218, 166, 20)" opacity="1.0"/>
    <path d="M 263.1044006347656 384.276123046875 C 253.7845458984375 376.6329040527344 240.03326416015625 377.9920654296875 232.3900146484375 387.3119201660156 C 231.73553466796875 388.1099853515625 231.13848876953125 388.9534606933594 230.60336303710938 389.8360290527344 C 228.57061767578125 393.18994140625 227.4608154296875 397.28570556640625 228.42694091796875 401.084716796875 C 229.24310302734375 404.29522705078125 231.4261474609375 406.9729919433594 233.78311157226562 409.29754638671875 C 240.10067749023438 415.5111083984375 247.96676635742188 419.9197998046875 256.564208984375 422.06561279296875 C 258.83770751953125 422.62896728515625 261.2251281738281 423.0299072265625 263.517822265625 422.526611328125 C 267.3673095703125 421.68389892578125 270.288330078125 418.390869140625 271.8612365722656 414.77471923828125 C 274.20013427734375 409.40765380859375 274.0774841308594 403.14300537109375 272.1137390136719 397.626220703125 C 270.1499938964844 392.1094055175781 266.4600830078125 387.3085632324219 262.0185241699219 383.4930725097656 L 263.1044006347656 384.276123046875" stroke-width="0.6000000238418579" fill="rgb(143, 165, 67)" opacity="1.0"/>
    <path d="M 198.45440673828125 377.5001220703125 C 184.37643432617188 379.24615478515625 177.4495849609375 399.5718078613281 186.71051025390625 410.19683837890625 C 195.971435546875 420.82183837890625 216.1185302734375 417.46551513671875 222.43096923828125 404.7567138671875 C 228.74337768554688 392.04791259765625 220.51382446289062 374.7859191894531 206.91619873046875 370.6824035644531 L 198.45440673828125 377.5001220703125" stroke-width="0.6000000238418579" fill="rgb(233, 92, 21)" opacity="1.0"/>
    <path d="M 253.1583251953125 374.8480224609375 C 250.44439697265625 380.5350646972656 247.79229736328125 387.60986328125 251.50225830078125 392.7299499511719 C 253.0579833984375 394.7100830078125 255.18978881835938 396.15869140625 257.6036682128906 396.8758544921875 C 263.5284423828125 398.81109619140625 270.0237121582031 397.7545471191406 275.0296936035156 394.0412902832031 C 279.26806640625 390.88055419921875 281.9024658203125 386.1250305175781 284.3415222167969 381.4705505371094 C 285.7073974609375 378.8537292480469 287.0752258300781 376.02996826171875 286.7691345214844 373.11029052734375 C 286.3292541503906 369.22198486328125 283.041259765625 366.3080749511719 279.75640869140625 364.1837463378906 C 274.9529113769531 361.0687255859375 269.6769104003906 358.75177001953125 264.1330261230469 357.3226623535156 C 262.216552734375 356.83258056640625 260.1781005859375 356.4482116699219 258.27691650390625 356.991943359375 C 256.5350341796875 357.58795166015625 255.00421142578125 358.6779479980469 253.87109375 360.12896728515625 C 250.2626953125 364.396728515625 248.70806884765625 370.0325927734375 249.61825561523438 375.5467529296875 L 253.1583251953125 374.8480224609375" stroke-width="0.6000000238418579" fill="rgb(70, 150, 179)" opacity="1.0"/>
    <path d="M 338.68267822265625 360.9265441894531 C 339.73370361328125 353.9403076171875 340.6053466796875 346.1524963378906 336.51116943359375 340.40045166015625 C 332.1094055175781 334.2241516113281 323.26751708984375 332.73455810546875 315.91558837890625 334.59735107421875 C 313.0806884765625 335.3143615722656 310.2526550292969 336.5142517089844 308.3158874511719 338.70465087890625 C 306.72308349609375 340.50469970703125 305.8581848144531 342.8206481933594 305.1536560058594 345.1180725097656 C 302.9232482910156 352.36029052734375 302.0152587890625 360.577392578125 305.6181335449219 367.2421875 C 309.2539367675781 373.956787109375 317.4840087890625 377.86871337890625 324.9847412109375 376.40362548828125 C 332.4855041503906 374.9385681152344 338.6946105957031 368.2845153808594 339.5766906738281 360.6880187988281 L 338.68267822265625 360.9265441894531" stroke-width="0.6000000238418579" fill="rgb(140, 28, 33)" opacity="1.0"/>
    <path d="M 357.31396484375 399.20751953125 C 350.4822998046875 398.2520446777344 343.3630065917969 397.3331604003906 336.7533874511719 399.3247375488281 C 330.1438903808594 401.31634521484375 324.1358642578125 407.13482666015625 324.2229919433594 414.0361328125 C 324.3495788574219 422.554931640625 334.03228759765625 428.6082763671875 342.47674560546875 427.3675537109375 C 350.9212341308594 426.12677001953125 357.71856689453125 419.6595458984375 362.3397216796875 412.4962158203125 C 363.99237060546875 410.422119140625 364.8074645996094 407.803955078125 364.62408447265625 405.1582946777344 C 364.1690979003906 402.5892028808594 361.03704833984375 400.4394226074219 358.8475646972656 401.8819885253906 L 357.31396484375 399.20751953125" stroke-width="0.6000000238418579" fill="rgb(159, 159, 159)" opacity="1.0"/>
    <path d="M 178.506591796875 410.4052429199219 C 171.54534912109375 409.8240661621094 164.2332763671875 411.61529541015625 158.92556762695312 416.151123046875 C 153.61782836914062 420.68701171875 150.6507110595703 428.136474609375 152.3046875 434.94989013671875 C 153.4801788330078 439.765625 156.81515502929688 443.88519287109375 160.92626953125 446.66265869140625 C 165.03741455078125 449.440185546875 169.87664794921875 450.9788818359375 174.76397705078125 451.8382568359375 C 176.89105224609375 452.21099853515625 179.149169921875 452.447998046875 181.14013671875 451.626220703125 C 183.42315673828125 450.68505859375 184.93505859375 448.52996826171875 186.22308349609375 446.414306640625 C 189.85934448242188 440.44122314453125 192.71871948242188 433.683349609375 192.40673828125 426.69659423828125 C 192.0947265625 419.70977783203125 187.92013549804688 412.557373046875 181.26791381835938 410.45538330078125 L 178.506591796875 410.4052429199219" stroke-width="0.6000000238418579" fill="rgb(159, 159, 159)" opacity="1.0"/>
    <path d="M 361.57891845703125 370.3520812988281 C 355.0145263671875 369.44293212890625 347.67852783203125 368.7167663574219 342.3647155761719 372.6549987792969 C 337.1916198730469 376.4776611328125 335.6431884765625 383.423583984375 334.58111572265625 389.77044677734375 C 334.1534423828125 392.34942626953125 333.7471618652344 395.0542297363281 334.5897521972656 397.5273742675781 C 336.01239013671875 401.7110595703125 340.5083312988281 403.9805908203125 344.7639465332031 405.1466369628906 C 348.7134704589844 406.2304382324219 352.7981872558594 406.74151611328125 356.89300537109375 406.6642150878906 C 363.5418701171875 406.5411071777344 370.9388427734375 404.2417297363281 373.8702697753906 398.27532958984375 C 375.45751953125 395.05657958984375 375.4574890136719 391.2207336425781 374.5735778808594 387.73675537109375 C 373.68963623046875 384.2527770996094 371.9746398925781 381.0415344238281 370.2363586425781 377.8954772949219 C 368.49810791015625 374.7494201660156 366.7226867675781 371.6953430175781 363.91461181640625 369.59161376953125 L 361.57891845703125 370.3520812988281" stroke-width="0.6000000238418579" fill="rgb(218, 166, 20)" opacity="1.0"/>
    <path d="M 374.8425598144531 379.06402587890625 C 367.5686340332031 388.2085266113281 369.0850524902344 401.518310546875 378.22955322265625 408.792236328125 C 379.0126037597656 409.41510009765625 379.8388366699219 409.98162841796875 380.7020568847656 410.4875793457031 C 383.98248291015625 412.409423828125 387.96868896484375 413.4259033203125 391.63714599609375 412.4344482421875 C 394.73736572265625 411.5969543457031 397.3013916015625 409.442138671875 399.52056884765625 407.12384033203125 C 405.4521179199219 400.9101867675781 409.6117248535156 393.2216491699219 411.5673522949219 384.8569030761719 C 412.08056640625 382.64501953125 412.4346923828125 380.32501220703125 411.91363525390625 378.1099548339844 C 411.0411071777344 374.3907470703125 407.8068542480469 371.6069641113281 404.27886962890625 370.1346435546875 C 399.0426025390625 367.94512939453125 392.971923828125 368.1546325683594 387.65277099609375 370.137939453125 C 382.3336181640625 372.1212463378906 377.7334289550781 375.7674255371094 374.0992431640625 380.1279296875 L 374.8425598144531 379.06402587890625" stroke-width="0.6000000238418579" fill="rgb(143, 165, 67)" opacity="1.0"/>
    <path d="M 365.84210205078125 362.7778625488281 C 371.49896240234375 375.1903076171875 392.14129638671875 375.69049072265625 399.2213439941406 364.1339416503906 C 406.3013610839844 352.5773620605469 397.41900634765625 335.06085205078125 383.9414978027344 332.9303894042969 C 370.4640197753906 330.7999267578125 356.9980163574219 343.322021484375 357.15008544921875 356.9786682128906 L 365.84210205078125 362.7778625488281" stroke-width="0.6000000238418579" fill="rgb(233, 92, 21)" opacity="1.0"/>
    <path d="M 404.1737976074219 354.13201904296875 C 403.5238952636719 360.79559326171875 403.4386901855469 368.82281494140625 408.9994812011719 372.59234619140625 C 411.27081298828125 374.0063171386719 413.9249267578125 374.6806945800781 416.59576416015625 374.52227783203125 C 423.214599609375 374.3082275390625 429.319091796875 370.89935302734375 432.9735107421875 365.37664794921875 C 436.0614013671875 360.68389892578125 436.9693603515625 354.9795837402344 437.7188720703125 349.4469299316406 C 438.13482666015625 346.33831787109375 438.477783203125 343.0223388671875 437.1141357421875 340.2171325683594 C 435.2657470703125 336.4929504394531 430.9259033203125 334.7740173339844 426.875244140625 333.8425598144531 C 420.9488525390625 332.4719543457031 414.839599609375 332.0696105957031 408.7846374511719 332.6511535644531 C 406.69293212890625 332.8561096191406 404.51763916015625 333.2108459472656 402.8157958984375 334.44287109375 C 401.2920227050781 335.6693420410156 400.1579895019531 337.3127136230469 399.5520324707031 339.17254638671875 C 397.4945068359375 344.74267578125 397.9840087890625 350.9350280761719 400.8912048339844 356.1127014160156 L 404.1737976074219 354.13201904296875" stroke-width="0.6000000238418579" fill="rgb(70, 150, 179)" opacity="1.0"/>
    <path d="M 387.27252197265625 420.6082763671875 C 385.2298583984375 427.29656982421875 383.24652099609375 434.7957763671875 386.42095947265625 441.02197265625 C 389.83502197265625 447.708251953125 398.27667236328125 450.4495849609375 405.7457275390625 449.692138671875 C 408.6256103515625 449.4013671875 411.56884765625 448.63671875 413.78302001953125 446.77294921875 C 415.60382080078125 445.241455078125 416.7867431640625 443.09918212890625 417.809814453125 440.95184326171875 C 421.04449462890625 434.1839599609375 423.12567138671875 426.269775390625 420.564697265625 419.2210693359375 C 417.978759765625 412.11883544921875 410.48760986328125 407.0943908691406 402.9305419921875 407.4407958984375 C 395.3734436035156 407.78717041015625 388.32830810546875 413.40185546875 386.3625183105469 420.712158203125 L 387.27252197265625 420.6082763671875" stroke-width="0.6000000238418579" fill="rgb(140, 28, 33)" opacity="1.0"/>
    <path d="M 411.1520080566406 380.1783447265625 C 409.5712890625 386.94134521484375 408.0009765625 393.99603271484375 409.3955078125 400.80499267578125 C 410.7900390625 407.6138610839844 416.0765380859375 414.16845703125 423.00445556640625 414.7100830078125 C 431.55767822265625 415.359619140625 438.50994873046875 406.20257568359375 438.0355224609375 397.62225341796875 C 437.5611572265625 389.04193115234375 431.69598388671875 381.63677978515625 424.93463134765625 376.35028076171875 C 423.00555419921875 374.5041198730469 420.45458984375 373.44818115234375 417.78515625 373.39093017578125 C 415.1676025390625 373.61297607421875 412.7265625 376.5574951171875 413.9735107421875 378.8843994140625 L 411.1520080566406 380.1783447265625" stroke-width="0.6000000238418579" fill="rgb(159, 159, 159)" opacity="1.0"/>
    <path d="M 435.1820068359375 370.5872497558594 C 436.6522216796875 377.5638732910156 440.5447998046875 384.1887512207031 446.5340576171875 388.0501708984375 C 452.5233154296875 391.9115905761719 460.6759033203125 392.63128662109375 466.853515625 389.0189208984375 C 471.2178955078125 386.4593811035156 474.26922607421875 381.9922180175781 475.78106689453125 377.1592102050781 C 477.29290771484375 372.326171875 477.38037109375 367.14398193359375 476.7894287109375 362.1137390136719 C 476.531005859375 359.9248352050781 476.10150146484375 357.64752197265625 474.7149658203125 355.9414978027344 C 473.126220703125 353.98486328125 470.5762939453125 353.1376647949219 468.1304931640625 352.4978332519531 C 461.2254638671875 350.6915283203125 453.7806396484375 349.8746643066406 447.0406494140625 352.2256774902344 C 440.30059814453125 354.57672119140625 434.5296630859375 360.7528991699219 434.4224853515625 367.8726806640625 L 435.1820068359375 370.5872497558594" stroke-width="0.6000000238418579" fill="rgb(159, 159, 159)" opacity="1.0"/>
    <path d="M 428.876953125 410.2959289550781 C 423.68170166015625 414.88690185546875 418.1058349609375 420.215087890625 417.6104736328125 427.11688232421875 C 417.11932373046875 433.8282470703125 421.5775146484375 439.7908935546875 425.8916015625 444.9593505859375 C 427.647216796875 447.05633544921875 429.517333984375 449.22216796875 432.05462646484375 450.23876953125 C 436.344970703125 451.960693359375 441.21044921875 449.938720703125 445.03619384765625 447.35540771484375 C 448.58807373046875 444.958984375 451.7774658203125 442.0650634765625 454.5067138671875 438.7620849609375 C 458.940185546875 433.4005126953125 462.156005859375 425.9620361328125 459.4178466796875 419.569091796875 C 457.9447021484375 416.11566162109375 454.89990234375 413.5015869140625 451.53204345703125 411.8288879394531 C 448.1641845703125 410.15618896484375 444.446533203125 409.32904052734375 440.7646484375 408.5647888183594 C 437.082763671875 407.800537109375 433.4486083984375 407.1284484863281 429.8651123046875 407.9236755371094 L 428.876953125 410.2959289550781" stroke-width="0.6000000238418579" fill="rgb(218, 166, 20)" opacity="1.0"/>
    <path d="M 135.5784149169922 215.25469970703125 C 133.7672576904297 227.70367431640625 142.3909149169922 239.2637939453125 154.8398895263672 241.074951171875 C 155.90589904785156 241.23007202148438 156.9815673828125 241.309326171875 158.05880737304688 241.31219482421875 C 162.15203857421875 241.32232666015625 166.41122436523438 240.10772705078125 169.28668212890625 237.19732666015625 C 171.71688842773438 234.73809814453125 172.93441772460938 231.34396362304688 173.74252319335938 227.98468017578125 C 175.89321899414062 218.98968505859375 175.59622192382812 209.5828857421875 172.88238525390625 200.74148559570312 C 172.1611328125 198.4056396484375 171.2332763671875 196.05548095703125 169.54815673828125 194.2772216796875 C 166.72091674804688 191.29013061523438 162.2034912109375 190.453125 158.12356567382812 190.995361328125 C 152.06576538085938 191.79620361328125 146.53182983398438 195.28094482421875 142.65829467773438 200.00863647460938 C 138.78477478027344 204.73626708984375 136.48121643066406 210.62127685546875 135.46347045898438 216.64724731445312 L 135.5784149169922 215.25469970703125" stroke-width="0.6000000238418579" fill="rgb(143, 165, 67)" opacity="1.0"/>
    <path d="M 170.39749145507812 263.4258117675781 C 179.2952880859375 274.8433837890625 200.72479248046875 270.2724914550781 205.18453979492188 256.5993957519531 C 209.64422607421875 242.92626953125 196.15933227539062 227.03536987304688 181.72332763671875 228.1578369140625 C 167.28729248046875 229.28030395507812 156.47418212890625 245.52374267578125 159.9967041015625 259.5821838378906 L 170.39749145507812 263.4258117675781" stroke-width="0.6000000238418579" fill="rgb(233, 92, 21)" opacity="1.0"/>
    <path d="M 145.69171142578125 313.9292907714844 C 140.02490234375 318.18096923828125 133.69671630859375 323.8474426269531 134.72511291503906 330.88128662109375 C 135.24330139160156 333.6645202636719 136.61236572265625 336.2183837890625 138.64352416992188 338.1905517578125 C 143.5377960205078 343.2054138183594 150.5591278076172 345.5369567871094 157.48098754882812 344.4458312988281 C 163.35028076171875 343.5052185058594 168.45245361328125 340.1401062011719 173.30743408203125 336.77386474609375 C 176.03158569335938 334.8785095214844 178.86550903320312 332.77801513671875 180.08175659179688 329.7098083496094 C 181.66937255859375 325.6069030761719 179.91192626953125 320.9908447265625 177.7462158203125 317.16302490234375 C 174.58370971679688 311.5570068359375 170.53466796875 306.4998474121094 165.75616455078125 302.18768310546875 C 164.10223388671875 300.700927734375 162.271728515625 299.25592041015625 160.0943603515625 298.8070983886719 C 158.04849243164062 298.4933166503906 155.95550537109375 298.7816162109375 154.0706329345703 299.6368103027344 C 148.252197265625 302.008544921875 143.76705932617188 306.81329345703125 141.8008575439453 312.7809753417969 L 145.69171142578125 313.9292907714844" stroke-width="0.6000000238418579" fill="rgb(70, 150, 179)" opacity="1.0"/>
    <path d="M 123.54481506347656 302.6407470703125 C 123.68045043945312 294.9360656738281 123.50727844238281 286.39031982421875 118.25625610351562 280.7572326660156 C 112.61186218261719 274.7094421386719 102.83782958984375 274.3654479980469 95.15516662597656 277.4328918457031 C 92.19253540039062 278.61431884765625 89.30650329589844 280.3168640136719 87.526123046875 282.9627685546875 C 86.06170654296875 285.1373291015625 85.458251953125 287.76544189453125 85.02560424804688 290.35052490234375 C 83.65139770507812 298.5010070800781 83.84675598144531 307.51611328125 88.69729614257812 314.20654296875 C 93.590576171875 320.94610595703125 103.050048828125 323.9969787597656 110.95063781738281 321.3382568359375 C 118.85122680664062 318.6795654296875 124.61180114746094 310.5951232910156 124.47734069824219 302.2547607421875 L 123.54481506347656 302.6407470703125" stroke-width="0.6000000238418579" fill="rgb(140, 28, 33)" opacity="1.0"/>
    <path d="M 142.71728515625 271.74066162109375 C 136.62722778320312 275.1349182128906 130.3275909423828 278.7339782714844 126.21305847167969 284.3687744140625 C 122.09861755371094 290.00347900390625 120.80191040039062 298.35675048828125 125.07917785644531 303.8674011230469 C 130.3741912841797 310.6579284667969 141.8704071044922 309.6356201171875 147.921875 303.48760986328125 C 153.9733428955078 297.3396301269531 155.51089477539062 287.982177734375 154.86972045898438 279.39019775390625 C 154.9376983642578 276.71063232421875 153.99879455566406 274.1029968261719 152.23817443847656 272.0819091796875 C 150.30526733398438 270.2880859375 146.46975708007812 270.4642333984375 145.58399963378906 272.9619140625 L 142.71728515625 271.74066162109375" stroke-width="0.6000000238418579" fill="rgb(159, 159, 159)" opacity="1.0"/>
    <path d="M 161.03302001953125 284.1509094238281 C 160.28692626953125 291.6269226074219 162.08599853515625 299.5213928222656 166.87152099609375 305.3082275390625 C 171.65701293945312 311.09503173828125 179.616455078125 314.41546630859375 186.97238159179688 312.75531005859375 C 192.171630859375 311.5749816894531 196.65982055664062 308.0602111816406 199.71820068359375 303.68743896484375 C 202.776611328125 299.3146667480469 204.51556396484375 294.1373596191406 205.5247802734375 288.8965148925781 C 205.96261596679688 286.6155700683594 206.25677490234375 284.1913146972656 205.40765380859375 282.03594970703125 C 204.43524169921875 279.5644226074219 202.14398193359375 277.9010314941406 199.89117431640625 276.4790954589844 C 193.53106689453125 272.4647521972656 186.31341552734375 269.2722473144531 178.79446411132812 269.4862060546875 C 171.27545166015625 269.7001953125 163.5111083984375 274.0650939941406 161.13497924804688 281.1822814941406 L 161.03302001953125 284.1509094238281" stroke-width="0.6000000238418579" fill="rgb(159, 159, 159)" opacity="1.0"/>
    <path d="M 126.3736572265625 348.25457763671875 C 126.22003173828125 340.69091796875 125.72161865234375 332.29022216796875 120.32778930664062 327.0067138671875 C 115.08950805664062 321.861083984375 106.98097229003906 321.3625183105469 99.63507080078125 321.30462646484375 C 96.65087890625 321.2855224609375 93.52864074707031 321.3131103515625 90.89179992675781 322.70703125 C 86.43069458007812 325.06195068359375 84.67929077148438 330.5379638671875 84.1287841796875 335.5449523925781 C 83.61602783203125 340.19207763671875 83.77322387695312 344.88873291015625 84.59553527832031 349.4911804199219 C 85.92802429199219 356.96478271484375 89.84828186035156 364.8909912109375 97.10086059570312 367.12457275390625 C 101.0145263671875 368.33612060546875 105.33889770507812 367.6473693847656 109.10787963867188 366.025390625 C 112.87687683105469 364.40338134765625 116.18919372558594 361.8934326171875 119.42385864257812 359.36895751953125 C 122.65850830078125 356.844482421875 125.78280639648438 354.29461669921875 127.65032958984375 350.751220703125 L 126.3736572265625 348.25457763671875" stroke-width="0.6000000238418579" fill="rgb(218, 166, 20)" opacity="1.0"/>
    <path d="M 151.4176483154297 342.44708251953125 C 139.80075073242188 344.821044921875 132.307861328125 356.1628723144531 134.6818084716797 367.77978515625 C 134.8850860595703 368.7745361328125 135.15869140625 369.75360107421875 135.50051879882812 370.70965576171875 C 136.80010986328125 374.3421630859375 139.2386474609375 377.73028564453125 142.7384033203125 379.349365234375 C 145.69581604003906 380.7179260253906 149.09445190429688 380.7123718261719 152.33131408691406 380.3549499511719 C 160.9942626953125 379.38623046875 169.23983764648438 376.1156311035156 176.21148681640625 370.8829345703125 C 178.052001953125 369.49664306640625 179.839111328125 367.92266845703125 180.87713623046875 365.86004638671875 C 182.62176513671875 362.3983154296875 181.91973876953125 358.1253967285156 180.1346435546875 354.6812744140625 C 177.48797607421875 349.5661315917969 172.6290283203125 345.77349853515625 167.19891357421875 343.8504333496094 C 161.76882934570312 341.9273681640625 155.8144989013672 341.76629638671875 150.1461944580078 342.7903747558594 L 151.4176483154297 342.44708251953125" stroke-width="0.6000000238418579" fill="rgb(143, 165, 67)" opacity="1.0"/>
    <path d="M 137.66854858398438 376.1469421386719 C 134.4340057373047 362.3096923828125 113.45236206054688 357.5690612792969 103.85273742675781 367.9222106933594 C 94.25315856933594 378.275390625 99.73637390136719 397.98687744140625 113.0657958984375 402.924560546875 C 126.39520263671875 407.86224365234375 142.7152862548828 397.8314208984375 145.35830688476562 383.851318359375 L 137.66854858398438 376.1469421386719" stroke-width="0.6000000238418579" fill="rgb(233, 92, 21)" opacity="1.0"/>
    <path d="M 180.73532104492188 353.6133728027344 C 179.59716796875 360.51080322265625 178.95294189453125 368.8680114746094 184.485595703125 373.1800231933594 C 186.754150390625 374.81036376953125 189.47268676757812 375.69659423828125 192.2662353515625 375.71636962890625 C 199.17681884765625 375.9513244628906 205.77264404296875 372.82220458984375 209.9620361328125 367.32122802734375 C 213.50387573242188 362.64581298828125 214.84454345703125 356.7655944824219 216.00823974609375 351.05328369140625 C 216.65667724609375 347.8434143066406 217.24343872070312 344.4123840332031 216.01678466796875 341.39544677734375 C 214.34878540039062 337.3875427246094 209.94622802734375 335.2964172363281 205.79055786132812 334.0456848144531 C 199.71099853515625 332.2076721191406 193.3740234375 331.36578369140625 187.025390625 331.5527038574219 C 184.83197021484375 331.6214904785156 182.5411376953125 331.840576171875 180.682861328125 333.0063781738281 C 179.01043701171875 334.1787414550781 177.71527099609375 335.8124084472656 176.95526123046875 337.7081604003906 C 174.42620849609375 343.3689880371094 174.50775146484375 349.8543395996094 177.1783447265625 355.4497985839844 L 180.73532104492188 353.6133728027344" stroke-width="0.6000000238418579" fill="rgb(70, 150, 179)" opacity="1.0"/>
  </g>
</svg>
