<?xml version="1.0" ?>
<svg xmlns="http://www.w3.org/2000/svg" version="1.1" width="600" height="600">
  <defs/>
  <g>
    <path d="M 352.3079528808594 344.1228942871094 C 356.5351257324219 347.03875732421875 363.2998962402344 343.2093200683594 363.35260009765625 338.1073303222656 C 363.4052734375 333.00537109375 357.1493225097656 329.0643615722656 352.3838195800781 330.98193359375 C 347.6182861328125 332.8995056152344 345.6894226074219 339.54803466796875 348.3789367675781 343.93011474609375 L 352.3079528808594 344.1228942871094" stroke-width="0.6000000238418579" fill="rgb(233, 92, 21)" opacity="1.0"/>
    <path d="M 124.57723999023438 210.17422485351562 C 128.778564453125 209.34442138671875 133.71109008789062 207.91748046875 134.99533081054688 203.8167724609375 C 135.44290161132812 202.16497802734375 135.36688232421875 200.41497802734375 134.77772521972656 198.8082275390625 C 133.42697143554688 194.79351806640625 130.214111328125 191.68252563476562 126.15794372558594 190.46182250976562 C 122.71455383300781 189.43511962890625 119.05322265625 189.93011474609375 115.5262451171875 190.49050903320312 C 113.5455322265625 190.80853271484375 111.45121765136719 191.20947265625 109.98426818847656 192.56170654296875 C 108.04371643066406 194.38006591796875 107.79054260253906 197.3551025390625 107.96640014648438 200.0078125 C 108.21891784667969 203.89044189453125 109.09820556640625 207.70657348632812 110.57015991210938 211.3082275390625 C 111.08113098144531 212.55166625976562 111.69924926757812 213.81869506835938 112.76747131347656 214.63409423828125 C 113.79949951171875 215.3414306640625 115.01504516601562 215.73324584960938 116.26589965820312 215.76168823242188 C 120.05686950683594 215.99557495117188 123.75959777832031 214.5546875 126.39532470703125 211.81988525390625 L 124.57723999023438 210.17422485351562" stroke-width="0.6000000238418579" fill="rgb(70, 150, 179)" opacity="1.0"/>
    <path d="M 454.519287109375 412.8157958984375 C 456.961181640625 415.585205078125 459.7841796875 418.5523681640625 463.46221923828125 418.84820556640625 C 467.4134521484375 419.16357421875 470.9822998046875 416.1265869140625 472.70880126953125 412.5587158203125 C 473.37506103515625 411.1833190917969 473.8458251953125 409.6483459472656 473.62060546875 408.136962890625 C 473.4359130859375 406.8944396972656 472.800048828125 405.76971435546875 472.11767578125 404.71539306640625 C 469.9698486328125 401.3879699707031 466.9873046875 398.26190185546875 463.1092529296875 397.462646484375 C 459.2001953125 396.6597900390625 454.867919921875 398.63751220703125 452.93212890625 402.13128662109375 C 450.9964599609375 405.6250305175781 451.57122802734375 410.34661865234375 454.31414794921875 413.253662109375 L 454.519287109375 412.8157958984375" stroke-width="0.6000000238418579" fill="rgb(140, 28, 33)" opacity="1.0"/>
    <path d="M 90.46435546875 208.32080078125 C 94.57223510742188 207.66290283203125 98.8394775390625 206.9329833984375 102.29788208007812 204.61517333984375 C 105.7562255859375 202.29742431640625 108.19064331054688 197.87969970703125 106.91926574707031 193.91610717773438 C 105.33895874023438 189.0269775390625 98.68524169921875 187.25015258789062 94.03610229492188 189.459716796875 C 89.38694763183594 191.66925048828125 86.61224365234375 196.60073852539062 85.21539306640625 201.54840087890625 C 84.62954711914062 203.03668212890625 84.62286376953125 204.6904296875 85.19671630859375 206.183349609375 C 85.91363525390625 207.58404541015625 88.09980773925781 208.26934814453125 89.10691833496094 207.0501708984375 L 90.46435546875 208.32080078125" stroke-width="0.6000000238418579" fill="rgb(159, 159, 159)" opacity="1.0"/>
    <path d="M 382.60772705078125 304.1210021972656 C 386.52447509765625 302.9095458984375 390.1114501953125 300.3297119140625 392.0050964355469 296.6958312988281 C 393.8987121582031 293.0619201660156 393.87884521484375 288.3558349609375 391.483154296875 285.0101013183594 C 389.786376953125 282.64678955078125 387.0669250488281 281.1363525390625 384.21954345703125 280.52679443359375 C 381.3721618652344 279.917236328125 378.4003601074219 280.1417236328125 375.55145263671875 280.74658203125 C 374.31182861328125 281.0105285644531 373.0306701660156 281.37713623046875 372.1273193359375 282.26141357421875 C 371.0911560058594 283.2747802734375 370.7411804199219 284.7796630859375 370.5044250488281 286.2139892578125 C 369.8360290527344 290.2633361816406 369.7627868652344 294.5693664550781 371.4660339355469 298.303955078125 C 373.1692810058594 302.0385437011719 377.0113830566406 305.0155944824219 381.0936584472656 304.6997375488281 L 382.60772705078125 304.1210021972656" stroke-width="0.6000000238418579" fill="rgb(159, 159, 159)" opacity="1.0"/>
    <path d="M 101.39120483398438 426.15289306640625 C 103.4158935546875 423.348876953125 105.54493713378906 420.1444091796875 105.02897644042969 416.73138427734375 C 104.53187561035156 413.4114990234375 101.70834350585938 410.998779296875 99.04202270507812 408.956787109375 C 97.95765686035156 408.12884521484375 96.81002807617188 407.27996826171875 95.46377563476562 407.06353759765625 C 93.18702697753906 406.6961669921875 91.04107666015625 408.21380615234375 89.462646484375 409.8905944824219 C 87.99699401855469 411.44635009765625 86.7623291015625 413.2044677734375 85.79644775390625 415.1112060546875 C 84.22698974609375 418.2066650390625 83.4779052734375 422.17919921875 85.5115966796875 424.989990234375 C 86.6072998046875 426.509033203125 88.37574768066406 427.4471435546875 90.19815063476562 427.89178466796875 C 92.02053833007812 428.33642578125 93.92047119140625 428.3311767578125 95.79603576660156 428.2991943359375 C 97.67160034179688 428.267333984375 99.51385498046875 428.19580078125 101.1705322265625 427.41571044921875 L 101.39120483398438 426.15289306640625" stroke-width="0.6000000238418579" fill="rgb(218, 166, 20)" opacity="1.0"/>
    <path d="M 99.546875 148.04571533203125 C 106.71713256835938 148.8802490234375 113.206298828125 143.744140625 114.04083251953125 136.5738983154297 C 114.1123046875 135.95989990234375 114.14010620117188 135.3416290283203 114.12406921386719 134.72369384765625 C 114.06271362304688 132.37570190429688 113.29612731933594 129.95265197753906 111.57958984375 128.35110473632812 C 110.12911987304688 126.99754333496094 108.16232299804688 126.35488891601562 106.22222900390625 125.94650268554688 C 101.02755737304688 124.86053466796875 95.63687133789062 125.18527221679688 90.610107421875 126.88697814941406 C 89.28216552734375 127.33901977539062 87.94937133789062 127.9097900390625 86.95703125 128.90554809570312 C 85.29010009765625 130.5762176513672 84.8841552734375 133.18106079101562 85.26214599609375 135.51234436035156 C 85.82089233398438 138.97384643554688 87.9105224609375 142.09083557128906 90.68580627441406 144.2350311279297 C 93.46107482910156 146.37924194335938 96.87440490722656 147.6039276123047 100.34750366210938 148.0887908935547 L 99.546875 148.04571533203125" stroke-width="0.6000000238418579" fill="rgb(143, 165, 67)" opacity="1.0"/>
    <path d="M 459.59307861328125 346.2749328613281 C 462.5247802734375 353.1872863769531 473.8758544921875 353.763427734375 477.9400634765625 347.5076904296875 C 482.0042724609375 341.251953125 477.3721923828125 331.4841003417969 469.9873046875 330.1153564453125 C 462.6024169921875 328.7466125488281 455.01025390625 335.4405212402344 454.8948974609375 342.9572448730469 L 459.59307861328125 346.2749328613281" stroke-width="0.6000000238418579" fill="rgb(233, 92, 21)" opacity="1.0"/>
    <path d="M 105.61495971679688 223.22772216796875 C 108.4527587890625 220.26663208007812 111.53549194335938 216.43524169921875 110.28732299804688 212.51376342773438 C 109.7298583984375 210.97250366210938 108.7078857421875 209.6422119140625 107.36233520507812 208.70639038085938 C 104.09542846679688 206.3013916015625 99.865478515625 205.62899780273438 96.01385498046875 206.9024658203125 C 92.74937438964844 207.99111938476562 90.15081787109375 210.3927001953125 87.69361877441406 212.77169799804688 C 86.31547546386719 214.11029052734375 84.89389038085938 215.576416015625 84.4873046875 217.443359375 C 83.96577453613281 219.936279296875 85.4033203125 222.40814208984375 87.00003051757812 224.391357421875 C 89.33319091796875 227.2967529296875 92.12124633789062 229.8052978515625 95.25601196289062 231.81979370117188 C 96.34046936035156 232.51373291015625 97.52189636230469 233.16726684570312 98.80787658691406 233.21914672851562 C 100.00605773925781 233.20623779296875 101.17459106445312 232.84490966796875 102.17098999023438 232.17935180664062 C 105.27200317382812 230.2779541015625 107.38282775878906 227.1119384765625 107.94546508789062 223.5181884765625 L 105.61495971679688 223.22772216796875" stroke-width="0.6000000238418579" fill="rgb(70, 150, 179)" opacity="1.0"/>
    <path d="M 104.74705505371094 80.61695861816406 C 105.40316772460938 84.34121704101562 106.28680419921875 88.44172668457031 109.34384155273438 90.66363525390625 C 112.62921142578125 93.04849243164062 117.36984252929688 92.29898071289062 120.7835693359375 90.10189819335938 C 122.10011291503906 89.25537109375 123.33096313476562 88.16494750976562 123.94087219238281 86.7236328125 C 124.44270324707031 85.53897094726562 124.4873046875 84.2164306640625 124.45365905761719 82.93060302734375 C 124.35244750976562 78.8756103515625 123.4141845703125 74.55108642578125 120.4510498046875 71.78231811523438 C 117.46273803710938 68.993896484375 112.62017822265625 68.40997314453125 109.06320190429688 70.4305419921875 C 105.5062255859375 72.45111083984375 103.48822021484375 76.88502502441406 104.333984375 80.89022827148438 L 104.74705505371094 80.61695861816406" stroke-width="0.6000000238418579" fill="rgb(140, 28, 33)" opacity="1.0"/>
    <path d="M 92.22671508789062 408.7369079589844 C 96.04649353027344 406.5865783691406 99.99746704101562 404.3069152832031 102.5692138671875 400.7532653808594 C 105.140869140625 397.1996154785156 105.9337158203125 391.94439697265625 103.22979736328125 388.49127197265625 C 99.882568359375 384.2362060546875 92.65754699707031 384.9097595214844 88.86941528320312 388.7912902832031 C 85.081298828125 392.6728210449219 84.13972473144531 398.56005859375 84.56588745117188 403.96014404296875 C 84.53031921386719 405.64501953125 85.12760925292969 407.28192138671875 86.23994445800781 408.5478820800781 C 87.45999145507812 409.6705017089844 89.87094116210938 409.5494689941406 90.42111206054688 407.9767761230469 L 92.22671508789062 408.7369079589844" stroke-width="0.6000000238418579" fill="rgb(159, 159, 159)" opacity="1.0"/>
    <path d="M 477.4036865234375 69.8338623046875 C 478.4969482421875 66.44418334960938 478.45263671875 62.606109619140625 476.81365966796875 59.44610595703125 C 475.1746826171875 56.286102294921875 471.81842041015625 53.95164489746094 468.2437744140625 53.98545837402344 C 465.716552734375 54.0125732421875 463.28533935546875 55.1925048828125 461.430908203125 56.912994384765625 C 459.57647705078125 58.63348388671875 458.2530517578125 60.85870361328125 457.2613525390625 63.18632507324219 C 456.8304443359375 64.19950866699219 456.45172119140625 65.29347229003906 456.62969970703125 66.37713623046875 C 456.8331298828125 67.61962890625 457.7286376953125 68.6195068359375 458.63037109375 69.503662109375 C 461.1761474609375 71.999755859375 464.2015380859375 74.20077514648438 467.70709228515625 74.85340881347656 C 471.212646484375 75.50602722167969 475.2469482421875 74.25971984863281 477.0596923828125 71.19927978515625 L 477.4036865234375 69.8338623046875" stroke-width="0.6000000238418579" fill="rgb(159, 159, 159)" opacity="1.0"/>
    <path d="M 89.33282470703125 109.394775390625 C 93.44549560546875 110.51181030273438 98.06533813476562 111.57525634765625 101.7769775390625 109.49806213378906 C 105.389404296875 107.48307800292969 106.94538879394531 103.17935180664062 108.14218139648438 99.21792602539062 C 108.6259765625 97.60792541503906 109.1064453125 95.91592407226562 108.7713623046875 94.26950073242188 C 108.20628356933594 91.48454284667969 105.52426147460938 89.66903686523438 102.90522766113281 88.57708740234375 C 100.4747314453125 87.56260681152344 97.9111328125 86.90240478515625 95.29293823242188 86.61665344238281 C 91.04190063476562 86.151123046875 86.1356201171875 87.01252746582031 83.77764892578125 90.57832336425781 C 82.5018310546875 92.50149536132812 82.18800354003906 94.94819641113281 82.46673583984375 97.24275207519531 C 82.74546813964844 99.53732299804688 83.57659912109375 101.72592163085938 84.42793273925781 103.87486267089844 C 85.27926635742188 106.02378845214844 86.16180419921875 108.11709594726562 87.78077697753906 109.68873596191406 L 89.33282470703125 109.394775390625" stroke-width="0.6000000238418579" fill="rgb(218, 166, 20)" opacity="1.0"/>
    <path d="M 128.596435546875 138.31317138671875 C 135.16079711914062 137.85867309570312 140.11383056640625 132.16876220703125 139.65933227539062 125.60440063476562 C 139.62042236328125 125.04228210449219 139.5416717529297 124.483642578125 139.42369079589844 123.93267822265625 C 138.9750213623047 121.83920288085938 137.8819122314453 119.79672241210938 136.0753936767578 118.64956665039062 C 134.548828125 117.67999267578125 132.67886352539062 117.4339599609375 130.87208557128906 117.39334106445312 C 126.03565979003906 117.29132080078125 121.2601318359375 118.48614501953125 117.04156494140625 120.85366821289062 C 115.92752075195312 121.48135375976562 114.82907104492188 122.21621704101562 114.10690307617188 123.2747802734375 C 112.89346313476562 125.05117797851562 112.96649169921875 127.45315551757812 113.696044921875 129.47857666015625 C 114.77706909179688 132.48634338378906 117.17198181152344 134.92874145507812 120.01811218261719 136.38458251953125 C 122.86422729492188 137.84043884277344 126.12786865234375 138.36541748046875 129.32101440429688 138.21751403808594 L 128.596435546875 138.31317138671875" stroke-width="0.6000000238418579" fill="rgb(143, 165, 67)" opacity="1.0"/>
    <path d="M 394.8316650390625 309.3016662597656 C 397.7612609863281 317.2898864746094 410.5760498046875 318.5799865722656 415.527587890625 311.7281799316406 C 420.4791259765625 304.8763427734375 415.7855224609375 293.5606384277344 407.50421142578125 291.5964050292969 C 399.222900390625 289.63214111328125 390.2538146972656 296.7816162109375 389.70068359375 305.2825927734375 L 394.8316650390625 309.3016662597656" stroke-width="0.6000000238418579" fill="rgb(233, 92, 21)" opacity="1.0"/>
    <path d="M 125.36029052734375 112.20391845703125 C 129.4671630859375 111.26071166992188 134.27511596679688 109.70809936523438 135.41412353515625 105.63624572753906 C 135.80433654785156 103.99818420410156 135.6766357421875 102.27938842773438 135.04859924316406 100.71697998046875 C 133.5987091064453 96.80937194824219 130.34475708007812 93.846923828125 126.31861877441406 92.76904296875 C 122.9010009765625 91.86346435546875 119.31507873535156 92.46101379394531 115.86328125 93.11886596679688 C 113.92486572265625 93.49154663085938 111.87725830078125 93.94924926757812 110.47540283203125 95.323486328125 C 108.62188720703125 97.17057800292969 108.462890625 100.10414123535156 108.71609497070312 102.707763671875 C 109.08187866210938 106.51866149902344 110.06208801269531 110.24520874023438 111.61868286132812 113.74288940429688 C 112.15884399414062 114.95036315917969 112.80508422851562 116.17778015136719 113.88034057617188 116.94740295410156 C 114.91671752929688 117.61187744140625 116.12408447265625 117.96041870117188 117.35514831542969 117.9505615234375 C 121.09060668945312 118.06591796875 124.68864440917969 116.53680419921875 127.19813537597656 113.76742553710938 L 125.36029052734375 112.20391845703125" stroke-width="0.6000000238418579" fill="rgb(70, 150, 179)" opacity="1.0"/>
    <path d="M 422.2552490234375 64.9156494140625 C 423.6396484375 67.67813110351562 425.2900390625 70.68199157714844 428.2030029296875 71.7069091796875 C 431.332763671875 72.8060302734375 434.86920166015625 71.11091613769531 437.0283203125 68.5926513671875 C 437.86114501953125 67.62208557128906 438.5699462890625 66.4805908203125 438.71044921875 65.20953369140625 C 438.826416015625 64.16470336914062 438.5521240234375 63.118804931640625 438.2252197265625 62.11994934082031 C 437.19793701171875 58.96881103515625 435.4522705078125 55.80230712890625 432.485107421875 54.3272705078125 C 429.4935302734375 52.842742919921875 425.5655517578125 53.5177001953125 423.2530517578125 55.931243896484375 C 420.9405517578125 58.34480285644531 420.39715576171875 62.28807067871094 421.9957275390625 65.22616577148438 L 422.2552490234375 64.9156494140625" stroke-width="0.6000000238418579" fill="rgb(140, 28, 33)" opacity="1.0"/>
    <path d="M 118.02777099609375 424.029541015625 C 120.17800903320312 420.72430419921875 122.37904357910156 417.26129150390625 122.94976806640625 413.3568115234375 C 123.52047729492188 409.452392578125 121.96420288085938 404.9319152832031 118.3702392578125 403.3045654296875 C 113.92936706542969 401.3056335449219 108.44894409179688 404.8514099121094 107.04484558105469 409.52386474609375 C 105.6407470703125 414.1962890625 107.34159851074219 419.2825927734375 109.93016052246094 423.4110107421875 C 110.60343933105469 424.76922607421875 111.7613525390625 425.82568359375 113.17546081542969 426.3719482421875 C 114.61575317382812 426.7589111328125 116.48773193359375 425.658447265625 116.27151489257812 424.17535400390625 L 118.02777099609375 424.029541015625" stroke-width="0.6000000238418579" fill="rgb(159, 159, 159)" opacity="1.0"/>
    <path d="M 472.25421142578125 445.11163330078125 C 473.2755126953125 441.84014892578125 473.1981201171875 438.1474609375 471.592529296875 435.1217041015625 C 469.9869384765625 432.09588623046875 466.736328125 429.87994384765625 463.29705810546875 429.94482421875 C 460.86553955078125 429.9937744140625 458.536865234375 431.15106201171875 456.76806640625 432.8233642578125 C 454.999267578125 434.49560546875 453.74591064453125 436.648681640625 452.812744140625 438.8973388671875 C 452.4072265625 439.87615966796875 452.052734375 440.93218994140625 452.2337646484375 441.97332763671875 C 452.4407958984375 443.1669921875 453.31146240234375 444.12103271484375 454.1871337890625 444.963623046875 C 456.6593017578125 447.3424072265625 459.59027099609375 449.43292236328125 462.96929931640625 450.0291748046875 C 466.348388671875 450.62548828125 470.218994140625 449.3897705078125 471.93548583984375 446.4285888671875 L 472.25421142578125 445.11163330078125" stroke-width="0.6000000238418579" fill="rgb(159, 159, 159)" opacity="1.0"/>
    <path d="M 452.191162109375 293.29583740234375 C 452.7110595703125 288.85430908203125 453.09661865234375 283.89483642578125 450.3641357421875 280.365966796875 C 447.71160888671875 276.9303894042969 443.00360107421875 275.984619140625 438.7066650390625 275.3583984375 C 436.960693359375 275.1065673828125 435.130126953125 274.8709411621094 433.4736328125 275.4745788574219 C 430.67138671875 276.4938659667969 429.20428466796875 279.5592956542969 428.4781494140625 282.4468994140625 C 427.80322265625 285.1268310546875 427.51654052734375 287.8898010253906 427.626953125 290.6512145996094 C 427.8045654296875 295.1350402832031 429.4610595703125 300.0926208496094 433.5279541015625 301.9853515625 C 435.7220458984375 303.0104064941406 438.30987548828125 302.9557800292969 440.647705078125 302.30987548828125 C 442.98553466796875 301.6639709472656 445.1275634765625 300.4613037109375 447.22528076171875 299.2438049316406 C 449.322998046875 298.0263671875 451.358154296875 296.7851257324219 452.7374267578125 294.86077880859375 L 452.191162109375 293.29583740234375" stroke-width="0.6000000238418579" fill="rgb(218, 166, 20)" opacity="1.0"/>
    <path d="M 426.10821533203125 367.3390197753906 C 423.930908203125 370.95538330078125 425.097412109375 375.652099609375 428.7137451171875 377.8294372558594 C 429.0234375 378.0158996582031 429.345947265625 378.1801452636719 429.67889404296875 378.3209533691406 C 430.9439697265625 378.8557434082031 432.41949462890625 379.0331726074219 433.6871337890625 378.5062255859375 C 434.75848388671875 378.0610046386719 435.5760498046875 377.1690368652344 436.26239013671875 376.2346496582031 C 438.09613037109375 373.7310485839844 439.22607421875 370.7820739746094 439.53485107421875 367.6941223144531 C 439.6151123046875 366.87774658203125 439.63330078125 366.0301208496094 439.3428955078125 365.26104736328125 C 438.856201171875 363.96966552734375 437.5672607421875 363.1239318847656 436.2344970703125 362.7617492675781 C 434.2562255859375 362.2226867675781 432.0914306640625 362.58203125 430.2789306640625 363.5416259765625 C 428.4664306640625 364.5011901855469 426.9893798828125 366.0227355957031 425.89178466796875 367.75494384765625 L 426.10821533203125 367.3390197753906" stroke-width="0.6000000238418579" fill="rgb(143, 165, 67)" opacity="1.0"/>
    <path d="M 452.92578125 348.1238708496094 C 458.5943603515625 344.4185791015625 457.2950439453125 334.25 451.09326171875 331.6400451660156 C 444.8914794921875 329.03009033203125 436.959228515625 334.700439453125 436.9222412109375 341.47454833984375 C 436.88525390625 348.2486572265625 444.038818359375 353.9205627441406 450.7301025390625 352.8238830566406 L 452.92578125 348.1238708496094" stroke-width="0.6000000238418579" fill="rgb(233, 92, 21)" opacity="1.0"/>
    <path d="M 451.3033447265625 70.33218383789062 C 454.67315673828125 69.51654052734375 458.6138916015625 68.1927490234375 459.51165771484375 64.83168029785156 C 459.81689453125 63.480224609375 459.69525146484375 62.06732177734375 459.1634521484375 60.787933349609375 C 457.932861328125 57.587005615234375 455.22711181640625 55.18109130859375 451.90423583984375 54.3331298828125 C 449.083740234375 53.621063232421875 446.13916015625 54.147308349609375 443.30560302734375 54.72186279296875 C 441.71441650390625 55.04719543457031 440.0341796875 55.443511962890625 438.89404296875 56.58770751953125 C 437.386962890625 58.12525939941406 437.284423828125 60.54034423828125 437.5179443359375 62.68000793457031 C 437.85565185546875 65.81184387207031 438.69805908203125 68.86834716796875 440.012451171875 71.73100280761719 C 440.46856689453125 72.71922302246094 441.0120849609375 73.72283935546875 441.9041748046875 74.34564208984375 C 442.7633056640625 74.88232421875 443.75994873046875 75.15744018554688 444.772705078125 75.137451171875 C 447.84716796875 75.1962890625 450.7926025390625 73.90351867675781 452.83056640625 71.60081481933594 L 451.3033447265625 70.33218383789062" stroke-width="0.6000000238418579" fill="rgb(70, 150, 179)" opacity="1.0"/>
    <path d="M 454.805419921875 400.1916198730469 C 454.83984375 396.7494812011719 454.7333984375 392.93267822265625 452.36865234375 390.4342041015625 C 449.8267822265625 387.7518005371094 445.45953369140625 387.63134765625 442.0380859375 389.02764892578125 C 440.71875 389.5654602050781 439.435302734375 390.3357849121094 438.64898681640625 391.5237731933594 C 438.002197265625 392.5001220703125 437.7415771484375 393.6761474609375 437.55712890625 394.8323974609375 C 436.970947265625 398.4778747558594 437.08880615234375 402.5042724609375 439.27825927734375 405.4764099121094 C 441.4869384765625 408.4703674316406 445.722900390625 409.8010559082031 449.2430419921875 408.5865783691406 C 452.76318359375 407.3721008300781 455.30902099609375 403.7412109375 455.22064208984375 400.0160217285156 L 454.805419921875 400.1916198730469" stroke-width="0.6000000238418579" fill="rgb(140, 28, 33)" opacity="1.0"/>
    <path d="M 123.98863220214844 210.39166259765625 C 118.61630249023438 213.26611328125 113.05775451660156 216.31637573242188 109.37799072265625 221.17822265625 C 105.69827270507812 226.03997802734375 104.43988037109375 233.3194580078125 108.09457397460938 238.19879150390625 C 112.61935424804688 244.21170043945312 122.67990112304688 243.490966796875 128.05984497070312 238.20977783203125 C 133.43978881835938 232.9285888671875 134.9237060546875 224.7752685546875 134.49241638183594 217.25811767578125 C 134.592041015625 214.91775512695312 133.81077575683594 212.62518310546875 132.30270385742188 210.832763671875 C 130.64068603515625 209.236328125 127.28665161132812 209.33267211914062 126.47518920898438 211.5018310546875 L 123.98863220214844 210.39166259765625" stroke-width="0.6000000238418579" fill="rgb(159, 159, 159)" opacity="1.0"/>
    <path d="M 108.40908813476562 238.8955078125 C 102.9222412109375 237.12069702148438 96.70777893066406 237.18710327148438 91.58897399902344 239.83636474609375 C 86.47016906738281 242.48565673828125 82.68563842773438 247.91668701171875 82.73538208007812 253.70458984375 C 82.77574157714844 257.796630859375 84.68283081054688 261.7347412109375 87.4659423828125 264.73974609375 C 90.24906921386719 267.7447509765625 93.85017395019531 269.8907165527344 97.6175537109375 271.4996337890625 C 99.2574462890625 272.1988220214844 101.02818298339844 272.8135070800781 102.78305053710938 272.52685546875 C 104.79510498046875 272.1991271972656 106.41531372070312 270.7507019042969 107.84814453125 269.2919006347656 C 111.89324951171875 265.17333984375 115.46127319335938 260.2779541015625 116.52288818359375 254.60284423828125 C 117.58448791503906 248.92767333984375 115.57217407226562 242.393798828125 110.61943054199219 239.45452880859375 L 108.40908813476562 238.8955078125" stroke-width="0.6000000238418579" fill="rgb(159, 159, 159)" opacity="1.0"/>
    <path d="M 295.57598876953125 96.48300170898438 C 293.4478759765625 101.19429016113281 291.2864990234375 106.5233154296875 293.061279296875 111.36798095703125 C 294.7806396484375 116.08189392089844 299.63641357421875 118.77247619628906 304.1512145996094 120.967041015625 C 305.9866027832031 121.85586547851562 307.9208679199219 122.75643920898438 309.9572448730469 122.67144775390625 C 313.4014587402344 122.52970886230469 316.0912780761719 119.66616821289062 317.9023742675781 116.73907470703125 C 319.5844421386719 114.02287292480469 320.8677673339844 111.0792236328125 321.71307373046875 107.99821472167969 C 323.0874328613281 102.99603271484375 322.9983825683594 96.95407104492188 319.1805725097656 93.4447021484375 C 317.1222229003906 91.54708862304688 314.25201416015625 90.70111083984375 311.4501953125 90.59408569335938 C 308.6483459472656 90.487060546875 305.8672790527344 91.06202697753906 303.12982177734375 91.66880798339844 C 300.39239501953125 92.27557373046875 297.7156066894531 92.93043518066406 295.5221252441406 94.56756591796875 L 295.57598876953125 96.48300170898438" stroke-width="0.6000000238418579" fill="rgb(218, 166, 20)" opacity="1.0"/>
    <path d="M 228.3948974609375 120.83731079101562 C 221.15673828125 114.62677001953125 210.25445556640625 115.45982360839844 204.04388427734375 122.69796752929688 C 203.5120849609375 123.31777954101562 203.02493286132812 123.97453308105469 202.5860595703125 124.66328430175781 C 200.9189453125 127.28070068359375 199.9688720703125 130.50125122070312 200.66622924804688 133.52357482910156 C 201.25531005859375 136.07772827148438 202.93515014648438 138.2344970703125 204.75875854492188 140.1149139404297 C 209.64703369140625 145.1416015625 215.7921142578125 148.7677459716797 222.55560302734375 150.6166534423828 C 224.34417724609375 151.1023712158203 226.22576904296875 151.4615936279297 228.04833984375 151.10382080078125 C 231.10842895507812 150.50497436523438 233.47720336914062 147.9513702392578 234.78515625 145.11839294433594 C 236.72994995117188 140.91378784179688 236.74325561523438 135.95579528808594 235.28692626953125 131.55697631835938 C 233.83059692382812 127.15815734863281 230.99612426757812 123.29530334472656 227.5496826171875 120.19873046875 L 228.3948974609375 120.83731079101562" stroke-width="0.6000000238418579" fill="rgb(143, 165, 67)" opacity="1.0"/>
    <path d="M 215.95220947265625 90.90542602539062 C 215.96771240234375 102.20880126953125 231.37112426757812 109.65847778320312 240.6724853515625 103.36468505859375 C 249.97381591796875 97.07086181640625 249.27337646484375 80.81134033203125 239.83441162109375 74.58633422851562 C 230.39547729492188 68.36135864257812 215.945068359375 73.19575500488281 211.38088989257812 83.5518798828125 L 215.95220947265625 90.90542602539062" stroke-width="0.6000000238418579" fill="rgb(233, 92, 21)" opacity="1.0"/>
    <path d="M 200.95147705078125 96.84228515625 C 198.861083984375 91.75059509277344 195.83602905273438 85.88523864746094 190.34591674804688 85.2847900390625 C 188.15179443359375 85.13084411621094 185.96392822265625 85.66154479980469 184.084228515625 86.80374145507812 C 179.3572998046875 89.504638671875 176.232666015625 94.32913208007812 175.70126342773438 99.74728393554688 C 175.26223754882812 104.34454345703125 176.79617309570312 108.8385009765625 178.3792724609375 113.14675903320312 C 179.2724609375 115.56544494628906 180.29852294921875 118.10675048828125 182.3681640625 119.62057495117188 C 185.14337158203125 121.61576843261719 188.957763671875 121.19577026367188 192.2591552734375 120.31484985351562 C 197.0924072265625 119.03164672851562 201.68609619140625 116.97459411621094 205.86199951171875 114.2235107421875 C 207.30303955078125 113.27017211914062 208.7471923828125 112.17588806152344 209.50994873046875 110.62623596191406 C 210.1455078125 109.14907836914062 210.33746337890625 107.51890563964844 210.06253051757812 105.93450927734375 C 209.41546630859375 101.09597778320312 206.67840576171875 96.78485107421875 202.57489013671875 94.1407470703125 L 200.95147705078125 96.84228515625" stroke-width="0.6000000238418579" fill="rgb(70, 150, 179)" opacity="1.0"/>
    <path d="M 261.2970275878906 131.1631317138672 C 256.9402770996094 134.30482482910156 252.2430419921875 137.9700927734375 251.29193115234375 143.25308227539062 C 250.27359008789062 148.92880249023438 254.16311645507812 154.52749633789062 259.08331298828125 157.53439331054688 C 260.9798278808594 158.69451904296875 263.13525390625 159.59429931640625 265.3554382324219 159.48306274414062 C 267.18060302734375 159.392333984375 268.8994140625 158.63165283203125 270.5228576660156 157.7935791015625 C 275.6456298828125 155.15701293945312 280.59552001953125 151.2833709716797 282.30401611328125 145.7823486328125 C 284.0220947265625 140.2369842529297 281.7746887207031 133.6834716796875 276.9916076660156 130.38426208496094 C 272.20855712890625 127.08506774902344 265.29095458984375 127.2459716796875 260.69219970703125 130.80386352539062 L 261.2970275878906 131.1631317138672" stroke-width="0.6000000238418579" fill="rgb(140, 28, 33)" opacity="1.0"/>
    <path d="M 300.4733581542969 122.65338134765625 C 295.0835266113281 125.194091796875 289.50311279296875 127.89727783203125 285.6676940917969 132.46310424804688 C 281.8323974609375 137.02886962890625 280.24188232421875 144.07618713378906 283.56915283203125 149.0232391357422 C 287.68994140625 155.12066650390625 297.5517883300781 154.91622924804688 303.06854248046875 150.0252227783203 C 308.5852966308594 145.1342315673828 310.439453125 137.24462890625 310.39141845703125 129.88128662109375 C 310.60491943359375 127.60041809082031 309.9556884765625 125.32247924804688 308.5717468261719 123.4969482421875 C 307.0277404785156 121.855224609375 303.7470703125 121.78280639648438 302.8468322753906 123.86111450195312 L 300.4733581542969 122.65338134765625" stroke-width="0.6000000238418579" fill="rgb(159, 159, 159)" opacity="1.0"/>
    <path d="M 195.928466796875 133.55859375 C 192.5064697265625 128.90086364746094 187.41412353515625 125.31411743164062 181.6995849609375 124.46955871582031 C 175.98501586914062 123.62501525878906 169.72573852539062 125.82424926757812 166.37533569335938 130.5599365234375 C 164.01080322265625 133.9111328125 163.25445556640625 138.23077392578125 163.75714111328125 142.3048553466797 C 164.25979614257812 146.3789520263672 165.930908203125 150.2337188720703 168.0518798828125 153.74917602539062 C 168.97576904296875 155.27845764160156 170.0555419921875 156.81573486328125 171.6505126953125 157.6107177734375 C 173.47866821289062 158.52297973632812 175.64471435546875 158.29437255859375 177.66452026367188 157.947509765625 C 183.36676025390625 156.96826171875 189.13616943359375 155.07777404785156 193.32421875 151.08485412597656 C 197.51229858398438 147.0919189453125 199.70382690429688 140.59982299804688 197.39837646484375 135.30809020996094 L 195.928466796875 133.55859375" stroke-width="0.6000000238418579" fill="rgb(159, 159, 159)" opacity="1.0"/>
    <path d="M 276.37158203125 97.62605285644531 C 271.1673583984375 98.46206665039062 265.4188537597656 99.61679077148438 262.2937316894531 103.84857177734375 C 259.2487487792969 107.959716796875 259.68731689453125 113.60284423828125 260.35638427734375 118.67723083496094 C 260.6312255859375 120.73822021484375 260.95159912109375 122.88995361328125 262.1679382324219 124.57489013671875 C 264.22344970703125 127.42582702636719 268.1710510253906 128.1057891845703 271.6790466308594 128.0023956298828 C 274.9351501464844 127.90768432617188 278.1607360839844 127.34591674804688 281.25714111328125 126.33428955078125 C 286.2854309082031 124.69351196289062 291.37628173828125 121.22346496582031 292.2174987792969 116.00347900390625 C 292.6757507324219 113.18606567382812 291.78314208984375 110.26864624023438 290.3001708984375 107.82453918457031 C 288.81719970703125 105.38041687011719 286.7655944824219 103.33711242675781 284.7114562988281 101.34881591796875 C 282.6573181152344 99.36050415039062 280.5963439941406 97.45079040527344 277.9710998535156 96.504150390625 L 276.37158203125 97.62605285644531" stroke-width="0.6000000238418579" fill="rgb(218, 166, 20)" opacity="1.0"/>
    <path d="M 231.0465087890625 117.77272033691406 C 229.4976806640625 126.60025024414062 235.39825439453125 135.01194763183594 244.22579956054688 136.56076049804688 C 244.981689453125 136.69338989257812 245.74606323242188 136.77220153808594 246.51312255859375 136.79666137695312 C 249.42782592773438 136.88905334472656 252.48614501953125 136.11273193359375 254.59439086914062 134.10000610351562 C 256.37615966796875 132.39927673339844 257.3138427734375 130.007568359375 257.9591979980469 127.63214111328125 C 259.67791748046875 121.2713623046875 259.6621398925781 114.56637573242188 257.9135437011719 108.21371459960938 C 257.4485168457031 106.53530883789062 256.836669921875 104.8424072265625 255.67364501953125 103.54096984863281 C 253.72247314453125 101.35498046875 250.52291870117188 100.66493225097656 247.606201171875 100.9661865234375 C 243.275634765625 101.41041564941406 239.26226806640625 103.77685546875 236.40548706054688 107.06295776367188 C 233.54867553710938 110.34902954101562 231.78582763671875 114.49192810058594 230.9356689453125 118.76200866699219 L 231.0465087890625 117.77272033691406" stroke-width="0.6000000238418579" fill="rgb(143, 165, 67)" opacity="1.0"/>
    <path d="M 253.77145385742188 85.6763916015625 C 253.7413330078125 95.63095092773438 267.2777404785156 102.25125122070312 275.4934997558594 96.74455261230469 C 283.709228515625 91.23780822753906 283.1553039550781 76.9158935546875 274.86688232421875 71.397216796875 C 266.57843017578125 65.8785400390625 253.833740234375 70.080078125 249.77410888671875 79.18269348144531 L 253.77145385742188 85.6763916015625" stroke-width="0.6000000238418579" fill="rgb(233, 92, 21)" opacity="1.0"/>
    <path d="M 337.74957275390625 73.55084228515625 C 334.93896484375 69.02684020996094 331.1124572753906 63.914306640625 325.7771301269531 64.22093200683594 C 323.6586608886719 64.42558288574219 321.6558532714844 65.28256225585938 320.0450744628906 66.6737060546875 C 315.96697998046875 70.00848388671875 313.7582092285156 75.113037109375 314.1191711425781 80.36865234375 C 314.4367980957031 84.82606506347656 316.6206359863281 88.86880493164062 318.8216247558594 92.72647094726562 C 320.0615234375 94.89144897460938 321.44781494140625 97.15219116210938 323.6654052734375 98.26521301269531 C 326.6333923339844 99.72454833984375 330.20611572265625 98.71258544921875 333.2154541015625 97.34298706054688 C 337.6221618652344 95.34405517578125 341.6762390136719 92.64505004882812 345.220458984375 89.35066223144531 C 346.44287109375 88.21003723144531 347.6456604003906 86.93438720703125 348.1252746582031 85.3333740234375 C 348.4950866699219 83.82192993164062 348.4171142578125 82.23550415039062 347.90087890625 80.76759338378906 C 346.5081481933594 76.25393676757812 343.20550537109375 72.57844543457031 338.8659362792969 70.71270751953125 L 337.74957275390625 73.55084228515625" stroke-width="0.6000000238418579" fill="rgb(70, 150, 179)" opacity="1.0"/>
    <path d="M 333.99273681640625 138.45249938964844 C 333.5174560546875 133.4691162109375 332.7813720703125 127.96539306640625 328.98028564453125 124.7127685546875 C 324.89495849609375 121.22117614746094 318.5605773925781 121.713134765625 313.8254089355469 124.25444030761719 C 311.9992980957031 125.23348999023438 310.2607116699219 126.5433349609375 309.3047180175781 128.38137817382812 C 308.5182800292969 129.8920440673828 308.32073974609375 131.6326141357422 308.2303161621094 133.3329315185547 C 307.93865966796875 138.6945343017578 308.72332763671875 144.4996337890625 312.3431396484375 148.4640350341797 C 315.994140625 152.45703125 322.3232421875 153.73538208007812 327.22894287109375 151.44200134277344 C 332.1346435546875 149.14862060546875 335.2625732421875 143.5092010498047 334.5664978027344 138.13522338867188 L 333.99273681640625 138.45249938964844" stroke-width="0.6000000238418579" fill="rgb(140, 28, 33)" opacity="1.0"/>
    <path d="M 347.0426940917969 102.42770385742188 C 341.5876159667969 101.60699462890625 335.9022521972656 100.81314086914062 330.60028076171875 102.35092163085938 C 325.29840087890625 103.88871765136719 320.4457702636719 108.49168395996094 320.4582214355469 114.01112365722656 C 320.4888000488281 120.82424926757812 328.18145751953125 125.74522399902344 334.9444580078125 124.82305908203125 C 341.7074279785156 123.90090942382812 347.1966247558594 118.78567504882812 350.9513854980469 113.0958251953125 C 352.2901306152344 111.45094299316406 352.9636535644531 109.36404418945312 352.8389587402344 107.24691772460938 C 352.49639892578125 105.18875122070312 350.0096740722656 103.44367980957031 348.2468566894531 104.57908630371094 L 347.0426940917969 102.42770385742188" stroke-width="0.6000000238418579" fill="rgb(159, 159, 159)" opacity="1.0"/>
    <path d="M 346.39703369140625 119.71005249023438 C 341.7181396484375 121.90188598632812 337.6883239746094 125.74453735351562 335.95513916015625 130.609130859375 C 334.2219543457031 135.4737091064453 335.0633239746094 141.34466552734375 338.63427734375 145.10528564453125 C 341.162353515625 147.76089477539062 344.8190002441406 149.1744384765625 348.47900390625 149.44126892089844 C 352.1390380859375 149.70809936523438 355.8096618652344 148.91220092773438 359.2608337402344 147.66285705566406 C 360.76239013671875 147.11830139160156 362.29803466796875 146.4384002685547 363.272216796875 145.1778106689453 C 364.3897399902344 143.7331085205078 364.56549072265625 141.7938995361328 364.6121520996094 139.96243286132812 C 364.74383544921875 134.79185485839844 364.0881042480469 129.4041290283203 361.31402587890625 125.0379638671875 C 358.5399169921875 120.67176818847656 353.2274475097656 117.62232971191406 348.1865234375 118.72491455078125 L 346.39703369140625 119.71005249023438" stroke-width="0.6000000238418579" fill="rgb(159, 159, 159)" opacity="1.0"/>
    <path d="M 365.4386291503906 95.58564758300781 C 360.98388671875 96.677978515625 356.0795593261719 98.08514404296875 353.6676940917969 101.97598266601562 C 351.31683349609375 105.75653076171875 352.0954284667969 110.62001037597656 353.0338134765625 114.97390747070312 C 353.4176330566406 116.7420654296875 353.8473205566406 118.585693359375 355.02117919921875 119.96124267578125 C 357.0051574707031 122.28887939453125 360.4769592285156 122.60006713867188 363.5122375488281 122.26283264160156 C 366.3296203613281 121.950927734375 369.0876159667969 121.23605346679688 371.7018127441406 120.14016723632812 C 375.9471740722656 118.36225891113281 380.1177062988281 114.99336242675781 380.47894287109375 110.4066162109375 C 380.6775817871094 107.9306640625 379.6975402832031 105.46331787109375 378.2388610839844 103.4481201171875 C 376.7801513671875 101.43293762207031 374.8565979003906 99.80551147460938 372.9346923828125 98.2259521484375 C 371.0127868652344 96.64640808105469 369.0904846191406 95.13551330566406 366.7467346191406 94.49972534179688 L 365.4386291503906 95.58564758300781" stroke-width="0.6000000238418579" fill="rgb(218, 166, 20)" opacity="1.0"/>
    <path d="M 428.2724609375 138.22764587402344 C 419.96728515625 138.9043731689453 413.783203125 146.18563842773438 414.4599609375 154.49081420898438 C 414.51788330078125 155.2019805908203 414.626220703125 155.90814208984375 414.78411865234375 156.60400390625 C 415.384521484375 159.24795532226562 416.8001708984375 161.81744384765625 419.1053466796875 163.24215698242188 C 421.0533447265625 164.44635009765625 423.425048828125 164.72906494140625 425.7135009765625 164.75262451171875 C 431.8392333984375 164.8072509765625 437.86785888671875 163.22067260742188 443.17315673828125 160.15771484375 C 444.5740966796875 159.34573364257812 445.9537353515625 158.39825439453125 446.851806640625 157.04672241210938 C 448.3609619140625 154.7786407470703 448.2314453125 151.73825073242188 447.27642822265625 149.18479919433594 C 445.8612060546875 145.39285278320312 442.791015625 142.33705139160156 439.16461181640625 140.5374755859375 C 435.5382080078125 138.7378692626953 431.39752197265625 138.1234130859375 427.3564453125 138.3599395751953 L 428.2724609375 138.22764587402344" stroke-width="0.6000000238418579" fill="rgb(143, 165, 67)" opacity="1.0"/>
    <path d="M 151.08143615722656 403.7965087890625 C 157.152099609375 413.3150634765625 174.126953125 411.33905029296875 178.59353637695312 401.04974365234375 C 183.06005859375 390.76043701171875 173.75607299804688 377.4317626953125 162.464599609375 377.2435607910156 C 151.17311096191406 377.05535888671875 141.58465576171875 388.8740539550781 143.28775024414062 400.04852294921875 L 151.08143615722656 403.7965087890625" stroke-width="0.6000000238418579" fill="rgb(233, 92, 21)" opacity="1.0"/>
    <path d="M 430.4365234375 195.59091186523438 C 425.91680908203125 193.6129150390625 420.312744140625 191.7188720703125 416.4012451171875 194.753173828125 C 414.8916015625 196.02127075195312 413.8126220703125 197.7265625 413.31329345703125 199.63385009765625 C 411.95074462890625 204.3197021484375 412.94390869140625 209.375244140625 415.9779052734375 213.1973876953125 C 418.559814453125 216.43301391601562 422.34857177734375 218.37261962890625 426.05328369140625 220.1619873046875 C 428.135986328125 221.16375732421875 430.38067626953125 222.1617431640625 432.65753173828125 221.847412109375 C 435.68896484375 221.403564453125 437.8848876953125 218.7559814453125 439.4630126953125 216.13113403320312 C 441.7774658203125 212.29248046875 443.45538330078125 208.10455322265625 444.431640625 203.729736328125 C 444.7659912109375 202.217529296875 445.01458740234375 200.612548828125 444.5404052734375 199.1387939453125 C 444.02935791015625 197.791015625 443.13720703125 196.62103271484375 441.9727783203125 195.77151489257812 C 438.5406494140625 193.05722045898438 434.0906982421875 191.985107421875 429.799072265625 192.838623046875 L 430.4365234375 195.59091186523438" stroke-width="0.6000000238418579" fill="rgb(70, 150, 179)" opacity="1.0"/>
    <path d="M 413.9075927734375 160.85150146484375 C 412.8475341796875 155.22036743164062 411.4360656738281 149.0232391357422 406.7649230957031 145.71092224121094 C 401.7449035644531 142.15576171875 394.5755310058594 143.3753662109375 389.4422302246094 146.76467895507812 C 387.4624938964844 148.07061767578125 385.61688232421875 149.74453735351562 384.7183532714844 151.9391326904297 C 383.97900390625 153.74295043945312 383.9348449707031 155.74755859375 384.00860595703125 157.69515991210938 C 384.2337951660156 163.837158203125 385.73199462890625 170.37277221679688 390.27056884765625 174.51531982421875 C 394.8476257324219 178.68719482421875 402.1950988769531 179.48611450195312 407.548583984375 176.3616943359375 C 412.90203857421875 173.23724365234375 415.88104248046875 166.4835205078125 414.5286865234375 160.43014526367188 L 413.9075927734375 160.85150146484375" stroke-width="0.6000000238418579" fill="rgb(140, 28, 33)" opacity="1.0"/>
    <path d="M 141.9211883544922 133.57730102539062 C 135.9915313720703 135.31256103515625 129.8405303955078 137.18356323242188 125.17727661132812 141.24325561523438 C 120.51409912109375 145.3029022216797 117.75103759765625 152.26560974121094 120.36318969726562 157.86825561523438 C 123.60307312011719 164.77694702148438 133.73753356933594 166.154296875 140.1753387451172 162.03204345703125 C 146.6131591796875 157.90982055664062 149.78179931640625 150.1267547607422 150.9173583984375 142.5767059326172 C 151.50303649902344 140.27474975585938 151.2045440673828 137.83697509765625 150.08070373535156 135.74440002441406 C 148.7633056640625 133.81434631347656 145.41455078125 133.21231079101562 144.15805053710938 135.19627380371094 L 141.9211883544922 133.57730102539062" stroke-width="0.6000000238418579" fill="rgb(159, 159, 159)" opacity="1.0"/>
    <path d="M 435.2149658203125 167.45892333984375 C 430.72314453125 164.91561889648438 425.26220703125 163.85589599609375 420.2972412109375 165.25799560546875 C 415.332275390625 166.66009521484375 411.0368347167969 170.74139404296875 410.0392150878906 175.82537841796875 C 409.33843994140625 179.42068481445312 410.30218505859375 183.21682739257812 412.201904296875 186.35238647460938 C 414.1016845703125 189.48797607421875 416.8731689453125 192.0174560546875 419.8870849609375 194.10595703125 C 421.19921875 195.0140380859375 422.64129638671875 195.87158203125 424.2315673828125 195.9359130859375 C 426.0548095703125 196.01055908203125 427.73602294921875 195.031982421875 429.25482177734375 194.0106201171875 C 433.5426025390625 191.12701416015625 437.5518798828125 187.4764404296875 439.503662109375 182.6912841796875 C 441.4554443359375 177.9061279296875 440.866455078125 171.81497192382812 437.052490234375 168.34671020507812 L 435.2149658203125 167.45892333984375" stroke-width="0.6000000238418579" fill="rgb(159, 159, 159)" opacity="1.0"/>
    <path d="M 413.85479736328125 193.76638793945312 C 412.28466796875 188.67752075195312 410.31903076171875 183.0889892578125 405.6446533203125 180.5589599609375 C 401.1022644042969 178.092041015625 395.5182189941406 179.32638549804688 390.53570556640625 180.71115112304688 C 388.512451171875 181.27667236328125 386.40484619140625 181.90054321289062 384.8905944824219 183.35498046875 C 382.3280334472656 185.81341552734375 382.2042541503906 189.8587646484375 382.80224609375 193.3538818359375 C 383.35601806640625 196.59820556640625 384.372802734375 199.74615478515625 385.8214111328125 202.70144653320312 C 388.1718444824219 207.5008544921875 392.36126708984375 212.10498046875 397.7023620605469 212.21072387695312 C 400.5857238769531 212.27200317382812 403.37872314453125 210.96768188476562 405.6149597167969 209.13943481445312 C 407.8511962890625 207.31118774414062 409.60626220703125 204.97052001953125 411.3059387207031 202.63510131835938 C 413.005615234375 200.2996826171875 414.625732421875 197.96847534179688 415.2027587890625 195.20849609375 L 413.85479736328125 193.76638793945312" stroke-width="0.6000000238418579" fill="rgb(218, 166, 20)" opacity="1.0"/>
    <path d="M 436.7265625 186.3011474609375 C 437.3702392578125 195.32281494140625 445.20556640625 202.11447143554688 454.22723388671875 201.47076416015625 C 454.999755859375 201.4156494140625 455.76739501953125 201.3057861328125 456.5244140625 201.14202880859375 C 459.400634765625 200.519287109375 462.2049560546875 199.01083374023438 463.77655029296875 196.52438354492188 C 465.1048583984375 194.42327880859375 465.4376220703125 191.85223388671875 465.48822021484375 189.36862182617188 C 465.614501953125 182.72048950195312 463.9583740234375 176.1597900390625 460.69189453125 170.3680419921875 C 459.82586669921875 168.83859252929688 458.8126220703125 167.33087158203125 457.35546875 166.34124755859375 C 454.9102783203125 164.67852783203125 451.60888671875 164.78582763671875 448.82696533203125 165.79449462890625 C 444.69580078125 167.28909301757812 441.34552001953125 170.58804321289062 439.3526611328125 174.50436401367188 C 437.3597412109375 178.420654296875 436.6475830078125 182.90817260742188 436.860107421875 187.29684448242188 L 436.7265625 186.3011474609375" stroke-width="0.6000000238418579" fill="rgb(143, 165, 67)" opacity="1.0"/>
    <path d="M 144.72097778320312 98.32608032226562 C 133.5431671142578 105.29588317871094 135.64700317382812 125.12461853027344 147.59889221191406 130.4582061767578 C 159.55081176757812 135.79173278808594 175.21246337890625 125.09471130371094 175.566162109375 111.92271423339844 C 175.919921875 98.75070190429688 162.24444580078125 87.42304992675781 149.18649291992188 89.27738952636719 L 144.72097778320312 98.32608032226562" stroke-width="0.6000000238418579" fill="rgb(233, 92, 21)" opacity="1.0"/>
    <path d="M 451.4102783203125 145.25448608398438 C 448.40771484375 150.1204833984375 445.32568359375 156.24444580078125 448.173583984375 161.22503662109375 C 449.384033203125 163.16302490234375 451.16607666015625 164.6776123046875 453.2738037109375 165.55987548828125 C 458.43017578125 167.88311767578125 464.39276123046875 167.56298828125 469.270751953125 164.70098876953125 C 473.40234375 162.26263427734375 476.242431640625 158.229248046875 478.8963623046875 154.26797485351562 C 480.3836669921875 152.04034423828125 481.892822265625 149.62623596191406 481.9012451171875 146.96246337890625 C 481.88330078125 143.41180419921875 479.2010498046875 140.46261596679688 476.4447021484375 138.2260284423828 C 472.4149169921875 134.94773864746094 467.88104248046875 132.34332275390625 463.0189208984375 130.5137939453125 C 461.33782958984375 129.8848876953125 459.53631591796875 129.33944702148438 457.7681884765625 129.6446990966797 C 456.138671875 130.0126190185547 454.65142822265625 130.84674072265625 453.48779296875 132.0453338623047 C 449.81658935546875 135.5437774658203 447.8648681640625 140.47659301757812 448.1485595703125 145.5398406982422 L 451.4102783203125 145.25448608398438" stroke-width="0.6000000238418579" fill="rgb(70, 150, 179)" opacity="1.0"/>
    <path d="M 382.04791259765625 80.39663696289062 C 382.70233154296875 73.77035522460938 383.14947509765625 66.39813232421875 379.0200500488281 61.18019104003906 C 374.5807189941406 55.577606201171875 366.1867370605469 54.599334716796875 359.35589599609375 56.70513916015625 C 356.72186279296875 57.51593017578125 354.117431640625 58.78089904785156 352.3994445800781 60.93550109863281 C 350.9864501953125 62.7061767578125 350.2833557128906 64.92756652832031 349.7303466796875 67.12380981445312 C 347.97808837890625 74.047607421875 347.5173034667969 81.82562255859375 351.2280578613281 87.92628479003906 C 354.97216796875 94.07223510742188 362.9064025878906 97.35989379882812 369.8963623046875 95.621337890625 C 376.8863525390625 93.88276672363281 382.4118347167969 87.3218994140625 382.87799072265625 80.1292724609375 L 382.04791259765625 80.39663696289062" stroke-width="0.6000000238418579" fill="rgb(140, 28, 33)" opacity="1.0"/>
    <path d="M 135.0941925048828 412.3890380859375 C 132.05006408691406 418.46075439453125 128.9494171142578 424.812255859375 128.72438049316406 431.60546875 C 128.49937438964844 438.398681640625 132.0337371826172 445.836669921875 138.49896240234375 447.93017578125 C 146.48536682128906 450.49658203125 155.18345642089844 443.371826171875 156.68710327148438 435.1036376953125 C 158.19073486328125 426.8353271484375 154.29991149902344 418.45654296875 149.0740509033203 411.8885192871094 C 147.66004943847656 409.6932678222656 145.47459411621094 408.1078796386719 142.9488525390625 407.4452209472656 C 140.40896606445312 407.06005859375 137.41659545898438 409.30426025390625 138.0723114013672 411.80126953125 L 135.0941925048828 412.3890380859375" stroke-width="0.6000000238418579" fill="rgb(159, 159, 159)" opacity="1.0"/>
    <path d="M 421.982421875 217.23785400390625 C 416.9818115234375 213.4190673828125 410.56396484375 211.23040771484375 404.3352966308594 212.0970458984375 C 398.10662841796875 212.96368408203125 392.24041748046875 217.17694091796875 390.18951416015625 223.14990234375 C 388.744873046875 227.37469482421875 389.2767333984375 232.1190185546875 391.04876708984375 236.22149658203125 C 392.8208312988281 240.32403564453125 395.7464599609375 243.83978271484375 399.0382080078125 246.86334228515625 C 400.4714660644531 248.17828369140625 402.070068359375 249.453857421875 403.97967529296875 249.7962646484375 C 406.1687927246094 250.1898193359375 408.3617858886719 249.28805541992188 410.36578369140625 248.30752563476562 C 416.0234375 245.53924560546875 421.4722900390625 241.7984619140625 424.62567138671875 236.34515380859375 C 427.779052734375 230.89181518554688 428.0816650390625 223.4385986328125 424.05352783203125 218.61572265625 L 421.982421875 217.23785400390625" stroke-width="0.6000000238418579" fill="rgb(159, 159, 159)" opacity="1.0"/>
    <path d="M 384.4313659667969 111.42703247070312 C 378.2939147949219 112.39208984375 371.5136413574219 113.73068237304688 367.81353759765625 118.70645141601562 C 364.2083435058594 123.54031372070312 364.7032470703125 130.19358825683594 365.4720458984375 136.17733764648438 C 365.7879333496094 138.6077117919922 366.1571350097656 141.14520263671875 367.584228515625 143.13597106933594 C 369.99591064453125 146.50439453125 374.646240234375 147.32130432128906 378.78155517578125 147.21315002441406 C 382.6198425292969 147.11424255371094 386.4240417480469 146.46469116210938 390.0777282714844 145.28439331054688 C 396.0109558105469 143.37008666992188 402.02508544921875 139.29986572265625 403.0370178222656 133.150390625 C 403.58819580078125 129.831298828125 402.5474548339844 126.38906860351562 400.8090515136719 123.50239562988281 C 399.07061767578125 120.61572265625 396.660400390625 118.19927978515625 394.2469787597656 115.84762573242188 C 391.83355712890625 113.49600219726562 389.4117431640625 111.23696899414062 386.3210754394531 110.11090087890625 L 384.4313659667969 111.42703247070312" stroke-width="0.6000000238418579" fill="rgb(218, 166, 20)" opacity="1.0"/>
    <path d="M 404.4816589355469 83.40983581542969 C 396.234619140625 77.33445739746094 384.6239929199219 79.09494018554688 378.5486145019531 87.34197998046875 C 378.02838134765625 88.04815673828125 377.55889892578125 88.79037475585938 377.1437072753906 89.56301879882812 C 375.5665588378906 92.49917602539062 374.80548095703125 96.02421569824219 375.7930908203125 99.20574951171875 C 376.62744140625 101.89447021484375 378.598388671875 104.07070922851562 380.7013244628906 105.93951416015625 C 386.3372497558594 110.93406677246094 393.20770263671875 114.32846069335938 400.5989990234375 115.77012634277344 C 402.5533752441406 116.14790344238281 404.5972595214844 116.3828125 406.5208435058594 115.85446166992188 C 409.7506408691406 114.9693603515625 412.0843505859375 112.04568481445312 413.2596435546875 108.90725708007812 C 415.0078125 104.2490234375 414.627197265625 98.93768310546875 412.717041015625 94.34228515625 C 410.80694580078125 89.74691772460938 407.46343994140625 85.8353271484375 403.5255126953125 82.79319763183594 L 404.4816589355469 83.40983581542969" stroke-width="0.6000000238418579" fill="rgb(143, 165, 67)" opacity="1.0"/>
    <path d="M 123.46684265136719 427.1968994140625 C 116.1644287109375 417.32440185546875 97.8934326171875 420.743896484375 93.81977844238281 432.244384765625 C 89.74615478515625 443.74493408203125 100.84332275390625 457.5089111328125 113.10987854003906 456.86474609375 C 125.37643432617188 456.220703125 134.8929443359375 442.67578125 132.2053680419922 430.6783447265625 L 123.46684265136719 427.1968994140625" stroke-width="0.6000000238418579" fill="rgb(233, 92, 21)" opacity="1.0"/>
    <path d="M 448.1580810546875 210.05075073242188 C 442.68017578125 212.23175048828125 436.36285400390625 215.40518188476562 435.656982421875 221.27914428710938 C 435.467041015625 223.627685546875 436.0106201171875 225.977294921875 437.212646484375 228.0037841796875 C 440.0517578125 233.09796142578125 445.1839599609375 236.5 450.98162841796875 237.131103515625 C 455.90106201171875 237.65380859375 460.73236083984375 236.06201171875 465.36529541015625 234.4154052734375 C 467.96630859375 233.48626708984375 470.70013427734375 232.41619873046875 472.3453369140625 230.216552734375 C 474.51416015625 227.2666015625 474.10784912109375 223.17596435546875 473.201904296875 219.62954711914062 C 471.882568359375 214.43768310546875 469.7315673828125 209.49362182617188 466.832275390625 204.98907470703125 C 465.82757568359375 203.43463134765625 464.671875 201.875244140625 463.0206298828125 201.04046630859375 C 461.4456787109375 200.34286499023438 459.70166015625 200.11859130859375 458.0013427734375 200.39505004882812 C 452.81109619140625 201.032958984375 448.16192626953125 203.91558837890625 445.2828369140625 208.28094482421875 L 448.1580810546875 210.05075073242188" stroke-width="0.6000000238418579" fill="rgb(70, 150, 179)" opacity="1.0"/>
    <path d="M 428.8494873046875 133.40150451660156 C 430.91455078125 127.62188720703125 432.9609375 121.12892150878906 430.433349609375 115.54037475585938 C 427.714599609375 109.53863525390625 420.426513671875 106.78912353515625 413.8475341796875 107.14674377441406 C 411.3108825683594 107.28355407714844 408.69927978515625 107.8331298828125 406.68170166015625 109.37626647949219 C 405.0226745605469 110.6441650390625 403.89776611328125 112.47369384765625 402.9127197265625 114.31425476074219 C 399.7994079589844 120.11474609375 397.6502380371094 126.96755981445312 399.606201171875 133.2519989013672 C 401.5819091796875 139.58441162109375 407.9430847167969 144.29647827148438 414.5823974609375 144.3028106689453 C 421.2216796875 144.30914306640625 427.6282958984375 139.6759033203125 429.6514892578125 133.34779357910156 L 428.8494873046875 133.40150451660156" stroke-width="0.6000000238418579" fill="rgb(140, 28, 33)" opacity="1.0"/>
    <path d="M 394.2422790527344 61.34480285644531 C 395.4287414550781 67.92570495605469 396.7358703613281 74.76043701171875 400.5693664550781 80.24540710449219 C 404.4028625488281 85.73027038574219 411.57891845703125 89.50364685058594 417.90863037109375 87.33589172363281 C 425.7159423828125 84.642578125 428.3623046875 73.89387512207031 424.665283203125 66.49191284179688 C 420.96826171875 59.08995056152344 412.9559326171875 54.785858154296875 404.96087646484375 52.69657897949219 C 402.55072021484375 51.80186462402344 399.89288330078125 51.84312438964844 397.51171875 52.81227111816406 C 395.28326416015625 54.00840759277344 394.2507019042969 57.543243408203125 396.2415771484375 59.12339782714844 L 394.2422790527344 61.34480285644531" stroke-width="0.6000000238418579" fill="rgb(159, 159, 159)" opacity="1.0"/>
    <path d="M 436.714111328125 238.48089599609375 C 431.63433837890625 242.63140869140625 427.865966796875 248.61279296875 427.24212646484375 255.139404296875 C 426.6182861328125 261.666015625 429.476318359375 268.6324157714844 435.03961181640625 272.1536865234375 C 438.97607421875 274.6383056640625 443.91644287109375 275.2435607910156 448.5050048828125 274.43603515625 C 453.09356689453125 273.6285400390625 457.3653564453125 271.50946044921875 461.22625732421875 268.9002685546875 C 462.90576171875 267.7638244628906 464.585205078125 266.4501953125 465.39324951171875 264.5959777832031 C 466.32061767578125 262.4705810546875 465.93505859375 260.0287170410156 465.424072265625 257.75958251953125 C 463.98138427734375 251.35333251953125 461.501953125 244.92416381835938 456.731689453125 240.41009521484375 C 451.96142578125 235.89599609375 444.474853515625 233.790771484375 438.611328125 236.71270751953125 L 436.714111328125 238.48089599609375" stroke-width="0.6000000238418579" fill="rgb(159, 159, 159)" opacity="1.0"/>
    <path d="M 415.587158203125 261.6742248535156 C 412.63134765625 256.0938720703125 409.10406494140625 250.01910400390625 403.0986328125 248.10693359375 C 397.2609558105469 246.23910522460938 391.0294494628906 248.91348266601562 385.531982421875 251.6298828125 C 383.3003234863281 252.73666381835938 380.98333740234375 253.93011474609375 379.54144287109375 255.95968627929688 C 377.1007080078125 259.39093017578125 377.852294921875 264.1307678222656 379.32281494140625 268.06982421875 C 380.68634033203125 271.7264709472656 382.5678405761719 275.16839599609375 384.90972900390625 278.29022216796875 C 388.71051025390625 283.3605651855469 394.6102600097656 287.79620361328125 400.85546875 286.7366638183594 C 404.2278747558594 286.1695861816406 407.1925964355469 284.0317077636719 409.39276123046875 281.4068298339844 C 411.5928955078125 278.78192138671875 413.11907958984375 275.66668701171875 414.5819091796875 272.56976318359375 C 416.044677734375 269.4728698730469 417.415771484375 266.39849853515625 417.4766845703125 263.0556640625 L 415.587158203125 261.6742248535156" stroke-width="0.6000000238418579" fill="rgb(218, 166, 20)" opacity="1.0"/>
    <path d="M 414.4886474609375 86.2890625 C 411.130615234375 95.39289855957031 415.78851318359375 105.4952392578125 424.892333984375 108.853271484375 C 425.671875 109.14082336425781 426.47088623046875 109.37271118164062 427.28326416015625 109.54718017578125 C 430.3702392578125 110.20960998535156 433.77838134765625 109.97442626953125 436.41363525390625 108.23832702636719 C 438.6407470703125 106.77140808105469 440.1024169921875 104.40507507324219 441.24957275390625 101.99954223632812 C 444.311279296875 95.55630493164062 445.5919189453125 88.4107666015625 444.95849609375 81.30523681640625 C 444.787841796875 79.42732238769531 444.46368408203125 77.50555419921875 443.47662353515625 75.8941650390625 C 441.82110595703125 73.18797302246094 438.54632568359375 71.83377075195312 435.3809814453125 71.59028625488281 C 430.681884765625 71.22552490234375 425.94873046875 72.96977233886719 422.2696533203125 75.91748046875 C 418.590576171875 78.86517333984375 415.9110107421875 82.93727111816406 414.17919921875 87.32147216796875 L 414.4886474609375 86.2890625" stroke-width="0.6000000238418579" fill="rgb(143, 165, 67)" opacity="1.0"/>
    <path d="M 427.35009765625 122.74221801757812 C 425.70489501953125 134.59922790527344 440.7646484375 144.67636108398438 451.44482421875 139.4427490234375 C 462.12493896484375 134.20907592773438 463.78021240234375 117.05349731445312 454.7958984375 109.13748168945312 C 445.8115234375 101.22146606445312 429.9456787109375 104.16766357421875 423.6365966796875 114.35807800292969 L 427.35009765625 122.74221801757812" stroke-width="0.6000000238418579" fill="rgb(233, 92, 21)" opacity="1.0"/>
    <path d="M 449.777099609375 92.82394409179688 C 449.17022705078125 98.620849609375 449.0465087890625 105.60833740234375 453.8641357421875 108.92416381835938 C 455.832763671875 110.16909790039062 458.13916015625 110.77252197265625 460.46514892578125 110.651123046875 C 466.22845458984375 110.50559997558594 471.563720703125 107.57568359375 474.779052734375 102.79045104980469 C 477.49609375 98.72427368164062 478.32177734375 93.76402282714844 479.00830078125 88.95223999023438 C 479.3896484375 86.2486572265625 479.7086181640625 83.36405944824219 478.53875732421875 80.91360473632812 C 476.95263671875 77.66015625 473.1851806640625 76.13700866699219 469.66473388671875 75.3011474609375 C 464.51397705078125 74.0714111328125 459.19818115234375 73.68350219726562 453.9234619140625 74.15240478515625 C 452.101318359375 74.31793212890625 450.2054443359375 74.61334228515625 448.71630859375 75.67535400390625 C 447.3822021484375 76.733642578125 446.3848876953125 78.15727233886719 445.84588623046875 79.77261352539062 C 444.0203857421875 84.60896301269531 444.4083251953125 90.00267028808594 446.9072265625 94.52796936035156 L 449.777099609375 92.82394409179688" stroke-width="0.6000000238418579" fill="rgb(70, 150, 179)" opacity="1.0"/>
    <path d="M 311.59625244140625 367.9410400390625 C 306.3739318847656 365.5245056152344 300.4839172363281 363.06524658203125 295.0520324707031 364.9532775878906 C 289.21820068359375 366.9849548339844 286.0351867675781 373.55804443359375 285.8133850097656 379.7314147949219 C 285.7268371582031 382.1116027832031 286.0194091796875 384.59661865234375 287.2898864746094 386.61090087890625 C 288.33367919921875 388.26715087890625 289.9469909667969 389.4720764160156 291.5824279785156 390.54736328125 C 296.7356872558594 393.9444274902344 302.9530334472656 396.5301208496094 308.9864196777344 395.23455810546875 C 315.0662536621094 393.9246520996094 320.0035400390625 388.38287353515625 320.5702819824219 382.1839294433594 C 321.13702392578125 375.9849548339844 317.35186767578125 369.6113586425781 311.6138610839844 367.1875915527344 L 311.59625244140625 367.9410400390625" stroke-width="0.6000000238418579" fill="rgb(140, 28, 33)" opacity="1.0"/>
    <path d="M 298.49224853515625 391.21673583984375 C 292.1695251464844 388.07135009765625 285.5556945800781 384.8681335449219 278.4918518066406 384.6561584472656 C 271.42816162109375 384.4442138671875 263.70611572265625 388.14306640625 261.5504150390625 394.87188720703125 C 258.9079284667969 403.183837890625 266.3438415527344 412.204345703125 274.94537353515625 413.740966796875 C 283.54693603515625 415.27752685546875 292.2459411621094 411.2049865722656 299.0579528808594 405.7502746582031 C 301.3358459472656 404.27301025390625 302.9771423339844 401.99560546875 303.6579284667969 399.3674011230469 C 304.0501403808594 396.725341796875 301.70709228515625 393.62139892578125 299.113037109375 394.3112487792969 L 298.49224853515625 391.21673583984375" stroke-width="0.6000000238418579" fill="rgb(159, 159, 159)" opacity="1.0"/>
    <path d="M 322.8006896972656 413.5081787109375 C 317.25408935546875 417.2373046875 312.8643493652344 422.94805908203125 311.61297607421875 429.510009765625 C 310.361572265625 436.0718994140625 312.6007080078125 443.409912109375 317.9107666015625 447.5093994140625 C 321.6687316894531 450.40301513671875 326.6231689453125 451.4852294921875 331.3546142578125 451.10089111328125 C 336.08612060546875 450.716552734375 340.6205139160156 448.9716796875 344.7845764160156 446.690673828125 C 346.5960693359375 445.69696044921875 348.42431640625 444.52349853515625 349.4197692871094 442.718994140625 C 350.5619812011719 440.6507568359375 350.40228271484375 438.1370849609375 350.09893798828125 435.78662109375 C 349.24249267578125 429.1510009765625 347.33648681640625 422.393798828125 342.9250183105469 417.36236572265625 C 338.5135498046875 412.33087158203125 331.11822509765625 409.4856872558594 324.8929443359375 411.89422607421875 L 322.8006896972656 413.5081787109375" stroke-width="0.6000000238418579" fill="rgb(159, 159, 159)" opacity="1.0"/>
    <path d="M 256.10064697265625 416.3876953125 C 249.2786865234375 415.6876220703125 241.6654052734375 415.205078125 236.3140869140625 419.4722900390625 C 231.10406494140625 423.6148681640625 229.75689697265625 430.85479736328125 228.89071655273438 437.4573974609375 C 228.54278564453125 440.14013671875 228.2215576171875 442.9522705078125 229.18344116210938 445.47906494140625 C 230.8077392578125 449.753662109375 235.54037475585938 451.936279296875 239.98410034179688 452.9864501953125 C 244.10824584960938 453.96282958984375 248.3511962890625 454.3419189453125 252.5831298828125 454.11212158203125 C 259.4547119140625 453.7415771484375 267.0203552246094 451.093017578125 269.8336181640625 444.8154296875 C 271.3573913574219 441.4285888671875 271.21697998046875 437.461669921875 270.1754150390625 433.8909912109375 C 269.1337890625 430.3203125 267.2427062988281 427.0621337890625 265.3299255371094 423.87213134765625 C 263.41717529296875 420.68212890625 261.4693298339844 417.58868408203125 258.48834228515625 415.5157470703125 L 256.10064697265625 416.3876953125" stroke-width="0.6000000238418579" fill="rgb(218, 166, 20)" opacity="1.0"/>
    <path d="M 219.65289306640625 414.6405029296875 C 209.90423583984375 408.1289367675781 196.72271728515625 410.7531433105469 190.211181640625 420.5018310546875 C 189.653564453125 421.33660888671875 189.15591430664062 422.2098388671875 188.721923828125 423.1151123046875 C 187.07342529296875 426.5550537109375 186.388916015625 430.625244140625 187.68560791015625 434.21063232421875 C 188.7811279296875 437.2406005859375 191.14907836914062 439.6248779296875 193.65176391601562 441.6507568359375 C 200.3582763671875 447.0640869140625 208.39193725585938 450.5830078125 216.918212890625 451.84197998046875 C 219.17251586914062 452.17095947265625 221.52163696289062 452.33184814453125 223.6929931640625 451.62652587890625 C 227.3389892578125 450.4444580078125 229.85311889648438 446.97900390625 231.031494140625 443.3289794921875 C 232.78475952148438 437.91119384765625 232.06991577148438 431.85888671875 229.64407348632812 426.7056884765625 C 227.21826171875 421.55242919921875 223.18966674804688 417.2564697265625 218.52728271484375 413.98583984375 L 219.65289306640625 414.6405029296875" stroke-width="0.6000000238418579" fill="rgb(143, 165, 67)" opacity="1.0"/>
    <path d="M 269.8571472167969 358.9049377441406 C 276.3872375488281 370.23486328125 296.1324768066406 368.8304138183594 301.835693359375 357.1561584472656 C 307.53887939453125 345.4819030761719 297.4653015136719 329.5750732421875 284.4090576171875 328.7705078125 C 271.3528137207031 327.9659729003906 259.643310546875 341.143798828125 261.03338623046875 354.1629333496094 L 269.8571472167969 358.9049377441406" stroke-width="0.6000000238418579" fill="rgb(233, 92, 21)" opacity="1.0"/>
    <path d="M 329.7831726074219 355.0262145996094 C 325.8102111816406 360.19403076171875 321.6003723144531 366.7792053222656 324.2487487792969 372.759765625 C 325.39532470703125 375.0987548828125 327.23944091796875 377.02435302734375 329.5267639160156 378.2708435058594 C 335.1031494140625 381.50726318359375 341.9023132324219 381.840087890625 347.7681579589844 379.16375732421875 C 352.7381591796875 376.8807373046875 356.42962646484375 372.6381530761719 359.9016418457031 368.45562744140625 C 361.84820556640625 366.10296630859375 363.8414306640625 363.5413818359375 364.16180419921875 360.52154541015625 C 364.555908203125 356.49285888671875 361.8583068847656 352.8353271484375 358.9934997558594 349.9772644042969 C 354.80609130859375 345.78924560546875 349.96844482421875 342.3066101074219 344.66815185546875 339.6644287109375 C 342.8350830078125 338.7550354003906 340.8557434082031 337.9262390136719 338.81500244140625 338.0660705566406 C 336.92413330078125 338.2931213378906 335.1401672363281 339.06549072265625 333.6806945800781 340.2889404296875 C 329.1091003417969 343.827880859375 326.3200988769531 349.1941223144531 326.0509338378906 354.9691467285156 L 329.7831726074219 355.0262145996094" stroke-width="0.6000000238418579" fill="rgb(70, 150, 179)" opacity="1.0"/>
    <path d="M 297.55181884765625 412.73919677734375 C 290.34051513671875 411.35906982421875 282.2894287109375 410.132080078125 276.1471252441406 414.1458740234375 C 269.551513671875 418.46160888671875 267.6392822265625 427.581787109375 269.26983642578125 435.293212890625 C 269.8972473144531 438.2667236328125 271.0263977050781 441.25299072265625 273.220947265625 443.354736328125 C 275.02435302734375 445.0831298828125 277.3935546875 446.0770263671875 279.7501525878906 446.903564453125 C 287.1785583496094 449.5189208984375 295.6739196777344 450.8013916015625 302.7437744140625 447.33551025390625 C 309.8666687011719 443.83746337890625 314.26904296875 435.4527587890625 313.0576477050781 427.6031494140625 C 311.84625244140625 419.75360107421875 305.1930847167969 413.0308837890625 297.341064453125 411.80096435546875 L 297.55181884765625 412.73919677734375" stroke-width="0.6000000238418579" fill="rgb(140, 28, 33)" opacity="1.0"/>
    <path d="M 325.3723449707031 389.3515930175781 C 318.2993469238281 389.3157958984375 310.9390563964844 389.35650634765625 304.4951171875 392.2850646972656 C 298.05126953125 395.213623046875 292.742431640625 401.9486389160156 293.775634765625 408.9497375488281 C 295.0703430175781 417.5889892578125 305.7383117675781 422.41497802734375 314.1496276855469 419.998291015625 C 322.5608825683594 417.58154296875 328.5830078125 410.07916259765625 332.29840087890625 402.16741943359375 C 333.69390869140625 399.8335266113281 334.1637878417969 397.0614013671875 333.61529541015625 394.3980407714844 C 332.8013000488281 391.84967041015625 329.3243103027344 390.09381103515625 327.2968444824219 391.85943603515625 L 325.3723449707031 389.3515930175781" stroke-width="0.6000000238418579" fill="rgb(159, 159, 159)" opacity="1.0"/>
    <path d="M 359.85113525390625 409.7561950683594 C 354.3920593261719 414.3160400390625 350.3763427734375 420.845703125 349.77655029296875 427.9295654296875 C 349.1767578125 435.013427734375 352.35736083984375 442.5333251953125 358.4307861328125 446.2860107421875 C 362.7281188964844 448.93377685546875 368.09185791015625 449.5321044921875 373.0575866699219 448.6026611328125 C 378.0233459472656 447.67327880859375 382.63018798828125 445.32550048828125 386.78582763671875 442.451171875 C 388.5935363769531 441.19921875 390.3990783691406 439.75518798828125 391.25341796875 437.7352294921875 C 392.2340087890625 435.4197998046875 391.7873229980469 432.7767333984375 391.2066345214844 430.3223876953125 C 389.5671691894531 423.393310546875 386.8033142089844 416.451416015625 381.578125 411.61297607421875 C 376.3529052734375 406.7745056152344 368.2108154296875 404.5797424316406 361.88751220703125 407.8167419433594 L 359.85113525390625 409.7561950683594" stroke-width="0.6000000238418579" fill="rgb(159, 159, 159)" opacity="1.0"/>
    <path d="M 254.03604125976562 368.1810302734375 C 254.92791748046875 361.1005859375 255.61251831054688 353.1916809082031 251.30142211914062 347.5220947265625 C 247.11663818359375 342.0025329589844 239.61688232421875 340.4273681640625 232.76861572265625 339.367919921875 C 229.9859619140625 338.9416198730469 227.06805419921875 338.5400390625 224.41622924804688 339.4801025390625 C 219.93017578125 341.0674743652344 217.5460205078125 345.938720703125 216.346923828125 350.53656005859375 C 215.2322998046875 354.8037109375 214.73617553710938 359.20880126953125 214.87371826171875 363.61700439453125 C 215.094482421875 370.7747497558594 217.66851806640625 378.70916748046875 224.13189697265625 381.7864990234375 C 227.61883544921875 383.45294189453125 231.74920654296875 383.4020080566406 235.48895263671875 382.4040222167969 C 239.22869873046875 381.406005859375 242.66375732421875 379.5167236328125 246.0283203125 377.603271484375 C 249.39285278320312 375.6897888183594 252.65786743164062 373.737548828125 254.88589477539062 370.68597412109375 L 254.03604125976562 368.1810302734375" stroke-width="0.6000000238418579" fill="rgb(218, 166, 20)" opacity="1.0"/>
    <path d="M 262.62841796875 383.9042663574219 C 253.59857177734375 375.9356689453125 239.818603515625 376.7959899902344 231.85000610351562 385.8258361816406 C 231.16766357421875 386.59906005859375 230.541015625 387.4197082519531 229.97479248046875 388.2816467285156 C 227.82388305664062 391.5570983886719 226.5677490234375 395.6067199707031 227.39520263671875 399.4349670410156 C 228.0941162109375 402.6701965332031 230.17718505859375 405.4228515625 232.4466552734375 407.8291320800781 C 238.53033447265625 414.26171875 246.22543334960938 418.947998046875 254.73257446289062 421.4012451171875 C 256.98236083984375 422.04595947265625 259.35174560546875 422.5325927734375 261.6592102050781 422.11285400390625 C 265.5334167480469 421.4105224609375 268.569091796875 418.2279052734375 270.2702941894531 414.6739501953125 C 272.7996520996094 409.39935302734375 272.9035339355469 403.13958740234375 271.14202880859375 397.5600280761719 C 269.3805236816406 391.98046875 265.8695373535156 387.0534362792969 261.57244873046875 383.0831604003906 L 262.62841796875 383.9042663574219" stroke-width="0.6000000238418579" fill="rgb(143, 165, 67)" opacity="1.0"/>
    <path d="M 197.732177734375 376.8980407714844 C 183.697509765625 378.1044006347656 176.06439208984375 398.014404296875 184.85675048828125 408.90362548828125 C 193.64913940429688 419.7928466796875 213.76629638671875 417.21539306640625 220.5050048828125 404.8405456542969 C 227.2437744140625 392.4656982421875 219.722900390625 375.0292663574219 206.383544921875 370.4491882324219 L 197.732177734375 376.8980407714844" stroke-width="0.6000000238418579" fill="rgb(233, 92, 21)" opacity="1.0"/>
    <path d="M 253.569091796875 374.81036376953125 C 250.72540283203125 380.3778991699219 247.90594482421875 387.3233642578125 251.4483642578125 392.5004577636719 C 252.93826293945312 394.505859375 255.01373291015625 395.9995422363281 257.3885192871094 396.7753601074219 C 263.212646484375 398.85308837890625 269.68255615234375 397.97900390625 274.74658203125 394.4302978515625 C 279.0345153808594 391.40899658203125 281.7743835449219 386.7632141113281 284.31781005859375 382.2123718261719 C 285.742431640625 379.6536560058594 287.17449951171875 376.8897705078125 286.94903564453125 373.98602294921875 C 286.61676025390625 370.1180114746094 283.433837890625 367.1402282714844 280.2329406738281 364.9455261230469 C 275.5523986816406 361.7277526855469 270.38189697265625 359.28875732421875 264.9219665527344 357.7231750488281 C 263.0344543457031 357.1858825683594 261.0231018066406 356.7501220703125 259.123046875 357.238525390625 C 257.3796081542969 357.7830505371094 255.83221435546875 358.82305908203125 254.66964721679688 360.2318115234375 C 250.97686767578125 364.36785888671875 249.28436279296875 369.9156188964844 250.03952026367188 375.4086608886719 L 253.569091796875 374.81036376953125" stroke-width="0.6000000238418579" fill="rgb(70, 150, 179)" opacity="1.0"/>
    <path d="M 338.36322021484375 360.6402893066406 C 339.1836853027344 353.62481689453125 339.7985534667969 345.81427001953125 335.518310546875 340.2012939453125 C 330.9167785644531 334.1744384765625 322.03265380859375 332.9767761230469 314.7475891113281 335.0799255371094 C 311.9384460449219 335.8896179199219 309.1520080566406 337.1816101074219 307.2887878417969 339.43402099609375 C 305.7563781738281 341.28509521484375 304.9682922363281 343.6277160644531 304.3398742675781 345.9465637207031 C 302.349365234375 353.2566223144531 301.7122802734375 361.4972839355469 305.5316162109375 368.03851318359375 C 309.3854675292969 374.62841796875 317.7379150390625 378.2666931152344 325.18475341796875 376.5560607910156 C 332.631591796875 374.8454284667969 338.61712646484375 367.99224853515625 339.24871826171875 360.37255859375 L 338.36322021484375 360.6402893066406" stroke-width="0.6000000238418579" fill="rgb(140, 28, 33)" opacity="1.0"/>
    <path d="M 357.51580810546875 399.1572570800781 C 350.59442138671875 398.0714111328125 343.38037109375 397.017822265625 336.6346130371094 398.9284973144531 C 329.88897705078125 400.8391418457031 323.68939208984375 406.6461486816406 323.6611633300781 413.6558837890625 C 323.64556884765625 422.308837890625 333.3759460449219 428.619873046875 341.9722900390625 427.502685546875 C 350.568603515625 426.38555908203125 357.5807189941406 419.93304443359375 362.3946533203125 412.7369384765625 C 364.1080017089844 410.65863037109375 364.9800109863281 408.013671875 364.83856201171875 405.32391357421875 C 364.41998291015625 402.70733642578125 361.2757568359375 400.4712219238281 359.0279235839844 401.8991394042969 L 357.51580810546875 399.1572570800781" stroke-width="0.6000000238418579" fill="rgb(159, 159, 159)" opacity="1.0"/>
    <path d="M 178.41705322265625 410.0003967285156 C 171.47576904296875 409.54425048828125 164.22702026367188 411.45635986328125 159.02215576171875 416.06591796875 C 153.81729125976562 420.675537109375 150.994140625 428.144775390625 152.76084899902344 434.8995361328125 C 154.0159912109375 439.6737060546875 157.40899658203125 443.7166748046875 161.5511474609375 446.4097900390625 C 165.69329833984375 449.10284423828125 170.53857421875 450.54974365234375 175.4197998046875 451.31939697265625 C 177.544189453125 451.653076171875 179.79669189453125 451.849365234375 181.76455688476562 450.99603271484375 C 184.0211181640625 450.018798828125 185.488525390625 447.846435546875 186.73370361328125 445.71728515625 C 190.24908447265625 439.7061767578125 192.97711181640625 432.9273681640625 192.54351806640625 425.97637939453125 C 192.10992431640625 419.025390625 187.82760620117188 411.97747802734375 181.16726684570312 410.0017395019531 L 178.41705322265625 410.0003967285156" stroke-width="0.6000000238418579" fill="rgb(159, 159, 159)" opacity="1.0"/>
    <path d="M 361.98419189453125 370.1029052734375 C 355.571044921875 368.97186279296875 348.3935546875 367.9924621582031 343.0325012207031 371.6668701171875 C 337.8138122558594 375.23291015625 336.0411682128906 381.99749755859375 334.767822265625 388.1914978027344 C 334.2542419433594 390.7084655761719 333.757080078125 393.3498229980469 334.4947204589844 395.8089904785156 C 335.7398681640625 399.9689636230469 340.07244873046875 402.3608093261719 344.2090759277344 403.66033935546875 C 348.0481262207031 404.86798095703125 352.0406799316406 405.51812744140625 356.0645446777344 405.5908508300781 C 362.59814453125 405.7113037109375 369.9453430175781 403.72186279296875 373.04052734375 397.9693298339844 C 374.7160339355469 394.8661804199219 374.855224609375 391.09942626953125 374.11370849609375 387.6461181640625 C 373.3721618652344 384.19281005859375 371.80462646484375 380.9771728515625 370.2118835449219 377.8246765136719 C 368.6191101074219 374.6722106933594 366.9865417480469 371.60870361328125 364.305419921875 369.44091796875 L 361.98419189453125 370.1029052734375" stroke-width="0.6000000238418579" fill="rgb(218, 166, 20)" opacity="1.0"/>
    <path d="M 374.3147277832031 378.89794921875 C 366.8929748535156 387.9951477050781 368.25115966796875 401.38641357421875 377.3483581542969 408.80816650390625 C 378.1273498535156 409.4436950683594 378.9504699707031 410.0231628417969 379.81146240234375 410.5422058105469 C 383.08343505859375 412.513916015625 387.0757751464844 413.584716796875 390.7738342285156 412.6341552734375 C 393.8990478515625 411.8311767578125 396.5019226074219 409.69805908203125 398.76031494140625 407.39642333984375 C 404.7969970703125 401.2272033691406 409.07171630859375 393.55413818359375 411.14044189453125 385.17431640625 C 411.68353271484375 382.9583740234375 412.068115234375 380.6318664550781 411.5721435546875 378.39990234375 C 410.7417297363281 374.65234375 407.5268249511719 371.8152770996094 404.0005187988281 370.2922058105469 C 398.7668151855469 368.02734375 392.6649475097656 368.16241455078125 387.2961120605469 370.0889892578125 C 381.92730712890625 372.01556396484375 377.2601318359375 375.6217346191406 373.5546875 379.9576416015625 L 374.3147277832031 378.89794921875" stroke-width="0.6000000238418579" fill="rgb(143, 165, 67)" opacity="1.0"/>
    <path d="M 365.9998474121094 362.445068359375 C 371.7472229003906 374.8322448730469 392.4149475097656 375.1925048828125 399.42388916015625 363.575439453125 C 406.4328308105469 351.9583435058594 397.4217834472656 334.4836120605469 383.9154357910156 332.4425964355469 C 370.4090576171875 330.4015808105469 357.0139465332031 343.0286560058594 357.25909423828125 356.6988220214844 L 365.9998474121094 362.445068359375" stroke-width="0.6000000238418579" fill="rgb(233, 92, 21)" opacity="1.0"/>
    <path d="M 404.22479248046875 353.9467468261719 C 403.40887451171875 360.69805908203125 403.1344299316406 368.8472900390625 408.69287109375 372.80523681640625 C 410.9662170410156 374.29425048828125 413.64556884765625 375.0411376953125 416.361328125 374.9428405761719 C 423.08746337890625 374.88043212890625 429.3660888671875 371.561767578125 433.2061767578125 366.0392761230469 C 436.45166015625 361.3463134765625 437.5072021484375 355.5751037597656 438.3978271484375 349.9745178222656 C 438.8929443359375 346.82763671875 439.31884765625 343.46844482421875 437.999755859375 340.5879821777344 C 436.21002197265625 336.76300048828125 431.84332275390625 334.9159240722656 427.751953125 333.875244140625 C 421.7659912109375 332.3447265625 415.5718994140625 331.79315185546875 409.40972900390625 332.241943359375 C 407.2808837890625 332.4010925292969 405.0636901855469 332.7104187011719 403.3067321777344 333.9216003417969 C 401.7306823730469 335.13134765625 400.5406799316406 336.7735595703125 399.8818359375 338.6479797363281 C 397.662109375 344.2560119628906 398.01422119140625 350.55548095703125 400.8451232910156 355.8811950683594 L 404.22479248046875 353.9467468261719" stroke-width="0.6000000238418579" fill="rgb(70, 150, 179)" opacity="1.0"/>
    <path d="M 387.8567199707031 420.93438720703125 C 386.02972412109375 427.790771484375 384.29254150390625 435.46722412109375 387.7387390136719 441.66455078125 C 391.4447021484375 448.3197021484375 400.1044921875 450.791015625 407.65032958984375 449.750244140625 C 410.5598449707031 449.3502197265625 413.51629638671875 448.4674072265625 415.693359375 446.4967041015625 C 417.48370361328125 444.8773193359375 418.6048583984375 442.66192626953125 419.56396484375 440.4471435546875 C 422.59661865234375 433.466552734375 424.41790771484375 425.36572265625 421.563720703125 418.31201171875 C 418.6822509765625 411.2048645019531 410.90289306640625 406.3837585449219 403.2528076171875 407.0109558105469 C 395.60272216796875 407.6381530761719 388.6640930175781 413.588623046875 386.9377746582031 421.07293701171875 L 387.8567199707031 420.93438720703125" stroke-width="0.6000000238418579" fill="rgb(140, 28, 33)" opacity="1.0"/>
    <path d="M 411.5329895019531 379.4878845214844 C 409.9407958984375 386.3736267089844 408.35992431640625 393.5561828613281 409.7953796386719 400.48150634765625 C 411.23089599609375 407.4067077636719 416.626220703125 414.06378173828125 423.67724609375 414.5982666015625 C 432.3824462890625 415.23858642578125 439.43487548828125 405.9037170410156 438.931396484375 397.17364501953125 C 438.42791748046875 388.443603515625 432.4417724609375 380.9223937988281 425.5487060546875 375.5592346191406 C 423.581298828125 373.6852722167969 420.98291015625 372.6169128417969 418.266357421875 372.5650939941406 C 415.6033935546875 372.79736328125 413.12652587890625 375.799560546875 414.40093994140625 378.16436767578125 L 411.5329895019531 379.4878845214844" stroke-width="0.6000000238418579" fill="rgb(159, 159, 159)" opacity="1.0"/>
    <path d="M 434.8826904296875 370.65728759765625 C 436.3489990234375 377.55963134765625 440.212158203125 384.1098937988281 446.14593505859375 387.9218444824219 C 452.0797119140625 391.7337951660156 460.1494140625 392.4328918457031 466.2574462890625 388.8477478027344 C 470.57269287109375 386.3075256347656 473.58538818359375 381.8815002441406 475.0738525390625 377.0958557128906 C 476.562255859375 372.3101806640625 476.640380859375 367.1812744140625 476.0474853515625 362.2038269042969 C 475.7882080078125 360.03790283203125 475.359375 357.7847595214844 473.984375 356.09857177734375 C 472.4088134765625 354.1646728515625 469.8839111328125 353.330322265625 467.4622802734375 352.7010498046875 C 460.62548828125 350.924560546875 453.25604248046875 350.1281433105469 446.58929443359375 352.4658203125 C 439.92254638671875 354.8034973144531 434.22113037109375 360.92535400390625 434.12652587890625 367.971923828125 L 434.8826904296875 370.65728759765625" stroke-width="0.6000000238418579" fill="rgb(159, 159, 159)" opacity="1.0"/>
    <path d="M 429.2359619140625 410.7239990234375 C 424.05780029296875 415.2235107421875 418.49700927734375 420.44927978515625 417.949951171875 427.27392578125 C 417.40869140625 433.91015625 421.77044677734375 439.84649658203125 425.9962158203125 444.99578857421875 C 427.7159423828125 447.0850830078125 429.54840087890625 449.243408203125 432.0504150390625 450.27020263671875 C 436.28118896484375 452.00927734375 441.11181640625 450.048828125 444.91839599609375 447.5244140625 C 448.452392578125 445.1827392578125 451.63189697265625 442.345703125 454.3594970703125 439.1002197265625 C 458.790283203125 433.83203125 462.033447265625 426.498779296875 459.37701416015625 420.1510009765625 C 457.9478759765625 416.721923828125 454.9569091796875 414.1103515625 451.6385498046875 412.4276123046875 C 448.3201904296875 410.7448425292969 444.64862060546875 409.8957824707031 441.0120849609375 409.1092529296875 C 437.37548828125 408.32269287109375 433.78533935546875 407.62774658203125 430.233154296875 408.385009765625 L 429.2359619140625 410.7239990234375" stroke-width="0.6000000238418579" fill="rgb(218, 166, 20)" opacity="1.0"/>
    <path d="M 135.3115997314453 214.48846435546875 C 134.0596923828125 227.02142333984375 143.20481872558594 238.1962890625 155.73779296875 239.44818115234375 C 156.81097412109375 239.55538940429688 157.89044189453125 239.5863037109375 158.968017578125 239.540771484375 C 163.06256103515625 239.36688232421875 167.26803588867188 237.9605712890625 170.01324462890625 234.92031860351562 C 172.3333740234375 232.351318359375 173.39859008789062 228.9017333984375 174.05584716796875 225.50543212890625 C 175.8026123046875 216.41192626953125 175.08270263671875 207.01654052734375 171.97085571289062 198.2952880859375 C 171.1444091796875 195.99139404296875 170.1107177734375 193.68246459960938 168.3453369140625 191.97955322265625 C 165.38320922851562 189.11895751953125 160.8272705078125 188.48486328125 156.77084350585938 189.21063232421875 C 150.747802734375 190.283935546875 145.36936950683594 194.0181884765625 141.7075653076172 198.92095947265625 C 138.04576110839844 203.82373046875 136.0063018798828 209.8134765625 135.2592315673828 215.886474609375 L 135.3115997314453 214.48846435546875" stroke-width="0.6000000238418579" fill="rgb(143, 165, 67)" opacity="1.0"/>
    <path d="M 170.12628173828125 263.5396728515625 C 179.36138916015625 274.88818359375 200.9197998046875 269.812255859375 205.13522338867188 255.89968872070312 C 209.35055541992188 241.98712158203125 195.38455200195312 226.2158203125 180.82000732421875 227.6578369140625 C 166.25543212890625 229.099853515625 155.67434692382812 245.74530029296875 159.53375244140625 259.87713623046875 L 170.12628173828125 263.5396728515625" stroke-width="0.6000000238418579" fill="rgb(233, 92, 21)" opacity="1.0"/>
    <path d="M 145.6299285888672 313.68157958984375 C 139.9239501953125 317.72589111328125 133.52748107910156 323.1487121582031 134.35433959960938 330.1175537109375 C 134.7913055419922 332.8780517578125 136.07411193847656 335.4349670410156 138.02584838867188 337.43548583984375 C 142.7217254638672 342.5152587890625 149.58843994140625 345.00384521484375 156.448486328125 344.1120910644531 C 162.2657470703125 343.3407287597656 167.39080810546875 340.1562805175781 172.27191162109375 336.9640808105469 C 175.01092529296875 335.16644287109375 177.86376953125 333.1693115234375 179.14605712890625 330.1739807128906 C 180.82247924804688 326.16741943359375 179.21148681640625 321.5650634765625 177.17657470703125 317.72967529296875 C 174.20550537109375 312.1128234863281 170.34490966796875 307.013916015625 165.7445068359375 302.63067626953125 C 164.15203857421875 301.1192626953125 162.38421630859375 299.6443176269531 160.24749755859375 299.1431884765625 C 158.23687744140625 298.7788391113281 156.1636962890625 299.00738525390625 154.28076171875 299.80096435546875 C 148.4754180908203 301.9859924316406 143.92080688476562 306.607666015625 141.8209228515625 312.4443664550781 L 145.6299285888672 313.68157958984375" stroke-width="0.6000000238418579" fill="rgb(70, 150, 179)" opacity="1.0"/>
    <path d="M 123.04005432128906 302.25390625 C 123.34732055664062 294.67303466796875 123.36958312988281 286.25732421875 118.32789611816406 280.5941162109375 C 112.90835571289062 274.5137939453125 103.29527282714844 273.9548034667969 95.66383361816406 276.8009033203125 C 92.72100830078125 277.89697265625 89.841796875 279.5077819824219 88.02964782714844 282.07208251953125 C 86.53915405273438 284.17950439453125 85.88589477539062 286.7528381347656 85.40171813964844 289.28765869140625 C 83.86524963378906 297.2793884277344 83.85423278808594 306.1576232910156 88.47787475585938 312.8525695800781 C 93.14247131347656 319.5968322753906 102.3848876953125 322.813232421875 110.22160339355469 320.3743591308594 C 118.05831909179688 317.93548583984375 123.91093444824219 310.1076965332031 123.9666748046875 301.8949890136719 L 123.04005432128906 302.25390625" stroke-width="0.6000000238418579" fill="rgb(140, 28, 33)" opacity="1.0"/>
    <path d="M 143.0147705078125 270.9770812988281 C 136.8585205078125 274.514404296875 130.4915771484375 278.2630615234375 126.37678527832031 284.05560302734375 C 122.26206970214844 289.84808349609375 121.05278015136719 298.3713073730469 125.48155212402344 303.9258117675781 C 130.9636993408203 310.77008056640625 142.656494140625 309.5761413574219 148.73681640625 303.2352294921875 C 154.81715393066406 296.89434814453125 156.25833129882812 287.3453369140625 155.4911346435547 278.6048278808594 C 155.52471923828125 275.8753356933594 154.53395080566406 273.2325439453125 152.71426391601562 271.1979064941406 C 150.72216796875 269.39703369140625 146.81887817382812 269.6274108886719 145.9501495361328 272.1825256347656 L 143.0147705078125 270.9770812988281" stroke-width="0.6000000238418579" fill="rgb(159, 159, 159)" opacity="1.0"/>
    <path d="M 160.85494995117188 284.19439697265625 C 160.17388916015625 291.7370300292969 162.06219482421875 299.67730712890625 166.94076538085938 305.46478271484375 C 171.8193359375 311.25225830078125 179.8736572265625 314.5235595703125 187.27239990234375 312.7803649902344 C 192.5018310546875 311.541259765625 196.992431640625 307.9559326171875 200.03366088867188 303.5193176269531 C 203.07492065429688 299.0826721191406 204.778564453125 293.8476257324219 205.74606323242188 288.55548095703125 C 206.16574096679688 286.252197265625 206.43923950195312 283.80584716796875 205.5628662109375 281.641357421875 C 204.55926513671875 279.1593933105469 202.23397827148438 277.5045166015625 199.94973754882812 276.0926513671875 C 193.5008544921875 272.1067199707031 186.1954345703125 268.957275390625 178.61862182617188 269.24432373046875 C 171.04180908203125 269.5313720703125 163.25704956054688 274.0047302246094 160.9295654296875 281.201171875 L 160.85494995117188 284.19439697265625" stroke-width="0.6000000238418579" fill="rgb(159, 159, 159)" opacity="1.0"/>
    <path d="M 126.801025390625 348.43035888671875 C 126.82290649414062 340.8292541503906 126.5179443359375 332.3793029785156 121.2230224609375 326.94647216796875 C 116.08113098144531 321.65576171875 107.9478759765625 320.9660949707031 100.57041931152344 320.7368469238281 C 97.57328796386719 320.64813232421875 94.43643188476562 320.6031188964844 91.75531005859375 321.9418640136719 C 87.2193603515625 324.20343017578125 85.33255004882812 329.6631774902344 84.6629638671875 334.6797790527344 C 84.03965759277344 339.33575439453125 84.08816528320312 344.05712890625 84.80694580078125 348.6993713378906 C 85.9713134765625 356.2374572753906 89.72451782226562 364.29052734375 96.95756530761719 366.7030334472656 C 100.86051940917969 368.01116943359375 105.22032165527344 367.4200744628906 109.04397583007812 365.87860107421875 C 112.86763000488281 364.3371276855469 116.25326538085938 361.8930969238281 119.56120300292969 359.4326477050781 C 122.86915588378906 356.9721984863281 126.06683349609375 354.4836730957031 128.02528381347656 350.9679260253906 L 126.801025390625 348.43035888671875" stroke-width="0.6000000238418579" fill="rgb(218, 166, 20)" opacity="1.0"/>
    <path d="M 151.5413360595703 342.7339782714844 C 140.0653076171875 345.056884765625 132.64523315429688 356.2431335449219 134.9681396484375 367.7191467285156 C 135.1670379638672 368.70184326171875 135.4354248046875 369.669189453125 135.77122497558594 370.6138916015625 C 137.04788208007812 374.2033996582031 139.44970703125 377.5536193847656 142.9027099609375 379.158935546875 C 145.8206329345703 380.5157775878906 149.17678833007812 380.5165710449219 152.37384033203125 380.1695556640625 C 160.93023681640625 379.2289123535156 169.0787353515625 376.0143737792969 175.97286987304688 370.8598937988281 C 177.79290771484375 369.4943542480469 179.56060791015625 367.9433288574219 180.58941650390625 365.9084167480469 C 182.318603515625 362.4931945800781 181.63320922851562 358.27239990234375 179.87677001953125 354.8680419921875 C 177.27261352539062 349.8119812011719 172.48141479492188 346.0578308105469 167.12274169921875 344.1488342285156 C 161.7640380859375 342.23980712890625 155.88446044921875 342.0697937011719 150.28514099121094 343.07061767578125 L 151.5413360595703 342.7339782714844" stroke-width="0.6000000238418579" fill="rgb(143, 165, 67)" opacity="1.0"/>
    <path d="M 137.7365264892578 376.0827331542969 C 134.68203735351562 362.4358825683594 114.07870483398438 357.57586669921875 104.53585815429688 367.6749267578125 C 94.9930419921875 377.7740173339844 100.205810546875 397.2223815917969 113.27700805664062 402.2052307128906 C 126.34820556640625 407.18804931640625 142.50143432617188 397.4686279296875 145.23220825195312 383.7358093261719 L 137.7365264892578 376.0827331542969" stroke-width="0.6000000238418579" fill="rgb(233, 92, 21)" opacity="1.0"/>
    <path d="M 180.00567626953125 353.64190673828125 C 178.91525268554688 360.56976318359375 178.33120727539062 368.9583435058594 183.91357421875 373.2428894042969 C 186.20147705078125 374.86151123046875 188.93524169921875 375.7303161621094 191.73782348632812 375.7293701171875 C 198.67218017578125 375.91363525390625 205.26565551757812 372.7254333496094 209.42742919921875 367.17578125 C 212.94573974609375 362.4591064453125 214.24688720703125 356.55023193359375 215.37173461914062 350.81109619140625 C 215.99835205078125 347.5861511230469 216.56143188476562 344.1398620605469 215.30841064453125 341.1224365234375 C 213.60528564453125 337.11419677734375 209.17315673828125 335.0491943359375 204.99493408203125 333.825439453125 C 198.88232421875 332.0268249511719 192.5189208984375 331.22943115234375 186.15155029296875 331.4642333984375 C 183.95166015625 331.549560546875 181.6551513671875 331.7864074707031 179.79962158203125 332.9697570800781 C 178.130615234375 334.1582946777344 176.84347534179688 335.8067932128906 176.09515380859375 337.7142333984375 C 173.6002197265625 343.41192626953125 173.73028564453125 349.9172668457031 176.4510498046875 355.5106506347656 L 180.00567626953125 353.64190673828125" stroke-width="0.6000000238418579" fill="rgb(70, 150, 179)" opacity="1.0"/>
  </g>
</svg>
