<?xml version="1.0" ?>
<svg xmlns="http://www.w3.org/2000/svg" version="1.1" width="600" height="600">
  <defs/>
  <g>
    <path d="M 352.07177734375 344.009765625 C 356.4159851074219 346.9667663574219 363.31414794921875 343.005126953125 363.335693359375 337.7839050292969 C 363.3572082519531 332.5626525878906 356.9304504394531 328.56951904296875 352.0660095214844 330.56201171875 C 347.2015686035156 332.55450439453125 345.26995849609375 339.3702697753906 348.0499572753906 343.8374328613281 L 352.07177734375 344.009765625" stroke-width="0.6000000238418579" fill="rgb(233, 92, 21)" opacity="1.0"/>
    <path d="M 124.88093566894531 210.28167724609375 C 129.15261840820312 209.58001708984375 134.18246459960938 208.298828125 135.61338806152344 204.1976318359375 C 136.1193084716797 202.5433349609375 136.09945678710938 200.7728271484375 135.55648803710938 199.13034057617188 C 134.32244873046875 195.03024291992188 131.1776580810547 191.78262329101562 127.11936950683594 190.41732788085938 C 123.67385864257812 189.26800537109375 119.95864868164062 189.64892578125 116.37704467773438 190.10037231445312 C 114.36553955078125 190.35723876953125 112.236572265625 190.69415283203125 110.71047973632812 192.0125732421875 C 108.69075012207031 193.78662109375 108.33816528320312 196.7840576171875 108.42951965332031 199.46990966796875 C 108.55830383300781 203.4007568359375 109.32249450683594 207.284912109375 110.69242858886719 210.97161865234375 C 111.168212890625 212.2445068359375 111.75149536132812 213.54473876953125 112.80419921875 214.40328979492188 C 113.8238525390625 215.15151977539062 115.03921508789062 215.5869140625 116.30204772949219 215.65634155273438 C 120.12451171875 216.0159912109375 123.91232299804688 214.68072509765625 126.66423034667969 212.00347900390625 L 124.88093566894531 210.28167724609375" stroke-width="0.6000000238418579" fill="rgb(70, 150, 179)" opacity="1.0"/>
    <path d="M 454.542724609375 412.10357666015625 C 457.0489501953125 414.76318359375 459.93853759765625 417.60589599609375 463.58648681640625 417.778076171875 C 467.50537109375 417.9608154296875 470.93621826171875 414.83984375 472.52734375 411.2539367675781 C 473.141357421875 409.8716125488281 473.5567626953125 408.33782958984375 473.2845458984375 406.8501281738281 C 473.0611572265625 405.6270751953125 472.3953857421875 404.5353088378906 471.68585205078125 403.51470947265625 C 469.45233154296875 400.2935485839844 466.39971923828125 397.29888916015625 462.53741455078125 396.63519287109375 C 458.644287109375 395.9689636230469 454.42352294921875 398.067138671875 452.623046875 401.58648681640625 C 450.8226318359375 405.1058654785156 451.5457763671875 409.75762939453125 454.3541259765625 412.54345703125 L 454.542724609375 412.10357666015625" stroke-width="0.6000000238418579" fill="rgb(140, 28, 33)" opacity="1.0"/>
    <path d="M 90.41168212890625 208.2728271484375 C 94.5867919921875 207.71478271484375 98.92506408691406 207.08807373046875 102.48637390136719 204.83294677734375 C 106.047607421875 202.57781982421875 108.62765502929688 198.17031860351562 107.44490051269531 194.12518310546875 C 105.97378540039062 189.1351318359375 99.28585815429688 187.16195678710938 94.52218627929688 189.27627563476562 C 89.75848388671875 191.39059448242188 86.820556640625 196.30914306640625 85.27679443359375 201.2802734375 C 84.64472961425781 202.771240234375 84.59454345703125 204.4449462890625 85.13616943359375 205.9710693359375 C 85.82501220703125 207.4075927734375 88.01976013183594 208.15863037109375 89.07113647460938 206.95111083984375 L 90.41168212890625 208.2728271484375" stroke-width="0.6000000238418579" fill="rgb(159, 159, 159)" opacity="1.0"/>
    <path d="M 382.49639892578125 304.4730224609375 C 386.3812255859375 303.2565612792969 389.9339294433594 300.6825866699219 391.80157470703125 297.06787109375 C 393.6692199707031 293.453125 393.6332092285156 288.7803955078125 391.2428894042969 285.4666442871094 C 389.5499572753906 283.12591552734375 386.8445129394531 281.63555908203125 384.0151672363281 281.0401611328125 C 381.1858215332031 280.44476318359375 378.2358093261719 280.677978515625 375.4091491699219 281.28839111328125 C 374.1792297363281 281.5547790527344 372.90838623046875 281.9232177734375 372.01446533203125 282.80438232421875 C 370.9891662597656 283.81414794921875 370.6468811035156 285.3096008300781 370.416748046875 286.7345886230469 C 369.7671203613281 290.7575988769531 369.70928955078125 295.0334167480469 371.41339111328125 298.7356872558594 C 373.1175231933594 302.4379577636719 376.9427490234375 305.3806457519531 380.99505615234375 305.05291748046875 L 382.49639892578125 304.4730224609375" stroke-width="0.6000000238418579" fill="rgb(159, 159, 159)" opacity="1.0"/>
    <path d="M 101.59217834472656 425.568115234375 C 103.6705322265625 422.8521728515625 105.86305236816406 419.7432861328125 105.4468994140625 416.35552978515625 C 105.04681396484375 413.06036376953125 102.32225036621094 410.5979309082031 99.742919921875 408.5062561035156 C 98.69384765625 407.6580810546875 97.58282470703125 406.7874755859375 96.25808715820312 406.5365295410156 C 94.01777648925781 406.1108093261719 91.85491943359375 407.5519104003906 90.24864196777344 409.1658935546875 C 88.75717163085938 410.6633605957031 87.48844909667969 412.36724853515625 86.4813232421875 414.225341796875 C 84.84490966796875 417.2418212890625 83.99526977539062 421.14794921875 85.92817687988281 423.9820556640625 C 86.96945190429688 425.513671875 88.691650390625 426.48956298828125 90.48074340820312 426.9791259765625 C 92.26983642578125 427.46868896484375 94.14794921875 427.5157470703125 96.00270080566406 427.5357666015625 C 97.85745239257812 427.5557861328125 99.68035888671875 427.53570556640625 101.33934020996094 426.81024169921875 L 101.59217834472656 425.568115234375" stroke-width="0.6000000238418579" fill="rgb(218, 166, 20)" opacity="1.0"/>
    <path d="M 99.68864440917969 148.73492431640625 C 106.81430053710938 149.69662475585938 113.37040710449219 144.69973754882812 114.33209228515625 137.57406616210938 C 114.41445922851562 136.96389770507812 114.45339965820312 136.34866333007812 114.44869995117188 135.73297119140625 C 114.43032836914062 133.39349365234375 113.71102905273438 130.96640014648438 112.03068542480469 129.3401641845703 C 110.61080932617188 127.96574401855469 108.66377258300781 127.28990173339844 106.73907470703125 126.84786987304688 C 101.58547973632812 125.6717529296875 96.21096801757812 125.89698791503906 91.173828125 127.50018310546875 C 89.84307861328125 127.92617797851562 88.50537109375 128.47035217285156 87.49896240234375 129.44393920898438 C 85.80844116210938 131.07740783691406 85.35671997070312 133.6641845703125 85.69070434570312 135.9927978515625 C 86.18412780761719 139.45028686523438 88.20843505859375 142.59254455566406 90.93328857421875 144.77850341796875 C 93.65814208984375 146.96444702148438 97.03517150878906 148.24627685546875 100.48521423339844 148.7924041748047 L 99.68864440917969 148.73492431640625" stroke-width="0.6000000238418579" fill="rgb(143, 165, 67)" opacity="1.0"/>
    <path d="M 459.7310791015625 346.361083984375 C 462.69024658203125 353.5124206542969 474.3848876953125 354.2091369628906 478.6307373046875 347.7980041503906 C 482.87646484375 341.3868408203125 478.1905517578125 331.27685546875 470.5911865234375 329.79913330078125 C 462.99176025390625 328.3213806152344 455.10565185546875 335.1521911621094 454.9185791015625 342.89886474609375 L 459.7310791015625 346.361083984375" stroke-width="0.6000000238418579" fill="rgb(233, 92, 21)" opacity="1.0"/>
    <path d="M 106.10800170898438 223.9053955078125 C 108.89256286621094 220.8150634765625 111.89828491210938 216.83480834960938 110.51068115234375 212.89825439453125 C 109.89749145507812 211.3531494140625 108.81997680664062 210.036376953125 107.42672729492188 209.129638671875 C 104.03985595703125 206.79336547851562 99.73069763183594 206.24359130859375 95.86573791503906 207.65472412109375 C 92.59025573730469 208.860107421875 90.03079223632812 211.37576293945312 87.61392211914062 213.8641357421875 C 86.258544921875 215.26412963867188 84.86309814453125 216.79473876953125 84.50912475585938 218.7000732421875 C 84.05812072753906 221.24359130859375 85.592529296875 223.70465087890625 87.27305603027344 225.6654052734375 C 89.72892761230469 228.53802490234375 92.63356018066406 230.9942626953125 95.87429809570312 232.938720703125 C 96.99533081054688 233.60842895507812 98.21339416503906 234.234130859375 99.51870727539062 234.24661254882812 C 100.73297119140625 234.1961669921875 101.90634155273438 233.79345703125 102.89570617675781 233.087646484375 C 105.98013305664062 231.06341552734375 108.02131652832031 227.78799438476562 108.47966003417969 224.12722778320312 L 106.10800170898438 223.9053955078125" stroke-width="0.6000000238418579" fill="rgb(70, 150, 179)" opacity="1.0"/>
    <path d="M 105.14053344726562 81.060546875 C 105.71920776367188 84.87477111816406 106.52076721191406 89.0782470703125 109.58456420898438 91.4185791015625 C 112.87728881835938 93.9306640625 117.73033142089844 93.28143310546875 121.26528930664062 91.1236572265625 C 122.62857055664062 90.29228210449219 123.91038513183594 89.21009826660156 124.56742858886719 87.75494384765625 C 125.10800170898438 86.55894470214844 125.18563842773438 85.21119689941406 125.18255615234375 83.89900207519531 C 125.17787170410156 79.76097106933594 124.32601928710938 75.32769775390625 121.37129211425781 72.43191528320312 C 118.391357421875 69.51545715332031 113.46673583984375 68.80227661132812 109.78997802734375 70.77658081054688 C 106.11322021484375 72.75088500976562 103.94735717773438 77.223876953125 104.71261596679688 81.32920837402344 L 105.14053344726562 81.060546875" stroke-width="0.6000000238418579" fill="rgb(140, 28, 33)" opacity="1.0"/>
    <path d="M 92.27210998535156 408.5252990722656 C 95.98342895507812 406.2730407714844 99.8204345703125 403.8885498046875 102.25090026855469 400.28765869140625 C 104.68133544921875 396.6867980957031 105.29586791992188 391.4592590332031 102.50752258300781 388.1287841796875 C 99.05642700195312 384.025390625 91.92660522460938 384.9261779785156 88.30270385742188 388.8910217285156 C 84.67880249023438 392.8558349609375 83.93753051757812 398.71380615234375 84.5343017578125 404.0452575683594 C 84.55369567871094 405.71417236328125 85.19796752929688 407.3150939941406 86.34001159667969 408.53216552734375 C 87.58403015136719 409.6038513183594 89.96656799316406 409.40594482421875 90.46022033691406 407.8313903808594 L 92.27210998535156 408.5252990722656" stroke-width="0.6000000238418579" fill="rgb(159, 159, 159)" opacity="1.0"/>
    <path d="M 477.2747802734375 70.14852905273438 C 478.3173828125 66.74368286132812 478.21624755859375 62.90745544433594 476.531005859375 59.77268981933594 C 474.845703125 56.637939453125 471.45587158203125 54.353912353515625 467.8828125 54.44065856933594 C 465.35675048828125 54.50520324707031 462.94378662109375 55.720794677734375 461.11541748046875 57.46821594238281 C 459.28704833984375 59.21565246582031 457.9969482421875 61.459808349609375 457.04010009765625 63.80140686035156 C 456.624267578125 64.82066345214844 456.26190185546875 65.91989135742188 456.45587158203125 67.00057983398438 C 456.677734375 68.23968505859375 457.587646484375 69.22598266601562 458.502197265625 70.09651184082031 C 461.084228515625 72.55413818359375 464.1412353515625 74.70967102050781 467.6553955078125 75.3101806640625 C 471.16961669921875 75.91067504882812 475.1842041015625 74.60498046875 476.9510498046875 71.51861572265625 L 477.2747802734375 70.14852905273438" stroke-width="0.6000000238418579" fill="rgb(159, 159, 159)" opacity="1.0"/>
    <path d="M 89.37265014648438 109.51773071289062 C 93.41702270507812 110.65325927734375 97.96174621582031 111.740234375 101.63763427734375 109.72393798828125 C 105.2152099609375 107.76812744140625 106.78501892089844 103.53912353515625 107.99789428710938 99.64450073242188 C 108.48828125 98.06163024902344 108.97605895996094 96.39788818359375 108.65959167480469 94.77224731445312 C 108.12596130371094 92.02244567871094 105.49758911132812 90.21046447753906 102.92526245117188 89.11216735839844 C 100.5380859375 88.09182739257812 98.01675415039062 87.41958618164062 95.4384765625 87.115966796875 C 91.25225830078125 86.62142944335938 86.40904235839844 87.4293212890625 84.054931640625 90.92425537109375 C 82.78125 92.80917358398438 82.45138549804688 95.21818542480469 82.70687866210938 97.48220825195312 C 82.96237182617188 99.74624633789062 83.76324462890625 101.91046142578125 84.5843505859375 104.03575134277344 C 85.40542602539062 106.16104125976562 86.25778198242188 108.23175048828125 87.84036254882812 109.79446411132812 L 89.37265014648438 109.51773071289062" stroke-width="0.6000000238418579" fill="rgb(218, 166, 20)" opacity="1.0"/>
    <path d="M 128.4700927734375 138.35659790039062 C 135.06817626953125 137.85073852539062 140.0069122314453 132.0918426513672 139.5010528564453 125.49375915527344 C 139.45773315429688 124.92877197265625 139.3743896484375 124.3675537109375 139.25164794921875 123.81434631347656 C 138.78488159179688 121.71237182617188 137.67041015625 119.66647338867188 135.84515380859375 118.52626037597656 C 134.30276489257812 117.56256103515625 132.42037963867188 117.32904052734375 130.6031036376953 117.3016357421875 C 125.73858642578125 117.23497009277344 120.9449462890625 118.4720458984375 116.72012329101562 120.88430786132812 C 115.60446166992188 121.52383422851562 114.50526428222656 122.27101135253906 113.78688049316406 123.34092712402344 C 112.57980346679688 125.13638305664062 112.67109680175781 127.55137634277344 113.41983032226562 129.58282470703125 C 114.52932739257812 132.5995635986328 116.95590209960938 135.0379638671875 119.82894897460938 136.4808807373047 C 122.70196533203125 137.92379760742188 125.98796081542969 138.427490234375 129.19805908203125 138.25502014160156 L 128.4700927734375 138.35659790039062" stroke-width="0.6000000238418579" fill="rgb(143, 165, 67)" opacity="1.0"/>
    <path d="M 395.3824157714844 309.2398986816406 C 398.1955871582031 316.9408264160156 410.54217529296875 318.1995849609375 415.32177734375 311.6033020019531 C 420.101318359375 305.00701904296875 415.59246826171875 294.09765625 407.6151123046875 292.19482421875 C 399.63775634765625 290.2919921875 390.9865417480469 297.170166015625 390.44317626953125 305.3609313964844 L 395.3824157714844 309.2398986816406" stroke-width="0.6000000238418579" fill="rgb(233, 92, 21)" opacity="1.0"/>
    <path d="M 125.89630126953125 112.74508666992188 C 130.06065368652344 111.87193298339844 134.9445037841797 110.39703369140625 136.1728057861328 106.30813598632812 C 136.59828186035156 104.66189575195312 136.50245666503906 102.9241943359375 135.8984832763672 101.33474731445312 C 134.50994873046875 97.36181640625 131.2819061279297 94.30838012695312 127.23797607421875 93.14266967773438 C 123.80508422851562 92.16262817382812 120.17333984375 92.69683837890625 116.67584228515625 93.29454040527344 C 114.71170043945312 93.63348388671875 112.63568115234375 94.05612182617188 111.19395446777344 95.41654968261719 C 109.28713989257812 97.24562072753906 109.07014465332031 100.20419311523438 109.275634765625 102.83761596679688 C 109.57156372070312 106.6920166015625 110.48941040039062 110.47311401367188 111.99356079101562 114.03424072265625 C 112.51564025878906 115.263671875 113.14443969726562 116.5152587890625 114.21516418457031 117.31295776367188 C 115.24868774414062 118.00373840332031 116.46087646484375 118.37887573242188 117.70391845703125 118.39260864257812 C 121.472900390625 118.58099365234375 125.13482666015625 117.10652160644531 127.72164916992188 114.35894775390625 L 125.89630126953125 112.74508666992188" stroke-width="0.6000000238418579" fill="rgb(70, 150, 179)" opacity="1.0"/>
    <path d="M 422.45037841796875 64.70510864257812 C 423.81463623046875 67.41635131835938 425.440673828125 70.3642578125 428.303466796875 71.36631774902344 C 431.3795166015625 72.44091796875 434.8504638671875 70.77020263671875 436.9671630859375 68.29316711425781 C 437.78369140625 67.33847045898438 438.47802734375 66.21611022949219 438.6141357421875 64.96737670898438 C 438.726318359375 63.94090270996094 438.4552001953125 62.91400146484375 438.1324462890625 61.93339538574219 C 437.118408203125 58.839813232421875 435.398681640625 55.73231506347656 432.481689453125 54.28822326660156 C 429.5408935546875 52.83482360839844 425.6837158203125 53.50410461425781 423.41607666015625 55.8785400390625 C 421.14849853515625 58.25297546386719 420.62109375 62.12713623046875 422.1959228515625 65.01052856445312 L 422.45037841796875 64.70510864257812" stroke-width="0.6000000238418579" fill="rgb(140, 28, 33)" opacity="1.0"/>
    <path d="M 118.45173645019531 423.764404296875 C 120.63792419433594 420.50238037109375 122.87681579589844 417.083984375 123.49830627441406 413.2037353515625 C 124.11976623535156 409.3235778808594 122.63165283203125 404.801025390625 119.07501220703125 403.131591796875 C 114.68011474609375 401.08062744140625 109.174560546875 404.53680419921875 107.71275329589844 409.1703796386719 C 106.25094604492188 413.803955078125 107.87535095214844 418.8919677734375 110.39675903320312 423.03814697265625 C 111.04869079589844 424.3997802734375 112.18733215332031 425.46759033203125 113.58802795410156 426.03076171875 C 115.0169677734375 426.435791015625 116.89602661132812 425.365478515625 116.700927734375 423.8856201171875 L 118.45173645019531 423.764404296875" stroke-width="0.6000000238418579" fill="rgb(159, 159, 159)" opacity="1.0"/>
    <path d="M 473.0928955078125 444.7574462890625 C 474.250732421875 441.52740478515625 474.32720947265625 437.8302001953125 472.8470458984375 434.73651123046875 C 471.366943359375 431.64276123046875 468.20751953125 429.2906494140625 464.764404296875 429.2122802734375 C 462.3299560546875 429.15997314453125 459.9522705078125 430.220703125 458.11322021484375 431.81982421875 C 456.274169921875 433.41900634765625 454.9306640625 435.5206298828125 453.903564453125 437.731201171875 C 453.4571533203125 438.6934814453125 453.0584716796875 439.735107421875 453.1962890625 440.78411865234375 C 453.3536376953125 441.98687744140625 454.184814453125 442.97747802734375 455.02569580078125 443.8568115234375 C 457.399658203125 446.33941650390625 460.2445068359375 448.552734375 463.59991455078125 449.28997802734375 C 466.955322265625 450.0272216796875 470.878662109375 448.95233154296875 472.71917724609375 446.0616455078125 L 473.0928955078125 444.7574462890625" stroke-width="0.6000000238418579" fill="rgb(159, 159, 159)" opacity="1.0"/>
    <path d="M 452.0086669921875 293.88153076171875 C 452.3638916015625 289.4538879394531 452.56689453125 284.5169372558594 449.7266845703125 281.113037109375 C 446.96923828125 277.798828125 442.26165771484375 277.03057861328125 437.9736328125 276.5646057128906 C 436.2314453125 276.37786865234375 434.40582275390625 276.2103271484375 432.78338623046875 276.8695068359375 C 430.0386962890625 277.9828186035156 428.69342041015625 281.0788269042969 428.0772705078125 283.9714660644531 C 427.50433349609375 286.6560974121094 427.31982421875 289.40911865234375 427.52947998046875 292.1462097167969 C 427.8682861328125 296.5906066894531 429.692138671875 301.45166015625 433.79766845703125 303.1831359863281 C 436.0126953125 304.12115478515625 438.5794677734375 303.97320556640625 440.876708984375 303.24737548828125 C 443.1739501953125 302.52154541015625 445.25665283203125 301.2500915527344 447.2947998046875 299.9656066894531 C 449.3330078125 298.6811218261719 451.30816650390625 297.37530517578125 452.60760498046875 295.4151611328125 L 452.0086669921875 293.88153076171875" stroke-width="0.6000000238418579" fill="rgb(218, 166, 20)" opacity="1.0"/>
    <path d="M 425.83306884765625 368.0889587402344 C 423.5989990234375 371.37347412109375 424.45050048828125 375.84716796875 427.7349853515625 378.0812683105469 C 428.0162353515625 378.2725830078125 428.31072998046875 378.4436950683594 428.6162109375 378.59332275390625 C 429.7769775390625 379.16168212890625 431.1541748046875 379.40521240234375 432.3726806640625 378.9761047363281 C 433.4024658203125 378.6135559082031 434.217041015625 377.81805419921875 434.91058349609375 376.9758605957031 C 436.763916015625 374.718994140625 437.9791259765625 372.00701904296875 438.4300537109375 369.1217041015625 C 438.5479736328125 368.3588562011719 438.609130859375 367.5633544921875 438.3763427734375 366.8256530761719 C 437.98626708984375 365.5869140625 436.8192138671875 364.7251892089844 435.5859375 364.31549072265625 C 433.7552490234375 363.70599365234375 431.7025146484375 363.930908203125 429.9495849609375 364.7381286621094 C 428.19659423828125 365.54534912109375 426.7294921875 366.8980712890625 425.6080322265625 368.4684753417969 L 425.83306884765625 368.0889587402344" stroke-width="0.6000000238418579" fill="rgb(143, 165, 67)" opacity="1.0"/>
    <path d="M 453.32373046875 348.0938720703125 C 459.14508056640625 344.46356201171875 458.048828125 334.136474609375 451.8238525390625 331.3590087890625 C 445.5989990234375 328.5815734863281 437.44244384765625 334.1532287597656 437.25860595703125 341.013427734375 C 437.07476806640625 347.8736267089844 444.197509765625 353.7728576660156 450.998291015625 352.80670166015625 L 453.32373046875 348.0938720703125" stroke-width="0.6000000238418579" fill="rgb(233, 92, 21)" opacity="1.0"/>
    <path d="M 451.173583984375 69.72305297851562 C 454.6251220703125 69.04635620117188 458.67779541015625 67.88006591796875 459.73724365234375 64.513671875 C 460.106689453125 63.15757751464844 460.0462646484375 61.720245361328125 459.56427001953125 60.39996337890625 C 458.45953369140625 57.10113525390625 455.8243408203125 54.54240417480469 452.4945068359375 53.53517150878906 C 449.6676025390625 52.68800354003906 446.6600341796875 53.090301513671875 443.7626953125 53.54652404785156 C 442.1356201171875 53.80543518066406 440.4150390625 54.13233947753906 439.208740234375 55.2412109375 C 437.61285400390625 56.732421875 437.4014892578125 59.17547607421875 437.54290771484375 61.3543701171875 C 437.745849609375 64.54342651367188 438.463623046875 67.67860412597656 439.6683349609375 70.6383056640625 C 440.08660888671875 71.66012573242188 440.5927734375 72.70144653320312 441.46917724609375 73.37236022949219 C 442.31597900390625 73.95449829101562 443.3138427734375 74.27764892578125 444.3411865234375 74.30245971679688 C 447.454345703125 74.4989013671875 450.4970703125 73.31976318359375 452.6649169921875 71.07672119140625 L 451.173583984375 69.72305297851562" stroke-width="0.6000000238418579" fill="rgb(70, 150, 179)" opacity="1.0"/>
    <path d="M 455.31903076171875 400.6470947265625 C 455.30413818359375 397.355712890625 455.14947509765625 393.7080993652344 452.8538818359375 391.35223388671875 C 450.386474609375 388.8230285644531 446.20947265625 388.7684631347656 442.957763671875 390.15093994140625 C 441.70379638671875 390.68341064453125 440.48748779296875 391.437744140625 439.752197265625 392.58441162109375 C 439.14739990234375 393.52685546875 438.91455078125 394.6548156738281 438.75421142578125 395.7628173828125 C 438.244384765625 399.2562561035156 438.41302490234375 403.1040954589844 440.54754638671875 405.9152526855469 C 442.7008056640625 408.7469787597656 446.76904296875 409.96038818359375 450.11767578125 408.7503967285156 C 453.46630859375 407.5404357910156 455.849853515625 404.03375244140625 455.713623046875 400.47344970703125 L 455.31903076171875 400.6470947265625" stroke-width="0.6000000238418579" fill="rgb(140, 28, 33)" opacity="1.0"/>
    <path d="M 123.9010009765625 210.0159912109375 C 118.48193359375 212.982666015625 112.87579345703125 216.12939453125 109.192138671875 221.09463500976562 C 105.50859069824219 226.059814453125 104.30349731445312 233.45272827148438 108.05647277832031 238.36431884765625 C 112.70265197753906 244.41683959960938 122.89607238769531 243.58819580078125 128.2994384765625 238.1812744140625 C 133.7028045654297 232.7742919921875 135.1280517578125 224.4931640625 134.61761474609375 216.875732421875 C 134.69586181640625 214.50186157226562 133.8814239501953 212.18499755859375 132.3349609375 210.38232421875 C 130.63430786132812 208.7799072265625 127.23455810546875 208.91021728515625 126.43292236328125 211.11740112304688 L 123.9010009765625 210.0159912109375" stroke-width="0.6000000238418579" fill="rgb(159, 159, 159)" opacity="1.0"/>
    <path d="M 108.22698974609375 239.62237548828125 C 102.68218994140625 237.98800659179688 96.45664978027344 238.2177734375 91.39686584472656 241.0069580078125 C 86.33708190917969 243.79617309570312 82.68739318847656 249.33782958984375 82.88926696777344 255.13638305664062 C 83.03718566894531 259.2358093261719 85.05165100097656 263.1319580078125 87.91943359375 266.0700378417969 C 90.78724670410156 269.0081787109375 94.4521484375 271.0639953613281 98.26956176757812 272.5772399902344 C 99.93121337890625 273.23480224609375 101.72175598144531 273.80426025390625 103.47271728515625 273.4709167480469 C 105.48031616210938 273.08966064453125 107.06582641601562 271.595703125 108.46328735351562 270.09625244140625 C 112.4085693359375 265.8629150390625 115.85537719726562 260.86370849609375 116.77011108398438 255.14898681640625 C 117.68484497070312 249.43423461914062 115.49674987792969 242.93972778320312 110.45657348632812 240.12445068359375 L 108.22698974609375 239.62237548828125" stroke-width="0.6000000238418579" fill="rgb(159, 159, 159)" opacity="1.0"/>
    <path d="M 294.88641357421875 95.94622802734375 C 292.6839904785156 100.6600341796875 290.4400939941406 105.99505615234375 292.1636657714844 110.8934326171875 C 293.8330993652344 115.65951538085938 298.68505859375 118.42985534667969 303.20025634765625 120.69664001464844 C 305.03582763671875 121.61479187011719 306.9707946777344 122.54605102539062 309.0212097167969 122.48678588867188 C 312.4891662597656 122.38859558105469 315.2330322265625 119.54156494140625 317.0934143066406 116.61921691894531 C 318.82122802734375 113.90744018554688 320.15069580078125 110.96162414550781 321.0411376953125 107.8719482421875 C 322.48876953125 102.85566711425781 322.47711181640625 96.77415466308594 318.6802978515625 93.19319152832031 C 316.63336181640625 91.2569580078125 313.7558288574219 90.36856079101562 310.9375305175781 90.22470092773438 C 308.1192626953125 90.08084106445312 305.3130798339844 90.62359619140625 302.5504150390625 91.19891357421875 C 299.7877502441406 91.77420043945312 297.08544921875 92.39869689941406 294.8569030761719 94.0179443359375 L 294.88641357421875 95.94622802734375" stroke-width="0.6000000238418579" fill="rgb(218, 166, 20)" opacity="1.0"/>
    <path d="M 228.41741943359375 120.81198120117188 C 221.25393676757812 114.55313110351562 210.37298583984375 115.2864990234375 204.11416625976562 122.449951171875 C 203.57821655273438 123.0633544921875 203.08648681640625 123.71401977539062 202.64260864257812 124.39703369140625 C 200.95648193359375 126.99261474609375 199.98013305664062 130.19615173339844 200.64862060546875 133.2167205810547 C 201.21331787109375 135.76937866210938 202.86941528320312 137.9354705810547 204.67138671875 139.8272247314453 C 209.50177001953125 144.8843231201172 215.59817504882812 148.55581665039062 222.32720947265625 150.4603271484375 C 224.10675048828125 150.96075439453125 225.98016357421875 151.33584594726562 227.80108642578125 150.9953155517578 C 230.85845947265625 150.4254150390625 233.2437744140625 147.89976501464844 234.5736083984375 145.08596801757812 C 236.55084228515625 140.90988159179688 236.60845947265625 135.96511840820312 235.1953125 131.56491088867188 C 233.78216552734375 127.16470336914062 230.98974609375 123.28672790527344 227.58010864257812 120.16752624511719 L 228.41741943359375 120.81198120117188" stroke-width="0.6000000238418579" fill="rgb(143, 165, 67)" opacity="1.0"/>
    <path d="M 215.22634887695312 90.88606262207031 C 215.37771606445312 101.97451782226562 230.5782470703125 109.09712219238281 239.6270751953125 102.81085205078125 C 248.6759033203125 96.5245361328125 247.79287719726562 80.58236694335938 238.458251953125 74.58932495117188 C 229.1236572265625 68.5963134765625 215.00604248046875 73.512939453125 210.65328979492188 83.727294921875 L 215.22634887695312 90.88606262207031" stroke-width="0.6000000238418579" fill="rgb(233, 92, 21)" opacity="1.0"/>
    <path d="M 201.49981689453125 96.66934204101562 C 199.2606201171875 91.6090087890625 196.06100463867188 85.79653930664062 190.52713012695312 85.34228515625 C 188.31784057617188 85.24722290039062 186.13348388671875 85.84004211425781 184.275390625 87.03903198242188 C 179.59823608398438 89.88192749023438 176.589111328125 94.81546020507812 176.20233154296875 100.275146484375 C 175.88604736328125 104.90731811523438 177.5498046875 109.38206481933594 179.25790405273438 113.66883850097656 C 180.2213134765625 116.07533264160156 181.321533203125 118.6014404296875 183.44268798828125 120.06660461425781 C 186.2860107421875 121.996337890625 190.10806274414062 121.47056579589844 193.40203857421875 120.49551391601562 C 198.22454833984375 119.07452392578125 202.7852783203125 116.88233947753906 206.9073486328125 114.00399780273438 C 208.32965087890625 113.00674438476562 209.75128173828125 111.86772155761719 210.47573852539062 110.28959655761719 C 211.07431030273438 108.78778076171875 211.22296142578125 107.14422607421875 210.903564453125 105.55938720703125 C 210.12176513671875 100.7142333984375 207.25384521484375 96.45596313476562 203.05792236328125 93.91017150878906 L 201.49981689453125 96.66934204101562" stroke-width="0.6000000238418579" fill="rgb(70, 150, 179)" opacity="1.0"/>
    <path d="M 260.87469482421875 131.0152587890625 C 256.37176513671875 133.9966278076172 251.50582885742188 137.4903106689453 250.33831787109375 142.75950622558594 C 249.0875244140625 148.42054748535156 252.77035522460938 154.20114135742188 257.59259033203125 157.41934204101562 C 259.4512939453125 158.66094970703125 261.5805358886719 159.6513671875 263.8154602050781 159.62869262695312 C 265.6526794433594 159.61074829101562 267.4099426269531 158.91552734375 269.0744934082031 158.1387939453125 C 274.3266906738281 155.69558715820312 279.4548645019531 152.00270080566406 281.3919982910156 146.54486083984375 C 283.34051513671875 141.04283142089844 281.3456726074219 134.36891174316406 276.6729431152344 130.86256408691406 C 272.00018310546875 127.35623168945312 265.0442199707031 127.24029541015625 260.281494140625 130.6300506591797 L 260.87469482421875 131.0152587890625" stroke-width="0.6000000238418579" fill="rgb(140, 28, 33)" opacity="1.0"/>
    <path d="M 299.7372741699219 122.80831909179688 C 294.3489074707031 125.57481384277344 288.77252197265625 128.5128936767578 285.0329895019531 133.28329467773438 C 281.29351806640625 138.05364990234375 279.9199523925781 145.26791381835938 283.47027587890625 150.1793975830078 C 287.8663330078125 156.2322998046875 297.8782653808594 155.68557739257812 303.31475830078125 150.5270233154297 C 308.75128173828125 145.36846923828125 310.3637390136719 137.28941345214844 310.0617980957031 129.8104248046875 C 310.2002868652344 127.48588562011719 309.46240234375 125.1939697265625 307.9936828613281 123.38693237304688 C 306.3686218261719 121.77214050292969 303.033203125 121.81134033203125 302.1900939941406 123.95370483398438 L 299.7372741699219 122.80831909179688" stroke-width="0.6000000238418579" fill="rgb(159, 159, 159)" opacity="1.0"/>
    <path d="M 196.2591552734375 133.71463012695312 C 192.77969360351562 129.0555877685547 187.62814331054688 125.48719787597656 181.8721923828125 124.68257141113281 C 176.11627197265625 123.87796020507812 169.83633422851562 126.13987731933594 166.5029296875 130.93075561523438 C 164.15045166015625 134.32093811035156 163.42355346679688 138.67276000976562 163.96139526367188 142.76763916015625 C 164.49923706054688 146.86251831054688 166.21087646484375 150.72752380371094 168.3724365234375 154.24758911132812 C 169.31399536132812 155.7788848876953 170.4124755859375 157.31698608398438 172.02337646484375 158.10421752929688 C 173.86981201171875 159.00762939453125 176.0472412109375 158.76052856445312 178.07656860351562 158.39566040039062 C 183.80572509765625 157.365478515625 189.59527587890625 155.41806030273438 193.77728271484375 151.3678741455078 C 197.95932006835938 147.31765747070312 200.11297607421875 140.76885986328125 197.75177001953125 135.46316528320312 L 196.2591552734375 133.71463012695312" stroke-width="0.6000000238418579" fill="rgb(159, 159, 159)" opacity="1.0"/>
    <path d="M 275.93988037109375 97.8499755859375 C 270.6404724121094 98.47540283203125 264.77703857421875 99.40017700195312 261.43695068359375 103.54837036132812 C 258.18304443359375 107.57792663574219 258.3879089355469 113.30447387695312 258.8499755859375 118.46548461914062 C 259.040771484375 120.56179809570312 259.2737731933594 122.75180053710938 260.43280029296875 124.507568359375 C 262.3913269042969 127.47824096679688 266.3554992675781 128.33303833007812 269.908203125 128.3768768310547 C 273.2057189941406 128.41885375976562 276.4921569824219 127.98709106445312 279.6669616699219 127.0948486328125 C 284.82244873046875 125.64796447753906 290.11865234375 122.35342407226562 291.19036865234375 117.10903930664062 C 291.7731018066406 114.27864074707031 290.99365234375 111.2899169921875 289.5970458984375 108.75497436523438 C 288.200439453125 106.22003173828125 286.21173095703125 104.06643676757812 284.21807861328125 101.96836853027344 C 282.2244873046875 99.87030029296875 280.2206115722656 97.8514404296875 277.605224609375 96.78285217285156 L 275.93988037109375 97.8499755859375" stroke-width="0.6000000238418579" fill="rgb(218, 166, 20)" opacity="1.0"/>
    <path d="M 230.8453369140625 117.44961547851562 C 229.431396484375 126.08990478515625 235.28955078125 134.24046325683594 243.9298095703125 135.65438842773438 C 244.669677734375 135.7754669189453 245.41720581054688 135.84390258789062 246.16677856445312 135.85919189453125 C 249.01495361328125 135.916748046875 251.99368286132812 135.12413024902344 254.03048706054688 133.13441467285156 C 255.75189208984375 131.45314025878906 256.6409912109375 129.10635375976562 257.2447814941406 126.77874755859375 C 258.8523254394531 120.546142578125 258.7617492675781 113.99674987792969 256.9824523925781 107.81094360351562 C 256.5093688964844 106.17666625976562 255.89273071289062 104.52984619140625 254.7420654296875 103.27163696289062 C 252.81158447265625 101.15817260742188 249.67849731445312 100.52001953125 246.832763671875 100.84698486328125 C 242.6075439453125 101.3294677734375 238.7137451171875 103.68606567382812 235.96002197265625 106.92800903320312 C 233.206298828125 110.16995239257812 231.53073120117188 114.23658752441406 230.7481689453125 118.41722106933594 L 230.8453369140625 117.44961547851562" stroke-width="0.6000000238418579" fill="rgb(143, 165, 67)" opacity="1.0"/>
    <path d="M 253.48507690429688 85.76669311523438 C 253.3701171875 95.66171264648438 266.7693176269531 102.35824584960938 274.9831848144531 96.95451354980469 C 283.197021484375 91.55075073242188 282.7687683105469 77.30941772460938 274.57684326171875 71.7528076171875 C 266.3849182128906 66.1961669921875 253.68023681640625 70.26380920410156 249.5670166015625 79.27752685546875 L 253.48507690429688 85.76669311523438" stroke-width="0.6000000238418579" fill="rgb(233, 92, 21)" opacity="1.0"/>
    <path d="M 337.5885009765625 72.85247802734375 C 334.88330078125 68.18449401855469 331.167724609375 62.8890380859375 325.7560729980469 63.033721923828125 C 323.6047058105469 63.17510986328125 321.5502014160156 63.98057556152344 319.87603759765625 65.33908081054688 C 315.64324951171875 68.58889770507812 313.2481994628906 73.688720703125 313.45037841796875 79.0213623046875 C 313.63348388671875 83.54444885253906 315.71905517578125 87.70565795898438 317.8277282714844 91.68002319335938 C 319.015869140625 93.91064453125 320.3492431640625 96.24275207519531 322.55999755859375 97.43862915039062 C 325.51983642578125 99.00845336914062 329.1687316894531 98.0948486328125 332.25830078125 96.80160522460938 C 336.78228759765625 94.91458129882812 340.9709777832031 92.30776977539062 344.6619873046875 89.08226013183594 C 345.93511962890625 87.96533203125 347.1925964355469 86.71109008789062 347.7279968261719 85.10494995117188 C 348.1493835449219 83.5860595703125 348.1197509765625 81.97735595703125 347.64263916015625 80.47502136230469 C 346.37274169921875 75.861572265625 343.1429748535156 72.03744506835938 338.8070373535156 70.01348876953125 L 337.5885009765625 72.85247802734375" stroke-width="0.6000000238418579" fill="rgb(70, 150, 179)" opacity="1.0"/>
    <path d="M 334.34228515625 138.24038696289062 C 334.0322570800781 133.17832946777344 333.4761047363281 127.58047485351562 329.73919677734375 124.15655517578125 C 325.7227478027344 120.48092651367188 319.2922058105469 120.76139831542969 314.4104919433594 123.17178344726562 C 312.52789306640625 124.100341796875 310.7225646972656 125.36685180664062 309.69146728515625 127.19502258300781 C 308.8432922363281 128.69757080078125 308.5834655761719 130.453125 308.4334716796875 132.17160034179688 C 307.9539489746094 137.59027099609375 308.5489807128906 143.49493408203125 312.077880859375 147.63331604003906 C 315.6373596191406 151.8017120361328 322.001708984375 153.31350708007812 327.0475769042969 151.1599884033203 C 332.0934143066406 149.0064697265625 335.4542541503906 143.4039764404297 334.9341125488281 137.93885803222656 L 334.34228515625 138.24038696289062" stroke-width="0.6000000238418579" fill="rgb(140, 28, 33)" opacity="1.0"/>
    <path d="M 347.1871643066406 101.76698303222656 C 341.7081604003906 100.85893249511719 335.9969177246094 99.97445678710938 330.6366271972656 101.44287109375 C 325.2764587402344 102.91128540039062 320.3224792480469 107.47200012207031 320.25213623046875 113.02828979492188 C 320.1806335449219 119.88716125488281 327.8505554199219 124.95632934570312 334.6723327636719 124.12956237792969 C 341.49407958984375 123.30279541015625 347.0965576171875 118.2359619140625 350.961669921875 112.56468200683594 C 352.33404541015625 110.92897033691406 353.0433349609375 108.83831787109375 352.9495849609375 106.70523071289062 C 352.63568115234375 104.62825012207031 350.1585998535156 102.83425903320312 348.3670349121094 103.95074462890625 L 347.1871643066406 101.76698303222656" stroke-width="0.6000000238418579" fill="rgb(159, 159, 159)" opacity="1.0"/>
    <path d="M 346.51763916015625 119.53134155273438 C 341.8000183105469 121.86427307128906 337.7789306640625 125.86434936523438 336.11871337890625 130.85568237304688 C 334.45849609375 135.8470001220703 335.44183349609375 141.8076934814453 339.159423828125 145.5604705810547 C 341.7911682128906 148.2104034423828 345.54547119140625 149.57113647460938 349.2784729003906 149.76400756835938 C 353.0115051269531 149.95687866210938 356.732421875 149.0672607421875 360.2201232910156 147.72061157226562 C 361.7375183105469 147.13368225097656 363.2867126464844 146.408203125 364.25164794921875 145.1034698486328 C 365.35858154296875 143.60813903808594 365.4957580566406 141.6295166015625 365.5038146972656 139.76339721679688 C 365.5265197753906 134.49496459960938 364.74267578125 129.02236938476562 361.82354736328125 124.6357421875 C 358.9043884277344 120.24909973144531 353.4285888671875 117.25808715820312 348.31878662109375 118.48956298828125 L 346.51763916015625 119.53134155273438" stroke-width="0.6000000238418579" fill="rgb(159, 159, 159)" opacity="1.0"/>
    <path d="M 365.62469482421875 94.74298095703125 C 361.0643005371094 95.83999633789062 356.042724609375 97.25692749023438 353.558837890625 101.22491455078125 C 351.1377868652344 105.08041381835938 351.9121398925781 110.057373046875 352.8521728515625 114.51396179199219 C 353.2366943359375 116.32382202148438 353.6678466796875 118.21109008789062 354.862060546875 119.62301635742188 C 356.88043212890625 122.01220703125 360.4293518066406 122.34603881835938 363.5348205566406 122.01483154296875 C 366.4173278808594 121.70852661132812 369.24090576171875 120.98989868164062 371.91912841796875 119.8809814453125 C 376.26849365234375 118.08195495605469 380.54852294921875 114.65560913085938 380.93853759765625 109.96673583984375 C 381.1528015136719 107.43569946289062 380.16168212890625 104.90814208984375 378.6790771484375 102.8408203125 C 377.1964416503906 100.77349853515625 375.2366943359375 99.10061645507812 373.2784118652344 97.47669982910156 C 371.32012939453125 95.852783203125 369.36114501953125 94.299072265625 366.96728515625 93.63836669921875 L 365.62469482421875 94.74298095703125" stroke-width="0.6000000238418579" fill="rgb(218, 166, 20)" opacity="1.0"/>
    <path d="M 428.533935546875 138.3266143798828 C 420.234130859375 139.07931518554688 414.115966796875 146.41783142089844 414.86865234375 154.7176513671875 C 414.93310546875 155.42835998535156 415.0478515625 156.13360595703125 415.212158203125 156.82809448242188 C 415.8367919921875 159.46682739257812 417.27606201171875 162.02362060546875 419.59454345703125 163.42742919921875 C 421.5537109375 164.61392211914062 423.92822265625 164.87496948242188 426.21710205078125 164.87762451171875 C 432.34393310546875 164.87628173828125 438.358642578125 163.23443603515625 443.636474609375 160.1226806640625 C 445.0301513671875 159.29779052734375 446.4012451171875 158.337646484375 447.287109375 156.97772216796875 C 448.775634765625 154.6956329345703 448.61834716796875 151.6561279296875 447.639892578125 149.11114501953125 C 446.1898193359375 145.33175659179688 443.0914306640625 142.30372619628906 439.4482421875 140.537109375 C 435.8050537109375 138.77047729492188 431.6583251953125 138.19381713867188 427.6190185546875 138.46728515625 L 428.533935546875 138.3266143798828" stroke-width="0.6000000238418579" fill="rgb(143, 165, 67)" opacity="1.0"/>
    <path d="M 151.4475555419922 403.48797607421875 C 157.72662353515625 412.8282470703125 174.59637451171875 410.4505920410156 178.80032348632812 400.0887451171875 C 183.00421142578125 389.7268371582031 173.4111328125 376.66717529296875 162.15338134765625 376.751220703125 C 150.89566040039062 376.83526611328125 141.62400817871094 388.84454345703125 143.5901336669922 399.940185546875 L 151.4475555419922 403.48797607421875" stroke-width="0.6000000238418579" fill="rgb(233, 92, 21)" opacity="1.0"/>
    <path d="M 430.218994140625 195.83734130859375 C 425.7099609375 193.8201904296875 420.1146240234375 191.87832641601562 416.1737060546875 194.8843994140625 C 414.6519775390625 196.1417236328125 413.557861328125 197.84027099609375 413.04241943359375 199.74575805664062 C 411.6401062011719 204.42608642578125 412.59332275390625 209.4957275390625 415.59979248046875 213.34710693359375 C 418.158447265625 216.60760498046875 421.9359130859375 218.58038330078125 425.6304931640625 220.4019775390625 C 427.70751953125 221.42190551757812 429.94677734375 222.43939208984375 432.2288818359375 222.1431884765625 C 435.26751708984375 221.7235107421875 437.48760986328125 219.09063720703125 439.0889892578125 216.4754638671875 C 441.4375 212.651123046875 443.1514892578125 208.47186279296875 444.1644287109375 204.09979248046875 C 444.5115966796875 202.5885009765625 444.77349853515625 200.983642578125 444.3106689453125 199.50424194335938 C 443.81005859375 198.15069580078125 442.9263916015625 196.9720458984375 441.7674560546875 196.112060546875 C 438.3533935546875 193.36660766601562 433.90679931640625 192.25701904296875 429.6031494140625 193.07659912109375 L 430.218994140625 195.83734130859375" stroke-width="0.6000000238418579" fill="rgb(70, 150, 179)" opacity="1.0"/>
    <path d="M 414.4371337890625 160.841796875 C 413.459716796875 155.24085998535156 412.14111328125 149.07369995117188 407.5503234863281 145.7257080078125 C 402.61663818359375 142.13217163085938 395.4873962402344 143.24755859375 390.349609375 146.5425262451172 C 388.3681640625 147.8120880126953 386.51495361328125 149.44851684570312 385.594482421875 151.61404418945312 C 384.8371276855469 153.39395141601562 384.766845703125 155.3822479248047 384.8143310546875 157.3155517578125 C 384.9566650390625 163.412353515625 386.3568420410156 169.91650390625 390.8051452636719 174.08642578125 C 395.2912292480469 178.2860107421875 402.5705261230469 179.1756591796875 407.9232482910156 176.14639282226562 C 413.2760009765625 173.11712646484375 416.32073974609375 166.45574951171875 415.058837890625 160.43194580078125 L 414.4371337890625 160.841796875" stroke-width="0.6000000238418579" fill="rgb(140, 28, 33)" opacity="1.0"/>
    <path d="M 142.12936401367188 133.19874572753906 C 136.09054565429688 134.70928955078125 129.82347106933594 136.34768676757812 124.9669189453125 140.2488250732422 C 120.11044311523438 144.14993286132812 117.0511474609375 151.0494384765625 119.45755004882812 156.79400634765625 C 122.44383239746094 163.87844848632812 132.5917205810547 165.66912841796875 139.23728942871094 161.7757568359375 C 145.88287353515625 157.88238525390625 149.3831787109375 150.17318725585938 150.82740783691406 142.61749267578125 C 151.50880432128906 140.3233642578125 151.30548095703125 137.8572540283203 150.25750732421875 135.7057647705078 C 149.00816345214844 133.71017456054688 145.6608428955078 132.97056579589844 144.31675720214844 134.91781616210938 L 142.12936401367188 133.19874572753906" stroke-width="0.6000000238418579" fill="rgb(159, 159, 159)" opacity="1.0"/>
    <path d="M 435.4207763671875 167.26690673828125 C 430.9276123046875 164.70697021484375 425.45947265625 163.63070678710938 420.4818115234375 165.0220947265625 C 415.5040283203125 166.41351318359375 411.18988037109375 170.49078369140625 410.1768798828125 175.58135986328125 C 409.4652099609375 179.18133544921875 410.4205627441406 182.9869384765625 412.3154296875 186.13330078125 C 414.210205078125 189.2796630859375 416.98004150390625 191.8211669921875 419.993896484375 193.9215087890625 C 421.30596923828125 194.83474731445312 422.7484130859375 195.69769287109375 424.3414306640625 195.76641845703125 C 426.167724609375 195.84603881835938 427.8546142578125 194.87017822265625 429.37890625 193.85101318359375 C 433.6822509765625 190.9736328125 437.70849609375 187.32711791992188 439.6766357421875 182.5384521484375 C 441.644775390625 177.749755859375 441.0709228515625 171.64596557617188 437.25927734375 168.16119384765625 L 435.4207763671875 167.26690673828125" stroke-width="0.6000000238418579" fill="rgb(159, 159, 159)" opacity="1.0"/>
    <path d="M 414.4296875 194.12667846679688 C 412.84832763671875 189.003173828125 410.8686218261719 183.37664794921875 406.1620178222656 180.82977294921875 C 401.5882873535156 178.34646606445312 395.9661865234375 179.58984375 390.9497375488281 180.98455810546875 C 388.9127197265625 181.55416870117188 386.7907409667969 182.18255615234375 385.2662658691406 183.6470947265625 C 382.68646240234375 186.12258911132812 382.562255859375 190.19561767578125 383.1647033691406 193.714599609375 C 383.72259521484375 196.98104858398438 384.7466735839844 200.15045166015625 386.20550537109375 203.12579345703125 C 388.572509765625 207.957763671875 392.7910461425781 212.59295654296875 398.168701171875 212.6988525390625 C 401.0718078613281 212.76025390625 403.8837585449219 211.44671630859375 406.1351013183594 209.60574340820312 C 408.3864440917969 207.76473999023438 410.15325927734375 205.40789794921875 411.8643493652344 203.05633544921875 C 413.575439453125 200.70474243164062 415.206298828125 198.357421875 415.7869873046875 195.57852172851562 L 414.4296875 194.12667846679688" stroke-width="0.6000000238418579" fill="rgb(218, 166, 20)" opacity="1.0"/>
    <path d="M 436.96002197265625 186.72427368164062 C 437.60968017578125 195.6695556640625 445.387939453125 202.39453125 454.333251953125 201.744873046875 C 455.0992431640625 201.689208984375 455.86029052734375 201.57931518554688 456.6107177734375 201.41598510742188 C 459.462158203125 200.7947998046875 462.2410888671875 199.29550170898438 463.79638671875 196.827880859375 C 465.11083984375 194.74270629882812 465.4376220703125 192.1927490234375 465.48468017578125 189.72988891601562 C 465.6015625 183.13726806640625 463.9510498046875 176.63360595703125 460.70458984375 170.89447021484375 C 459.843994140625 169.37890625 458.8372802734375 167.88504028320312 457.39111328125 166.90557861328125 C 454.9642333984375 165.25982666015625 451.690673828125 165.37039184570312 448.933349609375 166.37408447265625 C 444.838623046875 167.86138916015625 441.52056884765625 171.13690185546875 439.54931640625 175.02294921875 C 437.5780029296875 178.90896606445312 436.87744140625 183.35980224609375 437.09375 187.71145629882812 L 436.96002197265625 186.72427368164062" stroke-width="0.6000000238418579" fill="rgb(143, 165, 67)" opacity="1.0"/>
    <path d="M 144.58236694335938 97.88021850585938 C 133.4368896484375 105.03765869140625 135.8175811767578 124.94638061523438 147.9060516357422 130.14907836914062 C 159.99453735351562 135.3517303466797 175.59841918945312 124.38674926757812 175.77777099609375 111.13816833496094 C 175.95712280273438 97.88958740234375 162.05548095703125 86.68319702148438 148.95111083984375 88.722412109375 L 144.58236694335938 97.88021850585938" stroke-width="0.6000000238418579" fill="rgb(233, 92, 21)" opacity="1.0"/>
    <path d="M 451.014404296875 145.57533264160156 C 447.817626953125 150.35340881347656 444.49462890625 156.3924560546875 447.171875 161.50198364257812 C 448.31640625 163.493896484375 450.0509033203125 165.08154296875 452.13604736328125 166.0458984375 C 457.23095703125 168.57080078125 463.233642578125 168.4696044921875 468.2406005859375 165.77438354492188 C 472.48199462890625 163.47723388671875 475.484619140625 159.52972412109375 478.297607421875 155.64776611328125 C 479.874267578125 153.4645538330078 481.4798583984375 151.0947723388672 481.5867919921875 148.41868591308594 C 481.7000732421875 144.8505096435547 479.1141357421875 141.78817749023438 476.42742919921875 139.4390869140625 C 472.49969482421875 135.99624633789062 468.04058837890625 133.21185302734375 463.22308349609375 131.1938934326172 C 461.5572509765625 130.49986267089844 459.767333984375 129.88523864746094 457.97955322265625 130.12655639648438 C 456.3287353515625 130.4359893798828 454.8035888671875 131.2190704345703 453.590087890625 132.3803253173828 C 449.7720947265625 135.7596435546875 447.6287841796875 140.64369201660156 447.7266845703125 145.741455078125 L 451.014404296875 145.57533264160156" stroke-width="0.6000000238418579" fill="rgb(70, 150, 179)" opacity="1.0"/>
    <path d="M 382.0605773925781 80.49966430664062 C 382.75 73.7816162109375 383.23211669921875 66.30625915527344 379.06414794921875 60.99806213378906 C 374.5834045410156 55.298553466796875 366.0737609863281 54.27381896972656 359.1375732421875 56.383087158203125 C 356.46295166015625 57.19520568847656 353.8165588378906 58.46807861328125 352.06573486328125 60.64666748046875 C 350.62579345703125 62.437042236328125 349.9040832519531 64.68731689453125 349.3346862792969 66.91267395019531 C 347.5306396484375 73.92819213867188 347.03314208984375 81.8150634765625 350.7730407714844 88.01692199707031 C 354.5466003417969 94.26483154296875 362.5809326171875 97.63003540039062 369.6771240234375 95.89382934570312 C 376.7732849121094 94.15763854980469 382.40283203125 87.52485656738281 382.90350341796875 80.23170471191406 L 382.0605773925781 80.49966430664062" stroke-width="0.6000000238418579" fill="rgb(140, 28, 33)" opacity="1.0"/>
    <path d="M 134.61810302734375 412.0338134765625 C 131.36668395996094 418.126708984375 128.05056762695312 424.5025634765625 127.64598083496094 431.40185546875 C 127.24143981933594 438.301025390625 130.6414794921875 445.95306396484375 137.1590118408203 448.2484130859375 C 145.2105255126953 451.06378173828125 154.23629760742188 444.046875 155.9787139892578 435.68133544921875 C 157.72113037109375 427.3157958984375 153.98309326171875 418.6983642578125 148.84117126464844 411.8868408203125 C 147.460693359375 409.61883544921875 145.2802734375 407.95074462890625 142.7301025390625 407.2118225097656 C 140.15834045410156 406.75457763671875 137.05859375 408.9582824707031 137.6604766845703 411.5133972167969 L 134.61810302734375 412.0338134765625" stroke-width="0.6000000238418579" fill="rgb(159, 159, 159)" opacity="1.0"/>
    <path d="M 421.62115478515625 217.705078125 C 416.67938232421875 213.7989501953125 410.2916259765625 211.5008544921875 404.042236328125 212.26434326171875 C 397.7928771972656 213.02777099609375 391.8504333496094 217.14727783203125 389.69769287109375 223.09194946289062 C 388.1810302734375 227.29681396484375 388.6341552734375 232.0548095703125 390.3394470214844 236.19097900390625 C 392.04473876953125 240.32720947265625 394.9145812988281 243.89532470703125 398.1590881347656 246.9769287109375 C 399.57183837890625 248.317138671875 401.1507263183594 249.62066650390625 403.0565185546875 249.99530029296875 C 405.24127197265625 250.42584228515625 407.4515075683594 249.559814453125 409.473876953125 248.61175537109375 C 415.1834716796875 245.93524169921875 420.70025634765625 242.28173828125 423.9478759765625 236.87564086914062 C 427.1954345703125 231.46954345703125 427.6229248046875 224.013916015625 423.6712646484375 219.11892700195312 L 421.62115478515625 217.705078125" stroke-width="0.6000000238418579" fill="rgb(159, 159, 159)" opacity="1.0"/>
    <path d="M 384.78375244140625 111.48881530761719 C 378.64556884765625 112.53460693359375 371.8680114746094 113.96295166015625 368.2237854003906 118.99673461914062 C 364.6728515625 123.88711547851562 365.25408935546875 130.54823303222656 366.1011962890625 136.53489685058594 C 366.44891357421875 138.9663848876953 366.8514404296875 141.5045623779297 368.30706787109375 143.4812774658203 C 370.76708984375 146.82598876953125 375.43780517578125 147.5850372314453 379.5805358886719 147.42364501953125 C 383.4257507324219 147.2753448486328 387.229736328125 146.57565307617188 390.8760681152344 145.3460235595703 C 396.79742431640625 143.35159301757812 402.772216796875 139.1956024169922 403.7074890136719 133.02003479003906 C 404.21728515625 129.6868133544922 403.1302490234375 126.25057983398438 401.35113525390625 123.38003540039062 C 399.5719909667969 120.50949096679688 397.12567138671875 118.1187744140625 394.67694091796875 115.79304504394531 C 392.2282409667969 113.46731567382812 389.7723083496094 111.23451232910156 386.6606140136719 110.14566040039062 L 384.78375244140625 111.48881530761719" stroke-width="0.6000000238418579" fill="rgb(218, 166, 20)" opacity="1.0"/>
    <path d="M 404.4641418457031 83.271240234375 C 396.3638000488281 77.3446044921875 384.9926452636719 79.10673522949219 379.0660095214844 87.20709228515625 C 378.5585021972656 87.90072631835938 378.1008605957031 88.62948608398438 377.69647216796875 89.38789367675781 C 376.1604919433594 92.26992797851562 375.4259948730469 95.72640991210938 376.4039001464844 98.84072875976562 C 377.23004150390625 101.47261047363281 379.1682434082031 103.59872436523438 381.23480224609375 105.42315673828125 C 386.7731628417969 110.29910278320312 393.51611328125 113.60317993164062 400.76312255859375 114.99215698242188 C 402.6793518066406 115.3560791015625 404.6828308105469 115.5797119140625 406.5659484863281 115.05587768554688 C 409.7279052734375 114.17828369140625 412.0052490234375 111.3060302734375 413.1468505859375 108.22705078125 C 414.8448486328125 103.65704345703125 414.4549560546875 98.45391845703125 412.568603515625 93.95718383789062 C 410.6822814941406 89.46046447753906 407.39361572265625 85.63835144042969 403.5252685546875 82.67008972167969 L 404.4641418457031 83.271240234375" stroke-width="0.6000000238418579" fill="rgb(143, 165, 67)" opacity="1.0"/>
    <path d="M 123.22509765625 427.1134033203125 C 115.97700500488281 417.3468017578125 97.88616943359375 420.76226806640625 93.86955261230469 432.1591796875 C 89.85298156738281 443.55615234375 100.86564636230469 457.1710205078125 113.01383972167969 456.51373291015625 C 125.16204833984375 455.85650634765625 134.5662384033203 442.42626953125 131.885498046875 430.5477294921875 L 123.22509765625 427.1134033203125" stroke-width="0.6000000238418579" fill="rgb(233, 92, 21)" opacity="1.0"/>
    <path d="M 448.090087890625 210.07284545898438 C 442.47900390625 212.12509155273438 435.98919677734375 215.15850830078125 435.10595703125 221.08810424804688 C 434.8463134765625 223.46148681640625 435.3294677734375 225.85699462890625 436.489013671875 227.94415283203125 C 439.2188720703125 233.1854248046875 444.31982421875 236.77838134765625 450.17431640625 237.58370971679688 C 455.14227294921875 238.25411987304688 460.08154296875 236.7801513671875 464.82147216796875 235.24502563476562 C 467.482666015625 234.37835693359375 470.282470703125 233.37283325195312 472.011962890625 231.19189453125 C 474.2933349609375 228.2659912109375 473.9989013671875 224.11090087890625 473.182861328125 220.49273681640625 C 471.99517822265625 215.196044921875 469.9580078125 210.12652587890625 467.150390625 205.48080444335938 C 466.17724609375 203.87750244140625 465.05133056640625 202.26483154296875 463.4027099609375 201.37200927734375 C 461.8272705078125 200.62026977539062 460.06719970703125 200.3431396484375 458.3370361328125 200.574462890625 C 453.0615234375 201.0718994140625 448.26971435546875 203.85858154296875 445.2283935546875 208.19781494140625 L 448.090087890625 210.07284545898438" stroke-width="0.6000000238418579" fill="rgb(70, 150, 179)" opacity="1.0"/>
    <path d="M 429.0098876953125 133.19570922851562 C 431.11376953125 127.38311767578125 433.20172119140625 120.85198974609375 430.67919921875 115.21281433105469 C 427.9656982421875 109.15670776367188 420.63665771484375 106.35726928710938 414.0089111328125 106.69021606445312 C 411.4534912109375 106.8175048828125 408.82086181640625 107.3602294921875 406.78240966796875 108.90608215332031 C 405.106201171875 110.17623901367188 403.96563720703125 112.01425170898438 402.9659118652344 113.86395263671875 C 399.8061828613281 119.69320678710938 397.61322021484375 126.58636474609375 399.5572204589844 132.92405700683594 C 401.5208740234375 139.31011962890625 407.9082336425781 144.08238220214844 414.59521484375 144.1162567138672 C 421.28216552734375 144.15011596679688 427.75396728515625 139.5101318359375 429.81793212890625 133.14492797851562 L 429.0098876953125 133.19570922851562" stroke-width="0.6000000238418579" fill="rgb(140, 28, 33)" opacity="1.0"/>
    <path d="M 393.50286865234375 60.621337890625 C 394.5155334472656 67.31887817382812 395.64312744140625 74.27685546875 399.36749267578125 79.94058227539062 C 403.0918273925781 85.60421752929688 410.2497863769531 89.63069152832031 416.7210693359375 87.61720275878906 C 424.70367431640625 85.11392211914062 427.69140625 74.30618286132812 424.16015625 66.705322265625 C 420.6290283203125 59.10444641113281 412.6395263671875 54.51661682128906 404.60394287109375 52.17189025878906 C 402.189208984375 51.19683837890625 399.4967956542969 51.16241455078125 397.0579833984375 52.07545471191406 C 394.7672424316406 53.22271728515625 393.6203918457031 56.77232360839844 395.5909423828125 58.42938232421875 L 393.50286865234375 60.621337890625" stroke-width="0.6000000238418579" fill="rgb(159, 159, 159)" opacity="1.0"/>
    <path d="M 436.2320556640625 239.12548828125 C 430.91607666015625 243.12783813476562 426.8555908203125 249.0386962890625 425.96044921875 255.62890625 C 425.0653076171875 262.2191162109375 427.6815185546875 269.39532470703125 433.17864990234375 273.18853759765625 C 437.06854248046875 275.8654479980469 442.0516357421875 276.6778869628906 446.735107421875 276.0442199707031 C 451.4185791015625 275.4105529785156 455.833740234375 273.4347229003906 459.85223388671875 270.9455871582031 C 461.600341796875 269.861328125 463.35552978515625 268.59747314453125 464.24920654296875 266.7505798339844 C 465.2747802734375 264.6336669921875 464.982421875 262.1430969238281 464.5557861328125 259.822509765625 C 463.3515625 253.27108764648438 461.0972900390625 246.6546630859375 456.44403076171875 241.88711547851562 C 451.79071044921875 237.11956787109375 444.2872314453125 234.6842041015625 438.226318359375 237.40969848632812 L 436.2320556640625 239.12548828125" stroke-width="0.6000000238418579" fill="rgb(159, 159, 159)" opacity="1.0"/>
    <path d="M 415.94378662109375 262.0853271484375 C 412.7242431640625 256.5507507324219 408.9058837890625 250.53829956054688 402.7445373535156 248.84295654296875 C 396.7549133300781 247.185791015625 390.5492858886719 250.1463623046875 385.0890197753906 253.11993408203125 C 382.8726501464844 254.3311767578125 380.57330322265625 255.63363647460938 379.1942138671875 257.74798583984375 C 376.85968017578125 261.3226623535156 377.8121032714844 266.0944519042969 379.4606628417969 270.0260314941406 C 380.9894104003906 273.67578125 383.0343017578125 277.08709716796875 385.5327453613281 280.1556091308594 C 389.5877380371094 285.1394348144531 395.7436828613281 289.3956604003906 402.0282897949219 288.0705871582031 C 405.4221496582031 287.36016845703125 408.3396911621094 285.07476806640625 410.4629821777344 282.3267517089844 C 412.5863037109375 279.5787048339844 414.0069580078125 276.3610534667969 415.3642578125 273.1645202636719 C 416.7215576171875 269.9679870605469 417.9866943359375 266.7980041503906 417.913818359375 263.4087829589844 L 415.94378662109375 262.0853271484375" stroke-width="0.6000000238418579" fill="rgb(218, 166, 20)" opacity="1.0"/>
    <path d="M 414.2322998046875 86.10823059082031 C 410.9256896972656 95.22572326660156 415.6363525390625 105.29747009277344 424.7537841796875 108.60411071777344 C 425.5345458984375 108.88726806640625 426.3343505859375 109.11465454101562 427.1473388671875 109.28462219238281 C 430.236328125 109.92985534667969 433.64141845703125 109.67620849609375 436.265869140625 107.92660522460938 C 438.48388671875 106.44830322265625 439.931884765625 104.0751953125 441.0653076171875 101.66464233398438 C 444.0902099609375 95.20797729492188 445.33123779296875 88.05912780761719 444.65936279296875 80.960693359375 C 444.4786376953125 79.08467102050781 444.14410400390625 77.16566467285156 443.14874267578125 75.56048583984375 C 441.47930908203125 72.86470031738281 438.1988525390625 71.52906799316406 435.0338134765625 71.302978515625 C 430.3350830078125 70.96405029296875 425.6138916015625 72.73321533203125 421.9527587890625 75.69949340820312 C 418.29168701171875 78.66574096679688 415.6357421875 82.75038146972656 413.9285888671875 87.14178466796875 L 414.2322998046875 86.10823059082031" stroke-width="0.6000000238418579" fill="rgb(143, 165, 67)" opacity="1.0"/>
    <path d="M 427.39532470703125 122.67897033691406 C 425.6993408203125 134.34725952148438 440.468505859375 144.36886596679688 451.021484375 139.28196716308594 C 461.57440185546875 134.1950225830078 463.3140869140625 117.30789184570312 454.5152587890625 109.45361328125 C 445.71636962890625 101.59934997558594 430.07025146484375 104.40017700195312 423.7911376953125 114.397216796875 L 427.39532470703125 122.67897033691406" stroke-width="0.6000000238418579" fill="rgb(233, 92, 21)" opacity="1.0"/>
    <path d="M 449.600341796875 92.77714538574219 C 449.09033203125 98.57843017578125 449.082763671875 105.56108093261719 453.95068359375 108.79365539550781 C 455.93798828125 110.00469970703125 458.25213623046875 110.56924438476562 460.5738525390625 110.40933227539062 C 466.3291015625 110.16827392578125 471.6104736328125 107.15264892578125 474.7431640625 102.31875610351562 C 477.39007568359375 98.21148681640625 478.132568359375 93.24240112304688 478.738525390625 88.42396545410156 C 479.0745849609375 85.71670532226562 479.3453369140625 82.82965087890625 478.135986328125 80.40103149414062 C 476.4974365234375 77.17710876464844 472.70843505859375 75.718017578125 469.177490234375 74.94142150878906 C 464.011474609375 73.79841613769531 458.69439697265625 73.49911499023438 453.43267822265625 74.05514526367188 C 451.614990234375 74.25076293945312 449.7259521484375 74.57734680175781 448.25592041015625 75.66304016113281 C 446.940673828125 76.74244689941406 445.968017578125 78.18122863769531 445.45635986328125 79.80392456054688 C 443.712890625 84.66581726074219 444.1900634765625 90.04777526855469 446.7615966796875 94.52713012695312 L 449.600341796875 92.77714538574219" stroke-width="0.6000000238418579" fill="rgb(70, 150, 179)" opacity="1.0"/>
    <path d="M 311.236328125 367.4361572265625 C 306.0268859863281 364.8309020996094 300.14324951171875 362.16192626953125 294.58966064453125 363.9053649902344 C 288.6249694824219 365.7817687988281 285.2027587890625 372.33428955078125 284.788818359375 378.5733337402344 C 284.628173828125 380.978759765625 284.847900390625 383.501953125 286.0714416503906 385.5788879394531 C 287.0766296386719 387.28662109375 288.671875 388.55523681640625 290.2934875488281 389.6933288574219 C 295.4029541015625 393.28851318359375 301.6138916015625 396.0954284667969 307.75787353515625 394.96990966796875 C 313.94927978515625 393.831298828125 319.1146545410156 388.3760681152344 319.8783874511719 382.1217346191406 C 320.6421203613281 375.8674011230469 317.00823974609375 369.30279541015625 311.2772521972656 366.6744079589844 L 311.236328125 367.4361572265625" stroke-width="0.6000000238418579" fill="rgb(140, 28, 33)" opacity="1.0"/>
    <path d="M 298.7535095214844 391.3270568847656 C 292.332763671875 388.1404724121094 285.616455078125 384.89544677734375 278.4462890625 384.6870422363281 C 271.2762451171875 384.47869873046875 263.44171142578125 388.2405090332031 261.26007080078125 395.072509765625 C 258.5858459472656 403.51190185546875 266.1421203613281 412.66082763671875 274.8743896484375 414.2122802734375 C 283.606689453125 415.763671875 292.4324951171875 411.62164306640625 299.3416442871094 406.07843017578125 C 301.65234375 404.5767822265625 303.31610107421875 402.2635803222656 304.0046081542969 399.5952453613281 C 304.40020751953125 396.9131164550781 302.01898193359375 393.7647705078125 299.3865966796875 394.46746826171875 L 298.7535095214844 391.3270568847656" stroke-width="0.6000000238418579" fill="rgb(159, 159, 159)" opacity="1.0"/>
    <path d="M 322.94927978515625 413.982666015625 C 317.41473388671875 417.689453125 313.0296936035156 423.373291015625 311.77093505859375 429.9110107421875 C 310.51220703125 436.4486083984375 312.73089599609375 443.7659912109375 318.0158996582031 447.86102294921875 C 321.7561340332031 450.75152587890625 326.6920166015625 451.8388671875 331.40826416015625 451.46417236328125 C 336.1245422363281 451.0894775390625 340.64678955078125 449.3583984375 344.8008728027344 447.0924072265625 C 346.6080322265625 446.105224609375 348.4322204589844 444.93890380859375 349.427490234375 443.1422119140625 C 350.56951904296875 441.08294677734375 350.414794921875 438.577392578125 350.1166076660156 436.234375 C 349.27471923828125 429.6195068359375 347.38702392578125 422.88165283203125 342.9992370605469 417.85931396484375 C 338.6114196777344 412.83697509765625 331.2459716796875 409.9883117675781 325.037353515625 412.3778076171875 L 322.94927978515625 413.982666015625" stroke-width="0.6000000238418579" fill="rgb(159, 159, 159)" opacity="1.0"/>
    <path d="M 256.3606262207031 415.8441162109375 C 249.56063842773438 415.27099609375 241.97732543945312 414.928466796875 236.7303466796875 419.27081298828125 C 231.62167358398438 423.48651123046875 230.4122314453125 430.7139892578125 229.6697998046875 437.298828125 C 229.37213134765625 439.97418212890625 229.1033935546875 442.77783203125 230.1060791015625 445.2744140625 C 231.7994384765625 449.4979248046875 236.5474853515625 451.58392333984375 240.98760986328125 452.54840087890625 C 245.10845947265625 453.44525146484375 249.33673095703125 453.7457275390625 253.54299926757812 453.4405517578125 C 260.37298583984375 452.9476318359375 267.852294921875 450.17578125 270.5378112792969 443.87921142578125 C 271.9925842285156 440.4820556640625 271.78118896484375 436.537841796875 270.6803283691406 433.00408935546875 C 269.5794677734375 429.47039794921875 267.63909912109375 426.26287841796875 265.6783447265625 423.12371826171875 C 263.7176208496094 419.9844970703125 261.7237548828125 416.94195556640625 258.7204284667969 414.9334716796875 L 256.3606262207031 415.8441162109375" stroke-width="0.6000000238418579" fill="rgb(218, 166, 20)" opacity="1.0"/>
    <path d="M 219.714599609375 415.2742919921875 C 209.92901611328125 409.1404113769531 197.023681640625 412.1007080078125 190.88973999023438 421.88629150390625 C 190.364501953125 422.7242431640625 189.89935302734375 423.598388671875 189.497802734375 424.502197265625 C 187.97265625 427.93658447265625 187.41476440429688 431.96417236328125 188.7939453125 435.457763671875 C 189.95919799804688 438.4102783203125 192.3590087890625 440.6905517578125 194.88128662109375 442.614013671875 C 201.63986206054688 447.75335693359375 209.6512451171875 450.98931884765625 218.083251953125 451.9857177734375 C 220.3125 452.245361328125 222.63034057617188 452.3367919921875 224.7484130859375 451.58026123046875 C 228.30499267578125 450.312255859375 230.68182373046875 446.827880859375 231.73809814453125 443.20001220703125 C 233.30996704101562 437.81494140625 232.433349609375 431.87548828125 229.89749145507812 426.8701171875 C 227.36166381835938 421.8648681640625 223.27203369140625 417.7493896484375 218.58749389648438 414.66180419921875 L 219.714599609375 415.2742919921875" stroke-width="0.6000000238418579" fill="rgb(143, 165, 67)" opacity="1.0"/>
    <path d="M 269.100830078125 358.98828125 C 275.64910888671875 370.2988586425781 295.3800354003906 368.8568115234375 301.0572204589844 357.1783447265625 C 306.73431396484375 345.4998474121094 296.6357421875 329.6219177246094 283.5856018066406 328.84326171875 C 270.53546142578125 328.0645751953125 258.85845947265625 341.2574462890625 260.2730407714844 354.2662353515625 L 269.100830078125 358.98828125" stroke-width="0.6000000238418579" fill="rgb(233, 92, 21)" opacity="1.0"/>
    <path d="M 329.8898620605469 354.6953430175781 C 325.72589111328125 359.6768493652344 321.2685546875 366.0592041015625 323.66107177734375 372.11871337890625 C 324.7070617675781 374.49310302734375 326.4640197753906 376.48443603515625 328.689697265625 377.8179016113281 C 334.10772705078125 381.2655029296875 340.8607177734375 381.8731384277344 346.80718994140625 379.4481201171875 C 351.8461608886719 377.37811279296875 355.6923522949219 373.30596923828125 359.3177490234375 369.2846984863281 C 361.3505859375 367.0224609375 363.4383850097656 364.5542297363281 363.8800048828125 361.5618896484375 C 364.43597412109375 357.5685729980469 361.9000244140625 353.8189697265625 359.1651916503906 350.858154296875 C 355.16815185546875 346.52001953125 350.49530029296875 342.857421875 345.327880859375 340.012451171875 C 343.54058837890625 339.03289794921875 341.60443115234375 338.12762451171875 339.56781005859375 338.1838073730469 C 337.6767883300781 338.3329162597656 335.8699951171875 339.029052734375 334.3677673339844 340.1872863769531 C 329.6742858886719 343.52337646484375 326.6805114746094 348.7504577636719 326.1778564453125 354.4868469238281 L 329.8898620605469 354.6953430175781" stroke-width="0.6000000238418579" fill="rgb(70, 150, 179)" opacity="1.0"/>
    <path d="M 297.2698974609375 412.82977294921875 C 290.0080871582031 411.3836975097656 281.89825439453125 410.08575439453125 275.67388916015625 414.0872802734375 C 268.9900817871094 418.3897705078125 266.9930725097656 427.572509765625 268.5793762207031 435.361328125 C 269.189697265625 438.36468505859375 270.3058776855469 441.38470458984375 272.5031433105469 443.52069091796875 C 274.30877685546875 445.2772216796875 276.6905212402344 446.29736328125 279.060791015625 447.14862060546875 C 286.5322265625 449.842041015625 295.08966064453125 451.19921875 302.24530029296875 447.75732421875 C 309.4546813964844 444.2833251953125 313.95733642578125 435.8609619140625 312.7947998046875 427.93597412109375 C 311.6322326660156 420.010986328125 304.9734802246094 413.181396484375 297.064453125 411.88201904296875 L 297.2698974609375 412.82977294921875" stroke-width="0.6000000238418579" fill="rgb(140, 28, 33)" opacity="1.0"/>
    <path d="M 325.4576110839844 388.7335510253906 C 318.2730712890625 388.870849609375 310.79864501953125 389.0929260253906 304.3257751464844 392.2254943847656 C 297.8529968261719 395.35809326171875 292.62646484375 402.3288269042969 293.8477478027344 409.4140625 C 295.3747863769531 418.15673828125 306.32818603515625 422.7962646484375 314.8117370605469 420.13525390625 C 323.2952880859375 417.47412109375 329.2273864746094 409.7065734863281 332.8066711425781 401.5798645019531 C 334.1667175292969 399.1751708984375 334.5758972167969 396.34814453125 333.95343017578125 393.6565856933594 C 333.0641174316406 391.08831787109375 329.4896240234375 389.3903503417969 327.4737854003906 391.2333679199219 L 325.4576110839844 388.7335510253906" stroke-width="0.6000000238418579" fill="rgb(159, 159, 159)" opacity="1.0"/>
    <path d="M 359.9344482421875 409.8431701660156 C 354.36407470703125 414.2603759765625 350.1858215332031 420.682373046875 349.4064636230469 427.7449951171875 C 348.6271057128906 434.8076171875 351.61383056640625 442.4019775390625 357.5867004394531 446.305908203125 C 361.8130798339844 449.06060791015625 367.15704345703125 449.79473876953125 372.1421813964844 448.99237060546875 C 377.1273193359375 448.19000244140625 381.7899475097656 445.9613037109375 386.01513671875 443.195068359375 C 387.8531188964844 441.9901123046875 389.6938171386719 440.59320068359375 390.59881591796875 438.5966796875 C 391.63739013671875 436.3082275390625 391.25830078125 433.656005859375 390.7405090332031 431.18896484375 C 389.278564453125 424.22406005859375 386.69354248046875 417.2178955078125 381.59576416015625 412.250732421875 C 376.49798583984375 407.28350830078125 368.4186096191406 404.8836364746094 362.01837158203125 407.9571533203125 L 359.9344482421875 409.8431701660156" stroke-width="0.6000000238418579" fill="rgb(159, 159, 159)" opacity="1.0"/>
    <path d="M 254.34942626953125 368.5491638183594 C 255.17889404296875 361.4237365722656 255.79217529296875 353.4675598144531 251.40518188476562 347.8095703125 C 247.14654541015625 342.3011169433594 239.59320068359375 340.788818359375 232.6995849609375 339.7887268066406 C 229.8985595703125 339.3865661621094 226.96182250976562 339.010498046875 224.30520629882812 339.9805603027344 C 219.81103515625 341.6185607910156 217.460693359375 346.5374755859375 216.29891967773438 351.17041015625 C 215.21893310546875 355.4700927734375 214.76193237304688 359.9026184082031 214.94189453125 364.3322448730469 C 215.2315673828125 371.5248107910156 217.89398193359375 379.4757995605469 224.41983032226562 382.5078430175781 C 227.94049072265625 384.1498718261719 232.09170532226562 384.0595703125 235.84130859375 383.0210266113281 C 239.59088134765625 381.98248291015625 243.0257568359375 380.05096435546875 246.38955688476562 378.09576416015625 C 249.75335693359375 376.140625 253.0167236328125 374.1473693847656 255.22735595703125 371.0589904785156 L 254.34942626953125 368.5491638183594" stroke-width="0.6000000238418579" fill="rgb(218, 166, 20)" opacity="1.0"/>
    <path d="M 262.1092529296875 383.70465087890625 C 253.43206787109375 375.4614562988281 239.71536254882812 375.81329345703125 231.47216796875 384.4905090332031 C 230.76629638671875 385.2335205078125 230.11404418945312 386.02569580078125 229.520263671875 386.86102294921875 C 227.26467895507812 390.0355529785156 225.86947631835938 394.01153564453125 226.55160522460938 397.84368896484375 C 227.12774658203125 401.0821838378906 229.09609985351562 403.89190673828125 231.26223754882812 406.3644104003906 C 237.06951904296875 412.9747314453125 244.54086303710938 417.90948486328125 252.90008544921875 420.6561279296875 C 255.11090087890625 421.37841796875 257.4462585449219 421.9481201171875 259.7532043457031 421.615478515625 C 263.62640380859375 421.0592041015625 266.7572937011719 418.00921630859375 268.5764465332031 414.54168701171875 C 271.2807922363281 409.39556884765625 271.61224365234375 403.1826171875 270.06634521484375 397.5771179199219 C 268.5204162597656 391.9716491699219 265.2132568359375 386.9504089355469 261.0904846191406 382.85064697265625 L 262.1092529296875 383.70465087890625" stroke-width="0.6000000238418579" fill="rgb(143, 165, 67)" opacity="1.0"/>
    <path d="M 197.05328369140625 376.2721252441406 C 183.01513671875 376.9408264160156 174.6474609375 396.5002136230469 182.9989013671875 407.69110107421875 C 191.35037231445312 418.8819580078125 211.50482177734375 417.07781982421875 218.694091796875 404.99676513671875 C 225.88336181640625 392.9157409667969 219.0487060546875 375.2457580566406 205.92388916015625 370.17193603515625 L 197.05328369140625 376.2721252441406" stroke-width="0.6000000238418579" fill="rgb(233, 92, 21)" opacity="1.0"/>
    <path d="M 254.03692626953125 374.6406555175781 C 251.12271118164062 380.15716552734375 248.2137451171875 387.0490417480469 251.6773681640625 392.2637939453125 C 253.13650512695312 394.2854309082031 255.18701171875 395.8044738769531 257.5460510253906 396.6112976074219 C 263.32916259765625 398.76470947265625 269.79730224609375 397.98150634765625 274.8992919921875 394.5100402832031 C 279.21966552734375 391.55419921875 282.0176086425781 386.95599365234375 284.61822509765625 382.4498596191406 C 286.074951171875 379.91619873046875 287.5420227050781 377.17791748046875 287.35699462890625 374.2772521972656 C 287.0786437988281 370.4129638671875 283.9434814453125 367.397705078125 280.7795715332031 365.1636962890625 C 276.1532897949219 361.88836669921875 271.0273742675781 359.38348388671875 265.60064697265625 357.7461242675781 C 263.72454833984375 357.1839904785156 261.7234802246094 356.7215270996094 259.8207702636719 357.1827392578125 C 258.07354736328125 357.70208740234375 256.5151672363281 358.7186279296875 255.335693359375 360.1083679199219 C 251.59390258789062 364.18475341796875 249.82867431640625 369.6974182128906 250.50665283203125 375.1891174316406 L 254.03692626953125 374.6406555175781" stroke-width="0.6000000238418579" fill="rgb(70, 150, 179)" opacity="1.0"/>
    <path d="M 337.9494934082031 360.2528381347656 C 338.5975341796875 353.1979675292969 339.0196533203125 345.3509826660156 334.5881042480469 339.829345703125 C 329.8240966796875 333.9007263183594 320.8861083984375 332.9209899902344 313.6336975097656 335.211181640625 C 310.83709716796875 336.0929870605469 308.0753173828125 337.45782470703125 306.2630920410156 339.7627258300781 C 304.77264404296875 341.6569519042969 304.04071044921875 344.0255432128906 303.46832275390625 346.36627197265625 C 301.6543884277344 353.74566650390625 301.2207336425781 362.0245056152344 305.21319580078125 368.4883728027344 C 309.2415466308594 375.0001525878906 317.7071533203125 378.44036865234375 325.1315612792969 376.53973388671875 C 332.55596923828125 374.63909912109375 338.3870849609375 367.6183776855469 338.8307189941406 359.96234130859375 L 337.9494934082031 360.2528381347656" stroke-width="0.6000000238418579" fill="rgb(140, 28, 33)" opacity="1.0"/>
    <path d="M 357.7812805175781 399.1031799316406 C 350.77435302734375 397.89508056640625 343.4699401855469 396.7152099609375 336.59527587890625 398.550537109375 C 329.720703125 400.3858947753906 323.3404541015625 406.1835021972656 323.2041931152344 413.29632568359375 C 323.05560302734375 422.0767822265625 332.832763671875 428.63031005859375 341.57318115234375 427.62860107421875 C 350.3135986328125 426.626953125 357.5282897949219 420.186767578125 362.52374267578125 412.958251953125 C 364.2943115234375 410.8755798339844 365.21978759765625 408.2049255371094 365.11749267578125 405.4732971191406 C 364.73291015625 402.8116455078125 361.5765686035156 400.4942626953125 359.2736511230469 401.90875244140625 L 357.7812805175781 399.1031799316406" stroke-width="0.6000000238418579" fill="rgb(159, 159, 159)" opacity="1.0"/>
    <path d="M 178.34600830078125 409.5296630859375 C 171.38677978515625 409.2071838378906 164.16552734375 411.26202392578125 159.04296875 415.9783935546875 C 153.92044067382812 420.6947021484375 151.2380828857422 428.2283935546875 153.1377716064453 434.95782470703125 C 154.48690795898438 439.71392822265625 157.96255493164062 443.69659423828125 162.1622314453125 446.3131103515625 C 166.3619384765625 448.9295654296875 171.2415771484375 450.28466796875 176.14410400390625 450.96087646484375 C 178.27774047851562 451.25390625 180.5369873046875 451.4068603515625 182.49090576171875 450.51434326171875 C 184.73150634765625 449.4921875 186.15884399414062 447.28857421875 187.364501953125 445.132568359375 C 190.7681884765625 439.0455322265625 193.36868286132812 432.205078125 192.800048828125 425.25335693359375 C 192.23141479492188 418.3016357421875 187.80712890625 411.3273010253906 181.099853515625 409.477783203125 L 178.34600830078125 409.5296630859375" stroke-width="0.6000000238418579" fill="rgb(159, 159, 159)" opacity="1.0"/>
    <path d="M 362.38385009765625 369.80126953125 C 356.1023254394531 368.4342041015625 349.0608825683594 367.186767578125 343.62872314453125 370.60101318359375 C 338.3412780761719 373.9139404296875 336.3275451660156 380.5169677734375 334.8287048339844 386.5767822265625 C 334.22344970703125 389.03936767578125 333.6295166015625 391.6252746582031 334.2607116699219 394.07989501953125 C 335.3258361816406 398.2320861816406 339.50567626953125 400.76123046875 343.53509521484375 402.2052307128906 C 347.2745666503906 403.54693603515625 351.18731689453125 404.3447570800781 355.153564453125 404.5742492675781 C 361.5935363769531 404.9491882324219 368.9187316894531 403.27484130859375 372.1972961425781 397.721923828125 C 373.9716796875 394.7266845703125 374.2566223144531 391.0166320800781 373.66058349609375 387.5812683105469 C 373.06451416015625 384.1459045410156 371.6443786621094 380.91253662109375 370.1968688964844 377.7405090332031 C 368.7493591308594 374.5685119628906 367.25909423828125 371.482666015625 364.699462890625 369.2392883300781 L 362.38385009765625 369.80126953125" stroke-width="0.6000000238418579" fill="rgb(218, 166, 20)" opacity="1.0"/>
    <path d="M 373.9013366699219 378.63531494140625 C 366.4851989746094 387.7554931640625 367.8665771484375 401.16082763671875 376.98675537109375 408.57696533203125 C 377.7677001953125 409.2120361328125 378.5927429199219 409.7908630371094 379.45562744140625 410.30914306640625 C 382.7347412109375 412.2779541015625 386.733642578125 413.3436279296875 390.4346618652344 412.385986328125 C 393.5623779296875 411.5770263671875 396.16497802734375 409.4371337890625 398.42242431640625 407.12908935546875 C 404.4565124511719 400.9426574707031 408.72406005859375 393.25341796875 410.7818298339844 384.860107421875 C 411.322021484375 382.6405944824219 411.7033386230469 380.3106384277344 411.20318603515625 378.0767517089844 C 410.36572265625 374.3260192871094 407.14239501953125 371.49066162109375 403.6093444824219 369.9714050292969 C 398.3656311035156 367.7121887207031 392.256591796875 367.85723876953125 386.88433837890625 369.7947998046875 C 381.5120849609375 371.7323303222656 376.8450622558594 375.35040283203125 373.14208984375 379.697509765625 L 373.9013366699219 378.63531494140625" stroke-width="0.6000000238418579" fill="rgb(143, 165, 67)" opacity="1.0"/>
    <path d="M 366.0404357910156 362.1065368652344 C 371.8900451660156 374.51434326171875 392.6534729003906 374.7489929199219 399.62261962890625 363.0362548828125 C 406.5917053222656 351.3234558105469 397.4323425292969 333.8251953125 383.8523254394531 331.85809326171875 C 370.2723083496094 329.8909912109375 356.89434814453125 342.6576232910156 357.2247619628906 356.38812255859375 L 366.0404357910156 362.1065368652344" stroke-width="0.6000000238418579" fill="rgb(233, 92, 21)" opacity="1.0"/>
    <path d="M 404.1438293457031 353.6630859375 C 403.21258544921875 360.4827575683594 402.8074645996094 368.7256164550781 408.370849609375 372.8179626464844 C 410.6482238769531 374.36041259765625 413.34814453125 375.1581726074219 416.0980224609375 375.1011047363281 C 422.90594482421875 375.14306640625 429.3118896484375 371.8826904296875 433.284423828125 366.3538513183594 C 436.6422119140625 361.6552429199219 437.8006591796875 355.8312072753906 438.78948974609375 350.17724609375 C 439.33978271484375 347.00030517578125 439.8232421875 343.6073913574219 438.5333251953125 340.6717224121094 C 436.78192138671875 336.7727966308594 432.3916015625 334.8352966308594 428.267333984375 333.7181701660156 C 422.2333984375 332.07568359375 415.9735107421875 331.4206848144531 409.73028564453125 331.778564453125 C 407.5733947753906 331.9063415527344 405.3247375488281 332.1847229003906 403.5277099609375 333.38299560546875 C 401.913818359375 334.5826721191406 400.683837890625 336.22601318359375 399.98779296875 338.1126403808594 C 397.65374755859375 343.75335693359375 397.9116516113281 350.1340026855469 400.6933288574219 355.5679626464844 L 404.1438293457031 353.6630859375" stroke-width="0.6000000238418579" fill="rgb(70, 150, 179)" opacity="1.0"/>
    <path d="M 388.4423522949219 421.19970703125 C 386.851806640625 428.22894287109375 385.3839416503906 436.087158203125 389.1201477050781 442.24462890625 C 393.13763427734375 448.85675048828125 402.0221252441406 451.03192138671875 409.6408386230469 449.685302734375 C 412.5784912109375 449.1673583984375 415.5452880859375 448.1575927734375 417.6790771484375 446.0736083984375 C 419.43389892578125 444.361083984375 420.48663330078125 442.06939697265625 421.37481689453125 439.78460693359375 C 424.184326171875 432.5828857421875 425.72119140625 424.2906494140625 422.552978515625 417.2412109375 C 419.35491943359375 410.1385803222656 411.2736511230469 405.54461669921875 403.5331726074219 406.47552490234375 C 395.792724609375 407.40643310546875 388.9792175292969 413.712890625 387.5149841308594 421.3756103515625 L 388.4423522949219 421.19970703125" stroke-width="0.6000000238418579" fill="rgb(140, 28, 33)" opacity="1.0"/>
    <path d="M 411.8627014160156 378.80865478515625 C 410.23779296875 385.8103332519531 408.62420654296875 393.1138610839844 410.0784912109375 400.1582336425781 C 411.53277587890625 407.2025146484375 417.0145263671875 413.977294921875 424.1851806640625 414.52655029296875 C 433.03802490234375 415.184814453125 440.2181396484375 405.6968078613281 439.713134765625 396.8177185058594 C 439.20819091796875 387.93865966796875 433.126220703125 380.2845458984375 426.1202392578125 374.8244934082031 C 424.120849609375 372.9170227050781 421.4791259765625 371.8283996582031 418.71630859375 371.77349853515625 C 416.0078125 372.0075378417969 413.486328125 375.058837890625 414.780517578125 377.4649353027344 L 411.8627014160156 378.80865478515625" stroke-width="0.6000000238418579" fill="rgb(159, 159, 159)" opacity="1.0"/>
    <path d="M 434.71002197265625 370.6901550292969 C 436.1998291015625 377.57659912109375 440.08154296875 384.10260009765625 446.0205078125 387.88671875 C 451.95947265625 391.6708068847656 460.01953125 392.3388366699219 466.10504150390625 388.73638916015625 C 470.404296875 386.1839599609375 473.39599609375 381.75341796875 474.8643798828125 376.9694519042969 C 476.332763671875 372.18548583984375 476.3917236328125 367.0640563964844 475.7811279296875 362.0963439941406 C 475.51416015625 359.9346618652344 475.07763671875 357.6865234375 473.698486328125 356.00799560546875 C 472.11810302734375 354.0828857421875 469.5938720703125 353.2591857910156 467.173583984375 352.6398620605469 C 460.34051513671875 350.8914794921875 452.979248046875 350.1236877441406 446.331298828125 352.4826354980469 C 439.683349609375 354.8415832519531 434.0133056640625 360.97540283203125 433.945068359375 368.01165771484375 L 434.71002197265625 370.6901550292969" stroke-width="0.6000000238418579" fill="rgb(159, 159, 159)" opacity="1.0"/>
    <path d="M 429.677734375 411.0345764160156 C 424.57305908203125 415.5211181640625 419.09326171875 420.729248046875 418.5894775390625 427.49334716796875 C 418.09033203125 434.07080078125 422.44464111328125 439.9273681640625 426.65985107421875 445.005126953125 C 428.375244140625 447.0653076171875 430.20263671875 449.1932373046875 432.6871337890625 450.196533203125 C 436.88818359375 451.895751953125 441.662841796875 449.926513671875 445.4197998046875 447.4044189453125 C 448.9078369140625 445.06475830078125 452.041748046875 442.236328125 454.725830078125 439.005859375 C 459.0858154296875 433.761962890625 462.2578125 426.47900390625 459.59063720703125 420.2052001953125 C 458.15570068359375 416.8160400390625 455.177978515625 414.24560546875 451.881103515625 412.5970458984375 C 448.584228515625 410.94854736328125 444.94219970703125 410.1278991699219 441.3350830078125 409.3690490722656 C 437.72802734375 408.61016845703125 434.16748046875 407.9417724609375 430.65264892578125 408.7117919921875 L 429.677734375 411.0345764160156" stroke-width="0.6000000238418579" fill="rgb(218, 166, 20)" opacity="1.0"/>
    <path d="M 134.99481201171875 213.71539306640625 C 134.3162841796875 226.22747802734375 143.9093017578125 236.92062377929688 156.42141723632812 237.59915161132812 C 157.49282836914062 237.65728759765625 158.5670166015625 237.6392822265625 159.63589477539062 237.54534912109375 C 163.69732666015625 237.18777465820312 167.8133544921875 235.600341796875 170.4044189453125 232.4549560546875 C 172.59429931640625 229.79705810546875 173.49722290039062 226.32073974609375 173.99713134765625 222.91571044921875 C 175.32272338867188 213.79949951171875 174.18319702148438 204.49459838867188 170.69696044921875 195.9676513671875 C 169.77163696289062 193.71527099609375 168.64010620117188 191.46722412109375 166.80874633789062 189.8544921875 C 163.73580932617188 187.145263671875 159.17935180664062 186.720703125 155.1807403564453 187.62506103515625 C 149.24331665039062 188.96359252929688 144.06661987304688 192.91754150390625 140.64869689941406 197.955322265625 C 137.23077392578125 202.99310302734375 135.47422790527344 209.03790283203125 135.00587463378906 215.10711669921875 L 134.99481201171875 213.71539306640625" stroke-width="0.6000000238418579" fill="rgb(143, 165, 67)" opacity="1.0"/>
    <path d="M 169.91082763671875 263.6229553222656 C 179.484619140625 274.91668701171875 201.19232177734375 269.3432922363281 205.17437744140625 255.18222045898438 C 209.15643310546875 241.0211181640625 194.70648193359375 225.34893798828125 180.00070190429688 227.103759765625 C 165.294921875 228.85858154296875 154.92816162109375 245.91390991210938 159.119873046875 260.13275146484375 L 169.91082763671875 263.6229553222656" stroke-width="0.6000000238418579" fill="rgb(233, 92, 21)" opacity="1.0"/>
    <path d="M 145.54359436035156 313.4549560546875 C 139.7823486328125 317.30047607421875 133.29922485351562 322.4915771484375 133.92437744140625 329.4137878417969 C 134.2803497314453 332.1588439941406 135.4793701171875 334.725830078125 137.3560791015625 336.76055908203125 C 141.8640594482422 341.919921875 148.59310913085938 344.57427978515625 155.4093780517578 343.8818664550781 C 161.18994140625 343.2796936035156 166.35223388671875 340.269287109375 171.27322387695312 337.2444763183594 C 174.0347900390625 335.54083251953125 176.91455078125 333.642822265625 178.26718139648438 330.7129821777344 C 180.0380859375 326.7929992675781 178.57095336914062 322.19189453125 176.662841796875 318.33831787109375 C 173.87734985351562 312.6950988769531 170.19683837890625 307.5399169921875 165.7640380859375 303.0727844238281 C 164.22946166992188 301.5322570800781 162.52020263671875 300.0229797363281 160.418701171875 299.467529296875 C 158.43832397460938 299.0509948730469 156.3795166015625 299.2197265625 154.4933319091797 299.953125 C 148.68531799316406 301.95513916015625 144.04791259765625 306.40423583984375 141.80697631835938 312.1243591308594 L 145.54359436035156 313.4549560546875" stroke-width="0.6000000238418579" fill="rgb(70, 150, 179)" opacity="1.0"/>
    <path d="M 122.48309326171875 301.8650207519531 C 122.93817138671875 294.35418701171875 123.12722778320312 286.00994873046875 118.24043273925781 280.29449462890625 C 112.98724365234375 274.157958984375 103.46636962890625 273.41290283203125 95.84284973144531 276.0835876464844 C 92.90310668945312 277.112060546875 90.0162353515625 278.6521301269531 88.16848754882812 281.1588439941406 C 86.64875793457031 283.2189025878906 85.949951171875 285.757568359375 85.41957092285156 288.2613830566406 C 83.73750305175781 296.15521240234375 83.55043029785156 304.95831298828125 88.00222778320312 311.6885070800781 C 92.49365234375 318.46844482421875 101.59428405761719 321.841064453125 109.41326904296875 319.5782775878906 C 117.23223876953125 317.3154602050781 123.1907958984375 309.6697998046875 123.40899658203125 301.52752685546875 L 122.48309326171875 301.8650207519531" stroke-width="0.6000000238418579" fill="rgb(140, 28, 33)" opacity="1.0"/>
    <path d="M 143.32630920410156 270.1988525390625 C 137.1114044189453 273.88897705078125 130.6851348876953 277.79730224609375 126.58099365234375 283.7532958984375 C 122.47695922851562 289.7091979980469 121.37002563476562 298.4024353027344 125.95877075195312 303.99188232421875 C 131.63851928710938 310.8787841796875 143.5230712890625 309.493408203125 149.61990356445312 302.95068359375 C 155.71673583984375 296.4079284667969 157.0447998046875 286.6672058105469 156.13674926757812 277.78155517578125 C 156.1312255859375 275.00274658203125 155.0843048095703 272.32708740234375 153.20248413085938 270.2825622558594 C 151.1485595703125 268.4784240722656 147.17881774902344 268.76971435546875 146.3317108154297 271.3831787109375 L 143.32630920410156 270.1988525390625" stroke-width="0.6000000238418579" fill="rgb(159, 159, 159)" opacity="1.0"/>
    <path d="M 160.72650146484375 284.2233581542969 C 160.14328002929688 291.8092956542969 162.14642333984375 299.76031494140625 167.12454223632812 305.5087585449219 C 172.1026611328125 311.2572021484375 180.2373046875 314.4355773925781 187.64627075195312 312.5854797363281 C 192.88284301757812 311.27081298828125 197.3458251953125 307.6091003417969 200.34149169921875 303.1116638183594 C 203.33718872070312 298.6142272949219 204.978515625 293.3326416015625 205.87957763671875 288.0035400390625 C 206.27032470703125 285.6842041015625 206.5123291015625 283.22308349609375 205.60302734375 281.0605163574219 C 204.56167602539062 278.5807189941406 202.20367431640625 276.949462890625 199.89019775390625 275.5617370605469 C 193.35873413085938 271.64404296875 185.97802734375 268.57806396484375 178.3707275390625 268.9677734375 C 170.76336669921875 269.3575439453125 163.003173828125 273.9553527832031 160.76141357421875 281.2155456542969 L 160.72650146484375 284.2233581542969" stroke-width="0.6000000238418579" fill="rgb(159, 159, 159)" opacity="1.0"/>
    <path d="M 127.17388916015625 348.5590515136719 C 127.38212585449219 340.96966552734375 127.2847900390625 332.524658203125 122.13088989257812 326.969970703125 C 117.12628173828125 321.56097412109375 109.02191162109375 320.6728820800781 101.66091918945312 320.2630920410156 C 98.67037963867188 320.10101318359375 95.53923034667969 319.9791259765625 92.8292236328125 321.2501525878906 C 88.24449157714844 323.3971862792969 86.22659301757812 328.8026428222656 85.43496704101562 333.79541015625 C 84.69841003417969 338.4292907714844 84.63107299804688 343.1448974609375 85.23497009277344 347.7979431152344 C 86.21279907226562 355.353515625 89.76300048828125 363.48675537109375 96.92625427246094 366.07305908203125 C 100.79139709472656 367.4749755859375 105.15927124023438 366.9916687011719 109.01510620117188 365.5462341308594 C 112.87094116210938 364.10076904296875 116.3115234375 361.74334716796875 119.6749267578125 359.36761474609375 C 123.03834533691406 356.9919128417969 126.2923583984375 354.5854797363281 128.33412170410156 351.1228942871094 L 127.17388916015625 348.5590515136719" stroke-width="0.6000000238418579" fill="rgb(218, 166, 20)" opacity="1.0"/>
    <path d="M 151.51455688476562 343.0446472167969 C 140.14971923828125 345.1991271972656 132.6832275390625 356.15869140625 134.8376922607422 367.5235290527344 C 135.0221710205078 368.4967041015625 135.27548217773438 369.4555358886719 135.5956573486328 370.39288330078125 C 136.8129425048828 373.9543151855469 139.14463806152344 377.29315185546875 142.53604125976562 378.9211120605469 C 145.4019012451172 380.297119140625 148.7172393798828 380.3388671875 151.879638671875 380.03515625 C 160.343505859375 379.21044921875 168.43215942382812 376.1345520019531 175.305419921875 371.1269836425781 C 177.1199951171875 369.8002624511719 178.8851318359375 368.2897033691406 179.92630004882812 366.2920837402344 C 181.67617797851562 362.93951416015625 181.0506591796875 358.7616882324219 179.357177734375 355.37725830078125 C 176.846435546875 350.35089111328125 172.15936279296875 346.5838928222656 166.88916015625 344.63262939453125 C 161.61898803710938 342.6813659667969 155.81297302246094 342.44158935546875 150.26953125 343.3618469238281 L 151.51455688476562 343.0446472167969" stroke-width="0.6000000238418579" fill="rgb(143, 165, 67)" opacity="1.0"/>
    <path d="M 137.89718627929688 376.1108703613281 C 134.89320373535156 362.6329650878906 114.55331420898438 357.81585693359375 105.12155151367188 367.7794189453125 C 95.68984985351562 377.7430114746094 100.81982421875 396.9513854980469 113.72219848632812 401.88311767578125 C 126.62455749511719 406.81488037109375 142.58322143554688 397.23199462890625 145.2918243408203 383.67431640625 L 137.89718627929688 376.1108703613281" stroke-width="0.6000000238418579" fill="rgb(233, 92, 21)" opacity="1.0"/>
    <path d="M 179.37200927734375 353.60137939453125 C 178.302734375 360.5735778808594 177.74853515625 369.012939453125 183.380126953125 373.30010986328125 C 185.68765258789062 374.9190368652344 188.440673828125 375.7820129394531 191.25946044921875 375.76995849609375 C 198.23455810546875 375.92779541015625 204.853515625 372.695068359375 209.01736450195312 367.09686279296875 C 212.53729248046875 362.3390197753906 213.82257080078125 356.3908386230469 214.93115234375 350.61407470703125 C 215.54864501953125 347.3680419921875 216.101318359375 343.89959716796875 214.8291015625 340.8697204589844 C 213.1002197265625 336.8450927734375 208.63433837890625 334.78570556640625 204.4271240234375 333.5714416503906 C 198.2720947265625 331.7866516113281 191.8687744140625 331.0098571777344 185.46551513671875 331.271240234375 C 183.25323486328125 331.36578369140625 180.94442749023438 331.6130676269531 179.08285522460938 332.81060791015625 C 177.40890502929688 334.01263427734375 176.120849609375 335.6757507324219 175.37579345703125 337.5971984863281 C 172.8890380859375 343.3376770019531 173.04562377929688 349.8800964355469 175.80426025390625 355.4950256347656 L 179.37200927734375 353.60137939453125" stroke-width="0.6000000238418579" fill="rgb(70, 150, 179)" opacity="1.0"/>
  </g>
</svg>
