<?xml version="1.0" ?>
<svg xmlns="http://www.w3.org/2000/svg" version="1.1" width="600" height="600">
  <defs/>
  <g>
    <path d="M 351.626220703125 343.97161865234375 C 356.21527099609375 347.0993347167969 363.5077209472656 342.9171142578125 363.5338439941406 337.39935302734375 C 363.5599060058594 331.881591796875 356.77069091796875 327.65753173828125 351.62872314453125 329.7601013183594 C 346.4867248535156 331.8626708984375 344.4410400390625 339.06427001953125 347.3760986328125 343.78692626953125 L 351.626220703125 343.97161865234375" stroke-width="0.6000000238418579" fill="rgb(233, 92, 21)" opacity="1.0"/>
    <path d="M 124.90469360351562 210.00860595703125 C 129.2602081298828 209.58319091796875 134.41885375976562 208.623291015625 136.1334686279297 204.58071899414062 C 136.75320434570312 202.94537353515625 136.8502197265625 201.15805053710938 136.4110870361328 199.46527099609375 C 135.43727111816406 195.24761962890625 132.4796142578125 191.76361083984375 128.4759979248047 190.1180419921875 C 125.07626342773438 188.73086547851562 121.30328369140625 188.8695068359375 117.66046142578125 189.088134765625 C 115.61431884765625 189.21426391601562 113.44442749023438 189.41342163085938 111.81777954101562 190.64251708984375 C 109.66305541992188 192.29852294921875 109.10922241210938 195.29898071289062 109.0238037109375 198.014404296875 C 108.89385986328125 201.98825073242188 109.407958984375 205.95697021484375 110.54617309570312 209.76654052734375 C 110.94198608398438 211.08209228515625 111.44439697265625 212.4322509765625 112.4495849609375 213.367919921875 C 113.4287109375 214.19012451171875 114.62594604492188 214.70968627929688 115.895263671875 214.86322021484375 C 119.72744750976562 215.478759765625 123.63676452636719 214.3822021484375 126.58978271484375 211.8634033203125 L 124.90469360351562 210.00860595703125" stroke-width="0.6000000238418579" fill="rgb(70, 150, 179)" opacity="1.0"/>
    <path d="M 454.772705078125 410.898681640625 C 457.382080078125 413.5087890625 460.384033203125 416.2923583984375 464.0718994140625 416.3572998046875 C 468.03350830078125 416.4246826171875 471.4039306640625 413.171630859375 472.903076171875 409.50408935546875 C 473.481689453125 408.0903015136719 473.8553466796875 406.5295104980469 473.5360107421875 405.0357971191406 C 473.2740478515625 403.8077697753906 472.5693359375 402.7254638671875 471.8226318359375 401.7163391113281 C 469.4716796875 398.5311584472656 466.3006591796875 395.59912109375 462.3817138671875 395.04437255859375 C 458.431640625 394.488037109375 454.2332763671875 396.7321472167969 452.520751953125 400.3387756347656 C 450.8082275390625 403.94537353515625 451.6771240234375 408.6198425292969 454.59539794921875 411.348388671875 L 454.772705078125 410.898681640625" stroke-width="0.6000000238418579" fill="rgb(140, 28, 33)" opacity="1.0"/>
    <path d="M 90.08740234375 208.29232788085938 C 94.39581298828125 207.95700073242188 98.87525939941406 207.56057739257812 102.65098571777344 205.45208740234375 C 106.42665100097656 203.34356689453125 109.31901550292969 198.9747314453125 108.33642578125 194.76406860351562 C 107.11190795898438 189.56918334960938 100.37271118164062 187.16937255859375 95.373291015625 189.06558227539062 C 90.37387084960938 190.9617919921875 87.0859375 195.8338623046875 85.22317504882812 200.8387451171875 C 84.4913330078125 202.33026123046875 84.34518432617188 204.0418701171875 84.81362915039062 205.6358642578125 C 85.43792724609375 207.14639282226562 87.64364624023438 208.03994750976562 88.78898620605469 206.862548828125 L 90.08740234375 208.29232788085938" stroke-width="0.6000000238418579" fill="rgb(159, 159, 159)" opacity="1.0"/>
    <path d="M 382.44384765625 305.3603515625 C 386.2500915527344 304.1904296875 389.7384033203125 301.69091796875 391.58380126953125 298.1647033691406 C 393.4292297363281 294.6385192871094 393.4179992675781 290.0676574707031 391.096923828125 286.8139953613281 C 389.4529724121094 284.51568603515625 386.81427001953125 283.04400634765625 384.0497741699219 282.44708251953125 C 381.2853088378906 281.85015869140625 378.39849853515625 282.0631408691406 375.6304626464844 282.6457214355469 C 374.426025390625 282.8999328613281 373.1810302734375 283.2538146972656 372.3021240234375 284.11114501953125 C 371.2940368652344 285.0935974121094 370.9515380859375 286.55462646484375 370.7191162109375 287.9472961425781 C 370.0630187988281 291.8791198730469 369.9844970703125 296.0612487792969 371.63238525390625 299.69140625 C 373.2802734375 303.32159423828125 377.0068359375 306.2196350097656 380.9723205566406 305.91986083984375 L 382.44384765625 305.3603515625" stroke-width="0.6000000238418579" fill="rgb(159, 159, 159)" opacity="1.0"/>
    <path d="M 102.21699523925781 424.3284912109375 C 104.42057800292969 421.8240966796875 106.761474609375 418.94482421875 106.58230590820312 415.620361328125 C 106.41262817382812 412.386962890625 103.92538452148438 409.8090515136719 101.55474853515625 407.6015930175781 C 100.59039306640625 406.7062683105469 99.56724548339844 405.78497314453125 98.2947998046875 405.4524841308594 C 96.14303588867188 404.8888244628906 93.94219970703125 406.1470642089844 92.27145385742188 407.6106262207031 C 90.72021484375 408.9684753417969 89.37199401855469 410.5420227050781 88.26803588867188 412.2830810546875 C 86.4744873046875 415.1094970703125 85.38728332519531 418.85400390625 87.07936096191406 421.74090576171875 C 87.99057006835938 423.30078125 89.60147094726562 424.36529541015625 91.30989074707031 424.96099853515625 C 93.018310546875 425.556640625 94.84283447265625 425.7276611328125 96.64645385742188 425.8707275390625 C 98.45005798339844 426.013916015625 100.22535705566406 426.1158447265625 101.88815307617188 425.5205078125 L 102.21699523925781 424.3284912109375" stroke-width="0.6000000238418579" fill="rgb(218, 166, 20)" opacity="1.0"/>
    <path d="M 99.76498413085938 150.08645629882812 C 106.96041870117188 151.1959228515625 113.69287109375 146.2622528076172 114.80232238769531 139.0668182373047 C 114.8973388671875 138.45066833496094 114.94850158691406 137.8285675048828 114.95547485351562 137.20516967773438 C 114.98149108886719 134.83641052246094 114.299560546875 132.3656005859375 112.62945556640625 130.6872100830078 C 111.21823120117188 129.26870727539062 109.260009765625 128.54739379882812 107.31993103027344 128.0631866455078 C 102.12503051757812 126.77426147460938 96.67977905273438 126.89979553222656 91.54977416992188 128.4267578125 C 90.1944580078125 128.83267211914062 88.829833984375 129.35804748535156 87.79240417480469 130.32449340820312 C 86.04983520507812 131.9459228515625 85.543212890625 134.5560760498047 85.8369140625 136.9198455810547 C 86.2705078125 140.42950439453125 88.25991821289062 143.6492156982422 90.976806640625 145.91415405273438 C 93.69366455078125 148.17909240722656 97.0880126953125 149.54116821289062 100.5703125 150.1598358154297 L 99.76498413085938 150.08645629882812" stroke-width="0.6000000238418579" fill="rgb(143, 165, 67)" opacity="1.0"/>
    <path d="M 460.00323486328125 346.4459228515625 C 462.98675537109375 353.9844665527344 475.22479248046875 354.9039611816406 479.7760009765625 348.2575988769531 C 484.32720947265625 341.6112365722656 479.5830078125 330.9456787109375 471.6470947265625 329.2745666503906 C 463.711181640625 327.60345458984375 455.3402099609375 334.6303405761719 455.01861572265625 342.74139404296875 L 460.00323486328125 346.4459228515625" stroke-width="0.6000000238418579" fill="rgb(233, 92, 21)" opacity="1.0"/>
    <path d="M 106.53057861328125 225.1771240234375 C 109.21304321289062 221.81369018554688 112.06845092773438 217.51776123046875 110.39114379882812 213.5401611328125 C 109.66204833984375 211.98321533203125 108.46780395507812 210.69085693359375 106.97308349609375 209.8414306640625 C 103.33135986328125 207.64019775390625 98.8486328125 207.34063720703125 94.9464111328125 209.03775024414062 C 91.63992309570312 210.48583984375 89.15411376953125 213.24203491210938 86.81381225585938 215.961181640625 C 85.50166320800781 217.49078369140625 84.15625 219.15771484375 83.90931701660156 221.14666748046875 C 83.60191345214844 223.80050659179688 85.33900451660156 226.24575805664062 87.19583129882812 228.1654052734375 C 89.9097900390625 230.978271484375 93.06112670898438 233.333251953125 96.52761840820312 235.13909912109375 C 97.7265625 235.7607421875 99.02294921875 236.3309326171875 100.37124633789062 236.26266479492188 C 101.62164306640625 236.13507080078125 102.80793762207031 235.6463623046875 103.78541564941406 234.856201171875 C 106.84373474121094 232.57464599609375 108.74725341796875 229.06634521484375 108.99276733398438 225.2586669921875 L 106.53057861328125 225.1771240234375" stroke-width="0.6000000238418579" fill="rgb(70, 150, 179)" opacity="1.0"/>
    <path d="M 105.79953002929688 82.006591796875 C 106.19711303710938 86.05873107910156 106.80795288085938 90.53350830078125 109.90670776367188 93.17059326171875 C 113.2371826171875 96.00140380859375 118.38810729980469 95.5872802734375 122.23379516601562 93.50985717773438 C 123.71687316894531 92.70953369140625 125.1280517578125 91.64033508300781 125.90151977539062 90.14328002929688 C 126.53781127929688 88.912841796875 126.69464111328125 87.49673461914062 126.76443481445312 86.11361694335938 C 126.98980712890625 81.75216674804688 126.33877563476562 77.03237915039062 123.38584899902344 73.81597900390625 C 120.40753173828125 70.57638549804688 115.25700378417969 69.55062866210938 111.27207946777344 71.42677307128906 C 107.28715515136719 73.30291748046875 104.75553894042969 77.89659118652344 105.33355712890625 82.26593017578125 L 105.79953002929688 82.006591796875" stroke-width="0.6000000238418579" fill="rgb(140, 28, 33)" opacity="1.0"/>
    <path d="M 92.60697937011719 407.89495849609375 C 96.09477233886719 405.4873962402344 99.69747924804688 402.9437561035156 101.85977172851562 399.2952575683594 C 104.02203369140625 395.6468200683594 104.3214111328125 390.5171203613281 101.4132080078125 387.43121337890625 C 97.81488037109375 383.6299743652344 90.91815185546875 384.9163513183594 87.61366271972656 388.9878845214844 C 84.30917358398438 393.0594177246094 83.92239379882812 398.81072998046875 84.8094482421875 403.9722900390625 C 84.92398071289062 405.59759521484375 85.6435546875 407.1208801269531 86.82626342773438 408.2415466308594 C 88.10003662109375 409.21466064453125 90.41058349609375 408.8852844238281 90.80145263671875 407.322509765625 L 92.60697937011719 407.89495849609375" stroke-width="0.6000000238418579" fill="rgb(159, 159, 159)" opacity="1.0"/>
    <path d="M 477.41192626953125 70.44198608398438 C 478.4300537109375 67.02911376953125 478.3011474609375 63.193084716796875 476.59295654296875 60.070068359375 C 474.884765625 56.94706726074219 471.4779052734375 54.68727111816406 467.905029296875 54.799896240234375 C 465.3790283203125 54.88273620605469 462.9744873046875 56.115966796875 461.15850830078125 57.87687683105469 C 459.342529296875 59.637786865234375 458.0684814453125 61.8916015625 457.12841796875 64.24044799804688 C 456.719970703125 65.26286315917969 456.365478515625 66.36488342285156 456.56732177734375 67.4443359375 C 456.79815673828125 68.68199157714844 457.71539306640625 69.66184997558594 458.6363525390625 70.52587890625 C 461.236572265625 72.96514892578125 464.3095703125 75.09886169433594 467.82861328125 75.67401123046875 C 471.34765625 76.2491455078125 475.3533935546875 74.91419982910156 477.0980224609375 71.81463623046875 L 477.41192626953125 70.44198608398438" stroke-width="0.6000000238418579" fill="rgb(159, 159, 159)" opacity="1.0"/>
    <path d="M 89.42633056640625 109.5440673828125 C 93.44509887695312 110.72952270507812 97.96348571777344 111.87313842773438 101.656005859375 109.91035461425781 C 105.24967956542969 108.006591796875 106.87069702148438 103.80938720703125 108.13134765625 99.94100952148438 C 108.64117431640625 98.3687744140625 109.14944458007812 96.71585083007812 108.8551025390625 95.09037780761719 C 108.35890197753906 92.34091186523438 105.76126098632812 90.49932861328125 103.21014404296875 89.37025451660156 C 100.84268188476562 88.32138061523438 98.33688354492188 87.61788940429688 95.76943969726562 87.28131103515625 C 91.60081481933594 86.7332763671875 86.75990295410156 87.4755859375 84.36627197265625 90.93038940429688 C 83.07131958007812 92.79360961914062 82.71078491210938 95.19189453125 82.93592834472656 97.4532470703125 C 83.16108703613281 99.714599609375 83.93148803710938 101.883544921875 84.72256469726562 104.01394653320312 C 85.51364135742188 106.14431762695312 86.33660888671875 108.220703125 87.89451599121094 109.79997253417969 L 89.42633056640625 109.5440673828125" stroke-width="0.6000000238418579" fill="rgb(218, 166, 20)" opacity="1.0"/>
    <path d="M 128.26771545410156 137.9835968017578 C 135.0339813232422 137.398681640625 140.0449676513672 131.4393768310547 139.46005249023438 124.67311096191406 C 139.40997314453125 124.09371948242188 139.31884765625 123.51860046386719 139.1873779296875 122.95208740234375 C 138.68740844726562 120.79959106445312 137.5232696533203 118.71107482910156 135.63873291015625 117.55914306640625 C 134.04623413085938 116.58551025390625 132.11212158203125 116.36460876464844 130.24685668945312 116.35459899902344 C 125.25396728515625 116.33468627929688 120.3468017578125 117.65200805664062 116.03511047363281 120.16972351074219 C 114.89653015136719 120.837158203125 113.77592468261719 121.61491394042969 113.04934692382812 122.72006225585938 C 111.82847595214844 124.57469177246094 111.94622802734375 127.05218505859375 112.73486328125 129.12950134277344 C 113.903564453125 132.21437072753906 116.41816711425781 134.69261169433594 119.38101196289062 136.144775390625 C 122.34384155273438 137.596923828125 125.72113037109375 138.0811004638672 129.01377868652344 137.87210083007812 L 128.26771545410156 137.9835968017578" stroke-width="0.6000000238418579" fill="rgb(143, 165, 67)" opacity="1.0"/>
    <path d="M 396.4285583496094 308.6451416015625 C 399.3389892578125 315.94012451171875 411.197021484375 316.7981262207031 415.5882568359375 310.3473205566406 C 419.97943115234375 303.896484375 415.35498046875 293.5769348144531 407.6626281738281 291.9792785644531 C 399.97027587890625 290.3816223144531 391.87969970703125 297.2112731933594 391.5898132324219 305.0697326660156 L 396.4285583496094 308.6451416015625" stroke-width="0.6000000238418579" fill="rgb(233, 92, 21)" opacity="1.0"/>
    <path d="M 126.87092590332031 113.81190490722656 C 131.10357666015625 113.0931396484375 136.08502197265625 111.79556274414062 137.4821319580078 107.72055053710938 C 137.9750213623047 106.07720947265625 137.94583129882812 104.32142639160156 137.3985595703125 102.69540405273438 C 136.1527099609375 98.63577270507812 133.0164794921875 95.43182373046875 128.984375 94.09957885742188 C 125.5611572265625 92.97821044921875 121.878662109375 93.37591552734375 118.32905578613281 93.84281921386719 C 116.33554077148438 94.10833740234375 114.2259521484375 94.45391845703125 112.71952819824219 95.76963806152344 C 110.72598266601562 97.53982543945312 110.39237976074219 100.51443481445312 110.49737548828125 103.17759704589844 C 110.64617919921875 107.07533264160156 111.42488098144531 110.92327880859375 112.80328369140625 114.57220458984375 C 113.28195190429688 115.83204650878906 113.86737060546875 117.118408203125 114.91600036621094 117.9642333984375 C 115.93124389648438 118.70082092285156 117.13890075683594 119.1260986328125 118.39169311523438 119.18818664550781 C 122.18450927734375 119.52438354492188 125.93389892578125 118.17984008789062 128.6487274169922 115.50993347167969 L 126.87092590332031 113.81190490722656" stroke-width="0.6000000238418579" fill="rgb(70, 150, 179)" opacity="1.0"/>
    <path d="M 422.757080078125 64.03085327148438 C 424.1826171875 66.71086120605469 425.8753662109375 69.62158203125 428.76068115234375 70.55859375 C 431.8607177734375 71.56330871582031 435.29339599609375 69.81402587890625 437.353759765625 67.28924560546875 C 438.1485595703125 66.31613159179688 438.8173828125 65.17813110351562 438.925048828125 63.92645263671875 C 439.013916015625 62.89753723144531 438.7196044921875 61.87689208984375 438.3746337890625 60.90370178222656 C 437.29052734375 57.83345031738281 435.50048828125 54.765289306640625 432.551025390625 53.38751220703125 C 429.5775146484375 52.0009765625 425.7359619140625 52.75767517089844 423.5224609375 55.18330383300781 C 421.3089599609375 57.608917236328125 420.86944580078125 61.49464416503906 422.50958251953125 64.34201049804688 L 422.757080078125 64.03085327148438" stroke-width="0.6000000238418579" fill="rgb(140, 28, 33)" opacity="1.0"/>
    <path d="M 119.26406860351562 423.03314208984375 C 121.54365539550781 419.84796142578125 123.88058471679688 416.508544921875 124.619140625 412.6590576171875 C 125.357666015625 408.8096008300781 124.01263427734375 404.2550354003906 120.51788330078125 402.4815979003906 C 116.1990966796875 400.3021240234375 110.60418701171875 403.5791320800781 109.0047607421875 408.1539611816406 C 107.40533447265625 412.728759765625 108.868896484375 417.85125732421875 111.255615234375 422.06219482421875 C 111.86384582519531 423.43975830078125 112.96632385253906 424.5391845703125 114.34555053710938 425.14361572265625 C 115.75776672363281 425.5911865234375 117.66397094726562 424.5816650390625 117.51480102539062 423.10040283203125 L 119.26406860351562 423.03314208984375" stroke-width="0.6000000238418579" fill="rgb(159, 159, 159)" opacity="1.0"/>
    <path d="M 474.62255859375 444.169677734375 C 475.9970703125 441.0255126953125 476.3243408203125 437.341796875 475.0574951171875 434.15460205078125 C 473.790771484375 430.96734619140625 470.798095703125 428.4061279296875 467.3680419921875 428.09417724609375 C 464.942626953125 427.876708984375 462.498291015625 428.773681640625 460.5548095703125 430.244384765625 C 458.611328125 431.715087890625 457.128173828125 433.7208251953125 455.953369140625 435.856689453125 C 455.442626953125 436.78643798828125 454.97418212890625 437.7987060546875 455.0404052734375 438.854736328125 C 455.11578369140625 440.0654296875 455.87786865234375 441.1102294921875 456.6571044921875 442.044677734375 C 458.8572998046875 444.682861328125 461.5455322265625 447.08428955078125 464.84326171875 448.047607421875 C 468.14105224609375 449.010986328125 472.12860107421875 448.204833984375 474.1611328125 445.445556640625 L 474.62255859375 444.169677734375" stroke-width="0.6000000238418579" fill="rgb(159, 159, 159)" opacity="1.0"/>
    <path d="M 452.0897216796875 295.0340881347656 C 452.1251220703125 290.6739807128906 451.97552490234375 285.82598876953125 448.95452880859375 282.6936950683594 C 446.0208740234375 279.6434020996094 441.3575439453125 279.223388671875 437.1263427734375 279.06976318359375 C 435.4073486328125 279.0098571777344 433.608154296875 278.9746398925781 432.066162109375 279.7345275878906 C 429.45745849609375 281.0181884765625 428.3587646484375 284.1443786621094 427.9595947265625 287.0199890136719 C 427.588134765625 289.6889343261719 427.601806640625 292.3973388671875 428.0001220703125 295.0624084472656 C 428.64544677734375 299.3899230957031 430.774169921875 304.0205993652344 434.916015625 305.4261779785156 C 437.15087890625 306.1882629394531 439.653564453125 305.8622741699219 441.8515625 304.9895324707031 C 444.04949951171875 304.1167907714844 445.9989013671875 302.7249755859375 447.90380859375 301.3235168457031 C 449.8087158203125 299.9220886230469 451.65045166015625 298.50421142578125 452.784423828125 296.4933776855469 L 452.0897216796875 295.0340881347656" stroke-width="0.6000000238418579" fill="rgb(218, 166, 20)" opacity="1.0"/>
    <path d="M 425.4656982421875 369.5883483886719 C 423.2235107421875 372.2537841796875 423.566650390625 376.232177734375 426.23211669921875 378.474365234375 C 426.4603271484375 378.6663513183594 426.701904296875 378.8419189453125 426.95501708984375 378.9997253417969 C 427.91680908203125 379.59918212890625 429.0963134765625 379.9346618652344 430.197509765625 379.669189453125 C 431.128173828125 379.4449462890625 431.9097900390625 378.82379150390625 432.5899658203125 378.151123046875 C 434.408203125 376.3480529785156 435.71044921875 374.09100341796875 436.361572265625 371.614501953125 C 436.53253173828125 370.9595642089844 436.656982421875 370.27117919921875 436.51983642578125 369.60687255859375 C 436.29022216796875 368.49151611328125 435.3492431640625 367.6355895996094 434.30999755859375 367.16802978515625 C 432.767578125 366.47283935546875 430.95697021484375 366.4856872558594 429.35577392578125 367.0332336425781 C 427.75457763671875 367.58074951171875 426.35400390625 368.629638671875 425.2354736328125 369.8992919921875 L 425.4656982421875 369.5883483886719" stroke-width="0.6000000238418579" fill="rgb(143, 165, 67)" opacity="1.0"/>
    <path d="M 453.9351806640625 347.7330322265625 C 460.235107421875 344.2386169433594 459.64019775390625 333.3497009277344 453.2613525390625 330.1025695800781 C 446.8824462890625 326.85546875 438.0294189453125 332.26031494140625 437.46807861328125 339.44476318359375 C 436.90673828125 346.6291809082031 444.0594482421875 353.1983642578125 451.24334716796875 352.55047607421875 L 453.9351806640625 347.7330322265625" stroke-width="0.6000000238418579" fill="rgb(233, 92, 21)" opacity="1.0"/>
    <path d="M 450.96478271484375 68.412841796875 C 454.64306640625 68.00820922851562 458.99481201171875 67.14338684082031 460.40283203125 63.707672119140625 C 460.909912109375 62.318572998046875 460.9735107421875 60.806365966796875 460.584716796875 59.37962341308594 C 459.7178955078125 55.82362365722656 457.18115234375 52.90838623046875 453.77911376953125 51.558349609375 C 450.8902587890625 50.42054748535156 447.70166015625 50.57672119140625 444.62384033203125 50.79913330078125 C 442.8951416015625 50.92689514160156 441.0625 51.11767578125 439.6998291015625 52.17366027832031 C 437.89508056640625 53.596099853515625 437.457763671875 56.138702392578125 437.41357421875 58.43548583984375 C 437.3447265625 61.796783447265625 437.8203125 65.14703369140625 438.822021484375 68.35635375976562 C 439.1702880859375 69.46455383300781 439.6090087890625 70.6009521484375 440.468505859375 71.3817138671875 C 441.30487060546875 72.06680297851562 442.322509765625 72.49372863769531 443.3973388671875 72.61044311523438 C 446.643798828125 73.09132385253906 449.9378662109375 72.12384033203125 452.40869140625 69.96371459960938 L 450.96478271484375 68.412841796875" stroke-width="0.6000000238418579" fill="rgb(70, 150, 179)" opacity="1.0"/>
    <path d="M 456.147216796875 401.6868896484375 C 456.0283203125 398.5865478515625 455.7664794921875 395.155029296875 453.52880859375 393.0086669921875 C 451.12371826171875 390.7044372558594 447.186767578125 390.78607177734375 444.1673583984375 392.1920166015625 C 443.00299072265625 392.7336120605469 441.881103515625 393.48297119140625 441.22491455078125 394.5867004394531 C 440.68511962890625 395.4938049316406 440.501708984375 396.56390380859375 440.3858642578125 397.61285400390625 C 440.016845703125 400.9202575683594 440.2982177734375 404.5399475097656 442.398681640625 407.120361328125 C 444.51739501953125 409.7195739746094 448.3887939453125 410.73321533203125 451.5050048828125 409.4866638183594 C 454.6212158203125 408.2401123046875 456.75506591796875 404.8605651855469 456.51336669921875 401.5107421875 L 456.147216796875 401.6868896484375" stroke-width="0.6000000238418579" fill="rgb(140, 28, 33)" opacity="1.0"/>
    <path d="M 124.23123168945312 210.1043701171875 C 118.85209655761719 213.38629150390625 113.29098510742188 216.86062622070312 109.775634765625 222.095703125 C 106.2603759765625 227.3306884765625 105.38645935058594 234.9205322265625 109.44522094726562 239.7449951171875 C 114.46859741210938 245.6890869140625 124.8143310546875 244.35693359375 130.06065368652344 238.58950805664062 C 135.30697631835938 232.82208251953125 136.3626708984375 224.3167724609375 135.47802734375 216.580322265625 C 135.44410705566406 214.15798950195312 134.50343322753906 211.83648681640625 132.841552734375 210.0738525390625 C 131.03216552734375 208.52264404296875 127.57463073730469 208.81817626953125 126.86355590820312 211.10528564453125 L 124.23123168945312 210.1043701171875" stroke-width="0.6000000238418579" fill="rgb(159, 159, 159)" opacity="1.0"/>
    <path d="M 108.02481079101562 241.0130615234375 C 102.45458984375 239.71676635742188 96.31890869140625 240.30072021484375 91.48138427734375 243.345703125 C 86.64387512207031 246.39068603515625 83.35693359375 252.07339477539062 83.88882446289062 257.7889099121094 C 84.27000427246094 261.8293762207031 86.48307800292969 265.56201171875 89.48402404785156 268.2994689941406 C 92.4849853515625 271.03692626953125 96.22264099121094 272.8572692871094 100.07980346679688 274.13299560546875 C 101.75869750976562 274.6871643066406 103.55984497070312 275.14691162109375 105.27011108398438 274.71728515625 C 107.23112487792969 274.2255859375 108.71142578125 272.65911865234375 110.00570678710938 271.0979919433594 C 113.65963745117188 266.6905822753906 116.77729797363281 261.5552978515625 117.35305786132812 255.8585205078125 C 117.92881774902344 250.16168212890625 115.395263671875 243.8726806640625 110.2557373046875 241.381103515625 L 108.02481079101562 241.0130615234375" stroke-width="0.6000000238418579" fill="rgb(159, 159, 159)" opacity="1.0"/>
    <path d="M 293.45947265625 94.9609375 C 291.0512390136719 99.73681640625 288.58123779296875 105.14974975585938 290.20147705078125 110.23617553710938 C 291.7701721191406 115.18496704101562 296.6705017089844 118.18104553222656 301.2403259277344 120.64932250976562 C 303.0982360839844 121.6492919921875 305.0578308105469 122.665771484375 307.16656494140625 122.66801452636719 C 310.73309326171875 122.67388916015625 313.6402282714844 119.8328857421875 315.6418762207031 116.88729858398438 C 317.50079345703125 114.15402221679688 318.95758056640625 111.16795349121094 319.9676818847656 108.02055358886719 C 321.60968017578125 102.91062927246094 321.7849426269531 96.66117858886719 317.9937438964844 92.86465454101562 C 315.95001220703125 90.81204223632812 313.02056884765625 89.81056213378906 310.1290588378906 89.57595825195312 C 307.237548828125 89.34136962890625 304.33734130859375 89.81266784667969 301.4808044433594 90.31877136230469 C 298.6242980957031 90.82485961914062 295.8283386230469 91.38336181640625 293.488525390625 92.97860717773438 L 293.45947265625 94.9609375" stroke-width="0.6000000238418579" fill="rgb(218, 166, 20)" opacity="1.0"/>
    <path d="M 228.18954467773438 120.97003173828125 C 221.27517700195312 114.52485656738281 210.44512939453125 114.90521240234375 203.99993896484375 121.819580078125 C 203.44802856445312 122.41165161132812 202.9388427734375 123.04214477539062 202.47613525390625 123.70628356933594 C 200.71853637695312 126.23020935058594 199.64639282226562 129.38064575195312 200.2137451171875 132.40196228027344 C 200.69293212890625 134.95523071289062 202.2684326171875 137.1595001220703 203.99758911132812 139.09596252441406 C 208.63327026367188 144.27301025390625 214.57058715820312 148.1143798828125 221.1927490234375 150.22108459472656 C 222.94415283203125 150.77500915527344 224.79275512695312 151.20745849609375 226.61215209960938 150.927490234375 C 229.66680908203125 150.45925903320312 232.11663818359375 148.0271453857422 233.52740478515625 145.2751007080078 C 235.62469482421875 141.19076538085938 235.84002685546875 136.28163146972656 234.5772705078125 131.8662872314453 C 233.31451416015625 127.45094299316406 230.6651611328125 123.51014709472656 227.37860107421875 120.30320739746094 L 228.18954467773438 120.97003173828125" stroke-width="0.6000000238418579" fill="rgb(143, 165, 67)" opacity="1.0"/>
    <path d="M 213.91015625 90.87017822265625 C 214.29833984375 101.72210693359375 229.33331298828125 108.3658447265625 238.05572509765625 102.01593017578125 C 246.77813720703125 95.66598510742188 245.568603515625 80.0782470703125 236.30059814453125 74.41334533691406 C 227.03262329101562 68.74844360351562 213.31838989257812 73.86724853515625 209.2783203125 83.96098327636719 L 213.91015625 90.87017822265625" stroke-width="0.6000000238418579" fill="rgb(233, 92, 21)" opacity="1.0"/>
    <path d="M 202.44500732421875 96.41697692871094 C 199.91168212890625 91.39212036132812 196.364501953125 85.65255737304688 190.7208251953125 85.47451782226562 C 188.47210693359375 85.49105834960938 186.283935546875 86.20498657226562 184.45819091796875 87.51785278320312 C 179.8533935546875 90.6446533203125 177.0498046875 95.80938720703125 176.93646240234375 101.374267578125 C 176.85238647460938 106.0950927734375 178.771240234375 110.55462646484375 180.72552490234375 114.82101440429688 C 181.82720947265625 117.2158203125 183.073974609375 119.72511291503906 185.30328369140625 121.10458374023438 C 188.28985595703125 122.9189453125 192.144775390625 122.18928527832031 195.44033813476562 121.03033447265625 C 200.26556396484375 119.34024047851562 204.78536987304688 116.88029479980469 208.82452392578125 113.74589538574219 C 210.218017578125 112.66023254394531 211.60357666015625 111.43063354492188 212.25857543945312 109.79072570800781 C 212.78961181640625 108.23477172851562 212.8564453125 106.55792236328125 212.450927734375 104.96463012695312 C 211.40884399414062 100.083740234375 208.278076171875 95.90567016601562 203.88623046875 93.53488159179688 L 202.44500732421875 96.41697692871094" stroke-width="0.6000000238418579" fill="rgb(70, 150, 179)" opacity="1.0"/>
    <path d="M 259.8681335449219 130.4923095703125 C 255.18365478515625 133.04440307617188 250.09841918945312 136.06988525390625 248.50238037109375 141.15652465820312 C 246.7911376953125 146.62171936035156 249.9251708984375 152.62313842773438 254.39794921875 156.19943237304688 C 256.12188720703125 157.57904052734375 258.13336181640625 158.73440551757812 260.3347473144531 158.90170288085938 C 262.1443786621094 159.0399169921875 263.9327697753906 158.50482177734375 265.6368408203125 157.881591796875 C 271.0130615234375 155.92269897460938 276.3732604980469 152.72341918945312 278.7427062988281 147.51641845703125 C 281.12713623046875 142.2669219970703 279.7301330566406 135.529541015625 275.4289245605469 131.68234252929688 C 271.1277160644531 127.83514404296875 264.2918395996094 127.13090515136719 259.3170166015625 130.06288146972656 L 259.8681335449219 130.4923095703125" stroke-width="0.6000000238418579" fill="rgb(140, 28, 33)" opacity="1.0"/>
    <path d="M 298.2285461425781 122.600341796875 C 292.83782958984375 125.63623046875 287.2619323730469 128.8546600341797 283.633056640625 133.8709259033203 C 280.0042419433594 138.88714599609375 278.8864440917969 146.30458068847656 282.70361328125 151.1776885986328 C 287.42889404296875 157.1824951171875 297.62615966796875 156.2301025390625 302.9718017578125 150.75082397460938 C 308.31744384765625 145.2715301513672 309.64495849609375 136.96205139160156 309.0422058105469 129.34042358398438 C 309.0920104980469 126.96240234375 308.24859619140625 124.65219116210938 306.6783447265625 122.86569213867188 C 304.9560852050781 121.28152465820312 301.5533142089844 121.45292663574219 300.77716064453125 123.67276000976562 L 298.2285461425781 122.600341796875" stroke-width="0.6000000238418579" fill="rgb(159, 159, 159)" opacity="1.0"/>
    <path d="M 196.7755126953125 133.99476623535156 C 193.18917846679688 129.3034210205078 187.9173583984375 125.73861694335938 182.0633544921875 124.9871826171875 C 176.20932006835938 124.23574829101562 169.85812377929688 126.60421752929688 166.52783203125 131.50711059570312 C 164.17767333984375 134.9764862060547 163.4891357421875 139.40383911132812 164.08200073242188 143.55581665039062 C 164.67483520507812 147.7078399658203 166.45697021484375 151.613037109375 168.69204711914062 155.16285705566406 C 169.66561889648438 156.70709228515625 170.798583984375 158.25640869140625 172.443359375 159.03744506835938 C 174.32864379882812 159.93374633789062 176.536865234375 159.65802001953125 178.5933837890625 159.26437377929688 C 184.39932250976562 158.15298461914062 190.256103515625 156.10943603515625 194.45654296875 151.9490203857422 C 198.65701293945312 147.78857421875 200.769287109375 141.11404418945312 198.3111572265625 135.7532958984375 L 196.7755126953125 133.99476623535156" stroke-width="0.6000000238418579" fill="rgb(159, 159, 159)" opacity="1.0"/>
    <path d="M 275.8411560058594 98.14004516601562 C 270.4195556640625 98.61257934570312 264.4136657714844 99.3726806640625 260.8796691894531 103.49728393554688 C 257.43719482421875 107.50360107421875 257.4676818847656 113.34754943847656 257.7779846191406 118.62298583984375 C 257.9071960449219 120.765869140625 258.0765380859375 123.00558471679688 259.203369140625 124.83146667480469 C 261.1073303222656 127.92071533203125 265.1217346191406 128.91554260253906 268.741943359375 129.07086181640625 C 272.10205078125 129.21632385253906 275.4656677246094 128.8785400390625 278.7297668457031 128.06787109375 C 284.0302734375 126.75347900390625 289.5317077636719 123.56001281738281 290.7875061035156 118.24734497070312 C 291.46966552734375 115.38021850585938 290.7681884765625 112.30929565429688 289.4234619140625 109.68173217773438 C 288.0787353515625 107.05413818359375 286.1184997558594 104.796875 284.1515808105469 102.5960693359375 C 282.1846618652344 100.39523315429688 280.2048034667969 98.27484130859375 277.572021484375 97.10409545898438 L 275.8411560058594 98.14004516601562" stroke-width="0.6000000238418579" fill="rgb(218, 166, 20)" opacity="1.0"/>
    <path d="M 230.4691162109375 116.64138793945312 C 229.47283935546875 125.07305908203125 235.50042724609375 132.71595764160156 243.93209838867188 133.71224975585938 C 244.65411376953125 133.7975616455078 245.38125610351562 133.83154296875 246.10809326171875 133.81394958496094 C 248.86981201171875 133.74659729003906 251.7213134765625 132.84994506835938 253.6085205078125 130.8343048095703 C 255.20352172851562 129.13108825683594 255.96343994140625 126.81912231445312 256.4477233886719 124.53810119628906 C 257.7356872558594 118.4305419921875 257.36480712890625 112.08953857421875 255.3736572265625 106.17373657226562 C 254.84469604492188 104.61091613769531 254.17611694335938 103.04217529296875 253.00701904296875 101.87295532226562 C 251.04541015625 99.908935546875 247.9825439453125 99.42613220214844 245.23977661132812 99.86590576171875 C 241.16732788085938 100.5159912109375 237.4969482421875 102.96733093261719 234.96929931640625 106.22711181640625 C 232.44168090820312 109.48689270019531 230.99423217773438 113.4990234375 230.41680908203125 117.58297729492188 L 230.4691162109375 116.64138793945312" stroke-width="0.6000000238418579" fill="rgb(143, 165, 67)" opacity="1.0"/>
    <path d="M 252.92059326171875 85.6337890625 C 252.92599487304688 95.7200927734375 266.6653137207031 102.37910461425781 274.9698486328125 96.76991271972656 C 283.27435302734375 91.16069030761719 282.66143798828125 76.65138244628906 274.2434387207031 71.08963012695312 C 265.8254699707031 65.52787780761719 252.92739868164062 69.83099365234375 248.84695434570312 79.06863403320312 L 252.92059326171875 85.6337890625" stroke-width="0.6000000238418579" fill="rgb(233, 92, 21)" opacity="1.0"/>
    <path d="M 337.42938232421875 71.43571472167969 C 334.9227600097656 66.53654479980469 331.42041015625 60.9443359375 325.9002685546875 60.8031005859375 C 323.7012939453125 60.83238220214844 321.5655822753906 61.54328918457031 319.78778076171875 62.83781433105469 C 315.3028869628906 65.92239379882812 312.59124755859375 70.98945617675781 312.5128173828125 76.43215942382812 C 312.4580993652344 81.04925537109375 314.3605651855469 85.399169921875 316.29656982421875 89.55998229980469 C 317.38787841796875 91.8955078125 318.6217346191406 94.3421630859375 320.80987548828125 95.67819213867188 C 323.7410888671875 97.43510437011719 327.50665283203125 96.6990966796875 330.72271728515625 95.54653930664062 C 335.43157958984375 93.86564636230469 339.8372802734375 91.43367004394531 343.7690124511719 88.34494018554688 C 345.1254577636719 87.27511596679688 346.4732360839844 86.06459045410156 347.104248046875 84.45707702636719 C 347.614501953125 82.93238830566406 347.6700744628906 81.29214477539062 347.26422119140625 79.73638916015625 C 346.2167053222656 74.96932983398438 343.1307373046875 70.9017333984375 338.822021484375 68.60885620117188 L 337.42938232421875 71.43571472167969" stroke-width="0.6000000238418579" fill="rgb(70, 150, 179)" opacity="1.0"/>
    <path d="M 335.2689208984375 137.8079833984375 C 335.33282470703125 132.62254333496094 335.1859436035156 126.8721923828125 331.6322021484375 123.10000610351562 C 327.812255859375 119.05010986328125 321.2334899902344 118.85333251953125 316.0742492675781 120.94488525390625 C 314.084716796875 121.75045776367188 312.1485595703125 122.90647888183594 310.9598388671875 124.69340515136719 C 309.9820556640625 126.1619873046875 309.5852966308594 127.93275451660156 309.3033142089844 129.67396545410156 C 308.407470703125 135.16378784179688 308.57098388671875 141.22991943359375 311.85894775390625 145.715087890625 C 315.1758728027344 150.23316955566406 321.5525817871094 152.25270080566406 326.85992431640625 150.43544006347656 C 332.1672668457031 148.6181640625 336.01519775390625 143.1571807861328 335.8951110839844 137.544921875 L 335.2689208984375 137.8079833984375" stroke-width="0.6000000238418579" fill="rgb(140, 28, 33)" opacity="1.0"/>
    <path d="M 347.4288024902344 100.40625 C 341.8980712890625 99.25885009765625 336.13037109375 98.12588500976562 330.62286376953125 99.39837646484375 C 325.115478515625 100.6708984375 319.89410400390625 105.10255432128906 319.5948486328125 110.74618530273438 C 319.2409973144531 117.71347045898438 326.8276062011719 123.17935180664062 333.7940368652344 122.61882019042969 C 340.76043701171875 122.05830383300781 346.6615905761719 117.13888549804688 350.8219299316406 111.53398132324219 C 352.28363037109375 109.927978515625 353.09014892578125 107.83245849609375 353.08233642578125 105.66090393066406 C 352.8484802246094 103.53733825683594 350.4047546386719 101.6126708984375 348.5382995605469 102.673828125 L 347.4288024902344 100.40625" stroke-width="0.6000000238418579" fill="rgb(159, 159, 159)" opacity="1.0"/>
    <path d="M 346.4427490234375 118.81805419921875 C 341.7520751953125 121.34274291992188 337.82421875 125.52957153320312 336.31915283203125 130.6365966796875 C 334.8141174316406 135.74363708496094 336.0170593261719 141.73890686035156 339.9087219238281 145.40521240234375 C 342.6634826660156 147.9938507080078 346.50872802734375 149.2391815185547 350.2916259765625 149.30386352539062 C 354.0745544433594 149.36856079101562 357.80743408203125 148.33868408203125 361.28839111328125 146.8546142578125 C 362.8028564453125 146.20790100097656 364.3446350097656 145.41990661621094 365.2751159667969 144.06637573242188 C 366.3426208496094 142.51507568359375 366.41229248046875 140.5087890625 366.3552551269531 138.62081909179688 C 366.19415283203125 133.29066467285156 365.2100830078125 127.78216552734375 362.10394287109375 123.44679260253906 C 358.997802734375 119.11138916015625 353.35418701171875 116.27708435058594 348.22833251953125 117.7012939453125 L 346.4427490234375 118.81805419921875" stroke-width="0.6000000238418579" fill="rgb(159, 159, 159)" opacity="1.0"/>
    <path d="M 365.8333435058594 93.10781860351562 C 361.11871337890625 94.1197509765625 355.9219970703125 95.44880676269531 353.26873779296875 99.46392822265625 C 350.6828918457031 103.36502075195312 351.3526916503906 108.49960327148438 352.2059020996094 113.10357666015625 C 352.5552673339844 114.97337341308594 352.9505615234375 116.92388916015625 354.14215087890625 118.40521240234375 C 356.1559753417969 120.91177368164062 359.79486083984375 121.34475708007812 362.99481201171875 121.0830078125 C 365.96502685546875 120.84121704101562 368.8851013183594 120.17416381835938 371.6656799316406 119.10231018066406 C 376.1812438964844 117.36355590820312 380.66668701171875 113.95059204101562 381.186279296875 109.14157104492188 C 381.4706115722656 106.5457763671875 380.5159912109375 103.92301940917969 379.0446472167969 101.76081848144531 C 377.5732421875 99.5986328125 375.60150146484375 97.8297119140625 373.63006591796875 96.11117553710938 C 371.65863037109375 94.39263916015625 369.6846618652344 92.74623107910156 367.2411193847656 92.006591796875 L 365.8333435058594 93.10781860351562" stroke-width="0.6000000238418579" fill="rgb(218, 166, 20)" opacity="1.0"/>
    <path d="M 428.8519287109375 138.38284301757812 C 420.53558349609375 139.13197326660156 414.401123046875 146.4810028076172 415.1502685546875 154.79733276367188 C 415.21441650390625 155.50946044921875 415.32904052734375 156.21612548828125 415.4931640625 156.91204833984375 C 416.117431640625 159.5562744140625 417.5579833984375 162.118896484375 419.88006591796875 163.52682495117188 C 421.84228515625 164.716796875 424.22119140625 164.97979736328125 426.5145263671875 164.98385620117188 C 432.65325927734375 164.9862060546875 438.6806640625 163.34481811523438 443.9705810546875 160.230224609375 C 445.367431640625 159.40460205078125 446.74176025390625 158.44342041015625 447.630126953125 157.0814208984375 C 449.1229248046875 154.79580688476562 448.9671630859375 151.7503204345703 447.9884033203125 149.1998291015625 C 446.537841796875 145.4122314453125 443.4351806640625 142.37646484375 439.7860107421875 140.60421752929688 C 436.1368408203125 138.83197021484375 431.982421875 138.25167846679688 427.9351806640625 138.5232391357422 L 428.8519287109375 138.38284301757812" stroke-width="0.6000000238418579" fill="rgb(143, 165, 67)" opacity="1.0"/>
    <path d="M 151.8632354736328 403.3711853027344 C 158.16253662109375 412.15362548828125 174.28607177734375 409.3797302246094 178.01931762695312 399.3111267089844 C 181.75250244140625 389.24249267578125 172.16375732421875 376.9864807128906 161.36019897460938 377.395263671875 C 150.55667114257812 377.8040771484375 142.007080078125 389.6016845703125 144.21771240234375 400.19476318359375 L 151.8632354736328 403.3711853027344" stroke-width="0.6000000238418579" fill="rgb(233, 92, 21)" opacity="1.0"/>
    <path d="M 429.77587890625 196.50616455078125 C 425.360107421875 194.41921997070312 419.8687744140625 192.38427734375 415.9111328125 195.27471923828125 C 414.3809814453125 196.486328125 413.264404296875 198.14288330078125 412.715576171875 200.01589965820312 C 411.2328796386719 204.61370849609375 412.07073974609375 209.64495849609375 414.96337890625 213.51416015625 C 417.425537109375 216.7900390625 421.119140625 218.81805419921875 424.73388671875 220.6949462890625 C 426.76611328125 221.7459716796875 428.958740234375 222.79791259765625 431.2208251953125 222.55215454101562 C 434.2332763671875 222.1998291015625 436.482177734375 219.64288330078125 438.119140625 217.0906982421875 C 440.51953125 213.3585205078125 442.29998779296875 209.26242065429688 443.3914794921875 204.9613037109375 C 443.7657470703125 203.47445678710938 444.0577392578125 201.89337158203125 443.6307373046875 200.42138671875 C 443.1636962890625 199.07302856445312 442.31439208984375 197.88967895507812 441.1864013671875 197.01565551757812 C 437.8680419921875 194.2313232421875 433.4952392578125 193.04281616210938 429.2239990234375 193.76434326171875 L 429.77587890625 196.50616455078125" stroke-width="0.6000000238418579" fill="rgb(70, 150, 179)" opacity="1.0"/>
    <path d="M 415.3341064453125 160.75201416015625 C 414.5478515625 155.1661834716797 413.44189453125 149.0077362060547 408.9990539550781 145.537841796875 C 404.2242126464844 141.8132781982422 397.1183776855469 142.68634033203125 391.91607666015625 145.7857666015625 C 389.9097900390625 146.97991943359375 388.0186462402344 148.54205322265625 387.03515625 150.65931701660156 C 386.22601318359375 152.39950561523438 386.09136962890625 154.36883544921875 386.07525634765625 156.28741455078125 C 386.0171813964844 162.33770751953125 387.1930847167969 168.83294677734375 391.4677734375 173.11325073242188 C 395.7789611816406 177.42413330078125 402.9680480957031 178.544189453125 408.37481689453125 175.71527099609375 C 413.78155517578125 172.88632202148438 417.0184326171875 166.38037109375 415.9639892578125 160.365966796875 L 415.3341064453125 160.75201416015625" stroke-width="0.6000000238418579" fill="rgb(140, 28, 33)" opacity="1.0"/>
    <path d="M 142.85105895996094 132.53433227539062 C 136.66461181640625 133.64663696289062 130.2395477294922 134.8722381591797 125.08207702636719 138.4731903076172 C 119.92469787597656 142.07411193847656 116.37460327148438 148.81776428222656 118.40939331054688 154.7685089111328 C 120.93756103515625 162.10845947265625 131.0399169921875 164.60076904296875 137.99925231933594 161.12899780273438 C 144.95858764648438 157.6572265625 149.00791931152344 150.12771606445312 150.9753875732422 142.6134490966797 C 151.81747436523438 140.34837341308594 151.77989196777344 137.8500213623047 150.86997985839844 135.61135864257812 C 149.74664306640625 133.51611328125 146.42442321777344 132.5439453125 144.938232421875 134.41461181640625 L 142.85105895996094 132.53433227539062" stroke-width="0.6000000238418579" fill="rgb(159, 159, 159)" opacity="1.0"/>
    <path d="M 435.50341796875 166.86862182617188 C 431.09210205078125 164.250244140625 425.6876220703125 163.08621215820312 420.7259521484375 164.37835693359375 C 415.76422119140625 165.6705322265625 411.41326904296875 169.63836669921875 410.3186340332031 174.66949462890625 C 409.5492248535156 178.22756958007812 410.4295654296875 182.01901245117188 412.25341796875 185.17315673828125 C 414.07720947265625 188.32733154296875 416.779541015625 190.89700317382812 419.731689453125 193.03341674804688 C 421.0169677734375 193.96237182617188 422.432373046875 194.84375 424.01123046875 194.94003295898438 C 425.82122802734375 195.05126953125 427.5115966796875 194.1131591796875 429.0413818359375 193.12921142578125 C 433.3604736328125 190.35125732421875 437.41827392578125 186.80560302734375 439.4549560546875 182.09075927734375 C 441.4915771484375 177.37588500976562 441.0301513671875 171.31173706054688 437.3111572265625 167.7880859375 L 435.50341796875 166.86862182617188" stroke-width="0.6000000238418579" fill="rgb(159, 159, 159)" opacity="1.0"/>
    <path d="M 415.0755615234375 194.52313232421875 C 413.5423583984375 189.22174072265625 411.6085205078125 183.39544677734375 406.8119812011719 180.68814086914062 C 402.1510314941406 178.0487060546875 396.3428039550781 179.22491455078125 391.1550598144531 180.56802368164062 C 389.04840087890625 181.11676025390625 386.853271484375 181.724365234375 385.2575988769531 183.2034912109375 C 382.5574035644531 185.7034912109375 382.3547668457031 189.89251708984375 382.9100646972656 193.5247802734375 C 383.4241943359375 196.8963623046875 384.4197692871094 200.17660522460938 385.8663330078125 203.26516723632812 C 388.21331787109375 208.28097534179688 392.4692687988281 213.1282958984375 398.0011291503906 213.33599853515625 C 400.9874267578125 213.45254516601562 403.9051818847656 212.15249633789062 406.2557373046875 210.29937744140625 C 408.6062927246094 208.4462890625 410.46771240234375 206.053466796875 412.27166748046875 203.66497802734375 C 414.07568359375 201.27655029296875 415.79705810546875 198.8909912109375 416.44561767578125 196.04205322265625 L 415.0755615234375 194.52313232421875" stroke-width="0.6000000238418579" fill="rgb(218, 166, 20)" opacity="1.0"/>
    <path d="M 437.676025390625 187.3809814453125 C 438.39727783203125 196.08642578125 446.03912353515625 202.558837890625 454.74456787109375 201.83758544921875 C 455.489990234375 201.77581787109375 456.2301025390625 201.66122436523438 456.9593505859375 201.49472045898438 C 459.730224609375 200.86154174804688 462.4217529296875 199.37384033203125 463.91204833984375 196.9552001953125 C 465.171630859375 194.91143798828125 465.464599609375 192.42477416992188 465.48602294921875 190.02572631835938 C 465.5345458984375 183.60400390625 463.8626708984375 177.286376953125 460.6441650390625 171.72918701171875 C 459.791015625 170.26165771484375 458.7957763671875 168.8167724609375 457.377685546875 167.877197265625 C 454.997802734375 166.29840087890625 451.810791015625 166.43853759765625 449.13531494140625 167.44332885742188 C 445.1622314453125 168.932373046875 441.963134765625 172.1552734375 440.08184814453125 175.95941162109375 C 438.20050048828125 179.76351928710938 437.562255859375 184.10513305664062 437.81597900390625 188.34109497070312 L 437.676025390625 187.3809814453125" stroke-width="0.6000000238418579" fill="rgb(143, 165, 67)" opacity="1.0"/>
    <path d="M 144.42137145996094 97.07759094238281 C 133.28407287597656 104.71580505371094 136.3249053955078 124.93115234375 148.80482482910156 129.85995483398438 C 161.28475952148438 134.78871154785156 176.8480224609375 123.13259887695312 176.62176513671875 109.62551879882812 C 176.39547729492188 96.11843872070312 161.88238525390625 85.12728881835938 148.59078979492188 87.61004638671875 L 144.42137145996094 97.07759094238281" stroke-width="0.6000000238418579" fill="rgb(233, 92, 21)" opacity="1.0"/>
    <path d="M 450.454833984375 146.34030151367188 C 446.86456298828125 150.94798278808594 443.05377197265625 156.8243408203125 445.39208984375 162.19891357421875 C 446.4058837890625 164.30154418945312 448.047119140625 166.03778076171875 450.0894775390625 167.1680908203125 C 455.067626953125 170.10076904296875 461.1583251953125 170.43862915039062 466.4302978515625 168.0745849609375 C 470.89715576171875 166.05776977539062 474.22979736328125 162.277587890625 477.36541748046875 158.54989624023438 C 479.1234130859375 156.45306396484375 480.9244384765625 154.1692657470703 481.22918701171875 151.46507263183594 C 481.6058349609375 147.8572998046875 479.2098388671875 144.56410217285156 476.659423828125 141.98631286621094 C 472.9315185546875 138.20904541015625 468.6168212890625 135.06007385253906 463.8826904296875 132.66152954101562 C 462.245361328125 131.83595275878906 460.4765625 131.0817413330078 458.6470947265625 131.19512939453125 C 456.95135498046875 131.3875732421875 455.3482666015625 132.06927490234375 454.0333251953125 133.15707397460938 C 449.9161376953125 136.3016357421875 447.3856201171875 141.09402465820312 447.1107177734375 146.2674102783203 L 450.454833984375 146.34030151367188" stroke-width="0.6000000238418579" fill="rgb(70, 150, 179)" opacity="1.0"/>
    <path d="M 381.9211120605469 80.83248901367188 C 382.5941162109375 74.11947631835938 383.0582275390625 66.65036010742188 378.8819274902344 61.357177734375 C 374.3922424316406 55.673797607421875 365.88861083984375 54.670013427734375 358.9642333984375 56.79345703125 C 356.29412841796875 57.61103820800781 353.6533508300781 58.88885498046875 351.90936279296875 61.06939697265625 C 350.47503662109375 62.86138916015625 349.7593078613281 65.11112976074219 349.1956787109375 67.33563232421875 C 347.4098815917969 74.34843444824219 346.93133544921875 82.22869873046875 350.68206787109375 88.4156494140625 C 354.466552734375 94.6485595703125 362.5008544921875 97.99160766601562 369.5859680175781 96.24049377441406 C 376.6710510253906 94.4893798828125 382.27947998046875 87.84994506835938 382.7625732421875 80.56283569335938 L 381.9211120605469 80.83248901367188" stroke-width="0.6000000238418579" fill="rgb(140, 28, 33)" opacity="1.0"/>
    <path d="M 133.69754028320312 411.1904296875 C 130.06617736816406 417.31622314453125 126.35507202148438 423.73046875 125.618896484375 430.8187255859375 C 124.88278198242188 437.90692138671875 128.0309295654297 445.9466552734375 134.63839721679688 448.61279296875 C 142.80194091796875 451.8857421875 152.4242401123047 445.07537841796875 154.6063995361328 436.5386962890625 C 156.78854370117188 428.0020751953125 153.33692932128906 418.9521484375 148.35556030273438 411.697509765625 C 147.0385284423828 409.29730224609375 144.86968994140625 407.47808837890625 142.27696228027344 406.5988464355469 C 139.64895629882812 406.0087890625 136.3538818359375 408.1353454589844 136.8555908203125 410.79522705078125 L 133.69754028320312 411.1904296875" stroke-width="0.6000000238418579" fill="rgb(159, 159, 159)" opacity="1.0"/>
    <path d="M 420.7408447265625 218.7960205078125 C 415.816650390625 214.60614013671875 409.349609375 212.01214599609375 402.9110107421875 212.5635986328125 C 396.4724426269531 213.11505126953125 390.22430419921875 217.120361328125 387.7958068847656 223.13824462890625 C 386.0841979980469 227.39517211914062 386.37261962890625 232.29244995117188 387.968505859375 236.59832763671875 C 389.56439208984375 240.90426635742188 392.3758239746094 244.670654296875 395.58966064453125 247.95184326171875 C 396.9891052246094 249.37890625 398.5603332519531 250.7745361328125 400.50128173828125 251.2294921875 C 402.7263488769531 251.7520751953125 405.0256042480469 250.9456787109375 407.13519287109375 250.04818725585938 C 413.0909423828125 247.514404296875 418.88525390625 243.9713134765625 422.4168701171875 238.54644775390625 C 425.948486328125 233.12152099609375 426.66326904296875 225.48977661132812 422.7913818359375 220.32229614257812 L 420.7408447265625 218.7960205078125" stroke-width="0.6000000238418579" fill="rgb(159, 159, 159)" opacity="1.0"/>
    <path d="M 385.2651672363281 111.71678161621094 C 379.2215881347656 112.78848266601562 372.5503234863281 114.24154663085938 368.9916076660156 119.22770690917969 C 365.5239562988281 124.0718994140625 366.1412048339844 130.634033203125 367.01605224609375 136.52957153320312 C 367.375 138.92404174804688 367.7886657714844 141.42327880859375 369.2366943359375 143.36209106445312 C 371.6838073730469 146.64266967773438 376.29290771484375 147.35980224609375 380.3753967285156 147.17315673828125 C 384.16473388671875 147.00137329101562 387.90972900390625 146.28634643554688 391.4958190917969 145.0500030517578 C 397.3193664550781 143.04464721679688 403.1811828613281 138.90823364257812 404.06201171875 132.81463623046875 C 404.5423278808594 129.52560424804688 403.44793701171875 126.14566040039062 401.67510986328125 123.32794189453125 C 399.90228271484375 120.51022338867188 397.4749755859375 118.169921875 395.0457458496094 115.89370727539062 C 392.6165466308594 113.61749267578125 390.1808166503906 111.43290710449219 387.1062927246094 110.38031005859375 L 385.2651672363281 111.71678161621094" stroke-width="0.6000000238418579" fill="rgb(218, 166, 20)" opacity="1.0"/>
    <path d="M 404.285400390625 82.999755859375 C 396.4858093261719 77.24589538574219 385.4985656738281 78.904296875 379.7447204589844 86.70388793945312 C 379.25201416015625 87.37176513671875 378.80731201171875 88.07376098632812 378.4139404296875 88.80458068847656 C 376.9197692871094 91.581787109375 376.1973571777344 94.916748046875 377.1298522949219 97.92779541015625 C 377.9176025390625 100.47242736816406 379.7811584472656 102.53286743164062 381.769775390625 104.302490234375 C 387.0993957519531 109.031982421875 393.5981750488281 112.24819946289062 400.5909729003906 113.61700439453125 C 402.44000244140625 113.9757080078125 404.3738098144531 114.19927978515625 406.1942443847656 113.70057678222656 C 409.25091552734375 112.86514282226562 411.4609680175781 110.10020446777344 412.5750732421875 107.13131713867188 C 414.2320556640625 102.72476196289062 413.8753662109375 97.6988525390625 412.0709228515625 93.34942626953125 C 410.2664489746094 89.0 407.1052551269531 85.29666137695312 403.3810729980469 82.41566467285156 L 404.285400390625 82.999755859375" stroke-width="0.6000000238418579" fill="rgb(143, 165, 67)" opacity="1.0"/>
    <path d="M 122.44154357910156 426.96038818359375 C 115.46653747558594 417.2864990234375 97.68243408203125 420.391357421875 93.59042358398438 431.5118408203125 C 89.49845886230469 442.63238525390625 100.11271667480469 456.1302490234375 112.03288269042969 455.649658203125 C 123.95303344726562 455.16912841796875 133.35498046875 442.1275634765625 130.88674926757812 430.444580078125 L 122.44154357910156 426.96038818359375" stroke-width="0.6000000238418579" fill="rgb(233, 92, 21)" opacity="1.0"/>
    <path d="M 448.2293701171875 210.36279296875 C 442.254150390625 212.19317626953125 435.306396484375 214.99932861328125 434.052978515625 221.14337158203125 C 433.6492919921875 223.60787963867188 434.020263671875 226.13690185546875 435.1148681640625 228.381591796875 C 437.6737060546875 234.00836181640625 442.801025390625 238.04586791992188 448.8709716796875 239.2137451171875 C 454.02252197265625 240.19122314453125 459.2637939453125 238.92733764648438 464.3001708984375 237.58847045898438 C 467.128173828125 236.831787109375 470.108642578125 235.937744140625 472.0367431640625 233.75634765625 C 474.5828857421875 230.82763671875 474.50726318359375 226.47125244140625 473.8568115234375 222.6466064453125 C 472.9119873046875 217.04803466796875 471.067138671875 211.6392822265625 468.3939208984375 206.63018798828125 C 467.4669189453125 204.90127563476562 466.380859375 203.154052734375 464.708740234375 202.1295166015625 C 463.105224609375 201.25640869140625 461.2823486328125 200.86871337890625 459.4622802734375 201.01373291015625 C 453.92431640625 201.2388916015625 448.76385498046875 203.882080078125 445.3450927734375 208.24462890625 L 448.2293701171875 210.36279296875" stroke-width="0.6000000238418579" fill="rgb(70, 150, 179)" opacity="1.0"/>
    <path d="M 429.1549072265625 133.2258758544922 C 431.16265869140625 127.3868408203125 433.1429443359375 120.83041381835938 430.532958984375 115.23895263671875 C 427.7255859375 109.23414611816406 420.36077880859375 106.55609130859375 413.746826171875 106.99517822265625 C 411.1966552734375 107.16339111328125 408.5760803222656 107.74774169921875 406.5650634765625 109.32441711425781 C 404.911376953125 110.61990356445312 403.8018493652344 112.47390747070312 402.8330993652344 114.33735656738281 C 399.7711181640625 120.21002197265625 397.6917419433594 127.12968444824219 399.73516845703125 133.42808532714844 C 401.7990417480469 139.7744903564453 408.2550354003906 144.43801879882812 414.93408203125 144.36431884765625 C 421.613037109375 144.29063415527344 428.0020751953125 139.552490234375 429.9610595703125 133.16217041015625 L 429.1549072265625 133.2258758544922" stroke-width="0.6000000238418579" fill="rgb(140, 28, 33)" opacity="1.0"/>
    <path d="M 391.98394775390625 59.161651611328125 C 392.70819091796875 66.03410339355469 393.53753662109375 73.17730712890625 397.0729675292969 79.12078857421875 C 400.6083679199219 85.06416320800781 407.71844482421875 89.496826171875 414.4063720703125 87.74220275878906 C 422.656982421875 85.557861328125 426.19879150390625 74.68026733398438 422.94927978515625 66.77139282226562 C 419.69976806640625 58.862518310546875 411.76800537109375 53.81951904296875 403.68621826171875 51.06048583984375 C 401.2699890136719 49.95574951171875 398.5275573730469 49.79692077636719 396.0000305175781 50.6153564453125 C 393.6126403808594 51.6793212890625 392.2806396484375 55.244232177734375 394.2127990722656 57.023651123046875 L 391.98394775390625 59.161651611328125" stroke-width="0.6000000238418579" fill="rgb(159, 159, 159)" opacity="1.0"/>
    <path d="M 435.2252197265625 240.3973388671875 C 429.4266357421875 244.07080078125 424.76043701171875 249.81094360351562 423.2923583984375 256.51263427734375 C 421.82427978515625 263.2143249511719 423.91796875 270.81036376953125 429.2548828125 275.1673889160156 C 433.03204345703125 278.2430419921875 438.08819580078125 279.4925537109375 442.9564208984375 279.230224609375 C 447.8245849609375 278.9678955078125 452.528564453125 277.3032531738281 456.8671875 275.0778503417969 C 458.7547607421875 274.1082763671875 460.6644287109375 272.95465087890625 461.73681640625 271.12994384765625 C 462.96728515625 269.0385437011719 462.87353515625 266.45343017578125 462.6278076171875 264.0319519042969 C 461.93402099609375 257.1956481933594 460.16607666015625 250.20529174804688 455.7777099609375 244.91656494140625 C 451.389404296875 239.6278076171875 443.87664794921875 236.50018310546875 437.41827392578125 238.79888916015625 L 435.2252197265625 240.3973388671875" stroke-width="0.6000000238418579" fill="rgb(159, 159, 159)" opacity="1.0"/>
    <path d="M 416.7135009765625 262.8695068359375 C 412.938720703125 257.45166015625 408.5081787109375 251.593017578125 402.0325927734375 250.3687744140625 C 395.73675537109375 249.16934204101562 389.6073913574219 252.73443603515625 384.2452392578125 256.2501525878906 C 382.06903076171875 257.68157958984375 379.8152160644531 259.2137756347656 378.57562255859375 261.5030212402344 C 376.4767761230469 265.3736267089844 377.857177734375 270.19818115234375 379.88238525390625 274.1005554199219 C 381.7607421875 277.72332763671875 384.14959716796875 281.0576477050781 386.9757385253906 284.0013732910156 C 391.56292724609375 288.7828674316406 398.2483825683594 292.6397399902344 404.59649658203125 290.7490539550781 C 408.0251159667969 289.7333679199219 410.8316650390625 287.13885498046875 412.78289794921875 284.13568115234375 C 414.734130859375 281.13250732421875 415.9237060546875 277.7057189941406 417.04986572265625 274.30596923828125 C 418.176025390625 270.90625 419.209716796875 267.54156494140625 418.8497314453125 264.0640869140625 L 416.7135009765625 262.8695068359375" stroke-width="0.6000000238418579" fill="rgb(218, 166, 20)" opacity="1.0"/>
    <path d="M 414.09130859375 85.9461669921875 C 410.7868957519531 95.17428588867188 415.5889892578125 105.33392333984375 424.817138671875 108.63833618164062 C 425.6072998046875 108.92131042480469 426.4166259765625 109.14784240722656 427.2388916015625 109.3162841796875 C 430.3634033203125 109.95570373535156 433.8037109375 109.68537902832031 436.44891357421875 107.90640258789062 C 438.6844482421875 106.40322875976562 440.13812255859375 103.99894714355469 441.273681640625 101.55807495117188 C 444.304443359375 95.020263671875 445.529296875 87.79022216796875 444.82110595703125 80.61898803710938 C 444.6307373046875 78.72373962402344 444.2847900390625 76.78567504882812 443.272216796875 75.16748046875 C 441.573974609375 72.44985961914062 438.25311279296875 71.11346435546875 435.053466796875 70.89796447753906 C 430.3033447265625 70.57470703125 425.5391845703125 72.382080078125 421.85125732421875 75.39495849609375 C 418.163330078125 78.40780639648438 415.495849609375 82.54682922363281 413.78857421875 86.99197387695312 L 414.09130859375 85.9461669921875" stroke-width="0.6000000238418579" fill="rgb(143, 165, 67)" opacity="1.0"/>
    <path d="M 427.8692626953125 122.58499145507812 C 425.970947265625 134.06292724609375 440.34716796875 144.23422241210938 450.855712890625 139.4197540283203 C 461.36431884765625 134.60523986816406 463.406494140625 117.97982788085938 454.87811279296875 110.06182861328125 C 446.3497314453125 102.14381408691406 430.8609619140625 104.60479736328125 424.4736328125 114.34555053710938 L 427.8692626953125 122.58499145507812" stroke-width="0.6000000238418579" fill="rgb(233, 92, 21)" opacity="1.0"/>
    <path d="M 449.1158447265625 92.96983337402344 C 448.6683349609375 98.848388671875 448.743408203125 105.9168701171875 453.70947265625 109.1314697265625 C 455.7354736328125 110.33383178710938 458.084716796875 110.87786865234375 460.43310546875 110.6884765625 C 466.256103515625 110.37626647949219 471.56658935546875 107.26104736328125 474.68048095703125 102.33065795898438 C 477.31121826171875 98.1416015625 478.00390625 93.10269165039062 478.560302734375 88.21791076660156 C 478.86834716796875 85.47341918945312 479.1082763671875 82.54771423339844 477.855224609375 80.10360717773438 C 476.15838623046875 76.85951232910156 472.3055419921875 75.42739868164062 468.7220458984375 74.68310546875 C 463.47900390625 73.58729553222656 458.0931396484375 73.34733581542969 452.7734375 73.9725341796875 C 450.935791015625 74.19209289550781 449.02734375 74.54507446289062 447.5521240234375 75.66151428222656 C 446.23358154296875 76.76976013183594 445.2659912109375 78.23773193359375 444.76727294921875 79.88642883300781 C 443.06005859375 84.82867431640625 443.6068115234375 90.27105712890625 446.2630615234375 94.77494812011719 L 449.1158447265625 92.96983337402344" stroke-width="0.6000000238418579" fill="rgb(70, 150, 179)" opacity="1.0"/>
    <path d="M 311.0099792480469 366.3912353515625 C 305.87567138671875 363.4917907714844 300.06292724609375 360.4935607910156 294.3591003417969 361.97332763671875 C 288.23284912109375 363.5666198730469 284.4389953613281 370.01727294921875 283.7026062011719 376.30419921875 C 283.41766357421875 378.72808837890625 283.5112609863281 381.2903747558594 284.6425476074219 383.4526062011719 C 285.57183837890625 385.2304382324219 287.1201171875 386.5943298339844 288.70166015625 387.82763671875 C 293.6844787597656 391.7228698730469 299.8210754394531 394.8772277832031 306.0903625488281 394.0522766113281 C 312.4082336425781 393.21649169921875 317.9086608886719 387.9640808105469 318.99945068359375 381.67950439453125 C 320.09027099609375 375.3948974609375 316.7506103515625 368.57257080078125 311.0901794433594 365.6231384277344 L 311.0099792480469 366.3912353515625" stroke-width="0.6000000238418579" fill="rgb(140, 28, 33)" opacity="1.0"/>
    <path d="M 299.1644287109375 391.7988586425781 C 292.5027770996094 388.6516418457031 285.5362548828125 385.4501953125 278.16357421875 385.3784484863281 C 270.791015625 385.30670166015625 262.8144836425781 389.32818603515625 260.7081298828125 396.3924865722656 C 258.1275329589844 405.11846923828125 266.07452392578125 414.37042236328125 275.0791931152344 415.7913818359375 C 284.0838623046875 417.2122802734375 293.0715637207031 412.7803955078125 300.061767578125 406.9466552734375 C 302.4065856933594 405.3575744628906 304.0704345703125 402.94732666015625 304.7250061035156 400.1914978027344 C 305.0782775878906 397.4273376464844 302.5686340332031 394.2391662597656 299.87738037109375 395.0135803222656 L 299.1644287109375 391.7988586425781" stroke-width="0.6000000238418579" fill="rgb(159, 159, 159)" opacity="1.0"/>
    <path d="M 322.9730224609375 414.84814453125 C 317.4300842285156 418.4403076171875 312.9971008300781 424.009765625 311.6509704589844 430.47271728515625 C 310.3048095703125 436.9356689453125 312.3946838378906 444.223876953125 317.5731201171875 448.36328125 C 321.2380065917969 451.2852783203125 326.1154479980469 452.43743896484375 330.79705810546875 452.13671875 C 335.47869873046875 451.8360595703125 339.98834228515625 450.187744140625 344.1409912109375 448.00341796875 C 345.9475402832031 447.0517578125 347.7736511230469 445.92279052734375 348.78741455078125 444.1563720703125 C 349.95062255859375 442.1318359375 349.8348388671875 439.6453857421875 349.5743713378906 437.31787109375 C 348.8389892578125 430.746826171875 347.06854248046875 424.03814697265625 342.79364013671875 418.9927978515625 C 338.5186767578125 413.94744873046875 331.25885009765625 411.01251220703125 325.0673828125 413.288330078125 L 322.9730224609375 414.84814453125" stroke-width="0.6000000238418579" fill="rgb(159, 159, 159)" opacity="1.0"/>
    <path d="M 256.7680358886719 414.6451416015625 C 250.119140625 414.214599609375 242.7099609375 414.02398681640625 237.6702880859375 418.3623046875 C 232.76324462890625 422.574462890625 231.7196044921875 429.6527099609375 231.11968994140625 436.0947265625 C 230.87985229492188 438.7120361328125 230.670654296875 441.4539794921875 231.69677734375 443.87213134765625 C 233.42987060546875 447.96295166015625 238.1043701171875 449.9091796875 242.45703125 450.7666015625 C 246.4967041015625 451.56390380859375 250.62994384765625 451.77703857421875 254.73025512695312 451.39947509765625 C 261.3882141113281 450.788818359375 268.6368408203125 447.941162109375 271.1390075683594 441.74365234375 C 272.4947509765625 438.39990234375 272.2135925292969 434.5535888671875 271.07196044921875 431.1248779296875 C 269.9303283691406 427.69622802734375 267.9753723144531 424.6019287109375 266.0018310546875 421.57470703125 C 264.0282897949219 418.54742431640625 262.02423095703125 415.6151123046875 259.05438232421875 413.71142578125 L 256.7680358886719 414.6451416015625" stroke-width="0.6000000238418579" fill="rgb(218, 166, 20)" opacity="1.0"/>
    <path d="M 220.07962036132812 416.3521728515625 C 210.25445556640625 411.01318359375 197.96148681640625 414.64990234375 192.62246704101562 424.47509765625 C 192.165283203125 425.31640625 191.76837158203125 426.1890869140625 191.4346923828125 427.086669921875 C 190.16741943359375 430.4971923828125 189.87051391601562 434.42279052734375 191.41339111328125 437.7159423828125 C 192.71697998046875 440.4989013671875 195.17315673828125 442.55816650390625 197.72622680664062 444.26519775390625 C 204.56640625 448.82513427734375 212.50277709960938 451.4703369140625 220.7109375 451.9261474609375 C 222.88076782226562 452.04296875 225.1260986328125 451.991943359375 227.12738037109375 451.133544921875 C 230.488037109375 449.69427490234375 232.5753173828125 446.184326171875 233.37783813476562 442.614990234375 C 234.572998046875 437.316650390625 233.36865234375 431.6297607421875 230.61712646484375 426.94537353515625 C 227.86566162109375 422.260986328125 223.6661376953125 418.530029296875 218.95361328125 415.82806396484375 L 220.07962036132812 416.3521728515625" stroke-width="0.6000000238418579" fill="rgb(143, 165, 67)" opacity="1.0"/>
    <path d="M 267.6940002441406 359.2870788574219 C 274.2808532714844 370.7647705078125 294.26483154296875 369.38067626953125 300.0582275390625 357.57757568359375 C 305.8515625 345.7744445800781 295.6874694824219 329.658447265625 282.47662353515625 328.8197021484375 C 269.2657775878906 327.9809875488281 257.3914489746094 341.2943420410156 258.7736511230469 354.4717712402344 L 267.6940002441406 359.2870788574219" stroke-width="0.6000000238418579" fill="rgb(233, 92, 21)" opacity="1.0"/>
    <path d="M 330.3441162109375 353.94061279296875 C 325.8742980957031 358.6413269042969 321.02252197265625 364.72003173828125 323.0208740234375 370.9143981933594 C 323.9120788574219 373.3485412597656 325.53662109375 375.4461669921875 327.6705017089844 376.9178466796875 C 332.85223388671875 380.7012939453125 339.5463562011719 381.7384948730469 345.63006591796875 379.70050048828125 C 350.78631591796875 377.9585266113281 354.8811950683594 374.1441650390625 358.752685546875 370.36639404296875 C 360.92401123046875 368.2407531738281 363.16326904296875 365.9131774902344 363.79473876953125 362.9579772949219 C 364.6041259765625 359.01202392578125 362.3152160644531 355.1115417480469 359.7776184082031 351.9848327636719 C 356.0695495605469 347.4042663574219 351.64453125 343.4540710449219 346.6741943359375 340.2874450683594 C 344.95477294921875 339.1966552734375 343.08221435546875 338.1703796386719 341.04803466796875 338.0963134765625 C 339.1531066894531 338.1241760253906 337.3072204589844 338.70281982421875 335.7354736328125 339.76165771484375 C 330.8428039550781 342.7880554199219 327.5240478515625 347.8083801269531 326.6564636230469 353.49560546875 L 330.3441162109375 353.94061279296875" stroke-width="0.6000000238418579" fill="rgb(70, 150, 179)" opacity="1.0"/>
    <path d="M 296.68212890625 413.2745361328125 C 289.4200439453125 411.790771484375 281.3082580566406 410.4510192871094 275.0575256347656 414.42559814453125 C 268.3453674316406 418.69921875 266.30047607421875 427.88153076171875 267.84954833984375 435.686279296875 C 268.4455261230469 438.69580078125 269.5478210449219 441.7244873046875 271.7366943359375 443.8736572265625 C 273.535400390625 445.64105224609375 275.9145202636719 446.674072265625 278.28302001953125 447.53802490234375 C 285.7487487792969 450.271484375 294.3082580566406 451.6728515625 301.48846435546875 448.262939453125 C 308.7226257324219 444.82135009765625 313.2719421386719 436.4127197265625 312.1477355957031 428.4737548828125 C 311.02349853515625 420.5347900390625 304.3919372558594 413.66497802734375 296.4811706542969 412.3248291015625 L 296.68212890625 413.2745361328125" stroke-width="0.6000000238418579" fill="rgb(140, 28, 33)" opacity="1.0"/>
    <path d="M 325.97613525390625 387.41253662109375 C 318.6027526855469 388.0101318359375 310.9368896484375 388.7132568359375 304.4850769042969 392.34332275390625 C 298.0333557128906 395.97332763671875 293.1060791015625 403.4678649902344 294.8111267089844 410.67034912109375 C 296.9356994628906 419.556396484375 308.4851379394531 423.6275634765625 317.0328674316406 420.354248046875 C 325.58062744140625 417.0809326171875 331.1822814941406 408.7227478027344 334.3435974121094 400.1451110839844 C 335.5882263183594 397.587890625 335.82904052734375 394.6571044921875 335.0184326171875 391.93109130859375 C 333.9414367675781 389.34869384765625 330.1607666015625 387.8312072753906 328.20660400390625 389.8529968261719 L 325.97613525390625 387.41253662109375" stroke-width="0.6000000238418579" fill="rgb(159, 159, 159)" opacity="1.0"/>
    <path d="M 360.3769226074219 410.05902099609375 C 354.6864929199219 414.2210693359375 350.298095703125 420.42333984375 349.2530212402344 427.39178466796875 C 348.20794677734375 434.3602294921875 350.874267578125 442.00103759765625 356.6421813964844 446.1002197265625 C 360.72381591796875 448.9931640625 365.9909362792969 449.92706298828125 370.9618225097656 449.324462890625 C 375.9327392578125 448.721923828125 380.63916015625 446.693603515625 384.9328308105469 444.1156005859375 C 386.8006591796875 442.9925537109375 388.6786193847656 441.679443359375 389.6524963378906 439.7359619140625 C 390.77008056640625 437.5084228515625 390.496826171875 434.8656005859375 390.0790100097656 432.4010009765625 C 388.89935302734375 425.4427490234375 386.6083984375 418.40032958984375 381.74871826171875 413.2813720703125 C 376.8890380859375 408.1623229980469 368.9756774902344 405.47216796875 362.5148010253906 408.2705993652344 L 360.3769226074219 410.05902099609375" stroke-width="0.6000000238418579" fill="rgb(159, 159, 159)" opacity="1.0"/>
    <path d="M 254.42254638671875 368.62493896484375 C 255.38629150390625 361.2828674316406 256.1394958496094 353.080078125 251.69686889648438 347.173828125 C 247.38446044921875 341.4239196777344 239.61102294921875 339.7489013671875 232.51080322265625 338.6125183105469 C 229.625732421875 338.1551208496094 226.60025024414062 337.72259521484375 223.843505859375 338.6837158203125 C 219.18008422851562 340.3065185546875 216.67987060546875 345.3481750488281 215.41073608398438 350.112548828125 C 214.2310791015625 354.5342102050781 213.69244384765625 359.1023864746094 213.81130981445312 363.67718505859375 C 214.00161743164062 371.1054992675781 216.62957763671875 379.3523864746094 223.31951904296875 382.58050537109375 C 226.92864990234375 384.32855224609375 231.2147216796875 384.29803466796875 235.1005859375 383.28271484375 C 238.9864501953125 382.26739501953125 242.56097412109375 380.3256530761719 246.0625 378.3583679199219 C 249.56402587890625 376.39111328125 252.96246337890625 374.3830871582031 255.29083251953125 371.228759765625 L 254.42254638671875 368.62493896484375" stroke-width="0.6000000238418579" fill="rgb(218, 166, 20)" opacity="1.0"/>
    <path d="M 260.96142578125 383.76641845703125 C 253.08447265625 375.1087951660156 239.6805419921875 374.4759216308594 231.02288818359375 382.3528747558594 C 230.28155517578125 383.0273742675781 229.5889892578125 383.7536315917969 228.95037841796875 384.5261535644531 C 226.52447509765625 387.46197509765625 224.88070678710938 391.24078369140625 225.27337646484375 395.027099609375 C 225.6048583984375 398.226806640625 227.3248291015625 401.107421875 229.26165771484375 403.67315673828125 C 234.45556640625 410.5339050292969 241.39178466796875 415.8787841796875 249.34970092773438 419.152587890625 C 251.45465087890625 420.01446533203125 253.69198608398438 420.73626708984375 255.96575927734375 420.575927734375 C 259.7831726074219 420.30902099609375 263.05401611328125 417.556884765625 265.0750732421875 414.30419921875 C 268.0790100097656 409.4772644042969 268.84442138671875 403.4408874511719 267.7354431152344 397.86346435546875 C 266.62646484375 392.2860412597656 263.7580261230469 387.1531066894531 260.02850341796875 382.8609619140625 L 260.96142578125 383.76641845703125" stroke-width="0.6000000238418579" fill="rgb(143, 165, 67)" opacity="1.0"/>
    <path d="M 196.09210205078125 375.0577697753906 C 181.93832397460938 374.9281005859375 172.40704345703125 394.1172790527344 180.1651611328125 405.8470153808594 C 187.92333984375 417.57672119140625 208.2919921875 416.9140625 216.21112060546875 405.17718505859375 C 224.1302490234375 393.44024658203125 218.26739501953125 375.28240966796875 205.36013793945312 369.4307556152344 L 196.09210205078125 375.0577697753906" stroke-width="0.6000000238418579" fill="rgb(233, 92, 21)" opacity="1.0"/>
    <path d="M 254.85089111328125 374.07525634765625 C 251.91607666015625 379.5816955566406 248.98147583007812 386.463623046875 252.42630004882812 391.6916809082031 C 253.878173828125 393.7189025878906 255.92333984375 395.2456359863281 258.2796630859375 396.0612487792969 C 264.05548095703125 398.23614501953125 270.5272216796875 397.47662353515625 275.6425476074219 394.0235290527344 C 279.9742736816406 391.0832214355469 282.7893981933594 386.49481201171875 285.4068603515625 381.9977111816406 C 286.87310791015625 379.4691467285156 288.3503723144531 376.7359619140625 288.17596435546875 373.83428955078125 C 287.91180419921875 369.9685363769531 284.7873840332031 366.9414367675781 281.63134765625 364.6955261230469 C 277.0166015625 361.4028625488281 271.8993225097656 358.87884521484375 266.4779968261719 357.2213439941406 C 264.603759765625 356.65228271484375 262.6041564941406 356.182373046875 260.69952392578125 356.63665771484375 C 258.9502258300781 357.149658203125 257.387939453125 358.1605529785156 256.2032165527344 359.5461120605469 C 252.446044921875 363.6092224121094 250.66033935546875 369.1159973144531 251.3182373046875 374.6108093261719 L 254.85089111328125 374.07525634765625" stroke-width="0.6000000238418579" fill="rgb(70, 150, 179)" opacity="1.0"/>
    <path d="M 336.9356689453125 359.2691955566406 C 337.4313049316406 352.1424560546875 337.68145751953125 344.22222900390625 333.0904541015625 338.7547302246094 C 328.1551818847656 332.8843688964844 319.1225891113281 332.096435546875 311.8623962402344 334.5673522949219 C 309.062744140625 335.51885986328125 306.3089904785156 336.9565124511719 304.5335693359375 339.3206787109375 C 303.0733337402344 341.26361083984375 302.3883972167969 343.6678161621094 301.8636474609375 346.0404052734375 C 300.1999206542969 353.5203552246094 299.94775390625 361.876220703125 304.1171875 368.30340576171875 C 308.3238525390625 374.77813720703125 316.9352111816406 378.0570983886719 324.37750244140625 375.97503662109375 C 331.81982421875 373.89300537109375 337.54144287109375 366.68487548828125 337.81756591796875 358.9566345214844 L 336.9356689453125 359.2691955566406" stroke-width="0.6000000238418579" fill="rgb(140, 28, 33)" opacity="1.0"/>
    <path d="M 358.49932861328125 398.8976135253906 C 351.34014892578125 397.44561767578125 343.8746337890625 396.013671875 336.75946044921875 397.6910705566406 C 329.6444091796875 399.36846923828125 322.91748046875 405.1297607421875 322.56298828125 412.4300537109375 C 322.1455383300781 421.4423828125 331.98834228515625 428.4674072265625 340.9943542480469 427.70233154296875 C 350.0003356933594 426.937255859375 357.60357666015625 420.54132080078125 362.9515686035156 413.26885986328125 C 364.8326416015625 411.1834716796875 365.8636169433594 408.4688415527344 365.8409729003906 405.6605529785156 C 365.52630615234375 402.9156188964844 362.3548889160156 400.4406433105469 359.947265625 401.8237609863281 L 358.49932861328125 398.8976135253906" stroke-width="0.6000000238418579" fill="rgb(159, 159, 159)" opacity="1.0"/>
    <path d="M 178.1827392578125 408.559326171875 C 171.03900146484375 408.5062561035156 163.72149658203125 410.89959716796875 158.66058349609375 415.9364013671875 C 153.59967041015625 420.9732666015625 151.15139770507812 428.7996826171875 153.36614990234375 435.619384765625 C 154.9381103515625 440.43902587890625 158.65823364257812 444.38140869140625 163.0657958984375 446.89501953125 C 167.473388671875 449.40869140625 172.52737426757812 450.60272216796875 177.5777587890625 451.1002197265625 C 179.77569580078125 451.3154296875 182.0968017578125 451.38214111328125 184.0633544921875 450.3897705078125 C 186.3184814453125 449.2530517578125 187.69317626953125 446.938232421875 188.84262084960938 444.68096923828125 C 192.08770751953125 438.30816650390625 194.47970581054688 431.1953125 193.6199951171875 424.09478759765625 C 192.76025390625 416.9942626953125 187.94888305664062 410.02423095703125 181.00244140625 408.39642333984375 L 178.1827392578125 408.559326171875" stroke-width="0.6000000238418579" fill="rgb(159, 159, 159)" opacity="1.0"/>
    <path d="M 363.23541259765625 369.0798034667969 C 357.1296691894531 367.20025634765625 350.2614440917969 365.3755187988281 344.5965270996094 368.3016662597656 C 339.0834045410156 371.13958740234375 336.5365905761719 377.50958251953125 334.54510498046875 383.38470458984375 C 333.7395935058594 385.7725830078125 332.93499755859375 388.28350830078125 333.3545227050781 390.7669982910156 C 334.0616455078125 394.9677734375 337.98895263671875 397.8221435546875 341.8581237792969 399.58935546875 C 345.44873046875 401.23101806640625 349.2564697265625 402.34857177734375 353.1647644042969 402.9078369140625 C 359.51043701171875 403.8182373046875 366.9042663574219 402.7734680175781 370.61566162109375 397.54925537109375 C 372.6234436035156 394.7318115234375 373.2162170410156 391.0818786621094 372.91357421875 387.6301574707031 C 372.61090087890625 384.1784362792969 371.4753112792969 380.8577880859375 370.3074951171875 377.5955505371094 C 369.1396789550781 374.3333435058594 367.9222717285156 371.15289306640625 365.575439453125 368.7171325683594 L 363.23541259765625 369.0798034667969" stroke-width="0.6000000238418579" fill="rgb(218, 166, 20)" opacity="1.0"/>
    <path d="M 373.40045166015625 378.4317932128906 C 366.0264587402344 387.6508483886719 367.5221862792969 401.1021728515625 376.7412414550781 408.47613525390625 C 377.5306701660156 409.1075744628906 378.3638916015625 409.6822204589844 379.2346496582031 410.19573974609375 C 382.5436706542969 412.1463623046875 386.5682373046875 413.18426513671875 390.2773132324219 412.192626953125 C 393.41180419921875 411.3548889160156 396.0082092285156 409.184814453125 398.256591796875 406.8486633300781 C 404.266357421875 400.5870666503906 408.4898986816406 392.83050537109375 410.4885559082031 384.384765625 C 411.0130920410156 382.15142822265625 411.377197265625 379.8084411621094 410.8568115234375 377.569091796875 C 409.9854431152344 373.8091125488281 406.72540283203125 370.9877624511719 403.1650085449219 369.4906005859375 C 397.88067626953125 367.2641906738281 391.74676513671875 367.45928955078125 386.3672790527344 369.44854736328125 C 380.98779296875 371.43780517578125 376.3301696777344 375.10906982421875 372.64654541015625 379.504638671875 L 373.40045166015625 378.4317932128906" stroke-width="0.6000000238418579" fill="rgb(143, 165, 67)" opacity="1.0"/>
    <path d="M 365.9191589355469 361.5085754394531 C 371.8783264160156 374.08514404296875 392.9439697265625 374.2821044921875 399.9912109375 362.3853454589844 C 407.0384216308594 350.4885559082031 397.7113342285156 332.7541198730469 383.9300537109375 330.7852783203125 C 370.1488037109375 328.81646728515625 356.6016845703125 341.7951354980469 356.9640808105469 355.7244873046875 L 365.9191589355469 361.5085754394531" stroke-width="0.6000000238418579" fill="rgb(233, 92, 21)" opacity="1.0"/>
    <path d="M 403.74322509765625 352.91015625 C 402.72735595703125 359.7047424316406 402.2185974121094 367.9263916015625 407.7192687988281 372.081298828125 C 409.97265625 373.6495666503906 412.65716552734375 374.4800109863281 415.4024658203125 374.4579162597656 C 422.196533203125 374.5860595703125 428.63134765625 371.4132080078125 432.666259765625 365.94549560546875 C 436.0770263671875 361.2986145019531 437.3070068359375 355.5005798339844 438.36553955078125 349.87017822265625 C 438.955078125 346.7063903808594 439.4805908203125 343.32623291015625 438.23040771484375 340.3799133300781 C 436.53173828125 336.4664001464844 432.174560546875 334.4770202636719 428.072509765625 333.309814453125 C 422.0711669921875 331.59405517578125 415.83172607421875 330.86102294921875 409.59613037109375 331.1390686035156 C 407.44183349609375 331.2392578125 405.19403076171875 331.48858642578125 403.38531494140625 332.6617736816406 C 401.7593688964844 333.8386535644531 400.5109558105469 335.46319580078125 399.7923583984375 337.33734130859375 C 397.3913879394531 342.9374694824219 397.5679016113281 349.3089599609375 400.2752990722656 354.767578125 L 403.74322509765625 352.91015625" stroke-width="0.6000000238418579" fill="rgb(70, 150, 179)" opacity="1.0"/>
    <path d="M 389.36151123046875 421.489990234375 C 388.3094787597656 428.76434326171875 387.4488220214844 436.87158203125 391.7423095703125 442.8314208984375 C 396.3583068847656 449.2308349609375 405.5657653808594 450.72808837890625 413.2032470703125 448.74658203125 C 416.1483154296875 447.98382568359375 419.0833740234375 446.71875 421.085205078125 444.428466796875 C 422.73162841796875 442.54638671875 423.61773681640625 440.1318359375 424.3370361328125 437.737548828125 C 426.614501953125 430.18994140625 427.51043701171875 421.6358642578125 423.72265625 414.7235107421875 C 419.900390625 407.75958251953125 411.3150634765625 403.7386169433594 403.5203552246094 405.3072814941406 C 395.7256774902344 406.87591552734375 389.30548095703125 413.835205078125 388.4328308105469 421.74346923828125 L 389.36151123046875 421.489990234375" stroke-width="0.6000000238418579" fill="rgb(140, 28, 33)" opacity="1.0"/>
    <path d="M 412.3470458984375 377.49908447265625 C 410.603759765625 384.71173095703125 408.8692932128906 392.23614501953125 410.3043212890625 399.5218505859375 C 411.7393493652344 406.8074645996094 417.33453369140625 413.852783203125 424.731689453125 414.4873046875 C 433.864501953125 415.2501220703125 441.36590576171875 405.5229797363281 440.9281005859375 396.3522033691406 C 440.4903564453125 387.181396484375 434.283935546875 379.22271728515625 427.10284423828125 373.5202941894531 C 425.0567626953125 371.5323791503906 422.33984375 370.3836975097656 419.48834228515625 370.301025390625 C 416.69012451171875 370.5171813964844 414.0584716796875 373.64337158203125 415.371826171875 376.1393737792969 L 412.3470458984375 377.49908447265625" stroke-width="0.6000000238418579" fill="rgb(159, 159, 159)" opacity="1.0"/>
    <path d="M 434.67987060546875 370.95538330078125 C 436.135498046875 378.0013427734375 440.036865234375 384.7020568847656 446.0650634765625 388.6226501464844 C 452.09326171875 392.543212890625 460.3170166015625 393.30218505859375 466.5653076171875 389.6817626953125 C 470.9796142578125 387.116455078125 474.07666015625 382.6209716796875 475.62164306640625 377.75006103515625 C 477.1666259765625 372.879150390625 477.275634765625 367.65020751953125 476.6995849609375 362.57183837890625 C 476.4476318359375 360.36199951171875 476.0233154296875 358.062255859375 474.6309814453125 356.3351745605469 C 473.03564453125 354.3543701171875 470.46600341796875 353.4892272949219 468.00048828125 352.8337707519531 C 461.03997802734375 350.98333740234375 453.53070068359375 350.129150390625 446.719970703125 352.4744873046875 C 439.90924072265625 354.81982421875 434.06103515625 361.02899169921875 433.92431640625 368.21307373046875 L 434.67987060546875 370.95538330078125" stroke-width="0.6000000238418579" fill="rgb(159, 159, 159)" opacity="1.0"/>
    <path d="M 430.73724365234375 411.22772216796875 C 425.8380126953125 415.90228271484375 420.5947265625 421.310546875 420.3687744140625 428.0650634765625 C 420.1397705078125 434.6336669921875 424.71331787109375 440.286865234375 429.11663818359375 445.1702880859375 C 430.9083251953125 447.1514892578125 432.8143310546875 449.195556640625 435.32861328125 450.09307861328125 C 439.58026123046875 451.6136474609375 444.25341796875 449.4586181640625 447.8909912109375 446.794677734375 C 451.2681884765625 444.32330322265625 454.2730712890625 441.37982177734375 456.81353759765625 438.0543212890625 C 460.9405517578125 432.6561279296875 463.8017578125 425.27630615234375 460.890869140625 419.1390380859375 C 459.32421875 415.8233642578125 456.2550048828125 413.3856201171875 452.9056396484375 411.8787536621094 C 449.5562744140625 410.3718566894531 445.89691162109375 409.7032165527344 442.27496337890625 409.09466552734375 C 438.6529541015625 408.4861145019531 435.0810546875 407.9657287597656 431.6131591796875 408.87554931640625 L 430.73724365234375 411.22772216796875" stroke-width="0.6000000238418579" fill="rgb(218, 166, 20)" opacity="1.0"/>
    <path d="M 134.3683624267578 212.53546142578125 C 134.23297119140625 224.65447998046875 143.94760131835938 234.588623046875 156.06658935546875 234.72402954101562 C 157.10433959960938 234.73562622070312 158.1416015625 234.673583984375 159.17059326171875 234.53839111328125 C 163.08038330078125 234.02392578125 166.99179077148438 232.31878662109375 169.36480712890625 229.17160034179688 C 171.37042236328125 226.51217651367188 172.098388671875 223.1153564453125 172.43988037109375 219.80419921875 C 173.34176635742188 210.9398193359375 171.85369873046875 201.99566650390625 168.1302490234375 193.90078735351562 C 167.1424560546875 191.76275634765625 165.95556640625 189.637451171875 164.11880493164062 188.15521240234375 C 161.03668212890625 185.66497802734375 156.61602783203125 185.44418334960938 152.78965759277344 186.484375 C 147.1078338623047 188.02468872070312 142.26986694335938 192.06076049804688 139.176513671875 197.071044921875 C 136.0831756591797 202.08126831054688 134.63714599609375 207.99557495117188 134.43692016601562 213.8798828125 L 134.3683624267578 212.53546142578125" stroke-width="0.6000000238418579" fill="rgb(143, 165, 67)" opacity="1.0"/>
    <path d="M 169.7164306640625 263.538818359375 C 179.97262573242188 274.6136779785156 201.83322143554688 267.9663391113281 205.255859375 253.3648681640625 C 208.67840576171875 238.76336669921875 193.25994873046875 223.44696044921875 178.3602294921875 225.89190673828125 C 163.46047973632812 228.3367919921875 153.664306640625 246.17166137695312 158.56948852539062 260.46649169921875 L 169.7164306640625 263.538818359375" stroke-width="0.6000000238418579" fill="rgb(233, 92, 21)" opacity="1.0"/>
    <path d="M 145.2563934326172 313.2034912109375 C 139.2510223388672 316.6737976074219 132.4373779296875 321.4419860839844 132.61473083496094 328.3993225097656 C 132.79306030273438 331.1653137207031 133.82528686523438 333.8078308105469 135.56907653808594 335.9622497558594 C 139.74020385742188 341.4090270996094 146.29261779785156 344.4961853027344 153.14845275878906 344.2447814941406 C 158.96353149414062 344.0166015625 164.31643676757812 341.34210205078125 169.42913818359375 338.6375732421875 C 172.2987060546875 337.1136779785156 175.29891967773438 335.4032287597656 176.83984375 332.5630187988281 C 178.86270141601562 328.7604675292969 177.69403076171875 324.06805419921875 176.036376953125 320.0940856933594 C 173.61767578125 314.275146484375 170.27310180664062 308.8860778808594 166.13235473632812 304.1358947753906 C 164.698486328125 302.49737548828125 163.08807373046875 300.8787841796875 161.02407836914062 300.1879577636719 C 159.07211303710938 299.6437683105469 157.00396728515625 299.6793212890625 155.0718231201172 300.2902526855469 C 149.13885498046875 301.91546630859375 144.21746826171875 306.0614929199219 141.6085968017578 311.6324462890625 L 145.2563934326172 313.2034912109375" stroke-width="0.6000000238418579" fill="rgb(70, 150, 179)" opacity="1.0"/>
    <path d="M 121.43498229980469 301.0335388183594 C 122.24935913085938 293.4961853027344 122.8355712890625 285.107421875 118.18865966796875 279.12347412109375 C 113.19300842285156 272.6983642578125 103.646484375 271.4967956542969 95.84738159179688 273.8228454589844 C 92.83999633789062 274.7183837890625 89.86155700683594 276.13134765625 87.88302612304688 278.5664367675781 C 86.25579833984375 280.567626953125 85.43206787109375 283.0893859863281 84.77947998046875 285.5840759277344 C 82.71206665039062 293.44866943359375 82.10609436035156 302.2992858886719 86.26705932617188 309.2838439941406 C 90.46556091308594 316.3203430175781 99.4644775390625 320.14642333984375 107.44091796875 318.2401123046875 C 115.41737365722656 316.3338317871094 121.77688598632812 308.9219055175781 122.38284301757812 300.7378234863281 L 121.43498229980469 301.0335388183594" stroke-width="0.6000000238418579" fill="rgb(140, 28, 33)" opacity="1.0"/>
    <path d="M 143.91259765625 268.6059265136719 C 137.55938720703125 272.5595397949219 130.99209594726562 276.7435302734375 126.87254333496094 282.99688720703125 C 122.75308227539062 289.25018310546875 121.79487609863281 298.2721252441406 126.66513061523438 303.95855712890625 C 132.69259643554688 310.96441650390625 144.9639892578125 309.2740783691406 151.13345336914062 302.3703918457031 C 157.30291748046875 295.4667053222656 158.4674072265625 285.35577392578125 157.3358154296875 276.1781311035156 C 157.2701416015625 273.3020324707031 156.1287841796875 270.5551452636719 154.1368865966797 268.4794921875 C 151.97201538085938 266.65643310546875 147.86935424804688 267.0435485839844 147.04893493652344 269.7669372558594 L 143.91259765625 268.6059265136719" stroke-width="0.6000000238418579" fill="rgb(159, 159, 159)" opacity="1.0"/>
    <path d="M 160.50360107421875 284.4309387207031 C 160.1181640625 292.0033874511719 162.3187255859375 299.8728332519531 167.42633056640625 305.4713134765625 C 172.533935546875 311.06976318359375 180.71987915039062 314.0264587402344 188.05328369140625 311.9923095703125 C 193.23626708984375 310.5475769042969 197.5880126953125 306.78460693359375 200.45648193359375 302.2268371582031 C 203.324951171875 297.6690979003906 204.82391357421875 292.3650817871094 205.584228515625 287.03277587890625 C 205.9136962890625 284.71209716796875 206.09136962890625 282.2539978027344 205.12969970703125 280.123046875 C 204.0283203125 277.6794128417969 201.63717651367188 276.1150817871094 199.296630859375 274.792236328125 C 192.688720703125 271.0576477050781 185.25677490234375 268.1934814453125 177.6881103515625 268.77789306640625 C 170.11944580078125 269.3623046875 162.5069580078125 274.1428527832031 160.4608154296875 281.4335632324219 L 160.50360107421875 284.4309387207031" stroke-width="0.6000000238418579" fill="rgb(159, 159, 159)" opacity="1.0"/>
    <path d="M 127.6973876953125 348.63818359375 C 128.27052307128906 341.1191101074219 128.5818634033203 332.7364807128906 123.73716735839844 326.9769592285156 C 119.0335693359375 321.36920166015625 111.03643798828125 320.0967102050781 103.75369262695312 319.3346252441406 C 100.79470825195312 319.0293884277344 97.69432067871094 318.75726318359375 94.94444274902344 319.8872985839844 C 90.29241943359375 321.79583740234375 88.02946472167969 327.0609130859375 87.00297546386719 331.9757995605469 C 86.04844665527344 336.53729248046875 85.75387573242188 341.21221923828125 86.12825012207031 345.85748291015625 C 86.73338317871094 353.4002685546875 89.862548828125 361.6404113769531 96.84400939941406 364.5521545410156 C 100.61074829101562 366.129638671875 104.96728515625 365.8611145019531 108.86231994628906 364.6134033203125 C 112.75735473632812 363.36566162109375 116.28445434570312 361.1931457519531 119.73591613769531 358.99871826171875 C 123.1873779296875 356.8043518066406 126.53176879882812 354.5741882324219 128.7245635986328 351.23773193359375 L 127.6973876953125 348.63818359375" stroke-width="0.6000000238418579" fill="rgb(218, 166, 20)" opacity="1.0"/>
    <path d="M 151.14572143554688 343.5893249511719 C 139.8968048095703 345.21844482421875 132.09841918945312 355.65814208984375 133.7275390625 366.9070739746094 C 133.86703491210938 367.8703308105469 134.07470703125 368.82244873046875 134.34893798828125 369.7563171386719 C 135.3916778564453 373.3045959472656 137.53793334960938 376.6820068359375 140.7976531982422 378.4251708984375 C 143.55221557617188 379.89849853515625 146.80508422851562 380.0812683105469 149.92257690429688 379.9183044433594 C 158.26675415039062 379.4705810546875 166.3388671875 376.79681396484375 173.3004150390625 372.1747741699219 C 175.13848876953125 370.9499206542969 176.9359130859375 369.54248046875 178.04339599609375 367.6259460449219 C 179.90460205078125 364.4095764160156 179.46917724609375 360.2814636230469 177.95138549804688 356.8865966796875 C 175.70150756835938 351.84490966796875 171.26129150390625 347.9464416503906 166.1710205078125 345.8055725097656 C 161.08071899414062 343.6647033691406 155.39125061035156 343.18109130859375 149.909912109375 343.8475036621094 L 151.14572143554688 343.5893249511719" stroke-width="0.6000000238418579" fill="rgb(143, 165, 67)" opacity="1.0"/>
    <path d="M 138.37258911132812 376.36676025390625 C 135.21766662597656 362.9577331542969 114.87179565429688 358.3916931152344 105.58064270019531 368.4413146972656 C 96.28952026367188 378.490966796875 101.63250732421875 397.5911865234375 114.56072998046875 402.3590087890625 C 127.48892211914062 407.1268005371094 143.29522705078125 397.3802185058594 145.83770751953125 383.824462890625 L 138.37258911132812 376.36676025390625" stroke-width="0.6000000238418579" fill="rgb(233, 92, 21)" opacity="1.0"/>
    <path d="M 178.33279418945312 353.147216796875 C 177.4068603515625 360.23724365234375 177.0361328125 368.802490234375 182.84027099609375 373.0198669433594 C 185.21542358398438 374.60833740234375 188.02496337890625 375.420654296875 190.88128662109375 375.34466552734375 C 197.95367431640625 375.3468933105469 204.58840942382812 371.9210205078125 208.68157958984375 366.1534423828125 C 212.14114379882812 361.2520751953125 213.30914306640625 355.1949462890625 214.30197143554688 349.3155212402344 C 214.85430908203125 346.0119323730469 215.33596801757812 342.4844055175781 213.9781494140625 339.4425964355469 C 212.135009765625 335.40301513671875 207.56256103515625 333.4169921875 203.27139282226562 332.28155517578125 C 196.99331665039062 330.61199951171875 190.48641967773438 329.9696350097656 184.0030517578125 330.37933349609375 C 181.76324462890625 330.5251770019531 179.42901611328125 330.8280334472656 177.56951904296875 332.083740234375 C 175.9002685546875 333.33978271484375 174.632568359375 335.05438232421875 173.92095947265625 337.0184631347656 C 171.53057861328125 342.89227294921875 171.8372802734375 349.51904296875 174.75994873046875 355.14697265625 L 178.33279418945312 353.147216796875" stroke-width="0.6000000238418579" fill="rgb(70, 150, 179)" opacity="1.0"/>
  </g>
</svg>
