<?xml version="1.0" ?>
<svg xmlns="http://www.w3.org/2000/svg" version="1.1" width="600" height="600">
  <defs/>
  <g>
    <path d="M 351.3592529296875 344.04974365234375 C 356.0234680175781 347.2614440917969 363.47998046875 343.0323791503906 363.5334777832031 337.4060363769531 C 363.58697509765625 331.77972412109375 356.6846008300781 327.4393310546875 351.4310607910156 329.5582580566406 C 346.1775207519531 331.67718505859375 344.05645751953125 339.0107116699219 347.02630615234375 343.8406982421875 L 351.3592529296875 344.04974365234375" stroke-width="0.6000000238418579" fill="rgb(233, 92, 21)" opacity="1.0"/>
    <path d="M 124.65510559082031 209.74465942382812 C 128.95928955078125 209.41314697265625 134.06637573242188 208.57073974609375 135.83909606933594 204.61843872070312 C 136.4833526611328 203.01812744140625 136.61517333984375 201.25732421875 136.21629333496094 199.5789794921875 C 135.34112548828125 195.399658203125 132.4945831298828 191.90380859375 128.57931518554688 190.19998168945312 C 125.25439453125 188.76315307617188 121.53053283691406 188.82366943359375 117.93339538574219 188.96563720703125 C 115.91287231445312 189.04864501953125 113.768798828125 189.20120239257812 112.13969421386719 190.3804931640625 C 109.98114013671875 191.97021484375 109.374267578125 194.91815185546875 109.23516845703125 197.594482421875 C 109.02667236328125 201.51104736328125 109.45347595214844 205.435546875 110.4990234375 209.21572875976562 C 110.86280822753906 210.52114868164062 111.33102416992188 211.8629150390625 112.303466796875 212.8060302734375 C 113.25250244140625 213.63671875 114.42276000976562 214.17330932617188 115.6715087890625 214.35040283203125 C 119.43853759765625 215.034912109375 123.31622314453125 214.03244018554688 126.27952575683594 211.60800170898438 L 124.65510559082031 209.74465942382812" stroke-width="0.6000000238418579" fill="rgb(70, 150, 179)" opacity="1.0"/>
    <path d="M 454.951416015625 410.4120788574219 C 457.596923828125 413.0557861328125 460.6402587890625 415.8751220703125 464.37744140625 415.939208984375 C 468.3919677734375 416.00567626953125 471.8057861328125 412.70751953125 473.3233642578125 408.9903259277344 C 473.9090576171875 407.557373046875 474.286865234375 405.9755554199219 473.962646484375 404.4620361328125 C 473.696533203125 403.2177429199219 472.98193359375 402.1213073730469 472.2247314453125 401.09906005859375 C 469.84088134765625 397.8724670410156 466.6260986328125 394.9027404785156 462.65460205078125 394.3424377441406 C 458.6514892578125 393.780517578125 454.398193359375 396.05657958984375 452.6644287109375 399.712158203125 C 450.9307861328125 403.3677673339844 451.8133544921875 408.104248046875 454.77197265625 410.8678894042969 L 454.951416015625 410.4120788574219" stroke-width="0.6000000238418579" fill="rgb(140, 28, 33)" opacity="1.0"/>
    <path d="M 89.82730102539062 208.50836181640625 C 94.18524169921875 208.31036376953125 98.71774291992188 208.05624389648438 102.59596252441406 206.05181884765625 C 106.47410583496094 204.04736328125 109.53466796875 199.73358154296875 108.68038940429688 195.45318603515625 C 107.61407470703125 190.171875 100.89265441894531 187.5311279296875 95.78668212890625 189.281494140625 C 90.68070983886719 191.0318603515625 87.20466613769531 195.84054565429688 85.1622314453125 200.82958984375 C 84.37525939941406 202.3106689453125 84.17205810546875 204.0328369140625 84.59280395507812 205.6563720703125 C 85.17350769042969 207.20077514648438 87.36988830566406 208.17413330078125 88.56382751464844 207.02349853515625 L 89.82730102539062 208.50836181640625" stroke-width="0.6000000238418579" fill="rgb(159, 159, 159)" opacity="1.0"/>
    <path d="M 382.3766784667969 305.8918151855469 C 386.13238525390625 304.7347717285156 389.5734558105469 302.2657775878906 391.39251708984375 298.7845458984375 C 393.2115783691406 295.3033142089844 393.1976013183594 290.7922668457031 390.9048156738281 287.5826416015625 C 389.28094482421875 285.3154602050781 386.67584228515625 283.86468505859375 383.9471435546875 283.27734375 C 381.21844482421875 282.6899719238281 378.36956787109375 282.9019775390625 375.6380920410156 283.4786682128906 C 374.4495849609375 283.7303466796875 373.2210998535156 284.0803527832031 372.354248046875 284.9270324707031 C 371.3599548339844 285.89727783203125 371.0228576660156 287.3393859863281 370.79437255859375 288.7139892578125 C 370.1493225097656 292.59478759765625 370.074462890625 296.72222900390625 371.7030944824219 300.3038635253906 C 373.3316955566406 303.885498046875 377.0113525390625 306.7432861328125 380.92474365234375 306.4449462890625 L 382.3766784667969 305.8918151855469" stroke-width="0.6000000238418579" fill="rgb(159, 159, 159)" opacity="1.0"/>
    <path d="M 102.60011291503906 423.6944580078125 C 104.88825988769531 421.2869873046875 107.32736206054688 418.511962890625 107.2762451171875 415.197509765625 C 107.23109436035156 411.97412109375 104.8551025390625 409.3141784667969 102.58096313476562 407.02728271484375 C 101.65574645996094 406.0996398925781 100.67304992675781 405.1439208984375 99.4197998046875 404.7644348144531 C 97.300537109375 404.1213684082031 95.06277465820312 405.2890319824219 93.34457397460938 406.6812744140625 C 91.74929809570312 407.9728698730469 90.34774780273438 409.4868469238281 89.18283081054688 411.1768493652344 C 87.29031372070312 413.9202880859375 86.0654296875 417.6041259765625 87.63848876953125 420.541015625 C 88.48539733886719 422.1278076171875 90.04739379882812 423.24853515625 91.72433471679688 423.906494140625 C 93.40127563476562 424.56451416015625 95.20997619628906 424.804443359375 96.99893188476562 425.0157470703125 C 98.78790283203125 425.2271728515625 100.55026245117188 425.396484375 102.22735595703125 424.86773681640625 L 102.60011291503906 423.6944580078125" stroke-width="0.6000000238418579" fill="rgb(218, 166, 20)" opacity="1.0"/>
    <path d="M 99.7059326171875 150.765625 C 106.95956420898438 151.91201782226562 113.76914978027344 146.9611358642578 114.91555786132812 139.70750427246094 C 115.01373291015625 139.08636474609375 115.06768798828125 138.4590606689453 115.07708740234375 137.8302764892578 C 115.11233520507812 135.4410858154297 114.43386840820312 132.9462432861328 112.75564575195312 131.24696350097656 C 111.33758544921875 129.81080627441406 109.3651123046875 129.07579040527344 107.4100341796875 128.58001708984375 C 102.17498779296875 127.26019287109375 96.6820068359375 127.36614990234375 91.50172424316406 128.88687133789062 C 90.13310241699219 129.29115295410156 88.754638671875 129.81591796875 87.70455932617188 130.78680419921875 C 85.94070434570312 132.41567993164062 85.41976928710938 135.04653930664062 85.70706176757812 137.43194580078125 C 86.13108825683594 140.9736785888672 88.12554931640625 144.2288818359375 90.85737609863281 146.52377319335938 C 93.58920288085938 148.81866455078125 97.00782775878906 150.2054443359375 100.51797485351562 150.8426971435547 L 99.7059326171875 150.765625" stroke-width="0.6000000238418579" fill="rgb(143, 165, 67)" opacity="1.0"/>
    <path d="M 460.02471923828125 346.34710693359375 C 463.06903076171875 353.8913269042969 475.35498046875 354.7317810058594 479.8770751953125 348.0321960449219 C 484.399169921875 341.3326110839844 479.567138671875 330.66253662109375 471.593017578125 329.0390319824219 C 463.61883544921875 327.4154968261719 455.2664794921875 334.52252197265625 454.99822998046875 342.6634216308594 L 460.02471923828125 346.34710693359375" stroke-width="0.6000000238418579" fill="rgb(233, 92, 21)" opacity="1.0"/>
    <path d="M 106.53599548339844 225.6700439453125 C 109.22128295898438 222.18585205078125 112.06756591796875 217.74539184570312 110.28520202636719 213.70736694335938 C 109.51336669921875 212.12799072265625 108.27044677734375 210.8270263671875 106.7279052734375 209.9840087890625 C 102.96737670898438 207.79544067382812 98.37934875488281 207.56533813476562 94.41871643066406 209.36663818359375 C 91.06292724609375 210.90325927734375 88.56837463378906 213.7633056640625 86.22193908691406 216.5830078125 C 84.90643310546875 218.1690673828125 83.55926513671875 219.8961181640625 83.34059143066406 221.9337158203125 C 83.07139587402344 224.652099609375 84.88885498046875 227.12249755859375 86.81979370117188 229.05355834960938 C 89.64218139648438 231.8831787109375 92.90397644042969 234.2373046875 96.4786376953125 236.02462768554688 C 97.71493530273438 236.63980102539062 99.04998779296875 237.20071411132812 100.42726135253906 237.10800170898438 C 101.70346069335938 236.956298828125 102.907958984375 236.43655395507812 103.89385986328125 235.61212158203125 C 106.98179626464844 233.22763061523438 108.86825561523438 229.60858154296875 109.05459594726562 225.71160888671875 L 106.53599548339844 225.6700439453125" stroke-width="0.6000000238418579" fill="rgb(70, 150, 179)" opacity="1.0"/>
    <path d="M 106.01358032226562 82.38897705078125 C 106.333251953125 86.57688903808594 106.8634033203125 91.20542907714844 110.00041198730469 93.99423217773438 C 113.3720703125 96.98797607421875 118.69354248046875 96.67576599121094 122.70600891113281 94.61907958984375 C 124.25338745117188 93.82675170898438 125.73260498046875 92.75555419921875 126.56369018554688 91.22885131835938 C 127.24736022949219 89.97409057617188 127.440673828125 88.51712036132812 127.54351806640625 87.09222412109375 C 127.87321472167969 82.59919738769531 127.30706787109375 77.71707153320312 124.33340454101562 74.33407592773438 C 121.33404541015625 70.92658996582031 116.04510498046875 69.75384521484375 111.89352416992188 71.599853515625 C 107.741943359375 73.44587707519531 105.02857971191406 78.126953125 105.52725219726562 82.64602661132812 L 106.01358032226562 82.38897705078125" stroke-width="0.6000000238418579" fill="rgb(140, 28, 33)" opacity="1.0"/>
    <path d="M 92.88442993164062 407.48065185546875 C 96.26608276367188 405.0153503417969 99.75772094726562 402.4128112792969 101.79937744140625 398.7562561035156 C 103.84097290039062 395.09979248046875 104.00601196289062 390.02850341796875 101.0567626953125 387.0562744140625 C 97.40802001953125 383.3955078125 90.63279724121094 384.84075927734375 87.47442626953125 388.9439697265625 C 84.3160400390625 393.0471496582031 84.08055114746094 398.7342834472656 85.08749389648438 403.80682373046875 C 85.24188232421875 405.4083251953125 85.99095153808594 406.8936767578125 87.18695068359375 407.9698181152344 C 88.46905517578125 408.89801025390625 90.74150085449219 408.51409912109375 91.08758544921875 406.9615173339844 L 92.88442993164062 407.48065185546875" stroke-width="0.6000000238418579" fill="rgb(159, 159, 159)" opacity="1.0"/>
    <path d="M 477.63525390625 70.44805908203125 C 478.671142578125 67.04495239257812 478.563720703125 63.21281433105469 476.87493896484375 60.08406066894531 C 475.1861572265625 56.95530700683594 471.7960205078125 54.67926025390625 468.226806640625 54.771881103515625 C 465.703369140625 54.840545654296875 463.294921875 56.058929443359375 461.4713134765625 57.8076171875 C 459.647705078125 59.556304931640625 458.3626708984375 61.80029296875 457.41064453125 64.14109802246094 C 456.9969482421875 65.16000366210938 456.6368408203125 66.25872802734375 456.8323974609375 67.33798217773438 C 457.0560302734375 68.57545471191406 457.96673583984375 69.55923461914062 458.8818359375 70.42733764648438 C 461.46527099609375 72.87815856933594 464.52276611328125 75.02639770507812 468.0343017578125 75.62043762207031 C 471.5458984375 76.2144775390625 475.55426025390625 74.90342712402344 477.3140869140625 71.81729125976562 L 477.63525390625 70.44805908203125" stroke-width="0.6000000238418579" fill="rgb(159, 159, 159)" opacity="1.0"/>
    <path d="M 89.40664672851562 109.55287170410156 C 93.46963500976562 110.76789855957031 98.03848266601562 111.94244384765625 101.78318786621094 109.96981811523438 C 105.4276123046875 108.05657958984375 107.08415222167969 103.81460571289062 108.37471008300781 99.90409851074219 C 108.89663696289062 98.31472778320312 109.41732788085938 96.64369201660156 109.12556457519531 94.99740600585938 C 108.63374328613281 92.21273803710938 106.01156616210938 90.33900451660156 103.43380737304688 89.18661499023438 C 101.04159545898438 88.11605834960938 98.50807189941406 87.39457702636719 95.9107666015625 87.04421997070312 C 91.69369506835938 86.47378540039062 86.79129028320312 87.20680236816406 84.3555908203125 90.69442749023438 C 83.03788757324219 92.57534790039062 82.66390991210938 95.0013427734375 82.88325500488281 97.29095458984375 C 83.10260009765625 99.58056640625 83.87413024902344 101.77873229980469 84.666748046875 103.93792724609375 C 85.45936584472656 106.09713745117188 86.28445434570312 108.20179748535156 87.85528564453125 109.80609130859375 L 89.40664672851562 109.55287170410156" stroke-width="0.6000000238418579" fill="rgb(218, 166, 20)" opacity="1.0"/>
    <path d="M 128.26922607421875 137.724609375 C 135.05003356933594 137.14456176757812 140.0767364501953 131.1774139404297 139.49668884277344 124.3966064453125 C 139.447021484375 123.81596374511719 139.35621643066406 123.23959350585938 139.22499084472656 122.67178344726562 C 138.7259063720703 120.51437377929688 137.56124877929688 118.42050170898438 135.673828125 117.26446533203125 C 134.07891845703125 116.28739929199219 132.1409912109375 116.06431579589844 130.27188110351562 116.0526123046875 C 125.26866149902344 116.02816772460938 120.35015869140625 117.34381103515625 116.02728271484375 119.86288452148438 C 114.8857421875 120.53065490722656 113.76211547851562 121.30902099609375 113.03305053710938 122.41581726074219 C 111.8079833984375 124.273193359375 111.92376708984375 126.75592041015625 112.71217346191406 128.83824157714844 C 113.88050842285156 131.93055725097656 116.39810180664062 134.41616821289062 119.36578369140625 135.87399291992188 C 122.33343505859375 137.33181762695312 125.71726989746094 137.8200225830078 129.01693725585938 137.61355590820312 L 128.26922607421875 137.724609375" stroke-width="0.6000000238418579" fill="rgb(143, 165, 67)" opacity="1.0"/>
    <path d="M 396.9151306152344 308.2592468261719 C 399.9662170410156 315.4864501953125 411.8249206542969 316.1081237792969 416.0821533203125 309.5791320800781 C 420.33935546875 303.05010986328125 415.5166015625 292.83648681640625 407.80322265625 291.3935546875 C 400.08978271484375 289.9506530761719 392.1457824707031 296.9313659667969 392.01214599609375 304.78472900390625 L 396.9151306152344 308.2592468261719" stroke-width="0.6000000238418579" fill="rgb(233, 92, 21)" opacity="1.0"/>
    <path d="M 127.04862976074219 114.32353210449219 C 131.2278289794922 113.66061401367188 136.15121459960938 112.43528747558594 137.57191467285156 108.43415832519531 C 138.0753173828125 106.81988525390625 138.06541442871094 105.08915710449219 137.5435028076172 103.48075866699219 C 136.35926818847656 99.46641540527344 133.30276489257812 96.27508544921875 129.34323120117188 94.91877746582031 C 125.98153686523438 93.77685546875 122.34799194335938 94.1292724609375 118.84466552734375 94.55130004882812 C 116.87710571289062 94.79156494140625 114.7943115234375 95.10951232910156 113.29551696777344 96.39002990722656 C 111.311767578125 98.11322021484375 110.9510498046875 101.041259765625 111.02592468261719 103.66705322265625 C 111.13070678710938 107.51007080078125 111.85682678222656 111.31076049804688 113.17611694335938 114.9217529296875 C 113.63435363769531 116.16854858398438 114.197509765625 117.44259643554688 115.22189331054688 118.28746032714844 C 116.21455383300781 119.02430725097656 117.40017700195312 119.45640563964844 118.63418579101562 119.53105163574219 C 122.36859130859375 119.90312194824219 126.07823181152344 118.61827087402344 128.78250122070312 116.01611328125 L 127.04862976074219 114.32353210449219" stroke-width="0.6000000238418579" fill="rgb(70, 150, 179)" opacity="1.0"/>
    <path d="M 422.64208984375 63.706817626953125 C 424.12176513671875 66.40882873535156 425.8753662109375 69.34165954589844 428.8148193359375 70.2569580078125 C 431.9730224609375 71.23829650878906 435.43475341796875 69.4208984375 437.494384765625 66.83346557617188 C 438.2889404296875 65.836181640625 438.95361328125 64.67314147949219 439.0474853515625 63.40165710449219 C 439.125 62.3564453125 438.813720703125 61.324371337890625 438.45166015625 60.341064453125 C 437.313720703125 57.23884582519531 435.45947265625 54.14744567871094 432.44952392578125 52.785675048828125 C 429.4150390625 51.415313720703125 425.52606201171875 52.23051452636719 423.30975341796875 54.71922302246094 C 421.093505859375 57.20793151855469 420.69537353515625 61.15643310546875 422.394775390625 64.025634765625 L 422.64208984375 63.706817626953125" stroke-width="0.6000000238418579" fill="rgb(140, 28, 33)" opacity="1.0"/>
    <path d="M 119.75712585449219 422.6844482421875 C 122.10610961914062 419.5562744140625 124.515869140625 416.2752685546875 125.34135437011719 412.448486328125 C 126.16680908203125 408.6217956542969 124.92799377441406 404.04339599609375 121.47909545898438 402.1927185058594 C 117.21670532226562 399.9177551269531 111.5552978515625 403.06182861328125 109.85366821289062 407.5931396484375 C 108.15203857421875 412.12445068359375 109.4962158203125 417.27264404296875 111.78300476074219 421.53179931640625 C 112.35881042480469 422.92120361328125 113.43447875976562 424.044189453125 114.79777526855469 424.67919921875 C 116.1976318359375 425.158447265625 118.1240234375 424.194091796875 118.00897216796875 422.7115478515625 L 119.75712585449219 422.6844482421875" stroke-width="0.6000000238418579" fill="rgb(159, 159, 159)" opacity="1.0"/>
    <path d="M 475.24310302734375 444.0517578125 C 476.67431640625 440.92572021484375 477.0655517578125 437.2412109375 475.8515625 434.02655029296875 C 474.637451171875 430.8118896484375 471.6837158203125 428.19451904296875 468.2530517578125 427.8228759765625 C 465.8271484375 427.563232421875 463.363037109375 428.4195556640625 461.3907470703125 429.859375 C 459.41845703125 431.2991943359375 457.898193359375 433.2828369140625 456.6844482421875 435.4022216796875 C 456.15673828125 436.3248291015625 455.6700439453125 437.330810546875 455.71820068359375 438.3897705078125 C 455.7728271484375 439.60394287109375 456.51824951171875 440.6636962890625 457.28277587890625 441.61328125 C 459.4412841796875 444.2939453125 462.09283447265625 446.7459716796875 465.3797607421875 447.76788330078125 C 468.666748046875 448.789794921875 472.67523193359375 448.05096435546875 474.7589111328125 445.3218994140625 L 475.24310302734375 444.0517578125" stroke-width="0.6000000238418579" fill="rgb(159, 159, 159)" opacity="1.0"/>
    <path d="M 452.24798583984375 295.66693115234375 C 452.10980224609375 291.3490295410156 451.7691650390625 286.55548095703125 448.6539306640625 283.57452392578125 C 445.62847900390625 280.6712646484375 440.9951171875 280.4407043457031 436.80010986328125 280.4566650390625 C 435.095947265625 280.4656677246094 433.3133544921875 280.50225830078125 431.8170166015625 281.3157958984375 C 429.28533935546875 282.6902770996094 428.32183837890625 285.8288269042969 428.0408935546875 288.6915283203125 C 427.77911376953125 291.3485107421875 427.9002685546875 294.029296875 428.4005126953125 296.65185546875 C 429.21124267578125 300.91046142578125 431.502685546875 305.4102783203125 435.6588134765625 306.6372375488281 C 437.90167236328125 307.3029479980469 440.3663330078125 306.88079833984375 442.5076904296875 305.9294738769531 C 444.64892578125 304.9781494140625 446.5235595703125 303.5228271484375 448.353759765625 302.0597229003906 C 450.1839599609375 300.5966491699219 451.950927734375 299.1197814941406 452.99365234375 297.0840148925781 L 452.24798583984375 295.66693115234375" stroke-width="0.6000000238418579" fill="rgb(218, 166, 20)" opacity="1.0"/>
    <path d="M 425.386474609375 370.3243408203125 C 423.1700439453125 372.72576904296875 423.3199462890625 376.46929931640625 425.72137451171875 378.6857604980469 C 425.927001953125 378.87554931640625 426.1458740234375 379.050537109375 426.376220703125 379.2093505859375 C 427.2518310546875 379.8127136230469 428.34283447265625 380.1780090332031 429.3863525390625 379.9767150878906 C 430.268310546875 379.80670166015625 431.0277099609375 379.2582702636719 431.6942138671875 378.6571350097656 C 433.47613525390625 377.0456848144531 434.7940673828125 374.9864807128906 435.5111083984375 372.6934509277344 C 435.69964599609375 372.0870361328125 435.845947265625 371.4471740722656 435.74609375 370.81866455078125 C 435.5789794921875 369.7633972167969 434.7340087890625 368.9205627441406 433.7801513671875 368.4375305175781 C 432.36456298828125 367.71942138671875 430.6669921875 367.6533203125 429.1427001953125 368.097412109375 C 427.61834716796875 368.54150390625 426.26043701171875 369.4641418457031 425.1573486328125 370.6058349609375 L 425.386474609375 370.3243408203125" stroke-width="0.6000000238418579" fill="rgb(143, 165, 67)" opacity="1.0"/>
    <path d="M 454.1640625 347.5060729980469 C 460.66339111328125 344.1109313964844 460.33544921875 333.01611328125 453.92755126953125 329.5495910644531 C 447.5196533203125 326.0830993652344 438.373779296875 331.3570861816406 437.61962890625 338.6531066894531 C 436.865478515625 345.9490966796875 443.97613525390625 352.8155517578125 451.3023681640625 352.3393249511719 L 454.1640625 347.5060729980469" stroke-width="0.6000000238418579" fill="rgb(233, 92, 21)" opacity="1.0"/>
    <path d="M 450.925537109375 67.85383605957031 C 454.66192626953125 67.56207275390625 459.0948486328125 66.8260498046875 460.6302490234375 63.393218994140625 C 461.1881103515625 62.00331115722656 461.3009033203125 60.47454833984375 460.953125 59.017822265625 C 460.18951416015625 55.390350341796875 457.715087890625 52.358001708984375 454.314453125 50.88238525390625 C 451.426513671875 49.63804626464844 448.1937255859375 49.6939697265625 445.0709228515625 49.820526123046875 C 443.31689453125 49.89445495605469 441.4556884765625 50.02886962890625 440.04241943359375 51.054168701171875 C 438.169921875 52.43626403808594 437.645751953125 54.99610900878906 437.5274658203125 57.3197021484375 C 437.35003662109375 60.7200927734375 437.72412109375 64.12677001953125 438.63531494140625 67.40760803222656 C 438.95233154296875 68.54058837890625 439.36004638671875 69.70501708984375 440.20513916015625 70.52291870117188 C 441.02978515625 71.24319458007812 442.0462646484375 71.70797729492188 443.13055419921875 71.86056518554688 C 446.40155029296875 72.45138549804688 449.76708984375 71.57754516601562 452.33746337890625 69.47001647949219 L 450.925537109375 67.85383605957031" stroke-width="0.6000000238418579" fill="rgb(70, 150, 179)" opacity="1.0"/>
    <path d="M 456.4541015625 402.0843811035156 C 456.30987548828125 399.02923583984375 456.021728515625 395.64886474609375 453.7972412109375 393.5526123046875 C 451.40625 391.3022155761719 447.52606201171875 391.4170837402344 444.5618896484375 392.82940673828125 C 443.4188232421875 393.3734436035156 442.3194580078125 394.1219482421875 441.6822509765625 395.2156677246094 C 441.1580810546875 396.1145935058594 440.98663330078125 397.1710510253906 440.8817138671875 398.2060546875 C 440.5467529296875 401.4696044921875 440.855712890625 405.0352783203125 442.9488525390625 407.56060791015625 C 445.06005859375 410.10430908203125 448.88519287109375 411.0696716308594 451.9461669921875 409.81365966796875 C 455.007080078125 408.5576171875 457.0810546875 405.2075500488281 456.81353759765625 401.90753173828125 L 456.4541015625 402.0843811035156" stroke-width="0.6000000238418579" fill="rgb(140, 28, 33)" opacity="1.0"/>
    <path d="M 124.51071166992188 210.373291015625 C 119.20086669921875 213.8387451171875 113.7138671875 217.50326538085938 110.33828735351562 222.8760986328125 C 106.96279907226562 228.2489013671875 106.31597900390625 235.90936279296875 110.5457763671875 240.63760375976562 C 115.780029296875 246.46246337890625 126.14483642578125 244.80615234375 131.2451171875 238.84490966796875 C 136.34536743164062 232.8836669921875 137.14703369140625 224.296875 136.02064514160156 216.542724609375 C 135.91244506835938 214.107421875 134.89532470703125 211.80126953125 133.169921875 210.07928466796875 C 131.30262756347656 208.57443237304688 127.83413696289062 208.97738647460938 127.18890380859375 211.29949951171875 L 124.51071166992188 210.373291015625" stroke-width="0.6000000238418579" fill="rgb(159, 159, 159)" opacity="1.0"/>
    <path d="M 107.86260986328125 241.4100341796875 C 102.36906433105469 240.19076538085938 96.33810424804688 240.8271484375 91.60919189453125 243.871826171875 C 86.88027954101562 246.91650390625 83.70355224609375 252.54080200195312 84.28448486328125 258.1589050292969 C 84.70024108886719 262.13043212890625 86.915283203125 265.7806396484375 89.89547729492188 268.4437561035156 C 92.87567138671875 271.10687255859375 96.57147216796875 272.8602294921875 100.37936401367188 274.0765380859375 C 102.03677368164062 274.6048583984375 103.81355285644531 275.0390625 105.491943359375 274.59912109375 C 107.41641235351562 274.0955810546875 108.85708618164062 272.5394287109375 110.11477661132812 270.9903869628906 C 113.66543579101562 266.6171569824219 116.68112182617188 261.5331726074219 117.19021606445312 255.92236328125 C 117.69927978515625 250.3115234375 115.14315795898438 244.1492919921875 110.06130981445312 241.74969482421875 L 107.86260986328125 241.4100341796875" stroke-width="0.6000000238418579" fill="rgb(159, 159, 159)" opacity="1.0"/>
    <path d="M 292.770263671875 94.40158081054688 C 290.3273010253906 99.24160766601562 287.821533203125 104.72738647460938 289.46185302734375 109.8837890625 C 291.0500183105469 114.90066528320312 296.0159912109375 117.93949890136719 300.6471252441406 120.44320678710938 C 302.52996826171875 121.45753479003906 304.5158996582031 122.48866271972656 306.65338134765625 122.49176025390625 C 310.2685241699219 122.49911499023438 313.2164001464844 119.62051391601562 315.2464904785156 116.63554382324219 C 317.1318054199219 113.86572265625 318.609619140625 110.83953857421875 319.6347351074219 107.64961242675781 C 321.3011169433594 102.47067260742188 321.4812316894531 96.13609313964844 317.63983154296875 92.28631591796875 C 315.5690612792969 90.20492553710938 312.60003662109375 89.18864440917969 309.669189453125 88.94970703125 C 306.7383728027344 88.71078491210938 303.7984313964844 89.1873779296875 300.90277099609375 89.69926452636719 C 298.00714111328125 90.21115112304688 295.1728210449219 90.77615356445312 292.8005065917969 92.39222717285156 L 292.770263671875 94.40158081054688" stroke-width="0.6000000238418579" fill="rgb(218, 166, 20)" opacity="1.0"/>
    <path d="M 227.99850463867188 121.1175537109375 C 221.22076416015625 114.54310607910156 210.39663696289062 114.70791625976562 203.82217407226562 121.48568725585938 C 203.25921630859375 122.06605529785156 202.73812866210938 122.68563842773438 202.2628173828125 123.33978271484375 C 200.457275390625 125.82565307617188 199.32391357421875 128.95086669921875 199.83053588867188 131.9796905517578 C 200.2584228515625 134.53929138183594 201.7882080078125 136.7720947265625 203.47674560546875 138.740478515625 C 208.00384521484375 144.0031280517578 213.85748291015625 147.9576416015625 220.4295654296875 150.19322204589844 C 222.16775512695312 150.78121948242188 224.00546264648438 151.24984741210938 225.82815551757812 151.00634765625 C 228.88833618164062 150.599365234375 231.3834228515625 148.21893310546875 232.8470458984375 145.4983367919922 C 235.0228271484375 141.4607391357422 235.33538818359375 136.56199645996094 234.161865234375 132.1270751953125 C 232.9884033203125 127.69216918945312 230.42059326171875 123.70367431640625 227.2017822265625 120.43545532226562 L 227.99850463867188 121.1175537109375" stroke-width="0.6000000238418579" fill="rgb(143, 165, 67)" opacity="1.0"/>
    <path d="M 213.28558349609375 90.855224609375 C 213.800048828125 101.70855712890625 228.92034912109375 108.18132019042969 237.57379150390625 101.72665405273438 C 246.2271728515625 95.27195739746094 244.83596801757812 79.68978881835938 235.49713134765625 74.12942504882812 C 226.1583251953125 68.56906127929688 212.49606323242188 73.84991455078125 208.57101440429688 83.99606323242188 L 213.28558349609375 90.855224609375" stroke-width="0.6000000238418579" fill="rgb(233, 92, 21)" opacity="1.0"/>
    <path d="M 202.78082275390625 96.33659362792969 C 200.13824462890625 91.29193115234375 196.4583740234375 85.54002380371094 190.74481201171875 85.44879150390625 C 188.46963500976562 85.5009765625 186.26669311523438 86.25787353515625 184.43994140625 87.6151123046875 C 179.82968139648438 90.85165405273438 177.07415771484375 96.12197875976562 177.047119140625 101.75480651855469 C 177.03643798828125 106.53306579589844 179.04840087890625 111.01539611816406 181.0931396484375 115.30169677734375 C 182.24566650390625 117.70761108398438 183.54678344726562 120.22711181640625 185.8243408203125 121.58784484863281 C 188.875 123.376708984375 192.7642822265625 122.57762145996094 196.08074951171875 121.35296630859375 C 200.93670654296875 119.56674194335938 205.47149658203125 117.00631713867188 209.50927734375 113.77099609375 C 210.90225219726562 112.65046691894531 212.28488159179688 111.38441467285156 212.92184448242188 109.71469116210938 C 213.43466186523438 108.13188171386719 213.47589111328125 106.43402099609375 213.0404052734375 104.82818603515625 C 211.90902709960938 99.90570068359375 208.67523193359375 95.727294921875 204.19378662109375 93.39752197265625 L 202.78082275390625 96.33659362792969" stroke-width="0.6000000238418579" fill="rgb(70, 150, 179)" opacity="1.0"/>
    <path d="M 259.31573486328125 130.16207885742188 C 254.5660400390625 132.47384643554688 249.3984375 135.2356719970703 247.58868408203125 140.19479370117188 C 245.64779663085938 145.52316284179688 248.47540283203125 151.6019744873047 252.73736572265625 155.3426971435547 C 254.3800048828125 156.78564453125 256.3172607421875 158.01983642578125 258.48724365234375 158.28530883789062 C 260.2710266113281 158.50421142578125 262.0643310546875 158.05609130859375 263.7782897949219 157.5169677734375 C 269.185302734375 155.8234405517578 274.6327819824219 152.90216064453125 277.2130432128906 147.85911560058594 C 279.81005859375 142.77467346191406 278.734130859375 136.0467529296875 274.6541442871094 132.0458526611328 C 270.57415771484375 128.04495239257812 263.8442077636719 127.03791809082031 258.7900695800781 129.7122802734375 L 259.31573486328125 130.16207885742188" stroke-width="0.6000000238418579" fill="rgb(140, 28, 33)" opacity="1.0"/>
    <path d="M 297.4571838378906 122.33856201171875 C 292.0187683105469 125.36611938476562 286.3931884765625 128.576416015625 282.71746826171875 133.60507202148438 C 279.04180908203125 138.6336669921875 277.8805236816406 146.09048461914062 281.6966247558594 151.0120086669922 C 286.4207763671875 157.07659912109375 296.6844787597656 156.16897583007812 302.08966064453125 150.68299865722656 C 307.49481201171875 145.197021484375 308.87158203125 136.84381103515625 308.30291748046875 129.17303466796875 C 308.36480712890625 126.78085327148438 307.5277404785156 124.45248413085938 305.9568176269531 122.64736938476562 C 304.23199462890625 121.04510498046875 300.8077697753906 121.20066833496094 300.0158996582031 123.43009948730469 L 297.4571838378906 122.33856201171875" stroke-width="0.6000000238418579" fill="rgb(159, 159, 159)" opacity="1.0"/>
    <path d="M 196.93084716796875 133.97650146484375 C 193.33935546875 129.2369384765625 188.0457763671875 125.6246337890625 182.15386962890625 124.84294128417969 C 176.26202392578125 124.06124877929688 169.85614013671875 126.41921997070312 166.4815673828125 131.34230041503906 C 164.10009765625 134.82598876953125 163.38787841796875 139.2814483642578 163.9671630859375 143.46510314941406 C 164.54641723632812 147.64877319335938 166.32440185546875 151.58897399902344 168.55999755859375 155.17323303222656 C 169.5338134765625 156.732421875 170.66815185546875 158.2974853515625 172.32110595703125 159.09100341796875 C 174.21575927734375 160.00164794921875 176.440673828125 159.7333984375 178.5133056640625 159.34579467773438 C 184.36471557617188 158.25137329101562 190.27130126953125 156.218505859375 194.51898193359375 152.04681396484375 C 198.76666259765625 147.87510681152344 200.9222412109375 141.1627655029297 198.4697265625 135.75392150878906 L 196.93084716796875 133.97650146484375" stroke-width="0.6000000238418579" fill="rgb(159, 159, 159)" opacity="1.0"/>
    <path d="M 275.9400329589844 98.18380737304688 C 270.4962158203125 98.62106323242188 264.4640808105469 99.3428955078125 260.88958740234375 103.45785522460938 C 257.4077453613281 107.45477294921875 257.3985290527344 113.31941223144531 257.6739807128906 118.61544799804688 C 257.7890319824219 120.7667236328125 257.9436950683594 123.01545715332031 259.06201171875 124.85542297363281 C 260.95159912109375 127.96847534179688 264.9732971191406 128.994140625 268.60516357421875 129.17466735839844 C 271.97607421875 129.34353637695312 275.353759765625 129.02749633789062 278.63482666015625 128.23623657226562 C 283.9628601074219 126.953369140625 289.5053405761719 123.78617858886719 290.8017578125 118.46345520019531 C 291.505859375 115.59092712402344 290.8228454589844 112.50445556640625 289.4913024902344 109.8585205078125 C 288.1597595214844 107.21255493164062 286.2080383300781 104.93402099609375 284.2492370605469 102.71208190917969 C 282.2904052734375 100.49014282226562 280.31805419921875 98.34881591796875 277.68402099609375 97.15603637695312 L 275.9400329589844 98.18380737304688" stroke-width="0.6000000238418579" fill="rgb(218, 166, 20)" opacity="1.0"/>
    <path d="M 230.29049682617188 116.18722534179688 C 229.5330810546875 124.6309814453125 235.76412963867188 132.08999633789062 244.2078857421875 132.84739685058594 C 244.930908203125 132.91226196289062 245.65765380859375 132.9257354736328 246.38259887695312 132.88775634765625 C 249.13723754882812 132.74288940429688 251.9581298828125 131.76779174804688 253.78509521484375 129.70291137695312 C 255.3292236328125 127.95808410644531 256.022705078125 125.62911987304688 256.4419860839844 123.33879089355469 C 257.5558166503906 117.20657348632812 257.0074157714844 110.88796997070312 254.85372924804688 105.03933715820312 C 254.2818603515625 103.49433898925781 253.5704345703125 101.94735717773438 252.37066650390625 100.81321716308594 C 250.35760498046875 98.90805053710938 247.28692626953125 98.51223754882812 244.56170654296875 99.02828979492188 C 240.51522827148438 99.79159545898438 236.92068481445312 102.34149169921875 234.48944091796875 105.66616821289062 C 232.0582275390625 108.99081420898438 230.72628784179688 113.03604125976562 230.2647705078125 117.12850952148438 L 230.29049682617188 116.18722534179688" stroke-width="0.6000000238418579" fill="rgb(143, 165, 67)" opacity="1.0"/>
    <path d="M 252.58837890625 85.45526123046875 C 252.76123046875 95.75564575195312 266.9027404785156 102.32817077636719 275.2905578613281 96.46212768554688 C 283.6783752441406 90.59605407714844 282.811767578125 75.788818359375 274.122802734375 70.24859619140625 C 265.4338073730469 64.7083740234375 252.333251953125 69.31678771972656 248.31936645507812 78.81826782226562 L 252.58837890625 85.45526123046875" stroke-width="0.6000000238418579" fill="rgb(233, 92, 21)" opacity="1.0"/>
    <path d="M 337.4389953613281 71.01496887207031 C 334.9864807128906 66.073486328125 331.5444030761719 60.425140380859375 326.012939453125 60.21589660644531 C 323.8084411621094 60.218292236328125 321.6589660644531 60.904693603515625 319.861083984375 62.18048095703125 C 315.3277587890625 65.21739196777344 312.547607421875 70.26318359375 312.4022521972656 75.71780395507812 C 312.29083251953125 80.34513854980469 314.14447021484375 84.72866821289062 316.0340270996094 88.92304992675781 C 317.09930419921875 91.27748107910156 318.30609130859375 93.74502563476562 320.4830322265625 95.11105346679688 C 323.3996276855469 96.90805053710938 327.18310546875 96.21646118164062 330.4209289550781 95.1005859375 C 335.1614990234375 93.47344970703125 339.6074523925781 91.0897216796875 343.58636474609375 88.04190063476562 C 344.9591064453125 86.98617553710938 346.3249206542969 85.78929138183594 346.97711181640625 84.18571472167969 C 347.50726318359375 82.66366577148438 347.5830993652344 81.02023315429688 347.1953430175781 79.45584106445312 C 346.20379638671875 74.66464233398438 343.1603698730469 70.54960632324219 338.86956787109375 68.198486328125 L 337.4389953613281 71.01496887207031" stroke-width="0.6000000238418579" fill="rgb(70, 150, 179)" opacity="1.0"/>
    <path d="M 335.7535705566406 137.67579650878906 C 335.99835205078125 132.4254150390625 336.0492248535156 126.59552001953125 332.5804443359375 122.65109252929688 C 328.8516540527344 118.41610717773438 322.1945495605469 117.98835754394531 316.8958740234375 119.9278564453125 C 314.85260009765625 120.67477416992188 312.8512268066406 121.77853393554688 311.5850524902344 123.54731750488281 C 310.54364013671875 125.0009765625 310.08026123046875 126.7808837890625 309.7341613769531 128.53485107421875 C 308.6361083984375 134.06466674804688 308.591064453125 140.21502685546875 311.7658996582031 144.87245178222656 C 314.9689025878906 149.564208984375 321.3580627441406 151.831298828125 326.7972412109375 150.17478942871094 C 332.2364196777344 148.5182647705078 336.32379150390625 143.12017822265625 336.3970031738281 137.43106079101562 L 335.7535705566406 137.67579650878906" stroke-width="0.6000000238418579" fill="rgb(140, 28, 33)" opacity="1.0"/>
    <path d="M 347.5038757324219 99.69277954101562 C 341.9602966308594 98.37777709960938 336.1773681640625 97.070556640625 330.5880432128906 98.19610595703125 C 324.9988098144531 99.3216552734375 319.6076354980469 103.64060974121094 319.1445617675781 109.32225036621094 C 318.5885925292969 116.33692932128906 326.08154296875 122.06483459472656 333.1214904785156 121.6988525390625 C 340.16143798828125 121.3328857421875 346.2519226074219 116.54159545898438 350.60687255859375 111.00936889648438 C 352.12652587890625 109.431884765625 352.9996337890625 107.34214782714844 353.0538330078125 105.15245056152344 C 352.8787536621094 103.00466918945312 350.4698791503906 100.99423217773438 348.5577087402344 102.01080322265625 L 347.5038757324219 99.69277954101562" stroke-width="0.6000000238418579" fill="rgb(159, 159, 159)" opacity="1.0"/>
    <path d="M 346.328857421875 118.37478637695312 C 341.70269775390625 120.97721862792969 337.8674011230469 125.22134399414062 336.4629211425781 130.3372039794922 C 335.0584716796875 135.45306396484375 336.36834716796875 141.40347290039062 340.3135681152344 144.98370361328125 C 343.1061096191406 147.51141357421875 346.9600830078125 148.68060302734375 350.7300109863281 148.6747283935547 C 354.49993896484375 148.66885375976562 358.1996765136719 147.5734405517578 361.6400146484375 146.03024291992188 C 363.1367492675781 145.35780334472656 364.6580810546875 144.54409790039062 365.5599365234375 143.17835998535156 C 366.5946044921875 141.613037109375 366.626708984375 139.61297607421875 366.5347900390625 137.73312377929688 C 366.2752380371094 132.42596435546875 365.19244384765625 126.9564208984375 362.0173645019531 122.69503784179688 C 358.84228515625 118.43365478515625 353.1671447753906 115.71487426757812 348.0870056152344 117.22903442382812 L 346.328857421875 118.37478637695312" stroke-width="0.6000000238418579" fill="rgb(159, 159, 159)" opacity="1.0"/>
    <path d="M 365.96002197265625 92.32170104980469 C 361.2265930175781 93.30076599121094 356.0075988769531 94.59410095214844 353.3179626464844 98.59890747070312 C 350.6968078613281 102.48991394042969 351.3297424316406 107.6417236328125 352.15057373046875 112.26303100585938 C 352.48675537109375 114.139892578125 352.868408203125 116.09799194335938 354.0517272949219 117.59176635742188 C 356.05157470703125 120.11935424804688 359.6958923339844 120.58059692382812 362.9053955078125 120.3421630859375 C 365.88446044921875 120.12202453613281 368.8164978027344 119.47525024414062 371.6117248535156 118.42164611816406 C 376.1510009765625 116.71255493164062 380.67266845703125 113.32504272460938 381.2294921875 108.50848388671875 C 381.5339050292969 105.90863037109375 380.5966491699219 103.27249145507812 379.1379699707031 101.09414672851562 C 377.6792907714844 98.91580200195312 375.716064453125 97.1279296875 373.7528076171875 95.39056396484375 C 371.78955078125 93.65316772460938 369.8232116699219 91.98808288574219 367.37939453125 91.2283935546875 L 365.96002197265625 92.32170104980469" stroke-width="0.6000000238418579" fill="rgb(218, 166, 20)" opacity="1.0"/>
    <path d="M 428.9283447265625 138.253173828125 C 420.6197509765625 138.95712280273438 414.4549560546875 146.26324462890625 415.158935546875 154.57183837890625 C 415.21917724609375 155.28330993652344 415.329833984375 155.98959350585938 415.4901123046875 156.6854248046875 C 416.0994873046875 159.3292236328125 417.5242919921875 161.8958740234375 419.835693359375 163.31411743164062 C 421.788818359375 164.51284790039062 424.16302490234375 164.7880859375 426.453125 164.80429077148438 C 432.5831298828125 164.8392333984375 438.6107177734375 163.23211669921875 443.9097900390625 160.1500244140625 C 445.30908203125 159.33294677734375 446.6865234375 158.38040161132812 447.5809326171875 157.02505493164062 C 449.083740234375 154.7505645751953 448.9443359375 151.70855712890625 447.98046875 149.1564483642578 C 446.552001953125 145.3665008544922 443.4698486328125 142.31854248046875 439.83526611328125 140.52943420410156 C 436.20062255859375 138.74032592773438 432.05517578125 138.1387939453125 428.0120849609375 138.3885040283203 L 428.9283447265625 138.253173828125" stroke-width="0.6000000238418579" fill="rgb(143, 165, 67)" opacity="1.0"/>
    <path d="M 151.82870483398438 403.4364013671875 C 158.05874633789062 411.86968994140625 173.6610107421875 408.9593811035156 177.14517211914062 399.141845703125 C 180.6292724609375 389.3243103027344 171.1611328125 377.56640625 160.6871337890625 378.1100769042969 C 150.21310424804688 378.65374755859375 142.08056640625 390.2140197753906 144.3691864013672 400.4593505859375 L 151.82870483398438 403.4364013671875" stroke-width="0.6000000238418579" fill="rgb(233, 92, 21)" opacity="1.0"/>
    <path d="M 429.59075927734375 196.788330078125 C 425.235595703125 194.67437744140625 419.81396484375 192.60092163085938 415.86163330078125 195.42498779296875 C 414.33251953125 196.61004638671875 413.208740234375 198.24041748046875 412.6455078125 200.0911865234375 C 411.12860107421875 204.63296508789062 411.9071960449219 209.62823486328125 414.734375 213.49295043945312 C 417.1409912109375 216.76513671875 420.7808837890625 218.81320190429688 424.34423828125 220.710693359375 C 426.34765625 221.7733154296875 428.510009765625 222.83853149414062 430.7545166015625 222.61825561523438 C 433.743896484375 222.30010986328125 435.999267578125 219.78900146484375 437.64794921875 217.27627563476562 C 440.0655517578125 213.6019287109375 441.87237548828125 209.56048583984375 442.99853515625 205.30874633789062 C 443.384765625 203.83892822265625 443.6904296875 202.27490234375 443.2823486328125 200.81155395507812 C 442.8333740234375 199.4703369140625 442.0037841796875 198.28872680664062 440.8948974609375 197.41082763671875 C 437.63458251953125 194.61700439453125 433.3128662109375 193.39398193359375 429.072021484375 194.06512451171875 L 429.59075927734375 196.788330078125" stroke-width="0.6000000238418579" fill="rgb(70, 150, 179)" opacity="1.0"/>
    <path d="M 415.571533203125 160.66317749023438 C 414.8875732421875 155.01934814453125 413.8924560546875 148.79232788085938 409.4827880859375 145.20980834960938 C 404.7435607910156 141.3642120361328 397.56646728515625 142.10629272460938 392.2642822265625 145.12863159179688 C 390.219482421875 146.29306030273438 388.28363037109375 147.83050537109375 387.2515869140625 149.94491577148438 C 386.40252685546875 151.68275451660156 386.22869873046875 153.66453552246094 386.17529296875 155.59751892089844 C 385.9995422363281 161.69296264648438 387.05859375 168.26071166992188 391.2830505371094 172.65658569335938 C 395.5437316894531 177.083984375 402.7661437988281 178.35189819335938 408.2690734863281 175.6060791015625 C 413.77203369140625 172.86026000976562 417.15972900390625 166.36721801757812 416.2137451171875 160.28634643554688 L 415.571533203125 160.66317749023438" stroke-width="0.6000000238418579" fill="rgb(140, 28, 33)" opacity="1.0"/>
    <path d="M 143.32138061523438 132.36839294433594 C 137.09524536132812 133.390380859375 130.62786865234375 134.5224609375 125.39651489257812 138.05795288085938 C 120.16525268554688 141.59339904785156 116.49922180175781 148.30764770507812 118.45071411132812 154.31130981445312 C 120.87615966796875 161.716796875 130.9775848388672 164.37240600585938 138.0154571533203 160.99404907226562 C 145.05332946777344 157.61569213867188 149.232421875 150.12033081054688 151.32176208496094 142.60848999023438 C 152.20150756835938 140.3479461669922 152.20188903808594 137.83984375 151.3227996826172 135.57908630371094 C 150.22731018066406 133.458984375 146.90773010253906 132.4325714111328 145.3875274658203 134.2874298095703 L 143.32138061523438 132.36839294433594" stroke-width="0.6000000238418579" fill="rgb(159, 159, 159)" opacity="1.0"/>
    <path d="M 435.4906005859375 166.8050537109375 C 431.10693359375 164.18719482421875 425.7308349609375 163.01422119140625 420.78900146484375 164.287109375 C 415.84710693359375 165.55999755859375 411.5059814453125 169.49761962890625 410.403076171875 174.50225830078125 C 409.6277770996094 178.04156494140625 410.4939270019531 181.817626953125 412.30078125 184.96182250976562 C 414.107666015625 188.10604858398438 416.7904052734375 190.6708984375 419.72308349609375 192.80514526367188 C 420.9998779296875 193.73318481445312 422.40625 194.61419677734375 423.9774169921875 194.7142333984375 C 425.7786865234375 194.82977294921875 427.463623046875 193.90057373046875 428.9888916015625 192.92529296875 C 433.2950439453125 190.17190551757812 437.34332275390625 186.6536865234375 439.3829345703125 181.96636962890625 C 441.422607421875 177.27902221679688 440.97955322265625 171.2420654296875 437.287353515625 167.72503662109375 L 435.4906005859375 166.8050537109375" stroke-width="0.6000000238418579" fill="rgb(159, 159, 159)" opacity="1.0"/>
    <path d="M 415.14532470703125 194.48333740234375 C 413.70068359375 189.05844116210938 411.8598937988281 183.09100341796875 407.0401611328125 180.23379516601562 C 402.3568420410156 177.44854736328125 396.4241638183594 178.5191650390625 391.1189270019531 179.77294921875 C 388.9644775390625 180.28546142578125 386.7187805175781 180.85598754882812 385.0639343261719 182.32574462890625 C 382.26361083984375 184.80999755859375 381.9669189453125 189.06607055664062 382.453125 192.77224731445312 C 382.903076171875 196.21240234375 383.84466552734375 199.57009887695312 385.24908447265625 202.74261474609375 C 387.527587890625 207.89468383789062 391.751220703125 212.91668701171875 397.3728942871094 213.24761962890625 C 400.4075927734375 213.43072509765625 403.4031982421875 212.171630859375 405.83392333984375 210.3377685546875 C 408.26458740234375 208.50390625 410.20953369140625 206.11056518554688 412.09588623046875 203.72039794921875 C 413.9822998046875 201.33026123046875 415.78466796875 198.9412841796875 416.505859375 196.05780029296875 L 415.14532470703125 194.48333740234375" stroke-width="0.6000000238418579" fill="rgb(218, 166, 20)" opacity="1.0"/>
    <path d="M 438.10980224609375 187.78787231445312 C 438.72320556640625 196.39471435546875 446.19769287109375 202.87469482421875 454.8045654296875 202.26129150390625 C 455.54156494140625 202.20880126953125 456.27392578125 202.10403442382812 456.99609375 201.9478759765625 C 459.7401123046875 201.35394287109375 462.4156494140625 199.91510009765625 463.9151611328125 197.54312133789062 C 465.1824951171875 195.53875732421875 465.50018310546875 193.0859375 465.54864501953125 190.716552734375 C 465.66961669921875 184.37411499023438 464.09014892578125 178.114990234375 460.974365234375 172.58929443359375 C 460.1483154296875 171.130126953125 459.1817626953125 169.69161987304688 457.79168701171875 168.7474365234375 C 455.45904541015625 167.16094970703125 452.3094482421875 167.2630615234375 449.6553955078125 168.22509765625 C 445.714111328125 169.65066528320312 442.517578125 172.79766845703125 440.6160888671875 176.53375244140625 C 438.7144775390625 180.269775390625 438.03472900390625 184.5509033203125 438.2371826171875 188.73779296875 L 438.10980224609375 187.78787231445312" stroke-width="0.6000000238418579" fill="rgb(143, 165, 67)" opacity="1.0"/>
    <path d="M 144.41073608398438 96.79458618164062 C 133.2724609375 104.68673706054688 136.65846252441406 125.07125854492188 149.3480682373047 129.85977172851562 C 162.0377197265625 134.64822387695312 177.587158203125 122.62673950195312 177.14956665039062 108.97871398925781 C 176.71197509765625 95.33067321777344 161.87368774414062 84.44644165039062 148.4783172607422 87.16131591796875 L 144.41073608398438 96.79458618164062" stroke-width="0.6000000238418579" fill="rgb(233, 92, 21)" opacity="1.0"/>
    <path d="M 450.375732421875 146.74131774902344 C 446.60693359375 151.2849578857422 442.5762939453125 157.10333251953125 444.77252197265625 162.6044921875 C 445.731689453125 164.75973510742188 447.3360595703125 166.56423950195312 449.3642578125 167.76898193359375 C 454.3023681640625 170.88494873046875 460.4444580078125 171.41412353515625 465.84271240234375 169.188720703125 C 470.4171142578125 167.28924560546875 473.900146484375 163.57354736328125 477.1824951171875 159.90478515625 C 479.0230712890625 157.84091186523438 480.91278076171875 155.5895233154297 481.30401611328125 152.86732482910156 C 481.7957763671875 149.23458862304688 479.47705078125 145.8341064453125 476.98028564453125 143.15150451660156 C 473.33111572265625 139.22096252441406 469.06982421875 135.90696716308594 464.3616943359375 133.33807373046875 C 462.7332763671875 132.45361328125 460.96978759765625 131.63719177246094 459.11822509765625 131.6953125 C 457.3994140625 131.83740234375 455.759033203125 132.4765625 454.39715576171875 133.5348358154297 C 450.1412353515625 136.58425903320312 447.437255859375 141.34716796875 447.0 146.5645294189453 L 450.375732421875 146.74131774902344" stroke-width="0.6000000238418579" fill="rgb(70, 150, 179)" opacity="1.0"/>
    <path d="M 381.7550048828125 80.99423217773438 C 382.4183044433594 74.36361694335938 382.8751220703125 66.98625183105469 378.7490539550781 61.759033203125 C 374.3133850097656 56.146484375 365.91412353515625 55.1568603515625 359.0753173828125 57.25566101074219 C 356.438232421875 58.063751220703125 353.8301696777344 59.326416015625 352.10809326171875 61.48051452636719 C 350.6918029785156 63.25077819824219 349.9853515625 65.47300720214844 349.42913818359375 67.67025756835938 C 347.666748046875 74.59722900390625 347.19580078125 82.38067626953125 350.9017028808594 88.49076843261719 C 354.6409912109375 94.64622497558594 362.57720947265625 97.94645690917969 369.5747985839844 96.21537780761719 C 376.5724182128906 94.48428344726562 382.1104736328125 87.92532348632812 382.5860595703125 80.72769165039062 L 381.7550048828125 80.99423217773438" stroke-width="0.6000000238418579" fill="rgb(140, 28, 33)" opacity="1.0"/>
    <path d="M 133.2421875 410.73504638671875 C 129.4380645751953 416.87274169921875 125.54733276367188 423.30133056640625 124.65913391113281 430.4727783203125 C 123.77099609375 437.64404296875 126.80169677734375 445.85784912109375 133.44703674316406 448.69305419921875 C 141.65782165527344 452.174560546875 151.54930114746094 445.4627685546875 153.9324493408203 436.85186767578125 C 156.31561279296875 428.240966796875 152.9974365234375 418.9969482421875 148.0924835205078 411.5425109863281 C 146.8052978515625 409.0827941894531 144.64292907714844 407.1950378417969 142.031982421875 406.25177001953125 C 139.37950134277344 405.6009521484375 135.99635314941406 407.69091796875 136.45175170898438 410.3975830078125 L 133.2421875 410.73504638671875" stroke-width="0.6000000238418579" fill="rgb(159, 159, 159)" opacity="1.0"/>
    <path d="M 420.2528076171875 219.38821411132812 C 415.2626953125 215.05499267578125 408.6793518066406 212.3370361328125 402.0926513671875 212.83447265625 C 395.5059814453125 213.33187866210938 389.0783996582031 217.36151123046875 386.5342712402344 223.487548828125 C 384.74102783203125 227.821044921875 384.9854431152344 232.82958984375 386.57232666015625 237.24716186523438 C 388.1592102050781 241.66473388671875 390.99407958984375 245.54339599609375 394.2452697753906 248.93023681640625 C 395.6609802246094 250.40325927734375 397.2525634765625 251.845947265625 399.2318115234375 252.33090209960938 C 401.5007019042969 252.887939453125 403.859130859375 252.08734130859375 406.02459716796875 251.19174194335938 C 412.13818359375 248.66314697265625 418.09710693359375 245.101318359375 421.7626953125 239.5927734375 C 425.42822265625 234.08416748046875 426.2373046875 226.29095458984375 422.33294677734375 220.9693603515625 L 420.2528076171875 219.38821411132812" stroke-width="0.6000000238418579" fill="rgb(159, 159, 159)" opacity="1.0"/>
    <path d="M 385.4268798828125 111.88211059570312 C 379.4176330566406 112.92752075195312 372.7833557128906 114.34988403320312 369.23077392578125 119.29335021972656 C 365.76910400390625 124.09602355957031 366.3612365722656 130.61911010742188 367.2115173339844 136.48062133789062 C 367.5604553222656 138.8612823486328 367.96343994140625 141.3462371826172 369.3961181640625 143.27761840820312 C 371.81732177734375 146.5456085205078 376.395263671875 147.27317810058594 380.4528503417969 147.10092163085938 C 384.2190246582031 146.94247436523438 387.9429626464844 146.24404907226562 391.5106201171875 145.02706909179688 C 397.3042297363281 143.0531005859375 403.1427917480469 138.9615478515625 404.037841796875 132.9088897705078 C 404.52581787109375 129.64199829101562 403.44921875 126.27963256835938 401.6966247558594 123.47381591796875 C 399.9440002441406 120.66796875 397.5394592285156 118.33444213867188 395.1327819824219 116.06459045410156 C 392.72613525390625 113.79473876953125 390.3127136230469 111.61593627929688 387.2608337402344 110.55996704101562 L 385.4268798828125 111.88211059570312" stroke-width="0.6000000238418579" fill="rgb(218, 166, 20)" opacity="1.0"/>
    <path d="M 404.08013916015625 83.02243041992188 C 396.32763671875 77.25021362304688 385.36370849609375 78.85556030273438 379.59149169921875 86.60804748535156 C 379.0971984863281 87.27188110351562 378.6506652832031 87.969970703125 378.2551574707031 88.697021484375 C 376.7528991699219 91.45989990234375 376.017822265625 94.78237915039062 376.9344177246094 97.78915405273438 C 377.7087707519531 100.33016967773438 379.5580139160156 102.39308166503906 381.5333251953125 104.16653442382812 C 386.8272399902344 108.9063720703125 393.293701171875 112.14227294921875 400.2610168457031 113.53811645507812 C 402.1033020019531 113.90396118164062 404.0307312011719 114.13543701171875 405.8482971191406 113.64614868164062 C 408.9001159667969 112.82652282714844 411.1162109375 110.07904052734375 412.240234375 107.12333679199219 C 413.912109375 102.73634338378906 413.57855224609375 97.72288513183594 411.79827880859375 93.37760925292969 C 410.01806640625 89.0323486328125 406.88201904296875 85.32539367675781 403.180908203125 82.43600463867188 L 404.08013916015625 83.02243041992188" stroke-width="0.6000000238418579" fill="rgb(143, 165, 67)" opacity="1.0"/>
    <path d="M 121.94061279296875 426.948974609375 C 115.12515258789062 417.2110595703125 97.35939025878906 420.05645751953125 93.12606811523438 431.0810546875 C 88.89277648925781 442.105712890625 99.2813720703125 455.7052001953125 111.16683959960938 455.39300537109375 C 123.05232238769531 455.080810546875 132.60400390625 442.21612548828125 130.30775451660156 430.5391845703125 L 121.94061279296875 426.948974609375" stroke-width="0.6000000238418579" fill="rgb(233, 92, 21)" opacity="1.0"/>
    <path d="M 448.41326904296875 210.59402465820312 C 442.2496337890625 212.31082153320312 435.06512451171875 215.00082397460938 433.6212158203125 221.25640869140625 C 433.1434326171875 223.76821899414062 433.4569091796875 226.36639404296875 434.51837158203125 228.6925048828125 C 436.9898681640625 234.5185546875 442.1318359375 238.7852783203125 448.3138427734375 240.13967895507812 C 453.560791015625 241.275146484375 458.958251953125 240.11892700195312 464.148193359375 238.88058471679688 C 467.0623779296875 238.18023681640625 470.1363525390625 237.34332275390625 472.1668701171875 235.16116333007812 C 474.849609375 232.2303466796875 474.8863525390625 227.7696533203125 474.3209228515625 223.83807373046875 C 473.50054931640625 218.08319091796875 471.754150390625 212.49905395507812 469.14935302734375 207.30221557617188 C 468.24591064453125 205.50836181640625 467.18017578125 203.691650390625 465.49560546875 202.59918212890625 C 463.8773193359375 201.66354370117188 462.021728515625 201.218994140625 460.15509033203125 201.3197021484375 C 454.4810791015625 201.405029296875 449.130126953125 203.97506713867188 445.51666259765625 208.35052490234375 L 448.41326904296875 210.59402465820312" stroke-width="0.6000000238418579" fill="rgb(70, 150, 179)" opacity="1.0"/>
    <path d="M 429.131103515625 133.34115600585938 C 431.0447998046875 127.48422241210938 432.919921875 120.91194152832031 430.2298583984375 115.37295532226562 C 427.3365478515625 109.42459106445312 419.9468994140625 106.86557006835938 413.3543701171875 107.40525817871094 C 410.8124694824219 107.61225891113281 408.2066955566406 108.23556518554688 406.2243347167969 109.83961486816406 C 404.59423828125 111.15762329101562 403.515625 113.02456665039062 402.57763671875 114.89874267578125 C 399.6126403808594 120.805419921875 397.6441345214844 127.74166870117188 399.7797546386719 133.99472045898438 C 401.9364929199219 140.29534912109375 408.4497985839844 144.84938049316406 415.1129150390625 144.6732940673828 C 421.7760009765625 144.4971923828125 428.0780029296875 139.6714324951172 429.9345703125 133.2652130126953 L 429.131103515625 133.34115600585938" stroke-width="0.6000000238418579" fill="rgb(140, 28, 33)" opacity="1.0"/>
    <path d="M 391.2369384765625 58.41546630859375 C 391.9873962402344 65.33988952636719 392.8446350097656 72.53688049316406 396.4256591796875 78.51661682128906 C 400.00665283203125 84.49626159667969 407.1859436035156 88.942626953125 413.9212646484375 87.15420532226562 C 422.23046875 84.92802429199219 425.76763916015625 73.95417785644531 422.4688720703125 65.99270629882812 C 419.170166015625 58.031219482421875 411.160888671875 52.97218322753906 403.0072021484375 50.215545654296875 C 400.5686340332031 49.10932922363281 397.80413818359375 48.957427978515625 395.2591247558594 49.78985595703125 C 392.8561096191406 50.86932373046875 391.5242614746094 54.46630859375 393.4769592285156 56.25396728515625 L 391.2369384765625 58.41546630859375" stroke-width="0.6000000238418579" fill="rgb(159, 159, 159)" opacity="1.0"/>
    <path d="M 434.6947021484375 240.95431518554688 C 428.7125244140625 244.41998291015625 423.7874755859375 250.0107421875 422.04266357421875 256.69677734375 C 420.2978515625 263.3828125 422.1019287109375 271.1109924316406 427.2991943359375 275.70880126953125 C 430.9779052734375 278.954833984375 436.01654052734375 280.41400146484375 440.9263916015625 280.34417724609375 C 445.83624267578125 280.2743835449219 450.63665771484375 278.7867126464844 455.0919189453125 276.7201232910156 C 457.0301513671875 275.81964111328125 458.9981689453125 274.73480224609375 460.150146484375 272.9411926269531 C 461.471923828125 270.8854675292969 461.480712890625 268.2800598144531 461.33001708984375 265.8332824707031 C 460.9044189453125 258.9255676269531 459.404052734375 251.81991577148438 455.19854736328125 246.322265625 C 450.9930419921875 240.82461547851562 443.5570068359375 237.37728881835938 436.965576171875 239.43310546875 L 434.6947021484375 240.95431518554688" stroke-width="0.6000000238418579" fill="rgb(159, 159, 159)" opacity="1.0"/>
    <path d="M 417.16046142578125 263.2574157714844 C 413.11083984375 257.94097900390625 408.3791809082031 252.20697021484375 401.778564453125 251.24703979492188 C 395.36077880859375 250.30447387695312 389.31585693359375 254.172607421875 384.04461669921875 257.9579162597656 C 381.905517578125 259.4988098144531 379.6922607421875 261.1448974609375 378.53704833984375 263.5129699707031 C 376.5809020996094 267.51702880859375 378.1838684082031 272.3363342285156 380.3992919921875 276.1954345703125 C 382.4542236328125 279.77813720703125 385.012939453125 283.04718017578125 387.99713134765625 285.9025573730469 C 392.8409118652344 290.5406188964844 399.76678466796875 294.1536560058594 406.10479736328125 291.9692687988281 C 409.5281982421875 290.79498291015625 412.2547607421875 288.05096435546875 414.098876953125 284.9303894042969 C 415.94305419921875 281.809814453125 416.99884033203125 278.2936096191406 417.9915771484375 274.8074645996094 C 418.984375 271.32135009765625 419.88525390625 267.8746032714844 419.37188720703125 264.3736572265625 L 417.16046142578125 263.2574157714844" stroke-width="0.6000000238418579" fill="rgb(218, 166, 20)" opacity="1.0"/>
    <path d="M 414.1077880859375 85.86172485351562 C 410.8039855957031 95.2374267578125 415.7261962890625 105.51622009277344 425.1019287109375 108.82003784179688 C 425.90478515625 109.10296630859375 426.72662353515625 109.32855224609375 427.5614013671875 109.49514770507812 C 430.7335205078125 110.12759399414062 434.2210693359375 109.83578491210938 436.89459228515625 108.01803588867188 C 439.154052734375 106.48213195800781 440.615966796875 104.03634643554688 441.755126953125 101.55508422851562 C 444.795166015625 94.90919494628906 446.000244140625 87.57052612304688 445.2452392578125 80.30142211914062 C 445.04241943359375 78.38032531738281 444.681640625 76.41659545898438 443.646484375 74.78070068359375 C 441.91021728515625 72.0333251953125 438.53546142578125 70.695068359375 435.2894287109375 70.49293518066406 C 430.470458984375 70.18948364257812 425.6480712890625 72.04690551757812 421.9234619140625 75.121337890625 C 418.19879150390625 78.19577026367188 415.5147705078125 82.40705871582031 413.80621337890625 86.92388916015625 L 414.1077880859375 85.86172485351562" stroke-width="0.6000000238418579" fill="rgb(143, 165, 67)" opacity="1.0"/>
    <path d="M 428.2391357421875 122.59150695800781 C 426.16455078125 134.08656311035156 440.4476318359375 144.50918579101562 451.0682373046875 139.83035278320312 C 461.6888427734375 135.15147399902344 463.9835205078125 118.4908447265625 455.5380859375 110.41635131835938 C 447.0926513671875 102.34185791015625 431.50689697265625 104.584716796875 424.9512939453125 114.26979064941406 L 428.2391357421875 122.59150695800781" stroke-width="0.6000000238418579" fill="rgb(233, 92, 21)" opacity="1.0"/>
    <path d="M 448.802734375 93.15985107421875 C 448.3277587890625 99.09927368164062 448.37646484375 106.24334716796875 453.3829345703125 109.51129150390625 C 455.42596435546875 110.73426818847656 457.798095703125 111.29315185546875 460.1722412109375 111.11080932617188 C 466.0584716796875 110.81768798828125 471.4375 107.68972778320312 474.603515625 102.71885681152344 C 477.2784423828125 98.49530029296875 477.9979248046875 93.4053955078125 478.5789794921875 88.47073364257812 C 478.90093994140625 85.69821166992188 479.1546630859375 82.74224853515625 477.897705078125 80.26730346679688 C 476.1953125 76.98211669921875 472.306884765625 75.5198974609375 468.68817138671875 74.75387573242188 C 463.39349365234375 73.62619018554688 457.951171875 73.36294555664062 452.5723876953125 73.97430419921875 C 450.71429443359375 74.18911743164062 448.7841796875 74.53851318359375 447.2889404296875 75.66116333007812 C 445.9521484375 76.776123046875 444.968505859375 78.25601196289062 444.45819091796875 79.92034912109375 C 442.7137451171875 84.90866088867188 443.245361328125 90.41110229492188 445.91253662109375 94.97320556640625 L 448.802734375 93.15985107421875" stroke-width="0.6000000238418579" fill="rgb(70, 150, 179)" opacity="1.0"/>
    <path d="M 311.09747314453125 365.9405517578125 C 306.0072937011719 362.97027587890625 300.2405090332031 359.89166259765625 294.51922607421875 361.2898864746094 C 288.37420654296875 362.79559326171875 284.4914245605469 369.1886291503906 283.6665954589844 375.4613342285156 C 283.3475646972656 377.8796691894531 283.40484619140625 380.44171142578125 284.5048522949219 382.61865234375 C 285.408447265625 384.4085388183594 286.9364929199219 385.7934875488281 288.4996337890625 387.04840087890625 C 293.42431640625 391.01171875 299.5126037597656 394.2509460449219 305.7897033691406 393.51513671875 C 312.11553955078125 392.7691955566406 317.6868896484375 387.5977783203125 318.8658752441406 381.33245849609375 C 320.0448913574219 375.067138671875 316.80377197265625 368.20172119140625 311.1884765625 365.174072265625 L 311.09747314453125 365.9405517578125" stroke-width="0.6000000238418579" fill="rgb(140, 28, 33)" opacity="1.0"/>
    <path d="M 299.2975158691406 392.1402587890625 C 292.4964904785156 389.073486328125 285.38580322265625 385.9573059082031 277.920166015625 386.0169982910156 C 270.4546203613281 386.0767517089844 262.4510192871094 390.29144287109375 260.4453125 397.4814758300781 C 257.9892883300781 406.3623046875 266.20123291015625 415.586669921875 275.3434143066406 416.8636474609375 C 284.485595703125 418.140625 293.50555419921875 413.4921875 300.4779968261719 407.46038818359375 C 302.82342529296875 405.8094177246094 304.4647216796875 403.3393249511719 305.07794189453125 400.5374450683594 C 305.3859558105469 397.7325744628906 302.78790283203125 394.5498046875 300.0770568847656 395.3821716308594 L 299.2975158691406 392.1402587890625" stroke-width="0.6000000238418579" fill="rgb(159, 159, 159)" opacity="1.0"/>
    <path d="M 322.8547058105469 415.234375 C 317.2747497558594 418.75567626953125 312.77972412109375 424.26544189453125 311.35723876953125 430.70489501953125 C 309.93475341796875 437.14434814453125 311.93450927734375 444.449462890625 317.0572204589844 448.6466064453125 C 320.6827697753906 451.60943603515625 325.54083251953125 452.81903076171875 330.2207946777344 452.5750732421875 C 334.9007568359375 452.33111572265625 339.4251403808594 450.7388916015625 343.59942626953125 448.6070556640625 C 345.4154052734375 447.6783447265625 347.2530517578125 446.5726318359375 348.28692626953125 444.8204345703125 C 349.47320556640625 442.8121337890625 349.3874816894531 440.32708740234375 349.1553649902344 437.9990234375 C 348.4999694824219 431.42657470703125 346.81231689453125 424.7042236328125 342.6029968261719 419.613037109375 C 338.3936462402344 414.52191162109375 331.1773986816406 411.5028381347656 324.9654846191406 413.7015380859375 L 322.8547058105469 415.234375" stroke-width="0.6000000238418579" fill="rgb(159, 159, 159)" opacity="1.0"/>
    <path d="M 256.8973388671875 414.0543212890625 C 250.31231689453125 413.64984130859375 242.9752197265625 413.4854736328125 237.999267578125 417.7978515625 C 233.15423583984375 421.9847412109375 232.14407348632812 428.9969482421875 231.57122802734375 435.377685546875 C 231.34234619140625 437.9700927734375 231.14422607421875 440.68585205078125 232.168212890625 443.07684326171875 C 233.89773559570312 447.121826171875 238.53274536132812 449.03363037109375 242.84548950195312 449.8682861328125 C 246.84814453125 450.64453125 250.9415283203125 450.84197998046875 255.0003662109375 450.45458984375 C 261.5909729003906 449.82806396484375 268.7590637207031 446.9844970703125 271.21630859375 440.83966064453125 C 272.5477294921875 437.52423095703125 272.2567138671875 433.71661376953125 271.11505126953125 430.3253173828125 C 269.97332763671875 426.93408203125 268.0273742675781 423.8765869140625 266.0632629394531 420.885498046875 C 264.0991516113281 417.89447021484375 262.1051330566406 414.99755859375 259.1581726074219 413.122314453125 L 256.8973388671875 414.0543212890625" stroke-width="0.6000000238418579" fill="rgb(218, 166, 20)" opacity="1.0"/>
    <path d="M 220.337890625 416.6689453125 C 210.45648193359375 411.6279296875 198.35943603515625 415.5518798828125 193.31842041015625 425.43328857421875 C 192.88677978515625 426.2794189453125 192.51568603515625 427.1551513671875 192.20794677734375 428.0538330078125 C 191.03924560546875 431.46875 190.84613037109375 435.369384765625 192.46124267578125 438.5953369140625 C 193.82583618164062 441.3216552734375 196.3148193359375 443.30035400390625 198.89071655273438 444.92730712890625 C 205.79183959960938 449.27276611328125 213.7305908203125 451.691162109375 221.88235473632812 451.9312744140625 C 224.03720092773438 451.9910888671875 226.2625732421875 451.882568359375 228.22509765625 450.9794921875 C 231.52066040039062 449.46551513671875 233.5 445.9307861328125 234.2037353515625 442.370361328125 C 235.25213623046875 437.08514404296875 233.9110107421875 431.4765625 231.0614013671875 426.902099609375 C 228.21182250976562 422.32769775390625 223.95086669921875 418.73614501953125 219.20770263671875 416.17822265625 L 220.337890625 416.6689453125" stroke-width="0.6000000238418579" fill="rgb(143, 165, 67)" opacity="1.0"/>
    <path d="M 266.9781188964844 359.4104919433594 C 273.64556884765625 370.9789733886719 293.8065185546875 369.5451354980469 299.6299133300781 357.6251525878906 C 305.4532470703125 345.7051696777344 295.167724609375 329.46337890625 281.8366394042969 328.64178466796875 C 268.5055236816406 327.8202209472656 256.5494079589844 341.2753601074219 257.9686279296875 354.568603515625 L 266.9781188964844 359.4104919433594" stroke-width="0.6000000238418579" fill="rgb(233, 92, 21)" opacity="1.0"/>
    <path d="M 330.64251708984375 353.52252197265625 C 326.0574645996094 358.1430969238281 321.0596923828125 364.1380310058594 322.9321594238281 370.3955078125 C 323.77423095703125 372.8567199707031 325.3592834472656 374.9960021972656 327.46868896484375 376.5181579589844 C 332.5865478515625 380.42486572265625 339.280517578125 381.608642578125 345.4278259277344 379.694091796875 C 350.6382751464844 378.056640625 354.8282165527344 374.31732177734375 358.7932434082031 370.60992431640625 C 361.01715087890625 368.52374267578125 363.31353759765625 366.23638916015625 364.01031494140625 363.28497314453125 C 364.90673828125 359.3433532714844 362.6937255859375 355.3810729980469 360.21466064453125 352.1898193359375 C 356.5923767089844 347.5148620605469 352.2373046875 343.45703125 347.3183288574219 340.1737060546875 C 345.6165466308594 339.04254150390625 343.7597961425781 337.9728698730469 341.72052001953125 337.85504150390625 C 339.8187561035156 337.84246826171875 337.9544372558594 338.383544921875 336.3548583984375 339.4122314453125 C 331.3813781738281 342.34393310546875 327.9443054199219 347.309814453125 326.9522399902344 352.9971923828125 L 330.64251708984375 353.52252197265625" stroke-width="0.6000000238418579" fill="rgb(70, 150, 179)" opacity="1.0"/>
    <path d="M 296.4109191894531 413.60260009765625 C 289.1975402832031 412.1669921875 281.14178466796875 410.87860107421875 274.95947265625 414.85400390625 C 268.32086181640625 419.12841796875 266.33819580078125 428.25 267.9147033691406 435.986572265625 C 268.5212707519531 438.9697265625 269.63031005859375 441.969482421875 271.8131103515625 444.0909423828125 C 273.6068420410156 445.8355712890625 275.9727783203125 446.84857177734375 278.3272705078125 447.69384765625 C 285.7490539550781 450.368408203125 294.2493896484375 451.7156982421875 301.3568115234375 448.29595947265625 C 308.517578125 444.844482421875 312.9892272949219 436.4779052734375 311.8335876464844 428.6060791015625 C 310.677978515625 420.7342529296875 304.0630187988281 413.9510498046875 296.20672607421875 412.6612548828125 L 296.4109191894531 413.60260009765625" stroke-width="0.6000000238418579" fill="rgb(140, 28, 33)" opacity="1.0"/>
    <path d="M 326.2928771972656 386.7134094238281 C 318.84783935546875 387.5769348144531 311.1103515625 388.55755615234375 304.7047424316406 392.4593200683594 C 298.2992248535156 396.3610534667969 293.57269287109375 404.12237548828125 295.5516357421875 411.3555603027344 C 298.0143127441406 420.2786865234375 309.8514709472656 423.9962158203125 318.3918151855469 420.3822021484375 C 326.93218994140625 416.7681884765625 332.311279296875 408.1087951660156 335.211669921875 399.3126220703125 C 336.38232421875 396.6796569824219 336.5234069824219 393.7036437988281 335.6070861816406 390.9718017578125 C 334.42608642578125 388.3947448730469 330.54473876953125 386.99066162109375 328.63690185546875 389.1063537597656 L 326.2928771972656 386.7134094238281" stroke-width="0.6000000238418579" fill="rgb(159, 159, 159)" opacity="1.0"/>
    <path d="M 360.739013671875 410.08160400390625 C 355.02667236328125 414.19317626953125 350.59857177734375 420.3514404296875 349.5022888183594 427.300048828125 C 348.4059753417969 434.24853515625 351.00958251953125 441.8966064453125 356.73638916015625 446.0325927734375 C 360.7890319824219 448.95172119140625 366.0400390625 449.924072265625 371.0069885253906 449.3603515625 C 375.9739685058594 448.796630859375 380.687744140625 446.8076171875 384.9936828613281 444.2667236328125 C 386.86688232421875 443.1597900390625 388.7516174316406 441.86322021484375 389.7386169433594 439.9305419921875 C 390.8712158203125 437.7152099609375 390.6185607910156 435.074951171875 390.22021484375 432.611328125 C 389.09552001953125 425.65606689453125 386.862060546875 418.6082763671875 382.0496826171875 413.4610595703125 C 377.2372741699219 408.31378173828125 369.3579406738281 405.56805419921875 362.8868408203125 408.3125 L 360.739013671875 410.08160400390625" stroke-width="0.6000000238418579" fill="rgb(159, 159, 159)" opacity="1.0"/>
    <path d="M 254.28195190429688 368.5049133300781 C 255.371826171875 361.0595703125 256.26068115234375 352.7365417480469 251.83578491210938 346.6685791015625 C 247.54086303710938 340.7614440917969 239.66796875 338.9423828125 232.470947265625 337.6807861328125 C 229.5465087890625 337.1725769042969 226.47897338867188 336.6875305175781 223.66354370117188 337.6225280761719 C 218.90081787109375 339.2010803222656 216.28451538085938 344.28594970703125 214.9232177734375 349.10760498046875 C 213.65802001953125 353.58245849609375 213.0418701171875 358.2157897949219 213.09371948242188 362.86578369140625 C 213.17514038085938 370.4161071777344 215.72100830078125 378.8349304199219 222.4696044921875 382.2156677246094 C 226.11029052734375 384.0461120605469 230.465576171875 384.0797119140625 234.4290771484375 383.106689453125 C 238.39260864257812 382.1336364746094 242.05377197265625 380.2145690917969 245.64108276367188 378.2685241699219 C 249.22842407226562 376.3224792480469 252.711669921875 374.33343505859375 255.12493896484375 371.16357421875 L 254.28195190429688 368.5049133300781" stroke-width="0.6000000238418579" fill="rgb(218, 166, 20)" opacity="1.0"/>
    <path d="M 260.3387756347656 383.9854431152344 C 252.85260009765625 375.1449890136719 239.61724853515625 374.0470886230469 230.77679443359375 381.53326416015625 C 230.019775390625 382.1742858886719 229.3092041015625 382.86822509765625 228.650390625 383.6098327636719 C 226.1475830078125 386.42822265625 224.38873291015625 390.1078796386719 224.64376831054688 393.86669921875 C 224.8590087890625 397.0431823730469 226.45877075195312 399.952880859375 228.28411865234375 402.558837890625 C 233.1798095703125 409.52752685546875 239.85211181640625 415.05828857421875 247.60791015625 418.57659912109375 C 249.6595458984375 419.50311279296875 251.8470458984375 420.29583740234375 254.1016845703125 420.21728515625 C 257.8868103027344 420.08770751953125 261.21881103515625 417.48077392578125 263.3323669433594 414.33477783203125 C 266.47344970703125 409.666259765625 267.4430236816406 403.72271728515625 266.5425109863281 398.1671142578125 C 265.64202880859375 392.61151123046875 262.9856262207031 387.4336242675781 259.4479064941406 383.0570373535156 L 260.3387756347656 383.9854431152344" stroke-width="0.6000000238418579" fill="rgb(143, 165, 67)" opacity="1.0"/>
    <path d="M 195.92364501953125 374.5808410644531 C 181.58316040039062 374.33624267578125 171.77191162109375 393.7037353515625 179.53912353515625 405.6511535644531 C 187.306396484375 417.5985107421875 207.9505615234375 417.09002685546875 216.06866455078125 405.2607727050781 C 224.18670654296875 393.4314880371094 218.391357421875 374.98583984375 205.35964965820312 368.95330810546875 L 195.92364501953125 374.5808410644531" stroke-width="0.6000000238418579" fill="rgb(233, 92, 21)" opacity="1.0"/>
    <path d="M 255.1063232421875 373.7283935546875 C 252.2020263671875 379.2486572265625 249.30535888671875 386.1439514160156 252.77700805664062 391.35174560546875 C 254.2392578125 393.3704528808594 256.2918701171875 394.8857116699219 258.6517639160156 395.68841552734375 C 264.437255859375 397.83160400390625 270.9026794433594 397.03765869140625 275.99774169921875 393.5583190917969 C 280.31219482421875 390.5957946777344 283.1017761230469 385.9938659667969 285.6942138671875 381.48431396484375 C 287.1463928222656 378.9487609863281 288.6084899902344 376.2085876464844 288.4186096191406 373.3088684082031 C 288.1337890625 369.44586181640625 284.9942321777344 366.4365539550781 281.8272399902344 364.2083435058594 C 277.1964416503906 360.9415283203125 272.0673828125 358.4458312988281 266.6390686035156 356.8179931640625 C 264.7624206542969 356.2591552734375 262.760986328125 355.8001403808594 260.8594665527344 356.26446533203125 C 259.1134948730469 356.7866516113281 257.55718994140625 357.80560302734375 256.38031005859375 359.197021484375 C 252.64617919921875 363.27886962890625 250.890625 368.7933349609375 251.5777587890625 374.2826843261719 L 255.1063232421875 373.7283935546875" stroke-width="0.6000000238418579" fill="rgb(70, 150, 179)" opacity="1.0"/>
    <path d="M 336.3667907714844 358.71490478515625 C 336.8504638671875 351.5830078125 337.08709716796875 343.65753173828125 332.4839172363281 338.19464111328125 C 327.5355224609375 332.3292541503906 318.4961242675781 331.556396484375 311.2358093261719 334.04132080078125 C 308.43609619140625 334.9981994628906 305.68316650390625 336.4414978027344 303.9107360839844 338.81011962890625 C 302.45294189453125 340.7567443847656 301.7717590332031 343.1636047363281 301.25079345703125 345.53851318359375 C 299.5989074707031 353.02587890625 299.36102294921875 361.38720703125 303.5440368652344 367.8111267089844 C 307.7643737792969 374.2825012207031 316.3865966796875 377.5486145019531 323.8298034667969 375.4524841308594 C 331.2730407714844 373.35638427734375 336.9857177734375 366.1340026855469 337.2486877441406 358.400634765625 L 336.3667907714844 358.71490478515625" stroke-width="0.6000000238418579" fill="rgb(140, 28, 33)" opacity="1.0"/>
    <path d="M 358.970458984375 398.7316589355469 C 351.7388000488281 397.1913146972656 344.1968688964844 395.6682434082031 336.97882080078125 397.2956848144531 C 329.7608947753906 398.92315673828125 322.89544677734375 404.6878662109375 322.46453857421875 412.07318115234375 C 321.9530029296875 421.1907958984375 331.84576416015625 428.398193359375 340.96856689453125 427.71282958984375 C 350.09136962890625 427.0274658203125 357.8500061035156 420.6290283203125 363.3347473144531 413.3211669921875 C 365.25921630859375 411.2291259765625 366.3294982910156 408.4917297363281 366.3343505859375 405.649169921875 C 366.04296875 402.8678283691406 362.8575134277344 400.33148193359375 360.40704345703125 401.70758056640625 L 358.970458984375 398.7316589355469" stroke-width="0.6000000238418579" fill="rgb(159, 159, 159)" opacity="1.0"/>
    <path d="M 177.994140625 408.11822509765625 C 170.70880126953125 408.1640319824219 163.28048706054688 410.7069091796875 158.19024658203125 415.913818359375 C 153.09999084472656 421.1207275390625 150.71292114257812 429.1357421875 153.0667266845703 436.0589599609375 C 154.73709106445312 440.95166015625 158.585693359375 444.91973876953125 163.1153564453125 447.4212646484375 C 167.64495849609375 449.9228515625 172.81533813476562 451.0697021484375 177.97225952148438 451.50640869140625 C 180.216552734375 451.69512939453125 182.5843505859375 451.7305908203125 184.57577514648438 450.691162109375 C 186.8594970703125 449.50054931640625 188.2288818359375 447.120849609375 189.36944580078125 444.802978515625 C 192.58935546875 438.2591552734375 194.92901611328125 430.9725341796875 193.95306396484375 423.74407958984375 C 192.97705078125 416.515625 187.97332763671875 409.47540283203125 180.86712646484375 407.91265869140625 L 177.994140625 408.11822509765625" stroke-width="0.6000000238418579" fill="rgb(159, 159, 159)" opacity="1.0"/>
    <path d="M 363.7480163574219 368.66455078125 C 357.68670654296875 366.5271301269531 350.8567199707031 364.4138488769531 345.0433349609375 367.12518310546875 C 339.3860778808594 369.75396728515625 336.5671691894531 376.05377197265625 334.32659912109375 381.87872314453125 C 333.4198913574219 384.2463684082031 332.5090637207031 386.73773193359375 332.8299255371094 389.2512512207031 C 333.3700866699219 393.5027160644531 337.20196533203125 396.5315246582031 341.0195617675781 398.46514892578125 C 344.562255859375 400.2612609863281 348.3445129394531 401.5393371582031 352.2505187988281 402.26031494140625 C 358.5923767089844 403.4332580566406 366.0672912597656 402.6833801269531 370.01031494140625 397.5826416015625 C 372.14306640625 394.83203125 372.8871765136719 391.18707275390625 372.7231750488281 387.70501708984375 C 372.55914306640625 384.22296142578125 371.5525207519531 380.8388366699219 370.5111083984375 377.5121154785156 C 369.4697265625 374.1853942871094 368.3751525878906 370.9388732910156 366.1150207519531 368.3950500488281 L 363.7480163574219 368.66455078125" stroke-width="0.6000000238418579" fill="rgb(218, 166, 20)" opacity="1.0"/>
    <path d="M 373.3266906738281 378.5790100097656 C 365.8885498046875 387.87860107421875 367.3975524902344 401.44720458984375 376.6971435546875 408.88531494140625 C 377.49346923828125 409.5222473144531 378.333984375 410.10186767578125 379.21234130859375 410.619873046875 C 382.5502624511719 412.5875244140625 386.6099548339844 413.63433837890625 390.351318359375 412.63397216796875 C 393.5131530761719 411.78887939453125 396.13214111328125 409.599853515625 398.4001159667969 407.2432861328125 C 404.462158203125 400.9269714355469 408.722412109375 393.1026916503906 410.73834228515625 384.583251953125 C 411.2674255371094 382.3304138183594 411.6346435546875 379.9670104980469 411.1097106933594 377.7081298828125 C 410.23065185546875 373.9153747558594 406.942138671875 371.0694580078125 403.3506774902344 369.559326171875 C 398.02020263671875 367.3135986328125 391.8327941894531 367.5104675292969 386.40643310546875 369.5171813964844 C 380.9801025390625 371.5238952636719 376.2818908691406 375.22723388671875 372.56622314453125 379.6612243652344 L 373.3266906738281 378.5790100097656" stroke-width="0.6000000238418579" fill="rgb(143, 165, 67)" opacity="1.0"/>
    <path d="M 365.8717956542969 361.38104248046875 C 371.6806335449219 374.1119079589844 392.8570251464844 374.6156005859375 400.1148986816406 362.7569274902344 C 407.37274169921875 350.89825439453125 398.252685546875 332.93280029296875 384.4256591796875 330.7533874511719 C 370.5986328125 328.573974609375 356.79010009765625 341.4260559082031 356.95233154296875 355.4358215332031 L 365.8717956542969 361.38104248046875" stroke-width="0.6000000238418579" fill="rgb(233, 92, 21)" opacity="1.0"/>
    <path d="M 403.48968505859375 352.5028076171875 C 402.45819091796875 359.2261047363281 401.9233703613281 367.3642272949219 407.35369873046875 371.4986877441406 C 409.57879638671875 373.0599365234375 412.2335205078125 373.89227294921875 414.95166015625 373.88079833984375 C 421.6778564453125 374.03338623046875 428.060791015625 370.9163818359375 432.0762939453125 365.5182189941406 C 435.4708251953125 360.9303283691406 436.7105712890625 355.19451904296875 437.7799072265625 349.6240234375 C 438.37548828125 346.4938659667969 438.9085693359375 343.14923095703125 437.68194580078125 340.2274475097656 C 436.0150146484375 336.3463439941406 431.7086181640625 334.3602294921875 427.651611328125 333.1890563964844 C 421.71636962890625 331.4676513671875 415.5416259765625 330.71826171875 409.36688232421875 330.9699401855469 C 407.23358154296875 331.06103515625 405.00714111328125 331.29937744140625 403.2119445800781 332.4540710449219 C 401.5976867675781 333.61309814453125 400.35552978515625 335.216796875 399.636962890625 337.0696105957031 C 397.2386169433594 342.6050720214844 397.3892822265625 348.91400146484375 400.0491638183594 354.32867431640625 L 403.48968505859375 352.5028076171875" stroke-width="0.6000000238418579" fill="rgb(70, 150, 179)" opacity="1.0"/>
    <path d="M 389.5616760253906 421.5146484375 C 388.79840087890625 428.8255615234375 388.2593078613281 436.96124267578125 392.7857971191406 442.7469482421875 C 397.6519470214844 448.959228515625 406.9123229980469 450.0909423828125 414.466064453125 447.808349609375 C 417.37890625 446.9295654296875 420.2618408203125 445.54913330078125 422.171630859375 443.18121337890625 C 423.74237060546875 441.2352294921875 424.5322265625 438.7872314453125 425.15625 436.36614990234375 C 427.13336181640625 428.7335205078125 427.68994140625 420.1500244140625 423.63116455078125 413.39239501953125 C 419.5357666015625 406.5845947265625 410.7972106933594 402.90631103515625 403.07000732421875 404.782470703125 C 395.34283447265625 406.6586608886719 389.20263671875 413.8673095703125 388.6436767578125 421.8046875 L 389.5616760253906 421.5146484375" stroke-width="0.6000000238418579" fill="rgb(140, 28, 33)" opacity="1.0"/>
    <path d="M 412.5384521484375 376.8279724121094 C 410.7571105957031 384.1461181640625 408.9842224121094 391.78070068359375 410.4288635253906 399.17822265625 C 411.87347412109375 406.57562255859375 417.5411376953125 413.7359619140625 425.04840087890625 414.39208984375 C 434.317138671875 415.181396484375 441.9471435546875 405.3204650878906 441.51788330078125 396.0111999511719 C 441.088623046875 386.7019348144531 434.802001953125 378.6134948730469 427.52239990234375 372.81365966796875 C 425.4488525390625 370.7925109863281 422.69305419921875 369.62213134765625 419.798828125 369.53350830078125 C 416.95819091796875 369.7483215332031 414.2818603515625 372.9171447753906 415.61090087890625 375.45281982421875 L 412.5384521484375 376.8279724121094" stroke-width="0.6000000238418579" fill="rgb(159, 159, 159)" opacity="1.0"/>
    <path d="M 434.569091796875 371.19293212890625 C 435.95037841796875 378.3555603027344 439.8157958984375 385.20098876953125 445.8746337890625 389.25640869140625 C 451.9334716796875 393.31182861328125 460.260498046875 394.19146728515625 466.6434326171875 390.60479736328125 C 471.15301513671875 388.0632629394531 474.35302734375 383.5472412109375 475.98455810546875 378.6298828125 C 477.6160888671875 373.7124938964844 477.79669189453125 368.4128723144531 477.28076171875 363.2567443847656 C 477.05487060546875 361.0130615234375 476.655517578125 358.6759033203125 475.26715087890625 356.9063415527344 C 473.67633056640625 354.8768310546875 471.0828857421875 353.96533203125 468.5921630859375 353.2677917480469 C 461.5604248046875 351.298583984375 453.958984375 350.33203125 447.02288818359375 352.6184387207031 C 440.0867919921875 354.9048767089844 434.07476806640625 361.121337890625 433.83984375 368.4026794433594 L 434.569091796875 371.19293212890625" stroke-width="0.6000000238418579" fill="rgb(159, 159, 159)" opacity="1.0"/>
    <path d="M 431.33441162109375 411.19696044921875 C 426.53741455078125 416.0491943359375 421.41552734375 421.6505126953125 421.3865966796875 428.460205078125 C 421.34912109375 435.0826416015625 426.121826171875 440.64202880859375 430.7003173828125 445.4310302734375 C 432.563232421875 447.373779296875 434.54296875 449.37646484375 437.101806640625 450.20648193359375 C 441.4285888671875 451.6129150390625 446.072021484375 449.3050537109375 449.6573486328125 446.514892578125 C 452.98614501953125 443.926513671875 455.926025390625 440.87353515625 458.386962890625 437.449462890625 C 462.3848876953125 431.89111328125 465.049560546875 424.37408447265625 461.937255859375 418.2783203125 C 460.2618408203125 414.9849853515625 457.09893798828125 412.6199951171875 453.68115234375 411.2007141113281 C 450.263427734375 409.781494140625 446.55816650390625 409.2156982421875 442.89227294921875 408.70928955078125 C 439.2264404296875 408.202880859375 435.61346435546875 407.7838134765625 432.1474609375 408.8021240234375 L 431.33441162109375 411.19696044921875" stroke-width="0.6000000238418579" fill="rgb(218, 166, 20)" opacity="1.0"/>
    <path d="M 134.18145751953125 212.17514038085938 C 134.0599822998047 224.06390380859375 143.59927368164062 233.8001708984375 155.48805236816406 233.921630859375 C 156.506103515625 233.93203735351562 157.5235595703125 233.87017822265625 158.53289794921875 233.73660278320312 C 162.36785888671875 233.228271484375 166.20333862304688 231.5518798828125 168.5283203125 228.4622802734375 C 170.49331665039062 225.85150146484375 171.20428466796875 222.5185546875 171.53616333007812 219.27001953125 C 172.41259765625 210.57330322265625 170.94442749023438 201.800537109375 167.2841796875 193.863037109375 C 166.31317138671875 191.76654052734375 165.1468505859375 189.68276977539062 163.34356689453125 188.23040771484375 C 160.3177490234375 185.7904052734375 155.98086547851562 185.57794189453125 152.22821044921875 186.6019287109375 C 146.65582275390625 188.1182861328125 141.91360473632812 192.08221435546875 138.8837432861328 197.0001220703125 C 135.8538818359375 201.91802978515625 134.4408721923828 207.72128295898438 134.24996948242188 213.49395751953125 L 134.18145751953125 212.17514038085938" stroke-width="0.6000000238418579" fill="rgb(143, 165, 67)" opacity="1.0"/>
    <path d="M 169.71112060546875 263.3249816894531 C 180.33465576171875 274.2033996582031 202.17059326171875 266.92596435546875 205.227294921875 252.13101196289062 C 208.283935546875 237.3360595703125 192.3487548828125 222.32431030273438 177.41015625 225.18411254882812 C 162.4715576171875 228.0439453125 153.0830841064453 246.2650146484375 158.40423583984375 260.52880859375 L 169.71112060546875 263.3249816894531" stroke-width="0.6000000238418579" fill="rgb(233, 92, 21)" opacity="1.0"/>
    <path d="M 145.0583953857422 313.138916015625 C 138.87042236328125 316.4285888671875 131.81993103027344 320.9999694824219 131.75048828125 328.03155517578125 C 131.8317413330078 330.8309326171875 132.7796630859375 333.5361022949219 134.46353149414062 335.77386474609375 C 138.48081970214844 341.4228210449219 144.9869384765625 344.7742004394531 151.91868591308594 344.7652282714844 C 157.7987060546875 344.7425537109375 163.2994384765625 342.2331237792969 168.55865478515625 339.684814453125 C 171.51065063476562 338.2485656738281 174.60128784179688 336.6285400390625 176.25869750976562 333.815673828125 C 178.4371337890625 330.0482482910156 177.4246826171875 325.26824951171875 175.89279174804688 321.1962890625 C 173.6583251953125 315.234130859375 170.47360229492188 309.6729736328125 166.46209716796875 304.7284851074219 C 165.07275390625 303.0227355957031 163.50445556640625 301.330810546875 161.44497680664062 300.55950927734375 C 159.493408203125 299.9403076171875 157.40374755859375 299.90234375 155.43093872070312 300.4502258300781 C 149.38198852539062 301.87933349609375 144.2644500732422 305.89007568359375 141.4311065673828 311.4222106933594 L 145.0583953857422 313.138916015625" stroke-width="0.6000000238418579" fill="rgb(70, 150, 179)" opacity="1.0"/>
    <path d="M 121.2020263671875 300.8390197753906 C 122.13760375976562 293.2423095703125 122.85568237304688 284.7826843261719 118.25469970703125 278.6719055175781 C 113.30831909179688 272.11053466796875 103.68916320800781 270.75384521484375 95.78096008300781 272.9845886230469 C 92.73150634765625 273.8433837890625 89.70350646972656 275.22491455078125 87.66952514648438 277.6533508300781 C 85.9967041015625 279.6490478515625 85.12718200683594 282.182373046875 84.43084716796875 284.6909484863281 C 82.22538757324219 292.59912109375 81.48042297363281 301.52471923828125 85.57577514648438 308.6383056640625 C 89.70822143554688 315.8048400878906 98.73504638671875 319.802734375 106.81597900390625 317.9984130859375 C 114.89691162109375 316.194091796875 121.42842102050781 308.8074951171875 122.16334533691406 300.55474853515625 L 121.2020263671875 300.8390197753906" stroke-width="0.6000000238418579" fill="rgb(140, 28, 33)" opacity="1.0"/>
    <path d="M 144.06227111816406 267.7942199707031 C 137.59091186523438 271.7981872558594 130.90121459960938 276.035888671875 126.69537353515625 282.384521484375 C 122.48959350585938 288.7330627441406 121.49142456054688 297.905517578125 126.42935180664062 303.701171875 C 132.5406494140625 310.84173583984375 145.02462768554688 309.15496826171875 151.31687927246094 302.150390625 C 157.609130859375 295.14581298828125 158.8199462890625 284.8664245605469 157.69329833984375 275.5301513671875 C 157.63406372070312 272.6050720214844 156.48056030273438 269.80859375 154.46031188964844 267.6925048828125 C 152.26351928710938 265.83282470703125 148.09024047851562 266.2157287597656 147.24874877929688 268.983154296875 L 144.06227111816406 267.7942199707031" stroke-width="0.6000000238418579" fill="rgb(159, 159, 159)" opacity="1.0"/>
    <path d="M 160.41278076171875 284.6219177246094 C 160.1065673828125 292.1743469238281 162.38128662109375 299.9962158203125 167.5303955078125 305.5243225097656 C 172.67950439453125 311.05242919921875 180.8699951171875 313.9154052734375 188.15924072265625 311.8121337890625 C 193.3109130859375 310.31854248046875 197.61013793945312 306.52264404296875 200.42254638671875 301.94976806640625 C 203.23495483398438 297.37689208984375 204.67453002929688 292.07421875 205.37747192382812 286.7509765625 C 205.6820068359375 284.43426513671875 205.833740234375 281.98211669921875 204.85321044921875 279.8677978515625 C 203.73013305664062 277.4432678222656 201.33041381835938 275.90850830078125 198.983642578125 274.6139831542969 C 192.358154296875 270.95928955078125 184.92022705078125 268.1807861328125 177.38156127929688 268.8413391113281 C 169.84286499023438 269.50189208984375 162.30377197265625 274.34576416015625 160.3392333984375 281.63446044921875 L 160.41278076171875 284.6219177246094" stroke-width="0.6000000238418579" fill="rgb(159, 159, 159)" opacity="1.0"/>
    <path d="M 127.90481567382812 348.6911926269531 C 128.62648010253906 341.1905822753906 129.10372924804688 332.822021484375 124.37777709960938 326.971923828125 C 119.78981018066406 321.27618408203125 111.82545471191406 319.8463439941406 104.564697265625 318.9405822753906 C 101.61456298828125 318.57696533203125 98.52249145507812 318.2436218261719 95.7528076171875 319.3180847167969 C 91.06733703613281 321.1325988769531 88.70211791992188 326.3478088378906 87.57916259765625 331.23773193359375 C 86.53509521484375 335.7760009765625 86.14813232421875 340.440673828125 86.43003845214844 345.08892822265625 C 86.88505554199219 352.6366271972656 89.847900390625 360.9309997558594 96.76504516601562 363.97845458984375 C 100.4969482421875 365.6291198730469 104.85470581054688 365.44720458984375 108.77078247070312 364.27789306640625 C 112.6868896484375 363.1085510253906 116.25373840332031 361.0080261230469 119.74545288085938 358.8841247558594 C 123.23715209960938 356.7602233886719 126.62260437011719 354.5984802246094 128.8794708251953 351.3086242675781 L 127.90481567382812 348.6911926269531" stroke-width="0.6000000238418579" fill="rgb(218, 166, 20)" opacity="1.0"/>
    <path d="M 150.87974548339844 343.7977600097656 C 139.59140014648438 345.1210021972656 131.51307678222656 355.3446960449219 132.8363037109375 366.6330261230469 C 132.94961547851562 367.5996398925781 133.13136291503906 368.5570068359375 133.38014221191406 369.4979248046875 C 134.326171875 373.072998046875 136.37986755371094 376.5072021484375 139.59092712402344 378.3380432128906 C 142.30433654785156 379.885498046875 145.5508575439453 380.15643310546875 148.6714630126953 380.078125 C 157.02423095703125 379.85699462890625 165.16546630859375 377.40338134765625 172.24945068359375 372.97216796875 C 174.1199951171875 371.7977294921875 175.954833984375 370.43963623046875 177.1138916015625 368.553955078125 C 179.0615234375 365.38946533203125 178.73828125 361.25128173828125 177.313232421875 357.8166809082031 C 175.20114135742188 352.716064453125 170.86859130859375 348.69879150390625 165.8385009765625 346.42071533203125 C 160.8084716796875 344.14263916015625 155.13453674316406 343.5048828125 149.63746643066406 344.02227783203125 L 150.87974548339844 343.7977600097656" stroke-width="0.6000000238418579" fill="rgb(143, 165, 67)" opacity="1.0"/>
    <path d="M 138.59396362304688 376.5167236328125 C 135.3393096923828 362.95904541015625 114.72512817382812 358.4305725097656 105.366943359375 368.6449279785156 C 96.00881958007812 378.85931396484375 101.50416564941406 398.1673889160156 114.61141967773438 402.93402099609375 C 127.71868896484375 407.7006530761719 143.672607421875 397.7632141113281 146.18399047851562 384.0309753417969 L 138.59396362304688 376.5167236328125" stroke-width="0.6000000238418579" fill="rgb(233, 92, 21)" opacity="1.0"/>
    <path d="M 177.92437744140625 352.779541015625 C 177.12078857421875 359.90484619140625 176.89987182617188 368.49957275390625 182.79385375976562 372.62603759765625 C 185.20330810546875 374.17694091796875 188.03466796875 374.94195556640625 190.8973388671875 374.81549072265625 C 197.98867797851562 374.69317626953125 204.58087158203125 371.1413269042969 208.58343505859375 365.2862243652344 C 211.96597290039062 360.310791015625 213.03045654296875 354.2168884277344 213.92239379882812 348.3042297363281 C 214.41806030273438 344.9820556640625 214.8388671875 341.4366149902344 213.42385864257812 338.41058349609375 C 211.50469970703125 334.3926086425781 206.885009765625 332.4817810058594 202.56234741210938 331.41888427734375 C 196.23806762695312 329.85540771484375 189.70242309570312 329.32586669921875 183.20892333984375 329.850830078125 C 180.96563720703125 330.0365295410156 178.6304931640625 330.38128662109375 176.78814697265625 331.673095703125 C 175.13653564453125 332.9618835449219 173.8956298828125 334.7033996582031 173.21670532226562 336.6852722167969 C 170.92337036132812 342.6169128417969 171.3475341796875 349.2560119628906 174.37713623046875 354.8475646972656 L 177.92437744140625 352.779541015625" stroke-width="0.6000000238418579" fill="rgb(70, 150, 179)" opacity="1.0"/>
  </g>
</svg>
