<?xml version="1.0" ?>
<svg xmlns="http://www.w3.org/2000/svg" version="1.1" width="600" height="600">
  <defs/>
  <g>
    <path d="M 351.16644287109375 344.1614990234375 C 355.84869384765625 347.4481201171875 363.4190979003906 343.2439880371094 363.5242919921875 337.5611877441406 C 363.62945556640625 331.8783874511719 356.6966552734375 327.4313659667969 351.3706970214844 329.52398681640625 C 346.0447082519531 331.6166076660156 343.83551025390625 339.00506591796875 346.7915344238281 343.91094970703125 L 351.16644287109375 344.1614990234375" stroke-width="0.6000000238418579" fill="rgb(233, 92, 21)" opacity="1.0"/>
    <path d="M 124.31245422363281 209.43792724609375 C 128.51109313964844 209.15731811523438 133.49737548828125 208.38665771484375 135.26434326171875 204.55181884765625 C 135.9081268310547 202.99835205078125 136.05401611328125 201.28338623046875 135.6818084716797 199.64349365234375 C 134.87008666992188 195.56121826171875 132.1300506591797 192.1256103515625 128.33062744140625 190.4261474609375 C 125.10395812988281 188.9927978515625 121.47364807128906 189.01495361328125 117.966064453125 189.1177978515625 C 115.99580383300781 189.17877197265625 113.9044189453125 189.3062744140625 112.30485534667969 190.43963623046875 C 110.18516540527344 191.96783447265625 109.56451416015625 194.83526611328125 109.4024658203125 197.44253540039062 C 109.1605224609375 201.25799560546875 109.53775024414062 205.08749389648438 110.51953125 208.78244018554688 C 110.86119079589844 210.0584716796875 111.3043212890625 211.37091064453125 112.24284362792969 212.2998046875 C 113.15966796875 213.11886596679688 114.2950439453125 213.65347290039062 115.51046752929688 213.83840942382812 C 119.17549133300781 214.5428466796875 122.96504211425781 213.60406494140625 125.87738037109375 211.27020263671875 L 124.31245422363281 209.43792724609375" stroke-width="0.6000000238418579" fill="rgb(70, 150, 179)" opacity="1.0"/>
    <path d="M 455.216064453125 409.91412353515625 C 457.8931884765625 412.6107177734375 460.973876953125 415.4873046875 464.7705078125 415.5673828125 C 468.8489990234375 415.6510009765625 472.33056640625 412.31390380859375 473.88726806640625 408.5433654785156 C 474.488037109375 407.08984375 474.8782958984375 405.4842529296875 474.554931640625 403.94525146484375 C 474.28961181640625 402.67999267578125 473.5679931640625 401.5632019042969 472.80279541015625 400.52154541015625 C 470.393798828125 397.23382568359375 467.1395263671875 394.2037353515625 463.1068115234375 393.6185607910156 C 459.0419921875 393.0316162109375 454.7115478515625 395.3269958496094 452.9354248046875 399.0340576171875 C 451.159423828125 402.7411193847656 452.037109375 407.55682373046875 455.03192138671875 410.3764953613281 L 455.216064453125 409.91412353515625" stroke-width="0.6000000238418579" fill="rgb(140, 28, 33)" opacity="1.0"/>
    <path d="M 89.51225280761719 208.76763916015625 C 93.912109375 208.7119140625 98.48980712890625 208.60546875 102.4656982421875 206.71282958984375 C 106.44155883789062 204.82025146484375 109.66943359375 200.572509765625 108.94960021972656 196.22915649414062 C 108.049072265625 190.8697509765625 101.36029052734375 187.98553466796875 96.15505981445312 189.58148193359375 C 90.94981384277344 191.17742919921875 87.28671264648438 195.91033935546875 85.06292724609375 200.8724365234375 C 84.22064208984375 202.33950805664062 83.95892333984375 204.0689697265625 84.32943725585938 205.71954345703125 C 84.86386108398438 207.29571533203125 87.04592895507812 208.34951782226562 88.28755187988281 207.22894287109375 L 89.51225280761719 208.76763916015625" stroke-width="0.6000000238418579" fill="rgb(159, 159, 159)" opacity="1.0"/>
    <path d="M 382.2057189941406 306.4654846191406 C 385.91998291015625 305.28863525390625 389.3119201660156 302.8135681152344 391.0877685546875 299.34783935546875 C 392.86358642578125 295.8821105957031 392.8139953613281 291.40997314453125 390.5154724121094 288.24609375 C 388.8875732421875 286.01123046875 386.2933654785156 284.5935974121094 383.5834655761719 284.03289794921875 C 380.8735656738281 283.4721984863281 378.05084228515625 283.7049560546875 375.3474426269531 284.29833984375 C 374.1711120605469 284.5572814941406 372.95599365234375 284.91400146484375 372.103271484375 285.7602844238281 C 371.1252136230469 286.7300720214844 370.8024597167969 288.1624755859375 370.5868225097656 289.5270690917969 C 369.9780578613281 293.3796081542969 369.9365539550781 297.4721984863281 371.5795593261719 301.0101318359375 C 373.2225646972656 304.548095703125 376.89324951171875 307.3521728515625 380.7706604003906 307.0253601074219 L 382.2057189941406 306.4654846191406" stroke-width="0.6000000238418579" fill="rgb(159, 159, 159)" opacity="1.0"/>
    <path d="M 103.01004028320312 423.03839111328125 C 105.42111206054688 420.700927734375 107.9998779296875 417.9981689453125 108.08522033691406 414.647705078125 C 108.17282104492188 411.38946533203125 105.88243103027344 408.6040954589844 103.67950439453125 406.1997985839844 C 102.78317260742188 405.22442626953125 101.82989501953125 404.2182922363281 100.57949829101562 403.78314208984375 C 98.46511840820312 403.0458984375 96.15618896484375 404.133056640625 94.36285400390625 405.468505859375 C 92.69786071777344 406.7073974609375 91.21939086914062 408.178955078125 89.97268676757812 409.838134765625 C 87.94743347167969 412.5313720703125 86.55775451660156 416.202392578125 88.02554321289062 419.234375 C 88.8155517578125 420.8724365234375 90.34721374511719 422.06915283203125 92.01412963867188 422.80322265625 C 93.68106079101562 423.5372314453125 95.49835205078125 423.85430908203125 97.29690551757812 424.14178466796875 C 99.09544372558594 424.42926025390625 100.86885070800781 424.6732177734375 102.5849609375 424.208251953125 L 103.01004028320312 423.03839111328125" stroke-width="0.6000000238418579" fill="rgb(218, 166, 20)" opacity="1.0"/>
    <path d="M 99.69729614257812 151.3907928466797 C 107.10165405273438 152.61790466308594 114.09884643554688 147.61024475097656 115.32595825195312 140.20587158203125 C 115.4310302734375 139.57183837890625 115.49099731445312 138.93115234375 115.50540161132812 138.2886199951172 C 115.55970764160156 135.84715270996094 114.88542175292969 133.29226684570312 113.18328857421875 131.5427703857422 C 111.74502563476562 130.06417846679688 109.73480224609375 129.29791259765625 107.74053955078125 128.7762908935547 C 102.40045166015625 127.38737487792969 96.785888671875 127.45364379882812 91.48007202148438 128.96817016601562 C 90.0782470703125 129.37088012695312 88.66546630859375 129.89662170410156 87.58486938476562 130.8808135986328 C 85.769775390625 132.5320281982422 85.21725463867188 135.2167510986328 85.49258422851562 137.65679931640625 C 85.89886474609375 141.2796630859375 87.91226196289062 144.6217041015625 90.68661499023438 146.9879608154297 C 93.4609375 149.35423278808594 96.94412231445312 150.7976531982422 100.52658081054688 151.47576904296875 L 99.69729614257812 151.3907928466797" stroke-width="0.6000000238418579" fill="rgb(143, 165, 67)" opacity="1.0"/>
    <path d="M 459.96234130859375 346.2228698730469 C 463.05987548828125 353.6789245605469 475.26092529296875 354.3885803222656 479.68084716796875 347.69415283203125 C 484.1007080078125 340.9997253417969 479.19744873046875 330.4596862792969 471.2674560546875 328.9292297363281 C 463.33746337890625 327.3987731933594 455.12060546875 334.536376953125 454.936767578125 342.6180725097656 L 459.96234130859375 346.2228698730469" stroke-width="0.6000000238418579" fill="rgb(233, 92, 21)" opacity="1.0"/>
    <path d="M 106.43585205078125 226.129150390625 C 109.11740112304688 222.5372314453125 111.94802856445312 217.96847534179688 110.06890869140625 213.882080078125 C 109.25782775878906 212.28497314453125 107.97113037109375 210.9788818359375 106.38629150390625 210.14404296875 C 102.52059936523438 207.972900390625 97.84237670898438 207.81011962890625 93.83512878417969 209.70733642578125 C 90.44000244140625 211.32537841796875 87.94305419921875 214.27838134765625 85.59637451171875 217.18798828125 C 84.28082275390625 218.82452392578125 82.93521118164062 220.605224609375 82.74424743652344 222.68472290039062 C 82.51243591308594 225.4586181640625 84.40280151367188 227.947265625 86.40036010742188 229.88458251953125 C 89.32025146484375 232.7235107421875 92.68038940429688 235.07110595703125 96.35044860839844 236.8363037109375 C 97.61968994140625 237.44378662109375 98.98870849609375 237.99441528320312 100.39053344726562 237.87844848632812 C 101.68844604492188 237.70394897460938 102.90756225585938 237.15554809570312 103.89920043945312 236.30014038085938 C 107.00814819335938 233.8223876953125 108.87368774414062 230.10556030273438 109.00265502929688 226.13211059570312 L 106.43585205078125 226.129150390625" stroke-width="0.6000000238418579" fill="rgb(70, 150, 179)" opacity="1.0"/>
    <path d="M 106.06246948242188 82.61285400390625 C 106.34271240234375 86.90283203125 106.83346557617188 91.64614868164062 110.01298522949219 94.53567504882812 C 113.43035888671875 97.63763427734375 118.88046264648438 97.37771606445312 123.01034545898438 95.317626953125 C 124.60298156738281 94.52401733398438 126.12899780273438 93.44418334960938 126.99671936035156 91.89091491699219 C 127.71054077148438 90.61428833007812 127.92472839355469 89.125244140625 128.04595947265625 87.66799926757812 C 128.4337615966797 83.07301330566406 127.90901184082031 78.06974792480469 124.90333557128906 74.5738525390625 C 121.87164306640625 71.05264282226562 116.47146606445312 69.79302978515625 112.20158386230469 71.63594055175781 C 107.93170166015625 73.47883605957031 105.10206604003906 78.23959350585938 105.56181335449219 82.87051391601562 L 106.06246948242188 82.61285400390625" stroke-width="0.6000000238418579" fill="rgb(140, 28, 33)" opacity="1.0"/>
    <path d="M 93.19491577148438 407.02227783203125 C 96.474365234375 404.5021057128906 99.85903930664062 401.8435974121094 101.78482055664062 398.1799621582031 C 103.71055603027344 394.5163879394531 103.74691772460938 389.50189208984375 100.75881958007812 386.6390380859375 C 97.06246948242188 383.1134033203125 90.40472412109375 384.7105712890625 87.38677978515625 388.8433837890625 C 84.36883544921875 392.9761962890625 84.27825927734375 398.60089111328125 85.39982604980469 403.5873718261719 C 85.59237670898438 405.165771484375 86.36956787109375 406.61456298828125 87.57806396484375 407.6479187011719 C 88.86798095703125 408.5329284667969 91.10353088378906 408.0968322753906 91.40667724609375 406.55426025390625 L 93.19491577148438 407.02227783203125" stroke-width="0.6000000238418579" fill="rgb(159, 159, 159)" opacity="1.0"/>
    <path d="M 477.926025390625 70.3692626953125 C 478.998291015625 66.97683715820312 478.93157958984375 63.143157958984375 477.27593994140625 59.996124267578125 C 475.62030029296875 56.849090576171875 472.25396728515625 54.53675842285156 468.68341064453125 54.59141540527344 C 466.15899658203125 54.63325500488281 463.7373046875 55.82611083984375 461.89495849609375 57.555572509765625 C 460.05255126953125 59.28504943847656 458.7435302734375 61.515594482421875 457.76654052734375 63.84651184082031 C 457.3419189453125 64.86111450195312 456.9700927734375 65.95611572265625 457.1541748046875 67.03756713867188 C 457.36468505859375 68.27754211425781 458.2650146484375 69.2711181640625 459.1708984375 70.1490478515625 C 461.72857666015625 72.62759399414062 464.7635498046875 74.80857849121094 468.2691650390625 75.44003295898438 C 471.7747802734375 76.07147216796875 475.7974853515625 74.80294799804688 477.59033203125 71.7352294921875 L 477.926025390625 70.3692626953125" stroke-width="0.6000000238418579" fill="rgb(159, 159, 159)" opacity="1.0"/>
    <path d="M 89.34956359863281 109.70120239257812 C 93.48170471191406 110.95497131347656 98.12908935546875 112.16958618164062 101.95013427734375 110.17626953125 C 105.66885375976562 108.24299621582031 107.3729248046875 103.930419921875 108.70297241210938 99.953857421875 C 109.24090576171875 98.33761596679688 109.77790832519531 96.63822937011719 109.487548828125 94.96072387695312 C 108.99812316894531 92.12326049804688 106.33576965332031 90.20465087890625 103.71568298339844 89.02072143554688 C 101.28421020507812 87.92088317871094 98.70742797851562 87.1759033203125 96.06417846679688 86.80853271484375 C 91.77252197265625 86.21049499511719 86.7777099609375 86.93687438964844 84.28334045410156 90.47817993164062 C 82.93392944335938 92.38803100585938 82.54324340820312 94.85673522949219 82.75723266601562 97.18901062011719 C 82.97122192382812 99.52128601074219 83.74786376953125 101.7626953125 84.546142578125 103.96450805664062 C 85.34439086914062 106.16632080078125 86.17593383789062 108.312744140625 87.76887512207031 109.95272827148438 L 89.34956359863281 109.70120239257812" stroke-width="0.6000000238418579" fill="rgb(218, 166, 20)" opacity="1.0"/>
    <path d="M 128.29534912109375 137.43861389160156 C 135.072021484375 136.84579467773438 140.08502197265625 130.87164306640625 139.49221801757812 124.094970703125 C 139.4414520263672 123.51467895507812 139.34957885742188 122.93873596191406 139.21731567382812 122.37144470214844 C 138.7143096923828 120.21595764160156 137.546142578125 118.125244140625 135.6573486328125 116.97335815429688 C 134.061279296875 115.99978637695312 132.123779296875 115.780517578125 130.25547790527344 115.77239990234375 C 125.25444030761719 115.75759887695312 120.34065246582031 117.08210754394531 116.0245361328125 119.60833740234375 C 114.88479614257812 120.27803039550781 113.76315307617188 121.05819702148438 113.03652954101562 122.16590881347656 C 111.81558227539062 124.02481079101562 111.93609619140625 126.50619506835938 112.7281494140625 128.58609008789062 C 113.90191650390625 131.67477416992188 116.42315673828125 134.15444946289062 119.39230346679688 135.60592651367188 C 122.3614501953125 137.05740356445312 125.74472045898438 137.5388946533203 129.04251098632812 137.326171875 L 128.29534912109375 137.43861389160156" stroke-width="0.6000000238418579" fill="rgb(143, 165, 67)" opacity="1.0"/>
    <path d="M 397.3534851074219 308.153564453125 C 400.46563720703125 315.3778381347656 412.3607177734375 315.9144287109375 416.58154296875 309.3367614746094 C 420.80242919921875 302.75909423828125 415.89202880859375 292.5533752441406 408.1473693847656 291.16302490234375 C 400.4027099609375 289.7726745605469 392.4884948730469 296.8302001953125 392.4119567871094 304.7055969238281 L 397.3534851074219 308.153564453125" stroke-width="0.6000000238418579" fill="rgb(233, 92, 21)" opacity="1.0"/>
    <path d="M 127.03688049316406 114.82553100585938 C 131.10914611816406 114.19412231445312 135.90806579589844 113.01754760742188 137.30523681640625 109.12579345703125 C 137.8009796142578 107.55538940429688 137.79722595214844 105.86984252929688 137.29440307617188 104.30169677734375 C 136.15475463867188 100.38821411132812 133.18894958496094 97.26986694335938 129.33749389648438 95.93553161621094 C 126.06748962402344 94.81202697753906 122.52767944335938 95.14288330078125 119.11445617675781 95.5419921875 C 117.19747924804688 95.769287109375 115.16799926757812 96.07183837890625 113.70404052734375 97.31381225585938 C 111.76625061035156 98.98524475097656 111.40499877929688 101.83555603027344 111.468994140625 104.39300537109375 C 111.5579833984375 108.13597106933594 112.25222778320312 111.83984375 113.52476501464844 115.36097717285156 C 113.966796875 116.57673645019531 114.51089477539062 117.81941223144531 115.50564575195312 118.64569091796875 C 116.46987915039062 119.36666870117188 117.62306213378906 119.79150390625 118.8245849609375 119.86839294433594 C 122.46014404296875 120.24343872070312 126.07723999023438 119.0047607421875 128.71969604492188 116.47978210449219 L 127.03688049316406 114.82553100585938" stroke-width="0.6000000238418579" fill="rgb(70, 150, 179)" opacity="1.0"/>
    <path d="M 422.39031982421875 63.50177001953125 C 423.9122314453125 66.24273681640625 425.71429443359375 69.21699523925781 428.711181640625 70.13096618652344 C 431.9310302734375 71.11085510253906 435.4432373046875 69.24070739746094 437.52392578125 66.59524536132812 C 438.3265380859375 65.57559204101562 438.99603271484375 64.38803100585938 439.083984375 63.093505859375 C 439.1566162109375 62.02935791015625 438.833740234375 60.98088073730469 438.45947265625 59.98234558105469 C 437.2828369140625 56.83204650878906 435.37738037109375 53.697021484375 432.30615234375 52.32908630371094 C 429.2098388671875 50.95256042480469 425.2569580078125 51.80535888671875 423.0162353515625 54.35127258300781 C 420.775634765625 56.897186279296875 420.39398193359375 60.917877197265625 422.14056396484375 63.82768249511719 L 422.39031982421875 63.50177001953125" stroke-width="0.6000000238418579" fill="rgb(140, 28, 33)" opacity="1.0"/>
    <path d="M 120.20597839355469 422.46160888671875 C 122.6016845703125 419.37890625 125.06057739257812 416.14471435546875 125.94757080078125 412.3397216796875 C 126.83453369140625 408.5347900390625 125.67404174804688 403.9455871582031 122.2630615234375 402.0418395996094 C 118.04731750488281 399.70123291015625 112.34596252441406 402.74505615234375 110.57302856445312 407.2386169433594 C 108.80009460449219 411.732177734375 110.05630493164062 416.89166259765625 112.26783752441406 421.1795654296875 C 112.8194580078125 422.5755615234375 113.874267578125 423.7139892578125 115.22418212890625 424.37017822265625 C 116.61312866210938 424.87152099609375 118.5513916015625 423.9410400390625 118.46109008789062 422.45977783203125 L 120.20597839355469 422.46160888671875" stroke-width="0.6000000238418579" fill="rgb(159, 159, 159)" opacity="1.0"/>
    <path d="M 475.7291259765625 444.0714111328125 C 477.1749267578125 440.95184326171875 477.5833740234375 437.26898193359375 476.3841552734375 434.0484619140625 C 475.18499755859375 430.82794189453125 472.24322509765625 428.19671630859375 468.81402587890625 427.80914306640625 C 466.38916015625 427.5382080078125 463.92095947265625 428.3831787109375 461.94189453125 429.81390380859375 C 459.9627685546875 431.24462890625 458.4332275390625 433.2213134765625 457.20953369140625 435.335205078125 C 456.6776123046875 436.25537109375 456.1861572265625 437.2591552734375 456.2293701171875 438.3184814453125 C 456.27838134765625 439.532958984375 457.0189208984375 440.59619140625 457.779052734375 441.54937744140625 C 459.92529296875 444.240234375 462.5655517578125 446.7047119140625 465.8480224609375 447.741943359375 C 469.13037109375 448.7791748046875 473.142578125 448.0589599609375 475.239013671875 445.33935546875 L 475.7291259765625 444.0714111328125" stroke-width="0.6000000238418579" fill="rgb(159, 159, 159)" opacity="1.0"/>
    <path d="M 452.50958251953125 296.3309631347656 C 452.19110107421875 292.06317138671875 451.6522216796875 287.3331604003906 448.44354248046875 284.5138854980469 C 445.32696533203125 281.7677307128906 440.7314453125 281.7344970703125 436.58013916015625 281.9268493652344 C 434.8939208984375 282.0074768066406 433.131103515625 282.1186828613281 431.684326171875 282.9868469238281 C 429.2364501953125 284.4537353515625 428.4149169921875 287.60064697265625 428.25732421875 290.44580078125 C 428.11004638671875 293.0865173339844 428.3427734375 295.7347106933594 428.9482421875 298.309326171875 C 429.92987060546875 302.4901123046875 432.3870849609375 306.8473205566406 436.55230712890625 307.8868103027344 C 438.8001708984375 308.4512939453125 441.22174072265625 307.9297790527344 443.301025390625 306.8981018066406 C 445.38037109375 305.8664245605469 447.17449951171875 304.34716796875 448.92431640625 302.8220520019531 C 450.67413330078125 301.2969665527344 452.36083984375 299.7608947753906 453.3072509765625 297.7021484375 L 452.50958251953125 296.3309631347656" stroke-width="0.6000000238418579" fill="rgb(218, 166, 20)" opacity="1.0"/>
    <path d="M 425.375244140625 371.0046691894531 C 423.1904296875 373.1860046386719 423.1876220703125 376.7254943847656 425.368896484375 378.9103088378906 C 425.5556640625 379.0973815917969 425.7554931640625 379.27099609375 425.9669189453125 379.4298095703125 C 426.7701416015625 380.0330810546875 427.785888671875 380.41998291015625 428.7786865234375 380.27020263671875 C 429.61773681640625 380.14373779296875 430.355712890625 379.65533447265625 431.008056640625 379.1136169433594 C 432.752197265625 377.66119384765625 434.07568359375 375.76824951171875 434.8409423828125 373.63140869140625 C 435.04229736328125 373.06622314453125 435.205078125 372.4678955078125 435.13507080078125 371.8707580566406 C 435.01806640625 370.8681945800781 434.2529296875 370.0400390625 433.37115478515625 369.54730224609375 C 432.0626220703125 368.8148498535156 430.4627685546875 368.68701171875 429.0067138671875 369.04742431640625 C 427.55072021484375 369.4078369140625 426.23333740234375 370.22637939453125 425.1480712890625 371.2615661621094 L 425.375244140625 371.0046691894531" stroke-width="0.6000000238418579" fill="rgb(143, 165, 67)" opacity="1.0"/>
    <path d="M 454.26739501953125 347.3407897949219 C 460.85791015625 344.02960205078125 460.70458984375 332.8659973144531 454.315185546875 329.2776794433594 C 447.9256591796875 325.68939208984375 438.6435546875 330.84808349609375 437.76898193359375 338.17388916015625 C 436.8944091796875 345.49969482421875 443.93658447265625 352.51861572265625 451.3123779296875 352.1562194824219 L 454.26739501953125 347.3407897949219" stroke-width="0.6000000238418579" fill="rgb(233, 92, 21)" opacity="1.0"/>
    <path d="M 450.951171875 67.48477172851562 C 454.6746826171875 67.27310180664062 459.1005859375 66.63404846191406 460.7003173828125 63.25099182128906 C 461.2845458984375 61.87989807128906 461.428955078125 60.361297607421875 461.113525390625 58.9046630859375 C 460.43017578125 55.27960205078125 458.0321044921875 52.210662841796875 454.6798095703125 50.671051025390625 C 451.832763671875 49.372314453125 448.615234375 49.35997009277344 445.5057373046875 49.420196533203125 C 443.759033203125 49.45686340332031 441.90447998046875 49.55143737792969 440.47686767578125 50.54180908203125 C 438.5848388671875 51.877471923828125 438.009521484375 54.41325378417969 437.8428955078125 56.7225341796875 C 437.59490966796875 60.10186767578125 437.8955078125 63.499053955078125 438.7330322265625 66.7823486328125 C 439.0245361328125 67.91621398925781 439.40576171875 69.08328247070312 440.22930908203125 69.914794921875 C 441.03466796875 70.64875793457031 442.0361328125 71.13255310058594 443.1116943359375 71.30715942382812 C 446.3536376953125 71.96376037597656 449.7203369140625 71.16514587402344 452.322021484375 69.1224365234375 L 450.951171875 67.48477172851562" stroke-width="0.6000000238418579" fill="rgb(70, 150, 179)" opacity="1.0"/>
    <path d="M 456.683349609375 402.3148498535156 C 456.53857421875 399.29541015625 456.25128173828125 395.9547119140625 454.0511474609375 393.8845520019531 C 451.686279296875 391.66217041015625 447.85150146484375 391.7785949707031 444.9229736328125 393.1766662597656 C 443.7935791015625 393.7152099609375 442.7076416015625 394.455810546875 442.07867431640625 395.5372619628906 C 441.561279296875 396.42608642578125 441.392578125 397.4703369140625 441.2896728515625 398.4933776855469 C 440.9610595703125 401.7191162109375 441.26910400390625 405.24298095703125 443.33966064453125 407.7373046875 C 445.42822265625 410.249755859375 449.20947265625 411.2010192871094 452.2337646484375 409.95733642578125 C 455.258056640625 408.71368408203125 457.30535888671875 405.401123046875 457.0384521484375 402.1398010253906 L 456.683349609375 402.3148498535156" stroke-width="0.6000000238418579" fill="rgb(140, 28, 33)" opacity="1.0"/>
    <path d="M 124.78335571289062 210.74053955078125 C 119.56045532226562 214.39117431640625 114.16595458984375 218.24746704101562 110.94696044921875 223.75225830078125 C 107.72802734375 229.2569580078125 107.32308959960938 236.972412109375 111.722900390625 241.586669921875 C 117.16673278808594 247.2703857421875 127.52505493164062 245.27545166015625 132.4576873779297 239.12454223632812 C 137.39031982421875 232.97360229492188 137.92120361328125 224.32275390625 136.5419921875 216.56982421875 C 136.35548400878906 214.1270751953125 135.26011657714844 211.84307861328125 133.4719696044922 210.16851806640625 C 131.5482177734375 208.71661376953125 128.07705688476562 209.23220825195312 127.50314331054688 211.5853271484375 L 124.78335571289062 210.74053955078125" stroke-width="0.6000000238418579" fill="rgb(159, 159, 159)" opacity="1.0"/>
    <path d="M 107.71737670898438 241.46636962890625 C 102.33843994140625 240.27178955078125 96.43304443359375 240.89410400390625 91.80226135253906 243.874755859375 C 87.17147827148438 246.85540771484375 84.06021118164062 252.36209106445312 84.6282958984375 257.86322021484375 C 85.03488159179688 261.7520751953125 87.20329284667969 265.3265075683594 90.12106323242188 267.93450927734375 C 93.038818359375 270.54254150390625 96.65737915039062 272.2598571777344 100.38577270507812 273.4512939453125 C 102.00860595703125 273.96881103515625 103.748291015625 274.39422607421875 105.39178466796875 273.9636535644531 C 107.27621459960938 273.4708557128906 108.68707275390625 271.94732666015625 109.91876220703125 270.43072509765625 C 113.39601135253906 266.1490478515625 116.34953308105469 261.17138671875 116.84873962402344 255.67755126953125 C 117.34793090820312 250.18365478515625 114.84585571289062 244.1495361328125 109.87020874023438 241.79922485351562 L 107.71737670898438 241.46636962890625" stroke-width="0.6000000238418579" fill="rgb(159, 159, 159)" opacity="1.0"/>
    <path d="M 292.0708312988281 93.80215454101562 C 289.6488037109375 98.702880859375 287.1689147949219 104.25518798828125 288.8665466308594 109.44024658203125 C 290.5104064941406 114.48504638671875 295.54315185546875 117.50680541992188 300.2337951660156 119.99186706542969 C 302.1407775878906 120.99859619140625 304.1518249511719 122.0213623046875 306.3069763183594 122.00634765625 C 309.9520568847656 121.98306274414062 312.8998107910156 119.05569458007812 314.92132568359375 116.02885437011719 C 316.7987060546875 113.22015380859375 318.2630310058594 110.15643310546875 319.26953125 106.93148803710938 C 320.90570068359375 101.69564819335938 321.03350830078125 95.3072509765625 317.12774658203125 91.45831298828125 C 315.0221862792969 89.3773193359375 312.0200500488281 88.37785339355469 309.06298828125 88.16183471679688 C 306.1059265136719 87.94580078125 303.1457824707031 88.4512939453125 300.2305603027344 88.99197387695312 C 297.31536865234375 89.53265380859375 294.46246337890625 90.12640380859375 292.0842590332031 91.77593994140625 L 292.0708312988281 93.80215454101562" stroke-width="0.6000000238418579" fill="rgb(218, 166, 20)" opacity="1.0"/>
    <path d="M 227.7989501953125 121.18212890625 C 221.1414794921875 114.43310546875 210.2733154296875 114.35887145996094 203.5242919921875 121.016357421875 C 202.94635009765625 121.58642578125 202.40960693359375 122.19679260253906 201.9180908203125 122.84283447265625 C 200.05075073242188 125.29800415039062 198.84396362304688 128.40977478027344 199.28543090820312 131.4611053466797 C 199.65826416015625 134.0397491455078 201.144287109375 136.3147430419922 202.79556274414062 138.32785034179688 C 207.2230224609375 143.71035766601562 213.01092529296875 147.8092041015625 219.55804443359375 150.19863891601562 C 221.2896728515625 150.8273162841797 223.12387084960938 151.33837890625 224.958740234375 151.13433837890625 C 228.03936767578125 150.79359436035156 230.596435546875 148.4595184326172 232.12576293945312 145.76116943359375 C 234.3990478515625 141.75669860839844 234.82122802734375 136.8466033935547 233.74154663085938 132.36917114257812 C 232.661865234375 127.8917236328125 230.17279052734375 123.83151245117188 227.01434326171875 120.4798583984375 L 227.7989501953125 121.18212890625" stroke-width="0.6000000238418579" fill="rgb(143, 165, 67)" opacity="1.0"/>
    <path d="M 212.64508056640625 90.75872802734375 C 213.33627319335938 101.68545532226562 228.67333984375 107.96598815917969 237.28900146484375 101.324951171875 C 245.90460205078125 94.68386840820312 244.25469970703125 79.00674438476562 234.75711059570312 73.55337524414062 C 225.259521484375 68.09999084472656 211.57867431640625 73.63818359375 207.7857666015625 83.92312622070312 L 212.64508056640625 90.75872802734375" stroke-width="0.6000000238418579" fill="rgb(233, 92, 21)" opacity="1.0"/>
    <path d="M 203.11685180664062 96.29704284667969 C 200.36087036132812 91.23251342773438 196.54351806640625 85.46865844726562 190.758056640625 85.46784973144531 C 188.45562744140625 85.55712890625 186.2376708984375 86.358642578125 184.41015625 87.76188659667969 C 179.794921875 91.1121826171875 177.08984375 96.49160766601562 177.1527099609375 102.19432067871094 C 177.21847534179688 107.03164672851562 179.3270263671875 111.53700256347656 181.46563720703125 115.8433837890625 C 182.6708984375 118.260498046875 184.0284423828125 120.79019165039062 186.35589599609375 122.1312255859375 C 189.47283935546875 123.89328002929688 193.397216796875 123.02203369140625 196.7349853515625 121.72914123535156 C 201.62216186523438 119.84310913085938 206.17184448242188 117.178466796875 210.20758056640625 113.83859252929688 C 211.5997314453125 112.68191528320312 212.9791259765625 111.37809753417969 213.59719848632812 109.67759704589844 C 214.09100341796875 108.06704711914062 214.10552978515625 106.34761047363281 213.63897705078125 104.72894287109375 C 212.41476440429688 99.76390075683594 209.07415771484375 95.58580017089844 204.5001220703125 93.29910278320312 L 203.11685180664062 96.29704284667969" stroke-width="0.6000000238418579" fill="rgb(70, 150, 179)" opacity="1.0"/>
    <path d="M 258.7419128417969 129.7988739013672 C 253.9189453125 131.86927795410156 248.66000366210938 134.36666870117188 246.6300048828125 139.20314025878906 C 244.45248413085938 144.39990234375 246.97216796875 150.56631469726562 251.02569580078125 154.47984313964844 C 252.58795166015625 155.98941040039062 254.452392578125 157.3056640625 256.59356689453125 157.67144775390625 C 258.3536071777344 157.97280883789062 260.1545715332031 157.61260986328125 261.88104248046875 157.15838623046875 C 267.32720947265625 155.7325439453125 272.8714599609375 153.09011840820312 275.67010498046875 148.2066650390625 C 278.4873352050781 143.28294372558594 277.7367248535156 136.55490112304688 273.8760986328125 132.3917236328125 C 270.0154724121094 128.22854614257812 263.3836364746094 126.9117431640625 258.2414245605469 129.32766723632812 L 258.7419128417969 129.7988739013672" stroke-width="0.6000000238418579" fill="rgb(140, 28, 33)" opacity="1.0"/>
    <path d="M 296.7272033691406 121.99687194824219 C 291.2349853515625 124.98199462890625 285.55291748046875 128.14874267578125 281.81048583984375 133.16136169433594 C 278.06817626953125 138.17393493652344 276.826171875 145.6505584716797 280.6084289550781 150.63172912597656 C 285.2909851074219 156.77001953125 295.607421875 155.96286010742188 301.09124755859375 150.50856018066406 C 306.5750732421875 145.05426025390625 308.0425720214844 136.6796112060547 307.5494689941406 128.97055053710938 C 307.63592529296875 126.56886291503906 306.8189697265625 124.22210693359375 305.2597351074219 122.39338684082031 C 303.54388427734375 120.76678466796875 300.10357666015625 120.88821411132812 299.2856750488281 123.11904907226562 L 296.7272033691406 121.99687194824219" stroke-width="0.6000000238418579" fill="rgb(159, 159, 159)" opacity="1.0"/>
    <path d="M 196.966796875 133.86366271972656 C 193.415771484375 129.06942749023438 188.144775390625 125.38742065429688 182.24249267578125 124.53854370117188 C 176.34024047851562 123.689697265625 169.88787841796875 125.98495483398438 166.44842529296875 130.8868408203125 C 164.02105712890625 134.35560607910156 163.25765991210938 138.81759643554688 163.79290771484375 143.0210723876953 C 164.328125 147.22457885742188 166.06857299804688 151.19696044921875 168.27203369140625 154.81729125976562 C 169.23187255859375 156.3922119140625 170.3526611328125 157.9747314453125 172.00225830078125 158.7889404296875 C 173.89303588867188 159.72332763671875 176.1280517578125 159.4786376953125 178.21160888671875 159.11248779296875 C 184.09384155273438 158.07876586914062 190.041748046875 156.10418701171875 194.348876953125 151.96566772460938 C 198.656005859375 147.8271484375 200.89215087890625 141.11685180664062 198.49111938476562 135.6636962890625 L 196.966796875 133.86366271972656" stroke-width="0.6000000238418579" fill="rgb(159, 159, 159)" opacity="1.0"/>
    <path d="M 276.05096435546875 98.1917724609375 C 270.59979248046875 98.58079528808594 264.5574035644531 99.24935913085938 260.9439697265625 103.33506774902344 C 257.4242858886719 107.30349731445312 257.3628234863281 113.17176818847656 257.59124755859375 118.47361755371094 C 257.6872253417969 120.62728881835938 257.82196044921875 122.87881469726562 258.9245910644531 124.72991943359375 C 260.7876281738281 127.86178588867188 264.802734375 128.92393493652344 268.4352722167969 129.13694763183594 C 271.80682373046875 129.33595275878906 275.1894836425781 129.0498046875 278.47967529296875 128.2872772216797 C 283.822509765625 127.05107116699219 289.3967590332031 123.9312744140625 290.7414245605469 118.61671447753906 C 291.4715576171875 115.74864196777344 290.81561279296875 112.65412902832031 289.5068054199219 109.99462890625 C 288.1979675292969 107.33514404296875 286.2653503417969 105.03776550292969 284.3250732421875 102.79696655273438 C 282.38482666015625 100.55615234375 280.4302978515625 98.39590454101562 277.80523681640625 97.17889404296875 L 276.05096435546875 98.1917724609375" stroke-width="0.6000000238418579" fill="rgb(218, 166, 20)" opacity="1.0"/>
    <path d="M 230.084716796875 115.78311157226562 C 229.5113525390625 124.32907104492188 235.97442626953125 131.72174072265625 244.5203857421875 132.29510498046875 C 245.252197265625 132.34420776367188 245.98651123046875 132.34132385253906 246.71792602539062 132.2864990234375 C 249.49700927734375 132.07765197753906 252.32415771484375 131.02870178222656 254.1226806640625 128.9015655517578 C 255.6427001953125 127.1041259765625 256.2903137207031 124.73597717285156 256.6618347167969 122.41305541992188 C 257.647705078125 116.19383239746094 256.9503479003906 109.82405090332031 254.6422119140625 103.96542358398438 C 254.02947998046875 102.4178466796875 253.27581787109375 100.87142944335938 252.0382080078125 99.75311279296875 C 249.96160888671875 97.87445068359375 246.85107421875 97.54435729980469 244.110107421875 98.12745666503906 C 240.04022216796875 98.99031066894531 236.46737670898438 101.6474609375 234.08712768554688 105.060791015625 C 231.7069091796875 108.47412109375 230.453369140625 112.59030151367188 230.080078125 116.73446655273438 L 230.084716796875 115.78311157226562" stroke-width="0.6000000238418579" fill="rgb(143, 165, 67)" opacity="1.0"/>
    <path d="M 252.31451416015625 85.30647277832031 C 252.65145874023438 95.88331604003906 267.27789306640625 102.41506958007812 275.80224609375 96.26025390625 C 284.3265380859375 90.10539245605469 283.207275390625 74.91030883789062 274.1971130371094 69.35444641113281 C 265.1869201660156 63.798583984375 251.80267333984375 68.73463439941406 247.82708740234375 78.55570983886719 L 252.31451416015625 85.30647277832031" stroke-width="0.6000000238418579" fill="rgb(233, 92, 21)" opacity="1.0"/>
    <path d="M 337.55517578125 70.90168762207031 C 335.0900573730469 65.98117065429688 331.63507080078125 60.35919189453125 326.1160583496094 60.171112060546875 C 323.91680908203125 60.1817626953125 321.7750244140625 60.87455749511719 319.9862060546875 62.154022216796875 C 315.4750671386719 65.20062255859375 312.7204284667969 70.24476623535156 312.5958251953125 75.6868896484375 C 312.501953125 80.3035888671875 314.3675537109375 84.66973876953125 316.2682800292969 88.84703063964844 C 317.3398132324219 91.19184875488281 318.55291748046875 93.64900207519531 320.72979736328125 95.00361633300781 C 323.6461486816406 96.78541564941406 327.41802978515625 96.08132934570312 330.6439208984375 94.95602416992188 C 335.3670959472656 93.31504821777344 339.79351806640625 90.92039489746094 343.75152587890625 87.86495971679688 C 345.1170349121094 86.80662536621094 346.47509765625 85.60751342773438 347.1197509765625 84.00531005859375 C 347.6429443359375 82.48492431640625 347.7124328613281 80.84513854980469 347.3197937011719 79.28591918945312 C 346.31268310546875 74.5098876953125 343.2611389160156 70.41604614257812 338.9718017578125 68.08659362792969 L 337.55517578125 70.90168762207031" stroke-width="0.6000000238418579" fill="rgb(70, 150, 179)" opacity="1.0"/>
    <path d="M 335.9938049316406 137.64768981933594 C 336.3670654296875 132.2666473388672 336.55487060546875 126.28652954101562 333.0877685546875 122.15896606445312 C 329.3606262207031 117.72727966308594 322.54058837890625 117.13357543945312 317.0591735839844 119.00018310546875 C 314.9454650878906 119.71897888183594 312.866455078125 120.80484008789062 311.5262451171875 122.59011840820312 C 310.4239807128906 124.05729675292969 309.9071350097656 125.87266540527344 309.5112609863281 127.66412353515625 C 308.2560729980469 133.31201171875 308.06683349609375 139.62106323242188 311.21575927734375 144.47328186035156 C 314.392822265625 149.36138916015625 320.8951721191406 151.8359832763672 326.5141296386719 150.26295471191406 C 332.1330871582031 148.68994140625 336.4521789550781 143.24673461914062 336.6596374511719 137.4115753173828 L 335.9938049316406 137.64768981933594" stroke-width="0.6000000238418579" fill="rgb(140, 28, 33)" opacity="1.0"/>
    <path d="M 347.5971374511719 98.95899963378906 C 342.05615234375 97.45347595214844 336.2738342285156 95.94796752929688 330.60711669921875 96.89926147460938 C 324.9404602050781 97.85055541992188 319.36907958984375 102.02493286132812 318.7171630859375 107.73280334472656 C 317.9281921386719 114.78036499023438 325.2886657714844 120.79452514648438 332.39178466796875 120.65568542480469 C 339.494873046875 120.516845703125 345.78607177734375 115.88951110839844 350.3533020019531 110.45919799804688 C 351.9355163574219 108.91986083984375 352.8831787109375 106.84341430664062 353.0092468261719 104.63955688476562 C 352.90301513671875 102.47042846679688 350.542236328125 100.36674499511719 348.5829772949219 101.32827758789062 L 347.5971374511719 98.95899963378906" stroke-width="0.6000000238418579" fill="rgb(159, 159, 159)" opacity="1.0"/>
    <path d="M 346.2567443847656 117.94223022460938 C 341.68658447265625 120.6470947265625 337.943603515625 124.9766845703125 336.6512451171875 130.1248016357422 C 335.3589172363281 135.27291870117188 336.79998779296875 141.1961212158203 340.82501220703125 144.69053649902344 C 343.67388916015625 147.15753173828125 347.5545959472656 148.24224853515625 351.3254089355469 148.15347290039062 C 355.0962219238281 148.064697265625 358.7728576660156 146.88763427734375 362.18017578125 145.26837158203125 C 363.66253662109375 144.5628204345703 365.1663818359375 143.7154541015625 366.0384216308594 142.32949829101562 C 367.0389404296875 140.7410125732422 367.0270690917969 138.73971557617188 366.893798828125 136.86138916015625 C 366.5174560546875 131.5585174560547 365.3140869140625 126.111328125 362.0444641113281 121.91862487792969 C 358.7748107910156 117.72592163085938 353.0383605957031 115.1312255859375 347.9901428222656 116.75750732421875 L 346.2567443847656 117.94223022460938" stroke-width="0.6000000238418579" fill="rgb(159, 159, 159)" opacity="1.0"/>
    <path d="M 366.1186218261719 91.58798217773438 C 361.3875732421875 92.55474853515625 356.170654296875 93.83428955078125 353.4740905761719 97.82868957519531 C 350.8462219238281 101.70956420898438 351.4662170410156 106.85777282714844 352.275146484375 111.47645568847656 C 352.60650634765625 113.35224914550781 352.98309326171875 115.309326171875 354.1616516113281 116.804443359375 C 356.15350341796875 119.33432006835938 359.7930603027344 119.80380249023438 362.9999694824219 119.57330322265625 C 365.97662353515625 119.36050415039062 368.9072570800781 118.72138977050781 371.7022399902344 117.675537109375 C 376.2411193847656 115.97898864746094 380.7663879394531 112.60566711425781 381.3341979980469 107.79522705078125 C 381.64453125 105.19868469238281 380.7145080566406 102.56292724609375 379.2624816894531 100.38325500488281 C 377.8104553222656 98.20358276367188 375.8534851074219 96.41278076171875 373.8963317871094 94.67242431640625 C 371.93914794921875 92.93208312988281 369.978759765625 91.26393127441406 367.5392150878906 90.4991455078125 L 366.1186218261719 91.58798217773438" stroke-width="0.6000000238418579" fill="rgb(218, 166, 20)" opacity="1.0"/>
    <path d="M 428.9964599609375 138.06275939941406 C 420.73675537109375 138.72731018066406 414.57965087890625 145.96185302734375 415.24420166015625 154.22157287597656 C 415.3011474609375 154.92884826660156 415.4080810546875 155.63119506835938 415.564453125 156.3233642578125 C 416.1588134765625 158.95321655273438 417.56396484375 161.50982666015625 419.85498046875 162.92901611328125 C 421.7908935546875 164.12847900390625 424.1490478515625 164.4119873046875 426.4248046875 164.437744140625 C 432.5164794921875 164.498291015625 438.51318359375 162.9266357421875 443.7921142578125 159.88604736328125 C 445.1861572265625 159.08001708984375 446.55902099609375 158.13919067382812 447.4534912109375 156.79608154296875 C 448.95654296875 154.5421142578125 448.830810546875 151.5185089111328 447.8836669921875 148.978271484375 C 446.480224609375 145.20594787597656 443.43011474609375 142.16403198242188 439.82568359375 140.3707733154297 C 436.2213134765625 138.5775146484375 432.104248046875 137.9622802734375 428.08538818359375 138.19338989257812 L 428.9964599609375 138.06275939941406" stroke-width="0.6000000238418579" fill="rgb(143, 165, 67)" opacity="1.0"/>
    <path d="M 151.71017456054688 403.5853271484375 C 157.844970703125 411.6890563964844 172.93548583984375 408.69061279296875 176.20111083984375 399.1346740722656 C 179.46670532226562 389.5787048339844 170.15533447265625 378.2891540527344 160.00885009765625 378.9352722167969 C 149.86233520507812 379.58135986328125 142.11074829101562 390.87945556640625 144.44564819335938 400.784423828125 L 151.71017456054688 403.5853271484375" stroke-width="0.6000000238418579" fill="rgb(233, 92, 21)" opacity="1.0"/>
    <path d="M 429.38409423828125 197.07763671875 C 425.0577392578125 194.91336059570312 419.665283203125 192.77676391601562 415.682373046875 195.55126953125 C 414.140380859375 196.71710205078125 412.998046875 198.33270263671875 412.4130859375 200.17523193359375 C 410.8431701660156 204.6951904296875 411.5614013671875 209.69570922851562 414.340087890625 213.591064453125 C 416.70556640625 216.88937377929688 420.31805419921875 218.97930908203125 423.8558349609375 220.9178466796875 C 425.8448486328125 222.00357055664062 427.99273681640625 223.09378051757812 430.23809814453125 222.9005126953125 C 433.2288818359375 222.61837768554688 435.5123291015625 220.13626098632812 437.1898193359375 217.64529418945312 C 439.6492919921875 214.00283813476562 441.5030517578125 209.98629760742188 442.6790771484375 205.75146484375 C 443.08258056640625 204.2874755859375 443.40673828125 202.72833251953125 443.0164794921875 201.26132202148438 C 442.5838623046875 199.91583251953125 441.7691650390625 198.72528076171875 440.67156982421875 197.8348388671875 C 437.4473876953125 195.0042724609375 433.1436767578125 193.7305908203125 428.8983154296875 194.3504638671875 L 429.38409423828125 197.07763671875" stroke-width="0.6000000238418579" fill="rgb(70, 150, 179)" opacity="1.0"/>
    <path d="M 415.6875 160.5894775390625 C 415.1016845703125 154.87380981445312 414.21246337890625 148.56304931640625 409.8236083984375 144.86068725585938 C 405.1065979003906 140.8863525390625 397.84051513671875 141.50216674804688 392.42645263671875 144.45712280273438 C 390.3385009765625 145.59555053710938 388.3536682128906 147.11293029785156 387.2713623046875 149.23019409179688 C 386.3809509277344 150.97036743164062 386.16827392578125 152.96963500976562 386.0782165527344 154.92184448242188 C 385.78680419921875 161.07778930664062 386.73431396484375 167.7340087890625 390.9208679199219 172.25479125976562 C 395.1434631347656 176.80810546875 402.4177551269531 178.22412109375 408.029541015625 175.5523681640625 C 413.641357421875 172.88055419921875 417.185791015625 166.38284301757812 416.34344482421875 160.22067260742188 L 415.6875 160.5894775390625" stroke-width="0.6000000238418579" fill="rgb(140, 28, 33)" opacity="1.0"/>
    <path d="M 143.85008239746094 132.3393096923828 C 137.5974884033203 133.34909057617188 131.10243225097656 134.46875 125.84190368652344 138.0042266845703 C 120.58148193359375 141.5396728515625 116.884033203125 148.27012634277344 118.82745361328125 154.30178833007812 C 121.24299621582031 161.74191284179688 131.37620544433594 164.433837890625 138.4497528076172 161.06076049804688 C 145.52330017089844 157.68768310546875 149.73777770996094 150.17446899414062 151.8545684814453 142.63929748535156 C 152.7435302734375 140.37237548828125 152.7504119873047 137.8546905517578 151.87380981445312 135.58299255371094 C 150.77960205078125 133.4519500732422 147.44998168945312 132.4130096435547 145.91917419433594 134.2710418701172 L 143.85008239746094 132.3393096923828" stroke-width="0.6000000238418579" fill="rgb(159, 159, 159)" opacity="1.0"/>
    <path d="M 435.4888916015625 166.85845947265625 C 431.103515625 164.2696533203125 425.735595703125 163.12701416015625 420.8131103515625 164.421630859375 C 415.89068603515625 165.7161865234375 411.5809326171875 169.66552734375 410.50628662109375 174.66259765625 C 409.7509765625 178.19656372070312 410.63397216796875 181.95828247070312 412.4520263671875 185.0850830078125 C 414.27008056640625 188.2119140625 416.9588623046875 190.75640869140625 419.8946533203125 192.87017822265625 C 421.1727294921875 193.789306640625 422.5799560546875 194.660888671875 424.1474609375 194.752685546875 C 425.944580078125 194.8587646484375 427.620361328125 193.92349243164062 429.13671875 192.94305419921875 C 433.4176025390625 190.175048828125 437.4373779296875 186.64553833007812 439.44793701171875 181.960205078125 C 441.45849609375 177.27484130859375 440.9859619140625 171.2559814453125 437.28564453125 167.76690673828125 L 435.4888916015625 166.85845947265625" stroke-width="0.6000000238418579" fill="rgb(159, 159, 159)" opacity="1.0"/>
    <path d="M 415.09112548828125 194.35989379882812 C 413.77215576171875 188.82806396484375 412.06640625 182.73635864257812 407.2615051269531 179.71517944335938 C 402.5928955078125 176.77047729492188 396.55682373046875 177.697265625 391.1512451171875 178.82614135742188 C 388.9559631347656 179.2879638671875 386.666748046875 179.80612182617188 384.9519958496094 181.2506103515625 C 382.05035400390625 183.69192504882812 381.63702392578125 187.99392700195312 382.0310363769531 191.7598876953125 C 382.3954162597656 195.25543212890625 383.2598571777344 198.68057250976562 384.59783935546875 201.930419921875 C 386.76849365234375 207.20809936523438 390.9122619628906 212.40560913085938 396.59625244140625 212.889892578125 C 399.6644287109375 213.15579223632812 402.7313232421875 211.96026611328125 405.24139404296875 210.167724609375 C 407.75146484375 208.37518310546875 409.78448486328125 206.003173828125 411.75811767578125 203.6328125 C 413.73175048828125 201.26251220703125 415.6202392578125 198.89117431640625 416.4271240234375 195.9903564453125 L 415.09112548828125 194.35989379882812" stroke-width="0.6000000238418579" fill="rgb(218, 166, 20)" opacity="1.0"/>
    <path d="M 438.55780029296875 188.26687622070312 C 438.9862060546875 196.82806396484375 446.2738037109375 203.42098999023438 454.83502197265625 202.9925537109375 C 455.568115234375 202.95587158203125 456.29766845703125 202.86721801757812 457.01824951171875 202.727294921875 C 459.756103515625 202.195068359375 462.443603515625 200.82220458984375 463.9827880859375 198.497802734375 C 465.2835693359375 196.53369140625 465.650634765625 194.10421752929688 465.74853515625 191.751953125 C 466.001953125 185.4552001953125 464.564697265625 179.2054443359375 461.58612060546875 173.65191650390625 C 460.79632568359375 172.185302734375 459.8665771484375 170.73626708984375 458.50579833984375 169.76931762695312 C 456.2222900390625 168.14459228515625 453.092041015625 168.17990112304688 450.435791015625 169.07965087890625 C 446.4913330078125 170.4127197265625 443.25048828125 173.47119140625 441.283447265625 177.14190673828125 C 439.3162841796875 180.8126220703125 438.55126953125 185.05035400390625 438.664306640625 189.2130126953125 L 438.55780029296875 188.26687622070312" stroke-width="0.6000000238418579" fill="rgb(143, 165, 67)" opacity="1.0"/>
    <path d="M 144.4383087158203 96.55398559570312 C 133.3465576171875 104.69656372070312 137.10435485839844 125.1832275390625 149.97438049316406 129.7942657470703 C 162.84442138671875 134.40524291992188 178.31192016601562 122.02629089355469 177.63970947265625 108.27886962890625 C 176.96749877929688 94.53146362304688 161.8287353515625 83.81338500976562 148.37454223632812 86.77641296386719 L 144.4383087158203 96.55398559570312" stroke-width="0.6000000238418579" fill="rgb(233, 92, 21)" opacity="1.0"/>
    <path d="M 450.41357421875 147.14463806152344 C 446.4771728515625 151.6328125 442.240478515625 157.40231323242188 444.307373046875 163.02462768554688 C 445.21697998046875 165.23004150390625 446.78857421875 167.09890747070312 448.8052978515625 168.373291015625 C 453.71044921875 171.66073608398438 459.9046630859375 172.36679077148438 465.423828125 170.26751708984375 C 470.1009521484375 168.47479248046875 473.72540283203125 164.81558227539062 477.145751953125 161.19830322265625 C 479.0638427734375 159.1632080078125 481.036865234375 156.93991088867188 481.50823974609375 154.19894409179688 C 482.10650634765625 150.5403289794922 479.8572998046875 147.03819274902344 477.40802001953125 144.25682067871094 C 473.82861328125 140.18177795410156 469.6131591796875 136.7129669189453 464.92529296875 133.9849395751953 C 463.3037109375 133.04547119140625 461.5438232421875 132.17103576660156 459.67041015625 132.17819213867188 C 457.92889404296875 132.27395629882812 456.25286865234375 132.87437438964844 454.8466796875 133.90625 C 450.45941162109375 136.870361328125 447.59326171875 141.60984802246094 447.0059814453125 146.87188720703125 L 450.41357421875 147.14463806152344" stroke-width="0.6000000238418579" fill="rgb(70, 150, 179)" opacity="1.0"/>
    <path d="M 381.50701904296875 81.0565185546875 C 382.2074890136719 74.51510620117188 382.709228515625 67.23506164550781 378.67181396484375 62.046173095703125 C 374.3313903808594 56.47474670410156 366.046142578125 55.43994140625 359.28021240234375 57.46488952636719 C 356.67120361328125 58.2445068359375 354.0877685546875 59.473114013671875 352.37286376953125 61.587860107421875 C 350.9624328613281 63.325775146484375 350.24969482421875 65.5147705078125 349.6854553222656 67.68016052246094 C 347.8979187011719 74.50657653808594 347.37939453125 82.18743896484375 350.9959716796875 88.24502563476562 C 354.6451416015625 94.34765625 362.45733642578125 97.66038513183594 369.3775329589844 95.99954223632812 C 376.2977294921875 94.33871459960938 381.81024169921875 87.90158081054688 382.3293151855469 80.79911804199219 L 381.50701904296875 81.0565185546875" stroke-width="0.6000000238418579" fill="rgb(140, 28, 33)" opacity="1.0"/>
    <path d="M 132.813720703125 410.2281188964844 C 128.86627197265625 416.383544921875 124.82659912109375 422.83209228515625 123.81552124023438 430.07958984375 C 122.80451965332031 437.3270263671875 125.74526977539062 445.6910400390625 132.4297637939453 448.66534423828125 C 140.68927001953125 452.318359375 150.8093719482422 445.676513671875 153.35655212402344 436.99481201171875 C 155.90374755859375 428.3131103515625 152.68800354003906 418.9014892578125 147.83766174316406 411.2770690917969 C 146.57266235351562 408.7664794921875 144.41258239746094 406.82135009765625 141.78359985351562 405.8255615234375 C 139.1079864501953 405.1252746582031 135.6498565673828 407.188720703125 136.0688018798828 409.9364318847656 L 132.813720703125 410.2281188964844" stroke-width="0.6000000238418579" fill="rgb(159, 159, 159)" opacity="1.0"/>
    <path d="M 419.8436279296875 219.82427978515625 C 414.8134765625 215.3123779296875 408.1278381347656 212.42559814453125 401.385986328125 212.82586669921875 C 394.6441345214844 213.22616577148438 388.0069274902344 217.24008178710938 385.30535888671875 223.46102905273438 C 383.40087890625 227.86175537109375 383.5684509277344 232.986083984375 385.1181640625 237.5283203125 C 386.6678771972656 242.070556640625 389.5022888183594 246.08233642578125 392.7703552246094 249.59817504882812 C 394.1934509277344 251.12734985351562 395.796875 252.62835693359375 397.81231689453125 253.15667724609375 C 400.1226806640625 253.763427734375 402.546875 252.98373413085938 404.775390625 252.10369873046875 C 411.0669250488281 249.619140625 417.2174072265625 246.07574462890625 421.05523681640625 240.5045166015625 C 424.89306640625 234.9332275390625 425.848388671875 226.97940063476562 421.94427490234375 221.474853515625 L 419.8436279296875 219.82427978515625" stroke-width="0.6000000238418579" fill="rgb(159, 159, 159)" opacity="1.0"/>
    <path d="M 385.461181640625 111.9766845703125 C 379.4855651855469 112.94642639160156 372.8854064941406 114.283203125 369.3039245605469 119.14921569824219 C 365.8142395019531 123.87652587890625 366.32830810546875 130.3569793701172 367.1060791015625 136.18377685546875 C 367.4255065917969 138.55035400390625 367.79742431640625 141.02108764648438 369.1974792480469 142.95401000976562 C 371.5635070800781 146.224609375 376.0986328125 146.99832153320312 380.12750244140625 146.8731231689453 C 383.8669738769531 146.75836181640625 387.57061767578125 146.10723876953125 391.12506103515625 144.939697265625 C 396.8971252441406 143.04600524902344 402.7377014160156 139.05123901367188 403.6942443847656 133.054443359375 C 404.21539306640625 129.8177490234375 403.1848449707031 126.46867370605469 401.4771423339844 123.66427612304688 C 399.7694396972656 120.85989379882812 397.4093933105469 118.51687622070312 395.0465087890625 116.23703002929688 C 392.68365478515625 113.95719909667969 390.3130798339844 111.76763916015625 387.2961730957031 110.68524169921875 L 385.461181640625 111.9766845703125" stroke-width="0.6000000238418579" fill="rgb(218, 166, 20)" opacity="1.0"/>
    <path d="M 403.9405822753906 83.1053466796875 C 396.11199951171875 77.31074523925781 385.0682373046875 78.95960998535156 379.2736511230469 86.78817749023438 C 378.7774658203125 87.45854187011719 378.3294677734375 88.16326904296875 377.9329833984375 88.89703369140625 C 376.4270324707031 91.68545532226562 375.6957092285156 95.03561401367188 376.6279296875 98.06291198730469 C 377.41546630859375 100.62127685546875 379.2848205566406 102.69480895996094 381.2803649902344 104.47630310058594 C 386.6285095214844 109.237548828125 393.1539306640625 112.47996520996094 400.1788330078125 113.86672973632812 C 402.0363464355469 114.23016357421875 403.9792785644531 114.45794677734375 405.8094482421875 113.959716796875 C 408.8824157714844 113.12510681152344 411.1077575683594 110.35015869140625 412.2320556640625 107.36851501464844 C 413.904296875 102.94302368164062 413.55389404296875 97.89190673828125 411.7475891113281 93.51824951171875 C 409.9412841796875 89.14460754394531 406.77056884765625 85.41806030273438 403.03277587890625 82.51693725585938 L 403.9405822753906 83.1053466796875" stroke-width="0.6000000238418579" fill="rgb(143, 165, 67)" opacity="1.0"/>
    <path d="M 121.3873291015625 427.000244140625 C 114.73081970214844 417.09222412109375 96.83840942382812 419.608642578125 92.37660217285156 430.596923828125 C 87.91484069824219 441.585205078125 98.08499145507812 455.43896484375 110.02468872070312 455.353271484375 C 121.96441650390625 455.267578125 131.80142211914062 442.53369140625 129.71963500976562 430.765380859375 L 121.3873291015625 427.000244140625" stroke-width="0.6000000238418579" fill="rgb(233, 92, 21)" opacity="1.0"/>
    <path d="M 448.570068359375 210.8515625 C 442.27117919921875 212.39923095703125 434.907470703125 214.9012451171875 433.2496337890625 221.1949462890625 C 432.68731689453125 223.72525024414062 432.92401123046875 226.36767578125 433.92718505859375 228.75775146484375 C 436.25006103515625 234.73809814453125 441.3275146484375 239.22158813476562 447.5494384765625 240.78643798828125 C 452.8306884765625 242.100341796875 458.33587646484375 241.09686279296875 463.6331787109375 240.003662109375 C 466.60791015625 239.38473510742188 469.748779296875 238.63241577148438 471.874267578125 236.48452758789062 C 474.683837890625 233.59832763671875 474.8599853515625 229.07952880859375 474.409423828125 225.078125 C 473.75732421875 219.2213134765625 472.16156005859375 213.50860595703125 469.68402099609375 208.16168212890625 C 468.824462890625 206.31585693359375 467.8011474609375 204.44183349609375 466.128173828125 203.28240966796875 C 464.51751708984375 202.283935546875 462.651123046875 201.77569580078125 460.756591796875 201.81967163085938 C 455.004638671875 201.72943115234375 449.5025634765625 204.16702270507812 445.70489501953125 208.48809814453125 L 448.570068359375 210.8515625" stroke-width="0.6000000238418579" fill="rgb(70, 150, 179)" opacity="1.0"/>
    <path d="M 429.064208984375 133.46206665039062 C 430.8726806640625 127.58335876464844 432.63037109375 120.9913330078125 429.84954833984375 115.50971984863281 C 426.8587646484375 109.62301635742188 419.439208984375 107.19700622558594 412.8687744140625 107.849853515625 C 410.33538818359375 108.10047912597656 407.7454528808594 108.76773071289062 405.79473876953125 110.40301513671875 C 404.1906433105469 111.7467041015625 403.1464538574219 113.62870788574219 402.2427978515625 115.5155029296875 C 399.3858642578125 121.46206665039062 397.5413513183594 128.41896057128906 399.7811584472656 134.6228790283203 C 402.0428771972656 140.8739013671875 408.6224365234375 145.30625915527344 415.26953125 145.01507568359375 C 421.9166259765625 144.723876953125 428.122802734375 139.79830932617188 429.86474609375 133.37234497070312 L 429.064208984375 133.46206665039062" stroke-width="0.6000000238418579" fill="rgb(140, 28, 33)" opacity="1.0"/>
    <path d="M 390.4945373535156 57.66358947753906 C 391.312255859375 64.62442016601562 392.2398681640625 71.8585205078125 395.89727783203125 77.84320068359375 C 399.55462646484375 83.8277587890625 406.81890869140625 88.23695373535156 413.580078125 86.37651062011719 C 421.9208984375 84.06135559082031 425.3809814453125 72.98712158203125 421.98974609375 65.00581359863281 C 418.5985107421875 57.024505615234375 410.4934997558594 52.00630187988281 402.2640686035156 49.30616760253906 C 399.8003234863281 48.215087890625 397.0172119140625 48.08723449707031 394.4638671875 48.94786071777344 C 392.05560302734375 50.05577087402344 390.7479553222656 53.687225341796875 392.72900390625 55.4683837890625 L 390.4945373535156 57.66358947753906" stroke-width="0.6000000238418579" fill="rgb(159, 159, 159)" opacity="1.0"/>
    <path d="M 434.171142578125 241.44232177734375 C 428.05157470703125 244.68603515625 422.9100341796875 250.0970458984375 420.91094970703125 256.724609375 C 418.911865234375 263.3521728515625 420.42626953125 271.156982421875 425.455810546875 275.9560241699219 C 429.0159912109375 279.344482421875 434.005126953125 280.9954528808594 438.9229736328125 281.1108703613281 C 443.8409423828125 281.2262878417969 448.70281982421875 279.91815185546875 453.240966796875 278.0174560546875 C 455.21533203125 277.1891174316406 457.2264404296875 276.1773681640625 458.44744873046875 274.4252624511719 C 459.84820556640625 272.4171447753906 459.95538330078125 269.8092041015625 459.8968505859375 267.3540344238281 C 459.7315673828125 260.422607421875 458.4976806640625 253.25250244140625 454.4949951171875 247.59005737304688 C 450.492431640625 241.9276123046875 443.17822265625 238.19580078125 436.501953125 240.005126953125 L 434.171142578125 241.44232177734375" stroke-width="0.6000000238418579" fill="rgb(159, 159, 159)" opacity="1.0"/>
    <path d="M 417.5751953125 263.4741516113281 C 413.3531494140625 258.2734375 408.4349365234375 252.67547607421875 401.7922668457031 251.91845703125 C 395.33331298828125 251.17315673828125 389.3971252441406 255.23593139648438 384.23345947265625 259.1917419433594 C 382.1381530761719 260.80181884765625 379.9718322753906 262.51959228515625 378.887939453125 264.92791748046875 C 377.05230712890625 269.00006103515625 378.8077087402344 273.77862548828125 381.14691162109375 277.576171875 C 383.3167724609375 281.101806640625 385.9815979003906 284.297607421875 389.05987548828125 287.06573486328125 C 394.0565185546875 291.5622253417969 401.1072998046875 294.9671936035156 407.38934326171875 292.5821838378906 C 410.7826843261719 291.299560546875 413.42919921875 288.46588134765625 415.1800537109375 285.2823486328125 C 416.9307861328125 282.0987854003906 417.8795166015625 278.5433044433594 418.76605224609375 275.0198974609375 C 419.652587890625 271.4964904785156 420.4482421875 268.0154113769531 419.8253173828125 264.5238952636719 L 417.5751953125 263.4741516113281" stroke-width="0.6000000238418579" fill="rgb(218, 166, 20)" opacity="1.0"/>
    <path d="M 413.9998779296875 85.83255004882812 C 410.6394348144531 95.36654663085938 415.6441650390625 105.81953430175781 425.1781005859375 109.17994689941406 C 425.9945068359375 109.46771240234375 426.830322265625 109.69717407226562 427.67919921875 109.86665344238281 C 430.90484619140625 110.51002502441406 434.451416015625 110.21354675292969 437.1702880859375 108.36526489257812 C 439.4681396484375 106.80355834960938 440.95489501953125 104.31651306152344 442.113525390625 101.79338073730469 C 445.2054443359375 95.03533935546875 446.43145751953125 87.57264709472656 445.66424560546875 80.1805419921875 C 445.4581298828125 78.22695922851562 445.0914306640625 76.22998046875 444.03887939453125 74.56634521484375 C 442.2734375 71.77239990234375 438.84173583984375 70.4112548828125 435.54083251953125 70.2054443359375 C 430.640380859375 69.896484375 425.736328125 71.78495788574219 421.948486328125 74.91110229492188 C 418.16058349609375 78.03724670410156 415.430908203125 82.31956481933594 413.69305419921875 86.91264343261719 L 413.9998779296875 85.83255004882812" stroke-width="0.6000000238418579" fill="rgb(143, 165, 67)" opacity="1.0"/>
    <path d="M 428.6656494140625 122.68292236328125 C 426.3433837890625 134.2395477294922 440.5465087890625 145.04022216796875 451.35546875 140.53121948242188 C 462.1644287109375 136.02215576171875 464.811767578125 119.25808715820312 456.45172119140625 110.94294738769531 C 448.09161376953125 102.6278076171875 432.32159423828125 104.58006286621094 425.5142822265625 114.22116088867188 L 428.6656494140625 122.68292236328125" stroke-width="0.6000000238418579" fill="rgb(233, 92, 21)" opacity="1.0"/>
    <path d="M 448.53070068359375 93.4097900390625 C 447.985595703125 99.4114990234375 447.9569091796875 106.63723754882812 452.984619140625 109.99688720703125 C 455.0374755859375 111.25604248046875 457.43048095703125 111.84715270996094 459.83349609375 111.68861389160156 C 465.789794921875 111.45637512207031 471.2640380859375 108.3515625 474.520263671875 103.3587646484375 C 477.2716064453125 99.11642456054688 478.0548095703125 93.97657775878906 478.6962890625 88.99220275878906 C 479.0521240234375 86.19171142578125 479.3409423828125 83.2049560546875 478.09674072265625 80.68817138671875 C 476.41082763671875 77.34712219238281 472.4942626953125 75.82589721679688 468.8427734375 75.01171875 C 463.500244140625 73.8134765625 457.9990234375 73.48785400390625 452.55242919921875 74.04750061035156 C 450.6708984375 74.24449157714844 448.715087890625 74.57679748535156 447.190673828125 75.69589233398438 C 445.826416015625 76.80892944335938 444.8155517578125 78.29489135742188 444.28125 79.97256469726562 C 442.46258544921875 84.99848937988281 442.940185546875 90.56924438476562 445.587890625 95.21221923828125 L 448.53070068359375 93.4097900390625" stroke-width="0.6000000238418579" fill="rgb(70, 150, 179)" opacity="1.0"/>
    <path d="M 311.3075256347656 365.6138000488281 C 306.23663330078125 362.6336975097656 300.49078369140625 359.54339599609375 294.77655029296875 360.921142578125 C 288.6390380859375 362.4048767089844 284.7442626953125 368.7732238769531 283.90167236328125 375.03094482421875 C 283.5757751464844 377.4435119628906 283.62506103515625 380.0006408691406 284.7161560058594 382.1766357421875 C 285.6124267578125 383.96575927734375 287.1331481933594 385.3526916503906 288.6893310546875 386.6099548339844 C 293.5920104980469 390.5805969238281 299.6581726074219 393.83221435546875 305.9250793457031 393.1172790527344 C 312.2406921386719 392.392333984375 317.81695556640625 387.2484130859375 319.0129699707031 380.9991455078125 C 320.208984375 374.7499084472656 316.9955139160156 367.88812255859375 311.4007263183594 364.84912109375 L 311.3075256347656 365.6138000488281" stroke-width="0.6000000238418579" fill="rgb(140, 28, 33)" opacity="1.0"/>
    <path d="M 299.3997802734375 392.5256042480469 C 292.4521179199219 389.5740661621094 285.1901550292969 386.5794372558594 277.6394958496094 386.8052978515625 C 270.08892822265625 387.0311584472656 262.086181640625 391.47198486328125 260.21661376953125 398.78961181640625 C 257.9289855957031 407.82757568359375 266.4403381347656 416.9766845703125 275.716552734375 418.0657958984375 C 284.9927673339844 419.1549072265625 294.0140075683594 414.2528076171875 300.93341064453125 407.9967346191406 C 303.2693786621094 406.27471923828125 304.8749084472656 403.73968505859375 305.4331359863281 400.8918151855469 C 305.6825866699219 398.04766845703125 302.9839172363281 394.8856506347656 300.2601623535156 395.7877197265625 L 299.3997802734375 392.5256042480469" stroke-width="0.6000000238418579" fill="rgb(159, 159, 159)" opacity="1.0"/>
    <path d="M 322.8802795410156 415.54052734375 C 317.2768859863281 419.0977783203125 312.77020263671875 424.65234375 311.3567810058594 431.13372802734375 C 309.9433288574219 437.6151123046875 311.9747009277344 444.9580078125 317.1390686035156 449.16607666015625 C 320.79412841796875 452.1365966796875 325.6841735839844 453.34014892578125 330.39111328125 453.08203125 C 335.0981140136719 452.823974609375 339.6449279785156 451.2100830078125 343.8381042480469 449.05438232421875 C 345.6623229980469 448.1151123046875 347.5078125 446.9979248046875 348.5430603027344 445.23260498046875 C 349.73089599609375 443.209228515625 349.6379699707031 440.709716796875 349.3981628417969 438.3685302734375 C 348.7210388183594 431.75897216796875 347.0052185058594 425.00140380859375 342.7572021484375 419.8916015625 C 338.5091552734375 414.78173828125 331.2420654296875 411.764404296875 324.9993896484375 413.992919921875 L 322.8802795410156 415.54052734375" stroke-width="0.6000000238418579" fill="rgb(159, 159, 159)" opacity="1.0"/>
    <path d="M 256.9725036621094 413.6392822265625 C 250.3675537109375 413.244873046875 243.00872802734375 413.09259033203125 238.02560424804688 417.426025390625 C 233.17355346679688 421.6334228515625 232.17245483398438 428.66790771484375 231.60885620117188 435.0682373046875 C 231.38372802734375 437.668701171875 231.18966674804688 440.39263916015625 232.22073364257812 442.7889404296875 C 233.96221923828125 446.8427734375 238.61404418945312 448.752197265625 242.9407958984375 449.5819091796875 C 246.95651245117188 450.35357666015625 251.06219482421875 450.54461669921875 255.1322021484375 450.149169921875 C 261.7409973144531 449.509521484375 268.9251708984375 446.64544677734375 271.37908935546875 440.4783935546875 C 272.7087707519531 437.1510009765625 272.4103698730469 433.332763671875 271.2595520019531 429.93353271484375 C 270.1087341308594 426.5343017578125 268.15185546875 423.47119140625 266.1768798828125 420.4747314453125 C 264.2019348144531 417.47833251953125 262.1971130371094 414.57635498046875 259.23834228515625 412.70068359375 L 256.9725036621094 413.6392822265625" stroke-width="0.6000000238418579" fill="rgb(218, 166, 20)" opacity="1.0"/>
    <path d="M 220.53924560546875 416.829345703125 C 210.57080078125 411.9510498046875 198.53509521484375 416.0775146484375 193.65682983398438 426.04595947265625 C 193.23910522460938 426.8995361328125 192.8824462890625 427.78173828125 192.58956909179688 428.685791015625 C 191.477294921875 432.121337890625 191.34902954101562 436.02642822265625 193.018310546875 439.2265625 C 194.4287109375 441.9310302734375 196.95138549804688 443.86895751953125 199.55520629882812 445.45361328125 C 206.53082275390625 449.6856689453125 214.51242065429688 451.9727783203125 222.67080688476562 452.077392578125 C 224.82733154296875 452.1014404296875 227.0516357421875 451.95574951171875 228.999755859375 451.01983642578125 C 232.27120971679688 449.45050048828125 234.19241333007812 445.8817138671875 234.83712768554688 442.308349609375 C 235.7979736328125 437.0040283203125 234.36309814453125 431.41595458984375 231.43646240234375 426.887451171875 C 228.5098876953125 422.35888671875 224.18780517578125 418.83709716796875 219.4005126953125 416.3572998046875 L 220.53924560546875 416.829345703125" stroke-width="0.6000000238418579" fill="rgb(143, 165, 67)" opacity="1.0"/>
    <path d="M 266.2427978515625 359.4862365722656 C 273.049072265625 371.0910949707031 293.35125732421875 369.49224853515625 299.1274719238281 357.437744140625 C 304.90362548828125 345.38323974609375 294.416259765625 329.0974426269531 280.97821044921875 328.3716125488281 C 267.5401916503906 327.645751953125 255.5966796875 341.2939147949219 257.1282653808594 354.6766662597656 L 266.2427978515625 359.4862365722656" stroke-width="0.6000000238418579" fill="rgb(233, 92, 21)" opacity="1.0"/>
    <path d="M 330.9514465332031 353.06976318359375 C 326.2817687988281 357.64483642578125 321.1781921386719 363.5942077636719 322.9699401855469 369.9044189453125 C 323.7807312011719 372.38787841796875 325.3421325683594 374.5585632324219 327.4388732910156 376.1169738769531 C 332.5229187011719 380.1125183105469 339.22821044921875 381.39599609375 345.42840576171875 379.56036376953125 C 350.68389892578125 377.98980712890625 354.9443359375 374.2940979003906 358.97845458984375 370.62725830078125 C 361.2412414550781 368.56378173828125 363.5796203613281 366.2993469238281 364.3210754394531 363.34539794921875 C 365.2770690917969 359.3999328613281 363.11083984375 355.38970947265625 360.6665344238281 352.1499938964844 C 357.09521484375 347.4041442871094 352.7792663574219 343.2676696777344 347.8861389160156 339.90093994140625 C 346.1932373046875 338.7409362792969 344.34381103515625 337.6405029296875 342.2976379394531 337.4933166503906 C 340.3880920410156 337.4537658691406 338.5082702636719 337.9707336425781 336.887451171875 338.9811096191406 C 331.85162353515625 341.854736328125 328.329833984375 346.79278564453125 327.25311279296875 352.489990234375 L 330.9514465332031 353.06976318359375" stroke-width="0.6000000238418579" fill="rgb(70, 150, 179)" opacity="1.0"/>
    <path d="M 296.166259765625 413.9931640625 C 289.01220703125 412.649169921875 281.0260925292969 411.4598083496094 274.95001220703125 415.4598388671875 C 268.4255676269531 419.7607421875 266.5604553222656 428.80908203125 268.2030029296875 436.4488525390625 C 268.83502197265625 439.3946533203125 269.96453857421875 442.3515625 272.1473388671875 444.4278564453125 C 273.9410705566406 446.1353759765625 276.2933044433594 447.1126708984375 278.6324462890625 447.9241943359375 C 286.0058898925781 450.4921875 294.4326477050781 451.7349853515625 301.4301452636719 448.2750244140625 C 308.4801330566406 444.78302001953125 312.8164978027344 436.4554443359375 311.58905029296875 428.6773681640625 C 310.36163330078125 420.89923095703125 303.742919921875 414.256591796875 295.95416259765625 413.063720703125 L 296.166259765625 413.9931640625" stroke-width="0.6000000238418579" fill="rgb(140, 28, 33)" opacity="1.0"/>
    <path d="M 326.5849609375 385.997314453125 C 319.08343505859375 387.12628173828125 311.29010009765625 388.38372802734375 304.9442443847656 392.5503845214844 C 298.5985107421875 396.717041015625 294.0836486816406 404.7303161621094 296.3336181640625 411.9792785644531 C 299.1309509277344 420.921142578125 311.2325744628906 424.2755126953125 319.74774169921875 420.32666015625 C 328.26287841796875 416.3778076171875 333.4070739746094 407.4336853027344 336.0392150878906 398.4362487792969 C 337.133056640625 395.732666015625 337.1736755371094 392.7173767089844 336.15301513671875 389.9853820800781 C 334.86993408203125 387.4190368652344 330.8955078125 386.13189697265625 329.0382080078125 388.3374938964844 L 326.5849609375 385.997314453125" stroke-width="0.6000000238418579" fill="rgb(159, 159, 159)" opacity="1.0"/>
    <path d="M 361.14727783203125 410.17498779296875 C 355.3724060058594 414.26336669921875 350.87249755859375 420.41937255859375 349.71575927734375 427.39599609375 C 348.55902099609375 434.3726806640625 351.1162109375 442.08154296875 356.84075927734375 446.28448486328125 C 360.891845703125 449.2508544921875 366.1629333496094 450.2696533203125 371.16058349609375 449.7420654296875 C 376.1582336425781 449.21441650390625 380.9125671386719 447.251953125 385.26123046875 444.7314453125 C 387.15301513671875 443.63348388671875 389.05792236328125 442.3448486328125 390.0653381347656 440.40966796875 C 391.2213439941406 438.191650390625 390.9881286621094 435.53533935546875 390.6070556640625 433.05560302734375 C 389.5311279296875 426.05474853515625 387.34130859375 418.9521484375 382.5439758300781 413.7398681640625 C 377.7466125488281 408.527587890625 369.84722900390625 405.70538330078125 363.32037353515625 408.4134216308594 L 361.14727783203125 410.17498779296875" stroke-width="0.6000000238418579" fill="rgb(159, 159, 159)" opacity="1.0"/>
    <path d="M 254.04751586914062 368.365966796875 C 255.23602294921875 360.86151123046875 256.23199462890625 352.468505859375 251.83609008789062 346.28948974609375 C 247.56951904296875 340.2743835449219 239.64199829101562 338.3446044921875 232.39028930664062 336.9856262207031 C 229.44357299804688 336.4378967285156 226.35211181640625 335.911865234375 223.4984130859375 336.82257080078125 C 218.67095947265625 338.36004638671875 215.96917724609375 343.463134765625 214.53765869140625 348.3153381347656 C 213.20724487304688 352.8184814453125 212.53033447265625 357.4893493652344 212.52764892578125 362.1849060058594 C 212.5205078125 369.8092346191406 214.99136352539062 378.339599609375 221.7652587890625 381.8328857421875 C 225.41949462890625 383.72412109375 229.8165283203125 383.8095703125 233.82986450195312 382.8740234375 C 237.84323120117188 381.9384765625 241.5625 380.044189453125 245.20755004882812 378.12176513671875 C 248.85260009765625 376.1993408203125 252.39306640625 374.2322692871094 254.8671875 371.0603332519531 L 254.04751586914062 368.365966796875" stroke-width="0.6000000238418579" fill="rgb(218, 166, 20)" opacity="1.0"/>
    <path d="M 259.68597412109375 384.28570556640625 C 252.5513916015625 375.21673583984375 239.41580200195312 373.64862060546875 230.34683227539062 380.783203125 C 229.57025146484375 381.3941345214844 228.8380126953125 382.05938720703125 228.15557861328125 382.7739562988281 C 225.56295776367188 385.4896240234375 223.67999267578125 389.08935546875 223.79891967773438 392.8401794433594 C 223.89910888671875 396.0099182128906 225.3870849609375 398.96380615234375 227.11056518554688 401.6234130859375 C 231.73370361328125 408.73614501953125 238.17697143554688 414.48126220703125 245.77105712890625 418.261962890625 C 247.78009033203125 419.2579345703125 249.92913818359375 420.1256103515625 252.17630004882812 420.12841796875 C 255.9488525390625 420.13531494140625 259.3592834472656 417.659912109375 261.5761413574219 414.6041259765625 C 264.87054443359375 410.0697021484375 266.0491027832031 404.1880798339844 265.3522033691406 398.6254577636719 C 264.6553039550781 393.0628662109375 262.1969299316406 387.8132019042969 258.83251953125 383.32952880859375 L 259.68597412109375 384.28570556640625" stroke-width="0.6000000238418579" fill="rgb(143, 165, 67)" opacity="1.0"/>
    <path d="M 195.9273681640625 374.1802673339844 C 181.32177734375 373.985107421875 171.40264892578125 393.7463073730469 179.35791015625 405.88458251953125 C 187.31320190429688 418.0228271484375 208.33575439453125 417.42724609375 216.55886840820312 405.34954833984375 C 224.781982421875 393.2718505859375 218.81048583984375 374.5082092285156 205.51602172851562 368.41357421875 L 195.9273681640625 374.1802673339844" stroke-width="0.6000000238418579" fill="rgb(233, 92, 21)" opacity="1.0"/>
    <path d="M 255.25180053710938 373.3694763183594 C 252.38934326171875 378.9084777832031 249.54449462890625 385.8218078613281 253.052734375 391.0017395019531 C 254.529052734375 393.0088195800781 256.59185791015625 394.5083312988281 258.9565124511719 395.2933654785156 C 264.75506591796875 397.3931579589844 271.211669921875 396.55218505859375 276.27886962890625 393.0371398925781 C 280.56964111328125 390.04437255859375 283.3241882324219 385.42413330078125 285.88238525390625 380.8976745605469 C 287.3153076171875 378.3526306152344 288.75665283203125 375.60302734375 288.54559326171875 372.7060241699219 C 288.2326354980469 368.8468933105469 285.07244873046875 365.86199951171875 281.8905944824219 363.65802001953125 C 277.23797607421875 360.4266662597656 272.0930480957031 357.96966552734375 266.6553039550781 356.3823547363281 C 264.775390625 355.8375244140625 262.77154541015625 355.3934020996094 260.8742980957031 355.8714599609375 C 259.1329650878906 356.4062194824219 257.5848388671875 357.43609619140625 256.418701171875 358.83551025390625 C 252.71621704101562 362.94281005859375 251.00189208984375 368.46759033203125 251.72891235351562 373.9493713378906 L 255.25180053710938 373.3694763183594" stroke-width="0.6000000238418579" fill="rgb(70, 150, 179)" opacity="1.0"/>
    <path d="M 335.7899169921875 358.1187744140625 C 336.330810546875 351.015625 336.632080078125 343.1196594238281 332.0899963378906 337.6377258300781 C 327.2072448730469 331.7518310546875 318.20562744140625 330.9070129394531 310.9499816894531 333.3233337402344 C 308.1521301269531 334.2537841796875 305.3968200683594 335.6693115234375 303.6109619140625 338.01507568359375 C 302.1421813964844 339.9429016113281 301.4434814453125 342.33575439453125 300.9046936035156 344.6981201171875 C 299.19671630859375 352.1458435058594 298.8905944824219 360.4761657714844 303.00604248046875 366.91229248046875 C 307.15826416015625 373.3960876464844 315.72357177734375 376.7220458984375 323.1582336425781 374.6946716308594 C 330.5929260253906 372.6673278808594 336.3454284667969 365.5172424316406 336.6713562011719 357.8128662109375 L 335.7899169921875 358.1187744140625" stroke-width="0.6000000238418579" fill="rgb(140, 28, 33)" opacity="1.0"/>
    <path d="M 359.50018310546875 398.56414794921875 C 352.19134521484375 396.9895935058594 344.5686950683594 395.4317626953125 337.26617431640625 397.0603942871094 C 329.9637756347656 398.6890563964844 323.008056640625 404.5020446777344 322.5549621582031 411.9688720703125 C 322.0162353515625 421.1871337890625 332.00262451171875 428.49835205078125 341.2289733886719 427.8267822265625 C 350.455322265625 427.1552734375 358.3157043457031 420.70361328125 363.87890625 413.3270263671875 C 365.829833984375 411.2160339355469 366.9184875488281 408.4505920410156 366.9300842285156 405.5762634277344 C 366.6419982910156 402.7631530761719 363.4269104003906 400.1910095214844 360.9458312988281 401.57672119140625 L 359.50018310546875 398.56414794921875" stroke-width="0.6000000238418579" fill="rgb(159, 159, 159)" opacity="1.0"/>
    <path d="M 177.7337646484375 407.6519470214844 C 170.3123779296875 407.7734375 162.77099609375 410.44024658203125 157.63882446289062 415.7969970703125 C 152.50665283203125 421.15380859375 150.1571502685547 429.34344482421875 152.62615966796875 436.37225341796875 C 154.37808227539062 441.3394775390625 158.33956909179688 445.3424072265625 162.97976684570312 447.84429931640625 C 167.6199951171875 450.34619140625 172.89898681640625 451.46148681640625 178.15704345703125 451.8533935546875 C 180.4453125 452.0225830078125 182.85784912109375 452.03448486328125 184.87594604492188 450.955078125 C 187.190185546875 449.71868896484375 188.56085205078125 447.2803955078125 189.698974609375 444.9073486328125 C 192.91201782226562 438.207763671875 195.220703125 430.7606201171875 194.1522216796875 423.40673828125 C 193.08367919921875 416.0528564453125 187.91390991210938 408.9320983886719 180.65850830078125 407.41302490234375 L 177.7337646484375 407.6519470214844" stroke-width="0.6000000238418579" fill="rgb(159, 159, 159)" opacity="1.0"/>
    <path d="M 364.31097412109375 368.22467041015625 C 358.27288818359375 365.8370666503906 351.4578552246094 363.4447326660156 345.4862365722656 365.9615173339844 C 339.6753845214844 368.4009094238281 336.59075927734375 374.6539611816406 334.1080017089844 380.4494934082031 C 333.1028747558594 382.80535888671875 332.08892822265625 385.28594970703125 332.31756591796875 387.8356018066406 C 332.7016906738281 392.1481018066406 336.4552917480469 395.35107421875 340.23602294921875 397.4478759765625 C 343.7444152832031 399.3953857421875 347.5142822265625 400.8290710449219 351.4302062988281 401.7049865722656 C 357.7880859375 403.1295471191406 365.36273193359375 402.6558837890625 369.5367126464844 397.6559753417969 C 371.7940673828125 394.9599914550781 372.6834716796875 391.3084716796875 372.64990234375 387.7869873046875 C 372.6163330078125 384.2655029296875 371.7283935546875 380.8109436035156 370.80316162109375 377.4129943847656 C 369.8779602050781 374.0151062011719 368.8960266113281 370.69610595703125 366.71075439453125 368.0423278808594 L 364.31097412109375 368.22467041015625" stroke-width="0.6000000238418579" fill="rgb(218, 166, 20)" opacity="1.0"/>
    <path d="M 373.33929443359375 378.7347106933594 C 365.88848876953125 388.1327819824219 367.467041015625 401.7915344238281 376.8651428222656 409.24237060546875 C 377.6698913574219 409.88037109375 378.5188903808594 410.4604797363281 379.40576171875 410.9783630371094 C 382.7760009765625 412.945556640625 386.869140625 413.98223876953125 390.63287353515625 412.95849609375 C 393.8135681152344 412.09375 396.44171142578125 409.8777160644531 398.71563720703125 407.4945373535156 C 404.7934875488281 401.10693359375 409.0502014160156 393.20843505859375 411.0435485839844 384.61956787109375 C 411.5666198730469 382.348388671875 411.9262390136719 379.966552734375 411.38775634765625 377.69384765625 C 410.48602294921875 373.87786865234375 407.1617431640625 371.02593994140625 403.5381164550781 369.5205993652344 C 398.1599426269531 367.281982421875 391.9292907714844 367.507080078125 386.47296142578125 369.5516357421875 C 381.0166320800781 371.5961608886719 376.301025390625 375.34625244140625 372.578125 379.82794189453125 L 373.33929443359375 378.7347106933594" stroke-width="0.6000000238418579" fill="rgb(143, 165, 67)" opacity="1.0"/>
    <path d="M 365.7084045410156 361.3630065917969 C 371.26190185546875 374.2251892089844 392.4483642578125 375.16339111328125 399.956298828125 363.4420471191406 C 407.46417236328125 351.7206726074219 398.7035217285156 333.551025390625 384.9078369140625 331.08612060546875 C 371.1121826171875 328.6212463378906 357.0269470214844 341.2026672363281 356.9021911621094 355.229248046875 L 365.7084045410156 361.3630065917969" stroke-width="0.6000000238418579" fill="rgb(233, 92, 21)" opacity="1.0"/>
    <path d="M 403.3482666015625 352.1124267578125 C 402.2845153808594 358.78533935546875 401.7059020996094 366.8666076660156 407.0763854980469 371.0053405761719 C 409.2776794433594 372.5692138671875 411.9100341796875 373.4114685058594 414.6103515625 373.4158630371094 C 421.29119873046875 373.6065368652344 427.6500244140625 370.5472106933594 431.67041015625 365.2080383300781 C 435.0692138671875 360.6701965332031 436.3341064453125 354.9794616699219 437.4287109375 349.4519348144531 C 438.03857421875 346.3459167480469 438.587646484375 343.0264892578125 437.3861083984375 340.1168518066406 C 435.752685546875 336.2516784667969 431.48626708984375 334.253662109375 427.462890625 333.066650390625 C 421.57684326171875 331.3221130371094 415.447265625 330.5417785644531 409.3117980957031 330.75592041015625 C 407.1920471191406 330.833984375 404.97894287109375 331.0578308105469 403.1888732910156 332.1944580078125 C 401.57855224609375 333.3364562988281 400.33526611328125 334.9223327636719 399.6106872558594 336.7587585449219 C 397.1960144042969 342.24371337890625 397.30902099609375 348.5118713378906 399.91986083984375 353.90625 L 403.3482666015625 352.1124267578125" stroke-width="0.6000000238418579" fill="rgb(70, 150, 179)" opacity="1.0"/>
    <path d="M 389.6485900878906 421.7208251953125 C 389.0480041503906 429.027587890625 388.6891174316406 437.1517333984375 393.3296203613281 442.82147216796875 C 398.3182067871094 448.9090576171875 407.5768737792969 449.83416748046875 415.058837890625 447.392333984375 C 417.9439697265625 446.4520263671875 420.788330078125 445.0123291015625 422.640625 442.6092529296875 C 424.1641845703125 440.6343994140625 424.8980712890625 438.1761474609375 425.46710205078125 435.748291015625 C 427.2708740234375 428.0941162109375 427.637451171875 419.52301025390625 423.44195556640625 412.8739013671875 C 419.2088623046875 406.1755676269531 410.41461181640625 402.69970703125 402.75079345703125 404.74017333984375 C 395.08697509765625 406.7806091308594 389.1226501464844 414.1033935546875 388.7395935058594 422.03021240234375 L 389.6485900878906 421.7208251953125" stroke-width="0.6000000238418579" fill="rgb(140, 28, 33)" opacity="1.0"/>
    <path d="M 412.7333984375 376.14068603515625 C 410.9493103027344 383.56903076171875 409.1747741699219 391.3182678222656 410.6629943847656 398.817138671875 C 412.1512451171875 406.31585693359375 417.92218017578125 413.56097412109375 425.538818359375 414.2032470703125 C 434.94256591796875 414.97509765625 442.651123046875 404.949462890625 442.1868896484375 395.50836181640625 C 441.7225341796875 386.0672912597656 435.3209228515625 377.8826904296875 427.919189453125 372.0224609375 C 425.8096923828125 369.9788513183594 423.0108642578125 368.8002624511719 420.074951171875 368.7193908691406 C 417.1944580078125 368.9460754394531 414.4896240234375 372.16851806640625 415.8455810546875 374.736328125 L 412.7333984375 376.14068603515625" stroke-width="0.6000000238418579" fill="rgb(159, 159, 159)" opacity="1.0"/>
    <path d="M 434.3045654296875 371.3990478515625 C 435.62786865234375 378.6474609375 439.4635009765625 385.6003723144531 445.54248046875 389.7572326660156 C 451.6214599609375 393.91412353515625 460.0233154296875 394.88604736328125 466.50634765625 391.3273620605469 C 471.086669921875 388.8055114746094 474.364013671875 384.2762145996094 476.061279296875 379.3258361816406 C 477.75848388671875 374.37542724609375 477.9940185546875 369.0244140625 477.5245361328125 363.81134033203125 C 477.31890869140625 361.5428466796875 476.93902587890625 359.17822265625 475.554443359375 357.3769836425781 C 473.968017578125 355.3111572265625 471.3575439453125 354.364501953125 468.848876953125 353.6349792480469 C 461.7662353515625 351.5755310058594 454.09820556640625 350.5230407714844 447.069580078125 352.7629089355469 C 440.0408935546875 355.0027770996094 433.90618896484375 361.22137451171875 433.595947265625 368.5734558105469 L 434.3045654296875 371.3990478515625" stroke-width="0.6000000238418579" fill="rgb(159, 159, 159)" opacity="1.0"/>
    <path d="M 431.965576171875 411.2145080566406 C 427.265625 416.27581787109375 422.2607421875 422.10528564453125 422.447021484375 428.9962158203125 C 422.6187744140625 435.69793701171875 427.6236572265625 441.1717529296875 432.4078369140625 445.8721923828125 C 434.3541259765625 447.77886962890625 436.420654296875 449.74249267578125 439.035888671875 450.5013427734375 C 443.458251953125 451.787353515625 448.0833740234375 449.3052978515625 451.62261962890625 446.3687744140625 C 454.90869140625 443.64447021484375 457.78662109375 440.46240234375 460.16815185546875 436.9200439453125 C 464.0372314453125 431.1695556640625 466.495361328125 423.4796142578125 463.1534423828125 417.4105224609375 C 461.35400390625 414.13134765625 458.078857421875 411.838623046875 454.575927734375 410.5108642578125 C 451.07293701171875 409.18310546875 447.3060302734375 408.7279357910156 443.5809326171875 408.33160400390625 C 439.8558349609375 407.9352722167969 436.18701171875 407.6256408691406 432.71240234375 408.7657165527344 L 431.965576171875 411.2145080566406" stroke-width="0.6000000238418579" fill="rgb(218, 166, 20)" opacity="1.0"/>
    <path d="M 134.23121643066406 211.96969604492188 C 134.00323486328125 223.75027465820312 143.36846923828125 233.48513793945312 155.14903259277344 233.713134765625 C 156.15780639648438 233.732666015625 157.16668701171875 233.68057250976562 158.1680908203125 233.55731201171875 C 161.97314453125 233.08828735351562 165.78924560546875 231.46173095703125 168.1212158203125 228.42095947265625 C 170.0921630859375 225.85153198242188 170.826904296875 222.5550537109375 171.1851806640625 219.33877563476562 C 172.1324462890625 210.72833251953125 170.75689697265625 202.02130126953125 167.20147705078125 194.12216186523438 C 166.2581787109375 192.0357666015625 165.1212158203125 189.960205078125 163.34735107421875 188.504638671875 C 160.370849609375 186.0592041015625 156.07498168945312 185.80938720703125 152.34686279296875 186.79022216796875 C 146.81094360351562 188.24249267578125 142.0755615234375 192.12774658203125 139.0284881591797 196.97393798828125 C 135.98141479492188 201.82012939453125 134.5286102294922 207.55831909179688 134.28717041015625 213.2772216796875 L 134.23121643066406 211.96969604492188" stroke-width="0.6000000238418579" fill="rgb(143, 165, 67)" opacity="1.0"/>
    <path d="M 169.75579833984375 263.0823669433594 C 180.7227783203125 273.7414245605469 202.48690795898438 265.8512878417969 205.17208862304688 250.8953857421875 C 207.85720825195312 235.93951416015625 191.441162109375 221.263916015625 176.49609375 224.53134155273438 C 161.55096435546875 227.79873657226562 152.58938598632812 246.3656005859375 158.31381225585938 260.5675964355469 L 169.75579833984375 263.0823669433594" stroke-width="0.6000000238418579" fill="rgb(233, 92, 21)" opacity="1.0"/>
    <path d="M 144.80661010742188 312.98077392578125 C 138.4293975830078 316.0921936035156 131.13436889648438 320.4702453613281 130.81704711914062 327.5830993652344 C 130.80091857910156 330.41864013671875 131.66505432128906 333.1893005371094 133.29034423828125 335.51287841796875 C 137.156982421875 341.3702087402344 143.62277221679688 344.9900817871094 150.63734436035156 345.22454833984375 C 156.588134765625 345.408203125 162.24249267578125 343.06219482421875 167.65386962890625 340.6683349609375 C 170.69146728515625 339.3186950683594 173.87579345703125 337.7879943847656 175.65179443359375 334.9998779296875 C 177.988525390625 331.2641296386719 177.1319580078125 326.3916931152344 175.72491455078125 322.2174377441406 C 173.67333984375 316.1058044433594 170.64608764648438 310.3665466308594 166.76055908203125 305.2222595214844 C 165.41464233398438 303.4474182128906 163.8870849609375 301.68023681640625 161.8302001953125 300.827392578125 C 159.87713623046875 300.13226318359375 157.76397705078125 300.0204162597656 155.74844360351562 300.5054931640625 C 149.5772705078125 301.7391052246094 144.25790405273438 305.6177673339844 141.1964569091797 311.1162109375 L 144.80661010742188 312.98077392578125" stroke-width="0.6000000238418579" fill="rgb(70, 150, 179)" opacity="1.0"/>
    <path d="M 121.2261962890625 300.7875061035156 C 122.25990295410156 293.1585388183594 123.08537292480469 284.6590576171875 118.53256225585938 278.45697021484375 C 113.6378173828125 271.7975158691406 103.97994995117188 270.3155822753906 95.99903869628906 272.46258544921875 C 92.92158508300781 273.2890930175781 89.85929870605469 274.6416015625 87.78398132324219 277.0591735839844 C 86.07717895507812 279.0459289550781 85.17172241210938 281.58319091796875 84.44075012207031 284.0976867675781 C 82.12608337402344 292.0244140625 81.26786804199219 300.9922180175781 85.2999267578125 308.1966857910156 C 89.36865234375 315.4548645019531 98.39852905273438 319.5859375 106.54795837402344 317.8699035644531 C 114.69737243652344 316.15386962890625 121.35661315917969 308.8045654296875 122.19651794433594 300.5133361816406 L 121.2261962890625 300.7875061035156" stroke-width="0.6000000238418579" fill="rgb(140, 28, 33)" opacity="1.0"/>
    <path d="M 144.12937927246094 266.9745178222656 C 137.51272583007812 270.9833679199219 130.67190551757812 275.22772216796875 126.33602905273438 281.6415710449219 C 122.000244140625 288.05535888671875 120.89837646484375 297.3703308105469 125.86305236816406 303.3089904785156 C 132.00778198242188 310.62591552734375 144.7146759033203 309.02984619140625 151.17776489257812 301.9689636230469 C 157.64083862304688 294.9081115722656 158.96939086914062 284.4698791503906 157.91278076171875 274.9681701660156 C 157.88037109375 271.9940490722656 156.73431396484375 269.1402893066406 154.70069885253906 266.96990966796875 C 152.48516845703125 265.05853271484375 148.23910522460938 265.40814208984375 147.3573760986328 268.21343994140625 L 144.12937927246094 266.9745178222656" stroke-width="0.6000000238418579" fill="rgb(159, 159, 159)" opacity="1.0"/>
    <path d="M 160.4117431640625 284.84710693359375 C 160.18014526367188 292.4216003417969 162.53863525390625 300.2404479980469 167.755859375 305.7310791015625 C 172.97311401367188 311.2217102050781 181.21279907226562 314.0101318359375 188.4993896484375 311.8288269042969 C 193.64910888671875 310.2800598144531 197.9212646484375 306.43170166015625 200.69509887695312 301.81927490234375 C 203.46896362304688 297.2068176269531 204.8592529296875 291.8764343261719 205.51080322265625 286.53277587890625 C 205.79299926757812 284.2071838378906 205.920654296875 281.7473449707031 204.91653442382812 279.63751220703125 C 203.76644897460938 277.21807861328125 201.34539794921875 275.70343017578125 198.97979736328125 274.4290466308594 C 192.3011474609375 270.831298828125 184.8167724609375 268.12005615234375 177.2657470703125 268.85748291015625 C 169.71466064453125 269.5949401855469 162.2049560546875 274.5262451171875 160.3082275390625 281.8528747558594 L 160.4117431640625 284.84710693359375" stroke-width="0.6000000238418579" fill="rgb(159, 159, 159)" opacity="1.0"/>
    <path d="M 128.12513732910156 348.8753356933594 C 128.90682983398438 341.3620910644531 129.4502410888672 332.9768981933594 124.75823974609375 327.0758361816406 C 120.20335388183594 321.33062744140625 112.23074340820312 319.83544921875 104.9593505859375 318.87109375 C 102.0048828125 318.4836730957031 98.90786743164062 318.12548828125 96.12310791015625 319.1810607910156 C 91.41215515136719 320.96356201171875 89.00067138671875 326.1731262207031 87.83699035644531 331.0661926269531 C 86.75514221191406 335.6073913574219 86.33099365234375 340.2803955078125 86.57748413085938 344.9421691894531 C 86.9749755859375 352.51171875 89.880615234375 360.84930419921875 96.7908935546875 363.9578857421875 C 100.51905822753906 365.64154052734375 104.88882446289062 365.4930725097656 108.82351684570312 364.351318359375 C 112.75820922851562 363.2095642089844 116.35006713867188 361.1316223144531 119.86676025390625 359.0296630859375 C 123.38345336914062 356.927734375 126.79393005371094 354.7870178222656 129.08184814453125 351.5067138671875 L 128.12513732910156 348.8753356933594" stroke-width="0.6000000238418579" fill="rgb(218, 166, 20)" opacity="1.0"/>
    <path d="M 150.58120727539062 344.0239562988281 C 139.1581573486328 345.0179443359375 130.70372009277344 355.0839538574219 131.69772338867188 366.50701904296875 C 131.78282165527344 367.48516845703125 131.93722534179688 368.4560546875 132.1597442626953 369.4123840332031 C 133.00592041015625 373.0459899902344 134.97332763671875 376.5709533691406 138.15615844726562 378.5140075683594 C 140.845703125 380.1562805175781 144.111328125 380.5273742675781 147.26051330566406 380.54248046875 C 155.69012451171875 380.57135009765625 163.97369384765625 378.3425598144531 171.25079345703125 374.0877380371094 C 173.17245483398438 372.9598083496094 175.06365966796875 371.6456298828125 176.28927612304688 369.7790832519531 C 178.34872436523438 366.6466979980469 178.14752197265625 362.46405029296875 176.8140869140625 358.9576110839844 C 174.8380126953125 353.75048828125 170.59017944335938 349.56884765625 165.5865478515625 347.1199645996094 C 160.58294677734375 344.6711120605469 154.8805694580078 343.8569030761719 149.32171630859375 344.2129211425781 L 150.58120727539062 344.0239562988281" stroke-width="0.6000000238418579" fill="rgb(143, 165, 67)" opacity="1.0"/>
    <path d="M 138.7542266845703 376.61932373046875 C 135.4436492919922 362.8124694824219 114.45315551757812 358.1954650878906 104.92082214355469 368.5943603515625 C 95.3885498046875 378.9932861328125 100.97930908203125 398.6564636230469 114.3253173828125 403.5139465332031 C 127.67132568359375 408.3714294433594 143.92013549804688 398.25628662109375 146.48123168945312 384.2732238769531 L 138.7542266845703 376.61932373046875" stroke-width="0.6000000238418579" fill="rgb(233, 92, 21)" opacity="1.0"/>
    <path d="M 177.5633544921875 352.34185791015625 C 176.92117309570312 359.47698974609375 176.89410400390625 368.066650390625 182.8741455078125 372.05560302734375 C 185.31573486328125 373.5504150390625 188.1610107421875 374.25079345703125 191.01751708984375 374.0599670410156 C 198.09786987304688 373.7781066894531 204.60238647460938 370.0819091796875 208.4683837890625 364.1434631347656 C 211.73495483398438 359.09765625 212.66094970703125 352.9868469238281 213.418701171875 347.0610046386719 C 213.83895874023438 343.7315368652344 214.179443359375 340.18072509765625 212.69790649414062 337.1900939941406 C 210.69046020507812 333.2200012207031 206.03311157226562 331.4154357910156 201.69155883789062 330.4511413574219 C 195.33941650390625 329.03192138671875 188.79946899414062 328.65020751953125 182.3253173828125 329.32080078125 C 180.0888671875 329.55682373046875 177.76419067382812 329.9537353515625 175.95306396484375 331.2855529785156 C 174.33242797851562 332.61004638671875 173.13217163085938 334.3774719238281 172.4986572265625 336.3723449707031 C 170.34161376953125 342.3487548828125 170.91482543945312 348.9705505371094 174.06683349609375 354.48736572265625 L 177.5633544921875 352.34185791015625" stroke-width="0.6000000238418579" fill="rgb(70, 150, 179)" opacity="1.0"/>
  </g>
</svg>
