<?xml version="1.0" ?>
<svg xmlns="http://www.w3.org/2000/svg" version="1.1" width="600" height="600">
  <defs/>
  <g>
    <path d="M 351.1237487792969 344.2958984375 C 355.7593078613281 347.64788818359375 363.38787841796875 343.5505676269531 363.5728759765625 337.8699035644531 C 363.7578430175781 332.189208984375 356.8882751464844 327.64532470703125 351.5335388183594 329.6629333496094 C 346.1788024902344 331.6805114746094 343.8660583496094 339.037109375 346.75286865234375 343.98394775390625 L 351.1237487792969 344.2958984375" stroke-width="0.6000000238418579" fill="rgb(233, 92, 21)" opacity="1.0"/>
    <path d="M 123.93348693847656 209.12948608398438 C 128.00204467773438 208.89279174804688 132.8374786376953 208.18807983398438 134.5807342529297 204.48895263671875 C 135.21717834472656 202.98980712890625 135.37277221679688 201.33016967773438 135.0260009765625 199.7388916015625 C 134.27395629882812 195.77862548828125 131.64901733398438 192.42849731445312 127.98361206054688 190.75091552734375 C 124.87069702148438 189.33584594726562 121.35470581054688 189.32699584960938 117.95687866210938 189.39730834960938 C 116.04824829101562 189.43988037109375 114.02177429199219 189.54592895507812 112.46319580078125 190.63018798828125 C 110.39761352539062 192.09246826171875 109.7725830078125 194.86431884765625 109.59388732910156 197.38800048828125 C 109.32774353027344 201.08111572265625 109.66110229492188 204.79296875 110.5810546875 208.37957763671875 C 110.90130615234375 209.6181640625 111.31948852539062 210.8929443359375 112.22067260742188 211.80035400390625 C 113.10174560546875 212.60125732421875 114.19683837890625 213.12847900390625 115.37239074707031 213.31771850585938 C 118.91592407226562 214.030517578125 122.59379577636719 213.15298461914062 125.43377685546875 210.91705322265625 L 123.93348693847656 209.12948608398438" stroke-width="0.6000000238418579" fill="rgb(70, 150, 179)" opacity="1.0"/>
    <path d="M 455.57373046875 409.41156005859375 C 458.2451171875 412.1558837890625 461.32135009765625 415.08551025390625 465.1468505859375 415.2039794921875 C 469.2564697265625 415.32867431640625 472.7984619140625 411.9999694824219 474.40478515625 408.2153625488281 C 475.024658203125 406.7564392089844 475.43389892578125 405.14215087890625 475.123291015625 403.587890625 C 474.868408203125 402.3100891113281 474.1522216796875 401.1773681640625 473.391357421875 400.1199951171875 C 470.99615478515625 396.7825927734375 467.7464599609375 393.6965026855469 463.68798828125 393.06671142578125 C 459.59716796875 392.434814453125 455.21002197265625 394.7052001953125 453.38330078125 398.42364501953125 C 451.5565185546875 402.1421203613281 452.393310546875 407.0042724609375 455.383544921875 409.8757019042969 L 455.57373046875 409.41156005859375" stroke-width="0.6000000238418579" fill="rgb(140, 28, 33)" opacity="1.0"/>
    <path d="M 89.1014404296875 208.85159301757812 C 93.54031372070312 208.8447265625 98.15913391113281 208.78866577148438 102.19094848632812 206.92413330078125 C 106.22268676757812 205.0595703125 109.5263671875 200.81097412109375 108.84893798828125 196.42166137695312 C 108.00064086914062 191.00537109375 101.28585815429688 188.02102661132812 96.01730346679688 189.57254028320312 C 90.74876403808594 191.1240234375 87.00064086914062 195.857177734375 84.70181274414062 200.837646484375 C 83.83572387695312 202.30807495117188 83.55233764648438 204.0496826171875 83.9075927734375 205.71881103515625 C 84.42898559570312 207.314697265625 86.6182861328125 208.40219116210938 87.88330078125 207.2857666015625 L 89.1014404296875 208.85159301757812" stroke-width="0.6000000238418579" fill="rgb(159, 159, 159)" opacity="1.0"/>
    <path d="M 382.06341552734375 307.0592346191406 C 385.773193359375 305.8599548339844 389.1528625488281 303.363525390625 390.90960693359375 299.8852233886719 C 392.6663818359375 296.40692138671875 392.59063720703125 291.93218994140625 390.272216796875 288.7796936035156 C 388.6302490234375 286.55291748046875 386.0260925292969 285.14947509765625 383.3111877441406 284.604248046875 C 380.5962829589844 284.0589904785156 377.77313232421875 284.308349609375 375.0714416503906 284.91790771484375 C 373.8958740234375 285.1838684082031 372.6820373535156 285.54791259765625 371.833740234375 286.39971923828125 C 370.8607177734375 287.3758239746094 370.54608154296875 288.8110046386719 370.3382568359375 290.177734375 C 369.7516174316406 294.03631591796875 369.73394775390625 298.1317443847656 371.39862060546875 301.6623840332031 C 373.0633239746094 305.1930236816406 376.7527160644531 307.97747802734375 380.6307067871094 307.6278381347656 L 382.06341552734375 307.0592346191406" stroke-width="0.6000000238418579" fill="rgb(159, 159, 159)" opacity="1.0"/>
    <path d="M 103.42643737792969 422.3692626953125 C 106.00642395019531 420.0731201171875 108.77473449707031 417.4090576171875 109.00933837890625 413.969970703125 C 109.24221801757812 410.6257629394531 107.01083374023438 407.6632385253906 104.85263061523438 405.09613037109375 C 103.974365234375 404.0545654296875 103.0389404296875 402.9789123535156 101.77317810058594 402.4769592285156 C 99.63285827636719 401.626708984375 97.212646484375 402.6425476074219 95.31134033203125 403.9361877441406 C 93.54615783691406 405.1361999511719 91.96243286132812 406.58349609375 90.608642578125 408.23370361328125 C 88.40948486328125 410.91241455078125 86.82057189941406 414.62359619140625 88.19586181640625 417.803466796875 C 88.93582153320312 419.521240234375 90.45721435546875 420.818115234375 92.13787841796875 421.6455078125 C 93.81854248046875 422.47283935546875 95.67201232910156 422.87835693359375 97.50750732421875 423.2525634765625 C 99.34300231933594 423.6268310546875 101.15457153320312 423.95526123046875 102.9383544921875 423.55279541015625 L 103.42643737792969 422.3692626953125" stroke-width="0.6000000238418579" fill="rgb(218, 166, 20)" opacity="1.0"/>
    <path d="M 99.68458557128906 151.85939025878906 C 107.28506469726562 153.17666625976562 114.51432800292969 148.0831298828125 115.83160400390625 140.48265075683594 C 115.94441223144531 139.83181762695312 116.01089477539062 139.17381286621094 116.03057861328125 138.51356506347656 C 116.10488891601562 136.00477600097656 115.43125915527344 133.3739013671875 113.6951904296875 131.56297302246094 C 112.22821044921875 130.032470703125 110.16802978515625 129.22970581054688 108.12240600585938 128.67848205566406 C 102.64471435546875 127.2105712890625 96.87387084960938 127.23609924316406 91.40937805175781 128.75244140625 C 89.96562194824219 129.15567016601562 88.50965881347656 129.685302734375 87.3916015625 130.68861389160156 C 85.51364135742188 132.3718719482422 84.92544555664062 135.12689208984375 85.18994140625 137.63670349121094 C 85.58000183105469 141.3631591796875 87.62393188476562 144.81317138671875 90.45730590820312 147.26611328125 C 93.29067993164062 149.71905517578125 96.85954284667969 151.2289276123047 100.5362548828125 151.95301818847656 L 99.68458557128906 151.85939025878906" stroke-width="0.6000000238418579" fill="rgb(143, 165, 67)" opacity="1.0"/>
    <path d="M 459.8489990234375 346.1394348144531 C 462.9525146484375 353.4615783691406 474.97509765625 354.0746154785156 479.28143310546875 347.4496765136719 C 483.58770751953125 340.8247375488281 478.683837890625 330.4776611328125 470.8623046875 329.0260925292969 C 463.040771484375 327.57452392578125 454.9976806640625 334.6626892089844 454.87353515625 342.6242370605469 L 459.8489990234375 346.1394348144531" stroke-width="0.6000000238418579" fill="rgb(233, 92, 21)" opacity="1.0"/>
    <path d="M 106.33853149414062 226.61322021484375 C 108.9462890625 222.970703125 111.68356323242188 218.34912109375 109.72445678710938 214.303466796875 C 108.88217163085938 212.72378540039062 107.57044982910156 211.44439697265625 105.97023010253906 210.641845703125 C 102.06431579589844 208.54953002929688 97.38656616210938 208.48016357421875 93.42034912109375 210.45578002929688 C 90.06019592285156 212.1402587890625 87.62411499023438 215.14068603515625 85.33734130859375 218.09475708007812 C 84.05546569824219 219.7562255859375 82.74642944335938 221.56231689453125 82.59710693359375 223.64398193359375 C 82.42079162597656 226.4202880859375 84.35926818847656 228.8692626953125 86.39387512207031 230.76519775390625 C 89.3680419921875 233.54364013671875 92.77232360839844 235.82235717773438 96.47467041015625 237.51300048828125 C 97.7550048828125 238.09466552734375 99.1339111328125 238.6175537109375 100.53231811523438 238.47372436523438 C 101.82571411132812 238.27349853515625 103.03292846679688 237.70123291015625 104.0067138671875 236.82672119140625 C 107.06378173828125 234.2889404296875 108.85369873046875 230.537841796875 108.9033203125 226.56500244140625 L 106.33853149414062 226.61322021484375" stroke-width="0.6000000238418579" fill="rgb(70, 150, 179)" opacity="1.0"/>
    <path d="M 106.25015258789062 82.68569946289062 C 106.53884887695312 87.07943725585938 107.0433349609375 91.93743896484375 110.30096435546875 94.89570617675781 C 113.80230712890625 98.07144165039062 119.38429260253906 97.8031005859375 123.61337280273438 95.6915283203125 C 125.24427795410156 94.87808227539062 126.80682373046875 93.77151489257812 127.69496154785156 92.1802978515625 C 128.42556762695312 90.87248229980469 128.64437866210938 89.3472900390625 128.76795959472656 87.85470581054688 C 129.1633758544922 83.14828491210938 128.62396240234375 78.02407836914062 125.54415893554688 74.4447021484375 C 122.43768310546875 70.83938598632812 116.90625 69.5513916015625 112.53366088867188 71.44058227539062 C 108.16110229492188 73.32975769042969 105.26480102539062 78.20689392089844 105.73748779296875 82.94978332519531 L 106.25015258789062 82.68569946289062" stroke-width="0.6000000238418579" fill="rgb(140, 28, 33)" opacity="1.0"/>
    <path d="M 93.47018432617188 406.5168151855469 C 96.64141845703125 403.9346923828125 99.91281127929688 401.2128601074219 101.71429443359375 397.5382080078125 C 103.51573181152344 393.86358642578125 103.41213989257812 388.9063415527344 100.37911987304688 386.1598815917969 C 96.62759399414062 382.7780456542969 90.09161376953125 384.5419006347656 87.22372436523438 388.7106628417969 C 84.3558349609375 392.87945556640625 84.42279052734375 398.44134521484375 85.67007446289062 403.33868408203125 C 85.904296875 404.8934020996094 86.7127685546875 406.3037414550781 87.93600463867188 407.29144287109375 C 89.23554992675781 408.13031005859375 91.43299865722656 407.6370849609375 91.689697265625 406.10400390625 L 93.47018432617188 406.5168151855469" stroke-width="0.6000000238418579" fill="rgb(159, 159, 159)" opacity="1.0"/>
    <path d="M 478.17279052734375 70.23342895507812 C 479.286376953125 66.84732055664062 479.26409912109375 63.00593566894531 477.6419677734375 59.833984375 C 476.0198974609375 56.662017822265625 472.67437744140625 54.306396484375 469.0966796875 54.319671630859375 C 466.5672607421875 54.332275390625 464.1273193359375 55.49916076660156 462.26153564453125 57.210357666015625 C 460.395751953125 58.921539306640625 459.0584716796875 61.14093017578125 458.0526123046875 63.4647216796875 C 457.615478515625 64.47622680664062 457.23016357421875 65.56887817382812 457.402099609375 66.65443420410156 C 457.59857177734375 67.89909362792969 458.48895263671875 68.9049072265625 459.3863525390625 69.79495239257812 C 461.9197998046875 72.30770874023438 464.9349365234375 74.52789306640625 468.4395751953125 75.20120239257812 C 471.9442138671875 75.87451171875 475.9888916015625 74.65040588378906 477.820556640625 71.59796142578125 L 478.17279052734375 70.23342895507812" stroke-width="0.6000000238418579" fill="rgb(159, 159, 159)" opacity="1.0"/>
    <path d="M 89.21624755859375 109.95277404785156 C 93.410888671875 111.23684692382812 98.12905883789062 112.48245239257812 102.01582336425781 110.46708679199219 C 105.79849243164062 108.512451171875 107.54046630859375 104.13565063476562 108.90164184570312 100.0992431640625 C 109.45220947265625 98.45869445800781 110.00199890136719 96.73365783691406 109.71124267578125 95.02877807617188 C 109.22119140625 92.14498901367188 106.5213623046875 90.189208984375 103.86262512207031 88.97987365722656 C 101.39529418945312 87.8564453125 98.77944946289062 87.0931396484375 96.09513854980469 86.71330261230469 C 91.73678588867188 86.094970703125 86.66079711914062 86.82032775878906 84.11788940429688 90.41160583496094 C 82.74224853515625 92.34841918945312 82.33914184570312 94.85536193847656 82.5506591796875 97.2252197265625 C 82.76219177246094 99.5950927734375 83.5455322265625 101.87405395507812 84.3509521484375 104.11285400390625 C 85.15634155273438 106.35166931152344 85.99569702148438 108.53427124023438 87.60981750488281 110.20431518554688 L 89.21624755859375 109.95277404785156" stroke-width="0.6000000238418579" fill="rgb(218, 166, 20)" opacity="1.0"/>
    <path d="M 128.3837890625 137.1626739501953 C 135.1376953125 136.5556640625 140.1207275390625 130.5884552001953 139.5137176513672 123.83456420898438 C 139.4617462158203 123.2562255859375 139.36880493164062 122.68231201171875 139.235595703125 122.11711120605469 C 138.7290802001953 119.9696044921875 137.5596466064453 117.88825988769531 135.674072265625 116.74449157714844 C 134.08071899414062 115.77777099609375 132.14881896972656 115.56378173828125 130.286376953125 115.56011962890625 C 125.30107116699219 115.55722045898438 120.40591430664062 116.88919067382812 116.10940551757812 119.41770935058594 C 114.97482299804688 120.08798217773438 113.85858154296875 120.86834716796875 113.13687133789062 121.97428894042969 C 111.9241943359375 123.83021545410156 112.05018615722656 126.30349731445312 112.84468078613281 128.3749542236328 C 114.02206420898438 131.4511260986328 116.54122924804688 133.91700744628906 119.50447082519531 135.35687255859375 C 122.46769714355469 136.79673767089844 125.8414306640625 137.2686767578125 129.12832641601562 137.04881286621094 L 128.3837890625 137.1626739501953" stroke-width="0.6000000238418579" fill="rgb(143, 165, 67)" opacity="1.0"/>
    <path d="M 397.8192443847656 308.2672119140625 C 400.9073791503906 315.55621337890625 412.874755859375 316.1683044433594 417.16229248046875 309.574462890625 C 421.4498291015625 302.9805908203125 416.570068359375 292.6802978515625 408.78466796875 291.2341613769531 C 400.9992370605469 289.7880554199219 392.9919738769531 296.8424377441406 392.8672180175781 304.76739501953125 L 397.8192443847656 308.2672119140625" stroke-width="0.6000000238418579" fill="rgb(233, 92, 21)" opacity="1.0"/>
    <path d="M 126.91366577148438 115.2998046875 C 130.84921264648438 114.704345703125 135.4885711669922 113.58489990234375 136.85183715820312 109.83087158203125 C 137.33621215820312 108.3157958984375 137.3385467529297 106.68775939941406 136.85842895507812 105.17132568359375 C 135.77149963378906 101.3873291015625 132.9179229736328 98.36489868164062 129.2025909423828 97.06248474121094 C 126.04812622070312 95.96572875976562 122.6279296875 96.27278137207031 119.32974243164062 96.64620971679688 C 117.47738647460938 96.85897827148438 115.51608276367188 97.14401245117188 114.09765625 98.33843994140625 C 112.2200927734375 99.94598388671875 111.861083984375 102.69776916503906 111.91384887695312 105.16818237304688 C 111.986572265625 108.78375244140625 112.64401245117188 112.36370849609375 113.86068725585938 115.76919555664062 C 114.2833251953125 116.94505310058594 114.80447387695312 118.14724731445312 115.76235961914062 118.9488525390625 C 116.69114685058594 119.64863586425781 117.80348205566406 120.06304931640625 118.96372985839844 120.14157104492188 C 122.47393798828125 120.51669311523438 125.97198486328125 119.33306884765625 128.53321838378906 116.90357971191406 L 126.91366577148438 115.2998046875" stroke-width="0.6000000238418579" fill="rgb(70, 150, 179)" opacity="1.0"/>
    <path d="M 422.026611328125 63.40791320800781 C 423.58447265625 66.20407104492188 425.42852783203125 69.23797607421875 428.489501953125 70.166748046875 C 431.7781982421875 71.16246032714844 435.3612060546875 69.248046875 437.4815673828125 66.54415893554688 C 438.299560546875 65.50199890136719 438.9813232421875 64.28858947753906 439.06927490234375 62.966827392578125 C 439.1419677734375 61.880279541015625 438.81072998046875 60.81031799316406 438.4271240234375 59.79142761230469 C 437.2213134765625 56.576873779296875 435.2713623046875 53.37896728515625 432.13385009765625 51.98686218261719 C 428.970703125 50.58601379394531 424.936279296875 51.46240234375 422.65240478515625 54.06489562988281 C 420.3685302734375 56.667388916015625 419.9847412109375 60.7728271484375 421.7720947265625 63.74102783203125 L 422.026611328125 63.40791320800781" stroke-width="0.6000000238418579" fill="rgb(140, 28, 33)" opacity="1.0"/>
    <path d="M 120.69888305664062 422.439208984375 C 123.14053344726562 419.4114990234375 125.64781188964844 416.2340087890625 126.59956359863281 412.459716796875 C 127.55126953125 408.685546875 126.47760009765625 404.09344482421875 123.11404418945312 402.1359558105469 C 118.95669555664062 399.7288818359375 113.22299194335938 402.65863037109375 111.37640380859375 407.1028747558594 C 109.52981567382812 411.5471496582031 110.68862915039062 416.70904541015625 112.81466674804688 421.0198974609375 C 113.339111328125 422.4202880859375 114.36940002441406 423.57318115234375 115.70228576660156 424.2510986328125 C 117.07684326171875 424.775390625 119.02423095703125 423.88323974609375 118.96083068847656 422.4061279296875 L 120.69888305664062 422.439208984375" stroke-width="0.6000000238418579" fill="rgb(159, 159, 159)" opacity="1.0"/>
    <path d="M 476.137939453125 444.18603515625 C 477.56884765625 441.0809326171875 477.967041015625 437.4178466796875 476.767578125 434.2181396484375 C 475.5682373046875 431.018310546875 472.6373291015625 428.4083251953125 469.22662353515625 428.0302734375 C 466.8148193359375 427.76611328125 464.36236572265625 428.6116943359375 462.3975830078125 430.03857421875 C 460.4327392578125 431.46551513671875 458.916015625 433.4344482421875 457.7037353515625 435.53900146484375 C 457.1767578125 436.4552001953125 456.6903076171875 437.454345703125 456.735595703125 438.507568359375 C 456.78692626953125 439.715087890625 457.52557373046875 440.770751953125 458.2835693359375 441.7169189453125 C 460.4234619140625 444.3880615234375 463.05419921875 446.83294677734375 466.3203125 447.857177734375 C 469.5865478515625 448.8814697265625 473.574462890625 448.1566162109375 475.6533203125 445.4478759765625 L 476.137939453125 444.18603515625" stroke-width="0.6000000238418579" fill="rgb(159, 159, 159)" opacity="1.0"/>
    <path d="M 452.84210205078125 296.9668273925781 C 452.3553466796875 292.7203369140625 451.6302490234375 288.021240234375 448.3165283203125 285.3347473144531 C 445.0975341796875 282.7175598144531 440.510009765625 282.8663330078125 436.37481689453125 283.22265625 C 434.6951904296875 283.369873046875 432.9403076171875 283.5506591796875 431.5308837890625 284.4743347167969 C 429.1461181640625 286.03515625 428.4508056640625 289.20819091796875 428.40618896484375 292.05377197265625 C 428.36376953125 294.6949768066406 428.7008056640625 297.3285827636719 429.406982421875 299.87396240234375 C 430.5521240234375 304.00738525390625 433.1768798828125 308.2584533691406 437.374755859375 309.13092041015625 C 439.640380859375 309.60528564453125 442.036376953125 308.9889221191406 444.0706787109375 307.8770446777344 C 446.1048583984375 306.76513671875 447.835205078125 305.1779479980469 449.5211181640625 303.5866394042969 C 451.20703125 301.9953918457031 452.8294677734375 300.39569091796875 453.6923828125 298.3036193847656 L 452.84210205078125 296.9668273925781" stroke-width="0.6000000238418579" fill="rgb(218, 166, 20)" opacity="1.0"/>
    <path d="M 425.4072265625 371.5599365234375 C 423.2623291015625 373.5582580566406 423.14349365234375 376.9170227050781 425.141845703125 379.0619201660156 C 425.31292724609375 379.2455749511719 425.496826171875 379.4168701171875 425.6922607421875 379.57452392578125 C 426.4346923828125 380.1733703613281 427.3858642578125 380.5738525390625 428.3330078125 380.4643249511719 C 429.13330078125 380.371826171875 429.849609375 379.93255615234375 430.4864501953125 379.43988037109375 C 432.1893310546875 378.1188049316406 433.50732421875 376.36590576171875 434.3037109375 374.36322021484375 C 434.5133056640625 373.83349609375 434.68743896484375 373.27105712890625 434.64056396484375 372.70208740234375 C 434.5623779296875 371.746826171875 433.863525390625 370.93585205078125 433.04290771484375 370.4393005371094 C 431.82513427734375 369.7012939453125 430.3111572265625 369.5274658203125 428.9176025390625 369.82171630859375 C 427.5240478515625 370.115966796875 426.2470703125 370.8495178222656 425.1832275390625 371.7962646484375 L 425.4072265625 371.5599365234375" stroke-width="0.6000000238418579" fill="rgb(143, 165, 67)" opacity="1.0"/>
    <path d="M 454.2314453125 347.25738525390625 C 460.814697265625 343.9899597167969 460.7161865234375 332.8652038574219 454.3668212890625 329.2585754394531 C 448.0174560546875 325.6519470214844 438.7431640625 330.74725341796875 437.83612060546875 338.0428161621094 C 436.9290771484375 345.3384094238281 443.91217041015625 352.36663818359375 451.2635498046875 352.0413818359375 L 454.2314453125 347.25738525390625" stroke-width="0.6000000238418579" fill="rgb(233, 92, 21)" opacity="1.0"/>
    <path d="M 450.9810791015625 67.36270141601562 C 454.6239013671875 67.18766784667969 458.9571533203125 66.60076904296875 460.55047607421875 63.30641174316406 C 461.133544921875 61.970733642578125 461.2877197265625 60.48701477050781 460.9918212890625 59.059967041015625 C 460.35467529296875 55.509368896484375 458.0361328125 52.48786926269531 454.7713623046875 50.95359802246094 C 451.99853515625 49.659210205078125 448.8524169921875 49.61952209472656 445.81134033203125 49.6517333984375 C 444.10302734375 49.672576904296875 442.2886962890625 49.7491455078125 440.88427734375 50.70530700683594 C 439.022705078125 51.995147705078125 438.4383544921875 54.46978759765625 438.255615234375 56.72645568847656 C 437.984130859375 60.02876281738281 438.2489013671875 63.353240966796875 439.0396728515625 66.57096862792969 C 439.3150634765625 67.68222045898438 439.677734375 68.82669067382812 440.4759521484375 69.64683532714844 C 441.257080078125 70.37144470214844 442.23223876953125 70.85311889648438 443.282470703125 71.0330810546875 C 446.4468994140625 71.70295715332031 449.745849609375 70.95094299316406 452.307373046875 68.975830078125 L 450.9810791015625 67.36270141601562" stroke-width="0.6000000238418579" fill="rgb(70, 150, 179)" opacity="1.0"/>
    <path d="M 456.83203125 402.4441223144531 C 456.700927734375 399.46881103515625 456.4306640625 396.1763916015625 454.27099609375 394.1284484863281 C 451.94970703125 391.92987060546875 448.1712646484375 392.0298156738281 445.2806396484375 393.3959655761719 C 444.16595458984375 393.9222106933594 443.0931396484375 394.6476745605469 442.4693603515625 395.7107238769531 C 441.95623779296875 396.58441162109375 441.7860107421875 397.612548828125 441.6806640625 398.62005615234375 C 441.3446044921875 401.79681396484375 441.634521484375 405.2697448730469 443.66485595703125 407.735107421875 C 445.712890625 410.2184143066406 449.43450927734375 411.1701354980469 452.4188232421875 409.95648193359375 C 455.4031982421875 408.7428283691406 457.43292236328125 405.48712158203125 457.1824951171875 402.2730407714844 L 456.83203125 402.4441223144531" stroke-width="0.6000000238418579" fill="rgb(140, 28, 33)" opacity="1.0"/>
    <path d="M 124.95465087890625 211.16943359375 C 119.81549072265625 214.98046875 114.50994873046875 219.002685546875 111.43423461914062 224.61822509765625 C 108.35859680175781 230.233642578125 108.16946411132812 237.9886474609375 112.71527099609375 242.49578857421875 C 118.33900451660156 248.046875 128.6789093017578 245.75299072265625 133.456298828125 239.44073486328125 C 138.2336883544922 233.12847900390625 138.5228729248047 224.43112182617188 136.9202880859375 216.68878173828125 C 136.66432189941406 214.24237060546875 135.50064086914062 211.98092651367188 133.6588134765625 210.35061645507812 C 131.68714904785156 208.94757080078125 128.21786499023438 209.56280517578125 127.70811462402344 211.940673828125 L 124.95465087890625 211.16943359375" stroke-width="0.6000000238418579" fill="rgb(159, 159, 159)" opacity="1.0"/>
    <path d="M 107.6044921875 241.36151123046875 C 102.33441162109375 240.15707397460938 96.536865234375 240.73199462890625 91.97561645507812 243.62835693359375 C 87.41436767578125 246.52471923828125 84.32865905761719 251.9085693359375 84.85282897949219 257.3091735839844 C 85.22825622558594 261.1269836425781 87.3341064453125 264.6469421386719 90.18099975585938 267.2232666015625 C 93.02789306640625 269.79962158203125 96.56770324707031 271.5063171386719 100.21844482421875 272.69775390625 C 101.80746459960938 273.2153015136719 103.51171875 273.6431579589844 105.12673950195312 273.2306213378906 C 106.97854614257812 272.7585144042969 108.37193298339844 271.27227783203125 109.58949279785156 269.7917785644531 C 113.02687072753906 265.6120300292969 115.95462036132812 260.7462463378906 116.4775390625 255.35922241210938 C 117.00044250488281 249.97216796875 114.58206176757812 244.0369873046875 109.71463012695312 241.70108032226562 L 107.6044921875 241.36151123046875" stroke-width="0.6000000238418579" fill="rgb(159, 159, 159)" opacity="1.0"/>
    <path d="M 291.36651611328125 93.17660522460938 C 289.0250244140625 98.13259887695312 286.6370544433594 103.74285888671875 288.4306945800781 108.91104125976562 C 290.1679382324219 113.93955993652344 295.26690673828125 116.87997436523438 300.0133972167969 119.28837585449219 C 301.9430236816406 120.263916015625 303.977294921875 121.25372314453125 306.13763427734375 121.20053100585938 C 309.7915344238281 121.11273193359375 312.69500732421875 118.12579345703125 314.6680908203125 115.05551147460938 C 316.50054931640625 112.20649719238281 317.9144287109375 109.10910034179688 318.8664245605469 105.85818481445312 C 320.41412353515625 100.58012390136719 320.4292907714844 94.17326354980469 316.4455261230469 90.38363647460938 C 314.2978210449219 88.33460998535156 311.2703857421875 87.38571166992188 308.302001953125 87.221435546875 C 305.3336181640625 87.05717468261719 302.3749084472656 87.61628723144531 299.46185302734375 88.20991516113281 C 296.548828125 88.80352783203125 293.6991882324219 89.44923400878906 291.3441467285156 91.14501953125 L 291.36651611328125 93.17660522460938" stroke-width="0.6000000238418579" fill="rgb(218, 166, 20)" opacity="1.0"/>
    <path d="M 227.67755126953125 121.17892456054688 C 221.09014892578125 114.22322082519531 210.111328125 113.92462158203125 203.15557861328125 120.51199340820312 C 202.55996704101562 121.07608032226562 202.005126953125 121.68170166015625 201.49520874023438 122.32431030273438 C 199.55810546875 124.76640319824219 198.27484130859375 127.885498046875 198.6580810546875 130.9774169921875 C 198.981689453125 133.59036254882812 200.43624877929688 135.91941833496094 202.06317138671875 137.9873046875 C 206.42559814453125 143.51649475097656 212.18896484375 147.77676391601562 218.7545166015625 150.32557678222656 C 220.49111938476562 150.99636840820312 222.333740234375 151.55044555664062 224.1917724609375 151.38204956054688 C 227.31118774414062 151.10116577148438 229.94268798828125 148.79559326171875 231.5433349609375 146.10086059570312 C 233.9224853515625 142.10179138183594 234.4500732421875 137.14967346191406 233.45135498046875 132.60377502441406 C 232.45263671875 128.05789184570312 230.02142333984375 123.90451049804688 226.8992919921875 120.4532470703125 L 227.67755126953125 121.17892456054688" stroke-width="0.6000000238418579" fill="rgb(143, 165, 67)" opacity="1.0"/>
    <path d="M 211.97601318359375 90.6473388671875 C 212.867919921875 101.68072509765625 228.48284912109375 107.75848388671875 237.07489013671875 100.89288330078125 C 245.66683959960938 94.02725219726562 243.72186279296875 78.20870971679688 234.0245361328125 72.86387634277344 C 224.32717895507812 67.51904296875 210.59539794921875 73.35934448242188 206.9429931640625 83.8232421875 L 211.97601318359375 90.6473388671875" stroke-width="0.6000000238418579" fill="rgb(233, 92, 21)" opacity="1.0"/>
    <path d="M 203.50823974609375 96.19947814941406 C 200.63406372070312 91.15283203125 196.67739868164062 85.42256164550781 190.8509521484375 85.53445434570312 C 188.53402709960938 85.66921997070312 186.31597900390625 86.51962280273438 184.50283813476562 87.96841430664062 C 179.92022705078125 91.43232727050781 177.30084228515625 96.90252685546875 177.47528076171875 102.64437866210938 C 177.6357421875 107.5146484375 179.84701538085938 112.01080322265625 182.08465576171875 116.30598449707031 C 183.34555053710938 118.71672058105469 184.761962890625 121.23786926269531 187.13201904296875 122.54304504394531 C 190.30532836914062 124.25682067871094 194.24053955078125 123.30294799804688 197.57672119140625 121.93588256835938 C 202.46173095703125 119.94126892089844 206.99169921875 117.16912841796875 210.99090576171875 113.72698974609375 C 212.37039184570312 112.53500366210938 213.734130859375 111.19509887695312 214.32342529296875 109.47052001953125 C 214.78936767578125 107.83895874023438 214.77044677734375 106.1070556640625 214.26907348632812 104.48603820800781 C 212.93948364257812 99.50970458984375 209.49380493164062 95.36712646484375 204.8428955078125 93.15338134765625 L 203.50823974609375 96.19947814941406" stroke-width="0.6000000238418579" fill="rgb(70, 150, 179)" opacity="1.0"/>
    <path d="M 258.16778564453125 129.43804931640625 C 253.23587036132812 131.27603149414062 247.84637451171875 133.52037048339844 245.57672119140625 138.26539611816406 C 243.14166259765625 143.36407470703125 245.364013671875 149.66354370117188 249.23275756835938 153.78150939941406 C 250.72369384765625 155.369873046875 252.52682495117188 156.77935791015625 254.653564453125 157.25042724609375 C 256.40167236328125 157.63827514648438 258.22314453125 157.36553955078125 259.974609375 156.9949951171875 C 265.4992370605469 155.8330535888672 271.1815490722656 153.4573974609375 274.2234191894531 148.70289611816406 C 277.28582763671875 143.90896606445312 276.8628845214844 137.1334228515625 273.1995544433594 132.77484130859375 C 269.5362243652344 128.416259765625 262.9580993652344 126.77317810058594 257.68951416015625 128.94161987304688 L 258.16778564453125 129.43804931640625" stroke-width="0.6000000238418579" fill="rgb(140, 28, 33)" opacity="1.0"/>
    <path d="M 296.0029602050781 121.58633422851562 C 290.4478759765625 124.49151611328125 284.69952392578125 127.57575988769531 280.86651611328125 132.5420379638672 C 277.0335693359375 137.5082550048828 275.66827392578125 144.9853515625 279.3809814453125 150.040771484375 C 283.97784423828125 156.27093505859375 294.33538818359375 155.6269989013672 299.9216613769531 150.24575805664062 C 305.5079040527344 144.86453247070312 307.11370849609375 136.49058532714844 306.7428894042969 128.75259399414062 C 306.86810302734375 126.34573364257812 306.0865478515625 123.9794921875 304.5523986816406 122.12075805664062 C 302.85797119140625 120.46221923828125 299.40631103515625 120.52879333496094 298.5504150390625 122.75259399414062 L 296.0029602050781 121.58633422851562" stroke-width="0.6000000238418579" fill="rgb(159, 159, 159)" opacity="1.0"/>
    <path d="M 196.98968505859375 133.75967407226562 C 193.485595703125 128.92532348632812 188.24887084960938 125.18621826171875 182.35113525390625 124.27578735351562 C 176.45339965820312 123.3653564453125 169.97271728515625 125.59564208984375 166.48016357421875 130.46551513671875 C 164.01522827148438 133.9116973876953 163.2052001953125 138.36900329589844 163.6973876953125 142.58102416992188 C 164.1895751953125 146.79306030273438 165.8902587890625 150.78628540039062 168.05792236328125 154.4319610595703 C 169.00216674804688 156.01791381835938 170.107421875 157.6131591796875 171.74978637695312 158.44500732421875 C 173.63226318359375 159.3995361328125 175.87139892578125 159.17779541015625 177.96023559570312 158.8328857421875 C 183.85739135742188 157.85919189453125 189.8299560546875 155.94461059570312 194.18292236328125 151.84762573242188 C 198.535888671875 147.7506103515625 200.84295654296875 141.05860900878906 198.49652099609375 135.5767364501953 L 196.98968505859375 133.75967407226562" stroke-width="0.6000000238418579" fill="rgb(159, 159, 159)" opacity="1.0"/>
    <path d="M 276.1982116699219 98.16683959960938 C 270.7649230957031 98.51046752929688 264.74041748046875 99.12777709960938 261.1080017089844 103.16865539550781 C 257.5699462890625 107.09344482421875 257.4614562988281 112.93861389160156 257.64630126953125 118.22187805175781 C 257.72454833984375 120.36801147460938 257.84063720703125 122.61196899414062 258.9241027832031 124.46479797363281 C 260.7547607421875 127.599609375 264.745849609375 128.69000244140625 268.3626708984375 128.9314422607422 C 271.7196350097656 129.15682983398438 275.091552734375 128.89903259277344 278.3752136230469 128.16592407226562 C 283.7074279785156 126.97750854492188 289.2852783203125 123.91461181640625 290.6675720214844 118.63137817382812 C 291.4179992675781 115.78022766113281 290.78948974609375 112.69235229492188 289.50714111328125 110.03256225585938 C 288.22479248046875 107.37278747558594 286.318115234375 105.06869506835938 284.4033508300781 102.82090759277344 C 282.4886169433594 100.5731201171875 280.55902099609375 98.40544128417969 277.953857421875 97.17198181152344 L 276.1982116699219 98.16683959960938" stroke-width="0.6000000238418579" fill="rgb(218, 166, 20)" opacity="1.0"/>
    <path d="M 229.79959106445312 115.42633056640625 C 229.35162353515625 124.13253784179688 236.0462646484375 131.55345153808594 244.75250244140625 132.00140380859375 C 245.49798583984375 132.03976440429688 246.24530029296875 132.02517700195312 246.98876953125 131.95777893066406 C 249.81365966796875 131.701171875 252.6741943359375 130.5888214111328 254.47076416015625 128.39553833007812 C 255.98919677734375 126.54219055175781 256.6106872558594 124.12188720703125 256.9519348144531 121.75199890136719 C 257.8565979003906 115.40713500976562 257.0458679199219 108.93576049804688 254.60400390625 103.01010131835938 C 253.95590209960938 101.44488525390625 253.16436767578125 99.883056640625 251.88711547851562 98.76458740234375 C 249.7440185546875 96.88565063476562 246.57318115234375 96.59906005859375 243.79302978515625 97.23593139648438 C 239.66482543945312 98.17860412597656 236.0709228515625 100.93942260742188 233.70272827148438 104.45088195800781 C 231.33453369140625 107.96232604980469 230.12411499023438 112.17120361328125 229.80996704101562 116.39456176757812 L 229.79959106445312 115.42633056640625" stroke-width="0.6000000238418579" fill="rgb(143, 165, 67)" opacity="1.0"/>
    <path d="M 251.99673461914062 85.27806091308594 C 252.41571044921875 96.13525390625 267.4781188964844 102.7406005859375 276.1877746582031 96.3624267578125 C 284.89739990234375 89.9842529296875 283.6433410644531 74.39080810546875 274.35400390625 68.7486572265625 C 265.0646667480469 63.10650634765625 251.3568115234375 68.26687622070312 247.3427734375 78.37786865234375 L 251.99673461914062 85.27806091308594" stroke-width="0.6000000238418579" fill="rgb(233, 92, 21)" opacity="1.0"/>
    <path d="M 337.7662658691406 70.9697265625 C 335.2504577636719 66.11160278320312 331.7414245605469 60.56938171386719 326.2530517578125 60.455902099609375 C 324.0671691894531 60.495758056640625 321.9474792480469 61.212890625 320.18646240234375 62.50848388671875 C 315.74298095703125 65.59683227539062 313.072021484375 70.64730834960938 313.0205993652344 76.05839538574219 C 312.98876953125 80.64859008789062 314.9012756347656 84.96365356445312 316.84619140625 89.09054565429688 C 317.9424743652344 91.40701293945312 319.1809997558594 93.833251953125 321.3628234863281 95.1507568359375 C 324.2853698730469 96.88302612304688 328.0251770019531 96.13296508789062 331.21673583984375 94.97148132324219 C 335.8896789550781 93.27749633789062 340.25762939453125 90.83831787109375 344.1511535644531 87.74856567382812 C 345.494384765625 86.67840576171875 346.8283386230469 85.46841430664062 347.4477844238281 83.86727905273438 C 347.9476013183594 82.34906005859375 347.9948425292969 80.71820068359375 347.58380126953125 79.173583984375 C 346.5191650390625 74.43966674804688 343.4314880371094 70.41104125976562 339.13690185546875 68.15267944335938 L 337.7662658691406 70.9697265625" stroke-width="0.6000000238418579" fill="rgb(70, 150, 179)" opacity="1.0"/>
    <path d="M 336.0165100097656 137.6928253173828 C 336.4723815917969 132.11965942382812 336.74365234375 125.92312622070312 333.2025451660156 121.60011291503906 C 329.39581298828125 116.95852661132812 322.33380126953125 116.25570678710938 316.6278991699219 118.12042236328125 C 314.4276428222656 118.83843994140625 312.2586364746094 119.93740844726562 310.8465270996094 121.77084350585938 C 309.68511962890625 123.277587890625 309.1261291503906 125.15275573730469 308.69281005859375 127.00469970703125 C 307.3193359375 132.8431854248047 307.0423583984375 139.3806610107422 310.2443542480469 144.45077514648438 C 313.47503662109375 149.55844116210938 320.18365478515625 152.20687866210938 326.0283508300781 150.6482696533203 C 331.8730773925781 149.0896759033203 336.4199523925781 143.50262451171875 336.709716796875 137.45660400390625 L 336.0165100097656 137.6928253173828" stroke-width="0.6000000238418579" fill="rgb(140, 28, 33)" opacity="1.0"/>
    <path d="M 347.7322692871094 98.2078857421875 C 342.20849609375 96.49894714355469 336.44189453125 94.78160095214844 330.7056579589844 95.540771484375 C 324.9695129394531 96.29998779296875 319.2165222167969 100.30621337890625 318.36083984375 106.02777099609375 C 317.3203430175781 113.09278869628906 324.5175476074219 119.40281677246094 331.6709289550781 119.51150512695312 C 338.82427978515625 119.62019348144531 345.3175354003906 115.18328857421875 350.1038513183594 109.87799072265625 C 351.7500305175781 108.38414001464844 352.7763671875 106.32756042480469 352.9803161621094 104.114013671875 C 352.9492492675781 101.92730712890625 350.64697265625 99.72761535644531 348.64154052734375 100.62680053710938 L 347.7322692871094 98.2078857421875" stroke-width="0.6000000238418579" fill="rgb(159, 159, 159)" opacity="1.0"/>
    <path d="M 346.0856018066406 117.64544677734375 C 341.5142517089844 120.40032958984375 337.7872009277344 124.78143310546875 336.529541015625 129.96554565429688 C 335.27191162109375 135.14967346191406 336.76751708984375 141.09091186523438 340.8405456542969 144.5706024169922 C 343.72332763671875 147.02713012695312 347.632080078125 148.0862579345703 351.4209899902344 147.96688842773438 C 355.20989990234375 147.84754943847656 358.8954772949219 146.63522338867188 362.3068542480469 144.98065185546875 C 363.79095458984375 144.25973510742188 365.2955322265625 143.3961181640625 366.1608581542969 141.9962921142578 C 367.1536865234375 140.39187622070312 367.1257629394531 138.3806915283203 366.976806640625 136.4940643310547 C 366.55621337890625 131.16773986816406 365.30328369140625 125.7030029296875 361.9838562011719 121.5155029296875 C 358.66436767578125 117.3280029296875 352.87860107421875 114.76622009277344 347.81817626953125 116.44094848632812 L 346.0856018066406 117.64544677734375" stroke-width="0.6000000238418579" fill="rgb(159, 159, 159)" opacity="1.0"/>
    <path d="M 366.21307373046875 90.91380310058594 C 361.49468994140625 91.82498168945312 356.2894592285156 93.04220581054688 353.5631103515625 96.98812866210938 C 350.9063415527344 100.82182312011719 351.46795654296875 105.95158386230469 352.2232666015625 110.55644226074219 C 352.5328674316406 112.42665100097656 352.8865661621094 114.37823486328125 354.0433044433594 115.87872314453125 C 355.99822998046875 118.41769409179688 359.614990234375 118.92401123046875 362.8087463378906 118.7291259765625 C 365.7731628417969 118.54937744140625 368.6963806152344 117.94486999511719 371.48895263671875 116.93417358398438 C 376.0239562988281 115.29470825195312 380.5634460449219 111.98648071289062 381.18017578125 107.20561218261719 C 381.51690673828125 104.62506103515625 380.6197814941406 101.99215698242188 379.1982727050781 99.80751037597656 C 377.7767639160156 97.62284851074219 375.84857177734375 95.81976318359375 373.919677734375 94.06684875488281 C 371.99078369140625 92.31393432617188 370.057861328125 90.63284301757812 367.638427734375 89.84556579589844 L 366.21307373046875 90.91380310058594" stroke-width="0.6000000238418579" fill="rgb(218, 166, 20)" opacity="1.0"/>
    <path d="M 429.03411865234375 137.92784118652344 C 420.8359375 138.52667236328125 414.6754150390625 145.65806579589844 415.2742919921875 153.8562469482422 C 415.3255615234375 154.55825805664062 415.426513671875 155.25575256347656 415.5765380859375 155.9434814453125 C 416.14691162109375 158.55657958984375 417.5220947265625 161.1029052734375 419.7843017578125 162.52740478515625 C 421.6959228515625 163.73138427734375 424.0330810546875 164.0299072265625 426.290283203125 164.07208251953125 C 432.33251953125 164.1766357421875 438.2926025390625 162.66146850585938 443.55133056640625 159.68392944335938 C 444.9400634765625 158.89453125 446.3087158203125 157.9713134765625 447.2059326171875 156.64553833007812 C 448.71331787109375 154.42068481445312 448.6107177734375 151.4204559326172 447.6898193359375 148.89370727539062 C 446.3250732421875 145.14144897460938 443.32177734375 142.1016845703125 439.75946044921875 140.29647827148438 C 436.1971435546875 138.49127197265625 432.11767578125 137.85089111328125 428.12939453125 138.05075073242188 L 429.03411865234375 137.92784118652344" stroke-width="0.6000000238418579" fill="rgb(143, 165, 67)" opacity="1.0"/>
    <path d="M 151.5175018310547 403.8101501464844 C 157.57342529296875 411.6477355957031 172.2493896484375 408.5807800292969 175.33966064453125 399.2376708984375 C 178.42987060546875 389.8945617675781 169.24789428710938 378.9831237792969 159.366943359375 379.7102966308594 C 149.4860076904297 380.4374694824219 142.04122924804688 391.5213623046875 144.41171264648438 401.1507263183594 L 151.5175018310547 403.8101501464844" stroke-width="0.6000000238418579" fill="rgb(233, 92, 21)" opacity="1.0"/>
    <path d="M 429.1600341796875 197.38543701171875 C 424.82421875 195.1517333984375 419.4134521484375 192.93313598632812 415.3648681640625 195.68258666992188 C 413.7962646484375 196.83944702148438 412.625244140625 198.45452880859375 412.0135498046875 200.30511474609375 C 410.37664794921875 204.8431396484375 411.0408630371094 209.89306640625 413.7955322265625 213.85345458984375 C 416.140869140625 217.20697021484375 419.7578125 219.357177734375 423.30120849609375 221.35391235351562 C 425.29345703125 222.4722900390625 427.44580078125 223.59710693359375 429.7117919921875 223.42913818359375 C 432.7303466796875 223.18051147460938 435.06219482421875 220.70550537109375 436.78314208984375 218.21429443359375 C 439.3062744140625 214.57159423828125 441.2232666015625 210.54446411132812 442.4595947265625 206.2891845703125 C 442.8839111328125 204.81808471679688 443.2293701171875 203.2501220703125 442.853515625 201.76644897460938 C 442.4334716796875 200.40481567382812 441.6263427734375 199.19479370117188 440.530517578125 198.283935546875 C 437.3138427734375 195.39169311523438 432.9903564453125 194.05609130859375 428.702880859375 194.63021850585938 L 429.1600341796875 197.38543701171875" stroke-width="0.6000000238418579" fill="rgb(70, 150, 179)" opacity="1.0"/>
    <path d="M 415.656494140625 160.61474609375 C 415.12774658203125 154.82904052734375 414.2987060546875 148.43826293945312 409.9021911621094 144.64599609375 C 405.17694091796875 140.57508850097656 397.8232421875 141.1170196533203 392.316162109375 144.04466247558594 C 390.1923828125 145.17254638671875 388.16864013671875 146.6847381591797 387.0507507324219 148.81350708007812 C 386.131103515625 150.56312561035156 385.8938903808594 152.58226013183594 385.7811279296875 154.55516052246094 C 385.4180908203125 160.77630615234375 386.30218505859375 167.51702880859375 390.48504638671875 172.13455200195312 C 394.7039489746094 176.785400390625 402.0433654785156 178.2979736328125 407.7472229003906 175.65884399414062 C 413.4510498046875 173.01971435546875 417.1070556640625 166.4891357421875 416.3238525390625 160.2491455078125 L 415.656494140625 160.61474609375" stroke-width="0.6000000238418579" fill="rgb(140, 28, 33)" opacity="1.0"/>
    <path d="M 144.42677307128906 132.39154052734375 C 138.16021728515625 133.4442596435547 131.65110778808594 134.60874938964844 126.3958740234375 138.1890869140625 C 121.14071655273438 141.7694091796875 117.47390747070312 148.5452117919922 119.46188354492188 154.58421325683594 C 121.9324951171875 162.03323364257812 132.1157684326172 164.669677734375 139.1909637451172 161.24078369140625 C 146.2661590576172 157.8118896484375 150.4467315673828 150.24746704101562 152.5226287841797 142.67433166503906 C 153.40011596679688 140.39437866210938 153.39105224609375 137.86843872070312 152.4971923828125 135.59490966796875 C 151.38592529296875 133.46388244628906 148.0388641357422 132.44265747070312 146.5148468017578 134.31643676757812 L 144.42677307128906 132.39154052734375" stroke-width="0.6000000238418579" fill="rgb(159, 159, 159)" opacity="1.0"/>
    <path d="M 435.546630859375 166.99957275390625 C 431.1312255859375 164.4688720703125 425.75262451171875 163.3958740234375 420.85040283203125 164.7525634765625 C 415.9481201171875 166.10931396484375 411.692138671875 170.11093139648438 410.68231201171875 175.11813354492188 C 409.97283935546875 178.6591796875 410.90338134765625 182.40679931640625 412.7601318359375 185.50802612304688 C 414.616943359375 188.6092529296875 417.33636474609375 191.117431640625 420.29705810546875 193.19207763671875 C 421.58599853515625 194.0941162109375 423.0032958984375 194.94705200195312 424.5709228515625 195.01870727539062 C 426.3680419921875 195.1016845703125 428.0306396484375 194.14559936523438 429.5333251953125 193.14645385742188 C 433.775634765625 190.32562255859375 437.7471923828125 186.7471923828125 439.6962890625 182.03952026367188 C 441.645263671875 177.33184814453125 441.09600830078125 171.32345581054688 437.3536376953125 167.88433837890625 L 435.546630859375 166.99957275390625" stroke-width="0.6000000238418579" fill="rgb(159, 159, 159)" opacity="1.0"/>
    <path d="M 414.9820556640625 194.17514038085938 C 413.8212890625 188.58721923828125 412.28887939453125 182.42626953125 407.5575256347656 179.25457763671875 C 402.9606018066406 176.16363525390625 396.8783264160156 176.91622924804688 391.4226379394531 177.89007568359375 C 389.2069091796875 178.2889404296875 386.895263671875 178.7415771484375 385.13275146484375 180.1402587890625 C 382.15032958984375 182.504150390625 381.6094665527344 186.80755615234375 381.89422607421875 190.596923828125 C 382.1571960449219 194.11419677734375 382.923828125 197.575439453125 384.17071533203125 200.87481689453125 C 386.19329833984375 206.23275756835938 390.1976318359375 211.5682373046875 395.8852844238281 212.22076416015625 C 398.9553527832031 212.57757568359375 402.06695556640625 211.46826171875 404.6375427246094 209.74371337890625 C 407.2080993652344 208.0191650390625 409.3171081542969 205.6993408203125 411.3664855957031 203.37945556640625 C 413.4158935546875 201.05960083007812 415.3798828125 198.7362060546875 416.2744140625 195.84991455078125 L 414.9820556640625 194.17514038085938" stroke-width="0.6000000238418579" fill="rgb(218, 166, 20)" opacity="1.0"/>
    <path d="M 438.9945068359375 188.79904174804688 C 439.19329833984375 197.365966796875 446.29931640625 204.149658203125 454.8662109375 203.95086669921875 C 455.599853515625 203.93386840820312 456.331298828125 203.86480712890625 457.05511474609375 203.74429321289062 C 459.805419921875 203.2857666015625 462.52783203125 201.98583984375 464.12823486328125 199.70425415039062 C 465.4808349609375 197.77630615234375 465.9127197265625 195.35830688476562 466.0736083984375 193.01025390625 C 466.4954833984375 186.72454833984375 465.22662353515625 180.44049072265625 462.39886474609375 174.81088256835938 C 461.64892578125 173.3240966796875 460.758544921875 171.85113525390625 459.42462158203125 170.84835815429688 C 457.18621826171875 169.16357421875 454.05706787109375 169.114990234375 451.3785400390625 169.94296264648438 C 447.4010009765625 171.16946411132812 444.0804443359375 174.1390380859375 442.016357421875 177.75457763671875 C 439.9522705078125 181.3701171875 439.0740966796875 185.58447265625 439.07562255859375 189.74737548828125 L 438.9945068359375 188.79904174804688" stroke-width="0.6000000238418579" fill="rgb(143, 165, 67)" opacity="1.0"/>
    <path d="M 144.35299682617188 96.37728881835938 C 133.34121704101562 104.6370849609375 137.3115234375 125.09231567382812 150.23365783691406 129.5723419189453 C 163.15582275390625 134.05230712890625 178.501220703125 121.509521484375 177.68707275390625 107.76412963867188 C 176.8729248046875 94.01873779296875 161.6182861328125 83.45291137695312 148.18984985351562 86.5556640625 L 144.35299682617188 96.37728881835938" stroke-width="0.6000000238418579" fill="rgb(233, 92, 21)" opacity="1.0"/>
    <path d="M 450.541748046875 147.6145782470703 C 446.4447021484375 152.0184326171875 442.00732421875 157.703857421875 443.92291259765625 163.42730712890625 C 444.77386474609375 165.67532348632812 446.3013916015625 167.60391235351562 448.294921875 168.94696044921875 C 453.1378173828125 172.40274047851562 459.3553466796875 173.29681396484375 464.975830078125 171.34564208984375 C 469.7392578125 169.67831420898438 473.4976806640625 166.10012817382812 477.04925537109375 162.55810546875 C 479.0411376953125 160.565185546875 481.0938720703125 158.38433837890625 481.6495361328125 155.63778686523438 C 482.36016845703125 151.97076416015625 480.19842529296875 148.37722778320312 477.8138427734375 145.50367736816406 C 474.329345703125 141.2938690185547 470.1864013671875 137.67581176757812 465.545654296875 134.7898406982422 C 463.9403076171875 133.7957763671875 462.19366455078125 132.8631134033203 460.3067626953125 132.81497192382812 C 458.54998779296875 132.85997009277344 456.84423828125 133.4151611328125 455.3975830078125 134.412841796875 C 450.8914794921875 137.26846313476562 447.86492919921875 141.95704650878906 447.117919921875 147.23922729492188 L 450.541748046875 147.6145782470703" stroke-width="0.6000000238418579" fill="rgb(70, 150, 179)" opacity="1.0"/>
    <path d="M 381.2622375488281 80.9813232421875 C 382.0604553222656 74.5277099609375 382.67425537109375 67.34088134765625 378.76806640625 62.147247314453125 C 374.568603515625 56.57066345214844 366.39697265625 55.41375732421875 359.67730712890625 57.30546569824219 C 357.086181640625 58.033721923828125 354.5130310058594 59.20611572265625 352.783935546875 61.26837158203125 C 351.3618469238281 62.963134765625 350.62200927734375 65.11500549316406 350.029296875 67.24594116210938 C 348.1520690917969 73.96360778808594 347.51519775390625 81.54629516601562 350.99139404296875 87.59165954589844 C 354.49908447265625 93.68203735351562 362.16632080078125 97.08258056640625 369.03253173828125 95.55323791503906 C 375.89874267578125 94.02389526367188 381.4510498046875 87.75128173828125 382.0790710449219 80.740234375 L 381.2622375488281 80.9813232421875" stroke-width="0.6000000238418579" fill="rgb(140, 28, 33)" opacity="1.0"/>
    <path d="M 132.38009643554688 409.66973876953125 C 128.31259155273438 415.84490966796875 124.14820861816406 422.31536865234375 123.03630065917969 429.631103515625 C 121.9244384765625 436.94671630859375 124.7945556640625 445.44024658203125 131.51673889160156 448.5302734375 C 139.8230743408203 452.32611083984375 150.1379852294922 445.73541259765625 152.82086181640625 436.98846435546875 C 155.50372314453125 428.24151611328125 152.36849975585938 418.685302734375 147.5583953857422 410.9161071777344 C 146.3103485107422 408.36187744140625 144.15025329589844 406.368408203125 141.50428771972656 405.32904052734375 C 138.8075408935547 404.5878601074219 135.28538513183594 406.6315612792969 135.67503356933594 409.4150390625 L 132.38009643554688 409.66973876953125" stroke-width="0.6000000238418579" fill="rgb(159, 159, 159)" opacity="1.0"/>
    <path d="M 419.4700927734375 220.09609985351562 C 414.445068359375 215.37991333007812 407.69476318359375 212.28265380859375 400.81146240234375 212.53564453125 C 393.92816162109375 212.78863525390625 387.0683898925781 216.728515625 384.170654296875 223.00933837890625 C 382.1275329589844 227.4525146484375 382.18048095703125 232.68124389648438 383.6560363769531 237.34823608398438 C 385.131591796875 242.0152587890625 387.9292907714844 246.17092895507812 391.1805419921875 249.8309326171875 C 392.59637451171875 251.4228515625 394.1966857910156 252.990234375 396.239501953125 253.57528686523438 C 398.58123779296875 254.24713134765625 401.0709228515625 253.50790405273438 403.3634033203125 252.66192626953125 C 409.8355407714844 250.2734375 416.18817138671875 246.80206298828125 420.2294921875 241.2098388671875 C 424.2708740234375 235.61761474609375 425.42791748046875 227.52975463867188 421.573974609375 221.827392578125 L 419.4700927734375 220.09609985351562" stroke-width="0.6000000238418579" fill="rgb(159, 159, 159)" opacity="1.0"/>
    <path d="M 385.46868896484375 111.96914672851562 C 379.5402526855469 112.85244750976562 372.98876953125 114.09109497070312 369.3805236816406 118.862548828125 C 365.86492919921875 123.49786376953125 366.2906188964844 129.92025756835938 366.98577880859375 135.6988983154297 C 367.2716064453125 138.0459747314453 367.60809326171875 140.49681091308594 368.9693603515625 142.42845153808594 C 371.2697448730469 145.69680786132812 375.74969482421875 146.52105712890625 379.73992919921875 146.4488525390625 C 383.443603515625 146.38328552246094 387.11865234375 145.78622436523438 390.652587890625 144.67599487304688 C 396.3913879394531 142.87535095214844 402.2250061035156 138.99546813964844 403.2490539550781 133.07080078125 C 403.80657958984375 129.87310791015625 402.829345703125 126.54420471191406 401.1747131347656 123.745849609375 C 399.5200500488281 120.947509765625 397.2136535644531 118.59756469726562 394.9036560058594 116.31011962890625 C 392.5936584472656 114.02267456054688 390.27484130859375 111.82452392578125 387.3019714355469 110.71415710449219 L 385.46868896484375 111.96914672851562" stroke-width="0.6000000238418579" fill="rgb(218, 166, 20)" opacity="1.0"/>
    <path d="M 403.92950439453125 83.20849609375 C 395.9261779785156 77.40481567382812 384.7333679199219 79.18798828125 378.9296875 87.19131469726562 C 378.4327087402344 87.87663269042969 377.9849853515625 88.59634399414062 377.58984375 89.34504699707031 C 376.0890197753906 92.190185546875 375.3800048828125 95.59776306152344 376.3562316894531 98.66116333007812 C 377.1809387207031 101.25001525878906 379.098876953125 103.3360595703125 381.1419982910156 105.12443542480469 C 386.6174621582031 109.90391540527344 393.2728271484375 113.130126953125 400.4167175292969 114.46795654296875 C 402.3056335449219 114.81838989257812 404.2799072265625 115.03030395507812 406.1325378417969 114.50645446777344 C 409.2432861328125 113.62884521484375 411.4743957519531 110.79025268554688 412.5859375 107.75279235839844 C 414.2393798828125 103.24441528320312 413.83355712890625 98.12113952636719 411.956787109375 93.69990539550781 C 410.08001708984375 89.27867126464844 406.8248291015625 85.52777099609375 403.00225830078125 82.62030029296875 L 403.92950439453125 83.20849609375" stroke-width="0.6000000238418579" fill="rgb(143, 165, 67)" opacity="1.0"/>
    <path d="M 120.790283203125 427.107177734375 C 114.29364013671875 416.929443359375 96.1395263671875 419.0498046875 91.36668395996094 430.0562744140625 C 86.59388732910156 441.062744140625 96.55023193359375 455.314208984375 108.62677001953125 455.51080322265625 C 120.70330810546875 455.7073974609375 130.95347595214844 443.0631103515625 129.12733459472656 431.11248779296875 L 120.790283203125 427.107177734375" stroke-width="0.6000000238418579" fill="rgb(233, 92, 21)" opacity="1.0"/>
    <path d="M 448.67236328125 211.20220947265625 C 442.2781982421875 212.54818725585938 434.77984619140625 214.81915283203125 432.8985595703125 221.10000610351562 C 432.2470703125 223.628662109375 432.3963623046875 226.29714965820312 433.3258056640625 228.73736572265625 C 435.4630126953125 234.8369140625 440.42413330078125 239.52218627929688 446.63580322265625 241.30743408203125 C 451.908935546875 242.808349609375 457.485595703125 241.98348999023438 462.85601806640625 241.06134033203125 C 465.8719482421875 240.5384521484375 469.0595703125 239.88687133789062 471.27197265625 237.7958984375 C 474.1981201171875 234.98468017578125 474.5277099609375 230.44088745117188 474.208984375 226.39697265625 C 473.749755859375 220.47808837890625 472.335693359375 214.67254638671875 470.0213623046875 209.20553588867188 C 469.2181396484375 207.318115234375 468.2509765625 205.39678955078125 466.60565185546875 204.17306518554688 C 465.01763916015625 203.11349487304688 463.1556396484375 202.53887939453125 461.24664306640625 202.519287109375 C 455.4583740234375 202.23455810546875 449.8365478515625 204.50338745117188 445.86724853515625 208.72601318359375 L 448.67236328125 211.20220947265625" stroke-width="0.6000000238418579" fill="rgb(70, 150, 179)" opacity="1.0"/>
    <path d="M 428.9949951171875 133.51463317871094 C 430.71142578125 127.61270141601562 432.3660888671875 120.99880981445312 429.5029296875 115.56439208984375 C 426.423828125 109.72845458984375 418.97271728515625 107.41873168945312 412.4176025390625 108.17233276367188 C 409.89007568359375 108.46182250976562 407.3124694824219 109.16845703125 405.3885192871094 110.83251953125 C 403.806396484375 112.19989013671875 402.79205322265625 114.09649658203125 401.91815185546875 115.9957275390625 C 399.1551818847656 121.98162841796875 397.41937255859375 128.96144104003906 399.7530212402344 135.12591552734375 C 402.10931396484375 141.33714294433594 408.7519836425781 145.66455078125 415.3892822265625 145.27113342285156 C 422.02667236328125 144.87771606445312 428.15203857421875 139.86036682128906 429.7935791015625 133.4126434326172 L 428.9949951171875 133.51463317871094" stroke-width="0.6000000238418579" fill="rgb(140, 28, 33)" opacity="1.0"/>
    <path d="M 389.7578430175781 56.96917724609375 C 390.654296875 63.95561218261719 391.6641540527344 71.21551513671875 395.4038391113281 77.19050598144531 C 399.14349365234375 83.16539001464844 406.490966796875 87.51841735839844 413.265625 85.57621765136719 C 421.622802734375 83.16011047363281 424.9810791015625 71.9940185546875 421.4874267578125 64.00967407226562 C 417.9937744140625 56.02532958984375 409.794921875 51.069305419921875 401.495849609375 48.44415283203125 C 399.0082092285156 47.374114990234375 396.2099609375 47.27549743652344 393.6532287597656 48.16778564453125 C 391.2449951171875 49.3070068359375 389.9698486328125 52.970428466796875 391.97979736328125 54.7391357421875 L 389.7578430175781 56.96917724609375" stroke-width="0.6000000238418579" fill="rgb(159, 159, 159)" opacity="1.0"/>
    <path d="M 433.6551513671875 241.94281005859375 C 427.404541015625 244.96548461914062 422.05340576171875 250.19558715820312 419.80517578125 256.76080322265625 C 417.55694580078125 263.32598876953125 418.7847900390625 271.20074462890625 423.6453857421875 276.19464111328125 C 427.0863037109375 279.7210388183594 432.02313232421875 281.559814453125 436.9454345703125 281.857666015625 C 441.8677978515625 282.1555480957031 446.7867431640625 281.0252685546875 451.40338134765625 279.2893371582031 C 453.4119873046875 278.5327453613281 455.464111328125 277.5937194824219 456.752197265625 275.88372802734375 C 458.2298583984375 273.9239807128906 458.433837890625 271.3153991699219 458.4661865234375 268.85369873046875 C 458.5574951171875 261.9039001464844 457.5870361328125 254.67535400390625 453.7872314453125 248.85455322265625 C 449.9873046875 243.03375244140625 442.7984619140625 239.02435302734375 436.0433349609375 240.58941650390625 L 433.6551513671875 241.94281005859375" stroke-width="0.6000000238418579" fill="rgb(159, 159, 159)" opacity="1.0"/>
    <path d="M 417.983154296875 263.6063537597656 C 413.6400146484375 258.54974365234375 408.5934143066406 253.11724853515625 401.96514892578125 252.54754638671875 C 395.5198974609375 251.98443603515625 389.7273254394531 256.1894836425781 384.70025634765625 260.2667541503906 C 382.6604919433594 261.9261169433594 380.5530700683594 263.694580078125 379.5413818359375 266.1199951171875 C 377.827880859375 270.22119140625 379.705810546875 274.9259338378906 382.1374206542969 278.6387939453125 C 384.3930358886719 282.0858459472656 387.1319274902344 285.19110107421875 390.270263671875 287.8595886230469 C 395.36444091796875 292.1943359375 402.4717712402344 295.38665771484375 408.6546630859375 292.8409423828125 C 411.99456787109375 291.47149658203125 414.548828125 288.579833984375 416.2025146484375 285.3648681640625 C 417.856201171875 282.14990234375 418.70172119140625 278.58709716796875 419.486328125 275.05792236328125 C 420.2708740234375 271.5287780761719 420.96624755859375 268.0442199707031 420.25030517578125 264.58843994140625 L 417.983154296875 263.6063537597656" stroke-width="0.6000000238418579" fill="rgb(218, 166, 20)" opacity="1.0"/>
    <path d="M 413.7720947265625 85.88726806640625 C 410.2796936035156 95.57931518554688 415.30548095703125 106.26748657226562 424.99755859375 109.75991821289062 C 425.82745361328125 110.05899047851562 426.6776123046875 110.29878234863281 427.54144287109375 110.4775390625 C 430.8240966796875 111.15615844726562 434.4405517578125 110.8792724609375 437.2244873046875 109.01507568359375 C 439.57720947265625 107.43991088867188 441.110107421875 104.91598510742188 442.30877685546875 102.35295104980469 C 445.50787353515625 95.4879150390625 446.8104248046875 87.89151000976562 446.0811767578125 80.35284423828125 C 445.8851318359375 78.3604736328125 445.52557373046875 76.32278442382812 444.46478271484375 74.61990356445312 C 442.685546875 71.76004028320312 439.197998046875 70.34846496582031 435.8355712890625 70.115234375 C 430.84375 69.76548767089844 425.8326416015625 71.65509033203125 421.9501953125 74.81393432617188 C 418.0677490234375 77.9727783203125 415.2554931640625 82.31741333007812 413.4517822265625 86.98577880859375 L 413.7720947265625 85.88726806640625" stroke-width="0.6000000238418579" fill="rgb(143, 165, 67)" opacity="1.0"/>
    <path d="M 429.14111328125 122.74444580078125 C 426.5726318359375 134.38104248046875 440.721923828125 145.56997680664062 451.733642578125 141.2193603515625 C 462.74530029296875 136.8686981201172 465.74212646484375 119.97479248046875 457.45123291015625 111.41004943847656 C 449.16033935546875 102.84530639648438 433.18310546875 104.51663208007812 426.117919921875 114.13121032714844 L 429.14111328125 122.74444580078125" stroke-width="0.6000000238418579" fill="rgb(233, 92, 21)" opacity="1.0"/>
    <path d="M 448.395751953125 93.61294555664062 C 447.78173828125 99.66928100585938 447.67645263671875 106.96742248535156 452.71929931640625 110.41401672363281 C 454.779541015625 111.70751953125 457.19036865234375 112.32986450195312 459.6192626953125 112.19511413574219 C 465.637939453125 112.02345275878906 471.2000732421875 108.94523620605469 474.54180908203125 103.93658447265625 C 477.3656005859375 99.68060302734375 478.2109375 94.497314453125 478.91162109375 89.46955871582031 C 479.30059814453125 86.64462280273438 479.6239013671875 83.63087463378906 478.393798828125 81.07562255859375 C 476.7261962890625 77.68313598632812 472.7862548828125 76.105224609375 469.1065673828125 75.2442626953125 C 463.72296142578125 73.9775390625 458.1697998046875 73.59053039550781 452.66253662109375 74.0982666015625 C 450.760009765625 74.27737426757812 448.781005859375 74.59234619140625 447.2293701171875 75.70660400390625 C 445.83966064453125 76.81643676757812 444.80291748046875 78.30668640136719 444.2454833984375 79.99557495117188 C 442.35546875 85.05288696289062 442.779052734375 90.68472290039062 445.40435791015625 95.40240478515625 L 448.395751953125 93.61294555664062" stroke-width="0.6000000238418579" fill="rgb(70, 150, 179)" opacity="1.0"/>
    <path d="M 311.5765380859375 365.4708557128906 C 306.47998046875 362.5179138183594 300.70684814453125 359.4587707519531 294.9930114746094 360.8738708496094 C 288.85595703125 362.3976745605469 284.99505615234375 368.7992248535156 284.1900329589844 375.071044921875 C 283.87860107421875 377.4890441894531 283.94378662109375 380.0495300292969 285.0498962402344 382.22186279296875 C 285.9585266113281 384.0079650878906 287.489990234375 385.387451171875 289.05615234375 386.6368713378906 C 293.9903869628906 390.58282470703125 300.0852966308594 393.801513671875 306.3567199707031 393.0467529296875 C 312.67681884765625 392.2817077636719 318.2291564941406 387.0959167480469 319.38818359375 380.83038330078125 C 320.5472106933594 374.5648498535156 317.28668212890625 367.71319580078125 311.6651306152344 364.7044982910156 L 311.5765380859375 365.4708557128906" stroke-width="0.6000000238418579" fill="rgb(140, 28, 33)" opacity="1.0"/>
    <path d="M 299.4900817871094 392.8904724121094 C 292.3978576660156 390.072509765625 284.9869689941406 387.21844482421875 277.36077880859375 387.626220703125 C 269.7347412109375 388.0340270996094 261.75189208984375 392.712646484375 260.0362854003906 400.153076171875 C 257.93902587890625 409.3421936035156 266.759033203125 418.38690185546875 276.16046142578125 419.26715087890625 C 285.5618896484375 420.14739990234375 294.56317138671875 414.9783935546875 301.4079284667969 408.4908142089844 C 303.7279968261719 406.6947937011719 305.2904357910156 404.0944519042969 305.78692626953125 401.20281982421875 C 305.971435546875 398.3222961425781 303.168701171875 395.1905822753906 300.437255859375 396.16705322265625 L 299.4900817871094 392.8904724121094" stroke-width="0.6000000238418579" fill="rgb(159, 159, 159)" opacity="1.0"/>
    <path d="M 323.0232849121094 415.78326416015625 C 317.3999328613281 419.45306396484375 312.91143798828125 425.12945556640625 311.5639343261719 431.70416259765625 C 310.2164306640625 438.27880859375 312.3647155761719 445.6812744140625 317.6426086425781 449.8726806640625 C 321.3778991699219 452.831298828125 326.3401184082031 453.9866943359375 331.0985107421875 453.665771484375 C 335.85693359375 453.34490966796875 340.4361267089844 451.654541015625 344.650634765625 449.42041015625 C 346.484130859375 448.44708251953125 348.3368835449219 447.29345703125 349.36175537109375 445.494384765625 C 350.5376892089844 443.43243408203125 350.4118957519531 440.905029296875 350.1395568847656 438.5396728515625 C 349.3705749511719 431.86187744140625 347.5489196777344 425.04754638671875 343.18658447265625 419.93231201171875 C 338.8242492675781 414.8170166015625 331.4342956542969 411.8569641113281 325.1473693847656 414.19073486328125 L 323.0232849121094 415.78326416015625" stroke-width="0.6000000238418579" fill="rgb(159, 159, 159)" opacity="1.0"/>
    <path d="M 257.02117919921875 413.46478271484375 C 250.31268310546875 413.0889892578125 242.839599609375 412.9619140625 237.79568481445312 417.3809814453125 C 232.8843994140625 421.671630859375 231.89422607421875 428.8184814453125 231.34588623046875 435.31988525390625 C 231.12701416015625 437.9613037109375 230.94015502929688 440.7281494140625 231.99612426757812 443.15753173828125 C 233.77969360351562 447.2674560546875 238.51055908203125 449.18902587890625 242.90728759765625 450.015380859375 C 246.98794555664062 450.783935546875 251.15777587890625 450.9625244140625 255.2891845703125 450.5457763671875 C 261.99774169921875 449.8714599609375 269.2821960449219 446.9361572265625 271.7509460449219 440.6646728515625 C 273.08868408203125 437.2808837890625 272.7713928222656 433.40472412109375 271.5900573730469 429.957275390625 C 270.40869140625 426.50982666015625 268.4101257324219 423.40673828125 266.3934020996094 420.37139892578125 C 264.376708984375 417.3360595703125 262.3300476074219 414.396728515625 259.3185119628906 412.503173828125 L 257.02117919921875 413.46478271484375" stroke-width="0.6000000238418579" fill="rgb(218, 166, 20)" opacity="1.0"/>
    <path d="M 220.73898315429688 416.84771728515625 C 210.63238525390625 412.02978515625 198.53363037109375 416.317138671875 193.7156982421875 426.4237060546875 C 193.30316162109375 427.2891845703125 192.9525146484375 428.18280029296875 192.6663818359375 429.09783935546875 C 191.57992553710938 432.5750732421875 191.490966796875 436.515869140625 193.20806884765625 439.726806640625 C 194.65887451171875 442.4404296875 197.22378540039062 444.36932373046875 199.86691284179688 445.94091796875 C 206.94769287109375 450.137939453125 215.02310180664062 452.362548828125 223.2542724609375 452.383544921875 C 225.43002319335938 452.38543701171875 227.67236328125 452.2154541015625 229.6279296875 451.2510986328125 C 232.911865234375 449.6341552734375 234.81298828125 446.0140380859375 235.4263916015625 442.4027099609375 C 236.34075927734375 437.041748046875 234.83538818359375 431.41943359375 231.83615112304688 426.88140869140625 C 228.8369140625 422.3433837890625 224.44036865234375 418.8353271484375 219.58535766601562 416.38330078125 L 220.73898315429688 416.84771728515625" stroke-width="0.6000000238418579" fill="rgb(143, 165, 67)" opacity="1.0"/>
    <path d="M 265.4896545410156 359.555419921875 C 272.4423828125 371.13250732421875 292.8035888671875 369.31585693359375 298.47552490234375 357.1561279296875 C 304.14739990234375 344.9964294433594 293.4510192871094 328.7593688964844 279.955322265625 328.1710510253906 C 266.4596252441406 327.5827331542969 254.614013671875 341.4064025878906 256.29095458984375 354.8230285644531 L 265.4896545410156 359.555419921875" stroke-width="0.6000000238418579" fill="rgb(233, 92, 21)" opacity="1.0"/>
    <path d="M 331.2261962890625 352.58270263671875 C 326.5061950683594 357.1328430175781 321.3399658203125 363.0576171875 323.0856018066406 369.4001770019531 C 323.8785095214844 371.8972473144531 325.4267272949219 374.08673095703125 327.5167541503906 375.66656494140625 C 332.582763671875 379.714599609375 339.29656982421875 381.05609130859375 345.5291748046875 379.2655944824219 C 350.812255859375 377.73321533203125 355.1147155761719 374.0616455078125 359.1899719238281 370.4171447753906 C 361.47589111328125 368.3662109375 363.8392639160156 366.1143493652344 364.60675048828125 363.1580505371094 C 365.59747314453125 359.20916748046875 363.4576416015625 355.1700744628906 361.03271484375 351.9013671875 C 357.4897766113281 347.1131591796875 353.1952209472656 342.9299621582031 348.3155517578125 339.5140380859375 C 346.6272888183594 338.3370361328125 344.78155517578125 337.2184753417969 342.7308044433594 337.05426025390625 C 340.8161926269531 336.9991455078125 338.9268493652344 337.5022888183594 337.2932434082031 338.5024108886719 C 332.2198791503906 341.3432922363281 328.6481018066406 346.2667236328125 327.5221252441406 351.9713134765625 L 331.2261962890625 352.58270263671875" stroke-width="0.6000000238418579" fill="rgb(70, 150, 179)" opacity="1.0"/>
    <path d="M 295.9842529296875 414.4432373046875 C 288.88519287109375 413.23834228515625 280.9658508300781 412.200927734375 275.0259094238281 416.2628173828125 C 268.647705078125 420.6300048828125 266.96038818359375 429.6116943359375 268.7178039550781 437.13916015625 C 269.3941345214844 440.041748046875 270.56268310546875 442.9466552734375 272.7576904296875 444.962158203125 C 274.56146240234375 446.61981201171875 276.9049072265625 447.5455322265625 279.2325744628906 448.3074951171875 C 286.5699157714844 450.7191162109375 294.9259948730469 451.8017578125 301.7866516113281 448.258056640625 C 308.6986999511719 444.681640625 312.8427429199219 436.369873046875 311.49346923828125 428.6983642578125 C 310.14422607421875 421.0267333984375 303.48248291015625 414.572021484375 295.7583312988281 413.527587890625 L 295.9842529296875 414.4432373046875" stroke-width="0.6000000238418579" fill="rgb(140, 28, 33)" opacity="1.0"/>
    <path d="M 326.7966613769531 385.26104736328125 C 319.2541198730469 386.6581726074219 311.42108154296875 388.195068359375 305.1502380371094 392.6226501464844 C 298.8795166015625 397.0501708984375 294.59039306640625 405.3026123046875 297.1117858886719 412.5516357421875 C 300.244140625 421.4927978515625 312.5886535644531 424.46942138671875 321.05926513671875 420.18792724609375 C 329.52984619140625 415.90643310546875 334.42315673828125 406.6917724609375 336.77593994140625 397.509033203125 C 337.7890625 394.73944091796875 337.7271423339844 391.6907958984375 336.60235595703125 388.96466064453125 C 335.2180480957031 386.4149169921875 331.15753173828125 385.2498474121094 329.3558349609375 387.5422668457031 L 326.7966613769531 385.26104736328125" stroke-width="0.6000000238418579" fill="rgb(159, 159, 159)" opacity="1.0"/>
    <path d="M 361.58642578125 410.35748291015625 C 355.7056579589844 414.4342041015625 351.0935363769531 420.6146240234375 349.8540344238281 427.65826416015625 C 348.6145324707031 434.70196533203125 351.12353515625 442.52325439453125 356.8705749511719 446.83074951171875 C 360.9376525878906 449.87103271484375 366.2579345703125 450.9539794921875 371.317138671875 450.4703369140625 C 376.3763732910156 449.9866943359375 381.2038879394531 448.04962158203125 385.6267395019531 445.544189453125 C 387.5508117675781 444.4527587890625 389.49005126953125 443.168701171875 390.52813720703125 441.2218017578125 C 391.7193298339844 438.990234375 391.5100402832031 436.3017578125 391.1494445800781 433.79022216796875 C 390.13134765625 426.69976806640625 387.9878234863281 419.4952392578125 383.18853759765625 414.17633056640625 C 378.38922119140625 408.857421875 370.4290466308594 405.9244384765625 363.8016052246094 408.5978088378906 L 361.58642578125 410.35748291015625" stroke-width="0.6000000238418579" fill="rgb(159, 159, 159)" opacity="1.0"/>
    <path d="M 253.73931884765625 368.2171630859375 C 254.98477172851562 360.712890625 256.0440673828125 352.31756591796875 251.68890380859375 346.098876953125 C 247.46197509765625 340.04522705078125 239.53961181640625 338.05450439453125 232.28961181640625 336.6402282714844 C 229.34356689453125 336.0700378417969 226.25244140625 335.5205078125 223.388671875 336.4111328125 C 218.54428100585938 337.91461181640625 215.80157470703125 343.0035400390625 214.33245849609375 347.8507385253906 C 212.9671630859375 352.3492126464844 212.2548828125 357.02044677734375 212.2174072265625 361.7214050292969 C 212.15380859375 369.3544616699219 214.56427001953125 377.9129638671875 221.32012939453125 381.46044921875 C 224.96453857421875 383.3809509277344 229.36599731445312 383.49908447265625 233.39089965820312 382.5921630859375 C 237.41583251953125 381.6852722167969 241.15338134765625 379.81634521484375 244.81689453125 377.918701171875 C 248.48040771484375 376.0210876464844 252.03948974609375 374.0779724121094 254.53997802734375 370.9206848144531 L 253.73931884765625 368.2171630859375" stroke-width="0.6000000238418579" fill="rgb(218, 166, 20)" opacity="1.0"/>
    <path d="M 259.0070495605469 384.6571044921875 C 252.17822265625 375.3025817871094 239.05905151367188 373.25506591796875 229.70452880859375 380.0838928222656 C 228.90350341796875 380.66864013671875 228.14495849609375 381.3094787597656 227.43463134765625 382.0015869140625 C 224.7359619140625 384.63189697265625 222.7171630859375 388.1746520996094 222.700927734375 391.9412841796875 C 222.68692016601562 395.12432861328125 224.07275390625 398.1410217285156 225.70541381835938 400.87103271484375 C 230.08575439453125 408.172607421875 236.3411865234375 414.1680908203125 243.82199096679688 418.23480224609375 C 245.80120849609375 419.306396484375 247.92547607421875 420.25439453125 250.179443359375 420.33837890625 C 253.9632568359375 420.4815673828125 257.4736022949219 418.121826171875 259.8076477050781 415.13671875 C 263.2759704589844 410.70745849609375 264.670654296875 404.8503723144531 264.1725769042969 399.24554443359375 C 263.67449951171875 393.6407165527344 261.39825439453125 388.2861328125 258.1855163574219 383.66717529296875 L 259.0070495605469 384.6571044921875" stroke-width="0.6000000238418579" fill="rgb(143, 165, 67)" opacity="1.0"/>
    <path d="M 196.054931640625 373.822998046875 C 181.15625 373.8001403808594 171.278076171875 394.07427978515625 179.5380859375 406.35821533203125 C 187.79812622070312 418.64208984375 209.23193359375 417.7811279296875 217.4730224609375 405.36383056640625 C 225.71414184570312 392.946533203125 219.3974609375 373.8814392089844 205.76486206054688 367.82586669921875 L 196.054931640625 373.822998046875" stroke-width="0.6000000238418579" fill="rgb(233, 92, 21)" opacity="1.0"/>
    <path d="M 255.317138671875 373.0123291015625 C 252.49798583984375 378.5783996582031 249.70767211914062 385.5195617675781 253.26052856445312 390.6743469238281 C 254.7542724609375 392.67071533203125 256.8306579589844 394.1543884277344 259.2033386230469 394.920654296875 C 265.02288818359375 396.9745178222656 271.4769592285156 396.0802917480469 276.51885986328125 392.521484375 C 280.7880554199219 389.49169921875 283.5067443847656 384.84588623046875 286.0296936035156 380.2955017089844 C 287.44281005859375 377.7370910644531 288.8626708984375 374.9738464355469 288.6278381347656 372.0766296386719 C 288.28314208984375 368.21746826171875 285.0964660644531 365.2563781738281 281.8945007324219 363.076904296875 C 277.21240234375 359.8813781738281 272.0439453125 357.4647521972656 266.589599609375 355.9207458496094 C 264.7040100097656 355.3908996582031 262.6951904296875 354.9628601074219 260.8005676269531 355.45672607421875 C 259.06243896484375 356.0060119628906 257.5216979980469 357.0492248535156 256.3661804199219 358.4591064453125 C 252.69476318359375 362.5993957519531 251.02438354492188 368.141845703125 251.796630859375 373.6213684082031 L 255.317138671875 373.0123291015625" stroke-width="0.6000000238418579" fill="rgb(70, 150, 179)" opacity="1.0"/>
    <path d="M 335.19659423828125 357.4971923828125 C 335.8208923339844 350.4490661621094 336.2169494628906 342.6105651855469 331.7730407714844 337.1102600097656 C 326.9957275390625 331.20458984375 318.0657958984375 330.255126953125 310.8299255371094 332.5660095214844 C 308.0397033691406 333.455810546875 305.2857971191406 334.8279113769531 303.4833679199219 337.13580322265625 C 302.0009460449219 339.032470703125 301.27764892578125 341.4004821777344 300.71356201171875 343.7401428222656 C 298.9259033203125 351.1161804199219 298.5196838378906 359.3860168457031 302.5281677246094 365.82879638671875 C 306.5726013183594 372.3193359375 315.0387878417969 375.7276916503906 322.44769287109375 373.8052978515625 C 329.8565979003906 371.8829040527344 335.6575927734375 364.8520812988281 336.0757751464844 357.2041931152344 L 335.19659423828125 357.4971923828125" stroke-width="0.6000000238418579" fill="rgb(140, 28, 33)" opacity="1.0"/>
    <path d="M 360.07501220703125 398.37628173828125 C 352.6847229003906 396.8208312988281 344.9775390625 395.28375244140625 337.6089782714844 396.9638366699219 C 330.2405090332031 398.6439514160156 323.2423095703125 404.5490417480469 322.8204040527344 412.093505859375 C 322.3204040527344 421.4075927734375 332.4427795410156 428.744873046875 341.75921630859375 428.0223388671875 C 351.0756530761719 427.2998046875 358.984619140625 420.7452392578125 364.5687255859375 413.2674560546875 C 366.5292663574219 411.12579345703125 367.6156921386719 408.3271789550781 367.6136169433594 405.4237060546875 C 367.30914306640625 402.58355712890625 364.04925537109375 400.00079345703125 361.5497131347656 401.4123840332031 L 360.07501220703125 398.37628173828125" stroke-width="0.6000000238418579" fill="rgb(159, 159, 159)" opacity="1.0"/>
    <path d="M 177.411865234375 407.15289306640625 C 169.89093017578125 407.3250427246094 162.26513671875 410.0777282714844 157.09893798828125 415.54083251953125 C 151.93275451660156 421.00396728515625 149.60557556152344 429.3199462890625 152.1544189453125 436.427490234375 C 153.96282958984375 441.4503173828125 158.00433349609375 445.481201171875 162.72381591796875 447.98626708984375 C 167.44329833984375 450.49139404296875 172.80108642578125 451.5869140625 178.13287353515625 451.9493408203125 C 180.45318603515625 452.105712890625 182.8984375 452.101806640625 184.93667602539062 450.9945068359375 C 187.27407836914062 449.72607421875 188.64715576171875 447.2457275390625 189.78497314453125 444.8331298828125 C 192.99725341796875 438.021728515625 195.2879638671875 430.4586181640625 194.15643310546875 423.0123291015625 C 193.02490234375 415.56597900390625 187.7381591796875 408.38311767578125 180.37457275390625 406.89141845703125 L 177.411865234375 407.15289306640625" stroke-width="0.6000000238418579" fill="rgb(159, 159, 159)" opacity="1.0"/>
    <path d="M 364.91595458984375 367.75115966796875 C 358.8852233886719 365.1339416503906 352.06842041015625 362.4859924316406 345.94158935546875 364.833984375 C 339.9800109863281 367.1090087890625 336.6502685546875 373.33404541015625 333.94482421875 379.1161804199219 C 332.8492126464844 381.46673583984375 331.74053955078125 383.9432067871094 331.886962890625 386.53094482421875 C 332.132080078125 390.90777587890625 335.8238525390625 394.2740478515625 339.5799255371094 396.5218200683594 C 343.0653991699219 398.6094970703125 346.83258056640625 400.18585205078125 350.7661437988281 401.20263671875 C 357.1525573730469 402.8559875488281 364.8335266113281 402.6289367675781 369.22393798828125 397.7082824707031 C 371.5980529785156 395.0552673339844 372.6197204589844 391.3897399902344 372.7030334472656 387.8250427246094 C 372.78631591796875 384.2603454589844 372.0028381347656 380.7348937988281 371.1797180175781 377.26556396484375 C 370.35662841796875 373.79620361328125 369.4735107421875 370.40484619140625 367.3504943847656 367.6465759277344 L 364.91595458984375 367.75115966796875" stroke-width="0.6000000238418579" fill="rgb(218, 166, 20)" opacity="1.0"/>
    <path d="M 373.4161682128906 378.8586730957031 C 366.025146484375 388.3505859375 367.728271484375 402.03692626953125 377.2201843261719 409.4279479980469 C 378.0329895019531 410.06085205078125 378.8896484375 410.6352844238281 379.78375244140625 411.1469421386719 C 383.18145751953125 413.09051513671875 387.2961120605469 414.094482421875 391.062255859375 413.03466796875 C 394.2450256347656 412.13934326171875 396.86175537109375 409.89361572265625 399.12164306640625 407.4832458496094 C 405.1619567871094 401.0229797363281 409.3623046875 393.0632019042969 411.2864074707031 384.4307861328125 C 411.7911376953125 382.14813232421875 412.1309814453125 379.75592041015625 411.5709228515625 377.48101806640625 C 410.63299560546875 373.6614074707031 407.27362060546875 370.8299560546875 403.6258239746094 369.3518371582031 C 398.2117004394531 367.153564453125 391.964111328125 367.4339904785156 386.5091552734375 369.5325927734375 C 381.0542297363281 371.6311340332031 376.357177734375 375.4339599609375 372.6622619628906 379.9618835449219 L 373.4161682128906 378.8586730957031" stroke-width="0.6000000238418579" fill="rgb(143, 165, 67)" opacity="1.0"/>
    <path d="M 365.4654235839844 361.36199951171875 C 370.7191162109375 374.3247985839844 391.84442138671875 375.73779296875 399.601806640625 364.20751953125 C 407.3591613769531 352.67718505859375 399.0238037109375 334.34478759765625 385.30963134765625 331.5742492675781 C 371.5954895019531 328.8036804199219 357.2538757324219 341.04449462890625 356.8138427734375 355.041748046875 L 365.4654235839844 361.36199951171875" stroke-width="0.6000000238418579" fill="rgb(233, 92, 21)" opacity="1.0"/>
    <path d="M 403.387939453125 351.7746887207031 C 402.25933837890625 358.4460144042969 401.60308837890625 366.5321044921875 406.9410400390625 370.72723388671875 C 409.13031005859375 372.3140563964844 411.75799560546875 373.1824645996094 414.461669921875 373.2125549316406 C 421.1492919921875 373.467041015625 427.54541015625 370.46429443359375 431.6217041015625 365.1565246582031 C 435.06805419921875 360.64520263671875 436.388671875 354.959228515625 437.537353515625 349.43505859375 C 438.177490234375 346.33087158203125 438.75885009765625 343.0124206542969 437.58343505859375 340.0876159667969 C 435.9847412109375 336.20196533203125 431.73187255859375 334.1607971191406 427.71466064453125 332.9339904785156 C 421.837646484375 331.1312255859375 415.7076416015625 330.29156494140625 409.56231689453125 330.4476013183594 C 407.4391174316406 330.505615234375 405.2210388183594 330.7086486816406 403.4178771972656 331.8297119140625 C 401.79461669921875 332.9578552246094 400.53466796875 334.533935546875 399.7916564941406 336.3658142089844 C 397.32171630859375 341.8348083496094 397.3752136230469 348.112060546875 399.9380798339844 353.5381774902344 L 403.387939453125 351.7746887207031" stroke-width="0.6000000238418579" fill="rgb(70, 150, 179)" opacity="1.0"/>
    <path d="M 389.65966796875 422.05902099609375 C 389.1039123535156 429.3592529296875 388.79443359375 437.47430419921875 393.462646484375 443.10821533203125 C 398.4809875488281 449.1573486328125 407.73236083984375 450.025390625 415.18927001953125 447.5418701171875 C 418.064697265625 446.5855712890625 420.896484375 445.1307373046875 422.7318115234375 442.7198486328125 C 424.2413330078125 440.73846435546875 424.9593505859375 438.2791748046875 425.51300048828125 435.851318359375 C 427.2681884765625 428.1968994140625 427.5826416015625 419.635498046875 423.3529052734375 413.0208740234375 C 419.0853271484375 406.3572692871094 410.2823486328125 402.939208984375 402.6414489746094 405.0229797363281 C 395.00054931640625 407.10675048828125 389.0885925292969 414.455322265625 388.7537841796875 422.3734130859375 L 389.65966796875 422.05902099609375" stroke-width="0.6000000238418579" fill="rgb(140, 28, 33)" opacity="1.0"/>
    <path d="M 412.954345703125 375.45733642578125 C 411.19964599609375 382.9991455078125 409.4569091796875 390.8661804199219 411.01934814453125 398.45587158203125 C 412.581787109375 406.04547119140625 418.483154296875 413.34716796875 426.20758056640625 413.9432373046875 C 435.7442626953125 414.65771484375 443.4849853515625 404.4407653808594 442.9464111328125 394.8751220703125 C 442.40777587890625 385.30950927734375 435.86041259765625 377.0601501464844 428.31622314453125 371.17388916015625 C 426.1634521484375 369.1177978515625 423.3182373046875 367.94342041015625 420.3419189453125 367.8825988769531 C 417.4239501953125 368.13311767578125 414.705810546875 371.418701171875 416.09857177734375 374.01153564453125 L 412.954345703125 375.45733642578125" stroke-width="0.6000000238418579" fill="rgb(159, 159, 159)" opacity="1.0"/>
    <path d="M 433.931396484375 371.3816833496094 C 435.30230712890625 378.65008544921875 439.193359375 385.6071472167969 445.320068359375 389.7442932128906 C 451.4466552734375 393.8814697265625 459.886474609375 394.807861328125 466.3734130859375 391.197509765625 C 470.95648193359375 388.63916015625 474.2198486328125 384.07330322265625 475.89453125 379.093994140625 C 477.56927490234375 374.11468505859375 477.7742919921875 368.7417907714844 477.2724609375 363.5115051269531 C 477.052734375 361.23553466796875 476.6575927734375 358.86407470703125 475.257080078125 357.06402587890625 C 473.6524658203125 354.9996032714844 471.0264892578125 354.06463623046875 468.50390625 353.3470458984375 C 461.382080078125 351.3211975097656 453.678466796875 350.3096618652344 446.63604736328125 352.59930419921875 C 439.5936279296875 354.8889465332031 433.4718017578125 361.1673583984375 433.2034912109375 368.5494384765625 L 433.931396484375 371.3816833496094" stroke-width="0.6000000238418579" fill="rgb(159, 159, 159)" opacity="1.0"/>
    <path d="M 432.59368896484375 411.3253479003906 C 427.9788818359375 416.58319091796875 423.07708740234375 422.62744140625 423.46136474609375 429.5989990234375 C 423.8255615234375 436.37939453125 429.0482177734375 441.779296875 434.0255126953125 446.40252685546875 C 436.05023193359375 448.2777099609375 438.1982421875 450.2071533203125 440.86767578125 450.90118408203125 C 445.3817138671875 452.07769775390625 449.99395751953125 449.433349609375 453.49395751953125 446.3597412109375 C 456.74365234375 443.50811767578125 459.5670166015625 440.2047119140625 461.877685546875 436.550537109375 C 465.63177490234375 430.6185302734375 467.9022216796875 422.762939453125 464.34625244140625 416.7130126953125 C 462.4312744140625 413.444091796875 459.05023193359375 411.2157897949219 455.4659423828125 409.970947265625 C 451.881591796875 408.7261047363281 448.0548095703125 408.3721923828125 444.27197265625 408.07672119140625 C 440.48919677734375 407.78118896484375 436.765869140625 407.5718688964844 433.2802734375 408.8248291015625 L 432.59368896484375 411.3253479003906" stroke-width="0.6000000238418579" fill="rgb(218, 166, 20)" opacity="1.0"/>
    <path d="M 134.40371704101562 211.83233642578125 C 134.0136260986328 223.62835693359375 143.2599334716797 233.50714111328125 155.05592346191406 233.897216796875 C 156.0660400390625 233.9306640625 157.07720947265625 233.892333984375 158.0819091796875 233.78265380859375 C 161.89935302734375 233.3651123046875 165.74380493164062 231.78839111328125 168.1212158203125 228.77487182617188 C 170.13052368164062 226.22845458984375 170.91168212890625 222.93682861328125 171.314697265625 219.72042846679688 C 172.38165283203125 211.10943603515625 171.12350463867188 202.36981201171875 167.67095947265625 194.409423828125 C 166.75482177734375 192.30679321289062 165.64456176757812 190.21234130859375 163.88790893554688 188.7301025390625 C 160.94027709960938 186.23995971679688 156.64108276367188 185.9307861328125 152.89361572265625 186.8619384765625 C 147.32904052734375 188.24050903320312 142.53285217285156 192.06686401367188 139.41444396972656 196.87884521484375 C 136.29603576660156 201.69085693359375 134.76214599609375 207.4180908203125 134.4418182373047 213.14273071289062 L 134.40371704101562 211.83233642578125" stroke-width="0.6000000238418579" fill="rgb(143, 165, 67)" opacity="1.0"/>
    <path d="M 169.883544921875 262.89447021484375 C 181.10043334960938 273.4038391113281 202.825927734375 265.07452392578125 205.24896240234375 249.9959716796875 C 207.67193603515625 234.91744995117188 190.90545654296875 220.47216796875 175.94732666015625 224.0306396484375 C 160.98919677734375 227.58908081054688 152.32542419433594 246.41180419921875 158.33929443359375 260.5779724121094 L 169.883544921875 262.89447021484375" stroke-width="0.6000000238418579" fill="rgb(233, 92, 21)" opacity="1.0"/>
    <path d="M 144.48573303222656 312.7098388671875 C 137.9151153564453 315.64727783203125 130.37100219726562 319.83758544921875 129.8075714111328 327.03741455078125 C 129.69485473632812 329.911376953125 130.47671508789062 332.7495422363281 132.0453643798828 335.1602783203125 C 135.7660675048828 341.22955322265625 142.19772338867188 345.118896484375 149.30075073242188 345.5950012207031 C 155.32711791992188 345.9834289550781 161.138916015625 343.79736328125 166.7060546875 341.55450439453125 C 169.83126831054688 340.28955078125 173.11138916015625 338.8460388183594 175.00653076171875 336.0799560546875 C 177.50238037109375 332.3722839355469 176.79962158203125 327.40374755859375 175.51513671875 323.1242980957031 C 173.64306640625 316.85894775390625 170.76925659179688 310.9378967285156 167.00518798828125 305.5908203125 C 165.7010498046875 303.745849609375 164.21258544921875 301.9024658203125 162.15640258789062 300.9679870605469 C 160.20013427734375 300.1968994140625 158.06170654296875 300.0116882324219 156.001953125 300.4349365234375 C 149.7040557861328 301.47576904296875 144.1797332763672 305.2269592285156 140.8893280029297 310.6969299316406 L 144.48573303222656 312.7098388671875" stroke-width="0.6000000238418579" fill="rgb(70, 150, 179)" opacity="1.0"/>
    <path d="M 121.40135192871094 300.86431884765625 C 122.48974609375 293.24432373046875 123.37619018554688 284.75244140625 118.868896484375 278.5188903808594 C 114.02305603027344 271.8255310058594 104.37776184082031 270.2744140625 96.38301086425781 272.36358642578125 C 93.30023193359375 273.1677551269531 90.22882080078125 274.49798583984375 88.13652038574219 276.900146484375 C 86.415771484375 278.87420654296875 85.49224853515625 281.4044494628906 84.74333190917969 283.9132080078125 C 82.37210083007812 291.8216857910156 81.44952392578125 300.7815246582031 85.428955078125 308.0135498046875 C 89.44464111328125 315.299560546875 98.44302368164062 319.4947814941406 106.6031494140625 317.83770751953125 C 114.76327514648438 316.1806335449219 121.47406005859375 308.8807067871094 122.37344360351562 300.5971984863281 L 121.40135192871094 300.86431884765625" stroke-width="0.6000000238418579" fill="rgb(140, 28, 33)" opacity="1.0"/>
    <path d="M 144.19029235839844 266.1497802734375 C 137.42088317871094 270.14813232421875 130.4210205078125 274.3832702636719 125.94190979003906 280.8515625 C 121.462890625 287.31976318359375 120.23709106445312 296.7729797363281 125.21449279785156 302.8642578125 C 131.37533569335938 310.36962890625 144.3060760498047 308.8924255371094 150.9541778564453 301.7908935546875 C 157.602294921875 294.6893615722656 159.07122802734375 284.0973205566406 158.105712890625 274.4297790527344 C 158.106689453125 271.40716552734375 156.97457885742188 268.494140625 154.93276977539062 266.2655029296875 C 152.70314025878906 264.2979736328125 148.38436889648438 264.6048889160156 147.4564208984375 267.4455261230469 L 144.19029235839844 266.1497802734375" stroke-width="0.6000000238418579" fill="rgb(159, 159, 159)" opacity="1.0"/>
    <path d="M 160.42996215820312 285.0023193359375 C 160.29995727539062 292.64324951171875 162.7850341796875 300.49517822265625 168.12091064453125 305.96038818359375 C 173.456787109375 311.4255676269531 181.803466796875 314.1246643066406 189.12109375 311.82550048828125 C 194.29266357421875 310.19342041015625 198.54791259765625 306.2545166015625 201.2818603515625 301.56561279296875 C 204.015869140625 296.8766784667969 205.34487915039062 291.4827880859375 205.92886352539062 286.0855712890625 C 206.18161010742188 283.7366943359375 206.27670288085938 281.25457763671875 205.2353515625 279.14080810546875 C 204.04257202148438 276.7168884277344 201.58056640625 275.2226867675781 199.17779541015625 273.9700012207031 C 192.39422607421875 270.4335021972656 184.81024169921875 267.8018798828125 177.2061767578125 268.6487121582031 C 169.60211181640625 269.49554443359375 162.0970458984375 274.5707092285156 160.28460693359375 281.9844665527344 L 160.42996215820312 285.0023193359375" stroke-width="0.6000000238418579" fill="rgb(159, 159, 159)" opacity="1.0"/>
    <path d="M 128.28570556640625 349.1141357421875 C 129.07591247558594 341.5409240722656 129.62620544433594 333.0887145996094 124.89840698242188 327.13897705078125 C 120.30874633789062 321.34637451171875 112.272705078125 319.8367919921875 104.943359375 318.862548828125 C 101.96533203125 318.47113037109375 98.8436279296875 318.1091613769531 96.03622436523438 319.1723327636719 C 91.2869873046875 320.96771240234375 88.85462951660156 326.21826171875 87.68014526367188 331.15020751953125 C 86.58827209472656 335.7274475097656 86.15931701660156 340.437744140625 86.4063720703125 345.136962890625 C 86.80477905273438 352.7673034667969 89.73118591308594 361.17254638671875 96.69589233398438 364.30810546875 C 100.45343017578125 366.0063781738281 104.85823059082031 365.8580017089844 108.82479858398438 364.70831298828125 C 112.79135131835938 363.55859375 116.41261291503906 361.4650573730469 119.95809936523438 359.3473205566406 C 123.50360107421875 357.2296142578125 126.94204711914062 355.0727844238281 129.24928283691406 351.7668762207031 L 128.28570556640625 349.1141357421875" stroke-width="0.6000000238418579" fill="rgb(218, 166, 20)" opacity="1.0"/>
    <path d="M 150.30697631835938 344.1496887207031 C 138.69735717773438 344.814208984375 129.8245849609375 354.764404296875 130.48912048339844 366.3740234375 C 130.5460205078125 367.3681640625 130.6733856201172 368.35699462890625 130.87022399902344 369.3331298828125 C 131.61886596679688 373.0420227050781 133.5074005126953 376.6744384765625 136.67552185058594 378.7397155761719 C 139.3526611328125 380.4853210449219 142.6519317626953 380.9595642089844 145.84385681152344 381.0694885253906 C 154.3882598876953 381.3519287109375 162.8524169921875 379.34136962890625 170.35714721679688 375.2467346191406 C 172.33905029296875 374.16107177734375 174.295654296875 372.8856506347656 175.59417724609375 371.0303039550781 C 177.77593994140625 367.9168395996094 177.6976318359375 363.67071533203125 176.45120239257812 360.0761413574219 C 174.60440063476562 354.73822021484375 170.42388916015625 350.3716125488281 165.4251708984375 347.7388610839844 C 160.426513671875 345.1061096191406 154.67034912109375 344.1094665527344 149.0245361328125 344.30340576171875 L 150.30697631835938 344.1496887207031" stroke-width="0.6000000238418579" fill="rgb(143, 165, 67)" opacity="1.0"/>
    <path d="M 138.85426330566406 376.7093200683594 C 135.5258331298828 362.58270263671875 114.08810424804688 357.7786560058594 104.30230712890625 368.36993408203125 C 94.51657104492188 378.96124267578125 100.15219116210938 399.08331298828125 113.77482604980469 404.1023864746094 C 127.3974609375 409.1214599609375 144.04763793945312 398.8473205566406 146.72190856933594 384.5642395019531 L 138.85426330566406 376.7093200683594" stroke-width="0.6000000238418579" fill="rgb(233, 92, 21)" opacity="1.0"/>
    <path d="M 177.26483154296875 351.8578186035156 C 176.80752563476562 358.999755859375 177.00198364257812 367.5783996582031 183.07672119140625 371.4076843261719 C 185.55352783203125 372.8374938964844 188.4129638671875 373.4635314941406 191.2606201171875 373.1993408203125 C 198.32403564453125 372.73529052734375 204.724365234375 368.87640380859375 208.43197631835938 362.846435546875 C 211.56396484375 357.7232666015625 212.33111572265625 351.596923828125 212.93502807617188 345.6596374511719 C 213.26885986328125 342.3238830566406 213.517333984375 338.7691650390625 211.960693359375 335.82080078125 C 209.8536376953125 331.9079284667969 205.1561279296875 330.2259216308594 200.795654296875 329.3748779296875 C 194.41558837890625 328.1213684082031 187.87472534179688 327.9088134765625 181.4267578125 328.74542236328125 C 179.19940185546875 329.0387878417969 176.88815307617188 329.4951171875 175.11383056640625 330.871826171875 C 173.52957153320312 332.23626708984375 172.37652587890625 334.0322570800781 171.79534912109375 336.04071044921875 C 169.79531860351562 342.0645751953125 170.53851318359375 348.6625671386719 173.82843017578125 354.090576171875 L 177.26483154296875 351.8578186035156" stroke-width="0.6000000238418579" fill="rgb(70, 150, 179)" opacity="1.0"/>
  </g>
</svg>
