<?xml version="1.0" ?>
<svg xmlns="http://www.w3.org/2000/svg" version="1.1" width="600" height="600">
  <defs/>
  <g>
    <path d="M 351.82208251953125 344.644287109375 C 355.8680419921875 348.0386962890625 363.16473388671875 344.7723388671875 363.7122802734375 339.5537109375 C 364.25982666015625 334.3350830078125 358.23590087890625 329.6947937011719 353.1711120605469 331.1970520019531 C 348.1063537597656 332.6993408203125 345.48822021484375 339.3199157714844 347.8179626464844 344.0667724609375 L 351.82208251953125 344.644287109375" stroke-width="0.6000000238418579" fill="rgb(233, 92, 21)" opacity="1.0"/>
    <path d="M 122.68927001953125 208.17767333984375 C 126.682373046875 208.12478637695312 131.44674682617188 207.6474609375 133.3157958984375 204.10302734375 C 134.00469970703125 202.66351318359375 134.22996520996094 201.04571533203125 133.96044921875 199.4727783203125 C 133.39833068847656 195.56301879882812 130.97604370117188 192.16824340820312 127.46173095703125 190.36495971679688 C 124.4766845703125 188.84292602539062 121.0352783203125 188.67971801757812 117.70608520507812 188.59921264648438 C 115.83587646484375 188.5570068359375 113.84750366210938 188.57171630859375 112.27415466308594 189.56463623046875 C 110.18788146972656 190.9052734375 109.4542236328125 193.59109497070312 109.16836547851562 196.05368041992188 C 108.74551391601562 199.65716552734375 108.90869140625 203.30532836914062 109.65159606933594 206.856689453125 C 109.91064453125 208.08322143554688 110.26397705078125 209.3494873046875 111.10624694824219 210.27734375 C 111.93353271484375 211.10006713867188 112.98233032226562 211.664306640625 114.124755859375 211.90121459960938 C 117.56219482421875 212.75473022460938 121.20101928710938 212.057373046875 124.07933044433594 209.99343872070312 L 122.68927001953125 208.17767333984375" stroke-width="0.6000000238418579" fill="rgb(70, 150, 179)" opacity="1.0"/>
    <path d="M 457.51904296875 407.1046447753906 C 459.9766845703125 409.8443298339844 462.81591796875 412.77789306640625 466.484619140625 413.0413818359375 C 470.42578125 413.322021484375 473.95721435546875 410.264404296875 475.647705078125 406.6932373046875 C 476.3001708984375 405.3166198730469 476.75628662109375 403.7825622558594 476.51885986328125 402.2779846191406 C 476.32415771484375 401.0410461425781 475.6807861328125 399.92535400390625 474.9915771484375 398.8802185058594 C 472.82232666015625 395.58184814453125 469.82275390625 392.4913024902344 465.95037841796875 391.7276916503906 C 462.04705810546875 390.9607849121094 457.74554443359375 392.9690856933594 455.8458251953125 396.4681091308594 C 453.9461669921875 399.9671325683594 454.55938720703125 404.6686096191406 457.3182373046875 407.5428771972656 L 457.51904296875 407.1046447753906" stroke-width="0.6000000238418579" fill="rgb(140, 28, 33)" opacity="1.0"/>
    <path d="M 87.77299499511719 209.45880126953125 C 92.3970947265625 209.68954467773438 97.21127319335938 209.878662109375 101.51092529296875 208.15252685546875 C 105.81051635742188 206.4263916015625 109.47946166992188 202.1778564453125 109.00904846191406 197.5694580078125 C 108.41567993164062 191.88217163085938 101.5811767578125 188.41366577148438 96.01007080078125 189.7474365234375 C 90.43894958496094 191.08123779296875 86.28109741210938 195.81060791015625 83.61961364746094 200.87530517578125 C 82.63865661621094 202.36056518554688 82.2501220703125 204.1595458984375 82.53073120117188 205.917236328125 C 82.98831176757812 207.60748291015625 85.21051025390625 208.85760498046875 86.58804321289062 207.762451171875 L 87.77299499511719 209.45880126953125" stroke-width="0.6000000238418579" fill="rgb(159, 159, 159)" opacity="1.0"/>
    <path d="M 382.4544372558594 309.1343994140625 C 386.6023864746094 307.9879150390625 390.4479064941406 305.395263671875 392.55023193359375 301.642822265625 C 394.652587890625 297.890380859375 394.7814025878906 292.9521484375 392.374267578125 289.3656311035156 C 390.669189453125 286.83209228515625 387.864013671875 285.1608581542969 384.89593505859375 284.4307556152344 C 381.9278869628906 283.70062255859375 378.802734375 283.8416748046875 375.79443359375 284.38568115234375 C 374.4854431152344 284.6231689453125 373.12957763671875 284.9670715332031 372.1536560058594 285.86614990234375 C 371.0343017578125 286.8963928222656 370.6192626953125 288.46417236328125 370.3252258300781 289.9615173339844 C 369.49517822265625 294.1888122558594 369.2813720703125 298.704345703125 370.94964599609375 302.67681884765625 C 372.6178894042969 306.6493225097656 376.5543212890625 309.89501953125 380.8475036621094 309.6934509277344 L 382.4544372558594 309.1343994140625" stroke-width="0.6000000238418579" fill="rgb(159, 159, 159)" opacity="1.0"/>
    <path d="M 105.20950317382812 420.3271484375 C 108.48287963867188 418.2486572265625 112.03131103515625 415.7965087890625 112.91220092773438 412.0281982421875 C 113.77401733398438 408.3646545410156 111.83639526367188 404.6791076660156 109.90846252441406 401.4449462890625 C 109.12332153320312 400.1322326660156 108.28103637695312 398.771484375 106.9691162109375 397.9867248535156 C 104.75102233886719 396.6581726074219 101.8858642578125 397.3468322753906 99.54554748535156 398.4369812011719 C 97.37295532226562 399.447998046875 95.35678100585938 400.7657165527344 93.55874633789062 402.349853515625 C 90.63832092285156 404.92095947265625 88.2076416015625 408.7463073730469 89.15744018554688 412.51812744140625 C 89.66720581054688 414.55517578125 91.11886596679688 416.266845703125 92.83175659179688 417.487060546875 C 94.544677734375 418.70721435546875 96.52522277832031 419.4912109375 98.49148559570312 420.2373046875 C 100.457763671875 420.9833984375 102.40580749511719 421.67431640625 104.45501708984375 421.5504150390625 L 105.20950317382812 420.3271484375" stroke-width="0.6000000238418579" fill="rgb(218, 166, 20)" opacity="1.0"/>
    <path d="M 100.13706970214844 153.65281677246094 C 108.07034301757812 155.64794921875 116.118896484375 150.83412170410156 118.114013671875 142.90086364746094 C 118.28486633300781 142.22154235839844 118.40728759765625 141.53094482421875 118.48040771484375 140.83428955078125 C 118.75773620605469 138.1870880126953 118.25376892089844 135.35154724121094 116.56129455566406 133.29891967773438 C 115.13119506835938 131.56417846679688 113.01611328125 130.5520477294922 110.89649963378906 129.8070831298828 C 105.22004699707031 127.82080078125 99.11528015136719 127.39067077636719 93.21636962890625 128.56134033203125 C 91.65763854980469 128.87339782714844 90.07597351074219 129.31814575195312 88.81414794921875 130.29058837890625 C 86.69482421875 131.92190551757812 85.85455322265625 134.7887725830078 85.93544006347656 137.46389770507812 C 86.05274963378906 141.43557739257812 87.94091796875 145.24594116210938 90.74295043945312 148.0644073486328 C 93.54495239257812 150.88287353515625 97.19949340820312 152.76229858398438 101.03030395507812 153.8192901611328 L 100.13706970214844 153.65281677246094" stroke-width="0.6000000238418579" fill="rgb(143, 165, 67)" opacity="1.0"/>
    <path d="M 459.83685302734375 345.7548828125 C 462.77099609375 352.7051086425781 474.1751708984375 353.302978515625 478.269287109375 347.0242004394531 C 482.36334228515625 340.74542236328125 477.7254638671875 330.9232482910156 470.3076171875 329.5356140136719 C 462.889892578125 328.1479797363281 455.2503662109375 334.86114501953125 455.121826171875 342.41351318359375 L 459.83685302734375 345.7548828125" stroke-width="0.6000000238418579" fill="rgb(233, 92, 21)" opacity="1.0"/>
    <path d="M 106.62686157226562 228.1905517578125 C 109.02445983886719 224.5772705078125 111.51370239257812 220.012451171875 109.47958374023438 216.166015625 C 108.61050415039062 214.66680908203125 107.29763793945312 213.47421264648438 105.7220458984375 212.75277709960938 C 101.87167358398438 210.86285400390625 97.3441162109375 210.9564208984375 93.57513427734375 213.00381469726562 C 90.38243103027344 214.74874877929688 88.12886047363281 217.7349853515625 86.01812744140625 220.67120361328125 C 84.83514404296875 222.32254028320312 83.63082885742188 224.11468505859375 83.557861328125 226.13357543945312 C 83.48265075683594 228.82537841796875 85.4420166015625 231.12786865234375 87.47537231445312 232.89208984375 C 90.44795227050781 235.47775268554688 93.81944274902344 237.56524658203125 97.45909118652344 239.07354736328125 C 98.7176513671875 239.59228515625 100.06951904296875 240.05078125 101.41737365722656 239.86358642578125 C 102.66171264648438 239.62545776367188 103.80989074707031 239.0303955078125 104.72187805175781 238.1510009765625 C 107.59207153320312 235.59100341796875 109.19479370117188 231.90078735351562 109.10633850097656 228.05584716796875 L 106.62686157226562 228.1905517578125" stroke-width="0.6000000238418579" fill="rgb(70, 150, 179)" opacity="1.0"/>
    <path d="M 107.57012939453125 82.78912353515625 C 107.94590759277344 87.47157287597656 108.55902099609375 92.64593505859375 112.07968139648438 95.75128173828125 C 115.86366271972656 99.08486938476562 121.81394958496094 98.71247863769531 126.2926025390625 96.39472961425781 C 128.019775390625 95.5018310546875 129.66949462890625 94.29731750488281 130.5923309326172 92.58621215820312 C 131.35150146484375 91.17987060546875 131.56137084960938 89.54953002929688 131.670166015625 87.9554443359375 C 132.01931762695312 82.92890930175781 131.3648223876953 77.47113037109375 128.02426147460938 73.70045471191406 C 124.65487670898438 69.90252685546875 118.73448181152344 68.61398315429688 114.09931945800781 70.69670104980469 C 109.46415710449219 72.77943420410156 106.44989013671875 78.02668762207031 107.02731323242188 83.0787353515625 L 107.57012939453125 82.78912353515625" stroke-width="0.6000000238418579" fill="rgb(140, 28, 33)" opacity="1.0"/>
    <path d="M 93.13400268554688 404.0690612792969 C 95.77392578125 401.17767333984375 98.489013671875 398.1399230957031 99.67808532714844 394.4066162109375 C 100.86711120605469 390.6733703613281 100.0716552734375 385.9934387207031 96.81304931640625 383.8192443847656 C 92.78463745117188 381.1444091796875 86.84321594238281 383.73419189453125 84.71377563476562 388.08544921875 C 82.58433532714844 392.43670654296875 83.43016052246094 397.6943664550781 85.30026245117188 402.15667724609375 C 85.74078369140625 403.59600830078125 86.70478820800781 404.81787109375 88.00213623046875 405.5811462402344 C 89.35079956054688 406.1927185058594 91.36239624023438 405.4165344238281 91.38981628417969 403.9285888671875 L 93.13400268554688 404.0690612792969" stroke-width="0.6000000238418579" fill="rgb(159, 159, 159)" opacity="1.0"/>
    <path d="M 478.23248291015625 69.45555114746094 C 479.50408935546875 65.8831787109375 479.5794677734375 61.79730224609375 477.9361572265625 58.382110595703125 C 476.29290771484375 54.9669189453125 472.795654296875 52.37544250488281 468.990478515625 52.29730224609375 C 466.3001708984375 52.245452880859375 463.6751708984375 53.42352294921875 461.64678955078125 55.19525146484375 C 459.618408203125 56.96697998046875 458.138916015625 59.292816162109375 457.00927734375 61.738189697265625 C 456.518310546875 62.80267333984375 456.08038330078125 63.95475769042969 456.2352294921875 65.11367797851562 C 456.412109375 66.44242858886719 457.33306884765625 67.53507995605469 458.26446533203125 68.50477600097656 C 460.89404296875 71.24240112304688 464.0433349609375 73.68130493164062 467.75311279296875 74.48776245117188 C 471.462890625 75.294189453125 475.7960205078125 74.0966796875 477.82275390625 70.89764404296875 L 478.23248291015625 69.45555114746094" stroke-width="0.6000000238418579" fill="rgb(159, 159, 159)" opacity="1.0"/>
    <path d="M 88.24447631835938 111.35173034667969 C 92.6102294921875 112.64370727539062 97.5189208984375 113.89067077636719 101.53315734863281 111.76138305664062 C 105.43994140625 109.69613647460938 107.20535278320312 105.13690185546875 108.57888793945312 100.93461608886719 C 109.13435363769531 99.2266845703125 109.688232421875 97.43106079101562 109.36993408203125 95.66452026367188 C 108.8333740234375 92.67640686035156 106.01246643066406 90.67282104492188 103.241455078125 89.44354248046875 C 100.66990661621094 88.30154418945312 97.94770812988281 87.53472900390625 95.15817260742188 87.16656494140625 C 90.62899780273438 86.56709289550781 85.3680419921875 87.36911010742188 82.7637939453125 91.12089538574219 C 81.35488891601562 93.144287109375 80.96084594726562 95.74996948242188 81.20333862304688 98.20741271972656 C 81.44586181640625 100.66485595703125 82.28092956542969 103.02243041992188 83.13851928710938 105.33810424804688 C 83.99609375 107.65377807617188 84.88836669921875 109.91079711914062 86.5797119140625 111.62835693359375 L 88.24447631835938 111.35173034667969" stroke-width="0.6000000238418579" fill="rgb(218, 166, 20)" opacity="1.0"/>
    <path d="M 129.45123291015625 137.2505340576172 C 135.77239990234375 136.7209014892578 140.4673614501953 131.16725158691406 139.93772888183594 124.84608459472656 C 139.89239501953125 124.3048095703125 139.80868530273438 123.76742553710938 139.68728637695312 123.23797607421875 C 139.22561645507812 121.22630310058594 138.14346313476562 119.27276611328125 136.38613891601562 118.19218444824219 C 134.90115356445312 117.27888488769531 133.09521484375 117.06781005859375 131.3530731201172 117.05386352539062 C 126.68974304199219 117.02294921875 122.10319519042969 118.24124145507812 118.06985473632812 120.5821533203125 C 117.00477600097656 121.20272827148438 115.95620727539062 121.9263916015625 115.27484130859375 122.95681762695312 C 114.12997436523438 124.68603515625 114.23385620117188 127.00032043457031 114.96533203125 128.94248962402344 C 116.04928588867188 131.82664489746094 118.39183044433594 134.14752197265625 121.15554809570312 135.5111541748047 C 123.91928100585938 136.87478637695312 127.07246398925781 137.3353271484375 130.14833068847656 137.1482391357422 L 129.45123291015625 137.2505340576172" stroke-width="0.6000000238418579" fill="rgb(143, 165, 67)" opacity="1.0"/>
    <path d="M 399.67413330078125 309.66876220703125 C 402.2367248535156 317.5709533691406 414.6917724609375 319.3039855957031 419.77642822265625 312.80224609375 C 424.86102294921875 306.30047607421875 420.70050048828125 295.0865478515625 412.6934814453125 292.86358642578125 C 404.6865234375 290.640625 395.671142578125 297.2840576171875 394.81683349609375 305.5576171875 L 399.67413330078125 309.66876220703125" stroke-width="0.6000000238418579" fill="rgb(233, 92, 21)" opacity="1.0"/>
    <path d="M 125.917724609375 115.7254638671875 C 129.65696716308594 115.44740295410156 134.09474182128906 114.72744750976562 135.6435546875 111.29867553710938 C 136.20681762695312 109.91018676757812 136.32534790039062 108.381103515625 135.98275756835938 106.92240905761719 C 135.2322235107422 103.2904052734375 132.767822265625 100.24746704101562 129.37106323242188 98.75857543945312 C 126.48643493652344 97.50296020507812 123.25186157226562 97.54693603515625 120.12718200683594 97.6619873046875 C 118.37202453613281 97.72946166992188 116.5093994140625 97.8570556640625 115.09170532226562 98.87759399414062 C 113.21319580078125 100.25341796875 112.6793212890625 102.81253051757812 112.55233764648438 105.13677978515625 C 112.36224365234375 108.53811645507812 112.72395324707031 111.94776916503906 113.6234130859375 115.2335205078125 C 113.93637084960938 116.36820983886719 114.3399658203125 117.53469848632812 115.18243408203125 118.35610961914062 C 116.00482177734375 119.07978820800781 117.02005004882812 119.54855346679688 118.10426330566406 119.70523071289062 C 121.37460327148438 120.30841064453125 124.74496459960938 119.44662475585938 127.32437133789062 117.34762573242188 L 125.917724609375 115.7254638671875" stroke-width="0.6000000238418579" fill="rgb(70, 150, 179)" opacity="1.0"/>
    <path d="M 420.2659912109375 63.85054016113281 C 421.79449462890625 66.93505859375 423.6182861328125 70.28982543945312 426.8583984375 71.44618225097656 C 430.3397216796875 72.68630981445312 434.2879638671875 70.8154296875 436.7059326171875 68.02069091796875 C 437.638671875 66.94354248046875 438.4339599609375 65.67536926269531 438.596923828125 64.260009765625 C 438.73126220703125 63.0965576171875 438.430908203125 61.92999267578125 438.0716552734375 60.8155517578125 C 436.9429931640625 57.29981994628906 435.01397705078125 53.763397216796875 431.715576171875 52.10530090332031 C 428.39013671875 50.436492919921875 424.0107421875 51.168853759765625 421.42242431640625 53.84620666503906 C 418.8341064453125 56.5235595703125 418.20904541015625 60.9139404296875 419.97528076171875 64.1951904296875 L 420.2659912109375 63.85054016113281" stroke-width="0.6000000238418579" fill="rgb(140, 28, 33)" opacity="1.0"/>
    <path d="M 122.34585571289062 423.5419921875 C 124.78170776367188 420.72802734375 127.28533935546875 417.77301025390625 128.3213348388672 414.1954345703125 C 129.35728454589844 410.6179504394531 128.48362731933594 406.1907958984375 125.33236694335938 404.20672607421875 C 121.43701171875 401.7662658691406 115.85626220703125 404.37677001953125 113.94221496582031 408.565185546875 C 112.02816772460938 412.753662109375 112.96421813964844 417.728515625 114.85360717773438 421.92181396484375 C 115.30841064453125 423.27850341796875 116.25523376464844 424.41534423828125 117.50726318359375 425.1080322265625 C 118.80422973632812 425.65521240234375 120.69625854492188 424.8670654296875 120.68487548828125 423.452392578125 L 122.34585571289062 423.5419921875" stroke-width="0.6000000238418579" fill="rgb(159, 159, 159)" opacity="1.0"/>
    <path d="M 476.8408203125 445.4117431640625 C 477.9010009765625 442.625732421875 478.0296630859375 439.415771484375 476.7962646484375 436.7037353515625 C 475.5628662109375 433.99163818359375 472.8582763671875 431.89544677734375 469.8690185546875 431.769287109375 C 467.75543212890625 431.682861328125 465.67236328125 432.5640869140625 464.048095703125 433.92205810546875 C 462.4237060546875 435.280029296875 461.221435546875 437.08282470703125 460.2919921875 438.98553466796875 C 459.8880615234375 439.81378173828125 459.5242919921875 440.7117919921875 459.626220703125 441.625244140625 C 459.74267578125 442.672607421875 460.44793701171875 443.5469970703125 461.1634521484375 444.324951171875 C 463.18359375 446.521240234375 465.61724853515625 448.49163818359375 468.5191650390625 449.18853759765625 C 471.421142578125 449.88543701171875 474.8470458984375 449.0179443359375 476.4942626953125 446.5382080078125 L 476.8408203125 445.4117431640625" stroke-width="0.6000000238418579" fill="rgb(159, 159, 159)" opacity="1.0"/>
    <path d="M 454.55865478515625 298.8616943359375 C 453.4942626953125 294.3045959472656 452.11376953125 289.2852783203125 448.1712646484375 286.7809143066406 C 444.3406982421875 284.34002685546875 439.3701171875 285.0797424316406 434.9176025390625 285.9881896972656 C 433.109375 286.3598937988281 431.2236328125 286.777587890625 429.80706787109375 287.959716796875 C 427.41009521484375 289.9576721191406 427.0535888671875 293.4961853027344 427.363525390625 296.5966796875 C 427.650146484375 299.47454833984375 428.34844970703125 302.2963562011719 429.4371337890625 304.9757080078125 C 431.203369140625 309.326904296875 434.593505859375 313.6196594238281 439.26898193359375 314.03973388671875 C 441.792724609375 314.27020263671875 444.321044921875 313.29803466796875 446.39337158203125 311.8324890136719 C 448.4656982421875 310.366943359375 450.14764404296875 308.4227294921875 451.78076171875 306.4797058105469 C 453.413818359375 304.53668212890625 454.97686767578125 302.59246826171875 455.65185546875 300.2084655761719 L 454.55865478515625 298.8616943359375" stroke-width="0.6000000238418579" fill="rgb(218, 166, 20)" opacity="1.0"/>
    <path d="M 425.71875 372.5440368652344 C 423.8270263671875 374.02203369140625 423.49163818359375 376.7536926269531 424.9696044921875 378.6453857421875 C 425.09619140625 378.807373046875 425.234130859375 378.9601745605469 425.38232421875 379.1026611328125 C 425.9454345703125 379.6439208984375 426.69305419921875 380.03814697265625 427.47344970703125 380.0160217285156 C 428.1329345703125 379.99737548828125 428.74853515625 379.68988037109375 429.30303955078125 379.3331604003906 C 430.7860107421875 378.3763122558594 431.9857177734375 377.0398254394531 432.777587890625 375.4625549316406 C 432.9862060546875 375.0452880859375 433.168212890625 374.59881591796875 433.1702880859375 374.13128662109375 C 433.17437744140625 373.3464660644531 432.6617431640625 372.6352233886719 432.027587890625 372.1719055175781 C 431.08648681640625 371.4833679199219 429.8636474609375 371.23406982421875 428.7059326171875 371.37518310546875 C 427.5482177734375 371.51629638671875 426.454345703125 372.02410888671875 425.5191650390625 372.7209167480469 L 425.71875 372.5440368652344" stroke-width="0.6000000238418579" fill="rgb(143, 165, 67)" opacity="1.0"/>
    <path d="M 453.3538818359375 347.2721252441406 C 459.30401611328125 344.1170349121094 458.94000244140625 333.92864990234375 453.034912109375 330.78106689453125 C 447.1298828125 327.63348388671875 438.75958251953125 332.52923583984375 438.10821533203125 339.234619140625 C 437.456787109375 345.94000244140625 444.026611328125 352.20635986328125 450.7528076171875 351.7275085449219 L 453.3538818359375 347.2721252441406" stroke-width="0.6000000238418579" fill="rgb(233, 92, 21)" opacity="1.0"/>
    <path d="M 450.49005126953125 67.87179565429688 C 453.75634765625 67.55810546875 457.6256103515625 66.84465026855469 458.9161376953125 63.81556701660156 C 459.3828125 62.590118408203125 459.457763671875 61.25006103515625 459.1304931640625 59.980255126953125 C 458.40545654296875 56.81663513183594 456.1920166015625 54.20068359375 453.1920166015625 52.961944580078125 C 450.64453125 51.917694091796875 447.81536865234375 52.017059326171875 445.08367919921875 52.176544189453125 C 443.54931640625 52.26863098144531 441.9219970703125 52.41532897949219 440.70086669921875 53.334930419921875 C 439.083251953125 54.57403564453125 438.664306640625 56.8231201171875 438.596923828125 58.85906982421875 C 438.49462890625 61.83856201171875 438.87530517578125 64.81497192382812 439.72412109375 67.6728515625 C 440.019287109375 68.65972900390625 440.3944091796875 69.67271423339844 441.14697265625 70.37553405761719 C 441.880126953125 70.99322509765625 442.7772216796875 71.38424682617188 443.728759765625 71.50091552734375 C 446.6014404296875 71.96708679199219 449.5340576171875 71.14962768554688 451.7513427734375 69.26460266113281 L 450.49005126953125 67.87179565429688" stroke-width="0.6000000238418579" fill="rgb(70, 150, 179)" opacity="1.0"/>
    <path d="M 456.8184814453125 401.8154602050781 C 456.89739990234375 398.9263000488281 456.863525390625 395.7205810546875 454.91461181640625 393.58880615234375 C 452.8197021484375 391.300048828125 449.1551513671875 391.135498046875 446.26263427734375 392.25799560546875 C 445.147216796875 392.6903076171875 444.05859375 393.318359375 443.3812255859375 394.3042297363281 C 442.8240966796875 395.1144714355469 442.5882568359375 396.09796142578125 442.41656494140625 397.06591796875 C 441.87152099609375 400.1177673339844 441.9119873046875 403.4996032714844 443.7069091796875 406.0264892578125 C 445.517578125 408.57196044921875 449.05426025390625 409.7505798339844 452.027099609375 408.78216552734375 C 454.9998779296875 407.8137512207031 457.18975830078125 404.8026428222656 457.169677734375 401.6741027832031 L 456.8184814453125 401.8154602050781" stroke-width="0.6000000238418579" fill="rgb(140, 28, 33)" opacity="1.0"/>
    <path d="M 124.3675537109375 213.02310180664062 C 119.33749389648438 217.06024169921875 114.14794921875 221.31658935546875 111.26605224609375 227.09197998046875 C 108.38423156738281 232.86724853515625 108.49261474609375 240.68658447265625 113.24559020996094 245.05169677734375 C 119.12466430664062 250.4268798828125 129.4522247314453 247.71755981445312 134.02145385742188 241.17474365234375 C 138.5906982421875 234.63189697265625 138.54676818847656 225.85940551757812 136.63397216796875 218.12188720703125 C 136.28182983398438 215.6673583984375 135.0224151611328 213.43408203125 133.1042022705078 211.86279296875 C 131.06396484375 210.52542114257812 127.59286499023438 211.27890014648438 127.1710205078125 213.69390869140625 L 124.3675537109375 213.02310180664062" stroke-width="0.6000000238418579" fill="rgb(159, 159, 159)" opacity="1.0"/>
    <path d="M 106.91726684570312 240.240966796875 C 101.63088989257812 238.62017822265625 95.67404174804688 238.7752685546875 90.80558776855469 241.39044189453125 C 85.9371337890625 244.005615234375 82.3887939453125 249.26806640625 82.52163696289062 254.81619262695312 C 82.62051391601562 258.7386779785156 84.50677490234375 262.486083984375 87.21917724609375 265.3260498046875 C 89.93157958984375 268.166015625 93.41554260253906 270.17041015625 97.05101013183594 271.6574401855469 C 98.63346862792969 272.3036193847656 100.34013366699219 272.86688232421875 102.018310546875 272.5662536621094 C 103.94245910644531 272.22247314453125 105.47444152832031 270.8100280761719 106.82664489746094 269.390380859375 C 110.64413452148438 265.38238525390625 113.99278259277344 260.63665771484375 114.92706298828125 255.18026733398438 C 115.861328125 249.723876953125 113.83599853515625 243.48944091796875 109.0445556640625 240.744384765625 L 106.91726684570312 240.240966796875" stroke-width="0.6000000238418579" fill="rgb(159, 159, 159)" opacity="1.0"/>
    <path d="M 288.98956298828125 90.47537231445312 C 287.1285095214844 95.8670654296875 285.2934265136719 101.9407958984375 287.73388671875 107.0838623046875 C 290.1002197265625 112.08883666992188 295.70758056640625 114.55325317382812 300.89013671875 116.50724792480469 C 302.99664306640625 117.29794311523438 305.2129821777344 118.09152221679688 307.4416809082031 117.79194641113281 C 311.21142578125 117.2874755859375 313.8767395019531 113.8690185546875 315.5701599121094 110.46968078613281 C 317.1431884765625 107.31512451171875 318.2550964355469 103.9510498046875 318.8718566894531 100.48040771484375 C 319.8753356933594 94.84544372558594 319.1657409667969 88.21627807617188 314.6158142089844 84.74717712402344 C 312.1622009277344 82.8707275390625 308.9231262207031 82.23187255859375 305.8339538574219 82.39797973632812 C 302.7447814941406 82.56411743164062 299.74749755859375 83.4774169921875 296.8013610839844 84.4212646484375 C 293.8552551269531 85.36508178710938 290.9805908203125 86.3555908203125 288.7364196777344 88.37638854980469 L 288.98956298828125 90.47537231445312" stroke-width="0.6000000238418579" fill="rgb(218, 166, 20)" opacity="1.0"/>
    <path d="M 227.54403686523438 121.82267761230469 C 220.90594482421875 114.49404907226562 209.58367919921875 113.93426513671875 202.25506591796875 120.57235717773438 C 201.62750244140625 121.14076232910156 201.04107666015625 121.75299072265625 200.50018310546875 122.4044189453125 C 198.44528198242188 124.88002014160156 197.049560546875 128.06919860839844 197.3741455078125 131.2685546875 C 197.648193359375 133.97225952148438 199.09579467773438 136.40896606445312 200.7271728515625 138.58010864257812 C 205.10205078125 144.3856964111328 210.95162963867188 148.91400146484375 217.668212890625 151.6946258544922 C 219.44482421875 152.4266357421875 221.33355712890625 153.04061889648438 223.25469970703125 152.90943908691406 C 226.4801025390625 152.69110107421875 229.2484130859375 150.372314453125 230.96188354492188 147.62828063964844 C 233.50860595703125 143.55618286132812 234.16656494140625 138.4581756591797 233.24017333984375 133.74435424804688 C 232.31378173828125 129.03054809570312 229.90020751953125 124.68894958496094 226.75762939453125 121.05601501464844 L 227.54403686523438 121.82267761230469" stroke-width="0.6000000238418579" fill="rgb(143, 165, 67)" opacity="1.0"/>
    <path d="M 209.08099365234375 90.12725830078125 C 210.90499877929688 101.49703979492188 227.5941162109375 106.52774047851562 235.94525146484375 98.70748901367188 C 244.29629516601562 90.88720703125 240.990234375 74.64065551757812 230.49786376953125 69.88786315917969 C 220.0054931640625 65.13507080078125 206.240478515625 72.31082153320312 203.30535888671875 83.46026611328125 L 209.08099365234375 90.12725830078125" stroke-width="0.6000000238418579" fill="rgb(233, 92, 21)" opacity="1.0"/>
    <path d="M 204.3116455078125 95.28034973144531 C 201.63265991210938 90.26313781738281 197.91217041015625 84.54780578613281 192.205322265625 84.5018310546875 C 189.93353271484375 84.57191467285156 187.73944091796875 85.34521484375 185.92578125 86.71511840820312 C 181.34713745117188 89.98382568359375 178.63681030273438 95.26904296875 178.65432739257812 100.89474487304688 C 178.681396484375 105.66685485839844 180.72613525390625 110.12744140625 182.80206298828125 114.39199829101562 C 183.97207641601562 116.78567504882812 185.2913818359375 119.29159545898438 187.57672119140625 120.63258361816406 C 190.6375732421875 122.39501953125 194.51544189453125 121.56625366210938 197.81793212890625 120.31698608398438 C 202.65341186523438 118.4947509765625 207.16204833984375 115.90185546875 211.16900634765625 112.63887023925781 C 212.55133056640625 111.5087890625 213.92214965820312 110.23345947265625 214.54510498046875 108.56089782714844 C 215.04473876953125 106.97610473632812 215.072509765625 105.28013610839844 214.62493896484375 103.67984008789062 C 213.45611572265625 98.772705078125 210.19354248046875 94.62528991699219 205.69952392578125 92.33395385742188 L 204.3116455078125 95.28034973144531" stroke-width="0.6000000238418579" fill="rgb(70, 150, 179)" opacity="1.0"/>
    <path d="M 256.06585693359375 127.99757385253906 C 250.47686767578125 128.901611328125 244.31985473632812 130.1383514404297 240.92950439453125 134.6680908203125 C 237.2904052734375 139.53622436523438 238.31292724609375 146.648681640625 241.5302734375 151.80514526367188 C 242.7698974609375 153.79379272460938 244.37643432617188 155.65927124023438 246.52130126953125 156.6025390625 C 248.28421020507812 157.378662109375 250.26312255859375 157.47317504882812 252.188720703125 157.44979858398438 C 258.2611389160156 157.3834228515625 264.7546691894531 156.069580078125 268.9617004394531 151.69189453125 C 273.1986999511719 147.2769317626953 274.1744689941406 140.03985595703125 271.2243347167969 134.6726531982422 C 268.2742004394531 129.3054656982422 261.6789855957031 126.19143676757812 255.66546630859375 127.37345886230469 L 256.06585693359375 127.99757385253906" stroke-width="0.6000000238418579" fill="rgb(140, 28, 33)" opacity="1.0"/>
    <path d="M 293.6207275390625 120.39715576171875 C 287.90240478515625 123.10142517089844 281.9819641113281 125.97842407226562 277.91644287109375 130.83042907714844 C 273.85101318359375 135.68238830566406 272.1719055175781 143.1657257080078 275.7105712890625 148.4129638671875 C 280.0931396484375 154.88038635253906 290.5619201660156 154.6503143310547 296.411865234375 149.4508819580078 C 302.2618408203125 144.25144958496094 304.2197265625 135.8736114501953 304.15899658203125 128.05697631835938 C 304.38262939453125 125.63539123535156 303.6903991699219 123.21804809570312 302.2188720703125 121.28195190429688 C 300.5776062011719 119.54119873046875 297.0948486328125 119.46864318847656 296.1419372558594 121.67610168457031 L 293.6207275390625 120.39715576171875" stroke-width="0.6000000238418579" fill="rgb(159, 159, 159)" opacity="1.0"/>
    <path d="M 196.82098388671875 133.61080932617188 C 193.3616943359375 128.50413513183594 188.077392578125 124.471435546875 182.0177001953125 123.33773803710938 C 175.95797729492188 122.20401000976562 169.1932373046875 124.29403686523438 165.42715454101562 129.2076416015625 C 162.76889038085938 132.68499755859375 161.7861328125 137.2606964111328 162.15603637695312 141.6259002685547 C 162.52593994140625 145.99111938476562 164.15081787109375 150.1700897216797 166.269287109375 154.0055389404297 C 167.19216918945312 155.67410278320312 168.281005859375 157.35751342773438 169.949462890625 158.27035522460938 C 171.86181640625 159.31777954101562 174.18109130859375 159.16232299804688 176.34918212890625 158.87481689453125 C 182.47015380859375 158.06304931640625 188.69989013671875 156.2823486328125 193.3289794921875 152.19500732421875 C 197.95806884765625 148.10765075683594 200.5599365234375 141.27371215820312 198.31719970703125 135.53646850585938 L 196.82098388671875 133.61080932617188" stroke-width="0.6000000238418579" fill="rgb(159, 159, 159)" opacity="1.0"/>
    <path d="M 277.1133117675781 99.05764770507812 C 271.80975341796875 99.40289306640625 265.9295959472656 100.01638793945312 262.3907775878906 103.9677734375 C 258.9438781738281 107.8056640625 258.8485107421875 113.51210021972656 259.0384826660156 118.66946411132812 C 259.1187438964844 120.76445007324219 259.2361145019531 122.95484924316406 260.29718017578125 124.76168823242188 C 262.0899658203125 127.81869506835938 265.9881591796875 128.8759765625 269.51947021484375 129.10516357421875 C 272.7970275878906 129.31915283203125 276.0883483886719 129.0614013671875 279.29266357421875 128.3397979736328 C 284.4959716796875 127.17001342773438 289.9357604980469 124.16986083984375 291.2756652832031 119.00970458984375 C 292.00311279296875 116.2249755859375 291.38397216796875 113.21162414550781 290.1273193359375 110.61737060546875 C 288.8706359863281 108.02310180664062 287.005126953125 105.7772216796875 285.1318359375 103.5863037109375 C 283.258544921875 101.3953857421875 281.37091064453125 99.28271484375 278.825439453125 98.083251953125 L 277.1133117675781 99.05764770507812" stroke-width="0.6000000238418579" fill="rgb(218, 166, 20)" opacity="1.0"/>
    <path d="M 228.1339111328125 114.45205688476562 C 227.68524169921875 123.93502807617188 235.00897216796875 131.9862060546875 244.491943359375 132.43490600585938 C 245.303955078125 132.47332763671875 246.11767578125 132.45408630371094 246.927001953125 132.37734985351562 C 250.00213623046875 132.085205078125 253.11221313476562 130.86102294921875 255.05880737304688 128.4644775390625 C 256.7040100097656 126.43939208984375 257.36993408203125 123.80093383789062 257.73089599609375 121.21861267089844 C 258.6875305175781 114.3050537109375 257.7756042480469 107.26145935058594 255.08978271484375 100.81948852539062 C 254.37698364257812 99.11788940429688 253.50799560546875 97.420654296875 252.112060546875 96.20838928222656 C 249.76980590820312 94.171875 246.3155517578125 93.8740234375 243.29083251953125 94.580078125 C 238.79953002929688 95.62518310546875 234.89822387695312 98.6478271484375 232.3350830078125 102.482421875 C 229.77191162109375 106.31697082519531 228.47271728515625 110.90582275390625 228.14959716796875 115.50642395019531 L 228.1339111328125 114.45205688476562" stroke-width="0.6000000238418579" fill="rgb(143, 165, 67)" opacity="1.0"/>
    <path d="M 250.43807983398438 86.24143981933594 C 250.36093139648438 97.77035522460938 266.0102233886719 105.49530029296875 275.5488586425781 99.15249633789062 C 285.0874328613281 92.80964660644531 284.5067443847656 76.22012329101562 274.9307556152344 69.79336547851562 C 265.35479736328125 63.366607666015625 250.57647705078125 68.17855834960938 245.83609008789062 78.70367431640625 L 250.43807983398438 86.24143981933594" stroke-width="0.6000000238418579" fill="rgb(233, 92, 21)" opacity="1.0"/>
    <path d="M 338.1485290527344 71.01779174804688 C 335.6274108886719 66.41632080078125 332.13861083984375 61.181243896484375 326.8739013671875 61.195587158203125 C 324.7789611816406 61.2828369140625 322.7627258300781 62.01800537109375 321.1033630371094 63.299713134765625 C 316.91229248046875 66.3604736328125 314.4647216796875 71.26275634765625 314.536865234375 76.45199584960938 C 314.60931396484375 80.85374450683594 316.5398254394531 84.94805908203125 318.4971923828125 88.86123657226562 C 319.60028076171875 91.05764770507812 320.8421936035156 93.35610961914062 322.9636535644531 94.57034301757812 C 325.80462646484375 96.16566467285156 329.3735046386719 95.36259460449219 332.4074401855469 94.1773681640625 C 336.84979248046875 92.44833374023438 340.9830322265625 90.01168823242188 344.6467590332031 86.96189880371094 C 345.9106140136719 85.90571594238281 347.1624450683594 84.71565246582031 347.720458984375 83.16659545898438 C 348.16558837890625 81.69973754882812 348.17431640625 80.13502502441406 347.74554443359375 78.66328430175781 C 346.6185607910156 74.14834594726562 343.5677490234375 70.35502624511719 339.39947509765625 68.28610229492188 L 338.1485290527344 71.01779174804688" stroke-width="0.6000000238418579" fill="rgb(70, 150, 179)" opacity="1.0"/>
    <path d="M 335.14263916015625 137.82066345214844 C 335.7699890136719 131.70301818847656 336.20849609375 124.89576721191406 332.4127197265625 120.06227111816406 C 328.3320617675781 114.87246704101562 320.58294677734375 113.93989562988281 314.266845703125 115.86111450195312 C 311.831298828125 116.60081481933594 309.4215393066406 117.76010131835938 307.8273620605469 119.74407958984375 C 306.5162353515625 121.37454223632812 305.8591613769531 123.42373657226562 305.3408203125 125.45022583007812 C 303.698486328125 131.83883666992188 303.2459716796875 139.02084350585938 306.6520080566406 144.6681365966797 C 310.0887145996094 150.3573760986328 317.4051818847656 153.4212646484375 323.86700439453125 151.8397674560547 C 330.3288269042969 150.25827026367188 335.45477294921875 144.2179412841797 335.91021728515625 137.57659912109375 L 335.14263916015625 137.82066345214844" stroke-width="0.6000000238418579" fill="rgb(140, 28, 33)" opacity="1.0"/>
    <path d="M 348.98980712890625 96.19692993164062 C 343.421142578125 94.28826904296875 337.6055603027344 92.36358642578125 331.7449035644531 92.96005249023438 C 325.8843078613281 93.5565185546875 319.9068908691406 97.45675659179688 318.8604431152344 103.25291442871094 C 317.5846862792969 110.41055297851562 324.7150573730469 117.05279541015625 331.9912109375 117.38302612304688 C 339.2673645019531 117.7132568359375 346.0113220214844 113.39749145507812 351.0448913574219 108.14561462402344 C 352.7659606933594 106.67596435546875 353.87353515625 104.6146240234375 354.1490478515625 102.36833190917969 C 354.1845703125 100.14212036132812 351.90924072265625 97.83294677734375 349.8408508300781 98.6864013671875 L 348.98980712890625 96.19692993164062" stroke-width="0.6000000238418579" fill="rgb(159, 159, 159)" opacity="1.0"/>
    <path d="M 344.8142395019531 117.17160034179688 C 339.96923828125 119.80096435546875 335.9195556640625 124.1475830078125 334.38031005859375 129.43783569335938 C 332.8410949707031 134.72808837890625 334.1073303222656 140.92782592773438 338.1476135253906 144.70791625976562 C 341.00750732421875 147.37686157226562 344.9910888671875 148.65182495117188 348.9059753417969 148.70526123046875 C 352.82086181640625 148.7587127685547 356.6800537109375 147.6796417236328 360.2769470214844 146.1314697265625 C 361.8418273925781 145.4568328857422 363.4344787597656 144.63589477539062 364.3925476074219 143.23190307617188 C 365.4916687011719 141.62278747558594 365.5566101074219 139.54638671875 365.4908447265625 137.59286499023438 C 365.30511474609375 132.0776824951172 364.26708984375 126.38088989257812 361.0373229980469 121.90560913085938 C 357.8075256347656 117.43034362792969 351.9573059082031 114.51748657226562 346.65802001953125 116.00958251953125 L 344.8142395019531 117.17160034179688" stroke-width="0.6000000238418579" fill="rgb(159, 159, 159)" opacity="1.0"/>
    <path d="M 365.6063537597656 89.26486206054688 C 360.6961975097656 89.67338562011719 355.25604248046875 90.34019470214844 352.0418395996094 94.06182861328125 C 348.9109191894531 97.67672729492188 348.9177551269531 102.96768188476562 349.179931640625 107.74491882324219 C 349.289306640625 109.68545532226562 349.43463134765625 111.71379089355469 350.44830322265625 113.37086486816406 C 352.16107177734375 116.17449951171875 355.7919921875 117.08944702148438 359.06903076171875 117.24295043945312 C 362.110595703125 117.3865966796875 365.15704345703125 117.09274291992188 368.1151123046875 116.37042236328125 C 372.9186096191406 115.19929504394531 377.91070556640625 112.32763671875 379.0665588378906 107.52226257324219 C 379.6943664550781 104.92892456054688 379.0702209472656 102.14616394042969 377.8620910644531 99.76248168945312 C 376.6539611816406 97.37881469726562 374.8873291015625 95.32821655273438 373.1143798828125 93.32870483398438 C 371.3414611816406 91.32917785644531 369.5565185546875 89.40243530273438 367.1770935058594 88.3331298828125 L 365.6063537597656 89.26486206054688" stroke-width="0.6000000238418579" fill="rgb(218, 166, 20)" opacity="1.0"/>
    <path d="M 428.90679931640625 138.66815185546875 C 420.48388671875 138.8995361328125 413.84332275390625 145.9152374267578 414.07470703125 154.33815002441406 C 414.09454345703125 155.05941772460938 414.16552734375 155.77835083007812 414.28704833984375 156.48956298828125 C 414.7493896484375 159.19195556640625 416.0390625 161.86349487304688 418.2891845703125 163.42755126953125 C 420.19061279296875 164.74945068359375 422.57000732421875 165.16400146484375 424.8795166015625 165.31231689453125 C 431.06195068359375 165.7008056640625 437.23565673828125 164.42681884765625 442.75927734375 161.62271118164062 C 444.2181396484375 160.8790283203125 445.6627197265625 159.9974365234375 446.64312744140625 158.68157958984375 C 448.2904052734375 156.4735107421875 448.3250732421875 153.39646911621094 447.4996337890625 150.7661590576172 C 446.2769775390625 146.86026000976562 443.3431396484375 143.6076202392578 439.779296875 141.59317016601562 C 436.215576171875 139.57872009277344 432.0679931640625 138.7329559326172 427.974609375 138.7518768310547 L 428.90679931640625 138.66815185546875" stroke-width="0.6000000238418579" fill="rgb(143, 165, 67)" opacity="1.0"/>
    <path d="M 151.29400634765625 405.2908020019531 C 157.40142822265625 413.426025390625 172.51669311523438 410.4856872558594 175.823486328125 400.934814453125 C 179.1302490234375 391.3839111328125 169.85638427734375 380.04742431640625 159.69873046875 380.6532897949219 C 149.5410919189453 381.2591552734375 141.73756408691406 392.5356140136719 144.03460693359375 402.4583435058594 L 151.29400634765625 405.2908020019531" stroke-width="0.6000000238418579" fill="rgb(233, 92, 21)" opacity="1.0"/>
    <path d="M 428.64892578125 198.06387329101562 C 424.1805419921875 195.58013916015625 418.5853271484375 193.07672119140625 414.2528076171875 195.82318115234375 C 412.5711669921875 196.98321533203125 411.2909240722656 198.63653564453125 410.5887451171875 200.55502319335938 C 408.7236328125 205.25509643554688 409.2523193359375 210.567626953125 412.0072021484375 214.80792236328125 C 414.353271484375 218.39889526367188 418.07135009765625 220.77130126953125 421.71746826171875 222.98046875 C 423.7677001953125 224.2181396484375 425.9853515625 225.4677734375 428.3648681640625 225.36685180664062 C 431.53546142578125 225.206298828125 434.060302734375 222.69052124023438 435.94580078125 220.13760375976562 C 438.709716796875 216.40481567382812 440.851318359375 212.249267578125 442.2874755859375 207.8321533203125 C 442.78070068359375 206.30499267578125 443.19451904296875 204.67376708984375 442.84991455078125 203.10696411132812 C 442.4549560546875 201.66653442382812 441.6494140625 200.37213134765625 440.531494140625 199.381591796875 C 437.25732421875 196.24505615234375 432.77203369140625 194.70269775390625 428.26123046875 195.1622314453125 L 428.64892578125 198.06387329101562" stroke-width="0.6000000238418579" fill="rgb(70, 150, 179)" opacity="1.0"/>
    <path d="M 414.82122802734375 161.14422607421875 C 414.31329345703125 155.40353393554688 413.50921630859375 149.061767578125 409.158935546875 145.2873992919922 C 404.48333740234375 141.2356719970703 397.1872253417969 141.75216674804688 391.7160339355469 144.64048767089844 C 389.6060791015625 145.7532196044922 387.59429931640625 147.24745178222656 386.47930908203125 149.35589599609375 C 385.5620422363281 151.0888214111328 385.3209228515625 153.09103393554688 385.20343017578125 155.04774475097656 C 384.82550048828125 161.21780395507812 385.6831359863281 167.90689086914062 389.8191223144531 172.499267578125 C 393.99078369140625 177.12478637695312 401.2668762207031 178.646240234375 406.93243408203125 176.044677734375 C 412.59796142578125 173.443115234375 416.2432861328125 166.97555541992188 415.4842529296875 160.783447265625 L 414.82122802734375 161.14422607421875" stroke-width="0.6000000238418579" fill="rgb(140, 28, 33)" opacity="1.0"/>
    <path d="M 146.9424285888672 132.58157348632812 C 140.68190002441406 133.83694458007812 134.18130493164062 135.21226501464844 129.01638793945312 138.9742889404297 C 123.85157775878906 142.7362823486328 120.38299560546875 149.65745544433594 122.57052612304688 155.6598663330078 C 125.28732299804688 163.06317138671875 135.59820556640625 165.38919067382812 142.5957794189453 161.72174072265625 C 149.59335327148438 158.05429077148438 153.552978515625 150.3248291015625 155.39852905273438 142.6531524658203 C 156.207763671875 140.33555603027344 156.11880493164062 137.79893493652344 155.14920043945312 135.54376220703125 C 153.96572875976562 133.4385986328125 150.57183837890625 132.51873779296875 149.1004180908203 134.44883728027344 L 146.9424285888672 132.58157348632812" stroke-width="0.6000000238418579" fill="rgb(159, 159, 159)" opacity="1.0"/>
    <path d="M 436.75390625 167.123779296875 C 431.8846435546875 164.89559936523438 426.1458740234375 164.28720092773438 421.139404296875 166.17904663085938 C 416.1328125 168.07086181640625 412.05712890625 172.672119140625 411.47930908203125 178.01565551757812 C 411.0755920410156 181.79412841796875 412.41015625 185.6317138671875 414.6531982421875 188.703125 C 416.896240234375 191.7745361328125 419.986328125 194.14181518554688 423.28759765625 196.03167724609375 C 424.7247314453125 196.85321044921875 426.2916259765625 197.61099243164062 427.9410400390625 197.53570556640625 C 429.83209228515625 197.45025634765625 431.48248291015625 196.2889404296875 432.961181640625 195.097900390625 C 437.1357421875 191.7352294921875 440.9541015625 187.60467529296875 442.54473876953125 182.48492431640625 C 444.1353759765625 177.3651123046875 442.9835205078125 171.12210083007812 438.7322998046875 167.87750244140625 L 436.75390625 167.123779296875" stroke-width="0.6000000238418579" fill="rgb(159, 159, 159)" opacity="1.0"/>
    <path d="M 413.92236328125 193.90765380859375 C 413.2120361328125 188.534912109375 412.18963623046875 182.59359741210938 407.9296875 179.26055908203125 C 403.7914123535156 176.01333618164062 397.9788818359375 176.30267333984375 392.7443542480469 176.84515380859375 C 390.61822509765625 177.06866455078125 388.39752197265625 177.33639526367188 386.6309814453125 178.538330078125 C 383.6419677734375 180.56939697265625 382.8301696777344 184.60723876953125 382.8360900878906 188.2156982421875 C 382.84027099609375 191.56497192382812 383.32537841796875 194.89630126953125 384.27655029296875 198.107666015625 C 385.8190612792969 203.32266235351562 389.2398986816406 208.65426635742188 394.58087158203125 209.66818237304688 C 397.4634704589844 210.21978759765625 400.4875183105469 209.38580322265625 403.0419616699219 207.93157958984375 C 405.596435546875 206.477294921875 407.7552185058594 204.42715454101562 409.8575439453125 202.372802734375 C 411.95989990234375 200.3184814453125 413.98162841796875 198.25482177734375 415.0296630859375 195.583740234375 L 413.92236328125 193.90765380859375" stroke-width="0.6000000238418579" fill="rgb(218, 166, 20)" opacity="1.0"/>
    <path d="M 440.33135986328125 190.9974365234375 C 439.5562744140625 200.02532958984375 446.2464599609375 207.97222900390625 455.2744140625 208.747314453125 C 456.0474853515625 208.813720703125 456.82421875 208.82513427734375 457.59893798828125 208.78158569335938 C 460.54254150390625 208.61553955078125 463.5535888671875 207.56182861328125 465.4979248046875 205.347412109375 C 467.14111328125 203.4761962890625 467.872802734375 200.98416137695312 468.3116455078125 198.53448486328125 C 469.47711181640625 191.97576904296875 468.865234375 185.22454833984375 466.5394287109375 178.98223876953125 C 465.92193603515625 177.333251953125 465.1552734375 175.68270874023438 463.8682861328125 174.47540283203125 C 461.70892333984375 172.44735717773438 458.42529296875 172.03680419921875 455.5146484375 172.5994873046875 C 451.19287109375 173.43182373046875 447.361328125 176.17184448242188 444.7763671875 179.7352294921875 C 442.19140625 183.298583984375 440.7843017578125 187.62762451171875 440.30767822265625 192.00360107421875 L 440.33135986328125 190.9974365234375" stroke-width="0.6000000238418579" fill="rgb(143, 165, 67)" opacity="1.0"/>
    <path d="M 143.6084747314453 96.2679443359375 C 132.40280151367188 104.54583740234375 136.2696075439453 125.27706909179688 149.3143768310547 129.90673828125 C 162.35919189453125 134.53634643554688 177.982421875 121.95590209960938 177.26019287109375 108.03875732421875 C 176.5379638671875 94.12162780761719 161.17758178710938 83.31552124023438 147.56427001953125 86.35629272460938 L 143.6084747314453 96.2679443359375" stroke-width="0.6000000238418579" fill="rgb(233, 92, 21)" opacity="1.0"/>
    <path d="M 451.2215576171875 149.90579223632812 C 446.579833984375 153.66937255859375 441.425537109375 158.646484375 442.51556396484375 164.542724609375 C 443.0406494140625 166.872314453125 444.275634765625 168.9815673828125 446.05029296875 170.5794677734375 C 450.3348388671875 174.6512451171875 456.32720947265625 176.39376831054688 462.1270751953125 175.25445556640625 C 467.04449462890625 174.275390625 471.2384033203125 171.27703857421875 475.22393798828125 168.28558349609375 C 477.46002197265625 166.60150146484375 479.7821044921875 164.74105834960938 480.7099609375 162.11627197265625 C 481.91802978515625 158.60751342773438 480.2901611328125 154.77235412597656 478.34326171875 151.6145477294922 C 475.4996337890625 146.98953247070312 471.92626953125 142.85525512695312 467.7615966796875 139.37210083007812 C 466.3203125 138.17137145996094 464.73150634765625 137.01144409179688 462.8819580078125 136.7021942138672 C 461.1474609375 136.5026092529297 459.3924560546875 136.81202697753906 457.830810546875 137.59268188476562 C 453.00164794921875 139.77642822265625 449.37353515625 143.9687042236328 447.905517578125 149.06130981445312 L 451.2215576171875 149.90579223632812" stroke-width="0.6000000238418579" fill="rgb(70, 150, 179)" opacity="1.0"/>
    <path d="M 380.12261962890625 80.0963134765625 C 381.5742492675781 73.79595947265625 382.918701171875 66.75155639648438 379.5886535644531 61.214508056640625 C 376.0078430175781 55.268646240234375 368.04522705078125 53.2860107421875 361.20574951171875 54.46728515625 C 358.56854248046875 54.921600341796875 355.9035339355469 55.81700134277344 353.98193359375 57.67903137207031 C 352.40167236328125 59.209136962890625 351.44915771484375 61.26129150390625 350.64434814453125 63.307861328125 C 348.09857177734375 69.75863647460938 346.690673828125 77.19215393066406 349.5080871582031 83.52740478515625 C 352.35205078125 89.910400390625 359.5856018066406 94.06008911132812 366.5328369140625 93.25222778320312 C 373.4800720214844 92.4443359375 379.6146545410156 86.81080627441406 380.9551696777344 79.94171142578125 L 380.12261962890625 80.0963134765625" stroke-width="0.6000000238418579" fill="rgb(140, 28, 33)" opacity="1.0"/>
    <path d="M 131.10150146484375 407.4700622558594 C 126.93057250976562 413.85992431640625 122.66090393066406 420.554931640625 121.54486083984375 428.109130859375 C 120.42886352539062 435.6632080078125 123.42709350585938 444.415771484375 130.37725830078125 447.57568359375 C 138.96522521972656 451.4571533203125 149.58135986328125 444.61163330078125 152.31240844726562 435.57373046875 C 155.04345703125 426.535888671875 151.76708984375 416.6878662109375 146.77000427246094 408.6911315917969 C 145.4711151123047 406.0606689453125 143.2334747314453 404.0127868652344 140.49853515625 402.9515686035156 C 137.71246337890625 402.1982727050781 134.08656311035156 404.3223571777344 134.50059509277344 407.193115234375 L 131.10150146484375 407.4700622558594" stroke-width="0.6000000238418579" fill="rgb(159, 159, 159)" opacity="1.0"/>
    <path d="M 417.68414306640625 220.84109497070312 C 412.98394775390625 215.39352416992188 406.31494140625 211.43765258789062 399.14056396484375 210.94561767578125 C 391.9661865234375 210.45358276367188 384.4119873046875 213.79208374023438 380.7147216796875 219.9954833984375 C 378.1062927246094 224.3846435546875 377.5879821777344 229.81924438476562 378.6082763671875 234.82656860351562 C 379.62860107421875 239.83392333984375 382.07769775390625 244.455322265625 385.05206298828125 248.61187744140625 C 386.3475036621094 250.419921875 387.83721923828125 252.22268676757812 389.89404296875 253.05410766601562 C 392.2516784667969 254.0084228515625 394.91766357421875 253.51388549804688 397.390625 252.88687133789062 C 404.37225341796875 251.11663818359375 411.3485412597656 248.20895385742188 416.15765380859375 242.84588623046875 C 420.966796875 237.48281860351562 423.0548095703125 229.21237182617188 419.67864990234375 222.86932373046875 L 417.68414306640625 220.84109497070312" stroke-width="0.6000000238418579" fill="rgb(159, 159, 159)" opacity="1.0"/>
    <path d="M 384.8179626464844 111.70304870605469 C 378.6234436035156 112.17713928222656 371.75848388671875 112.97247314453125 367.6746826171875 117.63816833496094 C 363.6968078613281 122.16998291015625 363.6612243652344 128.84127807617188 363.951904296875 134.8669891357422 C 364.0735778808594 137.31468200683594 364.2398986816406 139.87338256835938 365.5041809082031 141.97122192382812 C 367.6403503417969 145.5205841064453 372.21087646484375 146.7045440673828 376.3415222167969 146.92544555664062 C 380.1753845214844 147.13197326660156 384.01904296875 146.7869110107422 387.7548522949219 145.9008331298828 C 393.8212585449219 144.4643096923828 400.1396789550781 140.88519287109375 401.63720703125 134.83584594726562 C 402.450439453125 131.57119750976562 401.6866760253906 128.0572509765625 400.1833190917969 125.04164123535156 C 398.679931640625 122.02603149414062 396.4695129394531 119.42572021484375 394.250732421875 116.8897705078125 C 392.031982421875 114.35379028320312 389.7974853515625 111.90948486328125 386.8062438964844 110.54135131835938 L 384.8179626464844 111.70304870605469" stroke-width="0.6000000238418579" fill="rgb(218, 166, 20)" opacity="1.0"/>
    <path d="M 403.9261169433594 82.76145935058594 C 395.6092224121094 76.55850219726562 383.83856201171875 78.27218627929688 377.6356201171875 86.58906555175781 C 377.10443115234375 87.30123901367188 376.6244812011719 88.05020141601562 376.1993103027344 88.83030700683594 C 374.58428955078125 91.79483032226562 373.79229736328125 95.3607177734375 374.77362060546875 98.58912658691406 C 375.6026306152344 101.31744384765625 377.5859069824219 103.53350830078125 379.7047424316406 105.43896484375 C 385.38336181640625 110.53155517578125 392.3219909667969 114.01077270507812 399.7998352050781 115.51522827148438 C 401.7771301269531 115.90956115722656 403.8459167480469 116.15971374511719 405.79742431640625 115.63607788085938 C 409.0741271972656 114.7589111328125 411.45538330078125 111.81155395507812 412.66455078125 108.63972473144531 C 414.46307373046875 103.93197631835938 414.109375 98.54995727539062 412.2021484375 93.88397216796875 C 410.294921875 89.21798706054688 406.9317932128906 85.23602294921875 402.9613342285156 82.13116455078125 L 403.9261169433594 82.76145935058594" stroke-width="0.6000000238418579" fill="rgb(143, 165, 67)" opacity="1.0"/>
    <path d="M 118.11825561523438 426.977294921875 C 112.72354125976562 415.268310546875 93.21246337890625 414.8760986328125 86.56613159179688 425.82586669921875 C 79.91986083984375 436.775634765625 88.38290405273438 453.2958984375 101.12882995605469 455.2568359375 C 113.87477111816406 457.2177734375 126.55268859863281 445.33062744140625 126.35572814941406 432.42431640625 L 118.11825561523438 426.977294921875" stroke-width="0.6000000238418579" fill="rgb(233, 92, 21)" opacity="1.0"/>
    <path d="M 449.53424072265625 213.2557373046875 C 442.994873046875 213.65921020507812 435.2252197265625 214.81939697265625 432.443603515625 220.77606201171875 C 431.42889404296875 223.18963623046875 431.1881103515625 225.858642578125 431.75457763671875 228.41482543945312 C 432.98590087890625 234.77725219726562 437.2247314453125 240.148193359375 443.12677001953125 242.82440185546875 C 448.13916015625 245.081787109375 453.7916259765625 245.076171875 459.253662109375 244.94400024414062 C 462.32177734375 244.86477661132812 465.5789794921875 244.68289184570312 468.07843017578125 242.93099975585938 C 471.390869140625 240.56854248046875 472.38006591796875 236.1090087890625 472.65313720703125 232.05084228515625 C 473.0601806640625 226.1121826171875 472.5032958984375 220.14682006835938 471.004150390625 214.3861083984375 C 470.48236083984375 212.39666748046875 469.8028564453125 210.34967041015625 468.3489990234375 208.89593505859375 C 466.92803955078125 207.6134033203125 465.16455078125 206.77200317382812 463.273681640625 206.474365234375 C 457.572998046875 205.34844970703125 451.665283203125 206.7799072265625 447.1123046875 210.3905029296875 L 449.53424072265625 213.2557373046875" stroke-width="0.6000000238418579" fill="rgb(70, 150, 179)" opacity="1.0"/>
    <path d="M 428.7783203125 133.17649841308594 C 430.2421875 127.24693298339844 431.6158447265625 120.61300659179688 428.552001953125 115.33401489257812 C 425.25732421875 109.6651611328125 417.7655029296875 107.67524719238281 411.2879638671875 108.69027709960938 C 408.7903137207031 109.08058166503906 406.2599182128906 109.8870849609375 404.41748046875 111.6175537109375 C 402.9023132324219 113.03952026367188 401.9724426269531 114.96383666992188 401.18212890625 116.88505554199219 C 398.6825256347656 122.94058227539062 397.2432556152344 129.9411163330078 399.8111267089844 135.96649169921875 C 402.40338134765625 142.03736877441406 409.1746520996094 146.06344604492188 415.74847412109375 145.40267944335938 C 422.32232666015625 144.74191284179688 428.19964599609375 139.51113891601562 429.5670166015625 133.04273986816406 L 428.7783203125 133.17649841308594" stroke-width="0.6000000238418579" fill="rgb(140, 28, 33)" opacity="1.0"/>
    <path d="M 386.73516845703125 55.80438232421875 C 387.45367431640625 62.86695861816406 388.2791748046875 70.20805358886719 391.8890075683594 76.32673645019531 C 395.4988098144531 82.4453125 402.786376953125 87.02523803710938 409.6631774902344 85.24754333496094 C 418.14697265625 83.03421020507812 421.82562255859375 71.87309265136719 418.516845703125 63.73646545410156 C 415.2080078125 55.59983825683594 407.0785827636719 50.389892578125 398.78662109375 47.52565002441406 C 396.30859375 46.3818359375 393.4919738769531 46.20849609375 390.8924560546875 47.03990173339844 C 388.4360046386719 48.1240234375 387.0544738769531 51.78123474121094 389.0327453613281 53.6163330078125 L 386.73516845703125 55.80438232421875" stroke-width="0.6000000238418579" fill="rgb(159, 159, 159)" opacity="1.0"/>
    <path d="M 433.5645751953125 243.5030517578125 C 427.203125 246.32968139648438 421.671630859375 251.39739990234375 419.20623779296875 257.9034423828125 C 416.7408447265625 264.40948486328125 417.71630859375 272.3403015136719 422.42529296875 277.50189208984375 C 425.75927734375 281.14697265625 430.646728515625 283.14935302734375 435.56964111328125 283.607177734375 C 440.4925537109375 284.06500244140625 445.458251953125 283.09161376953125 450.140625 281.50152587890625 C 452.17791748046875 280.8083801269531 454.2646484375 279.933837890625 455.61083984375 278.26202392578125 C 457.15496826171875 276.3460388183594 457.44384765625 273.7386474609375 457.555908203125 271.27288818359375 C 457.872314453125 264.3116455078125 457.1339111328125 257.0367126464844 453.5146484375 251.08087158203125 C 449.895263671875 245.125 442.8212890625 240.87451171875 436.00152587890625 242.22421264648438 L 433.5645751953125 243.5030517578125" stroke-width="0.6000000238418579" fill="rgb(159, 159, 159)" opacity="1.0"/>
    <path d="M 417.66973876953125 263.6885070800781 C 413.20538330078125 258.84857177734375 408.03338623046875 253.66213989257812 401.4700927734375 253.33157348632812 C 395.08770751953125 253.0010986328125 389.51641845703125 257.3548889160156 384.6963195800781 261.5557861328125 C 382.7407531738281 263.2652282714844 380.72216796875 265.0847473144531 379.8082580566406 267.5144958496094 C 378.2601318359375 271.6230773925781 380.2785949707031 276.2018737792969 382.80889892578125 279.7821350097656 C 385.15618896484375 283.10614013671875 387.9685974121094 286.0758361816406 391.1600646972656 288.6003723144531 C 396.3406066894531 292.701416015625 403.46856689453125 295.6042785644531 409.48321533203125 292.87493896484375 C 412.73248291015625 291.40618896484375 415.15289306640625 288.46221923828125 416.6729736328125 285.2306213378906 C 418.1929931640625 281.99896240234375 418.903076171875 278.4522399902344 419.55419921875 274.9408264160156 C 420.205322265625 271.429443359375 420.76983642578125 267.9652099609375 419.94219970703125 264.5787048339844 L 417.66973876953125 263.6885070800781" stroke-width="0.6000000238418579" fill="rgb(218, 166, 20)" opacity="1.0"/>
    <path d="M 412.4654541015625 85.71197509765625 C 408.97613525390625 95.49154663085938 414.07537841796875 106.24807739257812 423.85498046875 109.73738098144531 C 424.6923828125 110.03616333007812 425.5499267578125 110.27517700195312 426.421142578125 110.45260620117188 C 429.73187255859375 111.12619018554688 433.37591552734375 110.83566284179688 436.1759033203125 108.94795227050781 C 438.542236328125 107.35292053222656 440.0792236328125 104.80422973632812 441.27923583984375 102.21719360351562 C 444.4818115234375 95.28787231445312 445.7706298828125 87.62744140625 445.01177978515625 80.03163146972656 C 444.807861328125 78.024169921875 444.43902587890625 75.9715576171875 443.364501953125 74.25859069824219 C 441.5621337890625 71.38180541992188 438.04266357421875 69.97015380859375 434.6529541015625 69.7457275390625 C 429.62066650390625 69.40902709960938 424.5760498046875 71.32939147949219 420.6729736328125 74.52545166015625 C 416.7698974609375 77.72149658203125 413.94921875 82.10928344726562 412.14599609375 86.8201904296875 L 412.4654541015625 85.71197509765625" stroke-width="0.6000000238418579" fill="rgb(143, 165, 67)" opacity="1.0"/>
    <path d="M 431.46649169921875 122.71640014648438 C 427.9498291015625 134.83082580566406 442.1231689453125 147.6267547607422 454.0552978515625 143.79156494140625 C 465.9874267578125 139.95631408691406 470.31951904296875 122.31814575195312 462.1531982421875 112.69866943359375 C 453.9869384765625 103.07919311523438 436.99468994140625 103.74139404296875 428.8677978515625 113.40945434570312 L 431.46649169921875 122.71640014648438" stroke-width="0.6000000238418579" fill="rgb(233, 92, 21)" opacity="1.0"/>
    <path d="M 448.5771484375 93.43002319335938 C 447.96612548828125 99.51531982421875 447.867431640625 106.84771728515625 452.937255859375 110.30551147460938 C 455.00836181640625 111.60307312011719 457.43115234375 112.22598266601562 459.8712158203125 112.08822631835938 C 465.91790771484375 111.909912109375 471.5030517578125 108.81185913085938 474.8555908203125 103.77650451660156 C 477.6884765625 99.49786376953125 478.53271484375 94.28947448730469 479.23175048828125 89.23750305175781 C 479.61981201171875 86.39898681640625 479.94171142578125 83.37080383300781 478.70330810546875 80.80477905273438 C 477.0245361328125 77.39804077148438 473.064697265625 75.81658935546875 469.366943359375 74.95518493652344 C 463.9569091796875 73.68775939941406 458.37744140625 73.30435180664062 452.8448486328125 73.81985473632812 C 450.93359375 74.00163269042969 448.945556640625 74.32002258300781 447.3878173828125 75.44100952148438 C 445.99267578125 76.55738830566406 444.9525146484375 78.05561828613281 444.3941650390625 79.75296020507812 C 442.50018310546875 84.83578491210938 442.9312744140625 90.49357604980469 445.57342529296875 95.23077392578125 L 448.5771484375 93.43002319335938" stroke-width="0.6000000238418579" fill="rgb(70, 150, 179)" opacity="1.0"/>
    <path d="M 312.67230224609375 365.9984436035156 C 307.0454406738281 363.267578125 300.69384765625 360.47686767578125 294.7529296875 362.41973876953125 C 288.372314453125 364.5106506347656 284.7813720703125 371.5900573730469 284.4165344238281 378.29449462890625 C 284.2747497558594 380.87939453125 284.5428466796875 383.5858459472656 285.8831481933594 385.8003234863281 C 286.9842529296875 387.6211853027344 288.7133483886719 388.9629821777344 290.4690856933594 390.164306640625 C 296.001220703125 393.95941162109375 302.7060241699219 396.89404296875 309.2887268066406 395.60711669921875 C 315.9222106933594 394.3055114746094 321.3988952636719 388.3820495605469 322.1391296386719 381.65673828125 C 322.87933349609375 374.9314270019531 318.8936767578125 367.9290771484375 312.70654296875 365.17999267578125 L 312.67230224609375 365.9984436035156" stroke-width="0.6000000238418579" fill="rgb(140, 28, 33)" opacity="1.0"/>
    <path d="M 299.4080505371094 393.3819274902344 C 291.8476257324219 391.0365905761719 283.9547119140625 388.679443359375 276.100830078125 389.71282958984375 C 268.2471008300781 390.7461853027344 260.36688232421875 396.224853515625 259.189453125 404.0569763183594 C 257.757568359375 413.7281494140625 267.6042175292969 422.374267578125 277.3973083496094 422.530517578125 C 287.1903991699219 422.686767578125 296.0845031738281 416.6192626953125 302.64263916015625 409.3611755371094 C 304.89788818359375 407.3177490234375 306.30511474609375 404.5032958984375 306.5866394042969 401.4731140136719 C 306.54638671875 398.4794006347656 303.39678955078125 395.4655456542969 300.6503601074219 396.6944580078125 L 299.4080505371094 393.3819274902344" stroke-width="0.6000000238418579" fill="rgb(159, 159, 159)" opacity="1.0"/>
    <path d="M 322.79998779296875 416.3306884765625 C 317.0947265625 420.2569580078125 312.6103820800781 426.2235107421875 311.387451171875 433.03668212890625 C 310.16448974609375 439.849853515625 312.56695556640625 447.4281005859375 318.11505126953125 451.6162109375 C 322.0413818359375 454.57220458984375 327.1871032714844 455.637939453125 332.0852966308594 455.18658447265625 C 336.9835510253906 454.7352294921875 341.66229248046875 452.8763427734375 345.9512939453125 450.466064453125 C 347.817138671875 449.4161376953125 349.69830322265625 448.1796875 350.70947265625 446.298828125 C 351.8697814941406 444.1429443359375 351.67608642578125 441.5401611328125 351.33538818359375 439.108154296875 C 350.37347412109375 432.2421875 348.3226623535156 425.26214599609375 343.6952209472656 420.0982666015625 C 339.0677185058594 414.9344482421875 331.3730773925781 412.06939697265625 324.94976806640625 414.6348876953125 L 322.79998779296875 416.3306884765625" stroke-width="0.6000000238418579" fill="rgb(159, 159, 159)" opacity="1.0"/>
    <path d="M 257.73895263671875 412.93310546875 C 250.6552734375 412.842529296875 242.77752685546875 413.0487060546875 237.66549682617188 417.9332275390625 C 232.68734741210938 422.6763916015625 231.96954345703125 430.24981689453125 231.68780517578125 437.1231689453125 C 231.57745361328125 439.91552734375 231.50653076171875 442.8385009765625 232.72943115234375 445.34954833984375 C 234.79522705078125 449.59765625 239.86605834960938 451.406494140625 244.53509521484375 452.07684326171875 C 248.86849975585938 452.70068359375 253.26904296875 452.6990966796875 257.6020202636719 452.07208251953125 C 264.6379089355469 451.0565185546875 272.1776428222656 447.633056640625 274.49273681640625 440.9144287109375 C 275.7478942871094 437.2891845703125 275.2372741699219 433.2205810546875 273.83599853515625 429.64288330078125 C 272.4346923828125 426.065185546875 270.188232421875 422.8873291015625 267.92572021484375 419.78179931640625 C 265.6632385253906 416.67626953125 263.37359619140625 413.6732177734375 260.1151428222656 411.8155517578125 L 257.73895263671875 412.93310546875" stroke-width="0.6000000238418579" fill="rgb(218, 166, 20)" opacity="1.0"/>
    <path d="M 220.4366455078125 415.869873046875 C 209.8883056640625 410.3411560058594 196.85531616210938 414.41033935546875 191.32659912109375 424.9586181640625 C 190.85317993164062 425.8619384765625 190.4444580078125 426.797607421875 190.10342407226562 427.75872802734375 C 188.808349609375 431.41094970703125 188.55484008789062 435.59613037109375 190.25048828125 439.078369140625 C 191.68316650390625 442.02130126953125 194.33169555664062 444.17498779296875 197.0777587890625 445.95208740234375 C 204.43484497070312 450.6988525390625 212.9287109375 453.3890380859375 221.67706298828125 453.743408203125 C 223.9896240234375 453.8331298828125 226.37991333007812 453.742919921875 228.4974365234375 452.7967529296875 C 232.05325317382812 451.21044921875 234.22003173828125 447.439208984375 235.01763916015625 443.6253662109375 C 236.20574951171875 437.96392822265625 234.8323974609375 431.92706298828125 231.82745361328125 426.9825439453125 C 228.822509765625 422.0379638671875 224.290771484375 418.1318359375 219.2291259765625 415.3297119140625 L 220.4366455078125 415.869873046875" stroke-width="0.6000000238418579" fill="rgb(143, 165, 67)" opacity="1.0"/>
    <path d="M 262.9561767578125 359.7568054199219 C 270.4010925292969 371.2425842285156 290.9632568359375 368.6952819824219 296.2864685058594 356.1809387207031 C 301.6096496582031 343.66656494140625 290.210693359375 327.59039306640625 276.5195617675781 327.4631042480469 C 262.82843017578125 327.3358154296875 251.30926513671875 341.7500915527344 253.473876953125 355.2825012207031 L 262.9561767578125 359.7568054199219" stroke-width="0.6000000238418579" fill="rgb(233, 92, 21)" opacity="1.0"/>
    <path d="M 331.2330017089844 350.274169921875 C 326.552734375 354.8899841308594 321.4407653808594 360.8890686035156 323.2633361816406 367.2281188964844 C 324.0868225097656 369.72259521484375 325.6640625 371.9000549316406 327.77752685546875 373.4601135253906 C 332.9028625488281 377.4608154296875 339.6493835449219 378.7291259765625 345.8776550292969 376.8628234863281 C 351.15692138671875 375.26617431640625 355.4285888671875 371.53594970703125 359.4727783203125 367.83551025390625 C 361.7412109375 365.7531433105469 364.0849914550781 363.46844482421875 364.8207092285156 360.4957580566406 C 365.7688903808594 356.5253601074219 363.5774230957031 352.5002136230469 361.10888671875 349.250732421875 C 357.50213623046875 344.4905700683594 353.148681640625 340.3456115722656 348.2173767089844 336.9765625 C 346.51129150390625 335.8157653808594 344.6480407714844 334.71539306640625 342.590087890625 334.5741882324219 C 340.6698913574219 334.540771484375 338.7814025878906 335.0668029785156 337.1549987792969 336.088134765625 C 332.1009216308594 338.99432373046875 328.57611083984375 343.9712829589844 327.5123596191406 349.7034912109375 L 331.2330017089844 350.274169921875" stroke-width="0.6000000238418579" fill="rgb(70, 150, 179)" opacity="1.0"/>
    <path d="M 295.9991760253906 416.54693603515625 C 288.9589538574219 416.1773681640625 281.139892578125 416.0633544921875 275.8221130371094 420.68487548828125 C 270.11260986328125 425.65289306640625 269.486572265625 434.5784912109375 272.0462951660156 441.70068359375 C 273.0320739746094 444.4471435546875 274.49676513671875 447.14013671875 276.8592529296875 448.852294921875 C 278.80078125 450.26055908203125 281.18450927734375 450.89605712890625 283.5343017578125 451.3740234375 C 290.942626953125 452.8902587890625 299.1915283203125 452.9990234375 305.46331787109375 448.77728271484375 C 311.7813720703125 444.51806640625 314.87237548828125 435.96630859375 312.6932678222656 428.657958984375 C 310.51416015625 421.349609375 303.3060302734375 415.82489013671875 295.6759948730469 415.6820068359375 L 295.9991760253906 416.54693603515625" stroke-width="0.6000000238418579" fill="rgb(140, 28, 33)" opacity="1.0"/>
    <path d="M 326.9012451171875 382.2368469238281 C 319.30987548828125 384.5695495605469 311.4363098144531 387.08056640625 305.51275634765625 392.37896728515625 C 299.58929443359375 397.6773376464844 296.158203125 406.6741943359375 299.6123352050781 413.83013916015625 C 303.89581298828125 422.65386962890625 316.94537353515625 424.2491455078125 325.1486511230469 418.8397216796875 C 333.3519592285156 413.4302978515625 337.29022216796875 403.3720397949219 338.619384765625 393.64837646484375 C 339.3323974609375 390.6795959472656 338.9066467285156 387.5514831542969 337.4260559082031 384.8813171386719 C 335.699462890625 382.4233703613281 331.38494873046875 381.7073974609375 329.8042297363281 384.2790832519531 L 326.9012451171875 382.2368469238281" stroke-width="0.6000000238418579" fill="rgb(159, 159, 159)" opacity="1.0"/>
    <path d="M 363.6170654296875 410.9997863769531 C 357.68231201171875 414.927734375 352.9640197753906 420.97454833984375 351.58087158203125 427.951904296875 C 350.1977233886719 434.9293212890625 352.5252380371094 442.7601318359375 358.147705078125 447.16619873046875 C 362.1268005371094 450.27630615234375 367.39385986328125 451.4669189453125 372.4348449707031 451.09423828125 C 377.4758605957031 450.7215576171875 382.3175354003906 448.898681640625 386.76898193359375 446.50201416015625 C 388.7055358886719 445.4578857421875 390.6612854003906 444.2225341796875 391.73516845703125 442.308837890625 C 392.9673767089844 440.1153564453125 392.8167724609375 437.43756103515625 392.5119323730469 434.9324951171875 C 391.6512451171875 427.8603515625 389.6739196777344 420.650634765625 385.0155029296875 415.2591552734375 C 380.3570556640625 409.8675842285156 372.50457763671875 406.7809143066406 365.85736083984375 409.29742431640625 L 363.6170654296875 410.9997863769531" stroke-width="0.6000000238418579" fill="rgb(159, 159, 159)" opacity="1.0"/>
    <path d="M 252.067138671875 367.09649658203125 C 253.50555419921875 360.0751037597656 254.80026245117188 352.2081604003906 250.91998291015625 346.1988220214844 C 247.15460205078125 340.34942626953125 239.76593017578125 338.1944885253906 232.98995971679688 336.60614013671875 C 230.236328125 335.9649353027344 227.34542846679688 335.33807373046875 224.6175537109375 336.0751953125 C 220.003173828125 337.3191833496094 217.2406005859375 342.013427734375 215.68572998046875 346.5251770019531 C 214.24090576171875 350.7122802734375 213.40481567382812 355.0851745605469 213.20303344726562 359.50994873046875 C 212.872802734375 366.6944580078125 214.8392333984375 374.8379211425781 221.07440185546875 378.417236328125 C 224.437744140625 380.3545227050781 228.57763671875 380.62164306640625 232.39935302734375 379.91033935546875 C 236.2210693359375 379.1990051269531 239.8062744140625 377.57171630859375 243.32281494140625 375.914794921875 C 246.83929443359375 374.25787353515625 250.25912475585938 372.5544128417969 252.7252197265625 369.6703186035156 L 252.067138671875 367.09649658203125" stroke-width="0.6000000238418579" fill="rgb(218, 166, 20)" opacity="1.0"/>
    <path d="M 256.1588134765625 386.58160400390625 C 250.63311767578125 376.1070861816406 237.66238403320312 372.09527587890625 227.1878662109375 377.6209716796875 C 226.29095458984375 378.0941467285156 225.4287109375 378.6303405761719 224.607666015625 379.22552490234375 C 221.48822021484375 381.4877014160156 218.9217529296875 384.7735595703125 218.3482666015625 388.58209228515625 C 217.86334228515625 391.800537109375 218.8193359375 395.05767822265625 220.06747436523438 398.061279296875 C 223.41949462890625 406.0965576171875 228.86187744140625 413.0877685546875 235.8292236328125 418.30859375 C 237.67324829101562 419.685546875 239.68231201171875 420.9588623046875 241.95037841796875 421.37713623046875 C 245.757568359375 422.08160400390625 249.65814208984375 420.2132568359375 252.46112060546875 417.53826904296875 C 256.62530517578125 413.56976318359375 258.9026184082031 407.8500671386719 259.22760009765625 402.1056213378906 C 259.5525817871094 396.3611755371094 258.0414733886719 390.6069641113281 255.4739990234375 385.4585266113281 L 256.1588134765625 386.58160400390625" stroke-width="0.6000000238418579" fill="rgb(143, 165, 67)" opacity="1.0"/>
    <path d="M 196.29220581054688 372.4000244140625 C 181.055419921875 372.4856262207031 171.10150146484375 393.29193115234375 179.63870239257812 405.7940673828125 C 188.17596435546875 418.296142578125 210.08966064453125 417.2589111328125 218.4268798828125 404.4996337890625 C 226.76409912109375 391.7403869628906 220.16464233398438 372.2890625 206.17852783203125 366.1958312988281 L 196.29220581054688 372.4000244140625" stroke-width="0.6000000238418579" fill="rgb(233, 92, 21)" opacity="1.0"/>
    <path d="M 254.98004150390625 371.9447326660156 C 252.19039916992188 377.7922058105469 249.464599609375 385.0664978027344 253.27963256835938 390.3302307128906 C 254.87939453125 392.36590576171875 257.0713806152344 393.8550109863281 259.5533142089844 394.5920715332031 C 265.6451110839844 396.58099365234375 272.32305908203125 395.493896484375 277.469482421875 391.67547607421875 C 281.8267822265625 388.42523193359375 284.53472900390625 383.5355224609375 287.0418395996094 378.74969482421875 C 288.44580078125 376.05902099609375 289.851806640625 373.1556091308594 289.5367126464844 370.15380859375 C 289.08392333984375 366.1560974121094 285.7030029296875 363.16058349609375 282.325439453125 360.97686767578125 C 277.3863220214844 357.7747802734375 271.9615173339844 355.3932800292969 266.2613830566406 353.9246520996094 C 264.2909240722656 353.4210205078125 262.1950378417969 353.0260925292969 260.2403869628906 353.58538818359375 C 258.4495544433594 354.1983947753906 256.8757629394531 355.3192443847656 255.7109375 356.8112487792969 C 252.00152587890625 361.1996154785156 250.40386962890625 366.99432373046875 251.34039306640625 372.6636047363281 L 254.98004150390625 371.9447326660156" stroke-width="0.6000000238418579" fill="rgb(70, 150, 179)" opacity="1.0"/>
    <path d="M 332.53778076171875 355.2872314453125 C 333.0439453125 348.2089538574219 333.3077697753906 340.34197998046875 328.7579650878906 334.9020080566406 C 323.8669738769531 329.06121826171875 314.8961181640625 328.2610168457031 307.67950439453125 330.7013854980469 C 304.89666748046875 331.64111328125 302.1584777832031 333.0638427734375 300.3902893066406 335.4088134765625 C 298.9360046386719 337.3359680175781 298.2509765625 339.7228088378906 297.72515869140625 342.0785827636719 C 296.0579833984375 349.5054626464844 295.79132080078125 357.8051452636719 299.9205017089844 364.1976013183594 C 304.0865478515625 370.6373291015625 312.6341552734375 373.9111328125 320.0309143066406 371.8573913574219 C 327.42767333984375 369.8036804199219 333.1251525878906 362.6546630859375 333.4143981933594 354.97845458984375 L 332.53778076171875 355.2872314453125" stroke-width="0.6000000238418579" fill="rgb(140, 28, 33)" opacity="1.0"/>
    <path d="M 362.69171142578125 396.9884033203125 C 354.9920959472656 395.89495849609375 346.9681701660156 394.842041015625 339.5118713378906 397.0715637207031 C 332.0556945800781 399.3011169433594 325.26849365234375 405.846435546875 325.35028076171875 413.6270751953125 C 325.4726867675781 423.231201171875 336.37432861328125 430.07879638671875 345.8974304199219 428.7000732421875 C 355.4205017089844 427.3214111328125 363.09912109375 420.0465087890625 368.32598876953125 411.9818115234375 C 370.194091796875 409.6474304199219 371.1192626953125 406.69769287109375 370.9188232421875 403.714599609375 C 370.4119873046875 400.81719970703125 366.8861083984375 398.3861083984375 364.4142761230469 400.0072021484375 L 362.69171142578125 396.9884033203125" stroke-width="0.6000000238418579" fill="rgb(159, 159, 159)" opacity="1.0"/>
    <path d="M 175.63677978515625 405.9925842285156 C 168.121337890625 406.16009521484375 160.49960327148438 408.9062194824219 155.33399963378906 414.3621826171875 C 150.1684112548828 419.818115234375 147.8380126953125 428.12646484375 150.38070678710938 435.230224609375 C 152.1847686767578 440.2503662109375 156.22085571289062 444.28070068359375 160.935302734375 446.7867431640625 C 165.6497802734375 449.29278564453125 171.0029296875 450.390625 176.33050537109375 450.75604248046875 C 178.64898681640625 450.9136962890625 181.0924072265625 450.9112548828125 183.12982177734375 449.80596923828125 C 185.46621704101562 448.5399169921875 186.83975219726562 446.062255859375 187.9781494140625 443.652099609375 C 191.19207763671875 436.84765625 193.485595703125 429.29156494140625 192.359375 421.85015869140625 C 191.23312377929688 414.40869140625 185.95458984375 407.22802734375 178.597412109375 405.73309326171875 L 175.63677978515625 405.9925842285156" stroke-width="0.6000000238418579" fill="rgb(159, 159, 159)" opacity="1.0"/>
    <path d="M 367.6169738769531 365.7025146484375 C 361.5826721191406 362.47686767578125 354.73553466796875 359.15283203125 348.1811218261719 361.0696716308594 C 341.8042907714844 362.9248046875 337.8230895996094 369.100341796875 334.5269470214844 374.8692932128906 C 333.19140625 377.2148132324219 331.83160400390625 379.68988037109375 331.7643737792969 382.38665771484375 C 331.64801025390625 386.9476623535156 335.1925964355469 390.7522888183594 338.8985900878906 393.40203857421875 C 342.33740234375 395.8628234863281 346.1117858886719 397.8170166015625 350.1061096191406 399.20489501953125 C 356.59100341796875 401.4607849121094 364.5780029296875 401.8757019042969 369.5490417480469 397.14306640625 C 372.2364807128906 394.5920104980469 373.606689453125 390.8761291503906 373.9949645996094 387.1853942871094 C 374.38323974609375 383.49462890625 373.8690185546875 379.7712097167969 373.3089599609375 376.10260009765625 C 372.7489013671875 372.4339904785156 372.1199951171875 368.8412170410156 370.1512756347656 365.8001708984375 L 367.6169738769531 365.7025146484375" stroke-width="0.6000000238418579" fill="rgb(218, 166, 20)" opacity="1.0"/>
    <path d="M 374.1545104980469 379.88824462890625 C 366.9911193847656 389.3110656738281 368.8227844238281 402.7568359375 378.24560546875 409.92022705078125 C 379.0524597167969 410.53363037109375 379.90185546875 411.0890197753906 380.7873229980469 411.58221435546875 C 384.1523132324219 413.4556884765625 388.2119140625 414.396484375 391.9051513671875 413.31085205078125 C 395.0262756347656 412.3936767578125 397.5751037597656 410.1544189453125 399.77099609375 407.7572326660156 C 405.6400451660156 401.3324890136719 409.6817932128906 393.45343017578125 411.47637939453125 384.9385681152344 C 411.9469299316406 382.6870422363281 412.2540283203125 380.32958984375 411.67706298828125 378.09783935546875 C 410.7107238769531 374.35064697265625 407.37335205078125 371.6032409667969 403.76763916015625 370.1905822753906 C 398.41595458984375 368.0895690917969 392.27252197265625 368.43670654296875 386.92962646484375 370.5635681152344 C 381.58673095703125 372.6903991699219 377.0089416503906 376.4853515625 373.42535400390625 380.98223876953125 L 374.1545104980469 379.88824462890625" stroke-width="0.6000000238418579" fill="rgb(143, 165, 67)" opacity="1.0"/>
    <path d="M 365.109375 360.9274597167969 C 369.3984680175781 374.4092712402344 390.5930480957031 377.4788818359375 399.31390380859375 366.45465087890625 C 408.03472900390625 355.430419921875 401.0558166503906 336.2935485839844 387.4410095214844 332.4317932128906 C 373.826171875 328.570068359375 358.4098815917969 339.79827880859375 356.87640380859375 353.8800354003906 L 365.109375 360.9274597167969" stroke-width="0.6000000238418579" fill="rgb(233, 92, 21)" opacity="1.0"/>
    <path d="M 403.8490295410156 350.9988098144531 C 402.2313537597656 357.79437255859375 401.0038146972656 366.0796203613281 406.2166442871094 370.765380859375 C 408.36370849609375 372.54937744140625 411.0114440917969 373.6231689453125 413.794677734375 373.8385925292969 C 420.6666259765625 374.556884765625 427.46044921875 371.8998107910156 432.021728515625 366.7099609375 C 435.87969970703125 362.2976379394531 437.62799072265625 356.5302429199219 439.18804931640625 350.91778564453125 C 440.059326171875 347.76361083984375 440.884521484375 344.38470458984375 439.87310791015625 341.2915344238281 C 438.4912109375 337.17962646484375 434.249267578125 334.7868347167969 430.194580078125 333.2490234375 C 424.26324462890625 330.99102783203125 418.005615234375 329.70794677734375 411.66424560546875 329.4495544433594 C 409.4730529785156 329.364501953125 407.1742248535156 329.4223937988281 405.2402038574219 330.45428466796875 C 403.4910583496094 331.5057067871094 402.0856018066406 333.0434265136719 401.19525146484375 334.8798522949219 C 398.27777099609375 340.3453674316406 397.9047546386719 346.81561279296875 400.1748046875 352.5802001953125 L 403.8490295410156 350.9988098144531" stroke-width="0.6000000238418579" fill="rgb(70, 150, 179)" opacity="1.0"/>
    <path d="M 389.879638671875 423.6661376953125 C 389.3117370605469 431.1103515625 388.9948425292969 439.385498046875 393.7542724609375 445.13134765625 C 398.87066650390625 451.3006591796875 408.3044738769531 452.1873779296875 415.908935546875 449.656005859375 C 418.84130859375 448.6812744140625 421.72918701171875 447.19818115234375 423.60113525390625 444.739990234375 C 425.1407470703125 442.7198486328125 425.87335205078125 440.212158203125 426.4383544921875 437.73638916015625 C 428.22943115234375 429.9312744140625 428.551513671875 421.20086669921875 424.23931884765625 414.45501708984375 C 419.88861083984375 407.65924072265625 410.9124450683594 404.17230224609375 403.1203918457031 406.2959289550781 C 395.3283386230469 408.4195861816406 389.29852294921875 415.9122314453125 388.9558410644531 423.986572265625 L 389.879638671875 423.6661376953125" stroke-width="0.6000000238418579" fill="rgb(140, 28, 33)" opacity="1.0"/>
    <path d="M 412.9300537109375 374.40765380859375 C 410.6026916503906 382.1704406738281 408.2665100097656 390.27374267578125 409.40093994140625 398.3040466308594 C 410.535400390625 406.3341979980469 416.220947265625 414.34814453125 424.25048828125 415.47723388671875 C 434.16522216796875 416.848876953125 442.92071533203125 406.68414306640625 442.9852294921875 396.6570129394531 C 443.0498046875 386.6298522949219 436.7515869140625 377.58367919921875 429.2572021484375 370.9405517578125 C 427.143310546875 368.65167236328125 424.248291015625 367.2384338378906 421.1434326171875 366.9797668457031 C 418.0789794921875 367.0501403808594 415.0242919921875 370.30389404296875 416.30908203125 373.10357666015625 L 412.9300537109375 374.40765380859375" stroke-width="0.6000000238418579" fill="rgb(159, 159, 159)" opacity="1.0"/>
    <path d="M 432.78173828125 370.7181701660156 C 434.5836181640625 377.9539794921875 438.9039306640625 384.73004150390625 445.310546875 388.5381164550781 C 451.7171630859375 392.34619140625 460.26531982421875 392.7883605957031 466.58453369140625 388.77789306640625 C 471.0487060546875 385.9367980957031 474.0679931640625 381.15185546875 475.46435546875 376.0430603027344 C 476.86065673828125 370.9342346191406 476.7550048828125 365.5146789550781 475.94610595703125 360.2796936035156 C 475.5927734375 358.00177001953125 475.0572509765625 355.6379089355469 473.543212890625 353.9075927734375 C 471.8082275390625 351.9229736328125 469.11102294921875 351.1344909667969 466.5303955078125 350.55877685546875 C 459.24481201171875 348.9334716796875 451.4326171875 348.36285400390625 444.4776611328125 351.07635498046875 C 437.5225830078125 353.78985595703125 431.72589111328125 360.4644470214844 431.88458251953125 367.9098815917969 L 432.78173828125 370.7181701660156" stroke-width="0.6000000238418579" fill="rgb(159, 159, 159)" opacity="1.0"/>
    <path d="M 434.76483154296875 412.3035888671875 C 430.4013671875 417.963134765625 425.79638671875 424.4429931640625 426.640380859375 431.525146484375 C 427.4515380859375 438.413818359375 433.126220703125 443.5799560546875 438.500244140625 447.97021484375 C 440.68603515625 449.75048828125 443.00103759765625 451.578125 445.767333984375 452.1124267578125 C 450.445556640625 453.01898193359375 454.9759521484375 450.02392578125 458.3446044921875 446.6634521484375 C 461.4725341796875 443.54559326171875 464.13653564453125 439.9947509765625 466.255126953125 436.11956787109375 C 469.697265625 429.82861328125 471.502197265625 421.6728515625 467.484619140625 415.73602294921875 C 465.3203125 412.5277099609375 461.7288818359375 410.4754333496094 457.99407958984375 409.43890380859375 C 454.25927734375 408.40240478515625 450.3350830078125 408.2898864746094 446.45953369140625 408.23406982421875 C 442.583984375 408.1782531738281 438.774658203125 408.2064208984375 435.30255126953125 409.7098693847656 L 434.76483154296875 412.3035888671875" stroke-width="0.6000000238418579" fill="rgb(218, 166, 20)" opacity="1.0"/>
    <path d="M 135.52854919433594 211.77508544921875 C 133.9707489013672 224.27359008789062 142.83995056152344 235.66851806640625 155.33847045898438 237.226318359375 C 156.40872192382812 237.35971069335938 157.48709106445312 237.4169921875 158.56546020507812 237.39779663085938 C 162.66299438476562 237.32403564453125 166.90151977539062 236.02093505859375 169.72021484375 233.0487060546875 C 172.1024169921875 230.53717041015625 173.2515869140625 227.11468505859375 173.99163818359375 223.73550415039062 C 175.96011352539062 214.68746948242188 175.47000122070312 205.27740478515625 172.572265625 196.4827880859375 C 171.8023681640625 194.159423828125 170.825439453125 191.825927734375 169.1021728515625 190.08038330078125 C 166.21090698242188 187.14828491210938 161.67184448242188 186.40304565429688 157.59893798828125 187.02947998046875 C 151.551513671875 187.95526123046875 146.08348083496094 191.55691528320312 142.30299377441406 196.36871337890625 C 138.5225067138672 201.18045043945312 136.3372802734375 207.1185302734375 135.44203186035156 213.17138671875 L 135.52854919433594 211.77508544921875" stroke-width="0.6000000238418579" fill="rgb(143, 165, 67)" opacity="1.0"/>
    <path d="M 171.15451049804688 263.0647277832031 C 181.9931640625 273.7372131347656 203.6907958984375 266.0307312011719 206.45834350585938 251.173095703125 C 209.225830078125 236.3154296875 192.99359130859375 221.61282348632812 178.10812377929688 224.7657470703125 C 163.22262573242188 227.91864013671875 154.18919372558594 246.32708740234375 159.79067993164062 260.48944091796875 L 171.15451049804688 263.0647277832031" stroke-width="0.6000000238418579" fill="rgb(233, 92, 21)" opacity="1.0"/>
    <path d="M 142.88507080078125 310.7926025390625 C 135.896728515625 312.9856872558594 127.77645874023438 316.3301696777344 126.35662841796875 323.5410461425781 C 125.90327453613281 326.43267822265625 126.35836791992188 329.39373779296875 127.65921020507812 332.0157165527344 C 130.70321655273438 338.5898132324219 136.7448272705078 343.2806701660156 143.86817932128906 344.60076904296875 C 149.91360473632812 345.70513916015625 156.04620361328125 344.1818542480469 161.93820190429688 342.5723571777344 C 165.24649047851562 341.662841796875 168.73245239257812 340.5911865234375 170.97470092773438 338.01910400390625 C 173.935302734375 334.5662536621094 173.811767578125 329.461181640625 173.01885986328125 324.98388671875 C 171.8665771484375 318.429931640625 169.66107177734375 312.105712890625 166.4879150390625 306.2564697265625 C 165.38766479492188 304.2375793457031 164.100830078125 302.19854736328125 162.13287353515625 301.01116943359375 C 160.24658203125 300.000732421875 158.10699462890625 299.56097412109375 155.97508239746094 299.74554443359375 C 149.48638916015625 300.05377197265625 143.45950317382812 303.1929626464844 139.48764038085938 308.333251953125 L 142.88507080078125 310.7926025390625" stroke-width="0.6000000238418579" fill="rgb(70, 150, 179)" opacity="1.0"/>
    <path d="M 122.04046630859375 301.3692626953125 C 122.97756958007812 293.5754089355469 123.68904113769531 284.89715576171875 118.95231628417969 278.64361572265625 C 113.8599853515625 271.928955078125 103.99067687988281 270.5658874511719 95.88668823242188 272.8770751953125 C 92.76174926757812 273.7668151855469 89.66032409667969 275.1926574707031 87.58145141601562 277.6892395019531 C 85.87173461914062 279.7409362792969 84.9874267578125 282.3416442871094 84.28067016601562 284.9164733886719 C 82.04212951660156 293.0335388183594 81.30441284179688 302.1897277832031 85.52557373046875 309.4732360839844 C 89.784912109375 316.81097412109375 99.05450439453125 320.8845520019531 107.3369140625 319.01019287109375 C 115.61930847167969 317.1358642578125 122.29615783691406 309.5409851074219 123.02554321289062 301.07489013671875 L 122.04046630859375 301.3692626953125" stroke-width="0.6000000238418579" fill="rgb(140, 28, 33)" opacity="1.0"/>
    <path d="M 145.05169677734375 262.7952575683594 C 137.86131286621094 267.02484130859375 130.42593383789062 271.50518798828125 125.66096496582031 278.35986328125 C 120.89610290527344 285.2144775390625 119.577392578125 295.2425537109375 124.84707641601562 301.7153015136719 C 131.36976623535156 309.6907043457031 145.09288024902344 308.14801025390625 152.16049194335938 300.62554931640625 C 159.22811889648438 293.10308837890625 160.80697631835938 281.86712646484375 159.80099487304688 271.607421875 C 159.80780029296875 268.4002685546875 158.61212158203125 265.3072204589844 156.44989013671875 262.9385986328125 C 154.087890625 260.8466491699219 149.50482177734375 261.1640319824219 148.51478576660156 264.1763610839844 L 145.05169677734375 262.7952575683594" stroke-width="0.6000000238418579" fill="rgb(159, 159, 159)" opacity="1.0"/>
    <path d="M 159.67214965820312 285.9364318847656 C 159.6827392578125 293.7773132324219 162.37994384765625 301.7853698730469 167.95672607421875 307.2912902832031 C 173.533447265625 312.7972106933594 182.14669799804688 315.4088439941406 189.61016845703125 312.91241455078125 C 194.8846435546875 311.1407165527344 199.1756591796875 307.01983642578125 201.8919677734375 302.1582336425781 C 204.6082763671875 297.296630859375 205.87005615234375 291.7382507324219 206.367431640625 286.1905517578125 C 206.58248901367188 283.7762145996094 206.63327026367188 281.2281188964844 205.52520751953125 279.0793762207031 C 204.25592041015625 276.6152648925781 201.7021484375 275.1288146972656 199.21365356445312 273.8890075683594 C 192.1881103515625 270.3888854980469 184.35855102539062 267.8321533203125 176.57391357421875 268.8440856933594 C 168.78924560546875 269.8560791015625 161.18582153320312 275.20379638671875 159.4661865234375 282.84332275390625 L 159.67214965820312 285.9364318847656" stroke-width="0.6000000238418579" fill="rgb(159, 159, 159)" opacity="1.0"/>
    <path d="M 128.53675842285156 349.349365234375 C 129.466064453125 341.5650634765625 130.1618194580078 332.8721618652344 125.38568115234375 326.6747741699219 C 120.74932861328125 320.6412658691406 112.49954223632812 318.9643249511719 104.96910095214844 317.8492736816406 C 101.90928649902344 317.4007873535156 98.70111083984375 316.98040771484375 95.79473876953125 318.031982421875 C 90.87806701660156 319.8076477050781 88.29373168945312 325.1757507324219 87.00923156738281 330.2350769042969 C 85.81517028808594 334.9305114746094 85.30154418945312 339.7731018066406 85.48403930664062 344.61456298828125 C 85.77749633789062 352.4758605957031 88.66160583496094 361.1735534667969 95.78361511230469 364.5080261230469 C 99.62591552734375 366.3138122558594 104.16281127929688 366.22845458984375 108.26385498046875 365.1054992675781 C 112.36489868164062 363.9825439453125 116.1248779296875 361.8827209472656 119.8072509765625 359.7568054199219 C 123.4896240234375 357.6308898925781 127.0623779296875 355.46307373046875 129.48817443847656 352.09503173828125 L 128.53675842285156 349.349365234375" stroke-width="0.6000000238418579" fill="rgb(218, 166, 20)" opacity="1.0"/>
    <path d="M 150.3007049560547 343.5600280761719 C 137.80516052246094 343.6822814941406 127.77461242675781 353.9110107421875 127.89686584472656 366.40655517578125 C 127.90731811523438 367.4765625 127.99369812011719 368.5444641113281 128.15528869628906 369.60223388671875 C 128.77005004882812 373.6214599609375 130.6122589111328 377.61663818359375 133.90777587890625 379.99481201171875 C 136.6925048828125 382.0047912597656 140.2097930908203 382.68182373046875 143.63040161132812 382.96234130859375 C 152.7875213623047 383.70050048828125 161.97528076171875 381.9732971191406 170.2392578125 377.960205078125 C 172.42190551757812 376.895751953125 174.58706665039062 375.6263427734375 176.0753173828125 373.700927734375 C 178.57574462890625 370.47003173828125 178.70785522460938 365.9082946777344 177.55291748046875 361.9864501953125 C 175.84234619140625 356.1627197265625 171.57733154296875 351.2627868652344 166.34579467773438 348.18231201171875 C 161.1142578125 345.10186767578125 154.9863739013672 343.739013671875 148.9163055419922 343.6597595214844 L 150.3007049560547 343.5600280761719" stroke-width="0.6000000238418579" fill="rgb(143, 165, 67)" opacity="1.0"/>
    <path d="M 138.9547576904297 377.55126953125 C 135.55584716796875 362.8596496582031 113.30206298828125 357.77813720703125 103.09005737304688 368.7414245605469 C 92.87812805175781 379.70477294921875 98.6490478515625 400.63543701171875 112.78196716308594 405.9075012207031 C 126.91488647460938 411.1795654296875 144.25770568847656 400.5746154785156 147.09629821777344 385.7456359863281 L 138.9547576904297 377.55126953125" stroke-width="0.6000000238418579" fill="rgb(233, 92, 21)" opacity="1.0"/>
    <path d="M 176.37054443359375 350.94677734375 C 175.69171142578125 358.293701171875 175.642822265625 367.14019775390625 181.79196166992188 371.2630615234375 C 184.30291748046875 372.8085632324219 187.2315673828125 373.53680419921875 190.1739501953125 373.3472900390625 C 197.46673583984375 373.07427978515625 204.1748046875 369.283447265625 208.17095947265625 363.1768798828125 C 211.54754638671875 357.9881591796875 212.51617431640625 351.6968688964844 213.31106567382812 345.5956726074219 C 213.75204467773438 342.16766357421875 214.11138916015625 338.511474609375 212.59286499023438 335.42779541015625 C 210.53509521484375 331.3340759277344 205.74285888671875 329.46417236328125 201.27383422851562 328.46038818359375 C 194.7352294921875 326.98321533203125 188.0006103515625 326.5740966796875 181.33123779296875 327.2489013671875 C 179.02728271484375 327.48651123046875 176.63214111328125 327.8896179199219 174.76361083984375 329.2568359375 C 173.09124755859375 330.6169738769531 171.85076904296875 332.434326171875 171.19345092773438 334.4873046875 C 168.957275390625 340.63714599609375 169.53143310546875 347.4584045410156 172.76422119140625 353.1479187011719 L 176.37054443359375 350.94677734375" stroke-width="0.6000000238418579" fill="rgb(70, 150, 179)" opacity="1.0"/>
  </g>
</svg>
