<?xml version="1.0" ?>
<svg xmlns="http://www.w3.org/2000/svg" version="1.1" width="600" height="600">
  <defs/>
  <g>
    <path d="M 352.6422424316406 344.33984375 C 356.4571838378906 347.72357177734375 363.586669921875 344.7647399902344 364.2537841796875 339.7423095703125 C 364.9208679199219 334.7198791503906 359.2298889160156 330.0810852050781 354.301513671875 331.39654541015625 C 349.3731384277344 332.71197509765625 346.6702880859375 339.0325622558594 348.7928466796875 343.67608642578125 L 352.6422424316406 344.33984375" stroke-width="0.6000000238418579" fill="rgb(233, 92, 21)" opacity="1.0"/>
    <path d="M 122.58003234863281 208.28857421875 C 126.5902099609375 208.37158203125 131.38906860351562 208.05487060546875 133.3860626220703 204.560546875 C 134.12667846679688 203.1390380859375 134.40792846679688 201.522705078125 134.1909942626953 199.9345703125 C 133.75999450683594 195.99072265625 131.44415283203125 192.5003662109375 127.97784423828125 190.5704345703125 C 125.03327941894531 188.94082641601562 121.58427429199219 188.65969848632812 118.24508666992188 188.46539306640625 C 116.36915588378906 188.35931396484375 114.3726806640625 188.30630493164062 112.75947570800781 189.2493896484375 C 110.61953735351562 190.52401733398438 109.79153442382812 193.19512939453125 109.42063903808594 195.65740966796875 C 108.87335205078125 199.26025390625 108.91281127929688 202.92791748046875 109.53750610351562 206.5181884765625 C 109.7557373046875 207.75823974609375 110.06727600097656 209.0413818359375 110.88113403320312 210.00152587890625 C 111.68354797363281 210.85556030273438 112.71713256835938 211.45770263671875 113.85585021972656 211.73446655273438 C 117.27734375 212.70840454101562 120.95384216308594 212.13238525390625 123.91351318359375 210.15869140625 L 122.58003234863281 208.28857421875" stroke-width="0.6000000238418579" fill="rgb(70, 150, 179)" opacity="1.0"/>
    <path d="M 458.40869140625 405.7928161621094 C 460.8082275390625 408.4171142578125 463.578125 411.22515869140625 467.125 411.4460144042969 C 470.9351806640625 411.6809997558594 474.31884765625 408.694580078125 475.9193115234375 405.2288818359375 C 476.53692626953125 403.8929443359375 476.9635009765625 402.4067077636719 476.7203369140625 400.95526123046875 C 476.5208740234375 399.76202392578125 475.8890380859375 398.6900634765625 475.213623046875 397.6866760253906 C 473.08758544921875 394.52001953125 470.1612548828125 391.5617370605469 466.4130859375 390.85955810546875 C 462.635009765625 390.15447998046875 458.49774169921875 392.13421630859375 456.694580078125 395.5321044921875 C 454.89141845703125 398.92999267578125 455.5269775390625 403.4665222167969 458.21875 406.2180480957031 L 458.40869140625 405.7928161621094" stroke-width="0.6000000238418579" fill="rgb(140, 28, 33)" opacity="1.0"/>
    <path d="M 87.3087158203125 209.4825439453125 C 91.97969055175781 209.69366455078125 96.84243774414062 209.86187744140625 101.17649841308594 208.09832763671875 C 105.51048278808594 206.33474731445312 109.19566345214844 202.02679443359375 108.69879150390625 197.375 C 108.0726318359375 191.63418579101562 101.15403747558594 188.16366577148438 95.53407287597656 189.53701782226562 C 89.91409301757812 190.91036987304688 85.73744201660156 195.70623779296875 83.07357788085938 200.83367919921875 C 82.08993530273438 202.33831787109375 81.70608520507812 204.15692138671875 81.99777221679688 205.9306640625 C 82.4678955078125 207.63555908203125 84.71798706054688 208.88751220703125 86.10400390625 207.7750244140625 L 87.3087158203125 209.4825439453125" stroke-width="0.6000000238418579" fill="rgb(159, 159, 159)" opacity="1.0"/>
    <path d="M 382.9835205078125 310.2701416015625 C 387.3611145019531 309.2730712890625 391.4924621582031 306.75445556640625 393.8624267578125 302.9440002441406 C 396.232421875 299.1335144042969 396.6021728515625 293.9931335449219 394.2645263671875 290.1405334472656 C 392.60833740234375 287.4188232421875 389.7645263671875 285.5433044433594 386.7060852050781 284.640869140625 C 383.6476135253906 283.7384033203125 380.3839111328125 283.73638916015625 377.2227783203125 284.15985107421875 C 375.8472595214844 284.344970703125 374.41778564453125 284.6387023925781 373.3578186035156 285.5291748046875 C 372.14215087890625 286.54949951171875 371.6347961425781 288.1636047363281 371.2569885253906 289.7100830078125 C 370.1903381347656 294.07611083984375 369.7521667480469 298.7719421386719 371.3013610839844 302.9915466308594 C 372.8505554199219 307.2111511230469 376.79827880859375 310.781494140625 381.2821350097656 310.7761535644531 L 382.9835205078125 310.2701416015625" stroke-width="0.6000000238418579" fill="rgb(159, 159, 159)" opacity="1.0"/>
    <path d="M 105.44882202148438 419.8614501953125 C 108.62313842773438 417.91162109375 112.06707763671875 415.6068115234375 112.96728515625 411.9994201660156 C 113.84768676757812 408.492431640625 112.03913879394531 404.9241638183594 110.23342895507812 401.7896423339844 C 109.49800109863281 400.5173645019531 108.70835876464844 399.1980895996094 107.45932006835938 398.4254455566406 C 105.34754943847656 397.11737060546875 102.58529663085938 397.7378845214844 100.32145690917969 398.7515869140625 C 98.21987915039062 399.691650390625 96.26417541503906 400.92864990234375 94.51422119140625 402.4246520996094 C 91.671875 404.85272216796875 89.28204345703125 408.4927062988281 90.14041137695312 412.12969970703125 C 90.60092163085938 414.0938720703125 91.97091674804688 415.75897216796875 93.59892272949219 416.9556884765625 C 95.2269287109375 418.15240478515625 97.1182861328125 418.93389892578125 98.99649047851562 419.6788330078125 C 100.87467956542969 420.4237060546875 102.73616027832031 421.1153564453125 104.70648193359375 421.0257568359375 L 105.44882202148438 419.8614501953125" stroke-width="0.6000000238418579" fill="rgb(218, 166, 20)" opacity="1.0"/>
    <path d="M 100.35018920898438 154.37208557128906 C 108.38681030273438 156.74688720703125 116.82693481445312 152.1571044921875 119.20175170898438 144.12049865722656 C 119.40512084960938 143.4323272705078 119.55938720703125 142.7305908203125 119.6634521484375 142.02056884765625 C 120.05831909179688 139.32260131835938 119.661376953125 136.39907836914062 118.01507568359375 134.22711181640625 C 116.62400817871094 132.39149475097656 114.50151062011719 131.26681518554688 112.3631591796875 130.4154052734375 C 106.63618469238281 128.14427185058594 100.40554809570312 127.44801330566406 94.31849670410156 128.39892578125 C 92.70993041992188 128.65298461914062 91.07234191894531 129.04188537597656 89.739990234375 129.98434448242188 C 87.5023193359375 131.5652313232422 86.52200317382812 134.46446228027344 86.49261474609375 137.20603942871094 C 86.44615173339844 141.27626037597656 88.21905517578125 145.255615234375 90.96896362304688 148.2580108642578 C 93.71884155273438 151.2604217529297 97.38070678710938 153.33740234375 101.25749206542969 154.57994079589844 L 100.35018920898438 154.37208557128906" stroke-width="0.6000000238418579" fill="rgb(143, 165, 67)" opacity="1.0"/>
    <path d="M 460.353271484375 345.1195373535156 C 463.43133544921875 352.1515808105469 475.0421142578125 352.6075744628906 479.1236572265625 346.1648254394531 C 483.205078125 339.7220458984375 478.3553466796875 329.7908020019531 470.78985595703125 328.4780578613281 C 463.224365234375 327.1653137207031 455.54144287109375 334.09735107421875 455.51153564453125 341.782958984375 L 460.353271484375 345.1195373535156" stroke-width="0.6000000238418579" fill="rgb(233, 92, 21)" opacity="1.0"/>
    <path d="M 106.96917724609375 228.3477783203125 C 109.4493408203125 224.78732299804688 112.04270935058594 220.27703857421875 110.0947265625 216.3831787109375 C 109.25921630859375 214.86376953125 107.97280883789062 213.64102172851562 106.41293334960938 212.88372802734375 C 102.60382080078125 210.90606689453125 98.07244873046875 210.8973388671875 94.25576782226562 212.86029052734375 C 91.02243041992188 214.53375244140625 88.70050048828125 217.47015380859375 86.52262878417969 220.35980224609375 C 85.30184936523438 221.98501586914062 84.05659484863281 223.7506103515625 83.93795776367188 225.76861572265625 C 83.8018798828125 228.459716796875 85.70994567871094 230.807373046875 87.70419311523438 232.61822509765625 C 90.61946105957031 235.27203369140625 93.94505310058594 237.4365234375 97.55197143554688 239.02767944335938 C 98.79928588867188 239.57504272460938 100.14131164550781 240.06423950195312 101.493896484375 239.907470703125 C 102.74407958984375 239.6973876953125 103.90614318847656 239.1280517578125 104.83834838867188 238.26889038085938 C 107.76748657226562 235.7728271484375 109.4542236328125 232.117431640625 109.45263671875 228.26904296875 L 106.96917724609375 228.3477783203125" stroke-width="0.6000000238418579" fill="rgb(70, 150, 179)" opacity="1.0"/>
    <path d="M 108.17465209960938 82.9305419921875 C 108.537109375 87.58399963378906 109.13426208496094 92.72676086425781 112.62521362304688 95.82051086425781 C 116.37725830078125 99.14164733886719 122.29045104980469 98.78550720214844 126.74594116210938 96.49298095703125 C 128.4641571044922 95.60981750488281 130.1061553955078 94.41683959960938 131.027099609375 92.71879577636719 C 131.78469848632812 91.32319641113281 131.9970245361328 89.70375061035156 132.10885620117188 88.12008666992188 C 132.46749877929688 83.12644958496094 131.8299102783203 77.70196533203125 128.5194549560547 73.94757080078125 C 125.180419921875 70.16603088378906 119.30081176757812 68.87188720703125 114.69036865234375 70.93051147460938 C 110.07992553710938 72.98915100097656 107.07266235351562 78.19589233398438 107.63462829589844 83.217041015625 L 108.17465209960938 82.9305419921875" stroke-width="0.6000000238418579" fill="rgb(140, 28, 33)" opacity="1.0"/>
    <path d="M 92.81805419921875 402.6945495605469 C 95.20596313476562 399.7020263671875 97.65773010253906 396.56182861328125 98.57540893554688 392.84210205078125 C 99.4930419921875 389.1224365234375 98.41299438476562 384.6080017089844 95.0924072265625 382.69830322265625 C 90.98826599121094 380.35015869140625 85.35955810546875 383.2628479003906 83.56451416015625 387.6465759277344 C 81.76947021484375 392.0303039550781 82.93620300292969 397.1051330566406 85.05062866210938 401.33746337890625 C 85.57391357421875 402.7131652832031 86.59384155273438 403.84271240234375 87.90921020507812 404.503173828125 C 89.26478576660156 405.01226806640625 91.17703247070312 404.1242980957031 91.10714721679688 402.6707763671875 L 92.81805419921875 402.6945495605469" stroke-width="0.6000000238418579" fill="rgb(159, 159, 159)" opacity="1.0"/>
    <path d="M 477.92822265625 68.91741943359375 C 479.27935791015625 65.18190002441406 479.38006591796875 60.902099609375 477.6767578125 57.31573486328125 C 475.9735107421875 53.72935485839844 472.32379150390625 50.99601745605469 468.3380126953125 50.89390563964844 C 465.52001953125 50.825286865234375 462.763916015625 52.04541015625 460.629638671875 53.890594482421875 C 458.49530029296875 55.735809326171875 456.93310546875 58.16436767578125 455.7366943359375 60.720062255859375 C 455.216796875 61.83253479003906 454.7518310546875 63.03709411621094 454.9078369140625 64.251953125 C 455.0860595703125 65.64483642578125 456.0450439453125 66.79437255859375 457.015625 67.81513977050781 C 459.755615234375 70.69696044921875 463.041748046875 73.26864624023438 466.9237060546875 74.1331787109375 C 470.8056640625 74.99772644042969 475.3511962890625 73.76631164550781 477.4913330078125 70.42593383789062 L 477.92822265625 68.91741943359375" stroke-width="0.6000000238418579" fill="rgb(159, 159, 159)" opacity="1.0"/>
    <path d="M 88.47265625 111.85690307617188 C 92.97006225585938 113.35032653808594 98.0338134765625 114.81549072265625 102.28262329101562 112.73779296875 C 106.41744995117188 110.72305297851562 108.41000366210938 106.04057312011719 109.98268127441406 101.71601867675781 C 110.61897277832031 99.95828247070312 111.256591796875 98.10928344726562 110.98594665527344 96.26068115234375 C 110.53001403808594 93.13385009765625 107.66403198242188 90.95303344726562 104.82345581054688 89.57939147949219 C 102.18740844726562 88.30340576171875 99.38179016113281 87.41255187988281 96.49249267578125 86.93408203125 C 91.80136108398438 86.15548706054688 86.30105590820312 86.80976867675781 83.4635009765625 90.62356567382812 C 81.9285888671875 92.68025207519531 81.42950439453125 95.37741088867188 81.59768676757812 97.94215393066406 C 81.765869140625 100.50689697265625 82.55390930175781 102.98800659179688 83.36679077148438 105.42631530761719 C 84.17967224121094 107.8646240234375 85.03065490722656 110.24310302734375 86.73136901855469 112.08770751953125 L 88.47265625 111.85690307617188" stroke-width="0.6000000238418579" fill="rgb(218, 166, 20)" opacity="1.0"/>
    <path d="M 130.0972442626953 137.86959838867188 C 136.43760681152344 137.24734497070312 141.07305908203125 131.60302734375 140.4508056640625 125.26266479492188 C 140.39752197265625 124.71974182128906 140.3057861328125 124.18128967285156 140.17630004882812 123.65133666992188 C 139.6839141845703 121.63774108886719 138.5692596435547 119.69139099121094 136.78903198242188 118.63137817382812 C 135.28469848632812 117.73544311523438 133.4680938720703 117.54928588867188 131.71836853027344 117.5601806640625 C 127.03485107421875 117.59580993652344 122.4462890625 118.88484191894531 118.42933654785156 121.29335021972656 C 117.36862182617188 121.93177795410156 116.32595825195312 122.67349243164062 115.65644836425781 123.71804809570312 C 114.53144836425781 125.470947265625 114.66885375976562 127.79354858398438 115.43119812011719 129.7334747314453 C 116.56097412109375 132.61436462402344 118.94662475585938 134.9115753173828 121.74156188964844 136.241455078125 C 124.53648376464844 137.57135009765625 127.70962524414062 137.98875427246094 130.79583740234375 137.75689697265625 L 130.0972442626953 137.86959838867188" stroke-width="0.6000000238418579" fill="rgb(143, 165, 67)" opacity="1.0"/>
    <path d="M 400.7806701660156 310.174560546875 C 403.218017578125 318.4761657714844 416.13421630859375 320.6437072753906 421.617431640625 314.023193359375 C 427.1005859375 307.40264892578125 423.09625244140625 295.6066589355469 414.8251953125 293.05877685546875 C 406.5540771484375 290.51092529296875 396.9745178222656 297.164306640625 395.84375 305.7528381347656 L 400.7806701660156 310.174560546875" stroke-width="0.6000000238418579" fill="rgb(233, 92, 21)" opacity="1.0"/>
    <path d="M 125.27436828613281 115.57180786132812 C 129.1497344970703 115.47677612304688 133.76910400390625 114.96133422851562 135.5445098876953 111.50042724609375 C 136.19744873046875 110.09561157226562 136.39840698242188 108.5228271484375 136.1195831298828 106.99899291992188 C 135.5311737060547 103.2100830078125 133.14280700683594 99.94140625 129.71185302734375 98.2294921875 C 126.79774475097656 96.7847900390625 123.45552062988281 96.66403198242188 120.22311401367188 96.622314453125 C 118.40731811523438 96.60182189941406 116.47743225097656 96.63787841796875 114.96112060546875 97.61885070800781 C 112.95072937011719 98.9429931640625 112.26799011230469 101.55804443359375 112.01747131347656 103.95150756835938 C 111.64645385742188 107.45390319824219 111.84478759765625 110.99324035644531 112.60475158691406 114.43226623535156 C 112.86962890625 115.6199951171875 113.2264404296875 116.84521484375 114.05416870117188 117.73666381835938 C 114.86618041992188 118.52618408203125 115.890380859375 119.0623779296875 117.00189208984375 119.27984619140625 C 120.34780883789062 120.07070922851562 123.87222290039062 119.35397338867188 126.64350891113281 117.319091796875 L 125.27436828613281 115.57180786132812" stroke-width="0.6000000238418579" fill="rgb(70, 150, 179)" opacity="1.0"/>
    <path d="M 419.20947265625 64.37275695800781 C 420.6468505859375 67.56631469726562 422.374267578125 71.04579162597656 425.62451171875 72.34381103515625 C 429.116943359375 73.736083984375 433.2015380859375 71.9832763671875 435.76531982421875 69.23338317871094 C 436.7542724609375 68.17355346679688 437.6107177734375 66.91435241699219 437.829833984375 65.48161315917969 C 438.0103759765625 64.30389404296875 437.74908447265625 63.10655212402344 437.42596435546875 61.96002197265625 C 436.41131591796875 58.34315490722656 434.5838623046875 54.675048828125 431.29327392578125 52.86474609375 C 427.9755859375 51.04254150390625 423.49566650390625 51.62162780761719 420.76312255859375 54.2457275390625 C 418.03057861328125 56.86981201171875 417.229248046875 61.30961608886719 418.90087890625 64.712158203125 L 419.20947265625 64.37275695800781" stroke-width="0.6000000238418579" fill="rgb(140, 28, 33)" opacity="1.0"/>
    <path d="M 122.2930908203125 424.387451171875 C 124.5379638671875 421.60498046875 126.84323120117188 418.6849365234375 127.71881103515625 415.216064453125 C 128.59439086914062 411.7471923828125 127.60848999023438 407.526123046875 124.51727294921875 405.7261962890625 C 120.69656372070312 403.5128479003906 115.42579650878906 406.20452880859375 113.72756958007812 410.2890625 C 112.02932739257812 414.3736572265625 113.09336853027344 419.118408203125 115.04660034179688 423.08123779296875 C 115.52835083007812 424.3685302734375 116.47509765625 425.42840576171875 117.7000732421875 426.0517578125 C 118.96337890625 426.533935546875 120.75352478027344 425.71435546875 120.695556640625 424.356689453125 L 122.2930908203125 424.387451171875" stroke-width="0.6000000238418579" fill="rgb(159, 159, 159)" opacity="1.0"/>
    <path d="M 476.7432861328125 446.1502685546875 C 477.5494384765625 443.6612548828125 477.5203857421875 440.841796875 476.3193359375 438.51904296875 C 475.1182861328125 436.1962890625 472.6549072265625 434.4783935546875 470.029052734375 434.49993896484375 C 468.1724853515625 434.51751708984375 466.385498046875 435.382080078125 465.021728515625 436.6441650390625 C 463.657958984375 437.9063720703125 462.6837158203125 439.53973388671875 461.953125 441.2486572265625 C 461.6356201171875 441.9925537109375 461.3564453125 442.7957763671875 461.4862060546875 443.592041015625 C 461.634521484375 444.5048828125 462.2913818359375 445.240234375 462.9530029296875 445.8905029296875 C 464.82080078125 447.7264404296875 467.0411376953125 449.34600830078125 469.61572265625 449.82861328125 C 472.19024658203125 450.311279296875 475.1549072265625 449.3994140625 476.4892578125 447.1529541015625 L 476.7432861328125 446.1502685546875" stroke-width="0.6000000238418579" fill="rgb(159, 159, 159)" opacity="1.0"/>
    <path d="M 455.44915771484375 298.6827392578125 C 454.4459228515625 294.0340576171875 453.12939453125 288.9102783203125 449.1666259765625 286.29791259765625 C 445.3162841796875 283.751953125 440.2530517578125 284.418212890625 435.71331787109375 285.2647705078125 C 433.86962890625 285.61138916015625 431.9464111328125 286.00341796875 430.4866943359375 287.18023681640625 C 428.016845703125 289.1691589355469 427.5938720703125 292.7584533691406 427.85552978515625 295.91412353515625 C 428.0972900390625 298.84320068359375 428.7584228515625 301.722412109375 429.818603515625 304.46356201171875 C 431.53839111328125 308.91510009765625 434.90936279296875 313.3351135253906 439.65283203125 313.8422546386719 C 442.2132568359375 314.1197814941406 444.79888916015625 313.1754150390625 446.9296875 311.7218933105469 C 449.060546875 310.26837158203125 450.802978515625 308.32177734375 452.4957275390625 306.37554931640625 C 454.18841552734375 304.4293212890625 455.81005859375 302.4806823730469 456.53680419921875 300.0699462890625 L 455.44915771484375 298.6827392578125" stroke-width="0.6000000238418579" fill="rgb(218, 166, 20)" opacity="1.0"/>
    <path d="M 426.05908203125 372.5773010253906 C 424.279052734375 373.909912109375 423.91632080078125 376.4332275390625 425.2489013671875 378.2132873535156 C 425.363037109375 378.36572265625 425.48779296875 378.5098571777344 425.622314453125 378.6446228027344 C 426.133544921875 379.1566467285156 426.818359375 379.5360107421875 427.54150390625 379.5303955078125 C 428.152587890625 379.5257568359375 428.728515625 379.2527160644531 429.24884033203125 378.9329833984375 C 430.64044189453125 378.0751647949219 431.7769775390625 376.8603820800781 432.5404052734375 375.41485595703125 C 432.7415771484375 375.03240966796875 432.9185791015625 374.6224060058594 432.92950439453125 374.1894836425781 C 432.9482421875 373.4627685546875 432.48712158203125 372.7943115234375 431.90869140625 372.3531188964844 C 431.05029296875 371.6975402832031 429.92266845703125 371.4433288574219 428.8477783203125 371.5519104003906 C 427.77294921875 371.6604919433594 426.750244140625 372.10986328125 425.8709716796875 372.7373046875 L 426.05908203125 372.5773010253906" stroke-width="0.6000000238418579" fill="rgb(143, 165, 67)" opacity="1.0"/>
    <path d="M 452.9503173828125 346.8765869140625 C 458.866455078125 343.8153991699219 458.6077880859375 333.7354431152344 452.799072265625 330.563720703125 C 446.990234375 327.3919982910156 438.66326904296875 332.1506042480469 437.95233154296875 338.7757873535156 C 437.24139404296875 345.40093994140625 443.67657470703125 351.66375732421875 450.33355712890625 351.257080078125 L 452.9503173828125 346.8765869140625" stroke-width="0.6000000238418579" fill="rgb(233, 92, 21)" opacity="1.0"/>
    <path d="M 449.7274169921875 68.12809753417969 C 453.1290283203125 67.62991333007812 457.1407470703125 66.68203735351562 458.3336181640625 63.4451904296875 C 458.7581787109375 62.13859558105469 458.766845703125 60.73243713378906 458.3583984375 59.42070007324219 C 457.43505859375 56.14794921875 454.9827880859375 53.52571105957031 451.77911376953125 52.38555908203125 C 449.05908203125 51.42535400390625 446.10369873046875 51.676544189453125 443.25347900390625 51.98554992675781 C 441.6527099609375 52.16172790527344 439.95751953125 52.39988708496094 438.72747802734375 53.42572021484375 C 437.0992431640625 54.806488037109375 436.77783203125 57.181793212890625 436.81329345703125 59.31575012207031 C 436.861328125 62.438873291015625 437.4144287109375 65.53364562988281 438.45135498046875 68.48001098632812 C 438.81158447265625 69.49734497070312 439.25677490234375 70.537841796875 440.080810546875 71.234130859375 C 440.88018798828125 71.84236145019531 441.8392333984375 72.20486450195312 442.841064453125 72.27743530273438 C 445.871337890625 72.61581420898438 448.89752197265625 71.60781860351562 451.11962890625 69.51992797851562 L 449.7274169921875 68.12809753417969" stroke-width="0.6000000238418579" fill="rgb(70, 150, 179)" opacity="1.0"/>
    <path d="M 456.56787109375 401.05999755859375 C 456.826904296875 398.03643798828125 456.987060546875 394.6741638183594 455.0743408203125 392.3206787109375 C 453.0181884765625 389.79376220703125 449.1871337890625 389.3975830078125 446.086669921875 390.3976135253906 C 444.89111328125 390.7826843261719 443.711669921875 391.37457275390625 442.9415283203125 392.3666076660156 C 442.30810546875 393.181884765625 442.00079345703125 394.1983642578125 441.76177978515625 395.2025146484375 C 441.004150390625 398.3681640625 440.8402099609375 401.9154357910156 442.56732177734375 404.67364501953125 C 444.3099365234375 407.4523010253906 447.94512939453125 408.90362548828125 451.1202392578125 408.0699768066406 C 454.29541015625 407.2363586425781 456.774658203125 404.2137756347656 456.944580078125 400.9332580566406 L 456.56787109375 401.05999755859375" stroke-width="0.6000000238418579" fill="rgb(140, 28, 33)" opacity="1.0"/>
    <path d="M 123.74880981445312 213.90032958984375 C 118.79544067382812 218.02008056640625 113.68661499023438 222.36151123046875 110.90899658203125 228.17984008789062 C 108.1314697265625 233.99810791015625 108.3759765625 241.8056640625 113.19906616210938 246.08245849609375 C 119.16441345214844 251.348388671875 129.43174743652344 248.46249389648438 133.88119506835938 241.8482666015625 C 138.3306427001953 235.2340087890625 138.13388061523438 226.47335815429688 136.08863830566406 218.7789306640625 C 135.69415283203125 216.3336181640625 134.39739990234375 214.1251220703125 132.4542236328125 212.5892333984375 C 130.3932342529297 211.28912353515625 126.93963623046875 212.10211181640625 126.5604248046875 214.52145385742188 L 123.74880981445312 213.90032958984375" stroke-width="0.6000000238418579" fill="rgb(159, 159, 159)" opacity="1.0"/>
    <path d="M 107.18403625488281 239.915283203125 C 101.71145629882812 238.294921875 95.56451416015625 238.5142822265625 90.56546020507812 241.26202392578125 C 85.56640625 244.009765625 81.95626831054688 249.476806640625 82.14859008789062 255.2021484375 C 82.2896728515625 259.24981689453125 84.27391052246094 263.0990295410156 87.10183715820312 266.00335693359375 C 89.92974853515625 268.90771484375 93.54574584960938 270.9419250488281 97.31297302246094 272.44061279296875 C 98.9527587890625 273.09185791015625 100.71994018554688 273.65625 102.44912719726562 273.3292541503906 C 104.43174743652344 272.95526123046875 105.99896240234375 271.4821472167969 107.38053894042969 270.00335693359375 C 111.28096008300781 265.82843017578125 114.69012451171875 260.896728515625 115.60017395019531 255.2554931640625 C 116.51022338867188 249.6142578125 114.35769653320312 243.19940185546875 109.384765625 240.4136962890625 L 107.18403625488281 239.915283203125" stroke-width="0.6000000238418579" fill="rgb(159, 159, 159)" opacity="1.0"/>
    <path d="M 288.0997009277344 89.07684326171875 C 286.5874328613281 94.741943359375 285.1518859863281 101.10450744628906 288.0319519042969 106.19876098632812 C 290.82586669921875 111.15689086914062 296.7564697265625 113.27198791503906 302.2139587402344 114.89491271972656 C 304.43194580078125 115.55093383789062 306.76275634765625 116.20187377929688 309.0260009765625 115.73101806640625 C 312.85430908203125 114.9368896484375 315.3361511230469 111.23599243164062 316.8228759765625 107.62606811523438 C 318.2041320800781 104.27598571777344 319.0971374511719 100.74491882324219 319.47467041015625 97.14097595214844 C 320.0897521972656 91.28939819335938 318.8752746582031 84.54421997070312 313.9551696777344 81.3212890625 C 311.3015441894531 79.57745361328125 307.9333801269531 79.16029357910156 304.778076171875 79.5574951171875 C 301.62274169921875 79.9547119140625 298.61651611328125 81.11129760742188 295.66497802734375 82.29545593261719 C 292.7134704589844 83.47958374023438 289.8386535644531 84.70635986328125 287.6860046386719 86.94320678710938 L 288.0997009277344 89.07684326171875" stroke-width="0.6000000238418579" fill="rgb(218, 166, 20)" opacity="1.0"/>
    <path d="M 227.745361328125 122.15386962890625 C 221.1405029296875 114.77249145507812 209.80242919921875 114.14300537109375 202.42108154296875 120.74786376953125 C 201.78900146484375 121.31341552734375 201.19784545898438 121.92312622070312 200.65203857421875 122.57237243652344 C 198.57864379882812 125.03970336914062 197.16119384765625 128.22581481933594 197.4669189453125 131.4325714111328 C 197.7249755859375 134.14254760742188 199.16024780273438 136.59219360351562 200.78125 138.77691650390625 C 205.1282958984375 144.61892700195312 210.96026611328125 149.19044494628906 217.67138671875 152.01657104492188 C 219.44659423828125 152.7606201171875 221.33477783203125 153.38711547851562 223.260009765625 153.2673797607422 C 226.4921875 153.06826782226562 229.279296875 150.7623291015625 231.0123291015625 148.0240478515625 C 233.58810424804688 143.9604949951172 234.27810668945312 138.8578338623047 233.3787841796875 134.13038635253906 C 232.47946166992188 129.40293884277344 230.088134765625 125.039306640625 226.9622802734375 121.38113403320312 L 227.745361328125 122.15386962890625" stroke-width="0.6000000238418579" fill="rgb(143, 165, 67)" opacity="1.0"/>
    <path d="M 207.582763671875 90.62014770507812 C 209.31768798828125 101.66275024414062 225.50244140625 106.59852600097656 233.63357543945312 99.03341674804688 C 241.7646484375 91.46827697753906 238.60635375976562 75.68704223632812 228.43606567382812 71.04048156738281 C 218.26580810546875 66.3939208984375 204.88128662109375 73.31642150878906 201.99713134765625 84.1302490234375 L 207.582763671875 90.62014770507812" stroke-width="0.6000000238418579" fill="rgb(233, 92, 21)" opacity="1.0"/>
    <path d="M 204.21881103515625 94.71151733398438 C 201.80035400390625 89.52311706542969 198.37335205078125 83.5762939453125 192.64065551757812 83.21856689453125 C 190.35372924804688 83.16500854492188 188.10653686523438 83.8223876953125 186.20907592773438 85.10009765625 C 181.42919921875 88.13516235351562 178.41693115234375 93.2987060546875 178.12744140625 98.95333862304688 C 177.89419555664062 103.75064086914062 179.70559692382812 108.34503173828125 181.55908203125 112.74409484863281 C 182.604248046875 115.21353149414062 183.7933349609375 117.80393981933594 186.016845703125 119.27633666992188 C 188.9967041015625 121.214599609375 192.9390869140625 120.5933837890625 196.326171875 119.5181884765625 C 201.28518676757812 117.95082092285156 205.95779418945312 115.59112548828125 210.16278076171875 112.5306396484375 C 211.6136474609375 111.47039794921875 213.0609130859375 110.26356506347656 213.77822875976562 108.61666870117188 C 214.36688232421875 107.05126953125 214.4873046875 105.348388671875 214.1248779296875 103.7156982421875 C 213.2181396484375 98.72036743164062 210.16571044921875 94.37425231933594 205.7744140625 91.82623291015625 L 204.21881103515625 94.71151733398438" stroke-width="0.6000000238418579" fill="rgb(70, 150, 179)" opacity="1.0"/>
    <path d="M 255.35467529296875 127.33967590332031 C 249.538330078125 127.812255859375 243.11114501953125 128.58029174804688 239.2578125 132.95770263671875 C 235.12127685546875 137.66250610351562 235.5911865234375 145.0538787841797 238.4759521484375 150.6147003173828 C 239.58731079101562 152.7592010498047 241.08566284179688 154.80709838867188 243.21246337890625 155.951416015625 C 244.96044921875 156.89276123046875 246.98602294921875 157.15145874023438 248.9664306640625 157.28466796875 C 255.21112060546875 157.71221923828125 261.9903564453125 156.8924560546875 266.67041015625 152.73794555664062 C 271.38427734375 148.54757690429688 272.97772216796875 141.19129943847656 270.38470458984375 135.43577575683594 C 267.7917175292969 129.68023681640625 261.26953125 125.94216918945312 254.9942626953125 126.66571044921875 L 255.35467529296875 127.33967590332031" stroke-width="0.6000000238418579" fill="rgb(140, 28, 33)" opacity="1.0"/>
    <path d="M 292.6256408691406 120.82719421386719 C 286.897705078125 123.62071228027344 280.9682922363281 126.59066772460938 276.9314270019531 131.52780151367188 C 272.8946533203125 136.46487426757812 271.293701171875 144.02392578125 274.92205810546875 149.2671661376953 C 279.4153747558594 155.72940063476562 289.9588317871094 155.37088012695312 295.7891540527344 150.06216430664062 C 301.6194763183594 144.75343322753906 303.49041748046875 136.28990173339844 303.3346252441406 128.4161376953125 C 303.5306091308594 125.97392272949219 302.8039855957031 123.54707336425781 301.2981262207031 121.61447143554688 C 299.6236572265625 119.88069152832031 296.1142578125 119.84976196289062 295.1809997558594 122.0850830078125 L 292.6256408691406 120.82719421386719" stroke-width="0.6000000238418579" fill="rgb(159, 159, 159)" opacity="1.0"/>
    <path d="M 196.6468505859375 134.14781188964844 C 193.058349609375 129.048095703125 187.6444091796875 125.0667724609375 181.498779296875 124.02973937988281 C 175.35317993164062 122.99269104003906 168.5528564453125 125.22691345214844 164.8343505859375 130.26136779785156 C 162.2098388671875 133.82411193847656 161.2987060546875 138.4669647216797 161.7510986328125 142.8727264404297 C 162.20346069335938 147.27850341796875 163.9210205078125 151.47344970703125 166.13134765625 155.3123016357422 C 167.09420776367188 156.9822998046875 168.22506713867188 158.66436767578125 169.927978515625 159.55706787109375 C 171.8798828125 160.58148193359375 174.221435546875 160.38262939453125 176.40780639648438 160.05303955078125 C 182.58038330078125 159.12249755859375 188.845458984375 157.21051025390625 193.45114135742188 152.99575805664062 C 198.05682373046875 148.78099060058594 200.56399536132812 141.8263702392578 198.19384765625 136.06739807128906 L 196.6468505859375 134.14781188964844" stroke-width="0.6000000238418579" fill="rgb(159, 159, 159)" opacity="1.0"/>
    <path d="M 277.07708740234375 99.71533203125 C 271.769775390625 99.97866821289062 265.8818664550781 100.50128173828125 262.28314208984375 104.39689636230469 C 258.7780456542969 108.18048095703125 258.59466552734375 113.88375854492188 258.70501708984375 119.04252624511719 C 258.7529296875 121.13813781738281 258.83648681640625 123.3297119140625 259.8693542480469 125.15238952636719 C 261.6144714355469 128.23614501953125 265.49517822265625 129.35325622558594 269.02191162109375 129.63685607910156 C 272.29522705078125 129.90135192871094 275.58953857421875 129.69444274902344 278.80401611328125 129.02249145507812 C 284.02386474609375 127.93333435058594 289.5083312988281 125.01799011230469 290.9274597167969 119.88002014160156 C 291.6976318359375 117.10733032226562 291.12518310546875 114.0853271484375 289.908935546875 111.47244262695312 C 288.692626953125 108.85955810546875 286.8623046875 106.58554077148438 285.02337646484375 104.36637878417969 C 283.1844482421875 102.14720153808594 281.3299560546875 100.00604248046875 278.8037414550781 98.76766967773438 L 277.07708740234375 99.71533203125" stroke-width="0.6000000238418579" fill="rgb(218, 166, 20)" opacity="1.0"/>
    <path d="M 227.22601318359375 113.60498046875 C 227.01397705078125 123.29209899902344 234.695068359375 131.31692504882812 244.3822021484375 131.52894592285156 C 245.21170043945312 131.54710388183594 246.04144287109375 131.50637817382812 246.865234375 131.40711975097656 C 249.9952392578125 131.0293426513672 253.13671875 129.69969177246094 255.06072998046875 127.20404052734375 C 256.68682861328125 125.09518432617188 257.2978820800781 122.38589477539062 257.5992431640625 119.74179077148438 C 258.3961181640625 112.6630859375 257.2831115722656 105.5001220703125 254.37579345703125 98.99697875976562 C 253.60443115234375 97.279296875 252.67379760742188 95.57012939453125 251.2181396484375 94.36943054199219 C 248.7755126953125 92.35227966308594 245.243408203125 92.13790893554688 242.17559814453125 92.93670654296875 C 237.62017822265625 94.11943054199219 233.718017578125 97.3045654296875 231.20220947265625 101.28341674804688 C 228.6864013671875 105.26226806640625 227.479736328125 109.97796630859375 227.269287109375 114.68034362792969 L 227.22601318359375 113.60498046875" stroke-width="0.6000000238418579" fill="rgb(143, 165, 67)" opacity="1.0"/>
    <path d="M 249.40325927734375 86.95738220214844 C 248.94644165039062 98.47271728515625 264.3262939453125 106.70573425292969 274.064697265625 100.68319702148438 C 283.8031005859375 94.66062927246094 283.7694091796875 78.06785583496094 274.414306640625 71.33181762695312 C 265.0591735839844 64.59579467773438 250.13650512695312 68.91635131835938 245.053955078125 79.27523803710938 L 249.40325927734375 86.95738220214844" stroke-width="0.6000000238418579" fill="rgb(233, 92, 21)" opacity="1.0"/>
    <path d="M 338.0864562988281 70.61994934082031 C 335.6858825683594 66.01895141601562 332.3411560058594 60.77192687988281 327.1346740722656 60.680267333984375 C 325.061279296875 60.72441101074219 323.0527038574219 61.410858154296875 321.385986328125 62.64494323730469 C 317.17999267578125 65.58740234375 314.66107177734375 70.385986328125 314.6280517578125 75.51896667480469 C 314.6111755371094 79.87322998046875 316.4378967285156 83.96084594726562 318.2947998046875 87.869873046875 C 319.34149169921875 90.06402587890625 320.52337646484375 92.36190795898438 322.5968322753906 93.60531616210938 C 325.3741455078125 95.24000549316406 328.91949462890625 94.51763916015625 331.94354248046875 93.40658569335938 C 336.37127685546875 91.78610229492188 340.50750732421875 89.45965576171875 344.1918640136719 86.51744079589844 C 345.462890625 85.4984130859375 346.7247314453125 84.34675598144531 347.30767822265625 82.82614135742188 C 347.7773742675781 81.38455200195312 347.81744384765625 79.83740234375 347.42303466796875 78.3734130859375 C 346.3993835449219 73.885986328125 343.458740234375 70.07351684570312 339.37841796875 67.94378662109375 L 338.0864562988281 70.61994934082031" stroke-width="0.6000000238418579" fill="rgb(70, 150, 179)" opacity="1.0"/>
    <path d="M 334.360107421875 137.4695587158203 C 335.08489990234375 131.5247039794922 335.6386413574219 124.90487670898438 332.0328369140625 120.12796020507812 C 328.15631103515625 114.99882507324219 320.6286315917969 113.94647216796875 314.4430847167969 115.69944763183594 C 312.0578918457031 116.37429809570312 309.6899719238281 117.45817565917969 308.100830078125 119.3602294921875 C 306.7938537597656 120.92332458496094 306.1159362792969 122.90631103515625 305.573486328125 124.86979675292969 C 303.85540771484375 131.0595703125 303.2810363769531 138.0440216064453 306.4921875 143.6060333251953 C 309.732421875 149.20947265625 316.7991638183594 152.32894897460938 323.12030029296875 150.9094696044922 C 329.44140625 149.48997497558594 334.54486083984375 143.70419311523438 335.11199951171875 137.24623107910156 L 334.360107421875 137.4695587158203" stroke-width="0.6000000238418579" fill="rgb(140, 28, 33)" opacity="1.0"/>
    <path d="M 349.185546875 95.8143310546875 C 343.5308837890625 94.04037475585938 337.6273498535156 92.25680541992188 331.7449035644531 93.01168823242188 C 325.8625793457031 93.76657104492188 319.9497985839844 97.84944152832031 319.049560546875 103.71029663085938 C 317.9544677734375 110.94737243652344 325.3056640625 117.44403076171875 332.6370849609375 117.58441162109375 C 339.968505859375 117.72482299804688 346.6417541503906 113.20352172851562 351.5690002441406 107.78524780273438 C 353.2622985839844 106.26080322265625 354.3226013183594 104.15705871582031 354.54058837890625 101.88911437988281 C 354.51763916015625 99.64772033691406 352.16680908203125 97.38381958007812 350.1076965332031 98.29730224609375 L 349.185546875 95.8143310546875" stroke-width="0.6000000238418579" fill="rgb(159, 159, 159)" opacity="1.0"/>
    <path d="M 344.0205078125 117.0267333984375 C 339.1558837890625 119.39300537109375 334.99603271484375 123.4775390625 333.2561340332031 128.59671020507812 C 331.5162353515625 133.71591186523438 332.4870300292969 139.8491668701172 336.2829895019531 143.73135375976562 C 338.9702453613281 146.47271728515625 342.8199768066406 147.89649963378906 346.6556396484375 148.1197509765625 C 350.4913330078125 148.34300231933594 354.3218078613281 147.45355224609375 357.9156494140625 146.0927734375 C 359.479248046875 145.49966430664062 361.0764465332031 144.76437377929688 362.07696533203125 143.4297637939453 C 363.2247619628906 141.90020751953125 363.3790283203125 139.86741638183594 363.3998107910156 137.9493865966797 C 363.45843505859375 132.53440856933594 362.6894226074219 126.9041748046875 359.7184143066406 122.37582397460938 C 356.74737548828125 117.84747314453125 351.1391296386719 114.73648071289062 345.8788146972656 115.96800231933594 L 344.0205078125 117.0267333984375" stroke-width="0.6000000238418579" fill="rgb(159, 159, 159)" opacity="1.0"/>
    <path d="M 365.0356750488281 88.97323608398438 C 359.9908752441406 89.08041381835938 354.38800048828125 89.41810607910156 350.8672790527344 93.01904296875 C 347.4384765625 96.51615905761719 347.1109924316406 101.9248046875 347.0769958496094 106.82449340820312 C 347.06610107421875 108.81494140625 347.0864562988281 110.89743041992188 348.017822265625 112.65531921386719 C 349.5913391113281 115.62936401367188 353.2449035644531 116.79411315917969 356.5848388671875 117.15817260742188 C 359.68475341796875 117.49728393554688 362.81732177734375 117.38949584960938 365.8865966796875 116.838134765625 C 370.8705749511719 115.9447021484375 376.1548767089844 113.32496643066406 377.6401062011719 108.48616027832031 C 378.44573974609375 105.87503051757812 377.9836730957031 102.99111938476562 376.89947509765625 100.47825622558594 C 375.81524658203125 97.96537780761719 374.1390686035156 95.75765991210938 372.4532165527344 93.60174560546875 C 370.76739501953125 91.44583129882812 369.064697265625 89.36355590820312 366.7001037597656 88.12013244628906 L 365.0356750488281 88.97323608398438" stroke-width="0.6000000238418579" fill="rgb(218, 166, 20)" opacity="1.0"/>
    <path d="M 428.9248046875 139.12071228027344 C 420.41485595703125 139.35879516601562 413.70916748046875 146.45045471191406 413.947265625 154.96038818359375 C 413.9676513671875 155.6890869140625 414.0396728515625 156.41543579101562 414.162841796875 157.13397216796875 C 414.63140869140625 159.86407470703125 415.935791015625 162.56256103515625 418.2099609375 164.14166259765625 C 420.1317138671875 165.47628784179688 422.53594970703125 165.89389038085938 424.869384765625 166.04254150390625 C 431.115966796875 166.43191528320312 437.3529052734375 165.1416015625 442.9322509765625 162.3056640625 C 444.40582275390625 161.5535888671875 445.8648681640625 160.66207885742188 446.85479736328125 159.3321533203125 C 448.5179443359375 157.10040283203125 448.5513916015625 153.99148559570312 447.7161865234375 151.3343963623047 C 446.47882080078125 147.38870239257812 443.512939453125 144.1039276123047 439.9112548828125 142.07044982910156 C 436.3095703125 140.03697204589844 432.11865234375 139.1845703125 427.9830322265625 139.20578002929688 L 428.9248046875 139.12071228027344" stroke-width="0.6000000238418579" fill="rgb(143, 165, 67)" opacity="1.0"/>
    <path d="M 151.2306365966797 406.0987854003906 C 157.49249267578125 414.549072265625 173.13894653320312 411.6065979003906 176.619384765625 401.75341796875 C 180.09979248046875 391.90020751953125 170.5848388671875 380.1197814941406 160.07907104492188 380.6806640625 C 149.57333374023438 381.24151611328125 141.43263244628906 392.8497619628906 143.7435302734375 403.12353515625 L 151.2306365966797 406.0987854003906" stroke-width="0.6000000238418579" fill="rgb(233, 92, 21)" opacity="1.0"/>
    <path d="M 428.62548828125 198.44668579101562 C 424.177978515625 195.87936401367188 418.59893798828125 193.27392578125 414.20269775390625 195.9619140625 C 412.49481201171875 197.09967041015625 411.1820373535156 198.73941040039062 410.4455871582031 200.6549072265625 C 408.4958190917969 205.34521484375 408.94036865234375 210.68966674804688 411.6383056640625 214.993408203125 C 413.93621826171875 218.6383056640625 417.632080078125 221.08163452148438 421.25823974609375 223.35980224609375 C 423.2972412109375 224.63626098632812 425.50433349609375 225.927490234375 427.89593505859375 225.86480712890625 C 431.0830078125 225.755126953125 433.65997314453125 223.2694091796875 435.59521484375 220.7359619140625 C 438.4320068359375 217.03179931640625 440.650634765625 212.89288330078125 442.1649169921875 208.479736328125 C 442.6851806640625 206.95391845703125 443.12738037109375 205.322265625 442.8067626953125 203.74298095703125 C 442.4334716796875 202.289794921875 441.64544677734375 200.97662353515625 440.53875732421875 199.96356201171875 C 437.30126953125 196.75994873046875 432.8214111328125 195.1378173828125 428.2833251953125 195.5260009765625 L 428.62548828125 198.44668579101562" stroke-width="0.6000000238418579" fill="rgb(70, 150, 179)" opacity="1.0"/>
    <path d="M 414.19512939453125 161.500732421875 C 413.637451171875 155.89894104003906 412.7841796875 149.7132110595703 408.4945983886719 146.07318115234375 C 403.8842468261719 142.1657257080078 396.7633056640625 142.74838256835938 391.4502258300781 145.628173828125 C 389.4012451171875 146.73764038085938 387.45220947265625 148.21868896484375 386.3857116699219 150.29006958007812 C 385.50836181640625 151.99253845214844 385.2943115234375 153.95079040527344 385.20050048828125 155.86328125 C 384.8974304199219 161.89398193359375 385.80682373046875 168.41836547851562 389.8958740234375 172.85968017578125 C 394.0201110839844 177.3330078125 401.1433410644531 178.74114990234375 406.6493225097656 176.13934326171875 C 412.1552734375 173.53756713867188 415.6466064453125 167.1812744140625 414.8388671875 161.14126586914062 L 414.19512939453125 161.500732421875" stroke-width="0.6000000238418579" fill="rgb(140, 28, 33)" opacity="1.0"/>
    <path d="M 148.21820068359375 132.23558044433594 C 141.97467041015625 133.41397094726562 135.49090576171875 134.708984375 130.30921936035156 138.39390563964844 C 125.12762451171875 142.0788116455078 121.59811401367188 148.9263153076172 123.7069091796875 154.92355346679688 C 126.3265380859375 162.3206787109375 136.55978393554688 164.75161743164062 143.56394958496094 161.18148803710938 C 150.56809997558594 157.61138916015625 154.59535217285156 149.9651641845703 156.51837158203125 142.3525390625 C 157.34976196289062 140.05563354492188 157.2899169921875 137.5306396484375 156.35064697265625 135.2757568359375 C 155.19683837890625 133.1676788330078 151.8302459716797 132.2140655517578 150.34434509277344 134.117919921875 L 148.21820068359375 132.23558044433594" stroke-width="0.6000000238418579" fill="rgb(159, 159, 159)" opacity="1.0"/>
    <path d="M 437.464111328125 166.71240234375 C 432.325927734375 164.57318115234375 426.343017578125 164.14776611328125 421.2105712890625 166.2930908203125 C 416.078125 168.43844604492188 412.01019287109375 173.36465454101562 411.6023254394531 178.93597412109375 C 411.3189697265625 182.8753662109375 412.84332275390625 186.8135986328125 415.2838134765625 189.92324829101562 C 417.724365234375 193.032958984375 421.01934814453125 195.38070678710938 424.51654052734375 197.22491455078125 C 426.0389404296875 198.026611328125 427.69384765625 198.75732421875 429.4044189453125 198.6197509765625 C 431.3656005859375 198.46292114257812 433.03814697265625 197.19723510742188 434.53125 195.90679931640625 C 438.74658203125 192.26361083984375 442.5640869140625 187.83563232421875 444.0321044921875 182.46026611328125 C 445.5001220703125 177.08486938476562 444.078857421875 170.64141845703125 439.54620361328125 167.42416381835938 L 437.464111328125 166.71240234375" stroke-width="0.6000000238418579" fill="rgb(159, 159, 159)" opacity="1.0"/>
    <path d="M 413.07080078125 194.15423583984375 C 412.3472900390625 188.7559814453125 411.3092346191406 182.78692626953125 407.0220947265625 179.44488525390625 C 402.857421875 176.18887329101562 397.0164794921875 176.49002075195312 391.7568359375 177.0445556640625 C 389.6205139160156 177.27297973632812 387.38922119140625 177.5460205078125 385.61602783203125 178.757080078125 C 382.61578369140625 180.8035888671875 381.8071594238281 184.86297607421875 381.8195495605469 188.48941040039062 C 381.8297424316406 191.8553466796875 382.3232116699219 195.202392578125 383.2848205566406 198.4281005859375 C 384.8443298339844 203.666259765625 388.2917175292969 209.018310546875 393.6611022949219 210.02777099609375 C 396.5590515136719 210.57696533203125 399.5966491699219 209.73342895507812 402.1612548828125 208.26739501953125 C 404.725830078125 206.80130004882812 406.8916931152344 204.73709106445312 409.0008239746094 202.66876220703125 C 411.1099548339844 200.6004638671875 413.1380615234375 198.52294921875 414.18658447265625 195.83663940429688 L 413.07080078125 194.15423583984375" stroke-width="0.6000000238418579" fill="rgb(218, 166, 20)" opacity="1.0"/>
    <path d="M 441.0318603515625 192.09857177734375 C 439.6646728515625 201.29293823242188 446.0098876953125 209.854736328125 455.2042236328125 211.221923828125 C 455.9915771484375 211.33901977539062 456.7861328125 211.40008544921875 457.5821533203125 211.40472412109375 C 460.6065673828125 211.42169189453125 463.75653076171875 210.53411865234375 465.887939453125 208.39031982421875 C 467.6893310546875 206.57882690429688 468.59686279296875 204.07373046875 469.2017822265625 201.59341430664062 C 470.81182861328125 194.9520263671875 470.6142578125 188.00067138671875 468.6295166015625 181.46142578125 C 468.10198974609375 179.73382568359375 467.421875 177.9951171875 466.18084716796875 176.67724609375 C 464.0987548828125 174.4635009765625 460.7628173828125 173.83456420898438 457.746826171875 174.22576904296875 C 453.2689208984375 174.80340576171875 449.1717529296875 177.36544799804688 446.298583984375 180.8497314453125 C 443.425537109375 184.333984375 441.709716796875 188.67706298828125 440.9437255859375 193.12728881835938 L 441.0318603515625 192.09857177734375" stroke-width="0.6000000238418579" fill="rgb(143, 165, 67)" opacity="1.0"/>
    <path d="M 143.25546264648438 95.89718627929688 C 132.0789794921875 104.37918090820312 136.2429962158203 125.20553588867188 149.4396514892578 129.69775390625 C 162.63629150390625 134.18991088867188 178.205322265625 121.31764221191406 177.29672241210938 107.31222534179688 C 176.38809204101562 93.30682373046875 160.77914428710938 82.62496948242188 147.1099090576172 85.86444091796875 L 143.25546264648438 95.89718627929688" stroke-width="0.6000000238418579" fill="rgb(233, 92, 21)" opacity="1.0"/>
    <path d="M 451.568359375 151.25347900390625 C 446.62200927734375 154.60931396484375 441.06146240234375 159.13092041015625 441.64599609375 165.10009765625 C 441.97100830078125 167.46649169921875 443.0223388671875 169.67376708984375 444.655029296875 171.41729736328125 C 448.57855224609375 175.84002685546875 454.40234375 178.086669921875 460.2796630859375 177.44482421875 C 465.26385498046875 176.8875732421875 469.6988525390625 174.25628662109375 473.92547607421875 171.6141357421875 C 476.29736328125 170.12606811523438 478.77001953125 168.46951293945312 479.9180908203125 165.93255615234375 C 481.420654296875 162.5384521484375 480.124755859375 158.57766723632812 478.453125 155.2648162841797 C 476.0128173828125 150.4133758544922 472.8033447265625 145.98890686035156 468.94915771484375 142.16302490234375 C 467.61492919921875 140.84368896484375 466.13018798828125 139.5524444580078 464.313232421875 139.08682250976562 C 462.6015625 138.74029541015625 460.82611083984375 138.8992919921875 459.20330810546875 139.54440307617188 C 454.20458984375 141.30978393554688 450.23187255859375 145.17910766601562 448.33538818359375 150.12960815429688 L 451.568359375 151.25347900390625" stroke-width="0.6000000238418579" fill="rgb(70, 150, 179)" opacity="1.0"/>
    <path d="M 379.739501953125 79.71255493164062 C 381.5435485839844 73.4677734375 383.2809753417969 66.47019958496094 380.24285888671875 60.728485107421875 C 376.97552490234375 54.56254577636719 369.0913391113281 52.133941650390625 362.1604309082031 52.943267822265625 C 359.488037109375 53.254180908203125 356.7634582519531 54.00633239746094 354.73193359375 55.769775390625 C 353.06134033203125 57.218780517578125 351.9922180175781 59.2264404296875 351.0716247558594 61.236602783203125 C 348.1609191894531 67.5721435546875 346.33837890625 74.95684814453125 348.81793212890625 81.47161865234375 C 351.3215026855469 88.03581237792969 358.35455322265625 92.59971618652344 365.373046875 92.171142578125 C 372.3915710449219 91.74258422851562 378.8599548339844 86.42500305175781 380.5837707519531 79.60317993164062 L 379.739501953125 79.71255493164062" stroke-width="0.6000000238418579" fill="rgb(140, 28, 33)" opacity="1.0"/>
    <path d="M 131.0125274658203 406.8558044433594 C 127.00535583496094 413.4151611328125 122.90798950195312 420.28466796875 122.01174926757812 427.92437744140625 C 121.11555480957031 435.56396484375 124.39791870117188 444.2862548828125 131.490966796875 447.25860595703125 C 140.25477600097656 450.9080810546875 150.73768615722656 443.6959228515625 153.21533203125 434.5137939453125 C 155.6929931640625 425.3316650390625 152.09759521484375 415.5146484375 146.82537841796875 407.6134338378906 C 145.43838500976562 405.0040283203125 143.1237030029297 403.00946044921875 140.33802795410156 402.0233154296875 C 137.5101318359375 401.3487548828125 133.92330932617188 403.59661865234375 134.42662048339844 406.4745788574219 L 131.0125274658203 406.8558044433594" stroke-width="0.6000000238418579" fill="rgb(159, 159, 159)" opacity="1.0"/>
    <path d="M 416.7720947265625 221.4774169921875 C 412.28955078125 215.86135864257812 405.7852478027344 211.65875244140625 398.6442565917969 210.89364624023438 C 391.5032653808594 210.1285400390625 383.8368835449219 213.17169189453125 379.9101867675781 219.22119140625 C 377.1393737792969 223.5018310546875 376.41448974609375 228.905517578125 377.241455078125 233.941650390625 C 378.0683898925781 238.977783203125 380.3359375 243.68338012695312 383.1454772949219 247.945068359375 C 384.36920166015625 249.7989501953125 385.7870178222656 251.65496826171875 387.8078918457031 252.56326293945312 C 390.1242980957031 253.60568237304688 392.8037414550781 253.21401977539062 395.2956237792969 252.6827392578125 C 402.3306884765625 251.18280029296875 409.4038391113281 248.54757690429688 414.4080810546875 243.379150390625 C 419.41229248046875 238.210693359375 421.81207275390625 230.036865234375 418.68505859375 223.57769775390625 L 416.7720947265625 221.4774169921875" stroke-width="0.6000000238418579" fill="rgb(159, 159, 159)" opacity="1.0"/>
    <path d="M 384.3470458984375 111.42959594726562 C 378.0089416503906 111.71540832519531 370.9762268066406 112.30767822265625 366.6585388183594 116.93948364257812 C 362.4532470703125 121.43801879882812 362.20355224609375 128.24649047851562 362.3075256347656 134.4064178466797 C 362.35345458984375 136.90875244140625 362.44140625 139.5258331298828 363.664794921875 141.7075958251953 C 365.73175048828125 145.39886474609375 370.359130859375 146.7535400390625 374.568359375 147.11114501953125 C 378.4751281738281 147.44456481933594 382.40948486328125 147.21527099609375 386.2510681152344 146.43031311035156 C 392.48919677734375 145.15802001953125 399.0531005859375 141.70677185058594 400.775146484375 135.5799102783203 C 401.70965576171875 132.27359008789062 401.0424499511719 128.66236877441406 399.6043395996094 125.53616333007812 C 398.1662292480469 122.40994262695312 395.9931640625 119.68502807617188 393.80950927734375 117.02552795410156 C 391.6258544921875 114.36602783203125 389.4232177734375 111.79959106445312 386.4136962890625 110.30741882324219 L 384.3470458984375 111.42959594726562" stroke-width="0.6000000238418579" fill="rgb(218, 166, 20)" opacity="1.0"/>
    <path d="M 403.44952392578125 82.31781005859375 C 395.4852294921875 75.75663757324219 383.7099609375 76.89410400390625 377.1488037109375 84.85841369628906 C 376.5869445800781 85.5404052734375 376.07421875 86.26138305664062 375.6144104003906 87.01593017578125 C 373.8677673339844 89.88339233398438 372.9098815917969 93.38772583007812 373.7297668457031 96.64193725585938 C 374.42236328125 99.39205932617188 376.2862243652344 101.68867492675781 378.29962158203125 103.6832275390625 C 383.69635009765625 109.0147705078125 390.4222412109375 112.80403137207031 397.7785339355469 114.65742492675781 C 399.7238464355469 115.14405822753906 401.7669677734375 115.49185180664062 403.7307434082031 115.06532287597656 C 407.0279235839844 114.3511962890625 409.534912109375 111.53756713867188 410.88836669921875 108.4447021484375 C 412.90093994140625 103.85433959960938 412.807861328125 98.49087524414062 411.13714599609375 93.76412963867188 C 409.4664611816406 89.03738403320312 406.31658935546875 84.92030334472656 402.5213623046875 81.6453857421875 L 403.44952392578125 82.31781005859375" stroke-width="0.6000000238418579" fill="rgb(143, 165, 67)" opacity="1.0"/>
    <path d="M 116.96723937988281 426.89276123046875 C 112.43170166015625 415.067626953125 93.33027648925781 413.42852783203125 86.11082458496094 423.73516845703125 C 78.89141845703125 434.0418701171875 86.12545776367188 450.78076171875 98.49417114257812 453.522705078125 C 110.86288452148438 456.2645263671875 124.05535888671875 445.4267578125 124.69216918945312 432.7620849609375 L 116.96723937988281 426.89276123046875" stroke-width="0.6000000238418579" fill="rgb(233, 92, 21)" opacity="1.0"/>
    <path d="M 450.4560546875 214.5341796875 C 443.91845703125 214.62945556640625 436.11895751953125 215.42129516601562 433.0665283203125 221.22857666015625 C 431.9417724609375 223.5869140625 431.57647705078125 226.23617553710938 432.02117919921875 228.8109130859375 C 432.95001220703125 235.21099853515625 436.92333984375 240.76388549804688 442.68115234375 243.70864868164062 C 447.57177734375 246.19415283203125 453.20660400390625 246.45382690429688 458.6575927734375 246.57839965820312 C 461.7197265625 246.6434326171875 464.97515869140625 246.614990234375 467.5489501953125 244.98593139648438 C 470.9617919921875 242.78640747070312 472.15716552734375 238.38739013671875 472.61981201171875 234.3548583984375 C 473.3043212890625 228.45407104492188 473.0291748046875 222.4814453125 471.8050537109375 216.66854858398438 C 471.3782958984375 214.66091918945312 470.7969970703125 212.5885009765625 469.416015625 211.0711669921875 C 468.0596923828125 209.7259521484375 466.34130859375 208.80447387695312 464.4703369140625 208.4190673828125 C 458.8404541015625 207.02911376953125 452.88427734375 208.1788330078125 448.17626953125 211.56427001953125 L 450.4560546875 214.5341796875" stroke-width="0.6000000238418579" fill="rgb(70, 150, 179)" opacity="1.0"/>
    <path d="M 429.1112060546875 132.9442138671875 C 430.597900390625 126.86199951171875 431.99053955078125 120.05792236328125 428.837158203125 114.6533203125 C 425.4462890625 108.84959411621094 417.76123046875 106.82723999023438 411.12310791015625 107.883056640625 C 408.56353759765625 108.2890625 405.97137451171875 109.12179565429688 404.08660888671875 110.900146484375 C 402.5367126464844 112.36148071289062 401.58795166015625 114.33639526367188 400.7822570800781 116.30781555175781 C 398.2340393066406 122.5216064453125 396.7750244140625 129.70164489746094 399.42169189453125 135.87258911132812 C 402.09344482421875 142.09011840820312 409.0445861816406 146.20155334472656 415.78228759765625 145.50869750976562 C 422.51995849609375 144.81582641601562 428.5328369140625 139.43960571289062 429.91937255859375 132.80523681640625 L 429.1112060546875 132.9442138671875" stroke-width="0.6000000238418579" fill="rgb(140, 28, 33)" opacity="1.0"/>
    <path d="M 385.3087158203125 55.792083740234375 C 385.9518127441406 62.85368347167969 386.6988525390625 70.194580078125 390.23974609375 76.34396362304688 C 393.78057861328125 82.49322509765625 401.010986328125 87.14450073242188 407.8982238769531 85.4415283203125 C 416.39508056640625 83.32040405273438 420.1871337890625 72.21163940429688 416.9681396484375 64.04995727539062 C 413.74920654296875 55.88825988769531 405.68463134765625 50.59883117675781 397.43292236328125 47.65055847167969 C 394.9700012207031 46.48197937011719 392.1585998535156 46.27912902832031 389.553466796875 47.08209228515625 C 387.08856201171875 48.13896179199219 385.6700744628906 51.77717590332031 387.6265869140625 53.63092041015625 L 385.3087158203125 55.792083740234375" stroke-width="0.6000000238418579" fill="rgb(159, 159, 159)" opacity="1.0"/>
    <path d="M 434.138916015625 244.24554443359375 C 427.78387451171875 247.2696533203125 422.32647705078125 252.5369873046875 420.00579833984375 259.1773681640625 C 417.68511962890625 265.8177795410156 418.87957763671875 273.8077087402344 423.77459716796875 278.9006652832031 C 427.239990234375 282.4970397949219 432.232421875 284.392333984375 437.219970703125 284.7255859375 C 442.20751953125 285.0588684082031 447.20074462890625 283.9444885253906 451.891357421875 282.21429443359375 C 453.93212890625 281.4601745605469 456.01824951171875 280.52142333984375 457.33477783203125 278.79632568359375 C 458.8450927734375 276.8192443847656 459.0684814453125 274.1763916015625 459.116943359375 271.6813659667969 C 459.253662109375 264.6373596191406 458.31610107421875 257.3041076660156 454.50146484375 251.3797607421875 C 450.6868896484375 245.45538330078125 443.425537109375 241.34552001953125 436.568359375 242.888916015625 L 434.138916015625 244.24554443359375" stroke-width="0.6000000238418579" fill="rgb(159, 159, 159)" opacity="1.0"/>
    <path d="M 416.9500732421875 263.04742431640625 C 412.6385498046875 257.9895935058594 407.62701416015625 252.5543212890625 401.0204162597656 251.961669921875 C 394.5963134765625 251.37625122070312 388.80517578125 255.54733276367188 383.77777099609375 259.5939025878906 C 381.73785400390625 261.24078369140625 379.63006591796875 262.9961853027344 378.61236572265625 265.41070556640625 C 376.8886413574219 269.493408203125 378.7435607910156 274.1912841796875 381.1541748046875 277.9022216796875 C 383.39031982421875 281.34747314453125 386.1095886230469 284.4537658691406 389.2287292480469 287.1260681152344 C 394.291748046875 291.4669494628906 401.3662414550781 294.6763000488281 407.5403747558594 292.1611022949219 C 410.87554931640625 290.80810546875 413.43304443359375 287.9344787597656 415.09375 284.7351379394531 C 416.7545166015625 281.5357971191406 417.61083984375 277.9866638183594 418.40625 274.4708251953125 C 419.20166015625 270.9549865722656 419.9078369140625 267.4833068847656 419.2069091796875 264.0350341796875 L 416.9500732421875 263.04742431640625" stroke-width="0.6000000238418579" fill="rgb(218, 166, 20)" opacity="1.0"/>
    <path d="M 411.8125915527344 86.0643310546875 C 408.154052734375 95.67733764648438 412.9810791015625 106.43606567382812 422.5941162109375 110.0946044921875 C 423.41729736328125 110.40789794921875 424.26165771484375 110.66236877441406 425.120849609375 110.85617065429688 C 428.38568115234375 111.59193420410156 432.00067138671875 111.37979125976562 434.8128662109375 109.56832885742188 C 437.189453125 108.0377197265625 438.7645263671875 105.54547119140625 440.006591796875 103.00820922851562 C 443.32208251953125 96.21206665039062 444.75732421875 88.652099609375 444.163330078125 81.11370849609375 C 444.00299072265625 79.12135314941406 443.6802978515625 77.08084106445312 442.651611328125 75.36209106445312 C 440.9263916015625 72.47563171386719 437.47003173828125 71.00457763671875 434.11761474609375 70.71200561523438 C 429.1407470703125 70.274169921875 424.1048583984375 72.0714111328125 420.173095703125 75.15574645996094 C 416.2413330078125 78.24005126953125 413.3568115234375 82.527099609375 411.4732971191406 87.15524291992188 L 411.8125915527344 86.0643310546875" stroke-width="0.6000000238418579" fill="rgb(143, 165, 67)" opacity="1.0"/>
    <path d="M 432.55059814453125 122.6478271484375 C 428.527587890625 134.9969024658203 442.68585205078125 148.63742065429688 455.09259033203125 145.08885192871094 C 467.49932861328125 141.5402374267578 472.54571533203125 123.53414916992188 464.4630126953125 113.36276245117188 C 456.38037109375 103.19139099121094 438.8724365234375 103.30596923828125 430.18682861328125 112.98379516601562 L 432.55059814453125 122.6478271484375" stroke-width="0.6000000238418579" fill="rgb(233, 92, 21)" opacity="1.0"/>
    <path d="M 448.78656005859375 92.84661865234375 C 448.4014892578125 98.87261962890625 448.5665283203125 106.11077880859375 453.6925048828125 109.34103393554688 C 455.78240966796875 110.54714965820312 458.19512939453125 111.07504272460938 460.5977783203125 110.85182189941406 C 466.55743408203125 110.45948791503906 471.95721435546875 107.202880859375 475.0848388671875 102.11471557617188 C 477.726806640625 97.791748046875 478.3734130859375 92.62260437011719 478.88232421875 87.61299133300781 C 479.16363525390625 84.79843139648438 479.37286376953125 81.79913330078125 478.05914306640625 79.3116455078125 C 476.2808837890625 76.01042175292969 472.31719970703125 74.59176635742188 468.63800048828125 73.87417602539062 C 463.2547607421875 72.81727600097656 457.73590087890625 72.63865661621094 452.2955322265625 73.34526062011719 C 450.416259765625 73.593017578125 448.46624755859375 73.97830200195312 446.9693603515625 75.14009094238281 C 445.63275146484375 76.29151916503906 444.66009521484375 77.80697631835938 444.169921875 79.50167846679688 C 442.48309326171875 84.58447265625 443.11090087890625 90.15139770507812 445.8873291015625 94.73086547851562 L 448.78656005859375 92.84661865234375" stroke-width="0.6000000238418579" fill="rgb(70, 150, 179)" opacity="1.0"/>
    <path d="M 312.9608154296875 366.11309814453125 C 307.1824951171875 363.516845703125 300.6686706542969 360.8817138671875 294.7123107910156 363.0265197753906 C 288.31524658203125 365.3343811035156 284.89178466796875 372.6089782714844 284.7231140136719 379.40740966796875 C 284.656982421875 382.028564453125 285.0094299316406 384.7605285644531 286.4326477050781 386.9623107910156 C 287.6018981933594 388.77276611328125 289.392578125 390.07940673828125 291.2060241699219 391.2430725097656 C 296.9203186035156 394.9195556640625 303.7960205078125 397.6898193359375 310.4217529296875 396.18988037109375 C 317.09844970703125 394.6735534667969 322.46563720703125 388.51275634765625 323.0137023925781 381.68194580078125 C 323.5617370605469 374.8511657714844 319.31707763671875 367.8813781738281 312.9709777832031 365.2834777832031 L 312.9608154296875 366.11309814453125" stroke-width="0.6000000238418579" fill="rgb(140, 28, 33)" opacity="1.0"/>
    <path d="M 298.705322265625 393.1828918457031 C 291.06689453125 390.7026672363281 283.09130859375 388.2060546875 275.11004638671875 389.14947509765625 C 267.12890625 390.0929260253906 259.06158447265625 395.54559326171875 257.76251220703125 403.4752197265625 C 256.1808166503906 413.26708984375 266.05438232421875 422.1697998046875 275.98699951171875 422.4591064453125 C 285.91961669921875 422.7484130859375 295.02337646484375 416.7119140625 301.7733154296875 409.4364318847656 C 304.08843994140625 407.3935852050781 305.5536193847656 404.55718994140625 305.8796691894531 401.4869384765625 C 305.87884521484375 398.44940185546875 302.7239074707031 395.34991455078125 299.9213562011719 396.5599060058594 L 298.705322265625 393.1828918457031" stroke-width="0.6000000238418579" fill="rgb(159, 159, 159)" opacity="1.0"/>
    <path d="M 322.99371337890625 416.150634765625 C 317.489501953125 420.27081298828125 313.2770690917969 426.3665771484375 312.3332214355469 433.17333984375 C 311.3893737792969 439.9801025390625 314.07208251953125 447.4024658203125 319.7410888671875 451.3375244140625 C 323.7526550292969 454.1146240234375 328.89910888671875 454.9683837890625 333.7401123046875 454.3270263671875 C 338.58111572265625 453.685791015625 343.1487731933594 451.6568603515625 347.3080139160156 449.09649658203125 C 349.11737060546875 447.981201171875 350.9345397949219 446.68035888671875 351.86322021484375 444.774658203125 C 352.9289855957031 442.5902099609375 352.63397216796875 440.0159912109375 352.1999206542969 437.6170654296875 C 350.974365234375 430.8443603515625 348.6641540527344 424.00146484375 343.86981201171875 419.06201171875 C 339.075439453125 414.12255859375 331.3294372558594 411.5847473144531 325.0592041015625 414.38348388671875 L 322.99371337890625 416.150634765625" stroke-width="0.6000000238418579" fill="rgb(159, 159, 159)" opacity="1.0"/>
    <path d="M 258.0090026855469 412.75537109375 C 251.00479125976562 412.8389892578125 243.222900390625 413.2354736328125 238.28924560546875 418.1885986328125 C 233.48443603515625 422.998779296875 232.9600830078125 430.50244140625 232.849609375 437.30340576171875 C 232.808837890625 440.0662841796875 232.8101806640625 442.957275390625 234.08038330078125 445.40948486328125 C 236.22622680664062 449.55816650390625 241.28280639648438 451.22216796875 245.91436767578125 451.7706298828125 C 250.21307373046875 452.2813720703125 254.5628662109375 452.172119140625 258.8305358886719 451.4464111328125 C 265.760498046875 450.2705078125 273.12957763671875 446.70220947265625 275.25372314453125 440.0045166015625 C 276.40576171875 436.3902587890625 275.80157470703125 432.381103515625 274.3289794921875 428.87890625 C 272.85638427734375 425.376708984375 270.55810546875 422.29052734375 268.2457580566406 419.27606201171875 C 265.9334411621094 416.2615966796875 263.5967712402344 413.34912109375 260.3304748535156 411.5926208496094 L 258.0090026855469 412.75537109375" stroke-width="0.6000000238418579" fill="rgb(218, 166, 20)" opacity="1.0"/>
    <path d="M 220.14410400390625 414.964599609375 C 209.81976318359375 408.99407958984375 196.61013793945312 412.5235595703125 190.63961791992188 422.847900390625 C 190.12835693359375 423.73193359375 189.68048095703125 424.65118408203125 189.29928588867188 425.5986328125 C 187.8515625 429.1990966796875 187.42388916015625 433.3760986328125 188.97564697265625 436.930908203125 C 190.2867431640625 439.93505859375 192.84722900390625 442.2000732421875 195.52093505859375 444.0924072265625 C 202.68478393554688 449.14776611328125 211.07159423828125 452.1927490234375 219.81011962890625 452.9111328125 C 222.12030029296875 453.09710693359375 224.51568603515625 453.10626220703125 226.67373657226562 452.24761962890625 C 230.29754638671875 450.80828857421875 232.62237548828125 447.12506103515625 233.57904052734375 443.3421630859375 C 235.0032958984375 437.7269287109375 233.8802490234375 431.62957763671875 231.0792236328125 426.5572509765625 C 228.2781982421875 421.4849853515625 223.9063720703125 417.38818359375 218.9583740234375 414.3739013671875 L 220.14410400390625 414.964599609375" stroke-width="0.6000000238418579" fill="rgb(143, 165, 67)" opacity="1.0"/>
    <path d="M 262.3103942871094 360.1076354980469 C 269.56890869140625 371.7899475097656 290.2755126953125 369.6264343261719 295.86419677734375 357.1564025878906 C 301.4528503417969 344.6863708496094 290.3102722167969 328.3162536621094 276.5580139160156 327.92498779296875 C 262.8057861328125 327.53369140625 250.955810546875 341.79327392578125 252.87014770507812 355.43011474609375 L 262.3103942871094 360.1076354980469" stroke-width="0.6000000238418579" fill="rgb(233, 92, 21)" opacity="1.0"/>
    <path d="M 330.6011047363281 348.9468688964844 C 325.998779296875 353.6854553222656 320.99267578125 359.8231201171875 322.9608459472656 366.15240478515625 C 323.84210205078125 368.64068603515625 325.47381591796875 370.7942199707031 327.630859375 372.31585693359375 C 332.8666687011719 376.22442626953125 339.6721496582031 377.3527526855469 345.88916015625 375.3430480957031 C 351.1585693359375 373.624755859375 355.3695373535156 369.78472900390625 359.35260009765625 365.97955322265625 C 361.5865783691406 363.8384094238281 363.89190673828125 361.49237060546875 364.5667724609375 358.4898681640625 C 365.43353271484375 354.48040771484375 363.144775390625 350.4838562011719 360.5944519042969 347.2725830078125 C 356.8678894042969 342.56817626953125 352.4044494628906 338.49798583984375 347.37725830078125 335.2198486328125 C 345.63812255859375 334.0905456542969 343.7423400878906 333.0252990722656 341.6717224121094 332.9279479980469 C 339.7418212890625 332.9358825683594 337.8559265136719 333.5052185058594 336.2439880371094 334.5664978027344 C 331.2291564941406 337.5955505371094 327.7955017089844 342.6719970703125 326.8507385253906 348.4539794921875 L 330.6011047363281 348.9468688964844" stroke-width="0.6000000238418579" fill="rgb(70, 150, 179)" opacity="1.0"/>
    <path d="M 296.3353576660156 417.4256591796875 C 289.2903747558594 417.5465087890625 281.4866638183594 417.976318359375 276.50592041015625 422.9537353515625 C 271.1586608886719 428.30377197265625 271.15484619140625 437.246337890625 274.2019958496094 444.16943359375 C 275.375732421875 446.8392333984375 277.02325439453125 449.42236328125 279.4976806640625 450.96527099609375 C 281.5313415527344 452.234375 283.9521484375 452.70233154296875 286.32818603515625 453.01556396484375 C 293.8198547363281 454.01239013671875 302.0517883300781 453.5474853515625 308.011474609375 448.90240478515625 C 314.01470947265625 444.21673583984375 316.50213623046875 435.4755859375 313.8215637207031 428.34039306640625 C 311.1409912109375 421.2052001953125 303.5702819824219 416.19793701171875 295.9530029296875 416.5858154296875 L 296.3353576660156 417.4256591796875" stroke-width="0.6000000238418579" fill="rgb(140, 28, 33)" opacity="1.0"/>
    <path d="M 326.75933837890625 380.92584228515625 C 319.2607727050781 383.81195068359375 311.4898986816406 386.89776611328125 305.88238525390625 392.6603088378906 C 300.27496337890625 398.4228210449219 297.44207763671875 407.74365234375 301.4295349121094 414.72418212890625 C 306.3708801269531 423.3299560546875 319.6534729003906 424.02606201171875 327.5541687011719 417.99176025390625 C 335.454833984375 411.95745849609375 338.7252197265625 401.52984619140625 339.38568115234375 391.6227111816406 C 339.89739990234375 388.5763854980469 339.24859619140625 385.4490051269531 337.56719970703125 382.85772705078125 C 335.6524353027344 380.49786376953125 331.2476501464844 380.0774230957031 329.83233642578125 382.7837219238281 L 326.75933837890625 380.92584228515625" stroke-width="0.6000000238418579" fill="rgb(159, 159, 159)" opacity="1.0"/>
    <path d="M 364.4682312011719 411.5603942871094 C 358.4352722167969 415.2686767578125 353.5414123535156 421.124755859375 351.9332275390625 428.01751708984375 C 350.32501220703125 434.91021728515625 352.3785400390625 442.775390625 357.822998046875 447.3446044921875 C 361.6763916015625 450.57025146484375 366.87469482421875 451.929931640625 371.9002380371094 451.7274169921875 C 376.92584228515625 451.52490234375 381.8015441894531 449.87353515625 386.308349609375 447.6385498046875 C 388.2690124511719 446.664794921875 390.2551574707031 445.50146484375 391.3869323730469 443.6341552734375 C 392.6854553222656 441.493896484375 392.6249694824219 438.82586669921875 392.4053649902344 436.32452392578125 C 391.7852783203125 429.2626953125 390.0592956542969 422.02691650390625 385.6064147949219 416.509765625 C 381.15350341796875 410.99267578125 373.44732666015625 407.6612243652344 366.7529296875 409.942138671875 L 364.4682312011719 411.5603942871094" stroke-width="0.6000000238418579" fill="rgb(159, 159, 159)" opacity="1.0"/>
    <path d="M 250.94149780273438 366.43701171875 C 252.33880615234375 359.4492492675781 253.58929443359375 351.6214599609375 249.70321655273438 345.6648254394531 C 245.93212890625 339.8666687011719 238.57589721679688 337.7586669921875 231.8314208984375 336.21112060546875 C 229.09063720703125 335.58648681640625 226.21340942382812 334.9767150878906 223.50469970703125 335.72235107421875 C 218.922607421875 336.98077392578125 216.1978759765625 341.66094970703125 214.67303466796875 346.1540222167969 C 213.256103515625 350.3238220214844 212.44525146484375 354.67547607421875 212.26531982421875 359.0757751464844 C 211.9705810546875 366.22052001953125 213.96377563476562 374.3079833984375 220.17984008789062 377.83758544921875 C 223.53289794921875 379.7480163574219 227.6502685546875 379.9942321777344 231.4466552734375 379.2691345214844 C 235.24307250976562 378.5440368652344 238.80010986328125 376.90936279296875 242.28863525390625 375.2454833984375 C 245.77719116210938 373.5816650390625 249.16940307617188 371.87200927734375 251.60784912109375 368.9929504394531 L 250.94149780273438 366.43701171875" stroke-width="0.6000000238418579" fill="rgb(218, 166, 20)" opacity="1.0"/>
    <path d="M 254.80532836914062 387.7115173339844 C 249.96029663085938 376.9313049316406 237.29351806640625 372.119873046875 226.5133056640625 376.96490478515625 C 225.59017944335938 377.3797607421875 224.69769287109375 377.859619140625 223.84246826171875 378.40081787109375 C 220.59323120117188 380.4577941894531 217.83035278320312 383.5691833496094 217.01968383789062 387.32647705078125 C 216.33428955078125 390.5015869140625 217.0816650390625 393.8058776855469 218.13595581054688 396.8759765625 C 220.9693603515625 405.09002685546875 225.950439453125 412.39556884765625 232.561767578125 418.03375244140625 C 234.31182861328125 419.5211181640625 236.23284912109375 420.9156494140625 238.46554565429688 421.4749755859375 C 242.2132568359375 422.416015625 246.21578979492188 420.8004150390625 249.17581176757812 418.31231689453125 C 253.57293701171875 414.6214599609375 256.2008361816406 409.0677490234375 256.8857116699219 403.36663818359375 C 257.57061767578125 397.66552734375 256.4273681640625 391.8392333984375 254.19387817382812 386.5498352050781 L 254.80532836914062 387.7115173339844" stroke-width="0.6000000238418579" fill="rgb(143, 165, 67)" opacity="1.0"/>
    <path d="M 196.15557861328125 371.8108215332031 C 181.4334716796875 371.3628845214844 171.0931396484375 391.1156311035156 178.9049072265625 403.4903259277344 C 186.71673583984375 415.864990234375 207.92205810546875 415.6260986328125 216.42034912109375 403.5906982421875 C 224.91864013671875 391.5552978515625 219.2208251953125 372.53497314453125 205.92208862304688 366.1617126464844 L 196.15557861328125 371.8108215332031" stroke-width="0.6000000238418579" fill="rgb(233, 92, 21)" opacity="1.0"/>
    <path d="M 254.43435668945312 371.859375 C 251.52105712890625 377.8507995605469 248.6624755859375 385.30987548828125 252.54507446289062 390.75164794921875 C 254.1744384765625 392.85711669921875 256.4170227050781 394.4051208496094 258.9634704589844 395.1820068359375 C 265.2122802734375 397.2738342285156 272.08734130859375 396.2071533203125 277.40850830078125 392.3201904296875 C 281.91387939453125 389.01141357421875 284.73583984375 384.00421142578125 287.3504943847656 379.102294921875 C 288.81475830078125 376.3463134765625 290.2827453613281 373.3715515136719 289.98175048828125 370.282470703125 C 289.5467834472656 366.16827392578125 286.0932312011719 363.06219482421875 282.6368713378906 360.7908630371094 C 277.5826721191406 357.4604187011719 272.022705078125 354.97003173828125 266.17266845703125 353.416259765625 C 264.1503601074219 352.8832702636719 261.9982604980469 352.46112060546875 259.98406982421875 353.0212707519531 C 258.1379089355469 353.63787841796875 256.51104736328125 354.77838134765625 255.30184936523438 356.30364990234375 C 251.45391845703125 360.78765869140625 249.76675415039062 366.73394775390625 250.68630981445312 372.5706787109375 L 254.43435668945312 371.859375" stroke-width="0.6000000238418579" fill="rgb(70, 150, 179)" opacity="1.0"/>
    <path d="M 331.1184997558594 354.3989562988281 C 331.385009765625 347.22540283203125 331.3791809082031 339.2629089355469 326.5909729003906 333.92083740234375 C 321.44390869140625 328.1853332519531 312.3468017578125 327.6871032714844 305.135498046875 330.404296875 C 302.35467529296875 331.45074462890625 299.63568115234375 332.9839782714844 297.9293212890625 335.41595458984375 C 296.5258483886719 337.4146423339844 295.9159851074219 339.8514404296875 295.4659729003906 342.25128173828125 C 294.0378112792969 349.8174743652344 294.05572509765625 358.2175598144531 298.45172119140625 364.5371398925781 C 302.8866271972656 370.90325927734375 311.6415100097656 373.9169006347656 319.04833984375 371.5843811035156 C 326.4551696777344 369.2518310546875 331.9675598144531 361.8269348144531 331.9940490722656 354.0564270019531 L 331.1184997558594 354.3989562988281" stroke-width="0.6000000238418579" fill="rgb(140, 28, 33)" opacity="1.0"/>
    <path d="M 364.1286315917969 395.9303894042969 C 356.32147216796875 395.1943359375 348.1895751953125 394.5144958496094 340.78515625 397.1139221191406 C 333.380859375 399.7133483886719 326.8551025390625 406.62799072265625 327.306640625 414.46099853515625 C 327.8855895996094 424.1287841796875 339.19097900390625 430.5086669921875 348.7174987792969 428.66815185546875 C 358.2440185546875 426.82763671875 365.63299560546875 419.1358642578125 370.5149841308594 410.764892578125 C 372.2858581542969 408.32501220703125 373.0777587890625 405.3100280761719 372.7343444824219 402.31488037109375 C 372.0863952636719 399.4205627441406 368.419677734375 397.1391906738281 366.00689697265625 398.8893127441406 L 364.1286315917969 395.9303894042969" stroke-width="0.6000000238418579" fill="rgb(159, 159, 159)" opacity="1.0"/>
    <path d="M 174.8011474609375 406.55401611328125 C 167.29409790039062 406.8843994140625 159.73672485351562 409.79400634765625 154.69268798828125 415.3585205078125 C 149.64865112304688 420.9229736328125 147.4998779296875 429.276611328125 150.19497680664062 436.32080078125 C 152.1067657470703 441.29864501953125 156.2276611328125 445.2388916015625 160.99346923828125 447.64111328125 C 165.75930786132812 450.0433349609375 171.13287353515625 451.0244140625 176.4649658203125 451.27410888671875 C 178.78546142578125 451.38134765625 181.22723388671875 451.325927734375 183.2393798828125 450.17724609375 C 185.546875 448.861328125 186.86581420898438 446.35540771484375 187.95123291015625 443.922119140625 C 191.01559448242188 437.0523681640625 193.14385986328125 429.4512939453125 191.85699462890625 422.0389404296875 C 190.57009887695312 414.62664794921875 185.13922119140625 407.5649719238281 177.75430297851562 406.2304992675781 L 174.8011474609375 406.55401611328125" stroke-width="0.6000000238418579" fill="rgb(159, 159, 159)" opacity="1.0"/>
    <path d="M 369.0509338378906 364.796630859375 C 363.0610656738281 361.4996337890625 356.26019287109375 358.0943603515625 349.6875915527344 359.9293212890625 C 343.293212890625 361.7048034667969 339.2395324707031 367.8265380859375 335.8753662109375 373.5504150390625 C 334.51214599609375 375.877685546875 333.1231384277344 378.3340759277344 333.0229187011719 381.02783203125 C 332.8507385253906 385.583740234375 336.3458251953125 389.4287109375 340.0163269042969 392.1217346191406 C 343.4222106933594 394.6226806640625 347.1695556640625 396.6215515136719 351.1436462402344 398.0572814941406 C 357.59564208984375 400.39080810546875 365.5710754394531 400.90325927734375 370.5960998535156 396.2353820800781 C 373.3126220703125 393.7193603515625 374.7272644042969 390.02325439453125 375.16046142578125 386.34027099609375 C 375.5936584472656 382.6572570800781 375.12548828125 378.9305419921875 374.61083984375 375.258056640625 C 374.09619140625 371.5855712890625 373.5118408203125 367.9880065917969 371.5820007324219 364.92529296875 L 369.0509338378906 364.796630859375" stroke-width="0.6000000238418579" fill="rgb(218, 166, 20)" opacity="1.0"/>
    <path d="M 374.6842041015625 380.63970947265625 C 367.5745849609375 390.09942626953125 369.479736328125 403.53155517578125 378.9394836425781 410.64117431640625 C 379.74951171875 411.2499694824219 380.6017150878906 411.800537109375 381.48968505859375 412.2886962890625 C 384.86407470703125 414.1431884765625 388.9277648925781 415.0614013671875 392.6140441894531 413.9556884765625 C 395.7292785644531 413.0216064453125 398.2651062011719 410.7689208984375 400.4472351074219 408.36029052734375 C 406.27935791015625 401.90496826171875 410.27667236328125 394.0057678222656 412.02392578125 385.4832763671875 C 412.48193359375 383.2297668457031 412.77593994140625 380.87127685546875 412.1868896484375 378.643310546875 C 411.2001953125 374.90240478515625 407.8486022949219 372.1741027832031 404.236083984375 370.78167724609375 C 398.8742370605469 368.7106628417969 392.7343444824219 369.0915222167969 387.40460205078125 371.2471923828125 C 382.0748291015625 373.40289306640625 377.5191345214844 377.2220153808594 373.9612731933594 381.7374267578125 L 374.6842041015625 380.63970947265625" stroke-width="0.6000000238418579" fill="rgb(143, 165, 67)" opacity="1.0"/>
    <path d="M 365.4052429199219 360.1518859863281 C 369.7461853027344 373.7299499511719 391.1061096191406 376.7925720214844 399.87744140625 365.67218017578125 C 408.64874267578125 354.5517272949219 401.5894775390625 335.27947998046875 387.86572265625 331.40789794921875 C 374.1419677734375 327.53631591796875 358.6246643066406 338.8717956542969 357.09967041015625 353.0627136230469 L 365.4052429199219 360.1518859863281" stroke-width="0.6000000238418579" fill="rgb(233, 92, 21)" opacity="1.0"/>
    <path d="M 403.7867736816406 350.6951904296875 C 401.98724365234375 357.34490966796875 400.5273132324219 365.47479248046875 405.52435302734375 370.2508544921875 C 407.5869140625 372.0741271972656 410.1644592285156 373.21246337890625 412.9013671875 373.50872802734375 C 419.653564453125 374.424072265625 426.43048095703125 372.0098876953125 431.08319091796875 367.03173828125 C 435.0191650390625 362.798828125 436.9163818359375 357.16650390625 438.62347412109375 351.6812744140625 C 439.577392578125 348.59844970703125 440.4927978515625 345.2926940917969 439.589111328125 342.21319580078125 C 438.35101318359375 338.11834716796875 434.2418212890625 335.63177490234375 430.2913818359375 333.9936218261719 C 424.512939453125 331.5889587402344 418.38330078125 330.13543701171875 412.140380859375 329.689453125 C 409.9830322265625 329.5395202636719 407.7153015136719 329.5272521972656 405.7778015136719 330.4860534667969 C 404.0218811035156 331.4697265625 402.5901184082031 332.9430847167969 401.6571044921875 334.7264099121094 C 398.616455078125 340.02587890625 398.0535888671875 346.3924255371094 400.1173400878906 352.1431579589844 L 403.7867736816406 350.6951904296875" stroke-width="0.6000000238418579" fill="rgb(70, 150, 179)" opacity="1.0"/>
    <path d="M 390.2229309082031 424.18798828125 C 389.79876708984375 431.69378662109375 389.643798828125 440.03125 394.54931640625 445.7215576171875 C 399.8226318359375 451.8311767578125 409.33782958984375 452.536865234375 416.94354248046875 449.837646484375 C 419.87646484375 448.7982177734375 422.75439453125 447.247802734375 424.59033203125 444.73583984375 C 426.10028076171875 442.6715087890625 426.7880859375 440.13232421875 427.307861328125 437.628662109375 C 428.956298828125 429.7352294921875 429.107421875 420.93939208984375 424.63238525390625 414.2333984375 C 420.1175537109375 407.4779357910156 411.0115051269531 404.14532470703125 403.2088623046875 406.4378356933594 C 395.4062194824219 408.7303161621094 389.4841613769531 416.3931884765625 389.2992248535156 424.5289306640625 L 390.2229309082031 424.18798828125" stroke-width="0.6000000238418579" fill="rgb(140, 28, 33)" opacity="1.0"/>
    <path d="M 412.8466796875 374.59906005859375 C 410.09808349609375 382.3713073730469 407.32373046875 390.48907470703125 408.07928466796875 398.70428466796875 C 408.8348693847656 406.91937255859375 414.21533203125 415.343017578125 422.31787109375 416.88726806640625 C 432.3238525390625 418.7711181640625 441.722412109375 408.8763122558594 442.2838134765625 398.6915283203125 C 442.84521484375 388.5067138671875 436.893310546875 379.00396728515625 429.607177734375 371.8836669921875 C 427.572509765625 369.45355224609375 424.700927734375 367.87451171875 421.55908203125 367.4581604003906 C 418.4420166015625 367.37811279296875 415.1773681640625 370.53302001953125 416.34442138671875 373.4411315917969 L 412.8466796875 374.59906005859375" stroke-width="0.6000000238418579" fill="rgb(159, 159, 159)" opacity="1.0"/>
    <path d="M 432.851318359375 370.88983154296875 C 434.6177978515625 378.2206115722656 438.93450927734375 385.1058349609375 445.3836669921875 389.0058288574219 C 451.83282470703125 392.9058532714844 460.473388671875 393.418701171875 466.894287109375 389.4118347167969 C 471.4302978515625 386.57318115234375 474.520263671875 381.7578125 475.97149658203125 376.60247802734375 C 477.4227294921875 371.4471130371094 477.3575439453125 365.96600341796875 476.579833984375 360.6661071777344 C 476.24005126953125 358.35992431640625 475.7166748046875 355.9654541015625 474.198974609375 354.2041015625 C 472.4598388671875 352.18389892578125 469.7384033203125 351.3658447265625 467.13330078125 350.76385498046875 C 459.778564453125 349.0643310546875 451.8831787109375 348.42724609375 444.829345703125 351.1177062988281 C 437.77545166015625 353.8081970214844 431.86248779296875 360.5130615234375 431.9656982421875 368.04315185546875 L 432.851318359375 370.88983154296875" stroke-width="0.6000000238418579" fill="rgb(159, 159, 159)" opacity="1.0"/>
    <path d="M 435.7044677734375 412.61749267578125 C 431.4521484375 418.410400390625 426.9764404296875 425.03369140625 427.9927978515625 432.13330078125 C 428.9715576171875 439.0391845703125 434.7987060546875 444.09808349609375 440.3052978515625 448.3841552734375 C 442.5447998046875 450.1220703125 444.9154052734375 451.9044189453125 447.708984375 452.3759765625 C 452.433349609375 453.1763916015625 456.916748046875 450.05810546875 460.22357177734375 446.60003662109375 C 463.2940673828125 443.3914794921875 465.88800048828125 439.7586669921875 467.9259033203125 435.8128662109375 C 471.2371826171875 429.40704345703125 472.8582763671875 421.1654052734375 468.67864990234375 415.2923583984375 C 466.4268798828125 412.118408203125 462.767822265625 410.1404113769531 458.9886474609375 409.18695068359375 C 455.20953369140625 408.2335205078125 451.261962890625 408.21343994140625 447.36456298828125 408.24920654296875 C 443.4671630859375 408.28497314453125 439.63836669921875 408.4035949707031 436.18359375 409.997314453125 L 435.7044677734375 412.61749267578125" stroke-width="0.6000000238418579" fill="rgb(218, 166, 20)" opacity="1.0"/>
    <path d="M 136.21925354003906 211.8565673828125 C 133.85476684570312 224.6414794921875 142.3022003173828 236.9224853515625 155.08712768554688 239.2869873046875 C 156.181884765625 239.48947143554688 157.28964233398438 239.614013671875 158.40206909179688 239.65972900390625 C 162.62899780273438 239.83261108398438 167.07589721679688 238.74722290039062 170.1610107421875 235.8555908203125 C 172.7684326171875 233.4122314453125 174.1605224609375 229.9552001953125 175.12841796875 226.5179443359375 C 177.70648193359375 217.31365966796875 177.77301025390625 207.5869140625 175.32113647460938 198.34820556640625 C 174.6689453125 195.9072265625 173.803955078125 193.44326782226562 172.13418579101562 191.53985595703125 C 169.33285522460938 188.34274291992188 164.70068359375 187.299072265625 160.465576171875 187.69717407226562 C 154.1775665283203 188.28384399414062 148.32406616210938 191.66317749023438 144.13604736328125 196.39199829101562 C 139.94802856445312 201.12081909179688 137.3354949951172 207.107177734375 136.0452880859375 213.2901611328125 L 136.21925354003906 211.8565673828125" stroke-width="0.6000000238418579" fill="rgb(143, 165, 67)" opacity="1.0"/>
    <path d="M 171.63214111328125 263.6882629394531 C 181.9620361328125 274.55364990234375 203.58612060546875 267.66748046875 206.79522705078125 253.12167358398438 C 210.00433349609375 238.57586669921875 194.49240112304688 223.56524658203125 179.72674560546875 226.187255859375 C 164.9610595703125 228.80926513671875 155.46420288085938 246.649169921875 160.521728515625 260.7820739746094 L 171.63214111328125 263.6882629394531" stroke-width="0.6000000238418579" fill="rgb(233, 92, 21)" opacity="1.0"/>
    <path d="M 142.30003356933594 309.6333312988281 C 135.2961883544922 311.3603210449219 127.10903930664062 314.1496276855469 125.27099609375 321.15057373046875 C 124.64796447753906 323.9651184082031 124.91363525390625 326.9036865234375 126.03146362304688 329.5608215332031 C 128.6202850341797 336.20965576171875 134.2711944580078 341.1912841796875 141.19219970703125 342.9259338378906 C 147.06689453125 344.3823547363281 153.18850708007812 343.26129150390625 159.078857421875 342.0406799316406 C 162.3865966796875 341.3496398925781 165.87893676757812 340.5101013183594 168.24078369140625 338.1194152832031 C 171.36279296875 334.906982421875 171.55459594726562 329.8813171386719 171.04986572265625 325.431640625 C 170.31930541992188 318.91864013671875 168.53936767578125 312.5668029785156 165.77914428710938 306.6225280761719 C 164.82147216796875 304.5705261230469 163.68170166015625 302.4873046875 161.82009887695312 301.19940185546875 C 160.02792358398438 300.0904541015625 157.9517822265625 299.52691650390625 155.84483337402344 299.5775451660156 C 149.44773864746094 299.482421875 143.3309326171875 302.1983642578125 139.11135864257812 307.0074462890625 L 142.30003356933594 309.6333312988281" stroke-width="0.6000000238418579" fill="rgb(70, 150, 179)" opacity="1.0"/>
    <path d="M 122.46012878417969 301.2866516113281 C 123.4564208984375 293.4789123535156 124.23292541503906 284.78277587890625 119.52909851074219 278.4781494140625 C 114.47207641601562 271.7085876464844 104.58648681640625 270.2701416015625 96.44413757324219 272.52850341796875 C 93.30441284179688 273.39788818359375 90.18438720703125 274.804931640625 88.08183288574219 277.29302978515625 C 86.35264587402344 279.3377380371094 85.44706726074219 281.9389343261719 84.71969604492188 284.5154724121094 C 82.41616821289062 292.6378173828125 81.60989379882812 301.8129577636719 85.78927612304688 309.14654541015625 C 90.00656127929688 316.5347595214844 99.27114868164062 320.6865539550781 107.58917236328125 318.86749267578125 C 115.9072265625 317.0484313964844 122.65707397460938 309.48193359375 123.44996643066406 300.9986572265625 L 122.46012878417969 301.2866516113281" stroke-width="0.6000000238418579" fill="rgb(140, 28, 33)" opacity="1.0"/>
    <path d="M 145.51051330566406 261.1263427734375 C 138.1497039794922 265.4873962402344 130.5384521484375 270.1064453125 125.67364501953125 277.1519775390625 C 120.80892944335938 284.1974182128906 119.48881530761719 294.4864501953125 124.91427612304688 301.1078796386719 C 131.6296844482422 309.2663879394531 145.6990966796875 307.6399230957031 152.92337036132812 299.902099609375 C 160.14764404296875 292.1642761230469 161.73065185546875 280.63555908203125 160.66580200195312 270.1164855957031 C 160.66241455078125 266.82720947265625 159.42617797851562 263.6588439941406 157.200927734375 261.2365417480469 C 154.771728515625 259.09869384765625 150.07237243652344 259.4389953613281 149.0666961669922 262.5316162109375 L 145.51051330566406 261.1263427734375" stroke-width="0.6000000238418579" fill="rgb(159, 159, 159)" opacity="1.0"/>
    <path d="M 159.26177978515625 286.6747131347656 C 159.204345703125 294.56634521484375 161.8494873046875 302.6495666503906 167.4144287109375 308.239501953125 C 172.97943115234375 313.8294372558594 181.6256103515625 316.5327453613281 189.15899658203125 314.0849914550781 C 194.48297119140625 312.34765625 198.83746337890625 308.2373962402344 201.613525390625 303.36798095703125 C 204.3896484375 298.49853515625 205.70782470703125 292.91522216796875 206.25662231445312 287.33599853515625 C 206.49398803710938 284.90789794921875 206.5672607421875 282.34381103515625 205.47064208984375 280.1715393066406 C 204.214599609375 277.68048095703125 201.6572265625 276.1622619628906 199.16342163085938 274.892822265625 C 192.12286376953125 271.30908203125 184.26492309570312 268.6678161621094 176.42120361328125 269.61871337890625 C 168.57745361328125 270.5696105957031 160.87844848632812 275.8858642578125 159.08135986328125 283.5598449707031 L 159.26177978515625 286.6747131347656" stroke-width="0.6000000238418579" fill="rgb(159, 159, 159)" opacity="1.0"/>
    <path d="M 128.0686798095703 349.8915100097656 C 128.67562866210938 342.1060485839844 129.0130157470703 333.42584228515625 124.00630187988281 327.4528503417969 C 119.14543151855469 321.63726806640625 110.86616516113281 320.30523681640625 103.32577514648438 319.5030517578125 C 100.26211547851562 319.1816711425781 97.05194091796875 318.8943176269531 94.20223999023438 320.05963134765625 C 89.38137817382812 322.0277404785156 87.02853393554688 327.47601318359375 85.95675659179688 332.5638732910156 C 84.96014404296875 337.285888671875 84.64674377441406 342.1265563964844 85.026123046875 346.93768310546875 C 85.63931274414062 354.74981689453125 88.86506652832031 363.28857421875 96.089599609375 366.3163757324219 C 99.98748779296875 367.9566650390625 104.49945068359375 367.6863708496094 108.53521728515625 366.4012451171875 C 112.57101440429688 365.1160888671875 116.22744750976562 362.8725891113281 119.80557250976562 360.6062927246094 C 123.38369750976562 358.34002685546875 126.85101318359375 356.0365295410156 129.12774658203125 352.5853271484375 L 128.0686798095703 349.8915100097656" stroke-width="0.6000000238418579" fill="rgb(218, 166, 20)" opacity="1.0"/>
    <path d="M 150.56423950195312 342.69384765625 C 138.12594604492188 342.65313720703125 128.0097198486328 352.7033996582031 127.96902465820312 365.1416931152344 C 127.96551513671875 366.206787109375 128.03761291503906 367.2707824707031 128.18470764160156 368.32568359375 C 128.74435424804688 372.3339538574219 130.52597045898438 376.3342590332031 133.77505493164062 378.7440490722656 C 136.52056884765625 380.78076171875 140.0124969482422 381.5003356933594 143.41334533691406 381.8239440917969 C 152.51776123046875 382.6776123046875 161.6846923828125 381.07794189453125 169.9619140625 377.1911315917969 C 172.14810180664062 376.1600646972656 174.319580078125 374.9247741699219 175.82586669921875 373.02777099609375 C 178.35647583007812 369.84454345703125 178.5472412109375 365.3059997558594 177.44873046875 361.3876037597656 C 175.82186889648438 355.569091796875 171.640625 350.6368103027344 166.47369384765625 347.50286865234375 C 161.30682373046875 344.3689270019531 155.2255096435547 342.932861328125 149.18507385253906 342.7751159667969 L 150.56423950195312 342.69384765625" stroke-width="0.6000000238418579" fill="rgb(143, 165, 67)" opacity="1.0"/>
    <path d="M 138.86843872070312 377.8955383300781 C 135.71131896972656 363.4988098144531 114.01893615722656 358.2829284667969 103.91546630859375 368.8832092285156 C 93.81205749511719 379.4835205078125 99.21745300292969 400.0044860839844 112.97091674804688 405.3155517578125 C 126.72438049316406 410.6265869140625 143.7930145263672 400.45648193359375 146.73355102539062 385.9954528808594 L 138.86843872070312 377.8955383300781" stroke-width="0.6000000238418579" fill="rgb(233, 92, 21)" opacity="1.0"/>
    <path d="M 176.09072875976562 350.2308044433594 C 175.53814697265625 357.5755310058594 175.63983154296875 366.40631103515625 181.84759521484375 370.4168395996094 C 184.380126953125 371.916748046875 187.315673828125 372.59381103515625 190.24932861328125 372.3546142578125 C 197.52383422851562 371.95806884765625 204.15487670898438 368.06024169921875 208.0396728515625 361.8971252441406 C 211.3216552734375 356.6606750488281 212.18145751953125 350.36468505859375 212.87109375 344.2613830566406 C 213.25296020507812 340.832275390625 213.5494384765625 337.1768493652344 211.98129272460938 334.124755859375 C 209.85775756835938 330.0736999511719 205.04269409179688 328.2887878417969 200.56494140625 327.3629150390625 C 194.013427734375 325.9997253417969 187.28448486328125 325.7059020996094 180.6390380859375 326.492919921875 C 178.34347534179688 326.7692565917969 175.95965576171875 327.2123718261719 174.11785888671875 328.6087951660156 C 172.4718017578125 329.9948425292969 171.2645263671875 331.82989501953125 170.64337158203125 333.89019775390625 C 168.5159912109375 340.0665588378906 169.205078125 346.86529541015625 172.52862548828125 352.4891662597656 L 176.09072875976562 350.2308044433594" stroke-width="0.6000000238418579" fill="rgb(70, 150, 179)" opacity="1.0"/>
  </g>
</svg>
