<?xml version="1.0" ?>
<svg xmlns="http://www.w3.org/2000/svg" version="1.1" width="600" height="600">
  <defs/>
  <g>
    <path d="M 353.1353454589844 344.08929443359375 C 356.84674072265625 347.4548645019531 363.8830261230469 344.6250305175781 364.59271240234375 339.697998046875 C 365.3023986816406 334.77093505859375 359.7614440917969 330.1520690917969 354.9053955078125 331.39117431640625 C 350.04931640625 332.6302490234375 347.3255920410156 338.8106384277344 349.3607177734375 343.39556884765625 L 353.1353454589844 344.08929443359375" stroke-width="0.6000000238418579" fill="rgb(233, 92, 21)" opacity="1.0"/>
    <path d="M 122.59487915039062 208.49490356445312 C 126.61726379394531 208.62420654296875 131.4355010986328 208.3614501953125 133.47914123535156 204.87857055664062 C 134.2384796142578 203.46087646484375 134.53919982910156 201.84249877929688 134.3397674560547 200.24664306640625 C 133.95257568359375 196.284912109375 131.66917419433594 192.75656127929688 128.213623046875 190.780517578125 C 125.278076171875 189.11181640625 121.82098388671875 188.79022216796875 118.47306823730469 188.55694580078125 C 116.59219360351562 188.42901611328125 114.58978271484375 188.35293579101562 112.96047973632812 189.28057861328125 C 110.79888916015625 190.53488159179688 109.93753051757812 193.20526123046875 109.53718566894531 195.67132568359375 C 108.94677734375 199.27972412109375 108.94430541992188 202.95989990234375 109.52987670898438 206.569091796875 C 109.73460388183594 207.81573486328125 110.03244018554688 209.10665893554688 110.83795166015625 210.07928466796875 C 111.63320922851562 210.94534301757812 112.66326904296875 211.561279296875 113.80255126953125 211.85205078125 C 117.22410583496094 212.868408203125 120.91928100585938 212.33270263671875 123.91128540039062 210.38641357421875 L 122.59487915039062 208.49490356445312" stroke-width="0.6000000238418579" fill="rgb(70, 150, 179)" opacity="1.0"/>
    <path d="M 458.70751953125 405.2550354003906 C 461.02325439453125 407.7870788574219 463.69635009765625 410.4964599609375 467.11883544921875 410.7091979980469 C 470.7955322265625 410.935546875 474.060302734375 408.053466796875 475.604248046875 404.7091369628906 C 476.20013427734375 403.4199523925781 476.61163330078125 401.9857482910156 476.3768310546875 400.5852355957031 C 476.1842041015625 399.433837890625 475.574462890625 398.3995056152344 474.922607421875 397.431396484375 C 472.8707275390625 394.37591552734375 470.0467529296875 391.5216369628906 466.429931640625 390.8444519042969 C 462.7841796875 390.1644592285156 458.7921142578125 392.0752258300781 457.052490234375 395.35418701171875 C 455.3128662109375 398.63311767578125 455.9266357421875 403.01055908203125 458.5242919921875 405.6653747558594 L 458.70751953125 405.2550354003906" stroke-width="0.6000000238418579" fill="rgb(140, 28, 33)" opacity="1.0"/>
    <path d="M 87.29083251953125 209.417724609375 C 91.96917724609375 209.62347412109375 96.83953857421875 209.7860107421875 101.17802429199219 208.014404296875 C 105.51644897460938 206.24285888671875 109.20193481445312 201.923828125 108.6986083984375 197.26556396484375 C 108.064453125 191.51678466796875 101.13108825683594 188.04946899414062 95.50425720214844 189.43182373046875 C 89.87742614746094 190.81414794921875 85.70028686523438 195.6224365234375 83.03866577148438 200.76092529296875 C 82.05537414550781 202.26904296875 81.67315673828125 204.09088134765625 81.96746826171875 205.86700439453125 C 82.44039916992188 207.57388305664062 84.69546508789062 208.82501220703125 86.08221435546875 207.7091064453125 L 87.29083251953125 209.417724609375" stroke-width="0.6000000238418579" fill="rgb(159, 159, 159)" opacity="1.0"/>
    <path d="M 383.1667785644531 310.89068603515625 C 387.5904846191406 309.9690856933594 391.7948303222656 307.5117492675781 394.2508239746094 303.7215881347656 C 396.7068176269531 299.931396484375 397.1748352050781 294.7655944824219 394.8944396972656 290.84515380859375 C 393.2786560058594 288.0754089355469 390.45196533203125 286.1350402832031 387.3911437988281 285.1698303222656 C 384.330322265625 284.2046203613281 381.046142578125 284.14166259765625 377.85723876953125 284.5087890625 C 376.4696044921875 284.66937255859375 375.02569580078125 284.9382629394531 373.94244384765625 285.8145446777344 C 372.7000732421875 286.818603515625 372.159423828125 288.4333801269531 371.7503356933594 289.9825439453125 C 370.5954895019531 294.3561096191406 370.0669250488281 299.0732421875 371.5470886230469 303.3482666015625 C 373.0272521972656 307.6233215332031 376.93310546875 311.289794921875 381.44525146484375 311.3681335449219 L 383.1667785644531 310.89068603515625" stroke-width="0.6000000238418579" fill="rgb(159, 159, 159)" opacity="1.0"/>
    <path d="M 105.31834411621094 419.5166015625 C 108.42779541015625 417.574951171875 111.79995727539062 415.28192138671875 112.65957641601562 411.7255859375 C 113.50044250488281 408.2682189941406 111.69485473632812 404.7701110839844 109.89521789550781 401.6987609863281 C 109.16229248046875 400.4521484375 108.37567138671875 399.1596984863281 107.14097595214844 398.408447265625 C 105.05343627929688 397.1366271972656 102.33981323242188 397.76727294921875 100.1195068359375 398.78125 C 98.05831909179688 399.7215881347656 96.14285278320312 400.9530029296875 94.43170166015625 402.4378356933594 C 91.65242004394531 404.8477783203125 89.32720947265625 408.4469909667969 90.19827270507812 412.0196533203125 C 90.66571044921875 413.9490966796875 92.02592468261719 415.57763671875 93.63661193847656 416.743408203125 C 95.247314453125 417.9091796875 97.1141357421875 418.6644287109375 98.96774291992188 419.3837890625 C 100.82135009765625 420.1031494140625 102.65811157226562 420.770263671875 104.59632873535156 420.667724609375 L 105.31834411621094 419.5166015625" stroke-width="0.6000000238418579" fill="rgb(218, 166, 20)" opacity="1.0"/>
    <path d="M 100.23709106445312 154.75820922851562 C 108.26066589355469 157.20111083984375 116.74545288085938 152.67710876464844 119.18836975097656 144.6535186767578 C 119.39755249023438 143.96646118164062 119.5577392578125 143.2654266357422 119.667724609375 142.55569458007812 C 120.08512878417969 139.85877990722656 119.71194458007812 136.92962646484375 118.08218383789062 134.74232482910156 C 116.70510864257812 132.89378356933594 114.59014892578125 131.75071716308594 112.45706176757812 130.88099670410156 C 106.744140625 128.5608673095703 100.51419067382812 127.812744140625 94.41436767578125 128.71429443359375 C 92.80239868164062 128.955322265625 91.1602783203125 129.3310546875 89.819091796875 130.2633056640625 C 87.56655883789062 131.82705688476562 86.56159973144531 134.72056579589844 86.50961303710938 137.46412658691406 C 86.42959594726562 141.53726196289062 88.17117309570312 145.53443908691406 90.89859008789062 148.5619354248047 C 93.6259765625 151.58941650390625 97.27371215820312 153.69822692871094 101.14340209960938 154.97369384765625 L 100.23709106445312 154.75820922851562" stroke-width="0.6000000238418579" fill="rgb(143, 165, 67)" opacity="1.0"/>
    <path d="M 460.5838623046875 344.7362365722656 C 463.7828369140625 351.7945861816406 475.50933837890625 352.1033020019531 479.5452880859375 345.54632568359375 C 483.581298828125 338.98931884765625 478.55596923828125 329.0274658203125 470.90179443359375 327.8011169433594 C 463.24761962890625 326.5747375488281 455.58258056640625 333.67266845703125 455.6527099609375 341.4313049316406 L 460.5838623046875 344.7362365722656" stroke-width="0.6000000238418579" fill="rgb(233, 92, 21)" opacity="1.0"/>
    <path d="M 107.06362915039062 228.21917724609375 C 109.6500244140625 224.6773681640625 112.3721923828125 220.1783447265625 110.49160766601562 216.1998291015625 C 109.68161010742188 214.64569091796875 108.4093017578125 213.38116455078125 106.85017395019531 212.58074951171875 C 103.04579162597656 210.49652099609375 98.46719360351562 210.38555908203125 94.56631469726562 212.28302001953125 C 91.26141357421875 213.90109252929688 88.84901428222656 216.81591796875 86.58320617675781 219.68670654296875 C 85.31301879882812 221.3013916015625 84.01492309570312 223.057373046875 83.84956359863281 225.09381103515625 C 83.65139770507812 227.81002807617188 85.52650451660156 230.22528076171875 87.50079345703125 232.10000610351562 C 90.38674926757812 234.84732055664062 93.69833374023438 237.10940551757812 97.30712890625 238.79852294921875 C 98.55516052246094 239.37973022460938 99.90020751953125 239.904296875 101.27047729492188 239.77639770507812 C 102.53848266601562 239.59228515625 103.72554016113281 239.04318237304688 104.68687438964844 238.196044921875 C 107.70292663574219 235.73989868164062 109.48970031738281 232.08428955078125 109.57485961914062 228.195556640625 L 107.06362915039062 228.21917724609375" stroke-width="0.6000000238418579" fill="rgb(70, 150, 179)" opacity="1.0"/>
    <path d="M 108.49923706054688 82.92427062988281 C 108.87710571289062 87.492919921875 109.48776245117188 92.54104614257812 112.93093872070312 95.56315612792969 C 116.631591796875 98.80735778808594 122.43753051757812 98.42977905273438 126.80267333984375 96.15725708007812 C 128.486083984375 95.28176879882812 130.09315490722656 94.10238647460938 130.9896697998047 92.43032836914062 C 131.72718811035156 91.05609130859375 131.9281005859375 89.46455383300781 132.03048706054688 87.90866088867188 C 132.3592529296875 83.00248718261719 131.70755004882812 77.6778564453125 128.43856811523438 74.00605773925781 C 125.141357421875 70.3077392578125 119.36065673828125 69.0643310546875 114.84222412109375 71.10787963867188 C 110.32377624511719 73.15142822265625 107.39468383789062 78.27932739257812 107.97021484375 83.20819091796875 L 108.49923706054688 82.92427062988281" stroke-width="0.6000000238418579" fill="rgb(140, 28, 33)" opacity="1.0"/>
    <path d="M 92.95179748535156 402.0216064453125 C 95.28927612304688 399.0302429199219 97.68856811523438 395.89178466796875 98.56086730957031 392.1942443847656 C 99.43313598632812 388.4967346191406 98.31657409667969 384.0313720703125 95.0047607421875 382.17138671875 C 90.91156005859375 379.88458251953125 85.35989379882812 382.82958984375 83.62434387207031 387.19439697265625 C 81.8887939453125 391.5592041015625 83.09696960449219 396.579345703125 85.236328125 400.7545166015625 C 85.76908874511719 402.1133117675781 86.79180908203125 403.2229919433594 88.10273742675781 403.86456298828125 C 89.45201110839844 404.35565185546875 91.339111328125 403.45587158203125 91.255126953125 402.01531982421875 L 92.95179748535156 402.0216064453125" stroke-width="0.6000000238418579" fill="rgb(159, 159, 159)" opacity="1.0"/>
    <path d="M 477.8111572265625 68.52621459960938 C 479.2376708984375 64.74038696289062 479.3980712890625 60.38334655761719 477.7120361328125 56.70808410644531 C 476.0260009765625 53.0328369140625 472.34619140625 50.19993591308594 468.28863525390625 50.04203796386719 C 465.4197998046875 49.934051513671875 462.59661865234375 51.13929748535156 460.398193359375 52.989501953125 C 458.19970703125 54.8397216796875 456.575927734375 57.291748046875 455.32305908203125 59.87818908691406 C 454.7784423828125 61.004058837890625 454.28875732421875 62.224456787109375 454.43115234375 63.46372985839844 C 454.5938720703125 64.88461303710938 455.55487060546875 66.06820678710938 456.5294189453125 67.120849609375 C 459.28082275390625 70.0926513671875 462.59246826171875 72.7559814453125 466.53399658203125 73.68890380859375 C 470.47552490234375 74.621826171875 475.1212158203125 73.42929077148438 477.3458251953125 70.0565185546875 L 477.8111572265625 68.52621459960938" stroke-width="0.6000000238418579" fill="rgb(159, 159, 159)" opacity="1.0"/>
    <path d="M 88.73277282714844 112.10275268554688 C 93.25979614257812 113.72601318359375 98.36212158203125 115.334228515625 102.7227783203125 113.32838439941406 C 106.96627807617188 111.3836669921875 109.10040283203125 106.68084716796875 110.7999267578125 102.33108520507812 C 111.48773193359375 100.56303405761719 112.1790771484375 98.70242309570312 111.94891357421875 96.82037353515625 C 111.56149291992188 93.63702392578125 108.7061767578125 91.35554504394531 105.85722351074219 89.89361572265625 C 103.21343994140625 88.53569030761719 100.38835144042969 87.56442260742188 97.46846008300781 87.00953674316406 C 92.72769165039062 86.10684204101562 87.13151550292969 86.63847351074219 84.16096496582031 90.43963623046875 C 82.55426025390625 92.48941040039062 81.98309326171875 95.2138671875 82.09207153320312 97.82000732421875 C 82.20106506347656 100.42616271972656 82.94094848632812 102.96237182617188 83.70707702636719 105.45574951171875 C 84.47320556640625 107.94911193847656 85.27940368652344 110.3826904296875 86.9605712890625 112.29505920410156 L 88.73277282714844 112.10275268554688" stroke-width="0.6000000238418579" fill="rgb(218, 166, 20)" opacity="1.0"/>
    <path d="M 130.31422424316406 138.1458740234375 C 136.7219696044922 137.42018127441406 141.32818603515625 131.6373748779297 140.6024932861328 125.22962951660156 C 140.54034423828125 124.68093872070312 140.43936157226562 124.1373291015625 140.30029296875 123.60292053222656 C 139.771484375 121.5723876953125 138.61386108398438 119.61932373046875 136.79605102539062 118.57339477539062 C 135.2599334716797 117.68936157226562 133.41851806640625 117.5284423828125 131.64776611328125 117.56593322753906 C 126.90805053710938 117.6728515625 122.28341674804688 119.04690551757812 118.25424194335938 121.54534912109375 C 117.19032287597656 122.20755004882812 116.14625549316406 122.97402954101562 115.48443603515625 124.04135131835938 C 114.37232971191406 125.83251953125 114.54653930664062 128.18115234375 115.34745788574219 130.133056640625 C 116.53451538085938 133.03173828125 118.98379516601562 135.32069396972656 121.83270263671875 136.62442016601562 C 124.68159484863281 137.92813110351562 127.89947509765625 138.30259704589844 131.0195770263672 138.021240234375 L 130.31422424316406 138.1458740234375" stroke-width="0.6000000238418579" fill="rgb(143, 165, 67)" opacity="1.0"/>
    <path d="M 401.3367919921875 310.1590881347656 C 403.87548828125 318.63189697265625 417.091796875 320.77459716796875 422.65966796875 313.9754638671875 C 428.2275390625 307.17633056640625 424.06719970703125 295.1401062011719 415.59735107421875 292.58233642578125 C 407.1274719238281 290.0245361328125 397.37213134765625 296.88043212890625 396.2648010253906 305.6667785644531 L 401.3367919921875 310.1590881347656" stroke-width="0.6000000238418579" fill="rgb(233, 92, 21)" opacity="1.0"/>
    <path d="M 124.89010620117188 115.6143798828125 C 128.85386657714844 115.55548095703125 133.58255004882812 115.07400512695312 135.4322052001953 111.55252075195312 C 136.11375427246094 110.12246704101562 136.3347625732422 108.51617431640625 136.064697265625 106.9552001953125 C 135.5004119873047 103.07498168945312 133.09042358398438 99.70896911621094 129.59896850585938 97.924560546875 C 126.63336181640625 96.41847229003906 123.2169189453125 96.26199340820312 119.91197204589844 96.18740844726562 C 118.05538940429688 96.14852905273438 116.08161926269531 96.16635131835938 114.52140808105469 97.15449523925781 C 112.45257568359375 98.4886474609375 111.72860717773438 101.15599060058594 111.44880676269531 103.60098266601562 C 111.03485107421875 107.17874145507812 111.20269775390625 110.79989624023438 111.94586181640625 114.32403564453125 C 112.20497131347656 115.54118347167969 112.55775451660156 116.79757690429688 113.39535522460938 117.71731567382812 C 114.2178955078125 118.53265380859375 115.25991821289062 119.091064453125 116.39434814453125 119.32443237304688 C 119.80795288085938 120.16616821289062 123.41899108886719 119.46804809570312 126.27288818359375 117.41461181640625 L 124.89010620117188 115.6143798828125" stroke-width="0.6000000238418579" fill="rgb(70, 150, 179)" opacity="1.0"/>
    <path d="M 418.61383056640625 64.6221923828125 C 420.00128173828125 67.80258178710938 421.6727294921875 71.26956176757812 424.87799072265625 72.59280395507812 C 428.322021484375 74.01217651367188 432.3887939453125 72.32247924804688 434.9603271484375 69.62751770019531 C 435.9521484375 68.5888671875 436.81512451171875 67.35116577148438 437.048583984375 65.93423461914062 C 437.24102783203125 64.76951599121094 436.99591064453125 63.58030700683594 436.68896484375 62.440704345703125 C 435.72515869140625 58.84577941894531 433.95672607421875 55.190765380859375 430.7174072265625 53.35954284667969 C 427.451416015625 51.51622009277344 423.0064697265625 52.03855895996094 420.2691650390625 54.606964111328125 C 417.53192138671875 57.17536926269531 416.6871337890625 61.56477355957031 418.30426025390625 64.95489501953125 L 418.61383056640625 64.6221923828125" stroke-width="0.6000000238418579" fill="rgb(140, 28, 33)" opacity="1.0"/>
    <path d="M 122.1046142578125 424.8446044921875 C 124.23146057128906 422.0689697265625 126.41397094726562 419.1573486328125 127.18515014648438 415.74407958984375 C 127.95631408691406 412.330810546875 126.88894653320312 408.22772216796875 123.82234191894531 406.5434875488281 C 120.03231811523438 404.472900390625 114.94461059570312 407.2338562011719 113.38414001464844 411.26922607421875 C 111.82366943359375 415.30462646484375 112.98027038574219 419.91790771484375 114.98715209960938 423.74481201171875 C 115.48971557617188 424.99169921875 116.44139099121094 426.0048828125 117.6544189453125 426.5843505859375 C 118.90145874023438 427.02490234375 120.63174438476562 426.1796875 120.54182434082031 424.8536376953125 L 122.1046142578125 424.8446044921875" stroke-width="0.6000000238418579" fill="rgb(159, 159, 159)" opacity="1.0"/>
    <path d="M 476.622314453125 446.513671875 C 477.31097412109375 444.178955078125 477.2147216796875 441.557373046875 476.0406494140625 439.426513671875 C 474.86651611328125 437.29559326171875 472.533203125 435.75830078125 470.09149169921875 435.8427734375 C 468.365234375 435.90478515625 466.724365234375 436.752685546875 465.4869384765625 437.9600830078125 C 464.24951171875 439.16748046875 463.38348388671875 440.7105712890625 462.7459716796875 442.3179931640625 C 462.4688720703125 443.017578125 462.22894287109375 443.77154541015625 462.369140625 444.5089111328125 C 462.529541015625 445.3543701171875 463.1585693359375 446.0220947265625 463.789794921875 446.6107177734375 C 465.5721435546875 448.27239990234375 467.677001953125 449.7242431640625 470.0833740234375 450.10986328125 C 472.48974609375 450.49560546875 475.2247314453125 449.57470703125 476.41064453125 447.4525146484375 L 476.622314453125 446.513671875" stroke-width="0.6000000238418579" fill="rgb(159, 159, 159)" opacity="1.0"/>
    <path d="M 455.715087890625 298.46197509765625 C 454.80645751953125 293.86871337890625 453.5975341796875 288.8024597167969 449.7408447265625 286.1634826660156 C 445.99383544921875 283.591796875 440.9981689453125 284.16162109375 436.514892578125 284.9178466796875 C 434.69403076171875 285.2277526855469 432.7940673828125 285.58099365234375 431.33721923828125 286.71466064453125 C 428.8720703125 288.6305847167969 428.3946533203125 292.1567687988281 428.5986328125 295.2677001953125 C 428.786865234375 298.15521240234375 429.38873291015625 301.0007629394531 430.38580322265625 303.71722412109375 C 432.003173828125 308.1285705566406 435.24652099609375 312.5369567871094 439.90740966796875 313.1167907714844 C 442.4232177734375 313.4335021972656 444.98455810546875 312.54779052734375 447.10687255859375 311.1531066894531 C 449.22918701171875 309.7584533691406 450.9775390625 307.871826171875 452.67694091796875 305.98468017578125 C 454.3763427734375 304.0975646972656 456.0057373046875 302.20684814453125 456.76220703125 299.8460388183594 L 455.715087890625 298.46197509765625" stroke-width="0.6000000238418579" fill="rgb(218, 166, 20)" opacity="1.0"/>
    <path d="M 426.31005859375 372.4808349609375 C 424.551513671875 373.7853698730469 424.18341064453125 376.26849365234375 425.4879150390625 378.02703857421875 C 425.599609375 378.1776428222656 425.721923828125 378.3200988769531 425.853759765625 378.4533996582031 C 426.35491943359375 378.95977783203125 427.027587890625 379.3362731933594 427.73974609375 379.3338928222656 C 428.3414306640625 379.3319396972656 428.9097900390625 379.0655822753906 429.42352294921875 378.7529602050781 C 430.7974853515625 377.914306640625 431.921875 376.7230224609375 432.67987060546875 375.30291748046875 C 432.87957763671875 374.92718505859375 433.05572509765625 374.52423095703125 433.068359375 374.0979919433594 C 433.08990478515625 373.3824768066406 432.63873291015625 372.7222595214844 432.071044921875 372.28533935546875 C 431.2286376953125 371.6360778808594 430.119384765625 371.3808898925781 429.06048583984375 371.4831848144531 C 428.00164794921875 371.58544921875 426.99267578125 372.0235290527344 426.1241455078125 372.6375732421875 L 426.31005859375 372.4808349609375" stroke-width="0.6000000238418579" fill="rgb(143, 165, 67)" opacity="1.0"/>
    <path d="M 452.793212890625 346.57855224609375 C 458.83050537109375 343.5461120605469 458.69110107421875 333.3201599121094 452.838623046875 330.03265380859375 C 446.9862060546875 326.7451477050781 438.48321533203125 331.4696960449219 437.681396484375 338.1800842285156 C 436.879638671875 344.8904724121094 443.32965087890625 351.32049560546875 450.0859375 350.9892272949219 L 452.793212890625 346.57855224609375" stroke-width="0.6000000238418579" fill="rgb(233, 92, 21)" opacity="1.0"/>
    <path d="M 449.28570556640625 68.27615356445312 C 452.79052734375 67.65669250488281 456.912841796875 66.55322265625 458.04833984375 63.167266845703125 C 458.44775390625 61.802215576171875 458.413818359375 60.346832275390625 457.9510498046875 59.001922607421875 C 456.8956298828125 55.643463134765625 454.27783203125 53.004913330078125 450.927734375 51.9229736328125 C 448.08367919921875 51.01246643066406 445.03314208984375 51.362701416015625 442.0931396484375 51.769561767578125 C 440.4420166015625 52.00079345703125 438.695068359375 52.29905700683594 437.45361328125 53.39817810058594 C 435.8109130859375 54.87677001953125 435.5509033203125 57.344573974609375 435.65283203125 59.551727294921875 C 435.79791259765625 62.7821044921875 436.46490478515625 65.96768188476562 437.6279296875 68.98492431640625 C 438.03179931640625 70.02665710449219 438.5242919921875 71.08976745605469 439.3983154296875 71.78511047363281 C 440.2440185546875 72.39007568359375 441.24755859375 72.73588562011719 442.2864990234375 72.78036499023438 C 445.43255615234375 73.03791809082031 448.5333251953125 71.90237426757812 450.7689208984375 69.67390441894531 L 449.28570556640625 68.27615356445312" stroke-width="0.6000000238418579" fill="rgb(70, 150, 179)" opacity="1.0"/>
    <path d="M 456.399169921875 400.78759765625 C 456.7344970703125 397.69219970703125 456.976318359375 394.2471008300781 455.068603515625 391.78900146484375 C 453.0177001953125 389.1496887207031 449.09716796875 388.6550598144531 445.8939208984375 389.609375 C 444.65869140625 389.976806640625 443.435302734375 390.5567321777344 442.6224365234375 391.5565490722656 C 441.9539794921875 392.3782043457031 441.6153564453125 393.4137878417969 441.3470458984375 394.438232421875 C 440.49700927734375 397.6678771972656 440.2470703125 401.3026428222656 441.955078125 404.171630859375 C 443.67852783203125 407.06195068359375 447.373779296875 408.6343688964844 450.64990234375 407.8524475097656 C 453.9259033203125 407.0705261230469 456.53857421875 404.0273132324219 456.7884521484375 400.666259765625 L 456.399169921875 400.78759765625" stroke-width="0.6000000238418579" fill="rgb(140, 28, 33)" opacity="1.0"/>
    <path d="M 123.4249267578125 214.24737548828125 C 118.5467529296875 218.42214965820312 113.51678466796875 222.82003784179688 110.83056640625 228.65692138671875 C 108.14442443847656 234.49374389648438 108.49765014648438 242.2705078125 113.36381530761719 246.46456909179688 C 119.38214111328125 251.62832641601562 129.57293701171875 248.60845947265625 133.91395568847656 241.95501708984375 C 138.2549591064453 235.301513671875 137.9359588623047 226.57437133789062 135.7899169921875 218.93563842773438 C 135.3625030517578 216.50445556640625 134.039306640625 214.3218994140625 132.0813751220703 212.81866455078125 C 130.0093994140625 211.55203247070312 126.57933044433594 212.41067504882812 126.23538208007812 214.82684326171875 L 123.4249267578125 214.24737548828125" stroke-width="0.6000000238418579" fill="rgb(159, 159, 159)" opacity="1.0"/>
    <path d="M 107.47613525390625 239.84454345703125 C 101.98248291015625 238.31488037109375 95.84506225585938 238.63418579101562 90.8956298828125 241.460693359375 C 85.94619750976562 244.2872314453125 82.42864990234375 249.80780029296875 82.71405029296875 255.5244140625 C 82.92094421386719 259.5658874511719 84.96597290039062 263.3790283203125 87.83845520019531 266.2344665527344 C 90.71095275878906 269.0899353027344 94.35658264160156 271.063232421875 98.14456176757812 272.4991149902344 C 99.79338073730469 273.12298583984375 101.56803894042969 273.6580810546875 103.29020690917969 273.3031921386719 C 105.26481628417969 272.89727783203125 106.8065185546875 271.4000549316406 108.16265869140625 269.90020751953125 C 111.99127197265625 265.665771484375 115.3167724609375 260.68328857421875 116.134033203125 255.03271484375 C 116.95127868652344 249.38214111328125 114.69631958007812 243.00857543945312 109.682861328125 240.306640625 L 107.47613525390625 239.84454345703125" stroke-width="0.6000000238418579" fill="rgb(159, 159, 159)" opacity="1.0"/>
    <path d="M 287.5864562988281 88.52940368652344 C 286.17852783203125 94.23146057128906 284.86053466796875 100.63055419921875 287.8408203125 105.67825317382812 C 290.7322082519531 110.59121704101562 296.71148681640625 112.59788513183594 302.2076721191406 114.12054443359375 C 304.44134521484375 114.73582458496094 306.78790283203125 115.3438720703125 309.0456848144531 114.82972717285156 C 312.8647766113281 113.96237182617188 315.2806701660156 110.20921325683594 316.70172119140625 106.56591796875 C 318.02197265625 103.184814453125 318.8498840332031 99.63165283203125 319.16015625 96.01521301269531 C 319.6660461425781 90.14329528808594 318.32281494140625 83.410888671875 313.334716796875 80.27569580078125 C 310.644287109375 78.57919311523438 307.26324462890625 78.22479248046875 304.11065673828125 78.68194580078125 C 300.9580993652344 79.13912963867188 297.9691162109375 80.35403442382812 295.03546142578125 81.59550476074219 C 292.101806640625 82.83694458007812 289.2457580566406 84.11965942382812 287.1319885253906 86.40036010742188 L 287.5864562988281 88.52940368652344" stroke-width="0.6000000238418579" fill="rgb(218, 166, 20)" opacity="1.0"/>
    <path d="M 227.84109497070312 122.21453857421875 C 221.2603759765625 114.73214721679688 209.85992431640625 114.00117492675781 202.37753295898438 120.5819091796875 C 201.73681640625 121.14540100097656 201.13690185546875 121.753662109375 200.58221435546875 122.40206909179688 C 198.47515869140625 124.86628723144531 197.02178955078125 128.05923461914062 197.30169677734375 131.2877960205078 C 197.5379638671875 134.0161895751953 198.960693359375 136.49282836914062 200.57254028320312 138.70458984375 C 204.89520263671875 144.61898803710938 210.72268676757812 149.26806640625 217.44955444335938 152.16893005371094 C 219.22894287109375 152.93272399902344 221.123046875 153.57923889160156 223.060791015625 153.47537231445312 C 226.31402587890625 153.30291748046875 229.13763427734375 151.00721740722656 230.90463256835938 148.26751708984375 C 233.53082275390625 144.20187377929688 234.2689208984375 139.07464599609375 233.40496826171875 134.31118774414062 C 232.541015625 129.54774475097656 230.17300415039062 125.13742065429688 227.05996704101562 121.43043518066406 L 227.84109497070312 122.21453857421875" stroke-width="0.6000000238418579" fill="rgb(143, 165, 67)" opacity="1.0"/>
    <path d="M 206.94805908203125 90.78846740722656 C 208.70352172851562 101.65890502929688 224.66732788085938 106.45291137695312 232.64523315429688 98.96658325195312 C 240.62310791015625 91.480224609375 237.44561767578125 75.94792175292969 227.40765380859375 71.41351318359375 C 217.36968994140625 66.87910461425781 204.21417236328125 73.75450134277344 201.41851806640625 84.41897583007812 L 206.94805908203125 90.78846740722656" stroke-width="0.6000000238418579" fill="rgb(233, 92, 21)" opacity="1.0"/>
    <path d="M 203.9725341796875 94.6700439453125 C 201.6968994140625 89.33401489257812 198.42520141601562 83.19601440429688 192.63088989257812 82.6416015625 C 190.31640625 82.51069641113281 188.018310546875 83.10121154785156 186.0537109375 84.33175659179688 C 181.11077880859375 87.24557495117188 177.88677978515625 92.37448120117188 177.40411376953125 98.09197998046875 C 177.007080078125 102.94305419921875 178.68780517578125 107.6571044921875 180.41766357421875 112.17477416992188 C 181.39349365234375 114.7109375 182.51104736328125 117.37443542480469 184.7137451171875 118.94024658203125 C 187.6668701171875 121.00325012207031 191.68069458007812 120.50616455078125 195.14730834960938 119.53067016601562 C 200.22247314453125 118.10935974121094 205.03414916992188 115.87596130371094 209.39569091796875 112.91709899902344 C 210.90069580078125 111.89186096191406 212.406982421875 110.71803283691406 213.18869018554688 109.07403564453125 C 213.83734130859375 107.50827026367188 214.01641845703125 105.78756713867188 213.70404052734375 104.12176513671875 C 212.95306396484375 99.03193664550781 210.007080078125 94.52774047851562 205.64480590820312 91.79985046386719 L 203.9725341796875 94.6700439453125" stroke-width="0.6000000238418579" fill="rgb(70, 150, 179)" opacity="1.0"/>
    <path d="M 255.13555908203125 127.11569213867188 C 249.263916015625 127.419677734375 242.7684326171875 128.0031280517578 238.75830078125 132.29769897460938 C 234.45330810546875 136.91358947753906 234.70806884765625 144.37132263183594 237.44891357421875 150.05690002441406 C 238.5047607421875 152.24948120117188 239.95318603515625 154.35621643066406 242.06121826171875 155.57151794433594 C 243.79379272460938 156.57122802734375 245.82611083984375 156.89166259765625 247.81661987304688 157.0843505859375 C 254.093017578125 157.69955444335938 260.944580078125 157.07440185546875 265.7806701660156 153.0287628173828 C 270.6518859863281 148.94802856445312 272.47412109375 141.58665466308594 270.03289794921875 135.71360778808594 C 267.5916442871094 129.84056091308594 261.1336669921875 125.88314819335938 254.79248046875 126.42630004882812 L 255.13555908203125 127.11569213867188" stroke-width="0.6000000238418579" fill="rgb(140, 28, 33)" opacity="1.0"/>
    <path d="M 292.2663879394531 121.18304443359375 C 286.537109375 124.04360961914062 280.60699462890625 127.0833740234375 276.5969543457031 132.08203125 C 272.5870361328125 137.08062744140625 271.0491638183594 144.6909942626953 274.74407958984375 149.92544555664062 C 279.3194580078125 156.37664794921875 289.9102478027344 155.91769409179688 295.7188720703125 150.52886962890625 C 301.5274963378906 145.14002990722656 303.32818603515625 136.61830139160156 303.097900390625 128.70816040039062 C 303.2719421386719 126.25238037109375 302.5191345214844 123.8206787109375 300.9879150390625 121.89288330078125 C 299.2891540527344 120.16644287109375 295.7626037597656 120.16824340820312 294.8457946777344 122.42304992675781 L 292.2663879394531 121.18304443359375" stroke-width="0.6000000238418579" fill="rgb(159, 159, 159)" opacity="1.0"/>
    <path d="M 196.55499267578125 134.22946166992188 C 193.0162353515625 129.15447998046875 187.66162109375 125.181396484375 181.56854248046875 124.12641906738281 C 175.47549438476562 123.07144165039062 168.718994140625 125.25930786132812 165.00827026367188 130.238525390625 C 162.38922119140625 133.76222229003906 161.46551513671875 138.36483764648438 161.89566040039062 142.7379913330078 C 162.3258056640625 147.1111602783203 164.01214599609375 151.28053283691406 166.1888427734375 155.0986785888672 C 167.1370849609375 156.75967407226562 168.251953125 158.433349609375 169.937744140625 159.3262939453125 C 171.8699951171875 160.35092163085938 174.19403076171875 160.16357421875 176.36468505859375 159.84585571289062 C 182.4927978515625 158.94879150390625 188.7169189453125 157.07833862304688 193.30438232421875 152.91616821289062 C 197.891845703125 148.75396728515625 200.40887451171875 141.86447143554688 198.08172607421875 136.14056396484375 L 196.55499267578125 134.22946166992188" stroke-width="0.6000000238418579" fill="rgb(159, 159, 159)" opacity="1.0"/>
    <path d="M 277.0490417480469 99.84663391113281 C 271.7335510253906 100.08425903320312 265.8354187011719 100.57864379882812 262.2129211425781 104.461669921875 C 258.6846923828125 108.23297119140625 258.47308349609375 113.9427490234375 258.55828857421875 119.1087646484375 C 258.5959777832031 121.20733642578125 258.66888427734375 123.40216064453125 259.69415283203125 125.23228454589844 C 261.4263916015625 128.32861328125 265.3066711425781 129.46620178222656 268.8365783691406 129.76748657226562 C 272.1128234863281 130.04837036132812 275.4124450683594 129.85736083984375 278.6344299316406 129.2003173828125 C 283.86639404296875 128.13536071777344 289.37225341796875 125.24313354492188 290.8184509277344 120.10546875 C 291.6032409667969 117.33294677734375 291.0448913574219 114.30419921875 289.83984375 111.68196105957031 C 288.6347961425781 109.05972290039062 286.8132629394531 106.77377319335938 284.9828186035156 104.54269409179688 C 283.15240478515625 102.31161499023438 281.3059997558594 100.1585693359375 278.7825927734375 98.90618896484375 L 277.0490417480469 99.84663391113281" stroke-width="0.6000000238418579" fill="rgb(218, 166, 20)" opacity="1.0"/>
    <path d="M 226.75286865234375 113.1102294921875 C 226.74176025390625 122.7723388671875 234.5654296875 130.6140594482422 244.2275390625 130.62518310546875 C 245.054931640625 130.62615966796875 245.88128662109375 130.5684051513672 246.70050048828125 130.45240783691406 C 249.813232421875 130.01107788085938 252.91769409179688 128.6205291748047 254.7843017578125 126.09268188476562 C 256.36187744140625 123.95660400390625 256.9150695800781 121.24290466308594 257.1608581542969 118.6005859375 C 257.8089904785156 111.52688598632812 256.5513000488281 104.40864562988281 253.51837158203125 97.98532104492188 C 252.71383666992188 96.28878784179688 251.75070190429688 94.60404968261719 250.27462768554688 93.43708801269531 C 247.7977294921875 91.47653198242188 244.27191162109375 91.33584594726562 241.22991943359375 92.19561767578125 C 236.7127685546875 93.46893310546875 232.88824462890625 96.72505187988281 230.46234130859375 100.74385070800781 C 228.036376953125 104.76263427734375 226.93087768554688 109.48895263671875 226.81829833984375 114.18142700195312 L 226.75286865234375 113.1102294921875" stroke-width="0.6000000238418579" fill="rgb(143, 165, 67)" opacity="1.0"/>
    <path d="M 249.0111083984375 87.1099853515625 C 248.575927734375 98.59202575683594 263.9247741699219 106.77351379394531 273.62371826171875 100.75164794921875 C 283.3226318359375 94.729736328125 283.259765625 78.18618774414062 273.92047119140625 71.48660278320312 C 264.5811767578125 64.78701782226562 249.7103271484375 69.12110900878906 244.6611328125 79.45828247070312 L 249.0111083984375 87.1099853515625" stroke-width="0.6000000238418579" fill="rgb(233, 92, 21)" opacity="1.0"/>
    <path d="M 338.1571044921875 70.339599609375 C 335.81292724609375 65.72994995117188 332.53466796875 60.46672058105469 327.3476257324219 60.321197509765625 C 325.2811584472656 60.34361267089844 323.27252197265625 61.0067138671875 321.5989074707031 62.21907043457031 C 317.3771667480469 65.10733032226562 314.8172607421875 69.86264038085938 314.7309265136719 74.97708129882812 C 314.6687927246094 79.31571960449219 316.4465026855469 83.4078369140625 318.2561340332031 87.32232666015625 C 319.2762451171875 89.51960754394531 320.4300537109375 91.82162475585938 322.4831848144531 93.08221435546875 C 325.233642578125 94.74000549316406 328.77392578125 94.05709838867188 331.7987976074219 92.98147583007812 C 336.2276916503906 91.41281127929688 340.37347412109375 89.13766479492188 344.07537841796875 86.24424743652344 C 345.3525085449219 85.2420654296875 346.6218566894531 84.10762023925781 347.21856689453125 82.59848022460938 C 347.70159912109375 81.1668701171875 347.75762939453125 79.62564086914062 347.3798522949219 78.1627197265625 C 346.40655517578125 73.68058776855469 343.5160217285156 69.85102844238281 339.47235107421875 67.68637084960938 L 338.1571044921875 70.339599609375" stroke-width="0.6000000238418579" fill="rgb(70, 150, 179)" opacity="1.0"/>
    <path d="M 333.8670959472656 137.2139129638672 C 334.60882568359375 131.3386993408203 335.1842956542969 124.79534912109375 331.6390075683594 120.0567626953125 C 327.8275451660156 114.96871948242188 320.38861083984375 113.89642333984375 314.26495361328125 115.60366821289062 C 311.9036560058594 116.26091003417969 309.55767822265625 117.32266235351562 307.9783020019531 119.19670104980469 C 306.6794128417969 120.73678588867188 306.0007019042969 122.6947021484375 305.4560546875 124.6339111328125 C 303.7311096191406 130.74710083007812 303.13372802734375 137.65089416503906 306.28546142578125 143.16415405273438 C 309.4657897949219 148.71847534179688 316.4402160644531 151.83282470703125 322.6965026855469 150.4558868408203 C 328.9527893066406 149.07894897460938 334.02349853515625 143.37948608398438 334.61151123046875 136.99624633789062 L 333.8670959472656 137.2139129638672" stroke-width="0.6000000238418579" fill="rgb(140, 28, 33)" opacity="1.0"/>
    <path d="M 348.9872131347656 95.68559265136719 C 343.28497314453125 93.9771728515625 337.3326110839844 92.26229858398438 331.4343566894531 93.0966796875 C 325.53619384765625 93.93106079101562 319.6506042480469 98.10830688476562 318.8223571777344 104.00631713867188 C 317.8162536621094 111.28909301757812 325.28363037109375 117.71876525878906 332.6487731933594 117.76480102539062 C 340.013916015625 117.81082153320312 346.6576232910156 113.18341064453125 351.5361328125 107.677734375 C 353.217041015625 106.12469482421875 354.25469970703125 103.99807739257812 354.44427490234375 101.71743774414062 C 354.39215087890625 99.46658325195312 352.00177001953125 97.2232666015625 349.945556640625 98.16740417480469 L 348.9872131347656 95.68559265136719" stroke-width="0.6000000238418579" fill="rgb(159, 159, 159)" opacity="1.0"/>
    <path d="M 343.6384582519531 117.15887451171875 C 338.7193298339844 119.39285278320312 334.45843505859375 123.36087036132812 332.58624267578125 128.4257354736328 C 330.71405029296875 133.49061584472656 331.52130126953125 139.63946533203125 335.2085876464844 143.6155242919922 C 337.8190612792969 146.42333984375 341.6249084472656 147.94642639160156 345.4483947753906 148.2705841064453 C 349.27191162109375 148.59474182128906 353.1195983886719 147.807861328125 356.7434997558594 146.54420471191406 C 358.3201904296875 145.99334716796875 359.9341735839844 145.30142211914062 360.9682922363281 143.99542236328125 C 362.15460205078125 142.4986572265625 362.3622741699219 140.4732666015625 362.43365478515625 138.55892944335938 C 362.6351623535156 133.15435791015625 362.01605224609375 127.51303100585938 359.16943359375 122.91366577148438 C 356.32281494140625 118.31427001953125 350.805908203125 115.06031799316406 345.52166748046875 116.15093994140625 L 343.6384582519531 117.15887451171875" stroke-width="0.6000000238418579" fill="rgb(159, 159, 159)" opacity="1.0"/>
    <path d="M 364.86138916015625 88.90690612792969 C 359.8200988769531 88.93586730957031 354.2177429199219 89.18644714355469 350.6448974609375 92.72918701171875 C 347.1654357910156 96.16960144042969 346.7545471191406 101.567626953125 346.6446838378906 106.46176147460938 C 346.6029968261719 108.45001220703125 346.591064453125 110.53067016601562 347.4942626953125 112.30117797851562 C 349.0201110839844 115.29653930664062 352.6518859863281 116.51666259765625 355.9827880859375 116.93206787109375 C 359.07427978515625 117.31883239746094 362.20526123046875 117.25965881347656 365.2799377441406 116.75640869140625 C 370.27264404296875 115.94107055664062 375.5920715332031 113.40585327148438 377.1507263183594 108.59500122070312 C 377.9959716796875 105.9990234375 377.57904052734375 103.11093139648438 376.53485107421875 100.58384704589844 C 375.49066162109375 98.0567626953125 373.8503723144531 95.82534790039062 372.19964599609375 93.64553833007812 C 370.5489501953125 91.46572875976562 368.8802490234375 89.35922241210938 366.5373229980469 88.08045959472656 L 364.86138916015625 88.90690612792969" stroke-width="0.6000000238418579" fill="rgb(218, 166, 20)" opacity="1.0"/>
    <path d="M 428.8924560546875 139.1505126953125 C 420.45697021484375 139.4105682373047 413.8294677734375 146.459716796875 414.08953857421875 154.89520263671875 C 414.11181640625 155.61753845214844 414.185302734375 156.33737182617188 414.3094482421875 157.04931640625 C 414.7816162109375 159.75445556640625 416.082275390625 162.42587280273438 418.34124755859375 163.98486328125 C 420.2501220703125 165.302490234375 422.6346435546875 165.70965576171875 424.94830322265625 165.8504638671875 C 431.141845703125 166.21878051757812 437.321044921875 164.92202758789062 442.84405517578125 162.09490966796875 C 444.302734375 161.34515380859375 445.74658203125 160.457275390625 446.72418212890625 159.13604736328125 C 448.3665771484375 156.9189453125 448.3909912109375 153.8369140625 447.555419921875 151.20521545410156 C 446.3177490234375 147.29722595214844 443.3682861328125 144.04930114746094 439.79205322265625 142.0436248779297 C 436.21588134765625 140.0379638671875 432.058837890625 139.20480346679688 427.9591064453125 139.23751831054688 L 428.8924560546875 139.1505126953125" stroke-width="0.6000000238418579" fill="rgb(143, 165, 67)" opacity="1.0"/>
    <path d="M 151.07217407226562 406.4311828613281 C 157.45797729492188 414.908447265625 173.22311401367188 411.81512451171875 176.65695190429688 401.8448486328125 C 180.09075927734375 391.8745422363281 170.3958740234375 380.06268310546875 159.7991943359375 380.7120361328125 C 149.2025146484375 381.36138916015625 141.08004760742188 393.1396484375 143.49346923828125 403.48834228515625 L 151.07217407226562 406.4311828613281" stroke-width="0.6000000238418579" fill="rgb(233, 92, 21)" opacity="1.0"/>
    <path d="M 428.55908203125 198.803466796875 C 424.143310546875 196.15985107421875 418.59442138671875 193.4599609375 414.146240234375 196.08328247070312 C 412.4166259765625 197.19613647460938 411.07501220703125 198.81829833984375 410.30645751953125 200.7259521484375 C 408.27777099609375 205.39483642578125 408.637939453125 210.75735473632812 411.272705078125 215.113037109375 C 413.5172119140625 218.8021240234375 417.18157958984375 221.30947875976562 420.77886962890625 223.6502685546875 C 422.8017578125 224.96185302734375 424.99267578125 226.29098510742188 427.3902587890625 226.26638793945312 C 430.585693359375 226.20736694335938 433.20758056640625 223.7576904296875 435.187255859375 221.24990844726562 C 438.089111328125 217.58340454101562 440.3782958984375 213.47137451171875 441.9661865234375 209.07333374023438 C 442.51190185546875 207.55267333984375 442.98101806640625 205.92471313476562 442.6849365234375 204.3370361328125 C 442.3341064453125 202.87493896484375 441.5654296875 201.54644775390625 440.47265625 200.51364135742188 C 437.27960205078125 197.25177001953125 432.81640625 195.55477905273438 428.2628173828125 195.87127685546875 L 428.55908203125 198.803466796875" stroke-width="0.6000000238418579" fill="rgb(70, 150, 179)" opacity="1.0"/>
    <path d="M 413.8905029296875 161.4998779296875 C 413.3621826171875 155.88729858398438 412.541015625 149.68838500976562 408.2650451660156 146.0202178955078 C 403.6693420410156 142.08253479003906 396.5353698730469 142.627685546875 391.19940185546875 145.48287963867188 C 389.1416015625 146.5828399658203 387.1819152832031 148.0554656982422 386.102783203125 150.1239776611328 C 385.2150573730469 151.82408142089844 384.9901428222656 153.78390502929688 384.88592529296875 155.69854736328125 C 384.54998779296875 161.7359619140625 385.4255065917969 168.27435302734375 389.496337890625 172.74383544921875 C 393.60223388671875 177.24554443359375 400.727783203125 178.6939697265625 406.2554016113281 176.11822509765625 C 411.7830505371094 173.54244995117188 415.3133544921875 167.19613647460938 414.53704833984375 161.14337158203125 L 413.8905029296875 161.4998779296875" stroke-width="0.6000000238418579" fill="rgb(140, 28, 33)" opacity="1.0"/>
    <path d="M 148.90087890625 132.05386352539062 C 142.6748504638672 133.22146606445312 136.2091827392578 134.5050506591797 131.03887939453125 138.1728515625 C 125.86868286132812 141.84060668945312 122.3419189453125 148.66334533691406 124.43740844726562 154.6448974609375 C 127.04055786132812 162.022705078125 137.2400665283203 164.4581298828125 144.22718811035156 160.90692138671875 C 151.2143096923828 157.35568237304688 155.2382354736328 149.73724365234375 157.16424560546875 142.1498565673828 C 157.99578857421875 139.86085510253906 157.93905639648438 137.34341430664062 157.00518798828125 135.09425354003906 C 155.8573455810547 132.99122619628906 152.50204467773438 132.03659057617188 151.01841735839844 133.9329833984375 L 148.90087890625 132.05386352539062" stroke-width="0.6000000238418579" fill="rgb(159, 159, 159)" opacity="1.0"/>
    <path d="M 437.72418212890625 166.46136474609375 C 432.494140625 164.343994140625 426.42474365234375 163.972412109375 421.24322509765625 166.19842529296875 C 416.06170654296875 168.42440795898438 411.9869689941406 173.4588623046875 411.6290588378906 179.11080932617188 C 411.381103515625 183.10711669921875 412.9656982421875 187.08425903320312 415.47076416015625 190.2122802734375 C 417.975830078125 193.34036254882812 421.3394775390625 195.6875 424.903076171875 197.522216796875 C 426.454345703125 198.3197021484375 428.1392822265625 199.0439453125 429.87200927734375 198.88742065429688 C 431.858642578125 198.7088623046875 433.54150390625 197.40911865234375 435.042236328125 196.0860595703125 C 439.27911376953125 192.35076904296875 443.10498046875 187.82388305664062 444.53948974609375 182.36004638671875 C 445.97406005859375 176.89617919921875 444.468994140625 170.37838745117188 439.842041015625 167.162109375 L 437.72418212890625 166.46136474609375" stroke-width="0.6000000238418579" fill="rgb(159, 159, 159)" opacity="1.0"/>
    <path d="M 412.74951171875 194.34109497070312 C 412.00360107421875 188.936767578125 410.9403381347656 182.9619140625 406.6329650878906 179.6312255859375 C 402.4485778808594 176.38623046875 396.59918212890625 176.71087646484375 391.3330383300781 177.28704833984375 C 389.1940612792969 177.52423095703125 386.9601745605469 177.8065185546875 385.1888122558594 179.02655029296875 C 382.1916809082031 181.0882568359375 381.3976745605469 185.15753173828125 381.4243469238281 188.7899169921875 C 381.44781494140625 192.161376953125 381.95526123046875 195.51202392578125 382.9311828613281 198.7392578125 C 384.5138854980469 203.97998046875 387.988037109375 209.32730102539062 393.3702697753906 210.3172607421875 C 396.2751770019531 210.85595703125 399.314453125 209.99908447265625 401.8775329589844 208.5205078125 C 404.4405822753906 207.04193115234375 406.6018981933594 204.96575927734375 408.7063903808594 202.8857421875 C 410.8108825683594 200.80569458007812 412.83416748046875 198.71676635742188 413.87384033203125 196.02191162109375 L 412.74951171875 194.34109497070312" stroke-width="0.6000000238418579" fill="rgb(218, 166, 20)" opacity="1.0"/>
    <path d="M 441.46343994140625 192.631591796875 C 439.7900390625 201.80282592773438 445.86822509765625 210.5941162109375 455.0394287109375 212.26751708984375 C 455.8248291015625 212.41082763671875 456.6192626953125 212.49822998046875 457.4169921875 212.529052734375 C 460.4481201171875 212.645751953125 463.63482666015625 211.85986328125 465.84197998046875 209.78118896484375 C 467.70733642578125 208.02471923828125 468.6995849609375 205.54354858398438 469.38763427734375 203.0772705078125 C 471.2203369140625 196.47308349609375 471.2513427734375 189.49862670898438 469.47735595703125 182.87841796875 C 469.0054931640625 181.12930297851562 468.38104248046875 179.36404418945312 467.18048095703125 178.00213623046875 C 465.1663818359375 175.71453857421875 461.8431396484375 174.97415161132812 458.80712890625 175.26690673828125 C 454.2994384765625 175.6983642578125 450.108154296875 178.13153076171875 447.1134033203125 181.52944946289062 C 444.11859130859375 184.9273681640625 442.255615234375 189.2242431640625 441.3411865234375 193.65985107421875 L 441.46343994140625 192.631591796875" stroke-width="0.6000000238418579" fill="rgb(143, 165, 67)" opacity="1.0"/>
    <path d="M 143.2177276611328 95.68170166015625 C 132.11402893066406 104.380859375 136.62188720703125 125.25164794921875 149.95697021484375 129.563232421875 C 163.29205322265625 133.874755859375 178.74334716796875 120.6944580078125 177.61337280273438 106.62992858886719 C 176.4833984375 92.56539916992188 160.62771606445312 82.06912231445312 146.93714904785156 85.53692626953125 L 143.2177276611328 95.68170166015625" stroke-width="0.6000000238418579" fill="rgb(233, 92, 21)" opacity="1.0"/>
    <path d="M 451.7034912109375 151.9619903564453 C 446.60626220703125 155.09132385253906 440.84210205078125 159.3580322265625 441.1546630859375 165.3514404296875 C 441.371826171875 167.731689453125 442.322265625 169.9859619140625 443.875 171.80313110351562 C 447.5955810546875 176.4027099609375 453.3148193359375 178.91357421875 459.21905517578125 178.53948974609375 C 464.22662353515625 178.2093505859375 468.77960205078125 175.781005859375 473.1248779296875 173.332275390625 C 475.56353759765625 171.9527587890625 478.110595703125 170.40945434570312 479.37371826171875 167.92575073242188 C 481.0302734375 164.60137939453125 479.91510009765625 160.58319091796875 478.39501953125 157.195556640625 C 476.17645263671875 152.2349395751953 473.16961669921875 147.6661376953125 469.49114990234375 143.66632080078125 C 468.217529296875 142.28677368164062 466.7921142578125 140.92845153808594 464.9970703125 140.3802947998047 C 463.3018798828125 139.9560089111328 461.5198974609375 140.03411865234375 459.86834716796875 140.6051025390625 C 454.791259765625 142.14222717285156 450.64398193359375 145.82919311523438 448.52288818359375 150.69140625 L 451.7034912109375 151.9619903564453" stroke-width="0.6000000238418579" fill="rgb(70, 150, 179)" opacity="1.0"/>
    <path d="M 379.5404052734375 79.57589721679688 C 381.5292053222656 73.35404968261719 383.472412109375 66.37409973144531 380.5830383300781 60.52058410644531 C 377.47540283203125 54.23445129394531 369.6244201660156 51.5718994140625 362.639404296875 52.188812255859375 C 359.9461669921875 52.42552185058594 357.18804931640625 53.10398864746094 355.09747314453125 54.817901611328125 C 353.3783874511719 56.2261962890625 352.2476501464844 58.212646484375 351.26605224609375 60.205810546875 C 348.16302490234375 66.487548828125 346.1233825683594 73.85394287109375 348.4298400878906 80.46821594238281 C 350.75897216796875 87.13278198242188 357.694580078125 91.91618347167969 364.7568359375 91.68423461914062 C 371.819091796875 91.4522705078125 378.467041015625 86.293701171875 380.3915710449219 79.48992919921875 L 379.5404052734375 79.57589721679688" stroke-width="0.6000000238418579" fill="rgb(140, 28, 33)" opacity="1.0"/>
    <path d="M 130.99432373046875 406.7204284667969 C 127.05734252929688 413.33819580078125 123.03366088867188 420.26776123046875 122.22567749023438 427.93115234375 C 121.41773986816406 435.59442138671875 124.80831909179688 444.293212890625 131.9485321044922 447.1873779296875 C 140.77037048339844 450.7401123046875 151.18658447265625 443.39227294921875 153.56057739257812 434.1651611328125 C 155.9345703125 424.93798828125 152.21755981445312 415.1463623046875 146.84336853027344 407.2934875488281 C 145.4232940673828 404.6958923339844 143.0811767578125 402.7250671386719 140.27911376953125 401.76995849609375 C 137.4384002685547 401.12750244140625 133.87181091308594 403.42138671875 134.4098358154297 406.2984313964844 L 130.99432373046875 406.7204284667969" stroke-width="0.6000000238418579" fill="rgb(159, 159, 159)" opacity="1.0"/>
    <path d="M 416.59417724609375 221.687255859375 C 412.32440185546875 216.0537109375 406.0314636230469 211.76034545898438 399.0276184082031 210.83184814453125 C 392.0238037109375 209.9033203125 384.4093933105469 212.70697021484375 380.3985900878906 218.55947875976562 C 377.568115234375 222.70086669921875 376.7220153808594 227.9971923828125 377.41107177734375 232.97024536132812 C 378.10015869140625 237.943359375 380.214111328125 242.62689208984375 382.87200927734375 246.88726806640625 C 384.0297546386719 248.7406005859375 385.3783264160156 250.600830078125 387.34332275390625 251.54391479492188 C 389.59564208984375 252.62615966796875 392.2403564453125 252.30706787109375 394.7040710449219 251.8460693359375 C 401.6595458984375 250.54443359375 408.6805114746094 248.12725830078125 413.729248046875 243.1678466796875 C 418.778076171875 238.20840454101562 421.339599609375 230.2291259765625 418.4237060546875 223.79989624023438 L 416.59417724609375 221.687255859375" stroke-width="0.6000000238418579" fill="rgb(159, 159, 159)" opacity="1.0"/>
    <path d="M 384.1671447753906 111.29486083984375 C 377.80426025390625 111.51495361328125 370.7411193847656 112.03524780273438 366.35986328125 116.63754272460938 C 362.0927734375 121.1072998046875 361.77056884765625 127.93653869628906 361.8100891113281 134.11874389648438 C 361.829833984375 136.63015747070312 361.8905334472656 139.2571563720703 363.0951843261719 141.45928955078125 C 365.1304016113281 145.18499755859375 369.75946044921875 146.593017578125 373.9793701171875 146.9961395263672 C 377.89605712890625 147.371826171875 381.8463439941406 147.1831512451172 385.70941162109375 146.4359130859375 C 391.98236083984375 145.22488403320312 398.6051330566406 141.8308563232422 400.3975524902344 135.7010498046875 C 401.3700866699219 132.39320373535156 400.73858642578125 128.76255798339844 399.32843017578125 125.61045837402344 C 397.91827392578125 122.4583740234375 395.76641845703125 119.70121765136719 393.6032409667969 117.00961303710938 C 391.4400634765625 114.3179931640625 389.2568664550781 111.71954345703125 386.2527160644531 110.19058227539062 L 384.1671447753906 111.29486083984375" stroke-width="0.6000000238418579" fill="rgb(218, 166, 20)" opacity="1.0"/>
    <path d="M 403.09271240234375 82.31463623046875 C 395.34521484375 75.55635070800781 383.5859375 76.3582763671875 376.82763671875 84.10577392578125 C 376.2489318847656 84.76918029785156 375.718017578125 85.47282409667969 375.2388610839844 86.21138000488281 C 373.41876220703125 89.01806640625 372.36627197265625 92.48123168945312 373.09136962890625 95.7452392578125 C 373.7038879394531 98.50361633300781 375.49560546875 100.84326171875 377.44476318359375 102.88629150390625 C 382.6697082519531 108.3477783203125 389.2616882324219 112.31063842773438 396.53594970703125 114.36323547363281 C 398.4596862792969 114.90255737304688 400.4847412109375 115.30635070800781 402.4524841308594 114.93673706054688 C 405.7563171386719 114.31819152832031 408.3321838378906 111.58647155761719 409.76702880859375 108.54423522949219 C 411.900390625 104.02909851074219 411.95843505859375 98.68486022949219 410.4273681640625 93.93040466308594 C 408.89630126953125 89.17596435546875 405.8749694824219 84.98710632324219 402.1872253417969 81.61885070800781 L 403.09271240234375 82.31463623046875" stroke-width="0.6000000238418579" fill="rgb(143, 165, 67)" opacity="1.0"/>
    <path d="M 116.57246398925781 427.03582763671875 C 112.35092163085938 415.35797119140625 93.65762329101562 413.388671875 86.38504028320312 423.3548583984375 C 79.11248779296875 433.321044921875 85.88601684570312 449.866943359375 97.95852661132812 452.7894287109375 C 110.03106689453125 455.7120361328125 123.16886901855469 445.33856201171875 124.03350830078125 432.9359130859375 L 116.57246398925781 427.03582763671875" stroke-width="0.6000000238418579" fill="rgb(233, 92, 21)" opacity="1.0"/>
    <path d="M 450.99267578125 215.20516967773438 C 444.4830322265625 215.190673828125 436.70556640625 215.84848022460938 433.56982421875 221.57843017578125 C 432.41070556640625 223.90728759765625 432.0028076171875 226.5384521484375 432.40240478515625 229.10894775390625 C 433.219970703125 235.49563598632812 437.08245849609375 241.08984375 442.76495361328125 244.11761474609375 C 447.59185791015625 246.67364501953125 453.1968994140625 247.02642822265625 458.62109375 247.24163818359375 C 461.66827392578125 247.35757446289062 464.90948486328125 247.38369750976562 467.4989013671875 245.8050537109375 C 470.93310546875 243.672607421875 472.19659423828125 239.31344604492188 472.724609375 235.30691528320312 C 473.50469970703125 229.44427490234375 473.3306884765625 223.49404907226562 472.20947265625 217.68701171875 C 471.818115234375 215.68133544921875 471.274169921875 213.60858154296875 469.92474365234375 212.074951171875 C 468.59710693359375 210.71319580078125 466.90191650390625 209.76708984375 465.04583740234375 209.35211181640625 C 459.4647216796875 207.87432861328125 453.5162353515625 208.919189453125 448.7728271484375 212.21060180664062 L 450.99267578125 215.20516967773438" stroke-width="0.6000000238418579" fill="rgb(70, 150, 179)" opacity="1.0"/>
    <path d="M 429.4322509765625 132.99205017089844 C 430.9486083984375 126.79678344726562 432.3692626953125 119.86611938476562 429.15869140625 114.35966491699219 C 425.706298828125 108.44656372070312 417.8785400390625 106.38409423828125 411.1161193847656 107.45756530761719 C 408.5086669921875 107.87034606933594 405.86785888671875 108.71783447265625 403.9473876953125 110.52879333496094 C 402.3680725097656 112.01690673828125 401.4010009765625 114.02841186523438 400.5796813964844 116.036376953125 C 397.9819641113281 122.3653564453125 396.4934997558594 129.67898559570312 399.18768310546875 135.96592712402344 C 401.9073791503906 142.30032348632812 408.9869689941406 146.4906463623047 415.85064697265625 145.78692626953125 C 422.71435546875 145.0832061767578 428.841064453125 139.60850524902344 430.2554931640625 132.85072326660156 L 429.4322509765625 132.99205017089844" stroke-width="0.6000000238418579" fill="rgb(140, 28, 33)" opacity="1.0"/>
    <path d="M 384.7018127441406 55.84724426269531 C 385.3897399902344 62.89872741699219 386.1833190917969 70.22860717773438 389.7607116699219 76.35000610351562 C 393.33807373046875 82.47129821777344 400.59222412109375 87.07217407226562 407.4626770019531 85.32638549804688 C 415.938720703125 83.1524658203125 419.6561279296875 72.02874755859375 416.387451171875 63.89466857910156 C 413.1187744140625 55.760589599609375 405.0270690917969 50.5274658203125 396.763427734375 47.63471984863281 C 394.2950744628906 46.48295593261719 391.4847412109375 46.29833984375 388.8869934082031 47.11735534667969 C 386.43096923828125 48.189178466796875 385.0370788574219 51.83341979980469 387.00384521484375 53.67303466796875 L 384.7018127441406 55.84724426269531" stroke-width="0.6000000238418579" fill="rgb(159, 159, 159)" opacity="1.0"/>
    <path d="M 434.50042724609375 244.6185302734375 C 428.18560791015625 247.77142333984375 422.8134765625 253.15655517578125 420.612548828125 259.8589172363281 C 418.4117431640625 266.561279296875 419.76104736328125 274.5500793457031 424.7659912109375 279.5638427734375 C 428.3089599609375 283.1041564941406 433.350830078125 284.9097595214844 438.358154296875 285.1492614746094 C 443.365478515625 285.3887634277344 448.35101318359375 284.1766052246094 453.02142333984375 282.35272216796875 C 455.05340576171875 281.55780029296875 457.1273193359375 280.576904296875 458.4146728515625 278.82220458984375 C 459.8914794921875 276.8111267089844 460.0653076171875 274.1568908691406 460.0665283203125 271.6542053222656 C 460.0699462890625 264.588623046875 458.9906005859375 257.2533874511719 455.05328369140625 251.38546752929688 C 451.11590576171875 245.51754760742188 443.7569580078125 241.534423828125 436.91064453125 243.212158203125 L 434.50042724609375 244.6185302734375" stroke-width="0.6000000238418579" fill="rgb(159, 159, 159)" opacity="1.0"/>
    <path d="M 416.580322265625 262.73291015625 C 412.3194580078125 257.5560302734375 407.3591003417969 251.98626708984375 400.7054443359375 251.27337646484375 C 394.2356872558594 250.57098388671875 388.32159423828125 254.67742919921875 383.1800231933594 258.67156982421875 C 381.0937194824219 260.2972106933594 378.9370422363281 262.0311279296875 377.868408203125 264.44891357421875 C 376.0586242675781 268.53704833984375 377.8478088378906 273.30804443359375 380.2147216796875 277.09320068359375 C 382.4102783203125 280.60736083984375 385.09906005859375 283.7879943847656 388.1987609863281 286.537841796875 C 393.23016357421875 291.004638671875 400.3102111816406 294.3650817871094 406.5817565917969 291.9355773925781 C 409.969482421875 290.6289367675781 412.5992431640625 287.7748718261719 414.33013916015625 284.5766906738281 C 416.06103515625 281.37847900390625 416.986572265625 277.81341552734375 417.85015869140625 274.2809143066406 C 418.7137451171875 270.7484130859375 419.486572265625 267.25885009765625 418.839599609375 263.7684020996094 L 416.580322265625 262.73291015625" stroke-width="0.6000000238418579" fill="rgb(218, 166, 20)" opacity="1.0"/>
    <path d="M 411.60174560546875 86.16778564453125 C 407.92352294921875 95.81282043457031 412.76055908203125 106.61346435546875 422.40557861328125 110.29168701171875 C 423.2314453125 110.60665893554688 424.0787353515625 110.86264038085938 424.9407958984375 111.05770874023438 C 428.2169189453125 111.79833984375 431.844970703125 111.58792114257812 434.66851806640625 109.77186584472656 C 437.0546875 108.23739624023438 438.63714599609375 105.73725891113281 439.88543701171875 103.19175720214844 C 443.2174072265625 96.37345886230469 444.66302490234375 88.787353515625 444.072021484375 81.22149658203125 C 443.9124755859375 79.22186279296875 443.59002685546875 77.17381286621094 442.558837890625 75.44818115234375 C 440.829345703125 72.55018615722656 437.361572265625 71.07148742675781 433.997314453125 70.77557373046875 C 429.0029296875 70.33277893066406 423.94769287109375 72.13302612304688 419.999755859375 75.22575378417969 C 416.0517578125 78.31845092773438 413.1539306640625 82.61891174316406 411.260498046875 87.26239013671875 L 411.60174560546875 86.16778564453125" stroke-width="0.6000000238418579" fill="rgb(143, 165, 67)" opacity="1.0"/>
    <path d="M 432.9521484375 122.59056091308594 C 428.72857666015625 135.0594024658203 442.9173583984375 149.05224609375 455.5341796875 145.6023406982422 C 468.1510009765625 142.15237426757812 473.478759765625 123.96197509765625 465.40692138671875 113.55712890625 C 457.33502197265625 103.15231323242188 439.58837890625 103.06134033203125 430.670654296875 112.76760864257812 L 432.9521484375 122.59056091308594" stroke-width="0.6000000238418579" fill="rgb(233, 92, 21)" opacity="1.0"/>
    <path d="M 448.76806640625 92.50875854492188 C 448.5137939453125 98.51165771484375 448.8326416015625 105.70860290527344 454.0009765625 108.8125 C 456.1058349609375 109.96768188476562 458.5172119140625 110.44125366210938 460.902587890625 110.1678466796875 C 466.8228759765625 109.65016174316406 472.125 106.29508972167969 475.1275634765625 101.16653442382812 C 477.6634521484375 96.80960083007812 478.1961669921875 91.65353393554688 478.5953369140625 86.65911865234375 C 478.8150634765625 83.85319519042969 478.9591064453125 80.86502075195312 477.5989990234375 78.41856384277344 C 475.75946044921875 75.17251586914062 471.7861328125 73.845947265625 468.11065673828125 73.21075439453125 C 462.73284912109375 72.27438354492188 457.2388916015625 72.21466064453125 451.84197998046875 73.03387451171875 C 449.977783203125 73.32051086425781 448.046142578125 73.74546813964844 446.581787109375 74.93319702148438 C 445.27685546875 76.10719299316406 444.341552734375 77.63555908203125 443.89019775390625 79.33192443847656 C 442.32080078125 84.42433166503906 443.0643310546875 89.94886779785156 445.9241943359375 94.44517517089844 L 448.76806640625 92.50875854492188" stroke-width="0.6000000238418579" fill="rgb(70, 150, 179)" opacity="1.0"/>
    <path d="M 313.0953674316406 366.05303955078125 C 307.35174560546875 363.548828125 300.8802490234375 361.0142517089844 295.01275634765625 363.20111083984375 C 288.7111511230469 365.5540771484375 285.4052429199219 372.7867126464844 285.3132629394531 379.5125427246094 C 285.27667236328125 382.105712890625 285.6553649902344 384.8038635253906 287.0871887207031 386.96588134765625 C 288.2635803222656 388.7436218261719 290.04901123046875 390.0162658691406 291.85540771484375 391.147216796875 C 297.547607421875 394.7205505371094 304.37847900390625 397.3847961425781 310.9151611328125 395.828369140625 C 317.50201416015625 394.2551574707031 322.7426452636719 388.1027526855469 323.2095031738281 381.3407287597656 C 323.6763610839844 374.5787353515625 319.4014587402344 367.73199462890625 313.0962829589844 365.2323913574219 L 313.0953674316406 366.05303955078125" stroke-width="0.6000000238418579" fill="rgb(140, 28, 33)" opacity="1.0"/>
    <path d="M 298.2298889160156 393.16705322265625 C 290.58245849609375 390.5437316894531 282.595947265625 387.8983154296875 274.546630859375 388.7154235839844 C 266.4974060058594 389.5325622558594 258.28656005859375 394.8871154785156 256.8473205566406 402.8472595214844 C 255.0926513671875 412.67724609375 264.88330078125 421.80224609375 274.8763427734375 422.25836181640625 C 284.869384765625 422.7144775390625 294.1331481933594 416.78948974609375 301.0481872558594 409.5782470703125 C 303.4124450683594 407.5604248046875 304.934326171875 404.7297668457031 305.3135070800781 401.6447448730469 C 305.3630676269531 398.5872497558594 302.2388916015625 395.4150085449219 299.3978576660156 396.58642578125 L 298.2298889160156 393.16705322265625" stroke-width="0.6000000238418579" fill="rgb(159, 159, 159)" opacity="1.0"/>
    <path d="M 323.0995178222656 415.96820068359375 C 317.7520446777344 420.1607666015625 313.7244873046875 426.2767333984375 312.9422607421875 433.0230712890625 C 312.1600036621094 439.76934814453125 314.97454833984375 447.0438232421875 320.66278076171875 450.8067626953125 C 324.6877746582031 453.4620361328125 329.7916259765625 454.19195556640625 334.5606384277344 453.451416015625 C 339.3296813964844 452.71087646484375 343.7980041503906 450.6053466796875 347.85101318359375 447.98370361328125 C 349.6141357421875 446.841796875 351.380859375 445.516357421875 352.25640869140625 443.61285400390625 C 353.2611999511719 441.4310302734375 352.9128723144531 438.89404296875 352.4309997558594 436.5333251953125 C 351.07049560546875 429.8685302734375 348.63677978515625 423.158447265625 343.7906188964844 418.3837890625 C 338.9444274902344 413.6092529296875 331.2348937988281 411.2727355957031 325.101318359375 414.176513671875 L 323.0995178222656 415.96820068359375" stroke-width="0.6000000238418579" fill="rgb(159, 159, 159)" opacity="1.0"/>
    <path d="M 258.06781005859375 412.78521728515625 C 251.1220703125 412.94073486328125 243.4083251953125 413.41455078125 238.5665283203125 418.37799072265625 C 233.85110473632812 423.1983642578125 233.40875244140625 430.645751953125 233.36962890625 437.391845703125 C 233.3577880859375 440.1324462890625 233.38906860351562 442.9996337890625 234.6741943359375 445.41851806640625 C 236.84536743164062 449.5108642578125 241.8775634765625 451.1087646484375 246.47674560546875 451.604736328125 C 250.745361328125 452.0667724609375 255.0582275390625 451.9134521484375 259.28326416015625 451.14947509765625 C 266.1440124511719 449.9114990234375 273.41552734375 446.2962646484375 275.4528503417969 439.631591796875 C 276.5579833984375 436.03521728515625 275.917236328125 432.0653076171875 274.42047119140625 428.607177734375 C 272.9237365722656 425.1490478515625 270.6124267578125 422.1119384765625 268.2878723144531 419.146240234375 C 265.96337890625 416.1805419921875 263.6157531738281 413.3162841796875 260.358154296875 411.6080322265625 L 258.06781005859375 412.78521728515625" stroke-width="0.6000000238418579" fill="rgb(218, 166, 20)" opacity="1.0"/>
    <path d="M 220.187255859375 414.431396484375 C 210.02578735351562 408.24127197265625 196.7701416015625 411.4606628417969 190.58001708984375 421.62213134765625 C 190.0499267578125 422.4923095703125 189.582275390625 423.39892578125 189.18051147460938 424.335205078125 C 187.654541015625 427.893310546875 187.13284301757812 432.0496826171875 188.599609375 435.630615234375 C 189.8388671875 438.65673828125 192.341064453125 440.9742431640625 194.9647216796875 442.92254638671875 C 201.9947509765625 448.1279296875 210.29037475585938 451.3560791015625 218.98980712890625 452.2716064453125 C 221.28973388671875 452.5096435546875 223.67864990234375 452.5733642578125 225.85064697265625 451.76611328125 C 229.49783325195312 450.4130859375 231.9005126953125 446.7923583984375 232.94085693359375 443.0411376953125 C 234.48928833007812 437.4730224609375 233.508056640625 431.36590576171875 230.82986450195312 426.24298095703125 C 228.15167236328125 421.1201171875 223.884521484375 416.93438720703125 219.01806640625 413.8153076171875 L 220.187255859375 414.431396484375" stroke-width="0.6000000238418579" fill="rgb(143, 165, 67)" opacity="1.0"/>
    <path d="M 261.9678955078125 360.3312072753906 C 269.057373046875 372.0878601074219 289.7535095214844 370.2036437988281 295.4973449707031 357.8315124511719 C 301.24114990234375 345.4593811035156 290.3372497558594 328.9721984863281 276.6162414550781 328.3988952636719 C 262.895263671875 327.8255615234375 250.87823486328125 341.900634765625 252.60769653320312 355.537109375 L 261.9678955078125 360.3312072753906" stroke-width="0.6000000238418579" fill="rgb(233, 92, 21)" opacity="1.0"/>
    <path d="M 330.1814270019531 348.322998046875 C 325.5903015136719 353.101318359375 320.6016845703125 359.2853088378906 322.6102294921875 365.623779296875 C 323.5077209472656 368.1151123046875 325.1561584472656 370.2666015625 327.3282165527344 371.7813415527344 C 332.6015625 375.673828125 339.4344787597656 376.7689208984375 345.66015625 374.71929931640625 C 350.936767578125 372.9671325683594 355.1401672363281 369.0923156738281 359.11517333984375 365.253662109375 C 361.3445739746094 363.0937194824219 363.6444396972656 360.72784423828125 364.3052062988281 357.7122802734375 C 365.1529846191406 353.6855773925781 362.83544921875 349.6888732910156 360.259765625 346.4813232421875 C 356.49609375 341.7823181152344 351.99664306640625 337.7234802246094 346.93597412109375 334.46221923828125 C 345.1852722167969 333.3387756347656 343.2778015136719 332.28045654296875 341.2001647949219 332.1939697265625 C 339.2642517089844 332.21240234375 337.3755187988281 332.793701171875 335.7642517089844 333.8670349121094 C 330.75006103515625 336.93267822265625 327.3330993652344 342.0436096191406 326.4166259765625 347.84881591796875 L 330.1814270019531 348.322998046875" stroke-width="0.6000000238418579" fill="rgb(70, 150, 179)" opacity="1.0"/>
    <path d="M 296.49053955078125 417.68505859375 C 289.45458984375 418.0286865234375 281.67022705078125 418.7049560546875 276.85064697265625 423.8363037109375 C 271.6766052246094 429.3515625 271.9556884765625 438.28765869140625 275.2196350097656 445.1092529296875 C 276.4769287109375 447.7398681640625 278.2049560546875 450.26904296875 280.72637939453125 451.7325439453125 C 282.7986755371094 452.93634033203125 285.23248291015625 453.327392578125 287.61669921875 453.565185546875 C 295.1343688964844 454.32427978515625 303.3454895019531 453.5992431640625 309.1538391113281 448.76904296875 C 315.0044250488281 443.89697265625 317.21343994140625 435.0836181640625 314.3091125488281 428.0384521484375 C 311.40478515625 420.99334716796875 303.6812744140625 416.22930908203125 296.0819091796875 416.85784912109375 L 296.49053955078125 417.68505859375" stroke-width="0.6000000238418579" fill="rgb(140, 28, 33)" opacity="1.0"/>
    <path d="M 326.5694885253906 380.3591003417969 C 319.14227294921875 383.52044677734375 311.44866943359375 386.8918762207031 306.0212097167969 392.874755859375 C 300.5938720703125 398.8575439453125 298.07733154296875 408.3154296875 302.32623291015625 415.183837890625 C 307.5899963378906 423.650390625 320.950439453125 423.88232421875 328.67071533203125 417.5460205078125 C 336.3909912109375 411.20965576171875 339.307861328125 400.6252136230469 339.6226501464844 390.655029296875 C 340.0293273925781 387.5784606933594 339.2679443359375 384.4613342285156 337.48870849609375 381.91876220703125 C 335.4832458496094 379.6167297363281 331.0459899902344 379.3494567871094 329.72015380859375 382.1164245605469 L 326.5694885253906 380.3591003417969" stroke-width="0.6000000238418579" fill="rgb(159, 159, 159)" opacity="1.0"/>
    <path d="M 364.96435546875 411.82275390625 C 358.9012145996094 415.45538330078125 353.95062255859375 421.2445068359375 352.2674865722656 428.10546875 C 350.5843200683594 434.9664306640625 352.544677734375 442.83935546875 357.9266357421875 447.4613037109375 C 361.73590087890625 450.7242431640625 366.9085693359375 452.14013671875 371.9265441894531 451.9949951171875 C 376.94451904296875 451.849853515625 381.8293762207031 450.2569580078125 386.3526306152344 448.0775146484375 C 388.32049560546875 447.12786865234375 390.31591796875 445.98931884765625 391.46661376953125 444.1385498046875 C 392.786865234375 442.0172119140625 392.7567443847656 439.353759765625 392.5658874511719 436.85479736328125 C 392.0270690917969 429.7998046875 390.3865051269531 422.5587158203125 386.0048828125 417.001953125 C 381.6232604980469 411.44525146484375 373.9700012207031 408.0329895019531 367.26287841796875 410.23358154296875 L 364.96435546875 411.82275390625" stroke-width="0.6000000238418579" fill="rgb(159, 159, 159)" opacity="1.0"/>
    <path d="M 250.32745361328125 366.20013427734375 C 251.64016723632812 359.12274169921875 252.792724609375 351.19903564453125 248.78369140625 345.2376403808594 C 244.89309692382812 339.4346618652344 237.43353271484375 337.40936279296875 230.5997314453125 335.9414978027344 C 227.82272338867188 335.3492736816406 224.90811157226562 334.7740173339844 222.18280029296875 335.5653381347656 C 217.57266235351562 336.9010009765625 214.88665771484375 341.66644287109375 213.40997314453125 346.2259826660156 C 212.0377197265625 350.4574890136719 211.2801513671875 354.8641052246094 211.1605224609375 359.3109436035156 C 210.963623046875 366.5313415527344 213.09088134765625 374.67156982421875 219.4189453125 378.1488037109375 C 222.83245849609375 380.031005859375 226.9945068359375 380.2215881347656 230.81866455078125 379.4356994628906 C 234.642822265625 378.6497497558594 238.21234130859375 376.94854736328125 241.71234130859375 375.21881103515625 C 245.2122802734375 373.4891052246094 248.61431884765625 371.7145080566406 251.0364990234375 368.7722473144531 L 250.32745361328125 366.20013427734375" stroke-width="0.6000000238418579" fill="rgb(218, 166, 20)" opacity="1.0"/>
    <path d="M 254.1632080078125 388.3302307128906 C 249.56964111328125 377.3502197265625 236.94476318359375 372.1730041503906 225.96478271484375 376.7666015625 C 225.0245361328125 377.1599426269531 224.11343383789062 377.6194763183594 223.23822021484375 378.14178466796875 C 219.9130859375 380.1269836425781 217.04977416992188 383.1864318847656 216.13470458984375 386.9475402832031 C 215.36114501953125 390.1258850097656 216.0264892578125 393.4719543457031 217.00698852539062 396.59039306640625 C 219.64303588867188 404.93402099609375 224.465087890625 412.419677734375 230.97219848632812 418.26971435546875 C 232.69482421875 419.81317138671875 234.59197998046875 421.267578125 236.82489013671875 421.889404296875 C 240.57290649414062 422.93548583984375 244.64480590820312 421.4144287109375 247.69015502929688 418.9876708984375 C 252.21392822265625 415.387939453125 255.00567626953125 409.8662109375 255.84527587890625 404.14495849609375 C 256.6849060058594 398.4237060546875 255.68740844726562 392.5282897949219 253.57827758789062 387.1446838378906 L 254.1632080078125 388.3302307128906" stroke-width="0.6000000238418579" fill="rgb(143, 165, 67)" opacity="1.0"/>
    <path d="M 196.09423828125 371.59515380859375 C 181.61065673828125 370.84466552734375 171.01593017578125 390.0726318359375 178.44598388671875 402.41900634765625 C 185.8760986328125 414.76531982421875 206.75640869140625 414.9759521484375 215.37548828125 403.3065185546875 C 223.99456787109375 391.6370849609375 218.7852783203125 372.79296875 205.8275146484375 366.2392883300781 L 196.09423828125 371.59515380859375" stroke-width="0.6000000238418579" fill="rgb(233, 92, 21)" opacity="1.0"/>
    <path d="M 254.0281982421875 371.9053039550781 C 251.04986572265625 377.89666748046875 248.113525390625 385.36236572265625 251.96484375 390.8614501953125 C 253.5826416015625 392.990234375 255.8211669921875 394.56451416015625 258.37164306640625 395.36712646484375 C 264.6286926269531 397.52276611328125 271.54241943359375 396.511962890625 276.92041015625 392.65521240234375 C 281.47406005859375 389.3719482421875 284.35205078125 384.3681945800781 287.02093505859375 379.4683837890625 C 288.51568603515625 376.7135314941406 290.01605224609375 373.7389831542969 289.74090576171875 370.63409423828125 C 289.34027099609375 366.4985656738281 285.8992919921875 363.348876953125 282.44818115234375 361.0375061035156 C 277.4017028808594 357.6484680175781 271.8399353027344 355.09857177734375 265.9786376953125 353.48675537109375 C 263.952392578125 352.9337463378906 261.7948303222656 352.4908752441406 259.7671203613281 353.03570556640625 C 257.9076843261719 353.63873291015625 256.26385498046875 354.769775390625 255.0361328125 356.2909240722656 C 251.13238525390625 360.7602233886719 249.38577270507812 366.717041015625 250.2579345703125 372.5867004394531 L 254.0281982421875 371.9053039550781" stroke-width="0.6000000238418579" fill="rgb(70, 150, 179)" opacity="1.0"/>
    <path d="M 330.447509765625 353.96795654296875 C 330.62078857421875 346.8256530761719 330.5129699707031 338.90167236328125 325.6794128417969 333.64678955078125 C 320.4837341308594 328.00494384765625 311.4241943359375 327.625732421875 304.28253173828125 330.42218017578125 C 301.528564453125 331.4992370605469 298.84234619140625 333.05987548828125 297.1754150390625 335.5019836425781 C 295.8043212890625 337.5090026855469 295.2286376953125 339.94183349609375 294.8115539550781 342.3358459472656 C 293.48724365234375 349.8838195800781 293.61273193359375 358.2430725097656 298.0684814453125 364.4757995605469 C 302.5635070800781 370.75433349609375 311.3147277832031 373.6412048339844 318.6558837890625 371.22503662109375 C 325.9970397949219 368.808837890625 331.3876647949219 361.34918212890625 331.314453125 353.6158447265625 L 330.447509765625 353.96795654296875" stroke-width="0.6000000238418579" fill="rgb(140, 28, 33)" opacity="1.0"/>
    <path d="M 364.85406494140625 395.33251953125 C 357.0201110839844 394.6830139160156 348.86126708984375 394.0935363769531 341.4687194824219 396.7828674316406 C 334.0762939453125 399.47216796875 327.6133117675781 406.47698974609375 328.1545104980469 414.32342529296875 C 328.84417724609375 424.007568359375 340.2484436035156 430.274658203125 349.7767028808594 428.322021484375 C 359.3049621582031 426.3695068359375 366.6244201660156 418.575927734375 371.4233093261719 410.1299133300781 C 373.1707763671875 407.6642150878906 373.9304504394531 404.6331481933594 373.5523376464844 401.6347961425781 C 372.8701171875 398.740966796875 369.1689453125 396.49566650390625 366.7702331542969 398.2771911621094 L 364.85406494140625 395.33251953125" stroke-width="0.6000000238418579" fill="rgb(159, 159, 159)" opacity="1.0"/>
    <path d="M 174.5191650390625 406.9703674316406 C 167.00262451171875 407.4598693847656 159.4901123046875 410.5353698730469 154.55245971679688 416.218505859375 C 149.6147918701172 421.901611328125 147.63758850097656 430.31890869140625 150.4872589111328 437.3216552734375 C 152.50827026367188 442.27001953125 156.72137451171875 446.1319580078125 161.54833984375 448.4388427734375 C 166.37530517578125 450.745849609375 171.78131103515625 451.61566162109375 177.13037109375 451.75335693359375 C 179.45819091796875 451.8118896484375 181.9041748046875 451.704833984375 183.896484375 450.5111083984375 C 186.1812744140625 449.1435546875 187.45022583007812 446.6043701171875 188.4866943359375 444.142822265625 C 191.41278076171875 437.193359375 193.38528442382812 429.53070068359375 191.93917846679688 422.12933349609375 C 190.4930419921875 414.7279052734375 184.9012451171875 407.765380859375 177.47198486328125 406.58380126953125 L 174.5191650390625 406.9703674316406" stroke-width="0.6000000238418579" fill="rgb(159, 159, 159)" opacity="1.0"/>
    <path d="M 369.7856140136719 364.4095764160156 C 363.8224182128906 361.1527099609375 357.05291748046875 357.7908935546875 350.52734375 359.63580322265625 C 344.1786804199219 361.4210510253906 340.1702880859375 367.51776123046875 336.8458251953125 373.21685791015625 C 335.4986877441406 375.5340270996094 334.1263427734375 377.9796142578125 334.0355529785156 380.6568908691406 C 333.8793029785156 385.18487548828125 337.3650817871094 388.99444580078125 341.0214538574219 391.65869140625 C 344.4142150878906 394.13287353515625 348.1446838378906 396.1070861816406 352.0986328125 397.5208435058594 C 358.5179443359375 399.81878662109375 366.4452209472656 400.3020324707031 371.42364501953125 395.6469421386719 C 374.114990234375 393.13775634765625 375.50872802734375 389.4601135253906 375.9272155761719 385.7987365722656 C 376.345703125 382.1372985839844 375.8683166503906 378.4353942871094 375.34490966796875 374.78753662109375 C 374.8215026855469 371.1396484375 374.22906494140625 367.56646728515625 372.30126953125 364.5291748046875 L 369.7856140136719 364.4095764160156" stroke-width="0.6000000238418579" fill="rgb(218, 166, 20)" opacity="1.0"/>
    <path d="M 374.96490478515625 380.9272766113281 C 367.9612121582031 390.5306091308594 370.0686340332031 403.9932556152344 379.6719665527344 410.9969482421875 C 380.4942932128906 411.5966796875 381.358154296875 412.1373291015625 382.25701904296875 412.61480712890625 C 385.6727600097656 414.428466796875 389.7673034667969 415.2919921875 393.4535217285156 414.1282958984375 C 396.5687561035156 413.1451416015625 399.0829772949219 410.8460693359375 401.23974609375 408.3955078125 C 407.00384521484375 401.8280029296875 410.904296875 393.8369140625 412.5360107421875 385.25238037109375 C 412.9635009765625 382.98248291015625 413.22467041015625 380.60955810546875 412.60089111328125 378.3804626464844 C 411.5558776855469 374.6376647949219 408.1503601074219 371.94598388671875 404.5021057128906 370.5997009277344 C 399.087158203125 368.5971984863281 392.92626953125 369.0683898925781 387.6045837402344 371.3104248046875 C 382.282958984375 373.5523986816406 377.7627258300781 377.453857421875 374.25469970703125 382.0401916503906 L 374.96490478515625 380.9272766113281" stroke-width="0.6000000238418579" fill="rgb(143, 165, 67)" opacity="1.0"/>
    <path d="M 365.5941467285156 359.80419921875 C 369.8273010253906 373.3053283691406 391.0111999511719 376.4638977050781 399.7790832519531 365.47503662109375 C 408.54693603515625 354.48614501953125 401.6473388671875 335.3180847167969 388.0472717285156 331.3990173339844 C 374.4471740722656 327.4799499511719 358.98236083984375 338.6448059082031 357.38983154296875 352.72161865234375 L 365.5941467285156 359.80419921875" stroke-width="0.6000000238418579" fill="rgb(233, 92, 21)" opacity="1.0"/>
    <path d="M 403.77410888671875 350.57867431640625 C 401.89251708984375 357.1553039550781 400.3269958496094 365.2063903808594 405.22027587890625 370.0196838378906 C 407.24212646484375 371.8594055175781 409.7850341796875 373.0263977050781 412.49822998046875 373.359619140625 C 419.189208984375 374.36474609375 425.9522705078125 372.0644836425781 430.642822265625 367.188232421875 C 434.611083984375 363.0416259765625 436.5751953125 357.4765625 438.348388671875 352.0547790527344 C 439.3394775390625 349.007568359375 440.29547119140625 345.7384338378906 439.44219970703125 342.6679992675781 C 438.2713623046875 338.5846862792969 434.2269287109375 336.05718994140625 430.32806396484375 334.3743591308594 C 424.6251220703125 331.9043884277344 418.5599365234375 330.373779296875 412.36785888671875 329.8419189453125 C 410.2280578613281 329.6622619628906 407.9766540527344 329.6177062988281 406.0392761230469 330.54205322265625 C 404.2818603515625 331.49365234375 402.83929443359375 332.9360656738281 401.8874816894531 334.693359375 C 398.7928771972656 339.9116516113281 398.1431884765625 346.22479248046875 400.11016845703125 351.9639587402344 L 403.77410888671875 350.57867431640625" stroke-width="0.6000000238418579" fill="rgb(70, 150, 179)" opacity="1.0"/>
    <path d="M 390.4755859375 424.411865234375 C 390.1551513671875 431.9117431640625 390.1148681640625 440.2381591796875 395.0908203125 445.852294921875 C 400.4397277832031 451.8798828125 409.94970703125 452.453857421875 417.5064697265625 449.6544189453125 C 420.42047119140625 448.57635498046875 423.27264404296875 446.9888916015625 425.0711669921875 444.4556884765625 C 426.5504150390625 442.37384033203125 427.20233154296875 439.8292236328125 427.6868896484375 437.322265625 C 429.224365234375 429.4185791015625 429.2545166015625 420.634521484375 424.69439697265625 414.00048828125 C 420.0938720703125 407.3175964355469 410.9563903808594 404.115234375 403.19744873046875 406.5112609863281 C 395.43853759765625 408.90728759765625 389.6309814453125 416.639404296875 389.5580139160156 424.76495361328125 L 390.4755859375 424.411865234375" stroke-width="0.6000000238418579" fill="rgb(140, 28, 33)" opacity="1.0"/>
    <path d="M 412.95489501953125 374.7742614746094 C 410.0586853027344 382.5531005859375 407.1307678222656 390.6793518066406 407.7548828125 398.9623718261719 C 408.3789978027344 407.2452392578125 413.65570068359375 415.81494140625 421.78704833984375 417.50421142578125 C 431.8289794921875 419.56707763671875 441.4552001953125 409.76190185546875 442.18963623046875 399.5179138183594 C 442.924072265625 389.2739562988281 437.09002685546875 379.6084289550781 429.87322998046875 372.31915283203125 C 427.86529541015625 369.8388671875 425.00067138671875 368.20147705078125 421.84454345703125 367.7301025390625 C 418.7078857421875 367.5977478027344 415.368896484375 370.7196350097656 416.49542236328125 373.66668701171875 L 412.95489501953125 374.7742614746094" stroke-width="0.6000000238418579" fill="rgb(159, 159, 159)" opacity="1.0"/>
    <path d="M 432.9327392578125 370.94915771484375 C 434.68389892578125 378.26898193359375 438.9810791015625 385.1482849121094 445.41168212890625 389.051513671875 C 451.84228515625 392.9547119140625 460.4656982421875 393.48077392578125 466.8809814453125 389.49200439453125 C 471.41314697265625 386.6661682128906 474.505126953125 381.8649597167969 475.9620361328125 376.72174072265625 C 477.4190673828125 371.5784912109375 477.3629150390625 366.1076354980469 476.59539794921875 360.81646728515625 C 476.260009765625 358.51409912109375 475.7415771484375 356.123291015625 474.2296142578125 354.3627624511719 C 472.4970703125 352.3435363769531 469.78216552734375 351.5225524902344 467.1829833984375 350.91741943359375 C 459.8448486328125 349.20904541015625 451.9654541015625 348.56024169921875 444.9205322265625 351.2340393066406 C 437.8756103515625 353.9078674316406 431.9627685546875 360.5903625488281 432.053466796875 368.1064147949219 L 432.9327392578125 370.94915771484375" stroke-width="0.6000000238418579" fill="rgb(159, 159, 159)" opacity="1.0"/>
    <path d="M 436.189697265625 412.5523681640625 C 432.01336669921875 418.4610595703125 427.6270751953125 425.20989990234375 428.77862548828125 432.33905029296875 C 429.888671875 439.2738037109375 435.8465576171875 444.26153564453125 441.4676513671875 448.47705078125 C 443.753662109375 450.1861572265625 446.17236328125 451.937744140625 448.99334716796875 452.362060546875 C 453.7640380859375 453.08251953125 458.2213134765625 449.8621826171875 461.48797607421875 446.321044921875 C 464.521240234375 443.03546142578125 467.0670166015625 439.331298828125 469.04736328125 435.322021484375 C 472.2652587890625 428.813232421875 473.7484130859375 420.4866943359375 469.43450927734375 414.64959716796875 C 467.1102294921875 411.49493408203125 463.3907470703125 409.5696716308594 459.56890869140625 408.6780700683594 C 455.7470703125 407.78643798828125 451.77252197265625 407.8375549316406 447.8494873046875 407.9439697265625 C 443.926513671875 408.0503845214844 440.073974609375 408.2389831542969 436.62469482421875 409.9058532714844 L 436.189697265625 412.5523681640625" stroke-width="0.6000000238418579" fill="rgb(218, 166, 20)" opacity="1.0"/>
    <path d="M 136.52297973632812 211.81790161132812 C 133.7744140625 224.5806884765625 141.89254760742188 237.15512084960938 154.65533447265625 239.9036865234375 C 155.7482147216797 240.1390380859375 156.85641479492188 240.29656982421875 157.97158813476562 240.3751220703125 C 162.20907592773438 240.6727294921875 166.70428466796875 239.7138671875 169.8857421875 236.90216064453125 C 172.57449340820312 234.52627563476562 174.0732421875 231.09735107421875 175.14559936523438 227.67578125 C 178.00341796875 218.51312255859375 178.35577392578125 208.75241088867188 176.166015625 199.40753173828125 C 175.58306884765625 196.93838500976562 174.7872314453125 194.43991088867188 173.16717529296875 192.48043823242188 C 170.4493408203125 189.18927001953125 165.8306884765625 188.0057373046875 161.5682373046875 188.281005859375 C 155.23973083496094 188.68524169921875 149.265380859375 191.90521240234375 144.92303466796875 196.528564453125 C 140.58071899414062 201.15191650390625 137.78277587890625 207.083740234375 136.30628967285156 213.251708984375 L 136.52297973632812 211.81790161132812" stroke-width="0.6000000238418579" fill="rgb(143, 165, 67)" opacity="1.0"/>
    <path d="M 171.75360107421875 264.09210205078125 C 181.89407348632812 275.1333923339844 203.63247680664062 268.6214599609375 207.09176635742188 254.13394165039062 C 210.55096435546875 239.64642333984375 195.301025390625 224.37139892578125 180.4931640625 226.73828125 C 165.68527221679688 229.10516357421875 155.88275146484375 246.7777099609375 160.695556640625 260.99493408203125 L 171.75360107421875 264.09210205078125" stroke-width="0.6000000238418579" fill="rgb(233, 92, 21)" opacity="1.0"/>
    <path d="M 142.1492156982422 309.1065673828125 C 135.0917205810547 310.5840148925781 126.81460571289062 313.080810546875 124.73091125488281 320.00933837890625 C 124.00898742675781 322.7988586425781 124.17044067382812 325.7436828613281 125.193115234375 328.4375305175781 C 127.54403686523438 335.1708984375 133.0127716064453 340.3470764160156 139.86508178710938 342.3246765136719 C 145.68203735351562 343.9873352050781 151.8367919921875 343.0839538574219 157.76409912109375 342.0729675292969 C 161.0927734375 341.4996337890625 164.611083984375 340.7845153808594 167.05499267578125 338.4798889160156 C 170.28729248046875 335.3813171386719 170.6566162109375 330.36773681640625 170.30978393554688 325.9049377441406 C 169.81036376953125 319.37298583984375 168.25698852539062 312.9649658203125 165.70989990234375 306.92938232421875 C 164.8258056640625 304.8456726074219 163.76092529296875 302.7243347167969 161.94683837890625 301.3719482421875 C 160.19580078125 300.2008056640625 158.14178466796875 299.564453125 156.0352783203125 299.5404968261719 C 149.64834594726562 299.21923828125 143.44198608398438 301.7159423828125 139.05679321289062 306.3706970214844 L 142.1492156982422 309.1065673828125" stroke-width="0.6000000238418579" fill="rgb(70, 150, 179)" opacity="1.0"/>
    <path d="M 122.65657043457031 301.3026123046875 C 123.60586547851562 293.4862976074219 124.32991027832031 284.7826843261719 119.58636474609375 278.5045166015625 C 114.48667907714844 271.763427734375 104.58917236328125 270.3844299316406 96.4578857421875 272.6928405761719 C 93.32243347167969 273.58154296875 90.20991516113281 275.0079650878906 88.12176513671875 277.5096130371094 C 86.4044189453125 279.5654602050781 85.51431274414062 282.1729736328125 84.80232238769531 284.7547607421875 C 82.54727172851562 292.8936767578125 81.79634094238281 302.07666015625 86.02151489257812 309.38726806640625 C 90.28494262695312 316.7523193359375 99.57768249511719 320.8493347167969 107.88737487792969 318.979248046875 C 116.19708251953125 317.10919189453125 122.90322875976562 309.4993591308594 123.64498901367188 301.008544921875 L 122.65657043457031 301.3026123046875" stroke-width="0.6000000238418579" fill="rgb(140, 28, 33)" opacity="1.0"/>
    <path d="M 145.57594299316406 260.302734375 C 138.10040283203125 264.65252685546875 130.36964416503906 269.2611389160156 125.39581298828125 276.3444519042969 C 120.422119140625 283.4277038574219 119.00567626953125 293.8180236816406 124.43734741210938 300.5546569824219 C 131.1607208251953 308.8553161621094 145.39599609375 307.3232727050781 152.76040649414062 299.5589294433594 C 160.12481689453125 291.7945861816406 161.81689453125 280.1531982421875 160.82427978515625 269.5113220214844 C 160.84707641601562 266.186279296875 159.62265014648438 262.9736328125 157.39251708984375 260.5072937011719 C 154.95394897460938 258.3268127441406 150.20082092285156 258.6333923339844 149.15957641601562 261.7516174316406 L 145.57594299316406 260.302734375" stroke-width="0.6000000238418579" fill="rgb(159, 159, 159)" opacity="1.0"/>
    <path d="M 159.19171142578125 287.0477294921875 C 159.10845947265625 294.97967529296875 161.74099731445312 303.1129455566406 167.31646728515625 308.7495422363281 C 172.89190673828125 314.38616943359375 181.57373046875 317.13128662109375 189.1536865234375 314.6953430175781 C 194.5106201171875 312.96630859375 198.9007568359375 308.84906005859375 201.70684814453125 303.963623046875 C 204.51290893554688 299.07818603515625 205.85589599609375 293.470458984375 206.42556762695312 287.8643798828125 C 206.6719970703125 285.4245910644531 206.75393676757812 282.8475646972656 205.65875244140625 280.6606140136719 C 204.404296875 278.1527099609375 201.83868408203125 276.618408203125 199.336181640625 275.33441162109375 C 192.2711181640625 271.7095031738281 184.38137817382812 269.029296875 176.49432373046875 269.9596862792969 C 168.60723876953125 270.8901062011719 160.8515625 276.208740234375 159.02044677734375 283.9162902832031 L 159.19171142578125 287.0477294921875" stroke-width="0.6000000238418579" fill="rgb(159, 159, 159)" opacity="1.0"/>
    <path d="M 127.70013427734375 350.1071472167969 C 128.12522888183594 342.2901611328125 128.2591094970703 333.58282470703125 123.10076904296875 327.71441650390625 C 118.09230041503906 322.0003356933594 109.76336669921875 320.86016845703125 102.18740844726562 320.233642578125 C 99.10940551757812 319.983642578125 95.8853759765625 319.7712097167969 93.05679321289062 321.00616455078125 C 88.27156066894531 323.0920715332031 86.04170227050781 328.6077575683594 85.0872802734375 333.73211669921875 C 84.1995849609375 338.4880065917969 83.9993896484375 343.3467712402344 84.49282836914062 348.15960693359375 C 85.29119873046875 355.974609375 88.72500610351562 364.45635986328125 96.03678894042969 367.32086181640625 C 99.98190307617188 368.873046875 104.49746704101562 368.4960021972656 108.51194763183594 367.1130676269531 C 112.52642822265625 365.7301025390625 116.13815307617188 363.3955993652344 119.67086791992188 361.04010009765625 C 123.20358276367188 358.6846008300781 126.62437438964844 356.2944030761719 128.82493591308594 352.7820129394531 L 127.70013427734375 350.1071472167969" stroke-width="0.6000000238418579" fill="rgb(218, 166, 20)" opacity="1.0"/>
    <path d="M 150.69998168945312 342.1936950683594 C 138.3886260986328 342.0428466796875 128.2860107421875 351.9009094238281 128.13516235351562 364.2122802734375 C 128.12225341796875 365.2665100097656 128.18414306640625 366.3203125 128.3203582763672 367.36578369140625 C 128.83868408203125 371.3382568359375 130.56661987304688 375.31365966796875 133.76123046875 377.72784423828125 C 136.460693359375 379.7682189941406 139.9106903076172 380.5115051269531 143.27406311035156 380.8620300292969 C 152.2782440185547 381.7879638671875 161.36614990234375 380.2860412597656 169.59365844726562 376.5123596191406 C 171.76675415039062 375.5111999511719 173.92709350585938 374.3077697753906 175.4349365234375 372.4434509277344 C 177.96807861328125 369.31512451171875 178.19723510742188 364.824462890625 177.14471435546875 360.9361877441406 C 175.586181640625 355.16241455078125 171.49127197265625 350.2431640625 166.40481567382812 347.0951843261719 C 161.318359375 343.94720458984375 155.3116912841797 342.4717102050781 149.33412170410156 342.2618713378906 L 150.69998168945312 342.1936950683594" stroke-width="0.6000000238418579" fill="rgb(143, 165, 67)" opacity="1.0"/>
    <path d="M 138.73619079589844 378.1680603027344 C 135.619384765625 363.9550476074219 114.20382690429688 358.8056945800781 104.22927856445312 369.27069091796875 C 94.25477600097656 379.7357177734375 99.59117126464844 399.99481201171875 113.16911315917969 405.2381286621094 C 126.7470703125 410.4814147949219 143.597900390625 400.44110107421875 146.5009307861328 386.16461181640625 L 138.73619079589844 378.1680603027344" stroke-width="0.6000000238418579" fill="rgb(233, 92, 21)" opacity="1.0"/>
    <path d="M 176.00469970703125 349.7623596191406 C 175.60159301757812 357.0843200683594 175.87945556640625 365.8724060058594 182.13885498046875 369.7403259277344 C 184.68972778320312 371.1826477050781 187.62533569335938 371.79791259765625 190.54067993164062 371.5010986328125 C 197.77374267578125 370.96087646484375 204.29632568359375 366.9483337402344 208.03994750976562 360.73590087890625 C 211.20208740234375 355.4579162597656 211.9320068359375 349.1737060546875 212.49639892578125 343.0846862792969 C 212.807861328125 339.6637268066406 213.02987670898438 336.0191955566406 211.40789794921875 333.01251220703125 C 209.21310424804688 329.0226135253906 204.384521484375 327.34222412109375 199.90884399414062 326.51019287109375 C 193.3602294921875 325.2843017578125 186.6563720703125 325.12646484375 180.05728149414062 326.0427551269531 C 177.77780151367188 326.3637390136719 175.413818359375 326.8525085449219 173.60842895507812 328.27935791015625 C 171.99765014648438 329.6919250488281 170.83267211914062 331.5426940917969 170.25555419921875 333.6059265136719 C 168.26153564453125 339.7964172363281 169.08346557617188 346.5500793457031 172.504150390625 352.0815734863281 L 176.00469970703125 349.7623596191406" stroke-width="0.6000000238418579" fill="rgb(70, 150, 179)" opacity="1.0"/>
  </g>
</svg>
