<?xml version="1.0" ?>
<svg xmlns="http://www.w3.org/2000/svg" version="1.1" width="600" height="600">
  <defs/>
  <g>
    <path d="M 353.6767578125 343.76763916015625 C 357.3189392089844 347.1251525878906 364.29852294921875 344.38427734375 365.0400390625 339.5187072753906 C 365.78155517578125 334.65313720703125 360.3406677246094 330.04168701171875 355.5295104980469 331.22747802734375 C 350.7183532714844 332.4132385253906 347.9754333496094 338.501708984375 349.950439453125 343.0512390136719 L 353.6767578125 343.76763916015625" stroke-width="0.6000000238418579" fill="rgb(233, 92, 21)" opacity="1.0"/>
    <path d="M 122.65283203125 208.766357421875 C 126.70997619628906 208.92764282226562 131.57305908203125 208.69952392578125 133.66156005859375 205.20135498046875 C 134.4385223388672 203.77691650390625 134.75433349609375 202.14642333984375 134.56536865234375 200.534912109375 C 134.2051239013672 196.53494262695312 131.92848205566406 192.95773315429688 128.45738220214844 190.9376220703125 C 125.508544921875 189.2315673828125 122.023193359375 188.88058471679688 118.64730834960938 188.61956787109375 C 116.75070190429688 188.47607421875 114.73106384277344 188.38397216796875 113.08016967773438 189.307373046875 C 110.88973999023438 190.55621337890625 110.000244140625 193.24371337890625 109.57742309570312 195.72866821289062 C 108.9541015625 199.3646240234375 108.92337036132812 203.07745361328125 109.48646545410156 206.72320556640625 C 109.68344116210938 207.9825439453125 109.97402954101562 209.28717041015625 110.77925109863281 210.274658203125 C 111.57492065429688 211.15447998046875 112.60943603515625 211.7838134765625 113.75660705566406 212.08587646484375 C 117.20077514648438 213.13754272460938 120.93289184570312 212.62539672851562 123.9664306640625 210.684814453125 L 122.65283203125 208.766357421875" stroke-width="0.6000000238418579" fill="rgb(70, 150, 179)" opacity="1.0"/>
    <path d="M 458.9298095703125 404.7898864746094 C 461.1348876953125 407.21417236328125 463.680908203125 409.8087158203125 466.9490966796875 410.020751953125 C 470.4600830078125 410.2464294433594 473.5855712890625 407.5022277832031 475.06884765625 404.3121032714844 C 475.64129638671875 403.0823974609375 476.0379638671875 401.71368408203125 475.8173828125 400.3754577636719 C 475.63641357421875 399.2752990722656 475.056640625 398.2858581542969 474.4366455078125 397.3595275878906 C 472.48486328125 394.43603515625 469.7950439453125 391.70269775390625 466.3424072265625 391.0466003417969 C 462.86224365234375 390.3877258300781 459.0445556640625 392.2023620605469 457.3746337890625 395.32952880859375 C 455.7047119140625 398.4566955566406 456.279541015625 402.6390686035156 458.75372314453125 405.18133544921875 L 458.9298095703125 404.7898864746094" stroke-width="0.6000000238418579" fill="rgb(140, 28, 33)" opacity="1.0"/>
    <path d="M 87.44015502929688 209.40606689453125 C 92.10777282714844 209.64337158203125 96.96730041503906 209.8388671875 101.30926513671875 208.1004638671875 C 105.65113830566406 206.36212158203125 109.35882568359375 202.076904296875 108.88833618164062 197.42446899414062 C 108.29476928710938 191.68283081054688 101.39892578125 188.17501831054688 95.77386474609375 189.51611328125 C 90.1488037109375 190.85720825195312 85.94711303710938 195.62738037109375 83.25564575195312 200.7374267578125 C 82.26400756835938 202.23580932617188 81.87008666992188 204.0513916015625 82.15167236328125 205.82598876953125 C 82.61198425292969 207.53271484375 84.85400390625 208.7967529296875 86.24560546875 207.69256591796875 L 87.44015502929688 209.40606689453125" stroke-width="0.6000000238418579" fill="rgb(159, 159, 159)" opacity="1.0"/>
    <path d="M 383.2720031738281 311.50689697265625 C 387.6596374511719 310.6497802734375 391.84918212890625 308.2707214355469 394.32562255859375 304.551513671875 C 396.8020324707031 300.83233642578125 397.32879638671875 295.72772216796875 395.1212463378906 291.8211975097656 C 393.5569763183594 289.0612487792969 390.7845764160156 287.1067810058594 387.7685241699219 286.1141662597656 C 384.75244140625 285.12152099609375 381.5042724609375 285.0186767578125 378.3450622558594 285.342529296875 C 376.9703369140625 285.4842834472656 375.53857421875 285.7324523925781 374.4561462402344 286.5859375 C 373.2147216796875 287.56390380859375 372.659912109375 289.1546936035156 372.2361145019531 290.6821594238281 C 371.0396728515625 294.9945373535156 370.45855712890625 299.654541015625 371.87005615234375 303.9020080566406 C 373.2815856933594 308.1494445800781 377.10028076171875 311.82476806640625 381.56304931640625 311.95794677734375 L 383.2720031738281 311.50689697265625" stroke-width="0.6000000238418579" fill="rgb(159, 159, 159)" opacity="1.0"/>
    <path d="M 105.093505859375 419.1015625 C 108.16947937011719 417.12451171875 111.50291442871094 414.793701171875 112.31401062011719 411.2356262207031 C 113.10768127441406 407.7764892578125 111.26138305664062 404.31109619140625 109.42657470703125 401.27130126953125 C 108.67938232421875 400.0375061035156 107.87803649902344 398.7586975097656 106.63682556152344 398.0255126953125 C 104.53826904296875 396.7841796875 101.84002685546875 397.448486328125 99.6387939453125 398.4886169433594 C 97.59529113769531 399.4532775878906 95.70089721679688 400.70635986328125 94.01359558105469 402.2095031738281 C 91.27299499511719 404.6492004394531 89.00074768066406 408.2691345214844 89.91596984863281 411.82098388671875 C 90.40725708007812 413.7392578125 91.78504943847656 415.3458251953125 93.40663146972656 416.487548828125 C 95.02822875976562 417.6292724609375 96.89993286132812 418.3582763671875 98.75799560546875 419.0516357421875 C 100.61605834960938 419.7449951171875 102.45663452148438 420.386474609375 104.38838195800781 420.259033203125 L 105.093505859375 419.1015625" stroke-width="0.6000000238418579" fill="rgb(218, 166, 20)" opacity="1.0"/>
    <path d="M 100.01748657226562 155.22177124023438 C 107.91647338867188 157.64682006835938 116.28575134277344 153.20933532714844 118.71080017089844 145.3103485107422 C 118.91845703125 144.63397216796875 119.07786560058594 143.94369506835938 119.18783569335938 143.24473571777344 C 119.605224609375 140.5887908935547 119.24427795410156 137.7022247314453 117.64370727539062 135.54364013671875 C 116.29129028320312 133.7193603515625 114.2103271484375 132.58840942382812 112.11087036132812 131.72671508789062 C 106.48800659179688 129.42791748046875 100.3521728515625 128.67662048339844 94.34075927734375 129.55084228515625 C 92.75215148925781 129.7845916748047 91.13351440429688 130.1510009765625 89.81008911132812 131.0663604736328 C 87.58740234375 132.60174560546875 86.59072875976562 135.45004272460938 86.53323364257812 138.1527862548828 C 86.445068359375 142.1653289794922 88.15167236328125 146.10720825195312 90.83169555664062 149.0960235595703 C 93.51168823242188 152.0848388671875 97.10049438476562 154.1707305908203 100.90988159179688 155.43614196777344 L 100.01748657226562 155.22177124023438" stroke-width="0.6000000238418579" fill="rgb(143, 165, 67)" opacity="1.0"/>
    <path d="M 460.7264404296875 344.49517822265625 C 463.971923828125 351.58209228515625 475.76806640625 351.84637451171875 479.8017578125 345.2352294921875 C 483.83538818359375 338.62408447265625 478.741455078125 328.6239318847656 471.037841796875 327.42059326171875 C 463.33416748046875 326.2172546386719 455.65240478515625 333.38677978515625 455.7535400390625 341.1904296875 L 460.7264404296875 344.49517822265625" stroke-width="0.6000000238418579" fill="rgb(233, 92, 21)" opacity="1.0"/>
    <path d="M 107.14187622070312 227.999755859375 C 109.86648559570312 224.47406005859375 112.75546264648438 219.97994995117188 110.95538330078125 215.88735961914062 C 110.1756591796875 214.28656005859375 108.91839599609375 212.96713256835938 107.35702514648438 212.11114501953125 C 103.55078125 209.88931274414062 98.90373229980469 209.650146484375 94.88951110839844 211.46954345703125 C 91.48829650878906 213.02157592773438 88.95770263671875 215.915283203125 86.57720947265625 218.768310546875 C 85.24258422851562 220.3731689453125 83.87571716308594 222.1207275390625 83.65151977539062 224.18441772460938 C 83.375244140625 226.93759155273438 85.21292114257812 229.44232177734375 87.16627502441406 231.40087890625 C 90.02142333984375 234.27081298828125 93.322265625 236.65972900390625 96.94078063964844 238.47488403320312 C 98.19224548339844 239.09967041015625 99.54380798339844 239.6695556640625 100.93902587890625 239.5775146484375 C 102.23191833496094 239.425537109375 103.45268249511719 238.900634765625 104.45242309570312 238.06683349609375 C 107.58343505859375 235.6556396484375 109.49908447265625 231.99224853515625 109.6929931640625 228.045166015625 L 107.14187622070312 227.999755859375" stroke-width="0.6000000238418579" fill="rgb(70, 150, 179)" opacity="1.0"/>
    <path d="M 108.8504638671875 82.81871032714844 C 109.2728271484375 87.27377319335938 109.92802429199219 92.19410705566406 113.32431030273438 95.10366821289062 C 116.97454833984375 98.22698974609375 122.63731384277344 97.7904052734375 126.87153625488281 95.52105712890625 C 128.50445556640625 94.64677429199219 130.05929565429688 93.47674560546875 130.91481018066406 91.83413696289062 C 131.6186065673828 90.48410034179688 131.79608154296875 88.92825317382812 131.87777709960938 87.4083251953125 C 132.14122009277344 82.61553955078125 131.44271850585938 77.42578125 128.20883178710938 73.88003540039062 C 124.94709777832031 70.30870056152344 119.28996276855469 69.16273498535156 114.9034423828125 71.21038818359375 C 110.51690673828125 73.25802612304688 107.71788024902344 78.29769897460938 108.33740234375 83.10205078125 L 108.8504638671875 82.81871032714844" stroke-width="0.6000000238418579" fill="rgb(140, 28, 33)" opacity="1.0"/>
    <path d="M 93.21640014648438 401.3966064453125 C 95.5496826171875 398.42901611328125 97.94486999511719 395.3153381347656 98.82330322265625 391.6411437988281 C 99.70170593261719 387.96697998046875 98.60472106933594 383.5233459472656 95.31704711914062 381.6639404296875 C 91.25364685058594 379.3777770996094 85.72434997558594 382.2896728515625 83.98553466796875 386.62481689453125 C 82.2467041015625 390.9599304199219 83.43313598632812 395.95550537109375 85.54801940917969 400.1136169433594 C 86.07374572753906 401.4664001464844 87.08743286132812 402.5728759765625 88.38906860351562 403.2147521972656 C 89.72930908203125 403.7071228027344 91.60850524902344 402.8180236816406 91.52928161621094 401.38531494140625 L 93.21640014648438 401.3966064453125" stroke-width="0.6000000238418579" fill="rgb(159, 159, 159)" opacity="1.0"/>
    <path d="M 477.7333984375 68.11378479003906 C 479.21728515625 64.34902954101562 479.44366455078125 59.993865966796875 477.81298828125 56.29261779785156 C 476.182373046875 52.59136962890625 472.544921875 49.70243835449219 468.4892578125 49.483154296875 C 465.62158203125 49.33174133300781 462.7799072265625 50.49444580078125 460.5531005859375 52.3116455078125 C 458.326416015625 54.12884521484375 456.6654052734375 56.556640625 455.3731689453125 59.12445068359375 C 454.8115234375 60.24224853515625 454.30322265625 61.45538330078125 454.427001953125 62.696990966796875 C 454.568115234375 64.12051391601562 455.5113525390625 65.31878662109375 456.47015380859375 66.38632202148438 C 459.17694091796875 69.40013122558594 462.44873046875 72.11390686035156 466.376708984375 73.1065673828125 C 470.3045654296875 74.0992431640625 474.96893310546875 72.976806640625 477.244873046875 69.63723754882812 L 477.7333984375 68.11378479003906" stroke-width="0.6000000238418579" fill="rgb(159, 159, 159)" opacity="1.0"/>
    <path d="M 88.91171264648438 112.44223022460938 C 93.41738891601562 114.16165161132812 98.5001220703125 115.87767028808594 102.9127197265625 113.95527648925781 C 107.20660400390625 112.09178161621094 109.4417724609375 107.42027282714844 111.23403930664062 103.0938720703125 C 111.95953369140625 101.33526611328125 112.69047546386719 99.48393249511719 112.49795532226562 97.59237670898438 C 112.17422485351562 94.39299011230469 109.35794067382812 92.04763793945312 106.53138732910156 90.52407836914062 C 103.90840148925781 89.10894775390625 101.09580993652344 88.07778930664062 98.17970275878906 87.46214294433594 C 93.44512939453125 86.4608154296875 87.82377624511719 86.88008117675781 84.76837158203125 90.63064575195312 C 83.11589050292969 92.65301513671875 82.48788452148438 95.37286376953125 82.544189453125 97.9879150390625 C 82.60052490234375 100.60296630859375 83.290771484375 103.16070556640625 84.00819396972656 105.67605590820312 C 84.72561645507812 108.19137573242188 85.48443603515625 110.6475830078125 87.13107299804688 112.59902954101562 L 88.91171264648438 112.44223022460938" stroke-width="0.6000000238418579" fill="rgb(218, 166, 20)" opacity="1.0"/>
    <path d="M 130.46340942382812 138.32391357421875 C 137.00634765625 137.46267700195312 141.6122589111328 131.4604034423828 140.7510223388672 124.91746520996094 C 140.67727661132812 124.35719299316406 140.56387329101562 123.8028564453125 140.4116668701172 123.25863647460938 C 139.83297729492188 121.1907958984375 138.61233520507812 119.2138671875 136.73297119140625 118.1773681640625 C 135.1448516845703 117.30128479003906 133.2577362060547 117.17074584960938 131.4466094970703 117.24191284179688 C 126.59893798828125 117.43911743164062 121.89248657226562 118.93072509765625 117.81613159179688 121.561767578125 C 116.73980712890625 122.259033203125 115.68572998046875 123.06265258789062 115.02833557128906 124.16697692871094 C 113.92361450195312 126.02029418945312 114.1453857421875 128.42018127441406 115.00103759765625 130.4025115966797 C 116.26931762695312 133.34645080566406 118.81784057617188 135.64312744140625 121.7569580078125 136.92430114746094 C 124.69610595703125 138.20547485351562 127.99554443359375 138.5290069580078 131.1828155517578 138.18331909179688 L 130.46340942382812 138.32391357421875" stroke-width="0.6000000238418579" fill="rgb(143, 165, 67)" opacity="1.0"/>
    <path d="M 401.88018798828125 309.99798583984375 C 404.60626220703125 318.6239013671875 418.15496826171875 320.6126708984375 423.744873046875 313.5741271972656 C 429.334716796875 306.53558349609375 424.8956298828125 294.2903137207031 416.194580078125 291.8043212890625 C 407.49359130859375 289.318359375 397.6221923828125 296.4791259765625 396.6244201660156 305.4815673828125 L 401.88018798828125 309.99798583984375" stroke-width="0.6000000238418579" fill="rgb(233, 92, 21)" opacity="1.0"/>
    <path d="M 124.63121032714844 115.73574829101562 C 128.6724395751953 115.72653198242188 133.49880981445312 115.29640197753906 135.42942810058594 111.73046875 C 136.14251708984375 110.281494140625 136.38839721679688 108.64692687988281 136.1331329345703 107.05227661132812 C 135.60769653320312 103.08973693847656 133.19424438476562 99.62765502929688 129.6580810546875 97.76394653320312 C 126.65438842773438 96.19065856933594 123.173828125 95.98733520507812 119.80589294433594 95.86892700195312 C 117.91387939453125 95.80548095703125 115.90167236328125 95.79832458496094 114.298583984375 96.78558349609375 C 112.172607421875 98.11903381347656 111.40042114257812 100.82870483398438 111.08383178710938 103.31744384765625 C 110.615966796875 106.95912170410156 110.74063110351562 110.65252685546875 111.45297241210938 114.25439453125 C 111.70150756835938 115.4984130859375 112.04498291015625 116.78366088867188 112.88699340820312 117.73193359375 C 113.71499633789062 118.5736083984375 114.77003479003906 119.15618896484375 115.92343139648438 119.40861511230469 C 119.39231872558594 120.3104248046875 123.08218383789062 119.64511108398438 126.01766967773438 117.58856201171875 L 124.63121032714844 115.73574829101562" stroke-width="0.6000000238418579" fill="rgb(70, 150, 179)" opacity="1.0"/>
    <path d="M 417.9822998046875 64.838623046875 C 419.3251953125 67.96478271484375 420.945068359375 71.37353515625 424.0806884765625 72.68867492675781 C 427.4498291015625 74.09942626953125 431.4468994140625 72.46499633789062 433.983154296875 69.83660888671875 C 434.96148681640625 68.82363891601562 435.814453125 67.61474609375 436.05126953125 66.2266845703125 C 436.246337890625 65.08566284179688 436.01251220703125 63.918243408203125 435.7177734375 62.79911804199219 C 434.79254150390625 59.268829345703125 433.07861328125 55.6751708984375 429.9124755859375 53.861724853515625 C 426.72015380859375 52.03627014160156 422.3587646484375 52.52397155761719 419.66058349609375 55.02734375 C 416.96240234375 57.53070068359375 416.10986328125 61.83006286621094 417.6768798828125 65.16314697265625 L 417.9822998046875 64.838623046875" stroke-width="0.6000000238418579" fill="rgb(140, 28, 33)" opacity="1.0"/>
    <path d="M 121.81509399414062 425.2467041015625 C 123.81857299804688 422.466552734375 125.87265014648438 419.5516357421875 126.52980041503906 416.1859130859375 C 127.18692016601562 412.8201904296875 126.02322387695312 408.8316955566406 122.9708251953125 407.2701416015625 C 119.19863891601562 405.35101318359375 114.29438781738281 408.2019958496094 112.88200378417969 412.1998291015625 C 111.4696044921875 416.19769287109375 112.73538208007812 420.68341064453125 114.81144714355469 424.37432861328125 C 115.33963012695312 425.58123779296875 116.301025390625 426.5462646484375 117.50595092773438 427.0789794921875 C 118.74018859863281 427.47467041015625 120.4107666015625 426.596923828125 120.28451538085938 425.300537109375 L 121.81509399414062 425.2467041015625" stroke-width="0.6000000238418579" fill="rgb(159, 159, 159)" opacity="1.0"/>
    <path d="M 476.467041015625 446.85205078125 C 477.0511474609375 444.6619873046875 476.897705078125 442.22412109375 475.7528076171875 440.269287109375 C 474.6080322265625 438.314453125 472.398681640625 436.94036865234375 470.1279296875 437.07855224609375 C 468.5225830078125 437.1783447265625 467.0159912109375 438.00762939453125 465.8935546875 439.16162109375 C 464.7711181640625 440.315673828125 464.002685546875 441.7730712890625 463.4483642578125 443.2847900390625 C 463.20758056640625 443.94287109375 463.00262451171875 444.6505126953125 463.151123046875 445.3333740234375 C 463.321044921875 446.116455078125 463.9227294921875 446.72265625 464.52471923828125 447.255126953125 C 466.2242431640625 448.7584228515625 468.2188720703125 450.05853271484375 470.46820068359375 450.35882568359375 C 472.717529296875 450.6591796875 475.2408447265625 449.7353515625 476.29296875 447.7310791015625 L 476.467041015625 446.85205078125" stroke-width="0.6000000238418579" fill="rgb(159, 159, 159)" opacity="1.0"/>
    <path d="M 455.86328125 298.2797546386719 C 455.0457763671875 293.79681396484375 453.9429931640625 288.8492431640625 450.2283935546875 286.2252502441406 C 446.6195068359375 283.6683044433594 441.7498779296875 284.1502380371094 437.37615966796875 284.8210144042969 C 435.59979248046875 285.09613037109375 433.745849609375 285.4122619628906 432.3116455078125 286.4942932128906 C 429.885009765625 288.3229064941406 429.36920166015625 291.747314453125 429.52252197265625 294.7774963378906 C 429.6636962890625 297.5901184082031 430.20806884765625 300.36785888671875 431.138916015625 303.0257568359375 C 432.648681640625 307.3419494628906 435.74072265625 311.67889404296875 440.26788330078125 312.3108215332031 C 442.71142578125 312.6555480957031 445.216796875 311.83087158203125 447.30224609375 310.5045471191406 C 449.38775634765625 309.17822265625 451.116455078125 307.3677062988281 452.797607421875 305.5559997558594 C 454.4786376953125 303.74432373046875 456.09173583984375 301.9281311035156 456.862060546875 299.6418151855469 L 455.86328125 298.2797546386719" stroke-width="0.6000000238418579" fill="rgb(218, 166, 20)" opacity="1.0"/>
    <path d="M 426.6077880859375 372.3241882324219 C 424.84716796875 373.62725830078125 424.4761962890625 376.1108703613281 425.779296875 377.87152099609375 C 425.890869140625 378.02227783203125 426.012939453125 378.1649475097656 426.144775390625 378.29840087890625 C 426.6455078125 378.8055114746094 427.31805419921875 379.18292236328125 428.0303955078125 379.1813049316406 C 428.63238525390625 379.1800231933594 429.201171875 378.9141845703125 429.7154541015625 378.6020202636719 C 431.09088134765625 377.7645568847656 432.21697998046875 376.5740966796875 432.976806640625 375.154296875 C 433.177001953125 374.7786865234375 433.3536376953125 374.3757629394531 433.36669921875 373.94940185546875 C 433.38916015625 373.2336120605469 432.9384765625 372.5726623535156 432.37109375 372.1349792480469 C 431.529052734375 371.4845275878906 430.419677734375 371.2280578613281 429.3603515625 371.3291931152344 C 428.30096435546875 371.4303283691406 427.2911376953125 371.8674621582031 426.421630859375 372.48077392578125 L 426.6077880859375 372.3241882324219" stroke-width="0.6000000238418579" fill="rgb(143, 165, 67)" opacity="1.0"/>
    <path d="M 452.611572265625 346.2701416015625 C 458.786376953125 343.2629089355469 458.7720947265625 332.86639404296875 452.86407470703125 329.4516296386719 C 446.95599365234375 326.0368957519531 438.25372314453125 330.7333984375 437.35498046875 337.5445861816406 C 436.456298828125 344.35577392578125 442.9326171875 350.9723815917969 449.8045654296875 350.7198791503906 L 452.611572265625 346.2701416015625" stroke-width="0.6000000238418579" fill="rgb(233, 92, 21)" opacity="1.0"/>
    <path d="M 448.87255859375 68.47970581054688 C 452.4542236328125 67.72943115234375 456.6549072265625 66.46171569824219 457.71197509765625 62.945220947265625 C 458.07818603515625 61.52943420410156 457.99603271484375 60.034881591796875 457.476806640625 58.66777038574219 C 456.28326416015625 55.2506103515625 453.5074462890625 52.623931884765625 450.0296630859375 51.620697021484375 C 447.0772705078125 50.777252197265625 443.9537353515625 51.23612976074219 440.945556640625 51.749603271484375 C 439.2562255859375 52.040802001953125 437.47064208984375 52.403961181640625 436.23046875 53.573760986328125 C 434.5902099609375 55.146575927734375 434.403076171875 57.69108581542969 434.579345703125 59.956024169921875 C 434.833251953125 63.271087646484375 435.6220703125 66.523193359375 436.9151611328125 69.58621215820312 C 437.36395263671875 70.6436767578125 437.904541015625 71.72021484375 438.8253173828125 72.40646362304688 C 439.714111328125 73.000732421875 440.756591796875 73.32356262207031 441.82568359375 73.33558654785156 C 445.06719970703125 73.49821472167969 448.2169189453125 72.23068237304688 450.442138671875 69.86802673339844 L 448.87255859375 68.47970581054688" stroke-width="0.6000000238418579" fill="rgb(70, 150, 179)" opacity="1.0"/>
    <path d="M 456.22796630859375 400.5795593261719 C 456.6280517578125 397.4300537109375 456.939208984375 393.92230224609375 455.04046630859375 391.3804016113281 C 452.9991455078125 388.65106201171875 449.011474609375 388.0731201171875 445.727783203125 388.98590087890625 C 444.4615478515625 389.3373107910156 443.203369140625 389.90557861328125 442.35589599609375 390.9096374511719 C 441.65887451171875 391.7347717285156 441.294189453125 392.7841796875 441.00146484375 393.8235778808594 C 440.07415771484375 397.10028076171875 439.7510986328125 400.80126953125 441.43853759765625 403.7583312988281 C 443.14129638671875 406.7373962402344 446.879150390625 408.409912109375 450.2337646484375 407.67425537109375 C 453.5885009765625 406.9385986328125 456.309326171875 403.8851013183594 456.627197265625 400.4631652832031 L 456.22796630859375 400.5795593261719" stroke-width="0.6000000238418579" fill="rgb(140, 28, 33)" opacity="1.0"/>
    <path d="M 123.15139770507812 214.57000732421875 C 118.37936401367188 218.82339477539062 113.46066284179688 223.3018798828125 110.90379333496094 229.165771484375 C 108.34698486328125 235.02957153320312 108.85447692871094 242.76348876953125 113.78231811523438 246.84075927734375 C 119.87646484375 251.860107421875 129.9598846435547 248.64990234375 134.14756774902344 241.94000244140625 C 138.33526611328125 235.23013305664062 137.84278869628906 226.54949951171875 135.5535125732422 218.9888916015625 C 135.07933044433594 216.57745361328125 133.71847534179688 214.43145751953125 131.7394256591797 212.97439575195312 C 129.65158081054688 211.755126953125 126.25448608398438 212.67855834960938 125.9605712890625 215.09051513671875 L 123.15139770507812 214.57000732421875" stroke-width="0.6000000238418579" fill="rgb(159, 159, 159)" opacity="1.0"/>
    <path d="M 107.82638549804688 239.84613037109375 C 102.33787536621094 238.44384765625 96.24934387207031 238.89144897460938 91.39398193359375 241.80386352539062 C 86.53860473632812 244.71624755859375 83.16256713867188 250.27377319335938 83.56759643554688 255.94512939453125 C 83.85903930664062 259.9544677734375 85.97113037109375 263.69793701171875 88.8846435546875 266.47271728515625 C 91.79815673828125 269.24749755859375 95.46075439453125 271.1297607421875 99.2532958984375 272.4752197265625 C 100.90406799316406 273.05975341796875 102.67793273925781 273.55340576171875 104.3807373046875 273.16436767578125 C 106.33319091796875 272.7192077636719 107.83245849609375 271.199462890625 109.14739990234375 269.6810607910156 C 112.85971069335938 265.3942565917969 116.05644226074219 260.375244140625 116.7479248046875 254.74603271484375 C 117.43939208984375 249.1168212890625 115.06436157226562 242.83489990234375 110.02780151367188 240.25811767578125 L 107.82638549804688 239.84613037109375" stroke-width="0.6000000238418579" fill="rgb(159, 159, 159)" opacity="1.0"/>
    <path d="M 287.02789306640625 88.20172119140625 C 285.63690185546875 93.92793273925781 284.3387756347656 100.35313415527344 287.3479919433594 105.40620422363281 C 290.26751708984375 110.324462890625 296.27410888671875 112.31510925292969 301.7942199707031 113.82199096679688 C 304.03759765625 114.43084716796875 306.3941955566406 115.03202819824219 308.657470703125 114.50762939453125 C 312.48590087890625 113.62297058105469 314.89556884765625 109.84828186035156 316.3074951171875 106.18757629394531 C 317.61932373046875 102.79032897949219 318.4365234375 99.22232055664062 318.734130859375 95.59274291992188 C 319.219482421875 89.69953918457031 317.8463134765625 82.94998168945312 312.82989501953125 79.82333374023438 C 310.1241760253906 78.13140869140625 306.7306213378906 77.78863525390625 303.5693664550781 78.25924682617188 C 300.40814208984375 78.7298583984375 297.41387939453125 79.9600830078125 294.4752502441406 81.21675109863281 C 291.5365905761719 82.473388671875 288.6759948730469 83.77114868164062 286.5638427734375 86.0673828125 L 287.02789306640625 88.20172119140625" stroke-width="0.6000000238418579" fill="rgb(218, 166, 20)" opacity="1.0"/>
    <path d="M 227.9736328125 122.19636535644531 C 221.42315673828125 114.60145568847656 209.9560546875 113.7547607421875 202.36114501953125 120.30523681640625 C 201.71075439453125 120.86614990234375 201.10104370117188 121.47250366210938 200.5364990234375 122.11972045898438 C 198.39178466796875 124.57937622070312 196.89788818359375 127.77882385253906 197.148193359375 131.031005859375 C 197.35943603515625 133.77935791015625 198.76727294921875 136.285888671875 200.36801147460938 138.5276641845703 C 204.66107177734375 144.52243041992188 210.48101806640625 149.2583465576172 217.22320556640625 152.24346923828125 C 219.00665283203125 153.02952575683594 220.90670776367188 153.69866943359375 222.8580322265625 153.6129913330078 C 226.13397216796875 153.47109985351562 228.99822998046875 151.1880340576172 230.8033447265625 148.4477996826172 C 233.48611450195312 144.38140869140625 234.2789306640625 139.22817993164062 233.45574951171875 134.42547607421875 C 232.632568359375 129.62278747558594 230.29217529296875 125.16085815429688 227.195068359375 121.39956665039062 L 227.9736328125 122.19636535644531" stroke-width="0.6000000238418579" fill="rgb(143, 165, 67)" opacity="1.0"/>
    <path d="M 206.37603759765625 90.81967163085938 C 208.25482177734375 101.57601928710938 224.14474487304688 106.12673950195312 231.96017456054688 98.60226440429688 C 239.77557373046875 91.0777587890625 236.42758178710938 75.71694946289062 226.416748046875 71.34834289550781 C 216.40594482421875 66.97975158691406 203.4488525390625 73.96424865722656 200.81228637695312 84.57418823242188 L 206.37603759765625 90.81967163085938" stroke-width="0.6000000238418579" fill="rgb(233, 92, 21)" opacity="1.0"/>
    <path d="M 203.67959594726562 94.77159118652344 C 201.56680297851562 89.30386352539062 198.4759521484375 82.99163818359375 192.6436767578125 82.23052978515625 C 190.3109130859375 82.01797485351562 187.9696044921875 82.53451538085938 185.94287109375 83.70896911621094 C 180.8499755859375 86.47991943359375 177.41604614257812 91.5474853515625 176.73004150390625 97.3046875 C 176.16064453125 102.18986511230469 177.69424438476562 107.00881958007812 179.28427124023438 111.63114929199219 C 180.18170166015625 114.22624206542969 181.2177734375 116.95484924316406 183.38787841796875 118.61260986328125 C 186.29852294921875 120.79852294921875 190.36920166015625 120.43592834472656 193.9039306640625 119.57118225097656 C 199.07855224609375 118.31208801269531 204.01528930664062 116.22372436523438 208.52261352539062 113.38711547851562 C 210.07809448242188 112.40402221679688 211.6400146484375 111.27090454101562 212.48654174804688 109.63784790039062 C 213.19598388671875 108.07913208007812 213.43655395507812 106.34765625 213.178955078125 104.65457153320312 C 212.5972900390625 99.4884033203125 209.77862548828125 94.83743286132812 205.46804809570312 91.93113708496094 L 203.67959594726562 94.77159118652344" stroke-width="0.6000000238418579" fill="rgb(70, 150, 179)" opacity="1.0"/>
    <path d="M 254.9556884765625 126.9814453125 C 249.06494140625 127.13232421875 242.5418701171875 127.546875 238.4117431640625 131.74462890625 C 233.97775268554688 136.25662231445312 234.03778076171875 143.73516845703125 236.635009765625 149.5032958984375 C 237.63543701171875 151.72767639160156 239.031494140625 153.87632751464844 241.11175537109375 155.14910888671875 C 242.82144165039062 156.19607543945312 244.84921264648438 156.5703125 246.83847045898438 156.81546020507812 C 253.11068725585938 157.59613037109375 259.99163818359375 157.14910888671875 264.94281005859375 153.2223663330078 C 269.9300842285156 149.26138305664062 271.9484558105469 141.9337158203125 269.65631103515625 135.98561096191406 C 267.3641357421875 130.0375213623047 260.99749755859375 125.903564453125 254.6300048828125 126.28176879882812 L 254.9556884765625 126.9814453125" stroke-width="0.6000000238418579" fill="rgb(140, 28, 33)" opacity="1.0"/>
    <path d="M 291.9618835449219 121.58737182617188 C 286.2185974121094 124.48927307128906 280.27435302734375 127.57217407226562 276.2689208984375 132.61427307128906 C 272.2635498046875 137.6562957763672 270.7547607421875 145.3108673095703 274.4926452636719 150.5529327392578 C 279.1211242675781 157.013427734375 289.7609558105469 156.50143432617188 295.57183837890625 151.05865478515625 C 301.3827209472656 145.61587524414062 303.1512451171875 137.04428100585938 302.8819274902344 129.09695434570312 C 303.0450134277344 126.62844848632812 302.2768859863281 124.1885986328125 300.7290344238281 122.25881958007812 C 299.0137634277344 120.53218078613281 295.47015380859375 120.5509033203125 294.5597229003906 122.82101440429688 L 291.9618835449219 121.58737182617188" stroke-width="0.6000000238418579" fill="rgb(159, 159, 159)" opacity="1.0"/>
    <path d="M 196.3558349609375 134.17205810546875 C 192.9326171875 129.116455078125 187.70263671875 125.12358093261719 181.70452880859375 124.00016784667969 C 175.70648193359375 122.87673950195312 169.0098876953125 124.94425964355469 165.28097534179688 129.80734252929688 C 162.64898681640625 133.24893188476562 161.67526245117188 137.77809143066406 162.04055786132812 142.09912109375 C 162.40585327148438 146.42019653320312 164.013427734375 150.55712890625 166.10968017578125 154.35414123535156 C 167.02288818359375 156.0059814453125 168.100341796875 157.67254638671875 169.75173950195312 158.57644653320312 C 171.64453125 159.6136474609375 173.94033813476562 159.460205078125 176.08651733398438 159.17605590820312 C 182.1456298828125 158.37371826171875 188.31256103515625 156.61224365234375 192.89556884765625 152.5672607421875 C 197.47857666015625 148.52223205566406 200.055419921875 141.758056640625 197.83648681640625 136.0784912109375 L 196.3558349609375 134.17205810546875" stroke-width="0.6000000238418579" fill="rgb(159, 159, 159)" opacity="1.0"/>
    <path d="M 277.05157470703125 99.88531494140625 C 271.70556640625 100.12869262695312 265.7737731933594 100.63079833984375 262.1335144042969 104.53924560546875 C 258.5880432128906 108.33525085449219 258.3799133300781 114.07820129394531 258.4698486328125 119.27400207519531 C 258.5094909667969 121.38467407226562 258.5846252441406 123.59210205078125 259.6173095703125 125.43196105957031 C 261.36212158203125 128.54473876953125 265.2657775878906 129.6857147216797 268.81634521484375 129.98582458496094 C 272.11175537109375 130.26564025878906 275.4302673339844 130.07080078125 278.6703186035156 129.40731811523438 C 283.931640625 128.33187866210938 289.4669494628906 125.41841125488281 290.917236328125 120.24984741210938 C 291.70428466796875 117.46066284179688 291.14019775390625 114.41488647460938 289.9260559082031 111.77848815917969 C 288.7118835449219 109.14208984375 286.8779296875 106.84443664550781 285.0350646972656 104.60197448730469 C 283.1922302246094 102.35951232910156 281.3334045410156 100.195556640625 278.79437255859375 98.93801879882812 L 277.05157470703125 99.88531494140625" stroke-width="0.6000000238418579" fill="rgb(218, 166, 20)" opacity="1.0"/>
    <path d="M 226.25115966796875 112.59281921386719 C 226.47817993164062 122.1663818359375 234.423095703125 129.74327087402344 243.99664306640625 129.51626586914062 C 244.81646728515625 129.49684143066406 245.63381958007812 129.41925048828125 246.442626953125 129.28414916992188 C 249.515869140625 128.7701873779297 252.55755615234375 127.31594848632812 254.34466552734375 124.76535034179688 C 255.85516357421875 122.61006164550781 256.33642578125 119.90768432617188 256.51483154296875 117.28359985351562 C 256.9827575683594 110.25897216796875 255.56124877929688 103.23715209960938 252.39801025390625 96.94760131835938 C 251.55905151367188 95.2864990234375 250.56326293945312 93.64096069335938 249.072021484375 92.52108764648438 C 246.569580078125 90.63958740234375 243.07269287109375 90.5870361328125 240.079833984375 91.51385498046875 C 235.6356201171875 92.88673400878906 231.926513671875 96.2071533203125 229.62188720703125 100.24874877929688 C 227.3172607421875 104.29035949707031 226.33831787109375 109.00045776367188 226.34234619140625 113.65255737304688 L 226.25115966796875 112.59281921386719" stroke-width="0.6000000238418579" fill="rgb(143, 165, 67)" opacity="1.0"/>
    <path d="M 248.69140625 87.06889343261719 C 248.41143798828125 98.53286743164062 263.8382263183594 106.49104309082031 273.43603515625 100.35137939453125 C 283.0338134765625 94.211669921875 282.748779296875 77.70341491699219 273.33892822265625 71.143310546875 C 263.9290466308594 64.58319091796875 249.14743041992188 69.10809326171875 244.24765014648438 79.4915771484375 L 248.69140625 87.06889343261719" stroke-width="0.6000000238418579" fill="rgb(233, 92, 21)" opacity="1.0"/>
    <path d="M 338.3023681640625 70.10505676269531 C 335.9856872558594 65.474365234375 332.73809814453125 60.18316650390625 327.54571533203125 60.00331115722656 C 325.4765625 60.01214599609375 323.46112060546875 60.662841796875 321.7774963378906 61.86566162109375 C 317.5316162109375 64.7296142578125 314.9372863769531 69.473876953125 314.81719970703125 74.59396362304688 C 314.7264099121094 78.93746948242188 316.4793395996094 83.0462646484375 318.2654113769531 86.9774169921875 C 319.2723083496094 89.18408203125 320.412353515625 91.49649047851562 322.4596862792969 92.77212524414062 C 325.20257568359375 94.45004272460938 328.75164794921875 93.78961181640625 331.78729248046875 92.73258972167969 C 336.2319030761719 91.19119262695312 340.397705078125 88.9405517578125 344.1231384277344 86.0679931640625 C 345.4084167480469 85.072998046875 346.6867980957031 83.94552612304688 347.29412841796875 82.4384765625 C 347.78717041015625 81.00831604003906 347.8534240722656 79.465576171875 347.4848327636719 77.99839782714844 C 346.53985595703125 73.50439453125 343.6710205078125 69.65115356445312 339.63665771484375 67.45726013183594 L 338.3023681640625 70.10505676269531" stroke-width="0.6000000238418579" fill="rgb(70, 150, 179)" opacity="1.0"/>
    <path d="M 333.32025146484375 136.97979736328125 C 334.0318298339844 131.13690185546875 334.5752258300781 124.63064575195312 331.0307312011719 119.93621826171875 C 327.2200927734375 114.8956298828125 319.8215026855469 113.8623046875 313.74237060546875 115.58596801757812 C 311.3982238769531 116.24954223632812 309.0710754394531 117.31510925292969 307.50946044921875 119.18470764160156 C 306.2251281738281 120.72114562988281 305.55908203125 122.67018127441406 305.0262145996094 124.60002136230469 C 303.3384094238281 130.6837615966797 302.7748107910156 137.54837036132812 305.9315490722656 143.01449584960938 C 309.11688232421875 148.5213165283203 316.06268310546875 151.5863494873047 322.2751159667969 150.19041442871094 C 328.4875183105469 148.79449462890625 333.50262451171875 143.1073760986328 334.0592041015625 136.7602081298828 L 333.32025146484375 136.97979736328125" stroke-width="0.6000000238418579" fill="rgb(140, 28, 33)" opacity="1.0"/>
    <path d="M 348.65826416015625 95.54263305664062 C 342.9142761230469 93.85882568359375 336.9187927246094 92.1700439453125 330.9928894042969 93.04426574707031 C 325.0671081542969 93.91850280761719 319.1739196777344 98.15400695800781 318.3763427734375 104.08958435058594 C 317.408203125 111.41862487792969 324.95526123046875 117.8392333984375 332.36138916015625 117.84152221679688 C 339.7675476074219 117.84379577636719 346.42034912109375 113.15110778808594 351.29290771484375 107.58583068847656 C 352.9738464355469 106.01417541503906 354.0045471191406 103.86959838867188 354.1815185546875 101.57521057128906 C 354.1156921386719 99.31222534179688 351.6986999511719 97.07080078125 349.63671875 98.03244018554688 L 348.65826416015625 95.54263305664062" stroke-width="0.6000000238418579" fill="rgb(159, 159, 159)" opacity="1.0"/>
    <path d="M 343.3802490234375 117.30345153808594 C 338.39398193359375 119.43832397460938 334.0305480957031 123.32806396484375 332.0407409667969 128.37094116210938 C 330.05096435546875 133.41380310058594 330.7269287109375 139.6032257080078 334.3410949707031 143.6746368408203 C 336.9000244140625 146.5499267578125 340.686767578125 148.16183471679688 344.5174255371094 148.57069396972656 C 348.3481140136719 148.9795684814453 352.22735595703125 148.2738037109375 355.8923645019531 147.08456420898438 C 357.4869689941406 146.5660858154297 359.1221008300781 145.90682983398438 360.1885986328125 144.61854553222656 C 361.4119873046875 143.14212036132812 361.6647033691406 141.11370849609375 361.7781677246094 139.19378662109375 C 362.09844970703125 133.77346801757812 361.6002197265625 128.0975799560547 358.8434753417969 123.41888427734375 C 356.086669921875 118.74018859863281 350.6202392578125 115.35360717773438 345.29248046875 116.3328857421875 L 343.3802490234375 117.30345153808594" stroke-width="0.6000000238418579" fill="rgb(159, 159, 159)" opacity="1.0"/>
    <path d="M 364.66082763671875 88.91947937011719 C 359.6252136230469 88.89993286132812 354.02703857421875 89.09634399414062 350.4243469238281 92.60055541992188 C 346.9158935546875 96.00344848632812 346.4535827636719 101.39117431640625 346.29681396484375 106.27847290039062 C 346.2360534667969 108.26397705078125 346.2041320800781 110.34207153320312 347.0892639160156 112.11917114257812 C 348.5845031738281 115.12567138671875 352.20025634765625 116.37928771972656 355.5232238769531 116.82621765136719 C 358.6073303222656 117.24224853515625 361.7352294921875 117.2132568359375 364.81109619140625 116.74015808105469 C 369.8057556152344 115.97378540039062 375.143310546875 113.49270629882812 376.7463684082031 108.7025146484375 C 377.6155700683594 106.11773681640625 377.2268981933594 103.22903442382812 376.208251953125 100.69488525390625 C 375.1895751953125 98.16073608398438 373.57269287109375 95.91619873046875 371.94488525390625 93.72308349609375 C 370.31707763671875 91.52996826171875 368.67059326171875 89.40989685058594 366.3427429199219 88.11012268066406 L 364.66082763671875 88.91947937011719" stroke-width="0.6000000238418579" fill="rgb(218, 166, 20)" opacity="1.0"/>
    <path d="M 428.74639892578125 139.07215881347656 C 420.4100341796875 139.3015594482422 413.838134765625 146.24545288085938 414.0675048828125 154.581787109375 C 414.087158203125 155.29562377929688 414.15740966796875 156.00717163085938 414.2777099609375 156.7110595703125 C 414.7354736328125 159.38568115234375 416.011962890625 162.02969360351562 418.23907470703125 163.57757568359375 C 420.1209716796875 164.88580322265625 422.4759521484375 165.29595947265625 424.76171875 165.442626953125 C 430.880615234375 165.82684326171875 436.9908447265625 164.565673828125 442.45758056640625 161.7901611328125 C 443.9013671875 161.0540771484375 445.3310546875 160.18142700195312 446.3013916015625 158.87905883789062 C 447.9315185546875 156.693603515625 447.9656982421875 153.648193359375 447.148681640625 151.0449676513672 C 445.93841552734375 147.17926025390625 443.0345458984375 143.960205078125 439.50732421875 141.96661376953125 C 435.9801025390625 139.97303771972656 431.87506103515625 139.1361541748047 427.8238525390625 139.1550750732422 L 428.74639892578125 139.07215881347656" stroke-width="0.6000000238418579" fill="rgb(143, 165, 67)" opacity="1.0"/>
    <path d="M 150.79299926757812 406.6158142089844 C 157.38494873046875 415.0616455078125 173.243408203125 411.66668701171875 176.5367431640625 401.5441589355469 C 179.83004760742188 391.4216003417969 169.84051513671875 379.66741943359375 159.1563720703125 380.5061340332031 C 148.4722442626953 381.3448486328125 140.47787475585938 393.3733215332031 143.09280395507812 403.77667236328125 L 150.79299926757812 406.6158142089844" stroke-width="0.6000000238418579" fill="rgb(233, 92, 21)" opacity="1.0"/>
    <path d="M 428.4808349609375 199.24026489257812 C 424.08953857421875 196.502197265625 418.56005859375 193.68692016601562 414.0404052734375 196.24334716796875 C 412.28131103515625 197.3306884765625 410.90301513671875 198.93710327148438 410.0956115722656 200.84100341796875 C 407.9711608886719 205.4979248046875 408.2356872558594 210.89569091796875 410.8052978515625 215.32257080078125 C 412.99468994140625 219.07220458984375 416.633056640625 221.65963745117188 420.20697021484375 224.078369140625 C 422.216796875 225.43377685546875 424.39532470703125 226.80987548828125 426.80615234375 226.8287353515625 C 430.01971435546875 226.82757568359375 432.7001953125 224.4124755859375 434.736083984375 221.92730712890625 C 437.7200927734375 218.29397583007812 440.09637451171875 214.20159912109375 441.77276611328125 209.8089599609375 C 442.3489990234375 208.29010009765625 442.850341796875 206.66195678710938 442.58154296875 205.0604248046875 C 442.25537109375 203.5841064453125 441.50677490234375 202.23455810546875 440.4268798828125 201.17633056640625 C 437.27618408203125 197.83892822265625 432.82000732421875 196.05166625976562 428.236328125 196.28704833984375 L 428.4808349609375 199.24026489257812" stroke-width="0.6000000238418579" fill="rgb(70, 150, 179)" opacity="1.0"/>
    <path d="M 413.6796875 161.4034423828125 C 413.21380615234375 155.74436950683594 412.4598388671875 149.49130249023438 408.1964416503906 145.74636840820312 C 403.6142272949219 141.7262420654297 396.4226379394531 142.191162109375 391.0147399902344 145.00390625 C 388.92919921875 146.08749389648438 386.9380798339844 147.54757690429688 385.8268127441406 149.61819458007812 C 384.91265869140625 151.3200225830078 384.66302490234375 153.29124450683594 384.53546142578125 155.21839904785156 C 384.12591552734375 161.295166015625 384.93060302734375 167.8907470703125 388.9779052734375 172.4403076171875 C 393.0601806640625 177.02276611328125 400.2197570800781 178.56561279296875 405.8174133300781 176.03656005859375 C 411.4150695800781 173.50750732421875 415.04559326171875 167.1573486328125 414.3350830078125 161.052001953125 L 413.6796875 161.4034423828125" stroke-width="0.6000000238418579" fill="rgb(140, 28, 33)" opacity="1.0"/>
    <path d="M 149.5830841064453 131.9285430908203 C 143.37574768066406 133.11419677734375 136.9297332763672 134.41636657714844 131.7839813232422 138.09275817871094 C 126.63832092285156 141.76910400390625 123.14276123046875 148.58743286132812 125.25328063964844 154.5477752685547 C 127.87492370605469 161.89935302734375 138.05836486816406 164.29486083984375 145.0170135498047 160.72869873046875 C 151.9756622314453 157.16253662109375 155.9645538330078 149.54873657226562 157.86062622070312 141.97291564941406 C 158.68252563476562 139.6865692138672 158.61749267578125 137.17529296875 157.6783447265625 134.93460083007812 C 156.52618408203125 132.8404083251953 153.17562866210938 131.89926147460938 151.70188903808594 133.79611206054688 L 149.5830841064453 131.9285430908203" stroke-width="0.6000000238418579" fill="rgb(159, 159, 159)" opacity="1.0"/>
    <path d="M 437.9378662109375 166.24777221679688 C 432.64825439453125 164.16107177734375 426.52850341796875 163.84124755859375 421.326904296875 166.131103515625 C 416.125244140625 168.42095947265625 412.0643310546875 173.53106689453125 411.7544860839844 179.22998046875 C 411.5405578613281 183.25946044921875 413.1732177734375 187.25314331054688 415.725830078125 190.38287353515625 C 418.2784423828125 193.5125732421875 421.689208984375 195.84765625 425.2969970703125 197.66448974609375 C 426.867431640625 198.45419311523438 428.5718994140625 199.16888427734375 430.316650390625 198.99554443359375 C 432.3170166015625 198.79776000976562 434.001220703125 197.47280883789062 435.501708984375 196.12600708007812 C 439.73779296875 192.32366943359375 443.552490234375 187.727294921875 444.948974609375 182.20819091796875 C 446.345458984375 176.68911743164062 444.7701416015625 170.1343994140625 440.078369140625 166.93487548828125 L 437.9378662109375 166.24777221679688" stroke-width="0.6000000238418579" fill="rgb(159, 159, 159)" opacity="1.0"/>
    <path d="M 412.568603515625 194.53045654296875 C 411.8219299316406 189.16299438476562 410.7594909667969 183.22918701171875 406.4773864746094 179.92529296875 C 402.31756591796875 176.70635986328125 396.507568359375 177.03497314453125 391.2771911621094 177.61279296875 C 389.15277099609375 177.85064697265625 386.9341125488281 178.13336181640625 385.17584228515625 179.34713745117188 C 382.2008972167969 181.39825439453125 381.4164733886719 185.441162109375 381.4468078613281 189.04925537109375 C 381.4736328125 192.398193359375 381.9812316894531 195.72589111328125 382.9540100097656 198.9305419921875 C 384.5316467285156 204.13458251953125 387.98822021484375 209.44256591796875 393.3355407714844 210.42025756835938 C 396.2215881347656 210.95230102539062 399.23968505859375 210.09796142578125 401.7840881347656 208.6265869140625 C 404.3284606933594 207.1551513671875 406.4731750488281 205.09063720703125 408.5614013671875 203.02224731445312 C 410.6496276855469 200.95391845703125 412.6572265625 198.87680053710938 413.6871337890625 196.1988525390625 L 412.568603515625 194.53045654296875" stroke-width="0.6000000238418579" fill="rgb(218, 166, 20)" opacity="1.0"/>
    <path d="M 441.8856201171875 193.12991333007812 C 439.9119873046875 202.17181396484375 445.6419677734375 211.10171508789062 454.6839599609375 213.07534790039062 C 455.45819091796875 213.24435424804688 456.24346923828125 213.35821533203125 457.0338134765625 213.41607666015625 C 460.03717041015625 213.63543701171875 463.22564697265625 212.964599609375 465.4864501953125 210.9776611328125 C 467.397216796875 209.29876708984375 468.4664306640625 206.87103271484375 469.23333740234375 204.4476318359375 C 471.27734375 197.9580078125 471.54638671875 191.03948974609375 470.0125732421875 184.41070556640625 C 469.60418701171875 182.6591796875 469.044921875 180.88650512695312 467.900390625 179.4942626953125 C 465.980224609375 177.15582275390625 462.70849609375 176.30770874023438 459.6864013671875 176.49441528320312 C 455.19940185546875 176.76846313476562 450.9578857421875 179.03927612304688 447.87054443359375 182.30813598632812 C 444.783203125 185.57696533203125 442.7880859375 189.77642822265625 441.729248046875 194.1458740234375 L 441.8856201171875 193.12991333007812" stroke-width="0.6000000238418579" fill="rgb(143, 165, 67)" opacity="1.0"/>
    <path d="M 143.11691284179688 95.45671081542969 C 132.10154724121094 104.31085205078125 136.8788604736328 125.16377258300781 150.29251098632812 129.3164825439453 C 163.7061767578125 133.46914672851562 179.02105712890625 120.0711669921875 177.71307373046875 105.99481201171875 C 176.405029296875 91.91842651367188 160.38873291015625 81.60116577148438 146.71627807617188 85.24667358398438 L 143.11691284179688 95.45671081542969" stroke-width="0.6000000238418579" fill="rgb(233, 92, 21)" opacity="1.0"/>
    <path d="M 451.8895263671875 152.6492462158203 C 446.66986083984375 155.53759765625 440.734375 159.5291748046875 440.7757568359375 165.514892578125 C 440.8848876953125 167.89633178710938 441.7303466796875 170.18524169921875 443.195556640625 172.0657958984375 C 446.6954345703125 176.8162841796875 452.2808837890625 179.57574462890625 458.18048095703125 179.46905517578125 C 463.184814453125 179.36572265625 467.8306884765625 177.15127563476562 472.2705078125 174.90719604492188 C 474.76251220703125 173.642578125 477.369873046875 172.2196044921875 478.7403564453125 169.80181884765625 C 480.54058837890625 166.56411743164062 479.61053466796875 162.51025390625 478.24853515625 159.06640625 C 476.26153564453125 154.0238037109375 473.471435546875 149.33609008789062 469.98651123046875 145.18505859375 C 468.7796630859375 143.7531280517578 467.420654296875 142.3354949951172 465.65673828125 141.7084503173828 C 463.98687744140625 141.20932006835938 462.207763671875 141.2068634033203 460.5364990234375 141.7013702392578 C 455.4085693359375 143.00418090820312 451.1102294921875 146.49093627929688 448.77777099609375 151.23995971679688 L 451.8895263671875 152.6492462158203" stroke-width="0.6000000238418579" fill="rgb(70, 150, 179)" opacity="1.0"/>
    <path d="M 379.4476318359375 79.50411987304688 C 381.6249694824219 73.33816528320312 383.7794494628906 66.41226196289062 381.06439208984375 60.46806335449219 C 378.14398193359375 54.08441162109375 370.36810302734375 51.18389892578125 363.360107421875 51.590972900390625 C 360.65802001953125 51.746795654296875 357.8777160644531 52.342681884765625 355.7342529296875 53.99476623535156 C 353.9716796875 55.35221862792969 352.7804260253906 57.305908203125 351.73822021484375 59.27079772949219 C 348.4441833496094 65.46315002441406 346.1815490722656 72.77285766601562 348.2904052734375 79.46073913574219 C 350.42047119140625 86.19964599609375 357.216552734375 91.19480895996094 364.2902526855469 91.17523193359375 C 371.3639831542969 91.15567016601562 378.17138671875 86.19390869140625 380.30194091796875 79.4437255859375 L 379.4476318359375 79.50411987304688" stroke-width="0.6000000238418579" fill="rgb(140, 28, 33)" opacity="1.0"/>
    <path d="M 130.95909118652344 406.79522705078125 C 127.0498046875 413.43634033203125 123.05517578125 420.389892578125 122.28215026855469 428.06298828125 C 121.5091552734375 435.73583984375 124.94271850585938 444.4256591796875 132.1018524169922 447.288818359375 C 140.94696044921875 450.8033447265625 151.33706665039062 443.4014892578125 153.67005920410156 434.15631103515625 C 156.0030517578125 424.91107177734375 152.23773193359375 415.129150390625 146.82298278808594 407.295166015625 C 145.38975524902344 404.7021789550781 143.0366973876953 402.74072265625 140.22804260253906 401.7978820800781 C 137.38217163085938 401.1680908203125 133.823486328125 403.4803161621094 134.37525939941406 406.3570556640625 L 130.95909118652344 406.79522705078125" stroke-width="0.6000000238418579" fill="rgb(159, 159, 159)" opacity="1.0"/>
    <path d="M 416.37060546875 221.88568115234375 C 412.3529052734375 216.25582885742188 406.31884765625 211.8798828125 399.4949035644531 210.77490234375 C 392.6709899902344 209.669921875 385.14495849609375 212.197998046875 381.0577392578125 217.80926513671875 C 378.17303466796875 221.78012084960938 377.1966247558594 226.93637084960938 377.73077392578125 231.81961059570312 C 378.26495361328125 236.702880859375 380.2008361816406 241.34298706054688 382.6806335449219 245.58450317382812 C 383.7608642578125 247.4296875 385.02752685546875 249.2869873046875 386.9228820800781 250.26458740234375 C 389.0953063964844 251.38638305664062 391.69091796875 251.14862060546875 394.1134948730469 250.7669677734375 C 400.95281982421875 249.68942260742188 407.8875732421875 247.52267456054688 412.96484375 242.8140869140625 C 418.0421142578125 238.10543823242188 420.771728515625 230.3734130859375 418.10052490234375 224.00335693359375 L 416.37060546875 221.88568115234375" stroke-width="0.6000000238418579" fill="rgb(159, 159, 159)" opacity="1.0"/>
    <path d="M 384.0162048339844 111.16960144042969 C 377.6740417480469 111.33993530273438 370.63177490234375 111.80404663085938 366.23052978515625 116.35639953613281 C 361.9440612792969 120.77755737304688 361.5704345703125 127.58027648925781 361.562255859375 133.74099731445312 C 361.5625915527344 136.24371337890625 361.60284423828125 138.8619384765625 362.7862854003906 141.06558227539062 C 364.7856750488281 144.7938232421875 369.3875732421875 146.23251342773438 373.58953857421875 146.6667022705078 C 377.4895324707031 147.07119750976562 381.4273681640625 146.91360473632812 385.2825622558594 146.19873046875 C 391.542724609375 145.04025268554688 398.1683044433594 141.7091522216797 400.0016174316406 135.61474609375 C 400.99615478515625 132.32603454589844 400.39483642578125 128.70330810546875 399.013916015625 125.55145263671875 C 397.63299560546875 122.39961242675781 395.5099182128906 119.6356201171875 393.37506103515625 116.93682861328125 C 391.240234375 114.238037109375 389.084716796875 111.6319580078125 386.1029357910156 110.08525085449219 L 384.0162048339844 111.16960144042969" stroke-width="0.6000000238418579" fill="rgb(218, 166, 20)" opacity="1.0"/>
    <path d="M 402.7004699707031 82.43637084960938 C 395.166015625 75.481689453125 383.4202575683594 75.95167541503906 376.4655456542969 83.48611450195312 C 375.8700256347656 84.13128662109375 375.3210144042969 84.81790161132812 374.8226318359375 85.54078674316406 C 372.9294738769531 88.28790283203125 371.7831726074219 91.71096801757812 372.41461181640625 94.98532104492188 C 372.94793701171875 97.75241088867188 374.66864013671875 100.13511657714844 376.5545654296875 102.22650146484375 C 381.6105041503906 107.81768798828125 388.0713195800781 111.95310974121094 395.2658386230469 114.20323181152344 C 397.1685485839844 114.7947998046875 399.17608642578125 115.25410461425781 401.148193359375 114.94076538085938 C 404.459228515625 114.41667175292969 407.103759765625 111.76547241210938 408.6194763183594 108.77275085449219 C 410.8728332519531 104.33120727539062 411.0804138183594 99.00491333007812 409.6872253417969 94.22210693359375 C 408.2940673828125 89.43931579589844 405.39935302734375 85.17861938476562 401.8172607421875 81.71734619140625 L 402.7004699707031 82.43637084960938" stroke-width="0.6000000238418579" fill="rgb(143, 165, 67)" opacity="1.0"/>
    <path d="M 116.31768798828125 427.336181640625 C 112.22685241699219 415.8504638671875 93.8817138671875 413.8302001953125 86.69476318359375 423.5819091796875 C 79.50787353515625 433.3336181640625 86.08180236816406 449.61083984375 97.92184448242188 452.536376953125 C 109.76188659667969 455.4619140625 122.70956420898438 445.33758544921875 123.61604309082031 433.163818359375 L 116.31768798828125 427.336181640625" stroke-width="0.6000000238418579" fill="rgb(233, 92, 21)" opacity="1.0"/>
    <path d="M 451.575439453125 215.90127563476562 C 445.09014892578125 215.81304931640625 437.33416748046875 216.38027954101562 434.1451416015625 222.05340576171875 C 432.9639892578125 224.36044311523438 432.5277099609375 226.9771728515625 432.896728515625 229.54266357421875 C 433.638916015625 235.91485595703125 437.423583984375 241.53204345703125 443.0506591796875 244.61294555664062 C 447.83056640625 247.21417236328125 453.4107666015625 247.629150390625 458.8123779296875 247.905029296875 C 461.846923828125 248.0550537109375 465.0758056640625 248.11782836914062 467.6734619140625 246.57440185546875 C 471.1190185546875 244.48880004882812 472.42724609375 240.16018676757812 472.99871826171875 236.17453002929688 C 473.84228515625 230.34255981445312 473.7364501953125 224.4124755859375 472.68511962890625 218.61431884765625 C 472.3179931640625 216.61166381835938 471.799560546875 214.54046630859375 470.4725341796875 212.99725341796875 C 469.165283203125 211.62548828125 467.487060546875 210.66375732421875 465.64263916015625 210.22927856445312 C 460.0989990234375 208.69369506835938 454.16082763671875 209.66729736328125 449.3978271484375 212.8927001953125 L 451.575439453125 215.90127563476562" stroke-width="0.6000000238418579" fill="rgb(70, 150, 179)" opacity="1.0"/>
    <path d="M 429.8375244140625 133.15826416015625 C 431.3895263671875 126.84695434570312 432.8448486328125 119.78617858886719 429.579345703125 114.17156982421875 C 426.06787109375 108.14230346679688 418.09356689453125 106.03204345703125 411.2015380859375 107.11849975585938 C 408.5440673828125 107.5362548828125 405.8521423339844 108.39694213867188 403.8931884765625 110.24018859863281 C 402.2822570800781 111.75485229492188 401.2945861816406 113.80351257324219 400.4554443359375 115.84870910644531 C 397.80145263671875 122.29508972167969 396.2766418457031 129.74603271484375 399.0151062011719 136.1553955078125 C 401.7795104980469 142.61314392089844 408.989013671875 146.890869140625 415.98388671875 146.1813201904297 C 422.978759765625 145.47177124023438 429.2279052734375 139.8997802734375 430.6766357421875 133.01515197753906 L 429.8375244140625 133.15826416015625" stroke-width="0.6000000238418579" fill="rgb(140, 28, 33)" opacity="1.0"/>
    <path d="M 384.1947021484375 55.95674133300781 C 384.97796630859375 62.99546813964844 385.8705749511719 70.31103515625 389.5292663574219 76.38095092773438 C 393.18792724609375 82.45074462890625 400.5009765625 86.95098876953125 407.3443908691406 85.11285400390625 C 415.786865234375 82.82501220703125 419.3515625 71.65625 415.97412109375 63.570465087890625 C 412.59674072265625 55.48466491699219 404.4379577636719 50.36384582519531 396.1390686035156 47.5845947265625 C 393.6562805175781 46.46687316894531 390.8448181152344 46.320465087890625 388.2594299316406 47.17431640625 C 385.8191223144531 48.2789306640625 384.4753723144531 51.94032287597656 386.46612548828125 53.752349853515625 L 384.1947021484375 55.95674133300781" stroke-width="0.6000000238418579" fill="rgb(159, 159, 159)" opacity="1.0"/>
    <path d="M 434.83416748046875 244.95574951171875 C 428.594482421875 248.22393798828125 423.3385009765625 253.70114135742188 421.2723388671875 260.4312438964844 C 419.2061767578125 267.1613464355469 420.707275390625 275.1062927246094 425.79815673828125 280.0119934082031 C 429.40185546875 283.4757995605469 434.467529296875 285.17974853515625 439.46832275390625 285.32171630859375 C 444.46917724609375 285.4637145996094 449.420166015625 284.1576843261719 454.044921875 282.2474060058594 C 456.0570068359375 281.4148864746094 458.1072998046875 280.3960266113281 459.3577880859375 278.6202392578125 C 460.7923583984375 276.5850524902344 460.9144287109375 273.933349609375 460.8671875 271.4361877441406 C 460.73370361328125 264.38623046875 459.51470947265625 257.08819580078125 455.47247314453125 251.3095703125 C 451.43017578125 245.53091430664062 444.01043701171875 241.69915771484375 437.2117919921875 243.50579833984375 L 434.83416748046875 244.95574951171875" stroke-width="0.6000000238418579" fill="rgb(159, 159, 159)" opacity="1.0"/>
    <path d="M 416.2840576171875 262.42578125 C 412.0621337890625 257.15240478515625 407.1408386230469 251.47369384765625 400.4475402832031 250.664794921875 C 393.9393615722656 249.8690185546875 387.9254150390625 253.92529296875 382.6912536621094 257.8789978027344 C 380.56732177734375 259.4882507324219 378.3710021972656 261.2056579589844 377.261474609375 263.6268005371094 C 375.3825378417969 267.7206115722656 377.1199645996094 272.5513916015625 379.4528503417969 276.39691162109375 C 381.6167907714844 279.967041015625 384.28216552734375 283.20794677734375 387.3673400878906 286.02044677734375 C 392.3752136230469 290.5889587402344 399.46197509765625 294.07086181640625 405.81317138671875 291.7088317871094 C 409.24383544921875 290.43865966796875 411.9320373535156 287.5992736816406 413.7193603515625 284.40093994140625 C 415.5067138671875 281.2026062011719 416.48773193359375 277.62371826171875 417.40582275390625 274.0767517089844 C 418.323974609375 270.5298156738281 419.150146484375 267.02490234375 418.5458984375 263.499755859375 L 416.2840576171875 262.42578125" stroke-width="0.6000000238418579" fill="rgb(218, 166, 20)" opacity="1.0"/>
    <path d="M 411.4106140136719 86.16131591796875 C 407.7862243652344 95.88671875 412.7320556640625 106.70889282226562 422.45751953125 110.33328247070312 C 423.290283203125 110.64364624023438 424.14404296875 110.89451599121094 425.0123291015625 111.08406066894531 C 428.31182861328125 111.80364990234375 431.9580078125 111.56431579589844 434.78289794921875 109.71682739257812 C 437.1702880859375 108.15579223632812 438.7421875 105.6300048828125 439.977783203125 103.0611572265625 C 443.275634765625 96.18043518066406 444.6710205078125 88.54217529296875 444.01904296875 80.9398193359375 C 443.84326171875 78.93060302734375 443.50341796875 76.87391662597656 442.45343017578125 75.14682006835938 C 440.6923828125 72.24635314941406 437.194580078125 70.78616333007812 433.809814453125 70.51438903808594 C 428.784912109375 70.10739135742188 423.71612548828125 71.95606994628906 419.7703857421875 75.09574890136719 C 415.82470703125 78.23541259765625 412.94403076171875 82.58132934570312 411.0758972167969 87.26443481445312 L 411.4106140136719 86.16131591796875" stroke-width="0.6000000238418579" fill="rgb(143, 165, 67)" opacity="1.0"/>
    <path d="M 433.29412841796875 122.51895141601562 C 428.96112060546875 135.07821655273438 443.20074462890625 149.2798309326172 455.952880859375 145.86981201171875 C 468.7049560546875 142.459716796875 474.1846923828125 124.13265991210938 466.0977783203125 113.58663940429688 C 458.0108642578125 103.04063415527344 440.1019287109375 102.84823608398438 431.04736328125 112.59295654296875 L 433.29412841796875 122.51895141601562" stroke-width="0.6000000238418579" fill="rgb(233, 92, 21)" opacity="1.0"/>
    <path d="M 448.6446533203125 92.14053344726562 C 448.5303955078125 98.127197265625 449.0147705078125 105.29025268554688 454.23590087890625 108.26300048828125 C 456.3597412109375 109.36517333984375 458.7733154296875 109.78115844726562 461.1435546875 109.4534912109375 C 467.02996826171875 108.80059814453125 472.23486328125 105.33509826660156 475.1075439453125 100.15591430664062 C 477.533203125 95.75628662109375 477.944580078125 90.60687255859375 478.2265625 85.62161254882812 C 478.3804931640625 82.82093811035156 478.45477294921875 79.84043884277344 477.0430908203125 77.43450927734375 C 475.1351318359375 74.24301147460938 471.1456298828125 73.01338195800781 467.46905517578125 72.46563720703125 C 462.08935546875 71.65728759765625 456.6142578125 71.72502136230469 451.2562255859375 72.66621398925781 C 449.405517578125 72.99496459960938 447.49078369140625 73.46310424804688 446.0594482421875 74.68035888671875 C 444.786376953125 75.88027954101562 443.8900146484375 77.42466735839844 443.4796142578125 79.12522888183594 C 442.033935546875 84.2352294921875 442.90264892578125 89.72218322753906 445.85614013671875 94.13568115234375 L 448.6446533203125 92.14053344726562" stroke-width="0.6000000238418579" fill="rgb(70, 150, 179)" opacity="1.0"/>
    <path d="M 313.1715087890625 365.9706726074219 C 307.4869384765625 363.555419921875 301.08465576171875 361.116943359375 295.32135009765625 363.3267822265625 C 289.1317138671875 365.7043151855469 285.94000244140625 372.8639831542969 285.9115295410156 379.494384765625 C 285.8994445800781 382.05078125 286.2976379394531 384.7068176269531 287.7289733886719 386.82464599609375 C 288.90496826171875 388.5660705566406 290.6766357421875 389.8039855957031 292.4676208496094 390.90203857421875 C 298.1113586425781 394.37158203125 304.8691101074219 396.9345397949219 311.29779052734375 395.3399353027344 C 317.7758483886719 393.7283630371094 322.8845520019531 387.6155700683594 323.2822265625 380.9460144042969 C 323.67987060546875 374.2764892578125 319.4028625488281 367.5672912597656 313.1648254394531 365.1617736816406 L 313.1715087890625 365.9706726074219" stroke-width="0.6000000238418579" fill="rgb(140, 28, 33)" opacity="1.0"/>
    <path d="M 297.704345703125 393.26055908203125 C 290.051025390625 390.4956359863281 282.0568542480469 387.7029724121094 273.94287109375 388.39385986328125 C 265.82904052734375 389.0848083496094 257.47845458984375 394.3393859863281 255.90008544921875 402.3267517089844 C 253.9737548828125 412.190673828125 263.677734375 421.53375244140625 273.7270202636719 422.1558837890625 C 283.7762756347656 422.778076171875 293.19580078125 416.96661376953125 300.27264404296875 409.82232666015625 C 302.6849060058594 407.83026123046875 304.2626953125 405.00640869140625 304.6946716308594 401.9079284667969 C 304.79449462890625 398.8317565917969 301.7021789550781 395.5882873535156 298.82391357421875 396.7207946777344 L 297.704345703125 393.26055908203125" stroke-width="0.6000000238418579" fill="rgb(159, 159, 159)" opacity="1.0"/>
    <path d="M 323.13458251953125 415.73919677734375 C 317.94866943359375 419.9703369140625 314.09942626953125 426.0703125 313.45819091796875 432.72900390625 C 312.81695556640625 439.3876953125 315.7279357910156 446.4976806640625 321.4016418457031 450.094482421875 C 325.4162292480469 452.63232421875 330.4564208984375 453.2535400390625 335.13873291015625 452.4329833984375 C 339.8210754394531 451.6124267578125 344.1811218261719 449.453369140625 348.1223449707031 446.7940673828125 C 349.8367614746094 445.6357421875 351.55126953125 444.296630859375 352.3770446777344 442.4053955078125 C 353.3247985839844 440.23748779296875 352.9332275390625 437.74578857421875 352.41351318359375 435.43017578125 C 350.9461669921875 428.892822265625 348.4210205078125 422.331298828125 343.55718994140625 417.72210693359375 C 338.693359375 413.1129150390625 331.05633544921875 410.95947265625 325.0716247558594 413.9365234375 L 323.13458251953125 415.73919677734375" stroke-width="0.6000000238418579" fill="rgb(159, 159, 159)" opacity="1.0"/>
    <path d="M 257.993896484375 412.86395263671875 C 251.08734130859375 413.0196533203125 243.4171142578125 413.49188232421875 238.60333251953125 418.4281005859375 C 233.91519165039062 423.2220458984375 233.4764404296875 430.62744140625 233.43853759765625 437.33563232421875 C 233.42718505859375 440.060791015625 233.45870971679688 442.911865234375 234.73696899414062 445.31689453125 C 236.896484375 449.38580322265625 241.90057373046875 450.9739990234375 246.47390747070312 451.4664306640625 C 250.71856689453125 451.92523193359375 255.007080078125 451.7720947265625 259.2082214355469 451.0118408203125 C 266.0301513671875 449.77984619140625 273.2601318359375 446.183837890625 275.28497314453125 439.5565185546875 C 276.38336181640625 435.980224609375 275.74560546875 432.03271484375 274.25677490234375 428.59429931640625 C 272.7679443359375 425.1558837890625 270.4692077636719 422.13629150390625 268.1573486328125 419.1876220703125 C 265.8454895019531 416.239013671875 263.5106506347656 413.3912353515625 260.2711486816406 411.69305419921875 L 257.993896484375 412.86395263671875" stroke-width="0.6000000238418579" fill="rgb(218, 166, 20)" opacity="1.0"/>
    <path d="M 220.3963623046875 413.85791015625 C 210.36953735351562 407.48443603515625 197.074462890625 410.4460754394531 190.70101928710938 420.472900390625 C 190.15524291992188 421.33148193359375 189.67108154296875 422.22772216796875 189.25213623046875 423.15484619140625 C 187.66094970703125 426.677978515625 187.06094360351562 430.817626953125 188.45709228515625 434.4205322265625 C 189.63665771484375 437.46533203125 192.09060668945312 439.82659912109375 194.67282104492188 441.8216552734375 C 201.59213256835938 447.15234375 209.81259155273438 450.5330810546875 218.480224609375 451.61279296875 C 220.77178955078125 451.89434814453125 223.15557861328125 452.00341796875 225.33938598632812 451.2388916015625 C 229.00628662109375 449.95751953125 231.47396850585938 446.3885498046875 232.58404541015625 442.663330078125 C 234.2359619140625 437.13385009765625 233.3726806640625 431.01812744140625 230.79644775390625 425.8526611328125 C 228.22027587890625 420.68719482421875 224.03985595703125 416.4271240234375 219.2408447265625 413.220458984375 L 220.3963623046875 413.85791015625" stroke-width="0.6000000238418579" fill="rgb(143, 165, 67)" opacity="1.0"/>
    <path d="M 261.5682678222656 360.60284423828125 C 268.4314880371094 372.39251708984375 289.02301025390625 370.8382263183594 294.9197998046875 358.6341247558594 C 300.8164978027344 346.42999267578125 290.236083984375 329.88177490234375 276.6124572753906 329.1014709472656 C 262.9888000488281 328.3211669921875 250.83319091796875 342.12091064453125 252.34207153320312 355.6959228515625 L 261.5682678222656 360.60284423828125" stroke-width="0.6000000238418579" fill="rgb(233, 92, 21)" opacity="1.0"/>
    <path d="M 329.708251953125 347.8442077636719 C 325.0829162597656 352.61920166015625 320.0530700683594 358.802734375 322.04229736328125 365.1697692871094 C 322.9325256347656 367.6727600097656 324.5775146484375 369.8378601074219 326.7503967285156 371.3663330078125 C 332.02484130859375 375.29278564453125 338.875244140625 376.4192199707031 345.1292724609375 374.38836669921875 C 350.42999267578125 372.65203857421875 354.66265869140625 368.7818603515625 358.66607666015625 364.9470520019531 C 360.91143798828125 362.78924560546875 363.22833251953125 360.4251708984375 363.9034729003906 357.402587890625 C 364.7703857421875 353.36639404296875 362.461669921875 349.347412109375 359.8907470703125 346.1190490722656 C 356.1341247558594 341.3896179199219 351.6367492675781 337.2994079589844 346.5730895996094 334.007080078125 C 344.8213195800781 332.8728942871094 342.9120178222656 331.80340576171875 340.82806396484375 331.7082214355469 C 338.8858642578125 331.71881103515625 336.9886779785156 332.2943115234375 335.36785888671875 333.364501953125 C 330.3251037597656 336.4195861816406 326.8763427734375 341.5330505371094 325.93328857421875 347.3531799316406 L 329.708251953125 347.8442077636719" stroke-width="0.6000000238418579" fill="rgb(70, 150, 179)" opacity="1.0"/>
    <path d="M 296.6095886230469 417.78271484375 C 289.5782775878906 418.31878662109375 281.80712890625 419.208251953125 277.12445068359375 424.4747314453125 C 272.09759521484375 430.13507080078125 272.62103271484375 439.069580078125 276.0735168457031 445.806640625 C 277.403564453125 448.4046630859375 279.20184326171875 450.88836669921875 281.7649841308594 452.283935546875 C 283.8715515136719 453.43194580078125 286.31768798828125 453.7567138671875 288.71002197265625 453.9295654296875 C 296.2535095214844 454.4837646484375 304.4504089355469 453.533935546875 310.1307067871094 448.54180908203125 C 315.8521423339844 443.506591796875 317.8218688964844 434.6268310546875 314.72308349609375 427.65631103515625 C 311.62432861328125 420.685791015625 303.76544189453125 416.1295166015625 296.1780700683594 416.96612548828125 L 296.6095886230469 417.78271484375" stroke-width="0.6000000238418579" fill="rgb(140, 28, 33)" opacity="1.0"/>
    <path d="M 326.3077087402344 379.8423767089844 C 318.9641418457031 383.26617431640625 311.3605041503906 386.9097595214844 306.1189880371094 393.0961608886719 C 300.8775634765625 399.2825012207031 298.67431640625 408.8560791015625 303.170166015625 415.60205078125 C 308.7384033203125 423.9168701171875 322.1494140625 423.69561767578125 329.6790771484375 417.0767822265625 C 337.208740234375 410.4578552246094 339.7753601074219 399.7404479980469 339.7524108886719 389.72772216796875 C 340.05584716796875 386.62750244140625 339.1861267089844 383.52630615234375 337.3148193359375 381.0360412597656 C 335.2247619628906 378.7947998046875 330.76422119140625 378.67742919921875 329.5281677246094 381.4982604980469 L 326.3077087402344 379.8423767089844" stroke-width="0.6000000238418579" fill="rgb(159, 159, 159)" opacity="1.0"/>
    <path d="M 365.5091857910156 412.0186767578125 C 359.4253234863281 415.6236572265625 354.4440612792969 421.3914794921875 352.7266540527344 428.2476806640625 C 351.0092468261719 435.1038818359375 352.9322204589844 442.99029541015625 358.29437255859375 447.6407470703125 C 362.0896301269531 450.92388916015625 367.2579650878906 452.36572265625 372.2791748046875 452.24493408203125 C 377.3003845214844 452.1241455078125 382.1954040527344 450.55426025390625 386.7315368652344 448.395751953125 C 388.70501708984375 447.4552001953125 390.70697021484375 446.3258056640625 391.8672790527344 444.479736328125 C 393.198486328125 442.36376953125 393.18133544921875 439.69879150390625 393.0025634765625 437.19769287109375 C 392.4978332519531 430.1365966796875 390.8917236328125 422.88385009765625 386.5350036621094 417.302978515625 C 382.1782531738281 411.72216796875 374.53778076171875 408.27093505859375 367.8166198730469 410.43994140625 L 365.5091857910156 412.0186767578125" stroke-width="0.6000000238418579" fill="rgb(159, 159, 159)" opacity="1.0"/>
    <path d="M 249.7161865234375 366.00579833984375 C 250.93426513671875 358.8206787109375 251.9769287109375 350.78131103515625 247.82522583007812 344.8092346191406 C 243.79583740234375 338.99566650390625 236.212646484375 337.06219482421875 229.271728515625 335.6832275390625 C 226.45123291015625 335.127197265625 223.49169921875 334.5904846191406 220.74520874023438 335.4342041015625 C 216.09918212890625 336.8584899902344 213.4547119140625 341.7247009277344 212.03118896484375 346.363525390625 C 210.708251953125 350.66864013671875 210.0103759765625 355.14141845703125 209.9588623046875 359.6449279785156 C 209.87258911132812 366.95733642578125 212.15350341796875 375.16455078125 218.61395263671875 378.5855407714844 C 222.0989990234375 380.4375 226.3153076171875 380.5652770996094 230.17425537109375 379.7098083496094 C 234.033203125 378.8543395996094 237.62008666992188 377.0762939453125 241.1361083984375 375.2704772949219 C 244.652099609375 373.46466064453125 248.0682373046875 371.61492919921875 250.4742431640625 368.5985107421875 L 249.7161865234375 366.00579833984375" stroke-width="0.6000000238418579" fill="rgb(218, 166, 20)" opacity="1.0"/>
    <path d="M 253.5455322265625 388.98089599609375 C 249.15631103515625 377.7845153808594 236.52163696289062 372.2662048339844 225.32525634765625 376.6554260253906 C 224.36651611328125 377.0312805175781 223.43563842773438 377.47467041015625 222.53961181640625 377.9822692871094 C 219.13534545898438 379.91162109375 216.17306518554688 382.9366455078125 215.16278076171875 386.71502685546875 C 214.30868530273438 389.90789794921875 214.904296875 393.30316162109375 215.823486328125 396.47564697265625 C 218.29559326171875 404.96417236328125 222.9954833984375 412.635986328125 229.43487548828125 418.694091796875 C 231.13970947265625 420.2926025390625 233.02288818359375 421.80517578125 235.26422119140625 422.48431396484375 C 239.0263671875 423.62664794921875 243.17434692382812 422.1832275390625 246.30609130859375 419.8013916015625 C 250.9580078125 416.2685546875 253.904296875 410.754638671875 254.8831787109375 404.9945068359375 C 255.862060546875 399.2344055175781 254.98919677734375 393.2563781738281 252.98175048828125 387.76995849609375 L 253.5455322265625 388.98089599609375" stroke-width="0.6000000238418579" fill="rgb(143, 165, 67)" opacity="1.0"/>
    <path d="M 195.93292236328125 371.4457092285156 C 181.57470703125 370.3275451660156 170.5621337890625 389.14178466796875 177.61968994140625 401.58917236328125 C 184.67730712890625 414.03656005859375 205.39932250976562 414.78369140625 214.2559814453125 403.4217224121094 C 223.11260986328125 392.05975341796875 218.427001953125 373.2193908691406 205.73294067382812 366.37982177734375 L 195.93292236328125 371.4457092285156" stroke-width="0.6000000238418579" fill="rgb(233, 92, 21)" opacity="1.0"/>
    <path d="M 253.5511474609375 371.98699951171875 C 250.51416015625 377.9297790527344 247.50274658203125 385.3435363769531 251.2830810546875 390.87103271484375 C 252.87310791015625 393.0121765136719 255.08837890625 394.6072082519531 257.6233215332031 395.43597412109375 C 263.8402099609375 397.6553649902344 270.7471923828125 396.7237854003906 276.1539306640625 392.9366455078125 C 280.7321472167969 389.7123718261719 283.6580810546875 384.7535400390625 286.37432861328125 379.89599609375 C 287.8957214355469 377.1648864746094 289.4251403808594 374.2147216796875 289.18511962890625 371.1148376464844 C 288.8313293457031 366.985595703125 285.4342041015625 363.8059997558594 282.0177001953125 361.4623718261719 C 277.0218811035156 358.0262145996094 271.5028381347656 355.42132568359375 265.67462158203125 353.7487487792969 C 263.6597900390625 353.17474365234375 261.5127258300781 352.7091064453125 259.4842529296875 353.23004150390625 C 257.62298583984375 353.8108825683594 255.97088623046875 354.9207763671875 254.7294921875 356.42437744140625 C 250.786376953125 360.83880615234375 248.978271484375 366.7607727050781 249.78314208984375 372.6248474121094 L 253.5511474609375 371.98699951171875" stroke-width="0.6000000238418579" fill="rgb(70, 150, 179)" opacity="1.0"/>
    <path d="M 329.7999572753906 353.5541687011719 C 329.89434814453125 346.4874267578125 329.7022705078125 338.6505432128906 324.8644714355469 333.5047607421875 C 319.6642761230469 327.9801025390625 310.6988830566406 327.70269775390625 303.6648254394531 330.54583740234375 C 300.9523010253906 331.640869140625 298.31207275390625 333.2135925292969 296.68951416015625 335.64715576171875 C 295.3549499511719 337.647216796875 294.8117370605469 340.05987548828125 294.42498779296875 342.43243408203125 C 293.1964111328125 349.9128112792969 293.4106750488281 358.1800842285156 297.88531494140625 364.29718017578125 C 302.3993225097656 370.45916748046875 311.0867614746094 373.22039794921875 318.322265625 370.7512512207031 C 325.5577697753906 368.2821044921875 330.8094787597656 360.84521484375 330.6536865234375 353.196533203125 L 329.7999572753906 353.5541687011719" stroke-width="0.6000000238418579" fill="rgb(140, 28, 33)" opacity="1.0"/>
    <path d="M 365.57049560546875 394.6990051269531 C 357.725341796875 394.0585021972656 349.5549621582031 393.4784851074219 342.156005859375 396.1806640625 C 334.75714111328125 398.8828125 328.29443359375 405.905029296875 328.84619140625 413.76116943359375 C 329.5489196777344 423.457275390625 340.9761962890625 429.71832275390625 350.5146179199219 427.751220703125 C 360.05303955078125 425.7840576171875 367.3724060058594 417.970947265625 372.1670227050781 409.50775146484375 C 373.9137268066406 407.0365905761719 374.67059326171875 404.00054931640625 374.2882080078125 400.99871826171875 C 373.6014404296875 398.1018981933594 369.8925476074219 395.8582458496094 367.4928894042969 397.6451721191406 L 365.57049560546875 394.6990051269531" stroke-width="0.6000000238418579" fill="rgb(159, 159, 159)" opacity="1.0"/>
    <path d="M 174.39328002929688 407.3846130371094 C 166.9071044921875 408.0758972167969 159.49468994140625 411.3471374511719 154.72166442871094 417.15057373046875 C 149.94863891601562 422.95404052734375 148.203125 431.405517578125 151.23532104492188 438.31536865234375 C 153.38528442382812 443.197998046875 157.69302368164062 446.9373779296875 162.57122802734375 449.1087646484375 C 167.449462890625 451.2801513671875 172.86669921875 452.0020751953125 178.207275390625 451.9951171875 C 180.5313720703125 451.99072265625 182.96890258789062 451.81787109375 184.9244384765625 450.57305908203125 C 187.1671142578125 449.14697265625 188.3646240234375 446.579345703125 189.332275390625 444.09539794921875 C 192.06414794921875 437.082763671875 193.82534790039062 429.38433837890625 192.1827392578125 422.03887939453125 C 190.5401611328125 414.693359375 184.77316284179688 407.8975830078125 177.32891845703125 406.91925048828125 L 174.39328002929688 407.3846130371094" stroke-width="0.6000000238418579" fill="rgb(159, 159, 159)" opacity="1.0"/>
    <path d="M 370.52301025390625 364.0602722167969 C 364.583984375 360.8770446777344 357.84454345703125 357.59600830078125 351.38763427734375 359.4765319824219 C 345.105712890625 361.2965087890625 341.1782531738281 367.373779296875 337.9259033203125 373.05145263671875 C 336.6080627441406 375.35986328125 335.2662353515625 377.7958068847656 335.19708251953125 380.4515075683594 C 335.07745361328125 384.9430847167969 338.56402587890625 388.6937255859375 342.21075439453125 391.30731201171875 C 345.5946350097656 393.73443603515625 349.3094787597656 395.6630859375 353.2415771484375 397.03424072265625 C 359.62542724609375 399.262939453125 367.4905700683594 399.6802978515625 372.3912658691406 395.0250549316406 C 375.0406494140625 392.5157470703125 376.3940734863281 388.8578186035156 376.780517578125 385.2236022949219 C 377.16693115234375 381.58935546875 376.66461181640625 377.9219665527344 376.1170654296875 374.30853271484375 C 375.5695495605469 370.695068359375 374.95416259765625 367.1562194824219 373.0186767578125 364.15924072265625 L 370.52301025390625 364.0602722167969" stroke-width="0.6000000238418579" fill="rgb(218, 166, 20)" opacity="1.0"/>
    <path d="M 375.11944580078125 381.1357116699219 C 368.29541015625 390.8244323730469 370.6177062988281 404.2106628417969 380.3064270019531 411.0346984863281 C 381.1360778808594 411.6190490722656 382.0061340332031 412.143798828125 382.9100341796875 412.60498046875 C 386.34503173828125 414.35693359375 390.4410705566406 415.150390625 394.09674072265625 413.9296875 C 397.1861267089844 412.89837646484375 399.6547546386719 410.5650634765625 401.7645263671875 408.0866394042969 C 407.4027404785156 401.4447021484375 411.15966796875 393.4142761230469 412.6451416015625 384.8294982910156 C 413.033935546875 382.55963134765625 413.2552490234375 380.18975830078125 412.5968017578125 377.97784423828125 C 411.49346923828125 374.2638244628906 408.05426025390625 371.63653564453125 404.39520263671875 370.35443115234375 C 398.964111328125 368.4471740722656 392.8300476074219 369.01824951171875 387.561767578125 371.3408203125 C 382.29351806640625 373.6633605957031 377.8514709472656 377.6270446777344 374.42974853515625 382.2568359375 L 375.11944580078125 381.1357116699219" stroke-width="0.6000000238418579" fill="rgb(143, 165, 67)" opacity="1.0"/>
    <path d="M 365.82354736328125 359.5517272949219 C 369.82037353515625 372.9366149902344 390.6898193359375 376.3402099609375 399.4932861328125 365.6105651855469 C 408.2967224121094 354.880859375 401.7440490722656 335.8658447265625 388.371337890625 331.8137512207031 C 374.9986572265625 327.7616882324219 359.5818176269531 338.5747985839844 357.8199768066406 352.449462890625 L 365.82354736328125 359.5517272949219" stroke-width="0.6000000238418579" fill="rgb(233, 92, 21)" opacity="1.0"/>
    <path d="M 403.8135070800781 350.4533386230469 C 401.8630676269531 356.98095703125 400.2102355957031 364.9806823730469 405.02728271484375 369.8311462402344 C 407.0193786621094 371.68682861328125 409.5382385253906 372.8786315917969 412.23638916015625 373.2420654296875 C 418.8880615234375 374.3210144042969 425.65008544921875 372.1089782714844 430.37811279296875 367.30743408203125 C 434.37835693359375 363.22412109375 436.399169921875 357.704833984375 438.22821044921875 352.3260498046875 C 439.250732421875 349.30291748046875 440.2408447265625 346.0583801269531 439.4268798828125 342.9906311035156 C 438.308349609375 338.9104919433594 434.31005859375 336.3463134765625 430.44683837890625 334.625 C 424.796142578125 332.0987854003906 418.7738037109375 330.50384521484375 412.6134033203125 329.90203857421875 C 410.4844665527344 329.6982116699219 408.24285888671875 329.62762451171875 406.3027038574219 330.5256042480469 C 404.54144287109375 331.45281982421875 403.0880126953125 332.8724670410156 402.11962890625 334.6114807128906 C 398.9770202636719 339.772216796875 398.2564697265625 346.0517883300781 400.1485290527344 351.7902526855469 L 403.8135070800781 350.4533386230469" stroke-width="0.6000000238418579" fill="rgb(70, 150, 179)" opacity="1.0"/>
    <path d="M 390.80181884765625 424.6607666015625 C 390.5898132324219 432.13348388671875 390.6685791015625 440.42535400390625 395.7037048339844 445.9447021484375 C 401.1160583496094 451.8704833984375 410.59405517578125 452.30615234375 418.078857421875 449.4107666015625 C 420.9652099609375 448.29559326171875 423.78265380859375 446.674072265625 425.53741455078125 444.1259765625 C 426.980712890625 442.03173828125 427.593505859375 439.488525390625 428.04022216796875 436.9853515625 C 429.4583740234375 429.09307861328125 429.36297607421875 420.34564208984375 424.7274169921875 413.8048095703125 C 420.0509033203125 407.2157897949219 410.90631103515625 404.1574401855469 403.21435546875 406.65411376953125 C 395.52239990234375 409.1507873535156 389.84979248046875 416.9332275390625 389.8931579589844 425.02545166015625 L 390.80181884765625 424.6607666015625" stroke-width="0.6000000238418579" fill="rgb(140, 28, 33)" opacity="1.0"/>
    <path d="M 413.1749267578125 374.9834899902344 C 410.19921875 382.78143310546875 407.18878173828125 390.92840576171875 407.74859619140625 399.2620544433594 C 408.3084716796875 407.5955810546875 413.5440673828125 416.2554931640625 421.70635986328125 418.02056884765625 C 431.78662109375 420.17681884765625 441.54595947265625 410.39642333984375 442.3681640625 400.1021423339844 C 443.19036865234375 389.807861328125 437.4031982421875 380.04150390625 430.20635986328125 372.6531677246094 C 428.2076416015625 370.1428527832031 425.3406982421875 368.4730529785156 422.1710205078125 367.9732971191406 C 419.0181884765625 367.8145446777344 415.63531494140625 370.9263000488281 416.74395751953125 373.8987731933594 L 413.1749267578125 374.9834899902344" stroke-width="0.6000000238418579" fill="rgb(159, 159, 159)" opacity="1.0"/>
    <path d="M 433.01806640625 370.877197265625 C 434.8182373046875 378.154296875 439.15087890625 384.97314453125 445.5855712890625 388.8114929199219 C 452.02020263671875 392.6498718261719 460.61309814453125 393.1078186035156 466.97216796875 389.0859375 C 471.46453857421875 386.2367248535156 474.50738525390625 381.43109130859375 475.91912841796875 376.2973327636719 C 477.3309326171875 371.16357421875 477.233154296875 365.71502685546875 476.42822265625 360.4509582519531 C 476.0765380859375 358.1603698730469 475.5418701171875 355.7831115722656 474.02252197265625 354.04119873046875 C 472.281494140625 352.0433349609375 469.5711669921875 351.2464294433594 466.97772216796875 350.6636047363281 C 459.656005859375 349.01824951171875 451.80316162109375 348.43231201171875 444.806884765625 351.1493225097656 C 437.8106689453125 353.8663635253906 431.97271728515625 360.56732177734375 432.12060546875 368.0525817871094 L 433.01806640625 370.877197265625" stroke-width="0.6000000238418579" fill="rgb(159, 159, 159)" opacity="1.0"/>
    <path d="M 436.632080078125 412.3753662109375 C 432.55426025390625 418.396728515625 428.28240966796875 425.266357421875 429.5828857421875 432.406982421875 C 430.8377685546875 439.35296630859375 436.9248046875 444.2451171875 442.6578369140625 448.3680419921875 C 444.98931884765625 450.0394287109375 447.45501708984375 451.7508544921875 450.2982177734375 452.12054443359375 C 455.10650634765625 452.74853515625 459.5206298828125 449.42303466796875 462.73193359375 445.799072265625 C 465.71380615234375 442.4365234375 468.1973876953125 438.6632080078125 470.10675048828125 434.59466552734375 C 473.2093505859375 427.9896240234375 474.53228759765625 419.59295654296875 470.080078125 413.8143310546875 C 467.68109130859375 410.69110107421875 463.9049072265625 408.831298828125 460.046630859375 408.01220703125 C 456.1883544921875 407.193115234375 452.195556640625 407.32440185546875 448.25567626953125 407.51019287109375 C 444.3157958984375 407.69598388671875 440.44842529296875 407.96295166015625 437.015869140625 409.707275390625 L 436.632080078125 412.3753662109375" stroke-width="0.6000000238418579" fill="rgb(218, 166, 20)" opacity="1.0"/>
    <path d="M 136.7444610595703 211.7181396484375 C 133.64158630371094 224.34320068359375 141.36083984375 237.09320068359375 153.9858856201172 240.19607543945312 C 155.0669708251953 240.4617919921875 156.16552734375 240.65045166015625 157.2733154296875 240.76068115234375 C 161.4827880859375 241.17877197265625 165.98486328125 240.35357666015625 169.23251342773438 237.646240234375 C 171.97723388671875 235.35861206054688 173.56765747070312 231.98855590820312 174.73345947265625 228.61355590820312 C 177.84161376953125 219.57522583007812 178.47296142578125 209.8695068359375 176.56201171875 200.50466918945312 C 176.05270385742188 198.03012084960938 175.33233642578125 195.520263671875 173.77609252929688 193.52322387695312 C 171.1654052734375 190.1690673828125 166.60198974609375 188.858154296875 162.35125732421875 189.00958251953125 C 156.04022216796875 189.23001098632812 150.0007781982422 192.263427734375 145.5454864501953 196.74066162109375 C 141.09019470214844 201.2178955078125 138.13458251953125 207.04196166992188 136.48753356933594 213.13912963867188 L 136.7444610595703 211.7181396484375" stroke-width="0.6000000238418579" fill="rgb(143, 165, 67)" opacity="1.0"/>
    <path d="M 171.77105712890625 264.5419921875 C 181.755126953125 275.73382568359375 203.59521484375 269.5343933105469 207.265380859375 255.09201049804688 C 210.93551635742188 240.64962768554688 195.9014892578125 225.14862060546875 181.0543212890625 227.30197143554688 C 166.2071533203125 229.45529174804688 156.14544677734375 246.991943359375 160.75408935546875 261.28369140625 L 171.77105712890625 264.5419921875" stroke-width="0.6000000238418579" fill="rgb(233, 92, 21)" opacity="1.0"/>
    <path d="M 141.9778289794922 308.649169921875 C 134.8199920654297 309.8616638183594 126.39553833007812 312.0523681640625 124.03019714355469 318.94219970703125 C 123.19558715820312 321.720703125 123.24372863769531 324.6897277832031 124.16804504394531 327.4396667480469 C 126.27191162109375 334.3053283691406 131.57301330566406 339.725341796875 138.39031982421875 341.98095703125 C 144.17816162109375 343.8795471191406 150.4054718017578 343.2095947265625 156.40811157226562 342.4225158691406 C 159.779296875 341.97491455078125 163.34683227539062 341.3919982910156 165.89508056640625 339.168212890625 C 169.26736450195312 336.1762390136719 169.83355712890625 331.1464538574219 169.6578369140625 326.64300537109375 C 169.408935546875 320.0518798828125 168.0948486328125 313.5445251464844 165.76654052734375 307.373291015625 C 164.95797729492188 305.2425842285156 163.96893310546875 303.0669860839844 162.1962890625 301.6359558105469 C 160.48004150390625 300.3896789550781 158.438232421875 299.6697082519531 156.31982421875 299.5638427734375 C 149.90646362304688 298.9927062988281 143.56536865234375 301.26373291015625 138.9727783203125 305.7765808105469 L 141.9778289794922 308.649169921875" stroke-width="0.6000000238418579" fill="rgb(70, 150, 179)" opacity="1.0"/>
    <path d="M 122.76615905761719 301.4733581542969 C 123.5791015625 293.5981140136719 124.14950561523438 284.8348693847656 119.26701354980469 278.6090087890625 C 114.01811218261719 271.9241943359375 104.04275512695312 270.7168884277344 95.90982055664062 273.1847839355469 C 92.773681640625 274.1349792480469 89.67034912109375 275.6253356933594 87.61630249023438 278.1781311035156 C 85.92697143554688 280.2760314941406 85.07929992675781 282.9136047363281 84.41021728515625 285.52203369140625 C 82.29039001464844 293.7452697753906 81.70161437988281 302.99090576171875 86.08164978027344 310.2641296386719 C 90.50112915039062 317.59136962890625 99.91766357421875 321.5421142578125 108.2379150390625 319.5116882324219 C 116.55816650390625 317.48126220703125 123.16246032714844 309.7094421386719 123.75453186035156 301.1598205566406 L 122.76615905761719 301.4733581542969" stroke-width="0.6000000238418579" fill="rgb(140, 28, 33)" opacity="1.0"/>
    <path d="M 145.64810180664062 259.47796630859375 C 138.06419372558594 263.80712890625 130.22044372558594 268.39544677734375 125.13949584960938 275.50537109375 C 120.05863952636719 282.615234375 118.54167175292969 293.09375 123.96929931640625 299.940673828125 C 130.68798828125 308.37750244140625 145.07313537597656 306.94976806640625 152.5734100341797 299.1722412109375 C 160.07366943359375 291.3947448730469 161.87942504882812 279.6554260253906 160.96624755859375 268.90277099609375 C 161.01708984375 265.5458984375 159.8077392578125 262.29205322265625 157.5767822265625 259.7833251953125 C 155.1329345703125 257.56146240234375 150.3314666748047 257.83123779296875 149.25413513183594 260.97076416015625 L 145.64810180664062 259.47796630859375" stroke-width="0.6000000238418579" fill="rgb(159, 159, 159)" opacity="1.0"/>
    <path d="M 159.201904296875 287.4410400390625 C 159.10174560546875 295.36151123046875 161.71316528320312 303.48883056640625 167.26861572265625 309.12933349609375 C 172.82406616210938 314.7698669433594 181.48764038085938 317.5296630859375 189.06201171875 315.1134033203125 C 194.41497802734375 313.3982849121094 198.80770874023438 309.2962951660156 201.6202392578125 304.423828125 C 204.43276977539062 299.5513610839844 205.78585815429688 293.9544982910156 206.36669921875 288.3576354980469 C 206.6180419921875 285.9218444824219 206.70535278320312 283.3486633300781 205.61639404296875 281.1624755859375 C 204.36907958984375 278.6554870605469 201.81045532226562 277.11785888671875 199.31427001953125 275.8303527832031 C 192.26699829101562 272.1954650878906 184.39422607421875 269.5021667480469 176.51641845703125 270.41436767578125 C 168.63861083984375 271.32659912109375 160.882568359375 276.62103271484375 159.03756713867188 284.3136901855469 L 159.201904296875 287.4410400390625" stroke-width="0.6000000238418579" fill="rgb(159, 159, 159)" opacity="1.0"/>
    <path d="M 127.3350830078125 350.0562438964844 C 127.7052001953125 342.1863708496094 127.77566528320312 333.422607421875 122.54118347167969 327.554931640625 C 117.45866394042969 321.8414306640625 109.06829833984375 320.7554931640625 101.43951416015625 320.1808776855469 C 98.34007263183594 319.9520263671875 95.09394836425781 319.7619934082031 92.2564697265625 321.02569580078125 C 87.4561767578125 323.1601867675781 85.25283813476562 328.7274475097656 84.33015441894531 333.8914489746094 C 83.47189331054688 338.6841735839844 83.30628967285156 343.5753173828125 83.83839416503906 348.4151611328125 C 84.69950866699219 356.27398681640625 88.2177734375 364.7843933105469 95.59722900390625 367.6131591796875 C 99.57888793945312 369.1461486816406 104.12043762207031 368.7333679199219 108.15025329589844 367.3119812011719 C 112.18006896972656 365.8905944824219 115.79756164550781 363.51458740234375 119.33538818359375 361.1180419921875 C 122.87319946289062 358.72149658203125 126.29812622070312 356.29083251953125 128.4867706298828 352.7398376464844 L 127.3350830078125 350.0562438964844" stroke-width="0.6000000238418579" fill="rgb(218, 166, 20)" opacity="1.0"/>
    <path d="M 150.84242248535156 341.7547912597656 C 138.59088134765625 341.4651794433594 128.4242706298828 351.1622314453125 128.1346435546875 363.41375732421875 C 128.10984802246094 364.4628601074219 128.15951538085938 365.51239013671875 128.28323364257812 366.5544738769531 C 128.7541046142578 370.5140686035156 130.4288330078125 374.49029541015625 133.5810089111328 376.92926025390625 C 136.24461364746094 378.9906005859375 139.66990661621094 379.7694396972656 143.01341247558594 380.1564636230469 C 151.96461486816406 381.1800231933594 161.026611328125 379.7881774902344 169.258056640625 376.1255187988281 C 171.4322509765625 375.1537170410156 173.59600830078125 373.9804382324219 175.11785888671875 372.14202880859375 C 177.67449951171875 369.0571594238281 177.95343017578125 364.5903015136719 176.949951171875 360.70843505859375 C 175.46417236328125 354.9442443847656 171.44436645507812 350.0018310546875 166.41757202148438 346.81109619140625 C 161.39080810546875 343.6203308105469 155.42921447753906 342.0837707519531 149.48223876953125 341.8071594238281 L 150.84242248535156 341.7547912597656" stroke-width="0.6000000238418579" fill="rgb(143, 165, 67)" opacity="1.0"/>
    <path d="M 138.54022216796875 378.5170593261719 C 135.35107421875 364.4459533691406 114.08096313476562 359.4889221191406 104.26348876953125 369.93463134765625 C 94.44609069824219 380.3804016113281 99.87803649902344 400.4309997558594 113.37750244140625 405.53564453125 C 126.87696838378906 410.6402587890625 143.51547241210938 400.56787109375 146.2947998046875 386.39202880859375 L 138.54022216796875 378.5170593261719" stroke-width="0.6000000238418579" fill="rgb(233, 92, 21)" opacity="1.0"/>
    <path d="M 175.89727783203125 349.2914733886719 C 175.66705322265625 356.609130859375 176.1510009765625 365.3741455078125 182.48956298828125 369.08758544921875 C 185.06954956054688 370.46722412109375 188.01409912109375 371.0122985839844 190.91696166992188 370.64752197265625 C 198.12371826171875 369.938232421875 204.53964233398438 365.7799072265625 208.13018798828125 359.49114990234375 C 211.16226196289062 354.14874267578125 211.7430419921875 347.8592224121094 212.1632080078125 341.7684020996094 C 212.3936767578125 338.3465881347656 212.529541015625 334.70367431640625 210.8399658203125 331.7408142089844 C 208.55548095703125 327.80999755859375 203.69647216796875 326.246337890625 199.20968627929688 325.5210876464844 C 192.64456176757812 324.45147705078125 185.94961547851562 324.4515380859375 179.384521484375 325.5212707519531 C 177.11688232421875 325.8952331542969 174.76882934570312 326.43865966796875 173.00039672851562 327.9052734375 C 171.42587280273438 329.3530578613281 170.30657958984375 331.22772216796875 169.77908325195312 333.3006591796875 C 167.934326171875 339.5263671875 168.91351318359375 346.2479553222656 172.45782470703125 351.6886291503906 L 175.89727783203125 349.2914733886719" stroke-width="0.6000000238418579" fill="rgb(70, 150, 179)" opacity="1.0"/>
  </g>
</svg>
