<?xml version="1.0" ?>
<svg xmlns="http://www.w3.org/2000/svg" version="1.1" width="600" height="600">
  <defs/>
  <g>
    <path d="M 354.2584533691406 343.36932373046875 C 357.916015625 346.7619323730469 364.9534912109375 344.0232849121094 365.71539306640625 339.1255798339844 C 366.47723388671875 334.22784423828125 361.01214599609375 329.56689453125 356.1632385253906 330.7461242675781 C 351.3143310546875 331.92535400390625 348.5331115722656 338.04840087890625 350.5079650878906 342.63629150390625 L 354.2584533691406 343.36932373046875" stroke-width="0.6000000238418579" fill="rgb(233, 92, 21)" opacity="1.0"/>
    <path d="M 122.70845031738281 209.07879638671875 C 126.80751037597656 209.2470703125 131.7213897705078 209.02294921875 133.83615112304688 205.4912109375 C 134.62306213378906 204.05294799804688 134.94427490234375 202.40597534179688 134.75546264648438 200.7774658203125 C 134.396728515625 196.7354736328125 132.10113525390625 193.1181640625 128.5966339111328 191.072509765625 C 125.61941528320312 189.34487915039062 122.09832763671875 188.98568725585938 118.68771362304688 188.71759033203125 C 116.7716064453125 188.570068359375 114.73112487792969 188.474365234375 113.06185913085938 189.40521240234375 C 110.84707641601562 190.66415405273438 109.94482421875 193.37841796875 109.51435852050781 195.88858032226562 C 108.87979125976562 199.56146240234375 108.84388732910156 203.31283569335938 109.40805053710938 206.9971923828125 C 109.60542297363281 208.26983642578125 109.89730834960938 209.58840942382812 110.70960998535156 210.58718872070312 C 111.51239013671875 211.47720336914062 112.55680847167969 212.11444091796875 113.71549987792969 212.421142578125 C 117.19404602050781 213.48822021484375 120.96560668945312 212.97564697265625 124.03317260742188 211.01885986328125 L 122.70845031738281 209.07879638671875" stroke-width="0.6000000238418579" fill="rgb(70, 150, 179)" opacity="1.0"/>
    <path d="M 459.063232421875 404.33612060546875 C 461.166259765625 406.6488952636719 463.59442138671875 409.1241455078125 466.7117919921875 409.3268737792969 C 470.06072998046875 409.54266357421875 473.04248046875 406.9255676269531 474.45782470703125 403.8828430175781 C 475.0040283203125 402.7099304199219 475.38262939453125 401.4044189453125 475.17236328125 400.1278991699219 C 474.99993896484375 399.0784606933594 474.44708251953125 398.13458251953125 473.8558349609375 397.25091552734375 C 471.9945068359375 394.46197509765625 469.42919921875 391.8543395996094 466.135986328125 391.22796630859375 C 462.81640625 390.5989685058594 459.174560546875 392.3293151855469 457.58123779296875 395.31195068359375 C 455.98785400390625 398.29461669921875 456.53558349609375 402.28411865234375 458.89520263671875 404.70947265625 L 459.063232421875 404.33612060546875" stroke-width="0.6000000238418579" fill="rgb(140, 28, 33)" opacity="1.0"/>
    <path d="M 87.65878295898438 209.44070434570312 C 92.29556274414062 209.71780395507812 97.12344360351562 209.95501708984375 101.45404052734375 208.26571655273438 C 105.7845458984375 206.576416015625 109.50727844238281 202.350341796875 109.080810546875 197.722412109375 C 108.5416259765625 192.0108642578125 101.71923828125 188.46368408203125 96.116943359375 189.746826171875 C 90.5146484375 191.02996826171875 86.29667663574219 195.733642578125 83.57662963867188 200.7884521484375 C 82.57785034179688 202.26885986328125 82.17031860351562 204.06982421875 82.43447875976562 205.8359375 C 82.87687683105469 207.53622436523438 85.09393310546875 208.81228637695312 86.48672485351562 207.72720336914062 L 87.65878295898438 209.44070434570312" stroke-width="0.6000000238418579" fill="rgb(159, 159, 159)" opacity="1.0"/>
    <path d="M 383.2114562988281 312.1565856933594 C 387.5242004394531 311.3160095214844 391.6429138183594 308.9794616699219 394.07843017578125 305.3250732421875 C 396.5139465332031 301.6706848144531 397.0338134765625 296.6538391113281 394.8657531738281 292.8133850097656 C 393.3294677734375 290.10009765625 390.60540771484375 288.177978515625 387.6414794921875 287.20111083984375 C 384.6775207519531 286.2242431640625 381.485107421875 286.121826171875 378.3799133300781 286.43878173828125 C 377.0287170410156 286.5775146484375 375.62139892578125 286.82086181640625 374.5571594238281 287.6592712402344 C 373.33660888671875 288.61993408203125 372.7906799316406 290.1832275390625 372.3735046386719 291.684326171875 C 371.1957702636719 295.9222412109375 370.6226806640625 300.5021057128906 372.0082092285156 304.67730712890625 C 373.39373779296875 308.8525390625 377.14544677734375 312.4664306640625 381.5316162109375 312.5992126464844 L 383.2114562988281 312.1565856933594" stroke-width="0.6000000238418579" fill="rgb(159, 159, 159)" opacity="1.0"/>
    <path d="M 104.79515075683594 418.6748046875 C 107.85099792480469 416.6312255859375 111.1591796875 414.227294921875 111.909423828125 410.6357727050781 C 112.64396667480469 407.1440734863281 110.72467041015625 403.69439697265625 108.82467651367188 400.67230224609375 C 108.051025390625 399.44573974609375 107.22210693359375 398.1749267578125 105.96101379394531 397.4606018066406 C 103.82882690429688 396.2511901855469 101.12864685058594 396.9682922363281 98.93495178222656 398.05413818359375 C 96.8984375 399.0611877441406 95.01708984375 400.35546875 93.34848022460938 401.8973083496094 C 90.63821411132812 404.3998718261719 88.42031860351562 408.0802307128906 89.40528869628906 411.6338806152344 C 89.93423461914062 413.5531005859375 91.34857177734375 415.1429443359375 92.99951171875 416.26092529296875 C 94.65045166015625 417.37896728515625 96.54525756835938 418.0775146484375 98.42568969726562 418.740478515625 C 100.30610656738281 419.4034423828125 102.16802978515625 420.0146484375 104.10751342773438 419.8511962890625 L 104.79515075683594 418.6748046875" stroke-width="0.6000000238418579" fill="rgb(218, 166, 20)" opacity="1.0"/>
    <path d="M 99.76156616210938 155.72219848632812 C 107.54283142089844 158.10748291015625 115.78445434570312 153.7332000732422 118.16973876953125 145.95193481445312 C 118.37400817871094 145.28562927246094 118.53073120117188 144.6056671142578 118.63876342773438 143.91717529296875 C 119.04875183105469 141.3009796142578 118.6920166015625 138.45794677734375 117.11460876464844 136.33248901367188 C 115.78175354003906 134.53619384765625 113.73159790039062 133.42311096191406 111.66334533691406 132.5752410888672 C 106.1240234375 130.3133544921875 100.08010864257812 129.575927734375 94.159423828125 130.43951416015625 C 92.59480285644531 130.67042541503906 91.00065612792969 131.03199768066406 89.697509765625 131.9341583251953 C 87.50888061523438 133.44740295410156 86.52836608886719 136.25328063964844 86.47286987304688 138.91543579101562 C 86.38771057128906 142.86769104003906 88.0703125 146.74960327148438 90.71128845214844 149.6923828125 C 93.35226440429688 152.63514709472656 96.88798522949219 154.68817138671875 100.64064025878906 155.93296813964844 L 99.76156616210938 155.72219848632812" stroke-width="0.6000000238418579" fill="rgb(143, 165, 67)" opacity="1.0"/>
    <path d="M 460.79949951171875 344.4275207519531 C 463.994140625 351.5219421386719 475.766845703125 351.86041259765625 479.83502197265625 345.2869567871094 C 483.903076171875 338.7135009765625 478.8818359375 328.6994934082031 471.199951171875 327.4495849609375 C 463.51812744140625 326.19970703125 455.8050537109375 333.30743408203125 455.85662841796875 341.09735107421875 L 460.79949951171875 344.4275207519531" stroke-width="0.6000000238418579" fill="rgb(233, 92, 21)" opacity="1.0"/>
    <path d="M 107.25332641601562 227.74542236328125 C 110.12179565429688 224.25250244140625 113.18597412109375 219.78262329101562 111.48379516601562 215.5789794921875 C 110.74130249023438 213.93246459960938 109.50619506835938 212.55691528320312 107.94879150390625 211.64212036132812 C 104.15632629394531 209.2750244140625 99.4517822265625 208.89291381835938 95.3270263671875 210.61700439453125 C 91.83184814453125 212.0885009765625 89.17909240722656 214.94644165039062 86.67974853515625 217.7677001953125 C 85.27835083007812 219.35476684570312 83.83995056152344 221.08560180664062 83.55062866210938 223.1712646484375 C 83.18780517578125 225.9544677734375 84.97581481933594 228.54928588867188 86.89752197265625 230.59378051757812 C 89.7061767578125 233.58944702148438 92.981201171875 236.1107177734375 96.59555053710938 238.05987548828125 C 97.84567260742188 238.73095703125 99.19892883300781 239.34939575195312 100.6163330078125 239.2979736328125 C 101.93179321289062 239.18270874023438 103.185302734375 238.68719482421875 104.22401428222656 237.871826171875 C 107.47103881835938 235.5211181640625 109.52340698242188 231.86431884765625 109.83859252929688 227.86807250976562 L 107.25332641601562 227.74542236328125" stroke-width="0.6000000238418579" fill="rgb(70, 150, 179)" opacity="1.0"/>
    <path d="M 109.15875244140625 82.64253234863281 C 109.63943481445312 86.97335815429688 110.35406494140625 91.7535400390625 113.70602416992188 94.53329467773438 C 117.30859375 97.5172119140625 122.81500244140625 97.00387573242188 126.90202331542969 94.72842407226562 C 128.47817993164062 93.85177612304688 129.97372436523438 92.68838500976562 130.78102111816406 91.07582092285156 C 131.44517517089844 89.75045776367188 131.5937042236328 88.23291015625 131.64955139160156 86.75186157226562 C 131.831298828125 82.08154296875 131.0703125 77.03971862792969 127.86653137207031 73.63803100585938 C 124.63523864746094 70.21188354492188 119.10963439941406 69.18438720703125 114.87088012695312 71.24636840820312 C 110.63211059570312 73.30833435058594 107.98558044433594 78.25857543945312 108.66366577148438 82.9263916015625 L 109.15875244140625 82.64253234863281" stroke-width="0.6000000238418579" fill="rgb(140, 28, 33)" opacity="1.0"/>
    <path d="M 93.56524658203125 400.7654113769531 C 95.92547607421875 397.82476806640625 98.3489990234375 394.73883056640625 99.26321411132812 391.0778503417969 C 100.17739868164062 387.41693115234375 99.12628173828125 382.9676208496094 95.8612060546875 381.0774841308594 C 91.82559204101562 378.7533264160156 86.27374267578125 381.6062927246094 84.49354553222656 385.9187927246094 C 82.71334838867188 390.2312927246094 83.8482666015625 395.2327575683594 85.91893005371094 399.4070739746094 C 86.43045043945312 400.76348876953125 87.43182373046875 401.87884521484375 88.7254638671875 402.5329895019531 C 90.05915832519531 403.0381774902344 91.94502258300781 402.1689758300781 91.8802490234375 400.7372131347656 L 93.56524658203125 400.7654113769531" stroke-width="0.6000000238418579" fill="rgb(159, 159, 159)" opacity="1.0"/>
    <path d="M 477.704833984375 67.67431640625 C 479.230224609375 64.00181579589844 479.5306396484375 59.7266845703125 477.99468994140625 56.060821533203125 C 476.458740234375 52.39495849609375 472.9365234375 49.491302490234375 468.9554443359375 49.20323181152344 C 466.140625 49.00311279296875 463.32763671875 50.09466552734375 461.107177734375 51.84028625488281 C 458.88677978515625 53.58592224121094 457.2113037109375 55.941619873046875 455.8956298828125 58.441497802734375 C 455.32373046875 59.52972412109375 454.8026123046875 60.71260070800781 454.9019775390625 61.93475341796875 C 455.01519775390625 63.335968017578125 455.9205322265625 64.53024291992188 456.843505859375 65.59629821777344 C 459.4490966796875 68.60598754882812 462.615234375 71.33099365234375 466.456787109375 72.37666320800781 C 470.2984619140625 73.42233276367188 474.9014892578125 72.40299987792969 477.197509765625 69.16244506835938 L 477.704833984375 67.67431640625" stroke-width="0.6000000238418579" fill="rgb(159, 159, 159)" opacity="1.0"/>
    <path d="M 88.947265625 112.55592346191406 C 93.38558959960938 114.27833557128906 98.39361572265625 116.0006103515625 102.76031494140625 114.12739562988281 C 107.009521484375 112.31166076660156 109.24198913574219 107.71246337890625 111.03530883789062 103.45150756835938 C 111.76127624511719 101.719482421875 112.49313354492188 99.89595031738281 112.3135986328125 98.027587890625 C 112.01181030273438 94.86741638183594 109.24467468261719 92.53648376464844 106.46282958984375 91.01675415039062 C 103.88134765625 89.60517883300781 101.11053466796875 88.57160949707031 98.23524475097656 87.94766235351562 C 93.56692504882812 86.93283081054688 88.01533508300781 87.31550598144531 84.97825622558594 91.0009765625 C 83.33572387695312 92.98825073242188 82.70065307617188 95.66972351074219 82.74171447753906 98.25155639648438 C 82.78277587890625 100.83340454101562 83.449951171875 103.3621826171875 84.14421081542969 105.8492431640625 C 84.83845520019531 108.33631896972656 85.57389831542969 110.76524353027344 87.18856811523438 112.7008056640625 L 88.947265625 112.55592346191406" stroke-width="0.6000000238418579" fill="rgb(218, 166, 20)" opacity="1.0"/>
    <path d="M 130.59799194335938 138.4949188232422 C 137.3076934814453 137.46524047851562 141.91226196289062 131.1912078857422 140.88258361816406 124.48150634765625 C 140.79441833496094 123.90695190429688 140.66558837890625 123.33938598632812 140.49710083007812 122.78305053710938 C 139.85646057128906 120.66925048828125 138.5576629638672 118.6630859375 136.60214233398438 117.63851928710938 C 134.9496612548828 116.77252197265625 133.006103515625 116.67979431152344 131.1451416015625 116.7928466796875 C 126.1641845703125 117.10232543945312 121.35696411132812 118.73985290527344 117.22282409667969 121.53529357910156 C 116.13128662109375 122.27606201171875 115.06497192382812 123.12567138671875 114.4132080078125 124.27581787109375 C 113.31793212890625 126.2060546875 113.59880065917969 128.669189453125 114.52236938476562 130.68896484375 C 115.89144897460938 133.6885528564453 118.56283569335938 135.99432373046875 121.61361694335938 137.24717712402344 C 124.66436767578125 138.5000457763672 128.06460571289062 138.76014709472656 131.334716796875 138.33450317382812 L 130.59799194335938 138.4949188232422" stroke-width="0.6000000238418579" fill="rgb(143, 165, 67)" opacity="1.0"/>
    <path d="M 402.3326110839844 309.7425842285156 C 405.2943420410156 318.4532165527344 419.1141357421875 320.17706298828125 424.64288330078125 312.8973388671875 C 430.17156982421875 305.61761474609375 425.38836669921875 293.2646179199219 416.48663330078125 290.9284973144531 C 407.58489990234375 288.5923767089844 397.7055358886719 296.09063720703125 396.88922119140625 305.26611328125 L 402.3326110839844 309.7425842285156" stroke-width="0.6000000238418579" fill="rgb(233, 92, 21)" opacity="1.0"/>
    <path d="M 124.53643798828125 115.95254516601562 C 128.61524963378906 116.02493286132812 133.4949951171875 115.68836975097656 135.51556396484375 112.12847900390625 C 136.2645263671875 110.68048095703125 136.5457305908203 109.0357666015625 136.32032775878906 107.42120361328125 C 135.87013244628906 103.41134643554688 133.5043182373047 99.86845397949219 129.9730987548828 97.91600036621094 C 126.97341918945312 96.2674560546875 123.46475219726562 95.99189758300781 120.06802368164062 95.80430603027344 C 118.1597900390625 95.7020263671875 116.12908935546875 95.65414428710938 114.49122619628906 96.61813354492188 C 112.318603515625 97.92094421386719 111.4844970703125 100.64009094238281 111.11468505859375 103.14544677734375 C 110.56887817382812 106.8114013671875 110.62004089355469 110.54150390625 111.26617431640625 114.19110107421875 C 111.49185180664062 115.45167541503906 111.81254577636719 116.7557373046875 112.64317321777344 117.72982788085938 C 113.46182250976562 118.59603881835938 114.51486206054688 119.205322265625 115.673828125 119.4833984375 C 119.15658569335938 120.46366882324219 122.89405822753906 119.86679077148438 125.89828491210938 117.85052490234375 L 124.53643798828125 115.95254516601562" stroke-width="0.6000000238418579" fill="rgb(70, 150, 179)" opacity="1.0"/>
    <path d="M 417.3221435546875 64.91438293457031 C 418.6563720703125 67.96527099609375 420.263427734375 71.29093933105469 423.340576171875 72.55799865722656 C 426.6468505859375 73.9171142578125 430.54815673828125 72.29202270507812 433.0135498046875 69.70352172851562 C 433.96453857421875 68.70590209960938 434.79156494140625 67.51736450195312 435.014404296875 66.15737915039062 C 435.197998046875 65.03948974609375 434.9617919921875 63.89845275878906 434.6661376953125 62.805084228515625 C 433.7381591796875 59.35603332519531 432.037841796875 55.84999084472656 428.9276123046875 54.09547424316406 C 425.791748046875 52.32936096191406 421.52655029296875 52.83451843261719 418.9019775390625 55.30171203613281 C 416.27734375 57.7689208984375 415.470458984375 61.98197937011719 417.02532958984375 65.23394775390625 L 417.3221435546875 64.91438293457031" stroke-width="0.6000000238418579" fill="rgb(140, 28, 33)" opacity="1.0"/>
    <path d="M 121.46025085449219 425.58636474609375 C 123.343994140625 422.7823486328125 125.27325439453125 419.84375 125.81156921386719 416.5064697265625 C 126.349853515625 413.169189453125 125.07400512695312 409.2772216796875 122.01602172851562 407.83770751953125 C 118.2373046875 406.0692138671875 113.49787902832031 409.0371398925781 112.2359619140625 413.021728515625 C 110.97406005859375 417.00640869140625 112.36660766601562 421.3848876953125 114.53169250488281 424.9539794921875 C 115.09121704101562 426.1259765625 116.0697021484375 427.04559326171875 117.27412414550781 427.5313720703125 C 118.50297546386719 427.88116455078125 120.12043762207031 426.962158203125 119.95401000976562 425.68902587890625 L 121.46025085449219 425.58636474609375" stroke-width="0.6000000238418579" fill="rgb(159, 159, 159)" opacity="1.0"/>
    <path d="M 476.26904296875 447.15924072265625 C 476.763427734375 445.091552734375 476.5601806640625 442.80938720703125 475.43914794921875 441.0042724609375 C 474.318115234375 439.19915771484375 472.21307373046875 437.9644775390625 470.0872802734375 438.1494140625 C 468.58441162109375 438.281982421875 467.19189453125 439.09625244140625 466.16754150390625 440.20562744140625 C 465.1431884765625 441.3150634765625 464.4581298828125 442.7003173828125 463.9752197265625 444.13128662109375 C 463.765380859375 444.754150390625 463.5904541015625 445.42266845703125 463.746337890625 446.05938720703125 C 463.9246826171875 446.7894287109375 464.503662109375 447.34326171875 465.0810546875 447.827880859375 C 466.711181640625 449.19610595703125 468.6131591796875 450.3665771484375 470.7294921875 450.59344482421875 C 472.845947265625 450.8203125 475.189453125 449.89263916015625 476.127197265625 447.9876708984375 L 476.26904296875 447.15924072265625" stroke-width="0.6000000238418579" fill="rgb(159, 159, 159)" opacity="1.0"/>
    <path d="M 456.06597900390625 298.20037841796875 C 455.3143310546875 293.8658142089844 454.291015625 289.0802917480469 450.7269287109375 286.51605224609375 C 447.264404296875 284.0174255371094 442.559326171875 284.44195556640625 438.3314208984375 285.0529479980469 C 436.6142578125 285.3036804199219 434.82177734375 285.5933837890625 433.42822265625 286.6259460449219 C 431.07025146484375 288.3709411621094 430.543701171875 291.6725158691406 430.6663818359375 294.5990905761719 C 430.7791748046875 297.3155212402344 431.28143310546875 300.0016784667969 432.1578369140625 302.5753173828125 C 433.5792236328125 306.7547302246094 436.52801513671875 310.9674072265625 440.89312744140625 311.6153259277344 C 443.24920654296875 311.9685363769531 445.6746826171875 311.193359375 447.6990966796875 309.9303894042969 C 449.7235107421875 308.66741943359375 451.407470703125 306.9340515136719 453.0455322265625 305.1991271972656 C 454.68365478515625 303.4642028808594 456.25604248046875 301.724365234375 457.01885986328125 299.52362060546875 L 456.06597900390625 298.20037841796875" stroke-width="0.6000000238418579" fill="rgb(218, 166, 20)" opacity="1.0"/>
    <path d="M 426.9346923828125 372.1321716308594 C 425.156005859375 373.4511413574219 424.78338623046875 375.9622802734375 426.1024169921875 377.74090576171875 C 426.21533203125 377.8932189941406 426.33892822265625 378.0373229980469 426.4722900390625 378.172119140625 C 426.97900390625 378.6842956542969 427.65924072265625 379.065185546875 428.37939453125 379.0628662109375 C 428.9879150390625 379.0610046386719 429.562744140625 378.7917175292969 430.082275390625 378.47564697265625 C 431.471923828125 377.6277160644531 432.6092529296875 376.4231872558594 433.3759765625 374.98712158203125 C 433.5780029296875 374.6072082519531 433.7562255859375 374.19970703125 433.76904296875 373.7686767578125 C 433.791015625 373.0450439453125 433.33477783203125 372.3773193359375 432.7607421875 371.93536376953125 C 431.908935546875 371.2786560058594 430.78717041015625 371.0204162597656 429.71630859375 371.1236877441406 C 428.6455078125 371.2269287109375 427.625 371.6697998046875 426.74658203125 372.2906494140625 L 426.9346923828125 372.1321716308594" stroke-width="0.6000000238418579" fill="rgb(143, 165, 67)" opacity="1.0"/>
    <path d="M 452.416259765625 346.04425048828125 C 458.66015625 343.075927734375 458.74462890625 332.6109924316406 452.8302001953125 329.11767578125 C 446.915771484375 325.6243591308594 438.1116943359375 330.26904296875 437.14239501953125 337.1164245605469 C 436.173095703125 343.96380615234375 442.62908935546875 350.6853942871094 449.548583984375 350.4965515136719 L 452.416259765625 346.04425048828125" stroke-width="0.6000000238418579" fill="rgb(233, 92, 21)" opacity="1.0"/>
    <path d="M 448.589599609375 68.71681213378906 C 452.1944580078125 67.84390258789062 456.4100341796875 66.42732238769531 457.3701171875 62.83160400390625 C 457.696533203125 61.38578796386719 457.5662841796875 59.87431335449219 456.9971923828125 58.50569152832031 C 455.680419921875 55.08149719238281 452.78564453125 52.50794982910156 449.23077392578125 51.601165771484375 C 446.21331787109375 50.839691162109375 443.0633544921875 51.4029541015625 440.0321044921875 52.01788330078125 C 438.32989501953125 52.3660888671875 436.532470703125 52.790252685546875 435.3128662109375 54.01438903808594 C 433.70074462890625 55.659393310546875 433.59130859375 58.2430419921875 433.84130859375 60.53199768066406 C 434.202880859375 63.882354736328125 435.10443115234375 67.152099609375 436.5108642578125 70.21438598632812 C 436.9989013671875 71.27153015136719 437.5804443359375 72.34512329101562 438.53485107421875 73.01132202148438 C 439.4539794921875 73.58535766601562 440.520263671875 73.87957763671875 441.6036376953125 73.85806274414062 C 444.89263916015625 73.92071533203125 448.0435791015625 72.53741455078125 450.2235107421875 70.07382202148438 L 448.589599609375 68.71681213378906" stroke-width="0.6000000238418579" fill="rgb(70, 150, 179)" opacity="1.0"/>
    <path d="M 456.14251708984375 400.4228820800781 C 456.59716796875 397.2629089355469 456.96844482421875 393.74127197265625 455.1016845703125 391.1539306640625 C 453.0947265625 388.3757629394531 449.094970703125 387.72833251953125 445.7781982421875 388.5914001464844 C 444.499267578125 388.92364501953125 443.224853515625 389.4740295410156 442.35601806640625 390.4694519042969 C 441.6414794921875 391.2874755859375 441.25732421875 392.3365173339844 440.9456787109375 393.376708984375 C 439.9588623046875 396.65576171875 439.5723876953125 400.3714904785156 441.2197265625 403.3727111816406 C 442.8822021484375 406.3963317871094 446.61248779296875 408.1401672363281 449.9976806640625 407.45635986328125 C 453.3828125 406.7725524902344 456.16925048828125 403.74774169921875 456.5457763671875 400.3125 L 456.14251708984375 400.4228820800781" stroke-width="0.6000000238418579" fill="rgb(140, 28, 33)" opacity="1.0"/>
    <path d="M 122.93986511230469 214.80242919921875 C 118.30513000488281 219.15335083007812 113.53038024902344 223.7318115234375 111.13916015625 229.6268310546875 C 108.74800109863281 235.52178955078125 109.45111083984375 243.19720458984375 114.45468139648438 247.1239013671875 C 120.64187622070312 251.95721435546875 130.58349609375 248.50692749023438 134.57423400878906 241.72900390625 C 138.56495666503906 234.9510498046875 137.85244750976562 226.3341064453125 135.38247680664062 218.8768310546875 C 134.84915161132812 216.49176025390625 133.44119262695312 214.393310546875 131.43637084960938 212.99566650390625 C 129.32949829101562 211.837158203125 125.97611999511719 212.8424072265625 125.74586486816406 215.24771118164062 L 122.93986511230469 214.80242919921875" stroke-width="0.6000000238418579" fill="rgb(159, 159, 159)" opacity="1.0"/>
    <path d="M 107.95697021484375 239.90594482421875 C 102.46337890625 238.58331298828125 96.39695739746094 239.1141357421875 91.5946044921875 242.086181640625 C 86.79226684570312 245.0582275390625 83.50204467773438 250.64801025390625 83.98458862304688 256.29888916015625 C 84.33079528808594 260.2937316894531 86.48922729492188 263.9981994628906 89.43356323242188 266.725341796875 C 92.3779296875 269.4525146484375 96.0570068359375 271.27911376953125 99.8582763671875 272.5685119628906 C 101.51284790039062 273.128662109375 103.28890991210938 273.5964660644531 104.98187255859375 273.184814453125 C 106.92304992675781 272.71380615234375 108.39736938476562 271.17724609375 109.68783569335938 269.64459228515625 C 113.3310546875 265.31756591796875 116.44990539550781 260.26739501953125 117.06159973144531 254.643310546875 C 117.67327880859375 249.01922607421875 115.21743774414062 242.78662109375 110.15834045410156 240.28634643554688 L 107.95697021484375 239.90594482421875" stroke-width="0.6000000238418579" fill="rgb(159, 159, 159)" opacity="1.0"/>
    <path d="M 286.4382019042969 87.89614868164062 C 285.0615234375 93.62725830078125 283.779541015625 100.05728149414062 286.8023681640625 105.10385131835938 C 289.73516845703125 110.01577758789062 295.7482604980469 111.99154663085938 301.27349853515625 113.48466491699219 C 303.5189514160156 114.08792114257812 305.8776550292969 114.6832275390625 308.1401062011719 114.15290832519531 C 311.9671630859375 113.25823974609375 314.36773681640625 109.47651672363281 315.7706604003906 105.81134033203125 C 317.0740966796875 102.40994262695312 317.88238525390625 98.83900451660156 318.1707458496094 95.20783996582031 C 318.6411437988281 89.31199645996094 317.25042724609375 82.56437683105469 312.2248229980469 79.4498291015625 C 309.5141296386719 77.76443481445312 306.118896484375 77.43023681640625 302.9581298828125 77.90904235839844 C 299.79736328125 78.38786315917969 296.8055725097656 79.62603759765625 293.86944580078125 80.8905029296875 C 290.9333190917969 82.15495300292969 288.0753479003906 83.4603271484375 285.9685974121094 85.76249694824219 L 286.4382019042969 87.89614868164062" stroke-width="0.6000000238418579" fill="rgb(218, 166, 20)" opacity="1.0"/>
    <path d="M 228.10247802734375 122.08282470703125 C 221.606201171875 114.35498046875 210.07528686523438 113.35661315917969 202.34747314453125 119.85287475585938 C 201.68572998046875 120.40914916992188 201.06427001953125 121.01167297363281 200.48779296875 121.65591430664062 C 198.29779052734375 124.10421752929688 196.75341796875 127.30545043945312 196.9638671875 130.5819854736328 C 197.1414794921875 133.3509063720703 198.5264892578125 135.89169311523438 200.10906982421875 138.16845703125 C 204.3536376953125 144.2569580078125 210.15106201171875 149.09786987304688 216.8990478515625 152.18838500976562 C 218.68414306640625 153.00228881835938 220.58798217773438 153.6999969482422 222.5531005859375 153.63864135742188 C 225.8521728515625 153.53758239746094 228.76416015625 151.27618408203125 230.615966796875 148.54112243652344 C 233.36801147460938 144.48248291015625 234.231689453125 139.3058319091797 233.46435546875 134.46139526367188 C 232.69705200195312 129.61695861816406 230.3983154296875 125.09616088867188 227.32904052734375 121.27093505859375 L 228.10247802734375 122.08282470703125" stroke-width="0.6000000238418579" fill="rgb(143, 165, 67)" opacity="1.0"/>
    <path d="M 205.86517333984375 90.76959228515625 C 207.92453002929688 101.454833984375 223.83697509765625 105.71261596679688 231.49349975585938 98.07891845703125 C 239.14996337890625 90.4451904296875 235.54644775390625 75.197509765625 225.49530029296875 71.01882934570312 C 215.44415283203125 66.84014892578125 202.6549072265625 74.02531433105469 200.2125244140625 84.64329528808594 L 205.86517333984375 90.76959228515625" stroke-width="0.6000000238418579" fill="rgb(233, 92, 21)" opacity="1.0"/>
    <path d="M 203.4483642578125 94.94375610351562 C 201.49740600585938 89.42449951171875 198.59451293945312 83.03398132324219 192.79449462890625 82.10556030273438 C 190.471923828125 81.82591247558594 188.11984252929688 82.27383422851562 186.06268310546875 83.38763427734375 C 180.8985595703125 86.00643920898438 177.32412719726562 90.9658203125 176.47283935546875 96.69308471679688 C 175.76318359375 101.55322265625 177.15472412109375 106.4080810546875 178.60833740234375 111.06826782226562 C 179.42910766601562 113.68476867675781 180.38446044921875 116.43853759765625 182.5028076171875 118.15614318847656 C 185.34515380859375 120.42240905761719 189.419189453125 120.17816162109375 192.97271728515625 119.41714477539062 C 198.1746826171875 118.30989074707031 203.16314697265625 116.36796569824219 207.74459838867188 113.66667175292969 C 209.32574462890625 112.73028564453125 210.91769409179688 111.64431762695312 211.80999755859375 110.03860473632812 C 212.563232421875 108.50314331054688 212.85345458984375 106.78166198730469 212.645263671875 105.08409118652344 C 212.21405029296875 99.91017150878906 209.53482055664062 95.18585205078125 205.31585693359375 92.16000366210938 L 203.4483642578125 94.94375610351562" stroke-width="0.6000000238418579" fill="rgb(70, 150, 179)" opacity="1.0"/>
    <path d="M 254.7611083984375 126.89543151855469 C 248.88302612304688 126.88563537597656 242.36724853515625 127.12158203125 238.13467407226562 131.19505310058594 C 233.590576171875 135.57357788085938 233.447021484375 143.03248596191406 235.87994384765625 148.85482788085938 C 236.81704711914062 151.10008239746094 238.15069580078125 153.2805938720703 240.19036865234375 154.60635375976562 C 241.86672973632812 155.69683837890625 243.8785400390625 156.1251220703125 245.85546875 156.4237060546875 C 252.088623046875 157.37274169921875 258.9621276855469 157.11419677734375 264.0060119628906 153.33331298828125 C 269.0868225097656 149.51925659179688 271.29876708984375 142.26734924316406 269.1749267578125 136.27383422851562 C 267.05108642578125 130.2803192138672 260.81500244140625 125.98495483398438 254.45538330078125 126.18887329101562 L 254.7611083984375 126.89543151855469" stroke-width="0.6000000238418579" fill="rgb(140, 28, 33)" opacity="1.0"/>
    <path d="M 291.81982421875 122.02102661132812 C 286.0722961425781 124.962158203125 280.12408447265625 128.0859375 276.1312255859375 133.16546630859375 C 272.138427734375 138.2449188232422 270.6639709472656 145.93280029296875 274.4413146972656 151.17312622070312 C 279.1184997558594 157.63134765625 289.79119873046875 157.06292724609375 295.5934753417969 151.57208251953125 C 301.395751953125 146.08123779296875 303.1260681152344 137.471923828125 302.81494140625 129.49948120117188 C 302.96588134765625 127.02189636230469 302.1826171875 124.57785034179688 300.61968994140625 122.64959716796875 C 298.8898010253906 120.926025390625 295.33447265625 120.96302795410156 294.43267822265625 123.24540710449219 L 291.81982421875 122.02102661132812" stroke-width="0.6000000238418579" fill="rgb(159, 159, 159)" opacity="1.0"/>
    <path d="M 196.0777587890625 134.12681579589844 C 192.74896240234375 129.0581512451172 187.61105346679688 125.01957702636719 181.67010498046875 123.81988525390625 C 175.72918701171875 122.62020874023438 169.04986572265625 124.57962036132812 165.278564453125 129.35690307617188 C 162.61651611328125 132.7378692626953 161.5860595703125 137.22210693359375 161.8883056640625 141.5184326171875 C 162.1905517578125 145.81478881835938 163.72909545898438 149.94569396972656 165.7576904296875 153.745849609375 C 166.64141845703125 155.39906311035156 167.6881103515625 157.0692138671875 169.3154296875 157.99005126953125 C 171.18063354492188 159.04656982421875 173.46270751953125 158.9263916015625 175.59808349609375 158.67425537109375 C 181.6265869140625 157.96234130859375 187.775634765625 156.2994384765625 192.3836669921875 152.3465576171875 C 196.99169921875 148.39366149902344 199.6455078125 141.71226501464844 197.521484375 136.04083251953125 L 196.0777587890625 134.12681579589844" stroke-width="0.6000000238418579" fill="rgb(159, 159, 159)" opacity="1.0"/>
    <path d="M 277.10467529296875 99.79013061523438 C 271.7200927734375 100.07368469238281 265.74713134765625 100.62213134765625 262.10748291015625 104.586181640625 C 258.5624694824219 108.43624877929688 258.3939514160156 114.22401428222656 258.5218505859375 119.45835876464844 C 258.576904296875 121.58465576171875 258.66845703125 123.8082275390625 259.7221374511719 125.654541015625 C 261.50244140625 128.77828979492188 265.4436950683594 129.89987182617188 269.023193359375 130.17677307128906 C 272.3454895019531 130.43507385253906 275.6876525878906 130.2149658203125 278.9473571777344 129.52322387695312 C 284.24066162109375 128.40194702148438 289.7968444824219 125.42678833007812 291.22100830078125 120.20883178710938 C 291.9939880371094 117.39297485351562 291.40380859375 114.32826232910156 290.1615905761719 111.68067932128906 C 288.9193420410156 109.03309631347656 287.0550842285156 106.73126220703125 285.1822204589844 104.485107421875 C 283.30938720703125 102.23895263671875 281.4210205078125 100.07199096679688 278.85382080078125 98.82318115234375 L 277.10467529296875 99.79013061523438" stroke-width="0.6000000238418579" fill="rgb(218, 166, 20)" opacity="1.0"/>
    <path d="M 225.78253173828125 112.04934692382812 C 226.27923583984375 121.49176025390625 234.33648681640625 128.7436981201172 243.7789306640625 128.24697875976562 C 244.58749389648438 128.2044677734375 245.39202880859375 128.1046142578125 246.18646240234375 127.94822692871094 C 249.20501708984375 127.35342407226562 252.1656494140625 125.83148193359375 253.85687255859375 123.26321411132812 C 255.28631591796875 121.09295654296875 255.684326171875 118.41204833984375 255.78570556640625 115.81707763671875 C 256.0474548339844 108.87057495117188 254.4444580078125 101.98069763183594 251.14324951171875 95.86312866210938 C 250.26791381835938 94.24755859375 249.23822021484375 92.65180969238281 247.7344970703125 91.58900451660156 C 245.2110595703125 89.80326843261719 241.75823974609375 89.85101318359375 238.83074951171875 90.85099792480469 C 234.48345947265625 92.33258056640625 230.917236328125 95.71539306640625 228.75775146484375 99.77001953125 C 226.59820556640625 103.82461547851562 225.7662353515625 108.50128173828125 225.9027099609375 113.09268188476562 L 225.78253173828125 112.04934692382812" stroke-width="0.6000000238418579" fill="rgb(143, 165, 67)" opacity="1.0"/>
    <path d="M 248.48532104492188 86.9423828125 C 248.42300415039062 98.366455078125 263.9393310546875 106.00189208984375 273.38336181640625 99.70513916015625 C 282.82733154296875 93.40834045410156 282.2315979003906 76.97052001953125 272.73492431640625 70.61399841308594 C 263.23822021484375 64.25747680664062 248.60031127929688 69.04373168945312 243.91595458984375 79.47886657714844 L 248.48532104492188 86.9423828125" stroke-width="0.6000000238418579" fill="rgb(233, 92, 21)" opacity="1.0"/>
    <path d="M 338.46392822265625 69.94320678710938 C 336.1514587402344 65.2630615234375 332.9037780761719 59.91233825683594 327.6697998046875 59.705047607421875 C 325.5837097167969 59.70361328125 323.54852294921875 60.34953308105469 321.8450927734375 61.55377197265625 C 317.5501708984375 64.419921875 314.910888671875 69.19000244140625 314.7641906738281 74.35137939453125 C 314.6509704589844 78.72994995117188 316.397705078125 82.88111877441406 318.1787109375 86.85336303710938 C 319.18280029296875 89.08309936523438 320.3205871582031 91.42013549804688 322.3782958984375 92.7164306640625 C 325.1352233886719 94.42179870605469 328.7166442871094 93.77371215820312 331.7823791503906 92.72323608398438 C 336.27105712890625 91.19145202636719 340.482177734375 88.94325256347656 344.2524719238281 86.06582641601562 C 345.5532531738281 85.06912231445312 346.8476867675781 83.93882751464844 347.4675598144531 82.4224853515625 C 347.9717712402344 80.98309326171875 348.0462951660156 79.42807006835938 347.6820068359375 77.94705200195312 C 346.75177001953125 73.41156005859375 343.8787536621094 69.512451171875 339.8223876953125 67.28042602539062 L 338.46392822265625 69.94320678710938" stroke-width="0.6000000238418579" fill="rgb(70, 150, 179)" opacity="1.0"/>
    <path d="M 332.7293701171875 136.8029327392578 C 333.3587341308594 130.931640625 333.809814453125 124.39735412597656 330.18646240234375 119.73957824707031 C 326.29119873046875 114.73841857910156 318.854736328125 113.80879211425781 312.7816467285156 115.62564086914062 C 310.4398193359375 116.32514953613281 308.1208801269531 117.42764282226562 306.5814208984375 119.32560729980469 C 305.3153076171875 120.88536071777344 304.67535400390625 122.85006713867188 304.168701171875 124.79359436035156 C 302.5635986328125 130.9205780029297 302.097412109375 137.8146209716797 305.3429260253906 143.25209045410156 C 308.6177062988281 148.72996520996094 315.62933349609375 151.70413208007812 321.8408508300781 150.214111328125 C 328.0523681640625 148.72409057617188 333.0008544921875 142.94686889648438 333.46746826171875 136.5719757080078 L 332.7293701171875 136.8029327392578" stroke-width="0.6000000238418579" fill="rgb(140, 28, 33)" opacity="1.0"/>
    <path d="M 348.2524719238281 95.42227172851562 C 342.4689025878906 93.753662109375 336.4324035644531 92.08111572265625 330.4768981933594 92.98568725585938 C 324.5215148925781 93.89028930664062 318.6133117675781 98.17494201660156 317.83673095703125 104.14736938476562 C 316.89459228515625 111.52183532714844 324.51171875 117.94619750976562 331.9595642089844 117.91670227050781 C 339.40740966796875 117.88720703125 346.0775451660156 113.1395263671875 350.9536437988281 107.52198791503906 C 352.6373291015625 105.93426513671875 353.6645812988281 103.773193359375 353.8327331542969 101.46511840820312 C 353.7568054199219 99.18966674804688 351.31658935546875 96.94601440429688 349.24713134765625 97.92190551757812 L 348.2524719238281 95.42227172851562" stroke-width="0.6000000238418579" fill="rgb(159, 159, 159)" opacity="1.0"/>
    <path d="M 343.3072509765625 117.37730407714844 C 338.27691650390625 119.47415161132812 333.8554382324219 123.34017944335938 331.80767822265625 128.38760375976562 C 329.7598876953125 133.43504333496094 330.3794250488281 139.66012573242188 333.97137451171875 143.78553771972656 C 336.51458740234375 146.6990509033203 340.30364990234375 148.3550262451172 344.1484069824219 148.802734375 C 347.9931945800781 149.25045776367188 351.89752197265625 148.57876586914062 355.5912170410156 147.41925048828125 C 357.1983337402344 146.91371154785156 358.8475341796875 146.26710510253906 359.93145751953125 144.9830322265625 C 361.17486572265625 143.51144409179688 361.44830322265625 141.47592163085938 361.580810546875 139.5480499267578 C 361.954833984375 134.10528564453125 361.5090026855469 128.39788818359375 358.7843322753906 123.67059326171875 C 356.0596618652344 118.94326782226562 350.6001281738281 115.48805236816406 345.23785400390625 116.42059326171875 L 343.3072509765625 117.37730407714844" stroke-width="0.6000000238418579" fill="rgb(159, 159, 159)" opacity="1.0"/>
    <path d="M 364.49993896484375 89.00103759765625 C 359.4584045410156 88.98593139648438 353.8538513183594 89.18753051757812 350.2500305175781 92.69903564453125 C 346.7405090332031 96.10903930664062 346.28240966796875 101.50346374511719 346.1297912597656 106.39663696289062 C 346.0707092285156 108.384521484375 346.0406188964844 110.465087890625 346.9283447265625 112.24346923828125 C 348.427978515625 115.25218200683594 352.0491027832031 116.50405883789062 355.3763427734375 116.94857788085938 C 358.4644470214844 117.36236572265625 361.595947265625 117.33056640625 364.6750183105469 116.85418701171875 C 369.67486572265625 116.08248901367188 375.0164489746094 113.59378051757812 376.6171569824219 108.79655456542969 C 377.485107421875 106.20797729492188 377.0933837890625 103.31622314453125 376.0713195800781 100.780029296875 C 375.0491943359375 98.24380493164062 373.4284362792969 95.998046875 371.7967834472656 93.8038330078125 C 370.16510009765625 91.60958862304688 368.51483154296875 89.48849487304688 366.18310546875 88.18923950195312 L 364.49993896484375 89.00103759765625" stroke-width="0.6000000238418579" fill="rgb(218, 166, 20)" opacity="1.0"/>
    <path d="M 428.535888671875 138.9591522216797 C 420.276123046875 139.1401824951172 413.7269287109375 145.9828338623047 413.907958984375 154.24264526367188 C 413.9234619140625 154.94993591308594 413.9891357421875 155.6552276611328 414.10443115234375 156.35321044921875 C 414.5430908203125 159.00540161132812 415.79302978515625 161.6318359375 417.99072265625 163.1776123046875 C 419.847900390625 164.48406982421875 422.1785888671875 164.90347290039062 424.442138671875 165.06146240234375 C 430.5018310546875 165.47601318359375 436.56201171875 164.260498046875 441.9931640625 161.54119873046875 C 443.42755126953125 160.81997680664062 444.8487548828125 159.96340942382812 445.81719970703125 158.6785888671875 C 447.4443359375 156.5225830078125 447.4951171875 153.50575256347656 446.7000732421875 150.9222869873047 C 445.5225830078125 147.08595275878906 442.6636962890625 143.8808135986328 439.180419921875 141.8862762451172 C 435.6971435546875 139.89173889160156 431.635009765625 139.03990173339844 427.6214599609375 139.0361785888672 L 428.535888671875 138.9591522216797" stroke-width="0.6000000238418579" fill="rgb(143, 165, 67)" opacity="1.0"/>
    <path d="M 150.45582580566406 406.6617736816406 C 157.28631591796875 415.01318359375 173.1739501953125 411.2311096191406 176.25704956054688 400.96453857421875 C 179.340087890625 390.69793701171875 169.01309204101562 379.0937805175781 158.2760009765625 380.1835632324219 C 147.53892517089844 381.2733459472656 139.76683044433594 393.56671142578125 142.6383819580078 403.9803161621094 L 150.45582580566406 406.6617736816406" stroke-width="0.6000000238418579" fill="rgb(233, 92, 21)" opacity="1.0"/>
    <path d="M 428.4267578125 199.7369384765625 C 424.055908203125 196.9093017578125 418.5416259765625 193.9849853515625 413.95281982421875 196.48043823242188 C 412.16534423828125 197.54458618164062 410.7520751953125 199.13720703125 409.9080810546875 201.03857421875 C 407.6932067871094 205.6868896484375 407.8687438964844 211.120361328125 410.3789978027344 215.61602783203125 C 412.5181884765625 219.42413330078125 416.13427734375 222.08758544921875 419.6883544921875 224.58029174804688 C 421.68707275390625 225.977294921875 423.85516357421875 227.39788818359375 426.27960205078125 227.45730590820312 C 429.5118408203125 227.510009765625 432.2484130859375 225.1258544921875 434.3377685546875 222.66043090820312 C 437.4000244140625 219.05609130859375 439.8587646484375 214.9798583984375 441.6185302734375 210.58984375 C 442.2236328125 209.07183837890625 442.75506591796875 207.44265747070312 442.5115966796875 205.82733154296875 C 442.2083740234375 204.33697509765625 441.47802734375 202.967041015625 440.40966796875 201.88458251953125 C 437.296630859375 198.4749755859375 432.8446044921875 196.60260009765625 428.2303466796875 196.762451171875 L 428.4267578125 199.7369384765625" stroke-width="0.6000000238418579" fill="rgb(70, 150, 179)" opacity="1.0"/>
    <path d="M 413.60888671875 161.31414794921875 C 413.2125244140625 155.61033630371094 412.53369140625 149.30474853515625 408.28912353515625 145.47943115234375 C 403.72711181640625 141.3729248046875 396.48028564453125 141.74871826171875 390.99920654296875 144.5113067626953 C 388.8854675292969 145.57554626464844 386.8619689941406 147.0200653076172 385.71649169921875 149.0906219482422 C 384.77423095703125 150.79237365722656 384.4975891113281 152.77389526367188 384.34442138671875 154.71261596679688 C 383.85406494140625 160.82577514648438 384.57958984375 167.47686767578125 388.5962219238281 172.10955810546875 C 392.64764404296875 176.77581787109375 399.8364562988281 178.42117309570312 405.50494384765625 175.9466552734375 C 411.1734313964844 173.47213745117188 414.91033935546875 167.12503051757812 414.2733154296875 160.96875 L 413.60888671875 161.31414794921875" stroke-width="0.6000000238418579" fill="rgb(140, 28, 33)" opacity="1.0"/>
    <path d="M 150.2893829345703 131.83375549316406 C 144.1029510498047 133.07040405273438 137.67926025390625 134.42539978027344 132.5738525390625 138.13938903808594 C 127.46853637695312 141.85333251953125 124.03732299804688 148.689697265625 126.19511413574219 154.6216583251953 C 128.87503051757812 161.93807983398438 139.061279296875 164.24240112304688 145.9773712158203 160.62295532226562 C 152.89346313476562 157.00350952148438 156.81036376953125 149.36883544921875 158.63839721679688 141.7899627685547 C 159.4393310546875 139.50054931640625 159.35296630859375 136.99420166015625 158.39627075195312 134.76541137695312 C 157.22821044921875 132.68470764160156 153.8754425048828 131.77383422851562 152.42047119140625 133.6799774169922 L 150.2893829345703 131.83375549316406" stroke-width="0.6000000238418579" fill="rgb(159, 159, 159)" opacity="1.0"/>
    <path d="M 438.052490234375 166.10693359375 C 432.7376708984375 164.0479736328125 426.6016845703125 163.76507568359375 421.40203857421875 166.09234619140625 C 416.202392578125 168.41961669921875 412.1634521484375 173.56671142578125 411.8880310058594 179.28082275390625 C 411.69842529296875 183.321044921875 413.3594970703125 187.31396484375 415.9373779296875 190.43527221679688 C 418.5152587890625 193.55657958984375 421.9483642578125 195.87606811523438 425.5758056640625 197.6749267578125 C 427.15478515625 198.456787109375 428.86767578125 199.16262817382812 430.6153564453125 198.9781494140625 C 432.61920166015625 198.76754760742188 434.2991943359375 197.42913818359375 435.79486083984375 196.0699462890625 C 440.017333984375 192.23260498046875 443.8126220703125 187.60198974609375 445.17840576171875 182.0614013671875 C 446.54412841796875 176.52081298828125 444.92474365234375 169.96054077148438 440.2022705078125 166.782470703125 L 438.052490234375 166.10693359375" stroke-width="0.6000000238418579" fill="rgb(159, 159, 159)" opacity="1.0"/>
    <path d="M 412.4996337890625 194.64105224609375 C 411.7947998046875 189.320068359375 410.7808532714844 183.43609619140625 406.56103515625 180.13607788085938 C 402.46173095703125 176.9210205078125 396.7051086425781 177.20892333984375 391.52099609375 177.7474365234375 C 389.41534423828125 177.96929931640625 387.2160339355469 178.2349853515625 385.46673583984375 179.42578125 C 382.5069580078125 181.43804931640625 381.7038879394531 185.43731689453125 381.7106018066406 189.0111083984375 C 381.7155456542969 192.32821655273438 382.19677734375 195.62741088867188 383.1395263671875 198.8077392578125 C 384.66845703125 203.97222900390625 388.0577087402344 209.2518310546875 393.3476257324219 210.2547607421875 C 396.2026672363281 210.80035400390625 399.19744873046875 209.97369384765625 401.72705078125 208.5328369140625 C 404.2566223144531 207.0919189453125 406.3941955566406 205.06097412109375 408.475830078125 203.02584838867188 C 410.5574951171875 200.99075317382812 412.559326171875 198.94647216796875 413.5966796875 196.30075073242188 L 412.4996337890625 194.64105224609375" stroke-width="0.6000000238418579" fill="rgb(218, 166, 20)" opacity="1.0"/>
    <path d="M 442.280517578125 193.54946899414062 C 440.0245361328125 202.4163818359375 445.3836669921875 211.43328857421875 454.2506103515625 213.68927001953125 C 455.0098876953125 213.8824462890625 455.78192138671875 214.02151489257812 456.5609130859375 214.10546875 C 459.52081298828125 214.423828125 462.69384765625 213.868896484375 464.994873046875 211.9822998046875 C 466.93951416015625 210.38812255859375 468.07806396484375 208.025634765625 468.9178466796875 205.65719604492188 C 471.156982421875 199.31442260742188 471.65692138671875 192.48779296875 470.3658447265625 185.88644409179688 C 470.0216064453125 184.14208984375 469.529052734375 182.3717041015625 468.4453125 180.9573974609375 C 466.6273193359375 178.58197021484375 463.42333984375 177.63330078125 460.43109130859375 177.7154541015625 C 455.988525390625 177.83441162109375 451.720947265625 179.93450927734375 448.5599365234375 183.05975341796875 C 445.39892578125 186.18499755859375 443.28558349609375 190.26666259765625 442.091552734375 194.54800415039062 L 442.280517578125 193.54946899414062" stroke-width="0.6000000238418579" fill="rgb(143, 165, 67)" opacity="1.0"/>
    <path d="M 142.87496948242188 95.37358093261719 C 131.89039611816406 104.17953491210938 136.62240600585938 124.95867919921875 149.979248046875 129.11280822753906 C 163.33612060546875 133.2668914794922 178.609619140625 119.94009399414062 177.3248291015625 105.916015625 C 176.0400390625 91.89193725585938 160.09848022460938 81.593505859375 146.47373962402344 85.20733642578125 L 142.87496948242188 95.37358093261719" stroke-width="0.6000000238418579" fill="rgb(233, 92, 21)" opacity="1.0"/>
    <path d="M 452.0706787109375 153.2682342529297 C 446.76171875 155.89401245117188 440.69244384765625 159.5811767578125 440.4595947265625 165.51959228515625 C 440.458984375 167.88641357421875 441.1927490234375 170.19515991210938 442.559814453125 172.12725830078125 C 445.8135986328125 176.99884033203125 451.226806640625 179.99114990234375 457.082763671875 180.15524291992188 C 462.0506591796875 180.28170776367188 466.7596435546875 178.29803466796875 471.265625 176.27557373046875 C 473.794921875 175.13534545898438 476.44598388671875 173.84335327148438 477.915771484375 171.5081787109375 C 479.849365234375 168.37945556640625 479.1124267578125 164.31640625 477.919189453125 160.83856201171875 C 476.17926025390625 155.74655151367188 473.6265869140625 150.96974182128906 470.3602294921875 146.6934051513672 C 469.22882080078125 145.21803283691406 467.94586181640625 143.74989318847656 466.22515869140625 143.0473175048828 C 464.59185791015625 142.47589111328125 462.8275146484375 142.39205932617188 461.1473388671875 142.8060302734375 C 456.001953125 143.86351013183594 451.5794677734375 147.1249237060547 449.0489501953125 151.72817993164062 L 452.0706787109375 153.2682342529297" stroke-width="0.6000000238418579" fill="rgb(70, 150, 179)" opacity="1.0"/>
    <path d="M 379.3701477050781 79.530517578125 C 381.7127380371094 73.45370483398438 384.0541687011719 66.61968994140625 381.5198059082031 60.6248779296875 C 378.79345703125 54.18672180175781 371.1344299316406 51.0784912109375 364.1459655761719 51.284942626953125 C 361.45147705078125 51.3634033203125 358.6666259765625 51.877777099609375 356.4858093261719 53.46171569824219 C 354.69256591796875 54.76312255859375 353.451171875 56.67433166503906 352.35784912109375 58.60093688964844 C 348.90277099609375 64.67233276367188 346.44281005859375 71.8853759765625 348.3525695800781 78.60337829589844 C 350.281982421875 85.37277221679688 356.9061279296875 90.53857421875 363.9490051269531 90.71977233886719 C 370.9918518066406 90.90097045898438 377.9097900390625 86.15437316894531 380.2223815917969 79.49461364746094 L 379.3701477050781 79.530517578125" stroke-width="0.6000000238418579" fill="rgb(140, 28, 33)" opacity="1.0"/>
    <path d="M 130.862060546875 407.0133972167969 C 126.92822265625 413.638671875 122.90786743164062 420.575927734375 122.10586547851562 428.244873046875 C 121.30392456054688 435.91363525390625 124.7039794921875 444.614990234375 131.8511505126953 447.5048828125 C 140.6815185546875 451.05242919921875 151.09805297851562 443.691162109375 153.46571350097656 434.4561767578125 C 155.83338928222656 425.2213134765625 152.10574340820312 415.4266357421875 146.72154235839844 407.5733947753906 C 145.29837036132812 404.9753723144531 142.953125 403.00531005859375 140.1484832763672 402.0519714355469 C 137.30545043945312 401.4114990234375 133.73855590820312 403.7098693847656 134.27935791015625 406.5882263183594 L 130.862060546875 407.0133972167969" stroke-width="0.6000000238418579" fill="rgb(159, 159, 159)" opacity="1.0"/>
    <path d="M 416.1087646484375 222.17315673828125 C 412.30303955078125 216.56585693359375 406.49322509765625 212.14031982421875 399.83428955078125 210.900634765625 C 393.1753845214844 209.66094970703125 385.7450256347656 211.96392822265625 381.6120300292969 217.3662109375 C 378.6947937011719 221.18939208984375 377.6195373535156 226.2176513671875 378.03021240234375 231.01336669921875 C 378.44091796875 235.80908203125 380.23028564453125 240.39892578125 382.56158447265625 244.61083984375 C 383.57720947265625 246.44317626953125 384.775146484375 248.29168701171875 386.60919189453125 249.29296875 C 388.71136474609375 250.44192504882812 391.2593688964844 250.26885986328125 393.64117431640625 249.95083618164062 C 400.3655090332031 249.052978515625 407.2083435058594 247.09033203125 412.29034423828125 242.59506225585938 C 417.372314453125 238.0997314453125 420.22430419921875 230.5887451171875 417.7545166015625 224.28741455078125 L 416.1087646484375 222.17315673828125" stroke-width="0.6000000238418579" fill="rgb(159, 159, 159)" opacity="1.0"/>
    <path d="M 383.8612976074219 111.1396484375 C 377.5308837890625 111.28570556640625 370.50067138671875 111.72232055664062 366.0908508300781 116.24916076660156 C 361.79608154296875 120.6455078125 361.39752197265625 127.43348693847656 361.3660888671875 133.58212280273438 C 361.35699462890625 136.07994079589844 361.3872985839844 138.6931915283203 362.5600891113281 140.89700317382812 C 364.54150390625 144.62548828125 369.12896728515625 146.0787353515625 373.3210754394531 146.52793884277344 C 377.2118835449219 146.9463653564453 381.14263916015625 146.80392456054688 384.99298095703125 146.10501098632812 C 391.2452697753906 144.97242736816406 397.8704528808594 141.6728515625 399.72314453125 135.59727478027344 C 400.7281799316406 132.31875610351562 400.1416931152344 128.7008514404297 398.775390625 125.54995727539062 C 397.4090576171875 122.39907836914062 395.3005676269531 119.63247680664062 393.1800842285156 116.930908203125 C 391.05963134765625 114.22933959960938 388.91815185546875 111.62020874023438 385.9480285644531 110.06527709960938 L 383.8612976074219 111.1396484375" stroke-width="0.6000000238418579" fill="rgb(218, 166, 20)" opacity="1.0"/>
    <path d="M 402.3938293457031 82.64445495605469 C 395.03240966796875 75.55935668945312 383.3211669921875 75.78337097167969 376.236083984375 83.14480590820312 C 375.6293640136719 83.775146484375 375.06817626953125 84.44775390625 374.556640625 85.15756225585938 C 372.6134948730469 87.85494995117188 371.4003601074219 91.24127197265625 371.9613342285156 94.51638793945312 C 372.43511962890625 97.28413391113281 374.09979248046875 99.693603515625 375.9351501464844 101.81631469726562 C 380.8557434082031 107.49151611328125 387.2062072753906 111.74566650390625 394.3267822265625 114.13688659667969 C 396.21002197265625 114.76577758789062 398.200439453125 115.26507568359375 400.1716003417969 114.99392700195312 C 403.4810791015625 114.5406494140625 406.1707458496094 111.95443725585938 407.7429504394531 109.0045166015625 C 410.08013916015625 104.62657165527344 410.3976745605469 99.32470703125 409.10919189453125 94.53097534179688 C 407.82073974609375 89.73725891113281 405.0255126953125 85.43246459960938 401.5289001464844 81.90977478027344 L 402.3938293457031 82.64445495605469" stroke-width="0.6000000238418579" fill="rgb(143, 165, 67)" opacity="1.0"/>
    <path d="M 116.17471313476562 427.73828125 C 112.05036926269531 416.396484375 93.87901306152344 414.5169677734375 86.8292236328125 424.21630859375 C 79.77946472167969 433.91571044921875 86.39299011230469 449.98394775390625 98.13148498535156 452.8021240234375 C 109.8699951171875 455.62030029296875 122.61935424804688 445.51434326171875 123.43685913085938 433.458740234375 L 116.17471313476562 427.73828125" stroke-width="0.6000000238418579" fill="rgb(233, 92, 21)" opacity="1.0"/>
    <path d="M 452.173095703125 216.59564208984375 C 445.7296142578125 216.41180419921875 438.01361083984375 216.86050415039062 434.7603759765625 222.450927734375 C 433.5523681640625 224.72607421875 433.08001708984375 227.32000732421875 433.40869140625 229.87493896484375 C 434.0517578125 236.2183837890625 437.7294921875 241.85662841796875 443.2757568359375 245.00177001953125 C 447.98736572265625 247.65765380859375 453.52655029296875 248.15277099609375 458.890380859375 248.50701904296875 C 461.9036865234375 248.70111083984375 465.11151123046875 248.81137084960938 467.7158203125 247.31610107421875 C 471.1708984375 245.29458618164062 472.53515625 241.01239013671875 473.162109375 237.06005859375 C 474.0869140625 231.2769775390625 474.069580078125 225.38235473632812 473.11083984375 219.60479736328125 C 472.7757568359375 217.60919189453125 472.291259765625 215.543212890625 470.995361328125 213.989990234375 C 469.71661376953125 212.60739135742188 468.0631103515625 211.62673950195312 466.2366943359375 211.16763305664062 C 460.7503662109375 209.5594482421875 454.8348388671875 210.43890380859375 450.0537109375 213.57354736328125 L 452.173095703125 216.59564208984375" stroke-width="0.6000000238418579" fill="rgb(70, 150, 179)" opacity="1.0"/>
    <path d="M 430.301025390625 133.36903381347656 C 431.8973388671875 126.99266052246094 433.39898681640625 119.85794067382812 430.1201171875 114.16581726074219 C 426.59429931640625 108.05331420898438 418.5384521484375 105.88540649414062 411.5635986328125 106.95504760742188 C 408.8742370605469 107.36630249023438 406.14813232421875 108.22537231445312 404.1591796875 110.08126831054688 C 402.5235290527344 111.60629272460938 401.5160217285156 113.67404174804688 400.65869140625 115.7388916015625 C 397.94732666015625 122.2471923828125 396.3737487792969 129.7762451171875 399.1161804199219 136.2698974609375 C 401.8846740722656 142.81259155273438 409.15789794921875 147.16932678222656 416.235107421875 146.48129272460938 C 423.31231689453125 145.7932586669922 429.656005859375 140.18446350097656 431.1502685546875 133.22784423828125 L 430.301025390625 133.36903381347656" stroke-width="0.6000000238418579" fill="rgb(140, 28, 33)" opacity="1.0"/>
    <path d="M 383.8130798339844 56.145111083984375 C 384.73785400390625 63.17008972167969 385.7775573730469 70.46978759765625 389.5591125488281 76.46795654296875 C 393.34063720703125 82.46601867675781 400.74609375 86.82073974609375 407.5545349121094 84.8447265625 C 415.95343017578125 82.38676452636719 419.294921875 71.143310546875 415.7542724609375 63.123046875 C 412.213623046875 55.10276794433594 403.9497375488281 50.144287109375 395.5927429199219 47.53083801269531 C 393.0868225097656 46.462646484375 390.2716369628906 46.37263488769531 387.7026672363281 47.27862548828125 C 385.2838439941406 48.43254089355469 384.01318359375 52.121917724609375 386.0408935546875 53.894500732421875 L 383.8130798339844 56.145111083984375" stroke-width="0.6000000238418579" fill="rgb(159, 159, 159)" opacity="1.0"/>
    <path d="M 435.103271484375 245.26870727539062 C 428.975830078125 248.61456298828125 423.86138916015625 254.1326904296875 421.9293212890625 260.8376159667969 C 419.997314453125 267.54254150390625 421.621337890625 275.39007568359375 426.7506103515625 280.1641540527344 C 430.38128662109375 283.5348815917969 435.4305419921875 285.1365051269531 440.388671875 285.19134521484375 C 445.346923828125 285.24615478515625 450.2308349609375 283.8669128417969 454.7811279296875 281.8944091796875 C 456.7607421875 281.0348815917969 458.77508544921875 279.989990234375 459.98382568359375 278.208740234375 C 461.37060546875 276.167236328125 461.44598388671875 273.537353515625 461.35626220703125 271.06353759765625 C 461.10296630859375 264.0793762207031 459.7696533203125 256.8680419921875 455.66461181640625 251.21090698242188 C 451.5595703125 245.55377197265625 444.140869140625 241.88394165039062 437.43450927734375 243.791015625 L 435.103271484375 245.26870727539062" stroke-width="0.6000000238418579" fill="rgb(159, 159, 159)" opacity="1.0"/>
    <path d="M 416.1324462890625 262.15203857421875 C 411.9164123535156 256.8135070800781 406.99884033203125 251.0621337890625 400.26422119140625 250.20272827148438 C 393.7159118652344 249.35772705078125 387.63275146484375 253.40203857421875 382.33551025390625 257.3482360839844 C 380.1859436035156 258.9544982910156 377.9627990722656 260.6691589355469 376.82928466796875 263.0997619628906 C 374.9097595214844 267.2095642089844 376.6269226074219 272.0857238769531 378.9503173828125 275.9737548828125 C 381.1054382324219 279.5833435058594 383.7677001953125 282.8647766113281 386.8555908203125 285.71759033203125 C 391.8677673339844 290.35162353515625 398.9806823730469 293.90533447265625 405.39208984375 291.56939697265625 C 408.855224609375 290.3133850097656 411.58123779296875 287.4721984863281 413.4024658203125 284.26348876953125 C 415.2237548828125 281.0548095703125 416.23565673828125 277.4574890136719 417.1839599609375 273.8919372558594 C 418.13232421875 270.32635498046875 418.9876708984375 266.8025207519531 418.4029541015625 263.2486877441406 L 416.1324462890625 262.15203857421875" stroke-width="0.6000000238418579" fill="rgb(218, 166, 20)" opacity="1.0"/>
    <path d="M 411.11700439453125 86.08822631835938 C 407.5932312011719 95.86247253417969 412.6602783203125 106.64265441894531 422.43450927734375 110.16642761230469 C 423.271484375 110.46817016601562 424.1287841796875 110.71014404296875 425.0 110.89056396484375 C 428.310546875 111.57550048828125 431.9578857421875 111.29681396484375 434.765869140625 109.41712951660156 C 437.1390380859375 107.82888793945312 438.68536376953125 105.28366088867188 439.8946533203125 102.69892883300781 C 443.1221923828125 95.77578735351562 444.43701171875 88.11474609375 443.7027587890625 80.51161193847656 C 443.5052490234375 78.50221252441406 443.14300537109375 76.44706726074219 442.07342529296875 74.72947692871094 C 440.27947998046875 71.84490966796875 436.76239013671875 70.42076110839844 433.37127685546875 70.18501281738281 C 428.3369140625 69.83149719238281 423.28271484375 71.7364501953125 419.36663818359375 74.92166137695312 C 415.4505615234375 78.10684204101562 412.61358642578125 82.48812866210938 410.79376220703125 87.19607543945312 L 411.11700439453125 86.08822631835938" stroke-width="0.6000000238418579" fill="rgb(143, 165, 67)" opacity="1.0"/>
    <path d="M 433.5426025390625 122.48583984375 C 429.1607666015625 135.07260131835938 443.405517578125 149.35894775390625 456.2073974609375 145.973876953125 C 469.00933837890625 142.58877563476562 474.5577392578125 124.21922302246094 466.47479248046875 113.61724853515625 C 458.39190673828125 103.01528930664062 440.427001953125 102.77210998535156 431.31658935546875 112.522216796875 L 433.5426025390625 122.48583984375" stroke-width="0.6000000238418579" fill="rgb(233, 92, 21)" opacity="1.0"/>
    <path d="M 448.553466796875 91.74334716796875 C 448.57421875 97.76033020019531 449.2230224609375 104.94561767578125 454.5357666015625 107.81391906738281 C 456.6943359375 108.87310791015625 459.1285400390625 109.23635864257812 461.5023193359375 108.85350036621094 C 467.40130615234375 108.06428527832031 472.5517578125 104.46484375 475.320556640625 99.19659423828125 C 477.65777587890625 94.72164916992188 477.9544677734375 89.5390625 478.1248779296875 84.5242919921875 C 478.216064453125 81.7071533203125 478.2232666015625 78.71115112304688 476.75048828125 76.32603454589844 C 474.76141357421875 73.1629638671875 470.7255859375 72.01797485351562 467.01959228515625 71.55093383789062 C 461.59661865234375 70.86067199707031 456.09771728515625 71.05270385742188 450.736083984375 72.11959838867188 C 448.88427734375 72.49179077148438 446.9713134765625 73.00546264648438 445.56085205078125 74.26077270507812 C 444.30908203125 75.49505615234375 443.443603515625 77.06692504882812 443.0697021484375 78.78466796875 C 441.7330322265625 83.95108032226562 442.7301025390625 89.44380187988281 445.7972412109375 93.81086730957031 L 448.553466796875 91.74334716796875" stroke-width="0.6000000238418579" fill="rgb(70, 150, 179)" opacity="1.0"/>
    <path d="M 313.0998229980469 365.882080078125 C 307.46112060546875 363.5207824707031 301.1119079589844 361.14019775390625 295.4190368652344 363.35699462890625 C 289.3050537109375 365.7419738769531 286.1828308105469 372.84466552734375 286.188720703125 379.4072570800781 C 286.1899108886719 381.9375 286.59765625 384.56427001953125 288.02520751953125 386.6530456542969 C 289.1980895996094 388.3705749511719 290.95794677734375 389.5867004394531 292.7362365722656 390.664306640625 C 298.3399658203125 394.06927490234375 305.0415954589844 396.5712585449219 311.396240234375 394.9599609375 C 317.7995910644531 393.33160400390625 322.82452392578125 387.2552185058594 323.183837890625 380.6520080566406 C 323.54315185546875 374.04876708984375 319.2755126953125 367.4303283691406 313.08905029296875 365.0815124511719 L 313.0998229980469 365.882080078125" stroke-width="0.6000000238418579" fill="rgb(140, 28, 33)" opacity="1.0"/>
    <path d="M 297.1734619140625 393.45953369140625 C 289.4927978515625 390.62347412109375 281.4693603515625 387.7570495605469 273.30072021484375 388.39471435546875 C 265.1322326660156 389.03240966796875 256.6932373046875 394.26007080078125 255.048583984375 402.2852478027344 C 253.04058837890625 412.196044921875 262.7379150390625 421.66510009765625 272.84442138671875 422.3623046875 C 282.950927734375 423.0594482421875 292.4693603515625 417.279052734375 299.64019775390625 410.1410827636719 C 302.08135986328125 408.15386962890625 303.6888427734375 405.3238525390625 304.1454162597656 402.2094421386719 C 304.26763916015625 399.1151123046875 301.1793518066406 395.8298645019531 298.275390625 396.94891357421875 L 297.1734619140625 393.45953369140625" stroke-width="0.6000000238418579" fill="rgb(159, 159, 159)" opacity="1.0"/>
    <path d="M 323.2276916503906 415.50628662109375 C 318.1802062988281 419.8040771484375 314.4952697753906 425.9248046875 313.9987487792969 432.53204345703125 C 313.502197265625 439.1392822265625 316.53271484375 446.1195068359375 322.22601318359375 449.5633544921875 C 326.25433349609375 451.9930419921875 331.2584228515625 452.50335693359375 335.87811279296875 451.59344482421875 C 340.497802734375 450.6834716796875 344.77056884765625 448.454833984375 348.6181335449219 445.7393798828125 C 350.29180908203125 444.55670166015625 351.9617614746094 443.19500732421875 352.74017333984375 441.304931640625 C 353.6336364746094 439.138427734375 353.1940612792969 436.6790771484375 352.6312255859375 434.3968505859375 C 351.042236328125 427.95361328125 348.40521240234375 421.5084228515625 343.49285888671875 417.04522705078125 C 338.5804748535156 412.58197021484375 330.9729919433594 410.60833740234375 325.1084289550781 413.68084716796875 L 323.2276916503906 415.50628662109375" stroke-width="0.6000000238418579" fill="rgb(159, 159, 159)" opacity="1.0"/>
    <path d="M 257.83392333984375 413.0059814453125 C 250.92132568359375 413.12091064453125 243.24261474609375 413.548095703125 238.39602661132812 418.45947265625 C 233.676025390625 423.2291259765625 233.19305419921875 430.63751220703125 233.11541748046875 437.35040283203125 C 233.087890625 440.0775146484375 233.10256958007812 442.93084716796875 234.36752319335938 445.34521484375 C 236.50457763671875 449.42999267578125 241.5029296875 451.0489501953125 246.07675170898438 451.5689697265625 C 250.32183837890625 452.05322265625 254.61444091796875 451.92535400390625 258.82318115234375 451.18939208984375 C 265.657470703125 449.99688720703125 272.91412353515625 446.4410400390625 274.979736328125 439.82073974609375 C 276.10009765625 436.248291015625 275.4852600097656 432.29412841796875 274.0157165527344 428.8443603515625 C 272.546142578125 425.39453125 270.2635803222656 422.359130859375 267.9674377441406 419.39459228515625 C 265.67132568359375 416.4300537109375 263.3516540527344 413.5662841796875 260.11981201171875 411.84771728515625 L 257.83392333984375 413.0059814453125" stroke-width="0.6000000238418579" fill="rgb(218, 166, 20)" opacity="1.0"/>
    <path d="M 220.73095703125 413.260986328125 C 210.74822998046875 406.7769470214844 197.39926147460938 409.6132507324219 190.915283203125 419.59600830078125 C 190.36004638671875 420.4508056640625 189.86614990234375 421.343994140625 189.43731689453125 422.2686767578125 C 187.8084716796875 425.78271484375 187.1666259765625 429.92413330078125 188.5299072265625 433.5474853515625 C 189.68170166015625 436.60955810546875 192.11697387695312 438.9993896484375 194.68435668945312 441.0235595703125 C 201.5640869140625 446.4322509765625 209.76654052734375 449.9002685546875 218.439697265625 451.0672607421875 C 220.7327880859375 451.371826171875 223.11993408203125 451.50457763671875 225.3153076171875 450.7601318359375 C 229.00164794921875 449.512451171875 231.509033203125 445.961181640625 232.6578369140625 442.23992919921875 C 234.36724853515625 436.7164306640625 233.56253051757812 430.580810546875 231.0323486328125 425.38037109375 C 228.502197265625 420.179931640625 224.35595703125 415.870849609375 219.57958984375 412.6109619140625 L 220.73095703125 413.260986328125" stroke-width="0.6000000238418579" fill="rgb(143, 165, 67)" opacity="1.0"/>
    <path d="M 261.12353515625 360.8793640136719 C 267.7723693847656 372.7081604003906 288.2755126953125 371.4717102050781 294.3236389160156 359.42242431640625 C 300.3717346191406 347.3731384277344 290.0973815917969 330.7557373046875 276.55938720703125 329.77496337890625 C 263.0213928222656 328.794189453125 250.724365234375 342.33642578125 252.0211181640625 355.8604736328125 L 261.12353515625 360.8793640136719" stroke-width="0.6000000238418579" fill="rgb(233, 92, 21)" opacity="1.0"/>
    <path d="M 329.19390869140625 347.48822021484375 C 324.4991760253906 352.2279357910156 319.38275146484375 358.37652587890625 321.3075866699219 364.78778076171875 C 322.1728515625 367.30938720703125 323.7992858886719 369.5003662109375 325.9625549316406 371.05841064453125 C 331.2112731933594 375.0574951171875 338.0727233886719 376.26446533203125 344.3710632324219 374.2966003417969 C 349.7095031738281 372.6136169433594 354.0001220703125 368.7774658203125 358.06024169921875 364.9742126464844 C 360.3375244140625 362.8341064453125 362.6888732910156 360.4877624511719 363.40020751953125 357.46234130859375 C 364.31524658203125 353.4219055175781 362.0435791015625 349.3631896972656 359.4999084472656 346.09490966796875 C 355.7832336425781 341.30712890625 351.3161315917969 337.1524658203125 346.2718200683594 333.7921142578125 C 344.5267028808594 332.6343994140625 342.622802734375 331.53985595703125 340.53271484375 331.4209899902344 C 338.58367919921875 331.4098815917969 336.6734924316406 331.96612548828125 335.0351257324219 333.0218811035156 C 329.94073486328125 336.03106689453125 326.4228515625 341.1235656738281 325.4114074707031 346.9532470703125 L 329.19390869140625 347.48822021484375" stroke-width="0.6000000238418579" fill="rgb(70, 150, 179)" opacity="1.0"/>
    <path d="M 296.6695251464844 417.74407958984375 C 289.6033935546875 418.435302734375 281.8001403808594 419.49822998046875 277.2001647949219 424.90045166015625 C 272.26220703125 430.70654296875 272.9817810058594 439.688720703125 276.6023254394531 446.395751953125 C 277.9971923828125 448.9822998046875 279.86090087890625 451.44354248046875 282.47100830078125 452.7930908203125 C 284.61627197265625 453.9031982421875 287.0855407714844 454.1773681640625 289.49737548828125 454.2998046875 C 297.1025695800781 454.6949462890625 305.33306884765625 453.5621337890625 310.94317626953125 448.41455078125 C 316.59375 443.22265625 318.3849792480469 434.241943359375 315.1154479980469 427.292236328125 C 311.8459167480469 420.342529296875 303.8369140625 415.9256591796875 296.2175598144531 416.931396484375 L 296.6695251464844 417.74407958984375" stroke-width="0.6000000238418579" fill="rgb(140, 28, 33)" opacity="1.0"/>
    <path d="M 325.93438720703125 379.3542785644531 C 318.6239318847656 382.9034423828125 311.0561218261719 386.6771545410156 305.8971862792969 392.9636535644531 C 300.73834228515625 399.25006103515625 298.6796569824219 408.8855285644531 303.2945251464844 415.579833984375 C 309.009521484375 423.83050537109375 322.455078125 423.3973388671875 329.9018249511719 416.64111328125 C 337.34857177734375 409.88482666015625 339.7536315917969 399.0966491699219 339.5729064941406 389.0558776855469 C 339.828369140625 385.94207763671875 338.9073486328125 382.8457946777344 336.99151611328125 380.3779296875 C 334.8601989746094 378.16326904296875 330.38519287109375 378.1158447265625 329.1900634765625 380.9641418457031 L 325.93438720703125 379.3542785644531" stroke-width="0.6000000238418579" fill="rgb(159, 159, 159)" opacity="1.0"/>
    <path d="M 366.0928955078125 412.0301513671875 C 360.00982666015625 415.6484375 355.033935546875 421.4296875 353.32659912109375 428.29473876953125 C 351.6192321777344 435.1597900390625 353.5571594238281 443.0498046875 358.9317932128906 447.6953125 C 362.7358703613281 450.97491455078125 367.9111328125 452.4093017578125 372.9364929199219 452.2799072265625 C 377.96185302734375 452.150634765625 382.8585205078125 450.57110595703125 387.39495849609375 448.403076171875 C 389.3685302734375 447.4583740234375 391.3703308105469 446.32464599609375 392.5285339355469 444.4749755859375 C 393.85736083984375 442.35491943359375 393.835693359375 439.68768310546875 393.6525573730469 437.1846923828125 C 393.135498046875 430.1182861328125 391.5157775878906 422.86199951171875 387.1458740234375 417.28363037109375 C 382.77593994140625 411.7052917480469 375.1230163574219 408.263916015625 368.399658203125 410.44610595703125 L 366.0928955078125 412.0301513671875" stroke-width="0.6000000238418579" fill="rgb(159, 159, 159)" opacity="1.0"/>
    <path d="M 249.2115478515625 365.8222351074219 C 250.383544921875 358.6022644042969 251.37347412109375 350.52618408203125 247.16455078125 344.5614929199219 C 243.07952880859375 338.75506591796875 235.45501708984375 336.8678894042969 228.47900390625 335.53271484375 C 225.644287109375 334.9945068359375 222.670166015625 334.4766540527344 219.9195556640625 335.3428039550781 C 215.26657104492188 336.80499267578125 212.64669799804688 341.70758056640625 211.2506103515625 346.3733825683594 C 209.95315551757812 350.70355224609375 209.2841796875 355.19757080078125 209.26419067382812 359.7178955078125 C 209.22906494140625 367.0576477050781 211.5760498046875 375.27880859375 218.08416748046875 378.6668395996094 C 221.59503173828125 380.50103759765625 225.82763671875 380.599609375 229.69464111328125 379.7138671875 C 233.56170654296875 378.8280944824219 237.149169921875 377.018310546875 240.66534423828125 375.18115234375 C 244.18145751953125 373.343994140625 247.59710693359375 371.4634704589844 249.99066162109375 368.4190673828125 L 249.2115478515625 365.8222351074219" stroke-width="0.6000000238418579" fill="rgb(218, 166, 20)" opacity="1.0"/>
    <path d="M 252.95086669921875 389.6597900390625 C 248.74127197265625 378.27691650390625 236.10107421875 372.4618225097656 224.71820068359375 376.6714172363281 C 223.74346923828125 377.0318908691406 222.79556274414062 377.4610595703125 221.88156127929688 377.9556884765625 C 218.40896606445312 379.83575439453125 215.36087036132812 382.8300476074219 214.267578125 386.62255859375 C 213.34335327148438 389.82745361328125 213.8779296875 393.2648620605469 214.7432861328125 396.48382568359375 C 217.07150268554688 405.0970153808594 221.66351318359375 412.9296875 228.04226684570312 419.16827392578125 C 229.73114013671875 420.814453125 231.60162353515625 422.37744140625 233.84982299804688 423.1065673828125 C 237.6234130859375 424.332763671875 241.8369140625 422.95751953125 245.04336547851562 420.6156005859375 C 249.80621337890625 417.14202880859375 252.8868408203125 411.6361999511719 253.98724365234375 405.8434753417969 C 255.087646484375 400.05078125 254.32391357421875 394.001953125 252.40570068359375 388.42694091796875 L 252.95086669921875 389.6597900390625" stroke-width="0.6000000238418579" fill="rgb(143, 165, 67)" opacity="1.0"/>
    <path d="M 195.65884399414062 371.28948974609375 C 181.34048461914062 369.7337951660156 169.7584228515625 388.20458984375 176.4334716796875 400.8623046875 C 183.10855102539062 413.51995849609375 203.79949951171875 414.89886474609375 212.99920654296875 403.8116149902344 C 222.19888305664062 392.724365234375 218.08984375 373.7486267089844 205.6094970703125 366.5245666503906 L 195.65884399414062 371.28948974609375" stroke-width="0.6000000238418579" fill="rgb(233, 92, 21)" opacity="1.0"/>
    <path d="M 253.01727294921875 372.0932922363281 C 249.91986083984375 377.95904541015625 246.82830810546875 385.2870788574219 250.5118408203125 390.830810546875 C 252.06356811523438 392.9799499511719 254.24395751953125 394.5946350097656 256.75225830078125 395.4520263671875 C 262.90130615234375 397.7405090332031 269.77813720703125 396.9065856933594 275.2019958496094 393.2147216796875 C 279.794921875 390.07122802734375 282.76885986328125 385.181884765625 285.5329895019531 380.39044189453125 C 287.08135986328125 377.6963806152344 288.6406555175781 374.78472900390625 288.443359375 371.7007751464844 C 288.146728515625 367.5922546386719 284.8128356933594 364.3869934082031 281.44854736328125 362.0123291015625 C 276.52923583984375 358.5308532714844 271.078857421875 355.8685607910156 265.3088073730469 354.12872314453125 C 263.3139953613281 353.53143310546875 261.18634033203125 353.0400695800781 259.1634521484375 353.53082275390625 C 257.305908203125 354.08331298828125 255.64923095703125 355.1643981933594 254.39544677734375 356.6421813964844 C 250.41787719726562 360.9769592285156 248.54208374023438 366.83837890625 249.26397705078125 372.67706298828125 L 253.01727294921875 372.0932922363281" stroke-width="0.6000000238418579" fill="rgb(70, 150, 179)" opacity="1.0"/>
    <path d="M 329.1742858886719 353.1451721191406 C 329.2131652832031 346.1727600097656 328.9635009765625 338.4427490234375 324.1512756347656 333.40325927734375 C 318.9786071777344 327.99285888671875 310.1316833496094 327.7879638671875 303.2140197753906 330.6468811035156 C 300.5464172363281 331.7480163574219 297.9537353515625 333.31982421875 296.3717041015625 335.733154296875 C 295.0704040527344 337.7165222167969 294.55303955078125 340.1009216308594 294.189697265625 342.4445495605469 C 293.0350646972656 349.833740234375 293.3099060058594 357.9881896972656 297.77130126953125 363.9886779785156 C 302.27191162109375 370.03314208984375 310.86370849609375 372.6905517578125 317.9829406738281 370.1990966796875 C 325.1022033691406 367.7076110839844 330.2261962890625 360.3304138183594 330.0137939453125 352.7857971191406 L 329.1742858886719 353.1451721191406" stroke-width="0.6000000238418579" fill="rgb(140, 28, 33)" opacity="1.0"/>
    <path d="M 366.28216552734375 394.0416564941406 C 358.4394226074219 393.35186767578125 350.2710266113281 392.7205810546875 342.8536376953125 395.376953125 C 335.4363708496094 398.0333251953125 328.9283447265625 405.0165100097656 329.4310302734375 412.877685546875 C 330.07318115234375 422.58013916015625 341.4635314941406 428.9140625 351.0162048339844 427.0062255859375 C 360.56890869140625 425.09844970703125 367.9386901855469 417.32965087890625 372.78729248046875 408.89471435546875 C 374.5498352050781 406.4339904785156 375.32586669921875 403.402099609375 374.9621887207031 400.3972473144531 C 374.2934265136719 397.4955139160156 370.59783935546875 395.22821044921875 368.1864929199219 397.0004577636719 L 366.28216552734375 394.0416564941406" stroke-width="0.6000000238418579" fill="rgb(159, 159, 159)" opacity="1.0"/>
    <path d="M 174.36981201171875 407.77734375 C 166.96673583984375 408.696044921875 159.71710205078125 412.17120361328125 155.1640625 418.0755615234375 C 150.6110076904297 423.97998046875 149.1430206298828 432.41632080078125 152.36544799804688 439.1749267578125 C 154.6497802734375 443.950439453125 159.03854370117188 447.52490234375 163.94427490234375 449.52655029296875 C 168.85003662109375 451.5281982421875 174.24514770507812 452.0755615234375 179.5416259765625 451.90228271484375 C 181.84646606445312 451.8255615234375 184.25857543945312 451.57818603515625 186.15927124023438 450.28277587890625 C 188.33908081054688 448.798583984375 189.44680786132812 446.2147216796875 190.32916259765625 443.7210693359375 C 192.8201904296875 436.6810302734375 194.32717895507812 428.9910888671875 192.4693603515625 421.75714111328125 C 190.61151123046875 414.523193359375 184.68035888671875 407.962890625 177.266845703125 407.224365234375 L 174.36981201171875 407.77734375" stroke-width="0.6000000238418579" fill="rgb(159, 159, 159)" opacity="1.0"/>
    <path d="M 371.2409362792969 363.7666015625 C 365.3113708496094 360.6727600097656 358.58636474609375 357.49066162109375 352.19866943359375 359.4282531738281 C 345.9839782714844 361.3038330078125 342.1529846191406 367.3788146972656 338.9876708984375 373.0496826171875 C 337.7052001953125 375.3553161621094 336.4002685546875 377.78778076171875 336.3609313964844 380.42431640625 C 336.291748046875 384.88348388671875 339.79345703125 388.5675354003906 343.441650390625 391.1212463378906 C 346.8268737792969 393.49285888671875 350.53509521484375 395.3660888671875 354.45281982421875 396.68359375 C 360.8133239746094 398.8251647949219 368.6240234375 399.1526794433594 373.43658447265625 394.47833251953125 C 376.03839111328125 391.9586486816406 377.3413391113281 388.3132629394531 377.684814453125 384.7020568847656 C 378.02825927734375 381.0908508300781 377.4892578125 377.4565124511719 376.906005859375 373.876220703125 C 376.32275390625 370.29595947265625 375.6729431152344 366.7904357910156 373.7189636230469 363.8373107910156 L 371.2409362792969 363.7666015625" stroke-width="0.6000000238418579" fill="rgb(218, 166, 20)" opacity="1.0"/>
    <path d="M 375.1761779785156 381.3780822753906 C 368.5277404785156 391.09588623046875 371.0159912109375 404.36334228515625 380.7337951660156 411.01177978515625 C 381.56591796875 411.5810852050781 382.4374084472656 412.09063720703125 383.3416442871094 412.53662109375 C 386.7779235839844 414.2305908203125 390.85797119140625 414.9635009765625 394.4732666015625 413.7012939453125 C 397.5285339355469 412.63494873046875 399.9494934082031 410.283447265625 402.011962890625 407.79266357421875 C 407.5235290527344 401.1178283691406 411.1473083496094 393.0889587402344 412.5069580078125 384.5401306152344 C 412.86248779296875 382.2798156738281 413.05035400390625 379.9223937988281 412.3662109375 377.73382568359375 C 411.2198486328125 374.0589904785156 407.7675476074219 371.4953308105469 404.1150207519531 370.2711181640625 C 398.6935729980469 368.4497985839844 392.6072692871094 369.10009765625 387.40478515625 371.4787902832031 C 382.20233154296875 373.8574523925781 377.8428955078125 377.8553466796875 374.50616455078125 382.501220703125 L 375.1761779785156 381.3780822753906" stroke-width="0.6000000238418579" fill="rgb(143, 165, 67)" opacity="1.0"/>
    <path d="M 366.12664794921875 359.2840576171875 C 369.8781433105469 372.5568542480469 390.43280029296875 376.2204284667969 399.2802429199219 365.7551574707031 C 408.1276550292969 355.2898254394531 401.93463134765625 336.4213562011719 388.79083251953125 332.2264404296875 C 375.6470642089844 328.03155517578125 360.26910400390625 338.4831237792969 358.32806396484375 352.1557922363281 L 366.12664794921875 359.2840576171875" stroke-width="0.6000000238418579" fill="rgb(233, 92, 21)" opacity="1.0"/>
    <path d="M 403.8828430175781 350.3470153808594 C 401.8658142089844 356.859375 400.1318359375 364.84771728515625 404.9034729003906 369.74957275390625 C 406.8783264160156 371.6263732910156 409.3868713378906 372.84417724609375 412.0831298828125 373.23486328125 C 418.72833251953125 374.38104248046875 425.51690673828125 372.2352600097656 430.2960205078125 367.4779052734375 C 434.3397216796875 363.4319763183594 436.4171142578125 357.9293518066406 438.3011474609375 352.56536865234375 C 439.3546142578125 349.55047607421875 440.3778076171875 346.3137512207031 439.59405517578125 343.2358703613281 C 438.515625 339.1418762207031 434.5404052734375 336.5360107421875 430.69189453125 334.7749328613281 C 425.062744140625 332.1905212402344 419.052490234375 330.5342712402344 412.8941650390625 329.87042236328125 C 410.765869140625 329.6451721191406 408.52349853515625 329.5520935058594 406.5730895996094 330.4312438964844 C 404.8013916015625 331.3414306640625 403.33282470703125 332.7474670410156 402.3464050292969 334.4779052734375 C 399.1501159667969 339.6105651855469 398.3662414550781 345.8869934082031 400.2021179199219 351.6481018066406 L 403.8828430175781 350.3470153808594" stroke-width="0.6000000238418579" fill="rgb(70, 150, 179)" opacity="1.0"/>
    <path d="M 391.1980285644531 424.93865966796875 C 391.0958251953125 432.379150390625 391.294921875 440.63055419921875 396.38653564453125 446.05047607421875 C 401.85955810546875 451.869384765625 411.29901123046875 452.1650390625 418.70623779296875 449.17437744140625 C 421.5626220703125 448.0224609375 424.3431396484375 446.36767578125 426.052490234375 443.8060302734375 C 427.45849609375 441.70068359375 428.0313720703125 439.16064453125 428.43951416015625 436.66278076171875 C 429.736083984375 428.7872314453125 429.5137939453125 420.0826416015625 424.804931640625 413.6402587890625 C 420.0546875 407.1505126953125 410.9088439941406 404.2397766113281 403.2896728515625 406.83660888671875 C 395.67047119140625 409.4334411621094 390.1380310058594 417.2615966796875 390.2989807128906 425.3148193359375 L 391.1980285644531 424.93865966796875" stroke-width="0.6000000238418579" fill="rgb(140, 28, 33)" opacity="1.0"/>
    <path d="M 413.4874267578125 375.1798400878906 C 410.5040588378906 383.0110168457031 407.48602294921875 391.19268798828125 408.05279541015625 399.559814453125 C 408.6195983886719 407.9267578125 413.88134765625 416.61883544921875 422.07763671875 418.386474609375 C 432.199951171875 420.5457763671875 441.9932861328125 410.72027587890625 442.81304931640625 400.38385009765625 C 443.6328125 390.04742431640625 437.8167724609375 380.2447509765625 430.5865478515625 372.83050537109375 C 428.578369140625 370.3111572265625 425.6988525390625 368.6361999511719 422.51611328125 368.13616943359375 C 419.350341796875 367.97857666015625 415.95556640625 371.1048278808594 417.0703125 374.0887145996094 L 413.4874267578125 375.1798400878906" stroke-width="0.6000000238418579" fill="rgb(159, 159, 159)" opacity="1.0"/>
    <path d="M 433.099853515625 370.7332763671875 C 434.9873046875 377.9552001953125 439.39019775390625 384.687744140625 445.8470458984375 388.4253234863281 C 452.30389404296875 392.16290283203125 460.8653564453125 392.50653076171875 467.144287109375 388.4190673828125 C 471.579833984375 385.5235290527344 474.546630859375 380.69903564453125 475.8851318359375 375.56915283203125 C 477.22369384765625 370.43927001953125 477.05517578125 365.0157165527344 476.1849365234375 359.7850341796875 C 475.80487060546875 357.5090026855469 475.241455078125 355.1490783691406 473.7059326171875 353.43463134765625 C 471.94635009765625 351.46820068359375 469.23736572265625 350.7101745605469 466.6475830078125 350.1637878417969 C 459.336181640625 348.62127685546875 451.5098876953125 348.1405029296875 444.57958984375 350.9371337890625 C 437.6492919921875 353.7337951660156 431.92431640625 360.4819030761719 432.1693115234375 367.93267822265625 L 433.099853515625 370.7332763671875" stroke-width="0.6000000238418579" fill="rgb(159, 159, 159)" opacity="1.0"/>
    <path d="M 436.893310546875 412.1484375 C 432.9073486328125 418.2265625 428.74017333984375 425.1553955078125 430.145751953125 432.272216796875 C 431.5029296875 439.19525146484375 437.65875244140625 443.9940185546875 443.449462890625 448.029296875 C 445.80419921875 449.6650390625 448.2938232421875 451.3388671875 451.14068603515625 451.66607666015625 C 455.955322265625 452.22235107421875 460.31732177734375 448.8333740234375 463.47283935546875 445.16400146484375 C 466.4029541015625 441.75933837890625 468.82904052734375 437.9515380859375 470.67681884765625 433.857177734375 C 473.679443359375 427.210205078125 474.876953125 418.7991943359375 470.341796875 413.0902099609375 C 467.89794921875 410.0045166015625 464.0965576171875 408.201904296875 460.228515625 407.4405822753906 C 456.3604736328125 406.67926025390625 452.37213134765625 406.8697204589844 448.43743896484375 407.1138916015625 C 444.5028076171875 407.3580322265625 440.64178466796875 407.6822204589844 437.2373046875 409.47637939453125 L 436.893310546875 412.1484375" stroke-width="0.6000000238418579" fill="rgb(218, 166, 20)" opacity="1.0"/>
    <path d="M 136.8679962158203 211.4912109375 C 133.54283142089844 223.93902587890625 140.93820190429688 236.7255859375 153.3860321044922 240.05075073242188 C 154.45193481445312 240.33551025390625 155.5366973876953 240.54425048828125 156.63217163085938 240.67547607421875 C 160.79473876953125 241.17333984375 165.27203369140625 240.44509887695312 168.543701171875 237.8270263671875 C 171.30868530273438 235.6148681640625 172.95147705078125 232.3072509765625 174.17364501953125 228.98629760742188 C 177.43280029296875 220.09246826171875 178.2510986328125 210.4881591796875 176.54360961914062 201.17111206054688 C 176.08810424804688 198.7091064453125 175.4241943359375 196.20794677734375 173.92184448242188 194.19827270507812 C 171.40167236328125 190.82296752929688 166.90609741210938 189.4334716796875 162.69122314453125 189.49911499023438 C 156.43365478515625 189.5921630859375 150.38925170898438 192.47787475585938 145.88584899902344 196.82565307617188 C 141.3824462890625 201.17340087890625 138.3382568359375 206.88543701171875 136.585205078125 212.89410400390625 L 136.8679962158203 211.4912109375" stroke-width="0.6000000238418579" fill="rgb(143, 165, 67)" opacity="1.0"/>
    <path d="M 171.63336181640625 265.0110168457031 C 181.53652954101562 276.2438659667969 203.37896728515625 270.18170166015625 207.12789916992188 255.783203125 C 210.87677001953125 241.3846435546875 195.9566650390625 225.81982421875 181.11993408203125 227.88299560546875 C 166.283203125 229.94619750976562 156.13458251953125 247.3968505859375 160.65252685546875 261.693359375 L 171.63336181640625 265.0110168457031" stroke-width="0.6000000238418579" fill="rgb(233, 92, 21)" opacity="1.0"/>
    <path d="M 141.7637176513672 308.2081604003906 C 134.5052490234375 309.1319274902344 125.93063354492188 310.98822021484375 123.2625732421875 317.8282470703125 C 122.30673217773438 320.5915832519531 122.23191833496094 323.5834655761719 123.04853820800781 326.3911437988281 C 124.88209533691406 333.3923645019531 129.99537658691406 339.0705871582031 136.76690673828125 341.6251525878906 C 142.51657104492188 343.7774353027344 148.81546020507812 343.3613586425781 154.89295959472656 342.8180236816406 C 158.30642700195312 342.50726318359375 161.9232177734375 342.0683898925781 164.58172607421875 339.9347839355469 C 168.1019287109375 337.0617980957031 168.8809814453125 332.02020263671875 168.89102172851562 327.47784423828125 C 168.9140625 320.830078125 167.8609619140625 314.222412109375 165.77255249023438 307.9111328125 C 165.0467529296875 305.73187255859375 164.14111328125 303.4999084472656 162.41546630859375 301.9852294921875 C 160.7388916015625 300.658935546875 158.712646484375 299.84912109375 156.583740234375 299.654541015625 C 150.14903259277344 298.8130798339844 143.66908264160156 300.8367614746094 138.85684204101562 305.19061279296875 L 141.7637176513672 308.2081604003906" stroke-width="0.6000000238418579" fill="rgb(70, 150, 179)" opacity="1.0"/>
    <path d="M 122.82041931152344 301.7004089355469 C 123.45144653320312 293.76861572265625 123.81784057617188 284.9503173828125 118.76531982421875 278.8100891113281 C 113.33380126953125 272.21734619140625 103.28263854980469 271.2396545410156 95.1693115234375 273.9111328125 C 92.04071044921875 274.9397888183594 88.95779418945312 276.51043701171875 86.95423889160156 279.1238098144531 C 85.30636596679688 281.2715148925781 84.51689147949219 283.94158935546875 83.90617370605469 286.57818603515625 C 81.97026062011719 294.89044189453125 81.5968017578125 304.19384765625 86.169189453125 311.39825439453125 C 90.78248596191406 318.6560363769531 100.33689880371094 322.40338134765625 108.64874267578125 320.16705322265625 C 116.96058654785156 317.93072509765625 123.41288757324219 309.9662170410156 123.80609130859375 301.362060546875 L 122.82041931152344 301.7004089355469" stroke-width="0.6000000238418579" fill="rgb(140, 28, 33)" opacity="1.0"/>
    <path d="M 145.73995971679688 258.6521911621094 C 138.0564422607422 262.9486083984375 130.1086883544922 267.50396728515625 124.92349243164062 274.6258544921875 C 119.7384033203125 281.7476501464844 118.1158447265625 292.2969970703125 123.52615356445312 299.24737548828125 C 130.22373962402344 307.8119812011719 144.73739624023438 306.5009460449219 152.36732482910156 298.7276611328125 C 159.99725341796875 290.954345703125 161.922119140625 279.13665771484375 161.097412109375 268.2893371582031 C 161.17855834960938 264.9058837890625 159.98846435546875 261.6150817871094 157.76190185546875 259.0662841796875 C 155.31820678710938 256.8047790527344 150.47569274902344 257.033935546875 149.36170959472656 260.18914794921875 L 145.73995971679688 258.6521911621094" stroke-width="0.6000000238418579" fill="rgb(159, 159, 159)" opacity="1.0"/>
    <path d="M 159.28656005859375 287.90582275390625 C 159.1180419921875 295.76751708984375 161.639404296875 303.8581848144531 167.10501098632812 309.5059509277344 C 172.57061767578125 315.1537170410156 181.14678955078125 317.96893310546875 188.68682861328125 315.636474609375 C 194.01565551757812 313.9806213378906 198.41204833984375 309.9469299316406 201.24652099609375 305.1346435546875 C 204.0810546875 300.32232666015625 205.47308349609375 294.7781982421875 206.0985107421875 289.2273254394531 C 206.3692626953125 286.8115539550781 206.4783935546875 284.2579345703125 205.41650390625 282.0782470703125 C 204.2001953125 279.57867431640625 201.67367553710938 278.0299987792969 199.20697021484375 276.7301025390625 C 192.24298095703125 273.060302734375 184.45126342773438 270.3179931640625 176.62307739257812 271.1547546386719 C 168.79489135742188 271.9915466308594 161.04937744140625 277.1795959472656 159.15069580078125 284.7998962402344 L 159.28656005859375 287.90582275390625" stroke-width="0.6000000238418579" fill="rgb(159, 159, 159)" opacity="1.0"/>
    <path d="M 126.99476623535156 349.9702453613281 C 127.33843994140625 342.1000671386719 127.3795166015625 333.33709716796875 122.1259765625 327.4876403808594 C 117.02487182617188 321.7918395996094 108.63185119628906 320.7341613769531 101.00201416015625 320.1852111816406 C 97.90217590332031 319.9667663574219 94.65579223632812 319.78765869140625 91.82289123535156 321.06072998046875 C 87.03030395507812 323.2110595703125 84.84590148925781 328.7850646972656 83.94064331054688 333.9515380859375 C 83.09854125976562 338.7466125488281 82.94937133789062 343.6377258300781 83.49763488769531 348.4752197265625 C 84.385009765625 356.33026123046875 87.931396484375 364.827880859375 95.31948852539062 367.6315612792969 C 99.30583190917969 369.1510009765625 103.845458984375 368.7230529785156 107.87004089355469 367.288330078125 C 111.89462280273438 365.85357666015625 115.50372314453125 363.4657287597656 119.03309631347656 361.0575866699219 C 122.56246948242188 358.6494445800781 125.97883605957031 356.20758056640625 128.1553192138672 352.649658203125 L 126.99476623535156 349.9702453613281" stroke-width="0.6000000238418579" fill="rgb(218, 166, 20)" opacity="1.0"/>
    <path d="M 151.00387573242188 341.4272766113281 C 138.72019958496094 340.9736022949219 128.39453125 350.5636901855469 127.94085693359375 362.84735107421875 C 127.90199279785156 363.89923095703125 127.93782043457031 364.9524841308594 128.0480194091797 365.9992980957031 C 128.467529296875 369.9767761230469 130.09420776367188 373.98699951171875 133.22314453125 376.4751281738281 C 135.86712646484375 378.5780029296875 139.29209899902344 379.40478515625 142.64028930664062 379.83746337890625 C 151.60414123535156 380.9832763671875 160.7113037109375 379.70806884765625 169.0157470703125 376.1443176269531 C 171.209228515625 375.1986083984375 173.39501953125 374.05072021484375 174.94580078125 372.2271728515625 C 177.55108642578125 369.16729736328125 177.89031982421875 364.6910400390625 176.93560791015625 360.784423828125 C 175.52224731445312 354.9834899902344 171.55645751953125 349.9730224609375 166.55743408203125 346.7059326171875 C 161.55841064453125 343.4388427734375 155.59976196289062 341.81829833984375 149.6389923095703 341.4617004394531 L 151.00387573242188 341.4272766113281" stroke-width="0.6000000238418579" fill="rgb(143, 165, 67)" opacity="1.0"/>
    <path d="M 138.27931213378906 378.9399108886719 C 134.91204833984375 364.9690246582031 113.66070556640625 360.32080078125 104.02476501464844 370.8575134277344 C 94.38887023925781 381.394287109375 100.07102966308594 401.2900390625 113.58517456054688 406.1907653808594 C 127.09931945800781 411.0914611816406 143.53378295898438 400.833984375 146.1094207763672 386.6777648925781 L 138.27931213378906 378.9399108886719" stroke-width="0.6000000238418579" fill="rgb(233, 92, 21)" opacity="1.0"/>
    <path d="M 175.7135009765625 348.81439208984375 C 175.68597412109375 356.1437072753906 176.41326904296875 364.901611328125 182.85934448242188 368.4420166015625 C 185.47943115234375 369.7511291503906 188.44122314453125 370.2149353027344 191.3360595703125 369.7694091796875 C 198.52835083007812 368.85986328125 204.8336181640625 364.5206604003906 208.25238037109375 358.1278076171875 C 211.1385498046875 352.697509765625 211.54537963867188 346.3873291015625 211.7969970703125 340.2804870605469 C 211.93276977539062 336.84979248046875 211.9677734375 333.20050048828125 210.19479370117188 330.2823486328125 C 207.7996826171875 326.41204833984375 202.89382934570312 324.98193359375 198.38372802734375 324.38055419921875 C 191.78421020507812 323.4921875 185.08444213867188 323.6778564453125 178.54425048828125 324.9303894042969 C 176.28533935546875 325.36749267578125 173.95068359375 325.97637939453125 172.22161865234375 327.49310302734375 C 170.68609619140625 328.9855651855469 169.61798095703125 330.8926086425781 169.1475830078125 332.9816589355469 C 167.47409057617188 339.26300048828125 168.64031982421875 345.9623107910156 172.3380126953125 351.3086242675781 L 175.7135009765625 348.81439208984375" stroke-width="0.6000000238418579" fill="rgb(70, 150, 179)" opacity="1.0"/>
  </g>
</svg>
