<?xml version="1.0" ?>
<svg xmlns="http://www.w3.org/2000/svg" version="1.1" width="600" height="600">
  <defs/>
  <g>
    <path d="M 354.87237548828125 342.93212890625 C 358.5824279785156 346.3859558105469 365.7380065917969 343.6163024902344 366.5211486816406 338.6413269042969 C 367.3042907714844 333.6663513183594 361.7599792480469 328.9204406738281 356.8310241699219 330.10968017578125 C 351.9020690917969 331.2989196777344 349.06488037109375 337.51519775390625 351.06298828125 342.1803894042969 L 354.87237548828125 342.93212890625" stroke-width="0.6000000238418579" fill="rgb(233, 92, 21)" opacity="1.0"/>
    <path d="M 122.83322143554688 209.4522705078125 C 126.978759765625 209.6287841796875 131.94898986816406 209.40966796875 134.0933074951172 205.8409423828125 C 134.89138793945312 204.38751220703125 135.21881103515625 202.72222900390625 135.0303497314453 201.07485961914062 C 134.67373657226562 196.98626708984375 132.3575439453125 193.32415771484375 128.8162384033203 191.24981689453125 C 125.8077392578125 189.49789428710938 122.2470703125 189.12921142578125 118.79800415039062 188.852783203125 C 116.86027526855469 188.70062255859375 114.79666137695312 188.6007080078125 113.10696411132812 189.53958129882812 C 110.86495971679688 190.80950927734375 109.9482421875 193.55328369140625 109.509033203125 196.0914306640625 C 108.861572265625 199.80517578125 108.81948852539062 203.59927368164062 109.38441467285156 207.32647705078125 C 109.58207702636719 208.61395263671875 109.87527465820312 209.947998046875 110.69528198242188 210.95941162109375 C 111.50584411621094 211.86083984375 112.56118774414062 212.50692749023438 113.73262023925781 212.81890869140625 C 117.24917602539062 213.90350341796875 121.06451416015625 213.390869140625 124.17007446289062 211.41650390625 L 122.83322143554688 209.4522705078125" stroke-width="0.6000000238418579" fill="rgb(70, 150, 179)" opacity="1.0"/>
    <path d="M 459.11767578125 403.8252258300781 C 461.19189453125 406.06744384765625 463.58514404296875 408.46563720703125 466.6328125 408.6376953125 C 469.90679931640625 408.8205261230469 472.79833984375 406.2384033203125 474.1558837890625 403.2535400390625 C 474.6796875 402.1029357910156 475.0386962890625 400.82415771484375 474.8226318359375 399.5786437988281 C 474.64532470703125 398.5547180175781 474.0972900390625 397.6370544433594 473.5120849609375 396.7785949707031 C 471.670166015625 394.0691223144531 469.14178466796875 391.54266357421875 465.91876220703125 390.95819091796875 C 462.6700439453125 390.37139892578125 459.1260986328125 392.092529296875 457.59417724609375 395.02020263671875 C 456.062255859375 397.9478454589844 456.63079833984375 401.84136962890625 458.9566650390625 404.1914367675781 L 459.11767578125 403.8252258300781" stroke-width="0.6000000238418579" fill="rgb(140, 28, 33)" opacity="1.0"/>
    <path d="M 87.88325500488281 209.3026123046875 C 92.48390197753906 209.55831909179688 97.27395629882812 209.773681640625 101.562744140625 208.080078125 C 105.85147094726562 206.386474609375 109.52679443359375 202.17901611328125 109.08464050292969 197.59002685546875 C 108.52619934082031 191.9266357421875 101.7440185546875 188.43618774414062 96.19207763671875 189.732177734375 C 90.64012145996094 191.02813720703125 86.47549438476562 195.71136474609375 83.79818725585938 200.73678588867188 C 82.81356811523438 202.20941162109375 82.416748046875 203.99755859375 82.68608093261719 205.7484130859375 C 83.13194274902344 207.43316650390625 85.33642578125 208.6898193359375 86.71356201171875 207.60772705078125 L 87.88325500488281 209.3026123046875" stroke-width="0.6000000238418579" fill="rgb(159, 159, 159)" opacity="1.0"/>
    <path d="M 383.0585632324219 312.8341979980469 C 387.30340576171875 311.97930908203125 391.3478088378906 309.6514587402344 393.7254333496094 306.0352478027344 C 396.10302734375 302.4190368652344 396.58447265625 297.47198486328125 394.4243469238281 293.7007141113281 C 392.8937072753906 291.0363464355469 390.19744873046875 289.1589660644531 387.2706298828125 288.21453857421875 C 384.34381103515625 287.2701110839844 381.19720458984375 287.1888122558594 378.1391296386719 287.520263671875 C 376.8084411621094 287.665283203125 375.423095703125 287.9137268066406 374.3795166015625 288.7464904785156 C 373.1826171875 289.70068359375 372.65423583984375 291.2445983886719 372.2523498535156 292.7264099121094 C 371.1178283691406 296.9099426269531 370.58123779296875 301.42669677734375 371.9722900390625 305.53265380859375 C 373.3633728027344 309.63861083984375 377.08270263671875 313.1768493652344 381.4058837890625 313.28070068359375 L 383.0585632324219 312.8341979980469" stroke-width="0.6000000238418579" fill="rgb(159, 159, 159)" opacity="1.0"/>
    <path d="M 104.4471435546875 418.2860107421875 C 107.49473571777344 416.1468505859375 110.78961181640625 413.636962890625 111.46717834472656 409.983154296875 C 112.13113403320312 406.4306945800781 110.10879516601562 402.9814758300781 108.11579895019531 399.96478271484375 C 107.30436706542969 398.7405090332031 106.43597412109375 397.4726257324219 105.14266967773438 396.77813720703125 C 102.95599365234375 395.6022644042969 100.23822021484375 396.39013671875 98.041748046875 397.539794921875 C 96.00262451171875 398.6060791015625 94.127197265625 399.95965576171875 92.47283935546875 401.5590515136719 C 89.78567504882812 404.15509033203125 87.62400817871094 407.9324645996094 88.70260620117188 411.50830078125 C 89.28208923339844 413.43963623046875 90.75059509277344 415.01708984375 92.44786071777344 416.1114501953125 C 94.1451416015625 417.205810546875 96.07977294921875 417.869873046875 97.9990234375 418.4981689453125 C 99.91827392578125 419.12646484375 101.81759643554688 419.7027587890625 103.77774047851562 419.492919921875 L 104.4471435546875 418.2860107421875" stroke-width="0.6000000238418579" fill="rgb(218, 166, 20)" opacity="1.0"/>
    <path d="M 99.49136352539062 156.2484130859375 C 107.16964721679688 158.5826416015625 115.28640747070312 154.2504425048828 117.62063598632812 146.57215881347656 C 117.82052612304688 145.9146728515625 117.9735107421875 145.2438201904297 118.07846069335938 144.56466674804688 C 118.47674560546875 141.98399353027344 118.11848449707031 139.181396484375 116.55819702148438 137.08917236328125 C 115.23979187011719 135.3209686279297 113.21565246582031 134.22808837890625 111.17428588867188 133.3967742919922 C 105.70700073242188 131.17909240722656 99.74560546875 130.46575927734375 93.909423828125 131.33087158203125 C 92.36712646484375 131.56214904785156 90.7960205078125 131.92233276367188 89.51309204101562 132.8148956298828 C 87.35842895507812 134.31207275390625 86.39801025390625 137.0811004638672 86.34938049316406 139.70626831054688 C 86.27445983886719 143.60365295410156 87.94248962402344 147.4276123046875 90.55340576171875 150.32333374023438 C 93.164306640625 153.2190399169922 96.65545654296875 155.23536682128906 100.35867309570312 156.4542236328125 L 99.49136352539062 156.2484130859375" stroke-width="0.6000000238418579" fill="rgb(143, 165, 67)" opacity="1.0"/>
    <path d="M 460.79412841796875 344.4601135253906 C 463.87847900390625 351.5215148925781 475.53338623046875 351.98834228515625 479.6356201171875 345.5240478515625 C 483.73779296875 339.0597839355469 478.87713623046875 329.0866394042969 471.28369140625 327.7629699707031 C 463.690185546875 326.4393005371094 455.972412109375 333.39190673828125 455.9364013671875 341.1069641113281 L 460.79412841796875 344.4601135253906" stroke-width="0.6000000238418579" fill="rgb(233, 92, 21)" opacity="1.0"/>
    <path d="M 107.38253784179688 227.48410034179688 C 110.37069702148438 224.06747436523438 113.58578491210938 219.67633056640625 112.00828552246094 215.40377807617188 C 111.3143310546875 213.7279052734375 110.11746215820312 212.30865478515625 108.58271789550781 211.34185791015625 C 104.84977722167969 208.84759521484375 100.13943481445312 208.3173828125 95.94540405273438 209.91937255859375 C 92.39117431640625 211.28738403320312 89.63932800292969 214.07339477539062 87.0426025390625 216.82733154296875 C 85.58644104003906 218.37667846679688 84.08865356445312 220.06918334960938 83.73321533203125 222.1536865234375 C 83.28224182128906 224.93603515625 84.99609375 227.59637451171875 86.86126708984375 229.70849609375 C 89.58711242675781 232.80303955078125 92.79583740234375 235.4359130859375 96.363037109375 237.50509643554688 C 97.596923828125 238.2176513671875 98.93598937988281 238.88064575195312 100.36032104492188 238.87319946289062 C 101.684326171875 238.79852294921875 102.95803833007812 238.34024047851562 104.02607727050781 237.55419921875 C 107.35861206054688 235.29583740234375 109.53274536132812 231.68927001953125 109.97369384765625 227.68783569335938 L 107.38253784179688 227.48410034179688" stroke-width="0.6000000238418579" fill="rgb(70, 150, 179)" opacity="1.0"/>
    <path d="M 109.44630432128906 82.42539978027344 C 109.99349975585938 86.65608215332031 110.77766418457031 91.32249450683594 114.10794067382812 93.98406982421875 C 117.6871337890625 96.84107971191406 123.06796264648438 96.24107360839844 127.02821350097656 93.94137573242188 C 128.55551147460938 93.05535888671875 129.99880981445312 91.89010620117188 130.76046752929688 90.29736328125 C 131.38710021972656 88.98828125 131.505615234375 87.50021362304688 131.5340576171875 86.04949951171875 C 131.62924194335938 81.47476196289062 130.79507446289062 76.55308532714844 127.59883117675781 73.28009033203125 C 124.375244140625 69.983642578125 118.94833374023438 69.07574462890625 114.83575439453125 71.16917419433594 C 110.72317504882812 73.2625732421875 108.22030639648438 78.15496826171875 108.96670532226562 82.71202087402344 L 109.44630432128906 82.42539978027344" stroke-width="0.6000000238418579" fill="rgb(140, 28, 33)" opacity="1.0"/>
    <path d="M 93.9456787109375 400.18157958984375 C 96.34347534179688 397.2647399902344 98.80636596679688 394.2031555175781 99.76467895507812 390.5480651855469 C 100.72299194335938 386.8930358886719 99.72262573242188 382.4255676269531 96.47540283203125 380.49468994140625 C 92.46173095703125 378.1201477050781 86.869140625 380.91180419921875 85.03604125976562 385.2091064453125 C 83.20297241210938 389.50640869140625 84.28076171875 394.52777099609375 86.30522155761719 398.7318420410156 C 86.80152893066406 400.0960388183594 87.7911376953125 401.2245788574219 89.07882690429688 401.894775390625 C 90.40834045410156 402.416259765625 92.30686950683594 401.5680236816406 92.25880432128906 400.13360595703125 L 93.9456787109375 400.18157958984375" stroke-width="0.6000000238418579" fill="rgb(159, 159, 159)" opacity="1.0"/>
    <path d="M 477.72021484375 67.23321533203125 C 479.265625 63.709381103515625 479.63726806640625 59.57933044433594 478.220947265625 56.00384521484375 C 476.8046875 52.4283447265625 473.452392578125 49.552520751953125 469.6065673828125 49.19830322265625 C 466.8873291015625 48.95130920410156 464.145263671875 49.953887939453125 461.964111328125 51.60047912597656 C 459.782958984375 53.2470703125 458.117431640625 55.494171142578125 456.7972412109375 57.8875732421875 C 456.22332763671875 58.929473876953125 455.69677734375 60.06390380859375 455.7696533203125 61.24809265136719 C 455.8526611328125 62.60577392578125 456.705810546875 63.778289794921875 457.578369140625 64.82711791992188 C 460.0419921875 67.78811645507812 463.05316162109375 70.48435974121094 466.74969482421875 71.56883239746094 C 470.44622802734375 72.65330505371094 474.9185791015625 71.75454711914062 477.20123291015625 68.6632080078125 L 477.72021484375 67.23321533203125" stroke-width="0.6000000238418579" fill="rgb(159, 159, 159)" opacity="1.0"/>
    <path d="M 88.85317993164062 112.58535766601562 C 93.18885803222656 114.24578857421875 98.080078125 115.90361022949219 102.33030700683594 114.05793762207031 C 106.4661865234375 112.26882934570312 108.62332153320312 107.77407836914062 110.35366821289062 103.611083984375 C 111.05412292480469 101.91888427734375 111.75990295410156 100.13742065429688 111.57672119140625 98.31619262695312 C 111.26870727539062 95.23574829101562 108.56013488769531 92.97465515136719 105.84072875976562 91.50469970703125 C 103.31716918945312 90.13934326171875 100.61064147949219 89.1434326171875 97.80398559570312 88.54743957519531 C 93.24711608886719 87.57804870605469 87.83493041992188 87.97528076171875 84.88919067382812 91.58248901367188 C 83.29605102539062 93.52755737304688 82.68836975097656 96.145263671875 82.73959350585938 98.662841796875 C 82.79084777832031 101.18045043945312 83.45242309570312 103.64358520507812 84.14024353027344 106.06593322753906 C 84.82803344726562 108.48828125 85.55577087402344 110.85374450683594 87.13876342773438 112.73428344726562 L 88.85317993164062 112.58535766601562" stroke-width="0.6000000238418579" fill="rgb(218, 166, 20)" opacity="1.0"/>
    <path d="M 130.6136016845703 138.66400146484375 C 137.49078369140625 137.4158172607422 142.05398559570312 130.8289031982422 140.8057861328125 123.95172119140625 C 140.69891357421875 123.36282348632812 140.55038452148438 122.78225708007812 140.36134338378906 122.21438598632812 C 139.6426239013672 120.05670166015625 138.24948120117188 118.02825927734375 136.2079620361328 117.02861022949219 C 134.48280334472656 116.18365478515625 132.47976684570312 116.14277648925781 130.5675048828125 116.31138610839844 C 125.449462890625 116.769775390625 120.54751586914062 118.59017944335938 116.370849609375 121.58349609375 C 115.26815795898438 122.37657165527344 114.19448852539062 123.28099060058594 113.55593872070312 124.48309326171875 C 112.4827880859375 126.50057983398438 112.84103393554688 129.0279083251953 113.84834289550781 131.08087158203125 C 115.34169006347656 134.12982177734375 118.156005859375 136.42808532714844 121.33123779296875 137.63197326660156 C 124.50643920898438 138.83584594726562 128.0135040283203 139.00811767578125 131.3673858642578 138.47821044921875 L 130.6136016845703 138.66400146484375" stroke-width="0.6000000238418579" fill="rgb(143, 165, 67)" opacity="1.0"/>
    <path d="M 402.7519836425781 309.3961486816406 C 405.98931884765625 318.1335754394531 420.02777099609375 319.4997863769531 425.4254150390625 311.9781799316406 C 430.822998046875 304.45654296875 425.6417236328125 292.0815734863281 416.5655517578125 289.9606018066406 C 407.4893493652344 287.8396301269531 397.693115234375 295.7018127441406 397.1183166503906 305.0134582519531 L 402.7519836425781 309.3961486816406" stroke-width="0.6000000238418579" fill="rgb(233, 92, 21)" opacity="1.0"/>
    <path d="M 124.43246459960938 116.25248718261719 C 128.49595642089844 116.42222595214844 133.36752319335938 116.20355224609375 135.46652221679688 112.70384216308594 C 136.24765014648438 111.27859497070312 136.5672607421875 109.64608764648438 136.38124084472656 108.031494140625 C 136.0284881591797 104.02423095703125 133.75531005859375 100.4365234375 130.28257751464844 98.40606689453125 C 127.33230590820312 96.69123840332031 123.8419189453125 96.33265686035156 120.46099853515625 96.06442260742188 C 118.56155395507812 95.91682434082031 116.53877258300781 95.82049560546875 114.88328552246094 96.74209594726562 C 112.68673706054688 97.98858642578125 111.79034423828125 100.67874145507812 111.36181640625 103.16690063476562 C 110.73011779785156 106.80758666992188 110.69186401367188 110.5264892578125 111.24850463867188 114.17941284179688 C 111.44326782226562 115.44117736816406 111.73170471191406 116.74859619140625 112.5362548828125 117.73930358886719 C 113.33146667480469 118.62220764160156 114.36640930175781 119.25466918945312 115.51486206054688 119.55953979492188 C 118.96258544921875 120.619873046875 122.701904296875 120.11441040039062 125.74435424804688 118.17672729492188 L 124.43246459960938 116.25248718261719" stroke-width="0.6000000238418579" fill="rgb(70, 150, 179)" opacity="1.0"/>
    <path d="M 416.63623046875 64.83921813964844 C 417.9852294921875 67.7979736328125 419.604736328125 71.02090454101562 422.6285400390625 72.21148681640625 C 425.87744140625 73.48849487304688 429.662109375 71.8426513671875 432.03021240234375 69.27786254882812 C 432.94366455078125 68.28936767578125 433.73321533203125 67.1163330078125 433.93023681640625 65.78504943847656 C 434.09259033203125 64.69071960449219 433.8446044921875 63.580169677734375 433.5394287109375 62.517059326171875 C 432.5810546875 59.16337585449219 430.8677978515625 55.7657470703125 427.8043212890625 54.099700927734375 C 424.7156982421875 52.422698974609375 420.5587158203125 52.98052978515625 418.0333251953125 55.429290771484375 C 415.5079345703125 57.8780517578125 414.78387451171875 62.003997802734375 416.351318359375 65.15573120117188 L 416.63623046875 64.83921813964844" stroke-width="0.6000000238418579" fill="rgb(140, 28, 33)" opacity="1.0"/>
    <path d="M 121.02182006835938 425.8011474609375 C 122.790771484375 422.9482421875 124.60000610351562 419.960205078125 125.0135498046875 416.6265869140625 C 125.42706298828125 413.29302978515625 124.01895141601562 409.4744873046875 120.9300537109375 408.1559143066406 C 117.11349487304688 406.5367736816406 112.51470947265625 409.6559143066406 111.40609741210938 413.6585693359375 C 110.2974853515625 417.66119384765625 111.83914184570312 421.95867919921875 114.11859130859375 425.4244384765625 C 114.71672058105469 426.5679931640625 115.72174072265625 427.4456787109375 116.93539428710938 427.8843994140625 C 118.16836547851562 428.18719482421875 119.74124145507812 427.2159423828125 119.52978515625 425.95770263671875 L 121.02182006835938 425.8011474609375" stroke-width="0.6000000238418579" fill="rgb(159, 159, 159)" opacity="1.0"/>
    <path d="M 476.0357666015625 447.39208984375 C 476.4610595703125 445.39947509765625 476.212890625 443.2177734375 475.09661865234375 441.5145263671875 C 473.9803466796875 439.811279296875 471.9345703125 438.67767333984375 469.9022216796875 438.904541015625 C 468.4654541015625 439.0667724609375 467.150390625 439.8795166015625 466.1949462890625 440.96636962890625 C 465.23944091796875 442.05322265625 464.615478515625 443.396484375 464.18634033203125 444.77880859375 C 463.9998779296875 445.3804931640625 463.847900390625 446.0250244140625 464.01220703125 446.6314697265625 C 464.20013427734375 447.3267822265625 464.767822265625 447.84375 465.3323974609375 448.2945556640625 C 466.92620849609375 449.5672607421875 468.77587890625 450.6441650390625 470.808837890625 450.81201171875 C 472.841796875 450.9798583984375 475.0654296875 450.03619384765625 475.9193115234375 448.18914794921875 L 476.0357666015625 447.39208984375" stroke-width="0.6000000238418579" fill="rgb(159, 159, 159)" opacity="1.0"/>
    <path d="M 456.31536865234375 298.20928955078125 C 455.6036376953125 294.02459716796875 454.6312255859375 289.4039611816406 451.2003173828125 286.9186706542969 C 447.8671875 284.49700927734375 443.3260498046875 284.8919372558594 439.2447509765625 285.46826171875 C 437.5870361328125 285.704833984375 435.856689453125 285.978759765625 434.5087890625 286.970703125 C 432.22821044921875 288.6470642089844 431.7098388671875 291.8310241699219 431.819091796875 294.65521240234375 C 431.91943359375 297.2765808105469 432.39569091796875 299.8699645996094 433.2332763671875 302.35595703125 C 434.59173583984375 306.39300537109375 437.42376708984375 310.4669189453125 441.633544921875 311.105712890625 C 443.90576171875 311.4538879394531 446.24853515625 310.7135009765625 448.20574951171875 309.501220703125 C 450.1629638671875 308.2889099121094 451.793212890625 306.6216735839844 453.37921142578125 304.9527893066406 C 454.96514892578125 303.283935546875 456.48779296875 301.610107421875 457.23065185546875 299.4890441894531 L 456.31536865234375 298.20928955078125" stroke-width="0.6000000238418579" fill="rgb(218, 166, 20)" opacity="1.0"/>
    <path d="M 427.27459716796875 371.87921142578125 C 425.4696044921875 373.2278137207031 425.09954833984375 375.7843322753906 426.4481201171875 377.58935546875 C 426.5635986328125 377.7439270019531 426.68994140625 377.8901062011719 426.8260498046875 378.02679443359375 C 427.34356689453125 378.5461120605469 428.037109375 378.9311828613281 428.7698974609375 378.92620849609375 C 429.38909912109375 378.9220886230469 429.97296142578125 378.64599609375 430.50048828125 378.322509765625 C 431.9114990234375 377.45465087890625 433.0643310546875 376.2248229980469 433.8392333984375 374.76080322265625 C 434.04345703125 374.37347412109375 434.2232666015625 373.95819091796875 434.2347412109375 373.5195617675781 C 434.2545166015625 372.7831726074219 433.787841796875 372.1053771972656 433.2021484375 371.65777587890625 C 432.3330078125 370.99261474609375 431.190673828125 370.7339172363281 430.10137939453125 370.8428955078125 C 429.01214599609375 370.9518737792969 427.97540283203125 371.4062194824219 427.08380126953125 372.0411682128906 L 427.27459716796875 371.87921142578125" stroke-width="0.6000000238418579" fill="rgb(143, 165, 67)" opacity="1.0"/>
    <path d="M 452.2679443359375 345.8565979003906 C 458.541015625 342.9534912109375 458.73358154296875 332.4919128417969 452.85662841796875 328.93829345703125 C 446.97967529296875 325.3847351074219 438.12969970703125 329.9373474121094 437.08990478515625 336.7731018066406 C 436.050048828125 343.6088562011719 442.43511962890625 350.39556884765625 449.35491943359375 350.2782287597656 L 452.2679443359375 345.8565979003906" stroke-width="0.6000000238418579" fill="rgb(233, 92, 21)" opacity="1.0"/>
    <path d="M 448.3790283203125 68.92311096191406 C 451.96783447265625 67.94808959960938 456.1536865234375 66.41119384765625 457.01611328125 62.7806396484375 C 457.3031005859375 61.32246398925781 457.1304931640625 59.8111572265625 456.52215576171875 58.455230712890625 C 455.10723876953125 55.059814453125 452.1343994140625 52.560821533203125 448.5462646484375 51.750701904296875 C 445.50079345703125 51.0712890625 442.35931396484375 51.72332763671875 439.3382568359375 52.423858642578125 C 437.64178466796875 52.82012939453125 435.85205078125 53.295166015625 434.6636962890625 54.55598449707031 C 433.0936279296875 56.24951171875 433.0556640625 58.842071533203125 433.36981201171875 61.129302978515625 C 433.8253173828125 64.47723388671875 434.8197021484375 67.72938537597656 436.31439208984375 70.75958251953125 C 436.8328857421875 71.80557250976562 437.445556640625 72.86544799804688 438.420654296875 73.50665283203125 C 439.3577880859375 74.05647277832031 440.4346923828125 74.32174682617188 441.51995849609375 74.27011108398438 C 444.81817626953125 74.24154663085938 447.9378662109375 72.767578125 450.0543212890625 70.23782348632812 L 448.3790283203125 68.92311096191406" stroke-width="0.6000000238418579" fill="rgb(70, 150, 179)" opacity="1.0"/>
    <path d="M 456.1563720703125 400.3101806640625 C 456.6552734375 397.1922607421875 457.077392578125 393.71533203125 455.2716064453125 391.12750244140625 C 453.330078125 388.3487854003906 449.3846435546875 387.6461486816406 446.0911865234375 388.4479675292969 C 444.8211669921875 388.756591796875 443.55224609375 389.2810363769531 442.677490234375 390.25189208984375 C 441.9581298828125 391.0497131347656 441.5618896484375 392.0811767578125 441.2374267578125 393.1050109863281 C 440.21044921875 396.3324279785156 439.770263671875 400.00103759765625 441.3526611328125 402.9947509765625 C 442.9495849609375 406.0108642578125 446.6114501953125 407.7935485839844 449.9698486328125 407.1700744628906 C 453.3282470703125 406.546630859375 456.1309814453125 403.59869384765625 456.55694580078125 400.2073059082031 L 456.1563720703125 400.3101806640625" stroke-width="0.6000000238418579" fill="rgb(140, 28, 33)" opacity="1.0"/>
    <path d="M 122.76065063476562 214.92950439453125 C 118.2843017578125 219.387451171875 113.67555236816406 224.07550048828125 111.47309875488281 230.00152587890625 C 109.27070617675781 235.927490234375 110.19425964355469 243.53125 115.27973937988281 247.28512573242188 C 121.56758117675781 251.9049072265625 131.3419952392578 248.18594360351562 135.107421875 241.33599853515625 C 138.87286376953125 234.48602294921875 137.91238403320312 225.947265625 135.24009704589844 218.61190795898438 C 134.640380859375 216.25830078125 133.18023681640625 214.21514892578125 131.14773559570312 212.88555908203125 C 129.0208740234375 211.79653930664062 125.71925354003906 212.89346313476562 125.56106567382812 215.28955078125 L 122.76065063476562 214.92950439453125" stroke-width="0.6000000238418579" fill="rgb(159, 159, 159)" opacity="1.0"/>
    <path d="M 107.95367431640625 240.0093994140625 C 102.4364013671875 238.731201171875 96.36099243164062 239.3155517578125 91.57356262207031 242.33566284179688 C 86.7861328125 245.35577392578125 83.53678894042969 250.9864501953125 84.06915283203125 256.64581298828125 C 84.45059204101562 260.6465759277344 86.64581298828125 264.3406982421875 89.62026977539062 267.0485534667969 C 92.5947265625 269.75640869140625 96.29779052734375 271.55535888671875 100.11868286132812 272.8148498535156 C 101.78176879882812 273.3619689941406 103.56585693359375 273.81549072265625 105.25906372070312 273.3883361816406 C 107.20050048828125 272.8995056152344 108.66485595703125 271.3468017578125 109.94497680664062 269.7995910644531 C 113.55902099609375 265.43145751953125 116.64126586914062 260.34307861328125 117.205810546875 254.701171875 C 117.77032470703125 249.0592041015625 115.25521850585938 242.83389282226562 110.16325378417969 240.37164306640625 L 107.95367431640625 240.0093994140625" stroke-width="0.6000000238418579" fill="rgb(159, 159, 159)" opacity="1.0"/>
    <path d="M 285.8353271484375 87.66693115234375 C 284.4486083984375 93.40097045898438 283.15557861328125 99.834716796875 286.1733093261719 104.890380859375 C 289.10113525390625 109.8111572265625 295.11651611328125 111.79794311523438 300.64434814453125 113.30087280273438 C 302.890869140625 113.90812683105469 305.250732421875 114.50758361816406 307.5159912109375 113.98028564453125 C 311.3478088378906 113.09072875976562 313.75634765625 109.30935668945312 315.1661071777344 105.64309692382812 C 316.4759521484375 102.24069213867188 317.2904357910156 98.6678466796875 317.58465576171875 95.03390502929688 C 318.0645446777344 89.13359069824219 316.6829833984375 82.37786865234375 311.6577453613281 79.25283813476562 C 308.9472351074219 77.561767578125 305.5495300292969 77.22206115722656 302.3852233886719 77.6964111328125 C 299.2209167480469 78.17079162597656 296.2245788574219 79.40545654296875 293.2839050292969 80.66651916503906 C 290.34326171875 81.92756652832031 287.48077392578125 83.22967529296875 285.36859130859375 85.53065490722656 L 285.8353271484375 87.66693115234375" stroke-width="0.6000000238418579" fill="rgb(218, 166, 20)" opacity="1.0"/>
    <path d="M 228.20025634765625 121.89682006835938 C 221.7882080078125 114.02529907226562 210.20907592773438 112.84214782714844 202.3375244140625 119.25419616699219 C 201.66348266601562 119.80325317382812 201.02926635742188 120.39944458007812 200.4395751953125 121.03826904296875 C 198.19940185546875 123.46607971191406 196.59674072265625 126.6610107421875 196.75741577148438 129.95892333984375 C 196.8929443359375 132.74591064453125 198.24609375 135.322265625 199.80206298828125 137.63621520996094 C 203.9754638671875 143.8243408203125 209.72967529296875 148.7821502685547 216.4669189453125 151.99462890625 C 218.24920654296875 152.84078979492188 220.15274047851562 153.57196044921875 222.129638671875 153.54080200195312 C 225.44854736328125 153.490478515625 228.41180419921875 151.2618408203125 230.31634521484375 148.5404510498047 C 233.14669799804688 144.5021514892578 234.0955810546875 139.31031799316406 233.39935302734375 134.4271697998047 C 232.703125 129.5440216064453 230.46194458007812 124.9625244140625 227.43515014648438 121.06842041015625 L 228.20025634765625 121.89682006835938" stroke-width="0.6000000238418579" fill="rgb(143, 165, 67)" opacity="1.0"/>
    <path d="M 205.33590698242188 90.68168640136719 C 207.6165771484375 101.29342651367188 223.5751953125 105.20126342773438 231.04818725585938 97.42611694335938 C 238.52117919921875 89.65093994140625 234.60369873046875 74.52227783203125 224.49172973632812 70.56878662109375 C 214.3797607421875 66.61529541015625 201.77880859375 74.05221557617188 199.56881713867188 84.69253540039062 L 205.33590698242188 90.68168640136719" stroke-width="0.6000000238418579" fill="rgb(233, 92, 21)" opacity="1.0"/>
    <path d="M 203.22573852539062 95.18106079101562 C 201.44635009765625 89.67547607421875 198.74981689453125 83.28347778320312 193.04415893554688 82.21038818359375 C 190.75689697265625 81.8717041015625 188.42092895507812 82.2510986328125 186.35845947265625 83.29631042480469 C 181.18585205078125 85.74508666992188 177.52099609375 90.54910278320312 176.52606201171875 96.18496704101562 C 175.69436645507812 100.96788024902344 176.93887329101562 105.802001953125 178.24990844726562 110.44546508789062 C 178.9906005859375 113.05268859863281 179.860595703125 115.79916381835938 181.90740966796875 117.5531005859375 C 184.65487670898438 119.86859130859375 188.68670654296875 119.73666381835938 192.2181396484375 119.0802001953125 C 197.38760375976562 118.12591552734375 202.36849975585938 116.34120178222656 206.96768188476562 113.7952880859375 C 208.55508422851562 112.91256713867188 210.15713500976562 111.88236999511719 211.08184814453125 110.31982421875 C 211.86737060546875 108.82296752929688 212.2003173828125 107.1298828125 212.04022216796875 105.44705200195312 C 211.75311279296875 100.32345581054688 209.23284912109375 95.583740234375 205.1456298828125 92.48077392578125 L 203.22573852539062 95.18106079101562" stroke-width="0.6000000238418579" fill="rgb(70, 150, 179)" opacity="1.0"/>
    <path d="M 254.59982299804688 126.82087707519531 C 248.74908447265625 126.66073608398438 242.25726318359375 126.7288818359375 237.94000244140625 130.67527770996094 C 233.3048095703125 134.9173583984375 232.9710693359375 142.3382110595703 235.24383544921875 148.19598388671875 C 236.11917114257812 150.45486450195312 237.390869140625 152.65943908691406 239.38726806640625 154.03128051757812 C 241.0279541015625 155.1596221923828 243.01953125 155.63743591308594 244.979736328125 155.98521423339844 C 251.15985107421875 157.08935546875 258.00830078125 157.00784301757812 263.12567138671875 153.37344360351562 C 268.2806701660156 149.70697021484375 270.66796875 142.54507446289062 268.707275390625 136.52484130859375 C 266.7465515136719 130.50460815429688 260.64910888671875 126.06948852539062 254.3135986328125 126.10975646972656 L 254.59982299804688 126.82087707519531" stroke-width="0.6000000238418579" fill="rgb(140, 28, 33)" opacity="1.0"/>
    <path d="M 291.60693359375 122.42257690429688 C 285.84161376953125 125.32597351074219 279.87445068359375 128.41065979003906 275.849609375 133.46331787109375 C 271.8248291015625 138.5159149169922 270.301025390625 146.19265747070312 274.043701171875 151.456298828125 C 278.67816162109375 157.94338989257812 289.352294921875 157.44403076171875 295.1888427734375 151.99183654785156 C 301.025390625 146.53964233398438 302.81097412109375 137.9433135986328 302.5514221191406 129.97052001953125 C 302.7183532714844 127.49444580078125 301.9510498046875 125.04583740234375 300.40087890625 123.10787963867188 C 298.6825256347656 121.37350463867188 295.127685546875 121.38752746582031 294.2113342285156 123.66360473632812 L 291.60693359375 122.42257690429688" stroke-width="0.6000000238418579" fill="rgb(159, 159, 159)" opacity="1.0"/>
    <path d="M 195.76019287109375 134.1156463623047 C 192.47576904296875 128.9792938232422 187.36001586914062 124.85635375976562 181.4022216796875 123.57754516601562 C 175.44439697265625 122.29873657226562 168.70562744140625 124.18679809570312 164.85577392578125 128.94326782226562 C 162.13818359375 132.30958557128906 161.04736328125 136.80503845214844 161.29861450195312 141.1278839111328 C 161.54986572265625 145.4507598876953 163.04598999023438 149.6224365234375 165.038818359375 153.46763610839844 C 165.90704345703125 155.14044189453125 166.93881225585938 156.83230590820312 168.56350708007812 157.77792358398438 C 170.4256591796875 158.8629150390625 172.72137451171875 158.77001953125 174.87115478515625 158.54269409179688 C 180.94036865234375 157.90081787109375 187.1424560546875 156.30438232421875 191.8233642578125 152.38693237304688 C 196.5042724609375 148.46946716308594 199.2540283203125 141.7850799560547 197.18814086914062 136.05751037597656 L 195.76019287109375 134.1156463623047" stroke-width="0.6000000238418579" fill="rgb(159, 159, 159)" opacity="1.0"/>
    <path d="M 277.1372375488281 99.58988952636719 C 271.7198181152344 99.92140197753906 265.7124328613281 100.52458190917969 262.0828857421875 104.54574584960938 C 258.547607421875 108.45137023925781 258.42755126953125 114.27850341796875 258.60107421875 119.5460205078125 C 258.67474365234375 121.685791015625 258.785888671875 123.92312622070312 259.8623046875 125.77252197265625 C 261.6809997558594 128.9014892578125 265.6576843261719 129.99667358398438 269.26300048828125 130.24473571777344 C 272.6092529296875 130.47628784179688 275.9714050292969 130.2261199951172 279.2465515136719 129.50193786621094 C 284.56494140625 128.3280029296875 290.13201904296875 125.28579711914062 291.5208435058594 120.02146911621094 C 292.2747802734375 117.1805419921875 291.65447998046875 114.10081481933594 290.3814392089844 111.446533203125 C 289.1084289550781 108.792236328125 287.21221923828125 106.49130249023438 285.3078918457031 104.2464599609375 C 283.403564453125 102.00161743164062 281.4842834472656 99.83663940429688 278.8895568847656 98.60163879394531 L 277.1372375488281 99.58988952636719" stroke-width="0.6000000238418579" fill="rgb(218, 166, 20)" opacity="1.0"/>
    <path d="M 225.32354736328125 111.53659057617188 C 226.06036376953125 120.84402465820312 234.20278930664062 127.79190063476562 243.51019287109375 127.05511474609375 C 244.30718994140625 126.99203491210938 245.09872436523438 126.87248229980469 245.87881469726562 126.6973876953125 C 248.84283447265625 126.03147888183594 251.72549438476562 124.45191955566406 253.32781982421875 121.8726806640625 C 254.68212890625 119.69317626953125 255.0050048828125 117.03652954101562 255.03732299804688 114.47244262695312 C 255.1143798828125 107.60888671875 253.35223388671875 100.84989929199219 249.93402099609375 94.8975830078125 C 249.02783203125 93.32571411132812 247.96978759765625 91.77748107910156 246.457763671875 90.76766967773438 C 243.92031860351562 89.07087707519531 240.51333618164062 89.2081298828125 237.64981079101562 90.2716064453125 C 233.39739990234375 91.8475341796875 229.96554565429688 95.27972412109375 227.93978881835938 99.33830261230469 C 225.91403198242188 103.39688110351562 225.21484375 108.03482055664062 225.46942138671875 112.56332397460938 L 225.32354736328125 111.53659057617188" stroke-width="0.6000000238418579" fill="rgb(143, 165, 67)" opacity="1.0"/>
    <path d="M 248.40933227539062 86.75968933105469 C 248.60223388671875 98.1832275390625 264.28656005859375 105.470703125 273.5882873535156 98.96401977539062 C 282.8900146484375 92.45729064941406 281.9271240234375 76.03556823730469 272.2900085449219 69.89228820800781 C 262.6529235839844 63.74900817871094 248.12442016601562 68.86151123046875 243.67401123046875 79.39952087402344 L 248.40933227539062 86.75968933105469" stroke-width="0.6000000238418579" fill="rgb(233, 92, 21)" opacity="1.0"/>
    <path d="M 338.6439208984375 69.87307739257812 C 336.3067626953125 65.10392761230469 333.02032470703125 59.64947509765625 327.69610595703125 59.42124938964844 C 325.57373046875 59.412872314453125 323.5010681152344 60.06329345703125 321.7640380859375 61.28282165527344 C 317.385009765625 64.1845703125 314.68408203125 69.02882385253906 314.5177307128906 74.27938842773438 C 314.3880615234375 78.73370361328125 316.1513977050781 82.96279907226562 317.9501953125 87.00996398925781 C 318.96435546875 89.28176879882812 320.11419677734375 91.66319274902344 322.203369140625 92.98883056640625 C 325.0025634765625 94.73295593261719 328.64837646484375 94.08544921875 331.7708740234375 93.02685546875 C 336.3426208496094 91.48332214355469 340.6343688964844 89.20999145507812 344.4797058105469 86.29501342773438 C 345.8063659667969 85.28530883789062 347.1270751953125 84.1396484375 347.7627258300781 82.59901428222656 C 348.2804870605469 81.13627624511719 348.3614196777344 79.55447387695312 347.9957275390625 78.0465087890625 C 347.0643310546875 73.42912292480469 344.1542663574219 69.4527587890625 340.0347900390625 67.16851806640625 L 338.6439208984375 69.87307739257812" stroke-width="0.6000000238418579" fill="rgb(70, 150, 179)" opacity="1.0"/>
    <path d="M 332.11260986328125 136.7162322998047 C 332.62640380859375 130.81768798828125 332.9482116699219 124.25802612304688 329.2228698730469 119.660888671875 C 325.2180480957031 114.72494506835938 317.7444152832031 113.94137573242188 311.6923522949219 115.88397216796875 C 309.3586120605469 116.6319580078125 307.0558776855469 117.78347778320312 305.5504455566406 119.7169189453125 C 304.3122863769531 121.30584716796875 303.7099304199219 123.28823852539062 303.24078369140625 125.24673461914062 C 301.7539367675781 131.4210968017578 301.42413330078125 138.34170532226562 304.7862854003906 143.72801208496094 C 308.1785583496094 149.1542510986328 315.2671203613281 151.99595642089844 321.4644470214844 150.37826538085938 C 327.6617736816406 148.76055908203125 332.5073547363281 142.87013244628906 332.8479309082031 136.469970703125 L 332.11260986328125 136.7162322998047" stroke-width="0.6000000238418579" fill="rgb(140, 28, 33)" opacity="1.0"/>
    <path d="M 347.77703857421875 95.32373046875 C 341.95501708984375 93.6533203125 335.87847900390625 91.97935485839844 329.88726806640625 92.89840698242188 C 323.89617919921875 93.8175048828125 317.95758056640625 98.13758850097656 317.18505859375 104.1483154296875 C 316.24798583984375 111.570068359375 323.9220886230469 118.02308654785156 331.4162292480469 117.98233032226562 C 338.9103698730469 117.94155883789062 345.61492919921875 113.15443420410156 350.5130310058594 107.49470520019531 C 352.2048034667969 105.89460754394531 353.2352294921875 103.71855163574219 353.4010009765625 101.3958740234375 C 353.32122802734375 99.10638427734375 350.8624572753906 96.85238647460938 348.7816162109375 97.83743286132812 L 347.77703857421875 95.32373046875" stroke-width="0.6000000238418579" fill="rgb(159, 159, 159)" opacity="1.0"/>
    <path d="M 343.3319396972656 117.32444763183594 C 338.3078918457031 119.41180419921875 333.8895568847656 123.26596069335938 331.83941650390625 128.30224609375 C 329.789306640625 133.33856201171875 330.4004821777344 139.55355834960938 333.98138427734375 143.67604064941406 C 336.516845703125 146.58746337890625 340.2973937988281 148.2449951171875 344.1349792480469 148.69642639160156 C 347.9725646972656 149.14785766601562 351.87091064453125 148.48187255859375 355.5595703125 147.3286895751953 C 357.16448974609375 146.82589721679688 358.8115539550781 146.18234252929688 359.8951110839844 144.90176391601562 C 361.1380920410156 143.43417358398438 361.4134216308594 141.40249633789062 361.5479431152344 139.47811889648438 C 361.9277038574219 134.04522705078125 361.4892883300781 128.34718322753906 358.7748718261719 123.62489318847656 C 356.0604248046875 118.902587890625 350.6143798828125 115.44699096679688 345.26031494140625 116.37165832519531 L 343.3319396972656 117.32444763183594" stroke-width="0.6000000238418579" fill="rgb(159, 159, 159)" opacity="1.0"/>
    <path d="M 364.3613586425781 89.13618469238281 C 359.3141784667969 89.15789794921875 353.7049560546875 89.40069580078125 350.12286376953125 92.9423828125 C 346.6343994140625 96.38177490234375 346.2152404785156 101.78547668457031 346.09820556640625 106.68513488769531 C 346.0535888671875 108.67562866210938 346.0386657714844 110.75869750976562 346.94036865234375 112.53254699707031 C 348.4636535644531 115.53358459472656 352.097900390625 116.7603759765625 355.4320373535156 117.18106079101562 C 358.52655029296875 117.57272338867188 361.6612548828125 117.51800537109375 364.740234375 117.01858520507812 C 369.73992919921875 116.20950317382812 375.0691833496094 113.67901611328125 376.6365661621094 108.86483764648438 C 377.4865417480469 106.26705932617188 377.0732727050781 103.37503051757812 376.0315246582031 100.843505859375 C 374.98974609375 98.31198120117188 373.3507995605469 96.07560729980469 371.7012939453125 93.89089965820312 C 370.05181884765625 91.7061767578125 368.38421630859375 89.59481811523438 366.0404357910156 88.31118774414062 L 364.3613586425781 89.13618469238281" stroke-width="0.6000000238418579" fill="rgb(218, 166, 20)" opacity="1.0"/>
    <path d="M 428.319091796875 138.81687927246094 C 420.08544921875 138.98342895507812 413.5457763671875 145.7931365966797 413.71240234375 154.02674865722656 C 413.72662353515625 154.73179626464844 413.7908935546875 155.4349365234375 413.9046630859375 156.13092041015625 C 414.33746337890625 158.77532958984375 415.5789794921875 161.39541625976562 417.76702880859375 162.93994140625 C 419.615966796875 164.24533081054688 421.9384765625 164.66729736328125 424.194580078125 164.82858276367188 C 430.234130859375 165.25201416015625 436.27691650390625 164.05059814453125 441.6951904296875 161.34912109375 C 443.126220703125 160.63262939453125 444.5443115234375 159.78118896484375 445.5118408203125 158.50213623046875 C 447.1373291015625 156.35577392578125 447.1929931640625 153.34869384765625 446.4049072265625 150.77218627929688 C 445.237548828125 146.9461669921875 442.39324951171875 143.7465057373047 438.92449951171875 141.7525177001953 C 435.45574951171875 139.75851440429688 431.40814208984375 138.90257263183594 427.407470703125 138.89212036132812 L 428.319091796875 138.81687927246094" stroke-width="0.6000000238418579" fill="rgb(143, 165, 67)" opacity="1.0"/>
    <path d="M 150.06373596191406 406.65802001953125 C 157.11630249023438 414.8441162109375 172.925537109375 410.6502380371094 175.7490234375 400.2926025390625 C 178.57244873046875 389.9349670410156 167.93588256835938 378.58203125 157.21417236328125 379.9483642578125 C 146.4925079345703 381.3147277832031 139.02650451660156 393.82171630859375 142.1684112548828 404.1738586425781 L 150.06373596191406 406.65802001953125" stroke-width="0.6000000238418579" fill="rgb(233, 92, 21)" opacity="1.0"/>
    <path d="M 428.5440673828125 200.2769775390625 C 424.1552734375 197.42169189453125 418.6165771484375 194.4661865234375 413.9947509765625 196.9642333984375 C 412.19415283203125 198.0299072265625 410.76861572265625 199.6280517578125 409.914794921875 201.53826904296875 C 407.6750793457031 206.207763671875 407.83758544921875 211.67315673828125 410.3507385253906 216.20135498046875 C 412.492431640625 220.03704833984375 416.12255859375 222.72528076171875 419.6907958984375 225.2415771484375 C 421.697509765625 226.65185546875 423.8743896484375 228.0863037109375 426.312744140625 228.15231323242188 C 429.5635986328125 228.21368408203125 432.3221435546875 225.82281494140625 434.429931640625 223.3485107421875 C 437.519287109375 219.73123168945312 440.0028076171875 215.63775634765625 441.78411865234375 211.22686767578125 C 442.3966064453125 209.70166015625 442.9354248046875 208.06439208984375 442.6947021484375 206.4390869140625 C 442.3935546875 204.9393310546875 441.66253662109375 203.5595703125 440.5908203125 202.46807861328125 C 437.468505859375 199.03070068359375 432.99560546875 197.135986328125 428.354248046875 197.2847900390625 L 428.5440673828125 200.2769775390625" stroke-width="0.6000000238418579" fill="rgb(70, 150, 179)" opacity="1.0"/>
    <path d="M 413.6820068359375 161.37139892578125 C 413.31591796875 155.67845153808594 412.6710205078125 149.38363647460938 408.45574951171875 145.54513549804688 C 403.9252014160156 141.42446899414062 396.69281005859375 141.76211547851562 391.2099304199219 144.49024963378906 C 389.09552001953125 145.5412139892578 387.0691223144531 146.9720458984375 385.9156188964844 149.0320281982422 C 384.96673583984375 150.72508239746094 384.6805114746094 152.70069885253906 384.5177307128906 154.63424682617188 C 383.99700927734375 160.73104858398438 384.6866760253906 167.370849609375 388.67041015625 172.01373291015625 C 392.6886291503906 176.69024658203125 399.85272216796875 178.36886596679688 405.5211181640625 175.92910766601562 C 411.18951416015625 173.48934936523438 414.95062255859375 167.17584228515625 414.3466796875 161.03021240234375 L 413.6820068359375 161.37139892578125" stroke-width="0.6000000238418579" fill="rgb(140, 28, 33)" opacity="1.0"/>
    <path d="M 151.01669311523438 131.759033203125 C 144.8503875732422 133.07249450683594 138.44847106933594 134.5072021484375 133.3935089111328 138.28256225585938 C 128.33863830566406 142.0579071044922 124.995849609375 148.9323272705078 127.22659301757812 154.832763671875 C 129.99644470214844 162.110107421875 140.20408630371094 164.28472900390625 147.069580078125 160.58108520507812 C 153.93507385253906 156.87744140625 157.75314331054688 149.19918823242188 159.484619140625 141.60296630859375 C 160.25619506835938 139.30519104003906 160.13839721679688 136.80177307128906 159.1544189453125 134.586669921875 C 157.9610595703125 132.5221710205078 154.59934997558594 131.6540985107422 153.16940307617188 133.57711791992188 L 151.01669311523438 131.759033203125" stroke-width="0.6000000238418579" fill="rgb(159, 159, 159)" opacity="1.0"/>
    <path d="M 438.0135498046875 166.051513671875 C 432.708251953125 163.98959350585938 426.58087158203125 163.70046997070312 421.3857421875 166.01895141601562 C 416.190673828125 168.33746337890625 412.151611328125 173.47314453125 411.87042236328125 179.17926025390625 C 411.6767272949219 183.2137451171875 413.33123779296875 187.20306396484375 415.9022216796875 190.32290649414062 C 418.47320556640625 193.4427490234375 421.899169921875 195.7628173828125 425.51971435546875 197.5631103515625 C 427.095703125 198.34564208984375 428.8055419921875 199.0523681640625 430.551025390625 198.87002563476562 C 432.5523681640625 198.66189575195312 434.2315673828125 197.32708740234375 435.72662353515625 195.97137451171875 C 439.94757080078125 192.143798828125 443.74267578125 187.5235595703125 445.112548828125 181.99200439453125 C 446.482421875 176.46044921875 444.872314453125 169.90728759765625 440.15966796875 166.72842407226562 L 438.0135498046875 166.051513671875" stroke-width="0.6000000238418579" fill="rgb(159, 159, 159)" opacity="1.0"/>
    <path d="M 412.5032958984375 194.64923095703125 C 411.8751525878906 189.36090087890625 410.94781494140625 183.5098876953125 406.805419921875 180.17962646484375 C 402.781494140625 176.93524169921875 397.0665283203125 177.14401245117188 391.91619873046875 177.6090087890625 C 389.8242492675781 177.801025390625 387.6387939453125 178.03521728515625 385.8874206542969 179.1932373046875 C 382.9241638183594 181.15008544921875 382.07403564453125 185.10696411132812 382.032958984375 188.652587890625 C 381.9935607910156 191.94354248046875 382.42694091796875 195.22308349609375 383.31976318359375 198.390869140625 C 384.76763916015625 203.53494262695312 388.0595703125 208.81805419921875 393.29425048828125 209.8836669921875 C 396.11944580078125 210.463134765625 399.1015930175781 209.6829833984375 401.63043212890625 208.28729248046875 C 404.15924072265625 206.89154052734375 406.3070373535156 204.90518188476562 408.3993835449219 202.91397094726562 C 410.49176025390625 200.92279052734375 412.505126953125 198.92138671875 413.569580078125 196.31045532226562 L 412.5032958984375 194.64923095703125" stroke-width="0.6000000238418579" fill="rgb(218, 166, 20)" opacity="1.0"/>
    <path d="M 442.5965576171875 193.8739013671875 C 440.06243896484375 202.53866577148438 445.0323486328125 211.6171875 453.69708251953125 214.15130615234375 C 454.4390869140625 214.36831665039062 455.19549560546875 214.53240966796875 455.960693359375 214.642333984375 C 458.8682861328125 215.05960083007812 462.0166015625 214.6231689453125 464.3514404296875 212.8431396484375 C 466.32470703125 211.33905029296875 467.5299072265625 209.04913330078125 468.44061279296875 206.74298095703125 C 470.8699951171875 200.566650390625 471.601318359375 193.85244750976562 470.55859375 187.29788208007812 C 470.280029296875 185.5657958984375 469.856201171875 183.80282592773438 468.83685302734375 182.370361328125 C 467.1270751953125 179.96453857421875 464.0008544921875 178.91720581054688 461.04736328125 178.893798828125 C 456.6624755859375 178.85601806640625 452.3809814453125 180.77789306640625 449.15478515625 183.74932861328125 C 445.9287109375 186.72073364257812 443.7022705078125 190.67181396484375 442.3753662109375 194.8519287109375 L 442.5965576171875 193.8739013671875" stroke-width="0.6000000238418579" fill="rgb(143, 165, 67)" opacity="1.0"/>
    <path d="M 142.60829162597656 95.38516235351562 C 131.70260620117188 104.06915283203125 136.32069396972656 124.6602783203125 149.5332489013672 128.81719970703125 C 162.745849609375 132.97406005859375 177.91317749023438 119.82743835449219 176.68658447265625 105.93646240234375 C 175.45999145507812 92.04550170898438 159.7080078125 81.7960205078125 146.20489501953125 85.33015441894531 L 142.60829162597656 95.38516235351562" stroke-width="0.6000000238418579" fill="rgb(233, 92, 21)" opacity="1.0"/>
    <path d="M 452.30487060546875 153.76358032226562 C 446.9188232421875 156.14483642578125 440.73211669921875 159.54791259765625 440.246826171875 165.43695068359375 C 440.1448974609375 167.78802490234375 440.7750244140625 170.11285400390625 442.0504150390625 172.09063720703125 C 445.07421875 177.06906127929688 450.323486328125 180.27304077148438 456.133544921875 180.68655395507812 C 461.06304931640625 181.02471923828125 465.82568359375 179.25564575195312 470.3883056640625 177.4393310546875 C 472.9495849609375 176.41488647460938 475.6383056640625 175.244873046875 477.1982421875 172.988037109375 C 479.2528076171875 169.96282958984375 478.694580078125 165.89520263671875 477.6580810546875 162.389404296875 C 476.1474609375 157.25674438476562 473.81610107421875 152.40245056152344 470.75433349609375 148.0147705078125 C 469.69354248046875 146.50079345703125 468.48187255859375 144.9875030517578 466.80267333984375 144.2159881591797 C 465.20465087890625 143.57847595214844 463.45562744140625 143.4197235107422 461.7689208984375 143.75909423828125 C 456.6124267578125 144.58944702148438 452.0797119140625 147.64002990722656 449.36907958984375 152.10447692871094 L 452.30487060546875 153.76358032226562" stroke-width="0.6000000238418579" fill="rgb(70, 150, 179)" opacity="1.0"/>
    <path d="M 379.2344665527344 79.69851684570312 C 381.6782531738281 73.72357177734375 384.1361389160156 66.99821472167969 381.7452087402344 61.00636291503906 C 379.1730041503906 54.571319580078125 371.6454772949219 51.33692932128906 364.7157897949219 51.40089416503906 C 362.0439758300781 51.42442321777344 359.27386474609375 51.87811279296875 357.0807800292969 53.403900146484375 C 355.2774963378906 54.657501220703125 354.0088195800781 56.52653503417969 352.8865966796875 58.413787841796875 C 349.3404235839844 64.36097717285156 346.7574462890625 71.45956420898438 348.5148010253906 78.155517578125 C 350.2906188964844 84.90280151367188 356.7511901855469 90.15538024902344 363.72698974609375 90.4766845703125 C 370.7027893066406 90.79800415039062 377.6539611816406 86.23335266113281 380.0797424316406 79.68009948730469 L 379.2344665527344 79.69851684570312" stroke-width="0.6000000238418579" fill="rgb(140, 28, 33)" opacity="1.0"/>
    <path d="M 130.72706604003906 407.3197021484375 C 126.7330322265625 413.89752197265625 122.6495361328125 420.7861328125 121.77297973632812 428.4371337890625 C 120.89645385742188 436.0880126953125 124.20628356933594 444.8115234375 131.3156280517578 447.76806640625 C 140.09950256347656 451.3980712890625 150.57501220703125 444.14910888671875 153.0306396484375 434.9495849609375 C 155.48626708984375 425.75006103515625 151.86007690429688 415.931396484375 146.56033325195312 408.03533935546875 C 145.16464233398438 405.4266662597656 142.84185791015625 403.4360656738281 140.05027770996094 402.456298828125 C 137.21728515625 401.78863525390625 133.63238525390625 404.048828125 134.1440887451172 406.92877197265625 L 130.72706604003906 407.3197021484375" stroke-width="0.6000000238418579" fill="rgb(159, 159, 159)" opacity="1.0"/>
    <path d="M 415.73583984375 222.55587768554688 C 412.04833984375 216.95098876953125 406.360107421875 212.4874267578125 399.7860412597656 211.16546630859375 C 393.21197509765625 209.84353637695312 385.82379150390625 212.01748657226562 381.6556396484375 217.30642700195312 C 378.71343994140625 221.04949951171875 377.5774230957031 226.01177978515625 377.91571044921875 230.764892578125 C 378.2540283203125 235.51806640625 379.9599914550781 240.0870361328125 382.20782470703125 244.2896728515625 C 383.1871337890625 246.11798095703125 384.3466796875 247.96487426757812 386.14794921875 248.982177734375 C 388.2125549316406 250.1494140625 390.7373352050781 250.01437377929688 393.0996398925781 249.73345947265625 C 399.76885986328125 248.94036865234375 406.5705871582031 247.094970703125 411.665283203125 242.71734619140625 C 416.760009765625 238.3397216796875 419.6900634765625 230.94509887695312 417.3349609375 224.6722412109375 L 415.73583984375 222.55587768554688" stroke-width="0.6000000238418579" fill="rgb(159, 159, 159)" opacity="1.0"/>
    <path d="M 383.6828918457031 111.15811157226562 C 377.3697204589844 111.29818725585938 370.3583984375 111.72735595703125 365.9566650390625 116.23785400390625 C 361.6697998046875 120.61831665039062 361.26629638671875 127.3873291015625 361.2294921875 133.51907348632812 C 361.21820068359375 136.01002502441406 361.2461242675781 138.61611938476562 362.41375732421875 140.81492614746094 C 364.38641357421875 144.53494262695312 368.9599914550781 145.98828125 373.14019775390625 146.43995666503906 C 377.01995849609375 146.86068725585938 380.9400329589844 146.7221221923828 384.78045654296875 146.02854919433594 C 391.0166015625 144.9046173095703 397.62652587890625 141.61996459960938 399.4795227050781 135.56271362304688 C 400.48468017578125 132.29408264160156 399.9030456542969 128.68557739257812 398.54327392578125 125.5421142578125 C 397.1834716796875 122.398681640625 395.083251953125 119.63778686523438 392.9709777832031 116.9417724609375 C 390.8587341308594 114.2457275390625 388.7254638671875 111.64186096191406 385.7648620605469 110.08856201171875 L 383.6828918457031 111.15811157226562" stroke-width="0.6000000238418579" fill="rgb(218, 166, 20)" opacity="1.0"/>
    <path d="M 402.2981872558594 82.92721557617188 C 394.9979553222656 75.81399536132812 383.31353759765625 75.96560668945312 376.2003173828125 83.26583862304688 C 375.5912170410156 83.89096069335938 375.0272521972656 84.55850219726562 374.5126037597656 85.26345825195312 C 372.55755615234375 87.94241333007812 371.3265686035156 91.31315612792969 371.8660888671875 94.58383178710938 C 372.32177734375 97.34782409667969 373.9676513671875 99.76171875 375.7855529785156 101.89057922363281 C 380.65948486328125 107.58230590820312 386.96856689453125 111.86517333984375 394.0573425292969 114.29432678222656 C 395.93218994140625 114.93327331542969 397.91473388671875 115.44357299804688 399.8828125 115.1851806640625 C 403.1871032714844 114.7532958984375 405.88616943359375 112.1898193359375 407.4726867675781 109.25663757324219 C 409.83111572265625 104.903564453125 410.180419921875 99.61642456054688 408.9244689941406 94.82632446289062 C 407.66851806640625 90.03623962402344 404.90643310546875 85.72463989257812 401.4398498535156 82.18899536132812 L 402.2981872558594 82.92721557617188" stroke-width="0.6000000238418579" fill="rgb(143, 165, 67)" opacity="1.0"/>
    <path d="M 116.11180114746094 428.1954345703125 C 111.86054992675781 416.9180908203125 93.69314575195312 415.2540283203125 86.76699829101562 425.0220947265625 C 79.84088134765625 434.7901611328125 86.63308715820312 450.7579345703125 98.3878173828125 453.4346923828125 C 110.14251708984375 456.11138916015625 122.75534057617188 445.87060546875 123.4305419921875 433.82269287109375 L 116.11180114746094 428.1954345703125" stroke-width="0.6000000238418579" fill="rgb(233, 92, 21)" opacity="1.0"/>
    <path d="M 452.7562255859375 217.27069091796875 C 446.40423583984375 216.96334838867188 438.78472900390625 217.25497436523438 435.466552734375 222.70550537109375 C 434.23046875 224.92596435546875 433.7138671875 227.47528076171875 433.988037109375 230.00180053710938 C 434.49822998046875 236.27127075195312 438.01556396484375 241.904541015625 443.4246826171875 245.115234375 C 448.02001953125 247.8270263671875 453.47393798828125 248.42376708984375 458.75762939453125 248.8780517578125 C 461.72607421875 249.12847900390625 464.887939453125 249.29998779296875 467.48602294921875 247.87603759765625 C 470.9334716796875 245.94967651367188 472.36279296875 241.75259399414062 473.05859375 237.866455078125 C 474.0838623046875 232.18035888671875 474.18212890625 226.36581420898438 473.34942626953125 220.6483154296875 C 473.05792236328125 218.67340087890625 472.6204833984375 216.62612915039062 471.3726806640625 215.0687255859375 C 470.13836669921875 213.67999267578125 468.526611328125 212.68038940429688 466.73406982421875 212.19183349609375 C 461.3541259765625 210.49826049804688 455.5020751953125 211.25 450.72479248046875 214.24835205078125 L 452.7562255859375 217.27069091796875" stroke-width="0.6000000238418579" fill="rgb(70, 150, 179)" opacity="1.0"/>
    <path d="M 430.818115234375 133.52528381347656 C 432.494873046875 127.17825317382812 434.0869140625 120.07267761230469 430.8863525390625 114.34579467773438 C 427.4444580078125 108.1959228515625 419.42767333984375 105.92655944824219 412.44842529296875 106.90435791015625 C 409.75738525390625 107.28021240234375 407.02386474609375 108.10279846191406 405.0135498046875 109.93038940429688 C 403.3603515625 111.43215942382812 402.3274230957031 113.48402404785156 401.44451904296875 115.53497314453125 C 398.6524963378906 121.99929809570312 396.98345947265625 129.4977264404297 399.6380310058594 136.01809692382812 C 402.3179931640625 142.58778381347656 409.5248718261719 147.03285217285156 416.60137939453125 146.43746948242188 C 423.67791748046875 145.84207153320312 430.08563232421875 140.32308959960938 431.66802978515625 133.39529418945312 L 430.818115234375 133.52528381347656" stroke-width="0.6000000238418579" fill="rgb(140, 28, 33)" opacity="1.0"/>
    <path d="M 383.4543762207031 56.42645263671875 C 384.5320129394531 63.4339599609375 385.7305908203125 70.71379089355469 389.6437683105469 76.632080078125 C 393.5569152832031 82.55026245117188 401.05963134765625 86.74580383300781 407.8277282714844 84.62123107910156 C 416.17633056640625 81.98002624511719 419.2750244140625 70.65986633300781 415.55889892578125 62.7135009765625 C 411.8428039550781 54.76713562011719 403.46820068359375 49.986236572265625 395.0513610839844 47.553253173828125 C 392.5213317871094 46.5390625 389.7031555175781 46.51014709472656 387.15289306640625 47.47224426269531 C 384.75823974609375 48.679107666015625 383.5672302246094 52.397430419921875 385.6341247558594 54.12664794921875 L 383.4543762207031 56.42645263671875" stroke-width="0.6000000238418579" fill="rgb(159, 159, 159)" opacity="1.0"/>
    <path d="M 435.213623046875 245.622802734375 C 429.18402099609375 248.98333740234375 424.17449951171875 254.48291015625 422.3216552734375 261.128662109375 C 420.4688720703125 267.7744445800781 422.1416015625 275.5195007324219 427.25384521484375 280.19580078125 C 430.8724365234375 283.49737548828125 435.8782958984375 285.0377197265625 440.781005859375 285.04949951171875 C 445.6837158203125 285.061279296875 450.500732421875 283.6557922363281 454.9827880859375 281.6666564941406 C 456.93267822265625 280.79986572265625 458.91534423828125 279.74951171875 460.09521484375 277.9780578613281 C 461.44879150390625 275.94775390625 461.5008544921875 273.3468933105469 461.3909912109375 270.9017333984375 C 461.080810546875 263.9986267089844 459.7008056640625 256.8800964355469 455.59375 251.32196044921875 C 451.486572265625 245.7637939453125 444.1202392578125 242.19888305664062 437.505859375 244.141845703125 L 435.213623046875 245.622802734375" stroke-width="0.6000000238418579" fill="rgb(159, 159, 159)" opacity="1.0"/>
    <path d="M 416.0374755859375 261.8698425292969 C 411.7900695800781 256.44549560546875 406.8338317871094 250.60003662109375 400.0168151855469 249.701416015625 C 393.38848876953125 248.81817626953125 387.210693359375 252.8885498046875 381.82928466796875 256.8629150390625 C 379.6455078125 258.4806823730469 377.38677978515625 260.2079162597656 376.2286071777344 262.664794921875 C 374.267333984375 266.81903076171875 375.9859619140625 271.7646484375 378.3227233886719 275.7120361328125 C 380.4902038574219 279.3767395019531 383.17266845703125 282.71124267578125 386.28802490234375 285.6134338378906 C 391.3447570800781 290.32763671875 398.5335693359375 293.9565734863281 405.03662109375 291.6177062988281 C 408.54925537109375 290.36016845703125 411.3219909667969 287.494140625 413.179931640625 284.25213623046875 C 415.0379638671875 281.0101013183594 416.07781982421875 277.3711242675781 417.05322265625 273.7640075683594 C 418.028564453125 270.15692138671875 418.90966796875 266.5916442871094 418.3323974609375 262.9900207519531 L 416.0374755859375 261.8698425292969" stroke-width="0.6000000238418579" fill="rgb(218, 166, 20)" opacity="1.0"/>
    <path d="M 410.7265319824219 86.12472534179688 C 407.2320556640625 95.88662719726562 412.3128662109375 106.63304138183594 422.07470703125 110.12750244140625 C 422.91064453125 110.42674255371094 423.7667236328125 110.66629028320312 424.63653564453125 110.84437561035156 C 427.9417724609375 111.52044677734375 431.5809326171875 111.234130859375 434.37884521484375 109.35202026367188 C 436.743408203125 107.76174926757812 438.2808837890625 105.21832275390625 439.48187255859375 102.63623046875 C 442.68707275390625 95.72018432617188 443.98199462890625 88.07208251953125 443.23211669921875 80.48637390136719 C 443.030517578125 78.48158264160156 442.6644287109375 76.4315185546875 441.5931396484375 74.71990966796875 C 439.79644775390625 71.84536743164062 436.283447265625 70.43206787109375 432.8988037109375 70.20443725585938 C 427.8741455078125 69.86299133300781 422.834716796875 71.77536010742188 418.9339599609375 74.9627685546875 C 415.03314208984375 78.15017700195312 412.2119140625 82.52873229980469 410.4064636230469 87.23101806640625 L 410.7265319824219 86.12472534179688" stroke-width="0.6000000238418579" fill="rgb(143, 165, 67)" opacity="1.0"/>
    <path d="M 433.7393798828125 122.49801635742188 C 429.310791015625 135.08660888671875 443.5272216796875 149.437744140625 456.3565673828125 146.09011840820312 C 469.18597412109375 142.74244689941406 474.8013916015625 124.36746215820312 466.74273681640625 113.72552490234375 C 458.68408203125 103.08360290527344 440.69696044921875 102.78147888183594 431.54302978515625 112.51435852050781 L 433.7393798828125 122.49801635742188" stroke-width="0.6000000238418579" fill="rgb(233, 92, 21)" opacity="1.0"/>
    <path d="M 448.5035400390625 91.40029907226562 C 448.60565185546875 97.48431396484375 449.358642578125 104.7412109375 454.76947021484375 107.5699462890625 C 456.966552734375 108.61184692382812 459.43280029296875 108.94635009765625 461.8280029296875 108.52717590332031 C 467.7823486328125 107.64956665039062 472.94189453125 103.94039916992188 475.6705322265625 98.57586669921875 C 477.9735107421875 94.01933288574219 478.20361328125 88.7747802734375 478.308349609375 83.70162963867188 C 478.362548828125 80.85174560546875 478.329345703125 77.8221435546875 476.8079833984375 75.43020629882812 C 474.75396728515625 72.25859069824219 470.6575927734375 71.15521240234375 466.90380859375 70.73297119140625 C 461.410888671875 70.10812377929688 455.85302734375 70.37649536132812 450.44586181640625 71.52761840820312 C 448.578369140625 71.928955078125 446.65087890625 72.47418212890625 445.2415771484375 73.7625732421875 C 443.9925537109375 75.02754211425781 443.13848876953125 76.628662109375 442.78363037109375 78.37065124511719 C 441.501708984375 83.61288452148438 442.583984375 89.15359497070312 445.74432373046875 93.52813720703125 L 448.5035400390625 91.40029907226562" stroke-width="0.6000000238418579" fill="rgb(70, 150, 179)" opacity="1.0"/>
    <path d="M 312.8747863769531 365.8283386230469 C 307.2220153808594 363.4682922363281 300.8572692871094 361.0896911621094 295.1551513671875 363.317138671875 C 289.0312194824219 365.7135925292969 285.9102783203125 372.83416748046875 285.9232482910156 379.41015625 C 285.9271545410156 381.9455871582031 286.3385925292969 384.5773010253906 287.77130126953125 386.6687927246094 C 288.94842529296875 388.3885803222656 290.71319580078125 389.60528564453125 292.49627685546875 390.68316650390625 C 298.1151123046875 394.0890808105469 304.8331604003906 396.58892822265625 311.19903564453125 394.9674987792969 C 317.6137390136719 393.32891845703125 322.6424255371094 387.23468017578125 322.995361328125 380.6175842285156 C 323.3482971191406 374.00048828125 319.0647888183594 367.3730773925781 312.8631286621094 365.026123046875 L 312.8747863769531 365.8283386230469" stroke-width="0.6000000238418579" fill="rgb(140, 28, 33)" opacity="1.0"/>
    <path d="M 296.6902160644531 393.6502685546875 C 288.9720764160156 390.783935546875 280.9093017578125 387.88641357421875 272.6939697265625 388.51226806640625 C 264.4787292480469 389.1381530761719 255.98284912109375 394.3790588378906 254.31393432617188 402.4458923339844 C 252.27606201171875 412.4080810546875 262.0096435546875 421.9482421875 272.1711730957031 422.6683349609375 C 282.3326721191406 423.38836669921875 291.9150695800781 417.59368896484375 299.1393127441406 410.429443359375 C 301.5978088378906 408.43572998046875 303.2195739746094 405.5929870605469 303.6845397949219 402.4620666503906 C 303.8132629394531 399.3507385253906 300.7139587402344 396.0413513183594 297.7917175292969 397.16119384765625 L 296.6902160644531 393.6502685546875" stroke-width="0.6000000238418579" fill="rgb(159, 159, 159)" opacity="1.0"/>
    <path d="M 323.3470153808594 415.325927734375 C 318.3820495605469 419.72705078125 314.8168029785156 425.925048828125 314.45166015625 432.54632568359375 C 314.0865173339844 439.1676025390625 317.258056640625 446.091796875 323.0235595703125 449.42431640625 C 327.10284423828125 451.7752685546875 332.1202392578125 452.1861572265625 336.72467041015625 451.18353271484375 C 341.3291320800781 450.180908203125 345.5601501464844 447.86572265625 349.3559875488281 445.0718994140625 C 351.00714111328125 443.8551025390625 352.6510009765625 442.459228515625 353.3922424316406 440.552490234375 C 354.2430725097656 438.3668212890625 353.7541809082031 435.91473388671875 353.1455078125 433.6422119140625 C 351.4270935058594 427.2266845703125 348.6599426269531 420.83001708984375 343.6555480957031 416.4619140625 C 338.651123046875 412.09381103515625 330.9995422363281 410.2705383300781 325.1925354003906 413.4619140625 L 323.3470153808594 415.325927734375" stroke-width="0.6000000238418579" fill="rgb(159, 159, 159)" opacity="1.0"/>
    <path d="M 257.6566467285156 413.2130126953125 C 250.71298217773438 413.282470703125 242.997802734375 413.66046142578125 238.09732055664062 418.5611572265625 C 233.32489013671875 423.3203125 232.79058837890625 430.7579345703125 232.66796875 437.499755859375 C 232.6221923828125 440.23858642578125 232.61795043945312 443.10455322265625 233.87237548828125 445.5379638671875 C 235.99163818359375 449.65478515625 241.00115966796875 451.3140869140625 245.591552734375 451.86676025390625 C 249.85198974609375 452.38134765625 254.16427612304688 452.281494140625 258.3963623046875 451.5703125 C 265.2685241699219 450.41802978515625 272.5805969238281 446.89483642578125 274.69927978515625 440.25927734375 C 275.84832763671875 436.67864990234375 275.257080078125 432.7030029296875 273.80401611328125 429.2283935546875 C 272.3509521484375 425.753662109375 270.07855224609375 422.6898193359375 267.7920837402344 419.697021484375 C 265.5056457519531 416.7042236328125 263.19482421875 413.8125 259.9602355957031 412.06488037109375 L 257.6566467285156 413.2130126953125" stroke-width="0.6000000238418579" fill="rgb(218, 166, 20)" opacity="1.0"/>
    <path d="M 221.13558959960938 412.65740966796875 C 211.12460327148438 406.072265625 197.6707763671875 408.8494873046875 191.08563232421875 418.8604736328125 C 190.521728515625 419.71771240234375 190.0194091796875 420.6138916015625 189.58230590820312 421.542236328125 C 187.92221069335938 425.07000732421875 187.25192260742188 429.235107421875 188.60311889648438 432.890380859375 C 189.74465942382812 435.9793701171875 192.18212890625 438.3992919921875 194.75469970703125 440.4517822265625 C 201.64837646484375 445.9364013671875 209.8848876953125 449.4752197265625 218.608642578125 450.70050048828125 C 220.91510009765625 451.0205078125 223.3172607421875 451.1680908203125 225.53152465820312 450.43145751953125 C 229.24957275390625 449.197021484375 231.79425048828125 445.6368408203125 232.97235107421875 441.897705078125 C 234.72531127929688 436.34765625 233.9510498046875 430.166748046875 231.4344482421875 424.9171142578125 C 228.91790771484375 419.66754150390625 224.76934814453125 415.3056640625 219.98037719726562 411.9964294433594 L 221.13558959960938 412.65740966796875" stroke-width="0.6000000238418579" fill="rgb(143, 165, 67)" opacity="1.0"/>
    <path d="M 260.6231384277344 361.1566162109375 C 267.08587646484375 373.04681396484375 287.54962158203125 372.1044006347656 293.75177001953125 360.1742858886719 C 299.9538269042969 348.2441711425781 289.94354248046875 331.5272521972656 276.4570007324219 330.3573303222656 C 262.9704895019531 329.1874084472656 250.51568603515625 342.51776123046875 251.61712646484375 356.0226135253906 L 260.6231384277344 361.1566162109375" stroke-width="0.6000000238418579" fill="rgb(233, 92, 21)" opacity="1.0"/>
    <path d="M 328.6428527832031 347.3547668457031 C 323.83282470703125 352.03192138671875 318.5722351074219 358.11773681640625 320.3866271972656 364.6005859375 C 321.2090759277344 367.1523742675781 322.8031005859375 369.3861083984375 324.9488525390625 370.9935607910156 C 330.1509094238281 375.1136779785156 337.0273132324219 376.456787109375 343.39739990234375 374.59698486328125 C 348.7969665527344 373.0055236816406 353.18359375 369.2292785644531 357.33782958984375 365.48175048828125 C 359.6679992675781 363.37286376953125 362.0765686035156 361.0580139160156 362.8489074707031 358.02935791015625 C 363.84527587890625 353.9839782714844 361.6376953125 349.860107421875 359.1417541503906 346.5258483886719 C 355.4950256347656 341.6415710449219 351.0817565917969 337.3797607421875 346.07318115234375 333.90570068359375 C 344.34033203125 332.7087097167969 342.44659423828125 331.57220458984375 340.3472595214844 331.4132385253906 C 338.3877258300781 331.3652648925781 336.45654296875 331.8885192871094 334.78924560546875 332.9191589355469 C 329.61004638671875 335.8487243652344 325.9767150878906 340.90283203125 324.84967041015625 346.7454528808594 L 328.6428527832031 347.3547668457031" stroke-width="0.6000000238418579" fill="rgb(70, 150, 179)" opacity="1.0"/>
    <path d="M 296.64361572265625 417.58056640625 C 289.5339660644531 418.3775634765625 281.68695068359375 419.5594482421875 277.1290283203125 425.06781005859375 C 272.23638916015625 430.98797607421875 273.089111328125 440.0277099609375 276.8323974609375 446.73388671875 C 278.2745361328125 449.320068359375 280.18731689453125 451.7734375 282.8363342285156 453.09600830078125 C 285.0135498046875 454.18408203125 287.50537109375 454.4251708984375 289.9371337890625 454.51422119140625 C 297.6053771972656 454.80419921875 305.88189697265625 453.5457763671875 311.4611511230469 448.279541015625 C 317.08056640625 442.9681396484375 318.7575988769531 433.8941650390625 315.36456298828125 426.9384765625 C 311.9715270996094 419.9827880859375 303.8392639160156 415.646484375 296.17669677734375 416.7681884765625 L 296.64361572265625 417.58056640625" stroke-width="0.6000000238418579" fill="rgb(140, 28, 33)" opacity="1.0"/>
    <path d="M 325.50762939453125 378.8486328125 C 318.2089538574219 382.4584655761719 310.654052734375 386.295166015625 305.5312194824219 392.63189697265625 C 300.4084777832031 398.9685363769531 298.41656494140625 408.6379699707031 303.08966064453125 415.31146240234375 C 308.87646484375 423.5362548828125 322.34515380859375 423.0035400390625 329.7568359375 416.1793212890625 C 337.16851806640625 409.3550720214844 339.4990234375 398.528076171875 339.244140625 388.468994140625 C 339.47723388671875 385.34722900390625 338.5316467285156 382.25164794921875 336.5939025878906 379.79302978515625 C 334.4421691894531 377.5896911621094 329.9580383300781 377.5750427246094 328.781494140625 380.4377136230469 L 325.50762939453125 378.8486328125" stroke-width="0.6000000238418579" fill="rgb(159, 159, 159)" opacity="1.0"/>
    <path d="M 366.69683837890625 411.958740234375 C 360.6145324707031 415.60986328125 355.65069580078125 421.4244384765625 353.9671936035156 428.31195068359375 C 352.28369140625 435.199462890625 354.2579040527344 443.09967041015625 359.6635437011719 447.7340087890625 C 363.4895324707031 451.0057373046875 368.682373046875 452.42242431640625 373.7186279296875 452.2724609375 C 378.7549133300781 452.12255859375 383.65631103515625 450.5196533203125 388.1943359375 448.328369140625 C 390.1685791015625 447.37353515625 392.1703796386719 446.2291259765625 393.32373046875 444.37060546875 C 394.6470031738281 442.2403564453125 394.614501953125 439.567138671875 394.4208679199219 437.0592041015625 C 393.87408447265625 429.97882080078125 392.2213439941406 422.7125244140625 387.8189392089844 417.13916015625 C 383.4165344238281 411.56573486328125 375.7322998046875 408.1474609375 369.0024719238281 410.3617858886719 L 366.69683837890625 411.958740234375" stroke-width="0.6000000238418579" fill="rgb(159, 159, 159)" opacity="1.0"/>
    <path d="M 248.87969970703125 365.6971130371094 C 250.0509033203125 358.5252990722656 251.04205322265625 350.5027160644531 246.86624145507812 344.5728759765625 C 242.8133544921875 338.80035400390625 235.24029541015625 336.918212890625 228.31097412109375 335.5851135253906 C 225.4952392578125 335.0476989746094 222.54095458984375 334.5303649902344 219.80746459960938 335.38824462890625 C 215.18341064453125 336.83648681640625 212.57589721679688 341.7046813964844 211.18447875976562 346.3387756347656 C 209.89132690429688 350.6394958496094 209.22244262695312 355.1036071777344 209.19827270507812 359.594482421875 C 209.1563720703125 366.8863830566406 211.48025512695312 375.0562438964844 217.94277954101562 378.42840576171875 C 221.42901611328125 380.2540283203125 225.63394165039062 380.3559875488281 229.47665405273438 379.4797058105469 C 233.3193359375 378.6033935546875 236.88519287109375 376.80877685546875 240.38018798828125 374.9869384765625 C 243.87518310546875 373.16510009765625 247.27035522460938 371.3000793457031 249.65121459960938 368.27777099609375 L 248.87969970703125 365.6971130371094" stroke-width="0.6000000238418579" fill="rgb(218, 166, 20)" opacity="1.0"/>
    <path d="M 252.36737060546875 390.3617858886719 C 248.3465576171875 378.8545227050781 235.75860595703125 372.7855224609375 224.2513427734375 376.80633544921875 C 223.26593017578125 377.1506042480469 222.3062744140625 377.56439208984375 221.37942504882812 378.0445251464844 C 217.85806274414062 379.8695068359375 214.7427978515625 382.82110595703125 213.5760498046875 386.6097717285156 C 212.58978271484375 389.8114013671875 213.064208984375 393.27301025390625 213.87481689453125 396.521240234375 C 216.05654907226562 405.2130126953125 220.52578735351562 413.16204833984375 226.81820678710938 419.54266357421875 C 228.48431396484375 421.2264404296875 230.3343505859375 422.8299560546875 232.57879638671875 423.60296630859375 C 236.3460693359375 424.90283203125 240.60226440429688 423.5982666015625 243.86474609375 421.3046875 C 248.71072387695312 417.90283203125 251.90426635742188 412.4296875 253.11441040039062 406.63250732421875 C 254.3245849609375 400.8353576660156 253.6673583984375 394.7471618652344 251.84228515625 389.11383056640625 L 252.36737060546875 390.3617858886719" stroke-width="0.6000000238418579" fill="rgb(143, 165, 67)" opacity="1.0"/>
    <path d="M 195.3001708984375 371.0931396484375 C 180.97430419921875 369.04388427734375 168.71514892578125 387.1986999511719 174.98785400390625 400.1368713378906 C 181.26058959960938 413.074951171875 201.99200439453125 415.1634521484375 211.60760498046875 404.3423156738281 C 221.22320556640625 393.52117919921875 217.74221801757812 374.3255615234375 205.45489501953125 366.64654541015625 L 195.3001708984375 371.0931396484375" stroke-width="0.6000000238418579" fill="rgb(233, 92, 21)" opacity="1.0"/>
    <path d="M 252.44073486328125 372.2291564941406 C 249.26904296875 378.0101318359375 246.07989501953125 385.24456787109375 249.65301513671875 390.8131408691406 C 251.16119384765625 392.9738464355469 253.30270385742188 394.61334228515625 255.78216552734375 395.50537109375 C 261.8575439453125 397.8775939941406 268.70587158203125 397.1579284667969 274.1554260253906 393.5746154785156 C 278.7703552246094 390.52313232421875 281.8038635253906 385.710693359375 284.6273193359375 380.99224853515625 C 286.2090759277344 378.339111328125 287.80511474609375 375.46990966796875 287.6579895019531 372.4015197753906 C 287.4283752441406 368.313232421875 284.1656188964844 365.07452392578125 280.8594665527344 362.6608581542969 C 276.0252990722656 359.1224060058594 270.6502990722656 356.3897399902344 264.9429016113281 354.56884765625 C 262.9696960449219 353.9434814453125 260.86279296875 353.4213562011719 258.8443908691406 353.8769836425781 C 256.98931884765625 354.3966369628906 255.32553100585938 355.44482421875 254.055908203125 356.89373779296875 C 250.03366088867188 361.1390380859375 248.07620239257812 366.9350891113281 248.70098876953125 372.7497863769531 L 252.44073486328125 372.2291564941406" stroke-width="0.6000000238418579" fill="rgb(70, 150, 179)" opacity="1.0"/>
    <path d="M 328.5639953613281 352.7922668457031 C 328.5373229980469 345.907958984375 328.21868896484375 338.27838134765625 323.4205017089844 333.3477783203125 C 318.26300048828125 328.0542907714844 309.52642822265625 327.9345703125 302.7232360839844 330.8217468261719 C 300.0997619628906 331.9338073730469 297.5546569824219 333.5098876953125 296.01519775390625 335.9073181152344 C 294.74896240234375 337.877685546875 294.2603759765625 340.23663330078125 293.92352294921875 342.55389404296875 C 292.8525085449219 349.860107421875 293.199951171875 357.90850830078125 297.6607360839844 363.79119873046875 C 302.1606140136719 369.71697998046875 310.6681823730469 372.2604675292969 317.673828125 369.73419189453125 C 324.6794738769531 367.2078857421875 329.66961669921875 359.8764953613281 329.3894958496094 352.42962646484375 L 328.5639953613281 352.7922668457031" stroke-width="0.6000000238418579" fill="rgb(140, 28, 33)" opacity="1.0"/>
    <path d="M 366.9866943359375 393.36920166015625 C 359.1599426269531 392.5780334472656 351.00701904296875 391.8410339355469 343.56170654296875 394.3985595703125 C 336.11651611328125 396.9560852050781 329.5234375 403.848388671875 329.9234313964844 411.7091064453125 C 330.4388122558594 421.4112548828125 341.73663330078125 427.88763427734375 351.3055725097656 426.1058349609375 C 360.8745422363281 424.323974609375 368.3388366699219 416.657958984375 373.2928161621094 408.2936096191406 C 375.0857849121094 405.8580017089844 375.9005432128906 402.83892822265625 375.5763244628906 399.8320007324219 C 374.9458923339844 396.9241943359375 371.2830810546875 394.61083984375 368.8508605957031 396.3501281738281 L 366.9866943359375 393.36920166015625" stroke-width="0.6000000238418579" fill="rgb(159, 159, 159)" opacity="1.0"/>
    <path d="M 174.3878173828125 408.1168212890625 C 167.09332275390625 409.2725830078125 160.035888671875 412.9527587890625 155.72760009765625 418.9466552734375 C 151.41928100585938 424.9405517578125 150.24790954589844 433.33697509765625 153.66163635253906 439.9169921875 C 156.0810546875 444.5660400390625 160.542724609375 447.9566650390625 165.4635009765625 449.773681640625 C 170.38427734375 451.59075927734375 175.74078369140625 451.9525146484375 180.9757080078125 451.6046142578125 C 183.25372314453125 451.4517822265625 185.63214111328125 451.126708984375 187.46966552734375 449.78155517578125 C 189.57705688476562 448.2403564453125 190.58697509765625 445.6468505859375 191.376953125 443.1500244140625 C 193.60711669921875 436.1011962890625 194.84194946289062 428.4420166015625 192.76263427734375 421.34619140625 C 190.68325805664062 414.25030517578125 184.59591674804688 407.956787109375 177.23590087890625 407.47314453125 L 174.3878173828125 408.1168212890625" stroke-width="0.6000000238418579" fill="rgb(159, 159, 159)" opacity="1.0"/>
    <path d="M 371.892578125 363.5360107421875 C 365.9434814453125 360.5286865234375 359.20050048828125 357.443603515625 352.85931396484375 359.4565124511719 C 346.68975830078125 361.4053955078125 342.9496765136719 367.5088806152344 339.8677978515625 373.2010803222656 C 338.61920166015625 375.51531982421875 337.34991455078125 377.9562683105469 337.344482421875 380.5843505859375 C 337.33270263671875 385.0292663574219 340.8697814941406 388.65594482421875 344.538330078125 391.15423583984375 C 347.9424743652344 393.4743957519531 351.6621398925781 395.293701171875 355.58343505859375 396.5565185546875 C 361.9497985839844 398.6092834472656 369.7381896972656 398.8355407714844 374.4744873046875 394.1153869628906 C 377.0351867675781 391.57086181640625 378.2869873046875 387.921142578125 378.5829772949219 384.31781005859375 C 378.87896728515625 380.7144470214844 378.29522705078125 377.099365234375 377.66802978515625 373.5386962890625 C 377.0408630371094 369.9780578613281 376.34832763671875 366.4927673339844 374.36309814453125 363.57470703125 L 371.892578125 363.5360107421875" stroke-width="0.6000000238418579" fill="rgb(218, 166, 20)" opacity="1.0"/>
    <path d="M 375.2023620605469 381.6318359375 C 368.7443542480469 391.3937072753906 371.42266845703125 404.54254150390625 381.1845397949219 411.0005798339844 C 382.02044677734375 411.5535888671875 382.89453125 412.04656982421875 383.80023193359375 412.47589111328125 C 387.2419128417969 414.10650634765625 391.30865478515625 414.77191162109375 394.882568359375 413.46142578125 C 397.90289306640625 412.354248046875 400.27288818359375 409.9795837402344 402.2843933105469 407.4719543457031 C 407.6594543457031 400.7522277832031 411.13720703125 392.7158508300781 412.3564453125 384.1976318359375 C 412.6749267578125 381.94549560546875 412.8251953125 379.59942626953125 412.11138916015625 377.43463134765625 C 410.9151306152344 373.7997131347656 407.4440612792969 371.304931640625 403.7946472167969 370.1445617675781 C 398.3778076171875 368.4180603027344 392.33831787109375 369.1585388183594 387.2040710449219 371.6033020019531 C 382.0697937011719 374.04803466796875 377.79852294921875 378.08917236328125 374.5537414550781 382.758544921875 L 375.2023620605469 381.6318359375" stroke-width="0.6000000238418579" fill="rgb(143, 165, 67)" opacity="1.0"/>
    <path d="M 366.49273681640625 359.02484130859375 C 369.98516845703125 372.2357482910156 390.2843322753906 376.21124267578125 399.2247619628906 365.99371337890625 C 408.1651611328125 355.776123046875 402.3485412597656 336.98114013671875 389.39935302734375 332.604248046875 C 376.45013427734375 328.22735595703125 361.0409851074219 338.3212585449219 358.8877868652344 351.83233642578125 L 366.49273681640625 359.02484130859375" stroke-width="0.6000000238418579" fill="rgb(233, 92, 21)" opacity="1.0"/>
    <path d="M 403.989990234375 350.2586669921875 C 401.90338134765625 356.79217529296875 400.0885009765625 364.8130187988281 404.8454284667969 369.78631591796875 C 406.81549072265625 371.6918029785156 409.32830810546875 372.93902587890625 412.0372314453125 373.3558654785156 C 418.712158203125 374.56756591796875 425.5601806640625 372.4688720703125 430.40997314453125 367.7252502441406 C 434.5135498046875 363.6908264160156 436.6519775390625 358.1736145019531 438.59466552734375 352.7941589355469 C 439.6810302734375 349.7705383300781 440.73895263671875 346.52349853515625 439.9776611328125 343.4202880859375 C 438.928955078125 339.2922668457031 434.952880859375 336.6357116699219 431.096923828125 334.8301086425781 C 425.4569091796875 332.1805419921875 419.42529296875 330.4613342285156 413.2359619140625 329.7391357421875 C 411.0969543457031 329.49371337890625 408.8420104980469 329.38031005859375 406.8721618652344 330.2474670410156 C 405.08184814453125 331.1474609375 403.5920715332031 332.5489501953125 402.58447265625 334.2810363769531 C 399.32373046875 339.41619873046875 398.4797668457031 345.7232666015625 400.2757568359375 351.5350646972656 L 403.989990234375 350.2586669921875" stroke-width="0.6000000238418579" fill="rgb(70, 150, 179)" opacity="1.0"/>
    <path d="M 391.6602478027344 425.2545166015625 C 391.6675109863281 432.6861572265625 391.98760986328125 440.9232177734375 397.1518249511719 446.26080322265625 C 402.7027587890625 451.9912109375 412.13348388671875 452.14776611328125 419.48651123046875 449.0523681640625 C 422.322021484375 447.860107421875 425.0743408203125 446.16668701171875 426.74371337890625 443.58349609375 C 428.1168212890625 441.46044921875 428.651611328125 438.91546630859375 429.0224609375 436.4150390625 C 430.20147705078125 428.5313720703125 429.8515625 419.84210205078125 425.0545654296875 413.477783203125 C 420.2154541015625 407.0669250488281 411.03955078125 404.29461669921875 403.4690856933594 406.99981689453125 C 395.8986511230469 409.70501708984375 390.4888916015625 417.6036376953125 390.7679748535156 425.64337158203125 L 391.6602478027344 425.2545166015625" stroke-width="0.6000000238418579" fill="rgb(140, 28, 33)" opacity="1.0"/>
    <path d="M 413.870849609375 375.35089111328125 C 410.93609619140625 383.22271728515625 407.9690856933594 391.4461364746094 408.5970764160156 399.829833984375 C 409.22509765625 408.21337890625 414.5618896484375 416.8892822265625 422.79107666015625 418.6026611328125 C 432.95379638671875 420.6949462890625 442.7010498046875 410.77520751953125 443.448974609375 400.40740966796875 C 444.19677734375 390.03961181640625 438.29638671875 380.2543640136719 430.995361328125 372.87353515625 C 428.964111328125 370.3623046875 426.0655517578125 368.70379638671875 422.871337890625 368.2253112792969 C 419.69677734375 368.0899353027344 416.31591796875 371.2481994628906 417.45477294921875 374.2314758300781 L 413.870849609375 375.35089111328125" stroke-width="0.6000000238418579" fill="rgb(159, 159, 159)" opacity="1.0"/>
    <path d="M 433.19122314453125 370.53106689453125 C 435.20330810546875 377.721435546875 439.7227783203125 384.3790283203125 446.24481201171875 388.0058898925781 C 452.76690673828125 391.6327209472656 461.33544921875 391.8289794921875 467.544677734375 387.6328125 C 471.9310302734375 384.6605224609375 474.8150634765625 379.7842712402344 476.0654296875 374.63067626953125 C 477.3157958984375 369.47705078125 477.0538330078125 364.05572509765625 476.0933837890625 358.83935546875 C 475.674072265625 356.5695495605469 475.0699462890625 354.21905517578125 473.504638671875 352.5307922363281 C 471.7110595703125 350.59442138671875 468.9886474609375 349.8829345703125 466.38916015625 349.3810729980469 C 459.0501708984375 347.96429443359375 451.214599609375 347.6182861328125 444.33154296875 350.5346374511719 C 437.448486328125 353.45098876953125 431.8389892578125 360.2986145019531 432.21240234375 367.7461242675781 L 433.19122314453125 370.53106689453125" stroke-width="0.6000000238418579" fill="rgb(159, 159, 159)" opacity="1.0"/>
    <path d="M 436.9617919921875 411.895263671875 C 433.0450439453125 417.957763671875 428.95404052734375 424.8662109375 430.39801025390625 431.923583984375 C 431.7926025390625 438.7889404296875 437.937744140625 443.51226806640625 443.7152099609375 447.47998046875 C 446.0645751953125 449.08837890625 448.5479736328125 450.7335205078125 451.37713623046875 451.0391845703125 C 456.16180419921875 451.5589599609375 460.47021484375 448.1641845703125 463.5787353515625 444.4991455078125 C 466.46527099609375 441.09844970703125 468.8485107421875 437.3009033203125 470.65557861328125 433.2227783203125 C 473.5921630859375 426.60205078125 474.7242431640625 418.24188232421875 470.18218994140625 412.6036376953125 C 467.7344970703125 409.55621337890625 463.94757080078125 407.7920227050781 460.10150146484375 407.0622253417969 C 456.25537109375 406.3324890136719 452.29638671875 406.5486145019531 448.390869140625 406.8177490234375 C 444.4854736328125 407.0868225097656 440.65380859375 407.4349365234375 437.2852783203125 409.23956298828125 L 436.9617919921875 411.895263671875" stroke-width="0.6000000238418579" fill="rgb(218, 166, 20)" opacity="1.0"/>
    <path d="M 136.91763305664062 211.1475830078125 C 133.55081176757812 223.4627685546875 140.804931640625 236.17559814453125 153.12014770507812 239.54238891601562 C 154.17469787597656 239.8306884765625 155.2483673095703 240.0438232421875 156.33309936523438 240.18017578125 C 160.45489501953125 240.69757080078125 164.89556884765625 240.0018310546875 168.152587890625 237.426513671875 C 170.90518188476562 235.25048828125 172.5521240234375 231.98248291015625 173.78231811523438 228.6988525390625 C 177.06317138671875 219.90487670898438 177.92953491210938 210.392822265625 176.29144287109375 201.1507568359375 C 175.85430908203125 198.70855712890625 175.21090698242188 196.226318359375 173.73385620117188 194.22628784179688 C 171.25613403320312 190.8671875 166.8095703125 189.46435546875 162.63272094726562 189.50503540039062 C 156.43157958984375 189.56109619140625 150.42559814453125 192.38555908203125 145.93809509277344 196.667724609375 C 141.45059204101562 200.94985961914062 138.40110778808594 206.59228515625 136.6293182373047 212.5360107421875 L 136.91763305664062 211.1475830078125" stroke-width="0.6000000238418579" fill="rgb(143, 165, 67)" opacity="1.0"/>
    <path d="M 171.3704833984375 265.5263977050781 C 181.2642822265625 276.755859375 203.095947265625 270.70428466796875 206.8472900390625 256.31536865234375 C 210.59857177734375 241.92642211914062 195.69219970703125 226.36587524414062 180.86346435546875 228.423095703125 C 166.03472900390625 230.48031616210938 155.88641357421875 247.91754150390625 160.39712524414062 262.2071533203125 L 171.3704833984375 265.5263977050781" stroke-width="0.6000000238418579" fill="rgb(233, 92, 21)" opacity="1.0"/>
    <path d="M 141.6638946533203 307.7608642578125 C 134.3303985595703 308.42840576171875 125.63960266113281 309.98638916015625 122.70974731445312 316.76959228515625 C 121.64883422851562 319.514404296875 121.46578979492188 322.5207824707031 122.18592834472656 325.3740234375 C 123.77775573730469 332.4815673828125 128.71583557128906 338.3766784667969 135.4342498779297 341.18994140625 C 141.13941955566406 343.561767578125 147.48951721191406 343.3702392578125 153.6215362548828 343.04278564453125 C 157.06582641601562 342.8532409667969 160.71920776367188 342.54217529296875 163.46987915039062 340.4920959472656 C 167.11386108398438 337.72943115234375 168.07904052734375 332.6869201660156 168.2528076171875 328.1187744140625 C 168.51553344726562 321.43365478515625 167.6944580078125 314.75006103515625 165.82147216796875 308.3272399902344 C 165.1700439453125 306.10931396484375 164.339599609375 303.8318786621094 162.65863037109375 302.2463073730469 C 161.02020263671875 300.85198974609375 159.01144409179688 299.9645080566406 156.87734985351562 299.69207763671875 C 150.43594360351562 298.6139221191406 143.8458251953125 300.4157409667969 138.84902954101562 304.6212158203125 L 141.6638946533203 307.7608642578125" stroke-width="0.6000000238418579" fill="rgb(70, 150, 179)" opacity="1.0"/>
    <path d="M 122.93173217773438 301.9317626953125 C 123.36627197265625 294.0177001953125 123.515625 285.22735595703125 118.33416748046875 279.23626708984375 C 112.76426696777344 272.8038635253906 102.73123168945312 272.07586669921875 94.71713256835938 274.9344482421875 C 91.62673950195312 276.0352783203125 88.59512329101562 277.6746826171875 86.66380310058594 280.3260803222656 C 85.0753173828125 282.5050964355469 84.35438537597656 285.18328857421875 83.81065368652344 287.82379150390625 C 82.08598327636719 296.1485900878906 81.94143676757812 305.4222106933594 86.6707763671875 312.4847717285156 C 91.442138671875 319.59942626953125 101.04818725585938 323.0976257324219 109.27059936523438 320.6675109863281 C 117.4930419921875 318.2374267578125 123.72372436523438 310.1485290527344 123.90499877929688 301.57073974609375 L 122.93173217773438 301.9317626953125" stroke-width="0.6000000238418579" fill="rgb(140, 28, 33)" opacity="1.0"/>
    <path d="M 145.90419006347656 257.8211975097656 C 138.14703369140625 262.10357666015625 130.1224822998047 266.6451416015625 124.86445617675781 273.78509521484375 C 119.60655212402344 280.92498779296875 117.91566467285156 291.5342712402344 123.32321166992188 298.5596008300781 C 130.01759338378906 307.2167663574219 144.63311767578125 305.97662353515625 152.35537719726562 298.19439697265625 C 160.07763671875 290.41217041015625 162.07977294921875 278.52789306640625 161.30908203125 267.60528564453125 C 161.40927124023438 264.2002258300781 160.22943115234375 260.8814392089844 158.0023193359375 258.3038024902344 C 155.55503845214844 256.01416015625 150.6796875 256.21832275390625 149.54115295410156 259.38800048828125 L 145.90419006347656 257.8211975097656" stroke-width="0.6000000238418579" fill="rgb(159, 159, 159)" opacity="1.0"/>
    <path d="M 159.48855590820312 288.3993225097656 C 159.25442504882812 296.211181640625 161.69168090820312 304.2734069824219 167.07574462890625 309.9327392578125 C 172.4598388671875 315.5920715332031 180.95932006835938 318.4626770019531 188.47271728515625 316.2084655761719 C 193.78277587890625 314.6080017089844 198.18630981445312 310.63641357421875 201.04412841796875 305.8778076171875 C 203.9019775390625 301.119140625 205.33245849609375 295.6209411621094 206.0010986328125 290.10955810546875 C 206.2906494140625 287.7109375 206.4207763671875 285.1739807128906 205.38388061523438 282.9986877441406 C 204.19625854492188 280.50421142578125 201.69842529296875 278.9436340332031 199.2579345703125 277.6308288574219 C 192.367919921875 273.9245910644531 184.64743041992188 271.13311767578125 176.8603515625 271.89837646484375 C 169.07327270507812 272.66363525390625 161.33145141601562 277.75408935546875 159.3798828125 285.3113708496094 L 159.48855590820312 288.3993225097656" stroke-width="0.6000000238418579" fill="rgb(159, 159, 159)" opacity="1.0"/>
    <path d="M 126.72938537597656 350.00341796875 C 127.00698852539062 342.2235412597656 126.97854614257812 333.5638427734375 121.74101257324219 327.824951171875 C 116.65534973144531 322.2366638183594 108.35321044921875 321.2575988769531 100.80923461914062 320.7752380371094 C 97.74432373046875 320.58380126953125 94.53489685058594 320.432373046875 91.74551391601562 321.71270751953125 C 87.02651977539062 323.8753967285156 84.91184997558594 329.4007263183594 84.05799865722656 334.5132751464844 C 83.26364135742188 339.2582702636719 83.15475463867188 344.0927734375 83.73464965820312 348.8687438964844 C 84.67341613769531 356.62396240234375 88.24484252929688 364.9931640625 95.56767272949219 367.70550537109375 C 99.51887512207031 369.17559814453125 104.00146484375 368.7169189453125 107.9671630859375 367.2674560546875 C 111.93287658691406 365.8179626464844 115.48049926757812 363.4299011230469 118.94918823242188 361.02239990234375 C 122.4178466796875 358.61492919921875 125.77459716796875 356.1750183105469 127.8973388671875 352.6419982910156 L 126.72938537597656 350.00341796875" stroke-width="0.6000000238418579" fill="rgb(218, 166, 20)" opacity="1.0"/>
    <path d="M 151.17434692382812 341.23797607421875 C 138.76158142089844 340.5935974121094 128.17666625976562 350.1337585449219 127.53228759765625 362.5465393066406 C 127.47711181640625 363.60943603515625 127.49740600585938 364.6749267578125 127.593017578125 365.7349548339844 C 127.95703125 369.7628173828125 129.54110717773438 373.8420104980469 132.6670684814453 376.40496826171875 C 135.3085174560547 378.5710754394531 138.7589111328125 379.4587707519531 142.13760375976562 379.94683837890625 C 151.183349609375 381.2408447265625 160.41058349609375 380.08917236328125 168.86077880859375 376.61151123046875 C 171.0928955078125 375.6884765625 173.3201904296875 374.5609436035156 174.91571044921875 372.74066162109375 C 177.5960693359375 369.686279296875 178.00674438476562 365.1656188964844 177.10052490234375 361.2013244628906 C 175.75918579101562 355.3148498535156 171.82525634765625 350.18896484375 166.82025146484375 346.8101501464844 C 161.8153076171875 343.43133544921875 155.815185546875 341.70281982421875 149.79383850097656 341.25213623046875 L 151.17434692382812 341.23797607421875" stroke-width="0.6000000238418579" fill="rgb(143, 165, 67)" opacity="1.0"/>
    <path d="M 137.9715576171875 379.2461242675781 C 134.4697723388672 365.3201599121094 113.19068908691406 360.88482666015625 103.66650390625 371.50738525390625 C 94.14234924316406 382.1299743652344 100.01533508300781 401.9530334472656 113.56625366210938 406.71673583984375 C 127.11715698242188 411.4804382324219 143.43685913085938 401.07000732421875 145.87112426757812 386.9004211425781 L 137.9715576171875 379.2461242675781" stroke-width="0.6000000238418579" fill="rgb(233, 92, 21)" opacity="1.0"/>
    <path d="M 175.43560791015625 348.3294372558594 C 175.64154052734375 355.66229248046875 176.6480712890625 364.4002380371094 183.20925903320312 367.7366027832031 C 185.87200927734375 368.9627380371094 188.84963989257812 369.3323974609375 191.73138427734375 368.79449462890625 C 198.89727783203125 367.6554870605469 205.066650390625 363.1138610839844 208.28302001953125 356.60980224609375 C 210.99728393554688 351.0855712890625 211.2032470703125 344.7601318359375 211.26043701171875 338.6430358886719 C 211.2869873046875 335.206787109375 211.20574951171875 331.5550537109375 209.33917236328125 328.6922912597656 C 206.8199462890625 324.8968505859375 201.86672973632812 323.62249755859375 197.33578491210938 323.1645812988281 C 190.70559692382812 322.486083984375 184.00927734375 322.88525390625 177.50662231445312 324.3465270996094 C 175.26080322265625 324.85577392578125 172.94467163085938 325.53924560546875 171.2633056640625 327.111572265625 C 169.7747802734375 328.65350341796875 168.76702880859375 330.59527587890625 168.36297607421875 332.7000732421875 C 166.88897705078125 339.0370178222656 168.26901245117188 345.70159912109375 172.13836669921875 350.9320983886719 L 175.43560791015625 348.3294372558594" stroke-width="0.6000000238418579" fill="rgb(70, 150, 179)" opacity="1.0"/>
  </g>
</svg>
