<?xml version="1.0" ?>
<svg xmlns="http://www.w3.org/2000/svg" version="1.1" width="600" height="600">
  <defs/>
  <g>
    <path d="M 355.4880065917969 342.4955749511719 C 359.24359130859375 346.00811767578125 366.5092468261719 343.21527099609375 367.3154602050781 338.1701354980469 C 368.12164306640625 333.1250305175781 362.50830078125 328.29736328125 357.5052185058594 329.4922180175781 C 352.50213623046875 330.6870422363281 349.6092529296875 336.986572265625 351.6252746582031 341.7239990234375 L 355.4880065917969 342.4955749511719" stroke-width="0.6000000238418579" fill="rgb(233, 92, 21)" opacity="1.0"/>
    <path d="M 123.04283142089844 209.84872436523438 C 127.24742126464844 210.05517578125 132.29132080078125 209.86575317382812 134.49038696289062 206.25933837890625 C 135.30967712402344 204.7900390625 135.65286254882812 203.102783203125 135.47254943847656 201.43020629882812 C 135.13778686523438 197.27984619140625 132.81214904785156 193.54922485351562 129.2331085205078 191.42132568359375 C 126.19247436523438 189.62408447265625 122.58248901367188 189.22647094726562 119.08514404296875 188.9232177734375 C 117.12026977539062 188.75607299804688 115.02734375 188.64105224609375 113.30686950683594 189.5823974609375 C 111.02391052246094 190.85592651367188 110.07574462890625 193.633544921875 109.61334228515625 196.20562744140625 C 108.93194580078125 199.9691162109375 108.86416625976562 203.81802368164062 109.41265869140625 207.6031494140625 C 109.60469055175781 208.91058349609375 109.893310546875 210.2659912109375 110.71856689453125 211.29751586914062 C 111.53494262695312 212.21737670898438 112.60134887695312 212.87982177734375 113.78773498535156 213.2041015625 C 117.34822082519531 214.32769775390625 121.22238159179688 213.83285522460938 124.3861083984375 211.850341796875 L 123.04283142089844 209.84872436523438" stroke-width="0.6000000238418579" fill="rgb(70, 150, 179)" opacity="1.0"/>
    <path d="M 459.14495849609375 403.2697448730469 C 461.2645263671875 405.49969482421875 463.70751953125 407.8824157714844 466.77923583984375 408.01416015625 C 470.0791015625 408.1536865234375 472.9560546875 405.5137939453125 474.2825927734375 402.4891357421875 C 474.79449462890625 401.32318115234375 475.138671875 400.0304260253906 474.904052734375 398.7789611816406 C 474.7115478515625 397.7501220703125 474.1470947265625 396.8334045410156 473.5460205078125 395.9767761230469 C 471.654052734375 393.2730712890625 469.0732421875 390.7630615234375 465.81927490234375 390.21832275390625 C 462.53936767578125 389.67156982421875 458.99365234375 391.4532775878906 457.49066162109375 394.42266845703125 C 455.9876708984375 397.3920593261719 456.61334228515625 401.3056335449219 458.98779296875 403.6407470703125 L 459.14495849609375 403.2697448730469" stroke-width="0.6000000238418579" fill="rgb(140, 28, 33)" opacity="1.0"/>
    <path d="M 88.10943603515625 209.059814453125 C 92.66853332519531 209.2525634765625 97.41464233398438 209.40283203125 101.63929748535156 207.66937255859375 C 105.86387634277344 205.9359130859375 109.447998046875 201.72119140625 108.9498291015625 197.18283081054688 C 108.32235717773438 191.58209228515625 101.56050109863281 188.21490478515625 96.07980346679688 189.57119750976562 C 90.59910583496094 190.927490234375 86.53671264648438 195.61981201171875 83.95162963867188 200.63134765625 C 82.9959716796875 202.1025390625 82.62655639648438 203.87844848632812 82.91627502441406 205.608642578125 C 83.37994384765625 207.2711181640625 85.57943725585938 208.48651123046875 86.92887878417969 207.3968505859375 L 88.10943603515625 209.059814453125" stroke-width="0.6000000238418579" fill="rgb(159, 159, 159)" opacity="1.0"/>
    <path d="M 382.8688659667969 313.508056640625 C 387.1129150390625 312.6112060546875 391.1421203613281 310.24072265625 393.4893493652344 306.5955505371094 C 395.8365783691406 302.9504089355469 396.27166748046875 297.99017333984375 394.0718078613281 294.2330017089844 C 392.51312255859375 291.57861328125 389.7942810058594 289.72369384765625 386.8533935546875 288.8055725097656 C 383.9124755859375 287.8874206542969 380.7596130371094 287.83599853515625 377.6994323730469 288.1971740722656 C 376.3677978515625 288.35516357421875 374.9824523925781 288.61724853515625 373.9449768066406 289.46142578125 C 372.755126953125 290.4286804199219 372.24053955078125 291.98028564453125 371.85211181640625 293.4685363769531 C 370.7555236816406 297.6701354980469 370.2611083984375 302.1998291015625 371.6937255859375 306.29962158203125 C 373.1263732910156 310.3994140625 376.88592529296875 313.9082946777344 381.21759033203125 313.9710998535156 L 382.8688659667969 313.508056640625" stroke-width="0.6000000238418579" fill="rgb(159, 159, 159)" opacity="1.0"/>
    <path d="M 104.05422973632812 418.06451416015625 C 107.06939697265625 415.8233642578125 110.32379150390625 413.20166015625 110.90701293945312 409.4978332519531 C 111.47929382324219 405.8966369628906 109.34500122070312 402.4731750488281 107.25216674804688 399.4851989746094 C 106.40019226074219 398.2726135253906 105.48956298828125 397.01763916015625 104.16610717773438 396.3526306152344 C 101.92837524414062 395.2265930175781 99.20884704589844 396.0957336425781 97.02499389648438 397.31549072265625 C 94.99757385253906 398.4468688964844 93.14311218261719 399.8634948730469 91.51837158203125 401.5220031738281 C 88.8792724609375 404.2140197753906 86.80256652832031 408.0831604003906 87.98847961425781 411.6601867675781 C 88.62588500976562 413.59228515625 90.1502685546875 415.1429443359375 91.89213562011719 416.2001953125 C 93.63400268554688 417.2574462890625 95.60348510742188 417.8741455078125 97.55645751953125 418.455322265625 C 99.50944519042969 419.036376953125 101.44090270996094 419.5655517578125 103.41217041015625 419.3001708984375 L 104.05422973632812 418.06451416015625" stroke-width="0.6000000238418579" fill="rgb(218, 166, 20)" opacity="1.0"/>
    <path d="M 99.28564453125 156.66961669921875 C 106.89291381835938 158.98858642578125 114.939697265625 154.7015380859375 117.25865173339844 147.09426879882812 C 117.45722961425781 146.44285583496094 117.60932922363281 145.77818298339844 117.71383666992188 145.10523986816406 C 118.1104736328125 142.5481414794922 117.75755310058594 139.7705535888672 116.212890625 137.69602966308594 C 114.90771484375 135.94277954101562 112.90266418457031 134.85824584960938 110.88034057617188 134.03289794921875 C 105.46401977539062 131.83111572265625 99.55694580078125 131.11973571777344 93.77275085449219 131.97267150878906 C 92.24420166015625 132.20069885253906 90.68699645996094 132.55645751953125 89.41497802734375 133.44000244140625 C 87.27862548828125 134.92205810546875 86.32478332519531 137.66537475585938 86.27461242675781 140.266845703125 C 86.19744873046875 144.12901306152344 87.84756469726562 147.9197235107422 90.43275451660156 150.79127502441406 C 93.01792907714844 153.662841796875 96.47607421875 155.66358947753906 100.14495849609375 156.87423706054688 L 99.28564453125 156.66961669921875" stroke-width="0.6000000238418579" fill="rgb(143, 165, 67)" opacity="1.0"/>
    <path d="M 460.78656005859375 344.46099853515625 C 463.7796630859375 351.45355224609375 475.2803955078125 351.9991455078125 479.3765869140625 345.6483459472656 C 483.4727783203125 339.2975158691406 478.74761962890625 329.41796875 471.261962890625 328.05615234375 C 463.7763671875 326.6943054199219 456.1077880859375 333.5008544921875 456.01605224609375 341.1158447265625 L 460.78656005859375 344.46099853515625" stroke-width="0.6000000238418579" fill="rgb(233, 92, 21)" opacity="1.0"/>
    <path d="M 107.53485107421875 227.27276611328125 C 110.60092163085938 223.964599609375 113.92031860351562 219.6949462890625 112.47578430175781 215.40576171875 C 111.83448791503906 213.72125244140625 110.686279296875 212.2772216796875 109.18951416015625 211.27288818359375 C 105.55300903320312 208.6883544921875 100.88935852050781 208.0267333984375 96.67747497558594 209.497802734375 C 93.10783386230469 210.75485229492188 90.2945556640625 213.44338989257812 87.63630676269531 216.1044921875 C 86.14547729492188 217.60177612304688 84.60923767089844 219.24005126953125 84.19644165039062 221.3004150390625 C 83.66876220703125 224.05123901367188 85.294921875 226.74288940429688 87.08711242675781 228.89431762695312 C 89.7060546875 232.04623413085938 92.81790161132812 234.75347900390625 96.30192565917969 236.9110107421875 C 97.50715637207031 237.6541748046875 98.81826782226562 238.35107421875 100.23329162597656 238.38449096679688 C 101.55058288574219 238.3482666015625 102.82888793945312 237.92950439453125 103.91230773925781 237.1793212890625 C 107.28726196289062 235.03158569335938 109.5501708984375 231.51141357421875 110.10284423828125 227.54937744140625 L 107.53485107421875 227.27276611328125" stroke-width="0.6000000238418579" fill="rgb(70, 150, 179)" opacity="1.0"/>
    <path d="M 109.7005615234375 82.2340087890625 C 110.31114196777344 86.40908813476562 111.16323852539062 91.01118469238281 114.50047302246094 93.58879089355469 C 118.08708190917969 96.35556030273438 123.39875793457031 95.67388916015625 127.27761840820312 93.33456420898438 C 128.77352905273438 92.43325805664062 130.1818084716797 91.25714111328125 130.90895080566406 89.66946411132812 C 131.50718688964844 88.36453247070312 131.5999755859375 86.89093017578125 131.6042938232422 85.45573425292969 C 131.6233673095703 80.92987060546875 130.71763610839844 76.07612609863281 127.5029296875 72.89166259765625 C 124.26077270507812 69.6844482421875 118.8787841796875 68.8756103515625 114.84588623046875 71.013427734375 C 110.81301879882812 73.1512451171875 108.41799926757812 78.03077697753906 109.23095703125 82.52534484863281 L 109.7005615234375 82.2340087890625" stroke-width="0.6000000238418579" fill="rgb(140, 28, 33)" opacity="1.0"/>
    <path d="M 94.30899047851562 399.5741271972656 C 96.74826049804688 396.67291259765625 99.25445556640625 393.6271667480469 100.25701904296875 389.96893310546875 C 101.25956726074219 386.310791015625 100.30508422851562 381.8153381347656 97.06707763671875 379.8410949707031 C 93.06465148925781 377.4129943847656 87.41993713378906 380.15301513671875 85.53216552734375 384.4461669921875 C 83.6444091796875 388.7392883300781 84.67045593261719 393.79156494140625 86.65583801269531 398.03399658203125 C 87.13885498046875 399.40887451171875 88.11965942382812 400.5526428222656 89.40473937988281 401.23968505859375 C 90.73348999023438 401.7779235839844 92.64859008789062 400.94757080078125 92.61630249023438 399.5072021484375 L 94.30899047851562 399.5741271972656" stroke-width="0.6000000238418579" fill="rgb(159, 159, 159)" opacity="1.0"/>
    <path d="M 477.70166015625 66.77340698242188 C 479.25531005859375 63.41827392578125 479.6932373046875 59.45774841308594 478.40264892578125 55.99497985839844 C 477.11199951171875 52.53221130371094 473.94769287109375 49.70372009277344 470.25994873046875 49.28810119628906 C 467.65234375 48.99755859375 464.9984130859375 49.90704345703125 462.8707275390625 51.44622802734375 C 460.74298095703125 52.98541259765625 459.0987548828125 55.11161804199219 457.78363037109375 57.385162353515625 C 457.2119140625 58.37489318847656 456.68377685546875 59.454437255859375 456.7305908203125 60.593536376953125 C 456.78369140625 61.899505615234375 457.5804443359375 63.04266357421875 458.398193359375 64.06736755371094 C 460.70703125 66.96029663085938 463.547119140625 69.60958862304688 467.0771484375 70.72386169433594 C 470.6072998046875 71.838134765625 474.9215087890625 71.062255859375 477.175048828125 68.13705444335938 L 477.70166015625 66.77340698242188" stroke-width="0.6000000238418579" fill="rgb(159, 159, 159)" opacity="1.0"/>
    <path d="M 88.70260620117188 112.44029235839844 C 92.95530700683594 114.02122497558594 97.75088500976562 115.59428405761719 101.88644409179688 113.74990844726562 C 105.91079711914062 111.9619140625 107.9755859375 107.54899597167969 109.62649536132812 103.46435546875 C 110.29472351074219 101.80401611328125 110.96731567382812 100.05642700195312 110.77082824707031 98.27850341796875 C 110.44027709960938 95.27128601074219 107.77177429199219 93.0877685546875 105.10028076171875 91.67742919921875 C 102.62118530273438 90.36746215820312 99.96684265136719 89.42024230957031 97.21849060058594 88.86477661132812 C 92.75625610351562 87.96124267578125 87.47134399414062 88.4013671875 84.62744140625 91.95455932617188 C 83.08929443359375 93.87055969238281 82.52059936523438 96.43438720703125 82.59481811523438 98.89404296875 C 82.6690673828125 101.35372924804688 83.33920288085938 103.75433349609375 84.03457641601562 106.11480712890625 C 84.72994995117188 108.47531127929688 85.46377563476562 110.77983093261719 87.02871704101562 112.60226440429688 L 88.70260620117188 112.44029235839844" stroke-width="0.6000000238418579" fill="rgb(218, 166, 20)" opacity="1.0"/>
    <path d="M 130.55459594726562 138.9611358642578 C 137.42666625976562 137.48724365234375 141.80274963378906 130.7215118408203 140.328857421875 123.84944152832031 C 140.20265197753906 123.260986328125 140.03485107421875 122.68222045898438 139.8267364501953 122.11750793457031 C 139.03555297851562 119.97186279296875 137.5706787109375 117.97764587402344 135.48695373535156 117.03807067871094 C 133.72613525390625 116.243896484375 131.71168518066406 116.2667236328125 129.79515075683594 116.4971923828125 C 124.66590881347656 117.12115478515625 119.79728698730469 119.10713195800781 115.69503784179688 122.24880981445312 C 114.61209106445312 123.08106994628906 113.56184387207031 124.0242919921875 112.95843505859375 125.25285339355469 C 111.94422912597656 127.31474304199219 112.38491821289062 129.84341430664062 113.46279907226562 131.87460327148438 C 115.06095886230469 134.89129638671875 117.96279907226562 137.1113739013672 121.19245910644531 138.22003173828125 C 124.42210388183594 139.3286895751953 127.95236206054688 139.3899383544922 131.30625915527344 138.75035095214844 L 130.55459594726562 138.9611358642578" stroke-width="0.6000000238418579" fill="rgb(143, 165, 67)" opacity="1.0"/>
    <path d="M 403.15570068359375 309.00592041015625 C 406.64910888671875 317.6340637207031 420.7080078125 318.579345703125 425.873291015625 310.9075622558594 C 431.03863525390625 303.2357482910156 425.49554443359375 291.0333251953125 416.3692626953125 289.1863098144531 C 407.2428894042969 287.3392639160156 397.69549560546875 295.482421875 397.3994140625 304.7976989746094 L 403.15570068359375 309.00592041015625" stroke-width="0.6000000238418579" fill="rgb(233, 92, 21)" opacity="1.0"/>
    <path d="M 124.190185546875 116.4208984375 C 128.2340087890625 116.63766479492188 133.08692932128906 116.4771728515625 135.2179412841797 113.01736450195312 C 136.0124053955078 111.60749816894531 136.34982299804688 109.98583984375 136.18357849121094 108.3760986328125 C 135.8794403076172 104.38212585449219 133.6583251953125 100.7833251953125 130.22454833984375 98.72090148925781 C 127.30728149414062 96.97885131835938 123.83628845214844 96.580810546875 120.47323608398438 96.27401733398438 C 118.58378601074219 96.10475158691406 116.57093811035156 95.98507690429688 114.91183471679688 96.88320922851562 C 112.71018981933594 98.09846496582031 111.78608703613281 100.766357421875 111.33018493652344 103.23867797851562 C 110.658447265625 106.8560791015625 110.57666015625 110.55836486816406 111.08796691894531 114.20193481445312 C 111.26705932617188 115.46049499511719 111.53886413574219 116.76559448242188 112.32827758789062 117.76145935058594 C 113.10964965820312 118.64987182617188 114.13265991210938 119.29173278808594 115.27252197265625 119.60877990722656 C 118.69277954101562 120.70501708984375 122.4217529296875 120.24569702148438 125.4737548828125 118.35220336914062 L 124.190185546875 116.4208984375" stroke-width="0.6000000238418579" fill="rgb(70, 150, 179)" opacity="1.0"/>
    <path d="M 415.95025634765625 64.66102600097656 C 417.3419189453125 67.55792236328125 419.00604248046875 70.71044921875 422.0174560546875 71.82696533203125 C 425.253173828125 73.0244140625 428.9603271484375 71.32308959960938 431.2493896484375 68.7418212890625 C 432.1324462890625 67.7469482421875 432.88934326171875 66.57220458984375 433.0576171875 65.25282287597656 C 433.19635009765625 64.16827392578125 432.9293212890625 63.07582092285156 432.606689453125 62.03138732910156 C 431.59320068359375 58.73652648925781 429.83294677734375 55.4132080078125 426.7728271484375 53.827667236328125 C 423.6876220703125 52.23179626464844 419.591064453125 52.86540222167969 417.1441650390625 55.33514404296875 C 414.6973876953125 57.80487060546875 414.06365966796875 61.89619445800781 415.6749267578125 64.97943115234375 L 415.95025634765625 64.66102600097656" stroke-width="0.6000000238418579" fill="rgb(140, 28, 33)" opacity="1.0"/>
    <path d="M 120.53749084472656 425.91748046875 C 122.19345092773438 422.9976806640625 123.88436889648438 419.9412841796875 124.16719055175781 416.5941162109375 C 124.44998168945312 413.2469482421875 122.89361572265625 409.4864807128906 119.75556945800781 408.2897644042969 C 115.87869262695312 406.8211975097656 111.40554809570312 410.1177673339844 110.45437622070312 414.16064453125 C 109.50320434570312 418.2034912109375 111.21173095703125 422.437255859375 113.62495422363281 425.81109619140625 C 114.26734924316406 426.9302978515625 115.30592346191406 427.76806640625 116.5357666015625 428.15899658203125 C 117.77961730957031 428.413330078125 119.31326293945312 427.38128662109375 119.05276489257812 426.13232421875 L 120.53749084472656 425.91748046875" stroke-width="0.6000000238418579" fill="rgb(159, 159, 159)" opacity="1.0"/>
    <path d="M 475.77044677734375 447.5648193359375 C 476.141845703125 445.606689453125 475.85040283203125 443.47869873046875 474.720703125 441.83807373046875 C 473.591064453125 440.1973876953125 471.56524658203125 439.134521484375 469.582763671875 439.40179443359375 C 468.181396484375 439.592529296875 466.91357421875 440.4166259765625 466.00347900390625 441.5008544921875 C 465.0933837890625 442.5850830078125 464.51324462890625 443.91259765625 464.1243896484375 445.27392578125 C 463.95556640625 445.866455078125 463.82135009765625 446.50018310546875 463.9954833984375 447.0894775390625 C 464.19482421875 447.7652587890625 464.76153564453125 448.2581787109375 465.32366943359375 448.6864013671875 C 466.9107666015625 449.8953857421875 468.7435302734375 450.9072265625 470.7353515625 451.02587890625 C 472.7271728515625 451.14459228515625 474.880615234375 450.172119140625 475.67431640625 448.34686279296875 L 475.77044677734375 447.5648193359375" stroke-width="0.6000000238418579" fill="rgb(159, 159, 159)" opacity="1.0"/>
    <path d="M 456.5853271484375 298.3013916015625 C 455.88031005859375 294.2008972167969 454.9189453125 289.6735534667969 451.55169677734375 287.2435607910156 C 448.2802734375 284.87579345703125 443.82989501953125 285.27093505859375 439.8304443359375 285.8430480957031 C 438.2060546875 286.077880859375 436.51043701171875 286.34942626953125 435.1910400390625 287.3240966796875 C 432.9586181640625 288.9712829589844 432.4561767578125 292.0930480957031 432.5682373046875 294.861083984375 C 432.67120361328125 297.4302978515625 433.142578125 299.971435546875 433.96795654296875 302.4067077636719 C 435.306640625 306.3613586425781 438.08978271484375 310.3495178222656 442.21728515625 310.96820068359375 C 444.445068359375 311.3054504394531 446.7401123046875 310.5755920410156 448.6563720703125 309.3838806152344 C 450.57269287109375 308.192138671875 452.167724609375 306.5550537109375 453.71923828125 304.91644287109375 C 455.2708740234375 303.2778625488281 456.76031494140625 301.634521484375 457.4847412109375 299.5541687011719 L 456.5853271484375 298.3013916015625" stroke-width="0.6000000238418579" fill="rgb(218, 166, 20)" opacity="1.0"/>
    <path d="M 427.6197509765625 371.5596008300781 C 425.7838134765625 372.9499206542969 425.4224853515625 375.5653381347656 426.81280517578125 377.4013366699219 C 426.931884765625 377.55853271484375 427.0618896484375 377.7071228027344 427.2020263671875 377.8459167480469 C 427.734375 378.373291015625 428.44580078125 378.76226806640625 429.1947021484375 378.7523498535156 C 429.82757568359375 378.7440185546875 430.4224853515625 378.4579772949219 430.9595947265625 378.12384033203125 C 432.39593505859375 377.22747802734375 433.5660400390625 375.962890625 434.3485107421875 374.4613952636719 C 434.55462646484375 374.0641784667969 434.7357177734375 373.6385192871094 434.7445068359375 373.19012451171875 C 434.759765625 372.43731689453125 434.27838134765625 371.7476501464844 433.6767578125 371.2940368652344 C 432.7840576171875 370.6199645996094 431.61468505859375 370.36309814453125 430.5020751953125 370.481689453125 C 429.3895263671875 370.60028076171875 428.3328857421875 371.071533203125 427.42578125 371.72637939453125 L 427.6197509765625 371.5596008300781" stroke-width="0.6000000238418579" fill="rgb(143, 165, 67)" opacity="1.0"/>
    <path d="M 452.2030029296875 345.7282409667969 C 458.450439453125 342.9224853515625 458.7586669921875 332.5601806640625 452.9761962890625 328.9736022949219 C 447.193603515625 325.3870544433594 438.374755859375 329.798095703125 437.267822265625 336.5587158203125 C 436.1610107421875 343.3193359375 442.41058349609375 350.11468505859375 449.2674560546875 350.07611083984375 L 452.2030029296875 345.7282409667969" stroke-width="0.6000000238418579" fill="rgb(233, 92, 21)" opacity="1.0"/>
    <path d="M 448.2220458984375 69.00143432617188 C 451.775634765625 67.9639892578125 455.912841796875 66.35618591308594 456.7032470703125 62.72676086425781 C 456.961669921875 61.27015686035156 456.76165771484375 59.76927185058594 456.130859375 58.43115234375 C 454.65924072265625 55.07830810546875 451.65380859375 52.646759033203125 448.067626953125 51.90754699707031 C 445.02392578125 51.28828430175781 441.9095458984375 51.99591064453125 438.9158935546875 52.74957275390625 C 437.2349853515625 53.1756591796875 435.46258544921875 53.68190002441406 434.303466796875 54.95892333984375 C 432.7724609375 56.673736572265625 432.783203125 59.25468444824219 433.1385498046875 61.52516174316406 C 433.6544189453125 64.84867858886719 434.70489501953125 68.0667724609375 436.2491455078125 71.05462646484375 C 436.78466796875 72.08596801757812 437.414306640625 73.12936401367188 438.396728515625 73.74929809570312 C 439.33966064453125 74.27899169921875 440.4163818359375 74.52285766601562 441.49554443359375 74.45120239257812 C 444.77752685546875 74.36114501953125 447.8548583984375 72.83587646484375 449.9139404296875 70.27859497070312 L 448.2220458984375 69.00143432617188" stroke-width="0.6000000238418579" fill="rgb(70, 150, 179)" opacity="1.0"/>
    <path d="M 456.272216796875 400.2000732421875 C 456.811279296875 397.176513671875 457.28173828125 393.8025207519531 455.5703125 391.25469970703125 C 453.730224609375 388.5188903808594 449.90545654296875 387.7674560546875 446.68865966796875 388.4903564453125 C 445.44830322265625 388.7685546875 444.2052001953125 389.2566833496094 443.3377685546875 390.18572998046875 C 442.6243896484375 390.9491882324219 442.2213134765625 391.9454345703125 441.8880615234375 392.93548583984375 C 440.83355712890625 396.056396484375 440.3421630859375 399.61651611328125 441.829345703125 402.5552062988281 C 443.33026123046875 405.5158996582031 446.86065673828125 407.31280517578125 450.137451171875 406.76446533203125 C 453.4141845703125 406.21612548828125 456.1907958984375 403.3976745605469 456.66357421875 400.1069641113281 L 456.272216796875 400.2000732421875" stroke-width="0.6000000238418579" fill="rgb(140, 28, 33)" opacity="1.0"/>
    <path d="M 122.59547424316406 214.96038818359375 C 118.29600524902344 219.52810668945312 113.87252807617188 224.32846069335938 111.87680053710938 230.28021240234375 C 109.88114929199219 236.23190307617188 111.04154968261719 243.74844360351562 116.20889282226562 247.310791015625 C 122.59725952148438 251.69390869140625 132.1783447265625 247.68966674804688 135.69558715820312 240.77084350585938 C 139.2128143310547 233.85202026367188 137.98574829101562 225.40875244140625 135.09848022460938 218.21466064453125 C 134.4278106689453 215.89813232421875 132.9132080078125 213.91729736328125 130.85345458984375 212.66293334960938 C 128.70779418945312 211.650390625 125.46636962890625 212.84490966796875 125.38623046875 215.2279052734375 L 122.59547424316406 214.96038818359375" stroke-width="0.6000000238418579" fill="rgb(159, 159, 159)" opacity="1.0"/>
    <path d="M 107.80632019042969 240.15234375 C 102.2257080078125 238.86395263671875 96.08209228515625 239.45953369140625 91.24287414550781 242.5174560546875 C 86.40365600585938 245.57537841796875 83.12188720703125 251.27212524414062 83.66458129882812 256.99505615234375 C 84.05340576171875 261.0407409667969 86.27626037597656 264.7749328613281 89.28640747070312 267.5111083984375 C 92.29653930664062 270.247314453125 96.0428466796875 272.063720703125 99.90786743164062 273.33453369140625 C 101.59017944335938 273.8865661621094 103.39474487304688 274.3438415527344 105.10676574707031 273.91058349609375 C 107.06977844238281 273.41473388671875 108.54948425292969 271.8433837890625 109.8428955078125 270.2777099609375 C 113.49443054199219 265.8574523925781 116.60763549804688 260.7091979980469 117.17422485351562 255.00308227539062 C 117.74081420898438 249.29696655273438 115.19253540039062 243.00320434570312 110.0411376953125 240.51702880859375 L 107.80632019042969 240.15234375" stroke-width="0.6000000238418579" fill="rgb(159, 159, 159)" opacity="1.0"/>
    <path d="M 285.2996520996094 87.41851806640625 C 283.92657470703125 93.1343994140625 282.6479187011719 99.54736328125 285.6626892089844 104.58056640625 C 288.587646484375 109.4794921875 294.58477783203125 111.4500732421875 300.0953369140625 112.93930053710938 C 302.3348388671875 113.54096984863281 304.6872863769531 114.13470458984375 306.9437255859375 113.6058349609375 C 310.7606506347656 112.71359252929688 313.1549072265625 108.94190979003906 314.5541076660156 105.28646850585938 C 315.8541564941406 101.89410400390625 316.6603088378906 98.3326416015625 316.9479675292969 94.71112060546875 C 317.4171447753906 88.83091735839844 316.0301818847656 82.10118103027344 311.0179443359375 78.99484252929688 C 308.3144836425781 77.31388854980469 304.9282531738281 76.98056030273438 301.7758483886719 77.45806884765625 C 298.6234436035156 77.93557739257812 295.63958740234375 79.17044067382812 292.71124267578125 80.4315185546875 C 289.78289794921875 81.69259643554688 286.9325256347656 82.99446105957031 284.8313293457031 85.29051208496094 L 285.2996520996094 87.41851806640625" stroke-width="0.6000000238418579" fill="rgb(218, 166, 20)" opacity="1.0"/>
    <path d="M 228.125 121.60772705078125 C 221.91241455078125 113.60235595703125 210.38641357421875 112.14901733398438 202.38104248046875 118.36163330078125 C 201.69552612304688 118.89360046386719 201.04864501953125 119.47355651855469 200.4451904296875 120.09710693359375 C 198.1527099609375 122.46682739257812 196.478271484375 125.61700439453125 196.56094360351562 128.91151428222656 C 196.6304931640625 131.6956024169922 197.9200439453125 134.2982177734375 199.4180908203125 136.64376831054688 C 203.43658447265625 142.91668701171875 209.06143188476562 147.9992218017578 215.70828247070312 151.36338806152344 C 217.46673583984375 152.2496795654297 219.34890747070312 153.0240936279297 221.32223510742188 153.03958129882812 C 224.63507080078125 153.0675506591797 227.64431762695312 150.91358947753906 229.60882568359375 148.24301147460938 C 232.52813720703125 144.2801971435547 233.5972900390625 139.12205505371094 233.017578125 134.23316955566406 C 232.4378662109375 129.34429931640625 230.30953979492188 124.72000122070312 227.381103515625 120.76310729980469 L 228.125 121.60772705078125" stroke-width="0.6000000238418579" fill="rgb(143, 165, 67)" opacity="1.0"/>
    <path d="M 204.789794921875 90.53839111328125 C 207.33978271484375 101.08474731445312 223.38735961914062 104.58261108398438 230.6568603515625 96.62199401855469 C 237.92636108398438 88.66133117675781 233.6253662109375 73.64286804199219 223.41934204101562 69.95013427734375 C 213.21331787109375 66.25741577148438 200.8106689453125 74.01092529296875 198.87374877929688 84.70048522949219 L 204.789794921875 90.53839111328125" stroke-width="0.6000000238418579" fill="rgb(233, 92, 21)" opacity="1.0"/>
    <path d="M 202.9993896484375 95.4552001953125 C 201.39779663085938 89.99626159667969 198.91845703125 83.64154052734375 193.33917236328125 82.43417358398438 C 191.10015869140625 82.04008483886719 188.79403686523438 82.35049438476562 186.73892211914062 83.32261657714844 C 181.58932495117188 85.591064453125 177.85870361328125 90.21478271484375 176.73001098632812 95.72750854492188 C 175.78457641601562 100.40628051757812 176.87841796875 105.19094848632812 178.04278564453125 109.78999328613281 C 178.70101928710938 112.37239074707031 179.48260498046875 115.09512329101562 181.447509765625 116.87379455566406 C 184.0859375 119.22314453125 188.05230712890625 119.20137023925781 191.54083251953125 118.650634765625 C 196.64727783203125 117.85099792480469 201.5906982421875 116.23011779785156 206.17922973632812 113.85084533691406 C 207.7630615234375 113.02571105957031 209.365234375 112.05601501464844 210.31594848632812 110.54495239257812 C 211.1280517578125 109.09475708007812 211.50064086914062 107.4395751953125 211.3883056640625 105.78125 C 211.2431640625 100.73771667480469 208.89288330078125 96.01170349121094 204.95867919921875 92.85250854492188 L 202.9993896484375 95.4552001953125" stroke-width="0.6000000238418579" fill="rgb(70, 150, 179)" opacity="1.0"/>
    <path d="M 254.521484375 126.69972229003906 C 248.71780395507812 126.42111206054688 242.273193359375 126.35597229003906 237.90753173828125 130.1845245361328 C 233.22027587890625 134.300048828125 232.73724365234375 141.6585235595703 234.87319946289062 147.5189208984375 C 235.69577026367188 149.77880859375 236.912841796875 151.99288940429688 238.86624145507812 153.39527893066406 C 240.47158813476562 154.54873657226562 242.4384765625 155.06370544433594 244.37689208984375 155.448974609375 C 250.4881591796875 156.6712646484375 257.2870178222656 156.73040771484375 262.4403991699219 153.2279052734375 C 267.6318054199219 149.69430541992188 270.1477355957031 142.63485717773438 268.3248291015625 136.61959838867188 C 266.5019226074219 130.6043243408203 260.54083251953125 126.07768249511719 254.25192260742188 125.98806762695312 L 254.521484375 126.69972229003906" stroke-width="0.6000000238418579" fill="rgb(140, 28, 33)" opacity="1.0"/>
    <path d="M 291.27197265625 122.79786682128906 C 285.4719543457031 125.58999633789062 279.4674987792969 128.55931091308594 275.3645324707031 133.52536010742188 C 271.26165771484375 138.49136352539062 269.6056213378906 146.11830139160156 273.2434997558594 151.4330596923828 C 277.7487487792969 157.9835205078125 288.4002685546875 157.67575073242188 294.3166809082031 152.34359741210938 C 300.23309326171875 147.01145935058594 302.16650390625 138.47230529785156 302.0497131347656 130.51844787597656 C 302.26025390625 128.05264282226562 301.538818359375 125.59759521484375 300.0277404785156 123.63775634765625 C 298.3453369140625 121.87789916992188 294.8007507324219 121.82856750488281 293.8465881347656 124.08160400390625 L 291.27197265625 122.79786682128906" stroke-width="0.6000000238418579" fill="rgb(159, 159, 159)" opacity="1.0"/>
    <path d="M 195.55560302734375 134.1417694091797 C 192.3009033203125 128.9505157470703 187.19668579101562 124.76129150390625 181.22076416015625 123.42276000976562 C 175.244873046875 122.08424377441406 168.45571899414062 123.92129516601562 164.544189453125 128.66688537597656 C 161.782958984375 132.02557373046875 160.64645385742188 136.53353881835938 160.8602294921875 140.88009643554688 C 161.073974609375 145.22666931152344 162.5401611328125 149.43246459960938 164.5084228515625 153.3145751953125 C 165.365966796875 155.00347900390625 166.38772583007812 156.71295166015625 168.01199340820312 157.67782592773438 C 169.87368774414062 158.784912109375 172.18157958984375 158.71209716796875 174.34408569335938 158.50289916992188 C 180.44921875 157.9122314453125 186.69635009765625 156.3634033203125 191.435546875 152.46844482421875 C 196.1748046875 148.57347106933594 198.998046875 141.88055419921875 196.97323608398438 136.10606384277344 L 195.55560302734375 134.1417694091797" stroke-width="0.6000000238418579" fill="rgb(159, 159, 159)" opacity="1.0"/>
    <path d="M 277.02618408203125 99.35311889648438 C 271.5716247558594 99.69081115722656 265.52325439453125 100.30247497558594 261.87158203125 104.35397338867188 C 258.3147277832031 108.28909301757812 258.19805908203125 114.15647888183594 258.3765563964844 119.460205078125 C 258.4522705078125 121.61466979980469 258.5657958984375 123.86735534667969 259.65093994140625 125.72872924804688 C 261.48443603515625 128.87796020507812 265.4893493652344 129.97784423828125 269.11968994140625 130.2250213623047 C 272.48919677734375 130.45574951171875 275.8743591308594 130.20144653320312 279.17156982421875 129.4699249267578 C 284.5257873535156 128.2840576171875 290.1290588378906 125.21685791015625 291.523681640625 119.91523742675781 C 292.28076171875 117.05418395996094 291.65399169921875 113.95365905761719 290.3702697753906 111.281982421875 C 289.0865478515625 108.61030578613281 287.1756286621094 106.29486083984375 285.25653076171875 104.03591918945312 C 283.33746337890625 101.7769775390625 281.40338134765625 99.59843444824219 278.7898864746094 98.35678100585938 L 277.02618408203125 99.35311889648438" stroke-width="0.6000000238418579" fill="rgb(218, 166, 20)" opacity="1.0"/>
    <path d="M 225.0899658203125 111.10275268554688 C 225.973388671875 120.36378479003906 234.19711303710938 127.15519714355469 243.45816040039062 126.27177429199219 C 244.25115966796875 126.19613647460938 245.037841796875 126.06431579589844 245.81219482421875 125.87734985351562 C 248.75454711914062 125.16635131835938 251.60113525390625 123.54638671875 253.1561279296875 120.95101928710938 C 254.47039794921875 118.75787353515625 254.74948120117188 116.10589599609375 254.74053955078125 113.55081176757812 C 254.70712280273438 106.71151733398438 252.84307861328125 100.00590515136719 249.34201049804688 94.13053894042969 C 248.4139404296875 92.57907104492188 247.33499145507812 91.05355834960938 245.8123779296875 90.07174682617188 C 243.25714111328125 88.4219970703125 239.864990234375 88.61341857910156 237.0291748046875 89.71890258789062 C 232.81784057617188 91.35720825195312 229.45382690429688 94.83172607421875 227.500732421875 98.90777587890625 C 225.547607421875 102.98377990722656 224.92547607421875 107.61572265625 225.25177001953125 112.12332153320312 L 225.0899658203125 111.10275268554688" stroke-width="0.6000000238418579" fill="rgb(143, 165, 67)" opacity="1.0"/>
    <path d="M 248.3389892578125 86.64187622070312 C 248.7445068359375 98.05148315429688 264.5503234863281 105.04019165039062 273.7224426269531 98.36614990234375 C 282.89453125 91.69206237792969 281.6266174316406 75.30316162109375 271.8838195800781 69.34495544433594 C 262.1410217285156 63.386749267578125 247.720947265625 68.76522827148438 243.47085571289062 79.3765869140625 L 248.3389892578125 86.64187622070312" stroke-width="0.6000000238418579" fill="rgb(233, 92, 21)" opacity="1.0"/>
    <path d="M 338.8241271972656 69.88589477539062 C 336.4590759277344 65.02435302734375 333.1297302246094 59.46240234375 327.710693359375 59.21443176269531 C 325.55029296875 59.199676513671875 323.43853759765625 59.85566711425781 321.6667785644531 61.091949462890625 C 317.2006530761719 64.03286743164062 314.4370422363281 68.9560546875 314.2522888183594 74.30032348632812 C 314.107177734375 78.8341064453125 315.88970947265625 83.14424133300781 317.7088928222656 87.269287109375 C 318.73455810546875 89.58482360839844 319.89801025390625 92.0123291015625 322.0207824707031 93.36788940429688 C 324.8650207519531 95.15151977539062 328.578125 94.50312805175781 331.7597351074219 93.43472290039062 C 336.4179992675781 91.876953125 340.7934265136719 89.57545471191406 344.7162780761719 86.61953735351562 C 346.0697326660156 85.59559631347656 347.41748046875 84.43328857421875 348.0690612792969 82.86688232421875 C 348.60040283203125 81.37942504882812 348.68743896484375 79.76950073242188 348.3196105957031 78.23341369628906 C 347.3851013183594 73.53048706054688 344.4345397949219 69.4742431640625 340.2478942871094 67.13691711425781 L 338.8241271972656 69.88589477539062" stroke-width="0.6000000238418579" fill="rgb(70, 150, 179)" opacity="1.0"/>
    <path d="M 331.495849609375 136.7520751953125 C 331.8668212890625 130.84547424316406 332.0299987792969 124.28289794921875 328.1963806152344 119.77912902832031 C 324.0753173828125 114.94352722167969 316.5882873535156 114.34101867675781 310.5876159667969 116.42831420898438 C 308.273681640625 117.23211669921875 306.00042724609375 118.43838500976562 304.54278564453125 120.40675354003906 C 303.34393310546875 122.0244140625 302.7898864746094 124.01988220214844 302.368408203125 125.98826599121094 C 301.03173828125 132.1939697265625 300.86932373046875 139.11741638183594 304.3590393066406 144.41856384277344 C 307.8798522949219 149.75888061523438 315.03179931640625 152.42730712890625 321.18548583984375 150.66114807128906 C 327.33917236328125 148.89498901367188 332.0389099121094 142.89190673828125 332.22467041015625 136.4882354736328 L 331.495849609375 136.7520751953125" stroke-width="0.6000000238418579" fill="rgb(140, 28, 33)" opacity="1.0"/>
    <path d="M 347.2442321777344 95.31343078613281 C 341.3763427734375 93.6455078125 335.2521057128906 91.974609375 329.2202453613281 92.91514587402344 C 323.1884765625 93.85568237304688 317.21807861328125 98.22148132324219 316.4549255371094 104.27720642089844 C 315.52960205078125 111.75445556640625 323.2746887207031 118.23466491699219 330.8224182128906 118.17501831054688 C 338.37017822265625 118.1153564453125 345.1108703613281 113.27726745605469 350.030029296875 107.5648193359375 C 351.7299499511719 105.94906616210938 352.76239013671875 103.75485229492188 352.923583984375 101.41513061523438 C 352.8375244140625 99.10943603515625 350.3555603027344 96.84536743164062 348.2622375488281 97.8426513671875 L 347.2442321777344 95.31343078613281" stroke-width="0.6000000238418579" fill="rgb(159, 159, 159)" opacity="1.0"/>
    <path d="M 343.38177490234375 117.13690185546875 C 338.4089050292969 119.217041015625 334.0404052734375 123.04627990722656 332.0211486816406 128.04115295410156 C 330.00189208984375 133.03602600097656 330.6222839355469 139.19241333007812 334.1800842285156 143.2684326171875 C 336.6991271972656 146.14703369140625 340.4488830566406 147.78030395507812 344.2522277832031 148.21841430664062 C 348.05560302734375 148.65655517578125 351.91650390625 147.98739624023438 355.5684814453125 146.83602905273438 C 357.1574401855469 146.3340301513672 358.787841796875 145.6924591064453 359.8583984375 144.42108154296875 C 361.08642578125 142.96401977539062 361.3543701171875 140.95037841796875 361.4830627441406 139.0433807373047 C 361.84637451171875 133.6595458984375 361.3984069824219 128.01495361328125 358.69769287109375 123.34257507324219 C 355.9969482421875 118.67018127441406 350.5927734375 115.25933837890625 345.2901306152344 116.18829345703125 L 343.38177490234375 117.13690185546875" stroke-width="0.6000000238418579" fill="rgb(159, 159, 159)" opacity="1.0"/>
    <path d="M 364.2222595214844 89.30337524414062 C 359.18988037109375 89.37672424316406 353.59930419921875 89.67623901367188 350.0638122558594 93.244384765625 C 346.6206359863281 96.7095947265625 346.25799560546875 102.10198974609375 346.19146728515625 106.98870849609375 C 346.1673583984375 108.97392272949219 346.1737976074219 111.05111694335938 347.091064453125 112.81063842773438 C 348.64068603515625 115.78741455078125 352.2770080566406 116.97344970703125 355.6058349609375 117.35879516601562 C 358.6954345703125 117.71763610839844 361.820556640625 117.6309814453125 364.8855285644531 117.10148620605469 C 369.8625183105469 116.24354553222656 375.1504821777344 113.66578674316406 376.6640625 108.84944152832031 C 377.4849853515625 106.25045776367188 377.0433044433594 103.37100219726562 375.9786376953125 100.85743713378906 C 374.9139404296875 98.34388732910156 373.2568054199219 96.1307373046875 371.5897216796875 93.96922302246094 C 369.922607421875 91.80770874023438 368.23822021484375 89.71949768066406 365.8880615234375 88.46359252929688 L 364.2222595214844 89.30337524414062" stroke-width="0.6000000238418579" fill="rgb(218, 166, 20)" opacity="1.0"/>
    <path d="M 428.11944580078125 138.6814422607422 C 419.8516845703125 138.8775177001953 413.3082275390625 145.73883056640625 413.5042724609375 154.00662231445312 C 413.5211181640625 154.714599609375 413.588134765625 155.42047119140625 413.70477294921875 156.11895751953125 C 414.148681640625 158.77301025390625 415.404541015625 161.39984130859375 417.6072998046875 162.94320678710938 C 419.4686279296875 164.2476806640625 421.8023681640625 164.66326904296875 424.068603515625 164.81735229492188 C 430.1351318359375 165.221435546875 436.19915771484375 163.9937744140625 441.630859375 161.261962890625 C 443.0654296875 160.53741455078125 444.4864501953125 159.67742919921875 445.45361328125 158.38958740234375 C 447.0784912109375 156.22845458984375 447.12384033203125 153.2085418701172 446.32342529296875 150.6239013671875 C 445.1378173828125 146.78582763671875 442.270263671875 143.58262634277344 438.7799072265625 141.59234619140625 C 435.28955078125 139.60206604003906 431.2218017578125 138.75669860839844 427.2042236328125 138.76019287109375 L 428.11944580078125 138.6814422607422" stroke-width="0.6000000238418579" fill="rgb(143, 165, 67)" opacity="1.0"/>
    <path d="M 149.71315002441406 406.7424621582031 C 156.86431884765625 414.7412109375 172.48358154296875 410.2892761230469 175.09796142578125 399.95452880859375 C 177.7122802734375 389.61981201171875 166.94512939453125 378.54229736328125 156.32537841796875 380.0942687988281 C 145.70558166503906 381.6462707519531 138.5211944580078 394.1995544433594 141.82923889160156 404.4200744628906 L 149.71315002441406 406.7424621582031" stroke-width="0.6000000238418579" fill="rgb(233, 92, 21)" opacity="1.0"/>
    <path d="M 428.7818603515625 200.81686401367188 C 424.35498046875 197.95388793945312 418.77001953125 194.99310302734375 414.1231689453125 197.52099609375 C 412.3131103515625 198.59893798828125 410.882080078125 200.2120361328125 410.0276184082031 202.13775634765625 C 407.78521728515625 206.84552001953125 407.9637451171875 212.34817504882812 410.5066223144531 216.90069580078125 C 412.673583984375 220.75698852539062 416.3360595703125 223.453857421875 419.935791015625 225.97775268554688 C 421.96014404296875 227.39227294921875 424.156005859375 228.83062744140625 426.611328125 228.89044189453125 C 429.884765625 228.943359375 432.65576171875 226.52847290039062 434.7713623046875 224.0313720703125 C 437.87213134765625 220.38067626953125 440.361572265625 216.252197265625 442.14306640625 211.8060302734375 C 442.75567626953125 210.26861572265625 443.293701171875 208.61865234375 443.046875 206.9827880859375 C 442.73956298828125 205.4735107421875 441.999755859375 204.08624267578125 440.9176025390625 202.9901123046875 C 437.76446533203125 199.53756713867188 433.2554931640625 197.64202880859375 428.58251953125 197.8045654296875 L 428.7818603515625 200.81686401367188" stroke-width="0.6000000238418579" fill="rgb(70, 150, 179)" opacity="1.0"/>
    <path d="M 413.841796875 161.5040283203125 C 413.48529052734375 155.85061645507812 412.852783203125 149.59922790527344 408.67193603515625 145.782470703125 C 404.1783142089844 141.68511962890625 396.9963684082031 142.0113983154297 391.5486145019531 144.7135467529297 C 389.44775390625 145.75450134277344 387.433837890625 147.17276000976562 386.2858581542969 149.21681213378906 C 385.341552734375 150.89678955078125 385.05487060546875 152.85816955566406 384.8908386230469 154.77792358398438 C 384.3661804199219 160.83123779296875 385.0427551269531 167.42523193359375 388.9927062988281 172.0404052734375 C 392.97686767578125 176.6890869140625 400.08856201171875 178.36480712890625 405.7201232910156 175.94921875 C 411.3517150878906 173.53369140625 415.09423828125 167.26922607421875 414.502197265625 161.166015625 L 413.841796875 161.5040283203125" stroke-width="0.6000000238418579" fill="rgb(140, 28, 33)" opacity="1.0"/>
    <path d="M 151.7607421875 131.6457061767578 C 145.6182098388672 133.04225158691406 139.241943359375 134.56314086914062 134.24337768554688 138.40408325195312 C 129.24490356445312 142.2449951171875 125.99928283691406 149.1586456298828 128.30859375 155.0230255126953 C 131.17535400390625 162.255615234375 141.4031219482422 164.28863525390625 148.2115020751953 160.49456787109375 C 155.01986694335938 156.70050048828125 158.72933959960938 148.977294921875 160.35528564453125 141.36456298828125 C 161.0947265625 139.0583953857422 160.94281005859375 136.5589599609375 159.929443359375 134.35939025878906 C 158.70901489257812 132.3131561279297 155.3385772705078 131.4918670654297 153.936279296875 133.43263244628906 L 151.7607421875 131.6457061767578" stroke-width="0.6000000238418579" fill="rgb(159, 159, 159)" opacity="1.0"/>
    <path d="M 437.84259033203125 166.15325927734375 C 432.5224609375 164.04730224609375 426.364990234375 163.71826171875 421.128173828125 166.0162353515625 C 415.8914794921875 168.31423950195312 411.79913330078125 173.451416015625 411.48065185546875 179.18551635742188 C 411.2606201171875 183.2398681640625 412.89874267578125 187.2603759765625 415.46356201171875 190.41262817382812 C 418.0284423828125 193.56488037109375 421.457763671875 195.91851806640625 425.0858154296875 197.75094604492188 C 426.6651611328125 198.54742431640625 428.37939453125 199.26861572265625 430.13525390625 199.09625244140625 C 432.1483154296875 198.89959716796875 433.8446044921875 197.568359375 435.35601806640625 196.21490478515625 C 439.62298583984375 192.39385986328125 443.4669189453125 187.77334594726562 444.878662109375 182.22149658203125 C 446.29034423828125 176.66964721679688 444.71295166015625 170.07220458984375 439.99566650390625 166.84719848632812 L 437.84259033203125 166.15325927734375" stroke-width="0.6000000238418579" fill="rgb(159, 159, 159)" opacity="1.0"/>
    <path d="M 412.54742431640625 194.65570068359375 C 411.9907531738281 189.33517456054688 411.1415100097656 183.44525146484375 407.0275573730469 180.04205322265625 C 403.0314025878906 176.726806640625 397.2882385253906 176.85623168945312 392.1086120605469 177.2509765625 C 390.00469970703125 177.4144287109375 387.8062744140625 177.61895751953125 386.0309143066406 178.75750732421875 C 383.02703857421875 180.68133544921875 382.11761474609375 184.643798828125 382.02655029296875 188.20452880859375 C 381.94073486328125 191.50949096679688 382.3299560546875 194.80963134765625 383.1822509765625 198.00393676757812 C 384.56427001953125 203.19110107421875 387.7965393066406 208.5438232421875 393.0394287109375 209.68771362304688 C 395.86895751953125 210.30938720703125 398.875244140625 209.56768798828125 401.43487548828125 208.20132446289062 C 403.9944763183594 206.8349609375 406.1796569824219 204.8699951171875 408.30926513671875 202.89935302734375 C 410.4388427734375 200.9287109375 412.4891357421875 198.94677734375 413.59503173828125 196.3392333984375 L 412.54742431640625 194.65570068359375" stroke-width="0.6000000238418579" fill="rgb(218, 166, 20)" opacity="1.0"/>
    <path d="M 442.89385986328125 194.12078857421875 C 440.0635986328125 202.62451171875 444.66290283203125 211.81243896484375 453.1666259765625 214.64266967773438 C 453.894775390625 214.88504028320312 454.63916015625 215.07540893554688 455.394287109375 215.21240234375 C 458.263671875 215.73248291015625 461.4029541015625 215.41436767578125 463.78424072265625 213.73361206054688 C 465.7967529296875 212.31344604492188 467.075927734375 210.08566284179688 468.06365966796875 207.83099365234375 C 470.69921875 201.79220581054688 471.669677734375 195.15789794921875 470.8743896484375 188.6171875 C 470.6612548828125 186.88864135742188 470.3050537109375 185.12417602539062 469.3460693359375 183.66586303710938 C 467.7376708984375 181.2166748046875 464.6744384765625 180.0635986328125 461.7451171875 179.9326171875 C 457.3963623046875 179.735107421875 453.07861328125 181.48553466796875 449.7696533203125 184.31573486328125 C 446.46063232421875 187.1458740234375 444.107666015625 190.98443603515625 442.63873291015625 195.0830078125 L 442.89385986328125 194.12078857421875" stroke-width="0.6000000238418579" fill="rgb(143, 165, 67)" opacity="1.0"/>
    <path d="M 142.41030883789062 95.38421630859375 C 131.67086791992188 103.97508239746094 136.27200317382812 124.27822875976562 149.3154754638672 128.3499755859375 C 162.35894775390625 132.4216766357422 177.292724609375 119.41900634765625 176.05209350585938 105.7181396484375 C 174.81146240234375 92.01727294921875 159.24942016601562 81.94076538085938 145.93624877929688 85.45693969726562 L 142.41030883789062 95.38421630859375" stroke-width="0.6000000238418579" fill="rgb(233, 92, 21)" opacity="1.0"/>
    <path d="M 452.552001953125 154.06956481933594 C 447.08551025390625 156.21844482421875 440.7784423828125 159.35226440429688 440.0498046875 165.20077514648438 C 439.850341796875 167.53952026367188 440.381591796875 169.88253784179688 441.5701904296875 171.90655517578125 C 444.3763427734375 176.99365234375 449.47418212890625 180.40509033203125 455.24700927734375 181.0589599609375 C 460.1453857421875 181.60110473632812 464.9652099609375 180.036376953125 469.587646484375 178.41619873046875 C 472.1827392578125 177.50189208984375 474.910888671875 176.44781494140625 476.559326171875 174.26373291015625 C 478.7327880859375 171.33447265625 478.34576416015625 167.25762939453125 477.458740234375 163.72079467773438 C 476.1669921875 158.54296875 474.045654296875 153.60841369628906 471.1771240234375 149.1084442138672 C 470.1829833984375 147.5555419921875 469.0384521484375 145.99705505371094 467.39715576171875 145.15830993652344 C 465.8311767578125 144.4564971923828 464.09478759765625 144.22549438476562 462.3997802734375 144.4934844970703 C 457.2265625 145.1063690185547 452.58251953125 147.95777893066406 449.6954345703125 152.29400634765625 L 452.552001953125 154.06956481933594" stroke-width="0.6000000238418579" fill="rgb(70, 150, 179)" opacity="1.0"/>
    <path d="M 379.09259033203125 79.96566772460938 C 381.60382080078125 74.082275390625 384.1402893066406 67.45556640625 381.8614196777344 61.482696533203125 C 379.4095458984375 55.0679931640625 371.99969482421875 51.75006103515625 365.13262939453125 51.709228515625 C 362.4849548339844 51.692352294921875 359.7333984375 52.1002197265625 357.5375061035156 53.57904052734375 C 355.7319030761719 54.794036865234375 354.44677734375 56.6268310546875 353.3064270019531 58.47990417480469 C 349.703369140625 64.31922912597656 347.0373229980469 71.31387329101562 348.6778869628906 77.974853515625 C 350.3359375 84.68695068359375 356.65826416015625 89.988525390625 363.56524658203125 90.41178894042969 C 370.47222900390625 90.83505249023438 377.4283142089844 86.41680908203125 379.9303894042969 79.96012878417969 L 379.09259033203125 79.96566772460938" stroke-width="0.6000000238418579" fill="rgb(140, 28, 33)" opacity="1.0"/>
    <path d="M 130.57826232910156 407.6876220703125 C 126.5096435546875 414.2000732421875 122.34780883789062 421.02154541015625 121.3760986328125 428.64434814453125 C 120.4044189453125 436.26702880859375 123.59616088867188 445.01318359375 130.65213012695312 448.0533447265625 C 139.370361328125 451.7867431640625 149.91452026367188 444.6868896484375 152.4814453125 435.53900146484375 C 155.04837036132812 426.39111328125 151.55487060546875 416.54840087890625 146.36715698242188 408.6026306152344 C 145.0076904296875 405.9820556640625 142.71536254882812 403.9664001464844 139.9424285888672 402.9533996582031 C 137.1242218017578 402.2512512207031 133.5186309814453 404.4609069824219 133.9926300048828 407.3409423828125 L 130.57826232910156 407.6876220703125" stroke-width="0.6000000238418579" fill="rgb(159, 159, 159)" opacity="1.0"/>
    <path d="M 415.34381103515625 222.96142578125 C 411.7391662597656 217.30438232421875 406.1177978515625 212.7591552734375 399.5649719238281 211.3416748046875 C 393.01214599609375 209.9241943359375 385.5944519042969 211.98968505859375 381.350341796875 217.2161865234375 C 378.3544006347656 220.91522216796875 377.14630126953125 225.85943603515625 377.4151611328125 230.6160888671875 C 377.6839599609375 235.37277221679688 379.32275390625 239.96530151367188 381.50860595703125 244.199462890625 C 382.4609069824219 246.04150390625 383.5931701660156 247.90478515625 385.3790588378906 248.94805908203125 C 387.4259948730469 250.14511108398438 389.9519958496094 250.04693603515625 392.31768798828125 249.80059814453125 C 398.99652099609375 249.10504150390625 405.8231506347656 247.35943603515625 410.9801940917969 243.0574951171875 C 416.13726806640625 238.75552368164062 419.1744384765625 231.4058837890625 416.9114990234375 225.10049438476562 L 415.34381103515625 222.96142578125" stroke-width="0.6000000238418579" fill="rgb(159, 159, 159)" opacity="1.0"/>
    <path d="M 383.53460693359375 111.28602600097656 C 377.20849609375 111.46598815917969 370.1845397949219 111.9400634765625 365.80145263671875 116.48806762695312 C 361.53265380859375 120.90499877929688 361.1707458496094 127.69134521484375 361.17230224609375 133.83673095703125 C 361.1766357421875 136.33322143554688 361.220947265625 138.94485473632812 362.4049072265625 141.14114379882812 C 364.40521240234375 144.85691833496094 368.9979248046875 146.28475952148438 373.19012451171875 146.71119689941406 C 377.0810241699219 147.1085205078125 381.0088195800781 146.945068359375 384.853271484375 146.22589111328125 C 391.09600830078125 145.06039428710938 397.6997985839844 141.72708129882812 399.5188903808594 135.64495849609375 C 400.5057373046875 132.3628692626953 399.9001770019531 128.7501220703125 398.5177307128906 125.60830688476562 C 397.13525390625 122.46650695800781 395.0130920410156 119.71275329589844 392.8793029785156 117.02407836914062 C 390.7455139160156 114.33538818359375 388.59124755859375 111.73919677734375 385.6144104003906 110.20108032226562 L 383.53460693359375 111.28602600097656" stroke-width="0.6000000238418579" fill="rgb(218, 166, 20)" opacity="1.0"/>
    <path d="M 402.3262939453125 83.28131103515625 C 395.0105285644531 76.1680908203125 383.31353759765625 76.332275390625 376.2003173828125 83.64804077148438 C 375.5911865234375 84.27447509765625 375.0273132324219 84.943359375 374.5128479003906 85.64961242675781 C 372.55853271484375 88.33358764648438 371.32977294921875 91.70932006835938 371.8733825683594 94.98297119140625 C 372.3324890136719 97.74951171875 373.9826965332031 100.16429138183594 375.80487060546875 102.29354858398438 C 380.690185546875 107.98629760742188 387.01068115234375 112.26715087890625 394.1097717285156 114.69142150878906 C 395.9873352050781 115.32907104492188 397.9726257324219 115.83782958984375 399.94256591796875 115.57705688476562 C 403.25 115.14118957519531 405.94927978515625 112.57203674316406 407.534423828125 109.63397216796875 C 409.89080810546875 105.27365112304688 410.23486328125 99.98036193847656 408.9724426269531 95.18637084960938 C 407.71002197265625 90.39239501953125 404.9403381347656 86.07902526855469 401.4662170410156 82.54318237304688 L 402.3262939453125 83.28131103515625" stroke-width="0.6000000238418579" fill="rgb(143, 165, 67)" opacity="1.0"/>
    <path d="M 116.07292175292969 428.6839599609375 C 111.63575744628906 417.3804931640625 93.30990600585938 415.952392578125 86.46554565429688 425.8880615234375 C 79.62124633789062 435.82373046875 86.68246459960938 451.8179931640625 98.56156921386719 454.35400390625 C 110.440673828125 456.8900146484375 123.00772094726562 446.40032958984375 123.52325439453125 434.253173828125 L 116.07292175292969 428.6839599609375" stroke-width="0.6000000238418579" fill="rgb(233, 92, 21)" opacity="1.0"/>
    <path d="M 453.2764892578125 217.92489624023438 C 447.0126953125 217.45745849609375 439.4820556640625 217.54873657226562 436.0650634765625 222.8447265625 C 434.78729248046875 225.00518798828125 434.21142578125 227.50897216796875 434.41693115234375 230.0106201171875 C 434.75885009765625 236.21401977539062 438.0863037109375 241.86688232421875 443.3441162109375 245.17660522460938 C 447.8114013671875 247.97274780273438 453.1810302734375 248.70269775390625 458.38623046875 249.28765869140625 C 461.3106689453125 249.61151123046875 464.42816162109375 249.86248779296875 467.0301513671875 248.52362060546875 C 470.4837646484375 246.7105712890625 472.00335693359375 242.60345458984375 472.7906494140625 238.78439331054688 C 473.94976806640625 233.19662475585938 474.19683837890625 227.45809936523438 473.522216796875 221.7913818359375 C 473.285400390625 219.8338623046875 472.90631103515625 217.80120849609375 471.7144775390625 216.23126220703125 C 470.5316162109375 214.8282470703125 468.966064453125 213.7996826171875 467.208740234375 213.27099609375 C 461.9405517578125 211.4599609375 456.14306640625 212.05117797851562 451.3487548828125 214.8883056640625 L 453.2764892578125 217.92489624023438" stroke-width="0.6000000238418579" fill="rgb(70, 150, 179)" opacity="1.0"/>
    <path d="M 431.2947998046875 133.70794677734375 C 433.017822265625 127.43556213378906 434.664306640625 120.4107666015625 431.5487060546875 114.70542907714844 C 428.1982421875 108.57864379882812 420.2772216796875 106.25225830078125 413.3526611328125 107.15325927734375 C 410.68267822265625 107.49951171875 407.9662780761719 108.2879638671875 405.9566955566406 110.0792236328125 C 404.3041076660156 111.55111694335938 403.2607421875 113.5740966796875 402.36602783203125 115.59761047363281 C 399.5368347167969 121.97538757324219 397.810302734375 129.38865661621094 400.37713623046875 135.87489318847656 C 402.9685974121094 142.4102325439453 410.0660400390625 146.88446044921875 417.08331298828125 146.36329650878906 C 424.1005859375 145.84214782714844 430.5030517578125 140.4361572265625 432.13818359375 133.58741760253906 L 431.2947998046875 133.70794677734375" stroke-width="0.6000000238418579" fill="rgb(140, 28, 33)" opacity="1.0"/>
    <path d="M 383.0937805175781 56.785888671875 C 384.3055419921875 63.772247314453125 385.64349365234375 71.02857971191406 389.66973876953125 76.87147521972656 C 393.69598388671875 82.71427917480469 401.27850341796875 86.76580810546875 408.0054016113281 84.51174926757812 C 416.3028564453125 81.71083068847656 419.1844482421875 70.33213806152344 415.31640625 62.45751953125 C 411.4483642578125 54.582916259765625 402.9827880859375 49.9627685546875 394.51995849609375 47.691192626953125 C 391.970703125 46.72554016113281 389.15216064453125 46.7506103515625 386.6205139160156 47.761474609375 C 384.2491455078125 49.014129638671875 383.1294250488281 52.7550048828125 385.2293395996094 54.44450378417969 L 383.0937805175781 56.785888671875" stroke-width="0.6000000238418579" fill="rgb(159, 159, 159)" opacity="1.0"/>
    <path d="M 435.2337646484375 246.00787353515625 C 429.2734375 249.35772705078125 424.33099365234375 254.82269287109375 422.51922607421875 261.4117736816406 C 420.70751953125 268.0008544921875 422.3917236328125 275.6663513183594 427.4718017578125 280.28009033203125 C 431.067626953125 283.5375061035156 436.0313720703125 285.0455322265625 440.887451171875 285.0398864746094 C 445.7435302734375 285.0342712402344 450.509765625 283.6251525878906 454.942138671875 281.63909912109375 C 456.8704833984375 280.773681640625 458.83056640625 279.726318359375 459.992919921875 277.967529296875 C 461.32647705078125 275.9517517089844 461.368896484375 273.3754577636719 461.25140380859375 270.9539794921875 C 460.9197998046875 264.11761474609375 459.52783203125 257.0716857910156 455.440185546875 251.58090209960938 C 451.35247802734375 246.09011840820312 444.043701171875 242.58511352539062 437.4990234375 244.53292846679688 L 435.2337646484375 246.00787353515625" stroke-width="0.6000000238418579" fill="rgb(159, 159, 159)" opacity="1.0"/>
    <path d="M 415.916748046875 261.663330078125 C 411.6107177734375 256.1468811035156 406.5854187011719 250.20166015625 399.6623229980469 249.2783203125 C 392.9308776855469 248.370849609375 386.6494140625 252.49588012695312 381.1770324707031 256.5245666503906 C 378.95635986328125 258.1644287109375 376.6593322753906 259.9154052734375 375.4791259765625 262.4092102050781 C 373.4804992675781 266.6258850097656 375.21856689453125 271.652099609375 377.5860595703125 275.66534423828125 C 379.7820129394531 279.39117431640625 382.5016174316406 282.7823791503906 385.66156005859375 285.7351379394531 C 390.79071044921875 290.5314636230469 398.08721923828125 294.2287292480469 404.6964111328125 291.8630676269531 C 408.266357421875 290.59112548828125 411.08721923828125 287.6842346191406 412.9794921875 284.39398193359375 C 414.87176513671875 281.103759765625 415.9337158203125 277.4090270996094 416.9300537109375 273.7465515136719 C 417.9263916015625 270.0841064453125 418.826904296875 266.4640197753906 418.2459716796875 262.8047180175781 L 415.916748046875 261.663330078125" stroke-width="0.6000000238418579" fill="rgb(218, 166, 20)" opacity="1.0"/>
    <path d="M 410.27496337890625 86.26602172851562 C 406.76654052734375 95.97840881347656 411.7958679199219 106.69598388671875 421.50823974609375 110.20440673828125 C 422.33990478515625 110.50483703613281 423.19189453125 110.74588012695312 424.0576171875 110.92575073242188 C 427.34759521484375 111.60858154296875 430.97283935546875 111.33389282226562 433.764892578125 109.46743774414062 C 436.12451171875 107.890380859375 437.66302490234375 105.36166381835938 438.8665771484375 102.79347229003906 C 442.0787353515625 95.91461181640625 443.390380859375 88.3011474609375 442.6654052734375 80.74395751953125 C 442.4703369140625 78.74668884277344 442.111572265625 76.703857421875 441.04962158203125 74.99606323242188 C 439.2684326171875 72.12799072265625 435.773681640625 70.7103271484375 432.4034423828125 70.473876953125 C 427.4000244140625 70.11935424804688 422.37548828125 72.00949096679688 418.4813232421875 75.17279052734375 C 414.58709716796875 78.33609008789062 411.7646789550781 82.6888427734375 409.9530029296875 87.36691284179688 L 410.27496337890625 86.26602172851562" stroke-width="0.6000000238418579" fill="rgb(143, 165, 67)" opacity="1.0"/>
    <path d="M 433.9974365234375 122.54281616210938 C 429.4722900390625 135.1077423095703 443.592529296875 149.57485961914062 456.45611572265625 146.3199920654297 C 469.3197021484375 143.06509399414062 475.0755615234375 124.71836853027344 467.0899658203125 114.00886535644531 C 459.10443115234375 103.29937744140625 441.1064453125 102.86354064941406 431.87359619140625 112.53558349609375 L 433.9974365234375 122.54281616210938" stroke-width="0.6000000238418579" fill="rgb(233, 92, 21)" opacity="1.0"/>
    <path d="M 448.556884765625 91.15396118164062 C 448.69354248046875 97.30387878417969 449.49468994140625 104.63592529296875 454.98016357421875 107.4658203125 C 457.20697021484375 108.50703430175781 459.7020263671875 108.83161926269531 462.12109375 108.39471435546875 C 468.1356201171875 107.47479248046875 473.3311767578125 103.69671630859375 476.0601806640625 98.25857543945312 C 478.36328125 93.63961791992188 478.5670166015625 88.33648681640625 478.64501953125 83.20733642578125 C 478.68408203125 80.32601928710938 478.6339111328125 77.26348876953125 477.082763671875 74.85379028320312 C 474.9888916015625 71.6588134765625 470.8416748046875 70.56590270996094 467.0445556640625 70.15966796875 C 461.48822021484375 69.55819702148438 455.87109375 69.86003112792969 450.41119384765625 71.053466796875 C 448.5255126953125 71.46945190429688 446.5799560546875 72.03121948242188 445.162353515625 73.3414306640625 C 443.9066162109375 74.62710571289062 443.052001953125 76.25039672851562 442.702880859375 78.01336669921875 C 441.435791015625 83.3199462890625 442.560302734375 88.91523742675781 445.7791748046875 93.32020568847656 L 448.556884765625 91.15396118164062" stroke-width="0.6000000238418579" fill="rgb(70, 150, 179)" opacity="1.0"/>
    <path d="M 312.5211486816406 365.8545837402344 C 306.7771911621094 363.4198303222656 300.3082275390625 360.9622802734375 294.48870849609375 363.1993408203125 C 288.23870849609375 365.606201171875 285.02093505859375 372.8407897949219 284.99786376953125 379.5380859375 C 284.98785400390625 382.1202697753906 285.3923645019531 384.8027648925781 286.8399353027344 386.9407043457031 C 288.0292663574219 388.69866943359375 289.8198547363281 389.9475402832031 291.6298522949219 391.0551452636719 C 297.33349609375 394.5548400878906 304.1615905761719 397.1378479003906 310.65374755859375 395.52166748046875 C 317.19573974609375 393.88824462890625 322.3507385253906 387.70941162109375 322.7466735839844 380.9722900390625 C 323.14263916015625 374.2351379394531 318.81671142578125 367.4619445800781 312.5137023925781 365.03753662109375 L 312.5211486816406 365.8545837402344" stroke-width="0.6000000238418579" fill="rgb(140, 28, 33)" opacity="1.0"/>
    <path d="M 296.3105163574219 393.7486267089844 C 288.5459899902344 390.8941955566406 280.43511962890625 388.00958251953125 272.1826171875 388.6656799316406 C 263.93023681640625 389.32177734375 255.41116333007812 394.61590576171875 253.76104736328125 402.7267761230469 C 251.7464599609375 412.74334716796875 261.55816650390625 422.2967529296875 271.7705993652344 422.986572265625 C 281.9830322265625 423.6763916015625 291.5919494628906 417.822265625 298.82696533203125 410.59979248046875 C 301.29058837890625 408.58843994140625 302.9106750488281 405.7267150878906 303.3674621582031 402.5793151855469 C 303.48651123046875 399.45269775390625 300.36138916015625 396.1377868652344 297.4289245605469 397.27264404296875 L 296.3105163574219 393.7486267089844" stroke-width="0.6000000238418579" fill="rgb(159, 159, 159)" opacity="1.0"/>
    <path d="M 323.5367736816406 415.1492919921875 C 318.6188659667969 419.69921875 315.1527404785156 426.0333251953125 314.92645263671875 432.725830078125 C 314.7001647949219 439.4183349609375 318.0509338378906 446.3406982421875 323.9433288574219 449.5811767578125 C 328.1122131347656 451.866943359375 333.1864929199219 452.17388916015625 337.8134765625 451.062744140625 C 342.44049072265625 449.9515380859375 346.6622314453125 447.52313232421875 350.43438720703125 444.6209716796875 C 352.0751953125 443.35699462890625 353.7048034667969 441.9124755859375 354.4121398925781 439.97149658203125 C 355.22412109375 437.74658203125 354.6778564453125 435.281494140625 354.0144958496094 433.0003662109375 C 352.14166259765625 426.56024169921875 349.21051025390625 420.161865234375 344.06427001953125 415.8594970703125 C 338.9179992675781 411.55712890625 331.1539001464844 409.8808898925781 325.3598937988281 413.2276611328125 L 323.5367736816406 415.1492919921875" stroke-width="0.6000000238418579" fill="rgb(159, 159, 159)" opacity="1.0"/>
    <path d="M 257.5574645996094 413.51763916015625 C 250.5743408203125 413.596435546875 242.81564331054688 413.98663330078125 237.89361572265625 418.92156982421875 C 233.10018920898438 423.714111328125 232.57244873046875 431.19482421875 232.4578857421875 437.97515869140625 C 232.4154052734375 440.72967529296875 232.41485595703125 443.6119384765625 233.67962646484375 446.0576171875 C 235.8162841796875 450.1951904296875 240.85650634765625 451.857421875 245.4737548828125 452.40728759765625 C 249.7591552734375 452.9193115234375 254.09588623046875 452.81329345703125 258.3511657714844 452.092529296875 C 265.260986328125 450.92474365234375 272.61016845703125 447.37200927734375 274.7322998046875 440.6959228515625 C 275.88323974609375 437.0933837890625 275.2834777832031 433.09588623046875 273.817626953125 429.603271484375 C 272.3517761230469 426.1107177734375 270.0624694824219 423.0322265625 267.75909423828125 420.025390625 C 265.4557189941406 417.0185546875 263.12799072265625 414.11328125 259.8727111816406 412.3599853515625 L 257.5574645996094 413.51763916015625" stroke-width="0.6000000238418579" fill="rgb(218, 166, 20)" opacity="1.0"/>
    <path d="M 221.50411987304688 412.130615234375 C 211.43194580078125 405.4405822753906 197.84347534179688 408.1822814941406 191.15338134765625 418.25445556640625 C 190.58050537109375 419.116943359375 190.069580078125 420.01898193359375 189.62432861328125 420.9537353515625 C 187.9332275390625 424.506103515625 187.23809814453125 428.7059326171875 188.58505249023438 432.4005126953125 C 189.7230224609375 435.52276611328125 192.17169189453125 437.9755859375 194.75836181640625 440.058349609375 C 201.68988037109375 445.6239013671875 209.9852294921875 449.23193359375 218.7825927734375 450.5076904296875 C 221.10858154296875 450.84100341796875 223.53192138671875 451.000732421875 225.76959228515625 450.2674560546875 C 229.52691650390625 449.03857421875 232.11077880859375 445.45751953125 233.31643676757812 441.68975830078125 C 235.1103515625 436.09716796875 234.35693359375 429.856689453125 231.8411865234375 424.548095703125 C 229.325439453125 419.239501953125 225.158935546875 414.8193359375 220.34140014648438 411.45843505859375 L 221.50411987304688 412.130615234375" stroke-width="0.6000000238418579" fill="rgb(143, 165, 67)" opacity="1.0"/>
    <path d="M 260.10430908203125 361.4258728027344 C 266.41455078125 373.4655456542969 286.9810485839844 372.82952880859375 293.3910217285156 360.9419860839844 C 299.8009033203125 349.05438232421875 290.0010070800781 332.11334228515625 276.47393798828125 330.7337341308594 C 262.9468688964844 329.3540954589844 250.2359619140625 342.5530700683594 251.13726806640625 356.133056640625 L 260.10430908203125 361.4258728027344" stroke-width="0.6000000238418579" fill="rgb(233, 92, 21)" opacity="1.0"/>
    <path d="M 328.0683898925781 347.36798095703125 C 323.11639404296875 351.9660339355469 317.6780090332031 357.9721374511719 319.3545837402344 364.5421447753906 C 320.1235656738281 367.13079833984375 321.67681884765625 369.4170227050781 323.8002014160156 371.08544921875 C 328.94287109375 375.35491943359375 335.8359069824219 376.866943359375 342.29345703125 375.1419982910156 C 347.76751708984375 373.6647644042969 352.2722473144531 369.9640197753906 356.5423278808594 366.2868347167969 C 358.9376525878906 364.21734619140625 361.41668701171875 361.9422912597656 362.2646484375 358.9104919433594 C 363.36181640625 354.860107421875 361.23455810546875 350.65631103515625 358.7986145019531 347.240966796875 C 355.2398681640625 342.23809814453125 350.8948059082031 337.84423828125 345.9319763183594 334.2298278808594 C 344.21484375 332.9842834472656 342.3343200683594 331.7959289550781 340.2240905761719 331.587158203125 C 338.2520446777344 331.493408203125 336.2952880859375 331.9754638671875 334.59246826171875 332.974609375 C 329.3092956542969 335.80438232421875 325.5334167480469 340.809326171875 324.2629699707031 346.66644287109375 L 328.0683898925781 347.36798095703125" stroke-width="0.6000000238418579" fill="rgb(70, 150, 179)" opacity="1.0"/>
    <path d="M 296.5448303222656 417.31292724609375 C 289.4068908691406 418.1651611328125 281.5307922363281 419.409423828125 276.99090576171875 424.9771728515625 C 272.1176452636719 430.961181640625 273.0398254394531 440.03802490234375 276.84954833984375 446.749267578125 C 278.31732177734375 449.33740234375 280.25701904296875 451.7886962890625 282.9283142089844 453.09844970703125 C 285.12384033203125 454.17596435546875 287.62933349609375 454.40020751953125 290.0733947753906 454.4720458984375 C 297.7804870605469 454.7080078125 306.0875549316406 453.3836669921875 311.65545654296875 448.0518798828125 C 317.26336669921875 442.67431640625 318.8828125 433.544677734375 315.4231872558594 426.58026123046875 C 311.96356201171875 419.6158447265625 303.7609558105469 415.31756591796875 296.0697937011719 416.50006103515625 L 296.5448303222656 417.31292724609375" stroke-width="0.6000000238418579" fill="rgb(140, 28, 33)" opacity="1.0"/>
    <path d="M 325.07879638671875 378.3307800292969 C 317.7818298339844 381.9644775390625 310.2289733886719 385.82598876953125 305.1176452636719 392.1836853027344 C 300.0064697265625 398.54132080078125 298.0386047363281 408.2269287109375 302.73504638671875 414.8951416015625 C 308.5506591796875 423.1134033203125 322.03289794921875 422.5433349609375 329.43426513671875 415.69140625 C 336.83563232421875 408.8394470214844 339.1392517089844 397.99407958984375 338.85675048828125 387.92449951171875 C 339.08160400390625 384.7986145019531 338.1265563964844 381.7021484375 336.17999267578125 379.24609375 C 334.01983642578125 377.046142578125 329.53070068359375 377.0436706542969 328.3606262207031 379.9127197265625 L 325.07879638671875 378.3307800292969" stroke-width="0.6000000238418579" fill="rgb(159, 159, 159)" opacity="1.0"/>
    <path d="M 367.3066101074219 411.8088684082031 C 361.225341796875 415.49365234375 356.27410888671875 421.34228515625 354.6152648925781 428.2528076171875 C 352.9564208984375 435.16326904296875 354.9679870605469 443.0736083984375 360.4053649902344 447.6962890625 C 364.2538146972656 450.95965576171875 369.46453857421875 452.358154296875 374.5118713378906 452.18701171875 C 379.5592041015625 452.01580810546875 384.4653625488281 450.388916015625 389.0047912597656 448.17364501953125 C 390.97967529296875 447.20849609375 392.9813537597656 446.0531005859375 394.1296691894531 444.1854248046875 C 395.44720458984375 442.0447998046875 395.4035339355469 439.365478515625 395.19903564453125 436.8525390625 C 394.6216125488281 429.758056640625 392.9349060058594 422.481689453125 388.4991760253906 416.9136962890625 C 384.0634460449219 411.3456115722656 376.34722900390625 407.9512634277344 369.6109619140625 410.1986389160156 L 367.3066101074219 411.8088684082031" stroke-width="0.6000000238418579" fill="rgb(159, 159, 159)" opacity="1.0"/>
    <path d="M 248.62823486328125 365.61834716796875 C 249.82443237304688 358.5317687988281 250.84707641601562 350.6029052734375 246.74862670898438 344.71636962890625 C 242.77093505859375 338.9860534667969 235.29132080078125 337.08465576171875 228.4454345703125 335.7296142578125 C 225.66357421875 335.1832580566406 222.74462890625 334.6560363769531 220.0367431640625 335.489990234375 C 215.45599365234375 336.8978271484375 212.85150146484375 341.69854736328125 211.450927734375 346.2742004394531 C 210.1492919921875 350.5206604003906 209.4642333984375 354.9320373535156 209.41656494140625 359.3732604980469 C 209.33657836914062 366.5845642089844 211.5916748046875 374.6766357421875 217.96511840820312 378.0457763671875 C 221.40325927734375 379.86968994140625 225.56130981445312 379.99273681640625 229.36627197265625 379.14642333984375 C 233.1712646484375 378.3000793457031 236.707275390625 376.54412841796875 240.17333984375 374.7608337402344 C 243.63946533203125 372.9775390625 247.00701904296875 371.1510314941406 249.37762451171875 368.1746520996094 L 248.62823486328125 365.61834716796875" stroke-width="0.6000000238418579" fill="rgb(218, 166, 20)" opacity="1.0"/>
    <path d="M 251.8419189453125 391.0107116699219 C 248.07122802734375 379.60015869140625 235.764404296875 373.4068298339844 224.35385131835938 377.1775207519531 C 223.37677001953125 377.5003967285156 222.423828125 377.8922119140625 221.50213623046875 378.3499450683594 C 218.00042724609375 380.0899353027344 214.880126953125 382.947265625 213.66656494140625 386.6623840332031 C 212.64071655273438 389.80181884765625 213.05038452148438 393.2220153808594 213.79501342773438 396.4375305175781 C 215.800048828125 405.0419006347656 220.0723876953125 412.9525146484375 226.168212890625 419.3475341796875 C 227.78237915039062 421.03521728515625 229.57916259765625 422.64691162109375 231.77865600585938 423.4464111328125 C 235.47042846679688 424.7908935546875 239.68780517578125 423.57623291015625 242.94219970703125 421.3699951171875 C 247.77606201171875 418.0977783203125 251.0157470703125 412.7562255859375 252.30575561523438 407.06195068359375 C 253.59576416015625 401.36773681640625 253.0499267578125 395.3553466796875 251.34521484375 389.7717590332031 L 251.8419189453125 391.0107116699219" stroke-width="0.6000000238418579" fill="rgb(143, 165, 67)" opacity="1.0"/>
    <path d="M 194.88433837890625 370.8166809082031 C 180.54254150390625 368.23260498046875 167.5445556640625 386.0556335449219 173.3856201171875 399.3040466308594 C 179.2266845703125 412.552490234375 200.0130615234375 415.4093017578125 210.0836181640625 404.87005615234375 C 220.15420532226562 394.330810546875 217.3504638671875 374.8870544433594 205.26519775390625 366.7119140625 L 194.88433837890625 370.8166809082031" stroke-width="0.6000000238418579" fill="rgb(233, 92, 21)" opacity="1.0"/>
    <path d="M 251.8287353515625 372.3906555175781 C 248.56393432617188 378.0782775878906 245.25396728515625 385.2108459472656 248.70016479492188 390.816650390625 C 250.15841674804688 392.994140625 252.25643920898438 394.66552734375 254.704833984375 395.60009765625 C 260.7005615234375 398.07550048828125 267.524169921875 397.4912414550781 273.0118103027344 394.0326232910156 C 277.6593322753906 391.08685302734375 280.7680969238281 386.3596496582031 283.66619873046875 381.7218933105469 C 285.2899169921875 379.114013671875 286.9320373535156 376.29156494140625 286.8446044921875 373.2376403808594 C 286.6947021484375 369.1679382324219 283.512451171875 365.88482666015625 280.27117919921875 363.42132568359375 C 275.5320739746094 359.8100280761719 270.2397155761719 356.9896240234375 264.5993347167969 355.0694885253906 C 262.64923095703125 354.4097900390625 260.5641784667969 353.85015869140625 258.5483703613281 354.2645263671875 C 256.69378662109375 354.74566650390625 255.01925659179688 355.75604248046875 253.72897338867188 357.1724548339844 C 249.64788818359375 361.31671142578125 247.59027099609375 367.0426330566406 248.0999755859375 372.83660888671875 L 251.8287353515625 372.3906555175781" stroke-width="0.6000000238418579" fill="rgb(70, 150, 179)" opacity="1.0"/>
    <path d="M 327.943359375 352.47509765625 C 327.8355712890625 345.6332702636719 327.4288330078125 338.05419921875 322.6018371582031 333.2104187011719 C 317.4134216308594 328.0102233886719 308.72894287109375 327.994384765625 302.00152587890625 330.9441833496094 C 299.4072265625 332.0804138183594 296.8963317871094 333.6768493652344 295.39459228515625 336.0777893066406 C 294.15936279296875 338.051025390625 293.7016296386719 340.4013366699219 293.3941955566406 342.7083740234375 C 292.4159851074219 349.98248291015625 292.8563232421875 357.9774475097656 297.3592224121094 363.771484375 C 301.9014892578125 369.6078186035156 310.386962890625 372.0353088378906 317.31988525390625 369.4418029785156 C 324.2528076171875 366.8482971191406 329.1258239746094 359.5028991699219 328.759521484375 352.10491943359375 L 327.943359375 352.47509765625" stroke-width="0.6000000238418579" fill="rgb(140, 28, 33)" opacity="1.0"/>
    <path d="M 367.6858825683594 392.68798828125 C 359.8888854980469 391.75299072265625 351.7653503417969 390.86602783203125 344.286865234375 393.2803649902344 C 336.8085021972656 395.6947021484375 330.10015869140625 402.4512939453125 330.3533935546875 410.3042907714844 C 330.6876220703125 419.997314453125 341.8433837890625 426.67108154296875 351.4270324707031 425.07037353515625 C 361.01068115234375 423.46966552734375 368.6029357910156 415.95703125 373.7027282714844 407.7007751464844 C 375.5374450683594 405.30316162109375 376.40673828125 402.30499267578125 376.1389465332031 399.2978820800781 C 375.5637512207031 396.3839416503906 371.950927734375 394.00701904296875 369.4910888671875 395.6977844238281 L 367.6858825683594 392.68798828125" stroke-width="0.6000000238418579" fill="rgb(159, 159, 159)" opacity="1.0"/>
    <path d="M 174.31005859375 408.2892150878906 C 167.1253662109375 409.6509704589844 160.250732421875 413.5040283203125 156.16592407226562 419.5648193359375 C 152.0811309814453 425.6256103515625 151.17269897460938 433.9703369140625 154.74778747558594 440.3804931640625 C 157.2811279296875 444.9093017578125 161.79806518554688 448.131591796875 166.72232055664062 449.78289794921875 C 171.6466064453125 451.4342041015625 176.95867919921875 451.6322021484375 182.12918090820312 451.1314697265625 C 184.379150390625 450.9122314453125 186.72332763671875 450.5194091796875 188.501708984375 449.13323974609375 C 190.54129028320312 447.54498291015625 191.46331787109375 444.947998046875 192.1705322265625 442.453369140625 C 194.1671142578125 435.41064453125 195.16033935546875 427.7935791015625 192.8905029296875 420.8331298828125 C 190.62060546875 413.87255859375 184.40805053710938 407.82586669921875 177.10952758789062 407.56707763671875 L 174.31005859375 408.2892150878906" stroke-width="0.6000000238418579" fill="rgb(159, 159, 159)" opacity="1.0"/>
    <path d="M 372.4603576660156 363.329833984375 C 366.47198486328125 360.3800964355469 359.6878662109375 357.3607482910156 353.35894775390625 359.442138671875 C 347.2012023925781 361.4576416015625 343.519287109375 367.6081848144531 340.49224853515625 373.340087890625 C 339.2659912109375 375.67041015625 338.020263671875 378.1278381347656 338.0420837402344 380.7595520019531 C 338.0763854980469 385.21063232421875 341.6558532714844 388.8055725097656 345.35528564453125 391.26922607421875 C 348.7881164550781 393.5572204589844 352.5317077636719 395.3404541015625 356.471435546875 396.5643310546875 C 362.86773681640625 398.5538635253906 370.6690673828125 398.6996765136719 375.36285400390625 393.9239807128906 C 377.900634765625 391.3494567871094 379.1163024902344 387.68182373046875 379.3753356933594 384.07049560546875 C 379.63433837890625 380.45916748046875 379.0123291015625 376.8452453613281 378.3473815917969 373.2862548828125 C 377.68243408203125 369.72723388671875 376.95281982421875 366.2444152832031 374.9346618652344 363.34295654296875 L 372.4603576660156 363.329833984375" stroke-width="0.6000000238418579" fill="rgb(218, 166, 20)" opacity="1.0"/>
    <path d="M 375.3006591796875 381.9520263671875 C 369.0247802734375 391.8138427734375 371.9317321777344 404.89605712890625 381.7935791015625 411.1719665527344 C 382.6380310058594 411.7093811035156 383.5195617675781 412.1861572265625 384.4315185546875 412.598876953125 C 387.89703369140625 414.16619873046875 391.9695739746094 414.7586669921875 395.51507568359375 413.386962890625 C 398.51141357421875 412.22796630859375 400.8359069824219 409.8148193359375 402.80010986328125 407.2752685546875 C 408.0484619140625 400.4703063964844 411.37896728515625 392.3841552734375 412.44573974609375 383.85687255859375 C 412.72393798828125 381.6023864746094 412.83251953125 379.257080078125 412.0814208984375 377.10809326171875 C 410.8226013183594 373.4996643066406 407.3124694824219 371.0699157714844 403.64788818359375 369.975830078125 C 398.20843505859375 368.34765625 392.19091796875 369.1938781738281 387.1073913574219 371.7258605957031 C 382.0238952636719 374.2578430175781 377.8303527832031 378.3686218261719 374.67291259765625 383.08856201171875 L 375.3006591796875 381.9520263671875" stroke-width="0.6000000238418579" fill="rgb(143, 165, 67)" opacity="1.0"/>
    <path d="M 366.88037109375 358.7248229980469 C 370.175537109375 371.9510803222656 390.3652038574219 376.20538330078125 399.42791748046875 366.1418151855469 C 408.4905700683594 356.0782165527344 402.9568176269531 337.2492980957031 390.10369873046875 332.6993408203125 C 377.2505798339844 328.1493835449219 361.7377624511719 337.99749755859375 359.397705078125 351.4427185058594 L 366.88037109375 358.7248229980469" stroke-width="0.6000000238418579" fill="rgb(233, 92, 21)" opacity="1.0"/>
    <path d="M 404.0861511230469 350.1436462402344 C 401.95135498046875 356.7059631347656 400.0819091796875 364.7662048339844 404.8410949707031 369.7958068847656 C 406.81292724609375 371.7236633300781 409.33441162109375 372.9921569824219 412.0577392578125 373.42620849609375 C 418.7669677734375 374.6815185546875 425.66851806640625 372.6070251464844 430.57373046875 367.86053466796875 C 434.724365234375 363.8235778808594 436.90576171875 358.2840576171875 438.8895263671875 352.8821105957031 C 439.9989013671875 349.8458251953125 441.0809326171875 346.5845642089844 440.331787109375 343.45819091796875 C 439.2989501953125 339.2991638183594 435.31292724609375 336.6047668457031 431.44305419921875 334.7671813964844 C 425.7828369140625 332.07080078125 419.72344970703125 330.3083801269531 413.5 329.5482177734375 C 411.3492126464844 329.28973388671875 409.0810241699219 329.16339111328125 407.09442138671875 330.0252380371094 C 405.2882080078125 330.9210510253906 403.78167724609375 332.32305908203125 402.758544921875 334.0603332519531 C 399.449951171875 339.2093200683594 398.5666809082031 345.5505676269531 400.3421936035156 351.4077453613281 L 404.0861511230469 350.1436462402344" stroke-width="0.6000000238418579" fill="rgb(70, 150, 179)" opacity="1.0"/>
    <path d="M 392.17877197265625 425.5594482421875 C 392.3197021484375 432.99041748046875 392.78790283203125 441.22119140625 398.0477294921875 446.4654541015625 C 403.7013244628906 452.09564208984375 413.1341552734375 452.08258056640625 420.43096923828125 448.85516357421875 C 423.244873046875 447.61199951171875 425.966552734375 445.8692626953125 427.58929443359375 443.25616455078125 C 428.924072265625 441.108642578125 429.4130859375 438.55419921875 429.73895263671875 436.04730224609375 C 430.776123046875 428.14300537109375 430.26995849609375 419.460693359375 425.35888671875 413.18310546875 C 420.40484619140625 406.85968017578125 411.1797180175781 404.2525939941406 403.6584777832031 407.09375 C 396.13720703125 409.9349060058594 390.8699035644531 417.93017578125 391.2935791015625 425.96435546875 L 392.17877197265625 425.5594482421875" stroke-width="0.6000000238418579" fill="rgb(140, 28, 33)" opacity="1.0"/>
    <path d="M 414.2852783203125 375.4544677734375 C 411.435791015625 383.3638610839844 408.5578918457031 391.6254577636719 409.27911376953125 400.0075988769531 C 410.0003356933594 408.3896179199219 415.4366455078125 417.0120849609375 423.6900634765625 418.63543701171875 C 433.882568359375 420.6165771484375 443.5262451171875 410.58251953125 444.159912109375 400.19976806640625 C 444.79345703125 389.8169860839844 438.7808837890625 380.0907287597656 431.3934326171875 372.78594970703125 C 429.3331298828125 370.29559326171875 426.414306640625 368.6680908203125 423.2127685546875 368.22467041015625 C 420.03460693359375 368.12432861328125 416.6865234375 371.3220520019531 417.859130859375 374.2946472167969 L 414.2852783203125 375.4544677734375" stroke-width="0.6000000238418579" fill="rgb(159, 159, 159)" opacity="1.0"/>
    <path d="M 433.32220458984375 370.4089660644531 C 435.41748046875 377.56573486328125 440.0103759765625 384.1605529785156 446.567138671875 387.7047119140625 C 453.123779296875 391.2488708496094 461.68328857421875 391.342529296875 467.834228515625 387.07781982421875 C 472.17919921875 384.0570983886719 475.001220703125 379.1529235839844 476.1883544921875 373.9912414550781 C 477.37554931640625 368.82952880859375 477.0491943359375 363.41851806640625 476.02777099609375 358.2205505371094 C 475.5819091796875 355.95880126953125 474.9505615234375 353.61859130859375 473.3671875 351.9512939453125 C 471.55279541015625 350.0389099121094 468.8255615234375 349.3608703613281 466.2235107421875 348.8907165527344 C 458.87738037109375 347.5634460449219 451.048095703125 347.3114318847656 444.208984375 350.30609130859375 C 437.369873046875 353.30078125 431.849609375 360.2062683105469 432.3114013671875 367.639404296875 L 433.32220458984375 370.4089660644531" stroke-width="0.6000000238418579" fill="rgb(159, 159, 159)" opacity="1.0"/>
    <path d="M 436.98101806640625 411.6705627441406 C 433.1085205078125 417.712890625 429.0657958984375 424.59698486328125 430.5272216796875 431.60906982421875 C 431.93890380859375 438.4302978515625 438.06634521484375 443.1044921875 443.82537841796875 447.0286865234375 C 446.167236328125 448.61944580078125 448.642578125 450.2462158203125 451.456787109375 450.53985595703125 C 456.2161865234375 451.039306640625 460.48779296875 447.64813232421875 463.5653076171875 443.9925537109375 C 466.423095703125 440.6007080078125 468.779052734375 436.81610107421875 470.56103515625 432.7545166015625 C 473.456787109375 426.1607666015625 474.5521240234375 417.8438720703125 470.015380859375 412.25421142578125 C 467.570556640625 409.2329406738281 463.79864501953125 407.4925231933594 459.9718017578125 406.7808837890625 C 456.1448974609375 406.0692443847656 452.20904541015625 406.2985534667969 448.3267822265625 406.580322265625 C 444.4444580078125 406.8620910644531 440.63580322265625 407.2221374511719 437.29302978515625 409.0287780761719 L 436.98101806640625 411.6705627441406" stroke-width="0.6000000238418579" fill="rgb(218, 166, 20)" opacity="1.0"/>
    <path d="M 136.94720458984375 210.73135375976562 C 133.61569213867188 223.00619506835938 140.8656768798828 235.65765380859375 153.14051818847656 238.98916625976562 C 154.19161987304688 239.27447509765625 155.26162719726562 239.48480224609375 156.34249877929688 239.61865234375 C 160.44964599609375 240.12652587890625 164.87228393554688 239.42529296875 168.11224365234375 236.853759765625 C 170.8504638671875 234.68087768554688 172.48516845703125 231.4222412109375 173.7047119140625 228.14874267578125 C 176.95706176757812 219.38198852539062 177.802734375 209.904296875 176.15386962890625 200.7001953125 C 175.71392822265625 198.26800537109375 175.06842041015625 195.79632568359375 173.59326171875 193.80657958984375 C 171.1187744140625 190.46466064453125 166.6864013671875 189.0753173828125 162.52545166015625 189.12347412109375 C 156.34783935546875 189.19070434570312 150.36972045898438 192.0155029296875 145.9070281982422 196.28970336914062 C 141.4443359375 200.56387329101562 138.41671752929688 206.1905517578125 136.6625213623047 212.1151123046875 L 136.94720458984375 210.73135375976562" stroke-width="0.6000000238418579" fill="rgb(143, 165, 67)" opacity="1.0"/>
    <path d="M 171.09878540039062 266.0918884277344 C 180.91635131835938 277.39599609375 202.79925537109375 271.4975280761719 206.65444946289062 257.1299133300781 C 210.50958251953125 242.76226806640625 195.70834350585938 227.08978271484375 180.85940551757812 229.042236328125 C 166.01043701171875 230.99468994140625 155.73422241210938 248.3662109375 160.14492797851562 262.69329833984375 L 171.09878540039062 266.0918884277344" stroke-width="0.6000000238418579" fill="rgb(233, 92, 21)" opacity="1.0"/>
    <path d="M 141.5207977294922 307.28814697265625 C 134.15390014648438 307.68267822265625 125.39486694335938 308.91802978515625 122.20838928222656 315.5997009277344 C 121.04377746582031 318.3080749511719 120.74827575683594 321.31109619140625 121.36273193359375 324.19451904296875 C 122.69107055664062 331.3697509765625 127.41477966308594 337.4560241699219 134.0359344482422 340.5233459472656 C 139.6591796875 343.11090087890625 146.02377319335938 343.15625 152.17510986328125 343.05731201171875 C 155.63046264648438 342.9961242675781 159.2996826171875 342.82110595703125 162.13006591796875 340.871337890625 C 165.88140869140625 338.24151611328125 167.03594970703125 333.22918701171875 167.3804931640625 328.6622619628906 C 167.89306640625 321.97918701171875 167.320556640625 315.2572021484375 165.6851806640625 308.7570495605469 C 165.11578369140625 306.5122375488281 164.36944580078125 304.201171875 162.74566650390625 302.5509948730469 C 161.15740966796875 301.0939025878906 159.17950439453125 300.1304016113281 157.0531005859375 299.7779846191406 C 150.6444854736328 298.4580993652344 143.97947692871094 300.0159606933594 138.81988525390625 304.039794921875 L 141.5207977294922 307.28814697265625" stroke-width="0.6000000238418579" fill="rgb(70, 150, 179)" opacity="1.0"/>
    <path d="M 123.07545471191406 302.16192626953125 C 123.3046875 294.2939453125 123.22842407226562 285.56329345703125 117.93136596679688 279.74786376953125 C 112.23738098144531 273.50421142578125 102.25825500488281 273.0378112792969 94.37506103515625 276.0804443359375 C 91.33514404296875 277.25225830078125 88.3673095703125 278.957275390625 86.51766967773438 281.63885498046875 C 84.99632263183594 283.8426818847656 84.34901428222656 286.5199279785156 83.87666320800781 289.1552429199219 C 82.37710571289062 297.4639587402344 82.47052001953125 306.67425537109375 87.34609985351562 313.5649719238281 C 92.26473999023438 320.50634765625 101.89071655273438 323.73388671875 109.99166870117188 321.1112976074219 C 118.09259033203125 318.48870849609375 124.07162475585938 310.299072265625 124.032470703125 301.7786560058594 L 123.07545471191406 302.16192626953125" stroke-width="0.6000000238418579" fill="rgb(140, 28, 33)" opacity="1.0"/>
    <path d="M 146.0504608154297 256.98431396484375 C 138.23460388183594 261.249755859375 130.14878845214844 265.77435302734375 124.830322265625 272.9234924316406 C 119.51199340820312 280.0725402832031 117.76113891601562 290.7253112792969 123.16079711914062 297.8112487792969 C 129.8456268310547 306.5432434082031 144.53843688964844 305.3683166503906 152.33628845214844 297.5857849121094 C 160.1341552734375 289.8032531738281 162.2039794921875 277.8708190917969 161.4827880859375 266.8912048339844 C 161.60003662109375 263.47003173828125 160.43063354492188 260.1293029785156 158.2052001953125 257.52825927734375 C 155.75717163085938 255.21551513671875 150.85704040527344 255.39691162109375 149.697509765625 258.5765075683594 L 146.0504608154297 256.98431396484375" stroke-width="0.6000000238418579" fill="rgb(159, 159, 159)" opacity="1.0"/>
    <path d="M 159.7650146484375 288.7975769042969 C 159.52740478515625 296.6032409667969 161.95895385742188 304.66033935546875 167.336181640625 310.3177795410156 C 172.71337890625 315.9752197265625 181.20489501953125 318.84759521484375 188.7135009765625 316.59869384765625 C 194.02020263671875 315.001953125 198.42214965820312 311.0355529785156 201.27996826171875 306.2819519042969 C 204.1378173828125 301.5283508300781 205.56979370117188 296.0351257324219 206.24050903320312 290.5283203125 C 206.53094482421875 288.1317443847656 206.66217041015625 285.5968322753906 205.62710571289062 283.4227294921875 C 204.44158935546875 280.92962646484375 201.9464111328125 279.3691101074219 199.50845336914062 278.0561828613281 C 192.62554931640625 274.3495788574219 184.91241455078125 271.556640625 177.13104248046875 272.3176574707031 C 169.34963989257812 273.07867431640625 161.6114501953125 278.1614990234375 159.65786743164062 285.71197509765625 L 159.7650146484375 288.7975769042969" stroke-width="0.6000000238418579" fill="rgb(159, 159, 159)" opacity="1.0"/>
    <path d="M 126.49801635742188 350.1616516113281 C 126.66203308105469 342.51190185546875 126.512939453125 334.0017395019531 121.28535461425781 328.4349365234375 C 116.20912170410156 323.0140686035156 108.03628540039062 322.1679992675781 100.61549377441406 321.7994689941406 C 97.60067749023438 321.6541748046875 94.44442749023438 321.5502624511719 91.72099304199219 322.8475646972656 C 87.113525390625 325.03900146484375 85.11256408691406 330.49871826171875 84.34494018554688 335.53515625 C 83.63063049316406 340.2095642089844 83.59124755859375 344.9623107910156 84.22795104980469 349.6479187011719 C 85.259033203125 357.25640869140625 88.88600158691406 365.4315185546875 96.12065124511719 367.9947204589844 C 100.02435302734375 369.38421630859375 104.42332458496094 368.8707580566406 108.30044555664062 367.3907775878906 C 112.17758178710938 365.9107666015625 115.63070678710938 363.51422119140625 119.00595092773438 361.09967041015625 C 122.38121032714844 358.6851501464844 125.64601135253906 356.2403259277344 127.68276977539062 352.73846435546875 L 126.49801635742188 350.1616516113281" stroke-width="0.6000000238418579" fill="rgb(218, 166, 20)" opacity="1.0"/>
    <path d="M 151.33502197265625 341.0511169433594 C 138.80776977539062 340.18865966796875 127.95326232910156 349.64483642578125 127.09078979492188 362.1720886230469 C 127.01693725585938 363.2447814941406 127.019287109375 364.3213806152344 127.0977783203125 365.3937683105469 C 127.39683532714844 369.4685363769531 128.92739868164062 373.615966796875 132.041259765625 376.25811767578125 C 134.6724853515625 378.49114990234375 138.1426239013672 379.4466247558594 141.54714965820312 379.9972229003906 C 150.6622772216797 381.45849609375 160.00241088867188 380.45245361328125 168.5972900390625 377.0836486816406 C 170.86767578125 376.1893615722656 173.13671875 375.08837890625 174.77938842773438 373.2768859863281 C 177.53887939453125 370.2373352050781 178.03079223632812 365.6779479980469 177.1829833984375 361.65814208984375 C 175.92840576171875 355.6893005371094 172.04208374023438 350.4445495605469 167.04409790039062 346.9462890625 C 162.046142578125 343.4480285644531 156.01483154296875 341.5997619628906 149.94032287597656 341.0419006347656 L 151.33502197265625 341.0511169433594" stroke-width="0.6000000238418579" fill="rgb(143, 165, 67)" opacity="1.0"/>
    <path d="M 137.65660095214844 379.3760986328125 C 134.11546325683594 365.4507141113281 112.81117248535156 361.0693359375 103.309326171875 371.7239990234375 C 93.80752563476562 382.378662109375 99.73707580566406 402.19854736328125 113.3092041015625 406.9290771484375 C 126.88134765625 411.6596374511719 143.1835479736328 401.1991271972656 145.58154296875 387.01416015625 L 137.65660095214844 379.3760986328125" stroke-width="0.6000000238418579" fill="rgb(233, 92, 21)" opacity="1.0"/>
    <path d="M 175.09652709960938 347.86492919921875 C 175.5548095703125 355.2030334472656 176.86334228515625 363.9210510253906 183.55023193359375 367.03753662109375 C 186.25958251953125 368.1742248535156 189.25494384765625 368.4421691894531 192.12301635742188 367.8043212890625 C 199.2618408203125 366.4171447753906 205.28546142578125 361.6558532714844 208.28375244140625 355.0303039550781 C 210.81268310546875 349.4035339355469 210.8016357421875 343.0603942871094 210.648681640625 336.9310607910156 C 210.55715942382812 333.48809814453125 210.35028076171875 329.8330078125 208.3822021484375 327.02960205078125 C 205.728271484375 323.31439208984375 200.72296142578125 322.2081298828125 196.16867065429688 321.9051208496094 C 189.5040283203125 321.453369140625 182.8101806640625 322.08331298828125 176.3468017578125 323.7705383300781 C 174.11471557617188 324.3578186035156 171.81817626953125 325.1220397949219 170.18804931640625 326.75482177734375 C 168.74996948242188 328.3504943847656 167.8072509765625 330.33013916015625 167.47488403320312 332.4523620605469 C 166.2161865234375 338.8506164550781 167.82757568359375 345.4789733886719 171.8831787109375 350.58526611328125 L 175.09652709960938 347.86492919921875" stroke-width="0.6000000238418579" fill="rgb(70, 150, 179)" opacity="1.0"/>
  </g>
</svg>
