<?xml version="1.0" ?>
<svg xmlns="http://www.w3.org/2000/svg" version="1.1" width="600" height="600">
  <defs/>
  <g>
    <path d="M 355.9832458496094 342.188232421875 C 359.71832275390625 345.73004150390625 367.01025390625 342.98443603515625 367.8519592285156 337.9399719238281 C 368.693603515625 332.8954772949219 363.1080322265625 328.0245361328125 358.0918884277344 329.18609619140625 C 353.0757141113281 330.3476867675781 350.13665771484375 336.6334228515625 352.1220703125 341.3893127441406 L 355.9832458496094 342.188232421875" stroke-width="0.6000000238418579" fill="rgb(233, 92, 21)" opacity="1.0"/>
    <path d="M 123.290283203125 210.28485107421875 C 127.54525756835938 210.51705932617188 132.6520233154297 210.3531494140625 134.89793395996094 206.71466064453125 C 135.7353515625 205.23187255859375 136.09205627441406 203.52581787109375 135.91876220703125 201.831787109375 C 135.60279846191406 197.62872314453125 133.2692413330078 193.83953857421875 129.6580810546875 191.66583251953125 C 126.59011840820312 189.82974243164062 122.93809509277344 189.4073486328125 119.39955139160156 189.08111572265625 C 117.41152954101562 188.90106201171875 115.2935791015625 188.7730712890625 113.54684448242188 189.71649169921875 C 111.2288818359375 190.9930419921875 110.25375366210938 193.7994384765625 109.77151489257812 196.4005126953125 C 109.06097412109375 200.206298828125 108.97114562988281 204.10205078125 109.50546264648438 207.93658447265625 C 109.69264221191406 209.2611083984375 109.97732543945312 210.63470458984375 110.80699157714844 211.68341064453125 C 111.6282958984375 212.61904907226562 112.70413208007812 213.2955322265625 113.90325927734375 213.63031005859375 C 117.50117492675781 214.78729248046875 121.425537109375 214.30776977539062 124.63897705078125 212.31842041015625 L 123.290283203125 210.28485107421875" stroke-width="0.6000000238418579" fill="rgb(70, 150, 179)" opacity="1.0"/>
    <path d="M 459.06610107421875 402.7044677734375 C 461.2838134765625 404.96429443359375 463.8367919921875 407.3760070800781 466.99981689453125 407.46112060546875 C 470.397705078125 407.5505065917969 473.3148193359375 404.7867431640625 474.63006591796875 401.6525573730469 C 475.1376953125 400.4443664550781 475.47064208984375 399.1084289550781 475.2086181640625 397.82452392578125 C 474.99365234375 396.7690124511719 474.39776611328125 395.8349609375 473.7652587890625 394.9633483886719 C 471.77392578125 392.2122802734375 469.0770263671875 389.67181396484375 465.71966552734375 389.16473388671875 C 462.33563232421875 388.656005859375 458.71624755859375 390.54766845703125 457.218505859375 393.6278991699219 C 455.720703125 396.7081298828125 456.42877197265625 400.7249450683594 458.91046142578125 403.0888366699219 L 459.06610107421875 402.7044677734375" stroke-width="0.6000000238418579" fill="rgb(140, 28, 33)" opacity="1.0"/>
    <path d="M 88.29489135742188 208.77435302734375 C 92.80697631835938 208.88177490234375 97.50325012207031 208.94384765625 101.64947509765625 207.15252685546875 C 105.79560852050781 205.36123657226562 109.26315307617188 201.12786865234375 108.68771362304688 196.64886474609375 C 107.96507263183594 191.12164306640625 101.21672058105469 187.91506958007812 95.82148742675781 189.3563232421875 C 90.42626953125 190.79754638671875 86.49447631835938 195.511962890625 84.02944946289062 200.51510620117188 C 83.1112060546875 201.9874267578125 82.77825927734375 203.7503662109375 83.09634399414062 205.45614624023438 C 83.58517456054688 207.09173583984375 85.782470703125 208.2535400390625 87.09707641601562 207.15133666992188 L 88.29489135742188 208.77435302734375" stroke-width="0.6000000238418579" fill="rgb(159, 159, 159)" opacity="1.0"/>
    <path d="M 382.71710205078125 314.0898742675781 C 387.0469665527344 313.1404113769531 391.1458435058594 310.686767578125 393.51605224609375 306.94366455078125 C 395.8862609863281 303.2005615234375 396.29229736328125 298.12847900390625 394.01513671875 294.3062744140625 C 392.4017028808594 291.60595703125 389.6090087890625 289.73162841796875 386.5966796875 288.8162841796875 C 383.5843200683594 287.90093994140625 380.36212158203125 287.8728942871094 377.23785400390625 288.2657775878906 C 375.8783264160156 288.43756103515625 374.4647216796875 288.7161560058594 373.4111328125 289.58685302734375 C 372.2027587890625 290.5845031738281 371.68902587890625 292.1740417480469 371.30364990234375 293.6978454589844 C 370.21575927734375 297.9998474121094 369.7457275390625 302.6324157714844 371.2415771484375 306.8106994628906 C 372.7374267578125 310.989013671875 376.6064453125 314.5453796386719 381.0333251953125 314.5758972167969 L 382.71710205078125 314.0898742675781" stroke-width="0.6000000238418579" fill="rgb(159, 159, 159)" opacity="1.0"/>
    <path d="M 103.62442016601562 418.079833984375 C 106.55776977539062 415.75244140625 109.71749877929688 413.03839111328125 110.18215942382812 409.3302001953125 C 110.63911437988281 405.724609375 108.40533447265625 402.38116455078125 106.22650146484375 399.47021484375 C 105.33966064453125 398.28900146484375 104.39303588867188 397.0673828125 103.05368041992188 396.44647216796875 C 100.78903198242188 395.3949890136719 98.10708618164062 396.3463134765625 95.96980285644531 397.63006591796875 C 93.985595703125 398.82086181640625 92.18264770507812 400.2904052734375 90.61614990234375 401.99371337890625 C 88.07159423828125 404.7584533691406 86.12431335449219 408.67822265625 87.41813659667969 412.2044677734375 C 88.11384582519531 414.1092529296875 89.68118286132812 415.606201171875 91.44969177246094 416.604736328125 C 93.21820068359375 417.603271484375 95.19961547851562 418.15576171875 97.16348266601562 418.67327880859375 C 99.12733459472656 419.19085693359375 101.068115234375 419.6573486328125 103.02359008789062 419.33099365234375 L 103.62442016601562 418.079833984375" stroke-width="0.6000000238418579" fill="rgb(218, 166, 20)" opacity="1.0"/>
    <path d="M 99.11183166503906 157.15374755859375 C 106.64920043945312 159.49319458007812 114.65594482421875 155.27944946289062 116.99540710449219 147.74208068847656 C 117.19573974609375 147.09664916992188 117.35000610351562 146.43783569335938 117.45712280273438 145.77056884765625 C 117.86358642578125 143.2350311279297 117.52731323242188 140.4769287109375 116.00491333007812 138.4105224609375 C 114.71855163574219 136.66412353515625 112.73428344726562 135.5778045654297 110.73159790039062 134.7486114501953 C 105.36781311035156 132.53643798828125 99.50953674316406 131.80081176757812 93.76531982421875 132.61813354492188 C 92.24732971191406 132.83673095703125 90.70025634765625 133.1819305419922 89.43353271484375 134.0523223876953 C 87.30607604980469 135.5122833251953 86.34574890136719 138.2298126220703 86.28288269042969 140.81109619140625 C 86.1868896484375 144.64332580566406 87.8052978515625 148.41331481933594 90.35626220703125 151.27589416503906 C 92.90721130371094 154.1384735107422 96.32882690429688 156.14129638671875 99.96354675292969 157.36111450195312 L 99.11183166503906 157.15374755859375" stroke-width="0.6000000238418579" fill="rgb(143, 165, 67)" opacity="1.0"/>
    <path d="M 460.7581787109375 344.3667907714844 C 463.73095703125 351.26422119140625 475.0888671875 351.77459716796875 479.1180419921875 345.49334716796875 C 483.1470947265625 339.2120666503906 478.456787109375 329.4681091308594 471.061767578125 328.141845703125 C 463.6666259765625 326.8155822753906 456.111083984375 333.5556640625 456.039306640625 341.07537841796875 L 460.7581787109375 344.3667907714844" stroke-width="0.6000000238418579" fill="rgb(233, 92, 21)" opacity="1.0"/>
    <path d="M 107.7340087890625 227.16354370117188 C 110.85600280761719 223.94586181640625 114.25160217285156 219.7784423828125 112.91361999511719 215.4833984375 C 112.31463623046875 213.79486083984375 111.20646667480469 212.33380126953125 109.74192810058594 211.30178833007812 C 106.18701171875 208.65081787109375 101.56768798828125 207.8873291015625 97.34883117675781 209.25347900390625 C 93.77304077148438 210.42147827148438 90.91633605957031 213.0291748046875 88.21429443359375 215.6131591796875 C 86.69880676269531 217.067138671875 85.13496398925781 218.66021728515625 84.67794799804688 220.6982421875 C 84.09104919433594 223.4197998046875 85.64581298828125 226.13150024414062 87.37783813476562 228.31015014648438 C 89.90869140625 231.50180053710938 92.939453125 234.26275634765625 96.35256958007812 236.48593139648438 C 97.53334045410156 237.2518310546875 98.82037353515625 237.97412109375 100.22575378417969 238.03952026367188 C 101.53558349609375 238.033447265625 102.81538391113281 237.64639282226562 103.9090576171875 236.925537109375 C 107.31161499023438 234.86798095703125 109.64031982421875 231.42138671875 110.27957153320312 227.49679565429688 L 107.7340087890625 227.16354370117188" stroke-width="0.6000000238418579" fill="rgb(70, 150, 179)" opacity="1.0"/>
    <path d="M 109.91358947753906 82.19451904296875 C 110.55357360839844 86.39581298828125 111.4393310546875 91.02572631835938 114.81591796875 93.60177612304688 C 118.44476318359375 96.36685180664062 123.79037475585938 95.64846801757812 127.6829833984375 93.26914978027344 C 129.18418884277344 92.3524169921875 130.59548950195312 91.15946960449219 131.3183135986328 89.55606079101562 C 131.91302490234375 88.23820495605469 131.9976348876953 86.75350952148438 131.99339294433594 85.30801391601562 C 131.9854736328125 80.7496337890625 131.04415893554688 75.86659240722656 127.787353515625 72.67861938476562 C 124.50277709960938 69.46788024902344 119.07742309570312 68.68551635742188 115.02850341796875 70.86279296875 C 110.97956848144531 73.04008483886719 108.5966796875 77.96888732910156 109.44236755371094 82.49075317382812 L 109.91358947753906 82.19451904296875" stroke-width="0.6000000238418579" fill="rgb(140, 28, 33)" opacity="1.0"/>
    <path d="M 94.57612609863281 398.93389892578125 C 97.05056762695312 396.0290832519531 99.59333801269531 392.9791564941406 100.62637329101562 389.30291748046875 C 101.65936279296875 385.6267395019531 100.7276611328125 381.094970703125 97.48075866699219 379.0864562988281 C 93.46725463867188 376.6160888671875 87.76692199707031 379.3378601074219 85.83863830566406 383.6475524902344 C 83.91036987304688 387.95721435546875 84.91049194335938 393.0500183105469 86.88165283203125 397.33380126953125 C 87.35897827148438 398.7209777832031 88.33892822265625 399.8788146972656 89.628173828125 400.57879638671875 C 90.96234130859375 401.1292724609375 92.89569091796875 400.3057861328125 92.87251281738281 398.8555603027344 L 94.57612609863281 398.93389892578125" stroke-width="0.6000000238418579" fill="rgb(159, 159, 159)" opacity="1.0"/>
    <path d="M 477.56939697265625 66.29933166503906 C 479.12841796875 63.0853271484375 479.6201171875 59.26719665527344 478.4334716796875 55.89988708496094 C 477.246826171875 52.5325927734375 474.2392578125 49.7454833984375 470.6842041015625 49.28004455566406 C 468.17041015625 48.95416259765625 465.591064453125 49.78666687011719 463.509033203125 51.236572265625 C 461.427001953125 52.68646240234375 459.80194091796875 54.7117919921875 458.4920654296875 56.88514709472656 C 457.922607421875 57.831268310546875 457.393798828125 58.86492919921875 457.4193115234375 59.966064453125 C 457.44793701171875 61.228515625 458.19769287109375 62.346588134765625 458.9698486328125 63.3505859375 C 461.14990234375 66.18511962890625 463.847412109375 68.79348754882812 467.238037109375 69.93106079101562 C 470.628662109375 71.06863403320312 474.8094482421875 70.39398193359375 477.03704833984375 67.60743713378906 L 477.56939697265625 66.29933166503906" stroke-width="0.6000000238418579" fill="rgb(159, 159, 159)" opacity="1.0"/>
    <path d="M 88.57044982910156 112.24038696289062 C 92.76715087890625 113.7550048828125 97.49758911132812 115.25674438476562 101.546875 113.40423583984375 C 105.48735046386719 111.60820007324219 107.47622680664062 107.24940490722656 109.06121826171875 103.21731567382812 C 109.70269775390625 101.57838439941406 110.34764099121094 99.85357666015625 110.13772583007812 98.10714721679688 C 109.78439331054688 95.15315246582031 107.13984680175781 93.03111267089844 104.49961853027344 91.66940307617188 C 102.04953002929688 90.40457153320312 99.43051147460938 89.49810791015625 96.72274780273438 88.97773742675781 C 92.32638549804688 88.1312255859375 87.13369750976562 88.61370849609375 84.37059020996094 92.13441467285156 C 82.8760986328125 94.03294372558594 82.34098815917969 96.55937194824219 82.43710327148438 98.97735595703125 C 82.53323364257812 101.39532470703125 83.21478271484375 103.7496337890625 83.92074584960938 106.06423950195312 C 84.62672424316406 108.37884521484375 85.3699951171875 110.6380615234375 86.92597961425781 112.4154052734375 L 88.57044982910156 112.24038696289062" stroke-width="0.6000000238418579" fill="rgb(218, 166, 20)" opacity="1.0"/>
    <path d="M 130.5885772705078 139.36038208007812 C 137.32931518554688 137.68873596191406 141.43862915039062 130.86915588378906 139.76698303222656 124.12841796875 C 139.62384033203125 123.55120849609375 139.43992614746094 122.98487854003906 139.21664428710938 122.43368530273438 C 138.3677978515625 120.33944702148438 136.85836791992188 118.41593933105469 134.77088928222656 117.553466796875 C 133.00689697265625 116.824462890625 131.01808166503906 116.91032409667969 129.1324920654297 117.19816589355469 C 124.0863037109375 117.97563171386719 119.34033203125 120.09005737304688 115.3875732421875 123.32180786132812 C 114.34417724609375 124.17782592773438 113.33656311035156 125.14239501953125 112.77923583984375 126.37469482421875 C 111.84237670898438 128.44296264648438 112.35708618164062 130.926513671875 113.4854736328125 132.89869689941406 C 115.15867614746094 135.8278350830078 118.09439086914062 137.92926025390625 121.31895446777344 138.9226837158203 C 124.54348754882812 139.9161376953125 128.03199768066406 139.86566162109375 131.32431030273438 139.1285858154297 L 130.5885772705078 139.36038208007812" stroke-width="0.6000000238418579" fill="rgb(143, 165, 67)" opacity="1.0"/>
    <path d="M 403.60772705078125 308.58489990234375 C 407.3409423828125 317.0246887207031 421.3017578125 317.5188903808594 426.1787109375 309.7542724609375 C 431.0556640625 301.9896240234375 425.17889404296875 290.07257080078125 416.077392578125 288.529541015625 C 406.9758605957031 286.9865417480469 397.7715148925781 295.35614013671875 397.77130126953125 304.5960998535156 L 403.60772705078125 308.58489990234375" stroke-width="0.6000000238418579" fill="rgb(233, 92, 21)" opacity="1.0"/>
    <path d="M 123.83253479003906 116.3995361328125 C 127.91058349609375 116.62246704101562 132.8050079345703 116.46578979492188 134.95785522460938 112.97879028320312 C 135.76060485839844 111.55776977539062 136.1026153564453 109.92266845703125 135.93667602539062 108.29902648925781 C 135.63421630859375 104.27070617675781 133.3980255126953 100.63887023925781 129.9372100830078 98.55522155761719 C 126.9969482421875 96.79522705078125 123.496826171875 96.39009094238281 120.10543823242188 96.07708740234375 C 118.20008850097656 95.90435791015625 116.17022705078125 95.78150939941406 114.49603271484375 96.68551635742188 C 112.27432250976562 97.90878295898438 111.33950805664062 100.59841918945312 110.87709045410156 103.09130859375 C 110.19577026367188 106.73880004882812 110.10931396484375 110.4725341796875 110.62109375 114.14767456054688 C 110.80036926269531 115.41714477539062 111.07308959960938 116.73365783691406 111.8681640625 117.73883056640625 C 112.65524291992188 118.63565063476562 113.686279296875 119.28408813476562 114.83552551269531 119.60504150390625 C 118.28373718261719 120.71426391601562 122.04498291015625 120.25502014160156 125.12496948242188 118.34866333007812 L 123.83253479003906 116.3995361328125" stroke-width="0.6000000238418579" fill="rgb(70, 150, 179)" opacity="1.0"/>
    <path d="M 415.3388671875 64.38671875 C 416.8182373046875 67.28750610351562 418.5797119140625 70.44070434570312 421.65692138671875 71.4991455078125 C 424.96319580078125 72.63417053222656 428.67724609375 70.8216552734375 430.9337158203125 68.15194702148438 C 431.80419921875 67.12298583984375 432.5426025390625 65.91485595703125 432.68133544921875 64.57440185546875 C 432.7957763671875 63.472503662109375 432.4990234375 62.37237548828125 432.14703369140625 61.322235107421875 C 431.0411376953125 58.00921630859375 429.17822265625 54.68536376953125 426.0404052734375 53.15299987792969 C 422.876953125 51.61079406738281 418.74273681640625 52.35118103027344 416.32373046875 54.91169738769531 C 413.90478515625 57.47221374511719 413.36138916015625 61.631591796875 415.06768798828125 64.71586608886719 L 415.3388671875 64.38671875" stroke-width="0.6000000238418579" fill="rgb(140, 28, 33)" opacity="1.0"/>
    <path d="M 120.0936279296875 425.9417724609375 C 121.6448974609375 422.9478759765625 123.22604370117188 419.8154296875 123.38264465332031 416.44464111328125 C 123.53921508789062 413.07391357421875 121.8338623046875 409.3582458496094 118.63827514648438 408.27630615234375 C 114.69070434570312 406.9495544433594 110.3258056640625 410.4288635253906 109.52474975585938 414.52337646484375 C 108.72369384765625 418.617919921875 110.59979248046875 422.80291748046875 113.15057373046875 426.097900390625 C 113.83798217773438 427.197021484375 114.91241455078125 427.9984130859375 116.16183471679688 428.3441162109375 C 117.42010498046875 428.55206298828125 118.92037963867188 427.457763671875 118.61138916015625 426.2138671875 L 120.0936279296875 425.9417724609375" stroke-width="0.6000000238418579" fill="rgb(159, 159, 159)" opacity="1.0"/>
    <path d="M 475.43341064453125 447.686279296875 C 475.7696533203125 445.6719970703125 475.42303466796875 443.49853515625 474.22869873046875 441.84326171875 C 473.0343017578125 440.18804931640625 470.9349365234375 439.14495849609375 468.91015625 439.4635009765625 C 467.478759765625 439.6905517578125 466.19854736328125 440.5634765625 465.29071044921875 441.6947021484375 C 464.38287353515625 442.82598876953125 463.81854248046875 444.1990966796875 463.450927734375 445.60247802734375 C 463.2913818359375 446.21331787109375 463.16815185546875 446.8656005859375 463.35986328125 447.46533203125 C 463.579345703125 448.15313720703125 464.1710205078125 448.64532470703125 464.756591796875 449.0712890625 C 466.4097900390625 450.2740478515625 468.31024169921875 451.2691650390625 470.3533935546875 451.34576416015625 C 472.3966064453125 451.42236328125 474.5806884765625 450.37750244140625 475.35260009765625 448.4896240234375 L 475.43341064453125 447.686279296875" stroke-width="0.6000000238418579" fill="rgb(159, 159, 159)" opacity="1.0"/>
    <path d="M 456.9527587890625 298.4089050292969 C 456.2371826171875 294.3188781738281 455.2645263671875 289.80364990234375 451.89697265625 287.3885498046875 C 448.62530517578125 285.0352478027344 444.1851806640625 285.4426574707031 440.19561767578125 286.025390625 C 438.57525634765625 286.2644958496094 436.8839111328125 286.54046630859375 435.57012939453125 287.51702880859375 C 433.34710693359375 289.1673889160156 432.8548583984375 292.28424072265625 432.97479248046875 295.0462646484375 C 433.08514404296875 297.60992431640625 433.56304931640625 300.14447021484375 434.39385986328125 302.5722961425781 C 435.741455078125 306.514892578125 438.5306396484375 310.4866943359375 442.6514892578125 311.09197998046875 C 444.87567138671875 311.4219970703125 447.163818359375 310.6868896484375 449.07269287109375 309.4919738769531 C 450.9815673828125 308.29705810546875 452.5684814453125 306.65863037109375 454.112060546875 305.0188293457031 C 455.6556396484375 303.3790283203125 457.13720703125 301.73468017578125 457.85400390625 299.6564636230469 L 456.9527587890625 298.4089050292969" stroke-width="0.6000000238418579" fill="rgb(218, 166, 20)" opacity="1.0"/>
    <path d="M 427.9591064453125 371.1954040527344 C 426.0958251953125 372.63128662109375 425.7493896484375 375.3058166503906 427.18524169921875 377.1690979003906 C 427.3082275390625 377.3286437988281 427.44232177734375 377.4792785644531 427.58660888671875 377.6198425292969 C 428.1348876953125 378.1539001464844 428.8648681640625 378.5450744628906 429.6297607421875 378.52850341796875 C 430.276123046875 378.5145263671875 430.88128662109375 378.21722412109375 431.427001953125 377.871337890625 C 432.8863525390625 376.94342041015625 434.07061767578125 375.64166259765625 434.8568115234375 374.1012878417969 C 435.06396484375 373.69378662109375 435.2452392578125 373.2574768066406 435.2503662109375 372.7994079589844 C 435.259521484375 372.0303649902344 434.7618408203125 371.3301086425781 434.1434326171875 370.8719482421875 C 433.225830078125 370.1911315917969 432.02923583984375 369.9388732910156 430.89385986328125 370.069580078125 C 429.75848388671875 370.2003173828125 428.683349609375 370.69073486328125 427.762451171875 371.367431640625 L 427.9591064453125 371.1954040527344" stroke-width="0.6000000238418579" fill="rgb(143, 165, 67)" opacity="1.0"/>
    <path d="M 452.2154541015625 345.6370544433594 C 458.3741455078125 342.9676818847656 458.8094482421875 332.81634521484375 453.1885986328125 329.2270812988281 C 447.5677490234375 325.6378479003906 438.8682861328125 329.84735107421875 437.69659423828125 336.45867919921875 C 436.52490234375 343.07000732421875 442.562255859375 349.8099670410156 449.28265380859375 349.8603210449219 L 452.2154541015625 345.6370544433594" stroke-width="0.6000000238418579" fill="rgb(233, 92, 21)" opacity="1.0"/>
    <path d="M 448.023193359375 68.9576416015625 C 451.5623779296875 67.87652587890625 455.6778564453125 66.21804809570312 456.42291259765625 62.58038330078125 C 456.6630859375 61.1212158203125 456.444580078125 59.623443603515625 455.79742431640625 58.293731689453125 C 454.2847900390625 54.96061706542969 451.25048828125 52.567413330078125 447.6566162109375 51.87303161621094 C 444.6065673828125 51.29182434082031 441.50238037109375 52.037811279296875 438.5194091796875 52.82830810546875 C 436.844482421875 53.27507019042969 435.0791015625 53.8031005859375 433.9364013671875 55.09393310546875 C 432.42730712890625 56.8270263671875 432.4700927734375 59.40672302246094 432.8533935546875 61.67181396484375 C 433.410400390625 64.98750305175781 434.50030517578125 68.191162109375 436.0809326171875 71.1585693359375 C 436.6290283203125 72.18280029296875 437.2713623046875 73.21792602539062 438.26104736328125 73.82540893554688 C 439.210205078125 74.34317016601562 440.2894287109375 74.57357788085938 441.3673095703125 74.48854064941406 C 444.646728515625 74.3577880859375 447.7037353515625 72.79498291015625 449.730224609375 70.21324157714844 L 448.023193359375 68.9576416015625" stroke-width="0.6000000238418579" fill="rgb(70, 150, 179)" opacity="1.0"/>
    <path d="M 456.45947265625 400.0815734863281 C 457.03338623046875 397.1880187988281 457.5479736328125 393.9566345214844 455.951904296875 391.4780578613281 C 454.2357177734375 388.8165283203125 450.57666015625 388.0237121582031 447.47406005859375 388.6580810546875 C 446.2777099609375 388.90216064453125 445.07489013671875 389.3477783203125 444.224609375 390.2238464355469 C 443.5252685546875 390.9437255859375 443.11962890625 391.8929443359375 442.78125 392.8375244140625 C 441.71044921875 395.81500244140625 441.17236328125 399.2247009277344 442.5457763671875 402.0744934082031 C 443.93206787109375 404.9456481933594 447.2889404296875 406.7369384765625 450.4459228515625 406.2713623046875 C 453.6029052734375 405.8057556152344 456.32177734375 403.15081787109375 456.8370361328125 399.9994201660156 L 456.45947265625 400.0815734863281" stroke-width="0.6000000238418579" fill="rgb(140, 28, 33)" opacity="1.0"/>
    <path d="M 122.43626403808594 214.92364501953125 C 118.32217407226562 219.603271484375 114.09283447265625 224.51797485351562 112.31246948242188 230.49383544921875 C 110.53213500976562 236.46957397460938 111.93775939941406 243.892333984375 117.18775939941406 247.25442504882812 C 123.67758178710938 251.39007568359375 133.0539093017578 247.09164428710938 136.31210327148438 240.10443115234375 C 139.57029724121094 233.11721801757812 138.06724548339844 224.7767333984375 134.95819091796875 217.73236083984375 C 134.2142333984375 215.455322265625 132.643798828125 213.53994750976562 130.55670166015625 212.36422729492188 C 128.3924560546875 211.43145751953125 125.21490478515625 212.72665405273438 125.21575927734375 215.09503173828125 L 122.43626403808594 214.92364501953125" stroke-width="0.6000000238418579" fill="rgb(159, 159, 159)" opacity="1.0"/>
    <path d="M 107.60182189941406 240.30841064453125 C 101.92681884765625 238.98724365234375 95.675537109375 239.5816650390625 90.74664306640625 242.68359375 C 85.81777954101562 245.7855224609375 82.46844482421875 251.57498168945312 83.0098876953125 257.398193359375 C 83.39791870117188 261.5147705078125 85.65234375 265.31787109375 88.7095947265625 268.1071472167969 C 91.766845703125 270.89642333984375 95.57473754882812 272.7513427734375 99.50442504882812 274.0514221191406 C 101.21487426757812 274.61614990234375 103.0499267578125 275.0847473144531 104.79243469238281 274.64715576171875 C 106.79042053222656 274.1463623046875 108.29873657226562 272.5505065917969 109.61749267578125 270.9600830078125 C 113.34062194824219 266.469970703125 116.51742553710938 261.23822021484375 117.10450744628906 255.4342041015625 C 117.69158935546875 249.63018798828125 115.11083984375 243.22247314453125 109.87472534179688 240.68359375 L 107.60182189941406 240.30841064453125" stroke-width="0.6000000238418579" fill="rgb(159, 159, 159)" opacity="1.0"/>
    <path d="M 284.9424743652344 87.10597229003906 C 283.6238708496094 92.84078979492188 282.4066467285156 99.27243041992188 285.4734802246094 104.28106689453125 C 288.4491271972656 109.15615844726562 294.4712829589844 111.070068359375 300.0017395019531 112.50689697265625 C 302.249267578125 113.0872802734375 304.6097717285156 113.65863037109375 306.8632507324219 113.10720825195312 C 310.6751403808594 112.17680358886719 313.0348815917969 108.37808227539062 314.39971923828125 104.70545959472656 C 315.6678771972656 101.297119140625 316.4400329589844 97.72433471679688 316.6925964355469 94.09649658203125 C 317.10479736328125 88.20603942871094 315.6507873535156 81.48333740234375 310.6033630371094 78.4229736328125 C 307.8808288574219 76.76678466796875 304.48809814453125 76.46621704101562 301.3373107910156 76.97496032714844 C 298.1865234375 77.48373413085938 295.21185302734375 78.74893188476562 292.29296875 80.03982543945312 C 289.3741149902344 81.33071899414062 286.53369140625 82.66168212890625 284.4529113769531 84.98048400878906 L 284.9424743652344 87.10597229003906" stroke-width="0.6000000238418579" fill="rgb(218, 166, 20)" opacity="1.0"/>
    <path d="M 228.03738403320312 121.3302001953125 C 222.05264282226562 113.24057006835938 210.64312744140625 111.53424072265625 202.55349731445312 117.51898193359375 C 201.86077880859375 118.03144836425781 201.205322265625 118.59242248535156 200.59197998046875 119.19766235351562 C 198.26187133789062 121.49786376953125 196.52749633789062 124.5870361328125 196.53424072265625 127.85963439941406 C 196.5396728515625 130.62521362304688 197.7603759765625 133.23851013183594 199.1939697265625 135.60137939453125 C 203.04006958007812 141.92086791992188 208.50811767578125 147.0952911376953 215.03005981445312 150.58712768554688 C 216.75555419921875 151.50723266601562 218.60641479492188 152.31907653808594 220.56515502929688 152.37957763671875 C 223.8533935546875 152.48306274414062 226.89019775390625 150.4134521484375 228.90155029296875 147.80706787109375 C 231.890380859375 143.93960571289062 233.0697021484375 138.84315490722656 232.60595703125 133.976318359375 C 232.14224243164062 129.1094970703125 230.135009765625 124.46994018554688 227.31814575195312 120.47467041015625 L 228.03738403320312 121.3302001953125" stroke-width="0.6000000238418579" fill="rgb(143, 165, 67)" opacity="1.0"/>
    <path d="M 204.25161743164062 90.39459228515625 C 207.07186889648438 100.89151000976562 223.23074340820312 103.98861694335938 230.309326171875 95.83283996582031 C 237.38787841796875 87.67703247070312 232.7010498046875 72.74594116210938 222.38714599609375 69.30599975585938 C 212.07318115234375 65.86605834960938 199.84893798828125 73.9442138671875 198.17953491210938 84.69796752929688 L 204.25161743164062 90.39459228515625" stroke-width="0.6000000238418579" fill="rgb(233, 92, 21)" opacity="1.0"/>
    <path d="M 202.711669921875 95.82713317871094 C 201.26229858398438 90.391357421875 198.96722412109375 84.04852294921875 193.48138427734375 82.71809387207031 C 191.27764892578125 82.27359008789062 188.99029541015625 82.52388000488281 186.934814453125 83.43447875976562 C 181.78851318359375 85.5506591796875 177.98712158203125 90.02995300292969 176.73611450195312 95.45193481445312 C 175.68670654296875 100.05398559570312 176.65069580078125 104.81074523925781 177.68890380859375 109.3857421875 C 178.2762451171875 111.95474243164062 178.98211669921875 114.66549682617188 180.88088989257812 116.47203063964844 C 183.4315185546875 118.85922241210938 187.35302734375 118.93499755859375 190.815185546875 118.47613525390625 C 195.88284301757812 117.8109130859375 200.8094482421875 116.329833984375 205.40386962890625 114.09033203125 C 206.98980712890625 113.31350708007812 208.59747314453125 112.39419555664062 209.5743408203125 110.92375183105469 C 210.4127197265625 109.51007080078125 210.8216552734375 107.88296508789062 210.75128173828125 106.24085998535156 C 210.73153686523438 101.25144958496094 208.5240478515625 96.5218505859375 204.71234130859375 93.30229187011719 L 202.711669921875 95.82713317871094" stroke-width="0.6000000238418579" fill="rgb(70, 150, 179)" opacity="1.0"/>
    <path d="M 254.41131591796875 126.52243041992188 C 248.60455322265625 126.0980224609375 242.15036010742188 125.87139892578125 237.68124389648438 129.5972900390625 C 232.8828125 133.6026153564453 232.2147216796875 140.96177673339844 234.20761108398438 146.88583374023438 C 234.97503662109375 149.17022705078125 236.1387939453125 151.41864013671875 238.0604248046875 152.87237548828125 C 239.63970947265625 154.0680389404297 241.59713745117188 154.63314819335938 243.52923583984375 155.067626953125 C 249.62054443359375 156.445068359375 256.4297180175781 156.674560546875 261.6797790527344 153.29498291015625 C 266.9686584472656 149.88523864746094 269.66571044921875 142.87652587890625 267.9902648925781 136.80516052246094 C 266.3148193359375 130.73379516601562 260.4566955566406 126.05003356933594 254.15911865234375 125.80279541015625 L 254.41131591796875 126.52243041992188" stroke-width="0.6000000238418579" fill="rgb(140, 28, 33)" opacity="1.0"/>
    <path d="M 290.85308837890625 123.14431762695312 C 285.0168762207031 125.779052734375 278.9730224609375 128.5849609375 274.7712707519531 133.42308044433594 C 270.5696105957031 138.26116943359375 268.7361145019531 145.80531311035156 272.2237854003906 151.1796417236328 C 276.54376220703125 157.8040771484375 287.1437683105469 157.7586669921875 293.15789794921875 152.60084533691406 C 299.1719970703125 147.44302368164062 301.30364990234375 138.99850463867188 301.3821716308594 131.0858612060547 C 301.6518859863281 128.6388702392578 300.9945373535156 126.17977905273438 299.539794921875 124.19383239746094 C 297.9097900390625 122.40254211425781 294.38604736328125 122.26675415039062 293.38201904296875 124.48394775390625 L 290.85308837890625 123.14431762695312" stroke-width="0.6000000238418579" fill="rgb(159, 159, 159)" opacity="1.0"/>
    <path d="M 195.58944702148438 134.20193481445312 C 192.37692260742188 129.02609252929688 187.32107543945312 124.83818054199219 181.38580322265625 123.48054504394531 C 175.45050048828125 122.12289428710938 168.6923828125 123.91879272460938 164.78216552734375 128.61932373046875 C 162.02182006835938 131.94615173339844 160.87164306640625 136.4229278564453 161.06463623046875 140.7452850341797 C 161.25759887695312 145.06765747070312 162.69638061523438 149.2556915283203 164.63580322265625 153.12417602539062 C 165.48077392578125 154.80715942382812 166.48895263671875 156.5113525390625 168.0994873046875 157.47793579101562 C 169.9454345703125 158.58697509765625 172.24029541015625 158.52496337890625 174.39120483398438 158.32669067382812 C 180.463623046875 157.76687622070312 186.68157958984375 156.255126953125 191.410888671875 152.4040069580078 C 196.14019775390625 148.55288696289062 198.9771728515625 141.91139221191406 196.99005126953125 136.16122436523438 L 195.58944702148438 134.20193481445312" stroke-width="0.6000000238418579" fill="rgb(159, 159, 159)" opacity="1.0"/>
    <path d="M 276.8649597167969 99.08413696289062 C 271.403564453125 99.42213439941406 265.3476257324219 100.03440856933594 261.6912536621094 104.09089660644531 C 258.1298522949219 108.03083801269531 258.01287841796875 113.90557861328125 258.1914978027344 119.2159423828125 C 258.2672424316406 121.37310791015625 258.380859375 123.62861633300781 259.4673156738281 125.49234008789062 C 261.30303955078125 128.64556884765625 265.31292724609375 129.74691772460938 268.94781494140625 129.9945068359375 C 272.321533203125 130.22561645507812 275.7109375 129.9710693359375 279.0122985839844 129.23870849609375 C 284.37322998046875 128.05148315429688 289.9836120605469 124.9805908203125 291.3800964355469 119.67236328125 C 292.1382141113281 116.8077392578125 291.5107116699219 113.70333862304688 290.2254638671875 111.02827453613281 C 288.940185546875 108.35322570800781 287.0269470214844 106.03483581542969 285.1054992675781 103.77301025390625 C 283.18408203125 101.51119995117188 281.24761962890625 99.32989501953125 278.6308898925781 98.08660888671875 L 276.8649597167969 99.08413696289062" stroke-width="0.6000000238418579" fill="rgb(218, 166, 20)" opacity="1.0"/>
    <path d="M 224.92898559570312 110.78326416015625 C 225.86953735351562 120.0894775390625 234.17620849609375 126.87120056152344 243.482421875 125.9306640625 C 244.279296875 125.85012817382812 245.06948852539062 125.713134765625 245.84698486328125 125.52078247070312 C 248.80126953125 124.789306640625 251.65411376953125 123.14447021484375 253.202880859375 120.5262451171875 C 254.51187133789062 118.31378173828125 254.7774658203125 115.6458740234375 254.7540283203125 113.07699584960938 C 254.6817626953125 106.20083618164062 252.76971435546875 99.46942138671875 249.21649169921875 93.58201599121094 C 248.27462768554688 92.02738952636719 247.18121337890625 90.49971008300781 245.644775390625 89.52119445800781 C 243.06637573242188 87.87693786621094 239.65695190429688 88.08856201171875 236.81201171875 89.216064453125 C 232.58709716796875 90.88706970214844 229.2244873046875 94.3994140625 227.28387451171875 98.50857543945312 C 225.34320068359375 102.61772155761719 224.743896484375 107.27825927734375 225.097412109375 111.80844116210938 L 224.92898559570312 110.78326416015625" stroke-width="0.6000000238418579" fill="rgb(143, 165, 67)" opacity="1.0"/>
    <path d="M 248.2362060546875 86.59185791015625 C 248.81622314453125 97.95407104492188 264.6728210449219 104.67385864257812 273.7089538574219 97.88243103027344 C 282.74505615234375 91.09097290039062 281.22900390625 74.78070068359375 271.429443359375 68.99421691894531 C 261.6299133300781 63.207733154296875 247.3447265625 68.7891845703125 243.27359008789062 79.42782592773438 L 248.2362060546875 86.59185791015625" stroke-width="0.6000000238418579" fill="rgb(233, 92, 21)" opacity="1.0"/>
    <path d="M 338.94140625 69.9736328125 C 336.5656433105469 65.03277587890625 333.21533203125 59.37721252441406 327.7212219238281 59.10063171386719 C 325.5305480957031 59.075653076171875 323.38604736328125 59.73106384277344 321.58367919921875 60.97651672363281 C 317.0411376953125 63.93806457519531 314.2158508300781 68.91763305664062 314.00372314453125 74.33615112304688 C 313.8355407714844 78.93301391601562 315.6231384277344 83.31198120117188 317.4487609863281 87.50344848632812 C 318.4781188964844 89.85629272460938 319.64666748046875 92.32330322265625 321.79296875 93.707763671875 C 324.6689453125 95.5296630859375 328.4372253417969 94.88937377929688 331.66851806640625 93.82070922851562 C 336.3995056152344 92.26263427734375 340.8470764160156 89.94908142089844 344.8387756347656 86.96978759765625 C 346.21600341796875 85.937744140625 347.58807373046875 84.76535034179688 348.2560729980469 83.179931640625 C 348.8017883300781 81.67404174804688 348.89752197265625 80.04190063476562 348.5316467285156 78.48251342773438 C 347.6058044433594 73.70913696289062 344.6325988769531 69.58219909667969 340.39794921875 67.19261169433594 L 338.94140625 69.9736328125" stroke-width="0.6000000238418579" fill="rgb(70, 150, 179)" opacity="1.0"/>
    <path d="M 330.9156188964844 136.86077880859375 C 331.136962890625 130.9989776611328 331.1361999511719 124.49234008789062 327.2261047363281 120.1246337890625 C 323.02301025390625 115.43525695800781 315.5894775390625 115.02360534667969 309.6953430175781 117.24038696289062 C 307.4224548339844 118.0941162109375 305.1998291015625 119.34564208984375 303.80426025390625 121.33209228515625 C 302.6564025878906 122.96464538574219 302.1568298339844 124.95559692382812 301.78790283203125 126.91642761230469 C 300.6170654296875 133.09849548339844 300.6275329589844 139.96270751953125 304.21661376953125 145.12899780273438 C 307.83746337890625 150.33334350585938 314.9900817871094 152.8003387451172 321.0438232421875 150.89797973632812 C 327.0975341796875 148.99562072753906 331.605712890625 142.93104553222656 331.6312561035156 136.58131408691406 L 330.9156188964844 136.86077880859375" stroke-width="0.6000000238418579" fill="rgb(140, 28, 33)" opacity="1.0"/>
    <path d="M 346.6674499511719 95.42547607421875 C 340.7410888671875 93.78884887695312 334.5563049316406 92.15115356445312 328.4844055175781 93.14462280273438 C 322.4125671386719 94.13809204101562 316.428466796875 98.5831298828125 315.7051086425781 104.69197082519531 C 314.8290100097656 112.23469543457031 322.68365478515625 118.70706176757812 330.2899475097656 118.58990478515625 C 337.8962707519531 118.47276306152344 344.65313720703125 113.54591369628906 349.5675964355469 107.75163269042969 C 351.26861572265625 106.11038208007812 352.29254150390625 103.89120483398438 352.43731689453125 101.531982421875 C 352.33319091796875 99.20889282226562 349.814697265625 96.94589233398438 347.7125244140625 97.96678161621094 L 346.6674499511719 95.42547607421875" stroke-width="0.6000000238418579" fill="rgb(159, 159, 159)" opacity="1.0"/>
    <path d="M 343.34942626953125 117.01754760742188 C 338.3573913574219 119.08317565917969 333.96435546875 122.9041748046875 331.92132568359375 127.90245056152344 C 329.8782958984375 132.90074157714844 330.4763488769531 139.0733184814453 334.02642822265625 143.17218017578125 C 336.5400390625 146.0669403076172 340.2918701171875 147.71832275390625 344.1020812988281 148.1720733642578 C 347.91229248046875 148.62583923339844 351.784423828125 147.97006225585938 355.44903564453125 146.83016967773438 C 357.0434875488281 146.3331756591797 358.67999267578125 145.6964569091797 359.7578430175781 144.4263458251953 C 360.9942321777344 142.97076416015625 361.27056884765625 140.95362854003906 361.4068908691406 139.0428466796875 C 361.791748046875 133.64834594726562 361.3645324707031 127.9893798828125 358.6757507324219 123.29612731933594 C 355.9869689941406 118.60284423828125 350.5838317871094 115.16354370117188 345.2657165527344 116.07414245605469 L 343.34942626953125 117.01754760742188" stroke-width="0.6000000238418579" fill="rgb(159, 159, 159)" opacity="1.0"/>
    <path d="M 364.0756530761719 89.47201538085938 C 359.0945129394531 89.59454345703125 353.56304931640625 89.946533203125 350.0984191894531 93.513916015625 C 346.72418212890625 96.97848510742188 346.418701171875 102.32035827636719 346.4013366699219 107.15869140625 C 346.39715576171875 109.12420654296875 346.4241638183594 111.18049621582031 347.34967041015625 112.91323852539062 C 348.91326904296875 115.84475708007812 352.52484130859375 116.98281860351562 355.8240966796875 117.33125305175781 C 358.88623046875 117.65585327148438 361.9790954589844 117.5390625 365.008056640625 116.98446655273438 C 369.9265441894531 116.08575439453125 375.1358642578125 113.48141479492188 376.5864562988281 108.69841003417969 C 377.3733825683594 106.11737060546875 376.90753173828125 103.27119445800781 375.8286437988281 100.79344177246094 C 374.74969482421875 98.315673828125 373.0872497558594 96.14120483398438 371.4154357910156 94.01791381835938 C 369.7436218261719 91.89462280273438 368.055419921875 89.84410095214844 365.7164001464844 88.62411499023438 L 364.0756530761719 89.47201538085938" stroke-width="0.6000000238418579" fill="rgb(218, 166, 20)" opacity="1.0"/>
    <path d="M 428.0589599609375 138.54922485351562 C 419.75054931640625 138.86825561523438 413.27392578125 145.8621368408203 413.59295654296875 154.17050170898438 C 413.6202392578125 154.8819580078125 413.697998046875 155.59056091308594 413.82562255859375 156.291015625 C 414.3109130859375 158.95245361328125 415.6121826171875 161.5745849609375 417.8492431640625 163.09359741210938 C 419.7396240234375 164.37744140625 422.091796875 164.76080322265625 424.3721923828125 164.88229370117188 C 430.4765625 165.19903564453125 436.554443359375 163.87548828125 441.974365234375 161.0491943359375 C 443.40576171875 160.29974365234375 444.8216552734375 159.41427612304688 445.77484130859375 158.10537719726562 C 447.37640380859375 155.90895080566406 447.37744140625 152.87245178222656 446.53472900390625 150.28604125976562 C 445.2862548828125 146.4452667236328 442.3564453125 143.2675018310547 438.818359375 141.3182373046875 C 435.2802734375 139.36895751953125 431.1787109375 138.57911682128906 427.14007568359375 138.64187622070312 L 428.0589599609375 138.54922485351562" stroke-width="0.6000000238418579" fill="rgb(143, 165, 67)" opacity="1.0"/>
    <path d="M 149.36427307128906 406.9486389160156 C 156.47354125976562 414.736083984375 171.77737426757812 410.2015380859375 174.24099731445312 400.01873779296875 C 176.70458984375 389.8359069824219 166.0103759765625 379.0598449707031 155.58999633789062 380.6934814453125 C 145.1696014404297 382.3271179199219 138.2376251220703 394.7368469238281 141.5928955078125 404.7469177246094 L 149.36427307128906 406.9486389160156" stroke-width="0.6000000238418579" fill="rgb(233, 92, 21)" opacity="1.0"/>
    <path d="M 429.1123046875 201.34991455078125 C 424.62939453125 198.487060546875 418.97760009765625 195.5322265625 414.303955078125 198.1094970703125 C 412.4840087890625 199.20755004882812 411.049560546875 200.84326171875 410.1986389160156 202.79107666015625 C 407.9635009765625 207.55380249023438 408.17547607421875 213.10443115234375 410.7673645019531 217.68280029296875 C 412.9759521484375 221.5609130859375 416.6866455078125 224.26055908203125 420.3330078125 226.7861328125 C 422.3836669921875 228.20150756835938 424.607421875 229.6400146484375 427.0849609375 229.6861572265625 C 430.3878173828125 229.7205810546875 433.1695556640625 227.26812744140625 435.28955078125 224.73654174804688 C 438.39678955078125 221.035400390625 440.884521484375 216.855712890625 442.6561279296875 212.359619140625 C 443.26531982421875 210.80499267578125 443.798583984375 209.13720703125 443.5400390625 207.48818969726562 C 443.2213134765625 205.96722412109375 442.46685791015625 204.5718994140625 441.3687744140625 203.4722900390625 C 438.16748046875 200.0072021484375 433.607421875 198.12088012695312 428.893798828125 198.31192016601562 L 429.1123046875 201.34991455078125" stroke-width="0.6000000238418579" fill="rgb(70, 150, 179)" opacity="1.0"/>
    <path d="M 413.99609375 161.56460571289062 C 413.66790771484375 155.8968505859375 413.066162109375 149.62838745117188 408.89569091796875 145.78167724609375 C 404.4132080078125 141.65213012695312 397.21368408203125 141.9421844482422 391.739990234375 144.62228393554688 C 389.6291198730469 145.6547393798828 387.60345458984375 147.06578063964844 386.4424133300781 149.10845947265625 C 385.48736572265625 150.78729248046875 385.1899719238281 152.7515411376953 385.01568603515625 154.67469787597656 C 384.458740234375 160.73870849609375 385.1028747558594 167.35076904296875 389.037841796875 171.99649047851562 C 393.00689697265625 176.67596435546875 400.1257019042969 178.3919677734375 405.78216552734375 176.00003051757812 C 411.43865966796875 173.60809326171875 415.2216796875 167.3489990234375 414.6597900390625 161.229248046875 L 413.99609375 161.56460571289062" stroke-width="0.6000000238418579" fill="rgb(140, 28, 33)" opacity="1.0"/>
    <path d="M 152.35980224609375 131.45816040039062 C 146.23544311523438 132.89630126953125 139.87857055664062 134.46029663085938 134.9139404296875 138.33143615722656 C 129.9494171142578 142.20254516601562 126.75711059570312 149.1298370361328 129.10482788085938 154.96994018554688 C 132.01893615722656 162.1724853515625 142.2472686767578 164.13031005859375 149.01959228515625 160.29318237304688 C 155.7919158935547 156.4560546875 159.44171142578125 148.71701049804688 161.01153564453125 141.10304260253906 C 161.733642578125 138.79476928710938 161.56423950195312 136.2997589111328 160.53668212890625 134.1103515625 C 159.30340576171875 132.0755157470703 155.9317169189453 131.27920532226562 154.54505920410156 133.22727966308594 L 152.35980224609375 131.45816040039062" stroke-width="0.6000000238418579" fill="rgb(159, 159, 159)" opacity="1.0"/>
    <path d="M 437.58831787109375 166.386474609375 C 432.2276611328125 164.21710205078125 426.0069580078125 163.837158203125 420.69659423828125 166.119384765625 C 415.38629150390625 168.401611328125 411.21075439453125 173.5621337890625 410.8447570800781 179.35498046875 C 410.5911865234375 183.45086669921875 412.21588134765625 187.52691650390625 414.7838134765625 190.7325439453125 C 417.35174560546875 193.93817138671875 420.799560546875 196.34332275390625 424.4522705078125 198.22320556640625 C 426.0423583984375 199.04034423828125 427.76934814453125 199.78240966796875 429.54522705078125 199.6217041015625 C 431.581298828125 199.43844604492188 433.305908203125 198.10604858398438 434.8438720703125 196.74981689453125 C 439.185791015625 192.92083740234375 443.1063232421875 188.28054809570312 444.5758056640625 182.68032836914062 C 446.0452880859375 177.080078125 444.5018310546875 170.40011596679688 439.759033203125 167.1043701171875 L 437.58831787109375 166.386474609375" stroke-width="0.6000000238418579" fill="rgb(159, 159, 159)" opacity="1.0"/>
    <path d="M 412.6737060546875 194.7115478515625 C 412.17852783203125 189.32916259765625 411.3949279785156 183.3677978515625 407.2815856933594 179.8775634765625 C 403.2861022949219 176.4776611328125 397.48211669921875 176.53582763671875 392.24407958984375 176.86920166015625 C 390.1164245605469 177.00778198242188 387.89276123046875 177.1866455078125 386.0846862792969 178.31451416015625 C 383.02557373046875 180.22027587890625 382.05670166015625 184.21206665039062 381.9197082519531 187.808349609375 C 381.7912902832031 191.14630126953125 382.142822265625 194.4853515625 382.96356201171875 197.723388671875 C 384.2942810058594 202.98147583007812 387.4922790527344 208.43020629882812 392.7747497558594 209.652099609375 C 395.6255798339844 210.31591796875 398.6722412109375 209.60455322265625 401.2755126953125 208.2564697265625 C 403.8787536621094 206.9083251953125 406.1112976074219 204.95068359375 408.2877502441406 202.98663330078125 C 410.46417236328125 201.02264404296875 412.5606689453125 199.046142578125 413.71087646484375 196.42568969726562 L 412.6737060546875 194.7115478515625" stroke-width="0.6000000238418579" fill="rgb(218, 166, 20)" opacity="1.0"/>
    <path d="M 443.19635009765625 194.2469482421875 C 440.0609130859375 202.67861938476562 444.35430908203125 212.05563354492188 452.7860107421875 215.19110107421875 C 453.50799560546875 215.4595947265625 454.2481689453125 215.676513671875 455.0008544921875 215.84027099609375 C 457.861083984375 216.46194458007812 461.021240234375 216.25225830078125 463.46856689453125 214.64923095703125 C 465.536865234375 213.29476928710938 466.897705078125 211.10458374023438 467.96710205078125 208.8773193359375 C 470.8212890625 202.91146850585938 472.026123046875 196.29019165039062 471.456298828125 189.7012939453125 C 471.302734375 187.95993041992188 471.00689697265625 186.17752075195312 470.09576416015625 184.68121337890625 C 468.567626953125 182.1683349609375 465.5350341796875 180.90484619140625 462.60107421875 180.67138671875 C 458.24560546875 180.32168579101562 453.8533935546875 181.9271240234375 450.43536376953125 184.65081787109375 C 447.017333984375 187.37451171875 444.52325439453125 191.14306640625 442.9068603515625 195.20330810546875 L 443.19635009765625 194.2469482421875" stroke-width="0.6000000238418579" fill="rgb(143, 165, 67)" opacity="1.0"/>
    <path d="M 142.38865661621094 95.39762878417969 C 131.76336669921875 104.06948852539062 136.5502471923828 124.27072143554688 149.5970001220703 128.20346069335938 C 162.64376831054688 132.13612365722656 177.40847778320312 119.02377319335938 176.03729248046875 105.37344360351562 C 174.66607666015625 91.72311401367188 159.049072265625 81.82708740234375 145.80760192871094 85.46368408203125 L 142.38865661621094 95.39762878417969" stroke-width="0.6000000238418579" fill="rgb(233, 92, 21)" opacity="1.0"/>
    <path d="M 452.80548095703125 154.2626495361328 C 447.2392578125 156.20391845703125 440.7916259765625 159.10015869140625 439.8321533203125 164.93695068359375 C 439.5406494140625 167.27459716796875 439.9818115234375 169.64508056640625 441.0947265625 171.72137451171875 C 443.71002197265625 176.93280029296875 448.6890869140625 180.55331420898438 454.452880859375 181.434814453125 C 459.3441162109375 182.1700439453125 464.2388916015625 180.78927612304688 468.93798828125 179.34521484375 C 471.5762939453125 178.52975463867188 474.3533935546875 177.579345703125 476.092041015625 175.45343017578125 C 478.38623046875 172.60073852539062 478.15753173828125 168.4970703125 477.40625 164.9154052734375 C 476.313232421875 159.67227172851562 474.3787841796875 154.64059448242188 471.67791748046875 150.01556396484375 C 470.74169921875 148.41932678222656 469.65484619140625 146.81163024902344 468.0416259765625 145.9062957763672 C 466.49859619140625 145.1412353515625 464.7662353515625 144.84169006347656 463.055908203125 145.04417419433594 C 457.8438720703125 145.45652770996094 453.0750732421875 148.13453674316406 450.0101318359375 152.37030029296875 L 452.80548095703125 154.2626495361328" stroke-width="0.6000000238418579" fill="rgb(70, 150, 179)" opacity="1.0"/>
    <path d="M 379.0066833496094 80.31246948242188 C 381.57183837890625 74.51069641113281 384.1715087890625 67.97216796875 381.9880676269531 62.02056884765625 C 379.63873291015625 55.62860107421875 372.3336486816406 52.24406433105469 365.5249328613281 52.115936279296875 C 362.8998107910156 52.0654296875 360.1662292480469 52.43475341796875 357.969970703125 53.873077392578125 C 356.1640625 55.05479431152344 354.8663635253906 56.855743408203125 353.71197509765625 58.67864990234375 C 350.06475830078125 64.42279052734375 347.3319091796875 71.32449340820312 348.8736267089844 77.95027160644531 C 350.43206787109375 84.62698364257812 356.6334533691406 89.96456909179688 363.4768371582031 90.472412109375 C 370.32025146484375 90.98025512695312 377.2740783691406 86.68801879882812 379.8374938964844 80.31765747070312 L 379.0066833496094 80.31246948242188" stroke-width="0.6000000238418579" fill="rgb(140, 28, 33)" opacity="1.0"/>
    <path d="M 130.4104766845703 408.1242370605469 C 126.26486206054688 414.565185546875 122.0220947265625 421.3131103515625 120.95046997070312 428.9031982421875 C 119.87887573242188 436.4931640625 122.94485473632812 445.25958251953125 129.94174194335938 448.38671875 C 138.58729553222656 452.2276611328125 149.19964599609375 445.28778076171875 151.88287353515625 436.197998046875 C 154.5660858154297 427.1082763671875 151.2138671875 417.2440185546875 146.1463165283203 409.2490234375 C 144.8255615234375 406.6169738769531 142.5662384033203 404.5757141113281 139.8140869140625 403.528076171875 C 137.0125732421875 402.78985595703125 133.38661193847656 404.94537353515625 133.82069396972656 407.8243408203125 L 130.4104766845703 408.1242370605469" stroke-width="0.6000000238418579" fill="rgb(159, 159, 159)" opacity="1.0"/>
    <path d="M 414.9320068359375 223.26629638671875 C 411.4374084472656 217.50482177734375 405.8926696777344 212.815185546875 399.3430480957031 211.24609375 C 392.7934265136719 209.67706298828125 385.2978820800781 211.5867919921875 380.91943359375 216.74163818359375 C 377.8284606933594 220.39013671875 376.5054016113281 225.328857421875 376.6697998046875 230.11199951171875 C 376.8341979980469 234.8951416015625 378.37811279296875 239.54388427734375 380.4794006347656 243.8448486328125 C 381.3949279785156 245.71597290039062 382.4906921386719 247.6124267578125 384.2611389160156 248.6998291015625 C 386.29034423828125 249.94747924804688 388.82940673828125 249.90496826171875 391.2107849121094 249.7100830078125 C 397.9338684082031 249.1597900390625 404.8287048339844 247.55819702148438 410.1034851074219 243.3521728515625 C 415.3782958984375 239.1461181640625 418.5916748046875 231.83218383789062 416.458984375 225.4493408203125 L 414.9320068359375 223.26629638671875" stroke-width="0.6000000238418579" fill="rgb(159, 159, 159)" opacity="1.0"/>
    <path d="M 383.4964599609375 111.50396728515625 C 377.15899658203125 111.77398681640625 370.12628173828125 112.34866333007812 365.79803466796875 116.96878051757812 C 361.58245849609375 121.4559326171875 361.3159484863281 128.26234436035156 361.40460205078125 134.4212188720703 C 361.4443054199219 136.9231414794922 361.5257263183594 139.53988647460938 362.7434387207031 141.72421264648438 C 364.8008117675781 145.41983032226562 369.42388916015625 146.78570556640625 373.6313171386719 147.15367126464844 C 377.5364074707031 147.49671936035156 381.47052001953125 147.27723693847656 385.313232421875 146.50196838378906 C 391.5531921386719 145.24542236328125 398.124267578125 141.8112030029297 399.86114501953125 135.68991088867188 C 400.80364990234375 132.38661193847656 400.14556884765625 128.77450561523438 398.71551513671875 125.6453857421875 C 397.28546142578125 122.51626586914062 395.11962890625 119.78652954101562 392.9430236816406 117.12217712402344 C 390.7664489746094 114.45782470703125 388.5706481933594 111.88645935058594 385.5654602050781 110.38714599609375 L 383.4964599609375 111.50396728515625" stroke-width="0.6000000238418579" fill="rgb(218, 166, 20)" opacity="1.0"/>
    <path d="M 402.37255859375 83.69125366210938 C 395.02398681640625 76.58662414550781 383.3073425292969 76.78439331054688 376.2027282714844 84.13296508789062 C 375.5943603515625 84.76220703125 375.0314025878906 85.433837890625 374.51806640625 86.14277648925781 C 372.56805419921875 88.8369140625 371.3468017578125 92.22193908691406 371.900634765625 95.49967956542969 C 372.3683776855469 98.2696533203125 374.0283203125 100.68388366699219 375.85968017578125 102.81161499023438 C 380.76959228515625 108.500244140625 387.1131286621094 112.77047729492188 394.2312927246094 115.1787109375 C 396.1139221191406 115.81210327148438 398.1040344238281 116.31608581542969 400.0766296386719 116.04925537109375 C 403.38848876953125 115.60324096679688 406.0851135253906 113.02198791503906 407.66461181640625 110.07437133789062 C 410.01263427734375 105.69984436035156 410.3422546386719 100.396484375 409.0639953613281 95.59785461425781 C 407.7857666015625 90.79922485351562 404.9990539550781 86.486328125 401.5089111328125 82.95431518554688 L 402.37255859375 83.69125366210938" stroke-width="0.6000000238418579" fill="rgb(143, 165, 67)" opacity="1.0"/>
    <path d="M 116.09170532226562 429.08837890625 C 111.491943359375 417.74957275390625 93.01039123535156 416.5194091796875 86.22720336914062 426.608642578125 C 79.44406127929688 436.697998046875 86.74128723144531 452.7333984375 98.73968505859375 455.1533203125 C 110.73806762695312 457.5732421875 123.28115844726562 446.86053466796875 123.66217041015625 434.6151123046875 L 116.09170532226562 429.08837890625" stroke-width="0.6000000238418579" fill="rgb(233, 92, 21)" opacity="1.0"/>
    <path d="M 453.79534912109375 218.55572509765625 C 447.622802734375 217.92218017578125 440.18377685546875 217.8055419921875 436.6641845703125 222.94143676757812 C 435.34307861328125 225.039794921875 434.70562744140625 227.4964599609375 434.83990478515625 229.97244262695312 C 435.0072021484375 236.10760498046875 438.1378173828125 241.78109741210938 443.239013671875 245.19378662109375 C 447.5736083984375 248.07757568359375 452.85595703125 248.94586181640625 457.97998046875 249.66641235351562 C 460.8590087890625 250.0665283203125 463.9305419921875 250.39990234375 466.5367431640625 249.14923095703125 C 469.9969482421875 247.45370483398438 471.6103515625 243.439697265625 472.4925537109375 239.69003295898438 C 473.7906494140625 234.20401000976562 474.192138671875 228.5440673828125 473.681640625 222.92971801757812 C 473.50146484375 220.990234375 473.18292236328125 218.97256469726562 472.04913330078125 217.38955688476562 C 470.91961669921875 215.97158813476562 469.40185546875 214.91290283203125 467.6810302734375 214.34259033203125 C 462.5284423828125 212.40960693359375 456.7872314453125 212.834228515625 451.97509765625 215.50424194335938 L 453.79534912109375 218.55572509765625" stroke-width="0.6000000238418579" fill="rgb(70, 150, 179)" opacity="1.0"/>
    <path d="M 431.603515625 133.98385620117188 C 433.2969970703125 127.7623291015625 434.91278076171875 120.795166015625 431.811279296875 115.14694213867188 C 428.4759521484375 109.08149719238281 420.6187744140625 106.79379272460938 413.7568359375 107.70294189453125 C 411.1109924316406 108.05235290527344 408.4201965332031 108.8402099609375 406.43231201171875 110.62045288085938 C 404.797607421875 112.08331298828125 403.7680358886719 114.09100341796875 402.8858337402344 116.09889221191406 C 400.0961608886719 122.42744445800781 398.40191650390625 129.77987670898438 400.9612731933594 136.2034454345703 C 403.54522705078125 142.6756134033203 410.5909729003906 147.0942840576172 417.545654296875 146.56143188476562 C 424.50030517578125 146.02859497070312 430.834228515625 140.65505981445312 432.43927001953125 133.8624267578125 L 431.603515625 133.98385620117188" stroke-width="0.6000000238418579" fill="rgb(140, 28, 33)" opacity="1.0"/>
    <path d="M 382.7156066894531 57.22358703613281 C 384.02020263671875 64.18759155273438 385.4544982910156 71.41966247558594 389.5557861328125 77.20339965820312 C 393.6570129394531 82.98701477050781 401.2874450683594 86.93313598632812 407.97821044921875 84.59065246582031 C 416.23077392578125 81.68064880371094 418.95697021484375 70.27310180664062 414.9864501953125 62.457305908203125 C 411.0159912109375 54.641510009765625 402.4956970214844 50.139129638671875 394.0096740722656 47.983245849609375 C 391.4496154785156 47.05268859863281 388.6338806152344 47.1156005859375 386.1180114746094 48.159637451171875 C 383.7655334472656 49.44305419921875 382.69708251953125 53.19572448730469 384.8178405761719 54.85554504394531 L 382.7156066894531 57.22358703613281" stroke-width="0.6000000238418579" fill="rgb(159, 159, 159)" opacity="1.0"/>
    <path d="M 435.144775390625 246.4630126953125 C 429.15582275390625 249.7955322265625 424.17822265625 255.25262451171875 422.33404541015625 261.849853515625 C 420.48992919921875 268.4471130371094 422.14556884765625 276.1382141113281 427.21826171875 280.7846984863281 C 430.808837890625 284.0652770996094 435.77813720703125 285.5980224609375 440.64593505859375 285.613037109375 C 445.5137939453125 285.6280822753906 450.2974853515625 284.23583984375 454.7489013671875 282.26385498046875 C 456.68560791015625 281.4045715332031 458.65484619140625 280.363037109375 459.8275146484375 278.60498046875 C 461.1728515625 276.5899963378906 461.226318359375 274.0076904296875 461.118896484375 271.5798645019531 C 460.8155517578125 264.72564697265625 459.4501953125 257.65679931640625 455.3760986328125 252.13540649414062 C 451.3018798828125 246.614013671875 443.99041748046875 243.0694580078125 437.4217529296875 244.994140625 L 435.144775390625 246.4630126953125" stroke-width="0.6000000238418579" fill="rgb(159, 159, 159)" opacity="1.0"/>
    <path d="M 415.740234375 261.5417175292969 C 411.3929443359375 255.97796630859375 406.3197326660156 249.98193359375 399.3341979980469 249.0537109375 C 392.5420227050781 248.14141845703125 386.2063293457031 252.30645751953125 380.6868896484375 256.3738708496094 C 378.4471435546875 258.0295104980469 376.1304016113281 259.7972717285156 374.9408264160156 262.31402587890625 C 372.9263610839844 266.5694274902344 374.68243408203125 271.6398010253906 377.0730895996094 275.6878356933594 C 379.29052734375 279.4459533691406 382.0361328125 282.8662109375 385.225830078125 285.8438720703125 C 390.40325927734375 290.6806640625 397.7669372558594 294.407470703125 404.43414306640625 292.01739501953125 C 408.0354309082031 290.7323303222656 410.880126953125 287.7980041503906 412.78778076171875 284.4773864746094 C 414.69537353515625 281.15673828125 415.7650146484375 277.42840576171875 416.7684326171875 273.732666015625 C 417.77197265625 270.03692626953125 418.67877197265625 266.38397216796875 418.0909423828125 262.6921691894531 L 415.740234375 261.5417175292969" stroke-width="0.6000000238418579" fill="rgb(218, 166, 20)" opacity="1.0"/>
    <path d="M 409.812744140625 86.50433349609375 C 406.25238037109375 96.21524047851562 411.2383728027344 106.9737548828125 420.94927978515625 110.53413391113281 C 421.78082275390625 110.83901977539062 422.6329345703125 111.08450317382812 423.499267578125 111.268798828125 C 426.7911376953125 111.96842956542969 430.42333984375 111.71063232421875 433.228759765625 109.85459899902344 C 435.599609375 108.28634643554688 437.15264892578125 105.760986328125 438.370361328125 103.19450378417969 C 441.6204833984375 96.32015991210938 442.9705810546875 88.70097351074219 442.280517578125 81.12841796875 C 442.09478759765625 79.1270751953125 441.7452392578125 77.07931518554688 440.68975830078125 75.36376953125 C 438.91943359375 72.48265075683594 435.426025390625 71.0460205078125 432.051513671875 70.7930908203125 C 427.0419921875 70.41409301757812 422.00048828125 72.283203125 418.08502197265625 75.43287658691406 C 414.1695556640625 78.58253479003906 411.3218994140625 82.92864990234375 409.4850158691406 87.60543823242188 L 409.812744140625 86.50433349609375" stroke-width="0.6000000238418579" fill="rgb(143, 165, 67)" opacity="1.0"/>
    <path d="M 434.32666015625 122.50221252441406 C 429.70709228515625 135.0836944580078 443.78759765625 149.690185546875 456.71722412109375 146.50381469726562 C 469.6468505859375 143.31739807128906 475.5374755859375 124.94119262695312 467.590087890625 114.14387512207031 C 459.64276123046875 103.34654235839844 441.58343505859375 102.797119140625 432.25750732421875 112.44613647460938 L 434.32666015625 122.50221252441406" stroke-width="0.6000000238418579" fill="rgb(233, 92, 21)" opacity="1.0"/>
    <path d="M 448.46771240234375 91.01545715332031 C 448.62939453125 97.15644836425781 449.4593505859375 104.47523498535156 454.94891357421875 107.27883911132812 C 457.177001953125 108.30955505371094 459.669921875 108.62350463867188 462.083984375 108.17730712890625 C 468.0865478515625 107.23403930664062 473.259521484375 103.43988037109375 475.96258544921875 97.99800109863281 C 478.24371337890625 93.37591552734375 478.425537109375 88.07917785644531 478.482421875 82.95669555664062 C 478.50970458984375 80.07913208007812 478.447021484375 77.02098083496094 476.88818359375 74.62089538574219 C 474.7840576171875 71.43882751464844 470.6380615234375 70.36436462402344 466.844482421875 69.97419738769531 C 461.293212890625 69.39625549316406 455.68499755859375 69.72064208984375 450.23736572265625 70.93476867675781 C 448.35595703125 71.35789489746094 446.41534423828125 71.92684936523438 445.0050048828125 73.24105834960938 C 443.7562255859375 74.53012084960938 442.909423828125 76.15469360351562 442.5679931640625 77.91670227050781 C 441.32427978515625 83.22122192382812 442.47015380859375 88.80429077148438 445.70269775390625 93.19010925292969 L 448.46771240234375 91.01545715332031" stroke-width="0.6000000238418579" fill="rgb(70, 150, 179)" opacity="1.0"/>
    <path d="M 312.08642578125 365.88543701171875 C 306.2427062988281 363.32659912109375 299.6579284667969 360.7357177734375 293.6805419921875 362.95281982421875 C 287.26092529296875 365.3383483886719 283.88348388671875 372.6968078613281 283.779052734375 379.5444030761719 C 283.7376708984375 382.1845397949219 284.1188659667969 384.9322204589844 285.57318115234375 387.1357421875 C 286.76806640625 388.9476013183594 288.5838317871094 390.24615478515625 290.4211730957031 391.4005126953125 C 296.2108154296875 395.0477600097656 303.1612854003906 397.7712707519531 309.8189392089844 396.19708251953125 C 316.5277404785156 394.6059265136719 321.87322998046875 388.3503723144531 322.3594055175781 381.4665222167969 C 322.8455810546875 374.5826721191406 318.5041809082031 367.6049499511719 312.0886535644531 365.0499267578125 L 312.08642578125 365.88543701171875" stroke-width="0.6000000238418579" fill="rgb(140, 28, 33)" opacity="1.0"/>
    <path d="M 295.9411926269531 393.8655090332031 C 288.1231689453125 391.0593566894531 279.9571228027344 388.2255859375 271.6761779785156 388.9479675292969 C 263.3953857421875 389.67034912109375 254.88253784179688 395.0516662597656 253.28826904296875 403.20819091796875 C 251.3427734375 413.2808837890625 261.2679443359375 422.7974853515625 271.5271301269531 423.41131591796875 C 281.78631591796875 424.025146484375 291.38909912109375 418.07318115234375 298.5977783203125 410.76568603515625 C 301.055908203125 408.7271423339844 302.6604919433594 405.8413391113281 303.0948791503906 402.6776123046875 C 303.1902770996094 399.5373840332031 300.0269470214844 396.2331237792969 297.09130859375 397.39520263671875 L 295.9411926269531 393.8655090332031" stroke-width="0.6000000238418579" fill="rgb(159, 159, 159)" opacity="1.0"/>
    <path d="M 323.7708740234375 414.95770263671875 C 318.8822021484375 419.6806640625 315.5052185058594 426.181396484375 315.42236328125 432.9747314453125 C 315.3394775390625 439.76812744140625 318.88995361328125 446.7161865234375 324.9377746582031 449.8740234375 C 329.2164611816406 452.1011962890625 334.37017822265625 452.30126953125 339.0390930175781 451.07275390625 C 343.70806884765625 449.84429931640625 347.93707275390625 447.28857421875 351.69964599609375 444.26220703125 C 353.33624267578125 442.94415283203125 354.9575500488281 441.4432373046875 355.63250732421875 439.45892333984375 C 356.4073486328125 437.18438720703125 355.7992248535156 434.6959228515625 355.0763854980469 432.39666748046875 C 353.0356140136719 425.9052734375 349.9222412109375 419.4794921875 344.6080017089844 415.228271484375 C 339.2937316894531 410.97705078125 331.3816833496094 409.44696044921875 325.5780029296875 412.9686279296875 L 323.7708740234375 414.95770263671875" stroke-width="0.6000000238418579" fill="rgb(159, 159, 159)" opacity="1.0"/>
    <path d="M 257.5577087402344 413.84326171875 C 250.57431030273438 413.975830078125 242.81768798828125 414.4256591796875 237.93301391601562 419.39910888671875 C 233.17584228515625 424.2291259765625 232.70559692382812 431.71478271484375 232.64315795898438 438.496826171875 C 232.62185668945312 441.2520751953125 232.64349365234375 444.13470458984375 233.92721557617188 446.5709228515625 C 236.095947265625 450.6925048828125 241.14959716796875 452.3162841796875 245.77166748046875 452.8306884765625 C 250.0615234375 453.30975341796875 254.39794921875 453.17041015625 258.6482238769531 452.41680908203125 C 265.5499267578125 451.19573974609375 272.8726806640625 447.5860595703125 274.9437255859375 440.89276123046875 C 276.0671081542969 437.2808837890625 275.4365234375 433.28759765625 273.943603515625 429.8057861328125 C 272.4507141113281 426.3240966796875 270.137451171875 423.26287841796875 267.8106384277344 420.2733154296875 C 265.4838562011719 417.2838134765625 263.13348388671875 414.39617919921875 259.86431884765625 412.6676025390625 L 257.5577087402344 413.84326171875" stroke-width="0.6000000238418579" fill="rgb(218, 166, 20)" opacity="1.0"/>
    <path d="M 221.78192138671875 411.72027587890625 C 211.64202880859375 404.9118347167969 197.9027099609375 407.612548828125 191.09426879882812 417.75244140625 C 190.51126098632812 418.6207275390625 189.9906005859375 419.529296875 189.5361328125 420.47125244140625 C 187.81005859375 424.05084228515625 187.086669921875 428.28955078125 188.42852783203125 432.028076171875 C 189.56222534179688 435.1876220703125 192.023193359375 437.677490234375 194.62539672851562 439.79437255859375 C 201.59869384765625 445.4510498046875 209.95941162109375 449.13739013671875 218.83905029296875 450.470458984375 C 221.186767578125 450.81890869140625 223.63372802734375 450.99249267578125 225.89764404296875 450.26312255859375 C 229.6990966796875 449.0408935546875 232.32708740234375 445.436767578125 233.56396484375 441.6370849609375 C 235.40420532226562 435.9971923828125 234.67474365234375 429.6900634765625 232.16046142578125 424.315185546875 C 229.64617919921875 418.9403076171875 225.45999145507812 414.45458984375 220.61090087890625 411.0354309082031 L 221.78192138671875 411.72027587890625" stroke-width="0.6000000238418579" fill="rgb(143, 165, 67)" opacity="1.0"/>
    <path d="M 259.5368347167969 361.6711730957031 C 265.7420959472656 373.8951416015625 286.49017333984375 373.52392578125 293.1102600097656 361.62042236328125 C 299.73028564453125 349.7168884277344 290.0703430175781 332.5044250488281 276.4474792480469 330.9355163574219 C 262.8245849609375 329.3666076660156 249.833251953125 342.5097961425781 250.56378173828125 356.2159729003906 L 259.5368347167969 361.6711730957031" stroke-width="0.6000000238418579" fill="rgb(233, 92, 21)" opacity="1.0"/>
    <path d="M 327.50518798828125 347.456787109375 C 322.3944396972656 352.0006408691406 316.76080322265625 357.9584045410156 318.31341552734375 364.642333984375 C 319.0348205566406 367.2782287597656 320.5563659667969 369.62530517578125 322.668212890625 371.3597717285156 C 327.7779846191406 375.7918701171875 334.7190246582031 377.4723815917969 341.2901916503906 375.8683776855469 C 346.86090087890625 374.49346923828125 351.49951171875 370.84771728515625 355.90020751953125 367.2206726074219 C 358.3689270019531 365.17919921875 360.9268493652344 362.9316101074219 361.8511047363281 359.8827209472656 C 363.0497131347656 355.8086853027344 360.9893798828125 351.50897216796875 358.5994873046875 348.00018310546875 C 355.1082763671875 342.8607177734375 350.8081970214844 338.3201904296875 345.8660888671875 334.5547790527344 C 344.1559753417969 333.2570495605469 342.2793273925781 332.01361083984375 340.1488342285156 331.7562255859375 C 338.1556701660156 331.61822509765625 336.1653747558594 332.0632019042969 334.4206848144531 333.0368347167969 C 329.0135192871094 335.78436279296875 325.08380126953125 340.7655944824219 323.67034912109375 346.6637878417969 L 327.50518798828125 347.456787109375" stroke-width="0.6000000238418579" fill="rgb(70, 150, 179)" opacity="1.0"/>
    <path d="M 296.3996276855469 416.9783935546875 C 289.2649841308594 417.8486328125 281.39337158203125 419.11285400390625 276.868408203125 424.6912841796875 C 272.01116943359375 430.68670654296875 272.9563903808594 439.759765625 276.7826232910156 446.460205078125 C 278.25677490234375 449.044189453125 280.202392578125 451.4901123046875 282.8765869140625 452.7928466796875 C 285.07452392578125 453.8646240234375 287.5802001953125 454.0823974609375 290.0240478515625 454.1480712890625 C 297.7304992675781 454.3642578125 306.0328369140625 453.0189208984375 311.5862731933594 447.673828125 C 317.1795349121094 442.2828369140625 318.7754211425781 433.1505126953125 315.298583984375 426.196044921875 C 311.8217468261719 419.24151611328125 303.6094970703125 414.96490478515625 295.9225769042969 416.1668701171875 L 296.3996276855469 416.9783935546875" stroke-width="0.6000000238418579" fill="rgb(140, 28, 33)" opacity="1.0"/>
    <path d="M 324.86859130859375 377.7823791503906 C 317.6043701171875 381.4862060546875 310.08636474609375 385.42034912109375 305.0341796875 391.82806396484375 C 299.9820861816406 398.2357177734375 298.105712890625 407.94232177734375 302.8665771484375 414.5675048828125 C 308.7615966796875 422.7325439453125 322.24163818359375 422.034423828125 329.5797119140625 415.110595703125 C 336.9178161621094 408.1867370605469 339.1190490722656 397.31689453125 338.74090576171875 387.2475891113281 C 338.9361267089844 384.11883544921875 337.9514465332031 381.03070068359375 335.9811096191406 378.592529296875 C 333.7995910644531 376.4125671386719 329.309326171875 376.4527282714844 328.1662292480469 379.33355712890625 L 324.86859130859375 377.7823791503906" stroke-width="0.6000000238418579" fill="rgb(159, 159, 159)" opacity="1.0"/>
    <path d="M 367.9077453613281 411.64990234375 C 361.8261413574219 415.3485107421875 356.8792419433594 421.2113037109375 355.22991943359375 428.1317138671875 C 353.5805969238281 435.0521240234375 355.6071472167969 442.9674072265625 361.0577697753906 447.5860595703125 C 364.9155578613281 450.8466796875 370.134033203125 452.238037109375 375.18634033203125 452.0584716796875 C 380.2386779785156 451.87890625 385.1473083496094 450.2423095703125 389.6878967285156 448.017333984375 C 391.66326904296875 447.0479736328125 393.6651611328125 445.88812255859375 394.8116455078125 444.0166015625 C 396.1270446777344 441.87158203125 396.0789794921875 439.1895751953125 395.8701477050781 436.67431640625 C 395.2805480957031 429.5733642578125 393.5802307128906 422.29217529296875 389.13079833984375 416.72552490234375 C 384.6813659667969 411.1588439941406 376.9515380859375 407.7735290527344 370.2118835449219 410.03424072265625 L 367.9077453613281 411.64990234375" stroke-width="0.6000000238418579" fill="rgb(159, 159, 159)" opacity="1.0"/>
    <path d="M 248.37417602539062 365.6158752441406 C 249.5843505859375 358.5858154296875 250.62493896484375 350.7191162109375 246.57589721679688 344.86309814453125 C 242.64620971679688 339.16253662109375 235.228271484375 337.25115966796875 228.4376220703125 335.8841247558594 C 225.67819213867188 335.3328552246094 222.78262329101562 334.8001403808594 220.0921630859375 335.61920166015625 C 215.5408935546875 337.0018005371094 212.94027709960938 341.75848388671875 211.53536987304688 346.2956237792969 C 210.229736328125 350.50634765625 209.5355224609375 354.88275146484375 209.47390747070312 359.29083251953125 C 209.37127685546875 366.44830322265625 211.58355712890625 374.4875183105469 217.8988037109375 377.8521728515625 C 221.30551147460938 379.6736145019531 225.4322509765625 379.8091735839844 229.21170043945312 378.98138427734375 C 232.99114990234375 378.1535949707031 236.50653076171875 376.4220886230469 239.95263671875 374.6632080078125 C 243.39874267578125 372.9043273925781 246.7471923828125 371.10223388671875 249.1097412109375 368.1556091308594 L 248.37417602539062 365.6158752441406" stroke-width="0.6000000238418579" fill="rgb(218, 166, 20)" opacity="1.0"/>
    <path d="M 251.4132080078125 391.5754089355469 C 247.89666748046875 380.3807067871094 235.97088623046875 374.15631103515625 224.77618408203125 377.6728515625 C 223.81756591796875 377.9739685058594 222.88153076171875 378.34271240234375 221.97509765625 378.77630615234375 C 218.53118896484375 380.4244689941406 215.44354248046875 383.16900634765625 214.205078125 386.7785949707031 C 213.15817260742188 389.828857421875 213.50872802734375 393.1739196777344 214.18927001953125 396.3240051269531 C 216.02249145507812 404.7535095214844 220.079345703125 412.53839111328125 225.9383544921875 418.8699951171875 C 227.48989868164062 420.541015625 229.2208251953125 422.1405029296875 231.356689453125 422.952880859375 C 234.94155883789062 424.31878662109375 239.07656860351562 423.19384765625 242.28573608398438 421.08685302734375 C 247.0523681640625 417.9620361328125 250.29244995117188 412.7938232421875 251.6341552734375 407.2530822753906 C 252.97589111328125 401.71240234375 252.52981567382812 395.8345642089844 250.9461669921875 390.358642578125 L 251.4132080078125 391.5754089355469" stroke-width="0.6000000238418579" fill="rgb(143, 165, 67)" opacity="1.0"/>
    <path d="M 194.4454345703125 370.438232421875 C 180.11477661132812 367.3008117675781 166.37054443359375 384.742919921875 171.7496337890625 398.2896728515625 C 177.12875366210938 411.83642578125 197.93231201171875 415.489990234375 208.45840454101562 405.265380859375 C 218.98452758789062 395.0408020019531 216.89328002929688 375.3755798339844 205.04232788085938 366.6982421875 L 194.4454345703125 370.438232421875" stroke-width="0.6000000238418579" fill="rgb(233, 92, 21)" opacity="1.0"/>
    <path d="M 251.18295288085938 372.5904235839844 C 247.797607421875 378.1828918457031 244.33370971679688 385.2143249511719 247.63824462890625 390.8807678222656 C 249.04104614257812 393.0845642089844 251.0931396484375 394.7987976074219 253.51150512695312 395.7868957519531 C 259.4293212890625 398.3927307128906 266.2430419921875 397.96856689453125 271.7920227050781 394.6489562988281 C 276.4918518066406 391.8209533691406 279.699462890625 387.1819763183594 282.695068359375 382.62725830078125 C 284.3736572265625 380.0659484863281 286.0755310058594 377.2912292480469 286.0591735839844 374.2457275390625 C 286.0040588378906 370.1865234375 282.90875244140625 366.8409423828125 279.7356872558594 364.310791015625 C 275.09649658203125 360.6020812988281 269.88763427734375 357.6687316894531 264.31109619140625 355.62451171875 C 262.3829345703125 354.9219055175781 260.3179931640625 354.3158874511719 258.2995300292969 354.68212890625 C 256.44012451171875 355.11865234375 254.7479248046875 356.0867919921875 253.42926025390625 357.46844482421875 C 249.26617431640625 361.5039367675781 247.08294677734375 367.16253662109375 247.4566650390625 372.948486328125 L 251.18295288085938 372.5904235839844" stroke-width="0.6000000238418579" fill="rgb(70, 150, 179)" opacity="1.0"/>
    <path d="M 327.30987548828125 352.1535949707031 C 327.11883544921875 345.3003845214844 326.61932373046875 337.7121276855469 321.72454833984375 332.9179382324219 C 316.46337890625 327.7710876464844 307.7625732421875 327.8606262207031 301.0584411621094 330.8975830078125 C 298.4731140136719 332.0674133300781 295.9769287109375 333.69732666015625 294.5015563964844 336.1209411621094 C 293.2879638671875 338.11285400390625 292.85791015625 340.4730529785156 292.57794189453125 342.7881164550781 C 291.6861877441406 350.0876159667969 292.2243957519531 358.0921325683594 296.8059997558594 363.8422546386719 C 301.4275817871094 369.6343078613281 309.95831298828125 371.96331787109375 316.87261962890625 369.28082275390625 C 323.7869567871094 366.5982971191406 328.5798645019531 359.18011474609375 328.1230773925781 351.7728271484375 L 327.30987548828125 352.1535949707031" stroke-width="0.6000000238418579" fill="rgb(140, 28, 33)" opacity="1.0"/>
    <path d="M 368.3818054199219 392.0097961425781 C 360.6283264160156 390.89892578125 352.5481262207031 389.8284912109375 345.03558349609375 392.06475830078125 C 337.5231628417969 394.301025390625 330.67913818359375 400.8848571777344 330.7518615722656 408.7214050292969 C 330.86322021484375 418.39459228515625 341.8345642089844 425.3048095703125 351.4276428222656 423.9281005859375 C 361.020751953125 422.55133056640625 368.76348876953125 415.23382568359375 374.037841796875 407.1177673339844 C 375.9222717285156 404.7689514160156 376.85772705078125 401.7991943359375 376.6595458984375 398.7944641113281 C 376.1527099609375 395.8756408691406 372.60455322265625 393.4227294921875 370.11297607421875 395.0523986816406 L 368.3818054199219 392.0097961425781" stroke-width="0.6000000238418579" fill="rgb(159, 159, 159)" opacity="1.0"/>
    <path d="M 174.07638549804688 408.418701171875 C 166.92166137695312 409.9095458984375 160.12185668945312 413.8841552734375 156.14984130859375 420.014404296875 C 152.17779541015625 426.1446533203125 151.42112731933594 434.499755859375 155.109619140625 440.84033203125 C 157.72311401367188 445.3199462890625 162.29501342773438 448.4581298828125 167.24554443359375 450.01904296875 C 172.19607543945312 451.5799560546875 177.5078125 451.681640625 182.6654052734375 451.087646484375 C 184.90972900390625 450.82781982421875 187.24505615234375 450.392822265625 188.99700927734375 448.97552490234375 C 191.00634765625 447.35150146484375 191.88067626953125 444.73974609375 192.54217529296875 442.23419189453125 C 194.40975952148438 435.1605224609375 195.26437377929688 427.5311279296875 192.87017822265625 420.61688232421875 C 190.47592163085938 413.70263671875 184.15850830078125 407.7728576660156 176.8607177734375 407.64642333984375 L 174.07638549804688 408.418701171875" stroke-width="0.6000000238418579" fill="rgb(159, 159, 159)" opacity="1.0"/>
    <path d="M 372.8934326171875 363.177734375 C 366.8317565917969 360.2483825683594 359.967041015625 357.2548522949219 353.6001281738281 359.4020080566406 C 347.40533447265625 361.48138427734375 343.73883056640625 367.712158203125 340.72955322265625 373.5157775878906 C 339.51055908203125 375.8752136230469 338.2729187011719 378.3630065917969 338.31488037109375 381.01690673828125 C 338.3832702636719 385.5055847167969 342.0204772949219 389.1038818359375 345.7700500488281 391.5603942871094 C 349.2494201660156 393.841796875 353.0383605957031 395.61175537109375 357.0208740234375 396.8161315917969 C 363.4866638183594 398.7740478515625 371.35540771484375 398.8618469238281 376.0528564453125 394.00994873046875 C 378.5926818847656 391.3942565917969 379.79083251953125 387.68621826171875 380.024658203125 384.042236328125 C 380.2584533691406 380.39825439453125 379.60369873046875 376.75830078125 378.90606689453125 373.1741027832031 C 378.2084655761719 369.58990478515625 377.4461975097656 366.0829772949219 375.38885498046875 363.17218017578125 L 372.8934326171875 363.177734375" stroke-width="0.6000000238418579" fill="rgb(218, 166, 20)" opacity="1.0"/>
    <path d="M 375.513427734375 382.3298645019531 C 369.42181396484375 392.374755859375 372.6265869140625 405.4560241699219 382.6714782714844 411.5476379394531 C 383.5316162109375 412.06927490234375 384.4277038574219 412.5291748046875 385.3529357910156 412.924072265625 C 388.86895751953125 414.423583984375 392.97369384765625 414.9305419921875 396.5062561035156 413.4752197265625 C 399.4916687011719 412.2457275390625 401.7748107910156 409.7706604003906 403.6932373046875 407.1764221191406 C 408.8187561035156 400.2252197265625 411.98956298828125 392.0283508300781 412.8763427734375 383.4374084472656 C 413.10687255859375 381.1661682128906 413.1650390625 378.807373046875 412.36370849609375 376.66448974609375 C 411.0206298828125 373.06622314453125 407.4410705566406 370.701171875 403.7353210449219 369.681396484375 C 398.2347106933594 368.1636047363281 392.2069396972656 369.14447021484375 387.1542663574219 371.798828125 C 382.1015625 374.45318603515625 377.97735595703125 378.6745300292969 374.9073791503906 383.4854431152344 L 375.513427734375 382.3298645019531" stroke-width="0.6000000238418579" fill="rgb(143, 165, 67)" opacity="1.0"/>
    <path d="M 367.14703369140625 358.4089050292969 C 370.3387145996094 371.6788024902344 390.5193786621094 376.10284423828125 399.6755065917969 366.10028076171875 C 408.83160400390625 356.09765625 403.4441223144531 337.1997985839844 390.6116943359375 332.5394287109375 C 377.779296875 327.8790588378906 362.1666259765625 337.6134033203125 359.7141418457031 351.056640625 L 367.14703369140625 358.4089050292969" stroke-width="0.6000000238418579" fill="rgb(233, 92, 21)" opacity="1.0"/>
    <path d="M 404.1737060546875 350.0843200683594 C 402.005126953125 356.6425476074219 400.0948791503906 364.701416015625 404.8342590332031 369.7588195800781 C 406.79864501953125 371.69805908203125 409.31640625 372.9799499511719 412.0401611328125 373.4276123046875 C 418.749755859375 374.7165832519531 425.6678466796875 372.6734924316406 430.6007080078125 367.9462585449219 C 434.77490234375 363.925537109375 436.98516845703125 358.39129638671875 438.9969482421875 352.99383544921875 C 440.1220703125 349.96002197265625 441.22088623046875 346.7008972167969 440.486083984375 343.5679016113281 C 439.4725341796875 339.3999328613281 435.4957275390625 336.6836853027344 431.63104248046875 334.82562255859375 C 425.97845458984375 332.09930419921875 419.921875 330.30584716796875 413.6961669921875 329.5148620605469 C 411.5445861816406 329.2456970214844 409.2748718261719 329.1082763671875 407.2821960449219 329.9613342285156 C 405.4699401855469 330.8492431640625 403.9552001953125 332.2453308105469 402.92266845703125 333.9792785644531 C 399.5860290527344 339.1171875 398.67120361328125 345.46014404296875 400.4200744628906 351.3315124511719 L 404.1737060546875 350.0843200683594" stroke-width="0.6000000238418579" fill="rgb(70, 150, 179)" opacity="1.0"/>
    <path d="M 392.73663330078125 425.8873291015625 C 393.01397705078125 433.3160400390625 393.6333312988281 441.53851318359375 398.9896545410156 446.6865234375 C 404.7468566894531 452.213134765625 414.17987060546875 452.02691650390625 421.417724609375 448.6654052734375 C 424.208984375 447.3704833984375 426.89874267578125 445.57763671875 428.4736328125 442.9346923828125 C 429.76904296875 440.7625732421875 430.211181640625 438.1990966796875 430.49102783203125 435.68603515625 C 431.38311767578125 427.76239013671875 430.717529296875 419.08892822265625 425.69097900390625 412.9012451171875 C 420.62066650390625 406.66851806640625 411.3472595214844 404.23065185546875 403.8778381347656 407.21002197265625 C 396.4084167480469 410.18939208984375 391.28765869140625 418.28173828125 391.85882568359375 426.3084716796875 L 392.73663330078125 425.8873291015625" stroke-width="0.6000000238418579" fill="rgb(140, 28, 33)" opacity="1.0"/>
    <path d="M 414.6676025390625 375.5077209472656 C 411.909423828125 383.44012451171875 409.1268310546875 391.72467041015625 409.9407043457031 400.0895080566406 C 410.75457763671875 408.4541931152344 416.281005859375 417.0064697265625 424.54345703125 418.5360107421875 C 434.7467041015625 420.4013671875 444.26788330078125 410.2708740234375 444.7850341796875 399.89251708984375 C 445.3021240234375 389.5141906738281 439.187744140625 379.86572265625 431.72705078125 372.6513977050781 C 429.6412353515625 370.186767578125 426.70751953125 368.5936279296875 423.50457763671875 368.1863708496094 C 420.32879638671875 368.1216125488281 417.02008056640625 371.35308837890625 418.224609375 374.309326171875 L 414.6676025390625 375.5077209472656" stroke-width="0.6000000238418579" fill="rgb(159, 159, 159)" opacity="1.0"/>
    <path d="M 433.54705810546875 370.33062744140625 C 435.70068359375 377.48175048828125 440.351318359375 384.0507507324219 446.945068359375 387.5494689941406 C 453.53875732421875 391.04815673828125 462.111572265625 391.07586669921875 468.23858642578125 386.7573547363281 C 472.56658935546875 383.6986389160156 475.3548583984375 378.76544189453125 476.50390625 373.5870056152344 C 477.6529541015625 368.4085388183594 477.2843017578125 362.9920959472656 476.22119140625 357.79437255859375 C 475.7572021484375 355.5327453613281 475.10687255859375 353.1939697265625 473.50830078125 351.53643798828125 C 471.67645263671875 349.6352844238281 468.93994140625 348.9773254394531 466.3304443359375 348.5265808105469 C 458.9632568359375 347.25408935546875 451.1204833984375 347.06219482421875 444.2945556640625 350.1141052246094 C 437.468505859375 353.166015625 431.99346923828125 360.1242980957031 432.513427734375 367.5647888183594 L 433.54705810546875 370.33062744140625" stroke-width="0.6000000238418579" fill="rgb(159, 159, 159)" opacity="1.0"/>
    <path d="M 437.052734375 411.5009460449219 C 433.1990966796875 417.5899658203125 429.179443359375 424.5252685546875 430.6868896484375 431.55743408203125 C 432.143310546875 438.3983154296875 438.32244873046875 443.05645751953125 444.12738037109375 446.963623046875 C 446.4879150390625 448.54742431640625 448.9825439453125 450.1666259765625 451.80987548828125 450.4453125 C 456.5914306640625 450.9195556640625 460.861083984375 447.49017333984375 463.93017578125 443.8021240234375 C 466.7801513671875 440.380126953125 469.12396240234375 436.566650390625 470.889892578125 432.4783935546875 C 473.759765625 425.8411865234375 474.8118896484375 417.4842529296875 470.2247314453125 411.8978576660156 C 467.752685546875 408.8782958984375 463.95550537109375 407.15240478515625 460.1090087890625 406.45977783203125 C 456.262451171875 405.76715087890625 452.31195068359375 406.0198974609375 448.41552734375 406.3250732421875 C 444.51904296875 406.63018798828125 440.6968994140625 407.0135192871094 437.3509521484375 408.8466491699219 L 437.052734375 411.5009460449219" stroke-width="0.6000000238418579" fill="rgb(218, 166, 20)" opacity="1.0"/>
    <path d="M 136.9696044921875 210.27020263671875 C 133.71060180664062 222.5736083984375 141.04251098632812 235.18939208984375 153.34588623046875 238.44839477539062 C 154.3994140625 238.72747802734375 155.471435546875 238.93145751953125 156.5538330078125 239.05880737304688 C 160.6668701171875 239.5419921875 165.08819580078125 238.8133544921875 168.31466674804688 236.22036743164062 C 171.04150390625 234.02935791015625 172.657470703125 230.758544921875 173.85787963867188 227.4754638671875 C 177.05902099609375 218.68301391601562 177.8475341796875 209.19378662109375 176.14154052734375 199.9935302734375 C 175.68646240234375 197.56240844726562 175.02545166015625 195.093017578125 173.53720092773438 193.11090087890625 C 171.04071044921875 189.78182983398438 166.596923828125 188.41851806640625 162.43341064453125 188.4920654296875 C 156.25210571289062 188.59695434570312 150.2871551513672 191.4600830078125 145.84750366210938 195.76431274414062 C 141.4078369140625 200.06854248046875 138.41246032714844 205.7174072265625 136.6931610107422 211.6566162109375 L 136.9696044921875 210.27020263671875" stroke-width="0.6000000238418579" fill="rgb(143, 165, 67)" opacity="1.0"/>
    <path d="M 170.77761840820312 266.5533142089844 C 180.64578247070312 277.89666748046875 202.61557006835938 271.95526123046875 206.4749755859375 257.5241394042969 C 210.33432006835938 243.093017578125 195.45794677734375 227.36712646484375 180.54833984375 229.34011840820312 C 165.63873291015625 231.3131103515625 155.33384704589844 248.76605224609375 159.77496337890625 263.1495666503906 L 170.77761840820312 266.5533142089844" stroke-width="0.6000000238418579" fill="rgb(233, 92, 21)" opacity="1.0"/>
    <path d="M 141.27151489257812 306.8035583496094 C 133.93756103515625 306.90374755859375 125.1873779296875 307.7840881347656 121.75729370117188 314.2955017089844 C 120.49310302734375 316.9399108886719 120.08062744140625 319.91143798828125 120.57684326171875 322.8001708984375 C 121.61227416992188 329.9806823730469 126.06381225585938 336.2138977050781 132.51983642578125 339.523193359375 C 138.00352478027344 342.3163757324219 144.32435607910156 342.61346435546875 150.43905639648438 342.7587890625 C 153.87405395507812 342.8348693847656 157.52603149414062 342.8062744140625 160.41494750976562 340.9814758300781 C 164.2457275390625 338.517578125 165.59112548828125 333.5840148925781 166.1142578125 329.06085205078125 C 166.88812255859375 322.4421081542969 166.5855712890625 315.7417907714844 165.2183837890625 309.2197265625 C 164.74166870117188 306.9671630859375 164.09173583984375 304.6417541503906 162.5440673828125 302.93817138671875 C 161.02398681640625 301.42779541015625 159.09722900390625 300.3923034667969 156.99880981445312 299.9580383300781 C 150.68472290039062 298.39306640625 144.00196838378906 299.67669677734375 138.71705627441406 303.46966552734375 L 141.27151489257812 306.8035583496094" stroke-width="0.6000000238418579" fill="rgb(70, 150, 179)" opacity="1.0"/>
    <path d="M 123.18603515625 302.4151611328125 C 123.189697265625 294.5850830078125 122.86497497558594 285.9058837890625 117.43203735351562 280.2742614746094 C 111.59219360351562 274.2281494140625 101.65609741210938 274.0488586425781 93.90414428710938 277.29901123046875 C 90.91477966308594 278.5509033203125 88.01229858398438 280.33087158203125 86.24954223632812 283.050048828125 C 84.79962158203125 285.2848205566406 84.23228454589844 287.9654235839844 83.83772277832031 290.5993347167969 C 82.58348083496094 298.90386962890625 82.93891906738281 308.0595397949219 87.9833984375 314.7723693847656 C 93.0721435546875 321.5343322753906 102.73580932617188 324.4692687988281 110.71627807617188 321.63055419921875 C 118.69671630859375 318.79180908203125 124.40853881835938 310.4779968261719 124.12673950195312 302.00677490234375 L 123.18603515625 302.4151611328125" stroke-width="0.6000000238418579" fill="rgb(140, 28, 33)" opacity="1.0"/>
    <path d="M 146.11622619628906 256.141845703125 C 138.2537841796875 260.38018798828125 130.1191864013672 264.8770751953125 124.74702453613281 272.0210876464844 C 119.37496948242188 279.1650085449219 117.56346130371094 289.84210205078125 122.94334411621094 296.9782409667969 C 129.60391235351562 305.772216796875 144.348876953125 304.669677734375 152.2114715576172 296.9031677246094 C 160.0740966796875 289.1366271972656 162.21221923828125 277.177490234375 161.54559326171875 266.15972900390625 C 161.68096923828125 262.7284240722656 160.52517700195312 259.3711853027344 158.3062744140625 256.7504577636719 C 155.86253356933594 254.41778564453125 150.94610595703125 254.5743408203125 149.76646423339844 257.7579040527344 L 146.11622619628906 256.141845703125" stroke-width="0.6000000238418579" fill="rgb(159, 159, 159)" opacity="1.0"/>
    <path d="M 160.05413818359375 289.2496643066406 C 159.7843017578125 297.0639953613281 162.1859130859375 305.1409912109375 167.54660034179688 310.8274230957031 C 172.90728759765625 316.51385498046875 181.39755249023438 319.4245300292969 188.92465209960938 317.20355224609375 C 194.244384765625 315.6265869140625 198.66802978515625 311.67327880859375 201.548828125 306.925537109375 C 204.4296875 302.177734375 205.8858642578125 296.68359375 206.5799560546875 291.1727294921875 C 206.88058471679688 288.77435302734375 207.0223388671875 286.2368469238281 205.994873046875 284.05584716796875 C 204.81808471679688 281.5548400878906 202.32623291015625 279.9821472167969 199.890625 278.6576232910156 C 193.014404296875 274.9183044433594 185.30316162109375 272.09033203125 177.509033203125 272.8204345703125 C 169.71493530273438 273.5505676269531 161.9464111328125 278.6080322265625 159.95950317382812 286.1598205566406 L 160.05413818359375 289.2496643066406" stroke-width="0.6000000238418579" fill="rgb(159, 159, 159)" opacity="1.0"/>
    <path d="M 126.21945190429688 350.3885803222656 C 126.24374389648438 342.8038024902344 125.94216918945312 334.3719177246094 120.66036987304688 328.94903564453125 C 115.53125 323.66802978515625 107.41567993164062 322.9772033691406 100.05415344238281 322.7460632324219 C 97.0634765625 322.65655517578125 93.93338012695312 322.6106262207031 91.25758361816406 323.94561767578125 C 86.73063659667969 326.20086669921875 84.84613037109375 331.6482849121094 84.17633056640625 336.65386962890625 C 83.5528564453125 341.2996520996094 83.5997314453125 346.0108947753906 84.31546020507812 350.6434020996094 C 85.47489929199219 358.1656799316406 89.21742248535156 366.2026672363281 96.43414306640625 368.6123352050781 C 100.32830810546875 369.9189147949219 104.67892456054688 369.33050537109375 108.494873046875 367.7936096191406 C 112.31082153320312 366.25665283203125 115.68995666503906 363.8189697265625 118.99160766601562 361.3648681640625 C 122.29324340820312 358.9107971191406 125.48486328125 356.4286804199219 127.44024658203125 352.92108154296875 L 126.21945190429688 350.3885803222656" stroke-width="0.6000000238418579" fill="rgb(218, 166, 20)" opacity="1.0"/>
    <path d="M 151.48902893066406 340.8315124511719 C 138.8930206298828 339.7256774902344 127.78547668457031 349.0403137207031 126.67965698242188 361.6363220214844 C 126.58494567871094 362.7149353027344 126.56689453125 363.79888916015625 126.6256103515625 364.8800354003906 C 126.84942626953125 368.9881591796875 128.31175231933594 373.1927795410156 131.3966827392578 375.91192626953125 C 134.0034637451172 378.21002197265625 137.4790496826172 379.2377624511719 140.89627075195312 379.8566589355469 C 150.04562377929688 381.50067138671875 159.46826171875 380.66485595703125 168.18545532226562 377.4361572265625 C 170.48822021484375 376.5788269042969 172.79351806640625 375.51336669921875 174.48171997070312 373.720703125 C 177.31759643554688 370.71282958984375 177.8992919921875 366.1318054199219 177.12188720703125 362.068603515625 C 175.97198486328125 356.0354309082031 172.15869140625 350.6813659667969 167.19305419921875 347.0645751953125 C 162.22747802734375 343.4477844238281 156.19024658203125 341.47259521484375 150.0850372314453 340.7957763671875 L 151.48902893066406 340.8315124511719" stroke-width="0.6000000238418579" fill="rgb(143, 165, 67)" opacity="1.0"/>
    <path d="M 137.38421630859375 379.41314697265625 C 133.828125 365.4702453613281 112.49008178710938 361.0976867675781 102.98213195800781 371.7743835449219 C 93.47421264648438 382.45111083984375 99.42633056640625 402.2952880859375 113.02134704589844 407.02301025390625 C 126.61634826660156 411.750732421875 142.93458557128906 401.2636413574219 145.3259735107422 387.05657958984375 L 137.38421630859375 379.41314697265625" stroke-width="0.6000000238418579" fill="rgb(233, 92, 21)" opacity="1.0"/>
    <path d="M 174.6915283203125 347.4095764160156 C 175.42630004882812 354.75787353515625 177.06610107421875 363.4593811035156 183.89459228515625 366.3371276855469 C 186.6566162109375 367.3765869140625 189.67312622070312 367.53338623046875 192.52801513671875 366.7857971191406 C 199.64151000976562 365.12615966796875 205.50933837890625 360.12158203125 208.27069091796875 353.3591003417969 C 210.598388671875 347.6166687011719 210.34979248046875 341.25030517578125 209.966796875 335.1038513183594 C 209.74603271484375 331.6515197753906 209.40155029296875 327.9905700683594 207.3211669921875 325.2503662109375 C 204.51824951171875 321.62066650390625 199.45285034179688 320.69769287109375 194.8702392578125 320.5640869140625 C 188.16384887695312 320.36016845703125 181.46865844726562 321.24310302734375 175.04437255859375 323.1786193847656 C 172.82595825195312 323.85162353515625 170.54946899414062 324.7047119140625 168.974365234375 326.4045715332031 C 167.5906982421875 328.0600280761719 166.7186279296875 330.0823669433594 166.46441650390625 332.2249450683594 C 165.44061279296875 338.6941833496094 167.30618286132812 345.2868957519531 171.56808471679688 350.2603759765625 L 174.6915283203125 347.4095764160156" stroke-width="0.6000000238418579" fill="rgb(70, 150, 179)" opacity="1.0"/>
  </g>
</svg>
