<?xml version="1.0" ?>
<svg xmlns="http://www.w3.org/2000/svg" version="1.1" width="600" height="600">
  <defs/>
  <g>
    <path d="M 356.2582092285156 341.99725341796875 C 359.9582214355469 345.5509338378906 367.2431640625 342.8609313964844 368.1141357421875 337.8387145996094 C 368.9850769042969 332.8165283203125 363.44921875 327.9263610839844 358.4424743652344 329.0521240234375 C 353.43572998046875 330.17791748046875 350.4665832519531 336.42388916015625 352.4150695800781 341.17645263671875 L 356.2582092285156 341.99725341796875" stroke-width="0.6000000238418579" fill="rgb(233, 92, 21)" opacity="1.0"/>
    <path d="M 123.56632995605469 210.73080444335938 C 127.90411376953125 210.98040771484375 133.11160278320312 210.82870483398438 135.41258239746094 207.1256103515625 C 136.27093505859375 205.61627197265625 136.63980102539062 203.8778076171875 136.4682159423828 202.14996337890625 C 136.1587677001953 197.86346435546875 133.79086303710938 193.99285888671875 130.1154022216797 191.76556396484375 C 126.99275207519531 189.88421630859375 123.27033996582031 189.4425048828125 119.663330078125 189.09912109375 C 117.63682556152344 188.9095458984375 115.47772216796875 188.77264404296875 113.69381713867188 189.72927856445312 C 111.32650756835938 191.02386474609375 110.32377624511719 193.88241577148438 109.82420349121094 196.5330810546875 C 109.08822631835938 200.41143798828125 108.98483276367188 204.38336181640625 109.51806640625 208.29473876953125 C 109.70491027832031 209.64584350585938 109.99102783203125 211.0472412109375 110.83380126953125 212.11907958984375 C 111.66841125488281 213.0755615234375 112.7633056640625 213.7685546875 113.98495483398438 214.113525390625 C 117.64999389648438 215.30413818359375 121.65283203125 214.8270263671875 124.93536376953125 212.808349609375 L 123.56632995605469 210.73080444335938" stroke-width="0.6000000238418579" fill="rgb(70, 150, 179)" opacity="1.0"/>
    <path d="M 458.94232177734375 402.34710693359375 C 461.2403564453125 404.6683654785156 463.885009765625 407.14483642578125 467.1484375 407.21832275390625 C 470.6541748046875 407.295166015625 473.65106201171875 404.4308166503906 474.9937744140625 401.19158935546875 C 475.511962890625 399.94287109375 475.849365234375 398.5632019042969 475.57330322265625 397.2398681640625 C 475.3468017578125 396.1519470214844 474.727783203125 395.1910400390625 474.0712890625 394.29473876953125 C 472.0045166015625 391.4656677246094 469.2109375 388.8570556640625 465.7451171875 388.34912109375 C 462.251708984375 387.839599609375 458.5264892578125 389.80743408203125 456.9952392578125 392.9918212890625 C 455.4639892578125 396.1762390136719 456.212646484375 400.3169250488281 458.783447265625 402.74432373046875 L 458.94232177734375 402.34710693359375" stroke-width="0.6000000238418579" fill="rgb(140, 28, 33)" opacity="1.0"/>
    <path d="M 88.51341247558594 208.56344604492188 C 92.9857177734375 208.60107421875 97.63983154296875 208.5909423828125 101.72067260742188 206.7528076171875 C 105.80142211914062 204.91470336914062 109.17257690429688 200.66729736328125 108.53408813476562 196.23818969726562 C 107.7337646484375 190.772705078125 100.99842834472656 187.69851684570312 95.67471313476562 189.20883178710938 C 90.35098266601562 190.71914672851562 86.52719116210938 195.45025634765625 84.16111755371094 200.445068359375 C 83.27377319335938 201.91790771484375 82.97076416015625 203.66973876953125 83.31195068359375 205.35501098632812 C 83.82125854492188 206.9681396484375 86.01608276367188 208.08575439453125 87.30183410644531 206.9736328125 L 88.51341247558594 208.56344604492188" stroke-width="0.6000000238418579" fill="rgb(159, 159, 159)" opacity="1.0"/>
    <path d="M 382.63995361328125 314.5607604980469 C 387.10821533203125 313.5716857910156 391.3349609375 311.0301513671875 393.77435302734375 307.160888671875 C 396.2137451171875 303.2916259765625 396.6225891113281 298.0543212890625 394.2637939453125 294.11285400390625 C 392.5925598144531 291.32830810546875 389.70550537109375 289.3989562988281 386.5936584472656 288.4600830078125 C 383.4818115234375 287.5212097167969 380.1551513671875 287.49884033203125 376.9303894042969 287.91082763671875 C 375.52716064453125 288.0909729003906 374.06829833984375 288.3814697265625 372.9823303222656 289.28253173828125 C 371.7368469238281 290.31500244140625 371.2096862792969 291.95709228515625 370.81494140625 293.53106689453125 C 369.7005920410156 297.9747314453125 369.2247619628906 302.7584228515625 370.7776184082031 307.069091796875 C 372.33050537109375 311.3797607421875 376.3321838378906 315.04351806640625 380.902587890625 315.0659484863281 L 382.63995361328125 314.5607604980469" stroke-width="0.6000000238418579" fill="rgb(159, 159, 159)" opacity="1.0"/>
    <path d="M 103.15585327148438 418.2513427734375 C 105.97219848632812 415.8505859375 108.99871826171875 413.0599365234375 109.32867431640625 409.3811340332031 C 109.65460205078125 405.803955078125 107.33197021484375 402.57928466796875 105.07865905761719 399.7798767089844 C 104.16160583496094 398.64398193359375 103.18412780761719 397.4703369140625 101.83963012695312 396.90362548828125 C 99.56622314453125 395.94384765625 96.9503173828125 396.97674560546875 94.88394165039062 398.319091796875 C 92.96551513671875 399.56427001953125 91.23583984375 401.0784912109375 89.74784851074219 402.8153381347656 C 87.33071899414062 405.6346435546875 85.543701171875 409.573974609375 86.94430541992188 413.011962890625 C 87.69770812988281 414.8690185546875 89.29786682128906 416.29315185546875 91.07937622070312 417.2178955078125 C 92.86090087890625 418.142578125 94.83718872070312 418.619384765625 96.794921875 419.062255859375 C 98.75265502929688 419.505126953125 100.68582153320312 419.8984375 102.60592651367188 419.508056640625 L 103.15585327148438 418.2513427734375" stroke-width="0.6000000238418579" fill="rgb(218, 166, 20)" opacity="1.0"/>
    <path d="M 98.93589782714844 157.63140869140625 C 106.41213989257812 159.984619140625 114.38046264648438 155.8315887451172 116.73367309570312 148.35536193847656 C 116.93519592285156 147.7151641845703 117.09101867675781 147.06149291992188 117.20002746582031 146.39923095703125 C 117.61373901367188 143.8827667236328 117.29071044921875 141.14231872558594 115.7869873046875 139.08409118652344 C 114.51638793945312 137.34461975097656 112.55007934570312 136.25791931152344 110.564453125 135.42649841308594 C 105.24635314941406 133.2082977294922 99.43130493164062 132.45452880859375 93.723388671875 133.24346923828125 C 92.2149658203125 133.4545440673828 90.67718505859375 133.79124450683594 89.41571044921875 134.65061950683594 C 87.297119140625 136.09210205078125 86.3326416015625 138.78713989257812 86.25997924804688 141.3504180908203 C 86.14945983886719 145.15586853027344 87.74180603027344 148.90634155273438 90.26387023925781 151.7593231201172 C 92.78591918945312 154.6123046875 96.17605590820312 156.61489868164062 99.78092956542969 157.84072875976562 L 98.93589782714844 157.63140869140625" stroke-width="0.6000000238418579" fill="rgb(143, 165, 67)" opacity="1.0"/>
    <path d="M 460.7314453125 344.1676940917969 C 463.7518310546875 350.96099853515625 474.999267578125 351.33770751953125 478.916259765625 345.0751037597656 C 482.8331298828125 338.8125 478.08056640625 329.2212219238281 470.74609375 327.9921569824219 C 463.41162109375 326.7630615234375 456.009521484375 333.5196838378906 456.0235595703125 340.9632873535156 L 460.7314453125 344.1676940917969" stroke-width="0.6000000238418579" fill="rgb(233, 92, 21)" opacity="1.0"/>
    <path d="M 107.89700317382812 227.10906982421875 C 111.08389282226562 223.93487548828125 114.56149291992188 219.81265258789062 113.29295349121094 215.48126220703125 C 112.72103881835938 213.7772216796875 111.63446044921875 212.2926025390625 110.18304443359375 211.23226928710938 C 106.6624755859375 208.5120849609375 102.04183959960938 207.66705322265625 97.78640747070312 208.96514892578125 C 94.179443359375 210.07553100585938 91.26913452148438 212.64239501953125 88.51437377929688 215.1881103515625 C 86.96925354003906 216.62066650390625 85.37322998046875 218.19189453125 84.87985229492188 220.22845458984375 C 84.24449157714844 222.94842529296875 85.75762939453125 225.69525146484375 87.45771789550781 227.91036987304688 C 89.94175720214844 231.15533447265625 92.93464660644531 233.97686767578125 96.32029724121094 236.26544189453125 C 97.49162292480469 237.053955078125 98.77029418945312 237.80059814453125 100.17892456054688 237.8902587890625 C 101.49295043945312 237.90664672851562 102.78337097167969 237.54031372070312 103.89280700683594 236.8359375 C 107.34124755859375 234.830322265625 109.73629760742188 231.41287231445312 110.44479370117188 227.48699951171875 L 107.89700317382812 227.10906982421875" stroke-width="0.6000000238418579" fill="rgb(70, 150, 179)" opacity="1.0"/>
    <path d="M 110.23052978515625 82.26190185546875 C 110.88037109375 86.55862426757812 111.78106689453125 91.29391479492188 115.23098754882812 93.93173217773438 C 118.93867492675781 96.76309204101562 124.40560913085938 96.03433227539062 128.38858032226562 93.6055908203125 C 129.9246368408203 92.66981506347656 131.3690643310547 91.45149230957031 132.10992431640625 89.81271362304688 C 132.719482421875 88.46578979492188 132.8076171875 86.94769287109375 132.80484008789062 85.4696044921875 C 132.8017120361328 80.80844116210938 131.844482421875 75.81423950195312 128.5177001953125 72.55084228515625 C 125.16253662109375 69.26412963867188 119.61570739746094 68.45822143554688 115.47309875488281 70.68020629882812 C 111.33049011230469 72.90219116210938 108.88848876953125 77.93954467773438 109.74835205078125 82.56428527832031 L 110.23052978515625 82.26190185546875" stroke-width="0.6000000238418579" fill="rgb(140, 28, 33)" opacity="1.0"/>
    <path d="M 94.71591186523438 398.26318359375 C 97.21238708496094 395.3304138183594 99.77778625488281 392.25115966796875 100.81915283203125 388.540283203125 C 101.8604736328125 384.8294372558594 100.91847229003906 380.2557373046875 97.64057922363281 378.22967529296875 C 93.58877563476562 375.7377014160156 87.83625793457031 378.4868469238281 85.89154052734375 382.83740234375 C 83.94680786132812 387.1879577636719 84.95806884765625 392.327880859375 86.94912719726562 396.65087890625 C 87.431396484375 398.05084228515625 88.4208984375 399.2191162109375 89.722412109375 399.9251708984375 C 91.06919860839844 400.48028564453125 93.02027893066406 399.6484375 92.99636840820312 398.1846923828125 L 94.71591186523438 398.26318359375" stroke-width="0.6000000238418579" fill="rgb(159, 159, 159)" opacity="1.0"/>
    <path d="M 477.2952880859375 65.88592529296875 C 478.8551025390625 62.71180725097656 479.3614501953125 58.934112548828125 478.20379638671875 55.59422302246094 C 477.04608154296875 52.25433349609375 474.0826416015625 49.479583740234375 470.5653076171875 49.000640869140625 C 468.078125 48.66517639160156 465.5201416015625 49.47625732421875 463.451416015625 50.90113830566406 C 461.3826904296875 52.326019287109375 459.763427734375 54.32293701171875 458.45556640625 56.46800231933594 C 457.88690185546875 57.401824951171875 457.3580322265625 58.422515869140625 457.377685546875 59.51283264160156 C 457.39959716796875 60.76287841796875 458.13623046875 61.87367248535156 458.89556884765625 62.87164306640625 C 461.03948974609375 65.68911743164062 463.6968994140625 68.28533935546875 467.0479736328125 69.42889404296875 C 470.399169921875 70.57243347167969 474.5418701171875 69.92581176757812 476.76153564453125 67.17831420898438 L 477.2952880859375 65.88592529296875" stroke-width="0.6000000238418579" fill="rgb(159, 159, 159)" opacity="1.0"/>
    <path d="M 88.48648071289062 112.05577087402344 C 92.68093872070312 113.5430908203125 97.40771484375 115.01461791992188 101.43635559082031 113.14421081542969 C 105.35678100585938 111.33074951171875 107.31626892089844 106.97195434570312 108.87472534179688 102.9412841796875 C 109.50541687011719 101.30293273925781 110.13909912109375 99.57893371582031 109.91995239257812 97.83810424804688 C 109.55104064941406 94.89361572265625 106.9013671875 92.79173278808594 104.26026916503906 91.4482421875 C 101.80935668945312 90.20028686523438 99.19195556640625 89.31076049804688 96.4881591796875 88.80682373046875 C 92.0982666015625 87.98699951171875 86.9215087890625 88.49725341796875 84.18507385253906 92.0244140625 C 82.70498657226562 93.92645263671875 82.18534851074219 96.44944763183594 82.29470825195312 98.8607177734375 C 82.40409851074219 101.27201843261719 83.0970458984375 103.61651611328125 83.81414794921875 105.92129516601562 C 84.53123474121094 108.22605895996094 85.28523254394531 110.47537231445312 86.84716796875 112.23953247070312 L 88.48648071289062 112.05577087402344" stroke-width="0.6000000238418579" fill="rgb(218, 166, 20)" opacity="1.0"/>
    <path d="M 130.7731170654297 139.76283264160156 C 137.4795379638672 137.95620727539062 141.4516143798828 131.05502319335938 139.64500427246094 124.34858703613281 C 139.49029541015625 123.77432250976562 139.2950439453125 123.21174621582031 139.06072998046875 122.66510009765625 C 138.1699981689453 120.588134765625 136.62217712402344 118.69511413574219 134.51763916015625 117.87460327148438 C 132.73922729492188 117.18106079101562 130.7523651123047 117.30679321289062 128.87277221679688 117.63241577148438 C 123.8427734375 118.510986328125 119.13975524902344 120.7203369140625 115.25225830078125 124.03097534179688 C 114.22616577148438 124.90780639648438 113.23800659179688 125.8924560546875 112.7054443359375 127.13580322265625 C 111.8101806640625 129.22262573242188 112.3746337890625 131.69554138183594 113.54243469238281 133.64486694335938 C 115.27418518066406 136.5401153564453 118.251708984375 138.58242797851562 121.49578857421875 139.51107788085938 C 124.73988342285156 140.4397430419922 128.2269744873047 140.31932067871094 131.50411987304688 139.5163116455078 L 130.7731170654297 139.76283264160156" stroke-width="0.6000000238418579" fill="rgb(143, 165, 67)" opacity="1.0"/>
    <path d="M 404.1183776855469 308.25299072265625 C 408.0101318359375 316.4683532714844 421.7701416015625 316.59832763671875 426.3741455078125 308.82781982421875 C 430.97808837890625 301.05731201171875 424.88671875 289.4726257324219 415.885009765625 288.18572998046875 C 406.8832092285156 286.8988342285156 398.033447265625 295.3756103515625 398.269287109375 304.4742736816406 L 404.1183776855469 308.25299072265625" stroke-width="0.6000000238418579" fill="rgb(233, 92, 21)" opacity="1.0"/>
    <path d="M 123.420654296875 116.32162475585938 C 127.57017517089844 116.54620361328125 132.5501708984375 116.38410949707031 134.73878479003906 112.83489990234375 C 135.55479431152344 111.38856506347656 135.9019012451172 109.72465515136719 135.73216247558594 108.07270812988281 C 135.4221954345703 103.97406005859375 133.14488220214844 100.27989196777344 129.62234497070312 98.16168212890625 C 126.62966918945312 96.37249755859375 123.06808471679688 95.96218872070312 119.61717224121094 95.64558410644531 C 117.67837524414062 95.47087097167969 115.61293029785156 95.34698486328125 113.90992736816406 96.26773071289062 C 111.6500244140625 97.51362609863281 110.7003173828125 100.25083923339844 110.23117065429688 102.78759765625 C 109.53993225097656 106.49931335449219 109.45402526855469 110.29843139648438 109.97677612304688 114.03759765625 C 110.15988159179688 115.32919311523438 110.4381103515625 116.66859436035156 111.24765014648438 117.69093322753906 C 112.04898071289062 118.60299682617188 113.09841918945312 119.26220703125 114.2679443359375 119.58816528320312 C 117.77711486816406 120.71490478515625 121.60391235351562 120.24554443359375 124.73678588867188 118.30413818359375 L 123.420654296875 116.32162475585938" stroke-width="0.6000000238418579" fill="rgb(70, 150, 179)" opacity="1.0"/>
    <path d="M 414.7969970703125 64.13551330566406 C 416.3662109375 67.07797241210938 418.2291259765625 70.27357482910156 421.39984130859375 71.29959106445312 C 424.80657958984375 72.39971923828125 428.57550048828125 70.47406005859375 430.8359375 67.69808959960938 C 431.7078857421875 66.62814331054688 432.44134521484375 65.37722778320312 432.5582275390625 64.0020751953125 C 432.6546630859375 62.87165832519531 432.33013916015625 61.750762939453125 431.9500732421875 60.68208312988281 C 430.7554931640625 57.31053161621094 428.7855224609375 53.94207763671875 425.5438232421875 52.43194580078125 C 422.27569580078125 50.91221618652344 418.056396484375 51.74794006347656 415.6275634765625 54.41517639160156 C 413.19873046875 57.0823974609375 412.720458984375 61.3515625 414.5255126953125 64.47763061523438 L 414.7969970703125 64.13551330566406" stroke-width="0.6000000238418579" fill="rgb(140, 28, 33)" opacity="1.0"/>
    <path d="M 119.84375 425.9013671875 C 121.32061767578125 422.8363037109375 122.82359313964844 419.6307373046875 122.88282775878906 416.22650146484375 C 122.94204711914062 412.82232666015625 121.11328125 409.124755859375 117.858642578125 408.1271057128906 C 113.83837890625 406.9045715332031 109.5379638671875 410.5415344238281 108.84994506835938 414.694580078125 C 108.16192626953125 418.84765625 110.1766357421875 423.0135498046875 112.84576416015625 426.2620849609375 C 113.57125854492188 427.3504638671875 114.6783447265625 428.1273193359375 115.94859313964844 428.4393310546875 C 117.2237548828125 428.61224365234375 118.704833984375 427.46466064453125 118.35675048828125 426.21917724609375 L 119.84375 425.9013671875" stroke-width="0.6000000238418579" fill="rgb(159, 159, 159)" opacity="1.0"/>
    <path d="M 475.0555419921875 447.73974609375 C 475.3643798828125 445.6302490234375 474.957275390625 443.368896484375 473.6761474609375 441.6661376953125 C 472.39501953125 439.96337890625 470.18194580078125 438.91839599609375 468.0750732421875 439.29315185546875 C 466.58587646484375 439.55999755859375 465.267822265625 440.49786376953125 464.3438720703125 441.69757080078125 C 463.419921875 442.8973388671875 462.8594970703125 444.34228515625 462.505126953125 445.81475830078125 C 462.35125732421875 446.45562744140625 462.236328125 447.1390380859375 462.44891357421875 447.7611083984375 C 462.6923828125 448.474365234375 463.3201904296875 448.9757080078125 463.9403076171875 449.408203125 C 465.69091796875 450.6290283203125 467.6953125 451.6280517578125 469.82952880859375 451.6654052734375 C 471.9637451171875 451.70263671875 474.22161865234375 450.5665283203125 474.9879150390625 448.5799560546875 L 475.0555419921875 447.73974609375" stroke-width="0.6000000238418579" fill="rgb(159, 159, 159)" opacity="1.0"/>
    <path d="M 457.36907958984375 298.5662841796875 C 456.61865234375 294.4351806640625 455.60546875 289.87579345703125 452.1844482421875 287.45574951171875 C 448.8607177734375 285.0975646972656 444.37359619140625 285.53863525390625 440.34320068359375 286.154052734375 C 438.706298828125 286.40643310546875 436.997802734375 286.69659423828125 435.67572021484375 287.69268798828125 C 433.4385986328125 289.3760986328125 432.9613037109375 292.53106689453125 433.1007080078125 295.3232116699219 C 433.2291259765625 297.9148254394531 433.72900390625 300.474609375 434.58502197265625 302.9241638183594 C 435.9735107421875 306.90203857421875 438.8199462890625 310.9000244140625 442.9908447265625 311.48504638671875 C 445.24212646484375 311.80419921875 447.551025390625 311.04583740234375 449.47344970703125 309.8250427246094 C 451.3958740234375 308.6042175292969 452.98980712890625 306.93707275390625 454.5399169921875 305.268798828125 C 456.0899658203125 303.60052490234375 457.577392578125 301.9280700683594 458.28857421875 299.8218994140625 L 457.36907958984375 298.5662841796875" stroke-width="0.6000000238418579" fill="rgb(218, 166, 20)" opacity="1.0"/>
    <path d="M 428.2890625 370.7613220214844 C 426.4007568359375 372.2531433105469 426.0794677734375 374.99322509765625 427.5712890625 376.8814697265625 C 427.698974609375 377.04315185546875 427.83807373046875 377.1955871582031 427.98736572265625 377.33758544921875 C 428.5548095703125 377.8771057128906 429.306396484375 378.26824951171875 430.08856201171875 378.2418212890625 C 430.74951171875 378.21954345703125 431.36492919921875 377.907958984375 431.9188232421875 377.5473937988281 C 433.40020751953125 376.5801696777344 434.5955810546875 375.23394775390625 435.3807373046875 373.6485900878906 C 435.58758544921875 373.2291564941406 435.767578125 372.7806091308594 435.7672119140625 372.3119812011719 C 435.76702880859375 371.52520751953125 435.24932861328125 370.8150329589844 434.611083984375 370.3540344238281 C 433.66400146484375 369.6689453125 432.4368896484375 369.4256896972656 431.277099609375 369.5734558105469 C 430.1173095703125 369.72119140625 429.0235595703125 370.23614501953125 428.0899658203125 370.9397277832031 L 428.2890625 370.7613220214844" stroke-width="0.6000000238418579" fill="rgb(143, 165, 67)" opacity="1.0"/>
    <path d="M 452.2899169921875 345.5546569824219 C 458.3485107421875 343.0390930175781 458.9271240234375 333.12579345703125 453.488525390625 329.53350830078125 C 448.050048828125 325.9412536621094 439.4853515625 329.9234924316406 438.2406005859375 336.36639404296875 C 436.995849609375 342.8092956542969 442.7938232421875 349.4867248535156 449.3602294921875 349.6373596191406 L 452.2899169921875 345.5546569824219" stroke-width="0.6000000238418579" fill="rgb(233, 92, 21)" opacity="1.0"/>
    <path d="M 447.8935546875 68.79721069335938 C 451.4619140625 67.69857788085938 455.61053466796875 66.01615905761719 456.354248046875 62.34431457519531 C 456.59326171875 60.871551513671875 456.3695068359375 59.36088562011719 455.713623046875 58.020721435546875 C 454.1800537109375 54.66114807128906 451.11328125 52.253265380859375 447.48583984375 51.5606689453125 C 444.4072265625 50.98101806640625 441.27685546875 51.740570068359375 438.2689208984375 52.54473876953125 C 436.58001708984375 52.99922180175781 434.800048828125 53.535888671875 433.6500244140625 54.84080505371094 C 432.1312255859375 56.592742919921875 432.18017578125 59.195404052734375 432.57196044921875 61.47990417480469 C 433.1412353515625 64.82400512695312 434.248046875 68.05389404296875 435.849365234375 71.0443115234375 C 436.4046630859375 72.07650756835938 437.05499267578125 73.11944580078125 438.054931640625 73.73016357421875 C 439.013671875 74.25045776367188 440.10308837890625 74.48052978515625 441.1903076171875 74.392333984375 C 444.49884033203125 74.25314331054688 447.5797119140625 72.66958618164062 449.61865234375 70.06025695800781 L 447.8935546875 68.79721069335938" stroke-width="0.6000000238418579" fill="rgb(70, 150, 179)" opacity="1.0"/>
    <path d="M 456.7213134765625 399.9730529785156 C 457.32232666015625 397.2326354980469 457.8734130859375 394.16986083984375 456.40313720703125 391.78253173828125 C 454.8221435546875 389.218994140625 451.3580322265625 388.3951721191406 448.395751953125 388.9390563964844 C 447.2535400390625 389.1482849121094 446.10125732421875 389.54901123046875 445.2760009765625 390.3657531738281 C 444.5972900390625 391.03692626953125 444.19342041015625 391.9317321777344 443.85357666015625 392.82342529296875 C 442.77850341796875 395.6341247558594 442.20166015625 398.86602783203125 443.453125 401.60205078125 C 444.7164306640625 404.358642578125 447.87408447265625 406.1260986328125 450.8848876953125 405.7437438964844 C 453.8956298828125 405.36138916015625 456.5316162109375 402.88885498046875 457.08184814453125 399.90216064453125 L 456.7213134765625 399.9730529785156" stroke-width="0.6000000238418579" fill="rgb(140, 28, 33)" opacity="1.0"/>
    <path d="M 122.32264709472656 214.814208984375 C 118.3983154296875 219.61834716796875 114.36778259277344 224.66058349609375 112.81201171875 230.67019653320312 C 111.25631713867188 236.67974853515625 112.9224853515625 244.01397705078125 118.26701354980469 247.1695556640625 C 124.87295532226562 251.05010986328125 134.0464630126953 246.43536376953125 137.03604125976562 239.3662109375 C 140.02560424804688 232.29705810546875 138.22938537597656 224.05328369140625 134.88209533691406 217.15695190429688 C 134.05979919433594 214.9183349609375 132.4282684326172 213.06936645507812 130.3094024658203 211.97491455078125 C 128.12254333496094 211.12496948242188 125.00788879394531 212.52816772460938 125.09414672851562 214.88446044921875 L 122.32264709472656 214.814208984375" stroke-width="0.6000000238418579" fill="rgb(159, 159, 159)" opacity="1.0"/>
    <path d="M 107.49241638183594 240.4910888671875 C 101.69989013671875 239.17767333984375 95.3311767578125 239.82028198242188 90.32516479492188 243.01113891601562 C 85.31915283203125 246.20196533203125 81.93901062011719 252.123046875 82.52508544921875 258.05572509765625 C 82.94476318359375 262.2496643066406 85.26510620117188 266.11309814453125 88.39784240722656 268.9383544921875 C 91.53059387207031 271.763671875 95.42301940917969 273.63214111328125 99.43635559082031 274.9342956542969 C 101.18319702148438 275.4999084472656 103.05648803710938 275.966796875 104.83013916015625 275.5105285644531 C 106.86383056640625 274.98834228515625 108.39193725585938 273.3527526855469 109.72689819335938 271.7238464355469 C 113.49569702148438 267.1250305175781 116.7032470703125 261.7734680175781 117.26763916015625 255.853759765625 C 117.83201599121094 249.93399047851562 115.16375732421875 243.41751098632812 109.81147766113281 240.86019897460938 L 107.49241638183594 240.4910888671875" stroke-width="0.6000000238418579" fill="rgb(159, 159, 159)" opacity="1.0"/>
    <path d="M 284.685546875 86.78495788574219 C 283.4380798339844 92.55572509765625 282.3014831542969 99.02426147460938 285.4441223144531 104.0087890625 C 288.4934997558594 108.860595703125 294.5603942871094 110.70152282714844 300.127685546875 112.07029724121094 C 302.39013671875 112.62301635742188 304.76580810546875 113.1651611328125 307.01934814453125 112.58232116699219 C 310.8313903808594 111.59878540039062 313.1488037109375 107.7567138671875 314.4698181152344 104.05421447753906 C 315.697265625 100.61813354492188 316.4249572753906 97.02362060546875 316.630615234375 93.38067626953125 C 316.96673583984375 87.46568298339844 315.4195861816406 80.74029541015625 310.3155212402344 77.73635864257812 C 307.5624084472656 76.110595703125 304.1546936035156 75.85365295410156 301.0003662109375 76.40548706054688 C 297.8460693359375 76.95733642578125 294.87835693359375 78.2657470703125 291.96697998046875 79.59922790527344 C 289.0556335449219 80.93269348144531 286.2235107421875 82.30532836914062 284.16644287109375 84.65901184082031 L 284.685546875 86.78495788574219" stroke-width="0.6000000238418579" fill="rgb(218, 166, 20)" opacity="1.0"/>
    <path d="M 227.93539428710938 121.01419067382812 C 222.2073974609375 112.84854125976562 210.9443359375 110.8724365234375 202.7786865234375 116.60043334960938 C 202.0794677734375 117.09092712402344 201.4158935546875 117.63040161132812 200.79302978515625 118.21481323242188 C 198.42660522460938 120.43582153320312 196.63079833984375 123.45352172851562 196.55563354492188 126.69650268554688 C 196.49185180664062 129.4370574951172 197.6361083984375 132.05711364746094 198.99758911132812 134.43431091308594 C 202.65069580078125 140.79248046875 207.9395751953125 146.05654907226562 214.31488037109375 149.6796875 C 216.00164794921875 150.63455200195312 217.81536865234375 151.48529052734375 219.7547607421875 151.59420776367188 C 223.01055908203125 151.77899169921875 226.07144165039062 149.80413818359375 228.12966918945312 147.27175903320312 C 231.18801879882812 143.51422119140625 232.48406982421875 138.49363708496094 232.14620971679688 133.65948486328125 C 231.80841064453125 128.82534790039062 229.9354248046875 124.17781066894531 227.24407958984375 120.14845275878906 L 227.93539428710938 121.01419067382812" stroke-width="0.6000000238418579" fill="rgb(143, 165, 67)" opacity="1.0"/>
    <path d="M 203.66802978515625 90.31903076171875 C 206.72433471679688 100.69523620605469 222.87484741210938 103.39111328125 229.72283935546875 95.10800170898438 C 236.57083129882812 86.82487487792969 231.55169677734375 72.08157348632812 221.20819091796875 68.90516662597656 C 210.86468505859375 65.728759765625 198.89535522460938 74.05740356445312 197.490966796875 84.79623413085938 L 203.66802978515625 90.31903076171875" stroke-width="0.6000000238418579" fill="rgb(233, 92, 21)" opacity="1.0"/>
    <path d="M 202.39300537109375 96.22296142578125 C 201.0963134765625 90.76370239257812 198.98114013671875 84.37698364257812 193.5478515625 82.9007568359375 C 191.36273193359375 82.39741516113281 189.0753173828125 82.58453369140625 187.0010986328125 83.43632507324219 C 181.81222534179688 85.40577697753906 177.89981079101562 89.76806640625 176.5045166015625 95.13987731933594 C 175.33261108398438 99.69967651367188 176.16390991210938 104.46868896484375 177.07415771484375 109.05848693847656 C 177.58966064453125 111.63592529296875 178.219482421875 114.35794067382812 180.06329345703125 116.2109375 C 182.541259765625 118.66069030761719 186.4490966796875 118.84327697753906 189.91351318359375 118.48027038574219 C 194.98434448242188 117.95533752441406 199.93679809570312 116.61311340332031 204.57876586914062 114.50564575195312 C 206.18121337890625 113.77438354492188 207.8092041015625 112.90168762207031 208.8233642578125 111.46224975585938 C 209.69784545898438 110.07562255859375 210.14996337890625 108.46449279785156 210.1246337890625 106.8253173828125 C 210.24111938476562 101.85012817382812 208.16925048828125 97.07426452636719 204.45672607421875 93.76019287109375 L 202.39300537109375 96.22296142578125" stroke-width="0.6000000238418579" fill="rgb(70, 150, 179)" opacity="1.0"/>
    <path d="M 254.26177978515625 126.35733032226562 C 248.39584350585938 125.76551818847656 241.86907958984375 125.3558349609375 237.2412109375 129.00244140625 C 232.272216796875 132.92269897460938 231.39031982421875 140.35321044921875 233.24212646484375 146.4053955078125 C 233.95510864257812 148.73916625976562 235.0703125 151.04759216308594 236.974853515625 152.57278442382812 C 238.5400390625 153.8271942138672 240.505615234375 154.4539031982422 242.44921875 154.94766235351562 C 248.5765380859375 156.5120849609375 255.46258544921875 156.93460083007812 260.8712463378906 153.66036987304688 C 266.320068359375 150.35665893554688 269.24591064453125 143.3375701904297 267.7195739746094 137.1451416015625 C 266.1932373046875 130.95272827148438 260.3943176269531 126.04803466796875 254.026611328125 125.62185668945312 L 254.26177978515625 126.35733032226562" stroke-width="0.6000000238418579" fill="rgb(140, 28, 33)" opacity="1.0"/>
    <path d="M 290.3932800292969 123.44186401367188 C 284.526611328125 125.8924560546875 278.4490051269531 128.507080078125 274.1424560546875 133.19058227539062 C 269.83599853515625 137.87403869628906 267.8037109375 145.30999755859375 271.1138610839844 150.74227905273438 C 275.21484375 157.43875122070312 285.7366943359375 157.69229125976562 291.8510437011719 152.74253845214844 C 297.9653625488281 147.7928009033203 300.31890869140625 139.47161865234375 300.6197509765625 131.6204833984375 C 300.95635986328125 129.19944763183594 300.3731994628906 126.74026489257812 298.9853210449219 124.72821044921875 C 297.41796875 122.90443420410156 293.9244689941406 122.67041015625 292.86553955078125 124.84269714355469 L 290.3932800292969 123.44186401367188" stroke-width="0.6000000238418579" fill="rgb(159, 159, 159)" opacity="1.0"/>
    <path d="M 195.781005859375 134.3175811767578 C 192.5982666015625 129.20877075195312 187.5958251953125 125.07913208007812 181.72909545898438 123.74746704101562 C 175.86236572265625 122.41580200195312 169.18780517578125 124.201416015625 165.33197021484375 128.8523406982422 C 162.61004638671875 132.14404296875 161.48092651367188 136.56930541992188 161.67874145507812 140.8397979736328 C 161.87652587890625 145.11029052734375 163.30508422851562 149.24600219726562 165.22775268554688 153.06517028808594 C 166.0654296875 154.7266845703125 167.06436157226562 156.40887451171875 168.65728759765625 157.36126708984375 C 170.4830322265625 158.45404052734375 172.75042724609375 158.38897705078125 174.8753662109375 158.18954467773438 C 180.87445068359375 157.62640380859375 187.0157470703125 156.12240600585938 191.68228149414062 152.3094482421875 C 196.34881591796875 148.4964599609375 199.14105224609375 141.92950439453125 197.16815185546875 136.25120544433594 L 195.781005859375 134.3175811767578" stroke-width="0.6000000238418579" fill="rgb(159, 159, 159)" opacity="1.0"/>
    <path d="M 276.5609436035156 98.780029296875 C 271.0711669921875 99.05177307128906 264.98077392578125 99.59164428710938 261.25787353515625 103.62074279785156 C 257.6318359375 107.53396606445312 257.44146728515625 113.43328857421875 257.55499267578125 118.7694091796875 C 257.60430908203125 120.93705749511719 257.6904602050781 123.2039794921875 258.75860595703125 125.08944702148438 C 260.5633239746094 128.2794189453125 264.57733154296875 129.43539428710938 268.2252502441406 129.72915649414062 C 271.6110534667969 130.00314331054688 275.0186462402344 129.78952026367188 278.3437194824219 129.09486389160156 C 283.7431335449219 127.96890258789062 289.4164733886719 124.95399475097656 290.885009765625 119.63955688476562 C 291.6820068359375 116.77165222167969 291.0902404785156 113.64569091796875 289.83245849609375 110.94284057617188 C 288.5746765136719 108.239990234375 286.6817321777344 105.88760375976562 284.77984619140625 103.5919189453125 C 282.8779602050781 101.29623413085938 280.9599914550781 99.08123779296875 278.3470764160156 97.79998779296875 L 276.5609436035156 98.780029296875" stroke-width="0.6000000238418579" fill="rgb(218, 166, 20)" opacity="1.0"/>
    <path d="M 224.83663940429688 110.60433959960938 C 225.7347412109375 120.03009033203125 234.1038818359375 126.94314575195312 243.52963256835938 126.0450439453125 C 244.33676147460938 125.96815490722656 245.13742065429688 125.83407592773438 245.92559814453125 125.64385986328125 C 248.9202880859375 124.92056274414062 251.81768798828125 123.27212524414062 253.40060424804688 120.63078308105469 C 254.73846435546875 118.3988037109375 255.02279663085938 115.69972229003906 255.01397705078125 113.09921264648438 C 254.98074340820312 106.13833618164062 253.08428955078125 99.31332397460938 249.52163696289062 93.3331298828125 C 248.5772705078125 91.75398254394531 247.47930908203125 90.20123291015625 245.92971801757812 89.20181274414062 C 243.32925415039062 87.52243041992188 239.87680053710938 87.71688842773438 236.99041748046875 88.84170532226562 C 232.70404052734375 90.5086669921875 229.27984619140625 94.04458618164062 227.29159545898438 98.19285583496094 C 225.3033447265625 102.34111022949219 224.66961669921875 107.0552978515625 225.00119018554688 111.64306640625 L 224.83663940429688 110.60433959960938" stroke-width="0.6000000238418579" fill="rgb(143, 165, 67)" opacity="1.0"/>
    <path d="M 248.12579345703125 86.63270568847656 C 248.810546875 97.923583984375 264.6392517089844 104.45361328125 273.55841064453125 97.61553955078125 C 282.4775695800781 90.77743530273438 280.81512451171875 74.57606506347656 271.01727294921875 68.91632080078125 C 261.2194519042969 63.256591796875 247.07009887695312 68.94161987304688 243.123779296875 79.557373046875 L 248.12579345703125 86.63270568847656" stroke-width="0.6000000238418579" fill="rgb(233, 92, 21)" opacity="1.0"/>
    <path d="M 339.02740478515625 70.09379577636719 C 336.6763916015625 65.12149047851562 333.35235595703125 59.42576599121094 327.8424072265625 59.112274169921875 C 325.64483642578125 59.07286071777344 323.4891662597656 59.71632385253906 321.67279052734375 60.9539794921875 C 317.09625244140625 63.895263671875 314.2292175292969 68.87234497070312 313.98089599609375 74.306884765625 C 313.78204345703125 78.91743469238281 315.54669189453125 83.32220458984375 317.3507080078125 87.53912353515625 C 318.3679504394531 89.90628051757812 319.52410888671875 92.38890075683594 321.668212890625 93.7918701171875 C 324.54150390625 95.63848876953125 328.32611083984375 95.02084350585938 331.5747985839844 93.96990966796875 C 336.3312072753906 92.43783569335938 340.80828857421875 90.14599609375 344.83233642578125 87.18328857421875 C 346.22076416015625 86.15695190429688 347.6049499511719 84.98977661132812 348.2854919433594 83.40365600585938 C 348.8428039550781 81.896484375 348.9495544433594 80.25970458984375 348.59271240234375 78.69291687011719 C 347.6951904296875 73.89813232421875 344.7394714355469 69.7384033203125 340.5068664550781 67.31338500976562 L 339.02740478515625 70.09379577636719" stroke-width="0.6000000238418579" fill="rgb(70, 150, 179)" opacity="1.0"/>
    <path d="M 330.3631286621094 136.9242401123047 C 330.46160888671875 131.1378631591797 330.3277893066406 124.719970703125 326.3817443847656 120.49176025390625 C 322.14007568359375 115.9522705078125 314.79949951171875 115.69822692871094 309.03106689453125 118.00527954101562 C 306.8066101074219 118.89384460449219 304.6399230957031 120.17376708984375 303.3039855957031 122.16165161132812 C 302.20513916015625 123.79541015625 301.75311279296875 125.76942443847656 301.4293212890625 127.7110595703125 C 300.4008483886719 133.832763671875 300.551513671875 140.60313415527344 304.197265625 145.6256103515625 C 307.8751525878906 150.68495178222656 314.9806823730469 152.9720458984375 320.9129638671875 150.9718475341797 C 326.84521484375 148.97166442871094 331.1679382324219 142.89761352539062 331.06329345703125 136.6339569091797 L 330.3631286621094 136.9242401123047" stroke-width="0.6000000238418579" fill="rgb(140, 28, 33)" opacity="1.0"/>
    <path d="M 346.05157470703125 95.65397644042969 C 340.0583190917969 94.074462890625 333.8045654296875 92.4969482421875 327.6957702636719 93.5703125 C 321.5870666503906 94.64370727539062 315.607666015625 99.19528198242188 314.9508972167969 105.36166381835938 C 314.1571960449219 112.9752197265625 322.1514587402344 119.4063720703125 329.8173522949219 119.19813537597656 C 337.48321533203125 118.98989868164062 344.2358703613281 113.94351196289062 349.12103271484375 108.0445556640625 C 350.81622314453125 106.3699951171875 351.82208251953125 104.12089538574219 351.9400329589844 101.74102783203125 C 351.80755615234375 99.40057373046875 349.2420654296875 97.1492919921875 347.1351318359375 98.20326232910156 L 346.05157470703125 95.65397644042969" stroke-width="0.6000000238418579" fill="rgb(159, 159, 159)" opacity="1.0"/>
    <path d="M 343.260986328125 116.94049072265625 C 338.1708068847656 118.99908447265625 333.6750793457031 122.84651184082031 331.55804443359375 127.9095458984375 C 329.4410095214844 132.97259521484375 329.9985046386719 139.25057983398438 333.5729675292969 143.44512939453125 C 336.10394287109375 146.4075164794922 339.9034423828125 148.1163787841797 343.77197265625 148.6085662841797 C 347.64056396484375 149.1007843017578 351.5810852050781 148.46588134765625 355.3146667480469 147.33729553222656 C 356.93914794921875 146.84519958496094 358.6075134277344 146.21144104003906 359.7132568359375 144.92942810058594 C 360.9816589355469 143.46022033691406 361.2789306640625 141.4124755859375 361.43304443359375 139.47169494628906 C 361.8681335449219 133.9924774169922 361.4800720214844 128.2378692626953 358.7857666015625 123.44625854492188 C 356.0914306640625 118.65463256835938 350.6283264160156 115.11528015136719 345.2161865234375 115.99734497070312 L 343.260986328125 116.94049072265625" stroke-width="0.6000000238418579" fill="rgb(159, 159, 159)" opacity="1.0"/>
    <path d="M 363.9310607910156 89.64485168457031 C 359.02325439453125 89.81552124023438 353.5754089355469 90.21784973144531 350.19671630859375 93.76832580566406 C 346.90606689453125 97.216552734375 346.6585388183594 102.484130859375 346.6899108886719 107.25257873535156 C 346.70550537109375 109.18968200683594 346.752685546875 111.21592712402344 347.6821594238281 112.914306640625 C 349.25250244140625 115.7877197265625 352.82318115234375 116.87310791015625 356.0781555175781 117.18342590332031 C 359.0992126464844 117.47264099121094 362.1461486816406 117.3265380859375 365.1257019042969 116.7496337890625 C 369.9639587402344 115.81463623046875 375.07177734375 113.19580078125 376.45343017578125 108.46749877929688 C 377.20306396484375 105.91595458984375 376.7154541015625 103.11564636230469 375.6273193359375 100.6845703125 C 374.5391845703125 98.25350952148438 372.8790283203125 96.12716674804688 371.21014404296875 94.0513916015625 C 369.541259765625 91.9755859375 367.85693359375 89.9716796875 365.53955078125 88.79278564453125 L 363.9310607910156 89.64485168457031" stroke-width="0.6000000238418579" fill="rgb(218, 166, 20)" opacity="1.0"/>
    <path d="M 428.09173583984375 138.44952392578125 C 419.725341796875 138.95159912109375 413.35009765625 146.14088439941406 413.8521728515625 154.5072479248047 C 413.8951416015625 155.22366333007812 413.9888916015625 155.93612670898438 414.13275146484375 156.6392822265625 C 414.6796875 159.31097412109375 416.048095703125 161.92529296875 418.335693359375 163.4075927734375 C 420.2686767578125 164.660400390625 422.6475830078125 164.99563598632812 424.94842529296875 165.06851196289062 C 431.107421875 165.25506591796875 437.2039794921875 163.78912353515625 442.6048583984375 160.82293701171875 C 444.03118896484375 160.0364990234375 445.4388427734375 159.11334228515625 446.37109375 157.77349853515625 C 447.93743896484375 155.52511596679688 447.87255859375 152.46487426757812 446.96697998046875 149.8765411376953 C 445.625244140625 146.03289794921875 442.603515625 142.8939666748047 438.995361328125 141.00634765625 C 435.3873291015625 139.1187286376953 431.236572265625 138.41184997558594 427.167724609375 138.56288146972656 L 428.09173583984375 138.44952392578125" stroke-width="0.6000000238418579" fill="rgb(143, 165, 67)" opacity="1.0"/>
    <path d="M 149.02317810058594 407.23779296875 C 156.0152587890625 414.82763671875 170.97259521484375 410.32208251953125 173.338623046875 400.3455810546875 C 175.70458984375 390.3690490722656 165.1907958984375 379.8701477050781 154.9998779296875 381.51507568359375 C 144.80899047851562 383.1600036621094 138.0797882080078 395.3357238769531 141.40780639648438 405.117431640625 L 149.02317810058594 407.23779296875" stroke-width="0.6000000238418579" fill="rgb(233, 92, 21)" opacity="1.0"/>
    <path d="M 429.38751220703125 201.87579345703125 C 424.8829345703125 198.97528076171875 419.2012939453125 195.97775268554688 414.484130859375 198.55609130859375 C 412.6468505859375 199.65524291992188 411.1958312988281 201.29742431640625 410.3313903808594 203.25613403320312 C 408.0621032714844 208.044921875 408.25469970703125 213.6365966796875 410.8481140136719 218.25790405273438 C 413.05810546875 222.17242431640625 416.7855224609375 224.9056396484375 420.44879150390625 227.4632568359375 C 422.5089111328125 228.8966064453125 424.743408203125 230.3538818359375 427.23870849609375 230.40972900390625 C 430.56536865234375 230.45684814453125 433.37652587890625 227.99713134765625 435.52142333984375 225.45516967773438 C 438.6651611328125 221.7388916015625 441.1866455078125 217.538330078125 442.988037109375 213.016357421875 C 443.60748291015625 211.45272827148438 444.15087890625 209.77484130859375 443.896728515625 208.1129150390625 C 443.5814208984375 206.57974243164062 442.82672119140625 205.17144775390625 441.72479248046875 204.05975341796875 C 438.513427734375 200.5574951171875 433.9273681640625 198.64031982421875 429.17889404296875 198.81497192382812 L 429.38751220703125 201.87579345703125" stroke-width="0.6000000238418579" fill="rgb(70, 150, 179)" opacity="1.0"/>
    <path d="M 414.148193359375 161.6087646484375 C 413.8475341796875 155.91812133789062 413.27532958984375 149.6231231689453 409.10882568359375 145.74082946777344 C 404.6305236816406 141.57305908203125 397.4025573730469 141.82765197753906 391.8947448730469 144.489990234375 C 389.7707214355469 145.5155792236328 387.7303161621094 146.92161560058594 386.5545654296875 148.96604919433594 C 385.58740234375 150.64633178710938 385.2789306640625 152.6164093017578 385.09423828125 154.54588317871094 C 384.50439453125 160.6297607421875 385.11737060546875 167.26986694335938 389.0434875488281 171.95297241210938 C 393.003662109375 176.67010498046875 400.140380859375 178.4287109375 405.8301696777344 176.0565185546875 C 411.5199890136719 173.68435668945312 415.3489990234375 167.42105102539062 414.8160400390625 161.2755126953125 L 414.148193359375 161.6087646484375" stroke-width="0.6000000238418579" fill="rgb(140, 28, 33)" opacity="1.0"/>
    <path d="M 152.74606323242188 131.18836975097656 C 146.63307189941406 132.61683654785156 140.2879180908203 134.1706085205078 135.32957458496094 138.02818298339844 C 130.37132263183594 141.88572692871094 127.17822265625 148.794921875 129.5146484375 154.62525939941406 C 132.41476440429688 161.81573486328125 142.619384765625 163.78057861328125 149.381591796875 159.95889282226562 C 156.143798828125 156.13720703125 159.79425048828125 148.41847229003906 161.36907958984375 140.82228088378906 C 162.0921630859375 138.51966857910156 161.92581176757812 136.02975463867188 160.90283203125 133.84384155273438 C 159.67434692382812 131.8119659423828 156.31063842773438 131.013671875 154.92477416992188 132.95611572265625 L 152.74606323242188 131.18836975097656" stroke-width="0.6000000238418579" fill="rgb(159, 159, 159)" opacity="1.0"/>
    <path d="M 437.25830078125 166.68365478515625 C 431.88885498046875 164.43902587890625 425.63336181640625 163.98516845703125 420.263427734375 166.220703125 C 414.8934326171875 168.45623779296875 410.63226318359375 173.60125732421875 410.1973876953125 179.42633056640625 C 409.8951416015625 183.54510498046875 411.4831848144531 187.66546630859375 414.03045654296875 190.9207763671875 C 416.57769775390625 194.1761474609375 420.01953125 196.63604736328125 423.67364501953125 198.56976318359375 C 425.26434326171875 199.41030883789062 426.99365234375 200.1768798828125 428.7825927734375 200.03561401367188 C 430.8336181640625 199.87457275390625 432.5843505859375 198.55364990234375 434.1475830078125 197.20654296875 C 438.56085205078125 193.40335083007812 442.559326171875 188.7789306640625 444.1025390625 183.16036987304688 C 445.6456298828125 177.54177856445312 444.169189453125 170.802001953125 439.4344482421875 167.4310302734375 L 437.25830078125 166.68365478515625" stroke-width="0.6000000238418579" fill="rgb(159, 159, 159)" opacity="1.0"/>
    <path d="M 412.9158935546875 194.8760986328125 C 412.4605712890625 189.44876098632812 411.7193908691406 183.43572998046875 407.60308837890625 179.8856201171875 C 403.6048583984375 176.42745971679688 397.75628662109375 176.43899536132812 392.47576904296875 176.732421875 C 390.330810546875 176.854736328125 388.08880615234375 177.01693725585938 386.2578430175781 178.138671875 C 383.1600341796875 180.03411865234375 382.1513977050781 184.04837036132812 381.98419189453125 187.6708984375 C 381.82769775390625 191.03314208984375 382.1548156738281 194.40042114257812 382.95550537109375 197.669677734375 C 384.2536926269531 202.97857666015625 387.4317626953125 208.49462890625 392.74444580078125 209.7686767578125 C 395.611572265625 210.460693359375 398.6871337890625 209.76861572265625 401.3211364746094 208.431396484375 C 403.9551086425781 207.09414672851562 406.2204895019531 205.1397705078125 408.4294128417969 203.178466796875 C 410.6383056640625 201.2171630859375 412.76678466796875 199.24267578125 413.947021484375 196.61163330078125 L 412.9158935546875 194.8760986328125" stroke-width="0.6000000238418579" fill="rgb(218, 166, 20)" opacity="1.0"/>
    <path d="M 443.47088623046875 194.2257080078125 C 440.0618896484375 202.61770629882812 444.1014404296875 212.184326171875 452.49346923828125 215.59332275390625 C 453.2120361328125 215.88525390625 453.950439453125 216.12579345703125 454.703125 216.313232421875 C 457.563232421875 217.02484130859375 460.7501220703125 216.90872192382812 463.26141357421875 215.36883544921875 C 465.3837890625 214.0677490234375 466.8192138671875 211.90426635742188 467.96240234375 209.6947021484375 C 471.0142822265625 203.7760009765625 472.42572021484375 197.1480712890625 472.05010986328125 190.49945068359375 C 471.9478759765625 188.74221801757812 471.70367431640625 186.93939208984375 470.83160400390625 185.40606689453125 C 469.3690185546875 182.83099365234375 466.354736328125 181.46826171875 463.408935546875 181.1451416015625 C 459.0357666015625 180.66238403320312 454.56689453125 182.14627075195312 451.044921875 184.78494262695312 C 447.5230712890625 187.423583984375 444.89959716796875 191.1416015625 443.15087890625 195.17950439453125 L 443.47088623046875 194.2257080078125" stroke-width="0.6000000238418579" fill="rgb(143, 165, 67)" opacity="1.0"/>
    <path d="M 142.4071807861328 95.51022338867188 C 131.76812744140625 104.32748413085938 136.74391174316406 124.64358520507812 149.91807556152344 128.50685119628906 C 163.09225463867188 132.37005615234375 177.8680419921875 119.0477294921875 176.38314819335938 105.3056640625 C 174.89822387695312 91.5635986328125 159.08935546875 81.71188354492188 145.7764129638672 85.47604370117188 L 142.4071807861328 95.51022338867188" stroke-width="0.6000000238418579" fill="rgb(233, 92, 21)" opacity="1.0"/>
    <path d="M 453.006103515625 154.302978515625 C 447.314453125 156.04345703125 440.69610595703125 158.7127685546875 439.49945068359375 164.56378173828125 C 439.1138916015625 166.9107666015625 439.466064453125 169.319580078125 440.5074462890625 171.4578857421875 C 442.94189453125 176.8179931640625 447.8232421875 180.66567993164062 453.60369873046875 181.78076171875 C 458.509521484375 182.71414184570312 463.5018310546875 181.51287841796875 468.2991943359375 180.24005126953125 C 470.9927978515625 179.52072143554688 473.83184814453125 178.670654296875 475.669189453125 176.59396362304688 C 478.095458984375 173.80584716796875 478.02545166015625 169.65682983398438 477.40777587890625 166.01394653320312 C 476.510498046875 160.68145751953125 474.7559814453125 155.52935791015625 472.21234130859375 150.7574920654297 C 471.330322265625 149.1104278564453 470.29681396484375 147.4458770751953 468.7047119140625 146.4693145751953 C 467.177978515625 145.63702392578125 465.4420166015625 145.2669677734375 463.70855712890625 145.40423583984375 C 458.43408203125 145.6160888671875 453.51806640625 148.13104248046875 450.260009765625 152.28433227539062 L 453.006103515625 154.302978515625" stroke-width="0.6000000238418579" fill="rgb(70, 150, 179)" opacity="1.0"/>
    <path d="M 379.01318359375 80.71035766601562 C 381.6647644042969 74.94610595703125 384.36181640625 68.445556640625 382.26654052734375 62.4609375 C 380.01190185546875 56.033447265625 372.7563781738281 52.540069580078125 365.94891357421875 52.31080627441406 C 363.32427978515625 52.22129821777344 360.5849304199219 52.550048828125 358.3670959472656 53.955902099609375 C 356.54345703125 55.11091613769531 355.2188720703125 56.89277648925781 354.0373229980469 58.698699951171875 C 350.30438232421875 64.38925170898438 347.4687805175781 71.25103759765625 348.9122314453125 77.90036010742188 C 350.3716735839844 84.60089111328125 356.494384765625 90.03109741210938 363.3309020996094 90.64064025878906 C 370.1674499511719 91.25018310546875 377.18572998046875 87.060791015625 379.843994140625 80.7279052734375 L 379.01318359375 80.71035766601562" stroke-width="0.6000000238418579" fill="rgb(140, 28, 33)" opacity="1.0"/>
    <path d="M 130.27793884277344 408.5932312011719 C 126.08953857421875 414.9832763671875 121.80171203613281 421.6785888671875 120.66986083984375 429.240234375 C 119.53805541992188 436.8017578125 122.52340698242188 445.571044921875 129.47634887695312 448.748291015625 C 138.0677947998047 452.6510009765625 148.71041870117188 445.81707763671875 151.462158203125 436.77294921875 C 154.21389770507812 427.7288818359375 150.95213317871094 417.86212158203125 145.96395874023438 409.845703125 C 144.66844177246094 407.2094421386719 142.43186950683594 405.1546936035156 139.6954803466797 404.0869140625 C 136.90731811523438 403.3273620605469 133.2727813720703 405.4472351074219 133.68186950683594 408.3223876953125 L 130.27793884277344 408.5932312011719" stroke-width="0.6000000238418579" fill="rgb(159, 159, 159)" opacity="1.0"/>
    <path d="M 414.8416748046875 223.4984130859375 C 411.4786071777344 217.64340209960938 406.0362243652344 212.8131103515625 399.5126647949219 211.0848388671875 C 392.9891052246094 209.35659790039062 385.4348449707031 211.090576171875 380.9256286621094 216.14987182617188 C 377.7420654296875 219.73089599609375 376.29876708984375 224.6466064453125 376.34918212890625 229.4420166015625 C 376.39959716796875 234.23745727539062 377.83514404296875 238.93118286132812 379.83734130859375 243.28985595703125 C 380.70977783203125 245.18609619140625 381.76214599609375 247.11203002929688 383.50970458984375 248.24365234375 C 385.5126647949219 249.54196166992188 388.0571594238281 249.55999755859375 390.4473571777344 249.42166137695312 C 397.1953125 249.03103637695312 404.14044189453125 247.59136962890625 409.52490234375 243.50399780273438 C 414.909423828125 239.4166259765625 418.3031005859375 232.16668701171875 416.3192138671875 225.72174072265625 L 414.8416748046875 223.4984130859375" stroke-width="0.6000000238418579" fill="rgb(159, 159, 159)" opacity="1.0"/>
    <path d="M 383.4967346191406 111.68089294433594 C 377.2106628417969 112.05467224121094 370.23956298828125 112.74246215820312 366.0204162597656 117.40061950683594 C 361.9109191894531 121.9249267578125 361.75994873046875 128.6854248046875 361.95074462890625 134.79727172851562 C 362.0318908691406 137.28001403808594 362.1563720703125 139.87603759765625 363.40155029296875 142.02389526367188 C 365.50537109375 145.6578369140625 370.11700439453125 146.93646240234375 374.2994689941406 147.2314910888672 C 378.181396484375 147.5068359375 382.0827331542969 147.22332763671875 385.88409423828125 146.38967895507812 C 392.0569152832031 145.03829956054688 398.5220642089844 141.51983642578125 400.1439514160156 135.4148406982422 C 401.0243835449219 132.12025451660156 400.31085205078125 128.54583740234375 398.8392028808594 125.4637451171875 C 397.36749267578125 122.38162231445312 395.172119140625 119.70822143554688 392.9671630859375 117.09991455078125 C 390.7622375488281 114.49159240722656 388.5397644042969 111.97589111328125 385.53179931640625 110.53781127929688 L 383.4967346191406 111.68089294433594" stroke-width="0.6000000238418579" fill="rgb(218, 166, 20)" opacity="1.0"/>
    <path d="M 402.4085693359375 84.17010498046875 C 394.981689453125 77.04833984375 383.18768310546875 77.29571533203125 376.0659484863281 84.72259521484375 C 375.4560852050781 85.35855102539062 374.89215087890625 86.0369873046875 374.3783264160156 86.75276184082031 C 372.4263916015625 89.47291564941406 371.2109069824219 92.88555908203125 371.7819519042969 96.18289184570312 C 372.2642517089844 98.96942138671875 373.9452209472656 101.39291381835938 375.79754638671875 103.52729797363281 C 380.763671875 109.23367309570312 387.1671142578125 113.50624084472656 394.3427429199219 115.90121459960938 C 396.2405090332031 116.53108215332031 398.2460021972656 117.03022766113281 400.23065185546875 116.75347900390625 C 403.5627746582031 116.29084777832031 406.2667541503906 113.68125915527344 407.8446350097656 110.70745849609375 C 410.1903076171875 106.29408264160156 410.5002746582031 100.95396423339844 409.1937255859375 96.12857055664062 C 407.88720703125 91.30320739746094 405.0641174316406 86.9730224609375 401.5361328125 83.43180847167969 L 402.4085693359375 84.17010498046875" stroke-width="0.6000000238418579" fill="rgb(143, 165, 67)" opacity="1.0"/>
    <path d="M 116.15614318847656 429.3267822265625 C 111.48556518554688 417.978271484375 92.94398498535156 416.83807373046875 86.192138671875 426.9910888671875 C 79.44033813476562 437.14410400390625 86.84002685546875 453.1893310546875 98.88560485839844 455.5555419921875 C 110.93118286132812 457.92169189453125 123.45654296875 447.1142578125 123.77665710449219 434.831298828125 L 116.15614318847656 429.3267822265625" stroke-width="0.6000000238418579" fill="rgb(233, 92, 21)" opacity="1.0"/>
    <path d="M 454.26226806640625 219.20477294921875 C 448.1363525390625 218.38055419921875 440.73321533203125 218.0313720703125 437.0679931640625 223.03472900390625 C 435.6868896484375 225.0826416015625 434.9752197265625 227.50863647460938 435.0313720703125 229.97808837890625 C 435.0057373046875 236.0919189453125 437.945068359375 241.8388671875 442.91717529296875 245.39654541015625 C 447.14263916015625 248.4036865234375 452.3748779296875 249.43365478515625 457.4541015625 250.3116455078125 C 460.30810546875 250.8001708984375 463.35589599609375 251.22836303710938 465.989990234375 250.06475830078125 C 469.48822021484375 248.4849853515625 471.2203369140625 244.5389404296875 472.21630859375 240.83319091796875 C 473.68060302734375 235.41162109375 474.2576904296875 229.788818359375 473.92529296875 224.18280029296875 C 473.806640625 222.24606323242188 473.552734375 220.2271728515625 472.473388671875 218.61553955078125 C 471.3931884765625 217.1683349609375 469.915283203125 216.06668090820312 468.2197265625 215.4449462890625 C 463.1500244140625 213.35888671875 457.42047119140625 213.601806640625 452.5455322265625 216.1094970703125 L 454.26226806640625 219.20477294921875" stroke-width="0.6000000238418579" fill="rgb(70, 150, 179)" opacity="1.0"/>
    <path d="M 431.8004150390625 134.285888671875 C 433.4326171875 128.1056671142578 434.98236083984375 121.18685913085938 431.865478515625 115.61080932617188 C 428.51373291015625 109.62290954589844 420.7076416015625 107.41378784179688 413.9119873046875 108.36634826660156 C 411.291748046875 108.73251342773438 408.63018798828125 109.53364562988281 406.6728515625 111.31330871582031 C 405.0632629394531 112.77569580078125 404.0576477050781 114.77366638183594 403.1980895996094 116.77073669433594 C 400.4799499511719 123.06524658203125 398.8553466796875 130.3665771484375 401.4405212402344 136.7152862548828 C 404.0504455566406 143.1120147705078 411.068115234375 147.43968200683594 417.95849609375 146.85946655273438 C 424.848876953125 146.2792510986328 431.087646484375 140.90496826171875 432.6279296875 134.1592559814453 L 431.8004150390625 134.285888671875" stroke-width="0.6000000238418579" fill="rgb(140, 28, 33)" opacity="1.0"/>
    <path d="M 382.30224609375 57.72430419921875 C 383.6445007324219 64.66865539550781 385.11773681640625 71.87985229492188 389.2449951171875 77.62995910644531 C 393.3722229003906 83.37995910644531 401.01190185546875 87.27543640136719 407.67755126953125 84.898681640625 C 415.8990478515625 81.94647216796875 418.5550537109375 70.54325866699219 414.54669189453125 62.763885498046875 C 410.538330078125 54.98451232910156 402.00714111328125 50.538848876953125 393.5235900878906 48.43536376953125 C 390.96270751953125 47.5211181640625 388.1522216796875 47.600067138671875 385.6467590332031 48.65667724609375 C 383.3057556152344 49.95133972167969 382.2606506347656 53.703582763671875 384.3872375488281 55.34834289550781 L 382.30224609375 57.72430419921875" stroke-width="0.6000000238418579" fill="rgb(159, 159, 159)" opacity="1.0"/>
    <path d="M 434.9765625 246.95867919921875 C 428.897705078125 250.27056884765625 423.821044921875 255.73736572265625 421.89892578125 262.38397216796875 C 419.9769287109375 269.03057861328125 421.5797119140625 276.8135681152344 426.6612548828125 281.5522766113281 C 430.2581787109375 284.8980407714844 435.263427734375 286.4909362792969 440.1798095703125 286.54998779296875 C 445.09619140625 286.60906982421875 449.9403076171875 285.24603271484375 454.45404052734375 283.29449462890625 C 456.4178466796875 282.4440612792969 458.4161376953125 281.40985107421875 459.616455078125 279.644775390625 C 460.993408203125 277.6217956542969 461.0706787109375 275.0141296386719 460.98406982421875 272.56103515625 C 460.739501953125 265.635498046875 459.42425537109375 258.483642578125 455.359130859375 252.87030029296875 C 451.29400634765625 247.25689697265625 443.9412841796875 243.61099243164062 437.28961181640625 245.49566650390625 L 434.9765625 246.95867919921875" stroke-width="0.6000000238418579" fill="rgb(159, 159, 159)" opacity="1.0"/>
    <path d="M 415.4918212890625 261.4948425292969 C 411.13458251953125 255.9173583984375 406.0496520996094 249.906494140625 399.0473937988281 248.9754638671875 C 392.23895263671875 248.0604248046875 385.8876647949219 252.23492431640625 380.3546142578125 256.31170654296875 C 378.10931396484375 257.97113037109375 375.786865234375 259.74298095703125 374.59423828125 262.2656555175781 C 372.5745849609375 266.5311279296875 374.33447265625 271.6138916015625 376.73052978515625 275.6718444824219 C 378.9530029296875 279.439208984375 381.7049560546875 282.8678894042969 384.9020690917969 285.85296630859375 C 390.091552734375 290.7018127441406 397.47265625 294.4382019042969 404.1560974121094 292.04290771484375 C 407.7661437988281 290.75506591796875 410.6179504394531 287.81390380859375 412.5303955078125 284.4854736328125 C 414.44287109375 281.156982421875 415.515380859375 277.4197692871094 416.5216064453125 273.7152099609375 C 417.52777099609375 270.0106506347656 418.4371337890625 266.3489990234375 417.84814453125 262.64825439453125 L 415.4918212890625 261.4948425292969" stroke-width="0.6000000238418579" fill="rgb(218, 166, 20)" opacity="1.0"/>
    <path d="M 409.56341552734375 86.76448059082031 C 406.0042724609375 96.61749267578125 411.1064453125 107.490234375 420.95947265625 111.04937744140625 C 421.80322265625 111.35415649414062 422.66748046875 111.59869384765625 423.5457763671875 111.78115844726562 C 426.88336181640625 112.47386169433594 430.56109619140625 112.19517517089844 433.3935546875 110.30169677734375 C 435.78729248046875 108.7017822265625 437.34808349609375 106.13644409179688 438.569091796875 103.53106689453125 C 441.82763671875 96.55258178710938 443.1583251953125 88.82888793945312 442.4227294921875 81.16227722167969 C 442.22491455078125 79.1361083984375 441.8609619140625 77.06370544433594 440.7835693359375 75.33119201660156 C 438.9765625 72.42160034179688 435.4312744140625 70.98341369628906 432.01214599609375 70.74356079101562 C 426.936279296875 70.38394165039062 421.8389892578125 72.30146789550781 417.88848876953125 75.51060485839844 C 413.93798828125 78.71971130371094 411.0746765136719 83.135498046875 409.2367858886719 87.88131713867188 L 409.56341552734375 86.76448059082031" stroke-width="0.6000000238418579" fill="rgb(143, 165, 67)" opacity="1.0"/>
    <path d="M 434.72998046875 122.42977905273438 C 430.0103759765625 135.11424255371094 444.16497802734375 149.92507934570312 457.235107421875 146.763916015625 C 470.30511474609375 143.60269165039062 476.33349609375 125.07232666015625 468.35546875 114.13467407226562 C 460.37744140625 103.197021484375 442.14373779296875 102.56349182128906 432.6844482421875 112.26626586914062 L 434.72998046875 122.42977905273438" stroke-width="0.6000000238418579" fill="rgb(233, 92, 21)" opacity="1.0"/>
    <path d="M 448.3018798828125 90.97085571289062 C 448.4754638671875 97.08650207519531 449.317138671875 104.37379455566406 454.79010009765625 107.15472412109375 C 457.01123046875 108.17665100097656 459.49462890625 108.48419189453125 461.89794921875 108.03485107421875 C 467.8741455078125 107.08311462402344 473.018310546875 103.29377746582031 475.69915771484375 97.86849975585938 C 477.96148681640625 93.26052856445312 478.1317138671875 87.9849853515625 478.1778564453125 82.88323974609375 C 478.1990966796875 80.01734924316406 478.13043212890625 76.97177124023438 476.572998046875 74.58465576171875 C 474.470947265625 71.41986083984375 470.339599609375 70.35829162597656 466.56060791015625 69.97750854492188 C 461.03076171875 69.41331481933594 455.446044921875 69.74789428710938 450.0230712890625 70.96827697753906 C 448.15020751953125 71.39353942871094 446.21868896484375 71.96417236328125 444.8167724609375 73.27593994140625 C 443.57568359375 74.56230163574219 442.7357177734375 76.1820068359375 442.3992919921875 77.93753051757812 C 441.1715087890625 83.22300720214844 442.32421875 88.781005859375 445.5526123046875 93.142333984375 L 448.3018798828125 90.97085571289062" stroke-width="0.6000000238418579" fill="rgb(70, 150, 179)" opacity="1.0"/>
    <path d="M 311.64093017578125 365.95391845703125 C 305.7523193359375 363.3079833984375 299.1141662597656 360.6224365234375 293.0440673828125 362.8080749511719 C 286.5248107910156 365.1598815917969 283.0358581542969 372.5733337402344 282.8638610839844 379.5015563964844 C 282.79638671875 382.1727600097656 283.1555480957031 384.9568786621094 284.6058654785156 387.20074462890625 C 285.79742431640625 389.0457763671875 287.62225341796875 390.37738037109375 289.4703063964844 391.56329345703125 C 295.29364013671875 395.3100891113281 302.3005676269531 398.13336181640625 309.0528564453125 396.60491943359375 C 315.8570556640625 395.05975341796875 321.32684326171875 388.7814025878906 321.8854675292969 381.8202209472656 C 322.444091796875 374.8590087890625 318.1184997558594 367.7560729980469 311.6512756347656 365.10845947265625 L 311.64093017578125 365.95391845703125" stroke-width="0.6000000238418579" fill="rgb(140, 28, 33)" opacity="1.0"/>
    <path d="M 295.5121765136719 393.94775390625 C 287.6639099121094 391.145263671875 279.4664611816406 388.3156433105469 271.1595458984375 389.05401611328125 C 262.852783203125 389.79241943359375 254.3209228515625 395.2053527832031 252.73483276367188 403.3912353515625 C 250.79953002929688 413.50018310546875 260.77288818359375 423.03155517578125 271.06671142578125 423.63055419921875 C 281.36053466796875 424.22955322265625 290.9850158691406 418.2423095703125 298.20526123046875 410.89892578125 C 300.6680908203125 408.84967041015625 302.273193359375 405.9517517089844 302.70379638671875 402.7769775390625 C 302.7943420410156 399.62628173828125 299.6152038574219 396.31640625 296.671875 397.48712158203125 L 295.5121765136719 393.94775390625" stroke-width="0.6000000238418579" fill="rgb(159, 159, 159)" opacity="1.0"/>
    <path d="M 323.9908447265625 414.83837890625 C 319.089599609375 419.7322998046875 315.75836181640625 426.4119873046875 315.7880554199219 433.33453369140625 C 315.8177795410156 440.257080078125 319.5517883300781 447.276123046875 325.7663879394531 450.3917236328125 C 330.1629638671875 452.5888671875 335.4169616699219 452.7061767578125 340.1530456542969 451.3760986328125 C 344.88916015625 450.0460205078125 349.1547546386719 447.3712158203125 352.937255859375 444.224609375 C 354.5824890136719 442.8543701171875 356.2090759277344 441.29791259765625 356.86334228515625 439.2650146484375 C 357.61456298828125 436.93463134765625 356.95318603515625 434.40966796875 356.1781311035156 432.0792236328125 C 353.9898681640625 425.5001220703125 350.7099914550781 419.0057373046875 345.224365234375 414.763916015625 C 339.7387390136719 410.52203369140625 331.6521911621094 409.0960998535156 325.79852294921875 412.781494140625 L 323.9908447265625 414.83837890625" stroke-width="0.6000000238418579" fill="rgb(159, 159, 159)" opacity="1.0"/>
    <path d="M 257.5986022949219 414.1976318359375 C 250.63949584960938 414.3997802734375 242.91290283203125 414.9259033203125 238.0941162109375 419.93194580078125 C 233.40103149414062 424.793701171875 233.00738525390625 432.259521484375 233.01312255859375 439.0198974609375 C 233.01953125 441.7662353515625 233.07000732421875 444.63922119140625 234.3739013671875 447.05450439453125 C 236.57684326171875 451.140869140625 241.630126953125 452.70855712890625 246.24215698242188 453.1749267578125 C 250.522705078125 453.6094970703125 254.843505859375 453.42706298828125 259.0722351074219 452.63336181640625 C 265.9389953613281 451.34710693359375 273.20147705078125 447.6759033203125 275.1986083984375 440.98388671875 C 276.2820739746094 437.37261962890625 275.613525390625 433.398681640625 274.09063720703125 429.943359375 C 272.5677490234375 426.488037109375 270.23138427734375 423.4600830078125 267.88226318359375 420.5037841796875 C 265.5331726074219 417.54736328125 263.1615905761719 414.69281005859375 259.8858337402344 413.002685546875 L 257.5986022949219 414.1976318359375" stroke-width="0.6000000238418579" fill="rgb(218, 166, 20)" opacity="1.0"/>
    <path d="M 221.9522705078125 411.38580322265625 C 211.82382202148438 404.44659423828125 197.98773193359375 407.031982421875 191.04852294921875 417.16046142578125 C 190.45431518554688 418.0277099609375 189.92239379882812 418.93609619140625 189.45672607421875 419.878662109375 C 187.68798828125 423.46063232421875 186.92095947265625 427.7144775390625 188.234619140625 431.485107421875 C 189.34442138671875 434.67169189453125 191.79473876953125 437.19775390625 194.3905029296875 439.35003662109375 C 201.34677124023438 445.1016845703125 209.7161865234375 448.8858642578125 218.62939453125 450.3094482421875 C 220.98602294921875 450.6817626953125 223.44403076171875 450.8792724609375 225.72659301757812 450.16748046875 C 229.55926513671875 448.974609375 232.23480224609375 445.3765869140625 233.51388549804688 441.56884765625 C 235.416748046875 435.9169921875 234.74285888671875 429.5701904296875 232.26611328125 424.143798828125 C 229.78939819335938 418.71734619140625 225.62368774414062 414.1689453125 220.7816162109375 410.6863708496094 L 221.9522705078125 411.38580322265625" stroke-width="0.6000000238418579" fill="rgb(143, 165, 67)" opacity="1.0"/>
    <path d="M 258.9295349121094 361.85174560546875 C 265.11053466796875 374.1157531738281 285.8971252441406 373.8040771484375 292.5636901855469 361.8983154296875 C 299.2301940917969 349.9925231933594 289.602783203125 332.7209777832031 275.9598693847656 331.1097106933594 C 262.31695556640625 329.4984436035156 249.2640380859375 342.6276550292969 249.95614624023438 356.3606872558594 L 258.9295349121094 361.85174560546875" stroke-width="0.6000000238418579" fill="rgb(233, 92, 21)" opacity="1.0"/>
    <path d="M 327.0426330566406 347.5859680175781 C 321.7965087890625 352.1664123535156 316.00494384765625 358.18194580078125 317.5248718261719 365.0027160644531 C 318.2353820800781 367.6935729980469 319.7633361816406 370.09765625 321.8980712890625 371.8832702636719 C 327.06103515625 376.4435119628906 334.1140441894531 378.2183837890625 340.82049560546875 376.6451110839844 C 346.5059814453125 375.29595947265625 351.26312255859375 371.6257629394531 355.7777404785156 367.97247314453125 C 358.31048583984375 365.9161376953125 360.9359130859375 363.6507263183594 361.905029296875 360.5543518066406 C 363.1629333496094 356.41656494140625 361.1041564941406 352.0190734863281 358.7025146484375 348.42401123046875 C 355.1943054199219 343.15826416015625 350.8569030761719 338.49505615234375 345.8585510253906 334.61529541015625 C 344.12896728515625 333.2781066894531 342.2292785644531 331.9946594238281 340.0620422363281 331.7130432128906 C 338.0335388183594 331.5542907714844 336.0026550292969 331.98919677734375 334.217041015625 332.9647216796875 C 328.6855163574219 335.7131652832031 324.6380920410156 340.74981689453125 323.1446838378906 346.7432861328125 L 327.0426330566406 347.5859680175781" stroke-width="0.6000000238418579" fill="rgb(70, 150, 179)" opacity="1.0"/>
    <path d="M 296.2190246582031 416.5927734375 C 289.08795166015625 417.463623046875 281.22027587890625 418.728271484375 276.6982727050781 424.3046875 C 271.8442077636719 430.2978515625 272.79022216796875 439.366455078125 276.61553955078125 446.0631103515625 C 278.0893249511719 448.6456298828125 280.03436279296875 451.09014892578125 282.70745849609375 452.391845703125 C 284.90447998046875 453.4627685546875 287.4089660644531 453.68017578125 289.8516540527344 453.74542236328125 C 297.5544128417969 453.96044921875 305.8525695800781 452.6146240234375 311.402587890625 447.27130126953125 C 316.992431640625 441.88214111328125 318.5862731933594 432.7540283203125 315.11016845703125 425.8033447265625 C 311.634033203125 418.8526611328125 303.4251708984375 414.5792236328125 295.7420959472656 415.78167724609375 L 296.2190246582031 416.5927734375" stroke-width="0.6000000238418579" fill="rgb(140, 28, 33)" opacity="1.0"/>
    <path d="M 324.7606201171875 377.2069091796875 C 317.5436096191406 380.9935607910156 310.07568359375 385.01336669921875 305.1011047363281 391.47662353515625 C 300.12664794921875 397.9397888183594 298.36468505859375 407.6629943847656 303.2003173828125 414.22900390625 C 309.1874694824219 422.3206787109375 322.6520080566406 421.4654541015625 329.90521240234375 414.459716796875 C 337.1584167480469 407.45391845703125 339.2314758300781 396.5643005371094 338.7359313964844 386.5049133300781 C 338.8945007324219 383.3755798339844 337.8742980957031 380.3006286621094 335.87652587890625 377.8868103027344 C 333.6707458496094 375.7335205078125 329.18341064453125 375.82611083984375 328.0745544433594 378.7187194824219 L 324.7606201171875 377.2069091796875" stroke-width="0.6000000238418579" fill="rgb(159, 159, 159)" opacity="1.0"/>
    <path d="M 368.5043640136719 411.5005798339844 C 362.4190673828125 415.19476318359375 357.4668884277344 421.05438232421875 355.8118896484375 427.974365234375 C 354.1568603515625 434.894287109375 356.1773681640625 442.812255859375 361.625 447.435791015625 C 365.4806823730469 450.6998291015625 370.6986999511719 452.0955810546875 375.75177001953125 451.91998291015625 C 380.8049011230469 451.744384765625 385.7154235839844 450.1114501953125 390.2583312988281 447.889892578125 C 392.2347412109375 446.921875 394.23779296875 445.7635498046875 395.3858947753906 443.8927001953125 C 396.7031555175781 441.7484130859375 396.6572265625 439.0660400390625 396.45037841796875 436.55029296875 C 395.8663330078125 429.447998046875 394.1716003417969 422.16455078125 389.7260437011719 416.5936279296875 C 385.28045654296875 411.0227966308594 377.5523376464844 407.63092041015625 370.81005859375 409.88653564453125 L 368.5043640136719 411.5005798339844" stroke-width="0.6000000238418579" fill="rgb(159, 159, 159)" opacity="1.0"/>
    <path d="M 248.07568359375 365.7433166503906 C 249.23916625976562 358.6888427734375 250.226806640625 350.7970886230469 246.12744140625 344.956298828125 C 242.1488037109375 339.2705078125 234.70068359375 337.40692138671875 227.88507080078125 336.0845642089844 C 225.11553955078125 335.55145263671875 222.20965576171875 335.03790283203125 219.51885986328125 335.8777160644531 C 214.967041015625 337.2954406738281 212.39401245117188 342.0811462402344 211.017822265625 346.638427734375 C 209.73883056640625 350.86785888671875 209.07382202148438 355.2590026855469 209.0430908203125 359.677490234375 C 208.99053955078125 366.8518371582031 211.26431274414062 374.8936767578125 217.61749267578125 378.2215270996094 C 221.04470825195312 380.02313232421875 225.1817626953125 380.1299743652344 228.96389770507812 379.2737731933594 C 232.74606323242188 378.4175109863281 236.25723266601562 376.6573791503906 239.69873046875 374.87030029296875 C 243.1402587890625 373.0832214355469 246.48361206054688 371.2535095214844 248.830810546875 368.2835998535156 L 248.07568359375 365.7433166503906" stroke-width="0.6000000238418579" fill="rgb(218, 166, 20)" opacity="1.0"/>
    <path d="M 251.0364990234375 392.03314208984375 C 247.76992797851562 381.0651550292969 236.23052978515625 374.8219299316406 225.26254272460938 378.0885009765625 C 224.3233642578125 378.36822509765625 223.40518188476562 378.7142028808594 222.51495361328125 379.1238708496094 C 219.132568359375 380.68109130859375 216.08163452148438 383.3126525878906 214.82144165039062 386.8146667480469 C 213.75619506835938 389.7740173339844 214.0494384765625 393.0411682128906 214.66729736328125 396.12298583984375 C 216.33255004882812 404.36993408203125 220.17559814453125 412.0206298828125 225.7972412109375 418.28021240234375 C 227.28598022460938 419.93231201171875 228.95068359375 421.5172119140625 231.021728515625 422.3404541015625 C 234.497802734375 423.724609375 238.54656982421875 422.6876220703125 241.70672607421875 420.6795654296875 C 246.40045166015625 417.70166015625 249.63525390625 412.708740234375 251.024169921875 407.3249816894531 C 252.41311645507812 401.9412841796875 252.06353759765625 396.20281982421875 250.5987548828125 390.83978271484375 L 251.0364990234375 392.03314208984375" stroke-width="0.6000000238418579" fill="rgb(143, 165, 67)" opacity="1.0"/>
    <path d="M 194.0255126953125 369.98077392578125 C 179.73358154296875 366.32061767578125 165.3031005859375 383.3644714355469 170.2301025390625 397.1697998046875 C 175.15716552734375 410.9751281738281 195.93634033203125 415.38299560546875 206.877197265625 405.47918701171875 C 217.81805419921875 395.57537841796875 216.411865234375 375.737060546875 204.80813598632812 366.5967712402344 L 194.0255126953125 369.98077392578125" stroke-width="0.6000000238418579" fill="rgb(233, 92, 21)" opacity="1.0"/>
    <path d="M 250.5074462890625 372.8205261230469 C 246.98464965820312 378.30206298828125 243.3450927734375 385.21527099609375 246.48593139648438 390.9495849609375 C 247.82464599609375 393.1829528808594 249.82342529296875 394.9459228515625 252.20654296875 395.99517822265625 C 258.0331115722656 398.7499694824219 264.83349609375 398.509765625 270.451171875 395.3507385253906 C 275.20965576171875 392.6588134765625 278.52984619140625 388.12255859375 281.6365051269531 383.66455078125 C 283.3775634765625 381.1575012207031 285.1475524902344 378.43841552734375 285.2127685546875 375.40350341796875 C 285.26654052734375 371.3575439453125 282.27203369140625 367.9412536621094 279.17822265625 365.3353576660156 C 274.6551513671875 361.5158996582031 269.543701171875 358.4537658691406 264.0421447753906 356.26763916015625 C 262.1398010253906 355.5159606933594 260.09857177734375 354.85687255859375 258.0776062011719 355.167724609375 C 256.2132873535156 355.5528869628906 254.50131225585938 356.4721984863281 253.15045166015625 357.8135681152344 C 248.8944091796875 361.72296142578125 246.567626953125 367.3025817871094 246.78509521484375 373.0775146484375 L 250.5074462890625 372.8205261230469" stroke-width="0.6000000238418579" fill="rgb(70, 150, 179)" opacity="1.0"/>
    <path d="M 326.6850891113281 351.8487854003906 C 326.4147033691406 344.9632568359375 325.825927734375 337.3425598144531 320.8517150878906 332.5802307128906 C 315.50518798828125 327.4676513671875 306.7616271972656 327.6571350097656 300.0585021972656 330.7860107421875 C 297.47357177734375 331.9913024902344 294.98345947265625 333.657958984375 293.52838134765625 336.11065673828125 C 292.33148193359375 338.1264343261719 291.9262390136719 340.5034484863281 291.67132568359375 342.8333435058594 C 290.8585510253906 350.1797790527344 291.4909973144531 358.2184143066406 296.1614074707031 363.945068359375 C 300.8724670410156 369.7134094238281 309.4727478027344 371.9565734863281 316.39117431640625 369.1815185546875 C 323.3096008300781 366.4064636230469 328.04180908203125 358.8961181640625 327.4980163574219 351.4568176269531 L 326.6850891113281 351.8487854003906" stroke-width="0.6000000238418579" fill="rgb(140, 28, 33)" opacity="1.0"/>
    <path d="M 369.0860595703125 391.40252685546875 C 361.384765625 390.1226806640625 353.3570556640625 388.8758239746094 345.8211975097656 390.9366455078125 C 338.2854919433594 392.9974670410156 331.31884765625 399.4053649902344 331.2165222167969 407.2158203125 C 331.11175537109375 416.8572998046875 341.89019775390625 423.98779296875 351.4800720214844 422.829833984375 C 361.0699462890625 421.671875 368.948486328125 414.55291748046875 374.3851623535156 406.58319091796875 C 376.3153076171875 404.2846984863281 377.3136901855469 401.3463439941406 377.1832275390625 398.3478088378906 C 376.7432556152344 395.427978515625 373.2623596191406 392.9046325683594 370.7432556152344 394.47296142578125 L 369.0860595703125 391.40252685546875" stroke-width="0.6000000238418579" fill="rgb(159, 159, 159)" opacity="1.0"/>
    <path d="M 173.7191162109375 408.52191162109375 C 166.49737548828125 410.040771484375 159.63870239257812 414.0670166015625 155.6394500732422 420.2646484375 C 151.6402130126953 426.462158203125 150.89190673828125 434.900146484375 154.62835693359375 441.2957763671875 C 157.27578735351562 445.814208984375 161.89825439453125 448.974365234375 166.9000244140625 450.5411376953125 C 171.90182495117188 452.10797119140625 177.26556396484375 452.20062255859375 182.472412109375 451.591064453125 C 184.73809814453125 451.32452392578125 187.09542846679688 450.880859375 188.86181640625 449.4464111328125 C 190.8876953125 447.80279541015625 191.765625 445.1639404296875 192.42889404296875 442.6326904296875 C 194.30133056640625 435.486328125 195.14993286132812 427.7808837890625 192.71929931640625 420.8037109375 C 190.2886962890625 413.82647705078125 183.89840698242188 407.85076904296875 176.52914428710938 407.7368469238281 L 173.7191162109375 408.52191162109375" stroke-width="0.6000000238418579" fill="rgb(159, 159, 159)" opacity="1.0"/>
    <path d="M 373.19342041015625 363.0436706542969 C 367.06134033203125 360.09100341796875 360.11737060546875 357.0745849609375 353.6839599609375 359.2543029785156 C 347.4244689941406 361.365234375 343.7268371582031 367.6693420410156 340.6929931640625 373.5406494140625 C 339.46405029296875 375.9276123046875 338.2164306640625 378.4443359375 338.2626953125 381.127197265625 C 338.3382263183594 385.664794921875 342.0202941894531 389.29718017578125 345.8143615722656 391.7751770019531 C 349.33502197265625 394.0765075683594 353.1678771972656 395.8603820800781 357.19561767578125 397.07220458984375 C 363.7348327636719 399.0422668457031 371.68963623046875 399.1197814941406 376.43145751953125 394.2081298828125 C 378.9952697753906 391.5602722167969 380.2012023925781 387.80999755859375 380.432373046875 384.1258850097656 C 380.66351318359375 380.4417419433594 379.9964294433594 376.7629699707031 379.2860412597656 373.140625 C 378.57568359375 369.51824951171875 377.8000793457031 365.9741516113281 375.7160949707031 363.03448486328125 L 373.19342041015625 363.0436706542969" stroke-width="0.6000000238418579" fill="rgb(218, 166, 20)" opacity="1.0"/>
    <path d="M 375.79058837890625 382.74322509765625 C 369.9173278808594 392.9899597167969 373.4627380371094 406.05780029296875 383.70947265625 411.9310302734375 C 384.5868835449219 412.4339599609375 385.4989013671875 412.8740234375 386.4385986328125 413.2479248046875 C 390.0095520019531 414.6678466796875 394.1476135253906 415.07550048828125 397.66192626953125 413.5252685546875 C 400.63189697265625 412.21551513671875 402.8652038574219 409.6712951660156 404.7289733886719 407.016357421875 C 409.7079772949219 399.9029235839844 412.6915283203125 391.5860290527344 413.36962890625 382.9296875 C 413.5450439453125 380.6412658691406 413.54498291015625 378.26910400390625 412.6865234375 376.1352844238281 C 411.24737548828125 372.5521545410156 407.5910949707031 370.263916015625 403.8413391113281 369.3309020996094 C 398.2752685546875 367.9418640136719 392.24139404296875 369.0771789550781 387.2290344238281 371.8702697753906 C 382.2166442871094 374.6633605957031 378.1763000488281 379.00830078125 375.21014404296875 383.9196472167969 L 375.79058837890625 382.74322509765625" stroke-width="0.6000000238418579" fill="rgb(143, 165, 67)" opacity="1.0"/>
    <path d="M 367.219970703125 358.12506103515625 C 370.3619689941406 371.4641418457031 390.6040344238281 376.0015869140625 399.84478759765625 366.0014953613281 C 409.0854797363281 356.0013427734375 403.76531982421875 337.0009460449219 390.902587890625 332.2609558105469 C 378.03985595703125 327.52093505859375 362.3175048828125 337.22119140625 359.79150390625 350.7076721191406 L 367.219970703125 358.12506103515625" stroke-width="0.6000000238418579" fill="rgb(233, 92, 21)" opacity="1.0"/>
    <path d="M 404.2572326660156 350.0489196777344 C 402.0893249511719 356.5684509277344 400.1759033203125 364.5810241699219 404.8815002441406 369.6192626953125 C 406.8321533203125 371.5513916015625 409.33428955078125 372.83062744140625 412.04278564453125 373.2803955078125 C 418.71435546875 374.5736389160156 425.59881591796875 372.5530090332031 430.51318359375 367.8592834472656 C 434.671630859375 363.86700439453125 436.87933349609375 358.3660888671875 438.8892822265625 353.0008239746094 C 440.01348876953125 349.985107421875 441.11181640625 346.7452392578125 440.38623046875 343.6278076171875 C 439.38494873046875 339.4804382324219 435.4339599609375 336.7720947265625 431.593017578125 334.9175720214844 C 425.9752197265625 332.1964111328125 419.9541015625 330.4024963378906 413.76300048828125 329.6053466796875 C 411.6233825683594 329.3340759277344 409.36602783203125 329.193603515625 407.382568359375 330.03875732421875 C 405.57855224609375 330.9189147949219 404.069580078125 332.30499267578125 403.0397033691406 334.0279541015625 C 399.71234130859375 339.1328125 398.7918701171875 345.4403381347656 400.5216064453125 351.2831726074219 L 404.2572326660156 350.0489196777344" stroke-width="0.6000000238418579" fill="rgb(70, 150, 179)" opacity="1.0"/>
    <path d="M 393.3079833984375 426.252197265625 C 393.70361328125 433.65435791015625 394.4529113769531 441.84246826171875 399.8758544921875 446.8892822265625 C 405.70452880859375 452.30712890625 415.10650634765625 451.97021484375 422.2689208984375 448.502685546875 C 425.03106689453125 447.1668701171875 427.68414306640625 445.3363037109375 429.2119140625 442.67596435546875 C 430.46868896484375 440.489501953125 430.868408203125 437.926513671875 431.10711669921875 435.41650390625 C 431.8695068359375 427.5020751953125 431.06689453125 418.8651123046875 425.9560546875 412.7764892578125 C 420.8009033203125 406.6435546875 411.5160217285156 404.36163330078125 404.1166076660156 407.451904296875 C 396.7171630859375 410.5421447753906 391.7413635253906 418.6925048828125 392.4395446777344 426.6861572265625 L 393.3079833984375 426.252197265625" stroke-width="0.6000000238418579" fill="rgb(140, 28, 33)" opacity="1.0"/>
    <path d="M 414.98638916015625 375.5048828125 C 412.3109130859375 383.44195556640625 409.6144714355469 391.73040771484375 410.5054626464844 400.0648193359375 C 411.396484375 408.39910888671875 416.989013671875 416.875732421875 425.2435302734375 418.32281494140625 C 435.4368896484375 420.0863037109375 444.83612060546875 409.8929748535156 445.25341796875 399.53790283203125 C 445.670654296875 389.18280029296875 439.4813232421875 379.61846923828125 431.97247314453125 372.4945068359375 C 429.86895751953125 370.05633544921875 426.92803955078125 368.4953308105469 423.72998046875 368.11956787109375 C 420.5621337890625 368.0851135253906 417.2930908203125 371.3392333984375 418.5223388671875 374.2760009765625 L 414.98638916015625 375.5048828125" stroke-width="0.6000000238418579" fill="rgb(159, 159, 159)" opacity="1.0"/>
    <path d="M 433.85235595703125 370.2514953613281 C 436.047119140625 377.37872314453125 440.7315673828125 383.90924072265625 447.337158203125 387.3619689941406 C 453.94287109375 390.8146667480469 462.503173828125 390.78924560546875 468.59442138671875 386.43914794921875 C 472.8970947265625 383.358154296875 475.6507568359375 378.4149475097656 476.7659912109375 373.237060546875 C 477.8812255859375 368.0591125488281 477.4796142578125 362.6529235839844 476.38592529296875 357.469482421875 C 475.90863037109375 355.21405029296875 475.2447509765625 352.8827819824219 473.63824462890625 351.2375793457031 C 471.79736328125 349.3505554199219 469.060791015625 348.71051025390625 466.45233154296875 348.276611328125 C 459.08819580078125 347.0516052246094 451.25579833984375 346.9085693359375 444.458740234375 349.99822998046875 C 437.6617431640625 353.0879211425781 432.23785400390625 360.0698547363281 432.8031005859375 367.49615478515625 L 433.85235595703125 370.2514953613281" stroke-width="0.6000000238418579" fill="rgb(159, 159, 159)" opacity="1.0"/>
    <path d="M 437.1380615234375 411.34356689453125 C 433.3046875 417.5096435546875 429.310791015625 424.529541015625 430.886474609375 431.6025390625 C 432.4091796875 438.483154296875 438.67236328125 443.1263427734375 444.5526123046875 447.01605224609375 C 446.9437255859375 448.5926513671875 449.47021484375 450.20391845703125 452.32110595703125 450.46185302734375 C 457.14251708984375 450.9010009765625 461.41650390625 447.4112548828125 464.47894287109375 443.670654296875 C 467.32269287109375 440.19989013671875 469.6533203125 436.3387451171875 471.3995361328125 432.2054443359375 C 474.23736572265625 425.4951171875 475.2298583984375 417.06671142578125 470.56298828125 411.4753112792969 C 468.04791259765625 408.4530334472656 464.20819091796875 406.74481201171875 460.3271484375 406.07806396484375 C 456.446044921875 405.41131591796875 452.46783447265625 405.69793701171875 448.5445556640625 406.036865234375 C 444.6212158203125 406.37579345703125 440.7734375 406.79290771484375 437.4169921875 408.6668701171875 L 437.1380615234375 411.34356689453125" stroke-width="0.6000000238418579" fill="rgb(218, 166, 20)" opacity="1.0"/>
    <path d="M 136.9928436279297 209.81881713867188 C 133.7535858154297 222.20391845703125 141.16778564453125 234.8699951171875 153.5529022216797 238.1092529296875 C 154.61343383789062 238.38665771484375 155.6923065185547 238.58843994140625 156.78143310546875 238.713134765625 C 160.91986083984375 239.18618774414062 165.36459350585938 238.43942260742188 168.6016845703125 235.82122802734375 C 171.33743286132812 233.60888671875 172.9525146484375 230.31402587890625 174.14959716796875 227.008056640625 C 177.34170532226562 218.15444946289062 178.10494995117188 208.60760498046875 176.360107421875 199.3592529296875 C 175.894775390625 196.9154052734375 175.22213745117188 194.43374633789062 173.718994140625 192.44476318359375 C 171.197509765625 189.10421752929688 166.72360229492188 187.74697875976562 162.53616333007812 187.83404541015625 C 156.31927490234375 187.958984375 150.32864379882812 190.85748291015625 145.87672424316406 195.20068359375 C 141.42478942871094 199.54388427734375 138.4297637939453 205.23501586914062 136.71914672851562 211.21414184570312 L 136.9928436279297 209.81881713867188" stroke-width="0.6000000238418579" fill="rgb(143, 165, 67)" opacity="1.0"/>
    <path d="M 170.54153442382812 266.98297119140625 C 180.4609375 278.4471435546875 202.62911987304688 272.5157470703125 206.55950927734375 257.9753112792969 C 210.48989868164062 243.43487548828125 195.53256225585938 227.53826904296875 180.493896484375 229.48736572265625 C 165.4552001953125 231.43643188476562 155.01766967773438 249.00637817382812 159.456787109375 263.521240234375 L 170.54153442382812 266.98297119140625" stroke-width="0.6000000238418579" fill="rgb(233, 92, 21)" opacity="1.0"/>
    <path d="M 140.99012756347656 306.30865478515625 C 133.68177795410156 306.1254577636719 124.93276977539062 306.66461181640625 121.26522827148438 313.01751708984375 C 119.90408325195312 315.6025085449219 119.37860107421875 318.5461730957031 119.76136779785156 321.4424743652344 C 120.51556396484375 328.6340637207031 124.70869445800781 335.0140075683594 131.01109313964844 338.55914306640625 C 136.36495971679688 341.5527038574219 142.64894104003906 342.0924987792969 148.73345947265625 342.4731750488281 C 152.15171813964844 342.6814880371094 155.7901153564453 342.7939147949219 158.73785400390625 341.0879211425781 C 162.64828491210938 338.78173828125 164.17864990234375 333.9198913574219 164.87420654296875 329.4350891113281 C 165.900390625 322.8728332519531 165.85760498046875 316.187744140625 164.74755859375 309.6391296386719 C 164.35968017578125 307.3772277832031 163.80206298828125 305.0361022949219 162.32635498046875 303.2796325683594 C 160.87066650390625 301.7166442871094 158.99160766601562 300.6109924316406 156.91836547851562 300.09747314453125 C 150.69004821777344 298.295166015625 143.98460388183594 299.3157958984375 138.57456970214844 302.88958740234375 L 140.99012756347656 306.30865478515625" stroke-width="0.6000000238418579" fill="rgb(70, 150, 179)" opacity="1.0"/>
    <path d="M 123.287353515625 302.72186279296875 C 123.03857421875 294.8953552246094 122.4342041015625 286.2307434082031 116.82228088378906 280.7769775390625 C 110.79031372070312 274.9219970703125 100.8531494140625 275.0631103515625 93.20964050292969 278.5616455078125 C 90.26205444335938 279.9093017578125 87.4183349609375 281.7820129394531 85.74407958984375 284.5567321777344 C 84.36688232421875 286.837158203125 83.88623046875 289.5347900390625 83.5767822265625 292.18017578125 C 82.59085083007812 300.5212097167969 83.24128723144531 309.66107177734375 88.49978637695312 316.20806884765625 C 93.80412292480469 322.80279541015625 103.55781555175781 325.4247741699219 111.44296264648438 322.33013916015625 C 119.328125 319.2354736328125 124.76921081542969 310.741455078125 124.21443176269531 302.2833557128906 L 123.287353515625 302.72186279296875" stroke-width="0.6000000238418579" fill="rgb(140, 28, 33)" opacity="1.0"/>
    <path d="M 146.12588500976562 255.29647827148438 C 138.2344207763672 259.51275634765625 130.06939697265625 263.987060546875 124.66165161132812 271.1231689453125 C 119.25399780273438 278.2591857910156 117.3997802734375 288.94757080078125 122.76225280761719 296.11572265625 C 129.40139770507812 304.94927978515625 144.1753387451172 303.899658203125 152.08004760742188 296.14923095703125 C 159.98477172851562 288.3987731933594 162.1708984375 276.4273986816406 161.54409790039062 265.3885498046875 C 161.69244384765625 261.95196533203125 160.54718017578125 258.58477783203125 158.334228515625 255.95138549804688 C 155.89503479003906 253.605712890625 150.9697265625 253.7442626953125 149.7762908935547 256.9288330078125 L 146.12588500976562 255.29647827148438" stroke-width="0.6000000238418579" fill="rgb(159, 159, 159)" opacity="1.0"/>
    <path d="M 160.19705200195312 289.7600402832031 C 159.8350830078125 297.5741882324219 162.14251708984375 305.6825256347656 167.4383544921875 311.43426513671875 C 172.734130859375 317.18597412109375 181.193359375 320.19769287109375 188.74951171875 318.06451416015625 C 194.08984375 316.5495300292969 198.56170654296875 312.6468200683594 201.49951171875 307.93115234375 C 204.43734741210938 303.2154846191406 205.95877075195312 297.7363586425781 206.71798706054688 292.2315979003906 C 207.04696655273438 289.8358459472656 207.2186279296875 287.2990417480469 206.21649169921875 285.1051025390625 C 205.06869506835938 282.5892639160156 202.59442138671875 280.9866638183594 200.1734619140625 279.6329345703125 C 193.338623046875 275.81121826171875 185.65771484375 272.89141845703125 177.85205078125 273.530029296875 C 170.04638671875 274.1686706542969 162.21533203125 279.1365966796875 160.13873291015625 286.66790771484375 L 160.19705200195312 289.7600402832031" stroke-width="0.6000000238418579" fill="rgb(159, 159, 159)" opacity="1.0"/>
    <path d="M 125.92709350585938 350.6136169433594 C 125.81784057617188 343.01312255859375 125.36714172363281 334.5695495605469 119.97918701171875 329.228759765625 C 114.7467041015625 324.0274658203125 106.60263061523438 323.4781799316406 99.22216796875 323.376220703125 C 96.22390747070312 323.3392333984375 93.086669921875 323.34832763671875 90.42900085449219 324.733154296875 C 85.93264770507812 327.0726623535156 84.14028930664062 332.56427001953125 83.55731201171875 337.59173583984375 C 83.014404296875 342.25787353515625 83.14434814453125 346.977783203125 83.94313049316406 351.6070251464844 C 85.23739624023438 359.1240539550781 89.1290283203125 367.1112976074219 96.40274047851562 369.3987121582031 C 100.3277587890625 370.63934326171875 104.67678833007812 369.97314453125 108.47335815429688 368.36590576171875 C 112.26992797851562 366.7586669921875 115.61294555664062 364.2565612792969 118.87802124023438 361.7393493652344 C 122.14308166503906 359.22216796875 125.29742431640625 356.6788330078125 127.1949462890625 353.1297302246094 L 125.92709350585938 350.6136169433594" stroke-width="0.6000000238418579" fill="rgb(218, 166, 20)" opacity="1.0"/>
    <path d="M 151.73532104492188 340.61724853515625 C 139.0949249267578 339.3608703613281 127.829345703125 348.58941650390625 126.57296752929688 361.2298278808594 C 126.46537780761719 362.3122253417969 126.43472290039062 363.40087890625 126.481201171875 364.4876403808594 C 126.6585693359375 368.61700439453125 128.07896423339844 372.85760498046875 131.14646911621094 375.62469482421875 C 133.738525390625 377.9633483886719 137.21800231933594 379.0359191894531 140.64358520507812 379.6971130371094 C 149.81546020507812 381.45428466796875 159.29052734375 380.72357177734375 168.0845947265625 377.5809020996094 C 170.40768432617188 376.7463073730469 172.73577880859375 375.7026672363281 174.45233154296875 373.9213562011719 C 177.33584594726562 370.9326171875 177.97308349609375 366.3375244140625 177.2391357421875 362.24688720703125 C 176.15371704101562 356.17303466796875 172.38497924804688 350.7506103515625 167.4385986328125 347.0600280761719 C 162.49224853515625 343.36944580078125 156.45046997070312 341.3155517578125 150.3253631591797 340.56512451171875 L 151.73532104492188 340.61724853515625" stroke-width="0.6000000238418579" fill="rgb(143, 165, 67)" opacity="1.0"/>
    <path d="M 137.18251037597656 379.4684143066406 C 133.5560302734375 365.53179931640625 112.17999267578125 361.25921630859375 102.71630859375 371.99041748046875 C 93.252685546875 382.7216491699219 99.30567932128906 402.55255126953125 112.93429565429688 407.2181091308594 C 126.56292724609375 411.8836669921875 142.84317016601562 401.3092041015625 145.16757202148438 387.079345703125 L 137.18251037597656 379.4684143066406" stroke-width="0.6000000238418579" fill="rgb(233, 92, 21)" opacity="1.0"/>
    <path d="M 174.24542236328125 347.019775390625 C 175.27603149414062 354.4141540527344 177.27401733398438 363.1400146484375 184.28506469726562 365.77911376953125 C 187.11602783203125 366.7207946777344 190.16946411132812 366.76080322265625 193.02410888671875 365.8935546875 C 200.14498901367188 363.9378356933594 205.876220703125 358.6519775390625 208.40036010742188 351.71221923828125 C 210.52645874023438 345.81988525390625 210.02548217773438 339.39837646484375 209.3973388671875 333.2043151855469 C 209.03887939453125 329.72540283203125 208.54721069335938 326.0406494140625 206.33807373046875 323.35418701171875 C 203.3641357421875 319.7974853515625 198.21090698242188 319.0638732910156 193.57635498046875 319.1087341308594 C 186.7935791015625 319.1659240722656 180.06475830078125 320.3205871582031 173.65093994140625 322.5279541015625 C 171.43634033203125 323.2948913574219 169.17010498046875 324.2460021972656 167.64569091796875 326.0249938964844 C 166.3128662109375 327.75164794921875 165.51123046875 329.8288269042969 165.33856201171875 332.0032043457031 C 164.55816650390625 338.57855224609375 166.70147705078125 345.165283203125 171.20199584960938 350.022216796875 L 174.24542236328125 347.019775390625" stroke-width="0.6000000238418579" fill="rgb(70, 150, 179)" opacity="1.0"/>
  </g>
</svg>
