<?xml version="1.0" ?>
<svg xmlns="http://www.w3.org/2000/svg" version="1.1" width="600" height="600">
  <defs/>
  <g>
    <path d="M 355.5331726074219 342.3061218261719 C 359.03057861328125 345.5762023925781 365.79541015625 342.97467041015625 366.54534912109375 338.2769470214844 C 367.2952880859375 333.5792236328125 362.06793212890625 329.0848693847656 357.40960693359375 330.1981201171875 C 352.75128173828125 331.3113708496094 350.0585632324219 337.1773986816406 351.9364013671875 341.5882263183594 L 355.5331726074219 342.3061218261719" stroke-width="0.6000000238418579" fill="rgb(233, 92, 21)" opacity="1.0"/>
    <path d="M 124.78201293945312 211.70977783203125 C 129.2321014404297 212.1318359375 134.59161376953125 212.17449951171875 137.0984649658203 208.45513916015625 C 138.0384979248047 206.9361572265625 138.4840087890625 205.16293334960938 138.37351989746094 203.38003540039062 C 138.2188720703125 198.96136474609375 135.9320831298828 194.8917236328125 132.2383575439453 192.46170043945312 C 129.09976196289062 190.40838623046875 125.28965759277344 189.81231689453125 121.59445190429688 189.32171630859375 C 119.51826477050781 189.04953002929688 117.30372619628906 188.82644653320312 115.43325805664062 189.74188232421875 C 112.95008850097656 190.9825439453125 111.81015014648438 193.88311767578125 111.19546508789062 196.58917236328125 C 110.2908935546875 200.54840087890625 110.03311157226562 204.62789916992188 110.43212890625 208.66949462890625 C 110.57267761230469 210.065673828125 110.81338500976562 211.517333984375 111.63894653320312 212.65139770507812 C 112.46051025390625 213.66656494140625 113.55972290039062 214.4207763671875 114.80253601074219 214.82205200195312 C 118.52508544921875 216.18588256835938 122.65853881835938 215.84808349609375 126.11024475097656 213.89788818359375 L 124.78201293945312 211.70977783203125" stroke-width="0.6000000238418579" fill="rgb(70, 150, 179)" opacity="1.0"/>
    <path d="M 458.4693603515625 402.0376892089844 C 460.7008056640625 404.530517578125 463.27880859375 407.199951171875 466.613525390625 407.4430236816406 C 470.1959228515625 407.7019958496094 473.40899658203125 404.92596435546875 474.94921875 401.68133544921875 C 475.5435791015625 400.43060302734375 475.959716796875 399.03656005859375 475.745361328125 397.6686096191406 C 475.569580078125 396.5440368652344 474.98583984375 395.5292053222656 474.3603515625 394.5785217285156 C 472.3916015625 391.5780944824219 469.66796875 388.76580810546875 466.14862060546875 388.0679016113281 C 462.6011962890625 387.3669738769531 458.6890869140625 389.1883850097656 456.95880126953125 392.3672180175781 C 455.22857666015625 395.5460510253906 455.7813720703125 399.8204040527344 458.2864990234375 402.4358825683594 L 458.4693603515625 402.0376892089844" stroke-width="0.6000000238418579" fill="rgb(140, 28, 33)" opacity="1.0"/>
    <path d="M 90.02061462402344 208.32830810546875 C 94.49172973632812 208.4013671875 99.14495849609375 208.4281005859375 103.23953247070312 206.6226806640625 C 107.33401489257812 204.8172607421875 110.73812866210938 200.597412109375 110.13485717773438 196.16415405273438 C 109.37799072265625 190.69342041015625 102.66839599609375 187.5665283203125 97.33377075195312 189.03436279296875 C 91.99917602539062 190.502197265625 88.13868713378906 195.2020263671875 85.7335205078125 200.1771240234375 C 84.83468627929688 201.64260864257812 84.51786804199219 203.3917236328125 84.84561157226562 205.07931518554688 C 85.342041015625 206.69613647460938 87.527587890625 207.8309326171875 88.82186889648438 206.72918701171875 L 90.02061462402344 208.32830810546875" stroke-width="0.6000000238418579" fill="rgb(159, 159, 159)" opacity="1.0"/>
    <path d="M 383.4932556152344 316.4443359375 C 388.27239990234375 315.73095703125 392.9112243652344 313.3645935058594 395.7650146484375 309.4683837890625 C 398.61883544921875 305.5721435546875 399.43438720703125 300.0857238769531 397.23956298828125 295.7608337402344 C 395.68389892578125 292.70501708984375 392.7847900390625 290.4606018066406 389.5760498046875 289.24298095703125 C 386.3673400878906 288.02532958984375 382.864990234375 287.75726318359375 379.43804931640625 287.9542236328125 C 377.94677734375 288.04083251953125 376.3888244628906 288.2395935058594 375.1787414550781 289.1088562011719 C 373.7909851074219 290.1048278808594 373.11505126953125 291.79571533203125 372.5835876464844 293.4245910644531 C 371.08319091796875 298.023193359375 370.2304382324219 303.02691650390625 371.54925537109375 307.68145751953125 C 372.8680419921875 312.3360595703125 376.8137512207031 316.4892272949219 381.62615966796875 316.8487854003906 L 383.4932556152344 316.4443359375" stroke-width="0.6000000238418579" fill="rgb(159, 159, 159)" opacity="1.0"/>
    <path d="M 101.55165100097656 419.0789794921875 C 104.09788513183594 416.234375 106.80491638183594 412.962158203125 106.63230895996094 409.1557922363281 C 106.46966552734375 405.453857421875 103.64837646484375 402.4793701171875 100.9569091796875 399.9300231933594 C 99.86203002929688 398.89599609375 98.70010375976562 397.8316955566406 97.24716186523438 397.4387512207031 C 94.79013061523438 396.772705078125 92.25918579101562 398.1911926269531 90.33291625976562 399.8498229980469 C 88.54440307617188 401.38861083984375 86.98611450195312 403.17626953125 85.70574951171875 405.15802001953125 C 83.62564086914062 408.3750915527344 82.34489440917969 412.6497802734375 84.253173828125 415.9700927734375 C 85.28076171875 417.7640380859375 87.11392211914062 418.998046875 89.063232421875 419.6964111328125 C 91.0125732421875 420.394775390625 93.09890747070312 420.6082763671875 95.16159057617188 420.7896728515625 C 97.22427368164062 420.97100830078125 99.25497436523438 421.10504150390625 101.1636962890625 420.43988037109375 L 101.55165100097656 419.0789794921875" stroke-width="0.6000000238418579" fill="rgb(218, 166, 20)" opacity="1.0"/>
    <path d="M 98.21878051757812 159.19195556640625 C 106.13601684570312 161.80569458007812 114.67306518554688 157.50634765625 117.28680419921875 149.589111328125 C 117.5106201171875 148.91114807128906 117.68603515625 148.21817016601562 117.81179809570312 147.515380859375 C 118.28912353515625 144.84486389160156 117.98611450195312 141.92520141601562 116.41716003417969 139.7136993408203 C 115.09146118164062 137.84469604492188 113.01609802246094 136.65969848632812 110.91639709472656 135.74594116210938 C 105.29266357421875 133.3077850341797 99.11865234375 132.41990661621094 93.03573608398438 133.17449951171875 C 91.42817687988281 133.37667846679688 89.78752136230469 133.7120361328125 88.43302917480469 134.607421875 C 86.15823364257812 136.10928344726562 85.09243774414062 138.96156311035156 84.97720336914062 141.68692016601562 C 84.80326843261719 145.7329559326172 86.44142150878906 149.7457275390625 89.08175659179688 152.81765747070312 C 91.72207641601562 155.88958740234375 95.29833984375 158.06988525390625 99.114501953125 159.4271240234375 L 98.21878051757812 159.19195556640625" stroke-width="0.6000000238418579" fill="rgb(143, 165, 67)" opacity="1.0"/>
    <path d="M 461.1614990234375 343.2731018066406 C 464.4527587890625 349.8564453125 475.5933837890625 349.7255859375 479.18682861328125 343.3565673828125 C 482.7802734375 336.987548828125 477.6507568359375 327.7145690917969 470.34197998046875 326.8273010253906 C 463.033203125 325.9400329589844 456.0150146484375 332.95361328125 456.362060546875 340.314697265625 L 461.1614990234375 343.2731018066406" stroke-width="0.6000000238418579" fill="rgb(233, 92, 21)" opacity="1.0"/>
    <path d="M 107.49179077148438 227.68548583984375 C 110.72573852539062 224.30145263671875 114.23782348632812 219.92376708984375 112.80696105957031 215.45025634765625 C 112.16825866699219 213.692138671875 110.99974060058594 212.17550659179688 109.46257019042969 211.10968017578125 C 105.73019409179688 208.37014770507812 100.90151977539062 207.609619140625 96.50776672363281 209.06927490234375 C 92.7838134765625 210.31698608398438 89.822021484375 213.06207275390625 87.021484375 215.78115844726562 C 85.4508056640625 217.31112670898438 83.83073425292969 218.9866943359375 83.36972045898438 221.11807250976562 C 82.77853393554688 223.96405029296875 84.42318725585938 226.78280639648438 86.24870300292969 229.04364013671875 C 88.91621398925781 232.35577392578125 92.10221862792969 235.2142333984375 95.68316650390625 237.50830078125 C 96.92196655273438 238.29852294921875 98.2713623046875 239.04248046875 99.73910522460938 239.099609375 C 101.1065673828125 239.0828857421875 102.43962097167969 238.668701171875 103.57571411132812 237.90744018554688 C 107.11178588867188 235.732421875 109.51571655273438 232.11566162109375 110.15203857421875 228.01324462890625 L 107.49179077148438 227.68548583984375" stroke-width="0.6000000238418579" fill="rgb(70, 150, 179)" opacity="1.0"/>
    <path d="M 111.39215087890625 82.98193359375 C 111.89947509765625 87.49847412109375 112.65144348144531 92.4833984375 116.1514892578125 95.378173828125 C 119.9132080078125 98.48556518554688 125.6558837890625 97.94253540039062 129.91566467285156 95.56352233886719 C 131.55844116210938 94.64697265625 133.11676025390625 93.43145751953125 133.9565887451172 91.74838256835938 C 134.64749145507812 90.36508178710938 134.80032348632812 88.78202819824219 134.85653686523438 87.23715209960938 C 135.0396728515625 82.36558532714844 134.23899841308594 77.10781860351562 130.8926544189453 73.56414794921875 C 127.51759338378906 69.9949951171875 121.75276184082031 68.93087768554688 117.33441162109375 71.08743286132812 C 112.91607666015625 73.24398803710938 110.16246032714844 78.41091918945312 110.87614440917969 83.2786865234375 L 111.39215087890625 82.98193359375" stroke-width="0.6000000238418579" fill="rgb(140, 28, 33)" opacity="1.0"/>
    <path d="M 94.65158081054688 395.61456298828125 C 97.1014404296875 392.4305114746094 99.61555480957031 389.09033203125 100.50933837890625 385.1705627441406 C 101.40310668945312 381.2508544921875 100.18612670898438 376.53436279296875 96.66676330566406 374.59234619140625 C 92.31712341308594 372.204833984375 86.46554565429688 375.36529541015625 84.66354370117188 379.99798583984375 C 82.86154174804688 384.63067626953125 84.17984008789062 389.9335632324219 86.47683715820312 394.3348388671875 C 87.0513916015625 395.7685241699219 88.1424560546875 396.9347229003906 89.5347900390625 397.603271484375 C 90.96652221679688 398.11224365234375 92.95635986328125 397.1451110839844 92.8560791015625 395.6213684082031 L 94.65158081054688 395.61456298828125" stroke-width="0.6000000238418579" fill="rgb(159, 159, 159)" opacity="1.0"/>
    <path d="M 476.2193603515625 65.7630615234375 C 477.66552734375 62.36723327636719 477.979736328125 58.40193176269531 476.5845947265625 54.986907958984375 C 475.189453125 51.571868896484375 471.9444580078125 48.84779357910156 468.2520751953125 48.54743957519531 C 465.6412353515625 48.338409423828125 463.0213623046875 49.32817077636719 460.9461669921875 50.929901123046875 C 458.87091064453125 52.531646728515625 457.29632568359375 54.7041015625 456.0545654296875 57.01336669921875 C 455.5147705078125 58.01861572265625 455.0213623046875 59.11213684082031 455.1033935546875 60.24723815917969 C 455.1968994140625 61.54866027832031 456.0272216796875 62.66456604003906 456.875 63.66163635253906 C 459.268310546875 66.47653198242188 462.18426513671875 69.0318603515625 465.7410888671875 70.0341796875 C 469.2978515625 71.0364990234375 473.578369140625 70.12857055664062 475.7362060546875 67.1400146484375 L 476.2193603515625 65.7630615234375" stroke-width="0.6000000238418579" fill="rgb(159, 159, 159)" opacity="1.0"/>
    <path d="M 87.92996215820312 110.94984436035156 C 92.27899169921875 112.28408813476562 97.17091369628906 113.57875061035156 101.2027587890625 111.49127197265625 C 105.12660217285156 109.46670532226562 106.935791015625 104.9290771484375 108.34988403320312 100.74420166015625 C 108.92184448242188 99.04330444335938 109.49308776855469 97.25479125976562 109.19265747070312 95.48666381835938 C 108.686279296875 92.49586486816406 105.88780212402344 90.46601867675781 103.1314697265625 89.21026611328125 C 100.57357788085938 88.04371643066406 97.86141967773438 87.25051879882812 95.07803344726562 86.85493469238281 C 90.558837890625 86.21096801757812 85.29458618164062 86.95994567871094 82.65533447265625 90.6824951171875 C 81.22756958007812 92.69007873535156 80.80795288085938 95.28952026367188 81.02581787109375 97.7471923828125 C 81.24366760253906 100.20486450195312 82.05455017089844 102.56864929199219 82.88833618164062 104.89079284667969 C 83.72213745117188 107.21295166015625 84.59115600585938 109.47683715820312 86.26394653320312 111.20967102050781 L 87.92996215820312 110.94984436035156" stroke-width="0.6000000238418579" fill="rgb(218, 166, 20)" opacity="1.0"/>
    <path d="M 131.19834899902344 141.19793701171875 C 138.1738739013672 138.8035430908203 141.88763427734375 131.2077178955078 139.49322509765625 124.232177734375 C 139.2882080078125 123.63485717773438 139.04104614257812 123.0528564453125 138.75364685058594 122.49050903320312 C 137.6612091064453 120.35392761230469 135.8857879638672 118.45928955078125 133.59742736816406 117.74078369140625 C 131.6636505126953 117.1334228515625 129.56773376464844 117.40895080566406 127.59976196289062 117.88858032226562 C 122.33380126953125 119.17965698242188 117.50958251953125 121.85720825195312 113.62823486328125 125.64306640625 C 112.60395812988281 126.6455078125 111.62762451171875 127.75946044921875 111.15249633789062 129.11483764648438 C 110.353515625 131.38980102539062 111.12864685058594 133.96923828125 112.5054931640625 135.95074462890625 C 114.54754638671875 138.89398193359375 117.84829711914062 140.8443603515625 121.35169982910156 141.59580993652344 C 124.85508728027344 142.34725952148438 128.540771484375 141.9698944091797 131.95513916015625 140.8843994140625 L 131.19834899902344 141.19793701171875" stroke-width="0.6000000238418579" fill="rgb(143, 165, 67)" opacity="1.0"/>
    <path d="M 406.4765930175781 307.6075744628906 C 410.8065185546875 315.7759704589844 424.79217529296875 315.2781982421875 429.114013671875 307.1728820800781 C 433.435791015625 299.06756591796875 426.71697998046875 287.5766906738281 417.5125732421875 286.6813049316406 C 408.30816650390625 285.785888671875 399.705078125 294.8031005859375 400.36114501953125 304.0362548828125 L 406.4765930175781 307.6075744628906" stroke-width="0.6000000238418579" fill="rgb(233, 92, 21)" opacity="1.0"/>
    <path d="M 122.01177978515625 116.89047241210938 C 126.1846923828125 117.15560913085938 131.19683837890625 117.03955078125 133.4324188232422 113.48919677734375 C 134.26710510253906 112.04168701171875 134.63206481933594 110.37081909179688 134.4768829345703 108.70712280273438 C 134.2037353515625 104.58035278320312 131.94729614257812 100.84194946289062 128.42312622070312 98.67745971679688 C 125.428955078125 96.8489990234375 121.84933471679688 96.40252685546875 118.38021850585938 96.05137634277344 C 116.43115234375 95.85728454589844 114.35415649414062 95.713134765625 112.63198852539062 96.62345886230469 C 110.346435546875 97.85565185546875 109.36503601074219 100.60073852539062 108.86904907226562 103.14865112304688 C 108.13848876953125 106.87666320800781 108.01617431640625 110.69831848144531 108.50682067871094 114.46542358398438 C 108.67886352539062 115.76667785644531 108.94613647460938 117.116943359375 109.75100708007812 118.15321350097656 C 110.54864501953125 119.07846069335938 111.59831237792969 119.75163269042969 112.77194213867188 120.09063720703125 C 116.29205322265625 121.2574462890625 120.14682006835938 120.82135009765625 123.3172607421875 118.89759826660156 L 122.01177978515625 116.89047241210938" stroke-width="0.6000000238418579" fill="rgb(70, 150, 179)" opacity="1.0"/>
    <path d="M 413.0037841796875 63.98558044433594 C 414.694580078125 67.20458984375 416.70379638671875 70.70159912109375 420.1539306640625 71.842041015625 C 423.86077880859375 73.06491088867188 427.98333740234375 70.99119567871094 430.46697998046875 67.97998046875 C 431.425048828125 66.81939697265625 432.2332763671875 65.46051025390625 432.3701171875 63.961944580078125 C 432.48309326171875 62.73008728027344 432.136962890625 61.5057373046875 431.7298583984375 60.33790588378906 C 430.4505615234375 56.65362548828125 428.32568359375 52.9674072265625 424.8016357421875 51.29862976074219 C 421.2486572265625 49.61921691894531 416.642578125 50.50148010253906 413.97607421875 53.392974853515625 C 411.3095703125 56.284454345703125 410.7587890625 60.93592834472656 412.7054443359375 64.35673522949219 L 413.0037841796875 63.98558044433594" stroke-width="0.6000000238418579" fill="rgb(140, 28, 33)" opacity="1.0"/>
    <path d="M 120.13240051269531 425.686767578125 C 121.4423828125 422.322509765625 122.76840209960938 418.8074951171875 122.55068969726562 415.201171875 C 122.33297729492188 411.5950012207031 120.09375 407.8338623046875 116.56842041015625 407.0464782714844 C 112.21463012695312 406.0842590332031 107.96466064453125 410.2860412597656 107.57884216308594 414.736328125 C 107.19302368164062 419.18658447265625 109.66754150390625 423.4278564453125 112.75880432128906 426.644775390625 C 113.615966796875 427.7364501953125 114.85115051269531 428.467041015625 116.22067260742188 428.6925048828125 C 117.58392333984375 428.77044677734375 119.0562744140625 427.4344482421875 118.58546447753906 426.14544677734375 L 120.13240051269531 425.686767578125" stroke-width="0.6000000238418579" fill="rgb(159, 159, 159)" opacity="1.0"/>
    <path d="M 473.800048828125 447.0775146484375 C 474.06463623046875 444.72735595703125 473.52978515625 442.2353515625 472.0465087890625 440.3948974609375 C 470.56329345703125 438.554443359375 468.07122802734375 437.4776611328125 465.749267578125 437.970947265625 C 464.108154296875 438.32177734375 462.68145751953125 439.41015625 461.701416015625 440.7744140625 C 460.7213134765625 442.1385498046875 460.1534423828125 443.76123046875 459.81494140625 445.40679931640625 C 459.66802978515625 446.12298583984375 459.5657958984375 446.8848876953125 459.824462890625 447.566650390625 C 460.1207275390625 448.34844970703125 460.8353271484375 448.881103515625 461.5386962890625 449.337646484375 C 463.524658203125 450.62646484375 465.78369140625 451.6600341796875 468.1512451171875 451.6226806640625 C 470.5186767578125 451.585205078125 472.97991943359375 450.2421875 473.756103515625 448.011474609375 L 473.800048828125 447.0775146484375" stroke-width="0.6000000238418579" fill="rgb(159, 159, 159)" opacity="1.0"/>
    <path d="M 459.3560791015625 299.4261779785156 C 458.43896484375 295.3329772949219 457.2421875 290.82293701171875 453.7288818359375 288.54632568359375 C 450.315185546875 286.3274841308594 445.85406494140625 286.95025634765625 441.8558349609375 287.7284240722656 C 440.232177734375 288.04693603515625 438.53857421875 288.4060363769531 437.25927734375 289.4541320800781 C 435.09466552734375 291.2254943847656 434.7464599609375 294.39422607421875 434.9991455078125 297.17572021484375 C 435.23272705078125 299.7574768066406 435.8358154296875 302.2923583984375 436.7899169921875 304.7027282714844 C 438.337646484375 308.6170654296875 441.341552734375 312.49212646484375 445.52880859375 312.9065246582031 C 447.7890625 313.133544921875 450.06298828125 312.2826843261719 451.932373046875 310.9858703613281 C 453.8016357421875 309.6890869140625 455.324951171875 307.9600830078125 456.804443359375 306.23175048828125 C 458.283935546875 304.5034484863281 459.70068359375 302.77349853515625 460.324951171875 300.64215087890625 L 459.3560791015625 299.4261779785156" stroke-width="0.6000000238418579" fill="rgb(218, 166, 20)" opacity="1.0"/>
    <path d="M 429.3489990234375 368.6993408203125 C 427.4957275390625 370.3645324707031 427.34326171875 373.2168273925781 429.0084228515625 375.0700988769531 C 429.1510009765625 375.2287902832031 429.3046875 375.3771667480469 429.46826171875 375.5141296386719 C 430.0899658203125 376.0343933105469 430.89215087890625 376.3892822265625 431.6986083984375 376.31072998046875 C 432.380126953125 376.244384765625 432.99560546875 375.8821105957031 433.5443115234375 375.4732360839844 C 435.011474609375 374.37677001953125 436.15838623046875 372.9074401855469 436.86578369140625 371.2178649902344 C 437.052001953125 370.77093505859375 437.2086181640625 370.295654296875 437.177490234375 369.81146240234375 C 437.125732421875 368.99853515625 436.5443115234375 368.2986755371094 435.8546142578125 367.8641662597656 C 434.8311767578125 367.2183837890625 433.5472412109375 367.0474548339844 432.358642578125 367.276123046875 C 431.169921875 367.5047912597656 430.07354736328125 368.1085510253906 429.155029296875 368.896728515625 L 429.3489990234375 368.6993408203125" stroke-width="0.6000000238418579" fill="rgb(143, 165, 67)" opacity="1.0"/>
    <path d="M 452.309326171875 345.69329833984375 C 458.203857421875 343.5221862792969 459.14300537109375 334.05999755859375 454.079345703125 330.4114685058594 C 449.01568603515625 326.762939453125 440.66644287109375 330.2398376464844 439.224853515625 336.35577392578125 C 437.783203125 342.4716796875 443.07080078125 349.0859680175781 449.347412109375 349.48553466796875 L 452.309326171875 345.69329833984375" stroke-width="0.6000000238418579" fill="rgb(233, 92, 21)" opacity="1.0"/>
    <path d="M 447.933837890625 67.90826416015625 C 451.476806640625 66.97793579101562 455.612548828125 65.49917602539062 456.492431640625 61.930419921875 C 456.7872314453125 60.49658203125 456.62994384765625 59.006561279296875 456.0421142578125 57.66593933105469 C 454.6768798828125 54.30973815917969 451.7696533203125 51.823455810546875 448.24224853515625 50.99549865722656 C 445.248291015625 50.30082702636719 442.1485595703125 50.91676330566406 439.16705322265625 51.58148193359375 C 437.4927978515625 51.957611083984375 435.7259521484375 52.4105224609375 434.5450439453125 53.642425537109375 C 432.98431396484375 55.29736328125 432.92529296875 57.850616455078125 433.215576171875 60.1060791015625 C 433.63616943359375 63.407470703125 434.58837890625 66.61903381347656 436.0352783203125 69.61618041992188 C 436.5372314453125 70.6507568359375 437.1318359375 71.6998291015625 438.08685302734375 72.33956909179688 C 439.00531005859375 72.88894653320312 440.06378173828125 73.15924072265625 441.1331787109375 73.11746215820312 C 444.38201904296875 73.11692810058594 447.46710205078125 71.69122314453125 449.5728759765625 69.21722412109375 L 447.933837890625 67.90826416015625" stroke-width="0.6000000238418579" fill="rgb(70, 150, 179)" opacity="1.0"/>
    <path d="M 457.889892578125 399.619873046875 C 458.6053466796875 397.15142822265625 459.294677734375 394.3853454589844 458.095458984375 392.1141357421875 C 456.80572509765625 389.6751403808594 453.6893310546875 388.71221923828125 450.94873046875 389.0298156738281 C 449.8919677734375 389.1518249511719 448.814453125 389.4482727050781 448.0106201171875 390.1448059082031 C 447.349609375 390.7171325683594 446.92626953125 391.51055908203125 446.5615234375 392.30499267578125 C 445.4085693359375 394.8089599609375 444.6854248046875 397.72808837890625 445.66357421875 400.30474853515625 C 446.651123046875 402.90093994140625 449.4302978515625 404.70782470703125 452.2054443359375 404.5408020019531 C 454.98052978515625 404.373779296875 457.539794921875 402.2735290527344 458.2237548828125 399.5769348144531 L 457.889892578125 399.619873046875" stroke-width="0.6000000238418579" fill="rgb(140, 28, 33)" opacity="1.0"/>
    <path d="M 121.26411437988281 215.16534423828125 C 117.61715698242188 220.24359130859375 113.8782958984375 225.56796264648438 112.68940734863281 231.7105712890625 C 111.50057983398438 237.85308837890625 113.63565063476562 245.12655639648438 119.2093505859375 247.96640014648438 C 126.09732055664062 251.45651245117188 135.0364227294922 246.24029541015625 137.601318359375 238.942138671875 C 140.16619873046875 231.64398193359375 137.84339904785156 223.46368408203125 134.04466247558594 216.7359619140625 C 133.077392578125 214.5355224609375 131.32046508789062 212.7777099609375 129.1205291748047 211.80938720703125 C 126.86752319335938 211.09124755859375 123.82220458984375 212.69769287109375 124.05645751953125 215.06256103515625 L 121.26411437988281 215.16534423828125" stroke-width="0.6000000238418579" fill="rgb(159, 159, 159)" opacity="1.0"/>
    <path d="M 108.38818359375 240.90509033203125 C 102.3824462890625 240.10836791992188 95.972900390625 241.35198974609375 91.18399047851562 245.0576171875 C 86.39506530761719 248.76324462890625 83.51097106933594 255.09130859375 84.65672302246094 261.06317138671875 C 85.47212219238281 265.2843322753906 88.18753051757812 268.993408203125 91.63180541992188 271.5726013183594 C 95.07608032226562 274.15179443359375 99.2032470703125 275.6885986328125 103.40069580078125 276.638916015625 C 105.22758483886719 277.0514221191406 107.17372131347656 277.35186767578125 108.93301391601562 276.72381591796875 C 110.95033264160156 276.00469970703125 112.35079956054688 274.2015686035156 113.55569458007812 272.423095703125 C 116.95724487304688 267.402099609375 119.7188720703125 261.66851806640625 119.74293518066406 255.60305786132812 C 119.7669677734375 249.53759765625 116.45204162597656 243.1658935546875 110.778076171875 241.0648193359375 L 108.38818359375 240.90509033203125" stroke-width="0.6000000238418579" fill="rgb(159, 159, 159)" opacity="1.0"/>
    <path d="M 283.6185302734375 85.54922485351562 C 282.6172180175781 91.47056579589844 281.7607116699219 98.09579467773438 285.1839904785156 103.01568603515625 C 288.5063781738281 107.80499267578125 294.7559814453125 109.39569091796875 300.4761657714844 110.5296630859375 C 302.80059814453125 110.98690795898438 305.23956298828125 111.42817687988281 307.5025634765625 110.73196411132812 C 311.33062744140625 109.55670166015625 313.5081481933594 105.5457763671875 314.67962646484375 101.72265625 C 315.7683410644531 98.174560546875 316.3418884277344 94.48854064941406 316.3828125 90.77738952636719 C 316.451416015625 84.75155639648438 314.56903076171875 77.9891357421875 309.244140625 75.17227172851562 C 306.3716125488281 73.6473388671875 302.8971252441406 73.54347229003906 299.7174377441406 74.24972534179688 C 296.5377502441406 74.95600891113281 293.58258056640625 76.42243957519531 290.6858215332031 77.91172790527344 C 287.7890625 79.4010009765625 284.9745788574219 80.92643737792969 282.9929504394531 83.4129638671875 L 283.6185302734375 85.54922485351562" stroke-width="0.6000000238418579" fill="rgb(218, 166, 20)" opacity="1.0"/>
    <path d="M 227.10665893554688 120.8201904296875 C 221.972412109375 112.43515014648438 211.0128173828125 109.79989624023438 202.6278076171875 114.93414306640625 C 201.9097900390625 115.37379455566406 201.223876953125 115.86383056640625 200.5751953125 116.40055847167969 C 198.11077880859375 118.4404296875 196.15884399414062 121.29910278320312 195.88589477539062 124.48501586914062 C 195.65496826171875 127.17730712890625 196.61996459960938 129.82518005371094 197.81353759765625 132.24746704101562 C 201.01736450195312 138.72694396972656 205.89767456054688 144.23037719726562 211.947509765625 148.1861114501953 C 213.54840087890625 149.22903442382812 215.28057861328125 150.17730712890625 217.18191528320312 150.40347290039062 C 220.3736572265625 150.7850341796875 223.5062255859375 149.02996826171875 225.6865234375 146.66485595703125 C 228.92596435546875 143.15579223632812 230.50912475585938 138.29595947265625 230.473388671875 133.519287109375 C 230.43768310546875 128.7426300048828 228.88018798828125 124.05535888671875 226.47967529296875 119.926025390625 L 227.10665893554688 120.8201904296875" stroke-width="0.6000000238418579" fill="rgb(143, 165, 67)" opacity="1.0"/>
    <path d="M 201.53372192382812 90.953857421875 C 204.57601928710938 101.2425537109375 220.59808349609375 103.899658203125 227.38180541992188 95.67669677734375 C 234.16546630859375 87.4537353515625 229.1717529296875 72.83547973632812 218.90896606445312 69.69569396972656 C 208.64617919921875 66.555908203125 196.7828369140625 74.82937622070312 195.40106201171875 85.48239135742188 L 201.53372192382812 90.953857421875" stroke-width="0.6000000238418579" fill="rgb(233, 92, 21)" opacity="1.0"/>
    <path d="M 201.38494873046875 97.02633666992188 C 200.40023803710938 91.76132202148438 198.67791748046875 85.57424926757812 193.56546020507812 83.91624450683594 C 191.5052490234375 83.33560180664062 189.31561279296875 83.40855407714844 187.29864501953125 84.12510681152344 C 182.2603759765625 85.76373291015625 178.32891845703125 89.74270629882812 176.75091552734375 94.80024719238281 C 175.42333984375 99.0938720703125 175.99612426757812 103.67929077148438 176.6524658203125 108.09750366210938 C 177.025146484375 110.57878112792969 177.50018310546875 113.20317077636719 179.17279052734375 115.05496215820312 C 181.42251586914062 117.50495910644531 185.14010620117188 117.85919189453125 188.4600830078125 117.67277526855469 C 193.31918334960938 117.40603637695312 198.10308837890625 116.35455322265625 202.626220703125 114.55912780761719 C 204.18783569335938 113.93577575683594 205.78030395507812 113.1787109375 206.8135986328125 111.85301208496094 C 207.7113037109375 110.57121276855469 208.2166748046875 109.05587768554688 208.26806640625 107.4918212890625 C 208.6085205078125 102.75347900390625 206.85321044921875 98.10430908203125 203.46615600585938 94.77328491210938 L 201.38494873046875 97.02633666992188" stroke-width="0.6000000238418579" fill="rgb(70, 150, 179)" opacity="1.0"/>
    <path d="M 253.71051025390625 125.8521728515625 C 247.803466796875 124.81292724609375 241.21237182617188 123.90902709960938 236.244384765625 127.26251220703125 C 230.9097900390625 130.86810302734375 229.45925903320312 138.3407745361328 230.88525390625 144.6195526123047 C 231.43402099609375 147.04061889648438 232.39276123046875 149.46604919433594 234.2109375 151.1559295654297 C 235.70504760742188 152.54566955566406 237.65234375 153.3285369873047 239.58731079101562 153.97486877441406 C 245.68673706054688 156.02041625976562 252.64138793945312 156.9642333984375 258.3736877441406 154.04693603515625 C 264.1489562988281 151.10275268554688 267.6424255371094 144.20040893554688 266.55712890625 137.80369567871094 C 265.4718017578125 131.406982421875 259.9554138183594 125.99711608886719 253.52691650390625 125.08837890625 L 253.71051025390625 125.8521728515625" stroke-width="0.6000000238418579" fill="rgb(140, 28, 33)" opacity="1.0"/>
    <path d="M 288.8765869140625 124.65513610839844 C 282.9798889160156 126.36273193359375 276.8628845214844 128.20457458496094 272.218017578125 132.22531127929688 C 267.5732116699219 136.24600219726562 264.80828857421875 143.15658569335938 267.3880920410156 148.73080444335938 C 270.5879821777344 155.6044921875 280.6539306640625 157.00140380859375 287.0622253417969 152.92349243164062 C 293.47052001953125 148.8455810546875 296.6407165527344 141.12103271484375 297.7901916503906 133.622314453125 C 298.3785705566406 131.33668518066406 298.08880615234375 128.91363525390625 296.9779968261719 126.83126831054688 C 295.6744079589844 124.90982055664062 292.34869384765625 124.30224609375 291.0946350097656 126.27005004882812 L 288.8765869140625 124.65513610839844" stroke-width="0.6000000238418579" fill="rgb(159, 159, 159)" opacity="1.0"/>
    <path d="M 197.23916625976562 135.1742706298828 C 193.792724609375 130.17498779296875 188.55831909179688 126.24761962890625 182.58392333984375 125.1802978515625 C 176.60955810546875 124.11296081542969 169.967041015625 126.22479248046875 166.29913330078125 131.09213256835938 C 163.71023559570312 134.5366668701172 162.77957153320312 139.04896545410156 163.1788330078125 143.34317016601562 C 163.57803344726562 147.6374053955078 165.21121215820312 151.73818969726562 167.32748413085938 155.49684143066406 C 168.24942016601562 157.1319580078125 169.33480834960938 158.7803955078125 170.984619140625 159.66558837890625 C 172.8756103515625 160.68133544921875 175.157470703125 160.5096435546875 177.28948974609375 160.20919799804688 C 183.30853271484375 159.36087036132812 189.4268798828125 157.55780029296875 193.95098876953125 153.4969482421875 C 198.47509765625 149.43606567382812 200.9814453125 142.6876983642578 198.72750854492188 137.05789184570312 L 197.23916625976562 135.1742706298828" stroke-width="0.6000000238418579" fill="rgb(159, 159, 159)" opacity="1.0"/>
    <path d="M 275.574951171875 97.51345825195312 C 270.0088806152344 97.64801025390625 263.8277587890625 98.0386962890625 259.95465087890625 102.02333068847656 C 256.1825866699219 105.89309692382812 255.83868408203125 111.86203002929688 255.81698608398438 117.26844787597656 C 255.8114013671875 119.46475219726562 255.840576171875 121.76248168945312 256.8739013671875 123.69912719726562 C 258.6197204589844 126.97561645507812 262.6548156738281 128.24899291992188 266.3412780761719 128.63992309570312 C 269.7628173828125 129.0040740966797 273.2189025878906 128.8750457763672 276.603759765625 128.25677490234375 C 282.1001892089844 127.2548828125 287.9223937988281 124.34722900390625 289.54559326171875 119.00331115722656 C 290.4261169433594 116.11959838867188 289.9069519042969 112.93899536132812 288.7025451660156 110.1697998046875 C 287.49810791015625 107.40060424804688 285.6414794921875 104.97001647949219 283.7743835449219 102.59661865234375 C 281.90728759765625 100.22323608398438 280.0218200683594 97.93115234375 277.40875244140625 96.56680297851562 L 275.574951171875 97.51345825195312" stroke-width="0.6000000238418579" fill="rgb(218, 166, 20)" opacity="1.0"/>
    <path d="M 224.17242431640625 109.5245361328125 C 225.32083129882812 119.114013671875 234.025634765625 125.95686340332031 243.6151123046875 124.80844116210938 C 244.436279296875 124.71011352539062 245.2493896484375 124.55363464355469 246.04840087890625 124.34022521972656 C 249.0843505859375 123.52874755859375 251.9981689453125 121.77629089355469 253.547119140625 119.04379272460938 C 254.8563232421875 116.73477172851562 255.07965087890625 113.9754638671875 255.0064697265625 111.32388305664062 C 254.80078125 104.22654724121094 252.698486328125 97.313720703125 248.91802978515625 91.30351257324219 C 247.91604614257812 89.71652221679688 246.75811767578125 88.16024780273438 245.15328979492188 87.17935180664062 C 242.4600830078125 85.53103637695312 238.94436645507812 85.81452941894531 236.02880859375 87.03276062011719 C 231.69906616210938 88.83839416503906 228.29458618164062 92.52853393554688 226.36947631835938 96.80767822265625 C 224.44436645507812 101.08682250976562 223.91448974609375 105.90962219238281 224.3658447265625 110.57968139648438 L 224.17242431640625 109.5245361328125" stroke-width="0.6000000238418579" fill="rgb(143, 165, 67)" opacity="1.0"/>
    <path d="M 248.76980590820312 87.02264404296875 C 249.67910766601562 98.19209289550781 265.4908447265625 104.3360595703125 274.1852111816406 97.38052368164062 C 282.87957763671875 90.42495727539062 280.9013977050781 74.4117431640625 271.0809326171875 69.00637817382812 C 261.260498046875 63.600982666015625 247.36212158203125 69.521484375 243.67059326171875 80.11700439453125 L 248.76980590820312 87.02264404296875" stroke-width="0.6000000238418579" fill="rgb(233, 92, 21)" opacity="1.0"/>
    <path d="M 339.1753234863281 71.28472900390625 C 336.97430419921875 66.35888671875 333.8342590332031 60.703125 328.437255859375 60.279754638671875 C 326.28289794921875 60.194854736328125 324.1552734375 60.78053283691406 322.3479309082031 61.956085205078125 C 317.79779052734375 64.74432373046875 314.8813781738281 69.56501770019531 314.5234680175781 74.88948059082031 C 314.2314453125 79.4068603515625 315.8693542480469 83.7637939453125 317.5498046875 87.93728637695312 C 318.49761962890625 90.28018188476562 319.5792236328125 92.73921203613281 321.6524353027344 94.16023254394531 C 324.4314270019531 96.03167724609375 328.156005859375 95.50558471679688 331.3641052246094 94.54330444335938 C 336.06097412109375 93.140869140625 340.4998779296875 90.98747253417969 344.5086364746094 88.16661071777344 C 345.891845703125 87.18930053710938 347.2738952636719 86.07376098632812 347.97467041015625 84.53256225585938 C 348.552978515625 83.06622314453125 348.6921081542969 81.4632568359375 348.3751220703125 79.919189453125 C 347.5957946777344 75.19804382324219 344.7846374511719 71.056396484375 340.6847229003906 68.589111328125 L 339.1753234863281 71.28472900390625" stroke-width="0.6000000238418579" fill="rgb(70, 150, 179)" opacity="1.0"/>
    <path d="M 327.961181640625 137.31198120117188 C 327.5956115722656 131.3857421875 326.9415588378906 124.83230590820312 322.5648193359375 120.82568359375 C 317.8606262207031 116.52452087402344 310.33221435546875 116.85621643066406 304.6181640625 119.68072509765625 C 302.41461181640625 120.768798828125 300.3016357421875 122.25250244140625 299.095458984375 124.39338684082031 C 298.10321044921875 126.15292358398438 297.7999572753906 128.20838928222656 297.625244140625 130.2203826904297 C 297.066650390625 136.56454467773438 297.766357421875 143.4771270751953 301.89996337890625 148.3203125 C 306.06939697265625 153.19862365722656 313.521240234375 154.96527099609375 319.4275817871094 152.44142150878906 C 325.33392333984375 149.91757202148438 329.2657165527344 143.356689453125 328.6539306640625 136.95864868164062 L 327.961181640625 137.31198120117188" stroke-width="0.6000000238418579" fill="rgb(140, 28, 33)" opacity="1.0"/>
    <path d="M 343.3394775390625 96.85514831542969 C 337.17498779296875 95.58015441894531 330.7464294433594 94.3214111328125 324.6094970703125 95.74325561523438 C 318.4726257324219 97.16511535644531 312.65667724609375 102.10748291015625 312.3269958496094 108.39720153808594 C 311.9373474121094 116.162109375 320.3959045410156 122.24842834472656 328.1592102050781 121.61906433105469 C 335.92254638671875 120.98968505859375 342.4957275390625 115.5032958984375 347.12841796875 109.25411987304688 C 348.75634765625 107.46331787109375 349.65374755859375 105.12744140625 349.6435852050781 102.70736694335938 C 349.38153076171875 100.34091186523438 346.65679931640625 98.1976318359375 344.5774841308594 99.38150024414062 L 343.3394775390625 96.85514831542969" stroke-width="0.6000000238418579" fill="rgb(159, 159, 159)" opacity="1.0"/>
    <path d="M 342.654052734375 115.90068054199219 C 337.33966064453125 117.90132141113281 332.594970703125 121.766357421875 330.27911376953125 126.94790649414062 C 327.9632568359375 132.12945556640625 328.382080078125 138.63426208496094 331.97247314453125 143.0607147216797 C 334.514892578125 146.18704223632812 338.4002990722656 148.04917907714844 342.3876647949219 148.6551513671875 C 346.3750305175781 149.26112365722656 350.465087890625 148.70358276367188 354.3535461425781 147.63043212890625 C 356.0454406738281 147.1624298095703 357.7862854003906 146.54905700683594 358.961669921875 145.25132751464844 C 360.3099365234375 143.76412963867188 360.6686706542969 141.65444946289062 360.8767395019531 139.6517333984375 C 361.4640808105469 133.9976806640625 361.207275390625 128.03823852539062 358.5418701171875 123.01658630371094 C 355.8764343261719 117.99490356445312 350.31695556640625 114.19847106933594 344.6991882324219 114.97462463378906 L 342.654052734375 115.90068054199219" stroke-width="0.6000000238418579" fill="rgb(159, 159, 159)" opacity="1.0"/>
    <path d="M 363.0865478515625 90.54515075683594 C 358.2591552734375 90.77755737304688 352.9033203125 91.2449951171875 349.62506103515625 94.78329467773438 C 346.43206787109375 98.21981811523438 346.2576599121094 103.40675354003906 346.35113525390625 108.09886169433594 C 346.39190673828125 110.00491333007812 346.4649658203125 111.99826049804688 347.4019470214844 113.65739440917969 C 348.9850158691406 116.46443176269531 352.5130615234375 117.48564147949219 355.72027587890625 117.748291015625 C 358.697021484375 117.99322509765625 361.6935119628906 117.8094482421875 364.6180419921875 117.20260620117188 C 369.36700439453125 116.21897888183594 374.35906982421875 113.57476806640625 375.6566467285156 108.90364074707031 C 376.36083984375 106.38287353515625 375.84423828125 103.63357543945312 374.74151611328125 101.2554931640625 C 373.6387939453125 98.87742614746094 371.9771423339844 96.8067626953125 370.30755615234375 94.78593444824219 C 368.63800048828125 92.76510620117188 366.9541931152344 90.81521606445312 364.6582336425781 89.685546875 L 363.0865478515625 90.54515075683594" stroke-width="0.6000000238418579" fill="rgb(218, 166, 20)" opacity="1.0"/>
    <path d="M 428.32476806640625 138.6586151123047 C 419.8211669921875 140.07293701171875 414.07421875 148.1129913330078 415.488525390625 156.6165771484375 C 415.609619140625 157.34475708007812 415.7822265625 158.06341552734375 416.0050048828125 158.76715087890625 C 416.8521728515625 161.4410400390625 418.5333251953125 163.96783447265625 421.03271484375 165.2376708984375 C 423.1448974609375 166.31103515625 425.6142578125 166.3978271484375 427.97552490234375 166.22463989257812 C 434.29541015625 165.75234985351562 440.37353515625 163.59649658203125 445.57861328125 159.98101806640625 C 446.95281982421875 159.02301025390625 448.2933349609375 157.92718505859375 449.10260009765625 156.45635986328125 C 450.462646484375 153.9879150390625 450.0667724609375 150.8647003173828 448.86187744140625 148.314697265625 C 447.07568359375 144.52761840820312 443.6468505859375 141.6422576904297 439.7530517578125 140.09996032714844 C 435.8592529296875 138.55764770507812 431.5374755859375 138.281494140625 427.391845703125 138.87403869628906 L 428.32476806640625 138.6586151123047" stroke-width="0.6000000238418579" fill="rgb(143, 165, 67)" opacity="1.0"/>
    <path d="M 147.51034545898438 408.813232421875 C 154.16761779785156 416.135986328125 168.53988647460938 411.9097900390625 170.87191772460938 402.35748291015625 C 173.20391845703125 392.80517578125 163.18777465820312 382.6705017089844 153.40452575683594 384.1835021972656 C 143.62127685546875 385.6965026855469 137.0911407470703 397.3302001953125 140.2207794189453 406.731689453125 L 147.51034545898438 408.813232421875" stroke-width="0.6000000238418579" fill="rgb(233, 92, 21)" opacity="1.0"/>
    <path d="M 430.2841796875 203.1739501953125 C 426.03448486328125 200.041259765625 420.6331787109375 196.739990234375 415.8336181640625 198.98236083984375 C 413.9583740234375 199.94903564453125 412.42926025390625 201.47381591796875 411.457275390625 203.34640502929688 C 408.927734375 207.9149169921875 408.7694091796875 213.42608642578125 411.03253173828125 218.13226318359375 C 412.9625244140625 222.1195068359375 416.4583740234375 225.039306640625 419.90203857421875 227.782470703125 C 421.8389892578125 229.32025146484375 423.94580078125 230.89239501953125 426.39642333984375 231.10244750976562 C 429.6651611328125 231.35568237304688 432.582763671875 229.1114501953125 434.850341796875 226.74490356445312 C 438.17315673828125 223.28558349609375 440.9141845703125 219.311279296875 442.967041015625 214.97607421875 C 443.6734619140625 213.47683715820312 444.312255859375 211.8604736328125 444.1656494140625 210.21026611328125 C 443.9508056640625 208.68280029296875 443.2962646484375 207.2508544921875 442.28167724609375 206.0889892578125 C 439.3411865234375 202.44497680664062 434.9501953125 200.2742919921875 430.26934814453125 200.1507568359375 L 430.2841796875 203.1739501953125" stroke-width="0.6000000238418579" fill="rgb(70, 150, 179)" opacity="1.0"/>
    <path d="M 414.8023681640625 161.872802734375 C 414.52740478515625 156.10858154296875 413.9805908203125 149.73092651367188 409.7814636230469 145.7779083251953 C 405.26806640625 141.5341796875 397.9472961425781 141.75453186035156 392.3559875488281 144.4220428466797 C 390.19976806640625 145.44960021972656 388.1262512207031 146.8628692626953 386.925048828125 148.92709350585938 C 385.9369201660156 150.6236114501953 385.6143493652344 152.61705017089844 385.41729736328125 154.56997680664062 C 384.7884826660156 160.72781372070312 385.37481689453125 167.45513916015625 389.3263244628906 172.21783447265625 C 393.31219482421875 177.01519775390625 400.5301513671875 178.8330078125 406.30426025390625 176.4603271484375 C 412.078369140625 174.08758544921875 415.98828125 167.76483154296875 415.48040771484375 161.538818359375 L 414.8023681640625 161.872802734375" stroke-width="0.6000000238418579" fill="rgb(140, 28, 33)" opacity="1.0"/>
    <path d="M 153.79832458496094 130.75221252441406 C 147.65989685058594 132.29934692382812 141.28956604003906 133.97689819335938 136.35777282714844 137.9530029296875 C 131.42608642578125 141.9290771484375 128.32748413085938 148.9510955810547 130.78512573242188 154.78866577148438 C 133.83489990234375 161.98776245117188 144.15805053710938 163.79034423828125 150.90919494628906 159.81890869140625 C 157.66033935546875 155.84744262695312 161.20596313476562 148.00119018554688 162.66094970703125 140.31480407714844 C 163.3497314453125 137.9805450439453 163.13845825195312 135.47300720214844 162.06878662109375 133.28695678710938 C 160.794677734375 131.25979614257812 157.38925170898438 130.5137481689453 156.02593994140625 132.49644470214844 L 153.79832458496094 130.75221252441406" stroke-width="0.6000000238418579" fill="rgb(159, 159, 159)" opacity="1.0"/>
    <path d="M 436.084228515625 168.40142822265625 C 431.0240478515625 166.34597778320312 425.1495361328125 165.97943115234375 420.1314697265625 168.1282958984375 C 415.1134033203125 170.27716064453125 411.1635437011719 175.14572143554688 410.81072998046875 180.6162109375 C 410.5661926269531 184.48422241210938 412.0955810546875 188.33575439453125 414.516845703125 191.36639404296875 C 416.9381103515625 194.3970947265625 420.19140625 196.6728515625 423.6387939453125 198.45278930664062 C 425.13946533203125 199.22650146484375 426.7696533203125 199.929443359375 428.447021484375 199.77987670898438 C 430.37017822265625 199.60931396484375 432.0006103515625 198.35308837890625 433.45477294921875 197.0740966796875 C 437.5601806640625 193.4632568359375 441.2685546875 189.085693359375 442.66326904296875 183.7984619140625 C 444.05804443359375 178.51123046875 442.60858154296875 172.2005615234375 438.1334228515625 169.08209228515625 L 436.084228515625 168.40142822265625" stroke-width="0.6000000238418579" fill="rgb(159, 159, 159)" opacity="1.0"/>
    <path d="M 413.88507080078125 195.86614990234375 C 413.48583984375 190.31121826171875 412.8013916015625 184.1539306640625 408.63592529296875 180.47369384765625 C 404.5899963378906 176.888916015625 398.6097717285156 176.82928466796875 393.2069396972656 177.0648193359375 C 391.0122375488281 177.1636962890625 388.71783447265625 177.30218505859375 386.8320007324219 178.42678833007812 C 383.641357421875 180.32696533203125 382.56103515625 184.419189453125 382.3458251953125 188.12115478515625 C 382.1447448730469 191.55706787109375 382.4381103515625 195.00408935546875 383.21685791015625 198.35665893554688 C 384.4794006347656 203.80078125 387.66156005859375 209.47967529296875 393.0781555175781 210.84725952148438 C 396.0013122558594 211.58984375 399.1545104980469 210.9197998046875 401.8640441894531 209.58465576171875 C 404.5735778808594 208.24951171875 406.9137878417969 206.27883911132812 409.1963195800781 204.3004150390625 C 411.4788513183594 202.32199096679688 413.6793212890625 200.3291015625 414.918212890625 197.6533203125 L 413.88507080078125 195.86614990234375" stroke-width="0.6000000238418579" fill="rgb(218, 166, 20)" opacity="1.0"/>
    <path d="M 444.67559814453125 193.71636962890625 C 440.40179443359375 201.95159912109375 443.6131591796875 212.09222412109375 451.84844970703125 216.36602783203125 C 452.5535888671875 216.73199462890625 453.28387451171875 217.04745483398438 454.03369140625 217.31008911132812 C 456.88311767578125 218.30746459960938 460.1444091796875 218.49169921875 462.8519287109375 217.15966796875 C 465.14013671875 216.03424072265625 466.8095703125 213.96405029296875 468.18536376953125 211.819091796875 C 471.86004638671875 206.07244873046875 473.92901611328125 199.44671630859375 474.1773681640625 192.630126953125 C 474.239990234375 190.82818603515625 474.162109375 188.96630859375 473.4183349609375 187.31964111328125 C 472.17120361328125 184.554443359375 469.226318359375 182.87835693359375 466.2525634765625 182.26904296875 C 461.8382568359375 181.361328125 457.1395263671875 182.45037841796875 453.29693603515625 184.80706787109375 C 449.454345703125 187.16372680664062 446.4256591796875 190.70657348632812 444.25860595703125 194.65875244140625 L 444.67559814453125 193.71636962890625" stroke-width="0.6000000238418579" fill="rgb(143, 165, 67)" opacity="1.0"/>
    <path d="M 141.5808563232422 96.35816955566406 C 130.5643310546875 104.883544921875 134.8931427001953 125.52078247070312 148.03665161132812 129.8571319580078 C 161.18017578125 134.1934356689453 176.5164794921875 121.26834106445312 175.4833984375 107.3724365234375 C 174.4503173828125 93.47651672363281 158.85400390625 83.01771545410156 145.3136444091797 86.36170959472656 L 141.5808563232422 96.35816955566406" stroke-width="0.6000000238418579" fill="rgb(233, 92, 21)" opacity="1.0"/>
    <path d="M 453.631103515625 153.72042846679688 C 447.65771484375 154.81776428222656 440.6361083984375 156.748046875 438.737548828125 162.538818359375 C 438.0716552734375 164.87271118164062 438.1463623046875 167.355712890625 438.95147705078125 169.64532470703125 C 440.791015625 175.36395263671875 445.288330078125 179.83621215820312 451.01708984375 181.64389038085938 C 455.880615234375 183.16485595703125 461.08197021484375 182.53216552734375 466.093994140625 181.8040771484375 C 468.9088134765625 181.39056396484375 471.88623046875 180.86151123046875 473.99200439453125 178.97174072265625 C 476.7781982421875 176.42984008789062 477.193359375 172.21588134765625 476.994140625 168.45083618164062 C 476.70941162109375 162.9403076171875 475.53466796875 157.51217651367188 473.515380859375 152.37701416015625 C 472.8143310546875 150.6040802001953 471.961669921875 148.79566955566406 470.4622802734375 147.6192169189453 C 469.01220703125 146.59664916992188 467.2958984375 146.01809692382812 465.5225830078125 145.95413208007812 C 460.1512451171875 145.5508270263672 454.873291015625 147.5241241455078 451.08404541015625 151.3524169921875 L 453.631103515625 153.72042846679688" stroke-width="0.6000000238418579" fill="rgb(70, 150, 179)" opacity="1.0"/>
    <path d="M 378.75787353515625 82.82089233398438 C 381.500732421875 76.91207885742188 384.29290771484375 70.24746704101562 382.1629333496094 64.09555053710938 C 379.8708801269531 57.488372802734375 372.4339599609375 53.875946044921875 365.4454650878906 53.61637878417969 C 362.75103759765625 53.515167236328125 359.9373474121094 53.84297180175781 357.6552734375 55.27850341796875 C 355.7788391113281 56.4578857421875 354.4125671386719 58.28263854980469 353.1930236816406 60.13261413574219 C 349.3401794433594 65.96189880371094 346.40447998046875 72.99690246582031 347.8628845214844 79.8289794921875 C 349.3374938964844 86.71365356445312 355.6044921875 92.31065368652344 362.6214599609375 92.96075439453125 C 369.638427734375 93.61083984375 376.85906982421875 89.33445739746094 379.6108093261719 82.84184265136719 L 378.75787353515625 82.82089233398438" stroke-width="0.6000000238418579" fill="rgb(140, 28, 33)" opacity="1.0"/>
    <path d="M 129.47557067871094 410.46990966796875 C 125.20880126953125 416.703857421875 120.83770751953125 423.23760986328125 119.56927490234375 430.690185546875 C 118.30088806152344 438.14263916015625 121.07856750488281 446.8704833984375 127.88897705078125 450.1488037109375 C 136.30474853515625 454.17669677734375 146.9605255126953 447.631591796875 149.85958862304688 438.74560546875 C 152.7586669921875 429.859619140625 149.7294464111328 420.04144287109375 144.95700073242188 412.01824951171875 C 143.72848510742188 409.3865966796875 141.5581817626953 407.3111572265625 138.87428283691406 406.2015075683594 C 136.1331024169922 405.3955383300781 132.49830627441406 407.4192199707031 132.84584045410156 410.2695007324219 L 129.47557067871094 410.46990966796875" stroke-width="0.6000000238418579" fill="rgb(159, 159, 159)" opacity="1.0"/>
    <path d="M 415.5225830078125 224.81036376953125 C 412.406005859375 218.89620971679688 407.1951599121094 213.9210205078125 400.8028564453125 211.97607421875 C 394.41058349609375 210.03118896484375 386.8738098144531 211.4747314453125 382.2300720214844 216.31808471679688 C 378.9512634277344 219.74652099609375 377.3461608886719 224.55825805664062 377.22332763671875 229.30474853515625 C 377.1004943847656 234.05126953125 378.351806640625 238.74700927734375 380.17584228515625 243.13165283203125 C 380.9707336425781 245.039306640625 381.942626953125 246.98272705078125 383.63092041015625 248.16534423828125 C 385.56591796875 249.52203369140625 388.0828552246094 249.63153076171875 390.4527282714844 249.58074951171875 C 397.14337158203125 249.43728637695312 404.06683349609375 248.26296997070312 409.54156494140625 244.41278076171875 C 415.0162353515625 240.56259155273438 418.63519287109375 233.5115966796875 416.9044189453125 227.06341552734375 L 415.5225830078125 224.81036376953125" stroke-width="0.6000000238418579" fill="rgb(159, 159, 159)" opacity="1.0"/>
    <path d="M 382.9843444824219 111.78788757324219 C 376.76153564453125 112.31170654296875 369.86724853515625 113.16354370117188 365.79803466796875 117.88446044921875 C 361.834228515625 122.47000122070312 361.84942626953125 129.17596435546875 362.1875915527344 135.23049926757812 C 362.3285827636719 137.68988037109375 362.5152893066406 140.260498046875 363.8020935058594 142.3594970703125 C 365.9764099121094 145.9108428955078 370.5794982910156 147.06600952148438 374.7331237792969 147.2565155029297 C 378.58831787109375 147.43484497070312 382.44915771484375 147.05865478515625 386.19744873046875 146.13949584960938 C 392.2841491699219 144.6492462158203 398.6078186035156 141.00343322753906 400.0668640136719 134.91148376464844 C 400.859375 131.62380981445312 400.0648498535156 128.09759521484375 398.53070068359375 125.07791137695312 C 396.9965515136719 122.0582275390625 394.7548828125 119.46139526367188 392.5053405761719 116.9293212890625 C 390.25579833984375 114.397216796875 387.9911193847656 111.95736694335938 384.9739990234375 110.60504150390625 L 382.9843444824219 111.78788757324219" stroke-width="0.6000000238418579" fill="rgb(218, 166, 20)" opacity="1.0"/>
    <path d="M 402.6573486328125 86.34524536132812 C 395.1905517578125 79.4432373046875 383.5423583984375 79.90109252929688 376.6403503417969 87.36785888671875 C 376.04931640625 88.00723266601562 375.5044250488281 88.687744140625 375.0096740722656 89.40426635742188 C 373.13037109375 92.12713623046875 371.9912109375 95.52088928222656 372.6151123046875 98.76838684082031 C 373.1420593261719 101.51280212402344 374.84674072265625 103.87684631347656 376.7154846191406 105.95211791992188 C 381.7253723144531 111.500244140625 388.12945556640625 115.60574340820312 395.2624206542969 117.84214782714844 C 397.14886474609375 118.43011474609375 399.13934326171875 118.88699340820312 401.09521484375 118.57765197753906 C 404.3790588378906 118.06024169921875 407.00341796875 115.4329833984375 408.5085754394531 112.46627807617188 C 410.7462463378906 108.06332397460938 410.9558410644531 102.78157043457031 409.57763671875 98.03765869140625 C 408.1994323730469 93.29373168945312 405.3318176269531 89.0665283203125 401.7820129394531 85.631591796875 L 402.6573486328125 86.34524536132812" stroke-width="0.6000000238418579" fill="rgb(143, 165, 67)" opacity="1.0"/>
    <path d="M 116.6788330078125 429.43902587890625 C 112.33306884765625 418.24383544921875 94.21499633789062 416.7626953125 87.40895080566406 426.56292724609375 C 80.60295104980469 436.36322021484375 87.52618408203125 452.20733642578125 99.26457214355469 454.7598876953125 C 111.00296020507812 457.3125 123.47056579589844 446.98577880859375 124.02597045898438 434.9747314453125 L 116.6788330078125 429.43902587890625" stroke-width="0.6000000238418579" fill="rgb(233, 92, 21)" opacity="1.0"/>
    <path d="M 455.5584716796875 221.7742919921875 C 449.42547607421875 220.0518798828125 441.9208984375 218.63046264648438 437.460693359375 223.20907592773438 C 435.75665283203125 225.10025024414062 434.681396484375 227.47360229492188 434.3834228515625 230.00177001953125 C 433.4776611328125 236.2371826171875 435.65045166015625 242.52481079101562 440.212646484375 246.87075805664062 C 444.0921630859375 250.54742431640625 449.283447265625 252.35125732421875 454.3404541015625 253.97796630859375 C 457.1826171875 254.88711547851562 460.2313232421875 255.76254272460938 463.0867919921875 254.95404052734375 C 466.884033203125 253.84518432617188 469.2193603515625 250.06744384765625 470.76885986328125 246.42901611328125 C 473.04315185546875 241.10699462890625 474.4410400390625 235.45193481445312 474.9083251953125 229.6832275390625 C 475.06591796875 227.689697265625 475.09716796875 225.5928955078125 474.2276611328125 223.79293823242188 C 473.33349609375 222.16067504882812 471.9837646484375 220.82382202148438 470.3428955078125 219.94540405273438 C 465.469482421875 217.08721923828125 459.58746337890625 216.51080322265625 454.2518310546875 218.36856079101562 L 455.5584716796875 221.7742919921875" stroke-width="0.6000000238418579" fill="rgb(70, 150, 179)" opacity="1.0"/>
    <path d="M 432.58563232421875 134.9810028076172 C 434.3394775390625 128.7430419921875 436.0216064453125 121.75509643554688 432.9521484375 116.05308532714844 C 429.65118408203125 109.92984008789062 421.77447509765625 107.5650634765625 414.87115478515625 108.42123413085938 C 412.2093505859375 108.75018310546875 409.49871826171875 109.51937866210938 407.48614501953125 111.291748046875 C 405.8311462402344 112.74810791015625 404.7796936035156 114.75706481933594 403.8763122558594 116.7674560546875 C 401.0199279785156 123.10379028320312 399.2557373046875 130.47824096679688 401.77392578125 136.95486450195312 C 404.3163757324219 143.4805450439453 411.35980224609375 147.97998046875 418.3531494140625 147.5027618408203 C 425.3465576171875 147.02554321289062 431.7567138671875 141.67860412597656 433.426513671875 134.865966796875 L 432.58563232421875 134.9810028076172" stroke-width="0.6000000238418579" fill="rgb(140, 28, 33)" opacity="1.0"/>
    <path d="M 381.0414733886719 59.98748779296875 C 382.4881591796875 66.81703186035156 384.0688171386719 73.90760803222656 388.2429504394531 79.50962829589844 C 392.4170227050781 85.11154174804688 400.02484130859375 88.82156372070312 406.5611572265625 86.35887145996094 C 414.62274169921875 83.3009033203125 417.04345703125 72.00079345703125 412.950927734375 64.39405822753906 C 408.8584899902344 56.787322998046875 400.3612060546875 52.55003356933594 391.9521484375 50.623321533203125 C 389.4088134765625 49.766082763671875 386.6366271972656 49.893402099609375 384.1826477050781 50.980194091796875 C 381.8951416015625 52.298980712890625 380.92974853515625 56.02030944824219 383.05731201171875 57.6060791015625 L 381.0414733886719 59.98748779296875" stroke-width="0.6000000238418579" fill="rgb(159, 159, 159)" opacity="1.0"/>
    <path d="M 433.4901123046875 248.2769775390625 C 427.167236328125 251.103271484375 421.675048828125 256.1574401855469 419.2364501953125 262.6358337402344 C 416.7979736328125 269.1142578125 417.7860107421875 277.00262451171875 422.482421875 282.12762451171875 C 425.8074951171875 285.746826171875 430.674560546875 287.728271484375 435.57342529296875 288.17291259765625 C 440.4722900390625 288.6175537109375 445.41070556640625 287.6381530761719 450.0657958984375 286.04583740234375 C 452.0911865234375 285.3516845703125 454.1654052734375 284.47698974609375 455.5009765625 282.8106994628906 C 457.0330810546875 280.9010314941406 457.314697265625 278.3062744140625 457.4207763671875 275.8528137207031 C 457.72021484375 268.92620849609375 456.9696044921875 261.68988037109375 453.35546875 255.77227783203125 C 449.741455078125 249.85464477539062 442.69403076171875 245.64138793945312 435.911865234375 246.99923706054688 L 433.4901123046875 248.2769775390625" stroke-width="0.6000000238418579" fill="rgb(159, 159, 159)" opacity="1.0"/>
    <path d="M 414.384765625 261.3417053222656 C 410.1667175292969 255.86709594726562 405.240966796875 249.96453857421875 398.4098205566406 249.00958251953125 C 391.7677917480469 248.07147216796875 385.538818359375 252.10601806640625 380.10943603515625 256.05047607421875 C 377.9061584472656 257.6561279296875 375.6268310546875 259.3709716796875 374.44573974609375 261.826416015625 C 372.44573974609375 265.9781494140625 374.1308898925781 270.9526672363281 376.4438781738281 274.93072509765625 C 378.5893249511719 278.62384033203125 381.25396728515625 281.9897766113281 384.356201171875 284.92547607421875 C 389.3916320800781 289.6940612792969 396.5743103027344 293.3907775878906 403.115966796875 291.095703125 C 406.6494140625 289.8618469238281 409.4532775878906 287.0086975097656 411.3424987792969 283.7712097167969 C 413.231689453125 280.53369140625 414.303466796875 276.89154052734375 415.3101806640625 273.2808532714844 C 416.31689453125 269.6701965332031 417.22882080078125 266.10076904296875 416.677978515625 262.4833984375 L 414.384765625 261.3417053222656" stroke-width="0.6000000238418579" fill="rgb(218, 166, 20)" opacity="1.0"/>
    <path d="M 409.19097900390625 87.64903259277344 C 406.41204833984375 97.84053039550781 412.421142578125 108.35513305664062 422.61260986328125 111.13406372070312 C 423.4853515625 111.37203979492188 424.373779296875 111.54776000976562 425.2713623046875 111.66000366210938 C 428.6820068359375 112.08580017089844 432.35589599609375 111.50772094726562 435.04931640625 109.3751220703125 C 437.32568359375 107.5731201171875 438.6865234375 104.8682861328125 439.70257568359375 102.15072631835938 C 442.412353515625 94.87274169921875 443.1239013671875 87.001953125 441.763427734375 79.35595703125 C 441.40045166015625 77.33551025390625 440.86669921875 75.28207397460938 439.64349365234375 73.6280517578125 C 437.591552734375 70.85006713867188 433.91168212890625 69.69183349609375 430.455810546875 69.727783203125 C 425.32501220703125 69.777587890625 420.357177734375 72.11787414550781 416.64654541015625 75.66340637207031 C 412.9359130859375 79.20892333984375 410.4158935546875 83.879150390625 408.95318603515625 88.79800415039062 L 409.19097900390625 87.64903259277344" stroke-width="0.6000000238418579" fill="rgb(143, 165, 67)" opacity="1.0"/>
    <path d="M 436.42694091796875 122.27668762207031 C 432.0714111328125 135.20484924316406 446.798583984375 149.680908203125 459.8670654296875 146.0843963623047 C 472.93548583984375 142.48785400390625 478.4254150390625 123.62876892089844 470.0430908203125 112.86041259765625 C 461.66082763671875 102.09205627441406 443.27056884765625 102.02803039550781 434.0460205078125 112.10142517089844 L 436.42694091796875 122.27668762207031" stroke-width="0.6000000238418579" fill="rgb(233, 92, 21)" opacity="1.0"/>
    <path d="M 448.45367431640625 90.71910095214844 C 448.628173828125 96.81954956054688 449.4693603515625 104.08857727050781 454.9293212890625 106.86140441894531 C 457.1451416015625 107.88031005859375 459.62249755859375 108.18655395507812 462.01971435546875 107.73782348632812 C 467.9808349609375 106.78712463378906 473.1114501953125 103.00607299804688 475.78448486328125 97.59365844726562 C 478.0401611328125 92.99664306640625 478.20880126953125 87.73416137695312 478.25372314453125 82.64505004882812 C 478.2742919921875 79.78627014160156 478.2052001953125 76.74826049804688 476.65106201171875 74.36741638183594 C 474.55352783203125 71.2109375 470.43218994140625 70.15289306640625 466.6624755859375 69.77386474609375 C 461.146240234375 69.2122802734375 455.57550048828125 69.54725646972656 450.166259765625 70.76577758789062 C 448.298095703125 71.19039916992188 446.3714599609375 71.76002502441406 444.973388671875 73.06884765625 C 443.73565673828125 74.352294921875 442.8980712890625 75.96817016601562 442.5628662109375 77.71942138671875 C 441.33935546875 82.99203491210938 442.4903564453125 88.53599548339844 445.711669921875 92.88578796386719 L 448.45367431640625 90.71910095214844" stroke-width="0.6000000238418579" fill="rgb(70, 150, 179)" opacity="1.0"/>
    <path d="M 309.52191162109375 366.46173095703125 C 303.91943359375 363.6353454589844 297.5908508300781 360.73773193359375 291.6011657714844 362.59503173828125 C 285.1680908203125 364.5940246582031 281.4565124511719 371.640380859375 280.9869689941406 378.3603820800781 C 280.80487060546875 380.95123291015625 281.0320129394531 383.67041015625 282.34234619140625 385.9125671386719 C 283.4188232421875 387.75616455078125 285.1326599121094 389.12890625 286.8753967285156 390.36114501953125 C 292.3664245605469 394.253662109375 299.0470886230469 397.30108642578125 305.67047119140625 396.11175537109375 C 312.34503173828125 394.908447265625 317.93048095703125 389.0508117675781 318.7768859863281 382.315673828125 C 319.623291015625 375.5805358886719 315.733154296875 368.4945068359375 309.5688781738281 365.6412353515625 L 309.52191162109375 366.46173095703125" stroke-width="0.6000000238418579" fill="rgb(140, 28, 33)" opacity="1.0"/>
    <path d="M 293.8433532714844 394.0992126464844 C 286.018798828125 391.1958923339844 277.84490966796875 388.2611083984375 269.517333984375 388.89788818359375 C 261.1899108886719 389.5346984863281 252.579345703125 394.8497619628906 250.88992309570312 403.0274353027344 C 248.82705688476562 413.12652587890625 258.6965637207031 422.7943115234375 268.9972839355469 423.5213623046875 C 279.2980041503906 424.248291015625 289.0097961425781 418.37158203125 296.330810546875 411.1072082519531 C 298.8223876953125 409.08551025390625 300.46551513671875 406.20343017578125 300.9359130859375 403.029541015625 C 301.06549072265625 399.8755798339844 297.9228210449219 396.5218505859375 294.9609375 397.6578369140625 L 293.8433532714844 394.0992126464844" stroke-width="0.6000000238418579" fill="rgb(159, 159, 159)" opacity="1.0"/>
    <path d="M 324.0104675292969 414.5823974609375 C 319.02239990234375 419.5682373046875 315.6339111328125 426.3717041015625 315.66790771484375 433.420654296875 C 315.7018737792969 440.469482421875 319.5078125 447.61474609375 325.8375549316406 450.7838134765625 C 330.3155822753906 453.0186767578125 335.66552734375 453.13531494140625 340.48736572265625 451.7784423828125 C 345.3092346191406 450.4215087890625 349.6512756347656 447.69561767578125 353.5010986328125 444.48956298828125 C 355.1756591796875 443.0933837890625 356.8310852050781 441.50762939453125 357.4962158203125 439.437255859375 C 358.2598876953125 437.06396484375 357.5850830078125 434.49322509765625 356.79461669921875 432.1207275390625 C 354.5628967285156 425.422607421875 351.2196350097656 418.81146240234375 345.631591796875 414.4951171875 C 340.04351806640625 410.17877197265625 331.8085632324219 408.7311706542969 325.85003662109375 412.48699951171875 L 324.0104675292969 414.5823974609375" stroke-width="0.6000000238418579" fill="rgb(159, 159, 159)" opacity="1.0"/>
    <path d="M 257.2522888183594 415.2777099609375 C 250.42364501953125 415.3372802734375 242.83587646484375 415.699462890625 238.01055908203125 420.51275634765625 C 233.31134033203125 425.1871337890625 232.776611328125 432.500732421875 232.64764404296875 439.130615234375 C 232.59918212890625 441.82403564453125 232.59146118164062 444.6424560546875 233.82208251953125 447.037109375 C 235.90106201171875 451.08831787109375 240.82550048828125 452.72637939453125 245.33908081054688 453.27557373046875 C 249.52825927734375 453.7869873046875 253.7691650390625 453.694091796875 257.9319763183594 453.0 C 264.691650390625 451.8753662109375 271.88690185546875 448.419677734375 273.9787292480469 441.896728515625 C 275.1131591796875 438.376953125 274.53668212890625 434.46649169921875 273.1120300292969 431.047607421875 C 271.6873779296875 427.62872314453125 269.45648193359375 424.61279296875 267.2116394042969 421.666748046875 C 264.966796875 418.72076416015625 262.6979064941406 415.87408447265625 259.5191345214844 414.15142822265625 L 257.2522888183594 415.2777099609375" stroke-width="0.6000000238418579" fill="rgb(218, 166, 20)" opacity="1.0"/>
    <path d="M 221.88958740234375 410.97021484375 C 212.00482177734375 403.36993408203125 197.8304443359375 405.22186279296875 190.23016357421875 415.1065673828125 C 189.579345703125 415.9530029296875 188.98941040039062 416.8446044921875 188.46475219726562 417.7745361328125 C 186.47186279296875 421.308349609375 185.45736694335938 425.579345703125 186.57968139648438 429.47607421875 C 187.52783203125 432.7691650390625 189.87200927734375 435.467041015625 192.384521484375 437.7940673828125 C 199.11856079101562 444.0135498046875 207.39508056640625 448.31658935546875 216.35433959960938 450.256103515625 C 218.723388671875 450.7647705078125 221.2049560546875 451.101806640625 223.5592041015625 450.5069580078125 C 227.51211547851562 449.5106201171875 230.42547607421875 446.0108642578125 231.93435668945312 442.220703125 C 234.17843627929688 436.5953369140625 233.84820556640625 430.121826171875 231.6385498046875 424.4813232421875 C 229.428955078125 418.84088134765625 225.457763671875 413.9967041015625 220.74136352539062 410.1958312988281 L 221.88958740234375 410.97021484375" stroke-width="0.6000000238418579" fill="rgb(143, 165, 67)" opacity="1.0"/>
    <path d="M 256.2450256347656 362.14892578125 C 262.90618896484375 373.9563903808594 283.388427734375 372.68902587890625 289.412109375 360.6414489746094 C 295.4357604980469 348.5938415527344 285.14495849609375 332.0079040527344 271.6179504394531 331.0491943359375 C 258.0909729003906 330.09051513671875 245.8265380859375 343.639404296875 247.14321899414062 357.1488952636719 L 256.2450256347656 362.14892578125" stroke-width="0.6000000238418579" fill="rgb(233, 92, 21)" opacity="1.0"/>
    <path d="M 326.018310546875 347.2490234375 C 321.2021789550781 352.0797119140625 315.9502258300781 358.349609375 317.8970031738281 364.9114990234375 C 318.7733459472656 367.49273681640625 320.4290771484375 369.7384033203125 322.6358337402344 371.3387145996094 C 327.98931884765625 375.4451904296875 335.0010986328125 376.7021484375 341.4476623535156 374.71099853515625 C 346.91180419921875 373.0079040527344 351.31170654296875 369.0997314453125 355.475830078125 365.2244567871094 C 357.81146240234375 363.04376220703125 360.2235107421875 360.6524658203125 360.9609069824219 357.56134033203125 C 361.9100036621094 353.43304443359375 359.6007080078125 349.2754821777344 357.0107116699219 345.92523193359375 C 353.2263488769531 341.0173645019531 348.6725769042969 336.7543640136719 343.5260009765625 333.3016357421875 C 341.7454833984375 332.112060546875 339.8023681640625 330.986572265625 337.6656494140625 330.8580627441406 C 335.6728210449219 330.8402404785156 333.7178039550781 331.4026184082031 332.0390625 332.4766845703125 C 326.820068359375 335.53662109375 323.20611572265625 340.73199462890625 322.1524963378906 346.6894226074219 L 326.018310546875 347.2490234375" stroke-width="0.6000000238418579" fill="rgb(70, 150, 179)" opacity="1.0"/>
    <path d="M 296.0702209472656 414.596435546875 C 288.8429260253906 415.688232421875 280.87786865234375 417.20196533203125 276.4400939941406 423.0040283203125 C 271.67669677734375 429.2396240234375 272.9010009765625 438.4351806640625 276.98504638671875 445.13525390625 C 278.55859375 447.71923828125 280.607421875 450.1490478515625 283.3636474609375 451.3956298828125 C 285.6290283203125 452.4212646484375 288.1824645996094 452.5699462890625 290.6686096191406 452.565673828125 C 298.50872802734375 452.56170654296875 306.9092712402344 450.9530029296875 312.3992614746094 445.3582763671875 C 317.928466796875 439.71575927734375 319.2855224609375 430.3861083984375 315.5492858886719 423.4176025390625 C 311.8130187988281 416.4490966796875 303.3408203125 412.34033203125 295.5617370605469 413.7852783203125 L 296.0702209472656 414.596435546875" stroke-width="0.6000000238418579" fill="rgb(140, 28, 33)" opacity="1.0"/>
    <path d="M 324.8772888183594 375.9490966796875 C 317.7889404296875 379.8737487792969 310.45635986328125 384.03570556640625 305.656494140625 390.5705261230469 C 300.8567199707031 397.1052551269531 299.3226013183594 406.80841064453125 304.2752685546875 413.226318359375 C 310.4065246582031 421.1348876953125 323.7696838378906 419.9842529296875 330.8221435546875 412.859375 C 337.8746337890625 405.7344665527344 339.69189453125 394.8651123046875 338.9747619628906 384.8782653808594 C 339.0625305175781 381.7645263671875 337.9798889160156 378.73114013671875 335.9404602050781 376.3766784667969 C 333.7000732421875 374.2857666015625 329.2422180175781 374.47796630859375 328.2047424316406 377.377685546875 L 324.8772888183594 375.9490966796875" stroke-width="0.6000000238418579" fill="rgb(159, 159, 159)" opacity="1.0"/>
    <path d="M 370.759521484375 410.50958251953125 C 364.5765380859375 414.0394287109375 359.4682922363281 419.7645263671875 357.6278381347656 426.6383056640625 C 355.78741455078125 433.5120849609375 357.5947570800781 441.482177734375 362.9168395996094 446.2508544921875 C 366.6838684082031 449.61761474609375 371.8630676269531 451.1531982421875 376.9195861816406 451.11334228515625 C 381.97613525390625 451.073486328125 386.92926025390625 449.5728759765625 391.5306701660156 447.47381591796875 C 393.5325622558594 446.5592041015625 395.56622314453125 445.45489501953125 396.7642822265625 443.6153564453125 C 398.1387939453125 441.507080078125 398.1649169921875 438.8240966796875 398.02569580078125 436.303466796875 C 397.6325378417969 429.187255859375 396.1338195800781 421.86016845703125 391.8390197753906 416.1712646484375 C 387.5441589355469 410.4824523925781 379.90911865234375 406.8838806152344 373.10797119140625 408.9578857421875 L 370.759521484375 410.50958251953125" stroke-width="0.6000000238418579" fill="rgb(159, 159, 159)" opacity="1.0"/>
    <path d="M 246.740966796875 366.9228515625 C 247.43301391601562 359.5002746582031 247.88067626953125 351.2197265625 243.1881103515625 345.4459228515625 C 238.63250732421875 339.824462890625 230.74905395507812 338.4331970214844 223.563232421875 337.558349609375 C 220.6435546875 337.2072448730469 217.58355712890625 336.8865051269531 214.84658813476562 337.95758056640625 C 210.21649169921875 339.76641845703125 207.89178466796875 344.9328308105469 206.79510498046875 349.7738037109375 C 205.77548217773438 354.2666320800781 205.40631103515625 358.8825988769531 205.69879150390625 363.4803771972656 C 206.1710205078125 370.94610595703125 209.12646484375 379.1431884765625 215.97860717773438 382.1378479003906 C 219.67547607421875 383.75994873046875 223.98614501953125 383.5672607421875 227.85696411132812 382.39898681640625 C 231.727783203125 381.2306823730469 235.25042724609375 379.1421813964844 238.6986083984375 377.0307312011719 C 242.14678955078125 374.9193115234375 245.48974609375 372.770751953125 247.712890625 369.5094909667969 L 246.740966796875 366.9228515625" stroke-width="0.6000000238418579" fill="rgb(218, 166, 20)" opacity="1.0"/>
    <path d="M 249.59078979492188 393.4434814453125 C 246.521240234375 382.0887145996094 234.8280029296875 375.3722229003906 223.47320556640625 378.4418029785156 C 222.50091552734375 378.70465087890625 221.5484619140625 379.0361328125 220.623046875 379.43377685546875 C 217.10699462890625 380.9453430175781 213.9034423828125 383.5694580078125 212.51705932617188 387.1347351074219 C 211.34518432617188 390.1475524902344 211.56106567382812 393.51214599609375 212.11532592773438 396.6947937011719 C 213.6107177734375 405.2118835449219 217.35931396484375 413.1732177734375 222.97174072265625 419.7518310546875 C 224.45819091796875 421.48828125 226.12725830078125 423.1602783203125 228.23367309570312 424.060302734375 C 231.76904296875 425.5733642578125 235.9561767578125 424.61376953125 239.25564575195312 422.63311767578125 C 244.15621948242188 419.696044921875 247.61044311523438 414.6505126953125 249.17828369140625 409.1551818847656 C 250.74615478515625 403.65985107421875 250.53701782226562 397.75457763671875 249.17221069335938 392.20587158203125 L 249.59078979492188 393.4434814453125" stroke-width="0.6000000238418579" fill="rgb(143, 165, 67)" opacity="1.0"/>
    <path d="M 193.26409912109375 367.7937927246094 C 178.89910888671875 363.2908935546875 163.27264404296875 379.87725830078125 167.546142578125 394.2110900878906 C 171.8197021484375 408.54486083984375 192.75457763671875 414.16064453125 204.4388427734375 404.6609802246094 C 216.12310791015625 395.16131591796875 215.763671875 374.87054443359375 204.43438720703125 364.92901611328125 L 193.26409912109375 367.7937927246094" stroke-width="0.6000000238418579" fill="rgb(233, 92, 21)" opacity="1.0"/>
    <path d="M 247.65988159179688 373.7005615234375 C 243.4296875 378.7806091308594 238.90350341796875 385.2875671386719 241.35113525390625 391.45269775390625 C 242.420654296875 393.8682556152344 244.21337890625 395.8924255371094 246.4820556640625 397.24591064453125 C 252.00521850585938 400.745849609375 258.8821716308594 401.35162353515625 264.93212890625 398.8711242675781 C 270.05877685546875 396.7538757324219 273.9671325683594 392.600341796875 277.6507568359375 388.4989929199219 C 279.7162780761719 386.1917724609375 281.8373107910156 383.67462158203125 282.28125 380.6270446777344 C 282.8396911621094 376.56005859375 280.25048828125 372.7471008300781 277.4602355957031 369.7376708984375 C 273.3822326660156 365.3282775878906 268.617431640625 361.6080017089844 263.3505859375 358.7211608886719 C 261.5289001464844 357.72723388671875 259.55584716796875 356.8092041015625 257.4822692871094 356.8702697753906 C 255.55715942382812 357.0257263183594 253.71884155273438 357.7379455566406 252.1915283203125 358.92010498046875 C 247.41903686523438 362.3258361816406 244.38079833984375 367.6537170410156 243.87997436523438 373.495361328125 L 247.65988159179688 373.7005615234375" stroke-width="0.6000000238418579" fill="rgb(70, 150, 179)" opacity="1.0"/>
    <path d="M 324.4100036621094 351.19189453125 C 323.7054748535156 344.2571716308594 322.6333923339844 336.6001281738281 317.3128662109375 332.10382080078125 C 311.59454345703125 327.2771911621094 302.7788391113281 328.0165100097656 296.2074279785156 331.5956115722656 C 293.67315673828125 332.9744873046875 291.26361083984375 334.813232421875 289.9482727050781 337.38067626953125 C 288.8662109375 339.4908752441406 288.6060791015625 341.9161071777344 288.4947204589844 344.2843933105469 C 288.1346130371094 351.7523498535156 289.2769775390625 359.8285827636719 294.3511962890625 365.3175354003906 C 299.46905517578125 370.8460388183594 308.2925720214844 372.57171630859375 315.1035461425781 369.33636474609375 C 321.9145202636719 366.10101318359375 326.2214660644531 358.221923828125 325.2061767578125 350.7452087402344 L 324.4100036621094 351.19189453125" stroke-width="0.6000000238418579" fill="rgb(140, 28, 33)" opacity="1.0"/>
    <path d="M 372.0540771484375 390.52239990234375 C 364.509521484375 389.0850830078125 356.6431579589844 387.67266845703125 349.1838684082031 389.52471923828125 C 341.7247009277344 391.3768005371094 334.7243957519531 397.5174560546875 334.4426574707031 405.1966552734375 C 334.1160583496094 414.6766357421875 344.5513000488281 421.9393310546875 354.0097961425781 421.02294921875 C 363.46832275390625 420.1064453125 371.3819274902344 413.28759765625 376.91375732421875 405.5754699707031 C 378.8653259277344 403.35968017578125 379.9153747558594 400.492919921875 379.8565979003906 397.5408630371094 C 379.4915771484375 394.65899658203125 376.12664794921875 392.0965576171875 373.61273193359375 393.58062744140625 L 372.0540771484375 390.52239990234375" stroke-width="0.6000000238418579" fill="rgb(159, 159, 159)" opacity="1.0"/>
    <path d="M 171.7064208984375 407.7938232421875 C 164.38296508789062 408.94891357421875 157.29571533203125 412.6383056640625 152.966552734375 418.65234375 C 148.6374053955078 424.66632080078125 147.4556121826172 433.09429931640625 150.87786865234375 439.70208740234375 C 153.30335998535156 444.370849609375 157.77984619140625 447.777587890625 162.71832275390625 449.60516357421875 C 167.65679931640625 451.43267822265625 173.03375244140625 451.79962158203125 178.28909301757812 451.4539794921875 C 180.57598876953125 451.30224609375 182.9638671875 450.9775390625 184.80938720703125 449.6285400390625 C 186.926025390625 448.0828857421875 187.941650390625 445.48004150390625 188.7364501953125 442.97418212890625 C 190.98016357421875 435.899658203125 192.22515869140625 428.2117919921875 190.14279174804688 421.087158203125 C 188.0604248046875 413.96246337890625 181.95401000976562 407.6403503417969 174.56594848632812 407.149658203125 L 171.7064208984375 407.7938232421875" stroke-width="0.6000000238418579" fill="rgb(159, 159, 159)" opacity="1.0"/>
    <path d="M 374.12225341796875 362.2364196777344 C 368.0891418457031 359.2383728027344 361.253173828125 356.16729736328125 354.8586120605469 358.2455139160156 C 348.63702392578125 360.2578430175781 344.8995361328125 366.4520568847656 341.8243713378906 372.22607421875 C 340.5785827636719 374.57354736328125 339.312744140625 377.0491943359375 339.3254699707031 379.7052307128906 C 339.3443603515625 384.19744873046875 342.9441223144531 387.8381042480469 346.6689453125 390.3374938964844 C 350.12530517578125 392.65869140625 353.8970947265625 394.4715576171875 357.8687744140625 395.7206115722656 C 364.3169860839844 397.75103759765625 372.18963623046875 397.92572021484375 376.9435119628906 393.12261962890625 C 379.5137634277344 390.5333251953125 380.7535705566406 386.836181640625 381.0277404785156 383.1925354003906 C 381.3018798828125 379.5488586425781 380.6868896484375 375.8994445800781 380.0283508300781 372.3052978515625 C 379.3698425292969 368.711181640625 378.6457824707031 365.1936950683594 376.6192932128906 362.2583923339844 L 374.12225341796875 362.2364196777344" stroke-width="0.6000000238418579" fill="rgb(218, 166, 20)" opacity="1.0"/>
    <path d="M 377.35662841796875 384.4320373535156 C 372.53619384765625 395.1596374511719 377.3249206542969 407.7638244628906 388.05255126953125 412.584228515625 C 388.97113037109375 412.9970703125 389.9178771972656 413.3441162109375 390.8856201171875 413.6229248046875 C 394.5629577636719 414.681640625 398.70355224609375 414.6817626953125 402.0349426269531 412.80255126953125 C 404.8503723144531 411.2147521972656 406.8152770996094 408.47552490234375 408.4031677246094 405.6626281738281 C 412.6431884765625 398.1273193359375 414.7882080078125 389.59417724609375 414.615478515625 380.9495849609375 C 414.5660400390625 378.6646728515625 414.33447265625 376.3138732910156 413.27545166015625 374.2830505371094 C 411.4996337890625 370.87261962890625 407.6529541015625 368.9617919921875 403.8459167480469 368.40313720703125 C 398.1944274902344 367.56976318359375 392.32568359375 369.28369140625 387.6310119628906 372.540771484375 C 382.93634033203125 375.7978210449219 379.35638427734375 380.4979248046875 376.8962097167969 385.6545104980469 L 377.35662841796875 384.4320373535156" stroke-width="0.6000000238418579" fill="rgb(143, 165, 67)" opacity="1.0"/>
    <path d="M 366.2701721191406 357.68865966796875 C 369.19647216796875 371.35614013671875 389.7431640625 376.40435791015625 399.3742370605469 366.3994140625 C 409.0052490234375 356.39447021484375 403.9756774902344 336.90875244140625 390.9580078125 331.80755615234375 C 377.94036865234375 326.7063903808594 361.7061462402344 336.2706298828125 358.8496398925781 349.9704284667969 L 366.2701721191406 357.68865966796875" stroke-width="0.6000000238418579" fill="rgb(233, 92, 21)" opacity="1.0"/>
    <path d="M 405.36029052734375 349.7642517089844 C 403.40966796875 356.3594665527344 401.76361083984375 364.43994140625 406.6401672363281 369.322998046875 C 408.65643310546875 371.19073486328125 411.2026062011719 372.38677978515625 413.927490234375 372.74609375 C 420.64544677734375 373.8165588378906 427.465576171875 371.564453125 432.22509765625 366.70391845703125 C 436.2518310546875 362.5705261230469 438.2763671875 356.9930419921875 440.107666015625 351.55792236328125 C 441.1314697265625 348.5031433105469 442.121826171875 345.2249450683594 441.29150390625 342.13031005859375 C 440.15087890625 338.0144958496094 436.1072998046875 335.43719482421875 432.20245361328125 333.7103576660156 C 426.4908447265625 331.176025390625 420.40673828125 329.5828552246094 414.18603515625 328.99267578125 C 412.03631591796875 328.7928771972656 409.773193359375 328.7279357910156 407.81707763671875 329.639892578125 C 406.04168701171875 330.5809020996094 404.5783996582031 332.0181579589844 403.605712890625 333.77642822265625 C 400.4477233886719 338.9951171875 399.7380065917969 345.33648681640625 401.6642150878906 351.12420654296875 L 405.36029052734375 349.7642517089844" stroke-width="0.6000000238418579" fill="rgb(70, 150, 179)" opacity="1.0"/>
    <path d="M 395.623291015625 427.90924072265625 C 396.344482421875 435.1361083984375 397.4472961425781 443.11627197265625 402.9825744628906 447.81103515625 C 408.9317321777344 452.8507080078125 418.1185302734375 452.0968017578125 424.97222900390625 448.3797607421875 C 427.6153564453125 446.94781494140625 430.12939453125 445.03643798828125 431.504638671875 442.36376953125 C 432.635986328125 440.1671142578125 432.91156005859375 437.640625 433.031982421875 435.1732177734375 C 433.42108154296875 427.3927001953125 432.245849609375 418.9757080078125 426.968994140625 413.2470703125 C 421.64678955078125 407.4772033691406 412.4564208984375 405.6627502441406 405.3537902832031 409.0211181640625 C 398.25115966796875 412.3795166015625 393.7489318847656 420.5810546875 394.79290771484375 428.3731689453125 L 395.623291015625 427.90924072265625" stroke-width="0.6000000238418579" fill="rgb(140, 28, 33)" opacity="1.0"/>
    <path d="M 416.044189453125 374.9220275878906 C 413.81640625 382.8077087402344 411.5852355957031 391.03778076171875 412.8616943359375 399.1380920410156 C 414.1380615234375 407.2382507324219 420.015380859375 415.24859619140625 428.15142822265625 416.2606201171875 C 438.19732666015625 417.4874267578125 446.8851318359375 407.0697326660156 446.7886962890625 396.9313049316406 C 446.6922607421875 386.7928771972656 440.1788330078125 377.7488098144531 432.49493408203125 371.1534729003906 C 430.3209228515625 368.87353515625 427.3712158203125 367.491455078125 424.22802734375 367.2799987792969 C 421.131103515625 367.40057373046875 418.09521484375 370.7393798828125 419.43939208984375 373.5491027832031 L 416.044189453125 374.9220275878906" stroke-width="0.6000000238418579" fill="rgb(159, 159, 159)" opacity="1.0"/>
    <path d="M 435.29931640625 369.8805236816406 C 437.54010009765625 376.8341369628906 442.212158203125 383.1715087890625 448.72686767578125 386.4694519042969 C 455.2415771484375 389.76739501953125 463.626708984375 389.6333312988281 469.53802490234375 385.2944641113281 C 473.7135009765625 382.2215270996094 476.34783935546875 377.34423828125 477.374267578125 372.25787353515625 C 478.4007568359375 367.1715087890625 477.93841552734375 361.88092041015625 476.8009033203125 356.81732177734375 C 476.30462646484375 354.6140441894531 475.62451171875 352.3388671875 474.0299072265625 350.7477722167969 C 472.20257568359375 348.9227600097656 469.5137939453125 348.3307189941406 466.953125 347.93890380859375 C 459.7237548828125 346.8328552246094 452.049560546875 346.7926025390625 445.4307861328125 349.90582275390625 C 438.81207275390625 353.01904296875 433.5880126953125 359.927490234375 434.23638916015625 367.1948547363281 L 435.29931640625 369.8805236816406" stroke-width="0.6000000238418579" fill="rgb(159, 159, 159)" opacity="1.0"/>
    <path d="M 437.19598388671875 410.86419677734375 C 433.5450439453125 416.977294921875 429.7515869140625 423.930419921875 431.42041015625 430.838134765625 C 433.0338134765625 437.5582275390625 439.25634765625 442.0015869140625 445.09014892578125 445.712646484375 C 447.4622802734375 447.216796875 449.9678955078125 448.75244140625 452.7677001953125 448.95556640625 C 457.5029296875 449.3017578125 461.63275146484375 445.80517578125 464.57012939453125 442.0838623046875 C 467.2978515625 438.630859375 469.51556396484375 434.8040771484375 471.155517578125 430.720703125 C 473.8206787109375 424.09130859375 474.64642333984375 415.8096923828125 469.97259521484375 410.4087219238281 C 467.45361328125 407.4892578125 463.65875244140625 405.8814697265625 459.841552734375 405.2955627441406 C 456.02435302734375 404.7096862792969 452.12860107421875 405.060302734375 448.28759765625 405.4612731933594 C 444.446533203125 405.86224365234375 440.680908203125 406.3385009765625 437.42266845703125 408.2347106933594 L 437.19598388671875 410.86419677734375" stroke-width="0.6000000238418579" fill="rgb(218, 166, 20)" opacity="1.0"/>
    <path d="M 137.61572265625 208.756591796875 C 133.71817016601562 221.19656372070312 140.64320373535156 234.4407958984375 153.08319091796875 238.33831787109375 C 154.1484375 238.67205810546875 155.2360076904297 238.9298095703125 156.33773803710938 239.10968017578125 C 160.524169921875 239.792236328125 165.08148193359375 239.24896240234375 168.50152587890625 236.74334716796875 C 171.39190673828125 234.626220703125 173.19503784179688 231.3533935546875 174.57354736328125 228.0489501953125 C 178.25125122070312 219.19876098632812 179.4921875 209.5252685546875 178.16744995117188 200.03329467773438 C 177.81307983398438 197.52490234375 177.24969482421875 194.9678955078125 175.81756591796875 192.87167358398438 C 173.41534423828125 189.35107421875 168.93072509765625 187.75283813476562 164.66720581054688 187.63763427734375 C 158.3375244140625 187.462158203125 152.10308837890625 190.11886596679688 147.3634033203125 194.3199462890625 C 142.6237335205078 198.52099609375 139.3003692626953 204.1640625 137.26942443847656 210.16253662109375 L 137.61572265625 208.756591796875" stroke-width="0.6000000238418579" fill="rgb(143, 165, 67)" opacity="1.0"/>
    <path d="M 170.01690673828125 268.34991455078125 C 179.693359375 280.1573181152344 202.16839599609375 274.7836608886719 206.51654052734375 260.2525634765625 C 210.8646240234375 245.72149658203125 196.23617553710938 229.3165283203125 181.04519653320312 230.87347412109375 C 165.85418701171875 232.43048095703125 154.87416076660156 249.83587646484375 158.9517822265625 264.5666809082031 L 170.01690673828125 268.34991455078125" stroke-width="0.6000000238418579" fill="rgb(233, 92, 21)" opacity="1.0"/>
    <path d="M 140.39283752441406 304.24200439453125 C 133.12684631347656 303.74676513671875 124.39607238769531 303.9088134765625 120.47384643554688 310.07470703125 C 119.00846862792969 312.5892028808594 118.35943603515625 315.4964904785156 118.61639404296875 318.3954772949219 C 119.05911254882812 325.5854187011719 122.95932006835938 332.11474609375 129.08016967773438 335.9129638671875 C 134.2805938720703 339.12158203125 140.51177978515625 339.9278869628906 146.55126953125 340.5672607421875 C 149.94447326660156 340.9209289550781 153.5608673095703 341.1886291503906 156.56771850585938 339.61688232421875 C 160.55844116210938 337.4889831542969 162.28973388671875 332.71563720703125 163.17401123046875 328.28179931640625 C 164.47625732421875 321.7944641113281 164.71990966796875 315.13909912109375 163.8955078125 308.5738830566406 C 163.60626220703125 306.3060607910156 163.15155029296875 303.9521179199219 161.75799560546875 302.1407775878906 C 160.3760986328125 300.5228576660156 158.55325317382812 299.3419494628906 156.51177978515625 298.7420959472656 C 150.39004516601562 296.681640625 143.6725616455078 297.4103698730469 138.13507080078125 300.73565673828125 L 140.39283752441406 304.24200439453125" stroke-width="0.6000000238418579" fill="rgb(70, 150, 179)" opacity="1.0"/>
    <path d="M 123.08151245117188 302.83770751953125 C 122.42900085449219 295.03704833984375 121.37820434570312 286.41802978515625 115.49398803710938 281.2630920410156 C 109.169677734375 275.7293395996094 99.25630187988281 276.38336181640625 91.80616760253906 280.2707824707031 C 88.93305969238281 281.7684020996094 86.19076538085938 283.78485107421875 84.66256713867188 286.64141845703125 C 83.40542602539062 288.98919677734375 83.06488037109375 291.7071533203125 82.89253234863281 294.3641052246094 C 82.33897399902344 302.7422180175781 83.46029663085938 311.83331298828125 89.04814147949219 318.097900390625 C 94.6842041015625 324.40777587890625 104.55709838867188 326.521728515625 112.26936340332031 323.0250549316406 C 119.98161315917969 319.5283508300781 124.97503662109375 310.7674560546875 123.98442077636719 302.35205078125 L 123.08151245117188 302.83770751953125" stroke-width="0.6000000238418579" fill="rgb(140, 28, 33)" opacity="1.0"/>
    <path d="M 145.50726318359375 251.91845703125 C 137.63510131835938 256.09051513671875 129.48968505859375 260.5185546875 124.08094787597656 267.6063537597656 C 118.67231750488281 274.694091796875 116.79019165039062 285.3310241699219 122.10598754882812 292.4867858886719 C 128.68748474121094 301.30517578125 143.4023895263672 300.30938720703125 151.29957580566406 292.6181945800781 C 159.19677734375 284.927001953125 161.4136962890625 273.01361083984375 160.82647705078125 262.0194091796875 C 160.98565673828125 258.5978698730469 159.85650634765625 255.2410888671875 157.6617431640625 252.6114501953125 C 155.24072265625 250.26751708984375 150.33580017089844 250.3890380859375 149.13674926757812 253.55612182617188 L 145.50726318359375 251.91845703125" stroke-width="0.6000000238418579" fill="rgb(159, 159, 159)" opacity="1.0"/>
    <path d="M 160.0838623046875 290.29986572265625 C 159.968994140625 297.8888244628906 162.45172119140625 305.6824645996094 167.76129150390625 311.100341796875 C 173.0709228515625 316.51824951171875 181.36553955078125 319.183349609375 188.62887573242188 316.8862609863281 C 193.7620849609375 315.2557067871094 197.98089599609375 311.3357849121094 200.68740844726562 306.673828125 C 203.39398193359375 302.0118713378906 204.703857421875 296.65234375 205.2738037109375 291.29095458984375 C 205.52044677734375 288.9576416015625 205.61029052734375 286.4923095703125 204.57208251953125 284.39495849609375 C 203.38296508789062 281.98980712890625 200.93499755859375 280.5104064941406 198.54632568359375 279.270751953125 C 191.802490234375 275.77105712890625 184.26544189453125 273.17156982421875 176.7149658203125 274.0267639160156 C 169.1644287109375 274.8819885253906 161.72015380859375 279.9364318847656 159.93389892578125 287.30291748046875 L 160.0838623046875 290.29986572265625" stroke-width="0.6000000238418579" fill="rgb(159, 159, 159)" opacity="1.0"/>
    <path d="M 125.88916015625 351.5395202636719 C 125.55551147460938 343.9934997558594 124.85772705078125 335.62017822265625 119.347900390625 330.4750061035156 C 113.99661254882812 325.4637451171875 105.89114379882812 325.159423828125 98.55743408203125 325.27679443359375 C 95.57827758789062 325.328857421875 92.46246337890625 325.4308166503906 89.86372375488281 326.885009765625 C 85.46699523925781 329.34197998046875 83.84938049316406 334.8496398925781 83.41926574707031 339.8604736328125 C 83.01823425292969 344.5112609863281 83.287109375 349.19549560546875 84.21763610839844 353.7698669433594 C 85.72584533691406 361.1978759765625 89.82783508300781 369.0160217285156 97.12026977539062 371.07257080078125 C 101.05558776855469 372.1885681152344 105.35556030273438 371.39801025390625 109.07893371582031 369.68914794921875 C 112.80229187011719 367.98028564453125 116.04866027832031 365.3960266113281 119.2171630859375 362.799072265625 C 122.38565063476562 360.2021179199219 125.44338989257812 357.5824890136719 127.22300720214844 354.0011291503906 L 125.88916015625 351.5395202636719" stroke-width="0.6000000238418579" fill="rgb(218, 166, 20)" opacity="1.0"/>
    <path d="M 152.85980224609375 340.8426818847656 C 140.12222290039062 339.1643371582031 128.435791015625 348.1296081542969 126.7574462890625 360.8671875 C 126.61370849609375 361.9579162597656 126.54756164550781 363.05743408203125 126.5594482421875 364.15753173828125 C 126.60537719726562 368.337646484375 127.90426635742188 372.6703186035156 130.9158477783203 375.5666809082031 C 133.46060180664062 378.0145263671875 136.94337463378906 379.211181640625 140.3849334716797 379.9902038574219 C 149.60000610351562 382.0627746582031 159.20196533203125 381.6301574707031 168.193359375 378.7372741699219 C 170.5687255859375 377.9685974121094 172.9559326171875 376.9888000488281 174.74871826171875 375.2435302734375 C 177.76019287109375 372.3153076171875 178.55279541015625 367.69073486328125 177.94296264648438 363.5318298339844 C 177.04190063476562 357.3567199707031 173.4072265625 351.75347900390625 168.526123046875 347.8628845214844 C 163.64508056640625 343.9723205566406 157.60379028320312 341.7008972167969 151.4361572265625 340.74444580078125 L 152.85980224609375 340.8426818847656" stroke-width="0.6000000238418579" fill="rgb(143, 165, 67)" opacity="1.0"/>
    <path d="M 137.05258178710938 380.2033996582031 C 132.36264038085938 366.53448486328125 110.64834594726562 363.8870849609375 101.99610900878906 375.3454284667969 C 93.34393310546875 386.80377197265625 100.91067504882812 406.1857604980469 114.90281677246094 409.81634521484375 C 128.89495849609375 413.4468994140625 144.3798065185547 401.6263427734375 145.62203979492188 387.21087646484375 L 137.05258178710938 380.2033996582031" stroke-width="0.6000000238418579" fill="rgb(233, 92, 21)" opacity="1.0"/>
    <path d="M 172.45626831054688 346.4063415527344 C 174.21893310546875 353.5780029296875 177.06829833984375 361.9619140625 184.2342529296875 363.8490295410156 C 187.115234375 364.489013671875 190.12384033203125 364.21929931640625 192.84503173828125 363.0769348144531 C 199.6539306640625 360.431640625 204.75830078125 354.65020751953125 206.53948974609375 347.5660095214844 C 208.0350341796875 341.5527648925781 206.89199829101562 335.2847900390625 205.64688110351562 329.2534484863281 C 204.94195556640625 325.8665466308594 204.08514404296875 322.2905578613281 201.639404296875 319.8707275390625 C 198.35302734375 316.6720275878906 193.2080078125 316.4718322753906 188.65216064453125 316.98516845703125 C 181.9837646484375 317.72808837890625 175.47958374023438 319.54547119140625 169.39190673828125 322.36676025390625 C 167.29037475585938 323.34564208984375 165.15673828125 324.51092529296875 163.8367919921875 326.415771484375 C 162.70010375976562 328.24969482421875 162.12158203125 330.3747863769531 162.17181396484375 332.5318603515625 C 162.06951904296875 339.0809326171875 164.8453369140625 345.3452453613281 169.7655029296875 349.6687927246094 L 172.45626831054688 346.4063415527344" stroke-width="0.6000000238418579" fill="rgb(70, 150, 179)" opacity="1.0"/>
  </g>
</svg>
