<?xml version="1.0" ?>
<svg xmlns="http://www.w3.org/2000/svg" version="1.1" width="600" height="600">
  <defs/>
  <g>
    <path d="M 355.131591796875 342.533447265625 C 358.6291198730469 345.7183532714844 365.2780456542969 343.06036376953125 365.9577941894531 338.40985107421875 C 366.63751220703125 333.7593688964844 361.4150390625 329.3875427246094 356.8277282714844 330.5478820800781 C 352.2403869628906 331.708251953125 349.6566467285156 337.53814697265625 351.569091796875 341.8710632324219 L 355.131591796875 342.533447265625" stroke-width="0.6000000238418579" fill="rgb(233, 92, 21)" opacity="1.0"/>
    <path d="M 124.98275756835938 211.59817504882812 C 129.4164276123047 212.084228515625 134.76295471191406 212.20501708984375 137.3183135986328 208.53082275390625 C 138.27835083007812 207.02908325195312 138.74871826171875 205.26644897460938 138.66452026367188 203.48605346679688 C 138.57470703125 199.0753173828125 136.3526153564453 194.981689453125 132.70286560058594 192.50335693359375 C 129.60150146484375 190.408935546875 125.80886840820312 189.75860595703125 122.12936401367188 189.21524047851562 C 120.06192016601562 188.91336059570312 117.85575866699219 188.658447265625 115.97624206542969 189.54449462890625 C 113.48068237304688 190.74603271484375 112.30105590820312 193.623291015625 111.64825439453125 196.31414794921875 C 110.68798828125 200.25100708007812 110.37126159667969 204.31735229492188 110.71035766601562 208.35543823242188 C 110.8302001953125 209.75042724609375 111.04916381835938 211.2022705078125 111.85627746582031 212.34576416015625 C 112.6611328125 213.37060546875 113.74679565429688 214.13912963867188 114.98088073730469 214.5576171875 C 118.6749267578125 215.97262573242188 122.80377197265625 215.6959228515625 126.2760009765625 213.80059814453125 L 124.98275756835938 211.59817504882812" stroke-width="0.6000000238418579" fill="rgb(70, 150, 179)" opacity="1.0"/>
    <path d="M 458.4388427734375 402.0922546386719 C 460.5843505859375 404.6001281738281 463.067626953125 407.28985595703125 466.3509521484375 407.6034240722656 C 469.878173828125 407.9381408691406 473.1085205078125 405.2716064453125 474.6993408203125 402.1058349609375 C 475.31317138671875 400.885498046875 475.75445556640625 399.5198974609375 475.5733642578125 398.16607666015625 C 475.4249267578125 397.0531005859375 474.8717041015625 396.0393371582031 474.27587890625 395.0879211425781 C 472.4007568359375 392.08526611328125 469.7769775390625 389.2514343261719 466.3216552734375 388.4851989746094 C 462.838623046875 387.7153625488281 458.9400634765625 389.4250183105469 457.163330078125 392.5216979980469 C 455.38653564453125 395.6183776855469 455.8370361328125 399.84600830078125 458.2496337890625 402.48089599609375 L 458.4388427734375 402.0922546386719" stroke-width="0.6000000238418579" fill="rgb(140, 28, 33)" opacity="1.0"/>
    <path d="M 90.33079528808594 208.37115478515625 C 94.83319091796875 208.48187255859375 99.5194091796875 208.54745483398438 103.65818786621094 206.76318359375 C 107.79690551757812 204.97894287109375 111.26034545898438 200.75726318359375 110.68963623046875 196.28738403320312 C 109.97282409667969 190.77133178710938 103.2413330078125 187.56634521484375 97.85647583007812 189.00030517578125 C 92.47161865234375 190.43429565429688 88.54452514648438 195.13558959960938 86.08085632324219 200.12615966796875 C 85.16342163085938 201.59463500976562 84.82981872558594 203.35357666015625 85.1458740234375 205.05596923828125 C 85.63241577148438 206.68844604492188 87.82411193847656 207.8494873046875 89.13679504394531 206.75067138671875 L 90.33079528808594 208.37115478515625" stroke-width="0.6000000238418579" fill="rgb(159, 159, 159)" opacity="1.0"/>
    <path d="M 383.7356872558594 316.9025573730469 C 388.53460693359375 316.2821350097656 393.2254638671875 314.00396728515625 396.1592102050781 310.1590881347656 C 399.09295654296875 306.3141784667969 400.0171813964844 300.837158203125 397.90460205078125 296.46392822265625 C 396.4070739746094 293.3739318847656 393.54852294921875 291.06988525390625 390.3598327636719 289.7878112792969 C 387.171142578125 288.5057067871094 383.6698303222656 288.1685485839844 380.2348937988281 288.2984619140625 C 378.7401123046875 288.35589599609375 377.1763610839844 288.5243225097656 375.9477844238281 289.3708801269531 C 374.5387878417969 290.3407897949219 373.8288269042969 292.0204772949219 373.2647399902344 293.640869140625 C 371.67230224609375 298.215576171875 370.72027587890625 303.2085876464844 371.94927978515625 307.8946533203125 C 373.1783142089844 312.5807189941406 377.0472412109375 316.8163757324219 381.8583984375 317.27081298828125 L 383.7356872558594 316.9025573730469" stroke-width="0.6000000238418579" fill="rgb(159, 159, 159)" opacity="1.0"/>
    <path d="M 101.54095458984375 419.09649658203125 C 104.07711791992188 416.1910400390625 106.77032470703125 412.85162353515625 106.54803466796875 409.0089111328125 C 106.33711242675781 405.2715759277344 103.4498291015625 402.30255126953125 100.69903564453125 399.76129150390625 C 99.58004760742188 398.7305908203125 98.39297485351562 397.670166015625 96.92036437988281 397.2915344238281 C 94.43009948730469 396.64971923828125 91.89141845703125 398.11444091796875 89.966552734375 399.8140869140625 C 88.1793212890625 401.3909912109375 86.62779235839844 403.2163391113281 85.35943603515625 405.2342529296875 C 83.29879760742188 408.51007080078125 82.05892944335938 412.8441162109375 84.02833557128906 416.1739501953125 C 85.08891296386719 417.97314453125 86.95614624023438 419.196533203125 88.93399047851562 419.87744140625 C 90.91183471679688 420.558349609375 93.02197265625 420.7476806640625 95.10780334472656 420.9049072265625 C 97.19363403320312 421.0621337890625 99.24655151367188 421.1719970703125 101.16619873046875 420.47601318359375 L 101.54095458984375 419.09649658203125" stroke-width="0.6000000238418579" fill="rgb(218, 166, 20)" opacity="1.0"/>
    <path d="M 97.97998046875 159.66229248046875 C 105.77175903320312 162.38848876953125 114.29826354980469 158.281982421875 117.02442932128906 150.4901885986328 C 117.25787353515625 149.82296752929688 117.44367980957031 149.14004516601562 117.58049011230469 148.446533203125 C 118.09979248046875 145.8112335205078 117.85101318359375 142.91563415527344 116.33659362792969 140.69888305664062 C 115.05697631835938 138.82545471191406 113.02325439453125 137.6160125732422 110.960693359375 136.67465209960938 C 105.43624877929688 134.16249084472656 99.33990478515625 133.17535400390625 93.30496215820312 133.81578063964844 C 91.71003723144531 133.9877471923828 90.08000183105469 134.29098510742188 88.72344970703125 135.15362548828125 C 86.44523620605469 136.6005096435547 85.34017944335938 139.40542602539062 85.17832946777344 142.10134887695312 C 84.93527221679688 146.1036376953125 86.48661804199219 150.104736328125 89.04656982421875 153.19203186035156 C 91.60650634765625 156.279296875 95.10858154296875 158.50033569335938 98.862548828125 159.91079711914062 L 97.97998046875 159.66229248046875" stroke-width="0.6000000238418579" fill="rgb(143, 165, 67)" opacity="1.0"/>
    <path d="M 461.3055419921875 343.2667236328125 C 464.5040283203125 349.7247314453125 475.41265869140625 349.6372985839844 478.9544677734375 343.414306640625 C 482.4962158203125 337.1912841796875 477.507568359375 328.093017578125 470.3544921875 327.19757080078125 C 463.20147705078125 326.3021240234375 456.3040771484375 333.14373779296875 456.616943359375 340.3525085449219 L 461.3055419921875 343.2667236328125" stroke-width="0.6000000238418579" fill="rgb(233, 92, 21)" opacity="1.0"/>
    <path d="M 107.36782836914062 228.0128173828125 C 110.46939086914062 224.62921142578125 113.8233642578125 220.2657470703125 112.32937622070312 215.90911865234375 C 111.6673583984375 214.198486328125 110.4908447265625 212.73541259765625 108.96206665039062 211.7218017578125 C 105.24703979492188 209.11209106445312 100.49752807617188 208.46490478515625 96.21969604492188 209.9854736328125 C 92.59419250488281 211.28466796875 89.74641418457031 214.03631591796875 87.05622863769531 216.7591552734375 C 85.54751586914062 218.2911376953125 83.99337768554688 219.96688842773438 83.58485412597656 222.06585693359375 C 83.06326293945312 224.86810302734375 84.73313903808594 227.59808349609375 86.56893920898438 229.77737426757812 C 89.25166320800781 232.97015380859375 92.4334716796875 235.7076416015625 95.990966796875 237.88372802734375 C 97.22158813476562 238.63320922851562 98.5596923828125 239.33505249023438 99.99983215332031 239.36114501953125 C 101.34011840820312 239.31689453125 102.63861083984375 238.88363647460938 103.73690795898438 238.11416625976562 C 107.1593017578125 235.90969848632812 109.4423828125 232.31488037109375 109.98260498046875 228.2799072265625 L 107.36782836914062 228.0128173828125" stroke-width="0.6000000238418579" fill="rgb(70, 150, 179)" opacity="1.0"/>
    <path d="M 111.76409912109375 83.089111328125 C 112.248046875 87.61128234863281 112.97433471679688 92.60342407226562 116.46148681640625 95.51847839355469 C 120.2093505859375 98.64764404296875 125.95864868164062 98.13441467285156 130.2337188720703 95.77619934082031 C 131.88238525390625 94.86767578125 133.44810485839844 93.6595458984375 134.29730224609375 91.97978210449219 C 134.99594116210938 90.59918212890625 135.1571807861328 89.01589965820312 135.22152709960938 87.47030639648438 C 135.43035888671875 82.59649658203125 134.65675354003906 77.33108520507812 131.3268280029297 73.76751708984375 C 127.96829223632812 70.17831420898438 122.20526123046875 69.083251953125 117.772705078125 71.218017578125 C 113.34013366699219 73.352783203125 110.55758666992188 78.5086669921875 111.24620056152344 83.38336181640625 L 111.76409912109375 83.089111328125" stroke-width="0.6000000238418579" fill="rgb(140, 28, 33)" opacity="1.0"/>
    <path d="M 94.59463500976562 394.9354553222656 C 97.01763916015625 391.66668701171875 99.50286865234375 388.2386474609375 100.33677673339844 384.2531433105469 C 101.170654296875 380.2677001953125 99.85269165039062 375.5137023925781 96.25357055664062 373.61102294921875 C 91.80563354492188 371.2723388671875 85.9375 374.5789489746094 84.19685363769531 379.30291748046875 C 82.45619201660156 384.02685546875 83.88743591308594 389.372802734375 86.29336547851562 393.7879943847656 C 86.90121459960938 395.2293701171875 88.02725219726562 396.3904724121094 89.44931030273438 397.04217529296875 C 90.90835571289062 397.5316162109375 92.90579223632812 396.51611328125 92.77656555175781 394.9749450683594 L 94.59463500976562 394.9354553222656" stroke-width="0.6000000238418579" fill="rgb(159, 159, 159)" opacity="1.0"/>
    <path d="M 476.35076904296875 65.93081665039062 C 477.749267578125 62.542144775390625 478.01708984375 58.600494384765625 476.593505859375 55.224365234375 C 475.169921875 51.84825134277344 471.9168701171875 49.178955078125 468.246337890625 48.92176818847656 C 465.65106201171875 48.74322509765625 463.0601806640625 49.75537109375 461.0169677734375 51.36924743652344 C 458.9737548828125 52.983123779296875 457.4342041015625 55.158233642578125 456.2266845703125 57.46549987792969 C 455.7017822265625 58.469879150390625 455.223876953125 59.5614013671875 455.3179931640625 60.687835693359375 C 455.42529296875 61.97929382324219 456.262451171875 63.07832336425781 457.115478515625 64.05911254882812 C 459.5238037109375 66.82809448242188 462.44818115234375 69.33346557617188 465.99176025390625 70.28933715820312 C 469.53533935546875 71.24519348144531 473.7764892578125 70.29583740234375 475.88623046875 67.3037109375 L 476.35076904296875 65.93081665039062" stroke-width="0.6000000238418579" fill="rgb(159, 159, 159)" opacity="1.0"/>
    <path d="M 87.8748779296875 110.55361938476562 C 92.269775390625 111.86138916015625 97.2115478515625 113.12466430664062 101.25759887695312 110.98626708984375 C 105.19532775878906 108.91220092773438 106.980224609375 104.32315063476562 108.369873046875 100.093017578125 C 108.931884765625 98.37374877929688 109.49241638183594 96.56619262695312 109.17453002929688 94.78656005859375 C 108.638671875 91.7763671875 105.80068969726562 89.75424194335938 103.01177978515625 88.51202392578125 C 100.42364501953125 87.35800170898438 97.68321228027344 86.58161926269531 94.87437438964844 86.20660400390625 C 90.31382751464844 85.59603881835938 85.01419067382812 86.39581298828125 82.38571166992188 90.17037963867188 C 80.96371459960938 92.2060546875 80.56292724609375 94.8297119140625 80.80343627929688 97.30502319335938 C 81.04397583007812 99.78034973144531 81.88143920898438 102.15597534179688 82.74162292480469 104.48944091796875 C 83.601806640625 106.82290649414062 84.49702453613281 109.09735107421875 86.19784545898438 110.8297119140625 L 87.8748779296875 110.55361938476562" stroke-width="0.6000000238418579" fill="rgb(218, 166, 20)" opacity="1.0"/>
    <path d="M 131.07220458984375 141.50718688964844 C 137.919189453125 138.984375 141.42462158203125 131.38864135742188 138.9018096923828 124.54165649414062 C 138.68577575683594 123.95535278320312 138.4284210205078 123.38511657714844 138.13169860839844 122.83522033691406 C 137.00379943847656 120.74595642089844 135.2056884765625 118.9111328125 132.9262237548828 118.25106811523438 C 130.9999542236328 117.69305419921875 128.93283081054688 118.01197814941406 126.99679565429688 118.52996826171875 C 121.81645202636719 119.92359924316406 117.10372924804688 122.67889404296875 113.34820556640625 126.50961303710938 C 112.35722351074219 127.52386474609375 111.41610717773438 128.64735412597656 110.97611999511719 129.99856567382812 C 110.23612976074219 132.2665557861328 111.05995178222656 134.8009033203125 112.46572875976562 136.73048400878906 C 114.55079650878906 139.59664916992188 117.85894775390625 141.45285034179688 121.34103393554688 142.11863708496094 C 124.82308959960938 142.784423828125 128.4604949951172 142.32958984375 131.81385803222656 141.1802978515625 L 131.07220458984375 141.50718688964844" stroke-width="0.6000000238418579" fill="rgb(143, 165, 67)" opacity="1.0"/>
    <path d="M 407.061767578125 307.516357421875 C 411.537353515625 315.8439636230469 425.83612060546875 315.2530517578125 430.2081298828125 306.93927001953125 C 434.58013916015625 298.62548828125 427.6422119140625 286.9143371582031 418.22454833984375 286.0526123046875 C 408.8069152832031 285.1908874511719 400.062255859375 294.46221923828125 400.7872314453125 303.900146484375 L 407.061767578125 307.516357421875" stroke-width="0.6000000238418579" fill="rgb(233, 92, 21)" opacity="1.0"/>
    <path d="M 121.75942993164062 117.22952270507812 C 125.86839294433594 117.52490234375 130.80728149414062 117.45158386230469 133.03883361816406 113.97209167480469 C 133.87301635742188 112.55284118652344 134.24624633789062 110.90969848632812 134.1069793701172 109.26934814453125 C 133.8716583251953 105.20144653320312 131.67922973632812 101.49993896484375 128.22494506835938 99.338623046875 C 125.29006958007812 97.51274108886719 121.76708984375 97.0435791015625 118.35220336914062 96.66921997070312 C 116.43359375 96.46205139160156 114.3885498046875 96.30303955078125 112.68441772460938 97.185791015625 C 110.422607421875 98.38104248046875 109.43325805664062 101.07743835449219 108.92376708984375 103.58358764648438 C 108.17352294921875 107.25039672851562 108.021728515625 111.01448059082031 108.47427368164062 114.72982788085938 C 108.63310241699219 116.01324462890625 108.8853759765625 117.345703125 109.66984558105469 118.37319946289062 C 110.4481201171875 119.29129028320312 111.47671508789062 119.96307373046875 112.63021850585938 120.30667114257812 C 116.08865356445312 121.48503112792969 119.88990783691406 121.08694458007812 123.0291748046875 119.21762084960938 L 121.75942993164062 117.22952270507812" stroke-width="0.6000000238418579" fill="rgb(70, 150, 179)" opacity="1.0"/>
    <path d="M 412.66448974609375 64.15533447265625 C 414.3035888671875 67.39689636230469 416.25653076171875 70.92108154296875 419.6851806640625 72.11358642578125 C 423.3690185546875 73.39239501953125 427.51904296875 71.38471984863281 430.0465087890625 68.41525268554688 C 431.02142333984375 67.270751953125 431.84979248046875 65.92588806152344 432.0096435546875 64.43110656738281 C 432.1414794921875 63.202362060546875 431.81463623046875 61.974029541015625 431.426025390625 60.80120849609375 C 430.20513916015625 57.10125732421875 428.1396484375 53.38629150390625 424.645263671875 51.664886474609375 C 421.122314453125 49.93241882324219 416.5076904296875 50.74249267578125 413.7994384765625 53.58953857421875 C 411.0911865234375 56.43658447265625 410.4691162109375 61.074371337890625 412.3607177734375 64.52146911621094 L 412.66448974609375 64.15533447265625" stroke-width="0.6000000238418579" fill="rgb(140, 28, 33)" opacity="1.0"/>
    <path d="M 120.3743896484375 425.72100830078125 C 121.63250732421875 422.279052734375 122.90373229980469 418.68359375 122.60633850097656 415.02838134765625 C 122.30892944335938 411.3731689453125 119.95669555664062 407.6036071777344 116.3623046875 406.8792724609375 C 111.92338562011719 405.9950256347656 107.6993408203125 410.349365234375 107.40211486816406 414.87396240234375 C 107.10488891601562 419.3985595703125 109.70608520507812 423.650390625 112.9114990234375 426.84954833984375 C 113.80453491210938 427.9393310546875 115.07357788085938 428.6546630859375 116.46823120117188 428.8543701171875 C 117.8533935546875 428.904541015625 119.31932067871094 427.5174560546875 118.81417846679688 426.2193603515625 L 120.3743896484375 425.72100830078125" stroke-width="0.6000000238418579" fill="rgb(159, 159, 159)" opacity="1.0"/>
    <path d="M 473.6522216796875 446.7117919921875 C 473.93145751953125 444.36474609375 473.41265869140625 441.87091064453125 471.94195556640625 440.022216796875 C 470.47125244140625 438.17352294921875 467.987548828125 437.0816650390625 465.6639404296875 437.55999755859375 C 464.02154541015625 437.9002685546875 462.5888671875 438.97900390625 461.600830078125 440.336181640625 C 460.61279296875 441.69329833984375 460.034912109375 443.3114013671875 459.686279296875 444.95379638671875 C 459.534912109375 445.6685791015625 459.427978515625 446.42938232421875 459.68218994140625 447.11236572265625 C 459.97332763671875 447.89556884765625 460.68408203125 448.432373046875 461.3841552734375 448.89306640625 C 463.3607177734375 450.19366455078125 465.61187744140625 451.2408447265625 467.9781494140625 451.2183837890625 C 470.34442138671875 451.1959228515625 472.8126220703125 449.86932373046875 473.6024169921875 447.6448974609375 L 473.6522216796875 446.7117919921875" stroke-width="0.6000000238418579" fill="rgb(159, 159, 159)" opacity="1.0"/>
    <path d="M 459.802001953125 299.6068420410156 C 458.8604736328125 295.5780029296875 457.6395263671875 291.14056396484375 454.15374755859375 288.92681884765625 C 450.766845703125 286.7691955566406 446.3724365234375 287.42364501953125 442.43609619140625 288.22723388671875 C 440.83746337890625 288.5560302734375 439.1702880859375 288.9255065917969 437.9180908203125 289.97076416015625 C 435.799072265625 291.73736572265625 435.4842529296875 294.8658142089844 435.758544921875 297.6069030761719 C 436.01220703125 300.1512145996094 436.6298828125 302.6459045410156 437.5926513671875 305.0146484375 C 439.154541015625 308.8613586425781 442.1522216796875 312.65625 446.2857666015625 313.0271911621094 C 448.51708984375 313.230712890625 450.75225830078125 312.3709716796875 452.584228515625 311.0751037597656 C 454.416259765625 309.7792053222656 455.903076171875 308.0601806640625 457.34674072265625 306.3421936035156 C 458.7904052734375 304.62420654296875 460.17205810546875 302.9051818847656 460.7685546875 300.79742431640625 L 459.802001953125 299.6068420410156" stroke-width="0.6000000238418579" fill="rgb(218, 166, 20)" opacity="1.0"/>
    <path d="M 429.589111328125 368.1466369628906 C 427.7740478515625 369.8396911621094 427.6751708984375 372.68359375 429.36822509765625 374.4986572265625 C 429.51318359375 374.6540832519531 429.66900634765625 374.7990417480469 429.83447265625 374.9324035644531 C 430.46343994140625 375.4390869140625 431.26904296875 375.7776794433594 432.07086181640625 375.6844482421875 C 432.74847412109375 375.6057434082031 433.354736328125 375.23345947265625 433.8936767578125 374.8160095214844 C 435.3348388671875 373.69659423828125 436.449951171875 372.21173095703125 437.1231689453125 370.51568603515625 C 437.3004150390625 370.06707763671875 437.447509765625 369.59075927734375 437.4075927734375 369.1090393066406 C 437.3409423828125 368.3002624511719 436.74871826171875 367.61395263671875 436.0537109375 367.1939697265625 C 435.022216796875 366.5697021484375 433.740234375 366.4233093261719 432.560546875 366.6731262207031 C 431.3807373046875 366.9229736328125 430.2999267578125 367.5447082519531 429.39959716796875 368.3468322753906 L 429.589111328125 368.1466369628906" stroke-width="0.6000000238418579" fill="rgb(143, 165, 67)" opacity="1.0"/>
    <path d="M 452.31842041015625 345.7962646484375 C 458.2806396484375 343.66290283203125 459.31610107421875 334.1333923339844 454.245849609375 330.4080505371094 C 449.1756591796875 326.6827392578125 440.7266845703125 330.109375 439.2161865234375 336.2610168457031 C 437.7056884765625 342.4126281738281 442.9737548828125 349.129638671875 449.29718017578125 349.59124755859375 L 452.31842041015625 345.7962646484375" stroke-width="0.6000000238418579" fill="rgb(233, 92, 21)" opacity="1.0"/>
    <path d="M 447.6851806640625 67.8402099609375 C 451.1953125 66.90213012695312 455.291015625 65.41751098632812 456.14825439453125 61.8740234375 C 456.43450927734375 60.45057678222656 456.27203369140625 58.97337341308594 455.68316650390625 57.646209716796875 C 454.3145751953125 54.3232421875 451.420166015625 51.869781494140625 447.91796875 51.06382751464844 C 444.9453125 50.38777160644531 441.87353515625 51.01210021972656 438.919189453125 51.68431091308594 C 437.26025390625 52.064605712890625 435.509765625 52.52149963378906 434.34368896484375 53.74847412109375 C 432.8028564453125 55.39668273925781 432.75537109375 57.92939758300781 433.05303955078125 60.16523742675781 C 433.4844970703125 63.43794250488281 434.44287109375 66.61923217773438 435.8909912109375 69.585693359375 C 436.39324951171875 70.60969543457031 436.987548828125 71.64764404296875 437.9376220703125 72.27803039550781 C 438.8509521484375 72.8189697265625 439.9019775390625 73.08248901367188 440.9625244140625 73.03640747070312 C 444.18487548828125 73.02182006835938 447.2386474609375 71.59439086914062 449.316650390625 69.13140869140625 L 447.6851806640625 67.8402099609375" stroke-width="0.6000000238418579" fill="rgb(70, 150, 179)" opacity="1.0"/>
    <path d="M 458.14990234375 399.5216369628906 C 458.9273681640625 396.9541015625 459.68133544921875 394.0755310058594 458.4578857421875 391.6899719238281 C 457.14215087890625 389.1281433105469 453.9013671875 388.0842590332031 451.036865234375 388.3816223144531 C 449.932373046875 388.4958190917969 448.803955078125 388.79180908203125 447.956298828125 389.5087890625 C 447.25921630859375 390.09796142578125 446.807373046875 390.9208068847656 446.4168701171875 391.7455139160156 C 445.1822509765625 394.34466552734375 444.39105224609375 397.3825378417969 445.3798828125 400.08416748046875 C 446.37841796875 402.8063049316406 449.25665283203125 404.7268981933594 452.1552734375 404.5871276855469 C 455.053955078125 404.4473571777344 457.75146484375 402.2870788574219 458.4989013671875 399.48095703125 L 458.14990234375 399.5216369628906" stroke-width="0.6000000238418579" fill="rgb(140, 28, 33)" opacity="1.0"/>
    <path d="M 121.15914916992188 215.48516845703125 C 117.54153442382812 220.62750244140625 113.83389282226562 226.018310546875 112.69851684570312 232.2069091796875 C 111.56317138671875 238.39544677734375 113.78141784667969 245.68869018554688 119.41410827636719 248.48980712890625 C 126.37478637695312 251.9320068359375 135.3128204345703 246.59906005859375 137.82058715820312 239.2349853515625 C 140.32835388183594 231.870849609375 137.91244506835938 223.6676025390625 134.0265655517578 216.93942260742188 C 133.03233337402344 214.73614501953125 131.2483673095703 212.9857177734375 129.0266571044922 212.03350830078125 C 126.75399780273438 211.33340454101562 123.7073974609375 212.97866821289062 123.96609497070312 215.35446166992188 L 121.15914916992188 215.48516845703125" stroke-width="0.6000000238418579" fill="rgb(159, 159, 159)" opacity="1.0"/>
    <path d="M 108.59500122070312 240.91339111328125 C 102.59797668457031 240.25360107421875 96.2442626953125 241.6341552734375 91.5587158203125 245.42987060546875 C 86.8731689453125 249.2255859375 84.142333984375 255.58987426757812 85.41569519042969 261.510009765625 C 86.32127380371094 265.6944885253906 89.10711669921875 269.3269348144531 92.59353637695312 271.8182678222656 C 96.07998657226562 274.30963134765625 100.22314453125 275.74798583984375 104.42324829101562 276.60089111328125 C 106.25125122070312 276.9709777832031 108.19549560546875 277.22686767578125 109.93310546875 276.5625 C 111.92556762695312 275.8017578125 113.27983093261719 273.9754333496094 114.43991088867188 272.1780090332031 C 117.7149658203125 267.1035461425781 120.33709716796875 261.3338317871094 120.22630310058594 255.29452514648438 C 120.11550903320312 249.25518798828125 116.67361450195312 242.98513793945312 110.97793579101562 241.01937866210938 L 108.59500122070312 240.91339111328125" stroke-width="0.6000000238418579" fill="rgb(159, 159, 159)" opacity="1.0"/>
    <path d="M 283.2061462402344 85.25242614746094 C 282.1873474121094 91.11083984375 281.3087158203125 97.6668701171875 284.675537109375 102.55410766601562 C 287.943115234375 107.31158447265625 294.12384033203125 108.91548156738281 299.782470703125 110.064697265625 C 302.0818786621094 110.52816772460938 304.49481201171875 110.97636413574219 306.73870849609375 110.29745483398438 C 310.5345458984375 109.15142822265625 312.7091369628906 105.1900634765625 313.88671875 101.41000366210938 C 314.9810791015625 97.90187072753906 315.5660095214844 94.25479125976562 315.6236572265625 90.58036804199219 C 315.71942138671875 84.61418151855469 313.88677978515625 77.90966796875 308.6273193359375 75.09596252441406 C 305.7901306152344 73.57278442382812 302.350341796875 73.45390319824219 299.1986999511719 74.13851928710938 C 296.04705810546875 74.82316589355469 293.11419677734375 76.26150512695312 290.2391052246094 77.72276306152344 C 287.3639831542969 79.18400573730469 284.5701904296875 80.68142700195312 282.59661865234375 83.13430786132812 L 283.2061462402344 85.25242614746094" stroke-width="0.6000000238418579" fill="rgb(218, 166, 20)" opacity="1.0"/>
    <path d="M 226.8079833984375 121.07546997070312 C 221.64785766601562 112.61843872070312 210.6090087890625 109.94575500488281 202.15194702148438 115.10586547851562 C 201.42779541015625 115.54771423339844 200.73587036132812 116.0404052734375 200.08139038085938 116.58016967773438 C 197.594970703125 118.63168334960938 195.6236572265625 121.509033203125 195.34356689453125 124.71878051757812 C 195.10662841796875 127.43124389648438 196.07476806640625 130.10081481933594 197.27362060546875 132.54344177246094 C 200.4915771484375 139.07733154296875 205.40036010742188 144.6304168701172 211.489990234375 148.62586975097656 C 213.1014404296875 149.67926025390625 214.8453369140625 150.63751220703125 216.76080322265625 150.868408203125 C 219.97622680664062 151.2579345703125 223.13543701171875 149.49444580078125 225.33612060546875 147.11477661132812 C 228.60577392578125 143.5841064453125 230.20867919921875 138.68975830078125 230.18023681640625 133.87664794921875 C 230.15182495117188 129.0635528564453 228.58990478515625 124.33810424804688 226.1776123046875 120.17352294921875 L 226.8079833984375 121.07546997070312" stroke-width="0.6000000238418579" fill="rgb(143, 165, 67)" opacity="1.0"/>
    <path d="M 201.10009765625 91.212646484375 C 203.9898681640625 101.59471130371094 220.03826904296875 104.52125549316406 226.983642578125 96.3720703125 C 233.928955078125 88.22285461425781 229.1490478515625 73.46115112304688 218.892578125 70.142578125 C 208.6361083984375 66.82400512695312 196.58834838867188 74.94212341308594 195.02911376953125 85.61885070800781 L 201.10009765625 91.212646484375" stroke-width="0.6000000238418579" fill="rgb(233, 92, 21)" opacity="1.0"/>
    <path d="M 200.94967651367188 97.11380004882812 C 199.98443603515625 91.81819152832031 198.28216552734375 85.59255981445312 193.152099609375 83.90272521972656 C 191.08438110351562 83.3096923828125 188.88357543945312 83.37289428710938 186.85333251953125 84.08364868164062 C 181.7825927734375 85.70709228515625 177.81329345703125 89.68756103515625 176.2041015625 94.76283264160156 C 174.85009765625 99.07156372070312 175.404541015625 103.68231201171875 176.04367065429688 108.12539672851562 C 176.40676879882812 110.62066650390625 176.87200927734375 113.26023864746094 178.5443115234375 115.12890625 C 180.79385375976562 117.60142517089844 184.5281982421875 117.97459411621094 187.86541748046875 117.8026123046875 C 192.74981689453125 117.5570068359375 197.56222534179688 116.52243041992188 202.11602783203125 114.73904418945312 C 203.688232421875 114.11981201171875 205.29208374023438 113.36637878417969 206.33660888671875 112.03889465332031 C 207.24472045898438 110.75491333007812 207.75958251953125 109.23440551757812 207.81845092773438 107.662841796875 C 208.18246459960938 102.90264892578125 206.44000244140625 98.22238159179688 203.05157470703125 94.85923767089844 L 200.94967651367188 97.11380004882812" stroke-width="0.6000000238418579" fill="rgb(70, 150, 179)" opacity="1.0"/>
    <path d="M 253.47540283203125 125.736328125 C 247.6837158203125 124.60009765625 241.21640014648438 123.58384704589844 236.26400756835938 126.78753662109375 C 230.94610595703125 130.23219299316406 229.37506103515625 137.5563201904297 230.6571044921875 143.76121520996094 C 231.150390625 146.15377807617188 232.04693603515625 148.55853271484375 233.80322265625 150.2561492919922 C 235.2464599609375 151.6522216796875 237.14727783203125 152.4599609375 239.03851318359375 153.1331329345703 C 245.0001220703125 155.2631378173828 251.8243408203125 156.32562255859375 257.52032470703125 153.5658416748047 C 263.25909423828125 150.78041076660156 266.8291015625 144.05673217773438 265.8844909667969 137.7423553466797 C 264.93988037109375 131.42799377441406 259.6167297363281 125.99920654296875 253.30947875976562 124.98133850097656 L 253.47540283203125 125.736328125" stroke-width="0.6000000238418579" fill="rgb(140, 28, 33)" opacity="1.0"/>
    <path d="M 288.5794677734375 124.99961853027344 C 282.7019958496094 126.58651733398438 276.6036682128906 128.30258178710938 271.9257507324219 132.20558166503906 C 267.2479248046875 136.10855102539062 264.3819580078125 142.91073608398438 266.8395080566406 148.4841766357422 C 269.8884582519531 155.3572235107422 279.84393310546875 156.92361450195312 286.2713317871094 152.9956817626953 C 292.6987609863281 149.0677490234375 295.9812316894531 141.46578979492188 297.2560119628906 134.05133056640625 C 297.88055419921875 131.79566955566406 297.63690185546875 129.387939453125 296.572998046875 127.30320739746094 C 295.3150634765625 125.37457275390625 292.02850341796875 124.71224975585938 290.7496337890625 126.64079284667969 L 288.5794677734375 124.99961853027344" stroke-width="0.6000000238418579" fill="rgb(159, 159, 159)" opacity="1.0"/>
    <path d="M 197.716796875 135.10232543945312 C 194.29779052734375 130.11602783203125 189.09591674804688 126.1925048828125 183.15005493164062 125.11480712890625 C 177.2042236328125 124.037109375 170.58514404296875 126.12313842773438 166.9208984375 130.96018981933594 C 164.33456420898438 134.38333129882812 163.3966064453125 138.87376403808594 163.7833251953125 143.150390625 C 164.1700439453125 147.42703247070312 165.78585815429688 151.51417541503906 167.883544921875 155.26187133789062 C 168.79736328125 156.89224243164062 169.87393188476562 158.5362548828125 171.514404296875 159.42178344726562 C 173.3946533203125 160.4378662109375 175.66708374023438 160.27264404296875 177.79061889648438 159.97882080078125 C 183.7857666015625 159.1492919921875 189.88214111328125 157.369384765625 194.3968505859375 153.33746337890625 C 198.91156005859375 149.30551147460938 201.42404174804688 142.59263610839844 199.1939697265625 136.98153686523438 L 197.716796875 135.10232543945312" stroke-width="0.6000000238418579" fill="rgb(159, 159, 159)" opacity="1.0"/>
    <path d="M 275.56109619140625 97.43212890625 C 269.8873291015625 97.640625 263.5896911621094 98.11819458007812 259.6914978027344 102.23077392578125 C 255.89483642578125 106.22492980957031 255.62066650390625 112.31561279296875 255.66778564453125 117.82859802246094 C 255.69021606445312 120.06814575195312 255.7493896484375 122.41069030761719 256.827880859375 124.37216186523438 C 258.6499938964844 127.69068908691406 262.78070068359375 128.9374237060547 266.5446472167969 129.28878784179688 C 270.0381164550781 129.6162872314453 273.5605163574219 129.4404296875 277.0039978027344 128.7666473388672 C 282.59564208984375 127.67465209960938 288.49505615234375 124.63523864746094 290.0816955566406 119.16546630859375 C 290.9425964355469 116.21377563476562 290.3724670410156 112.977294921875 289.1089172363281 110.16909790039062 C 287.8453063964844 107.36088562011719 285.9210510253906 104.90631103515625 283.9868469238281 102.51017761230469 C 282.0526428222656 100.11404418945312 280.1007385253906 97.80105590820312 277.4188232421875 96.443359375 L 275.56109619140625 97.43212890625" stroke-width="0.6000000238418579" fill="rgb(218, 166, 20)" opacity="1.0"/>
    <path d="M 223.9500732421875 109.15786743164062 C 225.23785400390625 118.66537475585938 233.98919677734375 125.3287353515625 243.49667358398438 124.04093933105469 C 244.310791015625 123.9306640625 245.1160888671875 123.76275634765625 245.90646362304688 123.53854370117188 C 248.9095458984375 122.68592834472656 251.77694702148438 120.90054321289062 253.27359008789062 118.16264343261719 C 254.53857421875 115.84902954101562 254.71807861328125 113.10482788085938 254.60467529296875 110.47216796875 C 254.29153442382812 103.42562866210938 252.09735107421875 96.59147644042969 248.25003051757812 90.67961120605469 C 247.23043823242188 89.11865234375 246.056396484375 87.590576171875 244.44732666015625 86.64089965820312 C 241.74691772460938 85.04495239257812 238.2591552734375 85.38046264648438 235.38186645507812 86.63525390625 C 231.10885620117188 88.49516296386719 227.78384399414062 92.21275329589844 225.93731689453125 96.49270629882812 C 224.09075927734375 100.77264404296875 223.638427734375 105.57119750976562 224.15838623046875 110.20297241210938 L 223.9500732421875 109.15786743164062" stroke-width="0.6000000238418579" fill="rgb(143, 165, 67)" opacity="1.0"/>
    <path d="M 248.9830322265625 87.06124877929688 C 250.010009765625 98.1640625 265.8087463378906 104.10377502441406 274.38287353515625 97.08834838867188 C 282.95697021484375 90.07290649414062 280.81353759765625 74.16258239746094 270.9837341308594 68.89213562011719 C 261.1539306640625 63.621673583984375 247.39089965820312 69.664306640625 243.83407592773438 80.2464599609375 L 248.9830322265625 87.06124877929688" stroke-width="0.6000000238418579" fill="rgb(233, 92, 21)" opacity="1.0"/>
    <path d="M 339.03009033203125 71.71609497070312 C 336.8740234375 66.763427734375 333.7848815917969 61.070953369140625 328.3857727050781 60.59510803222656 C 326.22979736328125 60.489349365234375 324.0941162109375 61.055206298828125 322.27337646484375 62.214691162109375 C 317.6911926269531 64.9622802734375 314.7249755859375 69.7603759765625 314.3153991699219 75.08746337890625 C 313.9794921875 79.60719299316406 315.5773010253906 83.98486328125 317.219482421875 88.1793212890625 C 318.1457824707031 90.53401184082031 319.2049255371094 93.00627136230469 321.266845703125 94.44888305664062 C 324.03094482421875 96.34922790527344 327.7648620605469 95.85841369628906 330.98590087890625 94.92594909667969 C 335.7016296386719 93.56716918945312 340.1663513183594 91.45407104492188 344.20684814453125 88.66860961914062 C 345.60107421875 87.7034912109375 346.99542236328125 86.60002136230469 347.71185302734375 85.06381225585938 C 348.304931640625 83.60136413574219 348.4596862792969 81.9979248046875 348.1571960449219 80.44903564453125 C 347.4224548339844 75.71498107910156 344.64801025390625 71.54153442382812 340.56719970703125 69.03192138671875 L 339.03009033203125 71.71609497070312" stroke-width="0.6000000238418579" fill="rgb(70, 150, 179)" opacity="1.0"/>
    <path d="M 327.38470458984375 137.19931030273438 C 327.0010986328125 131.26187133789062 326.32659912109375 124.69679260253906 321.92913818359375 120.69464111328125 C 317.2026672363281 116.39828491210938 309.65966796875 116.75260925292969 303.9420166015625 119.599609375 C 301.7370910644531 120.69636535644531 299.62408447265625 122.18930053710938 298.421630859375 124.33810424804688 C 297.4324645996094 126.10418701171875 297.1345520019531 128.16477966308594 296.96533203125 130.1814422607422 C 296.4241027832031 136.5403594970703 297.1453857421875 143.4652099609375 301.3016662597656 148.30636596679688 C 305.4939270019531 153.1826171875 312.9663391113281 154.93118286132812 318.8775329589844 152.38490295410156 C 324.7887268066406 149.838623046875 328.70953369140625 143.25271606445312 328.0778503417969 136.84323120117188 L 327.38470458984375 137.19931030273438" stroke-width="0.6000000238418579" fill="rgb(140, 28, 33)" opacity="1.0"/>
    <path d="M 342.6352233886719 96.88807678222656 C 336.5177307128906 95.58816528320312 330.1378173828125 94.30294799804688 324.03314208984375 95.68246459960938 C 317.9285583496094 97.06198120117188 312.1238098144531 101.94084167480469 311.7623596191406 108.18783569335938 C 311.3334045410156 115.90011596679688 319.7041015625 121.99240112304688 327.4202880859375 121.40898132324219 C 335.136474609375 120.8255615234375 341.6964416503906 115.41030883789062 346.3326721191406 109.22677612304688 C 347.95965576171875 107.45640563964844 348.86383056640625 105.14056396484375 348.8667297363281 102.73619079589844 C 348.619140625 100.38372802734375 345.9237365722656 98.23970031738281 343.8515625 99.4046630859375 L 342.6352233886719 96.88807678222656" stroke-width="0.6000000238418579" fill="rgb(159, 159, 159)" opacity="1.0"/>
    <path d="M 342.4028625488281 115.7928466796875 C 337.04803466796875 117.73640441894531 332.2424621582031 121.55694580078125 329.85760498046875 126.72708129882812 C 327.4727783203125 131.897216796875 327.81536865234375 138.42733764648438 331.3642272949219 142.910400390625 C 333.8773193359375 146.0767822265625 337.752685546875 147.9910430908203 341.7452697753906 148.64642333984375 C 345.73785400390625 149.30181884765625 349.8473205566406 148.79129028320312 353.7607421875 147.76113891601562 C 355.4635009765625 147.31182861328125 357.2170715332031 146.71728515625 358.41162109375 145.42950439453125 C 359.78179931640625 143.95375061035156 360.16680908203125 141.84173583984375 360.3993835449219 139.83526611328125 C 361.0559387207031 134.17054748535156 360.8693542480469 128.18943786621094 358.2554931640625 123.12033081054688 C 355.6416015625 118.05120849609375 350.1099548339844 114.17665100097656 344.4654235839844 114.88827514648438 L 342.4028625488281 115.7928466796875" stroke-width="0.6000000238418579" fill="rgb(159, 159, 159)" opacity="1.0"/>
    <path d="M 362.938720703125 90.77691650390625 C 358.13885498046875 91.00666809082031 352.81353759765625 91.469970703125 349.55303955078125 94.98715209960938 C 346.37738037109375 98.40313720703125 346.2025451660156 103.56037902832031 346.2942199707031 108.22567749023438 C 346.334228515625 110.12083435058594 346.40631103515625 112.10281372070312 347.3374938964844 113.75271606445312 C 348.9107360839844 116.54412841796875 352.4183654785156 117.56047058105469 355.6071472167969 117.82249450683594 C 358.5668029785156 118.06683349609375 361.54620361328125 117.88493347167969 364.45416259765625 117.2823486328125 C 369.1762390136719 116.30564880371094 374.1404724121094 113.67793273925781 375.4319152832031 109.03385925292969 C 376.1327819824219 106.5277099609375 375.619873046875 103.79397583007812 374.52410888671875 101.42919921875 C 373.4283447265625 99.06442260742188 371.7767639160156 97.00514221191406 370.1172790527344 94.99542236328125 C 368.45782470703125 92.98570251464844 366.7841796875 91.0465087890625 364.50164794921875 89.92263793945312 L 362.938720703125 90.77691650390625" stroke-width="0.6000000238418579" fill="rgb(218, 166, 20)" opacity="1.0"/>
    <path d="M 428.2281494140625 138.90762329101562 C 419.7242431640625 140.51312255859375 414.1319580078125 148.7084197998047 415.7374267578125 157.21234130859375 C 415.87493896484375 157.9405517578125 416.06390380859375 158.65805053710938 416.30291748046875 159.3594970703125 C 417.211669921875 162.02471923828125 418.9542236328125 164.52398681640625 421.49066162109375 165.743896484375 C 423.634033203125 166.77496337890625 426.1143798828125 166.80807495117188 428.48052978515625 166.58261108398438 C 434.81329345703125 165.97036743164062 440.86663818359375 163.67364501953125 446.01171875 159.93106079101562 C 447.3701171875 158.93948364257812 448.6915283203125 157.81033325195312 449.47161865234375 156.31637573242188 C 450.78271484375 153.80911254882812 450.31707763671875 150.68307495117188 449.052001953125 148.15003967285156 C 447.1763916015625 144.3881072998047 443.67181396484375 141.567138671875 439.72998046875 140.1043243408203 C 435.7880859375 138.64149475097656 431.4444580078125 138.4588623046875 427.2965087890625 139.1442413330078 L 428.2281494140625 138.90762329101562" stroke-width="0.6000000238418579" fill="rgb(143, 165, 67)" opacity="1.0"/>
    <path d="M 147.10581970214844 409.2030334472656 C 153.77645874023438 416.550537109375 168.19122314453125 412.322509765625 170.53619384765625 402.74542236328125 C 172.88116455078125 393.1683654785156 162.84429931640625 382.9989013671875 153.03305053710938 384.5093994140625 C 143.2218017578125 386.0199279785156 136.66571044921875 397.68121337890625 139.79757690429688 407.11077880859375 L 147.10581970214844 409.2030334472656" stroke-width="0.6000000238418579" fill="rgb(233, 92, 21)" opacity="1.0"/>
    <path d="M 430.6259765625 203.1546630859375 C 426.44549560546875 199.9844970703125 421.123046875 196.63125610351562 416.3236083984375 198.79464721679688 C 414.4471435546875 199.72991943359375 412.90716552734375 201.22439575195312 411.9161071777344 203.07196044921875 C 409.3409423828125 207.577392578125 409.1092529296875 213.05148315429688 411.2945251464844 217.75836181640625 C 413.158447265625 221.74636840820312 416.5927734375 224.69485473632812 419.9775390625 227.46707153320312 C 421.8814697265625 229.021240234375 423.9537353515625 230.61187744140625 426.385986328125 230.85366821289062 C 429.630615234375 231.1494140625 432.55999755859375 228.95880126953125 434.8450927734375 226.63784790039062 C 438.1934814453125 223.24530029296875 440.9708251953125 219.33319091796875 443.06915283203125 215.05316162109375 C 443.79132080078125 213.57296752929688 444.4478759765625 211.9754638671875 444.324462890625 210.333740234375 C 444.13165283203125 208.81304931640625 443.50048828125 207.38134765625 442.508056640625 206.21319580078125 C 439.6353759765625 202.55255126953125 435.301513671875 200.33636474609375 430.65203857421875 200.15045166015625 L 430.6259765625 203.1546630859375" stroke-width="0.6000000238418579" fill="rgb(70, 150, 179)" opacity="1.0"/>
    <path d="M 414.980224609375 161.99896240234375 C 414.67626953125 156.1805419921875 414.09503173828125 149.74407958984375 409.8374328613281 145.77223205566406 C 405.2612609863281 141.50833129882812 397.87109375 141.76425170898438 392.2381896972656 144.4829559326172 C 390.06591796875 145.53025817871094 387.9789123535156 146.9665985107422 386.77557373046875 149.05615234375 C 385.78570556640625 150.7735137939453 385.4691467285156 152.78758239746094 385.27911376953125 154.7602081298828 C 384.67242431640625 160.98013305664062 385.2951354980469 167.76947021484375 389.3064270019531 172.5599365234375 C 393.3525390625 177.38519287109375 400.648193359375 179.18753051757812 406.4670104980469 176.765625 C 412.2857666015625 174.34368896484375 416.2044677734375 167.9422607421875 415.6632080078125 161.65866088867188 L 414.980224609375 161.99896240234375" stroke-width="0.6000000238418579" fill="rgb(140, 28, 33)" opacity="1.0"/>
    <path d="M 154.15040588378906 130.85609436035156 C 148.01950073242188 132.52005004882812 141.65829467773438 134.31907653808594 136.78225708007812 138.39820861816406 C 131.90631103515625 142.47731018066406 128.92498779296875 149.57925415039062 131.49703979492188 155.3917236328125 C 134.68797302246094 162.55950927734375 145.0785675048828 164.180419921875 151.7801513671875 160.0728759765625 C 158.48175048828125 155.96533203125 161.89657592773438 148.0282745361328 163.2166748046875 140.2896270751953 C 163.86529541015625 137.93499755859375 163.60772705078125 135.42288208007812 162.4947509765625 133.2489471435547 C 161.179443359375 131.2381591796875 157.74905395507812 130.55152893066406 156.41720581054688 132.565673828125 L 154.15040588378906 130.85609436035156" stroke-width="0.6000000238418579" fill="rgb(159, 159, 159)" opacity="1.0"/>
    <path d="M 435.802001953125 168.91485595703125 C 430.7171630859375 166.90481567382812 424.8328857421875 166.59317016601562 419.8297119140625 168.79153442382812 C 414.8265380859375 170.9898681640625 410.9182434082031 175.90081787109375 410.6165466308594 181.3804931640625 C 410.40814208984375 185.25491333007812 411.975341796875 189.09616088867188 414.427734375 192.10726928710938 C 416.880126953125 195.118408203125 420.15826416015625 197.365966796875 423.6260986328125 199.11538696289062 C 425.13568115234375 199.87579345703125 426.774169921875 200.56414794921875 428.451904296875 200.39862060546875 C 430.37554931640625 200.20977783203125 431.995849609375 198.9368896484375 433.4395751953125 197.64288330078125 C 437.515380859375 193.98953247070312 441.1865234375 189.5723876953125 442.532958984375 184.26641845703125 C 443.8795166015625 178.96044921875 442.369140625 172.65664672851562 437.85986328125 169.57696533203125 L 435.802001953125 168.91485595703125" stroke-width="0.6000000238418579" fill="rgb(159, 159, 159)" opacity="1.0"/>
    <path d="M 413.91522216796875 196.13760375976562 C 413.5087890625 190.554443359375 412.815185546875 184.36611938476562 408.62481689453125 180.6707763671875 C 404.5547790527344 177.07131958007812 398.543701171875 177.01690673828125 393.11328125 177.25860595703125 C 390.9073791503906 177.36004638671875 388.6012878417969 177.5013427734375 386.706787109375 178.63348388671875 C 383.5014953613281 180.54641723632812 382.41937255859375 184.66070556640625 382.20648193359375 188.38189697265625 C 382.007568359375 191.835693359375 382.30560302734375 195.3001708984375 383.0914611816406 198.6693115234375 C 384.36553955078125 204.1402587890625 387.5693359375 209.845458984375 393.01507568359375 211.215087890625 C 395.9539489746094 211.95877075195312 399.12274169921875 211.2823486328125 401.8450012207031 209.9378662109375 C 404.5672607421875 208.59332275390625 406.91766357421875 206.6103515625 409.21014404296875 204.61962890625 C 411.5025939941406 202.62890625 413.7125244140625 200.62371826171875 414.955322265625 197.93304443359375 L 413.91522216796875 196.13760375976562" stroke-width="0.6000000238418579" fill="rgb(218, 166, 20)" opacity="1.0"/>
    <path d="M 444.7745361328125 193.69805908203125 C 440.2716064453125 201.71270751953125 443.118408203125 211.86029052734375 451.133056640625 216.36325073242188 C 451.8193359375 216.74884033203125 452.53216552734375 217.08526611328125 453.26611328125 217.3699951171875 C 456.05499267578125 218.45132446289062 459.278564453125 218.740966796875 462.0035400390625 217.51092529296875 C 464.306396484375 216.47161865234375 466.0277099609375 214.4764404296875 467.4605712890625 212.39755249023438 C 471.2884521484375 206.82760620117188 473.55511474609375 200.33428955078125 474.025146484375 193.5921630859375 C 474.1463623046875 191.809814453125 474.1304931640625 189.9635009765625 473.447998046875 188.308349609375 C 472.303955078125 185.52908325195312 469.44287109375 183.7724609375 466.51800537109375 183.07131958007812 C 462.17645263671875 182.02734375 457.48760986328125 182.95132446289062 453.60491943359375 185.15878295898438 C 449.72222900390625 187.3662109375 446.6064453125 190.77508544921875 444.33056640625 194.61758422851562 L 444.7745361328125 193.69805908203125" stroke-width="0.6000000238418579" fill="rgb(143, 165, 67)" opacity="1.0"/>
    <path d="M 141.4677734375 96.35612487792969 C 130.5950927734375 104.84674072265625 134.9716339111328 125.26510620117188 148.006591796875 129.50230407714844 C 161.04156494140625 133.7394561767578 176.17303466796875 120.87298583984375 175.08956909179688 107.11627197265625 C 174.006103515625 93.35954284667969 158.5155029296875 83.06991577148438 145.1209259033203 86.44033813476562 L 141.4677734375 96.35612487792969" stroke-width="0.6000000238418579" fill="rgb(233, 92, 21)" opacity="1.0"/>
    <path d="M 453.92645263671875 153.40879821777344 C 447.955322265625 154.4824676513672 440.9339599609375 156.38427734375 439.015625 162.16168212890625 C 438.3416748046875 164.49053955078125 438.406982421875 166.97119140625 439.20257568359375 169.2613525390625 C 441.0186767578125 174.98080444335938 445.4942626953125 179.4652099609375 451.2100830078125 181.29254150390625 C 456.062744140625 182.8302001953125 461.2608642578125 182.21774291992188 466.270263671875 181.50933837890625 C 469.0836181640625 181.1068115234375 472.059814453125 180.589599609375 474.17047119140625 178.70977783203125 C 476.9632568359375 176.18106079101562 477.3939208984375 171.97317504882812 477.208984375 168.21139526367188 C 476.9453125 162.7056884765625 475.792236328125 157.27896118164062 473.7945556640625 152.14169311523438 C 473.100830078125 150.36801147460938 472.2559814453125 148.55833435058594 470.76263427734375 147.3774871826172 C 469.31793212890625 146.35055541992188 467.6055908203125 145.7661590576172 465.83447265625 145.69558715820312 C 460.4703369140625 145.27249145507812 455.190673828125 147.2238006591797 451.39105224609375 151.0337371826172 L 453.92645263671875 153.40879821777344" stroke-width="0.6000000238418579" fill="rgb(70, 150, 179)" opacity="1.0"/>
    <path d="M 378.6080017089844 83.43927001953125 C 381.2449035644531 77.5263671875 383.91943359375 70.86167907714844 381.7104187011719 64.78038024902344 C 379.33355712890625 58.24913024902344 371.8890686035156 54.77107238769531 364.9405822753906 54.61810302734375 C 362.26153564453125 54.5579833984375 359.470458984375 54.925994873046875 357.2242736816406 56.38677978515625 C 355.3773498535156 57.586944580078125 354.04705810546875 59.42076110839844 352.8629455566406 61.277435302734375 C 349.1218566894531 67.12797546386719 346.31024169921875 74.16287231445312 347.86212158203125 80.93014526367188 C 349.43084716796875 87.74943542480469 355.7425537109375 93.2171630859375 362.7252197265625 93.75778198242188 C 369.7078857421875 94.29840087890625 376.8189392089844 89.9404296875 379.4559020996094 83.447265625 L 378.6080017089844 83.43927001953125" stroke-width="0.6000000238418579" fill="rgb(140, 28, 33)" opacity="1.0"/>
    <path d="M 129.13783264160156 410.8858642578125 C 124.84881591796875 417.06927490234375 120.45401000976562 423.55078125 119.14419555664062 430.96673583984375 C 117.83444213867188 438.382568359375 120.5472412109375 447.093994140625 127.31106567382812 450.4019775390625 C 135.6693878173828 454.466552734375 146.32472229003906 448.0128173828125 149.2677764892578 439.1790771484375 C 152.2108154296875 430.3453369140625 149.2542266845703 420.5462646484375 144.5499725341797 412.52435302734375 C 143.342529296875 409.89520263671875 141.1934814453125 407.8143005371094 138.52682495117188 406.6922607421875 C 135.8011932373047 405.87237548828125 132.16786193847656 407.8656921386719 132.49635314941406 410.7071533203125 L 129.13783264160156 410.8858642578125" stroke-width="0.6000000238418579" fill="rgb(159, 159, 159)" opacity="1.0"/>
    <path d="M 415.771240234375 225.21853637695312 C 412.643798828125 219.2789306640625 407.4131774902344 214.28146362304688 400.9952087402344 212.32635498046875 C 394.5772399902344 210.3712158203125 387.0089111328125 211.81817626953125 382.3443908691406 216.679931640625 C 379.0509033203125 220.12136840820312 377.4375305175781 224.952392578125 377.3125915527344 229.7183837890625 C 377.1876220703125 234.48443603515625 378.4425048828125 239.199951171875 380.2725524902344 243.60330200195312 C 381.0700988769531 245.51904296875 382.0453186035156 247.4708251953125 383.74017333984375 248.65887451171875 C 385.68267822265625 250.0218505859375 388.2099609375 250.13262939453125 390.5896301269531 250.08245849609375 C 397.307861328125 249.940673828125 404.2602844238281 248.76388549804688 409.75885009765625 244.89971923828125 C 415.2574462890625 241.03549194335938 418.8936767578125 233.9566650390625 417.157958984375 227.4813232421875 L 415.771240234375 225.21853637695312" stroke-width="0.6000000238418579" fill="rgb(159, 159, 159)" opacity="1.0"/>
    <path d="M 382.69293212890625 111.74760437011719 C 376.3770446777344 112.21493530273438 369.3769226074219 113.00802612304688 365.201904296875 117.75369262695312 C 361.13519287109375 122.3631591796875 361.0817565917969 129.16375732421875 361.362548828125 135.30706787109375 C 361.48028564453125 137.80255126953125 361.64324951171875 140.41131591796875 362.9266357421875 142.5531005859375 C 365.0951232910156 146.17678833007812 369.751220703125 147.39547729492188 373.96142578125 147.63131713867188 C 377.8691101074219 147.85171508789062 381.7882080078125 147.5098419189453 385.5987243652344 146.6162109375 C 391.7864990234375 145.1674346923828 398.2366943359375 141.53515625 399.77880859375 135.37234497070312 C 400.6162414550781 132.04647827148438 399.8467102050781 128.46241760253906 398.3219299316406 125.38446044921875 C 396.7971496582031 122.30648803710938 394.5505676269531 119.65005493164062 392.2952880859375 117.0592041015625 C 390.0400390625 114.46833801269531 387.7685241699219 111.97087097167969 384.7227783203125 110.56851196289062 L 382.69293212890625 111.74760437011719" stroke-width="0.6000000238418579" fill="rgb(218, 166, 20)" opacity="1.0"/>
    <path d="M 402.7177429199219 86.83541870117188 C 395.3564453125 80.03475952148438 383.8758850097656 80.48924255371094 377.0752258300781 87.85054016113281 C 376.4928894042969 88.48089599609375 375.95599365234375 89.15176391601562 375.4685974121094 89.85809326171875 C 373.6170654296875 92.54234313964844 372.4952392578125 95.88760375976562 373.11102294921875 99.08819580078125 C 373.63116455078125 101.79299926757812 375.3119812011719 104.12255859375 377.1544494628906 106.16748046875 C 382.09381103515625 111.6343994140625 388.40692138671875 115.6790771484375 395.43792724609375 117.88134765625 C 397.2973937988281 118.4603271484375 399.2593688964844 118.91007995605469 401.1870422363281 118.60464477539062 C 404.4234924316406 118.09378051757812 407.0093688964844 115.50358581542969 408.4920654296875 112.5791015625 C 410.6963195800781 108.23886108398438 410.90142822265625 103.03303527832031 409.541748046875 98.35772705078125 C 408.1820373535156 93.68241882324219 405.3544921875 89.51681518554688 401.85479736328125 86.13226318359375 L 402.7177429199219 86.83541870117188" stroke-width="0.6000000238418579" fill="rgb(143, 165, 67)" opacity="1.0"/>
    <path d="M 116.76373291015625 429.38214111328125 C 112.57485961914062 418.17529296875 94.54464721679688 416.4727783203125 87.641845703125 426.15032958984375 C 80.73910522460938 435.827880859375 87.43734741210938 451.6981201171875 99.09884643554688 454.387939453125 C 110.76036071777344 457.077880859375 123.30964660644531 446.94683837890625 124.01341247558594 434.98876953125 L 116.76373291015625 429.38214111328125" stroke-width="0.6000000238418579" fill="rgb(233, 92, 21)" opacity="1.0"/>
    <path d="M 455.75732421875 222.3936767578125 C 449.666259765625 220.484375 442.1923828125 218.83535766601562 437.5875244140625 223.28738403320312 C 435.823974609375 225.13043212890625 434.67578125 227.47528076171875 434.3013916015625 229.99853515625 C 433.20697021484375 236.216796875 435.1944580078125 242.5797119140625 439.63348388671875 247.06961059570312 C 443.40875244140625 250.86865234375 448.55419921875 252.83123779296875 453.57049560546875 254.61236572265625 C 456.38995361328125 255.60833740234375 459.417236328125 256.57672119140625 462.301513671875 255.8526611328125 C 466.13818359375 254.85601806640625 468.5906982421875 251.142333984375 470.25189208984375 247.54458618164062 C 472.68963623046875 242.28231811523438 474.259521484375 236.66018676757812 474.9007568359375 230.896240234375 C 475.11846923828125 228.904296875 475.2127685546875 226.8050537109375 474.3958740234375 224.97610473632812 C 473.54931640625 223.31436157226562 472.237548828125 221.93484497070312 470.6204833984375 221.00576782226562 C 465.824951171875 217.9967041015625 459.95086669921875 217.24273681640625 454.5509033203125 218.94326782226562 L 455.75732421875 222.3936767578125" stroke-width="0.6000000238418579" fill="rgb(70, 150, 179)" opacity="1.0"/>
    <path d="M 432.8717041015625 135.00050354003906 C 434.76055908203125 128.75694274902344 436.592041015625 121.75714111328125 433.61572265625 115.9573974609375 C 430.414794921875 109.72909545898438 422.53399658203125 107.19291687011719 415.56903076171875 107.91778564453125 C 412.883544921875 108.19613647460938 410.14007568359375 108.91659545898438 408.079345703125 110.6605224609375 C 406.384765625 112.093505859375 405.28668212890625 114.09461975097656 404.337646484375 116.10011291503906 C 401.3371887207031 122.42083740234375 399.4154052734375 129.8080291748047 401.821533203125 136.37646484375 C 404.2510986328125 142.9947509765625 411.2508850097656 147.66290283203125 418.2989501953125 147.32119750976562 C 425.3470458984375 146.9794921875 431.9046630859375 141.72500610351562 433.72027587890625 134.90139770507812 L 432.8717041015625 135.00050354003906" stroke-width="0.6000000238418579" fill="rgb(140, 28, 33)" opacity="1.0"/>
    <path d="M 380.9170837402344 60.5445556640625 C 382.4437561035156 67.32717895507812 384.1070861816406 74.36805725097656 388.3342590332031 79.89395141601562 C 392.5614013671875 85.41975402832031 400.18402099609375 89.01834106445312 406.6618347167969 86.48361206054688 C 414.6510009765625 83.33692932128906 416.919189453125 72.05377197265625 412.748046875 64.53056335449219 C 408.57696533203125 57.007354736328125 400.06195068359375 52.8948974609375 391.6639404296875 51.082244873046875 C 389.1204833984375 50.260650634765625 386.361572265625 50.42236328125 383.93157958984375 51.535491943359375 C 381.6703186035156 52.877593994140625 380.7558288574219 56.59544372558594 382.8944396972656 58.14775085449219 L 380.9170837402344 60.5445556640625" stroke-width="0.6000000238418579" fill="rgb(159, 159, 159)" opacity="1.0"/>
    <path d="M 432.9632568359375 248.48291015625 C 426.6241455078125 251.09487915039062 421.04180908203125 255.93563842773438 418.43963623046875 262.27490234375 C 415.83740234375 268.6141662597656 416.584716796875 276.4486999511719 421.0821533203125 281.6571350097656 C 424.2666015625 285.3355407714844 429.02484130859375 287.4383544921875 433.859375 288.02142333984375 C 438.69390869140625 288.6044921875 443.609130859375 287.77960205078125 448.26190185546875 286.3399658203125 C 450.28631591796875 285.7122497558594 452.3643798828125 284.9073181152344 453.734619140625 283.2975158691406 C 455.30645751953125 281.4526062011719 455.66094970703125 278.8932800292969 455.83758544921875 276.4686279296875 C 456.336181640625 269.6234130859375 455.80474853515625 262.4410095214844 452.40142822265625 256.4798583984375 C 448.998046875 250.51873779296875 442.14764404296875 246.143798828125 435.39691162109375 247.289306640625 L 432.9632568359375 248.48291015625" stroke-width="0.6000000238418579" fill="rgb(159, 159, 159)" opacity="1.0"/>
    <path d="M 414.1204833984375 261.50689697265625 C 409.8245544433594 256.05535888671875 404.813232421875 250.18182373046875 397.94268798828125 249.29769897460938 C 391.2622375488281 248.428466796875 385.0511169433594 252.54840087890625 379.6419982910156 256.569091796875 C 377.447021484375 258.2056884765625 375.17681884765625 259.9527893066406 374.0176696777344 262.43157958984375 C 372.0547180175781 266.6228332519531 373.8015441894531 271.59991455078125 376.16796875 275.5694580078125 C 378.36297607421875 279.25469970703125 381.0757751464844 282.60565185546875 384.2233581542969 285.519775390625 C 389.3323974609375 290.25335693359375 396.5860290527344 293.886962890625 403.1302185058594 291.51043701171875 C 406.66510009765625 290.2326354980469 409.44952392578125 287.3366394042969 411.311279296875 284.0647277832031 C 413.1729736328125 280.79278564453125 414.2093505859375 277.12347412109375 415.18072509765625 273.4864501953125 C 416.15216064453125 269.8494873046875 417.02874755859375 266.25494384765625 416.4359130859375 262.6282653808594 L 414.1204833984375 261.50689697265625" stroke-width="0.6000000238418579" fill="rgb(218, 166, 20)" opacity="1.0"/>
    <path d="M 409.33294677734375 87.91616821289062 C 406.8379821777344 98.21397399902344 413.1634521484375 108.5845947265625 423.46124267578125 111.07955932617188 C 424.343017578125 111.293212890625 425.2388916015625 111.44401550292969 426.14202880859375 111.5308837890625 C 429.5738525390625 111.86033630371094 433.24090576171875 111.17572021484375 435.8804931640625 108.96051025390625 C 438.111328125 107.08871459960938 439.3984375 104.33782958984375 440.33953857421875 101.58406066894531 C 442.848388671875 94.20942687988281 443.3369140625 86.29754638671875 441.75433349609375 78.67025756835938 C 441.3326416015625 76.65484619140625 440.73876953125 74.61123657226562 439.465087890625 72.98782348632812 C 437.328369140625 70.26115417480469 433.60565185546875 69.20503234863281 430.14166259765625 69.33985900878906 C 424.998779296875 69.53643798828125 420.084716796875 72.02488708496094 416.46563720703125 75.68582153320312 C 412.8465576171875 79.34675598144531 410.4533386230469 84.101318359375 409.12738037109375 89.07498168945312 L 409.33294677734375 87.91616821289062" stroke-width="0.6000000238418579" fill="rgb(143, 165, 67)" opacity="1.0"/>
    <path d="M 436.8529052734375 122.24330139160156 C 432.7244873046875 135.19090270996094 447.628173828125 149.37057495117188 460.58648681640625 145.57626342773438 C 473.5447998046875 141.78189086914062 478.7069091796875 122.90847778320312 470.18310546875 112.31881713867188 C 461.65924072265625 101.72918701171875 443.3408203125 101.96385192871094 434.3162841796875 112.14701843261719 L 436.8529052734375 122.24330139160156" stroke-width="0.6000000238418579" fill="rgb(233, 92, 21)" opacity="1.0"/>
    <path d="M 448.404052734375 90.69509887695312 C 448.5748291015625 96.74433898925781 449.40618896484375 103.95260620117188 454.81927490234375 106.70416259765625 C 457.01605224609375 107.71534729003906 459.4725341796875 108.01994323730469 461.8497314453125 107.57586669921875 C 467.76116943359375 106.63539123535156 472.85003662109375 102.88803100585938 475.502685546875 97.5220947265625 C 477.7410888671875 92.96453857421875 477.9102783203125 87.746337890625 477.95672607421875 82.70001220703125 C 477.97821044921875 79.86526489257812 477.9107666015625 76.85275268554688 476.37060546875 74.4913330078125 C 474.2918701171875 71.360595703125 470.20556640625 70.30989074707031 466.46771240234375 69.93264770507812 C 460.998046875 69.37371826171875 455.47393798828125 69.70379638671875 450.1097412109375 70.91006469726562 C 448.257080078125 71.33042907714844 446.346435546875 71.89454650878906 444.9595947265625 73.19184875488281 C 443.7318115234375 74.46405029296875 442.90069580078125 76.0660400390625 442.567626953125 77.80242919921875 C 441.3524169921875 83.03030395507812 442.49163818359375 88.52810668945312 445.684326171875 92.84255981445312 L 448.404052734375 90.69509887695312" stroke-width="0.6000000238418579" fill="rgb(70, 150, 179)" opacity="1.0"/>
    <path d="M 308.8940734863281 366.5586853027344 C 303.36846923828125 363.60723876953125 297.1198425292969 360.5677795410156 291.0986022949219 362.2817687988281 C 284.6315612792969 364.12689208984375 280.7629699707031 371.0728759765625 280.1376953125 377.7687683105469 C 279.8955078125 380.3503112792969 280.058837890625 383.0694274902344 281.3143310546875 385.3377380371094 C 282.3457336425781 387.2028503417969 284.0242004394531 388.6128234863281 285.7347717285156 389.88330078125 C 291.1242980957031 393.89617919921875 297.7208251953125 397.0933837890625 304.35894775390625 396.060791015625 C 311.0484619140625 395.01544189453125 316.759521484375 389.2995300292969 317.76129150390625 382.5973205566406 C 318.7630615234375 375.8951110839844 315.0457458496094 368.7322998046875 308.9600830078125 365.7408752441406 L 308.8940734863281 366.5586853027344" stroke-width="0.6000000238418579" fill="rgb(140, 28, 33)" opacity="1.0"/>
    <path d="M 293.73931884765625 394.2600402832031 C 285.89910888671875 391.4677429199219 277.7101745605469 388.6486511230469 269.41485595703125 389.3929138183594 C 261.1197204589844 390.13720703125 252.60360717773438 395.5500183105469 251.0263671875 403.72637939453125 C 249.10198974609375 413.8236083984375 259.0700378417969 423.3341064453125 269.3507385253906 423.923828125 C 279.6314392089844 424.51348876953125 289.23822021484375 418.526123046875 296.44287109375 411.1865539550781 C 298.9007568359375 409.1379699707031 300.5013122558594 406.2425842285156 300.9287414550781 403.0716247558594 C 301.01654052734375 399.925048828125 297.8388977050781 396.6221618652344 294.900390625 397.79376220703125 L 293.73931884765625 394.2600402832031" stroke-width="0.6000000238418579" fill="rgb(159, 159, 159)" opacity="1.0"/>
    <path d="M 323.9864501953125 414.43408203125 C 319.0474853515625 419.34393310546875 315.68310546875 426.0528564453125 315.6976318359375 433.013427734375 C 315.7121276855469 439.9739990234375 319.45098876953125 447.039794921875 325.6927185058594 450.186279296875 C 330.1085205078125 452.40521240234375 335.39105224609375 452.5347900390625 340.15606689453125 451.2080078125 C 344.92108154296875 449.88116455078125 349.21600341796875 447.201171875 353.0262145996094 444.0457763671875 C 354.68353271484375 442.671630859375 356.3224792480469 441.11029052734375 356.98486328125 439.067626953125 C 357.745361328125 436.7261962890625 357.08599853515625 434.1859130859375 356.31182861328125 431.84100341796875 C 354.126220703125 425.220947265625 350.8428039550781 418.6837158203125 345.3365173339844 414.4063720703125 C 339.8302307128906 410.12908935546875 331.7025451660156 408.6773986816406 325.8086242675781 412.3699951171875 L 323.9864501953125 414.43408203125" stroke-width="0.6000000238418579" fill="rgb(159, 159, 159)" opacity="1.0"/>
    <path d="M 257.0968017578125 415.399169921875 C 250.24166870117188 415.345458984375 242.61953735351562 415.5826416015625 237.69610595703125 420.333740234375 C 232.90155029296875 424.9473876953125 232.2431640625 432.2794189453125 232.00341796875 438.93194580078125 C 231.90997314453125 441.634521484375 231.8553466796875 444.46337890625 233.05072021484375 446.887451171875 C 235.070068359375 450.9884033203125 239.98562622070312 452.7144775390625 244.5069580078125 453.3408203125 C 248.70327758789062 453.923828125 252.9615478515625 453.90118408203125 257.1514892578125 453.273681640625 C 263.9551086425781 452.25732421875 271.2347106933594 448.908447265625 273.44287109375 442.39599609375 C 274.6401062011719 438.8818359375 274.12652587890625 434.947265625 272.75341796875 431.49188232421875 C 271.38031005859375 428.0364990234375 269.1912841796875 424.97216796875 266.987060546875 421.97784423828125 C 264.7828674316406 418.9835205078125 262.5528564453125 416.08843994140625 259.3908386230469 414.30645751953125 L 257.0968017578125 415.399169921875" stroke-width="0.6000000238418579" fill="rgb(218, 166, 20)" opacity="1.0"/>
    <path d="M 221.6092529296875 411.08856201171875 C 211.8798828125 403.2622375488281 197.64813232421875 404.8049621582031 189.82183837890625 414.5343017578125 C 189.15164184570312 415.367431640625 188.54144287109375 416.2470703125 187.9957275390625 417.16656494140625 C 185.9228515625 420.6607666015625 184.8133544921875 424.91455078125 185.85140991210938 428.8404541015625 C 186.72830200195312 432.15826416015625 189.0159912109375 434.9107666015625 191.4803466796875 437.295654296875 C 198.08563232421875 443.67047119140625 206.27734375 448.16033935546875 215.20449829101562 450.2989501953125 C 217.56515502929688 450.8602294921875 220.042236328125 451.252197265625 222.41229248046875 450.7083740234375 C 226.3917236328125 449.7977294921875 229.3853759765625 446.35784912109375 230.97930908203125 442.596435546875 C 233.349609375 437.013671875 233.16119384765625 430.525390625 231.0728759765625 424.8297119140625 C 228.98455810546875 419.134033203125 225.1151123046875 414.197021484375 220.4766845703125 410.28802490234375 L 221.6092529296875 411.08856201171875" stroke-width="0.6000000238418579" fill="rgb(143, 165, 67)" opacity="1.0"/>
    <path d="M 255.5806884765625 362.3275146484375 C 262.4272766113281 374.24896240234375 283.1872863769531 372.8044738769531 289.2018737792969 360.54083251953125 C 295.21636962890625 348.27716064453125 284.6520080566406 331.538330078125 270.92755126953125 330.6714172363281 C 257.203125 329.80450439453125 244.87185668945312 343.63909912109375 246.3121337890625 357.32806396484375 L 255.5806884765625 362.3275146484375" stroke-width="0.6000000238418579" fill="rgb(233, 92, 21)" opacity="1.0"/>
    <path d="M 325.80767822265625 347.0140075683594 C 321.2137145996094 351.9102478027344 316.23394775390625 358.2353515625 318.3450622558594 364.63287353515625 C 319.2842712402344 367.1461486816406 320.9801940917969 369.3060302734375 323.198974609375 370.8145446777344 C 328.5883483886719 374.69476318359375 335.52410888671875 375.72210693359375 341.8068542480469 373.57073974609375 C 347.1316833496094 371.7321472167969 351.34368896484375 367.7559509277344 355.32470703125 363.8191223144531 C 357.55743408203125 361.6040344238281 359.8590393066406 359.1794738769531 360.49224853515625 356.11639404296875 C 361.302734375 352.0266418457031 358.90673828125 348.00531005859375 356.2586975097656 344.78662109375 C 352.3891296386719 340.0711669921875 347.7818603515625 336.01312255859375 342.6155700683594 332.7698974609375 C 340.828369140625 331.65277099609375 338.88311767578125 330.6034851074219 336.7771911621094 330.54083251953125 C 334.81610107421875 330.582763671875 332.9095458984375 331.19439697265625 331.2900390625 332.3011779785156 C 326.24688720703125 335.46734619140625 322.84649658203125 340.6864318847656 321.9877624511719 346.578857421875 L 325.80767822265625 347.0140075683594" stroke-width="0.6000000238418579" fill="rgb(70, 150, 179)" opacity="1.0"/>
    <path d="M 296.0523376464844 414.02288818359375 C 288.78436279296875 415.1693115234375 280.7764892578125 416.7451171875 276.3473205566406 422.6146240234375 C 271.59320068359375 428.922607421875 272.88580322265625 438.171142578125 277.0407409667969 444.8887939453125 C 278.6416015625 447.4794921875 280.7198791503906 449.91204833984375 283.5025329589844 451.14886474609375 C 285.78961181640625 452.16644287109375 288.36090087890625 452.29937744140625 290.8634948730469 452.27880859375 C 298.7554626464844 452.2235107421875 307.2010498046875 450.5491943359375 312.6907958984375 444.8814697265625 C 318.2196350097656 439.1654052734375 319.524658203125 429.76519775390625 315.7180480957031 422.7750244140625 C 311.91143798828125 415.78485107421875 303.3562927246094 411.7042541503906 295.53515625 413.209716796875 L 296.0523376464844 414.02288818359375" stroke-width="0.6000000238418579" fill="rgb(140, 28, 33)" opacity="1.0"/>
    <path d="M 325.1388854980469 375.67340087890625 C 318.0638122558594 379.5889892578125 310.74493408203125 383.7413635253906 305.9533386230469 390.26239013671875 C 301.1618347167969 396.7833251953125 299.6289367675781 406.4670104980469 304.5706481933594 412.8731689453125 C 310.6883239746094 420.7672119140625 324.0252990722656 419.6214599609375 331.0651550292969 412.51190185546875 C 338.1050109863281 405.4023742675781 339.92071533203125 394.5548095703125 339.2068786621094 384.5875549316406 C 339.2950134277344 381.47998046875 338.215087890625 378.452392578125 336.18011474609375 376.1021728515625 C 333.9445495605469 374.0150146484375 329.4954833984375 374.20599365234375 328.4595031738281 377.0997619628906 L 325.1388854980469 375.67340087890625" stroke-width="0.6000000238418579" fill="rgb(159, 159, 159)" opacity="1.0"/>
    <path d="M 371.2382507324219 410.2081298828125 C 364.9590759277344 413.6578369140625 359.7250671386719 419.33404541015625 357.76007080078125 426.21978759765625 C 355.79510498046875 433.10552978515625 357.4822998046875 441.154541015625 362.758544921875 446.04022216796875 C 366.4933166503906 449.48974609375 371.6791076660156 451.1199951171875 376.76739501953125 451.1632080078125 C 381.855712890625 451.2064208984375 386.8640441894531 449.7781982421875 391.5283508300781 447.74200439453125 C 393.5576171875 446.854736328125 395.6219787597656 445.777099609375 396.85772705078125 443.946044921875 C 398.2754211425781 441.84735107421875 398.34588623046875 439.1483154296875 398.247314453125 436.60986328125 C 397.968994140625 429.443359375 396.5817565917969 422.0465087890625 392.3542175292969 416.251953125 C 388.12664794921875 410.4573059082031 380.5038757324219 406.7108459472656 373.626708984375 408.6855773925781 L 371.2382507324219 410.2081298828125" stroke-width="0.6000000238418579" fill="rgb(159, 159, 159)" opacity="1.0"/>
    <path d="M 246.437744140625 367.0627136230469 C 247.05221557617188 359.67388916015625 247.4151611328125 351.4342346191406 242.69091796875 345.7386779785156 C 238.10440063476562 340.1932678222656 230.25030517578125 338.887939453125 223.0950927734375 338.08929443359375 C 220.18792724609375 337.76910400390625 217.1414794921875 337.48052978515625 214.43014526367188 338.57293701171875 C 209.8433837890625 340.4178466796875 207.58273315429688 345.5791015625 206.5401611328125 350.4044494628906 C 205.57077026367188 354.8828125 205.24945068359375 359.4771728515625 205.58602905273438 364.046875 C 206.12985229492188 371.467041015625 209.15057373046875 379.58990478515625 215.99496459960938 382.50006103515625 C 219.68768310546875 384.0765686035156 223.97283935546875 383.84210205078125 227.81088256835938 382.6417541503906 C 231.64892578125 381.44140625 235.1314697265625 379.32928466796875 238.539794921875 377.1951599121094 C 241.9481201171875 375.0610656738281 245.25146484375 372.89105224609375 247.43002319335938 369.6255187988281 L 246.437744140625 367.0627136230469" stroke-width="0.6000000238418579" fill="rgb(218, 166, 20)" opacity="1.0"/>
    <path d="M 249.23828125 393.7994079589844 C 246.05535888671875 382.3462219238281 234.1904296875 375.6418151855469 222.73724365234375 378.8247375488281 C 221.7564697265625 379.0972595214844 220.79632568359375 379.4390563964844 219.86395263671875 379.8475036621094 C 216.3214111328125 381.4001159667969 213.10260009765625 384.0748291015625 211.72689819335938 387.687744140625 C 210.56402587890625 390.7408142089844 210.80615234375 394.1395263671875 211.38897705078125 397.3519287109375 C 212.9608154296875 405.9486083984375 216.8057861328125 413.9676513671875 222.52450561523438 420.575927734375 C 224.0390625 422.3201904296875 225.73770141601562 423.998046875 227.87283325195312 424.892578125 C 231.45645141601562 426.396484375 235.68109130859375 425.39691162109375 239.00140380859375 423.371826171875 C 243.9329833984375 420.3687744140625 247.38790893554688 415.24517822265625 248.9332275390625 409.68048095703125 C 250.47857666015625 404.11578369140625 250.2252197265625 398.1494445800781 248.80645751953125 392.5516662597656 L 249.23828125 393.7994079589844" stroke-width="0.6000000238418579" fill="rgb(143, 165, 67)" opacity="1.0"/>
    <path d="M 193.11221313476562 367.314453125 C 178.80096435546875 362.80487060546875 163.200927734375 379.31365966796875 167.43905639648438 393.60693359375 C 171.67724609375 407.9001770019531 192.53521728515625 413.52880859375 204.19540405273438 404.07763671875 C 215.8555908203125 394.62646484375 215.527587890625 374.401611328125 204.25018310546875 364.4757385253906 L 193.11221313476562 367.314453125" stroke-width="0.6000000238418579" fill="rgb(233, 92, 21)" opacity="1.0"/>
    <path d="M 246.95840454101562 373.6767578125 C 242.60333251953125 378.6680603027344 237.918701171875 385.08197021484375 240.22821044921875 391.3146057128906 C 241.24380493164062 393.7591857910156 242.99295043945312 395.828369140625 245.234375 397.2366943359375 C 250.68646240234375 400.8704833984375 257.5616149902344 401.63623046875 263.6796569824219 399.2911682128906 C 268.8643493652344 397.2886047363281 272.8756103515625 393.218017578125 276.66058349609375 389.19451904296875 C 278.7830505371094 386.930908203125 280.9660339355469 384.4583435058594 281.481201171875 381.4156188964844 C 282.1346130371094 377.3542785644531 279.62890625 373.4747314453125 276.90325927734375 370.3954772949219 C 272.9198913574219 365.884033203125 268.23260498046875 362.0470275878906 263.02313232421875 359.0333557128906 C 261.22119140625 357.9955749511719 259.26580810546875 357.0303039550781 257.1871643066406 357.0435791015625 C 255.25506591796875 357.15478515625 253.39700317382812 357.8258056640625 251.83966064453125 358.97479248046875 C 246.97998046875 362.2762756347656 243.813232421875 367.54339599609375 243.176513671875 373.3838195800781 L 246.95840454101562 373.6767578125" stroke-width="0.6000000238418579" fill="rgb(70, 150, 179)" opacity="1.0"/>
    <path d="M 323.9411926269531 351.14581298828125 C 323.116943359375 344.19805908203125 321.9116516113281 336.5316162109375 316.49603271484375 332.1090087890625 C 310.67559814453125 327.3616638183594 301.8406982421875 328.2525939941406 295.3061218261719 331.9555969238281 C 292.7860412597656 333.3822326660156 290.3988952636719 335.268310546875 289.1221923828125 337.8672180175781 C 288.0718994140625 340.0032653808594 287.851806640625 342.4416198730469 287.78009033203125 344.8203125 C 287.54486083984375 352.3211975097656 288.8277587890625 360.40716552734375 294.0129699707031 365.8301086425781 C 299.2426452636719 371.2920227050781 308.1270446777344 372.87481689453125 314.9078369140625 369.51275634765625 C 321.68865966796875 366.15069580078125 325.8779602050781 358.1705017089844 324.7326965332031 350.6840515136719 L 323.9411926269531 351.14581298828125" stroke-width="0.6000000238418579" fill="rgb(140, 28, 33)" opacity="1.0"/>
    <path d="M 372.7779541015625 390.6534423828125 C 365.2491455078125 389.2865295410156 357.39990234375 387.94720458984375 349.984375 389.8566589355469 C 342.5689697265625 391.7661437988281 335.6477355957031 397.94427490234375 335.4332580566406 405.5972900390625 C 335.1895751953125 415.044677734375 345.6485595703125 422.1904296875 355.06390380859375 421.19580078125 C 364.4792785644531 420.20123291015625 372.3045959472656 413.339599609375 377.7492980957031 405.6085205078125 C 379.67449951171875 403.3841552734375 380.6959228515625 400.51904296875 380.6119079589844 397.5784606933594 C 380.2234191894531 394.71051025390625 376.8489074707031 392.1866455078125 374.357177734375 393.68682861328125 L 372.7779541015625 390.6534423828125" stroke-width="0.6000000238418579" fill="rgb(159, 159, 159)" opacity="1.0"/>
    <path d="M 171.21444702148438 407.4861755371094 C 163.88534545898438 408.5743713378906 156.76943969726562 412.1973876953125 152.38880920410156 418.1683349609375 C 148.0081787109375 424.139404296875 146.75108337402344 432.5511474609375 150.1114501953125 439.185546875 C 152.4932098388672 443.87310791015625 156.93600463867188 447.318115234375 161.854736328125 449.18902587890625 C 166.77349853515625 451.0599365234375 172.14361572265625 451.47515869140625 177.398681640625 451.17724609375 C 179.68545532226562 451.0462646484375 182.07464599609375 450.7432861328125 183.93118286132812 449.411865234375 C 186.06036376953125 447.88629150390625 187.098876953125 445.2943115234375 187.91571044921875 442.7972412109375 C 190.22186279296875 435.7476806640625 191.53543090820312 428.0760498046875 189.51873779296875 420.937255859375 C 187.50204467773438 413.79840087890625 181.45672607421875 407.4253234863281 174.07791137695312 406.8682556152344 L 171.21444702148438 407.4861755371094" stroke-width="0.6000000238418579" fill="rgb(159, 159, 159)" opacity="1.0"/>
    <path d="M 374.1344299316406 362.03570556640625 C 368.1390686035156 358.9468994140625 361.34112548828125 355.77325439453125 354.9100341796875 357.7604064941406 C 348.653076171875 359.6841125488281 344.82171630859375 365.8299560546875 341.6594543457031 371.56488037109375 C 340.3782653808594 373.896484375 339.07513427734375 376.35614013671875 339.0491943359375 379.01495361328125 C 339.0027160644531 383.5118408203125 342.5530090332031 387.2084655761719 346.24505615234375 389.7645568847656 C 349.6710205078125 392.13836669921875 353.4200744628906 394.0079040527344 357.37750244140625 395.3160095214844 C 363.80242919921875 397.44232177734375 371.6802673339844 397.7318115234375 376.50872802734375 392.99322509765625 C 379.11920166015625 390.4388427734375 380.4140319824219 386.7561340332031 380.7415466308594 383.1128845214844 C 381.0690002441406 379.4696350097656 380.50653076171875 375.80767822265625 379.89971923828125 372.200439453125 C 379.2928771972656 368.5932312011719 378.6193542480469 365.0617370605469 376.6335754394531 362.09405517578125 L 374.1344299316406 362.03570556640625" stroke-width="0.6000000238418579" fill="rgb(218, 166, 20)" opacity="1.0"/>
    <path d="M 377.8659973144531 384.9314270019531 C 373.3201904296875 395.79620361328125 378.4427490234375 408.2889709472656 389.3075256347656 412.834716796875 C 390.2378845214844 413.2239990234375 391.1946716308594 413.5467529296875 392.17071533203125 413.8006591796875 C 395.8796081542969 414.7645263671875 400.0246276855469 414.65673828125 403.310546875 412.6885986328125 C 406.08758544921875 411.02569580078125 407.983154296875 408.2322998046875 409.4993896484375 405.375 C 413.54736328125 397.7210693359375 415.47216796875 389.12286376953125 415.0738525390625 380.47357177734375 C 414.9647216796875 378.1874694824219 414.671630859375 375.8402404785156 413.5584716796875 373.8348388671875 C 411.69183349609375 370.46710205078125 407.7912292480469 368.654541015625 403.9655456542969 368.1945495605469 C 398.2862854003906 367.5076904296875 392.45599365234375 369.3764953613281 387.8412170410156 372.7594909667969 C 383.22650146484375 376.1424865722656 379.7652893066406 380.94097900390625 377.4369812011719 386.167236328125 L 377.8659973144531 384.9314270019531" stroke-width="0.6000000238418579" fill="rgb(143, 165, 67)" opacity="1.0"/>
    <path d="M 365.8950500488281 357.7976989746094 C 368.6607666015625 371.4718933105469 389.1105041503906 376.7432556152344 398.83636474609375 366.8668212890625 C 408.5621643066406 356.9903869628906 403.7631530761719 337.4853515625 390.8284912109375 332.2464904785156 C 377.8938293457031 327.00762939453125 361.5826110839844 336.3693542480469 358.57635498046875 350.0102844238281 L 365.8950500488281 357.7976989746094" stroke-width="0.6000000238418579" fill="rgb(233, 92, 21)" opacity="1.0"/>
    <path d="M 405.7667236328125 349.691162109375 C 403.89654541015625 356.3446044921875 402.3526306152344 364.48626708984375 407.3190612792969 369.32635498046875 C 409.3704528808594 371.17559814453125 411.94512939453125 372.34271240234375 414.68792724609375 372.6666564941406 C 421.4527587890625 373.6507873535156 428.27496337890625 371.29498291015625 432.9910888671875 366.3463134765625 C 436.98095703125 362.13824462890625 438.939208984375 356.50640869140625 440.705322265625 351.0202941894531 C 441.6923828125 347.9368896484375 442.64288330078125 344.6294860839844 441.76641845703125 341.53131103515625 C 440.56427001953125 337.4112854003906 436.4661865234375 334.87664794921875 432.51910400390625 333.1947326660156 C 426.74560546875 330.7259826660156 420.610595703125 329.2080383300781 414.35198974609375 328.69970703125 C 412.189208984375 328.5282287597656 409.9143371582031 328.4938049316406 407.9612731933594 329.436767578125 C 406.1901550292969 330.4064636230469 404.73944091796875 331.87054443359375 403.7860412597656 333.6505126953125 C 400.6839294433594 338.937255859375 400.0571594238281 345.3186950683594 402.0714111328125 351.10797119140625 L 405.7667236328125 349.691162109375" stroke-width="0.6000000238418579" fill="rgb(70, 150, 179)" opacity="1.0"/>
    <path d="M 396.1898193359375 428.26513671875 C 396.9954833984375 435.5089111328125 398.192626953125 443.504150390625 403.8003234863281 448.15240478515625 C 409.8272399902344 453.14208984375 419.03729248046875 452.28131103515625 425.87255859375 448.4737548828125 C 428.508544921875 447.0068359375 431.0096435546875 445.060302734375 432.359375 442.36279296875 C 433.4697265625 440.1456298828125 433.717529296875 437.6072998046875 433.8104248046875 435.1300048828125 C 434.11260986328125 427.318115234375 432.83782958984375 418.88525390625 427.477783203125 413.19671630859375 C 422.0716552734375 407.46722412109375 412.82891845703125 405.7507019042969 405.7397766113281 409.2012634277344 C 398.650634765625 412.65185546875 394.225830078125 420.932861328125 395.36181640625 428.7401123046875 L 396.1898193359375 428.26513671875" stroke-width="0.6000000238418579" fill="rgb(140, 28, 33)" opacity="1.0"/>
    <path d="M 416.2547607421875 374.7366027832031 C 414.136962890625 382.59124755859375 412.01995849609375 390.7878112792969 413.38336181640625 398.8138427734375 C 414.746826171875 406.8397521972656 420.676513671875 414.7218017578125 428.7652587890625 415.629638671875 C 438.75244140625 416.72802734375 447.2530517578125 406.2830810546875 447.03668212890625 396.2197570800781 C 446.82037353515625 386.1564025878906 440.2469482421875 377.2557678222656 432.5406494140625 370.7999267578125 C 430.3553466796875 368.5624694824219 427.41082763671875 367.2255554199219 424.28802490234375 367.0530090332031 C 421.215087890625 367.2095031738281 418.2410888671875 370.5600891113281 419.60882568359375 373.33331298828125 L 416.2547607421875 374.7366027832031" stroke-width="0.6000000238418579" fill="rgb(159, 159, 159)" opacity="1.0"/>
    <path d="M 435.64141845703125 369.7817687988281 C 437.8863525390625 376.73773193359375 442.5634765625 383.0760498046875 449.082763671875 386.3726806640625 C 455.60211181640625 389.6692810058594 463.9912109375 389.5314025878906 469.9034423828125 385.18780517578125 C 474.07952880859375 382.1115417480469 476.71295166015625 377.230712890625 477.73760986328125 372.1414794921875 C 478.7623291015625 367.0522155761719 478.29736328125 361.75927734375 477.1571044921875 356.6937255859375 C 476.6595458984375 354.4896240234375 475.9781494140625 352.21368408203125 474.382080078125 350.6225280761719 C 472.552978515625 348.7974548339844 469.8626708984375 348.2063293457031 467.300537109375 347.81549072265625 C 460.0672607421875 346.7121276855469 452.389404296875 346.67529296875 445.768798828125 349.7929382324219 C 439.1483154296875 352.91064453125 433.9248046875 359.82470703125 434.57672119140625 367.09527587890625 L 435.64141845703125 369.7817687988281" stroke-width="0.6000000238418579" fill="rgb(159, 159, 159)" opacity="1.0"/>
    <path d="M 437.2724609375 410.86309814453125 C 433.60101318359375 417.02337646484375 429.786865234375 424.0299072265625 431.4739990234375 430.985595703125 C 433.105224609375 437.7523193359375 439.37646484375 442.22174072265625 445.25555419921875 445.95404052734375 C 447.64605712890625 447.46673583984375 450.1710205078125 449.0111083984375 452.99114990234375 449.2130126953125 C 457.7606201171875 449.557373046875 461.91680908203125 446.03192138671875 464.87176513671875 442.28118896484375 C 467.6158447265625 438.8009033203125 469.845947265625 434.94464111328125 471.49383544921875 430.8304443359375 C 474.1719970703125 424.151123046875 474.9959716796875 415.809326171875 470.2835693359375 410.3739929199219 C 467.743896484375 407.4359130859375 463.9202880859375 405.82012939453125 460.0751953125 405.23358154296875 C 456.2301025390625 404.64703369140625 452.3067626953125 405.0037536621094 448.4385986328125 405.4111633300781 C 444.5704345703125 405.8185729980469 440.77825927734375 406.3017272949219 437.4984130859375 408.2145690917969 L 437.2724609375 410.86309814453125" stroke-width="0.6000000238418579" fill="rgb(218, 166, 20)" opacity="1.0"/>
    <path d="M 137.69358825683594 208.76058959960938 C 133.463623046875 221.03878784179688 139.98800659179688 234.42132568359375 152.26620483398438 238.65127563476562 C 153.3175811767578 239.01348876953125 154.39334106445312 239.3006591796875 155.48538208007812 239.5106201171875 C 159.635009765625 240.3077392578125 164.18832397460938 239.89453125 167.6641845703125 237.49542236328125 C 170.60174560546875 235.46829223632812 172.48907470703125 232.25982666015625 173.95440673828125 229.00799560546875 C 177.86480712890625 220.29827880859375 179.37179565429688 210.70040893554688 178.31884765625 201.21136474609375 C 178.03631591796875 198.70361328125 177.5469970703125 196.1416015625 176.1796875 194.0140380859375 C 173.8863525390625 190.44094848632812 169.46548461914062 188.72369384765625 165.22317504882812 188.4893798828125 C 158.92514038085938 188.13714599609375 152.64248657226562 190.6077880859375 147.8050079345703 194.65826416015625 C 142.96751403808594 198.70867919921875 139.4999237060547 204.23468017578125 137.309326171875 210.15087890625 L 137.69358825683594 208.76058959960938" stroke-width="0.6000000238418579" fill="rgb(143, 165, 67)" opacity="1.0"/>
    <path d="M 170.089599609375 268.27099609375 C 179.87069702148438 280.0506591796875 202.37710571289062 274.5162048339844 206.64425659179688 259.91436767578125 C 210.91134643554688 245.31256103515625 196.13409423828125 228.95376586914062 180.90850830078125 230.61331176757812 C 165.68295288085938 232.27288818359375 154.78294372558594 249.80029296875 158.96759033203125 264.54803466796875 L 170.089599609375 268.27099609375" stroke-width="0.6000000238418579" fill="rgb(233, 92, 21)" opacity="1.0"/>
    <path d="M 140.22862243652344 303.6456298828125 C 132.9117431640625 303.1988830566406 124.12522888183594 303.4241027832031 120.2213134765625 309.6580810546875 C 118.7642822265625 312.19940185546875 118.13169860839844 315.1302490234375 118.41096496582031 318.0462951660156 C 118.90774536132812 325.27996826171875 122.87982177734375 331.8240966796875 129.06759643554688 335.603515625 C 134.3247528076172 338.7960510253906 140.602294921875 339.563232421875 146.68569946289062 340.163818359375 C 150.10353088378906 340.4956359863281 153.74539184570312 340.7393493652344 156.76068115234375 339.1359558105469 C 160.76223754882812 336.9657897949219 162.47085571289062 332.1490173339844 163.329345703125 327.67999267578125 C 164.59393310546875 321.14111328125 164.79180908203125 314.4406433105469 163.915283203125 307.8385009765625 C 163.6080322265625 305.5579528808594 163.13360595703125 303.19189453125 161.71807861328125 301.378662109375 C 160.31564331054688 299.760009765625 158.4725341796875 298.58441162109375 156.41348266601562 297.99517822265625 C 150.2371826171875 295.96484375 143.48110961914062 296.7461242675781 137.93118286132812 300.13250732421875 L 140.22862243652344 303.6456298828125" stroke-width="0.6000000238418579" fill="rgb(70, 150, 179)" opacity="1.0"/>
    <path d="M 122.95819091796875 302.7048034667969 C 122.33944702148438 294.917724609375 121.32666015625 286.31231689453125 115.47611999511719 281.1437072753906 C 109.18801879882812 275.59521484375 99.2926025390625 276.2066650390625 91.84185791015625 280.0550231933594 C 88.96853637695312 281.53759765625 86.22358703613281 283.5384521484375 84.68670654296875 286.3826904296875 C 83.42242431640625 288.7203369140625 83.07130432128906 291.43121337890625 82.88827514648438 294.0819091796875 C 82.30107116699219 302.4402160644531 83.38227844238281 311.51702880859375 88.93243408203125 317.791748046875 C 94.530517578125 324.11187744140625 104.3740234375 326.2624206542969 112.084716796875 322.8050842285156 C 119.79541015625 319.3477478027344 124.8148193359375 310.6258850097656 123.8612060546875 302.2239074707031 L 122.95819091796875 302.7048034667969" stroke-width="0.6000000238418579" fill="rgb(140, 28, 33)" opacity="1.0"/>
    <path d="M 145.1824951171875 251.1287841796875 C 137.3537139892578 255.33718872070312 129.25381469726562 259.8025817871094 123.89971923828125 266.9052734375 C 118.54573059082031 274.0079040527344 116.730712890625 284.6304931640625 122.07591247558594 291.73785400390625 C 128.69357299804688 300.4964294433594 143.36746215820312 299.41644287109375 151.20050048828125 291.6971435546875 C 159.03353881835938 283.97784423828125 161.175048828125 272.07989501953125 160.5245361328125 261.11541748046875 C 160.6632080078125 257.70111083984375 159.51699829101562 254.3590087890625 157.31201171875 251.74856567382812 C 154.88296508789062 249.42449951171875 149.99049377441406 249.5745849609375 148.8129425048828 252.74114990234375 L 145.1824951171875 251.1287841796875" stroke-width="0.6000000238418579" fill="rgb(159, 159, 159)" opacity="1.0"/>
    <path d="M 160.04428100585938 290.22332763671875 C 160.0799560546875 297.8865051269531 162.74200439453125 305.70440673828125 168.210205078125 311.0675354003906 C 173.67840576171875 316.4306945800781 182.10491943359375 318.9552917480469 189.39117431640625 316.49127197265625 C 194.54046630859375 314.74267578125 198.72091674804688 310.7012939453125 201.35995483398438 305.9410400390625 C 203.99899291992188 301.1808166503906 205.21420288085938 295.7442932128906 205.682373046875 290.3207092285156 C 205.88473510742188 287.9603576660156 205.9261474609375 285.4698486328125 204.83621215820312 283.37335205078125 C 203.58773803710938 280.96917724609375 201.0870361328125 279.524658203125 198.65090942382812 278.3210144042969 C 191.77322387695312 274.92291259765625 184.11279296875 272.44940185546875 176.5078125 273.463623046875 C 168.90280151367188 274.4778137207031 161.48895263671875 279.7289733886719 159.8330078125 287.2009582519531 L 160.04428100585938 290.22332763671875" stroke-width="0.6000000238418579" fill="rgb(159, 159, 159)" opacity="1.0"/>
    <path d="M 126.07107543945312 351.750732421875 C 125.75164794921875 344.14605712890625 125.06716918945312 335.70697021484375 119.52651977539062 330.5100402832031 C 114.14532470703125 325.44842529296875 105.97836303710938 325.1236877441406 98.58811950683594 325.22564697265625 C 95.58598327636719 325.2714538574219 92.446044921875 325.3672790527344 89.82412719726562 326.82684326171875 C 85.38818359375 329.2928466796875 83.74589538574219 334.83917236328125 83.30133056640625 339.88751220703125 C 82.88687133789062 344.5730895996094 83.14736938476562 349.29388427734375 84.07484436035156 353.9053955078125 C 85.57809448242188 361.3937683105469 89.69413757324219 369.2810363769531 97.0379638671875 371.36956787109375 C 101.0009765625 372.5029296875 105.33570861816406 371.7158508300781 109.09144592285156 370.002197265625 C 112.84718322753906 368.28851318359375 116.12420654296875 365.6916198730469 119.32279968261719 363.0818176269531 C 122.52139282226562 360.4720153808594 125.60842895507812 357.8390808105469 127.40966796875 354.23419189453125 L 126.07107543945312 351.750732421875" stroke-width="0.6000000238418579" fill="rgb(218, 166, 20)" opacity="1.0"/>
    <path d="M 152.88507080078125 341.03045654296875 C 140.3174591064453 339.09661865234375 128.5616912841797 347.71697998046875 126.62783813476562 360.28460693359375 C 126.46223449707031 361.3607482910156 126.37319946289062 362.44732666015625 126.36135864257812 363.5361022949219 C 126.31716918945312 367.6732177734375 127.50949096679688 371.9881896972656 130.42727661132812 374.91864013671875 C 132.8927764892578 377.39532470703125 136.31326293945312 378.6540832519531 139.70191955566406 379.49871826171875 C 148.77561950683594 381.7471008300781 158.28585815429688 381.5249328613281 167.24468994140625 378.85528564453125 C 169.61160278320312 378.1456604003906 171.99468994140625 377.2273254394531 173.8060302734375 375.5388488769531 C 176.8486328125 372.7060546875 177.73208618164062 368.1470947265625 177.21783447265625 364.0188293457031 C 176.45867919921875 357.8893737792969 172.98239135742188 352.2671203613281 168.236083984375 348.3127746582031 C 163.48980712890625 344.35845947265625 157.56076049804688 341.98138427734375 151.478515625 340.9027404785156 L 152.88507080078125 341.03045654296875" stroke-width="0.6000000238418579" fill="rgb(143, 165, 67)" opacity="1.0"/>
    <path d="M 136.9828338623047 380.45770263671875 C 131.8916015625 366.8319396972656 109.9708251953125 364.759521484375 101.57711791992188 376.5244140625 C 93.18344116210938 388.2893371582031 101.32489013671875 407.5851745605469 115.50250244140625 410.8571472167969 C 129.6800994873047 414.12908935546875 144.9388427734375 401.81365966796875 145.79615783691406 387.2751770019531 L 136.9828338623047 380.45770263671875" stroke-width="0.6000000238418579" fill="rgb(233, 92, 21)" opacity="1.0"/>
    <path d="M 172.29000854492188 346.4207458496094 C 174.05264282226562 353.5919494628906 176.90191650390625 361.975341796875 184.06744384765625 363.86224365234375 C 186.94827270507812 364.502197265625 189.95669555664062 364.2324523925781 192.67767333984375 363.0901184082031 C 199.48614501953125 360.4449462890625 204.59014892578125 354.663818359375 206.37115478515625 347.58001708984375 C 207.8665771484375 341.567138671875 206.72354125976562 335.2995300292969 205.47845458984375 329.2685852050781 C 204.77352905273438 325.88189697265625 203.91671752929688 322.3061218261719 201.47113037109375 319.886474609375 C 198.18490600585938 316.68798828125 193.04022216796875 316.48785400390625 188.48468017578125 317.001220703125 C 181.816650390625 317.744140625 175.31289672851562 319.56146240234375 169.2255859375 322.3826599121094 C 167.12420654296875 323.3614807128906 164.99072265625 324.5267333984375 163.67086791992188 326.4314880371094 C 162.53427124023438 328.26531982421875 161.955810546875 330.3902587890625 162.00604248046875 332.54718017578125 C 161.90383911132812 339.09588623046875 164.6795654296875 345.3597717285156 169.59945678710938 349.68304443359375 L 172.29000854492188 346.4207458496094" stroke-width="0.6000000238418579" fill="rgb(70, 150, 179)" opacity="1.0"/>
  </g>
</svg>
