<?xml version="1.0" ?>
<svg xmlns="http://www.w3.org/2000/svg" version="1.1" width="600" height="600">
  <defs/>
  <g>
    <path d="M 27.719730377197266 13.84469985961914 C 27.40852928161621 32.06449890136719 0.3089450001716614 32.06080627441406 0.0 13.844115257263184 C 0.31150001287460327 -4.374955177307129 27.4112491607666 -4.3729248046875 27.719730377197266 13.84469985961914" stroke-width="1.0" fill="rgb(244, 238, 219)" opacity="1.0"/>
    <path d="M 16.865684509277344 8.974100112915039 C 16.865684509277344 8.974100112915039 19.4985294342041 13.84469985961914 15.334429740905762 27.563949584960938 C 15.334429740905762 27.563949584960938 5.833479881286621 29.658164978027344 1.1005799770355225 19.265100479125977 C 1.1005799770355225 19.265100479125977 6.534629821777344 11.742650032043457 13.984829902648926 8.766599655151367 C 13.984829902648926 8.766599655151367 16.278779983520508 7.378399848937988 16.865684509277344 8.974100112915039" stroke-width="1.0" fill="rgb(233, 60, 39)" opacity="1.0"/>
    <path d="M 1.6025300025939941 7.3715500831604 C 1.6025300025939941 7.3715500831604 9.117685317993164 4.159150123596191 14.982379913330078 7.971149921417236 C 14.982379913330078 7.971149921417236 16.8593807220459 7.394499778747559 17.234830856323242 6.350550174713135 C 16.68446922302246 3.821089267730713 15.25203800201416 1.5699831247329712 13.193829536437988 0.0 C 13.193829536437988 0.0 5.269999980926514 -0.01614999957382679 1.6025300025939941 7.3715500831604" stroke-width="1.0" fill="rgb(233, 60, 39)" opacity="1.0"/>
    <path d="M 17.79783058166504 9.623499870300293 C 22.21122169494629 11.5902738571167 25.32099723815918 15.6670560836792 26.05122947692871 20.443349838256836 C 27.041730880737305 20.172435760498047 31.386619567871094 0.5953199863433838 18.17283058166504 7.183599948883057 C 17.776010513305664 7.931257724761963 17.643844604492188 8.791186332702637 17.79783058166504 9.623499870300293" stroke-width="1.0" fill="rgb(233, 60, 39)" opacity="1.0"/>
    <path d="M 19.08152961730957 7.971149921417236 C 19.130809783935547 11.357584953308105 13.810395240783691 11.358015060424805 13.860344886779785 7.970914840698242 C 13.81054973602295 4.5834150314331055 19.131500244140625 4.583755016326904 19.08152961730957 7.971149921417236" stroke-width="1.0" fill="rgb(238, 157, 34)" opacity="1.0"/>
    <path d="M 2.4321300983428955 13.169899940490723 C 2.4320154190063477 7.3544182777404785 6.061041355133057 2.156832456588745 11.520500183105469 0.15330000221729279 C -8.08554458618164 3.839210033416748 -0.5900750160217285 33.15263366699219 18.45265007019043 26.861799240112305 C 10.15024471282959 28.23685073852539 2.3542699813842773 21.599775314331055 2.4321300983428955 13.169899940490723" stroke-width="1.0" fill="rgb(179, 45, 47)" opacity="0.2"/>
  </g>
</svg>
