<?xml version="1.0" ?>
<svg xmlns="http://www.w3.org/2000/svg" version="1.1" width="600" height="600">
  <defs/>
  <g>
    <path d="M 63.952640533447266 39.85477066040039 C 64.02967834472656 39.73299026489258 71.97650146484375 27.50312042236328 72.66564178466797 34.901920318603516 C 80.42925262451172 27.592315673828125 82.69391632080078 33.26948547363281 77.86283874511719 40.404869079589844 C 87.22625732421875 38.035213470458984 70.73059844970703 56.602169036865234 67.69774627685547 53.397308349609375 C 64.41123962402344 51.257869720458984 63.952640533447266 39.85477066040039 63.952640533447266 39.85477066040039" stroke-width="1.0" fill="rgb(255, 77, 33)" opacity="1.0"/>
    <path d="M 78.64588928222656 36.35192108154297 C 77.81909942626953 38.47434616088867 75.72931671142578 37.63331985473633 76.59374237060547 35.52851104736328 C 77.42050170898438 33.406280517578125 79.51026153564453 34.247283935546875 78.64588928222656 36.35192108154297" stroke-width="1.0" fill="rgb(255, 253, 251)" opacity="1.0"/>
    <path d="M 79.52803802490234 42.47377014160156 C 79.1002426147461 43.5754508972168 78.01820373535156 43.13872528076172 78.46504211425781 42.04741668701172 C 78.89277648925781 40.94578170776367 79.97471618652344 41.38249969482422 79.52803802490234 42.47377014160156" stroke-width="1.0" fill="rgb(255, 253, 251)" opacity="1.0"/>
    <path d="M 57.50299835205078 32.76232147216797 C 54.906925201416016 43.09157943725586 34.95870590209961 40.08824920654297 27.808000564575195 37.34286880493164 C 29.695499420166016 34.16361999511719 38.18933868408203 20.4791202545166 44.733638763427734 20.312320709228516 C 52.14073944091797 20.12166976928711 46.52109146118164 28.16741943359375 46.52109146118164 28.16741943359375 C 46.52109146118164 28.16741943359375 53.16073989868164 23.949119567871094 54.180789947509766 26.380020141601562 C 55.17694091796875 28.73941993713379 52.36000061035156 31.284719467163086 52.20743942260742 31.418170928955078 C 52.436241149902344 31.33237075805664 58.88523864746094 28.9348201751709 57.50299835205078 32.76232147216797" stroke-width="1.0" fill="rgb(194, 38, 0)" opacity="1.0"/>
    <path d="M 69.59674072265625 48.27962112426758 C 67.7074966430664 71.55184173583984 13.575374603271484 71.88270568847656 11.452500343322754 48.28024673461914 C 11.162275314331055 25.407499313354492 69.88846588134766 25.406539916992188 69.59674072265625 48.27962112426758" stroke-width="1.0" fill="rgb(194, 38, 0)" opacity="1.0"/>
    <path d="M 40.524688720703125 30.784870147705078 C 25.36688995361328 30.784870147705078 13.559040069580078 37.37221908569336 11.704500198364258 45.921268463134766 C 18.16781997680664 62.53705596923828 62.88750076293945 62.528770446777344 69.34484100341797 45.921268463134766 C 67.49034118652344 37.37221908569336 55.68244171142578 30.784870147705078 40.524688720703125 30.784870147705078" stroke-width="1.0" fill="rgb(224, 64, 25)" opacity="1.0"/>
    <path d="M 57.86394119262695 57.798770904541016 C 56.93669128417969 60.37152099609375 55.06608963012695 62.56911849975586 53.6832389831543 63.946571350097656 C 45.13987350463867 66.6671371459961 32.47998809814453 66.29656982421875 24.471790313720703 62.94961929321289 C 26.840839385986328 58.800445556640625 36.68476104736328 43.70838928222656 43.50486373901367 43.798851013183594 C 50.840518951416016 43.278438568115234 46.63249969482422 51.33025360107422 45.514739990234375 52.63182067871094 C 45.514739990234375 52.63182067871094 52.9810905456543 47.88832092285156 54.128089904785156 50.62186813354492 C 55.248291015625 53.275020599365234 52.080589294433594 56.1372184753418 51.909088134765625 56.287269592285156 C 52.16633987426758 56.190818786621094 59.41828918457031 53.49477005004883 57.86394119262695 57.798770904541016" stroke-width="1.0" fill="rgb(255, 77, 33)" opacity="1.0"/>
    <path d="M 7.968689918518066 22.793319702148438 C 7.180390357971191 25.10297966003418 7.195489883422852 27.61121940612793 8.011540412902832 29.91122055053711 C 1.0543899536132812 29.294870376586914 -1.0145000219345093 22.600370407104492 0.43803998827934265 19.207500457763672 C 1.610700011253357 16.442039489746094 6.952714920043945 12.425100326538086 9.447999954223633 10.706769943237305 L 13.864540100097656 15.96481990814209 C 10.439590454101562 18.08197021484375 8.740500450134277 20.53676986694336 7.968689918518066 22.793319702148438" stroke-width="1.0" fill="rgb(227, 121, 0)" opacity="1.0"/>
    <path d="M 13.864540100097656 15.96481990814209 C 10.439590454101562 18.08197021484375 8.740500450134277 20.53676986694336 7.968689918518066 22.793319702148438 C 5.913555145263672 19.683155059814453 6.5153350830078125 15.427390098571777 7.58273983001709 12.046719551086426 C 8.676190376281738 11.226670265197754 9.447999954223633 10.706769943237305 9.447999954223633 10.706769943237305 L 13.864540100097656 15.96481990814209" stroke-width="1.0" fill="rgb(255, 209, 31)" opacity="1.0"/>
    <path d="M 12.431289672851562 4.15077018737793 C 9.528075218200684 6.612500190734863 8.179084777832031 11.2846097946167 11.076539993286133 14.310500144958496 C 14.511320114135742 17.996570587158203 19.635480880737305 15.374594688415527 21.394180297851562 11.56350040435791 C 22.139020919799805 9.855366706848145 24.12755012512207 9.074463844299316 25.835683822631836 9.819305419921875 C 25.885704040527344 9.841116905212402 25.9351863861084 9.86413860321045 25.98409080505371 9.888349533081055 C 35.971214294433594 15.850950241088867 -0.8740800023078918 29.548175811767578 12.282340049743652 47.40776824951172 C 12.282340049743652 47.40776824951172 22.33213996887207 46.8048210144043 23.40414047241211 41.109920501708984 C 16.889394760131836 30.4955997467041 41.39813995361328 19.518604278564453 34.322689056396484 7.2764201164245605 C 30.44428062438965 -1.343999981880188 18.8006649017334 -2.199889898300171 12.431289672851562 4.15077018737793" stroke-width="1.0" fill="rgb(255, 77, 33)" opacity="1.0"/>
    <path d="M 14.173689842224121 11.465470314025879 C 11.79263973236084 9.105270385742188 16.43634033203125 6.034319877624512 17.33013916015625 9.31587028503418 C 15.748575210571289 7.818920135498047 13.734365463256836 9.569424629211426 14.173689842224121 11.465470314025879" stroke-width="1.0" fill="rgb(194, 38, 0)" opacity="1.0"/>
    <path d="M 22.97258949279785 2.4916200637817383 C 23.22341537475586 4.162485122680664 18.8608455657959 4.67627477645874 18.71537971496582 2.9938149452209473 C 18.46453094482422 1.3231749534606934 22.827104568481445 0.8093199729919434 22.97258949279785 2.4916200637817383" stroke-width="1.0" fill="rgb(255, 253, 251)" opacity="1.0"/>
    <path d="M 63.12168884277344 42.14632034301758 C 61.74668884277344 44.23805618286133 56.94559097290039 40.89714813232422 58.4295768737793 38.88105010986328 C 59.80441665649414 36.78944396972656 64.60555267333984 40.13035583496094 63.12168884277344 42.14632034301758" stroke-width="1.0" fill="rgb(255, 253, 251)" opacity="1.0"/>
    <path d="M 42.38644027709961 46.39691925048828 C 44.11539077758789 48.207096099853516 39.780296325683594 52.13391876220703 38.14960479736328 50.234500885009766 C 36.42078399658203 48.42449951171875 40.75589370727539 44.497676849365234 42.38644027709961 46.39691925048828" stroke-width="1.0" fill="rgb(255, 253, 251)" opacity="1.0"/>
    <path d="M 65.36688995361328 46.99422073364258 C 63.91476058959961 47.75962829589844 62.218040466308594 44.32228088378906 63.7086296081543 43.63496398925781 C 65.1606216430664 42.86960983276367 66.85733032226562 46.30696487426758 65.36688995361328 46.99422073364258" stroke-width="1.0" fill="rgb(255, 253, 251)" opacity="1.0"/>
    <path d="M 33.568241119384766 54.89091873168945 C 32.332176208496094 53.810760498046875 34.93012619018555 50.992279052734375 36.10723876953125 52.136226654052734 C 37.34320068359375 53.21628189086914 34.74525833129883 56.034759521484375 33.568241119384766 54.89091873168945" stroke-width="1.0" fill="rgb(255, 253, 251)" opacity="1.0"/>
    <path d="M 28.434640884399414 3.395970106124878 C 28.314069747924805 4.499845027923584 24.89283561706543 3.980565071105957 25.104965209960938 2.8907599449157715 C 25.22553062438965 1.7869700193405151 28.646774291992188 2.3063199520111084 28.434640884399414 3.395970106124878" stroke-width="1.0" fill="rgb(255, 253, 251)" opacity="1.0"/>
  </g>
</svg>
