<?xml version="1.0" ?>
<svg xmlns="http://www.w3.org/2000/svg" version="1.1" width="600" height="600">
  <defs/>
  <g>
    <path d="M 34.741634368896484 11.734874725341797 C 34.472896575927734 27.378875732421875 11.203635215759277 27.3789005279541 10.936505317687988 11.734375 C 11.238405227661133 -3.994070053100586 34.52694320678711 -3.8287899494171143 34.741634368896484 11.734874725341797" stroke-width="1.0" fill="rgb(255, 77, 33)" opacity="1.0"/>
    <path d="M 34.741634368896484 11.734874725341797 C 34.740421295166016 18.3079776763916 29.412187576293945 23.6362361907959 22.83908462524414 23.637474060058594 C 11.741299629211426 24.037734985351562 6.696249961853027 8.662150382995605 15.549334526062012 2.328624963760376 C 15.828834533691406 9.027669906616211 23.04133415222168 10.7006254196167 28.572885513305664 9.95596981048584 C 31.06556510925293 10.175435066223145 32.51380920410156 8.078969955444336 33.25038528442383 5.954969882965088 C 34.2310791015625 7.723369121551514 34.744354248046875 9.712749481201172 34.741634368896484 11.734874725341797" stroke-width="1.0" fill="rgb(194, 38, 0)" opacity="1.0"/>
    <path d="M 35.73273468017578 23.637474060058594 C 35.50093460083008 39.2166633605957 12.206794738769531 39.3350944519043 11.927590370178223 23.636974334716797 C 12.176619529724121 8.022000312805176 35.461605072021484 7.968709945678711 35.73273468017578 23.637474060058594" stroke-width="1.0" fill="rgb(191, 210, 62)" opacity="1.0"/>
    <path d="M 35.57063674926758 25.591875076293945 C 31.01425552368164 44.974708557128906 3.1568350791931152 32.59130859375 14.525785446166992 16.21802520751953 C 14.090089797973633 19.178274154663086 16.10465431213379 21.38559913635254 17.38358497619629 23.817995071411133 C 18.059484481811523 25.35107421875 18.33278465270996 27.31012535095215 19.828685760498047 28.065025329589844 C 20.7225341796875 28.518875122070312 21.79238510131836 28.37067413330078 22.774234771728516 28.56522560119629 C 24.50173568725586 28.90792465209961 26.067134857177734 30.325124740600586 27.794635772705078 29.982425689697266 C 30.373939514160156 28.538660049438477 33.87691879272461 28.279695510864258 35.57063674926758 25.591875076293945" stroke-width="1.0" fill="rgb(162, 179, 53)" opacity="1.0"/>
    <path d="M 23.830184936523438 19.70549964904785 C 22.593894958496094 39.25675582885742 -6.435150146484375 32.281803131103516 1.3126300573349 14.323354721069336 C 6.756440162658691 3.2829999923706055 23.94849967956543 7.356345176696777 23.830184936523438 19.70549964904785" stroke-width="1.0" fill="rgb(255, 227, 120)" opacity="1.0"/>
    <path d="M 23.830184936523438 19.70549964904785 C 22.590099334716797 39.261600494384766 -6.4345550537109375 32.27727127075195 1.312535047531128 14.32384967803955 C 4.303750038146973 18.263290405273438 3.561500072479248 21.716699600219727 8.787434577941895 22.859350204467773 C 9.811084747314453 23.327125549316406 10.672534942626953 24.133024215698242 11.756235122680664 24.443349838256836 C 15.190540313720703 24.93660545349121 19.475534439086914 22.200349807739258 21.204519271850586 19.30307960510254 C 21.741899490356445 17.87026023864746 21.95330047607422 16.315284729003906 22.876134872436523 15.037050247192383 C 23.508344650268555 16.51211929321289 23.832979202270508 18.10066032409668 23.830184936523438 19.70549964904785" stroke-width="1.0" fill="rgb(255, 209, 31)" opacity="1.0"/>
    <path d="M 24.203439712524414 36.271873474121094 C 24.30426025390625 36.03340530395508 10.725879669189453 53.32157897949219 8.09335994720459 53.48701095581055 C 7.3684401512146 53.4118766784668 6.763440132141113 50.826873779296875 6.278439998626709 47.426876068115234 C 5.313439846038818 40.62187576293945 4.848440170288086 30.5418758392334 4.983439922332764 30.63687515258789 C 9.908960342407227 33.93354415893555 19.28104591369629 35.531620025634766 24.203439712524414 36.271873474121094" stroke-width="1.0" fill="rgb(255, 144, 19)" opacity="1.0"/>
    <path d="M 24.203439712524414 36.271873474121094 C 24.300859451293945 36.06870651245117 10.7283296585083 53.296146392822266 8.093350410461426 53.487091064453125 C 7.3684401512146 53.4118766784668 6.763440132141113 50.826873779296875 6.278439998626709 47.426876068115234 C 12.5126953125 45.437286376953125 17.585559844970703 40.60982894897461 22.003440856933594 35.93687438964844 C 23.358440399169922 36.1618766784668 24.203439712524414 36.271873474121094 24.203439712524414 36.271873474121094" stroke-width="1.0" fill="rgb(227, 121, 0)" opacity="1.0"/>
    <path d="M 26.017784118652344 33.599876403808594 C 22.372238159179688 33.286563873291016 18.76774787902832 32.605194091796875 15.259385108947754 31.56617546081543 C 11.772809028625488 30.60245132446289 8.463934898376465 29.084211349487305 5.459535121917725 27.069625854492188 C 3.4859399795532227 25.722625732421875 1.2100850343704224 27.94962501525879 2.839634895324707 29.689525604248047 C 9.050970077514648 35.014259338378906 18.132434844970703 36.289119720458984 26.017555236816406 37.30552673339844 C 28.392684936523438 37.51237487792969 28.3787841796875 33.80607604980469 26.017784118652344 33.599876403808594" stroke-width="1.0" fill="rgb(255, 144, 19)" opacity="1.0"/>
    <path d="M 2.8396849632263184 29.689525604248047 C 9.323744773864746 34.739471435546875 18.110530853271484 35.916141510009766 26.01783561706543 37.30500030517578 C 18.05433464050293 36.634315490722656 8.893835067749023 35.31981658935547 2.8396849632263184 29.689550399780273 L 2.8396849632263184 29.689525604248047" stroke-width="1.0" fill="rgb(227, 121, 0)" opacity="1.0"/>
    <path d="M 14.459835052490234 14.471574783325195 C 13.600500106811523 15.683500289916992 10.71119499206543 13.510000228881836 11.637720108032227 12.34837532043457 C 12.496999740600586 11.136549949645996 15.386269569396973 13.310050010681152 14.459835052490234 14.471574783325195" stroke-width="1.0" fill="rgb(255, 209, 31)" opacity="1.0"/>
    <path d="M 19.447500228881836 16.41677474975586 C 18.588090896606445 17.62873077392578 15.698880195617676 15.455129623413086 16.625385284423828 14.293524742126465 C 17.484750747680664 13.081754684448242 20.373910903930664 15.255254745483398 19.447500228881836 16.41677474975586" stroke-width="1.0" fill="rgb(255, 209, 31)" opacity="1.0"/>
    <path d="M 16.254634857177734 19.983524322509766 C 15.395275115966797 21.195480346679688 12.505960464477539 19.021869659423828 13.432570457458496 17.86032485961914 C 14.291814804077148 16.648500442504883 17.18116569519043 18.822059631347656 16.254634857177734 19.983524322509766" stroke-width="1.0" fill="rgb(255, 209, 31)" opacity="1.0"/>
    <path d="M 33.048439025878906 20.905275344848633 C 32.35675048828125 21.880725860595703 30.03128433227539 20.131309509277344 30.777050018310547 19.196395874023438 C 31.4687442779541 18.221025466918945 33.794105529785156 19.970449447631836 33.048439025878906 20.905275344848633" stroke-width="1.0" fill="rgb(162, 179, 53)" opacity="1.0"/>
    <path d="M 31.784000396728516 25.03907585144043 C 31.09231948852539 26.014440536499023 28.7668399810791 24.26507568359375 29.512615203857422 23.33014488220215 C 30.204219818115234 22.354835510253906 32.52968978881836 24.104215621948242 31.784000396728516 25.03907585144043" stroke-width="1.0" fill="rgb(162, 179, 53)" opacity="1.0"/>
    <path d="M 29.60650062561035 21.87762451171875 C 28.914825439453125 22.853015899658203 26.589340209960938 21.10362434387207 27.335115432739258 20.1686954498291 C 28.02672004699707 19.193384170532227 30.352195739746094 20.942764282226562 29.60650062561035 21.87762451171875" stroke-width="1.0" fill="rgb(162, 179, 53)" opacity="1.0"/>
    <path d="M 26.476234436035156 3.8565750122070312 C 25.858135223388672 4.7283501625061035 23.779964447021484 3.1649250984191895 24.44634437561035 2.3294498920440674 C 25.064390182495117 1.4578399658203125 27.142614364624023 3.021169900894165 26.476234436035156 3.8565750122070312" stroke-width="1.0" fill="rgb(194, 38, 0)" opacity="1.0"/>
    <path d="M 25.34633445739746 7.550724983215332 C 24.72830581665039 8.422459602355957 22.650035858154297 6.859045028686523 23.316505432128906 6.023600101470947 C 23.934539794921875 5.1519999504089355 26.012754440307617 6.7153000831604 25.34633445739746 7.550724983215332" stroke-width="1.0" fill="rgb(194, 38, 0)" opacity="1.0"/>
    <path d="M 23.40033531188965 4.72552490234375 C 22.78233528137207 5.597219944000244 20.704029083251953 4.033780097961426 21.37050437927246 3.198349952697754 C 21.988529205322266 2.326740026473999 24.066749572753906 3.890120029449463 23.40033531188965 4.72552490234375" stroke-width="1.0" fill="rgb(194, 38, 0)" opacity="1.0"/>
  </g>
</svg>
