<?xml version="1.0" ?>
<svg xmlns="http://www.w3.org/2000/svg" version="1.1" width="600" height="600">
  <defs/>
  <g>
    <path d="M 9.751825332641602 33.672149658203125 C 9.65992546081543 33.50564956665039 -0.04027500003576279 21.010499954223633 0.0001250000059371814 13.352049827575684 L 10.010125160217285 22.163700103759766 C 10.010125160217285 22.163700103759766 6.7795000076293945 8.151700019836426 7.418584823608398 3.0095999240875244 C 7.418584823608398 3.0095999240875244 14.331125259399414 15.070050239562988 16.186975479125977 19.17234992980957 C 16.186975479125977 19.17234992980957 17.761474609375 3.0910000801086426 18.877124786376953 -3.552713678800501e-15 C 18.877124786376953 -3.552713678800501e-15 22.96197509765625 13.536199569702148 23.735925674438477 17.176849365234375 C 23.735925674438477 17.176849365234375 26.47052574157715 8.078350067138672 27.909975051879883 6.45674991607666 C 27.909975051879883 6.45674991607666 29.119674682617188 29.59025001525879 27.02852439880371 32.82434844970703 C 24.93742561340332 36.05849838256836 14.538125038146973 42.34120178222656 9.751825332641602 33.672149658203125" stroke-width="1.0" fill="rgb(191, 210, 62)" opacity="1.0"/>
    <path d="M 43.388999938964844 55.16019821166992 C 45.362701416015625 62.67470169067383 44.255611419677734 68.21759796142578 41.24789810180664 72.06935119628906 C 35.94169998168945 78.74309539794922 23.547494888305664 81.42593383789062 16.564870834350586 76.10994720458984 C 13.408550262451172 73.78534698486328 10.863200187683105 69.90129852294922 9.340299606323242 64.1031494140625 C 1.6817799806594849 26.196775436401367 33.805091857910156 22.071189880371094 43.388999938964844 55.16019821166992" stroke-width="1.0" fill="rgb(255, 209, 31)" opacity="1.0"/>
    <path d="M 43.388999938964844 55.16019821166992 C 45.362701416015625 62.67470169067383 44.255611419677734 68.21759796142578 41.24789810180664 72.06935119628906 C 35.94163513183594 78.74299621582031 23.547500610351562 81.4260025024414 16.564775466918945 76.10984802246094 C 32.11174011230469 74.77754974365234 42.223968505859375 53.805850982666016 35.5993766784668 40.19424819946289 C 39.27749252319336 44.54092025756836 41.93877029418945 49.65393829345703 43.388999938964844 55.16019821166992" stroke-width="1.0" fill="rgb(242, 193, 0)" opacity="1.0"/>
    <path d="M 31.337499618530273 20.999099731445312 C 31.305309295654297 21.235715866088867 29.44918441772461 34.01713943481445 29.245399475097656 34.667301177978516 C 28.50814437866211 38.940673828125 26.046239852905273 38.3010139465332 23.421749114990234 36.42055130004883 C 22.643444061279297 40.473751068115234 20.210575103759766 41.37340545654297 17.517749786376953 37.97700119018555 C 16.401559829711914 40.54838943481445 14.401880264282227 42.98918533325195 11.588214874267578 39.30473327636719 C 9.542525291442871 37.308799743652344 4.63777494430542 33.734100341796875 2.616874933242798 32.21794891357422 C 2.616874933242798 32.21794891357422 9.763825416564941 32.250099182128906 12.628424644470215 34.81755065917969 C 12.628424644470215 34.81755065917969 9.922525405883789 26.130699157714844 9.884124755859375 24.369049072265625 C 9.884124755859375 24.369049072265625 15.692085266113281 28.995849609375 17.62258529663086 32.30744934082031 C 17.62258529663086 32.30744934082031 18.609085083007812 20.45479965209961 20.367225646972656 16.386499404907227 C 20.367225646972656 16.386499404907227 24.200525283813477 27.466350555419922 24.78322410583496 30.77644920349121 C 24.78322410583496 30.77644920349121 28.91102409362793 23.61454963684082 31.337499618530273 20.999099731445312" stroke-width="1.0" fill="rgb(162, 179, 53)" opacity="1.0"/>
    <path d="M 16.985525131225586 52.86149978637695 C 15.084625244140625 50.41310119628906 11.797775268554688 51.28089904785156 11.344374656677246 54.3432502746582 C 10.786145210266113 50.91701889038086 15.775659561157227 49.57331848144531 16.985525131225586 52.86149978637695" stroke-width="1.0" fill="rgb(255, 144, 19)" opacity="1.0"/>
    <path d="M 15.04942512512207 53.84465026855469 C 15.427285194396973 55.22655487060547 13.863530158996582 55.6373291015625 13.513660430908203 54.24797058105469 C 13.135809898376465 52.86607360839844 14.699575424194336 52.45539855957031 15.04942512512207 53.84465026855469" stroke-width="1.0" fill="rgb(227, 121, 0)" opacity="1.0"/>
    <path d="M 30.651824951171875 50.18159866333008 C 28.75087547302246 47.73320007324219 25.46408462524414 48.600948333740234 25.0106258392334 51.66334915161133 C 24.452434539794922 48.23712158203125 29.441904067993164 46.893348693847656 30.651824951171875 50.18159866333008" stroke-width="1.0" fill="rgb(255, 144, 19)" opacity="1.0"/>
    <path d="M 28.71572494506836 51.16469955444336 C 29.093584060668945 52.54661560058594 27.529844284057617 52.95738983154297 27.179960250854492 51.56801986694336 C 26.802074432373047 50.18620681762695 28.365875244140625 49.775413513183594 28.71572494506836 51.16469955444336" stroke-width="1.0" fill="rgb(227, 121, 0)" opacity="1.0"/>
    <path d="M 25.199125289916992 56.60974884033203 C 23.29822540283203 54.16135025024414 20.011375427246094 55.02914810180664 19.55797576904297 58.091548919677734 C 18.999710083007812 54.665283203125 23.98924446105957 53.32154846191406 25.199125289916992 56.60974884033203" stroke-width="1.0" fill="rgb(255, 144, 19)" opacity="1.0"/>
    <path d="M 23.263025283813477 57.592899322509766 C 23.64089012145996 58.97483444213867 22.07714080810547 59.38557052612305 21.72726058959961 57.996219635009766 C 21.349409103393555 56.61436462402344 22.913169860839844 56.20362854003906 23.263025283813477 57.592899322509766" stroke-width="1.0" fill="rgb(227, 121, 0)" opacity="1.0"/>
    <path d="M 39.26032638549805 56.11980056762695 C 37.35942459106445 53.671348571777344 34.07258605957031 54.53915023803711 33.61917495727539 57.6015510559082 C 33.06093978881836 54.17531967163086 38.05044174194336 52.83155059814453 39.26032638549805 56.11980056762695" stroke-width="1.0" fill="rgb(255, 144, 19)" opacity="1.0"/>
    <path d="M 37.32422637939453 57.10295104980469 C 37.702083587646484 58.484893798828125 36.138336181640625 58.89556884765625 35.78845977783203 57.506221771240234 C 35.410621643066406 56.124359130859375 36.97438049316406 55.713645935058594 37.32422637939453 57.10295104980469" stroke-width="1.0" fill="rgb(227, 121, 0)" opacity="1.0"/>
    <path d="M 32.19827651977539 61.94865036010742 C 30.297325134277344 59.50025177001953 27.01052474975586 60.36800003051758 26.557125091552734 63.43040084838867 C 25.998889923095703 60.004180908203125 30.98838996887207 58.660400390625 32.19827651977539 61.94865036010742" stroke-width="1.0" fill="rgb(255, 144, 19)" opacity="1.0"/>
    <path d="M 30.262174606323242 62.931800842285156 C 30.640029907226562 64.3137435913086 29.076269149780273 64.72445678710938 28.726409912109375 63.3350715637207 C 28.34856414794922 61.95320510864258 29.912330627441406 61.54253005981445 30.262174606323242 62.931800842285156" stroke-width="1.0" fill="rgb(227, 121, 0)" opacity="1.0"/>
    <path d="M 41.19052505493164 63.468650817871094 C 39.28962326049805 61.020198822021484 36.00277328491211 61.88800048828125 35.549373626708984 64.95040130615234 C 34.991065979003906 61.524166107177734 39.98064041137695 60.18040084838867 41.19052505493164 63.468650817871094" stroke-width="1.0" fill="rgb(227, 121, 0)" opacity="1.0"/>
    <path d="M 39.254425048828125 64.45175170898438 C 39.632286071777344 65.83366394042969 38.068538665771484 66.24443817138672 37.718658447265625 64.85507202148438 C 37.34077453613281 63.4732551574707 38.90457534790039 63.06246566772461 39.254425048828125 64.45175170898438" stroke-width="1.0" fill="rgb(227, 121, 0)" opacity="1.0"/>
    <path d="M 39.277374267578125 49.73625183105469 C 37.376426696777344 47.28784942626953 34.08962631225586 48.155601501464844 33.636226654052734 51.21799850463867 C 33.0779914855957 47.791751861572266 38.06752395629883 46.44804000854492 39.277374267578125 49.73625183105469" stroke-width="1.0" fill="rgb(255, 144, 19)" opacity="1.0"/>
    <path d="M 37.34127426147461 50.719398498535156 C 37.719146728515625 52.101341247558594 36.15537643432617 52.512020111083984 35.805511474609375 51.1226692199707 C 35.427669525146484 49.740821838378906 36.99142837524414 49.3300895690918 37.34127426147461 50.719398498535156" stroke-width="1.0" fill="rgb(227, 121, 0)" opacity="1.0"/>
    <path d="M 34.95708465576172 70.9552993774414 C 33.056175231933594 68.50689697265625 29.769275665283203 69.37470245361328 29.315874099731445 72.43704986572266 C 28.757654190063477 69.01079559326172 33.747161865234375 67.6670913696289 34.95708465576172 70.9552993774414" stroke-width="1.0" fill="rgb(227, 121, 0)" opacity="1.0"/>
    <path d="M 17.962675094604492 61.944950103759766 C 16.061725616455078 59.496551513671875 12.774925231933594 60.36429977416992 12.321524620056152 63.42675018310547 C 11.76325511932373 60.00046920776367 16.752769470214844 58.6567497253418 17.962675094604492 61.944950103759766" stroke-width="1.0" fill="rgb(255, 144, 19)" opacity="1.0"/>
    <path d="M 16.02658462524414 62.9281005859375 C 16.404434204101562 64.30999755859375 14.840680122375488 64.72077941894531 14.49081039428711 63.3314208984375 C 14.112959861755371 61.94952392578125 15.676719665527344 61.538856506347656 16.02658462524414 62.9281005859375" stroke-width="1.0" fill="rgb(227, 121, 0)" opacity="1.0"/>
    <path d="M 23.899499893188477 68.7083969116211 C 21.998550415039062 66.26000213623047 18.711750030517578 67.12774658203125 18.25830078125 70.19014739990234 C 17.70013427734375 66.76393127441406 22.6895694732666 65.42021179199219 23.899499893188477 68.7083969116211" stroke-width="1.0" fill="rgb(255, 144, 19)" opacity="1.0"/>
    <path d="M 21.963375091552734 69.6915512084961 C 22.341224670410156 71.07341003417969 20.777469635009766 71.48428344726562 20.427610397338867 70.09481811523438 C 20.049694061279297 68.71299743652344 21.613500595092773 68.30226135253906 21.963375091552734 69.6915512084961" stroke-width="1.0" fill="rgb(227, 121, 0)" opacity="1.0"/>
    <path d="M 33.67387390136719 41.36384963989258 C 31.77297592163086 38.91545104980469 28.486125946044922 39.783199310302734 28.032724380493164 42.84560012817383 C 27.474414825439453 39.41936492919922 32.4639892578125 38.075599670410156 33.67387390136719 41.36384963989258" stroke-width="1.0" fill="rgb(255, 144, 19)" opacity="1.0"/>
    <path d="M 31.737775802612305 42.34700012207031 C 32.11564636230469 43.728939056396484 30.5518741607666 44.13962173461914 30.202009201049805 42.75027084350586 C 29.824169158935547 41.368438720703125 31.387939453125 40.95764923095703 31.737775802612305 42.34700012207031" stroke-width="1.0" fill="rgb(227, 121, 0)" opacity="1.0"/>
    <path d="M 24.840824127197266 45.06800079345703 C 22.93987464904785 42.619598388671875 19.653024673461914 43.48740005493164 19.19962501525879 46.54975128173828 C 18.641359329223633 43.12350845336914 23.630924224853516 41.77983474731445 24.840824127197266 45.06800079345703" stroke-width="1.0" fill="rgb(255, 144, 19)" opacity="1.0"/>
    <path d="M 22.904674530029297 46.051151275634766 C 23.282575607299805 47.43306350708008 21.7187557220459 47.843849182128906 21.36890983581543 46.45441818237305 C 20.991069793701172 45.0726318359375 22.554834365844727 44.66188049316406 22.904674530029297 46.051151275634766" stroke-width="1.0" fill="rgb(227, 121, 0)" opacity="1.0"/>
    <path d="M 16.460084915161133 44.7442512512207 C 14.559174537658691 42.29584884643555 11.272324562072754 43.16360092163086 10.818875312805176 46.22600173950195 C 10.260689735412598 42.79977035522461 15.250155448913574 41.45600128173828 16.460084915161133 44.7442512512207" stroke-width="1.0" fill="rgb(255, 144, 19)" opacity="1.0"/>
    <path d="M 14.52400016784668 45.72740173339844 C 14.901849746704102 47.109283447265625 13.338114738464355 47.52006149291992 12.988235473632812 46.13066864013672 C 12.610329627990723 44.74881362915039 14.174135208129883 44.33808898925781 14.52400016784668 45.72740173339844" stroke-width="1.0" fill="rgb(227, 121, 0)" opacity="1.0"/>
    <path d="M 20.336000442504883 25.711950302124023 C 20.499649047851562 28.758899688720703 20.661949157714844 31.71674919128418 20.823650360107422 34.763851165771484 C 19.95292091369629 31.826641082763672 19.785865783691406 28.725704193115234 20.336000442504883 25.711950302124023" stroke-width="1.0" fill="rgb(128, 140, 41)" opacity="1.0"/>
    <path d="M 21.72392463684082 26.25480079650879 C 21.894874572753906 28.577199935913086 22.03827476501465 30.788700103759766 22.15992546081543 33.11429977416992 C 21.331876754760742 30.922853469848633 21.180004119873047 28.533451080322266 21.72392463684082 26.25480079650879" stroke-width="1.0" fill="rgb(128, 140, 41)" opacity="1.0"/>
    <path d="M 28.972000122070312 27.481050491333008 C 28.5845890045166 29.482778549194336 27.987220764160156 31.438085556030273 27.189800262451172 33.31454849243164 C 27.297882080078125 31.253564834594727 27.909826278686523 29.250547409057617 28.972000122070312 27.481050491333008" stroke-width="1.0" fill="rgb(128, 140, 41)" opacity="1.0"/>
    <path d="M 12.725000381469727 29.53944969177246 C 14.435613632202148 31.259536743164062 15.573776245117188 33.465579986572266 15.984149932861328 35.85649871826172 C 14.896149635314941 33.707698822021484 13.848050117492676 31.67009925842285 12.725000381469727 29.53944969177246" stroke-width="1.0" fill="rgb(128, 140, 41)" opacity="1.0"/>
    <path d="M 8.534774780273438 34.138851165771484 C 10.140971183776855 34.977439880371094 11.564460754394531 36.12692642211914 12.72249984741211 37.52050018310547 C 11.116287231445312 36.68194580078125 9.69279956817627 35.53245162963867 8.534799575805664 34.138851165771484 L 8.534774780273438 34.138851165771484" stroke-width="1.0" fill="rgb(128, 140, 41)" opacity="1.0"/>
    <path d="M 26.37150001525879 15.697349548339844 C 25.93076515197754 18.904428482055664 25.65648078918457 22.13218879699707 25.54974937438965 25.36764907836914 C 24.94257164001465 22.129295349121094 25.22660255432129 18.786819458007812 26.37150001525879 15.697349548339844" stroke-width="1.0" fill="rgb(162, 179, 53)" opacity="1.0"/>
    <path d="M 19.339174270629883 8.078100204467773 C 19.689090728759766 10.088800430297852 19.682119369506836 12.145417213439941 19.318584442138672 14.15369987487793 C 18.968589782714844 12.143006324768066 18.97555923461914 10.08637523651123 19.339174270629883 8.078100204467773" stroke-width="1.0" fill="rgb(162, 179, 53)" opacity="1.0"/>
    <path d="M 3.2303249835968018 20.333049774169922 C 4.59276819229126 21.91999626159668 5.787174701690674 23.6437931060791 6.794425010681152 25.476850509643555 C 5.214612007141113 24.06974983215332 3.9928359985351562 22.30645179748535 3.2303249835968018 20.333049774169922" stroke-width="1.0" fill="rgb(162, 179, 53)" opacity="1.0"/>
    <path d="M 3.510775089263916 18.298349380493164 C 4.9279890060424805 19.740371704101562 6.231170654296875 21.290189743041992 7.408585071563721 22.933849334716797 C 5.708301067352295 21.775922775268555 4.359730243682861 20.1721248626709 3.510775089263916 18.298349380493164" stroke-width="1.0" fill="rgb(162, 179, 53)" opacity="1.0"/>
    <path d="M 10.423874855041504 15.008600234985352 C 11.250965118408203 17.0755615234375 11.826772689819336 19.234392166137695 12.138924598693848 21.43869972229004 C 11.141181945800781 19.432273864746094 10.557893753051758 17.245399475097656 10.423874855041504 15.008600234985352" stroke-width="1.0" fill="rgb(162, 179, 53)" opacity="1.0"/>
    <path d="M 11.167374610900879 12.70995044708252 C 12.490175247192383 15.77554988861084 13.662175178527832 18.839250564575195 14.714824676513672 22.007949829101562 C 13.009806632995605 19.13405418395996 11.809954643249512 15.989195823669434 11.167374610900879 12.70995044708252" stroke-width="1.0" fill="rgb(162, 179, 53)" opacity="1.0"/>
  </g>
</svg>
