<?xml version="1.0" ?>
<svg xmlns="http://www.w3.org/2000/svg" version="1.1" width="600" height="600">
  <defs/>
  <g>
    <path d="M 1.999690055847168 43.27703857421875 C 18.65475082397461 64.22771453857422 59.80942153930664 40.274539947509766 62.57109069824219 18.258140563964844 L 62.568538665771484 18.25394058227539 C 65.08450317382812 2.5631649494171143 46.912750244140625 -2.775700092315674 33.97079086303711 1.3288300037384033 C 17.22685432434082 5.280839920043945 -6.902585029602051 24.571565628051758 1.999690055847168 43.27703857421875" stroke-width="1.0" fill="rgb(162, 179, 53)" opacity="1.0"/>
    <path d="M 0.6437900066375732 40.268089294433594 C 15.158394813537598 53.391326904296875 43.438289642333984 40.18024444580078 53.51953125 25.63574981689453 C 82.701171875 -20.626680374145508 -8.471320152282715 2.8824350833892822 0.6437900066375732 40.268089294433594" stroke-width="1.0" fill="rgb(191, 210, 62)" opacity="1.0"/>
    <path d="M 24.323640823364258 11.406240463256836 C 30.090534210205078 8.253774642944336 28.19986915588379 4.856170177459717 22.47905921936035 8.09008502960205 C 16.712385177612305 11.242389678955078 18.603059768676758 14.639934539794922 24.323640823364258 11.406240463256836" stroke-width="1.0" fill="rgb(255, 253, 251)" opacity="1.0"/>
    <path d="M 35.01589584350586 33.225341796875 C 35.90013885498047 34.26813888549805 40.63139343261719 31.36779022216797 40.727439880371094 31.527589797973633 C 40.82344055175781 31.687440872192383 42.52354049682617 37.1456413269043 43.930938720703125 36.67768859863281 C 45.340938568115234 36.21393966674805 44.53493881225586 30.166940689086914 44.53493881225586 30.166940689086914 C 50.11650085449219 28.643850326538086 54.57350158691406 25.166940689086914 44.60628890991211 26.20863914489746 C 46.643333435058594 18.809249877929688 44.469791412353516 19.660430908203125 41.123538970947266 25.032989501953125 C 39.93549728393555 24.43456268310547 38.68122482299805 23.97787857055664 37.386539459228516 23.672340393066406 C 36.84584045410156 24.16329002380371 36.26049041748047 24.64664077758789 35.635589599609375 25.130939483642578 C 36.130638122558594 26.688140869140625 38.285240173339844 28.644739151000977 38.285240173339844 28.644739151000977 C 38.285240173339844 28.644739151000977 33.74679183959961 31.732589721679688 35.01589584350586 33.225341796875" stroke-width="1.0" fill="rgb(255, 209, 31)" opacity="1.0"/>
    <path d="M 9.674895286560059 23.747499465942383 C 8.331130027770996 30.004924774169922 9.221144676208496 32.168758392333984 13.052639961242676 25.186649322509766 C 13.052639961242676 25.186649322509766 16.418140411376953 27.234149932861328 17.896440505981445 26.941150665283203 C 18.081506729125977 26.49398422241211 18.305904388427734 26.064130783081055 18.56698989868164 25.65665054321289 C 18.27729034423828 24.050500869750977 16.16204071044922 21.806900024414062 16.16204071044922 21.806900024414062 C 16.16204071044922 21.806900024414062 20.93124008178711 19.0841007232666 19.782440185546875 17.496200561523438 C 18.978939056396484 16.387699127197266 14.047989845275879 18.89859962463379 13.954489707946777 18.743000030517578 C 13.87954044342041 18.599149703979492 12.901339530944824 14.332799911499023 11.69163990020752 13.491299629211426 C 11.212855339050293 13.926895141601562 10.75728988647461 14.371000289916992 10.306639671325684 14.815850257873535 C 10.045562744140625 16.465232849121094 9.96066951751709 18.13770866394043 10.05339527130127 19.805049896240234 C 9.772005081176758 19.878154754638672 4.507724761962891 20.237049102783203 4.106989860534668 22.559799194335938 C 5.341189861297607 23.48958969116211 9.674895286560059 23.747499465942383 9.674895286560059 23.747499465942383" stroke-width="1.0" fill="rgb(255, 209, 31)" opacity="1.0"/>
    <path d="M 17.826040267944336 29.86273956298828 C 22.793109893798828 35.27947998046875 43.87511444091797 22.60923957824707 41.43226623535156 15.67786979675293 C 37.81930160522461 10.510000228881836 15.629875183105469 21.802410125732422 17.826040267944336 29.86273956298828" stroke-width="1.0" fill="rgb(162, 179, 53)" opacity="1.0"/>
    <path d="M 20.056739807128906 31.126789093017578 C 26.008140563964844 32.06528854370117 38.94414138793945 24.925649642944336 41.49673843383789 18.242990493774414 C 35.93122863769531 16.865129470825195 21.456499099731445 25.57186508178711 20.056739807128906 31.126789093017578" stroke-width="1.0" fill="rgb(128, 140, 41)" opacity="1.0"/>
    <path d="M 6.242839813232422 47.72800064086914 C 6.921329498291016 48.19538116455078 7.634100914001465 48.610923767089844 8.375089645385742 48.971099853515625 C 9.683114051818848 48.349151611328125 10.938299179077148 47.62167739868164 12.128190040588379 46.7958984375 C 15.625479698181152 50.50049591064453 20.940025329589844 52.84846878051758 15.67374038696289 45.037349700927734 C 21.69379425048828 42.871910095214844 23.072824478149414 40.97516632080078 15.112540245056152 41.40769958496094 C 15.166304588317871 35.00033950805664 12.36808967590332 34.20396041870117 10.602640151977539 40.55165100097656 C 10.602640151977539 40.55165100097656 5.771739959716797 37.94219970703125 5.029940128326416 39.75600051879883 C 4.511590003967285 41.01774978637695 9.263589859008789 43.88639831542969 9.16609001159668 44.04804992675781 C 9.095499992370605 44.159141540527344 7.068940162658691 46.178340911865234 6.242839813232422 47.72800064086914" stroke-width="1.0" fill="rgb(255, 209, 31)" opacity="1.0"/>
    <path d="M 35.74539566040039 5.842939853668213 C 36.60870361328125 12.18819522857666 39.488529205322266 12.585029602050781 40.334896087646484 6.050189971923828 C 40.334896087646484 6.050189971923828 45.49089431762695 7.943339824676514 45.9683952331543 6.042190074920654 C 46.299041748046875 4.715839862823486 41.18824005126953 2.555039882659912 41.26298904418945 2.384190082550049 C 41.29663848876953 2.3067400455474854 42.073394775390625 1.2560900449752808 42.76763916015625 0.07759000360965729 C 39.79793930053711 0.1645403355360031 36.84733200073242 0.5839737057685852 33.971038818359375 1.3280400037765503 C 34.37623977661133 1.9260400533676147 34.67604064941406 2.3297901153564453 34.67604064941406 2.3297901153564453 C 29.030250549316406 5.331349849700928 27.93140411376953 7.401000022888184 35.74539566040039 5.842939853668213" stroke-width="1.0" fill="rgb(255, 209, 31)" opacity="1.0"/>
    <path d="M 54.85919189453125 24.581039428710938 C 56.07633972167969 25.206289291381836 59.346588134765625 20.722440719604492 59.498138427734375 20.83173942565918 C 59.567989349365234 20.88134002685547 60.42613983154297 21.89974021911621 61.42644119262695 22.849939346313477 C 61.963584899902344 21.362380981445312 62.34713363647461 19.82377052307129 62.57109069824219 18.258140563964844 L 62.568538665771484 18.25394058227539 C 62.52219009399414 18.16728973388672 62.4943962097168 18.12104034423828 62.4943962097168 18.12104034423828 C 62.4943962097168 18.12104034423828 62.52973937988281 18.09408950805664 62.59449005126953 18.049440383911133 C 62.78200912475586 16.64238929748535 62.79856491088867 15.217817306518555 62.64379119873047 13.806790351867676 C 61.738590240478516 14.13893985748291 61.0529899597168 14.436440467834473 61.0529899597168 14.436440467834473 C 59.41922378540039 8.256380081176758 57.65287399291992 6.713365077972412 57.38528823852539 14.677040100097656 C 50.99919128417969 14.064339637756348 49.97551345825195 16.78924560546875 56.141239166259766 19.093889236450195 C 56.141239166259766 19.093889236450195 53.11674118041992 23.6818904876709 54.85919189453125 24.581039428710938" stroke-width="1.0" fill="rgb(255, 209, 31)" opacity="1.0"/>
    <path d="M 49.97843933105469 5.725790023803711 C 53.23810958862305 6.756820201873779 54.038185119628906 4.155829906463623 50.762176513671875 3.1770501136779785 C 47.50261688232422 2.146059989929199 46.70254135131836 4.747039794921875 49.97843933105469 5.725790023803711" stroke-width="1.0" fill="rgb(255, 253, 251)" opacity="1.0"/>
    <path d="M 5.585090160369873 32.113338470458984 C 6.507909774780273 28.821340560913086 3.8817598819732666 28.107694625854492 3.0119049549102783 31.4143009185791 C 2.089139938354492 34.706138610839844 4.71521520614624 35.41978454589844 5.585090160369873 32.113338470458984" stroke-width="1.0" fill="rgb(255, 253, 251)" opacity="1.0"/>
    <path d="M 51.8165397644043 9.747289657592773 C 53.25434875488281 10.97569465637207 54.22304153442383 9.823369979858398 52.765541076660156 8.618135452270508 C 51.32780838012695 7.389790058135986 50.359195709228516 8.542084693908691 51.8165397644043 9.747289657592773" stroke-width="1.0" fill="rgb(255, 253, 251)" opacity="1.0"/>
    <path d="M 7.857439994812012 35.3614387512207 C 8.111795425415039 33.48749542236328 6.618639945983887 33.296939849853516 6.394285202026367 35.174781799316406 C 6.1399149894714355 37.04863357543945 7.633184909820557 37.23921585083008 7.857439994812012 35.3614387512207" stroke-width="1.0" fill="rgb(255, 253, 251)" opacity="1.0"/>
  </g>
</svg>
