<?xml version="1.0" ?>
<svg xmlns="http://www.w3.org/2000/svg" version="1.1" width="600" height="600">
  <defs/>
  <g>
    <path d="M 24.100929260253906 11.335000038146973 C 39.06264114379883 23.614030838012695 31.588319778442383 23.67513084411621 18.947185516357422 19.759199142456055 C 16.137235641479492 30.308929443359375 10.079609870910645 39.98764419555664 10.972464561462402 19.9166202545166 C -5.465000152587891 22.01324462890625 -1.4658499956130981 13.363499641418457 10.581930160522461 11.722299575805664 C 7.647580146789551 1.654099941253662 8.827335357666016 -6.193824768066406 17.72248077392578 6.830450057983398 C 26.29241943359375 -1.4859000444412231 34.327171325683594 -1.3567099571228027 24.100929260253906 11.335000038146973" stroke-width="1.0" fill="rgb(191, 210, 62)" opacity="1.0"/>
    <path d="M 11.870579719543457 27.23954963684082 C 11.999899864196777 28.806589126586914 12.269610404968262 30.452884674072266 13.314229965209961 31.680700302124023 C 9.64986515045166 32.6031494140625 11.376729965209961 19.661699295043945 10.972359657287598 19.917150497436523 C 10.722475051879883 20.093765258789062 -1.3530850410461426 21.6346492767334 0.12543000280857086 16.60449981689453 C 2.926800012588501 20.173959732055664 8.650494575500488 18.75633430480957 12.458330154418945 17.78404998779297 C 11.796653747558594 20.88957977294922 11.598587989807129 24.075984954833984 11.870579719543457 27.23954963684082" stroke-width="1.0" fill="rgb(162, 179, 53)" opacity="1.0"/>
    <path d="M 24.100929260253906 11.335000038146973 C 23.97670555114746 11.395549774169922 35.66399383544922 20.423234939575195 31.8104305267334 21.87834930419922 C 30.36669921875 17.142595291137695 25.664554595947266 14.384129524230957 21.668685913085938 11.861800193786621 C 23.628780364990234 8.211085319519043 27.552440643310547 5.472259998321533 28.25157928466797 1.1764500141143799 C 30.99049949645996 3.429260015487671 24.065500259399414 11.33428955078125 24.100929260253906 11.335000038146973" stroke-width="1.0" fill="rgb(162, 179, 53)" opacity="1.0"/>
    <path d="M 17.04118537902832 12.649250030517578 C 17.576095581054688 13.938070297241211 15.539600372314453 14.748689651489258 15.042684555053711 13.444560050964355 C 14.50776481628418 12.155790328979492 16.544279098510742 11.345179557800293 17.04118537902832 12.649250030517578" stroke-width="1.0" fill="rgb(255, 253, 251)" opacity="1.0"/>
    <path d="M 15.04813003540039 9.022299766540527 C 15.204058647155762 9.44777774810791 14.985546112060547 9.919099807739258 14.560068130493164 10.075028419494629 C 14.151021957397461 10.224934577941895 13.696134567260742 10.029030799865723 13.52400016784668 9.628829956054688 C 13.368071556091309 9.203352928161621 13.586584091186523 8.732029914855957 14.012062072753906 8.576102256774902 C 14.42110824584961 8.42619514465332 14.875995635986328 8.622098922729492 15.04813003540039 9.022299766540527" stroke-width="1.0" fill="rgb(255, 253, 251)" opacity="1.0"/>
    <path d="M 13.748279571533203 6.009850025177002 C 13.904121398925781 6.435359001159668 13.685513496398926 6.906637191772461 13.260004043579102 7.062479019165039 C 12.851049423217773 7.2122578620910645 12.396326065063477 7.016425609588623 12.224160194396973 6.616380214691162 C 12.068318367004395 6.190871238708496 12.28692626953125 5.719593048095703 12.712435722351074 5.563751220703125 C 13.121390342712402 5.4139723777771 13.5761137008667 5.609804630279541 13.748279571533203 6.009850025177002" stroke-width="1.0" fill="rgb(255, 253, 251)" opacity="1.0"/>
    <path d="M 12.234829902648926 2.704349994659424 C 12.390714645385742 3.129843235015869 12.172154426574707 3.6011433601379395 11.746661186218262 3.757028341293335 C 11.337660789489746 3.9068710803985596 10.882855415344238 3.711003065109253 10.710704803466797 3.310879945755005 C 10.55482006072998 2.8853867053985596 10.773380279541016 2.4140865802764893 11.198873519897461 2.2582015991210938 C 11.607873916625977 2.108358860015869 12.062679290771484 2.304226875305176 12.234829902648926 2.704349994659424" stroke-width="1.0" fill="rgb(255, 253, 251)" opacity="1.0"/>
    <path d="M 19.559030532836914 10.852499961853027 C 19.203073501586914 11.132926940917969 18.68718147277832 11.071698188781738 18.406755447387695 10.715742111206055 C 18.13706398010254 10.373414039611816 18.18204689025879 9.879975318908691 18.50918960571289 9.592055320739746 C 18.86514663696289 9.311627388000488 19.381038665771484 9.372856140136719 19.66146469116211 9.728813171386719 C 19.931156158447266 10.071141242980957 19.886173248291016 10.564579010009766 19.559030532836914 10.852499961853027" stroke-width="1.0" fill="rgb(255, 253, 251)" opacity="1.0"/>
    <path d="M 22.018930435180664 8.681449890136719 C 21.662996292114258 8.961907386779785 21.1471004486084 8.900721549987793 20.86664390563965 8.544788360595703 C 20.596891403198242 8.20244026184082 20.64188003540039 7.708928108215332 20.96908950805664 7.421000003814697 C 21.325023651123047 7.140542984008789 21.840919494628906 7.201728343963623 22.121376037597656 7.557661056518555 C 22.391128540039062 7.900009632110596 22.346139907836914 8.393522262573242 22.018930435180664 8.681449890136719" stroke-width="1.0" fill="rgb(255, 253, 251)" opacity="1.0"/>
    <path d="M 24.691030502319336 6.216400146484375 C 24.335073471069336 6.496827125549316 23.819181442260742 6.435598373413086 23.538755416870117 6.079641819000244 C 23.26906394958496 5.737313747406006 23.31404685974121 5.243875980377197 23.641189575195312 4.9559550285339355 C 23.997146606445312 4.675527572631836 24.513038635253906 4.736756801605225 24.79346466064453 5.092713356018066 C 25.063156127929688 5.435041427612305 25.018173217773438 5.928479194641113 24.691030502319336 6.216400146484375" stroke-width="1.0" fill="rgb(255, 253, 251)" opacity="1.0"/>
    <path d="M 11.924229621887207 13.52614974975586 C 12.365909576416016 13.424924850463867 12.80601978302002 13.700918197631836 12.907244682312012 14.142597198486328 C 13.004597663879395 14.5673828125 12.752869606018066 14.994161605834961 12.334005355834961 15.11446475982666 C 11.892325401306152 15.215689659118652 11.452215194702148 14.939696311950684 11.350990295410156 14.498017311096191 C 11.253637313842773 14.07323169708252 11.505365371704102 13.646452903747559 11.924229621887207 13.52614974975586" stroke-width="1.0" fill="rgb(255, 253, 251)" opacity="1.0"/>
    <path d="M 8.772080421447754 14.436400413513184 C 9.213796615600586 14.335250854492188 9.653876304626465 14.611334800720215 9.755024909973145 15.053050994873047 C 9.852276802062988 15.477747917175293 9.600637435913086 15.904397964477539 9.181904792785645 16.024765014648438 C 8.740188598632812 16.125913619995117 8.300108909606934 15.84982967376709 8.198959350585938 15.408113479614258 C 8.101707458496094 14.983417510986328 8.353347778320312 14.556766510009766 8.772080421447754 14.436400413513184" stroke-width="1.0" fill="rgb(255, 253, 251)" opacity="1.0"/>
    <path d="M 5.302380084991455 15.521650314331055 C 5.744056224822998 15.420411109924316 6.184175491333008 15.696391105651855 6.28541374206543 16.1380672454834 C 6.382783889770508 16.5628662109375 6.131044387817383 16.989667892456055 5.712160110473633 17.10996437072754 C 5.27048397064209 17.21120262145996 4.83036470413208 16.935224533081055 4.7291259765625 16.493547439575195 C 4.631755828857422 16.068748474121094 4.883495330810547 15.641947746276855 5.302380084991455 15.521650314331055" stroke-width="1.0" fill="rgb(255, 253, 251)" opacity="1.0"/>
    <path d="M 14.452685356140137 16.875749588012695 C 14.580090522766113 16.440879821777344 15.035905838012695 16.19162940979004 15.470776557922363 16.31903648376465 C 15.888382911682129 16.441383361816406 16.13783836364746 16.86847496032715 16.039255142211914 17.292320251464844 C 15.911849021911621 17.727190017700195 15.456034660339355 17.9764404296875 15.021163940429688 17.84903335571289 C 14.603557586669922 17.726686477661133 14.354101181030273 17.299596786499023 14.452685356140137 16.875749588012695" stroke-width="1.0" fill="rgb(255, 253, 251)" opacity="1.0"/>
    <path d="M 13.710579872131348 20.0716495513916 C 13.837847709655762 19.63673973083496 14.293583869934082 19.387344360351562 14.728494644165039 19.514612197875977 C 15.146331787109375 19.636884689331055 15.395926475524902 20.064210891723633 15.297164916992188 20.48822021484375 C 15.169897079467773 20.92313003540039 14.714160919189453 21.17252540588379 14.279250144958496 21.045257568359375 C 13.861413955688477 20.922985076904297 13.611818313598633 20.49565887451172 13.710579872131348 20.0716495513916" stroke-width="1.0" fill="rgb(255, 253, 251)" opacity="1.0"/>
    <path d="M 19.46562957763672 15.38444995880127 C 19.065805435180664 15.171177864074707 18.914575576782227 14.674164772033691 19.12784767150879 14.274340629577637 C 19.332836151123047 13.890046119689941 19.8023681640625 13.73288345336914 20.19739532470703 13.916339874267578 C 20.597219467163086 14.12961196899414 20.748449325561523 14.626625061035156 20.53517723083496 15.026449203491211 C 20.330190658569336 15.410743713378906 19.86065673828125 15.567906379699707 19.46562957763672 15.38444995880127" stroke-width="1.0" fill="rgb(255, 253, 251)" opacity="1.0"/>
    <path d="M 22.442684173583984 16.763399124145508 C 22.042869567871094 16.55010986328125 21.89166259765625 16.053089141845703 22.10495376586914 15.653274536132812 C 22.30994415283203 15.269018173217773 22.779438018798828 15.11186695098877 23.1744441986084 15.295289993286133 C 23.57425880432129 15.508581161499023 23.725467681884766 16.005599975585938 23.512176513671875 16.405414581298828 C 23.30718421936035 16.7896728515625 22.837692260742188 16.946823120117188 22.442684173583984 16.763399124145508" stroke-width="1.0" fill="rgb(255, 253, 251)" opacity="1.0"/>
    <path d="M 25.774330139160156 18.218399047851562 C 25.3745059967041 18.005126953125 25.22327423095703 17.508115768432617 25.436546325683594 17.10828971862793 C 25.64153480529785 16.723997116088867 26.111068725585938 16.56683349609375 26.50609588623047 16.750289916992188 C 26.905920028686523 16.96356201171875 27.05714988708496 17.460575103759766 26.8438777923584 17.86039924621582 C 26.63888931274414 18.244693756103516 26.169355392456055 18.401857376098633 25.774330139160156 18.218399047851562" stroke-width="1.0" fill="rgb(255, 253, 251)" opacity="1.0"/>
  </g>
</svg>
