<?xml version="1.0" ?>
<svg xmlns="http://www.w3.org/2000/svg" version="1.1" width="600" height="600">
  <defs/>
  <g>
    <path d="M 15.874500274658203 15.441900253295898 C 24.47406578063965 15.440829277038574 31.511077880859375 8.596232414245605 31.750499725341797 0.0 L 0.0 0.0 C 0.23838160932064056 8.596099853515625 7.275095462799072 15.441054344177246 15.874500274658203 15.441900253295898" stroke-width="1.0" fill="rgb(124, 166, 64)" opacity="1.0"/>
    <path d="M 15.874500274658203 12.836899757385254 C 23.023338317871094 12.836450576782227 28.873411178588867 7.146570682525635 29.072294235229492 0.0005000000237487257 L 2.6777451038360596 0.0005000000237487257 C 2.8763294219970703 7.146293640136719 8.725947380065918 12.836179733276367 15.874500274658203 12.836899757385254" stroke-width="1.0" fill="rgb(244, 238, 219)" opacity="1.0"/>
    <path d="M 15.979499816894531 12.351099967956543 C 22.85763931274414 12.350543975830078 28.4860782623291 6.875982284545898 28.677244186401367 0.0005000000237487257 L 3.282744884490967 0.0005000000237487257 C 3.4734413623809814 6.875800132751465 9.101555824279785 12.350473403930664 15.979499816894531 12.351099967956543" stroke-width="1.0" fill="rgb(233, 60, 39)" opacity="1.0"/>
    <path d="M 13.930194854736328 5.049300193786621 C 13.923081398010254 5.30656623840332 13.708758354187012 5.509355068206787 13.451492309570312 5.502241134643555 C 13.204212188720703 5.49540376663208 13.005366325378418 5.296541213989258 12.998550415039062 5.049260139465332 C 12.99804973602295 4.791500091552734 13.207050323486328 3.868149995803833 13.46434497833252 3.868149995803833 C 13.721195220947266 3.868149995803833 13.929695129394531 4.791999816894531 13.930194854736328 5.049300193786621" stroke-width="1.0" fill="rgb(60, 48, 24)" opacity="1.0"/>
    <path d="M 18.635744094848633 5.049300193786621 C 18.628631591796875 5.30656623840332 18.414308547973633 5.509355068206787 18.157041549682617 5.502241134643555 C 17.909761428833008 5.49540376663208 17.71091651916504 5.296541213989258 17.704099655151367 5.049260139465332 C 17.704099655151367 4.791999816894531 17.912599563598633 3.868149995803833 18.169944763183594 3.868149995803833 C 18.42674446105957 3.868149995803833 18.635744094848633 4.792500019073486 18.635744094848633 5.049300193786621" stroke-width="1.0" fill="rgb(60, 48, 24)" opacity="1.0"/>
    <path d="M 11.846195220947266 8.629400253295898 C 11.839080810546875 8.886666297912598 11.62475872039795 9.089454650878906 11.36749267578125 9.082341194152832 C 11.120211601257324 9.0755033493042 10.921366691589355 8.876641273498535 10.914549827575684 8.62936019897461 C 10.914549827575684 8.372050285339355 11.12304973602295 7.447750091552734 11.38039493560791 7.447750091552734 C 11.637194633483887 7.447750091552734 11.846195220947266 8.371600151062012 11.846195220947266 8.629400253295898" stroke-width="1.0" fill="rgb(60, 48, 24)" opacity="1.0"/>
    <path d="M 16.55174446105957 8.07859992980957 C 16.544147491455078 8.33585262298584 16.329444885253906 8.538237571716309 16.07219123840332 8.530640602111816 C 15.825600624084473 8.523358345031738 15.627411842346191 8.325151443481445 15.620149612426758 8.078559875488281 C 15.620149612426758 7.821300029754639 15.82865047454834 6.897449970245361 16.08594512939453 6.897449970245361 C 16.3437442779541 6.897449970245361 16.55174446105957 7.821300029754639 16.55174446105957 8.07859992980957" stroke-width="1.0" fill="rgb(60, 48, 24)" opacity="1.0"/>
    <path d="M 21.25734519958496 8.629400253295898 C 21.25023078918457 8.886666297912598 21.035907745361328 9.089454650878906 20.778642654418945 9.082341194152832 C 20.531362533569336 9.0755033493042 20.332515716552734 8.876641273498535 20.325700759887695 8.62936019897461 C 20.325700759887695 8.372050285339355 20.53420066833496 7.447750091552734 20.791500091552734 7.447750091552734 C 21.0483455657959 7.448249816894531 21.25734519958496 8.371600151062012 21.25734519958496 8.629400253295898" stroke-width="1.0" fill="rgb(60, 48, 24)" opacity="1.0"/>
    <path d="M 23.375 4.61329984664917 C 23.36814308166504 4.870429515838623 23.154138565063477 5.073315620422363 22.897008895874023 5.066458225250244 C 22.649507522583008 5.0598578453063965 22.450429916381836 4.860763072967529 22.443849563598633 4.613259792327881 C 22.443849563598633 4.356450080871582 22.6518497467041 3.432149887084961 22.909194946289062 3.432149887084961 C 23.166500091552734 3.432149887084961 23.375 4.355949878692627 23.375 4.61329984664917" stroke-width="1.0" fill="rgb(60, 48, 24)" opacity="1.0"/>
    <path d="M 8.97219467163086 4.881849765777588 C 8.96522045135498 5.139120101928711 8.751008033752441 5.342024803161621 8.49373722076416 5.335050106048584 C 8.246451377868652 5.328346252441406 8.047497749328613 5.129589080810547 8.040550231933594 4.882309913635254 C 8.04104995727539 4.625 8.24905014038086 3.7011499404907227 8.50634479522705 3.7011499404907227 C 8.763694763183594 3.7011499404907227 8.971694946289062 4.625 8.97219467163086 4.881849765777588" stroke-width="1.0" fill="rgb(60, 48, 24)" opacity="1.0"/>
  </g>
</svg>
