<?xml version="1.0" ?>
<svg xmlns="http://www.w3.org/2000/svg" version="1.1" width="600" height="600">
  <defs/>
  <g>
    <path d="M 5.972650051116943 10.152850151062012 C 0.8066499829292297 15.318349838256836 2.0390501022338867 25.072750091552734 2.0390501022338867 25.072750091552734 L 20.892099380493164 6.219749927520752 C 20.892099380493164 6.219749927520752 11.137200355529785 4.987299919128418 5.972650051116943 10.152850151062012" stroke-width="1.0" fill="rgb(105, 142, 61)" opacity="1.0"/>
    <path d="M 10.45265007019043 0.0 C 4.724599838256836 0.0 0.0 6.091300010681152 0.0 6.091300010681152 L 20.904804229736328 6.091300010681152 C 20.904804229736328 6.091300010681152 16.180200576782227 0.0 10.45265007019043 0.0" stroke-width="1.0" fill="rgb(105, 142, 61)" opacity="1.0"/>
    <path d="M 31.578149795532227 0.0 C 25.850099563598633 0.0 21.125499725341797 6.091300010681152 21.125499725341797 6.091300010681152 L 42.030303955078125 6.091300010681152 C 42.030303955078125 6.091300010681152 37.305198669433594 0.0 31.578149795532227 0.0" stroke-width="1.0" fill="rgb(105, 142, 61)" opacity="1.0"/>
    <path d="M 35.824249267578125 10.152850151062012 C 40.99024963378906 15.318349838256836 39.75780487060547 25.072750091552734 39.75780487060547 25.072750091552734 L 20.904804229736328 6.219749927520752 C 20.904804229736328 6.219749927520752 30.659700393676758 4.987299919128418 35.824249267578125 10.152850151062012" stroke-width="1.0" fill="rgb(105, 142, 61)" opacity="1.0"/>
    <path d="M 22.639150619506836 7.14454984664917 L 20.852550506591797 6.215849876403809 L 19.0664005279541 7.14454984664917 L 16.24074935913086 42.89405059814453 L 25.4648494720459 42.89405059814453 L 22.639150619506836 7.14454984664917" stroke-width="1.0" fill="rgb(245, 137, 37)" opacity="1.0"/>
    <path d="M 25.232450485229492 39.5004997253418 L 16.473649978637695 39.5004997253418 C 16.05511474609375 39.48889923095703 15.72523021697998 39.14020538330078 15.736830711364746 38.72167205810547 C 15.747980117797852 38.31941604614258 16.071468353271484 37.9959602355957 16.473724365234375 37.9848518371582 L 25.232450485229492 37.9848518371582 C 25.650985717773438 37.996429443359375 25.98088836669922 38.34510803222656 25.96930694580078 38.763641357421875 C 25.95817756652832 39.165897369384766 25.63470458984375 39.48937225341797 25.232450485229492 39.5004997253418" stroke-width="1.0" fill="rgb(246, 166, 28)" opacity="1.0"/>
    <path d="M 24.82859992980957 32.83890151977539 L 17.095199584960938 32.83890151977539 C 16.67680549621582 32.82695770263672 16.34731101989746 32.47809982299805 16.3592529296875 32.0597038269043 C 16.370718002319336 31.65806770324707 16.69363784790039 31.335180282592773 17.09527587890625 31.323755264282227 L 24.82859992980957 31.323755264282227 C 25.24699592590332 31.335182189941406 25.576908111572266 31.683622360229492 25.565481185913086 32.10201644897461 C 25.554492950439453 32.50434875488281 25.230928421020508 32.827911376953125 24.82859992980957 32.83890151977539" stroke-width="1.0" fill="rgb(246, 166, 28)" opacity="1.0"/>
    <path d="M 24.133804321289062 26.447750091552734 L 17.60059928894043 26.447750091552734 C 17.182079315185547 26.447750091552734 16.84280014038086 26.108470916748047 16.84280014038086 25.689950942993164 C 16.84280014038086 25.27142906188965 17.182079315185547 24.93214988708496 17.60059928894043 24.93214988708496 L 24.133804321289062 24.93214988708496 C 24.552326202392578 24.94402503967285 24.88197898864746 25.292930603027344 24.870101928710938 25.71145248413086 C 24.858701705932617 26.11328125 24.535633087158203 26.43634796142578 24.133804321289062 26.447750091552734" stroke-width="1.0" fill="rgb(246, 166, 28)" opacity="1.0"/>
    <path d="M 24.133804321289062 19.905750274658203 L 18.117700576782227 19.905750274658203 C 17.699440002441406 19.905750274658203 17.360374450683594 19.56668472290039 17.360374450683594 19.14842414855957 C 17.360374450683594 18.730165481567383 17.699440002441406 18.39109992980957 18.117700576782227 18.39109992980957 L 24.133804321289062 18.39109992980957 C 24.552064895629883 18.40267562866211 24.881746292114258 18.75112533569336 24.87017059326172 19.16938591003418 C 24.859045028686523 19.571369171142578 24.535789489746094 19.894624710083008 24.133804321289062 19.905750274658203" stroke-width="1.0" fill="rgb(246, 166, 28)" opacity="1.0"/>
    <path d="M 23.145999908447266 14.309599876403809 C 22.47517967224121 14.08041000366211 17.628625869750977 14.958600044250488 17.8022403717041 13.551980018615723 C 17.61515998840332 12.149174690246582 22.492130279541016 13.021405220031738 23.145984649658203 12.79419994354248 C 23.564451217651367 12.805973052978516 23.894142150878906 13.15475082397461 23.882368087768555 13.573216438293457 C 23.871061325073242 13.975127220153809 23.547910690307617 14.298285484313965 23.145999908447266 14.309599876403809" stroke-width="1.0" fill="rgb(246, 166, 28)" opacity="1.0"/>
    <path d="M 31.728050231933594 17.262699127197266 C 33.5004997253418 24.349149703979492 27.42675018310547 32.081050872802734 27.42675018310547 32.081050872802734 L 20.95655059814453 6.215849876403809 C 20.95655059814453 6.215849876403809 29.955549240112305 10.176750183105469 31.728050231933594 17.262699127197266" stroke-width="1.0" fill="rgb(124, 166, 64)" opacity="1.0"/>
    <path d="M 10.081049919128418 17.262699127197266 C 8.309100151062012 24.349149703979492 14.382804870605469 32.081050872802734 14.382804870605469 32.081050872802734 L 20.852550506591797 6.215849876403809 C 20.852550506591797 6.215849876403809 11.854000091552734 10.176750183105469 10.081049919128418 17.262699127197266" stroke-width="1.0" fill="rgb(124, 166, 64)" opacity="1.0"/>
  </g>
</svg>
