<?xml version="1.0" ?>
<svg xmlns="http://www.w3.org/2000/svg" version="1.1" width="600" height="600">
  <defs/>
  <g>
    <path d="M 31.146385192871094 16.802684783935547 C 32.66231155395508 18.3184871673584 32.662757873535156 20.776081085205078 31.147384643554688 22.292434692382812 L 22.29238510131836 31.147384643554688 C 20.776168823242188 32.66289520263672 18.318574905395508 32.66267013549805 16.802635192871094 31.14688491821289 L 2.570734977722168 16.915435791015625 C 1.0550838708877563 15.39937686920166 1.0550838708877563 12.941792488098145 2.570734977722168 11.425735473632812 L 11.425689697265625 2.570734977722168 C 12.941812515258789 1.055472731590271 15.399088859558105 1.0556964874267578 16.914934158325195 2.571234941482544 L 31.146385192871094 16.802684783935547" stroke-width="1.0" fill="rgb(195, 75, 39)" opacity="1.0"/>
    <path d="M 31.304584503173828 17.677684783935547 C 33.853206634521484 20.533634185791016 23.868709564208984 27.411869049072266 22.59068489074707 29.465129852294922 C 21.251384735107422 30.80413055419922 19.476985931396484 31.20158576965332 18.628835678100586 30.353435516357422 L 10.665434837341309 22.390085220336914 C 8.117935180664062 19.535400390625 18.1020450592041 12.656914710998535 19.37933921813965 10.604084968566895 C 20.719635009765625 9.2645845413208 22.493085861206055 8.866125106811523 23.34123420715332 9.714275360107422 L 31.304584503173828 17.677684783935547" stroke-width="1.0" fill="rgb(251, 249, 220)" opacity="1.0"/>
    <path d="M 29.71233558654785 15.368584632873535 C 31.228322982788086 16.884450912475586 31.228525161743164 19.342222213745117 29.712785720825195 20.858335494995117 L 20.858335494995117 29.71283531188965 C 19.34200668334961 31.228546142578125 16.884138107299805 31.228322982788086 15.368084907531738 29.71233558654785 L 1.1371350288391113 15.481385231018066 C -0.3788469433784485 13.965330123901367 -0.37907078862190247 11.507466316223145 1.1366349458694458 9.991134643554688 L 9.991134643554688 1.1366349458694458 C 11.507270812988281 -0.37907153367996216 13.965025901794434 -0.3788476884365082 15.480884552001953 1.1371350288391113 L 29.71233558654785 15.368584632873535" stroke-width="1.0" fill="rgb(240, 90, 41)" opacity="1.0"/>
    <path d="M 9.532634735107422 9.532634735107422 C 4.434774875640869 14.48990535736084 12.32613468170166 22.382360458374023 17.284414291381836 17.283714294433594 C 22.3812198638916 12.325565338134766 14.489065170288086 4.4346699714660645 9.532634735107422 9.532634735107422" stroke-width="1.0" fill="rgb(251, 249, 220)" opacity="1.0"/>
  </g>
</svg>
