<?xml version="1.0" ?>
<svg xmlns="http://www.w3.org/2000/svg" version="1.1" width="600" height="600">
  <defs/>
  <g>
    <path d="M 28.70394515991211 42.49596405029297 C 27.468320846557617 42.79796600341797 9.634255409240723 1.49788498878479 8.978500366210938 1.0766500234603882 C 8.802504539489746 0.6967208981513977 8.967825889587402 0.24605520069599152 9.347755432128906 0.07005999982357025 C 9.727684020996094 -0.10593520104885101 10.178349494934082 0.05938589572906494 10.354345321655273 0.43931499123573303 L 29.390499114990234 41.41976547241211 C 29.564437866210938 41.80254364013672 29.395137786865234 42.25385284423828 29.012359619140625 42.427791595458984 C 28.915451049804688 42.47182846069336 28.81038475036621 42.495052337646484 28.70394515991211 42.49596405029297" stroke-width="1.0" fill="rgb(246, 166, 28)" opacity="1.0"/>
    <path d="M 10.457844734191895 2.188815116882324 C 1.4101827144622803 6.391790390014648 -2.5172119140625 17.133554458618164 1.6857634782791138 26.181217193603516 C 1.6858073472976685 26.181310653686523 1.6858510971069336 26.181406021118164 1.6858949661254883 26.181499481201172 L 34.45054626464844 10.9612398147583 C 30.247400283813477 1.9135980606079102 19.505695343017578 -2.0138800144195557 10.457844734191895 2.188815116882324" stroke-width="1.0" fill="rgb(244, 238, 219)" opacity="1.0"/>
    <path d="M 9.160499572753906 2.8626649379730225 C 0.9753377437591553 7.502071857452393 -2.2768945693969727 17.648195266723633 1.6858949661254883 26.181499481201172 L 6.282599925994873 24.04574966430664 C 2.3421449661254883 15.56236457824707 3.682499885559082 6.45442008972168 9.160499572753906 2.8626649379730225" stroke-width="1.0" fill="rgb(233, 60, 39)" opacity="1.0"/>
    <path d="M 11.911999702453613 1.5843149423599243 C 20.737035751342773 -1.677571415901184 30.58794403076172 2.381932497024536 34.5526008605957 10.914380073547363 L 29.955894470214844 13.04963493347168 C 26.014999389648438 4.56525993347168 18.19029426574707 -0.2843349874019623 11.911999702453613 1.5843149423599243" stroke-width="1.0" fill="rgb(233, 60, 39)" opacity="1.0"/>
    <path d="M 10.459844589233398 2.0301148891448975 C 6.2137451171875 4.00276517868042 6.205894947052002 12.994460105895996 10.442745208740234 22.11411476135254 L 25.81824493408203 14.971064567565918 C 21.582395553588867 5.851880073547363 14.706395149230957 0.0579649992287159 10.459844589233398 2.0301148891448975" stroke-width="1.0" fill="rgb(233, 60, 39)" opacity="1.0"/>
    <path d="M 10.397794723510742 2.059415102005005 C 9.015995025634766 2.7000648975372314 11.330445289611816 10.61359977722168 15.566744804382324 19.733715057373047 L 20.569194793701172 17.409015655517578 C 16.333345413208008 8.289380073547363 11.779644966125488 1.4168649911880493 10.397794723510742 2.059415102005005" stroke-width="1.0" fill="rgb(244, 238, 219)" opacity="1.0"/>
  </g>
</svg>
