<?xml version="1.0" ?>
<svg xmlns="http://www.w3.org/2000/svg" version="1.1" width="600" height="600">
  <defs/>
  <g>
    <path d="M 14.34896469116211 5.701564788818359 L 11.593114852905273 5.701564788818359 C 11.744614601135254 3.4705650806427 11.739509582519531 -0.04843499884009361 8.647529602050781 0.0005200000014156103 C 5.55827522277832 -0.04907499998807907 5.547999858856201 3.4724550247192383 5.702465057373047 5.701564788818359 C 3.471169948577881 5.549689769744873 -0.04841500148177147 5.556159973144531 0.0005000000237487257 8.647649765014648 C -0.04905499890446663 11.73635482788086 3.473069906234741 11.74804973602295 5.702449798583984 11.59315013885498 C 5.550950050354004 13.824094772338867 5.556099891662598 17.342805862426758 8.64808464050293 17.29414939880371 C 11.737319946289062 17.343435287475586 11.74758529663086 13.822150230407715 11.593085289001465 11.59315013885498 C 18.793655395507812 12.673500061035156 18.639755249023438 6.077805042266846 14.34896469116211 5.701564788818359" stroke-width="1.0" fill="rgb(245, 137, 37)" opacity="1.0"/>
    <path d="M 10.596064567565918 2.5326149463653564 L 8.647814750671387 4.481814861297607 C 7.177525043487549 2.7971699237823486 4.684999942779541 0.31228500604629517 2.5334699153900146 2.5329248905181885 C 0.3141849935054779 4.681875228881836 2.7959699630737305 7.179969787597656 4.481764793395996 8.646864891052246 C 2.7973148822784424 10.117864608764648 0.31287500262260437 12.610685348510742 2.533874988555908 14.762160301208496 C 4.682445049285889 16.981935501098633 7.180970191955566 14.4983549118042 8.647814750671387 12.812865257263184 C 10.118234634399414 14.497864723205566 12.610250473022461 16.981809616088867 14.762160301208496 14.760809898376465 C 16.981910705566406 12.611969947814941 14.4987154006958 10.114145278930664 12.813315391540527 8.647364616394043 C 18.58170509338379 4.434000015258789 14.036344528198242 -0.26289498805999756 10.596064567565918 2.5326149463653564" stroke-width="1.0" fill="rgb(238, 157, 34)" opacity="1.0"/>
    <path d="M 10.62336540222168 8.646864891052246 C 10.660690307617188 11.210865020751953 6.6345601081848145 11.210840225219727 6.672224998474121 8.646690368652344 C 6.635039806365967 6.083755016326904 10.660849571228027 6.083664894104004 10.62336540222168 8.646864891052246" stroke-width="1.0" fill="rgb(244, 238, 219)" opacity="1.0"/>
  </g>
</svg>
