<?xml version="1.0" ?>
<svg xmlns="http://www.w3.org/2000/svg" version="1.1" width="600" height="600">
  <defs/>
  <g>
    <path d="M 14.410625457763672 7.067295074462891 C 14.368300437927246 16.491439819335938 0.041200000792741776 16.490154266357422 0.0 7.066860198974609 C 0.04238000139594078 -2.355870008468628 14.369734764099121 -2.3554999828338623 14.410625457763672 7.067295074462891" stroke-width="1.0" fill="rgb(240, 90, 41)" opacity="1.0"/>
    <path d="M 13.355924606323242 7.067295074462891 C 13.320050239562988 15.110730171203613 1.0899200439453125 15.109999656677246 1.0551949739456177 7.066919803619385 C 1.0910300016403198 -0.9761599898338318 13.321174621582031 -0.9754999876022339 13.355924606323242 7.067295074462891" stroke-width="1.0" fill="rgb(238, 157, 34)" opacity="1.0"/>
    <path d="M 8.238274574279785 2.2362449169158936 C 8.238274574279785 2.7532949447631836 7.899425029754639 6.2796950340271 7.364725112915039 6.2796950340271 C 6.830574989318848 6.2796950340271 6.303225040435791 2.7532949447631836 6.303225040435791 2.2362449169158936 C 6.2840352058410645 1.0210850238800049 8.256745338439941 1.0205349922180176 8.238274574279785 2.2362449169158936" stroke-width="1.0" fill="rgb(245, 137, 37)" opacity="1.0"/>
    <path d="M 12.064425468444824 7.786499977111816 C 11.547374725341797 7.786499977111816 8.020975112915039 7.448649883270264 8.020975112915039 6.913449764251709 C 8.020975112915039 6.379300117492676 11.547374725341797 5.851449966430664 12.064425468444824 5.851449966430664 C 13.279170036315918 5.832849979400635 13.279435157775879 7.805695056915283 12.064425468444824 7.786499977111816" stroke-width="1.0" fill="rgb(245, 137, 37)" opacity="1.0"/>
    <path d="M 11.401824951171875 4.180045127868652 C 11.036125183105469 4.545294761657715 8.303224563598633 6.799194812774658 7.924775123596191 6.421295166015625 C 7.546875 6.042844772338867 9.667474746704102 3.176645040512085 10.03272533416748 2.8109450340270996 C 10.879440307617188 1.938349962234497 12.274054527282715 3.3329200744628906 11.401824951171875 4.180045127868652" stroke-width="1.0" fill="rgb(245, 137, 37)" opacity="1.0"/>
    <path d="M 10.151824951171875 11.057499885559082 C 9.786125183105469 10.691800117492676 7.532724857330322 7.959350109100342 7.910124778747559 7.58144998550415 C 8.288575172424316 7.203499794006348 11.154274940490723 9.323650360107422 11.520025253295898 9.688850402832031 C 12.393219947814941 10.534749984741211 10.99789047241211 11.931300163269043 10.151824951171875 11.057499885559082" stroke-width="1.0" fill="rgb(245, 137, 37)" opacity="1.0"/>
    <path d="M 2.3608250617980957 7.786499977111816 C 2.877424955368042 7.786499977111816 6.403775215148926 7.448649883270264 6.403775215148926 6.913449764251709 C 6.403775215148926 6.379300117492676 2.877424955368042 5.851449966430664 2.3608250617980957 5.851449966430664 C 1.1455800533294678 5.83291482925415 1.1453150510787964 7.80563497543335 2.3608250617980957 7.786499977111816" stroke-width="1.0" fill="rgb(245, 137, 37)" opacity="1.0"/>
    <path d="M 3.0229249000549316 4.180045127868652 C 3.389125108718872 4.545294761657715 6.12107515335083 6.799194812774658 6.499975204467773 6.421295166015625 C 6.877425193786621 6.042844772338867 4.757824897766113 3.176645040512085 4.391574859619141 2.8109450340270996 C 3.5457749366760254 1.938194990158081 2.15059494972229 3.3331949710845947 3.0229249000549316 4.180045127868652" stroke-width="1.0" fill="rgb(245, 137, 37)" opacity="1.0"/>
    <path d="M 4.273425102233887 11.057499885559082 C 4.639124870300293 10.691800117492676 6.892574787139893 7.959350109100342 6.514625072479248 7.58144998550415 C 6.13622522354126 7.203499794006348 3.270975112915039 9.323650360107422 2.9047749042510986 9.688850402832031 C 2.0321550369262695 10.534065246582031 3.4266951084136963 11.931349754333496 4.273425102233887 11.057499885559082" stroke-width="1.0" fill="rgb(245, 137, 37)" opacity="1.0"/>
    <path d="M 6.237774848937988 11.920795440673828 C 6.237774848937988 11.404194831848145 6.576175212860107 7.877345085144043 7.110825061798096 7.877345085144043 C 7.64502477645874 7.877345085144043 8.17282485961914 11.404194831848145 8.172374725341797 11.920795440673828 C 8.191499710083008 13.136719703674316 6.219180107116699 13.135894775390625 6.237774848937988 11.920795440673828" stroke-width="1.0" fill="rgb(245, 137, 37)" opacity="1.0"/>
  </g>
</svg>
