<?xml version="1.0" ?>
<svg xmlns="http://www.w3.org/2000/svg" version="1.1" width="600" height="600">
  <defs/>
  <g>
    <path d="M 14.348999977111816 5.701499938964844 L 11.59315013885498 5.701499938964844 C 11.744649887084961 3.4704999923706055 11.739480018615723 -0.048464998602867126 8.647515296936035 0.0005000000237487257 C 5.558304786682129 -0.04909500107169151 5.548015117645264 3.472414970397949 5.702515125274658 5.701499938964844 C 3.4712300300598145 5.549624919891357 -0.04839999973773956 5.5561699867248535 0.0005000000237487257 8.647604942321777 C -0.04904000088572502 11.736330032348633 3.473140001296997 11.7479248046875 5.702499866485596 11.593070030212402 C 5.551044940948486 13.824000358581543 5.556065082550049 17.342830657958984 8.64808464050293 17.294164657592773 C 11.737380027770996 17.343454360961914 11.747610092163086 13.822114944458008 11.59315013885498 11.593070030212402 C 18.793745040893555 12.673399925231934 18.639789581298828 6.077805042266846 14.348999977111816 5.701499938964844" stroke-width="1.0" fill="rgb(195, 75, 39)" opacity="1.0"/>
    <path d="M 10.596070289611816 2.5325698852539062 L 8.647820472717285 4.481820106506348 C 7.177855014801025 2.7970950603485107 4.684124946594238 0.3122200071811676 2.5334999561309814 2.5328800678253174 C 0.31419000029563904 4.681940078735352 2.796030044555664 7.179930210113525 4.481844902038574 8.646880149841309 C 2.797344923019409 10.117879867553711 0.3128899931907654 12.610690116882324 2.533905029296875 14.76218032836914 C 4.681879997253418 16.982179641723633 7.180904865264893 14.497819900512695 8.647845268249512 12.81287956237793 C 10.117964744567871 14.498379707336426 12.610654830932617 16.98164939880371 14.762240409851074 14.760774612426758 C 16.982065200805664 12.611824989318848 14.498555183410645 10.113895416259766 12.812894821166992 8.647335052490234 C 18.582075119018555 4.4344401359558105 14.0364351272583 -0.26307499408721924 10.596070289611816 2.5325698852539062" stroke-width="1.0" fill="rgb(233, 60, 39)" opacity="1.0"/>
    <path d="M 10.623419761657715 8.646864891052246 C 10.660755157470703 11.21080493927002 6.63463020324707 11.210865020751953 6.6722798347473145 8.646690368652344 C 6.635105133056641 6.083710193634033 10.66091537475586 6.0837202072143555 10.623419761657715 8.646864891052246" stroke-width="1.0" fill="rgb(244, 238, 219)" opacity="1.0"/>
  </g>
</svg>
