<?xml version="1.0" ?>
<svg xmlns="http://www.w3.org/2000/svg" version="1.1" width="600" height="600">
  <defs/>
  <g>
    <path d="M 34.464351654052734 34.61603546142578 C 34.454750061035156 34.827186584472656 34.6202507019043 34.9543342590332 34.71900177001953 35.10888671875 C 35.388423919677734 36.110740661621094 35.95264434814453 37.17901611328125 36.4026985168457 38.29673385620117 C 36.55310821533203 38.69664764404297 36.67112350463867 39.10800552368164 36.75559997558594 39.52683639526367 C 36.81102752685547 39.79362869262695 36.825809478759766 40.0672721862793 36.7994499206543 40.33848571777344 C 36.76298904418945 41.45878982543945 35.82524871826172 42.33742141723633 34.7049446105957 42.300960540771484 C 34.40067672729492 42.29105758666992 34.102535247802734 42.21283721923828 33.83259963989258 42.072086334228516 C 33.236995697021484 41.783267974853516 32.69362258911133 41.3973274230957 32.22475051879883 40.930084228515625 C 31.311437606811523 40.05490493774414 30.530187606811523 39.05161666870117 29.905500411987305 37.95168685913086 C 29.813758850097656 37.74313735961914 29.6794376373291 37.556068420410156 29.511150360107422 37.40248489379883 C 29.384769439697266 38.036659240722656 29.29384422302246 38.67738723754883 29.238800048828125 39.321685791015625 C 29.10015296936035 40.5767936706543 28.82861328125 41.81362533569336 28.428749084472656 43.01138687133789 C 28.2115421295166 43.63544464111328 27.922039031982422 44.23193359375 27.566150665283203 44.7886848449707 C 27.36232566833496 45.1209716796875 27.095911026000977 45.41051483154297 26.781700134277344 45.6412353515625 C 26.166786193847656 46.14616394042969 25.258975982666016 46.057003021240234 24.754047393798828 45.44208908081055 C 24.64959144592285 45.314876556396484 24.567705154418945 45.17070770263672 24.51194953918457 45.01583480834961 C 24.227516174316406 44.33220672607422 24.081771850585938 43.598873138427734 24.08318519592285 42.858436584472656 C 24.041181564331055 41.09002685546875 24.178720474243164 39.321922302246094 24.493684768676758 37.58128356933594 C 24.661685943603516 36.625335693359375 24.821184158325195 35.66838455200195 25.01048469543457 34.71593475341797 C 25.062467575073242 34.352256774902344 25.290498733520508 34.037628173828125 25.61993408203125 33.87503433227539 C 27.719585418701172 32.71139144897461 29.46809959411621 31.005090713500977 30.68269920349121 28.934499740600586 C 30.782894134521484 28.791217803955078 30.866544723510742 28.637052536010742 30.932050704956055 28.474950790405273 C 31.042221069335938 28.02751922607422 31.484561920166016 27.745651245117188 31.936649322509766 27.834800720214844 C 33.724552154541016 27.809722900390625 35.50914001464844 27.996286392211914 37.25320053100586 28.390600204467773 C 38.211334228515625 28.644147872924805 39.131534576416016 29.02387046813965 39.98965072631836 29.519800186157227 C 40.396366119384766 29.749725341796875 40.76555633544922 30.040447235107422 41.084449768066406 30.381900787353516 C 41.99712371826172 31.22816276550293 42.05096435546875 32.6540641784668 41.2047004699707 33.56673812866211 C 41.063934326171875 33.71855163574219 40.90291976928711 33.850242614746094 40.726200103759766 33.958099365234375 C 40.05408477783203 34.427127838134766 39.2755126953125 34.720943450927734 38.46110153198242 34.81290054321289 C 37.24470901489258 34.97219467163086 36.0096321105957 34.912776947021484 34.814151763916016 34.637451171875 C 34.70240020751953 34.613685607910156 34.593849182128906 34.553184509277344 34.464351654052734 34.61603546142578" stroke-width="1.0" fill="rgb(152, 63, 88)" opacity="1.0"/>
    <path d="M 5.290335178375244 8.428435325622559 C 5.218922138214111 8.216012954711914 5.110613822937012 8.01784610748291 4.9703850746154785 7.8430352210998535 C 4.456002235412598 7.037377834320068 4.145257472991943 6.118716716766357 4.064935207366943 5.166234970092773 C 4.031069755554199 4.797901630401611 4.081070423126221 4.4266815185546875 4.211184978485107 4.080434799194336 C 4.4582133293151855 3.354688882827759 5.16176176071167 2.885226011276245 5.926734924316406 2.9356849193573 C 6.374607563018799 2.9513301849365234 6.813313007354736 3.06693434715271 7.210734844207764 3.2740349769592285 C 7.958027362823486 3.653489828109741 8.618305206298828 4.184109210968018 9.14968490600586 4.832234859466553 C 9.274385452270508 4.978034973144531 9.398099899291992 5.124635219573975 9.516599655151367 5.264235019683838 C 9.712599754333496 5.202785015106201 9.687535285949707 5.046985149383545 9.710285186767578 4.924534797668457 C 9.891324996948242 3.8501508235931396 10.252771377563477 2.8141236305236816 10.779335021972656 1.8602850437164307 C 11.05840015411377 1.3248233795166016 11.433849334716797 0.845435380935669 11.886835098266602 0.44618499279022217 C 12.540609359741211 -0.17316441237926483 13.572680473327637 -0.1452571302652359 14.19202995300293 0.5085176229476929 C 14.248736381530762 0.5683756470680237 14.300820350646973 0.6324485540390015 14.347834587097168 0.7001850008964539 C 14.869698524475098 1.4067890644073486 15.200922966003418 2.2358124256134033 15.309635162353516 3.107485055923462 C 15.573417663574219 4.838008403778076 15.5943021774292 6.596886157989502 15.371685028076172 8.333185195922852 C 15.333100318908691 8.719334602355957 15.269784927368164 9.10328483581543 15.23960018157959 9.489985466003418 C 15.231311798095703 9.706567764282227 15.091392517089844 9.896040916442871 14.886835098266602 9.967684745788574 C 13.628010749816895 10.585107803344727 12.497005462646484 11.434536933898926 11.55318546295166 12.47138500213623 C 10.97376537322998 13.099685668945312 10.448980331420898 13.776253700256348 9.984535217285156 14.493735313415527 C 9.882087707519531 14.70943832397461 9.626289367675781 14.804054260253906 9.408135414123535 14.706934928894043 C 7.138770580291748 14.101459503173828 4.92563009262085 13.302103042602539 2.793134927749634 12.3176851272583 C 2.176858901977539 12.030594825744629 1.589071273803711 11.685948371887207 1.037600040435791 11.288334846496582 C 0.6245318055152893 10.992148399353027 0.3026159405708313 10.586252212524414 0.10828500241041183 10.116584777832031 C -0.15645642578601837 9.582978248596191 0.05170651897788048 8.935592651367188 0.5778350234031677 8.656285285949707 C 0.9738757014274597 8.406878471374512 1.4246257543563843 8.25752067565918 1.8912349939346313 8.221084594726562 C 2.859149932861328 8.119162559509277 3.8373031616210938 8.180208206176758 4.785035133361816 8.401684761047363 C 4.898512840270996 8.427226066589355 5.013254165649414 8.446785926818848 5.128785133361816 8.460285186767578 C 5.183717250823975 8.456186294555664 5.23795747756958 8.4454927444458 5.290335178375244 8.428435325622559" stroke-width="1.0" fill="rgb(152, 63, 88)" opacity="1.0"/>
    <path d="M 32.889400482177734 22.733535766601562 C 32.89753341674805 23.662948608398438 32.791748046875 24.589855194091797 32.57440185546875 25.493534088134766 C 32.409854888916016 26.28612518310547 32.156593322753906 27.057668685913086 31.819400787353516 27.7935848236084 C 31.462434768676758 28.57180404663086 31.039209365844727 29.317886352539062 30.554399490356445 30.023584365844727 C 30.299400329589844 30.408584594726562 30.019399642944336 30.788585662841797 29.734399795532227 31.163585662841797 C 29.67669677734375 31.241756439208984 29.614944458007812 31.31686019897461 29.549400329589844 31.38858413696289 C 28.216787338256836 32.74509048461914 26.64110565185547 33.83906173706055 24.904399871826172 34.6135368347168 C 24.207483291625977 34.918663024902344 23.48235511779785 35.154788970947266 22.73940086364746 35.31853485107422 C 22.734399795532227 35.31853485107422 22.734399795532227 35.31853485107422 22.73940086364746 35.32353591918945 C 21.31060791015625 35.63319396972656 19.839323043823242 35.69576644897461 18.389400482177734 35.5085334777832 C 17.088478088378906 35.349605560302734 15.828604698181152 34.94944763183594 14.674400329589844 34.32858657836914 C 14.079667091369629 34.006832122802734 13.51418399810791 33.63372802734375 12.984399795532227 33.21353530883789 C 12.679400444030762 32.97853469848633 12.384400367736816 32.723533630371094 12.09939956665039 32.4584846496582 C 10.914445877075195 31.362775802612305 9.907376289367676 30.089195251464844 9.114399909973145 28.683534622192383 C 8.824021339416504 28.161174774169922 8.565223693847656 27.62187385559082 8.339400291442871 27.06853485107422 C 7.827109336853027 25.80113983154297 7.477653503417969 24.473878860473633 7.2993998527526855 23.118534088134766 C 7.136657238006592 21.98125648498535 7.083079814910889 20.831016540527344 7.139400005340576 19.683534622192383 C 7.177699089050293 19.007600784301758 7.267965793609619 18.335615158081055 7.40939998626709 17.673534393310547 C 7.708653450012207 16.447490692138672 8.181779861450195 15.2705659866333 8.814399719238281 14.178535461425781 C 9.296606063842773 13.290209770202637 9.91397762298584 12.482246398925781 10.644399642944336 11.783584594726562 C 10.998831748962402 11.433656692504883 11.376346588134766 11.107908248901367 11.774399757385254 10.808534622192383 C 11.889399528503418 10.718535423278809 12.009400367736816 10.633535385131836 12.12440013885498 10.553535461425781 C 13.71975040435791 9.48311996459961 15.593315124511719 8.902627944946289 17.514400482177734 8.883535385131836 C 17.59440040588379 8.878535270690918 17.679399490356445 8.87353515625 17.7593994140625 8.87353515625 C 18.2593994140625 8.863534927368164 18.7544002532959 8.868535041809082 19.2544002532959 8.868535041809082 L 19.334400177001953 8.868535041809082 C 20.98940086364746 8.868535041809082 22.539400100708008 9.378535270690918 24.09440040588379 9.878535270690918 C 24.5618839263916 10.0272216796875 25.018062591552734 10.209359169006348 25.459400177001953 10.423535346984863 C 26.048080444335938 10.7090482711792 26.608842849731445 11.048853874206543 27.1343994140625 11.4385347366333 C 27.71023941040039 11.865365982055664 28.24429702758789 12.345850944519043 28.729400634765625 12.87353515625 C 29.229400634765625 13.418584823608398 29.694400787353516 13.983534812927246 30.144399642944336 14.573534965515137 C 30.899158477783203 15.544233322143555 31.519737243652344 16.612165451049805 31.98940086364746 17.74853515625 C 32.23371124267578 18.3565673828125 32.421180725097656 18.98592185974121 32.549400329589844 19.6285343170166 L 32.60940170288086 19.958484649658203 C 32.772640228271484 20.87510871887207 32.866241455078125 21.802776336669922 32.889400482177734 22.733535766601562" stroke-width="1.0" fill="rgb(152, 63, 88)" opacity="1.0"/>
    <path d="M 30.16939926147461 24.80353546142578 C 30.939599990844727 25.661792755126953 31.503908157348633 26.684406280517578 31.819400787353516 27.7935848236084 C 31.462434768676758 28.57180404663086 31.039209365844727 29.317886352539062 30.554399490356445 30.023584365844727 C 30.59440040588379 27.71353530883789 29.539400100708008 25.9185848236084 27.604400634765625 24.578584671020508 C 26.148818969726562 23.600921630859375 24.514041900634766 22.921180725097656 22.79439926147461 22.578584671020508 C 23.039400100708008 22.858535766601562 23.27440071105957 23.143585205078125 23.519399642944336 23.423534393310547 C 26.119400024414062 26.398584365844727 26.57939910888672 29.758535385131836 25.34440040588379 33.42853546142578 C 25.209400177001953 33.82858657836914 25.069400787353516 34.223533630371094 24.904399871826172 34.6135368347168 C 24.207483291625977 34.918663024902344 23.48235511779785 35.154788970947266 22.73940086364746 35.31853485107422 C 24.161991119384766 33.24064254760742 24.71971321105957 30.690523147583008 24.29439926147461 28.208484649658203 C 24.190046310424805 27.681665420532227 24.030845642089844 27.167213439941406 23.819400787353516 26.673534393310547 C 23.33004379272461 25.55759620666504 22.628742218017578 24.5472469329834 21.7544002532959 23.698535919189453 C 21.609399795532227 23.9185848236084 21.68939971923828 24.158584594726562 21.68440055847168 24.37353515625 C 21.61061668395996 28.815540313720703 18.831645965576172 32.76201248168945 14.674400329589844 34.32858657836914 C 14.079667091369629 34.006832122802734 13.51418399810791 33.63372802734375 12.984399795532227 33.21353530883789 C 13.663928985595703 33.08427047729492 14.321992874145508 32.86042785644531 14.939399719238281 32.54853439331055 C 18.154399871826172 30.913585662841797 19.7544002532959 28.203584671020508 20.174400329589844 24.703584671020508 C 20.21432113647461 24.469087600708008 20.204097747802734 24.228792190551758 20.144399642944336 23.99853515625 C 19.93939971923828 23.938535690307617 19.89940071105957 24.1285343170166 19.81439971923828 24.228534698486328 C 17.54743003845215 27.1279354095459 14.049192428588867 28.79279136657715 10.369400024414062 28.723535537719727 C 9.949399948120117 28.723535537719727 9.53439998626709 28.708484649658203 9.114399909973145 28.683534622192383 C 8.824021339416504 28.161174774169922 8.565223693847656 27.62187385559082 8.339400291442871 27.06853485107422 C 8.369400024414062 27.073535919189453 8.404399871826172 27.073535919189453 8.434399604797363 27.078584671020508 C 10.295231819152832 27.34073257446289 12.191306114196777 27.17658233642578 13.979399681091309 26.598535537719727 C 16.097309112548828 25.830120086669922 17.92112159729004 24.417234420776367 19.194400787353516 22.558534622192383 C 19.21422004699707 22.519594192504883 19.226116180419922 22.47710609436035 19.229400634765625 22.433534622192383 C 19.11440086364746 22.30353546142578 18.994400024414062 22.398584365844727 18.8843994140625 22.42853546142578 C 15.666842460632324 23.283557891845703 12.244329452514648 22.879436492919922 9.314399719238281 21.298534393310547 C 8.5116605758667 20.87367057800293 7.778262138366699 20.3291015625 7.139400005340576 19.683534622192383 C 7.177699089050293 19.007600784301758 7.267965793609619 18.335615158081055 7.40939998626709 17.673534393310547 C 7.449399948120117 17.723535537719727 7.4893999099731445 17.768585205078125 7.529399871826172 17.81853485107422 C 9.1459379196167 19.76068878173828 11.471904754638672 20.975879669189453 13.989399909973145 21.19353485107422 C 15.226465225219727 21.36686134338379 16.48141860961914 21.370243072509766 17.71940040588379 21.203584671020508 C 17.885108947753906 21.208942413330078 18.046430587768555 21.149789810180664 18.16939926147461 21.038585662841797 C 18.04439926147461 20.833484649658203 17.80940055847168 20.773584365844727 17.624399185180664 20.663585662841797 C 15.301790237426758 19.324880599975586 13.340245246887207 17.44054412841797 11.90939998626709 15.173535346984863 C 11.248092651367188 14.148054122924805 10.816549301147461 12.99160099029541 10.644399642944336 11.783584594726562 C 10.998831748962402 11.433656692504883 11.376346588134766 11.107908248901367 11.774399757385254 10.808534622192383 C 11.889399528503418 10.718535423278809 12.009400367736816 10.633535385131836 12.12440013885498 10.553535461425781 C 12.12440013885498 10.728534698486328 12.12440013885498 10.908584594726562 12.134400367736816 11.08853530883789 C 12.170917510986328 12.016861915588379 12.422526359558105 12.924023628234863 12.869400024414062 13.738534927368164 C 14.112131118774414 15.940597534179688 15.875126838684082 17.80489158630371 18.0044002532959 19.1685848236084 C 18.06291961669922 19.22037696838379 18.150880813598633 19.22037696838379 18.209400177001953 19.1685848236084 C 18.054399490356445 18.76358413696289 17.894399642944336 18.353534698486328 17.744400024414062 17.933534622192383 C 17.14337158203125 16.296302795410156 16.78622055053711 14.57962703704834 16.68440055847168 12.83853530883789 C 16.61841583251953 11.470925331115723 16.90418243408203 10.109236717224121 17.514400482177734 8.883535385131836 C 17.59440040588379 8.878535270690918 17.679399490356445 8.87353515625 17.7593994140625 8.87353515625 C 18.2593994140625 8.863534927368164 18.7544002532959 8.868535041809082 19.2544002532959 8.868535041809082 C 18.34040641784668 10.401093482971191 18.015180587768555 12.213826179504395 18.339399337768555 13.968535423278809 C 18.56250762939453 15.390901565551758 18.908809661865234 16.791187286376953 19.374399185180664 18.15358543395996 C 19.426219940185547 18.29530906677246 19.4863224029541 18.43386459350586 19.554399490356445 18.56853485107422 C 19.56439971923828 18.598535537719727 19.619400024414062 18.608535766601562 19.70439910888672 18.658584594726562 C 19.7593994140625 18.358535766601562 19.819400787353516 18.078584671020508 19.859399795532227 17.7935848236084 C 20.32939910888672 14.508535385131836 22.70439910888672 11.743535041809082 25.459400177001953 10.423535346984863 C 26.048080444335938 10.7090482711792 26.608842849731445 11.048853874206543 27.1343994140625 11.4385347366333 C 23.93440055847168 12.528585433959961 22.0044002532959 14.808534622192383 21.304399490356445 18.218534469604492 C 21.157669067382812 18.810258865356445 21.092069625854492 19.419185638427734 21.109399795532227 20.02858543395996 C 21.386375427246094 19.951200485229492 21.634822845458984 19.79483413696289 21.824399948120117 19.578584671020508 C 23.124910354614258 18.471343994140625 24.691282272338867 17.721759796142578 26.369400024414062 17.40358543395996 C 28.242076873779297 17.046354293823242 30.174468994140625 17.164962768554688 31.98940086364746 17.74853515625 C 32.23371124267578 18.3565673828125 32.421180725097656 18.98592185974121 32.549400329589844 19.6285343170166 C 29.358322143554688 18.142410278320312 25.60733985900879 18.540611267089844 22.799400329589844 20.663585662841797 C 22.681333541870117 20.727272033691406 22.59589958190918 20.838138580322266 22.56439971923828 20.968534469604492 C 23.27543067932129 21.078981399536133 23.976139068603516 21.247886657714844 24.659400939941406 21.473535537719727 C 26.734399795532227 22.19353485107422 28.68440055847168 23.108535766601562 30.16939926147461 24.80353546142578" stroke-width="1.0" fill="rgb(255, 255, 255)" opacity="1.0"/>
  </g>
</svg>
