<?xml version="1.0" ?>
<svg xmlns="http://www.w3.org/2000/svg" version="1.1" width="600" height="600">
  <defs/>
  <g>
    <path d="M 49.54189682006836 37.988136291503906 C 50.091312408447266 36.92747497558594 50.073692321777344 35.66228103637695 49.49494552612305 34.61733627319336 C 43.52494430541992 23.81638526916504 35.55429458618164 14.010584831237793 25.494945526123047 6.879184722900391 C 22.135496139526367 4.49753475189209 18.43184471130371 2.3711349964141846 14.125694274902344 2.520435094833374 C 12.976766586303711 2.553178310394287 11.844595909118652 2.8045263290405273 10.789745330810547 3.2610349655151367 C 5.31979513168335 5.6739349365234375 5.068745136260986 11.804434776306152 6.273645401000977 16.808284759521484 C 6.710445404052734 18.622385025024414 7.322295188903809 20.44593620300293 8.504344940185547 21.889686584472656 C 9.686445236206055 23.33343505859375 11.538795471191406 24.341535568237305 13.388145446777344 24.093435287475586 C 15.237545013427734 23.845386505126953 16.879995346069336 22.072935104370117 16.603195190429688 20.227636337280273 C 16.382644653320312 18.75723648071289 15.108295440673828 17.231935501098633 15.889144897460938 15.975384712219238 C 16.305938720703125 15.358048439025879 17.049104690551758 15.046600341796875 17.781496047973633 15.182334899902344 C 18.999195098876953 15.37158489227295 19.821395874023438 16.277835845947266 20.59409523010254 17.148386001586914 L 40.073097229003906 39.095035552978516 C 40.97339630126953 40.10943603515625 41.9443473815918 41.16988754272461 43.24594497680664 41.55123519897461 C 44.77059555053711 41.99798583984375 46.44789505004883 41.38638687133789 47.664344787597656 40.364437103271484 C 48.44120788574219 39.704315185546875 49.079376220703125 38.89662170410156 49.54189682006836 37.988136291503906" stroke-width="1.0" fill="rgb(204, 57, 62)" opacity="1.0"/>
    <path d="M 41.86064529418945 20.522985458374023 C 41.0284538269043 27.401029586791992 39.64408493041992 34.20094299316406 37.720947265625 40.85688400268555 L 41.86064529418945 20.522985458374023" stroke-width="1.0" fill="rgb(0, 0, 0)" opacity="1.0" stroke="rgb(250, 234, 215)" stroke-opacity="1.0" stroke-linecap="round" stroke-linejoin="round"/>
    <path d="M 37.2443962097168 15.046014785766602 C 36.41219711303711 21.92405891418457 35.02783203125 28.723974227905273 33.10469436645508 35.37991714477539 L 37.2443962097168 15.046014785766602" stroke-width="1.0" fill="rgb(0, 0, 0)" opacity="1.0" stroke="rgb(250, 234, 215)" stroke-opacity="1.0" stroke-linecap="round" stroke-linejoin="round"/>
    <path d="M 32.96879577636719 10.355984687805176 C 32.13658142089844 17.234041213989258 30.752212524414062 24.033971786499023 28.8290958404541 30.6899356842041 L 32.96879577636719 10.355984687805176" stroke-width="1.0" fill="rgb(0, 0, 0)" opacity="1.0" stroke="rgb(250, 234, 215)" stroke-opacity="1.0" stroke-linecap="round" stroke-linejoin="round"/>
    <path d="M 29.061546325683594 6.605984687805176 C 28.229354858398438 13.484044075012207 26.844985961914062 20.283977508544922 24.921846389770508 26.9399356842041 L 29.061546325683594 6.605984687805176" stroke-width="1.0" fill="rgb(0, 0, 0)" opacity="1.0" stroke="rgb(250, 234, 215)" stroke-opacity="1.0" stroke-linecap="round" stroke-linejoin="round"/>
    <path d="M 23.21692657470703 2.796635150909424 C 22.384735107421875 9.674695014953613 21.0003662109375 16.474626541137695 19.077224731445312 23.130586624145508 L 23.21692657470703 2.796635150909424" stroke-width="1.0" fill="rgb(0, 0, 0)" opacity="1.0" stroke="rgb(250, 234, 215)" stroke-opacity="1.0" stroke-linecap="round" stroke-linejoin="round"/>
    <path d="M 15.240924835205078 0.04843497276306152 C 16.582904815673828 6.845428466796875 17.375696182250977 13.739398002624512 17.61162567138672 20.663585662841797 L 15.240924835205078 0.04843497276306152" stroke-width="1.0" fill="rgb(0, 0, 0)" opacity="1.0" stroke="rgb(250, 234, 215)" stroke-opacity="1.0" stroke-linecap="round" stroke-linejoin="round"/>
    <path d="M 8.017045021057129 2.796635150909424 C 11.958362579345703 8.49453353881836 15.434734344482422 14.50037956237793 18.412494659423828 20.75601577758789 L 8.017045021057129 2.796635150909424" stroke-width="1.0" fill="rgb(0, 0, 0)" opacity="1.0" stroke="rgb(250, 234, 215)" stroke-opacity="1.0" stroke-linecap="round" stroke-linejoin="round"/>
    <path d="M 0.46904516220092773 10.72258472442627 C 6.978702068328857 13.094178199768066 13.286947250366211 15.985795021057129 19.33269500732422 19.369436264038086 L 0.46904516220092773 10.72258472442627" stroke-width="1.0" fill="rgb(0, 0, 0)" opacity="1.0" stroke="rgb(250, 234, 215)" stroke-opacity="1.0" stroke-linecap="round" stroke-linejoin="round"/>
    <path d="M 0.05989503860473633 17.468515396118164 C 6.786283016204834 19.128660202026367 13.36816120147705 21.327423095703125 19.74179458618164 24.043516159057617 L 0.05989503860473633 17.468515396118164" stroke-width="1.0" fill="rgb(0, 0, 0)" opacity="1.0" stroke="rgb(250, 234, 215)" stroke-opacity="1.0" stroke-linecap="round" stroke-linejoin="round"/>
  </g>
</svg>
