<?xml version="1.0" ?>
<svg xmlns="http://www.w3.org/2000/svg" version="1.1" width="600" height="600">
  <defs/>
  <g>
    <path d="M 14.445634841918945 0.8548499941825867 C 17.77413558959961 6.015699863433838 22.295635223388672 10.283849716186523 26.096885681152344 15.107150077819824 C 29.89808464050293 19.930450439453125 33.07418441772461 25.670799255371094 32.950984954833984 31.810699462890625 C 32.842384338378906 37.22439956665039 30.179834365844727 42.26620101928711 27.027435302734375 46.66865158081055 C 25.38678550720215 48.9598503112793 23.520484924316406 51.20610046386719 21.013484954833984 52.492950439453125 C 18.50643539428711 53.77980041503906 15.215134620666504 53.89569854736328 13.040285110473633 52.1037483215332 C 11.19643497467041 50.58449935913086 10.505035400390625 48.01599884033203 10.631884574890137 45.63029861450195 C 10.758734703063965 43.24454879760742 11.583334922790527 40.960750579833984 12.292135238647461 38.67924880981445 C 13.000934600830078 36.39775085449219 13.60643482208252 34.00709915161133 13.279335021972656 31.640499114990234 C 12.979484558105469 29.47089958190918 11.917284965515137 27.4864501953125 10.776434898376465 25.61680030822754 C 7.898204326629639 20.85941505432129 4.357938289642334 16.53559684753418 0.2619999945163727 12.775250434875488 C 3.11873197555542 6.996175289154053 8.261129379272461 2.674332618713379 14.445634841918945 0.8548499941825867" stroke-width="1.0" fill="rgb(171, 152, 44)" opacity="1.0"/>
    <path d="M 30.315385818481445 21.28339958190918 C 26.221038818359375 27.027095794677734 26.13236427307129 34.711753845214844 30.09308433532715 40.54840087890625" stroke-width="1.0" fill="none" stroke="rgb(0, 0, 0)" stroke-opacity="1.0" stroke-linecap="round" stroke-linejoin="round"/>
    <path d="M 10.887499809265137 44.27840042114258 C 16.21866798400879 42.81006622314453 21.930997848510742 44.06389236450195 26.157135009765625 47.630001068115234" stroke-width="1.0" fill="none" stroke="rgb(0, 0, 0)" stroke-opacity="1.0" stroke-linecap="round" stroke-linejoin="round"/>
    <path d="M 0.15363499522209167 13.39799976348877 C 0.760377824306488 14.710144996643066 1.7093945741653442 15.83460807800293 2.900934934616089 16.653200149536133 C 3.2492706775665283 16.943326950073242 3.6947224140167236 17.090465545654297 4.147335052490234 17.064899444580078 C 4.7527594566345215 16.898347854614258 5.1668243408203125 16.340721130371094 5.151185035705566 15.713000297546387 C 5.120058536529541 15.102740287780762 4.94923734664917 14.507773399353027 4.651885032653809 13.973950386047363 C 4.795048713684082 14.674145698547363 5.477959156036377 15.126340866088867 6.178484916687012 14.984800338745117 C 6.859260082244873 14.802970886230469 7.357271671295166 14.219975471496582 7.430484771728516 13.519149780273438 C 7.485588550567627 12.826190948486328 7.250072002410889 12.141521453857422 6.780334949493408 11.62909984588623 C 7.397486209869385 12.556632041931152 8.649700164794922 12.808246612548828 9.577232360839844 12.191094398498535 C 9.635211944580078 12.152517318725586 9.691153526306152 12.110963821411133 9.744834899902344 12.06659984588623 C 10.524384498596191 11.270672798156738 10.5111083984375 9.99349594116211 9.715180397033691 9.213946342468262 C 9.665419578552246 9.16520881652832 9.613167762756348 9.119081497192383 9.558634757995605 9.075750350952148 C 10.276484489440918 9.991732597351074 11.600967407226562 10.152351379394531 12.516949653625488 9.434501647949219 C 12.517078399658203 9.434401512145996 12.517207145690918 9.434300422668457 12.517334938049316 9.434200286865234 C 13.35135269165039 8.651883125305176 13.393264770507812 7.341585159301758 12.610947608947754 6.507567405700684 C 12.598370552062988 6.49415922164917 12.585615158081055 6.480918884277344 12.572685241699219 6.467850208282471 C 13.251310348510742 7.363358497619629 14.527397155761719 7.539176940917969 15.422905921936035 6.860551834106445 C 15.441512107849121 6.846451759338379 15.459875106811523 6.832032203674316 15.477985382080078 6.817299842834473 C 16.280656814575195 6.031064033508301 16.29397964477539 4.74299955368042 15.507743835449219 3.940328359603882 C 15.49140739440918 3.9236507415771484 15.474785804748535 3.9072554111480713 15.457884788513184 3.8911499977111816 C 15.74095344543457 4.275493144989014 16.100662231445312 4.596946716308594 16.514284133911133 4.83519983291626 C 16.94231605529785 5.070824146270752 17.471384048461914 5.017666339874268 17.843984603881836 4.701600074768066 C 18.26593589782715 4.2718000411987305 18.127885818481445 3.551500082015991 17.864885330200195 3.0096499919891357 C 17.16916275024414 1.7547372579574585 16.14350128173828 0.7139809131622314 14.898884773254395 0.0 C 9.37087631225586 1.9012267589569092 4.568370819091797 5.469740390777588 1.1528849601745605 10.21399974822998 C 0.5172849893569946 11.101449966430664 -0.3573150038719177 12.288299560546875 0.15363499522209167 13.39799976348877" stroke-width="1.0" fill="rgb(247, 237, 228)" opacity="1.0"/>
  </g>
</svg>
