<?xml version="1.0" ?>
<svg xmlns="http://www.w3.org/2000/svg" version="1.1" width="600" height="600">
  <defs/>
  <g>
    <path d="M 44.3764533996582 33.18149948120117 C 44.90130615234375 33.10369873046875 45.311256408691406 33.03865051269531 45.722503662109375 32.982749938964844 C 48.75649642944336 32.485931396484375 51.84907150268555 32.46125793457031 54.89060592651367 32.90959930419922 C 56.131446838378906 33.129119873046875 57.30555725097656 33.62981033325195 58.32295608520508 34.37329864501953 C 59.50135040283203 35.112640380859375 59.87517166137695 36.65680694580078 59.1654052734375 37.853248596191406 C 58.43412399291992 39.2188720703125 57.26893615722656 40.30211639404297 55.85370635986328 40.93204879760742 C 54.55585479736328 41.493324279785156 53.2100830078125 41.936546325683594 51.832706451416016 42.256351470947266 C 49.357154846191406 42.94794845581055 46.82960510253906 43.41904830932617 44.337955474853516 44.0411491394043 C 41.40752029418945 44.74209976196289 38.60432434082031 45.8957633972168 36.02940368652344 47.460548400878906 C 35.640838623046875 47.68626022338867 35.319313049316406 48.01127243041992 35.09780502319336 48.40224838256836 C 34.00186538696289 50.232112884521484 32.786197662353516 51.98755645751953 31.458755493164062 53.657100677490234 C 31.398815155029297 53.73678970336914 31.33416748046875 53.81282424926758 31.265155792236328 53.88479995727539 C 30.972742080688477 54.309017181396484 30.39179801940918 54.415870666503906 29.967578887939453 54.12345886230469 C 29.955778121948242 54.11532211303711 29.944168090820312 54.10691833496094 29.932754516601562 54.09825134277344 C 28.87865447998047 53.53525161743164 27.824005126953125 52.97200012207031 26.786605834960938 52.379051208496094 C 22.721269607543945 50.0531120300293 18.79773712158203 47.4876594543457 15.036754608154297 44.696250915527344 C 13.43525505065918 43.50899887084961 11.750655174255371 42.44179916381836 10.108304977416992 41.313499450683594 C 8.809555053710938 40.42124938964844 7.5634050369262695 39.4599494934082 6.3192548751831055 38.49515151977539 C 6.177605152130127 38.38529968261719 6.036755084991455 38.273101806640625 5.90555477142334 38.15114974975586 C 5.5344133377075195 37.905967712402344 5.4323039054870605 37.40633773803711 5.677486896514893 37.035194396972656 C 5.688560962677002 37.0184326171875 5.700258731842041 37.00209045410156 5.712554931640625 36.98619842529297 C 6.656404972076416 35.2087516784668 7.626005172729492 33.44525146484375 8.65595531463623 31.716299057006836 C 11.470305442810059 26.991849899291992 14.204105377197266 22.218599319458008 17.19800567626953 17.602800369262695 C 19.170530319213867 14.485574722290039 21.374662399291992 11.521084785461426 23.79175567626953 8.734399795532227 C 26.52702522277832 5.5441484451293945 29.939373016357422 3.004091501235962 33.780303955078125 1.2992000579833984 C 37.189697265625 -0.21459071338176727 41.102779388427734 -0.09407635778188705 44.41255569458008 1.6266499757766724 C 46.08481216430664 2.458956241607666 47.48762893676758 3.7471656799316406 48.4591064453125 5.342599868774414 C 49.75294494628906 7.2705183029174805 50.56816101074219 9.479294776916504 50.83705520629883 11.785499572753906 C 51.003395080566406 13.59299087524414 50.92939758300781 15.414556503295898 50.61700439453125 17.202600479125977 C 50.1527099609375 19.528226852416992 49.46356964111328 21.803245544433594 48.559303283691406 23.9955997467041 C 47.4831657409668 26.82659912109375 46.23563766479492 29.589445114135742 44.82365417480469 32.268798828125 C 44.68685531616211 32.5308837890625 44.5629997253418 32.79973602294922 44.3764533996582 33.18149948120117" stroke-width="1.0" fill="rgb(228, 153, 84)" opacity="1.0"/>
    <path d="M 21.685705184936523 28.155534744262695 C 22.71220588684082 27.823184967041016 23.67545509338379 27.396034240722656 24.648704528808594 26.997034072875977 C 26.21450424194336 26.354984283447266 27.794954299926758 25.751684188842773 29.38310432434082 25.167884826660156 C 29.495155334472656 25.126684188842773 29.606304168701172 25.081884384155273 29.720754623413086 25.048484802246094 C 30.1473445892334 24.844079971313477 30.658864974975586 25.02419662475586 30.863269805908203 25.45078468322754 C 30.940799713134766 25.61258888244629 30.965559005737305 25.794652938842773 30.93405532836914 25.971284866333008 C 30.922454833984375 26.427234649658203 30.83480453491211 26.880985260009766 30.786054611206055 27.336284637451172 C 30.605905532836914 29.019134521484375 30.480955123901367 30.70818519592285 30.210254669189453 32.38088607788086 C 30.158597946166992 32.553688049316406 30.163238525390625 32.738441467285156 30.2235050201416 32.9084358215332 C 30.445066452026367 32.916805267333984 30.663314819335938 32.852699279785156 30.845155715942383 32.725833892822266 C 33.01420593261719 31.772485733032227 35.1920051574707 30.841585159301758 37.43995666503906 30.085384368896484 C 37.67779541015625 29.98203468322754 37.93242645263672 29.9227237701416 38.19145584106445 29.910335540771484 C 38.64731216430664 29.88724136352539 39.03557586669922 30.238065719604492 39.05867004394531 30.693923950195312 C 39.059017181396484 30.700773239135742 39.05928039550781 30.70762825012207 39.05945587158203 30.71448516845703 C 39.06977462768555 30.913372039794922 39.0584602355957 31.11279296875 39.02570343017578 31.309234619140625 C 38.75895309448242 33.16243362426758 38.402854919433594 34.99983596801758 38.04135513305664 36.83628463745117 C 37.961830139160156 37.07004928588867 37.95313262939453 37.32209396362305 38.016353607177734 37.56078338623047 C 38.362525939941406 37.4737434387207 38.69740676879883 37.34675979614258 39.01425552368164 37.1823844909668 C 39.991355895996094 36.733985900878906 40.96530532836914 36.27873611450195 41.94130325317383 35.827884674072266 C 42.11539077758789 35.729984283447266 42.307472229003906 35.66828536987305 42.506004333496094 35.646484375 C 42.89082717895508 35.60871124267578 43.23340606689453 35.89004898071289 43.27117919921875 36.274871826171875 C 43.29428482055664 36.51025390625 43.196990966796875 36.74138641357422 43.01250457763672 36.88938522338867 C 42.903995513916016 36.97676086425781 42.784324645996094 37.04928207397461 42.656654357910156 37.10503387451172 C 41.27985382080078 37.73163604736328 39.93010330200195 38.4189338684082 38.51820373535156 38.966983795166016 C 38.20320510864258 39.0892333984375 37.871253967285156 39.168983459472656 37.55945587158203 39.298133850097656 C 37.100799560546875 39.487548828125 36.575435638427734 39.269283294677734 36.386024475097656 38.81062698364258 C 36.31359100341797 38.635231018066406 36.29854965209961 38.44140625 36.343055725097656 38.256935119628906 C 36.47830581665039 37.47213363647461 36.59405517578125 36.68393325805664 36.73285675048828 35.89983367919922 C 36.965354919433594 34.5865364074707 37.27650451660156 33.28718566894531 37.430755615234375 31.95993423461914 C 37.46718978881836 31.866867065429688 37.445640563964844 31.761083602905273 37.37570571899414 31.689685821533203 C 36.72040557861328 31.86917495727539 36.07849884033203 32.09439468383789 35.45470428466797 32.363685607910156 C 33.835853576660156 33.032535552978516 32.23020553588867 33.733333587646484 30.61685562133789 34.41568374633789 C 30.345853805541992 34.54058074951172 30.06401824951172 34.64047622680664 29.77485466003418 34.714134216308594 C 29.05930519104004 34.87138366699219 28.662254333496094 34.55058670043945 28.640005111694336 33.815433502197266 C 28.633756637573242 33.07756423950195 28.699365615844727 32.34083938598633 28.835905075073242 31.615684509277344 C 29.095905303955078 30.04388427734375 29.17035484313965 28.45428466796875 29.356855392456055 26.842435836791992 C 29.07215690612793 26.83268928527832 28.790260314941406 26.901430130004883 28.54200553894043 27.041135787963867 C 26.949304580688477 27.668384552001953 25.361604690551758 28.308385848999023 23.7685546875 28.934734344482422 C 23.083404541015625 29.20413589477539 22.390954971313477 29.455135345458984 21.69825553894043 29.704734802246094 C 21.53013801574707 29.766267776489258 21.354673385620117 29.805469512939453 21.176355361938477 29.821334838867188 C 20.676633834838867 29.918899536132812 20.19243812561035 29.592885971069336 20.094873428344727 29.093164443969727 C 20.07960319519043 29.014955520629883 20.074539184570312 28.935096740722656 20.079805374145508 28.8555850982666 C 20.080862045288086 28.43720245361328 20.114091873168945 28.019521713256836 20.1792049407959 27.60623550415039 Q 20.49247932434082 25.207134246826172 20.82540512084961 22.810684204101562 C 20.887075424194336 22.32419204711914 20.90578269958496 21.83321189880371 20.881305694580078 21.343435287475586 C 20.670705795288086 21.260385513305664 20.537004470825195 21.36968421936035 20.392854690551758 21.425235748291016 C 18.387054443359375 22.198284149169922 16.36040496826172 22.918235778808594 14.38985538482666 23.781234741210938 C 14.263426780700684 23.840251922607422 14.131309509277344 23.88622283935547 13.99555492401123 23.918434143066406 C 13.692646980285645 23.986801147460938 13.383906364440918 23.830217361450195 13.26010513305664 23.545434951782227 C 13.147375106811523 23.2779483795166 13.232353210449219 22.96805763244629 13.465755462646484 22.79548454284668 C 13.59547233581543 22.70318603515625 13.734740257263184 22.625102996826172 13.881155014038086 22.562585830688477 C 15.573904991149902 21.763084411621094 17.289705276489258 21.01798439025879 19.04820442199707 20.37298583984375 C 19.57125473022461 20.181135177612305 20.08115577697754 19.95253562927246 20.607154846191406 19.769634246826172 C 21.575054168701172 19.433034896850586 22.14570426940918 19.77618408203125 22.296855926513672 20.806934356689453 C 22.39202880859375 21.559646606445312 22.38157844543457 22.321964263916016 22.265804290771484 23.07178497314453 C 22.054855346679688 24.650634765625 21.837905883789062 26.228734970092773 21.624954223632812 27.807384490966797 C 21.598737716674805 27.926910400390625 21.620555877685547 28.051952362060547 21.685705184936523 28.155534744262695" stroke-width="1.0" fill="rgb(152, 63, 88)" opacity="1.0"/>
    <path d="M 34.177406311035156 41.85900115966797 C 35.17934799194336 41.658363342285156 36.17006301879883 41.40524673461914 37.14545440673828 41.10070037841797 C 38.11625671386719 40.80455017089844 39.08315658569336 40.495548248291016 40.05005645751953 40.186851501464844 C 40.23436737060547 40.11099624633789 40.43131637573242 40.07054138183594 40.6306037902832 40.06760025024414 C 40.83817672729492 40.06557846069336 41.02100372314453 40.203792572021484 41.07565689086914 40.404048919677734 C 41.14582061767578 40.600460052490234 41.06940841674805 40.8192024230957 40.89220428466797 40.92919921875 C 40.77458572387695 41.00297927856445 40.64735412597656 41.060184478759766 40.51410675048828 41.09920120239258 C 38.520408630371094 41.78935241699219 36.49279022216797 42.37730026245117 34.43915557861328 42.860748291015625 C 34.32240676879883 42.886051177978516 34.20750427246094 42.92205047607422 34.089805603027344 42.94029998779297 C 33.41635513305664 43.04465103149414 33.05100631713867 42.7150993347168 33.12785339355469 42.0281982421875 C 33.23410415649414 41.0786018371582 33.37760543823242 40.133201599121094 33.499454498291016 39.185298919677734 C 33.62385559082031 38.2176513671875 33.852603912353516 37.26919937133789 34.0462532043457 36.28779983520508 C 33.82335662841797 36.187400817871094 33.650455474853516 36.30670166015625 33.473106384277344 36.36479949951172 C 32.149356842041016 36.798301696777344 30.833505630493164 37.25640106201172 29.491104125976562 37.63185119628906 C 28.936500549316406 37.792232513427734 28.37224006652832 37.917118072509766 27.801755905151367 38.0057487487793 C 26.975305557250977 38.12689971923828 26.61295509338379 37.851200103759766 26.50835418701172 37.0098991394043 C 26.370655059814453 35.902000427246094 26.32445526123047 34.78730010986328 26.285755157470703 33.672149658203125 C 26.258255004882812 32.87879943847656 26.21370506286621 32.08599853515625 26.176055908203125 31.278650283813477 C 25.926572799682617 31.24059295654297 25.671634674072266 31.29094696044922 25.455354690551758 31.42099952697754 C 23.679004669189453 32.06880187988281 21.900705337524414 32.710601806640625 20.076955795288086 33.215049743652344 C 19.693439483642578 33.32120895385742 19.30381965637207 33.4039306640625 18.910255432128906 33.46274948120117 C 18.40791893005371 33.6163330078125 17.876192092895508 33.333614349365234 17.72260856628418 32.83127975463867 C 17.703163146972656 32.76767349243164 17.69044303894043 32.702205657958984 17.684654235839844 32.635948181152344 C 17.463354110717773 31.6845645904541 17.337116241455078 30.713544845581055 17.307804107666016 29.737199783325195 C 17.273805618286133 28.562549591064453 17.277355194091797 27.386850357055664 17.2589054107666 26.211700439453125 C 17.287948608398438 26.009674072265625 17.252424240112305 25.80363655090332 17.157405853271484 25.62299919128418 C 16.966705322265625 25.56475067138672 16.824405670166016 25.702600479125977 16.6704044342041 25.770950317382812 C 15.051304817199707 26.489200592041016 13.435355186462402 27.214649200439453 11.817255020141602 27.935300827026367 C 11.656777381896973 28.014263153076172 11.488298416137695 28.07579803466797 11.314704895019531 28.118850708007812 C 11.111504554748535 28.174358367919922 10.89989948272705 28.063671112060547 10.829605102539062 27.865100860595703 C 10.738826751708984 27.676111221313477 10.803661346435547 27.449094772338867 10.980554580688477 27.336549758911133 C 11.096431732177734 27.259788513183594 11.219293594360352 27.194129943847656 11.347504615783691 27.14044952392578 Q 14.024029731750488 25.8856258392334 16.702054977416992 24.6341495513916 C 17.66060447692871 24.187149047851562 18.139005661010742 24.445100784301758 18.225505828857422 25.500350952148438 C 18.285654067993164 26.233699798583984 18.288654327392578 26.973249435424805 18.284954071044922 27.709850311279297 C 18.249492645263672 29.124378204345703 18.349145889282227 30.539060592651367 18.582555770874023 31.934650421142578 C 18.687055587768555 32.4921989440918 18.69345474243164 32.50379943847656 19.232704162597656 32.37519836425781 C 20.984609603881836 31.915424346923828 22.711027145385742 31.363506317138672 24.404754638671875 30.721750259399414 C 24.930105209350586 30.53619956970215 25.44945526123047 30.330249786376953 25.98300552368164 30.172100067138672 C 26.715354919433594 29.955049514770508 27.145904541015625 30.25779914855957 27.19600486755371 31.024099349975586 C 27.25565528869629 31.93779945373535 27.307905197143555 32.85329818725586 27.319454193115234 33.768550872802734 C 27.3310546875 34.68629837036133 27.393054962158203 35.59925079345703 27.473154067993164 36.51190185546875 C 27.517955780029297 37.022499084472656 27.539854049682617 37.034149169921875 28.072154998779297 36.92499923706055 C 29.69826889038086 36.53611755371094 31.301549911499023 36.05730056762695 32.874603271484375 35.49074935913086 C 33.29110336303711 35.35594940185547 33.70255661010742 35.2015495300293 34.125553131103516 35.09144973754883 C 34.868953704833984 34.89794921875 35.23825454711914 35.229148864746094 35.14205551147461 36.001949310302734 C 35.088836669921875 36.35630798339844 35.017845153808594 36.707767486572266 34.92935562133789 37.05500030517578 C 34.59022903442383 38.64122772216797 34.339195251464844 40.24501419067383 34.177406311035156 41.85900115966797" stroke-width="1.0" fill="rgb(255, 255, 255)" opacity="1.0"/>
    <path d="M 21.192054748535156 12.110685348510742 C 21.471555709838867 12.137887954711914 21.735069274902344 12.25362491607666 21.944204330444336 12.441035270690918 C 24.340904235839844 14.018034934997559 26.728904724121094 15.608485221862793 29.135055541992188 17.170984268188477 C 33.31245422363281 19.883535385131836 37.52950668334961 22.53353500366211 41.83275604248047 25.042985916137695 C 43.417903900146484 25.967334747314453 44.91865539550781 27.020734786987305 46.46810531616211 27.999235153198242 C 46.51956558227539 28.02944564819336 46.568687438964844 28.063472747802734 46.615055084228516 28.10103416442871 C 46.88170623779297 28.300498962402344 46.95832443237305 28.667186737060547 46.793853759765625 28.956735610961914 C 46.627201080322266 29.22196388244629 46.292991638183594 29.327484130859375 46.00425338745117 29.206035614013672 C 45.79932403564453 29.12885856628418 45.602928161621094 29.030685424804688 45.41820526123047 28.9130859375 C 39.20735549926758 25.170684814453125 32.95590591430664 21.494035720825195 26.922754287719727 17.464235305786133 C 25.017555236816406 16.191585540771484 23.094554901123047 14.945634841918945 21.182004928588867 13.683935165405273 C 20.995826721191406 13.569151878356934 20.82314109802246 13.433801651000977 20.667205810546875 13.280434608459473 C 20.410472869873047 12.987767219543457 20.439605712890625 12.542391777038574 20.73227310180664 12.285660743713379 C 20.859548568725586 12.174013137817383 21.022754669189453 12.111903190612793 21.192054748535156 12.110685348510742" stroke-width="1.0" fill="rgb(255, 255, 255)" opacity="1.0"/>
    <path d="M 48.362754821777344 25.071334838867188 C 48.122283935546875 25.060880661010742 47.889461517333984 24.98375701904297 47.690303802490234 24.84858512878418 C 46.06895446777344 23.952634811401367 44.46675491333008 23.02508544921875 42.9273567199707 21.992084503173828 C 37.931304931640625 18.63963508605957 32.792354583740234 15.516735076904297 27.61080551147461 12.46218490600586 C 26.44440460205078 11.774635314941406 25.285404205322266 11.074484825134277 24.124954223632812 10.376885414123535 C 23.985885620117188 10.299483299255371 23.856624603271484 10.205643653869629 23.73995590209961 10.09738540649414 C 23.496135711669922 9.870769500732422 23.45088005065918 9.501524925231934 23.632755279541016 9.222735404968262 C 23.803081512451172 8.93685245513916 24.15223503112793 8.811933517456055 24.465255737304688 8.924884796142578 C 24.68692970275879 9.014063835144043 24.899677276611328 9.124003410339355 25.10065460205078 9.25323486328125 C 31.51075553894043 13.08403491973877 37.953155517578125 16.862384796142578 44.14750671386719 21.04198455810547 Q 46.12855529785156 22.37870979309082 48.18290328979492 23.60233497619629 C 48.391822814941406 23.717594146728516 48.587059020996094 23.856069564819336 48.7649040222168 24.015134811401367 C 49.00691223144531 24.256595611572266 49.007354736328125 24.64852523803711 48.76589584350586 24.890533447265625 C 48.658329010009766 24.99833869934082 48.514801025390625 25.06270980834961 48.362754821777344 25.071334838867188" stroke-width="1.0" fill="rgb(191, 46, 27)" opacity="1.0"/>
    <path d="M 49.27790451049805 9.745534896850586 C 45.3957405090332 9.413413047790527 41.74726486206055 7.751253128051758 38.949005126953125 5.039935111999512 C 37.9073371887207 4.081938743591309 36.97850036621094 3.0080955028533936 36.1805534362793 1.8392850160598755 C 36.05987548828125 1.6805835962295532 35.964866638183594 1.503914713859558 35.89900588989258 1.3157349824905396 C 35.79912567138672 1.0010076761245728 35.93043899536133 0.6590622067451477 36.21530532836914 0.4920850098133087 C 36.47718811035156 0.32430171966552734 36.820308685302734 0.3599938154220581 37.04205322265625 0.5780850052833557 C 37.179542541503906 0.7214195728302002 37.30200958251953 0.8784360885620117 37.407554626464844 1.046684980392456 C 39.75997543334961 4.508602619171143 43.2891960144043 6.99879789352417 47.33940505981445 8.054534912109375 C 48.012447357177734 8.234882354736328 48.70004653930664 8.355697631835938 49.394256591796875 8.415584564208984 C 49.65221405029297 8.433329582214355 49.907196044921875 8.481325149536133 50.153953552246094 8.558585166931152 C 50.45219421386719 8.65639877319336 50.629642486572266 8.962342262268066 50.56645584106445 9.269784927368164 C 50.52382278442383 9.557940483093262 50.28179931640625 9.774742126464844 49.99070358276367 9.785534858703613 C 49.752479553222656 9.788105010986328 49.514347076416016 9.774742126464844 49.27790451049805 9.745534896850586" stroke-width="1.0" fill="rgb(152, 63, 88)" opacity="1.0"/>
    <path d="M 47.85720443725586 6.440684795379639 C 47.528804779052734 6.36783504486084 47.13630676269531 6.296935081481934 46.75270462036133 6.193134784698486 C 43.73882293701172 5.394205093383789 41.093257904052734 3.579087257385254 39.26325607299805 1.0546350479125977 C 39.166358947753906 0.9282780289649963 39.080684661865234 0.793700098991394 39.007205963134766 0.6524350047111511 C 38.886253356933594 0.4609077572822571 38.94346237182617 0.20759226381778717 39.13499069213867 0.08663900196552277 C 39.1402702331543 0.08330410718917847 39.145626068115234 0.08009026944637299 39.15105438232422 0.07699999958276749 C 39.322059631347656 -0.04457669332623482 39.55691146850586 -0.019359560683369637 39.698204040527344 0.13574999570846558 C 39.79469680786133 0.23605160415172577 39.88409423828125 0.34294286370277405 39.965755462646484 0.4556500017642975 C 41.876216888427734 2.973661184310913 44.62826156616211 4.720919132232666 47.71980667114258 5.378650188446045 C 47.85728454589844 5.399968147277832 47.992919921875 5.4318461418151855 48.12550354003906 5.473999977111816 C 48.36902618408203 5.5370588302612305 48.5263557434082 5.772943019866943 48.491004943847656 6.021999835968018 C 48.46015548706055 6.2750349044799805 48.222904205322266 6.44233512878418 47.85720443725586 6.440684795379639" stroke-width="1.0" fill="rgb(191, 46, 27)" opacity="1.0"/>
    <path d="M 35.90375518798828 12.594534873962402 C 35.9128303527832 12.373984336853027 35.9935417175293 12.16240119934082 36.1336555480957 11.99183464050293 Q 37.193031311035156 10.510435104370117 38.252803802490234 9.029435157775879 C 38.320316314697266 8.931110382080078 38.40052795410156 8.842140197753906 38.491355895996094 8.764835357666016 C 38.71385955810547 8.582438468933105 39.03026580810547 8.569465637207031 39.2669563293457 8.73303508758545 C 39.50630187988281 8.897464752197266 39.597923278808594 9.206962585449219 39.486656188964844 9.47518539428711 C 39.43310546875 9.603758811950684 39.365333557128906 9.725935935974121 39.284603118896484 9.839434623718262 Q 38.31283187866211 11.308309555053711 37.3363037109375 12.77408504486084 C 37.24635314941406 12.929628372192383 37.124229431152344 13.064176559448242 36.97810363769531 13.168734550476074 C 36.77958679199219 13.312972068786621 36.515995025634766 13.330753326416016 36.299903869628906 13.214485168457031 C 36.05980682373047 13.101003646850586 35.90586471557617 12.860093116760254 35.90375518798828 12.594534873962402" stroke-width="1.0" fill="rgb(255, 224, 92)" opacity="1.0"/>
    <path d="M 31.785804748535156 9.885334968566895 C 31.817535400390625 9.6788911819458 31.906343460083008 9.485427856445312 32.042205810546875 9.32678508758545 C 32.741905212402344 8.410334587097168 33.435855865478516 7.489484786987305 34.14690399169922 6.581934928894043 C 34.514705657958984 6.1124348640441895 34.877906799316406 6.024835109710693 35.20795440673828 6.2788848876953125 C 35.545806884765625 6.538984775543213 35.543155670166016 6.8864850997924805 35.192203521728516 7.380084991455078 Q 34.2419548034668 8.716659545898438 33.286556243896484 10.049585342407227 C 33.18603515625 10.221719741821289 33.054161071777344 10.373503684997559 32.89775466918945 10.497084617614746 C 32.58111572265625 10.722877502441406 32.141387939453125 10.649231910705566 31.91559410095215 10.332592964172363 C 31.822856903076172 10.202542304992676 31.777090072631836 10.04482650756836 31.785804748535156 9.885334968566895" stroke-width="1.0" fill="rgb(255, 224, 92)" opacity="1.0"/>
    <path d="M 39.9613037109375 15.08753490447998 C 39.97863006591797 14.881245613098145 40.05572509765625 14.68448257446289 40.18315505981445 14.521334648132324 C 40.83745574951172 13.621885299682617 41.489505767822266 12.720685005187988 42.148704528808594 11.824834823608398 C 42.241573333740234 11.696331024169922 42.35459518432617 11.583678245544434 42.48340606689453 11.49123477935791 C 42.69709014892578 11.327778816223145 42.9951171875 11.332684516906738 43.203304290771484 11.503085136413574 C 43.444698333740234 11.664992332458496 43.534488677978516 11.977167129516602 43.4160041809082 12.242585182189941 C 43.360382080078125 12.369722366333008 43.290931701660156 12.490349769592285 43.20890426635742 12.602285385131836 Q 42.34183120727539 13.886210441589355 41.47050476074219 15.167235374450684 C 41.3655891418457 15.359383583068848 41.224178314208984 15.529208183288574 41.05420684814453 15.667184829711914 C 40.8426628112793 15.83008861541748 40.55254364013672 15.845582008361816 40.32485580444336 15.706134796142578 C 40.097530364990234 15.584141731262207 39.957275390625 15.345495223999023 39.9613037109375 15.08753490447998" stroke-width="1.0" fill="rgb(255, 224, 92)" opacity="1.0"/>
    <path d="M 47.40385437011719 20.159685134887695 C 46.82920455932617 20.154935836791992 46.5013542175293 19.745885848999023 46.61790466308594 19.30418586730957 C 46.66866683959961 19.133214950561523 46.750667572021484 18.973129272460938 46.85975646972656 18.832035064697266 Q 47.81510543823242 17.540159225463867 48.789005279541016 16.262035369873047 C 48.87010192871094 16.14946174621582 48.973793029785156 16.055049896240234 49.09345626831055 15.984834671020508 C 49.321495056152344 15.843426704406738 49.61553955078125 15.869694709777832 49.814903259277344 16.049285888671875 C 50.029598236083984 16.211877822875977 50.104461669921875 16.50066566467285 49.99580383300781 16.747085571289062 C 49.93212127685547 16.892087936401367 49.8526611328125 17.029634475708008 49.758853912353516 17.15723419189453 C 49.17200469970703 18.00538444519043 48.57935333251953 18.849584579467773 47.992706298828125 19.69783592224121 C 47.81640625 19.952735900878906 47.619205474853516 20.1641845703125 47.40385437011719 20.159685134887695" stroke-width="1.0" fill="rgb(255, 224, 92)" opacity="1.0"/>
    <path d="M 43.56825637817383 17.092884063720703 C 43.60232925415039 16.93632698059082 43.67466735839844 16.790651321411133 43.778804779052734 16.66888427734375 Q 44.77980422973633 15.334259986877441 45.7815055847168 14.00013542175293 C 45.81657791137695 13.951912879943848 45.855812072753906 13.906856536865234 45.89875411987305 13.865485191345215 C 46.12232971191406 13.619771957397461 46.49521255493164 13.582204818725586 46.7633056640625 13.778385162353516 C 47.04627227783203 13.981487274169922 47.111019134521484 14.375524520874023 46.90791702270508 14.658493041992188 C 46.90202331542969 14.666702270507812 46.89593505859375 14.674768447875977 46.88965606689453 14.682684898376465 Q 45.8924560546875 16.165359497070312 44.842403411865234 17.612285614013672 C 44.661903381347656 17.89411735534668 44.30265808105469 18.001920700073242 43.996803283691406 17.86603546142578 C 43.69605255126953 17.73433494567871 43.52056121826172 17.417726516723633 43.56825637817383 17.092884063720703" stroke-width="1.0" fill="rgb(255, 224, 92)" opacity="1.0"/>
    <path d="M 28.34955406188965 8.16108512878418 C 27.966943740844727 8.151407241821289 27.664621353149414 7.833395004272461 27.674299240112305 7.450784206390381 C 27.67667007446289 7.357012748718262 27.698055267333984 7.264698505401611 27.73715591430664 7.179434776306152 C 27.804658889770508 7.035794734954834 27.89027214050293 6.901386260986328 27.991905212402344 6.77948522567749 Q 28.855680465698242 5.640985012054443 29.727405548095703 4.508584976196289 C 29.808616638183594 4.396023750305176 29.90214729309082 4.292884349822998 30.006254196166992 4.201085090637207 C 30.23219108581543 3.9859139919281006 30.58281707763672 3.972123861312866 30.824954986572266 4.168885231018066 C 31.047657012939453 4.35110330581665 31.1232852935791 4.658486843109131 31.010555267333984 4.923234939575195 C 30.962451934814453 5.03211784362793 30.901485443115234 5.1348490715026855 30.828954696655273 5.2292351722717285 Q 29.95175552368164 6.4684600830078125 29.07085418701172 7.70498514175415 C 28.926517486572266 7.972499370574951 28.653118133544922 8.145377159118652 28.34955406188965 8.16108512878418" stroke-width="1.0" fill="rgb(255, 224, 92)" opacity="1.0"/>
    <path d="M 2.2644999027252197 38.33023452758789 C 1.8428213596343994 37.6920051574707 1.4940104484558105 37.008522033691406 1.2245999574661255 36.29258346557617 C 0.7041915655136108 34.97885513305664 0.731907069683075 33.511375427246094 1.301550030708313 32.21823501586914 C 1.812443494796753 31.037229537963867 2.924264907836914 30.226720809936523 4.204949855804443 30.1016845703125 C 4.561281204223633 30.061059951782227 4.919848918914795 30.043306350708008 5.278450012207031 30.048534393310547 C 6.64560604095459 30.007686614990234 7.930931091308594 30.698461532592773 8.651249885559082 31.86118507385254 C 8.712270736694336 31.93993377685547 8.76753044128418 32.02298355102539 8.81659984588623 32.109683990478516 C 8.926349639892578 32.33848571777344 9.057299613952637 32.377586364746094 9.282050132751465 32.233436584472656 C 10.078869819641113 31.771686553955078 10.982376098632812 31.525821685791016 11.903300285339355 31.5201358795166 C 13.888250350952148 31.4003849029541 15.395350456237793 32.28543472290039 16.613449096679688 33.76793670654297 C 17.405214309692383 34.771484375 18.013031005859375 35.90729904174805 18.408750534057617 37.12278366088867 C 18.446928024291992 37.214813232421875 18.478017807006836 37.30961990356445 18.501750946044922 37.4063835144043 C 18.559749603271484 37.71918487548828 18.713550567626953 37.7662353515625 19.01395034790039 37.675785064697266 C 19.97321128845215 37.4000358581543 20.972440719604492 37.28974151611328 21.96875 37.34963607788086 C 23.722700119018555 37.396202087402344 25.388473510742188 38.12861633300781 26.608449935913086 39.38963317871094 C 27.705223083496094 40.38778305053711 28.49697494506836 41.67606735229492 28.892099380493164 43.10543441772461 C 29.01512336730957 43.7356071472168 29.08727264404297 44.37464904785156 29.10784912109375 45.01638412475586 C 29.35460090637207 44.97383499145508 29.569000244140625 44.941184997558594 29.781700134277344 44.89948654174805 C 30.988754272460938 44.65988540649414 32.241695404052734 44.89751434326172 33.277198791503906 45.562435150146484 C 34.11455535888672 46.075050354003906 34.81510925292969 46.7830810546875 35.31880187988281 47.62583541870117 C 36.20356750488281 49.313480377197266 35.94447326660156 51.37349319458008 34.669349670410156 52.789485931396484 C 34.57054901123047 52.887184143066406 34.45294952392578 52.96593475341797 34.354801177978516 53.064186096191406 C 34.20370101928711 53.21543502807617 33.880699157714844 53.19263458251953 33.8609504699707 53.43513488769531 C 33.84645080566406 53.61268615722656 33.98780059814453 53.80258560180664 34.05849838256836 53.98743438720703 C 34.39883804321289 54.864898681640625 34.52452850341797 55.810997009277344 34.42509841918945 56.746883392333984 C 34.19432830810547 58.290740966796875 33.03599548339844 59.532711029052734 31.51194953918457 59.870384216308594 C 30.6546630859375 60.09956741333008 29.741527557373047 59.98041915893555 28.971750259399414 59.538936614990234 C 27.846132278442383 58.92766189575195 26.87811279296875 58.062965393066406 26.14419937133789 57.01318359375 C 25.975650787353516 56.77108383178711 25.847150802612305 56.72008514404297 25.570749282836914 56.87883377075195 C 24.236392974853516 57.686893463134766 22.553224563598633 57.64198684692383 21.26384925842285 56.76393508911133 C 19.711462020874023 55.86619186401367 18.530067443847656 54.444313049316406 17.931900024414062 52.75373458862305 C 17.86009979248047 52.546783447265625 17.777000427246094 52.34333419799805 17.71500015258789 52.13358688354492 C 17.573949813842773 51.656333923339844 17.55109977722168 51.66943359375 17.103349685668945 51.718284606933594 C 13.686849594116211 52.09093475341797 11.309700012207031 50.461585998535156 9.520000457763672 47.734535217285156 C 9.253999710083008 47.3292350769043 9.278200149536133 47.31063461303711 8.794150352478027 47.459835052490234 C 7.339845180511475 47.917198181152344 5.7847747802734375 47.94722366333008 4.313899993896484 47.54633331298828 C 1.8228436708450317 46.768157958984375 0.09379084408283234 44.503021240234375 0.0 41.894935607910156 C -0.005966413300484419 40.7802619934082 0.48738953471183777 39.721458435058594 1.3446999788284302 39.009033203125 C 1.6108050346374512 38.772735595703125 1.9184550046920776 38.583133697509766 2.2644999027252197 38.33023452758789" stroke-width="1.0" fill="rgb(221, 221, 221)" opacity="1.0"/>
    <path d="M 18.86780548095703 48.593536376953125 C 18.321155548095703 48.66798400878906 17.812255859375 48.74683380126953 17.300954818725586 48.80483627319336 C 16.487489700317383 48.907325744628906 15.661705017089844 48.84450149536133 14.8731050491333 48.62013626098633 C 13.301798820495605 48.23670959472656 12.307866096496582 46.68769073486328 12.614105224609375 45.09953689575195 C 12.653304100036621 44.70242691040039 12.753005981445312 44.31364822387695 12.909754753112793 43.946685791015625 C 13.128604888916016 43.48418426513672 13.400554656982422 43.319583892822266 13.72535514831543 43.4448356628418 C 14.040243148803711 43.59626770019531 14.172750473022461 43.97429656982422 14.021317481994629 44.2891845703125 C 14.009483337402344 44.31379318237305 13.99606704711914 44.337608337402344 13.981155395507812 44.3604850769043 C 13.814497947692871 44.74641418457031 13.741280555725098 45.16622543334961 13.767455101013184 45.585784912109375 C 13.736126899719238 46.37163543701172 14.234030723571777 47.081451416015625 14.98360538482666 47.31953430175781 C 15.820568084716797 47.59344482421875 16.711933135986328 47.657928466796875 17.579605102539062 47.5073356628418 C 17.95383644104004 47.45240783691406 18.325084686279297 47.3787841796875 18.69195556640625 47.28673553466797 C 18.808704376220703 47.26233673095703 18.922155380249023 47.220333099365234 19.03945541381836 47.20063400268555 C 19.80180549621582 47.07273483276367 20.189455032348633 47.388633728027344 20.18460464477539 48.16283416748047 C 20.17305564880371 48.72065734863281 20.21285629272461 49.278358459472656 20.303504943847656 49.82888412475586 C 20.456932067871094 50.898441314697266 21.448352813720703 51.641109466552734 22.517908096313477 51.4876823425293 C 22.565237045288086 51.48089599609375 22.612300872802734 51.472373962402344 22.65900421142578 51.462135314941406 C 23.104726791381836 51.35822677612305 23.544254302978516 51.229339599609375 23.975505828857422 51.07608413696289 C 24.523155212402344 50.90333557128906 24.8584041595459 50.9896354675293 24.99615478515625 51.352783203125 C 25.14385414123535 51.742034912109375 24.9386043548584 52.068485260009766 24.381454467773438 52.26643371582031 C 23.59992027282715 52.62487030029297 22.74200439453125 52.784881591796875 21.883804321289062 52.73228454589844 C 20.349143981933594 52.60233688354492 19.13591957092285 51.3773307800293 19.02080535888672 49.84148406982422 C 18.970104217529297 49.429935455322266 18.91985511779785 49.01828384399414 18.86780548095703 48.593536376953125" stroke-width="1.0" fill="rgb(255, 255, 255)" opacity="1.0"/>
    <path d="M 31.7630558013916 51.67588424682617 C 32.067359924316406 52.0651969909668 32.339393615722656 52.47868347167969 32.576454162597656 52.912235260009766 C 32.828651428222656 53.390281677246094 32.963706970214844 53.92138671875 32.97050476074219 54.46183395385742 C 32.987056732177734 55.71006393432617 31.988584518432617 56.73536682128906 30.7403564453125 56.75191879272461 C 30.666622161865234 56.75289535522461 30.59288215637207 56.750267028808594 30.519405364990234 56.74403381347656 C 29.231069564819336 56.665462493896484 28.100337982177734 55.859066009521484 27.60640525817871 54.66658401489258 C 27.437253952026367 54.379390716552734 27.53294563293457 54.00945281982422 27.820138931274414 53.840301513671875 C 27.82357406616211 53.838279724121094 27.827030181884766 53.83628845214844 27.83050537109375 53.83433532714844 C 28.123823165893555 53.676326751708984 28.489273071289062 53.76910400390625 28.67170524597168 54.04788589477539 C 28.732454299926758 54.12583541870117 28.775705337524414 54.21733474731445 28.829055786132812 54.30128479003906 C 28.89315414428711 54.40208435058594 28.953805923461914 54.50568389892578 29.02580451965332 54.60063552856445 C 29.270509719848633 54.94414138793945 29.611896514892578 55.20706558227539 30.00650405883789 55.355934143066406 C 30.46467399597168 55.58744430541992 31.01739501953125 55.5185432434082 31.404705047607422 55.181636810302734 C 31.732654571533203 54.83908462524414 31.8135986328125 54.328983306884766 31.607805252075195 53.9017333984375 C 31.37472152709961 53.19715118408203 30.941757202148438 52.575557708740234 30.36165428161621 52.11268615722656 C 30.239255905151367 52.01088333129883 30.102754592895508 51.925384521484375 29.984704971313477 51.81908416748047 C 29.77016830444336 51.65919876098633 29.677350997924805 51.38298034667969 29.75180435180664 51.12598419189453 C 29.825260162353516 50.869083404541016 30.052616119384766 50.686336517333984 30.319305419921875 50.66983413696289 C 30.595285415649414 50.6325569152832 30.86867904663086 50.57815170288086 31.13790512084961 50.506935119628906 C 31.5489559173584 50.38593673706055 31.958005905151367 50.207786560058594 32.03095626831055 49.72913360595703 C 32.06094741821289 49.29879379272461 31.841854095458984 48.889286041259766 31.467205047607422 48.67543411254883 C 30.81652069091797 48.239437103271484 30.040502548217773 48.029537200927734 29.25875473022461 48.078086853027344 C 29.09980583190918 48.07463455200195 28.938804626464844 48.09968566894531 28.78195571899414 48.08248519897461 C 28.488611221313477 48.08232116699219 28.246484756469727 47.85303497314453 28.23035430908203 47.56013488769531 C 28.222286224365234 47.266170501708984 28.441003799438477 47.015140533447266 28.733304977416992 46.98288345336914 C 29.227245330810547 46.91121292114258 29.728544235229492 46.90584945678711 30.223905563354492 46.96693420410156 C 30.9422664642334 47.030799865722656 31.63068389892578 47.284725189208984 32.21845626831055 47.70263671875 C 32.47864532470703 47.88808059692383 32.70641326904297 48.115238189697266 32.892555236816406 48.374935150146484 C 33.576595306396484 49.25387954711914 33.41859436035156 50.52092742919922 32.539649963378906 51.2049674987793 C 32.47472381591797 51.255496978759766 32.40676498413086 51.302005767822266 32.33615493774414 51.344234466552734 C 32.17120361328125 51.45278549194336 31.994104385375977 51.542884826660156 31.7630558013916 51.67588424682617" stroke-width="1.0" fill="rgb(255, 255, 255)" opacity="1.0"/>
    <path d="M 25.135555267333984 44.45073318481445 C 25.17045783996582 43.715484619140625 24.99675941467285 42.9853515625 24.634504318237305 42.34458541870117 C 24.211275100708008 41.35036087036133 23.144725799560547 40.79349136352539 22.087005615234375 41.01448440551758 C 21.870925903320312 41.04954147338867 21.65675163269043 41.095481872558594 21.44530487060547 41.15213394165039 C 21.035755157470703 41.244083404541016 20.766254425048828 41.1323356628418 20.660905838012695 40.82538604736328 C 20.55555534362793 40.51863479614258 20.704404830932617 40.25738525390625 21.085205078125 40.08063507080078 C 22.664554595947266 39.42032241821289 24.49065589904785 39.9345588684082 25.49335479736328 41.321983337402344 C 26.175586700439453 42.340843200683594 26.49749183654785 43.558589935302734 26.407854080200195 44.78148651123047 C 26.398134231567383 44.96027755737305 26.364450454711914 45.13695526123047 26.30770492553711 45.306785583496094 C 26.22650718688965 45.56514358520508 25.975645065307617 45.73148727416992 25.7060546875 45.70573425292969 C 25.41326904296875 45.6980094909668 25.17165756225586 45.474266052246094 25.141504287719727 45.18293380737305 C 25.124433517456055 44.93922424316406 25.122447967529297 44.6946907043457 25.135555267333984 44.45073318481445" stroke-width="1.0" fill="rgb(255, 255, 255)" opacity="1.0"/>
  </g>
</svg>
