<?xml version="1.0" ?>
<svg xmlns="http://www.w3.org/2000/svg" version="1.1" width="600" height="600">
  <defs/>
  <g>
    <path d="M 51.91922378540039 5.5272650718688965 C 51.49052047729492 5.552265644073486 51.075592041015625 5.687830448150635 50.71482467651367 5.920764923095703 C 49.880001068115234 6.4172797203063965 49.07899475097656 6.968571186065674 48.317073822021484 7.571014881134033 C 46.093475341796875 9.239014625549316 43.99869155883789 11.064814567565918 41.853973388671875 12.829614639282227 C 40.62422561645508 13.841565132141113 39.366573333740234 14.819564819335938 38.120826721191406 15.812065124511719 C 38.02972412109375 15.884614944458008 37.93287658691406 15.949865341186523 37.839725494384766 16.019865036010742 C 37.439598083496094 16.360675811767578 36.857879638671875 16.382373809814453 36.433475494384766 16.072315216064453 C 35.61919403076172 15.540440559387207 34.879817962646484 14.901896476745605 34.235076904296875 14.173714637756348 C 33.95200729370117 13.885210037231445 33.90087890625 13.441378593444824 34.110923767089844 13.096064567565918 C 34.23799514770508 12.855077743530273 34.397735595703125 12.632795333862305 34.58562469482422 12.435515403747559 C 36.581905364990234 10.154417991638184 38.71367645263672 7.995547771453857 40.96937561035156 5.970614910125732 C 42.788639068603516 4.330480098724365 44.770042419433594 2.8796780109405518 46.88297653198242 1.6406149864196777 C 48.450103759765625 0.7303685545921326 50.19822692871094 0.1758744865655899 52.003501892089844 0.016414999961853027 C 52.97649383544922 -0.04831787943840027 53.95188522338867 0.10022636502981186 54.86149978637695 0.4516650140285492 C 56.946388244628906 1.1166267395019531 58.157596588134766 3.285277843475342 57.63029861450195 5.409164905548096 C 57.3455810546875 6.782646179199219 56.78608703613281 8.084378242492676 55.985450744628906 9.236115455627441 C 55.00049591064453 10.706643104553223 53.84401321411133 12.054709434509277 52.540401458740234 13.25186538696289 C 52.52614974975586 13.26506519317627 52.51165008544922 13.27801513671875 52.497100830078125 13.290914535522461 C 51.602500915527344 14.086014747619629 51.27389907836914 14.110164642333984 50.30474853515625 13.435415267944336 C 49.81079864501953 13.09146499633789 49.31321334838867 12.751065254211426 48.83715057373047 12.383315086364746 C 48.30754089355469 12.094358444213867 48.112457275390625 11.430780410766602 48.40141296386719 10.90117359161377 C 48.44790267944336 10.815969467163086 48.50553894042969 10.737340927124023 48.57279968261719 10.667365074157715 C 49.01129913330078 10.050314903259277 49.49095153808594 9.462565422058105 49.95109939575195 8.860864639282227 C 50.55852127075195 8.077860832214355 51.10670852661133 7.250650405883789 51.59109878540039 6.386115074157715 C 51.75995635986328 6.126245498657227 51.87179183959961 5.833524703979492 51.91922378540039 5.5272650718688965" stroke-width="1.0" fill="rgb(191, 46, 27)" opacity="1.0"/>
    <path d="M 45.118125915527344 10.0747652053833 C 44.31592559814453 9.941715240478516 43.30077362060547 9.7802152633667 42.288326263427734 9.603514671325684 C 41.14197540283203 9.403465270996094 39.9979248046875 9.190415382385254 38.85319137573242 8.981565475463867 C 38.680419921875 8.955947875976562 38.509422302246094 8.919560432434082 38.341190338134766 8.872614860534668 C 38.042388916015625 8.806124687194824 37.84498977661133 8.52099895477295 37.88792419433594 8.217914581298828 C 37.93381881713867 7.912689685821533 38.215980529785156 7.700645923614502 38.52192687988281 7.741465091705322 C 39.08112335205078 7.7924652099609375 39.63612365722656 7.891864776611328 40.19187545776367 7.9773149490356445 Q 42.780426025390625 8.375340461730957 45.36819076538086 8.778115272521973 C 45.40647506713867 8.784065246582031 45.44577407836914 8.784714698791504 45.48368835449219 8.79251480102539 C 45.944923400878906 8.887165069580078 46.183223724365234 9.154664993286133 46.144126892089844 9.532614707946777 C 46.10502624511719 9.910414695739746 45.81647491455078 10.107065200805664 45.118125915527344 10.0747652053833" stroke-width="1.0" fill="rgb(255, 255, 255)" opacity="1.0"/>
    <path d="M 41.135189056396484 13.477615356445312 C 40.12027359008789 13.345014572143555 39.06718826293945 13.184564590454102 38.018924713134766 12.990665435791016 C 37.14287567138672 12.828615188598633 36.2640266418457 12.68171501159668 35.386474609375 12.527814865112305 C 35.290340423583984 12.51623249053955 35.19512939453125 12.4979887008667 35.101524353027344 12.473215103149414 C 34.803802490234375 12.411026000976562 34.5988655090332 12.137027740478516 34.62332534790039 11.83386516571045 C 34.66012191772461 11.521162033081055 34.94344711303711 11.29749584197998 35.25614929199219 11.3342924118042 C 35.2694091796875 11.33585262298584 35.28260803222656 11.337878227233887 35.29572677612305 11.340365409851074 C 35.98942565917969 11.40776538848877 36.680023193359375 11.510165214538574 37.370323181152344 11.609214782714844 C 38.59782409667969 11.785365104675293 39.824188232421875 11.969764709472656 41.05097579956055 12.1508150100708 C 41.16658020019531 12.16207218170166 41.28141784667969 12.180187225341797 41.394874572753906 12.20506477355957 C 41.752559661865234 12.24980354309082 42.006256103515625 12.576032638549805 41.961517333984375 12.933719635009766 C 41.960453033447266 12.942224502563477 41.959224700927734 12.950708389282227 41.95782470703125 12.9591646194458 C 41.90252685546875 13.317415237426758 41.63047409057617 13.498865127563477 41.135189056396484 13.477615356445312" stroke-width="1.0" fill="rgb(255, 255, 255)" opacity="1.0"/>
    <path d="M 22.239225387573242 29.234664916992188 C 17.9299259185791 29.088214874267578 13.620189666748047 28.952064514160156 9.31142520904541 28.79061508178711 C 7.4485249519348145 28.720815658569336 5.587425231933594 28.601764678955078 3.7257750034332275 28.499364852905273 C 2.7077250480651855 28.443315505981445 2.4628748893737793 28.24071502685547 2.200474977493286 27.238065719604492 C 1.6722482442855835 25.191057205200195 2.104084014892578 23.01491355895996 3.373924970626831 21.32471466064453 C 4.035902500152588 20.385746002197266 4.849673748016357 19.563610076904297 5.781825065612793 18.892065048217773 C 7.024905204772949 17.95842933654785 8.363970756530762 17.15996742248535 9.776325225830078 16.510215759277344 Q 11.709525108337402 15.628214836120605 13.637689590454102 14.735065460205078 C 15.107062339782715 14.067654609680176 16.481260299682617 13.208001136779785 17.724224090576172 12.178665161132812 C 18.433279037475586 11.600872039794922 19.040283203125 10.908124923706055 19.51992416381836 10.129315376281738 C 20.06111717224121 9.335999488830566 20.075593948364258 8.29598617553711 19.556690216064453 7.4879150390625 C 19.19821548461914 6.862644195556641 18.717952728271484 6.31563663482666 18.144325256347656 5.879264831542969 C 17.77018928527832 5.60151481628418 17.396324157714844 5.322364807128906 17.036975860595703 5.026165008544922 C 16.71274185180664 4.822910308837891 16.555164337158203 4.434820175170898 16.645925521850586 4.063065052032471 C 16.762248992919922 3.6807146072387695 17.10230827331543 3.4096968173980713 17.500974655151367 3.381614923477173 C 18.137601852416992 3.290837287902832 18.785526275634766 3.3185532093048096 19.41207504272461 3.463365077972412 C 23.107290267944336 4.022598743438721 26.644681930541992 5.348556041717529 29.797025680541992 7.356064796447754 C 33.411888122558594 9.70512580871582 36.42519760131836 12.86953353881836 38.5947265625 16.59491539001465 C 40.6908073425293 19.988061904907227 41.7867431640625 23.903871536254883 41.75652313232422 27.892114639282227 C 41.75192642211914 28.22211456298828 41.7390251159668 28.552215576171875 41.721824645996094 28.88181495666504 C 41.692073822021484 29.451114654541016 41.464576721191406 29.684364318847656 40.87962341308594 29.68266487121582 Q 39.07324981689453 29.67741584777832 37.26712417602539 29.635114669799805 Q 31.645349502563477 29.512189865112305 26.023975372314453 29.37616539001465 C 24.761974334716797 29.345014572143555 23.500625610351562 29.287015914916992 22.238975524902344 29.241315841674805 L 22.239225387573242 29.234664916992188" stroke-width="1.0" fill="rgb(183, 204, 207)" opacity="1.0"/>
    <path d="M 24.473690032958984 6.633214950561523 C 24.810224533081055 6.93171501159668 25.128475189208984 7.213065147399902 25.445825576782227 7.49546480178833 C 26.847362518310547 8.677898406982422 27.965255737304688 10.160184860229492 28.716875076293945 11.832764625549316 C 29.598390579223633 13.725975036621094 29.992904663085938 15.809435844421387 29.864574432373047 17.89386558532715 C 29.725072860717773 19.40601348876953 29.297840118408203 20.8775634765625 28.60587501525879 22.22931480407715 C 27.172088623046875 25.135896682739258 25.05305290222168 27.650257110595703 22.43137550354004 29.555715560913086 C 22.30948257446289 29.65160369873047 22.178491592407227 29.735319137573242 22.04027557373047 29.8056640625 C 21.78781509399414 29.9322452545166 21.481311798095703 29.866500854492188 21.302974700927734 29.64751434326172 C 21.12051010131836 29.43341064453125 21.099384307861328 29.125215530395508 21.250925064086914 28.888214111328125 C 21.3531494140625 28.74595832824707 21.479753494262695 28.622926712036133 21.624874114990234 28.52481460571289 C 22.106624603271484 28.132015228271484 22.59218978881836 27.743715286254883 23.069324493408203 27.345415115356445 C 25.01676368713379 25.660703659057617 26.57256507873535 23.57081413269043 27.62787437438965 21.221965789794922 C 28.689735412597656 19.007192611694336 28.880495071411133 16.4742431640625 28.162324905395508 14.125414848327637 C 27.522968292236328 11.803455352783203 26.17111587524414 9.740656852722168 24.29727554321289 8.227714538574219 C 24.252613067626953 8.195451736450195 24.205730438232422 8.16637897491455 24.15697479248047 8.140714645385742 C 24.0684757232666 8.21236515045166 24.109975814819336 8.28781509399414 24.137725830078125 8.351064682006836 C 24.715961456298828 9.78824234008789 24.777408599853516 11.381572723388672 24.311574935913086 12.859015464782715 C 23.79073715209961 14.801335334777832 22.78571319580078 16.579797744750977 21.390525817871094 18.02801513671875 C 20.347305297851562 19.10067367553711 19.23822021484375 20.107242584228516 18.069725036621094 21.0418643951416 C 16.877689361572266 22.039215087890625 15.66972541809082 23.018014907836914 14.527825355529785 24.074214935302734 C 13.378602981567383 25.09661293029785 12.401646614074707 26.297523498535156 11.634525299072266 27.630765914916992 C 11.441713333129883 27.997482299804688 11.074230194091797 28.2396240234375 10.661190032958984 28.27211570739746 C 10.255075454711914 28.32656478881836 10.029274940490723 28.078964233398438 10.124690055847168 27.673215866088867 C 10.225933074951172 27.337902069091797 10.379612922668457 27.020727157592773 10.580024719238281 26.73346519470215 C 11.387436866760254 25.448223114013672 12.36496353149414 24.278085708618164 13.486024856567383 23.254865646362305 C 14.900774955749512 21.92096519470215 16.426124572753906 20.714614868164062 17.90472412109375 19.45441436767578 C 19.04295539855957 18.512516021728516 20.09720230102539 17.473508834838867 21.055574417114258 16.3491153717041 C 22.21706771850586 14.976222038269043 22.97427749633789 13.30762004852295 23.242725372314453 11.529464721679688 C 23.548503875732422 10.02672004699707 23.023330688476562 8.47556209564209 21.867525100708008 7.467665195465088 C 21.381500244140625 7.028748035430908 20.8644962310791 6.6254048347473145 20.320524215698242 6.260765075683594 C 20.36628532409668 6.468958377838135 20.468826293945312 6.660405158996582 20.616775512695312 6.8138651847839355 C 21.81737518310547 8.359914779663086 21.923824310302734 10.043464660644531 21.24802589416504 11.822114944458008 C 20.480632781982422 13.792410850524902 19.138620376586914 15.486493110656738 17.396224975585938 16.684415817260742 C 15.926889419555664 17.702106475830078 14.406107902526855 18.643436431884766 12.839924812316895 19.50466537475586 C 11.184690475463867 20.40882110595703 9.637164115905762 21.497507095336914 8.226924896240234 22.749914169311523 C 7.383999347686768 23.501760482788086 6.680552005767822 24.39663314819336 6.149024963378906 25.393264770507812 C 5.7354302406311035 26.10079002380371 5.505558013916016 26.90060806274414 5.480374813079834 27.719764709472656 C 5.48142671585083 27.77812385559082 5.476686954498291 27.836442947387695 5.4662251472473145 27.89386558532715 C 5.425098419189453 28.21440315246582 5.162703514099121 28.46091079711914 4.8402252197265625 28.481964111328125 C 4.493143081665039 28.481294631958008 4.207478046417236 28.20873260498047 4.190525054931641 27.862064361572266 C 4.144412517547607 27.298494338989258 4.215470314025879 26.73147964477539 4.399225234985352 26.196714401245117 C 4.870772361755371 24.74937629699707 5.678085803985596 23.43415069580078 6.755189895629883 22.3585147857666 C 8.19131851196289 20.932714462280273 9.815315246582031 19.709577560424805 11.58222484588623 18.722965240478516 C 12.910690307617188 17.955114364624023 14.23277473449707 17.177114486694336 15.534825325012207 16.36491584777832 C 16.847854614257812 15.59910774230957 17.99812126159668 14.583460807800293 18.920625686645508 13.375365257263184 C 19.402875900268555 12.716455459594727 19.791051864624023 11.99361801147461 20.073974609375 11.227664947509766 C 20.276195526123047 10.617963790893555 20.360546112060547 9.975350379943848 20.322525024414062 9.334115028381348 C 20.28001594543457 8.847318649291992 20.10548210144043 8.381349563598633 19.817724227905273 7.986414909362793 C 19.12946128845215 6.876965045928955 18.23889923095703 5.9066877365112305 17.19237518310547 5.126064777374268 C 16.95233917236328 4.961038589477539 16.723979949951172 4.7796406745910645 16.50892448425293 4.583165168762207 C 16.219404220581055 4.354677200317383 16.169925689697266 3.9347481727600098 16.398414611816406 3.6452269554138184 C 16.486658096313477 3.533412456512451 16.608341217041016 3.452742338180542 16.745689392089844 3.4149999618530273 C 16.960302352905273 3.3191897869110107 17.197940826416016 3.2871150970458984 17.430274963378906 3.3225998878479004 C 20.148725509643555 3.713550090789795 22.833375930786133 4.252200126647949 25.327774047851562 5.451849937438965 C 27.671987533569336 6.509675025939941 29.80698013305664 7.980238437652588 31.630924224853516 9.793399810791016 C 34.158470153808594 12.332417488098145 35.826026916503906 15.600227355957031 36.398826599121094 19.136749267578125 C 36.84763717651367 22.2435359954834 36.59955978393555 25.411258697509766 35.672576904296875 28.41029930114746 C 35.60980987548828 28.634784698486328 35.52785873413086 28.853456497192383 35.4276237487793 29.063899993896484 C 35.316131591796875 29.415552139282227 34.940677642822266 29.610239028930664 34.58902359008789 29.49874496459961 C 34.56961441040039 29.492589950561523 34.55049133300781 29.485551834106445 34.5317268371582 29.477649688720703 C 34.205997467041016 29.33072853088379 34.06105041503906 28.94757080078125 34.207969665527344 28.621845245361328 C 34.21303939819336 28.610612869262695 34.21842575073242 28.599525451660156 34.224124908447266 28.588600158691406 C 34.67767333984375 27.285310745239258 34.986549377441406 25.93610382080078 35.14519119262695 24.56529998779297 C 35.583740234375 21.767492294311523 35.28369140625 18.903654098510742 34.274776458740234 16.25749969482422 C 33.368988037109375 13.88683795928955 31.91483497619629 11.764289855957031 30.031274795532227 10.06350040435791 C 28.44553565979004 8.685190200805664 26.67719268798828 7.532283782958984 24.776275634765625 6.637400150299072 C 24.68391990661621 6.580251693725586 24.567590713500977 6.578642845153809 24.473690032958984 6.633214950561523" stroke-width="1.0" fill="rgb(82, 108, 122)" opacity="1.0"/>
    <path d="M 23.072999954223633 28.124364852905273 C 26.40839958190918 28.331565856933594 30.3712158203125 28.31236457824707 34.334049224853516 28.317914962768555 C 37.19004821777344 28.321914672851562 40.042850494384766 28.459814071655273 42.894500732421875 28.611665725708008 C 43.70640182495117 28.654865264892578 43.94710159301758 28.90581512451172 43.969451904296875 29.731815338134766 C 43.9460563659668 30.528045654296875 43.843345642089844 31.31995964050293 43.66284942626953 32.0958137512207 C 43.507450103759766 32.994964599609375 43.491249084472656 32.97471618652344 44.40129852294922 33.04701614379883 C 46.71056365966797 33.179664611816406 48.99333953857422 33.60744094848633 51.19395065307617 34.319915771484375 C 52.00687789916992 34.58660888671875 52.77722930908203 34.96882247924805 53.48134994506836 35.45481491088867 C 55.506893157958984 36.812477111816406 56.066307067871094 39.545352935791016 54.73714828491211 41.58971405029297 C 53.609283447265625 43.45529556274414 51.84199523925781 44.847537994384766 49.76421356201172 45.50731658935547 C 47.73310852050781 46.18077087402344 45.61042022705078 46.53748321533203 43.47074890136719 46.56491470336914 C 42.30554962158203 46.606964111328125 41.14021682739258 46.57416534423828 39.97544860839844 46.51371383666992 C 39.41884994506836 46.48481369018555 39.40605163574219 46.49391555786133 39.22090148925781 47.01081466674805 C 38.74396896362305 48.4086799621582 38.10785675048828 49.74705505371094 37.32509994506836 50.99956512451172 C 35.65079879760742 53.74028015136719 33.15117645263672 55.880035400390625 30.185049057006836 57.111663818359375 C 28.825042724609375 57.63764190673828 27.397716522216797 57.96940231323242 25.94515037536621 58.097164154052734 C 23.570451736450195 58.379356384277344 21.173357009887695 58.421451568603516 18.79021453857422 58.222816467285156 C 16.188692092895508 58.052406311035156 13.634308815002441 57.445980072021484 11.233799934387207 56.428863525390625 C 7.870580673217773 54.91506576538086 5.133028984069824 52.28668212890625 3.483690023422241 48.987815856933594 C 1.9063491821289062 45.92713165283203 0.8758363723754883 42.614418029785156 0.4386250078678131 39.199066162109375 C 0.11089157313108444 36.28429412841797 -0.035556815564632416 33.351985931396484 0.0001250000059371814 30.419065475463867 C -0.004184775520116091 29.893980026245117 0.053208593279123306 29.370206832885742 0.17112499475479126 28.8585147857666 C 0.26196590065956116 28.02047348022461 0.9933985471725464 27.400489807128906 1.8350000381469727 27.448165893554688 C 2.319000005722046 27.418514251708984 2.805999994277954 27.42046546936035 3.291214942932129 27.431114196777344 C 8.146050453186035 27.537065505981445 13.001299858093262 27.631114959716797 17.851299285888672 27.894315719604492 C 19.383325576782227 27.97746467590332 20.917024612426758 28.03046417236328 23.072999954223633 28.124364852905273" stroke-width="1.0" fill="rgb(255, 110, 141)" opacity="1.0"/>
    <path d="M 21.25432586669922 40.58036422729492 C 22.544475555419922 40.668766021728516 23.78077507019043 40.74806594848633 25.021190643310547 40.757965087890625 C 25.312440872192383 40.755836486816406 25.60344886779785 40.775291442871094 25.89182472229004 40.816165924072266 C 26.265121459960938 40.830745697021484 26.555919647216797 41.14518356323242 26.541337966918945 41.51848220825195 C 26.526756286621094 41.891780853271484 26.212318420410156 42.18257522583008 25.839019775390625 42.16799545288086 C 25.82394027709961 42.16740417480469 25.808883666992188 42.16631317138672 25.793874740600586 42.16471481323242 C 24.764625549316406 42.148963928222656 23.73587417602539 42.10166549682617 22.70697593688965 42.064666748046875 C 22.37827491760254 42.05281448364258 22.04982566833496 42.03306579589844 21.73237419128418 42.01746368408203 C 21.624874114990234 42.21366500854492 21.783475875854492 42.287513732910156 21.857074737548828 42.381263732910156 C 22.456775665283203 43.14536666870117 23.06427574157715 43.903316497802734 23.666324615478516 44.66561508178711 C 23.76620101928711 44.78448486328125 23.853530883789062 44.91334915161133 23.926925659179688 45.05016326904297 C 24.08390235900879 45.34059143066406 23.97572135925293 45.70328140258789 23.68529510498047 45.86025619506836 C 23.47789764404297 45.972354888916016 23.223983764648438 45.952083587646484 23.03700065612793 45.80849838256836 C 22.888954162597656 45.68332290649414 22.75445556640625 45.5429573059082 22.63571548461914 45.38970184326172 C 21.96929931640625 44.6103515625 21.306215286254883 43.82809829711914 20.540599822998047 42.92770004272461 C 20.491050720214844 43.479801177978516 20.44099998474121 43.8901481628418 20.419950485229492 44.30194854736328 C 20.400165557861328 45.21500778198242 20.291671752929688 46.123985290527344 20.09600067138672 47.016048431396484 C 20.077695846557617 47.170562744140625 20.026405334472656 47.3193359375 19.945600509643555 47.452301025390625 C 19.76318359375 47.7248649597168 19.39434814453125 47.797943115234375 19.121784210205078 47.61552810668945 C 18.99176788330078 47.52851104736328 18.90134048461914 47.393707275390625 18.870149612426758 47.24039840698242 C 18.839458465576172 47.04791259765625 18.845447540283203 46.85136032104492 18.887800216674805 46.66109848022461 C 19.053434371948242 45.40935516357422 19.13002586364746 44.147438049316406 19.117000579833984 42.884849548339844 C 19.117849349975586 42.85285186767578 19.08880043029785 42.82004928588867 19.05780029296875 42.753501892089844 C 18.884214401245117 42.794151306152344 18.78471565246582 42.94144821166992 18.663299560546875 43.052249908447266 C 17.845600128173828 43.79854965209961 17.10434913635254 44.626251220703125 16.244600296020508 45.32780075073242 C 16.103384017944336 45.46175003051758 15.940218925476074 45.570465087890625 15.762214660644531 45.649200439453125 C 15.50377368927002 45.76435470581055 15.200004577636719 45.683074951171875 15.033599853515625 45.45425033569336 C 14.86324405670166 45.2274169921875 14.878103256225586 44.911537170410156 15.069000244140625 44.701698303222656 C 15.159849166870117 44.6005744934082 15.258957862854004 44.50718307495117 15.365300178527832 44.42250061035156 C 16.227550506591797 43.66400146484375 16.975849151611328 42.79225158691406 17.787900924682617 41.983848571777344 C 17.823745727539062 41.929988861083984 17.851459503173828 41.87113952636719 17.870149612426758 41.809200286865234 C 17.58696174621582 41.73359680175781 17.296497344970703 41.688507080078125 17.00371551513672 41.67470169067383 Q 15.670965194702148 41.535423278808594 14.338500022888184 41.39284896850586 C 14.28065013885498 41.38665008544922 14.222800254821777 41.3780517578125 14.165650367736816 41.36695098876953 C 13.705949783325195 41.277748107910156 13.487215042114258 41.052650451660156 13.51140022277832 40.694950103759766 C 13.535599708557129 40.33679962158203 13.796600341796875 40.12739944458008 14.256050109863281 40.13584899902344 C 14.643950462341309 40.142948150634766 15.031399726867676 40.18119812011719 15.41884994506836 40.20880126953125 Q 16.808900833129883 40.30794906616211 18.197500228881836 40.40985107421875 C 18.248214721679688 40.17219924926758 18.088714599609375 40.088050842285156 17.99679946899414 39.980098724365234 C 17.216049194335938 39.06285095214844 16.427715301513672 38.152099609375 15.644214630126953 37.23725128173828 C 15.538798332214355 37.12361526489258 15.446481704711914 36.998497009277344 15.369000434875488 36.86425018310547 C 15.21890640258789 36.599796295166016 15.276118278503418 36.26618576049805 15.505749702453613 36.06684875488281 C 15.725326538085938 35.85957717895508 16.056730270385742 35.825599670410156 16.313800811767578 35.98400115966797 C 16.506607055664062 36.11585998535156 16.675426483154297 36.27974319458008 16.812950134277344 36.46855163574219 Q 17.951374053955078 37.7912483215332 19.083900451660156 39.10734939575195 C 19.307214736938477 39.03150177001953 19.224899291992188 38.87089920043945 19.226850509643555 38.75630187988281 C 19.2419490814209 37.86275100708008 19.24595069885254 36.96900177001953 19.255399703979492 36.07535171508789 C 19.24895477294922 35.8414192199707 19.28617286682129 35.60833740234375 19.365150451660156 35.3880500793457 C 19.4720401763916 35.10508346557617 19.755205154418945 34.928768157958984 20.056299209594727 34.957698822021484 C 20.35831642150879 34.9841194152832 20.60213851928711 35.21548080444336 20.644350051879883 35.51570129394531 C 20.660139083862305 35.68947219848633 20.6627140045166 35.86418914794922 20.652050018310547 36.03834915161133 C 20.65239906311035 37.00265121459961 20.65221405029297 37.966949462890625 20.65221405029297 38.99164962768555 C 20.87352752685547 38.88723373413086 21.069496154785156 38.735958099365234 21.22654914855957 38.548301696777344 C 21.805715560913086 38.001548767089844 22.370100021362305 37.439048767089844 22.953500747680664 36.896949768066406 C 23.211467742919922 36.661048889160156 23.484638214111328 36.44232940673828 23.771249771118164 36.2421989440918 C 24.236799240112305 35.91175079345703 24.653850555419922 35.94089889526367 24.896400451660156 36.29679870605469 C 25.129499435424805 36.638851165771484 25.033599853515625 37.02370071411133 24.602100372314453 37.345550537109375 C 24.258142471313477 37.599185943603516 23.930294036865234 37.873966217041016 23.62044906616211 38.16830062866211 Q 22.569345474243164 39.17734909057617 21.521099090576172 40.189449310302734 C 21.392414093017578 40.28763961791992 21.298851013183594 40.424739837646484 21.25432586669922 40.58036422729492" stroke-width="1.0" fill="rgb(255, 255, 255)" opacity="1.0"/>
  </g>
</svg>
