<?xml version="1.0" ?>
<svg xmlns="http://www.w3.org/2000/svg" version="1.1" width="600" height="600">
  <defs/>
  <g>
    <path d="M 34.673858642578125 7.727550029754639 C 34.96736145019531 6.900750160217285 35.22700881958008 6.1329498291015625 35.51185989379883 5.374599933624268 C 36.064659118652344 3.9031999111175537 36.63111114501953 2.4368999004364014 37.19350814819336 0.9691500067710876 C 37.247161865234375 0.8234683871269226 37.309200286865234 0.6810135841369629 37.379310607910156 0.5425000190734863 C 37.46823501586914 0.3682587444782257 37.60625076293945 0.2238812893629074 37.776309967041016 0.12720000743865967 C 38.54505920410156 -0.3096500039100647 39.89445877075195 0.4492500126361847 39.915611267089844 1.3313000202178955 C 39.901519775390625 1.719801664352417 39.83893585205078 2.1050198078155518 39.72930908203125 2.4779999256134033 C 39.0826416015625 5.159463882446289 38.15629959106445 7.765643119812012 36.96549987792969 10.253700256347656 C 36.76687240600586 10.650114059448242 36.74611282348633 11.112274169921875 36.90840148925781 11.524900436401367 C 37.495216369628906 13.195773124694824 37.79875946044922 14.952943801879883 37.80649948120117 16.72385025024414 C 37.826988220214844 20.132936477661133 36.723793029785156 23.453819274902344 34.66749954223633 26.17300033569336 C 32.34493637084961 29.205902099609375 29.424800872802734 31.730030059814453 26.08772087097168 33.58924865722656 C 23.013351440429688 35.391605377197266 19.61155891418457 36.56525421142578 16.07986068725586 37.042049407958984 C 12.91436767578125 37.530399322509766 9.67579174041748 37.158138275146484 6.703660011291504 35.964298248291016 C 4.521656513214111 35.075714111328125 2.740860939025879 33.41842269897461 1.6979999542236328 31.30579948425293 C 0.46233072876930237 28.99793243408203 -0.11710883677005768 26.39551544189453 0.02266000024974346 23.781400680541992 C 0.15697690844535828 22.152204513549805 0.573512077331543 20.558761596679688 1.253659963607788 19.072250366210938 C 2.094291925430298 17.12363624572754 3.2688817977905273 15.336860656738281 4.724460124969482 13.792499542236328 C 7.092995643615723 11.289549827575684 9.87509536743164 9.213428497314453 12.948659896850586 7.655250072479248 C 15.2482271194458 6.3911943435668945 17.71245574951172 5.453171730041504 20.27050018310547 4.868150234222412 C 23.48630142211914 4.1235737800598145 26.843130111694336 4.2571516036987305 29.989599227905273 5.254899978637695 C 31.35389518737793 5.710396766662598 32.65487289428711 6.33718729019165 33.861351013183594 7.120250225067139 C 34.12099838256836 7.287499904632568 34.358001708984375 7.4899001121521 34.673858642578125 7.727550029754639" stroke-width="1.0" fill="rgb(148, 88, 78)" opacity="1.0"/>
    <path d="M 9.63405990600586 16.02720069885254 C 8.82929801940918 16.0233211517334 8.027166366577148 15.934953689575195 7.2408599853515625 15.7635498046875 C 6.4991021156311035 15.60893440246582 5.778265476226807 15.367016792297363 5.093410015106201 15.04284954071045 C 4.877221584320068 14.953291893005371 4.68175745010376 14.820236206054688 4.51915979385376 14.651949882507324 C 4.322311878204346 14.449636459350586 4.280526638031006 14.142555236816406 4.4161601066589355 13.895000457763672 C 4.54934549331665 13.622659683227539 4.85230827331543 13.47763729095459 5.147960186004639 13.544699668884277 C 5.279191493988037 13.577858924865723 5.405455112457275 13.628247261047363 5.5234599113464355 13.694549560546875 C 6.937371730804443 14.405298233032227 8.519184112548828 14.71450424194336 10.096659660339355 14.588500022888184 C 10.612959861755371 14.553250312805176 10.624810218811035 14.543149948120117 10.509960174560547 14.038849830627441 C 10.284992218017578 12.966423988342285 10.39808464050293 11.850625991821289 10.833660125732422 10.845149993896484 C 11.186525344848633 9.977462768554688 11.738585472106934 9.204967498779297 12.445219993591309 8.590100288391113 C 12.79131031036377 8.278650283813477 13.159110069274902 7.990699768066406 13.526060104370117 7.703549861907959 C 13.706976890563965 7.59287166595459 13.848264694213867 7.427821159362793 13.929719924926758 7.23199987411499 C 14.016785621643066 6.980628967285156 14.275554656982422 6.831641674041748 14.536660194396973 6.88254976272583 C 14.777034759521484 6.901333808898926 14.981005668640137 7.0662407875061035 15.04971981048584 7.29734992980957 C 15.096756935119629 7.425067901611328 15.131804466247559 7.556886196136475 15.154410362243652 7.691100120544434 C 15.2587308883667 8.230340957641602 15.5393648147583 8.719597816467285 15.952159881591797 9.081899642944336 C 16.81033706665039 9.854141235351562 17.883329391479492 10.34674072265625 19.02836036682129 10.494150161743164 C 19.263259887695312 10.533650398254395 19.3758602142334 10.47350025177002 19.405860900878906 10.207500457763672 C 19.571971893310547 9.025435447692871 20.091588973999023 7.921209812164307 20.896509170532227 7.039750099182129 C 21.40829086303711 6.4280104637146 21.993309020996094 5.881481170654297 22.638410568237305 5.412449836730957 C 22.80183982849121 5.309451103210449 22.92802619934082 5.156861305236816 22.998510360717773 4.9770002365112305 C 23.078521728515625 4.758060455322266 23.175256729125977 4.545600414276123 23.287860870361328 4.3414998054504395 C 23.411928176879883 3.9957010746002197 23.792831420898438 3.815953016281128 24.138629913330078 3.9400217533111572 C 24.159486770629883 3.9475042819976807 24.179954528808594 3.956024408340454 24.199960708618164 3.965549945831299 C 24.520610809326172 4.133649826049805 24.607309341430664 4.450200080871582 24.441219329833984 4.873650074005127 C 24.38460922241211 5.018050193786621 24.30816078186035 5.154600143432617 24.24806022644043 5.297800064086914 C 23.827857971191406 6.1177849769592285 24.151945114135742 7.123155117034912 24.97193145751953 7.5433573722839355 C 24.97493553161621 7.544897556304932 24.97794532775879 7.546428203582764 24.980960845947266 7.54794979095459 C 25.717100143432617 7.9521403312683105 26.544635772705078 8.160689353942871 27.384410858154297 8.153650283813477 C 28.179609298706055 8.186599731445312 28.97722053527832 8.163900375366211 29.773719787597656 8.16415023803711 C 29.890220642089844 8.16415023803711 30.0067195892334 8.155150413513184 30.123220443725586 8.150699615478516 C 30.488109588623047 8.136799812316895 30.847009658813477 8.171099662780762 31.01201057434082 8.556349754333496 C 31.15846824645996 8.93281364440918 31.034292221069336 9.360718727111816 30.709060668945312 9.600299835205078 C 30.321609497070312 9.982000350952148 29.930910110473633 10.361550331115723 29.563159942626953 10.761850357055664 C 29.010108947753906 11.31265640258789 28.59314727783203 11.984861373901367 28.345409393310547 12.72504997253418 C 28.303497314453125 12.854094505310059 28.270601272583008 12.985895156860352 28.246959686279297 13.119500160217285 C 28.137460708618164 13.868149757385254 28.332609176635742 14.215700149536133 29.048259735107422 14.45009994506836 C 30.113618850708008 14.776873588562012 31.24793815612793 14.806832313537598 32.32905960083008 14.536749839782715 C 32.80250930786133 14.432250022888184 33.268409729003906 14.29384994506836 33.73876190185547 14.175049781799316 C 34.12596130371094 14.077199935913086 34.51456069946289 14.00469970703125 34.79766082763672 14.39430046081543 C 35.0037956237793 14.763026237487793 34.937782287597656 15.224081993103027 34.63645935058594 15.520150184631348 C 34.46146011352539 15.753049850463867 34.273258209228516 15.97605037689209 34.09706115722656 16.208099365234375 C 33.49738693237305 17.03230094909668 33.17481231689453 18.02557945251465 33.175811767578125 19.044849395751953 C 33.1525764465332 19.90674591064453 33.6331901550293 20.703311920166016 34.40650939941406 21.0846004486084 C 34.970375061035156 21.39716148376465 35.60502624511719 21.559782028198242 36.24972152709961 21.556900024414062 C 36.404911041259766 21.560400009155273 36.560508728027344 21.544349670410156 36.71575927734375 21.547449111938477 C 37.2116584777832 21.55739974975586 37.514060974121094 21.79854965209961 37.53190994262695 22.19230079650879 C 37.549461364746094 22.57939910888672 37.2724609375 22.854299545288086 36.779109954833984 22.919750213623047 C 36.237056732177734 22.982532501220703 35.68826675415039 22.95236587524414 35.1563606262207 22.830549240112305 C 34.09220504760742 22.640674591064453 33.13718032836914 22.060598373413086 32.478111267089844 21.203800201416016 C 32.43037414550781 21.146516799926758 32.3797607421875 21.09169578552246 32.32646179199219 21.03955078125 C 31.356060028076172 21.81654930114746 30.95155906677246 23.622600555419922 31.543010711669922 24.6518497467041 C 31.94072914123535 25.265363693237305 32.58641052246094 25.674734115600586 33.31095886230469 25.772750854492188 C 33.594810485839844 25.83530044555664 33.88705825805664 25.85849952697754 34.1740608215332 25.907899856567383 C 34.65761184692383 25.991050720214844 34.924110412597656 26.27695083618164 34.892311096191406 26.668350219726562 C 34.8585090637207 27.084699630737305 34.514808654785156 27.342599868774414 34.001861572265625 27.286100387573242 C 33.1237678527832 27.252824783325195 32.269317626953125 26.992380142211914 31.52195930480957 26.53019905090332 C 31.245410919189453 26.333650588989258 31.124610900878906 26.45115089416504 30.95956039428711 26.652599334716797 C 30.175830841064453 27.600807189941406 29.917774200439453 28.8779354095459 30.271860122680664 30.056049346923828 C 30.320518493652344 30.223880767822266 30.35520362854004 30.395448684692383 30.375560760498047 30.569000244140625 C 30.429922103881836 30.91196632385254 30.208520889282227 31.238176345825195 29.869720458984375 31.314300537109375 C 29.53313446044922 31.408329010009766 29.18248748779297 31.219173431396484 29.07621955871582 30.886249542236328 C 28.861949920654297 30.30118179321289 28.747928619384766 29.684154510498047 28.73896026611328 29.06114959716797 C 28.706193923950195 28.4576473236084 28.799720764160156 27.85394859313965 29.013559341430664 27.288650512695312 C 29.065061569213867 27.19962501525879 29.07666015625 27.093017578125 29.045509338378906 26.9950008392334 C 26.981220245361328 27.375499725341797 24.919960021972656 27.7502498626709 23.11676025390625 26.114049911499023 C 22.630338668823242 26.720916748046875 22.316373825073242 27.447608947753906 22.207860946655273 28.217750549316406 C 22.148221969604492 28.758922576904297 22.163448333740234 29.305734634399414 22.253110885620117 29.842750549316406 C 22.399051666259766 30.924827575683594 23.09023666381836 31.856237411499023 24.08361053466797 32.3094482421875 C 24.564210891723633 32.565940856933594 25.081567764282227 32.746604919433594 25.617359161376953 32.84505081176758 C 26.192110061645508 32.94355010986328 26.43341064453125 33.3474006652832 26.36086082458496 33.709251403808594 C 26.274259567260742 34.141448974609375 25.892860412597656 34.32884979248047 25.28845977783203 34.19309997558594 C 23.835477828979492 33.949092864990234 22.527318954467773 33.167781829833984 21.623559951782227 32.00419998168945 C 21.581283569335938 31.920461654663086 21.498830795288086 31.864429473876953 21.405410766601562 31.85594940185547 C 20.993135452270508 32.47755813598633 20.73377227783203 33.187889099121094 20.648509979248047 33.92890167236328 C 20.61408042907715 34.43321990966797 20.622745513916016 34.93955612182617 20.674409866333008 35.44240188598633 C 20.684160232543945 35.57804870605469 20.706960678100586 35.713600158691406 20.70541000366211 35.84894943237305 C 20.73649787902832 36.21503448486328 20.479162216186523 36.54281234741211 20.116159439086914 36.5994987487793 C 19.74862289428711 36.64422607421875 19.414180755615234 36.38315200805664 19.36836051940918 36.015750885009766 C 19.13903045654297 34.92760467529297 19.17637825012207 33.800132751464844 19.47722053527832 32.729549407958984 C 19.63521385192871 32.36185073852539 19.761194229125977 31.981204986572266 19.853759765625 31.59185028076172 C 17.667810440063477 31.721599578857422 15.526410102844238 31.74934959411621 13.837510108947754 30.007749557495117 C 13.218219757080078 30.692649841308594 12.591509819030762 31.33989906311035 12.395859718322754 32.2552490234375 C 12.085598945617676 33.5903205871582 12.485871315002441 34.99100875854492 13.454719543457031 35.960548400878906 C 13.705309867858887 36.231300354003906 13.976659774780273 36.485599517822266 14.20322036743164 36.77510070800781 C 14.43750286102295 37.03408432006836 14.426190376281738 37.43165969848633 14.177559852600098 37.67689895629883 C 13.943634986877441 37.94377899169922 13.537653923034668 37.97049331665039 13.27077579498291 37.736568450927734 C 13.258299827575684 37.72563171386719 13.246252059936523 37.71421813964844 13.234660148620605 37.70235061645508 C 11.8960599899292 36.539398193359375 10.968059539794922 35.14929962158203 10.89955997467041 33.30924987792969 C 10.860578536987305 32.43056106567383 11.061695098876953 31.55785369873047 11.48130989074707 30.784849166870117 C 11.545459747314453 30.66604995727539 11.606760025024414 30.54560089111328 11.666159629821777 30.424299240112305 C 11.672510147094727 30.411300659179688 11.657259941101074 30.387649536132812 11.648360252380371 30.355899810791016 C 11.518610000610352 30.246349334716797 11.361559867858887 30.316099166870117 11.21716022491455 30.324249267578125 C 10.111087799072266 30.44545555114746 8.992347717285156 30.283946990966797 7.965720176696777 29.85485076904297 C 7.725110054016113 29.7414493560791 7.621510028839111 29.839750289916992 7.4885101318359375 30.010700225830078 C 6.620719909667969 31.125749588012695 6.538060188293457 32.3963508605957 6.739910125732422 33.72404861450195 C 6.820435047149658 34.14386749267578 6.952431678771973 34.552146911621094 7.132909774780273 34.93965148925781 C 7.301025867462158 35.242183685302734 7.219513893127441 35.622413635253906 6.942160129547119 35.82944869995117 C 6.627664566040039 36.054420471191406 6.190341472625732 35.98184585571289 5.965371608734131 35.6673469543457 C 5.928716659545898 35.61610794067383 5.89914608001709 35.56015396118164 5.87746000289917 35.500999450683594 C 5.526695251464844 34.82600021362305 5.324671745300293 34.08366394042969 5.284999847412109 33.32400131225586 C 5.154419422149658 32.075889587402344 5.445054054260254 30.819965362548828 6.110650062561035 29.756099700927734 C 6.137204170227051 29.70646095275879 6.159113883972168 29.65447235107422 6.17609977722168 29.600799560546875 C 6.077149868011475 29.471599578857422 5.964950084686279 29.54814910888672 5.86299991607666 29.566650390625 C 3.8968966007232666 29.937612533569336 1.8729146718978882 29.333017349243164 0.43241000175476074 27.94445037841797 C 0.10900408029556274 27.71752166748047 0.03079368732869625 27.271387100219727 0.2577221989631653 26.947980880737305 C 0.2659546136856079 26.936248779296875 0.27453774213790894 26.924766540527344 0.28345999121665955 26.913549423217773 C 0.5487791895866394 26.621736526489258 1.0004245042800903 26.600257873535156 1.2922381162643433 26.865577697753906 C 1.3040307760238647 26.876298904418945 1.3154611587524414 26.887413024902344 1.326509952545166 26.89889907836914 C 1.9871608018875122 27.475088119506836 2.7593488693237305 27.90911102294922 3.5950000286102295 28.1739501953125 C 4.382121562957764 28.40810775756836 5.218454360961914 28.42146110534668 6.012650012969971 28.212549209594727 C 5.204150199890137 26.056650161743164 5.605500221252441 24.122100830078125 7.116549968719482 22.294599533081055 C 6.636000156402588 22.294599533081055 6.278800010681152 22.293100357055664 5.9215497970581055 22.294849395751953 C 4.453054904937744 22.29421615600586 3.0228421688079834 21.826385498046875 1.8378499746322632 20.959049224853516 C 1.6156444549560547 20.802196502685547 1.4083527326583862 20.625215530395508 1.2186000347137451 20.430349349975586 C 0.9032763242721558 20.188011169433594 0.8441097736358643 19.735937118530273 1.0864477157592773 19.42061424255371 C 1.0935286283493042 19.411401748657227 1.1008315086364746 19.402360916137695 1.1083500385284424 19.39349937438965 C 1.388450026512146 19.087900161743164 1.7523499727249146 19.09174919128418 2.1449999809265137 19.40920066833496 C 2.2657101154327393 19.506750106811523 2.37185001373291 19.623050689697266 2.4960498809814453 19.715450286865234 C 4.003371715545654 20.828210830688477 5.916655540466309 21.238508224487305 7.747710227966309 20.841650009155273 C 7.952300071716309 20.805599212646484 8.11614990234375 20.746549606323242 8.063249588012695 20.468549728393555 C 7.841350078582764 19.302099227905273 8.271949768066406 18.290849685668945 8.849100112915039 17.323999404907227 C 9.047650337219238 16.991300582885742 9.290599822998047 16.685300827026367 9.509099960327148 16.364299774169922 C 9.570159912109375 16.274599075317383 9.691499710083008 16.208749771118164 9.63405990600586 16.02720069885254" stroke-width="1.0" fill="rgb(242, 178, 59)" opacity="1.0"/>
  </g>
</svg>
