<?xml version="1.0" ?>
<svg xmlns="http://www.w3.org/2000/svg" version="1.1" width="600" height="600">
  <defs/>
  <g>
    <path d="M 42.51013946533203 14.523324966430664 C 42.5331916809082 14.147324562072754 42.56874084472656 13.771574974060059 42.575889587402344 13.395275115966797 C 42.57170867919922 13.009990692138672 42.78411865234375 12.654961585998535 43.12559127807617 12.47647476196289 C 43.66973876953125 12.149524688720703 44.22639083862305 11.847575187683105 44.794090270996094 11.564374923706055 C 45.09529113769531 11.414074897766113 45.39154052734375 11.253825187683105 45.68928909301758 11.09677505493164 C 46.05828094482422 10.81520938873291 46.585662841796875 10.886082649230957 46.867225646972656 11.255074501037598 C 46.89138412475586 11.286731719970703 46.91326141357422 11.32006549835205 46.93268966674805 11.354825019836426 C 47.14243698120117 11.61860179901123 47.337852478027344 11.893465995788574 47.518089294433594 12.178224563598633 Q 48.74276351928711 14.11240005493164 49.953941345214844 16.055124282836914 C 50.01950454711914 16.15431022644043 50.07794952392578 16.258020401000977 50.128841400146484 16.365474700927734 C 50.395389556884766 16.96627426147461 50.06949996948242 17.47672462463379 49.415000915527344 17.42147445678711 C 48.68550109863281 17.359874725341797 47.96044158935547 17.240625381469727 47.2352409362793 17.134075164794922 C 46.02003860473633 16.955474853515625 44.805999755859375 16.76857566833496 43.592140197753906 16.580974578857422 C 43.41513442993164 16.561094284057617 43.241127014160156 16.520206451416016 43.07379150390625 16.45917510986328 C 42.700008392333984 16.34173583984375 42.45436096191406 15.984689712524414 42.47829055786133 15.59362506866455 C 42.48944091796875 15.237275123596191 42.48054122924805 14.880325317382812 42.48054122924805 14.523625373840332 L 42.51013946533203 14.523324966430664" stroke-width="1.0" fill="rgb(191, 46, 27)" opacity="1.0"/>
    <path d="M 33.696041107177734 0.0008249999955296516 C 37.09248352050781 0.027238214388489723 40.39611053466797 1.112379550933838 43.146690368652344 3.105074882507324 C 45.39870834350586 4.703030586242676 46.843177795410156 7.202507495880127 47.10334014892578 9.95157527923584 C 47.16889953613281 10.371441841125488 47.00898361206055 10.794868469238281 46.6822395324707 11.066575050354004 C 45.635013580322266 11.951430320739746 44.44261932373047 12.648472785949707 43.15779113769531 13.126874923706055 C 42.85520935058594 13.251301765441895 42.507957458496094 13.189374923706055 42.26704025268555 12.968025207519531 C 41.909034729003906 12.685721397399902 41.565860748291016 12.385103225708008 41.2388916015625 12.067375183105469 C 40.556640625 11.375675201416016 39.8926887512207 10.665724754333496 39.23004150390625 9.95507526397705 C 38.58126449584961 9.229757308959961 37.847286224365234 8.585428237915039 37.04404067993164 8.0360746383667 C 35.69712448120117 7.117345809936523 34.02679443359375 6.805226802825928 32.43899917602539 7.175574779510498 C 30.956716537475586 7.488989353179932 29.81954574584961 8.681319236755371 29.57663917541504 10.176774978637695 C 29.554096221923828 10.473037719726562 29.547103881835938 10.770279884338379 29.55569076538086 11.067275047302246 C 29.546289443969727 11.482925415039062 29.445390701293945 11.604325294494629 29.02618980407715 11.600975036621094 C 28.43153953552246 11.596224784851074 27.83588981628418 11.575374603271484 27.24279022216797 11.532574653625488 C 24.031078338623047 11.351502418518066 20.810049057006836 11.635213851928711 17.679439544677734 12.374924659729004 C 17.250511169433594 12.456521987915039 16.833961486816406 12.593344688415527 16.440189361572266 12.781974792480469 C 16.24041175842285 12.931918144226074 15.960395812988281 12.910346984863281 15.785940170288086 12.731575012207031 C 15.576140403747559 12.50107479095459 15.656940460205078 12.260725021362305 15.810500144958496 12.025824546813965 C 16.264814376831055 11.35125732421875 16.75708770751953 10.703045845031738 17.284940719604492 10.084324836730957 C 19.52130699157715 7.266831874847412 22.187171936035156 4.818865776062012 25.184690475463867 2.830275058746338 C 26.867332458496094 1.7014195919036865 28.726816177368164 0.8617351651191711 30.686290740966797 0.3459250032901764 C 31.67138671875 0.10674989223480225 32.682373046875 -0.00917041301727295 33.696041107177734 0.0008249999955296516" stroke-width="1.0" fill="rgb(210, 226, 232)" opacity="1.0"/>
    <path d="M 43.95309066772461 20.59757423400879 C 43.5873908996582 19.20095443725586 43.40983963012695 17.761749267578125 43.425140380859375 16.318124771118164 C 43.425140380859375 15.98027515411377 43.41584014892578 15.662474632263184 43.426841735839844 15.345325469970703 C 43.47080612182617 14.565499305725098 43.24537658691406 13.794260025024414 42.7883415222168 13.16087532043457 C 39.79618835449219 15.72592544555664 35.55533981323242 14.974724769592285 32.164039611816406 16.782075881958008 C 32.17879104614258 16.800575256347656 32.192840576171875 16.81952476501465 32.2076416015625 16.838024139404297 C 32.95164108276367 17.768075942993164 33.67649841308594 18.712575912475586 34.343788146972656 19.69907569885254 C 35.046348571777344 20.68645477294922 35.612266540527344 21.764240264892578 36.02619171142578 22.903175354003906 C 36.986263275146484 25.757352828979492 37.225196838378906 28.80474281311035 36.7216911315918 31.7736759185791 C 35.97978973388672 36.17485046386719 34.211463928222656 40.33934020996094 31.559999465942383 43.9296760559082 C 30.17325210571289 45.971675872802734 28.40770149230957 47.728736877441406 26.359039306640625 49.10562515258789 C 26.142730712890625 49.24626159667969 25.941970825195312 49.40947723388672 25.76013946533203 49.592525482177734 C 25.550674438476562 49.79218673706055 25.493608474731445 50.10402297973633 25.618789672851562 50.364925384521484 C 25.716510772705078 50.63317108154297 25.953147888183594 50.82646179199219 26.23550033569336 50.868675231933594 C 26.413450241088867 50.88642501831055 26.5931453704834 50.871429443359375 26.765689849853516 50.824424743652344 C 27.710216522216797 50.59062957763672 28.62013816833496 50.23439407348633 29.472339630126953 49.764774322509766 C 31.99601936340332 48.45655822753906 34.29948806762695 46.761566162109375 36.299190521240234 44.741275787353516 C 39.27516555786133 41.885215759277344 41.541175842285156 38.372108459472656 42.91584014892578 34.48317337036133 C 44.4603385925293 29.93822479248047 44.95783996582031 25.331674575805664 43.95309066772461 20.59757423400879" stroke-width="1.0" fill="rgb(232, 130, 105)" opacity="1.0"/>
    <path d="M 42.23273849487305 12.544875144958496 C 41.489627838134766 11.857029914855957 40.814510345458984 11.099196434020996 40.216739654541016 10.281874656677246 C 39.361961364746094 9.05699348449707 38.26169967651367 8.02334213256836 36.98588943481445 7.246624946594238 C 35.32550811767578 6.186707496643066 33.23207473754883 6.071111679077148 31.465089797973633 6.941774845123291 C 30.103303909301758 7.579514503479004 29.170303344726562 8.878573417663574 29.000940322875977 10.372724533081055 C 28.922176361083984 11.24969482421875 29.118667602539062 12.129412651062012 29.56308937072754 12.889525413513184 C 30.288515090942383 14.276238441467285 31.160478591918945 15.581208229064941 32.164039611816406 16.782075881958008 C 35.55533981323242 14.974724769592285 39.79618835449219 15.72592544555664 42.7883415222168 13.16087532043457 C 42.62510681152344 12.936744689941406 42.43889617919922 12.730289459228516 42.23273849487305 12.544875144958496" stroke-width="1.0" fill="rgb(210, 226, 232)" opacity="1.0"/>
    <path d="M 2.978940010070801 50.02357482910156 C 3.0937399864196777 46.71317672729492 3.1862399578094482 43.40042495727539 3.469939947128296 40.099876403808594 C 3.8677260875701904 35.8529167175293 4.6725897789001465 31.65399742126465 5.873439788818359 27.56097412109375 C 6.550248146057129 24.990007400512695 7.484800338745117 22.49390983581543 8.662890434265137 20.110624313354492 C 10.168334007263184 17.196943283081055 12.131251335144043 14.543509483337402 14.476889610290527 12.251375198364258 C 14.958219528198242 11.80753231048584 15.474245071411133 11.402861595153809 16.02004051208496 11.04122543334961 C 16.312843322753906 10.832173347473145 16.659799575805664 10.712145805358887 17.019189834594727 10.695574760437012 C 17.463600158691406 10.612391471862793 17.891298294067383 10.90522289276123 17.974483489990234 11.349632263183594 C 18.01405143737793 11.561022758483887 17.96884536743164 11.77949333190918 17.84864044189453 11.95782470703125 C 17.761180877685547 12.135799407958984 17.653305053710938 12.302990913391113 17.527189254760742 12.456025123596191 C 13.524789810180664 17.383024215698242 11.160440444946289 23.056074142456055 9.84823989868164 29.218374252319336 C 9.159526824951172 32.437705993652344 8.718420028686523 35.70506286621094 8.528790473937988 38.99177551269531 C 8.420439720153809 40.8922233581543 8.354439735412598 42.79597473144531 8.201390266418457 44.69277572631836 C 7.923280239105225 48.07891082763672 7.091376781463623 51.396461486816406 5.738840103149414 54.51317596435547 C 5.449190139770508 55.18692398071289 5.145689964294434 55.85482406616211 4.841139793395996 56.52202606201172 C 4.742201805114746 56.761024475097656 4.601602077484131 56.98054885864258 4.42588996887207 57.17037582397461 C 4.12489128112793 57.504512786865234 3.610011577606201 57.531375885009766 3.275874376296997 57.230377197265625 C 3.164801836013794 57.13032150268555 3.0834171772003174 57.001617431640625 3.040640115737915 56.858375549316406 C 2.970804214477539 56.63017272949219 2.942641496658325 56.391258239746094 2.9574999809265137 56.153076171875 C 2.9688899517059326 54.10992431640625 2.904639959335327 52.06647491455078 2.978940010070801 50.02357482910156" stroke-width="1.0" fill="rgb(82, 108, 122)" opacity="1.0"/>
    <path d="M 10.08113956451416 79.7198715209961 C 9.88424015045166 80.07632446289062 9.753339767456055 80.31167602539062 9.623889923095703 80.5478744506836 C 9.22035026550293 81.29959106445312 8.77495002746582 82.02806854248047 8.289790153503418 82.72987365722656 C 8.048413276672363 83.09500885009766 7.746774196624756 83.41649627685547 7.397739887237549 83.68062591552734 C 6.904253959655762 84.12098693847656 6.147221565246582 84.07791900634766 5.7068610191345215 83.58443450927734 C 5.632104873657227 83.50065612792969 5.5695013999938965 83.40678405761719 5.520890235900879 83.30557250976562 C 5.294255256652832 82.90821075439453 5.149476528167725 82.469482421875 5.095089912414551 82.01527404785156 C 4.9202351570129395 80.61566925048828 4.94003963470459 79.19859313964844 5.153940200805664 77.80442810058594 C 5.2006707191467285 77.59838104248047 5.20805025100708 77.38536071777344 5.175690174102783 77.17657470703125 C 4.9931488037109375 77.40693664550781 4.84602689743042 77.66326141357422 4.739190101623535 77.93707275390625 C 4.149181365966797 79.15055084228516 3.470965623855591 80.31912231445312 2.7100000381469727 81.4333724975586 C 2.501779079437256 81.74852752685547 2.2472119331359863 82.03046417236328 1.9548900127410889 82.2696762084961 C 1.520928978919983 82.693603515625 0.8254700899124146 82.68547821044922 0.401539146900177 82.25151062011719 C 0.22802859544754028 82.07389831542969 0.11981312185525894 81.84273529052734 0.09453999996185303 81.5957260131836 C -0.04299234226346016 80.81122589111328 -0.01857505738735199 80.00688934326172 0.16629000008106232 79.232177734375 C 0.6539993286132812 76.72078704833984 1.2905247211456299 74.24059295654297 2.072499990463257 71.80472564697266 C 3.391390085220337 67.46067810058594 4.818689823150635 63.150123596191406 6.096889972686768 58.79352569580078 C 6.610340118408203 57.04352569580078 7.081999778747559 55.2807731628418 7.624390125274658 53.53987503051758 C 8.134952545166016 51.86578369140625 8.279135704040527 50.10139846801758 8.047140121459961 48.36662673950195 C 7.803790092468262 46.35737609863281 7.716000080108643 44.33432388305664 7.5963897705078125 42.31462478637695 C 7.453709125518799 40.01625061035156 7.462210655212402 37.71098327636719 7.621840000152588 35.413726806640625 C 7.943893909454346 29.836959838867188 9.269989013671875 24.36412811279297 11.53633975982666 19.258474349975586 C 12.206916809082031 17.86343002319336 12.99379825592041 16.527339935302734 13.888640403747559 15.264374732971191 C 15.2261323928833 13.255971908569336 17.327028274536133 11.88215446472168 19.703189849853516 11.462124824523926 C 22.32892608642578 10.92459487915039 25.0054988861084 10.675318717956543 27.685340881347656 10.718725204467773 C 27.86379051208496 10.722274780273438 28.04228973388672 10.732475280761719 28.220439910888672 10.744524955749512 C 28.88426971435547 10.764381408691406 29.500993728637695 11.092243194580078 29.88874053955078 11.631424903869629 C 31.146240234375 13.320674896240234 32.60403823852539 14.84107494354248 33.987091064453125 16.424524307250977 C 34.45684051513672 16.962324142456055 34.928001403808594 17.500825881958008 35.36473846435547 18.065174102783203 C 37.20973587036133 20.45075035095215 38.32339096069336 23.32015037536621 38.5707893371582 26.325775146484375 C 38.81605911254883 28.799705505371094 38.64767074584961 31.297208786010742 38.072540283203125 33.715824127197266 C 37.507076263427734 35.88951110839844 36.631343841552734 37.97037887573242 35.47233963012695 39.8942756652832 C 32.389251708984375 45.2399787902832 28.256521224975586 49.906673431396484 23.322839736938477 53.613525390625 C 22.2504825592041 54.4324951171875 21.134618759155273 55.19287109375 19.980140686035156 55.891326904296875 C 19.57965850830078 56.10849380493164 19.31986427307129 56.51722717285156 19.29323959350586 56.97202682495117 C 19.065340042114258 58.822025299072266 18.807939529418945 60.668426513671875 18.553739547729492 62.5151252746582 C 17.80183982849121 67.97787475585938 17.000539779663086 73.43132781982422 15.468790054321289 78.74607849121094 C 15.11395263671875 79.98528289794922 14.688098907470703 81.20304870605469 14.193340301513672 82.39332580566406 C 13.976930618286133 82.97012329101562 13.675168991088867 83.51116180419922 13.298139572143555 83.99837493896484 C 12.52029037475586 84.934326171875 11.496089935302734 84.86222839355469 10.86238956451416 83.81727600097656 C 10.47658634185791 83.12010192871094 10.254735946655273 82.34416961669922 10.213689804077148 81.54842376708984 C 10.159440040588379 80.986572265625 10.130999565124512 80.42227172851562 10.08113956451416 79.7198715209961" stroke-width="1.0" fill="rgb(210, 226, 232)" opacity="1.0"/>
    <path d="M 39.50339126586914 29.37150001525879 C 39.447425842285156 32.873016357421875 38.572479248046875 36.312801361083984 36.94858932495117 39.41550064086914 C 34.80274963378906 43.57331848144531 31.809524536132812 47.235382080078125 28.161840438842773 50.1656494140625 C 26.62230682373047 51.417510986328125 24.995685577392578 52.55828857421875 23.29429054260254 53.579349517822266 Q 19.323640823364258 55.981224060058594 15.35103988647461 58.3797492980957 C 14.982258796691895 58.612693786621094 14.599577903747559 58.822872161865234 14.205140113830566 59.00910186767578 C 13.885004043579102 59.22911071777344 13.44713020324707 59.14794158935547 13.227121353149414 58.82780456542969 C 13.12514877319336 58.67942428588867 13.08396053314209 58.497589111328125 13.112039566040039 58.31975173950195 C 13.112531661987305 57.84355545043945 13.14586067199707 57.367958068847656 13.211790084838867 56.8963508605957 C 14.14016342163086 48.61600112915039 15.766090393066406 40.4288330078125 18.072240829467773 32.42210006713867 C 18.736413955688477 30.11512565612793 19.62091827392578 27.87737464904785 20.713539123535156 25.739749908447266 C 22.136829376220703 22.89579963684082 24.41919708251953 20.57200813293457 27.237089157104492 19.09779930114746 C 29.20640754699707 18.02932357788086 31.240934371948242 17.08568000793457 33.32863998413086 16.272449493408203 C 33.43986892700195 16.231237411499023 33.54832458496094 16.182905197143555 33.65333938598633 16.127750396728516 C 33.92070388793945 15.96589183807373 34.26667022705078 16.027664184570312 34.46149826049805 16.272050857543945 C 34.72694396972656 16.53961944580078 34.978023529052734 16.821063995361328 35.21369171142578 17.11520004272461 C 37.95421600341797 20.61679458618164 39.46214294433594 24.92515754699707 39.50339126586914 29.37150001525879" stroke-width="1.0" fill="rgb(82, 108, 122)" opacity="1.0"/>
    <path d="M 44.264190673828125 13.595274925231934 C 44.3648567199707 13.61602783203125 44.46424102783203 13.64258861541748 44.56184005737305 13.674824714660645 C 46.29150390625 14.259267807006836 47.94587326049805 15.04648208618164 49.49039077758789 16.0200252532959 C 49.65901565551758 16.124038696289062 49.81573486328125 16.246217727661133 49.957740783691406 16.384374618530273 C 50.166717529296875 16.587345123291016 50.19443130493164 16.91317367553711 50.02273941040039 17.14852523803711 C 49.84812545776367 17.406972885131836 49.50472640991211 17.48872184753418 49.232391357421875 17.3366756439209 C 49.14303970336914 17.293834686279297 49.05759811401367 17.243276596069336 48.9770393371582 17.185575485229492 C 47.49993133544922 16.217329025268555 45.9229621887207 15.410773277282715 44.273338317871094 14.779825210571289 C 44.12498474121094 14.724532127380371 43.983821868896484 14.651591300964355 43.85289001464844 14.562575340270996 C 43.64094543457031 14.431026458740234 43.55453872680664 14.165958404541016 43.64823913574219 13.934775352478027 C 43.74837875366211 13.691025733947754 44.0046272277832 13.549785614013672 44.264190673828125 13.595274925231934" stroke-width="1.0" fill="rgb(0, 0, 0)" opacity="1.0"/>
    <path d="M 43.2280387878418 26.495824813842773 C 43.2280387878418 26.87197494506836 43.23194122314453 27.2481746673584 43.22603988647461 27.624225616455078 C 43.22806167602539 27.762948989868164 43.212677001953125 27.90138053894043 43.180240631103516 28.03627586364746 C 43.112640380859375 28.348236083984375 42.8049430847168 28.546327590942383 42.49298095703125 28.478727340698242 C 42.258907318115234 28.428003311157227 42.08037185668945 28.23816680908203 42.044090270996094 28.00142478942871 C 42.022037506103516 27.884456634521484 42.01658248901367 27.764965057373047 42.027889251708984 27.646474838256836 Q 42.1009407043457 26.48892593383789 42.18299865722656 25.332075119018555 C 42.188438415527344 25.25287437438965 42.20014190673828 25.17422866821289 42.21799850463867 25.096874237060547 C 42.237064361572266 24.793973922729492 42.498069763183594 24.563879013061523 42.800968170166016 24.582944869995117 C 43.1038703918457 24.602008819580078 43.33396530151367 24.863012313842773 43.31489944458008 25.165912628173828 C 43.3144416809082 25.173194885253906 43.313838958740234 25.18046760559082 43.31309127807617 25.187725067138672 C 43.332191467285156 25.622974395751953 43.317588806152344 26.059675216674805 43.317588806152344 26.495725631713867 L 43.2280387878418 26.495824813842773" stroke-width="1.0" fill="rgb(255, 255, 255)" opacity="1.0"/>
    <path d="M 39.26068878173828 22.417274475097656 C 39.26763916015625 21.996925354003906 39.44063949584961 21.757675170898438 39.718040466308594 21.723825454711914 C 39.98723602294922 21.67313575744629 40.249671936035156 21.839706420898438 40.318389892578125 22.104875564575195 C 40.54174041748047 22.844274520874023 40.75239181518555 23.588525772094727 40.9322395324707 24.33942413330078 C 41.016456604003906 24.633506774902344 40.8463249206543 24.940176010131836 40.552242279052734 25.024391174316406 C 40.542972564697266 25.02704620361328 40.533634185791016 25.029457092285156 40.52423858642578 25.031625747680664 C 40.24252700805664 25.120576858520508 39.941532135009766 24.967151641845703 39.847999572753906 24.686925888061523 C 39.597190856933594 23.945695877075195 39.40089797973633 23.187124252319336 39.26068878173828 22.417274475097656" stroke-width="1.0" fill="rgb(255, 255, 255)" opacity="1.0"/>
    <path d="M 36.228538513183594 15.923874855041504 C 36.00566101074219 15.927116394042969 35.79788589477539 15.811544418334961 35.68309020996094 15.620474815368652 C 35.33768844604492 15.067774772644043 34.98453903198242 14.519274711608887 34.660499572753906 13.954174995422363 C 34.48614501953125 13.695513725280762 34.55448913574219 13.344483375549316 34.813148498535156 13.170127868652344 C 34.81404495239258 13.169524192810059 34.81494140625 13.168923377990723 34.81584167480469 13.168325424194336 C 35.06542205810547 13.017643928527832 35.38892364501953 13.084378242492676 35.55849838256836 13.321524620056152 C 35.95658874511719 13.88587474822998 36.34600067138672 14.459725379943848 36.689239501953125 15.058175086975098 C 36.85622787475586 15.320815086364746 36.778690338134766 15.669098854064941 36.516048431396484 15.836088180541992 C 36.429927825927734 15.890843391418457 36.33055877685547 15.921185493469238 36.228538513183594 15.923874855041504" stroke-width="1.0" fill="rgb(255, 255, 255)" opacity="1.0"/>
    <path d="M 42.85289001464844 20.956174850463867 C 42.857460021972656 21.046348571777344 42.85696029663086 21.136707305908203 42.85139083862305 21.226825714111328 C 42.842247009277344 21.49468421936035 42.63979721069336 21.7161865234375 42.37384033203125 21.749324798583984 C 42.105587005615234 21.795635223388672 41.84614562988281 21.630220413208008 41.774940490722656 21.367475509643555 C 41.58423614501953 20.66240692138672 41.48101043701172 19.936553955078125 41.46759033203125 19.206275939941406 C 41.45615768432617 18.92608070373535 41.674034118652344 18.689668655395508 41.954227447509766 18.678237915039062 C 41.968326568603516 18.677661895751953 41.98244094848633 18.677675247192383 41.99654006958008 18.678274154663086 C 42.2902717590332 18.662118911743164 42.543025970458984 18.883750915527344 42.565391540527344 19.177074432373047 C 42.680389404296875 19.77782440185547 42.7623405456543 20.384925842285156 42.85289001464844 20.956174850463867" stroke-width="1.0" fill="rgb(255, 255, 255)" opacity="1.0"/>
    <path d="M 39.76618957519531 14.749025344848633 C 39.79271697998047 15.017439842224121 39.619239807128906 15.264994621276855 39.35789108276367 15.331674575805664 C 39.10025405883789 15.42636775970459 38.81418991088867 15.297708511352539 38.714088439941406 15.04212474822998 C 38.448638916015625 14.425724983215332 38.21059036254883 13.796074867248535 37.99433898925781 13.160574913024902 C 37.90740203857422 12.902326583862305 38.03886795043945 12.621360778808594 38.29283905029297 12.522624969482422 C 38.51555633544922 12.415129661560059 38.78300476074219 12.475800514221191 38.937538146972656 12.668874740600586 C 39.297916412353516 13.325699806213379 39.57621765136719 14.024317741394043 39.76618957519531 14.749025344848633" stroke-width="1.0" fill="rgb(255, 255, 255)" opacity="1.0"/>
    <path d="M 40.252540588378906 36.743125915527344 C 40.14899826049805 37.19212341308594 40.038089752197266 37.77392578125 39.87543869018555 38.34087371826172 C 39.81393051147461 38.63435363769531 39.52615737915039 38.82240295410156 39.2326774597168 38.76089096069336 C 39.21871566772461 38.757965087890625 39.20487594604492 38.75448989868164 39.19118881225586 38.7504768371582 C 38.903141021728516 38.69752502441406 38.712554931640625 38.421085357666016 38.765506744384766 38.13303756713867 C 38.76944351196289 38.11161422729492 38.77470016479492 38.0904541015625 38.7812385559082 38.06967544555664 C 38.884891510009766 37.508426666259766 39.02524185180664 36.9526252746582 39.17789077758789 36.40227508544922 C 39.219871520996094 36.1009635925293 39.4981689453125 35.8907356262207 39.79948043823242 35.932716369628906 C 39.80862045288086 35.933990478515625 39.817726135253906 35.93549346923828 39.82678985595703 35.937225341796875 C 40.12559127807617 35.99599838256836 40.273338317871094 36.22700119018555 40.252540588378906 36.743125915527344" stroke-width="1.0" fill="rgb(255, 255, 255)" opacity="1.0"/>
    <path d="M 39.23543930053711 19.009674072265625 C 39.2301025390625 19.32252311706543 38.972164154052734 19.57181167602539 38.6593132019043 19.56647491455078 C 38.467830657958984 19.563207626342773 38.290958404541016 19.46342658996582 38.18914031982422 19.301225662231445 C 38.06108856201172 19.07846450805664 37.968563079833984 18.837099075317383 37.91489028930664 18.585824966430664 C 37.80763244628906 18.26824951171875 37.71873474121094 17.944765090942383 37.64863967895508 17.616975784301758 C 37.599700927734375 17.350488662719727 37.76502227783203 17.091487884521484 38.027339935302734 17.0236759185791 C 38.26158142089844 16.94722557067871 38.51774597167969 17.040637969970703 38.647789001464844 17.24992561340332 C 38.889278411865234 17.820281982421875 39.085758209228516 18.408660888671875 39.23543930053711 19.009674072265625" stroke-width="1.0" fill="rgb(255, 255, 255)" opacity="1.0"/>
    <path d="M 40.34003829956055 31.570175170898438 C 40.34608459472656 31.314319610595703 40.36549377441406 31.0589542388916 40.398189544677734 30.805124282836914 C 40.40873336791992 30.497169494628906 40.66693115234375 30.25606918334961 40.974884033203125 30.26661491394043 C 41.282840728759766 30.277158737182617 41.52394104003906 30.535354614257812 41.513397216796875 30.84330940246582 C 41.51298522949219 30.855321884155273 41.512184143066406 30.8673152923584 41.51100158691406 30.879274368286133 C 41.52313232421875 31.332101821899414 41.506309509277344 31.785242080688477 41.46063995361328 32.235923767089844 C 41.46418762207031 32.53964614868164 41.220848083496094 32.78873062133789 40.91712951660156 32.79227828979492 C 40.90764617919922 32.792388916015625 40.898162841796875 32.79225540161133 40.88869094848633 32.791873931884766 C 40.56058883666992 32.787376403808594 40.35469055175781 32.561073303222656 40.330841064453125 32.16112518310547 C 40.319190979003906 31.964874267578125 40.32883834838867 31.767425537109375 40.32883834838867 31.57047462463379 L 40.34003829956055 31.570175170898438" stroke-width="1.0" fill="rgb(255, 255, 255)" opacity="1.0"/>
    <path d="M 12.056139945983887 79.25092315673828 C 12.232139587402344 77.87862396240234 12.481289863586426 76.59412384033203 12.748390197753906 75.31307220458984 Q 13.96826457977295 69.46232604980469 15.195240020751953 63.613075256347656 C 15.221104621887207 63.457244873046875 15.263200759887695 63.30454635620117 15.320839881896973 63.157474517822266 C 15.407546043395996 62.92404556274414 15.648664474487305 62.78590774536133 15.893890380859375 62.82917404174805 C 16.16219139099121 62.868446350097656 16.359766006469727 63.10059356689453 16.355640411376953 63.37172317504883 C 16.349143981933594 63.58967208862305 16.32337760925293 63.806617736816406 16.278640747070312 64.02002716064453 C 15.78499984741211 66.95267486572266 15.233739852905273 69.87382507324219 14.580240249633789 72.77592468261719 C 14.096890449523926 74.92247772216797 13.635000228881836 77.07427215576172 13.316840171813965 79.25352478027344 C 13.311090469360352 79.29277801513672 13.30879020690918 79.33262634277344 13.301090240478516 79.37147521972656 C 13.209139823913574 79.83617401123047 12.955240249633789 80.07987213134766 12.610589981079102 80.03507232666016 C 12.245543479919434 79.96443939208984 12.001036643981934 79.61863708496094 12.056139945983887 79.25092315673828" stroke-width="1.0" fill="rgb(82, 108, 122)" opacity="1.0"/>
    <path d="M 12.555000305175781 63.60112380981445 C 12.53419017791748 63.69707489013672 12.509039878845215 63.81327438354492 12.48388957977295 63.929473876953125 C 11.54874038696289 68.24947357177734 10.476739883422852 72.5364761352539 9.373290061950684 76.81582641601562 C 9.23678970336914 77.34507751464844 8.948240280151367 77.59922790527344 8.583000183105469 77.5207748413086 C 8.177889823913574 77.43377685546875 8.014039993286133 77.07962799072266 8.154840469360352 76.51702880859375 C 8.73684024810791 74.19087219238281 9.338689804077148 71.86967468261719 9.911840438842773 69.54132843017578 C 10.37129020690918 67.6749267578125 10.789999961853027 65.79842376708984 11.297439575195312 63.94392395019531 C 11.351676940917969 63.73299789428711 11.420612335205078 63.526126861572266 11.503740310668945 63.324825286865234 C 11.599204063415527 63.06986999511719 11.87486457824707 62.931396484375 12.13638973236084 63.00702667236328 C 12.405229568481445 63.07196807861328 12.584299087524414 63.326107025146484 12.555000305175781 63.60112380981445" stroke-width="1.0" fill="rgb(82, 108, 122)" opacity="1.0"/>
    <path d="M 39.98244094848633 8.548274993896484 C 39.95561218261719 7.860158443450928 40.48111343383789 7.275580406188965 41.168190002441406 7.229225158691406 C 41.79309844970703 7.24731969833374 42.2863883972168 7.766149520874023 42.27294158935547 8.391175270080566 C 42.28114700317383 9.055225372314453 41.77537155151367 9.613003730773926 41.11368942260742 9.669625282287598 C 40.50924301147461 9.689794540405273 40.00288772583008 9.216142654418945 39.98271942138672 8.6116943359375 C 39.98201370239258 8.590561866760254 39.9819221496582 8.569413185119629 39.98244094848633 8.548274993896484" stroke-width="1.0" fill="rgb(0, 0, 0)" opacity="1.0"/>
    <path d="M 24.40593910217285 35.096073150634766 C 24.20212173461914 35.234046936035156 24.029924392700195 35.413726806640625 23.900739669799805 35.623226165771484 C 23.181026458740234 36.546302795410156 22.407747268676758 37.42633056640625 21.584890365600586 38.25877380371094 C 21.19826889038086 38.659088134765625 20.7508602142334 38.99583435058594 20.25918960571289 39.25657653808594 C 19.205339431762695 39.780826568603516 18.354389190673828 39.363773345947266 18.1299991607666 38.21422576904297 C 18.064435958862305 37.84212875366211 18.060800552368164 37.46175765991211 18.119239807128906 37.08847427368164 C 18.241497039794922 36.18383026123047 18.471012115478516 35.296958923339844 18.802940368652344 34.44657516479492 C 18.831790924072266 34.37272644042969 18.862390518188477 34.29952621459961 18.893999099731445 34.22682571411133 C 19.113590240478516 33.721923828125 19.390390396118164 33.546775817871094 19.72859001159668 33.69807434082031 C 20.052139282226562 33.8427734375 20.135690689086914 34.13237380981445 19.95673942565918 34.61822509765625 C 19.640790939331055 35.453495025634766 19.432743072509766 36.32567596435547 19.3376407623291 37.213626861572266 C 19.305889129638672 37.53227615356445 19.21169090270996 37.95137405395508 19.464139938354492 38.109073638916016 C 19.75473976135254 38.290626525878906 20.026039123535156 37.925376892089844 20.27058982849121 37.7420768737793 C 20.643333435058594 37.4453239440918 20.987043380737305 37.113834381103516 21.297090530395508 36.7520751953125 C 22.432418823242188 35.504844665527344 23.474401473999023 34.17573928833008 24.41459083557129 32.7755241394043 C 24.569040298461914 32.54512405395508 24.725339889526367 32.31452560424805 24.899499893188477 32.09917449951172 C 25.050317764282227 31.876243591308594 25.332033157348633 31.782350540161133 25.58643913269043 31.87022590637207 C 25.861112594604492 31.955005645751953 26.05442237854004 32.201229095458984 26.071590423583984 32.48817443847656 C 26.083768844604492 32.72607421875 26.061521530151367 32.96448516845703 26.00554084777832 33.19602584838867 C 25.8067626953125 34.04603576660156 25.697467803955078 34.91451644897461 25.679439544677734 35.78727340698242 C 25.677265167236328 36.00527572631836 25.69505500793457 36.223018646240234 25.732589721679688 36.437774658203125 C 25.759660720825195 36.83818054199219 26.106201171875 37.140830993652344 26.506607055664062 37.1137580871582 C 26.608112335205078 37.106895446777344 26.70704460144043 37.07879638671875 26.797000885009766 37.03127670288086 C 27.076385498046875 36.926937103271484 27.334638595581055 36.77301788330078 27.55933952331543 36.57692337036133 C 28.016895294189453 36.19550323486328 28.42998695373535 35.763710021972656 28.790790557861328 35.28972625732422 C 29.80564308166504 34.01721954345703 30.678218841552734 32.63749313354492 31.392940521240234 31.175174713134766 C 31.514190673828125 30.92572593688965 31.634740829467773 30.674774169921875 31.77528953552246 30.436124801635742 C 31.909862518310547 30.17768669128418 32.21115493774414 30.053916931152344 32.48854064941406 30.143125534057617 C 32.74674987792969 30.21184539794922 32.932395935058594 30.437557220458984 32.95000076293945 30.70417594909668 C 32.969356536865234 30.921592712402344 32.95372009277344 31.140708923339844 32.903690338134766 31.353174209594727 C 32.72932815551758 32.12907409667969 32.70762634277344 32.931488037109375 32.83979034423828 33.715675354003906 C 32.88298416137695 33.92955780029297 32.957218170166016 34.1359748840332 33.06013870239258 34.32837677001953 C 33.18609619140625 34.657508850097656 33.55501937866211 34.82221984863281 33.8841552734375 34.69626235961914 C 33.946266174316406 34.67249298095703 34.004276275634766 34.63916015625 34.05609130859375 34.59747314453125 C 34.44596862792969 34.35797119140625 34.789642333984375 34.05036926269531 35.07073974609375 33.68932342529297 C 35.58470153808594 33.05714797973633 35.99282455444336 32.345863342285156 36.279239654541016 31.5831241607666 C 36.58869171142578 30.78907585144043 36.891639709472656 29.99257469177246 37.20058822631836 29.19832420349121 C 37.25180435180664 29.048416137695312 37.318267822265625 28.90416145324707 37.39894104003906 28.767824172973633 C 37.547096252441406 28.5185546875 37.853580474853516 28.412689208984375 38.124000549316406 28.517375946044922 C 38.39088439941406 28.626148223876953 38.549068450927734 28.903026580810547 38.507240295410156 29.188175201416016 C 38.47934341430664 29.344209671020508 38.433902740478516 29.496593475341797 38.37179183959961 29.642425537109375 C 38.03879165649414 30.51242446899414 37.70758819580078 31.383174896240234 37.363590240478516 32.248775482177734 C 37.03992462158203 33.061004638671875 36.59221649169922 33.8181037902832 36.036441802978516 34.49307632446289 C 35.67762756347656 34.944435119628906 35.24648666381836 35.33320617675781 34.76054000854492 35.64357376098633 C 33.924278259277344 36.260467529296875 32.74626159667969 36.082637786865234 32.12936782836914 35.246376037597656 C 32.039608001708984 35.124698638916016 31.96484375 34.992645263671875 31.90669059753418 34.85307312011719 C 31.75510597229004 34.48485565185547 31.6280460357666 34.107017517089844 31.52634048461914 33.72202682495117 C 31.320640563964844 33.80122375488281 31.270389556884766 33.98262405395508 31.17799949645996 34.120826721191406 C 30.586030960083008 35.0374641418457 29.92902183532715 35.910423278808594 29.212039947509766 36.732975006103516 C 28.84409523010254 37.149871826171875 28.426410675048828 37.52006912231445 27.968339920043945 37.83527374267578 C 27.625308990478516 38.07368850708008 27.238040924072266 38.241058349609375 26.8293399810791 38.3275260925293 C 25.89803695678711 38.53359603881836 24.95787811279297 38.01913833618164 24.62933921813965 37.12367630004883 C 24.482141494750977 36.733009338378906 24.406599044799805 36.319000244140625 24.406339645385742 35.90152359008789 C 24.404090881347656 35.664825439453125 24.40593910217285 35.42802429199219 24.40593910217285 35.096073150634766" stroke-width="1.0" fill="rgb(255, 255, 255)" opacity="1.0"/>
    <path d="M 30.004640579223633 38.35737609863281 C 29.989601135253906 38.53763198852539 29.928327560424805 38.71096420288086 29.826740264892578 38.860626220703125 C 26.63621711730957 45.01320266723633 22.621267318725586 50.70176696777344 17.892940521240234 55.76897430419922 C 17.764814376831055 55.919944763183594 17.61747932434082 56.053497314453125 17.45469093322754 56.16622543334961 C 17.17414665222168 56.34095001220703 16.80508041381836 56.25516891479492 16.630355834960938 55.97462463378906 C 16.511531829833984 55.783836364746094 16.509634017944336 55.54255676269531 16.62544059753418 55.34992599487305 C 16.708009719848633 55.21474838256836 16.806257247924805 55.08980178833008 16.918140411376953 54.97767639160156 C 21.53774070739746 50.11332321166992 25.251340866088867 44.59787368774414 28.558940887451172 38.79017639160156 C 28.708314895629883 38.510746002197266 28.875181198120117 38.24102783203125 29.05854034423828 37.98262405395508 C 29.202606201171875 37.77644729614258 29.47873306274414 37.711692810058594 29.699440002441406 37.83232498168945 C 29.9070987701416 37.91944885253906 30.03170394897461 38.133811950683594 30.004640579223633 38.35737609863281" stroke-width="1.0" fill="rgb(255, 255, 255)" opacity="1.0"/>
    <path d="M 34.80659103393555 37.89622497558594 C 34.738590240478516 38.06592559814453 34.64934158325195 38.307525634765625 34.54618835449219 38.543025970458984 C 33.723907470703125 40.4371223449707 32.712867736816406 42.24354553222656 31.528390884399414 43.9349250793457 C 29.491785049438477 46.9201774597168 27.198928833007812 49.722293853759766 24.675840377807617 52.30947494506836 C 24.5098819732666 52.507476806640625 24.312463760375977 52.67680740356445 24.09149932861328 52.81067657470703 C 23.809961318969727 52.98870849609375 23.437406539916992 52.9047966003418 23.259374618530273 52.623260498046875 C 23.114547729492188 52.39423370361328 23.140241622924805 52.09673309326172 23.322189331054688 51.89592361450195 C 23.41273307800293 51.790748596191406 23.509511947631836 51.69110107421875 23.61199951171875 51.59752655029297 C 26.763635635375977 48.400814056396484 29.5440616607666 44.85830307006836 31.900390625 41.037376403808594 C 32.54174041748047 39.98754119873047 33.12187576293945 38.901512145996094 33.63788986206055 37.784725189208984 C 33.69088363647461 37.65660858154297 33.75452423095703 37.53316116333008 33.82814025878906 37.41567611694336 C 33.959068298339844 37.20364761352539 34.22208023071289 37.11441421508789 34.45500183105469 37.202999114990234 C 34.727195739746094 37.31566619873047 34.876502990722656 37.610050201416016 34.80659103393555 37.89622497558594" stroke-width="1.0" fill="rgb(255, 255, 255)" opacity="1.0"/>
    <path d="M 15.328089714050293 53.74992370605469 C 15.337148666381836 53.57530212402344 15.39885425567627 53.407508850097656 15.50508975982666 53.26862335205078 C 17.98660659790039 49.11284637451172 20.239246368408203 44.82460403442383 22.252939224243164 40.42307662963867 C 22.37274742126465 40.150936126708984 22.510068893432617 39.88684844970703 22.664039611816406 39.632476806640625 C 22.795635223388672 39.393550872802734 23.091379165649414 39.299659729003906 23.33669090270996 39.41892623901367 C 23.608354568481445 39.52932357788086 23.7426700592041 39.836002349853516 23.639589309692383 40.11052322387695 C 23.604467391967773 40.2242317199707 23.560861587524414 40.33514404296875 23.509140014648438 40.442325592041016 C 21.57554054260254 44.966861724853516 19.33159637451172 49.35237503051758 16.7933406829834 53.56752395629883 C 16.677045822143555 53.797916412353516 16.52896499633789 54.01082992553711 16.353439331054688 54.20002365112305 C 16.162662506103516 54.388458251953125 15.87072467803955 54.42909240722656 15.635740280151367 54.2999267578125 C 15.426871299743652 54.20044708251953 15.303542137145996 53.97996520996094 15.328089714050293 53.74992370605469" stroke-width="1.0" fill="rgb(255, 255, 255)" opacity="1.0"/>
  </g>
</svg>
