<?xml version="1.0" ?>
<svg xmlns="http://www.w3.org/2000/svg" version="1.1" width="600" height="600">
  <defs/>
  <g>
    <path d="M 31.481569290161133 71.37162017822266 C 22.26102066040039 71.13822174072266 14.435919761657715 67.79792022705078 8.307319641113281 60.809471130371094 C -1.8608126640319824 49.22746276855469 -0.7146399021148682 31.595489501953125 10.867368698120117 21.427356719970703 C 11.194101333618164 21.1405086517334 11.52749252319336 20.861337661743164 11.867270469665527 20.590070724487305 C 16.076322555541992 17.180469512939453 21.144123077392578 14.997637748718262 26.513370513916016 14.281620025634766 C 34.30356979370117 13.114357948303223 42.24253845214844 15.019631385803223 48.65449905395508 19.59527015686035 C 53.17583465576172 22.71624755859375 56.703426361083984 27.07252311706543 58.81610107421875 32.14397048950195 C 63.68496322631836 43.66452407836914 60.25394821166992 57.018272399902344 50.43470001220703 64.76496887207031 C 46.23615264892578 68.1282958984375 41.20741653442383 70.29563903808594 35.87934875488281 71.03822326660156 C 34.421993255615234 71.24264526367188 32.95309066772461 71.35400390625 31.481569290161133 71.37162017822266" stroke-width="1.0" fill="rgb(228, 153, 84)" opacity="1.0"/>
    <path d="M 42.59000015258789 36.86056900024414 C 42.62710189819336 36.022220611572266 42.661800384521484 35.183719635009766 42.7021598815918 34.34552001953125 C 42.73069763183594 33.733795166015625 42.70494079589844 33.12074661254883 42.62519836425781 32.51356887817383 C 42.60166549682617 32.126678466796875 42.45694351196289 31.757007598876953 42.211551666259766 31.45697021484375 C 41.990516662597656 31.17326545715332 41.619380950927734 31.052152633666992 41.2735481262207 31.150869369506836 C 40.64090347290039 31.31467056274414 40.08869552612305 31.701444625854492 39.71855163574219 32.240020751953125 C 39.04403305053711 33.17827224731445 38.516414642333984 34.21382522583008 38.15385055541992 35.31101989746094 Q 37.393348693847656 37.570770263671875 36.60559844970703 39.821319580078125 C 36.184547424316406 40.98933029174805 35.66078186035156 42.11771011352539 35.04045104980469 43.19321823120117 C 34.695552825927734 43.802555084228516 34.280399322509766 44.36935043334961 33.80350112915039 44.88199996948242 C 33.33808135986328 45.38688278198242 32.74245071411133 45.75364303588867 32.08209991455078 45.941951751708984 C 31.018932342529297 46.29169845581055 29.849863052368164 45.96213912963867 29.125900268554688 45.10860061645508 C 28.440174102783203 44.30525588989258 27.993555068969727 43.32566452026367 27.83679962158203 42.281150817871094 C 27.562652587890625 40.729103088378906 27.508806228637695 39.146141052246094 27.676849365234375 37.57904815673828 C 27.827199935913086 35.715248107910156 28.1018009185791 33.86294937133789 28.219160079956055 31.995649337768555 C 28.30887794494629 31.157548904418945 28.198171615600586 30.31012535095215 27.896160125732422 29.5231990814209 C 27.765289306640625 28.989728927612305 27.226734161376953 28.663358688354492 26.69326400756836 28.79422950744629 C 26.581218719482422 28.82171630859375 26.474811553955078 28.868486404418945 26.378799438476562 28.932449340820312 C 25.950824737548828 29.138761520385742 25.589120864868164 29.460718154907227 25.3346004486084 29.861900329589844 C 24.800594329833984 30.704008102416992 24.372228622436523 31.60862159729004 24.059160232543945 32.55535125732422 C 23.675159454345703 33.58675003051758 23.295949935913086 34.619998931884766 22.906349182128906 35.64929962158203 C 22.6190128326416 36.42023849487305 22.22953987121582 37.14914321899414 21.748350143432617 37.81650161743164 C 21.09708023071289 38.74776840209961 20.0787410736084 39.356178283691406 18.950050354003906 39.48834991455078 C 17.926063537597656 39.64170837402344 16.92700958251953 39.08705520629883 16.51569938659668 38.13684844970703 C 16.218673706054688 37.462398529052734 16.067197799682617 36.7328987121582 16.07115936279297 35.995948791503906 C 16.085613250732422 34.73695755004883 16.21373176574707 33.48184585571289 16.453950881958008 32.24589920043945 C 16.632577896118164 31.37205696105957 16.72625160217285 30.482982635498047 16.733659744262695 29.591100692749023 C 16.740934371948242 29.328577041625977 16.705278396606445 29.066627502441406 16.62809944152832 28.81559944152832 C 16.454635620117188 28.304258346557617 15.984816551208496 27.95203971862793 15.44534969329834 27.92889976501465 C 14.773486137390137 27.91012191772461 14.119056701660156 28.144269943237305 13.611599922180176 28.584999084472656 C 13.051430702209473 29.03508758544922 12.572416305541992 29.577720642089844 12.195300102233887 30.18939971923828 C 11.511149406433105 31.30872344970703 10.954449653625488 32.50111389160156 10.535599708557129 33.744300842285156 C 9.866999626159668 35.58314895629883 9.21716022491455 37.42914962768555 8.521849632263184 39.257850646972656 C 7.847146511077881 41.06166076660156 6.925225257873535 42.76304244995117 5.78249979019165 44.31325149536133 C 5.3549370765686035 44.91196823120117 4.8394269943237305 45.44269943237305 4.253399848937988 45.88750076293945 C 3.4028635025024414 46.634891510009766 2.10748553276062 46.55127716064453 1.3600924015045166 45.700740814208984 C 1.2912307977676392 45.62237548828125 1.228450894355774 45.53887176513672 1.1722999811172485 45.450950622558594 C 0.6132374405860901 44.684303283691406 0.2549818754196167 43.78990173339844 0.13019999861717224 42.849300384521484 C -0.10789772868156433 41.23521041870117 -0.0007716620457358658 39.58897018432617 0.44449999928474426 38.01934814453125 C 1.6825004816055298 33.160892486572266 3.864562749862671 28.59357261657715 6.866300106048584 24.577749252319336 C 8.202601432800293 22.822202682495117 9.766596794128418 21.252304077148438 11.51710033416748 19.909400939941406 C 12.233699798583984 19.350200653076172 12.94950008392334 18.788349151611328 13.688349723815918 18.259450912475586 C 15.681260108947754 16.866289138793945 17.84286880493164 15.731597900390625 20.121400833129883 14.882550239562988 C 24.37994956970215 13.239908218383789 28.955368041992188 12.583625793457031 33.50394821166992 12.963000297546387 C 39.66256332397461 13.386222839355469 45.5157585144043 15.803858757019043 50.17789840698242 19.850099563598633 C 53.059112548828125 22.274131774902344 55.58144760131836 25.095083236694336 57.669349670410156 28.228450775146484 C 58.7326545715332 29.74980354309082 59.554595947265625 31.426267623901367 60.10609817504883 33.198551177978516 C 60.650569915771484 34.92420196533203 60.73757553100586 36.76167297363281 60.35860061645508 38.53105163574219 C 60.18641662597656 39.26540756225586 59.84128952026367 39.948001861572266 59.351951599121094 40.52199935913086 C 58.5989990234375 41.37590789794922 57.379451751708984 41.6432991027832 56.33829879760742 41.1827507019043 C 55.4991569519043 40.81496047973633 54.78927230834961 40.20447540283203 54.29999923706055 39.42985153198242 C 53.65147018432617 38.44839096069336 53.24825668334961 37.32547378540039 53.124298095703125 36.1556510925293 C 53.05387878417969 35.5479850769043 52.9451789855957 34.945369720458984 52.798851013183594 34.35139846801758 C 52.74174499511719 34.076663970947266 52.63162612915039 33.815696716308594 52.47465896606445 33.583099365234375 C 52.33183670043945 33.310306549072266 51.994911193847656 33.2049446105957 51.72211837768555 33.34777069091797 C 51.68266677856445 33.36842346191406 51.64583206176758 33.39373016357422 51.61240005493164 33.42314910888672 C 51.221214294433594 33.69351577758789 50.9163932800293 34.07106399536133 50.73455047607422 34.51044845581055 C 50.493221282958984 35.05392074584961 50.31011962890625 35.62141799926758 50.18830108642578 36.20344924926758 C 49.87459945678711 37.54719924926758 49.63010025024414 38.907100677490234 49.24020004272461 40.23305130004883 C 49.028472900390625 41.00906753540039 48.734683990478516 41.76032257080078 48.363800048828125 42.474098205566406 C 47.99280548095703 43.192115783691406 47.45669937133789 43.811832427978516 46.7995491027832 44.28229904174805 C 45.76294708251953 45.05648422241211 44.295013427734375 44.84375 43.52082824707031 43.80714797973633 C 43.43767547607422 43.69580841064453 43.364593505859375 43.577293395996094 43.30244827270508 43.452999114990234 C 42.82095718383789 42.496795654296875 42.56139373779297 41.44428253173828 42.54309844970703 40.37385177612305 C 42.47650146484375 39.20232009887695 42.5654182434082 38.0318717956543 42.59000015258789 36.86056900024414" stroke-width="1.0" fill="rgb(237, 237, 237)" opacity="1.0"/>
    <path d="M 42.654869079589844 16.655620574951172 C 42.166481018066406 16.62065887451172 41.676605224609375 16.611080169677734 41.18722152709961 16.626920700073242 C 40.993553161621094 16.653568267822266 40.79835510253906 16.59000015258789 40.65752029418945 16.45442008972168 C 40.351680755615234 16.11281967163086 40.403621673583984 15.807069778442383 40.80118179321289 15.551619529724121 C 42.50285720825195 14.47970962524414 43.79353713989258 12.865490913391113 44.46477127075195 10.969670295715332 C 44.644107818603516 10.402836799621582 44.7672004699707 9.819724082946777 44.832271575927734 9.22877025604248 C 44.854793548583984 9.037888526916504 44.88883972167969 8.848542213439941 44.93421936035156 8.66176986694336 C 44.95990753173828 8.356729507446289 45.22801208496094 8.130267143249512 45.53305435180664 8.155952453613281 C 45.687931060791016 8.168993949890137 45.83021545410156 8.246461868286133 45.92522048950195 8.36946964263916 C 46.15911865234375 8.579669952392578 46.374019622802734 8.810770034790039 46.605018615722656 9.024319648742676 C 47.02900695800781 9.417495727539062 47.515663146972656 9.737122535705566 48.044921875 9.970020294189453 C 48.60640335083008 10.233363151550293 49.248172760009766 10.268532752990723 49.8350715637207 10.068120002746582 C 51.08061218261719 9.703948974609375 52.097686767578125 8.801257133483887 52.607181549072266 7.607769966125488 C 52.74222183227539 7.285520076751709 52.8695182800293 6.9600701332092285 53.00136947631836 6.636519908905029 C 53.110469818115234 6.368869781494141 53.24222183227539 6.116419792175293 53.579681396484375 6.108069896697998 C 53.85075378417969 6.117666721343994 54.08751678466797 6.294208526611328 54.174068450927734 6.551270008087158 C 55.38037109375 8.898070335388184 57.45167922973633 9.879170417785645 59.93867874145508 10.197219848632812 C 60.52938461303711 10.265624046325684 61.1234245300293 10.301244735717773 61.71807098388672 10.303919792175293 C 62.07712173461914 10.309820175170898 62.23551940917969 10.419520378112793 62.28527069091797 10.65231990814209 C 62.33761978149414 10.897720336914062 62.20481872558594 11.103070259094238 61.879520416259766 11.243969917297363 C 61.623321533203125 11.354920387268066 61.36042022705078 11.451020240783691 61.09817886352539 11.547269821166992 C 60.55883026123047 11.752717971801758 60.04363250732422 12.016677856445312 59.56182098388672 12.334420204162598 C 58.29103088378906 13.074145317077637 57.52444839477539 14.447693824768066 57.56201934814453 15.917619705200195 C 57.56251907348633 16.214820861816406 57.5778694152832 16.512720108032227 57.56277084350586 16.809120178222656 C 57.536468505859375 17.327119827270508 57.20452117919922 17.514720916748047 56.73622131347656 17.2783203125 C 56.54977035522461 17.18416976928711 56.38322067260742 17.051319122314453 56.199771881103516 16.950319290161133 C 55.17772674560547 16.33350944519043 53.92082595825195 16.24787712097168 52.82456970214844 16.720369338989258 C 52.19044494628906 16.984827041625977 51.65360641479492 17.438899993896484 51.287620544433594 18.020370483398438 C 50.97856903076172 18.528181076049805 50.718692779541016 19.064327239990234 50.51152038574219 19.621519088745117 C 50.410621643066406 19.8723201751709 50.29201889038086 20.120019912719727 49.98421859741211 20.13991928100586 C 49.7081184387207 20.157819747924805 49.55287170410156 19.957420349121094 49.405818939208984 19.750619888305664 C 48.1321907043457 17.928287506103516 46.081275939941406 16.804500579833984 43.859920501708984 16.711769104003906 C 43.45917892456055 16.6806697845459 43.05656814575195 16.673620223999023 42.654869079589844 16.655620574951172" stroke-width="1.0" fill="rgb(0, 170, 175)" opacity="1.0"/>
    <path d="M 18.044919967651367 11.108169555664062 C 17.95241928100586 13.513819694519043 18.916120529174805 15.489219665527344 20.523120880126953 17.20322036743164 C 20.642620086669922 17.330669403076172 20.773719787597656 17.448469161987305 20.883319854736328 17.583820343017578 C 21.05512237548828 17.748455047607422 21.086071014404297 18.011789321899414 20.957120895385742 18.211769104003906 C 20.817319869995117 18.41836929321289 20.609020233154297 18.399669647216797 20.390920639038086 18.33946990966797 C 19.60940170288086 18.13143539428711 18.785037994384766 18.148193359375 18.01262092590332 18.387819290161133 C 16.901735305786133 18.69622039794922 15.971884727478027 19.45781135559082 15.450679779052734 20.486169815063477 C 15.252220153808594 20.855270385742188 15.0800199508667 21.23847007751465 14.889570236206055 21.61202049255371 C 14.774020195007324 21.83867073059082 14.61851978302002 22.040319442749023 14.333820343017578 22.018770217895508 C 14.08181381225586 21.985811233520508 13.87893009185791 21.79574203491211 13.829620361328125 21.546419143676758 C 13.5299072265625 20.63018035888672 13.057555198669434 19.7797908782959 12.438070297241211 19.041170120239258 C 12.017498970031738 18.548683166503906 11.528153419494629 18.11937141418457 10.985119819641113 17.766469955444336 C 9.975722312927246 17.0653076171875 8.693129539489746 16.88571548461914 7.529970169067383 17.282669067382812 C 7.181220054626465 17.395870208740234 6.837769985198975 17.525470733642578 6.489069938659668 17.638870239257812 C 6.342880725860596 17.695758819580078 6.189183235168457 17.731046676635742 6.032820224761963 17.743619918823242 C 5.757567882537842 17.769580841064453 5.5133867263793945 17.567489624023438 5.4874267578125 17.292236328125 C 5.478984832763672 17.202730178833008 5.494803428649902 17.11260223388672 5.533219814300537 17.031320571899414 C 5.638066291809082 16.80998992919922 5.77046537399292 16.602798461914062 5.92726993560791 16.414670944213867 C 6.721277236938477 15.413849830627441 6.708086967468262 13.99431324005127 5.895619869232178 13.00841999053955 C 5.708883762359619 12.755147933959961 5.509271144866943 12.511628150939941 5.29757022857666 12.278820037841797 C 4.719618320465088 11.645730972290039 4.089099884033203 11.062715530395508 3.4127700328826904 10.536020278930664 C 3.072269916534424 10.262020111083984 2.7261199951171875 9.994270324707031 2.3971800804138184 9.70691967010498 C 2.114870071411133 9.460320472717285 2.062269926071167 9.239270210266113 2.1931800842285156 9.02322006225586 C 2.345371961593628 8.795756340026855 2.6408650875091553 8.713523864746094 2.8886799812316895 8.829669952392578 C 3.355520009994507 8.974570274353027 3.8143200874328613 9.145170211791992 4.278180122375488 9.299819946289062 C 5.0723371505737305 9.57585620880127 5.909224510192871 9.708585739135742 6.749820232391357 9.69182014465332 C 7.320743560791016 9.697265625 7.854203224182129 9.408219337463379 8.161419868469238 8.926969528198242 C 8.43130874633789 8.518256187438965 8.654345512390137 8.08046817779541 8.826319694519043 7.621870040893555 C 9.003620147705078 7.1661200523376465 9.166569709777832 6.7047200202941895 9.334770202636719 6.245419979095459 C 9.424269676208496 6.001220226287842 9.553370475769043 5.791269779205322 9.850179672241211 5.8076701164245605 C 10.105483055114746 5.829216003417969 10.311822891235352 6.024703025817871 10.34712028503418 6.278470039367676 C 10.423720359802246 6.564469814300537 10.476619720458984 6.857419967651367 10.527770042419434 7.149519920349121 C 10.67068099975586 8.210575103759766 11.061443328857422 9.223066329956055 11.66841983795166 10.105019569396973 C 12.042922973632812 10.635092735290527 12.519655227661133 11.084914207458496 13.07056999206543 11.428019523620605 C 13.891135215759277 11.997333526611328 14.990233421325684 11.951343536376953 15.760370254516602 11.315469741821289 C 16.108051300048828 11.050045013427734 16.4250431060791 10.746668815612793 16.705469131469727 10.410969734191895 C 16.875680923461914 10.211520195007324 17.041019439697266 10.00741958618164 17.22076988220215 9.816869735717773 C 17.349571228027344 9.640054702758789 17.58317756652832 9.575222969055176 17.784679412841797 9.660369873046875 C 17.9862003326416 9.74337387084961 18.109712600708008 9.948424339294434 18.088869094848633 10.165369987487793 C 18.081920623779297 10.479820251464844 18.060270309448242 10.793919563293457 18.044919967651367 11.108169555664062" stroke-width="1.0" fill="rgb(0, 170, 175)" opacity="1.0"/>
    <path d="M 23.347370147705078 11.020870208740234 L 22.719369888305664 11.020870208740234 C 21.9708194732666 11.02101993560791 21.735570907592773 10.71796989440918 21.930570602416992 10.001020431518555 C 22.085540771484375 9.499682426452637 22.1412296295166 8.972929954528809 22.094520568847656 8.45026969909668 C 22.04783821105957 7.8385748863220215 21.62250328063965 7.321877479553223 21.031179428100586 7.158520221710205 C 20.715028762817383 7.056846618652344 20.38843536376953 6.991098880767822 20.05756950378418 6.962520122528076 C 19.882888793945312 6.953881740570068 19.710731506347656 6.91723108291626 19.547679901123047 6.853970050811768 C 19.263399124145508 6.757966995239258 19.110769271850586 6.449686050415039 19.20677375793457 6.1654052734375 C 19.211084365844727 6.152636528015137 19.215869903564453 6.140032768249512 19.221120834350586 6.127620220184326 C 19.262468338012695 6.012684345245361 19.316450119018555 5.902694225311279 19.382070541381836 5.799670219421387 C 20.178424835205078 4.440704345703125 20.40311050415039 2.8213114738464355 20.006820678710938 1.2968699932098389 C 19.955520629882812 1.0581200122833252 19.893720626831055 0.8210700154304504 19.855520248413086 0.5802199840545654 C 19.80901527404785 0.3852595388889313 19.894794464111328 0.18272370100021362 20.067180633544922 0.0804700031876564 C 20.250165939331055 -0.03820299729704857 20.488880157470703 -0.024962162598967552 20.65761947631836 0.11321999877691269 C 20.822050094604492 0.24281975626945496 20.97434425354004 0.38711482286453247 21.112619400024414 0.5443199872970581 C 21.871858596801758 1.4663289785385132 23.134885787963867 1.8008449077606201 24.2509708404541 1.3755199909210205 C 24.701576232910156 1.2366610765457153 25.142963409423828 1.0694884061813354 25.572500228881836 0.875 C 25.71394920349121 0.8064039945602417 25.860631942749023 0.7491733431816101 26.011159896850586 0.7038499712944031 C 26.285696029663086 0.5956252217292786 26.595983505249023 0.7304463982582092 26.704208374023438 1.004981517791748 C 26.74354362487793 1.1047660112380981 26.75193977355957 1.2140793800354004 26.728300094604492 1.3186999559402466 C 26.71285629272461 1.440164566040039 26.685592651367188 1.5598318576812744 26.646900177001953 1.6759999990463257 C 26.375015258789062 2.666110038757324 26.519287109375 3.7243096828460693 27.046300888061523 4.605500221252441 C 27.255929946899414 5.016952037811279 27.623741149902344 5.325570106506348 28.065349578857422 5.460549831390381 C 28.44785499572754 5.58437967300415 28.84361457824707 5.662719249725342 29.244449615478516 5.693950176239014 C 29.453535079956055 5.705842971801758 29.66085433959961 5.739116668701172 29.8631591796875 5.79325008392334 C 30.149728775024414 5.846593379974365 30.338794708251953 6.122145652770996 30.285449981689453 6.408713340759277 C 30.268198013305664 6.501398086547852 30.22643280029297 6.587769985198975 30.164499282836914 6.658850193023682 C 30.063161849975586 6.8011016845703125 29.95362663269043 6.9373321533203125 29.836450576782227 7.066850185394287 C 29.101329803466797 7.916043758392334 28.584274291992188 8.931620597839355 28.330049514770508 10.025650024414062 C 28.217411041259766 10.555910110473633 28.18394660949707 11.099932670593262 28.230749130249023 11.640000343322754 C 28.264293670654297 11.917980194091797 28.253305435180664 12.199529647827148 28.198200225830078 12.47404956817627 C 28.181604385375977 12.635086059570312 28.068178176879883 12.769574165344238 27.912250518798828 12.81309986114502 C 27.735597610473633 12.862293243408203 27.548839569091797 12.779547691345215 27.46660041809082 12.615650177001953 C 27.27789306640625 12.279586791992188 27.016910552978516 11.989623069763184 26.702499389648438 11.76669979095459 C 26.18319320678711 11.407157897949219 25.589263916015625 11.169780731201172 24.965200424194336 11.072349548339844 C 24.433124542236328 10.960368156433105 23.885488510131836 10.942941665649414 23.347370147705078 11.020870208740234" stroke-width="1.0" fill="rgb(0, 170, 175)" opacity="1.0"/>
    <path d="M 27.18950080871582 23.806320190429688 C 25.064905166625977 23.845094680786133 23.19095802307129 22.421762466430664 22.65825080871582 20.364669799804688 C 22.064006805419922 17.853103637695312 23.61830711364746 15.335346221923828 26.129873275756836 14.741104125976562 C 26.329004287719727 14.693989753723145 26.531015396118164 14.660004615783691 26.734600067138672 14.63936996459961 C 29.557588577270508 14.48328971862793 31.97260093688965 16.645246505737305 32.12868118286133 19.46823501586914 C 32.13301467895508 19.546586990356445 32.13554382324219 19.625030517578125 32.136268615722656 19.703500747680664 C 32.128177642822266 21.2918758392334 31.16142463684082 22.718029022216797 29.6889705657959 23.313749313354492 C 28.905424118041992 23.669981002807617 28.049617767333984 23.838634490966797 27.18950080871582 23.806320190429688" stroke-width="1.0" fill="rgb(191, 46, 27)" opacity="1.0"/>
    <path d="M 38.08757019042969 26.399620056152344 C 35.83231735229492 26.37605857849121 33.91985321044922 24.735931396484375 33.552818298339844 22.5106201171875 C 33.40192794799805 21.366867065429688 33.744022369384766 20.212858200073242 34.49386978149414 19.33612060546875 C 35.10977554321289 18.611730575561523 35.91315841674805 18.07081413269043 36.81602096557617 17.772619247436523 C 38.153175354003906 17.305356979370117 39.6375617980957 17.576295852661133 40.723419189453125 18.485820770263672 C 42.10707092285156 19.541770935058594 42.84907150268555 20.92947006225586 42.558319091796875 22.727270126342773 C 42.24747085571289 24.64971923828125 40.97901916503906 25.683719635009766 39.227569580078125 26.250219345092773 C 38.85734176635742 26.357534408569336 38.47294616699219 26.40791130065918 38.08757019042969 26.399620056152344" stroke-width="1.0" fill="rgb(191, 46, 27)" opacity="1.0"/>
    <path d="M 34.94662094116211 8.50586986541748 C 36.50796890258789 8.388469696044922 38.825721740722656 9.894269943237305 39.23862075805664 12.049619674682617 C 39.48594284057617 13.275525093078613 39.12207794189453 14.545156478881836 38.262969970703125 15.453969955444336 C 36.534507751464844 17.19269561767578 33.75469970703125 17.29564094543457 31.90237045288086 15.689519882202148 C 30.247602462768555 14.202938079833984 30.11125946044922 11.656371116638184 31.597841262817383 10.001603126525879 C 31.68525505065918 9.904298782348633 31.77735710144043 9.811311721801758 31.87381935119629 9.722970008850098 C 32.6883430480957 8.913816452026367 33.798946380615234 8.473919868469238 34.94662094116211 8.50586986541748" stroke-width="1.0" fill="rgb(191, 46, 27)" opacity="1.0"/>
    <path d="M 25.53396987915039 64.22862243652344 C 25.53396987915039 64.73436737060547 25.53597068786621 65.24011993408203 25.532470703125 65.74581909179688 C 25.53529930114746 65.86793518066406 25.524059295654297 65.98997497558594 25.49897003173828 66.1095199584961 C 25.422861099243164 66.4865493774414 25.07120132446289 66.74287414550781 24.6889705657959 66.69992065429688 C 24.327138900756836 66.65941619873047 24.049827575683594 66.35955810546875 24.03767967224121 65.99566650390625 C 24.03203773498535 65.92609405517578 24.031850814819336 65.8561782836914 24.037120819091797 65.78656768798828 Q 24.140995025634766 64.2459945678711 24.24721908569336 62.70561981201172 C 24.250085830688477 62.635833740234375 24.2574520111084 62.566307067871094 24.269269943237305 62.49747085571289 C 24.306894302368164 62.13157653808594 24.629104614257812 61.86222839355469 24.99587059020996 61.890071868896484 C 25.343189239501953 61.91706466674805 25.61205291748047 62.205413818359375 25.61471939086914 62.553768157958984 C 25.629619598388672 62.72666931152344 25.60987091064453 62.90237045288086 25.609270095825195 63.076820373535156 C 25.607969284057617 63.46072006225586 25.608869552612305 63.84461975097656 25.608869552612305 64.22856903076172 L 25.53396987915039 64.22862243652344" stroke-width="1.0" fill="rgb(163, 75, 64)" opacity="1.0"/>
    <path d="M 27.497180938720703 53.2140007019043 C 27.438919067382812 53.82210159301758 27.383220672607422 54.430450439453125 27.320220947265625 55.03805160522461 C 27.309675216674805 55.159420013427734 27.281442642211914 55.27859878540039 27.236419677734375 55.39179992675781 C 27.087987899780273 55.766571044921875 26.66384506225586 55.95005798339844 26.289073944091797 55.8016242980957 C 26.02080726623535 55.69537353515625 25.840316772460938 55.4410514831543 25.828569412231445 55.152748107910156 C 25.846803665161133 54.71683120727539 25.895051956176758 54.282684326171875 25.97296905517578 53.85340118408203 C 26.01936912536621 53.2796516418457 26.09847068786621 52.70845031738281 26.166719436645508 52.13655090332031 C 26.18003273010254 52.01515197753906 26.202089309692383 51.89487075805664 26.23271942138672 51.776649475097656 C 26.27890968322754 51.40330123901367 26.619014739990234 51.138084411621094 26.99236488342285 51.18427276611328 C 27.002565383911133 51.1855354309082 27.012737274169922 51.18702697753906 27.022869110107422 51.188751220703125 C 27.403371810913086 51.26329803466797 27.65199851989746 51.63144302368164 27.57901954650879 52.01224899291992 C 27.557180404663086 52.360599517822266 27.52642059326172 52.70840072631836 27.49987030029297 53.05644989013672 C 27.495920181274414 53.108699798583984 27.49346923828125 53.161048889160156 27.490320205688477 53.213348388671875 L 27.497180938720703 53.2140007019043" stroke-width="1.0" fill="rgb(163, 75, 64)" opacity="1.0"/>
    <path d="M 45.46968078613281 63.5189208984375 C 45.598018646240234 62.738468170166016 45.716121673583984 61.9267692565918 45.869869232177734 61.12186813354492 C 45.9024772644043 60.73904037475586 46.2392578125 60.45512771606445 46.62208557128906 60.487735748291016 C 46.62545394897461 60.48802185058594 46.62881851196289 60.48833465576172 46.632179260253906 60.488670349121094 C 47.02406692504883 60.55461502075195 47.288291931152344 60.92576599121094 47.222347259521484 61.317649841308594 C 47.220947265625 61.325950622558594 47.21940612792969 61.334224700927734 47.21772003173828 61.34246826171875 C 47.137569427490234 62.07057189941406 47.04256820678711 62.797019958496094 46.953819274902344 63.524169921875 C 46.945369720458984 63.59347152709961 46.941471099853516 63.663818359375 46.92702102661133 63.731868743896484 C 46.891876220703125 64.13776397705078 46.53435134887695 64.43830871582031 46.12845993041992 64.40316772460938 C 45.72256851196289 64.36802673339844 45.42201614379883 64.010498046875 45.457157135009766 63.604610443115234 C 45.459651947021484 63.57582473754883 45.46383285522461 63.54721450805664 45.46968078613281 63.5189208984375" stroke-width="1.0" fill="rgb(163, 75, 64)" opacity="1.0"/>
    <path d="M 31.479719161987305 60.202999114990234 C 31.5595703125 59.59585189819336 31.660770416259766 58.817298889160156 31.765819549560547 58.03919982910156 C 31.778759002685547 57.95268249511719 31.80207633972168 57.868038177490234 31.835269927978516 57.78710174560547 C 31.93815040588379 57.47629165649414 32.24827194213867 57.28324890136719 32.57257080078125 57.32815170288086 C 32.91436004638672 57.38893508911133 33.15791702270508 57.69398498535156 33.14152145385742 58.040748596191406 C 33.13956832885742 58.2317008972168 33.09941864013672 58.42205047607422 33.083770751953125 58.613250732421875 C 33.03961944580078 59.1525993347168 32.99972152709961 59.692298889160156 32.95682144165039 60.2318000793457 C 32.95119094848633 60.336368560791016 32.93941879272461 60.440513610839844 32.92156982421875 60.543701171875 C 32.89671325683594 60.943450927734375 32.5525016784668 61.24736404418945 32.15275192260742 61.22250747680664 C 32.12956619262695 61.221065521240234 32.10646057128906 61.218509674072266 32.083518981933594 61.21485137939453 C 31.68712043762207 61.16086959838867 31.464370727539062 60.853668212890625 31.479719161987305 60.202999114990234" stroke-width="1.0" fill="rgb(163, 75, 64)" opacity="1.0"/>
    <path d="M 37.97481918334961 66.26567077636719 C 38.05467987060547 65.71247100830078 38.15782165527344 64.98906707763672 38.265018463134766 64.26622009277344 C 38.27903366088867 64.18009948730469 38.303462982177734 64.09600067138672 38.3377685546875 64.0157699584961 C 38.44294738769531 63.70586395263672 38.75753402709961 63.51813507080078 39.08021926879883 63.57271957397461 C 39.422847747802734 63.62815856933594 39.66769790649414 63.93423080444336 39.646568298339844 64.28067016601562 C 39.645870208740234 64.4188232421875 39.61027145385742 64.5564193725586 39.5971794128418 64.69486999511719 C 39.55297088623047 65.16277313232422 39.51626968383789 65.63141632080078 39.467220306396484 66.09877014160156 C 39.45357131958008 66.30693054199219 39.41815948486328 66.5130844116211 39.361568450927734 66.7138671875 C 39.26325607299805 67.08424377441406 38.903160095214844 67.32230377197266 38.523868560791016 67.26766967773438 C 38.16176986694336 67.19557189941406 37.95222091674805 66.88272094726562 37.97481918334961 66.26567077636719" stroke-width="1.0" fill="rgb(163, 75, 64)" opacity="1.0"/>
    <path d="M 5.474999904632568 51.79399871826172 C 5.527299880981445 51.2327995300293 5.57105016708374 50.72999954223633 5.622900009155273 50.22800064086914 C 5.636683940887451 50.08926773071289 5.664270877838135 49.95225524902344 5.705249786376953 49.819000244140625 C 5.800402641296387 49.46132278442383 6.167495250701904 49.24850082397461 6.525174140930176 49.34365463256836 C 6.7972846031188965 49.41604232788086 6.995123863220215 49.65080642700195 7.020349979400635 49.931251525878906 C 7.028385162353516 50.104610443115234 7.0222649574279785 50.27833557128906 7.002049922943115 50.45069885253906 C 6.979100227355957 50.93745040893555 6.955160140991211 51.42414855957031 6.9328999519348145 51.91094970703125 C 6.938358306884766 52.12130355834961 6.879353046417236 52.32829284667969 6.763800144195557 52.504150390625 C 6.538153648376465 52.820953369140625 6.098410129547119 52.89485168457031 5.781605243682861 52.66920852661133 C 5.641727924346924 52.569576263427734 5.543074131011963 52.422271728515625 5.504199981689453 52.255001068115234 C 5.47941780090332 52.102657318115234 5.469637870788574 51.9482536315918 5.474999904632568 51.79399871826172" stroke-width="1.0" fill="rgb(163, 75, 64)" opacity="1.0"/>
    <path d="M 17.55582046508789 46.90449905395508 C 17.55582046508789 47.23500061035156 17.569520950317383 47.56624984741211 17.552570343017578 47.89590072631836 C 17.578182220458984 48.311397552490234 17.26211929321289 48.668983459472656 16.846622467041016 48.69459533691406 C 16.84054183959961 48.69497299194336 16.834457397460938 48.695274353027344 16.828369140625 48.695499420166016 C 16.416433334350586 48.6879997253418 16.088573455810547 48.34798049926758 16.096073150634766 47.9360466003418 C 16.096588134765625 47.90766525268555 16.098724365234375 47.879337310791016 16.10247039794922 47.851200103759766 C 16.117570877075195 47.22549819946289 16.164819717407227 46.60055160522461 16.201919555664062 45.97549819946289 C 16.208101272583008 45.888816833496094 16.22492790222168 45.80322265625 16.25201988220215 45.72064971923828 C 16.32855224609375 45.381690979003906 16.655071258544922 45.16035842895508 16.99827003479004 45.21480178833008 C 17.324384689331055 45.253868103027344 17.568510055541992 45.532630920410156 17.564220428466797 45.86104965209961 C 17.582019805908203 46.20800018310547 17.568069458007812 46.55659866333008 17.568069458007812 46.90449905395508 L 17.55582046508789 46.90449905395508" stroke-width="1.0" fill="rgb(163, 75, 64)" opacity="1.0"/>
    <path d="M 22.878719329833984 44.39167022705078 C 22.954919815063477 43.86587142944336 23.028270721435547 43.295169830322266 23.123470306396484 42.72816848754883 C 23.15049171447754 42.420406341552734 23.378854751586914 42.16814041137695 23.68242073059082 42.110721588134766 C 24.023544311523438 42.02873229980469 24.366544723510742 42.238807678222656 24.448532104492188 42.57992935180664 C 24.46109962463379 42.63222122192383 24.466976165771484 42.68589782714844 24.466020584106445 42.73966979980469 C 24.436038970947266 43.453346252441406 24.369619369506836 44.16502380371094 24.267019271850586 44.87192153930664 C 24.208271026611328 45.21622848510742 23.897340774536133 45.459407806396484 23.549020767211914 45.4334716796875 C 23.184825897216797 45.408931732177734 22.897031784057617 45.1150016784668 22.88018035888672 44.750370025634766 C 22.87067985534668 44.646820068359375 22.878719329833984 44.54161834716797 22.878719329833984 44.39167022705078" stroke-width="1.0" fill="rgb(163, 75, 64)" opacity="1.0"/>
    <path d="M 33.35926818847656 48.64316940307617 C 33.33436965942383 49.07822036743164 33.308719635009766 49.51316833496094 33.28506851196289 49.94826889038086 C 33.282283782958984 50.14051055908203 33.24668884277344 50.33086395263672 33.1798210144043 50.5111198425293 C 33.06520462036133 50.81708526611328 32.75278091430664 51.001747131347656 32.42947006225586 50.954620361328125 C 32.09923553466797 50.93349838256836 31.83895492553711 50.665191650390625 31.827869415283203 50.334468841552734 C 31.83057403564453 49.58499526977539 31.90946388244629 48.837738037109375 32.06332015991211 48.10422134399414 C 32.14583206176758 47.782711029052734 32.46348571777344 47.580238342285156 32.78976821899414 47.641170501708984 C 33.096473693847656 47.6754150390625 33.337501525878906 47.91939926147461 33.36800003051758 48.22650146484375 C 33.378944396972656 48.36528015136719 33.380027770996094 48.50466537475586 33.37125015258789 48.64360046386719 L 33.35926818847656 48.64316940307617" stroke-width="1.0" fill="rgb(163, 75, 64)" opacity="1.0"/>
    <path d="M 20.504180908203125 55.84321975708008 C 20.459680557250977 56.34796905517578 20.418519973754883 56.85301971435547 20.368179321289062 57.35717010498047 C 20.356107711791992 57.47883987426758 20.327037811279297 57.59822082519531 20.28182029724121 57.71181869506836 C 20.1691837310791 58.01947784423828 19.85550880432129 58.205299377441406 19.531570434570312 58.15626907348633 C 19.207109451293945 58.114173889160156 18.95546531677246 57.852298736572266 18.926319122314453 57.52642059326172 C 18.915618896484375 57.369510650634766 18.922527313232422 57.211891174316406 18.94692039489746 57.0565185546875 C 19.00527000427246 56.58842086791992 19.07406997680664 56.121620178222656 19.134469985961914 55.653770446777344 C 19.14912986755371 55.47902297973633 19.20149803161621 55.30952835083008 19.2879695892334 55.1569709777832 C 19.428504943847656 54.925899505615234 19.697492599487305 54.80606460571289 19.96327018737793 54.85612106323242 C 20.23323631286621 54.89335250854492 20.44669532775879 55.10347366333008 20.48818016052246 55.37282180786133 C 20.5030574798584 55.52907180786133 20.504627227783203 55.686302185058594 20.492870330810547 55.84281921386719 L 20.504180908203125 55.84321975708008" stroke-width="1.0" fill="rgb(163, 75, 64)" opacity="1.0"/>
    <path d="M 14.74927043914795 62.112571716308594 C 14.819869995117188 61.543418884277344 14.888270378112793 60.97391891479492 14.96321964263916 60.40531921386719 C 14.978840827941895 60.30195617675781 15.0068941116333 60.20085525512695 15.046770095825195 60.10422134399414 C 15.15047836303711 59.77422332763672 15.486480712890625 59.575679779052734 15.825570106506348 59.644020080566406 C 16.163211822509766 59.72130584716797 16.3897762298584 60.038795471191406 16.353069305419922 60.38322067260742 C 16.307470321655273 61.00722122192383 16.253870010375977 61.63106918334961 16.183069229125977 62.252620697021484 C 16.167360305786133 62.657100677490234 15.82691478729248 62.97237014770508 15.422419548034668 62.9570198059082 C 15.006131172180176 62.913211822509766 14.704176902770996 62.540225982666016 14.747986793518066 62.123939514160156 C 14.74838638305664 62.12014389038086 14.74881362915039 62.116355895996094 14.74927043914795 62.112571716308594" stroke-width="1.0" fill="rgb(163, 75, 64)" opacity="1.0"/>
    <path d="M 53.91822052001953 45.40681838989258 C 54.001068115234375 44.873470306396484 54.080421447753906 44.33951950073242 54.16957092285156 43.80717086791992 C 54.1893196105957 43.686981201171875 54.228179931640625 43.57072448730469 54.2846794128418 43.46281814575195 C 54.421607971191406 43.18563461303711 54.736576080322266 43.045326232910156 55.03422164916992 43.12892150878906 C 55.32225036621094 43.1802864074707 55.53102493286133 43.432212829589844 55.528018951416016 43.724769592285156 C 55.5070686340332 44.4559326171875 55.429534912109375 45.18437576293945 55.296119689941406 45.903568267822266 C 55.21600341796875 46.244441986083984 54.88468933105469 46.464298248291016 54.53947067260742 46.405670166015625 C 54.215232849121094 46.36507034301758 53.96484375 46.10105514526367 53.941471099853516 45.77511978149414 C 53.93294906616211 45.65364456176758 53.93212890625 45.5317497253418 53.93901824951172 45.41017150878906 L 53.91822052001953 45.40681838989258" stroke-width="1.0" fill="rgb(163, 75, 64)" opacity="1.0"/>
    <path d="M 38.63718032836914 48.459320068359375 C 38.600921630859375 48.91191864013672 38.56568145751953 49.364620208740234 38.527618408203125 49.81707000732422 C 38.52167510986328 49.92162322998047 38.50739669799805 50.02553939819336 38.484920501708984 50.1278190612793 C 38.43231964111328 50.51194763183594 38.079689025878906 50.781707763671875 37.6951789855957 50.731971740722656 C 37.32187271118164 50.703250885009766 37.04252624511719 50.37734603881836 37.07124710083008 50.0040397644043 C 37.07233810424805 49.98981857299805 37.073883056640625 49.97563934326172 37.075870513916016 49.96152114868164 C 37.12818145751953 49.318721771240234 37.21141815185547 48.67612075805664 37.32551956176758 48.0413703918457 C 37.353843688964844 47.67573165893555 37.673213958740234 47.40228271484375 38.038848876953125 47.430606842041016 C 38.061458587646484 47.43235778808594 38.083961486816406 47.43526840209961 38.10626983642578 47.4393196105957 C 38.483768463134766 47.49161911010742 38.679420471191406 47.77716827392578 38.66072082519531 48.250919342041016 C 38.6579704284668 48.32067108154297 38.648681640625 48.39012145996094 38.64242172241211 48.459720611572266 L 38.63718032836914 48.459320068359375" stroke-width="1.0" fill="rgb(163, 75, 64)" opacity="1.0"/>
    <path d="M 49.188819885253906 48.12532043457031 C 49.13991928100586 48.63911819458008 49.10002136230469 49.193870544433594 49.030818939208984 49.74491882324219 C 49.0241584777832 50.14973449707031 48.690589904785156 50.47249984741211 48.28577423095703 50.46583557128906 C 48.26894760131836 50.46556091308594 48.25213623046875 50.46470260620117 48.23537063598633 50.4632682800293 C 47.824851989746094 50.40447998046875 47.53971862792969 50.02402877807617 47.598506927490234 49.61351013183594 C 47.60198211669922 49.58924865722656 47.60663986206055 49.5651741027832 47.61246871948242 49.5413703918457 C 47.6662712097168 49.075618743896484 47.728118896484375 48.61082077026367 47.7882194519043 48.14582061767578 C 47.79868698120117 48.05965805053711 47.81456756591797 47.97423553466797 47.83576965332031 47.890071868896484 C 47.88264846801758 47.508243560791016 48.22862243652344 47.235633850097656 48.61082077026367 47.27936935424805 C 49.000789642333984 47.35829162597656 49.257041931152344 47.73333740234375 49.188819885253906 48.12532043457031" stroke-width="1.0" fill="rgb(163, 75, 64)" opacity="1.0"/>
    <path d="M 13.245499610900879 51.782470703125 C 13.219400405883789 52.12892150878906 13.213800430297852 52.47842025756836 13.162050247192383 52.82096862792969 C 13.14177131652832 53.19565200805664 12.8215913772583 53.48295211791992 12.446908950805664 53.46267318725586 C 12.436020851135254 53.46208572387695 12.425148010253906 53.46123123168945 12.414299964904785 53.460121154785156 C 12.043391227722168 53.44921112060547 11.75155258178711 53.13969039916992 11.762460708618164 52.76877975463867 C 11.762897491455078 52.7539176940918 11.763827323913574 52.739070892333984 11.765250205993652 52.72426986694336 C 11.767478942871094 52.15011215209961 11.816949844360352 51.57711410522461 11.91316032409668 51.011070251464844 C 11.93134880065918 50.90816116333008 11.962667465209961 50.80801010131836 12.006349563598633 50.713069915771484 C 12.120063781738281 50.428001403808594 12.413222312927246 50.25693130493164 12.717350006103516 50.29816818237305 C 13.04257583618164 50.34138107299805 13.284045219421387 50.621070861816406 13.279350280761719 50.949119567871094 C 13.2837495803833 51.226070404052734 13.245550155639648 51.503719329833984 13.226300239562988 51.781070709228516 L 13.245499610900879 51.782470703125" stroke-width="1.0" fill="rgb(163, 75, 64)" opacity="1.0"/>
    <path d="M 32.49121856689453 67.89527130126953 C 32.47761917114258 68.15572357177734 32.4752197265625 68.41737365722656 32.44792175292969 68.6763687133789 C 32.457679748535156 69.07488250732422 32.14253234863281 69.40585327148438 31.744020462036133 69.41561126708984 C 31.345508575439453 69.42536926269531 31.014541625976562 69.11022186279297 31.00478172302246 68.71170806884766 C 31.003610610961914 68.66382598876953 31.007205963134766 68.6159439086914 31.015520095825195 68.56877136230469 C 31.043519973754883 68.11786651611328 31.088470458984375 67.66796875 31.129520416259766 67.2179183959961 C 31.13777732849121 67.11386108398438 31.155330657958984 67.01074981689453 31.181970596313477 66.90982055664062 C 31.251928329467773 66.54814910888672 31.601831436157227 66.3116683959961 31.9635009765625 66.38162994384766 C 32.24898147583008 66.43685150146484 32.46579360961914 66.67064666748047 32.49937057495117 66.95947265625 C 32.53483200073242 67.27056884765625 32.5320930480957 67.5848388671875 32.49121856689453 67.89527130126953" stroke-width="1.0" fill="rgb(163, 75, 64)" opacity="1.0"/>
    <path d="M 42.733421325683594 54.317169189453125 C 42.69422149658203 54.805721282958984 42.66006851196289 55.20526885986328 42.6308708190918 55.60517120361328 C 42.63031768798828 55.853118896484375 42.52128601074219 56.088409423828125 42.33246994018555 56.24911880493164 C 42.12448501586914 56.422245025634766 41.8327522277832 56.45319747924805 41.59307098388672 56.327571868896484 C 41.311153411865234 56.19954299926758 41.148399353027344 55.9000129699707 41.19437026977539 55.59381866455078 C 41.24237060546875 55.07352066040039 41.30311965942383 54.55316925048828 41.3892707824707 54.038021087646484 C 41.4123649597168 53.6506462097168 41.74309158325195 53.35411834716797 42.130680084228516 53.373268127441406 C 42.52267837524414 53.40547180175781 42.75212097167969 53.71461868286133 42.74092102050781 54.19736862182617 C 42.73931884765625 54.266998291015625 42.732181549072266 54.336570739746094 42.733421325683594 54.317169189453125" stroke-width="1.0" fill="rgb(163, 75, 64)" opacity="1.0"/>
    <path d="M 14.779769897460938 32.647071838378906 C 14.764470100402832 32.925418853759766 14.7606201171875 33.205020904541016 14.731120109558105 33.481868743896484 C 14.725422859191895 33.86882400512695 14.407115936279297 34.177894592285156 14.020160675048828 34.17219924926758 C 13.633206367492676 34.16650390625 13.324134826660156 33.84819412231445 13.329832077026367 33.461238861083984 C 13.33006763458252 33.44524383544922 13.330850601196289 33.42926025390625 13.33218002319336 33.4133186340332 C 13.32304573059082 32.907470703125 13.365985870361328 32.40202713012695 13.460320472717285 31.904970169067383 C 13.49008846282959 31.530454635620117 13.817826271057129 31.250980377197266 14.192341804504395 31.280750274658203 C 14.566858291625977 31.310518264770508 14.846330642700195 31.638256072998047 14.81656265258789 32.01277160644531 C 14.8163480758667 32.015472412109375 14.816117286682129 32.01817321777344 14.81587028503418 32.020870208740234 C 14.81836986541748 32.22951889038086 14.795920372009277 32.43846893310547 14.784720420837402 32.64731979370117 L 14.779769897460938 32.647071838378906" stroke-width="1.0" fill="rgb(163, 75, 64)" opacity="1.0"/>
    <path d="M 11.87522029876709 41.91006851196289 C 11.839570045471191 42.360870361328125 11.821680068969727 42.72557067871094 11.779319763183594 43.087371826171875 C 11.766190528869629 43.482967376708984 11.434852600097656 43.79301834106445 11.03925609588623 43.77988815307617 C 11.03218936920166 43.7796516418457 11.025126457214355 43.77931213378906 11.018070220947266 43.77886962890625 C 10.629257202148438 43.74959945678711 10.337791442871094 43.410675048828125 10.36706256866455 43.0218620300293 C 10.368144035339355 43.007503509521484 10.36966323852539 42.99318313598633 10.371620178222656 42.978919982910156 C 10.40077018737793 42.49412155151367 10.455519676208496 42.00967025756836 10.525420188903809 41.52886962890625 C 10.549915313720703 41.16312789916992 10.858842849731445 40.88198471069336 11.22527027130127 40.891971588134766 C 11.608236312866211 40.91630554199219 11.898963928222656 41.24648666381836 11.874628067016602 41.62945556640625 C 11.874561309814453 41.63050842285156 11.874491691589355 41.63156509399414 11.874420166015625 41.63262176513672 C 11.879469871520996 41.75392150878906 11.87522029876709 41.87556838989258 11.87522029876709 41.91006851196289" stroke-width="1.0" fill="rgb(163, 75, 64)" opacity="1.0"/>
    <path d="M 52.66981887817383 53.834720611572266 C 52.59532165527344 54.26007080078125 52.53556823730469 54.746368408203125 52.41981887817383 55.21892166137695 C 52.351654052734375 55.58388137817383 52.00053787231445 55.824485778808594 51.63557434082031 55.75632095336914 C 51.61931610107422 55.7532844543457 51.603172302246094 55.74964904785156 51.587181091308594 55.745418548583984 C 51.22694778442383 55.669891357421875 50.989810943603516 55.32442092895508 51.04882049560547 54.96112060546875 C 51.12179946899414 54.47856521606445 51.22373580932617 54.00083541870117 51.354068756103516 53.530521392822266 C 51.43891525268555 53.19071578979492 51.77627182006836 52.977962493896484 52.119468688964844 53.047821044921875 C 52.47383117675781 53.13566970825195 52.708866119384766 53.47172546386719 52.66981887817383 53.834720611572266" stroke-width="1.0" fill="rgb(163, 75, 64)" opacity="1.0"/>
    <path d="M 40.94757080078125 38.535221099853516 C 40.89542007446289 38.88071823120117 40.84857177734375 39.31332015991211 40.761070251464844 39.737518310546875 C 40.724666595458984 40.12393569946289 40.38190841674805 40.407676696777344 39.99549102783203 40.37127685546875 C 39.60907745361328 40.33487319946289 39.32533264160156 39.99211502075195 39.36173629760742 39.60569763183594 C 39.3644905090332 39.576446533203125 39.36907958984375 39.54739761352539 39.37546920776367 39.51871871948242 C 39.42797088623047 39.087947845458984 39.50442123413086 38.660438537597656 39.604469299316406 38.2381706237793 C 39.6512336730957 37.86040496826172 39.995384216308594 37.59207534790039 40.37314987182617 37.63884353637695 C 40.37873077392578 37.63953399658203 40.384307861328125 37.64029312133789 40.389869689941406 37.64112091064453 C 40.762569427490234 37.704471588134766 40.969871520996094 38.003421783447266 40.94757080078125 38.535221099853516" stroke-width="1.0" fill="rgb(163, 75, 64)" opacity="1.0"/>
    <path d="M 46.608001708984375 13.71541976928711 C 46.71595001220703 13.792670249938965 46.809600830078125 13.716919898986816 46.904998779296875 13.693269729614258 C 48.19266128540039 13.373920440673828 49.47819900512695 13.04596996307373 50.76850128173828 12.737970352172852 C 51.00629806518555 12.689179420471191 51.216705322265625 12.551933288574219 51.357200622558594 12.35396957397461 C 52.10100173950195 11.404659271240234 52.90414047241211 10.503374099731445 53.76179885864258 9.65552043914795 C 53.90790557861328 9.505230903625488 54.07013702392578 9.371505737304688 54.245548248291016 9.256770133972168 C 54.46479415893555 9.05738639831543 54.804161071777344 9.073487281799316 55.003543853759766 9.292732238769531 C 55.01469802856445 9.304998397827148 55.0252799987793 9.317774772644043 55.03525161743164 9.33102035522461 C 55.1922492980957 9.565670013427734 55.130699157714844 9.798469543457031 54.8348503112793 10.052020072937012 C 54.154144287109375 10.702726364135742 53.51643371582031 11.396971702575684 52.925750732421875 12.130370140075684 C 53.11854934692383 12.15715217590332 53.31500244140625 12.131485939025879 53.494449615478516 12.056070327758789 C 55.05720138549805 11.608070373535156 56.655399322509766 11.315520286560059 58.240848541259766 10.967519760131836 C 58.39419174194336 10.933897972106934 58.5516471862793 10.923014640808105 58.708160400390625 10.935219764709473 C 58.90949249267578 10.944722175598145 59.07500457763672 11.097277641296387 59.10084915161133 11.29716968536377 C 59.1496467590332 11.490828514099121 59.06489181518555 11.693469047546387 58.89274978637695 11.794719696044922 C 58.72334671020508 11.886125564575195 58.53913497924805 11.946907997131348 58.34859848022461 11.97426986694336 Q 56.02825164794922 12.516594886779785 53.72895050048828 13.141519546508789 C 53.59495162963867 13.17821979522705 53.46200180053711 13.218620300292969 53.305198669433594 13.264069557189941 C 53.35060119628906 13.408120155334473 53.467201232910156 13.437170028686523 53.568599700927734 13.48091983795166 Q 54.337650299072266 13.81279468536377 55.107749938964844 14.142069816589355 C 55.18790054321289 14.17626953125 55.273101806640625 14.198570251464844 55.35309982299805 14.23311996459961 C 55.79130172729492 14.422269821166992 55.95709991455078 14.709569931030273 55.817848205566406 15.033920288085938 C 55.68989944458008 15.331870079040527 55.388160705566406 15.417070388793945 54.961551666259766 15.265970230102539 C 53.9270133972168 14.890884399414062 52.92119598388672 14.440875053405762 51.95209884643555 13.919520378112793 C 51.666603088378906 13.755274772644043 51.32630920410156 13.715073585510254 51.010398864746094 13.808270454406738 C 49.69390106201172 14.154769897460938 48.37120056152344 14.47782039642334 47.05094909667969 14.810370445251465 C 46.952049255371094 14.835269927978516 46.838401794433594 14.829270362854004 46.766700744628906 14.94081974029541 C 46.783748626708984 15.096870422363281 46.93080139160156 15.143219947814941 47.034549713134766 15.219470024108887 C 47.330101013183594 15.436670303344727 47.6411018371582 15.633319854736328 47.931800842285156 15.85651969909668 C 48.20249938964844 15.995291709899902 48.309452056884766 16.32723617553711 48.170677185058594 16.597936630249023 C 48.03190612792969 16.868637084960938 47.6999626159668 16.975587844848633 47.429264068603516 16.836814880371094 C 47.39268112182617 16.81806182861328 47.35831069946289 16.795270919799805 47.32680130004883 16.768869400024414 C 47.266170501708984 16.734071731567383 47.20771026611328 16.69561767578125 47.15174865722656 16.65372085571289 C 46.65774917602539 16.29361915588379 46.1385498046875 15.962220191955566 45.680049896240234 15.561470031738281 C 45.42802810668945 15.319913864135742 45.06077194213867 15.242277145385742 44.73255157470703 15.361169815063477 C 44.057899475097656 15.539469718933105 43.37316131591797 15.679969787597656 42.69089889526367 15.828470230102539 C 42.53797912597656 15.863486289978027 42.38120651245117 15.878793716430664 42.22439956665039 15.874019622802734 C 41.93505096435547 15.851076126098633 41.719085693359375 15.597911834716797 41.742027282714844 15.308561325073242 C 41.756141662597656 15.13054370880127 41.85968780517578 14.97187328338623 42.01694869995117 14.887269973754883 C 42.17513656616211 14.813924789428711 42.34213638305664 14.761322975158691 42.51380157470703 14.730770111083984 C 43.19475173950195 14.576020240783691 43.877899169921875 14.430970191955566 44.55889892578125 14.276320457458496 C 44.73445129394531 14.264204025268555 44.894813537597656 14.17243766784668 44.99420166015625 14.027219772338867 C 45.47511291503906 13.297102928161621 46.03804397583008 12.624455451965332 46.672000885009766 12.022419929504395 C 46.88774871826172 11.793620109558105 47.09870147705078 11.560319900512695 47.31439971923828 11.331469535827637 C 47.40584945678711 11.225961685180664 47.50578308105469 11.128117561340332 47.61320114135742 11.038920402526855 C 47.80583572387695 10.858650207519531 48.10813522338867 10.868674278259277 48.28840637207031 11.061309814453125 C 48.447547912597656 11.231368064880371 48.460853576660156 11.491406440734863 48.31990051269531 11.676819801330566 C 48.2613525390625 11.763727188110352 48.1955680847168 11.845534324645996 48.12324905395508 11.921369552612305 C 47.71950149536133 12.380620002746582 47.31174850463867 12.836370468139648 46.911598205566406 13.298720359802246 C 46.776912689208984 13.409825325012207 46.67247772216797 13.55316162109375 46.608001708984375 13.71541976928711" stroke-width="1.0" fill="rgb(255, 255, 255)" opacity="1.0"/>
    <path d="M 14.651470184326172 15.695070266723633 C 13.743419647216797 15.31682014465332 12.939820289611816 14.982870101928711 12.137120246887207 14.646869659423828 C 12.027756690979004 14.586185455322266 11.892627716064453 14.597230911254883 11.794569969177246 14.674869537353516 C 11.514253616333008 14.85287857055664 11.20516586303711 14.980878829956055 10.881070137023926 15.053170204162598 C 10.038180351257324 15.339570045471191 9.19806957244873 15.634320259094238 8.356220245361328 15.923819541931152 C 8.226076126098633 15.97484016418457 8.091644287109375 16.014162063598633 7.954520225524902 16.04132080078125 C 7.72121524810791 16.08134651184082 7.4925217628479 15.949389457702637 7.410419940948486 15.727370262145996 C 7.329813480377197 15.522648811340332 7.409111499786377 15.289661407470703 7.597869873046875 15.176619529724121 C 7.71582555770874 15.102089881896973 7.842469215393066 15.042293548583984 7.974969863891602 14.998570442199707 C 8.675519943237305 14.728520393371582 9.377820014953613 14.462969779968262 10.078969955444336 14.19437026977539 C 10.219719886779785 14.140469551086426 10.358070373535156 14.080220222473145 10.529520034790039 14.009770393371582 C 10.388553619384766 13.862142562866211 10.211478233337402 13.753887176513672 10.015819549560547 13.695719718933105 C 8.462180137634277 12.975469589233398 6.92726993560791 12.218669891357422 5.437119960784912 11.373519897460938 C 5.297109603881836 11.302046775817871 5.162915229797363 11.219711303710938 5.035769939422607 11.127269744873047 C 4.845784664154053 10.98652458190918 4.78145170211792 10.731305122375488 4.882019996643066 10.517319679260254 C 4.9906744956970215 10.306059837341309 5.239186763763428 10.208187103271484 5.462719917297363 10.288619995117188 C 5.611382007598877 10.338715553283691 5.754701614379883 10.403450012207031 5.890570163726807 10.4818696975708 C 7.2052202224731445 11.17317008972168 8.556469917297363 11.788470268249512 9.902020454406738 12.415570259094238 C 10.027020454406738 12.473819732666016 10.155420303344727 12.524820327758789 10.39031982421875 12.625519752502441 C 10.215470314025879 12.211919784545898 10.076069831848145 11.884220123291016 9.938420295715332 11.55582046508789 C 9.843860626220703 11.387978553771973 9.78504753112793 11.202388763427734 9.765680313110352 11.010720252990723 C 9.750067710876465 10.775064468383789 9.896169662475586 10.558798789978027 10.120619773864746 10.485320091247559 C 10.323315620422363 10.407486915588379 10.55307674407959 10.468561172485352 10.690369606018066 10.636770248413086 C 10.802793502807617 10.771239280700684 10.888847351074219 10.925705909729004 10.94402027130127 11.092069625854492 C 11.222620010375977 11.732720375061035 11.501520156860352 12.373319625854492 11.775420188903809 13.015970230102539 C 11.826864242553711 13.202147483825684 11.955635070800781 13.357349395751953 12.129119873046875 13.442270278930664 C 13.307519912719727 13.92471981048584 14.482680320739746 14.415069580078125 15.641420364379883 14.89542007446289 C 15.806920051574707 14.76121997833252 15.7158203125 14.642769813537598 15.688420295715332 14.5377197265625 C 15.52511978149414 13.912569999694824 15.352620124816895 13.289819717407227 15.186420440673828 12.665369987487793 C 15.058019638061523 12.182920455932617 15.162420272827148 11.890170097351074 15.492369651794434 11.790419578552246 C 15.825920104980469 11.689620018005371 16.111419677734375 11.875269889831543 16.23967933654785 12.337820053100586 C 16.546798706054688 13.248315811157227 16.77259635925293 14.184246063232422 16.914419174194336 15.13461971282959 C 16.917879104614258 15.312206268310547 17.043670654296875 15.463807106018066 17.21756935119629 15.499970436096191 Q 17.812170028686523 15.703519821166992 18.399770736694336 15.92726993560791 C 18.53131866455078 15.972640037536621 18.654987335205078 16.038244247436523 18.766319274902344 16.121719360351562 C 18.937158584594727 16.25786590576172 18.997987747192383 16.4902286529541 18.915769577026367 16.69261932373047 C 18.854612350463867 16.901893615722656 18.661787033081055 17.045001983642578 18.443769454956055 17.042919158935547 C 18.286100387573242 17.04422950744629 18.129884719848633 17.012693405151367 17.985069274902344 16.950319290161133 C 17.47718048095703 16.763219833374023 16.96417999267578 16.58946990966797 16.460220336914062 16.39246940612793 C 16.252315521240234 16.302751541137695 16.016508102416992 16.303293228149414 15.809020042419434 16.393970489501953 C 15.031920433044434 16.707670211791992 14.247369766235352 17.003019332885742 13.463419914245605 17.299419403076172 C 13.26845645904541 17.376096725463867 13.067837715148926 17.437530517578125 12.863369941711426 17.483169555664062 C 12.49131965637207 17.560819625854492 12.214469909667969 17.42346954345703 12.135769844055176 17.14582061767578 C 12.056920051574707 16.86762046813965 12.229220390319824 16.641319274902344 12.612970352172852 16.518569946289062 C 13.307826042175293 16.283729553222656 13.988470077514648 16.008766174316406 14.651470184326172 15.695070266723633" stroke-width="1.0" fill="rgb(255, 255, 255)" opacity="1.0"/>
    <path d="M 23.385269165039062 4.518819808959961 C 23.48043441772461 4.397840976715088 23.539979934692383 4.252723693847656 23.557220458984375 4.0997700691223145 C 23.634719848632812 3.8313701152801514 23.701919555664062 3.5598700046539307 23.785520553588867 3.2934200763702393 C 23.93256950378418 2.8248701095581055 24.178119659423828 2.6473701000213623 24.52751922607422 2.7433700561523438 C 24.86471939086914 2.836019992828369 24.980680465698242 3.125770092010498 24.846019744873047 3.6094698905944824 C 24.691570281982422 4.164370059967041 24.538570404052734 4.721320152282715 24.343469619750977 5.26246976852417 C 24.231916427612305 5.481614589691162 24.268733978271484 5.747058868408203 24.435720443725586 5.92756986618042 C 24.859819412231445 6.4323201179504395 25.258769989013672 6.958270072937012 25.671770095825195 7.480519771575928 C 25.81000328063965 7.328768730163574 25.90631675720215 7.143621444702148 25.95121955871582 6.943319797515869 C 26.02505874633789 6.747536659240723 26.109756469726562 6.556022644042969 26.204919815063477 6.3696699142456055 C 26.32858657836914 6.145402908325195 26.59644889831543 6.04365873336792 26.837820053100586 6.129270076751709 C 27.099607467651367 6.215764045715332 27.25090980529785 6.488979816436768 27.185319900512695 6.756770133972168 C 27.11174964904785 7.080664157867432 26.997421264648438 7.393927574157715 26.845069885253906 7.689070224761963 C 26.480981826782227 8.199600219726562 26.552770614624023 8.901117324829102 27.012720108032227 9.327320098876953 C 27.285465240478516 9.646185874938965 27.523193359375 9.993408203125 27.721820831298828 10.363019943237305 C 27.872867584228516 10.595985412597656 27.810205459594727 10.906937599182129 27.580720901489258 11.063220024108887 C 27.358911514282227 11.223411560058594 27.052371978759766 11.192532539367676 26.86697006225586 10.99131965637207 C 26.78165054321289 10.903749465942383 26.704994201660156 10.808137893676758 26.63806915283203 10.705820083618164 C 26.407419204711914 10.37677001953125 26.159570693969727 10.057220458984375 25.95867919921875 9.710670471191406 C 25.797897338867188 9.39528751373291 25.457313537597656 9.213833808898926 25.10586929321289 9.256319999694824 C 24.581844329833984 9.25088882446289 24.058439254760742 9.218596458435059 23.5377197265625 9.15956974029541 C 23.43381118774414 9.151416778564453 23.33208656311035 9.125401496887207 23.23702049255371 9.082670211791992 C 23.050575256347656 9.008866310119629 22.93751335144043 8.81844425201416 22.96196937561035 8.619420051574707 C 22.965511322021484 8.398453712463379 23.134828567504883 8.215581893920898 23.354869842529297 8.195070266723633 C 23.49365234375 8.18309497833252 23.63308334350586 8.180456161499023 23.772220611572266 8.187170028686523 C 24.080720901489258 8.186470031738281 24.389219284057617 8.186969757080078 24.790969848632812 8.186969757080078 C 24.518470764160156 7.829520225524902 24.292619705200195 7.529369831085205 24.062469482421875 7.23252010345459 C 23.856637954711914 6.888167858123779 23.600719451904297 6.57635498046875 23.303119659423828 6.3073201179504395 C 22.946569442749023 6.126871585845947 22.563695907592773 6.004016876220703 22.168720245361328 5.943319797515869 C 21.836416244506836 5.836389064788818 21.496746063232422 5.753870010375977 21.152420043945312 5.696420192718506 C 20.787919998168945 5.651669979095459 20.599470138549805 5.447319984436035 20.624679565429688 5.171820163726807 C 20.649869918823242 4.897069931030273 20.868019104003906 4.731969833374023 21.23246955871582 4.724269866943359 C 21.442523956298828 4.717562198638916 21.65235137939453 4.7433671951293945 21.854520797729492 4.800769805908203 C 21.957382202148438 4.84827184677124 22.07601547241211 4.84770393371582 22.17841911315918 4.799220085144043 C 22.032089233398438 4.54176664352417 21.8658504486084 4.296151161193848 21.68121910095215 4.064620018005371 C 21.55047607421875 3.8796072006225586 21.43556785583496 3.683897018432617 21.33772087097168 3.479569911956787 C 21.226627349853516 3.2405691146850586 21.3303165435791 2.9567618370056152 21.569316864013672 2.8456685543060303 C 21.779451370239258 2.7479934692382812 22.029382705688477 2.815390110015869 22.16192054748535 3.005470037460327 C 22.447179794311523 3.358370065689087 22.70656967163086 3.732069969177246 22.985769271850586 4.090020179748535 C 23.083984375 4.2619242668151855 23.220735549926758 4.408703804016113 23.385269165039062 4.518819808959961" stroke-width="1.0" fill="rgb(255, 255, 255)" opacity="1.0"/>
    <path d="M 25.709470748901367 15.805569648742676 C 25.72919464111328 16.471466064453125 25.20536994934082 17.027271270751953 24.539472579956055 17.046995162963867 C 24.52647590637207 17.047380447387695 24.513473510742188 17.047555923461914 24.500469207763672 17.04751968383789 C 23.931720733642578 17.059978485107422 23.46043586730957 16.60926055908203 23.447519302368164 16.04051971435547 C 23.495529174804688 15.355368614196777 24.031763076782227 14.805305480957031 24.715469360351562 14.739870071411133 C 25.28262710571289 14.763195037841797 25.72563934326172 15.238163948059082 25.709470748901367 15.805569648742676" stroke-width="1.0" fill="rgb(0, 0, 0)" opacity="1.0"/>
    <path d="M 42.39731979370117 18.57176971435547 C 42.92549133300781 18.61096954345703 43.33041000366211 19.057008743286133 43.31850051879883 19.58650016784668 C 43.275596618652344 20.20708465576172 42.749935150146484 20.68282699584961 42.12815856933594 20.663799285888672 C 41.59636306762695 20.635311126708984 41.186649322509766 20.183963775634766 41.209598541259766 19.651899337768555 C 41.25168228149414 19.031553268432617 41.77577590942383 18.5549373626709 42.39731979370117 18.57176971435547" stroke-width="1.0" fill="rgb(0, 0, 0)" opacity="1.0"/>
    <path d="M 36.61592102050781 9.858369827270508 C 36.12513732910156 9.867011070251465 35.720272064208984 9.476157188415527 35.711631774902344 8.985373497009277 C 35.71123504638672 8.962796211242676 35.71169662475586 8.94021224975586 35.71302032470703 8.917670249938965 C 35.746952056884766 8.319594383239746 36.22822570800781 7.844354152679443 36.82667922973633 7.817969799041748 C 37.35441970825195 7.838062763214111 37.781768798828125 8.253460884094238 37.81681823730469 8.780420303344727 C 37.75483703613281 9.395882606506348 37.23447799682617 9.86296558380127 36.61592102050781 9.858369827270508" stroke-width="1.0" fill="rgb(0, 0, 0)" opacity="1.0"/>
  </g>
</svg>
