<svg xmlns="http://www.w3.org/2000/svg" viewBox="0 0 29.04 29.23"><defs><style>.cls-1{fill:#f3eb33;}.cls-2{fill:#323333;}</style></defs><g id="图层_2" data-name="图层 2"><g id="图层_1-2" data-name="图层 1"><path class="cls-1" d="M10.72,1.17,28.53,2.6A130.54,130.54,0,0,1,16.06,28.73,90.07,90.07,0,0,1,.71,3.69a1.78,1.78,0,0,1-.1-1.61A1.82,1.82,0,0,1,2,1.49l7.86-1Z"/><path class="cls-2" d="M10.72,1.67,28.53,3.1l-.48-.64a132.76,132.76,0,0,1-12.42,26l.78-.1A90.85,90.85,0,0,1,5,11.62Q3.83,9.48,2.8,7.27c-.33-.73-.66-1.47-1-2.21s-1.39-2.35-.34-3a8.6,8.6,0,0,1,2.68-.37l2.7-.34,1.47-.19A7.12,7.12,0,0,1,9.61,1c.26.05.63.45.86.62.52.37,1-.49.5-.87a4.44,4.44,0,0,0-.91-.65A7.65,7.65,0,0,0,7.35.32L3.92.75a16.36,16.36,0,0,0-2.71.37c-1.32.41-1.41,1.55-1,2.7C.87,5.58,1.7,7.29,2.5,9A91,91,0,0,0,15.71,29.08a.5.5,0,0,0,.78-.1A133.66,133.66,0,0,0,29,2.73a.5.5,0,0,0-.48-.63L10.72.67C10.08.61,10.08,1.61,10.72,1.67Z"/></g></g></svg>