<svg xmlns="http://www.w3.org/2000/svg" viewBox="0 0 17.15 20.83"><defs><style>.cls-1{fill:#f3eb33;}.cls-2{fill:#323333;}</style></defs><g id="图层_2" data-name="图层 2"><g id="图层_1-2" data-name="图层 1"><path class="cls-1" d="M.49.6A126.84,126.84,0,0,1,14.28.79a2.84,2.84,0,0,1,2,.73,2.7,2.7,0,0,1,.23,2.2,36.47,36.47,0,0,1-8,16.61C6.13,13.76,3.25,7.75.8,1.18Z"/><path class="cls-2" d="M.49,1.1c3.2-.12,6.39-.14,9.58,0,1.5,0,3,.08,4.49.24.94.1,1.63.47,1.61,1.54a11.74,11.74,0,0,1-.41,2.19A36.38,36.38,0,0,1,8.23,20l.83.22c-1.31-3.5-2.77-6.93-4.23-10.37C4.07,8,3.31,6.22,2.58,4.41,2,3.06,1.6,1.64.93.35.63-.22-.24.29.06.86.78,2.23,1.25,3.76,1.83,5.2c.65,1.6,1.32,3.19,2,4.78,1.47,3.47,3,6.94,4.28,10.48a.51.51,0,0,0,.84.22,36.36,36.36,0,0,0,8.12-17c.19-1.09.17-2.33-.9-3s-3-.53-4.36-.59C8,0,4.26,0,.49.1-.15.13-.15,1.13.49,1.1Z"/></g></g></svg>