<svg xmlns="http://www.w3.org/2000/svg" viewBox="0 0 24.4 19.76"><defs><style>.cls-1{fill:#f3eb33;}.cls-2{fill:#323333;}</style></defs><g id="图层_2" data-name="图层 2"><g id="图层_1-2" data-name="图层 1"><path class="cls-1" d="M.89,7.65C7.35,5.93,14.23,2.42,20.7.71a2.71,2.71,0,0,1,2.13,0A2.69,2.69,0,0,1,23.75,3a66.21,66.21,0,0,1-1,16.27C15.13,14.88,7.18,14.28.5,8.59Z"/><path class="cls-2" d="M1,8.13c6.25-1.69,12.06-4.62,18.25-6.5a11.52,11.52,0,0,1,2.22-.58c1.45-.12,1.66.81,1.76,1.94a49.52,49.52,0,0,1,.11,5.45,66.15,66.15,0,0,1-1.12,10.69l.74-.3C15.84,14.77,7.27,13.61.86,8.24L1,8.73l.38-1c.24-.6-.73-.86-1-.27L0,8.46A.5.5,0,0,0,.15,9c6.5,5.44,15.09,6.63,22.32,10.75a.52.52,0,0,0,.74-.3A67.62,67.62,0,0,0,24.37,7.53a27.85,27.85,0,0,0-.23-5.48A2.27,2.27,0,0,0,21.8,0,17.61,17.61,0,0,0,17,1.3c-1.88.64-3.73,1.36-5.58,2.08A102.34,102.34,0,0,1,.75,7.16.5.5,0,0,0,1,8.13Z"/></g></g></svg>