<svg xmlns="http://www.w3.org/2000/svg" viewBox="0 0 19.58 26.77"><defs><style>.cls-1{fill:#f3eb33;}.cls-2{fill:#323333;}</style></defs><g id="图层_2" data-name="图层 2"><g id="图层_1-2" data-name="图层 1"><path class="cls-1" d="M6.28,4.28a121.89,121.89,0,0,1-5.77,22,104.24,104.24,0,0,0,18.58-15.6L6.72.49Z"/><path class="cls-2" d="M5.8,4.14A124.54,124.54,0,0,1,0,26.14a.5.5,0,0,0,.73.56A106.92,106.92,0,0,0,19.44,11a.5.5,0,0,0,0-.7L7.07.14a.5.5,0,0,0-.85.35L5.78,4.28c-.07.63.93.63,1,0L7.22.49,6.37.84,18.73,11v-.7A105.86,105.86,0,0,1,.26,25.84L1,26.4a122.73,122.73,0,0,0,5.77-22C6.87,3.78,5.9,3.51,5.8,4.14Z"/></g></g></svg>