<?xml version="1.0" ?>
<svg xmlns="http://www.w3.org/2000/svg" version="1.1" width="600" height="600">
  <defs/>
  <g>
    <path d="M 16.995397567749023 4.326051235198975 C 11.691396713256836 3.45565128326416 5.265396595001221 2.9660511016845703 1.95379638671875 7.222850799560547 C 0.7018334865570068 8.96816635131836 0.022319462150335312 11.058978080749512 0.00899640005081892 13.206851959228516 C -0.16694390773773193 18.52033805847168 2.2434465885162354 23.589508056640625 6.475796222686768 26.806852340698242 C 10.072996139526367 29.526851654052734 14.594996452331543 30.55364990234375 18.987796783447266 31.4444522857666 C 21.45619773864746 31.94085121154785 24.09459686279297 32.389652252197266 26.41339683532715 31.4444522857666 C 29.493797302246094 30.159252166748047 31.098596572875977 26.772851943969727 32.057395935058594 23.576852798461914 C 33.466453552246094 18.901220321655273 34.10943603515625 14.02834415435791 33.961395263671875 9.14725112915039 C 33.90699768066406 7.460851192474365 33.73699951171875 5.69965124130249 32.839393615722656 4.271651268005371 C 31.936851501464844 2.986583948135376 30.679895401000977 1.9918880462646484 29.2217960357666 1.4088512659072876 C 24.867643356323242 -0.5317983031272888 19.88134002685547 -0.4646845757961273 15.580997467041016 1.5924512147903442 L 16.995397567749023 4.326051235198975" stroke-width="1.0" fill="rgb(70, 150, 179)" opacity="1.0"/>
  </g>
</svg>
