<?xml version="1.0" ?>
<svg xmlns="http://www.w3.org/2000/svg" version="1.1" width="600" height="600">
  <defs/>
  <g>
    <path d="M 22.41131591796875 0.8799999952316284 C 16.496315002441406 0.6449999809265137 9.911314964294434 0.6399999856948853 5.531314849853516 4.605000019073486 C 1.26631498336792 8.454999923706055 0.49631500244140625 14.765000343322754 0.1063150018453598 20.5 C -0.04868499934673309 22.829999923706055 -0.1736849993467331 25.270000457763672 0.7913150191307068 27.395000457763672 C 2.4213149547576904 30.989999771118164 6.616314888000488 32.6150016784668 10.501315116882324 33.279998779296875 C 14.107011795043945 33.89862060546875 17.782855987548828 33.99628448486328 21.41631507873535 33.56999969482422 C 27.316314697265625 32.880001068115234 33.691314697265625 30.190000534057617 35.77631378173828 24.6299991607666 C 36.906314849853516 21.6299991607666 36.57131576538086 18.219999313354492 35.48131561279297 15.199999809265137 C 34.39131546020508 12.180000305175781 32.5863151550293 9.475000381469727 30.766315460205078 6.829999923706055 C 28.94631576538086 4.184999942779541 27.101314544677734 1.625 24.421314239501953 3.552713678800501e-15 L 22.41131591796875 0.8799999952316284" stroke-width="1.0" fill="rgb(218, 166, 20)" opacity="1.0"/>
  </g>
</svg>
