<?xml version="1.0" ?>
<svg xmlns="http://www.w3.org/2000/svg" version="1.1" width="600" height="600">
  <defs/>
  <g>
    <path d="M 18.431325912475586 0.07287799566984177 C 9.150263786315918 -0.7857648730278015 0.9304081797599792 6.041955471038818 0.07176529616117477 15.323018074035645 C -0.0017608592752367258 16.117761611938477 -0.01881636679172516 16.916719436645508 0.02072719857096672 17.713878631591797 C 0.1715271919965744 20.742876052856445 1.2349271774291992 23.84727668762207 3.4995269775390625 25.862276077270508 C 5.4131269454956055 27.565277099609375 7.971526622772217 28.334877014160156 10.488327026367188 28.802875518798828 C 17.226905822753906 30.04630470275879 24.175512313842773 29.462764739990234 30.612327575683594 27.112876892089844 C 32.31272506713867 26.48887825012207 34.01572799682617 25.711475372314453 35.266326904296875 24.395877838134766 C 37.36712646484375 22.188478469848633 37.81172561645508 18.813676834106445 37.25272750854492 15.815876960754395 C 36.425926208496094 11.364677429199219 33.63352584838867 7.40487813949585 29.98572540283203 4.721677780151367 C 26.337926864624023 2.038477897644043 21.8945255279541 0.5616779923439026 17.396526336669922 0.04167800024151802 L 18.431325912475586 0.07287799566984177" stroke-width="1.0" fill="rgb(143, 165, 67)" opacity="1.0"/>
  </g>
</svg>
